<svg viewBox="0 0 1000.00 821.04" xmlns="http://www.w3.org/2000/svg"><style>.ward { fill: #e2e8f0; stroke: #fff; stroke-width: 0.5px; } .ward:hover { fill: #cbd5e1; }</style><path id="ward-24" class="ward" d="M431.10 403.55L430.14 396.54L426.52 387.99L427.31 384.74L423.04 386.07L418.37 387.96L410.39 389.62L403.58 393.62L385.82 404.05L382.73 404.63L375.97 405.10L369.19 406.09L360.44 409.90L357.35 409.66L350.20 409.11L340.42 408.35L335.43 427.50L334.03 430.76L336.22 440.19L337.90 445.34L338.41 450.50L337.48 454.31L338.47 462.22L340.04 470.41L340.22 477.83L339.18 490.62L339.89 499.18L338.36 508.78L353.54 506.83L366.33 499.96L371.81 496.59L376.32 492.76L380.98 488.42L382.99 484.92L388.48 481.56L393.40 466.28L398.61 464.92L401.38 465.68L400.57 479.52L414.03 482.76L418.08 481.93L420.04 476.87L423.18 471.70L425.92 468.81L434.80 458.05L436.58 451.95L437.31 438.61L437.31 427.85L434.60 425.02L432.49 417.09L433.61 412.40L431.10 403.55Z" data-ward="24" /><path id="ward-21" class="ward" d="M254.90 477.87L254.27 474.74L261.25 460.14L262.34 451.71L260.26 444.81L258.14 440.59L265.73 436.95L263.97 421.60L267.20 420.70L266.73 402.01L264.71 400.30L249.99 396.88L246.59 395.99L239.24 394.07L228.05 390.21L217.53 387.88L202.53 387.57L199.76 388.87L200.56 403.53L200.45 413.56L197.86 421.88L199.07 426.32L200.70 430.66L200.63 433.56L185.43 450.81L166.81 475.77L168.48 479.99L169.57 491.50L171.82 492.73L171.86 499.04L172.92 512.52L172.73 517.90L172.28 523.31L175.04 524.05L177.93 523.81L184.24 523.71L187.50 524.49L189.70 526.17L192.20 523.97L191.89 518.68L191.79 508.58L194.44 505.00L195.75 506.54L197.29 511.50L204.84 514.65L210.87 517.94L213.10 518.74L217.92 519.43L220.29 518.93L230.76 516.70L229.32 513.12L228.08 495.12L228.00 489.74L227.79 487.52L225.52 486.00L224.64 482.97L240.32 480.54L243.07 483.51L248.15 481.40L254.90 477.87Z" data-ward="21" /><path id="ward-20" class="ward" d="M228.95 318.44L219.19 326.57L200.79 337.81L139.58 339.68L134.25 340.64L130.73 340.33L128.76 340.16L123.12 338.66L111.80 336.69L111.73 339.52L110.16 340.91L104.56 339.47L103.06 342.26L94.23 343.55L91.85 343.76L88.16 344.09L87.76 355.84L87.25 370.89L84.49 373.07L79.35 370.68L76.55 371.46L72.00 370.67L68.92 371.41L58.12 370.38L51.64 370.60L39.36 371.66L37.01 365.80L35.71 363.70L33.87 360.71L31.55 356.95L8.52 363.85L3.37 367.34L0.00 369.61L2.12 376.40L2.13 381.89L2.13 385.11L7.47 386.86L9.24 387.86L10.63 397.09L9.85 406.88L12.20 407.20L28.32 409.36L40.13 411.85L49.57 419.32L50.61 417.48L53.32 410.49L54.39 408.35L62.85 394.71L70.11 397.10L86.00 399.09L85.33 386.00L94.91 377.71L106.38 380.26L121.79 382.43L157.73 386.26L199.76 388.87L202.53 387.57L203.02 382.43L204.78 374.57L205.36 367.73L218.74 366.40L220.08 363.84L219.53 356.91L221.68 354.63L230.43 351.18L228.95 318.44Z" data-ward="20" /><path id="ward-19" class="ward" d="M199.76 388.87L157.73 386.26L121.79 382.43L106.38 380.26L94.91 377.71L85.33 386.00L86.00 399.09L70.11 397.10L62.85 394.71L54.39 408.35L53.32 410.49L50.61 417.48L49.57 419.32L53.19 422.19L61.76 434.64L62.15 438.59L62.71 443.59L63.99 451.24L69.70 457.97L69.24 461.58L72.01 464.38L83.05 467.18L87.53 468.93L89.57 469.60L91.89 470.35L96.82 461.03L122.63 466.81L155.14 466.50L158.54 468.46L166.81 475.77L185.43 450.81L200.63 433.56L200.70 430.66L199.07 426.32L197.86 421.88L200.45 413.56L200.56 403.53L199.76 388.87Z" data-ward="19" /><path id="ward-17" class="ward" d="M302.22 504.79L292.76 497.78L289.33 494.30L286.70 488.45L283.37 482.41L271.92 488.32L249.65 518.07L240.41 517.80L230.76 516.70L220.29 518.93L223.64 525.84L223.79 546.11L225.24 553.90L225.01 557.15L213.09 560.28L213.28 571.91L203.54 572.37L202.07 574.42L186.05 581.14L190.50 592.01L188.57 600.13L191.59 600.21L202.57 598.63L208.16 598.36L210.38 598.26L228.32 599.84L231.03 599.99L242.25 600.26L245.07 600.55L249.51 601.98L251.47 603.18L252.67 604.87L253.40 607.92L256.42 614.90L257.93 618.12L260.90 622.16L263.89 627.16L267.55 630.54L269.27 632.13L271.98 635.49L274.45 636.49L276.79 636.45L280.66 635.94L284.49 636.18L292.19 636.67L294.63 637.23L297.07 637.80L304.95 640.95L308.47 642.98L310.05 644.35L311.39 649.68L312.83 653.10L316.10 653.96L318.18 653.17L321.72 650.91L324.40 649.19L327.32 646.12L328.51 642.45L327.25 636.03L324.26 631.86L322.71 627.01L318.27 620.85L317.26 618.66L317.04 616.63L318.18 614.90L320.12 614.30L322.56 613.17L324.56 609.52L325.95 604.45L326.77 600.60L325.97 597.88L326.26 595.11L327.42 593.15L326.34 590.66L325.23 588.74L326.33 581.56L326.47 577.37L326.19 572.59L326.58 568.72L326.96 564.84L327.43 562.82L327.85 559.17L327.56 556.44L328.68 552.04L327.26 546.19L326.99 543.87L325.18 540.21L327.27 537.61L326.13 531.86L324.75 528.86L324.91 523.95L328.65 519.93L333.67 513.38L338.36 508.78L320.94 509.72L311.74 512.69L302.22 504.79Z" data-ward="17" /><path id="ward-15" class="ward" d="M549.69 638.46L546.11 612.62L542.89 598.27L538.00 559.52L535.31 551.50L528.13 535.66L527.06 533.29L522.55 522.50L521.01 519.50L509.27 496.57L509.77 493.60L503.74 478.43L512.53 467.87L521.33 455.05L519.33 452.85L504.38 446.54L497.86 442.35L489.65 434.96L488.08 432.89L485.01 426.84L478.44 410.53L477.53 406.59L475.92 404.36L472.01 400.50L471.32 397.99L464.64 393.04L466.42 390.80L459.38 382.92L453.95 378.69L451.24 380.10L442.75 382.70L436.05 382.74L432.38 383.16L429.30 384.12L427.31 384.74L426.52 387.99L430.14 396.54L431.10 403.55L433.61 412.40L432.49 417.09L434.60 425.02L437.31 427.85L437.31 438.61L436.58 451.95L434.80 458.05L425.92 468.81L423.18 471.70L420.04 476.87L418.08 481.93L419.59 484.67L421.93 486.32L427.48 486.56L434.91 492.41L438.38 494.52L440.27 496.39L442.19 499.77L449.75 508.28L452.75 514.27L453.95 517.36L458.27 535.28L461.52 542.17L467.44 551.20L471.75 556.33L475.54 562.40L478.49 565.21L479.48 567.58L484.03 575.71L487.24 579.73L496.13 592.02L495.98 594.44L502.53 608.83L504.88 623.81L504.10 626.01L504.98 628.91L505.57 632.53L505.47 637.33L506.27 639.79L506.48 642.92L506.45 646.04L510.45 642.87L514.26 640.51L518.04 640.66L519.90 641.25L521.80 641.49L523.42 642.80L531.31 644.58L534.17 645.61L538.11 644.70L549.69 638.46Z" data-ward="15" /><path id="ward-11" class="ward" d="M704.82 469.39L695.80 466.31L701.83 461.90L709.10 455.79L700.91 454.14L681.91 449.33L655.93 445.16L656.08 442.63L654.04 442.35L648.35 440.83L644.35 440.52L643.14 442.77L642.98 445.24L641.98 453.09L640.41 454.20L638.22 466.09L639.45 471.63L640.32 474.61L640.88 476.54L642.03 480.47L647.22 483.27L653.60 486.47L661.06 490.21L659.59 498.70L659.15 501.23L660.20 507.07L662.40 508.45L663.69 516.13L663.02 518.05L662.91 525.05L664.53 531.61L665.55 535.71L665.17 539.57L661.60 549.50L654.83 554.03L651.10 556.52L642.53 562.26L662.54 575.02L673.51 578.03L691.82 583.05L700.50 590.36L708.84 597.39L725.82 584.61L737.45 572.26L739.13 557.93L743.03 541.83L746.11 539.60L754.27 525.59L756.02 513.50L764.49 508.46L759.93 503.43L757.77 495.38L760.29 493.69L764.49 488.15L767.49 491.01L769.48 491.02L770.73 488.71L771.10 484.30L772.16 481.49L773.17 479.47L774.14 473.99L770.50 473.24L752.49 469.50L736.16 469.52L714.30 470.30L704.82 469.39Z" data-ward="11" /><path id="ward-7" class="ward" d="M807.09 372.49L804.51 367.49L785.56 372.60L785.32 369.88L775.28 371.45L772.69 372.94L769.06 376.82L762.19 385.38L758.34 389.71L758.13 395.33L756.38 401.56L756.62 416.91L755.49 418.56L748.34 424.18L744.70 427.73L740.24 431.37L727.21 441.39L719.88 447.57L709.10 455.79L701.83 461.90L695.80 466.31L704.82 469.39L714.30 470.30L736.16 469.52L752.49 469.50L770.50 473.24L774.14 473.99L785.66 476.67L808.45 480.28L819.18 481.06L818.96 467.59L821.02 466.23L826.94 466.91L825.39 454.02L836.16 452.26L846.17 452.07L847.55 444.89L848.47 436.99L847.80 433.04L848.08 430.21L848.63 424.63L847.93 414.86L838.94 414.32L840.14 408.47L837.92 401.13L835.32 401.14L828.55 402.25L828.51 409.18L828.88 411.35L825.23 411.57L823.19 411.72L818.63 412.33L817.15 410.70L816.37 407.66L813.29 402.66L810.17 401.53L811.38 398.53L811.64 394.70L813.24 391.55L809.66 381.81L808.70 375.61L807.09 372.49Z" data-ward="7" /><path id="ward-10" class="ward" d="M765.14 531.87L762.61 531.17L759.17 529.43L756.44 526.22L754.27 525.59L746.11 539.60L743.03 541.83L739.13 557.93L737.45 572.26L725.82 584.61L708.84 597.39L713.51 607.40L714.57 609.67L720.37 611.19L720.06 616.58L719.70 619.28L719.21 622.87L718.79 626.44L718.67 628.96L719.59 630.97L721.87 647.33L723.01 649.18L724.96 650.25L725.62 654.20L723.87 658.87L724.67 663.76L723.47 665.66L727.72 669.30L728.96 671.79L728.21 673.81L723.48 675.39L721.01 675.58L720.26 677.63L721.52 679.80L725.71 680.48L726.85 684.14L726.48 687.54L730.29 688.82L731.96 690.99L733.92 693.10L738.60 695.00L737.30 698.64L736.27 703.75L738.59 706.35L739.68 709.56L741.23 712.95L743.83 736.05L741.97 740.28L752.63 738.59L755.19 738.55L763.85 738.55L772.70 739.93L786.18 745.89L812.91 761.09L836.97 778.21L854.82 756.21L860.27 748.67L864.24 741.97L866.85 736.24L871.27 727.83L878.64 718.68L882.34 712.82L883.77 703.70L883.30 697.71L883.71 684.71L886.16 672.23L886.46 666.27L885.20 657.46L884.62 654.37L883.77 649.87L880.29 638.13L877.28 637.10L874.65 636.20L868.76 635.68L862.80 636.20L859.13 636.98L855.39 637.77L853.55 639.12L846.01 644.65L840.68 647.24L839.24 634.14L836.51 602.29L836.73 598.86L836.06 595.51L835.21 591.22L831.69 582.28L829.68 577.16L825.27 568.66L815.74 572.27L795.98 579.76L780.69 582.67L777.04 568.80L777.21 553.52L780.09 546.05L780.04 537.26L779.19 534.61L778.02 530.95L772.51 533.37L765.14 531.87Z" data-ward="10" /><path id="ward-6" class="ward" d="M748.04 239.58L745.64 236.88L745.21 240.75L735.43 240.05L726.84 242.47L728.27 245.25L702.28 253.47L702.26 263.98L701.14 272.24L698.56 281.93L690.84 298.81L686.96 305.37L683.43 312.55L681.94 319.39L673.71 319.36L671.03 318.94L670.72 328.06L670.28 330.51L670.22 335.91L669.56 343.45L667.57 350.83L665.46 363.39L661.97 374.71L671.51 374.25L668.63 385.39L665.01 396.74L661.37 406.99L661.56 414.54L659.77 419.98L656.08 442.63L655.93 445.16L681.91 449.33L700.91 454.14L709.10 455.79L719.88 447.57L727.21 441.39L740.24 431.37L744.70 427.73L748.34 424.18L755.49 418.56L756.62 416.91L756.38 401.56L758.13 395.33L758.34 389.71L762.19 385.38L769.06 376.82L772.69 372.94L775.28 371.45L785.32 369.88L784.78 363.81L781.39 346.87L779.61 335.22L779.12 333.04L777.28 327.87L776.38 322.96L775.12 318.25L773.24 312.55L769.69 299.29L768.85 297.15L767.72 294.44L763.44 285.05L755.38 270.52L754.57 267.92L753.02 261.45L751.13 251.16L749.56 244.16L748.04 239.58Z" data-ward="6" /><path id="ward-5" class="ward" d="M875.58 193.42L874.17 190.99L871.71 186.76L865.44 173.28L848.56 187.99L846.27 197.01L829.52 193.23L827.73 199.02L825.03 199.30L824.43 203.98L821.51 205.61L820.57 220.81L818.65 222.94L816.34 229.57L814.80 232.21L813.40 233.81L812.60 235.68L812.27 238.09L800.89 235.53L788.61 236.63L784.20 238.83L783.09 234.87L771.27 231.97L760.60 232.35L746.05 233.18L745.64 236.88L748.04 239.58L749.56 244.16L751.13 251.16L753.02 261.45L754.57 267.92L755.38 270.52L763.44 285.05L767.72 294.44L768.85 297.15L769.69 299.29L773.24 312.55L775.12 318.25L776.38 322.96L777.28 327.87L779.12 333.04L779.61 335.22L781.39 346.87L784.78 363.81L785.32 369.88L785.56 372.60L804.51 367.49L806.20 363.22L811.89 362.35L818.98 362.43L820.93 362.45L824.13 361.35L827.61 359.61L833.57 355.80L836.44 353.97L838.05 352.66L840.49 350.94L844.59 348.06L851.56 347.05L853.79 346.44L856.39 346.14L862.09 345.69L867.31 345.59L868.30 341.38L868.36 339.17L872.98 337.38L874.96 337.95L877.04 339.81L879.16 340.38L882.78 339.01L897.68 333.40L896.98 331.30L901.42 331.34L904.37 331.68L906.59 332.94L908.29 331.90L909.76 329.81L915.65 328.73L922.68 330.37L924.77 329.61L925.88 327.94L931.67 331.18L933.75 331.83L935.88 328.02L940.10 319.29L944.71 311.01L945.78 309.27L948.00 305.67L951.08 303.11L952.98 301.53L954.73 299.52L958.31 296.84L960.26 296.15L961.69 293.97L964.44 291.49L966.55 287.92L967.24 285.93L968.71 284.15L966.97 280.86L965.33 277.76L964.83 274.88L964.18 263.53L941.31 265.02L924.17 264.69L917.47 264.30L912.16 263.46L907.86 261.89L905.11 260.01L902.56 255.96L899.01 249.00L896.49 241.78L895.03 229.75L890.57 220.91L887.94 215.71L878.16 197.22L875.58 193.42Z" data-ward="5" /><path id="ward-4" class="ward" d="M849.35 158.12L837.56 152.63L827.66 149.27L817.83 147.83L793.43 145.35L780.78 144.07L773.16 143.30L767.28 141.43L763.41 139.31L761.31 138.54L757.86 141.04L755.51 144.48L756.14 146.55L746.77 150.98L745.90 152.93L734.04 158.51L724.55 159.35L722.37 160.06L718.33 160.37L713.64 160.73L711.46 160.67L709.47 161.26L705.74 159.32L704.25 160.95L698.56 161.13L696.63 157.92L689.56 156.90L685.08 157.61L682.93 158.73L676.33 157.45L674.56 158.19L670.73 158.23L667.84 160.38L654.98 161.46L654.70 165.84L654.35 171.52L654.12 176.52L653.77 184.02L653.82 191.17L654.43 195.71L655.29 200.61L655.55 203.26L654.21 213.34L654.16 216.72L653.81 218.80L649.55 220.55L646.24 221.21L641.22 221.90L642.41 226.69L644.67 227.26L651.25 228.14L654.44 228.10L662.87 226.88L672.21 229.16L689.87 233.95L702.07 236.35L702.25 238.48L702.07 240.48L703.79 244.60L702.28 253.47L728.27 245.25L726.84 242.47L735.43 240.05L745.21 240.75L745.64 236.88L746.05 233.18L760.60 232.35L771.27 231.97L783.09 234.87L784.20 238.83L788.61 236.63L800.89 235.53L812.27 238.09L812.60 235.68L813.40 233.81L814.80 232.21L816.34 229.57L818.65 222.94L820.57 220.81L821.51 205.61L824.43 203.98L825.03 199.30L827.73 199.02L829.52 193.23L846.27 197.01L848.56 187.99L865.44 173.28L861.13 168.55L859.22 166.68L857.73 165.22L853.27 161.44L849.35 158.12Z" data-ward="4" /><path id="ward-3" class="ward" d="M576.94 151.40L574.02 150.53L571.45 150.84L569.47 157.06L563.92 155.12L556.72 154.14L551.48 154.73L546.65 154.78L543.58 155.84L541.96 157.29L527.43 166.58L515.30 172.18L513.06 170.17L513.42 166.79L490.29 165.16L487.31 174.72L486.64 180.80L483.09 182.88L480.23 186.13L477.81 191.00L476.46 196.28L467.49 203.69L466.63 229.51L468.18 260.27L468.53 267.30L473.06 266.02L497.56 256.67L504.39 251.57L513.20 257.21L525.93 263.85L532.06 265.25L554.89 268.68L567.74 273.37L579.21 276.00L583.50 277.23L587.36 278.77L597.54 283.88L605.99 289.75L630.86 300.56L638.19 304.12L653.70 308.73L656.62 312.21L659.38 313.36L662.27 314.87L667.38 318.36L671.03 318.94L673.71 319.36L681.94 319.39L683.43 312.55L686.96 305.37L690.84 298.81L698.56 281.93L701.14 272.24L702.26 263.98L702.28 253.47L703.79 244.60L702.07 240.48L702.25 238.48L702.07 236.35L689.87 233.95L672.21 229.16L662.87 226.88L654.44 228.10L651.25 228.14L644.67 227.26L642.41 226.69L641.22 221.90L646.24 221.21L649.55 220.55L653.81 218.80L654.16 216.72L654.21 213.34L655.55 203.26L655.29 200.61L654.43 195.71L653.82 191.17L653.77 184.02L654.12 176.52L654.35 171.52L654.70 165.84L654.98 161.46L651.62 159.73L641.65 159.63L628.57 153.68L622.95 155.99L616.96 153.13L615.40 151.09L613.70 152.16L610.50 154.17L604.23 157.08L602.52 155.35L601.57 151.79L598.80 150.90L594.21 151.20L592.26 150.90L585.24 151.42L582.38 151.96L576.94 151.40Z" data-ward="3" /><path id="ward-2" class="ward" d="M565.06 84.11L564.71 80.11L564.39 76.51L557.71 78.22L556.92 80.59L556.12 89.34L551.64 89.98L540.78 90.05L518.42 88.40L517.95 93.38L517.50 110.35L517.48 112.74L517.98 118.92L517.47 121.56L517.07 126.71L515.92 129.11L511.08 128.94L507.23 129.07L446.95 133.25L419.23 135.18L395.72 135.30L378.29 125.05L370.68 125.57L369.30 132.98L366.88 145.91L363.97 143.51L363.00 147.22L366.66 150.69L367.16 158.78L367.67 167.02L368.65 176.49L372.49 177.01L374.90 177.75L378.74 179.50L383.69 173.06L385.62 172.65L391.09 184.46L393.25 185.49L394.44 188.00L397.62 188.77L404.15 190.34L406.27 190.52L410.07 187.71L411.45 185.91L412.75 184.23L416.78 186.17L419.77 187.61L416.52 189.64L413.41 193.68L416.80 196.35L419.30 199.75L418.80 204.87L421.38 205.31L426.21 206.15L429.27 209.84L433.99 211.76L436.44 212.85L441.20 214.95L454.25 221.58L460.86 226.06L463.15 227.60L466.63 229.51L467.49 203.69L476.46 196.28L477.81 191.00L480.23 186.13L483.09 182.88L486.64 180.80L487.31 174.72L490.29 165.16L513.42 166.79L513.06 170.17L515.30 172.18L527.43 166.58L541.96 157.29L543.58 155.84L546.65 154.78L551.48 154.73L556.72 154.14L563.92 155.12L565.24 151.08L565.18 149.06L565.75 146.75L567.02 141.57L567.30 139.01L568.12 135.82L568.07 132.15L565.85 129.94L566.01 119.35L566.10 117.38L566.43 113.80L567.34 112.02L568.02 108.32L568.36 104.40L567.77 101.24L567.91 96.23L566.02 91.49L565.06 84.11Z" data-ward="2" /><path id="ward-1" class="ward" d="M546.71 18.84L537.25 6.88L534.13 5.49L532.07 4.58L529.76 3.55L527.04 3.27L494.30 0.00L494.23 2.61L494.10 7.92L493.07 14.77L484.14 18.20L476.87 19.41L473.05 18.13L471.92 25.17L470.74 32.63L470.32 35.25L468.58 41.07L469.79 47.52L469.68 56.18L468.99 59.03L469.19 61.95L469.56 67.38L469.19 69.56L465.57 66.47L464.51 63.01L461.44 61.68L457.36 61.85L455.41 61.65L448.65 60.98L443.26 60.45L429.55 59.57L423.96 59.78L421.47 58.01L419.14 57.08L412.66 62.26L409.79 66.29L406.47 67.39L404.70 70.58L402.76 72.25L400.26 73.43L396.17 74.94L392.40 77.27L380.82 116.49L378.29 125.05L395.72 135.30L419.23 135.18L446.95 133.25L507.23 129.07L511.08 128.94L515.92 129.11L517.07 126.71L517.47 121.56L517.98 118.92L517.48 112.74L517.50 110.35L517.95 93.38L518.42 88.40L540.78 90.05L551.64 89.98L556.12 89.34L556.92 80.59L557.71 78.22L564.39 76.51L564.09 74.25L564.69 60.75L565.08 57.97L568.76 43.53L555.12 50.99L555.98 40.67L555.89 38.07L555.31 35.98L552.27 32.87L550.51 32.16L548.19 31.21L541.64 30.05L538.31 28.74L546.71 18.84Z" data-ward="1" /><path id="ward-8" class="ward" d="M846.17 452.07L836.16 452.26L825.39 454.02L826.94 466.91L821.02 466.23L818.96 467.59L819.18 481.06L808.45 480.28L785.66 476.67L774.14 473.99L773.17 479.47L772.16 481.49L771.10 484.30L770.73 488.71L769.48 491.02L767.49 491.01L764.49 488.15L760.29 493.69L757.77 495.38L759.93 503.43L764.49 508.46L756.02 513.50L754.27 525.59L756.44 526.22L759.17 529.43L762.61 531.17L765.14 531.87L772.51 533.37L778.02 530.95L779.19 534.61L780.04 537.26L780.09 546.05L777.21 553.52L777.04 568.80L780.69 582.67L795.98 579.76L815.74 572.27L825.27 568.66L821.98 562.29L818.61 555.13L826.11 552.19L828.66 551.53L832.30 551.15L835.84 549.25L847.48 543.57L854.99 537.75L870.77 532.55L886.77 530.39L896.13 531.64L906.03 530.21L913.63 516.72L914.48 514.13L915.77 508.25L913.53 503.44L911.28 502.52L908.16 497.77L906.52 493.71L895.57 493.80L892.02 492.32L887.70 488.96L887.67 486.85L882.57 481.22L884.67 474.31L881.11 471.51L876.91 470.51L876.64 467.66L872.18 465.14L867.45 463.43L862.92 460.50L863.45 457.64L856.35 455.73L850.95 456.96L848.53 456.97L846.17 452.07Z" data-ward="8" /><path id="ward-9" class="ward" d="M906.03 530.21L896.13 531.64L886.77 530.39L870.77 532.55L854.99 537.75L847.48 543.57L835.84 549.25L832.30 551.15L828.66 551.53L826.11 552.19L818.61 555.13L821.98 562.29L825.27 568.66L829.68 577.16L831.69 582.28L835.21 591.22L836.06 595.51L836.73 598.86L836.51 602.29L839.24 634.14L840.68 647.24L846.01 644.65L853.55 639.12L855.39 637.77L859.13 636.98L862.80 636.20L868.76 635.68L874.65 636.20L877.28 637.10L880.29 638.13L883.77 649.87L884.62 654.37L885.20 657.46L886.46 666.27L886.16 672.23L883.71 684.71L883.30 697.71L883.77 703.70L882.34 712.82L878.64 718.68L871.27 727.83L866.85 736.24L864.24 741.97L860.27 748.67L854.82 756.21L836.97 778.21L856.80 793.11L862.12 797.34L871.53 805.42L882.47 812.31L892.19 816.00L926.05 820.09L931.55 820.50L935.29 821.04L939.54 820.41L952.47 820.40L961.38 817.02L971.58 810.93L978.74 804.21L985.51 792.74L989.86 783.97L996.70 772.11L1000.00 763.53L992.26 758.22L984.54 753.98L982.08 751.32L978.45 747.39L971.56 747.19L966.42 743.26L962.50 741.70L963.74 737.60L966.60 737.97L968.67 735.56L971.40 729.79L972.80 727.62L972.24 724.60L972.76 722.68L969.89 713.84L970.07 711.21L970.85 705.46L970.64 702.50L970.88 698.14L973.83 692.53L972.09 687.56L969.26 688.19L964.45 682.04L964.07 677.98L962.81 675.92L959.85 672.72L958.71 670.24L955.77 669.61L953.33 668.61L951.55 665.91L947.66 661.05L944.22 658.47L935.86 654.25L934.02 651.25L931.63 653.30L929.39 650.47L921.17 644.52L917.76 645.00L912.22 643.10L908.08 643.18L905.76 641.84L903.88 639.12L901.10 636.91L899.63 633.99L898.40 627.54L895.84 621.88L899.11 618.89L900.18 609.87L900.29 602.74L903.85 602.05L906.42 601.55L909.43 600.84L918.43 603.11L923.96 600.59L930.55 597.86L928.98 589.94L924.26 588.62L920.72 577.60L916.70 560.83L911.13 560.35L904.34 560.89L907.60 539.22L907.32 534.49L906.03 530.21Z" data-ward="9" /><path id="ward-23" class="ward" d="M303.78 440.43L297.87 439.90L296.39 435.55L297.94 429.33L295.22 420.70L304.17 418.29L302.83 412.81L300.39 405.07L266.73 402.01L267.20 420.70L263.97 421.60L265.73 436.95L258.14 440.59L260.26 444.81L262.34 451.71L261.25 460.14L254.27 474.74L254.90 477.87L248.15 481.40L243.07 483.51L240.32 480.54L224.64 482.97L225.52 486.00L227.79 487.52L228.00 489.74L228.08 495.12L229.32 513.12L230.76 516.70L240.41 517.80L249.65 518.07L271.92 488.32L283.37 482.41L286.70 488.45L289.33 494.30L292.76 497.78L302.22 504.79L311.74 512.69L320.94 509.72L338.36 508.78L339.89 499.18L339.18 490.62L340.22 477.83L340.04 470.41L338.47 462.22L337.48 454.31L338.41 450.50L337.90 445.34L336.22 440.19L334.03 430.76L335.43 427.50L340.42 408.35L333.91 408.49L321.35 407.85L322.90 415.93L323.44 422.05L316.59 428.38L312.25 430.04L310.16 430.85L310.06 436.26L309.10 440.60L303.78 440.43Z" data-ward="23" /><path id="ward-22" class="ward" d="M276.83 316.89L273.23 313.74L271.19 312.73L269.23 312.35L267.01 309.70L265.40 308.24L262.51 303.89L260.69 301.15L257.16 299.61L247.35 294.51L244.55 300.83L242.92 304.42L238.50 318.66L228.95 318.44L230.43 351.18L221.68 354.63L219.53 356.91L220.08 363.84L218.74 366.40L205.36 367.73L204.78 374.57L203.02 382.43L202.53 387.57L217.53 387.88L228.05 390.21L239.24 394.07L246.59 395.99L249.99 396.88L264.71 400.30L266.73 402.01L300.39 405.07L302.83 412.81L304.17 418.29L295.22 420.70L297.94 429.33L296.39 435.55L297.87 439.90L303.78 440.43L309.10 440.60L310.06 436.26L310.16 430.85L312.25 430.04L316.59 428.38L323.44 422.05L322.90 415.93L321.35 407.85L317.01 406.04L317.14 403.70L317.65 394.85L317.53 391.73L316.32 390.12L317.14 386.40L317.25 379.19L318.78 376.17L319.56 373.77L317.41 371.29L315.14 367.77L314.82 365.15L314.77 359.67L314.35 354.04L312.25 351.20L310.81 347.78L305.66 341.78L290.68 326.23L287.92 322.74L283.66 316.52L279.15 318.32L277.20 319.10L276.83 316.89Z" data-ward="22" /><path id="ward-18" class="ward" d="M96.82 461.03L91.89 470.35L89.54 476.97L88.71 481.67L86.69 482.16L86.36 486.95L84.23 490.29L84.78 492.17L84.23 496.02L89.62 498.04L98.65 500.44L97.05 506.30L88.96 506.17L85.16 511.58L84.30 516.30L88.43 516.38L86.43 526.62L83.15 529.10L81.38 541.55L80.49 547.80L79.61 553.98L83.72 558.55L87.78 561.30L94.02 565.52L98.01 567.07L103.08 569.05L105.13 572.53L109.16 572.96L113.85 580.20L126.16 578.29L125.79 583.44L125.24 586.96L128.13 589.82L131.72 592.61L140.27 586.45L142.46 585.87L150.07 586.67L152.80 586.44L154.46 584.87L155.34 581.16L156.21 578.48L158.20 576.86L160.09 577.56L163.18 582.41L166.30 590.14L168.19 591.23L174.16 593.68L183.93 599.11L187.32 601.70L188.57 600.13L190.50 592.01L186.05 581.14L202.07 574.42L203.54 572.37L213.28 571.91L213.09 560.28L225.01 557.15L225.24 553.90L223.79 546.11L223.64 525.84L220.29 518.93L217.92 519.43L213.10 518.74L210.87 517.94L204.84 514.65L197.29 511.50L195.75 506.54L194.44 505.00L191.79 508.58L191.89 518.68L192.20 523.97L189.70 526.17L187.50 524.49L184.24 523.71L177.93 523.81L175.04 524.05L172.28 523.31L172.73 517.90L172.92 512.52L171.86 499.04L171.82 492.73L169.57 491.50L168.48 479.99L166.81 475.77L158.54 468.46L155.14 466.50L122.63 466.81L96.82 461.03Z" data-ward="18" /><path id="ward-16" class="ward" d="M400.57 479.52L401.38 465.68L398.61 464.92L393.40 466.28L388.48 481.56L382.99 484.92L380.98 488.42L376.32 492.76L371.81 496.59L366.33 499.96L353.54 506.83L338.36 508.78L333.67 513.38L328.65 519.93L324.91 523.95L324.75 528.86L326.13 531.86L327.27 537.61L325.18 540.21L326.99 543.87L327.26 546.19L328.68 552.04L327.56 556.44L327.85 559.17L327.43 562.82L326.96 564.84L326.58 568.72L333.06 569.49L336.46 570.12L341.94 570.56L348.23 573.88L350.75 574.22L356.52 574.21L363.38 572.31L364.74 569.37L371.86 571.11L374.44 569.66L375.79 565.86L377.73 563.56L380.31 563.98L384.17 564.59L384.80 567.79L392.17 567.77L400.73 567.76L404.03 568.25L413.72 569.69L425.83 572.63L429.38 573.49L432.86 576.84L441.92 583.75L444.85 585.99L460.19 596.30L462.45 601.39L459.53 614.36L459.95 618.24L464.41 618.99L466.71 619.16L479.14 618.05L479.37 626.66L482.43 634.03L486.04 640.52L489.12 641.50L491.27 645.88L493.29 649.98L499.87 647.18L506.45 646.04L506.48 642.92L506.27 639.79L505.47 637.33L505.57 632.53L504.98 628.91L504.10 626.01L504.88 623.81L502.53 608.83L495.98 594.44L496.13 592.02L487.24 579.73L484.03 575.71L479.48 567.58L478.49 565.21L475.54 562.40L471.75 556.33L467.44 551.20L461.52 542.17L458.27 535.28L453.95 517.36L452.75 514.27L449.75 508.28L442.19 499.77L440.27 496.39L438.38 494.52L434.91 492.41L427.48 486.56L421.93 486.32L419.59 484.67L418.08 481.93L414.03 482.76L400.57 479.52Z" data-ward="16" /><path id="ward-14" class="ward" d="M540.64 347.14L541.90 344.47L539.60 342.66L477.08 324.53L468.30 320.92L470.26 326.82L470.10 330.96L467.92 332.10L463.99 332.85L463.65 337.78L465.34 339.89L464.95 343.67L463.85 346.71L465.57 349.97L465.43 354.50L467.39 354.54L469.41 356.69L473.15 360.66L471.85 365.23L469.54 371.22L468.65 373.55L474.07 379.07L476.99 382.04L468.70 389.66L466.42 390.80L464.64 393.04L471.32 397.99L472.01 400.50L475.92 404.36L477.53 406.59L478.44 410.53L485.01 426.84L488.08 432.89L489.65 434.96L497.86 442.35L504.38 446.54L519.33 452.85L521.33 455.05L524.43 455.84L534.55 444.65L543.61 449.62L541.55 441.08L538.22 431.99L532.90 424.08L546.05 420.50L550.62 421.14L553.09 423.02L561.01 421.37L563.83 425.35L567.39 424.84L571.54 423.76L573.31 406.23L575.46 400.74L574.71 389.00L572.96 384.35L555.26 389.94L555.09 378.58L553.92 372.00L553.34 367.04L555.10 362.38L557.42 357.81L558.38 355.02L558.06 352.71L556.52 351.43L552.39 351.75L550.46 351.14L548.66 347.95L545.08 347.40L542.69 347.49L540.64 347.14Z" data-ward="14" /><path id="ward-13" class="ward" d="M669.56 343.45L670.22 335.91L670.28 330.51L670.72 328.06L671.03 318.94L667.38 318.36L662.27 314.87L659.38 313.36L656.62 312.21L653.70 308.73L638.19 304.12L630.86 300.56L605.99 289.75L597.54 283.88L587.36 278.77L583.50 277.23L579.21 276.00L567.74 273.37L554.89 268.68L532.06 265.25L525.93 263.85L513.20 257.21L504.39 251.57L497.56 256.67L473.06 266.02L468.53 267.30L476.42 286.62L480.01 297.93L473.46 302.67L473.83 305.52L474.49 310.48L473.81 313.44L472.58 318.79L468.30 320.92L477.08 324.53L539.60 342.66L541.90 344.47L540.64 347.14L542.69 347.49L545.08 347.40L548.66 347.95L550.46 351.14L552.39 351.75L556.52 351.43L558.06 352.71L558.38 355.02L557.42 357.81L555.10 362.38L553.34 367.04L553.92 372.00L555.09 378.58L555.26 389.94L572.96 384.35L587.17 379.58L596.30 376.51L601.59 374.27L609.57 375.04L617.79 376.19L620.25 377.38L627.47 377.26L632.28 377.39L636.52 375.95L639.14 375.59L661.97 374.71L665.46 363.39L667.57 350.83L669.56 343.45Z" data-ward="13" /><path id="ward-12" class="ward" d="M671.51 374.25L661.97 374.71L639.14 375.59L636.52 375.95L632.28 377.39L627.47 377.26L620.25 377.38L617.79 376.19L609.57 375.04L601.59 374.27L596.30 376.51L587.17 379.58L572.96 384.35L574.71 389.00L575.46 400.74L573.31 406.23L571.54 423.76L567.39 424.84L563.83 425.35L561.01 421.37L553.09 423.02L550.62 421.14L546.05 420.50L532.90 424.08L538.22 431.99L541.55 441.08L543.61 449.62L544.72 451.19L550.23 458.98L555.80 458.43L559.35 457.67L562.51 457.68L564.97 457.69L569.31 458.93L573.49 461.00L577.42 462.95L580.39 464.12L583.39 464.90L585.93 465.28L588.37 466.35L595.16 468.14L597.40 467.79L601.18 467.39L605.53 469.43L607.26 467.56L612.61 466.46L616.11 466.44L618.09 465.45L624.97 464.47L627.09 465.59L634.25 466.13L639.45 471.63L638.22 466.09L640.41 454.20L641.98 453.09L642.98 445.24L643.14 442.77L644.35 440.52L648.35 440.83L654.04 442.35L656.08 442.63L659.77 419.98L661.56 414.54L661.37 406.99L665.01 396.74L668.63 385.39L671.51 374.25Z" data-ward="12" /></svg>