<svg viewBox="0 0 1000.00 1145.54" xmlns="http://www.w3.org/2000/svg"><style>.ward { fill: #e2e8f0; stroke: #fff; stroke-width: 0.5px; } .ward:hover { fill: #cbd5e1; }</style><path id="ward-13" class="ward" d="M225.80 738.22L220.80 738.62L214.08 740.00L204.76 739.86L202.34 740.10L203.36 751.40L202.93 752.87L201.34 758.36L199.42 764.97L195.68 767.84L188.59 775.68L187.57 777.40L186.61 780.26L186.43 782.46L186.61 784.91L186.59 787.68L185.63 788.80L183.64 789.67L176.29 793.39L173.78 794.46L166.07 798.62L160.54 801.99L158.04 802.58L146.43 803.85L138.72 800.20L133.77 800.55L125.56 801.83L119.18 804.74L122.28 806.60L119.79 824.17L124.37 842.62L129.93 844.48L134.39 844.22L139.45 845.03L146.86 844.82L147.94 847.12L147.94 848.63L147.24 850.48L144.32 853.84L145.71 855.09L146.90 856.18L149.78 857.17L151.42 857.59L153.58 858.13L161.12 859.74L164.13 860.62L167.97 862.10L172.50 863.23L175.72 863.38L178.04 861.10L179.03 859.88L179.58 857.52L179.78 856.06L180.53 855.36L182.68 855.14L185.46 856.29L187.17 857.42L191.10 859.56L193.31 862.51L195.37 865.26L196.72 867.07L198.97 869.67L200.34 871.26L202.15 872.10L204.31 873.11L208.63 874.18L211.43 873.51L215.09 872.40L220.37 870.01L222.66 869.87L224.17 869.72L226.69 869.47L231.46 870.50L233.73 871.24L236.30 872.10L239.50 872.22L240.81 870.52L240.96 865.59L238.05 837.22L240.50 820.31L240.93 812.47L238.87 806.31L237.34 803.04L235.32 796.30L231.38 792.29L229.18 786.40L226.62 777.66L226.97 773.13L226.74 770.83L225.42 767.48L225.16 765.72L223.50 754.40L223.03 751.23L223.80 748.88L224.53 746.67L224.91 745.18L225.42 743.18L225.86 740.79L225.80 738.22Z" data-ward="13" /><path id="ward-14" class="ward" d="M119.79 824.17L122.28 806.60L119.18 804.74L125.56 801.83L118.11 797.94L116.60 795.55L116.18 792.80L110.54 788.31L108.93 784.90L107.42 781.69L100.11 766.88L97.18 763.50L90.99 756.35L85.86 762.28L83.37 764.78L75.06 773.10L45.72 792.90L44.01 793.79L32.33 800.46L27.03 802.62L14.33 807.71L0.00 812.67L1.66 818.09L6.60 821.60L8.96 822.99L10.94 824.17L9.89 826.50L8.06 830.58L8.20 833.10L9.79 836.11L12.06 840.40L15.16 843.23L17.11 845.82L22.75 848.91L23.74 851.22L24.66 855.45L25.54 862.90L24.54 866.88L23.03 869.04L22.53 871.17L21.44 875.92L22.06 878.65L24.07 877.76L26.86 878.13L29.86 880.04L32.17 882.57L35.72 885.69L39.55 884.81L42.19 884.20L46.34 879.97L48.86 874.67L50.02 870.31L51.91 868.65L54.95 865.97L56.49 864.62L55.95 860.82L55.74 858.35L55.47 853.05L56.21 850.03L57.51 845.64L59.10 838.51L60.21 837.01L60.96 836.44L62.26 836.72L69.52 838.97L70.53 840.17L71.30 844.46L71.95 848.11L71.57 850.61L69.85 852.38L69.26 854.24L68.82 855.63L67.70 859.16L67.20 860.72L67.54 865.18L68.86 867.10L71.46 868.40L74.14 869.74L79.40 873.96L81.79 875.22L86.29 873.49L90.86 872.04L94.17 869.86L96.15 868.56L96.51 867.06L96.93 865.42L96.66 857.15L98.19 854.96L100.46 854.92L102.00 854.89L103.54 854.87L106.23 855.22L108.50 855.52L110.51 856.94L113.33 860.82L114.18 862.54L117.97 862.97L119.98 861.39L121.67 860.07L123.62 855.88L124.32 854.38L126.68 852.13L131.49 849.98L134.14 849.78L135.81 849.66L138.27 849.83L140.78 850.73L142.80 852.50L144.32 853.84L147.24 850.48L147.94 848.63L147.94 847.12L146.86 844.82L139.45 845.03L134.39 844.22L129.93 844.48L124.37 842.62L119.79 824.17Z" data-ward="14" /><path id="ward-15" class="ward" d="M173.06 660.59L169.62 660.57L167.01 660.90L162.22 661.17L159.70 660.93L158.37 661.43L157.87 666.37L157.69 672.75L155.64 675.30L153.76 677.93L152.34 677.60L147.64 675.13L144.44 674.33L141.75 673.66L136.17 674.90L126.34 675.08L118.65 672.83L117.50 675.63L120.65 677.02L121.31 679.97L118.36 679.71L119.96 693.31L119.98 693.51L120.27 697.67L118.48 709.77L118.30 710.41L117.58 713.76L117.56 713.91L116.61 719.31L116.60 719.38L115.87 724.88L107.12 735.99L105.91 737.53L104.06 739.59L100.83 743.61L99.22 745.97L96.55 748.98L92.64 754.44L90.99 756.35L97.18 763.50L100.11 766.88L107.42 781.69L108.93 784.90L110.54 788.31L116.18 792.80L116.60 795.55L118.11 797.94L125.56 801.83L133.77 800.55L138.72 800.20L146.43 803.85L158.04 802.58L160.54 801.99L166.07 798.62L173.78 794.46L176.29 793.39L183.64 789.67L185.63 788.80L186.59 787.68L186.61 784.91L186.43 782.46L186.61 780.26L187.57 777.40L188.59 775.68L195.68 767.84L199.42 764.97L201.34 758.36L202.93 752.87L203.36 751.40L202.34 740.10L201.41 735.83L201.52 733.63L204.32 726.83L204.76 724.28L205.37 720.71L208.76 717.48L212.44 712.89L210.79 712.44L209.49 711.50L207.11 710.22L204.67 709.55L203.08 708.94L201.62 707.32L200.60 705.92L199.58 704.18L198.18 700.81L195.78 692.76L195.43 691.20L195.15 688.79L194.29 687.65L190.83 684.22L187.22 679.21L180.75 670.78L179.23 669.42L176.42 666.28L174.11 663.93L173.06 660.59Z" data-ward="15" /><path id="ward-6" class="ward" d="M742.01 967.91L730.72 909.29L701.21 871.24L697.37 886.01L698.50 888.60L698.95 890.55L700.01 893.44L700.46 899.00L699.31 900.43L698.32 902.34L699.45 904.10L699.67 905.73L699.50 907.64L699.59 911.44L698.29 914.80L697.93 917.80L698.18 919.23L698.31 921.48L698.21 923.06L696.34 926.36L695.19 928.97L692.45 937.84L692.13 940.61L693.03 947.48L695.22 952.27L697.20 956.05L700.59 961.91L701.62 965.01L701.97 969.93L708.85 970.14L709.07 971.54L709.96 972.88L710.82 976.27L710.45 978.09L709.61 980.24L707.78 981.57L706.17 982.10L701.64 982.85L697.87 985.61L694.39 987.35L688.15 989.57L683.06 991.13L678.27 992.43L674.35 993.30L672.79 994.16L672.68 997.95L670.15 999.55L666.08 999.98L662.89 999.98L657.81 999.58L654.76 1000.85L650.46 1002.06L646.48 1002.16L643.00 999.55L631.68 991.85L626.81 991.27L623.84 992.87L616.87 995.77L610.34 999.69L606.29 1001.60L604.53 1000.71L602.50 999.40L599.92 999.12L595.82 1002.01L593.17 1003.11L583.44 995.54L577.94 994.56L574.85 997.77L575.04 999.19L577.12 998.81L578.54 1000.39L579.14 1002.39L580.09 1005.56L577.68 1008.50L576.07 1013.72L574.92 1018.98L578.06 1026.98L573.09 1040.79L575.93 1044.14L576.20 1048.74L576.84 1050.41L578.28 1052.08L583.14 1060.69L581.29 1065.43L579.14 1068.17L578.51 1069.48L579.77 1075.26L581.08 1076.84L582.64 1079.64L583.65 1081.14L591.12 1086.54L592.77 1090.58L595.29 1097.62L597.13 1102.14L597.25 1105.54L596.95 1111.10L597.58 1119.83L596.89 1124.75L595.13 1133.72L596.87 1139.50L599.51 1140.14L621.89 1145.54L655.50 1132.24L657.44 1131.62L660.33 1129.32L662.32 1127.31L664.26 1125.07L667.59 1122.41L670.90 1120.01L675.19 1116.29L678.24 1113.89L683.93 1109.96L687.73 1108.03L692.06 1107.32L696.55 1104.33L702.88 1103.42L707.49 1102.55L709.22 1102.39L723.91 1097.23L728.13 1096.47L731.75 1095.32L734.22 1095.03L737.32 1095.96L739.18 1098.79L740.82 1100.54L744.08 1109.79L745.75 1112.41L747.81 1112.32L749.25 1111.74L750.73 1111.65L753.42 1109.95L755.25 1109.79L758.15 1109.24L759.48 1108.70L761.78 1106.78L764.99 1105.10L766.56 1104.80L769.74 1103.77L775.09 1101.17L777.51 1100.23L780.17 1099.77L781.75 1098.95L783.60 1098.40L789.06 1097.15L789.67 1095.77L790.68 1094.26L792.67 1093.54L794.85 1093.71L797.12 1094.13L800.14 1095.75L802.11 1097.45L805.58 1097.27L812.14 1097.83L814.17 1099.13L815.85 1098.77L817.11 1096.31L818.38 1094.39L821.79 1092.47L824.10 1091.92L826.03 1092.40L832.39 1094.80L834.87 1096.15L837.46 1098.05L839.38 1098.30L842.15 1097.21L843.22 1095.77L844.37 1093.35L846.27 1092.35L848.85 1093.02L852.39 1095.85L854.68 1095.36L856.16 1093.64L856.96 1090.49L858.92 1086.68L860.58 1081.47L861.14 1078.03L860.90 1072.49L863.14 1069.42L863.99 1067.01L864.23 1064.71L868.01 1059.83L875.38 1058.90L882.49 1056.13L885.41 1058.92L891.01 1065.46L899.85 1065.27L907.23 1065.46L912.46 1064.71L920.98 1067.32L928.40 1069.27L932.30 1069.54L936.74 1067.28L943.19 1064.55L949.53 1059.14L919.39 1042.65L904.92 1032.34L875.42 967.52L855.54 976.53L853.77 975.67L852.22 974.40L850.74 973.45L849.43 972.26L845.37 969.83L842.29 970.36L837.98 972.15L834.10 974.83L830.76 976.17L828.76 973.70L823.80 975.78L821.72 975.82L814.56 973.55L809.36 972.20L807.51 971.37L802.62 970.65L797.74 981.51L796.15 982.99L791.73 987.94L766.00 992.69L742.01 967.91Z" data-ward="6" /><path id="ward-11" class="ward" d="M425.76 625.63L412.66 618.64L404.98 613.69L390.46 609.74L379.04 610.62L374.14 611.00L367.42 613.37L358.56 621.50L347.42 623.98L343.81 625.50L337.25 625.52L333.00 623.24L331.46 623.01L327.27 622.39L322.45 622.25L308.73 623.02L307.30 627.15L306.27 629.09L304.97 631.07L303.55 632.56L301.66 634.06L300.37 635.33L297.77 639.65L297.93 642.70L298.49 645.01L299.14 646.75L300.43 648.51L302.72 656.19L303.07 658.46L303.76 662.93L303.62 665.44L304.99 667.53L305.50 668.96L306.39 671.78L306.41 673.34L306.25 675.81L304.63 680.08L304.67 682.40L304.26 683.80L303.09 686.79L301.10 689.15L299.90 692.56L299.51 694.81L301.37 698.77L301.17 700.96L300.81 703.98L298.50 708.66L298.25 710.18L298.36 711.83L298.19 713.82L297.46 717.27L300.31 720.59L302.48 719.79L304.51 720.19L306.34 720.67L310.25 722.14L312.16 723.48L312.44 726.38L310.85 730.64L309.80 733.47L309.64 736.32L308.92 738.38L308.62 739.78L309.44 747.17L312.67 757.32L314.09 757.73L316.39 758.39L318.46 758.99L321.20 759.78L323.62 761.88L324.03 765.56L323.37 767.74L321.87 772.68L320.90 775.01L319.74 777.81L318.43 780.15L317.12 782.48L315.10 784.60L312.61 786.90L311.82 788.28L315.99 792.48L313.60 800.91L316.49 806.27L318.38 808.11L322.81 812.41L334.37 816.06L346.47 814.69L351.38 808.72L351.79 805.34L357.44 799.69L359.83 793.91L358.34 786.30L358.41 784.57L359.18 779.86L361.93 769.17L358.06 749.61L357.60 747.42L354.54 742.97L352.59 740.13L354.03 738.37L355.38 736.72L356.87 734.38L358.77 731.79L363.35 726.80L366.71 720.75L369.11 721.23L389.97 723.00L393.52 723.50L394.79 721.84L401.31 715.59L405.70 712.60L410.04 712.18L412.95 712.32L416.67 711.94L420.34 712.18L432.08 713.58L449.79 721.65L480.73 749.19L498.49 742.89L549.22 739.59L550.79 740.84L559.26 748.96L561.70 751.67L563.55 762.45L566.61 780.30L574.34 825.39L635.74 782.37L678.30 791.73L679.77 792.19L680.48 757.42L678.70 759.37L639.57 754.65L598.55 718.13L589.43 713.61L527.44 691.49L517.81 697.36L493.85 711.94L480.69 719.95L479.90 714.23L479.38 708.44L482.84 704.23L483.20 699.31L484.87 696.53L485.78 695.02L487.35 692.92L487.53 691.17L490.31 685.10L492.36 682.09L492.72 680.32L492.32 677.94L492.16 674.68L491.18 672.53L490.60 669.77L491.32 666.06L495.42 664.51L498.79 663.25L503.90 661.80L506.20 661.14L508.84 659.57L515.31 659.58L518.05 658.98L520.63 659.03L522.24 658.83L526.30 656.34L529.05 656.72L530.72 656.68L533.97 654.00L532.44 653.39L531.65 651.64L528.76 653.09L523.93 651.88L518.08 653.43L516.37 653.88L510.03 654.74L494.18 658.99L489.05 662.11L485.29 662.85L477.91 662.44L470.71 657.33L466.96 648.92L462.20 644.57L454.70 643.64L440.15 638.54L425.76 625.63Z" data-ward="11" /><path id="ward-5" class="ward" d="M816.50 814.74L818.13 810.60L821.12 806.07L823.09 801.02L823.43 797.36L811.97 794.84L799.14 785.57L783.78 770.79L771.99 758.66L760.11 740.61L752.86 730.93L749.24 744.04L734.23 749.17L726.16 753.97L711.92 754.77L691.89 756.23L686.06 756.54L680.48 757.42L679.77 792.19L680.71 796.56L679.86 803.42L680.33 805.01L681.56 806.40L679.49 812.48L678.50 814.77L679.43 816.22L682.49 815.81L682.88 818.38L682.94 822.73L684.18 825.90L683.90 831.02L685.16 838.86L685.99 840.29L687.27 841.44L688.46 843.66L688.89 848.52L690.33 856.83L693.01 862.33L696.20 861.99L701.21 871.24L730.72 909.29L742.01 967.91L766.00 992.69L791.73 987.94L796.15 982.99L797.74 981.51L802.62 970.65L807.51 971.37L809.36 972.20L814.56 973.55L821.72 975.82L823.80 975.78L828.76 973.70L830.76 976.17L834.10 974.83L837.98 972.15L842.29 970.36L845.37 969.83L849.43 972.26L850.74 973.45L852.22 974.40L853.77 975.67L855.54 976.53L875.42 967.52L904.92 1032.34L919.39 1042.65L949.53 1059.14L964.50 1037.71L996.54 1003.56L995.81 1000.67L996.94 998.74L998.15 995.17L999.93 983.24L999.70 981.01L1000.00 976.77L999.99 974.28L999.53 971.94L992.84 965.47L990.86 955.68L984.67 938.87L984.86 937.16L984.59 925.93L983.02 920.44L974.39 903.59L973.76 901.44L973.75 897.39L973.10 895.29L971.01 890.75L971.74 889.33L971.94 887.24L972.00 885.41L971.42 883.56L967.97 878.74L966.21 877.86L964.53 877.22L961.38 875.05L964.59 871.83L963.35 870.66L961.14 867.91L958.82 865.39L957.78 862.57L967.26 857.59L968.10 855.94L969.29 854.06L973.09 849.58L974.99 846.17L976.43 842.30L975.12 841.19L972.04 840.68L964.66 838.59L958.35 837.31L953.06 841.99L941.03 836.46L938.34 836.70L921.66 834.50L919.46 834.02L918.19 833.13L915.24 832.97L913.86 832.55L906.01 832.24L902.65 832.95L896.00 829.40L891.95 825.68L889.56 823.12L888.05 822.04L885.67 822.23L881.62 822.86L878.26 821.73L875.14 820.24L873.03 819.55L871.26 821.63L868.91 823.78L855.41 820.04L846.74 821.41L830.02 816.00L823.81 816.94L816.50 814.74Z" data-ward="5" /><path id="ward-8" class="ward" d="M400.06 826.25L394.91 825.53L361.77 882.42L359.49 887.52L350.29 896.62L347.79 900.52L345.70 906.84L345.70 910.91L346.24 912.85L348.59 917.14L351.53 916.15L354.24 916.94L355.94 916.63L357.74 914.92L359.92 914.42L362.13 915.19L363.63 915.06L367.16 915.42L369.02 917.04L370.26 918.59L371.65 920.34L374.17 920.48L376.73 920.91L378.49 922.91L378.35 924.64L377.00 926.79L376.99 928.96L380.78 936.39L383.69 939.64L385.51 940.82L387.36 941.75L392.78 945.48L395.35 946.82L403.64 952.00L405.09 952.91L413.49 957.94L420.08 963.60L422.47 965.43L419.43 967.23L417.70 968.25L418.80 972.42L420.82 975.15L422.29 977.75L424.96 981.86L427.92 986.34L429.57 988.54L433.67 993.86L434.76 997.47L434.67 999.77L432.95 1004.04L431.89 1008.16L431.46 1010.40L431.17 1011.89L429.82 1017.14L430.04 1018.64L431.47 1019.94L432.85 1021.79L434.84 1024.88L436.38 1026.54L440.31 1030.23L442.46 1033.03L443.52 1035.83L443.84 1037.57L443.99 1041.16L443.87 1043.55L442.82 1046.87L442.66 1049.06L443.66 1052.76L448.29 1058.69L452.11 1062.59L455.99 1064.75L465.82 1066.94L475.69 1067.75L477.87 1067.93L482.43 1068.06L494.80 1068.44L508.49 1071.82L514.31 1073.88L517.95 1075.35L521.98 1077.49L532.65 1083.46L538.26 1090.04L540.32 1092.78L554.21 1111.34L560.29 1115.56L563.82 1117.28L565.76 1118.22L568.10 1119.88L578.81 1127.44L580.98 1128.83L586.73 1132.11L589.59 1133.69L590.80 1134.59L592.56 1135.86L593.87 1137.61L595.12 1138.40L596.87 1139.50L595.13 1133.72L596.89 1124.75L597.58 1119.83L596.95 1111.10L597.25 1105.54L597.13 1102.14L595.29 1097.62L592.77 1090.58L591.12 1086.54L583.65 1081.14L582.64 1079.64L581.08 1076.84L579.77 1075.26L578.51 1069.48L579.14 1068.17L581.29 1065.43L583.14 1060.69L578.28 1052.08L576.84 1050.41L576.20 1048.74L575.93 1044.14L573.09 1040.79L570.49 1041.49L563.05 1036.77L562.36 1035.39L562.55 1029.98L562.13 1028.16L561.73 1026.37L558.79 1024.08L554.54 1021.66L553.04 1019.67L550.50 1018.02L547.26 1015.91L545.33 1015.91L544.68 1013.64L545.10 1008.79L544.62 1006.40L543.41 1005.02L542.15 1003.58L539.19 1002.31L533.13 1002.59L527.08 1002.29L525.52 1002.33L522.19 1002.40L517.47 1001.68L513.25 1001.09L509.81 1000.60L507.97 1001.18L506.53 1002.00L502.62 1004.96L499.52 1006.39L495.23 1006.92L487.15 1002.78L484.09 1000.05L482.34 998.48L480.22 997.43L480.49 994.85L482.05 993.01L484.60 990.62L486.48 989.64L487.78 988.97L496.91 980.95L499.16 977.59L499.85 975.22L500.87 971.70L501.14 967.46L501.70 965.01L502.11 963.21L502.49 959.67L502.73 957.47L500.42 953.07L500.13 949.37L498.51 948.21L495.25 943.90L493.33 942.29L489.38 941.47L484.24 938.86L482.96 936.76L476.47 937.70L474.59 937.97L471.50 939.67L451.46 937.44L447.37 933.10L446.28 929.32L446.53 925.50L449.47 922.33L452.77 919.57L457.04 914.21L458.02 911.45L457.84 905.37L459.62 905.31L464.05 905.93L466.85 906.29L469.88 906.47L473.35 906.63L471.03 902.18L470.01 900.21L468.39 895.50L467.58 892.44L469.25 886.25L468.44 884.82L460.66 881.51L455.90 878.01L448.16 871.31L447.04 870.02L441.64 863.78L438.57 854.03L437.52 850.26L435.06 841.48L430.63 836.93L424.36 832.53L413.51 827.59L408.96 825.84L406.96 825.90L403.62 826.36L400.06 826.25Z" data-ward="8" /><path id="ward-10" class="ward" d="M420.34 712.18L416.67 711.94L412.95 712.32L410.04 712.18L405.70 712.60L401.31 715.59L394.79 721.84L393.52 723.50L389.97 723.00L369.11 721.23L366.71 720.75L363.35 726.80L358.77 731.79L356.87 734.38L355.38 736.72L354.03 738.37L352.59 740.13L354.54 742.97L357.60 747.42L358.06 749.61L361.93 769.17L359.18 779.86L358.41 784.57L358.34 786.30L359.83 793.91L357.44 799.69L351.79 805.34L351.38 808.72L346.47 814.69L334.37 816.06L322.81 812.41L318.38 808.11L316.49 806.27L313.60 800.91L315.99 792.48L311.82 788.28L309.76 792.13L297.16 801.31L290.03 809.42L281.88 818.69L274.98 826.54L271.17 834.15L271.98 849.92L273.32 858.86L272.41 865.54L270.17 867.78L267.33 870.60L271.26 871.48L273.74 873.38L275.35 874.61L281.34 886.94L282.83 888.41L285.53 888.51L288.27 886.49L289.67 885.46L293.20 887.45L296.58 893.54L297.63 894.51L299.33 894.67L301.28 893.78L304.63 889.97L307.49 889.19L310.30 890.19L311.54 894.14L311.74 897.59L312.89 899.69L315.31 901.32L316.82 903.27L318.93 905.05L319.89 906.57L320.25 908.12L323.41 912.03L324.46 914.29L323.16 917.40L323.94 921.75L326.94 923.96L329.79 925.06L332.83 924.44L334.20 923.46L335.53 922.02L338.68 916.80L340.18 917.30L345.66 918.13L348.59 917.14L346.24 912.85L345.70 910.91L345.70 906.84L347.79 900.52L350.29 896.62L359.49 887.52L361.77 882.42L394.91 825.53L400.06 826.25L403.62 826.36L406.96 825.90L408.96 825.84L413.51 827.59L424.36 832.53L430.63 836.93L435.06 841.48L437.52 850.26L438.57 854.03L441.64 863.78L447.04 870.02L448.16 871.31L455.90 878.01L460.66 881.51L468.44 884.82L469.25 886.25L467.58 892.44L468.39 895.50L470.01 900.21L471.03 902.18L473.35 906.63L477.53 908.47L482.20 907.57L487.72 905.96L492.56 903.99L494.39 901.75L498.23 901.42L499.93 901.50L503.39 901.80L505.67 895.92L503.97 891.66L503.56 890.24L500.28 880.53L501.47 868.82L498.10 858.77L497.03 856.89L497.60 853.78L495.16 844.59L495.39 836.91L496.14 833.56L497.00 831.11L496.11 829.20L498.04 819.85L499.30 810.37L498.71 808.82L497.04 803.89L494.69 798.16L492.43 790.53L490.88 782.05L489.89 774.42L488.06 772.37L484.94 769.85L479.70 766.25L475.37 763.99L473.33 760.96L475.12 759.08L477.18 758.08L480.15 757.83L482.27 757.65L486.38 755.81L498.49 742.89L480.73 749.19L449.79 721.65L432.08 713.58L420.34 712.18Z" data-ward="10" /><path id="ward-7" class="ward" d="M678.50 814.77L679.49 812.48L681.56 806.40L680.33 805.01L679.86 803.42L680.71 796.56L679.77 792.19L678.30 791.73L635.74 782.37L574.34 825.39L574.92 829.18L560.96 858.67L569.30 873.94L585.69 901.78L586.51 908.47L588.22 922.47L591.16 933.81L586.38 942.14L581.89 949.97L581.14 951.37L578.81 957.17L579.00 959.11L575.58 959.84L573.14 962.65L570.77 964.54L568.20 965.53L564.92 965.57L562.86 963.33L558.97 958.21L557.38 954.73L553.58 951.13L550.96 950.25L547.53 950.50L545.53 950.91L543.16 950.93L541.82 949.55L540.34 947.39L537.73 946.34L532.95 946.84L531.52 946.67L530.02 954.55L523.21 962.96L531.60 970.39L536.55 972.54L543.84 976.00L544.44 979.53L552.78 979.15L557.71 978.93L562.63 982.83L564.77 983.63L566.02 986.02L568.75 989.86L568.27 991.20L565.18 991.63L563.08 992.18L561.33 994.40L558.56 1000.06L557.29 1005.17L555.12 1007.72L552.98 1009.32L549.05 1014.50L547.26 1015.91L550.50 1018.02L553.04 1019.67L554.54 1021.66L558.79 1024.08L561.73 1026.37L562.13 1028.16L562.55 1029.98L562.36 1035.39L563.05 1036.77L570.49 1041.49L573.09 1040.79L578.06 1026.98L574.92 1018.98L576.07 1013.72L577.68 1008.50L580.09 1005.56L579.14 1002.39L578.54 1000.39L577.12 998.81L575.04 999.19L574.85 997.77L577.94 994.56L583.44 995.54L593.17 1003.11L595.82 1002.01L599.92 999.12L602.50 999.40L604.53 1000.71L606.29 1001.60L610.34 999.69L616.87 995.77L623.84 992.87L626.81 991.27L631.68 991.85L643.00 999.55L646.48 1002.16L650.46 1002.06L654.76 1000.85L657.81 999.58L662.89 999.98L666.08 999.98L670.15 999.55L672.68 997.95L672.79 994.16L674.35 993.30L678.27 992.43L683.06 991.13L688.15 989.57L694.39 987.35L697.87 985.61L701.64 982.85L706.17 982.10L707.78 981.57L709.61 980.24L710.45 978.09L710.82 976.27L709.96 972.88L709.07 971.54L708.85 970.14L701.97 969.93L701.62 965.01L700.59 961.91L697.20 956.05L695.22 952.27L693.03 947.48L692.13 940.61L692.45 937.84L695.19 928.97L696.34 926.36L698.21 923.06L698.31 921.48L698.18 919.23L697.93 917.80L698.29 914.80L699.59 911.44L699.50 907.64L699.67 905.73L699.45 904.10L698.32 902.34L699.31 900.43L700.46 899.00L700.01 893.44L698.95 890.55L698.50 888.60L697.37 886.01L701.21 871.24L696.20 861.99L693.01 862.33L690.33 856.83L688.89 848.52L688.46 843.66L687.27 841.44L685.99 840.29L685.16 838.86L683.90 831.02L684.18 825.90L682.94 822.73L682.88 818.38L682.49 815.81L679.43 816.22L678.50 814.77Z" data-ward="7" /><path id="ward-12" class="ward" d="M297.93 642.70L297.77 639.65L300.37 635.33L301.66 634.06L296.46 630.93L276.93 643.81L269.17 641.22L267.12 641.81L264.25 644.34L262.78 648.61L261.33 651.85L259.74 654.53L256.13 661.44L246.68 659.88L246.97 658.47L239.95 658.01L240.27 668.44L240.68 674.07L241.04 679.10L241.59 683.42L242.19 688.21L240.08 690.42L238.44 693.42L235.45 701.10L232.12 703.07L228.84 704.45L224.32 705.98L219.24 708.32L213.63 711.31L212.44 712.89L208.76 717.48L205.37 720.71L204.76 724.28L204.32 726.83L201.52 733.63L201.41 735.83L202.34 740.10L204.76 739.86L214.08 740.00L220.80 738.62L225.80 738.22L225.86 740.79L225.42 743.18L224.91 745.18L224.53 746.67L223.80 748.88L223.03 751.23L223.50 754.40L225.16 765.72L225.42 767.48L226.74 770.83L226.97 773.13L226.62 777.66L229.18 786.40L231.38 792.29L235.32 796.30L237.34 803.04L238.87 806.31L240.93 812.47L240.50 820.31L238.05 837.22L240.96 865.59L240.81 870.52L241.65 873.26L245.05 875.83L246.52 875.99L256.90 873.02L262.96 871.29L265.26 870.93L267.33 870.60L270.17 867.78L272.41 865.54L273.32 858.86L271.98 849.92L271.17 834.15L274.98 826.54L281.88 818.69L290.03 809.42L297.16 801.31L309.76 792.13L311.82 788.28L312.61 786.90L315.10 784.60L317.12 782.48L318.43 780.15L319.74 777.81L320.90 775.01L321.87 772.68L323.37 767.74L324.03 765.56L323.62 761.88L321.20 759.78L318.46 758.99L316.39 758.39L314.09 757.73L312.67 757.32L309.44 747.17L308.62 739.78L308.92 738.38L309.64 736.32L309.80 733.47L310.85 730.64L312.44 726.38L312.16 723.48L310.25 722.14L306.34 720.67L304.51 720.19L302.48 719.79L300.31 720.59L297.46 717.27L298.19 713.82L298.36 711.83L298.25 710.18L298.50 708.66L300.81 703.98L301.17 700.96L301.37 698.77L299.51 694.81L299.90 692.56L301.10 689.15L303.09 686.79L304.26 683.80L304.67 682.40L304.63 680.08L306.25 675.81L306.41 673.34L306.39 671.78L305.50 668.96L304.99 667.53L303.62 665.44L303.76 662.93L303.07 658.46L302.72 656.19L300.43 648.51L299.14 646.75L298.49 645.01L297.93 642.70Z" data-ward="12" /><path id="ward-4" class="ward" d="M600.48 455.07L594.41 451.85L591.74 451.38L509.67 454.67L471.75 456.19L469.50 461.05L465.58 468.88L461.53 495.25L469.07 498.38L479.03 509.99L490.53 520.53L493.84 523.87L498.85 529.92L511.47 543.82L523.17 557.25L518.26 565.67L513.82 571.51L518.14 578.98L508.13 582.49L491.94 599.79L473.20 610.88L459.58 629.64L454.70 643.64L462.20 644.57L466.96 648.92L470.71 657.33L477.91 662.44L485.29 662.85L489.05 662.11L494.18 658.99L510.03 654.74L516.37 653.88L518.08 653.43L523.93 651.88L528.76 653.09L531.65 651.64L532.44 653.39L533.97 654.00L530.72 656.68L529.05 656.72L526.30 656.34L522.24 658.83L520.63 659.03L518.05 658.98L515.31 659.58L508.84 659.57L506.20 661.14L503.90 661.80L498.79 663.25L495.42 664.51L491.32 666.06L490.60 669.77L491.18 672.53L492.16 674.68L492.32 677.94L492.72 680.32L492.36 682.09L490.31 685.10L487.53 691.17L487.35 692.92L485.78 695.02L484.87 696.53L483.20 699.31L482.84 704.23L479.38 708.44L479.90 714.23L480.69 719.95L493.85 711.94L517.81 697.36L527.44 691.49L589.43 713.61L598.55 718.13L639.57 754.65L678.70 759.37L680.48 757.42L686.06 756.54L691.89 756.23L711.92 754.77L726.16 753.97L734.23 749.17L749.24 744.04L752.86 730.93L769.87 700.57L772.38 691.93L771.61 679.97L771.65 671.16L772.44 661.66L772.66 654.19L774.93 644.24L774.69 642.39L773.87 639.93L770.90 636.80L773.22 630.34L775.06 626.56L774.40 623.98L772.65 622.02L769.85 617.98L767.22 615.17L765.21 613.55L758.32 608.62L757.02 602.06L754.40 598.41L754.48 592.98L753.11 588.63L745.61 581.39L743.05 578.11L741.73 576.99L742.49 572.56L740.94 571.03L737.39 570.35L735.53 568.92L731.98 568.21L734.30 565.00L731.98 560.07L727.66 553.52L727.15 551.02L720.87 549.39L719.54 548.65L715.09 544.28L696.93 526.43L660.17 459.61L658.22 459.54L657.18 458.25L655.56 456.86L654.70 455.73L652.98 455.65L649.71 454.86L647.41 453.65L644.85 452.66L642.93 452.23L641.27 452.77L639.88 453.56L637.42 455.72L635.86 455.33L632.42 456.05L631.13 456.76L629.81 457.72L628.75 459.04L628.16 460.35L626.70 460.89L625.25 459.77L623.11 458.59L618.93 457.26L617.17 457.27L600.48 455.07Z" data-ward="4" /><path id="ward-3" class="ward" d="M613.48 65.88L587.81 45.47L573.52 34.11L575.83 29.39L571.23 23.42L569.08 20.63L564.01 15.36L560.35 14.46L555.99 14.02L549.33 8.88L547.37 7.37L546.41 6.28L543.90 3.45L534.17 0.00L526.73 29.08L519.09 36.29L517.27 38.87L518.32 40.52L516.29 44.59L517.23 49.75L514.61 55.81L523.21 58.97L525.80 66.82L525.55 72.93L526.09 74.56L531.33 78.01L531.13 79.33L526.67 82.92L522.64 82.16L520.52 80.78L515.50 81.94L502.20 83.28L498.01 80.92L490.45 79.88L491.25 76.44L489.07 73.15L482.99 71.68L475.93 81.41L474.37 79.40L472.54 79.57L470.40 83.14L468.55 83.63L467.38 86.58L460.89 89.72L449.02 92.18L452.23 116.90L448.19 130.75L447.73 139.50L447.85 142.12L448.19 149.39L438.21 162.76L439.01 167.64L438.12 194.42L442.56 212.61L452.94 226.90L452.61 233.04L452.46 235.86L449.72 244.75L449.03 246.98L447.23 253.34L446.67 255.42L441.88 270.70L442.18 298.23L450.05 307.16L457.63 319.11L459.24 321.64L464.25 328.19L479.68 336.89L487.03 339.92L498.41 344.25L501.21 351.01L495.62 353.51L490.90 354.69L488.84 355.68L484.26 360.94L479.28 365.07L480.72 367.23L482.69 370.51L484.89 374.82L485.38 376.24L485.85 378.78L489.24 379.35L491.66 382.96L494.29 384.39L495.61 383.43L501.09 380.85L506.32 378.17L508.24 376.80L509.99 374.75L510.41 371.36L509.49 370.14L508.06 368.88L507.83 366.95L509.61 366.05L512.08 366.62L513.83 367.02L516.09 367.29L517.89 367.84L525.53 385.01L526.18 393.57L520.98 393.38L519.82 409.22L509.67 454.67L591.74 451.38L594.41 451.85L600.48 455.07L617.17 457.27L618.93 457.26L623.11 458.59L625.25 459.77L626.70 460.89L628.16 460.35L628.75 459.04L629.81 457.72L631.13 456.76L632.42 456.05L635.86 455.33L637.42 455.72L639.88 453.56L641.27 452.77L642.93 452.23L644.85 452.66L647.41 453.65L649.71 454.86L652.98 455.65L654.70 455.73L655.56 456.86L657.18 458.25L658.22 459.54L660.17 459.61L696.93 526.43L715.09 544.28L719.54 548.65L720.87 549.39L727.15 551.02L732.23 548.22L737.18 549.79L738.49 549.10L740.41 548.87L751.36 550.16L757.32 552.32L762.26 552.66L771.26 542.15L777.74 536.62L779.54 531.03L788.27 521.31L791.81 514.68L793.44 513.08L795.72 511.78L797.50 512.32L798.01 510.85L803.57 505.56L804.42 502.18L808.78 502.12L796.93 471.02L793.05 435.19L788.20 398.36L788.42 388.20L795.17 370.24L794.90 364.78L810.65 332.27L812.70 311.47L807.49 266.18L838.86 234.10L844.23 231.29L847.54 227.82L849.91 223.78L852.83 221.06L858.32 213.83L869.26 206.90L870.51 201.83L874.10 196.00L872.34 188.56L871.81 180.37L870.79 174.34L870.81 168.69L871.81 153.63L866.59 137.60L863.14 127.83L859.62 126.61L856.59 128.04L854.80 129.03L831.15 126.76L826.34 126.08L807.61 111.83L765.85 80.08L763.72 80.86L735.26 56.25L730.50 52.13L729.11 44.03L727.41 39.01L703.80 44.98L689.95 48.48L682.10 50.46L661.79 55.60L625.14 64.86L615.32 67.35L613.48 65.88Z" data-ward="3" /><path id="ward-1" class="ward" d="M248.47 520.54L245.79 518.48L243.94 516.43L242.78 515.52L240.99 514.12L237.72 513.74L239.71 517.47L241.63 519.99L243.94 522.58L243.61 530.38L237.35 535.53L233.23 536.01L228.67 537.47L226.46 542.33L225.01 544.88L224.13 546.19L222.92 547.99L212.99 558.96L214.25 561.52L217.42 567.99L219.14 570.78L220.01 582.99L210.09 594.04L208.30 608.04L201.86 612.19L200.39 616.48L199.45 629.54L192.28 645.29L182.73 655.61L177.51 657.33L174.60 658.02L173.06 660.59L174.11 663.93L176.42 666.28L179.23 669.42L180.75 670.78L187.22 679.21L190.83 684.22L194.29 687.65L195.15 688.79L195.43 691.20L195.78 692.76L198.18 700.81L199.58 704.18L200.60 705.92L201.62 707.32L203.08 708.94L204.67 709.55L207.11 710.22L209.49 711.50L210.79 712.44L212.44 712.89L213.63 711.31L219.24 708.32L224.32 705.98L228.84 704.45L232.12 703.07L235.45 701.10L238.44 693.42L240.08 690.42L242.19 688.21L241.59 683.42L241.04 679.10L240.68 674.07L240.27 668.44L239.95 658.01L246.97 658.47L246.68 659.88L256.13 661.44L259.74 654.53L261.33 651.85L262.78 648.61L264.25 644.34L267.12 641.81L269.17 641.22L276.93 643.81L296.46 630.93L301.66 634.06L303.55 632.56L304.97 631.07L306.27 629.09L307.30 627.15L308.73 623.02L305.90 620.65L301.86 610.05L301.40 601.98L301.42 597.63L301.45 589.95L304.66 584.59L309.39 583.11L321.02 583.15L326.55 583.96L333.40 581.62L334.02 580.01L338.96 570.06L340.68 565.36L344.55 563.54L352.04 564.25L359.13 566.32L361.60 567.35L362.92 567.90L368.36 561.59L370.25 558.47L369.93 556.45L368.73 552.12L368.18 544.54L365.55 541.09L365.39 539.27L365.11 535.93L361.96 537.35L359.18 540.60L356.09 543.60L354.45 544.40L351.85 545.55L348.78 544.18L346.23 542.55L343.24 543.96L340.09 545.85L336.39 545.57L334.49 544.77L332.03 541.84L328.76 540.14L325.99 539.85L323.61 540.33L321.28 540.46L319.01 539.53L317.47 535.87L316.22 534.43L315.26 533.32L313.45 532.19L308.99 531.58L307.50 531.36L305.92 530.72L302.83 529.45L296.33 531.46L294.07 531.44L292.10 530.04L290.01 529.34L285.15 528.09L280.04 528.47L276.91 528.09L270.56 527.33L264.52 524.63L261.20 523.39L258.41 524.13L256.15 524.39L248.47 520.54Z" data-ward="1" /><path id="ward-2" class="ward" d="M491.66 382.96L489.24 379.35L485.85 378.78L485.38 376.24L484.89 374.82L482.69 370.51L480.72 367.23L479.28 365.07L474.30 369.20L469.33 379.19L466.74 382.93L464.91 385.57L462.11 388.25L460.15 393.27L458.84 396.46L457.94 398.64L456.44 401.64L455.39 404.62L454.44 405.77L452.10 408.02L449.80 409.60L446.10 412.13L441.13 414.14L434.40 415.09L433.33 418.59L431.39 424.93L430.70 427.17L429.54 430.94L427.64 437.16L426.72 438.44L423.98 440.13L421.90 441.90L421.22 443.16L420.22 445.00L419.68 450.09L418.97 453.39L416.05 456.43L414.26 459.70L412.46 462.97L411.22 467.20L411.06 471.57L411.47 473.43L411.19 475.45L410.53 477.62L410.03 479.27L410.26 481.53L411.73 485.25L412.57 489.17L412.42 492.15L412.21 496.14L412.02 499.87L411.93 501.69L411.53 503.34L409.89 505.33L407.52 507.01L404.12 510.93L402.96 513.28L401.29 516.01L399.14 517.52L396.68 519.26L394.83 520.75L394.13 522.63L393.45 524.46L392.34 526.36L387.96 530.08L382.78 531.31L381.01 531.61L376.39 532.34L374.38 532.61L368.72 533.15L365.11 535.93L365.39 539.27L365.55 541.09L368.18 544.54L368.73 552.12L369.93 556.45L370.25 558.47L368.36 561.59L362.92 567.90L361.60 567.35L359.13 566.32L352.04 564.25L344.55 563.54L340.68 565.36L338.96 570.06L334.02 580.01L333.40 581.62L326.55 583.96L321.02 583.15L309.39 583.11L304.66 584.59L301.45 589.95L301.42 597.63L301.40 601.98L301.86 610.05L305.90 620.65L308.73 623.02L322.45 622.25L327.27 622.39L331.46 623.01L333.00 623.24L337.25 625.52L343.81 625.50L347.42 623.98L358.56 621.50L367.42 613.37L374.14 611.00L379.04 610.62L390.46 609.74L404.98 613.69L412.66 618.64L425.76 625.63L440.15 638.54L454.70 643.64L459.58 629.64L473.20 610.88L491.94 599.79L508.13 582.49L518.14 578.98L513.82 571.51L518.26 565.67L523.17 557.25L511.47 543.82L498.85 529.92L493.84 523.87L490.53 520.53L479.03 509.99L469.07 498.38L461.53 495.25L465.58 468.88L469.50 461.05L471.75 456.19L509.67 454.67L519.82 409.22L520.98 393.38L526.18 393.57L525.53 385.01L517.89 367.84L516.09 367.29L513.83 367.02L512.08 366.62L509.61 366.05L507.83 366.95L508.06 368.88L509.49 370.14L510.41 371.36L509.99 374.75L508.24 376.80L506.32 378.17L501.09 380.85L495.61 383.43L494.29 384.39L491.66 382.96Z" data-ward="2" /><path id="ward-9" class="ward" d="M585.69 901.78L569.30 873.94L560.96 858.67L574.92 829.18L574.34 825.39L566.61 780.30L563.55 762.45L561.70 751.67L559.26 748.96L550.79 740.84L549.22 739.59L498.49 742.89L486.38 755.81L482.27 757.65L480.15 757.83L477.18 758.08L475.12 759.08L473.33 760.96L475.37 763.99L479.70 766.25L484.94 769.85L488.06 772.37L489.89 774.42L490.88 782.05L492.43 790.53L494.69 798.16L497.04 803.89L498.71 808.82L499.30 810.37L498.04 819.85L496.11 829.20L497.00 831.11L496.14 833.56L495.39 836.91L495.16 844.59L497.60 853.78L497.03 856.89L498.10 858.77L501.47 868.82L500.28 880.53L503.56 890.24L503.97 891.66L505.67 895.92L503.39 901.80L499.93 901.50L498.23 901.42L494.39 901.75L492.56 903.99L487.72 905.96L482.20 907.57L477.53 908.47L473.35 906.63L469.88 906.47L466.85 906.29L464.05 905.93L459.62 905.31L457.84 905.37L458.02 911.45L457.04 914.21L452.77 919.57L449.47 922.33L446.53 925.50L446.28 929.32L447.37 933.10L451.46 937.44L471.50 939.67L474.59 937.97L476.47 937.70L482.96 936.76L484.24 938.86L489.38 941.47L493.33 942.29L495.25 943.90L498.51 948.21L500.13 949.37L500.42 953.07L502.73 957.47L502.49 959.67L502.11 963.21L501.70 965.01L501.14 967.46L500.87 971.70L499.85 975.22L499.16 977.59L496.91 980.95L487.78 988.97L486.48 989.64L484.60 990.62L482.05 993.01L480.49 994.85L480.22 997.43L482.34 998.48L484.09 1000.05L487.15 1002.78L495.23 1006.92L499.52 1006.39L502.62 1004.96L506.53 1002.00L507.97 1001.18L509.81 1000.60L513.25 1001.09L517.47 1001.68L522.19 1002.40L525.52 1002.33L527.08 1002.29L533.13 1002.59L539.19 1002.31L542.15 1003.58L543.41 1005.02L544.62 1006.40L545.10 1008.79L544.68 1013.64L545.33 1015.91L547.26 1015.91L549.05 1014.50L552.98 1009.32L555.12 1007.72L557.29 1005.17L558.56 1000.06L561.33 994.40L563.08 992.18L565.18 991.63L568.27 991.20L568.75 989.86L566.02 986.02L564.77 983.63L562.63 982.83L557.71 978.93L552.78 979.15L544.44 979.53L543.84 976.00L536.55 972.54L531.60 970.39L523.21 962.96L530.02 954.55L531.52 946.67L532.95 946.84L537.73 946.34L540.34 947.39L541.82 949.55L543.16 950.93L545.53 950.91L547.53 950.50L550.96 950.25L553.58 951.13L557.38 954.73L558.97 958.21L562.86 963.33L564.92 965.57L568.20 965.53L570.77 964.54L573.14 962.65L575.58 959.84L579.00 959.11L578.81 957.17L581.14 951.37L581.89 949.97L586.38 942.14L591.16 933.81L588.22 922.47L586.51 908.47L585.69 901.78Z" data-ward="9" /></svg>