<svg viewBox="0 0 1000.00 792.84" xmlns="http://www.w3.org/2000/svg"><style>.ward { fill: #e2e8f0; stroke: #fff; stroke-width: 0.5px; } .ward:hover { fill: #cbd5e1; }</style><path id="ward-8" class="ward" d="M746.65 297.83L744.73 295.81L743.29 293.13L734.55 290.14L731.98 288.40L728.02 287.07L724.05 285.74L720.73 284.98L717.19 284.16L712.96 284.14L708.43 284.77L709.80 288.69L710.36 296.66L711.81 299.69L713.74 301.96L714.39 306.97L715.86 309.12L716.26 312.02L715.67 315.27L716.46 318.85L715.52 322.41L706.07 321.33L701.99 320.53L699.09 318.68L696.55 318.68L694.09 318.00L688.37 317.16L676.28 312.76L672.95 312.56L658.36 308.77L644.61 307.27L640.22 306.79L634.95 307.00L623.10 308.78L616.87 313.09L613.53 316.29L607.78 318.01L602.78 320.27L600.31 321.73L594.33 318.02L585.44 317.26L579.96 317.68L577.16 321.60L574.72 324.47L558.37 337.88L555.76 340.31L554.15 342.32L548.47 339.73L543.09 344.93L539.75 346.14L537.65 350.40L539.27 358.05L541.82 363.13L543.69 371.88L546.86 383.06L548.06 390.37L552.33 394.46L556.72 401.47L564.76 410.05L569.40 414.21L573.16 415.67L588.72 418.58L587.93 426.76L591.99 433.14L596.65 440.47L605.44 451.68L609.68 459.01L621.40 447.56L624.69 443.83L630.02 440.70L636.64 437.95L639.01 436.25L642.34 434.57L646.52 432.03L651.17 427.95L653.38 425.55L658.82 420.44L662.03 423.27L666.47 428.72L670.60 431.66L675.10 428.99L679.62 424.14L682.38 422.59L684.91 422.15L690.61 421.88L694.04 420.76L697.79 420.26L708.38 424.55L713.91 427.90L716.87 429.32L720.63 430.64L727.38 433.77L730.97 433.34L734.17 432.32L733.92 429.82L734.14 427.44L733.80 424.05L735.01 418.21L735.34 410.00L736.19 405.79L737.47 403.14L720.68 404.46L713.19 404.69L708.90 404.82L698.79 403.64L688.30 401.77L683.75 403.38L667.67 410.39L661.32 415.36L658.08 414.78L656.31 411.65L652.45 402.06L651.30 399.77L660.17 392.13L663.88 388.35L666.09 387.24L671.05 385.90L679.70 384.09L683.58 382.19L690.34 377.00L692.27 374.33L696.89 369.18L699.64 365.15L701.62 362.69L703.38 359.89L704.97 356.66L707.52 350.20L708.78 343.90L709.34 336.46L711.94 331.82L714.45 330.93L720.46 329.84L727.72 327.86L731.26 327.77L739.29 328.52L747.27 328.72L753.88 327.28L757.85 325.81L762.38 326.60L771.74 330.38L779.96 331.33L785.36 330.97L788.44 331.24L797.49 333.53L801.78 334.16L805.83 334.10L815.80 330.90L818.49 330.82L822.30 331.38L826.08 329.20L829.96 326.57L830.75 324.08L831.16 320.41L842.31 317.80L844.08 316.01L839.96 307.92L837.30 303.36L835.22 301.35L821.51 304.14L814.95 305.00L805.64 304.63L794.94 303.25L786.13 302.93L774.89 304.16L774.20 300.76L772.88 297.12L768.44 296.98L759.36 298.17L750.37 298.42L746.65 297.83Z" data-ward="8" /><path id="ward-11" class="ward" d="M975.12 291.25L972.38 292.89L950.24 308.73L931.40 316.97L923.10 317.56L917.50 317.10L914.86 316.39L912.09 314.85L906.30 314.16L898.66 314.25L899.73 318.36L903.10 325.84L905.23 330.38L903.21 332.66L897.75 333.58L891.29 333.31L882.55 333.84L879.53 334.29L876.71 335.08L871.06 336.16L865.34 337.09L860.62 338.31L856.94 337.49L851.43 328.86L845.33 318.51L844.08 316.01L842.31 317.80L831.16 320.41L830.75 324.08L829.96 326.57L826.08 329.20L822.30 331.38L818.49 330.82L815.80 330.90L805.83 334.10L801.78 334.16L797.49 333.53L788.44 331.24L785.36 330.97L779.96 331.33L771.74 330.38L762.38 326.60L757.85 325.81L753.88 327.28L747.27 328.72L739.29 328.52L731.26 327.77L727.72 327.86L720.46 329.84L714.45 330.93L711.94 331.82L709.34 336.46L708.78 343.90L707.52 350.20L704.97 356.66L703.38 359.89L701.62 362.69L699.64 365.15L696.89 369.18L692.27 374.33L690.34 377.00L683.58 382.19L679.70 384.09L671.05 385.90L666.09 387.24L663.88 388.35L660.17 392.13L651.30 399.77L652.45 402.06L656.31 411.65L658.08 414.78L661.32 415.36L667.67 410.39L683.75 403.38L688.30 401.77L698.79 403.64L708.90 404.82L713.19 404.69L720.68 404.46L737.47 403.14L741.81 401.42L750.39 400.08L758.46 402.50L759.29 411.73L761.97 415.38L764.93 414.69L769.96 413.50L783.19 411.47L785.84 411.54L797.73 414.12L801.54 414.25L804.59 413.89L805.74 404.55L808.03 403.50L812.05 403.66L820.67 403.47L825.01 402.50L831.07 400.46L834.74 398.02L839.64 396.71L849.28 396.37L858.22 395.43L862.50 394.66L865.11 394.44L869.34 391.58L869.48 387.67L872.96 386.40L890.36 386.92L892.72 386.29L899.04 385.40L905.58 385.26L906.08 388.36L905.47 394.68L908.26 402.39L920.49 401.33L921.69 405.34L923.20 407.98L928.62 405.56L931.49 406.40L934.40 412.63L935.20 420.54L935.77 423.85L939.80 423.38L939.45 417.19L937.07 410.99L936.77 408.41L937.13 403.79L939.47 403.33L937.20 394.28L936.84 391.21L937.14 387.71L937.39 384.76L939.65 378.05L942.94 379.28L947.62 379.69L954.82 374.60L964.75 376.86L968.52 368.62L971.00 365.70L980.14 360.66L1000.00 338.15L975.12 291.25Z" data-ward="11" /><path id="ward-12" class="ward" d="M905.58 385.26L899.04 385.40L892.72 386.29L890.36 386.92L872.96 386.40L869.48 387.67L869.34 391.58L865.11 394.44L862.50 394.66L858.22 395.43L849.28 396.37L839.64 396.71L834.74 398.02L831.07 400.46L825.01 402.50L820.67 403.47L812.05 403.66L808.03 403.50L805.74 404.55L804.59 413.89L804.57 417.13L805.19 420.73L808.51 434.32L808.82 437.04L809.03 439.90L810.30 457.47L810.69 460.34L816.28 474.81L816.99 481.78L816.01 484.98L808.99 487.98L804.40 491.08L803.13 494.40L802.30 498.53L801.03 500.83L793.71 505.97L792.94 508.93L792.46 512.70L792.25 518.01L794.77 519.25L797.82 519.44L801.88 519.22L804.71 518.57L811.46 518.66L815.88 519.66L831.79 515.49L837.58 514.15L839.95 515.60L842.19 517.94L844.40 520.90L849.22 528.82L851.10 533.23L858.74 557.95L866.49 556.36L872.21 557.77L875.29 558.53L879.90 560.67L885.34 563.95L891.05 562.75L895.87 559.47L901.58 554.54L905.01 552.09L910.80 549.30L917.30 547.73L922.72 545.18L936.48 543.92L939.33 543.14L942.07 541.66L945.86 541.64L953.09 541.58L953.63 535.36L955.19 532.44L958.06 530.37L954.80 525.65L951.32 518.75L949.61 514.54L947.76 502.26L946.06 496.83L947.91 494.54L950.28 487.72L950.98 474.59L952.13 470.85L952.01 465.01L951.46 460.63L957.34 457.70L955.99 455.01L953.83 448.17L954.59 445.31L949.31 435.45L946.61 433.46L943.87 430.93L939.80 423.38L935.77 423.85L935.20 420.54L934.40 412.63L931.49 406.40L928.62 405.56L923.20 407.98L921.69 405.34L920.49 401.33L908.26 402.39L905.47 394.68L906.08 388.36L905.58 385.26Z" data-ward="12" /><path id="ward-16" class="ward" d="M842.29 721.10L835.98 717.56L831.09 714.13L829.77 704.96L830.12 700.92L830.93 691.75L826.66 688.58L819.78 684.49L807.28 678.22L715.53 628.84L715.15 635.56L713.63 641.72L712.01 643.82L711.17 647.27L711.12 650.54L710.77 653.21L708.24 658.08L707.02 663.77L707.19 666.31L710.82 667.57L713.17 668.07L722.80 671.84L724.18 674.60L723.08 677.99L724.39 682.24L725.20 692.84L725.39 700.08L725.03 705.06L724.07 712.81L721.65 722.75L715.42 721.65L706.80 720.98L703.39 725.15L699.41 729.46L699.88 738.61L700.54 745.21L704.45 747.12L706.29 753.76L708.22 763.45L707.05 767.63L712.57 768.19L717.34 767.80L720.46 767.79L724.36 768.98L728.29 766.36L730.61 766.77L733.87 769.08L739.24 771.23L742.22 771.15L744.64 769.82L746.91 767.35L751.45 765.58L756.38 767.53L759.05 769.20L763.24 774.05L784.00 792.84L789.37 786.82L793.68 784.23L799.93 782.63L805.42 782.18L810.42 780.39L815.00 779.29L816.67 784.20L829.20 785.39L829.70 778.60L830.29 770.59L830.77 764.04L828.07 762.33L829.69 758.62L831.45 754.16L832.97 753.65L833.72 748.63L834.17 745.62L830.13 743.20L832.94 740.28L836.05 737.06L842.38 729.19L839.72 727.09L842.29 721.10Z" data-ward="16" /><path id="ward-15" class="ward" d="M631.98 552.47L619.42 549.40L604.45 549.89L580.87 554.44L580.38 551.68L576.12 552.99L572.68 554.92L568.57 556.67L553.71 561.60L548.49 562.72L542.66 564.94L536.41 567.93L531.24 569.91L530.08 572.86L531.64 577.71L535.29 585.54L535.82 588.02L537.08 590.79L537.77 593.18L538.43 602.75L538.42 605.92L562.50 605.71L571.66 605.63L575.33 605.60L585.95 605.72L605.20 605.17L624.73 605.62L623.11 616.27L621.20 623.38L621.35 628.40L621.62 635.46L622.49 640.61L621.92 643.73L621.35 650.24L622.46 653.27L629.30 654.33L632.36 654.11L643.70 651.58L651.51 648.80L655.33 647.69L657.88 647.32L661.51 647.71L667.79 649.66L673.73 652.51L681.47 657.41L688.66 661.17L691.49 662.26L698.47 664.23L707.19 666.31L707.02 663.77L708.24 658.08L710.77 653.21L711.12 650.54L711.17 647.27L712.01 643.82L713.63 641.72L715.15 635.56L715.53 628.84L718.15 592.81L684.17 576.24L661.43 565.78L646.25 557.75L631.98 552.47Z" data-ward="15" /><path id="ward-9" class="ward" d="M698.04 70.87L696.10 68.97L693.59 65.04L691.48 63.79L688.44 63.50L694.22 72.81L696.92 81.29L697.66 85.78L701.41 86.68L707.71 96.41L710.33 97.78L711.20 105.52L705.11 107.14L704.47 109.51L689.14 111.73L684.91 115.64L684.79 118.96L686.28 122.43L688.60 127.83L690.15 131.39L691.79 135.17L694.40 139.92L698.92 141.90L703.32 141.67L708.54 139.51L718.59 132.56L721.06 130.23L729.61 130.29L723.85 139.25L724.86 144.77L725.43 147.78L727.37 147.30L727.86 150.47L717.55 161.45L705.55 171.67L703.03 178.26L703.02 184.71L705.54 187.52L724.63 197.71L730.03 200.16L739.84 202.81L740.65 206.37L735.31 211.55L732.19 215.90L729.96 221.09L726.70 223.95L723.60 229.36L720.28 232.05L713.21 231.83L708.57 234.91L697.48 241.52L692.00 245.14L687.31 246.89L684.12 245.41L668.53 244.34L661.60 247.38L655.35 250.11L651.49 253.95L649.53 259.25L649.53 263.26L649.52 271.11L651.54 277.03L658.42 279.50L662.56 282.01L668.22 285.44L670.73 286.96L676.18 290.26L681.23 292.14L677.01 309.71L676.28 312.76L688.37 317.16L694.09 318.00L696.55 318.68L699.09 318.68L701.99 320.53L706.07 321.33L715.52 322.41L716.46 318.85L715.67 315.27L716.26 312.02L715.86 309.12L714.39 306.97L713.74 301.96L711.81 299.69L710.36 296.66L709.80 288.69L708.43 284.77L712.96 284.14L717.19 284.16L720.73 284.98L724.05 285.74L728.02 287.07L731.98 288.40L734.55 290.14L743.29 293.13L744.73 295.81L746.65 297.83L750.37 298.42L759.36 298.17L768.44 296.98L772.88 297.12L774.20 300.76L774.89 304.16L786.13 302.93L794.94 303.25L805.64 304.63L814.95 305.00L821.51 304.14L835.22 301.35L832.95 296.59L827.85 288.34L819.68 274.53L815.82 269.47L813.83 266.87L811.80 265.02L809.76 263.16L805.63 260.83L803.62 258.88L794.35 248.51L783.90 238.14L781.02 232.41L780.53 229.55L780.70 222.39L780.06 218.43L775.33 197.68L773.23 189.73L771.79 181.80L768.49 169.61L768.04 167.16L767.56 157.10L766.68 151.11L764.42 145.76L764.55 142.02L765.75 136.64L766.12 132.43L767.79 124.96L766.84 121.44L764.08 114.98L763.50 111.49L764.18 106.28L763.52 101.58L762.25 98.88L761.18 96.58L758.81 94.46L753.99 93.51L750.41 92.31L744.38 89.72L740.34 87.11L735.34 82.14L730.71 79.02L728.58 77.58L719.11 73.63L717.77 69.76L715.10 69.49L712.74 69.60L707.18 70.06L701.55 71.01L698.04 70.87Z" data-ward="9" /><path id="ward-10" class="ward" d="M829.76 67.56L826.41 59.65L825.52 57.24L817.66 49.52L803.93 33.65L774.84 0.00L738.69 1.00L704.41 11.24L702.86 15.46L687.01 58.71L688.44 63.50L691.48 63.79L693.59 65.04L696.10 68.97L698.04 70.87L701.55 71.01L707.18 70.06L712.74 69.60L715.10 69.49L717.77 69.76L719.11 73.63L728.58 77.58L730.71 79.02L735.34 82.14L740.34 87.11L744.38 89.72L750.41 92.31L753.99 93.51L758.81 94.46L761.18 96.58L762.25 98.88L763.52 101.58L764.18 106.28L763.50 111.49L764.08 114.98L766.84 121.44L767.79 124.96L766.12 132.43L765.75 136.64L764.55 142.02L764.42 145.76L766.68 151.11L767.56 157.10L768.04 167.16L768.49 169.61L771.79 181.80L773.23 189.73L775.33 197.68L780.06 218.43L780.70 222.39L780.53 229.55L781.02 232.41L783.90 238.14L794.35 248.51L803.62 258.88L805.63 260.83L809.76 263.16L811.80 265.02L813.83 266.87L815.82 269.47L819.68 274.53L827.85 288.34L832.95 296.59L835.22 301.35L837.30 303.36L839.96 307.92L844.08 316.01L845.33 318.51L851.43 328.86L856.94 337.49L860.62 338.31L865.34 337.09L871.06 336.16L876.71 335.08L879.53 334.29L882.55 333.84L891.29 333.31L897.75 333.58L903.21 332.66L905.23 330.38L903.10 325.84L899.73 318.36L898.66 314.25L906.30 314.16L912.09 314.85L914.86 316.39L917.50 317.10L923.10 317.56L931.40 316.97L950.24 308.73L972.38 292.89L975.12 291.25L973.95 289.03L972.17 285.54L957.33 258.71L934.23 240.35L912.89 223.39L890.37 205.50L874.46 169.59L851.34 117.41L840.34 92.56L829.76 67.56Z" data-ward="10" /><path id="ward-5" class="ward" d="M605.44 451.68L596.65 440.47L591.99 433.14L583.27 437.62L574.27 443.77L569.45 446.57L562.96 449.82L556.75 452.53L553.97 452.37L552.51 450.50L549.39 449.47L539.20 449.63L532.02 450.27L525.58 450.26L516.66 452.94L512.83 453.51L508.55 453.65L505.33 454.06L498.77 456.03L494.71 456.96L486.38 459.65L482.93 461.12L482.22 470.60L479.17 471.91L459.54 473.28L454.97 474.09L452.49 473.80L446.31 475.62L447.61 482.25L442.56 484.01L436.18 484.85L428.76 485.35L424.44 486.10L416.67 487.97L410.52 490.74L406.24 493.67L404.21 497.45L390.26 499.09L380.41 499.65L380.34 494.79L378.94 492.83L371.49 493.69L369.35 491.37L366.94 487.48L363.09 491.02L358.37 493.43L355.02 489.73L353.15 487.42L348.86 487.66L342.63 489.45L336.80 490.41L333.96 490.58L329.10 493.05L326.21 495.01L322.61 496.63L318.01 498.13L313.84 500.30L308.69 501.85L306.60 503.56L316.74 513.41L321.22 518.37L326.20 524.49L337.74 536.46L340.76 534.02L340.18 519.83L343.62 518.60L350.15 518.00L352.65 517.39L355.20 515.22L363.64 512.95L368.23 511.21L370.64 512.51L372.71 515.31L374.99 517.77L379.68 521.04L390.42 530.37L387.80 536.13L385.78 543.89L378.82 563.80L377.39 569.13L393.07 574.77L401.67 578.33L406.07 579.72L409.27 580.63L426.69 584.35L435.58 589.05L451.95 589.48L468.32 589.91L490.62 585.56L523.15 574.28L530.08 572.86L531.24 569.91L536.41 567.93L542.66 564.94L548.49 562.72L553.71 561.60L568.57 556.67L572.68 554.92L576.12 552.99L573.96 550.24L574.93 546.56L574.58 542.61L574.08 539.67L572.68 536.06L571.28 533.21L571.45 526.72L569.94 523.82L569.71 520.41L568.69 513.16L570.27 500.81L574.76 490.69L578.48 493.19L581.30 496.61L583.20 500.60L591.13 497.15L597.28 495.38L607.65 489.73L606.56 486.69L605.43 478.35L605.96 474.81L609.68 459.01L605.44 451.68Z" data-ward="5" /><path id="ward-13" class="ward" d="M797.73 414.12L785.84 411.54L783.19 411.47L769.96 413.50L764.93 414.69L769.20 424.26L769.91 432.06L769.27 439.33L768.33 446.58L766.82 450.89L765.19 457.22L762.36 470.97L761.14 474.71L758.21 481.35L754.56 488.50L751.09 488.26L741.90 486.47L735.17 484.67L729.91 482.46L729.77 478.49L730.80 474.67L730.86 471.47L728.08 470.07L719.43 466.78L712.64 464.86L710.10 464.94L707.63 471.22L707.11 477.29L706.68 494.03L704.80 499.56L701.32 503.27L699.44 506.86L696.81 509.33L694.39 508.94L692.38 510.65L691.79 513.13L690.61 522.44L689.27 525.96L685.99 532.37L685.33 536.03L682.24 537.03L677.68 537.79L675.11 545.69L672.39 551.55L673.08 553.88L676.85 557.02L677.33 560.92L678.58 564.85L681.43 568.98L684.55 570.80L684.73 573.64L684.17 576.24L718.15 592.81L715.53 628.84L807.28 678.22L819.78 684.49L826.66 688.58L830.93 691.75L830.47 686.00L832.71 682.94L840.19 667.68L844.87 663.29L846.93 658.58L848.56 654.83L851.78 647.46L854.09 643.86L854.09 638.72L849.00 637.78L846.52 632.23L844.15 626.90L841.29 621.93L842.80 618.30L844.02 615.35L845.15 609.57L845.86 605.91L847.03 601.92L842.58 598.93L839.87 599.35L835.44 605.03L830.19 610.45L829.33 616.42L828.13 618.58L825.41 617.23L822.52 615.78L820.52 613.53L818.06 612.87L807.08 608.52L805.25 606.20L805.46 602.69L806.54 598.50L804.68 593.50L803.70 590.86L811.90 586.34L824.17 585.09L828.02 584.69L832.32 584.11L830.80 576.53L837.87 576.68L838.91 573.61L842.63 569.82L847.84 565.09L857.11 560.46L858.74 557.95L851.10 533.23L849.22 528.82L844.40 520.90L842.19 517.94L839.95 515.60L837.58 514.15L831.79 515.49L815.88 519.66L811.46 518.66L804.71 518.57L801.88 519.22L797.82 519.44L794.77 519.25L792.25 518.01L792.46 512.70L792.94 508.93L793.71 505.97L801.03 500.83L802.30 498.53L803.13 494.40L804.40 491.08L808.99 487.98L816.01 484.98L816.99 481.78L816.28 474.81L810.69 460.34L810.30 457.47L809.03 439.90L808.82 437.04L808.51 434.32L805.19 420.73L804.57 417.13L804.59 413.89L801.54 414.25L797.73 414.12Z" data-ward="13" /><path id="ward-1" class="ward" d="M241.49 490.99L245.64 489.68L255.51 488.39L265.89 487.03L258.08 472.35L245.30 475.62L217.11 480.80L211.26 482.99L208.90 490.80L205.36 491.61L205.20 483.93L197.10 483.36L192.92 478.75L190.12 479.10L187.10 479.03L181.70 479.71L172.47 479.95L170.16 479.13L168.97 476.75L158.03 478.81L149.69 478.79L145.47 479.49L137.89 479.00L134.21 478.50L130.57 477.41L126.30 476.51L120.97 476.73L114.33 477.69L107.93 478.11L99.51 479.01L95.91 475.56L91.73 475.75L88.50 475.90L85.44 476.49L76.09 476.65L71.69 476.42L62.09 474.55L51.91 472.19L47.37 472.33L44.33 473.79L34.27 475.91L21.46 475.55L19.14 480.69L17.28 486.86L16.34 489.04L15.52 493.46L12.75 500.42L10.77 504.65L7.87 508.01L10.06 510.83L11.87 512.40L25.83 518.79L30.90 519.33L34.04 518.84L38.85 517.69L42.45 517.21L44.18 520.20L48.76 529.78L53.61 529.67L65.58 530.51L67.13 528.06L70.01 522.47L73.10 524.89L75.58 526.16L80.04 527.70L83.13 529.49L89.90 536.36L92.63 538.45L94.12 540.85L95.13 543.42L96.91 545.01L99.40 545.38L111.44 547.20L119.44 550.09L125.85 552.95L131.11 554.74L137.26 555.53L143.13 558.92L151.28 560.55L157.80 560.20L163.19 559.64L172.99 556.72L174.19 554.21L178.06 556.08L184.41 560.29L190.75 562.49L192.69 569.41L192.54 575.93L193.36 584.67L192.58 597.41L202.17 597.96L207.10 597.93L211.57 595.35L213.67 593.15L218.05 589.28L224.08 584.57L227.51 581.27L228.05 578.98L229.19 576.42L229.64 573.75L222.31 561.67L219.81 558.37L217.84 556.82L217.64 554.41L220.86 550.01L220.35 546.29L217.74 543.90L215.43 544.34L213.01 541.54L210.08 540.37L204.55 540.76L195.57 537.35L198.11 532.86L199.30 528.32L199.10 525.41L200.12 522.87L200.61 520.20L198.05 518.73L194.09 518.27L195.26 504.02L196.30 501.32L198.35 502.64L201.02 503.09L207.04 501.96L209.07 499.97L211.31 499.26L219.11 499.01L221.02 497.23L221.00 494.60L223.36 494.04L235.32 492.30L241.49 490.99Z" data-ward="1" /><path id="ward-14" class="ward" d="M759.29 411.73L758.46 402.50L750.39 400.08L741.81 401.42L737.47 403.14L736.19 405.79L735.34 410.00L735.01 418.21L733.80 424.05L734.14 427.44L733.92 429.82L734.17 432.32L730.97 433.34L727.38 433.77L720.63 430.64L716.87 429.32L713.91 427.90L708.38 424.55L697.79 420.26L694.04 420.76L690.61 421.88L684.91 422.15L682.38 422.59L679.62 424.14L675.10 428.99L670.60 431.66L666.47 428.72L662.03 423.27L658.82 420.44L653.38 425.55L651.17 427.95L646.52 432.03L642.34 434.57L639.01 436.25L636.64 437.95L630.02 440.70L624.69 443.83L621.40 447.56L609.68 459.01L605.96 474.81L605.43 478.35L606.56 486.69L607.65 489.73L597.28 495.38L591.13 497.15L583.20 500.60L581.30 496.61L578.48 493.19L574.76 490.69L570.27 500.81L568.69 513.16L569.71 520.41L569.94 523.82L571.45 526.72L571.28 533.21L572.68 536.06L574.08 539.67L574.58 542.61L574.93 546.56L573.96 550.24L576.12 552.99L580.38 551.68L580.87 554.44L604.45 549.89L619.42 549.40L631.98 552.47L646.25 557.75L661.43 565.78L684.17 576.24L684.73 573.64L684.55 570.80L681.43 568.98L678.58 564.85L677.33 560.92L676.85 557.02L673.08 553.88L672.39 551.55L675.11 545.69L677.68 537.79L682.24 537.03L685.33 536.03L685.99 532.37L689.27 525.96L690.61 522.44L691.79 513.13L692.38 510.65L694.39 508.94L696.81 509.33L699.44 506.86L701.32 503.27L704.80 499.56L706.68 494.03L707.11 477.29L707.63 471.22L710.10 464.94L712.64 464.86L719.43 466.78L728.08 470.07L730.86 471.47L730.80 474.67L729.77 478.49L729.91 482.46L735.17 484.67L741.90 486.47L751.09 488.26L754.56 488.50L758.21 481.35L761.14 474.71L762.36 470.97L765.19 457.22L766.82 450.89L768.33 446.58L769.27 439.33L769.91 432.06L769.20 424.26L764.93 414.69L761.97 415.38L759.29 411.73Z" data-ward="14" /><path id="ward-2" class="ward" d="M272.70 470.81L270.13 468.90L267.48 468.89L268.60 471.54L264.94 473.01L261.75 473.01L258.08 472.35L265.89 487.03L255.51 488.39L255.82 495.52L258.06 503.15L259.28 506.46L263.40 509.30L265.03 515.88L267.43 521.11L268.99 525.85L270.83 528.95L273.09 551.05L273.49 557.11L273.58 562.56L274.50 565.87L276.84 565.49L280.48 566.29L282.51 572.55L284.37 575.51L285.62 581.10L288.14 581.61L291.24 581.32L297.11 581.79L301.48 583.39L301.30 586.80L302.09 589.75L308.05 589.42L309.77 591.46L309.22 594.62L308.51 604.83L308.83 608.62L321.52 609.23L325.64 608.63L330.83 607.42L337.54 599.02L342.37 593.70L346.73 587.96L350.47 582.35L356.43 575.73L357.95 572.29L358.36 569.40L358.34 566.14L361.89 566.91L364.52 574.31L370.99 581.54L387.88 590.82L390.45 594.78L392.66 599.80L402.28 601.66L411.90 603.51L422.79 605.17L432.84 605.41L454.79 605.92L474.66 605.42L499.95 605.45L538.42 605.92L538.43 602.75L537.77 593.18L537.08 590.79L535.82 588.02L535.29 585.54L531.64 577.71L530.08 572.86L523.15 574.28L490.62 585.56L468.32 589.91L451.95 589.48L435.58 589.05L426.69 584.35L409.27 580.63L406.07 579.72L401.67 578.33L393.07 574.77L377.39 569.13L378.82 563.80L385.78 543.89L387.80 536.13L390.42 530.37L379.68 521.04L374.99 517.77L372.71 515.31L370.64 512.51L368.23 511.21L363.64 512.95L355.20 515.22L352.65 517.39L350.15 518.00L343.62 518.60L340.18 519.83L340.76 534.02L337.74 536.46L326.20 524.49L321.22 518.37L316.74 513.41L306.60 503.56L302.75 499.82L299.23 497.12L272.70 470.81Z" data-ward="2" /><path id="ward-19" class="ward" d="M308.51 604.83L309.22 594.62L309.77 591.46L308.05 589.42L302.09 589.75L300.56 594.28L300.63 596.93L300.98 599.33L300.75 603.17L298.43 604.30L272.29 606.51L269.79 606.63L266.39 606.35L262.82 606.87L262.34 611.94L263.53 617.45L263.73 625.24L264.64 630.08L264.82 634.42L266.67 641.67L267.22 645.60L269.06 651.98L269.86 655.61L269.51 659.71L261.99 661.80L259.36 662.75L257.66 664.60L258.54 666.95L259.13 669.92L261.42 676.58L261.95 679.13L260.40 681.18L259.67 685.11L260.13 692.22L260.79 696.62L262.11 702.77L263.96 707.89L268.35 716.98L261.22 719.46L261.18 722.55L261.73 727.71L263.67 735.80L265.67 740.09L271.36 740.29L280.25 739.66L283.36 741.55L284.72 750.25L285.58 757.50L288.65 765.50L292.14 765.44L295.99 766.42L299.70 768.42L312.16 770.45L321.67 770.93L324.33 770.17L329.39 761.67L330.56 755.58L330.39 753.18L329.51 750.95L328.77 747.89L324.22 742.16L329.77 734.82L345.61 723.92L359.86 715.92L371.88 710.73L378.57 707.44L381.56 707.62L384.69 708.10L390.10 707.92L400.04 705.69L403.14 704.76L408.22 702.57L411.11 700.64L414.07 699.76L421.87 698.93L425.36 696.95L432.64 691.85L429.20 684.50L429.05 677.30L419.60 676.11L415.64 675.25L406.04 676.28L403.13 677.62L400.29 678.50L397.49 674.68L398.05 671.49L399.02 668.78L397.83 666.08L393.02 666.13L389.26 666.16L388.59 662.46L387.50 659.48L385.89 646.13L385.69 630.56L385.18 625.66L383.44 622.86L371.97 622.72L366.33 623.12L364.17 619.55L361.99 612.18L358.04 611.54L352.68 611.43L343.07 609.99L334.97 609.26L330.83 607.42L325.64 608.63L321.52 609.23L308.83 608.62L308.51 604.83Z" data-ward="19" /><path id="ward-4" class="ward" d="M412.22 327.59L411.13 323.94L408.80 320.43L403.69 321.39L400.39 322.31L397.28 323.80L393.81 323.97L387.69 325.57L378.66 330.46L372.17 332.20L363.60 333.26L357.69 333.70L357.82 336.22L357.63 343.26L354.81 343.63L349.89 344.77L350.42 347.43L353.21 352.83L353.84 360.37L356.86 368.30L355.00 370.04L354.52 373.03L355.68 378.74L354.70 383.21L356.19 388.70L357.99 399.09L355.54 398.87L353.34 397.58L345.99 397.71L342.07 398.69L335.94 401.49L327.55 404.26L324.97 405.42L324.14 411.66L323.86 416.14L324.37 421.65L324.07 436.39L325.25 445.46L314.23 456.63L309.83 462.63L306.04 464.53L296.22 467.10L272.70 470.81L299.23 497.12L302.75 499.82L306.60 503.56L308.69 501.85L313.84 500.30L318.01 498.13L322.61 496.63L326.21 495.01L329.10 493.05L333.96 490.58L336.80 490.41L342.63 489.45L348.86 487.66L353.15 487.42L355.02 489.73L358.37 493.43L363.09 491.02L366.94 487.48L363.67 483.30L359.33 480.20L357.54 477.00L356.98 474.34L357.32 468.71L357.16 460.48L357.98 458.08L359.54 455.74L361.65 450.91L371.01 450.80L382.58 449.67L384.93 449.75L387.89 449.84L390.67 450.67L394.88 452.35L399.00 452.60L406.11 454.31L409.06 453.47L412.44 444.12L411.30 441.05L407.17 441.31L404.58 439.97L404.36 436.35L404.14 432.74L404.44 428.60L408.26 420.50L408.46 416.99L408.56 413.70L408.63 405.73L409.38 397.20L408.57 382.40L423.20 381.96L426.38 380.86L429.39 378.85L426.69 374.17L423.82 367.24L421.34 364.81L420.68 362.22L421.03 357.40L424.47 356.61L426.20 354.30L425.95 349.27L426.17 341.82L425.88 331.79L425.13 329.21L417.90 328.77L414.45 328.92L412.22 327.59Z" data-ward="4" /><path id="ward-7" class="ward" d="M402.14 262.35L393.08 262.63L396.16 284.28L395.48 297.17L383.93 296.61L384.20 305.77L384.27 308.48L380.22 310.21L369.90 309.91L367.41 311.67L367.89 314.10L369.37 316.61L373.00 324.61L372.17 332.20L378.66 330.46L387.69 325.57L393.81 323.97L397.28 323.80L400.39 322.31L403.69 321.39L408.80 320.43L411.13 323.94L412.22 327.59L414.45 328.92L417.90 328.77L425.13 329.21L425.88 331.79L426.17 341.82L425.95 349.27L426.20 354.30L424.47 356.61L421.03 357.40L420.68 362.22L421.34 364.81L423.82 367.24L426.69 374.17L429.39 378.85L426.38 380.86L423.20 381.96L408.57 382.40L409.38 397.20L408.63 405.73L408.56 413.70L408.46 416.99L408.26 420.50L404.44 428.60L411.68 428.59L419.72 428.46L423.77 427.64L426.46 427.44L425.65 421.12L426.09 418.03L439.82 415.56L442.40 413.93L442.50 411.04L445.84 409.25L455.76 406.69L460.44 405.28L468.87 403.42L472.57 402.28L473.96 400.35L481.92 397.96L486.86 396.86L493.81 395.92L495.96 393.40L498.87 393.36L502.25 392.13L506.59 391.37L507.78 388.38L507.64 384.39L507.79 379.89L506.96 376.40L506.58 373.14L506.70 369.99L505.46 364.70L507.03 362.78L512.85 362.65L516.81 360.50L518.61 358.34L517.16 354.85L516.62 351.65L513.14 351.41L512.20 346.82L540.39 339.75L542.71 329.27L543.10 319.84L542.35 315.02L539.37 314.85L536.40 314.69L530.29 302.84L522.87 304.53L521.57 299.07L522.52 295.57L520.27 290.77L515.95 290.09L511.00 289.31L504.68 291.04L496.64 292.29L493.60 292.30L488.64 292.30L486.43 290.58L485.67 285.17L468.96 285.45L464.19 285.53L464.63 281.94L460.57 282.41L456.11 282.92L436.22 292.76L433.80 281.28L426.20 282.57L425.83 277.44L417.10 278.43L415.37 269.70L411.93 270.66L408.95 268.07L404.57 268.24L402.14 262.35Z" data-ward="7" /><path id="ward-6" class="ward" d="M583.27 437.62L591.99 433.14L587.93 426.76L588.72 418.58L573.16 415.67L569.40 414.21L564.76 410.05L556.72 401.47L552.33 394.46L548.06 390.37L546.86 383.06L543.69 371.88L541.82 363.13L539.27 358.05L530.01 357.43L518.61 358.34L516.81 360.50L512.85 362.65L507.03 362.78L505.46 364.70L506.70 369.99L506.58 373.14L506.96 376.40L507.79 379.89L507.64 384.39L507.78 388.38L506.59 391.37L502.25 392.13L498.87 393.36L495.96 393.40L493.81 395.92L486.86 396.86L481.92 397.96L473.96 400.35L472.57 402.28L468.87 403.42L460.44 405.28L455.76 406.69L445.84 409.25L442.50 411.04L442.40 413.93L439.82 415.56L426.09 418.03L425.65 421.12L426.46 427.44L423.77 427.64L419.72 428.46L411.68 428.59L404.44 428.60L404.14 432.74L404.36 436.35L404.58 439.97L407.17 441.31L411.30 441.05L412.44 444.12L409.06 453.47L406.11 454.31L399.00 452.60L394.88 452.35L390.67 450.67L387.89 449.84L384.93 449.75L382.58 449.67L371.01 450.80L361.65 450.91L359.54 455.74L357.98 458.08L357.16 460.48L357.32 468.71L356.98 474.34L357.54 477.00L359.33 480.20L363.67 483.30L366.94 487.48L369.35 491.37L371.49 493.69L378.94 492.83L380.34 494.79L380.41 499.65L390.26 499.09L404.21 497.45L406.24 493.67L410.52 490.74L416.67 487.97L424.44 486.10L428.76 485.35L436.18 484.85L442.56 484.01L447.61 482.25L446.31 475.62L452.49 473.80L454.97 474.09L459.54 473.28L479.17 471.91L482.22 470.60L482.93 461.12L486.38 459.65L494.71 456.96L498.77 456.03L505.33 454.06L508.55 453.65L512.83 453.51L516.66 452.94L525.58 450.26L532.02 450.27L539.20 449.63L549.39 449.47L552.51 450.50L553.97 452.37L556.75 452.53L562.96 449.82L569.45 446.57L574.27 443.77L583.27 437.62Z" data-ward="6" /><path id="ward-20" class="ward" d="M258.06 503.15L255.82 495.52L255.51 488.39L245.64 489.68L241.49 490.99L235.32 492.30L223.36 494.04L221.00 494.60L221.02 497.23L219.11 499.01L211.31 499.26L209.07 499.97L207.04 501.96L201.02 503.09L198.35 502.64L196.30 501.32L195.26 504.02L194.09 518.27L198.05 518.73L200.61 520.20L200.12 522.87L199.10 525.41L199.30 528.32L198.11 532.86L195.57 537.35L204.55 540.76L210.08 540.37L213.01 541.54L215.43 544.34L217.74 543.90L220.35 546.29L220.86 550.01L217.64 554.41L217.84 556.82L219.81 558.37L222.31 561.67L229.64 573.75L229.19 576.42L228.05 578.98L227.51 581.27L224.08 584.57L218.05 589.28L213.67 593.15L211.57 595.35L207.10 597.93L202.17 597.96L192.58 597.41L193.36 584.67L192.54 575.93L192.69 569.41L190.75 562.49L184.41 560.29L178.06 556.08L174.19 554.21L172.99 556.72L163.19 559.64L157.80 560.20L151.28 560.55L143.13 558.92L137.26 555.53L131.11 554.74L125.85 552.95L119.44 550.09L111.44 547.20L99.40 545.38L96.91 545.01L95.13 543.42L94.12 540.85L92.63 538.45L89.90 536.36L83.13 529.49L80.04 527.70L75.58 526.16L73.10 524.89L70.01 522.47L67.13 528.06L65.58 530.51L53.61 529.67L48.76 529.78L44.18 520.20L42.45 517.21L38.85 517.69L34.04 518.84L30.90 519.33L25.83 518.79L11.87 512.40L10.06 510.83L7.87 508.01L6.29 510.07L3.23 513.31L1.39 514.85L0.00 517.35L0.00 520.25L3.73 524.12L6.88 525.79L20.67 532.68L40.09 545.23L44.06 548.11L46.59 550.25L48.17 552.32L50.71 556.37L55.98 562.43L62.60 566.38L70.80 568.38L73.25 566.86L73.86 564.57L76.35 564.17L81.44 563.86L87.35 562.68L107.22 562.46L116.46 564.68L126.31 568.04L136.86 572.71L141.45 575.03L145.37 577.75L149.32 580.08L156.59 586.05L160.26 588.82L166.94 595.56L170.92 599.07L174.20 602.24L178.48 607.86L183.30 612.80L193.27 626.84L194.50 629.31L196.35 630.97L199.32 634.93L203.88 643.70L207.66 649.34L208.68 651.50L212.32 657.20L214.49 661.18L216.10 663.41L219.16 669.61L220.42 672.80L223.61 681.59L224.92 683.63L229.31 689.10L231.39 693.16L237.13 700.54L246.03 713.36L249.07 723.44L249.12 729.09L249.70 731.75L251.04 735.08L256.49 743.28L256.73 745.89L256.50 748.75L257.13 752.14L259.61 753.31L261.74 754.87L264.93 755.21L267.27 756.60L268.62 758.55L270.87 759.96L272.38 761.76L273.95 765.31L276.19 767.92L276.34 771.39L278.08 773.54L283.11 773.45L285.27 769.73L285.49 767.35L288.65 765.50L285.58 757.50L284.72 750.25L283.36 741.55L280.25 739.66L271.36 740.29L265.67 740.09L263.67 735.80L261.73 727.71L261.18 722.55L261.22 719.46L268.35 716.98L263.96 707.89L262.11 702.77L260.79 696.62L260.13 692.22L259.67 685.11L260.40 681.18L261.95 679.13L261.42 676.58L259.13 669.92L258.54 666.95L257.66 664.60L259.36 662.75L261.99 661.80L269.51 659.71L269.86 655.61L269.06 651.98L267.22 645.60L266.67 641.67L264.82 634.42L264.64 630.08L263.73 625.24L263.53 617.45L262.34 611.94L262.82 606.87L266.39 606.35L269.79 606.63L272.29 606.51L298.43 604.30L300.75 603.17L300.98 599.33L300.63 596.93L300.56 594.28L302.09 589.75L301.30 586.80L301.48 583.39L297.11 581.79L291.24 581.32L288.14 581.61L285.62 581.10L284.37 575.51L282.51 572.55L280.48 566.29L276.84 565.49L274.50 565.87L273.58 562.56L273.49 557.11L273.09 551.05L270.83 528.95L268.99 525.85L267.43 521.11L265.03 515.88L263.40 509.30L259.28 506.46L258.06 503.15Z" data-ward="20" /><path id="ward-3" class="ward" d="M353.84 360.37L353.21 352.83L350.42 347.43L349.89 344.77L354.81 343.63L357.63 343.26L357.82 336.22L357.69 333.70L346.74 334.51L342.83 335.24L332.90 339.39L317.76 342.67L314.47 343.44L286.25 351.07L282.73 352.03L275.73 354.90L275.61 359.45L273.09 363.53L271.40 366.25L265.72 366.53L261.27 366.75L258.22 366.96L254.93 366.69L252.49 366.53L249.54 361.26L244.06 361.91L238.63 364.12L238.49 369.63L238.90 376.29L239.27 382.14L240.97 388.82L242.68 395.50L246.47 403.18L247.49 409.34L247.69 412.41L248.04 416.42L236.68 418.27L233.10 420.37L229.54 420.22L225.18 418.42L223.48 420.94L227.99 426.62L231.54 430.34L243.86 443.29L251.14 451.17L254.67 455.00L263.81 464.91L267.48 468.89L270.13 468.90L272.70 470.81L296.22 467.10L306.04 464.53L309.83 462.63L314.23 456.63L325.25 445.46L324.07 436.39L324.37 421.65L323.86 416.14L324.14 411.66L324.97 405.42L327.55 404.26L335.94 401.49L342.07 398.69L345.99 397.71L353.34 397.58L355.54 398.87L357.99 399.09L356.19 388.70L354.70 383.21L355.68 378.74L354.52 373.03L355.00 370.04L356.86 368.30L353.84 360.37Z" data-ward="3" /><path id="ward-17" class="ward" d="M624.73 605.62L605.20 605.17L585.95 605.72L575.33 605.60L571.66 605.63L562.50 605.71L562.06 610.83L562.86 620.71L566.48 623.89L566.30 634.92L568.33 637.00L569.93 641.34L567.84 642.88L565.39 652.38L562.68 659.50L562.63 667.06L565.40 673.24L564.31 675.71L562.77 680.23L562.17 682.84L561.82 690.14L568.48 689.53L570.96 689.73L574.74 690.63L577.13 691.43L584.06 695.49L588.24 697.71L593.00 699.18L600.47 700.54L604.40 702.09L615.76 708.16L635.79 719.97L644.70 725.65L662.56 736.04L666.66 739.30L676.03 744.94L679.39 747.22L680.29 749.52L685.68 754.82L689.93 760.35L693.86 762.44L698.67 764.11L702.55 766.50L707.05 767.63L708.22 763.45L706.29 753.76L704.45 747.12L700.54 745.21L699.88 738.61L699.41 729.46L703.39 725.15L706.80 720.98L715.42 721.65L721.65 722.75L724.07 712.81L725.03 705.06L725.39 700.08L725.20 692.84L724.39 682.24L723.08 677.99L724.18 674.60L722.80 671.84L713.17 668.07L710.82 667.57L707.19 666.31L698.47 664.23L691.49 662.26L688.66 661.17L681.47 657.41L673.73 652.51L667.79 649.66L661.51 647.71L657.88 647.32L655.33 647.69L651.51 648.80L643.70 651.58L632.36 654.11L629.30 654.33L622.46 653.27L621.35 650.24L621.92 643.73L622.49 640.61L621.62 635.46L621.35 628.40L621.20 623.38L623.11 616.27L624.73 605.62Z" data-ward="17" /><path id="ward-18" class="ward" d="M432.84 605.41L422.79 605.17L411.90 603.51L402.28 601.66L392.66 599.80L390.45 594.78L387.88 590.82L370.99 581.54L364.52 574.31L361.89 566.91L358.34 566.14L358.36 569.40L357.95 572.29L356.43 575.73L350.47 582.35L346.73 587.96L342.37 593.70L337.54 599.02L330.83 607.42L334.97 609.26L343.07 609.99L352.68 611.43L358.04 611.54L361.99 612.18L364.17 619.55L366.33 623.12L371.97 622.72L383.44 622.86L385.18 625.66L385.69 630.56L385.89 646.13L387.50 659.48L388.59 662.46L389.26 666.16L393.02 666.13L397.83 666.08L399.02 668.78L398.05 671.49L397.49 674.68L400.29 678.50L403.13 677.62L406.04 676.28L415.64 675.25L419.60 676.11L429.05 677.30L429.20 684.50L432.64 691.85L443.53 687.83L445.10 685.33L446.11 682.45L447.04 677.95L448.92 674.62L453.93 671.11L457.29 669.24L465.98 668.23L474.82 666.03L479.44 668.25L488.24 669.84L492.38 669.90L494.12 671.85L497.27 672.94L500.13 674.57L524.84 682.29L549.66 691.36L561.82 690.14L562.17 682.84L562.77 680.23L564.31 675.71L565.40 673.24L562.63 667.06L562.68 659.50L565.39 652.38L567.84 642.88L569.93 641.34L568.33 637.00L566.30 634.92L566.48 623.89L562.86 620.71L562.06 610.83L562.50 605.71L538.42 605.92L499.95 605.45L474.66 605.42L454.79 605.92L432.84 605.41Z" data-ward="18" /></svg>