<svg viewBox="0 0 1000.00 862.37" xmlns="http://www.w3.org/2000/svg"><style>.ward { fill: #e2e8f0; stroke: #fff; stroke-width: 0.5px; } .ward:hover { fill: #cbd5e1; }</style><path id="ward-5" class="ward" d="M638.75 4.26L634.37 3.79L632.13 0.00L621.81 12.44L614.09 13.34L609.02 15.07L601.34 17.69L591.44 21.08L585.75 23.10L573.37 28.23L566.83 27.59L557.20 26.16L551.13 23.51L542.85 21.55L542.11 23.98L541.33 26.58L538.88 27.73L539.22 40.63L537.91 47.49L529.63 47.95L520.92 53.09L516.05 62.83L506.34 57.01L500.44 65.77L500.51 77.10L505.45 79.23L505.46 94.95L507.33 100.11L510.09 102.31L512.77 106.61L512.80 118.94L515.25 140.29L508.98 147.72L509.29 168.23L514.78 163.05L520.75 163.40L523.98 164.39L526.15 164.57L531.08 164.99L535.44 164.01L538.79 163.27L541.03 162.56L543.92 161.64L559.40 151.38L568.60 142.27L578.30 129.87L581.70 125.53L586.65 121.70L589.15 120.03L598.19 114.60L601.97 107.91L608.21 105.72L627.17 106.49L629.97 105.87L634.02 104.97L636.37 102.44L639.07 97.60L638.07 93.38L637.47 90.88L636.16 85.39L641.13 87.30L643.51 87.62L646.32 86.53L648.94 83.37L650.55 79.04L650.02 76.28L649.51 73.68L648.99 70.98L650.38 63.82L653.64 53.40L654.89 47.86L655.32 40.43L654.07 35.84L657.36 30.03L660.28 27.86L663.33 25.66L659.42 22.62L656.27 19.51L656.88 15.68L657.27 10.07L643.86 12.14L638.75 4.26Z" data-ward="5" /><path id="ward-9" class="ward" d="M883.42 405.72L882.41 395.93L873.04 393.84L860.75 393.54L852.63 396.11L845.78 401.63L837.38 404.91L817.25 405.73L810.39 404.14L807.81 403.54L796.64 403.02L789.29 402.67L791.91 423.26L791.89 425.99L783.13 430.61L778.14 429.54L775.53 429.44L770.79 439.96L757.78 435.06L751.73 470.07L750.89 481.27L757.29 484.03L762.20 487.20L766.48 491.38L768.55 494.81L770.12 499.07L772.20 507.22L774.07 510.51L775.98 512.56L778.24 513.76L786.57 516.10L815.55 523.26L826.61 525.41L838.29 526.48L849.24 524.68L847.03 515.35L852.26 513.68L859.61 510.08L861.13 503.39L868.72 504.51L881.52 508.52L889.29 509.62L893.64 510.78L899.07 511.76L908.92 515.54L911.51 515.92L921.59 514.81L920.52 518.75L918.74 522.30L916.64 525.60L915.14 539.19L909.74 550.79L906.60 558.62L931.19 588.27L949.15 609.53L969.85 572.89L982.53 551.65L994.34 508.18L995.29 499.49L998.67 481.29L1000.00 473.05L993.75 468.11L986.16 468.46L970.12 469.21L966.52 469.24L963.90 469.26L959.54 469.06L955.39 468.67L948.77 468.22L928.24 466.86L916.54 467.79L914.02 467.59L900.86 466.50L892.09 459.72L884.75 450.18L876.05 442.04L873.29 434.48L873.25 426.00L874.23 424.05L883.42 405.72Z" data-ward="9" /><path id="ward-10" class="ward" d="M908.92 515.54L899.07 511.76L893.64 510.78L889.29 509.62L881.52 508.52L868.72 504.51L861.13 503.39L859.61 510.08L852.26 513.68L847.03 515.35L849.24 524.68L838.29 526.48L826.61 525.41L815.55 523.26L809.61 540.77L804.99 541.35L802.61 542.91L800.38 548.00L796.85 547.49L786.92 543.29L782.03 542.16L770.25 536.58L767.98 540.84L764.53 544.27L756.60 545.36L751.78 542.72L748.42 544.88L744.61 544.45L741.91 544.79L741.84 546.87L739.52 556.74L734.10 556.82L733.61 559.95L729.99 560.69L734.50 572.96L739.80 584.91L740.63 589.05L820.09 715.31L844.19 711.84L854.36 708.68L887.96 694.47L897.23 687.67L905.95 677.35L949.15 609.53L931.19 588.27L906.60 558.62L909.74 550.79L915.14 539.19L916.64 525.60L918.74 522.30L920.52 518.75L921.59 514.81L911.51 515.92L908.92 515.54Z" data-ward="10" /><path id="ward-8" class="ward" d="M748.97 353.07L747.13 335.63L745.84 324.84L742.41 318.13L730.86 318.60L728.17 318.99L726.27 322.08L724.29 323.85L710.92 337.12L705.32 340.35L681.47 350.27L670.63 354.19L660.86 356.20L654.01 356.09L644.53 355.16L642.33 356.46L649.82 377.83L652.43 384.58L658.17 400.66L668.53 424.54L672.28 434.14L672.72 438.19L692.88 442.60L699.84 444.42L707.81 446.50L711.61 448.23L717.13 449.95L721.88 450.59L724.61 450.44L726.89 450.81L730.40 452.77L740.19 456.50L742.54 457.65L746.04 458.84L743.20 468.73L740.44 468.20L739.96 471.78L741.01 475.34L745.53 477.68L745.44 479.75L750.89 481.27L751.73 470.07L757.78 435.06L770.79 439.96L775.53 429.44L778.14 429.54L783.13 430.61L791.89 425.99L791.91 423.26L789.29 402.67L783.37 398.53L779.60 390.43L779.50 388.34L774.95 380.44L771.19 374.81L766.30 370.85L754.02 364.96L749.44 357.86L748.97 353.07Z" data-ward="8" /><path id="ward-2" class="ward" d="M386.81 15.30L386.84 12.57L384.81 12.13L381.45 13.24L380.34 17.98L383.73 17.99L382.56 27.86L382.08 33.84L378.84 41.53L375.67 45.96L379.86 53.49L381.28 56.74L381.51 62.05L382.32 67.44L378.40 73.88L377.37 76.22L376.26 80.92L375.63 83.56L374.33 89.79L372.07 100.55L369.41 105.43L364.25 112.79L363.22 118.61L360.24 124.27L358.66 127.27L357.51 129.35L366.93 132.61L372.33 133.93L378.01 134.00L381.80 133.66L384.77 134.55L387.42 134.65L390.95 135.10L394.45 136.83L399.45 138.63L408.34 140.89L413.67 139.79L419.30 137.19L420.45 135.01L423.09 134.19L425.42 134.43L426.07 130.11L426.06 127.79L425.57 124.38L425.54 120.79L426.57 118.27L426.93 114.34L426.20 110.07L425.42 102.84L424.79 99.54L425.12 93.80L425.01 90.17L424.04 82.17L419.93 81.80L412.13 82.28L403.19 82.20L401.79 80.66L402.37 71.29L402.01 67.01L402.35 57.84L402.74 52.91L402.47 46.47L401.84 44.34L399.71 39.95L398.48 37.51L396.92 35.13L394.14 35.45L389.09 19.90L386.81 15.30Z" data-ward="2" /><path id="ward-4" class="ward" d="M515.25 140.29L512.80 118.94L512.77 106.61L510.09 102.31L507.33 100.11L505.46 94.95L505.45 79.23L500.51 77.10L500.44 65.77L506.34 57.01L505.80 48.66L504.27 44.91L502.79 40.47L503.23 36.91L504.72 29.52L505.21 27.02L507.01 14.36L507.02 10.76L507.04 5.86L500.60 8.92L496.61 9.61L492.20 10.36L485.88 14.44L481.15 15.94L472.41 16.59L465.34 18.89L464.37 26.50L463.85 30.52L461.88 32.17L462.12 39.11L461.90 42.07L461.23 45.69L460.39 53.76L459.13 60.02L458.83 63.08L459.82 68.87L460.82 78.77L463.69 79.63L464.34 85.41L465.91 88.95L469.02 89.78L473.10 90.61L476.13 98.96L477.21 104.92L477.60 107.05L476.07 109.63L473.83 110.80L471.68 111.24L469.29 112.73L470.32 116.61L475.28 118.57L476.24 125.86L475.93 130.42L476.69 133.16L477.65 135.32L478.04 138.46L477.05 140.50L475.71 142.32L474.18 144.20L472.10 145.82L466.85 145.87L465.73 144.12L464.85 142.18L463.92 139.98L463.19 137.01L461.92 134.71L459.71 135.15L458.19 137.26L458.21 141.04L458.53 143.15L459.47 146.58L461.04 150.91L463.91 156.47L470.54 159.30L474.69 161.29L475.10 163.34L475.20 165.47L473.07 166.28L472.41 172.75L472.72 185.65L463.80 186.02L462.11 202.57L460.86 211.06L457.24 223.78L470.45 232.85L485.66 243.29L493.01 248.27L503.90 256.10L511.21 260.36L516.47 263.69L526.33 270.47L528.86 271.99L532.42 273.70L534.11 269.94L534.64 266.92L534.83 264.33L534.28 262.29L525.94 240.96L526.32 237.28L528.19 233.73L530.19 231.13L532.51 228.12L536.39 223.45L540.31 219.35L541.01 215.19L538.93 204.12L528.41 197.71L523.15 194.50L513.17 188.23L508.07 185.29L505.99 181.75L506.19 177.36L509.29 168.23L508.98 147.72L515.25 140.29Z" data-ward="4" /><path id="ward-18" class="ward" d="M268.84 429.93L268.91 423.46L269.41 413.53L265.56 414.48L255.58 418.00L251.33 419.12L245.98 419.80L243.87 420.36L230.91 425.13L228.09 428.37L224.16 432.06L213.60 431.53L207.17 430.68L202.21 430.48L197.25 430.28L190.99 430.56L185.27 431.26L179.58 433.36L170.29 436.12L163.12 441.66L155.93 447.94L150.25 453.25L146.42 455.37L139.80 454.81L136.59 455.55L133.50 456.87L134.68 460.71L135.93 462.73L136.92 468.26L137.14 472.22L139.27 471.91L142.78 472.74L148.15 473.47L152.01 472.69L153.42 477.34L156.04 483.28L157.73 484.90L163.03 478.36L165.09 475.81L168.22 468.14L170.01 463.75L172.62 457.35L175.60 454.00L185.67 450.55L197.38 448.66L216.24 447.30L238.47 455.20L253.02 463.32L254.67 466.21L256.07 472.46L256.49 476.25L253.78 484.84L252.27 491.95L252.66 495.97L254.44 500.82L258.32 507.52L260.11 511.31L264.92 512.32L267.44 511.34L274.27 509.55L280.64 508.63L283.22 508.06L286.72 506.55L289.12 505.86L295.49 504.46L298.36 504.03L300.88 504.51L303.95 503.50L297.42 491.41L295.19 489.55L290.83 486.55L284.17 482.61L279.11 479.06L276.61 477.89L268.07 471.52L263.83 467.75L258.50 462.53L263.11 461.27L269.26 460.55L268.13 452.74L268.98 449.32L267.18 446.82L267.80 444.36L268.86 441.45L268.95 438.77L268.63 435.80L269.05 432.70L268.84 429.93Z" data-ward="18" /><path id="ward-19" class="ward" d="M104.51 421.21L100.63 419.56L98.83 417.86L88.28 411.94L82.54 408.72L79.64 406.32L71.17 399.32L63.39 389.55L56.03 380.31L50.78 372.17L45.45 365.29L31.26 360.24L19.11 359.94L15.41 361.93L0.00 370.24L0.35 372.28L1.05 376.87L2.38 382.54L6.03 398.11L6.98 400.70L9.28 404.71L10.22 406.73L18.70 414.75L28.52 424.61L34.76 430.48L46.11 445.41L52.08 456.91L57.85 464.52L59.65 468.10L65.12 475.03L65.99 479.01L65.68 488.22L65.09 491.91L62.19 500.19L59.50 503.81L54.86 509.17L47.63 516.08L41.42 529.68L39.61 533.65L40.67 539.10L41.50 541.47L44.48 544.58L48.14 545.91L53.01 546.44L57.42 545.65L60.55 544.35L80.28 531.87L87.95 528.75L96.81 526.68L102.70 523.78L104.92 522.68L109.81 520.28L112.06 519.17L114.46 517.43L127.01 508.36L136.54 502.06L140.33 499.56L144.13 497.04L146.94 495.19L153.79 488.66L157.73 484.90L156.04 483.28L153.42 477.34L152.01 472.69L148.15 473.47L142.78 472.74L139.27 471.91L137.14 472.22L136.92 468.26L135.93 462.73L134.68 460.71L133.50 456.87L131.91 454.82L131.36 446.97L129.61 445.73L127.53 445.90L126.18 441.96L132.64 440.79L135.11 440.09L133.83 436.34L134.18 433.63L133.12 430.07L131.90 428.29L130.00 426.80L129.35 424.73L129.09 422.56L126.68 417.68L123.31 418.65L119.32 419.82L112.12 421.30L104.51 421.21Z" data-ward="19" /><path id="ward-3" class="ward" d="M438.04 10.80L429.83 8.42L425.45 9.02L425.46 12.47L420.22 13.26L413.54 14.28L408.41 14.04L405.76 13.92L398.26 14.96L397.37 10.33L392.96 10.53L390.35 11.40L386.84 12.57L386.81 15.30L389.09 19.90L394.14 35.45L396.92 35.13L398.48 37.51L399.71 39.95L401.84 44.34L402.47 46.47L402.74 52.91L402.35 57.84L402.01 67.01L402.37 71.29L401.79 80.66L403.19 82.20L412.13 82.28L419.93 81.80L424.04 82.17L425.01 90.17L425.12 93.80L424.79 99.54L425.42 102.84L426.20 110.07L426.93 114.34L426.57 118.27L425.54 120.79L425.57 124.38L426.06 127.79L426.07 130.11L425.42 134.43L426.41 138.94L425.15 151.53L424.22 168.42L424.24 173.62L424.56 178.16L425.73 183.00L427.24 188.09L429.88 194.96L431.14 197.13L432.34 199.19L436.15 204.79L438.34 208.00L445.12 215.20L447.41 217.04L457.24 223.78L460.86 211.06L462.11 202.57L463.80 186.02L472.72 185.65L472.41 172.75L473.07 166.28L475.20 165.47L475.10 163.34L474.69 161.29L470.54 159.30L463.91 156.47L461.04 150.91L459.47 146.58L458.53 143.15L458.21 141.04L458.19 137.26L459.71 135.15L461.92 134.71L463.19 137.01L463.92 139.98L464.85 142.18L465.73 144.12L466.85 145.87L472.10 145.82L474.18 144.20L475.71 142.32L477.05 140.50L478.04 138.46L477.65 135.32L476.69 133.16L475.93 130.42L476.24 125.86L475.28 118.57L470.32 116.61L469.29 112.73L471.68 111.24L473.83 110.80L476.07 109.63L477.60 107.05L477.21 104.92L476.13 98.96L473.10 90.61L469.02 89.78L465.91 88.95L464.34 85.41L463.69 79.63L460.82 78.77L459.82 68.87L458.83 63.08L459.13 60.02L460.39 53.76L461.23 45.69L461.90 42.07L462.12 39.11L461.88 32.17L458.28 30.21L455.42 28.03L438.07 14.81L438.04 10.80Z" data-ward="3" /><path id="ward-22" class="ward" d="M421.26 200.43L418.77 198.95L414.33 196.86L411.90 196.55L407.46 195.54L406.25 203.69L405.45 206.81L403.98 210.23L402.37 213.20L397.43 218.66L388.92 226.10L388.10 228.33L390.07 229.07L392.06 230.77L398.32 230.74L400.54 227.74L404.63 228.58L411.10 228.95L411.37 232.35L412.01 240.35L412.34 242.41L412.35 244.97L411.93 250.93L416.26 251.24L415.48 256.65L411.73 257.55L409.20 257.32L399.80 257.65L400.56 262.13L401.03 268.09L391.80 267.49L388.30 266.98L385.24 267.72L380.27 268.32L374.57 267.63L368.11 265.31L365.37 263.37L363.37 262.39L359.07 259.73L352.77 271.52L354.19 284.73L354.76 287.42L354.91 292.28L357.81 292.96L359.82 292.04L360.72 290.03L365.45 289.02L375.56 290.07L383.21 289.84L385.32 288.96L395.81 286.76L399.12 284.85L401.20 286.81L399.82 297.52L399.75 301.59L400.05 305.73L402.06 306.19L402.51 313.70L403.84 316.81L408.18 315.93L411.26 317.71L410.45 322.45L410.44 325.45L414.19 325.70L417.62 324.26L422.21 323.16L428.27 321.32L428.58 327.60L433.62 329.55L436.72 332.04L440.26 333.27L448.19 334.33L457.11 338.11L459.45 338.75L460.57 336.36L462.42 329.79L464.17 320.38L463.07 318.63L463.88 311.72L463.19 309.22L462.86 305.66L463.38 302.10L467.37 300.55L470.77 300.00L471.38 297.83L480.16 297.12L482.21 296.50L484.73 295.40L487.59 295.24L489.22 293.86L488.78 281.04L489.78 270.05L486.22 261.67L484.16 260.14L482.64 250.16L481.29 247.24L482.42 245.46L485.66 243.29L470.45 232.85L457.24 223.78L447.41 217.04L445.12 215.20L438.34 208.00L436.15 204.79L432.34 199.19L427.97 201.32L424.63 201.73L421.26 200.43Z" data-ward="22" /><path id="ward-12" class="ward" d="M717.13 449.95L711.61 448.23L707.81 446.50L699.84 444.42L692.88 442.60L672.72 438.19L677.99 450.96L689.22 476.21L702.51 505.93L712.17 526.61L725.45 563.06L726.28 567.20L727.61 576.36L718.66 577.61L715.31 596.00L712.00 598.02L707.59 599.79L704.82 600.46L697.86 597.28L694.30 596.96L691.72 598.61L689.95 602.24L689.05 606.69L688.40 608.81L680.70 611.11L672.95 611.06L670.55 609.13L670.14 601.99L670.43 594.87L666.39 592.07L657.58 590.45L645.37 589.37L636.07 591.18L632.95 592.64L625.39 593.80L625.45 603.03L621.54 610.74L619.71 620.40L609.11 616.38L595.70 604.74L588.06 603.82L583.83 603.06L584.03 598.75L582.96 596.18L582.10 593.03L581.69 587.04L578.61 586.28L576.33 586.28L569.89 585.28L564.91 587.05L559.56 589.46L557.76 590.87L555.94 593.53L552.98 600.31L551.65 604.25L549.96 607.31L547.39 609.12L539.92 612.44L533.82 618.96L531.83 620.50L528.85 620.73L526.29 623.40L523.36 624.25L519.70 629.91L516.43 633.60L507.78 630.31L505.35 629.09L501.16 629.13L498.57 630.92L496.02 633.29L490.47 634.75L488.86 637.54L484.38 640.25L481.28 640.62L483.80 636.84L485.42 632.04L486.97 629.85L488.91 628.78L487.76 625.88L481.97 623.99L481.13 621.64L482.04 619.77L484.25 616.33L485.99 614.35L481.80 611.23L479.81 610.19L476.94 610.07L474.64 609.69L470.32 610.79L469.48 613.14L467.58 615.30L463.85 617.08L461.18 617.54L461.37 620.45L459.37 621.08L455.95 621.36L452.08 620.35L444.04 620.10L443.78 622.32L443.25 637.62L440.03 637.66L432.00 639.53L433.39 643.92L440.95 640.83L446.55 640.86L452.29 644.27L456.08 645.80L458.32 645.94L461.16 644.81L462.42 652.13L461.22 654.11L456.50 655.43L450.54 655.05L448.34 658.03L444.80 658.64L443.13 661.23L441.79 672.79L442.26 680.04L446.61 686.71L437.02 695.63L429.29 703.57L417.71 726.33L414.61 750.10L411.26 762.89L408.56 773.18L407.28 778.08L392.87 799.18L390.50 802.83L387.36 808.07L385.08 811.92L380.06 821.67L379.28 835.49L379.02 840.21L378.79 842.88L381.51 859.40L385.60 862.37L388.67 861.25L399.62 849.44L412.74 825.86L416.68 817.21L418.81 812.80L420.61 807.53L430.17 779.49L433.30 773.39L438.98 761.69L457.47 738.49L468.78 724.29L504.65 693.66L534.73 681.44L559.38 668.09L575.13 662.93L589.49 658.23L592.61 656.41L597.10 656.08L612.27 655.12L619.87 654.64L622.60 655.20L638.45 658.46L659.29 663.78L686.39 665.12L708.83 662.57L721.91 669.01L731.15 677.35L738.70 696.68L748.73 708.21L754.63 719.02L765.75 725.60L775.00 727.51L820.09 715.31L740.63 589.05L739.80 584.91L734.50 572.96L729.99 560.69L733.61 559.95L734.10 556.82L739.52 556.74L741.84 546.87L741.91 544.79L744.61 544.45L748.42 544.88L751.78 542.72L756.60 545.36L764.53 544.27L767.98 540.84L770.25 536.58L782.03 542.16L786.92 543.29L796.85 547.49L800.38 548.00L802.61 542.91L804.99 541.35L809.61 540.77L815.55 523.26L786.57 516.10L778.24 513.76L775.98 512.56L774.07 510.51L772.20 507.22L770.12 499.07L768.55 494.81L766.48 491.38L762.20 487.20L757.29 484.03L750.89 481.27L745.44 479.75L745.53 477.68L741.01 475.34L739.96 471.78L740.44 468.20L743.20 468.73L746.04 458.84L742.54 457.65L740.19 456.50L730.40 452.77L726.89 450.81L724.61 450.44L721.88 450.59L717.13 449.95Z" data-ward="12" /><path id="ward-16" class="ward" d="M346.99 399.57L346.02 397.32L343.99 396.13L335.04 395.68L326.03 394.46L312.50 389.22L309.24 387.49L307.43 395.02L307.99 398.40L309.36 400.99L312.31 400.71L314.17 403.14L317.12 411.76L321.36 417.92L324.12 424.49L324.72 434.89L316.78 431.58L314.13 430.71L309.17 429.68L299.16 428.76L297.03 426.96L293.37 425.27L283.13 415.40L279.31 413.56L275.10 413.88L269.41 413.53L268.91 423.46L268.84 429.93L269.05 432.70L268.63 435.80L268.95 438.77L268.86 441.45L267.80 444.36L267.18 446.82L268.98 449.32L268.13 452.74L269.26 460.55L263.11 461.27L258.50 462.53L263.83 467.75L268.07 471.52L276.61 477.89L279.11 479.06L284.17 482.61L290.83 486.55L295.19 489.55L297.42 491.41L303.95 503.50L305.45 505.94L307.74 508.30L308.68 513.67L311.13 522.77L311.50 525.25L311.64 535.02L311.87 537.39L312.88 542.53L320.36 543.31L341.90 540.95L363.91 531.98L370.78 529.40L374.53 527.19L377.05 525.44L379.72 522.21L386.06 511.50L390.03 505.98L392.55 501.41L400.38 484.68L405.19 475.33L407.88 471.46L415.34 459.23L417.82 454.09L419.94 448.04L421.11 441.07L421.65 436.26L420.64 424.80L410.07 428.92L406.88 428.42L398.65 423.04L395.29 428.35L391.69 433.37L386.45 438.56L370.37 447.54L368.20 447.89L359.42 447.31L356.32 446.76L351.43 444.96L342.14 439.38L339.86 436.82L338.57 434.18L337.99 428.63L338.31 417.14L339.27 414.35L341.73 410.64L346.55 401.86L346.99 399.57Z" data-ward="16" /><path id="ward-21" class="ward" d="M508.27 337.88L515.55 309.76L519.32 299.35L520.21 296.37L528.63 281.49L532.42 273.70L528.86 271.99L526.33 270.47L516.47 263.69L511.21 260.36L503.90 256.10L493.01 248.27L485.66 243.29L482.42 245.46L481.29 247.24L482.64 250.16L484.16 260.14L486.22 261.67L489.78 270.05L488.78 281.04L489.22 293.86L487.59 295.24L484.73 295.40L482.21 296.50L480.16 297.12L471.38 297.83L470.77 300.00L467.37 300.55L463.38 302.10L462.86 305.66L463.19 309.22L463.88 311.72L463.07 318.63L464.17 320.38L462.42 329.79L460.57 336.36L459.45 338.75L457.11 338.11L448.19 334.33L440.26 333.27L436.72 332.04L433.62 329.55L428.58 327.60L428.27 321.32L422.21 323.16L417.62 324.26L414.19 325.70L410.44 325.45L408.65 334.09L404.89 338.17L402.15 338.99L401.99 345.49L402.26 355.04L401.68 361.08L402.36 364.61L401.00 366.82L398.94 367.71L397.26 370.52L399.32 374.53L392.14 378.97L385.22 382.15L380.94 383.25L376.91 383.47L376.06 385.63L371.00 388.14L367.08 384.15L361.93 379.97L357.46 377.27L347.44 371.99L336.48 366.64L334.16 365.62L331.10 364.70L320.59 365.52L314.96 364.78L299.49 355.55L292.59 352.13L287.72 351.19L287.57 357.37L288.37 360.88L288.33 371.29L290.76 372.33L293.91 371.11L297.21 371.99L299.44 374.24L299.11 382.14L309.24 387.49L312.50 389.22L326.03 394.46L335.04 395.68L343.99 396.13L346.02 397.32L346.99 399.57L346.55 401.86L341.73 410.64L339.27 414.35L338.31 417.14L337.99 428.63L338.57 434.18L339.86 436.82L342.14 439.38L351.43 444.96L356.32 446.76L359.42 447.31L368.20 447.89L370.37 447.54L386.45 438.56L391.69 433.37L395.29 428.35L398.65 423.04L406.32 416.26L412.70 411.29L416.42 409.48L422.14 408.85L424.38 409.28L431.20 412.98L435.55 415.06L439.92 416.29L448.39 415.04L452.54 412.85L454.47 410.27L455.84 402.39L456.56 396.67L458.39 382.15L460.44 378.06L463.15 373.29L473.64 363.31L485.81 350.02L499.54 343.11L503.89 341.15L508.27 337.88Z" data-ward="21" /><path id="ward-11" class="ward" d="M659.11 438.02L655.47 437.96L652.47 439.92L647.64 452.02L640.30 457.54L630.34 461.69L624.65 462.68L618.57 464.87L616.44 472.92L614.46 478.06L613.13 480.56L615.78 486.03L618.90 489.12L621.64 493.88L624.18 499.92L624.93 502.84L618.41 506.35L613.27 510.35L609.76 515.21L605.77 517.62L603.58 518.07L599.46 519.58L589.15 522.66L583.28 527.38L574.54 530.33L571.43 532.69L567.37 534.02L565.48 535.19L562.20 535.48L553.54 535.39L553.44 538.40L551.87 544.52L550.22 547.33L543.29 562.64L545.29 563.31L560.51 563.53L569.87 564.23L572.54 564.16L575.41 563.36L583.33 559.64L583.34 562.80L580.99 566.84L580.23 568.86L579.20 575.22L578.93 583.55L578.61 586.28L581.69 587.04L582.10 593.03L582.96 596.18L584.03 598.75L583.83 603.06L588.06 603.82L595.70 604.74L609.11 616.38L619.71 620.40L621.54 610.74L625.45 603.03L625.39 593.80L632.95 592.64L636.07 591.18L645.37 589.37L657.58 590.45L666.39 592.07L670.43 594.87L670.14 601.99L670.55 609.13L672.95 611.06L680.70 611.11L688.40 608.81L689.05 606.69L689.95 602.24L691.72 598.61L694.30 596.96L697.86 597.28L704.82 600.46L707.59 599.79L712.00 598.02L715.31 596.00L718.66 577.61L727.61 576.36L726.28 567.20L725.45 563.06L712.17 526.61L702.51 505.93L689.22 476.21L677.99 450.96L672.72 438.19L665.18 440.56L660.89 440.70L659.11 438.02Z" data-ward="11" /><path id="ward-15" class="ward" d="M483.73 409.89L486.91 407.81L467.51 400.90L456.56 396.67L455.84 402.39L454.47 410.27L452.54 412.85L448.39 415.04L439.92 416.29L435.55 415.06L431.20 412.98L424.38 409.28L422.14 408.85L416.42 409.48L412.70 411.29L406.32 416.26L398.65 423.04L406.88 428.42L410.07 428.92L420.64 424.80L421.65 436.26L421.11 441.07L419.94 448.04L417.82 454.09L415.34 459.23L407.88 471.46L405.19 475.33L400.38 484.68L392.55 501.41L390.03 505.98L386.06 511.50L379.72 522.21L377.05 525.44L374.53 527.19L370.78 529.40L372.92 534.53L375.45 536.99L379.23 538.58L382.60 541.80L397.23 542.60L423.78 545.15L434.19 546.37L436.80 546.02L440.76 545.96L445.39 546.36L452.84 547.32L457.37 547.62L464.16 548.81L468.14 549.07L476.48 550.23L483.02 550.77L492.54 552.10L495.43 551.95L495.18 549.72L495.51 547.45L495.85 545.18L496.89 542.69L501.55 535.61L505.30 533.93L511.07 532.88L514.22 532.65L516.71 532.19L527.65 532.33L553.54 535.39L562.20 535.48L565.48 535.19L567.37 534.02L571.43 532.69L574.54 530.33L573.20 525.49L575.49 523.83L574.52 521.37L569.50 513.83L567.16 509.88L565.50 506.32L560.89 498.38L560.61 488.33L561.27 483.05L559.33 482.06L539.60 476.27L529.35 469.78L526.80 464.28L517.65 457.28L512.61 458.15L508.00 455.11L502.86 451.37L497.68 451.91L494.31 434.10L493.18 425.97L491.03 417.03L487.95 410.86L485.32 411.43L483.73 409.89Z" data-ward="15" /><path id="ward-23" class="ward" d="M401.20 286.81L399.12 284.85L395.81 286.76L385.32 288.96L383.21 289.84L375.56 290.07L365.45 289.02L360.72 290.03L359.82 292.04L357.81 292.96L354.91 292.28L354.76 287.42L350.05 286.38L345.16 286.68L340.45 287.94L333.03 294.02L330.97 297.75L329.68 300.09L327.01 301.49L321.19 303.58L319.78 307.01L318.24 309.05L317.51 313.51L316.89 315.90L311.66 324.02L293.85 330.29L288.50 333.68L279.04 338.49L272.54 340.82L269.91 342.27L269.94 347.76L287.72 351.19L292.59 352.13L299.49 355.55L314.96 364.78L320.59 365.52L331.10 364.70L334.16 365.62L336.48 366.64L347.44 371.99L357.46 377.27L361.93 379.97L367.08 384.15L371.00 388.14L376.06 385.63L376.91 383.47L380.94 383.25L385.22 382.15L392.14 378.97L399.32 374.53L397.26 370.52L398.94 367.71L401.00 366.82L402.36 364.61L401.68 361.08L402.26 355.04L401.99 345.49L402.15 338.99L404.89 338.17L408.65 334.09L410.44 325.45L410.45 322.45L411.26 317.71L408.18 315.93L403.84 316.81L402.51 313.70L402.06 306.19L400.05 305.73L399.75 301.59L399.82 297.52L401.20 286.81Z" data-ward="23" /><path id="ward-13" class="ward" d="M550.22 547.33L551.87 544.52L553.44 538.40L553.54 535.39L527.65 532.33L516.71 532.19L514.22 532.65L511.07 532.88L505.30 533.93L501.55 535.61L496.89 542.69L495.85 545.18L495.51 547.45L495.18 549.72L495.43 551.95L492.54 552.10L483.02 550.77L476.48 550.23L468.14 549.07L464.16 548.81L457.37 547.62L452.84 547.32L445.39 546.36L440.76 545.96L436.80 546.02L434.19 546.37L423.78 545.15L397.23 542.60L382.60 541.80L383.55 545.45L384.45 547.97L386.66 556.63L387.69 558.87L389.15 561.31L393.59 567.85L394.21 570.31L394.33 573.18L394.85 576.03L397.89 580.60L400.14 584.88L402.51 599.66L409.14 625.17L410.29 627.23L412.61 629.66L414.23 631.76L420.49 636.96L424.83 638.53L428.20 638.95L432.00 639.53L440.03 637.66L443.25 637.62L443.78 622.32L444.04 620.10L452.08 620.35L455.95 621.36L459.37 621.08L461.37 620.45L461.18 617.54L463.85 617.08L467.58 615.30L469.48 613.14L470.32 610.79L474.64 609.69L476.94 610.07L479.81 610.19L481.80 611.23L485.99 614.35L484.25 616.33L482.04 619.77L481.13 621.64L481.97 623.99L487.76 625.88L488.91 628.78L486.97 629.85L485.42 632.04L483.80 636.84L481.28 640.62L484.38 640.25L488.86 637.54L490.47 634.75L496.02 633.29L498.57 630.92L501.16 629.13L505.35 629.09L507.78 630.31L516.43 633.60L519.70 629.91L523.36 624.25L526.29 623.40L528.85 620.73L531.83 620.50L533.82 618.96L539.92 612.44L547.39 609.12L549.96 607.31L551.65 604.25L552.98 600.31L555.94 593.53L557.76 590.87L559.56 589.46L564.91 587.05L569.89 585.28L576.33 586.28L578.61 586.28L578.93 583.55L579.20 575.22L580.23 568.86L580.99 566.84L583.34 562.80L583.33 559.64L575.41 563.36L572.54 564.16L569.87 564.23L560.51 563.53L545.29 563.31L543.29 562.64L550.22 547.33Z" data-ward="13" /><path id="ward-1" class="ward" d="M348.08 127.04L346.14 125.47L342.19 124.45L328.88 128.44L324.41 131.95L325.25 134.06L316.43 137.50L311.44 137.06L307.63 141.49L302.70 135.03L299.26 135.73L297.18 133.98L290.94 137.50L294.52 144.99L299.17 149.52L307.04 155.08L308.45 157.06L304.60 166.38L293.75 161.81L288.35 164.15L287.51 182.39L289.26 190.43L291.34 195.32L295.13 201.64L302.45 205.15L303.94 207.14L300.73 210.67L302.90 211.93L303.47 215.71L301.48 217.15L298.93 217.12L298.35 219.42L297.61 222.30L305.45 224.73L310.38 233.75L311.82 236.67L313.89 241.70L317.05 248.13L319.59 255.53L320.70 260.60L320.48 267.56L321.54 275.71L321.69 281.90L322.10 287.13L321.23 293.14L323.75 295.17L330.97 297.75L333.03 294.02L340.45 287.94L345.16 286.68L350.05 286.38L354.76 287.42L354.19 284.73L352.77 271.52L359.07 259.73L363.37 262.39L365.37 263.37L368.11 265.31L374.57 267.63L380.27 268.32L385.24 267.72L388.30 266.98L391.80 267.49L401.03 268.09L400.56 262.13L399.80 257.65L409.20 257.32L411.73 257.55L415.48 256.65L416.26 251.24L411.93 250.93L412.35 244.97L412.34 242.41L412.01 240.35L411.37 232.35L411.10 228.95L404.63 228.58L400.54 227.74L398.32 230.74L392.06 230.77L390.07 229.07L388.10 228.33L388.92 226.10L397.43 218.66L402.37 213.20L403.98 210.23L405.45 206.81L406.25 203.69L407.46 195.54L411.90 196.55L414.33 196.86L418.77 198.95L421.26 200.43L424.63 201.73L427.97 201.32L432.34 199.19L431.14 197.13L429.88 194.96L427.24 188.09L425.73 183.00L424.56 178.16L424.24 173.62L424.22 168.42L425.15 151.53L426.41 138.94L425.42 134.43L423.09 134.19L420.45 135.01L419.30 137.19L413.67 139.79L408.34 140.89L399.45 138.63L394.45 136.83L390.95 135.10L387.42 134.65L384.77 134.55L381.80 133.66L378.01 134.00L372.33 133.93L366.93 132.61L357.51 129.35L353.31 127.90L350.09 128.66L348.08 127.04Z" data-ward="1" /><path id="ward-24" class="ward" d="M276.87 146.47L269.46 147.73L266.84 149.32L255.76 151.15L253.74 149.93L243.40 150.40L241.97 153.17L230.19 165.42L225.61 194.69L224.88 199.42L234.09 272.70L242.75 272.93L247.64 274.51L246.73 277.98L245.16 283.99L245.88 294.72L246.18 299.14L242.21 300.23L240.54 301.88L229.11 313.12L231.02 317.57L230.91 320.75L230.25 327.72L225.44 338.05L233.44 341.05L232.25 343.45L230.00 344.23L224.05 345.55L224.63 350.29L227.41 363.72L228.35 366.23L243.44 360.83L246.72 360.76L252.36 362.34L255.60 364.34L260.47 370.83L264.16 373.53L267.76 374.87L282.07 371.66L288.33 371.29L288.37 360.88L287.57 357.37L287.72 351.19L269.94 347.76L269.91 342.27L272.54 340.82L279.04 338.49L288.50 333.68L293.85 330.29L311.66 324.02L316.89 315.90L317.51 313.51L318.24 309.05L319.78 307.01L321.19 303.58L327.01 301.49L329.68 300.09L330.97 297.75L323.75 295.17L321.23 293.14L322.10 287.13L321.69 281.90L321.54 275.71L320.48 267.56L320.70 260.60L319.59 255.53L317.05 248.13L313.89 241.70L311.82 236.67L310.38 233.75L305.45 224.73L297.61 222.30L298.35 219.42L298.93 217.12L301.48 217.15L303.47 215.71L302.90 211.93L300.73 210.67L303.94 207.14L302.45 205.15L295.13 201.64L291.34 195.32L289.26 190.43L287.51 182.39L288.35 164.15L283.96 166.05L281.43 165.51L281.73 161.08L278.76 154.62L276.87 146.47Z" data-ward="24" /><path id="ward-14" class="ward" d="M419.04 656.32L422.38 651.24L425.91 647.39L428.21 646.32L433.39 643.92L432.00 639.53L428.20 638.95L424.83 638.53L420.49 636.96L414.23 631.76L412.61 629.66L410.29 627.23L409.14 625.17L402.51 599.66L400.14 584.88L397.89 580.60L394.85 576.03L394.33 573.18L394.21 570.31L393.59 567.85L389.15 561.31L387.69 558.87L386.66 556.63L384.45 547.97L383.55 545.45L382.60 541.80L379.23 538.58L375.45 536.99L372.92 534.53L370.78 529.40L363.91 531.98L341.90 540.95L320.36 543.31L320.52 548.70L319.89 552.09L316.26 558.13L313.87 558.65L313.05 562.50L314.00 566.68L317.24 573.75L319.43 574.09L321.67 583.40L321.99 589.44L323.29 594.85L326.24 598.22L326.64 601.65L324.44 607.91L324.92 612.94L325.57 617.01L327.90 618.90L329.20 626.64L331.24 633.15L322.45 634.36L318.53 636.11L303.40 639.59L305.43 646.59L300.63 646.59L293.15 647.87L285.67 649.14L282.65 650.10L276.95 651.44L274.70 652.87L272.47 656.21L269.57 659.81L265.94 660.95L263.58 662.53L259.99 666.60L257.94 675.60L254.79 678.96L265.07 683.16L270.20 683.00L272.80 682.04L273.89 679.62L272.57 670.73L272.75 668.07L276.41 667.88L280.11 669.30L283.42 671.69L285.46 675.35L285.01 679.49L284.26 683.24L284.92 685.99L287.76 689.04L290.35 689.96L299.17 693.11L300.17 688.84L298.02 688.85L293.08 687.21L293.94 684.37L295.26 682.68L297.43 681.31L306.60 679.77L316.41 678.12L321.47 677.97L324.85 679.05L327.89 681.88L328.70 684.67L328.00 689.43L325.04 692.01L319.08 695.07L318.76 697.96L320.52 701.60L323.95 703.47L347.93 710.92L350.80 710.66L352.87 710.09L354.90 708.68L358.09 702.90L360.73 700.92L365.75 697.15L368.14 693.26L367.22 691.30L366.15 688.98L361.79 687.31L359.45 687.29L355.77 688.04L350.86 691.09L348.27 691.93L345.51 690.94L345.57 688.44L345.70 682.63L347.54 675.27L350.38 671.00L356.22 666.55L359.55 665.55L362.25 665.87L365.90 668.09L370.95 671.16L378.24 678.50L382.76 685.75L386.98 687.17L388.88 686.20L391.40 680.23L391.82 667.22L392.12 658.09L394.34 656.54L396.95 656.30L399.68 657.36L403.51 659.79L405.70 661.19L409.35 661.30L413.95 660.30L416.05 659.22L419.04 656.32Z" data-ward="14" /><path id="ward-7" class="ward" d="M638.17 355.47L632.26 355.23L614.69 355.19L598.43 355.80L591.84 355.70L572.13 359.39L545.06 371.15L500.00 392.38L498.42 394.58L497.02 397.02L495.40 400.76L493.04 403.79L486.91 407.81L483.73 409.89L485.32 411.43L487.95 410.86L491.03 417.03L493.18 425.97L494.31 434.10L497.68 451.91L502.86 451.37L508.00 455.11L512.61 458.15L517.65 457.28L526.80 464.28L529.35 469.78L539.60 476.27L559.33 482.06L561.27 483.05L560.61 488.33L560.89 498.38L565.50 506.32L567.16 509.88L569.50 513.83L574.52 521.37L575.49 523.83L573.20 525.49L574.54 530.33L583.28 527.38L589.15 522.66L599.46 519.58L603.58 518.07L605.77 517.62L609.76 515.21L613.27 510.35L618.41 506.35L624.93 502.84L624.18 499.92L621.64 493.88L618.90 489.12L615.78 486.03L613.13 480.56L614.46 478.06L616.44 472.92L618.57 464.87L624.65 462.68L630.34 461.69L640.30 457.54L647.64 452.02L652.47 439.92L655.47 437.96L659.11 438.02L660.89 440.70L665.18 440.56L672.72 438.19L672.28 434.14L668.53 424.54L658.17 400.66L652.43 384.58L649.82 377.83L642.33 356.46L638.17 355.47Z" data-ward="7" /><path id="ward-20" class="ward" d="M264.16 373.53L260.47 370.83L255.60 364.34L252.36 362.34L246.72 360.76L243.44 360.83L228.35 366.23L224.83 367.43L214.54 376.66L212.91 378.14L207.17 384.38L180.99 405.32L162.77 409.96L149.36 411.83L141.35 412.95L135.06 414.35L126.68 417.68L129.09 422.56L129.35 424.73L130.00 426.80L131.90 428.29L133.12 430.07L134.18 433.63L133.83 436.34L135.11 440.09L132.64 440.79L126.18 441.96L127.53 445.90L129.61 445.73L131.36 446.97L131.91 454.82L133.50 456.87L136.59 455.55L139.80 454.81L146.42 455.37L150.25 453.25L155.93 447.94L163.12 441.66L170.29 436.12L179.58 433.36L185.27 431.26L190.99 430.56L197.25 430.28L202.21 430.48L207.17 430.68L213.60 431.53L224.16 432.06L228.09 428.37L230.91 425.13L243.87 420.36L245.98 419.80L251.33 419.12L255.58 418.00L265.56 414.48L269.41 413.53L275.10 413.88L279.31 413.56L283.13 415.40L293.37 425.27L297.03 426.96L299.16 428.76L309.17 429.68L314.13 430.71L316.78 431.58L324.72 434.89L324.12 424.49L321.36 417.92L317.12 411.76L314.17 403.14L312.31 400.71L309.36 400.99L307.99 398.40L307.43 395.02L309.24 387.49L299.11 382.14L299.44 374.24L297.21 371.99L293.91 371.11L290.76 372.33L288.33 371.29L282.07 371.66L267.76 374.87L264.16 373.53Z" data-ward="20" /><path id="ward-17" class="ward" d="M303.95 503.50L300.88 504.51L298.36 504.03L295.49 504.46L289.12 505.86L286.72 506.55L283.22 508.06L280.64 508.63L274.27 509.55L267.44 511.34L264.92 512.32L260.11 511.31L261.04 516.80L261.92 522.00L258.57 538.83L261.15 556.43L262.33 563.51L263.11 568.12L266.04 578.44L266.04 581.64L265.36 584.20L262.67 587.77L253.19 592.87L244.78 596.13L241.15 599.88L237.91 602.84L234.48 607.33L228.79 620.28L226.99 622.83L224.78 624.34L220.98 625.88L216.27 627.78L214.60 632.88L218.13 640.44L219.79 643.34L221.46 646.25L225.36 651.28L231.64 659.39L232.85 663.07L234.42 674.85L235.64 677.58L237.90 677.98L244.01 677.49L249.62 677.59L254.79 678.96L257.94 675.60L259.99 666.60L263.58 662.53L265.94 660.95L269.57 659.81L272.47 656.21L274.70 652.87L276.95 651.44L282.65 650.10L285.67 649.14L293.15 647.87L300.63 646.59L305.43 646.59L303.40 639.59L318.53 636.11L322.45 634.36L331.24 633.15L329.20 626.64L327.90 618.90L325.57 617.01L324.92 612.94L324.44 607.91L326.64 601.65L326.24 598.22L323.29 594.85L321.99 589.44L321.67 583.40L319.43 574.09L317.24 573.75L314.00 566.68L313.05 562.50L313.87 558.65L316.26 558.13L319.89 552.09L320.52 548.70L320.36 543.31L312.88 542.53L311.87 537.39L311.64 535.02L311.50 525.25L311.13 522.77L308.68 513.67L307.74 508.30L305.45 505.94L303.95 503.50Z" data-ward="17" /><path id="ward-6" class="ward" d="M568.39 241.67L563.39 241.11L553.86 237.70L548.02 229.97L546.19 227.44L540.31 219.35L536.39 223.45L532.51 228.12L530.19 231.13L528.19 233.73L526.32 237.28L525.94 240.96L534.28 262.29L534.83 264.33L534.64 266.92L534.11 269.94L532.42 273.70L528.63 281.49L520.21 296.37L519.32 299.35L515.55 309.76L508.27 337.88L503.89 341.15L499.54 343.11L485.81 350.02L473.64 363.31L463.15 373.29L460.44 378.06L458.39 382.15L456.56 396.67L467.51 400.90L486.91 407.81L493.04 403.79L495.40 400.76L497.02 397.02L498.42 394.58L500.00 392.38L545.06 371.15L572.13 359.39L591.84 355.70L598.43 355.80L614.69 355.19L632.26 355.23L638.17 355.47L642.33 356.46L644.53 355.16L654.01 356.09L660.86 356.20L670.63 354.19L681.47 350.27L705.32 340.35L710.92 337.12L724.29 323.85L726.27 322.08L728.17 318.99L715.84 320.77L710.53 321.25L698.70 319.41L690.27 317.05L687.63 316.69L685.19 316.36L682.42 319.20L675.03 326.76L670.64 332.85L667.32 334.38L661.29 327.64L657.82 322.97L647.01 309.35L643.96 307.38L640.92 305.40L638.58 303.60L633.62 295.74L632.38 293.17L630.16 286.19L624.54 276.69L622.98 274.04L620.55 270.41L615.48 262.83L612.77 259.53L609.55 253.90L604.52 244.38L600.09 243.00L594.77 241.28L592.38 241.10L589.46 240.88L584.55 241.34L574.07 242.31L568.39 241.67Z" data-ward="6" /></svg>