<svg viewBox="0 0 1000.00 1935.54" xmlns="http://www.w3.org/2000/svg"><style>.ward { fill: #e2e8f0; stroke: #fff; stroke-width: 0.5px; } .ward:hover { fill: #cbd5e1; }</style><path id="ward-4" class="ward" d="M911.87 13.15L898.18 11.67L886.09 10.37L880.03 8.66L873.10 7.54L867.83 6.69L863.74 6.66L859.32 6.62L845.38 7.99L838.13 8.71L830.70 9.75L825.98 11.09L814.07 14.46L805.16 15.97L789.70 16.36L781.13 15.51L777.06 15.40L762.02 14.98L751.65 14.69L747.40 14.58L738.22 17.18L728.73 17.49L715.18 11.91L666.47 21.23L684.19 27.32L685.66 31.18L681.31 41.87L682.40 46.28L693.82 44.75L695.83 58.65L693.57 66.04L694.21 78.68L693.88 84.56L691.84 95.87L688.39 106.23L685.34 120.51L683.95 132.54L684.46 138.26L676.33 161.84L672.18 166.87L663.12 162.48L658.08 159.72L653.00 158.25L646.38 182.84L642.90 186.26L638.03 185.61L632.51 186.29L630.59 194.42L628.27 198.14L616.77 213.68L612.66 221.63L612.78 227.34L617.14 228.64L619.91 233.60L622.58 239.88L625.17 243.67L629.10 251.07L630.78 255.28L634.62 258.21L654.23 249.28L659.12 247.97L667.98 246.51L681.08 242.47L686.56 241.61L691.56 243.02L700.38 244.10L721.64 244.70L725.84 227.92L731.60 221.79L738.32 222.49L741.86 224.43L750.67 224.94L755.37 225.87L759.70 228.43L762.32 231.90L763.13 236.55L765.08 258.38L765.02 264.77L769.09 273.03L774.52 276.86L773.61 281.42L787.24 283.86L792.49 286.99L792.89 294.93L792.31 299.46L794.30 303.08L814.85 303.95L821.20 305.28L825.88 305.55L829.98 306.95L833.22 309.39L831.19 318.67L833.27 323.24L838.08 323.23L843.78 327.12L844.74 335.21L845.72 339.48L853.07 340.95L862.59 343.85L867.21 345.98L874.21 352.17L894.63 360.24L896.69 355.65L900.31 342.96L904.33 339.22L911.15 344.10L913.16 347.59L916.26 351.39L920.28 353.30L926.84 357.66L929.03 362.19L931.85 366.40L939.04 372.58L944.51 373.76L946.30 367.50L950.67 358.45L954.88 355.09L966.13 347.91L969.68 345.84L995.72 330.74L1000.00 322.58L992.33 312.10L981.96 305.93L977.29 303.16L940.64 288.74L929.78 281.87L929.97 274.71L929.51 261.89L927.01 243.67L927.86 230.01L931.36 218.79L932.28 212.86L926.92 195.87L925.11 190.14L920.59 179.61L919.69 171.73L920.10 163.99L926.81 156.44L933.03 154.89L937.03 153.89L944.35 154.10L948.95 153.55L961.66 154.42L971.80 150.34L980.05 137.13L984.91 129.35L987.40 123.59L987.96 115.45L987.41 108.60L985.07 98.42L980.47 75.43L979.39 69.99L974.37 68.23L964.75 60.18L955.31 54.25L946.38 50.71L938.58 48.53L923.75 44.36L920.79 40.67L918.05 37.24L916.38 33.10L914.72 28.95L913.43 21.79L911.87 13.15Z" data-ward="4" /><path id="ward-11" class="ward" d="M770.34 1091.57L759.67 1086.50L754.24 1082.87L750.43 1079.85L744.23 1074.63L714.26 1059.67L708.11 1058.38L685.97 1062.81L681.34 1064.48L677.33 1066.85L665.95 1075.18L663.06 1080.27L665.95 1090.16L664.61 1102.08L665.09 1113.55L658.73 1113.61L646.99 1111.04L641.76 1111.88L641.11 1118.04L641.01 1125.62L644.52 1142.82L637.71 1146.24L629.34 1142.74L618.55 1135.80L607.17 1131.10L601.91 1125.17L596.99 1125.97L595.04 1135.36L590.98 1137.97L583.56 1137.95L576.52 1136.85L572.91 1139.62L573.23 1144.00L572.72 1155.77L567.04 1156.22L554.67 1154.63L550.56 1155.91L542.02 1160.10L536.96 1161.46L529.42 1157.59L521.93 1158.06L519.43 1170.71L510.65 1170.79L505.63 1170.31L496.30 1171.78L491.33 1190.01L490.93 1195.87L488.99 1204.51L493.94 1218.52L497.98 1223.62L501.69 1220.99L511.72 1215.44L520.09 1209.99L525.26 1209.49L529.59 1212.74L533.20 1214.84L544.97 1217.98L548.70 1219.90L554.57 1215.05L559.37 1218.16L563.20 1222.46L567.03 1224.82L571.26 1224.07L575.62 1226.20L584.01 1231.38L587.60 1234.52L589.59 1238.12L595.06 1243.77L597.05 1247.72L604.16 1250.84L609.93 1254.72L621.82 1259.96L627.17 1268.75L632.41 1276.10L636.86 1279.86L641.08 1282.12L643.71 1289.57L640.20 1293.62L631.99 1301.49L630.95 1305.74L629.11 1310.80L623.13 1323.09L621.80 1328.28L624.68 1334.90L635.12 1331.70L639.36 1332.10L642.39 1335.12L645.37 1342.16L648.56 1344.67L655.26 1365.34L657.21 1373.44L661.22 1383.56L670.84 1383.96L675.68 1383.52L677.92 1379.59L682.26 1379.63L686.52 1378.45L687.56 1373.27L689.86 1369.97L697.22 1368.33L704.35 1359.12L713.56 1351.87L718.60 1345.61L727.69 1342.94L731.63 1343.81L737.03 1344.28L741.11 1342.83L743.75 1338.89L745.73 1327.24L748.68 1323.60L764.73 1326.24L774.85 1327.07L782.26 1325.52L778.68 1293.96L777.52 1288.17L772.40 1277.45L767.54 1261.30L766.65 1256.26L766.48 1240.52L769.92 1228.38L772.54 1223.48L778.18 1216.69L814.60 1192.71L818.49 1188.80L822.72 1183.37L825.26 1175.80L828.90 1156.40L831.97 1146.93L832.95 1137.87L830.38 1114.25L831.11 1102.92L831.68 1097.19L833.07 1083.14L832.46 1075.94L822.98 1076.86L813.91 1079.34L802.03 1085.85L794.46 1088.15L784.46 1090.03L775.54 1092.78L770.34 1091.57Z" data-ward="11" /><path id="ward-12" class="ward" d="M764.73 1326.24L748.68 1323.60L745.73 1327.24L743.75 1338.89L741.11 1342.83L737.03 1344.28L731.63 1343.81L727.69 1342.94L718.60 1345.61L713.56 1351.87L704.35 1359.12L697.22 1368.33L689.86 1369.97L687.56 1373.27L686.52 1378.45L682.26 1379.63L677.92 1379.59L675.68 1383.52L670.84 1383.96L661.22 1383.56L657.21 1373.44L655.26 1365.34L648.56 1344.67L645.37 1342.16L642.39 1335.12L639.36 1332.10L635.12 1331.70L624.68 1334.90L618.93 1335.96L613.41 1339.96L611.10 1343.37L608.20 1350.56L609.08 1358.58L614.31 1366.20L617.66 1370.39L619.32 1378.60L618.82 1385.53L616.73 1398.16L612.54 1400.78L607.65 1400.41L598.32 1397.05L594.35 1394.73L591.00 1392.07L585.86 1390.59L577.99 1394.44L568.34 1401.60L569.97 1406.35L573.11 1410.49L576.26 1414.64L582.15 1419.75L596.75 1428.96L602.22 1433.06L605.50 1435.52L609.49 1436.54L621.04 1438.22L625.18 1439.72L629.51 1442.05L637.34 1447.96L640.25 1451.18L645.19 1458.96L646.59 1463.66L647.46 1469.45L648.88 1475.51L653.70 1491.96L655.90 1495.49L659.13 1498.09L665.66 1501.91L669.45 1507.11L672.78 1513.67L671.95 1524.60L664.73 1528.23L657.44 1531.11L653.06 1528.58L649.12 1527.12L640.34 1531.39L635.62 1530.70L628.52 1527.72L623.34 1527.30L606.36 1528.60L600.97 1529.06L594.98 1530.20L592.11 1538.87L591.10 1543.34L590.40 1549.63L591.12 1572.52L590.37 1582.24L590.19 1591.37L589.27 1596.59L591.45 1602.28L597.43 1604.42L604.39 1604.60L608.65 1605.60L617.47 1610.98L623.48 1613.42L628.99 1614.29L634.44 1616.92L622.99 1621.05L604.03 1626.84L591.92 1632.62L583.53 1639.59L595.73 1650.38L615.60 1664.02L621.16 1666.44L624.62 1671.15L621.95 1674.39L625.97 1677.72L629.53 1679.95L638.42 1689.78L644.55 1694.87L652.20 1694.00L654.69 1698.21L662.56 1715.72L669.92 1720.55L674.95 1718.89L682.83 1716.92L695.67 1706.73L707.80 1691.80L713.91 1680.10L717.83 1677.11L734.98 1668.46L747.11 1665.39L758.33 1662.80L770.78 1660.15L795.32 1655.40L802.05 1649.02L801.47 1641.05L800.04 1633.37L797.28 1626.57L793.11 1616.54L787.51 1604.28L779.60 1596.72L771.51 1590.69L756.50 1587.44L745.72 1585.11L739.50 1582.76L730.40 1575.52L726.48 1566.84L718.58 1542.49L701.44 1523.62L693.54 1511.00L689.49 1504.54L687.49 1490.66L687.91 1478.62L686.57 1471.15L686.42 1455.65L687.15 1444.29L692.56 1425.83L697.05 1417.18L714.68 1406.11L722.85 1398.96L727.36 1396.91L732.95 1393.69L741.94 1386.33L746.53 1381.88L752.84 1378.77L758.51 1375.85L769.34 1369.80L777.25 1364.35L784.96 1355.36L784.40 1348.04L784.33 1335.41L782.26 1325.52L774.85 1327.07L764.73 1326.24Z" data-ward="12" /><path id="ward-14" class="ward" d="M638.42 1689.78L629.53 1679.95L625.97 1677.72L621.95 1674.39L624.62 1671.15L621.16 1666.44L615.60 1664.02L595.73 1650.38L583.53 1639.59L575.04 1648.00L559.57 1659.29L552.24 1660.79L535.88 1662.13L520.63 1662.75L520.32 1679.81L519.44 1687.80L515.64 1700.91L509.41 1716.75L508.85 1721.79L514.19 1749.75L518.36 1759.75L513.89 1763.05L506.52 1766.39L502.10 1766.54L492.95 1769.33L480.19 1771.13L470.72 1770.47L466.26 1769.74L459.48 1767.87L448.29 1765.64L443.28 1764.04L436.04 1760.44L429.03 1761.64L426.95 1766.25L425.39 1772.12L423.25 1776.68L420.16 1781.78L416.39 1785.32L410.17 1784.72L406.80 1795.62L384.75 1791.23L367.88 1773.75L364.73 1768.56L362.00 1764.98L356.87 1766.75L352.92 1769.08L350.66 1774.73L350.65 1780.73L354.17 1784.01L360.96 1792.19L368.58 1805.01L374.16 1821.53L376.21 1825.81L381.97 1830.83L394.51 1839.75L397.79 1843.91L383.85 1869.63L387.06 1872.33L408.49 1890.40L419.54 1892.67L422.07 1896.77L429.24 1902.23L433.23 1903.43L440.89 1908.96L447.26 1914.75L455.78 1917.46L465.47 1924.35L476.54 1930.23L481.31 1931.86L492.09 1935.54L492.75 1922.47L492.14 1918.31L493.52 1909.91L501.74 1898.35L513.35 1894.30L526.49 1884.27L545.66 1853.27L552.56 1844.87L567.17 1838.19L579.84 1830.85L586.62 1818.60L588.17 1813.38L590.59 1805.25L592.01 1784.02L597.29 1763.08L606.22 1751.76L620.63 1746.35L632.19 1738.03L643.49 1730.75L647.57 1728.12L659.03 1722.84L669.92 1720.55L662.56 1715.72L654.69 1698.21L652.20 1694.00L644.55 1694.87L638.42 1689.78Z" data-ward="14" /><path id="ward-15" class="ward" d="M372.60 1509.02L373.77 1501.15L374.67 1489.80L374.44 1483.58L371.01 1479.01L364.87 1465.41L360.86 1461.30L361.20 1457.29L364.37 1454.15L363.15 1448.78L360.90 1444.64L360.36 1438.73L357.99 1434.16L348.99 1432.02L342.38 1431.11L336.81 1430.87L332.89 1427.64L330.57 1417.71L314.92 1418.72L304.06 1420.27L301.02 1422.92L303.31 1426.70L302.94 1432.79L293.86 1435.95L276.62 1439.21L268.49 1443.20L278.69 1448.09L282.78 1450.74L293.86 1455.65L285.04 1473.32L281.47 1477.72L255.34 1483.84L248.74 1488.51L244.41 1494.14L237.04 1499.91L235.29 1504.38L226.58 1516.49L225.81 1521.02L228.89 1525.62L230.05 1533.60L220.82 1553.14L213.07 1560.28L212.16 1570.33L227.05 1572.83L238.88 1571.84L241.46 1577.86L241.23 1581.86L242.48 1596.21L242.40 1601.27L240.61 1604.90L243.82 1614.53L235.43 1632.07L238.27 1640.23L238.55 1647.48L237.09 1653.66L232.14 1661.32L226.39 1661.43L223.22 1687.31L222.36 1691.27L218.70 1699.13L214.84 1711.89L217.33 1717.54L224.65 1723.06L234.49 1731.84L239.46 1736.28L244.24 1740.54L246.97 1750.43L247.34 1763.39L250.20 1773.23L256.03 1767.82L272.92 1752.15L290.62 1731.34L297.35 1730.94L301.32 1730.70L304.01 1735.44L316.95 1758.22L332.15 1786.74L336.10 1784.70L350.65 1780.73L350.66 1774.73L352.92 1769.08L356.87 1766.75L362.00 1764.98L364.73 1768.56L367.88 1773.75L384.75 1791.23L406.80 1795.62L410.17 1784.72L416.39 1785.32L420.16 1781.78L423.25 1776.68L425.39 1772.12L426.95 1766.25L429.03 1761.64L431.82 1753.85L435.67 1749.08L441.44 1745.94L442.32 1741.16L442.51 1736.75L444.39 1729.56L439.30 1729.15L434.16 1727.37L430.86 1714.41L431.89 1695.05L429.78 1690.04L422.64 1685.54L416.82 1686.31L404.64 1689.80L398.22 1689.16L404.15 1683.07L406.86 1678.86L408.21 1668.11L408.43 1657.24L409.30 1652.23L413.92 1651.85L422.90 1652.87L427.14 1654.12L433.19 1657.17L449.17 1663.14L454.72 1663.65L462.94 1663.02L482.41 1662.24L479.90 1654.69L477.06 1631.74L476.55 1618.49L477.38 1612.57L477.48 1606.64L475.68 1601.29L471.99 1595.41L467.21 1585.32L460.70 1575.48L457.24 1571.00L449.83 1563.07L445.67 1556.58L438.37 1545.26L433.93 1538.71L430.38 1536.43L424.37 1535.20L420.36 1534.85L407.80 1529.36L403.74 1524.59L405.64 1516.16L397.21 1512.59L394.68 1508.72L389.55 1508.64L372.82 1513.58L372.60 1509.02Z" data-ward="15" /><path id="ward-13" class="ward" d="M646.59 1463.66L645.19 1458.96L640.25 1451.18L637.34 1447.96L629.51 1442.05L625.18 1439.72L621.04 1438.22L609.49 1436.54L605.50 1435.52L602.22 1433.06L596.75 1428.96L582.15 1419.75L576.26 1414.64L573.11 1410.49L569.97 1406.35L568.34 1401.60L560.66 1407.29L550.26 1419.84L547.40 1424.78L541.62 1430.08L539.58 1434.52L536.98 1442.37L531.99 1453.50L528.19 1463.76L523.83 1462.53L513.39 1461.51L508.60 1460.66L499.05 1451.91L496.60 1442.06L494.00 1437.90L486.06 1432.78L483.95 1436.48L482.03 1441.17L480.29 1449.89L478.16 1457.95L473.48 1458.21L465.21 1456.54L465.68 1465.71L467.32 1482.59L467.33 1487.65L460.91 1491.42L442.65 1488.83L433.72 1487.99L427.33 1489.29L423.16 1490.84L417.63 1493.74L416.58 1498.02L414.47 1511.01L410.23 1516.07L405.64 1516.16L403.74 1524.59L407.80 1529.36L420.36 1534.85L424.37 1535.20L430.38 1536.43L433.93 1538.71L438.37 1545.26L445.67 1556.58L449.83 1563.07L457.24 1571.00L460.70 1575.48L467.21 1585.32L471.99 1595.41L475.68 1601.29L477.48 1606.64L477.38 1612.57L476.55 1618.49L477.06 1631.74L479.90 1654.69L482.41 1662.24L462.94 1663.02L454.72 1663.65L449.17 1663.14L433.19 1657.17L427.14 1654.12L422.90 1652.87L413.92 1651.85L409.30 1652.23L408.43 1657.24L408.21 1668.11L406.86 1678.86L404.15 1683.07L398.22 1689.16L404.64 1689.80L416.82 1686.31L422.64 1685.54L429.78 1690.04L431.89 1695.05L430.86 1714.41L434.16 1727.37L439.30 1729.15L444.39 1729.56L442.51 1736.75L442.32 1741.16L441.44 1745.94L435.67 1749.08L431.82 1753.85L429.03 1761.64L436.04 1760.44L443.28 1764.04L448.29 1765.64L459.48 1767.87L466.26 1769.74L470.72 1770.47L480.19 1771.13L492.95 1769.33L502.10 1766.54L506.52 1766.39L513.89 1763.05L518.36 1759.75L514.19 1749.75L508.85 1721.79L509.41 1716.75L515.64 1700.91L519.44 1687.80L520.32 1679.81L520.63 1662.75L535.88 1662.13L552.24 1660.79L559.57 1659.29L575.04 1648.00L583.53 1639.59L591.92 1632.62L604.03 1626.84L622.99 1621.05L634.44 1616.92L628.99 1614.29L623.48 1613.42L617.47 1610.98L608.65 1605.60L604.39 1604.60L597.43 1604.42L591.45 1602.28L589.27 1596.59L590.19 1591.37L590.37 1582.24L591.12 1572.52L590.40 1549.63L591.10 1543.34L592.11 1538.87L594.98 1530.20L600.97 1529.06L606.36 1528.60L623.34 1527.30L628.52 1527.72L635.62 1530.70L640.34 1531.39L649.12 1527.12L653.06 1528.58L657.44 1531.11L664.73 1528.23L671.95 1524.60L672.78 1513.67L669.45 1507.11L665.66 1501.91L659.13 1498.09L655.90 1495.49L653.70 1491.96L648.88 1475.51L647.46 1469.45L646.59 1463.66Z" data-ward="13" /><path id="ward-16" class="ward" d="M544.97 1217.98L533.20 1214.84L529.59 1212.74L525.26 1209.49L520.09 1209.99L511.72 1215.44L501.69 1220.99L497.98 1223.62L493.19 1226.28L480.51 1235.41L476.28 1239.48L475.61 1244.01L466.72 1256.97L474.97 1263.49L478.08 1267.20L479.99 1271.72L480.45 1276.32L482.08 1283.15L483.41 1287.29L485.20 1291.18L490.12 1298.06L499.47 1304.42L502.64 1308.45L504.77 1311.88L511.50 1325.79L516.48 1337.51L519.98 1344.66L518.27 1348.70L505.77 1357.50L497.77 1359.42L493.70 1361.22L491.83 1365.71L488.80 1369.33L485.67 1371.91L478.77 1376.58L472.67 1382.36L464.66 1414.01L444.91 1407.93L438.15 1405.43L427.62 1400.11L415.37 1396.27L410.19 1394.10L401.41 1386.57L392.83 1375.96L388.10 1371.22L383.37 1366.48L376.02 1361.56L372.42 1358.47L369.34 1355.29L361.45 1345.74L357.35 1343.02L347.36 1341.33L340.65 1337.73L330.76 1331.11L326.59 1326.89L319.58 1317.93L315.83 1314.00L306.10 1306.44L301.87 1302.47L289.95 1309.50L282.66 1312.53L283.09 1316.52L281.34 1320.62L273.36 1324.55L262.09 1329.03L261.37 1333.55L252.49 1332.57L248.58 1331.73L247.92 1316.20L246.79 1312.03L241.77 1305.57L237.13 1304.76L221.36 1318.51L210.63 1325.54L205.89 1328.28L197.93 1334.57L188.76 1343.16L181.00 1345.71L182.44 1369.22L209.65 1412.75L214.70 1413.81L219.01 1413.54L227.51 1399.71L234.31 1402.24L239.64 1402.11L244.10 1402.79L247.32 1406.32L250.93 1411.19L263.37 1410.13L269.01 1412.18L269.38 1425.10L268.49 1443.20L276.62 1439.21L293.86 1435.95L302.94 1432.79L303.31 1426.70L301.02 1422.92L304.06 1420.27L314.92 1418.72L330.57 1417.71L332.89 1427.64L336.81 1430.87L342.38 1431.11L348.99 1432.02L357.99 1434.16L360.36 1438.73L360.90 1444.64L363.15 1448.78L364.37 1454.15L361.20 1457.29L360.86 1461.30L364.87 1465.41L371.01 1479.01L374.44 1483.58L374.67 1489.80L373.77 1501.15L372.60 1509.02L372.82 1513.58L389.55 1508.64L394.68 1508.72L397.21 1512.59L405.64 1516.16L410.23 1516.07L414.47 1511.01L416.58 1498.02L417.63 1493.74L423.16 1490.84L427.33 1489.29L433.72 1487.99L442.65 1488.83L460.91 1491.42L467.33 1487.65L467.32 1482.59L465.68 1465.71L465.21 1456.54L473.48 1458.21L478.16 1457.95L480.29 1449.89L482.03 1441.17L483.95 1436.48L486.06 1432.78L494.00 1437.90L496.60 1442.06L499.05 1451.91L508.60 1460.66L513.39 1461.51L523.83 1462.53L528.19 1463.76L531.99 1453.50L536.98 1442.37L539.58 1434.52L541.62 1430.08L547.40 1424.78L550.26 1419.84L560.66 1407.29L568.34 1401.60L577.99 1394.44L585.86 1390.59L591.00 1392.07L594.35 1394.73L598.32 1397.05L607.65 1400.41L612.54 1400.78L616.73 1398.16L618.82 1385.53L619.32 1378.60L617.66 1370.39L614.31 1366.20L609.08 1358.58L608.20 1350.56L611.10 1343.37L613.41 1339.96L618.93 1335.96L624.68 1334.90L621.80 1328.28L623.13 1323.09L629.11 1310.80L630.95 1305.74L631.99 1301.49L640.20 1293.62L643.71 1289.57L641.08 1282.12L636.86 1279.86L632.41 1276.10L627.17 1268.75L621.82 1259.96L609.93 1254.72L604.16 1250.84L597.05 1247.72L595.06 1243.77L589.59 1238.12L587.60 1234.52L584.01 1231.38L575.62 1226.20L571.26 1224.07L567.03 1224.82L563.20 1222.46L559.37 1218.16L554.57 1215.05L548.70 1219.90L544.97 1217.98Z" data-ward="16" /><path id="ward-17" class="ward" d="M327.29 1132.78L322.99 1134.13L317.98 1137.48L313.11 1140.01L302.87 1148.12L299.18 1152.04L293.85 1154.97L286.38 1157.52L282.68 1153.58L277.67 1151.55L272.41 1152.53L257.76 1153.67L247.31 1154.92L238.43 1158.89L234.99 1167.05L238.06 1170.40L242.42 1173.85L248.16 1179.26L251.49 1183.57L237.97 1189.83L233.77 1190.10L226.08 1187.91L222.15 1184.94L213.37 1179.99L209.42 1177.04L203.20 1171.52L195.11 1166.23L191.47 1163.21L188.14 1159.62L185.78 1156.17L181.44 1149.27L176.38 1146.00L169.28 1139.54L165.03 1136.54L160.78 1133.54L157.82 1137.25L146.12 1148.85L141.90 1153.80L137.78 1162.63L134.79 1167.22L130.90 1171.12L127.02 1175.03L122.91 1174.86L120.60 1176.11L118.90 1188.03L108.33 1186.72L104.29 1188.86L89.57 1196.65L78.73 1205.10L69.58 1212.24L59.52 1224.01L50.67 1232.68L46.47 1235.19L37.76 1240.77L38.45 1263.32L47.36 1300.08L39.63 1310.24L10.10 1327.61L10.92 1350.05L17.70 1355.87L23.14 1355.66L39.60 1374.09L40.15 1379.17L45.31 1379.23L57.76 1388.28L61.86 1383.25L69.92 1384.02L97.55 1398.48L110.76 1418.83L114.36 1416.21L126.18 1428.31L142.61 1437.38L148.23 1436.78L155.75 1435.99L169.34 1437.88L176.82 1442.09L184.59 1445.56L193.07 1444.85L197.26 1437.69L218.59 1437.89L217.88 1443.55L230.65 1468.40L229.46 1476.14L231.25 1489.79L237.91 1488.65L248.74 1488.51L255.34 1483.84L281.47 1477.72L285.04 1473.32L293.86 1455.65L282.78 1450.74L278.69 1448.09L268.49 1443.20L269.38 1425.10L269.01 1412.18L263.37 1410.13L250.93 1411.19L247.32 1406.32L244.10 1402.79L239.64 1402.11L234.31 1402.24L227.51 1399.71L219.01 1413.54L214.70 1413.81L209.65 1412.75L182.44 1369.22L181.00 1345.71L188.76 1343.16L197.93 1334.57L205.89 1328.28L210.63 1325.54L221.36 1318.51L237.13 1304.76L241.77 1305.57L246.79 1312.03L247.92 1316.20L248.58 1331.73L252.49 1332.57L261.37 1333.55L262.09 1329.03L273.36 1324.55L281.34 1320.62L283.09 1316.52L282.66 1312.53L289.95 1309.50L301.87 1302.47L306.10 1306.44L315.83 1314.00L319.58 1317.93L326.59 1326.89L330.76 1331.11L340.65 1337.73L347.36 1341.33L357.35 1343.02L355.04 1327.00L353.30 1319.21L357.61 1312.76L365.59 1309.40L369.54 1306.66L376.55 1297.72L382.39 1287.69L385.40 1283.40L387.37 1277.91L387.94 1272.32L391.67 1262.81L397.19 1256.19L395.75 1249.42L392.53 1246.37L390.47 1242.75L388.26 1238.10L387.64 1233.99L387.86 1229.52L394.65 1224.69L398.76 1221.86L404.94 1212.32L412.47 1211.18L418.13 1205.41L416.72 1200.83L406.16 1198.71L400.84 1205.48L396.79 1203.93L396.84 1199.78L395.67 1192.92L389.92 1191.64L388.72 1187.80L388.58 1181.21L398.45 1175.52L401.00 1167.43L405.21 1157.17L407.35 1153.41L401.10 1148.73L399.09 1144.83L391.71 1142.46L387.65 1138.79L383.71 1137.39L375.50 1136.66L371.51 1136.93L367.30 1137.91L360.92 1138.02L355.77 1137.45L352.10 1135.90L348.46 1133.35L332.41 1133.79L327.29 1132.78Z" data-ward="17" /><path id="ward-18" class="ward" d="M373.18 901.49L369.51 898.30L357.20 885.43L351.70 880.31L348.58 883.57L344.16 886.60L338.69 889.14L332.35 896.19L330.37 900.24L326.08 903.72L320.61 901.27L316.83 902.71L306.93 911.09L301.61 916.31L294.05 915.61L299.33 927.52L304.03 935.24L307.07 938.73L314.37 945.74L313.63 950.77L310.15 954.20L305.93 956.93L297.94 956.83L293.91 956.42L288.88 954.13L282.83 955.52L278.67 957.99L274.49 957.97L268.83 962.87L267.67 967.47L260.12 965.94L250.25 965.66L246.22 965.06L241.61 979.87L239.45 985.91L237.28 990.26L227.05 990.75L222.18 992.32L218.58 994.17L208.66 1001.59L198.28 1007.50L194.66 1011.50L187.08 1015.83L182.85 1017.62L180.44 1023.52L181.47 1028.09L190.58 1034.05L193.58 1037.16L204.87 1051.38L209.65 1051.40L212.74 1055.11L228.23 1059.65L236.64 1061.53L242.69 1060.23L249.62 1060.99L255.14 1062.33L262.93 1063.29L270.99 1066.12L274.95 1067.99L278.76 1075.06L286.13 1078.88L290.50 1080.07L297.50 1083.12L299.84 1087.02L291.17 1097.39L287.25 1100.60L278.63 1103.48L273.27 1104.89L268.87 1105.44L266.41 1102.16L263.16 1094.49L259.02 1095.09L255.46 1097.41L251.16 1097.10L240.87 1095.03L231.39 1095.88L223.20 1092.75L219.26 1092.07L203.76 1090.46L198.63 1090.63L188.56 1088.77L186.78 1100.40L180.62 1111.23L174.01 1111.29L170.86 1121.69L167.17 1130.80L165.03 1136.54L169.28 1139.54L176.38 1146.00L181.44 1149.27L185.78 1156.17L188.14 1159.62L191.47 1163.21L195.11 1166.23L203.20 1171.52L209.42 1177.04L213.37 1179.99L222.15 1184.94L226.08 1187.91L233.77 1190.10L237.97 1189.83L251.49 1183.57L248.16 1179.26L242.42 1173.85L238.06 1170.40L234.99 1167.05L238.43 1158.89L247.31 1154.92L257.76 1153.67L272.41 1152.53L277.67 1151.55L282.68 1153.58L286.38 1157.52L293.85 1154.97L299.18 1152.04L302.87 1148.12L313.11 1140.01L317.98 1137.48L322.99 1134.13L327.29 1132.78L332.41 1133.79L348.46 1133.35L352.10 1135.90L355.77 1137.45L360.92 1138.02L367.30 1137.91L371.51 1136.93L375.50 1136.66L383.71 1137.39L387.65 1138.79L391.71 1142.46L399.09 1144.83L401.10 1148.73L407.35 1153.41L405.21 1157.17L401.00 1167.43L398.45 1175.52L388.58 1181.21L388.72 1187.80L389.92 1191.64L395.67 1192.92L396.84 1199.78L396.79 1203.93L400.84 1205.48L406.16 1198.71L416.72 1200.83L418.13 1205.41L412.47 1211.18L404.94 1212.32L398.76 1221.86L394.65 1224.69L387.86 1229.52L387.64 1233.99L388.26 1238.10L390.47 1242.75L392.53 1246.37L395.75 1249.42L397.19 1256.19L391.67 1262.81L387.94 1272.32L387.37 1277.91L385.40 1283.40L382.39 1287.69L376.55 1297.72L369.54 1306.66L365.59 1309.40L357.61 1312.76L353.30 1319.21L355.04 1327.00L357.35 1343.02L361.45 1345.74L369.34 1355.29L372.42 1358.47L376.02 1361.56L383.37 1366.48L388.10 1371.22L392.83 1375.96L401.41 1386.57L410.19 1394.10L415.37 1396.27L427.62 1400.11L438.15 1405.43L444.91 1407.93L464.66 1414.01L472.67 1382.36L478.77 1376.58L485.67 1371.91L488.80 1369.33L491.83 1365.71L493.70 1361.22L497.77 1359.42L505.77 1357.50L518.27 1348.70L519.98 1344.66L516.48 1337.51L511.50 1325.79L504.77 1311.88L502.64 1308.45L499.47 1304.42L490.12 1298.06L485.20 1291.18L483.41 1287.29L482.08 1283.15L480.45 1276.32L479.99 1271.72L478.08 1267.20L474.97 1263.49L466.72 1256.97L475.61 1244.01L476.28 1239.48L480.51 1235.41L493.19 1226.28L497.98 1223.62L493.94 1218.52L488.99 1204.51L490.93 1195.87L491.33 1190.01L496.30 1171.78L497.73 1162.56L502.18 1148.86L506.47 1137.00L508.51 1132.79L502.57 1131.58L485.07 1129.11L475.97 1126.50L470.69 1124.46L464.86 1121.39L447.15 1114.47L443.56 1112.71L436.94 1112.44L432.18 1108.26L427.20 1104.61L418.44 1099.32L408.15 1089.70L402.94 1085.42L393.91 1075.67L390.16 1072.99L385.64 1070.68L381.16 1068.78L373.02 1066.35L376.30 1059.77L377.84 1054.19L377.93 1049.35L378.52 1044.86L380.06 1039.62L383.68 1041.81L387.66 1047.40L392.94 1050.17L398.69 1048.01L403.56 1034.13L408.41 1016.26L412.44 1010.98L411.02 1000.56L415.47 987.55L418.01 983.22L413.40 975.93L415.64 971.81L423.13 961.91L425.31 955.24L399.25 936.33L396.51 933.24L392.36 922.54L389.04 916.21L383.82 908.42L373.18 901.49Z" data-ward="18" /><path id="ward-19" class="ward" d="M81.48 763.99L79.40 767.63L78.15 779.03L79.54 789.29L81.04 793.18L82.97 802.80L82.70 815.14L80.35 826.28L79.78 836.35L77.24 853.73L74.77 864.80L70.54 879.82L68.91 890.10L65.42 912.03L64.29 918.68L68.97 920.81L68.55 928.94L68.61 952.60L66.35 958.64L62.28 965.64L59.27 972.52L52.01 973.96L47.16 975.91L39.86 977.76L24.44 981.66L26.81 988.03L28.97 993.84L30.90 999.04L32.88 1002.89L33.28 1008.95L31.19 1014.52L31.22 1029.64L31.69 1034.16L37.07 1039.35L29.74 1047.48L20.99 1068.90L27.62 1073.90L43.42 1081.38L29.28 1117.12L22.81 1131.85L18.66 1140.21L10.61 1154.99L0.00 1168.62L6.70 1178.23L15.21 1182.51L28.11 1183.10L36.24 1182.40L43.68 1181.77L48.36 1181.85L58.42 1181.00L67.75 1175.47L71.03 1174.39L73.54 1173.23L74.11 1172.91L78.51 1169.94L92.51 1164.05L98.48 1165.88L107.54 1163.26L111.97 1165.83L118.72 1173.62L122.91 1174.86L127.02 1175.03L130.90 1171.12L134.79 1167.22L137.78 1162.63L141.90 1153.80L146.12 1148.85L157.82 1137.25L160.78 1133.54L165.03 1136.54L167.17 1130.80L170.86 1121.69L174.01 1111.29L180.62 1111.23L186.78 1100.40L188.56 1088.77L198.63 1090.63L203.76 1090.46L219.26 1092.07L223.20 1092.75L231.39 1095.88L240.87 1095.03L251.16 1097.10L255.46 1097.41L259.02 1095.09L263.16 1094.49L266.41 1102.16L268.87 1105.44L273.27 1104.89L278.63 1103.48L287.25 1100.60L291.17 1097.39L299.84 1087.02L297.50 1083.12L290.50 1080.07L286.13 1078.88L278.76 1075.06L274.95 1067.99L270.99 1066.12L262.93 1063.29L255.14 1062.33L249.62 1060.99L242.69 1060.23L236.64 1061.53L228.23 1059.65L212.74 1055.11L209.65 1051.40L204.87 1051.38L193.58 1037.16L190.58 1034.05L181.47 1028.09L180.44 1023.52L182.85 1017.62L187.08 1015.83L194.66 1011.50L198.28 1007.50L208.66 1001.59L218.58 994.17L222.18 992.32L227.05 990.75L237.28 990.26L239.45 985.91L241.61 979.87L246.22 965.06L250.25 965.66L260.12 965.94L267.67 967.47L268.83 962.87L274.49 957.97L278.67 957.99L282.83 955.52L288.88 954.13L293.91 956.42L297.94 956.83L305.93 956.93L310.15 954.20L313.63 950.77L314.37 945.74L307.07 938.73L304.03 935.24L299.33 927.52L294.05 915.61L288.90 908.10L284.55 905.16L280.17 899.80L276.58 897.45L269.52 890.64L260.28 884.09L255.28 879.57L259.93 872.88L266.47 866.98L271.02 864.66L260.45 859.42L255.43 857.50L241.80 855.02L236.91 854.74L231.82 852.51L227.33 852.54L222.64 854.94L218.03 856.67L212.23 864.32L208.30 867.75L204.36 869.06L199.23 869.44L194.61 870.31L191.36 873.73L187.56 878.96L182.59 887.11L178.58 892.87L170.28 897.74L149.26 904.34L143.88 886.52L142.85 879.93L142.36 869.56L139.52 851.85L141.35 847.04L145.80 843.62L144.70 817.00L142.80 812.87L141.33 806.45L139.24 801.99L137.30 797.83L130.27 795.00L127.78 791.80L124.50 779.81L122.07 776.56L115.09 770.26L103.88 764.86L95.77 764.69L86.50 765.25L81.48 763.99Z" data-ward="19" /><path id="ward-20" class="ward" d="M296.27 631.67L286.34 630.37L279.08 627.18L275.57 636.24L271.17 639.97L250.64 635.30L232.17 634.39L222.44 634.65L223.31 643.11L223.40 649.17L221.63 658.45L220.58 666.68L221.07 672.13L221.05 677.95L213.63 674.86L196.10 666.29L185.53 663.47L179.29 663.01L172.61 671.31L160.47 682.79L151.23 689.75L145.34 696.35L142.94 699.68L135.88 706.72L131.46 715.46L127.23 722.02L125.90 728.94L126.53 739.26L115.85 736.64L105.04 733.45L92.10 728.55L91.39 712.94L90.02 703.75L86.42 707.29L82.36 734.53L79.35 742.09L73.85 755.84L68.54 770.01L69.40 776.42L67.43 785.54L67.15 793.59L66.29 817.52L80.35 826.28L82.70 815.14L82.97 802.80L81.04 793.18L79.54 789.29L78.15 779.03L79.40 767.63L81.48 763.99L86.50 765.25L95.77 764.69L103.88 764.86L115.09 770.26L122.07 776.56L124.50 779.81L127.78 791.80L130.27 795.00L137.30 797.83L139.24 801.99L141.33 806.45L142.80 812.87L144.70 817.00L145.80 843.62L141.35 847.04L139.52 851.85L142.36 869.56L142.85 879.93L143.88 886.52L149.26 904.34L170.28 897.74L178.58 892.87L182.59 887.11L187.56 878.96L191.36 873.73L194.61 870.31L199.23 869.44L204.36 869.06L208.30 867.75L212.23 864.32L218.03 856.67L222.64 854.94L227.33 852.54L231.82 852.51L236.91 854.74L241.80 855.02L255.43 857.50L260.45 859.42L271.02 864.66L266.47 866.98L259.93 872.88L255.28 879.57L260.28 884.09L269.52 890.64L276.58 897.45L280.17 899.80L284.55 905.16L288.90 908.10L294.05 915.61L301.61 916.31L306.93 911.09L316.83 902.71L320.61 901.27L326.08 903.72L330.37 900.24L332.35 896.19L338.69 889.14L344.16 886.60L348.58 883.57L351.70 880.31L357.20 885.43L369.51 898.30L373.18 901.49L383.82 908.42L389.04 916.21L392.36 922.54L396.51 933.24L399.25 936.33L425.31 955.24L430.72 948.39L428.96 943.00L431.77 933.65L433.70 929.39L435.77 922.53L438.93 919.70L452.02 910.51L456.37 907.14L467.93 898.17L489.92 881.11L493.91 873.85L495.07 863.87L498.64 857.00L492.92 854.34L485.77 848.56L486.38 838.48L491.38 829.97L492.14 822.70L488.96 819.99L484.62 818.68L475.01 813.72L469.69 811.72L458.82 808.81L452.11 807.88L447.59 808.18L439.31 809.61L429.25 812.22L422.00 808.77L413.75 810.44L413.94 798.42L415.97 780.82L415.46 776.32L413.33 763.55L413.94 757.20L414.30 745.23L414.25 719.72L408.63 719.65L404.42 719.00L396.91 716.17L388.27 708.10L383.60 704.44L374.39 690.34L371.52 681.97L368.55 665.15L367.01 651.29L364.59 647.00L361.05 643.65L357.56 638.29L354.46 635.66L345.11 634.80L332.96 635.71L311.68 631.99L301.67 632.20L296.27 631.67Z" data-ward="20" /><path id="ward-1" class="ward" d="M218.41 331.07L202.82 325.44L195.10 320.21L188.20 316.24L183.25 311.94L182.83 304.99L179.10 303.15L175.45 300.68L170.62 298.44L163.78 301.31L166.60 311.91L166.94 320.45L165.77 330.61L165.14 343.86L159.48 349.52L160.01 354.80L162.02 359.52L173.08 366.85L177.60 374.40L177.04 378.52L163.98 384.13L156.28 385.91L152.20 386.18L143.38 388.59L128.54 395.21L124.57 389.79L118.94 384.32L117.50 380.14L113.11 377.91L106.30 376.94L102.36 373.72L93.08 351.85L88.53 350.99L87.71 341.90L79.61 343.46L75.08 344.33L71.00 346.54L67.16 352.78L63.46 358.78L54.46 373.38L51.90 377.54L48.31 380.34L43.99 385.09L39.30 389.13L33.93 396.93L31.51 400.44L20.94 405.50L17.13 413.25L20.41 419.73L14.65 430.23L19.12 433.53L16.50 442.60L14.98 450.23L20.82 460.43L29.57 464.42L36.30 464.93L40.43 465.23L54.61 462.51L70.82 460.70L76.32 464.32L78.38 478.46L85.73 482.48L90.82 484.66L99.64 490.95L106.47 495.80L110.85 498.93L117.62 502.71L125.81 507.94L127.04 515.24L128.95 526.49L130.96 538.43L134.24 546.71L141.94 549.77L147.89 557.90L155.86 575.11L155.92 581.88L150.45 584.85L144.54 588.06L138.36 595.56L132.17 605.40L129.65 609.41L125.38 616.95L121.51 623.38L117.55 629.99L112.42 635.70L109.92 642.06L108.25 648.40L104.43 654.60L99.64 662.38L95.25 670.47L94.74 678.93L94.06 690.21L90.02 703.75L91.39 712.94L92.10 728.55L105.04 733.45L115.85 736.64L126.53 739.26L125.90 728.94L127.23 722.02L131.46 715.46L135.88 706.72L142.94 699.68L145.34 696.35L151.23 689.75L160.47 682.79L172.61 671.31L179.29 663.01L185.53 663.47L196.10 666.29L213.63 674.86L221.05 677.95L221.07 672.13L220.58 666.68L221.63 658.45L223.40 649.17L223.31 643.11L222.44 634.65L232.17 634.39L250.64 635.30L271.17 639.97L275.57 636.24L279.08 627.18L273.00 619.37L269.39 613.29L257.48 590.83L254.11 581.29L251.97 573.03L249.25 560.01L242.92 553.40L236.81 552.75L236.20 548.30L234.25 539.76L226.72 539.89L230.08 534.70L240.72 522.80L253.13 507.08L259.07 498.64L263.89 489.65L268.22 480.38L270.97 475.64L281.31 462.22L286.27 452.75L291.84 446.37L304.52 439.72L311.01 434.91L318.97 425.92L323.67 419.62L320.93 412.01L319.78 404.15L316.35 401.16L311.06 390.51L310.01 386.54L309.55 382.05L305.04 375.53L304.50 370.02L306.90 359.03L295.08 342.56L292.00 338.43L285.42 341.32L281.75 339.78L278.71 336.12L264.34 324.75L261.72 321.30L259.90 317.06L255.91 312.45L240.84 310.58L235.37 321.54L232.60 324.47L224.92 335.50L218.41 331.07Z" data-ward="1" /><path id="ward-10" class="ward" d="M563.53 955.56L557.53 954.33L511.83 940.96L484.86 927.58L468.28 918.60L452.02 910.51L438.93 919.70L435.77 922.53L433.70 929.39L431.77 933.65L428.96 943.00L430.72 948.39L425.31 955.24L423.13 961.91L415.64 971.81L413.40 975.93L418.01 983.22L415.47 987.55L411.02 1000.56L412.44 1010.98L408.41 1016.26L403.56 1034.13L398.69 1048.01L392.94 1050.17L387.66 1047.40L383.68 1041.81L380.06 1039.62L378.52 1044.86L377.93 1049.35L377.84 1054.19L376.30 1059.77L373.02 1066.35L381.16 1068.78L385.64 1070.68L390.16 1072.99L393.91 1075.67L402.94 1085.42L408.15 1089.70L418.44 1099.32L427.20 1104.61L432.18 1108.26L436.94 1112.44L443.56 1112.71L447.15 1114.47L464.86 1121.39L470.69 1124.46L475.97 1126.50L485.07 1129.11L502.57 1131.58L508.51 1132.79L506.47 1137.00L502.18 1148.86L497.73 1162.56L496.30 1171.78L505.63 1170.31L510.65 1170.79L519.43 1170.71L521.93 1158.06L529.42 1157.59L536.96 1161.46L542.02 1160.10L550.56 1155.91L554.67 1154.63L567.04 1156.22L572.72 1155.77L573.23 1144.00L572.91 1139.62L576.52 1136.85L583.56 1137.95L590.98 1137.97L595.04 1135.36L596.99 1125.97L601.91 1125.17L607.17 1131.10L618.55 1135.80L629.34 1142.74L637.71 1146.24L644.52 1142.82L641.01 1125.62L641.11 1118.04L641.76 1111.88L646.99 1111.04L658.73 1113.61L665.09 1113.55L664.61 1102.08L665.95 1090.16L663.06 1080.27L665.95 1075.18L677.33 1066.85L681.34 1064.48L685.97 1062.81L708.11 1058.38L714.26 1059.67L744.23 1074.63L750.43 1079.85L754.24 1082.87L759.67 1086.50L770.34 1091.57L775.54 1092.78L784.46 1090.03L794.46 1088.15L802.03 1085.85L813.91 1079.34L822.98 1076.86L832.46 1075.94L829.18 1067.58L824.54 1057.42L818.14 1045.40L815.22 1034.49L806.20 1016.84L804.62 1008.10L805.08 1003.55L807.90 999.13L793.87 990.51L786.25 986.08L778.36 979.25L774.42 977.96L758.53 969.85L752.96 971.42L748.34 970.85L740.66 965.22L735.62 964.39L731.35 964.38L718.84 967.50L715.36 970.31L710.43 973.46L702.58 979.69L698.19 982.03L693.47 981.90L683.88 977.89L679.76 975.33L673.49 981.14L668.38 984.66L662.67 983.81L657.16 978.66L646.28 977.49L637.77 977.38L624.38 972.60L629.39 965.33L630.78 961.16L629.43 953.55L626.55 948.25L623.18 944.36L623.20 940.02L630.24 925.12L631.09 919.94L614.78 916.91L611.26 919.72L609.88 932.69L608.65 936.49L602.47 947.35L595.21 957.48L591.04 958.06L586.86 956.50L580.13 955.49L574.41 955.95L563.53 955.56Z" data-ward="10" /><path id="ward-7" class="ward" d="M309.71 535.63L303.43 534.80L294.86 531.83L295.29 522.72L294.44 514.92L277.75 513.02L272.63 511.88L267.05 511.21L262.18 510.27L253.13 507.08L240.72 522.80L230.08 534.70L226.72 539.89L234.25 539.76L236.20 548.30L236.81 552.75L242.92 553.40L249.25 560.01L251.97 573.03L254.11 581.29L257.48 590.83L269.39 613.29L273.00 619.37L279.08 627.18L286.34 630.37L296.27 631.67L301.67 632.20L311.68 631.99L332.96 635.71L345.11 634.80L354.46 635.66L357.56 638.29L361.05 643.65L364.59 647.00L367.01 651.29L368.55 665.15L371.52 681.97L374.39 690.34L383.60 704.44L388.27 708.10L396.91 716.17L404.42 719.00L408.63 719.65L414.25 719.72L414.30 745.23L413.94 757.20L413.33 763.55L415.46 776.32L415.97 780.82L413.94 798.42L413.75 810.44L422.00 808.77L429.25 812.22L439.31 809.61L447.59 808.18L452.11 807.88L458.82 808.81L469.69 811.72L475.01 813.72L484.62 818.68L488.96 819.99L491.21 814.48L493.00 808.70L493.63 804.15L492.04 796.69L491.01 788.50L490.97 782.67L496.33 773.68L499.25 767.96L541.66 777.70L557.41 784.96L564.99 789.79L569.92 790.75L581.29 795.63L585.45 790.33L582.72 782.54L586.58 770.89L587.69 766.33L587.16 759.50L582.25 753.02L584.60 745.84L583.63 740.12L583.12 728.62L585.36 719.17L583.90 707.60L580.44 705.27L576.95 696.64L574.13 693.82L569.99 693.14L565.75 691.09L563.32 686.87L563.82 682.79L559.08 674.96L557.32 669.16L559.32 665.27L562.66 661.71L567.22 662.68L576.77 662.32L594.56 664.44L601.49 667.58L605.66 670.69L609.75 674.71L614.83 676.51L619.17 675.18L623.55 673.17L636.49 669.54L643.60 667.09L648.00 664.88L648.98 651.95L647.40 626.10L645.42 603.72L649.96 589.31L652.34 561.90L642.60 564.14L636.09 564.93L630.78 564.67L626.61 561.70L624.47 558.25L619.40 547.70L608.44 533.58L584.06 543.16L569.42 544.89L565.45 544.42L558.22 540.09L553.87 539.31L548.95 539.65L538.69 539.01L533.93 539.20L529.25 540.06L524.72 541.56L504.03 549.47L500.02 549.57L487.42 548.63L475.80 548.33L460.09 549.86L452.44 550.61L430.00 548.33L417.36 544.77L409.01 539.87L405.27 538.46L397.78 536.61L379.93 534.11L355.46 533.69L332.38 533.83L313.93 535.70L309.71 535.63Z" data-ward="7" /><path id="ward-9" class="ward" d="M562.66 661.71L559.32 665.27L557.32 669.16L559.08 674.96L563.82 682.79L563.32 686.87L565.75 691.09L569.99 693.14L574.13 693.82L576.95 696.64L580.44 705.27L583.90 707.60L585.36 719.17L583.12 728.62L583.63 740.12L584.60 745.84L582.25 753.02L587.16 759.50L587.69 766.33L586.58 770.89L582.72 782.54L585.45 790.33L581.29 795.63L569.92 790.75L564.99 789.79L557.41 784.96L541.66 777.70L499.25 767.96L496.33 773.68L490.97 782.67L491.01 788.50L492.04 796.69L493.63 804.15L493.00 808.70L491.21 814.48L488.96 819.99L492.14 822.70L491.38 829.97L486.38 838.48L485.77 848.56L492.92 854.34L498.64 857.00L495.07 863.87L493.91 873.85L489.92 881.11L467.93 898.17L456.37 907.14L452.02 910.51L468.28 918.60L484.86 927.58L511.83 940.96L557.53 954.33L563.53 955.56L574.41 955.95L580.13 955.49L586.86 956.50L591.04 958.06L595.21 957.48L602.47 947.35L608.65 936.49L609.88 932.69L611.26 919.72L614.78 916.91L631.09 919.94L630.24 925.12L623.20 940.02L623.18 944.36L626.55 948.25L629.43 953.55L630.78 961.16L629.39 965.33L624.38 972.60L637.77 977.38L646.28 977.49L657.16 978.66L662.67 983.81L668.38 984.66L673.49 981.14L679.76 975.33L683.88 977.89L693.47 981.90L698.19 982.03L702.58 979.69L710.43 973.46L715.36 970.31L718.84 967.50L731.35 964.38L735.62 964.39L740.66 965.22L748.34 970.85L752.96 971.42L758.53 969.85L774.42 977.96L778.36 979.25L786.25 986.08L793.87 990.51L807.90 999.13L817.18 991.26L834.46 979.60L840.58 976.28L847.96 973.34L862.81 971.03L868.40 970.76L893.08 974.86L901.40 974.97L907.07 970.51L915.70 960.86L924.44 952.28L927.66 944.19L927.87 934.57L921.75 921.59L914.50 910.00L903.90 898.45L894.76 890.07L884.32 880.49L877.11 872.06L866.13 859.22L863.18 853.32L863.43 845.59L855.29 846.81L849.62 846.06L846.26 843.54L842.40 841.93L838.39 838.53L834.78 841.03L829.38 860.09L817.78 857.37L814.01 856.05L796.09 858.71L789.56 861.07L789.15 873.98L790.24 879.80L796.91 883.81L801.12 896.20L803.44 904.98L805.45 909.83L827.89 935.02L837.53 947.53L842.68 955.21L843.60 961.89L835.40 964.02L829.56 964.78L814.59 961.93L795.68 961.73L786.73 956.84L785.03 947.68L778.09 942.28L768.53 928.67L766.24 924.28L762.67 918.81L748.62 901.16L734.90 882.93L727.53 868.84L723.91 863.88L713.07 851.07L715.32 846.19L715.63 839.60L707.09 837.88L698.13 838.25L687.85 837.85L692.51 818.14L693.29 813.78L693.49 808.45L692.36 804.41L690.46 800.74L681.88 796.13L674.24 792.76L669.33 788.96L665.42 780.50L664.39 774.73L664.57 770.21L668.51 761.05L670.75 757.23L674.11 753.07L669.87 750.71L661.92 739.41L660.03 733.38L655.95 715.66L652.43 706.75L651.34 702.02L648.54 683.78L647.47 671.83L648.00 664.88L643.60 667.09L636.49 669.54L623.55 673.17L619.17 675.18L614.83 676.51L609.75 674.71L605.66 670.69L601.49 667.58L594.56 664.44L576.77 662.32L567.22 662.68L562.66 661.71Z" data-ward="9" /><path id="ward-8" class="ward" d="M705.15 596.85L703.84 592.20L699.04 581.24L690.16 569.02L681.87 558.62L677.74 557.87L664.39 559.72L657.93 560.68L652.34 561.90L649.96 589.31L645.42 603.72L647.40 626.10L648.98 651.95L648.00 664.88L647.47 671.83L648.54 683.78L651.34 702.02L652.43 706.75L655.95 715.66L660.03 733.38L661.92 739.41L669.87 750.71L674.11 753.07L670.75 757.23L668.51 761.05L664.57 770.21L664.39 774.73L665.42 780.50L669.33 788.96L674.24 792.76L681.88 796.13L690.46 800.74L692.36 804.41L693.49 808.45L693.29 813.78L692.51 818.14L687.85 837.85L698.13 838.25L707.09 837.88L715.63 839.60L715.32 846.19L713.07 851.07L723.91 863.88L727.53 868.84L734.90 882.93L748.62 901.16L762.67 918.81L766.24 924.28L768.53 928.67L778.09 942.28L785.03 947.68L786.73 956.84L795.68 961.73L814.59 961.93L829.56 964.78L835.40 964.02L843.60 961.89L842.68 955.21L837.53 947.53L827.89 935.02L805.45 909.83L803.44 904.98L801.12 896.20L796.91 883.81L790.24 879.80L789.15 873.98L789.56 861.07L796.09 858.71L814.01 856.05L817.78 857.37L829.38 860.09L834.78 841.03L838.39 838.53L842.40 841.93L846.26 843.54L849.62 846.06L855.29 846.81L863.43 845.59L866.74 841.63L882.73 827.39L888.27 822.46L901.92 809.13L907.32 803.35L916.15 790.95L920.16 783.35L920.75 777.04L918.63 772.50L914.49 768.08L905.93 763.89L898.94 762.29L881.70 760.69L869.83 756.39L858.25 750.21L845.32 740.45L836.79 732.81L827.01 729.46L814.67 724.48L803.37 718.82L797.42 710.28L796.23 706.12L797.78 692.20L800.52 684.76L815.69 674.36L820.77 670.88L829.52 667.46L835.81 665.21L842.11 664.80L850.26 664.27L852.94 657.99L857.45 644.44L863.89 631.41L858.43 626.54L849.22 621.31L839.47 614.51L824.56 606.80L805.18 598.19L796.28 594.65L788.57 611.84L784.97 614.89L769.05 609.87L758.99 607.56L754.87 603.94L755.17 593.53L754.52 589.56L750.21 579.88L745.35 584.91L726.74 595.23L714.35 601.09L704.47 601.87L705.15 596.85Z" data-ward="8" /><path id="ward-2" class="ward" d="M368.68 238.85L379.77 225.47L369.37 205.56L365.53 195.08L362.12 190.78L356.77 192.81L350.73 195.10L345.03 197.26L336.68 200.70L334.59 206.89L332.10 212.10L329.41 217.04L323.45 225.29L317.56 240.38L311.30 240.44L294.38 232.04L287.23 227.95L271.71 223.96L265.91 226.87L264.56 235.77L264.84 242.33L264.14 252.43L243.62 246.14L231.06 243.28L222.13 264.29L201.98 258.72L196.93 252.67L183.36 250.40L175.57 252.66L161.56 255.19L146.30 264.05L143.28 271.24L140.42 318.20L137.94 332.40L141.79 343.64L145.77 367.68L149.63 371.91L133.10 380.60L126.52 360.30L119.54 348.61L117.78 335.94L119.18 329.72L114.01 322.84L111.77 344.31L112.22 348.65L113.80 359.58L114.84 366.78L113.11 377.91L117.50 380.14L118.94 384.32L124.57 389.79L128.54 395.21L143.38 388.59L152.20 386.18L156.28 385.91L163.98 384.13L177.04 378.52L177.60 374.40L173.08 366.85L162.02 359.52L160.01 354.80L159.48 349.52L165.14 343.86L165.77 330.61L166.94 320.45L166.60 311.91L163.78 301.31L170.62 298.44L175.45 300.68L179.10 303.15L182.83 304.99L183.25 311.94L188.20 316.24L195.10 320.21L202.82 325.44L218.41 331.07L224.92 335.50L232.60 324.47L235.37 321.54L240.84 310.58L255.91 312.45L259.90 317.06L261.72 321.30L264.34 324.75L278.71 336.12L281.75 339.78L285.42 341.32L292.00 338.43L295.08 342.56L306.90 359.03L304.50 370.02L305.04 375.53L309.55 382.05L310.01 386.54L311.06 390.51L316.35 401.16L319.78 404.15L320.93 412.01L323.67 419.62L318.97 425.92L311.01 434.91L304.52 439.72L291.84 446.37L286.27 452.75L281.31 462.22L270.97 475.64L268.22 480.38L263.89 489.65L259.07 498.64L253.13 507.08L262.18 510.27L267.05 511.21L272.63 511.88L277.75 513.02L294.44 514.92L295.29 522.72L294.86 531.83L303.43 534.80L309.71 535.63L313.93 535.70L332.38 533.83L355.46 533.69L379.93 534.11L397.78 536.61L405.27 538.46L409.01 539.87L417.36 544.77L430.00 548.33L452.44 550.61L460.09 549.86L460.74 539.26L460.32 529.63L452.66 519.04L448.18 514.91L438.52 513.12L434.93 507.93L436.32 504.12L439.66 497.59L445.09 489.61L447.66 482.11L448.91 476.82L453.30 475.72L455.00 470.94L459.23 461.51L462.84 459.38L466.22 445.29L468.70 440.50L469.32 430.94L467.06 426.27L465.61 418.70L470.36 417.64L474.34 411.09L467.89 406.39L453.31 402.87L440.65 403.31L432.69 402.41L427.06 401.00L422.34 395.66L424.59 392.00L426.54 386.80L429.05 375.40L432.00 365.59L435.91 353.36L440.09 343.94L438.66 333.82L438.65 328.82L444.60 322.77L451.56 314.53L455.01 309.55L457.46 305.48L462.34 295.30L467.22 283.41L468.72 268.63L468.83 255.64L465.88 245.17L450.79 247.38L446.63 247.63L441.59 249.05L432.19 266.29L429.92 269.75L425.48 268.73L421.47 267.05L415.26 270.16L411.37 273.88L405.46 273.33L400.25 273.71L399.02 277.53L392.29 289.93L388.89 297.26L383.45 305.80L380.34 303.07L378.25 298.98L374.31 297.38L369.86 296.14L356.93 296.08L358.44 289.02L358.75 281.88L357.93 277.10L358.57 269.73L358.55 263.30L359.11 258.74L360.31 254.62L368.68 238.85Z" data-ward="2" /><path id="ward-3" class="ward" d="M685.66 31.18L684.19 27.32L666.47 21.23L638.23 14.93L611.68 6.00L604.88 3.71L598.94 1.72L582.08 0.00L577.18 2.61L569.75 6.56L558.84 22.72L553.24 22.77L536.57 25.26L530.00 26.50L525.33 27.39L519.23 28.09L498.39 40.42L492.33 34.69L485.15 33.07L478.01 50.71L476.09 58.90L471.58 78.17L469.58 105.16L466.51 112.46L461.75 114.04L454.45 112.47L444.76 110.40L439.73 123.89L424.67 164.34L420.37 164.68L408.09 166.83L401.51 169.23L390.18 175.15L373.20 179.17L366.71 180.71L359.46 180.28L362.12 190.78L365.53 195.08L369.37 205.56L379.77 225.47L368.68 238.85L360.31 254.62L359.11 258.74L358.55 263.30L358.57 269.73L357.93 277.10L358.75 281.88L358.44 289.02L356.93 296.08L369.86 296.14L374.31 297.38L378.25 298.98L380.34 303.07L383.45 305.80L388.89 297.26L392.29 289.93L399.02 277.53L400.25 273.71L405.46 273.33L411.37 273.88L415.26 270.16L421.47 267.05L425.48 268.73L429.92 269.75L432.19 266.29L441.59 249.05L446.63 247.63L450.79 247.38L465.88 245.17L468.83 255.64L468.72 268.63L467.22 283.41L462.34 295.30L457.46 305.48L455.01 309.55L451.56 314.53L444.60 322.77L438.65 328.82L443.96 329.66L448.95 331.21L453.51 333.96L457.35 340.92L462.20 347.50L463.54 351.77L466.14 354.96L466.13 362.49L468.98 374.24L487.25 376.34L498.14 377.08L500.04 372.50L517.77 366.79L523.10 365.44L535.25 367.00L540.12 368.27L547.62 369.02L547.34 364.47L547.55 355.34L546.02 351.55L536.04 336.02L535.72 331.88L536.07 320.82L537.90 315.33L552.71 318.70L557.31 326.88L563.22 329.22L573.56 331.52L581.44 331.96L590.88 333.86L597.67 333.85L602.25 326.68L604.51 322.62L606.15 318.72L606.98 313.27L606.62 304.91L603.73 289.34L601.92 279.57L599.51 267.61L598.50 262.81L605.63 259.76L609.76 258.29L629.10 251.07L625.17 243.67L622.58 239.88L619.91 233.60L617.14 228.64L612.78 227.34L612.66 221.63L616.77 213.68L628.27 198.14L630.59 194.42L632.51 186.29L638.03 185.61L642.90 186.26L646.38 182.84L653.00 158.25L658.08 159.72L663.12 162.48L672.18 166.87L676.33 161.84L684.46 138.26L683.95 132.54L685.34 120.51L688.39 106.23L691.84 95.87L693.88 84.56L694.21 78.68L693.57 66.04L695.83 58.65L693.82 44.75L682.40 46.28L681.31 41.87L685.66 31.18Z" data-ward="3" /><path id="ward-6" class="ward" d="M763.13 236.55L762.32 231.90L759.70 228.43L755.37 225.87L750.67 224.94L741.86 224.43L738.32 222.49L731.60 221.79L725.84 227.92L721.64 244.70L700.38 244.10L691.56 243.02L686.56 241.61L681.08 242.47L667.98 246.51L659.12 247.97L654.23 249.28L634.62 258.21L630.78 255.28L629.10 251.07L609.76 258.29L605.63 259.76L598.50 262.81L599.51 267.61L601.92 279.57L603.73 289.34L606.62 304.91L606.98 313.27L606.15 318.72L604.51 322.62L602.25 326.68L597.67 333.85L590.88 333.86L581.44 331.96L573.56 331.52L563.22 329.22L557.31 326.88L552.71 318.70L537.90 315.33L536.07 320.82L535.72 331.88L536.04 336.02L546.02 351.55L547.55 355.34L547.34 364.47L547.62 369.02L540.12 368.27L535.25 367.00L523.10 365.44L517.77 366.79L500.04 372.50L498.14 377.08L487.25 376.34L468.98 374.24L466.13 362.49L466.14 354.96L463.54 351.77L462.20 347.50L457.35 340.92L453.51 333.96L448.95 331.21L443.96 329.66L438.65 328.82L438.66 333.82L440.09 343.94L435.91 353.36L432.00 365.59L429.05 375.40L426.54 386.80L424.59 392.00L422.34 395.66L427.06 401.00L432.69 402.41L440.65 403.31L453.31 402.87L467.89 406.39L474.34 411.09L470.36 417.64L465.61 418.70L467.06 426.27L469.32 430.94L468.70 440.50L466.22 445.29L462.84 459.38L459.23 461.51L455.00 470.94L453.30 475.72L448.91 476.82L447.66 482.11L445.09 489.61L439.66 497.59L436.32 504.12L434.93 507.93L438.52 513.12L448.18 514.91L452.66 519.04L460.32 529.63L460.74 539.26L460.09 549.86L475.80 548.33L487.42 548.63L500.02 549.57L504.03 549.47L524.72 541.56L529.25 540.06L533.93 539.20L538.69 539.01L548.95 539.65L553.87 539.31L558.22 540.09L565.45 544.42L569.42 544.89L584.06 543.16L608.44 533.58L619.40 547.70L624.47 558.25L626.61 561.70L630.78 564.67L636.09 564.93L642.60 564.14L652.34 561.90L657.93 560.68L664.39 559.72L677.74 557.87L676.95 546.79L675.26 540.73L671.70 533.88L670.52 513.08L684.99 510.21L704.10 507.97L723.97 509.11L728.76 507.09L729.56 502.76L732.13 484.50L739.27 466.93L742.19 462.30L743.62 446.64L745.88 442.87L761.90 408.00L766.77 398.71L768.17 391.83L769.02 376.78L767.99 367.39L761.95 351.24L762.34 343.27L765.14 335.90L766.62 322.01L771.58 293.18L773.61 281.42L774.52 276.86L769.09 273.03L765.02 264.77L765.08 258.38L763.13 236.55Z" data-ward="6" /><path id="ward-5" class="ward" d="M831.19 318.67L833.22 309.39L829.98 306.95L825.88 305.55L821.20 305.28L814.85 303.95L794.30 303.08L792.31 299.46L792.89 294.93L792.49 286.99L787.24 283.86L773.61 281.42L771.58 293.18L766.62 322.01L765.14 335.90L762.34 343.27L761.95 351.24L767.99 367.39L769.02 376.78L768.17 391.83L766.77 398.71L761.90 408.00L745.88 442.87L743.62 446.64L742.19 462.30L739.27 466.93L732.13 484.50L729.56 502.76L728.76 507.09L723.97 509.11L704.10 507.97L684.99 510.21L670.52 513.08L671.70 533.88L675.26 540.73L676.95 546.79L677.74 557.87L681.87 558.62L690.16 569.02L699.04 581.24L703.84 592.20L705.15 596.85L704.47 601.87L714.35 601.09L726.74 595.23L745.35 584.91L750.21 579.88L754.52 589.56L755.17 593.53L754.87 603.94L758.99 607.56L769.05 609.87L784.97 614.89L788.57 611.84L796.28 594.65L805.18 598.19L824.56 606.80L839.47 614.51L849.22 621.31L858.43 626.54L863.89 631.41L857.45 644.44L852.94 657.99L850.26 664.27L860.63 665.87L867.68 669.81L876.46 671.67L887.20 673.94L894.28 671.50L897.15 665.56L898.19 660.25L899.00 656.11L899.83 644.98L900.10 630.42L896.54 624.01L891.55 618.72L877.51 613.03L866.76 610.26L854.77 606.08L845.94 601.60L841.51 596.29L838.50 587.30L834.86 567.09L833.77 557.93L833.60 553.83L833.32 544.45L833.11 537.55L834.35 519.07L835.91 514.48L839.84 509.44L847.16 504.06L858.03 496.08L868.44 488.44L876.52 482.50L884.10 477.10L905.36 463.54L914.52 456.50L919.86 450.43L923.29 444.66L926.49 435.60L928.14 430.93L932.52 418.52L936.08 408.82L937.92 400.35L942.54 379.20L944.51 373.76L939.04 372.58L931.85 366.40L929.03 362.19L926.84 357.66L920.28 353.30L916.26 351.39L913.16 347.59L911.15 344.10L904.33 339.22L900.31 342.96L896.69 355.65L894.63 360.24L874.21 352.17L867.21 345.98L862.59 343.85L853.07 340.95L845.72 339.48L844.74 335.21L843.78 327.12L838.08 323.23L833.27 323.24L831.19 318.67Z" data-ward="5" /></svg>