<svg viewBox="0 0 1000.00 788.53" xmlns="http://www.w3.org/2000/svg"><style>.ward { fill: #e2e8f0; stroke: #fff; stroke-width: 0.5px; } .ward:hover { fill: #cbd5e1; }</style><path id="ward-14" class="ward" d="M387.39 156.49L375.76 166.38L373.99 167.90L367.80 173.38L366.32 174.86L360.85 180.30L351.79 184.55L333.05 189.20L323.26 188.20L319.97 189.83L322.99 197.60L325.58 199.74L325.34 204.36L324.97 211.39L327.15 211.59L331.01 212.73L334.46 214.25L336.91 215.34L342.91 225.04L340.23 228.65L340.46 242.35L341.23 250.33L341.18 253.96L341.06 262.43L345.39 275.79L349.73 283.32L354.09 292.24L361.36 297.22L365.56 297.26L368.94 300.74L377.85 304.73L387.23 312.11L396.65 322.35L398.27 326.20L399.80 329.04L404.04 326.45L406.28 326.00L408.27 326.26L421.69 335.00L423.52 336.44L427.75 338.58L430.29 340.61L430.90 345.28L433.05 344.00L435.38 343.15L442.33 340.59L441.45 336.08L440.23 333.13L437.38 328.81L439.17 327.41L443.17 325.44L446.47 324.13L448.75 323.91L449.85 321.54L451.00 318.13L453.14 314.78L453.80 312.71L454.79 309.63L456.59 300.82L456.92 297.01L458.97 295.68L457.12 289.45L456.39 287.00L451.49 277.55L452.81 271.60L456.08 264.26L458.20 257.87L458.21 252.13L459.12 247.56L457.07 232.53L465.97 227.67L463.63 220.86L445.20 198.67L441.12 189.46L431.23 200.16L429.04 194.46L427.04 194.89L425.72 198.34L421.91 198.45L419.25 199.55L413.58 197.73L413.64 195.45L412.41 188.02L410.72 186.88L407.19 185.24L400.21 183.33L397.50 169.74L396.74 167.97L392.68 168.43L387.39 156.49Z" data-ward="14" /><path id="ward-8" class="ward" d="M928.33 540.68L928.95 538.01L932.16 531.70L941.06 523.60L939.50 516.31L938.41 511.25L938.54 507.98L938.64 505.64L939.40 500.20L939.82 497.99L938.74 494.69L937.43 490.69L937.23 488.11L929.88 485.80L921.01 485.80L925.79 495.71L930.46 505.36L927.88 516.20L927.30 518.67L922.94 525.57L920.49 529.45L916.32 533.43L910.71 536.79L902.02 542.73L894.94 543.97L872.49 542.12L851.23 540.38L845.63 540.10L839.20 540.83L838.08 544.12L834.93 544.48L832.39 544.76L828.78 545.44L822.15 544.96L818.67 545.32L816.45 544.68L814.09 545.09L812.35 538.98L811.83 522.04L808.77 519.86L802.58 517.80L799.70 516.66L795.92 514.62L790.85 513.29L786.51 509.50L783.38 514.33L778.58 515.63L776.58 515.46L774.53 515.28L772.17 514.77L764.11 513.01L757.61 512.40L750.12 510.32L746.50 518.98L742.21 527.21L734.16 540.01L732.18 544.36L730.19 548.75L728.24 553.03L727.25 556.70L729.23 561.38L728.48 563.48L727.94 566.20L726.82 569.68L724.53 574.63L723.45 578.62L711.37 580.52L710.83 584.68L711.06 587.61L711.83 592.08L718.90 590.63L720.39 593.02L712.65 596.62L704.09 600.02L699.97 602.42L697.88 603.39L695.66 603.61L694.51 608.33L696.64 611.49L694.94 613.29L695.03 615.97L698.52 623.98L702.03 627.80L704.37 635.58L707.34 634.92L709.64 633.87L712.16 634.94L717.41 637.17L726.36 633.88L732.81 633.00L733.78 635.70L734.50 637.71L737.47 633.18L743.49 626.27L745.92 627.59L748.43 629.44L751.27 633.75L756.26 640.64L758.61 641.78L762.31 639.00L765.40 640.35L768.72 639.81L782.63 628.15L792.11 624.79L794.03 629.07L793.83 631.68L797.36 638.86L804.48 636.64L818.70 637.84L820.24 633.18L822.33 632.10L826.05 635.02L833.30 639.80L838.72 641.40L843.03 641.55L845.80 638.30L853.66 641.22L855.64 643.53L856.05 645.47L854.24 649.83L859.82 656.95L859.88 669.00L859.85 671.57L864.55 674.21L868.60 674.80L874.30 677.19L880.35 673.32L880.78 675.31L886.30 673.10L889.72 670.68L893.89 668.38L895.72 667.83L897.70 667.93L897.77 665.10L897.66 663.13L897.54 661.04L906.48 657.50L912.06 655.83L928.16 652.03L932.23 650.82L938.19 650.16L939.03 647.00L940.08 643.02L939.70 640.04L940.83 636.63L941.98 633.85L944.88 632.35L950.46 627.59L954.53 623.52L959.11 619.86L963.96 617.06L965.81 612.47L961.21 610.19L960.88 604.31L957.93 604.13L951.63 596.79L944.59 590.04L943.54 587.23L943.10 585.33L944.42 582.84L944.11 580.56L944.93 577.75L944.16 567.12L941.43 565.00L938.27 557.93L940.00 556.55L938.91 551.88L936.35 551.34L934.60 548.13L928.67 544.40L928.33 540.68Z" data-ward="8" /><path id="ward-7" class="ward" d="M823.77 329.52L819.30 326.40L812.82 321.86L810.34 320.13L807.84 318.38L805.30 316.60L803.56 315.39L801.34 313.84L797.49 316.41L794.39 318.47L791.20 320.11L788.94 321.23L786.29 321.86L784.13 322.38L782.88 324.75L783.38 327.47L785.92 330.91L791.70 335.58L793.58 336.45L794.25 339.76L794.08 348.05L793.88 350.07L793.42 353.89L792.34 357.39L792.75 359.30L801.37 360.01L806.45 361.41L808.98 365.99L813.00 373.25L811.94 378.54L800.10 379.09L783.72 383.65L772.77 386.38L766.35 389.24L761.08 390.79L752.91 392.42L747.91 391.95L732.49 394.47L730.16 398.13L727.54 413.67L723.87 419.59L721.26 424.30L722.59 426.10L724.31 428.42L728.43 431.37L730.22 432.66L733.89 433.31L736.05 437.42L743.05 437.14L748.71 432.57L752.33 431.06L759.29 431.73L758.90 435.12L767.20 437.36L769.29 438.99L778.18 436.58L781.23 435.75L783.79 438.35L785.57 440.17L786.43 445.64L780.25 448.83L778.83 450.07L778.46 453.30L778.85 459.03L779.79 464.41L779.09 466.84L778.05 470.48L773.62 471.90L771.42 477.50L767.64 482.86L763.60 487.36L756.55 493.99L752.70 503.78L751.43 507.00L750.12 510.32L757.61 512.40L764.11 513.01L772.17 514.77L774.53 515.28L776.58 515.46L778.58 515.63L783.38 514.33L786.51 509.50L790.85 513.29L795.92 514.62L799.70 516.66L802.58 517.80L808.77 519.86L811.83 522.04L812.35 538.98L814.09 545.09L816.45 544.68L818.67 545.32L822.15 544.96L828.78 545.44L832.39 544.76L834.93 544.48L838.08 544.12L839.20 540.83L845.63 540.10L851.23 540.38L872.49 542.12L894.94 543.97L902.02 542.73L910.71 536.79L916.32 533.43L920.49 529.45L922.94 525.57L927.30 518.67L927.88 516.20L930.46 505.36L925.79 495.71L921.01 485.80L917.75 485.32L901.90 482.98L900.02 481.43L897.81 479.63L895.97 477.55L895.15 475.19L894.68 472.54L893.98 468.59L895.33 465.53L897.78 459.99L901.90 457.99L903.67 457.13L906.97 453.78L906.01 451.80L904.28 450.24L899.54 443.85L896.16 440.28L894.77 438.80L893.52 432.68L892.65 428.42L892.06 425.51L891.09 420.72L892.99 416.37L895.20 411.34L897.30 406.53L898.22 404.45L899.22 402.16L901.89 396.08L906.20 393.95L908.11 393.86L912.11 393.68L915.02 393.55L922.73 392.49L926.77 391.94L928.36 389.49L927.39 385.95L920.97 381.54L915.43 380.60L907.76 381.70L902.29 381.62L899.00 382.41L885.93 382.55L876.76 380.05L872.42 378.46L868.55 374.20L864.80 370.09L862.87 364.87L860.71 359.02L859.81 356.59L858.61 353.33L854.12 353.47L850.74 345.34L850.22 341.37L849.59 336.52L855.29 336.90L854.38 334.85L854.65 331.80L827.47 332.11L823.77 329.52Z" data-ward="7" /><path id="ward-17" class="ward" d="M189.36 197.92L179.62 189.51L172.19 184.09L166.18 190.84L165.57 195.40L164.84 200.84L154.78 200.51L154.76 195.73L148.15 193.72L144.19 192.81L140.73 193.02L138.86 193.51L136.69 194.08L137.24 198.87L137.46 204.50L135.45 205.19L131.59 204.82L126.64 204.35L126.10 207.61L126.78 209.65L128.27 211.86L131.92 217.29L134.46 220.86L137.26 223.45L144.07 228.93L146.52 230.75L153.79 236.13L156.42 236.73L159.16 237.36L159.47 251.59L159.74 254.22L160.24 259.13L160.78 264.42L156.08 262.32L153.07 265.19L151.79 266.71L149.66 267.08L146.27 265.54L141.72 264.22L137.23 264.00L133.30 262.83L124.30 261.01L121.69 273.96L120.00 279.96L118.86 283.45L117.57 284.93L114.74 288.17L111.38 295.41L110.21 297.94L109.08 300.39L108.47 302.24L107.52 303.95L104.46 309.45L99.86 318.42L96.15 325.66L95.53 328.44L94.40 331.18L96.28 334.20L102.97 334.43L107.51 334.58L109.81 338.21L111.63 341.06L112.38 342.92L113.62 346.78L113.99 349.44L114.19 355.75L113.91 359.46L113.43 365.81L114.33 368.30L105.46 376.24L100.62 378.70L96.51 380.78L92.02 387.03L91.40 389.72L90.88 391.97L96.73 393.37L97.06 396.18L97.42 399.17L99.84 400.48L100.81 402.35L101.42 404.58L103.23 406.02L104.68 407.64L106.31 408.91L108.91 412.55L111.32 415.96L111.99 416.86L114.27 415.26L119.69 411.48L126.44 406.76L129.98 404.52L132.67 400.55L138.67 392.44L142.19 391.17L142.72 387.12L141.08 380.76L140.85 378.51L141.19 374.47L143.80 370.62L145.73 369.39L151.06 368.36L153.95 368.96L154.30 371.58L156.83 369.49L160.91 364.17L162.38 361.14L163.56 357.61L166.54 353.18L170.63 351.07L172.79 349.43L175.05 349.58L179.37 349.09L183.57 348.61L190.28 347.85L193.91 348.26L196.74 346.78L201.83 346.60L198.12 339.73L196.33 334.32L200.87 309.52L205.40 286.94L208.65 270.79L212.15 255.84L211.72 243.52L209.73 231.86L206.27 221.73L203.80 217.36L198.85 211.07L198.60 209.10L197.94 207.28L195.92 207.49L189.36 197.92Z" data-ward="17" /><path id="ward-6" class="ward" d="M737.27 187.65L734.22 186.69L731.05 186.65L727.74 184.97L722.13 181.36L719.70 178.40L718.38 174.29L716.93 170.12L715.79 161.94L716.04 157.08L715.01 146.26L715.17 143.26L713.80 141.43L711.70 141.03L702.88 162.51L709.12 185.87L721.19 203.93L727.92 214.00L717.98 216.80L687.84 226.98L687.02 257.74L696.63 255.82L695.47 263.39L696.88 264.74L696.11 268.17L675.93 275.43L674.01 277.99L674.72 281.31L674.43 288.35L664.23 291.79L655.08 296.08L654.60 297.99L658.48 304.24L648.63 309.86L648.00 312.83L649.64 313.93L668.36 314.72L669.51 326.09L675.38 329.63L682.12 332.17L688.01 331.32L686.83 339.27L688.21 340.84L689.10 346.02L689.42 347.90L691.49 359.95L703.12 357.86L709.23 357.79L711.26 356.48L710.60 353.32L713.02 352.49L716.43 351.32L728.52 347.18L730.35 346.28L737.82 342.43L748.06 334.32L750.89 327.44L752.54 324.25L760.71 309.75L765.24 308.18L779.05 304.13L787.16 309.96L798.14 311.38L801.34 313.84L803.56 315.39L805.30 316.60L807.84 318.38L810.34 320.13L812.82 321.86L819.30 326.40L823.77 329.52L827.47 332.11L854.65 331.80L854.92 328.76L855.58 326.49L858.10 319.97L860.59 312.58L861.25 309.41L862.37 306.43L863.92 303.94L866.79 303.53L870.10 300.97L871.82 299.65L874.90 291.07L877.38 286.85L879.61 281.95L879.05 278.99L877.57 277.07L877.63 275.02L874.97 274.52L870.99 274.35L864.15 274.05L861.66 274.15L858.64 276.27L855.89 278.19L846.78 284.57L844.90 285.89L839.59 287.57L837.69 287.86L833.23 288.85L829.25 290.26L823.95 286.98L819.03 285.04L816.14 284.87L815.87 278.81L813.02 278.63L807.79 277.95L802.94 276.36L802.21 272.52L798.98 272.01L794.78 270.10L789.91 268.93L784.42 267.25L780.64 267.21L773.30 258.35L781.61 255.10L788.91 254.80L790.23 248.75L791.96 245.73L792.72 242.26L792.65 235.34L788.08 226.18L786.97 223.03L786.12 219.81L789.52 219.44L794.73 217.65L791.83 211.22L791.86 209.18L794.31 208.67L796.25 207.89L799.33 207.48L808.23 204.67L818.07 204.45L819.76 203.31L818.07 200.16L812.86 190.47L810.69 186.90L813.06 185.81L819.15 184.02L820.27 185.95L825.76 184.81L829.13 183.38L838.49 175.49L840.38 176.10L844.77 170.83L846.66 172.58L852.08 174.64L855.74 174.56L859.52 170.70L859.91 157.93L866.69 158.32L871.33 157.78L871.81 154.22L870.39 145.50L863.12 145.24L857.06 145.48L853.40 144.20L850.81 148.27L844.49 148.80L839.65 149.20L836.21 149.48L831.96 147.96L827.48 145.83L825.07 147.86L822.38 151.77L819.38 155.03L815.92 158.06L810.30 158.82L807.54 158.37L803.50 157.25L800.74 158.14L798.12 158.17L795.09 158.97L792.79 158.86L790.39 159.61L783.83 162.50L784.65 164.63L781.79 166.32L782.05 168.53L780.05 172.09L777.47 175.08L776.43 177.35L772.91 178.40L771.12 179.96L765.18 184.08L760.26 184.06L755.13 186.88L746.53 188.78L741.75 189.06L737.27 187.65Z" data-ward="6" /><path id="ward-12" class="ward" d="M649.79 213.25L647.38 213.03L644.19 212.75L636.44 219.41L632.21 219.89L627.23 218.54L613.96 219.54L606.53 217.62L597.05 217.89L588.62 220.00L580.47 220.36L570.95 219.87L569.95 221.92L568.60 224.67L568.56 229.48L566.47 233.43L563.86 237.01L560.93 247.45L555.71 250.23L552.92 253.23L551.27 257.38L548.52 266.87L547.92 268.93L548.66 273.16L547.91 276.57L549.83 276.57L551.25 279.98L553.90 280.12L559.55 278.90L564.61 279.23L567.04 278.77L564.21 270.11L569.62 267.21L569.82 263.72L572.62 262.79L574.90 264.75L577.84 265.39L583.45 259.71L586.49 257.54L594.72 252.30L596.48 257.26L595.54 260.14L596.42 262.90L599.69 268.37L602.82 279.34L603.10 284.40L610.64 282.22L611.37 284.77L611.88 288.17L612.41 290.18L613.61 291.81L613.49 301.92L610.03 308.68L606.72 312.02L611.88 312.25L613.24 314.96L613.94 321.21L613.79 323.53L613.24 327.37L612.21 330.18L611.58 334.83L613.66 335.69L614.20 339.32L613.43 341.69L610.96 341.16L606.36 341.55L596.74 343.05L597.24 345.28L600.84 348.62L600.89 352.91L600.57 356.34L603.98 357.32L610.84 363.00L609.36 366.31L609.92 370.34L605.05 374.19L602.76 375.54L602.86 378.44L602.47 383.81L603.53 388.49L605.40 392.73L603.03 401.40L600.52 401.26L598.74 402.70L601.15 407.05L602.73 409.92L606.62 413.21L607.34 418.45L607.33 431.15L610.01 435.85L611.19 439.01L619.10 437.35L626.06 435.55L633.75 432.04L639.98 428.59L644.09 426.64L649.66 424.58L656.35 424.88L669.59 426.02L669.62 419.20L666.32 412.91L656.23 403.44L651.51 395.15L647.18 387.02L644.05 378.96L641.58 373.93L637.96 365.21L634.51 356.01L632.63 348.03L631.00 345.78L635.81 339.66L637.84 337.63L642.23 335.21L644.31 334.80L644.68 327.06L645.38 319.45L648.94 318.61L649.64 313.93L648.00 312.83L648.63 309.86L658.48 304.24L654.60 297.99L655.08 296.08L664.23 291.79L674.43 288.35L674.72 281.31L674.01 277.99L675.93 275.43L696.11 268.17L696.88 264.74L695.47 263.39L696.63 255.82L687.02 257.74L687.84 226.98L659.64 249.04L644.70 230.81L649.79 213.25Z" data-ward="12" /><path id="ward-10" class="ward" d="M733.89 433.31L730.22 432.66L728.43 431.37L724.31 428.42L722.59 426.10L721.26 424.30L718.47 425.33L713.82 427.82L708.07 429.69L704.56 431.70L701.05 433.22L696.48 433.62L691.33 432.71L679.37 429.74L670.73 427.68L670.62 432.70L664.86 432.69L660.71 434.07L661.57 439.13L661.17 450.72L660.93 452.91L656.93 455.16L651.71 458.64L640.61 463.44L635.28 465.75L630.64 466.38L627.94 465.71L622.66 464.98L618.40 464.05L615.60 465.91L615.18 468.30L615.56 470.49L617.08 475.67L619.36 475.75L622.73 480.68L631.60 492.19L633.82 498.40L634.63 502.84L636.78 514.60L637.39 520.10L633.57 526.36L631.79 530.98L630.70 537.97L629.70 540.44L631.30 542.02L636.26 550.15L639.22 553.57L643.80 557.28L653.59 565.21L656.66 563.65L658.75 564.50L666.92 572.09L670.48 574.74L671.98 576.13L673.16 579.90L675.02 581.97L677.09 583.58L679.23 584.37L681.98 584.65L684.16 586.00L685.61 587.82L688.54 591.52L686.70 593.41L687.81 595.17L692.60 599.00L695.66 603.61L697.88 603.39L699.97 602.42L704.09 600.02L712.65 596.62L720.39 593.02L718.90 590.63L711.83 592.08L711.06 587.61L710.83 584.68L711.37 580.52L723.45 578.62L724.53 574.63L726.82 569.68L727.94 566.20L728.48 563.48L729.23 561.38L727.25 556.70L728.24 553.03L730.19 548.75L732.18 544.36L734.16 540.01L742.21 527.21L746.50 518.98L750.12 510.32L751.43 507.00L752.70 503.78L756.55 493.99L763.60 487.36L767.64 482.86L771.42 477.50L773.62 471.90L778.05 470.48L779.09 466.84L779.79 464.41L778.85 459.03L778.46 453.30L778.83 450.07L780.25 448.83L786.43 445.64L785.57 440.17L783.79 438.35L781.23 435.75L778.18 436.58L769.29 438.99L767.20 437.36L758.90 435.12L759.29 431.73L752.33 431.06L748.71 432.57L743.05 437.14L736.05 437.42L733.89 433.31Z" data-ward="10" /><path id="ward-18" class="ward" d="M51.65 282.90L48.74 282.50L37.61 280.97L36.48 277.37L32.02 275.53L31.72 273.38L30.91 267.58L27.31 261.89L21.41 261.36L20.24 257.57L19.80 245.00L18.33 238.35L16.28 237.01L12.37 239.23L13.33 242.01L13.36 244.14L6.37 248.92L0.59 254.69L0.00 257.51L0.89 262.34L2.48 265.52L4.23 270.63L4.96 272.65L7.50 276.16L9.75 280.68L10.79 282.77L14.66 284.19L19.69 285.03L24.85 284.00L34.23 283.28L36.87 288.21L39.64 292.80L34.70 295.12L30.20 296.20L25.36 297.30L22.40 296.30L19.85 294.46L18.13 296.33L15.87 299.38L15.14 306.38L13.15 308.28L13.46 310.84L13.85 314.01L14.76 316.36L14.79 319.60L16.38 322.92L19.12 328.64L24.67 334.19L27.13 335.87L29.92 334.61L31.50 336.83L35.96 340.67L37.01 343.22L41.25 345.17L43.98 346.42L46.35 345.17L47.61 343.29L51.86 345.57L55.75 348.69L54.31 353.97L54.26 358.00L54.92 360.33L55.56 362.60L57.64 365.74L60.80 367.56L66.08 368.77L68.61 368.94L70.55 370.08L73.38 371.73L74.58 375.35L72.87 376.36L72.05 382.29L71.53 384.14L72.43 388.94L76.77 388.90L83.46 391.45L86.63 390.59L89.36 390.09L91.40 389.72L92.02 387.03L96.51 380.78L100.62 378.70L105.46 376.24L114.33 368.30L113.43 365.81L113.91 359.46L114.19 355.75L113.99 349.44L113.62 346.78L112.38 342.92L111.63 341.06L109.81 338.21L107.51 334.58L102.97 334.43L96.28 334.20L94.40 331.18L95.53 328.44L96.15 325.66L99.86 318.42L104.46 309.45L107.52 303.95L108.47 302.24L109.08 300.39L110.21 297.94L111.38 295.41L114.74 288.17L112.01 288.82L109.77 288.35L103.95 286.25L103.02 284.45L101.73 282.90L100.28 280.49L96.64 278.37L91.90 279.39L89.44 280.62L87.71 284.19L81.87 285.93L72.43 287.83L67.03 286.62L63.04 287.81L59.44 289.48L58.90 284.64L54.66 283.62L51.65 282.90Z" data-ward="18" /><path id="ward-1" class="ward" d="M91.43 140.63L88.76 141.16L86.83 140.69L84.46 140.81L81.00 140.87L73.93 141.47L70.58 141.42L66.83 141.15L62.42 140.84L66.50 146.43L66.99 151.39L67.22 153.72L64.82 155.50L61.58 157.91L60.20 160.10L62.02 160.97L62.76 163.47L66.68 169.48L67.42 173.06L68.18 176.74L65.82 182.50L65.49 188.33L62.34 189.71L59.31 197.97L54.25 203.09L47.05 212.17L44.58 212.57L42.76 213.63L34.75 221.29L35.24 223.81L32.15 225.34L31.69 229.03L21.81 232.04L19.08 230.80L16.06 232.03L16.28 237.01L18.33 238.35L19.80 245.00L20.24 257.57L21.41 261.36L27.31 261.89L30.91 267.58L31.72 273.38L32.02 275.53L36.48 277.37L37.61 280.97L48.74 282.50L51.65 282.90L54.66 283.62L58.90 284.64L59.44 289.48L63.04 287.81L67.03 286.62L72.43 287.83L81.87 285.93L87.71 284.19L89.44 280.62L91.90 279.39L96.64 278.37L100.28 280.49L101.73 282.90L103.02 284.45L103.95 286.25L109.77 288.35L112.01 288.82L114.74 288.17L117.57 284.93L118.86 283.45L120.00 279.96L121.69 273.96L124.30 261.01L133.30 262.83L137.23 264.00L141.72 264.22L146.27 265.54L149.66 267.08L151.79 266.71L153.07 265.19L156.08 262.32L160.78 264.42L160.24 259.13L159.74 254.22L159.47 251.59L159.16 237.36L156.42 236.73L153.79 236.13L146.52 230.75L144.07 228.93L137.26 223.45L134.46 220.86L131.92 217.29L128.27 211.86L126.78 209.65L126.10 207.61L126.64 204.35L131.59 204.82L135.45 205.19L137.46 204.50L137.24 198.87L136.69 194.08L138.86 193.51L140.73 193.02L144.19 192.81L148.15 193.72L154.76 195.73L154.78 200.51L164.84 200.84L165.57 195.40L166.18 190.84L172.19 184.09L152.31 170.56L144.95 158.24L139.91 152.64L138.25 151.25L132.86 147.58L128.14 147.00L124.07 144.91L121.76 143.73L119.25 144.99L112.97 144.81L112.15 142.67L108.78 142.62L106.91 142.02L101.09 142.52L97.58 141.83L91.43 140.63Z" data-ward="1" /><path id="ward-11" class="ward" d="M669.59 426.02L656.35 424.88L649.66 424.58L644.09 426.64L639.98 428.59L633.75 432.04L626.06 435.55L619.10 437.35L611.19 439.01L613.11 442.67L611.37 446.52L612.21 450.35L613.61 456.75L614.48 459.33L615.60 465.91L618.40 464.05L622.66 464.98L627.94 465.71L630.64 466.38L635.28 465.75L640.61 463.44L651.71 458.64L656.93 455.16L660.93 452.91L661.17 450.72L661.57 439.13L660.71 434.07L664.86 432.69L670.62 432.70L670.73 427.68L679.37 429.74L691.33 432.71L696.48 433.62L701.05 433.22L704.56 431.70L708.07 429.69L713.82 427.82L718.47 425.33L721.26 424.30L723.87 419.59L727.54 413.67L730.16 398.13L732.49 394.47L747.91 391.95L752.91 392.42L761.08 390.79L766.35 389.24L772.77 386.38L783.72 383.65L800.10 379.09L811.94 378.54L813.00 373.25L808.98 365.99L806.45 361.41L801.37 360.01L792.75 359.30L792.34 357.39L793.42 353.89L793.88 350.07L794.08 348.05L794.25 339.76L793.58 336.45L791.70 335.58L785.92 330.91L783.38 327.47L782.88 324.75L784.13 322.38L786.29 321.86L788.94 321.23L791.20 320.11L794.39 318.47L797.49 316.41L801.34 313.84L798.14 311.38L787.16 309.96L779.05 304.13L765.24 308.18L760.71 309.75L752.54 324.25L750.89 327.44L748.06 334.32L737.82 342.43L730.35 346.28L728.52 347.18L716.43 351.32L713.02 352.49L710.60 353.32L711.26 356.48L709.23 357.79L703.12 357.86L691.49 359.95L689.42 347.90L689.10 346.02L688.21 340.84L686.83 339.27L688.01 331.32L682.12 332.17L675.38 329.63L669.51 326.09L668.36 314.72L649.64 313.93L648.94 318.61L645.38 319.45L644.68 327.06L644.31 334.80L642.23 335.21L637.84 337.63L635.81 339.66L631.00 345.78L632.63 348.03L634.51 356.01L637.96 365.21L641.58 373.93L644.05 378.96L647.18 387.02L651.51 395.15L656.23 403.44L666.32 412.91L669.62 419.20L669.59 426.02Z" data-ward="11" /><path id="ward-2" class="ward" d="M159.22 116.07L154.34 122.13L144.66 125.85L132.97 131.10L129.87 132.96L124.58 134.56L122.20 138.63L121.76 143.73L124.07 144.91L128.14 147.00L132.86 147.58L132.87 144.25L133.13 140.67L133.98 135.97L140.27 131.96L147.45 130.64L154.95 123.67L162.38 122.24L166.23 122.20L167.03 128.34L174.63 131.59L180.14 131.67L184.26 131.21L188.78 131.94L193.27 131.35L197.49 132.81L199.60 132.86L210.00 132.32L212.95 142.39L223.27 140.56L244.43 144.57L250.35 149.32L258.81 155.34L263.44 160.60L269.07 167.89L290.32 180.58L292.78 182.04L297.94 182.52L299.87 182.20L304.31 179.92L311.41 178.32L319.97 189.83L323.26 188.20L333.05 189.20L351.79 184.55L360.85 180.30L366.32 174.86L367.80 173.38L373.99 167.90L375.76 166.38L387.39 156.49L385.97 153.93L385.22 149.99L385.06 147.44L385.23 145.16L386.60 143.13L391.46 143.84L395.34 142.43L387.84 132.23L385.78 125.77L390.87 117.42L391.12 113.31L390.96 109.48L389.80 105.02L388.42 98.45L388.06 94.40L387.15 88.28L380.75 88.44L375.83 73.96L383.57 68.11L409.61 53.45L416.07 50.96L421.95 46.68L421.16 43.12L421.35 39.48L421.91 35.06L414.97 34.10L412.54 33.14L411.71 29.35L409.42 24.74L408.86 21.56L406.27 18.03L399.53 20.16L392.61 22.93L392.68 26.33L392.75 29.37L387.16 32.22L386.56 34.55L384.82 41.34L386.36 45.58L374.72 46.23L372.66 46.69L373.20 49.56L373.72 52.28L362.78 56.53L365.46 64.56L372.86 70.06L372.94 72.24L374.18 74.54L374.32 77.22L377.68 85.29L376.06 91.85L374.42 94.94L364.28 94.48L357.14 92.47L354.99 100.25L355.40 102.57L348.25 105.71L344.39 111.66L344.61 116.38L336.24 118.21L336.59 115.35L331.12 113.33L328.05 112.21L325.98 100.09L313.90 100.98L310.68 100.63L308.63 99.75L305.28 98.85L302.98 97.92L300.71 98.16L297.90 98.44L294.29 102.35L290.27 101.26L288.87 103.81L287.26 105.19L285.28 104.43L283.37 99.78L278.58 99.97L278.56 103.93L281.63 109.58L278.24 111.45L273.35 112.30L270.52 109.30L268.39 109.81L260.67 111.65L258.87 109.77L256.36 109.78L256.09 112.17L256.72 114.05L249.00 116.37L247.07 117.02L240.55 119.21L232.76 114.34L229.99 112.93L223.34 110.87L218.56 110.28L214.28 108.58L211.49 109.38L200.93 109.58L201.36 114.20L192.46 116.75L187.58 120.04L180.68 115.16L178.27 113.72L178.64 110.54L177.05 105.36L172.79 106.32L167.00 112.29L162.20 114.63L159.22 116.07Z" data-ward="2" /><path id="ward-5" class="ward" d="M658.73 83.66L654.86 79.70L652.18 76.33L647.21 77.35L643.47 79.53L640.17 82.14L636.87 83.35L634.25 86.29L629.52 84.61L627.56 82.57L622.29 84.54L620.05 84.54L617.64 85.21L615.49 84.34L611.72 81.05L609.27 78.31L608.31 82.49L606.31 83.04L604.35 83.10L601.71 83.03L599.00 83.22L596.26 83.85L594.21 84.63L593.44 86.95L593.34 91.17L593.78 93.66L594.20 95.51L598.15 104.22L598.83 110.06L586.43 112.06L581.64 103.28L576.50 97.61L565.66 104.43L563.81 105.87L566.88 109.80L569.15 114.87L571.64 121.16L572.23 123.20L571.00 125.26L567.73 127.45L567.24 133.07L565.53 134.91L562.02 137.11L563.18 145.27L561.20 147.19L559.39 148.00L554.46 149.25L552.65 151.11L549.15 152.09L546.25 153.69L547.71 158.76L548.73 163.91L551.70 166.81L555.97 166.17L561.49 169.71L566.42 174.33L570.78 189.03L571.99 198.23L572.40 206.27L553.16 210.50L554.29 212.96L556.34 216.30L557.07 222.69L559.39 224.82L563.14 225.71L565.58 225.88L568.60 224.67L569.95 221.92L570.95 219.87L580.47 220.36L588.62 220.00L597.05 217.89L606.53 217.62L613.96 219.54L627.23 218.54L632.21 219.89L636.44 219.41L644.19 212.75L647.38 213.03L649.79 213.25L644.70 230.81L659.64 249.04L687.84 226.98L717.98 216.80L727.92 214.00L721.19 203.93L709.12 185.87L702.88 162.51L711.70 141.03L709.46 140.86L706.14 140.59L703.09 140.35L699.27 139.24L697.69 137.27L694.54 134.74L690.08 133.57L686.62 133.67L684.13 133.13L681.66 129.64L683.77 127.51L680.73 125.47L678.51 122.35L675.27 116.64L672.89 112.45L669.44 109.40L667.48 106.19L666.67 102.52L665.78 97.78L664.91 95.65L664.61 93.49L662.83 89.83L660.26 87.00L658.73 83.66Z" data-ward="5" /><path id="ward-13" class="ward" d="M546.25 153.69L546.06 146.08L545.14 140.01L543.61 135.41L541.69 133.87L530.43 140.92L531.15 157.13L521.55 157.06L506.63 157.61L504.48 155.11L498.94 156.48L497.35 155.38L490.16 157.19L478.32 160.85L475.51 163.80L466.05 163.88L460.52 164.90L454.45 166.47L452.57 166.71L451.19 163.04L449.98 157.97L444.85 156.25L442.32 149.07L438.54 142.06L433.20 147.54L417.09 153.29L410.73 155.28L401.12 163.09L396.74 167.97L397.50 169.74L400.21 183.33L407.19 185.24L410.72 186.88L412.41 188.02L413.64 195.45L413.58 197.73L419.25 199.55L421.91 198.45L425.72 198.34L427.04 194.89L429.04 194.46L431.23 200.16L441.12 189.46L445.20 198.67L463.63 220.86L465.97 227.67L457.07 232.53L459.12 247.56L458.21 252.13L458.20 257.87L456.08 264.26L452.81 271.60L451.49 277.55L456.39 287.00L470.97 285.35L475.25 284.86L482.67 284.02L494.55 280.76L495.84 276.89L501.19 277.76L504.24 277.23L507.92 276.20L506.79 272.88L513.31 269.01L520.95 264.49L522.78 263.91L524.78 266.99L528.10 269.30L530.66 270.62L532.69 276.85L534.01 280.88L535.71 283.10L544.30 278.09L547.91 276.57L548.66 273.16L547.92 268.93L548.52 266.87L551.27 257.38L552.92 253.23L555.71 250.23L560.93 247.45L563.86 237.01L566.47 233.43L568.56 229.48L568.60 224.67L565.58 225.88L563.14 225.71L559.39 224.82L557.07 222.69L556.34 216.30L554.29 212.96L553.16 210.50L572.40 206.27L571.99 198.23L570.78 189.03L566.42 174.33L561.49 169.71L555.97 166.17L551.70 166.81L548.73 163.91L547.71 158.76L546.25 153.69Z" data-ward="13" /><path id="ward-16" class="ward" d="M251.41 182.13L248.36 182.10L244.57 182.06L238.40 183.08L236.92 184.35L226.72 184.86L226.20 186.76L223.33 186.22L219.13 188.72L215.85 184.73L212.05 182.32L210.82 186.98L202.84 194.79L199.41 201.20L197.94 207.28L198.60 209.10L198.85 211.07L203.80 217.36L206.27 221.73L209.73 231.86L211.72 243.52L212.15 255.84L208.65 270.79L205.40 286.94L200.87 309.52L196.33 334.32L198.12 339.73L201.83 346.60L205.67 346.81L207.94 346.80L210.86 346.78L214.51 345.60L216.74 344.87L218.74 347.60L224.47 347.55L231.07 345.71L234.29 346.13L236.61 347.48L241.66 346.55L249.21 347.02L251.60 345.59L254.19 343.41L256.95 343.73L262.54 344.87L264.99 344.70L271.04 344.88L273.25 345.15L275.37 345.41L277.35 341.61L278.78 338.88L276.33 336.11L277.18 332.83L277.54 329.79L280.37 324.08L281.28 322.13L286.25 320.33L288.08 317.89L288.65 315.43L289.94 312.01L290.33 309.02L291.02 307.08L290.93 304.98L291.33 297.63L288.49 290.79L285.99 287.18L284.23 284.06L282.22 282.90L279.22 279.21L278.85 274.10L275.68 264.50L271.28 258.00L269.94 247.80L271.84 244.91L276.94 243.51L281.54 241.63L284.96 238.84L284.58 233.18L283.27 230.84L281.26 229.33L277.05 230.24L273.37 232.48L268.78 232.44L266.79 228.78L265.97 223.18L263.44 214.68L260.75 209.09L258.93 207.41L256.89 203.17L254.62 202.32L252.44 202.32L251.41 182.13Z" data-ward="16" /><path id="ward-15" class="ward" d="M174.63 131.59L167.03 128.34L166.23 122.20L162.38 122.24L154.95 123.67L147.45 130.64L140.27 131.96L133.98 135.97L133.13 140.67L132.87 144.25L132.86 147.58L138.25 151.25L139.91 152.64L144.95 158.24L152.31 170.56L172.19 184.09L179.62 189.51L189.36 197.92L195.92 207.49L197.94 207.28L199.41 201.20L202.84 194.79L210.82 186.98L212.05 182.32L215.85 184.73L219.13 188.72L223.33 186.22L226.20 186.76L226.72 184.86L236.92 184.35L238.40 183.08L244.57 182.06L248.36 182.10L251.41 182.13L252.44 202.32L254.62 202.32L256.89 203.17L258.93 207.41L260.75 209.09L263.44 214.68L265.97 223.18L266.79 228.78L268.78 232.44L273.37 232.48L277.05 230.24L281.26 229.33L283.27 230.84L284.58 233.18L284.96 238.84L281.54 241.63L276.94 243.51L271.84 244.91L269.94 247.80L271.28 258.00L275.68 264.50L278.85 274.10L279.22 279.21L282.22 282.90L284.23 284.06L285.99 287.18L288.49 290.79L291.33 297.63L290.93 304.98L291.02 307.08L290.33 309.02L289.94 312.01L288.65 315.43L288.08 317.89L286.25 320.33L281.28 322.13L280.37 324.08L277.54 329.79L277.18 332.83L276.33 336.11L278.78 338.88L282.98 339.24L285.21 338.57L291.24 338.92L294.45 338.13L296.54 337.61L299.60 336.85L302.06 335.29L305.46 333.13L306.12 330.44L308.66 328.50L308.83 325.64L307.54 318.79L306.50 313.25L318.37 310.13L319.69 312.24L324.89 311.99L328.81 309.25L330.96 308.92L334.33 313.43L335.23 316.26L335.35 320.66L337.52 320.22L340.14 319.68L342.24 321.04L342.20 324.59L342.17 327.38L343.19 330.93L344.50 333.44L344.63 335.64L349.19 336.65L358.93 339.73L361.78 341.16L363.13 344.30L366.88 344.81L372.97 343.27L381.45 339.50L384.78 339.32L387.18 339.20L393.51 338.86L396.43 346.68L396.26 351.63L396.09 356.37L398.17 356.35L402.41 356.30L409.22 357.36L414.69 357.70L416.80 356.09L416.23 353.25L421.23 351.40L430.54 347.95L430.90 345.28L430.29 340.61L427.75 338.58L423.52 336.44L421.69 335.00L408.27 326.26L406.28 326.00L404.04 326.45L399.80 329.04L398.27 326.20L396.65 322.35L387.23 312.11L377.85 304.73L368.94 300.74L365.56 297.26L361.36 297.22L354.09 292.24L349.73 283.32L345.39 275.79L341.06 262.43L341.18 253.96L341.23 250.33L340.46 242.35L340.23 228.65L342.91 225.04L336.91 215.34L334.46 214.25L331.01 212.73L327.15 211.59L324.97 211.39L325.34 204.36L325.58 199.74L322.99 197.60L319.97 189.83L311.41 178.32L304.31 179.92L299.87 182.20L297.94 182.52L292.78 182.04L290.32 180.58L269.07 167.89L263.44 160.60L258.81 155.34L250.35 149.32L244.43 144.57L223.27 140.56L212.95 142.39L210.00 132.32L199.60 132.86L197.49 132.81L193.27 131.35L188.78 131.94L184.26 131.21L180.14 131.67L174.63 131.59Z" data-ward="15" /><path id="ward-3" class="ward" d="M519.99 78.04L517.97 70.65L515.88 65.85L508.99 69.63L506.76 72.56L499.53 75.35L484.28 86.66L481.36 87.00L473.31 87.45L469.76 87.31L467.60 86.96L465.37 84.58L464.41 82.73L463.00 81.32L459.58 80.84L451.62 80.56L447.47 80.41L446.60 83.77L448.16 92.16L419.58 96.26L419.18 87.48L405.10 87.83L392.87 88.14L387.15 88.28L388.06 94.40L388.42 98.45L389.80 105.02L390.96 109.48L391.12 113.31L390.87 117.42L385.78 125.77L387.84 132.23L395.34 142.43L391.46 143.84L386.60 143.13L385.23 145.16L385.06 147.44L385.22 149.99L385.97 153.93L387.39 156.49L392.68 168.43L396.74 167.97L401.12 163.09L410.73 155.28L417.09 153.29L433.20 147.54L438.54 142.06L442.32 149.07L444.85 156.25L449.98 157.97L451.19 163.04L452.57 166.71L454.45 166.47L460.52 164.90L466.05 163.88L475.51 163.80L478.32 160.85L490.16 157.19L497.35 155.38L498.94 156.48L504.48 155.11L506.63 157.61L521.55 157.06L531.15 157.13L530.43 140.92L541.69 133.87L543.61 135.41L545.14 140.01L546.06 146.08L546.25 153.69L549.15 152.09L552.65 151.11L554.46 149.25L559.39 148.00L561.20 147.19L563.18 145.27L562.02 137.11L565.53 134.91L567.24 133.07L567.73 127.45L571.00 125.26L572.23 123.20L571.64 121.16L569.15 114.87L566.88 109.80L563.81 105.87L560.27 107.73L555.98 110.90L544.57 109.42L540.69 107.44L535.85 106.21L532.09 105.87L528.16 106.34L526.23 107.28L523.91 107.36L523.08 103.09L521.10 101.41L520.95 99.43L520.71 96.22L520.42 92.42L519.99 78.04Z" data-ward="3" /><path id="ward-9" class="ward" d="M793.83 631.68L794.03 629.07L792.11 624.79L782.63 628.15L768.72 639.81L771.58 642.74L773.28 645.37L774.86 649.48L776.66 650.84L782.18 649.23L785.64 648.22L788.00 647.70L794.13 646.33L797.45 650.37L797.69 652.39L795.78 659.16L793.54 659.90L786.93 659.73L786.86 665.81L786.56 667.92L787.77 673.43L782.81 676.60L780.50 677.67L780.50 681.61L782.43 687.11L783.79 689.37L787.81 690.75L789.90 692.75L792.69 693.89L801.68 692.71L801.38 695.51L802.01 704.40L801.82 709.87L803.58 711.95L800.20 718.83L806.62 726.60L794.53 729.57L787.00 730.20L788.10 736.26L788.82 738.14L788.44 744.93L787.38 749.75L799.01 751.60L799.44 761.47L802.79 761.02L803.56 756.25L808.75 756.85L813.70 755.32L818.61 754.96L823.07 753.63L826.49 753.88L829.02 753.13L833.20 752.62L841.62 756.18L854.17 761.47L856.21 760.05L860.24 759.44L865.87 760.04L868.12 760.86L870.80 762.24L872.16 764.60L874.50 765.00L878.32 765.06L880.13 764.50L886.74 763.56L892.64 766.99L897.82 775.40L900.83 776.24L902.87 775.28L912.81 788.53L912.75 784.31L917.57 782.29L916.89 778.27L914.88 777.11L913.84 772.50L919.06 770.73L925.29 767.13L930.21 767.25L935.74 766.03L939.67 766.13L941.79 765.76L945.75 767.25L947.43 766.09L946.56 762.96L948.04 759.94L947.64 754.18L950.68 751.54L952.82 750.42L956.26 749.10L955.62 745.05L959.54 742.04L967.35 741.47L968.94 739.59L969.81 736.72L971.75 734.97L974.48 734.32L978.22 734.18L982.33 733.30L984.62 732.10L986.65 730.35L989.91 723.50L990.17 718.82L990.61 716.63L993.00 714.02L996.34 712.84L998.99 710.24L999.70 707.72L1000.00 701.18L999.28 698.81L998.11 694.98L995.92 693.82L991.95 694.65L989.36 695.70L987.09 696.17L983.17 695.36L980.10 693.36L977.21 690.35L975.78 682.78L975.63 678.87L974.50 675.27L971.32 674.52L962.07 675.48L960.11 676.04L958.40 678.04L957.26 679.90L955.93 682.05L953.74 683.03L951.87 682.02L951.59 679.68L951.91 673.87L951.79 671.13L949.64 665.97L946.87 660.72L946.91 658.27L946.97 654.70L946.74 652.77L945.66 650.55L942.52 650.28L939.97 651.61L938.19 650.16L932.23 650.82L928.16 652.03L912.06 655.83L906.48 657.50L897.54 661.04L897.66 663.13L897.77 665.10L897.70 667.93L895.72 667.83L893.89 668.38L889.72 670.68L886.30 673.10L880.78 675.31L880.35 673.32L874.30 677.19L868.60 674.80L864.55 674.21L859.85 671.57L859.88 669.00L859.82 656.95L854.24 649.83L856.05 645.47L855.64 643.53L853.66 641.22L845.80 638.30L843.03 641.55L838.72 641.40L833.30 639.80L826.05 635.02L822.33 632.10L820.24 633.18L818.70 637.84L804.48 636.64L797.36 638.86L793.83 631.68Z" data-ward="9" /><path id="ward-4" class="ward" d="M421.56 0.00L412.02 1.61L413.66 4.55L407.33 9.23L402.66 10.84L398.48 10.73L396.48 13.26L390.56 13.06L387.64 11.19L382.64 10.20L381.80 12.44L381.08 16.41L381.81 18.33L376.40 20.95L378.32 28.99L383.32 28.88L387.16 32.22L392.75 29.37L392.68 26.33L392.61 22.93L399.53 20.16L406.27 18.03L408.86 21.56L409.42 24.74L411.71 29.35L412.54 33.14L414.97 34.10L421.91 35.06L421.35 39.48L421.16 43.12L421.95 46.68L416.07 50.96L409.61 53.45L383.57 68.11L375.83 73.96L380.75 88.44L387.15 88.28L392.87 88.14L405.10 87.83L419.18 87.48L419.58 96.26L448.16 92.16L446.60 83.77L447.47 80.41L451.62 80.56L459.58 80.84L463.00 81.32L464.41 82.73L465.37 84.58L467.60 86.96L469.76 87.31L473.31 87.45L481.36 87.00L484.28 86.66L499.53 75.35L506.76 72.56L508.99 69.63L515.88 65.85L517.97 70.65L519.99 78.04L520.42 92.42L520.71 96.22L520.95 99.43L521.10 101.41L523.08 103.09L523.91 107.36L526.23 107.28L528.16 106.34L532.09 105.87L535.85 106.21L540.69 107.44L544.57 109.42L555.98 110.90L560.27 107.73L563.81 105.87L565.66 104.43L576.50 97.61L581.64 103.28L586.43 112.06L598.83 110.06L598.15 104.22L594.20 95.51L593.78 93.66L593.34 91.17L593.44 86.95L594.21 84.63L596.26 83.85L599.00 83.22L601.71 83.03L604.35 83.10L606.31 83.04L608.31 82.49L609.27 78.31L604.50 74.77L599.91 68.26L599.16 66.21L597.66 64.18L593.97 64.62L585.87 66.16L585.78 62.67L582.68 62.24L578.60 62.62L575.81 57.78L571.54 55.95L568.99 55.99L566.47 56.70L564.07 56.74L558.54 57.62L556.21 46.96L554.20 47.43L550.49 48.39L545.03 50.48L537.33 52.30L532.29 54.38L528.26 56.05L525.19 57.34L522.13 59.69L519.31 47.82L521.98 45.79L518.16 39.10L517.20 35.98L518.02 30.02L517.77 27.39L516.15 25.47L511.03 27.49L506.66 28.36L504.10 28.64L497.91 30.24L495.73 29.21L493.84 20.56L487.62 11.03L486.02 7.75L481.97 7.78L473.79 7.03L469.13 9.77L467.55 11.21L461.56 13.78L459.46 13.88L458.87 19.85L458.75 25.49L456.18 26.90L455.59 30.30L453.46 30.27L451.85 26.99L448.39 25.60L443.61 22.74L440.59 19.51L436.77 18.04L432.67 16.46L430.90 14.95L430.10 17.81L425.44 18.73L420.76 18.24L421.15 14.44L421.98 12.20L425.46 10.83L435.02 9.00L435.87 4.88L427.51 3.61L424.97 5.03L422.13 5.76L421.56 0.00Z" data-ward="4" /></svg>