<svg viewBox="0 0 1000.00 832.24" xmlns="http://www.w3.org/2000/svg"><style>.ward { fill: #e2e8f0; stroke: #fff; stroke-width: 0.5px; } .ward:hover { fill: #cbd5e1; }</style><path id="ward-8" class="ward" d="M642.62 611.64L646.11 599.47L648.59 590.82L627.11 585.08L628.46 559.96L628.87 552.23L629.39 527.48L629.60 517.42L626.12 516.49L624.28 507.04L616.93 510.08L608.22 513.68L603.89 514.68L595.19 516.68L585.89 520.46L581.29 521.50L566.20 525.76L563.28 527.48L556.80 556.04L554.94 582.01L558.62 613.94L567.68 614.81L611.26 623.07L624.15 625.51L637.90 628.11L642.62 611.64Z" data-ward="8" /><path id="ward-18" class="ward" d="M767.54 830.93L766.97 826.19L766.27 820.32L756.21 786.32L739.41 719.87L736.48 702.69L718.70 648.95L698.56 643.43L697.16 649.58L693.98 659.14L684.58 675.96L685.75 683.43L676.84 688.87L676.36 702.74L675.13 708.32L656.10 709.77L659.59 723.20L662.45 728.67L662.70 735.57L661.54 738.93L661.42 743.68L661.66 750.35L663.11 760.23L657.27 766.06L657.47 771.44L671.02 778.50L685.20 784.22L708.94 792.23L718.94 796.35L721.23 799.70L723.38 806.22L725.72 808.63L729.86 815.17L729.85 819.13L732.27 821.69L735.03 822.31L735.15 825.72L736.10 830.83L739.37 830.84L755.48 832.24L767.54 830.93Z" data-ward="18" /><path id="ward-9" class="ward" d="M574.64 403.00L568.02 402.52L549.10 402.20L542.49 400.96L533.30 400.45L513.33 397.67L509.87 396.10L507.31 392.19L505.91 389.30L504.93 382.26L505.21 377.80L503.78 374.84L495.79 374.77L496.27 379.46L496.18 383.79L494.91 389.90L493.92 394.64L492.30 399.09L493.36 406.84L496.11 408.25L499.09 412.51L499.08 415.29L506.87 420.29L512.13 422.87L521.45 430.79L528.76 437.48L537.89 444.31L546.49 450.76L552.48 455.24L563.28 473.97L570.78 480.32L575.53 488.34L579.18 489.97L584.33 498.25L587.17 503.20L590.00 508.12L595.19 516.68L603.89 514.68L608.22 513.68L616.93 510.08L624.28 507.04L626.88 506.04L629.04 503.00L631.32 501.20L630.47 488.15L626.48 485.57L625.73 481.52L626.04 471.93L625.55 468.97L624.96 458.64L625.22 448.60L622.62 447.42L615.00 445.64L611.56 443.23L611.36 436.17L611.78 433.09L611.60 429.47L607.07 428.64L605.22 430.86L597.17 433.10L592.97 433.53L587.17 433.05L589.80 419.38L590.04 416.57L591.45 411.22L593.72 407.79L586.63 404.57L583.38 403.49L577.98 403.54L574.64 403.00Z" data-ward="9" /><path id="ward-10" class="ward" d="M606.47 413.69L597.55 410.75L593.72 407.79L591.45 411.22L590.04 416.57L589.80 419.38L587.17 433.05L592.97 433.53L597.17 433.10L605.22 430.86L607.07 428.64L611.60 429.47L611.78 433.09L611.36 436.17L611.56 443.23L615.00 445.64L622.62 447.42L625.22 448.60L624.96 458.64L625.55 468.97L626.04 471.93L625.73 481.52L626.48 485.57L630.47 488.15L631.32 501.20L629.04 503.00L626.88 506.04L624.28 507.04L626.12 516.49L629.60 517.42L629.39 527.48L628.87 552.23L628.46 559.96L627.11 585.08L648.59 590.82L646.11 599.47L642.62 611.64L637.90 628.11L661.03 633.93L681.01 638.95L695.74 642.65L698.56 643.43L718.70 648.95L693.02 557.53L685.66 533.85L683.09 524.44L681.93 519.81L680.41 513.73L678.78 507.19L677.92 503.75L676.56 498.34L674.97 491.86L672.90 484.64L666.15 461.01L664.01 455.75L658.59 437.20L651.01 413.75L644.48 414.32L633.51 414.76L626.80 414.60L622.72 413.65L618.75 414.20L611.96 414.55L606.47 413.69Z" data-ward="10" /><path id="ward-13" class="ward" d="M914.25 485.81L904.72 481.54L903.55 475.78L896.54 471.70L888.91 470.83L884.09 471.73L874.22 477.62L865.44 486.08L864.32 489.72L864.42 495.98L865.04 500.40L866.63 502.79L867.88 508.30L867.82 522.54L869.42 530.16L870.86 534.97L872.64 543.83L870.32 549.00L865.21 554.26L862.22 556.95L859.62 562.41L857.36 566.40L857.30 569.37L858.00 582.17L859.60 587.20L868.76 581.36L888.41 572.10L895.85 568.98L907.99 564.28L920.73 559.35L939.62 558.80L961.73 561.67L954.55 545.47L954.58 542.02L955.47 534.85L955.80 527.28L944.98 519.03L944.72 514.65L937.53 512.12L936.88 504.78L938.81 501.90L939.26 498.74L933.91 498.39L935.67 488.35L935.20 480.79L934.56 477.95L933.93 472.58L926.21 474.25L918.22 486.59L914.25 485.81Z" data-ward="13" /><path id="ward-12" class="ward" d="M773.56 517.71L769.59 522.10L762.79 526.08L757.92 534.24L751.51 534.25L748.79 538.59L746.90 542.94L744.75 546.12L742.33 547.87L740.28 552.01L735.40 561.90L736.37 566.61L733.62 573.89L736.13 576.89L739.70 579.63L746.35 578.81L751.12 578.81L753.81 579.46L757.48 580.98L762.72 582.10L766.70 584.10L769.42 586.23L767.94 598.67L768.02 604.90L770.10 608.47L771.26 611.81L769.89 616.13L769.18 622.66L769.24 631.78L768.28 635.34L766.94 639.36L763.26 642.84L761.25 647.16L760.67 650.84L760.70 654.18L762.19 659.48L774.95 659.92L784.57 653.73L792.64 642.75L802.80 627.73L810.73 617.65L809.01 603.51L809.76 567.27L809.84 563.07L814.28 554.10L817.51 553.64L822.14 554.04L826.29 553.03L828.90 551.58L831.24 549.40L834.01 545.60L838.04 546.99L840.71 550.92L843.67 556.46L843.86 562.15L846.19 563.67L850.55 564.54L852.50 567.02L857.36 566.40L859.62 562.41L862.22 556.95L865.21 554.26L870.32 549.00L872.64 543.83L870.86 534.97L869.42 530.16L867.82 522.54L862.26 520.59L852.35 521.19L841.19 522.32L835.33 522.55L823.54 524.60L810.34 525.28L789.14 524.22L782.47 524.24L773.56 517.71Z" data-ward="12" /><path id="ward-7" class="ward" d="M579.18 489.97L575.53 488.34L570.78 480.32L563.28 473.97L552.48 455.24L546.49 450.76L537.89 444.31L528.76 437.48L521.45 430.79L512.13 422.87L506.87 420.29L499.08 415.29L493.41 416.42L487.62 418.93L483.46 419.91L475.32 424.35L468.84 428.72L464.45 428.85L414.15 497.90L422.87 510.37L426.13 509.63L431.39 507.36L436.31 505.91L440.09 507.02L446.53 504.91L451.00 502.21L453.42 497.98L457.65 497.54L462.25 498.25L467.19 499.67L472.05 501.06L475.36 507.33L485.12 513.84L491.08 520.95L496.52 520.40L502.68 523.76L506.15 526.61L511.10 530.88L517.04 535.99L523.63 531.70L531.01 529.32L535.42 526.37L539.76 524.28L549.69 518.77L552.36 516.78L557.27 516.29L563.28 527.48L566.20 525.76L581.29 521.50L585.89 520.46L595.19 516.68L590.00 508.12L587.17 503.20L584.33 498.25L579.18 489.97Z" data-ward="7" /><path id="ward-6" class="ward" d="M446.53 325.70L442.69 327.10L436.21 327.03L426.23 325.90L413.13 327.36L407.07 327.45L403.07 328.89L389.85 332.04L386.23 334.64L384.46 336.99L384.62 340.63L386.89 361.11L387.16 371.02L386.91 376.05L385.35 382.23L383.80 388.41L380.18 398.73L378.32 406.98L376.64 411.72L365.85 427.62L364.73 432.95L380.44 431.76L386.27 432.53L389.75 434.63L389.52 437.98L388.43 449.04L391.60 448.56L401.36 451.52L401.89 454.74L403.82 457.66L405.59 463.10L401.32 465.68L391.90 464.47L390.33 469.43L396.41 475.35L400.49 478.92L410.17 491.60L414.15 497.90L464.45 428.85L468.84 428.72L475.32 424.35L483.46 419.91L487.62 418.93L493.41 416.42L499.08 415.29L499.09 412.51L496.11 408.25L493.36 406.84L492.30 399.09L493.92 394.64L494.91 389.90L496.18 383.79L496.27 379.46L495.79 374.77L489.22 361.21L485.34 357.50L469.71 340.61L467.12 337.51L462.70 333.30L459.59 331.58L452.43 328.91L446.53 325.70Z" data-ward="6" /><path id="ward-5" class="ward" d="M452.67 261.94L449.92 261.52L437.57 256.41L433.96 254.13L429.98 255.41L428.87 259.53L425.81 260.61L420.71 261.48L415.02 261.79L410.85 262.54L404.80 262.50L401.45 262.14L387.79 263.42L381.40 263.32L377.43 263.26L372.58 263.18L368.41 262.30L363.19 260.13L356.05 259.19L350.39 257.49L346.15 257.18L342.70 257.28L341.98 262.63L340.95 266.71L340.45 271.37L340.97 277.13L341.07 280.79L341.22 286.19L343.13 297.55L343.63 303.35L343.56 306.98L343.98 314.07L343.11 321.48L342.18 329.34L339.47 336.77L334.68 341.30L337.67 345.39L346.87 346.93L357.65 348.00L359.20 344.07L360.94 337.89L364.50 337.75L368.12 338.19L378.24 337.27L384.46 336.99L386.23 334.64L389.85 332.04L403.07 328.89L407.07 327.45L413.13 327.36L426.23 325.90L436.21 327.03L442.69 327.10L446.53 325.70L439.16 321.70L447.91 308.58L442.10 308.75L424.81 310.05L400.85 303.99L399.83 301.06L408.78 280.21L425.34 281.74L433.10 281.51L445.14 281.97L448.18 281.37L451.99 282.00L454.87 283.21L460.65 283.17L460.98 280.29L468.55 279.68L471.42 276.89L471.16 273.91L467.58 263.02L459.40 262.52L456.06 262.94L452.67 261.94Z" data-ward="5" /><path id="ward-4" class="ward" d="M359.78 117.16L360.98 114.49L361.60 111.61L359.05 109.70L356.47 107.72L350.30 107.36L345.51 107.75L341.25 110.05L342.30 114.56L342.61 118.63L336.93 119.67L336.37 122.98L336.00 133.28L336.47 138.59L332.32 141.28L322.97 141.65L316.20 141.45L306.99 140.69L302.77 141.68L299.38 142.47L297.19 146.91L295.28 154.26L295.59 157.18L294.63 166.50L299.69 167.24L306.49 167.39L309.46 167.67L321.52 168.77L327.42 169.62L330.56 171.03L330.38 174.50L328.87 179.98L326.70 193.68L325.71 199.90L321.86 200.61L309.86 201.78L306.25 205.73L306.00 209.48L303.89 220.98L304.17 229.09L303.23 233.51L302.98 240.33L306.11 241.68L311.47 242.30L320.32 241.59L328.33 243.89L330.96 244.97L334.71 244.66L339.36 241.42L340.75 249.32L342.70 257.28L346.15 257.18L350.39 257.49L356.05 259.19L363.19 260.13L368.41 262.30L372.58 263.18L377.43 263.26L381.40 263.32L387.79 263.42L401.45 262.14L404.80 262.50L410.85 262.54L415.02 261.79L420.71 261.48L425.81 260.61L428.87 259.53L429.98 255.41L433.96 254.13L437.57 256.41L449.92 261.52L452.67 261.94L456.06 262.94L459.40 262.52L467.58 263.02L462.97 253.66L461.94 247.32L460.95 243.48L458.80 239.50L459.52 227.90L458.42 221.17L457.40 211.37L457.60 207.52L458.93 197.39L458.74 192.59L459.08 188.54L461.32 182.77L462.50 178.57L461.30 173.87L457.08 167.78L449.57 164.96L426.30 162.54L420.34 161.66L409.31 161.20L409.54 167.62L397.09 164.72L397.01 161.17L393.21 158.33L378.32 156.61L370.24 142.80L373.20 134.35L375.73 131.22L378.57 126.15L372.26 124.40L368.78 124.71L364.38 123.58L360.36 123.85L359.78 117.16Z" data-ward="4" /><path id="ward-3" class="ward" d="M279.75 164.97L272.74 162.02L269.39 160.61L265.89 158.14L263.40 156.00L256.64 151.47L248.09 147.53L245.61 142.96L235.53 139.07L230.23 137.58L215.52 131.94L212.19 131.04L209.24 137.27L206.32 143.44L204.39 150.05L202.45 156.69L200.47 162.31L200.23 165.47L201.33 178.21L199.07 181.22L201.18 192.69L202.85 195.79L206.15 200.68L213.10 209.01L215.79 211.30L219.91 213.59L224.61 216.20L230.25 216.20L234.67 215.42L236.22 207.56L236.61 201.34L237.18 197.75L241.80 197.19L249.43 197.65L254.75 195.99L261.05 194.65L267.20 194.12L268.44 200.16L271.52 199.75L274.38 198.73L277.90 199.93L287.73 199.28L290.82 208.76L292.42 213.67L293.34 216.48L297.01 230.21L304.17 229.09L303.89 220.98L306.00 209.48L306.25 205.73L309.86 201.78L321.86 200.61L325.71 199.90L326.70 193.68L328.87 179.98L330.38 174.50L330.56 171.03L327.42 169.62L321.52 168.77L309.46 167.67L306.49 167.39L299.69 167.24L294.63 166.50L290.99 166.83L279.75 164.97Z" data-ward="3" /><path id="ward-2" class="ward" d="M334.28 12.28L306.30 5.14L285.01 0.76L281.34 0.00L271.15 0.65L267.00 12.55L268.85 14.74L268.39 18.49L270.88 24.74L271.36 28.07L279.16 31.33L281.37 34.68L280.04 48.70L279.45 52.91L277.74 60.81L277.33 65.91L276.56 70.14L273.91 79.01L276.50 83.96L277.93 87.96L274.70 98.43L268.47 96.41L264.20 97.13L261.50 100.38L260.16 111.76L257.72 119.69L256.57 124.19L257.01 129.68L252.33 133.34L245.61 142.96L248.09 147.53L256.64 151.47L263.40 156.00L265.89 158.14L269.39 160.61L272.74 162.02L279.75 164.97L290.99 166.83L294.63 166.50L295.59 157.18L295.28 154.26L297.19 146.91L299.38 142.47L302.77 141.68L306.99 140.69L316.20 141.45L322.97 141.65L332.32 141.28L336.47 138.59L336.00 133.28L336.37 122.98L336.93 119.67L342.61 118.63L342.30 114.56L341.25 110.05L345.51 107.75L350.30 107.36L356.47 107.72L359.05 109.70L361.60 111.61L360.98 114.49L359.78 117.16L360.36 123.85L364.38 123.58L368.78 124.71L372.26 124.40L378.57 126.15L382.36 121.96L384.14 118.42L387.05 114.24L390.83 106.49L391.92 103.46L391.99 99.86L391.70 96.27L392.23 93.10L394.40 86.18L403.95 73.66L409.05 68.11L412.97 69.11L415.16 66.38L423.04 64.35L440.90 56.45L430.77 30.49L418.35 19.30L400.80 10.66L370.67 14.08L334.28 12.28Z" data-ward="2" /><path id="ward-1" class="ward" d="M277.93 87.96L276.50 83.96L273.91 79.01L276.56 70.14L277.33 65.91L277.74 60.81L279.45 52.91L280.04 48.70L281.37 34.68L279.16 31.33L271.36 28.07L270.88 24.74L268.39 18.49L268.85 14.74L267.00 12.55L271.15 0.65L250.76 1.94L244.74 2.38L240.55 4.82L221.27 11.14L200.13 18.06L167.03 35.99L126.63 52.40L78.47 93.53L63.28 112.60L100.74 158.57L105.94 155.87L113.13 156.26L113.82 162.18L116.13 164.09L120.27 164.89L134.13 174.64L138.71 176.35L141.51 176.09L145.19 174.95L149.63 172.49L160.53 166.48L175.28 156.37L175.44 152.55L177.14 148.69L180.54 147.61L185.89 147.41L192.63 145.84L202.39 140.89L206.32 143.44L209.24 137.27L212.19 131.04L215.52 131.94L230.23 137.58L235.53 139.07L245.61 142.96L252.33 133.34L257.01 129.68L256.57 124.19L257.72 119.69L260.16 111.76L261.50 100.38L264.20 97.13L268.47 96.41L274.70 98.43L277.93 87.96Z" data-ward="1" /><path id="ward-11" class="ward" d="M709.57 443.52L707.33 439.43L704.98 436.19L700.32 431.22L696.57 428.13L693.79 424.81L691.95 420.85L684.61 415.64L651.01 413.75L658.59 437.20L664.01 455.75L666.15 461.01L672.90 484.64L674.97 491.86L676.56 498.34L677.92 503.75L678.78 507.19L680.41 513.73L681.93 519.81L683.09 524.44L685.66 533.85L693.02 557.53L718.70 648.95L729.55 653.30L734.09 655.12L738.03 656.70L743.30 657.58L748.58 658.46L762.19 659.48L760.70 654.18L760.67 650.84L761.25 647.16L763.26 642.84L766.94 639.36L768.28 635.34L769.24 631.78L769.18 622.66L769.89 616.13L771.26 611.81L770.10 608.47L768.02 604.90L767.94 598.67L769.42 586.23L766.70 584.10L762.72 582.10L757.48 580.98L753.81 579.46L751.12 578.81L746.35 578.81L739.70 579.63L736.13 576.89L733.62 573.89L736.37 566.61L735.40 561.90L740.28 552.01L742.33 547.87L744.75 546.12L746.90 542.94L748.79 538.59L751.51 534.25L757.92 534.24L762.79 526.08L769.59 522.10L773.56 517.71L773.66 506.79L770.56 505.86L764.65 502.83L762.17 499.96L750.88 496.63L763.89 476.82L763.45 473.44L759.26 460.51L759.77 449.71L751.04 448.99L747.79 449.65L747.48 445.85L740.80 448.17L736.60 447.86L731.81 448.77L726.14 450.56L719.51 451.85L715.18 445.77L712.30 446.54L709.57 443.52Z" data-ward="11" /><path id="ward-23" class="ward" d="M384.46 336.99L378.24 337.27L368.12 338.19L364.50 337.75L360.94 337.89L359.20 344.07L357.65 348.00L356.50 353.78L355.06 361.33L355.79 367.92L355.88 372.79L356.79 382.06L356.50 386.65L353.25 396.04L352.46 400.08L352.22 404.49L349.96 408.17L347.54 410.93L343.35 413.46L339.44 413.24L336.71 411.92L332.01 411.78L328.19 412.31L327.32 420.64L327.08 426.62L323.19 434.43L318.66 435.30L312.60 433.95L303.22 429.72L294.14 427.86L284.87 424.56L257.91 429.96L235.52 437.40L222.03 475.02L228.84 503.15L243.99 499.64L261.88 484.61L282.52 474.10L301.20 469.97L322.62 468.15L341.93 467.38L349.45 465.84L352.79 461.41L355.25 452.28L362.02 431.06L364.73 432.95L365.85 427.62L376.64 411.72L378.32 406.98L380.18 398.73L383.80 388.41L385.35 382.23L386.91 376.05L387.16 371.02L386.89 361.11L384.62 340.63L384.46 336.99Z" data-ward="23" /><path id="ward-28" class="ward" d="M179.29 349.98L176.45 349.80L172.97 352.19L167.00 349.96L162.49 350.68L159.09 355.31L148.32 365.62L145.86 364.08L143.05 361.84L139.94 359.22L137.30 356.53L132.97 353.24L128.19 351.17L124.01 350.37L120.34 350.78L119.47 354.04L116.00 363.65L113.67 371.77L110.23 380.93L106.06 390.79L102.97 394.59L109.07 400.04L117.02 407.15L121.63 404.33L124.68 404.17L128.24 403.17L133.52 404.64L135.69 401.93L140.39 405.82L141.33 410.06L145.29 416.91L152.17 428.83L153.77 431.62L159.47 442.40L164.54 445.02L171.60 448.66L168.81 453.69L175.27 460.67L179.45 465.19L194.12 475.57L197.16 481.79L221.05 492.21L224.31 496.79L228.84 503.15L222.03 475.02L235.52 437.40L199.62 432.42L199.14 426.91L199.46 423.42L201.32 416.92L204.69 407.97L205.23 404.22L206.70 398.44L206.68 388.90L208.19 379.04L207.49 375.52L207.47 366.41L204.70 364.85L194.77 362.59L192.45 366.98L189.18 370.88L186.28 369.17L182.52 368.03L178.37 365.45L180.57 359.03L183.76 352.63L179.29 349.98Z" data-ward="28" /><path id="ward-27" class="ward" d="M212.60 303.88L209.70 303.25L206.36 302.03L202.04 298.15L196.86 299.33L190.75 301.25L187.48 302.63L173.70 307.28L165.52 307.89L159.27 306.13L150.02 312.81L147.00 313.88L143.13 311.26L135.59 315.64L132.93 317.67L130.56 321.08L129.36 323.92L128.02 328.23L131.05 336.90L130.31 344.69L127.21 346.49L124.01 350.37L128.19 351.17L132.97 353.24L137.30 356.53L139.94 359.22L143.05 361.84L145.86 364.08L148.32 365.62L159.09 355.31L162.49 350.68L167.00 349.96L172.97 352.19L176.45 349.80L179.29 349.98L183.76 352.63L180.57 359.03L178.37 365.45L182.52 368.03L186.28 369.17L189.18 370.88L192.45 366.98L194.77 362.59L204.70 364.85L207.47 366.41L207.49 375.52L208.19 379.04L206.68 388.90L211.97 391.98L217.27 391.58L222.31 394.09L224.28 386.21L225.98 381.57L231.64 382.71L234.64 379.82L232.59 373.50L231.99 370.60L229.77 365.72L226.68 364.53L226.59 360.73L223.50 357.36L217.75 358.04L213.73 356.47L209.96 353.21L204.40 352.29L200.62 350.36L196.89 349.86L194.58 346.76L197.41 341.34L198.91 336.58L201.41 330.28L203.06 327.49L206.47 324.27L212.60 303.88Z" data-ward="27" /><path id="ward-29" class="ward" d="M73.33 293.54L73.74 284.51L69.32 283.79L64.40 282.30L62.42 278.73L59.18 277.96L56.71 272.88L58.16 265.21L59.74 261.81L59.75 256.71L62.92 249.33L59.91 248.10L55.12 247.58L50.26 245.90L51.35 241.38L8.51 218.30L3.22 229.92L0.00 268.52L3.39 320.44L17.23 400.87L38.78 399.51L58.47 389.34L71.19 390.38L72.12 386.72L79.70 388.47L102.97 394.59L106.06 390.79L110.23 380.93L113.67 371.77L116.00 363.65L119.47 354.04L120.34 350.78L124.01 350.37L127.21 346.49L119.98 341.58L113.86 339.92L106.32 338.81L101.28 338.73L98.44 335.01L98.89 330.49L100.21 327.48L98.65 311.85L96.00 306.75L95.93 302.10L98.33 298.07L102.06 297.88L102.93 293.43L102.98 289.98L101.61 283.01L100.18 280.11L97.61 276.76L94.00 280.34L90.93 285.04L86.19 287.87L83.93 292.27L82.56 296.10L77.78 298.02L73.33 293.54Z" data-ward="29" /><path id="ward-24" class="ward" d="M343.13 297.55L341.22 286.19L341.07 280.79L337.33 279.03L334.20 279.78L330.92 281.59L327.82 284.29L326.02 288.51L322.95 291.94L303.98 295.56L301.75 299.55L297.72 297.52L295.13 293.66L292.58 295.61L291.15 298.74L290.30 301.88L284.11 304.49L281.76 307.49L280.47 310.84L279.73 315.90L278.67 320.73L278.69 324.26L276.69 331.59L275.68 338.63L272.25 347.55L271.46 351.95L271.32 355.90L268.64 363.02L251.46 361.46L248.81 359.66L244.00 361.26L238.29 362.56L234.86 362.70L231.88 363.41L229.77 365.72L231.99 370.60L232.59 373.50L234.64 379.82L231.64 382.71L225.98 381.57L224.28 386.21L222.31 394.09L217.27 391.58L211.97 391.98L206.68 388.90L206.70 398.44L205.23 404.22L204.69 407.97L201.32 416.92L199.46 423.42L199.14 426.91L199.62 432.42L235.52 437.40L257.91 429.96L284.87 424.56L294.14 427.86L303.22 429.72L312.60 433.95L318.66 435.30L323.19 434.43L327.08 426.62L327.32 420.64L328.19 412.31L332.01 411.78L336.71 411.92L339.44 413.24L343.35 413.46L347.54 410.93L349.96 408.17L352.22 404.49L352.46 400.08L353.25 396.04L356.50 386.65L356.79 382.06L355.88 372.79L355.79 367.92L355.06 361.33L356.50 353.78L357.65 348.00L346.87 346.93L337.67 345.39L334.68 341.30L339.47 336.77L342.18 329.34L343.11 321.48L343.98 314.07L343.56 306.98L343.63 303.35L343.13 297.55Z" data-ward="24" /><path id="ward-26" class="ward" d="M206.05 237.28L198.06 233.37L192.63 226.74L188.82 224.51L181.22 229.82L179.02 232.06L181.59 237.25L180.36 240.54L184.27 242.68L191.54 252.47L194.00 256.36L198.44 261.70L196.71 266.49L193.11 263.95L188.02 261.86L185.44 264.79L183.82 269.83L187.14 271.82L189.11 274.11L187.20 278.93L187.30 282.83L191.01 288.41L194.01 294.90L196.86 299.33L202.04 298.15L206.36 302.03L209.70 303.25L212.60 303.88L206.47 324.27L203.06 327.49L201.41 330.28L198.91 336.58L197.41 341.34L194.58 346.76L196.89 349.86L200.62 350.36L204.40 352.29L209.96 353.21L213.73 356.47L217.75 358.04L223.50 357.36L226.59 360.73L226.68 364.53L229.77 365.72L231.88 363.41L234.86 362.70L238.29 362.56L244.00 361.26L248.81 359.66L251.46 361.46L268.64 363.02L271.32 355.90L271.46 351.95L272.25 347.55L275.68 338.63L276.69 331.59L278.69 324.26L278.67 320.73L279.73 315.90L280.47 310.84L281.76 307.49L284.11 304.49L290.30 301.88L291.15 298.74L292.58 295.61L291.30 291.44L287.84 283.53L287.12 279.70L285.45 273.34L278.88 276.25L274.43 279.00L269.55 281.49L266.59 282.46L263.82 283.88L259.95 286.76L257.16 285.92L254.90 282.70L251.57 278.98L249.82 276.41L246.88 269.41L246.96 266.02L252.17 253.04L251.90 249.48L250.68 244.97L250.20 240.12L242.49 237.19L237.38 238.92L234.93 240.71L224.81 235.33L218.89 233.56L214.88 239.22L213.17 241.99L206.05 237.28Z" data-ward="26" /><path id="ward-25" class="ward" d="M267.20 194.12L261.05 194.65L254.75 195.99L249.43 197.65L241.80 197.19L237.18 197.75L236.61 201.34L236.22 207.56L234.67 215.42L230.25 216.20L224.61 216.20L219.91 213.59L215.79 211.30L213.10 209.01L206.15 200.68L196.24 212.17L192.77 216.19L188.38 220.84L188.82 224.51L192.63 226.74L198.06 233.37L206.05 237.28L213.17 241.99L214.88 239.22L218.89 233.56L224.81 235.33L234.93 240.71L237.38 238.92L242.49 237.19L250.20 240.12L250.68 244.97L251.90 249.48L252.17 253.04L246.96 266.02L246.88 269.41L249.82 276.41L251.57 278.98L254.90 282.70L257.16 285.92L259.95 286.76L263.82 283.88L266.59 282.46L269.55 281.49L274.43 279.00L278.88 276.25L285.45 273.34L287.12 279.70L287.84 283.53L291.30 291.44L292.58 295.61L295.13 293.66L297.72 297.52L301.75 299.55L303.98 295.56L322.95 291.94L326.02 288.51L327.82 284.29L330.92 281.59L334.20 279.78L337.33 279.03L341.07 280.79L340.97 277.13L340.45 271.37L340.95 266.71L341.98 262.63L342.70 257.28L340.75 249.32L339.36 241.42L334.71 244.66L330.96 244.97L328.33 243.89L320.32 241.59L311.47 242.30L306.11 241.68L302.98 240.33L303.23 233.51L304.17 229.09L297.01 230.21L293.34 216.48L292.42 213.67L290.82 208.76L287.73 199.28L277.90 199.93L274.38 198.73L271.52 199.75L268.44 200.16L267.20 194.12Z" data-ward="25" /><path id="ward-32" class="ward" d="M63.28 112.60L38.46 143.75L30.83 159.46L26.62 167.65L13.79 205.30L23.78 211.00L46.41 222.81L53.70 224.12L64.67 227.53L65.74 232.98L69.72 234.27L72.79 234.26L78.47 233.71L82.68 235.78L86.02 229.62L87.26 224.91L89.55 220.99L92.01 214.26L101.00 211.23L105.24 210.21L108.58 210.08L115.40 210.94L124.14 211.16L126.30 213.09L130.43 212.53L136.56 210.60L141.47 210.25L145.13 207.22L146.34 198.86L152.49 197.73L155.69 198.35L158.80 199.83L160.62 197.38L167.16 199.06L176.97 194.01L180.99 188.71L187.08 184.66L191.01 184.81L196.27 181.81L199.07 181.22L201.33 178.21L200.23 165.47L200.47 162.31L202.45 156.69L204.39 150.05L206.32 143.44L202.39 140.89L192.63 145.84L185.89 147.41L180.54 147.61L177.14 148.69L175.44 152.55L175.28 156.37L160.53 166.48L149.63 172.49L145.19 174.95L141.51 176.09L138.71 176.35L134.13 174.64L120.27 164.89L116.13 164.09L113.82 162.18L113.13 156.26L105.94 155.87L100.74 158.57L63.28 112.60Z" data-ward="32" /><path id="ward-31" class="ward" d="M199.07 181.22L196.27 181.81L191.01 184.81L187.08 184.66L180.99 188.71L176.97 194.01L167.16 199.06L160.62 197.38L158.80 199.83L155.69 198.35L152.49 197.73L146.34 198.86L145.13 207.22L141.47 210.25L136.56 210.60L130.43 212.53L126.30 213.09L124.14 211.16L115.40 210.94L108.58 210.08L105.24 210.21L101.00 211.23L92.01 214.26L89.55 220.99L87.26 224.91L86.02 229.62L82.68 235.78L78.47 233.71L72.79 234.26L69.72 234.27L65.74 232.98L64.67 227.53L53.70 224.12L46.41 222.81L23.78 211.00L13.79 205.30L11.36 212.37L8.51 218.30L51.35 241.38L50.26 245.90L55.12 247.58L59.91 248.10L62.92 249.33L59.75 256.71L59.74 261.81L58.16 265.21L56.71 272.88L59.18 277.96L62.42 278.73L64.40 282.30L69.32 283.79L73.74 284.51L73.33 293.54L77.78 298.02L82.56 296.10L83.93 292.27L86.19 287.87L90.93 285.04L94.00 280.34L97.61 276.76L100.42 274.98L104.41 273.59L112.68 272.04L116.35 271.36L126.93 269.38L135.26 267.83L135.11 263.28L134.16 258.96L164.20 252.40L176.72 234.41L179.02 232.06L181.22 229.82L188.82 224.51L188.38 220.84L192.77 216.19L196.24 212.17L206.15 200.68L202.85 195.79L201.18 192.69L199.07 181.22Z" data-ward="31" /><path id="ward-30" class="ward" d="M198.44 261.70L194.00 256.36L191.54 252.47L184.27 242.68L180.36 240.54L181.59 237.25L179.02 232.06L176.72 234.41L164.20 252.40L134.16 258.96L135.11 263.28L135.26 267.83L126.93 269.38L116.35 271.36L112.68 272.04L104.41 273.59L100.42 274.98L97.61 276.76L100.18 280.11L101.61 283.01L102.98 289.98L102.93 293.43L102.06 297.88L98.33 298.07L95.93 302.10L96.00 306.75L98.65 311.85L100.21 327.48L98.89 330.49L98.44 335.01L101.28 338.73L106.32 338.81L113.86 339.92L119.98 341.58L127.21 346.49L130.31 344.69L131.05 336.90L128.02 328.23L129.36 323.92L130.56 321.08L132.93 317.67L135.59 315.64L143.13 311.26L147.00 313.88L150.02 312.81L159.27 306.13L165.52 307.89L173.70 307.28L187.48 302.63L190.75 301.25L196.86 299.33L194.01 294.90L191.01 288.41L187.30 282.83L187.20 278.93L189.11 274.11L187.14 271.82L183.82 269.83L185.44 264.79L188.02 261.86L193.11 263.95L196.71 266.49L198.44 261.70Z" data-ward="30" /><path id="ward-22" class="ward" d="M362.02 431.06L355.25 452.28L352.79 461.41L349.45 465.84L341.93 467.38L322.62 468.15L301.20 469.97L282.52 474.10L261.88 484.61L243.99 499.64L228.84 503.15L230.70 506.94L233.53 507.89L242.15 510.76L256.36 515.50L268.47 519.54L272.12 520.09L298.65 524.04L303.90 525.42L315.09 523.78L317.99 523.36L327.22 525.09L334.44 525.10L339.00 525.42L343.36 525.09L346.48 524.57L349.82 523.26L373.42 513.96L414.15 497.90L410.17 491.60L400.49 478.92L396.41 475.35L390.33 469.43L391.90 464.47L401.32 465.68L405.59 463.10L403.82 457.66L401.89 454.74L401.36 451.52L391.60 448.56L388.43 449.04L389.52 437.98L389.75 434.63L386.27 432.53L380.44 431.76L364.73 432.95L362.02 431.06Z" data-ward="22" /><path id="ward-21" class="ward" d="M472.05 501.06L467.19 499.67L462.25 498.25L457.65 497.54L453.42 497.98L451.00 502.21L446.53 504.91L440.09 507.02L436.31 505.91L431.39 507.36L426.13 509.63L422.87 510.37L414.15 497.90L373.42 513.96L349.82 523.26L348.47 525.49L351.37 538.46L353.10 543.35L356.77 553.79L358.16 559.00L366.66 575.42L369.53 580.98L371.21 579.86L371.15 576.43L368.35 570.51L368.49 563.97L369.57 558.16L371.54 555.36L375.09 550.33L378.86 551.38L383.39 555.10L385.57 559.07L388.28 564.01L392.73 564.29L396.53 570.04L406.49 585.12L411.36 584.74L414.98 582.14L422.11 575.41L425.10 572.59L431.52 572.04L434.73 571.76L435.42 582.69L464.63 574.61L464.19 571.18L464.47 566.90L465.03 563.79L466.42 561.24L469.34 561.42L476.60 560.68L486.40 561.35L495.49 562.33L495.76 569.20L495.91 572.81L501.22 573.15L526.38 571.89L524.59 563.79L522.09 554.60L517.04 535.99L511.10 530.88L506.15 526.61L502.68 523.76L496.52 520.40L491.08 520.95L485.12 513.84L475.36 507.33L472.05 501.06Z" data-ward="21" /><path id="ward-20" class="ward" d="M556.80 556.04L563.28 527.48L557.27 516.29L552.36 516.78L549.69 518.77L539.76 524.28L535.42 526.37L531.01 529.32L523.63 531.70L517.04 535.99L522.09 554.60L524.59 563.79L526.38 571.89L501.22 573.15L495.91 572.81L495.76 569.20L495.49 562.33L486.40 561.35L476.60 560.68L469.34 561.42L466.42 561.24L465.03 563.79L464.47 566.90L464.19 571.18L464.63 574.61L435.42 582.69L434.73 571.76L431.52 572.04L425.10 572.59L422.11 575.41L414.98 582.14L411.36 584.74L406.49 585.12L396.53 570.04L392.73 564.29L388.28 564.01L385.57 559.07L383.39 555.10L378.86 551.38L375.09 550.33L371.54 555.36L369.57 558.16L368.49 563.97L368.35 570.51L371.15 576.43L371.21 579.86L369.53 580.98L369.51 585.06L373.21 590.79L374.54 594.84L379.83 604.71L399.96 619.77L403.79 624.31L406.05 631.23L415.71 631.45L422.13 629.57L437.70 632.68L443.90 636.33L460.69 646.24L466.18 645.19L466.60 645.14L467.19 645.46L471.69 648.52L476.50 652.06L476.75 652.24L477.99 657.61L475.75 663.71L478.76 669.77L480.80 674.71L482.02 682.17L484.15 688.72L484.40 700.17L488.07 707.68L491.20 707.58L495.75 707.44L512.07 714.55L516.43 716.46L521.54 718.32L525.99 721.22L533.87 726.42L534.58 718.74L536.88 693.73L539.93 662.35L539.94 662.27L543.16 620.10L549.91 614.17L558.62 613.94L554.94 582.01L556.80 556.04Z" data-ward="20" /><path id="ward-19" class="ward" d="M676.36 702.74L676.84 688.87L685.75 683.43L684.58 675.96L693.98 659.14L697.16 649.58L698.56 643.43L695.74 642.65L681.01 638.95L661.03 633.93L637.90 628.11L624.15 625.51L611.26 623.07L567.68 614.81L558.62 613.94L549.91 614.17L543.16 620.10L539.94 662.27L539.93 662.35L536.88 693.73L534.58 718.74L547.98 728.36L553.40 730.37L555.58 728.58L558.70 727.41L563.82 722.53L569.79 720.85L574.49 721.25L577.98 723.70L580.91 727.26L584.07 731.87L587.38 733.60L594.36 734.28L598.31 731.62L601.77 725.23L605.40 722.07L609.50 720.67L626.08 716.89L633.61 715.96L642.64 710.30L649.26 708.14L656.10 709.77L675.13 708.32L676.36 702.74Z" data-ward="19" /><path id="ward-17" class="ward" d="M851.03 705.87L839.36 705.15L831.72 703.67L812.67 701.82L804.38 700.46L799.38 700.31L794.64 699.21L791.88 698.94L776.34 698.87L764.46 701.39L751.74 705.78L747.65 702.85L743.71 700.54L736.48 702.69L739.41 719.87L756.21 786.32L766.27 820.32L766.97 826.19L774.42 821.94L781.16 825.41L795.33 825.72L801.78 823.32L811.22 814.93L817.45 814.93L825.13 810.91L825.46 808.06L831.18 805.08L836.59 797.05L840.25 793.90L841.74 789.42L844.45 783.57L850.47 780.06L852.52 776.47L858.86 775.96L858.48 773.06L865.44 772.81L865.57 768.81L862.35 760.77L856.33 748.95L859.23 747.83L857.63 743.08L863.44 742.63L869.94 744.44L879.37 746.18L883.48 744.85L884.90 739.00L885.16 734.98L890.39 726.92L895.36 730.44L900.15 731.46L903.07 734.04L909.83 736.08L912.79 738.11L915.15 729.20L910.61 727.53L896.29 720.83L890.16 715.26L883.84 715.13L876.85 713.00L867.98 709.42L851.03 705.87Z" data-ward="17" /><path id="ward-16" class="ward" d="M814.94 632.47L810.73 617.65L802.80 627.73L792.64 642.75L784.57 653.73L774.95 659.92L762.19 659.48L748.58 658.46L743.30 657.58L738.03 656.70L734.09 655.12L729.55 653.30L718.70 648.95L736.48 702.69L743.71 700.54L747.65 702.85L751.74 705.78L764.46 701.39L776.34 698.87L791.88 698.94L794.64 699.21L799.38 700.31L804.38 700.46L812.67 701.82L831.72 703.67L839.36 705.15L851.03 705.87L867.98 709.42L876.85 713.00L883.84 715.13L890.16 715.26L888.52 710.01L885.98 706.83L883.86 703.12L881.66 697.26L880.40 689.74L879.12 685.74L877.19 676.56L885.75 671.93L889.82 674.81L893.66 676.60L903.52 678.77L907.91 679.46L911.01 679.53L911.93 676.19L911.37 672.82L906.37 664.41L903.39 661.17L898.07 654.20L897.04 651.45L896.56 647.82L896.74 644.28L895.66 638.87L895.35 628.28L886.44 633.04L881.66 635.25L874.19 634.99L867.43 636.37L859.15 639.60L824.99 637.84L814.80 638.92L814.94 632.47Z" data-ward="16" /><path id="ward-15" class="ward" d="M966.24 673.70L958.71 673.09L957.78 664.07L958.55 661.07L956.64 649.18L963.05 648.75L965.45 645.73L962.20 638.26L958.86 632.67L958.70 627.10L950.42 623.39L949.41 620.17L950.58 617.01L949.27 612.10L915.50 621.89L904.13 623.87L895.35 628.28L895.66 638.87L896.74 644.28L896.56 647.82L897.04 651.45L898.07 654.20L903.39 661.17L906.37 664.41L911.37 672.82L911.93 676.19L911.01 679.53L907.91 679.46L903.52 678.77L893.66 676.60L889.82 674.81L885.75 671.93L877.19 676.56L879.12 685.74L880.40 689.74L881.66 697.26L883.86 703.12L885.98 706.83L888.52 710.01L890.16 715.26L896.29 720.83L910.61 727.53L915.15 729.20L919.74 726.94L974.72 748.31L979.42 747.90L991.18 725.83L988.08 721.05L988.74 717.03L987.83 712.00L985.82 707.80L984.97 700.45L982.47 698.60L976.22 697.25L970.32 695.23L966.63 692.70L966.36 689.21L967.17 683.53L966.24 673.70Z" data-ward="15" /><path id="ward-14" class="ward" d="M840.71 550.92L838.04 546.99L834.01 545.60L831.24 549.40L828.90 551.58L826.29 553.03L822.14 554.04L817.51 553.64L814.28 554.10L809.84 563.07L809.76 567.27L809.01 603.51L810.73 617.65L814.94 632.47L814.80 638.92L824.99 637.84L859.15 639.60L867.43 636.37L874.19 634.99L881.66 635.25L886.44 633.04L895.35 628.28L904.13 623.87L915.50 621.89L949.27 612.10L950.58 617.01L949.41 620.17L950.42 623.39L958.70 627.10L960.25 624.73L966.35 623.15L971.05 624.43L975.78 622.73L980.23 623.17L980.58 615.10L981.73 610.03L984.79 604.39L990.66 605.46L996.51 602.27L1000.00 601.74L997.02 591.96L985.15 584.21L980.41 583.43L976.07 583.49L974.79 586.46L962.39 583.89L961.67 580.91L961.73 561.67L939.62 558.80L920.73 559.35L907.99 564.28L895.85 568.98L888.41 572.10L868.76 581.36L859.60 587.20L858.00 582.17L857.30 569.37L857.36 566.40L852.50 567.02L850.55 564.54L846.19 563.67L843.86 562.15L843.67 556.46L840.71 550.92Z" data-ward="14" /></svg>