<svg viewBox="0 0 1000.00 1393.18" xmlns="http://www.w3.org/2000/svg"><style>.ward { fill: #e2e8f0; stroke: #fff; stroke-width: 0.5px; } .ward:hover { fill: #cbd5e1; }</style><path id="ward-10" class="ward" d="M527.86 856.22L528.12 852.99L528.92 850.83L529.26 847.87L529.44 843.44L529.29 840.85L529.29 837.31L529.58 834.22L529.82 830.88L530.69 825.73L531.61 822.66L532.68 818.45L534.78 813.66L536.52 811.81L537.69 808.96L538.30 804.62L535.07 802.40L533.97 799.79L533.75 796.52L533.29 793.65L532.79 789.71L532.66 786.32L533.13 781.68L533.93 777.06L535.47 774.86L537.03 773.00L538.94 769.76L539.32 764.45L538.85 761.02L539.02 756.99L539.39 754.15L540.17 750.39L541.36 746.51L542.02 742.78L541.95 739.37L541.93 737.19L541.24 734.08L541.29 731.57L541.49 728.71L541.62 726.38L541.85 720.52L541.83 717.80L536.72 720.06L531.88 721.29L529.63 721.82L521.67 723.73L517.75 724.83L508.69 727.45L503.89 729.05L501.37 729.92L498.93 730.76L496.02 731.77L490.80 733.65L487.11 736.97L481.65 743.24L480.24 744.85L476.46 748.74L474.29 750.96L471.65 753.67L469.32 756.05L464.52 760.72L462.83 762.35L460.54 764.55L457.79 767.19L450.76 774.02L442.47 783.10L441.02 784.70L438.75 787.25L437.22 790.59L435.39 794.24L434.10 796.27L430.61 801.77L429.20 804.66L427.84 807.55L425.17 813.21L423.44 817.23L422.76 819.37L422.04 821.72L419.97 826.86L418.95 829.35L418.06 831.53L416.24 836.16L414.67 840.48L413.44 844.60L412.35 846.94L411.33 849.13L409.22 853.97L407.54 859.36L405.99 864.41L404.95 867.72L404.01 870.75L402.23 876.03L400.47 882.26L399.92 884.34L399.38 886.39L398.02 891.66L397.50 893.87L397.24 896.62L397.17 900.26L397.48 905.09L398.25 909.71L398.85 911.88L399.84 915.51L401.17 921.55L401.78 924.25L402.69 928.34L403.69 932.89L404.27 935.50L405.38 942.08L405.87 944.84L406.67 948.45L406.29 951.57L413.26 953.05L415.45 953.28L417.63 953.50L421.04 954.31L424.70 955.04L429.63 955.93L432.43 956.45L434.89 957.09L438.03 957.77L442.93 958.92L446.49 959.75L449.10 959.96L451.55 960.15L454.03 960.43L456.51 960.72L459.57 960.49L463.31 960.10L466.71 959.37L469.76 958.72L473.93 958.27L477.67 958.57L480.62 958.77L486.08 959.61L489.12 960.25L493.09 961.64L496.09 961.87L499.05 962.65L501.12 963.01L504.35 963.50L507.58 963.97L510.10 964.35L514.12 964.48L518.87 964.79L521.47 964.85L525.09 965.29L528.69 965.42L533.60 965.94L537.82 966.41L541.30 966.59L543.67 966.90L548.11 967.08L552.98 967.58L556.60 967.72L560.17 968.55L564.47 969.83L566.93 970.74L569.57 970.92L572.47 971.29L574.88 971.16L577.10 970.68L579.99 970.04L583.11 969.49L587.11 969.09L590.51 969.32L594.55 970.36L599.34 973.06L602.94 974.78L606.28 975.87L611.11 976.76L613.44 977.00L617.28 976.84L620.54 976.90L623.45 977.12L627.79 977.11L630.48 975.61L632.43 973.00L634.43 970.26L635.23 967.78L636.01 965.27L637.07 961.98L639.20 959.01L641.96 958.65L648.40 958.94L656.03 959.32L659.34 959.33L663.73 959.37L664.46 950.97L664.05 947.29L663.67 943.88L662.93 937.58L663.52 930.08L663.41 924.94L662.78 916.51L662.31 912.49L661.43 907.54L661.26 903.47L661.32 898.16L661.45 893.79L661.45 890.19L661.22 887.13L661.26 880.33L657.91 879.93L654.50 879.53L651.71 877.75L647.08 874.78L644.78 874.36L643.59 877.73L642.26 881.70L638.95 884.31L637.50 888.08L635.10 889.09L632.54 890.44L626.60 890.59L624.01 890.65L620.09 890.62L617.41 890.52L615.05 890.28L611.22 889.97L606.76 889.42L604.67 889.24L600.30 888.96L596.87 889.18L592.97 889.29L591.61 892.28L590.49 897.39L590.19 900.16L589.12 904.28L587.38 905.94L585.16 906.01L581.99 905.85L579.28 905.15L574.71 903.57L570.00 901.10L570.48 898.05L569.02 894.47L566.41 893.81L562.21 891.82L561.80 889.45L563.18 885.10L566.14 877.98L567.49 875.13L568.93 871.15L569.42 867.98L568.61 865.96L567.32 863.88L566.59 861.83L565.01 860.21L562.92 859.83L560.18 859.81L556.83 859.96L554.37 860.28L550.98 859.99L548.86 859.80L543.88 857.31L541.52 857.07L537.07 857.14L533.09 857.49L527.86 856.22Z" data-ward="10" /><path id="ward-18" class="ward" d="M299.12 1077.85L298.61 1074.99L298.93 1072.20L300.13 1069.51L301.43 1066.61L303.11 1062.90L303.98 1059.46L302.56 1057.62L297.74 1055.92L292.79 1054.08L288.47 1053.79L286.84 1055.99L285.00 1059.81L283.72 1064.83L282.83 1067.51L281.88 1069.86L280.32 1073.62L276.93 1077.86L272.07 1078.09L269.45 1078.12L266.84 1078.15L263.58 1078.15L257.22 1078.18L252.81 1078.54L249.78 1078.56L246.75 1078.57L243.31 1078.25L238.19 1077.73L232.74 1077.87L227.99 1077.50L225.72 1078.39L223.21 1078.46L219.21 1078.15L215.53 1077.94L211.42 1078.37L207.10 1079.14L203.77 1080.07L202.29 1082.69L202.89 1085.63L203.33 1088.51L203.78 1091.41L204.26 1093.97L204.48 1096.14L205.76 1100.61L207.60 1107.26L208.24 1109.45L209.07 1113.87L209.58 1117.81L210.16 1120.32L210.61 1123.70L211.46 1128.88L212.94 1131.02L214.28 1136.73L214.47 1140.82L214.73 1144.70L214.31 1148.91L213.83 1152.44L214.32 1156.26L215.88 1166.60L216.97 1170.35L217.44 1173.68L219.22 1177.52L220.99 1182.92L221.72 1187.49L222.26 1191.10L222.77 1193.72L223.91 1198.50L225.43 1204.17L226.15 1207.04L227.33 1209.25L230.61 1211.07L232.81 1215.11L233.87 1217.47L235.41 1221.12L235.14 1224.10L233.92 1226.16L229.69 1227.22L226.65 1227.72L222.70 1228.57L219.78 1229.20L216.68 1229.76L212.13 1230.05L207.67 1230.76L201.86 1230.97L197.10 1231.31L192.96 1231.39L188.29 1231.29L184.96 1231.08L180.46 1230.62L176.16 1229.98L171.41 1229.63L168.14 1229.54L164.10 1229.18L159.95 1228.46L154.43 1227.07L149.95 1225.66L146.44 1224.88L142.52 1223.89L138.62 1223.18L136.07 1222.90L131.90 1222.69L127.49 1222.75L123.04 1222.76L117.92 1222.98L113.63 1223.11L109.66 1223.47L105.34 1224.10L99.25 1225.02L93.44 1226.02L87.48 1230.94L89.38 1242.66L91.06 1253.33L92.06 1259.03L94.00 1270.13L98.09 1285.19L99.37 1295.25L99.81 1297.82L102.05 1310.86L104.75 1318.00L107.41 1325.29L108.99 1329.87L113.16 1342.67L114.20 1345.84L117.05 1354.49L120.01 1363.78L121.57 1373.16L125.68 1383.70L130.42 1386.60L132.92 1386.46L135.65 1386.32L143.72 1385.74L146.95 1385.51L151.23 1385.40L155.47 1385.29L158.82 1385.26L161.08 1385.23L163.94 1385.21L168.05 1385.03L171.05 1384.91L173.93 1384.81L178.82 1385.82L183.48 1386.78L187.84 1386.91L192.76 1387.03L195.61 1387.56L198.27 1388.06L207.28 1390.04L211.66 1391.01L216.36 1392.04L219.02 1392.35L222.94 1392.80L226.30 1393.18L228.67 1392.91L232.78 1392.43L236.43 1392.01L242.16 1391.63L247.73 1391.25L251.94 1391.18L255.31 1391.11L257.94 1390.65L265.83 1389.27L268.57 1388.79L272.66 1388.08L277.65 1387.67L282.09 1387.30L285.10 1387.05L287.48 1386.85L289.70 1386.72L295.12 1386.39L295.92 1383.05L296.73 1379.71L300.81 1379.06L305.37 1378.34L309.48 1377.69L313.76 1377.01L318.83 1376.20L318.85 1372.65L318.86 1368.91L318.87 1365.55L316.64 1361.25L316.64 1357.35L316.65 1352.92L316.65 1348.58L316.69 1345.72L316.73 1342.86L316.84 1338.29L317.12 1333.18L318.19 1327.85L318.81 1324.85L319.28 1321.21L319.46 1318.34L319.82 1312.59L320.11 1309.54L320.40 1306.48L320.75 1303.42L321.11 1300.37L322.08 1295.48L322.61 1292.77L324.13 1285.81L325.68 1281.15L328.32 1273.25L329.63 1269.31L330.97 1266.34L335.23 1256.84L341.00 1246.61L344.80 1240.92L346.91 1237.29L350.07 1232.15L354.43 1225.06L362.81 1211.76L368.77 1201.51L370.93 1197.64L372.12 1195.56L374.25 1191.85L375.64 1189.36L376.40 1187.09L377.47 1183.94L379.37 1178.32L379.81 1176.09L380.22 1173.88L380.96 1169.75L381.40 1166.87L381.89 1163.79L382.50 1159.83L383.01 1155.95L383.38 1153.05L384.14 1147.24L384.87 1141.75L385.37 1139.20L385.95 1136.13L386.34 1133.28L386.69 1130.67L387.25 1125.82L387.44 1123.53L387.90 1118.87L388.39 1115.86L389.46 1109.91L390.02 1105.39L390.28 1103.08L390.59 1100.56L391.88 1094.34L393.08 1088.90L394.19 1083.80L394.77 1081.15L395.67 1076.94L396.22 1074.42L391.45 1075.48L388.99 1075.98L383.15 1076.03L376.67 1076.59L373.05 1077.04L369.15 1077.53L365.23 1077.87L362.90 1078.37L360.00 1078.90L356.19 1079.61L352.41 1079.88L348.65 1080.14L346.20 1080.20L343.77 1080.25L340.02 1080.18L336.81 1079.97L332.86 1079.46L329.54 1078.79L324.16 1078.30L319.13 1078.08L314.46 1078.15L311.53 1078.64L307.62 1079.03L303.96 1079.06L299.12 1077.85Z" data-ward="18" /><path id="ward-4" class="ward" d="M1000.00 513.87L997.13 508.68L991.10 506.88L986.89 505.62L974.70 497.32L969.82 492.76L965.24 488.49L959.97 483.08L953.89 477.38L950.53 471.91L944.02 467.80L943.03 467.04L933.25 461.96L931.30 461.22L920.19 456.40L911.79 455.28L902.46 455.20L901.87 455.11L891.85 454.21L885.74 458.91L880.00 481.41L874.23 490.10L869.87 496.66L866.25 500.57L861.59 505.60L859.21 508.17L855.22 510.31L852.59 511.72L850.26 512.33L845.63 513.54L841.45 512.76L836.58 510.72L827.33 516.52L824.30 522.31L822.11 525.14L819.58 525.36L813.24 524.54L806.26 523.96L801.21 523.51L791.05 521.73L787.13 521.40L780.21 520.74L778.01 520.21L771.97 520.21L769.35 520.20L764.77 519.99L756.33 519.98L754.15 519.95L751.96 519.93L748.11 519.84L745.50 519.77L740.16 520.00L737.59 520.06L729.97 518.72L722.84 520.48L722.93 525.49L723.32 532.38L723.84 537.73L724.31 544.91L725.17 550.60L725.89 556.06L726.17 558.26L726.44 564.58L725.60 566.84L723.76 569.53L723.17 574.41L723.02 581.23L723.04 584.09L723.03 586.83L722.73 591.13L722.28 597.37L724.13 601.96L730.05 601.64L735.28 598.45L738.45 597.13L743.20 598.29L747.75 598.90L753.08 598.64L755.95 597.41L758.66 596.21L761.09 595.13L765.45 593.33L768.08 592.58L770.94 591.10L773.73 589.23L775.82 588.75L778.40 589.00L781.99 589.38L785.40 590.39L790.28 592.02L795.53 591.49L797.82 591.22L800.35 591.74L803.68 592.07L807.85 591.87L810.33 591.93L812.64 592.08L814.80 592.15L817.35 591.87L820.15 591.73L824.51 591.42L827.77 592.15L830.11 592.40L834.46 594.15L839.50 595.43L845.07 596.72L849.51 597.53L856.53 598.63L862.29 600.00L867.92 600.88L870.58 601.11L872.86 601.31L879.06 601.72L882.72 601.87L886.25 602.47L891.71 604.24L897.04 605.79L901.93 607.88L907.92 609.52L913.28 611.51L918.44 613.91L923.89 616.35L927.48 618.25L932.32 620.60L939.58 622.17L942.50 622.58L947.68 624.00L954.11 626.10L957.91 627.51L960.87 629.26L962.94 630.48L964.03 627.99L965.88 620.10L966.46 617.64L967.53 613.11L968.51 607.40L969.15 603.68L969.90 599.37L970.28 597.27L970.85 594.05L971.75 589.08L974.65 581.30L974.99 579.15L975.48 576.05L976.40 570.25L977.41 568.22L979.06 564.93L980.06 562.93L980.90 560.30L981.74 557.68L982.16 555.00L983.16 548.58L983.57 546.42L985.81 541.95L995.59 538.38L996.83 532.75L997.52 529.60L998.84 519.35L999.40 517.33L1000.00 513.87Z" data-ward="4" /><path id="ward-5" class="ward" d="M800.35 591.74L797.82 591.22L795.53 591.49L794.57 597.00L794.35 599.31L797.92 601.34L799.15 604.03L798.96 607.00L798.62 609.61L798.40 612.41L798.52 614.77L798.51 616.90L798.32 619.64L798.61 622.36L798.84 624.71L797.59 626.80L796.27 630.79L796.16 634.80L796.08 636.98L795.88 640.62L795.32 643.34L791.74 643.01L789.61 642.71L787.54 642.41L785.45 642.35L781.28 642.36L778.70 642.45L774.23 641.56L771.40 641.67L767.43 641.29L763.01 641.19L760.41 640.86L757.53 640.45L753.30 640.34L749.06 640.86L748.24 636.67L748.33 632.46L744.55 631.29L741.03 630.81L737.58 630.87L735.04 630.54L730.68 630.61L727.78 630.75L724.34 630.88L720.34 631.81L719.39 634.36L717.73 636.27L715.38 636.89L712.41 636.94L709.83 637.71L707.14 639.13L704.35 640.91L700.50 642.45L698.13 643.22L695.09 644.16L694.12 646.43L693.62 648.92L694.04 655.28L692.89 658.51L692.03 661.90L691.59 665.37L690.91 670.88L690.22 674.50L689.99 677.73L689.69 680.03L689.14 683.37L688.48 688.53L689.07 692.79L690.95 698.17L691.00 704.47L691.09 708.38L696.51 708.15L699.20 708.36L702.68 709.01L705.12 709.24L709.17 710.21L713.05 711.40L716.36 712.66L720.72 714.47L725.14 715.59L727.22 716.12L731.08 717.26L733.68 717.96L737.30 719.14L740.13 719.77L742.75 720.21L745.45 720.84L748.48 721.90L752.64 723.37L756.10 724.45L760.18 725.58L762.49 726.11L766.21 726.87L768.97 727.36L772.99 728.07L775.67 728.48L778.98 728.98L782.09 729.32L786.22 729.78L789.41 730.08L792.60 730.37L794.94 730.80L798.66 731.31L802.25 731.37L805.36 731.84L808.46 732.31L813.99 733.55L818.35 734.20L822.88 734.98L826.18 735.22L829.24 735.62L833.55 735.83L836.71 736.15L839.88 736.46L842.82 736.55L845.35 736.78L847.77 737.18L851.60 737.72L854.16 738.27L857.22 739.29L860.20 740.11L864.38 741.59L869.18 743.29L872.66 744.74L875.20 745.39L877.50 745.99L880.29 746.89L883.68 747.52L886.99 748.14L889.49 748.62L893.69 749.42L894.13 746.41L894.45 744.24L895.14 739.46L895.92 734.34L896.73 730.86L897.29 726.46L897.61 724.28L898.07 721.29L898.44 718.94L898.81 716.72L899.54 712.48L900.00 710.01L900.51 707.32L901.56 704.93L903.94 699.35L905.65 695.54L909.35 689.52L911.02 687.02L916.05 684.78L922.50 681.90L924.03 678.61L924.58 675.14L925.04 672.23L926.14 668.51L927.48 661.69L928.70 655.50L929.90 649.74L931.15 645.32L933.28 646.01L936.24 645.62L937.69 643.50L939.10 640.70L940.49 637.94L943.57 632.63L944.87 630.39L946.04 628.38L947.68 624.00L942.50 622.58L939.58 622.17L932.32 620.60L927.48 618.25L923.89 616.35L918.44 613.91L913.28 611.51L907.92 609.52L901.93 607.88L897.04 605.79L891.71 604.24L886.25 602.47L882.72 601.87L879.06 601.72L872.86 601.31L870.58 601.11L867.92 600.88L862.29 600.00L856.53 598.63L849.51 597.53L845.07 596.72L839.50 595.43L834.46 594.15L830.11 592.40L827.77 592.15L824.51 591.42L820.15 591.73L817.35 591.87L814.80 592.15L812.64 592.08L810.33 591.93L807.85 591.87L803.68 592.07L800.35 591.74Z" data-ward="5" /><path id="ward-20" class="ward" d="M252.75 943.95L253.68 941.42L253.93 938.28L251.94 934.33L245.72 931.13L239.01 928.32L239.41 915.21L228.81 902.26L229.55 894.07L222.88 886.72L220.90 883.71L218.91 880.69L202.91 861.30L199.80 857.10L196.70 852.90L182.34 819.24L174.28 813.17L157.84 800.86L111.26 758.60L98.91 754.44L89.31 751.51L84.20 752.92L77.56 754.75L65.84 757.90L52.36 761.53L50.01 765.67L48.41 768.49L46.75 771.42L45.16 774.13L43.47 777.03L41.55 780.32L38.95 784.79L37.19 787.83L35.53 790.69L33.96 793.85L32.53 796.71L32.11 800.70L27.35 807.15L24.41 808.80L17.75 813.34L15.07 813.99L10.60 815.09L8.02 815.55L3.25 816.41L1.32 818.95L7.44 831.18L12.02 842.88L15.42 853.13L19.61 863.74L23.47 875.84L27.42 885.67L27.82 893.98L28.11 902.10L27.37 911.35L24.03 920.04L21.09 931.09L17.18 944.47L14.53 955.31L9.44 964.88L1.73 973.39L0.00 979.27L2.44 991.93L5.31 1007.47L9.53 1022.50L13.32 1036.42L16.37 1048.08L21.24 1058.45L25.43 1069.35L28.70 1079.51L32.07 1093.63L38.82 1104.01L44.63 1117.61L50.77 1134.55L52.25 1146.64L55.50 1146.18L62.15 1145.24L64.22 1144.93L64.98 1140.57L64.27 1129.29L64.59 1120.29L68.54 1113.60L71.64 1108.26L74.95 1102.54L78.32 1096.74L84.99 1085.24L92.83 1071.73L94.96 1068.06L97.75 1059.11L100.72 1049.72L101.91 1041.01L108.43 1042.38L111.11 1043.01L113.56 1043.78L117.08 1044.77L119.37 1045.58L122.15 1046.45L124.67 1047.19L127.60 1048.13L129.63 1048.87L131.74 1049.60L134.34 1050.66L137.34 1052.01L139.37 1052.77L142.86 1053.96L146.00 1055.68L148.37 1057.17L152.48 1058.96L155.29 1059.93L158.36 1060.96L163.40 1063.02L169.34 1066.40L173.69 1068.23L175.57 1069.55L177.27 1071.13L178.90 1073.04L179.90 1074.99L182.90 1082.47L186.83 1088.69L188.58 1090.97L192.27 1096.42L193.68 1098.70L195.05 1100.77L196.57 1103.27L198.18 1105.65L201.64 1108.34L207.60 1107.26L205.76 1100.61L204.48 1096.14L204.26 1093.97L203.78 1091.41L203.33 1088.51L202.89 1085.63L202.29 1082.69L203.77 1080.07L207.10 1079.14L211.42 1078.37L215.53 1077.94L219.21 1078.15L223.21 1078.46L225.72 1078.39L227.99 1077.50L227.96 1073.90L227.36 1071.56L226.10 1068.54L223.11 1067.30L219.65 1065.45L216.14 1064.33L211.32 1063.47L206.65 1063.12L203.44 1062.87L197.98 1062.35L194.58 1058.13L196.60 1053.42L197.78 1051.44L200.78 1047.64L202.22 1043.98L200.66 1040.10L198.67 1037.08L199.22 1033.49L200.26 1030.47L201.31 1027.55L202.23 1024.30L204.75 1018.65L207.41 1016.85L212.72 1017.78L216.97 1018.34L218.90 1016.56L219.10 1012.57L219.28 1010.02L219.78 1005.05L220.02 1002.92L220.46 1000.32L221.10 997.18L222.05 992.42L221.88 990.11L221.58 987.50L221.88 985.26L222.51 983.09L223.42 980.85L224.53 978.15L225.71 976.40L227.97 974.06L229.05 971.94L230.27 969.86L231.26 967.58L232.51 964.77L233.44 962.66L234.44 960.33L236.95 953.85L237.87 951.23L238.62 949.20L239.25 946.99L241.25 944.36L243.97 945.27L247.94 947.13L250.21 947.76L251.80 945.94L252.75 943.95Z" data-ward="20" /><path id="ward-11" class="ward" d="M678.83 958.99L674.51 958.71L671.26 958.75L668.52 959.07L663.73 959.37L659.34 959.33L656.03 959.32L648.40 958.94L641.96 958.65L639.20 959.01L637.07 961.98L636.01 965.27L635.23 967.78L634.43 970.26L632.43 973.00L630.48 975.61L627.79 977.11L623.45 977.12L620.54 976.90L617.28 976.84L613.44 977.00L611.11 976.76L606.28 975.87L602.94 974.78L599.34 973.06L594.55 970.36L590.51 969.32L587.11 969.09L583.11 969.49L579.99 970.04L577.10 970.68L577.65 974.93L577.84 977.62L577.96 979.89L576.40 986.38L575.63 988.44L573.29 992.53L571.40 996.01L570.69 998.39L570.33 1004.23L569.30 1008.20L566.60 1007.69L561.40 1006.83L555.49 1005.99L552.21 1006.02L548.38 1005.63L543.24 1005.31L540.35 1004.96L538.12 1005.58L534.75 1007.25L535.29 1010.60L536.98 1014.11L539.02 1017.96L541.28 1021.11L544.71 1022.75L548.30 1024.05L552.53 1025.64L556.81 1028.04L557.43 1031.58L557.75 1034.43L558.10 1037.76L558.17 1039.87L557.99 1042.89L557.95 1045.98L557.98 1049.68L558.59 1053.11L557.13 1055.35L551.50 1055.70L549.97 1059.04L549.34 1061.82L548.83 1064.91L547.87 1068.86L547.47 1071.83L547.13 1075.37L546.91 1077.69L546.50 1081.26L545.86 1085.52L545.35 1088.38L544.87 1092.37L545.87 1098.02L552.22 1097.86L554.37 1097.50L558.71 1096.90L563.79 1095.47L564.20 1092.35L568.90 1093.15L579.96 1094.61L584.52 1094.45L590.12 1092.22L594.46 1091.95L596.59 1091.99L601.78 1092.04L606.15 1091.69L609.41 1091.39L611.64 1091.15L614.49 1090.03L618.33 1089.32L623.81 1089.79L627.38 1090.05L630.80 1090.48L633.10 1090.90L638.19 1092.31L644.76 1093.33L647.80 1095.71L651.32 1091.17L655.14 1090.67L657.98 1090.42L662.40 1090.93L668.14 1091.35L670.32 1091.50L675.60 1092.20L681.28 1092.68L683.73 1092.58L689.71 1091.23L696.22 1088.37L698.55 1087.98L701.91 1087.54L704.17 1087.27L708.72 1087.53L711.20 1087.96L716.17 1084.86L715.94 1080.35L716.19 1076.68L716.67 1072.56L717.58 1069.35L718.59 1066.13L719.67 1062.01L720.45 1057.50L722.06 1051.97L723.64 1048.93L724.72 1046.69L726.28 1043.90L726.63 1041.40L726.75 1036.79L726.77 1034.61L727.08 1029.39L726.88 1026.25L727.02 1022.34L726.85 1019.97L726.13 1016.54L723.96 1014.61L722.28 1011.80L721.97 1009.08L721.79 1006.03L721.46 1002.35L721.14 999.85L720.50 994.14L720.03 990.24L719.44 982.24L719.35 979.66L719.52 975.99L719.85 972.06L719.99 967.68L717.18 963.89L712.45 963.25L709.26 962.99L706.15 962.44L703.49 961.96L700.53 961.85L697.94 961.43L694.42 961.50L692.15 961.49L688.90 961.22L684.62 960.26L681.20 959.48L678.83 958.99Z" data-ward="11" /><path id="ward-15" class="ward" d="M544.87 1092.37L545.35 1088.38L545.86 1085.52L546.50 1081.26L546.91 1077.69L547.13 1075.37L547.47 1071.83L547.87 1068.86L548.83 1064.91L549.34 1061.82L549.97 1059.04L551.50 1055.70L557.13 1055.35L558.59 1053.11L557.98 1049.68L557.95 1045.98L557.99 1042.89L558.17 1039.87L558.10 1037.76L557.75 1034.43L557.43 1031.58L556.81 1028.04L552.53 1025.64L548.85 1027.69L546.45 1028.76L542.80 1030.26L540.37 1031.32L538.28 1032.66L535.51 1034.06L530.23 1036.57L526.42 1038.41L521.36 1040.99L518.10 1042.61L514.59 1044.46L510.90 1046.33L507.74 1047.66L505.69 1048.59L505.24 1052.88L503.85 1059.51L503.18 1062.70L502.45 1065.38L500.92 1072.33L500.43 1074.38L499.87 1076.63L499.41 1079.02L499.11 1081.55L498.86 1083.93L498.90 1089.08L498.75 1091.41L498.49 1094.88L499.64 1097.90L500.93 1099.92L501.78 1102.88L502.65 1105.39L505.32 1108.15L506.68 1111.63L507.05 1116.82L507.52 1122.27L508.48 1126.22L509.84 1129.70L511.30 1133.80L511.59 1137.00L511.85 1141.43L512.82 1145.77L513.54 1149.52L513.59 1154.14L513.40 1157.03L513.36 1159.48L514.20 1162.25L515.82 1167.02L517.01 1171.87L517.78 1174.53L518.21 1176.87L518.58 1180.58L519.32 1182.86L520.42 1185.40L520.41 1190.00L519.83 1193.64L519.08 1197.44L518.89 1202.28L519.44 1205.13L520.16 1207.53L520.92 1210.09L521.53 1213.07L524.29 1213.49L528.06 1213.29L534.73 1212.49L541.05 1212.07L543.25 1212.00L546.35 1212.28L548.66 1212.36L551.79 1212.75L554.44 1212.88L556.79 1213.04L560.81 1212.77L564.10 1211.86L567.35 1211.03L569.59 1210.39L571.83 1209.76L574.66 1210.02L577.67 1209.73L581.85 1209.27L588.17 1209.25L592.25 1209.26L598.05 1209.15L600.60 1209.35L604.00 1209.22L607.84 1208.67L612.00 1207.68L614.37 1207.13L617.56 1206.30L621.23 1205.50L624.59 1204.62L628.89 1203.99L631.96 1203.19L634.53 1202.83L636.83 1202.45L640.62 1201.85L645.28 1201.35L655.40 1202.74L660.22 1203.34L664.89 1203.04L664.34 1198.55L664.11 1196.43L663.46 1191.98L661.41 1188.22L660.57 1182.72L661.55 1178.34L661.31 1176.13L659.74 1172.97L656.04 1172.34L654.12 1168.38L653.72 1165.86L653.40 1162.57L653.85 1159.13L655.14 1155.13L655.77 1152.96L656.20 1150.43L655.83 1147.01L655.22 1144.98L652.61 1140.04L650.82 1134.23L650.87 1130.56L651.64 1126.53L651.90 1122.64L651.19 1120.35L648.84 1116.42L647.91 1113.50L646.68 1109.62L646.65 1107.37L646.61 1105.12L646.80 1102.18L647.80 1095.71L644.76 1093.33L638.19 1092.31L633.10 1090.90L630.80 1090.48L627.38 1090.05L623.81 1089.79L618.33 1089.32L614.49 1090.03L611.64 1091.15L609.41 1091.39L606.15 1091.69L601.78 1092.04L596.59 1091.99L594.46 1091.95L590.12 1092.22L584.52 1094.45L579.96 1094.61L568.90 1093.15L564.20 1092.35L563.79 1095.47L558.71 1096.90L554.37 1097.50L552.22 1097.86L545.87 1098.02L544.87 1092.37Z" data-ward="15" /><path id="ward-17" class="ward" d="M394.51 1201.59L391.04 1201.67L386.89 1201.79L384.65 1201.72L380.51 1201.82L376.37 1202.23L372.51 1201.96L368.77 1201.51L362.81 1211.76L354.43 1225.06L350.07 1232.15L346.91 1237.29L344.80 1240.92L341.00 1246.61L335.23 1256.84L330.97 1266.34L329.63 1269.31L328.32 1273.25L325.68 1281.15L324.13 1285.81L322.61 1292.77L322.08 1295.48L321.11 1300.37L320.75 1303.42L320.40 1306.48L320.11 1309.54L319.82 1312.59L319.46 1318.34L319.28 1321.21L318.81 1324.85L318.19 1327.85L317.12 1333.18L316.84 1338.29L316.73 1342.86L316.69 1345.72L316.65 1348.58L316.65 1352.92L316.64 1357.35L316.64 1361.25L318.87 1365.55L322.68 1365.54L326.19 1365.49L330.31 1365.43L334.12 1365.76L336.78 1365.78L339.44 1365.80L342.51 1365.02L343.87 1360.56L345.37 1358.63L350.19 1358.78L352.30 1358.85L354.50 1359.00L359.33 1359.32L362.02 1359.29L365.02 1359.25L369.89 1358.17L373.72 1357.39L376.21 1356.93L379.55 1356.63L382.86 1356.34L387.95 1356.69L394.17 1355.78L399.05 1353.88L401.51 1352.69L404.89 1350.48L407.34 1348.87L409.84 1347.24L411.76 1346.44L414.99 1345.09L420.97 1344.03L426.59 1343.38L430.67 1343.02L434.56 1342.68L441.44 1342.79L445.16 1343.10L449.58 1343.60L453.50 1344.03L457.64 1344.37L461.76 1344.67L466.30 1344.61L469.56 1344.61L472.33 1344.74L477.23 1344.98L480.92 1345.07L485.84 1345.31L488.37 1345.92L494.05 1347.37L499.07 1348.65L503.31 1348.33L506.02 1347.82L510.86 1346.80L516.02 1345.69L520.24 1344.98L523.58 1344.48L525.78 1344.17L529.93 1343.58L532.31 1343.26L536.19 1342.74L537.88 1341.48L538.57 1337.30L538.10 1332.52L536.88 1326.30L536.62 1323.88L538.72 1322.45L540.94 1322.08L543.02 1319.95L543.72 1316.96L543.72 1313.59L543.41 1308.82L543.46 1305.52L543.57 1302.72L543.82 1300.45L544.51 1298.05L545.93 1294.44L547.18 1290.59L550.98 1287.29L553.71 1284.72L554.92 1282.59L556.72 1279.01L559.31 1277.44L558.89 1272.78L558.98 1266.87L559.22 1261.81L556.85 1257.89L554.61 1258.09L551.46 1258.60L549.12 1258.71L544.72 1257.92L538.66 1256.38L532.60 1256.04L528.06 1256.03L524.37 1255.75L520.65 1256.21L515.53 1256.27L512.49 1256.27L513.10 1252.50L513.27 1249.20L513.27 1246.91L512.88 1244.83L512.22 1241.48L511.84 1236.35L511.71 1233.38L510.83 1230.67L511.96 1225.66L514.07 1221.26L514.96 1217.41L513.35 1213.88L508.28 1214.34L501.69 1214.92L498.79 1215.13L492.69 1215.57L486.11 1216.03L477.99 1216.61L474.63 1216.84L471.24 1217.08L468.55 1217.01L462.31 1215.98L456.38 1215.24L452.93 1214.78L448.01 1213.99L443.20 1213.48L438.47 1212.64L436.21 1212.35L430.57 1210.94L424.65 1209.76L420.08 1208.41L409.80 1206.17L407.49 1205.57L404.74 1204.66L401.30 1203.65L394.51 1201.59Z" data-ward="17" /><path id="ward-8" class="ward" d="M756.63 784.46L753.70 784.54L751.20 784.46L749.55 786.94L749.06 792.79L748.00 797.44L747.57 800.96L748.12 806.49L748.39 810.48L748.67 814.75L749.60 818.87L749.74 823.23L749.66 826.99L749.76 830.66L750.24 835.46L750.18 838.04L746.20 838.32L743.08 837.90L739.91 837.49L736.90 837.70L734.35 838.19L731.63 838.07L727.16 841.47L725.95 844.73L721.43 845.65L719.36 845.89L716.41 846.14L714.33 846.34L711.52 846.68L709.13 847.25L706.20 847.33L703.61 847.57L700.07 847.83L697.52 847.34L695.03 847.17L692.09 847.21L689.99 847.57L687.88 848.09L684.53 849.88L681.76 848.43L677.72 849.08L675.54 849.10L670.76 848.56L668.41 848.38L668.00 851.23L667.90 854.02L668.11 857.26L668.06 859.85L667.60 862.38L666.89 865.39L665.56 867.25L663.84 869.49L662.16 874.63L661.26 880.33L661.22 887.13L661.45 890.19L661.45 893.79L661.32 898.16L661.26 903.47L661.43 907.54L662.31 912.49L662.78 916.51L663.41 924.94L663.52 930.08L662.93 937.58L663.67 943.88L664.05 947.29L664.46 950.97L663.73 959.37L668.52 959.07L671.26 958.75L674.51 955.46L676.42 954.18L678.91 952.77L681.41 951.22L683.68 949.86L685.84 948.19L687.94 946.91L690.22 945.58L692.08 944.25L694.03 943.31L698.23 940.74L700.62 939.08L703.39 937.74L706.51 936.34L708.82 935.15L711.43 933.94L713.96 932.97L716.49 932.01L718.73 930.92L721.15 930.12L723.45 929.15L727.42 927.67L730.33 926.99L733.20 926.14L736.19 924.99L738.97 923.70L741.59 922.94L744.10 922.12L747.35 921.10L750.31 919.78L753.24 918.32L755.92 917.46L758.88 916.36L762.21 914.87L765.11 913.92L769.25 912.86L769.89 915.09L771.20 918.23L771.72 921.26L772.10 925.36L771.95 929.35L771.79 933.06L771.52 937.33L771.59 940.82L771.59 944.45L771.42 948.30L771.31 952.04L771.34 955.54L771.37 960.39L773.72 964.82L777.79 967.22L779.98 968.52L783.98 971.01L787.49 972.59L790.82 973.72L794.75 975.10L801.40 976.34L804.94 977.02L809.49 977.85L813.17 978.85L815.67 980.04L818.80 980.98L822.43 981.16L824.83 981.26L826.91 980.96L830.84 981.00L834.80 981.35L838.90 981.33L842.06 981.69L845.33 982.56L850.47 982.90L854.08 983.48L859.51 983.91L863.11 984.68L868.42 984.98L871.25 985.52L875.76 985.69L880.35 985.91L884.08 986.52L914.83 988.12L914.80 985.60L913.71 983.32L914.32 980.43L914.74 977.49L915.44 972.64L916.34 964.44L916.13 959.28L915.31 938.74L912.08 923.91L909.39 923.10L905.22 913.69L902.30 911.47L899.60 903.83L885.58 877.78L882.12 871.60L878.18 872.69L876.74 870.33L875.98 864.57L866.88 868.67L864.65 869.79L860.75 872.09L856.96 874.25L854.42 875.04L851.47 875.98L848.01 877.56L849.09 872.93L851.70 870.11L854.84 866.02L855.69 861.27L852.06 861.17L849.36 860.78L846.76 860.12L846.02 857.25L846.56 853.52L846.98 849.94L847.04 846.50L844.53 845.13L840.58 844.59L837.72 844.18L834.64 843.55L831.89 842.99L829.71 842.83L827.19 842.40L824.53 841.81L821.39 841.77L817.20 840.72L814.26 840.50L811.70 839.80L809.35 838.97L805.38 837.88L803.58 836.82L801.35 836.40L798.91 835.81L796.29 835.48L793.76 835.55L791.11 835.14L787.02 834.92L784.40 834.59L782.03 835.17L779.52 835.80L777.19 836.21L775.14 836.89L772.77 837.09L770.43 836.80L771.34 833.14L771.74 831.00L771.77 828.15L772.91 825.51L773.44 822.93L773.52 818.68L773.09 814.64L776.45 814.00L779.26 813.80L782.36 812.94L786.64 811.96L787.31 808.64L786.24 806.43L782.92 803.89L783.94 800.60L784.28 797.92L786.14 795.02L787.31 793.07L787.22 790.83L786.12 788.22L783.61 787.57L781.36 787.43L777.81 787.16L775.12 786.59L772.94 786.98L770.77 786.68L767.85 786.41L764.90 786.03L761.87 785.74L759.43 785.33L756.63 784.46Z" data-ward="8" /><path id="ward-1" class="ward" d="M593.89 274.13L593.81 270.63L593.76 268.01L593.65 265.39L593.56 262.86L593.26 259.25L593.07 256.93L592.88 254.60L592.70 252.34L592.80 249.94L593.10 247.12L597.14 245.27L602.31 245.01L606.24 244.81L610.47 244.59L612.61 244.48L614.90 244.37L617.05 244.26L619.29 244.14L621.49 244.03L624.08 243.90L626.49 243.85L632.27 243.85L635.36 243.81L637.64 243.80L640.87 243.79L644.97 243.77L648.19 243.74L653.29 243.35L655.60 243.17L659.67 242.85L661.83 242.69L664.23 242.52L666.57 242.35L668.74 242.20L672.05 241.96L672.96 238.68L673.03 234.42L673.07 231.64L673.06 227.64L673.18 224.02L673.27 221.90L673.41 218.56L673.48 215.63L673.54 213.52L673.68 209.34L673.90 205.86L674.13 201.25L673.60 197.63L674.28 194.23L674.37 190.88L674.30 185.97L674.25 183.41L674.25 180.32L674.40 176.86L674.65 171.36L674.86 168.41L675.07 165.48L675.36 161.23L675.63 157.51L675.23 153.36L675.99 148.84L676.42 145.79L676.67 143.51L676.14 139.98L670.74 139.90L665.81 139.34L662.22 138.58L660.05 137.94L658.60 136.10L658.38 133.19L658.60 128.81L658.59 126.45L658.60 123.89L659.11 118.56L659.15 116.26L659.21 113.42L659.49 111.22L660.08 106.61L660.61 103.72L661.05 101.10L662.48 97.49L664.19 93.25L663.58 90.49L662.85 87.17L662.14 84.16L661.62 81.81L660.64 77.41L659.49 72.20L658.79 69.09L658.07 65.85L656.96 60.83L656.14 57.29L649.40 54.91L646.98 53.99L644.65 52.40L641.09 50.00L635.99 46.58L634.25 45.42L630.98 43.72L627.39 41.97L624.38 40.22L621.85 38.76L618.10 37.04L614.44 35.37L610.30 33.70L608.31 32.90L604.06 29.67L601.91 28.03L600.15 26.17L597.60 23.49L594.39 20.11L591.39 16.38L589.60 14.16L588.28 12.53L585.73 11.43L582.64 10.09L576.15 7.29L572.35 5.26L565.40 2.15L561.13 0.00L559.57 3.32L557.37 8.01L551.94 19.59L543.97 36.47L542.01 40.21L531.77 59.20L525.30 72.67L522.79 77.88L519.46 87.66L517.68 92.89L513.63 104.79L512.86 107.06L509.45 113.50L506.85 118.42L502.68 126.29L501.06 129.37L494.17 142.39L488.99 152.17L482.17 165.06L477.06 174.71L470.49 187.14L468.72 190.49L463.19 200.93L460.44 206.14L451.77 222.53L448.11 229.43L440.79 243.29L433.71 253.92L431.75 254.27L432.99 254.99L434.22 255.70L438.92 258.52L441.55 260.10L443.64 261.34L446.93 263.33L449.57 264.99L452.58 266.94L455.56 268.97L458.53 271.18L460.58 272.60L463.06 275.09L465.72 277.87L467.27 279.51L469.83 283.06L471.65 285.47L473.05 287.81L474.55 290.29L476.17 292.86L477.60 295.15L478.86 297.11L480.50 299.89L485.08 300.10L487.30 299.60L489.90 298.83L492.15 297.64L493.93 296.53L496.45 294.95L499.21 293.79L501.36 293.07L503.65 292.34L507.10 292.13L509.21 291.96L511.44 291.46L514.96 290.73L518.24 290.33L522.00 289.74L524.32 289.28L526.89 288.77L529.57 288.28L531.70 288.12L534.97 287.95L539.16 287.60L542.53 286.67L545.21 285.96L550.26 284.67L553.90 283.61L557.12 282.40L562.23 280.10L565.71 278.40L570.00 277.17L572.63 276.46L574.97 275.96L579.05 275.25L585.06 275.54L590.34 275.38L593.89 274.13Z" data-ward="1" /><path id="ward-2" class="ward" d="M763.19 274.78L760.80 273.84L750.87 269.93L747.80 259.98L746.63 256.21L747.72 250.58L749.18 243.03L750.88 237.10L752.19 232.52L752.56 228.35L753.08 222.59L752.29 212.22L751.14 206.12L748.87 197.41L746.22 192.66L741.14 184.23L739.44 171.31L737.01 152.85L734.70 135.36L733.61 126.69L731.97 122.85L728.63 114.80L726.82 110.42L724.52 105.54L720.64 97.30L717.99 91.67L710.88 84.88L699.67 74.20L696.89 72.53L694.17 70.78L682.15 66.44L678.79 65.22L675.33 63.97L671.35 62.53L667.84 61.26L663.53 59.80L659.71 58.50L656.14 57.29L656.96 60.83L658.07 65.85L658.79 69.09L659.49 72.20L660.64 77.41L661.62 81.81L662.14 84.16L662.85 87.17L663.58 90.49L664.19 93.25L662.48 97.49L661.05 101.10L660.61 103.72L660.08 106.61L659.49 111.22L659.21 113.42L659.15 116.26L659.11 118.56L658.60 123.89L658.59 126.45L658.60 128.81L658.38 133.19L658.60 136.10L660.05 137.94L662.22 138.58L665.81 139.34L670.74 139.90L676.14 139.98L676.67 143.51L676.42 145.79L675.99 148.84L675.23 153.36L675.63 157.51L675.36 161.23L675.07 165.48L674.86 168.41L674.65 171.36L674.40 176.86L674.25 180.32L674.25 183.41L674.30 185.97L674.37 190.88L674.28 194.23L673.60 197.63L674.13 201.25L673.90 205.86L673.68 209.34L673.54 213.52L673.48 215.63L673.41 218.56L673.27 221.90L673.18 224.02L673.06 227.64L673.07 231.64L673.03 234.42L672.96 238.68L672.05 241.96L668.74 242.20L666.57 242.35L664.23 242.52L661.83 242.69L659.67 242.85L655.60 243.17L653.29 243.35L648.19 243.74L644.97 243.77L640.87 243.79L637.64 243.80L635.36 243.81L632.27 243.85L626.49 243.85L624.08 243.90L621.49 244.03L619.29 244.14L617.05 244.26L614.90 244.37L612.61 244.48L610.47 244.59L606.24 244.81L602.31 245.01L597.14 245.27L593.10 247.12L592.80 249.94L592.70 252.34L592.88 254.60L593.07 256.93L593.26 259.25L593.56 262.86L593.65 265.39L593.76 268.01L593.81 270.63L593.89 274.13L590.34 275.38L585.06 275.54L579.05 275.25L574.97 275.96L572.63 276.46L570.00 277.17L565.71 278.40L562.23 280.10L557.12 282.40L553.90 283.61L555.00 287.03L556.68 289.84L558.95 291.41L561.24 292.10L562.76 294.33L563.05 296.65L564.69 299.02L568.70 299.83L571.57 302.88L572.93 306.21L573.71 308.16L575.76 312.94L576.33 315.37L576.00 318.62L573.67 320.50L572.09 319.09L569.92 319.49L569.15 323.70L569.58 326.00L570.25 329.04L570.56 332.51L570.06 336.55L567.85 336.96L564.48 337.58L561.42 338.14L558.48 338.69L555.68 338.84L552.84 339.15L548.02 339.59L543.54 340.07L539.00 340.26L534.70 339.87L530.79 339.48L527.94 339.15L526.90 341.42L526.68 344.35L526.49 346.72L526.05 349.91L525.61 354.24L525.35 357.58L525.38 361.18L526.00 366.52L528.53 366.38L531.71 365.71L534.07 365.21L538.47 364.34L542.25 365.72L543.68 368.28L543.76 371.16L546.14 373.31L547.87 375.47L550.52 378.32L552.78 381.89L553.91 385.35L554.67 388.89L555.02 391.53L555.12 396.43L552.54 399.57L551.14 401.45L551.29 405.33L551.05 408.36L551.10 410.48L551.17 412.97L550.91 415.09L551.11 418.65L553.63 420.23L556.60 420.25L559.11 420.25L561.39 420.15L563.94 419.91L566.17 419.69L569.14 418.79L572.11 418.43L574.88 418.06L576.99 417.77L579.48 421.73L581.11 424.20L581.95 427.82L578.50 429.63L575.92 432.70L577.18 435.23L578.74 437.24L579.11 439.36L581.69 445.00L584.28 445.01L588.08 444.68L592.05 444.40L596.42 444.62L599.05 444.55L601.43 444.45L603.53 444.44L605.99 444.43L609.08 443.82L611.53 443.34L613.07 440.59L612.74 438.45L612.30 435.87L612.19 433.23L612.53 429.15L612.59 426.76L609.80 419.39L610.30 414.95L613.77 412.15L614.49 409.35L614.97 405.84L615.21 402.38L613.74 399.13L612.37 396.15L606.66 397.67L603.20 396.67L599.86 394.52L598.46 392.68L598.80 388.70L595.36 381.49L595.26 379.21L599.75 373.90L603.73 373.02L607.31 373.29L610.75 372.87L613.67 372.54L616.58 372.22L619.69 372.01L622.77 371.80L625.57 371.50L628.07 371.23L632.03 371.17L635.90 371.09L642.33 370.78L645.71 370.55L649.64 370.60L654.81 371.06L658.44 370.91L661.65 370.77L664.62 370.74L669.38 370.46L669.78 367.16L669.65 361.56L669.68 356.36L670.22 350.39L670.63 345.03L672.88 345.02L677.70 344.87L681.96 345.09L684.39 344.85L689.71 344.21L692.06 343.93L695.69 343.77L699.29 343.62L703.72 343.79L707.02 343.82L709.07 340.76L712.37 338.17L718.37 334.69L722.90 332.06L727.35 331.73L733.62 331.75L737.52 332.26L742.96 333.66L753.68 337.49L758.67 338.48L762.82 339.29L771.51 333.54L774.21 330.31L776.63 326.40L779.70 320.50L782.36 315.14L784.83 308.89L786.87 303.73L788.86 296.77L787.68 286.44L785.72 282.63L782.52 279.31L770.93 276.66L763.19 274.78Z" data-ward="2" /><path id="ward-19" class="ward" d="M198.18 1105.65L196.57 1103.27L195.05 1100.77L193.68 1098.70L192.27 1096.42L188.58 1090.97L186.83 1088.69L182.90 1082.47L179.90 1074.99L178.90 1073.04L177.27 1071.13L175.57 1069.55L173.69 1068.23L169.34 1066.40L163.40 1063.02L158.36 1060.96L155.29 1059.93L152.48 1058.96L148.37 1057.17L146.00 1055.68L142.86 1053.96L139.37 1052.77L137.34 1052.01L134.34 1050.66L131.74 1049.60L129.63 1048.87L127.60 1048.13L124.67 1047.19L122.15 1046.45L119.37 1045.58L117.08 1044.77L113.56 1043.78L111.11 1043.01L108.43 1042.38L101.91 1041.01L100.72 1049.72L97.75 1059.11L94.96 1068.06L92.83 1071.73L84.99 1085.24L78.32 1096.74L74.95 1102.54L71.64 1108.26L68.54 1113.60L64.59 1120.29L64.27 1129.29L64.98 1140.57L64.22 1144.93L65.03 1147.02L66.91 1151.88L68.41 1155.73L69.37 1158.20L70.49 1161.08L71.81 1163.30L74.25 1167.41L76.47 1171.14L77.88 1173.66L79.56 1176.72L80.88 1179.24L81.94 1181.26L83.21 1185.05L84.69 1189.47L85.47 1194.06L86.41 1199.61L88.34 1207.30L88.25 1220.10L87.48 1230.94L93.44 1226.02L99.25 1225.02L105.34 1224.10L109.66 1223.47L113.63 1223.11L117.92 1222.98L123.04 1222.76L127.49 1222.75L131.90 1222.69L136.07 1222.90L138.62 1223.18L142.52 1223.89L146.44 1224.88L149.95 1225.66L154.43 1227.07L159.95 1228.46L164.10 1229.18L168.14 1229.54L171.41 1229.63L176.16 1229.98L180.46 1230.62L184.96 1231.08L188.29 1231.29L192.96 1231.39L197.10 1231.31L201.86 1230.97L207.67 1230.76L212.13 1230.05L216.68 1229.76L219.78 1229.20L222.70 1228.57L226.65 1227.72L229.69 1227.22L233.92 1226.16L235.14 1224.10L235.41 1221.12L233.87 1217.47L232.81 1215.11L230.61 1211.07L227.33 1209.25L226.15 1207.04L225.43 1204.17L223.91 1198.50L222.77 1193.72L222.26 1191.10L221.72 1187.49L220.99 1182.92L219.22 1177.52L217.44 1173.68L216.97 1170.35L215.88 1166.60L214.32 1156.26L213.83 1152.44L214.31 1148.91L214.73 1144.70L214.47 1140.82L214.28 1136.73L212.94 1131.02L211.46 1128.88L210.61 1123.70L210.16 1120.32L209.58 1117.81L209.07 1113.87L208.24 1109.45L207.60 1107.26L201.64 1108.34L198.18 1105.65Z" data-ward="19" /><path id="ward-7" class="ward" d="M653.81 709.00L649.02 708.22L646.20 707.55L641.00 706.12L634.39 705.72L629.94 705.75L624.77 706.12L620.20 706.88L619.55 711.10L619.46 714.98L619.40 718.67L619.58 721.56L619.57 725.78L619.88 729.31L620.18 733.54L620.48 738.10L620.25 740.95L620.01 744.58L619.83 747.53L619.70 749.81L619.79 753.18L619.40 755.99L619.69 759.07L620.55 764.16L621.28 766.86L623.07 770.52L624.22 775.45L624.52 777.73L624.83 780.00L625.13 784.92L625.37 789.18L625.60 791.83L625.67 794.57L626.21 797.92L626.80 800.48L627.67 803.69L628.84 809.04L629.47 812.36L629.94 815.32L632.79 818.75L636.21 818.86L640.36 819.03L644.81 818.89L647.14 819.11L649.38 819.42L652.23 819.47L654.55 819.52L657.54 819.77L660.70 820.21L664.71 820.76L667.95 820.43L671.89 822.57L675.87 823.34L680.34 823.31L684.57 823.68L688.82 823.23L692.82 823.05L693.63 826.75L697.31 826.43L700.68 826.05L703.45 826.69L706.18 827.50L708.39 828.08L712.40 828.62L714.55 828.82L717.68 829.84L720.67 831.15L723.45 832.16L726.23 833.17L728.86 834.10L731.38 835.71L731.63 838.07L734.35 838.19L736.90 837.70L739.91 837.49L743.08 837.90L746.20 838.32L750.18 838.04L750.24 835.46L749.76 830.66L749.66 826.99L749.74 823.23L749.60 818.87L748.67 814.75L748.39 810.48L748.12 806.49L747.57 800.96L748.00 797.44L749.06 792.79L749.55 786.94L751.20 784.46L753.70 784.54L756.63 784.46L759.43 785.33L761.87 785.74L764.90 786.03L767.85 786.41L770.77 786.68L772.94 786.98L775.12 786.59L777.81 787.16L781.36 787.43L783.61 787.57L786.12 788.22L787.22 790.83L787.31 793.07L786.14 795.02L784.28 797.92L783.94 800.60L782.92 803.89L786.24 806.43L787.31 808.64L786.64 811.96L782.36 812.94L779.26 813.80L776.45 814.00L773.09 814.64L773.52 818.68L773.44 822.93L772.91 825.51L771.77 828.15L771.74 831.00L771.34 833.14L770.43 836.80L772.77 837.09L775.14 836.89L777.19 836.21L779.52 835.80L782.03 835.17L784.40 834.59L787.02 834.92L791.11 835.14L793.76 835.55L796.29 835.48L798.91 835.81L801.35 836.40L803.58 836.82L805.38 837.88L809.35 838.97L811.70 839.80L814.26 840.50L817.20 840.72L821.39 841.77L824.53 841.81L827.19 842.40L829.71 842.83L831.89 842.99L834.64 843.55L837.72 844.18L840.58 844.59L844.53 845.13L847.04 846.50L846.98 849.94L846.56 853.52L846.02 857.25L846.76 860.12L849.36 860.78L852.06 861.17L855.69 861.27L854.84 866.02L851.70 870.11L849.09 872.93L848.01 877.56L851.47 875.98L854.42 875.04L856.96 874.25L860.75 872.09L864.65 869.79L866.88 868.67L875.98 864.57L877.26 856.79L879.20 854.39L879.30 852.84L880.94 851.97L884.96 851.04L885.37 846.57L882.58 805.42L878.93 805.60L874.45 805.83L870.89 806.00L870.30 803.91L869.65 801.62L876.61 784.16L877.59 776.80L878.18 772.44L878.58 768.04L878.78 765.24L878.95 762.31L879.16 758.80L879.44 753.90L880.03 749.23L880.29 746.89L877.50 745.99L875.20 745.39L872.66 744.74L869.18 743.29L864.38 741.59L860.20 740.11L857.22 739.29L854.16 738.27L851.60 737.72L847.77 737.18L845.35 736.78L842.82 736.55L839.88 736.46L836.71 736.15L833.55 735.83L829.24 735.62L826.18 735.22L822.88 734.98L818.35 734.20L813.99 733.55L808.46 732.31L805.36 731.84L802.25 731.37L798.66 731.31L794.94 730.80L792.60 730.37L789.41 730.08L786.22 729.78L782.09 729.32L778.98 728.98L775.67 728.48L772.99 728.07L768.97 727.36L766.21 726.87L762.49 726.11L760.18 725.58L756.10 724.45L752.64 723.37L748.48 721.90L745.45 720.84L742.75 720.21L740.13 719.77L737.30 719.14L733.68 717.96L731.08 717.26L727.22 716.12L725.14 715.59L720.72 714.47L716.36 712.66L713.05 711.40L709.17 710.21L705.12 709.24L702.68 709.01L699.20 708.36L696.51 708.15L691.09 708.38L689.11 710.01L686.10 710.07L682.57 709.98L676.77 709.20L671.54 708.44L667.96 708.73L664.13 709.31L659.63 709.37L653.81 709.00Z" data-ward="7" /><path id="ward-16" class="ward" d="M569.57 970.92L566.93 970.74L564.47 969.83L560.17 968.55L556.60 967.72L552.98 967.58L548.11 967.08L543.67 966.90L541.30 966.59L537.82 966.41L533.60 965.94L528.69 965.42L525.09 965.29L521.47 964.85L518.87 964.79L514.12 964.48L510.10 964.35L507.58 963.97L504.35 963.50L501.12 963.01L499.05 962.65L496.09 961.87L493.09 961.64L491.54 966.08L488.15 968.20L487.59 971.72L487.05 975.44L486.77 978.92L489.51 981.10L486.02 984.20L483.53 988.16L483.71 991.59L479.19 993.13L476.78 993.36L474.64 993.47L471.64 993.80L469.21 995.00L462.66 996.18L460.52 996.50L455.28 997.78L453.19 998.09L450.84 998.12L447.31 996.96L442.95 997.28L442.29 1000.40L442.40 1004.49L443.05 1007.32L443.51 1010.83L443.70 1014.74L443.69 1017.11L444.12 1021.25L446.51 1023.49L451.66 1023.46L458.33 1023.58L464.63 1025.29L464.46 1031.30L463.94 1036.49L463.98 1039.52L463.58 1044.33L463.30 1047.65L466.03 1050.14L468.87 1050.97L472.01 1050.29L476.30 1049.83L482.07 1050.76L485.60 1052.09L487.54 1055.16L488.81 1057.19L484.63 1059.83L478.84 1062.12L475.89 1063.29L472.97 1064.70L470.03 1066.56L466.86 1068.34L463.90 1069.62L460.54 1071.06L457.33 1072.42L455.32 1073.24L452.65 1074.87L449.87 1076.55L446.00 1078.25L442.52 1079.71L440.08 1081.09L437.96 1082.85L434.65 1084.61L432.45 1085.62L429.91 1086.11L426.82 1088.47L424.52 1089.10L422.21 1090.58L419.74 1092.64L417.28 1094.91L415.55 1096.41L413.55 1098.39L411.54 1100.41L409.62 1101.84L407.41 1103.89L405.09 1106.21L403.31 1108.72L401.38 1110.63L398.87 1111.22L396.57 1110.86L394.37 1110.49L389.46 1109.91L388.39 1115.86L387.90 1118.87L387.44 1123.53L387.25 1125.82L386.69 1130.67L386.34 1133.28L385.95 1136.13L385.37 1139.20L384.87 1141.75L384.14 1147.24L383.38 1153.05L383.01 1155.95L382.50 1159.83L381.89 1163.79L381.40 1166.87L380.96 1169.75L380.22 1173.88L379.81 1176.09L379.37 1178.32L377.47 1183.94L376.40 1187.09L375.64 1189.36L374.25 1191.85L372.12 1195.56L370.93 1197.64L368.77 1201.51L372.51 1201.96L376.37 1202.23L380.51 1201.82L384.65 1201.72L386.89 1201.79L391.04 1201.67L394.51 1201.59L401.30 1203.65L404.74 1204.66L407.49 1205.57L409.80 1206.17L420.08 1208.41L424.65 1209.76L430.57 1210.94L436.21 1212.35L438.47 1212.64L443.20 1213.48L448.01 1213.99L452.93 1214.78L456.38 1215.24L462.31 1215.98L468.55 1217.01L471.24 1217.08L474.63 1216.84L477.99 1216.61L486.11 1216.03L492.69 1215.57L498.79 1215.13L501.69 1214.92L508.28 1214.34L513.35 1213.88L516.49 1213.60L521.53 1213.07L520.92 1210.09L520.16 1207.53L519.44 1205.13L518.89 1202.28L519.08 1197.44L519.83 1193.64L520.41 1190.00L520.42 1185.40L519.32 1182.86L518.58 1180.58L518.21 1176.87L517.78 1174.53L517.01 1171.87L515.82 1167.02L514.20 1162.25L513.36 1159.48L513.40 1157.03L513.59 1154.14L513.54 1149.52L512.82 1145.77L511.85 1141.43L511.59 1137.00L511.30 1133.80L509.84 1129.70L508.48 1126.22L507.52 1122.27L507.05 1116.82L506.68 1111.63L505.32 1108.15L502.65 1105.39L501.78 1102.88L500.93 1099.92L499.64 1097.90L498.49 1094.88L498.75 1091.41L498.90 1089.08L498.86 1083.93L499.11 1081.55L499.41 1079.02L499.87 1076.63L500.43 1074.38L500.92 1072.33L502.45 1065.38L503.18 1062.70L503.85 1059.51L505.24 1052.88L505.69 1048.59L507.74 1047.66L510.90 1046.33L514.59 1044.46L518.10 1042.61L521.36 1040.99L526.42 1038.41L530.23 1036.57L535.51 1034.06L538.28 1032.66L540.37 1031.32L542.80 1030.26L546.45 1028.76L548.85 1027.69L552.53 1025.64L548.30 1024.05L544.71 1022.75L541.28 1021.11L539.02 1017.96L536.98 1014.11L535.29 1010.60L534.75 1007.25L538.12 1005.58L540.35 1004.96L543.24 1005.31L548.38 1005.63L552.21 1006.02L555.49 1005.99L561.40 1006.83L566.60 1007.69L569.30 1008.20L570.33 1004.23L570.69 998.39L571.40 996.01L573.29 992.53L575.63 988.44L576.40 986.38L577.96 979.89L577.84 977.62L577.65 974.93L577.10 970.68L574.88 971.16L572.47 971.29L569.57 970.92Z" data-ward="16" /><path id="ward-9" class="ward" d="M602.87 707.02L597.94 706.44L592.66 708.83L589.86 710.79L587.27 711.58L584.14 712.37L580.28 712.79L577.85 712.95L572.90 713.01L570.22 713.48L568.16 713.87L564.67 714.50L560.43 715.27L557.97 715.73L555.40 716.22L553.34 716.59L549.60 716.87L544.16 715.95L541.83 717.80L541.85 720.52L541.62 726.38L541.49 728.71L541.29 731.57L541.24 734.08L541.93 737.19L541.95 739.37L542.02 742.78L541.36 746.51L540.17 750.39L539.39 754.15L539.02 756.99L538.85 761.02L539.32 764.45L538.94 769.76L537.03 773.00L535.47 774.86L533.93 777.06L533.13 781.68L532.66 786.32L532.79 789.71L533.29 793.65L533.75 796.52L533.97 799.79L535.07 802.40L538.30 804.62L537.69 808.96L536.52 811.81L534.78 813.66L532.68 818.45L531.61 822.66L530.69 825.73L529.82 830.88L529.58 834.22L529.29 837.31L529.29 840.85L529.44 843.44L529.26 847.87L528.92 850.83L528.12 852.99L527.86 856.22L533.09 857.49L537.07 857.14L541.52 857.07L543.88 857.31L548.86 859.80L550.98 859.99L554.37 860.28L556.83 859.96L560.18 859.81L562.92 859.83L565.01 860.21L566.59 861.83L567.32 863.88L568.61 865.96L569.42 867.98L568.93 871.15L567.49 875.13L566.14 877.98L563.18 885.10L561.80 889.45L562.21 891.82L566.41 893.81L569.02 894.47L570.48 898.05L570.00 901.10L574.71 903.57L579.28 905.15L581.99 905.85L585.16 906.01L587.38 905.94L589.12 904.28L590.19 900.16L590.49 897.39L591.61 892.28L592.97 889.29L596.87 889.18L600.30 888.96L604.67 889.24L606.76 889.42L611.22 889.97L615.05 890.28L617.41 890.52L620.09 890.62L624.01 890.65L626.60 890.59L632.54 890.44L635.10 889.09L637.50 888.08L638.95 884.31L642.26 881.70L643.59 877.73L644.78 874.36L647.08 874.78L651.71 877.75L654.50 879.53L657.91 879.93L661.26 880.33L662.16 874.63L663.84 869.49L665.56 867.25L666.89 865.39L667.60 862.38L668.06 859.85L668.11 857.26L667.90 854.02L668.00 851.23L668.41 848.38L670.76 848.56L675.54 849.10L677.72 849.08L681.76 848.43L684.53 849.88L687.88 848.09L689.99 847.57L692.09 847.21L695.03 847.17L697.52 847.34L700.07 847.83L703.61 847.57L706.20 847.33L709.13 847.25L711.52 846.68L714.33 846.34L716.41 846.14L719.36 845.89L721.43 845.65L725.95 844.73L727.16 841.47L731.63 838.07L731.38 835.71L728.86 834.10L726.23 833.17L723.45 832.16L720.67 831.15L717.68 829.84L714.55 828.82L712.40 828.62L708.39 828.08L706.18 827.50L703.45 826.69L700.68 826.05L697.31 826.43L693.63 826.75L692.82 823.05L688.82 823.23L684.57 823.68L680.34 823.31L675.87 823.34L671.89 822.57L667.95 820.43L664.71 820.76L660.70 820.21L657.54 819.77L654.55 819.52L652.23 819.47L649.38 819.42L647.14 819.11L644.81 818.89L640.36 819.03L636.21 818.86L632.79 818.75L629.94 815.32L629.47 812.36L628.84 809.04L627.67 803.69L626.80 800.48L626.21 797.92L625.67 794.57L625.60 791.83L625.37 789.18L625.13 784.92L624.83 780.00L624.52 777.73L624.22 775.45L623.07 770.52L621.28 766.86L620.55 764.16L619.69 759.07L619.40 755.99L619.79 753.18L619.70 749.81L619.83 747.53L620.01 744.58L620.25 740.95L620.48 738.10L620.18 733.54L619.88 729.31L619.57 725.78L619.58 721.56L619.40 718.67L619.46 714.98L619.55 711.10L620.20 706.88L617.97 706.69L614.63 706.97L610.15 707.35L607.50 707.58L602.87 707.02Z" data-ward="9" /><path id="ward-22" class="ward" d="M299.22 742.94L274.69 721.84L264.90 713.42L260.62 709.75L232.13 683.35L210.48 692.01L189.45 700.43L170.76 709.44L150.84 719.04L131.14 728.54L119.82 734.00L98.93 744.07L89.31 751.51L98.91 754.44L111.26 758.60L157.84 800.86L174.28 813.17L182.34 819.24L196.70 852.90L199.80 857.10L202.91 861.30L218.91 880.69L220.90 883.71L222.88 886.72L229.55 894.07L228.81 902.26L239.41 915.21L239.01 928.32L245.72 931.13L251.94 934.33L257.79 937.73L261.27 940.26L263.52 942.49L266.81 946.36L272.54 950.60L275.11 951.43L279.00 951.83L281.62 952.10L287.26 952.70L290.04 953.14L297.16 954.70L299.59 955.09L302.00 955.83L304.06 956.46L306.14 957.01L310.50 957.66L314.47 957.54L320.04 957.81L322.26 957.91L326.41 958.11L329.36 957.93L332.31 957.76L336.12 957.21L339.13 956.76L344.34 956.02L346.99 955.34L350.65 954.56L354.31 953.77L357.46 953.30L360.54 952.47L363.53 952.58L365.74 952.49L368.69 952.49L372.78 952.64L379.57 952.47L383.18 952.56L387.63 952.88L390.90 952.78L394.68 952.96L399.73 952.54L403.72 951.86L406.29 951.57L406.67 948.45L405.87 944.84L405.38 942.08L404.27 935.50L403.69 932.89L402.69 928.34L401.78 924.25L401.17 921.55L399.84 915.51L398.85 911.88L398.25 909.71L397.48 905.09L397.17 900.26L397.24 896.62L397.50 893.87L398.02 891.66L399.38 886.39L399.92 884.34L400.47 882.26L402.23 876.03L404.01 870.75L404.95 867.72L405.99 864.41L407.54 859.36L409.22 853.97L411.33 849.13L412.35 846.94L413.44 844.60L414.67 840.48L416.24 836.16L418.06 831.53L418.95 829.35L419.97 826.86L422.04 821.72L422.76 819.37L423.44 817.23L425.17 813.21L427.84 807.55L429.20 804.66L430.61 801.77L434.10 796.27L435.39 794.24L437.22 790.59L438.75 787.25L433.89 785.37L430.22 782.34L427.76 782.46L425.70 781.51L422.25 782.61L419.40 782.86L415.81 782.11L412.98 780.83L409.92 782.22L406.27 784.46L402.37 785.94L397.11 785.81L393.63 785.60L389.96 785.38L386.41 785.53L380.41 785.57L377.41 785.38L373.44 785.30L371.18 785.25L367.33 783.46L368.11 780.86L369.29 776.17L371.96 770.07L372.99 767.83L375.39 761.42L373.01 759.99L368.81 758.66L366.25 758.56L361.91 758.29L359.43 757.25L355.53 755.81L353.26 755.10L349.11 754.16L346.33 753.51L343.55 752.86L333.45 750.47L329.60 749.74L308.73 751.22L299.22 742.94Z" data-ward="22" /><path id="ward-24" class="ward" d="M480.50 299.89L478.86 297.11L477.60 295.15L476.17 292.86L474.55 290.29L473.05 287.81L471.65 285.47L469.83 283.06L467.27 279.51L465.72 277.87L463.06 275.09L460.58 272.60L458.53 271.18L455.56 268.97L452.58 266.94L449.57 264.99L446.93 263.33L443.64 261.34L441.55 260.10L438.92 258.52L434.22 255.70L432.26 256.13L430.64 258.71L429.43 262.53L428.16 264.34L426.21 271.03L423.23 278.61L421.77 286.26L418.64 294.70L418.61 304.17L420.64 312.52L426.02 319.89L429.99 328.10L437.87 335.52L443.45 340.15L444.16 340.98L446.06 345.22L449.34 352.54L454.84 374.03L450.82 399.07L445.25 433.74L441.23 458.79L440.52 463.23L438.46 466.54L438.09 471.69L435.90 476.63L436.25 496.82L435.56 506.30L434.83 516.16L434.14 525.64L433.79 530.51L433.42 535.46L432.29 539.86L430.79 545.65L429.45 550.85L428.67 553.86L432.70 554.38L436.97 554.55L441.54 555.36L444.41 555.74L449.70 556.88L451.83 557.20L454.47 557.51L463.41 564.46L469.49 569.18L471.74 570.15L475.08 568.39L477.49 567.93L479.67 567.53L482.27 567.55L484.87 567.74L487.54 567.04L489.66 567.79L491.89 567.54L491.82 564.09L494.14 562.48L496.78 562.47L500.30 561.80L502.56 559.81L505.75 559.47L508.85 558.86L511.32 558.47L514.47 558.44L516.67 560.41L516.45 562.95L516.10 565.54L514.03 569.42L512.80 571.99L508.65 574.06L507.12 577.56L506.44 580.22L505.52 582.30L504.97 586.01L504.73 588.10L500.74 591.59L499.24 593.25L499.14 595.73L505.07 596.06L509.09 595.80L512.05 595.64L515.88 595.90L518.11 596.19L521.58 596.66L524.49 597.37L527.17 598.12L529.49 598.80L534.12 599.11L538.29 599.31L540.48 599.41L544.46 599.12L544.61 596.40L544.79 593.24L545.31 589.77L545.84 586.30L546.64 582.49L547.66 577.70L548.56 572.34L549.37 566.74L549.92 563.54L550.47 560.33L551.76 552.55L552.67 546.49L553.81 538.18L554.07 535.63L554.47 531.68L554.86 526.48L556.02 523.74L560.23 523.11L564.93 522.71L569.70 521.95L573.25 521.52L576.78 521.10L580.15 520.63L583.12 520.30L588.15 519.74L591.26 519.40L594.48 519.21L597.71 518.94L601.57 518.75L605.20 518.46L608.97 518.75L614.33 518.36L616.60 518.31L622.99 518.10L627.58 517.95L630.05 517.91L632.52 517.87L634.91 517.91L637.30 517.94L639.73 517.99L647.04 518.04L649.35 518.22L651.66 518.40L655.12 518.85L658.37 518.94L663.87 519.08L668.55 518.93L672.17 519.02L677.21 519.13L681.71 519.06L684.08 519.02L688.57 518.66L693.07 518.30L698.55 517.27L698.51 513.61L698.32 509.53L698.53 505.09L698.50 500.75L698.34 496.07L698.92 492.75L699.84 488.10L699.93 485.55L700.24 481.71L700.22 479.01L700.43 476.09L700.58 471.21L700.72 468.61L700.87 465.79L700.31 463.49L695.66 462.52L691.16 462.12L687.88 461.75L685.36 462.60L682.66 463.52L676.42 464.04L671.18 464.15L668.69 464.21L667.82 458.16L667.40 455.50L667.60 451.26L667.47 448.05L665.37 446.66L662.43 446.90L659.50 446.99L655.69 447.53L651.93 448.11L649.73 448.44L645.41 448.51L642.66 447.55L640.14 445.87L635.88 445.12L632.88 444.90L629.71 444.23L626.02 443.49L623.03 443.14L620.45 442.80L618.00 442.80L611.53 443.34L609.08 443.82L605.99 444.43L603.53 444.44L601.43 444.45L599.05 444.55L596.42 444.62L592.05 444.40L588.08 444.68L584.28 445.01L581.69 445.00L579.11 439.36L578.74 437.24L577.18 435.23L575.92 432.70L578.50 429.63L581.95 427.82L581.11 424.20L579.48 421.73L576.99 417.77L574.88 418.06L572.11 418.43L569.14 418.79L566.17 419.69L563.94 419.91L561.39 420.15L559.11 420.25L556.60 420.25L553.63 420.23L551.11 418.65L550.91 415.09L551.17 412.97L551.10 410.48L551.05 408.36L551.29 405.33L551.14 401.45L552.54 399.57L555.12 396.43L555.02 391.53L554.67 388.89L553.91 385.35L552.78 381.89L550.52 378.32L547.87 375.47L546.14 373.31L543.76 371.16L543.68 368.28L542.25 365.72L538.47 364.34L534.07 365.21L531.71 365.71L528.53 366.38L526.00 366.52L525.38 361.18L525.35 357.58L525.61 354.24L526.05 349.91L526.49 346.72L526.68 344.35L526.90 341.42L527.94 339.15L530.79 339.48L534.70 339.87L539.00 340.26L543.54 340.07L548.02 339.59L552.84 339.15L555.68 338.84L558.48 338.69L561.42 338.14L564.48 337.58L567.85 336.96L570.06 336.55L570.56 332.51L570.25 329.04L569.58 326.00L569.15 323.70L569.92 319.49L572.09 319.09L573.67 320.50L576.00 318.62L576.33 315.37L575.76 312.94L573.71 308.16L572.93 306.21L571.57 302.88L568.70 299.83L564.69 299.02L563.05 296.65L562.76 294.33L561.24 292.10L558.95 291.41L556.68 289.84L555.00 287.03L553.90 283.61L550.26 284.67L545.21 285.96L542.53 286.67L539.16 287.60L534.97 287.95L531.70 288.12L529.57 288.28L526.89 288.77L524.32 289.28L522.00 289.74L518.24 290.33L514.96 290.73L511.44 291.46L509.21 291.96L507.10 292.13L503.65 292.34L501.36 293.07L499.21 293.79L496.45 294.95L493.93 296.53L492.15 297.64L489.90 298.83L487.30 299.60L485.08 300.10L480.50 299.89Z" data-ward="24" /><path id="ward-12" class="ward" d="M771.34 955.54L771.31 952.04L771.42 948.30L771.59 944.45L771.59 940.82L771.52 937.33L771.79 933.06L771.95 929.35L772.10 925.36L771.72 921.26L771.20 918.23L769.89 915.09L769.25 912.86L765.11 913.92L762.21 914.87L758.88 916.36L755.92 917.46L753.24 918.32L750.31 919.78L747.35 921.10L744.10 922.12L741.59 922.94L738.97 923.70L736.19 924.99L733.20 926.14L730.33 926.99L727.42 927.67L723.45 929.15L721.15 930.12L718.73 930.92L716.49 932.01L713.96 932.97L711.43 933.94L708.82 935.15L706.51 936.34L703.39 937.74L700.62 939.08L698.23 940.74L694.03 943.31L692.08 944.25L690.22 945.58L687.94 946.91L685.84 948.19L683.68 949.86L681.41 951.22L678.91 952.77L676.42 954.18L674.51 955.46L671.26 958.75L674.51 958.71L678.83 958.99L681.20 959.48L684.62 960.26L688.90 961.22L692.15 961.49L694.42 961.50L697.94 961.43L700.53 961.85L703.49 961.96L706.15 962.44L709.26 962.99L712.45 963.25L717.18 963.89L719.99 967.68L719.85 972.06L719.52 975.99L719.35 979.66L719.44 982.24L720.03 990.24L720.50 994.14L721.14 999.85L721.46 1002.35L721.79 1006.03L721.97 1009.08L722.28 1011.80L723.96 1014.61L726.13 1016.54L726.85 1019.97L727.02 1022.34L726.88 1026.25L727.08 1029.39L726.77 1034.61L726.75 1036.79L726.63 1041.40L726.28 1043.90L724.72 1046.69L723.64 1048.93L722.06 1051.97L720.45 1057.50L719.67 1062.01L718.59 1066.13L717.58 1069.35L716.67 1072.56L716.19 1076.68L715.94 1080.35L716.17 1084.86L711.20 1087.96L708.72 1087.53L704.17 1087.27L701.91 1087.54L698.55 1087.98L696.22 1088.37L689.71 1091.23L683.73 1092.58L681.28 1092.68L675.60 1092.20L670.32 1091.50L668.14 1091.35L662.40 1090.93L657.98 1090.42L655.14 1090.67L651.32 1091.17L647.80 1095.71L646.80 1102.18L646.61 1105.12L646.65 1107.37L646.68 1109.62L647.91 1113.50L648.84 1116.42L651.19 1120.35L651.90 1122.64L651.64 1126.53L650.87 1130.56L650.82 1134.23L652.61 1140.04L655.22 1144.98L655.83 1147.01L656.20 1150.43L655.77 1152.96L655.14 1155.13L653.85 1159.13L653.40 1162.57L653.72 1165.86L654.12 1168.38L656.04 1172.34L659.74 1172.97L661.31 1176.13L661.55 1178.34L660.57 1182.72L661.41 1188.22L663.46 1191.98L664.11 1196.43L664.34 1198.55L664.89 1203.04L670.34 1204.26L674.68 1203.94L677.96 1203.42L680.26 1202.87L686.18 1200.95L689.64 1199.98L692.31 1199.19L694.38 1198.59L698.05 1198.01L700.22 1197.68L702.66 1197.59L706.26 1197.48L712.18 1197.40L716.47 1197.25L719.08 1197.03L725.74 1196.36L728.16 1196.13L732.34 1195.81L736.52 1195.58L739.78 1195.53L741.91 1195.40L745.43 1194.99L749.21 1194.68L752.89 1194.68L755.94 1194.77L758.57 1194.24L760.89 1194.24L765.50 1194.31L771.32 1194.27L773.53 1194.20L775.87 1194.22L782.46 1193.98L784.78 1193.05L784.55 1190.60L784.49 1187.87L784.42 1185.44L784.74 1180.24L785.25 1176.14L785.66 1173.83L785.88 1171.38L786.74 1168.29L787.70 1164.40L788.99 1158.64L789.60 1154.40L790.13 1149.79L791.44 1145.77L792.22 1142.75L792.64 1139.75L793.45 1135.26L793.43 1133.12L794.51 1127.62L795.06 1123.07L795.17 1120.81L795.13 1118.23L794.65 1115.09L793.85 1112.46L793.64 1108.51L793.62 1104.31L793.92 1099.74L792.73 1097.59L788.74 1096.79L785.56 1094.92L786.02 1091.89L786.32 1089.50L783.63 1087.39L781.37 1087.02L778.68 1085.58L776.25 1082.24L776.42 1078.04L776.50 1075.65L776.63 1072.49L776.76 1069.40L777.05 1067.00L777.82 1061.03L777.83 1057.09L778.26 1052.63L778.62 1049.64L779.21 1045.12L777.39 1043.19L775.17 1042.72L771.21 1041.49L768.67 1041.36L766.57 1040.95L765.70 1035.82L765.77 1033.22L765.83 1030.97L764.91 1026.97L764.63 1023.40L763.76 1019.52L763.75 1017.34L764.13 1014.38L764.77 1010.54L765.86 1007.72L766.76 1005.78L768.69 1002.93L770.12 996.41L770.50 991.61L770.74 987.43L771.29 982.49L771.99 978.31L772.46 975.30L772.25 972.59L772.17 969.84L773.72 964.82L771.37 960.39L771.34 955.54Z" data-ward="12" /><path id="ward-14" class="ward" d="M712.10 1204.13L712.12 1201.44L712.18 1197.40L706.26 1197.48L702.66 1197.59L700.22 1197.68L698.05 1198.01L694.38 1198.59L692.31 1199.19L689.64 1199.98L686.18 1200.95L680.26 1202.87L677.96 1203.42L674.68 1203.94L670.34 1204.26L664.89 1203.04L660.22 1203.34L655.40 1202.74L645.28 1201.35L640.62 1201.85L636.83 1202.45L634.53 1202.83L631.96 1203.19L628.89 1203.99L624.59 1204.62L621.23 1205.50L617.56 1206.30L614.37 1207.13L612.00 1207.68L607.84 1208.67L604.00 1209.22L600.60 1209.35L598.05 1209.15L592.25 1209.26L588.17 1209.25L581.85 1209.27L577.67 1209.73L574.66 1210.02L571.83 1209.76L569.59 1210.39L567.35 1211.03L564.10 1211.86L560.81 1212.77L556.79 1213.04L554.44 1212.88L551.79 1212.75L548.66 1212.36L546.35 1212.28L543.25 1212.00L541.05 1212.07L534.73 1212.49L528.06 1213.29L524.29 1213.49L521.53 1213.07L516.49 1213.60L513.35 1213.88L514.96 1217.41L514.07 1221.26L511.96 1225.66L510.83 1230.67L511.71 1233.38L511.84 1236.35L512.22 1241.48L512.88 1244.83L513.27 1246.91L513.27 1249.20L513.10 1252.50L512.49 1256.27L515.53 1256.27L520.65 1256.21L524.37 1255.75L528.06 1256.03L532.60 1256.04L538.66 1256.38L544.72 1257.92L549.12 1258.71L551.46 1258.60L554.61 1258.09L556.85 1257.89L559.22 1261.81L558.98 1266.87L558.89 1272.78L559.31 1277.44L556.72 1279.01L554.92 1282.59L553.71 1284.72L550.98 1287.29L547.18 1290.59L545.93 1294.44L544.51 1298.05L543.82 1300.45L543.57 1302.72L543.46 1305.52L543.41 1308.82L543.72 1313.59L543.72 1316.96L543.02 1319.95L540.94 1322.08L538.72 1322.45L536.62 1323.88L536.88 1326.30L538.10 1332.52L538.57 1337.30L537.88 1341.48L541.19 1342.31L545.11 1341.71L547.95 1340.78L552.00 1339.57L555.07 1338.81L558.61 1337.93L564.27 1336.78L565.24 1338.77L565.81 1341.26L569.09 1343.04L572.52 1342.91L575.97 1342.78L579.37 1342.51L582.19 1342.28L587.74 1341.91L593.09 1341.65L596.99 1341.46L600.10 1341.02L603.03 1340.60L608.91 1339.46L610.95 1338.62L613.86 1337.81L617.45 1336.81L619.72 1336.33L623.29 1336.92L625.73 1337.33L631.00 1337.25L635.69 1336.20L640.28 1335.17L643.76 1333.84L647.20 1332.53L649.33 1331.42L652.45 1329.79L658.29 1329.63L663.65 1329.22L668.73 1328.65L672.22 1328.26L675.77 1327.86L680.91 1327.29L685.96 1324.70L692.01 1323.75L694.43 1323.41L696.77 1323.04L702.08 1321.69L704.99 1321.17L708.59 1320.52L713.61 1318.81L715.93 1318.01L715.56 1313.62L717.66 1313.66L721.45 1313.74L727.04 1314.26L730.78 1313.88L734.26 1314.22L738.83 1314.66L743.01 1315.14L747.75 1315.68L748.59 1313.25L749.36 1309.11L750.71 1304.79L751.40 1301.03L747.36 1300.96L747.81 1288.30L749.13 1281.67L751.19 1279.10L749.69 1269.85L750.78 1262.40L750.71 1259.55L750.63 1256.71L745.95 1256.51L741.95 1258.43L739.29 1259.31L735.82 1260.55L730.35 1262.59L727.32 1262.38L724.09 1262.38L719.76 1262.43L716.83 1262.08L714.80 1260.66L712.77 1259.90L711.91 1255.73L715.72 1249.10L716.23 1245.90L716.19 1240.96L716.01 1236.85L715.71 1234.64L713.50 1227.83L712.75 1225.20L712.48 1222.75L712.81 1220.23L712.80 1216.96L712.20 1210.37L712.11 1208.14L712.10 1204.13Z" data-ward="14" /><path id="ward-23" class="ward" d="M469.49 569.18L463.41 564.46L454.47 557.51L451.83 557.20L449.70 556.88L444.41 555.74L441.54 555.36L436.97 554.55L432.70 554.38L428.67 553.86L426.72 561.41L424.74 569.07L422.44 577.97L419.94 587.63L416.79 589.91L413.18 592.53L399.75 602.27L388.89 610.14L378.79 617.46L376.28 618.91L370.98 621.72L358.84 628.13L342.69 636.66L323.13 646.95L321.08 647.77L283.88 662.65L251.10 675.76L232.13 683.35L260.62 709.75L264.90 713.42L274.69 721.84L299.22 742.94L308.73 751.22L329.60 749.74L333.45 750.47L343.55 752.86L346.33 753.51L349.11 754.16L353.26 755.10L355.53 755.81L359.43 757.25L361.91 758.29L366.25 758.56L368.81 758.66L373.01 759.99L375.39 761.42L372.99 767.83L371.96 770.07L369.29 776.17L368.11 780.86L367.33 783.46L371.18 785.25L373.44 785.30L377.41 785.38L380.41 785.57L386.41 785.53L389.96 785.38L393.63 785.60L397.11 785.81L402.37 785.94L406.27 784.46L409.92 782.22L412.98 780.83L415.81 782.11L419.40 782.86L422.25 782.61L425.70 781.51L427.76 782.46L430.22 782.34L433.89 785.37L438.75 787.25L441.02 784.70L442.47 783.10L450.76 774.02L457.79 767.19L460.54 764.55L462.83 762.35L464.52 760.72L469.32 756.05L471.65 753.67L474.29 750.96L476.46 748.74L480.24 744.85L481.65 743.24L487.11 736.97L490.80 733.65L496.02 731.77L498.93 730.76L501.37 729.92L503.89 729.05L508.69 727.45L517.75 724.83L521.67 723.73L529.63 721.82L531.88 721.29L536.72 720.06L541.83 717.80L544.16 715.95L549.60 716.87L553.34 716.59L555.40 716.22L557.97 715.73L560.43 715.27L564.67 714.50L568.16 713.87L570.22 713.48L572.90 713.01L577.85 712.95L580.28 712.79L584.14 712.37L587.27 711.58L589.86 710.79L592.66 708.83L597.94 706.44L598.17 702.03L595.92 699.79L591.56 700.55L589.61 698.12L589.36 694.94L591.92 691.49L590.62 689.29L586.24 688.30L585.13 686.22L585.38 681.39L585.96 676.65L586.62 672.86L590.61 673.43L594.16 671.58L592.42 669.50L590.71 668.23L588.61 667.26L586.03 665.21L584.66 663.50L582.37 661.04L576.73 659.65L572.89 660.22L569.73 659.25L565.58 658.71L563.49 658.60L562.51 660.89L558.40 662.03L550.70 661.95L547.18 661.29L541.86 660.28L540.24 658.01L542.55 645.36L543.30 635.20L543.59 631.33L544.56 621.77L544.98 617.64L544.88 614.16L544.66 605.58L544.46 599.12L540.48 599.41L538.29 599.31L534.12 599.11L529.49 598.80L527.17 598.12L524.49 597.37L521.58 596.66L518.11 596.19L515.88 595.90L512.05 595.64L509.09 595.80L505.07 596.06L499.14 595.73L499.24 593.25L500.74 591.59L504.73 588.10L504.97 586.01L505.52 582.30L506.44 580.22L507.12 577.56L508.65 574.06L512.80 571.99L514.03 569.42L516.10 565.54L516.45 562.95L516.67 560.41L514.47 558.44L511.32 558.47L508.85 558.86L505.75 559.47L502.56 559.81L500.30 561.80L496.78 562.47L494.14 562.48L491.82 564.09L491.89 567.54L489.66 567.79L487.54 567.04L484.87 567.74L482.27 567.55L479.67 567.53L477.49 567.93L475.08 568.39L471.74 570.15L469.49 569.18Z" data-ward="23" /><path id="ward-3" class="ward" d="M707.02 343.82L703.72 343.79L699.29 343.62L695.69 343.77L692.06 343.93L689.71 344.21L684.39 344.85L681.96 345.09L677.70 344.87L672.88 345.02L670.63 345.03L670.22 350.39L669.68 356.36L669.65 361.56L669.78 367.16L669.38 370.46L664.62 370.74L661.65 370.77L658.44 370.91L654.81 371.06L649.64 370.60L645.71 370.55L642.33 370.78L635.90 371.09L632.03 371.17L628.07 371.23L625.57 371.50L622.77 371.80L619.69 372.01L616.58 372.22L613.67 372.54L610.75 372.87L607.31 373.29L603.73 373.02L599.75 373.90L595.26 379.21L595.36 381.49L598.80 388.70L598.46 392.68L599.86 394.52L603.20 396.67L606.66 397.67L612.37 396.15L613.74 399.13L615.21 402.38L614.97 405.84L614.49 409.35L613.77 412.15L610.30 414.95L609.80 419.39L612.59 426.76L612.53 429.15L612.19 433.23L612.30 435.87L612.74 438.45L613.07 440.59L611.53 443.34L618.00 442.80L620.45 442.80L623.03 443.14L626.02 443.49L629.71 444.23L632.88 444.90L635.88 445.12L640.14 445.87L642.66 447.55L645.41 448.51L649.73 448.44L651.93 448.11L655.69 447.53L659.50 446.99L662.43 446.90L665.37 446.66L667.47 448.05L667.60 451.26L667.40 455.50L667.82 458.16L668.69 464.21L671.18 464.15L676.42 464.04L682.66 463.52L685.36 462.60L687.88 461.75L691.16 462.12L695.66 462.52L700.31 463.49L700.87 465.79L700.72 468.61L700.58 471.21L700.43 476.09L700.22 479.01L700.24 481.71L699.93 485.55L699.84 488.10L698.92 492.75L698.34 496.07L698.50 500.75L698.53 505.09L698.32 509.53L698.51 513.61L698.55 517.27L693.07 518.30L688.57 518.66L684.08 519.02L681.71 519.06L677.21 519.13L672.17 519.02L668.55 518.93L663.87 519.08L658.37 518.94L655.12 518.85L654.21 523.30L653.70 527.26L653.66 530.55L653.85 534.88L653.87 538.46L654.07 541.20L653.16 543.78L652.25 546.36L649.28 547.44L643.37 547.93L641.52 549.59L640.48 553.76L641.15 557.77L641.41 561.25L641.36 563.76L644.12 564.18L646.48 565.45L646.30 567.73L646.16 571.19L647.21 573.85L647.47 576.05L647.52 580.12L651.16 582.38L653.81 585.27L654.27 588.11L654.38 590.38L658.04 591.95L661.31 591.80L663.57 591.68L667.99 591.37L670.52 591.03L674.67 591.10L675.38 593.70L674.63 597.01L674.44 600.56L676.66 602.86L681.32 602.80L684.40 602.94L687.83 603.18L693.43 603.44L697.62 603.76L700.95 603.86L704.05 603.76L706.58 603.51L710.93 603.59L713.14 603.42L716.95 603.10L719.22 602.74L724.13 601.96L722.28 597.37L722.73 591.13L723.03 586.83L723.04 584.09L723.02 581.23L723.17 574.41L723.76 569.53L725.60 566.84L726.44 564.58L726.17 558.26L725.89 556.06L725.17 550.60L724.31 544.91L723.84 537.73L723.32 532.38L722.93 525.49L722.84 520.48L729.97 518.72L737.59 520.06L740.16 520.00L745.50 519.77L748.11 519.84L751.96 519.93L754.15 519.95L756.33 519.98L764.77 519.99L769.35 520.20L771.97 520.21L778.01 520.21L780.21 520.74L787.13 521.40L791.05 521.73L801.21 523.51L806.26 523.96L813.24 524.54L819.58 525.36L822.11 525.14L824.30 522.31L827.33 516.52L836.58 510.72L834.20 506.06L834.16 492.72L836.47 486.55L835.99 477.27L835.66 470.74L834.69 457.87L834.18 455.30L830.48 436.81L828.28 427.41L826.11 422.02L823.83 416.33L821.32 410.08L819.60 405.80L815.54 397.43L813.49 395.89L805.49 389.91L800.94 385.13L794.27 383.12L791.83 382.38L788.01 382.13L780.96 381.66L777.14 381.41L767.94 380.10L760.70 381.27L753.41 382.45L745.93 383.66L738.32 384.88L731.57 383.46L722.28 381.78L715.38 376.41L713.73 373.52L710.93 368.64L709.49 366.12L706.79 360.09L704.96 355.29L705.34 353.16L706.44 347.04L707.02 343.82Z" data-ward="3" /><path id="ward-21" class="ward" d="M266.81 946.36L263.52 942.49L261.27 940.26L257.79 937.73L251.94 934.33L253.93 938.28L253.68 941.42L252.75 943.95L251.80 945.94L250.21 947.76L247.94 947.13L243.97 945.27L241.25 944.36L239.25 946.99L238.62 949.20L237.87 951.23L236.95 953.85L234.44 960.33L233.44 962.66L232.51 964.77L231.26 967.58L230.27 969.86L229.05 971.94L227.97 974.06L225.71 976.40L224.53 978.15L223.42 980.85L222.51 983.09L221.88 985.26L221.58 987.50L221.88 990.11L222.05 992.42L221.10 997.18L220.46 1000.32L220.02 1002.92L219.78 1005.05L219.28 1010.02L219.10 1012.57L218.90 1016.56L216.97 1018.34L212.72 1017.78L207.41 1016.85L204.75 1018.65L202.23 1024.30L201.31 1027.55L200.26 1030.47L199.22 1033.49L198.67 1037.08L200.66 1040.10L202.22 1043.98L200.78 1047.64L197.78 1051.44L196.60 1053.42L194.58 1058.13L197.98 1062.35L203.44 1062.87L206.65 1063.12L211.32 1063.47L216.14 1064.33L219.65 1065.45L223.11 1067.30L226.10 1068.54L227.36 1071.56L227.96 1073.90L227.99 1077.50L232.74 1077.87L238.19 1077.73L243.31 1078.25L246.75 1078.57L249.78 1078.56L252.81 1078.54L257.22 1078.18L263.58 1078.15L266.84 1078.15L269.45 1078.12L272.07 1078.09L276.93 1077.86L280.32 1073.62L281.88 1069.86L282.83 1067.51L283.72 1064.83L285.00 1059.81L286.84 1055.99L288.47 1053.79L292.79 1054.08L297.74 1055.92L302.56 1057.62L303.98 1059.46L303.11 1062.90L301.43 1066.61L300.13 1069.51L298.93 1072.20L298.61 1074.99L299.12 1077.85L303.96 1079.06L307.62 1079.03L311.53 1078.64L314.46 1078.15L319.13 1078.08L324.16 1078.30L329.54 1078.79L332.86 1079.46L336.81 1079.97L340.02 1080.18L343.77 1080.25L346.20 1080.20L348.65 1080.14L352.41 1079.88L356.19 1079.61L360.00 1078.90L362.90 1078.37L365.23 1077.87L369.15 1077.53L373.05 1077.04L376.67 1076.59L383.15 1076.03L388.99 1075.98L391.45 1075.48L396.22 1074.42L395.67 1076.94L394.77 1081.15L394.19 1083.80L393.08 1088.90L391.88 1094.34L390.59 1100.56L390.28 1103.08L390.02 1105.39L389.46 1109.91L394.37 1110.49L396.57 1110.86L398.87 1111.22L401.38 1110.63L403.31 1108.72L405.09 1106.21L407.41 1103.89L409.62 1101.84L411.54 1100.41L413.55 1098.39L415.55 1096.41L417.28 1094.91L419.74 1092.64L422.21 1090.58L424.52 1089.10L426.82 1088.47L429.91 1086.11L432.45 1085.62L434.65 1084.61L437.96 1082.85L440.08 1081.09L442.52 1079.71L446.00 1078.25L449.87 1076.55L452.65 1074.87L455.32 1073.24L457.33 1072.42L460.54 1071.06L463.90 1069.62L466.86 1068.34L470.03 1066.56L472.97 1064.70L475.89 1063.29L478.84 1062.12L484.63 1059.83L488.81 1057.19L487.54 1055.16L485.60 1052.09L482.07 1050.76L476.30 1049.83L472.01 1050.29L468.87 1050.97L466.03 1050.14L463.30 1047.65L463.58 1044.33L463.98 1039.52L463.94 1036.49L464.46 1031.30L464.63 1025.29L458.33 1023.58L451.66 1023.46L446.51 1023.49L444.12 1021.25L443.69 1017.11L443.70 1014.74L443.51 1010.83L443.05 1007.32L442.40 1004.49L442.29 1000.40L442.95 997.28L447.31 996.96L450.84 998.12L453.19 998.09L455.28 997.78L460.52 996.50L462.66 996.18L469.21 995.00L471.64 993.80L474.64 993.47L476.78 993.36L479.19 993.13L483.71 991.59L483.53 988.16L486.02 984.20L489.51 981.10L486.77 978.92L487.05 975.44L487.59 971.72L488.15 968.20L491.54 966.08L493.09 961.64L489.12 960.25L486.08 959.61L480.62 958.77L477.67 958.57L473.93 958.27L469.76 958.72L466.71 959.37L463.31 960.10L459.57 960.49L456.51 960.72L454.03 960.43L451.55 960.15L449.10 959.96L446.49 959.75L442.93 958.92L438.03 957.77L434.89 957.09L432.43 956.45L429.63 955.93L424.70 955.04L421.04 954.31L417.63 953.50L415.45 953.28L413.26 953.05L406.29 951.57L403.72 951.86L399.73 952.54L394.68 952.96L390.90 952.78L387.63 952.88L383.18 952.56L379.57 952.47L372.78 952.64L368.69 952.49L365.74 952.49L363.53 952.58L360.54 952.47L357.46 953.30L354.31 953.77L350.65 954.56L346.99 955.34L344.34 956.02L339.13 956.76L336.12 957.21L332.31 957.76L329.36 957.93L326.41 958.11L322.26 957.91L320.04 957.81L314.47 957.54L310.50 957.66L306.14 957.01L304.06 956.46L302.00 955.83L299.59 955.09L297.16 954.70L290.04 953.14L287.26 952.70L281.62 952.10L279.00 951.83L275.11 951.43L272.54 950.60L266.81 946.36Z" data-ward="21" /><path id="ward-6" class="ward" d="M655.12 518.85L651.66 518.40L649.35 518.22L647.04 518.04L639.73 517.99L637.30 517.94L634.91 517.91L632.52 517.87L630.05 517.91L627.58 517.95L622.99 518.10L616.60 518.31L614.33 518.36L608.97 518.75L605.20 518.46L601.57 518.75L597.71 518.94L594.48 519.21L591.26 519.40L588.15 519.74L583.12 520.30L580.15 520.63L576.78 521.10L573.25 521.52L569.70 521.95L564.93 522.71L560.23 523.11L556.02 523.74L554.86 526.48L554.47 531.68L554.07 535.63L553.81 538.18L552.67 546.49L551.76 552.55L550.47 560.33L549.92 563.54L549.37 566.74L548.56 572.34L547.66 577.70L546.64 582.49L545.84 586.30L545.31 589.77L544.79 593.24L544.61 596.40L544.46 599.12L544.66 605.58L544.88 614.16L544.98 617.64L544.56 621.77L543.59 631.33L543.30 635.20L542.55 645.36L540.24 658.01L541.86 660.28L547.18 661.29L550.70 661.95L558.40 662.03L562.51 660.89L563.49 658.60L565.58 658.71L569.73 659.25L572.89 660.22L576.73 659.65L582.37 661.04L584.66 663.50L586.03 665.21L588.61 667.26L590.71 668.23L592.42 669.50L594.16 671.58L590.61 673.43L586.62 672.86L585.96 676.65L585.38 681.39L585.13 686.22L586.24 688.30L590.62 689.29L591.92 691.49L589.36 694.94L589.61 698.12L591.56 700.55L595.92 699.79L598.17 702.03L597.94 706.44L602.87 707.02L607.50 707.58L610.15 707.35L614.63 706.97L617.97 706.69L620.20 706.88L624.77 706.12L629.94 705.75L634.39 705.72L641.00 706.12L646.20 707.55L649.02 708.22L653.81 709.00L659.63 709.37L664.13 709.31L667.96 708.73L671.54 708.44L676.77 709.20L682.57 709.98L686.10 710.07L689.11 710.01L691.09 708.38L691.00 704.47L690.95 698.17L689.07 692.79L688.48 688.53L689.14 683.37L689.69 680.03L689.99 677.73L690.22 674.50L690.91 670.88L691.59 665.37L692.03 661.90L692.89 658.51L694.04 655.28L693.62 648.92L694.12 646.43L695.09 644.16L698.13 643.22L700.50 642.45L704.35 640.91L707.14 639.13L709.83 637.71L712.41 636.94L715.38 636.89L717.73 636.27L719.39 634.36L720.34 631.81L724.34 630.88L727.78 630.75L730.68 630.61L735.04 630.54L737.58 630.87L741.03 630.81L744.55 631.29L748.33 632.46L748.24 636.67L749.06 640.86L753.30 640.34L757.53 640.45L760.41 640.86L763.01 641.19L767.43 641.29L771.40 641.67L774.23 641.56L778.70 642.45L781.28 642.36L785.45 642.35L787.54 642.41L789.61 642.71L791.74 643.01L795.32 643.34L795.88 640.62L796.08 636.98L796.16 634.80L796.27 630.79L797.59 626.80L798.84 624.71L798.61 622.36L798.32 619.64L798.51 616.90L798.52 614.77L798.40 612.41L798.62 609.61L798.96 607.00L799.15 604.03L797.92 601.34L794.35 599.31L794.57 597.00L795.53 591.49L790.28 592.02L785.40 590.39L781.99 589.38L778.40 589.00L775.82 588.75L773.73 589.23L770.94 591.10L768.08 592.58L765.45 593.33L761.09 595.13L758.66 596.21L755.95 597.41L753.08 598.64L747.75 598.90L743.20 598.29L738.45 597.13L735.28 598.45L730.05 601.64L724.13 601.96L719.22 602.74L716.95 603.10L713.14 603.42L710.93 603.59L706.58 603.51L704.05 603.76L700.95 603.86L697.62 603.76L693.43 603.44L687.83 603.18L684.40 602.94L681.32 602.80L676.66 602.86L674.44 600.56L674.63 597.01L675.38 593.70L674.67 591.10L670.52 591.03L667.99 591.37L663.57 591.68L661.31 591.80L658.04 591.95L654.38 590.38L654.27 588.11L653.81 585.27L651.16 582.38L647.52 580.12L647.47 576.05L647.21 573.85L646.16 571.19L646.30 567.73L646.48 565.45L644.12 564.18L641.36 563.76L641.41 561.25L641.15 557.77L640.48 553.76L641.52 549.59L643.37 547.93L649.28 547.44L652.25 546.36L653.16 543.78L654.07 541.20L653.87 538.46L653.85 534.88L653.66 530.55L653.70 527.26L654.21 523.30L655.12 518.85Z" data-ward="6" /><path id="ward-13" class="ward" d="M822.43 981.16L818.80 980.98L815.67 980.04L813.17 978.85L809.49 977.85L804.94 977.02L801.40 976.34L794.75 975.10L790.82 973.72L787.49 972.59L783.98 971.01L779.98 968.52L777.79 967.22L773.72 964.82L772.17 969.84L772.25 972.59L772.46 975.30L771.99 978.31L771.29 982.49L770.74 987.43L770.50 991.61L770.12 996.41L768.69 1002.93L766.76 1005.78L765.86 1007.72L764.77 1010.54L764.13 1014.38L763.75 1017.34L763.76 1019.52L764.63 1023.40L764.91 1026.97L765.83 1030.97L765.77 1033.22L765.70 1035.82L766.57 1040.95L768.67 1041.36L771.21 1041.49L775.17 1042.72L777.39 1043.19L779.21 1045.12L778.62 1049.64L778.26 1052.63L777.83 1057.09L777.82 1061.03L777.05 1067.00L776.76 1069.40L776.63 1072.49L776.50 1075.65L776.42 1078.04L776.25 1082.24L778.68 1085.58L781.37 1087.02L783.63 1087.39L786.32 1089.50L786.02 1091.89L785.56 1094.92L788.74 1096.79L792.73 1097.59L793.92 1099.74L793.62 1104.31L793.64 1108.51L793.85 1112.46L794.65 1115.09L795.13 1118.23L795.17 1120.81L795.06 1123.07L794.51 1127.62L793.43 1133.12L793.45 1135.26L792.64 1139.75L792.22 1142.75L791.44 1145.77L790.13 1149.79L789.60 1154.40L788.99 1158.64L787.70 1164.40L786.74 1168.29L785.88 1171.38L785.66 1173.83L785.25 1176.14L784.74 1180.24L784.42 1185.44L784.49 1187.87L784.55 1190.60L784.78 1193.05L782.46 1193.98L775.87 1194.22L773.53 1194.20L771.32 1194.27L765.50 1194.31L760.89 1194.24L758.57 1194.24L755.94 1194.77L752.89 1194.68L749.21 1194.68L745.43 1194.99L741.91 1195.40L739.78 1195.53L736.52 1195.58L732.34 1195.81L728.16 1196.13L725.74 1196.36L719.08 1197.03L716.47 1197.25L712.18 1197.40L712.12 1201.44L712.10 1204.13L712.11 1208.14L712.20 1210.37L712.80 1216.96L712.81 1220.23L712.48 1222.75L712.75 1225.20L713.50 1227.83L715.71 1234.64L716.01 1236.85L716.19 1240.96L716.23 1245.90L715.72 1249.10L711.91 1255.73L712.77 1259.90L714.80 1260.66L716.83 1262.08L719.76 1262.43L724.09 1262.38L727.32 1262.38L730.35 1262.59L735.82 1260.55L739.29 1259.31L741.95 1258.43L745.95 1256.51L750.63 1256.71L750.71 1259.55L750.78 1262.40L749.69 1269.85L751.19 1279.10L749.13 1281.67L747.81 1288.30L747.36 1300.96L751.40 1301.03L750.71 1304.79L754.87 1302.46L759.60 1302.07L766.41 1302.60L770.73 1301.16L771.44 1297.93L773.79 1292.21L777.46 1292.53L781.09 1292.85L785.50 1292.83L787.33 1289.75L790.14 1288.15L793.23 1286.39L795.64 1286.30L799.71 1286.15L801.91 1285.57L804.22 1284.95L817.04 1284.41L821.01 1284.24L824.44 1284.37L824.17 1279.89L825.92 1277.42L830.00 1272.19L829.91 1270.04L830.27 1267.27L830.82 1263.87L832.35 1261.63L834.16 1259.89L840.07 1256.92L842.98 1256.07L845.90 1255.23L852.46 1253.30L856.45 1252.73L860.43 1252.16L864.77 1250.87L868.10 1248.53L868.14 1244.98L868.59 1241.09L871.51 1244.12L873.88 1246.87L877.25 1248.98L880.68 1247.98L886.51 1245.56L890.04 1244.30L892.97 1243.61L896.17 1242.78L899.38 1243.72L897.17 1236.25L893.41 1224.46L879.73 1225.87L880.81 1190.19L882.59 1187.99L890.25 1187.08L891.84 1176.56L899.99 1172.95L897.77 1171.43L896.74 1168.14L894.64 1162.90L897.05 1160.44L899.30 1159.63L902.78 1158.39L905.85 1157.29L908.58 1156.31L911.50 1155.20L910.51 1152.40L908.52 1146.44L904.28 1146.50L903.84 1142.73L899.82 1139.25L883.28 1139.71L880.12 1135.34L872.16 1135.16L872.72 1126.65L866.86 1124.16L867.50 1119.02L864.60 1112.56L870.80 1093.88L875.30 1093.86L878.61 1073.38L875.20 1046.13L873.25 1043.83L874.14 1036.07L874.98 1031.60L876.22 1024.99L878.43 1025.27L888.13 1026.52L892.42 1027.08L891.14 1016.56L894.25 1015.13L897.39 1011.00L903.14 1009.92L908.14 1008.99L915.05 1007.69L914.94 998.09L914.83 988.12L884.08 986.52L880.35 985.91L875.76 985.69L871.25 985.52L868.42 984.98L863.11 984.68L859.51 983.91L854.08 983.48L850.47 982.90L845.33 982.56L842.06 981.69L838.90 981.33L834.80 981.35L830.84 981.00L826.91 980.96L824.83 981.26L822.43 981.16Z" data-ward="13" /></svg>