<svg viewBox="0 0 1000.00 668.62" xmlns="http://www.w3.org/2000/svg"><style>.ward { fill: #e2e8f0; stroke: #fff; stroke-width: 0.5px; } .ward:hover { fill: #cbd5e1; }</style><path id="ward-3" class="ward" d="M563.70 55.00L561.88 55.24L560.34 55.22L559.00 55.19L557.48 55.17L555.97 55.14L554.62 55.12L552.11 55.11L547.87 55.15L546.37 55.16L544.93 55.18L542.92 55.22L539.34 55.18L537.93 55.15L534.49 55.01L531.74 54.99L529.59 55.16L527.07 55.35L523.76 55.52L521.72 55.58L518.41 56.19L516.84 56.62L515.08 57.10L515.70 61.38L516.04 63.72L516.46 67.29L516.86 70.84L517.10 73.56L517.23 75.04L517.35 76.40L517.90 82.68L518.10 85.47L518.27 87.98L518.26 91.08L518.18 92.53L518.09 94.15L518.01 96.40L517.96 97.81L517.89 99.23L517.82 100.64L517.60 102.54L517.38 104.08L517.02 106.65L516.73 108.45L516.34 111.18L516.09 113.09L515.73 115.76L515.34 118.64L514.96 120.99L514.65 122.96L514.44 124.27L513.98 127.09L513.61 129.40L513.30 131.29L512.97 133.41L512.60 135.85L512.29 137.74L511.98 139.63L511.53 141.58L510.73 144.56L509.78 147.51L508.55 151.86L507.90 154.17L506.33 159.60L506.01 161.28L503.18 171.12L501.87 176.11L501.16 178.90L500.65 181.79L500.40 183.98L500.15 185.80L499.89 187.63L499.60 189.62L499.77 197.80L499.91 203.35L499.92 206.01L500.01 211.09L499.89 212.34L499.61 214.96L499.39 224.73L499.61 226.77L500.12 230.16L501.92 229.93L505.57 230.96L511.20 232.55L514.44 233.29L517.12 233.83L519.08 234.26L521.06 234.69L524.11 235.31L528.94 237.26L529.49 236.17L533.11 235.75L535.66 235.45L538.43 235.09L539.80 234.91L543.23 234.39L544.96 234.12L546.79 233.79L549.69 233.09L550.84 232.79L553.06 232.15L554.96 231.50L556.78 230.62L558.35 229.86L559.73 229.19L560.98 228.59L562.78 227.73L566.73 225.99L568.71 225.27L570.01 224.81L571.94 223.76L573.00 223.18L575.33 221.93L577.34 220.97L578.68 220.33L580.18 219.61L581.27 219.09L583.11 218.19L584.62 217.14L586.31 218.74L587.02 219.79L587.77 220.92L588.62 222.20L589.46 223.44L590.26 224.64L591.69 226.78L592.67 228.13L594.32 230.39L595.16 231.90L596.16 233.89L597.81 237.63L598.26 238.70L598.79 240.09L599.29 242.33L599.55 243.46L599.99 245.41L600.33 246.97L600.70 248.65L601.00 250.01L601.28 251.27L601.58 252.61L601.92 254.17L604.12 254.47L606.43 253.66L611.87 251.79L610.97 249.13L613.14 249.03L615.34 248.44L617.45 247.50L618.95 246.78L620.00 246.28L621.10 245.75L622.28 245.18L623.28 244.23L623.67 243.09L624.82 241.76L626.81 240.94L628.05 240.44L630.21 239.56L631.45 239.06L632.70 238.85L633.23 240.24L633.99 242.23L634.42 243.35L634.91 244.63L635.74 246.81L636.33 248.35L636.76 249.47L637.25 250.76L638.88 250.95L640.20 250.48L642.00 250.13L643.66 249.96L644.36 250.96L644.90 252.28L645.33 253.35L645.78 254.54L646.53 256.26L647.46 258.21L648.08 259.52L648.58 260.57L649.09 261.65L649.99 263.54L651.13 265.92L652.35 265.05L654.98 263.16L658.66 260.52L662.43 259.01L668.59 259.75L670.68 259.65L672.75 259.33L674.76 258.78L675.28 257.10L675.36 255.20L675.30 253.63L675.19 250.82L675.40 247.58L675.97 242.23L676.42 239.59L676.96 237.46L677.92 233.70L678.38 231.85L678.70 230.61L679.07 229.19L679.17 227.35L679.25 225.81L679.27 224.04L679.35 218.55L679.29 216.83L678.03 216.81L676.09 216.62L673.10 216.70L671.29 216.75L669.92 216.93L665.94 217.45L664.62 217.53L664.18 215.23L663.97 214.09L663.62 210.81L662.18 204.88L660.66 205.43L656.82 206.97L654.12 208.39L651.48 209.75L648.26 210.59L646.10 211.35L643.45 212.32L640.78 213.63L636.81 215.00L635.23 211.49L634.06 208.82L632.20 205.57L630.71 202.98L629.80 201.33L628.82 199.72L627.94 198.08L627.06 196.44L625.80 193.36L623.54 187.77L623.00 186.23L622.37 184.76L621.10 182.48L616.81 183.40L610.56 184.31L607.13 184.51L605.18 184.75L603.57 184.89L601.95 185.04L599.93 185.18L598.67 185.25L592.86 185.18L590.92 185.14L584.14 186.76L582.24 186.96L580.74 187.04L579.02 186.67L577.74 185.79L576.53 184.43L574.59 182.18L573.20 180.36L570.41 176.72L569.20 175.12L567.16 171.84L566.21 170.41L565.44 169.20L564.84 167.57L564.30 166.06L563.78 164.64L563.09 162.74L562.06 159.89L560.46 155.12L560.03 153.82L559.60 152.54L558.84 149.68L561.59 148.72L561.13 136.61L561.09 134.67L561.04 131.44L560.82 130.20L560.99 128.90L560.90 127.47L560.94 125.91L560.95 124.57L561.05 121.53L561.23 114.29L561.46 112.35L561.51 111.08L561.65 107.87L561.84 103.61L561.92 101.85L561.96 100.59L561.99 98.54L561.95 96.21L561.93 94.91L561.92 93.61L561.91 92.36L561.76 91.17L561.50 89.11L561.31 87.61L561.12 86.28L560.93 84.97L560.74 83.65L560.52 82.34L560.59 80.97L560.69 78.88L560.79 76.64L560.88 74.82L560.97 72.97L560.89 71.54L560.95 70.33L561.24 69.05L561.51 67.82L561.77 66.64L561.99 64.86L562.28 62.44L562.49 60.65L563.11 59.06L563.84 56.98L563.70 55.00Z" data-ward="3" /><path id="ward-8" class="ward" d="M834.30 529.29L828.80 529.94L827.42 530.38L824.60 532.71L823.21 533.00L821.41 533.40L819.25 533.86L817.37 534.11L815.47 534.36L812.54 534.71L810.51 534.30L807.67 534.08L805.63 534.94L801.59 537.79L801.51 540.50L797.39 539.34L786.15 538.33L779.08 537.71L777.61 537.55L776.14 537.38L774.49 537.15L772.26 536.95L769.53 533.83L767.13 533.47L765.18 533.34L763.22 533.20L761.60 533.21L757.18 533.21L752.25 533.21L748.55 533.25L747.04 533.09L744.61 532.82L742.76 532.51L738.86 532.16L736.25 531.93L733.14 532.54L730.01 533.15L726.50 533.99L722.70 535.28L720.96 535.35L717.87 534.89L715.13 534.53L713.92 534.60L711.20 534.03L707.57 533.27L705.52 533.38L703.51 534.28L700.93 535.61L699.13 536.62L695.94 537.86L694.78 538.31L693.05 538.85L690.13 539.33L687.76 539.42L686.31 539.41L682.86 539.26L675.74 538.45L674.39 538.73L670.52 539.21L666.93 539.45L664.56 539.49L662.04 538.50L661.44 543.84L660.56 546.00L659.69 548.18L658.73 550.80L658.10 553.85L657.46 556.94L655.90 558.61L654.01 560.78L653.12 562.09L652.36 563.17L651.12 564.93L650.43 565.93L649.72 566.96L648.91 568.14L647.02 569.98L645.94 571.03L645.02 571.93L643.46 573.45L642.12 575.82L640.57 578.53L639.78 579.49L638.76 580.75L637.33 582.72L635.43 584.99L634.24 586.34L633.05 587.68L631.55 589.41L628.25 590.90L622.50 593.50L617.55 597.49L615.70 599.00L613.69 600.64L609.12 605.68L608.07 606.87L607.13 608.16L605.76 610.04L603.32 613.36L602.52 614.45L601.00 616.52L599.68 618.82L598.47 620.95L597.76 623.02L596.88 624.38L595.98 625.75L594.78 627.47L592.80 630.32L591.68 631.99L590.78 633.29L589.85 634.63L589.05 635.52L588.33 637.37L589.93 638.26L592.59 639.42L594.76 639.74L597.31 639.99L599.48 640.56L601.63 641.34L603.07 641.89L606.11 643.06L608.27 644.02L611.37 645.40L612.74 643.79L613.62 642.74L614.69 641.47L616.28 639.60L617.10 638.63L618.06 637.49L619.14 636.21L620.91 634.12L622.45 633.49L623.76 632.96L625.76 632.14L626.98 631.65L628.15 631.17L637.98 627.16L645.18 629.01L646.82 629.43L649.13 630.30L652.32 631.50L653.61 631.98L656.37 633.05L659.70 634.33L661.29 634.94L662.71 635.49L664.39 636.13L666.84 637.06L669.33 638.02L673.18 639.49L674.78 640.10L676.44 640.73L680.21 642.16L684.37 643.04L685.75 643.35L688.12 643.85L692.50 644.79L695.48 644.96L699.07 645.17L704.40 645.50L706.47 645.58L711.58 645.90L715.29 646.12L716.87 646.19L721.53 646.41L726.40 646.64L729.86 646.81L733.63 647.02L737.00 647.21L743.23 647.90L746.29 647.70L747.43 647.20L748.75 646.61L750.20 645.97L753.35 644.57L754.49 644.07L756.56 643.15L757.86 642.58L762.63 639.81L768.64 636.31L771.51 633.09L774.93 629.34L777.55 626.48L778.95 624.94L782.79 620.75L784.36 620.52L786.71 620.18L788.08 620.31L790.50 620.60L793.08 620.86L796.02 623.18L798.25 624.92L800.54 628.32L802.26 630.86L803.77 633.10L805.09 635.37L806.46 637.96L807.13 639.25L808.01 640.90L808.27 642.19L809.03 646.03L809.55 648.66L810.10 651.50L810.44 652.99L811.04 655.68L812.11 657.02L815.51 661.27L816.39 662.38L817.39 663.63L818.35 664.83L819.33 666.05L821.06 666.87L822.29 667.44L825.63 668.08L828.59 668.62L830.29 668.50L832.47 668.19L833.98 667.97L835.23 667.67L834.89 664.10L834.49 660.87L834.27 659.02L834.11 657.28L833.90 655.01L833.72 653.26L832.81 650.43L832.20 649.44L831.36 647.83L830.68 645.59L830.75 643.62L831.04 641.35L831.06 639.67L830.76 635.34L831.30 634.21L832.14 632.41L832.73 629.56L832.90 627.30L832.57 625.74L831.33 624.21L830.43 622.15L830.45 620.36L831.01 618.72L831.57 617.07L832.13 615.74L833.06 613.58L833.80 612.13L834.61 610.57L835.11 609.45L835.88 607.76L836.85 605.75L837.74 603.80L838.36 601.32L838.49 600.13L838.25 598.00L837.93 596.82L837.61 593.84L837.29 591.18L835.88 586.05L835.02 581.08L834.08 579.34L834.08 577.97L834.10 575.32L834.13 570.72L834.15 569.36L833.86 566.68L833.03 563.63L832.52 557.27L836.63 555.79L836.26 554.32L835.94 551.19L837.45 547.65L839.05 540.45L835.48 538.74L832.73 537.48L832.91 535.85L834.30 529.29Z" data-ward="8" /><path id="ward-12" class="ward" d="M334.89 342.86L330.64 342.29L329.58 341.67L327.88 339.09L325.49 337.90L326.09 335.25L323.67 334.66L321.33 333.94L319.35 332.98L317.80 332.56L317.47 335.10L318.74 338.78L318.87 341.23L318.78 342.46L317.69 345.38L316.46 349.24L314.52 355.66L312.32 364.32L310.94 369.76L309.14 377.36L308.25 385.59L309.95 385.41L314.90 384.70L319.85 383.98L322.32 383.24L323.50 383.67L322.22 385.58L320.83 387.32L319.80 388.65L319.02 389.66L317.96 390.96L316.54 392.84L315.66 393.67L314.93 394.89L314.19 396.28L313.29 398.26L312.15 400.08L311.29 401.50L310.22 403.43L309.21 405.54L308.71 406.81L308.24 408.04L307.42 410.00L306.55 412.56L306.61 414.72L307.08 417.12L307.66 419.31L308.17 421.06L308.90 423.22L310.08 425.45L311.82 426.31L311.27 428.22L310.72 429.55L307.59 429.82L303.45 430.56L301.95 430.98L300.64 431.37L302.36 439.57L302.89 441.90L303.98 446.70L308.14 453.05L314.69 454.21L317.21 477.29L319.55 498.74L318.96 500.92L317.47 506.37L316.86 508.59L314.94 510.04L311.77 528.57L310.48 536.76L310.02 539.67L303.92 577.46L307.84 581.65L310.21 584.18L310.76 586.00L312.34 591.31L316.29 590.94L320.75 590.52L323.98 589.98L326.92 589.50L328.92 589.27L333.38 587.67L336.06 585.08L336.76 584.02L337.53 581.08L337.74 579.01L333.13 576.44L331.71 575.65L329.41 574.74L327.78 574.05L326.58 573.08L324.55 570.89L321.82 567.94L321.66 558.80L326.58 553.87L330.44 550.00L337.18 543.24L341.77 543.06L343.10 543.79L349.07 546.93L351.16 548.03L353.17 548.99L355.93 548.88L359.56 541.71L361.31 538.20L362.63 535.54L366.55 532.23L369.55 529.70L373.61 529.16L376.77 532.42L378.70 533.05L380.91 533.77L382.08 534.15L384.83 534.36L386.73 534.51L387.76 535.23L388.94 536.05L390.36 537.04L392.46 538.50L393.44 539.18L394.47 543.13L395.40 546.65L396.27 549.97L397.12 552.39L398.43 554.76L399.83 557.22L401.70 557.72L403.50 558.21L405.73 558.82L410.56 554.40L411.20 552.93L412.32 550.35L413.08 548.61L414.27 545.85L415.72 544.70L418.88 542.20L420.56 541.95L422.56 541.65L425.01 541.82L426.78 541.95L429.05 542.14L430.23 542.23L432.06 542.38L433.55 545.73L434.86 548.66L435.75 550.65L438.34 552.09L439.88 552.94L442.24 554.23L443.89 555.14L446.09 552.76L447.06 551.71L449.04 549.57L451.49 546.37L453.46 544.56L454.78 546.47L456.09 548.37L456.75 549.54L457.58 551.01L458.72 553.01L461.20 553.88L463.98 554.76L465.78 557.19L467.60 559.66L469.26 561.91L470.69 563.84L475.93 562.20L478.95 561.26L482.49 560.15L485.05 559.35L486.19 560.93L487.46 562.69L489.09 564.95L490.48 566.87L489.48 568.37L487.60 571.21L485.84 573.86L484.09 576.50L481.19 580.47L478.22 584.52L476.80 586.83L475.34 589.18L473.62 592.37L472.62 594.22L474.32 595.31L477.23 597.18L478.91 596.99L481.61 596.67L483.40 595.98L486.43 594.82L489.40 593.18L491.02 591.26L492.32 589.72L494.18 587.58L495.69 585.84L497.06 584.22L498.39 582.66L499.18 581.72L501.44 577.75L502.19 576.44L503.64 573.91L504.37 572.64L505.10 571.36L505.85 570.05L506.58 568.78L508.03 566.25L508.77 564.95L510.23 562.40L510.96 561.13L510.74 559.44L510.07 554.36L509.38 549.12L508.28 540.77L507.19 532.48L503.66 505.54L496.53 451.30L512.48 426.17L513.84 424.03L512.06 423.39L510.28 422.76L507.18 421.83L501.13 420.60L499.81 419.58L495.37 416.15L494.26 415.27L480.36 412.44L480.03 395.54L471.05 387.89L466.54 384.05L465.66 383.31L458.45 390.29L458.67 405.50L453.04 412.71L452.09 412.91L442.81 406.97L431.28 419.32L427.77 423.08L420.29 424.37L415.79 425.15L414.48 425.38L404.68 428.32L387.15 420.22L387.80 415.88L388.26 412.83L388.48 411.40L387.27 411.07L383.01 409.93L380.97 409.72L378.52 409.38L376.70 408.72L375.36 406.45L375.69 401.85L375.53 396.30L372.66 395.46L373.66 394.41L375.91 392.01L376.59 390.60L377.63 388.46L378.48 386.37L379.28 384.65L380.08 383.13L380.78 381.88L381.80 380.24L383.20 378.37L384.58 376.75L385.54 375.73L387.59 373.50L385.82 373.17L383.62 372.65L382.01 372.26L379.79 371.74L377.80 371.26L375.84 370.80L372.98 370.12L371.42 369.68L369.92 369.24L367.48 368.90L362.28 368.32L360.98 365.73L358.24 364.89L356.86 364.52L355.48 364.15L353.84 363.75L351.71 363.21L351.67 362.00L352.73 358.93L354.11 355.31L354.83 352.00L355.96 347.91L355.81 340.41L352.45 340.56L350.78 340.65L347.19 341.10L343.65 341.63L340.32 342.51L337.83 342.96L334.89 342.86Z" data-ward="12" /><path id="ward-13" class="ward" d="M310.02 539.67L310.48 536.76L311.77 528.57L314.94 510.04L316.86 508.59L317.47 506.37L318.96 500.92L319.55 498.74L317.21 477.29L314.69 454.21L308.14 453.05L303.98 446.70L302.89 441.90L302.36 439.57L300.64 431.37L294.59 434.18L291.58 435.72L290.31 436.38L286.75 437.68L282.20 438.59L279.25 439.16L277.51 439.49L271.14 440.36L269.19 440.45L259.41 440.92L252.24 441.47L248.91 441.58L244.48 441.72L240.94 441.91L239.14 442.01L236.99 442.55L233.61 443.27L229.44 444.23L226.22 444.98L222.83 445.80L219.26 446.62L216.33 447.35L214.30 447.83L211.97 448.49L209.45 449.42L206.73 450.81L205.23 451.89L203.24 453.79L201.06 456.10L199.65 457.61L198.73 458.35L197.13 459.63L191.92 463.32L190.58 464.42L189.23 465.52L187.82 466.70L185.84 468.31L184.12 469.74L181.69 471.78L180.79 472.62L179.36 474.59L178.29 477.14L177.43 477.97L177.68 480.54L177.94 483.30L177.84 486.18L177.75 488.54L177.67 490.75L177.56 493.88L177.42 497.61L177.31 500.62L178.06 503.44L178.70 505.85L178.92 510.41L178.64 515.75L178.68 518.97L178.72 522.04L178.79 527.40L178.89 530.48L178.97 532.94L179.01 535.21L176.91 538.83L174.50 542.98L174.41 544.24L174.08 549.08L173.66 555.09L173.50 557.44L173.42 558.77L173.32 561.43L173.15 566.81L173.13 568.81L173.32 571.37L173.83 577.14L174.52 583.11L174.71 584.72L175.00 587.25L175.27 590.59L175.55 593.96L175.71 597.49L175.44 599.87L175.23 601.70L175.76 603.67L177.55 604.64L182.09 605.67L183.25 606.11L185.52 606.99L186.77 607.62L190.19 609.32L193.80 609.35L196.77 607.37L202.19 608.29L206.03 608.31L210.33 608.36L213.11 608.51L216.57 608.67L220.10 608.84L225.18 609.03L228.45 609.92L231.63 610.77L233.17 611.18L234.82 611.22L239.78 611.42L243.06 611.54L245.23 610.77L247.37 610.01L247.23 602.98L246.44 599.75L245.72 596.78L247.72 591.07L250.90 587.71L256.75 586.91L261.57 586.25L264.44 586.30L269.26 586.38L273.07 586.44L275.53 586.48L279.34 588.19L281.25 587.38L285.11 585.74L285.16 580.23L287.83 576.95L290.73 576.71L293.63 576.47L296.68 575.30L299.99 576.29L303.92 577.46L310.02 539.67Z" data-ward="13" /><path id="ward-2" class="ward" d="M623.08 19.62L622.64 17.73L622.39 14.98L621.75 13.67L619.91 10.41L619.07 6.23L618.77 4.69L618.54 3.52L618.03 0.70L614.43 0.00L611.08 0.50L607.10 1.09L605.65 1.34L604.01 1.63L603.99 3.41L603.97 4.68L603.95 6.41L603.83 7.88L603.73 9.06L603.50 11.77L602.75 14.30L602.30 15.69L601.71 17.50L599.47 22.22L596.68 22.29L594.44 21.55L592.08 20.98L588.23 20.05L586.13 21.13L584.96 23.19L582.20 24.00L579.21 24.14L576.35 24.27L574.11 24.60L570.65 24.38L566.99 24.12L565.76 24.03L563.64 22.93L557.92 22.82L556.47 22.83L551.80 22.56L549.35 22.42L547.78 22.25L546.54 22.11L544.68 22.03L543.11 21.97L541.48 21.90L539.03 21.45L536.95 21.09L535.01 20.76L532.51 20.38L531.03 20.85L529.38 22.35L527.28 22.52L524.49 22.88L523.08 22.96L521.72 22.97L520.34 22.99L518.57 22.94L516.48 22.88L515.27 22.89L513.83 22.91L509.61 22.93L506.39 23.00L503.95 23.54L502.57 23.85L503.32 25.63L503.90 27.00L504.70 28.64L505.29 29.76L506.42 31.89L507.33 33.63L508.92 36.38L509.58 37.57L510.28 38.88L511.18 40.72L511.81 42.16L512.88 45.02L513.27 46.48L513.68 48.22L514.10 50.85L514.42 52.91L514.75 54.58L515.08 57.10L516.84 56.62L518.41 56.19L521.72 55.58L523.76 55.52L527.07 55.35L529.59 55.16L531.74 54.99L534.49 55.01L537.93 55.15L539.34 55.18L542.92 55.22L544.93 55.18L546.37 55.16L547.87 55.15L552.11 55.11L554.62 55.12L555.97 55.14L557.48 55.17L559.00 55.19L560.34 55.22L561.88 55.24L563.70 55.00L563.84 56.98L563.11 59.06L562.49 60.65L562.28 62.44L561.99 64.86L561.77 66.64L561.51 67.82L561.24 69.05L560.95 70.33L560.89 71.54L560.97 72.97L560.88 74.82L560.79 76.64L560.69 78.88L560.59 80.97L560.52 82.34L560.74 83.65L560.93 84.97L561.12 86.28L561.31 87.61L561.50 89.11L561.76 91.17L561.91 92.36L561.92 93.61L561.93 94.91L561.95 96.21L561.99 98.54L561.96 100.59L561.92 101.85L561.84 103.61L561.65 107.87L561.51 111.08L561.46 112.35L561.23 114.29L561.05 121.53L560.95 124.57L560.94 125.91L560.90 127.47L560.99 128.90L560.82 130.20L561.04 131.44L561.09 134.67L561.13 136.61L561.59 148.72L564.26 147.83L566.87 146.99L568.02 148.13L569.46 148.56L571.06 148.30L573.15 147.95L575.45 147.72L576.67 147.64L579.12 147.54L581.12 147.43L583.52 148.08L583.80 149.76L584.21 150.95L585.23 152.56L589.37 151.18L590.94 151.15L594.48 150.67L595.86 150.26L597.50 149.90L599.46 149.49L600.74 149.27L601.98 149.05L603.13 148.84L605.21 147.92L605.51 146.24L605.28 143.90L605.08 141.93L604.75 138.65L604.45 136.97L604.03 134.14L603.90 132.30L603.85 130.88L603.80 129.46L603.80 128.24L603.83 126.75L603.85 125.39L603.97 121.51L603.93 118.40L603.99 116.75L604.14 115.37L604.31 113.75L604.26 112.53L604.20 110.43L604.17 109.06L604.14 107.65L604.24 105.15L604.32 103.72L604.29 101.45L604.42 99.15L604.28 96.27L604.16 93.90L604.07 92.08L603.95 89.60L603.82 87.76L603.39 85.29L602.99 84.09L602.54 82.95L601.93 81.43L604.06 81.49L606.05 81.63L607.42 81.73L608.69 81.64L611.03 81.47L612.29 81.37L614.23 81.23L616.17 81.09L618.40 80.92L621.14 80.72L622.86 80.60L624.27 80.50L626.59 80.32L628.67 80.20L628.73 78.75L628.68 75.71L628.64 73.40L628.59 69.64L628.52 64.99L628.41 57.90L628.04 53.84L628.03 52.43L627.63 48.42L627.32 44.06L626.77 40.94L626.13 37.24L625.64 34.44L625.33 32.64L624.80 29.62L624.40 27.33L624.07 24.51L623.90 23.09L623.08 19.62Z" data-ward="2" /><path id="ward-15" class="ward" d="M241.47 370.76L241.95 367.97L242.54 366.55L243.14 365.13L244.89 361.81L243.15 360.53L241.32 359.76L239.49 359.00L236.27 358.04L234.02 357.52L232.63 357.10L230.73 356.62L228.67 356.28L226.91 355.65L224.64 355.10L222.37 354.56L220.91 354.25L218.93 353.59L219.26 351.81L213.92 351.75L207.78 348.74L206.10 352.07L204.66 354.97L202.96 359.43L202.23 362.17L200.89 366.44L200.00 369.33L197.52 370.62L194.74 370.41L192.94 370.28L190.27 369.96L188.97 372.96L187.81 376.72L187.90 379.55L188.08 383.15L188.21 386.90L185.18 387.11L183.08 386.92L181.08 386.78L180.13 388.53L179.22 393.24L178.32 396.30L177.72 398.31L177.22 400.00L176.72 401.69L175.58 406.12L170.11 405.32L165.03 404.61L163.37 404.33L159.94 403.70L154.36 402.56L152.63 402.26L149.42 402.09L147.12 403.21L146.26 404.53L145.44 405.78L144.36 406.59L142.93 406.60L141.37 406.80L139.87 407.16L137.90 408.00L136.12 410.50L133.17 410.02L128.26 410.24L126.12 410.18L123.11 408.83L123.52 407.07L124.08 404.65L124.57 402.84L125.36 400.34L126.74 395.53L127.15 394.21L128.24 390.90L129.33 388.64L129.76 386.86L128.91 384.58L126.94 382.63L125.83 382.14L124.48 381.55L122.25 380.58L119.99 379.14L115.83 378.86L112.93 378.69L110.04 378.51L108.21 378.31L105.57 378.02L100.78 377.87L97.13 377.92L95.15 377.72L93.83 377.63L92.51 377.53L90.39 376.83L87.62 375.68L82.93 373.76L79.29 372.93L75.70 373.03L73.67 374.65L73.00 376.22L72.40 377.75L71.80 379.28L71.34 380.78L70.76 383.25L70.21 384.71L69.43 386.74L68.74 388.55L68.33 391.28L68.16 392.49L67.73 396.17L71.79 396.92L69.85 406.53L67.43 407.09L66.12 410.05L65.82 412.21L65.53 415.09L65.06 416.96L64.45 418.99L64.08 420.31L62.93 424.00L62.51 426.21L62.18 427.62L61.54 430.49L60.86 432.70L60.16 434.96L59.87 437.69L63.37 438.12L67.28 438.22L71.03 438.31L74.90 438.62L81.06 438.31L85.54 438.40L89.11 438.47L92.55 437.34L94.91 436.03L97.47 434.61L101.86 433.42L104.53 432.99L106.27 432.71L107.39 432.96L110.21 432.81L114.14 432.61L117.89 432.50L120.50 432.42L123.91 432.31L126.56 432.23L129.59 432.14L133.05 432.08L134.46 432.05L136.07 432.02L138.31 431.99L140.26 431.95L141.55 431.93L143.15 433.09L144.53 434.08L145.56 434.83L146.90 435.80L150.30 436.86L152.40 437.96L154.72 439.18L156.26 439.98L159.04 441.85L160.15 445.09L161.06 447.74L162.12 452.01L162.56 455.11L166.33 455.54L167.66 455.45L168.98 455.35L169.87 458.17L169.81 459.42L169.68 462.67L170.22 466.85L170.91 468.38L171.52 469.70L172.85 472.64L174.50 474.84L176.67 476.71L177.43 477.97L178.29 477.14L179.36 474.59L180.79 472.62L181.69 471.78L184.12 469.74L185.84 468.31L187.82 466.70L189.23 465.52L190.58 464.42L191.92 463.32L197.13 459.63L198.73 458.35L199.65 457.61L201.06 456.10L203.24 453.79L203.76 446.30L204.87 439.86L205.08 437.07L205.35 433.36L205.59 429.69L205.67 427.10L205.74 425.05L205.80 422.99L206.07 418.87L206.46 413.31L206.82 409.24L207.33 405.92L207.84 402.62L208.18 400.57L208.99 397.07L209.00 395.27L206.34 393.55L205.99 391.80L207.16 388.93L208.95 389.05L212.64 389.27L216.56 389.21L218.68 389.29L222.26 389.56L225.02 389.30L226.77 388.80L228.41 388.25L230.17 387.36L231.81 386.49L232.70 385.48L234.32 383.93L235.88 380.59L236.82 378.61L237.75 376.70L238.16 375.54L238.91 373.54L239.92 372.28L241.47 370.76Z" data-ward="15" /><path id="ward-7" class="ward" d="M779.10 417.13L778.58 415.64L777.30 414.23L775.07 411.77L773.31 410.19L770.65 408.94L765.91 412.24L760.51 415.48L759.11 415.76L757.06 416.15L753.64 416.82L749.46 417.64L743.71 417.41L743.24 426.48L743.88 450.36L744.15 460.11L744.39 467.43L746.01 476.57L747.37 484.24L740.33 487.08L731.45 490.37L730.18 490.84L730.31 492.40L730.74 495.72L731.78 502.73L732.85 508.84L733.29 512.56L733.76 516.75L733.98 519.63L734.38 521.97L734.73 524.23L735.07 526.49L735.22 528.07L735.78 530.66L736.25 531.93L738.86 532.16L742.76 532.51L744.61 532.82L747.04 533.09L748.55 533.25L752.25 533.21L757.18 533.21L761.60 533.21L763.22 533.20L765.18 533.34L767.13 533.47L769.53 533.83L772.26 536.95L774.49 537.15L776.14 537.38L777.61 537.55L779.08 537.71L786.15 538.33L797.39 539.34L801.51 540.50L801.59 537.79L805.63 534.94L807.67 534.08L810.51 534.30L812.54 534.71L815.47 534.36L817.37 534.11L819.25 533.86L821.41 533.40L823.21 533.00L824.60 532.71L827.42 530.38L828.80 529.94L834.30 529.29L832.91 535.85L832.73 537.48L835.48 538.74L839.05 540.45L837.45 547.65L835.94 551.19L836.26 554.32L836.63 555.79L832.52 557.27L833.03 563.63L833.86 566.68L834.15 569.36L834.13 570.72L834.10 575.32L834.08 577.97L834.08 579.34L835.02 581.08L835.88 586.05L837.29 591.18L837.61 593.84L837.93 596.82L838.25 598.00L838.49 600.13L838.36 601.32L837.74 603.80L836.85 605.75L835.88 607.76L835.11 609.45L834.61 610.57L833.80 612.13L833.06 613.58L832.13 615.74L831.57 617.07L831.01 618.72L830.45 620.36L830.43 622.15L831.33 624.21L832.57 625.74L832.90 627.30L832.73 629.56L832.14 632.41L831.30 634.21L830.76 635.34L831.06 639.67L831.04 641.35L830.75 643.62L830.68 645.59L831.36 647.83L832.20 649.44L832.81 650.43L833.72 653.26L833.90 655.01L834.11 657.28L834.27 659.02L834.49 660.87L834.89 664.10L835.23 667.67L836.95 666.77L840.39 664.97L845.15 660.68L850.74 655.63L855.70 651.15L857.77 649.28L866.01 646.54L867.96 645.89L877.67 643.08L895.47 638.41L899.40 637.37L910.00 634.32L921.27 631.18L933.45 627.80L946.09 624.28L952.05 622.63L965.27 624.37L969.47 628.21L973.66 632.04L978.00 642.53L980.36 648.25L983.19 649.28L984.33 649.70L991.28 648.44L993.52 647.37L997.52 640.84L1000.00 634.55L999.45 631.35L998.42 623.80L997.38 616.12L996.86 612.32L996.35 608.53L994.24 590.62L994.73 581.33L995.17 573.10L995.41 568.52L995.65 563.95L995.84 560.34L996.02 556.83L996.12 555.04L996.29 551.74L996.46 548.42L996.64 545.21L996.73 543.62L996.82 541.87L996.91 540.22L997.03 537.87L997.10 536.42L997.25 533.63L997.39 531.67L997.50 530.00L997.59 528.83L997.82 525.52L998.20 520.03L998.37 517.57L995.70 518.59L992.76 518.68L988.86 518.80L985.49 519.03L982.42 519.23L980.15 519.07L977.99 519.39L977.32 516.21L974.77 516.23L973.51 516.23L969.77 516.46L967.40 517.32L964.88 518.14L961.86 518.80L959.89 518.98L957.59 519.19L953.72 519.68L952.11 519.85L950.79 520.02L949.37 520.01L947.87 519.64L945.53 519.06L942.33 517.74L940.59 517.14L937.79 515.83L933.68 513.90L930.36 512.76L928.09 511.78L926.80 510.80L925.66 509.95L924.24 508.88L923.00 507.11L922.23 506.03L920.83 503.94L920.03 502.74L918.53 501.34L916.41 499.36L915.42 498.48L913.12 498.42L911.61 498.38L909.33 499.11L907.07 498.73L905.92 498.09L905.33 497.07L904.68 495.93L903.97 494.91L903.31 493.95L902.86 492.65L902.48 491.54L902.05 490.46L901.53 489.13L901.25 487.90L900.77 485.76L899.61 484.43L899.40 483.21L898.79 479.72L898.58 478.48L898.24 476.47L897.81 474.46L897.49 469.99L897.24 467.36L895.54 465.30L894.39 464.50L892.32 464.42L891.17 464.37L889.18 464.26L887.79 464.18L886.31 464.08L883.23 464.07L881.73 464.06L880.55 464.05L878.82 463.56L876.57 462.79L874.32 462.04L871.80 460.55L869.10 459.70L863.69 460.66L861.91 461.00L856.56 461.28L849.60 463.80L848.30 464.75L846.40 466.63L841.78 470.63L840.18 471.84L837.62 473.80L835.25 474.93L831.24 475.42L828.33 475.74L825.77 475.77L824.01 475.70L822.63 475.60L819.18 475.19L817.36 474.98L814.63 475.43L811.94 475.87L804.86 478.25L799.60 479.16L796.81 478.02L794.35 474.61L790.87 471.20L787.75 468.99L784.30 467.20L777.97 460.20L776.47 458.54L774.71 454.16L773.88 452.09L772.79 449.37L772.53 447.77L773.57 443.75L775.26 440.91L776.97 438.06L778.13 436.16L779.01 434.76L781.13 432.29L781.15 428.39L780.44 425.17L780.58 420.43L779.74 418.98L779.10 417.13Z" data-ward="7" /><path id="ward-18" class="ward" d="M179.19 227.75L179.11 226.25L178.93 222.97L176.18 222.00L171.98 220.52L170.36 220.22L167.82 219.74L165.11 219.23L162.69 218.78L161.45 218.54L160.06 218.10L157.86 221.06L156.69 223.32L155.80 225.04L152.59 225.09L145.52 227.96L139.12 228.74L138.06 228.08L137.00 227.42L134.69 227.35L132.69 227.29L130.55 227.04L128.44 226.89L126.11 226.54L121.58 225.85L119.08 223.86L116.58 222.85L114.79 222.12L112.25 221.54L108.74 220.73L105.84 220.48L102.48 220.19L99.72 220.34L95.62 218.99L94.01 220.64L91.76 222.94L88.77 226.80L87.88 227.95L86.86 229.26L85.23 231.55L81.78 236.40L80.55 238.13L79.76 239.24L79.05 240.24L78.37 241.44L76.09 240.70L71.64 239.25L64.90 237.05L63.11 241.56L61.54 245.51L59.65 244.57L57.85 243.68L55.10 242.32L50.36 240.47L48.61 239.79L46.99 239.15L45.16 240.88L43.28 243.08L42.73 244.42L41.82 246.65L41.07 248.48L39.85 251.46L39.43 252.67L38.87 254.51L37.24 256.68L36.45 257.73L36.46 261.09L33.72 267.21L33.04 268.74L31.61 271.93L30.86 273.62L29.08 277.61L28.50 278.90L27.32 281.53L26.76 282.79L26.13 284.20L25.34 285.96L24.27 288.36L23.87 291.71L23.57 294.38L23.26 297.65L22.97 299.80L22.73 301.64L20.06 305.91L25.42 306.68L27.54 306.98L29.85 307.00L32.00 307.08L43.95 309.01L46.78 309.52L48.48 309.82L50.42 310.15L53.52 310.70L55.27 311.12L55.72 312.38L55.42 313.95L54.85 319.42L58.44 320.14L60.05 320.08L61.67 320.01L64.05 319.88L66.66 319.60L68.95 319.42L72.89 319.41L76.50 319.76L79.97 320.35L83.06 320.74L85.06 321.57L87.05 322.40L88.75 322.95L90.57 323.59L92.15 324.74L93.63 325.76L95.51 326.96L96.90 327.61L100.12 328.69L102.69 329.32L106.53 329.72L110.67 330.32L112.70 330.78L114.56 331.29L116.77 331.98L119.11 332.50L122.07 333.13L125.07 333.69L126.39 333.97L127.90 334.27L130.46 334.78L132.30 334.91L134.41 334.88L137.86 335.37L141.26 336.78L144.14 338.24L145.18 338.77L147.31 339.85L149.44 340.92L153.20 342.74L154.88 340.18L155.98 337.58L156.63 336.00L157.28 334.42L158.55 331.26L159.23 329.48L159.66 328.34L161.78 322.67L162.62 319.41L159.36 318.45L156.11 317.50L152.93 316.64L145.20 313.83L143.37 313.18L139.62 310.68L137.96 309.66L136.29 308.64L141.09 302.75L141.79 301.76L144.81 297.33L146.05 295.49L146.79 294.40L147.79 292.77L148.49 286.51L148.15 284.35L147.75 281.85L147.50 278.00L154.43 276.71L156.22 280.77L159.83 280.03L162.39 278.13L164.77 275.92L165.73 275.03L167.06 273.80L168.54 272.66L170.40 271.23L174.20 268.11L176.49 266.80L177.78 266.00L177.37 263.73L176.39 261.82L174.59 258.58L174.07 255.93L176.23 254.66L179.54 252.89L180.51 251.85L181.58 249.90L183.85 248.67L187.80 247.04L186.96 245.09L185.53 241.75L182.11 233.80L181.09 231.68L180.17 229.78L179.19 227.75Z" data-ward="18" /><path id="ward-5" class="ward" d="M791.89 170.73L790.69 170.30L789.01 169.32L787.53 167.76L785.64 165.77L782.10 162.84L780.96 162.50L775.45 160.82L773.76 160.63L771.31 160.36L768.65 160.22L767.34 160.15L765.74 159.56L763.71 159.31L758.12 158.61L756.87 158.47L753.32 158.06L750.83 157.77L748.18 157.54L744.45 157.23L741.83 156.89L737.62 156.46L736.27 156.35L733.80 156.16L731.82 155.98L729.28 155.80L726.35 155.51L724.28 155.33L721.28 155.07L718.50 154.84L716.85 154.70L714.78 154.52L712.27 154.33L710.56 154.23L707.94 154.11L705.98 154.01L704.41 153.94L700.67 153.80L700.63 156.80L700.62 158.42L700.60 159.70L700.61 162.91L700.85 165.67L699.29 166.12L697.18 166.71L695.31 167.74L694.87 171.14L694.57 173.44L694.43 174.67L695.18 176.76L695.11 178.12L694.94 180.79L694.81 182.38L694.72 183.63L694.73 187.56L694.66 189.37L694.47 190.97L694.23 192.32L694.02 193.86L693.81 195.40L693.65 196.68L693.23 199.96L692.97 202.02L692.67 204.44L692.22 208.20L691.92 211.18L691.73 213.13L691.47 215.48L691.32 216.71L691.10 218.56L690.68 221.52L689.45 223.27L690.27 227.39L690.56 229.94L691.97 230.12L693.13 230.15L696.20 230.13L698.58 230.31L698.49 238.12L697.12 238.10L695.04 238.07L692.07 238.03L687.17 238.10L685.99 238.49L684.51 239.31L682.92 241.68L681.21 241.73L679.15 241.80L677.22 241.85L675.97 242.23L675.40 247.58L675.19 250.82L675.30 253.63L675.36 255.20L675.28 257.10L674.76 258.78L672.75 259.33L670.68 259.65L668.59 259.75L667.86 262.13L667.35 263.79L667.01 265.36L666.68 267.19L666.34 269.79L666.18 271.23L666.03 272.68L665.45 275.70L665.19 276.89L667.21 277.29L670.47 277.62L671.92 277.53L673.24 277.46L676.08 277.34L677.72 277.71L681.11 278.16L680.64 280.49L680.41 282.08L680.41 283.45L682.20 284.01L687.11 285.52L689.07 285.94L689.62 284.58L691.84 284.89L694.10 285.34L696.26 286.31L696.70 287.86L698.74 287.62L700.42 287.40L702.22 287.28L708.78 288.18L709.99 288.32L712.70 288.37L715.30 288.47L716.52 288.50L717.74 288.53L720.19 288.44L722.78 288.40L724.84 287.12L724.78 284.90L724.50 282.96L724.09 279.41L723.96 278.04L724.18 275.74L725.69 274.72L728.21 275.18L730.69 275.71L736.82 277.01L739.32 277.16L740.99 277.23L742.95 277.43L746.03 277.29L746.38 273.04L754.56 273.90L761.07 274.58L764.66 274.96L766.06 275.07L767.95 275.27L770.00 275.51L772.11 276.00L774.41 276.61L777.17 277.33L778.43 277.72L779.69 278.11L782.74 276.28L783.37 274.38L783.93 272.70L784.51 270.98L785.10 269.27L785.26 266.91L785.35 265.56L786.16 261.74L786.73 260.39L787.33 258.99L789.28 257.91L790.52 257.52L791.98 257.03L793.09 254.58L792.60 252.58L792.00 250.17L791.57 248.45L791.27 247.00L790.86 245.44L790.91 242.67L791.93 238.53L791.96 237.14L792.75 235.68L794.10 233.21L795.89 231.27L798.40 228.56L799.23 227.66L799.59 225.81L799.66 224.34L802.76 219.07L804.27 216.79L806.03 215.29L810.12 211.83L812.35 208.95L815.65 204.48L817.26 202.29L818.37 200.87L819.46 199.48L820.11 197.91L822.12 193.10L823.22 190.47L823.84 188.98L825.01 187.77L829.16 186.05L831.21 184.67L832.82 183.69L834.10 182.90L837.39 181.78L839.97 180.94L845.48 176.25L846.47 175.42L849.38 173.06L852.30 170.71L853.12 169.82L853.94 168.92L855.16 167.55L856.20 166.36L857.76 164.45L858.85 163.11L857.03 161.84L855.88 161.03L853.92 159.07L852.67 158.35L851.65 157.76L849.74 158.00L847.09 158.33L843.02 160.45L840.78 161.62L836.14 164.04L834.89 164.46L833.45 164.94L829.28 165.01L826.83 164.99L824.86 164.97L822.09 164.62L820.03 164.31L814.84 163.39L812.74 163.01L810.94 163.07L809.37 163.11L807.37 162.89L805.00 162.88L802.91 162.76L801.60 163.90L800.69 165.07L799.73 166.53L798.66 168.03L798.22 169.58L797.35 170.41L795.89 170.54L794.48 170.47L792.98 171.13L791.89 170.73Z" data-ward="5" /><path id="ward-9" class="ward" d="M619.86 410.56L619.28 409.52L618.78 408.20L616.96 406.35L615.16 404.74L612.80 404.05L610.37 403.34L607.94 402.43L606.54 402.56L604.65 402.89L602.75 403.23L598.30 406.52L596.96 407.52L595.53 409.83L594.46 411.77L593.74 413.62L593.22 415.06L592.74 416.35L592.35 417.47L591.94 418.60L591.52 419.79L590.73 422.02L590.12 423.74L589.61 425.21L588.89 427.27L588.09 429.58L585.83 430.41L584.59 432.06L583.41 433.98L582.11 436.73L581.11 438.85L580.45 440.26L579.26 442.77L578.46 444.40L577.49 446.38L576.74 447.89L575.87 449.64L574.68 452.06L573.56 454.40L573.07 456.02L572.37 458.28L571.90 459.81L571.60 463.33L571.48 465.12L574.20 466.14L575.29 468.81L575.27 470.46L574.11 470.76L573.20 471.61L573.14 473.29L571.28 476.60L569.57 480.87L568.65 483.19L567.17 485.60L566.24 487.14L564.14 490.81L561.06 494.03L558.24 496.98L546.70 446.46L542.72 430.75L525.27 414.27L513.84 424.03L512.48 426.17L496.53 451.30L503.66 505.54L507.19 532.48L508.28 540.77L509.38 549.12L510.07 554.36L510.74 559.44L510.96 561.13L512.99 560.59L514.99 560.01L518.04 559.12L526.16 556.82L527.28 556.51L529.08 556.11L531.87 555.49L535.51 554.69L538.93 553.93L540.44 553.59L541.92 553.27L543.41 552.94L544.89 552.61L549.47 551.60L550.95 551.27L554.05 550.32L557.24 549.34L569.84 545.48L571.66 542.16L577.82 530.94L578.84 529.08L582.45 522.78L582.65 518.86L582.89 514.47L581.06 508.80L582.64 507.59L584.70 505.91L585.18 504.75L586.69 501.75L587.48 500.17L588.24 498.68L589.65 495.88L590.45 494.29L592.32 493.93L595.11 493.41L596.88 491.19L598.79 488.79L599.64 487.72L600.57 486.56L602.45 487.26L604.40 487.97L606.65 486.20L608.44 486.20L609.54 488.01L610.64 489.83L614.17 492.07L615.71 492.86L616.78 493.31L619.08 494.21L620.15 494.92L621.06 496.10L622.02 497.67L624.85 498.74L627.83 496.87L630.68 494.77L631.87 493.89L633.93 492.17L635.34 489.85L636.23 487.42L636.67 485.11L637.09 483.59L637.80 481.02L638.11 479.88L641.30 476.65L643.30 476.64L644.87 476.66L644.79 478.79L644.71 480.94L644.55 482.58L644.31 484.50L644.06 486.41L644.64 489.49L644.89 490.77L645.42 493.75L645.63 495.05L645.99 497.21L646.25 498.86L646.44 500.00L646.36 501.73L646.29 503.31L646.27 505.40L648.17 507.65L649.94 508.22L651.28 508.65L653.56 510.09L654.46 511.50L655.33 514.39L655.45 515.65L655.58 517.06L655.91 520.59L656.46 523.45L656.95 525.97L657.43 528.48L658.08 530.96L658.45 532.37L658.80 533.54L659.33 535.30L659.97 536.40L660.83 537.28L662.04 538.50L664.56 539.49L666.93 539.45L670.52 539.21L674.39 538.73L675.74 538.45L682.86 539.26L686.31 539.41L687.76 539.42L690.13 539.33L693.05 538.85L694.78 538.31L695.94 537.86L699.13 536.62L700.93 535.61L703.51 534.28L705.52 533.38L707.57 533.27L711.20 534.03L713.92 534.60L715.13 534.53L717.87 534.89L720.96 535.35L722.70 535.28L726.50 533.99L730.01 533.15L733.14 532.54L736.25 531.93L735.78 530.66L735.22 528.07L735.07 526.49L734.73 524.23L734.38 521.97L733.98 519.63L733.76 516.75L733.29 512.56L732.85 508.84L731.78 502.73L730.74 495.72L730.31 492.40L730.18 490.84L731.45 490.37L740.33 487.08L747.37 484.24L746.01 476.57L744.39 467.43L744.15 460.11L743.88 450.36L743.24 426.48L743.71 417.41L737.07 417.14L735.40 415.85L732.34 413.48L731.53 411.92L730.93 410.74L730.30 409.52L729.31 407.60L725.38 408.18L722.81 409.09L721.82 410.05L719.40 411.39L715.37 413.11L716.43 417.21L716.65 418.75L716.98 420.93L717.45 423.09L718.08 425.85L718.30 427.94L716.08 429.55L714.78 429.67L713.50 429.72L710.12 429.87L708.44 430.01L706.31 430.19L705.07 430.29L703.37 430.34L700.22 430.70L697.34 431.20L695.68 431.55L693.67 431.98L691.50 432.66L690.10 434.04L688.92 436.13L687.39 436.36L685.82 436.07L683.98 435.75L681.89 435.50L680.07 435.97L679.11 436.66L676.76 438.21L675.56 438.78L674.27 439.26L673.09 439.61L671.58 439.75L670.32 439.69L668.65 439.63L666.22 439.64L665.05 439.68L664.40 432.59L664.75 429.29L665.12 426.19L665.67 423.36L666.36 420.19L666.85 417.44L667.88 412.33L668.20 409.69L668.25 407.88L668.11 406.03L668.02 404.86L665.60 404.76L662.89 405.21L660.02 405.65L657.99 405.93L656.72 405.99L654.98 406.19L653.13 406.40L651.81 406.52L649.59 406.73L646.90 407.25L645.33 407.53L643.77 407.76L641.29 408.24L639.60 407.22L637.90 407.44L636.47 407.82L634.63 408.14L633.30 408.36L632.00 408.57L630.38 408.86L629.06 409.30L626.91 409.86L625.77 410.15L624.36 410.38L622.23 410.66L621.07 410.81L619.86 410.56Z" data-ward="9" /><path id="ward-21" class="ward" d="M512.97 133.41L510.00 133.51L507.15 133.63L504.59 133.64L501.98 133.59L500.61 133.89L500.78 135.80L501.02 138.33L501.16 141.10L499.92 142.26L498.72 142.90L498.74 144.15L493.22 145.83L492.99 150.90L486.81 151.30L477.68 151.39L477.95 158.61L476.93 161.47L471.72 161.32L470.94 167.08L468.67 167.46L464.64 166.57L462.61 166.12L459.00 165.33L457.16 164.68L456.67 166.17L456.27 167.40L455.94 169.71L455.20 174.80L454.94 177.84L454.53 183.97L453.13 189.15L451.97 193.43L451.06 196.77L450.41 199.50L449.62 202.63L449.00 205.08L448.66 206.47L447.94 209.52L447.26 212.37L446.95 213.66L448.55 213.76L451.08 213.92L450.68 215.71L450.43 216.89L450.05 218.59L449.56 220.80L449.22 222.36L448.93 223.69L448.58 225.26L448.11 227.61L446.88 233.73L446.58 235.20L446.14 237.42L445.82 239.00L444.12 239.42L440.10 240.40L438.29 240.35L434.14 239.98L428.26 239.40L425.39 239.39L420.82 239.36L419.15 244.85L418.74 246.43L417.99 249.34L417.99 251.31L417.16 252.30L415.65 257.07L415.15 258.64L414.12 271.09L413.66 278.79L417.30 278.94L418.93 279.01L429.95 279.49L435.29 279.87L439.95 280.83L446.17 282.12L453.31 284.13L456.41 284.81L460.16 286.57L461.28 283.97L465.90 276.07L468.45 270.32L472.56 260.16L475.32 253.65L477.83 246.05L480.48 246.49L485.18 247.28L488.37 247.76L494.56 249.39L493.82 251.14L492.52 254.20L490.57 258.79L489.30 261.78L488.27 263.98L487.54 265.37L485.66 268.86L483.79 272.11L482.96 273.56L482.27 275.05L480.93 278.77L479.85 281.71L478.98 283.73L476.97 288.28L475.84 290.12L477.51 291.29L480.34 293.01L482.34 294.23L484.89 294.88L487.24 292.45L490.02 293.75L492.42 295.04L493.55 296.08L496.78 298.65L498.07 299.70L496.01 304.20L498.05 312.13L496.87 312.44L495.70 312.74L493.36 316.34L492.86 317.40L493.85 318.97L492.73 321.03L492.03 322.83L491.00 325.37L492.76 326.61L492.20 327.98L490.76 328.43L490.52 329.74L490.26 331.17L489.96 332.78L489.69 333.91L489.04 335.65L488.26 337.77L487.98 339.12L486.13 340.67L494.90 341.62L503.19 343.13L510.69 344.51L512.55 344.85L514.19 345.15L516.34 345.54L518.22 345.89L520.08 346.23L526.27 347.35L530.20 343.96L533.74 340.93L537.10 338.05L540.18 335.40L549.23 327.64L563.52 315.38L566.90 312.58L591.46 304.80L605.67 298.88L609.34 297.42L608.72 295.21L607.06 292.86L605.21 290.29L603.90 288.69L602.70 287.20L600.93 285.56L599.74 284.68L598.27 283.78L596.52 282.77L595.42 282.10L594.31 281.41L591.73 279.78L585.81 276.36L584.06 275.32L582.31 274.28L575.33 269.42L572.91 268.12L570.57 266.83L568.23 265.55L566.25 264.39L564.26 263.24L562.35 261.93L560.69 260.86L559.52 260.03L558.29 259.17L555.47 257.26L552.99 255.59L551.45 254.34L549.08 253.03L547.70 252.14L545.39 250.65L543.45 249.71L541.58 248.33L539.70 246.93L537.46 244.95L535.25 242.99L534.37 242.15L532.18 239.98L530.18 238.26L528.94 237.26L524.11 235.31L521.06 234.69L519.08 234.26L517.12 233.83L514.44 233.29L511.20 232.55L505.57 230.96L501.92 229.93L500.12 230.16L499.61 226.77L499.39 224.73L499.61 214.96L499.89 212.34L500.01 211.09L499.92 206.01L499.91 203.35L499.77 197.80L499.60 189.62L499.89 187.63L500.15 185.80L500.40 183.98L500.65 181.79L501.16 178.90L501.87 176.11L503.18 171.12L506.01 161.28L506.33 159.60L507.90 154.17L508.55 151.86L509.78 147.51L510.73 144.56L511.53 141.58L511.98 139.63L512.29 137.74L512.60 135.85L512.97 133.41Z" data-ward="21" /><path id="ward-17" class="ward" d="M54.85 319.42L55.42 313.95L55.72 312.38L55.27 311.12L53.52 310.70L50.42 310.15L48.48 309.82L46.78 309.52L43.95 309.01L32.00 307.08L29.85 307.00L27.54 306.98L27.24 312.95L27.65 318.59L30.88 340.80L28.72 344.91L27.50 345.37L26.50 346.17L25.41 347.06L24.46 347.82L23.72 349.83L23.25 351.10L22.61 352.82L22.21 353.91L19.79 355.10L18.74 355.62L17.44 356.26L15.24 357.90L14.12 358.72L12.86 360.76L10.74 361.31L8.06 362.01L5.21 363.74L3.59 364.73L1.82 365.81L0.13 366.84L0.00 377.18L1.90 388.72L7.38 412.48L10.96 413.55L12.62 414.04L13.97 415.32L15.45 416.72L18.04 419.17L17.80 420.86L17.62 422.13L17.15 425.40L17.76 427.29L20.31 427.66L21.86 428.06L23.03 428.36L24.38 428.71L26.82 429.33L28.34 429.62L30.14 429.96L31.92 430.30L33.65 430.62L35.38 430.95L37.37 431.32L39.23 431.67L40.45 429.25L41.30 427.58L42.91 427.85L44.58 428.12L47.16 428.52L49.74 428.92L51.81 429.25L54.17 429.61L56.13 429.85L58.38 430.11L61.54 430.49L62.18 427.62L62.51 426.21L62.93 424.00L64.08 420.31L64.45 418.99L65.06 416.96L65.53 415.09L65.82 412.21L66.12 410.05L67.43 407.09L69.85 406.53L71.79 396.92L67.73 396.17L68.16 392.49L68.33 391.28L68.74 388.55L69.43 386.74L70.21 384.71L70.76 383.25L71.34 380.78L71.80 379.28L72.40 377.75L73.00 376.22L73.67 374.65L75.70 373.03L79.29 372.93L82.93 373.76L87.62 375.68L90.39 376.83L92.51 377.53L93.83 377.63L95.15 377.72L97.13 377.92L100.78 377.87L105.57 378.02L108.21 378.31L110.04 378.51L112.93 378.69L115.83 378.86L119.99 379.14L122.25 380.58L123.21 379.19L125.15 373.16L122.74 371.29L120.36 370.22L121.97 365.08L124.22 359.71L125.22 357.51L126.21 354.17L128.73 354.65L130.44 352.86L132.92 341.69L134.41 334.88L132.30 334.91L130.46 334.78L127.90 334.27L126.39 333.97L125.07 333.69L122.07 333.13L119.11 332.50L116.77 331.98L114.56 331.29L112.70 330.78L110.67 330.32L106.53 329.72L102.69 329.32L100.12 328.69L96.90 327.61L95.51 326.96L93.63 325.76L92.15 324.74L90.57 323.59L88.75 322.95L87.05 322.40L85.06 321.57L83.06 320.74L79.97 320.35L76.50 319.76L72.89 319.41L68.95 319.42L66.66 319.60L64.05 319.88L61.67 320.01L60.05 320.08L58.44 320.14L54.85 319.42Z" data-ward="17" /><path id="ward-14" class="ward" d="M291.21 323.89L289.74 323.82L286.95 324.05L285.57 324.63L284.49 325.10L280.46 326.50L279.57 332.98L277.68 334.89L276.18 337.20L273.91 341.76L270.91 348.96L269.27 352.92L268.73 354.20L265.15 354.11L261.85 353.38L258.35 352.20L255.69 349.95L252.90 348.87L251.09 348.16L250.51 350.02L249.93 351.89L248.84 354.94L248.03 357.05L246.55 359.24L244.89 361.81L243.14 365.13L242.54 366.55L241.95 367.97L241.47 370.76L239.92 372.28L238.91 373.54L238.16 375.54L237.75 376.70L236.82 378.61L235.88 380.59L234.32 383.93L232.70 385.48L231.81 386.49L230.17 387.36L228.41 388.25L226.77 388.80L225.02 389.30L222.26 389.56L218.68 389.29L216.56 389.21L212.64 389.27L208.95 389.05L207.16 388.93L205.99 391.80L206.34 393.55L209.00 395.27L208.99 397.07L208.18 400.57L207.84 402.62L207.33 405.92L206.82 409.24L206.46 413.31L206.07 418.87L205.80 422.99L205.74 425.05L205.67 427.10L205.59 429.69L205.35 433.36L205.08 437.07L204.87 439.86L203.76 446.30L203.24 453.79L205.23 451.89L206.73 450.81L209.45 449.42L211.97 448.49L214.30 447.83L216.33 447.35L219.26 446.62L222.83 445.80L226.22 444.98L229.44 444.23L233.61 443.27L236.99 442.55L239.14 442.01L240.94 441.91L244.48 441.72L248.91 441.58L252.24 441.47L259.41 440.92L269.19 440.45L271.14 440.36L277.51 439.49L279.25 439.16L282.20 438.59L286.75 437.68L290.31 436.38L291.58 435.72L294.59 434.18L300.64 431.37L301.95 430.98L303.45 430.56L307.59 429.82L310.72 429.55L311.27 428.22L311.82 426.31L310.08 425.45L308.90 423.22L308.17 421.06L307.66 419.31L307.08 417.12L306.61 414.72L306.55 412.56L307.42 410.00L308.24 408.04L308.71 406.81L309.21 405.54L310.22 403.43L311.29 401.50L312.15 400.08L313.29 398.26L314.19 396.28L314.93 394.89L315.66 393.67L316.54 392.84L317.96 390.96L319.02 389.66L319.80 388.65L320.83 387.32L322.22 385.58L323.50 383.67L322.32 383.24L319.85 383.98L314.90 384.70L309.95 385.41L308.25 385.59L309.14 377.36L310.94 369.76L312.32 364.32L314.52 355.66L316.46 349.24L317.69 345.38L318.78 342.46L318.87 341.23L318.74 338.78L317.47 335.10L317.80 332.56L307.86 331.59L305.06 328.61L307.13 328.31L308.12 327.30L305.91 326.16L304.28 326.42L304.06 325.10L301.18 324.59L294.99 323.91L292.33 324.84L291.21 323.89Z" data-ward="14" /><path id="ward-20" class="ward" d="M478.98 283.73L479.85 281.71L480.93 278.77L482.27 275.05L482.96 273.56L483.79 272.11L485.66 268.86L487.54 265.37L488.27 263.98L489.30 261.78L490.57 258.79L492.52 254.20L493.82 251.14L494.56 249.39L488.37 247.76L485.18 247.28L480.48 246.49L477.83 246.05L475.32 253.65L472.56 260.16L468.45 270.32L465.90 276.07L461.28 283.97L460.16 286.57L456.41 284.81L453.31 284.13L446.17 282.12L439.95 280.83L435.29 279.87L429.95 279.49L418.93 279.01L417.30 278.94L413.66 278.79L414.12 271.09L415.15 258.64L413.28 258.25L411.99 257.98L410.32 257.64L408.50 257.28L407.13 256.04L405.00 256.34L404.31 257.30L404.40 259.58L404.48 261.49L404.54 262.98L404.69 266.59L403.97 271.43L403.86 274.31L403.81 275.83L403.76 277.10L403.69 278.91L399.11 278.74L391.19 278.46L389.88 278.51L383.73 279.12L379.50 279.54L374.77 278.81L371.17 278.26L369.55 278.51L364.01 279.36L361.91 279.68L356.67 278.55L353.60 278.10L340.89 276.24L332.15 274.43L330.73 274.16L328.24 272.69L325.63 272.05L324.43 271.76L322.88 271.38L321.62 271.07L318.16 270.23L315.08 269.47L313.06 268.00L310.98 266.48L309.45 265.36L308.17 264.43L306.57 263.43L304.71 262.45L303.73 260.88L302.88 260.06L301.31 258.82L301.16 263.74L302.42 265.74L301.80 272.71L303.07 272.89L306.72 273.34L308.76 273.49L308.53 275.97L308.44 278.93L309.01 280.28L311.28 280.39L311.32 287.05L311.63 291.25L312.72 304.96L313.90 305.61L315.43 306.44L316.62 306.27L318.02 305.65L319.58 304.96L321.79 303.95L323.12 303.24L324.21 302.60L323.94 300.90L323.82 299.22L326.06 298.81L328.33 298.39L329.61 298.16L330.77 297.94L332.18 296.77L332.01 295.48L331.74 293.42L331.47 291.42L331.32 290.25L331.81 288.50L334.15 288.14L336.04 287.84L337.42 287.63L338.99 287.39L341.35 287.73L343.20 288.00L344.39 288.18L345.58 288.36L346.03 293.15L346.33 298.35L347.03 302.46L347.41 304.98L347.71 306.40L348.35 307.46L349.65 307.26L352.05 306.80L352.89 309.86L352.27 313.55L351.37 316.88L350.64 318.43L350.71 320.07L350.26 321.55L350.31 324.02L350.73 325.15L350.52 328.36L350.22 331.50L350.51 335.32L350.78 340.65L352.45 340.56L355.81 340.41L355.96 347.91L354.83 352.00L354.11 355.31L352.73 358.93L351.67 362.00L351.71 363.21L353.84 363.75L355.48 364.15L356.86 364.52L358.24 364.89L360.98 365.73L362.28 368.32L367.48 368.90L369.92 369.24L371.42 369.68L372.98 370.12L375.84 370.80L377.80 371.26L379.79 371.74L382.01 372.26L383.62 372.65L385.82 373.17L387.59 373.50L388.77 373.21L390.95 372.86L393.54 372.44L395.04 372.16L396.49 371.90L397.88 371.32L399.13 370.81L401.58 369.16L402.97 368.04L404.76 366.59L406.88 364.11L408.13 362.54L409.80 359.84L412.89 354.71L414.24 352.38L415.47 350.32L417.94 346.66L419.48 344.56L420.61 343.10L421.73 341.63L424.07 338.62L426.26 335.87L428.45 333.11L432.26 329.13L434.27 327.31L436.28 325.49L437.33 324.57L440.53 321.64L445.11 318.07L448.24 315.45L449.66 314.26L453.67 311.37L455.18 310.33L456.70 309.29L461.68 305.92L462.98 305.09L465.84 303.27L469.04 300.14L472.14 296.14L475.84 290.12L476.97 288.28L478.98 283.73Z" data-ward="20" /><path id="ward-11" class="ward" d="M482.34 294.23L480.34 293.01L477.51 291.29L475.84 290.12L472.14 296.14L469.04 300.14L465.84 303.27L462.98 305.09L461.68 305.92L456.70 309.29L455.18 310.33L453.67 311.37L449.66 314.26L448.24 315.45L445.11 318.07L440.53 321.64L437.33 324.57L436.28 325.49L434.27 327.31L432.26 329.13L428.45 333.11L426.26 335.87L424.07 338.62L421.73 341.63L420.61 343.10L419.48 344.56L417.94 346.66L415.47 350.32L414.24 352.38L412.89 354.71L409.80 359.84L408.13 362.54L406.88 364.11L404.76 366.59L402.97 368.04L401.58 369.16L399.13 370.81L397.88 371.32L396.49 371.90L395.04 372.16L393.54 372.44L390.95 372.86L388.77 373.21L387.59 373.50L385.54 375.73L384.58 376.75L383.20 378.37L381.80 380.24L380.78 381.88L380.08 383.13L379.28 384.65L378.48 386.37L377.63 388.46L376.59 390.60L375.91 392.01L373.66 394.41L372.66 395.46L375.53 396.30L375.69 401.85L375.36 406.45L376.70 408.72L378.52 409.38L380.97 409.72L383.01 409.93L387.27 411.07L388.48 411.40L388.26 412.83L387.80 415.88L387.15 420.22L404.68 428.32L414.48 425.38L415.79 425.15L420.29 424.37L427.77 423.08L431.28 419.32L442.81 406.97L452.09 412.91L453.04 412.71L458.67 405.50L458.45 390.29L465.66 383.31L466.54 384.05L471.05 387.89L480.03 395.54L480.36 412.44L494.26 415.27L495.37 416.15L499.81 419.58L501.13 420.60L507.18 421.83L510.28 422.76L512.06 423.39L513.84 424.03L525.27 414.27L525.72 384.22L526.27 347.35L520.08 346.23L518.22 345.89L516.34 345.54L514.19 345.15L512.55 344.85L510.69 344.51L503.19 343.13L494.90 341.62L486.13 340.67L487.98 339.12L488.26 337.77L489.04 335.65L489.69 333.91L489.96 332.78L490.26 331.17L490.52 329.74L490.76 328.43L492.20 327.98L492.76 326.61L491.00 325.37L492.03 322.83L492.73 321.03L493.85 318.97L492.86 317.40L493.36 316.34L495.70 312.74L496.87 312.44L498.05 312.13L496.01 304.20L498.07 299.70L496.78 298.65L493.55 296.08L492.42 295.04L490.02 293.75L487.24 292.45L484.89 294.88L482.34 294.23Z" data-ward="11" /><path id="ward-4" class="ward" d="M628.67 80.20L626.59 80.32L624.27 80.50L622.86 80.60L621.14 80.72L618.40 80.92L616.17 81.09L614.23 81.23L612.29 81.37L611.03 81.47L608.69 81.64L607.42 81.73L606.05 81.63L604.06 81.49L601.93 81.43L602.54 82.95L602.99 84.09L603.39 85.29L603.82 87.76L603.95 89.60L604.07 92.08L604.16 93.90L604.28 96.27L604.42 99.15L604.29 101.45L604.32 103.72L604.24 105.15L604.14 107.65L604.17 109.06L604.20 110.43L604.26 112.53L604.31 113.75L604.14 115.37L603.99 116.75L603.93 118.40L603.97 121.51L603.85 125.39L603.83 126.75L603.80 128.24L603.80 129.46L603.85 130.88L603.90 132.30L604.03 134.14L604.45 136.97L604.75 138.65L605.08 141.93L605.28 143.90L605.51 146.24L605.21 147.92L603.13 148.84L601.98 149.05L600.74 149.27L599.46 149.49L597.50 149.90L595.86 150.26L594.48 150.67L590.94 151.15L589.37 151.18L585.23 152.56L584.21 150.95L583.80 149.76L583.52 148.08L581.12 147.43L579.12 147.54L576.67 147.64L575.45 147.72L573.15 147.95L571.06 148.30L569.46 148.56L568.02 148.13L566.87 146.99L564.26 147.83L561.59 148.72L558.84 149.68L559.60 152.54L560.03 153.82L560.46 155.12L562.06 159.89L563.09 162.74L563.78 164.64L564.30 166.06L564.84 167.57L565.44 169.20L566.21 170.41L567.16 171.84L569.20 175.12L570.41 176.72L573.20 180.36L574.59 182.18L576.53 184.43L577.74 185.79L579.02 186.67L580.74 187.04L582.24 186.96L584.14 186.76L590.92 185.14L592.86 185.18L598.67 185.25L599.93 185.18L601.95 185.04L603.57 184.89L605.18 184.75L607.13 184.51L610.56 184.31L616.81 183.40L621.10 182.48L622.37 184.76L623.00 186.23L623.54 187.77L625.80 193.36L627.06 196.44L627.94 198.08L628.82 199.72L629.80 201.33L630.71 202.98L632.20 205.57L634.06 208.82L635.23 211.49L636.81 215.00L640.78 213.63L643.45 212.32L646.10 211.35L648.26 210.59L651.48 209.75L654.12 208.39L656.82 206.97L660.66 205.43L662.18 204.88L663.62 210.81L663.97 214.09L664.18 215.23L664.62 217.53L665.94 217.45L669.92 216.93L671.29 216.75L673.10 216.70L676.09 216.62L678.03 216.81L679.29 216.83L679.35 218.55L679.27 224.04L679.25 225.81L679.17 227.35L679.07 229.19L678.70 230.61L678.38 231.85L677.92 233.70L676.96 237.46L676.42 239.59L675.97 242.23L677.22 241.85L679.15 241.80L681.21 241.73L682.92 241.68L684.51 239.31L685.99 238.49L687.17 238.10L692.07 238.03L695.04 238.07L697.12 238.10L698.49 238.12L698.58 230.31L696.20 230.13L693.13 230.15L691.97 230.12L690.56 229.94L690.27 227.39L689.45 223.27L690.68 221.52L691.10 218.56L691.32 216.71L691.47 215.48L691.73 213.13L691.92 211.18L692.22 208.20L692.67 204.44L692.97 202.02L693.23 199.96L693.65 196.68L693.81 195.40L694.02 193.86L694.23 192.32L694.47 190.97L694.66 189.37L694.73 187.56L694.72 183.63L694.81 182.38L694.94 180.79L695.11 178.12L695.18 176.76L694.43 174.67L694.57 173.44L694.87 171.14L695.31 167.74L697.18 166.71L699.29 166.12L700.85 165.67L700.61 162.91L700.60 159.70L700.62 158.42L700.63 156.80L700.67 153.80L698.58 153.96L696.47 153.76L693.81 153.50L688.90 153.28L686.89 153.19L685.08 153.24L682.83 153.29L681.01 153.25L677.77 153.37L675.45 153.39L672.33 153.70L670.68 153.79L667.03 154.06L665.01 154.04L663.02 154.11L661.65 154.16L656.97 154.26L653.61 154.33L652.29 154.36L650.65 154.47L647.95 154.66L644.01 154.91L642.05 155.09L640.61 155.21L638.37 155.39L634.74 155.77L632.55 156.23L631.24 156.51L626.59 157.81L622.68 158.54L616.27 159.75L613.43 160.39L611.80 160.76L610.09 161.12L606.90 161.80L608.46 160.14L609.52 159.18L611.09 157.75L613.23 155.78L614.50 154.64L616.76 152.62L617.73 151.76L618.80 150.81L621.55 148.31L624.25 145.70L624.22 143.31L624.47 142.12L624.58 140.72L624.70 139.26L625.11 136.89L625.77 133.07L626.34 129.75L626.58 127.26L626.71 125.80L626.85 124.35L627.13 121.44L627.33 118.84L627.55 115.74L628.17 107.44L628.24 104.48L628.28 102.52L628.39 100.53L628.40 97.26L628.41 94.15L628.59 86.51L628.61 85.09L628.67 80.20Z" data-ward="4" /><path id="ward-6" class="ward" d="M777.17 277.33L774.41 276.61L772.11 276.00L770.00 275.51L767.95 275.27L766.06 275.07L764.66 274.96L761.07 274.58L754.56 273.90L746.38 273.04L746.03 277.29L742.95 277.43L740.99 277.23L739.32 277.16L736.82 277.01L730.69 275.71L728.21 275.18L725.69 274.72L724.18 275.74L723.96 278.04L724.09 279.41L724.50 282.96L724.78 284.90L724.84 287.12L722.78 288.40L720.19 288.44L717.74 288.53L716.52 288.50L715.30 288.47L712.70 288.37L709.99 288.32L708.78 288.18L702.22 287.28L700.42 287.40L698.74 287.62L696.70 287.86L696.26 286.31L694.10 285.34L691.84 284.89L689.62 284.58L689.07 285.94L687.11 285.52L682.20 284.01L680.41 283.45L680.41 282.08L680.64 280.49L681.11 278.16L677.72 277.71L676.08 277.34L673.24 277.46L671.92 277.53L670.47 277.62L667.21 277.29L665.19 276.89L662.42 277.82L659.29 280.07L659.02 281.97L661.51 287.13L662.07 288.23L662.91 289.89L663.83 292.67L664.61 295.01L665.33 297.87L665.96 301.45L665.75 302.82L660.69 303.87L659.36 304.09L658.04 304.31L656.21 304.60L654.97 304.81L652.02 305.29L650.17 305.55L649.87 309.89L650.08 311.05L650.64 313.85L651.32 316.98L651.59 318.96L652.10 321.63L651.97 324.16L648.22 324.72L645.54 325.05L644.04 325.39L640.02 324.22L635.80 324.47L630.57 324.99L624.92 325.78L618.60 326.99L617.01 327.34L615.43 327.70L615.80 329.07L616.31 331.13L617.06 333.46L617.57 335.21L618.33 337.68L618.71 338.86L619.09 340.04L620.12 343.67L620.89 346.38L621.86 349.81L622.60 352.42L624.05 357.54L624.88 360.48L625.50 362.65L626.22 365.20L626.92 367.02L627.50 368.57L628.01 370.07L628.44 371.36L629.01 372.99L629.63 374.76L630.27 376.61L630.81 378.34L631.48 381.10L631.78 382.31L632.24 384.06L632.67 385.19L634.99 393.55L636.42 398.82L637.06 401.01L637.66 402.49L638.50 404.53L639.60 407.22L641.29 408.24L643.77 407.76L645.33 407.53L646.90 407.25L649.59 406.73L651.81 406.52L653.13 406.40L654.98 406.19L656.72 405.99L657.99 405.93L660.02 405.65L662.89 405.21L665.60 404.76L668.02 404.86L668.11 406.03L668.25 407.88L668.20 409.69L667.88 412.33L666.85 417.44L666.36 420.19L665.67 423.36L665.12 426.19L664.75 429.29L664.40 432.59L665.05 439.68L666.22 439.64L668.65 439.63L670.32 439.69L671.58 439.75L673.09 439.61L674.27 439.26L675.56 438.78L676.76 438.21L679.11 436.66L680.07 435.97L681.89 435.50L683.98 435.75L685.82 436.07L687.39 436.36L688.92 436.13L690.10 434.04L691.50 432.66L693.67 431.98L695.68 431.55L697.34 431.20L700.22 430.70L703.37 430.34L705.07 430.29L706.31 430.19L708.44 430.01L710.12 429.87L713.50 429.72L714.78 429.67L716.08 429.55L718.30 427.94L718.08 425.85L717.45 423.09L716.98 420.93L716.65 418.75L716.43 417.21L715.37 413.11L719.40 411.39L721.82 410.05L722.81 409.09L725.38 408.18L729.31 407.60L730.30 409.52L730.93 410.74L731.53 411.92L732.34 413.48L735.40 415.85L737.07 417.14L743.71 417.41L749.46 417.64L753.64 416.82L757.06 416.15L759.11 415.76L760.51 415.48L765.91 412.24L770.65 408.94L769.90 406.71L769.36 404.79L768.19 400.57L767.88 399.41L766.42 393.89L766.00 392.32L764.98 388.21L764.95 381.33L764.90 373.61L764.89 367.64L764.78 361.97L764.78 360.74L764.72 358.96L764.66 355.65L764.58 351.54L764.30 349.45L763.45 343.17L763.12 341.22L759.80 340.10L758.83 339.11L757.70 337.96L755.94 336.17L756.47 334.28L756.99 332.44L757.48 331.31L759.06 327.71L760.09 325.35L761.02 323.29L761.96 321.22L762.52 319.98L763.62 317.34L764.33 315.61L765.35 313.84L765.93 312.34L766.55 310.74L766.99 308.72L767.62 305.86L768.23 304.10L768.76 302.57L769.22 301.25L769.82 300.20L770.91 298.26L771.23 296.92L771.55 295.58L772.98 293.90L774.48 293.53L777.05 292.91L779.00 292.29L780.45 291.64L780.66 290.16L781.01 288.34L781.27 286.94L781.56 285.40L781.84 283.39L781.88 281.74L782.74 276.28L779.69 278.11L778.43 277.72L777.17 277.33Z" data-ward="6" /><path id="ward-1" class="ward" d="M448.80 22.18L445.19 20.73L443.20 19.93L436.95 18.32L431.89 17.02L429.79 16.44L425.81 16.39L424.34 16.52L421.61 16.78L418.64 17.22L416.69 17.51L415.15 17.65L412.47 18.61L410.93 19.15L407.70 19.57L405.54 19.87L404.32 20.20L402.97 20.24L400.61 20.39L396.54 21.32L396.58 25.67L396.60 27.97L396.80 32.54L396.38 35.87L396.13 37.85L395.98 39.02L396.84 40.83L396.68 43.96L396.60 47.17L396.57 54.76L396.58 60.06L396.82 65.01L396.88 66.29L396.96 68.09L397.44 71.13L397.74 72.97L398.27 76.28L396.81 83.54L396.11 90.58L395.58 95.91L395.21 99.57L394.96 103.25L394.82 108.45L394.81 115.16L394.92 118.41L396.46 123.33L400.47 124.86L404.91 126.56L412.71 128.90L415.31 129.41L418.19 129.98L424.06 131.13L427.35 131.77L433.89 133.05L438.94 134.04L443.87 135.00L445.86 135.21L447.86 135.42L450.05 135.66L452.84 135.98L454.15 136.32L455.98 136.81L457.21 137.15L458.67 137.54L460.01 137.90L461.42 138.28L462.62 138.61L462.37 140.38L462.05 142.75L461.78 144.71L461.44 147.22L460.96 149.72L460.55 151.87L460.20 153.67L459.83 155.64L458.69 160.58L458.19 161.89L457.16 164.68L459.00 165.33L462.61 166.12L464.64 166.57L468.67 167.46L470.94 167.08L471.72 161.32L476.93 161.47L477.95 158.61L477.68 151.39L486.81 151.30L492.99 150.90L493.22 145.83L498.74 144.15L498.72 142.90L499.92 142.26L501.16 141.10L501.02 138.33L500.78 135.80L500.61 133.89L501.98 133.59L504.59 133.64L507.15 133.63L510.00 133.51L512.97 133.41L513.30 131.29L513.61 129.40L513.98 127.09L514.44 124.27L514.65 122.96L514.96 120.99L515.34 118.64L515.73 115.76L516.09 113.09L516.34 111.18L516.73 108.45L517.02 106.65L517.38 104.08L517.60 102.54L517.82 100.64L517.89 99.23L517.96 97.81L518.01 96.40L518.09 94.15L518.18 92.53L518.26 91.08L518.27 87.98L518.10 85.47L517.90 82.68L517.35 76.40L517.23 75.04L517.10 73.56L516.86 70.84L516.46 67.29L516.04 63.72L515.70 61.38L515.08 57.10L514.75 54.58L514.42 52.91L514.10 50.85L513.68 48.22L513.27 46.48L512.88 45.02L511.81 42.16L511.18 40.72L510.28 38.88L509.58 37.57L508.92 36.38L507.33 33.63L506.42 31.89L505.29 29.76L504.70 28.64L503.90 27.00L503.32 25.63L502.57 23.85L499.84 23.67L498.32 23.57L497.16 23.56L496.00 23.54L494.84 23.52L492.56 23.49L489.57 23.82L488.12 23.98L485.67 24.20L480.69 23.65L478.47 23.35L477.07 23.15L473.98 23.01L471.41 22.89L465.76 22.80L463.40 22.83L457.77 22.89L455.54 22.98L453.75 23.05L451.21 23.14L448.80 22.18Z" data-ward="1" /><path id="ward-19" class="ward" d="M250.17 245.41L245.18 244.83L242.52 244.53L241.66 245.83L240.40 245.51L237.45 245.85L234.00 246.25L232.74 246.40L230.08 245.78L227.86 245.26L225.94 244.81L223.09 244.74L219.60 244.66L216.96 245.42L214.91 246.01L209.99 246.21L206.43 246.35L203.93 246.42L202.58 246.51L200.69 246.61L197.12 245.72L193.70 246.20L190.93 246.59L189.75 246.76L187.80 247.04L191.42 255.60L192.86 258.36L194.28 261.22L194.87 262.33L196.83 265.75L199.31 270.07L200.09 271.13L201.04 272.35L203.42 275.03L204.90 276.66L206.50 278.50L209.07 280.28L210.57 282.68L209.75 285.32L212.06 287.64L215.92 289.96L219.38 292.49L222.73 295.04L223.47 296.89L222.18 298.58L221.21 300.12L220.06 301.92L219.40 302.87L218.24 304.53L217.57 305.49L216.20 307.46L214.89 309.35L214.68 310.94L215.58 312.11L217.81 314.82L220.10 317.09L221.23 318.78L220.42 320.36L219.72 321.72L218.80 323.50L217.78 325.50L222.85 327.50L225.56 328.52L232.10 330.58L236.25 331.72L238.62 332.47L240.83 333.16L242.26 333.60L243.68 334.02L246.08 333.92L247.81 333.54L251.22 334.61L252.94 335.04L254.56 335.63L253.54 339.18L253.18 341.20L251.81 345.63L251.09 348.16L252.90 348.87L255.69 349.95L258.35 352.20L261.85 353.38L265.15 354.11L268.73 354.20L269.27 352.92L270.91 348.96L273.91 341.76L276.18 337.20L277.68 334.89L279.57 332.98L280.46 326.50L284.49 325.10L285.57 324.63L286.95 324.05L289.74 323.82L291.21 323.89L292.33 324.84L294.99 323.91L301.18 324.59L304.06 325.10L304.28 326.42L305.91 326.16L308.12 327.30L307.13 328.31L305.06 328.61L307.86 331.59L317.80 332.56L319.35 332.98L321.33 333.94L323.67 334.66L326.09 335.25L325.49 337.90L327.88 339.09L329.58 341.67L330.64 342.29L334.89 342.86L337.83 342.96L340.32 342.51L343.65 341.63L347.19 341.10L350.78 340.65L350.51 335.32L350.22 331.50L350.52 328.36L350.73 325.15L350.31 324.02L350.26 321.55L350.71 320.07L350.64 318.43L351.37 316.88L352.27 313.55L352.89 309.86L352.05 306.80L349.65 307.26L348.35 307.46L347.71 306.40L347.41 304.98L347.03 302.46L346.33 298.35L346.03 293.15L345.58 288.36L344.39 288.18L343.20 288.00L341.35 287.73L338.99 287.39L337.42 287.63L336.04 287.84L334.15 288.14L331.81 288.50L331.32 290.25L331.47 291.42L331.74 293.42L332.01 295.48L332.18 296.77L330.77 297.94L329.61 298.16L328.33 298.39L326.06 298.81L323.82 299.22L323.94 300.90L324.21 302.60L323.12 303.24L321.79 303.95L319.58 304.96L318.02 305.65L316.62 306.27L315.43 306.44L313.90 305.61L312.72 304.96L311.63 291.25L311.32 287.05L311.28 280.39L309.01 280.28L308.44 278.93L308.53 275.97L308.76 273.49L306.72 273.34L303.07 272.89L301.80 272.71L302.42 265.74L301.16 263.74L301.31 258.82L299.55 257.43L296.64 255.31L293.98 253.91L289.96 252.02L285.25 251.28L280.76 250.59L277.36 250.06L270.71 249.02L267.10 247.15L265.70 246.59L264.31 246.03L259.04 246.60L257.03 247.43L253.29 246.33L250.17 245.41Z" data-ward="19" /><path id="ward-16" class="ward" d="M209.07 280.28L206.50 278.50L204.90 276.66L203.42 275.03L201.04 272.35L200.09 271.13L199.31 270.07L196.83 265.75L194.87 262.33L194.28 261.22L192.86 258.36L191.42 255.60L187.80 247.04L183.85 248.67L181.58 249.90L180.51 251.85L179.54 252.89L176.23 254.66L174.07 255.93L174.59 258.58L176.39 261.82L177.37 263.73L177.78 266.00L176.49 266.80L174.20 268.11L170.40 271.23L168.54 272.66L167.06 273.80L165.73 275.03L164.77 275.92L162.39 278.13L159.83 280.03L156.22 280.77L154.43 276.71L147.50 278.00L147.75 281.85L148.15 284.35L148.49 286.51L147.79 292.77L146.79 294.40L146.05 295.49L144.81 297.33L141.79 301.76L141.09 302.75L136.29 308.64L137.96 309.66L139.62 310.68L143.37 313.18L145.20 313.83L152.93 316.64L156.11 317.50L159.36 318.45L162.62 319.41L161.78 322.67L159.66 328.34L159.23 329.48L158.55 331.26L157.28 334.42L156.63 336.00L155.98 337.58L154.88 340.18L153.20 342.74L149.44 340.92L147.31 339.85L145.18 338.77L144.14 338.24L141.26 336.78L137.86 335.37L134.41 334.88L132.92 341.69L130.44 352.86L128.73 354.65L126.21 354.17L125.22 357.51L124.22 359.71L121.97 365.08L120.36 370.22L122.74 371.29L125.15 373.16L123.21 379.19L122.25 380.58L124.48 381.55L125.83 382.14L126.94 382.63L128.91 384.58L129.76 386.86L129.33 388.64L128.24 390.90L127.15 394.21L126.74 395.53L125.36 400.34L124.57 402.84L124.08 404.65L123.52 407.07L123.11 408.83L126.12 410.18L128.26 410.24L133.17 410.02L136.12 410.50L137.90 408.00L139.87 407.16L141.37 406.80L142.93 406.60L144.36 406.59L145.44 405.78L146.26 404.53L147.12 403.21L149.42 402.09L152.63 402.26L154.36 402.56L159.94 403.70L163.37 404.33L165.03 404.61L170.11 405.32L175.58 406.12L176.72 401.69L177.22 400.00L177.72 398.31L178.32 396.30L179.22 393.24L180.13 388.53L181.08 386.78L183.08 386.92L185.18 387.11L188.21 386.90L188.08 383.15L187.90 379.55L187.81 376.72L188.97 372.96L190.27 369.96L192.94 370.28L194.74 370.41L197.52 370.62L200.00 369.33L200.89 366.44L202.23 362.17L202.96 359.43L204.66 354.97L206.10 352.07L207.78 348.74L213.92 351.75L219.26 351.81L218.93 353.59L220.91 354.25L222.37 354.56L224.64 355.10L226.91 355.65L228.67 356.28L230.73 356.62L232.63 357.10L234.02 357.52L236.27 358.04L239.49 359.00L241.32 359.76L243.15 360.53L244.89 361.81L246.55 359.24L248.03 357.05L248.84 354.94L249.93 351.89L250.51 350.02L251.09 348.16L251.81 345.63L253.18 341.20L253.54 339.18L254.56 335.63L252.94 335.04L251.22 334.61L247.81 333.54L246.08 333.92L243.68 334.02L242.26 333.60L240.83 333.16L238.62 332.47L236.25 331.72L232.10 330.58L225.56 328.52L222.85 327.50L217.78 325.50L218.80 323.50L219.72 321.72L220.42 320.36L221.23 318.78L220.10 317.09L217.81 314.82L215.58 312.11L214.68 310.94L214.89 309.35L216.20 307.46L217.57 305.49L218.24 304.53L219.40 302.87L220.06 301.92L221.21 300.12L222.18 298.58L223.47 296.89L222.73 295.04L219.38 292.49L215.92 289.96L212.06 287.64L209.75 285.32L210.57 282.68L209.07 280.28Z" data-ward="16" /><path id="ward-10" class="ward" d="M601.92 254.17L601.58 252.61L601.28 251.27L601.00 250.01L600.70 248.65L600.33 246.97L599.99 245.41L599.55 243.46L599.29 242.33L598.79 240.09L598.26 238.70L597.81 237.63L596.16 233.89L595.16 231.90L594.32 230.39L592.67 228.13L591.69 226.78L590.26 224.64L589.46 223.44L588.62 222.20L587.77 220.92L587.02 219.79L586.31 218.74L584.62 217.14L583.11 218.19L581.27 219.09L580.18 219.61L578.68 220.33L577.34 220.97L575.33 221.93L573.00 223.18L571.94 223.76L570.01 224.81L568.71 225.27L566.73 225.99L562.78 227.73L560.98 228.59L559.73 229.19L558.35 229.86L556.78 230.62L554.96 231.50L553.06 232.15L550.84 232.79L549.69 233.09L546.79 233.79L544.96 234.12L543.23 234.39L539.80 234.91L538.43 235.09L535.66 235.45L533.11 235.75L529.49 236.17L528.94 237.26L530.18 238.26L532.18 239.98L534.37 242.15L535.25 242.99L537.46 244.95L539.70 246.93L541.58 248.33L543.45 249.71L545.39 250.65L547.70 252.14L549.08 253.03L551.45 254.34L552.99 255.59L555.47 257.26L558.29 259.17L559.52 260.03L560.69 260.86L562.35 261.93L564.26 263.24L566.25 264.39L568.23 265.55L570.57 266.83L572.91 268.12L575.33 269.42L582.31 274.28L584.06 275.32L585.81 276.36L591.73 279.78L594.31 281.41L595.42 282.10L596.52 282.77L598.27 283.78L599.74 284.68L600.93 285.56L602.70 287.20L603.90 288.69L605.21 290.29L607.06 292.86L608.72 295.21L609.34 297.42L605.67 298.88L591.46 304.80L566.90 312.58L563.52 315.38L549.23 327.64L540.18 335.40L537.10 338.05L533.74 340.93L530.20 343.96L526.27 347.35L525.72 384.22L525.27 414.27L542.72 430.75L546.70 446.46L558.24 496.98L561.06 494.03L564.14 490.81L566.24 487.14L567.17 485.60L568.65 483.19L569.57 480.87L571.28 476.60L573.14 473.29L573.20 471.61L574.11 470.76L575.27 470.46L575.29 468.81L574.20 466.14L571.48 465.12L571.60 463.33L571.90 459.81L572.37 458.28L573.07 456.02L573.56 454.40L574.68 452.06L575.87 449.64L576.74 447.89L577.49 446.38L578.46 444.40L579.26 442.77L580.45 440.26L581.11 438.85L582.11 436.73L583.41 433.98L584.59 432.06L585.83 430.41L588.09 429.58L588.89 427.27L589.61 425.21L590.12 423.74L590.73 422.02L591.52 419.79L591.94 418.60L592.35 417.47L592.74 416.35L593.22 415.06L593.74 413.62L594.46 411.77L595.53 409.83L596.96 407.52L598.30 406.52L602.75 403.23L604.65 402.89L606.54 402.56L607.94 402.43L610.37 403.34L612.80 404.05L615.16 404.74L616.96 406.35L618.78 408.20L619.28 409.52L619.86 410.56L621.07 410.81L622.23 410.66L624.36 410.38L625.77 410.15L626.91 409.86L629.06 409.30L630.38 408.86L632.00 408.57L633.30 408.36L634.63 408.14L636.47 407.82L637.90 407.44L639.60 407.22L638.50 404.53L637.66 402.49L637.06 401.01L636.42 398.82L634.99 393.55L632.67 385.19L632.24 384.06L631.78 382.31L631.48 381.10L630.81 378.34L630.27 376.61L629.63 374.76L629.01 372.99L628.44 371.36L628.01 370.07L627.50 368.57L626.92 367.02L626.22 365.20L625.50 362.65L624.88 360.48L624.05 357.54L622.60 352.42L621.86 349.81L620.89 346.38L620.12 343.67L619.09 340.04L618.71 338.86L618.33 337.68L617.57 335.21L617.06 333.46L616.31 331.13L615.80 329.07L615.43 327.70L617.01 327.34L618.60 326.99L624.92 325.78L630.57 324.99L635.80 324.47L640.02 324.22L644.04 325.39L645.54 325.05L648.22 324.72L651.97 324.16L652.10 321.63L651.59 318.96L651.32 316.98L650.64 313.85L650.08 311.05L649.87 309.89L650.17 305.55L652.02 305.29L654.97 304.81L656.21 304.60L658.04 304.31L659.36 304.09L660.69 303.87L665.75 302.82L665.96 301.45L665.33 297.87L664.61 295.01L663.83 292.67L662.91 289.89L662.07 288.23L661.51 287.13L659.02 281.97L659.29 280.07L662.42 277.82L665.19 276.89L665.45 275.70L666.03 272.68L666.18 271.23L666.34 269.79L666.68 267.19L667.01 265.36L667.35 263.79L667.86 262.13L668.59 259.75L662.43 259.01L658.66 260.52L654.98 263.16L652.35 265.05L651.13 265.92L649.99 263.54L649.09 261.65L648.58 260.57L648.08 259.52L647.46 258.21L646.53 256.26L645.78 254.54L645.33 253.35L644.90 252.28L644.36 250.96L643.66 249.96L642.00 250.13L640.20 250.48L638.88 250.95L637.25 250.76L636.76 249.47L636.33 248.35L635.74 246.81L634.91 244.63L634.42 243.35L633.99 242.23L633.23 240.24L632.70 238.85L631.45 239.06L630.21 239.56L628.05 240.44L626.81 240.94L624.82 241.76L623.67 243.09L623.28 244.23L622.28 245.18L621.10 245.75L620.00 246.28L618.95 246.78L617.45 247.50L615.34 248.44L613.14 249.03L610.97 249.13L611.87 251.79L606.43 253.66L604.12 254.47L601.92 254.17Z" data-ward="10" /></svg>