<svg viewBox="0 0 1000.00 722.95" xmlns="http://www.w3.org/2000/svg"><style>.ward { fill: #e2e8f0; stroke: #fff; stroke-width: 0.5px; } .ward:hover { fill: #cbd5e1; }</style><path id="ward-5" class="ward" d="M718.09 189.76L712.71 192.62L709.83 192.41L704.41 193.60L699.30 192.87L694.24 199.73L692.18 199.44L688.31 214.87L689.18 217.41L690.08 219.74L692.59 222.58L694.06 223.65L694.95 225.31L694.73 227.74L695.17 230.18L695.51 232.04L696.22 234.21L697.42 236.97L698.42 238.74L698.83 242.60L698.88 244.81L698.69 247.23L698.79 249.47L699.30 252.16L701.25 256.77L702.12 258.40L702.61 260.32L699.81 262.77L697.18 264.93L696.13 268.18L696.48 272.02L693.35 272.30L690.99 272.27L687.44 273.27L682.28 274.85L680.49 275.23L677.03 275.37L676.05 278.56L674.94 280.16L671.96 283.52L668.12 284.48L664.97 284.48L661.00 283.78L658.03 284.05L657.18 287.79L656.89 290.64L656.75 292.63L658.37 293.13L660.55 294.44L661.17 296.83L661.44 298.49L662.17 301.26L665.28 302.20L666.94 301.68L669.52 300.03L671.93 298.73L677.30 296.46L679.81 297.09L681.77 300.94L683.06 304.17L684.68 305.73L687.13 306.71L689.58 307.68L692.84 309.03L695.49 310.32L696.76 311.32L699.12 313.98L700.91 315.79L704.00 318.78L706.03 322.38L706.76 324.96L706.82 328.23L706.77 331.20L707.48 334.41L709.68 335.29L711.23 335.87L712.74 337.90L712.38 339.98L711.97 342.02L711.54 344.52L711.13 346.54L712.92 347.34L714.91 348.22L717.08 349.19L717.14 352.70L717.12 356.48L717.15 359.96L715.75 365.72L712.90 364.74L710.42 363.83L708.22 363.41L704.89 363.57L702.22 363.70L697.31 363.75L690.45 363.82L686.03 363.95L684.48 363.35L682.94 362.75L681.43 366.56L680.24 372.09L679.73 373.78L679.70 375.53L679.72 377.25L679.91 379.31L679.93 381.67L676.61 384.24L674.03 386.37L672.06 387.39L668.87 389.21L666.99 390.88L665.53 392.65L664.13 394.58L663.33 396.01L663.97 397.79L665.61 398.50L667.63 397.73L670.02 395.77L672.78 397.29L673.77 399.03L674.43 401.15L676.24 398.70L678.51 395.87L681.21 392.95L684.69 389.83L687.32 388.54L690.57 387.24L692.20 386.51L693.84 385.77L696.84 384.66L698.47 384.12L700.34 383.55L703.41 382.62L705.44 381.93L707.49 381.23L715.54 380.54L720.02 380.73L723.69 380.93L726.12 381.08L730.33 381.30L732.87 381.58L734.60 381.77L739.19 382.25L744.58 384.11L746.28 384.66L749.04 385.55L753.21 386.95L755.20 387.59L757.20 388.24L760.97 389.40L764.48 390.29L768.96 390.40L771.89 390.47L774.05 390.34L776.22 390.21L779.18 390.09L781.93 390.00L784.70 389.91L788.01 389.72L791.33 389.52L794.86 388.86L798.73 386.94L800.67 385.72L803.25 384.63L804.78 386.03L805.53 387.59L806.56 389.55L807.70 391.42L808.79 393.48L812.53 392.35L816.26 390.72L819.59 389.21L821.88 388.43L824.18 387.65L826.55 386.85L829.47 385.73L832.39 384.60L835.39 383.44L837.39 382.52L840.54 380.87L844.17 379.30L846.27 378.45L847.77 377.85L852.58 376.29L855.54 375.64L858.50 375.00L864.29 373.77L867.81 372.97L870.98 372.56L874.45 372.83L876.91 373.62L879.03 374.37L881.12 375.10L884.67 376.40L886.23 376.95L888.62 377.48L892.22 378.11L894.25 378.27L896.46 378.59L901.07 378.55L903.30 378.04L913.57 375.76L915.49 375.49L917.33 375.35L918.97 375.28L920.88 375.46L924.79 375.88L932.78 376.80L937.96 376.70L939.81 376.59L938.79 372.32L938.65 371.95L934.82 367.85L932.26 366.56L930.30 362.28L921.63 358.24L918.37 356.80L911.19 355.50L914.62 346.35L912.59 345.64L910.44 343.82L907.73 340.72L905.70 338.65L902.45 335.77L899.37 333.98L894.98 331.44L891.44 329.86L889.84 329.15L888.16 324.10L890.36 322.68L891.85 321.71L891.39 314.85L886.84 311.97L877.71 313.06L875.99 313.26L873.96 312.42L870.04 310.75L867.88 309.84L865.42 309.98L861.97 310.17L857.99 312.05L857.50 304.18L851.93 305.73L846.54 307.23L844.92 307.56L836.76 309.23L836.41 316.52L836.11 321.47L832.66 320.82L819.06 318.24L810.95 335.46L800.57 333.28L790.05 327.60L789.27 325.86L797.10 297.47L784.08 252.22L784.80 249.47L785.21 247.89L785.75 245.85L787.02 242.49L787.60 240.95L788.46 238.68L789.22 236.75L789.97 234.83L791.50 231.27L794.97 223.21L778.92 218.92L773.63 217.68L771.51 217.18L756.89 220.31L757.40 216.66L757.36 210.61L752.26 208.83L747.83 208.87L744.86 208.12L741.48 208.41L739.29 208.49L737.48 209.67L736.40 211.21L731.41 207.97L730.13 206.19L728.94 204.54L718.09 189.76Z" data-ward="5" /><path id="ward-6" class="ward" d="M924.79 375.88L920.88 375.46L918.97 375.28L917.33 375.35L915.49 375.49L913.57 375.76L903.30 378.04L901.07 378.55L896.46 378.59L894.25 378.27L892.22 378.11L893.31 384.80L892.81 390.04L891.10 393.36L890.35 395.23L890.00 397.48L889.82 399.60L889.68 401.50L889.05 404.53L888.43 406.52L887.30 410.02L886.43 413.02L885.78 415.96L885.04 418.79L883.94 420.47L881.63 423.50L880.65 424.81L878.68 427.08L876.92 429.61L875.13 432.93L873.86 435.68L872.32 438.93L871.16 441.89L871.19 444.09L872.44 445.35L874.27 446.63L877.82 450.22L877.94 452.64L877.11 454.01L873.55 459.13L872.20 461.56L869.50 462.74L868.88 465.69L868.61 469.86L867.28 472.99L863.67 474.00L858.92 473.25L856.15 474.41L856.35 477.34L857.97 481.63L856.40 482.03L854.45 482.36L852.20 482.57L850.33 483.11L849.34 484.71L848.12 486.33L846.04 487.12L844.00 487.03L842.19 486.96L839.74 486.88L835.95 486.84L832.55 487.06L830.65 487.29L826.26 488.24L821.04 491.23L817.84 493.52L815.39 495.56L815.02 497.31L815.04 500.29L813.76 501.25L809.97 502.47L805.81 503.67L803.80 504.25L802.01 504.53L800.21 504.82L798.33 505.12L797.83 507.11L799.31 512.19L800.03 515.71L800.70 518.46L808.02 518.32L810.23 526.70L812.37 538.82L814.51 537.80L816.63 536.78L821.65 534.87L825.62 534.32L828.36 534.27L830.55 533.99L832.68 534.45L835.92 535.90L840.27 539.15L842.30 539.65L844.68 538.43L846.01 536.54L848.13 535.13L850.86 537.02L852.50 538.47L854.17 539.36L855.76 539.92L859.55 543.67L862.16 547.04L863.64 549.98L864.69 552.46L865.99 556.20L866.53 558.31L866.82 560.65L867.31 562.27L867.64 564.17L867.98 567.13L868.16 570.47L867.91 573.45L868.03 577.65L869.04 579.59L871.72 579.95L877.74 581.80L877.11 585.56L892.89 583.28L900.76 582.37L903.84 582.36L907.19 581.82L908.80 584.47L910.82 587.96L911.73 589.81L912.82 592.06L917.35 591.79L916.21 583.04L917.74 572.87L917.34 564.02L932.63 560.92L939.86 559.46L941.63 554.24L938.09 548.76L937.78 546.14L942.99 543.64L966.50 525.06L967.35 521.81L979.97 500.36L982.76 495.60L988.05 486.62L991.04 485.76L994.40 482.38L996.40 480.36L997.25 477.37L998.78 470.40L999.99 464.88L999.95 461.43L999.59 458.83L1000.00 455.12L999.63 452.26L999.16 450.57L998.55 448.39L998.07 446.66L997.19 443.53L996.59 441.32L995.76 439.60L993.86 436.78L987.41 436.49L986.43 431.74L985.78 428.61L984.76 426.03L983.46 422.72L981.69 418.26L980.57 414.13L980.34 409.61L980.24 407.52L950.96 383.29L950.79 378.98L946.26 377.99L939.81 376.59L937.96 376.70L932.78 376.80L924.79 375.88Z" data-ward="6" /><path id="ward-13" class="ward" d="M768.96 390.40L764.48 390.29L760.97 389.40L757.20 388.24L755.20 387.59L753.21 386.95L749.04 385.55L746.28 384.66L744.58 384.11L739.19 382.25L734.60 381.77L732.87 381.58L730.33 381.30L726.12 381.08L723.69 380.93L720.02 380.73L715.54 380.54L707.49 381.23L705.44 381.93L703.41 382.62L700.34 383.55L698.47 384.12L696.84 384.66L693.84 385.77L692.20 386.51L690.57 387.24L687.32 388.54L684.69 389.83L681.21 392.95L678.51 395.87L676.24 398.70L674.43 401.15L673.32 402.79L670.52 406.68L668.42 409.59L664.94 413.55L663.75 414.63L661.85 416.35L660.26 417.95L656.94 421.20L655.14 422.70L653.41 424.15L651.11 425.45L647.93 426.47L644.11 426.96L640.37 427.41L636.84 427.79L632.48 428.85L627.71 431.22L624.34 434.13L622.80 435.76L621.26 437.39L618.62 439.96L614.55 442.79L610.46 445.63L608.72 446.11L605.52 446.74L603.25 446.92L601.19 446.89L599.16 446.86L597.32 446.64L594.67 446.10L593.01 447.22L589.45 448.01L587.12 448.41L584.24 448.83L579.45 449.78L575.64 450.01L573.51 450.14L569.91 450.38L565.88 450.57L562.60 451.09L558.39 452.04L553.25 454.23L549.20 455.81L545.71 457.20L542.99 458.34L539.11 460.52L535.54 462.68L536.35 467.01L537.15 469.43L538.36 472.13L539.25 474.75L539.96 477.76L540.19 487.07L539.66 489.24L539.02 490.70L537.58 492.29L534.68 496.30L532.69 500.30L530.73 504.33L529.68 508.26L532.09 508.90L531.37 510.60L530.69 512.21L530.16 514.22L530.46 518.40L530.27 521.29L529.91 523.65L529.88 525.31L529.58 528.77L529.90 531.56L531.45 532.28L533.88 533.88L535.27 534.77L537.22 535.00L539.29 534.79L541.67 534.05L543.68 533.67L549.57 533.25L554.82 534.81L559.14 536.19L561.77 537.02L566.72 538.34L570.39 539.42L572.93 540.17L574.30 541.27L575.98 542.62L577.58 544.08L581.56 546.98L583.03 547.96L585.77 549.16L592.22 550.28L597.18 549.64L600.72 548.11L603.79 546.71L606.97 545.24L606.84 542.72L606.23 539.74L605.85 534.03L605.66 529.22L605.27 527.57L605.58 525.99L606.44 524.41L607.72 522.46L609.49 520.80L611.29 519.20L613.08 517.60L615.71 515.46L621.06 510.98L627.48 505.43L629.82 502.69L631.08 500.83L631.98 499.44L633.20 496.71L634.84 494.20L637.10 491.63L639.61 489.00L643.80 484.78L646.09 481.60L648.66 477.98L651.56 474.95L652.83 473.96L655.46 472.31L657.03 471.42L659.39 470.72L663.41 470.56L668.25 470.02L670.27 467.06L671.50 465.44L672.92 464.54L678.76 461.29L682.47 459.63L687.15 458.01L690.77 457.69L694.84 457.83L700.28 458.21L700.25 460.36L700.27 462.74L699.96 465.93L699.99 468.09L699.81 471.10L699.80 474.01L699.68 475.93L699.43 479.40L699.43 481.99L699.41 483.64L700.14 487.65L700.92 489.22L702.58 493.07L703.87 494.38L706.74 497.67L713.03 501.25L716.74 500.77L719.87 499.62L722.70 499.72L725.56 500.64L727.25 499.80L729.21 496.95L730.77 494.60L733.31 492.61L735.80 490.66L738.04 487.92L739.46 486.54L740.92 485.77L745.20 484.12L747.57 483.18L749.10 481.87L751.38 480.42L752.97 479.53L754.40 478.21L757.84 475.73L761.47 479.08L764.26 479.43L764.97 477.07L766.19 475.26L768.02 473.90L768.17 470.16L767.47 466.37L767.49 463.86L768.23 460.94L768.96 458.02L770.50 453.81L771.69 450.56L772.28 446.66L772.22 444.64L772.17 441.91L772.43 439.79L772.69 437.70L772.64 435.02L771.42 428.26L771.38 424.74L773.20 422.86L774.92 421.35L777.48 419.26L780.03 417.16L787.96 410.42L798.19 401.60L799.92 400.47L802.42 398.49L804.38 397.05L806.82 395.27L808.79 393.48L807.70 391.42L806.56 389.55L805.53 387.59L804.78 386.03L803.25 384.63L800.67 385.72L798.73 386.94L794.86 388.86L791.33 389.52L788.01 389.72L784.70 389.91L781.93 390.00L779.18 390.09L776.22 390.21L774.05 390.34L771.89 390.47L768.96 390.40Z" data-ward="13" /><path id="ward-11" class="ward" d="M361.59 453.50L357.41 453.10L356.80 456.47L354.37 456.65L354.36 460.80L348.88 461.00L342.40 464.02L338.19 465.03L336.38 466.00L333.49 467.55L330.37 469.21L327.30 470.86L324.70 473.10L322.88 474.67L321.65 476.01L324.90 480.20L320.79 481.74L317.27 483.34L314.52 484.59L312.21 485.77L310.39 486.71L308.09 490.20L304.56 491.33L302.45 492.01L301.92 496.49L301.81 500.90L301.76 502.70L296.74 503.98L291.69 505.26L289.13 504.76L285.34 505.22L282.62 506.39L279.96 506.20L276.89 506.94L275.03 508.08L261.93 509.83L260.20 509.96L258.60 509.60L257.33 509.08L254.49 507.91L252.70 506.62L249.86 506.59L244.11 506.53L240.63 506.71L237.18 506.79L233.31 506.87L230.31 507.34L226.73 507.90L224.41 508.26L222.53 508.40L220.94 508.68L219.02 508.84L214.12 509.25L212.24 509.90L208.80 511.99L203.71 514.81L202.36 515.73L200.42 517.05L197.15 519.86L193.45 521.88L191.03 522.71L188.52 524.04L185.99 525.37L182.67 527.86L180.43 529.54L177.47 533.15L176.44 534.40L179.54 544.79L183.10 548.10L184.73 549.63L187.49 553.50L188.56 555.00L186.56 556.69L184.05 558.82L180.23 562.06L178.28 564.24L176.32 566.42L171.93 572.02L168.11 576.89L165.79 579.85L163.12 583.26L158.94 588.58L155.74 593.34L152.92 597.53L150.24 601.52L147.77 605.18L144.66 609.80L142.30 613.31L139.19 617.94L136.01 622.65L133.51 624.15L132.70 625.62L131.41 627.97L130.19 629.18L128.51 630.85L129.54 632.51L130.38 633.86L131.79 636.11L133.18 638.19L134.47 640.07L135.89 642.73L137.24 646.32L139.12 650.45L141.03 655.21L142.26 658.15L143.24 660.99L145.61 666.91L147.05 671.28L147.81 673.60L151.09 674.50L158.52 672.63L161.21 673.00L161.00 676.07L162.73 676.17L164.15 676.55L165.68 676.96L167.36 677.57L168.20 677.95L175.00 679.42L176.24 679.50L176.73 679.48L177.05 679.01L178.41 677.78L179.28 677.19L181.08 674.32L182.26 667.23L181.68 662.31L179.95 657.41L178.45 655.35L176.33 652.44L175.57 650.45L173.77 645.75L174.35 643.72L175.39 640.77L175.95 639.18L179.63 639.05L183.26 637.46L186.35 635.65L188.29 635.04L189.91 634.12L191.94 634.88L193.93 636.17L203.32 633.98L205.24 633.59L207.45 631.89L210.36 629.74L212.52 628.15L215.94 625.95L218.05 624.60L219.80 624.46L226.35 623.93L229.99 623.96L235.50 624.28L237.97 624.43L241.79 624.65L247.04 624.32L254.62 625.62L259.43 626.54L260.74 627.55L262.41 627.89L264.60 628.34L266.31 628.74L267.96 628.11L270.46 627.14L272.77 626.25L278.45 618.78L281.96 614.04L281.10 612.09L278.17 609.27L276.35 607.44L275.01 605.46L273.38 603.21L272.05 601.04L272.67 598.95L274.74 596.63L273.75 592.75L274.50 590.68L275.24 588.61L276.80 586.08L278.35 583.56L279.95 581.38L282.09 577.99L283.89 574.75L284.78 572.53L288.11 566.64L289.53 562.94L290.35 559.21L290.52 556.87L290.70 554.53L289.04 552.76L286.95 550.49L285.88 549.30L284.70 547.58L283.17 545.32L282.14 542.97L280.75 539.44L279.34 535.68L278.30 532.21L277.32 528.92L275.98 524.39L275.56 520.21L280.08 519.27L288.88 517.61L290.53 517.23L292.66 516.75L296.63 514.70L300.15 512.89L301.98 511.44L303.81 509.99L305.04 508.83L306.20 507.58L307.82 505.64L308.97 504.34L310.33 502.71L311.64 501.37L314.13 499.41L315.76 498.38L317.40 497.85L319.10 497.32L321.45 496.64L324.89 495.66L326.77 494.66L328.65 493.67L330.51 492.43L333.25 490.86L335.09 489.87L336.73 489.11L338.41 488.43L343.51 486.68L345.65 486.06L347.77 485.44L349.58 484.62L351.39 483.81L353.73 482.24L356.08 480.66L358.64 478.57L362.40 475.60L363.73 474.50L366.49 472.18L369.34 470.04L371.42 468.41L374.62 466.04L372.81 462.50L371.73 460.13L370.95 457.07L370.63 453.78L368.87 454.20L361.59 453.50Z" data-ward="11" /><path id="ward-12" class="ward" d="M485.25 450.99L483.30 450.41L480.85 449.51L479.00 448.75L477.36 448.07L474.37 446.88L471.52 445.99L466.44 446.24L464.49 446.73L458.66 446.94L454.82 449.64L448.51 450.33L441.81 450.97L439.68 450.89L432.89 450.60L427.79 449.95L425.13 449.92L422.03 450.29L418.11 451.21L413.66 452.60L406.18 454.95L403.67 455.08L400.71 455.33L398.99 455.72L395.83 456.33L393.01 457.02L389.36 458.58L384.94 460.39L381.09 462.12L378.95 463.40L377.00 464.65L374.62 466.04L371.42 468.41L369.34 470.04L366.49 472.18L363.73 474.50L362.40 475.60L358.64 478.57L356.08 480.66L353.73 482.24L351.39 483.81L349.58 484.62L347.77 485.44L345.65 486.06L343.51 486.68L338.41 488.43L336.73 489.11L335.09 489.87L333.25 490.86L330.51 492.43L328.65 493.67L326.77 494.66L324.89 495.66L321.45 496.64L319.10 497.32L317.40 497.85L315.76 498.38L314.13 499.41L311.64 501.37L310.33 502.71L308.97 504.34L307.82 505.64L306.20 507.58L305.04 508.83L303.81 509.99L301.98 511.44L300.15 512.89L296.63 514.70L292.66 516.75L290.53 517.23L288.88 517.61L280.08 519.27L275.56 520.21L275.98 524.39L277.32 528.92L278.30 532.21L279.34 535.68L280.75 539.44L282.14 542.97L283.17 545.32L284.70 547.58L285.88 549.30L286.95 550.49L289.04 552.76L290.70 554.53L290.52 556.87L290.35 559.21L289.53 562.94L288.11 566.64L284.78 572.53L283.89 574.75L285.72 575.93L288.44 578.86L289.65 580.50L292.69 584.62L294.71 587.35L295.79 588.81L298.08 592.25L300.44 594.70L303.36 596.60L306.95 598.17L310.77 598.72L313.21 599.12L315.34 599.52L317.25 599.67L319.00 600.12L320.98 600.74L323.36 601.48L325.25 601.60L327.26 600.94L330.91 597.80L332.40 595.96L334.08 594.31L337.03 595.05L340.28 592.29L343.16 588.85L345.22 584.40L347.66 575.93L347.95 574.07L348.75 568.38L349.68 565.33L352.40 560.51L353.84 557.72L354.82 555.32L355.37 553.63L356.35 550.13L357.89 544.52L358.59 542.41L359.20 540.56L360.64 536.22L364.52 527.52L366.56 525.32L370.52 524.37L372.12 524.35L373.76 524.28L375.74 524.22L378.55 524.31L380.53 524.33L382.23 524.29L387.55 524.32L389.80 524.39L391.41 524.26L391.60 526.28L388.86 527.01L386.33 527.67L385.96 529.30L384.94 532.00L384.33 533.79L381.73 538.22L381.78 542.14L382.26 544.57L383.94 548.67L385.32 552.25L386.60 555.13L387.39 558.59L387.69 561.39L387.46 563.11L387.22 564.92L387.78 567.68L389.85 570.04L391.18 571.49L395.56 575.96L397.59 577.56L401.98 580.98L404.31 583.64L407.92 586.52L411.06 590.49L413.39 593.41L416.08 596.35L418.32 599.37L420.34 602.10L422.90 605.56L423.03 610.95L426.61 610.26L428.38 608.95L430.83 607.14L433.23 605.60L435.40 604.22L438.40 602.60L440.68 599.64L439.74 596.30L438.95 593.48L438.45 590.39L438.45 587.11L437.48 584.58L436.10 582.18L434.32 579.09L432.75 575.69L431.85 573.74L431.11 572.14L430.01 569.74L427.66 565.29L426.66 563.45L424.89 559.53L424.94 556.35L425.13 553.26L424.98 549.10L424.49 542.87L425.88 540.42L427.43 538.40L428.32 536.70L428.66 533.38L427.77 530.58L426.14 529.23L423.80 529.75L417.93 530.75L414.81 531.25L412.29 529.88L411.70 527.97L410.90 525.51L409.31 522.89L416.94 521.16L420.90 520.71L424.25 520.32L426.15 520.10L429.24 519.74L432.05 519.41L439.14 518.64L445.40 517.36L447.84 516.86L451.45 515.71L453.62 515.04L455.80 514.37L457.73 513.79L463.67 511.77L469.57 510.63L473.67 510.19L475.93 509.57L477.82 509.06L479.47 508.84L481.17 508.90L483.99 509.10L486.64 509.54L488.94 509.85L491.38 509.78L493.24 509.48L499.38 508.08L502.97 508.91L506.54 509.99L509.49 510.43L512.75 511.06L515.62 511.78L516.67 509.81L517.61 508.05L518.75 506.37L520.39 506.67L522.27 507.29L523.95 507.63L526.82 507.95L529.68 508.26L530.73 504.33L532.69 500.30L534.68 496.30L537.58 492.29L539.02 490.70L539.66 489.24L540.19 487.07L539.96 477.76L539.25 474.75L538.36 472.13L537.15 469.43L536.35 467.01L535.54 462.68L532.56 462.90L530.08 462.92L526.11 462.78L522.91 462.36L521.22 462.06L519.28 461.65L516.63 460.98L514.26 460.21L511.89 459.34L510.21 458.76L508.15 458.06L505.42 457.05L503.34 456.34L501.12 455.56L498.89 454.73L497.04 454.05L493.98 453.12L491.07 452.52L487.84 451.67L485.25 450.99Z" data-ward="12" /><path id="ward-17" class="ward" d="M90.53 217.74L82.56 214.26L56.70 213.46L39.34 218.53L28.83 217.94L31.92 223.65L42.99 225.85L44.98 229.05L48.92 235.36L49.25 240.34L54.40 241.73L59.76 243.19L64.45 244.47L66.61 245.06L69.94 245.96L72.15 246.56L75.13 247.37L78.03 248.16L83.53 249.66L86.89 250.31L88.53 251.75L90.13 253.16L92.02 256.17L95.02 260.98L97.47 264.91L103.18 272.49L105.01 274.92L108.10 278.50L110.62 281.42L112.81 284.54L115.00 287.66L117.72 292.56L118.87 294.63L120.86 297.22L123.33 300.43L126.69 303.67L129.50 306.38L131.53 308.07L137.25 313.32L139.80 315.79L143.11 319.47L146.35 322.99L148.05 324.83L150.96 328.36L154.33 327.61L156.95 327.08L165.73 337.19L167.24 338.04L168.95 339.20L178.28 345.50L180.70 347.13L187.70 347.51L190.15 347.44L200.47 347.16L200.82 342.86L229.07 341.05L233.54 340.76L234.58 342.56L238.62 340.32L240.37 339.35L244.40 337.91L249.12 336.22L249.50 338.02L253.91 338.76L259.48 339.69L264.72 340.57L266.45 340.86L270.49 341.57L272.33 340.86L273.70 337.44L276.06 337.68L279.52 337.97L281.83 338.16L284.11 338.43L285.75 338.62L285.68 342.72L285.73 344.48L285.79 346.16L296.01 347.61L299.68 348.13L300.17 342.70L302.23 340.99L303.06 348.20L307.74 344.62L311.65 344.63L319.85 344.66L324.65 344.12L326.95 343.42L329.64 344.41L331.77 345.19L335.08 348.69L337.40 351.14L339.57 349.94L341.84 351.77L343.82 353.53L346.72 356.11L349.10 359.47L351.52 362.88L351.91 364.71L352.28 366.46L353.65 373.16L352.24 376.02L355.36 374.92L358.05 375.36L365.20 375.53L377.66 375.30L379.54 375.86L380.02 374.27L380.69 372.02L381.87 368.19L382.51 366.09L382.86 364.49L383.42 361.71L383.68 360.13L384.00 357.83L384.26 355.99L384.58 353.72L384.90 350.71L385.20 347.82L385.43 345.58L385.72 342.87L386.08 340.48L386.58 338.23L386.96 336.62L387.94 334.25L384.04 333.04L381.97 332.36L374.02 331.49L369.63 332.31L365.31 333.79L361.14 335.49L359.68 330.67L359.22 329.04L358.51 326.39L358.96 322.82L359.96 319.57L361.33 316.74L361.61 314.91L361.47 306.99L356.27 305.03L352.84 303.67L352.75 300.23L352.42 298.12L348.76 294.30L347.24 292.90L345.61 293.82L340.85 294.66L336.80 295.14L333.53 295.81L330.28 296.49L327.64 295.21L325.05 294.70L324.12 293.20L323.42 291.72L322.34 288.95L322.20 286.48L322.57 283.56L324.02 275.93L322.66 273.76L316.15 273.10L314.59 273.54L314.31 280.37L307.06 280.30L304.93 280.84L303.19 281.80L301.45 282.75L299.43 283.11L297.61 283.44L295.96 282.31L292.71 278.78L291.13 276.75L288.97 275.12L286.22 272.95L283.95 270.93L281.93 268.97L280.63 267.24L279.15 264.94L278.14 263.06L277.18 261.23L275.28 258.89L274.28 257.64L272.64 255.58L271.60 253.31L270.16 250.15L268.87 247.33L268.08 245.59L264.12 240.05L261.62 240.07L256.90 235.49L253.91 237.76L251.25 238.18L245.61 236.95L241.70 236.77L237.78 236.59L231.81 237.77L228.58 239.26L223.71 240.60L222.14 240.51L217.18 239.61L213.52 240.60L209.86 241.59L200.32 246.70L194.77 248.97L192.58 251.15L190.43 252.73L186.85 254.57L182.31 258.09L180.71 259.34L178.75 260.52L176.67 261.73L174.61 262.55L172.96 262.67L169.36 262.43L164.93 262.29L151.45 260.50L149.85 260.09L147.24 258.07L145.03 256.20L142.56 255.72L139.44 255.25L136.71 254.28L133.98 253.30L130.73 251.44L128.84 250.02L126.72 248.33L125.24 247.13L123.81 245.72L122.59 244.64L120.29 242.87L118.89 241.73L117.46 240.19L116.32 237.36L114.84 234.34L113.09 231.71L110.58 229.08L109.46 226.84L108.05 223.90L106.28 218.15L94.07 219.28L90.53 217.74Z" data-ward="17" /><path id="ward-10" class="ward" d="M391.41 524.26L389.80 524.39L387.55 524.32L382.23 524.29L380.53 524.33L378.55 524.31L375.74 524.22L373.76 524.28L372.12 524.35L370.52 524.37L366.56 525.32L364.52 527.52L360.64 536.22L359.20 540.56L358.59 542.41L357.89 544.52L356.35 550.13L355.37 553.63L354.82 555.32L353.84 557.72L352.40 560.51L349.68 565.33L348.75 568.38L347.95 574.07L347.66 575.93L345.22 584.40L343.16 588.85L340.28 592.29L337.03 595.05L334.08 594.31L332.40 595.96L330.91 597.80L327.26 600.94L325.25 601.60L323.36 601.48L320.98 600.74L319.00 600.12L317.25 599.67L315.34 599.52L313.21 599.12L310.77 598.72L306.95 598.17L303.36 596.60L300.44 594.70L298.08 592.25L295.79 588.81L294.71 587.35L292.69 584.62L289.65 580.50L288.44 578.86L285.72 575.93L283.89 574.75L282.09 577.99L279.95 581.38L278.35 583.56L276.80 586.08L275.24 588.61L274.50 590.68L273.75 592.75L274.74 596.63L272.67 598.95L272.05 601.04L273.38 603.21L275.01 605.46L276.35 607.44L278.17 609.27L281.10 612.09L281.96 614.04L278.45 618.78L272.77 626.25L275.22 630.71L280.43 636.42L294.88 645.14L303.56 652.76L310.49 659.92L314.90 662.33L322.07 666.36L327.39 669.35L334.94 673.59L341.86 681.90L343.96 683.68L347.93 687.04L355.34 695.76L357.17 697.20L360.50 699.82L367.00 704.92L370.98 706.90L375.37 709.08L376.63 710.51L377.73 711.77L379.94 713.43L381.78 714.17L386.51 716.05L391.70 718.06L394.72 719.10L398.44 720.19L401.68 720.00L403.81 719.68L406.27 719.24L406.96 719.13L410.07 718.68L416.76 716.36L417.33 716.32L419.50 716.25L421.38 716.46L422.73 717.05L423.95 717.79L426.44 719.66L429.74 721.78L433.63 722.95L434.57 716.52L435.57 709.69L435.53 708.83L435.45 708.38L435.25 707.34L435.01 706.06L434.27 704.69L434.58 702.64L434.79 701.08L435.58 698.49L436.33 695.77L437.00 693.55L437.50 691.08L437.71 689.02L437.39 686.12L438.44 682.72L438.90 680.71L438.87 678.28L438.06 675.68L435.25 671.50L438.66 671.29L441.67 671.02L443.89 670.37L446.32 669.48L448.59 668.47L452.94 666.04L455.35 664.26L458.53 662.05L461.21 660.36L463.51 659.01L465.30 657.82L468.12 655.90L470.70 654.61L472.17 653.94L474.86 652.80L478.39 651.81L477.70 650.02L476.56 647.20L474.64 643.91L473.20 640.28L472.62 634.09L474.42 632.86L478.50 630.52L480.22 629.31L479.78 626.49L478.48 624.02L477.36 620.91L476.93 618.79L467.12 621.73L464.70 622.34L463.37 620.38L461.61 617.48L460.10 615.75L458.99 614.25L456.29 609.91L454.20 609.21L449.31 611.80L444.58 613.27L443.18 614.09L438.55 616.58L438.16 618.44L437.26 621.14L435.11 623.47L426.91 624.61L417.06 625.15L417.44 623.34L417.93 620.89L417.96 619.22L417.99 617.22L416.79 612.78L416.92 610.37L419.67 610.71L421.28 610.92L423.03 610.95L422.90 605.56L420.34 602.10L418.32 599.37L416.08 596.35L413.39 593.41L411.06 590.49L407.92 586.52L404.31 583.64L401.98 580.98L397.59 577.56L395.56 575.96L391.18 571.49L389.85 570.04L387.78 567.68L387.22 564.92L387.46 563.11L387.69 561.39L387.39 558.59L386.60 555.13L385.32 552.25L383.94 548.67L382.26 544.57L381.78 542.14L381.73 538.22L384.33 533.79L384.94 532.00L385.96 529.30L386.33 527.67L388.86 527.01L391.60 526.28L391.41 524.26Z" data-ward="10" /><path id="ward-7" class="ward" d="M867.28 472.99L868.61 469.86L868.88 465.69L869.50 462.74L872.20 461.56L873.55 459.13L877.11 454.01L877.94 452.64L877.82 450.22L874.27 446.63L872.44 445.35L871.19 444.09L871.16 441.89L872.32 438.93L873.86 435.68L875.13 432.93L876.92 429.61L878.68 427.08L880.65 424.81L881.63 423.50L883.94 420.47L885.04 418.79L885.78 415.96L886.43 413.02L887.30 410.02L888.43 406.52L889.05 404.53L889.68 401.50L889.82 399.60L890.00 397.48L890.35 395.23L891.10 393.36L892.81 390.04L893.31 384.80L892.22 378.11L888.62 377.48L886.23 376.95L884.67 376.40L881.12 375.10L879.03 374.37L876.91 373.62L874.45 372.83L870.98 372.56L867.81 372.97L864.29 373.77L858.50 375.00L855.54 375.64L852.58 376.29L847.77 377.85L846.27 378.45L844.17 379.30L840.54 380.87L837.39 382.52L835.39 383.44L832.39 384.60L829.47 385.73L826.55 386.85L824.18 387.65L821.88 388.43L819.59 389.21L816.26 390.72L812.53 392.35L808.79 393.48L806.82 395.27L804.38 397.05L802.42 398.49L799.92 400.47L798.19 401.60L787.96 410.42L780.03 417.16L777.48 419.26L774.92 421.35L773.20 422.86L771.38 424.74L771.42 428.26L772.64 435.02L772.69 437.70L772.43 439.79L772.17 441.91L772.22 444.64L772.28 446.66L771.69 450.56L770.50 453.81L768.96 458.02L768.23 460.94L767.49 463.86L767.47 466.37L768.17 470.16L768.02 473.90L766.19 475.26L764.97 477.07L764.26 479.43L761.47 479.08L757.84 475.73L754.40 478.21L752.97 479.53L751.38 480.42L749.10 481.87L747.57 483.18L745.20 484.12L740.92 485.77L739.46 486.54L738.04 487.92L735.80 490.66L733.31 492.61L730.77 494.60L729.21 496.95L727.25 499.80L725.56 500.64L722.70 499.72L719.87 499.62L716.74 500.77L713.03 501.25L706.74 497.67L703.87 494.38L702.58 493.07L700.92 489.22L700.14 487.65L699.41 483.64L699.43 481.99L699.43 479.40L699.68 475.93L699.80 474.01L699.81 471.10L699.99 468.09L699.96 465.93L700.27 462.74L700.25 460.36L700.28 458.21L694.84 457.83L690.77 457.69L687.15 458.01L682.47 459.63L678.76 461.29L672.92 464.54L671.50 465.44L670.27 467.06L668.25 470.02L663.41 470.56L659.39 470.72L657.03 471.42L655.46 472.31L652.83 473.96L651.56 474.95L648.66 477.98L646.09 481.60L643.80 484.78L639.61 489.00L637.10 491.63L639.55 495.39L640.43 497.37L642.21 501.17L643.61 504.14L644.51 506.55L645.47 508.28L647.01 510.73L648.92 513.67L649.69 515.21L650.40 517.05L651.17 518.49L652.13 520.42L652.84 521.94L653.90 525.43L655.68 528.01L657.36 529.80L659.06 531.65L661.28 534.23L662.75 536.03L663.58 537.65L664.41 539.30L664.83 542.82L665.86 544.82L666.57 546.81L667.49 549.20L667.74 552.41L669.25 553.05L670.87 553.11L673.98 553.07L676.22 552.87L678.52 552.84L680.84 552.68L683.29 552.62L689.68 551.34L695.55 550.17L700.09 549.26L706.50 547.89L712.03 546.46L713.87 545.99L715.57 545.59L719.75 545.71L722.35 546.16L725.68 547.10L727.65 547.87L730.99 549.11L733.53 550.84L737.05 553.26L739.76 554.90L742.18 556.01L745.17 556.41L749.43 556.97L751.63 557.75L753.82 558.53L757.35 561.29L758.60 562.53L760.88 565.56L763.16 568.61L774.99 585.63L777.31 588.97L778.44 591.20L779.74 593.76L780.77 595.99L782.50 598.51L783.47 600.03L785.89 605.55L787.90 604.13L791.09 603.02L799.77 604.89L807.29 605.88L828.50 601.57L836.99 599.37L841.26 599.30L844.07 598.04L848.06 596.25L855.60 592.87L857.46 592.03L862.88 586.20L864.47 584.49L869.04 579.59L868.03 577.65L867.91 573.45L868.16 570.47L867.98 567.13L867.64 564.17L867.31 562.27L866.82 560.65L866.53 558.31L865.99 556.20L864.69 552.46L863.64 549.98L862.16 547.04L859.55 543.67L855.76 539.92L854.17 539.36L852.50 538.47L850.86 537.02L848.13 535.13L846.01 536.54L844.68 538.43L842.30 539.65L840.27 539.15L835.92 535.90L832.68 534.45L830.55 533.99L828.36 534.27L825.62 534.32L821.65 534.87L816.63 536.78L814.51 537.80L812.37 538.82L810.23 526.70L808.02 518.32L800.70 518.46L800.03 515.71L799.31 512.19L797.83 507.11L798.33 505.12L800.21 504.82L802.01 504.53L803.80 504.25L805.81 503.67L809.97 502.47L813.76 501.25L815.04 500.29L815.02 497.31L815.39 495.56L817.84 493.52L821.04 491.23L826.26 488.24L830.65 487.29L832.55 487.06L835.95 486.84L839.74 486.88L842.19 486.96L844.00 487.03L846.04 487.12L848.12 486.33L849.34 484.71L850.33 483.11L852.20 482.57L854.45 482.36L856.40 482.03L857.97 481.63L856.35 477.34L856.15 474.41L858.92 473.25L863.67 474.00L867.28 472.99Z" data-ward="7" /><path id="ward-2" class="ward" d="M340.86 66.71L337.65 66.36L333.27 69.83L331.36 70.04L330.11 72.32L328.58 75.09L324.07 76.97L322.33 77.70L319.55 80.30L317.72 81.71L315.88 83.13L308.02 80.72L305.76 83.96L301.53 78.82L293.58 78.06L290.36 78.53L290.04 88.06L287.11 88.44L284.23 88.82L284.07 94.81L283.95 99.46L283.83 104.08L281.85 104.27L279.09 104.89L273.88 104.94L268.35 104.50L262.43 103.79L257.02 103.45L254.49 107.36L253.34 109.14L252.65 111.43L253.39 115.98L242.37 116.62L241.13 118.06L241.04 121.57L242.00 127.70L242.53 130.70L243.56 131.96L245.34 131.52L249.42 130.84L252.43 131.92L253.63 134.16L253.46 137.09L256.66 139.36L260.04 141.26L261.63 142.56L262.12 145.06L254.38 155.05L250.96 156.24L248.83 156.80L241.07 163.40L237.63 163.02L233.80 163.89L231.28 164.64L228.65 166.55L226.06 167.79L223.55 169.99L218.74 172.55L215.22 173.22L210.75 178.70L212.19 185.56L213.62 192.40L215.42 197.68L217.01 200.22L215.62 201.95L214.55 203.87L214.07 208.26L214.08 210.50L214.11 212.99L214.48 215.12L215.38 219.79L215.69 223.56L213.90 227.14L212.30 227.99L209.33 229.20L207.36 229.44L207.37 232.36L207.42 234.10L207.68 235.97L209.86 241.59L213.52 240.60L217.18 239.61L222.14 240.51L223.71 240.60L228.58 239.26L231.81 237.77L237.78 236.59L241.70 236.77L245.61 236.95L251.25 238.18L253.91 237.76L256.90 235.49L261.62 240.07L264.12 240.05L268.08 245.59L268.87 247.33L270.16 250.15L271.60 253.31L272.64 255.58L274.28 257.64L275.28 258.89L277.18 261.23L278.14 263.06L279.15 264.94L280.63 267.24L281.93 268.97L283.95 270.93L286.22 272.95L288.97 275.12L291.13 276.75L292.71 278.78L295.96 282.31L297.61 283.44L299.43 283.11L301.45 282.75L303.19 281.80L304.93 280.84L307.06 280.30L314.31 280.37L314.59 273.54L316.15 273.10L322.66 273.76L324.02 275.93L322.57 283.56L322.20 286.48L322.34 288.95L323.42 291.72L324.12 293.20L325.05 294.70L327.64 295.21L330.28 296.49L333.53 295.81L336.80 295.14L340.85 294.66L345.61 293.82L347.24 292.90L348.76 294.30L352.42 298.12L352.75 300.23L352.84 303.67L356.27 305.03L361.47 306.99L365.61 295.85L363.17 290.89L356.52 290.00L357.44 284.35L357.49 280.81L357.51 278.48L366.89 277.81L370.82 278.57L372.56 278.99L376.38 280.08L378.26 280.59L379.21 281.95L380.61 283.78L382.70 285.49L384.92 286.28L387.47 286.53L388.09 288.17L389.71 290.83L393.26 290.25L396.08 289.41L396.49 287.02L396.72 284.99L397.54 282.18L398.40 280.27L399.40 277.09L399.69 275.35L400.23 270.89L400.54 269.10L401.78 266.13L402.93 264.62L404.90 262.04L404.92 259.51L402.44 259.31L399.46 258.64L398.20 256.91L397.80 255.32L397.81 252.65L397.82 249.43L396.35 247.46L395.45 244.75L393.09 244.15L391.25 244.02L389.43 243.85L389.04 246.08L388.26 248.83L387.59 252.08L386.95 255.15L385.84 257.28L383.80 258.84L382.26 260.94L380.54 264.06L379.22 268.31L376.41 266.96L374.08 265.10L371.75 263.24L369.62 262.29L363.77 265.10L361.14 266.27L355.74 268.32L352.21 264.12L350.85 262.68L348.71 260.18L346.91 258.38L343.22 255.84L341.14 253.49L342.81 249.65L343.63 247.54L345.68 242.99L347.44 239.08L349.24 234.59L350.19 231.72L351.19 228.77L352.73 222.01L353.27 219.76L354.21 217.34L354.99 215.90L355.92 213.85L357.14 212.08L359.25 211.10L362.24 209.97L363.86 209.29L366.20 207.92L369.83 206.21L372.53 205.22L373.99 204.55L376.94 202.93L379.68 201.36L381.43 199.41L380.66 192.58L380.50 189.76L380.68 185.48L380.84 181.55L381.24 177.94L380.64 174.58L379.19 172.95L374.44 172.62L373.19 170.10L371.11 168.96L365.83 161.06L364.10 158.16L360.97 153.70L359.91 152.05L357.25 147.50L355.51 142.76L350.36 142.63L343.20 143.30L341.22 141.12L340.02 138.32L339.04 136.26L337.43 128.71L335.67 122.29L334.80 117.65L331.53 115.68L329.21 114.14L327.89 111.71L327.39 106.90L327.66 104.63L328.34 102.65L330.51 98.04L336.50 93.12L348.36 88.03L347.19 74.60L346.12 67.82L341.89 69.07L340.86 66.71Z" data-ward="2" /><path id="ward-1" class="ward" d="M241.13 118.06L229.35 121.44L216.42 120.86L213.61 120.74L210.29 120.90L202.25 121.30L197.71 121.31L195.52 121.35L192.24 121.08L189.48 120.32L187.13 120.55L178.25 121.90L175.26 122.35L171.32 124.51L168.66 125.72L168.08 123.19L147.48 124.76L146.49 128.83L144.61 128.69L143.03 128.58L140.18 128.37L140.20 124.58L135.85 125.54L132.69 128.41L129.40 127.83L126.74 127.36L123.30 126.78L119.82 126.20L117.33 125.95L114.54 125.67L112.10 125.42L110.05 125.97L107.92 126.74L105.27 127.34L102.87 127.51L100.78 127.38L96.37 127.08L93.76 126.56L90.54 124.46L89.16 123.43L87.66 122.31L86.05 123.13L83.84 124.24L79.81 125.82L77.86 126.68L76.33 127.35L74.29 128.26L72.49 129.82L70.44 131.61L68.85 132.42L66.97 133.38L64.50 134.36L62.43 135.00L57.94 136.56L53.40 138.13L50.71 139.05L47.97 139.99L45.50 140.78L37.16 143.44L32.72 144.69L30.31 145.31L20.29 151.14L13.79 152.16L6.82 156.13L3.25 160.14L5.26 170.09L0.00 172.71L2.48 180.86L4.23 185.84L6.39 191.95L4.51 193.48L0.72 196.56L3.37 199.82L4.87 201.71L7.40 204.90L7.15 206.57L7.87 211.69L8.63 213.52L9.74 216.23L10.36 217.74L10.99 221.04L15.39 229.67L19.33 228.75L25.33 227.52L25.53 224.45L23.12 218.85L28.83 217.94L39.34 218.53L56.70 213.46L82.56 214.26L90.53 217.74L94.07 219.28L106.28 218.15L108.05 223.90L109.46 226.84L110.58 229.08L113.09 231.71L114.84 234.34L116.32 237.36L117.46 240.19L118.89 241.73L120.29 242.87L122.59 244.64L123.81 245.72L125.24 247.13L126.72 248.33L128.84 250.02L130.73 251.44L133.98 253.30L136.71 254.28L139.44 255.25L142.56 255.72L145.03 256.20L147.24 258.07L149.85 260.09L151.45 260.50L164.93 262.29L169.36 262.43L172.96 262.67L174.61 262.55L176.67 261.73L178.75 260.52L180.71 259.34L182.31 258.09L186.85 254.57L190.43 252.73L192.58 251.15L194.77 248.97L200.32 246.70L209.86 241.59L207.68 235.97L207.42 234.10L207.37 232.36L207.36 229.44L209.33 229.20L212.30 227.99L213.90 227.14L215.69 223.56L215.38 219.79L214.48 215.12L214.11 212.99L214.08 210.50L214.07 208.26L214.55 203.87L215.62 201.95L217.01 200.22L215.42 197.68L213.62 192.40L212.19 185.56L210.75 178.70L215.22 173.22L218.74 172.55L223.55 169.99L226.06 167.79L228.65 166.55L231.28 164.64L233.80 163.89L237.63 163.02L241.07 163.40L248.83 156.80L250.96 156.24L254.38 155.05L262.12 145.06L261.63 142.56L260.04 141.26L256.66 139.36L253.46 137.09L253.63 134.16L252.43 131.92L249.42 130.84L245.34 131.52L243.56 131.96L242.53 130.70L242.00 127.70L241.04 121.57L241.13 118.06Z" data-ward="1" /><path id="ward-4" class="ward" d="M701.91 4.98L693.20 4.72L692.59 1.78L692.22 0.00L687.56 2.15L683.21 4.57L679.98 6.63L677.04 8.94L673.15 11.57L667.23 13.86L665.74 14.44L662.76 16.02L654.62 21.43L655.16 27.52L649.28 32.28L647.64 33.82L642.10 39.98L640.44 46.75L639.04 52.51L638.63 54.08L637.64 57.95L630.36 57.78L628.66 60.35L627.06 61.37L622.94 59.71L618.39 61.59L612.70 61.38L606.30 61.13L604.64 64.84L602.95 68.60L597.51 67.74L593.02 74.75L592.15 76.12L589.49 76.90L589.16 78.49L587.75 85.28L586.94 87.28L586.11 89.30L585.01 92.39L583.34 94.77L580.87 97.61L578.60 100.73L577.51 102.04L574.23 105.95L571.82 107.99L568.50 110.47L565.46 112.73L562.74 115.04L560.01 117.35L558.82 118.40L557.17 120.29L555.14 124.12L553.67 126.56L551.43 129.92L550.01 132.07L548.00 133.71L544.86 133.60L541.72 133.50L537.37 133.35L534.35 141.99L532.08 147.44L529.63 151.96L527.93 154.27L530.08 155.43L531.68 156.30L534.23 157.52L535.73 158.32L538.07 161.59L541.94 167.25L543.22 169.03L545.22 171.83L546.81 176.36L540.22 178.72L533.19 185.15L528.51 193.04L526.00 198.26L524.89 200.30L523.30 204.58L521.80 209.25L519.71 215.78L521.98 216.72L525.02 219.01L529.54 219.34L535.36 221.01L537.38 216.36L546.21 219.72L552.55 221.20L571.13 223.37L572.00 221.32L573.34 217.66L573.76 215.53L573.93 211.46L574.75 208.32L578.13 206.63L580.98 205.22L581.49 201.71L580.32 198.39L579.98 195.58L580.11 191.72L580.19 189.88L580.34 187.21L582.48 183.66L585.33 183.08L588.31 182.24L590.02 183.13L591.81 185.76L593.35 188.22L594.60 190.30L595.24 191.96L594.04 194.86L592.31 196.91L591.88 198.44L591.88 200.10L591.97 202.19L592.69 205.90L594.98 207.31L596.85 209.47L598.62 211.37L600.42 213.17L602.49 214.21L606.06 216.11L607.58 216.95L615.32 204.10L620.29 198.61L621.51 197.26L625.77 191.65L628.50 188.74L634.94 184.99L645.05 187.64L644.52 189.73L643.10 195.30L642.12 198.79L641.39 201.37L640.66 203.95L639.22 205.66L637.33 206.69L637.27 208.94L638.18 213.98L639.42 216.19L641.21 218.13L643.44 220.09L644.01 221.89L643.91 224.46L643.81 226.83L643.04 229.23L638.64 230.55L634.59 232.06L632.31 233.04L631.05 235.02L633.34 238.63L634.24 240.08L631.55 242.62L628.24 244.26L626.31 244.98L625.77 246.61L626.44 249.08L627.42 254.34L629.23 256.26L630.37 257.70L630.71 260.75L629.50 261.78L628.48 263.62L627.65 265.12L626.83 266.62L626.62 269.59L628.33 273.00L629.31 274.28L631.53 276.49L633.80 278.26L636.31 280.37L637.83 281.66L641.30 284.89L643.06 286.51L645.28 288.51L646.50 289.66L647.76 290.66L649.26 291.27L652.05 292.10L654.51 292.60L656.75 292.63L656.89 290.64L657.18 287.79L658.03 284.05L661.00 283.78L664.97 284.48L668.12 284.48L671.96 283.52L674.94 280.16L676.05 278.56L677.03 275.37L680.49 275.23L682.28 274.85L687.44 273.27L690.99 272.27L693.35 272.30L696.48 272.02L696.13 268.18L697.18 264.93L699.81 262.77L702.61 260.32L702.12 258.40L701.25 256.77L699.30 252.16L698.79 249.47L698.69 247.23L698.88 244.81L698.83 242.60L698.42 238.74L697.42 236.97L696.22 234.21L695.51 232.04L695.17 230.18L694.73 227.74L694.95 225.31L694.06 223.65L692.59 222.58L690.08 219.74L689.18 217.41L688.31 214.87L692.18 199.44L694.24 199.73L699.30 192.87L704.41 193.60L709.83 192.41L712.71 192.62L718.09 189.76L728.94 204.54L730.13 206.19L731.41 207.97L736.40 211.21L737.48 209.67L739.29 208.49L741.48 208.41L744.86 208.12L747.83 208.87L752.26 208.83L757.36 210.61L757.40 216.66L756.89 220.31L771.51 217.18L773.63 217.68L778.92 218.92L794.97 223.21L773.06 196.42L767.81 189.99L762.54 175.71L756.81 160.19L741.61 118.99L740.87 117.41L740.16 115.90L740.54 112.77L739.13 111.02L736.93 105.11L735.58 101.39L734.68 98.90L734.10 97.30L733.34 95.47L731.74 91.60L730.39 88.36L729.51 86.21L728.80 83.64L730.23 79.50L730.23 76.28L730.23 73.08L729.62 70.15L728.92 66.77L727.39 65.01L725.98 63.38L722.64 60.12L719.96 57.82L719.04 55.92L719.20 53.88L720.37 50.54L721.31 48.25L722.59 46.47L724.32 45.18L726.37 40.78L726.87 38.70L727.27 37.04L727.92 35.08L728.48 33.39L729.00 31.82L729.58 30.28L730.16 28.75L730.80 27.07L735.74 22.18L728.77 11.94L725.33 6.87L714.51 4.44L711.42 3.75L709.20 6.49L701.91 4.98Z" data-ward="4" /><path id="ward-3" class="ward" d="M448.99 55.13L434.70 40.31L425.50 46.07L421.27 46.51L417.60 49.97L414.30 52.94L410.78 55.25L408.34 55.47L402.67 51.83L398.92 48.47L396.98 48.16L394.63 48.96L391.86 48.84L390.02 47.03L387.78 45.27L379.70 48.97L375.75 46.71L370.37 48.75L369.29 52.13L368.08 55.75L366.40 60.78L363.19 60.93L361.65 60.14L356.63 59.89L354.72 64.11L353.20 64.86L352.07 66.05L348.86 67.01L346.12 67.82L347.19 74.60L348.36 88.03L336.50 93.12L330.51 98.04L328.34 102.65L327.66 104.63L327.39 106.90L327.89 111.71L329.21 114.14L331.53 115.68L334.80 117.65L335.67 122.29L337.43 128.71L339.04 136.26L340.02 138.32L341.22 141.12L343.20 143.30L350.36 142.63L355.51 142.76L357.25 147.50L359.91 152.05L360.97 153.70L364.10 158.16L365.83 161.06L371.11 168.96L373.19 170.10L374.44 172.62L379.19 172.95L380.64 174.58L381.24 177.94L380.84 181.55L380.68 185.48L380.50 189.76L380.66 192.58L381.43 199.41L379.68 201.36L376.94 202.93L373.99 204.55L372.53 205.22L369.83 206.21L366.20 207.92L363.86 209.29L362.24 209.97L359.25 211.10L357.14 212.08L355.92 213.85L354.99 215.90L354.21 217.34L353.27 219.76L352.73 222.01L351.19 228.77L350.19 231.72L349.24 234.59L347.44 239.08L345.68 242.99L343.63 247.54L342.81 249.65L341.14 253.49L343.22 255.84L346.91 258.38L348.71 260.18L350.85 262.68L352.21 264.12L355.74 268.32L361.14 266.27L363.77 265.10L369.62 262.29L371.75 263.24L374.08 265.10L376.41 266.96L379.22 268.31L380.54 264.06L382.26 260.94L383.80 258.84L385.84 257.28L386.95 255.15L387.59 252.08L388.26 248.83L389.04 246.08L389.43 243.85L391.25 244.02L393.09 244.15L395.45 244.75L396.35 247.46L397.82 249.43L397.81 252.65L397.80 255.32L398.20 256.91L399.46 258.64L402.44 259.31L404.92 259.51L406.84 259.66L408.06 258.63L410.75 257.30L414.04 256.05L419.74 252.81L421.18 250.75L423.47 243.46L425.70 244.04L427.93 244.61L429.70 244.93L432.61 245.47L434.70 246.42L439.95 246.98L443.10 247.27L448.68 248.44L449.88 239.35L450.30 236.22L498.09 210.56L503.58 211.57L514.94 215.24L519.71 215.78L521.80 209.25L523.30 204.58L524.89 200.30L526.00 198.26L528.51 193.04L533.19 185.15L540.22 178.72L546.81 176.36L545.22 171.83L543.22 169.03L541.94 167.25L538.07 161.59L535.73 158.32L534.23 157.52L531.68 156.30L530.08 155.43L527.93 154.27L529.63 151.96L532.08 147.44L534.35 141.99L537.37 133.35L541.72 133.50L544.86 133.60L548.00 133.71L550.01 132.07L551.43 129.92L553.67 126.56L555.14 124.12L557.17 120.29L558.82 118.40L560.01 117.35L562.74 115.04L565.46 112.73L568.50 110.47L571.82 107.99L574.23 105.95L577.51 102.04L578.60 100.73L580.87 97.61L583.34 94.77L585.01 92.39L586.11 89.30L586.94 87.28L587.75 85.28L589.16 78.49L589.49 76.90L578.89 75.57L571.38 74.63L568.94 74.32L567.11 74.10L565.27 73.86L563.21 73.61L561.33 73.59L559.38 73.57L556.92 73.55L555.03 73.53L551.96 73.50L550.40 73.17L544.57 72.09L542.73 70.61L542.28 66.71L540.43 66.31L526.73 63.32L521.10 62.09L512.47 60.21L501.60 57.83L492.39 55.83L488.80 53.49L484.48 54.49L477.64 56.07L472.43 54.91L465.11 53.68L464.96 56.32L465.30 59.13L465.11 65.14L463.60 68.90L460.48 67.06L457.61 65.38L456.05 64.46L452.46 61.75L450.12 59.99L448.81 59.08L448.99 55.13Z" data-ward="3" /><path id="ward-16" class="ward" d="M527.60 246.87L527.93 243.95L528.03 242.34L528.83 239.61L530.08 235.37L531.17 231.69L532.39 228.88L535.36 221.01L529.54 219.34L525.02 219.01L521.98 216.72L519.71 215.78L514.94 215.24L503.58 211.57L498.09 210.56L450.30 236.22L449.88 239.35L448.68 248.44L443.10 247.27L439.95 246.98L434.70 246.42L432.61 245.47L429.70 244.93L427.93 244.61L425.70 244.04L423.47 243.46L421.18 250.75L419.74 252.81L414.04 256.05L410.75 257.30L408.06 258.63L406.84 259.66L404.92 259.51L404.90 262.04L402.93 264.62L401.78 266.13L400.54 269.10L400.23 270.89L399.69 275.35L399.40 277.09L398.40 280.27L397.54 282.18L396.72 284.99L396.49 287.02L396.08 289.41L393.26 290.25L389.71 290.83L388.09 288.17L387.47 286.53L384.92 286.28L382.70 285.49L380.61 283.78L379.21 281.95L378.26 280.59L376.38 280.08L372.56 278.99L370.82 278.57L366.89 277.81L357.51 278.48L357.49 280.81L357.44 284.35L356.52 290.00L363.17 290.89L365.61 295.85L361.47 306.99L361.61 314.91L361.33 316.74L359.96 319.57L358.96 322.82L358.51 326.39L359.22 329.04L359.68 330.67L361.14 335.49L365.31 333.79L369.63 332.31L374.02 331.49L381.97 332.36L384.04 333.04L387.94 334.25L386.96 336.62L386.58 338.23L386.08 340.48L385.72 342.87L385.43 345.58L385.20 347.82L384.90 350.71L384.58 353.72L384.26 355.99L384.00 357.83L383.68 360.13L383.42 361.71L382.86 364.49L382.51 366.09L381.87 368.19L380.69 372.02L380.02 374.27L379.54 375.86L377.66 375.30L365.20 375.53L358.05 375.36L355.36 374.92L352.24 376.02L353.25 386.45L354.18 387.51L363.34 388.80L366.24 388.35L366.85 396.17L367.35 398.25L367.72 400.99L368.75 404.85L373.15 406.02L375.29 406.89L378.11 408.03L377.46 410.35L376.61 413.40L375.92 416.39L375.45 420.51L375.15 423.17L374.70 427.58L374.53 429.77L374.35 431.95L373.31 437.91L372.87 440.10L372.18 443.51L371.57 446.47L370.99 449.67L370.63 453.78L370.95 457.07L371.73 460.13L372.81 462.50L374.62 466.04L377.00 464.65L378.95 463.40L381.09 462.12L384.94 460.39L389.36 458.58L393.01 457.02L395.83 456.33L398.99 455.72L400.71 455.33L403.67 455.08L406.18 454.95L413.66 452.60L418.11 451.21L422.03 450.29L425.13 449.92L427.79 449.95L432.89 450.60L439.68 450.89L441.81 450.97L448.51 450.33L454.82 449.64L458.66 446.94L457.94 442.23L457.34 436.89L457.69 433.90L458.79 431.46L458.04 427.32L457.64 421.93L457.64 418.99L457.65 417.18L457.70 415.41L457.53 413.35L456.66 410.48L456.22 408.03L455.92 406.35L455.46 403.26L454.87 399.31L454.89 396.27L455.04 394.43L455.26 392.33L455.47 390.24L455.94 387.44L461.18 388.14L464.41 390.22L469.58 392.04L471.10 389.52L472.60 387.02L473.78 384.69L474.95 382.37L475.96 379.93L476.66 378.04L477.44 376.22L477.92 372.05L477.79 368.53L478.01 366.33L477.75 364.57L477.05 361.70L476.45 359.94L475.83 357.74L475.03 354.87L474.13 352.74L473.24 348.79L472.98 347.15L473.21 344.57L473.54 341.61L473.73 338.56L474.14 336.16L474.50 333.50L474.91 331.10L474.63 328.76L473.06 327.33L471.17 326.90L466.25 326.82L464.95 324.94L464.32 322.84L463.71 318.81L464.80 315.47L463.14 313.17L460.43 312.78L458.26 312.78L456.49 312.78L454.52 312.72L452.67 312.30L451.97 310.54L451.91 307.35L452.29 304.95L452.98 301.37L453.21 298.55L455.98 296.32L457.77 295.24L459.69 294.25L461.05 292.62L462.49 291.80L464.06 291.45L466.18 291.34L467.78 291.32L471.55 291.65L473.64 292.07L476.15 292.77L478.35 293.30L481.59 294.35L484.46 295.83L487.98 298.35L491.84 299.94L494.99 301.25L496.28 300.07L497.80 297.03L499.91 297.20L503.20 298.86L505.37 299.91L506.90 300.65L511.49 301.61L515.41 301.05L517.94 299.11L519.67 297.79L521.35 294.29L521.87 292.19L522.30 288.62L521.88 285.13L519.86 283.73L517.23 282.61L515.90 281.25L515.38 279.00L516.23 274.97L516.74 272.65L517.26 270.34L516.12 268.21L515.21 266.68L513.72 264.04L512.88 260.49L513.67 256.94L515.09 252.25L516.30 248.44L518.82 249.02L521.97 250.07L524.64 250.28L527.49 250.24L527.60 246.87Z" data-ward="16" /><path id="ward-15" class="ward" d="M521.97 250.07L518.82 249.02L516.30 248.44L515.09 252.25L513.67 256.94L512.88 260.49L513.72 264.04L515.21 266.68L516.12 268.21L517.26 270.34L516.74 272.65L516.23 274.97L515.38 279.00L515.90 281.25L517.23 282.61L519.86 283.73L521.88 285.13L522.30 288.62L521.87 292.19L521.35 294.29L519.67 297.79L517.94 299.11L515.41 301.05L511.49 301.61L506.90 300.65L505.37 299.91L503.20 298.86L499.91 297.20L497.80 297.03L496.28 300.07L494.99 301.25L491.84 299.94L487.98 298.35L484.46 295.83L481.59 294.35L478.35 293.30L476.15 292.77L473.64 292.07L471.55 291.65L467.78 291.32L466.18 291.34L464.06 291.45L462.49 291.80L461.05 292.62L459.69 294.25L457.77 295.24L455.98 296.32L453.21 298.55L452.98 301.37L452.29 304.95L451.91 307.35L451.97 310.54L452.67 312.30L454.52 312.72L456.49 312.78L458.26 312.78L460.43 312.78L463.14 313.17L464.80 315.47L463.71 318.81L464.32 322.84L464.95 324.94L466.25 326.82L471.17 326.90L473.06 327.33L474.63 328.76L474.91 331.10L474.50 333.50L474.14 336.16L473.73 338.56L473.54 341.61L473.21 344.57L472.98 347.15L473.24 348.79L474.13 352.74L475.03 354.87L475.83 357.74L476.45 359.94L477.05 361.70L477.75 364.57L478.01 366.33L477.79 368.53L477.92 372.05L477.44 376.22L476.66 378.04L475.96 379.93L474.95 382.37L473.78 384.69L472.60 387.02L471.10 389.52L469.58 392.04L464.41 390.22L461.18 388.14L455.94 387.44L455.47 390.24L455.26 392.33L455.04 394.43L454.89 396.27L454.87 399.31L455.46 403.26L455.92 406.35L456.22 408.03L456.66 410.48L457.53 413.35L457.70 415.41L457.65 417.18L457.64 418.99L457.64 421.93L458.04 427.32L458.79 431.46L457.69 433.90L457.34 436.89L457.94 442.23L458.66 446.94L464.49 446.73L466.44 446.24L471.52 445.99L474.37 446.88L477.36 448.07L479.00 448.75L480.85 449.51L483.30 450.41L485.25 450.99L487.84 451.67L491.07 452.52L493.98 453.12L497.04 454.05L498.89 454.73L501.12 455.56L503.34 456.34L505.42 457.05L508.15 458.06L510.21 458.76L511.89 459.34L514.26 460.21L516.63 460.98L519.28 461.65L521.22 462.06L522.91 462.36L526.11 462.78L530.08 462.92L532.56 462.90L535.54 462.68L539.11 460.52L542.99 458.34L545.71 457.20L549.20 455.81L553.25 454.23L558.39 452.04L562.60 451.09L565.88 450.57L569.91 450.38L573.51 450.14L575.64 450.01L579.45 449.78L579.47 446.30L579.48 442.83L579.48 440.28L579.37 436.90L579.22 432.55L579.09 428.31L577.75 424.46L576.62 421.40L573.74 417.75L572.52 415.40L571.96 413.69L571.19 411.55L570.15 409.33L568.51 406.39L565.82 402.83L563.69 400.58L560.45 400.13L557.77 400.02L555.45 399.91L552.64 400.00L549.20 399.80L546.90 397.30L546.84 392.74L547.52 388.31L547.80 384.45L547.91 382.48L548.10 379.00L548.08 376.60L548.05 372.60L547.99 368.64L547.63 364.23L546.68 358.94L547.24 356.68L548.27 352.03L548.87 347.94L548.91 344.32L548.92 342.64L548.45 337.05L547.75 330.15L547.36 326.48L547.18 322.01L547.65 318.60L548.27 316.45L549.34 312.77L551.17 307.33L552.58 303.98L554.43 299.62L557.65 293.89L559.21 290.27L559.96 288.64L561.74 284.59L562.92 281.85L563.80 279.53L564.53 277.53L565.26 276.09L567.79 271.82L567.16 267.79L566.25 264.70L565.34 261.62L564.95 257.84L562.90 257.49L559.79 256.98L556.63 257.32L554.40 255.91L550.88 254.15L549.29 253.44L547.24 252.76L545.00 252.09L542.30 252.20L539.91 252.32L535.72 251.65L534.07 251.15L531.53 250.35L529.98 249.86L527.49 250.24L524.64 250.28L521.97 250.07Z" data-ward="15" /><path id="ward-14" class="ward" d="M606.06 216.11L602.49 214.21L600.42 213.17L598.62 211.37L596.85 209.47L594.98 207.31L592.69 205.90L591.97 202.19L591.88 200.10L591.88 198.44L592.31 196.91L594.04 194.86L595.24 191.96L594.60 190.30L593.35 188.22L591.81 185.76L590.02 183.13L588.31 182.24L585.33 183.08L582.48 183.66L580.34 187.21L580.19 189.88L580.11 191.72L579.98 195.58L580.32 198.39L581.49 201.71L580.98 205.22L578.13 206.63L574.75 208.32L573.93 211.46L573.76 215.53L573.34 217.66L572.00 221.32L571.13 223.37L552.55 221.20L546.21 219.72L537.38 216.36L535.36 221.01L532.39 228.88L531.17 231.69L530.08 235.37L528.83 239.61L528.03 242.34L527.93 243.95L527.60 246.87L527.49 250.24L529.98 249.86L531.53 250.35L534.07 251.15L535.72 251.65L539.91 252.32L542.30 252.20L545.00 252.09L547.24 252.76L549.29 253.44L550.88 254.15L554.40 255.91L556.63 257.32L559.79 256.98L562.90 257.49L564.95 257.84L565.34 261.62L566.25 264.70L567.16 267.79L567.79 271.82L565.26 276.09L564.53 277.53L563.80 279.53L562.92 281.85L561.74 284.59L559.96 288.64L559.21 290.27L557.65 293.89L554.43 299.62L552.58 303.98L551.17 307.33L549.34 312.77L548.27 316.45L547.65 318.60L547.18 322.01L547.36 326.48L547.75 330.15L548.45 337.05L548.92 342.64L548.91 344.32L548.87 347.94L548.27 352.03L547.24 356.68L546.68 358.94L547.63 364.23L547.99 368.64L548.05 372.60L548.08 376.60L548.10 379.00L547.91 382.48L547.80 384.45L547.52 388.31L546.84 392.74L546.90 397.30L549.20 399.80L552.64 400.00L555.45 399.91L557.77 400.02L560.45 400.13L563.69 400.58L565.82 402.83L568.51 406.39L570.15 409.33L571.19 411.55L571.96 413.69L572.52 415.40L573.74 417.75L576.62 421.40L577.75 424.46L579.09 428.31L579.22 432.55L579.37 436.90L579.48 440.28L579.48 442.83L579.47 446.30L579.45 449.78L584.24 448.83L587.12 448.41L589.45 448.01L593.01 447.22L594.67 446.10L597.32 446.64L599.16 446.86L601.19 446.89L603.25 446.92L605.52 446.74L608.72 446.11L610.46 445.63L614.55 442.79L618.62 439.96L621.26 437.39L622.80 435.76L624.34 434.13L627.71 431.22L632.48 428.85L636.84 427.79L640.37 427.41L644.11 426.96L647.93 426.47L651.11 425.45L653.41 424.15L655.14 422.70L656.94 421.20L660.26 417.95L661.85 416.35L663.75 414.63L664.94 413.55L668.42 409.59L670.52 406.68L673.32 402.79L674.43 401.15L673.77 399.03L672.78 397.29L670.02 395.77L667.63 397.73L665.61 398.50L663.97 397.79L663.33 396.01L664.13 394.58L665.53 392.65L666.99 390.88L668.87 389.21L672.06 387.39L674.03 386.37L676.61 384.24L679.93 381.67L679.91 379.31L679.72 377.25L679.70 375.53L679.73 373.78L680.24 372.09L681.43 366.56L682.94 362.75L684.48 363.35L686.03 363.95L690.45 363.82L697.31 363.75L702.22 363.70L704.89 363.57L708.22 363.41L710.42 363.83L712.90 364.74L715.75 365.72L717.15 359.96L717.12 356.48L717.14 352.70L717.08 349.19L714.91 348.22L712.92 347.34L711.13 346.54L711.54 344.52L711.97 342.02L712.38 339.98L712.74 337.90L711.23 335.87L709.68 335.29L707.48 334.41L706.77 331.20L706.82 328.23L706.76 324.96L706.03 322.38L704.00 318.78L700.91 315.79L699.12 313.98L696.76 311.32L695.49 310.32L692.84 309.03L689.58 307.68L687.13 306.71L684.68 305.73L683.06 304.17L681.77 300.94L679.81 297.09L677.30 296.46L671.93 298.73L669.52 300.03L666.94 301.68L665.28 302.20L662.17 301.26L661.44 298.49L661.17 296.83L660.55 294.44L658.37 293.13L656.75 292.63L654.51 292.60L652.05 292.10L649.26 291.27L647.76 290.66L646.50 289.66L645.28 288.51L643.06 286.51L641.30 284.89L637.83 281.66L636.31 280.37L633.80 278.26L631.53 276.49L629.31 274.28L628.33 273.00L626.62 269.59L626.83 266.62L627.65 265.12L628.48 263.62L629.50 261.78L630.71 260.75L630.37 257.70L629.23 256.26L627.42 254.34L626.44 249.08L625.77 246.61L626.31 244.98L628.24 244.26L631.55 242.62L634.24 240.08L633.34 238.63L631.05 235.02L632.31 233.04L634.59 232.06L638.64 230.55L643.04 229.23L643.81 226.83L643.91 224.46L644.01 221.89L643.44 220.09L641.21 218.13L639.42 216.19L638.18 213.98L637.27 208.94L637.33 206.69L639.22 205.66L640.66 203.95L641.39 201.37L642.12 198.79L643.10 195.30L644.52 189.73L645.05 187.64L634.94 184.99L628.50 188.74L625.77 191.65L621.51 197.26L620.29 198.61L615.32 204.10L607.58 216.95L606.06 216.11Z" data-ward="14" /><path id="ward-9" class="ward" d="M531.37 510.60L532.09 508.90L529.68 508.26L526.82 507.95L523.95 507.63L522.27 507.29L520.39 506.67L518.75 506.37L517.61 508.05L516.67 509.81L515.62 511.78L512.75 511.06L509.49 510.43L506.54 509.99L502.97 508.91L499.38 508.08L493.24 509.48L491.38 509.78L488.94 509.85L486.64 509.54L483.99 509.10L481.17 508.90L479.47 508.84L477.82 509.06L475.93 509.57L473.67 510.19L469.57 510.63L463.67 511.77L457.73 513.79L455.80 514.37L453.62 515.04L451.45 515.71L447.84 516.86L445.40 517.36L439.14 518.64L432.05 519.41L429.24 519.74L426.15 520.10L424.25 520.32L420.90 520.71L416.94 521.16L409.31 522.89L410.90 525.51L411.70 527.97L412.29 529.88L414.81 531.25L417.93 530.75L423.80 529.75L426.14 529.23L427.77 530.58L428.66 533.38L428.32 536.70L427.43 538.40L425.88 540.42L424.49 542.87L424.98 549.10L425.13 553.26L424.94 556.35L424.89 559.53L426.66 563.45L427.66 565.29L430.01 569.74L431.11 572.14L431.85 573.74L432.75 575.69L434.32 579.09L436.10 582.18L437.48 584.58L438.45 587.11L438.45 590.39L438.95 593.48L439.74 596.30L440.68 599.64L438.40 602.60L435.40 604.22L433.23 605.60L430.83 607.14L428.38 608.95L426.61 610.26L423.03 610.95L421.28 610.92L419.67 610.71L416.92 610.37L416.79 612.78L417.99 617.22L417.96 619.22L417.93 620.89L417.44 623.34L417.06 625.15L426.91 624.61L435.11 623.47L437.26 621.14L438.16 618.44L438.55 616.58L443.18 614.09L444.58 613.27L449.31 611.80L454.20 609.21L456.29 609.91L458.99 614.25L460.10 615.75L461.61 617.48L463.37 620.38L464.70 622.34L467.12 621.73L476.93 618.79L477.36 620.91L478.48 624.02L479.78 626.49L480.22 629.31L478.50 630.52L474.42 632.86L472.62 634.09L473.20 640.28L474.64 643.91L476.56 647.20L477.70 650.02L478.39 651.81L474.86 652.80L472.17 653.94L470.70 654.61L468.12 655.90L465.30 657.82L463.51 659.01L461.21 660.36L458.53 662.05L455.35 664.26L452.94 666.04L448.59 668.47L446.32 669.48L443.89 670.37L441.67 671.02L438.66 671.29L435.25 671.50L438.06 675.68L438.87 678.28L438.90 680.71L438.44 682.72L437.39 686.12L437.71 689.02L437.50 691.08L437.00 693.55L436.33 695.77L435.58 698.49L434.79 701.08L434.58 702.64L434.27 704.69L435.01 706.06L435.25 707.34L435.45 708.38L443.30 706.61L444.27 708.24L446.41 707.54L448.60 706.82L449.92 704.07L451.66 702.80L453.49 701.47L455.59 700.13L456.16 699.95L456.37 699.90L456.71 699.78L457.53 699.75L458.36 699.75L458.60 699.72L459.06 699.84L459.64 699.95L460.22 700.07L460.80 700.10L461.06 700.16L463.84 700.51L466.47 700.39L468.52 697.23L469.46 695.06L472.83 695.85L475.07 696.38L476.77 696.78L479.39 697.39L482.39 696.77L485.42 696.28L492.21 695.20L497.13 694.42L498.90 694.20L503.28 693.57L506.69 693.08L507.25 695.47L509.74 696.79L511.48 696.39L513.59 695.92L517.26 695.16L522.01 693.89L525.46 693.05L531.29 691.80L534.54 691.54L537.01 687.99L536.71 686.34L539.35 683.42L540.98 681.62L542.76 680.23L544.50 678.88L543.09 676.84L541.42 674.49L540.03 672.33L538.36 669.30L539.37 666.96L540.80 665.33L542.61 663.62L544.49 661.46L545.76 660.05L547.03 659.06L549.23 658.39L552.09 657.53L555.90 656.07L560.79 654.20L563.17 652.34L563.42 649.39L562.82 645.86L564.14 643.58L567.14 642.34L569.92 641.65L572.70 640.95L577.87 640.09L580.45 636.53L581.10 634.73L581.74 632.92L582.64 630.84L583.76 628.43L584.53 625.72L582.85 622.94L584.44 620.10L585.88 618.37L587.38 616.62L589.04 614.70L589.82 612.59L591.16 608.02L592.13 604.36L592.57 602.71L591.58 600.69L588.18 599.04L586.30 598.04L584.43 597.04L582.91 596.19L579.72 595.18L576.77 594.84L575.02 594.64L573.28 594.44L571.01 594.17L565.93 593.68L564.34 593.44L559.29 592.60L556.16 592.26L553.14 592.03L550.20 591.55L548.48 591.24L546.83 590.93L544.90 590.60L542.97 590.27L541.34 589.95L539.71 589.62L538.12 589.25L536.14 588.72L534.17 588.19L532.04 587.53L529.23 586.66L526.56 585.83L524.76 585.19L521.78 584.34L518.75 583.14L516.95 582.13L514.10 580.93L512.00 579.95L510.63 578.89L512.53 576.36L513.59 574.94L515.25 572.97L517.58 570.93L518.32 567.88L516.80 565.03L516.26 563.23L519.69 559.53L521.97 557.31L523.47 555.34L524.42 552.89L525.57 551.32L526.60 550.04L528.64 547.94L531.05 545.64L529.81 542.24L528.47 540.20L527.48 538.26L527.02 536.46L526.81 533.33L526.64 531.44L526.73 527.36L526.88 524.95L529.88 525.31L529.91 523.65L530.27 521.29L530.46 518.40L530.16 514.22L530.69 512.21L531.37 510.60Z" data-ward="9" /><path id="ward-8" class="ward" d="M667.49 549.20L666.57 546.81L665.86 544.82L664.83 542.82L664.41 539.30L663.58 537.65L662.75 536.03L661.28 534.23L659.06 531.65L657.36 529.80L655.68 528.01L653.90 525.43L652.84 521.94L652.13 520.42L651.17 518.49L650.40 517.05L649.69 515.21L648.92 513.67L647.01 510.73L645.47 508.28L644.51 506.55L643.61 504.14L642.21 501.17L640.43 497.37L639.55 495.39L637.10 491.63L634.84 494.20L633.20 496.71L631.98 499.44L631.08 500.83L629.82 502.69L627.48 505.43L621.06 510.98L615.71 515.46L613.08 517.60L611.29 519.20L609.49 520.80L607.72 522.46L606.44 524.41L605.58 525.99L605.27 527.57L605.66 529.22L605.85 534.03L606.23 539.74L606.84 542.72L606.97 545.24L603.79 546.71L600.72 548.11L597.18 549.64L592.22 550.28L585.77 549.16L583.03 547.96L581.56 546.98L577.58 544.08L575.98 542.62L574.30 541.27L572.93 540.17L570.39 539.42L566.72 538.34L561.77 537.02L559.14 536.19L554.82 534.81L549.57 533.25L543.68 533.67L541.67 534.05L539.29 534.79L537.22 535.00L535.27 534.77L533.88 533.88L531.45 532.28L529.90 531.56L529.58 528.77L529.88 525.31L526.88 524.95L526.73 527.36L526.64 531.44L526.81 533.33L527.02 536.46L527.48 538.26L528.47 540.20L529.81 542.24L531.05 545.64L528.64 547.94L526.60 550.04L525.57 551.32L524.42 552.89L523.47 555.34L521.97 557.31L519.69 559.53L516.26 563.23L516.80 565.03L518.32 567.88L517.58 570.93L515.25 572.97L513.59 574.94L512.53 576.36L510.63 578.89L512.00 579.95L514.10 580.93L516.95 582.13L518.75 583.14L521.78 584.34L524.76 585.19L526.56 585.83L529.23 586.66L532.04 587.53L534.17 588.19L536.14 588.72L538.12 589.25L539.71 589.62L541.34 589.95L542.97 590.27L544.90 590.60L546.83 590.93L548.48 591.24L550.20 591.55L553.14 592.03L556.16 592.26L559.29 592.60L564.34 593.44L565.93 593.68L571.01 594.17L573.28 594.44L575.02 594.64L576.77 594.84L579.72 595.18L582.91 596.19L584.43 597.04L586.30 598.04L588.18 599.04L591.58 600.69L592.57 602.71L592.13 604.36L591.16 608.02L589.82 612.59L589.04 614.70L587.38 616.62L585.88 618.37L584.44 620.10L582.85 622.94L584.53 625.72L583.76 628.43L582.64 630.84L581.74 632.92L581.10 634.73L580.45 636.53L577.87 640.09L572.70 640.95L569.92 641.65L567.14 642.34L564.14 643.58L562.82 645.86L563.42 649.39L563.17 652.34L560.79 654.20L555.90 656.07L552.09 657.53L549.23 658.39L547.03 659.06L545.76 660.05L544.49 661.46L542.61 663.62L540.80 665.33L539.37 666.96L538.36 669.30L540.03 672.33L541.42 674.49L543.09 676.84L544.50 678.88L548.27 680.68L555.25 679.73L562.55 678.73L571.15 675.41L575.43 675.27L581.12 675.09L585.49 674.51L587.28 673.93L591.03 672.78L592.78 672.25L594.98 671.08L597.75 669.67L601.77 668.01L604.93 664.66L609.26 660.09L614.82 657.23L620.21 654.46L621.03 651.81L621.11 651.50L621.14 651.30L621.32 650.65L621.34 650.60L620.82 648.86L621.90 646.16L623.82 644.79L627.10 642.46L628.76 641.81L633.08 640.13L635.18 640.99L636.76 643.56L637.54 646.08L638.29 648.14L639.17 650.59L640.83 652.69L645.98 653.25L647.91 653.90L650.17 654.66L652.02 655.75L653.76 656.78L653.93 656.19L654.37 653.65L654.50 652.52L654.76 651.75L655.22 651.25L655.67 651.08L656.92 651.13L658.11 651.60L658.78 651.84L659.41 649.80L659.61 633.93L669.52 634.41L674.14 634.63L681.11 627.71L685.86 623.00L690.13 619.76L692.05 616.74L693.57 614.36L696.09 611.85L698.73 610.99L702.37 608.21L704.84 607.62L707.18 605.79L710.26 603.39L712.76 602.98L714.14 601.82L717.26 599.35L719.57 597.52L724.55 594.76L727.15 593.54L733.48 594.57L734.50 599.37L734.72 601.23L735.13 604.82L736.69 605.41L738.94 606.08L740.86 605.87L744.24 605.50L744.18 613.34L746.38 618.33L747.37 621.89L749.06 627.65L751.11 626.19L756.29 625.26L759.47 624.69L760.13 615.50L760.26 613.71L762.01 613.03L767.12 611.02L770.45 610.52L773.64 608.61L778.13 607.64L780.05 607.38L782.41 606.64L785.89 605.55L783.47 600.03L782.50 598.51L780.77 595.99L779.74 593.76L778.44 591.20L777.31 588.97L774.99 585.63L763.16 568.61L760.88 565.56L758.60 562.53L757.35 561.29L753.82 558.53L751.63 557.75L749.43 556.97L745.17 556.41L742.18 556.01L739.76 554.90L737.05 553.26L733.53 550.84L730.99 549.11L727.65 547.87L725.68 547.10L722.35 546.16L719.75 545.71L715.57 545.59L713.87 545.99L712.03 546.46L706.50 547.89L700.09 549.26L695.55 550.17L689.68 551.34L683.29 552.62L680.84 552.68L678.52 552.84L676.22 552.87L673.98 553.07L670.87 553.11L669.25 553.05L667.74 552.41L667.49 549.20Z" data-ward="8" /></svg>