<svg viewBox="0 0 1000.00 576.08" xmlns="http://www.w3.org/2000/svg"><style>.ward { fill: #e2e8f0; stroke: #fff; stroke-width: 0.5px; } .ward:hover { fill: #cbd5e1; }</style><path id="ward-4" class="ward" d="M988.02 207.61L986.98 205.26L986.00 203.42L984.77 201.08L984.13 199.91L983.38 198.53L982.44 196.84L981.29 194.78L977.50 189.78L975.73 187.75L974.88 186.78L973.42 185.14L972.25 183.88L971.26 182.58L969.34 180.04L966.87 176.74L965.70 175.18L963.81 172.47L961.91 169.76L958.03 163.18L956.97 161.48L955.36 158.89L954.34 157.25L951.76 153.70L950.73 152.35L948.19 149.02L945.43 145.47L940.11 138.64L936.77 134.08L934.37 130.23L932.96 127.41L931.70 124.88L930.83 122.96L928.39 117.59L927.85 116.21L926.70 113.26L926.23 111.37L925.87 109.90L924.67 105.10L923.51 100.40L922.97 97.78L918.29 104.31L917.00 106.21L915.89 107.86L914.22 110.31L913.15 111.89L912.24 113.69L911.47 115.07L910.32 117.11L908.97 119.90L907.62 122.32L906.37 124.47L905.51 125.92L906.90 129.90L906.36 132.65L905.64 134.95L904.99 136.41L904.31 137.95L903.84 139.27L903.01 141.59L902.19 144.34L901.46 146.85L900.96 148.60L900.08 151.69L899.27 154.17L898.47 156.54L897.96 160.57L897.45 162.04L895.70 163.55L894.53 164.29L892.63 165.26L890.84 166.17L888.75 166.89L887.54 167.32L887.94 169.29L888.43 174.14L887.05 175.05L885.29 176.12L883.59 177.13L883.55 179.20L883.65 180.94L883.72 182.26L884.00 187.52L884.47 190.93L884.95 194.61L885.41 198.71L885.55 200.03L886.33 207.06L886.42 208.40L884.56 208.45L883.21 208.36L881.00 208.18L879.03 208.02L877.40 207.89L874.98 207.70L873.24 207.56L870.80 207.36L869.42 207.25L867.89 207.13L865.83 206.79L864.41 206.50L861.30 206.31L858.58 206.26L855.15 206.19L852.87 206.25L851.17 206.42L849.43 206.26L847.81 205.89L845.86 205.12L844.52 204.47L842.22 203.28L840.81 202.67L839.03 201.80L836.98 200.63L835.68 199.90L834.14 199.14L832.60 198.38L830.72 197.18L829.62 196.37L827.82 194.98L826.38 196.82L824.93 198.36L823.74 198.89L821.83 199.11L820.33 198.62L819.42 197.42L817.05 197.05L814.84 197.75L812.25 199.01L808.48 204.84L804.50 211.01L803.87 212.22L802.67 214.83L799.79 221.13L798.55 223.83L795.96 228.61L793.65 230.15L791.76 231.86L789.97 234.17L788.36 235.69L786.72 236.91L785.54 238.00L788.13 239.33L791.56 241.18L794.46 242.04L796.02 242.45L798.43 243.09L799.99 244.04L801.54 244.99L802.97 245.76L806.20 247.50L808.58 249.04L810.35 250.18L814.85 253.09L817.16 255.38L819.95 257.42L823.57 259.79L824.90 260.58L826.78 262.12L828.70 264.16L831.29 265.83L832.62 266.26L835.94 266.18L838.53 265.24L841.11 264.30L843.05 263.98L845.56 262.06L847.68 259.46L853.13 255.24L856.59 253.15L859.66 251.08L861.96 250.45L864.71 250.76L865.81 252.04L866.32 253.23L869.03 256.12L870.26 256.67L873.14 257.44L875.58 258.58L878.01 259.63L880.39 260.20L883.38 260.60L885.76 260.50L888.95 260.15L893.64 259.55L895.07 261.11L896.06 261.99L901.65 261.48L906.30 261.85L904.95 266.63L903.57 271.55L903.08 276.75L903.78 280.71L903.86 283.04L903.63 284.64L903.33 286.29L903.35 288.75L902.98 290.01L902.81 291.38L903.22 294.12L904.51 295.63L906.75 295.26L909.38 293.70L911.08 293.76L913.86 293.83L917.86 294.61L920.32 294.21L921.67 293.99L925.35 293.38L929.68 293.22L931.22 293.59L932.76 293.96L936.17 293.86L939.60 293.75L941.82 294.00L945.68 294.44L948.15 294.76L950.70 295.14L959.16 295.44L963.91 295.61L970.41 297.99L973.91 291.83L976.80 287.78L974.87 284.06L972.51 278.34L971.06 275.75L970.00 272.41L983.73 264.45L983.31 263.09L982.78 261.35L984.88 258.20L987.42 254.39L987.09 252.38L986.79 250.53L986.19 246.84L984.22 238.85L988.35 237.06L991.32 235.96L993.31 235.22L996.02 233.99L998.37 232.92L1000.00 232.17L997.79 227.75L995.74 223.66L994.12 220.18L993.26 218.32L992.52 216.71L991.63 214.92L990.97 213.56L989.06 209.70L988.02 207.61Z" data-ward="4" /><path id="ward-6" class="ward" d="M725.16 234.77L722.87 234.58L716.90 233.94L714.45 233.67L710.97 233.11L708.37 232.69L706.51 232.38L700.90 231.45L699.33 231.06L696.22 230.40L694.32 230.17L692.04 229.92L689.69 229.70L687.33 229.48L685.36 229.33L683.63 229.19L680.44 228.93L677.68 228.78L675.34 228.74L673.19 229.61L671.18 232.58L670.75 234.39L669.28 236.34L667.51 237.93L666.43 238.90L665.18 240.09L663.28 241.79L661.10 243.25L658.02 245.67L655.74 247.07L652.87 248.45L649.17 250.18L647.59 250.83L644.64 252.29L643.25 253.20L638.94 255.96L636.99 257.47L634.41 257.49L632.23 259.09L630.55 260.23L628.47 261.26L629.24 263.44L630.20 266.03L631.03 268.38L632.25 270.67L633.05 272.03L634.49 273.81L634.77 276.44L635.19 278.32L635.60 280.19L636.74 283.23L639.01 284.73L641.25 286.34L643.83 287.93L644.42 289.56L645.73 291.89L648.63 295.36L649.85 298.73L650.94 303.74L651.21 306.17L651.58 307.82L653.72 310.97L655.31 313.26L656.83 315.28L658.16 317.06L659.30 318.40L660.52 319.74L661.66 320.43L663.24 320.95L664.75 321.45L666.10 322.59L667.37 324.20L669.06 326.06L670.13 327.17L671.52 329.54L671.86 330.83L672.72 332.80L673.46 334.57L674.74 335.95L676.58 337.83L679.45 340.68L681.01 342.28L682.91 343.68L684.55 344.94L686.05 346.20L687.07 347.05L689.25 348.60L690.51 349.83L693.77 352.50L694.93 353.60L697.55 356.61L698.86 357.77L701.60 359.32L703.07 360.22L704.37 360.97L705.77 361.72L708.83 363.32L710.27 364.00L713.00 365.17L715.70 366.19L718.10 366.74L719.81 367.28L721.78 367.36L725.96 367.87L727.62 368.21L728.84 368.59L730.27 369.21L732.11 369.91L733.78 370.39L735.79 370.71L737.08 370.70L738.64 370.83L741.35 371.05L742.26 369.82L743.74 368.01L746.41 368.50L748.77 368.82L750.77 368.91L754.51 369.08L755.94 369.34L757.89 369.84L762.87 371.09L765.67 372.18L767.60 373.21L770.84 375.21L773.35 376.61L774.78 377.38L776.35 378.06L777.93 378.75L779.16 376.07L780.21 373.82L778.92 372.77L779.39 370.52L780.97 367.27L781.64 365.86L782.51 364.28L783.14 363.12L784.02 361.45L784.60 360.22L785.68 357.92L786.65 356.31L787.60 354.26L788.22 352.94L788.91 351.51L790.44 348.22L791.90 345.59L792.79 344.10L792.86 341.91L793.17 340.62L793.62 339.35L794.26 338.03L795.38 336.19L796.74 333.29L797.17 331.62L797.68 328.85L798.10 326.99L798.26 325.58L798.40 323.84L798.48 322.24L798.49 320.75L798.53 318.53L798.62 316.46L798.87 312.96L799.32 309.62L799.90 307.56L800.92 304.87L802.09 301.36L802.52 299.81L803.14 297.54L803.89 295.47L804.95 292.53L805.68 290.17L806.02 288.85L806.84 286.25L807.59 284.43L808.54 282.46L809.66 280.25L810.54 278.82L811.72 277.20L812.75 275.86L813.74 274.31L814.70 271.97L815.14 270.15L815.84 267.25L816.23 265.13L816.86 263.19L817.37 261.63L818.05 259.54L819.95 257.42L817.16 255.38L814.85 253.09L810.35 250.18L808.58 249.04L806.20 247.50L802.97 245.76L801.54 244.99L799.99 244.04L798.43 243.09L796.02 242.45L794.46 242.04L791.56 241.18L788.13 239.33L785.54 238.00L782.30 237.57L779.00 237.60L777.62 237.49L771.90 236.43L767.07 235.31L765.40 234.97L763.74 234.62L762.36 234.43L760.63 234.17L758.99 233.87L757.24 233.70L755.71 233.82L752.81 234.19L750.55 234.32L747.27 234.42L745.45 234.53L743.63 234.63L741.29 234.54L739.61 234.75L737.92 234.97L736.47 234.86L733.95 234.78L731.43 234.69L729.02 234.78L726.61 234.87L725.16 234.77Z" data-ward="6" /><path id="ward-16" class="ward" d="M176.25 62.00L171.76 49.33L170.82 45.74L170.72 43.92L170.18 42.72L168.92 39.91L167.40 39.80L161.05 37.08L157.00 35.68L152.94 34.27L149.31 34.00L147.58 32.73L147.50 30.82L147.41 28.83L146.00 26.61L144.86 24.77L144.03 21.37L142.86 18.41L139.36 16.63L135.48 16.38L129.44 19.38L119.93 24.10L117.79 25.19L114.11 27.07L107.52 31.11L97.96 36.97L82.37 46.70L66.39 56.67L64.92 57.59L58.11 61.84L56.72 62.29L55.23 65.03L54.89 70.59L52.74 80.55L48.44 89.83L43.88 95.70L32.80 101.59L20.36 104.02L0.00 140.11L3.47 147.46L11.52 164.50L12.89 164.63L14.31 165.86L16.82 165.66L18.49 164.91L19.55 163.99L20.54 162.99L22.04 161.99L23.47 161.16L24.44 159.83L25.21 158.78L26.08 157.59L27.79 154.57L38.24 158.20L39.94 158.11L45.74 157.74L59.59 168.19L60.90 175.01L79.01 188.43L88.97 180.23L96.48 175.68L99.64 179.24L102.66 182.07L104.36 183.85L105.66 185.04L106.70 186.14L107.84 187.41L109.44 190.38L110.08 191.63L111.73 194.08L113.34 194.80L116.10 195.59L118.62 196.04L121.11 196.49L124.25 196.67L129.54 196.19L131.87 196.12L135.25 195.95L137.98 195.81L143.36 195.85L145.88 195.90L148.75 196.16L150.23 196.28L153.01 196.63L154.32 196.62L156.91 196.40L159.75 196.28L161.17 196.34L165.85 197.45L168.32 197.55L171.00 197.11L172.63 196.86L175.60 196.31L176.99 193.58L179.20 193.06L180.59 193.01L181.87 192.93L183.21 193.06L184.50 193.15L186.30 193.42L188.04 193.62L190.64 193.43L192.14 193.15L194.14 192.68L197.18 191.99L198.95 191.58L200.37 191.38L201.86 191.25L204.14 191.34L206.02 191.15L207.61 190.56L210.71 189.73L213.68 188.20L213.01 185.13L214.38 184.33L216.46 183.68L217.86 183.21L219.59 182.08L220.92 181.21L222.44 180.16L223.97 179.10L226.96 181.06L229.00 182.41L228.89 184.42L227.87 187.48L226.56 187.49L226.39 188.78L227.77 189.60L229.53 190.15L232.72 191.09L234.87 191.78L237.75 192.60L239.57 193.02L241.24 193.39L243.52 193.88L244.88 194.20L247.42 194.77L250.10 195.81L253.13 191.79L254.06 190.60L256.56 187.28L258.86 184.27L261.70 180.55L264.05 177.47L265.76 175.78L266.86 174.77L268.31 175.79L270.26 176.41L271.95 176.87L275.67 177.66L279.92 178.72L284.29 179.60L288.38 180.10L290.30 180.34L291.58 180.74L293.64 181.55L298.96 183.58L304.21 185.77L307.62 187.24L309.80 188.00L314.10 188.88L313.60 193.73L317.24 193.93L318.76 194.41L321.45 195.26L325.83 196.42L328.08 197.06L331.20 197.93L332.41 198.36L335.98 200.50L337.61 201.49L339.91 200.37L341.29 199.47L343.58 198.00L344.16 196.48L344.87 194.61L345.59 192.01L346.20 189.06L395.66 134.05L411.56 138.87L430.44 146.42L451.09 161.76L462.38 171.59L466.37 176.22L473.42 184.94L494.37 169.48L495.90 168.09L493.44 166.14L491.81 164.40L489.95 162.35L488.31 160.69L487.08 159.47L486.18 156.97L485.24 154.07L483.95 149.67L482.79 145.75L482.17 143.79L481.61 142.04L481.04 140.28L480.22 138.95L479.23 137.33L477.88 135.13L475.87 132.18L474.93 130.68L473.10 128.16L469.47 123.31L468.64 122.33L467.48 120.99L465.79 119.01L464.61 117.64L462.98 116.00L462.03 115.10L459.93 113.39L457.81 111.67L455.52 110.39L453.95 109.61L450.74 108.02L448.86 107.16L443.68 104.81L442.08 104.09L440.50 103.38L438.67 102.55L436.42 101.64L435.15 101.16L427.59 98.32L424.77 96.97L421.97 96.20L420.00 95.65L417.40 94.93L415.03 94.47L410.99 93.68L407.61 93.02L405.89 92.68L404.10 92.57L401.99 92.44L400.39 92.34L398.76 92.23L396.96 92.12L393.86 91.93L391.64 91.79L390.28 91.88L388.92 91.97L385.85 91.01L382.08 89.82L379.72 88.17L376.52 86.05L374.27 84.86L371.04 84.86L367.45 84.86L364.53 84.32L362.36 83.91L360.87 83.54L357.75 81.77L355.37 80.71L354.00 80.09L351.76 78.65L349.83 77.40L350.70 74.17L351.31 71.44L350.54 69.37L349.67 68.39L346.65 66.50L343.81 65.14L342.45 64.59L339.37 63.52L336.82 63.04L334.89 62.67L326.87 61.16L289.33 56.36L275.52 58.30L273.12 58.63L270.41 59.01L266.15 59.48L262.88 59.85L257.80 59.89L251.49 60.85L244.99 62.89L231.04 62.98L223.97 63.03L219.82 63.02L216.06 63.11L207.14 63.30L200.41 63.44L196.23 63.53L191.70 63.62L188.48 63.69L186.29 63.74L183.03 63.80L179.27 63.88L176.25 62.00Z" data-ward="16" /><path id="ward-8" class="ward" d="M900.56 380.53L901.99 372.64L900.54 371.64L898.56 373.88L897.64 374.93L896.64 376.04L894.85 378.19L892.38 382.00L891.31 383.65L890.02 385.85L888.91 387.79L887.38 390.56L886.23 392.66L884.99 395.16L884.34 396.38L883.05 398.81L882.36 400.14L881.20 402.20L880.17 403.77L879.15 405.33L877.62 406.64L875.93 407.54L874.10 408.13L871.29 408.96L869.70 409.59L868.06 409.91L865.21 409.97L862.62 410.31L861.14 411.04L859.40 412.01L857.71 413.11L855.05 415.03L851.47 417.53L848.99 419.29L845.54 421.52L842.01 424.26L840.78 425.34L838.68 427.57L836.03 430.76L834.25 433.17L831.71 436.76L830.53 438.77L828.90 441.24L827.31 443.44L824.87 447.15L822.66 450.72L821.77 452.17L820.43 453.82L819.09 455.48L816.68 457.86L815.38 459.19L814.29 460.46L812.42 462.34L810.34 464.67L808.23 467.16L806.08 469.50L802.91 473.04L801.67 474.37L799.08 477.23L796.87 479.59L795.26 479.99L793.67 480.34L791.40 480.75L790.06 481.00L786.60 481.65L784.25 481.89L779.99 482.21L777.47 482.25L774.79 482.35L772.87 482.63L770.14 483.29L767.04 484.43L765.35 485.17L764.16 485.95L763.33 487.47L762.78 489.60L761.76 493.52L760.25 498.76L758.79 503.16L757.90 505.82L756.64 510.12L756.13 513.11L755.61 516.11L757.91 516.89L760.13 517.69L763.61 518.94L766.21 519.87L769.11 541.31L768.91 543.08L768.95 546.63L769.08 556.95L770.36 556.89L775.06 556.70L776.40 556.63L784.23 556.23L792.02 555.15L796.67 554.87L799.72 554.68L801.07 554.60L804.57 554.70L807.17 554.79L810.61 555.32L812.20 555.57L816.88 557.43L823.77 560.15L826.95 561.55L829.66 562.73L832.33 563.92L835.40 565.27L836.57 565.80L837.91 566.41L839.54 567.21L842.14 568.48L843.42 569.13L846.00 570.44L848.16 571.42L849.89 572.08L853.60 573.48L856.59 575.17L858.21 576.08L858.80 575.76L858.45 573.28L858.20 570.97L858.34 569.42L858.46 567.98L860.12 566.08L861.46 564.95L863.36 564.19L865.21 563.44L866.94 565.02L873.29 556.48L874.54 553.53L875.45 549.50L870.96 539.67L872.16 538.39L874.53 537.07L876.71 535.84L879.61 534.21L882.22 531.74L883.00 529.73L883.63 527.25L884.51 525.74L886.02 524.20L887.00 521.03L887.54 517.74L887.75 515.26L888.42 511.21L890.07 509.84L888.85 507.63L887.27 504.90L886.81 502.90L887.06 501.15L888.31 500.17L890.10 499.32L892.32 498.27L891.54 496.29L894.47 495.06L895.75 494.67L897.04 494.57L899.90 493.20L902.81 491.80L899.14 488.23L896.37 485.54L895.47 480.96L894.77 477.43L895.09 471.83L895.16 470.53L893.34 467.51L893.62 466.75L901.42 464.92L902.72 464.57L905.81 463.73L908.48 463.01L909.29 461.69L909.14 457.64L909.38 455.81L910.96 455.48L914.10 454.84L915.79 454.50L916.81 453.43L916.74 451.69L913.41 446.09L901.60 426.22L900.32 422.86L899.03 419.49L899.15 417.62L899.18 416.14L899.26 411.54L900.57 411.19L901.88 410.84L903.00 409.56L904.09 408.82L905.16 408.09L907.14 406.11L908.33 404.91L908.34 398.99L907.84 393.22L903.75 392.61L903.03 391.00L902.00 388.67L897.04 389.77L895.70 389.14L897.31 383.51L900.33 384.59L900.56 380.53Z" data-ward="8" /><path id="ward-2" class="ward" d="M780.78 70.63L777.67 70.00L771.68 68.82L769.05 68.30L766.07 67.66L760.82 66.52L758.28 65.95L754.92 65.09L751.04 64.07L749.65 63.61L746.98 62.73L743.15 61.61L740.49 61.05L737.36 60.30L735.77 59.93L732.38 59.28L727.40 59.13L723.97 58.91L721.27 59.06L719.25 59.85L718.35 61.44L717.87 63.47L717.50 65.55L716.88 69.71L716.67 71.16L716.16 72.40L714.94 73.68L713.98 74.70L712.68 75.40L709.61 76.16L706.20 75.72L701.78 74.83L698.41 74.19L694.79 73.69L688.78 72.87L686.06 72.58L684.53 72.42L683.21 72.29L681.50 72.11L679.52 71.90L675.58 71.49L670.77 70.44L668.47 69.94L663.48 69.31L661.43 68.92L660.14 68.67L658.82 68.42L656.46 67.96L653.79 67.45L652.25 67.16L650.68 74.46L649.31 82.00L648.34 87.01L647.93 88.72L647.54 90.33L647.20 92.12L646.57 95.41L647.15 98.32L646.66 100.81L646.42 102.13L645.92 104.83L643.96 105.21L641.82 105.14L636.45 105.46L635.74 106.89L635.94 108.60L636.67 113.10L636.87 114.38L637.10 116.05L637.39 117.76L638.64 121.12L642.26 119.83L646.27 118.33L647.87 117.75L650.62 117.65L654.14 117.56L655.75 117.34L656.23 118.62L657.52 122.27L657.69 123.69L658.43 125.66L659.16 129.63L658.63 132.17L657.99 133.84L657.90 135.17L656.97 137.75L656.59 140.50L656.43 141.84L655.28 149.37L656.10 151.35L658.15 151.90L660.74 152.96L662.34 154.58L665.39 155.26L667.48 154.85L668.84 154.37L671.42 153.18L673.99 152.34L675.23 151.71L677.26 149.99L679.39 147.62L680.71 148.67L680.85 150.09L681.33 153.44L681.81 156.79L682.24 159.25L684.75 159.42L687.17 159.59L691.52 159.78L695.11 159.93L698.34 160.20L699.64 160.44L701.77 160.83L704.78 161.39L706.22 161.79L708.35 162.38L710.71 163.02L714.14 163.77L719.53 164.78L720.97 165.04L723.06 165.45L726.03 165.56L729.05 165.62L733.15 165.88L735.13 166.09L736.58 166.25L739.57 166.84L741.85 167.31L743.61 167.77L745.28 168.32L746.95 168.86L748.64 169.39L751.62 170.20L753.97 170.88L756.45 171.44L758.05 172.19L760.18 173.65L763.33 175.61L765.21 176.00L766.56 173.07L767.36 171.16L768.75 167.72L769.25 166.38L769.88 164.63L770.77 161.98L771.76 158.91L770.31 156.56L769.35 154.97L768.90 153.52L770.13 149.45L770.72 147.01L771.13 145.76L771.61 144.34L772.10 142.52L772.33 141.20L772.63 139.36L772.99 137.16L773.20 135.88L773.51 133.88L772.40 131.50L772.25 129.45L772.51 126.80L772.66 125.26L772.89 122.73L773.04 120.13L773.96 118.65L775.42 118.36L776.87 118.06L779.31 117.40L780.82 117.21L783.05 117.81L785.04 118.21L787.13 118.43L791.17 118.85L798.06 119.32L799.56 119.33L800.92 119.42L800.68 116.48L800.64 113.80L800.88 112.32L801.20 110.47L801.60 108.60L801.90 107.30L802.39 104.68L802.74 102.84L803.09 101.00L803.35 99.59L803.85 96.71L805.20 92.73L805.84 91.10L806.47 89.49L807.60 87.19L808.39 85.77L809.19 84.29L810.01 82.66L810.89 81.43L812.01 79.93L814.00 77.25L816.02 74.54L818.13 72.08L819.05 71.02L820.13 69.78L821.09 68.68L821.96 67.70L823.07 66.46L824.93 64.04L821.56 64.33L817.87 64.65L811.07 65.44L809.10 65.67L804.64 66.49L799.60 67.42L792.54 68.93L791.25 69.18L788.66 69.69L784.14 70.54L782.66 70.72L780.78 70.63Z" data-ward="2" /><path id="ward-10" class="ward" d="M686.31 381.40L686.85 375.45L686.89 372.96L687.93 369.84L688.99 366.93L689.46 365.20L690.49 362.86L691.28 361.17L692.03 359.55L692.87 357.73L693.69 356.03L694.93 353.60L693.77 352.50L690.51 349.83L689.25 348.60L687.07 347.05L686.05 346.20L684.55 344.94L682.91 343.68L681.01 342.28L679.45 340.68L676.58 337.83L674.74 335.95L673.46 334.57L672.72 332.80L671.86 330.83L671.52 329.54L670.13 327.17L669.06 326.06L667.37 324.20L666.10 322.59L664.75 321.45L663.24 320.95L661.66 320.43L660.52 319.74L659.30 318.40L658.16 317.06L656.83 315.28L655.31 313.26L653.72 310.97L651.58 307.82L651.21 306.17L650.94 303.74L649.85 298.73L648.63 295.36L645.73 291.89L644.42 289.56L643.83 287.93L641.25 286.34L639.01 284.73L636.74 283.23L635.60 280.19L635.19 278.32L634.77 276.44L634.49 273.81L633.05 272.03L632.25 270.67L631.03 268.38L630.20 266.03L629.24 263.44L628.47 261.26L627.73 259.34L627.84 256.43L627.75 254.34L627.74 252.41L626.26 252.33L624.79 252.25L619.98 250.80L616.76 249.23L612.97 247.81L610.34 246.62L606.70 244.99L603.05 243.54L600.99 242.72L592.32 240.29L588.46 239.60L586.15 239.18L580.46 237.52L579.82 239.85L576.30 252.51L574.78 257.94L575.00 259.85L575.35 263.02L575.56 264.57L575.80 266.50L575.71 268.20L575.50 269.72L575.28 271.24L574.68 273.58L574.23 275.16L574.06 276.56L573.97 278.81L574.23 280.55L574.33 282.20L574.47 283.90L574.61 285.47L574.89 287.39L575.13 289.00L575.36 290.33L575.52 292.61L575.69 296.07L575.80 298.43L575.96 300.99L575.67 303.01L576.02 305.60L576.27 307.37L576.32 308.87L576.33 310.73L576.45 312.03L576.60 313.85L576.82 316.58L576.85 318.79L576.99 320.34L577.06 322.01L576.79 325.35L576.59 327.21L576.43 328.71L576.22 330.46L576.02 332.19L575.51 335.56L575.18 337.98L574.73 340.26L574.22 342.14L573.84 343.79L573.65 345.29L573.39 347.84L573.06 350.75L572.84 355.03L571.75 360.25L571.25 361.90L569.00 369.24L566.71 377.85L569.59 378.63L570.88 378.98L573.40 379.56L574.92 379.90L577.18 380.36L578.94 380.94L580.42 381.76L581.80 382.31L584.54 383.02L585.83 383.34L589.23 384.05L591.57 384.47L592.87 384.61L595.87 384.66L598.90 384.64L601.14 384.54L602.47 384.33L605.42 383.58L608.69 383.17L610.06 383.06L611.53 383.05L613.97 382.92L617.37 383.07L620.21 383.16L621.86 383.20L624.17 383.26L625.58 383.33L627.18 383.30L629.73 383.26L631.00 384.65L630.73 387.17L630.61 389.36L630.45 390.87L630.30 393.53L630.14 395.05L629.61 397.63L628.83 401.04L628.46 403.05L628.23 404.45L627.93 407.56L628.02 409.20L628.09 410.88L628.16 413.77L628.35 417.96L628.18 419.80L628.01 422.81L627.95 424.85L628.02 427.12L627.69 429.63L627.54 432.04L627.66 434.27L627.85 437.45L627.80 439.24L627.92 441.26L627.89 444.68L627.86 447.44L627.65 449.88L627.70 452.78L627.53 454.84L627.46 456.99L627.46 459.84L626.87 465.32L626.31 467.78L625.54 472.00L625.08 474.66L624.77 476.88L624.55 479.05L624.49 480.39L624.45 482.69L627.47 482.18L630.06 481.75L632.44 481.35L634.97 480.93L637.98 480.43L640.79 479.96L642.70 479.63L645.59 479.12L647.08 478.86L652.06 478.15L653.52 477.94L655.50 477.96L657.06 477.97L659.11 477.98L661.61 477.99L667.92 478.03L669.58 478.04L670.61 476.71L671.27 475.47L672.79 473.31L673.77 469.85L673.76 467.82L672.38 467.24L672.49 465.78L672.68 463.41L672.86 461.17L672.95 458.70L673.03 456.24L673.19 454.82L675.17 453.33L677.61 452.65L680.30 451.52L681.61 450.92L683.90 449.88L686.71 448.61L689.88 446.87L691.66 445.47L692.72 443.64L692.70 441.23L691.85 438.72L691.30 437.28L690.74 433.90L690.89 432.33L691.06 430.30L691.21 428.74L691.58 427.41L692.14 425.61L692.48 423.65L692.68 421.41L693.01 419.22L692.47 416.64L689.27 415.94L687.80 414.94L687.49 413.10L687.53 411.00L687.68 408.24L688.06 405.19L688.31 402.95L688.49 401.39L688.78 399.58L688.80 398.24L688.51 394.49L688.01 392.28L687.93 390.59L688.66 387.86L689.00 386.23L687.42 384.15L686.31 381.40Z" data-ward="10" /><path id="ward-7" class="ward" d="M880.39 260.20L878.01 259.63L875.58 258.58L873.14 257.44L870.26 256.67L869.03 256.12L866.32 253.23L865.81 252.04L864.71 250.76L861.96 250.45L859.66 251.08L856.59 253.15L853.13 255.24L847.68 259.46L845.56 262.06L843.05 263.98L841.11 264.30L838.53 265.24L835.94 266.18L832.62 266.26L831.29 265.83L828.70 264.16L826.78 262.12L824.90 260.58L823.57 259.79L819.95 257.42L818.05 259.54L817.37 261.63L816.86 263.19L816.23 265.13L815.84 267.25L815.14 270.15L814.70 271.97L813.74 274.31L812.75 275.86L811.72 277.20L810.54 278.82L809.66 280.25L808.54 282.46L807.59 284.43L806.84 286.25L806.02 288.85L805.68 290.17L804.95 292.53L803.89 295.47L803.14 297.54L802.52 299.81L802.09 301.36L800.92 304.87L799.90 307.56L799.32 309.62L798.87 312.96L798.62 316.46L798.53 318.53L798.49 320.75L798.48 322.24L798.40 323.84L798.26 325.58L798.10 326.99L797.68 328.85L797.17 331.62L796.74 333.29L795.38 336.19L794.26 338.03L793.62 339.35L793.17 340.62L792.86 341.91L792.79 344.10L791.90 345.59L790.44 348.22L788.91 351.51L788.22 352.94L787.60 354.26L786.65 356.31L785.68 357.92L784.60 360.22L784.02 361.45L783.14 363.12L782.51 364.28L781.64 365.86L780.97 367.27L779.39 370.52L778.92 372.77L780.21 373.82L779.16 376.07L777.93 378.75L781.15 380.58L782.50 381.41L784.27 382.14L787.02 383.04L788.82 383.69L791.09 384.68L792.26 385.32L793.67 386.14L795.61 387.48L797.33 388.96L798.32 389.80L801.23 392.16L802.69 393.49L804.55 395.11L805.94 396.24L808.21 397.74L810.04 398.96L811.63 400.02L814.62 401.65L818.25 402.77L823.48 404.82L825.32 405.72L826.69 406.19L828.29 406.55L830.71 407.10L835.69 408.74L839.84 409.99L841.57 406.42L844.08 401.97L845.12 400.55L846.06 398.99L847.45 396.40L848.16 395.04L849.31 392.97L849.84 391.80L850.80 389.89L851.83 387.96L852.76 385.91L853.33 384.34L853.34 382.79L852.89 375.68L856.23 375.65L859.05 376.14L861.01 376.89L862.38 377.82L864.13 378.98L866.70 380.37L868.41 380.81L871.17 381.31L873.29 381.41L876.29 381.54L880.60 380.55L882.54 379.21L884.30 378.02L885.85 377.22L890.60 376.90L892.73 378.07L894.85 378.19L896.64 376.04L897.64 374.93L898.56 373.88L900.54 371.64L900.96 370.01L901.51 368.64L902.62 365.90L903.33 364.13L904.38 362.31L905.49 360.38L906.29 357.70L907.26 354.42L905.19 353.35L904.83 341.55L912.84 329.97L912.34 328.46L911.81 327.21L913.91 319.96L917.20 320.14L917.89 316.77L917.62 314.40L917.46 312.92L917.70 308.49L918.44 304.67L917.97 296.56L917.86 294.61L913.86 293.83L911.08 293.76L909.38 293.70L906.75 295.26L904.51 295.63L903.22 294.12L902.81 291.38L902.98 290.01L903.35 288.75L903.33 286.29L903.63 284.64L903.86 283.04L903.78 280.71L903.08 276.75L903.57 271.55L904.95 266.63L906.30 261.85L901.65 261.48L896.06 261.99L895.07 261.11L893.64 259.55L888.95 260.15L885.76 260.50L883.38 260.60L880.39 260.20Z" data-ward="7" /><path id="ward-9" class="ward" d="M733.78 370.39L732.11 369.91L730.27 369.21L728.84 368.59L727.62 368.21L725.96 367.87L721.78 367.36L719.81 367.28L718.10 366.74L715.70 366.19L713.00 365.17L710.27 364.00L708.83 363.32L705.77 361.72L704.37 360.97L703.07 360.22L701.60 359.32L698.86 357.77L697.55 356.61L694.93 353.60L693.69 356.03L692.87 357.73L692.03 359.55L691.28 361.17L690.49 362.86L689.46 365.20L688.99 366.93L687.93 369.84L686.89 372.96L686.85 375.45L686.31 381.40L687.42 384.15L689.00 386.23L688.66 387.86L687.93 390.59L688.01 392.28L688.51 394.49L688.80 398.24L688.78 399.58L688.49 401.39L688.31 402.95L688.06 405.19L687.68 408.24L687.53 411.00L687.49 413.10L687.80 414.94L689.27 415.94L692.47 416.64L693.01 419.22L692.68 421.41L692.48 423.65L692.14 425.61L691.58 427.41L691.21 428.74L691.06 430.30L690.89 432.33L690.74 433.90L691.30 437.28L691.85 438.72L692.70 441.23L692.72 443.64L691.66 445.47L689.88 446.87L686.71 448.61L683.90 449.88L681.61 450.92L680.30 451.52L677.61 452.65L675.17 453.33L673.19 454.82L673.03 456.24L672.95 458.70L672.86 461.17L672.68 463.41L672.49 465.78L672.38 467.24L673.76 467.82L673.77 469.85L672.79 473.31L674.93 473.52L676.55 473.54L681.93 475.04L684.14 475.65L686.21 476.25L688.22 476.81L690.43 477.79L691.33 479.10L693.58 480.37L697.48 481.51L699.69 482.16L701.55 482.42L702.98 482.59L706.56 485.90L710.81 489.11L717.71 494.48L719.53 495.78L724.13 499.07L726.19 500.56L729.96 502.94L732.39 504.31L740.92 508.86L750.29 513.86L752.60 515.09L755.61 516.11L756.13 513.11L756.64 510.12L757.90 505.82L758.79 503.16L760.25 498.76L761.76 493.52L762.78 489.60L763.33 487.47L764.16 485.95L765.35 485.17L767.04 484.43L770.14 483.29L772.87 482.63L774.79 482.35L777.47 482.25L779.99 482.21L784.25 481.89L786.60 481.65L790.06 481.00L791.40 480.75L793.67 480.34L795.26 479.99L796.87 479.59L799.08 477.23L801.67 474.37L802.91 473.04L806.08 469.50L808.23 467.16L810.34 464.67L812.42 462.34L814.29 460.46L815.38 459.19L816.68 457.86L819.09 455.48L820.43 453.82L821.77 452.17L822.66 450.72L824.87 447.15L827.31 443.44L828.90 441.24L830.53 438.77L831.71 436.76L834.25 433.17L836.03 430.76L838.68 427.57L840.78 425.34L842.01 424.26L845.54 421.52L848.99 419.29L851.47 417.53L855.05 415.03L857.71 413.11L859.40 412.01L861.14 411.04L862.62 410.31L865.21 409.97L868.06 409.91L869.70 409.59L871.29 408.96L874.10 408.13L875.93 407.54L877.62 406.64L879.15 405.33L880.17 403.77L881.20 402.20L882.36 400.14L883.05 398.81L884.34 396.38L884.99 395.16L886.23 392.66L887.38 390.56L888.91 387.79L890.02 385.85L891.31 383.65L892.38 382.00L894.85 378.19L892.73 378.07L890.60 376.90L885.85 377.22L884.30 378.02L882.54 379.21L880.60 380.55L876.29 381.54L873.29 381.41L871.17 381.31L868.41 380.81L866.70 380.37L864.13 378.98L862.38 377.82L861.01 376.89L859.05 376.14L856.23 375.65L852.89 375.68L853.34 382.79L853.33 384.34L852.76 385.91L851.83 387.96L850.80 389.89L849.84 391.80L849.31 392.97L848.16 395.04L847.45 396.40L846.06 398.99L845.12 400.55L844.08 401.97L841.57 406.42L839.84 409.99L835.69 408.74L830.71 407.10L828.29 406.55L826.69 406.19L825.32 405.72L823.48 404.82L818.25 402.77L814.62 401.65L811.63 400.02L810.04 398.96L808.21 397.74L805.94 396.24L804.55 395.11L802.69 393.49L801.23 392.16L798.32 389.80L797.33 388.96L795.61 387.48L793.67 386.14L792.26 385.32L791.09 384.68L788.82 383.69L787.02 383.04L784.27 382.14L782.50 381.41L781.15 380.58L777.93 378.75L776.35 378.06L774.78 377.38L773.35 376.61L770.84 375.21L767.60 373.21L765.67 372.18L762.87 371.09L757.89 369.84L755.94 369.34L754.51 369.08L750.77 368.91L748.77 368.82L746.41 368.50L743.74 368.01L742.26 369.82L741.35 371.05L738.64 370.83L737.08 370.70L735.79 370.71L733.78 370.39Z" data-ward="9" /><path id="ward-11" class="ward" d="M592.87 384.61L591.57 384.47L589.23 384.05L585.83 383.34L584.54 383.02L581.80 382.31L580.42 381.76L578.94 380.94L577.18 380.36L574.92 379.90L573.40 379.56L570.88 378.98L569.59 378.63L566.71 377.85L569.00 369.24L571.25 361.90L571.75 360.25L572.84 355.03L573.06 350.75L570.76 349.83L564.97 347.92L563.73 347.50L562.04 346.93L556.94 345.08L555.18 344.48L554.66 343.09L555.28 340.62L556.12 337.36L554.87 336.74L551.48 335.93L549.34 335.52L546.10 334.77L543.25 333.91L538.97 332.48L534.18 330.98L531.50 330.07L530.19 329.71L526.79 329.04L525.06 328.48L524.38 329.95L522.90 332.91L520.46 337.13L519.77 338.30L518.53 340.42L517.28 342.53L515.81 344.93L514.12 347.59L511.93 351.62L510.54 353.99L509.85 355.22L507.81 358.70L505.76 362.18L503.26 366.39L500.17 371.91L496.83 377.60L493.51 383.28L491.93 385.93L490.35 388.57L487.72 392.97L485.01 397.23L484.19 398.57L481.04 403.88L477.67 409.93L476.48 412.10L475.48 413.97L474.67 415.43L473.86 416.89L470.90 421.56L469.50 424.95L468.43 426.78L497.54 450.97L515.76 460.94L514.50 464.19L517.31 467.13L517.02 468.57L518.19 469.11L522.24 471.76L524.94 472.87L527.63 473.98L530.93 475.25L534.25 476.52L535.80 477.79L538.01 479.59L540.54 480.68L543.33 481.87L544.90 482.35L557.93 496.35L570.31 495.62L572.38 495.30L576.30 494.70L579.78 494.00L583.48 493.25L588.78 492.06L592.09 491.30L595.12 490.55L596.88 490.10L601.06 489.04L605.56 487.66L608.27 486.76L611.81 485.59L614.95 484.55L620.07 483.56L621.46 483.28L624.45 482.69L624.49 480.39L624.55 479.05L624.77 476.88L625.08 474.66L625.54 472.00L626.31 467.78L626.87 465.32L627.46 459.84L627.46 456.99L627.53 454.84L627.70 452.78L627.65 449.88L627.86 447.44L627.89 444.68L627.92 441.26L627.80 439.24L627.85 437.45L627.66 434.27L627.54 432.04L627.69 429.63L628.02 427.12L627.95 424.85L628.01 422.81L628.18 419.80L628.35 417.96L628.16 413.77L628.09 410.88L628.02 409.20L627.93 407.56L628.23 404.45L628.46 403.05L628.83 401.04L629.61 397.63L630.14 395.05L630.30 393.53L630.45 390.87L630.61 389.36L630.73 387.17L631.00 384.65L629.73 383.26L627.18 383.30L625.58 383.33L624.17 383.26L621.86 383.20L620.21 383.16L617.37 383.07L613.97 382.92L611.53 383.05L610.06 383.06L608.69 383.17L605.42 383.58L602.47 384.33L601.14 384.54L598.90 384.64L595.87 384.66L592.87 384.61Z" data-ward="11" /><path id="ward-17" class="ward" d="M567.90 103.97L566.23 103.06L564.96 102.36L562.88 101.06L561.76 100.34L559.41 98.76L556.91 96.79L555.48 95.61L553.88 94.46L552.44 93.46L551.17 92.46L547.49 96.78L545.14 99.54L542.63 102.77L540.81 104.78L538.55 104.07L536.65 103.74L535.71 105.23L534.66 107.28L533.61 109.33L532.43 111.97L533.56 113.83L536.14 115.27L538.72 116.70L542.80 118.99L541.08 122.18L539.80 125.15L538.84 126.85L537.44 129.34L536.67 130.96L535.78 134.18L534.89 137.42L533.14 140.99L532.10 143.10L531.56 145.06L531.03 146.54L528.29 146.60L525.88 147.44L523.49 148.17L520.20 149.16L518.45 149.99L516.55 150.55L514.13 151.26L512.24 151.03L509.27 151.34L508.19 152.63L506.69 153.98L505.32 155.41L503.89 155.84L502.47 156.44L501.12 157.97L500.47 159.64L499.73 162.09L498.87 163.77L497.13 166.29L495.90 168.09L494.37 169.48L473.42 184.94L489.43 201.91L492.89 204.31L501.98 210.42L503.24 210.90L508.11 212.74L511.10 213.87L514.09 215.00L515.29 215.45L516.86 216.17L521.12 218.13L525.39 220.08L527.94 221.13L530.50 222.18L533.39 223.37L536.00 224.44L537.60 225.10L541.98 226.53L543.73 227.09L545.48 227.64L547.24 228.20L552.50 229.86L554.25 230.42L566.85 234.40L579.21 237.24L580.46 237.52L586.15 239.18L588.46 239.60L592.32 240.29L600.99 242.72L603.05 243.54L606.70 244.99L610.34 246.62L612.97 247.81L616.76 249.23L619.98 250.80L624.79 252.25L626.26 252.33L627.74 252.41L628.11 249.69L628.30 248.10L628.58 245.87L628.17 244.14L628.87 242.50L629.09 239.82L629.36 237.94L630.12 234.47L631.46 232.81L632.40 231.23L633.05 229.13L633.77 226.06L634.38 223.98L635.07 222.49L635.59 220.83L636.16 219.40L637.30 216.93L638.45 214.46L639.64 212.16L640.58 210.15L642.34 206.29L642.99 204.48L643.28 203.20L643.72 200.96L644.27 196.33L644.16 193.75L644.06 191.18L644.05 189.22L644.06 187.80L644.07 185.29L644.08 179.86L644.03 176.14L644.01 174.40L643.94 172.65L644.00 169.72L643.41 166.29L642.89 163.54L643.40 161.56L644.30 158.65L645.59 157.26L646.41 155.57L646.73 153.44L646.94 151.66L647.83 149.55L649.71 150.06L652.12 150.45L654.24 150.91L656.10 151.35L655.28 149.37L656.43 141.84L656.59 140.50L656.97 137.75L657.90 135.17L657.99 133.84L658.63 132.17L659.16 129.63L658.43 125.66L657.69 123.69L657.52 122.27L656.23 118.62L655.75 117.34L654.14 117.56L650.62 117.65L647.87 117.75L646.27 118.33L642.26 119.83L638.64 121.12L637.39 117.76L636.28 118.44L634.26 119.36L631.67 120.04L629.20 120.69L625.20 121.52L622.18 122.07L619.59 122.14L618.11 122.09L615.51 121.89L613.40 121.70L612.13 121.47L610.63 121.11L607.16 120.34L604.86 119.88L603.44 119.60L602.09 119.25L600.50 118.81L598.98 118.40L597.53 118.05L594.73 117.44L592.35 116.98L590.91 116.64L588.82 115.99L586.91 114.73L585.56 113.84L584.04 112.98L582.50 112.10L581.30 111.42L580.06 110.71L578.68 109.93L577.13 109.05L575.97 108.39L574.83 107.76L573.55 107.06L571.81 106.11L570.18 105.22L567.90 103.97Z" data-ward="17" /><path id="ward-12" class="ward" d="M576.59 327.21L576.79 325.35L577.06 322.01L576.99 320.34L576.85 318.79L576.82 316.58L576.60 313.85L576.45 312.03L576.33 310.73L576.32 308.87L576.27 307.37L576.02 305.60L575.67 303.01L575.96 300.99L575.80 298.43L575.69 296.07L575.52 292.61L575.36 290.33L575.13 289.00L574.89 287.39L574.61 285.47L574.47 283.90L574.33 282.20L574.23 280.55L573.97 278.81L574.06 276.56L574.23 275.16L574.68 273.58L575.28 271.24L575.50 269.72L575.71 268.20L575.80 266.50L575.56 264.57L575.35 263.02L575.00 259.85L574.78 257.94L576.30 252.51L579.82 239.85L580.46 237.52L579.21 237.24L566.85 234.40L554.25 230.42L552.50 229.86L547.24 228.20L545.48 227.64L543.73 227.09L541.98 226.53L537.60 225.10L536.00 224.44L533.39 223.37L530.50 222.18L527.94 221.13L525.39 220.08L521.12 218.13L516.86 216.17L515.29 215.45L514.09 215.00L511.10 213.87L508.11 212.74L503.24 210.90L501.98 210.42L492.89 204.31L489.43 201.91L473.42 184.94L440.24 217.47L437.33 238.36L436.89 243.43L435.85 250.46L436.16 259.41L437.81 265.42L439.25 271.85L441.55 276.10L443.50 282.02L447.53 295.73L445.16 307.87L441.29 317.08L438.98 329.81L438.68 331.09L437.08 332.78L436.79 334.66L437.11 336.76L437.71 341.51L437.79 344.36L437.71 345.97L437.62 347.56L437.40 350.39L437.24 352.23L437.12 353.69L437.02 355.60L436.99 357.40L436.96 359.42L436.82 361.61L436.78 364.29L436.77 366.59L436.48 368.93L436.31 370.39L436.03 373.41L435.99 376.66L436.07 378.12L435.99 379.57L435.56 383.72L434.14 386.44L433.04 389.06L447.99 402.87L448.57 408.84L448.89 412.06L468.43 426.78L469.50 424.95L470.90 421.56L473.86 416.89L474.67 415.43L475.48 413.97L476.48 412.10L477.67 409.93L481.04 403.88L484.19 398.57L485.01 397.23L487.72 392.97L490.35 388.57L491.93 385.93L493.51 383.28L496.83 377.60L500.17 371.91L503.26 366.39L505.76 362.18L507.81 358.70L509.85 355.22L510.54 353.99L511.93 351.62L514.12 347.59L515.81 344.93L517.28 342.53L518.53 340.42L519.77 338.30L520.46 337.13L522.90 332.91L524.38 329.95L525.06 328.48L526.79 329.04L530.19 329.71L531.50 330.07L534.18 330.98L538.97 332.48L543.25 333.91L546.10 334.77L549.34 335.52L551.48 335.93L554.87 336.74L556.12 337.36L555.28 340.62L554.66 343.09L555.18 344.48L556.94 345.08L562.04 346.93L563.73 347.50L564.97 347.92L570.76 349.83L573.06 350.75L573.39 347.84L573.65 345.29L573.84 343.79L574.22 342.14L574.73 340.26L575.18 337.98L575.51 335.56L576.02 332.19L576.22 330.46L576.43 328.71L576.59 327.21Z" data-ward="12" /><path id="ward-13" class="ward" d="M473.42 184.94L466.37 176.22L462.38 171.59L451.09 161.76L430.44 146.42L411.56 138.87L395.66 134.05L346.20 189.06L345.59 192.01L344.87 194.61L344.16 196.48L343.58 198.00L341.29 199.47L339.91 200.37L337.61 201.49L335.98 200.50L332.41 198.36L331.20 197.93L328.08 197.06L325.83 196.42L321.45 195.26L318.76 194.41L317.24 193.93L313.60 193.73L312.95 196.47L311.93 199.18L311.72 201.14L312.39 203.59L312.93 205.14L313.94 208.31L314.74 210.74L316.64 213.11L317.84 213.97L318.83 215.14L319.73 216.99L320.53 218.55L321.35 220.10L322.26 221.70L323.24 223.23L324.61 225.27L326.83 228.53L328.22 230.55L329.09 231.81L331.12 234.51L332.80 237.01L334.56 239.74L336.75 242.89L337.60 243.92L337.30 246.17L335.92 247.45L334.76 248.62L333.32 250.06L332.38 251.00L335.11 254.66L336.42 255.81L337.50 256.75L339.56 258.48L341.04 259.91L342.45 261.36L344.19 263.86L345.09 265.47L346.01 268.08L347.15 272.11L348.36 276.49L348.82 279.43L350.93 282.24L354.68 285.86L357.05 287.87L359.45 290.09L360.80 291.20L362.98 292.98L362.41 297.64L366.84 302.47L366.82 306.53L366.89 310.40L380.61 328.44L383.38 329.34L383.12 332.42L385.15 337.28L390.77 338.88L392.27 342.03L394.91 343.02L398.63 344.26L398.40 346.16L397.97 349.71L397.71 351.59L397.90 354.38L399.54 354.59L401.07 355.13L402.47 355.48L403.88 355.76L405.02 357.89L404.95 361.44L414.25 371.55L416.80 372.10L417.61 373.43L417.50 375.91L417.38 378.28L417.49 381.78L420.38 382.98L422.20 383.76L427.67 385.14L430.70 385.91L434.14 386.44L435.56 383.72L435.99 379.57L436.07 378.12L435.99 376.66L436.03 373.41L436.31 370.39L436.48 368.93L436.77 366.59L436.78 364.29L436.82 361.61L436.96 359.42L436.99 357.40L437.02 355.60L437.12 353.69L437.24 352.23L437.40 350.39L437.62 347.56L437.71 345.97L437.79 344.36L437.71 341.51L437.11 336.76L436.79 334.66L437.08 332.78L438.68 331.09L438.98 329.81L441.29 317.08L445.16 307.87L447.53 295.73L443.50 282.02L441.55 276.10L439.25 271.85L437.81 265.42L436.16 259.41L435.85 250.46L436.89 243.43L437.33 238.36L440.24 217.47L473.42 184.94Z" data-ward="13" /><path id="ward-5" class="ward" d="M808.69 174.14L810.34 169.33L811.19 166.25L811.97 163.47L812.40 161.85L812.05 158.81L810.76 158.15L809.39 157.89L807.47 157.53L806.00 157.21L804.78 156.74L804.38 154.22L804.62 152.54L805.00 149.79L805.19 148.48L805.49 146.72L805.75 144.59L805.80 141.39L805.76 140.10L805.62 138.80L805.23 135.76L805.08 134.32L804.62 131.27L803.07 126.68L802.48 124.90L801.90 123.00L800.92 119.42L799.56 119.33L798.06 119.32L791.17 118.85L787.13 118.43L785.04 118.21L783.05 117.81L780.82 117.21L779.31 117.40L776.87 118.06L775.42 118.36L773.96 118.65L773.04 120.13L772.89 122.73L772.66 125.26L772.51 126.80L772.25 129.45L772.40 131.50L773.51 133.88L773.20 135.88L772.99 137.16L772.63 139.36L772.33 141.20L772.10 142.52L771.61 144.34L771.13 145.76L770.72 147.01L770.13 149.45L768.90 153.52L769.35 154.97L770.31 156.56L771.76 158.91L770.77 161.98L769.88 164.63L769.25 166.38L768.75 167.72L767.36 171.16L766.56 173.07L765.21 176.00L763.33 175.61L760.18 173.65L758.05 172.19L756.45 171.44L753.97 170.88L751.62 170.20L748.64 169.39L746.95 168.86L745.28 168.32L743.61 167.77L741.85 167.31L739.57 166.84L736.58 166.25L735.13 166.09L733.15 165.88L729.05 165.62L726.03 165.56L723.06 165.45L720.97 165.04L719.53 164.78L714.14 163.77L710.71 163.02L708.35 162.38L706.22 161.79L704.78 161.39L701.77 160.83L699.64 160.44L698.34 160.20L695.11 159.93L691.52 159.78L687.17 159.59L684.75 159.42L682.24 159.25L681.81 156.79L681.33 153.44L680.85 150.09L680.71 148.67L679.39 147.62L677.26 149.99L675.23 151.71L673.99 152.34L671.42 153.18L668.84 154.37L667.48 154.85L665.39 155.26L662.34 154.58L660.74 152.96L658.15 151.90L656.10 151.35L654.24 150.91L652.12 150.45L649.71 150.06L647.83 149.55L646.94 151.66L646.73 153.44L646.41 155.57L645.59 157.26L644.30 158.65L643.40 161.56L642.89 163.54L643.41 166.29L644.00 169.72L643.94 172.65L644.01 174.40L644.03 176.14L644.08 179.86L644.07 185.29L644.06 187.80L644.05 189.22L644.06 191.18L644.16 193.75L644.27 196.33L643.72 200.96L643.28 203.20L642.99 204.48L642.34 206.29L640.58 210.15L639.64 212.16L638.45 214.46L637.30 216.93L636.16 219.40L635.59 220.83L635.07 222.49L634.38 223.98L633.77 226.06L633.05 229.13L632.40 231.23L631.46 232.81L630.12 234.47L629.36 237.94L629.09 239.82L628.87 242.50L628.17 244.14L628.58 245.87L628.30 248.10L628.11 249.69L627.74 252.41L627.75 254.34L627.84 256.43L627.73 259.34L628.47 261.26L630.55 260.23L632.23 259.09L634.41 257.49L636.99 257.47L638.94 255.96L643.25 253.20L644.64 252.29L647.59 250.83L649.17 250.18L652.87 248.45L655.74 247.07L658.02 245.67L661.10 243.25L663.28 241.79L665.18 240.09L666.43 238.90L667.51 237.93L669.28 236.34L670.75 234.39L671.18 232.58L673.19 229.61L675.34 228.74L677.68 228.78L680.44 228.93L683.63 229.19L685.36 229.33L687.33 229.48L689.69 229.70L692.04 229.92L694.32 230.17L696.22 230.40L699.33 231.06L700.90 231.45L706.51 232.38L708.37 232.69L710.97 233.11L714.45 233.67L716.90 233.94L722.87 234.58L725.16 234.77L726.61 234.87L729.02 234.78L731.43 234.69L733.95 234.78L736.47 234.86L737.92 234.97L739.61 234.75L741.29 234.54L743.63 234.63L745.45 234.53L747.27 234.42L750.55 234.32L752.81 234.19L755.71 233.82L757.24 233.70L758.99 233.87L760.63 234.17L762.36 234.43L763.74 234.62L765.40 234.97L767.07 235.31L771.90 236.43L777.62 237.49L779.00 237.60L782.30 237.57L785.54 238.00L786.72 236.91L788.36 235.69L789.97 234.17L791.76 231.86L793.65 230.15L795.96 228.61L798.55 223.83L799.79 221.13L802.67 214.83L803.87 212.22L804.50 211.01L808.48 204.84L812.25 199.01L814.84 197.75L817.05 197.05L819.42 197.42L820.33 198.62L821.83 199.11L823.74 198.89L824.93 198.36L826.38 196.82L827.82 194.98L825.93 193.20L823.13 190.05L821.82 188.70L820.24 187.46L818.92 186.51L817.37 185.28L816.42 184.28L815.05 182.82L812.92 180.73L810.86 178.66L809.10 176.83L808.69 174.14Z" data-ward="5" /><path id="ward-14" class="ward" d="M335.11 254.66L332.38 251.00L333.32 250.06L334.76 248.62L335.92 247.45L337.30 246.17L337.60 243.92L336.75 242.89L334.56 239.74L332.80 237.01L331.12 234.51L329.09 231.81L328.22 230.55L326.83 228.53L324.61 225.27L323.24 223.23L322.26 221.70L321.35 220.10L320.53 218.55L319.73 216.99L318.83 215.14L317.84 213.97L316.64 213.11L314.74 210.74L313.94 208.31L312.93 205.14L312.39 203.59L311.72 201.14L311.93 199.18L312.95 196.47L313.60 193.73L314.10 188.88L309.80 188.00L307.62 187.24L304.21 185.77L298.96 183.58L293.64 181.55L291.58 180.74L290.30 180.34L288.38 180.10L284.29 179.60L279.92 178.72L275.67 177.66L271.95 176.87L270.26 176.41L268.31 175.79L266.86 174.77L265.76 175.78L264.05 177.47L261.70 180.55L258.86 184.27L256.56 187.28L254.06 190.60L253.13 191.79L250.10 195.81L249.25 197.47L247.18 201.07L245.83 203.20L244.46 205.39L241.75 209.61L237.15 217.45L235.32 219.98L232.26 223.30L227.94 227.25L225.63 229.44L222.12 232.73L220.61 234.08L218.64 235.70L217.23 236.87L215.81 238.03L212.50 240.50L210.12 242.38L208.79 243.74L203.60 249.17L197.34 255.72L199.67 255.95L198.76 258.12L201.66 260.20L200.27 262.19L202.82 263.89L203.95 263.19L206.04 261.68L208.33 260.92L217.71 262.96L225.19 264.59L226.51 264.87L232.02 264.22L236.11 263.74L237.64 263.55L239.46 263.12L241.24 262.70L243.03 261.74L249.44 259.83L252.13 259.22L254.53 258.64L256.55 258.16L258.07 257.93L259.62 257.70L261.91 257.46L264.47 256.72L267.35 255.59L269.80 255.35L271.42 255.99L274.45 257.23L276.46 257.70L279.42 257.97L281.11 258.28L282.75 258.57L284.36 259.09L286.29 259.73L289.90 261.38L292.58 262.75L295.28 263.86L297.25 264.67L299.23 265.85L301.38 267.74L302.48 268.79L305.56 271.34L307.50 272.32L310.80 272.29L314.00 270.95L318.55 269.03L320.82 268.05L322.97 267.16L324.63 266.79L327.31 267.19L329.66 267.57L332.64 268.15L334.41 268.54L336.17 268.92L339.32 269.92L342.94 271.03L342.30 272.70L344.97 280.22L348.82 279.43L348.36 276.49L347.15 272.11L346.01 268.08L345.09 265.47L344.19 263.86L342.45 261.36L341.04 259.91L339.56 258.48L337.50 256.75L336.42 255.81L335.11 254.66Z" data-ward="14" /><path id="ward-15" class="ward" d="M27.79 154.57L26.08 157.59L25.21 158.78L24.44 159.83L23.47 161.16L22.04 161.99L20.54 162.99L19.55 163.99L18.49 164.91L16.82 165.66L14.31 165.86L12.89 164.63L11.52 164.50L11.28 166.76L11.09 168.56L10.84 170.95L10.66 172.67L9.48 183.91L9.01 187.32L9.07 192.67L8.53 241.01L10.07 244.70L11.20 247.40L12.39 250.03L13.23 251.90L14.67 255.11L15.23 256.36L19.50 257.47L22.51 258.25L26.86 262.62L26.92 270.70L36.10 270.90L39.56 270.98L40.52 269.62L42.87 269.62L45.68 268.78L48.13 269.69L52.99 269.86L58.80 270.07L62.22 270.56L66.01 271.12L69.58 271.64L74.38 272.33L77.91 273.54L79.77 275.44L84.38 280.15L88.19 281.73L98.66 283.34L100.97 283.70L106.38 287.91L106.23 289.79L105.96 293.19L105.47 299.37L108.43 300.30L111.45 301.24L112.10 298.67L113.75 293.86L115.79 289.69L117.83 285.51L119.35 284.57L120.53 282.62L121.77 280.59L123.17 273.68L123.69 270.19L124.98 261.61L125.80 255.37L126.35 251.19L126.66 248.75L128.70 250.07L131.26 251.42L134.07 252.90L138.16 255.05L141.59 256.86L149.38 258.38L150.72 258.60L152.84 258.96L154.17 259.18L156.60 259.18L158.01 259.17L159.32 259.17L163.02 260.66L165.53 261.73L167.67 262.65L169.42 263.33L171.15 263.83L173.99 264.56L180.19 266.14L181.30 262.88L188.05 250.94L191.20 252.33L194.31 253.71L197.34 255.72L203.60 249.17L208.79 243.74L210.12 242.38L212.50 240.50L215.81 238.03L217.23 236.87L218.64 235.70L220.61 234.08L222.12 232.73L225.63 229.44L227.94 227.25L232.26 223.30L235.32 219.98L237.15 217.45L241.75 209.61L244.46 205.39L245.83 203.20L247.18 201.07L249.25 197.47L250.10 195.81L247.42 194.77L244.88 194.20L243.52 193.88L241.24 193.39L239.57 193.02L237.75 192.60L234.87 191.78L232.72 191.09L229.53 190.15L227.77 189.60L226.39 188.78L226.56 187.49L227.87 187.48L228.89 184.42L229.00 182.41L226.96 181.06L223.97 179.10L222.44 180.16L220.92 181.21L219.59 182.08L217.86 183.21L216.46 183.68L214.38 184.33L213.01 185.13L213.68 188.20L210.71 189.73L207.61 190.56L206.02 191.15L204.14 191.34L201.86 191.25L200.37 191.38L198.95 191.58L197.18 191.99L194.14 192.68L192.14 193.15L190.64 193.43L188.04 193.62L186.30 193.42L184.50 193.15L183.21 193.06L181.87 192.93L180.59 193.01L179.20 193.06L176.99 193.58L175.60 196.31L172.63 196.86L171.00 197.11L168.32 197.55L165.85 197.45L161.17 196.34L159.75 196.28L156.91 196.40L154.32 196.62L153.01 196.63L150.23 196.28L148.75 196.16L145.88 195.90L143.36 195.85L137.98 195.81L135.25 195.95L131.87 196.12L129.54 196.19L124.25 196.67L121.11 196.49L118.62 196.04L116.10 195.59L113.34 194.80L111.73 194.08L110.08 191.63L109.44 190.38L107.84 187.41L106.70 186.14L105.66 185.04L104.36 183.85L102.66 182.07L99.64 179.24L96.48 175.68L88.97 180.23L79.01 188.43L60.90 175.01L59.59 168.19L45.74 157.74L39.94 158.11L38.24 158.20L27.79 154.57Z" data-ward="15" /><path id="ward-1" class="ward" d="M574.83 2.65L572.22 1.26L569.52 0.00L569.04 2.20L568.84 4.10L568.75 8.05L568.70 10.15L568.66 11.73L568.63 13.09L568.46 16.41L568.93 18.23L568.87 19.61L568.49 22.45L568.43 24.07L568.23 26.31L567.68 28.85L565.56 29.28L564.31 30.51L563.35 32.82L562.66 34.67L561.45 37.89L560.60 40.16L559.42 44.27L560.98 45.45L562.12 46.26L563.90 47.35L565.53 48.27L563.89 53.11L562.97 56.05L562.39 57.88L561.58 60.46L560.84 62.94L562.25 65.87L565.32 67.71L565.08 71.69L563.41 74.37L559.69 80.36L558.05 82.82L555.28 86.34L553.09 89.11L552.13 90.79L551.17 92.46L552.44 93.46L553.88 94.46L555.48 95.61L556.91 96.79L559.41 98.76L561.76 100.34L562.88 101.06L564.96 102.36L566.23 103.06L567.90 103.97L570.18 105.22L571.81 106.11L573.55 107.06L574.83 107.76L575.97 108.39L577.13 109.05L578.68 109.93L580.06 110.71L581.30 111.42L582.50 112.10L584.04 112.98L585.56 113.84L586.91 114.73L588.82 115.99L590.91 116.64L592.35 116.98L594.73 117.44L597.53 118.05L598.98 118.40L600.50 118.81L602.09 119.25L603.44 119.60L604.86 119.88L607.16 120.34L610.63 121.11L612.13 121.47L613.40 121.70L615.51 121.89L618.11 122.09L619.59 122.14L622.18 122.07L625.20 121.52L629.20 120.69L631.67 120.04L634.26 119.36L636.28 118.44L637.39 117.76L637.10 116.05L636.87 114.38L636.67 113.10L635.94 108.60L635.74 106.89L636.45 105.46L641.82 105.14L643.96 105.21L645.92 104.83L646.42 102.13L646.66 100.81L647.15 98.32L646.57 95.41L647.20 92.12L647.54 90.33L647.93 88.72L648.34 87.01L649.31 82.00L650.68 74.46L652.25 67.16L653.79 67.45L656.46 67.96L658.82 68.42L660.14 68.67L661.43 68.92L663.48 69.31L668.47 69.94L668.63 67.77L669.05 63.44L669.21 61.97L670.16 56.56L672.40 43.55L671.68 42.32L657.63 38.10L642.91 31.53L638.53 29.60L633.11 26.75L628.41 24.28L620.36 20.05L618.56 17.53L617.57 16.67L615.15 15.48L613.35 14.96L611.40 14.98L607.99 13.83L606.27 12.87L604.59 12.34L602.66 11.33L601.11 10.52L599.91 9.06L598.47 7.87L596.08 6.58L593.95 6.22L592.32 5.80L590.96 4.79L588.23 4.10L584.26 4.17L581.07 4.90L574.83 2.65Z" data-ward="1" /><path id="ward-3" class="ward" d="M875.00 86.64L872.63 86.33L866.77 84.85L863.38 83.99L860.18 82.92L856.89 82.00L848.74 77.78L846.96 76.86L843.36 75.02L839.79 72.96L838.40 72.15L833.61 69.36L831.78 68.09L830.44 67.16L827.70 65.34L824.93 64.04L823.07 66.46L821.96 67.70L821.09 68.68L820.13 69.78L819.05 71.02L818.13 72.08L816.02 74.54L814.00 77.25L812.01 79.93L810.89 81.43L810.01 82.66L809.19 84.29L808.39 85.77L807.60 87.19L806.47 89.49L805.84 91.10L805.20 92.73L803.85 96.71L803.35 99.59L803.09 101.00L802.74 102.84L802.39 104.68L801.90 107.30L801.60 108.60L801.20 110.47L800.88 112.32L800.64 113.80L800.68 116.48L800.92 119.42L801.90 123.00L802.48 124.90L803.07 126.68L804.62 131.27L805.08 134.32L805.23 135.76L805.62 138.80L805.76 140.10L805.80 141.39L805.75 144.59L805.49 146.72L805.19 148.48L805.00 149.79L804.62 152.54L804.38 154.22L804.78 156.74L806.00 157.21L807.47 157.53L809.39 157.89L810.76 158.15L812.05 158.81L812.40 161.85L811.97 163.47L811.19 166.25L810.34 169.33L808.69 174.14L809.10 176.83L810.86 178.66L812.92 180.73L815.05 182.82L816.42 184.28L817.37 185.28L818.92 186.51L820.24 187.46L821.82 188.70L823.13 190.05L825.93 193.20L827.82 194.98L829.62 196.37L830.72 197.18L832.60 198.38L834.14 199.14L835.68 199.90L836.98 200.63L839.03 201.80L840.81 202.67L842.22 203.28L844.52 204.47L845.86 205.12L847.81 205.89L849.43 206.26L851.17 206.42L852.87 206.25L855.15 206.19L858.58 206.26L861.30 206.31L864.41 206.50L865.83 206.79L867.89 207.13L869.42 207.25L870.80 207.36L873.24 207.56L874.98 207.70L877.40 207.89L879.03 208.02L881.00 208.18L883.21 208.36L884.56 208.45L886.42 208.40L886.33 207.06L885.55 200.03L885.41 198.71L884.95 194.61L884.47 190.93L884.00 187.52L883.72 182.26L883.65 180.94L883.55 179.20L883.59 177.13L885.29 176.12L887.05 175.05L888.43 174.14L887.94 169.29L887.54 167.32L888.75 166.89L890.84 166.17L892.63 165.26L894.53 164.29L895.70 163.55L897.45 162.04L897.96 160.57L898.47 156.54L899.27 154.17L900.08 151.69L900.96 148.60L901.46 146.85L902.19 144.34L903.01 141.59L903.84 139.27L904.31 137.95L904.99 136.41L905.64 134.95L906.36 132.65L906.90 129.90L905.51 125.92L906.37 124.47L907.62 122.32L908.97 119.90L910.32 117.11L911.47 115.07L912.24 113.69L913.15 111.89L909.66 110.89L907.08 108.77L904.11 106.35L902.26 104.79L900.12 102.95L894.92 98.45L891.67 95.58L888.30 92.61L886.12 90.69L885.00 89.48L883.85 88.24L882.65 87.20L881.14 86.49L878.73 86.76L875.00 86.64Z" data-ward="3" /></svg>