<svg viewBox="0 0 1000.00 964.89" xmlns="http://www.w3.org/2000/svg"><style>.ward { fill: #e2e8f0; stroke: #fff; stroke-width: 0.5px; } .ward:hover { fill: #cbd5e1; }</style><path id="ward-2" class="ward" d="M187.41 57.34L186.74 51.30L194.50 49.52L193.35 40.21L192.65 34.53L191.62 29.71L184.23 33.80L168.69 57.17L164.60 62.78L160.02 68.43L157.58 71.44L152.26 72.51L150.82 73.47L144.19 74.88L139.77 75.16L137.98 76.79L136.96 78.38L134.57 82.15L132.89 87.33L131.63 91.23L130.74 95.40L130.62 98.58L127.04 99.88L121.66 101.84L114.64 100.65L111.08 98.89L109.35 98.03L104.46 97.31L100.96 98.84L98.94 99.73L96.84 100.27L93.51 101.11L90.74 102.22L82.13 105.69L80.14 107.86L75.15 108.53L73.91 106.78L71.50 103.66L65.75 104.20L63.41 105.85L61.72 109.67L62.27 113.88L62.31 117.35L62.82 121.81L60.60 124.88L55.45 125.03L52.45 122.32L50.31 122.08L47.60 122.89L45.50 126.12L41.58 132.02L38.28 135.15L33.47 135.47L28.65 133.60L26.13 134.06L22.50 137.93L18.35 142.61L13.56 147.94L13.47 149.97L17.85 152.15L24.23 156.85L27.42 157.66L28.78 162.90L41.84 148.74L48.40 149.39L57.92 152.04L60.06 152.60L67.03 154.13L70.20 154.97L72.74 155.22L75.78 155.62L80.03 156.46L86.22 157.47L89.06 157.95L92.06 158.46L96.52 159.12L98.91 159.27L101.54 159.42L106.39 160.93L115.54 165.65L118.64 167.96L121.43 169.44L122.86 170.17L125.69 171.33L128.54 172.40L132.92 173.16L135.23 173.25L138.80 173.37L150.55 173.39L159.04 172.46L166.89 171.61L175.41 174.56L176.86 174.87L180.13 175.30L183.23 175.62L185.24 175.29L187.24 174.96L188.81 174.53L190.26 175.68L190.87 178.13L191.91 183.30L192.25 184.84L193.73 190.76L194.71 192.61L197.23 196.59L198.31 198.43L200.76 202.04L202.35 204.28L205.54 208.10L207.38 209.73L209.11 210.90L216.13 213.75L223.05 213.01L225.58 212.42L229.49 213.07L231.60 216.97L232.10 218.46L233.17 221.33L233.93 222.72L234.57 224.16L235.59 227.11L235.75 228.89L235.72 230.44L235.54 232.15L234.95 235.68L234.91 237.25L235.35 240.17L235.65 241.82L236.79 245.57L237.94 248.65L239.22 251.76L240.01 253.48L241.45 256.73L242.15 258.35L242.79 259.95L243.67 263.42L244.45 266.95L244.82 269.20L245.34 272.47L245.69 274.14L246.22 275.79L246.91 277.69L248.27 280.40L249.16 282.07L249.99 283.67L251.36 287.32L251.89 289.19L252.31 290.81L252.72 292.39L253.73 296.32L254.37 298.79L255.06 301.38L255.76 303.53L256.85 306.29L256.21 308.04L258.27 307.40L260.81 305.78L262.61 304.64L264.07 303.71L267.17 302.05L272.47 298.82L273.77 298.03L275.09 297.23L278.38 295.22L289.70 289.78L291.84 289.00L294.32 287.06L298.55 283.74L301.84 281.17L303.73 279.38L309.09 274.32L311.60 272.48L315.31 269.76L319.65 266.57L322.91 265.22L325.69 264.08L328.25 263.02L330.93 261.92L333.63 260.80L336.28 259.71L338.86 258.64L340.94 257.13L342.87 255.74L344.79 254.34L346.03 253.45L351.32 249.61L354.66 247.19L357.77 244.94L358.91 243.81L358.51 241.81L353.55 234.02L346.79 225.54L345.36 223.70L333.44 211.18L327.45 205.98L319.95 199.33L317.22 196.91L306.72 185.69L300.22 172.75L295.35 165.32L291.28 160.14L288.68 154.00L289.60 151.64L289.30 148.79L276.93 138.01L273.45 135.73L266.55 131.30L264.72 129.17L262.84 126.46L260.39 124.32L257.54 123.28L256.80 121.39L256.23 118.71L249.69 101.25L249.05 100.24L248.15 98.41L246.94 95.77L245.76 93.52L245.13 90.80L244.82 88.20L244.37 86.27L244.27 83.95L219.96 75.04L217.82 76.02L215.19 72.29L214.43 72.28L207.69 70.20L206.10 69.71L205.22 68.35L204.56 66.79L203.37 63.96L202.16 61.91L200.38 58.90L194.96 59.44L192.94 59.58L190.84 60.35L187.86 61.38L187.41 57.34Z" data-ward="2" /><path id="ward-12" class="ward" d="M695.43 757.35L706.18 748.92L707.56 746.47L714.27 740.30L720.18 736.53L730.45 697.01L731.08 695.35L732.27 692.24L735.49 683.78L736.19 681.94L736.93 680.00L738.24 676.57L742.27 665.98L743.89 662.45L745.54 658.78L746.65 656.68L747.76 654.60L748.68 652.85L750.87 648.72L750.63 645.45L750.44 642.93L750.17 639.22L749.91 635.58L750.38 633.28L749.67 632.42L702.88 619.14L615.67 624.83L612.50 625.10L605.54 625.70L602.51 627.73L599.35 630.61L597.07 632.24L596.53 635.25L599.44 639.09L600.37 640.34L601.44 641.78L602.36 643.01L603.29 644.27L604.21 645.50L605.19 646.81L606.25 648.24L607.17 649.48L609.87 653.15L610.94 654.57L612.84 656.69L614.35 658.08L615.85 659.47L619.57 663.41L621.37 665.47L626.10 670.97L627.40 672.43L628.42 673.58L629.72 674.93L631.72 677.02L633.34 678.80L634.61 680.32L636.66 684.72L632.89 686.47L631.75 687.43L630.46 688.53L627.70 690.76L626.56 691.76L626.42 694.61L627.73 696.49L628.96 698.24L630.77 700.98L631.75 702.49L632.63 703.81L634.14 705.93L635.47 707.80L636.86 709.75L637.91 711.23L638.76 712.43L640.25 714.53L641.13 716.09L642.64 718.77L644.21 721.55L645.07 723.07L646.12 724.93L647.16 727.07L645.92 731.19L641.78 732.35L638.30 733.58L638.07 736.71L637.84 738.34L637.42 740.76L637.93 742.87L638.37 744.71L639.20 751.53L639.15 753.03L639.06 756.09L637.23 759.15L637.04 760.98L636.80 762.78L636.48 764.24L636.53 766.55L638.67 768.10L640.25 769.25L641.70 769.52L644.57 769.74L646.87 770.07L647.83 771.58L648.31 773.13L648.81 774.55L650.23 778.47L649.83 781.03L648.56 783.36L646.53 787.02L645.29 788.65L644.89 790.51L645.94 792.45L645.53 794.56L641.93 798.33L639.16 801.45L638.04 803.16L637.47 805.35L632.73 802.15L631.26 803.46L619.94 819.14L618.50 820.84L616.82 822.82L613.51 825.51L611.80 830.81L612.96 833.60L613.51 834.99L611.28 839.22L607.41 839.22L603.54 839.21L601.00 837.48L598.12 837.98L596.66 838.58L594.74 839.37L586.23 842.28L583.87 843.15L574.25 854.77L574.36 856.34L575.17 857.86L575.39 859.62L574.39 861.05L573.04 869.05L572.32 871.99L573.24 873.88L574.07 875.29L575.17 876.60L575.87 878.49L576.49 880.16L577.05 881.66L577.58 883.08L578.54 885.68L578.46 895.05L578.38 905.52L578.39 916.38L582.20 918.34L585.83 921.99L589.66 926.44L594.70 931.07L598.95 937.21L602.48 940.86L608.11 945.79L612.19 935.17L612.23 935.36L612.57 935.47L612.92 935.65L613.24 935.82L613.48 936.06L614.80 937.25L616.78 938.55L617.47 938.99L620.50 939.58L620.85 939.39L622.85 937.44L623.90 935.84L625.21 935.44L627.30 935.06L628.53 933.76L629.92 929.94L630.70 927.28L630.78 926.23L631.88 922.92L633.16 921.46L633.56 921.10L634.61 920.05L636.08 919.53L637.69 920.75L638.14 921.54L638.46 922.32L638.65 923.73L638.86 924.25L639.13 924.63L639.43 924.87L639.80 925.25L640.23 925.63L640.69 925.90L641.09 926.06L641.38 926.20L641.65 926.25L641.92 926.25L645.27 926.06L649.02 926.30L650.16 924.25L650.89 922.94L656.10 913.54L658.14 909.87L659.14 908.05L661.01 904.35L662.35 901.70L663.24 899.12L665.32 893.12L666.67 889.22L666.79 886.73L666.89 884.61L667.30 876.11L667.50 871.84L667.61 869.70L667.81 865.42L668.11 859.25L667.51 853.59L667.28 851.49L667.04 849.21L666.78 846.68L665.52 834.78L664.00 829.30L664.00 823.69L664.30 819.36L666.32 810.42L666.89 808.81L671.45 797.26L673.69 793.05L674.70 791.14L675.71 789.24L677.34 786.17L678.94 782.82L680.99 778.51L682.66 775.69L686.54 769.15L687.82 766.98L689.59 764.16L690.74 765.07L695.43 757.35Z" data-ward="12" /><path id="ward-13" class="ward" d="M559.49 559.10L556.94 556.98L555.86 555.70L554.84 554.45L553.83 553.22L552.73 551.69L551.36 549.74L550.17 547.53L548.99 544.69L547.92 542.11L546.21 542.93L543.94 544.01L543.47 545.58L542.41 549.12L541.75 551.35L540.97 553.98L540.47 555.67L539.42 559.19L536.58 557.44L534.50 556.60L532.83 556.24L531.35 560.55L530.92 562.70L530.45 566.03L530.42 572.27L530.44 575.89L529.98 578.39L529.43 582.84L528.89 586.52L528.75 590.61L528.84 594.28L529.88 597.36L531.07 599.41L532.40 600.83L534.50 602.61L538.94 606.32L536.94 609.27L535.34 611.23L534.35 613.85L536.95 616.11L538.51 617.31L540.06 618.51L541.52 619.66L543.15 620.67L544.15 622.37L543.29 626.50L542.97 628.19L543.67 629.70L544.97 632.49L554.94 638.66L564.27 642.47L572.38 647.42L578.39 653.78L580.74 663.52L581.81 673.20L585.08 679.26L587.09 682.33L588.00 685.68L589.14 687.07L590.29 688.46L596.37 687.50L601.65 688.26L605.00 688.88L607.36 689.80L608.98 696.38L606.47 698.23L602.70 703.68L602.24 706.09L601.76 707.58L599.91 709.13L596.55 710.73L593.85 712.60L592.99 715.40L591.25 717.25L588.30 718.03L585.39 718.55L583.39 718.95L581.40 719.34L579.27 720.06L577.53 720.66L575.40 721.31L572.81 722.52L570.10 724.15L568.13 723.79L565.80 723.52L563.23 722.95L561.30 722.19L557.96 719.75L554.17 717.44L550.21 716.71L547.76 716.26L543.55 716.82L542.08 717.01L540.50 717.26L535.98 718.33L534.51 718.77L529.47 721.30L527.12 723.08L524.81 724.68L522.78 725.90L518.91 725.95L516.11 728.34L515.68 730.89L515.52 732.49L515.34 734.03L514.69 737.78L514.37 739.88L514.02 742.67L513.37 744.82L512.69 746.17L510.78 747.61L507.39 746.74L505.48 744.82L504.28 742.70L503.86 738.64L503.28 737.05L500.75 734.27L499.14 732.92L497.48 731.43L495.44 729.48L492.33 727.17L487.19 727.18L485.78 727.60L481.82 729.64L479.99 730.73L478.31 731.48L474.59 732.81L472.04 733.65L469.61 734.33L467.33 734.49L460.44 733.61L457.98 733.33L455.47 733.06L453.87 732.88L449.88 732.57L448.38 732.22L445.88 730.08L442.84 729.41L439.03 729.75L436.98 730.12L433.79 730.69L428.68 731.64L427.01 731.86L423.65 731.68L420.65 730.93L418.59 730.40L412.29 731.86L409.96 732.84L410.15 734.82L410.47 736.55L410.66 738.53L410.58 743.90L411.09 746.54L411.81 750.33L414.72 755.98L415.82 757.20L416.73 758.45L417.64 759.72L418.47 761.07L419.20 762.48L420.75 766.33L422.52 771.40L423.24 772.86L425.45 776.13L426.64 777.90L429.96 780.42L431.48 780.99L433.04 781.69L434.46 782.51L435.82 783.21L438.15 784.76L439.70 786.73L439.53 792.86L439.30 795.71L439.29 798.82L440.35 804.02L441.87 806.19L442.94 807.19L444.01 808.28L445.17 809.28L446.32 810.34L447.44 811.34L448.46 812.48L449.42 813.61L451.78 816.76L452.69 818.82L453.28 820.79L453.20 822.61L451.14 824.99L447.93 827.59L447.31 829.37L448.74 831.29L452.01 833.78L453.81 836.12L455.04 837.81L458.13 841.66L459.17 842.95L460.65 844.99L462.17 847.09L461.50 853.71L460.60 855.37L459.35 856.98L457.20 859.73L455.63 860.74L453.85 861.89L452.09 863.00L450.69 863.85L449.16 864.82L446.02 866.79L442.58 869.13L439.71 871.94L438.54 873.16L436.57 875.22L435.37 876.48L433.87 879.36L431.93 882.71L430.68 885.44L429.76 888.42L428.86 891.32L429.27 894.23L429.64 896.77L430.08 899.77L431.06 901.75L430.42 903.68L433.35 906.07L434.83 908.45L436.22 910.66L437.54 912.75L438.58 914.39L439.97 916.00L441.13 917.34L443.60 918.90L445.70 919.20L448.94 919.07L451.68 920.63L453.70 921.78L455.49 922.81L457.16 923.76L459.35 925.52L461.03 926.01L464.32 926.84L465.47 927.13L465.63 927.17L466.95 927.39L472.14 926.89L475.46 927.28L478.20 927.59L480.68 927.88L483.62 929.31L484.33 929.55L486.18 930.91L486.28 930.99L487.82 932.29L490.27 934.28L490.31 934.31L492.66 936.33L495.51 937.81L498.27 940.26L500.44 944.20L501.68 945.00L503.22 947.71L505.40 950.17L507.57 952.62L509.45 954.78L511.03 955.76L514.83 958.03L517.62 959.49L517.69 959.53L521.15 961.52L521.22 961.56L521.33 961.63L521.50 961.72L525.13 963.57L525.25 963.63L525.51 963.69L527.87 964.17L531.72 964.75L533.37 964.88L533.74 964.89L538.45 964.85L541.20 964.80L542.51 964.56L543.07 964.42L543.51 964.28L547.40 962.99L549.62 961.46L550.07 961.08L550.65 960.50L550.84 960.33L553.33 958.23L553.59 958.04L557.01 955.76L559.00 954.37L560.08 953.60L560.27 953.47L562.07 952.05L565.31 949.10L565.59 948.84L566.07 948.33L566.57 947.73L567.42 945.79L567.93 944.49L568.05 944.07L568.23 943.12L568.40 941.07L568.40 941.01L568.74 937.53L568.75 936.56L568.74 936.29L568.63 934.32L568.62 934.26L568.48 930.94L568.17 927.42L568.16 927.27L568.06 924.59L568.13 923.86L568.20 923.53L568.94 921.90L569.21 921.53L569.55 921.14L570.72 920.02L571.22 919.83L571.32 919.79L574.34 918.74L578.39 916.38L578.38 905.52L578.46 895.05L578.54 885.68L577.58 883.08L577.05 881.66L576.49 880.16L575.87 878.49L575.17 876.60L574.07 875.29L573.24 873.88L572.32 871.99L573.04 869.05L574.39 861.05L575.39 859.62L575.17 857.86L574.36 856.34L574.25 854.77L583.87 843.15L586.23 842.28L594.74 839.37L596.66 838.58L598.12 837.98L601.00 837.48L603.54 839.21L607.41 839.22L611.28 839.22L613.51 834.99L612.96 833.60L611.80 830.81L613.51 825.51L616.82 822.82L618.50 820.84L619.94 819.14L631.26 803.46L632.73 802.15L637.47 805.35L638.04 803.16L639.16 801.45L641.93 798.33L645.53 794.56L645.94 792.45L644.89 790.51L645.29 788.65L646.53 787.02L648.56 783.36L649.83 781.03L650.23 778.47L648.81 774.55L648.31 773.13L647.83 771.58L646.87 770.07L644.57 769.74L641.70 769.52L640.25 769.25L638.67 768.10L636.53 766.55L636.48 764.24L636.80 762.78L637.04 760.98L637.23 759.15L639.06 756.09L639.15 753.03L639.20 751.53L638.37 744.71L637.93 742.87L637.42 740.76L637.84 738.34L638.07 736.71L638.30 733.58L641.78 732.35L645.92 731.19L647.16 727.07L646.12 724.93L645.07 723.07L644.21 721.55L642.64 718.77L641.13 716.09L640.25 714.53L638.76 712.43L637.91 711.23L636.86 709.75L635.47 707.80L634.14 705.93L632.63 703.81L631.75 702.49L630.77 700.98L628.96 698.24L627.73 696.49L626.42 694.61L626.56 691.76L627.70 690.76L630.46 688.53L631.75 687.43L632.89 686.47L636.66 684.72L634.61 680.32L633.34 678.80L631.72 677.02L629.72 674.93L628.42 673.58L627.40 672.43L626.10 670.97L621.37 665.47L619.57 663.41L615.85 659.47L614.35 658.08L612.84 656.69L610.94 654.57L609.87 653.15L607.17 649.48L606.25 648.24L605.19 646.81L604.21 645.50L603.29 644.27L602.36 643.01L601.44 641.78L600.37 640.34L599.44 639.09L596.53 635.25L597.07 632.24L599.35 630.61L602.51 627.73L605.54 625.70L612.50 625.10L615.67 624.83L616.17 623.06L616.44 620.82L613.89 614.93L612.70 613.28L611.63 611.76L609.39 608.63L608.21 606.98L606.90 605.15L606.05 603.95L605.02 602.51L601.07 597.05L598.90 594.20L597.99 592.99L596.91 591.58L594.41 588.28L592.81 586.17L591.77 584.80L590.86 583.60L589.84 582.26L587.84 579.63L586.83 578.29L585.68 576.78L584.72 575.51L583.00 573.26L580.89 570.46L579.30 568.37L578.39 567.18L577.32 565.76L576.40 564.55L574.01 561.59L572.38 560.81L569.55 559.46L565.21 559.84L559.49 559.10Z" data-ward="13" /><path id="ward-14" class="ward" d="M404.86 604.35L407.98 580.43L408.88 574.16L405.71 573.30L402.86 572.53L400.83 571.98L399.25 571.55L396.75 570.88L393.26 569.94L391.57 569.39L389.06 568.44L385.85 567.32L384.41 566.82L380.53 565.15L377.10 563.44L375.02 562.02L373.42 560.66L371.40 558.69L369.51 556.84L367.98 555.35L366.45 553.78L364.82 552.32L363.48 551.20L360.47 548.96L358.72 547.84L356.77 546.59L354.26 544.93L352.57 543.82L350.01 542.23L347.08 540.41L344.56 538.90L342.32 538.08L341.32 542.95L341.42 544.83L342.30 548.34L342.63 550.21L343.29 554.83L344.62 561.05L345.22 563.02L347.05 564.91L350.36 567.11L351.62 568.49L354.18 572.45L355.37 573.88L358.45 576.88L362.68 580.36L362.32 582.02L361.57 584.19L360.65 586.59L359.66 588.60L358.53 589.58L356.89 589.88L354.84 590.37L352.82 593.45L351.63 595.61L348.95 600.18L347.91 601.59L346.43 602.97L343.48 606.63L342.76 607.98L341.06 611.68L339.78 614.53L340.24 618.52L339.62 620.85L338.35 622.01L336.13 622.66L332.99 623.44L328.96 624.35L325.45 625.48L322.60 627.49L321.38 628.92L320.51 632.29L320.26 634.57L320.13 638.10L318.93 639.27L317.26 639.92L315.62 640.35L311.79 640.48L308.82 640.66L305.95 641.25L302.11 641.62L298.53 641.36L297.04 641.14L294.14 640.57L291.66 640.17L288.50 639.79L285.30 639.31L282.30 638.93L280.74 638.73L278.91 638.41L276.79 638.18L275.16 638.14L272.93 638.34L271.04 638.51L267.90 639.03L265.86 639.30L263.49 638.60L263.41 642.12L263.36 644.20L267.41 648.91L269.15 650.14L268.99 652.20L268.75 655.24L269.74 660.73L270.08 662.51L270.89 664.07L271.92 665.35L274.57 668.62L276.70 671.26L282.13 677.95L281.03 680.55L279.93 683.17L276.42 685.11L277.14 686.97L276.78 695.94L276.71 697.59L276.55 701.72L283.09 699.12L285.31 698.07L287.03 697.50L291.78 695.28L293.47 694.50L296.31 693.11L299.23 691.69L302.24 690.23L306.80 687.98L310.12 686.34L314.55 684.35L316.96 682.98L323.33 680.93L325.26 680.09L327.26 679.48L332.78 677.17L337.38 675.36L340.26 674.23L343.98 673.00L346.60 671.96L351.76 671.59L355.79 672.84L356.81 675.77L357.36 681.71L358.39 683.78L358.22 686.72L358.05 689.66L357.79 692.36L357.58 694.51L357.21 698.19L357.06 700.95L356.95 703.66L356.78 706.13L356.61 708.58L356.57 711.35L356.39 714.77L356.77 718.97L357.08 722.36L357.47 724.84L358.35 730.34L360.46 733.45L361.56 737.41L364.04 739.42L366.95 742.59L368.80 744.83L368.81 744.85L370.72 747.31L373.67 749.40L375.21 750.49L375.57 753.29L379.24 755.80L383.10 762.01L383.33 764.24L386.61 766.68L390.07 769.81L392.11 771.06L395.78 773.86L399.02 775.45L402.67 779.07L402.77 779.17L404.13 780.68L406.43 784.03L406.72 784.47L407.91 786.13L410.33 790.09L411.15 792.40L414.34 794.99L414.94 795.67L417.31 798.21L417.32 798.22L419.99 801.03L421.41 802.59L421.49 802.67L422.05 803.21L424.40 805.44L424.41 805.45L426.82 807.71L427.64 808.37L427.64 808.37L431.36 811.31L431.70 811.66L435.05 814.71L436.96 818.69L437.33 819.22L438.55 822.19L441.83 824.63L442.19 825.02L445.16 827.78L445.57 828.08L445.61 828.10L447.93 827.59L451.14 824.99L453.20 822.61L453.28 820.79L452.69 818.82L451.78 816.76L449.42 813.61L448.46 812.48L447.44 811.34L446.32 810.34L445.17 809.28L444.01 808.28L442.94 807.19L441.87 806.19L440.35 804.02L439.29 798.82L439.30 795.71L439.53 792.86L439.70 786.73L438.15 784.76L435.82 783.21L434.46 782.51L433.04 781.69L431.48 780.99L429.96 780.42L426.64 777.90L425.45 776.13L423.24 772.86L422.52 771.40L420.75 766.33L419.20 762.48L418.47 761.07L417.64 759.72L416.73 758.45L415.82 757.20L414.72 755.98L411.81 750.33L411.09 746.54L410.58 743.90L410.66 738.53L410.47 736.55L410.15 734.82L409.96 732.84L412.29 731.86L418.59 730.40L420.65 730.93L423.65 731.68L427.01 731.86L428.68 731.64L433.79 730.69L436.98 730.12L439.03 729.75L442.84 729.41L445.88 730.08L448.38 732.22L449.88 732.57L453.87 732.88L455.47 733.06L457.98 733.33L460.44 733.61L467.33 734.49L469.61 734.33L472.04 733.65L474.59 732.81L478.31 731.48L479.99 730.73L481.82 729.64L485.78 727.60L487.19 727.18L492.33 727.17L495.44 729.48L497.48 731.43L499.14 732.92L500.75 734.27L503.28 737.05L503.86 738.64L504.28 742.70L505.48 744.82L507.39 746.74L510.78 747.61L512.69 746.17L513.37 744.82L514.02 742.67L514.37 739.88L514.69 737.78L515.34 734.03L515.52 732.49L515.68 730.89L516.11 728.34L518.91 725.95L522.78 725.90L524.81 724.68L527.12 723.08L529.47 721.30L534.51 718.77L535.98 718.33L540.50 717.26L542.08 717.01L543.55 716.82L547.76 716.26L550.21 716.71L554.17 717.44L557.96 719.75L561.30 722.19L563.23 722.95L565.80 723.52L568.13 723.79L570.10 724.15L572.81 722.52L575.40 721.31L577.53 720.66L579.27 720.06L581.40 719.34L583.39 718.95L585.39 718.55L588.30 718.03L591.25 717.25L592.99 715.40L593.85 712.60L596.55 710.73L599.91 709.13L601.76 707.58L602.24 706.09L602.70 703.68L606.47 698.23L608.98 696.38L607.36 689.80L605.00 688.88L601.65 688.26L596.37 687.50L590.29 688.46L589.14 687.07L588.00 685.68L587.09 682.33L585.08 679.26L581.81 673.20L580.74 663.52L578.39 653.78L572.38 647.42L564.27 642.47L554.94 638.66L544.97 632.49L543.67 629.70L542.97 628.19L543.29 626.50L544.15 622.37L543.15 620.67L541.52 619.66L540.06 618.51L538.51 617.31L536.95 616.11L534.35 613.85L535.34 611.23L536.94 609.27L538.94 606.32L534.50 602.61L532.40 600.83L531.07 599.41L529.88 597.36L528.84 594.28L528.75 590.61L528.89 586.52L529.43 582.84L529.98 578.39L530.44 575.89L530.42 572.27L530.45 566.03L526.83 566.45L525.20 567.10L523.66 567.71L519.77 569.27L515.76 570.87L514.38 571.43L511.89 572.42L509.27 573.47L507.33 574.24L503.53 575.76L501.28 576.66L499.05 577.55L497.46 578.19L495.33 579.04L492.42 580.20L490.94 580.80L489.15 581.51L487.42 582.20L485.88 582.82L483.68 583.70L481.26 584.67L479.63 585.32L476.76 586.47L474.00 587.57L471.46 588.59L469.90 589.21L467.11 590.32L464.75 591.27L462.33 592.23L459.54 593.35L458.06 593.95L455.44 594.99L454.00 595.57L451.76 596.46L449.37 597.42L447.49 598.17L445.62 598.92L443.45 599.79L439.72 599.16L435.99 600.78L434.35 601.45L432.91 601.96L431.02 602.62L429.45 603.17L425.78 604.45L424.20 604.27L422.39 604.29L420.04 604.33L417.89 604.36L411.70 604.45L404.86 604.35Z" data-ward="14" /><path id="ward-11" class="ward" d="M795.24 429.67L792.91 428.69L788.79 430.08L786.97 430.73L784.27 430.80L782.76 430.31L782.20 433.93L783.10 436.09L785.08 441.24L786.00 443.44L787.64 446.83L788.43 448.17L789.35 449.94L790.96 453.76L791.68 455.33L792.78 460.49L793.16 462.60L793.73 464.39L795.40 468.37L798.00 469.88L799.46 469.60L802.66 468.67L806.29 469.26L812.02 470.28L813.19 473.82L811.60 476.29L810.91 480.13L809.20 482.63L807.49 484.12L805.11 486.11L803.27 487.91L801.34 489.02L799.72 489.19L796.90 489.48L795.17 489.65L790.80 490.14L788.03 490.87L786.52 491.28L782.27 491.99L780.14 491.81L778.41 491.66L776.73 491.51L774.64 491.19L772.04 490.80L769.27 490.38L767.66 490.14L765.36 489.76L763.53 489.13L761.07 488.29L757.88 486.92L755.02 485.32L752.41 485.23L750.90 485.65L748.78 486.25L745.44 487.38L744.79 490.22L744.21 492.77L743.45 495.57L743.38 497.34L744.25 499.20L744.90 500.54L745.16 503.07L745.00 506.05L744.89 507.79L745.49 511.99L747.53 515.27L749.26 517.55L750.08 518.82L750.34 520.55L749.07 522.23L748.00 523.32L746.67 524.59L745.54 525.56L744.13 527.03L743.19 528.28L741.40 529.86L740.11 531.33L739.20 532.69L737.46 536.47L736.13 537.41L732.58 537.01L730.44 536.60L728.40 535.90L726.63 535.06L723.98 533.76L721.39 532.45L718.29 530.99L715.66 529.85L713.11 528.78L710.81 528.07L709.29 527.80L707.63 527.60L705.08 527.52L703.22 527.64L701.35 527.76L697.95 528.16L695.60 528.60L694.07 528.96L691.52 529.51L687.74 530.42L684.81 531.06L682.08 531.72L679.33 532.38L677.91 532.79L675.75 533.88L673.84 535.45L671.92 537.04L669.31 539.31L667.15 540.71L665.78 541.54L663.89 542.53L662.55 543.23L661.23 544.00L660.00 544.91L658.60 546.24L657.35 547.45L656.19 548.51L653.58 550.52L651.35 551.90L648.61 553.37L647.03 554.19L643.73 555.90L642.38 556.49L640.94 557.11L639.10 557.83L637.05 558.67L635.63 559.26L633.06 560.54L630.64 561.75L629.17 562.44L627.04 563.38L625.00 564.40L623.64 565.09L621.79 566.01L620.35 566.72L618.59 567.56L617.24 568.22L615.76 568.94L613.18 570.02L611.48 570.58L610.04 570.85L607.15 571.57L604.44 572.00L602.85 572.06L600.17 572.00L597.18 571.76L595.17 571.60L593.35 571.49L591.43 571.28L589.43 570.83L588.08 569.97L586.32 567.63L585.33 566.31L584.22 564.85L583.16 563.03L582.56 560.89L582.09 559.22L581.55 557.30L579.67 554.99L577.15 558.75L575.38 559.25L574.01 561.59L576.40 564.55L577.32 565.76L578.39 567.18L579.30 568.37L580.89 570.46L583.00 573.26L584.72 575.51L585.68 576.78L586.83 578.29L587.84 579.63L589.84 582.26L590.86 583.60L591.77 584.80L592.81 586.17L594.41 588.28L596.91 591.58L597.99 592.99L598.90 594.20L601.07 597.05L605.02 602.51L606.05 603.95L606.90 605.15L608.21 606.98L609.39 608.63L611.63 611.76L612.70 613.28L613.89 614.93L616.44 620.82L616.17 623.06L615.67 624.83L702.88 619.14L749.67 632.42L750.71 631.56L753.80 615.23L758.62 603.53L759.18 602.69L760.83 599.93L761.39 599.08L763.14 596.67L763.67 595.77L763.92 595.31L764.55 593.68L765.90 589.18L766.30 588.05L766.47 587.64L766.85 586.71L767.42 585.30L767.48 585.16L768.04 583.80L768.55 578.76L769.65 575.29L769.75 574.84L769.69 574.14L769.71 571.87L769.79 571.05L769.93 568.81L770.12 565.87L770.15 565.44L770.54 561.75L770.62 561.21L771.24 557.56L771.52 555.90L771.94 552.36L772.02 549.33L772.14 543.07L772.36 542.76L773.27 541.89L775.55 540.62L782.78 539.47L785.84 538.98L787.63 538.70L789.43 538.41L791.09 538.15L792.72 537.89L796.05 537.36L797.74 537.09L800.79 536.60L803.83 536.12L806.80 535.65L808.48 536.03L810.05 535.13L811.63 534.88L814.97 534.35L816.67 534.08L818.51 533.78L820.74 530.62L822.39 528.28L823.28 527.01L824.23 525.68L825.20 524.30L826.82 523.18L827.97 520.37L828.40 518.67L828.84 516.96L829.27 515.27L829.71 513.56L830.14 511.86L830.99 508.53L831.54 506.37L832.29 503.45L832.68 501.91L833.78 498.53L834.85 495.25L835.37 493.65L836.39 490.51L836.89 488.96L837.41 487.37L837.93 485.79L838.43 484.24L838.90 482.79L839.38 481.30L839.95 479.78L840.55 478.18L841.14 476.59L841.71 475.06L842.29 473.50L842.86 471.98L843.41 470.52L845.37 465.26L847.39 459.86L848.07 454.06L848.41 452.55L846.63 451.29L845.29 450.35L842.99 449.70L839.48 448.47L837.55 447.64L831.93 445.17L829.56 444.21L826.68 442.98L824.43 443.76L822.95 444.87L821.21 445.63L817.17 446.47L815.72 447.01L810.58 445.69L808.59 444.28L807.17 443.23L805.78 442.20L804.09 440.70L801.00 436.67L800.08 435.34L798.83 433.98L797.49 431.89L795.24 429.67Z" data-ward="11" /><path id="ward-7" class="ward" d="M788.47 238.65L786.54 237.00L784.27 235.54L780.38 233.78L777.11 232.60L773.55 231.33L769.17 229.55L766.15 227.82L763.88 226.48L762.56 225.68L759.48 223.99L757.98 223.29L756.64 222.48L753.56 221.01L752.01 220.36L750.27 219.87L748.69 219.25L742.96 217.98L735.46 215.52L733.21 214.78L731.72 214.02L726.41 211.32L722.93 209.22L717.34 205.56L715.17 205.94L711.41 207.16L709.75 207.25L706.84 207.94L704.67 210.15L703.17 211.85L701.75 213.83L700.81 215.69L700.05 217.58L698.40 223.00L698.14 224.48L697.28 226.82L696.37 230.07L695.40 232.71L694.28 234.71L695.05 239.52L697.45 241.16L697.55 243.49L697.35 245.14L697.17 246.77L697.05 249.32L698.59 251.38L700.19 252.62L701.93 253.38L703.42 253.69L704.92 253.96L708.90 253.71L710.12 250.80L710.71 246.32L711.98 242.69L713.99 241.12L715.64 240.64L719.94 240.06L723.26 240.08L725.62 240.51L728.97 241.13L730.27 242.63L730.13 247.03L730.17 251.72L729.42 255.69L728.61 258.14L728.63 260.93L729.70 263.80L730.67 266.24L732.43 270.90L733.99 273.31L735.43 273.10L737.04 272.52L739.01 271.75L741.14 270.92L742.82 270.50L745.50 272.34L746.68 273.34L749.09 275.06L749.52 277.36L749.30 280.30L749.33 282.85L749.37 284.66L748.82 301.36L749.16 310.28L749.03 312.12L749.11 316.54L757.63 322.05L760.42 323.23L762.37 323.42L779.94 325.17L783.10 327.38L788.26 331.05L795.84 336.45L799.28 338.90L811.64 347.70L815.84 350.68L820.50 354.00L827.06 358.67L830.43 361.07L834.15 363.73L835.68 367.21L838.32 373.20L840.73 378.28L842.50 381.78L848.23 387.18L851.64 390.25L853.04 391.53L854.61 393.28L856.18 395.03L857.33 396.83L860.78 401.46L863.39 404.88L865.78 409.86L868.50 418.26L868.95 420.08L875.06 428.67L877.94 426.57L884.46 419.74L895.34 406.57L898.07 404.23L906.56 396.95L912.20 394.10L915.09 392.37L917.71 391.46L923.09 389.05L929.18 386.32L932.69 383.45L940.23 377.30L942.95 374.45L945.66 371.68L946.96 369.36L949.94 364.01L956.60 359.54L961.03 356.56L964.94 353.94L965.88 352.56L968.05 349.34L969.43 346.28L970.65 343.58L971.28 342.17L971.97 340.66L973.45 337.37L987.07 329.51L991.84 326.76L988.80 312.77L991.62 310.81L993.25 309.67L998.18 306.70L998.71 306.54L999.68 306.78L1000.00 306.64L998.29 236.73L998.26 235.19L996.84 235.48L994.98 236.04L991.88 236.91L988.63 237.98L985.23 238.90L980.49 238.77L975.50 238.33L969.32 238.09L960.81 238.44L958.05 239.43L956.69 240.06L955.32 240.69L948.94 244.10L941.31 251.08L939.44 252.80L936.57 255.94L935.16 257.49L928.68 263.67L923.00 267.92L917.89 271.23L911.76 274.78L909.45 275.50L906.34 276.46L900.79 276.91L898.28 277.03L895.77 277.15L893.38 277.01L880.28 275.77L870.69 274.64L864.87 272.19L862.65 271.26L857.69 269.18L856.18 268.54L855.30 267.34L849.40 260.70L846.94 260.73L841.08 263.56L833.64 267.32L825.39 270.39L821.53 269.95L818.08 267.27L816.03 265.05L814.09 262.96L807.00 257.03L803.22 254.24L796.71 248.85L792.09 242.88L791.23 241.63L788.47 238.65Z" data-ward="7" /><path id="ward-10" class="ward" d="M626.09 384.07L624.62 383.45L622.59 382.51L619.97 381.07L618.57 380.03L615.79 379.79L612.42 379.69L610.60 380.88L609.18 381.91L607.11 383.42L604.04 385.75L602.39 386.92L599.66 388.56L598.26 389.40L595.01 391.36L591.71 393.23L589.73 394.30L587.68 395.44L586.03 396.46L584.30 397.55L582.47 398.70L580.66 399.84L576.85 402.08L575.35 402.96L573.60 403.95L571.85 405.23L569.63 408.13L567.70 410.32L564.38 409.76L561.10 409.01L559.60 409.10L558.29 409.78L557.18 410.87L554.30 412.69L552.60 412.45L550.58 411.26L548.37 410.03L546.17 408.79L545.75 417.89L543.49 422.79L542.60 424.70L540.98 427.92L540.40 429.60L546.20 457.76L545.67 461.78L544.86 467.84L544.77 473.57L557.10 477.80L569.87 482.13L569.66 484.76L570.09 486.37L573.19 486.04L592.01 487.63L595.04 488.56L596.06 489.80L596.32 491.48L595.61 493.81L594.53 495.80L593.33 498.01L591.83 500.80L590.65 502.62L589.29 504.72L588.10 506.55L586.71 508.69L585.53 510.74L584.62 512.34L583.34 514.85L580.70 520.03L579.84 521.62L577.36 526.87L576.67 528.69L574.16 534.70L571.75 537.44L569.82 537.14L567.08 536.21L565.62 536.30L561.51 537.47L559.89 537.33L557.29 537.67L553.77 539.57L550.14 541.09L547.92 542.11L548.99 544.69L550.17 547.53L551.36 549.74L552.73 551.69L553.83 553.22L554.84 554.45L555.86 555.70L556.94 556.98L559.49 559.10L565.21 559.84L569.55 559.46L572.38 560.81L574.01 561.59L575.38 559.25L577.15 558.75L579.67 554.99L581.55 557.30L582.09 559.22L582.56 560.89L583.16 563.03L584.22 564.85L585.33 566.31L586.32 567.63L588.08 569.97L589.43 570.83L591.43 571.28L593.35 571.49L595.17 571.60L597.18 571.76L600.17 572.00L602.85 572.06L604.44 572.00L607.15 571.57L610.04 570.85L611.48 570.58L613.18 570.02L615.76 568.94L617.24 568.22L618.59 567.56L620.35 566.72L621.79 566.01L623.64 565.09L625.00 564.40L627.04 563.38L629.17 562.44L630.64 561.75L633.06 560.54L635.63 559.26L637.05 558.67L639.10 557.83L640.94 557.11L642.38 556.49L643.73 555.90L647.03 554.19L648.61 553.37L651.35 551.90L653.58 550.52L656.19 548.51L657.35 547.45L658.60 546.24L660.00 544.91L661.23 544.00L662.55 543.23L663.89 542.53L665.78 541.54L667.15 540.71L669.31 539.31L671.92 537.04L673.84 535.45L675.75 533.88L677.91 532.79L679.33 532.38L682.08 531.72L684.81 531.06L687.74 530.42L691.52 529.51L694.07 528.96L695.60 528.60L697.95 528.16L701.35 527.76L703.22 527.64L705.08 527.52L707.63 527.60L709.29 527.80L710.81 528.07L713.11 528.78L715.66 529.85L718.29 530.99L721.39 532.45L723.98 533.76L726.63 535.06L728.40 535.90L730.44 536.60L732.58 537.01L736.13 537.41L737.46 536.47L739.20 532.69L740.11 531.33L741.40 529.86L743.19 528.28L744.13 527.03L745.54 525.56L746.67 524.59L748.00 523.32L749.07 522.23L750.34 520.55L750.08 518.82L749.26 517.55L747.53 515.27L745.49 511.99L744.89 507.79L745.00 506.05L745.16 503.07L744.90 500.54L744.25 499.20L743.38 497.34L743.45 495.57L744.21 492.77L744.79 490.22L745.44 487.38L748.78 486.25L750.90 485.65L752.41 485.23L755.02 485.32L757.88 486.92L761.07 488.29L763.53 489.13L765.36 489.76L767.66 490.14L769.27 490.38L772.04 490.80L774.64 491.19L776.73 491.51L778.41 491.66L780.14 491.81L782.27 491.99L786.52 491.28L788.03 490.87L790.80 490.14L795.17 489.65L796.90 489.48L799.72 489.19L801.34 489.02L803.27 487.91L805.11 486.11L807.49 484.12L809.20 482.63L810.91 480.13L811.60 476.29L813.19 473.82L812.02 470.28L806.29 469.26L802.66 468.67L799.46 469.60L798.00 469.88L795.40 468.37L793.73 464.39L793.16 462.60L792.78 460.49L791.68 455.33L790.96 453.76L789.35 449.94L788.43 448.17L787.64 446.83L786.00 443.44L785.08 441.24L783.10 436.09L782.20 433.93L782.76 430.31L781.19 429.81L778.79 428.87L776.65 426.86L774.78 425.45L773.02 425.07L769.86 425.18L767.50 424.76L763.96 423.97L759.69 423.32L756.91 422.89L755.12 422.53L752.51 421.89L749.89 422.08L747.72 423.27L745.93 424.42L740.97 425.54L730.51 427.65L728.53 428.05L726.90 429.03L723.95 431.16L722.41 432.04L720.00 431.20L719.03 428.64L718.28 426.11L717.17 424.68L715.52 423.13L712.51 421.65L710.49 420.06L707.16 417.42L705.41 415.65L703.66 413.79L701.58 411.59L700.56 410.52L698.41 408.24L696.72 406.53L694.30 404.21L693.04 402.87L690.45 400.06L687.98 397.63L684.81 394.93L682.10 393.32L679.67 391.95L677.90 391.03L675.38 389.95L671.90 389.21L668.88 389.67L668.13 391.11L667.01 393.56L663.98 393.05L661.49 392.09L659.36 391.15L656.19 389.67L652.93 388.48L649.34 386.91L646.44 385.61L642.64 384.04L639.03 382.90L637.11 382.43L634.29 381.57L631.33 380.98L630.02 381.99L628.72 382.75L627.98 384.21L626.09 384.07Z" data-ward="10" /><path id="ward-15" class="ward" d="M522.22 402.30L520.39 399.69L519.60 397.12L518.00 393.24L516.10 391.43L510.40 394.69L507.39 398.33L496.64 411.44L491.78 426.04L491.00 428.37L486.97 437.81L485.36 441.63L484.36 450.30L483.64 462.02L483.19 469.31L482.95 473.31L482.23 485.42L480.21 490.13L475.11 502.00L470.29 506.15L469.07 507.21L467.26 508.77L461.35 512.24L454.93 516.02L437.91 542.78L408.88 574.16L407.98 580.43L404.86 604.35L411.70 604.45L417.89 604.36L420.04 604.33L422.39 604.29L424.20 604.27L425.78 604.45L429.45 603.17L431.02 602.62L432.91 601.96L434.35 601.45L435.99 600.78L439.72 599.16L443.45 599.79L445.62 598.92L447.49 598.17L449.37 597.42L451.76 596.46L454.00 595.57L455.44 594.99L458.06 593.95L459.54 593.35L462.33 592.23L464.75 591.27L467.11 590.32L469.90 589.21L471.46 588.59L474.00 587.57L476.76 586.47L479.63 585.32L481.26 584.67L483.68 583.70L485.88 582.82L487.42 582.20L489.15 581.51L490.94 580.80L492.42 580.20L495.33 579.04L497.46 578.19L499.05 577.55L501.28 576.66L503.53 575.76L507.33 574.24L509.27 573.47L511.89 572.42L514.38 571.43L515.76 570.87L519.77 569.27L523.66 567.71L525.20 567.10L526.83 566.45L530.45 566.03L530.92 562.70L531.35 560.55L532.83 556.24L534.50 556.60L536.58 557.44L539.42 559.19L540.47 555.67L540.97 553.98L541.75 551.35L542.41 549.12L543.47 545.58L543.94 544.01L546.21 542.93L547.92 542.11L550.14 541.09L553.77 539.57L557.29 537.67L559.89 537.33L561.51 537.47L565.62 536.30L567.08 536.21L569.82 537.14L571.75 537.44L574.16 534.70L576.67 528.69L577.36 526.87L579.84 521.62L580.70 520.03L583.34 514.85L584.62 512.34L585.53 510.74L586.71 508.69L588.10 506.55L589.29 504.72L590.65 502.62L591.83 500.80L593.33 498.01L594.53 495.80L595.61 493.81L596.32 491.48L596.06 489.80L595.04 488.56L592.01 487.63L573.19 486.04L570.09 486.37L569.66 484.76L569.87 482.13L557.10 477.80L544.77 473.57L544.86 467.84L545.67 461.78L546.20 457.76L540.40 429.60L540.98 427.92L542.60 424.70L543.49 422.79L545.75 417.89L546.17 408.79L544.22 408.22L540.72 406.62L537.79 405.39L534.99 404.28L532.12 403.56L529.85 403.22L527.04 403.14L524.39 403.17L522.22 402.30Z" data-ward="15" /><path id="ward-9" class="ward" d="M597.42 213.51L594.52 212.09L589.82 210.28L588.04 208.57L586.55 206.65L585.73 205.17L584.52 202.58L582.98 200.08L580.56 197.55L579.24 196.45L575.15 194.13L571.99 192.77L570.19 192.15L566.44 190.82L563.60 189.90L562.10 189.33L560.60 188.75L557.96 187.46L556.56 186.59L552.58 184.13L544.58 179.64L538.53 183.03L537.36 184.07L535.57 185.67L534.32 186.65L531.88 188.55L529.98 190.03L527.30 192.02L525.37 193.45L524.14 194.31L521.05 196.64L522.73 200.31L523.41 202.41L523.96 203.93L524.74 205.38L525.48 207.48L526.19 210.06L525.62 213.17L523.80 212.45L520.80 212.31L518.10 212.20L515.58 211.98L512.26 212.12L509.01 212.34L508.65 216.38L510.47 216.91L511.10 219.20L511.64 222.86L505.80 246.48L504.81 250.38L505.19 252.63L507.53 254.71L509.60 256.83L511.78 260.66L512.84 262.89L513.64 264.60L514.41 266.22L515.54 268.27L516.49 270.64L516.69 274.63L514.55 274.51L512.31 274.40L510.30 274.55L508.32 274.51L504.46 274.38L502.41 274.86L499.88 271.76L498.20 272.07L495.39 272.91L491.50 274.28L486.29 276.12L487.23 278.42L481.78 281.13L475.08 284.39L476.44 290.59L478.16 298.40L480.61 315.46L479.74 323.21L479.06 327.09L478.38 330.98L476.54 339.90L476.18 344.05L472.82 349.75L473.86 356.81L478.03 361.70L480.59 366.06L478.53 367.95L480.22 370.83L481.41 372.40L478.71 382.41L481.07 384.75L506.55 395.71L510.40 394.69L516.10 391.43L518.00 393.24L519.60 397.12L520.39 399.69L522.22 402.30L524.39 403.17L527.04 403.14L529.85 403.22L532.12 403.56L534.99 404.28L537.79 405.39L540.72 406.62L544.22 408.22L546.17 408.79L548.37 410.03L550.58 411.26L552.60 412.45L554.30 412.69L557.18 410.87L558.29 409.78L559.60 409.10L561.10 409.01L564.38 409.76L567.70 410.32L569.63 408.13L571.85 405.23L573.60 403.95L575.35 402.96L576.85 402.08L580.66 399.84L582.47 398.70L584.30 397.55L586.03 396.46L587.68 395.44L589.73 394.30L591.71 393.23L595.01 391.36L598.26 389.40L599.66 388.56L602.39 386.92L604.04 385.75L607.11 383.42L609.18 381.91L610.60 380.88L612.42 379.69L615.79 379.79L618.57 380.03L619.97 381.07L622.59 382.51L624.62 383.45L626.09 384.07L627.98 384.21L628.72 382.75L630.02 381.99L631.33 380.98L630.27 379.34L630.97 377.86L632.10 375.15L632.74 373.36L633.28 371.86L633.84 370.30L634.81 367.58L635.44 365.81L636.43 362.99L637.16 360.89L637.93 359.03L638.79 357.01L639.46 355.43L640.09 353.95L640.86 352.09L641.68 349.21L642.21 346.18L641.84 344.09L641.51 342.22L641.03 339.54L640.60 337.16L640.07 334.50L639.40 331.90L637.95 327.85L636.78 326.78L636.78 324.05L637.96 320.63L639.68 318.02L641.31 316.51L642.55 315.36L644.07 313.96L645.45 312.68L647.54 310.42L649.16 307.74L650.56 305.89L651.70 304.39L653.47 302.05L641.46 299.01L638.55 294.31L636.59 291.05L630.83 281.57L615.48 275.12L613.89 274.45L598.60 258.40L591.38 251.73L583.68 246.42L584.96 244.47L586.07 243.15L587.21 241.79L588.36 240.60L589.93 241.63L592.81 243.54L594.19 244.45L596.16 245.75L598.38 247.22L600.19 248.44L601.67 249.64L602.89 250.63L604.89 252.25L606.78 253.79L609.21 255.76L610.43 256.75L611.62 257.71L612.85 258.71L614.74 260.25L616.28 261.50L618.21 263.06L620.91 264.69L622.78 265.83L624.42 266.81L626.12 267.84L627.88 268.90L630.63 270.57L633.61 271.20L635.39 271.57L637.27 271.97L639.23 272.39L640.74 272.70L643.18 272.78L645.95 271.84L647.95 271.16L649.55 270.62L651.93 269.82L653.76 268.87L655.17 267.69L656.48 266.60L658.35 265.04L659.67 263.94L661.14 262.71L662.10 260.71L662.78 259.31L663.49 257.85L664.75 255.22L666.07 252.50L666.71 251.17L668.00 248.51L669.01 246.42L669.72 244.94L670.39 243.55L670.25 241.77L668.96 240.66L667.12 239.34L665.85 238.30L663.63 237.10L660.66 236.28L658.55 235.99L655.07 235.15L651.47 234.53L650.01 237.80L649.56 239.59L648.34 243.13L647.38 245.29L646.09 247.24L645.23 249.38L643.79 251.27L640.88 252.51L637.36 254.02L634.16 253.18L632.99 250.77L632.75 247.80L626.45 242.74L618.73 236.52L615.34 233.80L613.14 229.95L608.54 225.70L607.16 223.17L604.84 219.41L603.41 217.66L599.75 214.64L597.42 213.51Z" data-ward="9" /><path id="ward-5" class="ward" d="M546.97 14.86L545.91 13.77L543.36 11.24L541.54 9.89L539.14 8.12L537.98 11.13L536.91 13.89L536.67 16.25L538.33 19.39L538.78 22.83L538.95 26.25L539.70 29.34L540.32 31.61L541.06 35.00L540.78 36.55L540.36 38.84L539.30 42.99L540.13 46.74L541.23 49.42L542.08 51.72L543.21 53.73L545.54 54.92L547.16 54.97L550.89 54.73L552.51 54.86L554.17 55.38L556.27 56.03L557.10 59.28L557.40 60.75L558.47 64.94L559.27 67.28L560.11 69.59L561.14 72.53L561.59 74.24L561.85 75.98L561.87 78.57L561.71 81.12L562.72 88.12L563.22 90.21L563.59 92.64L563.28 96.24L563.74 98.82L562.32 99.39L560.50 98.67L557.24 97.37L551.85 94.23L550.10 93.12L547.24 91.32L545.54 90.37L542.05 88.24L538.88 85.93L533.61 83.24L531.42 85.61L529.48 88.47L527.74 91.47L526.79 93.16L525.99 94.57L523.24 100.67L522.11 103.39L521.03 105.35L520.01 107.20L518.31 110.39L516.34 113.63L514.96 116.17L513.17 119.39L512.26 120.95L510.67 123.52L508.85 126.22L509.28 128.07L513.06 130.83L514.24 131.75L516.15 133.39L517.53 134.41L520.06 136.36L522.54 138.65L524.53 139.63L526.51 141.45L528.84 141.96L530.58 142.54L532.27 143.14L534.76 144.59L536.24 144.84L537.20 142.88L538.58 140.05L539.61 137.42L540.17 135.99L540.42 134.52L540.73 132.64L540.89 130.77L541.26 127.36L541.70 125.56L543.21 124.18L546.12 126.13L547.48 126.90L551.07 129.05L554.83 131.30L558.97 132.46L561.43 133.33L563.07 133.92L565.82 135.30L570.45 137.64L569.79 139.93L568.64 142.51L568.02 143.97L567.36 145.41L566.12 148.09L565.11 150.39L563.47 154.06L562.54 155.89L561.60 157.24L560.70 158.49L559.59 159.90L556.67 163.35L554.89 165.59L553.77 166.95L547.86 173.70L546.26 175.45L544.28 177.52L544.58 179.64L552.58 184.13L556.56 186.59L557.96 187.46L560.60 188.75L562.10 189.33L563.60 189.90L566.44 190.82L570.19 192.15L571.99 192.77L575.15 194.13L579.24 196.45L580.56 197.55L581.85 194.56L582.26 193.10L582.77 191.18L583.11 189.68L583.49 188.04L584.20 185.46L584.59 184.02L585.11 182.09L585.97 178.88L586.69 176.60L587.52 174.02L588.10 172.22L588.56 170.75L589.12 168.99L589.55 167.56L590.08 165.78L591.64 164.90L594.99 165.57L597.87 166.29L600.11 166.95L603.50 167.96L606.13 168.75L609.86 169.88L612.79 170.57L615.78 171.12L618.29 171.82L621.70 172.83L624.31 173.63L627.30 174.45L631.28 175.44L633.22 175.47L635.45 175.56L637.53 175.60L639.46 176.02L640.94 176.37L642.73 177.09L644.29 177.85L647.35 179.31L648.85 180.12L651.85 181.56L653.35 182.26L654.93 182.91L664.81 186.51L667.75 187.71L669.93 188.78L673.71 190.31L674.97 187.46L676.27 184.65L677.47 182.79L679.10 180.28L680.86 176.90L681.57 175.50L682.84 172.98L684.84 168.79L685.88 165.10L686.47 163.00L689.10 163.55L690.60 164.34L692.47 165.39L695.51 164.74L696.41 162.84L696.28 159.30L696.93 157.09L698.14 153.94L699.77 152.29L701.14 151.20L702.65 150.08L700.42 145.35L697.19 138.50L697.75 136.68L698.78 133.42L700.34 128.22L697.73 126.04L695.58 124.25L692.79 121.93L690.98 119.72L689.04 117.37L686.79 114.62L684.28 111.56L683.23 110.05L678.48 106.06L674.95 102.95L670.15 98.71L668.02 96.82L666.64 94.94L664.06 92.19L660.57 87.30L655.86 80.69L654.53 71.82L654.18 69.52L645.83 63.32L643.87 66.66L641.83 70.11L634.56 75.86L631.43 78.33L627.39 81.53L626.10 80.36L624.08 78.51L616.23 71.33L612.70 68.14L607.31 62.29L605.26 60.07L602.76 57.35L601.02 53.38L598.23 51.50L596.42 50.08L593.61 47.29L590.69 44.14L589.20 41.13L587.70 38.11L585.40 36.02L584.12 33.93L583.93 31.88L583.76 28.43L582.92 27.22L582.02 25.91L580.64 24.34L578.08 22.81L574.98 22.10L572.33 22.72L570.50 23.43L568.48 20.51L565.68 16.45L564.14 14.21L561.78 14.63L559.31 15.08L557.11 15.48L554.32 15.60L552.61 17.10L550.73 18.75L546.97 14.86Z" data-ward="5" /><path id="ward-1" class="ward" d="M135.23 173.25L132.92 173.16L128.54 172.40L125.69 171.33L122.86 170.17L121.43 169.44L118.64 167.96L115.54 165.65L106.39 160.93L101.54 159.42L98.91 159.27L96.52 159.12L92.06 158.46L89.06 157.95L86.22 157.47L80.03 156.46L75.78 155.62L72.74 155.22L70.20 154.97L67.03 154.13L60.06 152.60L57.92 152.04L48.40 149.39L41.84 148.74L28.78 162.90L26.97 164.86L24.59 171.72L22.67 174.18L21.98 178.39L22.03 179.88L21.97 179.99L19.11 183.17L17.28 184.92L15.56 186.57L14.03 188.61L11.85 191.53L10.80 192.92L9.38 194.81L8.22 196.36L7.66 198.46L7.27 199.89L6.08 203.46L5.02 206.62L0.50 220.11L0.00 221.62L1.59 222.51L4.63 224.20L6.52 225.25L8.20 226.13L7.64 228.21L4.01 235.29L4.80 238.72L6.17 239.90L8.60 241.99L14.53 246.86L19.08 250.45L20.53 251.59L27.08 256.76L38.41 265.81L52.49 274.59L57.10 277.13L66.17 281.09L68.34 281.36L69.95 281.54L71.24 281.70L72.39 281.88L73.77 282.30L74.83 282.69L75.26 282.87L76.06 283.19L77.04 283.92L77.57 284.24L78.40 284.73L80.30 286.24L81.43 287.03L82.34 287.50L95.74 291.46L102.85 292.25L110.03 293.05L117.05 293.83L119.88 294.15L123.18 294.52L124.78 294.64L128.37 294.91L131.50 295.15L134.70 295.39L140.29 295.50L144.43 295.58L146.38 295.62L153.85 294.63L161.87 294.30L164.53 294.94L168.68 295.95L171.11 296.70L174.46 298.52L178.25 299.57L183.08 302.69L186.71 305.04L190.32 307.57L200.66 314.82L206.74 317.14L210.78 318.64L214.96 317.81L220.61 316.89L224.77 316.22L231.50 314.10L237.13 313.52L245.69 311.00L247.62 310.58L250.63 309.77L256.21 308.04L256.85 306.29L255.76 303.53L255.06 301.38L254.37 298.79L253.73 296.32L252.72 292.39L252.31 290.81L251.89 289.19L251.36 287.32L249.99 283.67L249.16 282.07L248.27 280.40L246.91 277.69L246.22 275.79L245.69 274.14L245.34 272.47L244.82 269.20L244.45 266.95L243.67 263.42L242.79 259.95L242.15 258.35L241.45 256.73L240.01 253.48L239.22 251.76L237.94 248.65L236.79 245.57L235.65 241.82L235.35 240.17L234.91 237.25L234.95 235.68L235.54 232.15L235.72 230.44L235.75 228.89L235.59 227.11L234.57 224.16L233.93 222.72L233.17 221.33L232.10 218.46L231.60 216.97L229.49 213.07L225.58 212.42L223.05 213.01L216.13 213.75L209.11 210.90L207.38 209.73L205.54 208.10L202.35 204.28L200.76 202.04L198.31 198.43L197.23 196.59L194.71 192.61L193.73 190.76L192.25 184.84L191.91 183.30L190.87 178.13L190.26 175.68L188.81 174.53L187.24 174.96L185.24 175.29L183.23 175.62L180.13 175.30L176.86 174.87L175.41 174.56L166.89 171.61L159.04 172.46L150.55 173.39L138.80 173.37L135.23 173.25Z" data-ward="1" /><path id="ward-6" class="ward" d="M870.32 158.23L840.52 148.39L831.71 145.49L821.71 151.33L816.24 154.52L806.13 158.37L803.74 157.97L798.60 157.11L795.95 156.92L781.62 155.87L771.77 155.15L768.41 154.90L761.84 154.42L748.22 153.42L740.64 152.87L730.62 152.13L722.66 151.55L712.59 150.81L702.65 150.08L701.14 151.20L699.77 152.29L698.14 153.94L696.93 157.09L696.28 159.30L696.41 162.84L695.51 164.74L692.47 165.39L690.60 164.34L689.10 163.55L686.47 163.00L685.88 165.10L684.84 168.79L682.84 172.98L681.57 175.50L680.86 176.90L679.10 180.28L677.47 182.79L676.27 184.65L674.97 187.46L673.71 190.31L676.24 191.64L682.12 193.80L684.15 194.59L685.60 195.26L688.92 196.84L692.12 197.79L694.16 198.17L697.07 198.55L699.74 198.73L701.75 198.84L703.76 198.92L706.18 199.26L707.79 199.56L709.89 200.39L713.40 202.48L715.19 203.78L717.34 205.56L722.93 209.22L726.41 211.32L731.72 214.02L733.21 214.78L735.46 215.52L742.96 217.98L748.69 219.25L750.27 219.87L752.01 220.36L753.56 221.01L756.64 222.48L757.98 223.29L759.48 223.99L762.56 225.68L763.88 226.48L766.15 227.82L769.17 229.55L773.55 231.33L777.11 232.60L780.38 233.78L784.27 235.54L786.54 237.00L788.47 238.65L791.23 241.63L792.09 242.88L796.71 248.85L803.22 254.24L807.00 257.03L814.09 262.96L816.03 265.05L818.08 267.27L821.53 269.95L825.39 270.39L833.64 267.32L841.08 263.56L846.94 260.73L849.40 260.70L855.30 267.34L856.18 268.54L857.69 269.18L862.65 271.26L864.87 272.19L870.69 274.64L880.28 275.77L893.38 277.01L895.77 277.15L898.28 277.03L900.79 276.91L906.34 276.46L909.45 275.50L911.76 274.78L917.89 271.23L923.00 267.92L928.68 263.67L935.16 257.49L936.57 255.94L939.44 252.80L941.31 251.08L948.94 244.10L955.32 240.69L956.69 240.06L958.05 239.43L960.81 238.44L960.30 235.84L959.92 234.13L959.39 231.17L958.91 229.35L958.37 227.27L958.12 225.66L957.90 224.18L957.54 219.37L957.27 215.87L957.01 212.35L957.37 210.18L960.23 192.84L960.41 189.63L961.87 185.52L963.10 182.02L957.01 186.32L952.63 185.09L946.97 185.20L944.84 186.21L940.65 186.68L936.02 186.23L929.85 184.95L923.72 183.40L917.04 182.16L911.58 180.67L905.65 178.22L902.97 175.93L897.98 172.32L895.40 171.71L890.06 170.68L885.97 170.14L885.72 169.40L881.11 167.55L874.42 161.79L870.32 158.23Z" data-ward="6" /><path id="ward-8" class="ward" d="M694.28 234.71L695.40 232.71L696.37 230.07L697.28 226.82L698.14 224.48L698.40 223.00L700.05 217.58L700.81 215.69L701.75 213.83L703.17 211.85L704.67 210.15L706.84 207.94L709.75 207.25L711.41 207.16L715.17 205.94L717.34 205.56L715.19 203.78L713.40 202.48L709.89 200.39L707.79 199.56L706.18 199.26L703.76 198.92L701.75 198.84L699.74 198.73L697.07 198.55L694.16 198.17L692.12 197.79L688.92 196.84L685.60 195.26L684.15 194.59L682.12 193.80L676.24 191.64L673.71 190.31L669.93 188.78L667.75 187.71L664.81 186.51L654.93 182.91L653.35 182.26L651.85 181.56L648.85 180.12L647.35 179.31L644.29 177.85L642.73 177.09L640.94 176.37L639.46 176.02L637.53 175.60L635.45 175.56L633.22 175.47L631.28 175.44L627.30 174.45L624.31 173.63L621.70 172.83L618.29 171.82L615.78 171.12L612.79 170.57L609.86 169.88L606.13 168.75L603.50 167.96L600.11 166.95L597.87 166.29L594.99 165.57L591.64 164.90L590.08 165.78L589.55 167.56L589.12 168.99L588.56 170.75L588.10 172.22L587.52 174.02L586.69 176.60L585.97 178.88L585.11 182.09L584.59 184.02L584.20 185.46L583.49 188.04L583.11 189.68L582.77 191.18L582.26 193.10L581.85 194.56L580.56 197.55L582.98 200.08L584.52 202.58L585.73 205.17L586.55 206.65L588.04 208.57L589.82 210.28L594.52 212.09L597.42 213.51L599.75 214.64L603.41 217.66L604.84 219.41L607.16 223.17L608.54 225.70L613.14 229.95L615.34 233.80L618.73 236.52L626.45 242.74L632.75 247.80L632.99 250.77L634.16 253.18L637.36 254.02L640.88 252.51L643.79 251.27L645.23 249.38L646.09 247.24L647.38 245.29L648.34 243.13L649.56 239.59L650.01 237.80L651.47 234.53L655.07 235.15L658.55 235.99L660.66 236.28L663.63 237.10L665.85 238.30L667.12 239.34L668.96 240.66L670.25 241.77L670.39 243.55L669.72 244.94L669.01 246.42L668.00 248.51L666.71 251.17L666.07 252.50L664.75 255.22L663.49 257.85L662.78 259.31L662.10 260.71L661.14 262.71L659.67 263.94L658.35 265.04L656.48 266.60L655.17 267.69L653.76 268.87L651.93 269.82L649.55 270.62L647.95 271.16L645.95 271.84L643.18 272.78L640.74 272.70L639.23 272.39L637.27 271.97L635.39 271.57L633.61 271.20L630.63 270.57L627.88 268.90L626.12 267.84L624.42 266.81L622.78 265.83L620.91 264.69L618.21 263.06L616.28 261.50L614.74 260.25L612.85 258.71L611.62 257.71L610.43 256.75L609.21 255.76L606.78 253.79L604.89 252.25L602.89 250.63L601.67 249.64L600.19 248.44L598.38 247.22L596.16 245.75L594.19 244.45L592.81 243.54L589.93 241.63L588.36 240.60L587.21 241.79L586.07 243.15L584.96 244.47L583.68 246.42L591.38 251.73L598.60 258.40L613.89 274.45L615.48 275.12L630.83 281.57L636.59 291.05L638.55 294.31L641.46 299.01L653.47 302.05L651.70 304.39L650.56 305.89L649.16 307.74L647.54 310.42L645.45 312.68L644.07 313.96L642.55 315.36L641.31 316.51L639.68 318.02L637.96 320.63L636.78 324.05L636.78 326.78L637.95 327.85L639.40 331.90L640.07 334.50L640.60 337.16L641.03 339.54L641.51 342.22L641.84 344.09L642.21 346.18L641.68 349.21L640.86 352.09L640.09 353.95L639.46 355.43L638.79 357.01L637.93 359.03L637.16 360.89L636.43 362.99L635.44 365.81L634.81 367.58L633.84 370.30L633.28 371.86L632.74 373.36L632.10 375.15L630.97 377.86L630.27 379.34L631.33 380.98L634.29 381.57L637.11 382.43L639.03 382.90L642.64 384.04L646.44 385.61L649.34 386.91L652.93 388.48L656.19 389.67L659.36 391.15L661.49 392.09L663.98 393.05L667.01 393.56L668.13 391.11L668.88 389.67L671.90 389.21L675.38 389.95L677.90 391.03L679.67 391.95L682.10 393.32L684.81 394.93L687.98 397.63L690.45 400.06L693.04 402.87L694.30 404.21L696.72 406.53L698.41 408.24L700.56 410.52L701.58 411.59L703.66 413.79L705.41 415.65L707.16 417.42L710.49 420.06L712.51 421.65L715.52 423.13L717.17 424.68L718.28 426.11L719.03 428.64L720.00 431.20L722.41 432.04L723.95 431.16L726.90 429.03L728.53 428.05L730.51 427.65L740.97 425.54L745.93 424.42L747.72 423.27L749.89 422.08L752.51 421.89L755.12 422.53L756.91 422.89L759.69 423.32L763.96 423.97L767.50 424.76L769.86 425.18L773.02 425.07L774.78 425.45L776.65 426.86L778.79 428.87L781.19 429.81L782.76 430.31L784.27 430.80L786.97 430.73L788.79 430.08L792.91 428.69L795.24 429.67L797.49 431.89L798.83 433.98L800.08 435.34L801.00 436.67L804.09 440.70L805.78 442.20L807.17 443.23L808.59 444.28L810.58 445.69L815.72 447.01L817.17 446.47L821.21 445.63L822.95 444.87L824.43 443.76L826.68 442.98L829.56 444.21L831.93 445.17L837.55 447.64L839.48 448.47L842.99 449.70L845.29 450.35L846.63 451.29L848.41 452.55L849.69 450.73L850.21 448.64L852.69 446.67L854.27 445.41L855.42 444.50L856.57 443.58L858.64 441.93L860.59 440.38L862.45 438.90L864.21 437.50L865.95 436.12L867.53 434.86L869.10 433.61L870.75 432.30L875.06 428.67L868.95 420.08L868.50 418.26L865.78 409.86L863.39 404.88L860.78 401.46L857.33 396.83L856.18 395.03L854.61 393.28L853.04 391.53L851.64 390.25L848.23 387.18L842.50 381.78L840.73 378.28L838.32 373.20L835.68 367.21L834.15 363.73L830.43 361.07L827.06 358.67L820.50 354.00L815.84 350.68L811.64 347.70L799.28 338.90L795.84 336.45L788.26 331.05L783.10 327.38L779.94 325.17L762.37 323.42L760.42 323.23L757.63 322.05L749.11 316.54L749.03 312.12L749.16 310.28L748.82 301.36L749.37 284.66L749.33 282.85L749.30 280.30L749.52 277.36L749.09 275.06L746.68 273.34L745.50 272.34L742.82 270.50L741.14 270.92L739.01 271.75L737.04 272.52L735.43 273.10L733.99 273.31L732.43 270.90L730.67 266.24L729.70 263.80L728.63 260.93L728.61 258.14L729.42 255.69L730.17 251.72L730.13 247.03L730.27 242.63L728.97 241.13L725.62 240.51L723.26 240.08L719.94 240.06L715.64 240.64L713.99 241.12L711.98 242.69L710.71 246.32L710.12 250.80L708.90 253.71L704.92 253.96L703.42 253.69L701.93 253.38L700.19 252.62L698.59 251.38L697.05 249.32L697.17 246.77L697.35 245.14L697.55 243.49L697.45 241.16L695.05 239.52L694.28 234.71Z" data-ward="8" /><path id="ward-3" class="ward" d="M294.49 105.90L293.25 102.79L292.84 100.07L292.19 97.06L291.14 94.59L290.31 92.56L288.22 87.21L249.55 84.34L244.27 83.95L244.37 86.27L244.82 88.20L245.13 90.80L245.76 93.52L246.94 95.77L248.15 98.41L249.05 100.24L249.69 101.25L256.23 118.71L256.80 121.39L257.54 123.28L260.39 124.32L262.84 126.46L264.72 129.17L266.55 131.30L273.45 135.73L276.93 138.01L289.30 148.79L289.60 151.64L288.68 154.00L291.28 160.14L295.35 165.32L300.22 172.75L306.72 185.69L317.22 196.91L319.95 199.33L327.45 205.98L333.44 211.18L345.36 223.70L346.79 225.54L353.55 234.02L358.51 241.81L358.91 243.81L357.77 244.94L358.74 250.35L359.87 252.35L362.35 254.92L364.89 253.41L367.35 255.98L368.87 257.52L371.32 259.86L374.18 262.03L377.29 263.26L381.76 264.53L384.62 265.16L387.93 266.01L392.71 267.25L397.05 268.41L399.20 269.11L402.30 270.28L404.07 271.18L406.18 272.18L410.39 274.34L411.61 275.58L413.09 277.19L414.19 278.92L415.06 280.63L416.02 282.34L417.04 284.15L420.87 288.97L422.27 290.38L423.83 291.71L425.12 294.49L426.12 297.36L427.89 299.82L429.78 302.32L432.10 306.02L432.84 307.38L435.10 311.84L438.67 317.68L440.03 319.80L442.01 320.95L445.11 321.66L448.48 322.58L451.40 323.85L455.23 325.97L458.47 325.94L460.24 327.05L462.40 328.93L463.98 329.97L465.83 330.84L468.11 330.19L469.31 327.74L470.22 322.92L470.54 320.87L470.81 316.51L470.71 314.97L470.36 311.31L469.79 307.77L468.81 304.95L466.88 300.61L465.94 298.60L465.03 296.56L464.28 292.63L465.20 288.81L466.63 286.04L466.85 284.13L465.88 280.32L464.85 277.31L464.16 275.54L462.95 273.17L461.68 270.61L460.46 268.18L459.57 266.59L458.74 264.99L457.60 262.61L456.85 261.07L454.81 257.46L454.91 254.94L457.13 253.07L459.14 251.74L460.84 250.80L462.42 249.80L462.80 246.07L460.59 242.42L459.06 240.66L457.68 238.67L456.74 235.87L456.44 234.24L456.20 232.61L456.03 230.89L455.25 228.71L454.23 226.29L453.59 224.50L452.80 222.42L452.07 219.68L451.48 216.90L453.30 215.10L458.17 214.43L462.12 213.78L465.19 213.10L468.35 211.99L470.33 211.23L472.05 210.48L474.91 209.28L479.57 207.71L481.20 207.49L486.45 206.76L490.08 206.06L492.07 205.48L493.99 204.81L496.86 203.80L500.26 202.86L503.72 202.07L506.89 201.46L508.73 201.11L510.24 200.68L511.75 200.25L513.59 199.49L515.46 198.78L517.33 198.06L521.05 196.64L524.14 194.31L525.37 193.45L527.30 192.02L529.98 190.03L531.88 188.55L534.32 186.65L535.57 185.67L537.36 184.07L538.53 183.03L544.58 179.64L544.28 177.52L546.26 175.45L547.86 173.70L553.77 166.95L554.89 165.59L556.67 163.35L559.59 159.90L560.70 158.49L561.60 157.24L562.54 155.89L563.47 154.06L565.11 150.39L566.12 148.09L567.36 145.41L568.02 143.97L568.64 142.51L569.79 139.93L570.45 137.64L565.82 135.30L563.07 133.92L561.43 133.33L558.97 132.46L554.83 131.30L551.07 129.05L547.48 126.90L546.12 126.13L543.21 124.18L541.70 125.56L541.26 127.36L540.89 130.77L540.73 132.64L540.42 134.52L540.17 135.99L539.61 137.42L538.58 140.05L537.20 142.88L536.24 144.84L534.76 144.59L532.27 143.14L530.58 142.54L528.84 141.96L526.51 141.45L522.01 146.24L521.00 148.19L519.65 150.83L518.67 152.13L517.20 153.96L515.53 155.72L513.98 157.05L512.81 158.07L511.09 160.85L508.47 162.21L506.31 163.32L503.88 164.03L501.99 164.76L499.77 165.46L497.51 166.10L495.54 166.24L493.71 166.37L490.15 166.65L487.98 166.81L485.98 166.90L483.48 166.81L481.03 166.56L479.55 166.74L477.08 166.99L474.48 167.22L474.39 165.73L475.27 161.50L475.34 159.63L475.23 157.67L474.47 156.35L472.87 154.36L472.85 152.74L473.05 149.75L472.07 147.15L470.55 145.55L464.40 140.89L462.16 139.27L460.64 138.17L457.69 137.66L456.22 137.14L454.93 136.26L453.09 134.98L451.02 133.65L448.49 132.78L446.44 132.19L445.02 131.71L442.49 129.55L441.42 126.97L441.06 125.27L440.76 123.81L440.06 120.43L440.23 118.25L440.02 114.24L440.29 112.49L438.25 112.12L435.62 112.97L432.50 112.95L430.18 111.43L428.37 109.08L425.87 110.19L409.54 114.14L407.74 115.96L405.53 118.12L402.13 121.51L400.80 122.94L399.35 124.51L397.33 126.68L396.13 127.97L394.91 129.28L391.69 131.20L390.36 131.99L386.97 133.97L384.68 132.44L383.17 130.40L381.35 127.94L379.62 125.61L378.48 124.17L376.44 122.83L374.79 121.77L372.81 120.50L371.37 119.58L368.78 117.93L367.42 117.05L365.05 115.54L362.44 113.82L358.99 111.55L356.01 109.59L354.05 108.31L352.09 107.12L350.38 106.14L346.66 104.04L342.10 103.76L338.28 103.83L335.15 103.90L332.71 104.30L329.99 104.78L326.81 105.33L323.64 105.89L320.19 106.49L317.68 106.94L315.38 107.34L310.75 108.16L309.16 107.83L306.63 106.73L304.73 105.89L302.24 104.42L299.40 105.04L296.50 106.36L294.49 105.90Z" data-ward="3" /><path id="ward-17" class="ward" d="M526.19 210.06L525.48 207.48L524.74 205.38L523.96 203.93L523.41 202.41L522.73 200.31L521.05 196.64L517.33 198.06L515.46 198.78L513.59 199.49L511.75 200.25L510.24 200.68L508.73 201.11L506.89 201.46L503.72 202.07L500.26 202.86L496.86 203.80L493.99 204.81L492.07 205.48L490.08 206.06L486.45 206.76L481.20 207.49L479.57 207.71L474.91 209.28L472.05 210.48L470.33 211.23L468.35 211.99L465.19 213.10L462.12 213.78L458.17 214.43L453.30 215.10L451.48 216.90L452.07 219.68L452.80 222.42L453.59 224.50L454.23 226.29L455.25 228.71L456.03 230.89L456.20 232.61L456.44 234.24L456.74 235.87L457.68 238.67L459.06 240.66L460.59 242.42L462.80 246.07L462.42 249.80L460.84 250.80L459.14 251.74L457.13 253.07L454.91 254.94L454.81 257.46L456.85 261.07L457.60 262.61L458.74 264.99L459.57 266.59L460.46 268.18L461.68 270.61L462.95 273.17L464.16 275.54L464.85 277.31L465.88 280.32L466.85 284.13L466.63 286.04L465.20 288.81L464.28 292.63L465.03 296.56L465.94 298.60L466.88 300.61L468.81 304.95L469.79 307.77L470.36 311.31L470.71 314.97L470.81 316.51L470.54 320.87L470.22 322.92L469.31 327.74L468.11 330.19L465.83 330.84L463.98 329.97L462.40 328.93L460.24 327.05L458.47 325.94L455.23 325.97L451.40 323.85L448.48 322.58L445.11 321.66L442.01 320.95L440.03 319.80L438.67 317.68L435.10 311.84L432.84 307.38L432.10 306.02L429.78 302.32L427.89 299.82L426.12 297.36L425.12 294.49L423.83 291.71L422.27 290.38L420.87 288.97L417.04 284.15L416.02 282.34L415.06 280.63L414.19 278.92L413.09 277.19L411.61 275.58L410.39 274.34L406.18 272.18L404.07 271.18L402.30 270.28L399.20 269.11L397.05 268.41L392.71 267.25L387.93 266.01L384.62 265.16L381.76 264.53L377.29 263.26L374.18 262.03L371.32 259.86L368.87 257.52L367.35 255.98L364.89 253.41L362.35 254.92L359.87 252.35L358.74 250.35L356.53 257.07L354.98 262.85L354.58 264.36L354.16 265.96L353.74 267.54L353.30 269.17L352.87 270.80L352.46 272.34L350.12 281.12L348.06 292.48L347.10 297.84L346.61 300.57L344.91 310.06L345.37 324.34L346.06 331.21L345.64 342.13L344.63 348.78L344.11 350.32L345.28 350.57L346.17 357.79L346.46 360.12L346.71 362.15L345.89 369.73L349.57 372.08L351.33 372.39L354.27 373.31L357.83 380.52L357.65 385.47L357.62 388.16L357.48 390.36L357.37 392.60L357.26 394.85L357.22 396.40L357.81 399.40L359.83 401.24L363.53 402.99L367.23 404.73L372.48 407.04L374.23 407.85L377.40 409.43L381.31 412.67L388.03 417.72L395.05 423.87L396.33 425.63L397.74 427.64L399.33 430.30L402.15 435.65L403.31 437.55L406.72 442.65L408.04 444.88L409.87 447.05L411.07 448.48L414.56 452.62L415.66 454.13L416.57 455.46L418.36 457.79L421.05 460.92L423.74 464.05L425.89 466.39L429.34 470.66L430.63 472.15L431.92 473.65L435.30 477.25L436.88 479.42L437.92 480.82L440.75 484.22L442.09 485.55L444.09 487.77L445.74 489.93L447.03 491.13L448.31 492.33L452.09 494.39L454.07 495.09L456.75 496.03L459.56 495.71L461.90 497.34L465.28 501.20L469.07 507.21L470.29 506.15L475.11 502.00L480.21 490.13L482.23 485.42L482.95 473.31L483.19 469.31L483.64 462.02L484.36 450.30L485.36 441.63L486.97 437.81L491.00 428.37L491.78 426.04L496.64 411.44L507.39 398.33L510.40 394.69L506.55 395.71L481.07 384.75L478.71 382.41L481.41 372.40L480.22 370.83L478.53 367.95L480.59 366.06L478.03 361.70L473.86 356.81L472.82 349.75L476.18 344.05L476.54 339.90L478.38 330.98L479.06 327.09L479.74 323.21L480.61 315.46L478.16 298.40L476.44 290.59L475.08 284.39L481.78 281.13L487.23 278.42L486.29 276.12L491.50 274.28L495.39 272.91L498.20 272.07L499.88 271.76L502.41 274.86L504.46 274.38L508.32 274.51L510.30 274.55L512.31 274.40L514.55 274.51L516.69 274.63L516.49 270.64L515.54 268.27L514.41 266.22L513.64 264.60L512.84 262.89L511.78 260.66L509.60 256.83L507.53 254.71L505.19 252.63L504.81 250.38L505.80 246.48L511.64 222.86L511.10 219.20L510.47 216.91L508.65 216.38L509.01 212.34L512.26 212.12L515.58 211.98L518.10 212.20L520.80 212.31L523.80 212.45L525.62 213.17L526.19 210.06Z" data-ward="17" /><path id="ward-16" class="ward" d="M454.07 495.09L452.09 494.39L448.31 492.33L447.03 491.13L445.74 489.93L444.09 487.77L442.09 485.55L440.75 484.22L437.92 480.82L436.88 479.42L435.30 477.25L431.92 473.65L430.63 472.15L429.34 470.66L425.89 466.39L423.74 464.05L421.05 460.92L418.36 457.79L416.57 455.46L415.66 454.13L414.56 452.62L411.07 448.48L409.87 447.05L408.04 444.88L406.72 442.65L403.31 437.55L402.15 435.65L399.33 430.30L397.74 427.64L396.33 425.63L395.05 423.87L388.03 417.72L381.31 412.67L377.40 409.43L374.23 407.85L372.48 407.04L367.23 404.73L363.53 402.99L359.83 401.24L357.81 399.40L357.22 396.40L357.26 394.85L357.37 392.60L357.48 390.36L357.62 388.16L357.65 385.47L357.83 380.52L354.27 373.31L351.33 372.39L349.57 372.08L345.89 369.73L344.92 373.72L343.59 379.20L342.69 382.20L341.88 384.88L340.85 387.40L339.43 390.88L338.97 392.82L338.53 394.69L338.07 396.63L337.61 398.56L337.23 400.62L336.64 402.27L336.08 404.16L335.53 406.07L334.95 408.04L334.38 410.01L333.54 412.89L329.23 423.71L326.19 431.25L322.78 441.77L322.06 445.45L321.57 447.97L321.13 450.19L320.70 452.29L319.54 454.99L318.90 456.49L318.28 457.92L317.78 459.30L316.83 461.95L316.14 464.48L315.45 466.98L314.15 470.27L313.21 472.65L310.94 477.78L309.62 480.72L308.12 484.04L307.35 485.75L305.99 488.72L305.38 490.06L304.44 492.10L305.65 499.83L304.57 509.13L302.82 518.36L296.33 523.65L292.33 527.49L284.02 531.20L282.68 531.95L282.60 531.93L276.07 532.68L266.14 533.82L262.10 534.33L258.41 534.75L249.65 535.76L241.56 538.85L236.19 539.24L233.35 540.64L228.58 544.10L226.85 547.09L226.39 549.07L224.91 553.86L223.87 557.10L222.08 559.49L221.93 563.37L221.19 564.82L222.28 569.56L224.02 572.73L225.02 576.46L225.17 580.74L225.15 585.51L227.71 588.83L232.26 588.50L233.98 588.05L236.74 590.49L240.88 595.05L244.24 598.74L245.37 600.20L247.50 602.98L251.69 607.85L252.92 609.69L253.91 611.17L255.36 613.34L256.55 616.70L257.22 618.58L257.76 620.13L258.54 622.33L259.23 624.27L259.75 625.77L260.48 627.81L262.03 632.80L263.05 636.05L263.49 638.60L265.86 639.30L267.90 639.03L271.04 638.51L272.93 638.34L275.16 638.14L276.79 638.18L278.91 638.41L280.74 638.73L282.30 638.93L285.30 639.31L288.50 639.79L291.66 640.17L294.14 640.57L297.04 641.14L298.53 641.36L302.11 641.62L305.95 641.25L308.82 640.66L311.79 640.48L315.62 640.35L317.26 639.92L318.93 639.27L320.13 638.10L320.26 634.57L320.51 632.29L321.38 628.92L322.60 627.49L325.45 625.48L328.96 624.35L332.99 623.44L336.13 622.66L338.35 622.01L339.62 620.85L340.24 618.52L339.78 614.53L341.06 611.68L342.76 607.98L343.48 606.63L346.43 602.97L347.91 601.59L348.95 600.18L351.63 595.61L352.82 593.45L354.84 590.37L356.89 589.88L358.53 589.58L359.66 588.60L360.65 586.59L361.57 584.19L362.32 582.02L362.68 580.36L358.45 576.88L355.37 573.88L354.18 572.45L351.62 568.49L350.36 567.11L347.05 564.91L345.22 563.02L344.62 561.05L343.29 554.83L342.63 550.21L342.30 548.34L341.42 544.83L341.32 542.95L342.32 538.08L344.56 538.90L347.08 540.41L350.01 542.23L352.57 543.82L354.26 544.93L356.77 546.59L358.72 547.84L360.47 548.96L363.48 551.20L364.82 552.32L366.45 553.78L367.98 555.35L369.51 556.84L371.40 558.69L373.42 560.66L375.02 562.02L377.10 563.44L380.53 565.15L384.41 566.82L385.85 567.32L389.06 568.44L391.57 569.39L393.26 569.94L396.75 570.88L399.25 571.55L400.83 571.98L402.86 572.53L405.71 573.30L408.88 574.16L437.91 542.78L454.93 516.02L461.35 512.24L467.26 508.77L469.07 507.21L465.28 501.20L461.90 497.34L459.56 495.71L456.75 496.03L454.07 495.09Z" data-ward="16" /><path id="ward-4" class="ward" d="M537.98 11.13L539.14 8.12L534.78 6.46L530.42 4.80L530.48 2.92L530.42 0.00L525.84 2.07L524.12 2.84L520.39 4.67L516.57 6.55L514.97 7.19L511.34 8.83L508.45 10.12L506.64 10.93L503.83 11.10L499.83 11.35L497.43 11.50L495.44 10.74L493.64 10.06L489.66 8.87L485.85 7.39L483.01 6.85L480.54 7.59L478.04 8.33L473.92 8.70L468.52 9.14L464.82 9.45L461.49 9.62L458.08 9.81L449.99 9.36L448.06 10.84L444.40 13.64L442.64 14.81L438.58 17.06L437.16 18.39L433.19 20.62L421.45 29.85L418.54 32.42L416.76 33.99L414.50 36.28L412.39 38.41L409.99 40.84L407.59 43.75L403.00 45.15L401.60 45.58L398.67 46.48L397.23 46.92L395.73 47.38L392.74 48.33L389.90 49.23L388.46 49.68L385.67 50.57L381.88 51.41L379.24 51.99L374.75 52.98L370.46 53.92L363.02 55.56L361.57 55.88L348.75 60.98L346.85 61.79L334.54 66.57L326.63 69.02L321.75 69.08L319.47 69.88L315.97 71.11L314.34 71.68L312.75 72.23L309.70 73.30L306.65 73.99L303.58 74.87L302.01 75.14L296.58 76.07L289.93 75.66L285.35 78.00L285.25 79.91L288.22 87.21L290.31 92.56L291.14 94.59L292.19 97.06L292.84 100.07L293.25 102.79L294.49 105.90L296.50 106.36L299.40 105.04L302.24 104.42L304.73 105.89L306.63 106.73L309.16 107.83L310.75 108.16L315.38 107.34L317.68 106.94L320.19 106.49L323.64 105.89L326.81 105.33L329.99 104.78L332.71 104.30L335.15 103.90L338.28 103.83L342.10 103.76L346.66 104.04L350.38 106.14L352.09 107.12L354.05 108.31L356.01 109.59L358.99 111.55L362.44 113.82L365.05 115.54L367.42 117.05L368.78 117.93L371.37 119.58L372.81 120.50L374.79 121.77L376.44 122.83L378.48 124.17L379.62 125.61L381.35 127.94L383.17 130.40L384.68 132.44L386.97 133.97L390.36 131.99L391.69 131.20L394.91 129.28L396.13 127.97L397.33 126.68L399.35 124.51L400.80 122.94L402.13 121.51L405.53 118.12L407.74 115.96L409.54 114.14L425.87 110.19L428.37 109.08L430.18 111.43L432.50 112.95L435.62 112.97L438.25 112.12L440.29 112.49L440.02 114.24L440.23 118.25L440.06 120.43L440.76 123.81L441.06 125.27L441.42 126.97L442.49 129.55L445.02 131.71L446.44 132.19L448.49 132.78L451.02 133.65L453.09 134.98L454.93 136.26L456.22 137.14L457.69 137.66L460.64 138.17L462.16 139.27L464.40 140.89L470.55 145.55L472.07 147.15L473.05 149.75L472.85 152.74L472.87 154.36L474.47 156.35L475.23 157.67L475.34 159.63L475.27 161.50L474.39 165.73L474.48 167.22L477.08 166.99L479.55 166.74L481.03 166.56L483.48 166.81L485.98 166.90L487.98 166.81L490.15 166.65L493.71 166.37L495.54 166.24L497.51 166.10L499.77 165.46L501.99 164.76L503.88 164.03L506.31 163.32L508.47 162.21L511.09 160.85L512.81 158.07L513.98 157.05L515.53 155.72L517.20 153.96L518.67 152.13L519.65 150.83L521.00 148.19L522.01 146.24L526.51 141.45L524.53 139.63L522.54 138.65L520.06 136.36L517.53 134.41L516.15 133.39L514.24 131.75L513.06 130.83L509.28 128.07L508.85 126.22L510.67 123.52L512.26 120.95L513.17 119.39L514.96 116.17L516.34 113.63L518.31 110.39L520.01 107.20L521.03 105.35L522.11 103.39L523.24 100.67L525.99 94.57L526.79 93.16L527.74 91.47L529.48 88.47L531.42 85.61L533.61 83.24L538.88 85.93L542.05 88.24L545.54 90.37L547.24 91.32L550.10 93.12L551.85 94.23L557.24 97.37L560.50 98.67L562.32 99.39L563.74 98.82L563.28 96.24L563.59 92.64L563.22 90.21L562.72 88.12L561.71 81.12L561.87 78.57L561.85 75.98L561.59 74.24L561.14 72.53L560.11 69.59L559.27 67.28L558.47 64.94L557.40 60.75L557.10 59.28L556.27 56.03L554.17 55.38L552.51 54.86L550.89 54.73L547.16 54.97L545.54 54.92L543.21 53.73L542.08 51.72L541.23 49.42L540.13 46.74L539.30 42.99L540.36 38.84L540.78 36.55L541.06 35.00L540.32 31.61L539.70 29.34L538.95 26.25L538.78 22.83L538.33 19.39L536.67 16.25L536.91 13.89L537.98 11.13Z" data-ward="4" /></svg>