<svg viewBox="0 0 1000.00 662.00" xmlns="http://www.w3.org/2000/svg"><style>.ward { fill: #e2e8f0; stroke: #fff; stroke-width: 0.5px; } .ward:hover { fill: #cbd5e1; }</style><path id="ward-9" class="ward" d="M997.17 291.09L998.38 288.17L998.90 284.40L999.53 279.83L999.71 277.99L1000.00 274.94L998.23 272.07L995.85 270.31L994.13 269.42L990.86 268.28L984.05 267.46L983.77 267.43L983.55 267.40L981.77 267.59L977.59 273.61L975.07 277.37L976.09 280.19L976.18 280.69L976.20 281.84L976.01 286.29L975.89 286.55L975.46 287.39L975.15 287.91L973.82 289.23L972.21 290.84L972.20 290.85L970.13 291.46L964.90 292.16L963.92 292.27L963.11 292.22L960.03 292.97L959.46 293.04L956.30 293.01L950.98 290.91L939.34 292.29L929.63 296.40L926.12 299.64L923.87 301.70L921.38 303.97L919.94 305.29L917.37 306.03L915.88 306.72L914.27 308.44L913.34 309.44L910.55 310.80L907.75 312.16L897.41 308.78L893.92 307.64L887.89 305.66L885.99 307.16L883.28 309.14L880.91 310.87L879.86 311.59L876.42 313.93L868.51 316.94L859.66 320.29L858.65 321.33L858.37 323.95L852.06 329.93L845.91 335.76L845.19 336.99L843.17 338.41L842.35 339.19L841.51 340.00L839.41 341.33L839.05 341.31L837.69 341.35L837.48 341.31L833.58 342.31L837.65 343.16L839.31 342.88L840.36 343.36L841.94 343.53L842.87 342.16L844.68 342.39L846.12 342.66L851.16 342.88L855.11 344.20L853.90 348.15L852.19 351.78L851.00 351.46L848.24 350.44L845.70 349.62L839.76 348.21L834.96 347.46L831.56 347.66L829.57 348.73L828.58 351.32L828.56 352.77L829.07 355.10L829.91 358.14L830.26 361.61L830.07 363.37L829.50 367.11L828.96 369.30L828.42 370.79L827.88 371.89L826.65 372.87L824.92 374.25L822.66 374.31L821.17 373.97L820.09 373.57L817.45 372.58L814.67 371.41L809.98 369.45L808.42 369.17L806.82 368.88L804.56 368.50L802.72 368.83L799.76 369.54L797.98 371.58L797.25 373.33L795.92 375.18L793.03 377.93L790.85 379.79L788.55 382.36L788.10 383.84L787.60 386.10L787.28 387.47L786.82 389.87L785.59 392.58L784.43 394.20L781.44 395.80L779.85 396.65L777.73 397.50L775.97 398.32L773.56 400.17L800.88 396.68L801.22 398.29L801.56 399.41L801.93 400.74L802.72 402.17L804.10 404.38L805.85 406.68L807.00 408.51L807.65 409.85L808.60 411.99L809.42 412.83L810.48 413.57L811.63 414.42L813.78 415.32L816.49 415.34L818.95 412.65L819.58 411.31L821.70 408.55L824.41 408.02L825.66 407.86L826.99 407.99L828.04 408.60L830.06 410.24L832.04 411.77L833.66 413.18L834.92 414.32L836.30 415.90L837.39 417.57L839.18 420.33L840.43 422.03L842.36 423.05L844.01 423.93L845.10 424.51L847.34 426.27L849.25 427.94L851.57 430.09L862.87 438.74L863.49 440.01L869.89 441.97L872.77 443.42L874.86 444.73L876.58 446.27L889.48 460.81L892.68 462.03L897.70 464.13L901.59 465.90L905.34 467.99L908.28 471.21L911.08 475.14L912.01 476.42L913.42 478.64L915.69 479.94L916.44 477.45L917.76 473.08L918.38 471.03L919.34 467.88L919.94 465.88L921.22 461.65L923.61 459.19L925.40 457.87L928.08 455.89L930.79 453.89L933.46 451.91L935.31 450.54L936.29 449.29L937.41 448.77L939.75 447.67L941.35 446.92L943.90 445.48L947.14 443.64L948.44 442.90L950.38 441.80L961.49 429.69L962.02 427.95L962.85 426.83L964.64 424.44L964.80 421.98L964.90 420.43L965.01 418.71L963.94 417.27L964.68 416.05L967.70 411.07L968.23 409.88L969.05 408.22L969.79 406.73L970.69 404.91L969.69 402.02L969.12 400.37L968.08 397.37L967.33 395.45L966.65 393.60L965.64 390.79L963.99 386.79L963.76 385.08L962.78 375.37L962.58 373.43L962.38 371.49L962.21 369.78L961.92 366.88L961.72 364.90L961.50 362.79L961.35 361.27L960.97 357.51L960.85 355.65L960.68 353.03L960.11 344.01L960.01 342.67L959.80 339.90L959.92 338.42L960.22 337.14L960.51 335.32L961.11 333.02L961.80 330.42L962.42 328.19L962.95 326.28L963.34 324.88L964.71 324.76L969.07 321.30L976.82 315.14L980.15 312.49L982.34 309.48L983.96 307.26L986.91 303.23L987.84 301.95L988.86 300.55L991.36 297.30L993.88 294.04L997.17 291.09Z" data-ward="9" /><path id="ward-2" class="ward" d="M227.70 32.94L226.48 31.39L225.84 30.77L224.95 29.95L224.91 29.92L224.84 29.87L224.35 29.52L223.32 29.09L221.94 28.50L221.17 28.17L221.01 28.12L220.53 27.96L219.09 27.50L218.35 27.26L218.31 27.25L216.98 26.80L216.34 26.58L214.78 26.10L214.65 26.07L214.54 26.01L214.48 25.98L213.23 25.32L211.18 24.87L209.71 23.83L208.89 22.22L208.32 21.73L208.30 21.72L207.33 21.12L205.63 20.41L204.61 19.42L202.80 17.83L201.10 16.35L199.79 15.20L198.61 14.10L196.90 12.49L195.08 10.79L193.45 9.26L191.52 7.45L189.90 5.93L188.73 4.83L187.65 3.82L186.54 2.78L185.43 1.74L183.57 0.00L182.38 0.68L181.31 1.28L179.81 2.13L178.81 2.70L179.74 4.60L180.48 6.37L181.22 8.35L181.47 9.59L181.48 10.74L181.47 12.74L179.50 13.48L177.64 13.76L176.40 16.51L175.38 18.52L173.48 18.92L172.98 21.94L172.10 24.47L171.38 27.28L170.64 29.26L171.44 30.51L174.29 32.53L176.71 34.82L177.50 36.04L175.28 38.14L173.75 39.61L172.71 40.66L171.22 42.61L170.06 45.47L170.16 48.04L171.93 50.32L172.90 51.44L174.00 52.30L175.41 53.56L177.43 55.25L179.47 56.67L181.85 57.62L184.33 58.57L186.83 59.85L188.56 60.55L190.65 61.87L191.65 62.76L192.59 63.91L193.64 65.17L195.57 67.04L196.63 68.59L197.37 71.59L198.10 74.40L200.06 76.96L202.66 78.48L205.43 79.92L208.22 80.89L210.48 82.69L212.64 83.48L214.25 84.25L215.17 86.67L217.26 88.53L219.05 89.31L220.96 90.23L223.24 91.74L226.10 92.65L228.85 94.07L231.09 96.17L233.62 97.84L235.62 100.22L237.92 101.99L240.22 104.04L242.35 106.15L244.57 108.23L246.79 109.97L248.08 110.69L250.81 111.84L253.32 113.50L255.91 115.12L257.35 116.65L259.51 118.79L261.30 120.68L262.19 121.99L262.69 123.17L263.00 124.50L263.85 125.68L263.96 128.45L264.04 131.17L261.23 132.50L258.43 133.59L255.50 134.19L252.66 135.19L249.82 135.94L246.92 136.41L245.60 136.85L242.70 138.17L240.97 139.11L242.31 141.85L243.74 144.54L244.86 147.03L245.56 149.98L246.48 152.85L247.91 154.44L250.89 153.92L252.23 154.53L252.74 157.60L251.86 160.26L250.50 161.34L249.91 162.71L251.14 164.01L251.85 166.40L253.34 168.00L254.31 169.57L255.88 172.13L257.43 174.77L258.97 176.81L261.99 176.21L263.43 176.23L264.35 179.18L264.80 182.20L265.26 185.23L265.00 188.20L264.62 191.22L264.71 194.21L264.97 197.28L266.03 200.17L267.61 202.76L268.60 204.43L269.56 206.56L270.41 209.82L287.21 199.69L287.79 197.65L289.28 192.92L290.15 188.13L291.72 188.04L293.27 189.82L294.92 190.98L296.69 192.30L298.40 193.06L300.27 193.10L302.18 193.08L303.72 193.25L305.43 193.89L307.28 195.33L309.08 196.94L311.02 199.15L312.56 202.23L314.16 204.77L315.97 206.87L317.84 208.39L319.77 209.58L321.45 211.10L323.23 212.44L324.98 213.05L326.74 210.05L328.54 205.41L329.68 200.74L331.25 195.88L332.61 193.60L334.10 192.08L336.12 193.26L338.62 194.39L341.39 195.12L344.39 198.40L348.86 200.86L352.08 200.90L354.34 201.35L355.81 201.90L356.97 204.37L358.89 205.34L361.73 203.31L365.93 199.91L369.91 196.07L373.46 199.82L375.31 199.30L379.33 195.56L383.14 191.84L384.77 192.98L388.63 196.58L394.03 195.05L399.29 194.18L403.36 196.12L408.26 198.07L413.51 199.41L418.10 200.77L419.23 201.62L420.18 202.66L421.21 203.56L422.60 203.80L425.49 203.90L425.55 199.04L425.50 192.38L424.45 190.83L423.46 190.23L423.40 186.48L423.68 182.79L423.79 181.36L423.51 178.44L422.52 176.79L421.48 171.50L420.49 168.84L418.69 166.55L412.14 159.11L403.82 152.86L388.55 146.50L388.70 144.77L389.20 142.66L390.07 140.70L391.25 139.24L393.14 138.37L394.12 136.71L393.70 134.58L393.96 132.40L394.44 130.43L394.71 128.37L395.31 126.49L396.05 124.70L396.81 122.32L396.11 121.21L394.25 122.13L392.08 122.18L390.78 122.11L387.87 122.24L386.05 122.62L384.26 122.62L382.79 123.13L381.24 123.67L379.46 123.28L377.39 123.51L376.22 123.64L373.27 121.06L368.32 117.35L366.47 116.21L365.32 114.97L364.12 113.75L363.10 112.39L361.22 109.95L359.41 107.61L358.03 105.93L356.74 104.35L354.40 102.37L351.77 99.05L349.24 91.83L339.67 78.68L332.96 77.56L331.33 77.35L328.77 77.07L322.96 76.60L321.33 75.62L319.32 74.41L317.80 73.32L315.92 72.54L310.94 70.61L307.22 74.48L305.46 75.55L303.35 76.84L301.84 77.75L299.87 78.95L298.87 79.56L296.53 78.26L294.19 76.96L293.36 75.84L291.61 73.45L290.27 71.62L289.03 69.94L289.44 68.43L290.05 66.40L290.45 65.06L288.26 64.86L287.20 66.24L285.50 66.59L281.92 66.43L279.56 66.32L277.79 67.07L276.66 66.82L275.34 66.53L274.35 64.79L272.13 63.62L269.59 62.27L267.63 61.20L265.66 60.11L266.16 58.67L265.93 57.16L265.63 55.24L265.28 52.91L263.37 51.65L260.97 50.08L259.15 49.05L258.13 48.47L255.75 47.11L254.65 46.43L253.18 45.51L251.86 44.68L250.01 43.52L248.48 43.25L247.49 42.28L243.56 41.02L238.99 39.56L237.51 38.61L235.07 37.08L235.85 35.15L237.15 33.05L234.53 31.41L232.96 30.96L232.17 32.21L231.38 33.48L228.93 33.69L227.70 32.94Z" data-ward="2" /><path id="ward-4" class="ward" d="M422.69 91.12L421.23 90.47L414.52 93.48L414.01 95.18L412.89 98.85L412.01 101.72L411.09 104.75L410.74 105.90L409.08 107.45L406.32 110.02L403.87 112.29L401.18 114.80L399.49 117.33L397.42 120.43L396.11 121.21L396.81 122.32L396.05 124.70L395.31 126.49L394.71 128.37L394.44 130.43L393.96 132.40L393.70 134.58L394.12 136.71L393.14 138.37L391.25 139.24L390.07 140.70L389.20 142.66L388.70 144.77L388.55 146.50L403.82 152.86L412.14 159.11L418.69 166.55L420.49 168.84L421.48 171.50L422.52 176.79L423.51 178.44L423.79 181.36L423.68 182.79L423.40 186.48L423.46 190.23L424.45 190.83L425.50 192.38L425.55 199.04L425.49 203.90L427.71 203.97L429.70 204.54L431.25 205.13L432.95 206.09L434.40 206.83L435.75 206.89L437.25 207.01L439.29 207.34L442.28 207.78L443.43 206.97L443.64 205.81L443.92 204.51L444.13 203.23L444.52 200.53L444.68 199.19L445.39 198.03L447.20 196.51L449.62 196.70L452.02 197.23L455.32 198.08L456.89 198.67L459.08 199.53L460.96 200.12L463.30 201.12L464.55 201.85L467.36 202.13L470.50 202.24L474.47 203.83L476.34 204.94L479.37 208.20L480.59 209.14L482.65 210.58L486.47 212.16L488.20 212.35L489.46 212.76L490.97 212.75L492.90 212.95L494.25 212.72L497.44 212.04L500.00 211.46L505.39 211.73L508.93 211.89L511.17 212.27L513.96 213.36L517.71 214.13L519.67 214.10L521.23 213.87L523.32 213.86L523.84 215.96L523.67 218.22L523.68 221.71L526.47 227.28L527.57 228.24L530.12 229.92L531.74 231.24L532.97 233.99L533.25 236.04L533.50 238.00L534.05 240.88L533.64 242.96L532.04 247.32L531.14 251.86L530.56 253.79L529.77 256.45L530.18 257.67L531.49 258.11L533.32 258.56L534.76 258.85L536.17 259.08L537.53 259.66L538.31 260.71L539.49 261.83L541.02 261.89L542.51 261.39L543.77 260.70L546.37 258.71L547.50 257.87L547.54 256.69L546.84 254.77L545.15 250.18L544.61 248.96L543.32 245.74L543.89 243.45L544.77 240.82L545.90 238.66L546.65 237.62L547.42 235.78L547.48 233.83L547.19 232.06L546.97 230.71L545.96 227.43L545.29 225.25L544.97 221.54L545.25 219.70L545.63 216.47L546.30 215.14L548.45 215.35L550.52 215.48L552.94 215.57L554.44 216.27L556.06 216.55L557.77 216.84L559.66 215.45L561.88 212.96L562.86 211.40L563.77 210.05L564.76 208.77L565.89 207.44L566.76 206.23L567.50 205.03L568.26 203.44L568.69 202.17L569.21 201.06L570.22 198.88L571.48 195.90L572.24 193.12L573.50 191.38L575.20 190.84L576.68 190.13L578.31 189.35L575.84 185.16L577.69 182.86L579.07 180.88L581.34 178.09L582.09 176.38L582.44 173.75L583.05 172.48L583.77 171.17L572.98 153.72L571.59 151.99L566.75 145.73L565.17 144.14L566.37 143.39L568.43 142.50L569.28 141.70L567.57 139.74L567.05 138.17L566.12 137.43L566.03 137.26L566.00 137.23L565.99 137.21L565.87 137.07L565.32 135.59L564.55 133.82L565.03 131.40L564.17 130.46L562.34 128.67L561.24 127.24L560.48 126.22L558.84 125.04L558.60 123.31L558.19 120.23L558.04 117.98L557.78 115.99L556.41 113.27L554.86 112.42L553.99 111.59L550.49 108.36L548.97 106.85L547.86 105.82L545.64 103.78L544.51 102.96L542.49 101.48L541.18 99.64L539.87 97.80L537.59 94.80L536.28 93.07L534.96 93.40L533.82 93.68L532.58 93.99L531.01 94.12L525.82 96.22L520.80 98.25L520.64 99.40L520.47 100.58L519.66 101.78L518.85 103.00L517.68 104.02L516.21 105.29L515.15 105.83L512.07 107.37L510.53 108.12L508.26 109.23L506.44 110.86L504.40 112.67L501.96 114.85L500.82 116.59L499.03 118.72L497.20 120.90L493.65 121.58L492.32 121.84L489.94 121.85L488.92 121.94L485.96 120.39L480.54 117.60L478.89 116.89L475.75 115.46L472.52 114.10L469.81 111.91L467.38 109.94L463.81 108.03L460.66 106.35L459.66 105.82L457.65 105.00L454.88 103.86L452.79 100.28L450.30 98.41L448.59 97.23L448.53 97.20L448.45 97.19L447.47 97.06L443.79 97.52L441.82 95.65L440.97 95.09L440.86 95.02L440.41 94.75L439.70 94.62L439.29 94.51L437.42 93.93L437.14 93.84L434.67 93.08L434.63 93.06L432.54 92.40L431.48 92.12L430.02 91.58L429.85 91.52L428.96 91.15L427.46 91.08L425.36 91.16L425.24 91.16L422.69 91.12Z" data-ward="4" /><path id="ward-1" class="ward" d="M181.22 8.35L180.48 6.37L179.74 4.60L178.81 2.70L177.04 3.82L176.00 4.43L173.14 6.16L172.00 6.85L171.01 7.45L169.98 8.07L167.24 8.42L166.07 8.57L164.22 8.80L162.15 8.41L160.18 8.03L158.09 7.64L154.39 6.93L152.70 7.46L150.01 6.72L148.88 6.29L147.62 5.80L144.70 4.86L143.11 5.30L141.45 6.69L139.12 8.19L137.90 8.44L136.21 8.60L135.17 9.30L135.15 11.86L131.46 12.54L128.98 13.07L127.45 13.39L124.20 13.95L121.76 14.81L119.64 15.03L117.37 15.32L114.72 14.74L113.58 14.41L109.72 13.32L106.44 12.27L105.35 11.92L103.58 11.67L100.16 11.19L98.68 11.21L96.35 11.04L94.94 11.36L92.21 11.24L89.54 11.50L87.71 11.78L86.41 11.87L82.24 12.51L78.73 13.05L76.52 13.78L75.26 13.92L72.43 14.24L69.54 14.35L68.27 14.33L65.24 14.30L63.84 14.30L61.76 14.30L61.49 18.02L60.63 22.29L60.23 23.81L59.51 26.58L59.35 27.97L42.78 37.16L41.09 38.10L39.22 36.66L37.44 36.56L36.63 37.55L35.36 39.15L34.70 40.18L33.53 42.09L32.80 43.26L32.00 44.56L39.16 50.87L33.18 58.61L31.28 58.75L30.07 58.83L28.56 59.90L27.24 60.90L25.18 61.13L23.76 62.58L23.01 64.59L22.29 66.54L22.76 68.18L23.08 69.28L23.30 71.70L22.97 73.14L23.93 76.08L22.61 80.28L23.80 82.41L20.73 84.96L18.05 87.18L16.02 88.78L13.24 90.90L11.51 93.26L11.70 95.07L11.85 96.55L12.25 98.40L13.49 102.75L13.89 105.52L13.52 108.07L13.36 109.23L11.86 115.04L10.69 119.59L9.25 125.19L8.30 128.90L8.85 130.19L9.89 132.61L11.49 136.31L10.24 139.35L8.37 143.48L7.36 145.71L6.58 147.65L6.15 148.70L4.67 149.59L1.37 151.59L0.00 152.42L1.73 157.85L3.21 162.47L5.89 163.98L7.39 165.91L10.10 165.11L11.66 163.16L12.93 161.57L17.30 157.93L20.59 160.94L22.18 162.40L25.94 165.84L29.11 168.75L31.91 171.32L33.98 173.15L35.81 174.78L38.90 177.93L40.47 179.53L42.04 181.13L45.11 184.26L46.67 185.85L47.97 187.77L49.83 190.50L51.66 193.19L52.43 194.50L53.29 195.96L54.87 198.66L55.65 201.13L57.80 202.46L58.63 201.53L59.44 200.62L60.43 199.51L61.57 198.25L63.47 196.65L67.46 197.00L69.68 197.20L72.62 196.65L76.05 197.94L79.41 198.42L83.04 198.55L86.23 198.56L89.34 198.70L92.41 199.32L95.61 199.65L98.54 198.85L101.97 197.48L104.86 196.69L108.07 195.48L108.59 193.97L108.81 192.59L108.71 190.94L108.30 189.40L107.82 187.94L107.10 186.48L106.36 184.94L105.56 183.30L104.79 181.62L104.46 180.40L103.98 178.60L103.62 176.76L103.32 174.67L103.00 173.17L102.59 171.18L101.90 168.27L101.46 165.31L102.84 163.18L104.76 160.90L106.93 159.50L109.90 158.97L113.01 158.88L114.18 160.28L114.68 161.95L116.03 161.50L116.47 159.84L117.76 160.52L118.07 162.01L119.96 161.84L119.52 160.23L121.20 159.17L122.87 159.77L125.65 160.87L128.18 162.50L130.98 163.60L130.87 161.87L131.65 160.59L133.05 160.98L134.53 160.53L135.92 161.18L137.29 161.90L138.22 161.25L140.24 159.81L141.04 162.77L141.04 164.28L139.35 166.83L141.21 167.67L143.38 168.58L144.82 167.99L145.98 167.02L148.24 164.94L150.47 162.83L153.42 163.33L155.41 164.85L157.07 164.10L158.79 166.51L160.81 168.78L163.19 170.60L165.16 172.76L166.99 175.00L169.03 177.30L170.14 178.28L172.65 179.92L171.32 183.25L169.78 186.63L169.21 193.50L169.03 195.04L170.01 197.25L172.03 199.54L174.09 201.71L175.41 203.66L176.81 206.31L179.12 208.31L181.58 210.08L182.83 212.35L183.25 215.10L183.11 218.24L183.64 221.73L184.98 221.00L186.80 220.51L188.38 219.95L190.25 219.25L192.41 217.71L193.60 217.31L195.28 217.02L198.68 216.64L202.45 218.89L205.34 221.89L209.22 226.37L211.40 230.27L212.01 235.03L213.63 239.06L216.06 242.10L219.16 243.68L220.63 244.88L221.90 245.88L223.21 246.31L223.88 248.01L225.52 248.31L226.79 249.56L228.04 251.35L228.01 252.86L230.01 253.51L232.57 254.19L235.43 254.36L236.45 252.19L237.51 251.50L239.14 250.40L240.44 250.46L242.25 250.60L243.87 251.00L244.67 251.83L246.47 252.05L247.60 251.25L248.43 250.34L249.59 250.01L251.03 250.18L252.45 247.68L253.35 246.79L254.67 246.14L255.38 244.94L254.88 243.91L253.15 242.27L252.77 240.60L253.36 239.41L254.86 237.52L256.53 236.26L259.17 234.77L261.67 234.03L263.29 233.08L263.27 231.20L263.57 228.25L263.91 225.26L263.47 222.43L262.16 219.84L261.40 218.57L261.43 216.88L263.72 215.84L265.88 214.48L266.49 213.20L268.22 211.17L270.41 209.82L269.56 206.56L268.60 204.43L267.61 202.76L266.03 200.17L264.97 197.28L264.71 194.21L264.62 191.22L265.00 188.20L265.26 185.23L264.80 182.20L264.35 179.18L263.43 176.23L261.99 176.21L258.97 176.81L257.43 174.77L255.88 172.13L254.31 169.57L253.34 168.00L251.85 166.40L251.14 164.01L249.91 162.71L250.50 161.34L251.86 160.26L252.74 157.60L252.23 154.53L250.89 153.92L247.91 154.44L246.48 152.85L245.56 149.98L244.86 147.03L243.74 144.54L242.31 141.85L240.97 139.11L242.70 138.17L245.60 136.85L246.92 136.41L249.82 135.94L252.66 135.19L255.50 134.19L258.43 133.59L261.23 132.50L264.04 131.17L263.96 128.45L263.85 125.68L263.00 124.50L262.69 123.17L262.19 121.99L261.30 120.68L259.51 118.79L257.35 116.65L255.91 115.12L253.32 113.50L250.81 111.84L248.08 110.69L246.79 109.97L244.57 108.23L242.35 106.15L240.22 104.04L237.92 101.99L235.62 100.22L233.62 97.84L231.09 96.17L228.85 94.07L226.10 92.65L223.24 91.74L220.96 90.23L219.05 89.31L217.26 88.53L215.17 86.67L214.25 84.25L212.64 83.48L210.48 82.69L208.22 80.89L205.43 79.92L202.66 78.48L200.06 76.96L198.10 74.40L197.37 71.59L196.63 68.59L195.57 67.04L193.64 65.17L192.59 63.91L191.65 62.76L190.65 61.87L188.56 60.55L186.83 59.85L184.33 58.57L181.85 57.62L179.47 56.67L177.43 55.25L175.41 53.56L174.00 52.30L172.90 51.44L171.93 50.32L170.16 48.04L170.06 45.47L171.22 42.61L172.71 40.66L173.75 39.61L175.28 38.14L177.50 36.04L176.71 34.82L174.29 32.53L171.44 30.51L170.64 29.26L171.38 27.28L172.10 24.47L172.98 21.94L173.48 18.92L175.38 18.52L176.40 16.51L177.64 13.76L179.50 13.48L181.47 12.74L181.48 10.74L181.47 9.59L181.22 8.35Z" data-ward="1" /><path id="ward-20" class="ward" d="M114.18 160.28L113.01 158.88L109.90 158.97L106.93 159.50L104.76 160.90L102.84 163.18L101.46 165.31L101.90 168.27L102.59 171.18L103.00 173.17L103.32 174.67L103.62 176.76L103.98 178.60L104.46 180.40L104.79 181.62L105.56 183.30L106.36 184.94L107.10 186.48L107.82 187.94L108.30 189.40L108.71 190.94L108.81 192.59L108.59 193.97L108.07 195.48L104.86 196.69L101.97 197.48L98.54 198.85L95.61 199.65L92.41 199.32L89.34 198.70L86.23 198.56L83.04 198.55L79.41 198.42L76.05 197.94L72.62 196.65L74.14 198.51L74.95 200.44L73.75 202.82L72.54 203.99L71.63 204.78L69.75 206.66L69.57 208.68L68.97 210.41L71.46 213.75L73.65 215.33L74.90 216.12L80.26 220.30L81.77 221.46L84.35 223.43L82.89 225.32L82.47 227.48L81.89 229.16L81.38 230.60L82.54 231.72L84.37 233.25L92.40 236.41L91.70 238.72L90.77 241.77L90.09 244.02L91.34 246.05L92.05 247.24L93.80 249.56L91.48 250.13L90.27 250.43L88.50 251.45L86.84 252.40L84.74 256.80L83.06 258.06L79.25 258.53L77.46 260.01L76.51 260.79L74.03 261.19L71.69 261.56L71.27 263.66L69.86 263.66L67.72 263.65L66.01 263.44L63.51 263.14L62.07 262.96L59.93 260.07L60.79 258.03L60.65 256.85L60.78 256.47L60.07 255.34L58.45 254.80L56.79 255.85L54.52 257.36L52.61 257.56L49.64 257.21L47.43 256.63L45.56 256.15L43.93 255.72L41.52 255.10L39.58 257.49L37.22 257.18L35.79 256.20L34.71 255.45L34.86 254.32L35.21 252.69L33.16 252.19L31.88 253.71L30.64 253.35L29.53 253.15L28.38 253.88L26.92 256.36L24.39 260.76L23.38 262.63L21.98 265.21L21.19 266.26L19.30 269.60L17.02 273.17L16.32 274.27L15.99 277.61L15.87 278.97L15.62 281.72L18.91 282.82L20.52 285.15L20.53 289.04L20.09 292.06L19.70 294.83L19.13 299.57L18.69 303.21L16.38 306.05L15.91 308.86L15.91 313.37L15.77 317.63L15.70 320.06L16.18 321.25L16.72 322.61L17.20 323.78L18.37 325.53L21.88 325.86L23.63 325.65L25.68 325.56L26.19 329.94L26.40 331.77L28.60 336.88L29.96 340.28L31.97 345.30L33.95 349.30L36.21 352.96L37.93 353.86L39.11 355.73L40.96 356.23L42.28 356.59L44.12 359.21L46.70 362.89L48.87 365.81L50.62 367.88L51.89 369.93L56.93 371.51L61.59 372.98L63.30 371.95L65.23 371.79L70.23 371.35L71.67 372.01L74.34 372.14L76.69 372.71L80.05 374.01L82.20 374.91L84.63 376.02L86.60 376.77L88.18 377.37L90.22 378.32L91.81 379.05L93.52 379.84L94.80 380.43L95.82 381.27L96.85 382.12L98.29 383.32L99.60 385.61L100.21 386.67L100.76 387.83L101.69 389.75L102.68 391.83L103.05 393.83L103.46 396.11L104.08 397.29L104.69 398.42L106.18 397.80L108.17 397.20L110.79 394.71L113.28 393.42L115.14 393.00L116.76 391.50L117.33 390.42L117.95 389.20L118.27 388.04L118.40 386.60L118.75 385.40L118.90 384.02L119.84 381.89L121.10 380.78L120.23 378.51L119.05 376.23L117.45 373.41L116.20 371.51L115.83 370.32L115.96 368.27L116.29 366.20L116.13 364.10L115.71 362.90L115.26 361.22L115.27 359.95L115.61 358.48L115.78 357.06L116.25 355.03L116.19 353.23L115.90 352.12L113.25 350.21L111.30 349.74L108.58 348.89L108.51 347.60L111.01 343.58L113.23 340.75L117.27 338.62L123.05 335.60L127.77 334.40L130.90 330.89L133.33 329.36L134.88 328.86L135.18 327.47L135.66 325.94L136.07 324.38L136.29 322.00L136.82 319.60L137.04 317.34L136.75 315.84L139.13 315.77L140.66 315.83L142.26 315.92L143.78 316.64L144.60 317.43L145.34 318.85L146.09 320.03L147.10 321.40L147.89 322.80L148.95 324.26L150.13 325.74L150.97 326.63L152.58 327.76L154.16 328.91L155.59 330.03L156.88 331.26L158.02 332.60L159.52 334.21L160.96 335.99L162.21 336.81L163.60 337.86L165.16 339.16L166.57 340.12L168.11 341.08L169.52 341.93L170.56 342.38L172.37 343.19L174.69 344.07L175.97 345.02L178.38 347.46L177.76 349.43L177.43 350.96L177.33 352.47L177.29 353.64L177.52 355.07L178.64 359.46L179.78 362.31L181.36 365.18L182.94 367.66L184.65 370.33L185.86 372.08L187.14 374.19L188.20 376.15L189.47 378.26L191.25 379.47L193.66 378.65L194.67 378.05L194.65 375.71L194.41 373.39L195.06 370.67L196.49 370.64L198.18 370.50L199.34 370.79L201.11 370.75L203.31 370.98L204.58 372.84L205.57 374.04L207.36 375.13L210.00 376.36L211.13 375.81L212.35 375.89L213.42 376.57L215.15 377.16L216.81 377.21L218.27 377.20L219.58 377.33L220.90 377.96L222.30 379.14L223.20 381.00L223.94 382.30L224.78 384.11L225.61 386.37L226.53 388.57L227.73 391.14L229.10 393.45L230.52 395.94L231.84 397.94L232.99 400.45L233.95 403.03L234.83 405.80L235.80 408.28L237.07 410.98L238.13 413.46L239.33 416.18L240.70 418.94L241.18 421.85L241.19 424.39L242.48 426.58L243.54 428.75L243.86 431.34L249.72 432.53L250.94 432.71L252.48 434.68L252.85 432.95L254.41 432.66L255.61 424.04L258.49 422.61L260.26 422.19L261.91 423.31L266.18 423.32L267.21 421.73L268.07 419.45L267.08 417.96L267.64 416.25L268.53 415.11L268.18 413.75L266.46 409.85L265.69 408.20L263.16 405.42L262.42 404.46L263.80 403.29L263.71 401.90L262.76 399.68L262.23 398.33L261.84 396.93L261.21 395.25L261.55 393.31L262.03 391.77L263.16 389.30L263.48 388.14L264.67 386.18L264.89 384.62L264.18 382.17L263.96 380.93L262.53 379.36L261.46 378.10L262.67 376.65L263.08 374.77L258.95 371.61L257.73 368.04L259.20 366.56L261.06 364.32L262.40 362.69L263.57 361.35L265.15 359.03L265.93 358.19L266.97 356.70L268.50 354.92L269.27 353.74L270.74 352.05L271.93 350.22L273.31 348.68L275.14 346.02L276.19 344.88L277.69 343.04L278.91 341.37L280.57 338.61L279.12 338.22L276.83 337.60L274.67 335.78L274.72 333.44L273.58 331.49L272.56 327.71L272.67 325.24L272.17 322.02L271.29 318.38L269.97 314.94L269.86 311.85L268.65 307.65L267.59 305.20L266.77 302.12L266.17 298.67L265.88 294.63L264.29 289.03L263.50 284.17L262.05 280.86L261.34 278.18L260.72 274.55L260.46 270.43L260.44 265.68L259.59 263.13L259.05 261.22L259.22 258.34L258.63 253.91L258.72 250.54L257.93 248.91L257.40 247.82L256.20 246.63L255.38 244.94L254.67 246.14L253.35 246.79L252.45 247.68L251.03 250.18L249.59 250.01L248.43 250.34L247.60 251.25L246.47 252.05L244.67 251.83L243.87 251.00L242.25 250.60L240.44 250.46L239.14 250.40L237.51 251.50L236.45 252.19L235.43 254.36L232.57 254.19L230.01 253.51L228.01 252.86L228.04 251.35L226.79 249.56L225.52 248.31L223.88 248.01L223.21 246.31L221.90 245.88L220.63 244.88L219.16 243.68L216.06 242.10L213.63 239.06L212.01 235.03L211.40 230.27L209.22 226.37L205.34 221.89L202.45 218.89L198.68 216.64L195.28 217.02L193.60 217.31L192.41 217.71L190.25 219.25L188.38 219.95L186.80 220.51L184.98 221.00L183.64 221.73L183.11 218.24L183.25 215.10L182.83 212.35L181.58 210.08L179.12 208.31L176.81 206.31L175.41 203.66L174.09 201.71L172.03 199.54L170.01 197.25L169.03 195.04L169.21 193.50L169.78 186.63L171.32 183.25L172.65 179.92L170.14 178.28L169.03 177.30L166.99 175.00L165.16 172.76L163.19 170.60L160.81 168.78L158.79 166.51L157.07 164.10L155.41 164.85L153.42 163.33L150.47 162.83L148.24 164.94L145.98 167.02L144.82 167.99L143.38 168.58L141.21 167.67L139.35 166.83L141.04 164.28L141.04 162.77L140.24 159.81L138.22 161.25L137.29 161.90L135.92 161.18L134.53 160.53L133.05 160.98L131.65 160.59L130.87 161.87L130.98 163.60L128.18 162.50L125.65 160.87L122.87 159.77L121.20 159.17L119.52 160.23L119.96 161.84L118.07 162.01L117.76 160.52L116.47 159.84L116.03 161.50L114.68 161.95L114.18 160.28Z" data-ward="20" /><path id="ward-6" class="ward" d="M711.09 255.62L700.27 238.80L697.31 231.04L696.06 228.33L690.24 215.25L688.72 209.80L686.42 205.36L686.31 205.16L684.19 201.22L684.16 201.03L683.73 198.95L681.60 192.04L681.60 184.47L681.15 181.62L679.98 174.28L679.95 170.42L679.16 163.97L678.54 156.08L677.91 155.11L677.00 154.79L676.94 153.60L676.33 152.64L674.73 151.96L672.43 150.97L671.25 150.87L669.69 150.72L668.19 150.59L666.75 150.46L664.93 150.35L662.20 150.19L660.78 150.10L659.32 150.56L656.84 151.34L655.66 150.85L654.60 150.28L651.68 148.70L650.05 148.69L648.91 148.69L647.80 149.49L645.55 151.10L644.05 151.86L642.52 153.66L640.97 154.91L639.83 155.83L638.33 157.04L637.32 157.69L635.99 158.55L634.14 159.75L632.80 160.13L631.47 160.51L629.47 161.08L627.85 161.81L625.72 162.78L625.29 162.96L623.01 160.65L615.88 159.31L613.79 158.91L613.07 157.18L612.03 154.72L610.82 153.74L609.40 152.60L608.50 151.87L606.98 151.25L605.68 150.73L604.28 150.16L603.18 149.72L601.29 149.03L597.48 147.64L596.33 147.59L595.20 147.54L593.91 147.47L592.76 146.64L592.73 146.61L592.68 146.56L592.64 146.53L592.57 146.47L592.53 146.43L592.44 146.36L592.29 146.23L592.20 146.17L592.11 146.11L592.03 146.06L592.00 146.04L591.95 146.00L591.87 145.93L591.83 145.90L591.74 145.84L591.66 145.78L591.65 145.77L591.64 145.75L591.33 145.34L591.29 145.30L590.74 144.82L590.67 144.77L590.48 144.64L590.39 144.58L590.37 144.57L590.29 144.49L590.17 144.36L589.71 143.96L589.64 143.90L589.51 143.81L588.77 143.14L583.95 139.51L579.52 138.46L577.87 138.63L575.08 138.61L574.14 138.54L573.88 138.53L573.18 138.50L572.38 138.42L570.26 138.53L569.84 138.42L568.37 137.72L567.05 138.17L567.57 139.74L569.28 141.70L568.43 142.50L566.37 143.39L565.17 144.14L566.75 145.73L571.59 151.99L572.98 153.72L583.77 171.17L583.05 172.48L582.44 173.75L582.09 176.38L581.34 178.09L579.07 180.88L577.69 182.86L575.84 185.16L578.31 189.35L576.68 190.13L575.20 190.84L573.50 191.38L572.24 193.12L571.48 195.90L570.22 198.88L569.21 201.06L568.69 202.17L568.26 203.44L567.50 205.03L566.76 206.23L565.89 207.44L564.76 208.77L563.77 210.05L562.86 211.40L561.88 212.96L559.66 215.45L557.77 216.84L556.06 216.55L554.44 216.27L552.94 215.57L550.52 215.48L548.45 215.35L546.30 215.14L545.63 216.47L545.25 219.70L544.97 221.54L545.29 225.25L545.96 227.43L546.97 230.71L547.19 232.06L547.48 233.83L547.42 235.78L546.65 237.62L545.90 238.66L544.77 240.82L543.89 243.45L543.32 245.74L544.61 248.96L545.15 250.18L546.84 254.77L547.87 252.83L548.91 252.01L550.44 250.98L552.96 250.35L554.26 250.25L556.81 251.14L559.92 252.88L561.20 253.83L562.63 254.25L563.97 253.48L564.99 252.63L566.14 251.02L567.01 249.90L568.27 250.28L569.97 251.75L571.40 252.97L572.33 253.69L574.07 254.39L575.22 254.84L576.70 255.59L578.19 256.28L580.64 256.31L582.66 256.69L583.86 257.36L584.99 257.94L586.00 258.57L587.23 259.62L588.02 260.66L589.35 261.24L590.47 260.58L592.35 260.09L594.11 260.53L595.96 263.36L596.64 264.56L598.62 264.34L599.45 265.13L599.77 266.41L600.06 267.87L600.19 269.34L599.95 271.71L604.50 277.79L605.62 279.20L606.88 281.02L585.57 293.87L578.43 290.60L578.24 291.76L579.17 293.51L579.77 294.65L585.94 306.29L590.28 314.46L590.90 315.63L591.62 317.00L596.90 326.93L599.59 327.60L601.61 327.50L604.20 326.40L605.52 326.23L607.51 325.94L609.55 325.60L612.77 324.26L616.03 322.47L618.87 321.37L620.41 320.81L622.95 319.73L624.42 319.11L625.60 318.55L626.82 317.96L629.22 317.59L630.51 318.03L631.79 318.76L633.48 319.67L635.76 320.80L638.09 321.68L639.97 322.09L642.91 322.15L648.51 319.29L650.53 317.86L653.21 317.34L657.42 317.34L661.60 308.70L664.59 302.46L667.17 301.22L672.00 297.30L673.18 295.85L674.83 293.33L676.10 291.39L676.97 290.06L677.69 288.96L679.97 287.73L683.02 286.08L685.72 288.03L689.64 290.94L691.70 293.52L692.59 294.65L693.82 296.21L694.59 297.23L696.21 298.45L697.38 298.51L698.58 297.63L701.55 296.60L703.56 296.65L705.17 297.31L706.26 297.77L709.83 298.10L709.76 296.47L710.62 295.23L712.16 292.71L714.34 291.33L715.91 291.02L717.41 290.70L720.29 289.34L722.15 289.39L740.81 321.42L750.18 337.62L751.45 339.82L767.92 331.72L770.54 330.50L770.25 327.92L752.88 301.93L750.93 301.47L743.84 299.80L736.31 290.81L727.84 275.96L724.35 271.59L723.62 270.78L718.96 266.08L718.01 265.26L715.62 267.32L714.13 282.41L703.38 283.44L702.24 280.70L696.40 281.27L695.83 268.81L711.09 255.62Z" data-ward="6" /><path id="ward-11" class="ward" d="M560.71 386.38L559.30 385.66L557.62 384.74L555.66 384.15L553.05 383.88L549.77 383.33L547.70 382.20L544.32 379.74L542.71 378.62L542.14 382.89L541.14 386.25L540.04 389.52L540.36 393.16L540.69 401.40L538.96 401.53L537.93 402.31L539.00 404.46L539.81 406.29L540.67 407.95L541.55 409.74L542.51 411.78L543.00 413.31L541.69 415.15L540.18 417.19L538.06 418.55L537.13 419.37L536.24 420.75L535.84 422.41L535.77 423.90L535.24 426.04L529.11 422.59L525.78 422.89L523.81 422.39L520.52 422.13L518.19 421.84L517.86 426.72L517.72 429.89L517.74 432.87L518.37 436.14L517.75 438.52L516.41 439.20L514.79 439.34L513.41 439.51L514.17 441.56L514.75 443.20L514.89 444.60L515.16 446.42L516.58 447.72L519.99 445.83L521.52 444.93L523.92 443.61L525.06 444.07L527.06 445.61L528.93 447.00L531.90 448.27L534.27 449.15L535.94 449.57L537.08 450.72L538.64 453.61L541.02 456.81L543.93 460.22L546.92 463.31L548.03 464.18L549.54 465.36L552.46 466.76L555.07 468.20L556.71 469.79L558.12 471.85L559.15 473.60L560.46 475.13L562.31 477.46L562.82 478.64L566.12 481.63L567.33 482.67L569.45 483.98L573.38 487.83L574.79 490.12L578.69 492.86L580.32 492.13L581.89 492.89L583.03 493.79L584.35 494.69L585.31 495.55L585.56 498.62L590.40 494.35L593.77 491.37L601.47 484.05L603.78 482.27L608.15 479.59L609.32 478.88L613.79 478.62L616.50 478.10L619.61 478.10L620.76 478.09L626.14 476.05L629.65 474.72L628.22 471.74L625.05 466.00L623.01 461.47L619.17 455.25L614.49 447.80L611.37 442.41L604.27 430.41L601.30 423.87L598.92 414.40L598.29 411.38L598.24 409.49L598.14 407.36L598.57 401.00L597.06 400.96L595.58 399.79L589.98 395.41L584.93 391.87L580.00 388.85L569.94 386.77L568.61 386.34L566.83 386.19L563.87 386.14L562.07 386.45L560.71 386.38Z" data-ward="11" /><path id="ward-14" class="ward" d="M501.56 447.55L498.67 447.07L496.96 446.13L495.17 445.25L492.43 443.95L490.61 443.12L489.00 441.35L488.97 438.89L488.82 435.84L488.75 433.97L486.48 436.49L485.28 436.98L483.93 437.92L482.47 439.35L480.85 441.17L478.67 442.99L475.46 445.83L474.18 448.09L473.24 449.24L472.43 450.26L471.94 451.77L471.54 453.12L471.16 454.58L471.11 456.86L470.95 458.95L470.72 461.36L470.53 462.82L470.40 463.97L470.02 465.70L469.46 466.89L468.34 467.73L466.78 467.98L465.04 470.34L463.89 472.85L463.02 474.77L462.03 477.07L461.08 479.88L459.94 483.88L457.63 485.27L456.00 486.23L454.03 487.76L452.24 489.33L450.83 490.71L449.15 492.05L447.97 492.92L446.69 493.85L445.28 494.76L443.91 495.56L442.23 496.28L440.67 496.79L438.77 497.41L437.10 497.98L435.32 498.50L435.78 500.27L436.49 502.48L436.87 503.60L437.26 505.18L437.93 508.19L438.43 509.49L438.36 511.03L438.18 513.74L438.09 515.73L438.02 517.49L438.18 519.60L438.23 521.53L438.19 523.87L438.16 526.16L438.06 527.94L438.40 530.08L438.26 531.35L436.12 532.14L434.96 532.10L432.70 531.72L431.29 531.50L429.92 531.59L428.57 531.37L426.98 531.03L424.51 531.34L422.66 531.09L419.94 530.51L415.49 528.88L412.40 527.49L407.96 525.10L406.99 524.31L405.95 523.21L405.01 522.13L403.93 521.21L402.89 520.19L401.25 518.62L399.86 517.39L398.36 516.70L397.22 516.72L396.09 516.75L393.81 516.32L390.36 516.96L388.82 517.47L387.32 517.52L385.17 517.53L382.74 517.28L379.70 516.49L378.62 515.94L377.60 515.25L375.36 513.77L374.07 512.83L372.39 511.76L368.90 509.65L367.49 508.45L366.14 507.76L364.62 507.51L362.87 507.33L360.58 507.24L359.88 508.47L358.70 508.59L356.41 507.73L354.68 506.59L353.14 506.03L351.71 506.13L349.09 506.52L348.19 507.35L347.52 508.34L346.41 509.76L346.10 512.51L346.62 514.42L346.77 516.54L346.95 517.80L346.36 520.33L345.61 522.15L345.10 524.42L345.33 526.01L345.72 528.33L345.89 530.19L346.35 531.92L347.01 533.93L347.56 535.87L347.99 537.37L348.21 539.04L349.08 541.48L350.06 543.47L350.95 544.81L351.54 546.11L351.91 547.57L352.46 549.23L353.05 550.82L353.49 552.67L354.12 553.86L354.54 555.37L354.75 556.79L353.99 558.84L352.84 559.74L353.16 562.18L353.01 564.59L353.73 565.76L354.69 566.99L355.90 568.45L357.53 570.67L359.62 574.14L362.31 579.13L365.34 577.86L369.58 575.86L371.79 578.81L374.68 580.29L380.12 586.41L383.93 591.87L386.02 596.10L387.78 598.18L389.62 601.29L390.58 603.43L391.83 605.65L394.87 609.39L397.27 611.37L398.98 613.80L399.41 615.89L400.06 619.04L399.42 622.54L397.88 627.54L396.66 631.92L395.92 633.87L394.29 638.51L402.32 637.29L407.69 636.62L414.98 635.20L416.45 634.91L419.74 634.25L426.97 633.36L432.34 632.70L434.79 632.53L445.81 634.13L456.40 635.67L455.51 631.91L454.72 622.77L453.50 618.94L450.32 611.17L444.96 601.35L447.86 596.80L451.70 591.47L456.06 586.90L458.67 586.65L461.30 588.09L463.20 589.16L468.23 589.01L470.16 587.57L472.20 587.86L473.22 587.19L475.15 586.24L476.50 584.93L477.94 584.79L479.51 586.17L480.78 585.40L481.70 583.46L481.79 582.17L481.88 579.34L482.82 578.10L485.86 577.35L488.71 576.28L488.19 574.59L487.71 573.24L486.96 570.48L484.41 564.88L482.88 562.75L481.63 559.61L479.65 556.63L478.71 555.84L477.23 555.17L475.01 554.57L470.61 553.87L468.55 553.67L465.92 553.69L464.28 553.58L462.68 553.26L461.19 553.14L459.44 553.12L457.71 553.19L456.28 553.08L454.94 552.91L455.02 551.08L455.01 549.06L455.15 547.09L455.15 544.93L455.19 542.74L455.36 539.61L456.67 538.35L458.23 537.95L459.84 537.21L460.49 535.94L460.56 534.02L460.49 532.82L460.29 530.12L460.19 527.99L460.08 525.86L459.72 523.44L459.33 521.17L459.22 519.73L459.30 518.56L459.54 517.04L459.57 515.78L459.80 514.24L459.96 512.77L460.15 510.53L460.51 507.41L460.73 504.99L460.90 502.53L460.95 499.84L461.10 497.40L461.18 494.50L464.47 494.33L466.28 494.43L468.42 494.39L469.92 494.45L471.13 494.61L472.93 495.04L474.51 495.50L475.73 495.88L476.84 496.26L477.93 496.56L482.35 497.86L484.28 498.20L486.24 498.49L487.91 498.86L490.77 499.17L495.25 499.46L497.15 498.73L498.11 496.99L499.05 495.05L500.32 493.03L501.89 491.82L504.70 490.74L505.74 490.13L508.06 488.49L509.33 487.34L510.57 486.00L511.60 484.65L512.55 483.07L513.79 481.39L514.86 480.06L515.77 479.22L517.62 477.94L519.43 477.12L522.50 475.61L525.36 474.41L527.51 472.91L529.59 475.31L530.48 477.14L530.89 478.38L531.00 479.52L531.18 480.72L531.45 482.85L531.81 485.04L532.30 487.17L532.73 488.34L533.54 489.73L534.47 491.38L535.39 492.64L536.95 493.75L538.08 494.73L539.75 496.17L540.88 497.41L541.53 499.13L541.80 500.57L541.86 502.74L541.94 503.98L542.33 506.15L542.56 507.74L543.28 509.85L543.69 511.87L544.09 513.36L544.73 514.96L545.67 517.15L547.08 519.15L548.14 520.69L550.01 523.53L550.56 524.63L552.45 526.59L553.91 528.14L554.84 529.08L556.99 530.76L559.50 531.99L561.31 533.26L562.28 534.15L563.49 535.14L564.36 536.38L565.26 537.98L566.16 539.12L566.87 541.02L567.45 542.12L568.60 544.09L569.31 545.58L570.83 547.60L572.30 549.86L573.40 551.09L574.38 552.58L575.28 554.16L576.86 555.14L577.84 550.52L578.64 548.65L579.10 546.89L579.91 543.83L580.80 540.42L581.86 535.09L582.39 532.23L583.09 528.52L583.39 526.95L583.53 525.21L583.85 521.25L583.67 518.36L583.47 515.14L583.52 511.19L583.55 509.01L583.62 505.08L583.84 503.93L584.11 502.73L584.70 500.09L585.56 498.62L585.31 495.55L584.35 494.69L583.03 493.79L581.89 492.89L580.32 492.13L578.69 492.86L574.79 490.12L573.38 487.83L569.45 483.98L567.33 482.67L566.12 481.63L562.82 478.64L562.31 477.46L560.46 475.13L559.15 473.60L558.12 471.85L556.71 469.79L555.07 468.20L552.46 466.76L549.54 465.36L548.03 464.18L546.92 463.31L543.93 460.22L541.02 456.81L538.64 453.61L537.08 450.72L535.94 449.57L534.27 449.15L531.90 448.27L528.93 447.00L527.06 445.61L525.06 444.07L523.92 443.61L521.52 444.93L519.99 445.83L516.58 447.72L515.00 447.92L512.79 447.67L510.30 447.40L508.85 447.32L506.50 447.47L504.56 447.63L501.56 447.55Z" data-ward="14" /><path id="ward-10" class="ward" d="M621.24 372.02L619.17 371.61L615.05 373.35L611.52 373.18L608.22 372.52L602.49 373.72L599.91 382.48L598.57 401.00L598.14 407.36L598.24 409.49L598.29 411.38L598.92 414.40L601.30 423.87L604.27 430.41L611.37 442.41L614.49 447.80L619.17 455.25L623.01 461.47L625.05 466.00L628.22 471.74L629.65 474.72L633.45 476.08L636.72 477.24L637.78 477.62L638.97 477.92L640.42 478.28L641.92 478.66L644.53 479.32L646.15 480.30L648.36 481.63L650.72 483.05L651.69 484.53L653.35 485.36L655.18 487.46L655.77 489.19L657.03 490.29L659.00 492.01L660.37 493.21L661.42 494.13L664.38 495.60L665.59 496.24L667.32 496.76L669.24 497.33L672.60 497.53L675.64 498.13L678.30 498.29L680.73 498.52L683.22 498.14L686.14 497.18L688.43 496.69L691.49 496.06L693.87 496.29L696.36 496.52L698.55 497.76L700.81 499.97L702.35 501.73L703.82 503.41L705.44 505.28L706.37 506.89L707.49 508.32L709.24 511.52L711.07 514.12L713.75 516.34L715.58 517.26L716.91 517.93L719.95 518.89L724.10 518.97L725.80 519.22L727.51 519.47L730.48 520.50L732.48 521.19L734.74 521.97L735.92 521.77L738.23 521.98L740.67 520.97L741.69 520.25L743.38 519.05L744.96 517.93L746.19 517.06L747.28 516.28L749.27 514.54L750.74 513.27L751.84 512.31L753.15 511.17L754.51 509.98L756.66 509.32L758.50 508.74L760.35 508.17L761.98 506.81L764.25 505.96L765.14 505.17L766.77 502.92L768.99 501.43L770.71 500.28L773.46 498.43L775.94 496.34L778.07 495.33L779.12 494.59L782.07 494.05L785.23 493.48L788.94 495.36L791.32 496.79L794.91 498.94L798.05 499.73L800.35 501.22L802.30 501.66L803.90 502.21L805.87 502.77L808.54 503.52L810.81 504.71L813.67 505.84L816.45 506.84L817.65 507.35L819.10 507.98L820.72 508.45L821.92 508.80L825.78 509.17L826.94 509.13L828.65 509.07L832.20 508.73L834.66 508.54L839.12 508.74L842.21 509.07L844.85 509.53L847.90 509.94L849.97 510.25L851.49 510.48L854.01 510.21L856.75 510.42L858.32 510.53L862.24 510.44L863.89 510.37L865.55 510.43L867.32 510.32L868.44 510.55L871.42 510.53L872.37 511.18L873.83 512.17L875.75 513.26L877.88 514.17L879.05 515.00L880.24 515.84L882.09 516.26L883.89 516.67L885.89 517.81L888.17 518.72L890.23 520.12L892.05 520.54L894.16 520.53L895.87 520.19L898.15 519.06L899.22 517.85L900.24 515.50L900.82 514.17L901.36 512.86L901.93 510.55L902.71 508.27L903.46 506.05L904.13 504.10L904.76 502.26L905.24 500.86L906.50 497.14L908.01 492.73L909.13 490.10L910.49 488.00L912.21 485.34L914.17 482.30L914.99 481.03L915.69 479.94L913.42 478.64L912.01 476.42L911.08 475.14L908.28 471.21L905.34 467.99L901.59 465.90L897.70 464.13L892.68 462.03L889.48 460.81L876.58 446.27L874.86 444.73L872.77 443.42L869.89 441.97L863.49 440.01L862.87 438.74L860.89 439.93L859.89 441.12L858.45 442.75L859.31 443.54L857.21 445.92L854.32 446.52L851.52 446.94L850.32 446.96L848.81 447.30L846.24 447.86L845.30 473.92L842.04 474.02L838.85 475.18L833.42 475.72L827.90 476.25L822.96 476.71L816.33 476.04L811.59 474.87L806.54 475.01L805.39 475.33L803.88 474.60L802.32 474.05L800.79 473.61L799.58 472.97L798.29 472.25L795.99 470.76L794.70 469.98L793.70 470.79L791.69 471.24L789.23 471.34L786.29 471.06L783.96 470.71L767.29 472.13L768.03 463.20L768.85 458.27L756.15 462.64L755.44 463.70L754.51 464.88L752.76 467.20L751.45 468.98L749.84 471.16L748.09 473.29L746.64 475.23L745.42 476.80L743.67 479.08L741.47 482.19L738.86 483.75L736.68 484.49L733.89 485.53L731.57 486.61L730.38 486.19L730.10 483.81L729.70 480.16L729.12 475.42L728.86 470.91L729.65 467.54L730.47 463.59L730.99 461.17L730.84 458.86L730.68 456.33L730.69 454.89L730.15 452.05L728.81 447.60L727.51 445.56L726.19 442.43L725.48 441.03L726.60 439.90L724.78 437.19L695.07 411.69L689.29 422.30L688.41 424.16L687.01 426.31L686.13 427.49L685.19 428.99L684.07 430.95L681.90 434.85L676.27 434.86L673.59 434.02L668.97 433.88L663.88 434.37L656.58 434.91L655.05 432.15L653.56 429.50L652.76 428.06L654.99 426.16L657.48 424.43L661.20 421.73L661.51 419.72L658.09 417.23L650.77 411.91L649.75 410.41L645.46 406.48L643.01 404.27L641.44 401.51L641.23 399.39L641.28 396.80L641.06 393.76L641.23 392.10L641.27 389.89L640.83 387.04L641.01 383.91L639.04 383.33L635.68 382.31L632.35 380.99L628.85 378.72L627.19 376.92L621.24 372.02Z" data-ward="10" /><path id="ward-19" class="ward" d="M189.47 378.26L188.20 376.15L187.14 374.19L185.86 372.08L184.65 370.33L182.94 367.66L181.36 365.18L179.78 362.31L178.64 359.46L177.52 355.07L177.29 353.64L177.33 352.47L177.43 350.96L177.76 349.43L178.38 347.46L175.97 345.02L174.69 344.07L172.37 343.19L170.56 342.38L169.52 341.93L168.11 341.08L166.57 340.12L165.16 339.16L163.60 337.86L162.21 336.81L160.96 335.99L159.52 334.21L158.02 332.60L156.88 331.26L155.59 330.03L154.16 328.91L152.58 327.76L150.97 326.63L150.13 325.74L148.95 324.26L147.89 322.80L147.10 321.40L146.09 320.03L145.34 318.85L144.60 317.43L143.78 316.64L142.26 315.92L140.66 315.83L139.13 315.77L136.75 315.84L137.04 317.34L136.82 319.60L136.29 322.00L136.07 324.38L135.66 325.94L135.18 327.47L134.88 328.86L133.33 329.36L130.90 330.89L127.77 334.40L123.05 335.60L117.27 338.62L113.23 340.75L111.01 343.58L108.51 347.60L108.58 348.89L111.30 349.74L113.25 350.21L115.90 352.12L116.19 353.23L116.25 355.03L115.78 357.06L115.61 358.48L115.27 359.95L115.26 361.22L115.71 362.90L116.13 364.10L116.29 366.20L115.96 368.27L115.83 370.32L116.20 371.51L117.45 373.41L119.05 376.23L120.23 378.51L121.10 380.78L119.84 381.89L118.90 384.02L118.75 385.40L118.40 386.60L118.27 388.04L117.95 389.20L117.33 390.42L116.76 391.50L115.14 393.00L113.28 393.42L110.79 394.71L108.17 397.20L106.18 397.80L104.69 398.42L105.88 400.61L106.48 401.69L107.75 403.96L108.37 405.08L109.67 406.92L110.78 408.51L111.80 409.95L112.56 411.04L113.73 412.02L114.71 412.85L115.59 413.59L117.13 414.62L118.88 415.71L124.00 418.88L125.38 420.73L126.19 421.82L127.26 423.25L128.32 424.22L129.87 425.17L130.90 426.54L132.42 427.02L133.07 428.22L135.13 431.86L135.81 433.37L137.52 435.10L138.59 436.18L140.70 436.80L142.26 437.25L144.39 438.66L145.48 439.45L146.68 440.33L147.70 441.06L149.26 442.52L150.47 443.64L153.11 446.01L155.27 447.92L156.20 448.74L157.38 449.78L158.35 450.64L159.44 452.08L162.85 456.59L164.28 460.11L164.77 461.31L165.35 462.75L165.12 464.78L164.85 467.10L164.69 468.42L163.71 469.78L162.51 470.59L160.99 471.61L159.87 472.36L160.21 473.58L160.65 475.16L161.09 476.37L161.78 478.25L162.21 479.42L162.70 481.39L163.41 482.68L164.31 484.29L165.31 486.53L165.84 487.57L165.99 488.76L165.48 490.12L164.84 492.73L164.40 494.57L164.22 495.73L164.83 499.12L164.34 500.33L163.66 501.50L164.33 503.89L163.06 505.15L161.70 506.91L161.50 507.54L161.40 507.98L161.17 508.45L160.91 509.35L160.73 510.22L158.60 510.95L157.33 511.39L156.39 512.12L154.70 514.05L153.75 515.14L152.67 516.38L151.72 517.46L150.31 519.08L148.32 521.11L147.82 522.40L147.06 524.37L146.77 527.01L146.57 528.46L146.38 529.95L146.96 532.96L147.47 534.84L148.11 537.17L150.06 537.98L151.18 539.47L151.96 541.81L152.18 542.98L152.44 544.42L153.02 546.10L153.27 547.40L153.52 548.63L152.96 550.13L151.76 552.39L151.47 554.40L152.55 556.86L152.10 559.07L150.94 561.64L150.04 563.64L149.99 564.97L149.71 572.02L152.47 580.23L160.90 581.50L163.76 578.99L168.50 578.22L170.71 580.26L172.50 574.24L173.63 570.85L174.23 566.25L176.66 566.34L178.14 566.53L179.25 566.05L179.16 564.74L179.04 563.59L178.97 562.07L178.89 559.66L179.11 557.95L180.50 557.83L181.91 557.47L183.65 556.95L185.82 556.55L195.80 554.75L199.30 553.55L202.35 551.56L205.01 549.27L205.51 547.84L206.17 546.13L206.50 544.89L206.74 543.70L209.23 541.59L209.72 540.16L210.10 539.09L210.38 537.99L211.73 537.67L214.21 537.39L215.99 537.28L217.41 537.55L218.30 536.30L220.04 534.42L219.17 530.77L219.07 528.26L217.70 522.84L221.69 519.32L226.88 516.31L231.77 513.10L234.20 509.97L234.71 505.97L236.63 504.31L235.10 500.64L232.92 494.64L232.88 491.97L232.65 489.42L232.52 488.20L231.99 486.09L231.92 484.53L233.16 484.77L234.49 484.39L235.67 484.55L237.02 486.58L260.39 509.84L263.27 508.39L262.36 506.17L264.58 499.97L267.04 499.15L269.44 499.91L272.09 500.80L274.75 501.43L277.09 502.12L278.60 501.69L279.59 499.41L280.11 496.91L280.95 494.38L281.25 491.68L281.29 488.90L280.80 486.14L280.35 483.50L277.88 482.38L275.70 480.91L277.07 478.97L278.95 476.99L278.38 475.70L276.75 473.72L275.23 471.87L274.11 469.53L272.97 466.91L271.76 464.68L270.01 464.60L267.58 465.05L265.13 465.32L264.36 464.12L264.31 461.51L264.28 458.75L263.60 456.31L261.69 454.03L261.25 451.37L262.18 448.75L262.97 446.36L263.00 443.75L260.95 442.75L258.30 442.80L253.34 442.36L251.71 441.47L251.72 439.38L251.99 436.89L252.48 434.68L250.94 432.71L249.72 432.53L243.86 431.34L243.54 428.75L242.48 426.58L241.19 424.39L241.18 421.85L240.70 418.94L239.33 416.18L238.13 413.46L237.07 410.98L235.80 408.28L234.83 405.80L233.95 403.03L232.99 400.45L231.84 397.94L230.52 395.94L229.10 393.45L227.73 391.14L226.53 388.57L225.61 386.37L224.78 384.11L223.94 382.30L223.20 381.00L222.30 379.14L220.90 377.96L219.58 377.33L218.27 377.20L216.81 377.21L215.15 377.16L213.42 376.57L212.35 375.89L211.13 375.81L210.00 376.36L207.36 375.13L205.57 374.04L204.58 372.84L203.31 370.98L201.11 370.75L199.34 370.79L198.18 370.50L196.49 370.64L195.06 370.67L194.41 373.39L194.65 375.71L194.67 378.05L193.66 378.65L191.25 379.47L189.47 378.26Z" data-ward="19" /><path id="ward-17" class="ward" d="M347.99 537.37L347.56 535.87L347.01 533.93L346.35 531.92L345.89 530.19L345.72 528.33L345.33 526.01L345.10 524.42L345.61 522.15L346.36 520.33L346.95 517.80L346.77 516.54L346.62 514.42L346.10 512.51L344.88 512.44L343.28 513.59L340.86 514.76L339.05 516.20L337.87 517.90L336.58 519.62L334.73 521.53L334.16 522.85L332.77 524.21L331.59 524.38L330.42 524.89L328.72 526.65L327.35 527.05L326.20 527.80L325.91 529.21L325.56 530.36L324.19 531.09L323.12 532.43L322.48 533.75L320.38 534.76L318.22 535.26L316.67 535.91L315.33 536.66L314.00 537.43L311.36 538.10L309.52 536.98L307.56 535.50L305.82 535.03L303.95 535.27L301.94 536.45L300.93 537.38L299.13 538.32L297.86 540.52L296.36 542.24L294.65 543.30L293.54 544.14L292.42 545.03L290.82 546.37L288.95 546.62L288.53 545.49L287.26 544.40L285.92 544.76L283.88 545.35L281.70 548.00L279.59 549.75L278.15 549.64L275.07 550.03L273.32 551.70L270.19 551.97L268.70 552.27L267.53 552.51L266.34 552.57L264.68 551.92L263.60 551.48L260.84 552.75L259.17 553.30L257.97 553.56L257.01 552.83L255.78 552.45L253.81 551.98L252.57 551.33L250.79 550.39L249.74 549.51L248.50 549.04L246.77 547.56L245.45 546.45L244.48 545.56L243.51 544.52L241.30 543.69L239.87 543.42L238.50 543.06L237.16 542.31L235.97 542.06L234.83 541.57L233.57 540.88L231.61 540.12L230.71 539.14L229.51 538.06L227.70 537.05L226.50 536.37L224.92 535.72L223.82 535.38L221.05 535.36L220.04 534.42L218.30 536.30L217.41 537.55L215.99 537.28L214.21 537.39L211.73 537.67L210.38 537.99L210.10 539.09L209.72 540.16L209.23 541.59L206.74 543.70L206.50 544.89L206.17 546.13L205.51 547.84L205.01 549.27L202.35 551.56L199.30 553.55L195.80 554.75L185.82 556.55L183.65 556.95L181.91 557.47L180.50 557.83L179.11 557.95L178.89 559.66L178.97 562.07L179.04 563.59L179.16 564.74L179.25 566.05L178.14 566.53L176.66 566.34L174.23 566.25L173.63 570.85L172.50 574.24L170.71 580.26L168.50 578.22L163.76 578.99L160.90 581.50L162.42 582.79L162.55 588.33L162.59 590.10L162.09 596.90L161.05 602.22L160.98 615.51L161.59 616.36L163.98 616.45L165.44 616.78L166.82 617.09L168.39 617.55L169.87 617.99L171.35 618.43L172.54 619.11L173.64 618.96L173.65 618.97L173.67 618.97L174.08 619.10L174.55 619.27L174.95 619.43L175.26 619.58L175.60 619.76L175.62 619.77L176.04 619.99L176.44 620.21L176.96 620.50L177.43 620.78L177.83 621.02L178.14 621.23L178.48 621.49L178.57 621.56L178.61 621.58L178.94 621.79L179.03 621.85L179.26 621.98L179.44 622.10L179.53 622.16L180.08 622.48L180.12 622.50L180.44 622.68L180.52 622.72L180.83 622.86L181.03 622.96L181.27 623.11L181.30 623.13L181.48 623.23L181.64 623.34L181.66 623.35L181.95 623.53L182.00 623.56L182.37 623.76L182.66 623.94L183.15 624.95L184.33 625.57L185.59 626.23L186.73 626.84L187.90 627.46L188.95 628.23L190.04 629.03L191.12 629.82L192.31 630.69L193.76 631.75L195.32 633.84L195.64 635.00L196.06 636.49L197.35 637.61L198.13 638.46L198.91 639.32L199.91 640.04L201.50 641.19L202.63 641.72L204.89 641.81L205.99 642.22L207.55 642.81L209.84 643.18L210.15 641.33L210.39 639.87L212.34 640.33L213.88 639.85L215.05 639.48L216.36 639.10L218.09 639.13L219.67 640.89L219.82 642.26L219.96 643.43L221.19 644.70L223.68 645.42L225.21 646.53L226.72 647.63L229.51 649.64L227.83 653.15L230.26 653.77L232.41 654.08L233.42 655.10L234.58 656.26L235.82 657.65L237.30 658.09L238.92 658.60L240.72 658.29L242.10 658.78L243.27 659.22L245.74 657.63L246.86 657.16L248.98 656.27L252.08 654.97L256.58 655.38L260.01 655.77L264.34 656.26L269.25 656.81L275.05 660.27L283.19 661.89L286.16 661.40L288.42 662.00L289.62 661.40L292.91 659.00L295.00 657.47L300.47 654.17L303.66 653.15L311.78 651.19L313.53 650.94L323.88 649.44L327.66 648.87L333.50 645.70L337.73 640.83L342.74 636.68L344.06 635.59L345.90 634.52L348.71 632.88L349.91 632.69L352.40 632.30L354.26 632.63L355.39 632.83L358.37 632.61L361.15 632.41L362.70 632.10L365.04 631.93L365.34 635.47L365.22 637.25L365.10 639.12L365.00 640.77L364.91 644.07L364.86 646.66L365.21 648.49L365.56 650.32L366.39 652.21L367.19 653.71L368.07 655.05L372.43 653.37L375.64 652.13L376.73 651.71L380.22 649.55L384.33 647.01L389.33 642.75L391.90 640.55L394.29 638.51L395.92 633.87L396.66 631.92L397.88 627.54L399.42 622.54L400.06 619.04L399.41 615.89L398.98 613.80L397.27 611.37L394.87 609.39L391.83 605.65L390.58 603.43L389.62 601.29L387.78 598.18L386.02 596.10L383.93 591.87L380.12 586.41L374.68 580.29L371.79 578.81L369.58 575.86L365.34 577.86L362.31 579.13L359.62 574.14L357.53 570.67L355.90 568.45L354.69 566.99L353.73 565.76L353.01 564.59L353.16 562.18L352.84 559.74L353.99 558.84L354.75 556.79L354.54 555.37L354.12 553.86L353.49 552.67L353.05 550.82L352.46 549.23L351.91 547.57L351.54 546.11L350.95 544.81L350.06 543.47L349.08 541.48L348.21 539.04L347.99 537.37Z" data-ward="17" /><path id="ward-15" class="ward" d="M541.53 499.13L540.88 497.41L539.75 496.17L538.08 494.73L536.95 493.75L535.39 492.64L534.47 491.38L533.54 489.73L532.73 488.34L532.30 487.17L531.81 485.04L531.45 482.85L531.18 480.72L531.00 479.52L530.89 478.38L530.48 477.14L529.59 475.31L527.51 472.91L525.36 474.41L522.50 475.61L519.43 477.12L517.62 477.94L515.77 479.22L514.86 480.06L513.79 481.39L512.55 483.07L511.60 484.65L510.57 486.00L509.33 487.34L508.06 488.49L505.74 490.13L504.70 490.74L501.89 491.82L500.32 493.03L499.05 495.05L498.11 496.99L497.15 498.73L495.25 499.46L490.77 499.17L487.91 498.86L486.24 498.49L484.28 498.20L482.35 497.86L477.93 496.56L476.84 496.26L475.73 495.88L474.51 495.50L472.93 495.04L471.13 494.61L469.92 494.45L468.42 494.39L466.28 494.43L464.47 494.33L461.18 494.50L461.10 497.40L460.95 499.84L460.90 502.53L460.73 504.99L460.51 507.41L460.15 510.53L459.96 512.77L459.80 514.24L459.57 515.78L459.54 517.04L459.30 518.56L459.22 519.73L459.33 521.17L459.72 523.44L460.08 525.86L460.19 527.99L460.29 530.12L460.49 532.82L460.56 534.02L460.49 535.94L459.84 537.21L458.23 537.95L456.67 538.35L455.36 539.61L455.19 542.74L455.15 544.93L455.15 547.09L455.01 549.06L455.02 551.08L454.94 552.91L456.28 553.08L457.71 553.19L459.44 553.12L461.19 553.14L462.68 553.26L464.28 553.58L465.92 553.69L468.55 553.67L470.61 553.87L475.01 554.57L477.23 555.17L478.71 555.84L479.65 556.63L481.63 559.61L482.88 562.75L484.41 564.88L486.96 570.48L487.71 573.24L488.19 574.59L488.71 576.28L485.86 577.35L482.82 578.10L481.88 579.34L481.79 582.17L481.70 583.46L480.78 585.40L479.51 586.17L477.94 584.79L476.50 584.93L475.15 586.24L473.22 587.19L472.20 587.86L470.16 587.57L468.23 589.01L463.20 589.16L461.30 588.09L458.67 586.65L456.06 586.90L451.70 591.47L447.86 596.80L444.96 601.35L450.32 611.17L453.50 618.94L454.72 622.77L455.51 631.91L456.40 635.67L456.99 639.69L459.35 642.80L460.25 643.80L463.63 647.54L465.82 648.81L470.45 650.87L471.92 651.78L477.05 652.97L481.31 653.39L486.89 653.16L490.60 648.28L492.12 643.23L495.90 640.91L495.39 639.50L494.49 636.77L494.07 635.49L493.97 634.16L493.71 632.65L493.11 629.23L492.83 626.46L492.54 624.07L492.12 622.21L491.63 620.03L491.19 618.04L490.84 616.42L494.08 614.35L497.25 612.34L496.52 609.33L497.16 606.27L498.71 604.30L501.19 606.72L500.29 607.53L502.15 609.41L503.14 610.40L504.30 611.37L509.72 615.86L511.10 616.32L519.54 620.51L525.61 622.53L527.59 623.60L529.03 623.82L530.25 624.16L534.36 627.00L535.41 627.78L537.38 629.25L539.79 631.04L542.61 633.14L544.74 635.65L545.51 636.76L546.94 637.07L547.84 636.30L549.69 636.17L552.09 636.00L554.57 635.83L556.53 635.50L558.99 635.09L561.63 634.65L563.30 634.29L564.50 634.05L565.61 633.83L567.79 633.40L569.03 633.16L569.22 630.94L569.33 629.58L569.44 628.21L569.57 626.61L569.34 624.07L569.34 622.58L569.34 618.30L569.20 614.49L569.15 612.98L569.09 611.34L569.02 609.29L568.37 606.15L567.90 603.82L567.62 602.16L567.80 600.69L568.14 597.80L569.44 594.03L570.05 592.26L570.47 591.03L570.93 589.70L571.44 588.21L572.02 586.54L572.41 585.39L572.93 583.93L573.47 581.99L573.83 580.70L574.02 578.42L574.11 575.58L574.17 572.38L574.20 570.58L574.62 568.02L574.89 566.41L575.32 563.93L575.65 562.03L575.99 560.08L576.43 557.58L576.86 555.14L575.28 554.16L574.38 552.58L573.40 551.09L572.30 549.86L570.83 547.60L569.31 545.58L568.60 544.09L567.45 542.12L566.87 541.02L566.16 539.12L565.26 537.98L564.36 536.38L563.49 535.14L562.28 534.15L561.31 533.26L559.50 531.99L556.99 530.76L554.84 529.08L553.91 528.14L552.45 526.59L550.56 524.63L550.01 523.53L548.14 520.69L547.08 519.15L545.67 517.15L544.73 514.96L544.09 513.36L543.69 511.87L543.28 509.85L542.56 507.74L542.33 506.15L541.94 503.98L541.86 502.74L541.80 500.57L541.53 499.13Z" data-ward="15" /><path id="ward-8" class="ward" d="M750.18 337.62L740.81 321.42L722.15 289.39L720.29 289.34L717.41 290.70L715.91 291.02L714.34 291.33L712.16 292.71L710.62 295.23L709.76 296.47L709.83 298.10L709.38 301.53L708.69 303.74L708.25 305.17L707.76 307.40L706.97 310.81L707.01 312.26L707.13 316.08L706.03 319.26L704.53 323.70L703.47 327.89L702.91 330.39L701.55 333.21L700.47 334.86L697.22 338.28L696.79 339.37L695.04 343.79L693.73 346.33L692.75 348.32L690.51 351.57L688.66 353.92L687.26 356.20L685.86 359.10L685.37 360.95L683.78 364.01L682.13 366.39L679.09 369.52L676.58 371.80L673.73 376.70L671.92 380.55L671.35 385.73L670.44 389.81L670.18 391.45L670.82 394.17L671.19 395.69L670.94 397.10L670.46 399.83L669.20 403.01L668.17 405.39L666.86 410.08L664.14 415.10L662.31 418.47L661.51 419.72L661.20 421.73L657.48 424.43L654.99 426.16L652.76 428.06L653.56 429.50L655.05 432.15L656.58 434.91L663.88 434.37L668.97 433.88L673.59 434.02L676.27 434.86L681.90 434.85L684.07 430.95L685.19 428.99L686.13 427.49L687.01 426.31L688.41 424.16L689.29 422.30L695.07 411.69L724.78 437.19L726.60 439.90L725.48 441.03L726.19 442.43L727.51 445.56L728.81 447.60L730.15 452.05L730.69 454.89L730.68 456.33L730.84 458.86L730.99 461.17L730.47 463.59L729.65 467.54L728.86 470.91L729.12 475.42L729.70 480.16L730.10 483.81L730.38 486.19L731.57 486.61L733.89 485.53L736.68 484.49L738.86 483.75L741.47 482.19L743.67 479.08L745.42 476.80L746.64 475.23L748.09 473.29L749.84 471.16L751.45 468.98L752.76 467.20L754.51 464.88L755.44 463.70L756.15 462.64L768.85 458.27L768.03 463.20L767.29 472.13L783.96 470.71L786.29 471.06L789.23 471.34L791.69 471.24L793.70 470.79L794.70 469.98L795.99 470.76L798.29 472.25L799.58 472.97L800.79 473.61L802.32 474.05L803.88 474.60L805.39 475.33L806.54 475.01L811.59 474.87L816.33 476.04L822.96 476.71L827.90 476.25L833.42 475.72L838.85 475.18L842.04 474.02L845.30 473.92L846.24 447.86L848.81 447.30L850.32 446.96L851.52 446.94L854.32 446.52L857.21 445.92L859.31 443.54L858.45 442.75L859.89 441.12L860.89 439.93L862.87 438.74L851.57 430.09L849.25 427.94L847.34 426.27L845.10 424.51L844.01 423.93L842.36 423.05L840.43 422.03L839.18 420.33L837.39 417.57L836.30 415.90L834.92 414.32L833.66 413.18L832.04 411.77L830.06 410.24L828.04 408.60L826.99 407.99L825.66 407.86L824.41 408.02L821.70 408.55L819.58 411.31L818.95 412.65L816.49 415.34L813.78 415.32L811.63 414.42L810.48 413.57L809.42 412.83L808.60 411.99L807.65 409.85L807.00 408.51L805.85 406.68L804.10 404.38L802.72 402.17L801.93 400.74L801.56 399.41L801.22 398.29L800.88 396.68L773.56 400.17L775.97 398.32L777.73 397.50L779.85 396.65L781.44 395.80L784.43 394.20L785.59 392.58L786.82 389.87L787.28 387.47L787.60 386.10L788.10 383.84L788.55 382.36L790.85 379.79L793.03 377.93L795.92 375.18L797.25 373.33L797.98 371.58L799.76 369.54L802.72 368.83L804.56 368.50L806.82 368.88L808.42 369.17L809.98 369.45L814.67 371.41L817.45 372.58L820.09 373.57L821.17 373.97L822.66 374.31L824.92 374.25L826.65 372.87L827.88 371.89L828.42 370.79L828.96 369.30L829.50 367.11L830.07 363.37L830.26 361.61L829.91 358.14L829.07 355.10L828.56 352.77L828.58 351.32L829.57 348.73L831.56 347.66L834.96 347.46L839.76 348.21L845.70 349.62L848.24 350.44L851.00 351.46L852.19 351.78L853.90 348.15L855.11 344.20L851.16 342.88L846.12 342.66L844.68 342.39L842.87 342.16L841.94 343.53L840.36 343.36L839.31 342.88L837.65 343.16L833.58 342.31L831.80 341.78L830.34 341.68L829.42 340.94L828.63 339.52L828.29 337.16L827.61 334.87L826.93 332.61L825.07 330.46L823.55 328.71L821.72 327.55L818.74 325.66L817.16 323.73L815.70 321.94L812.93 318.81L811.91 317.78L811.63 316.17L809.81 313.45L809.32 312.28L807.33 312.23L805.63 312.39L800.58 312.37L799.99 310.36L799.48 309.79L799.41 309.79L794.63 309.86L794.18 309.84L790.04 309.69L789.00 309.63L788.60 309.59L787.83 309.35L786.04 308.60L785.89 308.52L785.89 308.51L785.39 308.22L785.25 308.13L785.24 308.13L785.22 308.11L784.48 307.59L784.45 307.57L784.40 307.52L784.15 307.29L784.08 307.23L783.96 307.12L783.60 306.83L783.30 306.58L783.30 306.58L782.80 306.18L781.73 305.30L781.71 305.29L781.70 305.29L780.95 304.79L779.88 304.23L779.06 303.55L778.98 303.49L778.55 303.14L777.31 303.01L775.54 303.37L775.52 303.38L775.48 303.41L773.90 304.48L773.53 304.65L773.45 304.69L772.36 305.23L772.35 305.24L771.83 305.50L771.61 305.62L771.51 305.67L770.41 306.32L769.53 306.81L769.41 306.87L768.48 307.11L767.55 307.21L767.06 307.29L766.78 307.35L766.31 307.15L765.40 306.86L764.03 306.61L763.16 306.43L761.49 306.00L760.63 305.87L759.96 305.85L759.40 305.76L752.88 301.93L770.25 327.92L770.54 330.50L767.92 331.72L751.45 339.82L750.18 337.62Z" data-ward="8" /><path id="ward-16" class="ward" d="M403.59 369.67L401.77 367.46L396.65 369.51L395.29 369.95L393.64 369.77L392.78 371.01L390.51 378.34L389.34 383.49L388.79 384.86L387.27 385.34L385.66 385.71L384.96 387.01L383.82 387.82L381.40 388.52L378.90 390.02L378.03 392.77L376.52 394.23L376.04 395.41L375.35 396.83L373.44 397.27L371.26 397.58L368.88 397.69L366.67 398.67L364.80 399.44L363.32 399.68L361.61 399.59L359.86 399.22L358.73 398.70L357.47 398.26L354.74 398.52L352.19 401.48L350.85 405.56L350.57 411.21L350.87 420.77L351.15 426.50L351.06 431.35L349.20 428.80L345.68 426.60L342.87 425.48L337.61 424.64L334.02 425.43L330.35 427.65L329.48 429.67L329.21 431.49L329.37 433.12L329.27 434.83L329.32 436.52L328.19 439.08L326.24 440.28L324.56 441.05L322.72 442.03L323.64 443.83L324.52 445.23L325.43 446.47L326.72 448.46L327.02 449.59L326.90 450.89L326.01 452.40L324.89 453.98L323.53 455.69L321.51 458.44L323.64 459.96L325.46 460.75L327.13 461.10L328.94 461.44L331.91 462.11L332.89 463.01L334.18 463.99L335.75 465.67L337.20 466.82L338.99 467.69L341.27 468.78L344.58 470.56L348.09 472.08L349.79 472.69L352.04 472.98L353.85 473.01L353.93 475.48L353.87 477.94L353.81 479.94L353.62 481.15L353.40 482.52L353.05 484.64L352.12 485.43L350.14 485.43L348.78 485.46L347.40 485.40L346.12 486.56L346.04 487.92L345.73 489.48L345.40 491.45L345.21 493.44L344.91 495.89L344.47 498.41L343.78 501.28L342.86 505.12L342.92 506.52L343.97 507.82L344.92 508.90L346.41 509.76L347.52 508.34L348.19 507.35L349.09 506.52L351.71 506.13L353.14 506.03L354.68 506.59L356.41 507.73L358.70 508.59L359.88 508.47L360.58 507.24L362.87 507.33L364.62 507.51L366.14 507.76L367.49 508.45L368.90 509.65L372.39 511.76L374.07 512.83L375.36 513.77L377.60 515.25L378.62 515.94L379.70 516.49L382.74 517.28L385.17 517.53L387.32 517.52L388.82 517.47L390.36 516.96L393.81 516.32L396.09 516.75L397.22 516.72L398.36 516.70L399.86 517.39L401.25 518.62L402.89 520.19L403.93 521.21L405.01 522.13L405.95 523.21L406.99 524.31L407.96 525.10L412.40 527.49L415.49 528.88L419.94 530.51L422.66 531.09L424.51 531.34L426.98 531.03L428.57 531.37L429.92 531.59L431.29 531.50L432.70 531.72L434.96 532.10L436.12 532.14L438.26 531.35L438.40 530.08L438.06 527.94L438.16 526.16L438.19 523.87L438.23 521.53L438.18 519.60L438.02 517.49L438.09 515.73L438.18 513.74L438.36 511.03L438.43 509.49L437.93 508.19L437.26 505.18L436.87 503.60L436.49 502.48L435.78 500.27L435.32 498.50L437.10 497.98L438.77 497.41L440.67 496.79L442.23 496.28L443.91 495.56L445.28 494.76L446.69 493.85L447.97 492.92L449.15 492.05L450.83 490.71L452.24 489.33L454.03 487.76L456.00 486.23L457.63 485.27L459.94 483.88L461.08 479.88L462.03 477.07L463.02 474.77L463.89 472.85L465.04 470.34L466.78 467.98L468.34 467.73L469.46 466.89L470.02 465.70L470.40 463.97L470.53 462.82L470.72 461.36L470.95 458.95L471.11 456.86L471.16 454.58L471.54 453.12L471.94 451.77L472.43 450.26L473.24 449.24L474.18 448.09L475.46 445.83L473.27 443.73L471.70 442.12L469.91 439.97L468.81 438.36L467.21 436.69L465.67 435.47L464.89 434.36L463.90 432.52L461.97 429.71L460.97 428.55L459.94 427.04L459.19 425.10L457.56 423.35L456.16 421.65L455.14 420.85L453.91 420.39L452.85 419.37L451.06 417.87L449.36 415.66L448.93 413.61L448.03 411.67L447.01 409.65L445.99 407.34L444.24 405.87L442.83 404.45L442.34 403.39L441.79 402.39L440.51 400.71L439.10 399.26L438.28 398.05L435.81 397.52L434.59 397.52L432.59 395.84L431.51 394.76L430.22 393.75L429.34 392.92L427.83 391.41L423.70 387.85L420.24 385.01L414.47 380.14L412.69 378.66L411.24 377.50L409.35 375.58L406.91 373.22L403.59 369.67Z" data-ward="16" /><path id="ward-7" class="ward" d="M696.21 298.45L694.59 297.23L693.82 296.21L692.59 294.65L691.70 293.52L689.64 290.94L685.72 288.03L683.02 286.08L679.97 287.73L677.69 288.96L676.97 290.06L676.10 291.39L674.83 293.33L673.18 295.85L672.00 297.30L667.17 301.22L664.59 302.46L661.60 308.70L657.42 317.34L653.21 317.34L650.53 317.86L648.51 319.29L642.91 322.15L639.97 322.09L638.09 321.68L635.76 320.80L633.48 319.67L631.79 318.76L630.51 318.03L629.22 317.59L626.82 317.96L625.60 318.55L624.42 319.11L622.95 319.73L620.41 320.81L618.87 321.37L616.03 322.47L612.77 324.26L609.55 325.60L607.51 325.94L605.52 326.23L604.20 326.40L601.61 327.50L599.59 327.60L596.90 326.93L591.62 317.00L590.90 315.63L590.28 314.46L585.94 306.29L579.77 294.65L579.17 293.51L578.24 291.76L578.43 290.60L577.37 290.11L575.31 290.95L574.41 291.85L573.38 292.85L572.32 293.57L570.84 293.04L568.55 291.96L566.85 292.81L565.76 293.34L563.21 294.15L552.77 299.04L548.00 297.45L546.92 295.96L545.12 296.16L543.21 296.85L541.77 297.10L540.33 297.57L539.85 298.70L539.80 299.96L539.83 301.99L539.21 303.13L537.83 303.43L536.45 303.74L535.28 304.25L533.69 305.43L531.09 305.89L529.19 305.64L525.73 305.39L522.71 306.24L522.35 307.43L522.13 308.72L522.15 312.78L524.15 318.47L533.78 321.53L535.26 321.79L537.92 322.79L539.01 324.79L540.41 324.26L541.98 324.66L563.30 344.67L563.68 345.76L565.98 347.76L566.77 348.70L568.85 349.57L570.52 352.27L572.64 355.67L573.38 357.18L574.16 358.59L575.67 360.60L579.37 366.51L582.72 371.92L580.94 372.62L579.08 372.96L576.99 374.29L576.27 375.91L575.18 377.43L572.34 376.89L569.96 376.02L568.32 376.12L565.77 375.92L564.81 376.82L564.41 379.31L563.70 383.80L563.87 386.14L566.83 386.19L568.61 386.34L569.94 386.77L580.00 388.85L584.93 391.87L589.98 395.41L595.58 399.79L597.06 400.96L598.57 401.00L599.91 382.48L602.49 373.72L608.22 372.52L611.52 373.18L615.05 373.35L619.17 371.61L621.24 372.02L627.19 376.92L628.85 378.72L632.35 380.99L635.68 382.31L639.04 383.33L641.01 383.91L640.83 387.04L641.27 389.89L641.23 392.10L641.06 393.76L641.28 396.80L641.23 399.39L641.44 401.51L643.01 404.27L645.46 406.48L649.75 410.41L650.77 411.91L658.09 417.23L661.51 419.72L662.31 418.47L664.14 415.10L666.86 410.08L668.17 405.39L669.20 403.01L670.46 399.83L670.94 397.10L671.19 395.69L670.82 394.17L670.18 391.45L670.44 389.81L671.35 385.73L671.92 380.55L673.73 376.70L676.58 371.80L679.09 369.52L682.13 366.39L683.78 364.01L685.37 360.95L685.86 359.10L687.26 356.20L688.66 353.92L690.51 351.57L692.75 348.32L693.73 346.33L695.04 343.79L696.79 339.37L697.22 338.28L700.47 334.86L701.55 333.21L702.91 330.39L703.47 327.89L704.53 323.70L706.03 319.26L707.13 316.08L707.01 312.26L706.97 310.81L707.76 307.40L708.25 305.17L708.69 303.74L709.38 301.53L709.83 298.10L706.26 297.77L705.17 297.31L703.56 296.65L701.55 296.60L698.58 297.63L697.38 298.51L696.21 298.45Z" data-ward="7" /><path id="ward-5" class="ward" d="M488.20 212.35L486.47 212.16L482.65 210.58L480.59 209.14L479.37 208.20L476.34 204.94L474.47 203.83L470.50 202.24L467.36 202.13L464.55 201.85L463.30 201.12L460.96 200.12L459.08 199.53L456.89 198.67L455.32 198.08L452.02 197.23L449.62 196.70L447.20 196.51L445.39 198.03L444.68 199.19L444.52 200.53L444.13 203.23L443.92 204.51L443.64 205.81L443.43 206.97L442.28 207.78L442.09 209.14L439.19 216.60L438.47 223.61L441.49 229.95L443.87 233.41L441.89 236.61L441.53 238.79L440.81 241.29L440.58 242.76L440.38 244.00L440.29 245.41L439.98 247.14L440.01 249.38L440.21 251.59L440.27 253.50L440.52 255.49L440.16 257.83L440.25 260.69L440.28 261.85L439.18 263.63L437.76 264.45L437.02 265.91L436.72 267.44L436.32 268.88L438.19 269.69L438.04 273.06L437.29 274.26L435.89 275.74L434.52 277.35L433.88 278.49L433.31 280.06L433.19 281.29L435.30 281.89L436.62 282.63L438.20 283.48L439.53 284.27L440.86 285.27L442.68 286.68L445.83 288.95L447.29 290.19L448.59 291.30L447.69 292.49L446.68 293.11L444.70 294.21L442.25 295.52L440.47 296.66L438.12 297.89L436.17 299.30L435.03 301.27L438.87 308.59L439.68 310.27L440.58 311.90L442.31 314.03L445.46 315.41L447.01 315.98L449.65 316.97L451.73 317.95L454.43 319.96L456.80 322.50L459.40 325.77L461.15 327.89L462.01 329.09L464.05 329.09L465.33 328.66L466.83 328.24L468.17 327.88L469.90 326.85L471.96 325.53L473.38 325.42L475.26 325.14L477.12 324.66L478.66 324.11L480.83 323.18L482.91 322.35L484.27 321.83L485.80 321.23L487.22 320.55L488.73 319.85L490.15 319.19L491.63 318.67L494.33 317.53L496.52 316.63L500.15 314.75L502.12 313.67L503.68 313.02L505.44 312.42L522.15 312.78L522.13 308.72L522.35 307.43L522.71 306.24L525.73 305.39L529.19 305.64L531.09 305.89L533.69 305.43L535.28 304.25L536.45 303.74L537.83 303.43L539.21 303.13L539.83 301.99L539.80 299.96L539.85 298.70L540.33 297.57L541.77 297.10L543.21 296.85L545.12 296.16L546.92 295.96L548.00 297.45L552.77 299.04L563.21 294.15L565.76 293.34L566.85 292.81L568.55 291.96L570.84 293.04L572.32 293.57L573.38 292.85L574.41 291.85L575.31 290.95L577.37 290.11L578.43 290.60L585.57 293.87L606.88 281.02L605.62 279.20L604.50 277.79L599.95 271.71L600.19 269.34L600.06 267.87L599.77 266.41L599.45 265.13L598.62 264.34L596.64 264.56L595.96 263.36L594.11 260.53L592.35 260.09L590.47 260.58L589.35 261.24L588.02 260.66L587.23 259.62L586.00 258.57L584.99 257.94L583.86 257.36L582.66 256.69L580.64 256.31L578.19 256.28L576.70 255.59L575.22 254.84L574.07 254.39L572.33 253.69L571.40 252.97L569.97 251.75L568.27 250.28L567.01 249.90L566.14 251.02L564.99 252.63L563.97 253.48L562.63 254.25L561.20 253.83L559.92 252.88L556.81 251.14L554.26 250.25L552.96 250.35L550.44 250.98L548.91 252.01L547.87 252.83L546.84 254.77L547.54 256.69L547.50 257.87L546.37 258.71L543.77 260.70L542.51 261.39L541.02 261.89L539.49 261.83L538.31 260.71L537.53 259.66L536.17 259.08L534.76 258.85L533.32 258.56L531.49 258.11L530.18 257.67L529.77 256.45L530.56 253.79L531.14 251.86L532.04 247.32L533.64 242.96L534.05 240.88L533.50 238.00L533.25 236.04L532.97 233.99L531.74 231.24L530.12 229.92L527.57 228.24L526.47 227.28L523.68 221.71L523.67 218.22L523.84 215.96L523.32 213.86L521.23 213.87L519.67 214.10L517.71 214.13L513.96 213.36L511.17 212.27L508.93 211.89L505.39 211.73L500.00 211.46L497.44 212.04L494.25 212.72L492.90 212.95L490.97 212.75L489.46 212.76L488.20 212.35Z" data-ward="5" /><path id="ward-13" class="ward" d="M461.15 327.89L459.40 325.77L456.80 322.50L454.43 319.96L451.73 317.95L449.65 316.97L447.01 315.98L445.46 315.41L442.31 314.03L440.58 311.90L439.68 310.27L438.87 308.59L435.03 301.27L433.88 300.88L432.29 303.43L430.23 305.64L427.23 309.84L425.58 312.34L424.14 315.03L422.77 316.90L420.88 319.45L419.90 320.12L419.04 320.87L418.35 322.25L418.10 323.72L417.71 325.19L417.49 326.55L417.08 328.39L416.81 329.88L416.66 331.17L416.36 334.16L416.18 336.87L415.83 339.24L415.55 341.43L415.50 344.90L413.64 345.70L413.09 343.12L411.41 342.53L409.25 342.96L405.92 343.19L404.74 343.37L403.91 346.53L404.81 349.41L402.58 352.62L400.29 354.51L397.70 356.97L396.53 358.96L395.47 358.41L392.98 356.91L389.92 355.08L387.34 353.83L382.07 351.16L377.95 350.04L376.29 348.91L374.30 347.43L372.67 345.37L371.50 344.08L370.66 342.63L370.09 341.64L363.82 330.86L362.30 326.90L360.76 327.31L358.41 328.66L357.63 329.54L356.93 330.97L356.16 332.20L354.54 333.60L353.86 334.54L353.07 335.37L352.34 336.23L351.29 337.64L350.31 338.97L349.45 340.15L348.58 341.26L347.65 342.48L346.97 343.52L346.04 344.91L345.10 346.16L344.04 347.69L342.67 349.46L341.12 351.35L340.15 352.60L339.23 353.91L338.27 355.33L336.78 356.97L335.46 358.46L334.43 359.58L333.06 360.78L331.91 361.67L330.09 363.26L329.12 364.04L327.86 364.45L326.66 364.52L325.32 364.56L323.83 364.89L322.67 365.09L321.42 366.24L320.50 367.43L318.53 371.13L318.13 373.20L317.73 375.03L317.46 376.88L317.21 378.83L317.52 380.84L318.22 382.88L318.76 385.29L319.53 388.62L319.93 390.45L320.42 391.90L320.72 393.22L321.06 394.46L321.30 397.60L321.34 399.27L321.25 401.00L321.27 403.23L321.43 405.32L321.67 407.48L322.50 411.07L323.23 413.05L323.66 415.23L322.75 417.89L322.00 419.87L320.98 422.65L320.69 425.06L320.20 427.81L319.88 431.06L319.64 433.55L320.02 436.20L320.74 438.26L321.29 439.91L322.72 442.03L324.56 441.05L326.24 440.28L328.19 439.08L329.32 436.52L329.27 434.83L329.37 433.12L329.21 431.49L329.48 429.67L330.35 427.65L334.02 425.43L337.61 424.64L342.87 425.48L345.68 426.60L349.20 428.80L351.06 431.35L351.15 426.50L350.87 420.77L350.57 411.21L350.85 405.56L352.19 401.48L354.74 398.52L357.47 398.26L358.73 398.70L359.86 399.22L361.61 399.59L363.32 399.68L364.80 399.44L366.67 398.67L368.88 397.69L371.26 397.58L373.44 397.27L375.35 396.83L376.04 395.41L376.52 394.23L378.03 392.77L378.90 390.02L381.40 388.52L383.82 387.82L384.96 387.01L385.66 385.71L387.27 385.34L388.79 384.86L389.34 383.49L390.51 378.34L392.78 371.01L393.64 369.77L395.29 369.95L396.65 369.51L401.77 367.46L403.59 369.67L406.91 373.22L409.35 375.58L411.24 377.50L412.69 378.66L414.47 380.14L420.24 385.01L423.70 387.85L427.83 391.41L429.34 392.92L430.22 393.75L431.51 394.76L432.59 395.84L434.59 397.52L435.81 397.52L438.28 398.05L439.10 399.26L440.51 400.71L441.79 402.39L442.34 403.39L442.83 404.45L444.24 405.87L445.99 407.34L447.01 409.65L448.03 411.67L448.93 413.61L449.36 415.66L451.06 417.87L452.85 419.37L453.91 420.39L455.14 420.85L456.16 421.65L457.56 423.35L459.19 425.10L459.94 427.04L460.97 428.55L461.97 429.71L463.90 432.52L464.89 434.36L465.67 435.47L467.21 436.69L468.81 438.36L469.91 439.97L471.70 442.12L473.27 443.73L475.46 445.83L478.67 442.99L480.85 441.17L482.47 439.35L483.93 437.92L485.28 436.98L486.48 436.49L488.75 433.97L488.59 432.20L488.42 430.01L488.38 428.19L488.27 426.15L488.16 424.71L488.03 421.85L487.91 419.40L487.85 417.77L486.52 414.97L485.62 413.00L485.79 410.82L488.47 409.92L490.17 409.48L491.57 408.10L492.55 406.33L493.48 404.67L495.42 402.92L496.65 402.15L497.81 401.33L499.49 399.40L500.35 397.02L500.81 395.40L501.21 393.73L501.95 390.33L502.34 388.89L502.66 387.64L502.83 386.11L501.60 383.25L496.84 382.56L494.30 382.45L491.61 382.12L482.17 379.70L481.36 378.89L480.50 378.06L477.70 370.62L477.51 369.50L476.91 366.21L476.45 363.94L474.89 359.43L473.37 356.16L471.80 351.85L471.46 350.54L470.77 347.76L470.31 345.76L469.92 343.92L468.78 339.39L468.37 337.88L469.58 337.45L470.69 337.16L471.97 336.76L473.94 336.48L475.54 336.25L477.45 335.84L478.90 336.28L480.10 336.79L484.10 336.81L488.94 337.30L492.05 336.94L494.26 336.82L497.07 336.68L498.43 336.71L499.69 336.92L499.72 338.58L499.18 341.02L498.89 342.40L500.34 342.91L502.15 343.22L504.41 343.61L506.09 343.97L507.22 343.43L514.91 331.28L524.15 318.47L522.15 312.78L505.44 312.42L503.68 313.02L502.12 313.67L500.15 314.75L496.52 316.63L494.33 317.53L491.63 318.67L490.15 319.19L488.73 319.85L487.22 320.55L485.80 321.23L484.27 321.83L482.91 322.35L480.83 323.18L478.66 324.11L477.12 324.66L475.26 325.14L473.38 325.42L471.96 325.53L469.90 326.85L468.17 327.88L466.83 328.24L465.33 328.66L464.05 329.09L462.01 329.09L461.15 327.89Z" data-ward="13" /><path id="ward-18" class="ward" d="M280.23 241.77L277.61 241.96L275.83 241.97L273.55 241.79L271.16 242.48L268.90 242.71L266.27 242.90L264.47 243.36L263.38 243.86L261.84 245.92L259.83 246.87L257.40 247.82L257.93 248.91L258.72 250.54L258.63 253.91L259.22 258.34L259.05 261.22L259.59 263.13L260.44 265.68L260.46 270.43L260.72 274.55L261.34 278.18L262.05 280.86L263.50 284.17L264.29 289.03L265.88 294.63L266.17 298.67L266.77 302.12L267.59 305.20L268.65 307.65L269.86 311.85L269.97 314.94L271.29 318.38L272.17 322.02L272.67 325.24L272.56 327.71L273.58 331.49L274.72 333.44L274.67 335.78L276.83 337.60L279.12 338.22L280.57 338.61L278.91 341.37L277.69 343.04L276.19 344.88L275.14 346.02L273.31 348.68L271.93 350.22L270.74 352.05L269.27 353.74L268.50 354.92L266.97 356.70L265.93 358.19L265.15 359.03L263.57 361.35L262.40 362.69L261.06 364.32L259.20 366.56L257.73 368.04L258.95 371.61L263.08 374.77L262.67 376.65L261.46 378.10L262.53 379.36L263.96 380.93L264.18 382.17L264.89 384.62L264.67 386.18L263.48 388.14L263.16 389.30L262.03 391.77L261.55 393.31L261.21 395.25L261.84 396.93L262.23 398.33L262.76 399.68L263.71 401.90L263.80 403.29L262.42 404.46L263.16 405.42L265.69 408.20L266.46 409.85L268.18 413.75L268.53 415.11L267.64 416.25L267.08 417.96L268.07 419.45L267.21 421.73L266.18 423.32L261.91 423.31L260.26 422.19L258.49 422.61L255.61 424.04L254.41 432.66L252.85 432.95L252.48 434.68L251.99 436.89L251.72 439.38L251.71 441.47L253.34 442.36L258.30 442.80L260.95 442.75L263.00 443.75L262.97 446.36L262.18 448.75L261.25 451.37L261.69 454.03L263.60 456.31L264.28 458.75L264.31 461.51L264.36 464.12L265.13 465.32L267.58 465.05L270.01 464.60L271.76 464.68L272.97 466.91L274.11 469.53L275.23 471.87L276.75 473.72L278.38 475.70L278.95 476.99L277.07 478.97L275.70 480.91L277.88 482.38L280.35 483.50L280.80 486.14L281.29 488.90L281.25 491.68L280.95 494.38L280.11 496.91L279.59 499.41L278.60 501.69L277.09 502.12L274.75 501.43L272.09 500.80L269.44 499.91L267.04 499.15L264.58 499.97L262.36 506.17L263.27 508.39L260.39 509.84L237.02 486.58L235.67 484.55L234.49 484.39L233.16 484.77L231.92 484.53L231.99 486.09L232.52 488.20L232.65 489.42L232.88 491.97L232.92 494.64L235.10 500.64L236.63 504.31L234.71 505.97L234.20 509.97L231.77 513.10L226.88 516.31L221.69 519.32L217.70 522.84L219.07 528.26L219.17 530.77L220.04 534.42L221.05 535.36L223.82 535.38L224.92 535.72L226.50 536.37L227.70 537.05L229.51 538.06L230.71 539.14L231.61 540.12L233.57 540.88L234.83 541.57L235.97 542.06L237.16 542.31L238.50 543.06L239.87 543.42L241.30 543.69L243.51 544.52L244.48 545.56L245.45 546.45L246.77 547.56L248.50 549.04L249.74 549.51L250.79 550.39L252.57 551.33L253.81 551.98L255.78 552.45L257.01 552.83L257.97 553.56L259.17 553.30L260.84 552.75L263.60 551.48L264.68 551.92L266.34 552.57L267.53 552.51L268.70 552.27L270.19 551.97L273.32 551.70L275.07 550.03L278.15 549.64L279.59 549.75L281.70 548.00L283.88 545.35L285.92 544.76L287.26 544.40L288.53 545.49L288.95 546.62L290.82 546.37L292.42 545.03L293.54 544.14L294.65 543.30L296.36 542.24L297.86 540.52L299.13 538.32L300.93 537.38L301.94 536.45L303.95 535.27L305.82 535.03L307.56 535.50L309.52 536.98L311.36 538.10L314.00 537.43L315.33 536.66L316.67 535.91L318.22 535.26L320.38 534.76L322.48 533.75L323.12 532.43L324.19 531.09L325.56 530.36L325.91 529.21L326.20 527.80L327.35 527.05L328.72 526.65L330.42 524.89L331.59 524.38L332.77 524.21L334.16 522.85L334.73 521.53L336.58 519.62L337.87 517.90L339.05 516.20L340.86 514.76L343.28 513.59L344.88 512.44L346.10 512.51L346.41 509.76L344.92 508.90L343.97 507.82L342.92 506.52L342.86 505.12L343.78 501.28L344.47 498.41L344.91 495.89L345.21 493.44L345.40 491.45L345.73 489.48L346.04 487.92L346.12 486.56L347.40 485.40L348.78 485.46L350.14 485.43L352.12 485.43L353.05 484.64L353.40 482.52L353.62 481.15L353.81 479.94L353.87 477.94L353.93 475.48L353.85 473.01L352.04 472.98L349.79 472.69L348.09 472.08L344.58 470.56L341.27 468.78L338.99 467.69L337.20 466.82L335.75 465.67L334.18 463.99L332.89 463.01L331.91 462.11L328.94 461.44L327.13 461.10L325.46 460.75L323.64 459.96L321.51 458.44L323.53 455.69L324.89 453.98L326.01 452.40L326.90 450.89L327.02 449.59L326.72 448.46L325.43 446.47L324.52 445.23L323.64 443.83L322.72 442.03L321.29 439.91L320.74 438.26L320.02 436.20L319.64 433.55L319.88 431.06L320.20 427.81L320.69 425.06L320.98 422.65L322.00 419.87L322.75 417.89L323.66 415.23L323.23 413.05L322.50 411.07L321.67 407.48L321.43 405.32L321.27 403.23L321.25 401.00L321.34 399.27L321.30 397.60L321.06 394.46L320.72 393.22L320.42 391.90L319.93 390.45L319.53 388.62L318.76 385.29L318.22 382.88L317.52 380.84L317.21 378.83L317.46 376.88L317.73 375.03L318.13 373.20L318.53 371.13L320.50 367.43L321.42 366.24L322.67 365.09L323.83 364.89L325.32 364.56L326.66 364.52L327.86 364.45L329.12 364.04L330.09 363.26L331.91 361.67L333.06 360.78L334.43 359.58L335.46 358.46L336.78 356.97L338.27 355.33L339.23 353.91L340.15 352.60L341.12 351.35L342.67 349.46L344.04 347.69L345.10 346.16L346.04 344.91L346.97 343.52L347.65 342.48L348.58 341.26L349.45 340.15L350.31 338.97L351.29 337.64L352.34 336.23L353.07 335.37L353.86 334.54L354.54 333.60L353.62 332.32L352.32 330.99L351.46 330.20L350.12 329.16L348.81 328.34L347.81 327.53L346.53 326.50L345.39 325.58L344.44 324.89L343.30 323.69L341.68 322.43L340.34 321.42L338.96 320.40L338.10 319.29L337.06 318.23L336.02 317.19L335.11 316.30L333.26 315.06L330.80 314.28L329.67 313.94L328.25 313.47L326.70 312.85L324.89 311.94L323.35 310.93L321.49 310.22L319.48 309.16L318.29 308.29L317.03 307.16L315.82 306.11L314.32 304.83L312.48 303.79L310.96 302.94L309.78 302.21L308.45 301.52L307.23 300.68L305.84 299.82L304.16 298.83L302.34 297.49L300.68 296.34L299.45 295.08L298.06 293.44L296.79 292.21L295.68 291.12L294.63 290.14L293.59 289.37L292.37 288.87L290.78 288.25L289.43 287.98L287.94 287.55L288.07 286.11L288.64 283.83L289.06 281.76L289.53 280.49L308.27 270.03L307.01 267.81L304.87 265.49L302.97 263.44L301.35 261.96L300.34 260.16L299.12 259.12L297.87 257.93L296.78 256.50L295.80 255.20L294.21 253.58L292.60 251.16L290.53 249.26L289.01 247.20L287.29 245.22L285.31 243.81L283.66 242.04L281.74 242.06L280.23 241.77Z" data-ward="18" /><path id="ward-3" class="ward" d="M298.40 193.06L296.69 192.30L294.92 190.98L293.27 189.82L291.72 188.04L290.15 188.13L289.28 192.92L287.79 197.65L287.21 199.69L270.41 209.82L268.22 211.17L266.49 213.20L265.88 214.48L263.72 215.84L261.43 216.88L261.40 218.57L262.16 219.84L263.47 222.43L263.91 225.26L263.57 228.25L263.27 231.20L263.29 233.08L261.67 234.03L259.17 234.77L256.53 236.26L254.86 237.52L253.36 239.41L252.77 240.60L253.15 242.27L254.88 243.91L255.38 244.94L256.20 246.63L257.40 247.82L259.83 246.87L261.84 245.92L263.38 243.86L264.47 243.36L266.27 242.90L268.90 242.71L271.16 242.48L273.55 241.79L275.83 241.97L277.61 241.96L280.23 241.77L281.74 242.06L283.66 242.04L285.31 243.81L287.29 245.22L289.01 247.20L290.53 249.26L292.60 251.16L294.21 253.58L295.80 255.20L296.78 256.50L297.87 257.93L299.12 259.12L300.34 260.16L301.35 261.96L302.97 263.44L304.87 265.49L307.01 267.81L308.27 270.03L289.53 280.49L289.06 281.76L288.64 283.83L288.07 286.11L287.94 287.55L289.43 287.98L290.78 288.25L292.37 288.87L293.59 289.37L294.63 290.14L295.68 291.12L296.79 292.21L298.06 293.44L299.45 295.08L300.68 296.34L302.34 297.49L304.16 298.83L305.84 299.82L307.23 300.68L308.45 301.52L309.78 302.21L310.96 302.94L312.48 303.79L314.32 304.83L315.82 306.11L317.03 307.16L318.29 308.29L319.48 309.16L321.49 310.22L323.35 310.93L324.89 311.94L326.70 312.85L328.25 313.47L329.67 313.94L330.80 314.28L333.26 315.06L335.11 316.30L336.02 317.19L337.06 318.23L338.10 319.29L338.96 320.40L340.34 321.42L341.68 322.43L343.30 323.69L344.44 324.89L345.39 325.58L346.53 326.50L347.81 327.53L348.81 328.34L350.12 329.16L351.46 330.20L352.32 330.99L353.62 332.32L354.54 333.60L356.16 332.20L356.93 330.97L357.63 329.54L358.41 328.66L360.76 327.31L362.30 326.90L363.82 330.86L370.09 341.64L370.66 342.63L371.50 344.08L372.67 345.37L374.30 347.43L376.29 348.91L377.95 350.04L382.07 351.16L387.34 353.83L389.92 355.08L392.98 356.91L395.47 358.41L396.53 358.96L397.70 356.97L400.29 354.51L402.58 352.62L404.81 349.41L403.91 346.53L404.74 343.37L405.92 343.19L409.25 342.96L411.41 342.53L413.09 343.12L413.64 345.70L415.50 344.90L415.55 341.43L415.83 339.24L416.18 336.87L416.36 334.16L416.66 331.17L416.81 329.88L417.08 328.39L417.49 326.55L417.71 325.19L418.10 323.72L418.35 322.25L419.04 320.87L419.90 320.12L420.88 319.45L422.77 316.90L424.14 315.03L425.58 312.34L427.23 309.84L430.23 305.64L432.29 303.43L433.88 300.88L435.03 301.27L436.17 299.30L438.12 297.89L440.47 296.66L442.25 295.52L444.70 294.21L446.68 293.11L447.69 292.49L448.59 291.30L447.29 290.19L445.83 288.95L442.68 286.68L440.86 285.27L439.53 284.27L438.20 283.48L436.62 282.63L435.30 281.89L433.19 281.29L433.31 280.06L433.88 278.49L434.52 277.35L435.89 275.74L437.29 274.26L438.04 273.06L438.19 269.69L436.32 268.88L436.72 267.44L437.02 265.91L437.76 264.45L439.18 263.63L440.28 261.85L440.25 260.69L440.16 257.83L440.52 255.49L440.27 253.50L440.21 251.59L440.01 249.38L439.98 247.14L440.29 245.41L440.38 244.00L440.58 242.76L440.81 241.29L441.53 238.79L441.89 236.61L443.87 233.41L441.49 229.95L438.47 223.61L439.19 216.60L442.09 209.14L442.28 207.78L439.29 207.34L437.25 207.01L435.75 206.89L434.40 206.83L432.95 206.09L431.25 205.13L429.70 204.54L427.71 203.97L425.49 203.90L422.60 203.80L421.21 203.56L420.18 202.66L419.23 201.62L418.10 200.77L413.51 199.41L408.26 198.07L403.36 196.12L399.29 194.18L394.03 195.05L388.63 196.58L384.77 192.98L383.14 191.84L379.33 195.56L375.31 199.30L373.46 199.82L369.91 196.07L365.93 199.91L361.73 203.31L358.89 205.34L356.97 204.37L355.81 201.90L354.34 201.35L352.08 200.90L348.86 200.86L344.39 198.40L341.39 195.12L338.62 194.39L336.12 193.26L334.10 192.08L332.61 193.60L331.25 195.88L329.68 200.74L328.54 205.41L326.74 210.05L324.98 213.05L323.23 212.44L321.45 211.10L319.77 209.58L317.84 208.39L315.97 206.87L314.16 204.77L312.56 202.23L311.02 199.15L309.08 196.94L307.28 195.33L305.43 193.89L303.72 193.25L302.18 193.08L300.27 193.10L298.40 193.06Z" data-ward="3" /><path id="ward-12" class="ward" d="M537.92 322.79L535.26 321.79L533.78 321.53L524.15 318.47L514.91 331.28L507.22 343.43L506.09 343.97L504.41 343.61L502.15 343.22L500.34 342.91L498.89 342.40L499.18 341.02L499.72 338.58L499.69 336.92L498.43 336.71L497.07 336.68L494.26 336.82L492.05 336.94L488.94 337.30L484.10 336.81L480.10 336.79L478.90 336.28L477.45 335.84L475.54 336.25L473.94 336.48L471.97 336.76L470.69 337.16L469.58 337.45L468.37 337.88L468.78 339.39L469.92 343.92L470.31 345.76L470.77 347.76L471.46 350.54L471.80 351.85L473.37 356.16L474.89 359.43L476.45 363.94L476.91 366.21L477.51 369.50L477.70 370.62L480.50 378.06L481.36 378.89L482.17 379.70L491.61 382.12L494.30 382.45L496.84 382.56L501.60 383.25L502.83 386.11L502.66 387.64L502.34 388.89L501.95 390.33L501.21 393.73L500.81 395.40L500.35 397.02L499.49 399.40L497.81 401.33L496.65 402.15L495.42 402.92L493.48 404.67L492.55 406.33L491.57 408.10L490.17 409.48L488.47 409.92L485.79 410.82L485.62 413.00L486.52 414.97L487.85 417.77L487.91 419.40L488.03 421.85L488.16 424.71L488.27 426.15L488.38 428.19L488.42 430.01L488.59 432.20L488.75 433.97L488.82 435.84L488.97 438.89L489.00 441.35L490.61 443.12L492.43 443.95L495.17 445.25L496.96 446.13L498.67 447.07L501.56 447.55L504.56 447.63L506.50 447.47L508.85 447.32L510.30 447.40L512.79 447.67L515.00 447.92L516.58 447.72L515.16 446.42L514.89 444.60L514.75 443.20L514.17 441.56L513.41 439.51L514.79 439.34L516.41 439.20L517.75 438.52L518.37 436.14L517.74 432.87L517.72 429.89L517.86 426.72L518.19 421.84L520.52 422.13L523.81 422.39L525.78 422.89L529.11 422.59L535.24 426.04L535.77 423.90L535.84 422.41L536.24 420.75L537.13 419.37L538.06 418.55L540.18 417.19L541.69 415.15L543.00 413.31L542.51 411.78L541.55 409.74L540.67 407.95L539.81 406.29L539.00 404.46L537.93 402.31L538.96 401.53L540.69 401.40L540.36 393.16L540.04 389.52L541.14 386.25L542.14 382.89L542.71 378.62L544.32 379.74L547.70 382.20L549.77 383.33L553.05 383.88L555.66 384.15L557.62 384.74L559.30 385.66L560.71 386.38L562.07 386.45L563.87 386.14L563.70 383.80L564.41 379.31L564.81 376.82L565.77 375.92L568.32 376.12L569.96 376.02L572.34 376.89L575.18 377.43L576.27 375.91L576.99 374.29L579.08 372.96L580.94 372.62L582.72 371.92L579.37 366.51L575.67 360.60L574.16 358.59L573.38 357.18L572.64 355.67L570.52 352.27L568.85 349.57L566.77 348.70L565.98 347.76L563.68 345.76L563.30 344.67L541.98 324.66L540.41 324.26L539.01 324.79L537.92 322.79Z" data-ward="12" /></svg>