<svg viewBox="0 0 1000.00 1003.67" xmlns="http://www.w3.org/2000/svg"><style>.ward { fill: #e2e8f0; stroke: #fff; stroke-width: 0.5px; } .ward:hover { fill: #cbd5e1; }</style><path id="ward-21" class="ward" d="M317.67 308.96L313.76 308.15L313.28 304.04L312.10 300.79L308.64 298.71L303.14 297.48L299.71 294.36L295.09 291.21L291.26 289.64L288.51 291.90L284.69 293.07L280.22 295.00L275.90 297.76L271.72 300.04L267.68 301.90L262.52 304.97L262.48 309.68L262.42 313.59L262.68 316.90L264.68 320.49L264.97 324.35L264.30 329.17L264.31 333.22L264.64 336.41L264.69 340.03L265.35 343.67L267.83 346.48L269.31 350.85L270.47 354.98L272.17 359.30L272.07 362.62L267.30 363.03L261.72 364.37L258.48 365.11L255.36 366.07L251.93 366.65L247.64 367.11L243.74 367.17L240.19 367.45L236.70 366.89L233.39 366.16L229.57 365.82L226.38 365.64L222.77 365.33L219.69 364.75L215.58 363.85L213.07 362.05L209.41 361.56L204.18 361.14L200.98 360.94L197.19 360.37L192.85 360.21L188.43 360.10L184.28 360.13L180.14 360.16L177.74 373.10L174.29 380.46L170.66 382.89L168.37 385.17L165.11 388.93L160.28 396.98L156.66 405.78L154.08 413.94L159.39 418.30L164.32 420.20L169.10 422.29L172.78 424.54L178.17 427.21L181.40 429.62L185.02 430.84L189.03 431.53L192.78 430.67L196.33 431.90L200.74 433.26L204.09 434.94L206.72 436.73L210.26 438.59L214.42 437.12L219.38 437.46L223.17 437.36L226.14 439.62L227.74 443.97L230.89 445.68L235.65 446.76L236.28 449.84L239.71 450.43L244.72 452.45L247.95 453.12L258.31 455.27L263.31 458.55L267.89 459.63L274.06 463.15L277.87 464.39L282.74 466.00L285.90 467.07L289.06 468.14L291.24 466.03L296.47 464.94L304.46 465.78L315.08 467.41L315.61 460.04L316.07 454.33L316.32 450.80L316.68 446.18L316.91 443.14L317.12 439.41L316.40 433.76L315.71 428.91L315.72 425.09L320.12 422.19L323.58 422.05L326.80 421.93L330.53 421.85L334.52 421.96L338.44 421.62L339.17 418.60L339.31 415.45L339.75 412.12L340.45 408.40L341.26 403.30L342.63 397.91L343.72 394.74L345.56 390.25L347.03 387.19L349.39 383.33L350.18 379.44L348.72 376.24L346.14 373.33L343.39 370.24L341.00 367.71L338.12 365.31L336.61 360.34L335.31 356.67L334.51 353.73L335.91 350.84L336.87 346.99L338.56 343.70L340.72 338.49L342.25 334.36L344.70 329.22L346.96 325.24L349.25 322.42L350.07 318.04L351.33 314.39L347.22 310.92L343.67 309.90L339.03 307.76L335.02 306.92L330.48 307.34L325.92 308.60L321.87 309.21L317.67 308.96Z" data-ward="21" /><path id="ward-8" class="ward" d="M808.85 221.77L803.56 222.88L799.59 223.85L796.02 224.01L792.60 221.75L787.98 223.27L783.85 224.90L779.58 225.94L775.92 228.00L776.84 234.12L776.84 238.34L776.82 242.70L777.01 246.19L777.21 249.68L776.84 254.60L777.13 258.25L775.28 261.22L772.31 262.99L769.94 266.51L767.35 269.99L761.57 274.73L756.23 277.79L752.46 278.28L749.30 279.00L745.03 277.54L741.86 279.05L739.10 280.61L736.23 281.69L735.26 284.77L735.82 288.52L736.23 292.69L735.29 297.32L734.37 301.87L735.51 310.06L736.30 314.07L736.98 318.52L739.17 330.78L739.17 335.79L739.24 342.49L740.64 350.24L741.44 354.01L740.72 361.06L745.56 366.23L750.40 371.40L753.30 376.16L756.58 381.55L760.26 387.57L761.88 396.67L762.57 400.55L763.62 406.47L764.70 412.55L768.79 417.98L775.20 426.49L778.42 430.76L780.74 433.85L783.11 436.99L785.80 440.57L789.89 446.89L795.02 447.72L803.81 449.15L861.81 458.73L873.68 460.79L875.84 454.91L880.46 428.63L883.11 413.57L883.88 409.63L884.68 404.13L888.38 372.71L891.11 347.55L894.72 342.90L896.98 339.97L905.46 329.03L916.15 315.22L910.21 312.16L905.39 309.67L902.00 307.61L897.28 304.74L897.05 300.60L896.29 287.64L883.29 285.46L879.55 286.33L874.68 287.80L867.29 297.57L863.27 302.90L858.12 305.47L853.02 308.01L845.17 298.13L840.02 293.27L834.14 293.08L829.13 289.60L826.24 286.79L821.79 281.03L816.06 273.52L814.28 270.70L812.44 263.72L811.83 260.13L810.42 255.07L808.65 248.71L809.58 243.10L809.39 228.77L808.85 221.77Z" data-ward="8" /><path id="ward-11" class="ward" d="M573.83 816.68L583.14 817.45L591.66 818.33L598.15 817.07L604.92 814.07L605.88 809.24L614.74 801.14L614.09 790.73L615.04 785.36L616.01 779.89L615.28 776.68L614.54 773.48L615.61 768.22L620.38 765.44L632.39 763.83L643.99 762.59L648.24 760.70L653.95 758.17L660.45 757.00L669.44 755.39L672.89 754.81L676.16 753.80L682.09 766.53L691.74 765.18L698.98 764.17L697.94 761.21L697.29 755.37L696.98 748.09L699.41 745.20L701.49 742.52L703.27 739.38L706.75 730.65L708.05 727.30L709.52 724.13L711.12 720.69L713.86 715.22L715.29 712.33L717.00 709.83L719.29 706.59L720.92 703.48L720.43 700.28L716.35 699.39L712.27 698.51L708.97 698.34L703.94 697.89L699.75 696.49L699.01 692.27L697.02 689.27L692.97 684.94L690.25 682.11L690.35 678.81L691.04 672.99L692.27 668.22L694.28 664.55L696.45 659.11L692.40 656.04L684.82 652.15L679.89 649.46L674.20 641.94L672.49 637.82L671.20 632.97L669.74 627.47L674.49 622.92L680.39 618.85L683.45 614.92L685.63 612.69L690.83 606.17L691.45 601.83L694.32 600.85L697.18 599.34L700.98 596.92L703.23 594.76L707.22 591.89L708.25 587.03L708.08 583.62L708.15 580.38L707.91 576.97L708.12 573.45L708.94 570.46L710.37 566.91L714.13 564.94L717.72 563.25L720.96 562.59L727.46 562.05L734.07 553.48L735.41 548.62L736.92 543.19L737.56 539.09L739.10 534.60L740.12 530.80L741.11 527.88L742.28 524.86L722.12 523.29L714.56 522.71L709.64 522.33L686.53 520.47L681.26 518.44L675.79 516.43L673.37 520.18L669.50 526.63L666.72 531.28L665.23 534.08L658.62 546.51L654.93 546.45L648.84 546.36L644.17 546.28L639.26 546.41L633.87 544.97L628.49 543.52L620.09 550.08L614.04 554.81L609.44 560.40L604.89 561.00L598.76 562.45L598.30 570.68L596.13 578.99L592.50 580.89L587.56 599.45L584.49 606.10L582.71 609.30L581.99 616.20L580.15 624.32L577.64 634.80L577.00 639.59L575.36 643.30L572.83 649.18L568.26 662.65L565.37 671.16L565.86 686.93L566.03 692.06L568.36 698.88L569.30 705.71L568.35 712.23L563.50 735.31L558.71 738.03L555.62 740.09L552.02 741.36L549.36 742.77L551.44 753.82L552.40 758.86L553.84 774.56L554.69 783.25L554.00 799.08L555.85 804.25L559.92 810.49L563.19 812.57L566.34 812.64L571.36 814.76L573.83 816.68Z" data-ward="11" /><path id="ward-12" class="ward" d="M815.52 502.32L813.44 499.96L808.80 494.65L804.46 490.36L802.23 484.20L800.98 474.29L798.61 468.30L796.38 462.66L794.77 458.14L791.12 450.58L789.89 446.89L785.80 440.57L783.11 436.99L780.74 433.85L778.42 430.76L775.20 426.49L768.79 417.98L764.70 412.55L763.62 406.47L762.57 400.55L761.88 396.67L760.26 387.57L756.58 381.55L753.30 376.16L750.40 371.40L745.56 366.23L740.72 361.06L735.27 356.17L714.36 351.91L651.04 338.29L635.97 336.33L618.13 333.76L605.55 331.32L580.34 325.31L571.79 323.96L566.66 323.13L554.41 320.88L543.98 318.65L541.00 317.89L540.71 325.08L540.30 328.30L539.23 338.78L540.26 342.08L541.73 346.82L549.53 353.54L553.06 356.40L557.18 359.41L559.66 362.54L560.59 369.43L560.93 372.44L561.05 385.31L561.85 389.30L564.22 395.73L565.70 398.84L569.22 405.78L570.80 411.02L571.71 418.95L572.41 425.98L572.99 431.85L576.17 447.03L579.16 457.80L587.69 496.17L588.83 502.79L594.31 502.96L598.08 502.92L599.43 507.49L612.45 510.07L619.63 510.82L624.97 512.72L630.65 513.64L638.18 514.57L643.04 514.89L647.85 513.27L650.53 511.51L655.76 511.81L666.13 513.90L675.79 516.43L681.26 518.44L686.53 520.47L709.64 522.33L714.56 522.71L722.12 523.29L742.28 524.86L745.66 525.10L751.49 525.78L754.95 526.10L760.24 526.59L764.99 527.01L768.61 527.63L773.34 527.81L778.01 528.37L783.44 528.61L786.85 528.89L791.67 529.31L794.81 529.55L799.90 530.14L803.15 530.59L807.95 531.11L810.99 531.25L815.22 531.46L821.22 531.74L825.83 530.85L830.13 530.50L836.61 530.03L841.74 529.35L839.53 526.28L836.19 521.66L833.47 517.88L831.61 515.30L828.00 511.56L823.13 507.71L815.52 502.32Z" data-ward="12" /><path id="ward-7" class="ward" d="M920.63 132.64L919.12 128.49L912.39 126.68L909.48 125.35L904.50 123.51L899.63 121.71L896.49 117.56L892.77 114.44L888.27 112.89L886.73 109.60L883.70 106.07L882.31 102.41L881.12 99.04L880.10 96.16L877.42 92.44L872.43 86.35L866.63 83.47L860.95 82.13L859.26 105.92L860.55 111.57L861.93 115.81L859.03 132.20L856.77 134.50L851.50 133.43L845.66 131.81L840.22 130.50L835.75 128.63L822.22 123.31L814.82 123.36L813.43 132.80L812.93 135.92L811.29 146.52L808.61 152.56L809.78 156.99L808.20 160.97L805.97 163.77L802.67 169.22L800.44 175.86L799.30 181.26L800.82 185.90L802.74 188.37L804.34 191.19L806.26 194.22L809.06 198.47L810.59 203.48L810.97 207.14L810.94 210.41L810.63 214.91L810.32 219.05L808.85 221.77L809.39 228.77L809.58 243.10L808.65 248.71L810.42 255.07L811.83 260.13L812.44 263.72L814.28 270.70L816.06 273.52L821.79 281.03L826.24 286.79L829.13 289.60L834.14 293.08L840.02 293.27L845.17 298.13L853.02 308.01L858.12 305.47L863.27 302.90L867.29 297.57L874.68 287.80L879.55 286.33L883.29 285.46L896.29 287.64L897.05 300.60L897.28 304.74L902.00 307.61L905.39 309.67L910.21 312.16L916.15 315.22L922.11 318.31L925.46 320.05L930.04 322.26L935.49 324.87L950.58 331.63L954.56 330.97L956.43 324.77L957.92 319.81L963.73 302.87L964.93 299.38L971.10 302.15L977.91 305.21L978.52 300.22L979.03 296.01L979.49 292.23L980.24 286.13L980.90 278.96L980.74 274.20L981.24 270.40L982.59 267.36L985.30 261.14L988.40 257.97L991.47 255.46L994.76 250.77L1000.00 245.55L999.76 242.36L993.93 238.38L987.41 234.98L983.53 233.15L977.17 230.16L973.53 228.40L970.74 225.70L968.29 221.85L962.46 218.09L957.98 218.84L954.68 219.82L951.55 221.60L949.87 218.09L948.19 214.59L945.19 207.07L949.00 202.54L952.17 200.51L950.04 196.20L948.63 193.51L946.81 190.02L943.65 185.55L941.61 182.23L939.76 179.14L938.21 176.40L935.94 171.91L934.19 167.13L932.79 162.33L931.56 157.87L930.23 154.39L928.84 151.21L926.83 146.70L925.56 143.88L922.73 138.19L920.63 132.64Z" data-ward="7" /><path id="ward-15" class="ward" d="M502.89 644.45L499.14 643.02L497.76 640.21L498.09 635.14L495.11 634.24L489.74 631.09L486.28 630.99L483.14 630.85L480.12 630.36L476.12 628.76L473.69 626.66L471.55 623.06L408.77 654.77L403.40 656.32L396.61 657.87L391.30 659.08L386.30 640.83L372.66 639.37L355.25 672.18L353.96 675.89L352.64 679.68L353.01 682.95L353.58 685.98L354.03 689.04L353.73 692.31L353.60 697.33L353.01 701.22L350.77 704.67L348.79 706.96L349.22 712.18L348.79 716.17L348.62 719.85L348.25 723.75L347.70 726.94L347.49 731.21L346.84 734.16L347.31 738.05L350.05 739.42L353.68 740.53L356.67 741.78L357.47 745.30L360.58 745.98L363.97 746.49L367.76 746.30L370.85 746.00L374.03 745.06L376.18 747.78L376.92 751.06L377.04 754.77L377.05 758.01L377.46 762.45L378.03 766.02L377.78 769.21L377.52 773.26L376.53 777.94L375.58 782.42L375.13 786.16L374.72 789.76L375.43 793.97L376.08 797.72L375.59 801.29L372.87 803.27L369.77 802.87L367.45 804.95L365.66 807.50L364.97 811.00L364.75 814.34L363.79 822.11L360.68 823.35L356.67 822.92L353.29 822.96L352.64 826.59L352.08 829.66L351.79 833.11L351.10 836.90L350.80 840.45L349.95 843.82L349.10 847.77L348.59 850.84L347.23 853.59L344.50 857.26L343.35 860.49L342.77 863.70L337.19 874.16L327.20 877.30L324.00 877.59L321.13 881.15L318.61 884.33L318.96 887.70L318.15 892.34L318.17 896.29L318.41 903.49L314.34 904.71L307.71 905.64L304.72 906.79L300.36 908.14L295.91 911.79L293.19 910.35L287.24 912.19L281.28 914.04L272.56 917.12L274.67 927.29L276.90 938.53L280.01 943.76L286.61 955.26L291.04 964.81L292.90 968.81L298.89 968.32L301.94 972.30L304.10 979.34L305.67 984.46L304.38 991.25L303.16 997.62L304.04 1003.67L316.23 994.14L320.63 990.69L325.99 986.95L330.81 989.08L335.15 986.38L339.18 984.76L341.95 983.56L345.83 981.89L351.23 979.57L356.87 977.14L360.83 979.02L367.61 982.23L371.58 984.70L375.09 984.38L378.35 983.67L382.14 983.73L386.68 984.41L389.70 984.86L392.91 985.35L395.89 980.45L399.52 974.51L403.11 974.10L404.75 964.24L405.92 961.08L408.51 949.67L404.84 948.66L400.68 947.42L389.44 947.97L386.17 947.54L376.60 946.52L370.66 945.93L367.48 945.63L364.56 944.76L364.16 941.51L363.18 933.72L364.00 928.31L367.32 921.97L368.44 918.67L371.17 916.94L372.71 913.83L373.70 910.23L372.45 905.29L371.84 896.18L371.84 892.22L371.86 885.80L374.74 878.73L378.32 871.58L380.82 868.57L383.18 865.70L392.29 857.71L395.42 854.96L401.00 853.01L406.57 851.31L411.28 849.39L417.46 846.36L422.14 846.04L427.25 841.17L429.81 838.93L432.20 834.84L433.78 831.95L437.05 826.76L439.59 823.28L442.04 819.88L445.13 815.37L449.48 809.78L447.78 804.02L450.12 800.54L451.37 797.08L449.55 793.48L449.56 788.99L449.57 784.78L455.85 768.31L457.85 758.40L458.47 755.41L462.29 728.90L463.18 725.80L467.77 729.06L471.06 732.64L473.07 735.18L477.22 739.02L482.37 743.79L491.88 744.72L491.98 737.91L495.33 734.89L499.05 733.08L502.89 731.04L506.10 728.89L508.70 726.83L511.95 724.60L515.51 723.09L518.50 720.86L517.42 716.99L517.30 713.65L517.91 710.19L516.57 707.02L516.41 703.68L517.70 699.80L522.70 702.34L526.44 703.68L529.43 702.57L534.39 697.93L537.36 694.74L538.97 692.00L540.26 689.04L542.54 685.12L543.84 681.61L545.29 678.48L543.29 676.17L540.28 675.54L537.39 674.64L536.15 671.55L535.80 668.01L535.34 664.62L535.08 660.89L534.44 655.97L533.70 652.52L531.90 648.02L530.22 645.15L527.71 643.06L524.65 643.66L521.45 644.60L514.25 645.55L510.67 644.93L506.50 645.51L502.89 644.45Z" data-ward="15" /><path id="ward-3" class="ward" d="M565.70 398.84L564.22 395.73L561.85 389.30L561.05 385.31L560.93 372.44L560.59 369.43L559.66 362.54L557.18 359.41L553.06 356.40L549.53 353.54L541.73 346.82L540.26 342.08L539.23 338.78L540.30 328.30L540.71 325.08L541.00 317.89L537.74 315.58L534.14 314.12L528.55 310.49L525.04 306.90L522.87 302.96L520.52 299.07L519.08 296.14L517.65 292.48L516.35 289.28L513.48 280.33L510.16 271.30L501.00 246.26L498.72 257.40L499.54 261.82L496.54 267.57L495.50 271.14L493.95 274.88L489.48 281.52L479.62 299.03L470.80 311.95L467.18 316.72L465.20 320.16L463.45 322.73L457.61 330.77L454.63 331.99L451.48 335.36L444.20 347.09L441.60 350.49L439.36 354.93L437.92 357.77L436.90 360.96L436.48 364.36L436.31 367.98L433.98 374.66L432.31 377.80L429.80 382.53L427.74 386.45L425.61 393.45L425.54 398.80L417.92 403.63L408.71 401.57L405.57 401.76L403.81 404.87L402.13 409.53L399.95 417.36L399.61 420.99L399.22 425.22L399.75 428.54L403.12 432.35L401.10 440.01L401.15 445.03L397.96 450.40L394.89 452.05L394.91 456.20L394.82 459.81L394.71 465.00L395.73 469.72L398.49 479.51L401.63 480.84L406.25 481.14L414.12 480.80L417.91 481.41L423.05 481.58L426.09 481.43L429.40 481.57L436.74 480.38L438.43 477.05L438.79 472.60L446.23 467.56L452.48 467.99L458.87 467.70L462.76 466.56L471.54 462.10L474.74 459.83L478.68 458.90L483.22 457.97L488.70 456.32L491.00 452.95L497.30 449.52L501.84 440.64L512.25 439.17L516.88 435.60L520.35 420.12L523.65 415.14L529.40 406.45L535.12 400.12L549.07 400.19L553.67 401.47L560.57 403.38L565.18 404.66L569.22 405.78L565.70 398.84Z" data-ward="3" /><path id="ward-19" class="ward" d="M185.02 430.84L181.40 429.62L178.17 427.21L172.78 424.54L169.10 422.29L164.32 420.20L159.39 418.30L154.07 419.58L153.74 424.77L151.87 430.98L144.04 433.78L133.65 436.29L125.28 436.75L115.22 438.13L110.39 438.67L106.28 440.72L104.27 444.73L102.01 450.26L98.64 456.67L96.24 460.01L93.45 462.56L89.90 465.21L85.76 466.69L81.68 467.23L75.29 467.92L70.73 466.41L64.89 466.60L58.67 467.22L52.43 470.34L46.49 473.60L41.84 477.02L38.30 481.65L34.14 486.49L30.41 490.84L28.04 495.51L24.05 498.42L20.33 500.16L17.15 502.15L12.51 504.82L10.20 508.67L7.11 513.14L5.02 517.80L3.67 521.00L2.93 523.94L1.33 527.07L0.00 531.93L0.84 535.89L4.17 538.07L7.16 538.68L10.56 539.34L13.75 539.67L17.04 539.97L21.88 540.12L27.31 540.53L31.71 541.59L36.83 544.69L40.68 548.02L44.02 551.75L47.06 555.98L49.46 559.89L52.21 564.16L55.06 567.55L57.99 569.98L60.57 566.86L63.88 565.09L67.59 564.07L71.36 562.67L77.00 560.22L81.16 559.15L85.60 558.53L88.55 556.70L91.06 554.09L93.65 551.47L96.34 549.37L100.68 545.11L105.85 543.79L114.08 543.80L118.14 543.49L121.31 541.90L119.92 537.45L118.39 533.64L116.12 530.72L117.18 527.09L128.64 526.92L132.42 526.94L141.25 527.88L144.84 528.11L148.43 528.34L154.85 528.61L160.68 527.81L165.95 526.88L171.23 525.96L175.16 525.08L180.94 523.79L188.59 522.26L193.59 521.39L205.52 519.43L220.68 522.37L231.76 527.35L239.32 531.17L245.59 533.63L250.54 534.70L256.23 533.52L265.73 534.07L267.87 536.23L272.35 537.09L275.88 538.19L279.64 539.02L284.77 542.79L286.53 545.45L289.91 542.82L292.85 540.09L296.24 536.20L299.92 531.67L303.97 531.01L305.84 534.17L308.18 538.11L311.12 542.47L316.33 546.69L320.97 546.49L326.87 544.79L331.60 544.38L331.55 541.03L332.36 537.85L319.92 520.61L318.94 516.61L317.24 511.81L315.77 508.82L314.33 505.17L314.13 495.89L314.68 491.05L311.28 489.21L307.99 487.82L310.65 483.56L312.13 480.70L313.66 477.97L314.44 474.72L315.15 471.17L315.08 467.41L304.46 465.78L296.47 464.94L291.24 466.03L289.06 468.14L285.90 467.07L282.74 466.00L277.87 464.39L274.06 463.15L267.89 459.63L263.31 458.55L258.31 455.27L247.95 453.12L244.72 452.45L239.71 450.43L236.28 449.84L235.65 446.76L230.89 445.68L227.74 443.97L226.14 439.62L223.17 437.36L219.38 437.46L214.42 437.12L210.26 438.59L206.72 436.73L204.09 434.94L200.74 433.26L196.33 431.90L192.78 430.67L189.03 431.53L185.02 430.84Z" data-ward="19" /><path id="ward-5" class="ward" d="M651.85 148.40L647.72 146.72L644.27 144.33L639.93 142.83L637.09 141.57L632.89 139.15L629.39 149.06L628.91 154.01L627.21 157.89L622.75 164.88L624.50 167.48L623.97 172.33L623.62 177.20L623.90 182.51L626.05 200.33L627.04 205.41L628.04 210.49L629.13 215.24L640.90 233.82L646.04 234.46L648.35 239.38L649.93 242.73L637.68 262.61L637.89 267.74L638.43 273.77L643.90 277.12L646.24 279.90L647.38 284.99L648.89 288.28L652.47 288.09L657.97 288.68L661.18 287.74L664.64 288.10L669.26 288.37L673.14 287.88L677.31 288.75L680.59 289.53L683.76 289.67L687.84 289.77L691.15 290.31L695.94 290.74L700.64 289.76L703.54 288.68L706.60 288.28L709.68 286.94L713.74 285.91L716.51 284.62L719.80 283.08L722.98 282.31L726.29 281.76L736.23 281.69L739.10 280.61L741.86 279.05L745.03 277.54L749.30 279.00L752.46 278.28L756.23 277.79L761.57 274.73L767.35 269.99L769.94 266.51L772.31 262.99L775.28 261.22L777.13 258.25L776.84 254.60L777.21 249.68L777.01 246.19L776.82 242.70L776.84 238.34L776.84 234.12L775.92 228.00L779.58 225.94L783.85 224.90L787.98 223.27L792.60 221.75L796.02 224.01L799.59 223.85L803.56 222.88L808.85 221.77L810.32 219.05L810.63 214.91L810.94 210.41L810.97 207.14L810.59 203.48L809.06 198.47L806.26 194.22L804.34 191.19L802.74 188.37L800.82 185.90L799.30 181.26L800.44 175.86L802.67 169.22L805.97 163.77L808.20 160.97L809.78 156.99L808.61 152.56L801.37 152.71L798.23 154.95L793.86 160.64L790.03 163.90L787.37 165.88L784.60 168.04L782.28 170.86L779.39 172.22L776.49 173.75L773.19 174.38L769.71 175.11L766.28 174.10L764.68 169.60L760.06 168.96L756.13 168.41L752.97 167.98L748.56 166.58L741.97 165.18L730.04 164.22L724.04 160.20L719.32 159.53L700.70 152.89L664.53 139.86L662.25 143.86L658.40 151.31L651.85 148.40Z" data-ward="5" /><path id="ward-13" class="ward" d="M588.83 502.79L587.69 496.17L579.16 457.80L576.17 447.03L572.99 431.85L572.41 425.98L571.71 418.95L570.80 411.02L569.22 405.78L565.18 404.66L560.57 403.38L553.67 401.47L549.07 400.19L535.12 400.12L529.40 406.45L523.65 415.14L520.35 420.12L516.88 435.60L512.25 439.17L501.84 440.64L497.30 449.52L491.00 452.95L488.70 456.32L491.87 459.92L492.78 463.01L494.63 469.22L496.32 479.28L496.88 482.72L497.40 485.78L498.33 489.72L495.07 494.48L491.88 499.12L490.13 501.69L485.50 508.35L487.05 511.45L489.18 515.69L491.55 520.41L494.50 526.28L496.01 529.31L497.23 532.54L498.45 535.78L505.73 556.30L498.26 557.39L477.55 561.78L480.01 568.37L505.84 561.92L529.19 556.14L543.24 561.63L592.50 580.89L596.13 578.99L598.30 570.68L598.76 562.45L604.89 561.00L609.44 560.40L614.04 554.81L620.09 550.08L628.49 543.52L633.87 544.97L639.26 546.41L644.17 546.28L648.84 546.36L654.93 546.45L658.62 546.51L665.23 534.08L666.72 531.28L669.50 526.63L673.37 520.18L675.79 516.43L666.13 513.90L655.76 511.81L650.53 511.51L647.85 513.27L643.04 514.89L638.18 514.57L630.65 513.64L624.97 512.72L619.63 510.82L612.45 510.07L599.43 507.49L598.08 502.92L594.31 502.96L588.83 502.79Z" data-ward="13" /><path id="ward-17" class="ward" d="M231.76 527.35L220.68 522.37L205.52 519.43L193.59 521.39L188.59 522.26L180.94 523.79L175.16 525.08L171.23 525.96L165.95 526.88L160.68 527.81L154.85 528.61L148.43 528.34L144.84 528.11L141.25 527.88L132.42 526.94L128.64 526.92L117.18 527.09L116.12 530.72L118.39 533.64L119.92 537.45L121.31 541.90L118.14 543.49L114.08 543.80L105.85 543.79L100.68 545.11L96.34 549.37L93.65 551.47L91.06 554.09L88.55 556.70L85.60 558.53L81.16 559.15L77.00 560.22L71.36 562.67L67.59 564.07L63.88 565.09L60.57 566.86L57.99 569.98L61.60 574.37L63.57 578.13L65.49 580.96L67.84 586.14L71.81 588.43L70.71 592.04L69.97 599.03L66.81 602.94L63.32 606.62L60.19 610.35L56.82 613.56L54.86 616.51L53.35 620.99L53.19 625.10L53.93 628.65L54.96 632.10L57.74 636.24L60.65 639.59L64.97 642.97L67.75 644.44L70.44 646.23L76.27 648.29L79.25 649.22L82.51 649.66L87.75 649.77L91.62 649.77L97.96 648.94L101.63 649.63L108.55 651.21L111.09 653.36L112.91 655.77L114.61 659.33L116.05 662.72L116.77 666.42L117.40 669.40L118.05 674.89L118.28 680.60L118.76 685.79L119.24 690.09L119.96 694.21L121.08 699.36L122.29 705.27L124.36 710.83L125.41 714.22L126.18 718.05L127.82 723.79L128.83 727.01L129.97 730.32L130.60 733.43L131.14 738.02L130.33 742.87L128.26 746.57L125.09 747.54L121.93 747.72L116.91 750.35L119.49 755.80L121.56 760.19L125.94 758.54L131.71 762.14L135.76 763.79L139.80 768.22L145.55 773.63L150.68 777.37L155.26 777.88L159.61 777.08L163.30 775.91L168.78 778.21L175.94 781.22L180.28 783.05L183.60 784.44L180.59 788.55L183.82 789.29L187.04 790.03L191.70 790.98L199.70 788.78L198.53 785.96L196.80 782.67L194.93 778.27L192.97 774.41L190.57 769.23L189.85 764.32L190.96 761.39L191.14 758.24L191.96 755.07L193.39 750.28L194.65 746.32L196.60 742.17L197.93 739.14L200.68 736.74L203.10 733.86L205.85 731.32L208.09 728.97L213.20 723.37L216.55 720.86L219.31 718.92L222.66 716.50L226.37 714.40L229.45 713.20L233.18 711.25L235.70 707.62L239.50 706.56L245.62 707.37L249.77 706.68L253.40 705.72L255.58 700.71L255.83 697.26L255.47 694.14L255.02 690.37L255.02 687.18L252.88 683.82L251.22 680.73L250.66 677.53L250.63 673.85L250.65 670.00L251.10 665.47L251.16 661.53L250.70 658.04L249.74 650.89L248.47 646.25L247.66 642.58L247.62 639.53L251.51 636.76L252.13 633.48L255.02 630.26L252.96 628.02L246.48 623.44L239.94 618.82L236.95 616.96L235.12 614.16L233.29 611.36L232.44 606.40L233.11 598.38L232.15 589.94L234.86 585.20L237.91 580.41L241.97 584.69L246.01 584.49L249.74 584.04L250.15 578.46L250.15 569.96L250.57 566.32L250.95 561.76L255.48 556.44L259.86 551.33L261.36 548.52L263.94 543.23L267.87 536.23L265.73 534.07L256.23 533.52L250.54 534.70L245.59 533.63L239.32 531.17L231.76 527.35Z" data-ward="17" /><path id="ward-4" class="ward" d="M646.04 234.46L640.90 233.82L629.13 215.24L628.04 210.49L627.04 205.41L626.05 200.33L623.90 182.51L623.62 177.20L623.97 172.33L624.50 167.48L622.75 164.88L616.10 162.64L609.35 161.80L604.97 161.02L599.08 160.36L595.30 162.91L595.94 166.72L603.92 175.37L604.68 179.81L607.37 188.10L601.03 192.28L598.01 192.74L594.50 193.28L591.18 196.51L584.95 201.67L578.57 212.88L574.96 216.27L570.05 223.97L563.38 227.81L562.91 231.54L553.09 235.30L548.57 234.34L542.89 239.40L538.42 243.21L533.47 245.99L517.54 246.85L510.55 242.75L507.24 242.92L501.00 246.26L510.16 271.30L513.48 280.33L516.35 289.28L517.65 292.48L519.08 296.14L520.52 299.07L522.87 302.96L525.04 306.90L528.55 310.49L534.14 314.12L537.74 315.58L541.00 317.89L543.98 318.65L554.41 320.88L566.66 323.13L571.79 323.96L580.34 325.31L605.55 331.32L618.13 333.76L635.97 336.33L651.04 338.29L714.36 351.91L735.27 356.17L740.72 361.06L741.44 354.01L740.64 350.24L739.24 342.49L739.17 335.79L739.17 330.78L736.98 318.52L736.30 314.07L735.51 310.06L734.37 301.87L735.29 297.32L736.23 292.69L735.82 288.52L735.26 284.77L736.23 281.69L726.29 281.76L722.98 282.31L719.80 283.08L716.51 284.62L713.74 285.91L709.68 286.94L706.60 288.28L703.54 288.68L700.64 289.76L695.94 290.74L691.15 290.31L687.84 289.77L683.76 289.67L680.59 289.53L677.31 288.75L673.14 287.88L669.26 288.37L664.64 288.10L661.18 287.74L657.97 288.68L652.47 288.09L648.89 288.28L647.38 284.99L646.24 279.90L643.90 277.12L638.43 273.77L637.89 267.74L637.68 262.61L649.93 242.73L648.35 239.38L646.04 234.46Z" data-ward="4" /><path id="ward-2" class="ward" d="M456.30 230.08L453.37 226.78L451.58 223.73L449.06 218.50L447.03 215.52L444.00 213.68L440.64 212.18L437.31 211.18L434.44 209.87L431.51 208.77L427.66 207.92L423.00 205.45L418.06 203.98L412.60 202.05L407.39 199.99L402.79 198.11L397.77 195.95L392.87 193.73L388.18 191.29L384.24 189.20L380.79 187.47L377.36 188.41L374.47 191.37L372.16 193.62L370.43 196.10L367.20 199.96L364.75 203.75L361.53 208.37L359.15 211.08L356.70 214.34L354.06 219.17L352.59 222.02L350.67 227.64L348.34 229.87L345.15 228.33L341.98 226.50L338.08 224.30L335.66 219.79L333.28 217.88L331.45 215.42L328.30 213.90L324.32 217.39L321.95 221.80L321.22 226.08L320.39 229.50L318.50 233.98L313.77 235.51L310.34 239.33L308.49 241.72L304.86 245.21L301.31 248.09L297.86 251.47L293.46 255.39L291.92 259.86L291.97 263.09L292.56 266.65L292.04 272.80L291.79 276.07L291.33 282.15L291.26 289.64L295.09 291.21L299.71 294.36L303.14 297.48L308.64 298.71L312.10 300.79L313.28 304.04L313.76 308.15L317.67 308.96L321.87 309.21L325.92 308.60L330.48 307.34L335.02 306.92L339.03 307.76L343.67 309.90L347.22 310.92L351.33 314.39L350.07 318.04L349.25 322.42L351.40 325.53L355.94 326.26L360.59 326.79L363.55 327.63L365.40 330.48L368.18 332.67L373.32 337.57L373.96 342.61L375.71 345.45L379.61 345.60L382.58 345.02L387.26 343.45L389.85 341.59L392.98 340.68L395.88 341.79L400.37 341.72L403.57 341.08L408.91 343.86L408.09 347.85L407.21 352.70L406.09 357.15L405.66 360.59L404.72 366.28L404.41 370.01L403.56 374.56L405.43 377.05L406.87 380.84L406.23 385.02L405.80 388.64L406.16 394.35L406.76 397.43L405.57 401.76L408.71 401.57L417.92 403.63L425.54 398.80L425.61 393.45L427.74 386.45L429.80 382.53L432.31 377.80L433.98 374.66L436.31 367.98L436.48 364.36L436.90 360.96L437.92 357.77L439.36 354.93L441.60 350.49L444.20 347.09L451.48 335.36L454.63 331.99L457.61 330.77L463.45 322.73L465.20 320.16L467.18 316.72L470.80 311.95L479.62 299.03L489.48 281.52L493.95 274.88L495.50 271.14L496.54 267.57L499.54 261.82L498.72 257.40L495.27 255.75L492.02 256.10L488.83 254.90L485.88 253.97L482.46 252.53L478.84 251.02L475.92 250.23L472.51 248.42L469.57 246.83L466.17 246.38L465.74 242.64L460.46 243.43L460.39 239.92L460.14 236.79L458.55 233.38L456.30 230.08Z" data-ward="2" /><path id="ward-9" class="ward" d="M949.51 339.41L950.14 335.32L950.58 331.63L935.49 324.87L930.04 322.26L925.46 320.05L922.11 318.31L916.15 315.22L905.46 329.03L896.98 339.97L894.72 342.90L891.11 347.55L888.38 372.71L884.68 404.13L883.88 409.63L883.11 413.57L880.46 428.63L875.84 454.91L873.68 460.79L861.81 458.73L803.81 449.15L795.02 447.72L789.89 446.89L791.12 450.58L794.77 458.14L796.38 462.66L798.61 468.30L800.98 474.29L802.23 484.20L804.46 490.36L808.80 494.65L813.44 499.96L815.52 502.32L823.13 507.71L828.00 511.56L831.61 515.30L833.47 517.88L836.19 521.66L839.53 526.28L841.74 529.35L845.34 533.55L849.86 538.82L852.37 541.74L855.92 545.88L858.91 549.37L861.74 553.89L864.18 557.80L866.41 561.37L869.53 566.37L872.71 571.46L875.31 575.62L877.00 578.32L878.98 581.51L880.96 584.69L882.93 587.87L885.73 592.38L887.28 596.38L888.71 600.07L891.80 608.05L893.23 611.76L894.02 616.92L894.66 621.08L894.69 625.92L895.02 631.83L897.00 640.21L900.12 654.26L901.61 660.95L902.74 676.00L903.46 688.35L902.89 693.19L902.19 699.92L901.80 703.66L899.39 707.57L897.37 710.85L895.07 714.59L892.81 718.53L890.32 722.95L888.74 725.68L886.77 729.25L883.31 737.33L881.52 741.88L878.67 750.11L877.82 754.15L877.78 757.79L877.75 762.71L877.69 765.99L877.79 769.86L877.92 774.28L886.80 774.80L892.34 775.73L896.47 774.06L904.07 773.42L909.99 771.14L913.19 771.35L913.64 766.59L910.62 764.22L909.95 757.53L915.02 756.27L920.08 755.01L921.64 750.17L923.65 744.63L924.99 740.94L927.22 734.82L928.31 731.13L930.08 725.18L931.93 718.95L927.47 715.00L924.44 709.62L922.30 705.82L922.06 701.65L922.91 697.21L926.23 698.88L930.03 693.22L928.30 689.97L927.61 685.85L926.91 681.73L926.36 676.43L926.02 673.15L925.30 666.21L924.56 659.16L925.66 651.52L926.50 645.63L927.06 641.73L929.40 631.99L930.86 625.93L932.68 618.12L934.94 608.39L935.61 603.60L936.46 598.42L937.22 593.85L937.25 590.51L937.28 587.16L937.68 582.25L938.89 577.55L938.44 573.23L934.41 572.50L933.43 569.40L933.74 565.41L934.05 561.47L936.75 559.41L933.84 557.55L930.66 555.52L929.07 550.36L926.81 542.97L925.58 539.64L923.59 534.23L922.06 530.10L920.71 526.44L918.89 521.50L917.19 516.91L915.14 511.19L913.54 506.76L911.24 500.35L910.11 497.20L908.90 493.85L907.41 489.70L905.99 484.28L905.96 479.14L905.92 473.68L907.99 471.40L911.30 467.75L914.12 464.59L917.32 461.00L920.17 457.81L925.13 452.63L922.94 450.14L922.39 440.60L924.39 436.39L926.09 432.81L928.56 423.59L930.47 416.43L932.55 408.65L932.84 405.27L938.55 395.19L943.89 391.08L947.61 388.74L945.19 379.42L943.99 376.51L944.84 370.61L948.08 366.69L949.95 362.28L951.76 357.37L952.45 353.06L953.25 348.00L960.48 346.20L957.45 342.81L951.39 343.12L949.51 339.41Z" data-ward="9" /><path id="ward-20" class="ward" d="M375.71 345.45L373.96 342.61L373.32 337.57L368.18 332.67L365.40 330.48L363.55 327.63L360.59 326.79L355.94 326.26L351.40 325.53L349.25 322.42L346.96 325.24L344.70 329.22L342.25 334.36L340.72 338.49L338.56 343.70L336.87 346.99L335.91 350.84L334.51 353.73L335.31 356.67L336.61 360.34L338.12 365.31L341.00 367.71L343.39 370.24L346.14 373.33L348.72 376.24L350.18 379.44L349.39 383.33L347.03 387.19L345.56 390.25L343.72 394.74L342.63 397.91L341.26 403.30L340.45 408.40L339.75 412.12L339.31 415.45L339.17 418.60L338.44 421.62L334.52 421.96L330.53 421.85L326.80 421.93L323.58 422.05L320.12 422.19L315.72 425.09L315.71 428.91L316.40 433.76L317.12 439.41L316.91 443.14L316.68 446.18L316.32 450.80L316.07 454.33L315.61 460.04L315.08 467.41L315.15 471.17L314.44 474.72L313.66 477.97L312.13 480.70L310.65 483.56L307.99 487.82L311.28 489.21L314.68 491.05L314.13 495.89L314.33 505.17L315.77 508.82L317.24 511.81L318.94 516.61L319.92 520.61L332.36 537.85L331.55 541.03L331.60 544.38L336.20 549.26L338.73 552.88L340.82 556.16L343.09 559.00L349.20 563.81L352.91 566.66L365.09 571.26L371.58 572.93L374.44 576.43L377.90 577.35L386.18 576.57L396.88 576.39L407.60 576.26L414.18 576.40L420.05 574.74L424.47 573.54L428.83 572.68L432.28 568.89L431.76 564.95L432.85 558.00L431.83 553.07L430.58 550.03L428.46 547.12L427.58 543.41L426.81 539.87L425.88 530.18L426.29 526.50L429.05 519.60L429.38 516.04L430.78 508.80L434.05 503.98L435.37 500.62L435.50 497.14L437.15 491.60L438.31 486.06L435.41 484.96L436.74 480.38L429.40 481.57L426.09 481.43L423.05 481.58L417.91 481.41L414.12 480.80L406.25 481.14L401.63 480.84L398.49 479.51L395.73 469.72L394.71 465.00L394.82 459.81L394.91 456.20L394.89 452.05L397.96 450.40L401.15 445.03L401.10 440.01L403.12 432.35L399.75 428.54L399.22 425.22L399.61 420.99L399.95 417.36L402.13 409.53L403.81 404.87L405.57 401.76L406.76 397.43L406.16 394.35L405.80 388.64L406.23 385.02L406.87 380.84L405.43 377.05L403.56 374.56L404.41 370.01L404.72 366.28L405.66 360.59L406.09 357.15L407.21 352.70L408.09 347.85L408.91 343.86L403.57 341.08L400.37 341.72L395.88 341.79L392.98 340.68L389.85 341.59L387.26 343.45L382.58 345.02L379.61 345.60L375.71 345.45Z" data-ward="20" /><path id="ward-6" class="ward" d="M735.64 6.80L733.70 0.00L733.84 11.02L732.70 14.29L732.56 18.81L732.01 22.39L730.80 26.05L726.49 28.39L723.22 27.84L718.95 27.34L713.36 27.26L709.51 28.89L708.49 31.99L709.44 38.11L711.84 42.24L713.60 46.12L715.83 52.17L712.78 54.23L709.77 54.72L706.48 55.11L707.27 58.44L707.72 71.52L707.95 74.97L708.56 80.86L711.63 81.44L717.68 81.20L716.94 103.52L729.35 107.85L737.96 114.41L737.93 119.07L739.88 122.97L740.59 130.90L740.45 136.11L743.71 139.52L730.04 164.22L741.97 165.18L748.56 166.58L752.97 167.98L756.13 168.41L760.06 168.96L764.68 169.60L766.28 174.10L769.71 175.11L773.19 174.38L776.49 173.75L779.39 172.22L782.28 170.86L784.60 168.04L787.37 165.88L790.03 163.90L793.86 160.64L798.23 154.95L801.37 152.71L808.61 152.56L811.29 146.52L812.93 135.92L813.43 132.80L814.82 123.36L822.22 123.31L835.75 128.63L840.22 130.50L845.66 131.81L851.50 133.43L856.77 134.50L859.03 132.20L861.93 115.81L860.55 111.57L859.26 105.92L860.95 82.13L860.03 72.47L859.73 69.26L857.77 66.89L853.87 67.31L850.67 67.61L848.71 64.52L846.59 61.19L844.35 57.67L843.35 50.90L842.61 45.87L841.53 38.61L835.96 35.14L832.87 33.21L826.69 31.48L823.95 29.46L820.84 27.17L817.85 26.47L812.48 26.18L808.82 25.98L804.88 25.77L798.79 23.79L795.61 22.76L784.12 19.03L778.89 15.80L771.99 11.55L768.16 9.31L763.48 9.14L759.39 8.40L757.61 5.63L753.79 4.68L750.38 5.39L746.47 7.70L743.15 7.46L739.24 7.96L735.64 6.80Z" data-ward="6" /><path id="ward-1" class="ward" d="M386.80 148.74L386.43 144.49L386.13 140.80L384.11 136.94L382.95 133.45L381.57 128.75L379.65 122.30L375.61 120.65L369.28 120.75L365.76 122.66L359.89 126.70L357.04 129.04L353.79 129.88L350.46 131.29L346.74 131.89L341.95 133.11L337.55 133.65L333.13 134.48L328.65 135.18L325.39 136.35L322.48 137.52L320.83 140.72L318.77 143.26L315.86 146.71L312.70 148.53L309.26 148.15L306.16 147.58L301.74 146.67L298.79 144.10L296.72 140.94L293.59 137.13L290.12 135.50L285.96 135.27L282.02 135.66L278.27 137.67L274.47 139.61L270.35 143.09L268.33 148.21L268.79 153.25L270.77 156.64L271.38 159.89L273.16 163.16L273.60 168.12L273.59 173.82L272.34 179.08L269.56 183.97L265.09 186.87L259.20 188.38L252.56 189.71L247.51 190.81L243.32 192.97L241.27 196.85L240.56 199.92L241.05 203.35L241.43 206.59L240.78 211.12L237.18 217.14L233.91 217.22L230.44 217.28L226.33 216.89L222.51 215.98L218.45 214.59L214.69 213.20L211.22 212.06L205.08 210.24L195.20 212.33L191.61 216.37L188.18 220.80L185.95 225.07L185.45 229.94L185.63 234.49L187.06 239.77L188.76 244.78L189.92 249.78L191.45 255.25L192.43 259.75L193.31 264.06L191.67 269.20L189.45 272.66L186.11 276.94L182.72 281.06L179.63 285.07L176.94 291.22L176.05 295.41L174.54 300.09L172.48 304.75L169.55 310.01L166.61 315.11L164.18 319.44L161.36 323.84L160.53 327.18L161.47 331.93L164.67 337.72L168.07 340.70L172.12 343.45L175.66 347.62L177.76 351.25L179.17 355.07L180.14 360.16L184.28 360.13L188.43 360.10L192.85 360.21L197.19 360.37L200.98 360.94L204.18 361.14L209.41 361.56L213.07 362.05L215.58 363.85L219.69 364.75L222.77 365.33L226.38 365.64L229.57 365.82L233.39 366.16L236.70 366.89L240.19 367.45L243.74 367.17L247.64 367.11L251.93 366.65L255.36 366.07L258.48 365.11L261.72 364.37L267.30 363.03L272.07 362.62L272.17 359.30L270.47 354.98L269.31 350.85L267.83 346.48L265.35 343.67L264.69 340.03L264.64 336.41L264.31 333.22L264.30 329.17L264.97 324.35L264.68 320.49L262.68 316.90L262.42 313.59L262.48 309.68L262.52 304.97L267.68 301.90L271.72 300.04L275.90 297.76L280.22 295.00L284.69 293.07L288.51 291.90L291.26 289.64L291.33 282.15L291.79 276.07L292.04 272.80L292.56 266.65L291.97 263.09L291.92 259.86L293.46 255.39L297.86 251.47L301.31 248.09L304.86 245.21L308.49 241.72L310.34 239.33L313.77 235.51L318.50 233.98L320.39 229.50L321.22 226.08L321.95 221.80L324.32 217.39L328.30 213.90L331.45 215.42L333.28 217.88L335.66 219.79L338.08 224.30L341.98 226.50L345.15 228.33L348.34 229.87L350.67 227.64L352.59 222.02L354.06 219.17L356.70 214.34L359.15 211.08L361.53 208.37L364.75 203.75L367.20 199.96L370.43 196.10L372.16 193.62L374.47 191.37L377.36 188.41L380.79 187.47L380.70 181.15L384.20 176.87L387.13 175.57L386.14 169.97L385.66 165.55L385.39 161.92L385.27 157.49L385.31 152.53L386.80 148.74Z" data-ward="1" /><path id="ward-18" class="ward" d="M492.78 463.01L491.87 459.92L488.70 456.32L483.22 457.97L478.68 458.90L474.74 459.83L471.54 462.10L462.76 466.56L458.87 467.70L452.48 467.99L446.23 467.56L438.79 472.60L438.43 477.05L436.74 480.38L435.41 484.96L438.31 486.06L437.15 491.60L435.50 497.14L435.37 500.62L434.05 503.98L430.78 508.80L429.38 516.04L429.05 519.60L426.29 526.50L425.88 530.18L426.81 539.87L427.58 543.41L428.46 547.12L430.58 550.03L431.83 553.07L432.85 558.00L431.76 564.95L432.28 568.89L428.83 572.68L424.47 573.54L420.05 574.74L414.18 576.40L407.60 576.26L396.88 576.39L386.18 576.57L377.90 577.35L374.44 576.43L371.58 572.93L365.09 571.26L352.91 566.66L349.20 563.81L343.09 559.00L340.82 556.16L338.73 552.88L336.20 549.26L331.60 544.38L326.87 544.79L320.97 546.49L316.33 546.69L311.12 542.47L308.18 538.11L305.84 534.17L303.97 531.01L299.92 531.67L296.24 536.20L292.85 540.09L289.91 542.82L286.53 545.45L284.77 542.79L279.64 539.02L275.88 538.19L272.35 537.09L267.87 536.23L263.94 543.23L261.36 548.52L259.86 551.33L255.48 556.44L250.95 561.76L250.57 566.32L250.15 569.96L250.15 578.46L249.74 584.04L246.01 584.49L241.97 584.69L237.91 580.41L234.86 585.20L232.15 589.94L233.11 598.38L232.44 606.40L233.29 611.36L235.12 614.16L236.95 616.96L239.94 618.82L246.48 623.44L252.96 628.02L255.02 630.26L258.13 631.19L268.05 631.34L270.83 628.07L275.21 628.34L278.81 628.44L282.89 628.98L284.57 631.67L285.26 634.66L286.20 638.45L287.59 642.30L294.76 645.99L297.81 647.02L298.92 658.12L300.89 661.15L304.25 661.07L309.69 660.64L312.85 660.68L319.16 661.18L322.97 662.57L328.64 662.78L333.91 662.40L336.38 664.22L337.51 667.58L340.47 669.04L345.84 671.69L349.12 673.53L353.96 675.89L355.25 672.18L372.66 639.37L386.30 640.83L391.30 659.08L396.61 657.87L403.40 656.32L408.77 654.77L471.55 623.06L474.36 619.15L477.40 615.64L477.67 610.86L477.60 606.72L480.62 605.69L482.20 602.76L481.84 599.28L481.12 594.70L481.59 586.74L479.87 579.59L479.94 575.18L479.58 571.38L480.01 568.37L477.55 561.78L498.26 557.39L505.73 556.30L498.45 535.78L497.23 532.54L496.01 529.31L494.50 526.28L491.55 520.41L489.18 515.69L487.05 511.45L485.50 508.35L490.13 501.69L491.88 499.12L495.07 494.48L498.33 489.72L497.40 485.78L496.88 482.72L496.32 479.28L494.63 469.22L492.78 463.01Z" data-ward="18" /><path id="ward-10" class="ward" d="M815.22 531.46L810.99 531.25L807.95 531.11L803.15 530.59L799.90 530.14L794.81 529.55L791.67 529.31L786.85 528.89L783.44 528.61L778.01 528.37L773.34 527.81L768.61 527.63L764.99 527.01L760.24 526.59L754.95 526.10L751.49 525.78L745.66 525.10L742.28 524.86L741.11 527.88L740.12 530.80L739.10 534.60L737.56 539.09L736.92 543.19L735.41 548.62L734.07 553.48L727.46 562.05L720.96 562.59L717.72 563.25L714.13 564.94L710.37 566.91L708.94 570.46L708.12 573.45L707.91 576.97L708.15 580.38L708.08 583.62L708.25 587.03L707.22 591.89L703.23 594.76L700.98 596.92L697.18 599.34L694.32 600.85L691.45 601.83L690.83 606.17L685.63 612.69L683.45 614.92L680.39 618.85L674.49 622.92L669.74 627.47L671.20 632.97L672.49 637.82L674.20 641.94L679.89 649.46L684.82 652.15L692.40 656.04L696.45 659.11L694.28 664.55L692.27 668.22L691.04 672.99L690.35 678.81L690.25 682.11L692.97 684.94L697.02 689.27L699.01 692.27L699.75 696.49L703.94 697.89L708.97 698.34L712.27 698.51L716.35 699.39L720.43 700.28L720.92 703.48L719.29 706.59L717.00 709.83L715.29 712.33L713.86 715.22L711.12 720.69L709.52 724.13L708.05 727.30L706.75 730.65L703.27 739.38L701.49 742.52L699.41 745.20L696.98 748.09L697.29 755.37L697.94 761.21L698.98 764.17L704.99 763.76L709.77 763.18L712.73 762.62L716.52 761.89L719.80 761.26L723.12 760.66L727.06 760.32L736.93 760.11L742.32 760.33L749.78 761.21L754.24 762.22L766.10 765.28L775.75 767.80L779.68 768.83L784.84 770.33L790.48 771.98L795.35 773.41L801.58 775.24L805.17 777.93L808.97 779.71L813.53 781.84L817.25 785.32L823.94 788.66L827.29 790.34L830.62 791.32L834.92 792.59L837.84 793.45L842.25 794.78L846.52 796.39L850.13 797.43L854.37 799.08L858.60 800.72L863.55 803.12L868.65 804.64L877.33 805.97L877.40 802.63L877.70 797.21L877.88 793.96L877.88 790.77L877.88 786.94L877.88 782.10L877.92 774.28L877.79 769.86L877.69 765.99L877.75 762.71L877.78 757.79L877.82 754.15L878.67 750.11L881.52 741.88L883.31 737.33L886.77 729.25L888.74 725.68L890.32 722.95L892.81 718.53L895.07 714.59L897.37 710.85L899.39 707.57L901.80 703.66L902.19 699.92L902.89 693.19L903.46 688.35L902.74 676.00L901.61 660.95L900.12 654.26L897.00 640.21L895.02 631.83L894.69 625.92L894.66 621.08L894.02 616.92L893.23 611.76L891.80 608.05L888.71 600.07L887.28 596.38L885.73 592.38L882.93 587.87L880.96 584.69L878.98 581.51L877.00 578.32L875.31 575.62L872.71 571.46L869.53 566.37L866.41 561.37L864.18 557.80L861.74 553.89L858.91 549.37L855.92 545.88L852.37 541.74L849.86 538.82L845.34 533.55L841.74 529.35L836.61 530.03L830.13 530.50L825.83 530.85L821.22 531.74L815.22 531.46Z" data-ward="10" /><path id="ward-14" class="ward" d="M577.00 639.59L577.64 634.80L580.15 624.32L581.99 616.20L582.71 609.30L584.49 606.10L587.56 599.45L592.50 580.89L543.24 561.63L529.19 556.14L505.84 561.92L480.01 568.37L479.58 571.38L479.94 575.18L479.87 579.59L481.59 586.74L481.12 594.70L481.84 599.28L482.20 602.76L480.62 605.69L477.60 606.72L477.67 610.86L477.40 615.64L474.36 619.15L471.55 623.06L473.69 626.66L476.12 628.76L480.12 630.36L483.14 630.85L486.28 630.99L489.74 631.09L495.11 634.24L498.09 635.14L497.76 640.21L499.14 643.02L502.89 644.45L506.50 645.51L510.67 644.93L514.25 645.55L521.45 644.60L524.65 643.66L527.71 643.06L530.22 645.15L531.90 648.02L533.70 652.52L534.44 655.97L535.08 660.89L535.34 664.62L535.80 668.01L536.15 671.55L537.39 674.64L540.28 675.54L543.29 676.17L545.29 678.48L543.84 681.61L542.54 685.12L540.26 689.04L538.97 692.00L537.36 694.74L534.39 697.93L529.43 702.57L526.44 703.68L522.70 702.34L517.70 699.80L516.41 703.68L516.57 707.02L517.91 710.19L517.30 713.65L517.42 716.99L518.50 720.86L515.51 723.09L511.95 724.60L508.70 726.83L506.10 728.89L502.89 731.04L499.05 733.08L495.33 734.89L491.98 737.91L491.88 744.72L482.37 743.79L477.22 739.02L473.07 735.18L471.06 732.64L467.77 729.06L463.18 725.80L462.29 728.90L458.47 755.41L457.85 758.40L455.85 768.31L449.57 784.78L449.56 788.99L449.55 793.48L451.37 797.08L450.12 800.54L447.78 804.02L449.48 809.78L445.13 815.37L442.04 819.88L439.59 823.28L437.05 826.76L433.78 831.95L432.20 834.84L429.81 838.93L427.25 841.17L422.14 846.04L417.46 846.36L411.28 849.39L406.57 851.31L401.00 853.01L395.42 854.96L392.29 857.71L383.18 865.70L380.82 868.57L378.32 871.58L374.74 878.73L371.86 885.80L371.84 892.22L371.84 896.18L372.45 905.29L373.70 910.23L372.71 913.83L371.17 916.94L368.44 918.67L367.32 921.97L364.00 928.31L363.18 933.72L364.16 941.51L364.56 944.76L367.48 945.63L370.66 945.93L376.60 946.52L386.17 947.54L389.44 947.97L400.68 947.42L404.84 948.66L408.51 949.67L411.14 948.05L419.78 949.81L420.04 944.61L419.58 940.87L418.34 930.84L418.07 926.34L419.22 921.42L421.00 918.94L428.93 916.85L432.47 912.66L434.56 907.88L440.06 904.81L445.87 901.99L452.53 900.70L457.38 899.55L463.08 897.76L461.23 894.11L459.27 890.23L459.43 886.87L462.40 882.44L464.99 879.80L468.02 876.72L472.17 872.50L474.35 870.28L476.84 867.76L480.48 863.32L481.48 858.61L487.39 858.08L490.42 853.59L492.88 849.95L495.13 846.61L500.67 844.31L505.15 845.31L512.44 844.19L515.02 840.24L516.91 837.34L518.27 832.99L515.99 828.06L514.45 824.74L512.85 821.28L510.94 815.06L509.31 809.73L519.88 807.75L528.08 806.21L534.00 805.09L541.16 804.51L545.36 804.00L550.54 806.12L555.15 806.35L559.92 810.49L557.89 807.37L555.85 804.25L554.00 799.08L554.69 783.25L553.84 774.56L552.40 758.86L551.44 753.82L549.36 742.77L552.02 741.36L555.62 740.09L558.71 738.03L563.50 735.31L568.35 712.23L569.30 705.71L568.36 698.88L566.03 692.06L565.86 686.93L565.37 671.16L568.26 662.65L572.83 649.18L575.36 643.30L577.00 639.59Z" data-ward="14" /><path id="ward-16" class="ward" d="M282.89 628.98L278.81 628.44L275.21 628.34L270.83 628.07L268.05 631.34L258.13 631.19L255.02 630.26L252.13 633.48L251.51 636.76L247.62 639.53L247.66 642.58L248.47 646.25L249.74 650.89L250.70 658.04L251.16 661.53L251.10 665.47L250.65 670.00L250.63 673.85L250.66 677.53L251.22 680.73L252.88 683.82L255.02 687.18L255.02 690.37L255.47 694.14L255.83 697.26L255.58 700.71L253.40 705.72L249.77 706.68L245.62 707.37L239.50 706.56L235.70 707.62L233.18 711.25L229.45 713.20L226.37 714.40L222.66 716.50L219.31 718.92L216.55 720.86L213.20 723.37L208.09 728.97L205.85 731.32L203.10 733.86L200.68 736.74L197.93 739.14L196.60 742.17L194.65 746.32L193.39 750.28L191.96 755.07L191.14 758.24L190.96 761.39L189.85 764.32L190.57 769.23L192.97 774.41L194.93 778.27L196.80 782.67L198.53 785.96L199.70 788.78L191.70 790.98L193.44 794.98L193.15 799.80L192.24 803.20L190.55 807.63L190.00 810.86L189.74 814.63L189.38 819.89L191.35 825.67L194.31 832.26L196.57 837.26L199.99 844.87L205.51 844.99L209.52 844.06L218.27 841.93L225.22 839.75L228.64 839.74L231.68 839.72L238.29 841.48L241.17 843.16L244.71 844.15L248.99 848.46L251.42 850.91L253.62 854.41L256.37 858.76L259.36 864.14L259.61 869.99L260.96 874.66L260.72 880.03L262.04 882.82L263.85 886.61L264.65 893.13L266.48 897.57L267.80 902.52L267.82 902.59L268.80 906.53L268.89 907.73L268.54 911.51L269.38 915.22L272.56 917.12L281.28 914.04L287.24 912.19L293.19 910.35L295.91 911.79L300.36 908.14L304.72 906.79L307.71 905.64L314.34 904.71L318.41 903.49L318.17 896.29L318.15 892.34L318.96 887.70L318.61 884.33L321.13 881.15L324.00 877.59L327.20 877.30L337.19 874.16L342.77 863.70L343.35 860.49L344.50 857.26L347.23 853.59L348.59 850.84L349.10 847.77L349.95 843.82L350.80 840.45L351.10 836.90L351.79 833.11L352.08 829.66L352.64 826.59L353.29 822.96L356.67 822.92L360.68 823.35L363.79 822.11L364.75 814.34L364.97 811.00L365.66 807.50L367.45 804.95L369.77 802.87L372.87 803.27L375.59 801.29L376.08 797.72L375.43 793.97L374.72 789.76L375.13 786.16L375.58 782.42L376.53 777.94L377.52 773.26L377.78 769.21L378.03 766.02L377.46 762.45L377.05 758.01L377.04 754.77L376.92 751.06L376.18 747.78L374.03 745.06L370.85 746.00L367.76 746.30L363.97 746.49L360.58 745.98L357.47 745.30L356.67 741.78L353.68 740.53L350.05 739.42L347.31 738.05L346.84 734.16L347.49 731.21L347.70 726.94L348.25 723.75L348.62 719.85L348.79 716.17L349.22 712.18L348.79 706.96L350.77 704.67L353.01 701.22L353.60 697.33L353.73 692.31L354.03 689.04L353.58 685.98L353.01 682.95L352.64 679.68L353.96 675.89L349.12 673.53L345.84 671.69L340.47 669.04L337.51 667.58L336.38 664.22L333.91 662.40L328.64 662.78L322.97 662.57L319.16 661.18L312.85 660.68L309.69 660.64L304.25 661.07L300.89 661.15L298.92 658.12L297.81 647.02L294.76 645.99L287.59 642.30L286.20 638.45L285.26 634.66L284.57 631.67L282.89 628.98Z" data-ward="16" /></svg>