<svg viewBox="0 0 1000.00 496.07" xmlns="http://www.w3.org/2000/svg"><style>.ward { fill: #e2e8f0; stroke: #fff; stroke-width: 0.5px; } .ward:hover { fill: #cbd5e1; }</style><path id="ward-17" class="ward" d="M248.56 211.05L247.23 209.65L245.53 208.18L243.77 207.65L242.19 210.28L241.97 211.73L240.13 212.43L236.72 212.78L234.78 212.75L231.79 211.87L228.70 211.49L222.96 211.92L221.54 212.57L219.18 212.50L216.84 214.31L216.46 216.55L215.70 218.62L215.67 220.39L215.37 222.97L214.90 224.43L213.98 225.91L211.34 225.86L210.62 228.09L209.18 232.44L206.88 232.68L206.64 234.47L206.47 235.92L206.22 237.55L206.11 239.16L205.50 241.63L204.21 243.12L204.26 244.79L204.50 246.68L204.94 248.54L205.05 250.56L204.90 252.12L204.16 253.56L201.78 257.60L200.90 259.73L200.42 261.24L198.94 267.48L199.01 272.34L199.56 276.79L200.81 281.92L202.84 292.09L204.27 299.41L205.27 306.61L205.40 309.50L205.51 311.99L205.20 315.10L204.13 317.96L202.93 320.87L210.34 322.28L221.72 324.06L226.88 324.86L241.84 327.01L245.28 327.59L254.30 329.86L255.79 330.34L266.31 336.29L271.15 338.59L279.66 344.58L291.57 352.96L295.75 355.89L304.45 361.75L310.23 365.64L313.49 367.84L320.91 369.89L325.76 371.23L331.25 374.71L333.49 376.04L333.40 369.74L333.42 361.44L334.16 352.97L333.68 344.63L332.34 337.40L330.83 328.63L329.86 319.31L328.32 311.70L327.58 302.25L325.41 293.71L322.65 282.56L316.95 268.73L314.51 265.30L313.26 260.32L312.84 257.64L313.52 253.29L315.47 245.75L314.88 242.85L312.13 240.57L309.24 238.38L306.89 230.02L305.78 226.10L302.89 216.07L303.29 214.07L302.84 212.68L301.25 211.75L300.30 210.70L298.68 210.02L296.24 210.96L294.79 212.13L292.04 213.56L290.57 214.13L276.98 213.80L273.77 213.72L253.43 215.25L251.39 213.59L248.56 211.05Z" data-ward="17" /><path id="ward-2" class="ward" d="M241.75 172.00L239.55 170.08L238.84 168.24L237.61 166.74L235.09 164.70L232.71 163.51L230.51 162.22L228.63 161.04L227.86 159.65L227.14 158.39L226.70 156.53L227.59 154.26L227.75 152.72L227.01 151.01L227.48 149.36L227.14 147.67L225.38 146.30L223.82 145.10L221.75 143.84L222.78 140.96L224.33 137.03L226.92 132.05L228.89 129.40L230.33 127.91L229.21 126.62L227.61 127.73L225.47 129.22L223.99 130.23L222.12 131.52L218.90 133.73L217.51 134.68L215.69 135.91L213.88 137.13L211.06 138.45L209.12 139.28L204.16 141.40L200.83 142.11L197.61 142.79L195.50 143.28L193.18 143.81L191.11 144.27L197.59 152.12L206.96 165.48L204.80 167.99L201.20 173.68L195.71 179.84L192.46 184.91L191.53 187.49L191.50 189.01L191.40 193.76L190.73 203.45L189.43 211.96L189.26 214.46L189.24 216.62L189.13 218.75L189.01 220.92L188.70 223.61L191.22 224.37L192.65 224.45L194.04 224.37L195.80 224.25L198.31 225.14L200.10 224.50L201.64 224.40L204.19 223.81L206.33 223.93L208.28 224.47L211.34 225.86L213.98 225.91L214.90 224.43L215.37 222.97L215.67 220.39L215.70 218.62L216.46 216.55L216.84 214.31L219.18 212.50L221.54 212.57L222.96 211.92L228.70 211.49L231.79 211.87L234.78 212.75L236.72 212.78L240.13 212.43L241.97 211.73L242.19 210.28L243.77 207.65L245.53 208.18L247.23 209.65L248.56 211.05L251.39 213.59L253.43 215.25L273.77 213.72L276.98 213.80L290.57 214.13L292.04 213.56L294.79 212.13L296.24 210.96L298.68 210.02L300.30 210.70L301.25 211.75L302.84 212.68L303.29 214.07L302.89 216.07L305.61 214.73L308.90 214.10L311.00 213.31L312.61 210.69L314.27 207.86L316.37 204.70L317.52 202.79L312.65 199.81L309.36 198.16L307.32 196.67L306.57 198.00L305.87 199.92L306.34 201.37L305.69 203.56L303.29 203.66L301.76 203.74L300.62 206.59L298.39 205.26L296.19 204.34L293.94 204.19L292.89 205.22L292.24 206.61L289.64 204.94L287.59 203.44L285.70 201.92L285.05 200.42L284.26 198.19L282.46 195.97L280.18 194.63L278.21 193.41L276.54 192.23L274.90 190.80L273.36 190.11L271.13 189.46L270.05 188.24L270.04 186.41L270.53 183.58L269.21 181.91L266.98 180.55L265.24 179.40L263.30 177.71L261.74 176.86L259.10 177.75L257.53 176.75L251.18 173.05L246.98 170.72L244.87 172.16L243.32 172.62L241.75 172.00Z" data-ward="2" /><path id="ward-6" class="ward" d="M615.26 100.57L607.53 92.46L600.27 87.33L597.30 85.22L589.65 80.42L586.33 78.17L580.64 74.32L576.98 82.19L574.41 85.20L572.00 87.27L570.74 89.86L570.26 93.48L568.98 97.23L568.58 99.16L568.04 102.37L567.94 105.40L566.78 111.68L565.35 116.44L564.74 119.12L565.19 121.53L565.58 123.63L566.06 127.16L566.58 130.19L567.14 133.47L568.43 134.50L574.11 142.57L575.60 140.62L579.85 142.85L586.19 151.42L587.44 153.76L588.80 156.32L590.51 158.72L592.54 159.36L599.11 163.10L601.65 164.82L606.85 167.72L608.73 168.65L610.05 167.42L612.97 169.45L614.37 170.38L617.30 172.29L619.59 173.29L621.65 174.65L622.53 175.97L623.80 176.92L626.28 177.54L627.80 177.85L629.11 177.22L630.62 175.42L632.60 175.48L633.97 176.23L635.83 177.45L638.08 179.54L639.55 179.35L641.18 177.95L644.83 181.08L654.44 185.83L667.68 191.60L674.81 194.76L676.30 195.56L679.80 197.65L678.02 200.34L675.40 204.35L674.36 206.44L677.13 207.38L678.91 208.61L680.40 209.77L682.58 211.03L679.04 215.93L677.23 217.68L677.89 218.99L679.55 220.48L681.63 222.22L683.77 223.61L683.78 225.54L683.20 227.24L684.36 228.05L687.08 229.30L689.71 230.49L692.39 232.14L695.02 232.72L697.30 234.39L698.46 236.59L700.18 236.58L700.40 238.03L699.00 241.71L698.78 244.12L700.73 245.15L708.40 247.68L712.34 248.63L716.34 247.89L717.71 246.90L721.86 247.56L722.86 245.84L723.75 243.92L725.06 242.05L730.33 244.42L733.58 246.22L736.57 247.76L743.33 250.13L743.71 253.16L743.64 256.73L742.25 260.92L741.06 261.85L741.16 263.73L743.61 264.35L746.89 264.96L748.99 266.04L754.63 269.59L759.90 272.93L762.53 274.34L763.83 273.10L766.01 270.90L768.24 268.03L769.59 264.26L768.22 263.32L759.60 258.30L752.71 254.29L751.51 251.79L751.75 248.68L752.44 234.91L753.30 222.37L753.64 199.94L747.09 197.04L740.73 192.95L733.53 189.75L728.94 185.74L725.06 184.13L719.82 184.10L715.47 183.10L708.71 180.30L693.16 174.26L691.69 173.35L687.68 170.87L685.53 169.33L681.22 166.24L676.00 160.67L671.31 156.16L665.77 152.80L658.91 149.22L651.32 146.46L643.90 143.87L631.35 140.05L633.33 133.20L635.56 128.10L636.66 124.30L637.59 120.77L636.76 117.23L634.55 116.75L632.36 115.40L632.55 113.80L632.75 111.20L634.57 107.52L635.53 106.41L636.69 102.32L637.41 98.13L639.31 91.35L639.92 89.59L640.83 87.27L641.89 83.03L639.54 82.60L637.42 82.21L635.21 81.81L633.08 81.41L627.01 80.30L626.46 81.71L622.71 91.24L617.93 103.38L615.26 100.57Z" data-ward="6" /><path id="ward-12" class="ward" d="M728.94 185.74L733.53 189.75L740.73 192.95L747.09 197.04L753.64 199.94L753.30 222.37L752.44 234.91L751.75 248.68L751.51 251.79L752.71 254.29L759.60 258.30L768.22 263.32L769.59 264.26L768.24 268.03L766.01 270.90L763.83 273.10L762.53 274.34L759.90 272.93L754.63 269.59L748.99 266.04L746.89 264.96L743.61 264.35L743.69 268.95L743.69 270.46L745.33 275.40L746.46 278.74L747.97 281.89L748.83 283.69L749.98 286.10L751.23 288.51L752.28 290.82L753.17 292.70L754.42 295.04L756.50 298.68L758.21 301.71L759.61 304.24L761.50 307.54L762.75 309.77L764.41 312.67L765.92 315.37L767.13 317.70L769.92 322.95L771.75 326.29L773.33 329.12L774.86 332.09L776.62 335.22L778.55 338.90L780.08 341.70L782.01 345.24L783.40 347.79L786.46 346.15L790.39 344.04L804.69 337.91L806.85 336.98L810.17 334.65L813.67 329.05L815.15 320.05L823.36 315.29L842.96 303.93L849.05 303.37L857.49 306.32L866.49 305.63L871.23 301.11L872.20 292.04L874.10 289.93L884.65 283.04L885.42 278.69L884.13 273.77L884.90 270.46L887.77 268.39L891.34 267.99L898.61 273.21L906.33 276.43L908.78 277.88L911.00 278.10L912.76 277.21L919.85 273.59L921.98 272.27L931.39 265.63L933.32 264.77L938.02 262.66L944.69 259.70L946.36 256.38L948.40 253.08L948.05 246.85L946.99 241.18L945.02 238.11L942.70 236.44L941.01 238.44L939.57 239.26L938.18 240.93L938.42 243.36L934.07 246.70L932.34 245.09L930.24 243.65L927.37 242.41L925.38 241.66L922.99 240.47L920.00 238.46L917.23 236.36L914.62 238.37L911.34 238.92L901.69 239.10L898.72 239.38L896.42 239.47L895.19 238.07L893.21 232.88L887.94 229.49L884.89 227.43L875.04 222.55L871.87 221.53L868.19 220.41L865.47 219.11L861.94 218.06L859.37 217.71L857.68 216.99L855.02 215.47L853.34 215.48L852.74 213.97L849.83 206.21L848.29 201.73L845.26 194.54L840.11 187.16L838.82 188.21L836.83 188.53L834.77 188.59L832.94 188.81L831.37 189.40L829.95 190.32L828.76 192.36L826.46 195.33L824.26 197.95L823.01 199.44L821.74 200.71L819.74 199.54L817.28 201.64L813.86 204.49L811.21 207.42L808.10 210.41L805.58 215.19L803.37 217.28L800.81 218.40L798.79 218.84L794.98 220.60L793.87 219.63L790.68 217.14L787.28 214.33L783.72 212.15L782.85 209.94L781.20 206.34L779.31 202.25L776.09 198.32L773.92 196.50L769.67 194.25L763.85 192.18L757.86 190.21L753.14 188.66L747.82 187.96L742.87 187.58L738.27 187.70L728.94 185.74Z" data-ward="12" /><path id="ward-1" class="ward" d="M167.91 146.40L165.04 146.38L161.40 146.35L157.81 146.22L156.21 146.17L152.40 145.74L150.61 145.53L146.67 144.87L144.34 144.49L142.77 144.25L138.22 143.56L132.41 142.63L127.98 141.92L125.94 141.51L118.69 140.62L112.34 139.83L105.10 138.94L104.79 127.10L103.62 124.10L101.89 123.66L91.77 121.09L88.17 120.81L84.22 120.50L81.44 120.18L79.60 119.96L72.91 118.79L71.55 118.23L64.31 114.91L62.80 114.20L58.74 111.33L55.40 111.00L51.56 110.70L48.68 110.43L46.22 110.27L43.67 110.11L39.88 109.87L37.60 110.45L35.58 110.96L33.36 111.53L31.02 112.12L28.93 114.11L27.29 115.67L24.81 118.03L22.21 120.49L20.89 122.36L20.40 124.64L19.43 129.18L20.16 130.66L20.89 132.13L23.38 133.95L25.89 135.78L27.19 137.50L33.99 145.76L36.62 149.38L38.91 152.53L39.54 155.57L40.80 161.68L39.05 168.06L36.09 169.88L34.14 171.08L32.46 172.11L30.25 173.47L31.56 174.70L33.84 176.56L35.53 178.08L38.38 179.24L40.84 179.21L43.79 178.92L46.55 178.57L49.09 178.68L49.31 184.13L49.04 187.01L48.52 190.54L48.30 192.19L48.27 193.70L49.55 195.45L51.61 195.69L53.96 195.97L55.98 196.20L58.17 196.38L60.20 195.53L60.52 193.87L61.37 183.35L67.33 183.20L67.24 180.45L67.26 178.73L67.30 177.17L67.38 174.36L68.00 171.49L70.16 172.10L73.08 173.02L76.80 173.98L78.24 173.36L79.27 172.41L82.26 171.97L83.60 172.76L84.57 175.46L84.38 178.02L83.98 180.53L84.74 182.75L87.03 182.99L91.91 182.73L92.56 184.29L94.25 184.23L95.66 182.89L97.25 183.50L99.83 183.37L100.05 181.77L100.35 179.47L100.63 178.03L101.40 176.03L103.07 174.92L107.38 175.71L107.81 173.34L108.43 170.48L110.04 166.55L111.75 164.09L114.14 162.43L115.63 161.73L116.44 159.02L117.73 156.22L119.40 156.53L121.03 157.09L123.27 157.17L124.74 157.09L125.44 158.51L125.88 160.59L126.54 163.82L126.45 165.80L126.59 167.90L128.92 169.17L129.36 171.89L129.47 174.81L131.06 177.29L132.60 179.04L133.88 180.20L133.58 182.84L132.91 187.05L138.63 187.99L138.53 190.84L138.41 192.27L138.28 193.99L139.83 196.44L184.56 189.69L191.50 189.01L191.53 187.49L192.46 184.91L195.71 179.84L201.20 173.68L204.80 167.99L206.96 165.48L197.59 152.12L191.11 144.27L187.25 144.94L185.16 145.31L176.53 146.20L174.98 146.29L172.13 146.44L167.91 146.40Z" data-ward="1" /><path id="ward-8" class="ward" d="M739.15 41.90L734.62 40.87L727.66 39.06L723.33 37.96L718.67 36.78L714.09 35.50L712.60 37.15L712.03 38.93L710.95 42.34L709.60 46.61L708.58 50.30L705.38 50.45L702.83 50.57L702.36 54.48L702.18 55.96L700.29 55.96L698.41 55.96L696.52 55.97L695.78 57.49L695.05 59.00L693.99 61.21L692.88 63.98L691.70 66.93L689.64 70.91L688.15 70.74L686.07 70.51L684.06 70.28L682.06 70.05L680.19 69.83L678.46 69.62L676.50 69.38L674.58 69.15L672.15 68.86L668.89 68.27L667.93 75.46L667.93 81.90L674.12 85.69L678.03 86.53L687.94 87.95L691.07 88.86L692.58 87.75L694.33 87.91L696.28 88.16L698.42 88.96L698.92 87.15L701.64 80.30L703.32 80.88L707.22 80.42L710.25 80.99L713.12 81.17L714.95 82.37L717.58 84.20L718.73 83.40L719.53 80.77L720.27 77.90L721.30 75.90L724.40 76.34L732.78 78.52L741.15 79.36L746.53 80.70L754.21 82.82L763.75 87.06L775.14 93.42L778.97 94.07L787.70 95.71L790.14 96.91L791.26 99.78L791.96 102.21L792.78 104.88L793.11 107.72L793.59 109.89L794.30 111.67L795.69 112.19L797.02 115.13L797.65 117.21L798.14 119.75L797.40 121.89L796.15 124.42L795.37 127.69L795.39 129.69L795.12 132.35L795.36 136.09L795.28 137.69L793.99 138.86L791.71 139.24L790.91 140.49L790.24 143.65L789.69 148.44L789.72 152.35L789.76 154.16L789.82 156.12L791.02 157.16L791.30 158.62L791.45 160.44L789.56 163.80L788.02 163.33L786.72 161.93L784.99 161.31L783.38 162.44L782.62 165.47L781.99 168.21L781.49 169.59L779.37 169.90L777.86 170.78L777.36 172.47L777.34 176.08L776.34 178.02L774.84 177.65L770.52 175.58L736.17 169.34L734.20 169.14L733.61 171.29L732.93 175.20L730.89 177.76L729.91 182.19L728.94 185.74L738.27 187.70L742.87 187.58L747.82 187.96L753.14 188.66L757.86 190.21L763.85 192.18L769.67 194.25L773.92 196.50L776.09 198.32L779.31 202.25L781.20 206.34L782.85 209.94L783.72 212.15L787.28 214.33L790.68 217.14L793.87 219.63L794.98 220.60L798.79 218.84L800.81 218.40L803.37 217.28L805.58 215.19L808.10 210.41L811.21 207.42L813.86 204.49L817.28 201.64L819.74 199.54L821.74 200.71L823.01 199.44L824.26 197.95L826.46 195.33L828.76 192.36L829.95 190.32L831.37 189.40L832.94 188.81L834.77 188.59L836.83 188.53L838.82 188.21L840.11 187.16L837.14 182.12L833.56 173.83L830.32 167.20L828.67 162.45L826.56 157.21L825.58 154.11L826.07 148.33L826.68 144.49L827.39 137.72L827.39 135.45L827.39 133.84L826.87 129.15L826.47 125.57L828.49 116.33L829.10 110.11L828.10 106.86L828.36 102.59L830.07 98.79L830.80 94.60L829.29 88.11L827.69 83.56L825.97 80.58L822.77 78.81L819.74 77.70L816.50 76.42L812.92 74.97L807.65 72.80L803.66 70.96L798.99 68.06L790.57 61.68L786.25 57.53L781.94 52.58L779.96 49.16L778.35 47.59L776.04 46.30L774.82 44.24L772.87 44.27L770.93 43.40L767.86 42.02L763.64 41.06L761.95 40.59L756.78 39.29L754.03 38.59L749.94 36.95L748.20 38.49L746.47 40.03L745.47 41.57L744.48 43.11L739.15 41.90Z" data-ward="8" /><path id="ward-5" class="ward" d="M526.85 19.34L524.54 18.62L520.63 14.89L519.51 13.83L518.20 12.59L516.09 10.52L513.50 7.98L508.64 0.01L505.77 0.00L501.23 4.37L498.92 13.21L495.24 19.08L491.41 23.56L488.82 28.34L485.00 35.40L483.24 38.95L480.35 41.89L478.48 43.73L476.81 44.79L473.32 46.90L469.57 49.16L466.92 50.77L460.46 54.68L454.41 58.34L451.40 60.16L449.43 64.84L448.61 66.80L447.74 69.00L447.22 70.53L446.29 73.21L446.04 77.93L446.05 80.47L446.05 83.26L445.73 85.63L445.54 87.03L444.18 89.82L442.90 91.61L442.01 92.69L439.47 95.77L435.43 98.17L433.34 99.42L431.63 99.81L427.28 100.82L421.97 101.21L418.64 100.90L413.11 100.39L406.39 99.00L402.47 98.00L399.54 97.25L395.28 95.69L393.49 94.79L386.15 91.08L379.16 87.13L377.59 86.33L373.59 85.03L371.78 84.44L369.83 84.24L367.55 83.99L365.47 84.62L364.06 88.07L364.13 90.38L365.25 92.41L369.56 94.67L385.37 103.38L393.80 106.09L401.68 107.86L406.62 108.21L409.22 108.17L412.55 108.12L414.77 108.05L418.11 107.95L426.78 107.05L430.87 107.89L438.53 110.61L445.64 112.69L452.81 117.13L454.00 117.85L456.49 119.38L460.67 120.76L462.25 121.26L465.30 122.74L469.17 124.69L472.25 125.55L476.07 126.51L481.07 127.95L483.56 128.95L485.69 129.50L487.64 129.83L495.76 129.30L498.40 129.16L500.64 129.47L503.53 130.13L507.38 130.89L510.75 131.24L513.53 131.56L517.16 131.86L519.24 131.45L521.37 131.05L525.10 130.52L526.91 130.19L528.42 129.86L530.31 128.49L532.66 126.88L535.05 126.05L537.26 126.38L540.90 127.83L544.70 129.64L547.29 130.06L548.72 130.00L551.34 129.89L555.03 130.02L560.87 130.75L566.58 130.19L566.06 127.16L565.58 123.63L565.19 121.53L564.74 119.12L565.35 116.44L566.78 111.68L567.94 105.40L568.04 102.37L568.58 99.16L568.98 97.23L570.26 93.48L570.74 89.86L572.00 87.27L574.41 85.20L576.98 82.19L580.64 74.32L584.77 69.64L586.23 67.99L588.09 65.11L590.27 61.73L590.88 60.14L591.51 58.48L592.22 55.07L592.57 53.38L593.00 51.31L593.71 47.91L593.86 45.96L594.01 44.01L594.52 41.15L594.82 39.47L595.10 37.86L595.43 36.06L595.99 32.92L596.64 30.84L597.17 29.14L597.76 27.57L598.63 25.24L598.95 23.84L599.28 22.44L599.17 19.94L599.67 18.03L601.04 15.77L601.88 14.37L603.00 12.51L586.99 12.38L573.67 10.01L562.65 12.99L558.04 16.10L551.60 18.21L549.99 18.16L537.76 19.30L529.32 20.10L526.85 19.34Z" data-ward="5" /><path id="ward-13" class="ward" d="M606.85 167.72L601.65 164.82L599.11 163.10L592.54 159.36L590.51 158.72L588.80 156.32L587.44 153.76L586.19 151.42L579.85 142.85L575.60 140.62L574.11 142.57L575.65 144.74L575.91 147.94L576.70 150.90L577.70 154.33L579.17 159.32L580.77 163.51L581.38 165.11L583.00 169.10L584.38 172.84L586.27 178.31L587.27 181.95L587.55 190.25L586.42 198.35L585.41 202.75L584.79 205.43L583.06 213.05L582.21 214.68L579.67 219.42L575.77 227.40L575.16 230.67L575.95 236.24L578.88 237.01L582.76 238.53L585.94 239.02L587.98 236.22L589.46 236.90L591.10 237.87L593.09 239.63L593.42 241.00L597.04 241.98L600.17 242.40L602.45 244.35L604.77 245.75L606.68 246.89L608.60 247.94L613.69 252.58L617.00 255.94L618.22 257.16L623.32 261.47L628.82 263.93L631.49 265.46L633.49 267.12L636.73 270.65L640.07 274.30L659.89 293.19L676.50 300.69L691.59 310.83L715.68 330.06L728.22 340.39L731.12 342.78L734.44 345.15L752.37 357.99L762.31 364.08L768.99 356.70L775.78 352.50L783.40 347.79L782.01 345.24L780.08 341.70L778.55 338.90L776.62 335.22L774.86 332.09L773.33 329.12L771.75 326.29L769.92 322.95L767.13 317.70L765.92 315.37L764.41 312.67L762.75 309.77L761.50 307.54L759.61 304.24L758.21 301.71L756.50 298.68L754.42 295.04L753.17 292.70L752.28 290.82L751.23 288.51L749.98 286.10L748.83 283.69L747.97 281.89L746.46 278.74L745.33 275.40L743.69 270.46L743.69 268.95L743.61 264.35L741.16 263.73L741.06 261.85L742.25 260.92L743.64 256.73L743.71 253.16L743.33 250.13L736.57 247.76L733.58 246.22L730.33 244.42L725.06 242.05L723.75 243.92L722.86 245.84L721.86 247.56L717.71 246.90L716.34 247.89L712.34 248.63L708.40 247.68L700.73 245.15L698.78 244.12L699.00 241.71L700.40 238.03L700.18 236.58L698.46 236.59L697.30 234.39L695.02 232.72L692.39 232.14L689.71 230.49L687.08 229.30L684.36 228.05L683.20 227.24L683.78 225.54L683.77 223.61L681.63 222.22L679.55 220.48L677.89 218.99L677.23 217.68L679.04 215.93L682.58 211.03L680.40 209.77L678.91 208.61L677.13 207.38L674.36 206.44L675.40 204.35L678.02 200.34L679.80 197.65L676.30 195.56L674.81 194.76L667.68 191.60L654.44 185.83L644.83 181.08L641.18 177.95L639.55 179.35L638.08 179.54L635.83 177.45L633.97 176.23L632.60 175.48L630.62 175.42L629.11 177.22L627.80 177.85L626.28 177.54L623.80 176.92L622.53 175.97L621.65 174.65L619.59 173.29L617.30 172.29L614.37 170.38L612.97 169.45L610.05 167.42L608.73 168.65L606.85 167.72Z" data-ward="13" /><path id="ward-11" class="ward" d="M989.56 116.84L988.00 115.26L984.18 113.50L980.26 113.18L976.47 113.67L972.90 114.69L967.92 115.71L957.19 121.86L954.44 124.23L951.24 126.87L950.11 127.99L948.51 129.58L945.27 129.44L943.71 129.45L939.82 129.83L938.39 129.97L935.97 129.01L933.90 127.94L931.26 126.89L928.68 126.66L927.63 128.12L927.68 130.05L927.51 132.73L927.21 134.28L926.02 136.25L923.80 136.65L921.29 135.95L919.73 135.76L917.81 137.03L913.30 136.68L908.07 134.55L904.68 133.93L900.38 134.27L896.23 133.33L891.52 134.18L889.78 135.11L887.59 136.48L885.21 136.91L883.39 137.23L880.61 136.12L877.69 135.74L875.57 136.00L875.54 137.68L875.46 139.55L875.61 141.24L875.36 143.06L874.85 145.38L873.13 147.51L872.55 149.57L872.97 151.39L873.79 153.62L875.21 155.19L875.76 157.06L876.09 159.45L875.17 163.13L874.38 164.38L873.99 166.47L878.30 166.61L876.49 174.20L875.43 178.18L874.32 182.15L873.84 184.00L872.52 189.10L869.28 199.88L868.76 201.62L866.58 201.83L863.25 202.37L860.85 204.70L858.77 205.97L856.61 206.44L854.34 206.61L852.83 206.53L849.83 206.21L852.74 213.97L853.34 215.48L855.02 215.47L857.68 216.99L859.37 217.71L861.94 218.06L865.47 219.11L868.19 220.41L871.87 221.53L875.04 222.55L884.89 227.43L887.94 229.49L893.21 232.88L895.19 238.07L896.42 239.47L898.72 239.38L901.69 239.10L911.34 238.92L914.62 238.37L917.23 236.36L920.00 238.46L922.99 240.47L925.38 241.66L927.37 242.41L930.24 243.65L932.34 245.09L934.07 246.70L938.42 243.36L938.18 240.93L939.57 239.26L941.01 238.44L942.70 236.44L945.02 238.11L946.99 241.18L948.05 246.85L948.40 253.08L946.36 256.38L944.69 259.70L948.73 259.20L951.87 258.81L951.72 255.83L953.36 253.97L955.79 253.00L957.54 252.04L959.87 250.77L959.69 248.59L958.13 246.53L956.11 244.39L954.12 244.34L953.15 243.34L952.46 241.77L952.58 240.34L953.74 239.08L956.21 236.97L958.44 234.63L958.17 231.73L957.91 229.00L957.70 227.40L959.79 224.27L962.14 221.96L962.84 220.32L962.20 217.67L961.67 216.22L960.42 215.01L958.98 212.97L957.98 210.44L958.32 207.56L957.86 205.52L956.72 204.26L956.69 202.40L956.65 199.13L956.81 195.93L956.89 194.20L957.10 192.70L958.39 189.23L959.29 186.83L961.55 185.41L962.83 184.37L964.10 182.09L964.90 180.66L966.30 179.95L968.90 180.29L970.74 180.54L973.57 181.06L976.17 181.28L978.78 180.42L980.55 179.84L982.03 178.05L982.98 173.99L983.76 171.21L982.44 169.78L980.11 171.26L977.81 171.08L977.74 167.80L977.70 163.97L976.77 161.80L975.34 161.17L973.72 160.27L973.70 157.75L974.52 153.81L976.46 152.66L977.63 150.80L979.73 147.47L980.61 145.98L981.31 144.76L982.01 143.31L982.94 141.32L983.59 139.65L984.45 136.42L985.03 134.08L985.64 132.69L986.19 131.33L986.13 128.92L986.66 126.91L989.66 125.69L991.23 125.31L994.10 124.64L995.60 124.33L997.74 123.88L1000.00 122.34L999.95 120.81L999.90 119.17L999.47 117.12L998.61 115.64L997.77 114.21L995.51 113.92L994.37 115.06L993.17 115.95L991.41 117.69L989.56 116.84Z" data-ward="11" /><path id="ward-15" class="ward" d="M544.70 129.64L540.90 127.83L537.26 126.38L535.05 126.05L532.66 126.88L530.31 128.49L528.42 129.86L526.91 130.19L525.10 130.52L521.37 131.05L519.24 131.45L517.16 131.86L513.53 131.56L510.75 131.24L507.38 130.89L503.53 130.13L500.64 129.47L498.40 129.16L495.76 129.30L487.64 129.83L485.69 129.50L487.40 132.44L488.12 134.00L488.98 135.93L490.06 138.26L490.92 140.14L491.92 142.29L492.60 143.77L493.68 146.14L494.65 148.22L495.79 150.57L498.27 155.58L499.54 158.13L500.70 160.33L502.07 162.10L503.86 164.42L505.86 167.08L507.53 169.23L509.38 171.66L510.80 173.91L512.08 175.84L513.36 177.88L514.12 179.06L515.14 180.66L516.37 182.52L517.33 185.04L518.29 187.47L519.54 190.49L520.25 192.44L521.19 194.77L522.20 197.31L522.88 201.06L523.40 203.76L523.68 205.32L524.11 207.50L524.74 210.80L525.24 213.59L525.81 216.69L526.47 220.15L527.33 224.78L527.90 228.12L528.57 231.49L528.82 233.63L529.11 236.94L529.25 238.46L529.45 240.50L529.77 244.11L529.73 245.53L529.62 247.11L529.50 249.41L529.38 252.07L529.22 255.03L529.10 257.16L528.96 259.58L528.81 262.22L528.44 264.50L524.84 286.02L521.17 306.79L519.80 314.56L518.81 322.04L516.79 337.34L515.95 358.84L515.89 386.37L515.74 396.09L515.04 421.33L514.42 426.66L528.77 434.38L536.06 438.31L542.16 445.22L546.81 448.46L550.61 451.11L552.13 452.91L553.52 454.57L555.81 455.45L562.21 457.91L570.45 461.08L572.88 462.01L579.54 464.84L587.49 468.04L593.96 470.65L599.32 472.80L606.47 476.44L611.31 478.90L619.30 482.96L625.41 486.06L627.95 486.93L634.36 489.14L639.80 489.89L645.50 490.67L650.01 491.29L652.61 491.69L655.36 490.91L644.85 443.59L640.25 423.15L638.50 405.41L636.67 387.95L635.10 377.45L632.44 372.84L627.63 364.53L619.47 354.14L615.37 346.10L614.91 340.56L614.61 336.93L616.24 323.70L617.48 313.60L617.72 310.41L617.33 307.49L616.70 305.82L614.97 303.71L613.84 302.51L611.63 300.17L611.11 298.58L610.27 295.99L609.57 294.59L608.63 289.15L608.10 282.69L606.50 263.04L605.33 261.23L601.64 258.72L599.49 257.78L596.90 256.52L594.10 255.31L592.81 254.78L589.71 253.70L588.03 253.13L585.85 252.39L582.60 248.22L578.61 241.56L577.86 240.36L575.95 236.24L575.16 230.67L575.77 227.40L579.67 219.42L582.21 214.68L583.06 213.05L584.79 205.43L585.41 202.75L586.42 198.35L587.55 190.25L587.27 181.95L586.27 178.31L584.38 172.84L583.00 169.10L581.38 165.11L580.77 163.51L579.17 159.32L577.70 154.33L576.70 150.90L575.91 147.94L575.65 144.74L574.11 142.57L568.43 134.50L567.14 133.47L566.58 130.19L560.87 130.75L555.03 130.02L551.34 129.89L548.72 130.00L547.29 130.06L544.70 129.64Z" data-ward="15" /><path id="ward-9" class="ward" d="M841.09 46.67L838.29 45.74L828.28 40.67L823.72 36.93L822.34 35.82L818.58 36.72L816.91 37.12L812.09 38.28L810.16 38.74L807.88 39.29L800.08 41.16L797.35 41.81L795.58 44.58L793.94 47.16L792.90 48.78L789.77 45.30L787.77 45.11L784.16 44.77L779.10 44.17L774.82 44.24L776.04 46.30L778.35 47.59L779.96 49.16L781.94 52.58L786.25 57.53L790.57 61.68L798.99 68.06L803.66 70.96L807.65 72.80L812.92 74.97L816.50 76.42L819.74 77.70L822.77 78.81L825.97 80.58L827.69 83.56L829.29 88.11L830.80 94.60L830.07 98.79L828.36 102.59L828.10 106.86L829.10 110.11L828.49 116.33L826.47 125.57L826.87 129.15L827.39 133.84L827.39 135.45L827.39 137.72L826.68 144.49L826.07 148.33L825.58 154.11L826.56 157.21L828.67 162.45L830.32 167.20L833.56 173.83L837.14 182.12L840.11 187.16L845.26 194.54L848.29 201.73L849.83 206.21L852.83 206.53L854.34 206.61L856.61 206.44L858.77 205.97L860.85 204.70L863.25 202.37L866.58 201.83L868.76 201.62L869.28 199.88L872.52 189.10L873.84 184.00L874.32 182.15L875.43 178.18L876.49 174.20L878.30 166.61L873.99 166.47L874.38 164.38L875.17 163.13L876.09 159.45L875.76 157.06L875.21 155.19L873.79 153.62L872.97 151.39L872.55 149.57L873.13 147.51L874.85 145.38L875.36 143.06L875.61 141.24L875.46 139.55L875.54 137.68L875.57 136.00L873.46 136.40L869.80 136.95L870.39 133.42L871.36 130.28L872.73 127.43L874.97 123.09L875.87 120.25L876.20 118.72L869.99 115.44L865.54 113.36L861.22 112.32L857.65 110.66L860.36 107.99L864.53 104.54L866.38 101.73L864.32 101.42L860.01 98.05L858.24 96.03L856.89 91.13L856.67 88.87L856.50 87.13L854.72 83.36L851.27 81.99L850.69 76.55L852.35 68.69L852.80 65.60L852.81 61.10L848.15 54.13L841.09 46.67Z" data-ward="9" /><path id="ward-3" class="ward" d="M296.63 90.64L296.94 86.39L297.53 82.41L297.09 75.71L297.67 73.41L296.86 72.23L291.19 69.59L288.63 63.75L288.00 60.81L286.76 54.40L286.18 51.39L282.04 57.44L280.42 59.82L278.85 62.00L275.83 66.21L274.83 67.62L273.07 69.90L271.85 71.59L269.47 74.86L266.82 78.56L265.41 81.33L263.13 85.55L261.83 87.85L259.75 91.52L258.73 93.32L256.16 98.43L255.05 100.64L252.83 104.17L249.71 106.37L247.70 108.22L245.50 110.64L243.36 113.00L241.28 115.42L238.26 118.42L236.28 120.26L234.95 121.50L233.31 123.00L231.73 124.40L229.21 126.62L230.33 127.91L228.89 129.40L226.92 132.05L224.33 137.03L222.78 140.96L221.75 143.84L223.82 145.10L225.38 146.30L227.14 147.67L227.48 149.36L227.01 151.01L227.75 152.72L227.59 154.26L226.70 156.53L227.14 158.39L227.86 159.65L228.63 161.04L230.51 162.22L232.71 163.51L235.09 164.70L237.61 166.74L238.84 168.24L239.55 170.08L241.75 172.00L243.32 172.62L244.87 172.16L246.98 170.72L251.18 173.05L257.53 176.75L259.10 177.75L261.74 176.86L263.30 177.71L265.24 179.40L266.98 180.55L269.21 181.91L270.53 183.58L270.04 186.41L270.05 188.24L271.13 189.46L273.36 190.11L274.90 190.80L276.54 192.23L278.21 193.41L280.18 194.63L282.46 195.97L284.26 198.19L285.05 200.42L285.70 201.92L287.59 203.44L289.64 204.94L292.24 206.61L292.89 205.22L293.94 204.19L296.19 204.34L298.39 205.26L300.62 206.59L301.76 203.74L303.29 203.66L305.69 203.56L306.34 201.37L305.87 199.92L306.57 198.00L307.32 196.67L309.36 198.16L312.65 199.81L317.52 202.79L316.37 204.70L320.27 205.56L324.29 207.62L330.15 206.51L332.63 201.69L334.29 197.47L337.65 197.61L341.14 197.54L344.06 197.11L347.15 197.20L346.09 191.28L345.67 188.87L344.83 183.96L345.08 179.78L343.85 173.32L342.70 169.12L341.77 167.15L340.67 164.84L338.02 159.44L334.79 153.68L333.12 150.67L331.51 147.75L329.79 142.86L329.64 141.00L329.20 135.80L329.01 130.69L327.83 125.40L326.45 120.43L325.50 115.79L324.47 114.45L321.27 110.30L317.70 105.68L316.95 103.06L315.36 95.55L313.78 88.11L309.70 88.97L306.71 90.14L297.02 95.52L296.63 90.64Z" data-ward="3" /><path id="ward-18" class="ward" d="M190.73 203.45L191.40 193.76L191.50 189.01L184.56 189.69L139.83 196.44L136.90 198.29L134.81 199.67L132.29 201.54L129.59 202.76L127.40 203.41L124.57 203.93L120.09 203.66L113.67 204.66L109.76 205.31L108.29 205.38L108.04 209.06L107.83 211.36L106.43 213.31L105.38 215.89L100.46 215.58L99.46 217.86L98.69 220.05L96.91 222.47L97.17 224.43L97.99 226.42L99.61 227.53L99.86 229.80L98.55 233.20L95.86 236.58L93.29 240.75L89.73 244.15L85.25 248.83L79.35 253.61L70.83 261.92L74.38 263.18L82.36 266.01L89.40 271.82L92.59 276.14L95.94 276.13L100.22 277.16L101.39 277.91L108.78 282.97L113.24 285.90L121.91 290.96L123.58 291.93L125.51 292.23L128.12 292.56L132.66 292.77L139.93 293.10L143.16 293.63L150.49 294.81L154.93 297.01L156.39 297.73L166.59 309.95L174.83 313.37L182.80 315.06L194.39 318.38L199.08 319.74L202.93 320.87L204.13 317.96L205.20 315.10L205.51 311.99L205.40 309.50L205.27 306.61L204.27 299.41L202.84 292.09L200.81 281.92L199.56 276.79L199.01 272.34L198.94 267.48L200.42 261.24L200.90 259.73L201.78 257.60L204.16 253.56L204.90 252.12L205.05 250.56L204.94 248.54L204.50 246.68L204.26 244.79L204.21 243.12L205.50 241.63L206.11 239.16L206.22 237.55L206.47 235.92L206.64 234.47L206.88 232.68L209.18 232.44L210.62 228.09L211.34 225.86L208.28 224.47L206.33 223.93L204.19 223.81L201.64 224.40L200.10 224.50L198.31 225.14L195.80 224.25L194.04 224.37L192.65 224.45L191.22 224.37L188.70 223.61L189.01 220.92L189.13 218.75L189.24 216.62L189.26 214.46L189.43 211.96L190.73 203.45Z" data-ward="18" /><path id="ward-7" class="ward" d="M667.93 81.90L667.93 75.46L668.89 68.27L665.92 67.64L664.48 67.17L661.90 66.13L660.14 65.42L658.07 64.59L656.66 64.07L654.25 63.18L652.63 66.47L651.42 68.92L650.81 70.17L650.12 71.57L648.75 74.34L647.92 76.71L647.50 79.40L647.20 81.33L646.81 83.82L641.89 83.03L640.83 87.27L639.92 89.59L639.31 91.35L637.41 98.13L636.69 102.32L635.53 106.41L634.57 107.52L632.75 111.20L632.55 113.80L632.36 115.40L634.55 116.75L636.76 117.23L637.59 120.77L636.66 124.30L635.56 128.10L633.33 133.20L631.35 140.05L643.90 143.87L651.32 146.46L658.91 149.22L665.77 152.80L671.31 156.16L676.00 160.67L681.22 166.24L685.53 169.33L687.68 170.87L691.69 173.35L693.16 174.26L708.71 180.30L715.47 183.10L719.82 184.10L725.06 184.13L728.94 185.74L729.91 182.19L730.89 177.76L732.93 175.20L733.61 171.29L734.20 169.14L736.17 169.34L770.52 175.58L774.84 177.65L776.34 178.02L777.34 176.08L777.36 172.47L777.86 170.78L779.37 169.90L781.49 169.59L781.99 168.21L782.62 165.47L783.38 162.44L784.99 161.31L786.72 161.93L788.02 163.33L789.56 163.80L791.45 160.44L791.30 158.62L791.02 157.16L789.82 156.12L789.76 154.16L789.72 152.35L789.69 148.44L790.24 143.65L790.91 140.49L791.71 139.24L793.99 138.86L795.28 137.69L795.36 136.09L795.12 132.35L795.39 129.69L795.37 127.69L796.15 124.42L797.40 121.89L798.14 119.75L797.65 117.21L797.02 115.13L795.69 112.19L794.30 111.67L793.59 109.89L793.11 107.72L792.78 104.88L791.96 102.21L791.26 99.78L790.14 96.91L787.70 95.71L778.97 94.07L775.14 93.42L763.75 87.06L754.21 82.82L746.53 80.70L741.15 79.36L732.78 78.52L724.40 76.34L721.30 75.90L720.27 77.90L719.53 80.77L718.73 83.40L717.58 84.20L714.95 82.37L713.12 81.17L710.25 80.99L707.22 80.42L703.32 80.88L701.64 80.30L698.92 87.15L698.42 88.96L696.28 88.16L694.33 87.91L692.58 87.75L691.07 88.86L687.94 87.95L678.03 86.53L674.12 85.69L667.93 81.90Z" data-ward="7" /><path id="ward-16" class="ward" d="M347.15 197.20L344.06 197.11L341.14 197.54L337.65 197.61L334.29 197.47L332.63 201.69L330.15 206.51L324.29 207.62L320.27 205.56L316.37 204.70L314.27 207.86L312.61 210.69L311.00 213.31L308.90 214.10L305.61 214.73L302.89 216.07L305.78 226.10L306.89 230.02L309.24 238.38L312.13 240.57L314.88 242.85L315.47 245.75L313.52 253.29L312.84 257.64L313.26 260.32L314.51 265.30L316.95 268.73L322.65 282.56L325.41 293.71L327.58 302.25L328.32 311.70L329.86 319.31L330.83 328.63L332.34 337.40L333.68 344.63L334.16 352.97L333.42 361.44L333.40 369.74L333.49 376.04L335.14 376.94L339.05 379.09L343.08 380.75L344.46 381.32L347.99 382.77L360.97 388.11L366.32 391.95L369.61 393.68L372.85 395.08L375.40 396.34L394.75 403.78L398.82 406.63L402.82 410.83L408.41 414.74L413.89 416.37L423.38 421.09L426.01 422.40L428.24 424.75L430.78 424.23L439.31 422.49L448.33 423.05L452.48 422.73L462.81 421.96L478.00 420.82L496.65 419.43L499.36 419.23L512.59 425.75L514.42 426.66L515.04 421.33L515.74 396.09L515.89 386.37L515.95 358.84L516.79 337.34L518.81 322.04L519.80 314.56L521.17 306.79L524.84 286.02L528.44 264.50L528.81 262.22L528.96 259.58L529.10 257.16L529.22 255.03L529.38 252.07L529.50 249.41L529.62 247.11L529.73 245.53L529.77 244.11L529.45 240.50L529.25 238.46L529.11 236.94L528.82 233.63L528.57 231.49L527.90 228.12L527.33 224.78L451.23 219.38L434.77 217.05L421.71 214.80L404.72 210.43L399.74 209.25L389.15 206.78L379.05 205.14L372.60 204.18L368.98 203.62L366.36 203.18L364.85 202.92L360.16 202.08L354.77 201.00L348.43 199.81L347.15 197.20Z" data-ward="16" /><path id="ward-19" class="ward" d="M121.03 157.09L119.40 156.53L117.73 156.22L116.44 159.02L115.63 161.73L114.14 162.43L111.75 164.09L110.04 166.55L108.43 170.48L107.81 173.34L107.38 175.71L103.07 174.92L101.40 176.03L100.63 178.03L100.35 179.47L100.05 181.77L99.83 183.37L97.25 183.50L95.66 182.89L94.25 184.23L92.56 184.29L91.91 182.73L87.03 182.99L84.74 182.75L83.98 180.53L84.38 178.02L84.57 175.46L83.60 172.76L82.26 171.97L79.27 172.41L78.24 173.36L76.80 173.98L73.08 173.02L70.16 172.10L68.00 171.49L67.38 174.36L67.30 177.17L67.26 178.73L67.24 180.45L67.33 183.20L61.37 183.35L60.52 193.87L60.20 195.53L58.17 196.38L55.98 196.20L53.96 195.97L51.61 195.69L49.55 195.45L48.27 193.70L48.30 192.19L48.52 190.54L49.04 187.01L49.31 184.13L49.09 178.68L46.55 178.57L43.79 178.92L40.84 179.21L38.38 179.24L35.53 178.08L33.84 176.56L31.56 174.70L30.25 173.47L28.87 173.97L27.10 174.62L25.80 175.10L23.62 175.89L21.91 176.86L20.57 177.65L19.23 178.44L16.38 180.60L13.30 182.95L12.03 184.55L10.76 186.14L9.25 188.05L7.83 189.83L6.61 191.35L3.91 189.64L2.61 191.96L0.00 196.62L4.57 199.79L6.66 201.24L9.62 201.27L10.95 203.26L14.20 208.14L16.16 211.08L17.79 213.51L19.45 216.01L22.14 219.39L23.24 220.78L27.07 225.60L28.67 227.60L30.04 229.31L31.67 231.34L33.03 233.04L35.95 235.22L38.12 236.77L39.91 238.05L41.10 238.90L44.32 241.19L45.65 242.41L47.80 244.38L49.01 245.49L51.19 247.73L54.06 250.65L55.56 252.10L57.97 254.44L59.36 255.75L61.28 257.55L64.52 259.88L67.11 261.75L70.83 261.92L79.35 253.61L85.25 248.83L89.73 244.15L93.29 240.75L95.86 236.58L98.55 233.20L99.86 229.80L99.61 227.53L97.99 226.42L97.17 224.43L96.91 222.47L98.69 220.05L99.46 217.86L100.46 215.58L105.38 215.89L106.43 213.31L107.83 211.36L108.04 209.06L108.29 205.38L109.76 205.31L113.67 204.66L120.09 203.66L124.57 203.93L127.40 203.41L129.59 202.76L132.29 201.54L134.81 199.67L136.90 198.29L139.83 196.44L138.28 193.99L138.41 192.27L138.53 190.84L138.63 187.99L132.91 187.05L133.58 182.84L133.88 180.20L132.60 179.04L131.06 177.29L129.47 174.81L129.36 171.89L128.92 169.17L126.59 167.90L126.45 165.80L126.54 163.82L125.88 160.59L125.44 158.51L124.74 157.09L123.27 157.17L121.03 157.09Z" data-ward="19" /><path id="ward-4" class="ward" d="M393.80 106.09L385.37 103.38L369.56 94.67L365.25 92.41L367.22 96.00L365.20 105.12L362.44 106.47L358.61 103.84L354.15 94.78L352.30 96.11L350.02 100.79L348.67 102.61L341.89 112.20L337.64 118.20L334.51 117.83L325.50 115.79L326.45 120.43L327.83 125.40L329.01 130.69L329.20 135.80L329.64 141.00L329.79 142.86L331.51 147.75L333.12 150.67L334.79 153.68L338.02 159.44L340.67 164.84L341.77 167.15L342.70 169.12L343.85 173.32L345.08 179.78L344.83 183.96L345.67 188.87L346.09 191.28L347.15 197.20L348.43 199.81L354.77 201.00L360.16 202.08L364.85 202.92L366.36 203.18L368.98 203.62L372.60 204.18L379.05 205.14L389.15 206.78L399.74 209.25L404.72 210.43L421.71 214.80L434.77 217.05L451.23 219.38L527.33 224.78L526.47 220.15L525.81 216.69L525.24 213.59L524.74 210.80L524.11 207.50L523.68 205.32L523.40 203.76L522.88 201.06L522.20 197.31L521.19 194.77L520.25 192.44L519.54 190.49L518.29 187.47L517.33 185.04L516.37 182.52L515.14 180.66L514.12 179.06L513.36 177.88L512.08 175.84L510.80 173.91L509.38 171.66L507.53 169.23L505.86 167.08L503.86 164.42L502.07 162.10L500.70 160.33L499.54 158.13L498.27 155.58L495.79 150.57L494.65 148.22L493.68 146.14L492.60 143.77L491.92 142.29L490.92 140.14L490.06 138.26L488.98 135.93L488.12 134.00L487.40 132.44L485.69 129.50L483.56 128.95L481.07 127.95L476.07 126.51L472.25 125.55L469.17 124.69L465.30 122.74L462.25 121.26L460.67 120.76L456.49 119.38L454.00 117.85L452.81 117.13L445.64 112.69L438.53 110.61L430.87 107.89L426.78 107.05L418.11 107.95L414.77 108.05L412.55 108.12L409.22 108.17L406.62 108.21L401.68 107.86L393.80 106.09Z" data-ward="4" /><path id="ward-14" class="ward" d="M591.10 237.87L589.46 236.90L587.98 236.22L585.94 239.02L582.76 238.53L578.88 237.01L575.95 236.24L577.86 240.36L578.61 241.56L582.60 248.22L585.85 252.39L588.03 253.13L589.71 253.70L592.81 254.78L594.10 255.31L596.90 256.52L599.49 257.78L601.64 258.72L605.33 261.23L606.50 263.04L608.10 282.69L608.63 289.15L609.57 294.59L610.27 295.99L611.11 298.58L611.63 300.17L613.84 302.51L614.97 303.71L616.70 305.82L617.33 307.49L617.72 310.41L617.48 313.60L616.24 323.70L614.61 336.93L614.91 340.56L615.37 346.10L619.47 354.14L627.63 364.53L632.44 372.84L635.10 377.45L636.67 387.95L638.50 405.41L640.25 423.15L644.85 443.59L655.36 490.91L658.70 492.59L664.46 495.00L668.44 496.07L671.57 495.98L673.50 494.17L680.60 487.52L681.98 486.23L683.97 481.16L685.13 478.23L684.27 475.52L682.42 469.68L683.02 465.91L685.70 464.13L689.69 461.49L696.72 456.84L701.29 453.81L703.58 451.89L709.60 446.84L713.09 444.44L720.96 439.01L725.94 435.58L727.37 434.59L730.15 431.81L733.69 428.26L736.34 425.59L738.45 423.48L739.05 421.71L740.38 417.80L741.50 414.51L741.43 412.69L741.13 404.93L741.67 399.38L741.59 391.64L742.55 389.89L744.76 384.33L747.50 377.46L753.88 371.70L762.31 364.08L752.37 357.99L734.44 345.15L731.12 342.78L728.22 340.39L715.68 330.06L691.59 310.83L676.50 300.69L659.89 293.19L640.07 274.30L636.73 270.65L633.49 267.12L631.49 265.46L628.82 263.93L623.32 261.47L618.22 257.16L617.00 255.94L613.69 252.58L608.60 247.94L606.68 246.89L604.77 245.75L602.45 244.35L600.17 242.40L597.04 241.98L593.42 241.00L593.09 239.63L591.10 237.87Z" data-ward="14" /><path id="ward-10" class="ward" d="M843.48 33.96L842.48 32.97L840.29 30.83L838.67 30.37L835.83 29.57L831.57 31.15L828.71 32.75L826.47 34.00L824.46 33.44L822.34 35.82L823.72 36.93L828.28 40.67L838.29 45.74L841.09 46.67L848.15 54.13L852.81 61.10L852.80 65.60L852.35 68.69L850.69 76.55L851.27 81.99L854.72 83.36L856.50 87.13L856.67 88.87L856.89 91.13L858.24 96.03L860.01 98.05L864.32 101.42L866.38 101.73L864.53 104.54L860.36 107.99L857.65 110.66L861.22 112.32L865.54 113.36L869.99 115.44L876.20 118.72L875.87 120.25L874.97 123.09L872.73 127.43L871.36 130.28L870.39 133.42L869.80 136.95L873.46 136.40L875.57 136.00L877.69 135.74L880.61 136.12L883.39 137.23L885.21 136.91L887.59 136.48L889.78 135.11L891.52 134.18L896.23 133.33L900.38 134.27L904.68 133.93L908.07 134.55L913.30 136.68L917.81 137.03L919.73 135.76L921.29 135.95L923.80 136.65L926.02 136.25L927.21 134.28L927.51 132.73L927.68 130.05L927.63 128.12L928.68 126.66L931.26 126.89L933.90 127.94L935.97 129.01L938.39 129.97L939.82 129.83L943.71 129.45L945.27 129.44L948.51 129.58L950.11 127.99L951.24 126.87L954.44 124.23L957.19 121.86L967.92 115.71L972.90 114.69L976.47 113.67L980.26 113.18L984.18 113.50L988.00 115.26L989.56 116.84L991.41 117.69L993.17 115.95L993.55 114.10L993.55 114.09L994.00 113.44L994.60 108.85L994.74 105.16L993.63 102.09L994.54 98.57L995.63 94.34L998.17 87.60L998.43 84.38L998.54 82.97L997.72 81.52L996.87 80.00L995.98 78.44L994.28 76.27L991.30 76.08L988.09 77.49L986.44 78.30L983.72 79.37L981.89 80.09L978.62 80.63L975.36 80.02L972.20 80.39L970.39 81.70L968.91 82.78L967.32 83.05L964.93 83.45L963.08 83.32L961.47 82.75L960.09 81.79L958.12 80.43L956.57 79.48L954.92 78.48L952.66 76.93L949.95 75.94L948.29 75.10L947.93 72.07L948.35 70.49L950.51 66.01L950.89 63.02L949.69 60.80L948.29 59.54L946.07 58.51L942.98 57.66L940.27 57.23L939.02 56.46L937.06 55.23L936.11 53.38L935.33 51.68L934.63 50.16L931.99 49.23L929.69 49.51L928.53 50.29L926.98 50.71L924.77 51.32L923.25 52.57L920.30 55.14L918.69 56.30L916.26 57.44L911.56 57.63L910.60 53.84L911.21 50.38L910.89 48.82L910.53 47.00L908.64 46.61L905.92 46.05L903.71 45.56L903.16 42.77L901.78 41.24L899.63 39.42L897.61 37.70L898.33 34.35L898.70 32.63L896.48 31.74L893.60 30.58L891.53 30.65L889.11 30.74L886.99 32.45L884.98 34.08L883.51 34.98L880.81 36.30L876.15 38.60L872.31 40.50L868.28 39.31L866.27 39.31L864.58 39.41L862.49 39.85L859.74 40.59L856.42 41.47L853.15 41.30L847.74 37.60L846.21 36.01L843.48 33.96Z" data-ward="10" /></svg>