<svg viewBox="0 0 1000.00 747.86" xmlns="http://www.w3.org/2000/svg"><style>.ward { fill: #e2e8f0; stroke: #fff; stroke-width: 0.5px; } .ward:hover { fill: #cbd5e1; }</style><path id="ward-12" class="ward" d="M567.64 405.21L563.87 403.79L562.17 401.83L560.47 399.17L559.59 397.60L555.56 395.35L550.67 394.22L545.77 392.81L540.58 391.38L536.07 390.65L530.86 391.83L531.33 395.00L531.66 397.24L531.75 399.29L531.44 402.61L530.75 406.28L530.81 411.72L530.83 416.14L530.63 418.48L530.29 420.83L529.61 423.67L528.23 427.28L525.66 428.75L522.64 430.14L521.42 431.71L519.83 433.75L520.59 436.23L521.04 438.77L520.30 442.39L519.96 444.72L521.52 448.26L522.88 452.48L523.55 456.33L523.54 458.28L523.38 461.10L525.12 463.57L525.22 467.93L526.45 471.27L529.94 470.91L533.46 470.61L536.62 470.48L538.69 470.48L539.76 472.56L540.23 475.62L541.64 477.07L543.50 476.10L546.46 475.57L549.46 475.25L552.58 475.59L555.72 477.22L558.39 478.12L560.64 478.95L560.89 481.60L561.15 485.19L561.12 487.09L560.97 489.87L560.89 491.90L558.92 492.09L557.03 491.81L554.88 491.24L552.01 491.43L551.63 494.56L551.31 498.82L550.95 502.06L550.52 505.55L550.15 508.98L549.90 511.85L549.63 513.84L549.59 516.60L549.40 519.98L543.61 520.30L539.91 520.02L536.67 519.43L534.82 519.39L533.11 518.52L530.49 518.67L527.40 520.00L524.61 521.20L522.73 521.67L518.32 523.05L516.49 524.93L515.65 527.10L515.01 529.93L514.79 532.00L514.23 534.69L511.90 535.41L509.11 535.63L506.31 537.23L504.45 537.31L502.56 537.28L500.55 537.30L498.13 537.49L496.19 537.82L494.26 538.15L491.67 538.16L490.35 536.64L489.91 533.36L489.36 530.40L488.93 527.63L488.70 525.61L488.29 523.50L488.21 521.07L486.19 516.38L483.79 515.95L470.51 514.74L467.58 514.51L456.62 499.58L446.41 486.42L442.10 480.88L429.07 467.27L429.09 471.29L425.75 473.52L424.25 475.20L422.63 477.06L420.38 480.57L418.54 483.33L417.04 487.29L416.63 489.57L416.23 491.86L416.10 495.31L415.99 498.57L415.85 502.63L415.50 506.23L415.12 512.00L414.19 518.11L414.97 520.01L413.89 522.32L393.55 541.94L389.17 554.41L392.12 564.99L400.87 578.24L409.14 578.55L424.75 578.85L428.25 578.90L440.26 578.58L442.66 578.49L449.57 578.23L465.59 577.62L474.24 577.34L479.32 577.83L484.10 580.71L484.81 583.80L484.59 591.00L481.01 596.43L482.23 597.89L484.18 597.40L486.44 596.28L491.37 593.37L494.81 590.24L500.58 589.93L505.75 588.57L507.87 588.25L511.99 587.50L516.12 586.75L518.33 586.27L524.52 585.54L529.52 586.53L537.27 589.58L549.73 588.45L557.49 585.72L561.51 587.04L563.45 589.09L565.78 590.08L569.19 589.62L575.18 588.86L574.59 593.01L573.71 599.26L573.15 604.57L572.76 608.80L577.25 612.26L580.53 615.19L583.29 618.07L587.33 619.37L591.08 619.57L594.53 619.18L595.42 616.59L600.65 615.84L607.51 612.44L610.76 611.37L615.79 612.51L618.06 614.26L621.66 613.28L622.00 611.07L623.50 605.84L629.85 605.30L632.34 604.06L629.76 599.00L629.14 597.00L628.02 593.39L626.36 588.04L625.30 584.56L624.01 580.35L622.31 574.83L618.34 570.36L618.41 568.37L620.40 568.35L622.80 567.83L627.20 567.52L631.05 566.15L632.71 565.37L634.15 562.66L634.81 560.58L635.36 558.81L636.11 556.24L637.07 551.39L636.58 545.67L635.81 542.60L635.40 540.85L634.68 537.80L635.18 534.85L635.28 532.03L636.16 528.66L634.19 522.93L631.51 518.61L629.92 516.72L629.81 513.38L629.73 511.27L633.79 495.42L634.12 493.18L634.46 490.94L637.08 463.82L636.93 462.05L636.79 460.29L636.10 453.59L635.14 447.19L634.04 444.84L632.60 442.46L631.03 439.75L630.02 438.00L625.70 432.11L625.77 430.06L624.93 428.11L623.49 426.06L619.30 423.71L615.74 422.21L611.55 419.12L608.74 416.85L606.12 414.60L605.05 412.34L601.47 411.00L597.00 410.17L591.38 408.99L588.97 408.32L587.07 407.85L584.82 407.30L582.12 406.62L577.61 405.47L571.99 405.60L567.64 405.21Z" data-ward="12" /><path id="ward-19" class="ward" d="M89.99 300.80L88.08 300.28L86.07 301.23L84.15 301.78L81.46 302.46L81.05 305.47L81.02 309.41L81.35 312.40L81.56 314.33L81.34 316.61L80.81 319.31L80.48 321.46L80.55 324.29L80.51 326.30L79.61 327.93L77.02 325.93L74.77 324.19L72.44 327.88L70.97 330.20L68.85 331.74L66.99 334.58L66.99 334.59L66.93 334.75L64.72 342.62L61.04 351.39L60.22 354.77L57.57 362.49L56.25 367.43L53.82 376.46L51.18 382.13L49.78 386.53L46.46 398.51L44.64 403.97L39.14 424.79L37.68 429.54L39.25 431.58L40.82 433.61L42.40 435.65L47.11 441.75L50.26 445.82L52.59 448.84L54.45 451.11L56.32 453.68L58.07 455.83L60.55 458.89L63.41 461.25L65.22 463.65L66.49 465.27L68.16 467.73L70.10 471.68L72.46 474.54L74.50 477.02L76.40 479.36L77.59 480.98L79.16 483.31L80.86 484.63L82.57 485.96L84.25 487.85L85.24 485.70L85.84 483.93L86.45 482.17L87.85 477.67L90.09 471.21L95.79 463.05L98.31 461.08L104.41 458.97L111.10 457.25L116.97 456.52L122.58 454.33L126.60 452.00L129.67 450.08L133.91 446.18L135.36 444.80L141.44 438.31L143.00 435.45L141.67 434.22L139.31 432.05L137.38 430.28L135.46 428.52L127.68 427.14L125.93 426.62L129.94 420.27L136.44 412.68L138.52 410.21L144.35 403.17L145.49 401.59L155.25 388.03L161.02 383.61L166.20 383.96L167.89 384.53L170.42 385.08L174.25 385.90L176.53 387.18L178.55 387.53L180.37 387.15L178.97 383.45L177.88 379.63L176.44 375.18L174.24 369.44L171.97 368.99L170.97 367.01L170.73 364.82L171.03 360.52L170.90 357.51L171.32 351.52L169.17 349.37L167.19 346.95L166.09 345.57L163.13 343.48L160.08 342.79L158.26 342.50L156.12 342.15L154.58 341.13L152.54 339.82L150.78 338.92L149.04 338.28L144.92 337.52L143.15 336.97L143.69 333.85L144.09 330.97L142.52 328.91L142.31 326.66L141.91 322.44L141.55 319.79L141.47 317.95L142.26 313.69L142.96 311.29L141.21 309.97L139.39 308.87L137.35 307.14L135.45 305.43L132.72 304.00L129.92 304.03L126.77 304.19L123.65 303.64L120.49 303.05L118.62 302.34L116.14 301.74L114.17 301.40L110.16 301.31L108.27 301.35L105.84 301.26L104.01 301.16L101.31 301.01L98.22 300.86L94.83 300.92L89.99 300.80Z" data-ward="19" /><path id="ward-2" class="ward" d="M295.80 102.58L295.18 100.71L294.24 97.91L293.30 96.08L291.95 93.49L290.82 92.02L289.19 89.90L287.15 87.25L282.22 90.03L278.34 93.62L276.73 99.32L276.28 101.04L275.43 104.33L273.80 109.87L271.64 112.99L268.28 118.23L266.49 122.04L263.78 127.49L261.27 130.12L258.00 133.75L257.08 138.16L255.80 142.85L252.64 147.24L250.68 150.61L250.19 153.32L249.98 155.47L250.37 158.92L252.16 160.68L255.53 161.88L258.29 163.98L257.80 167.87L256.71 171.56L257.49 173.37L258.27 175.18L260.47 175.64L262.92 176.43L265.23 177.53L268.62 179.49L269.74 180.87L269.92 183.49L270.96 187.18L269.33 193.64L265.79 198.34L264.13 200.49L263.34 202.31L261.93 205.56L260.96 207.80L259.39 211.42L258.60 213.24L257.82 215.06L256.90 219.77L256.17 225.45L255.65 227.88L254.06 231.37L245.21 245.50L243.39 247.41L239.69 249.09L235.99 250.77L234.81 252.16L233.63 253.55L233.38 256.37L232.67 258.04L230.24 261.30L230.05 264.52L228.84 267.41L228.07 270.29L228.94 273.64L230.06 276.67L230.98 279.78L231.58 281.50L232.24 283.16L232.81 285.66L233.19 288.94L235.21 289.42L239.12 288.93L240.81 289.49L245.09 294.34L253.87 304.28L261.49 312.92L269.50 321.99L278.81 332.54L287.08 341.92L294.46 350.28L299.29 355.75L299.84 358.99L300.72 364.21L302.11 368.21L303.27 371.58L304.44 374.22L308.51 370.78L310.30 369.32L312.08 367.87L313.71 366.61L315.34 365.36L317.43 363.98L318.90 362.99L320.77 361.73L322.65 360.46L325.93 358.30L327.55 357.35L329.18 356.39L332.20 354.81L333.86 354.11L335.53 353.40L339.92 353.25L342.60 353.61L346.69 353.71L352.68 352.83L356.84 352.20L358.53 351.56L361.74 350.34L365.42 348.76L367.88 347.28L370.85 345.32L373.92 343.29L375.57 342.24L377.21 341.19L380.02 339.52L382.84 338.08L385.86 336.47L388.40 335.18L389.81 336.78L389.79 339.73L389.08 343.83L388.32 345.54L387.57 347.26L388.69 351.70L389.24 353.62L390.27 355.30L391.30 356.98L392.85 359.98L393.65 363.21L394.37 365.47L393.85 368.18L393.02 370.04L392.52 371.97L392.46 374.17L390.80 377.42L390.53 380.29L389.79 383.17L396.36 386.15L414.25 394.29L421.17 397.22L420.04 389.06L419.26 386.92L416.59 374.01L424.14 370.49L427.97 361.76L430.49 360.93L432.52 353.24L435.29 349.88L436.51 348.40L440.73 337.28L449.88 331.44L454.63 328.40L464.12 322.27L468.23 319.61L464.15 313.80L455.72 311.25L442.90 302.36L435.59 293.02L430.47 286.48L429.35 278.03L431.41 270.57L432.54 266.45L425.23 256.21L425.53 250.37L425.65 248.06L422.27 241.92L419.37 241.10L416.48 240.28L410.34 238.33L407.77 238.96L409.11 242.62L402.96 249.13L397.32 244.35L394.45 247.66L392.30 250.12L389.72 244.68L391.54 238.02L392.02 236.26L387.23 230.57L383.98 229.82L373.00 219.80L370.63 216.54L366.39 210.17L366.91 203.87L367.41 197.88L366.16 193.10L362.63 192.24L359.29 194.89L353.86 193.32L349.52 188.83L347.63 186.72L345.74 184.62L343.38 181.46L342.01 178.80L341.60 176.82L343.35 174.41L343.35 167.55L342.02 160.55L343.35 153.33L343.43 151.03L343.58 146.48L342.80 144.68L344.68 140.84L341.90 139.50L339.86 139.01L337.33 138.41L333.79 139.16L329.87 140.87L326.44 142.82L321.77 139.25L318.12 137.93L317.35 134.43L317.98 131.62L317.20 127.96L317.93 125.08L318.42 123.19L319.02 120.84L320.55 119.69L323.85 117.21L327.41 116.20L327.85 114.15L329.32 107.36L328.62 103.27L326.38 101.07L324.66 103.02L323.10 101.11L321.41 99.05L320.12 97.47L318.17 95.09L316.03 96.41L312.35 98.85L309.04 100.91L306.00 102.81L303.22 103.36L300.88 103.81L299.07 104.16L296.50 104.66L295.80 102.58Z" data-ward="2" /><path id="ward-8" class="ward" d="M847.37 334.39L847.25 331.66L846.63 327.87L846.30 325.86L845.83 324.07L844.87 320.39L843.86 317.90L842.65 313.38L823.37 323.51L820.37 325.48L817.38 327.46L814.96 329.23L809.84 332.41L802.80 334.82L796.49 333.44L785.16 331.00L776.58 329.50L767.22 327.30L765.44 327.10L757.53 326.23L747.77 323.57L745.13 322.83L742.29 321.84L735.40 323.39L730.40 326.24L725.43 331.87L716.21 332.93L709.60 329.54L706.17 327.79L701.99 324.76L697.18 321.72L692.38 318.67L687.31 317.84L682.25 317.01L678.69 316.78L672.07 315.30L672.01 317.07L671.56 329.59L672.51 341.97L672.55 348.32L671.48 351.35L671.40 353.82L669.84 361.68L670.96 365.36L671.62 367.28L672.17 369.04L672.72 370.79L674.59 371.78L676.55 371.93L679.18 371.92L681.81 371.91L684.18 372.03L686.56 372.14L691.34 372.63L695.56 373.52L698.34 373.73L702.13 373.65L705.62 373.17L708.07 372.78L708.96 374.89L710.26 378.00L714.00 378.01L717.74 378.01L722.64 378.13L727.02 380.19L728.69 381.03L730.58 381.98L731.26 388.37L731.19 392.79L730.38 396.47L728.83 397.88L726.58 398.05L726.23 399.85L726.41 403.21L726.80 408.17L727.05 412.37L726.85 415.96L724.55 416.69L723.84 418.92L724.26 420.92L724.62 422.74L725.05 425.19L725.56 427.19L727.53 429.00L729.95 427.81L736.52 422.76L737.93 421.65L742.36 418.21L746.49 415.00L751.01 411.01L756.62 406.07L760.11 403.02L761.48 401.82L763.26 400.27L765.41 399.64L768.97 400.96L773.53 405.40L775.25 406.92L776.89 408.22L782.44 412.17L786.00 414.26L788.61 415.92L793.00 418.92L794.96 420.07L798.41 422.12L801.69 422.85L805.05 423.60L809.30 422.66L813.14 422.05L819.00 419.24L825.23 418.14L828.69 416.35L832.62 416.15L830.88 413.39L829.75 411.47L827.02 408.18L828.13 404.76L827.73 401.47L826.71 397.84L826.86 394.37L826.97 391.84L825.69 387.95L825.08 385.22L824.63 382.62L824.58 380.17L824.14 377.65L823.49 373.81L822.84 370.58L822.13 366.29L821.07 360.28L823.15 360.38L825.35 360.49L829.58 358.75L828.61 351.76L833.78 349.11L836.63 347.98L839.48 347.11L844.03 346.21L847.38 345.55L847.46 342.63L847.60 337.61L847.37 334.39Z" data-ward="8" /><path id="ward-18" class="ward" d="M163.90 417.99L163.04 414.88L162.76 413.02L164.06 410.91L165.39 408.77L167.67 405.92L168.62 403.53L170.78 402.71L171.99 398.26L172.65 395.24L173.71 391.39L174.61 388.71L176.53 387.18L174.25 385.90L170.42 385.08L167.89 384.53L166.20 383.96L161.02 383.61L155.25 388.03L145.49 401.59L144.35 403.17L138.52 410.21L136.44 412.68L129.94 420.27L125.93 426.62L127.68 427.14L135.46 428.52L137.38 430.28L139.31 432.05L141.67 434.22L143.00 435.45L141.44 438.31L135.36 444.80L133.91 446.18L129.67 450.08L126.60 452.00L122.58 454.33L116.97 456.52L111.10 457.25L104.41 458.97L98.31 461.08L95.79 463.05L90.09 471.21L87.85 477.67L86.45 482.17L85.84 483.93L85.24 485.70L84.25 487.85L82.22 492.42L81.36 494.52L80.61 496.16L79.76 497.92L78.75 500.21L77.58 502.53L76.32 505.11L74.14 509.58L71.81 514.04L70.11 517.12L66.76 523.40L65.14 526.10L62.88 529.22L61.20 533.90L68.38 534.04L74.46 533.35L76.11 534.93L77.55 536.39L80.07 536.15L85.02 535.33L87.50 534.60L91.45 532.95L93.13 532.19L97.33 531.60L98.70 534.81L101.22 534.32L108.52 532.91L110.51 531.72L111.52 529.82L114.94 529.63L117.69 529.47L120.48 531.77L123.05 531.87L126.82 534.10L127.38 536.58L131.28 539.48L133.95 540.46L140.01 541.53L146.65 544.66L154.78 548.42L168.02 553.65L180.18 560.74L179.91 548.36L185.23 530.11L187.10 528.20L190.11 525.72L194.82 523.53L196.93 520.31L198.04 518.54L199.15 516.77L200.93 511.56L200.33 506.05L201.77 500.64L202.50 491.90L202.32 484.87L202.56 477.89L200.03 477.51L191.74 476.24L180.90 475.89L178.39 471.04L171.52 463.93L172.78 460.48L174.05 457.02L175.25 451.09L174.13 448.92L174.19 446.66L175.74 444.31L178.90 444.95L181.30 442.76L183.17 440.72L183.85 437.84L184.85 434.10L185.29 432.25L185.49 428.93L185.05 426.50L185.75 422.18L183.91 420.98L179.46 420.11L176.63 419.54L174.75 419.29L172.87 419.04L170.13 418.95L167.15 419.66L165.27 419.93L163.90 417.99Z" data-ward="18" /><path id="ward-11" class="ward" d="M481.01 596.43L484.59 591.00L484.81 583.80L484.10 580.71L479.32 577.83L474.24 577.34L465.59 577.62L468.00 579.98L469.59 584.70L470.51 591.73L469.71 593.83L466.37 602.64L463.77 609.49L465.40 620.76L466.13 625.81L471.64 636.49L478.45 642.34L485.07 646.81L486.91 648.51L491.60 653.33L498.77 660.69L501.06 663.53L504.87 669.72L512.35 683.30L517.20 693.34L519.39 690.61L522.51 686.73L526.05 682.32L532.07 680.35L537.64 678.53L543.87 678.31L547.40 678.18L553.12 679.56L554.94 681.55L556.26 685.26L558.35 689.58L562.01 688.78L567.35 692.15L572.47 695.37L579.48 692.17L581.68 691.17L583.51 689.04L591.20 689.96L604.18 696.80L612.05 696.05L616.41 695.64L628.88 696.97L632.69 694.01L640.02 694.60L651.65 686.52L656.09 683.43L663.10 675.67L662.46 661.14L660.24 651.00L657.43 642.32L655.82 637.33L653.33 630.82L652.50 628.65L651.66 626.47L650.83 624.31L647.26 619.33L641.93 620.34L636.60 621.36L633.54 621.70L632.55 618.06L631.90 614.84L632.09 608.19L632.34 604.06L629.85 605.30L623.50 605.84L622.00 611.07L621.66 613.28L618.06 614.26L615.79 612.51L610.76 611.37L607.51 612.44L600.65 615.84L595.42 616.59L594.53 619.18L591.08 619.57L587.33 619.37L583.29 618.07L580.53 615.19L577.25 612.26L572.76 608.80L573.15 604.57L573.71 599.26L574.59 593.01L575.18 588.86L569.19 589.62L565.78 590.08L563.45 589.09L561.51 587.04L557.49 585.72L549.73 588.45L537.27 589.58L529.52 586.53L524.52 585.54L518.33 586.27L516.12 586.75L511.99 587.50L507.87 588.25L505.75 588.57L500.58 589.93L494.81 590.24L491.37 593.37L486.44 596.28L484.18 597.40L482.23 597.89L481.01 596.43Z" data-ward="11" /><path id="ward-9" class="ward" d="M674.59 371.78L672.72 370.79L672.17 369.04L671.62 367.28L670.96 365.36L669.84 361.68L671.40 353.82L671.48 351.35L672.55 348.32L672.51 341.97L671.56 329.59L672.01 317.07L672.07 315.30L667.38 314.61L663.91 314.17L660.89 313.90L656.63 313.68L654.81 313.58L650.01 312.54L646.56 313.89L643.13 315.33L644.30 320.53L645.16 324.38L645.06 327.36L645.50 331.58L644.92 334.80L642.05 335.37L635.84 335.61L633.39 336.02L625.71 336.81L623.17 337.07L621.00 338.01L622.24 341.56L622.80 346.07L623.23 349.51L626.70 353.58L628.84 356.05L629.85 359.00L629.07 360.77L627.99 363.19L623.69 367.12L622.98 370.35L623.23 372.54L623.39 377.35L623.80 379.84L624.41 382.34L625.37 385.97L625.99 389.51L626.30 391.30L626.79 393.47L626.34 398.04L625.19 401.09L623.27 405.17L621.45 409.40L620.98 412.09L621.00 413.86L620.24 415.66L614.66 414.23L605.05 412.34L606.12 414.60L608.74 416.85L611.55 419.12L615.74 422.21L619.30 423.71L623.49 426.06L624.93 428.11L625.77 430.06L625.70 432.11L630.02 438.00L631.03 439.75L632.60 442.46L634.04 444.84L635.14 447.19L638.42 449.37L640.26 449.66L643.09 450.56L645.73 451.86L647.87 453.00L649.86 453.86L651.90 454.44L653.73 454.01L655.48 453.86L659.02 453.70L659.18 450.44L659.25 447.83L659.84 443.18L665.75 445.08L668.94 446.34L670.75 446.25L674.50 445.88L676.84 445.64L679.17 445.41L685.52 444.57L689.31 442.67L691.36 441.92L693.40 441.18L695.31 440.78L697.58 440.31L700.79 439.65L705.62 439.00L711.97 440.92L715.53 443.64L717.55 446.03L718.44 447.99L716.44 448.57L714.44 449.15L709.77 449.54L707.42 450.44L704.83 452.75L703.80 455.12L703.38 458.02L703.30 462.82L703.61 465.51L702.08 466.50L699.25 465.45L696.34 465.18L694.79 466.15L693.63 469.17L693.06 470.86L691.87 472.52L690.22 474.02L688.89 479.93L688.87 481.94L686.61 483.25L684.44 484.50L680.68 488.30L677.87 491.13L676.61 493.66L675.44 496.64L674.37 500.14L672.88 505.04L672.01 507.63L671.65 509.62L671.77 512.71L672.98 516.86L674.60 517.85L676.00 520.74L679.68 522.65L680.10 525.03L682.37 525.50L684.21 525.76L686.28 527.46L688.58 529.38L691.29 530.44L693.35 529.98L695.41 529.53L697.27 529.34L700.13 530.85L703.54 532.65L705.89 534.01L707.53 534.74L710.48 536.50L713.62 540.54L715.37 542.81L720.42 546.39L718.71 549.09L717.51 551.39L718.67 554.38L719.62 556.55L721.27 558.93L722.92 561.31L723.09 563.22L723.92 567.68L725.30 569.52L726.04 574.55L726.87 580.15L727.15 581.98L729.61 587.16L731.66 591.26L737.46 591.00L739.98 590.88L742.65 591.50L744.76 592.00L753.32 594.09L756.09 595.76L758.96 597.50L765.95 594.26L765.31 588.86L768.37 583.08L768.00 578.38L773.98 575.89L781.29 589.87L787.82 596.16L795.16 603.24L796.68 604.32L799.96 606.57L807.08 610.74L817.52 616.85L827.13 623.09L833.24 627.43L848.10 638.02L862.27 648.55L873.15 655.04L875.05 655.97L877.92 655.69L877.32 651.01L877.73 646.72L878.33 640.51L877.98 636.58L877.51 631.23L877.25 628.40L877.00 625.54L874.67 621.94L873.57 620.23L866.64 616.82L859.65 613.66L854.02 611.11L848.88 607.17L840.30 600.59L836.33 597.55L832.33 595.01L828.62 577.32L828.68 575.54L827.85 558.86L827.58 553.53L825.11 551.24L822.63 545.68L820.11 545.31L817.01 541.05L808.84 539.30L803.09 534.16L800.54 530.90L799.30 523.61L799.78 518.61L800.09 515.43L794.17 502.12L788.02 486.31L786.88 483.37L784.35 468.24L782.83 459.10L774.28 454.53L772.97 449.73L770.94 445.08L769.31 441.34L768.16 436.37L768.86 435.48L770.65 435.20L770.56 433.06L774.00 432.27L776.46 431.71L779.66 430.97L783.48 429.76L785.73 429.04L788.17 428.27L788.10 425.84L791.68 423.95L793.15 422.89L794.96 420.07L793.00 418.92L788.61 415.92L786.00 414.26L782.44 412.17L776.89 408.22L775.25 406.92L773.53 405.40L768.97 400.96L765.41 399.64L763.26 400.27L761.48 401.82L760.11 403.02L756.62 406.07L751.01 411.01L746.49 415.00L742.36 418.21L737.93 421.65L736.52 422.76L729.95 427.81L727.53 429.00L725.56 427.19L725.05 425.19L724.62 422.74L724.26 420.92L723.84 418.92L724.55 416.69L726.85 415.96L727.05 412.37L726.80 408.17L726.41 403.21L726.23 399.85L726.58 398.05L728.83 397.88L730.38 396.47L731.19 392.79L731.26 388.37L730.58 381.98L728.69 381.03L727.02 380.19L722.64 378.13L717.74 378.01L714.00 378.01L710.26 378.00L708.96 374.89L708.07 372.78L705.62 373.17L702.13 373.65L698.34 373.73L695.56 373.52L691.34 372.63L686.56 372.14L684.18 372.03L681.81 371.91L679.18 371.92L676.55 371.93L674.59 371.78Z" data-ward="9" /><path id="ward-13" class="ward" d="M525.22 467.93L525.12 463.57L523.38 461.10L523.54 458.28L523.55 456.33L522.88 452.48L521.52 448.26L519.96 444.72L520.30 442.39L521.04 438.77L520.59 436.23L519.83 433.75L521.42 431.71L522.64 430.14L525.66 428.75L528.23 427.28L529.61 423.67L530.29 420.83L530.63 418.48L530.83 416.14L530.81 411.72L530.75 406.28L531.44 402.61L531.75 399.29L531.66 397.24L531.33 395.00L530.86 391.83L530.49 389.67L531.53 376.90L532.08 372.50L532.92 364.77L533.21 362.20L533.77 357.05L534.05 354.47L531.75 353.68L529.44 352.89L524.52 352.10L519.60 351.30L513.76 351.04L509.87 350.54L499.47 349.01L495.93 348.06L492.40 347.12L490.04 347.03L484.10 346.47L480.01 344.31L476.57 341.64L473.70 339.43L470.74 335.91L470.84 333.61L471.70 331.81L472.57 330.01L472.02 326.62L468.23 319.61L464.12 322.27L454.63 328.40L449.88 331.44L440.73 337.28L436.51 348.40L435.29 349.88L432.52 353.24L430.49 360.93L427.97 361.76L424.14 370.49L416.59 374.01L419.26 386.92L420.04 389.06L421.17 397.22L422.33 400.33L423.28 402.54L424.24 404.75L425.33 406.94L426.72 410.00L427.66 414.50L425.82 416.67L424.25 418.53L425.19 422.16L427.59 425.89L429.19 429.76L429.42 432.17L428.04 434.14L425.51 436.17L422.41 437.79L423.58 441.49L425.28 445.09L426.73 449.48L427.62 453.92L428.76 459.60L429.07 467.27L442.10 480.88L446.41 486.42L456.62 499.58L467.58 514.51L470.51 514.74L483.79 515.95L486.19 516.38L488.21 521.07L488.29 523.50L488.70 525.61L488.93 527.63L489.36 530.40L489.91 533.36L490.35 536.64L491.67 538.16L494.26 538.15L496.19 537.82L498.13 537.49L500.55 537.30L502.56 537.28L504.45 537.31L506.31 537.23L509.11 535.63L511.90 535.41L514.23 534.69L514.79 532.00L515.01 529.93L515.65 527.10L516.49 524.93L518.32 523.05L522.73 521.67L524.61 521.20L527.40 520.00L530.49 518.67L533.11 518.52L534.82 519.39L536.67 519.43L539.91 520.02L543.61 520.30L549.40 519.98L549.59 516.60L549.63 513.84L549.90 511.85L550.15 508.98L550.52 505.55L550.95 502.06L551.31 498.82L551.63 494.56L552.01 491.43L554.88 491.24L557.03 491.81L558.92 492.09L560.89 491.90L560.97 489.87L561.12 487.09L561.15 485.19L560.89 481.60L560.64 478.95L558.39 478.12L555.72 477.22L552.58 475.59L549.46 475.25L546.46 475.57L543.50 476.10L541.64 477.07L540.23 475.62L539.76 472.56L538.69 470.48L536.62 470.48L533.46 470.61L529.94 470.91L526.45 471.27L525.22 467.93Z" data-ward="13" /><path id="ward-16" class="ward" d="M244.13 477.84L239.49 477.49L224.17 477.88L213.50 478.14L210.61 478.27L205.47 478.51L202.56 477.89L202.32 484.87L202.50 491.90L201.77 500.64L200.33 506.05L200.93 511.56L199.15 516.77L198.04 518.54L196.93 520.31L194.82 523.53L190.11 525.72L187.10 528.20L185.23 530.11L179.91 548.36L180.18 560.74L168.02 553.65L154.78 548.42L146.65 544.66L140.01 541.53L133.95 540.46L131.28 539.48L127.38 536.58L126.82 534.10L123.05 531.87L120.48 531.77L117.69 529.47L114.94 529.63L111.52 529.82L110.51 531.72L108.52 532.91L101.22 534.32L98.70 534.81L97.33 531.60L93.13 532.19L91.45 532.95L87.50 534.60L85.02 535.33L80.07 536.15L77.55 536.39L77.71 540.54L77.86 544.57L77.56 546.42L77.18 548.80L76.51 552.49L75.88 556.36L75.73 558.12L69.96 559.85L63.95 560.88L57.80 561.68L57.05 565.28L52.74 567.45L51.03 569.36L52.91 572.13L54.33 574.79L53.98 576.79L51.35 580.24L50.30 581.87L48.31 583.94L46.13 584.07L43.84 583.19L40.18 580.69L33.84 581.56L31.08 581.94L28.27 582.13L21.43 582.60L20.74 584.92L19.08 591.56L20.84 592.23L25.13 593.88L27.46 595.23L29.79 596.57L31.57 597.35L33.63 598.14L35.32 596.25L36.56 593.65L37.33 591.26L37.87 589.28L45.05 588.91L48.89 592.12L50.67 593.68L52.44 595.24L56.38 598.79L60.34 602.33L64.24 605.61L66.46 607.91L67.16 610.94L66.37 613.13L65.83 615.64L65.25 618.32L64.67 620.99L63.23 625.26L62.38 628.14L61.55 630.91L60.67 632.74L60.75 634.67L64.00 635.44L68.49 636.51L72.58 637.48L76.53 638.66L81.25 639.75L85.68 641.32L88.62 642.37L90.11 647.05L91.38 656.37L91.73 660.14L92.09 664.01L93.60 667.94L94.98 669.78L97.58 672.81L101.54 675.12L107.42 670.80L114.43 665.58L120.84 660.07L126.43 655.27L131.77 650.67L132.86 648.43L135.62 642.72L139.28 638.21L142.24 634.55L145.76 630.22L146.82 628.66L148.94 628.02L149.08 632.67L149.36 634.66L149.65 636.64L151.64 637.82L156.63 636.53L162.53 634.41L167.21 631.70L170.46 629.07L174.40 621.38L175.43 618.80L178.97 617.12L200.60 610.84L206.68 608.90L212.50 607.05L215.46 606.11L219.88 604.29L233.66 597.05L239.89 592.67L248.84 583.12L260.07 566.86L273.81 546.96L275.61 544.93L291.34 538.83L285.57 525.30L283.10 509.01L282.20 503.09L278.90 493.03L276.93 487.07L261.07 479.11L244.13 477.84Z" data-ward="16" /><path id="ward-14" class="ward" d="M389.24 353.62L388.69 351.70L387.57 347.26L388.32 345.54L389.08 343.83L389.79 339.73L389.81 336.78L388.40 335.18L385.86 336.47L382.84 338.08L380.02 339.52L377.21 341.19L375.57 342.24L373.92 343.29L370.85 345.32L367.88 347.28L365.42 348.76L361.74 350.34L358.53 351.56L356.84 352.20L352.68 352.83L346.69 353.71L342.60 353.61L339.92 353.25L335.53 353.40L333.86 354.11L332.20 354.81L329.18 356.39L327.55 357.35L325.93 358.30L322.65 360.46L320.77 361.73L318.90 362.99L317.43 363.98L315.34 365.36L313.71 366.61L312.08 367.87L310.30 369.32L308.51 370.78L304.44 374.22L300.94 377.24L304.47 377.66L308.01 378.08L310.98 378.47L315.37 379.52L315.59 382.18L315.80 384.89L315.78 387.00L315.77 389.55L315.33 395.56L315.18 398.12L312.83 400.61L310.38 402.35L307.66 404.27L305.81 406.86L305.11 409.35L304.50 413.87L305.01 416.71L305.14 418.60L304.72 422.30L304.49 427.78L304.81 433.54L305.48 437.52L305.80 439.45L306.25 441.94L306.75 444.62L307.47 449.21L308.23 451.47L309.79 455.23L311.23 458.57L313.18 462.35L314.88 466.48L314.99 468.26L314.89 471.60L315.46 473.63L318.37 475.42L318.20 480.05L318.08 481.82L321.21 483.09L321.96 487.43L322.65 489.11L323.49 490.72L325.53 494.15L328.65 497.05L331.16 498.77L333.76 499.88L334.64 496.52L335.80 495.17L337.89 492.75L340.10 491.34L342.24 491.26L344.32 490.95L346.74 491.33L346.96 494.83L346.69 500.38L347.47 505.50L349.35 510.51L350.47 513.75L351.59 516.99L352.14 518.68L353.73 523.51L356.04 522.84L358.50 522.12L362.04 521.10L365.09 520.21L370.32 518.69L375.17 518.61L382.93 518.48L389.38 518.37L396.65 518.25L403.38 518.13L414.19 518.11L415.12 512.00L415.50 506.23L415.85 502.63L415.99 498.57L416.10 495.31L416.23 491.86L416.63 489.57L417.04 487.29L418.54 483.33L420.38 480.57L422.63 477.06L424.25 475.20L425.75 473.52L429.09 471.29L429.07 467.27L428.76 459.60L427.62 453.92L426.73 449.48L425.28 445.09L423.58 441.49L422.41 437.79L425.51 436.17L428.04 434.14L429.42 432.17L429.19 429.76L427.59 425.89L425.19 422.16L424.25 418.53L425.82 416.67L427.66 414.50L426.72 410.00L425.33 406.94L424.24 404.75L423.28 402.54L422.33 400.33L421.17 397.22L414.25 394.29L396.36 386.15L389.79 383.17L390.53 380.29L390.80 377.42L392.46 374.17L392.52 371.97L393.02 370.04L393.85 368.18L394.37 365.47L393.65 363.21L392.85 359.98L391.30 356.98L390.27 355.30L389.24 353.62Z" data-ward="14" /><path id="ward-15" class="ward" d="M300.72 364.21L299.84 358.99L299.29 355.75L294.46 350.28L287.08 341.92L278.81 332.54L269.50 321.99L261.49 312.92L253.87 304.28L245.09 294.34L240.81 289.49L239.40 296.10L238.65 303.75L237.93 311.02L237.02 320.20L234.10 349.66L231.48 367.84L227.64 365.28L223.26 362.25L217.76 358.43L215.61 356.82L212.66 354.46L209.66 352.13L207.83 351.69L206.29 353.51L206.67 357.80L210.02 365.66L213.51 376.35L211.54 377.39L209.38 378.53L206.55 379.49L205.30 382.06L205.40 384.49L202.50 385.50L199.88 385.41L196.24 386.13L192.67 386.83L189.82 386.91L183.85 387.06L180.37 387.15L178.55 387.53L176.53 387.18L174.61 388.71L173.71 391.39L172.65 395.24L171.99 398.26L170.78 402.71L168.62 403.53L167.67 405.92L165.39 408.77L164.06 410.91L162.76 413.02L163.04 414.88L163.90 417.99L165.27 419.93L167.15 419.66L170.13 418.95L172.87 419.04L174.75 419.29L176.63 419.54L179.46 420.11L183.91 420.98L185.75 422.18L185.05 426.50L185.49 428.93L185.29 432.25L184.85 434.10L183.85 437.84L183.17 440.72L181.30 442.76L178.90 444.95L175.74 444.31L174.19 446.66L174.13 448.92L175.25 451.09L174.05 457.02L172.78 460.48L171.52 463.93L178.39 471.04L180.90 475.89L191.74 476.24L200.03 477.51L202.56 477.89L205.47 478.51L210.61 478.27L213.50 478.14L224.17 477.88L239.49 477.49L244.13 477.84L261.07 479.11L276.93 487.07L278.90 493.03L282.20 503.09L283.10 509.01L285.57 525.30L291.34 538.83L315.04 534.31L322.61 532.15L325.18 531.62L341.95 526.86L349.08 524.83L353.73 523.51L352.14 518.68L351.59 516.99L350.47 513.75L349.35 510.51L347.47 505.50L346.69 500.38L346.96 494.83L346.74 491.33L344.32 490.95L342.24 491.26L340.10 491.34L337.89 492.75L335.80 495.17L334.64 496.52L333.76 499.88L331.16 498.77L328.65 497.05L325.53 494.15L323.49 490.72L322.65 489.11L321.96 487.43L321.21 483.09L318.08 481.82L318.20 480.05L318.37 475.42L315.46 473.63L314.89 471.60L314.99 468.26L314.88 466.48L313.18 462.35L311.23 458.57L309.79 455.23L308.23 451.47L307.47 449.21L306.75 444.62L306.25 441.94L305.80 439.45L305.48 437.52L304.81 433.54L304.49 427.78L304.72 422.30L305.14 418.60L305.01 416.71L304.50 413.87L305.11 409.35L305.81 406.86L307.66 404.27L310.38 402.35L312.83 400.61L315.18 398.12L315.33 395.56L315.77 389.55L315.78 387.00L315.80 384.89L315.59 382.18L315.37 379.52L310.98 378.47L308.01 378.08L304.47 377.66L300.94 377.24L304.44 374.22L303.27 371.58L302.11 368.21L300.72 364.21Z" data-ward="15" /><path id="ward-10" class="ward" d="M717.55 446.03L715.53 443.64L711.97 440.92L705.62 439.00L700.79 439.65L697.58 440.31L695.31 440.78L693.40 441.18L691.36 441.92L689.31 442.67L685.52 444.57L679.17 445.41L676.84 445.64L674.50 445.88L670.75 446.25L668.94 446.34L665.75 445.08L659.84 443.18L659.25 447.83L659.18 450.44L659.02 453.70L655.48 453.86L653.73 454.01L651.90 454.44L649.86 453.86L647.87 453.00L645.73 451.86L643.09 450.56L640.26 449.66L638.42 449.37L635.14 447.19L636.10 453.59L636.79 460.29L636.93 462.05L637.08 463.82L634.46 490.94L634.12 493.18L633.79 495.42L629.73 511.27L629.81 513.38L629.92 516.72L631.51 518.61L634.19 522.93L636.16 528.66L635.28 532.03L635.18 534.85L634.68 537.80L635.40 540.85L635.81 542.60L636.58 545.67L637.07 551.39L636.11 556.24L635.36 558.81L634.81 560.58L634.15 562.66L632.71 565.37L631.05 566.15L627.20 567.52L622.80 567.83L620.40 568.35L618.41 568.37L618.34 570.36L622.31 574.83L624.01 580.35L625.30 584.56L626.36 588.04L628.02 593.39L629.14 597.00L629.76 599.00L632.34 604.06L632.09 608.19L631.90 614.84L632.55 618.06L633.54 621.70L636.60 621.36L641.93 620.34L647.26 619.33L650.83 624.31L651.66 626.47L652.50 628.65L653.33 630.82L655.82 637.33L657.43 642.32L660.24 651.00L662.46 661.14L663.10 675.67L656.09 683.43L656.38 687.73L656.90 695.31L661.21 696.84L665.81 693.77L668.88 689.46L673.43 683.07L673.27 675.42L676.58 675.11L680.20 674.66L683.42 674.73L692.46 673.41L694.60 673.70L701.62 673.30L708.84 674.49L716.64 668.84L720.12 660.11L714.86 649.68L713.83 645.29L712.74 642.65L712.44 639.20L711.81 632.10L708.91 626.90L695.94 627.81L694.64 621.06L701.81 620.37L704.74 620.09L707.12 619.86L708.95 619.60L712.43 619.11L716.48 619.66L721.17 618.85L725.94 618.83L725.63 615.31L725.45 613.33L724.66 609.74L725.08 606.52L725.52 603.16L727.43 597.47L731.66 591.26L729.61 587.16L727.15 581.98L726.87 580.15L726.04 574.55L725.30 569.52L723.92 567.68L723.09 563.22L722.92 561.31L721.27 558.93L719.62 556.55L718.67 554.38L717.51 551.39L718.71 549.09L720.42 546.39L715.37 542.81L713.62 540.54L710.48 536.50L707.53 534.74L705.89 534.01L703.54 532.65L700.13 530.85L697.27 529.34L695.41 529.53L693.35 529.98L691.29 530.44L688.58 529.38L686.28 527.46L684.21 525.76L682.37 525.50L680.10 525.03L679.68 522.65L676.00 520.74L674.60 517.85L672.98 516.86L671.77 512.71L671.65 509.62L672.01 507.63L672.88 505.04L674.37 500.14L675.44 496.64L676.61 493.66L677.87 491.13L680.68 488.30L684.44 484.50L686.61 483.25L688.87 481.94L688.89 479.93L690.22 474.02L691.87 472.52L693.06 470.86L693.63 469.17L694.79 466.15L696.34 465.18L699.25 465.45L702.08 466.50L703.61 465.51L703.30 462.82L703.38 458.02L703.80 455.12L704.83 452.75L707.42 450.44L709.77 449.54L714.44 449.15L716.44 448.57L718.44 447.99L717.55 446.03Z" data-ward="10" /><path id="ward-3" class="ward" d="M364.76 172.34L357.35 170.38L355.74 169.22L352.77 167.08L349.79 165.14L350.35 162.89L350.57 161.12L350.89 158.57L348.85 155.89L346.77 155.41L343.35 153.33L342.02 160.55L343.35 167.55L343.35 174.41L341.60 176.82L342.01 178.80L343.38 181.46L345.74 184.62L347.63 186.72L349.52 188.83L353.86 193.32L359.29 194.89L362.63 192.24L366.16 193.10L367.41 197.88L366.91 203.87L366.39 210.17L370.63 216.54L373.00 219.80L383.98 229.82L387.23 230.57L392.02 236.26L391.54 238.02L389.72 244.68L392.30 250.12L394.45 247.66L397.32 244.35L402.96 249.13L409.11 242.62L407.77 238.96L410.34 238.33L416.48 240.28L419.37 241.10L422.27 241.92L425.65 248.06L425.53 250.37L425.23 256.21L432.54 266.45L431.41 270.57L429.35 278.03L430.47 286.48L435.59 293.02L442.90 302.36L455.72 311.25L464.15 313.80L468.23 319.61L472.02 326.62L472.57 330.01L471.70 331.81L470.84 333.61L470.74 335.91L473.70 339.43L476.57 341.64L480.01 344.31L484.10 346.47L490.04 347.03L492.40 347.12L495.93 348.06L499.47 349.01L509.87 350.54L513.76 351.04L519.60 351.30L524.52 352.10L529.44 352.89L531.75 353.68L534.05 354.47L533.77 357.05L533.21 362.20L532.92 364.77L532.08 372.50L531.53 376.90L530.49 389.67L530.86 391.83L536.07 390.65L540.58 391.38L545.77 392.81L550.67 394.22L555.56 395.35L559.59 397.60L560.47 399.17L562.17 401.83L563.87 403.79L567.64 405.21L571.99 405.60L577.61 405.47L582.12 406.62L584.82 407.30L587.07 407.85L588.97 408.32L591.38 408.99L597.00 410.17L601.47 411.00L605.05 412.34L614.66 414.23L620.24 415.66L621.00 413.86L620.98 412.09L621.45 409.40L623.27 405.17L625.19 401.09L626.34 398.04L626.79 393.47L626.30 391.30L625.99 389.51L625.37 385.97L624.41 382.34L623.80 379.84L623.39 377.35L623.23 372.54L622.98 370.35L623.69 367.12L627.99 363.19L629.07 360.77L629.85 359.00L628.84 356.05L626.70 353.58L623.23 349.51L622.80 346.07L622.24 341.56L621.00 338.01L623.17 337.07L625.71 336.81L633.39 336.02L635.84 335.61L642.05 335.37L644.92 334.80L645.50 331.58L645.06 327.36L645.16 324.38L644.30 320.53L643.13 315.33L646.56 313.89L650.01 312.54L648.51 310.61L645.54 304.22L641.70 299.88L637.85 291.91L636.65 289.40L631.55 282.09L629.88 279.71L610.37 270.62L597.18 264.18L583.03 254.03L576.74 250.44L572.00 249.13L568.15 241.34L563.47 235.15L558.66 228.81L557.36 226.63L556.33 224.84L552.88 218.88L552.77 216.97L554.06 214.02L556.63 210.34L557.98 208.02L557.59 205.43L556.30 203.86L556.12 201.97L555.88 199.33L557.03 193.52L549.20 192.33L542.82 189.04L538.84 186.99L534.78 186.58L531.13 186.21L529.21 186.33L526.36 186.50L524.33 186.62L520.93 186.83L518.03 187.83L512.44 186.50L510.03 185.92L510.83 181.76L512.24 174.42L512.89 171.04L513.57 167.50L516.40 163.66L514.38 163.30L510.52 162.47L505.60 162.44L500.36 162.42L492.83 162.39L485.70 161.53L477.97 160.60L471.29 159.80L470.35 164.57L466.26 185.25L458.34 185.31L454.28 191.54L449.57 191.67L442.08 184.24L437.71 175.24L436.38 174.05L432.45 170.52L429.83 168.16L423.93 166.07L414.14 165.91L411.40 166.01L399.96 168.73L388.38 173.89L386.21 174.86L375.22 175.09L364.76 172.34Z" data-ward="3" /><path id="ward-7" class="ward" d="M780.92 167.50L779.43 164.35L777.60 160.46L775.18 155.33L773.93 149.81L772.77 144.24L771.94 139.11L770.99 132.40L768.29 126.29L766.16 124.67L762.02 121.52L760.60 120.37L758.14 118.37L752.76 113.66L754.19 111.90L753.47 109.23L752.87 107.42L751.14 102.24L750.46 99.05L750.08 97.23L749.71 95.42L748.78 91.39L748.21 89.17L747.65 86.95L746.75 85.28L745.85 83.60L745.87 81.24L747.58 77.87L750.33 75.81L753.90 73.12L750.71 70.47L748.47 68.91L746.11 67.27L743.63 64.03L742.14 62.92L737.20 59.23L735.50 58.66L728.22 56.15L723.00 55.00L719.47 53.73L707.85 51.27L702.80 50.20L697.63 52.36L693.75 55.56L691.69 56.13L684.04 58.22L681.37 58.95L679.55 61.90L677.51 65.21L676.94 66.95L675.25 70.08L672.46 75.26L670.70 78.52L670.12 81.64L669.70 83.72L668.65 88.79L667.94 92.25L667.52 94.43L666.80 98.18L665.76 103.59L665.70 105.56L666.58 109.59L670.45 117.12L679.90 124.84L683.53 133.97L683.37 136.41L682.98 142.76L681.37 144.58L674.07 152.86L669.71 157.79L668.02 159.72L661.41 167.21L654.33 170.87L649.61 170.81L647.03 170.78L644.85 172.59L644.13 174.59L643.41 176.59L644.77 178.71L645.92 180.51L647.31 182.69L646.38 184.93L645.01 188.27L641.91 190.28L640.32 191.30L628.60 189.29L625.90 190.60L623.42 191.81L619.88 191.53L617.48 191.35L614.26 191.10L610.87 190.84L606.68 190.52L601.98 190.15L597.00 189.77L593.40 190.80L596.96 195.53L614.76 199.54L630.76 205.16L634.07 206.33L657.74 209.75L674.90 220.18L684.66 222.82L706.29 212.46L712.33 199.15L718.33 194.42L720.10 194.93L737.70 201.50L740.17 202.43L742.64 203.35L752.04 205.51L760.37 207.42L762.53 212.68L767.47 226.45L778.42 229.98L787.08 232.88L794.96 235.48L803.63 238.20L809.50 240.04L814.68 241.67L818.94 242.96L822.28 242.82L824.93 242.36L828.19 241.80L831.06 241.09L833.98 240.37L833.26 236.62L832.53 233.34L831.72 229.77L830.30 225.87L827.95 219.25L827.48 216.57L827.02 214.06L826.52 211.65L825.95 209.24L825.51 207.42L825.04 205.44L824.47 203.15L824.33 201.24L824.18 199.32L827.97 196.44L828.08 193.03L828.22 188.90L831.24 187.51L843.88 183.28L851.04 180.26L854.96 178.60L857.01 176.23L859.18 173.70L861.22 170.97L863.26 168.24L864.39 166.54L866.31 164.38L868.23 162.21L869.94 159.82L870.92 156.80L871.89 153.79L873.83 146.94L874.84 141.78L875.14 136.08L875.74 130.33L875.46 126.64L875.25 123.98L872.41 124.01L869.56 124.05L864.12 124.01L863.25 126.65L862.02 130.35L843.88 137.79L836.79 142.88L834.45 144.36L829.14 147.69L824.27 150.54L816.36 155.18L807.00 158.83L803.34 159.98L795.34 162.49L794.59 166.12L795.30 171.91L795.69 174.88L794.80 177.49L787.79 172.56L780.92 167.50Z" data-ward="7" /><path id="ward-5" class="ward" d="M868.26 168.48L865.33 168.34L864.33 167.70L864.39 166.54L863.82 167.39L863.26 168.24L861.22 170.97L859.18 173.70L857.01 176.23L854.96 178.60L851.04 180.26L843.88 183.28L831.24 187.51L828.22 188.90L828.08 193.03L827.97 196.44L824.18 199.32L824.33 201.24L824.47 203.15L825.04 205.44L825.51 207.42L825.95 209.24L826.52 211.65L827.02 214.06L827.48 216.57L827.95 219.25L830.30 225.87L831.72 229.77L832.53 233.34L833.26 236.62L833.98 240.37L831.06 241.09L828.19 241.80L824.93 242.36L822.28 242.82L818.94 242.96L814.68 241.67L809.50 240.04L803.63 238.20L794.96 235.48L787.08 232.88L778.42 229.98L767.47 226.45L762.53 212.68L760.37 207.42L759.15 211.94L758.01 214.57L757.57 216.83L757.05 218.71L756.68 221.13L755.64 225.49L755.13 228.43L754.91 231.43L754.45 233.22L753.96 234.96L753.48 236.70L752.93 239.91L751.32 242.69L751.14 244.80L751.12 250.01L751.43 252.45L751.77 255.44L752.12 258.42L752.64 263.97L753.12 266.37L753.94 268.83L754.23 271.41L754.17 274.79L754.31 278.05L754.80 281.83L753.93 288.98L751.30 289.92L747.16 290.23L744.72 291.84L743.87 293.76L744.87 297.83L748.98 300.08L751.52 301.52L753.31 302.32L757.98 304.03L761.66 305.70L764.15 306.56L766.64 307.43L772.62 309.00L774.71 309.57L778.31 310.55L787.03 313.11L789.39 313.68L792.34 315.58L794.06 317.18L795.79 318.77L797.69 319.80L799.40 320.73L803.22 322.81L806.51 323.38L809.56 320.49L810.69 318.35L813.45 314.08L816.89 313.63L819.42 313.38L823.15 313.01L831.43 312.01L835.92 311.36L841.65 308.88L842.17 311.21L842.65 313.38L847.71 313.10L849.71 313.32L851.47 313.52L854.97 313.91L855.81 308.81L858.26 308.59L860.66 308.38L862.68 308.20L861.80 305.65L861.21 303.93L860.03 300.50L859.48 295.02L861.59 293.15L867.72 287.72L871.11 286.64L877.60 284.57L880.93 282.59L884.27 280.61L887.24 279.11L892.30 276.56L895.77 267.13L897.03 263.72L900.78 253.54L903.90 248.40L907.39 244.07L900.98 242.63L897.05 241.74L894.72 239.97L895.86 237.60L898.07 233.04L900.41 231.06L902.12 230.51L905.38 230.81L904.22 227.66L896.49 224.67L897.28 221.28L898.44 217.05L900.46 212.77L901.14 209.91L901.90 206.68L902.40 202.45L902.62 200.55L903.11 196.34L903.75 192.76L904.51 189.05L905.53 185.24L906.95 182.49L906.87 179.35L906.74 174.68L905.99 170.39L903.45 170.24L900.13 170.03L892.38 169.55L887.83 169.05L882.64 168.56L877.97 168.13L871.89 168.51L868.26 168.48Z" data-ward="5" /><path id="ward-17" class="ward" d="M61.20 533.90L62.88 529.22L65.14 526.10L66.76 523.40L70.11 517.12L71.81 514.04L74.14 509.58L76.32 505.11L77.58 502.53L78.75 500.21L79.76 497.92L80.61 496.16L81.36 494.52L82.22 492.42L84.25 487.85L82.57 485.96L80.86 484.63L79.16 483.31L77.59 480.98L76.40 479.36L74.50 477.02L72.46 474.54L70.10 471.68L68.16 467.73L66.49 465.27L65.22 463.65L63.41 461.25L60.55 458.89L58.07 455.83L56.32 453.68L54.45 451.11L52.59 448.84L50.26 445.82L47.11 441.75L42.40 435.65L40.82 433.61L39.25 431.58L37.68 429.54L34.60 425.39L32.53 422.60L27.76 416.16L26.66 414.56L25.04 412.50L19.41 420.40L16.73 430.11L16.03 442.68L15.53 451.80L10.05 454.75L5.34 457.29L0.09 475.57L1.09 491.91L2.25 512.38L1.68 531.19L6.42 540.22L4.35 550.57L3.97 560.47L1.92 565.30L4.68 572.81L9.86 579.70L11.01 582.64L9.92 585.48L6.03 589.78L4.14 595.78L2.99 599.43L0.00 608.89L3.71 609.62L11.38 611.12L13.17 612.04L18.89 615.22L22.58 617.71L25.62 621.23L28.52 623.87L28.89 625.24L32.06 626.80L39.70 631.78L42.62 634.09L44.42 637.34L45.53 639.42L46.96 642.09L46.09 647.30L45.24 649.22L44.05 651.89L40.12 656.96L37.23 658.22L33.35 659.90L31.05 665.28L31.20 669.10L36.54 683.67L38.12 687.72L39.26 690.64L46.04 699.15L47.93 701.51L48.43 705.97L49.67 708.62L41.70 723.73L50.50 732.51L51.75 733.87L58.00 737.91L61.96 740.47L64.92 742.96L69.26 746.62L70.93 747.65L75.07 747.86L79.83 747.63L91.41 739.80L95.57 737.52L97.77 735.68L100.61 733.24L109.68 721.89L117.53 708.93L121.50 706.41L134.20 698.38L136.55 696.57L140.05 690.39L141.74 675.27L144.60 658.01L145.14 654.78L152.87 651.16L155.00 650.17L161.11 646.86L167.38 643.46L179.66 636.81L182.16 635.59L192.93 629.47L198.21 626.53L204.13 623.24L206.64 621.84L212.37 616.59L220.80 610.18L226.51 605.30L234.29 597.96L233.66 597.05L219.88 604.29L215.46 606.11L212.50 607.05L206.68 608.90L200.60 610.84L178.97 617.12L175.43 618.80L174.40 621.38L170.46 629.07L167.21 631.70L162.53 634.41L156.63 636.53L151.64 637.82L149.65 636.64L149.36 634.66L149.08 632.67L148.94 628.02L146.82 628.66L145.76 630.22L142.24 634.55L139.28 638.21L135.62 642.72L132.86 648.43L131.77 650.67L126.43 655.27L120.84 660.07L114.43 665.58L107.42 670.80L101.54 675.12L97.58 672.81L94.98 669.78L93.60 667.94L92.09 664.01L91.73 660.14L91.38 656.37L90.11 647.05L88.62 642.37L85.68 641.32L81.25 639.75L76.53 638.66L72.58 637.48L68.49 636.51L64.00 635.44L60.75 634.67L60.67 632.74L61.55 630.91L62.38 628.14L63.23 625.26L64.67 620.99L65.25 618.32L65.83 615.64L66.37 613.13L67.16 610.94L66.46 607.91L64.24 605.61L60.34 602.33L56.38 598.79L52.44 595.24L50.67 593.68L48.89 592.12L45.05 588.91L37.87 589.28L37.33 591.26L36.56 593.65L35.32 596.25L33.63 598.14L31.57 597.35L29.79 596.57L27.46 595.23L25.13 593.88L20.84 592.23L19.08 591.56L20.74 584.92L21.43 582.60L28.27 582.13L31.08 581.94L33.84 581.56L40.18 580.69L43.84 583.19L46.13 584.07L48.31 583.94L50.30 581.87L51.35 580.24L53.98 576.79L54.33 574.79L52.91 572.13L51.03 569.36L52.74 567.45L57.05 565.28L57.80 561.68L63.95 560.88L69.96 559.85L75.73 558.12L75.88 556.36L76.51 552.49L77.18 548.80L77.56 546.42L77.86 544.57L77.71 540.54L77.55 536.39L76.11 534.93L74.46 533.35L68.38 534.04L61.20 533.90Z" data-ward="17" /><path id="ward-4" class="ward" d="M584.13 189.92L581.96 189.22L578.53 187.99L576.08 188.06L574.17 188.12L571.61 188.27L569.89 189.04L566.18 191.50L564.38 192.69L558.78 193.32L557.03 193.52L555.88 199.33L556.12 201.97L556.30 203.86L557.59 205.43L557.98 208.02L556.63 210.34L554.06 214.02L552.77 216.97L552.88 218.88L556.33 224.84L557.36 226.63L558.66 228.81L563.47 235.15L568.15 241.34L572.00 249.13L576.74 250.44L583.03 254.03L597.18 264.18L610.37 270.62L629.88 279.71L631.55 282.09L636.65 289.40L637.85 291.91L641.70 299.88L645.54 304.22L648.51 310.61L650.01 312.54L654.81 313.58L656.63 313.68L660.89 313.90L663.91 314.17L667.38 314.61L672.07 315.30L678.69 316.78L682.25 317.01L687.31 317.84L692.38 318.67L697.18 321.72L701.99 324.76L706.17 327.79L709.60 329.54L716.21 332.93L725.43 331.87L730.40 326.24L735.40 323.39L742.29 321.84L745.13 322.83L747.77 323.57L757.53 326.23L765.44 327.10L767.22 327.30L776.58 329.50L785.16 331.00L796.49 333.44L802.80 334.82L809.84 332.41L814.96 329.23L817.38 327.46L820.37 325.48L823.37 323.51L842.65 313.38L842.17 311.21L841.65 308.88L835.92 311.36L831.43 312.01L823.15 313.01L819.42 313.38L816.89 313.63L813.45 314.08L810.69 318.35L809.56 320.49L806.51 323.38L803.22 322.81L799.40 320.73L797.69 319.80L795.79 318.77L794.06 317.18L792.34 315.58L789.39 313.68L787.03 313.11L778.31 310.55L774.71 309.57L772.62 309.00L766.64 307.43L764.15 306.56L761.66 305.70L757.98 304.03L753.31 302.32L751.52 301.52L748.98 300.08L744.87 297.83L743.87 293.76L744.72 291.84L747.16 290.23L751.30 289.92L753.93 288.98L754.80 281.83L754.31 278.05L754.17 274.79L754.23 271.41L753.94 268.83L753.12 266.37L752.64 263.97L752.12 258.42L751.77 255.44L751.43 252.45L751.12 250.01L751.14 244.80L751.32 242.69L752.93 239.91L753.48 236.70L753.96 234.96L754.45 233.22L754.91 231.43L755.13 228.43L755.64 225.49L756.68 221.13L757.05 218.71L757.57 216.83L758.01 214.57L759.15 211.94L760.37 207.42L752.04 205.51L742.64 203.35L740.17 202.43L737.70 201.50L720.10 194.93L718.33 194.42L712.33 199.15L706.29 212.46L684.66 222.82L674.90 220.18L657.74 209.75L634.07 206.33L630.76 205.16L614.76 199.54L596.96 195.53L593.40 190.80L589.52 191.64L584.13 189.92Z" data-ward="4" /><path id="ward-1" class="ward" d="M233.38 256.37L233.63 253.55L234.81 252.16L235.99 250.77L239.69 249.09L243.39 247.41L245.21 245.50L254.06 231.37L255.65 227.88L256.17 225.45L256.90 219.77L257.82 215.06L258.60 213.24L259.39 211.42L260.96 207.80L261.93 205.56L263.34 202.31L264.13 200.49L265.79 198.34L269.33 193.64L270.96 187.18L269.92 183.49L269.74 180.87L268.62 179.49L265.23 177.53L262.92 176.43L260.47 175.64L258.27 175.18L257.49 173.37L256.71 171.56L257.80 167.87L258.29 163.98L255.53 161.88L252.16 160.68L250.37 158.92L249.98 155.47L250.19 153.32L250.68 150.61L252.64 147.24L255.80 142.85L257.08 138.16L258.00 133.75L261.27 130.12L263.78 127.49L266.49 122.04L268.28 118.23L271.64 112.99L273.80 109.87L275.43 104.33L276.28 101.04L276.73 99.32L278.34 93.62L282.22 90.03L287.15 87.25L282.72 84.03L283.94 80.48L285.68 78.04L284.27 76.21L282.32 73.68L280.20 73.09L277.88 72.43L275.93 71.88L272.91 70.47L272.79 75.61L272.43 90.18L271.25 92.28L268.59 97.83L260.94 107.98L260.84 110.67L260.50 119.62L259.10 124.13L257.66 128.78L251.43 138.75L247.29 147.81L245.02 152.76L242.94 157.31L239.77 164.23L236.94 170.41L236.05 172.37L237.44 176.16L238.29 178.46L239.87 182.75L242.82 190.79L244.47 195.26L245.48 198.01L243.94 205.26L242.58 211.65L236.65 216.51L231.07 221.09L223.76 227.08L222.42 228.30L216.54 231.83L204.25 239.44L199.81 242.19L194.65 245.38L189.15 248.04L183.21 250.91L176.59 254.12L170.71 256.96L167.55 256.87L162.66 256.74L156.56 254.53L152.49 254.63L150.69 255.72L150.65 255.75L144.08 259.54L141.69 260.50L135.91 262.82L132.39 264.23L125.70 266.19L122.57 267.11L118.88 268.19L113.31 269.83L105.86 268.43L102.84 267.87L96.09 266.60L93.83 266.18L91.05 265.90L86.69 266.09L84.78 266.17L79.23 267.91L76.91 270.71L73.89 274.35L71.79 276.87L69.93 283.47L68.34 289.10L67.03 293.71L68.16 300.12L69.13 305.63L70.35 307.73L72.00 310.57L75.89 314.43L79.20 319.85L79.26 320.74L79.27 320.94L78.75 321.93L76.79 324.09L74.77 324.19L75.90 325.06L77.02 325.93L79.61 327.93L80.51 326.30L80.55 324.29L80.48 321.46L80.64 320.39L80.81 319.31L81.34 316.61L81.56 314.33L81.35 312.40L81.02 309.41L81.05 305.47L81.46 302.46L84.15 301.78L86.07 301.23L88.08 300.28L89.99 300.80L94.83 300.92L98.22 300.86L101.31 301.01L104.01 301.16L105.84 301.26L108.27 301.35L110.16 301.31L114.17 301.40L116.14 301.74L118.62 302.34L120.49 303.05L123.65 303.64L126.77 304.19L129.92 304.03L132.72 304.00L135.45 305.43L137.35 307.14L139.39 308.87L141.21 309.97L142.96 311.29L142.26 313.69L141.47 317.95L141.55 319.79L141.91 322.44L142.31 326.66L142.52 328.91L144.09 330.97L143.69 333.85L143.15 336.97L144.92 337.52L149.04 338.28L150.78 338.92L152.54 339.82L154.58 341.13L156.12 342.15L158.26 342.50L160.08 342.79L163.13 343.48L166.09 345.57L167.19 346.95L169.17 349.37L171.32 351.52L170.90 357.51L171.03 360.52L170.73 364.82L170.97 367.01L171.97 368.99L174.24 369.44L176.44 375.18L177.88 379.63L178.97 383.45L180.37 387.15L183.85 387.06L189.82 386.91L192.67 386.83L196.24 386.13L199.88 385.41L202.50 385.50L205.40 384.49L205.30 382.06L206.55 379.49L209.38 378.53L211.54 377.39L213.51 376.35L210.02 365.66L206.67 357.80L206.29 353.51L207.83 351.69L209.66 352.13L212.66 354.46L215.61 356.82L217.76 358.43L223.26 362.25L227.64 365.28L231.48 367.84L234.10 349.66L237.02 320.20L237.93 311.02L238.65 303.75L239.40 296.10L240.81 289.49L239.12 288.93L235.21 289.42L233.19 288.94L232.81 285.66L232.24 283.16L231.58 281.50L230.98 279.78L230.06 276.67L228.94 273.64L228.07 270.29L228.84 267.41L230.05 264.52L230.24 261.30L232.67 258.04L233.38 256.37Z" data-ward="1" /><path id="ward-6" class="ward" d="M997.14 79.86L997.33 76.73L997.50 73.88L998.76 71.69L1000.00 69.53L998.22 65.70L997.20 62.95L996.20 60.29L995.06 58.63L992.96 55.58L991.20 52.61L988.04 49.94L988.09 44.83L981.40 39.28L977.06 35.27L971.54 29.77L968.22 25.91L964.60 22.17L963.05 21.18L959.78 19.60L953.73 6.57L950.68 0.00L947.90 0.11L945.12 0.55L941.99 1.04L938.92 1.52L935.98 2.17L932.22 3.00L930.55 4.41L924.27 6.54L922.15 10.29L921.82 13.29L921.16 15.11L920.55 16.80L918.15 19.00L916.57 20.31L913.19 23.12L911.60 24.45L905.25 29.74L903.66 31.07L901.08 33.21L893.49 39.54L888.52 43.67L884.28 47.20L881.72 49.33L879.17 51.46L875.20 54.77L871.50 57.85L866.39 62.10L859.55 62.92L854.63 63.51L850.31 64.03L845.26 64.63L840.45 65.21L838.22 66.62L834.56 68.93L829.59 72.07L827.59 73.32L819.24 79.96L816.33 79.29L809.81 77.78L801.71 78.24L799.62 78.05L795.00 77.67L789.97 77.18L784.73 76.88L776.74 76.44L769.48 78.44L763.98 79.96L761.33 78.03L759.60 76.78L756.02 74.48L753.90 73.12L750.33 75.81L747.58 77.87L745.87 81.24L745.85 83.60L746.75 85.28L747.65 86.95L748.21 89.17L748.78 91.39L749.71 95.42L750.08 97.23L750.46 99.05L751.14 102.24L752.87 107.42L753.47 109.23L754.19 111.90L752.76 113.66L758.14 118.37L760.60 120.37L762.02 121.52L766.16 124.67L768.29 126.29L770.99 132.40L771.94 139.11L772.77 144.24L773.93 149.81L775.18 155.33L777.60 160.46L779.43 164.35L780.92 167.50L787.79 172.56L794.80 177.49L795.69 174.88L795.30 171.91L794.59 166.12L795.34 162.49L803.34 159.98L807.00 158.83L816.36 155.18L824.27 150.54L829.14 147.69L834.45 144.36L836.79 142.88L843.88 137.79L862.02 130.35L863.25 126.65L864.12 124.01L869.56 124.05L872.41 124.01L875.25 123.98L875.46 126.64L875.74 130.33L875.14 136.08L874.84 141.78L873.83 146.94L871.89 153.79L870.92 156.80L869.94 159.82L868.23 162.21L866.31 164.38L864.39 166.54L864.33 167.70L865.33 168.34L868.26 168.48L871.89 168.51L877.97 168.13L882.64 168.56L887.83 169.05L892.38 169.55L900.13 170.03L903.45 170.24L905.99 170.39L907.78 165.92L908.44 164.27L909.93 162.20L912.84 158.12L912.20 156.38L912.09 154.50L911.59 151.88L911.73 149.98L911.96 146.83L911.13 143.40L908.00 142.28L908.12 134.01L908.25 124.21L923.58 123.24L925.94 122.58L939.39 119.55L943.54 118.46L948.95 116.29L952.88 115.62L956.28 114.87L958.61 114.57L964.12 113.70L966.36 113.57L969.84 112.49L972.03 111.81L975.36 111.95L977.59 112.05L981.20 112.43L982.00 108.91L982.53 105.29L983.54 102.27L984.50 99.32L985.74 95.53L986.53 93.12L988.44 89.07L990.44 84.83L994.08 82.13L997.14 79.86Z" data-ward="6" /></svg>