<svg viewBox="0 0 1000.00 1716.09" xmlns="http://www.w3.org/2000/svg"><style>.ward { fill: #e2e8f0; stroke: #fff; stroke-width: 0.5px; } .ward:hover { fill: #cbd5e1; }</style><path id="ward-3" class="ward" d="M677.92 59.50L674.91 58.08L671.72 56.35L666.67 54.12L663.11 52.54L648.58 48.65L644.96 48.21L639.41 47.53L636.60 49.69L631.33 52.98L624.19 55.70L619.39 57.31L612.94 58.83L609.41 59.84L600.88 59.47L594.84 59.14L589.20 59.02L584.66 58.32L578.83 57.58L575.26 57.38L571.08 58.15L567.47 59.19L563.79 59.34L558.87 59.63L554.61 59.98L549.66 60.40L545.11 60.28L541.81 60.15L536.20 59.67L528.93 59.21L522.32 58.30L516.44 57.94L512.55 57.35L506.91 56.62L500.48 58.39L494.62 61.76L490.73 65.31L486.11 67.76L482.27 68.65L477.05 69.11L472.86 72.42L471.37 76.36L471.57 80.30L472.44 89.13L472.76 94.65L472.61 99.21L471.21 102.76L467.93 104.52L464.24 106.94L458.58 110.64L453.12 113.58L446.33 114.37L442.88 113.90L436.25 113.14L430.53 114.15L427.30 115.19L414.48 117.43L405.88 118.49L400.44 116.51L395.65 116.57L390.37 116.47L384.48 115.84L380.91 116.13L379.01 118.75L379.98 127.43L380.17 135.25L380.07 138.63L377.54 145.13L373.51 148.39L368.33 153.09L366.97 162.02L369.17 169.06L374.78 176.14L377.16 179.80L375.15 183.24L369.32 190.24L368.98 195.68L365.16 202.63L364.58 208.19L369.90 214.90L372.65 221.71L375.21 227.59L378.78 231.95L383.84 235.77L386.37 237.79L391.99 242.14L395.57 241.65L398.39 239.21L402.81 235.81L406.60 237.84L406.67 241.29L407.15 244.75L408.75 248.34L410.36 251.93L414.84 258.76L417.92 262.03L419.66 266.91L420.58 272.36L421.95 275.67L424.40 278.48L428.26 282.85L433.41 287.26L437.27 291.20L439.93 294.53L442.21 298.27L443.43 301.52L444.88 304.52L445.87 307.78L448.03 313.38L449.21 316.82L450.58 320.31L452.38 324.81L453.70 328.09L456.95 333.75L460.80 337.99L464.82 341.75L468.33 344.97L472.41 348.72L475.41 351.57L478.97 354.97L483.26 358.46L488.34 363.00L492.77 366.63L496.28 369.56L499.36 374.75L500.91 378.73L502.93 384.16L505.80 391.19L508.08 397.11L509.97 402.40L512.80 397.83L516.05 393.08L517.74 388.86L518.68 383.33L518.64 380.01L519.08 375.95L519.52 371.89L520.17 368.59L521.02 362.32L520.84 356.02L520.26 351.36L521.20 346.79L522.62 343.38L524.02 340.00L528.31 333.94L531.01 329.99L534.89 325.96L538.30 324.98L541.60 321.74L544.46 317.61L549.17 317.27L553.62 313.12L556.06 309.31L556.29 304.54L555.45 298.96L555.59 295.10L557.41 290.30L559.30 286.61L560.53 281.08L561.01 277.45L562.25 274.12L563.03 268.18L566.40 264.56L569.49 262.48L574.23 258.74L578.20 254.15L583.58 252.06L586.77 255.80L587.34 259.39L586.88 263.13L586.09 266.67L582.64 271.91L579.69 276.28L577.84 279.58L579.28 286.89L579.27 292.24L579.27 296.15L578.76 299.60L576.60 302.33L573.35 307.77L573.55 311.36L573.82 316.40L574.15 322.41L574.54 329.61L575.06 339.25L574.32 349.21L571.87 391.89L573.14 397.86L574.62 400.77L576.09 403.68L578.43 406.49L580.16 409.40L587.22 412.81L591.87 414.53L595.58 415.53L600.22 416.23L603.45 416.71L609.10 417.77L613.21 418.20L617.20 418.53L621.89 418.38L625.80 415.69L628.75 414.41L634.30 413.10L641.29 413.37L645.32 413.05L647.00 409.64L647.69 404.49L646.95 399.36L645.26 394.86L644.36 391.29L643.89 387.37L643.62 383.16L643.18 379.81L641.80 376.25L634.42 374.41L628.90 372.09L631.09 366.54L632.67 361.54L634.37 355.08L640.46 353.09L643.00 350.07L642.79 342.87L663.74 339.64L664.12 336.26L662.56 329.94L662.90 323.24L662.47 311.44L663.47 296.83L672.14 300.40L675.88 301.94L679.99 301.81L685.96 301.94L691.93 302.06L704.59 304.19L711.18 306.68L717.78 309.16L732.94 316.40L756.69 327.74L762.80 330.66L773.23 328.94L811.60 322.64L814.71 321.51L828.86 310.94L838.59 303.66L838.35 292.65L840.76 281.23L846.26 279.33L853.82 262.43L861.48 245.31L863.90 240.13L864.70 236.65L867.29 225.41L856.03 218.85L854.16 204.42L854.34 198.72L854.69 187.88L854.47 180.66L851.88 178.33L846.07 175.52L844.96 171.22L836.78 163.51L832.04 161.43L826.94 157.04L826.96 152.78L826.97 148.28L827.00 139.09L828.41 135.20L829.50 132.18L830.02 122.67L830.21 119.38L830.40 115.78L830.58 112.57L831.23 108.67L832.30 102.22L832.91 98.56L833.44 95.35L830.78 90.01L827.51 88.75L818.12 85.11L814.21 83.58L811.10 82.21L807.51 80.57L801.81 77.44L796.83 74.69L791.52 71.76L785.99 69.91L782.51 68.73L779.42 67.67L773.21 65.00L769.99 64.99L765.74 64.96L760.42 64.43L757.00 64.49L751.22 64.60L745.53 64.49L742.07 64.42L737.49 64.26L733.05 64.09L729.78 63.97L725.82 63.83L721.57 63.75L714.30 63.62L709.28 63.53L703.12 64.04L694.01 64.80L687.97 64.49L684.52 62.73L681.12 61.00L677.92 59.50Z" data-ward="3" /><path id="ward-7" class="ward" d="M824.82 608.37L827.40 613.48L828.42 618.98L829.52 624.44L826.82 632.83L824.70 636.60L822.31 640.85L814.93 651.63L804.99 659.86L801.12 661.73L797.24 663.59L793.19 665.45L794.63 669.25L809.14 707.61L807.13 718.39L806.51 725.52L806.41 736.33L806.39 743.70L807.38 752.87L808.23 766.62L808.52 771.23L813.03 779.37L818.07 788.47L821.62 796.03L825.64 804.60L828.33 810.33L835.76 815.28L843.83 820.66L852.88 827.84L858.72 832.48L872.51 818.18L879.30 807.32L884.43 800.75L895.31 794.25L914.53 767.58L934.19 773.78L942.28 776.33L950.23 778.31L954.94 779.15L960.15 780.08L971.45 781.36L978.84 781.89L984.03 782.26L991.48 782.80L995.80 773.91L997.50 769.50L1000.00 763.00L999.20 756.62L998.33 749.64L996.78 742.00L995.82 734.01L995.34 722.69L993.75 714.82L991.59 704.06L991.59 698.20L991.59 688.38L992.35 679.37L995.40 672.23L989.37 665.40L985.44 662.25L982.76 658.98L974.95 651.84L966.91 644.50L963.51 639.30L964.46 634.81L965.31 630.83L946.59 627.32L939.62 626.02L935.76 624.73L927.53 621.98L919.65 617.13L911.78 612.27L911.13 604.23L913.17 595.91L911.29 584.05L908.77 588.64L899.83 604.94L894.39 614.85L888.89 624.88L863.36 623.30L852.80 622.64L838.84 617.06L827.45 601.46L827.89 596.09L828.23 591.98L828.51 588.57L828.78 585.32L829.64 574.98L830.19 568.29L830.06 563.37L829.72 551.37L829.48 547.80L829.02 541.22L828.71 536.62L827.16 526.50L826.00 518.94L824.74 510.73L823.43 502.17L818.03 500.11L812.57 498.04L808.06 497.77L800.34 497.31L796.25 497.07L793.95 501.50L791.97 505.31L789.07 510.90L787.20 514.51L785.47 517.85L783.90 520.88L782.09 524.37L780.32 527.78L779.34 533.96L777.40 546.22L782.16 550.15L780.74 554.73L778.05 563.41L774.21 575.82L770.66 587.32L772.57 590.02L778.15 589.90L778.24 589.90L786.07 589.56L786.26 589.55L797.80 588.53L810.31 588.15L816.26 589.47L821.71 587.05L825.90 586.98L825.57 594.91L824.82 608.37Z" data-ward="7" /><path id="ward-13" class="ward" d="M734.96 1424.99L730.63 1420.09L727.00 1415.98L719.81 1408.15L713.23 1400.99L710.33 1397.10L708.12 1394.15L703.01 1391.18L701.05 1385.71L700.69 1381.22L694.27 1379.89L689.09 1378.83L685.86 1374.62L685.31 1371.11L679.80 1370.57L671.61 1369.76L664.50 1366.63L659.16 1364.52L656.87 1373.09L655.28 1377.52L652.57 1386.23L650.01 1391.05L647.38 1393.66L642.15 1399.80L638.68 1406.52L635.61 1410.65L631.79 1413.24L627.84 1415.37L622.93 1419.42L617.05 1423.70L616.35 1426.91L611.61 1430.27L605.80 1436.21L602.65 1438.56L605.15 1443.33L607.06 1446.24L609.02 1449.15L611.55 1452.23L615.23 1456.71L622.89 1463.19L603.64 1491.42L616.90 1497.76L628.57 1500.09L657.13 1498.23L660.07 1500.48L664.19 1505.39L667.17 1507.62L675.80 1515.55L686.68 1525.56L697.39 1535.40L700.92 1538.64L707.97 1550.17L710.49 1554.27L713.96 1559.95L716.65 1565.23L714.01 1568.03L713.79 1572.57L715.24 1578.34L716.96 1585.14L719.02 1588.97L721.48 1593.57L726.90 1591.74L730.62 1591.67L733.85 1592.08L739.75 1593.32L740.68 1597.32L746.70 1593.84L749.51 1592.25L752.31 1590.66L757.20 1589.06L761.78 1592.71L765.17 1596.83L766.16 1601.79L766.80 1605.70L763.10 1608.19L757.03 1607.23L752.20 1607.48L746.31 1612.53L740.29 1615.85L734.58 1619.01L734.77 1623.61L735.01 1629.39L735.70 1634.43L736.53 1640.51L730.90 1642.77L724.29 1645.41L719.95 1649.00L720.33 1653.94L722.42 1658.05L722.47 1662.42L722.69 1683.02L722.97 1687.63L723.61 1698.33L727.79 1705.04L733.49 1714.17L743.38 1711.32L746.85 1710.48L751.82 1709.28L756.27 1708.21L764.37 1705.21L768.67 1703.62L774.88 1701.24L782.02 1698.50L789.40 1695.67L804.41 1683.52L811.27 1673.07L818.94 1661.40L820.82 1658.53L826.56 1649.80L812.68 1638.36L809.30 1628.47L810.90 1613.90L795.51 1605.13L796.53 1601.24L797.50 1597.54L797.16 1592.76L796.85 1588.42L796.52 1583.75L797.29 1578.10L797.50 1572.04L797.31 1565.58L795.21 1561.69L793.59 1557.65L792.24 1554.28L787.84 1549.60L783.46 1543.41L781.20 1540.39L775.27 1532.45L773.96 1526.65L771.54 1515.90L768.16 1504.37L766.80 1499.77L775.67 1500.41L782.84 1500.71L790.63 1499.73L807.72 1497.09L834.11 1493.61L843.21 1492.35L857.32 1492.05L860.30 1486.82L871.59 1467.01L876.76 1462.51L879.29 1460.31L871.13 1455.26L865.44 1451.74L863.65 1448.71L860.47 1443.32L853.54 1438.11L849.21 1435.18L842.13 1430.40L832.35 1426.05L828.12 1424.16L823.37 1426.32L812.26 1426.87L807.90 1426.11L801.21 1424.93L797.45 1424.28L792.26 1423.36L785.89 1417.71L782.06 1416.12L777.77 1414.33L769.75 1416.29L761.40 1422.79L757.66 1426.40L754.54 1427.21L749.84 1429.77L745.75 1430.98L740.46 1431.22L734.96 1424.99Z" data-ward="13" /><path id="ward-10" class="ward" d="M491.19 814.86L491.57 810.43L491.43 806.91L491.39 802.69L488.02 800.61L484.54 800.00L480.92 797.97L481.67 792.82L482.49 787.80L481.29 784.21L480.71 780.87L479.15 775.72L477.65 771.80L475.01 765.73L473.61 761.93L470.61 759.72L465.12 758.54L459.81 758.53L454.45 758.63L449.28 758.84L446.89 763.15L441.86 772.21L437.63 779.83L433.69 786.94L434.08 791.20L433.44 797.32L432.39 802.41L431.25 807.94L434.60 814.01L436.92 818.22L440.66 824.78L441.32 828.77L443.36 833.06L442.96 836.81L434.53 841.97L430.58 845.76L426.76 848.15L425.59 851.72L423.42 856.02L425.06 859.13L426.21 868.86L427.95 876.26L429.56 883.07L422.57 881.51L414.76 879.09L407.46 876.83L401.51 877.65L397.17 878.26L389.29 879.36L384.25 879.21L366.31 878.68L359.31 879.78L350.26 881.20L340.29 879.25L337.99 885.92L342.70 891.56L340.48 897.74L339.54 902.01L341.83 909.32L345.03 910.62L351.04 916.71L350.03 919.82L349.02 922.95L347.99 927.27L345.82 932.77L344.37 937.22L343.51 940.91L340.19 943.98L339.54 948.71L339.04 952.38L338.25 957.62L341.40 960.57L344.60 965.52L347.70 970.31L349.31 975.40L350.70 979.79L349.69 983.20L348.75 986.35L348.06 990.46L348.98 994.89L346.30 1003.88L344.45 1007.68L342.37 1011.98L341.88 1015.74L340.74 1018.86L341.91 1022.70L344.74 1027.89L347.37 1031.84L353.40 1040.87L356.93 1046.17L355.78 1050.29L355.65 1055.70L355.74 1059.01L355.75 1063.94L354.96 1067.82L354.04 1073.49L353.18 1076.90L352.53 1081.69L355.39 1085.43L358.80 1086.74L364.45 1087.36L368.38 1088.31L372.02 1089.20L375.53 1088.96L377.33 1086.19L377.49 1081.68L380.25 1077.76L381.87 1073.01L383.18 1067.25L384.50 1062.31L385.05 1056.52L386.98 1052.29L388.85 1048.19L391.26 1041.53L395.12 1041.84L399.21 1042.18L403.07 1042.38L406.89 1040.83L411.08 1039.12L414.04 1036.84L417.45 1034.21L424.52 1032.34L432.16 1030.31L439.77 1030.59L459.44 1031.31L480.72 1030.08L499.42 1029.00L513.29 1028.19L529.06 1027.28L549.86 1026.08L557.16 1025.88L562.17 1025.74L566.02 1025.49L570.40 1025.20L575.16 1025.62L578.95 1026.28L583.61 1027.09L586.90 1026.62L590.42 1026.11L595.14 1025.42L599.17 1024.33L601.63 1021.90L603.95 1019.60L606.56 1017.03L609.41 1014.21L612.85 1011.98L616.99 1011.13L620.24 1007.26L623.65 1003.21L627.59 993.74L628.23 989.32L628.24 985.59L628.42 977.43L628.50 973.93L628.98 968.52L632.44 957.53L635.59 947.52L635.36 941.14L633.28 931.29L632.67 927.17L632.15 922.06L632.11 918.62L632.07 915.11L632.57 907.20L635.34 905.02L632.74 901.01L631.78 890.36L629.74 886.52L625.50 881.93L622.10 879.20L618.46 875.93L614.70 873.06L612.25 868.56L610.34 865.49L605.98 863.61L600.18 862.31L597.43 859.78L594.20 857.68L587.98 857.15L581.45 858.66L578.64 860.47L574.04 863.09L570.20 861.38L568.62 856.67L567.14 853.05L562.94 848.61L559.55 846.98L554.64 846.60L546.29 844.72L543.79 842.29L541.35 837.90L539.93 830.23L539.24 826.26L535.95 819.55L537.47 812.94L539.49 809.69L540.51 806.30L541.69 802.80L536.55 802.79L531.15 803.81L523.84 805.68L520.15 807.22L514.18 809.67L510.84 811.46L504.80 813.29L494.54 817.22L491.19 814.86Z" data-ward="10" /><path id="ward-14" class="ward" d="M616.90 1497.76L603.64 1491.42L622.89 1463.19L615.23 1456.71L611.55 1452.23L609.02 1449.15L607.06 1446.24L605.15 1443.33L602.65 1438.56L544.98 1472.04L541.23 1474.25L480.04 1510.29L463.01 1488.90L409.28 1461.05L404.88 1460.61L391.45 1459.28L378.36 1460.39L371.17 1461.00L367.84 1462.57L363.55 1462.97L359.58 1462.69L353.67 1462.28L347.15 1461.27L341.53 1468.95L335.10 1476.75L331.61 1481.50L327.76 1486.75L324.94 1490.59L322.79 1495.52L323.34 1504.43L323.74 1510.85L327.68 1520.27L327.82 1525.33L330.20 1531.07L330.06 1537.57L329.89 1545.23L325.23 1550.26L322.28 1552.81L320.20 1560.20L319.98 1566.38L317.95 1572.01L316.95 1576.78L319.85 1582.25L323.08 1582.37L327.02 1582.51L328.51 1586.03L329.62 1593.05L331.61 1597.07L334.18 1602.28L334.84 1605.92L335.65 1610.44L342.29 1611.63L349.17 1612.87L349.90 1604.55L350.60 1598.29L352.14 1587.10L352.81 1582.25L355.13 1575.55L358.45 1565.97L361.05 1563.09L367.03 1556.47L375.53 1552.75L378.54 1551.43L383.84 1551.83L391.79 1552.42L395.66 1552.46L400.51 1552.51L413.09 1552.64L430.46 1553.03L435.88 1553.15L439.62 1553.24L445.15 1554.43L449.80 1555.58L455.34 1556.95L460.19 1558.16L463.77 1559.04L468.90 1561.32L472.49 1562.90L478.20 1565.43L481.94 1567.08L485.41 1568.62L489.02 1570.22L493.19 1572.06L498.11 1574.24L503.30 1576.42L507.67 1578.24L514.43 1581.08L518.20 1584.20L521.84 1587.22L526.23 1590.86L530.15 1593.94L533.37 1596.48L538.25 1600.31L543.06 1604.10L546.22 1606.64L551.96 1612.47L558.84 1619.52L566.72 1627.60L572.45 1634.07L576.27 1638.38L578.52 1640.92L583.67 1646.74L588.94 1652.63L591.64 1655.63L594.71 1659.07L598.23 1662.79L611.80 1676.73L614.40 1679.40L621.89 1685.99L641.55 1696.95L646.66 1699.80L654.70 1703.76L658.56 1705.63L663.54 1707.65L668.53 1709.64L675.57 1712.50L679.76 1714.20L685.08 1714.70L695.52 1715.68L700.42 1715.77L709.89 1715.95L717.65 1716.09L723.39 1715.95L727.67 1715.85L733.49 1714.17L727.79 1705.04L723.61 1698.33L722.97 1687.63L722.69 1683.02L722.47 1662.42L722.42 1658.05L720.33 1653.94L719.95 1649.00L724.29 1645.41L730.90 1642.77L736.53 1640.51L735.70 1634.43L735.01 1629.39L734.77 1623.61L734.58 1619.01L740.29 1615.85L746.31 1612.53L752.20 1607.48L757.03 1607.23L763.10 1608.19L766.80 1605.70L766.16 1601.79L765.17 1596.83L761.78 1592.71L757.20 1589.06L752.31 1590.66L749.51 1592.25L746.70 1593.84L740.68 1597.32L739.75 1593.32L733.85 1592.08L730.62 1591.67L726.90 1591.74L721.48 1593.57L719.02 1588.97L716.96 1585.14L715.24 1578.34L713.79 1572.57L714.01 1568.03L716.65 1565.23L713.96 1559.95L710.49 1554.27L707.97 1550.17L700.92 1538.64L697.39 1535.40L686.68 1525.56L675.80 1515.55L667.17 1507.62L664.19 1505.39L660.07 1500.48L657.13 1498.23L628.57 1500.09L616.90 1497.76Z" data-ward="14" /><path id="ward-20" class="ward" d="M253.63 793.20L245.59 771.81L206.71 699.09L201.74 693.91L194.51 691.44L187.06 688.90L170.90 683.39L139.47 672.67L136.89 680.11L130.86 688.13L128.28 691.55L124.06 697.17L120.48 702.89L117.66 707.40L116.45 710.77L115.20 714.23L114.07 717.38L111.95 729.82L112.20 731.43L113.08 740.91L115.62 749.09L118.30 757.69L120.70 765.39L123.56 768.66L124.11 776.38L126.47 783.98L127.55 792.94L128.57 801.47L131.48 815.98L129.32 827.50L127.96 834.74L126.37 843.18L123.07 860.74L120.66 871.47L117.05 887.44L111.91 894.41L108.51 894.66L95.46 895.64L86.98 888.86L83.56 887.56L69.69 876.16L65.96 875.50L58.90 874.25L50.24 872.71L44.38 874.69L37.16 877.13L28.51 880.06L24.45 883.12L17.06 888.68L14.60 892.54L9.67 900.27L7.09 904.30L18.90 911.33L17.79 917.15L15.28 930.19L20.54 937.86L21.47 946.41L27.00 948.19L32.80 951.11L48.93 952.80L50.89 947.81L52.29 943.70L53.92 938.95L57.67 938.75L67.24 943.94L73.41 942.24L79.77 944.29L83.55 946.73L88.50 949.92L96.05 952.78L100.71 954.55L107.23 956.34L111.52 957.51L114.77 957.01L118.85 956.39L124.43 955.09L128.41 954.17L130.42 948.49L133.55 947.21L138.10 945.35L143.29 945.99L151.47 946.23L159.00 946.46L162.06 951.14L165.94 953.27L167.44 950.24L172.68 950.34L181.04 951.11L184.28 951.73L189.15 952.66L194.48 953.48L198.52 954.10L204.17 952.94L204.75 949.46L205.37 945.76L205.91 942.52L209.62 938.18L213.42 938.23L216.97 938.27L222.84 937.57L227.75 937.00L235.99 938.20L240.41 938.84L245.71 939.11L251.50 939.87L254.75 939.72L258.71 940.12L261.04 945.44L261.23 950.04L261.59 958.44L260.64 962.41L259.61 966.69L257.98 973.44L257.25 977.18L255.95 983.75L254.92 988.96L257.48 997.34L265.50 994.83L270.84 993.67L277.21 992.28L284.27 990.91L292.34 989.34L295.57 988.71L301.65 986.41L305.58 984.91L312.58 981.19L319.75 974.72L324.43 966.22L331.26 965.42L334.34 963.94L341.40 960.57L338.25 957.62L339.04 952.38L339.54 948.71L340.19 943.98L343.51 940.91L344.37 937.22L345.82 932.77L347.99 927.27L349.02 922.95L350.03 919.82L351.04 916.71L345.03 910.62L341.83 909.32L339.54 902.01L340.48 897.74L342.70 891.56L337.99 885.92L340.29 879.25L350.26 881.20L359.31 879.78L366.31 878.68L384.25 879.21L389.29 879.36L397.17 878.26L401.51 877.65L407.46 876.83L414.76 879.09L422.57 881.51L429.56 883.07L427.95 876.26L426.21 868.86L425.06 859.13L423.42 856.02L425.59 851.72L426.76 848.15L430.58 845.76L434.53 841.97L442.96 836.81L443.36 833.06L441.32 828.77L440.66 824.78L436.92 818.22L434.60 814.01L431.25 807.94L425.17 808.24L419.36 808.53L409.46 807.63L403.76 807.68L395.40 808.60L391.08 809.08L382.03 808.80L372.62 808.58L367.09 805.64L362.66 805.03L355.71 804.07L346.38 802.32L338.04 800.77L326.30 798.66L320.42 798.32L304.76 796.57L301.14 803.10L298.79 807.34L295.27 809.39L291.95 811.33L287.36 809.80L281.49 807.46L278.57 806.03L274.69 804.14L267.69 801.15L264.22 802.31L260.76 803.46L253.63 793.20Z" data-ward="20" /><path id="ward-15" class="ward" d="M658.62 1219.67L659.35 1210.26L658.07 1201.10L659.16 1195.65L656.06 1194.60L648.20 1190.69L639.51 1187.42L633.58 1186.18L628.53 1185.27L622.50 1184.18L616.19 1182.92L609.37 1182.10L605.36 1181.63L602.36 1180.43L598.36 1178.85L593.81 1179.05L590.53 1179.20L583.51 1179.52L579.62 1179.70L578.47 1184.17L577.45 1188.09L576.79 1192.91L578.82 1196.44L578.62 1201.02L578.38 1206.27L578.21 1210.27L577.59 1214.68L572.33 1219.61L562.88 1221.69L557.75 1222.82L549.27 1222.76L539.56 1228.45L463.95 1272.72L440.98 1286.91L440.80 1291.43L435.86 1379.70L434.30 1384.90L433.36 1388.03L430.76 1392.84L426.48 1402.07L425.32 1405.98L422.90 1414.11L420.49 1420.33L417.48 1428.09L414.88 1434.80L404.88 1460.61L409.28 1461.05L463.01 1488.90L480.04 1510.29L541.23 1474.25L544.98 1472.04L602.65 1438.56L605.80 1436.21L611.61 1430.27L616.35 1426.91L617.05 1423.70L622.93 1419.42L627.84 1415.37L631.79 1413.24L635.61 1410.65L638.68 1406.52L642.15 1399.80L647.38 1393.66L650.01 1391.05L652.57 1386.23L655.28 1377.52L656.87 1373.09L659.16 1364.52L649.98 1361.48L640.22 1357.64L630.37 1353.76L620.94 1353.70L616.83 1353.23L614.50 1349.42L613.93 1343.54L614.99 1339.90L617.41 1331.65L617.44 1326.09L620.05 1316.02L622.99 1310.09L624.92 1306.21L628.56 1301.89L631.28 1298.65L635.76 1291.63L641.03 1288.60L644.84 1282.78L645.75 1275.05L648.65 1269.23L652.96 1265.27L656.40 1262.12L656.36 1258.73L656.84 1254.31L657.38 1249.38L656.92 1245.13L656.17 1238.23L657.21 1231.21L658.30 1223.82L658.62 1219.67Z" data-ward="15" /><path id="ward-16" class="ward" d="M614.55 1024.90L615.55 1019.26L616.27 1015.20L616.99 1011.13L612.85 1011.98L609.41 1014.21L606.56 1017.03L603.95 1019.60L601.63 1021.90L599.17 1024.33L595.14 1025.42L590.42 1026.11L586.90 1026.62L583.61 1027.09L578.95 1026.28L575.16 1025.62L570.40 1025.20L566.02 1025.49L562.17 1025.74L557.16 1025.88L549.86 1026.08L529.06 1027.28L513.29 1028.19L499.42 1029.00L480.72 1030.08L459.44 1031.31L439.77 1030.59L432.16 1030.31L424.52 1032.34L417.45 1034.21L414.04 1036.84L411.08 1039.12L406.89 1040.83L403.07 1042.38L399.21 1042.18L395.12 1041.84L391.26 1041.53L388.85 1048.19L386.98 1052.29L385.05 1056.52L384.50 1062.31L383.18 1067.25L381.87 1073.01L380.25 1077.76L377.49 1081.68L377.33 1086.19L375.53 1088.96L372.02 1089.20L368.38 1088.31L364.45 1087.36L358.80 1086.74L355.39 1085.43L352.53 1081.69L353.18 1076.90L354.04 1073.49L354.96 1067.82L355.75 1063.94L355.74 1059.01L355.65 1055.70L355.78 1050.29L356.93 1046.17L353.40 1040.87L345.50 1040.19L340.70 1044.30L338.95 1050.11L338.59 1056.05L338.38 1059.58L338.87 1064.57L338.90 1069.30L341.12 1077.78L342.66 1083.67L333.36 1090.16L327.01 1093.99L322.52 1102.90L323.82 1108.11L325.75 1115.80L323.27 1127.18L321.89 1133.54L318.36 1136.99L315.45 1139.83L312.00 1147.82L312.95 1153.43L312.61 1161.06L312.30 1167.77L308.43 1173.72L305.62 1179.17L307.62 1186.46L306.67 1196.26L303.02 1206.77L301.88 1213.17L301.57 1216.85L301.06 1222.96L301.16 1229.36L301.99 1233.19L303.90 1242.02L305.61 1248.03L306.69 1251.85L308.89 1264.05L303.71 1267.27L301.95 1278.51L300.26 1283.23L298.33 1288.63L297.01 1295.33L299.32 1305.28L298.94 1313.49L303.47 1321.21L304.59 1328.34L308.69 1331.45L309.10 1336.93L311.53 1341.39L310.72 1345.44L309.17 1350.56L306.35 1358.09L308.57 1361.09L310.55 1365.54L308.91 1370.01L311.10 1373.84L312.54 1377.04L317.11 1380.44L321.65 1383.63L322.62 1387.19L323.31 1390.87L326.89 1393.53L328.50 1396.92L328.78 1400.88L330.99 1404.86L335.78 1405.19L344.35 1409.05L347.50 1411.33L352.04 1412.44L355.07 1415.40L355.92 1422.24L359.80 1426.93L363.81 1430.57L368.37 1432.35L371.40 1434.79L373.82 1437.18L377.46 1436.20L383.61 1436.70L391.45 1459.28L404.88 1460.61L414.88 1434.80L417.48 1428.09L420.49 1420.33L422.90 1414.11L425.32 1405.98L426.48 1402.07L430.76 1392.84L433.36 1388.03L434.30 1384.90L435.86 1379.70L440.80 1291.43L440.98 1286.91L463.95 1272.72L539.56 1228.45L549.27 1222.76L557.75 1222.82L562.88 1221.69L572.33 1219.61L577.59 1214.68L578.21 1210.27L578.38 1206.27L578.62 1201.02L578.82 1196.44L576.79 1192.91L577.45 1188.09L578.47 1184.17L579.62 1179.70L583.51 1179.52L590.53 1179.20L593.81 1179.05L598.36 1178.85L602.36 1180.43L605.36 1181.63L609.37 1182.10L616.19 1182.92L622.50 1184.18L628.53 1185.27L633.58 1186.18L639.51 1187.42L648.20 1190.69L656.06 1194.60L659.16 1195.65L660.62 1191.01L662.33 1185.58L663.31 1182.46L662.24 1179.32L661.67 1175.77L659.61 1169.54L657.64 1160.90L656.65 1156.58L655.18 1150.11L657.09 1145.39L661.62 1135.56L663.61 1129.13L665.57 1122.96L666.57 1118.46L668.92 1112.41L670.44 1108.51L672.05 1105.54L675.21 1103.20L678.99 1098.47L680.73 1093.78L680.22 1090.18L679.56 1085.51L677.35 1082.38L675.87 1076.62L670.25 1076.68L665.16 1078.07L657.82 1078.63L652.43 1079.04L646.29 1077.60L642.05 1077.00L636.66 1076.24L634.40 1073.33L631.61 1067.98L628.54 1061.27L626.48 1056.79L626.46 1052.91L627.81 1048.41L628.44 1044.15L629.18 1039.17L628.59 1035.46L626.07 1032.20L620.52 1029.56L614.55 1024.90Z" data-ward="16" /><path id="ward-5" class="ward" d="M672.14 300.40L663.47 296.83L662.47 311.44L662.90 323.24L662.56 329.94L664.12 336.26L663.74 339.64L642.79 342.87L643.00 350.07L640.46 353.09L634.37 355.08L632.67 361.54L631.09 366.54L628.90 372.09L634.42 374.41L641.80 376.25L643.18 379.81L643.62 383.16L643.89 387.37L644.36 391.29L645.26 394.86L646.95 399.36L647.69 404.49L647.00 409.64L645.32 413.05L641.29 413.37L634.30 413.10L628.75 414.41L625.80 415.69L621.89 418.38L617.20 418.53L613.21 418.20L609.10 417.77L603.45 416.71L600.22 416.23L595.58 415.53L591.87 414.53L587.22 412.81L580.16 409.40L575.43 414.20L576.30 417.91L576.04 421.40L573.40 423.44L570.64 425.80L567.80 428.94L565.07 430.88L559.11 435.81L557.16 438.53L555.66 447.33L554.50 451.54L552.96 457.17L553.92 461.33L554.89 465.48L562.57 489.66L557.55 491.23L554.47 493.42L553.71 497.70L550.65 498.61L548.83 502.47L552.00 506.06L554.78 508.92L558.12 512.28L560.76 514.93L564.61 518.59L567.78 521.76L571.81 525.37L575.63 528.53L578.32 531.30L581.26 534.31L585.53 538.66L590.03 542.63L595.31 546.69L602.40 548.30L605.83 548.91L611.54 549.92L618.37 550.11L621.41 551.17L625.27 552.07L629.83 553.63L632.92 554.48L636.23 555.82L639.80 556.96L646.14 560.07L651.64 563.54L654.94 564.72L659.96 564.56L667.29 564.76L672.38 564.91L678.17 565.08L683.13 565.57L687.96 566.17L692.75 566.37L697.20 567.37L701.73 568.38L708.36 569.86L712.83 571.58L718.59 573.29L723.23 575.00L727.31 573.82L729.38 569.76L731.17 566.37L733.72 564.32L738.24 561.64L743.70 558.21L749.16 554.38L752.16 552.00L754.76 549.16L755.54 545.04L754.71 541.43L753.56 537.56L753.08 533.70L753.27 530.43L753.64 523.99L754.21 514.30L754.82 503.69L755.48 492.37L755.97 483.89L757.20 480.90L758.59 477.83L761.26 471.96L768.82 455.32L773.88 444.42L777.12 442.64L779.94 441.09L783.00 439.41L792.03 434.45L796.37 433.31L805.14 432.28L824.72 430.01L835.03 428.81L843.25 428.35L860.69 427.39L865.71 427.24L871.66 417.42L873.34 414.59L876.93 408.45L880.51 402.32L884.37 395.73L888.03 389.47L890.48 385.28L890.67 379.66L890.85 374.38L882.43 352.87L881.35 349.79L874.58 331.20L869.52 317.32L866.97 310.31L838.59 303.66L828.86 310.94L814.71 321.51L811.60 322.64L773.23 328.94L762.80 330.66L756.69 327.74L732.94 316.40L717.78 309.16L711.18 306.68L704.59 304.19L691.93 302.06L685.96 301.94L679.99 301.81L675.88 301.94L672.14 300.40Z" data-ward="5" /><path id="ward-6" class="ward" d="M824.82 608.37L825.57 594.91L825.90 586.98L821.71 587.05L816.26 589.47L810.31 588.15L797.80 588.53L786.26 589.55L786.07 589.56L778.24 589.90L778.15 589.90L772.57 590.02L770.66 587.32L774.21 575.82L778.05 563.41L780.74 554.73L782.16 550.15L777.40 546.22L779.34 533.96L780.32 527.78L782.09 524.37L783.90 520.88L785.47 517.85L787.20 514.51L789.07 510.90L791.97 505.31L793.95 501.50L796.25 497.07L800.34 497.31L808.06 497.77L812.57 498.04L818.03 500.11L823.43 502.17L831.15 486.71L837.25 474.50L838.72 471.56L839.97 467.17L841.93 460.27L843.08 456.22L844.32 451.83L849.33 445.63L855.73 438.79L859.40 435.98L864.35 432.17L865.71 427.24L860.69 427.39L843.25 428.35L835.03 428.81L824.72 430.01L805.14 432.28L796.37 433.31L792.03 434.45L783.00 439.41L779.94 441.09L777.12 442.64L773.88 444.42L768.82 455.32L761.26 471.96L758.59 477.83L757.20 480.90L755.97 483.89L755.48 492.37L754.82 503.69L754.21 514.30L753.64 523.99L753.27 530.43L753.08 533.70L753.56 537.56L754.71 541.43L755.54 545.04L754.76 549.16L752.16 552.00L749.16 554.38L743.70 558.21L738.24 561.64L733.72 564.32L731.17 566.37L729.38 569.76L727.31 573.82L723.23 575.00L718.59 573.29L712.83 571.58L708.36 569.86L701.73 568.38L697.20 567.37L692.75 566.37L687.96 566.17L683.13 565.57L678.17 565.08L672.38 564.91L667.29 564.76L659.96 564.56L654.94 564.72L651.64 563.54L646.14 560.07L639.80 556.96L636.23 555.82L632.92 554.48L629.83 553.63L625.27 552.07L621.41 551.17L618.37 550.11L611.54 549.92L617.30 555.06L619.94 556.86L624.48 562.43L625.81 565.48L625.98 570.14L624.95 573.49L625.13 576.83L624.34 580.04L627.54 582.50L631.01 582.29L631.49 585.79L631.00 589.15L630.51 592.93L629.10 597.40L628.11 602.11L626.98 606.61L629.31 609.61L633.58 614.66L635.22 618.02L640.62 618.83L646.29 619.71L650.73 619.59L656.56 620.61L662.38 622.86L669.75 625.76L674.03 623.16L677.81 619.60L685.12 617.65L690.78 626.74L695.03 628.97L701.62 632.43L706.54 642.64L710.18 645.13L718.02 650.50L720.09 653.39L722.69 657.04L727.04 658.96L730.94 660.67L735.97 661.62L736.04 665.92L738.67 668.15L741.49 673.39L747.50 675.23L752.65 674.29L756.05 673.28L760.03 672.00L764.82 671.86L768.69 671.67L776.15 671.81L779.96 671.89L785.40 669.24L793.19 665.45L797.24 663.59L801.12 661.73L804.99 659.86L814.93 651.63L822.31 640.85L824.70 636.60L826.82 632.83L829.52 624.44L828.42 618.98L827.40 613.48L824.82 608.37Z" data-ward="6" /><path id="ward-4" class="ward" d="M624.34 580.04L625.13 576.83L624.95 573.49L625.98 570.14L625.81 565.48L624.48 562.43L619.94 556.86L617.30 555.06L611.54 549.92L605.83 548.91L602.40 548.30L595.31 546.69L590.03 542.63L585.53 538.66L581.26 534.31L578.32 531.30L575.63 528.53L571.81 525.37L567.78 521.76L564.61 518.59L560.76 514.93L558.12 512.28L554.78 508.92L552.00 506.06L548.83 502.47L550.65 498.61L553.71 497.70L554.47 493.42L557.55 491.23L562.57 489.66L554.89 465.48L553.92 461.33L552.96 457.17L554.50 451.54L555.66 447.33L557.16 438.53L559.11 435.81L565.07 430.88L567.80 428.94L570.64 425.80L573.40 423.44L576.04 421.40L576.30 417.91L575.43 414.20L580.16 409.40L578.43 406.49L576.09 403.68L574.62 400.77L573.14 397.86L571.87 391.89L574.32 349.21L575.06 339.25L574.54 329.61L574.15 322.41L573.82 316.40L573.55 311.36L573.35 307.77L576.60 302.33L578.76 299.60L579.27 296.15L579.27 292.24L579.28 286.89L577.84 279.58L579.69 276.28L582.64 271.91L586.09 266.67L586.88 263.13L587.34 259.39L586.77 255.80L583.58 252.06L578.20 254.15L574.23 258.74L569.49 262.48L566.40 264.56L563.03 268.18L562.25 274.12L561.01 277.45L560.53 281.08L559.30 286.61L557.41 290.30L555.59 295.10L555.45 298.96L556.29 304.54L556.06 309.31L553.62 313.12L549.17 317.27L544.46 317.61L541.60 321.74L538.30 324.98L534.89 325.96L531.01 329.99L528.31 333.94L524.02 340.00L522.62 343.38L521.20 346.79L520.26 351.36L520.84 356.02L521.02 362.32L520.17 368.59L519.52 371.89L519.08 375.95L518.64 380.01L518.68 383.33L517.74 388.86L516.05 393.08L512.80 397.83L509.97 402.40L510.52 411.44L511.12 418.13L512.99 421.52L514.99 427.45L515.98 431.44L514.70 437.70L517.82 440.99L518.71 447.73L518.91 451.00L520.08 455.25L520.95 458.47L521.12 463.25L521.26 467.28L516.94 470.20L511.59 470.96L518.53 477.09L518.72 480.32L517.18 485.34L515.11 487.95L513.03 490.95L511.00 494.63L509.37 497.97L507.76 501.00L504.92 502.59L501.65 505.41L500.18 508.90L500.71 512.52L499.63 515.91L497.81 522.09L496.15 526.58L494.99 531.88L493.84 536.32L492.57 544.73L493.42 549.05L495.06 555.06L496.40 559.59L496.60 564.83L495.89 569.66L495.32 578.00L494.31 582.37L496.48 585.12L500.35 589.61L505.27 595.15L508.56 598.18L511.93 601.05L516.82 602.57L534.53 616.58L539.28 620.34L555.83 620.48L568.36 621.47L572.34 621.78L575.71 622.45L579.18 618.83L585.19 618.73L590.34 615.94L595.69 617.65L599.52 618.55L604.45 620.50L607.92 620.06L613.25 620.01L616.33 620.95L622.43 621.26L626.91 622.03L629.82 623.95L634.04 623.29L635.22 618.02L633.58 614.66L629.31 609.61L626.98 606.61L628.11 602.11L629.10 597.40L630.51 592.93L631.00 589.15L631.49 585.79L631.01 582.29L627.54 582.50L624.34 580.04Z" data-ward="4" /><path id="ward-12" class="ward" d="M835.27 1066.65L829.05 1055.65L807.03 1052.85L798.14 1051.72L781.68 1041.14L776.07 1023.97L772.85 1014.09L769.38 1003.96L766.12 988.70L761.60 980.21L751.39 961.05L748.71 952.99L734.76 923.79L732.10 889.77L730.70 880.64L724.58 842.58L720.11 836.92L672.52 809.83L639.79 790.58L635.67 788.90L641.67 872.14L647.05 895.78L643.58 898.52L635.34 905.02L632.57 907.20L632.07 915.11L632.11 918.62L632.15 922.06L632.67 927.17L633.28 931.29L635.36 941.14L635.59 947.52L638.57 953.29L644.03 957.59L648.74 959.55L653.05 962.15L656.03 963.42L661.02 964.64L666.38 967.01L671.13 968.15L675.43 969.18L681.93 971.02L684.80 975.92L685.40 981.66L687.78 984.84L691.19 987.21L694.69 987.91L699.92 988.27L706.23 989.50L709.82 989.62L712.99 990.17L713.05 994.47L714.15 1001.26L715.43 1004.84L717.08 1009.48L718.72 1014.42L719.59 1018.11L715.10 1019.31L708.17 1021.16L708.03 1026.41L705.79 1030.18L700.55 1033.79L693.13 1039.55L696.15 1045.27L700.35 1050.03L703.76 1052.86L707.52 1055.99L708.93 1059.04L712.56 1066.97L714.70 1074.45L714.56 1078.10L714.17 1088.45L715.40 1094.62L717.73 1098.23L720.45 1104.26L724.74 1104.56L729.57 1104.14L733.19 1101.29L734.05 1097.42L734.04 1093.67L735.22 1090.09L738.44 1087.13L742.39 1084.21L748.17 1081.98L751.35 1081.54L755.72 1081.16L759.63 1081.32L763.83 1081.37L767.80 1081.74L771.54 1081.50L777.10 1081.25L782.07 1082.92L783.87 1087.97L785.35 1092.16L787.35 1097.48L788.38 1102.75L789.29 1107.43L789.98 1110.96L791.70 1114.91L794.34 1120.96L796.64 1126.54L798.36 1130.73L800.34 1139.05L803.90 1142.21L810.52 1148.10L811.50 1154.68L812.09 1160.12L814.77 1162.47L817.36 1164.84L821.33 1164.85L822.64 1159.00L825.71 1157.03L830.62 1154.47L834.45 1152.62L838.75 1150.91L842.27 1150.26L846.59 1150.81L851.54 1151.95L857.30 1153.28L864.24 1152.02L867.85 1151.65L869.93 1154.16L873.67 1157.40L876.70 1160.02L880.11 1162.97L883.63 1166.02L885.80 1169.30L889.22 1174.48L893.28 1177.90L896.30 1180.72L899.53 1183.74L898.89 1188.36L898.18 1193.46L898.52 1197.38L899.02 1203.13L899.46 1208.57L897.45 1214.05L895.94 1218.13L894.32 1221.36L887.64 1220.47L880.98 1221.64L876.92 1220.11L872.26 1217.29L868.18 1217.01L860.65 1218.99L841.06 1224.15L824.19 1228.59L819.22 1231.85L806.88 1242.85L798.97 1248.50L795.95 1249.64L784.69 1253.93L774.64 1254.08L767.58 1258.15L761.62 1261.58L750.85 1271.10L745.76 1275.60L746.58 1282.27L748.27 1285.49L748.04 1290.99L749.11 1295.24L749.82 1300.66L753.84 1298.72L759.72 1298.20L765.23 1295.14L765.95 1289.34L770.01 1287.33L776.47 1284.67L779.85 1283.51L784.48 1282.53L788.91 1281.58L796.14 1284.52L802.89 1285.85L805.48 1288.25L808.29 1290.93L808.56 1296.48L808.19 1299.98L812.09 1299.48L815.26 1296.37L817.94 1289.72L820.62 1285.32L824.13 1279.58L828.04 1277.51L833.22 1278.68L839.19 1280.04L843.01 1280.91L846.82 1281.94L851.06 1283.09L856.51 1284.11L860.90 1284.94L864.30 1286.80L871.58 1290.79L879.15 1290.10L885.03 1288.92L889.34 1289.37L896.34 1290.11L898.22 1292.79L895.43 1300.34L892.12 1300.68L888.66 1303.97L886.09 1310.66L882.46 1317.56L883.99 1323.07L884.96 1326.57L884.33 1330.29L883.74 1333.82L873.90 1340.44L874.33 1347.64L875.44 1357.34L877.07 1366.62L878.83 1377.45L874.99 1388.08L870.38 1396.02L870.13 1402.48L869.52 1405.96L869.96 1410.17L869.86 1419.20L869.55 1425.41L871.59 1429.01L878.89 1433.18L884.16 1435.57L883.62 1441.58L884.35 1446.02L883.86 1451.66L879.29 1460.31L876.76 1462.51L871.59 1467.01L860.30 1486.82L857.32 1492.05L843.21 1492.35L834.11 1493.61L807.72 1497.09L790.63 1499.73L782.84 1500.71L775.67 1500.41L766.80 1499.77L768.16 1504.37L771.54 1515.90L773.96 1526.65L775.27 1532.45L781.20 1540.39L783.46 1543.41L787.84 1549.60L792.24 1554.28L793.59 1557.65L795.21 1561.69L797.31 1565.58L797.50 1572.04L797.29 1578.10L796.52 1583.75L796.85 1588.42L797.16 1592.76L797.50 1597.54L796.53 1601.24L795.51 1605.13L810.90 1613.90L809.30 1628.47L812.68 1638.36L826.56 1649.80L831.50 1641.86L837.91 1631.77L842.09 1624.79L862.60 1590.54L869.95 1580.25L881.90 1568.46L895.17 1550.92L911.97 1523.50L923.42 1505.83L936.71 1482.83L938.19 1478.63L943.90 1462.40L947.20 1438.69L947.44 1431.34L950.80 1419.54L951.26 1405.51L953.53 1387.36L952.74 1382.41L953.33 1356.60L953.59 1345.22L953.65 1330.62L955.23 1318.08L956.71 1303.79L957.80 1298.08L959.59 1284.85L963.49 1277.08L968.84 1265.25L970.89 1260.71L973.44 1257.27L966.11 1248.29L962.40 1243.74L961.68 1239.10L960.47 1231.38L958.37 1226.41L956.38 1221.43L952.68 1212.19L948.98 1202.95L944.64 1196.37L941.90 1192.21L937.59 1185.66L935.01 1181.75L932.66 1178.17L930.13 1174.13L926.13 1169.87L910.23 1155.81L898.45 1144.51L892.73 1139.02L874.25 1121.29L877.60 1116.67L878.02 1105.16L877.39 1101.66L874.90 1094.29L865.14 1093.14L849.19 1091.27L846.76 1086.97L844.61 1083.17L835.27 1066.65Z" data-ward="12" /><path id="ward-9" class="ward" d="M572.81 674.73L572.63 666.06L572.36 658.46L572.34 621.78L568.36 621.47L555.83 620.48L539.28 620.34L534.53 616.58L516.82 602.57L511.93 601.05L508.56 598.18L505.27 595.15L500.35 589.61L496.48 585.12L494.31 582.37L462.83 550.02L454.17 547.02L446.59 545.38L442.46 545.16L438.26 544.87L432.52 545.38L431.34 548.57L428.88 557.05L427.27 560.47L427.70 563.97L428.57 569.37L426.08 575.14L425.14 578.58L424.64 582.75L423.71 585.83L422.98 592.46L426.51 594.26L430.55 594.71L435.27 595.85L436.73 599.33L434.78 604.23L435.09 607.48L437.86 609.78L438.25 613.62L441.52 615.92L444.73 618.18L448.00 618.65L451.24 619.11L456.44 621.16L460.09 622.61L460.80 627.27L464.66 628.24L466.98 631.22L467.40 636.66L467.64 639.92L468.37 645.38L468.86 649.09L466.01 653.68L463.96 656.98L452.03 667.28L446.83 671.77L442.48 672.80L433.16 675.23L427.15 674.69L424.05 678.95L419.75 680.12L416.16 681.11L414.95 685.30L413.35 690.82L410.11 696.85L406.20 704.10L403.79 709.52L401.48 714.72L400.05 719.81L398.94 723.74L396.70 727.11L394.85 729.88L390.89 735.82L387.40 734.89L384.96 737.38L385.69 740.92L386.17 745.12L386.92 751.54L385.70 755.38L383.73 761.63L383.85 765.21L380.11 772.52L378.85 776.23L376.72 785.16L376.15 790.50L374.39 793.45L370.97 799.15L369.10 802.27L367.09 805.64L372.62 808.58L382.03 808.80L391.08 809.08L395.40 808.60L403.76 807.68L409.46 807.63L419.36 808.53L425.17 808.24L431.25 807.94L432.39 802.41L433.44 797.32L434.08 791.20L433.69 786.94L437.63 779.83L441.86 772.21L446.89 763.15L449.28 758.84L454.45 758.63L459.81 758.53L465.12 758.54L470.61 759.72L473.61 761.93L475.01 765.73L477.65 771.80L479.15 775.72L480.71 780.87L481.29 784.21L482.49 787.80L481.67 792.82L480.92 797.97L484.54 800.00L488.02 800.61L491.39 802.69L491.43 806.91L491.57 810.43L491.19 814.86L494.54 817.22L504.80 813.29L510.84 811.46L514.18 809.67L520.15 807.22L523.84 805.68L531.15 803.81L536.55 802.79L541.69 802.80L540.51 806.30L539.49 809.69L537.47 812.94L535.95 819.55L539.24 826.26L539.93 830.23L541.35 837.90L543.79 842.29L546.29 844.72L554.64 846.60L559.55 846.98L562.94 848.61L567.14 853.05L568.62 856.67L570.20 861.38L574.04 863.09L578.64 860.47L581.45 858.66L587.98 857.15L594.20 857.68L597.43 859.78L600.18 862.31L605.98 863.61L610.34 865.49L612.25 868.56L614.70 873.06L618.46 875.93L622.10 879.20L625.50 881.93L629.74 886.52L631.78 890.36L632.74 901.01L635.34 905.02L643.58 898.52L647.05 895.78L641.67 872.14L635.67 788.90L626.53 786.70L619.14 784.20L617.80 780.29L618.64 774.89L620.49 769.44L622.33 763.99L623.12 758.99L624.99 750.87L625.69 745.88L626.35 741.15L627.27 736.82L627.23 731.08L626.63 727.39L627.63 722.24L628.35 718.54L629.74 715.26L632.28 710.79L628.06 709.35L623.96 707.89L620.83 706.77L615.76 706.03L613.47 708.28L609.89 711.81L604.53 717.07L600.89 725.24L597.58 723.91L588.03 721.49L582.95 720.14L579.39 719.20L579.42 714.80L579.48 711.21L580.97 704.07L578.91 700.25L572.47 698.47L571.57 693.62L570.70 688.88L572.19 678.11L572.81 674.73Z" data-ward="9" /><path id="ward-22" class="ward" d="M240.38 332.74L235.74 323.45L235.34 315.15L234.73 311.46L236.43 306.92L235.61 303.36L237.77 296.52L238.29 291.65L239.24 282.98L236.72 279.59L235.82 272.63L234.56 262.82L232.70 255.27L231.17 249.07L228.15 241.51L226.70 234.12L226.51 224.87L225.07 218.04L224.28 214.28L218.90 211.77L215.96 209.81L211.22 206.65L208.64 200.65L204.18 195.26L198.91 199.59L195.32 202.55L191.05 203.07L185.57 203.75L179.28 205.67L177.80 212.40L173.10 216.33L170.73 221.04L166.70 229.03L164.42 233.56L158.97 246.94L155.74 251.50L150.41 258.84L144.34 266.61L133.19 280.54L125.41 297.19L124.35 298.49L120.11 299.88L114.79 306.03L110.47 311.01L106.79 319.46L105.28 322.92L103.54 332.77L109.97 353.11L110.97 359.50L119.54 371.83L124.68 379.23L121.61 400.15L114.74 429.33L108.36 450.49L105.34 457.21L100.89 467.14L99.55 476.10L97.70 480.44L95.23 486.25L91.30 495.47L87.11 505.29L85.43 509.24L91.20 509.06L120.65 514.72L148.51 519.71L182.29 525.77L209.66 530.68L231.13 534.53L255.44 538.90L274.96 542.40L297.46 549.72L319.72 556.96L337.78 562.84L342.67 557.80L356.30 543.75L372.53 527.02L379.60 519.74L394.99 516.09L404.49 512.04L403.98 501.16L403.54 491.73L402.87 477.69L396.95 470.32L390.02 461.67L384.50 457.23L374.99 446.98L371.58 443.31L367.99 436.55L364.63 435.35L361.53 434.25L357.74 432.90L360.00 427.49L360.72 422.03L358.70 416.14L356.54 409.83L355.73 401.98L355.27 397.48L354.86 393.51L354.34 388.44L353.91 384.17L353.57 380.79L352.84 377.33L352.12 373.90L352.76 370.35L353.91 363.93L350.47 364.11L346.65 363.78L343.02 363.47L338.92 363.13L335.20 362.81L331.77 362.52L328.36 366.79L325.95 369.81L324.42 372.83L323.89 379.55L323.31 383.84L321.12 387.91L318.29 389.69L315.51 391.44L307.27 387.82L305.65 384.40L299.40 380.05L299.04 375.37L296.34 372.85L292.80 369.55L288.04 368.85L284.14 368.53L275.86 366.38L269.77 363.54L266.39 366.82L263.14 367.69L258.09 366.33L254.66 365.41L252.27 362.33L253.93 358.24L255.31 354.84L256.86 349.63L255.79 341.74L252.93 337.33L251.16 333.02L244.92 333.63L240.38 332.74Z" data-ward="22" /><path id="ward-19" class="ward" d="M32.80 951.11L27.00 948.19L21.47 946.41L20.54 937.86L15.28 930.19L17.79 917.15L18.90 911.33L7.09 904.30L2.93 912.59L1.86 916.04L0.00 922.04L1.64 931.77L3.76 938.20L5.00 941.94L7.32 948.97L9.23 954.77L10.92 958.64L12.37 961.99L13.92 965.56L15.98 970.31L18.44 975.96L20.10 979.61L21.86 983.47L23.86 987.88L31.07 1003.73L33.06 1007.96L36.76 1013.61L38.97 1016.76L41.29 1019.74L43.74 1022.87L48.81 1028.79L52.24 1030.48L60.38 1034.50L68.12 1038.32L70.90 1042.31L74.94 1048.10L77.55 1052.83L79.70 1056.75L81.25 1061.23L82.75 1065.58L84.03 1069.31L85.08 1072.36L87.75 1080.12L89.12 1087.86L89.78 1091.60L89.69 1102.43L89.59 1115.46L86.57 1120.97L81.21 1130.75L79.23 1133.46L75.15 1139.01L73.16 1141.73L69.08 1147.29L68.74 1160.69L69.40 1164.47L70.32 1173.85L70.66 1177.23L71.49 1185.63L72.22 1193.02L70.46 1199.24L68.53 1205.99L67.01 1211.36L65.79 1215.64L83.69 1235.59L86.40 1228.58L89.10 1224.66L91.81 1220.75L93.91 1215.52L95.38 1211.92L100.40 1207.50L104.21 1204.15L107.44 1201.87L110.74 1199.55L115.97 1199.86L123.18 1200.29L127.00 1201.45L133.17 1203.33L140.18 1205.12L146.55 1205.25L150.14 1200.90L154.02 1196.21L158.79 1189.63L160.90 1186.97L165.27 1181.47L167.63 1177.61L170.95 1172.19L173.75 1160.93L175.86 1156.32L178.19 1151.24L179.93 1147.44L181.56 1143.52L183.26 1139.45L185.92 1133.07L188.63 1126.57L190.30 1122.57L194.15 1113.33L196.19 1108.46L198.69 1102.50L200.78 1097.52L203.99 1089.88L206.06 1084.45L208.63 1077.70L211.18 1071.02L214.23 1067.96L220.74 1070.91L226.33 1072.62L230.74 1073.97L234.40 1075.81L237.47 1077.40L242.20 1077.69L246.64 1079.89L250.68 1078.87L254.49 1079.34L260.51 1082.98L266.79 1087.05L271.12 1089.88L274.27 1091.14L279.39 1092.65L284.59 1093.61L297.61 1093.73L307.19 1093.81L318.73 1093.92L327.01 1093.99L333.36 1090.16L342.66 1083.67L341.12 1077.78L338.90 1069.30L338.87 1064.57L338.38 1059.58L338.59 1056.05L338.95 1050.11L340.70 1044.30L345.50 1040.19L353.40 1040.87L347.37 1031.84L344.74 1027.89L341.91 1022.70L340.74 1018.86L341.88 1015.74L342.37 1011.98L344.45 1007.68L346.30 1003.88L348.98 994.89L348.06 990.46L348.75 986.35L349.69 983.20L350.70 979.79L349.31 975.40L347.70 970.31L344.60 965.52L341.40 960.57L334.34 963.94L331.26 965.42L324.43 966.22L319.75 974.72L312.58 981.19L305.58 984.91L301.65 986.41L295.57 988.71L292.34 989.34L284.27 990.91L277.21 992.28L270.84 993.67L265.50 994.83L257.48 997.34L254.92 988.96L255.95 983.75L257.25 977.18L257.98 973.44L259.61 966.69L260.64 962.41L261.59 958.44L261.23 950.04L261.04 945.44L258.71 940.12L254.75 939.72L251.50 939.87L245.71 939.11L240.41 938.84L235.99 938.20L227.75 937.00L222.84 937.57L216.97 938.27L213.42 938.23L209.62 938.18L205.91 942.52L205.37 945.76L204.75 949.46L204.17 952.94L198.52 954.10L194.48 953.48L189.15 952.66L184.28 951.73L181.04 951.11L172.68 950.34L167.44 950.24L165.94 953.27L162.06 951.14L159.00 946.46L151.47 946.23L143.29 945.99L138.10 945.35L133.55 947.21L130.42 948.49L128.41 954.17L124.43 955.09L118.85 956.39L114.77 957.01L111.52 957.51L107.23 956.34L100.71 954.55L96.05 952.78L88.50 949.92L83.55 946.73L79.77 944.29L73.41 942.24L67.24 943.94L57.67 938.75L53.92 938.95L52.29 943.70L50.89 947.81L48.93 952.80L32.80 951.11Z" data-ward="19" /><path id="ward-8" class="ward" d="M599.52 618.55L595.69 617.65L590.34 615.94L585.19 618.73L579.18 618.83L575.71 622.45L572.34 621.78L572.36 658.46L572.63 666.06L572.81 674.73L572.19 678.11L570.70 688.88L571.57 693.62L572.47 698.47L578.91 700.25L580.97 704.07L579.48 711.21L579.42 714.80L579.39 719.20L582.95 720.14L588.03 721.49L597.58 723.91L600.89 725.24L604.53 717.07L609.89 711.81L613.47 708.28L615.76 706.03L620.83 706.77L623.96 707.89L628.06 709.35L632.28 710.79L629.74 715.26L628.35 718.54L627.63 722.24L626.63 727.39L627.23 731.08L627.27 736.82L626.35 741.15L625.69 745.88L624.99 750.87L623.12 758.99L622.33 763.99L620.49 769.44L618.64 774.89L617.80 780.29L619.14 784.20L626.53 786.70L635.67 788.90L639.79 790.58L672.52 809.83L720.11 836.92L724.58 842.58L798.20 841.50L858.72 832.48L852.88 827.84L843.83 820.66L835.76 815.28L828.33 810.33L825.64 804.60L821.62 796.03L818.07 788.47L813.03 779.37L808.52 771.23L808.23 766.62L807.38 752.87L806.39 743.70L806.41 736.33L806.51 725.52L807.13 718.39L809.14 707.61L794.63 669.25L793.19 665.45L785.40 669.24L779.96 671.89L776.15 671.81L768.69 671.67L764.82 671.86L760.03 672.00L756.05 673.28L752.65 674.29L747.50 675.23L741.49 673.39L738.67 668.15L736.04 665.92L735.97 661.62L730.94 660.67L727.04 658.96L722.69 657.04L720.09 653.39L718.02 650.50L710.18 645.13L706.54 642.64L701.62 632.43L695.03 628.97L690.78 626.74L685.12 617.65L677.81 619.60L674.03 623.16L669.75 625.76L662.38 622.86L656.56 620.61L650.73 619.59L646.29 619.71L640.62 618.83L635.22 618.02L634.04 623.29L629.82 623.95L626.91 622.03L622.43 621.26L616.33 620.95L613.25 620.01L607.92 620.06L604.45 620.50L599.52 618.55Z" data-ward="8" /><path id="ward-17" class="ward" d="M154.06 1300.31L148.20 1298.98L143.91 1298.09L136.47 1294.40L134.09 1291.52L130.92 1287.15L126.31 1285.06L122.89 1283.42L121.14 1280.14L119.64 1277.31L119.19 1273.64L118.78 1270.27L116.71 1263.65L115.23 1256.61L113.94 1247.60L118.41 1243.01L115.11 1241.54L111.15 1240.47L101.55 1238.76L95.12 1237.62L88.00 1236.36L83.69 1235.59L65.79 1215.64L61.43 1224.06L58.01 1230.66L57.63 1235.55L57.34 1239.17L57.06 1242.84L56.79 1246.22L56.52 1249.63L56.56 1253.13L56.66 1263.49L58.31 1266.68L57.02 1275.36L54.50 1277.34L50.89 1280.16L47.98 1282.43L43.73 1288.96L41.22 1292.81L37.80 1301.49L34.53 1309.80L33.30 1313.41L32.21 1316.58L29.64 1324.07L32.94 1339.13L44.12 1346.39L52.73 1350.02L56.54 1353.08L71.65 1358.24L86.10 1363.18L92.23 1365.34L102.31 1371.43L111.18 1376.85L116.28 1379.96L119.52 1387.06L122.02 1392.53L123.38 1396.76L124.65 1400.72L126.02 1407.15L127.20 1412.69L128.20 1417.37L129.38 1422.93L130.25 1426.12L131.27 1429.81L132.95 1435.97L134.11 1440.20L135.73 1446.10L137.90 1454.05L134.83 1459.42L132.68 1463.16L129.74 1468.30L127.79 1471.70L128.13 1478.79L131.70 1482.55L151.30 1478.50L150.98 1470.02L155.81 1468.08L161.92 1469.12L165.79 1469.78L171.22 1470.70L175.52 1483.32L177.72 1489.79L180.65 1498.37L182.65 1506.13L185.26 1513.22L189.33 1524.30L193.78 1536.39L195.43 1540.89L196.68 1544.28L199.73 1550.23L202.23 1555.09L203.98 1558.49L205.62 1561.68L209.58 1569.39L212.86 1575.79L244.74 1585.70L296.66 1600.02L304.37 1602.08L308.78 1603.26L322.76 1606.99L335.65 1610.44L334.84 1605.92L334.18 1602.28L331.61 1597.07L329.62 1593.05L328.51 1586.03L327.02 1582.51L323.08 1582.37L319.85 1582.25L316.95 1576.78L317.95 1572.01L319.98 1566.38L320.20 1560.20L322.28 1552.81L325.23 1550.26L329.89 1545.23L330.06 1537.57L330.20 1531.07L327.82 1525.33L327.68 1520.27L323.74 1510.85L323.34 1504.43L322.79 1495.52L324.94 1490.59L327.76 1486.75L331.61 1481.50L335.10 1476.75L341.53 1468.95L347.15 1461.27L353.67 1462.28L359.58 1462.69L363.55 1462.97L367.84 1462.57L371.17 1461.00L378.36 1460.39L391.45 1459.28L383.61 1436.70L377.46 1436.20L373.82 1437.18L371.40 1434.79L368.37 1432.35L363.81 1430.57L359.80 1426.93L355.92 1422.24L355.07 1415.40L352.04 1412.44L347.50 1411.33L344.35 1409.05L335.78 1405.19L330.99 1404.86L328.78 1400.88L328.50 1396.92L326.89 1393.53L323.31 1390.87L322.62 1387.19L321.65 1383.63L317.11 1380.44L312.54 1377.04L311.10 1373.84L308.91 1370.01L310.55 1365.54L308.57 1361.09L306.35 1358.09L309.17 1350.56L310.72 1345.44L311.53 1341.39L309.10 1336.93L308.69 1331.45L304.59 1328.34L296.90 1325.96L291.24 1325.47L286.04 1325.75L278.58 1325.38L275.25 1324.62L273.14 1319.30L269.36 1318.51L264.53 1315.95L259.24 1313.14L255.80 1311.32L250.73 1309.53L248.21 1307.48L246.45 1302.31L245.08 1298.29L243.97 1292.06L240.88 1287.90L237.52 1286.75L232.69 1285.29L228.26 1283.15L224.08 1283.21L220.03 1283.49L218.00 1288.19L218.55 1293.52L219.35 1301.16L218.22 1305.39L217.27 1308.95L213.85 1309.67L208.82 1310.12L203.18 1309.46L199.69 1310.00L195.97 1310.82L191.24 1309.89L187.07 1309.32L183.74 1307.92L179.21 1305.62L175.79 1305.00L172.55 1304.19L167.51 1302.93L163.67 1303.51L157.25 1304.48L154.06 1300.31Z" data-ward="17" /><path id="ward-21" class="ward" d="M427.25 427.45L427.66 421.43L422.97 417.80L418.40 417.41L413.81 417.02L406.94 417.19L400.67 417.35L393.87 417.53L388.61 417.58L383.09 417.65L382.14 421.41L380.69 427.49L375.87 428.68L371.90 429.22L367.89 429.77L360.00 427.49L357.74 432.90L361.53 434.25L364.63 435.35L367.99 436.55L371.58 443.31L374.99 446.98L384.50 457.23L390.02 461.67L396.95 470.32L402.87 477.69L403.54 491.73L403.98 501.16L404.49 512.04L394.99 516.09L379.60 519.74L372.53 527.02L356.30 543.75L342.67 557.80L337.78 562.84L319.72 556.96L297.46 549.72L274.96 542.40L255.44 538.90L231.13 534.53L209.66 530.68L182.29 525.77L148.51 519.71L120.65 514.72L91.20 509.06L85.43 509.24L82.99 515.84L79.85 524.72L77.89 532.50L76.94 536.84L75.68 542.56L74.95 545.87L71.84 549.83L66.55 556.54L69.02 562.51L70.27 565.56L73.61 573.64L79.65 581.61L85.08 585.50L88.75 588.08L102.62 597.24L107.08 600.18L112.80 604.57L119.99 610.09L127.31 615.71L136.68 625.25L140.92 629.58L142.66 632.95L144.35 636.24L146.71 642.60L146.53 647.53L145.30 658.77L143.52 664.24L141.75 669.65L139.47 672.67L170.90 683.39L187.06 688.90L194.51 691.44L201.74 693.91L206.71 699.09L245.59 771.81L253.63 793.20L260.76 803.46L264.22 802.31L267.69 801.15L274.69 804.14L278.57 806.03L281.49 807.46L287.36 809.80L291.95 811.33L295.27 809.39L298.79 807.34L301.14 803.10L304.76 796.57L320.42 798.32L326.30 798.66L338.04 800.77L346.38 802.32L355.71 804.07L362.66 805.03L367.09 805.64L369.10 802.27L370.97 799.15L374.39 793.45L376.15 790.50L376.72 785.16L378.85 776.23L380.11 772.52L383.85 765.21L383.73 761.63L385.70 755.38L386.92 751.54L386.17 745.12L385.69 740.92L384.96 737.38L387.40 734.89L390.89 735.82L394.85 729.88L396.70 727.11L398.94 723.74L400.05 719.81L401.48 714.72L403.79 709.52L406.20 704.10L410.11 696.85L413.35 690.82L414.95 685.30L416.16 681.11L419.75 680.12L424.05 678.95L427.15 674.69L433.16 675.23L442.48 672.80L446.83 671.77L452.03 667.28L463.96 656.98L466.01 653.68L468.86 649.09L468.37 645.38L467.64 639.92L467.40 636.66L466.98 631.22L464.66 628.24L460.80 627.27L460.09 622.61L456.44 621.16L451.24 619.11L448.00 618.65L444.73 618.18L441.52 615.92L438.25 613.62L437.86 609.78L435.09 607.48L434.78 604.23L436.73 599.33L435.27 595.85L430.55 594.71L426.51 594.26L422.98 592.46L423.71 585.83L424.64 582.75L425.14 578.58L426.08 575.14L428.57 569.37L427.70 563.97L427.27 560.47L428.88 557.05L431.34 548.57L432.52 545.38L438.26 544.87L442.46 545.16L446.59 545.38L454.17 547.02L462.83 550.02L494.31 582.37L495.32 578.00L495.89 569.66L496.60 564.83L496.40 559.59L495.06 555.06L493.42 549.05L492.57 544.73L493.84 536.32L494.99 531.88L496.15 526.58L497.81 522.09L499.63 515.91L500.71 512.52L500.18 508.90L501.65 505.41L504.92 502.59L507.76 501.00L509.37 497.97L511.00 494.63L513.03 490.95L515.11 487.95L517.18 485.34L518.72 480.32L518.53 477.09L511.59 470.96L508.29 469.74L499.02 466.32L495.71 464.93L492.42 463.54L488.11 461.73L477.28 456.09L473.18 453.96L467.57 451.13L463.60 449.13L459.99 447.30L446.16 438.66L445.20 442.59L446.10 446.07L445.90 450.52L445.64 456.11L445.81 459.48L446.01 463.50L441.18 465.23L436.95 464.91L432.34 464.55L429.82 460.45L428.81 453.84L427.60 445.97L427.34 440.96L427.13 436.86L426.90 432.43L427.25 427.45Z" data-ward="21" /><path id="ward-2" class="ward" d="M351.16 225.10L345.55 222.14L341.89 220.11L336.10 216.93L330.76 214.50L326.87 213.10L319.59 211.71L315.30 211.42L311.55 211.06L306.56 209.61L300.90 209.13L296.30 212.86L291.90 221.33L291.28 227.42L290.78 231.15L290.13 236.04L290.00 239.51L290.25 243.90L290.98 249.57L291.42 253.67L291.29 260.34L291.76 265.72L295.81 269.55L298.48 271.92L300.11 277.25L303.92 278.60L308.69 278.69L314.36 278.07L319.00 279.10L323.70 281.19L327.72 282.55L332.22 283.45L336.32 288.23L343.69 290.52L346.71 291.74L351.19 293.94L354.14 291.73L357.44 288.28L360.01 285.59L366.94 285.22L372.01 289.45L376.03 294.12L381.80 294.48L385.59 293.07L391.46 291.93L396.59 296.74L396.92 303.41L394.35 307.31L380.98 316.14L376.46 318.92L373.28 320.88L362.77 326.87L356.97 331.85L349.38 339.78L346.09 344.05L343.81 349.26L346.93 352.11L349.82 354.69L354.48 355.57L354.70 358.97L353.91 363.93L352.76 370.35L352.12 373.90L352.84 377.33L353.57 380.79L353.91 384.17L354.34 388.44L354.86 393.51L355.27 397.48L355.73 401.98L356.54 409.83L358.70 416.14L360.72 422.03L360.00 427.49L367.89 429.77L371.90 429.22L375.87 428.68L380.69 427.49L382.14 421.41L383.09 417.65L388.61 417.58L393.87 417.53L400.67 417.35L406.94 417.19L413.81 417.02L418.40 417.41L422.97 417.80L427.66 421.43L427.25 427.45L426.90 432.43L427.13 436.86L427.34 440.96L427.60 445.97L428.81 453.84L429.82 460.45L432.34 464.55L436.95 464.91L441.18 465.23L446.01 463.50L445.81 459.48L445.64 456.11L445.90 450.52L446.10 446.07L445.20 442.59L446.16 438.66L459.99 447.30L463.60 449.13L467.57 451.13L473.18 453.96L477.28 456.09L488.11 461.73L492.42 463.54L495.71 464.93L499.02 466.32L508.29 469.74L511.59 470.96L516.94 470.20L521.26 467.28L521.12 463.25L520.95 458.47L520.08 455.25L518.91 451.00L518.71 447.73L517.82 440.99L514.70 437.70L515.98 431.44L514.99 427.45L512.99 421.52L511.12 418.13L510.52 411.44L509.97 402.40L508.08 397.11L505.80 391.19L502.93 384.16L500.91 378.73L499.36 374.75L496.28 369.56L492.77 366.63L488.34 363.00L483.26 358.46L478.97 354.97L475.41 351.57L472.41 348.72L468.33 344.97L464.82 341.75L460.80 337.99L456.95 333.75L453.70 328.09L452.38 324.81L450.58 320.31L449.21 316.82L448.03 313.38L445.87 307.78L444.88 304.52L443.43 301.52L442.21 298.27L439.93 294.53L437.27 291.20L433.41 287.26L428.26 282.85L424.40 278.48L421.95 275.67L420.58 272.36L419.66 266.91L417.92 262.03L414.84 258.76L410.36 251.93L408.75 248.34L407.15 244.75L406.67 241.29L406.60 237.84L402.81 235.81L398.39 239.21L395.57 241.65L391.99 242.14L386.37 237.79L383.84 235.77L378.78 231.95L375.21 227.59L368.13 224.00L360.02 221.81L355.62 225.63L351.16 225.10Z" data-ward="2" /><path id="ward-11" class="ward" d="M714.70 1074.45L712.56 1066.97L708.93 1059.04L707.52 1055.99L703.76 1052.86L700.35 1050.03L696.15 1045.27L693.13 1039.55L700.55 1033.79L705.79 1030.18L708.03 1026.41L708.17 1021.16L715.10 1019.31L719.59 1018.11L718.72 1014.42L717.08 1009.48L715.43 1004.84L714.15 1001.26L713.05 994.47L712.99 990.17L709.82 989.62L706.23 989.50L699.92 988.27L694.69 987.91L691.19 987.21L687.78 984.84L685.40 981.66L684.80 975.92L681.93 971.02L675.43 969.18L671.13 968.15L666.38 967.01L661.02 964.64L656.03 963.42L653.05 962.15L648.74 959.55L644.03 957.59L638.57 953.29L635.59 947.52L632.44 957.53L628.98 968.52L628.50 973.93L628.42 977.43L628.24 985.59L628.23 989.32L627.59 993.74L623.65 1003.21L620.24 1007.26L616.99 1011.13L616.27 1015.20L615.55 1019.26L614.55 1024.90L620.52 1029.56L626.07 1032.20L628.59 1035.46L629.18 1039.17L628.44 1044.15L627.81 1048.41L626.46 1052.91L626.48 1056.79L628.54 1061.27L631.61 1067.98L634.40 1073.33L636.66 1076.24L642.05 1077.00L646.29 1077.60L652.43 1079.04L657.82 1078.63L665.16 1078.07L670.25 1076.68L675.87 1076.62L677.35 1082.38L679.56 1085.51L680.22 1090.18L680.73 1093.78L678.99 1098.47L675.21 1103.20L672.05 1105.54L670.44 1108.51L668.92 1112.41L666.57 1118.46L665.57 1122.96L663.61 1129.13L661.62 1135.56L657.09 1145.39L655.18 1150.11L656.65 1156.58L657.64 1160.90L659.61 1169.54L661.67 1175.77L662.24 1179.32L663.31 1182.46L662.33 1185.58L660.62 1191.01L659.16 1195.65L658.07 1201.10L659.35 1210.26L658.62 1219.67L658.30 1223.82L657.21 1231.21L656.17 1238.23L656.92 1245.13L657.38 1249.38L656.84 1254.31L656.36 1258.73L656.40 1262.12L652.96 1265.27L648.65 1269.23L645.75 1275.05L644.84 1282.78L641.03 1288.60L635.76 1291.63L631.28 1298.65L628.56 1301.89L624.92 1306.21L622.99 1310.09L620.05 1316.02L617.44 1326.09L617.41 1331.65L614.99 1339.90L613.93 1343.54L614.50 1349.42L616.83 1353.23L620.94 1353.70L630.37 1353.76L640.22 1357.64L649.98 1361.48L659.16 1364.52L664.50 1366.63L671.61 1369.76L679.80 1370.57L685.31 1371.11L685.86 1374.62L689.09 1378.83L694.27 1379.89L700.69 1381.22L701.05 1385.71L703.01 1391.18L708.12 1394.15L710.33 1397.10L713.23 1400.99L719.81 1408.15L727.00 1415.98L730.63 1420.09L734.96 1424.99L740.46 1431.22L745.75 1430.98L749.84 1429.77L754.54 1427.21L757.66 1426.40L761.40 1422.79L769.75 1416.29L777.77 1414.33L782.06 1416.12L785.89 1417.71L792.26 1423.36L797.45 1424.28L801.21 1424.93L807.90 1426.11L812.26 1426.87L823.37 1426.32L828.12 1424.16L832.35 1426.05L842.13 1430.40L849.21 1435.18L853.54 1438.11L860.47 1443.32L863.65 1448.71L865.44 1451.74L871.13 1455.26L879.29 1460.31L883.86 1451.66L884.35 1446.02L883.62 1441.58L884.16 1435.57L878.89 1433.18L871.59 1429.01L869.55 1425.41L869.86 1419.20L869.96 1410.17L869.52 1405.96L870.13 1402.48L870.38 1396.02L874.99 1388.08L878.83 1377.45L877.07 1366.62L875.44 1357.34L874.33 1347.64L873.90 1340.44L883.74 1333.82L884.33 1330.29L884.96 1326.57L883.99 1323.07L882.46 1317.56L886.09 1310.66L888.66 1303.97L892.12 1300.68L895.43 1300.34L898.22 1292.79L896.34 1290.11L889.34 1289.37L885.03 1288.92L879.15 1290.10L871.58 1290.79L864.30 1286.80L860.90 1284.94L856.51 1284.11L851.06 1283.09L846.82 1281.94L843.01 1280.91L839.19 1280.04L833.22 1278.68L828.04 1277.51L824.13 1279.58L820.62 1285.32L817.94 1289.72L815.26 1296.37L812.09 1299.48L808.19 1299.98L808.56 1296.48L808.29 1290.93L805.48 1288.25L802.89 1285.85L796.14 1284.52L788.91 1281.58L784.48 1282.53L779.85 1283.51L776.47 1284.67L770.01 1287.33L765.95 1289.34L765.23 1295.14L759.72 1298.20L753.84 1298.72L749.82 1300.66L749.11 1295.24L748.04 1290.99L748.27 1285.49L746.58 1282.27L745.76 1275.60L750.85 1271.10L761.62 1261.58L767.58 1258.15L774.64 1254.08L784.69 1253.93L795.95 1249.64L798.97 1248.50L806.88 1242.85L819.22 1231.85L824.19 1228.59L841.06 1224.15L860.65 1218.99L868.18 1217.01L872.26 1217.29L876.92 1220.11L880.98 1221.64L887.64 1220.47L894.32 1221.36L895.94 1218.13L897.45 1214.05L899.46 1208.57L899.02 1203.13L898.52 1197.38L898.18 1193.46L898.89 1188.36L899.53 1183.74L896.30 1180.72L893.28 1177.90L889.22 1174.48L885.80 1169.30L883.63 1166.02L880.11 1162.97L876.70 1160.02L873.67 1157.40L869.93 1154.16L867.85 1151.65L864.24 1152.02L857.30 1153.28L851.54 1151.95L846.59 1150.81L842.27 1150.26L838.75 1150.91L834.45 1152.62L830.62 1154.47L825.71 1157.03L822.64 1159.00L821.33 1164.85L817.36 1164.84L814.77 1162.47L812.09 1160.12L811.50 1154.68L810.52 1148.10L803.90 1142.21L800.34 1139.05L798.36 1130.73L796.64 1126.54L794.34 1120.96L791.70 1114.91L789.98 1110.96L789.29 1107.43L788.38 1102.75L787.35 1097.48L785.35 1092.16L783.87 1087.97L782.07 1082.92L777.10 1081.25L771.54 1081.50L767.80 1081.74L763.83 1081.37L759.63 1081.32L755.72 1081.16L751.35 1081.54L748.17 1081.98L742.39 1084.21L738.44 1087.13L735.22 1090.09L734.04 1093.67L734.05 1097.42L733.19 1101.29L729.57 1104.14L724.74 1104.56L720.45 1104.26L717.73 1098.23L715.40 1094.62L714.17 1088.45L714.56 1078.10L714.70 1074.45Z" data-ward="11" /><path id="ward-1" class="ward" d="M535.99 27.38L530.10 25.61L517.19 21.71L511.79 18.02L508.85 16.02L500.18 14.17L492.27 11.80L488.61 10.27L478.14 5.90L474.88 3.66L462.50 0.00L452.75 1.15L445.46 2.00L439.30 3.37L434.86 4.48L428.92 5.98L423.00 8.06L418.00 11.80L412.73 15.75L405.69 21.04L398.24 26.14L392.94 29.66L388.02 32.94L382.36 34.34L377.53 35.54L372.74 36.51L367.95 37.48L362.13 36.19L358.50 33.84L353.37 30.52L340.60 22.26L336.15 19.58L329.64 16.00L323.20 14.65L318.76 17.00L315.60 18.66L311.93 21.58L309.32 23.66L304.91 26.95L297.45 32.52L293.46 36.21L287.25 41.39L284.77 43.46L282.27 45.55L279.07 47.82L276.30 49.79L271.35 53.10L268.52 54.99L256.24 63.22L244.39 71.16L239.71 74.29L234.73 77.73L230.49 80.67L226.07 83.72L220.96 87.38L216.65 90.46L211.63 93.77L205.98 94.21L202.39 94.48L197.93 94.82L194.17 95.63L190.79 96.35L187.21 97.11L183.25 97.96L180.06 98.64L176.41 99.42L171.23 100.52L167.93 103.57L164.64 106.62L161.47 109.55L157.99 115.93L155.31 120.86L153.71 123.79L152.74 127.11L151.79 130.32L152.31 136.74L152.57 139.97L152.88 143.82L152.82 149.93L153.28 158.26L153.58 164.08L153.78 167.94L151.94 173.93L150.64 178.16L149.64 183.52L148.77 187.48L147.37 196.38L146.33 203.01L177.80 212.40L179.28 205.67L185.57 203.75L191.05 203.07L195.32 202.55L198.91 199.59L204.18 195.26L208.64 200.65L211.22 206.65L215.96 209.81L218.90 211.77L224.28 214.28L225.07 218.04L226.51 224.87L226.70 234.12L228.15 241.51L231.17 249.07L232.70 255.27L234.56 262.82L235.82 272.63L236.72 279.59L239.24 282.98L238.29 291.65L237.77 296.52L235.61 303.36L236.43 306.92L234.73 311.46L235.34 315.15L235.74 323.45L240.38 332.74L244.92 333.63L251.16 333.02L252.93 337.33L255.79 341.74L256.86 349.63L255.31 354.84L253.93 358.24L252.27 362.33L254.66 365.41L258.09 366.33L263.14 367.69L266.39 366.82L269.77 363.54L275.86 366.38L284.14 368.53L288.04 368.85L292.80 369.55L296.34 372.85L299.04 375.37L299.40 380.05L305.65 384.40L307.27 387.82L315.51 391.44L318.29 389.69L321.12 387.91L323.31 383.84L323.89 379.55L324.42 372.83L325.95 369.81L328.36 366.79L331.77 362.52L335.20 362.81L338.92 363.13L343.02 363.47L346.65 363.78L350.47 364.11L353.91 363.93L354.70 358.97L354.48 355.57L349.82 354.69L346.93 352.11L343.81 349.26L346.09 344.05L349.38 339.78L356.97 331.85L362.77 326.87L373.28 320.88L376.46 318.92L380.98 316.14L394.35 307.31L396.92 303.41L396.59 296.74L391.46 291.93L385.59 293.07L381.80 294.48L376.03 294.12L372.01 289.45L366.94 285.22L360.01 285.59L357.44 288.28L354.14 291.73L351.19 293.94L346.71 291.74L343.69 290.52L336.32 288.23L332.22 283.45L327.72 282.55L323.70 281.19L319.00 279.10L314.36 278.07L308.69 278.69L303.92 278.60L300.11 277.25L298.48 271.92L295.81 269.55L291.76 265.72L291.29 260.34L291.42 253.67L290.98 249.57L290.25 243.90L290.00 239.51L290.13 236.04L290.78 231.15L291.28 227.42L291.90 221.33L296.30 212.86L300.90 209.13L306.56 209.61L311.55 211.06L315.30 211.42L319.59 211.71L326.87 213.10L330.76 214.50L336.10 216.93L341.89 220.11L345.55 222.14L351.16 225.10L355.62 225.63L360.02 221.81L368.13 224.00L375.21 227.59L372.65 221.71L369.90 214.90L364.58 208.19L365.16 202.63L368.98 195.68L369.32 190.24L375.15 183.24L377.16 179.80L374.78 176.14L369.17 169.06L366.97 162.02L368.33 153.09L373.51 148.39L377.54 145.13L380.07 138.63L380.17 135.25L379.98 127.43L379.01 118.75L380.91 116.13L384.48 115.84L390.37 116.47L395.65 116.57L400.44 116.51L405.88 118.49L414.48 117.43L427.30 115.19L430.53 114.15L436.25 113.14L442.88 113.90L446.33 114.37L453.12 113.58L458.58 110.64L464.24 106.94L467.93 104.52L471.21 102.76L472.61 99.21L472.76 94.65L472.44 89.13L471.57 80.30L471.37 76.36L472.86 72.42L477.05 69.11L482.27 68.65L486.11 67.76L490.73 65.31L494.62 61.76L500.48 58.39L506.91 56.62L512.55 57.35L516.44 57.94L522.32 58.30L528.93 59.21L536.20 59.67L541.81 60.15L545.11 60.28L549.66 60.40L554.61 59.98L558.87 59.63L563.79 59.34L567.47 59.19L571.08 58.15L575.26 57.38L578.83 57.58L584.66 58.32L589.20 59.02L594.84 59.14L600.88 59.47L609.41 59.84L612.94 58.83L619.39 57.31L624.19 55.70L631.33 52.98L636.60 49.69L639.41 47.53L635.81 45.37L632.59 43.44L629.58 41.64L625.79 39.37L622.84 37.60L619.94 35.87L613.10 36.47L608.48 36.88L596.20 35.80L592.06 34.81L584.74 33.07L571.78 28.36L566.07 28.34L554.99 28.31L545.89 28.28L535.99 27.38Z" data-ward="1" /><path id="ward-18" class="ward" d="M242.20 1077.69L237.47 1077.40L234.40 1075.81L230.74 1073.97L226.33 1072.62L220.74 1070.91L214.23 1067.96L211.18 1071.02L208.63 1077.70L206.06 1084.45L203.99 1089.88L200.78 1097.52L198.69 1102.50L196.19 1108.46L194.15 1113.33L190.30 1122.57L188.63 1126.57L185.92 1133.07L183.26 1139.45L181.56 1143.52L179.93 1147.44L178.19 1151.24L175.86 1156.32L173.75 1160.93L170.95 1172.19L167.63 1177.61L165.27 1181.47L160.90 1186.97L158.79 1189.63L154.02 1196.21L150.14 1200.90L146.55 1205.25L140.18 1205.12L133.17 1203.33L127.00 1201.45L123.18 1200.29L115.97 1199.86L110.74 1199.55L107.44 1201.87L104.21 1204.15L100.40 1207.50L95.38 1211.92L93.91 1215.52L91.81 1220.75L89.10 1224.66L86.40 1228.58L83.69 1235.59L88.00 1236.36L95.12 1237.62L101.55 1238.76L111.15 1240.47L115.11 1241.54L118.41 1243.01L113.94 1247.60L115.23 1256.61L116.71 1263.65L118.78 1270.27L119.19 1273.64L119.64 1277.31L121.14 1280.14L122.89 1283.42L126.31 1285.06L130.92 1287.15L134.09 1291.52L136.47 1294.40L143.91 1298.09L148.20 1298.98L154.06 1300.31L157.25 1304.48L163.67 1303.51L167.51 1302.93L172.55 1304.19L175.79 1305.00L179.21 1305.62L183.74 1307.92L187.07 1309.32L191.24 1309.89L195.97 1310.82L199.69 1310.00L203.18 1309.46L208.82 1310.12L213.85 1309.67L217.27 1308.95L218.22 1305.39L219.35 1301.16L218.55 1293.52L218.00 1288.19L220.03 1283.49L224.08 1283.21L228.26 1283.15L232.69 1285.29L237.52 1286.75L240.88 1287.90L243.97 1292.06L245.08 1298.29L246.45 1302.31L248.21 1307.48L250.73 1309.53L255.80 1311.32L259.24 1313.14L264.53 1315.95L269.36 1318.51L273.14 1319.30L275.25 1324.62L278.58 1325.38L286.04 1325.75L291.24 1325.47L296.90 1325.96L304.59 1328.34L303.47 1321.21L298.94 1313.49L299.32 1305.28L297.01 1295.33L298.33 1288.63L300.26 1283.23L301.95 1278.51L303.71 1267.27L308.89 1264.05L306.69 1251.85L305.61 1248.03L303.90 1242.02L301.99 1233.19L301.16 1229.36L301.06 1222.96L301.57 1216.85L301.88 1213.17L303.02 1206.77L306.67 1196.26L307.62 1186.46L305.62 1179.17L308.43 1173.72L312.30 1167.77L312.61 1161.06L312.95 1153.43L312.00 1147.82L315.45 1139.83L318.36 1136.99L321.89 1133.54L323.27 1127.18L325.75 1115.80L323.82 1108.11L322.52 1102.90L327.01 1093.99L318.73 1093.92L307.19 1093.81L297.61 1093.73L284.59 1093.61L279.39 1092.65L274.27 1091.14L271.12 1089.88L266.79 1087.05L260.51 1082.98L254.49 1079.34L250.68 1078.87L246.64 1079.89L242.20 1077.69Z" data-ward="18" /></svg>