<svg viewBox="0 0 1000.00 1323.93" xmlns="http://www.w3.org/2000/svg"><style>.ward { fill: #e2e8f0; stroke: #fff; stroke-width: 0.5px; } .ward:hover { fill: #cbd5e1; }</style><path id="ward-16" class="ward" d="M127.10 971.70L126.69 969.34L124.37 967.02L122.14 965.64L120.26 965.29L117.44 967.37L114.26 969.00L110.51 971.25L108.05 972.81L105.78 973.47L103.70 973.56L104.11 971.88L101.47 971.29L99.04 970.83L97.41 970.65L94.66 970.98L94.30 972.84L93.95 974.84L93.63 976.50L95.80 976.64L97.86 976.97L99.51 977.18L101.02 978.50L100.38 980.64L98.53 983.01L98.23 984.91L97.95 987.73L97.10 990.01L96.30 991.69L95.50 993.58L94.08 995.58L92.27 997.32L92.04 999.12L91.83 1003.62L90.32 1004.85L88.20 1005.66L86.66 1006.85L84.53 1006.17L83.50 1004.82L81.71 1002.58L79.09 1002.95L79.24 1005.81L80.30 1008.40L81.01 1009.84L81.67 1011.44L83.56 1012.65L86.11 1013.56L88.47 1014.45L91.76 1016.00L90.07 1020.37L90.37 1022.51L92.57 1023.21L95.21 1023.84L97.90 1023.96L100.62 1023.96L102.97 1023.69L105.82 1023.74L107.31 1023.64L109.52 1023.75L111.00 1024.18L112.58 1025.46L113.74 1026.93L115.55 1026.25L117.32 1025.42L118.96 1024.57L120.69 1023.88L123.78 1022.84L126.66 1021.97L128.11 1021.61L129.41 1020.63L130.92 1019.92L133.89 1020.00L133.94 1022.21L133.93 1024.60L135.03 1027.16L135.86 1029.46L136.90 1032.63L136.75 1035.43L136.64 1036.98L136.52 1038.54L136.41 1040.13L136.22 1042.26L136.64 1043.94L138.51 1043.82L139.99 1043.87L142.55 1043.96L145.71 1045.52L144.43 1048.57L143.38 1050.98L142.50 1053.00L142.33 1055.75L143.85 1057.54L144.78 1059.00L145.72 1060.46L147.08 1062.16L151.52 1058.37L160.59 1049.38L167.75 1051.55L181.17 1062.77L187.78 1057.16L194.09 1053.21L196.23 1051.83L200.88 1048.56L207.42 1044.49L208.66 1045.79L211.51 1048.99L213.82 1051.74L215.12 1053.03L217.36 1053.90L218.75 1054.45L220.85 1055.33L223.98 1056.33L225.56 1053.61L225.83 1051.29L223.96 1049.79L222.47 1048.77L220.37 1047.18L218.90 1046.07L217.99 1044.67L219.60 1043.13L221.57 1043.27L223.89 1042.22L225.59 1042.50L226.91 1041.58L227.28 1037.98L231.15 1036.66L232.93 1036.77L235.14 1037.06L237.84 1037.71L238.96 1036.59L240.06 1034.56L242.19 1033.24L244.50 1031.05L245.03 1029.57L247.91 1029.52L249.81 1030.40L251.13 1029.29L251.19 1027.55L252.01 1025.47L256.64 1027.10L259.38 1027.80L259.73 1025.92L260.24 1023.84L260.62 1022.25L260.98 1019.24L261.19 1017.45L262.02 1011.96L257.68 1013.39L251.79 1015.19L249.36 1015.57L241.62 1016.77L238.17 1017.31L232.18 1016.73L226.70 1012.20L222.84 1009.01L218.33 1008.60L211.73 1008.01L204.26 1007.34L196.18 1006.66L194.51 1013.34L191.96 1017.50L188.21 1019.20L185.34 1018.18L181.31 1016.74L177.86 1014.54L174.91 1012.40L170.01 1011.64L165.11 1010.87L164.87 1007.62L164.78 1003.99L163.10 999.19L162.60 995.78L161.96 992.75L160.84 990.49L159.45 987.74L157.18 984.44L153.35 978.30L147.20 977.31L145.21 977.47L142.26 977.88L142.69 981.12L142.64 983.70L140.78 985.08L138.56 983.97L136.75 983.37L135.10 983.08L133.33 982.90L132.11 981.81L130.86 980.15L128.85 979.86L127.05 978.57L126.73 975.75L127.26 974.29L127.10 971.70Z" data-ward="16" /><path id="ward-2" class="ward" d="M902.38 542.23L899.11 541.81L895.26 540.94L891.89 540.37L887.14 539.23L882.54 538.73L878.27 538.34L873.93 537.61L871.46 537.11L868.60 536.72L865.67 535.92L863.41 535.22L861.78 535.02L860.25 534.69L857.82 534.00L855.41 533.27L853.14 532.75L851.48 532.22L849.76 531.48L847.62 531.32L844.38 530.30L842.95 529.85L840.77 529.31L839.07 528.85L836.91 528.43L835.26 528.25L831.32 527.27L818.42 522.53L818.89 525.16L816.97 528.46L814.37 530.85L810.23 532.90L800.79 536.36L792.05 539.68L783.54 540.27L775.31 541.71L766.57 544.74L755.69 543.55L748.50 543.12L745.37 543.09L737.29 544.45L727.55 546.50L718.07 551.73L710.93 556.29L705.98 558.90L704.69 561.91L701.49 564.07L697.60 565.38L693.13 568.39L682.17 563.83L666.99 565.01L657.56 569.76L651.36 575.52L645.48 583.79L637.72 594.28L628.88 598.01L622.29 600.91L614.94 603.61L608.73 605.93L605.88 608.03L604.89 609.86L600.12 612.38L593.94 614.80L585.97 615.65L581.68 616.46L579.74 618.35L578.32 619.43L576.61 620.24L575.06 620.88L568.25 622.95L561.54 623.58L551.85 628.06L538.57 634.56L526.87 642.16L517.12 647.07L504.56 652.71L494.09 660.31L487.64 667.16L477.10 675.79L471.81 681.85L469.20 689.24L470.21 700.10L474.26 711.56L475.43 714.42L475.30 719.19L474.76 721.28L477.00 722.08L479.43 723.95L483.31 725.65L485.23 726.92L490.17 727.81L495.76 725.22L498.93 723.82L502.47 722.63L506.69 723.08L510.18 722.48L513.72 722.01L517.17 722.15L521.05 722.14L523.22 722.82L524.85 721.90L526.49 719.50L528.23 717.63L529.71 713.66L534.64 713.76L541.49 715.38L548.93 711.70L552.54 708.29L556.99 706.61L562.44 705.42L564.82 705.29L565.55 708.81L566.22 712.93L567.07 715.95L570.29 725.97L574.54 732.86L571.05 744.58L571.60 749.30L579.73 760.24L586.31 770.51L605.13 781.42L614.85 787.80L620.13 794.65L623.74 798.34L626.64 796.77L635.19 796.96L638.50 797.03L643.52 795.61L648.61 794.16L657.37 788.25L664.27 786.00L666.17 785.65L674.04 785.30L676.43 785.20L678.44 785.34L683.17 785.25L687.56 785.17L689.17 785.15L697.56 785.83L703.53 786.01L714.61 786.34L727.39 786.72L740.02 787.09L754.25 787.52L762.25 787.75L764.37 789.25L769.67 789.20L778.26 789.11L787.24 789.83L793.93 790.03L796.80 790.48L805.61 790.81L809.76 791.09L815.21 791.46L823.19 790.45L827.99 789.84L832.73 789.58L842.62 788.49L848.20 788.01L852.79 787.92L859.14 787.98L868.33 789.57L870.45 790.61L877.55 794.11L880.43 795.53L884.79 797.84L886.55 798.45L892.20 800.40L896.97 798.94L899.09 799.47L909.17 788.73L914.94 788.64L920.84 788.53L926.24 788.55L928.61 788.91L932.08 789.47L941.19 790.94L946.93 792.34L949.98 793.09L951.27 793.80L952.52 792.55L952.98 786.51L953.43 780.65L953.82 779.10L954.36 777.07L956.59 777.42L960.45 777.43L968.11 776.95L976.55 776.35L983.13 773.90L989.00 771.71L997.08 768.80L1000.00 739.89L999.57 737.83L996.28 725.38L992.54 713.75L991.37 707.77L991.25 705.80L991.10 703.40L991.30 701.16L992.58 696.33L992.80 695.17L992.11 692.40L990.46 689.85L987.75 685.66L987.47 683.17L987.12 679.93L986.74 676.49L986.12 670.93L985.42 668.52L983.43 666.17L969.37 654.28L962.92 648.30L954.50 640.48L951.63 637.82L948.68 635.08L947.02 633.84L943.46 628.46L937.23 619.05L935.20 615.54L930.26 605.11L921.58 584.73L920.85 581.25L916.69 561.59L915.03 553.74L914.77 547.67L914.44 544.41L914.08 540.99L912.12 541.56L910.00 542.04L908.39 542.09L906.85 542.25L904.68 542.24L902.38 542.23Z" data-ward="2" /><path id="ward-21" class="ward" d="M147.54 787.76L146.55 783.59L145.55 778.95L144.68 774.94L143.98 771.74L143.72 769.76L143.85 763.40L143.88 761.77L143.57 758.46L143.08 754.74L141.72 751.89L139.90 748.48L137.70 746.33L135.16 744.02L131.97 741.11L129.58 738.93L127.78 737.15L122.21 731.74L120.07 729.81L118.13 727.98L116.98 725.90L116.02 723.22L116.47 721.70L116.92 720.18L117.53 717.98L118.24 715.40L118.38 713.02L118.38 709.51L116.92 705.59L115.35 703.60L113.82 703.00L112.35 702.23L109.69 700.59L108.32 700.00L106.61 699.48L104.73 699.27L103.24 699.44L100.25 700.11L98.11 700.54L95.79 700.90L92.70 701.83L91.08 703.35L90.15 706.07L89.48 708.23L89.14 710.08L88.45 711.99L87.92 713.56L87.64 715.05L86.97 717.70L85.28 720.11L83.50 722.31L81.76 723.63L79.89 724.60L78.10 725.64L76.04 726.29L73.34 727.25L70.78 728.07L69.12 728.79L67.61 729.47L66.20 730.32L64.41 731.55L62.32 733.25L60.59 734.99L59.29 736.60L58.58 737.96L57.87 739.42L57.06 741.30L56.07 743.26L54.78 744.75L53.20 746.63L51.66 747.94L50.46 749.43L49.55 751.08L48.29 752.11L46.91 753.10L45.38 754.06L43.65 755.19L42.32 756.19L40.98 757.50L36.91 762.96L34.10 767.67L33.06 772.04L32.79 778.07L32.20 780.81L31.86 784.20L32.13 786.11L32.40 788.11L33.00 790.84L39.34 790.06L42.32 790.01L45.19 789.98L47.21 789.96L49.86 789.80L51.42 789.76L51.78 791.78L51.84 794.22L51.61 796.69L51.43 798.61L51.19 800.91L51.00 802.71L50.93 804.75L50.85 806.95L51.09 809.82L51.52 811.79L51.96 813.82L53.22 818.34L53.55 819.84L54.26 822.25L55.12 825.20L57.13 825.26L59.70 825.60L61.53 826.01L65.01 826.37L67.27 826.29L69.50 826.15L72.08 825.99L73.76 827.35L74.02 830.10L74.63 836.44L75.83 839.22L77.11 842.20L78.16 843.54L79.21 844.87L83.54 850.40L85.03 852.31L85.66 853.93L86.42 855.86L87.18 857.72L87.94 859.58L88.97 861.60L90.40 864.41L91.76 867.08L92.66 868.84L93.75 870.77L95.31 873.55L96.88 876.32L97.92 878.17L101.25 883.01L104.37 885.97L110.45 884.24L112.25 882.69L117.69 878.04L123.31 873.02L129.40 869.36L130.74 868.57L135.33 868.63L137.44 866.86L138.57 865.24L140.70 857.68L142.56 852.55L142.63 850.06L142.08 847.41L141.38 845.23L140.85 843.36L140.69 841.75L140.76 839.98L142.35 838.79L144.39 838.42L145.06 836.66L145.98 835.45L146.86 833.65L148.53 831.26L148.93 827.76L148.82 824.75L149.07 821.62L149.41 817.30L149.48 815.39L149.55 813.48L149.49 809.87L149.07 808.23L148.36 805.44L148.99 801.82L149.97 800.39L150.18 798.62L149.39 795.40L148.69 792.53L147.54 787.76Z" data-ward="21" /><path id="ward-18" class="ward" d="M47.67 937.37L46.42 936.32L47.60 933.74L48.83 931.20L50.03 928.78L45.90 928.37L40.14 927.92L38.21 929.91L36.18 932.86L34.61 934.95L33.11 936.95L31.09 939.86L29.56 941.34L28.00 942.59L26.33 943.80L24.56 943.88L23.06 943.95L20.30 943.96L18.66 944.02L16.92 944.07L12.90 944.71L13.49 948.28L13.89 950.09L14.51 953.52L14.64 956.31L14.48 958.08L13.46 961.53L13.26 963.32L13.74 965.43L14.77 967.92L16.30 970.53L17.28 971.76L18.53 973.67L18.65 975.45L17.54 977.91L15.89 979.73L14.10 981.49L11.87 984.25L9.85 986.47L8.81 987.73L8.20 989.41L8.60 992.05L10.30 995.19L11.48 997.03L12.78 999.20L14.33 1001.85L15.98 1004.64L16.98 1006.09L18.79 1009.09L20.13 1010.81L21.22 1012.21L22.88 1014.24L23.82 1015.64L24.75 1017.01L26.34 1018.55L28.00 1020.18L29.85 1022.77L31.34 1024.71L32.59 1027.59L34.04 1025.83L35.72 1024.40L38.54 1022.16L40.42 1020.99L42.41 1020.12L45.14 1019.30L47.50 1018.87L49.69 1018.48L51.33 1017.44L52.85 1016.58L54.55 1016.54L57.96 1016.92L62.57 1015.38L64.42 1014.69L66.05 1014.32L68.14 1014.91L69.66 1015.14L71.45 1014.46L73.59 1014.63L75.14 1015.65L76.47 1016.57L77.59 1017.74L78.62 1019.14L80.66 1019.63L82.40 1020.50L86.33 1021.33L88.30 1021.93L90.37 1022.51L90.07 1020.37L91.76 1016.00L88.47 1014.45L86.11 1013.56L83.56 1012.65L81.67 1011.44L81.01 1009.84L80.30 1008.40L79.24 1005.81L79.09 1002.95L81.71 1002.58L83.50 1004.82L84.53 1006.17L86.66 1006.85L88.20 1005.66L90.32 1004.85L91.83 1003.62L92.04 999.12L92.27 997.32L94.08 995.58L95.50 993.58L96.30 991.69L97.10 990.01L97.95 987.73L98.23 984.91L98.53 983.01L100.38 980.64L101.02 978.50L99.51 977.18L97.86 976.97L95.80 976.64L93.63 976.50L93.95 974.84L94.30 972.84L94.66 970.98L97.41 970.65L99.04 970.83L101.47 971.29L104.11 971.88L104.77 969.25L105.17 967.26L105.50 964.71L105.69 962.88L105.38 960.90L104.18 958.72L103.04 957.57L101.08 956.21L99.41 954.69L95.44 953.86L94.10 955.07L90.41 958.02L78.06 964.97L73.68 964.51L71.47 964.28L68.17 963.94L65.87 963.11L63.59 962.03L61.16 960.88L58.11 960.02L56.52 959.37L54.35 957.89L53.37 956.64L52.57 954.96L52.95 953.51L53.82 951.63L54.84 949.53L55.69 947.99L54.64 946.01L53.34 943.54L52.66 942.05L52.27 940.27L52.42 937.36L49.18 937.71L47.67 937.37Z" data-ward="18" /><path id="ward-12" class="ward" d="M228.72 1057.86L226.71 1057.21L223.98 1056.33L220.85 1055.33L218.75 1054.45L217.36 1053.90L215.12 1053.03L213.82 1051.74L211.51 1048.99L208.66 1045.79L206.49 1048.58L205.05 1052.23L204.32 1054.45L204.06 1056.35L204.14 1058.68L203.02 1059.68L201.64 1061.40L200.84 1063.11L199.92 1065.08L198.28 1066.58L195.71 1067.10L193.03 1067.89L190.93 1069.53L189.77 1070.88L188.67 1073.01L188.66 1076.17L189.47 1078.07L190.46 1080.37L190.08 1082.07L188.69 1083.63L188.20 1085.12L187.84 1087.58L187.09 1090.71L186.06 1094.38L184.64 1097.93L183.65 1100.22L181.47 1102.60L180.41 1103.82L179.34 1105.05L177.98 1106.53L177.70 1108.49L178.32 1110.35L179.02 1112.46L179.44 1114.97L179.54 1117.38L179.50 1119.14L178.88 1121.78L176.77 1124.45L175.71 1125.63L174.95 1126.90L176.83 1130.18L177.46 1132.61L177.26 1134.29L177.06 1136.92L177.01 1138.59L177.48 1141.16L178.42 1144.12L178.32 1146.88L178.68 1148.50L179.10 1151.91L179.16 1153.65L180.68 1153.80L182.65 1154.21L184.74 1154.86L186.45 1155.04L189.46 1153.12L191.34 1152.85L193.12 1153.60L194.89 1154.37L196.81 1154.69L198.62 1154.55L200.89 1154.05L202.26 1153.39L203.81 1152.67L205.32 1152.26L206.82 1151.50L207.70 1148.96L208.08 1147.18L208.46 1145.53L210.63 1146.90L212.34 1148.41L213.10 1150.37L214.37 1153.95L215.36 1155.44L216.35 1156.93L219.29 1159.34L220.93 1161.68L222.33 1164.56L222.68 1166.89L222.46 1168.52L222.13 1171.14L221.55 1173.44L220.01 1175.79L218.93 1177.03L217.85 1178.27L221.40 1180.27L223.50 1182.63L223.62 1187.39L223.56 1192.47L221.87 1193.30L219.89 1194.12L217.39 1194.89L215.85 1195.93L216.57 1197.38L218.04 1200.30L219.40 1202.34L219.65 1203.81L220.96 1205.57L221.50 1207.01L221.28 1209.93L220.37 1211.34L218.95 1213.51L217.82 1216.43L216.76 1218.30L216.41 1220.48L214.99 1222.52L213.98 1224.40L212.97 1226.28L212.49 1229.25L212.50 1230.85L212.42 1233.38L212.41 1234.94L212.39 1236.49L212.64 1240.48L212.57 1242.13L212.45 1243.87L212.51 1246.26L218.56 1245.85L223.20 1245.56L230.33 1245.11L236.23 1244.73L248.25 1244.35L251.42 1244.43L264.88 1244.76L273.47 1244.98L278.01 1245.09L277.21 1239.79L276.57 1235.79L275.54 1230.47L274.06 1227.24L271.49 1221.36L270.87 1215.50L270.33 1210.29L269.63 1203.69L269.35 1201.01L268.73 1196.55L267.29 1190.11L267.68 1187.80L268.13 1186.16L269.60 1185.77L269.51 1183.39L267.14 1182.63L265.14 1181.10L265.44 1179.02L266.91 1176.44L271.72 1170.06L274.95 1168.19L278.62 1167.04L281.18 1165.08L281.80 1163.67L283.46 1162.00L285.12 1160.33L286.85 1158.50L288.96 1154.55L289.16 1152.67L289.60 1150.68L290.24 1148.34L290.45 1146.85L290.76 1144.71L291.60 1140.73L291.50 1137.52L293.82 1133.41L290.70 1130.37L287.13 1129.32L285.69 1129.76L283.12 1130.84L281.10 1130.11L278.43 1128.57L276.28 1127.23L273.96 1124.86L270.91 1123.16L267.85 1122.00L264.82 1121.12L262.44 1116.67L260.74 1111.04L258.02 1105.27L247.65 1098.57L245.91 1096.01L243.57 1093.17L243.25 1090.61L242.92 1087.96L243.63 1086.38L246.10 1085.81L246.83 1083.71L247.06 1079.98L246.83 1076.40L247.17 1074.82L245.41 1073.64L243.86 1071.78L241.67 1071.25L239.86 1071.47L236.78 1070.90L236.39 1069.14L236.04 1067.54L235.97 1065.79L235.85 1063.51L235.24 1059.39L234.40 1057.99L232.85 1058.12L230.40 1058.19L228.72 1057.86Z" data-ward="12" /><path id="ward-24" class="ward" d="M476.99 522.71L473.89 521.60L470.96 520.54L467.01 519.11L464.00 518.02L461.47 517.11L457.54 515.68L455.32 513.61L453.20 511.23L451.20 508.99L448.39 505.82L445.79 502.90L443.38 500.19L441.43 498.12L438.02 497.24L434.24 496.42L428.04 495.07L420.58 493.45L413.56 491.86L407.80 490.30L398.98 487.91L394.32 486.64L387.49 484.79L384.71 483.74L381.79 482.68L378.87 481.61L374.67 480.22L372.66 479.72L370.66 479.22L368.89 480.20L368.57 482.60L367.20 484.81L365.41 485.77L362.97 487.07L359.90 488.76L358.24 489.38L356.60 489.86L355.30 492.42L355.14 494.40L355.41 496.23L355.62 499.62L355.25 501.89L354.58 503.96L353.50 505.88L352.13 507.91L351.03 509.57L349.65 510.54L348.07 511.65L346.06 513.19L344.68 515.09L343.90 518.10L343.14 520.54L341.79 522.23L340.76 523.40L338.48 525.52L336.80 525.90L334.38 526.23L332.35 525.79L329.10 525.08L326.57 524.79L324.49 524.73L321.28 525.64L318.21 526.67L316.44 527.50L316.46 530.18L316.43 531.94L316.00 534.31L315.03 536.97L314.00 539.35L312.78 541.33L311.38 543.22L310.26 544.58L308.50 545.12L306.64 544.56L304.79 543.42L302.46 541.17L300.73 539.48L299.28 538.05L297.46 536.24L296.10 534.82L294.45 533.11L293.34 532.07L290.80 530.74L288.16 529.48L285.66 528.88L284.18 528.53L282.46 528.28L279.42 529.48L276.88 530.18L275.26 530.54L272.83 530.86L270.40 530.38L268.37 529.92L266.77 529.14L265.08 528.32L263.21 527.48L261.58 526.80L259.79 526.16L256.51 525.81L254.94 526.59L252.60 528.41L250.98 528.64L248.75 528.05L246.70 527.36L245.12 526.77L243.64 526.19L241.71 525.73L241.06 528.22L240.29 529.81L239.78 531.73L239.62 533.27L240.17 534.67L241.55 535.41L243.07 535.72L245.31 536.01L247.67 536.34L249.88 537.26L251.88 538.90L251.92 540.63L251.81 542.83L252.36 545.02L253.06 546.75L254.04 548.38L255.33 549.80L256.81 551.54L258.39 553.35L260.01 555.32L261.42 556.89L261.95 558.76L262.52 561.06L262.94 562.85L263.79 565.26L264.95 568.10L265.86 571.04L266.80 573.99L267.03 576.56L265.92 577.79L264.44 577.69L262.45 576.99L260.90 577.02L259.09 577.19L257.42 577.08L255.62 576.64L253.70 576.34L252.02 576.48L248.88 576.98L246.55 577.48L245.41 579.14L245.28 581.33L244.31 583.26L242.99 584.82L241.41 585.68L239.96 586.31L238.27 587.05L236.75 587.78L235.38 588.72L233.52 590.33L232.58 592.31L232.05 593.92L230.70 595.63L229.30 596.35L227.79 596.09L226.31 594.38L225.19 592.58L224.58 590.86L222.91 590.08L220.96 590.16L219.59 591.20L219.57 593.35L219.62 596.05L219.27 598.51L218.62 600.48L217.98 602.04L216.97 603.54L216.19 604.86L215.35 606.47L213.91 608.88L212.04 610.17L210.56 609.71L210.41 607.03L210.76 605.30L211.15 602.88L210.94 601.28L210.65 599.62L209.89 596.60L207.98 595.66L206.23 595.68L203.98 595.95L201.09 596.07L198.73 596.24L196.52 596.72L194.06 597.18L191.58 597.61L189.75 598.35L187.79 599.47L185.72 602.30L185.34 604.52L185.27 607.00L184.91 610.97L183.70 612.42L182.13 615.24L180.82 616.05L179.18 615.89L177.54 615.90L174.49 617.09L172.72 618.11L171.16 619.09L169.79 619.73L167.44 620.45L165.43 620.84L162.86 622.11L159.07 622.94L157.27 622.80L154.25 623.28L152.20 623.96L150.30 624.78L147.93 625.42L146.35 625.94L145.02 627.17L143.68 629.41L142.89 630.92L142.14 632.89L141.38 634.89L140.86 637.02L140.38 639.33L140.05 641.01L139.75 643.62L139.77 646.54L139.27 650.73L139.44 654.51L139.43 656.70L138.74 658.03L135.83 659.36L134.64 660.99L133.88 662.78L133.30 664.48L132.36 665.88L129.97 668.12L128.27 669.65L124.94 672.07L123.46 673.57L121.35 675.46L120.40 676.91L119.70 678.64L119.17 680.07L119.22 683.02L119.93 684.71L120.32 686.63L120.89 688.93L121.63 692.37L121.81 694.52L121.22 697.03L120.52 699.64L118.69 702.26L115.35 703.60L116.92 705.59L118.38 709.51L123.05 709.19L124.62 708.72L126.20 708.25L130.18 707.42L134.21 707.46L136.94 708.13L138.89 709.30L141.22 710.70L142.70 711.57L145.22 714.66L146.42 716.05L147.61 717.41L149.29 719.40L150.72 721.14L151.43 722.50L152.22 724.00L153.56 724.77L155.74 725.45L157.99 725.65L160.35 726.25L163.14 727.51L164.48 728.50L166.14 732.24L167.44 733.84L168.61 735.29L170.41 736.37L174.42 737.66L176.43 739.98L178.24 742.06L179.27 743.25L180.98 743.69L183.92 744.45L186.26 744.34L188.49 744.24L190.64 744.22L192.71 744.31L196.16 744.46L198.30 744.55L200.79 739.09L203.55 731.82L205.48 727.25L211.20 723.76L213.03 722.17L214.21 721.07L216.09 719.55L217.58 720.54L219.91 720.94L222.87 721.15L224.41 721.17L227.20 721.15L229.06 721.15L232.00 721.29L234.53 721.06L237.24 720.83L241.72 721.21L241.96 719.52L242.35 717.71L242.66 715.67L242.99 713.64L243.41 710.98L243.82 708.71L244.46 706.69L245.16 703.26L244.93 701.09L244.55 698.11L244.00 695.62L243.38 694.01L242.69 691.01L242.54 689.33L242.71 686.72L242.44 685.03L242.58 682.79L243.82 680.87L244.71 678.73L245.77 676.48L247.55 673.59L249.26 671.68L250.87 670.38L251.87 668.92L252.32 667.05L252.10 664.63L251.58 662.13L253.58 655.69L256.61 650.96L261.58 646.64L265.45 643.95L271.41 642.42L273.01 641.67L274.63 640.77L276.05 639.69L277.32 638.45L278.22 637.07L279.09 635.46L280.38 633.42L282.61 632.44L284.22 631.81L285.25 633.27L286.32 634.36L288.10 635.06L290.03 635.14L292.30 634.57L294.56 633.56L297.05 632.16L298.67 631.21L300.97 629.74L302.60 628.77L305.18 627.42L306.73 626.29L308.87 624.99L310.47 624.49L312.03 624.07L313.71 623.68L315.90 623.50L318.41 623.00L320.59 622.66L322.44 622.03L325.29 621.36L327.47 620.83L329.22 620.47L331.34 620.45L334.06 620.49L335.95 621.28L338.23 622.30L340.28 624.25L342.14 625.56L348.94 624.80L356.38 622.98L354.33 619.57L352.09 615.41L351.46 609.75L354.25 605.71L358.14 603.35L358.15 599.05L365.90 593.28L368.83 591.74L376.74 584.50L380.03 578.25L384.67 572.53L388.29 569.01L393.90 564.50L399.41 562.24L403.54 560.10L406.77 559.00L414.99 559.15L421.72 560.96L426.88 562.60L431.13 564.57L436.63 566.96L442.11 568.74L445.02 568.76L448.86 568.69L452.32 568.32L455.55 567.97L457.59 567.54L460.28 566.52L463.11 565.17L466.19 563.44L468.57 561.92L470.91 560.13L472.70 558.81L474.62 557.23L477.62 555.15L479.67 553.07L480.43 551.76L481.91 548.96L483.14 546.16L483.80 544.69L485.53 542.47L487.69 539.91L493.55 531.59L496.68 527.10L498.43 524.85L500.05 523.06L494.35 523.08L489.28 523.19L485.51 523.27L481.74 523.35L478.85 523.39L476.99 522.71Z" data-ward="24" /><path id="ward-19" class="ward" d="M142.75 868.47L139.07 867.64L137.44 866.86L135.33 868.63L130.74 868.57L129.40 869.36L123.31 873.02L117.69 878.04L112.25 882.69L110.45 884.24L104.37 885.97L101.25 883.01L97.92 878.17L94.74 879.17L93.05 880.04L90.88 881.86L88.62 883.25L86.57 884.22L83.46 885.77L82.42 887.06L80.99 888.82L79.15 891.72L77.14 894.63L76.37 895.90L75.24 898.05L74.63 899.68L74.40 903.22L73.81 905.79L72.99 907.85L72.05 909.76L69.90 914.30L68.52 917.61L67.46 919.38L65.03 922.32L62.93 924.78L61.55 924.01L60.06 923.19L58.20 922.15L54.46 920.44L51.72 919.05L47.47 918.24L44.36 918.11L40.69 918.35L37.98 918.98L35.78 919.50L32.01 920.61L29.61 921.50L26.02 922.81L22.73 923.82L20.14 923.89L18.34 923.47L14.96 922.53L13.11 922.51L10.55 922.67L7.09 923.31L4.29 924.21L5.70 926.63L6.59 928.46L7.58 930.46L8.39 932.11L9.39 934.42L10.38 937.02L10.93 938.44L11.49 939.92L12.07 941.41L12.90 944.71L16.92 944.07L18.66 944.02L20.30 943.96L23.06 943.95L24.56 943.88L26.33 943.80L28.00 942.59L29.56 941.34L31.09 939.86L33.11 936.95L34.61 934.95L36.18 932.86L38.21 929.91L40.14 927.92L45.90 928.37L50.03 928.78L48.83 931.20L47.60 933.74L46.42 936.32L47.67 937.37L49.18 937.71L52.42 937.36L52.27 940.27L52.66 942.05L53.34 943.54L54.64 946.01L55.69 947.99L54.84 949.53L53.82 951.63L52.95 953.51L52.57 954.96L53.37 956.64L54.35 957.89L56.52 959.37L58.11 960.02L61.16 960.88L63.59 962.03L65.87 963.11L68.17 963.94L71.47 964.28L73.68 964.51L78.06 964.97L90.41 958.02L94.10 955.07L95.44 953.86L99.41 954.69L101.08 956.21L103.04 957.57L104.18 958.72L105.38 960.90L105.69 962.88L105.50 964.71L105.17 967.26L104.77 969.25L104.11 971.88L103.70 973.56L105.78 973.47L108.05 972.81L110.51 971.25L114.26 969.00L117.44 967.37L120.26 965.29L122.14 965.64L123.51 963.57L124.81 962.66L126.91 961.90L127.82 960.69L128.74 957.96L129.40 956.36L130.39 954.36L131.75 952.17L132.94 951.09L131.89 949.93L130.88 948.85L129.65 947.68L127.81 946.18L125.97 944.50L127.05 942.50L128.32 940.28L129.72 938.01L130.88 936.14L132.16 934.01L134.77 931.55L138.51 928.03L137.66 923.15L137.06 920.19L137.59 916.89L139.08 913.75L140.51 910.12L141.29 908.15L144.76 907.22L147.51 906.49L152.90 909.02L155.25 910.92L157.16 912.46L158.86 913.83L161.27 915.79L163.66 917.49L163.83 915.63L164.08 912.83L164.33 909.71L164.57 906.91L162.83 891.86L162.31 887.28L161.78 882.69L160.36 878.33L157.64 876.52L152.72 873.46L151.04 872.23L148.01 870.26L145.23 868.88L142.75 868.47Z" data-ward="19" /><path id="ward-6" class="ward" d="M440.26 1054.49L440.32 1051.85L440.30 1050.35L440.08 1048.29L439.82 1045.85L439.58 1043.29L439.36 1040.67L439.12 1037.83L438.97 1036.02L437.87 1028.37L437.76 1026.66L437.62 1024.39L436.28 1022.85L434.99 1021.14L435.20 1019.59L435.54 1017.00L435.94 1014.00L437.03 1011.37L438.31 1008.28L439.59 1005.19L441.16 1000.27L441.79 996.97L442.41 993.70L432.53 985.24L413.76 983.87L411.80 993.00L410.61 997.52L409.42 1002.07L408.37 1005.87L405.91 1011.14L402.92 1017.57L402.07 1019.39L401.51 1020.95L400.97 1022.54L400.44 1024.09L399.74 1026.13L399.08 1028.05L398.46 1029.87L397.86 1031.62L397.29 1033.29L396.54 1035.48L391.07 1037.76L385.67 1040.01L380.94 1041.99L377.56 1043.40L375.22 1044.37L373.77 1047.32L371.94 1050.73L368.81 1052.61L366.16 1054.21L363.40 1054.61L361.77 1054.85L359.73 1054.87L356.66 1054.66L357.33 1057.79L358.02 1061.70L358.81 1064.29L359.93 1067.51L360.28 1071.29L357.89 1069.77L355.56 1068.06L354.11 1066.94L352.78 1065.89L351.31 1064.62L348.94 1062.37L346.92 1060.61L344.66 1059.78L343.11 1059.65L340.80 1060.40L337.32 1060.98L334.46 1060.34L333.03 1059.93L330.45 1059.22L325.61 1058.10L323.49 1059.41L322.41 1060.82L320.20 1062.89L318.79 1063.99L317.56 1066.37L316.05 1070.36L315.14 1072.41L313.79 1075.34L312.98 1076.67L311.86 1078.42L310.83 1079.97L308.27 1083.61L307.53 1088.90L307.27 1091.24L307.00 1093.58L306.61 1097.71L306.32 1100.26L305.45 1104.01L304.14 1109.68L303.24 1113.56L301.79 1117.13L300.01 1121.54L298.55 1125.09L295.65 1130.14L293.82 1133.41L296.56 1132.17L300.41 1130.12L303.87 1127.82L308.57 1125.41L312.62 1125.83L315.87 1124.44L318.56 1123.27L322.51 1119.47L325.20 1119.14L327.71 1118.84L330.16 1119.45L332.93 1120.58L335.72 1120.84L337.71 1120.21L340.62 1119.55L342.66 1119.05L343.94 1117.76L344.29 1114.75L346.50 1115.75L348.56 1116.35L350.55 1116.66L352.25 1117.08L354.37 1118.33L357.83 1120.15L375.84 1130.15L378.23 1131.97L380.45 1132.49L382.22 1132.82L383.89 1133.28L388.03 1133.95L390.15 1136.86L391.67 1141.88L397.65 1153.50L398.85 1156.47L402.36 1153.78L405.18 1148.80L405.03 1146.35L404.93 1144.84L404.80 1142.76L404.73 1137.36L406.59 1133.68L408.79 1131.58L410.54 1129.92L414.67 1123.79L416.31 1120.93L418.35 1120.96L424.32 1118.69L427.05 1116.94L430.83 1115.96L430.20 1112.84L429.72 1110.12L432.87 1106.64L438.02 1105.66L441.24 1104.63L443.48 1102.53L444.91 1099.13L445.40 1097.28L445.71 1095.80L445.63 1093.13L445.17 1089.98L445.07 1087.64L447.54 1086.15L449.81 1084.74L451.36 1081.07L452.76 1077.75L453.88 1075.15L455.60 1072.60L457.34 1070.02L457.56 1066.30L455.71 1066.70L451.41 1066.98L449.03 1067.33L447.28 1067.51L445.75 1067.59L442.27 1060.08L441.77 1058.45L440.86 1056.82L440.26 1054.49Z" data-ward="6" /><path id="ward-23" class="ward" d="M775.31 541.71L783.54 540.27L792.05 539.68L800.79 536.36L810.23 532.90L814.37 530.85L816.97 528.46L818.89 525.16L818.42 522.53L816.96 522.07L815.68 521.07L813.02 519.56L810.91 518.28L808.77 516.71L806.48 515.15L804.30 513.52L802.33 511.93L800.49 510.41L798.47 508.51L796.57 506.65L794.69 504.92L792.86 503.35L791.56 502.15L790.47 500.82L789.13 499.20L788.25 497.71L787.51 496.33L786.81 494.86L786.12 492.99L785.32 490.90L784.57 489.49L783.30 487.49L782.06 485.71L780.86 484.54L779.40 483.27L777.65 481.91L776.30 480.64L775.04 479.48L773.71 478.21L772.02 476.55L770.85 475.38L769.66 474.09L768.36 472.70L767.36 470.79L766.52 468.64L766.00 467.03L765.26 464.56L764.50 462.27L764.05 460.84L763.33 458.49L762.62 456.04L761.99 453.92L761.48 451.82L761.03 450.02L760.50 448.01L759.93 446.07L759.05 444.47L758.11 443.29L756.60 441.98L754.99 441.10L753.58 440.28L751.58 439.12L750.23 438.29L748.38 437.20L746.81 436.34L745.23 435.63L743.48 434.81L741.60 433.96L739.57 433.03L737.57 432.05L735.32 430.98L733.61 430.16L731.75 429.22L730.01 428.44L728.59 427.86L726.89 427.06L725.34 426.36L723.87 425.74L722.30 425.14L720.56 424.47L718.62 423.84L716.40 423.00L714.90 422.47L713.22 421.88L711.63 421.16L709.90 420.51L707.90 419.64L706.19 418.99L704.55 418.28L702.93 417.53L701.21 416.75L699.18 415.60L697.43 414.65L695.82 413.66L694.56 412.45L693.47 411.26L692.31 410.01L691.14 408.50L690.03 407.14L688.90 405.71L687.59 404.05L685.72 402.01L683.43 403.43L682.52 406.42L681.95 409.28L681.28 412.74L680.25 418.07L679.92 420.13L679.33 422.29L678.64 424.77L678.18 426.77L677.03 428.38L675.08 431.60L673.22 433.54L670.32 436.41L667.68 439.10L664.31 441.39L660.26 443.98L658.54 445.04L656.84 446.05L655.11 447.13L652.97 448.33L651.16 449.33L649.48 450.21L647.73 451.17L645.96 452.08L644.39 452.85L642.23 453.59L640.65 453.93L637.39 454.41L635.06 454.57L631.70 455.02L626.88 455.47L623.08 455.98L617.87 456.89L612.40 457.98L608.32 458.79L604.49 459.61L600.83 461.03L597.24 462.71L594.54 463.85L591.43 465.49L588.15 467.23L584.05 469.32L582.90 470.29L579.21 473.95L576.28 477.95L573.29 481.85L569.89 486.17L565.86 490.57L561.51 494.63L558.34 497.53L555.11 499.55L551.30 502.06L549.83 503.40L547.40 504.49L545.51 504.99L540.02 505.64L537.49 506.14L534.25 506.64L530.68 507.50L527.76 509.06L524.66 511.01L522.01 512.67L520.23 513.80L517.20 515.06L514.40 516.10L511.87 516.81L510.39 517.40L508.58 518.16L506.45 519.02L504.04 520.11L502.74 520.91L501.45 521.81L500.05 523.06L498.43 524.85L496.68 527.10L493.55 531.59L487.69 539.91L485.53 542.47L483.80 544.69L483.14 546.16L481.91 548.96L480.43 551.76L479.67 553.07L477.62 555.15L474.62 557.23L472.70 558.81L470.91 560.13L468.57 561.92L466.19 563.44L463.11 565.17L460.28 566.52L457.59 567.54L455.55 567.97L452.32 568.32L448.86 568.69L445.02 568.76L442.11 568.74L436.63 566.96L431.13 564.57L426.88 562.60L421.72 560.96L414.99 559.15L406.77 559.00L403.54 560.10L399.41 562.24L393.90 564.50L388.29 569.01L384.67 572.53L380.03 578.25L376.74 584.50L368.83 591.74L365.90 593.28L358.15 599.05L358.14 603.35L354.25 605.71L351.46 609.75L352.09 615.41L354.33 619.57L356.38 622.98L348.94 624.80L342.14 625.56L340.28 624.25L338.23 622.30L335.95 621.28L334.06 620.49L331.34 620.45L329.22 620.47L327.47 620.83L325.29 621.36L322.44 622.03L320.59 622.66L318.41 623.00L315.90 623.50L313.71 623.68L312.03 624.07L310.47 624.49L308.87 624.99L306.73 626.29L305.18 627.42L302.60 628.77L300.97 629.74L298.67 631.21L297.05 632.16L294.56 633.56L292.30 634.57L290.03 635.14L288.10 635.06L286.32 634.36L285.25 633.27L284.22 631.81L282.61 632.44L280.38 633.42L279.09 635.46L278.22 637.07L277.32 638.45L276.05 639.69L274.63 640.77L273.01 641.67L271.41 642.42L265.45 643.95L261.58 646.64L256.61 650.96L253.58 655.69L251.58 662.13L252.10 664.63L252.32 667.05L251.87 668.92L250.87 670.38L249.26 671.68L247.55 673.59L245.77 676.48L244.71 678.73L243.82 680.87L242.58 682.79L242.44 685.03L242.71 686.72L242.54 689.33L242.69 691.01L243.38 694.01L244.00 695.62L244.55 698.11L244.93 701.09L245.16 703.26L244.46 706.69L243.82 708.71L243.41 710.98L242.99 713.64L242.66 715.67L242.35 717.71L241.96 719.52L241.72 721.21L237.24 720.83L234.53 721.06L232.00 721.29L229.06 721.15L227.20 721.15L224.41 721.17L222.87 721.15L219.91 720.94L217.58 720.54L216.09 719.55L214.21 721.07L213.03 722.17L211.20 723.76L205.48 727.25L203.55 731.82L200.79 739.09L198.30 744.55L193.97 750.48L191.59 756.42L190.97 759.04L190.28 760.70L187.09 761.94L185.00 763.70L183.18 766.11L182.19 768.85L181.68 771.44L182.00 773.91L182.93 776.27L184.15 777.79L187.74 781.50L191.37 785.36L195.18 789.15L196.98 792.08L200.40 794.28L202.91 794.52L205.38 794.76L207.57 795.24L209.30 795.66L211.91 795.97L216.19 795.40L219.19 793.56L220.74 792.62L222.68 791.52L225.03 790.22L227.16 789.15L229.80 788.45L232.31 788.35L233.89 788.30L235.51 788.40L237.50 788.55L239.73 789.19L241.20 789.62L243.32 790.93L246.25 792.33L249.12 793.20L252.49 793.31L255.03 793.49L257.72 793.42L259.11 792.80L261.37 792.40L263.98 792.17L265.86 791.53L267.62 790.64L269.71 789.49L272.13 788.29L274.36 788.00L276.63 787.75L278.90 787.51L280.52 787.43L283.70 789.31L286.94 791.16L289.05 792.73L290.59 794.82L293.22 796.49L296.65 797.29L300.24 797.45L302.17 797.53L305.22 797.00L306.79 796.78L308.36 796.55L311.22 796.38L312.74 796.64L319.22 795.37L322.28 794.12L323.60 791.31L325.50 787.56L328.73 783.49L332.37 780.72L337.17 777.69L340.46 775.32L342.28 773.79L343.71 769.80L344.63 765.68L347.40 761.66L351.23 757.97L355.56 754.28L355.85 752.02L357.85 749.86L359.90 748.17L362.76 747.70L364.56 747.22L366.72 747.46L368.02 748.55L368.83 750.59L369.40 753.37L369.80 755.46L370.58 758.05L372.79 759.52L375.31 761.53L378.21 762.31L382.23 760.80L385.52 760.10L389.69 757.62L392.65 754.62L395.84 751.09L398.73 747.65L402.64 744.35L407.12 741.20L411.43 738.35L413.84 736.50L416.63 736.85L419.23 737.45L423.80 735.79L427.06 734.02L430.76 732.44L434.82 729.96L437.08 727.83L439.32 727.74L441.79 728.06L444.07 727.85L446.81 727.56L449.00 727.98L451.44 728.09L454.54 729.50L456.96 731.23L459.38 733.25L461.59 732.21L463.75 729.60L464.65 726.44L465.71 723.48L469.71 721.99L472.81 721.41L474.76 721.28L475.30 719.19L475.43 714.42L474.26 711.56L470.21 700.10L469.20 689.24L471.81 681.85L477.10 675.79L487.64 667.16L494.09 660.31L504.56 652.71L517.12 647.07L526.87 642.16L538.57 634.56L551.85 628.06L561.54 623.58L568.25 622.95L575.06 620.88L576.61 620.24L578.32 619.43L579.74 618.35L581.68 616.46L585.97 615.65L593.94 614.80L600.12 612.38L604.89 609.86L605.88 608.03L608.73 605.93L614.94 603.61L622.29 600.91L628.88 598.01L637.72 594.28L645.48 583.79L651.36 575.52L657.56 569.76L666.99 565.01L682.17 563.83L693.13 568.39L697.60 565.38L701.49 564.07L704.69 561.91L705.98 558.90L710.93 556.29L718.07 551.73L727.55 546.50L737.29 544.45L745.37 543.09L748.50 543.12L755.69 543.55L766.57 544.74L775.31 541.71Z" data-ward="23" /><path id="ward-3" class="ward" d="M566.22 712.93L565.55 708.81L564.82 705.29L562.44 705.42L556.99 706.61L552.54 708.29L548.93 711.70L541.49 715.38L534.64 713.76L529.71 713.66L528.23 717.63L526.49 719.50L524.85 721.90L523.22 722.82L521.05 722.14L517.17 722.15L513.72 722.01L510.18 722.48L506.69 723.08L502.47 722.63L498.93 723.82L495.76 725.22L490.17 727.81L485.23 726.92L483.31 725.65L479.43 723.95L477.00 722.08L474.76 721.28L472.81 721.41L469.71 721.99L465.71 723.48L464.65 726.44L463.75 729.60L461.59 732.21L459.38 733.25L456.96 731.23L454.54 729.50L451.44 728.09L449.00 727.98L446.81 727.56L444.07 727.85L441.79 728.06L439.32 727.74L437.08 727.83L434.82 729.96L430.76 732.44L427.06 734.02L423.80 735.79L419.23 737.45L416.63 736.85L413.84 736.50L411.43 738.35L407.12 741.20L402.64 744.35L398.73 747.65L395.84 751.09L392.65 754.62L389.69 757.62L385.52 760.10L382.23 760.80L378.21 762.31L375.31 761.53L372.79 759.52L370.58 758.05L369.80 755.46L369.40 753.37L368.83 750.59L368.02 748.55L366.72 747.46L364.56 747.22L362.76 747.70L359.90 748.17L357.85 749.86L355.85 752.02L355.56 754.28L351.23 757.97L347.40 761.66L344.63 765.68L343.71 769.80L342.28 773.79L340.46 775.32L337.17 777.69L332.37 780.72L328.73 783.49L325.50 787.56L323.60 791.31L322.28 794.12L319.22 795.37L312.74 796.64L312.13 802.12L311.60 809.03L311.19 814.53L311.32 823.62L311.53 825.69L311.81 828.12L312.07 830.04L312.41 832.52L312.81 834.93L313.24 837.24L313.72 839.81L314.25 842.64L314.54 844.18L314.98 846.55L315.59 847.98L316.25 849.53L317.00 851.27L318.38 853.66L320.81 855.38L323.07 856.88L324.50 857.69L325.94 858.17L328.33 858.98L330.72 859.79L334.20 860.76L336.81 861.38L340.41 862.23L343.80 863.04L347.53 863.93L349.11 864.52L351.68 865.56L353.96 866.49L357.01 867.73L359.27 868.65L372.12 873.87L380.69 877.35L384.12 878.68L396.26 881.14L408.33 883.59L421.32 886.23L423.30 886.52L434.24 884.25L449.49 881.07L451.89 880.49L454.52 879.85L457.90 879.04L461.38 878.19L464.96 877.33L468.81 876.39L471.52 875.74L474.43 875.03L490.38 871.09L512.82 862.54L520.89 859.46L524.29 859.34L536.36 858.90L542.48 858.61L553.69 856.83L565.61 854.93L569.24 854.33L573.98 850.33L580.52 844.80L584.98 841.04L586.87 839.47L589.49 837.27L595.23 832.45L603.58 824.70L604.80 823.56L606.13 821.10L608.38 817.12L611.00 812.47L618.37 799.89L621.06 799.12L623.74 798.34L620.13 794.65L614.85 787.80L605.13 781.42L586.31 770.51L579.73 760.24L571.60 749.30L571.05 744.58L574.54 732.86L570.29 725.97L567.07 715.95L566.22 712.93Z" data-ward="3" /><path id="ward-15" class="ward" d="M68.14 1014.91L66.05 1014.32L64.42 1014.69L62.57 1015.38L57.96 1016.92L54.55 1016.54L52.85 1016.58L51.33 1017.44L49.69 1018.48L47.50 1018.87L45.14 1019.30L42.41 1020.12L40.42 1020.99L38.54 1022.16L35.72 1024.40L34.04 1025.83L32.59 1027.59L32.38 1029.98L32.66 1032.71L33.13 1038.75L33.37 1041.90L34.79 1042.35L38.11 1045.09L44.15 1050.11L53.79 1058.12L58.43 1066.50L70.81 1088.89L72.10 1091.22L75.16 1095.46L76.80 1097.74L78.86 1100.26L80.04 1101.75L83.60 1106.15L87.94 1111.53L92.62 1117.42L93.80 1118.91L96.58 1122.39L98.13 1124.33L100.82 1127.70L108.02 1121.15L110.66 1118.24L112.08 1116.64L115.62 1110.76L116.40 1108.21L118.45 1101.76L124.14 1095.09L122.59 1093.26L121.72 1091.97L119.36 1090.03L118.97 1087.70L118.35 1084.01L117.65 1080.87L116.26 1080.16L113.98 1079.80L110.88 1080.44L105.80 1081.55L102.28 1076.15L103.47 1070.02L107.30 1065.22L111.38 1063.83L114.51 1062.47L117.70 1060.67L118.53 1058.99L119.33 1057.39L121.24 1055.51L122.55 1053.86L122.23 1050.86L123.45 1044.33L125.55 1044.12L129.27 1043.76L131.99 1043.58L136.64 1043.94L136.22 1042.26L136.41 1040.13L136.52 1038.54L136.64 1036.98L136.75 1035.43L136.90 1032.63L135.86 1029.46L135.03 1027.16L133.93 1024.60L133.94 1022.21L133.89 1020.00L130.92 1019.92L129.41 1020.63L128.11 1021.61L126.66 1021.97L123.78 1022.84L120.69 1023.88L118.96 1024.57L117.32 1025.42L115.55 1026.25L113.74 1026.93L112.58 1025.46L111.00 1024.18L109.52 1023.75L107.31 1023.64L105.82 1023.74L102.97 1023.69L100.62 1023.96L97.90 1023.96L95.21 1023.84L92.57 1023.21L90.37 1022.51L88.30 1021.93L86.33 1021.33L82.40 1020.50L80.66 1019.63L78.62 1019.14L77.59 1017.74L76.47 1016.57L75.14 1015.65L73.59 1014.63L71.45 1014.46L69.66 1015.14L68.14 1014.91Z" data-ward="15" /><path id="ward-22" class="ward" d="M180.98 743.69L179.27 743.25L178.24 742.06L176.43 739.98L174.42 737.66L170.41 736.37L168.61 735.29L167.44 733.84L166.14 732.24L164.48 728.50L163.14 727.51L160.35 726.25L157.99 725.65L155.74 725.45L153.56 724.77L152.22 724.00L151.43 722.50L150.72 721.14L149.29 719.40L147.61 717.41L146.42 716.05L145.22 714.66L142.70 711.57L141.22 710.70L138.89 709.30L136.94 708.13L134.21 707.46L130.18 707.42L126.20 708.25L124.62 708.72L123.05 709.19L118.38 709.51L118.38 713.02L118.24 715.40L117.53 717.98L116.92 720.18L116.47 721.70L116.02 723.22L116.98 725.90L118.13 727.98L120.07 729.81L122.21 731.74L127.78 737.15L129.58 738.93L131.97 741.11L135.16 744.02L137.70 746.33L139.90 748.48L141.72 751.89L143.08 754.74L143.57 758.46L143.88 761.77L143.85 763.40L143.72 769.76L143.98 771.74L144.68 774.94L145.55 778.95L146.55 783.59L147.54 787.76L148.69 792.53L149.39 795.40L150.18 798.62L149.97 800.39L148.99 801.82L148.36 805.44L149.07 808.23L149.49 809.87L149.55 813.48L149.48 815.39L149.41 817.30L149.07 821.62L148.82 824.75L148.93 827.76L148.53 831.26L146.86 833.65L145.98 835.45L145.06 836.66L144.39 838.42L142.35 838.79L140.76 839.98L140.69 841.75L140.85 843.36L141.38 845.23L142.08 847.41L142.63 850.06L142.56 852.55L140.70 857.68L138.57 865.24L137.44 866.86L139.07 867.64L142.75 868.47L145.23 868.88L148.01 870.26L151.04 872.23L152.72 873.46L157.64 876.52L160.36 878.33L161.78 882.69L162.31 887.28L162.83 891.86L164.57 906.91L166.67 908.74L168.07 909.84L169.54 910.99L170.83 912.02L173.77 917.07L175.05 918.12L178.00 917.85L179.69 917.69L181.55 917.68L184.71 917.90L192.19 918.39L200.74 918.97L203.62 918.42L212.73 916.67L221.53 914.99L231.05 913.16L240.00 911.37L247.69 909.84L251.32 909.04L257.52 904.84L264.09 900.41L268.67 897.47L277.16 892.17L281.50 889.46L283.03 888.56L286.45 885.68L293.30 879.92L300.32 874.00L307.12 868.25L318.38 853.66L317.00 851.27L316.25 849.53L315.59 847.98L314.98 846.55L314.54 844.18L314.25 842.64L313.72 839.81L313.24 837.24L312.81 834.93L312.41 832.52L312.07 830.04L311.81 828.12L311.53 825.69L311.32 823.62L311.19 814.53L311.60 809.03L312.13 802.12L312.74 796.64L311.22 796.38L308.36 796.55L306.79 796.78L305.22 797.00L302.17 797.53L300.24 797.45L296.65 797.29L293.22 796.49L290.59 794.82L289.05 792.73L286.94 791.16L283.70 789.31L280.52 787.43L278.90 787.51L276.63 787.75L274.36 788.00L272.13 788.29L269.71 789.49L267.62 790.64L265.86 791.53L263.98 792.17L261.37 792.40L259.11 792.80L257.72 793.42L255.03 793.49L252.49 793.31L249.12 793.20L246.25 792.33L243.32 790.93L241.20 789.62L239.73 789.19L237.50 788.55L235.51 788.40L233.89 788.30L232.31 788.35L229.80 788.45L227.16 789.15L225.03 790.22L222.68 791.52L220.74 792.62L219.19 793.56L216.19 795.40L211.91 795.97L209.30 795.66L207.57 795.24L205.38 794.76L202.91 794.52L200.40 794.28L196.98 792.08L195.18 789.15L191.37 785.36L187.74 781.50L184.15 777.79L182.93 776.27L182.00 773.91L181.68 771.44L182.19 768.85L183.18 766.11L185.00 763.70L187.09 761.94L190.28 760.70L190.97 759.04L191.59 756.42L193.97 750.48L198.30 744.55L196.16 744.46L192.71 744.31L190.64 744.22L188.49 744.24L186.26 744.34L183.92 744.45L180.98 743.69Z" data-ward="22" /><path id="ward-4" class="ward" d="M421.32 886.23L408.33 883.59L396.26 881.14L384.12 878.68L380.69 877.35L372.12 873.87L359.27 868.65L357.01 867.73L353.96 866.49L351.68 865.56L349.11 864.52L347.53 863.93L343.80 863.04L340.41 862.23L336.81 861.38L334.20 860.76L330.72 859.79L328.33 858.98L325.94 858.17L324.50 857.69L323.07 856.88L320.81 855.38L318.38 853.66L307.12 868.25L300.32 874.00L293.30 879.92L286.45 885.68L283.03 888.56L281.50 889.46L277.16 892.17L268.67 897.47L269.03 904.90L269.60 916.49L271.88 952.27L272.90 959.30L274.18 968.06L274.63 971.11L275.29 974.19L275.61 976.23L275.85 978.29L275.96 980.89L275.43 982.57L275.32 985.11L275.90 986.62L276.52 988.00L276.67 990.28L276.83 992.32L270.79 994.17L269.08 994.61L267.37 995.06L262.84 996.14L263.30 997.97L263.95 999.69L264.01 1001.54L262.55 1001.97L262.54 1004.05L262.69 1007.01L262.34 1009.94L262.02 1011.96L261.19 1017.45L260.98 1019.24L260.62 1022.25L262.69 1022.46L265.87 1022.77L268.84 1023.06L271.75 1023.35L274.37 1023.59L279.23 1028.66L282.89 1029.02L285.11 1029.14L287.34 1029.25L290.26 1029.30L292.12 1029.49L292.42 1031.78L292.80 1034.42L293.81 1035.57L293.88 1038.39L293.37 1039.93L292.38 1041.91L290.93 1044.03L290.01 1045.54L289.47 1047.87L289.74 1049.53L290.01 1051.19L291.79 1051.41L293.42 1051.47L296.54 1051.04L298.94 1050.94L303.97 1051.34L306.37 1052.39L309.07 1055.30L313.05 1056.30L317.44 1056.65L321.64 1057.39L323.49 1059.41L325.61 1058.10L330.45 1059.22L333.03 1059.93L334.46 1060.34L337.32 1060.98L340.80 1060.40L343.11 1059.65L344.66 1059.78L346.92 1060.61L348.94 1062.37L351.31 1064.62L352.78 1065.89L354.11 1066.94L355.56 1068.06L357.89 1069.77L360.28 1071.29L359.93 1067.51L358.81 1064.29L358.02 1061.70L357.33 1057.79L356.66 1054.66L359.73 1054.87L361.77 1054.85L363.40 1054.61L366.16 1054.21L368.81 1052.61L371.94 1050.73L373.77 1047.32L375.22 1044.37L377.56 1043.40L380.94 1041.99L385.67 1040.01L391.07 1037.76L396.54 1035.48L397.29 1033.29L397.86 1031.62L398.46 1029.87L399.08 1028.05L399.74 1026.13L400.44 1024.09L400.97 1022.54L401.51 1020.95L402.07 1019.39L402.92 1017.57L405.91 1011.14L408.37 1005.87L409.42 1002.07L410.61 997.52L411.80 993.00L413.76 983.87L413.91 981.13L414.05 979.45L414.29 976.46L413.98 971.55L413.68 967.00L413.35 961.94L413.25 960.04L413.14 958.14L412.87 952.58L412.97 950.93L413.69 947.96L414.59 945.88L415.47 943.89L416.40 941.81L418.01 938.23L419.33 935.71L420.17 934.13L421.71 931.68L422.69 930.48L428.52 923.29L429.54 922.03L434.30 915.98L435.14 914.58L436.61 911.75L439.32 904.17L442.03 896.60L442.68 895.06L445.59 886.64L446.11 885.25L449.49 881.07L434.24 884.25L423.30 886.52L421.32 886.23Z" data-ward="4" /><path id="ward-8" class="ward" d="M451.62 1103.49L448.90 1101.59L446.42 1100.05L444.91 1099.13L443.48 1102.53L441.24 1104.63L438.02 1105.66L432.87 1106.64L429.72 1110.12L430.20 1112.84L430.83 1115.96L427.05 1116.94L424.32 1118.69L418.35 1120.96L416.31 1120.93L414.67 1123.79L410.54 1129.92L408.79 1131.58L406.59 1133.68L404.73 1137.36L404.80 1142.76L404.93 1144.84L405.03 1146.35L405.18 1148.80L402.36 1153.78L398.85 1156.47L396.65 1159.37L395.55 1161.05L395.70 1163.17L395.84 1165.00L396.32 1166.43L397.84 1170.79L397.27 1174.53L396.80 1177.89L395.91 1182.00L397.45 1184.89L399.37 1187.74L400.67 1189.97L401.18 1192.18L401.57 1194.35L401.72 1195.90L401.94 1198.60L401.97 1201.32L404.38 1203.48L406.68 1204.45L408.14 1204.87L410.20 1205.46L413.84 1206.75L415.35 1207.28L421.13 1209.13L426.85 1210.30L429.20 1209.91L432.57 1209.32L435.01 1208.78L436.74 1208.03L438.28 1207.37L440.83 1206.20L443.40 1204.94L446.93 1203.20L448.79 1197.77L451.50 1192.82L451.86 1190.14L451.83 1187.87L451.81 1185.56L452.04 1181.54L453.00 1179.84L454.69 1178.16L457.13 1179.04L459.42 1179.22L460.93 1178.83L462.28 1183.36L465.65 1182.28L469.07 1183.16L470.71 1181.96L472.00 1181.13L474.12 1179.87L475.67 1179.52L477.38 1179.36L479.92 1179.29L481.40 1178.24L482.89 1177.20L484.60 1176.47L486.92 1174.88L488.18 1173.43L490.04 1173.61L492.01 1174.09L494.27 1174.07L494.38 1172.34L494.49 1170.67L493.88 1167.64L491.98 1165.81L492.73 1164.50L494.85 1163.82L497.97 1162.81L500.86 1161.50L500.28 1158.56L499.41 1156.81L496.10 1157.99L493.36 1159.02L492.56 1155.45L492.48 1151.26L492.43 1148.90L487.64 1144.96L484.99 1142.74L473.78 1124.30L472.09 1121.13L472.22 1118.50L472.81 1116.82L474.29 1114.02L475.21 1111.46L477.02 1109.38L472.77 1107.09L467.03 1105.51L464.44 1104.74L459.29 1103.88L454.67 1104.12L451.62 1103.49Z" data-ward="8" /><path id="ward-11" class="ward" d="M274.37 1023.59L271.75 1023.35L268.84 1023.06L265.87 1022.77L262.69 1022.46L260.62 1022.25L260.24 1023.84L259.73 1025.92L259.38 1027.80L256.64 1027.10L252.01 1025.47L251.19 1027.55L251.13 1029.29L249.81 1030.40L247.91 1029.52L245.03 1029.57L244.50 1031.05L242.19 1033.24L240.06 1034.56L238.96 1036.59L237.84 1037.71L235.14 1037.06L232.93 1036.77L231.15 1036.66L227.28 1037.98L226.91 1041.58L225.59 1042.50L223.89 1042.22L221.57 1043.27L219.60 1043.13L217.99 1044.67L218.90 1046.07L220.37 1047.18L222.47 1048.77L223.96 1049.79L225.83 1051.29L225.56 1053.61L223.98 1056.33L226.71 1057.21L228.72 1057.86L230.40 1058.19L232.85 1058.12L234.40 1057.99L235.24 1059.39L235.85 1063.51L235.97 1065.79L236.04 1067.54L236.39 1069.14L236.78 1070.90L239.86 1071.47L241.67 1071.25L243.86 1071.78L245.41 1073.64L247.17 1074.82L246.83 1076.40L247.06 1079.98L246.83 1083.71L246.10 1085.81L243.63 1086.38L242.92 1087.96L243.25 1090.61L243.57 1093.17L245.91 1096.01L247.65 1098.57L258.02 1105.27L260.74 1111.04L262.44 1116.67L264.82 1121.12L267.85 1122.00L270.91 1123.16L273.96 1124.86L276.28 1127.23L278.43 1128.57L281.10 1130.11L283.12 1130.84L285.69 1129.76L287.13 1129.32L290.70 1130.37L293.82 1133.41L295.65 1130.14L298.55 1125.09L300.01 1121.54L301.79 1117.13L303.24 1113.56L304.14 1109.68L305.45 1104.01L306.32 1100.26L306.61 1097.71L307.00 1093.58L307.27 1091.24L307.53 1088.90L308.27 1083.61L310.83 1079.97L311.86 1078.42L312.98 1076.67L313.79 1075.34L315.14 1072.41L316.05 1070.36L317.56 1066.37L318.79 1063.99L320.20 1062.89L322.41 1060.82L323.49 1059.41L321.64 1057.39L317.44 1056.65L313.05 1056.30L309.07 1055.30L306.37 1052.39L303.97 1051.34L298.94 1050.94L296.54 1051.04L293.42 1051.47L291.79 1051.41L290.01 1051.19L289.74 1049.53L289.47 1047.87L290.01 1045.54L290.93 1044.03L292.38 1041.91L293.37 1039.93L293.88 1038.39L293.81 1035.57L292.80 1034.42L292.42 1031.78L292.12 1029.49L290.26 1029.30L287.34 1029.25L285.11 1029.14L282.89 1029.02L279.23 1028.66L274.37 1023.59Z" data-ward="11" /><path id="ward-17" class="ward" d="M269.60 916.49L269.03 904.90L268.67 897.47L264.09 900.41L257.52 904.84L251.32 909.04L247.69 909.84L240.00 911.37L231.05 913.16L221.53 914.99L212.73 916.67L203.62 918.42L200.74 918.97L192.19 918.39L184.71 917.90L181.55 917.68L179.69 917.69L178.00 917.85L175.05 918.12L173.77 917.07L170.83 912.02L169.54 910.99L168.07 909.84L166.67 908.74L164.57 906.91L164.33 909.71L164.08 912.83L163.83 915.63L163.66 917.49L161.27 915.79L158.86 913.83L157.16 912.46L155.25 910.92L152.90 909.02L147.51 906.49L144.76 907.22L141.29 908.15L140.51 910.12L139.08 913.75L137.59 916.89L137.06 920.19L137.66 923.15L138.51 928.03L134.77 931.55L132.16 934.01L130.88 936.14L129.72 938.01L128.32 940.28L127.05 942.50L125.97 944.50L127.81 946.18L129.65 947.68L130.88 948.85L131.89 949.93L132.94 951.09L131.75 952.17L130.39 954.36L129.40 956.36L128.74 957.96L127.82 960.69L126.91 961.90L124.81 962.66L123.51 963.57L122.14 965.64L124.37 967.02L126.69 969.34L127.10 971.70L127.26 974.29L126.73 975.75L127.05 978.57L128.85 979.86L130.86 980.15L132.11 981.81L133.33 982.90L135.10 983.08L136.75 983.37L138.56 983.97L140.78 985.08L142.64 983.70L142.69 981.12L142.26 977.88L145.21 977.47L147.20 977.31L153.35 978.30L157.18 984.44L159.45 987.74L160.84 990.49L161.96 992.75L162.60 995.78L163.10 999.19L164.78 1003.99L164.87 1007.62L165.11 1010.87L170.01 1011.64L174.91 1012.40L177.86 1014.54L181.31 1016.74L185.34 1018.18L188.21 1019.20L191.96 1017.50L194.51 1013.34L196.18 1006.66L204.26 1007.34L211.73 1008.01L218.33 1008.60L222.84 1009.01L226.70 1012.20L232.18 1016.73L238.17 1017.31L241.62 1016.77L249.36 1015.57L251.79 1015.19L257.68 1013.39L262.02 1011.96L262.34 1009.94L262.69 1007.01L262.54 1004.05L262.55 1001.97L264.01 1001.54L263.95 999.69L263.30 997.97L262.84 996.14L267.37 995.06L269.08 994.61L270.79 994.17L276.83 992.32L276.67 990.28L276.52 988.00L275.90 986.62L275.32 985.11L275.43 982.57L275.96 980.89L275.85 978.29L275.61 976.23L275.29 974.19L274.63 971.11L274.18 968.06L272.90 959.30L271.88 952.27L269.60 916.49Z" data-ward="17" /><path id="ward-5" class="ward" d="M640.34 1061.30L639.85 1050.18L640.00 1046.84L639.81 1044.72L639.54 1041.64L638.68 1031.84L638.44 1029.17L638.32 1027.33L636.82 1020.35L637.27 1014.62L637.45 1012.36L639.00 992.47L638.54 980.24L633.22 979.29L629.43 975.93L627.53 970.42L625.07 963.40L624.06 960.89L619.06 948.84L619.22 939.25L617.86 932.31L617.99 923.25L618.09 915.66L618.22 911.83L618.63 899.12L617.21 891.78L615.77 888.86L614.70 887.23L612.82 884.90L611.23 883.23L608.20 880.25L606.64 878.63L604.97 876.48L602.32 872.89L598.67 867.94L595.05 863.04L590.78 857.03L590.36 855.60L588.92 850.74L587.28 845.18L586.35 842.02L586.87 839.47L584.98 841.04L580.52 844.80L573.98 850.33L569.24 854.33L565.61 854.93L553.69 856.83L542.48 858.61L536.36 858.90L524.29 859.34L520.89 859.46L512.82 862.54L490.38 871.09L474.43 875.03L471.52 875.74L468.81 876.39L464.96 877.33L461.38 878.19L457.90 879.04L454.52 879.85L451.89 880.49L449.49 881.07L446.11 885.25L445.59 886.64L442.68 895.06L442.03 896.60L439.32 904.17L436.61 911.75L435.14 914.58L434.30 915.98L429.54 922.03L428.52 923.29L422.69 930.48L421.71 931.68L420.17 934.13L419.33 935.71L418.01 938.23L416.40 941.81L415.47 943.89L414.59 945.88L413.69 947.96L412.97 950.93L412.87 952.58L413.14 958.14L413.25 960.04L413.35 961.94L413.68 967.00L413.98 971.55L414.29 976.46L414.05 979.45L413.91 981.13L413.76 983.87L432.53 985.24L442.41 993.70L441.79 996.97L441.16 1000.27L439.59 1005.19L438.31 1008.28L437.03 1011.37L435.94 1014.00L435.54 1017.00L435.20 1019.59L434.99 1021.14L436.28 1022.85L437.62 1024.39L437.76 1026.66L437.87 1028.37L438.97 1036.02L439.12 1037.83L439.36 1040.67L439.58 1043.29L439.82 1045.85L440.08 1048.29L440.30 1050.35L440.32 1051.85L440.26 1054.49L440.86 1056.82L441.77 1058.45L442.27 1060.08L445.75 1067.59L447.28 1067.51L449.03 1067.33L451.41 1066.98L455.71 1066.70L457.56 1066.30L459.18 1065.69L460.68 1066.55L462.12 1067.34L464.02 1068.42L465.92 1069.50L468.38 1070.95L470.58 1068.33L474.14 1066.58L477.51 1065.87L480.53 1066.82L488.19 1068.40L502.91 1071.46L517.89 1075.56L532.93 1079.68L538.93 1082.47L547.34 1086.38L554.59 1094.03L566.03 1106.11L577.75 1118.47L582.46 1123.41L594.04 1123.18L601.47 1123.04L608.91 1122.90L610.67 1122.87L612.75 1122.83L614.51 1122.80L616.65 1122.77L618.93 1122.73L620.70 1122.68L622.68 1122.58L625.06 1122.47L627.67 1122.35L629.78 1122.25L632.42 1122.13L634.46 1122.04L636.52 1121.94L639.03 1120.25L641.21 1118.56L642.38 1117.43L643.54 1116.30L644.66 1115.22L646.45 1116.66L647.69 1117.52L649.29 1113.96L644.56 1111.82L642.23 1110.77L635.67 1107.81L633.92 1105.86L625.36 1100.59L624.06 1094.79L623.06 1091.86L627.53 1089.44L628.62 1090.86L630.58 1092.61L632.96 1093.35L635.53 1094.14L635.87 1090.54L636.77 1081.48L640.34 1061.30Z" data-ward="5" /><path id="ward-20" class="ward" d="M61.53 826.01L59.70 825.60L57.13 825.26L55.12 825.20L54.26 822.25L53.55 819.84L53.22 818.34L51.96 813.82L51.52 811.79L51.09 809.82L50.85 806.95L50.93 804.75L51.00 802.71L51.19 800.91L51.43 798.61L51.61 796.69L51.84 794.22L51.78 791.78L51.42 789.76L49.86 789.80L47.21 789.96L45.19 789.98L42.32 790.01L39.34 790.06L33.00 790.84L33.68 793.50L34.09 795.12L35.20 799.43L36.05 802.78L37.75 808.86L38.27 810.70L38.78 812.54L40.54 818.87L40.77 821.12L41.91 827.42L42.23 830.25L42.71 834.45L43.02 839.40L43.13 841.22L43.29 843.64L43.51 845.20L43.74 846.82L43.70 849.44L43.65 852.59L43.49 854.91L42.88 857.70L41.81 859.36L40.50 860.55L39.35 861.49L38.14 862.48L36.89 863.46L35.67 864.41L32.97 865.85L31.50 866.61L29.59 867.59L26.16 869.98L25.52 871.62L25.36 873.36L25.20 875.09L25.18 877.20L25.17 878.74L24.84 881.65L25.23 884.39L26.42 888.41L26.95 889.92L27.47 891.32L28.59 893.91L29.28 895.57L29.85 897.76L29.23 900.55L27.77 902.32L24.89 904.50L23.22 905.60L20.81 906.24L17.80 906.43L15.18 906.32L12.11 906.31L8.83 906.39L6.19 906.94L3.40 907.67L1.36 908.98L0.00 910.89L0.26 913.64L0.66 915.23L1.06 916.82L1.58 918.65L2.42 920.57L3.27 922.48L4.29 924.21L7.09 923.31L10.55 922.67L13.11 922.51L14.96 922.53L18.34 923.47L20.14 923.89L22.73 923.82L26.02 922.81L29.61 921.50L32.01 920.61L35.78 919.50L37.98 918.98L40.69 918.35L44.36 918.11L47.47 918.24L51.72 919.05L54.46 920.44L58.20 922.15L60.06 923.19L61.55 924.01L62.93 924.78L65.03 922.32L67.46 919.38L68.52 917.61L69.90 914.30L72.05 909.76L72.99 907.85L73.81 905.79L74.40 903.22L74.63 899.68L75.24 898.05L76.37 895.90L77.14 894.63L79.15 891.72L80.99 888.82L82.42 887.06L83.46 885.77L86.57 884.22L88.62 883.25L90.88 881.86L93.05 880.04L94.74 879.17L97.92 878.17L96.88 876.32L95.31 873.55L93.75 870.77L92.66 868.84L91.76 867.08L90.40 864.41L88.97 861.60L87.94 859.58L87.18 857.72L86.42 855.86L85.66 853.93L85.03 852.31L83.54 850.40L79.21 844.87L78.16 843.54L77.11 842.20L75.83 839.22L74.63 836.44L74.02 830.10L73.76 827.35L72.08 825.99L69.50 826.15L67.27 826.29L65.01 826.37L61.53 826.01Z" data-ward="20" /><path id="ward-9" class="ward" d="M653.87 1182.14L652.61 1181.30L650.93 1180.63L647.86 1180.19L634.98 1169.05L595.85 1178.72L591.49 1179.71L564.84 1182.71L540.06 1185.56L512.21 1190.96L493.48 1198.27L480.28 1208.78L472.76 1218.64L471.43 1220.30L467.35 1225.31L462.73 1227.47L460.68 1227.75L458.11 1227.38L456.24 1226.89L452.94 1225.84L451.24 1225.25L447.63 1223.85L446.07 1223.90L444.85 1225.23L443.40 1225.54L440.72 1226.55L439.39 1227.30L436.45 1227.67L434.19 1227.91L433.38 1229.91L432.17 1233.19L430.92 1235.04L428.26 1235.13L426.53 1235.62L424.74 1236.13L422.61 1236.12L420.97 1236.07L419.47 1235.95L418.32 1237.48L418.05 1239.08L417.01 1241.02L415.32 1241.07L413.20 1240.94L410.79 1240.27L408.49 1239.36L406.42 1239.18L404.27 1239.50L403.72 1240.88L403.32 1242.33L403.86 1243.73L406.16 1244.74L408.29 1245.30L409.76 1245.83L411.59 1246.33L413.53 1246.95L414.94 1247.70L418.24 1249.07L420.63 1250.32L421.66 1251.48L423.63 1252.95L425.30 1252.95L426.31 1254.94L428.91 1256.69L430.01 1255.19L430.56 1253.40L431.94 1252.80L435.78 1251.13L444.47 1247.36L458.30 1249.22L460.37 1248.47L466.24 1250.55L469.89 1251.83L473.38 1253.07L476.26 1255.33L479.87 1258.17L483.89 1261.33L486.00 1264.25L488.94 1268.32L491.92 1272.45L492.49 1282.90L492.97 1291.63L495.75 1318.95L507.92 1323.93L518.78 1318.67L521.33 1316.26L523.63 1314.09L528.52 1309.48L533.66 1304.63L535.18 1303.10L536.97 1301.36L542.21 1296.26L546.99 1291.61L549.31 1289.31L552.02 1286.69L575.18 1264.35L576.46 1262.84L587.56 1249.76L598.95 1238.76L602.28 1235.56L609.71 1228.35L612.31 1228.09L619.92 1227.34L621.61 1227.17L633.42 1228.58L635.17 1228.79L644.66 1229.92L643.38 1225.97L642.32 1222.71L642.57 1220.28L647.87 1219.11L651.21 1217.57L652.88 1216.81L651.61 1215.72L650.01 1214.34L648.82 1213.32L646.48 1211.13L645.56 1208.98L644.74 1207.05L645.57 1204.88L648.99 1204.61L653.25 1203.28L657.41 1201.58L655.75 1197.97L657.14 1196.22L658.31 1194.74L659.00 1193.11L659.93 1190.91L662.41 1187.74L663.78 1185.99L663.57 1183.77L661.75 1183.78L660.03 1183.78L656.01 1183.86L653.87 1182.14Z" data-ward="9" /><path id="ward-13" class="ward" d="M214.37 1153.95L213.10 1150.37L212.34 1148.41L210.63 1146.90L208.46 1145.53L208.08 1147.18L207.70 1148.96L206.82 1151.50L205.32 1152.26L203.81 1152.67L202.26 1153.39L200.89 1154.05L198.62 1154.55L196.81 1154.69L194.89 1154.37L193.12 1153.60L191.34 1152.85L189.46 1153.12L186.45 1155.04L184.74 1154.86L182.65 1154.21L180.68 1153.80L179.16 1153.65L179.04 1154.34L178.93 1154.59L178.80 1154.91L178.43 1155.63L177.79 1156.42L176.24 1157.93L173.13 1159.13L171.49 1159.49L170.23 1160.85L169.41 1162.68L167.62 1161.94L164.45 1161.54L162.86 1161.62L161.09 1160.16L159.63 1159.04L156.44 1158.47L151.12 1158.43L147.39 1158.60L145.12 1158.67L143.80 1159.51L143.79 1161.07L145.80 1162.25L148.21 1162.60L150.17 1162.96L151.87 1163.91L150.71 1165.04L149.25 1165.97L148.30 1167.29L146.42 1167.66L144.49 1166.78L142.89 1166.01L141.48 1165.33L139.73 1163.50L126.05 1169.43L127.27 1181.72L125.04 1196.01L124.14 1198.66L123.58 1200.32L120.85 1208.41L119.35 1212.88L118.16 1216.38L117.40 1226.14L121.43 1231.03L123.75 1233.85L124.89 1236.26L127.05 1237.01L130.92 1238.35L137.51 1240.24L140.18 1241.47L143.37 1242.48L144.79 1242.92L147.55 1243.79L150.72 1244.79L152.33 1245.29L156.69 1246.67L160.83 1247.97L168.13 1247.86L173.10 1247.79L179.45 1247.69L182.79 1247.64L186.28 1247.58L188.14 1247.50L192.60 1247.29L196.36 1247.11L199.08 1246.98L202.48 1246.82L204.74 1246.72L207.37 1246.59L209.10 1246.49L212.51 1246.26L212.45 1243.87L212.57 1242.13L212.64 1240.48L212.39 1236.49L212.41 1234.94L212.42 1233.38L212.50 1230.85L212.49 1229.25L212.97 1226.28L213.98 1224.40L214.99 1222.52L216.41 1220.48L216.76 1218.30L217.82 1216.43L218.95 1213.51L220.37 1211.34L221.28 1209.93L221.50 1207.01L220.96 1205.57L219.65 1203.81L219.40 1202.34L218.04 1200.30L216.57 1197.38L215.85 1195.93L217.39 1194.89L219.89 1194.12L221.87 1193.30L223.56 1192.47L223.62 1187.39L223.50 1182.63L221.40 1180.27L217.85 1178.27L218.93 1177.03L220.01 1175.79L221.55 1173.44L222.13 1171.14L222.46 1168.52L222.68 1166.89L222.33 1164.56L220.93 1161.68L219.29 1159.34L216.35 1156.93L215.36 1155.44L214.37 1153.95Z" data-ward="13" /><path id="ward-14" class="ward" d="M131.99 1043.58L129.27 1043.76L125.55 1044.12L123.45 1044.33L122.23 1050.86L122.55 1053.86L121.24 1055.51L119.33 1057.39L118.53 1058.99L117.70 1060.67L114.51 1062.47L111.38 1063.83L107.30 1065.22L103.47 1070.02L102.28 1076.15L105.80 1081.55L110.88 1080.44L113.98 1079.80L116.26 1080.16L117.65 1080.87L118.35 1084.01L118.97 1087.70L119.36 1090.03L121.72 1091.97L122.59 1093.26L124.14 1095.09L118.45 1101.76L116.40 1108.21L115.62 1110.76L112.08 1116.64L110.66 1118.24L108.02 1121.15L100.82 1127.70L110.07 1141.30L113.56 1146.79L117.20 1152.51L118.36 1154.32L120.47 1157.63L121.37 1159.50L122.77 1162.48L126.05 1169.43L139.73 1163.50L141.48 1165.33L142.89 1166.01L144.49 1166.78L146.42 1167.66L148.30 1167.29L149.25 1165.97L150.71 1165.04L151.87 1163.91L150.17 1162.96L148.21 1162.60L145.80 1162.25L143.79 1161.07L143.80 1159.51L145.12 1158.67L147.39 1158.60L151.12 1158.43L156.44 1158.47L159.63 1159.04L161.09 1160.16L162.86 1161.62L164.45 1161.54L167.62 1161.94L169.41 1162.68L170.23 1160.85L171.49 1159.49L173.13 1159.13L176.24 1157.93L177.79 1156.42L178.43 1155.63L178.80 1154.91L179.04 1154.34L179.16 1153.65L179.10 1151.91L178.68 1148.50L178.32 1146.88L178.42 1144.12L177.48 1141.16L177.01 1138.59L177.06 1136.92L177.26 1134.29L177.46 1132.61L176.83 1130.18L174.95 1126.90L175.71 1125.63L176.77 1124.45L178.88 1121.78L179.50 1119.14L179.54 1117.38L179.44 1114.97L179.02 1112.46L178.32 1110.35L177.70 1108.49L177.98 1106.53L179.34 1105.05L180.41 1103.82L181.47 1102.60L183.65 1100.22L184.64 1097.93L186.06 1094.38L187.09 1090.71L187.84 1087.58L188.20 1085.12L188.69 1083.63L190.08 1082.07L190.46 1080.37L189.47 1078.07L188.66 1076.17L188.67 1073.01L189.77 1070.88L190.93 1069.53L193.03 1067.89L195.71 1067.10L198.28 1066.58L199.92 1065.08L200.84 1063.11L201.64 1061.40L203.02 1059.68L204.14 1058.68L204.06 1056.35L204.32 1054.45L205.05 1052.23L206.49 1048.58L208.66 1045.79L207.42 1044.49L200.88 1048.56L196.23 1051.83L194.09 1053.21L187.78 1057.16L181.17 1062.77L167.75 1051.55L160.59 1049.38L151.52 1058.37L147.08 1062.16L145.72 1060.46L144.78 1059.00L143.85 1057.54L142.33 1055.75L142.50 1053.00L143.38 1050.98L144.43 1048.57L145.71 1045.52L142.55 1043.96L139.99 1043.87L138.51 1043.82L136.64 1043.94L131.99 1043.58Z" data-ward="14" /><path id="ward-10" class="ward" d="M357.83 1120.15L354.37 1118.33L352.25 1117.08L350.55 1116.66L348.56 1116.35L346.50 1115.75L344.29 1114.75L343.94 1117.76L342.66 1119.05L340.62 1119.55L337.71 1120.21L335.72 1120.84L332.93 1120.58L330.16 1119.45L327.71 1118.84L325.20 1119.14L322.51 1119.47L318.56 1123.27L315.87 1124.44L312.62 1125.83L308.57 1125.41L303.87 1127.82L300.41 1130.12L296.56 1132.17L293.82 1133.41L291.50 1137.52L291.60 1140.73L290.76 1144.71L290.45 1146.85L290.24 1148.34L289.60 1150.68L289.16 1152.67L288.96 1154.55L286.85 1158.50L285.12 1160.33L283.46 1162.00L281.80 1163.67L281.18 1165.08L278.62 1167.04L274.95 1168.19L271.72 1170.06L266.91 1176.44L265.44 1179.02L265.14 1181.10L267.14 1182.63L269.51 1183.39L269.60 1185.77L268.13 1186.16L267.68 1187.80L267.29 1190.11L268.73 1196.55L269.35 1201.01L269.63 1203.69L270.33 1210.29L270.87 1215.50L271.49 1221.36L274.06 1227.24L275.54 1230.47L276.57 1235.79L277.21 1239.79L278.01 1245.09L292.83 1246.01L302.59 1247.37L313.60 1248.90L316.42 1248.07L323.65 1249.21L329.42 1251.33L339.32 1254.21L357.67 1261.99L367.44 1265.68L379.78 1270.75L387.56 1273.15L390.35 1273.65L399.27 1273.83L407.22 1272.40L418.39 1271.58L418.94 1270.20L420.87 1267.60L421.81 1266.34L423.70 1264.10L428.91 1256.69L426.31 1254.94L425.30 1252.95L423.63 1252.95L421.66 1251.48L420.63 1250.32L418.24 1249.07L414.94 1247.70L413.53 1246.95L411.59 1246.33L409.76 1245.83L408.29 1245.30L406.16 1244.74L403.86 1243.73L403.32 1242.33L403.72 1240.88L404.27 1239.50L405.38 1237.22L406.76 1235.62L407.20 1234.12L407.51 1232.05L407.62 1229.68L407.47 1227.24L407.57 1224.41L407.77 1222.49L407.97 1220.57L408.25 1218.17L408.47 1214.90L408.66 1213.36L408.85 1211.81L409.30 1209.02L410.20 1205.46L408.14 1204.87L406.68 1204.45L404.38 1203.48L401.97 1201.32L401.94 1198.60L401.72 1195.90L401.57 1194.35L401.18 1192.18L400.67 1189.97L399.37 1187.74L397.45 1184.89L395.91 1182.00L396.80 1177.89L397.27 1174.53L397.84 1170.79L396.32 1166.43L395.84 1165.00L395.70 1163.17L395.55 1161.05L396.65 1159.37L398.85 1156.47L397.65 1153.50L391.67 1141.88L390.15 1136.86L388.03 1133.95L383.89 1133.28L382.22 1132.82L380.45 1132.49L378.23 1131.97L375.84 1130.15L357.83 1120.15Z" data-ward="10" /><path id="ward-7" class="ward" d="M465.92 1069.50L464.02 1068.42L462.12 1067.34L460.68 1066.55L459.18 1065.69L457.56 1066.30L457.34 1070.02L455.60 1072.60L453.88 1075.15L452.76 1077.75L451.36 1081.07L449.81 1084.74L447.54 1086.15L445.07 1087.64L445.17 1089.98L445.63 1093.13L445.71 1095.80L445.40 1097.28L444.91 1099.13L446.42 1100.05L448.90 1101.59L451.62 1103.49L454.67 1104.12L459.29 1103.88L464.44 1104.74L467.03 1105.51L472.77 1107.09L477.02 1109.38L475.21 1111.46L474.29 1114.02L472.81 1116.82L472.22 1118.50L472.09 1121.13L473.78 1124.30L484.99 1142.74L487.64 1144.96L492.43 1148.90L492.48 1151.26L492.56 1155.45L493.36 1159.02L496.10 1157.99L499.41 1156.81L500.28 1158.56L500.86 1161.50L497.97 1162.81L494.85 1163.82L492.73 1164.50L491.98 1165.81L493.88 1167.64L494.49 1170.67L494.38 1172.34L494.27 1174.07L492.01 1174.09L490.04 1173.61L488.18 1173.43L486.92 1174.88L484.60 1176.47L482.89 1177.20L481.40 1178.24L479.92 1179.29L477.38 1179.36L475.67 1179.52L474.12 1179.87L472.00 1181.13L470.71 1181.96L469.07 1183.16L465.65 1182.28L462.28 1183.36L460.93 1178.83L459.42 1179.22L457.13 1179.04L454.69 1178.16L453.00 1179.84L452.04 1181.54L451.81 1185.56L451.83 1187.87L451.86 1190.14L451.50 1192.82L448.79 1197.77L446.93 1203.20L443.40 1204.94L440.83 1206.20L438.28 1207.37L436.74 1208.03L435.01 1208.78L432.57 1209.32L429.20 1209.91L426.85 1210.30L421.13 1209.13L415.35 1207.28L413.84 1206.75L410.20 1205.46L409.30 1209.02L408.85 1211.81L408.66 1213.36L408.47 1214.90L408.25 1218.17L407.97 1220.57L407.77 1222.49L407.57 1224.41L407.47 1227.24L407.62 1229.68L407.51 1232.05L407.20 1234.12L406.76 1235.62L405.38 1237.22L404.27 1239.50L406.42 1239.18L408.49 1239.36L410.79 1240.27L413.20 1240.94L415.32 1241.07L417.01 1241.02L418.05 1239.08L418.32 1237.48L419.47 1235.95L420.97 1236.07L422.61 1236.12L424.74 1236.13L426.53 1235.62L428.26 1235.13L430.92 1235.04L432.17 1233.19L433.38 1229.91L434.19 1227.91L436.45 1227.67L439.39 1227.30L440.72 1226.55L443.40 1225.54L444.85 1225.23L446.07 1223.90L447.63 1223.85L451.24 1225.25L452.94 1225.84L456.24 1226.89L458.11 1227.38L460.68 1227.75L462.73 1227.47L467.35 1225.31L471.43 1220.30L472.76 1218.64L480.28 1208.78L493.48 1198.27L512.21 1190.96L540.06 1185.56L564.84 1182.71L591.49 1179.71L595.85 1178.72L634.98 1169.05L647.86 1180.19L650.93 1180.63L652.61 1181.30L653.87 1182.14L656.01 1183.86L660.03 1183.78L660.78 1182.10L661.55 1180.39L663.00 1180.77L664.47 1181.15L664.83 1178.80L665.10 1177.07L666.15 1175.52L667.24 1173.91L669.28 1172.59L670.79 1172.23L672.49 1171.82L673.43 1170.14L675.08 1167.92L676.28 1166.33L677.40 1164.85L678.81 1162.99L678.01 1159.64L677.08 1157.81L677.16 1154.67L677.23 1152.34L675.87 1150.48L674.51 1148.63L673.06 1147.53L671.33 1146.21L669.20 1144.85L667.53 1144.25L665.15 1143.40L661.22 1142.36L659.65 1141.92L656.29 1140.98L654.76 1139.12L653.50 1137.30L650.56 1133.04L649.44 1131.43L648.18 1129.05L647.32 1127.44L648.09 1125.88L648.44 1122.29L647.95 1119.19L647.69 1117.52L646.45 1116.66L644.66 1115.22L643.54 1116.30L642.38 1117.43L641.21 1118.56L639.03 1120.25L636.52 1121.94L634.46 1122.04L632.42 1122.13L629.78 1122.25L627.67 1122.35L625.06 1122.47L622.68 1122.58L620.70 1122.68L618.93 1122.73L616.65 1122.77L614.51 1122.80L612.75 1122.83L610.67 1122.87L608.91 1122.90L601.47 1123.04L594.04 1123.18L582.46 1123.41L577.75 1118.47L566.03 1106.11L554.59 1094.03L547.34 1086.38L538.93 1082.47L532.93 1079.68L517.89 1075.56L502.91 1071.46L488.19 1068.40L480.53 1066.82L477.51 1065.87L474.14 1066.58L470.58 1068.33L468.38 1070.95L465.92 1069.50Z" data-ward="7" /><path id="ward-1" class="ward" d="M763.25 2.39L761.13 0.90L759.86 0.00L758.16 0.41L756.87 1.16L755.36 2.03L753.00 2.30L750.62 2.57L746.16 3.28L741.58 2.56L738.84 4.31L735.85 4.21L734.02 5.59L732.07 7.76L731.38 9.71L730.60 12.52L729.14 13.25L727.16 12.73L723.48 12.60L721.56 14.09L719.81 16.46L717.63 16.11L716.39 14.22L715.39 12.71L715.95 11.08L716.33 6.96L716.37 4.86L710.22 5.58L706.12 6.06L706.23 8.05L706.33 9.75L706.47 12.23L706.68 15.05L706.82 16.77L706.95 18.57L708.88 24.69L709.76 27.48L709.87 29.62L710.05 33.13L710.26 37.05L710.49 41.52L710.74 46.29L711.28 48.69L712.15 52.55L713.20 57.20L715.50 59.30L715.44 61.59L714.88 63.15L714.16 64.56L713.32 66.54L712.70 68.30L711.92 70.00L711.33 71.38L710.53 72.91L709.63 74.56L708.67 75.99L707.37 77.89L706.42 79.41L704.18 80.60L702.77 81.43L700.54 82.65L698.69 83.37L696.65 83.97L698.25 87.48L699.69 89.74L703.34 93.64L702.04 95.01L700.24 96.68L701.37 97.87L702.84 98.68L704.22 99.36L706.87 100.58L708.64 102.37L710.12 104.44L710.85 105.80L710.98 107.81L711.13 109.44L710.97 111.69L710.40 113.39L711.15 115.49L711.98 117.10L712.85 118.93L713.14 120.74L713.21 122.83L712.81 125.12L713.98 128.65L717.47 133.45L718.19 135.32L720.38 137.96L722.40 142.40L724.28 148.23L724.62 154.16L724.99 158.31L725.20 161.54L725.01 163.58L726.87 169.66L728.16 173.64L729.68 177.89L732.07 185.18L733.14 191.29L740.31 198.16L740.52 202.39L741.36 204.62L740.38 207.95L740.53 210.08L740.40 212.53L740.14 214.70L739.82 216.39L739.70 218.94L738.94 221.22L738.01 224.11L736.33 228.36L737.21 231.20L728.75 237.96L728.44 239.48L727.71 242.44L726.70 243.64L725.77 244.91L724.41 245.99L722.62 247.76L721.11 249.04L719.68 250.16L718.41 251.20L716.94 252.36L715.64 253.40L714.32 254.56L712.90 255.84L711.78 256.82L710.51 258.00L709.42 259.17L708.33 260.55L707.09 262.12L706.00 263.49L704.95 264.82L704.01 266.01L702.90 267.39L701.98 268.57L699.54 271.65L697.77 273.83L696.18 275.93L694.80 277.59L693.75 278.91L692.26 280.75L691.14 282.12L688.09 289.21L684.53 291.84L682.91 291.99L681.00 294.23L679.29 295.74L677.18 297.46L674.60 298.47L672.72 298.85L670.39 299.09L668.81 299.32L667.01 299.58L665.53 300.33L659.53 298.19L655.60 297.29L652.17 296.30L649.34 296.33L646.02 296.69L643.15 296.88L641.08 296.47L638.82 296.02L635.28 295.07L633.17 295.05L631.04 295.51L629.07 296.13L626.89 296.15L625.36 295.14L624.45 293.94L623.54 292.47L622.13 290.09L621.31 288.75L619.75 287.02L617.68 286.88L615.21 287.61L613.71 288.17L611.59 289.22L610.15 289.64L608.47 289.63L606.71 289.59L604.82 289.75L603.03 290.64L601.03 292.03L599.83 293.33L599.15 294.67L598.62 296.48L598.43 298.23L597.73 300.04L597.01 301.75L596.04 303.46L595.86 305.53L595.84 307.22L595.88 309.24L595.56 311.11L595.18 312.68L594.74 314.35L594.27 315.87L593.62 317.66L592.64 320.04L591.62 322.18L591.16 323.79L590.42 325.83L588.56 327.40L586.81 327.75L585.38 327.30L584.19 326.33L583.00 325.18L581.45 324.25L579.88 324.26L578.41 324.87L577.66 326.49L577.05 327.83L576.16 329.32L574.70 330.48L572.96 330.51L571.10 330.48L569.57 329.64L567.92 328.50L565.97 327.29L563.66 326.21L561.53 325.34L560.10 324.85L558.48 324.14L556.75 323.69L554.69 324.03L553.00 325.15L550.55 326.48L549.64 328.12L548.21 330.70L546.47 331.38L544.97 330.49L542.51 329.79L540.59 329.63L538.58 329.44L536.62 329.27L534.85 329.53L533.23 329.53L531.37 328.39L530.30 327.16L527.65 325.94L524.80 325.32L522.03 326.03L520.70 327.63L519.99 329.20L518.52 329.72L516.72 330.26L514.60 330.67L513.01 331.10L511.49 331.72L509.51 331.99L507.56 332.70L505.99 333.23L504.36 333.95L502.60 334.77L500.49 335.74L498.53 336.55L497.09 337.13L495.32 337.40L493.60 338.00L491.83 338.90L490.65 339.81L489.16 341.13L487.70 341.74L486.08 342.45L484.48 342.48L482.28 342.85L480.89 343.82L479.39 344.47L477.79 344.66L476.11 345.24L474.58 345.22L473.02 344.42L472.54 342.98L472.07 341.55L471.57 339.95L470.89 338.10L470.23 336.05L469.51 333.96L468.58 332.48L467.50 331.01L466.19 329.18L465.30 327.95L463.80 327.60L461.67 327.25L460.18 327.50L458.30 327.96L456.28 328.45L454.26 328.98L451.69 329.60L449.43 330.27L445.28 331.42L443.38 332.16L441.07 333.07L438.62 333.98L436.56 334.77L434.56 335.10L432.17 335.49L429.82 335.87L427.14 336.35L425.11 336.69L423.60 336.95L421.98 338.03L418.80 340.16L416.63 340.44L413.81 340.82L412.06 341.90L409.76 343.27L406.89 344.99L405.15 346.33L402.78 348.23L400.49 349.94L397.89 351.96L395.24 354.01L392.69 356.03L389.83 358.25L388.40 359.70L384.96 363.14L380.65 366.38L379.84 368.32L380.43 369.87L381.19 371.80L382.07 373.95L382.89 375.70L389.48 390.65L390.97 394.04L388.47 398.04L382.22 402.83L375.80 408.42L370.49 412.87L363.89 418.04L356.52 423.52L349.48 428.59L342.05 433.53L338.59 436.75L332.12 442.48L326.04 447.82L318.74 453.73L309.67 457.15L306.34 458.43L304.30 459.46L302.63 460.55L299.91 463.13L298.76 464.67L297.62 466.81L296.27 465.94L294.19 464.71L293.16 465.79L292.10 467.25L283.32 476.26L278.68 479.06L276.31 480.89L272.79 486.12L270.04 487.87L267.43 491.09L263.33 493.66L257.90 496.48L253.81 498.20L249.48 499.98L245.31 501.63L242.11 503.46L240.09 504.60L241.52 506.28L239.60 508.63L237.18 511.09L235.66 513.71L235.52 515.93L235.09 517.98L234.61 521.32L235.38 523.20L237.04 524.08L238.88 524.55L241.71 525.73L243.64 526.19L245.12 526.77L246.70 527.36L248.75 528.05L250.98 528.64L252.60 528.41L254.94 526.59L256.51 525.81L259.79 526.16L261.58 526.80L263.21 527.48L265.08 528.32L266.77 529.14L268.37 529.92L270.40 530.38L272.83 530.86L275.26 530.54L276.88 530.18L279.42 529.48L282.46 528.28L284.18 528.53L285.66 528.88L288.16 529.48L290.80 530.74L293.34 532.07L294.45 533.11L296.10 534.82L297.46 536.24L299.28 538.05L300.73 539.48L302.46 541.17L304.79 543.42L306.64 544.56L308.50 545.12L310.26 544.58L311.38 543.22L312.78 541.33L314.00 539.35L315.03 536.97L316.00 534.31L316.43 531.94L316.46 530.18L316.44 527.50L318.21 526.67L321.28 525.64L324.49 524.73L326.57 524.79L329.10 525.08L332.35 525.79L334.38 526.23L336.80 525.90L338.48 525.52L340.76 523.40L341.79 522.23L343.14 520.54L343.90 518.10L344.68 515.09L346.06 513.19L348.07 511.65L349.65 510.54L351.03 509.57L352.13 507.91L353.50 505.88L354.58 503.96L355.25 501.89L355.62 499.62L355.41 496.23L355.14 494.40L355.30 492.42L356.60 489.86L358.24 489.38L359.90 488.76L362.97 487.07L365.41 485.77L367.20 484.81L368.57 482.60L368.89 480.20L370.66 479.22L372.66 479.72L374.67 480.22L378.87 481.61L381.79 482.68L384.71 483.74L387.49 484.79L394.32 486.64L398.98 487.91L407.80 490.30L413.56 491.86L420.58 493.45L428.04 495.07L434.24 496.42L438.02 497.24L441.43 498.12L443.38 500.19L445.79 502.90L448.39 505.82L451.20 508.99L453.20 511.23L455.32 513.61L457.54 515.68L461.47 517.11L464.00 518.02L467.01 519.11L470.96 520.54L473.89 521.60L476.99 522.71L478.85 523.39L481.74 523.35L485.51 523.27L489.28 523.19L494.35 523.08L500.05 523.06L501.45 521.81L502.74 520.91L504.04 520.11L506.45 519.02L508.58 518.16L510.39 517.40L511.87 516.81L514.40 516.10L517.20 515.06L520.23 513.80L522.01 512.67L524.66 511.01L527.76 509.06L530.68 507.50L534.25 506.64L537.49 506.14L540.02 505.64L545.51 504.99L547.40 504.49L549.83 503.40L551.30 502.06L555.11 499.55L558.34 497.53L561.51 494.63L565.86 490.57L569.89 486.17L573.29 481.85L576.28 477.95L579.21 473.95L582.90 470.29L584.05 469.32L588.15 467.23L591.43 465.49L594.54 463.85L597.24 462.71L600.83 461.03L604.49 459.61L608.32 458.79L612.40 457.98L617.87 456.89L623.08 455.98L626.88 455.47L631.70 455.02L635.06 454.57L637.39 454.41L640.65 453.93L642.23 453.59L644.39 452.85L645.96 452.08L647.73 451.17L649.48 450.21L651.16 449.33L652.97 448.33L655.11 447.13L656.84 446.05L658.54 445.04L660.26 443.98L664.31 441.39L667.68 439.10L670.32 436.41L673.22 433.54L675.08 431.60L677.03 428.38L678.18 426.77L678.64 424.77L679.33 422.29L679.92 420.13L680.25 418.07L681.28 412.74L681.95 409.28L682.52 406.42L683.43 403.43L685.72 402.01L687.59 404.05L688.90 405.71L690.03 407.14L691.14 408.50L692.31 410.01L693.47 411.26L694.56 412.45L695.82 413.66L697.43 414.65L699.18 415.60L701.21 416.75L702.93 417.53L704.55 418.28L706.19 418.99L707.90 419.64L709.90 420.51L711.63 421.16L713.22 421.88L714.90 422.47L716.40 423.00L718.62 423.84L720.56 424.47L722.30 425.14L723.87 425.74L725.34 426.36L726.89 427.06L728.59 427.86L730.01 428.44L731.75 429.22L733.61 430.16L735.32 430.98L737.57 432.05L739.57 433.03L741.60 433.96L743.48 434.81L745.23 435.63L746.81 436.34L748.38 437.20L750.23 438.29L751.58 439.12L753.58 440.28L754.99 441.10L756.60 441.98L758.11 443.29L759.05 444.47L759.93 446.07L760.50 448.01L761.03 450.02L761.48 451.82L761.99 453.92L762.62 456.04L763.33 458.49L764.05 460.84L764.50 462.27L765.26 464.56L766.00 467.03L766.52 468.64L767.36 470.79L768.36 472.70L769.66 474.09L770.85 475.38L772.02 476.55L773.71 478.21L775.04 479.48L776.30 480.64L777.65 481.91L779.40 483.27L780.86 484.54L782.06 485.71L783.30 487.49L784.57 489.49L785.32 490.90L786.12 492.99L786.81 494.86L787.51 496.33L788.25 497.71L789.13 499.20L790.47 500.82L791.56 502.15L792.86 503.35L794.69 504.92L796.57 506.65L798.47 508.51L800.49 510.41L802.33 511.93L804.30 513.52L806.48 515.15L808.77 516.71L810.91 518.28L813.02 519.56L815.68 521.07L816.96 522.07L818.42 522.53L831.32 527.27L835.26 528.25L836.91 528.43L839.07 528.85L840.77 529.31L842.95 529.85L844.38 530.30L847.62 531.32L849.76 531.48L851.48 532.22L853.14 532.75L855.41 533.27L857.82 534.00L860.25 534.69L861.78 535.02L863.41 535.22L865.67 535.92L868.60 536.72L871.46 537.11L873.93 537.61L878.27 538.34L882.54 538.73L887.14 539.23L891.89 540.37L895.26 540.94L899.11 541.81L902.38 542.23L904.68 542.24L906.85 542.25L908.39 542.09L910.00 542.04L912.12 541.56L914.08 540.99L914.31 536.19L915.27 516.03L915.88 503.33L917.04 495.86L917.24 492.23L918.42 486.89L913.80 485.07L902.68 480.69L891.00 472.28L882.06 446.26L875.22 436.94L873.89 435.13L870.72 431.03L879.58 405.97L883.90 393.74L887.09 384.73L886.80 382.07L888.11 380.75L889.10 379.58L890.09 378.40L891.35 376.91L893.01 374.94L893.96 373.30L894.73 371.98L895.61 370.46L896.37 369.13L896.77 367.62L897.26 365.80L897.87 363.50L897.08 360.93L896.28 355.94L895.29 354.58L892.83 351.19L890.90 349.31L888.93 347.39L887.84 345.96L886.47 344.68L884.11 342.50L881.07 339.36L878.76 338.76L877.22 338.36L874.32 337.57L871.39 336.77L869.65 335.91L867.22 335.12L863.04 333.75L860.68 332.98L858.79 332.35L855.29 331.19L852.74 329.69L850.46 328.34L849.09 327.53L847.30 325.11L846.05 323.43L844.92 321.92L844.26 319.82L845.35 312.47L845.87 311.06L847.21 308.34L848.84 305.66L850.35 303.70L851.92 301.65L857.59 296.16L860.53 293.12L865.26 291.19L867.15 289.04L868.98 286.95L870.72 284.97L872.61 282.82L873.68 281.60L876.12 279.58L878.05 277.98L880.04 276.33L882.14 245.21L882.11 230.88L882.11 229.21L872.35 212.93L869.35 208.46L867.40 204.24L864.29 198.41L862.51 195.07L857.82 186.29L856.69 184.17L851.33 174.14L848.51 169.64L842.80 160.55L838.78 159.02L836.27 158.06L834.64 157.44L833.16 156.87L830.42 155.83L827.86 154.92L822.92 149.91L818.93 146.77L816.52 143.68L814.75 141.40L813.79 140.18L812.55 138.59L810.29 136.41L808.79 134.96L807.28 133.51L803.04 132.75L801.18 132.31L799.65 131.95L797.03 129.78L795.41 127.66L794.59 125.83L794.19 123.17L794.12 121.04L794.07 119.55L794.39 116.21L794.06 114.25L793.66 111.90L794.86 108.93L795.75 106.71L797.66 103.80L798.34 102.45L799.12 100.89L799.09 98.87L799.05 96.79L795.07 94.67L791.95 93.00L789.76 89.11L788.68 85.96L788.64 84.38L786.89 82.69L784.17 81.98L782.51 81.55L781.41 80.38L780.47 77.53L780.48 74.82L780.50 72.12L779.79 69.38L778.08 66.90L776.54 65.72L774.40 64.71L764.78 54.07L766.34 45.31L769.53 39.01L772.28 31.46L771.95 30.01L771.01 28.67L769.56 26.59L768.58 25.19L768.39 23.64L768.08 21.11L767.46 16.03L767.63 14.41L767.95 11.28L768.27 8.20L767.61 5.44L767.23 3.84L763.25 2.39Z" data-ward="1" /></svg>