<svg viewBox="0 0 1000.00 450.66" xmlns="http://www.w3.org/2000/svg"><style>.ward { fill: #e2e8f0; stroke: #fff; stroke-width: 0.5px; } .ward:hover { fill: #cbd5e1; }</style><path id="ward-7" class="ward" d="M147.32 351.73L146.80 351.70L146.16 351.51L145.02 351.14L143.95 350.79L143.42 350.62L142.50 350.32L141.96 350.08L141.81 350.68L141.77 351.57L141.86 353.35L141.86 354.28L141.94 355.16L142.01 356.04L141.79 357.16L141.81 358.07L141.78 358.75L141.80 359.55L141.51 360.31L141.17 360.92L140.79 361.55L140.41 362.71L140.36 363.25L140.33 363.91L140.43 365.03L140.45 365.82L140.39 366.48L140.28 368.09L140.14 368.81L139.93 369.56L139.60 370.27L138.83 371.01L138.45 371.69L138.32 372.40L138.83 372.83L139.35 373.44L139.91 374.06L140.93 374.06L141.53 374.04L141.53 374.70L141.56 375.49L142.01 376.16L141.94 376.80L141.74 377.29L141.41 377.80L141.27 378.32L141.30 378.95L141.41 379.71L141.53 380.24L141.83 381.10L142.02 381.60L142.48 382.10L142.85 382.53L142.68 383.22L142.43 384.14L142.30 384.66L142.19 385.28L142.13 385.92L141.74 386.30L141.17 387.17L141.02 387.92L140.78 388.69L140.71 389.28L140.69 389.89L140.96 390.85L141.05 391.62L141.03 392.37L140.88 393.10L140.82 393.81L140.90 394.37L140.84 395.03L140.49 397.45L139.97 398.63L139.91 399.62L139.74 400.38L139.64 400.93L139.17 401.73L138.78 402.32L139.08 402.76L139.43 403.38L139.33 403.96L139.89 404.67L140.43 405.18L140.89 405.61L141.46 405.92L142.17 405.80L142.64 406.32L143.26 406.75L143.89 407.22L144.23 407.84L144.75 408.19L145.65 408.62L145.95 408.14L146.34 407.74L147.05 407.11L147.66 406.72L148.45 406.37L149.29 406.09L149.80 405.91L150.48 405.87L151.50 405.58L152.36 405.47L153.27 405.15L154.00 404.95L155.04 404.69L155.54 404.42L155.15 404.01L155.10 403.25L155.11 402.65L155.07 401.97L154.91 401.29L155.02 400.35L155.01 399.65L154.88 398.79L154.78 398.18L154.67 397.64L154.60 396.56L154.43 395.60L154.31 394.98L153.97 393.55L153.94 392.36L154.18 390.93L154.15 390.34L154.00 389.71L154.01 389.06L154.25 388.16L154.53 387.47L154.86 387.06L155.19 386.26L155.24 385.45L155.17 384.80L155.01 384.27L154.40 383.98L154.28 383.34L154.28 382.80L154.62 381.84L154.88 381.07L155.40 380.29L155.75 379.83L156.21 379.32L156.57 378.88L156.91 378.44L157.48 377.80L157.84 377.38L158.54 376.78L159.06 376.66L159.68 376.65L160.34 376.73L161.33 376.86L161.92 376.16L161.84 375.62L161.66 375.03L161.52 372.99L161.63 371.17L161.79 370.10L161.95 369.08L162.48 367.99L162.88 367.06L163.01 366.21L163.06 365.29L162.98 363.78L162.63 363.25L162.15 363.55L161.53 364.21L161.14 364.59L160.53 365.05L159.89 365.41L159.31 365.42L158.71 365.36L158.14 365.22L156.81 364.82L155.81 364.41L154.40 364.02L153.55 363.84L152.82 363.58L152.29 363.16L151.87 362.77L151.45 362.36L151.03 361.99L150.29 361.32L149.96 360.86L149.62 360.33L149.46 359.49L149.35 358.88L149.25 358.32L149.09 357.56L148.92 356.77L148.79 355.82L149.13 354.77L149.53 353.70L150.23 352.23L149.66 351.67L148.70 351.76L148.18 351.77L147.32 351.73Z" data-ward="7" /><path id="ward-13" class="ward" d="M78.19 352.41L77.55 352.26L76.49 352.39L75.73 352.54L74.47 352.80L73.50 353.00L72.97 353.09L72.42 353.16L71.51 353.15L70.67 353.54L69.13 354.20L68.50 354.96L67.02 356.80L65.85 358.25L64.51 359.30L63.80 359.68L62.75 360.24L60.88 361.23L59.88 361.76L59.15 361.88L58.19 362.03L56.97 361.97L55.48 361.83L53.95 361.40L52.93 361.29L52.97 361.90L53.02 362.80L53.01 363.41L52.43 364.62L52.17 365.34L52.01 365.90L51.79 366.67L52.72 367.24L52.27 368.49L52.05 369.09L53.04 369.75L54.47 370.68L55.66 370.72L56.29 370.47L56.42 369.68L60.84 370.46L63.92 370.85L65.96 371.47L66.51 371.10L69.13 373.15L69.61 372.96L70.02 372.22L70.40 370.71L70.51 370.16L70.64 369.20L70.92 368.56L71.41 367.68L71.72 367.20L72.10 367.58L72.70 367.99L73.42 368.41L74.38 368.61L75.23 368.65L75.98 368.73L76.49 368.91L77.19 369.31L77.18 369.84L77.46 370.81L77.40 371.37L76.78 374.20L76.44 375.12L76.27 375.90L76.20 376.44L76.09 377.07L76.36 377.90L76.49 379.19L75.78 380.46L75.13 381.29L74.75 382.05L74.62 383.10L74.58 384.39L74.30 384.91L74.06 385.57L73.91 386.09L73.85 386.74L74.39 387.00L75.27 387.29L76.82 387.52L77.83 386.88L78.60 386.38L79.17 385.92L81.08 384.53L82.98 383.14L83.41 382.83L83.95 382.43L86.10 380.71L88.31 380.10L89.66 380.41L91.82 381.25L93.35 381.37L92.65 380.77L90.97 379.33L89.50 378.26L88.50 377.12L87.95 376.46L87.75 375.88L87.58 375.39L87.26 374.67L87.24 374.15L87.55 372.40L87.80 371.69L88.17 370.12L89.06 368.60L89.73 368.27L90.76 367.84L91.30 367.76L92.49 367.86L93.63 367.97L94.20 368.03L95.26 367.75L96.25 367.76L97.30 368.05L97.96 367.92L98.86 367.68L99.37 367.45L100.38 366.13L100.79 365.41L101.01 364.90L101.35 364.14L101.23 362.80L101.38 362.25L101.68 361.13L101.53 360.55L100.69 360.81L99.86 360.94L99.31 360.92L98.61 360.90L95.76 360.68L94.24 360.43L93.22 360.13L91.97 359.35L88.58 356.72L87.98 356.25L87.22 355.65L86.43 355.22L85.88 355.67L85.04 356.23L83.87 356.98L82.97 356.43L82.53 356.11L81.41 355.45L80.48 354.90L79.74 353.98L79.27 353.20L78.19 352.41Z" data-ward="13" /><path id="ward-11" class="ward" d="M138.14 349.86L136.46 349.32L135.60 348.96L134.99 348.82L134.11 348.62L133.19 348.27L132.59 348.20L131.85 348.00L131.24 347.86L130.43 347.83L129.80 347.98L129.13 348.19L128.05 348.64L127.55 348.80L127.01 348.98L126.42 349.21L125.67 349.59L124.35 350.34L123.35 350.90L122.71 351.26L121.81 351.76L121.09 352.17L120.42 352.54L119.83 352.83L119.33 353.07L118.78 353.34L117.58 353.99L117.09 354.26L116.59 354.53L115.99 354.86L115.19 355.30L114.43 355.68L114.48 356.76L113.88 358.17L113.07 359.57L112.23 360.92L111.49 362.27L111.24 362.87L111.12 363.38L111.18 363.90L111.38 364.42L111.92 365.26L112.30 365.86L112.40 366.99L113.87 366.81L114.50 366.73L115.68 366.86L116.63 367.14L117.34 367.18L118.08 367.26L118.61 367.15L119.28 366.96L119.84 366.84L120.42 366.67L120.99 366.54L121.58 366.46L122.08 366.38L122.58 366.21L123.16 366.07L123.69 366.04L124.21 366.02L124.83 365.82L125.37 365.65L125.78 365.28L126.35 364.84L126.87 364.64L127.35 364.44L127.88 364.22L128.41 364.03L129.04 363.71L129.81 363.30L130.37 363.13L131.09 362.97L131.33 363.79L132.37 364.44L132.03 364.92L131.60 366.07L131.41 367.41L131.50 368.62L132.02 368.86L132.72 368.98L132.73 369.64L132.65 370.33L132.68 371.32L132.70 371.90L134.79 371.75L135.41 371.74L136.58 372.15L138.32 372.40L138.45 371.69L138.83 371.01L139.60 370.27L139.93 369.56L140.14 368.81L140.28 368.09L140.39 366.48L140.45 365.82L140.43 365.03L140.33 363.91L140.36 363.25L140.41 362.71L140.79 361.55L141.17 360.92L141.51 360.31L141.80 359.55L141.78 358.75L141.81 358.07L141.79 357.16L142.01 356.04L141.94 355.16L141.86 354.28L141.86 353.35L141.77 351.57L141.81 350.68L141.96 350.08L141.23 349.90L140.39 349.88L139.77 349.88L139.09 349.89L138.14 349.86Z" data-ward="11" /><path id="ward-10" class="ward" d="M131.60 366.07L132.03 364.92L132.37 364.44L131.33 363.79L131.09 362.97L130.37 363.13L129.81 363.30L129.04 363.71L128.41 364.03L127.88 364.22L127.35 364.44L126.87 364.64L126.35 364.84L125.78 365.28L125.37 365.65L124.83 365.82L124.21 366.02L123.69 366.04L123.16 366.07L122.58 366.21L122.08 366.38L121.58 366.46L120.99 366.54L120.42 366.67L119.84 366.84L119.28 366.96L118.61 367.15L118.08 367.26L117.34 367.18L116.63 367.14L115.68 366.86L114.50 366.73L113.87 366.81L112.40 366.99L112.53 369.31L112.67 370.13L114.05 370.46L114.71 370.74L115.07 371.11L115.38 372.07L116.12 372.84L116.89 373.62L117.32 374.47L117.18 376.38L116.98 377.21L117.07 377.77L117.18 378.29L117.63 379.52L118.30 381.41L118.48 381.92L118.82 382.92L119.01 383.49L119.31 384.35L119.94 385.81L120.46 386.89L120.80 387.30L121.67 387.88L122.32 388.10L123.07 388.55L124.18 389.36L125.24 389.90L125.72 390.20L127.00 390.31L127.85 390.41L128.61 390.44L129.42 390.56L130.14 390.88L130.65 391.10L131.23 391.32L132.32 391.69L133.90 392.28L135.63 392.75L136.22 393.05L137.14 393.33L138.66 393.56L139.94 393.90L140.82 393.81L140.88 393.10L141.03 392.37L141.05 391.62L140.96 390.85L140.69 389.89L140.71 389.28L140.78 388.69L141.02 387.92L141.17 387.17L141.74 386.30L142.13 385.92L142.19 385.28L142.30 384.66L142.43 384.14L142.68 383.22L142.85 382.53L142.48 382.10L142.02 381.60L141.83 381.10L141.53 380.24L141.41 379.71L141.30 378.95L141.27 378.32L141.41 377.80L141.74 377.29L141.94 376.80L142.01 376.16L141.56 375.49L141.53 374.70L141.53 374.04L140.93 374.06L139.91 374.06L139.35 373.44L138.83 372.83L138.32 372.40L136.58 372.15L135.41 371.74L134.79 371.75L132.70 371.90L132.68 371.32L132.65 370.33L132.73 369.64L132.72 368.98L132.02 368.86L131.50 368.62L131.41 367.41L131.60 366.07Z" data-ward="10" /><path id="ward-12" class="ward" d="M112.40 366.99L112.30 365.86L111.92 365.26L111.38 364.42L111.18 363.90L111.12 363.38L111.24 362.87L111.49 362.27L112.23 360.92L113.07 359.57L113.88 358.17L114.48 356.76L114.43 355.68L113.08 356.32L110.76 357.16L108.97 357.79L106.51 358.67L105.67 359.00L104.10 359.56L103.06 359.97L102.04 360.34L101.53 360.55L101.68 361.13L101.38 362.25L101.23 362.80L101.35 364.14L101.01 364.90L100.79 365.41L100.38 366.13L99.37 367.45L98.86 367.68L97.96 367.92L97.30 368.05L96.25 367.76L95.26 367.75L94.20 368.03L93.63 367.97L92.49 367.86L91.30 367.76L90.76 367.84L89.73 368.27L89.06 368.60L88.17 370.12L87.80 371.69L87.55 372.40L87.24 374.15L87.26 374.67L87.58 375.39L87.75 375.88L87.95 376.46L88.50 377.12L89.50 378.26L90.97 379.33L92.65 380.77L93.35 381.37L93.89 381.77L94.16 382.58L94.29 383.36L94.40 383.98L94.66 384.94L95.13 385.34L95.58 385.74L96.02 386.12L96.53 386.57L98.51 388.14L99.53 388.80L100.41 389.36L101.18 390.11L101.76 390.18L102.51 390.92L102.92 391.72L103.39 392.78L103.81 393.42L104.55 394.10L104.93 394.86L105.23 395.97L105.08 397.01L104.87 398.11L104.54 400.64L104.96 402.56L106.48 402.62L107.09 402.65L107.59 402.26L108.26 401.91L109.12 401.79L109.83 401.79L110.45 401.67L111.64 401.45L113.16 400.95L114.14 400.47L115.49 399.03L116.31 397.80L116.91 396.62L117.94 396.23L118.62 396.26L119.20 396.39L120.98 395.24L122.79 393.53L122.99 392.86L123.12 392.30L123.28 391.43L123.09 390.56L122.50 389.47L121.85 388.69L121.67 387.88L120.80 387.30L120.46 386.89L119.94 385.81L119.31 384.35L119.01 383.49L118.82 382.92L118.48 381.92L118.30 381.41L117.63 379.52L117.18 378.29L117.07 377.77L116.98 377.21L117.18 376.38L117.32 374.47L116.89 373.62L116.12 372.84L115.38 372.07L115.07 371.11L114.71 370.74L114.05 370.46L112.67 370.13L112.53 369.31L112.40 366.99Z" data-ward="12" /><path id="ward-4" class="ward" d="M142.76 347.16L141.08 345.33L143.48 341.08L144.29 338.06L144.35 334.53L143.60 331.96L143.02 329.61L142.72 328.42L142.38 327.91L141.97 327.29L141.59 326.72L141.03 325.79L140.15 324.57L138.78 323.47L137.65 323.43L137.54 324.19L137.38 324.77L137.21 325.40L137.10 325.94L136.98 326.50L136.85 327.12L136.57 327.90L136.39 328.41L136.09 329.35L135.83 330.30L135.68 330.87L135.41 331.87L135.15 332.84L134.84 333.53L134.51 333.96L134.03 334.28L133.20 334.41L132.64 334.55L131.97 334.67L131.45 334.95L130.95 335.27L130.38 335.88L130.06 336.61L129.86 337.13L129.60 337.82L129.45 338.50L129.31 339.16L129.17 339.76L128.94 340.57L128.72 341.18L128.42 341.88L128.08 342.77L127.88 343.54L127.71 344.31L127.62 344.89L127.53 345.46L127.45 346.02L127.33 346.75L127.32 347.76L127.55 348.80L128.05 348.64L129.13 348.19L129.80 347.98L130.43 347.83L131.24 347.86L131.85 348.00L132.59 348.20L133.19 348.27L134.11 348.62L134.99 348.82L135.60 348.96L136.46 349.32L138.14 349.86L139.09 349.89L139.77 349.88L140.39 349.88L141.23 349.90L141.96 350.08L142.50 350.32L143.42 350.62L143.95 350.79L145.02 351.14L146.16 351.51L146.80 351.70L147.32 351.73L148.18 351.77L148.70 351.76L149.66 351.67L150.23 352.23L149.53 353.70L149.13 354.77L148.79 355.82L148.92 356.77L149.09 357.56L149.25 358.32L149.35 358.88L149.46 359.49L149.62 360.33L149.96 360.86L150.29 361.32L151.03 361.99L151.45 362.36L151.87 362.77L152.29 363.16L152.82 363.58L153.55 363.84L154.40 364.02L155.81 364.41L156.81 364.82L158.14 365.22L158.71 365.36L159.31 365.42L159.89 365.41L160.53 365.05L161.14 364.59L161.53 364.21L162.15 363.55L162.63 363.25L163.02 362.87L163.34 362.35L163.64 361.82L164.02 361.33L164.30 360.88L164.81 360.36L165.34 360.08L166.04 359.62L166.51 359.41L167.33 359.11L168.05 358.78L168.52 358.35L168.98 357.86L169.65 357.15L170.51 357.06L171.35 357.40L172.21 357.64L172.87 357.91L173.38 358.28L173.97 358.58L174.61 358.88L175.31 359.09L176.33 359.61L176.87 360.48L177.21 361.04L177.84 361.71L178.32 361.88L178.98 361.97L179.86 361.69L180.59 361.21L181.51 361.08L182.56 360.85L183.72 360.43L184.43 360.30L185.03 360.37L185.61 360.85L186.27 361.51L186.81 362.41L187.43 362.97L188.03 363.47L188.89 363.61L189.44 362.78L189.87 361.83L189.86 361.00L189.76 360.00L189.02 359.67L188.64 359.20L187.89 359.05L187.13 359.05L186.32 358.27L185.53 357.33L184.84 357.66L183.66 357.12L181.47 356.79L179.45 356.85L177.35 357.05L175.69 356.68L174.65 355.95L174.04 355.72L174.49 354.48L175.42 353.38L178.36 351.93L180.57 351.46L182.11 350.57L182.58 348.75L181.65 348.21L179.55 347.95L177.84 346.77L176.18 346.54L174.75 346.84L170.26 350.90L167.84 351.76L166.15 352.47L163.61 352.60L161.23 351.52L158.53 350.69L156.28 349.54L153.10 349.19L151.37 350.08L149.08 350.17L145.48 349.03L142.76 347.16Z" data-ward="4" /><path id="ward-15" class="ward" d="M68.37 403.02L69.28 401.30L68.77 400.67L68.39 399.83L67.80 399.23L66.70 398.26L65.65 398.00L64.84 397.61L62.53 396.48L59.67 395.09L58.93 394.72L56.58 392.89L53.77 392.41L52.38 392.17L49.04 391.20L48.87 392.20L48.54 392.84L49.02 393.72L49.62 394.67L49.97 395.22L50.39 396.34L50.60 397.75L51.64 398.40L52.11 398.76L51.47 400.32L51.19 401.02L51.14 401.56L51.09 402.10L49.53 402.95L48.48 403.23L47.40 403.30L46.83 403.43L45.64 403.60L45.37 404.06L44.50 404.44L44.41 406.07L44.40 407.46L43.87 408.82L42.90 408.99L41.91 408.60L40.87 408.36L40.30 407.99L39.93 407.60L39.03 407.88L37.29 408.17L36.90 408.57L35.96 408.72L34.84 408.77L35.09 408.05L35.19 407.51L35.19 406.96L35.03 406.03L33.41 406.02L32.42 406.38L31.85 406.52L31.81 407.31L31.67 408.13L31.26 408.50L30.85 409.33L30.67 409.94L30.38 410.73L30.70 412.27L30.70 413.23L29.98 413.90L29.40 414.20L29.33 414.72L29.37 415.74L30.13 416.54L30.46 417.18L30.72 418.39L31.12 419.23L31.77 420.56L31.99 421.19L32.25 422.11L32.52 423.04L32.82 423.66L33.43 424.42L33.67 425.25L33.18 425.63L32.15 425.83L31.04 425.88L30.39 426.13L29.70 426.87L28.86 427.46L27.70 428.49L27.30 429.22L26.91 429.94L26.24 429.93L24.94 429.79L24.40 429.77L23.40 429.30L22.56 429.86L22.25 430.88L22.44 432.16L22.37 433.07L22.32 433.82L22.45 434.59L22.14 436.08L23.01 437.08L23.77 437.78L25.01 438.67L25.77 439.24L26.12 439.72L26.41 440.22L26.86 441.14L27.71 441.14L28.23 441.18L29.01 441.14L30.30 440.88L31.20 440.75L32.11 440.65L33.29 440.53L33.92 440.43L34.43 440.35L35.06 440.28L36.33 440.14L37.06 440.07L37.87 439.55L38.61 438.73L38.98 437.92L39.15 437.23L39.65 436.79L41.12 436.61L42.03 437.03L42.97 437.16L43.66 437.18L43.79 437.82L44.00 438.86L44.12 439.41L44.40 440.72L44.97 441.06L45.78 441.55L46.77 441.84L47.43 442.04L48.03 442.22L48.86 442.46L48.59 443.80L49.40 444.29L49.87 444.58L50.39 445.54L50.43 446.08L50.28 446.66L50.24 447.27L50.15 448.00L50.46 448.85L50.82 449.23L51.35 449.80L52.16 450.66L52.81 450.09L53.47 449.50L54.94 449.64L59.77 450.10L61.44 450.25L62.65 450.37L63.17 449.94L64.35 449.29L64.64 448.72L65.54 448.35L66.50 447.96L67.75 448.43L68.20 448.80L68.70 448.70L68.84 448.53L68.93 447.44L69.79 446.93L70.64 446.97L71.54 447.02L72.36 447.17L73.54 447.38L74.88 448.35L75.68 448.29L76.23 448.26L77.09 448.20L77.68 448.16L78.25 448.12L79.00 448.06L79.58 448.02L80.80 447.94L81.58 447.88L82.20 447.84L83.07 448.14L83.70 448.19L84.42 448.68L85.68 448.52L86.59 448.40L86.77 447.46L86.96 446.50L87.20 445.39L87.31 444.83L87.48 444.06L87.55 443.15L87.47 442.24L87.72 441.56L88.02 440.77L88.09 440.12L87.99 439.26L87.90 438.58L87.79 437.62L87.57 437.05L87.77 436.44L88.11 435.42L88.06 434.58L88.04 433.82L88.01 432.88L88.10 431.93L87.99 431.02L87.73 430.33L87.03 429.78L86.40 428.46L85.21 428.44L84.41 427.89L84.37 426.41L83.45 425.83L82.85 425.25L82.89 424.62L82.30 422.86L82.56 421.49L81.92 421.17L81.01 420.30L81.01 419.41L81.19 416.53L80.33 415.62L79.81 415.01L79.60 413.40L78.12 412.75L78.67 411.87L78.43 411.29L76.90 408.98L74.89 406.68L72.92 404.86L71.51 404.39L70.32 403.40L68.80 403.74L68.37 403.02Z" data-ward="15" /><path id="ward-1" class="ward" d="M48.21 328.30L48.06 327.79L47.34 327.49L46.63 327.18L44.80 326.45L43.32 327.25L42.87 328.25L42.64 328.76L41.85 329.42L41.00 330.14L40.39 330.65L39.97 331.02L38.16 332.63L36.57 333.35L36.06 334.12L35.80 335.31L36.04 336.31L36.35 337.65L36.36 338.39L36.36 339.61L35.78 340.88L35.27 341.99L34.87 343.16L34.53 344.13L33.85 344.63L33.15 344.88L32.48 345.12L32.35 346.10L32.75 346.66L33.04 347.40L32.99 348.00L32.41 348.97L33.09 349.38L33.66 349.96L34.16 350.68L34.74 351.48L35.00 351.94L35.77 353.38L36.45 354.37L37.02 355.15L37.49 355.82L37.80 356.26L38.17 356.81L39.07 357.47L39.86 357.70L40.40 357.81L41.60 358.00L42.63 358.15L43.23 358.21L43.87 358.29L44.86 358.37L45.41 358.42L46.48 358.50L47.45 358.69L47.97 358.78L48.84 359.03L49.44 359.26L50.05 359.51L50.58 359.75L51.80 360.45L52.26 360.72L52.93 361.29L53.95 361.40L55.48 361.83L56.97 361.97L58.19 362.03L59.15 361.88L59.88 361.76L60.88 361.23L62.75 360.24L63.80 359.68L64.51 359.30L65.85 358.25L67.02 356.80L68.50 354.96L69.13 354.20L70.67 353.54L71.51 353.15L72.15 352.34L72.42 351.88L72.63 351.16L72.81 350.66L73.04 350.14L73.37 349.62L73.58 349.13L73.84 348.65L74.02 348.14L73.65 347.78L72.92 347.58L72.35 347.20L71.22 346.26L70.84 345.84L70.42 345.39L70.12 344.91L69.82 344.22L69.57 343.57L69.45 343.00L69.16 341.98L69.03 341.25L68.90 339.98L68.66 339.51L68.77 338.97L68.73 338.25L68.70 337.52L68.65 336.90L68.58 336.32L68.51 335.68L68.04 334.58L67.67 333.73L66.64 332.95L66.31 332.54L65.68 332.19L64.82 331.71L64.30 331.64L63.55 331.35L63.12 330.91L62.20 330.66L61.68 330.33L61.22 330.09L60.55 329.98L60.05 329.82L59.40 329.61L58.78 329.46L58.23 329.28L57.69 329.24L57.14 329.24L56.44 329.17L55.86 329.10L55.00 328.98L54.02 328.66L52.89 328.18L52.08 328.20L51.02 328.53L49.16 328.89L48.21 328.30Z" data-ward="1" /><path id="ward-8" class="ward" d="M212.25 399.13L211.21 398.75L210.88 397.40L210.11 396.55L209.28 395.95L207.43 395.47L206.87 395.35L205.82 394.40L205.85 396.22L205.56 397.01L205.30 398.06L204.88 398.83L204.36 399.55L203.86 400.14L203.09 400.77L202.47 401.22L201.98 401.62L200.97 401.97L200.13 401.82L198.93 401.48L198.08 401.21L197.26 400.80L195.91 400.32L195.30 400.26L194.57 400.28L193.72 400.31L193.11 400.38L192.30 400.51L191.74 400.64L191.25 400.85L190.70 401.09L189.91 401.42L189.37 401.50L188.82 401.54L187.90 401.67L186.69 402.14L185.62 402.27L184.97 402.41L184.39 402.69L183.87 402.96L182.91 403.20L181.83 403.15L180.96 403.14L180.06 403.43L179.36 403.58L178.10 403.80L177.14 404.09L176.33 404.43L175.60 404.69L175.09 404.86L174.25 405.17L173.15 405.34L172.24 405.43L171.70 405.51L171.16 405.60L170.28 405.68L169.70 405.56L169.06 405.35L168.32 405.04L167.70 404.86L166.70 404.52L165.88 404.32L165.27 404.20L164.49 403.88L163.97 403.68L163.32 403.48L162.30 403.17L161.52 403.02L161.00 402.90L160.16 403.06L159.33 403.20L158.38 403.51L157.74 403.77L156.85 404.06L156.20 404.26L155.54 404.42L155.04 404.69L154.00 404.95L153.27 405.15L152.36 405.47L151.50 405.58L150.48 405.87L149.80 405.91L149.29 406.09L148.45 406.37L147.66 406.72L147.05 407.11L146.34 407.74L145.95 408.14L145.65 408.62L145.33 409.13L144.73 409.94L144.24 410.95L143.49 411.72L142.62 412.56L142.06 413.10L141.65 413.97L141.57 414.49L141.43 415.47L141.51 416.49L141.51 417.60L141.65 418.69L141.78 419.84L141.79 420.88L141.69 422.06L141.00 423.19L140.51 424.22L139.84 424.47L139.36 424.87L138.60 426.03L137.89 426.75L137.13 427.63L136.43 428.10L135.65 428.45L135.27 428.81L135.32 429.43L135.27 431.21L135.50 431.81L136.33 431.29L137.58 430.52L138.19 430.11L139.26 429.09L141.09 428.26L141.77 427.90L142.50 427.44L143.24 426.97L144.50 427.26L145.84 427.56L146.43 428.14L146.56 428.80L146.49 429.70L146.42 430.59L146.46 431.31L147.27 431.85L147.92 431.94L149.36 432.15L149.85 432.31L151.00 432.69L152.32 433.22L153.19 433.56L154.14 433.94L155.65 434.51L157.17 435.08L157.74 435.41L158.36 435.77L160.04 436.03L161.27 436.89L163.83 438.69L164.14 438.01L164.50 437.44L165.77 436.31L166.91 435.30L167.66 434.31L168.78 432.85L168.86 430.98L169.45 429.97L170.26 430.59L173.17 432.78L174.65 434.06L175.51 434.76L176.34 435.40L177.97 436.60L178.59 437.15L181.51 437.11L186.09 437.02L187.08 437.14L189.22 437.38L192.29 437.95L192.90 438.07L199.12 439.50L201.90 439.22L202.81 439.14L205.49 438.87L207.27 438.39L210.92 438.46L211.52 436.63L210.97 433.16L209.63 430.72L208.87 429.32L208.59 428.68L207.02 425.04L206.87 421.55L207.83 419.66L208.06 419.20L208.48 417.72L208.81 415.62L209.07 414.63L209.03 412.97L209.00 412.03L208.58 410.60L207.69 409.02L207.27 408.10L206.46 406.33L206.00 404.45L208.14 402.35L209.30 401.21L209.46 400.53L210.04 400.09L211.47 400.78L212.75 400.79L212.80 400.16L212.25 399.13Z" data-ward="8" /><path id="ward-3" class="ward" d="M116.38 331.55L115.66 331.39L114.63 330.96L113.67 330.56L112.46 329.64L111.25 328.72L108.85 327.36L108.05 326.90L107.45 326.56L106.73 326.00L106.07 325.51L105.25 324.90L104.43 324.30L103.77 323.85L103.15 323.36L101.35 322.05L99.22 320.52L98.21 319.83L97.42 319.29L96.66 318.64L96.14 319.20L95.81 319.61L95.27 320.30L94.95 320.71L94.62 321.13L94.29 321.55L93.97 321.96L93.74 322.46L93.69 323.50L93.81 324.13L93.89 325.07L93.65 325.54L93.46 326.06L93.28 326.60L93.04 327.10L92.83 327.60L92.69 328.26L92.72 328.92L92.76 329.49L92.81 330.08L92.86 330.72L92.91 331.27L92.96 331.89L92.86 332.64L92.75 333.15L92.48 333.65L92.31 334.17L92.18 335.12L92.26 335.64L92.55 336.23L92.38 336.95L91.87 337.73L91.41 337.97L91.00 338.40L90.63 338.78L90.35 339.30L90.14 339.80L89.96 340.36L90.03 340.95L90.97 341.55L91.85 342.06L92.33 342.33L92.72 343.08L92.61 343.77L92.29 344.60L92.04 345.79L91.99 346.33L91.90 346.85L91.82 347.40L91.73 348.09L91.63 348.75L91.48 349.43L91.25 350.41L90.87 351.15L90.56 351.69L89.51 352.44L88.67 352.90L88.23 353.16L87.54 353.75L86.90 354.74L86.43 355.22L87.22 355.65L87.98 356.25L88.58 356.72L91.97 359.35L93.22 360.13L94.24 360.43L95.76 360.68L98.61 360.90L99.31 360.92L99.86 360.94L100.69 360.81L101.53 360.55L102.04 360.34L103.06 359.97L104.10 359.56L105.67 359.00L106.51 358.67L108.97 357.79L110.76 357.16L113.08 356.32L114.43 355.68L115.19 355.30L115.99 354.86L116.59 354.53L117.09 354.26L117.58 353.99L118.78 353.34L119.33 353.07L119.83 352.83L120.42 352.54L121.09 352.17L121.81 351.76L122.71 351.26L123.35 350.90L124.35 350.34L125.67 349.59L126.42 349.21L127.01 348.98L127.55 348.80L127.32 347.76L127.33 346.75L127.45 346.02L127.53 345.46L127.62 344.89L127.71 344.31L127.88 343.54L128.08 342.77L128.42 341.88L128.72 341.18L128.94 340.57L129.17 339.76L129.31 339.16L129.45 338.50L129.60 337.82L129.86 337.13L130.06 336.61L130.38 335.88L130.95 335.27L131.45 334.95L131.97 334.67L132.64 334.55L133.20 334.41L134.03 334.28L134.51 333.96L134.84 333.53L135.15 332.84L135.41 331.87L135.68 330.87L135.83 330.30L136.09 329.35L136.39 328.41L136.57 327.90L136.85 327.12L136.98 326.50L137.10 325.94L137.21 325.40L137.38 324.77L137.54 324.19L137.65 323.43L136.90 323.40L136.28 323.38L135.75 323.39L135.14 323.40L134.46 323.61L133.66 323.87L133.12 324.06L132.28 324.37L131.64 324.59L130.78 324.88L130.12 325.09L129.31 325.58L128.70 325.94L128.17 326.25L127.46 326.67L126.75 327.10L126.25 327.40L125.65 327.73L124.58 328.35L123.71 328.86L123.02 329.20L121.60 330.01L121.05 330.31L120.51 330.56L118.85 331.47L116.91 331.66L116.38 331.55Z" data-ward="3" /><path id="ward-2" class="ward" d="M74.52 299.62L73.64 299.59L72.49 298.87L71.78 298.42L71.84 297.83L71.26 296.21L70.61 294.42L70.10 292.43L69.27 289.18L69.29 288.32L68.99 287.81L68.33 286.68L67.62 286.22L66.84 285.73L66.07 285.24L65.29 285.18L63.88 285.06L62.19 285.54L61.57 285.71L61.03 286.35L60.62 286.82L60.66 287.50L60.75 289.36L60.57 291.39L60.34 294.03L59.79 294.75L58.49 296.45L56.68 297.67L54.22 298.17L53.58 298.30L52.59 298.62L50.84 299.17L50.39 299.68L50.04 304.28L49.12 305.60L47.34 308.16L46.58 309.21L45.66 310.49L45.19 311.42L44.52 312.75L43.89 317.02L43.79 317.76L43.44 321.78L43.50 324.14L43.50 324.68L43.37 326.51L43.32 327.25L44.80 326.45L46.63 327.18L47.34 327.49L48.06 327.79L48.21 328.30L49.16 328.89L51.02 328.53L52.08 328.20L52.89 328.18L54.02 328.66L55.00 328.98L55.86 329.10L56.44 329.17L57.14 329.24L57.69 329.24L58.23 329.28L58.78 329.46L59.40 329.61L60.05 329.82L60.55 329.98L61.22 330.09L61.68 330.33L62.20 330.66L63.12 330.91L63.55 331.35L64.30 331.64L64.82 331.71L65.68 332.19L66.31 332.54L66.64 332.95L67.67 333.73L68.04 334.58L68.51 335.68L68.58 336.32L68.65 336.90L68.70 337.52L68.73 338.25L68.77 338.97L68.66 339.51L68.90 339.98L69.03 341.25L69.16 341.98L69.45 343.00L69.57 343.57L69.82 344.22L70.12 344.91L70.42 345.39L70.84 345.84L71.22 346.26L72.35 347.20L72.92 347.58L73.65 347.78L74.02 348.14L73.84 348.65L73.58 349.13L73.37 349.62L73.04 350.14L72.81 350.66L72.63 351.16L72.42 351.88L72.15 352.34L71.51 353.15L72.42 353.16L72.97 353.09L73.50 353.00L74.47 352.80L75.73 352.54L76.49 352.39L77.55 352.26L78.19 352.41L79.27 353.20L79.74 353.98L80.48 354.90L81.41 355.45L82.53 356.11L82.97 356.43L83.87 356.98L85.04 356.23L85.88 355.67L86.43 355.22L86.90 354.74L87.54 353.75L88.23 353.16L88.67 352.90L89.51 352.44L90.56 351.69L90.87 351.15L91.25 350.41L91.48 349.43L91.63 348.75L91.73 348.09L91.82 347.40L91.90 346.85L91.99 346.33L92.04 345.79L92.29 344.60L92.61 343.77L92.72 343.08L92.33 342.33L91.85 342.06L90.97 341.55L90.03 340.95L89.96 340.36L90.14 339.80L90.35 339.30L90.63 338.78L91.00 338.40L91.41 337.97L91.87 337.73L92.38 336.95L92.55 336.23L92.26 335.64L92.18 335.12L92.31 334.17L92.48 333.65L92.75 333.15L92.86 332.64L92.96 331.89L92.91 331.27L92.86 330.72L92.81 330.08L92.76 329.49L92.72 328.92L92.69 328.26L92.83 327.60L93.04 327.10L93.28 326.60L93.46 326.06L93.65 325.54L93.89 325.07L93.81 324.13L93.69 323.50L93.74 322.46L93.97 321.96L94.29 321.55L94.62 321.13L94.95 320.71L95.27 320.30L95.81 319.61L96.14 319.20L96.66 318.64L96.10 318.12L95.59 317.17L95.12 316.31L94.36 314.30L94.17 313.80L93.88 313.04L93.36 311.78L92.82 310.46L91.50 307.54L91.02 305.94L90.56 304.40L89.98 303.46L89.39 302.98L88.85 302.54L88.31 302.39L87.06 302.04L86.44 301.87L85.42 301.59L84.71 301.04L83.58 300.17L83.16 299.84L81.49 299.73L80.19 299.64L79.07 299.83L76.40 300.14L74.52 299.62Z" data-ward="2" /><path id="ward-6" class="ward" d="M209.60 365.14L208.27 363.96L204.76 364.15L202.92 364.77L201.21 365.19L198.55 364.53L196.57 364.97L194.71 365.92L192.27 366.68L190.44 366.30L189.96 366.07L188.66 365.45L187.94 365.64L186.99 366.10L186.70 366.74L186.31 367.59L186.09 368.89L186.03 369.43L185.19 369.41L184.62 369.97L183.50 371.04L182.80 372.15L182.19 373.85L180.76 374.24L179.02 375.12L178.26 374.14L176.53 375.39L175.40 376.66L174.49 377.91L173.32 378.18L172.31 378.52L171.20 378.73L170.18 378.89L169.62 378.97L169.05 378.81L168.46 378.81L167.93 378.66L167.41 378.22L166.87 378.02L166.27 377.89L165.65 377.76L164.42 377.48L163.69 377.14L162.96 376.63L162.42 376.29L161.92 376.16L161.33 376.86L160.34 376.73L159.68 376.65L159.06 376.66L158.54 376.78L157.84 377.38L157.48 377.80L156.91 378.44L156.57 378.88L156.21 379.32L155.75 379.83L155.40 380.29L154.88 381.07L154.62 381.84L154.28 382.80L154.28 383.34L154.40 383.98L155.01 384.27L155.17 384.80L155.24 385.45L155.19 386.26L154.86 387.06L154.53 387.47L154.25 388.16L154.01 389.06L154.00 389.71L154.15 390.34L154.18 390.93L153.94 392.36L153.97 393.55L154.31 394.98L154.43 395.60L154.60 396.56L154.67 397.64L154.78 398.18L154.88 398.79L155.01 399.65L155.02 400.35L154.91 401.29L155.07 401.97L155.11 402.65L155.10 403.25L155.15 404.01L155.54 404.42L156.20 404.26L156.85 404.06L157.74 403.77L158.38 403.51L159.33 403.20L160.16 403.06L161.00 402.90L161.52 403.02L162.30 403.17L163.32 403.48L163.97 403.68L164.49 403.88L165.27 404.20L165.88 404.32L166.70 404.52L167.70 404.86L168.32 405.04L169.06 405.35L169.70 405.56L170.28 405.68L171.16 405.60L171.70 405.51L172.24 405.43L173.15 405.34L174.25 405.17L175.09 404.86L175.60 404.69L176.33 404.43L177.14 404.09L178.10 403.80L179.36 403.58L180.06 403.43L180.96 403.14L181.83 403.15L182.91 403.20L183.87 402.96L184.39 402.69L184.97 402.41L185.62 402.27L186.69 402.14L187.90 401.67L188.82 401.54L189.37 401.50L189.91 401.42L190.70 401.09L191.25 400.85L191.74 400.64L192.30 400.51L193.11 400.38L193.72 400.31L194.57 400.28L195.30 400.26L195.91 400.32L197.26 400.80L198.08 401.21L198.93 401.48L200.13 401.82L200.97 401.97L201.98 401.62L202.47 401.22L203.09 400.77L203.86 400.14L204.36 399.55L204.88 398.83L205.30 398.06L205.56 397.01L205.85 396.22L205.82 394.40L205.56 392.58L206.05 391.28L206.72 390.30L208.41 389.98L209.84 389.87L212.14 390.31L214.28 388.85L215.56 387.98L217.54 385.78L218.50 384.71L219.23 382.81L218.24 382.56L218.18 381.50L216.65 381.39L216.40 380.88L217.67 378.85L217.97 378.04L216.92 377.22L215.91 376.34L215.54 374.92L215.42 374.04L215.38 373.08L215.19 372.46L214.84 371.34L214.36 369.34L214.35 367.60L214.16 366.96L212.63 366.13L209.60 365.14Z" data-ward="6" /><path id="ward-9" class="ward" d="M138.66 393.56L137.14 393.33L136.22 393.05L135.63 392.75L133.90 392.28L132.32 391.69L131.23 391.32L130.65 391.10L130.14 390.88L129.42 390.56L128.61 390.44L127.85 390.41L127.00 390.31L125.72 390.20L125.24 389.90L124.18 389.36L123.07 388.55L122.32 388.10L121.67 387.88L121.85 388.69L122.50 389.47L123.09 390.56L123.28 391.43L123.12 392.30L122.99 392.86L122.79 393.53L120.98 395.24L119.20 396.39L118.62 396.26L117.94 396.23L116.91 396.62L116.31 397.80L115.49 399.03L114.14 400.47L113.16 400.95L111.64 401.45L110.45 401.67L109.83 401.79L109.12 401.79L108.26 401.91L107.59 402.26L107.09 402.65L106.48 402.62L104.96 402.56L102.82 402.81L102.09 403.44L102.74 406.78L104.66 408.76L105.46 410.20L106.44 410.63L107.04 411.06L107.37 414.20L107.74 415.31L108.07 415.91L108.14 416.95L108.36 417.47L110.06 417.87L110.76 420.22L111.53 421.12L112.05 421.74L112.58 422.36L113.08 423.10L113.45 424.65L113.00 426.01L113.08 426.68L114.64 427.57L115.97 428.32L116.43 428.58L118.02 429.41L120.18 429.77L121.19 429.94L121.79 430.04L122.59 430.21L123.68 430.45L125.27 430.96L126.30 431.29L127.93 431.82L128.51 431.97L129.30 432.14L129.94 432.24L131.33 432.09L132.13 432.00L132.79 431.96L133.33 431.93L134.01 431.89L134.66 431.86L135.50 431.81L135.27 431.21L135.32 429.43L135.27 428.81L135.65 428.45L136.43 428.10L137.13 427.63L137.89 426.75L138.60 426.03L139.36 424.87L139.84 424.47L140.51 424.22L141.00 423.19L141.69 422.06L141.79 420.88L141.78 419.84L141.65 418.69L141.51 417.60L141.51 416.49L141.43 415.47L141.57 414.49L141.65 413.97L142.06 413.10L142.62 412.56L143.49 411.72L144.24 410.95L144.73 409.94L145.33 409.13L145.65 408.62L144.75 408.19L144.23 407.84L143.89 407.22L143.26 406.75L142.64 406.32L142.17 405.80L141.46 405.92L140.89 405.61L140.43 405.18L139.89 404.67L139.33 403.96L139.43 403.38L139.08 402.76L138.78 402.32L139.17 401.73L139.64 400.93L139.74 400.38L139.91 399.62L139.97 398.63L140.49 397.45L140.84 395.03L140.90 394.37L140.82 393.81L139.94 393.90L138.66 393.56Z" data-ward="9" /><path id="ward-16" class="ward" d="M29.88 386.23L29.80 385.33L29.89 384.16L29.26 383.58L29.53 382.98L29.70 382.26L30.02 381.16L29.06 381.59L28.44 381.86L26.90 382.53L24.48 383.59L23.35 383.79L22.17 384.00L19.36 385.40L18.80 385.87L16.82 387.53L14.63 389.36L14.33 389.89L13.60 390.57L12.86 391.18L12.25 391.83L10.54 392.79L9.95 392.61L9.36 393.59L8.30 394.53L7.81 395.13L7.15 395.45L6.07 395.96L5.10 396.72L4.14 397.45L3.09 398.27L1.72 399.41L1.03 400.53L0.67 401.11L0.22 401.80L0.73 402.06L1.21 402.29L1.21 402.86L0.00 403.82L2.09 404.54L3.32 404.96L4.40 405.34L5.06 405.56L5.68 406.28L6.10 407.35L6.56 408.04L7.11 409.23L7.73 410.46L8.14 411.74L8.43 412.64L8.45 413.48L8.59 414.71L8.60 415.90L8.75 417.35L8.64 418.34L8.55 418.93L8.41 419.84L8.24 420.89L8.08 421.87L8.00 422.74L7.95 423.30L7.98 423.97L8.43 424.95L9.19 424.97L9.82 424.99L11.09 424.88L12.07 424.79L13.05 425.08L13.87 425.45L14.58 425.77L15.24 426.21L15.66 426.50L16.45 427.15L17.93 428.46L18.48 429.09L19.20 429.63L19.57 430.33L19.98 431.12L20.34 431.80L20.63 432.48L21.02 433.64L21.56 434.78L22.14 436.08L22.45 434.59L22.32 433.82L22.37 433.07L22.44 432.16L22.25 430.88L22.56 429.86L23.40 429.30L24.40 429.77L24.94 429.79L26.24 429.93L26.91 429.94L27.30 429.22L27.70 428.49L28.86 427.46L29.70 426.87L30.39 426.13L31.04 425.88L32.15 425.83L33.18 425.63L33.67 425.25L33.43 424.42L32.82 423.66L32.52 423.04L32.25 422.11L31.99 421.19L31.77 420.56L31.12 419.23L30.72 418.39L30.46 417.18L30.13 416.54L29.37 415.74L29.33 414.72L29.40 414.20L29.98 413.90L30.70 413.23L30.70 412.27L30.38 410.73L30.67 409.94L30.85 409.33L31.26 408.50L31.67 408.13L31.81 407.31L31.85 406.52L32.42 406.38L33.41 406.02L35.03 406.03L35.19 406.96L35.19 407.51L35.09 408.05L34.84 408.77L35.96 408.72L36.90 408.57L37.29 408.17L39.03 407.88L39.93 407.60L40.30 407.99L40.87 408.36L41.91 408.60L42.90 408.99L43.87 408.82L44.40 407.46L44.41 406.07L44.50 404.44L45.37 404.06L45.64 403.60L46.83 403.43L47.40 403.30L48.48 403.23L49.53 402.95L51.09 402.10L51.14 401.56L51.19 401.02L51.47 400.32L52.11 398.76L51.64 398.40L50.60 397.75L50.39 396.34L49.97 395.22L49.62 394.67L49.02 393.72L48.54 392.84L48.87 392.20L49.04 391.20L48.24 390.97L47.47 390.73L45.11 389.89L42.20 388.84L40.34 388.17L39.56 387.85L38.53 387.43L37.56 387.04L37.03 386.82L36.48 386.82L35.14 386.83L34.04 386.84L32.53 386.84L31.55 386.86L30.86 386.97L30.24 387.07L29.88 386.23Z" data-ward="16" /><path id="ward-14" class="ward" d="M96.53 386.57L96.02 386.12L95.58 385.74L95.13 385.34L94.66 384.94L94.40 383.98L94.29 383.36L94.16 382.58L93.89 381.77L93.35 381.37L91.82 381.25L89.66 380.41L88.31 380.10L86.10 380.71L83.95 382.43L83.41 382.83L82.98 383.14L81.08 384.53L79.17 385.92L78.60 386.38L77.83 386.88L76.82 387.52L75.27 387.29L74.39 387.00L73.85 386.74L73.20 388.16L73.25 389.12L72.00 389.64L71.28 390.30L70.48 391.11L69.95 391.87L69.22 392.90L68.58 393.15L67.82 394.04L67.80 395.03L67.57 396.10L66.70 398.26L67.80 399.23L68.39 399.83L68.77 400.67L69.28 401.30L68.37 403.02L68.80 403.74L70.32 403.40L71.51 404.39L72.92 404.86L74.89 406.68L76.90 408.98L78.43 411.29L78.67 411.87L78.12 412.75L79.60 413.40L79.81 415.01L80.33 415.62L81.19 416.53L81.01 419.41L81.01 420.30L81.92 421.17L82.56 421.49L82.30 422.86L82.89 424.62L82.85 425.25L83.45 425.83L84.37 426.41L84.41 427.89L85.21 428.44L86.40 428.46L87.03 429.78L87.73 430.33L88.22 429.76L89.21 429.94L91.42 431.38L92.10 431.67L93.14 432.11L94.07 432.03L96.92 431.78L97.62 431.64L98.32 431.48L99.50 431.08L101.55 430.37L102.42 429.86L105.51 428.03L106.35 427.50L108.37 426.21L109.08 425.95L109.64 425.74L110.47 425.65L111.17 425.57L111.95 426.02L112.48 426.33L113.08 426.68L113.00 426.01L113.45 424.65L113.08 423.10L112.58 422.36L112.05 421.74L111.53 421.12L110.76 420.22L110.06 417.87L108.36 417.47L108.14 416.95L108.07 415.91L107.74 415.31L107.37 414.20L107.04 411.06L106.44 410.63L105.46 410.20L104.66 408.76L102.74 406.78L102.09 403.44L102.82 402.81L104.96 402.56L104.54 400.64L104.87 398.11L105.08 397.01L105.23 395.97L104.93 394.86L104.55 394.10L103.81 393.42L103.39 392.78L102.92 391.72L102.51 390.92L101.76 390.18L101.18 390.11L100.41 389.36L99.53 388.80L98.51 388.14L96.53 386.57Z" data-ward="14" /><path id="ward-17" class="ward" d="M54.47 370.68L53.04 369.75L52.05 369.09L52.27 368.49L52.72 367.24L51.79 366.67L52.01 365.90L52.17 365.34L52.43 364.62L53.01 363.41L53.02 362.80L52.97 361.90L52.93 361.29L52.26 360.72L51.80 360.45L50.58 359.75L50.05 359.51L49.44 359.26L48.84 359.03L47.97 358.78L47.45 358.69L46.48 358.50L45.41 358.42L44.86 358.37L43.87 358.29L43.23 358.21L42.63 358.15L41.60 358.00L40.40 357.81L39.88 359.51L39.06 360.67L38.46 361.51L37.95 362.22L37.75 363.33L36.80 364.24L36.07 365.17L35.43 365.99L35.23 366.71L34.80 368.39L34.63 369.04L34.50 369.72L34.37 370.45L34.25 371.12L34.36 372.18L34.42 372.76L34.30 373.54L34.19 374.29L34.12 374.84L34.02 375.51L33.86 376.59L33.59 377.25L33.26 377.75L32.91 378.31L32.37 379.14L31.75 379.55L31.10 380.50L30.02 381.16L29.70 382.26L29.53 382.98L29.26 383.58L29.89 384.16L29.80 385.33L29.88 386.23L30.24 387.07L30.86 386.97L31.55 386.86L32.53 386.84L34.04 386.84L35.14 386.83L36.48 386.82L37.03 386.82L37.56 387.04L38.53 387.43L39.56 387.85L40.34 388.17L42.20 388.84L45.11 389.89L47.47 390.73L48.24 390.97L49.04 391.20L52.38 392.17L53.77 392.41L56.58 392.89L58.93 394.72L59.67 395.09L62.53 396.48L64.84 397.61L65.65 398.00L66.70 398.26L67.57 396.10L67.80 395.03L67.82 394.04L68.58 393.15L69.22 392.90L69.95 391.87L70.48 391.11L71.28 390.30L72.00 389.64L73.25 389.12L73.20 388.16L73.85 386.74L73.91 386.09L74.06 385.57L74.30 384.91L74.58 384.39L74.62 383.10L74.75 382.05L75.13 381.29L75.78 380.46L76.49 379.19L76.36 377.90L76.09 377.07L76.20 376.44L76.27 375.90L76.44 375.12L76.78 374.20L77.40 371.37L77.46 370.81L77.18 369.84L77.19 369.31L76.49 368.91L75.98 368.73L75.23 368.65L74.38 368.61L73.42 368.41L72.70 367.99L72.10 367.58L71.72 367.20L71.41 367.68L70.92 368.56L70.64 369.20L70.51 370.16L70.40 370.71L70.02 372.22L69.61 372.96L69.13 373.15L66.51 371.10L65.96 371.47L63.92 370.85L60.84 370.46L56.42 369.68L56.29 370.47L55.66 370.72L54.47 370.68Z" data-ward="17" /><path id="ward-5" class="ward" d="M828.59 37.78L821.96 35.99L781.06 24.94L693.47 0.00L684.68 6.51L681.30 9.02L677.12 12.12L672.98 15.20L667.04 19.61L662.43 23.03L659.65 25.10L658.96 25.39L655.23 27.22L648.81 30.37L645.21 32.14L639.82 34.79L635.81 36.75L631.41 38.91L628.82 38.22L627.72 37.91L626.62 37.66L625.48 37.30L624.83 37.06L623.99 36.76L623.41 36.53L622.53 36.19L622.05 35.99L621.41 35.74L620.84 35.51L620.17 35.24L619.62 35.13L619.02 35.01L618.23 34.86L617.50 34.71L616.24 34.46L615.57 34.33L614.92 34.26L613.78 34.12L613.08 34.02L611.91 33.86L611.20 33.76L610.26 33.49L609.50 33.27L608.89 33.10L608.37 32.85L607.55 32.50L606.53 31.99L605.70 31.56L604.65 31.04L603.48 30.54L602.94 30.31L601.61 30.04L601.09 29.94L600.35 29.80L599.19 29.88L598.33 29.97L597.22 30.10L596.15 30.47L595.13 30.85L594.40 31.19L593.82 31.46L592.63 32.06L591.04 33.40L590.04 34.26L589.41 34.79L588.63 35.13L587.13 35.76L585.83 36.25L585.28 36.80L584.66 37.42L584.11 37.97L583.42 38.67L583.00 39.13L582.41 39.76L581.93 40.34L580.89 41.79L580.31 42.76L580.02 43.23L579.58 43.84L578.96 44.80L578.05 46.06L577.22 46.79L576.44 47.45L575.92 47.75L575.28 48.12L574.25 48.71L573.41 49.20L572.56 49.69L571.86 50.55L571.47 51.21L571.05 51.91L570.58 52.64L570.06 53.47L569.41 54.37L568.17 55.66L567.53 56.01L566.74 56.43L566.02 56.81L565.41 57.01L564.92 57.17L563.77 57.62L562.49 58.12L561.39 59.07L560.54 59.74L559.39 60.73L558.86 61.12L557.38 62.36L556.13 63.42L555.06 64.34L553.84 65.53L553.40 65.96L552.67 66.68L552.06 67.27L551.02 68.17L550.45 68.65L549.62 69.34L548.60 70.15L548.00 70.62L546.78 71.57L546.19 71.96L545.47 72.41L544.95 72.75L543.98 73.36L543.14 73.84L542.54 74.18L540.88 74.91L539.07 75.73L538.45 76.00L537.03 76.62L535.81 77.16L533.29 78.43L532.56 78.78L531.24 79.44L530.13 80.00L527.71 81.31L525.70 82.15L523.75 83.12L521.89 84.21L520.03 84.56L518.88 84.96L518.21 85.19L517.62 85.45L516.66 85.86L515.49 86.43L514.43 86.88L513.45 87.35L512.32 87.83L511.37 88.24L510.08 88.79L509.06 89.27L508.02 89.75L506.42 90.25L504.72 90.35L504.19 90.31L503.26 90.24L502.60 90.19L501.48 89.98L500.64 89.95L499.59 90.01L498.79 90.08L497.95 90.17L496.58 90.33L495.29 90.47L494.03 90.61L493.26 90.68L492.31 90.77L490.86 90.91L489.08 91.17L488.38 91.27L487.24 90.99L485.75 90.62L484.73 90.30L483.93 90.03L482.94 89.63L482.06 89.28L481.51 88.75L480.91 88.17L480.50 87.77L480.07 87.36L479.69 87.00L479.13 86.45L478.64 85.88L476.78 83.69L474.52 82.15L472.42 80.71L470.24 79.21L468.21 77.82L466.93 76.94L464.89 75.54L462.97 74.23L461.00 72.87L459.25 71.67L457.80 70.68L456.35 69.69L455.73 69.36L452.77 67.82L451.97 67.40L450.20 66.47L448.03 65.34L446.33 64.45L444.54 63.52L442.57 62.49L441.91 62.15L441.14 58.98L440.28 55.42L439.48 52.10L438.88 49.63L438.70 48.86L438.16 46.25L437.95 45.25L437.81 44.56L436.95 40.44L433.88 39.85L428.86 38.88L424.24 37.99L423.45 36.89L420.50 32.78L417.64 32.66L412.78 32.47L411.45 30.77L408.90 27.52L408.50 27.13L406.48 25.13L403.72 22.54L400.62 19.62L398.62 17.63L396.23 15.25L394.75 16.74L393.16 18.34L391.60 19.91L390.82 20.69L389.27 22.24L387.99 23.53L385.79 25.74L385.73 27.04L385.66 28.36L385.61 29.55L385.48 32.00L386.31 34.53L387.11 37.00L388.38 40.91L389.41 44.08L389.13 45.42L389.02 45.95L388.20 49.90L387.76 52.02L387.17 54.90L386.70 57.15L381.40 63.15L378.65 66.26L376.31 68.91L374.84 70.58L374.08 69.96L372.84 70.63L371.94 71.12L370.38 71.95L369.50 72.43L368.17 73.14L366.48 74.05L365.05 74.82L363.75 75.52L362.36 76.27L360.81 78.08L360.04 78.99L359.26 79.91L357.71 81.72L356.94 82.63L356.77 83.81L356.68 84.36L356.57 85.11L356.44 85.95L356.19 87.64L355.97 89.15L356.16 90.56L356.20 90.61L356.31 90.69L357.80 91.70L358.96 92.20L358.89 92.96L358.77 94.27L358.66 95.38L358.54 96.76L358.38 98.46L358.22 100.20L358.07 101.77L357.94 103.16L356.45 105.38L355.57 106.69L354.75 107.90L354.38 109.69L354.03 111.34L353.71 112.85L353.38 114.47L352.94 116.53L352.62 118.06L352.37 119.28L352.13 120.41L352.22 122.18L352.31 123.90L352.82 125.47L353.01 126.06L353.45 127.41L353.99 129.05L355.08 132.40L355.45 133.12L357.32 137.44L359.01 141.07L359.85 142.88L360.45 144.18L361.28 145.95L361.58 148.35L362.06 152.14L362.56 156.06L363.02 159.69L363.68 164.96L363.76 165.58L363.91 166.71L364.02 167.61L364.34 170.14L361.28 172.22L360.34 172.85L359.69 173.71L359.58 174.22L359.19 175.15L359.11 175.91L358.46 181.97L358.24 184.00L357.88 187.35L357.46 191.20L357.62 195.77L357.72 198.45L357.86 202.58L358.01 206.88L357.88 210.87L357.82 212.66L357.71 213.20L357.33 215.09L356.98 216.79L357.20 218.85L357.46 221.26L357.62 222.75L356.07 225.50L355.05 227.33L354.03 229.11L353.15 230.66L352.06 232.55L350.79 234.25L349.82 235.55L348.33 237.55L346.84 239.57L346.31 240.28L345.92 240.83L345.09 242.00L344.56 242.75L344.24 243.20L343.62 244.08L343.09 244.83L342.57 245.57L341.68 246.82L340.80 247.38L339.76 248.04L339.27 248.36L336.65 250.02L335.51 250.75L334.56 250.91L331.70 251.41L329.65 251.76L328.34 251.94L326.91 252.16L323.55 252.68L322.03 252.54L318.82 252.24L314.87 252.37L313.53 252.41L312.56 252.44L310.61 252.50L309.38 252.54L308.57 252.44L303.66 251.83L300.65 251.46L298.33 251.18L297.17 251.04L296.56 251.41L295.86 250.71L295.17 250.00L294.47 249.30L293.77 248.59L293.07 247.89L292.39 248.23L291.89 248.49L291.33 248.77L290.86 249.01L290.18 248.86L289.64 248.74L289.09 248.61L288.16 248.41L286.58 248.05L285.37 247.78L284.48 247.58L282.84 247.22L280.87 247.59L279.13 247.92L277.90 248.36L276.99 248.57L274.95 249.52L273.27 250.30L272.30 250.76L270.72 251.50L269.47 252.08L268.82 253.68L268.46 254.56L268.03 255.61L267.57 256.74L267.45 257.45L267.37 257.98L267.28 258.50L266.63 259.18L266.15 259.67L265.75 260.62L265.35 261.56L264.02 262.78L263.47 262.97L262.10 263.42L261.58 263.36L261.01 263.30L260.43 263.23L259.48 263.37L258.77 263.47L257.84 263.69L257.25 263.82L256.42 264.01L255.78 264.22L255.28 264.39L254.64 264.60L253.57 264.95L252.78 265.13L252.18 265.27L251.48 265.44L250.44 265.90L249.24 266.44L248.65 266.90L248.17 267.28L247.42 267.93L246.85 268.80L246.54 269.28L245.67 269.52L244.80 269.30L243.82 268.91L242.79 268.43L241.10 268.01L239.66 268.08L238.68 268.63L238.08 268.97L237.59 269.24L235.72 269.74L234.90 269.96L234.13 270.16L232.74 270.53L231.82 271.05L231.23 271.36L230.67 271.32L229.92 271.01L229.11 270.62L228.53 270.52L227.58 270.67L227.63 271.35L227.76 272.35L227.91 273.32L227.94 273.86L227.39 274.18L226.86 274.49L226.38 274.76L225.88 275.03L225.11 275.57L223.96 276.43L223.39 276.85L222.87 277.18L222.38 277.53L221.93 277.95L221.69 278.55L221.49 279.04L221.28 279.99L221.32 280.56L221.36 281.14L221.63 282.00L221.85 282.67L222.02 283.32L222.08 284.03L221.74 284.51L221.16 284.59L220.13 284.65L219.44 284.71L218.56 285.22L217.89 285.65L216.75 286.06L215.87 285.87L215.36 285.55L214.97 284.91L214.53 283.40L214.35 282.78L214.23 281.57L214.15 280.77L214.08 280.06L214.01 279.36L213.96 278.80L214.02 277.89L214.11 276.77L214.06 275.82L214.03 275.14L213.05 274.58L212.03 274.15L211.41 273.89L210.76 273.70L210.20 273.54L209.70 273.40L208.92 273.18L208.39 273.15L207.87 273.12L207.13 273.07L206.57 273.07L205.93 273.08L205.44 273.61L205.07 274.10L204.77 274.52L204.41 275.02L203.80 275.71L203.36 276.26L202.89 276.99L202.36 277.52L201.99 278.17L201.63 279.08L201.55 279.99L201.65 281.42L202.06 282.28L202.43 283.07L202.68 283.60L202.94 284.13L203.27 284.58L203.70 285.17L204.13 285.62L204.78 286.28L205.19 286.69L205.76 287.27L206.53 288.21L206.98 288.76L206.98 290.02L206.98 290.92L206.75 291.64L206.38 292.60L205.84 293.43L205.42 293.94L204.77 294.44L204.28 294.81L203.78 295.10L203.07 295.30L202.57 295.44L201.26 295.46L200.49 295.36L199.70 295.18L199.18 295.06L198.15 294.97L197.29 294.77L196.75 294.85L195.56 294.95L193.86 295.52L192.90 296.07L192.50 296.46L191.96 297.00L191.74 297.57L191.45 298.25L191.49 299.09L192.01 300.19L192.05 301.07L192.41 301.50L193.02 301.88L194.00 301.56L194.65 301.38L195.23 301.93L195.52 302.65L195.76 303.40L195.30 304.12L196.43 304.19L196.91 303.54L197.42 303.70L197.93 303.87L198.01 304.44L198.15 305.33L197.93 306.38L198.13 306.96L197.92 307.57L197.68 308.29L198.21 308.52L198.98 308.10L199.27 308.78L198.91 309.62L198.53 310.14L198.02 310.70L197.60 311.10L197.14 311.64L196.65 311.91L195.76 312.37L195.18 312.63L194.68 312.86L194.15 313.06L193.59 313.26L192.88 313.39L192.28 313.49L191.73 313.50L190.97 313.51L190.28 313.34L189.74 313.17L189.17 312.87L188.73 312.57L188.20 312.20L187.88 311.66L187.49 310.99L187.17 309.83L186.78 308.78L186.53 308.32L186.16 307.85L185.51 307.40L184.41 306.69L183.83 306.51L183.25 306.33L182.45 306.18L181.55 306.02L180.84 305.68L180.04 305.15L179.54 304.82L178.70 304.16L177.86 303.50L177.30 303.36L176.73 303.21L175.99 303.00L175.22 302.79L174.25 302.37L173.26 302.10L172.43 301.86L171.60 301.72L170.76 301.57L170.08 301.71L169.21 301.89L168.97 302.54L168.66 303.86L168.53 304.42L168.32 305.01L168.00 305.87L167.49 307.01L167.22 307.58L166.95 308.16L166.44 309.11L165.81 309.95L165.47 310.41L164.66 311.33L164.11 311.98L163.39 312.99L163.02 313.50L162.07 314.83L160.73 316.70L160.41 317.56L160.09 318.39L159.81 319.04L159.56 319.51L159.28 320.06L158.70 320.87L158.18 321.51L157.82 321.94L157.09 322.70L156.66 323.14L156.20 323.70L155.76 324.22L155.14 324.93L154.60 325.55L153.79 326.31L153.27 326.59L152.65 326.91L151.94 327.17L151.23 327.42L149.83 327.29L149.12 326.88L148.56 326.41L147.71 325.71L147.14 325.24L146.58 324.77L145.59 324.31L144.60 324.16L143.18 323.95L142.54 323.86L140.37 323.63L138.78 323.47L140.15 324.57L141.03 325.79L141.59 326.72L141.97 327.29L142.38 327.91L142.72 328.42L143.02 329.61L143.60 331.96L144.35 334.53L144.29 338.06L143.48 341.08L141.08 345.33L142.76 347.16L145.48 349.03L149.08 350.17L151.37 350.08L153.10 349.19L156.28 349.54L158.53 350.69L161.23 351.52L163.61 352.60L166.15 352.47L167.84 351.76L170.26 350.90L174.75 346.84L176.18 346.54L177.84 346.77L179.55 347.95L181.65 348.21L182.58 348.75L182.11 350.57L180.57 351.46L178.36 351.93L175.42 353.38L174.49 354.48L174.04 355.72L174.65 355.95L175.69 356.68L177.35 357.05L179.45 356.85L181.47 356.79L183.66 357.12L184.84 357.66L185.53 357.33L186.32 358.27L187.13 359.05L187.89 359.05L188.64 359.20L189.02 359.67L189.76 360.00L189.86 361.00L189.87 361.83L189.44 362.78L188.89 363.61L188.03 363.47L187.43 362.97L186.81 362.41L186.27 361.51L185.61 360.85L185.03 360.37L184.43 360.30L183.72 360.43L182.56 360.85L181.51 361.08L180.59 361.21L179.86 361.69L178.98 361.97L178.32 361.88L177.84 361.71L177.21 361.04L176.87 360.48L176.33 359.61L175.31 359.09L174.61 358.88L173.97 358.58L173.38 358.28L172.87 357.91L172.21 357.64L171.35 357.40L170.51 357.06L169.65 357.15L168.98 357.86L168.52 358.35L168.05 358.78L167.33 359.11L166.51 359.41L166.04 359.62L165.34 360.08L164.81 360.36L164.30 360.88L164.02 361.33L163.64 361.82L163.34 362.35L163.02 362.87L162.63 363.25L162.98 363.78L163.06 365.29L163.01 366.21L162.88 367.06L162.48 367.99L161.95 369.08L161.79 370.10L161.63 371.17L161.52 372.99L161.66 375.03L161.84 375.62L161.92 376.16L162.42 376.29L162.96 376.63L163.69 377.14L164.42 377.48L165.65 377.76L166.27 377.89L166.87 378.02L167.41 378.22L167.93 378.66L168.46 378.81L169.05 378.81L169.62 378.97L170.18 378.89L171.20 378.73L172.31 378.52L173.32 378.18L174.49 377.91L175.40 376.66L176.53 375.39L178.26 374.14L179.02 375.12L180.76 374.24L182.19 373.85L182.80 372.15L183.50 371.04L184.62 369.97L185.19 369.41L186.03 369.43L186.09 368.89L186.31 367.59L186.70 366.74L186.99 366.10L187.94 365.64L188.66 365.45L189.96 366.07L190.44 366.30L192.27 366.68L194.71 365.92L196.57 364.97L198.55 364.53L201.21 365.19L202.92 364.77L204.76 364.15L208.27 363.96L209.60 365.14L212.63 366.13L214.16 366.96L214.35 367.60L214.36 369.34L214.84 371.34L215.19 372.46L215.38 373.08L215.42 374.04L215.54 374.92L215.91 376.34L216.92 377.22L217.97 378.04L217.67 378.85L216.40 380.88L216.65 381.39L218.18 381.50L218.24 382.56L219.23 382.81L218.50 384.71L217.54 385.78L215.56 387.98L214.28 388.85L212.14 390.31L209.84 389.87L208.41 389.98L206.72 390.30L206.05 391.28L205.56 392.58L205.82 394.40L206.87 395.35L207.43 395.47L209.28 395.95L210.11 396.55L210.88 397.40L211.21 398.75L212.25 399.13L212.80 400.16L212.75 400.79L211.47 400.78L210.04 400.09L209.46 400.53L209.30 401.21L209.97 402.49L210.41 402.89L211.00 403.42L211.73 403.90L212.74 404.18L213.28 404.22L213.89 404.27L214.58 404.32L215.01 403.88L215.43 403.45L215.96 403.34L216.49 403.64L216.97 403.92L217.61 404.02L218.12 404.10L219.06 403.66L219.53 403.45L220.51 403.74L221.07 403.91L221.80 404.13L222.38 404.46L222.95 404.78L223.47 405.08L224.11 405.44L224.94 404.95L225.23 404.48L225.51 404.01L225.64 403.45L225.77 402.90L226.31 401.90L227.06 402.06L227.30 402.64L227.50 403.13L227.90 404.10L228.01 404.75L228.10 405.29L228.18 405.80L228.28 406.39L228.13 407.18L228.01 407.84L227.99 408.43L228.08 409.13L228.15 409.68L228.23 410.30L228.30 410.82L229.03 411.20L229.63 411.22L230.16 411.25L230.85 411.28L231.37 411.30L231.90 411.33L232.28 410.94L232.65 410.57L233.03 410.19L233.55 410.01L234.04 409.84L234.53 409.67L235.03 409.50L235.52 409.33L236.03 409.32L236.97 409.31L237.66 409.30L239.10 409.45L239.72 409.49L240.78 409.40L240.28 408.48L239.96 408.04L240.12 407.33L241.74 406.94L242.34 406.80L243.72 406.47L245.51 406.59L246.05 406.57L246.71 407.10L247.70 407.89L248.36 408.42L248.53 409.30L248.18 409.98L247.81 410.40L247.45 410.81L247.07 411.80L246.86 412.34L246.66 412.85L246.81 413.37L247.08 414.30L247.71 414.41L248.18 414.11L248.65 413.82L249.30 414.00L249.95 414.18L250.93 414.42L252.11 414.57L252.92 414.29L253.71 414.02L254.29 413.38L254.70 412.64L254.74 412.07L254.80 411.28L255.25 410.62L255.94 410.40L256.74 410.74L257.34 411.07L257.80 411.33L258.21 411.94L258.45 412.52L258.87 413.53L259.11 414.92L259.27 415.47L259.54 416.11L260.17 416.35L260.96 416.46L261.63 416.56L262.39 416.82L263.02 417.50L263.41 418.10L264.38 418.00L264.99 417.60L265.75 417.40L266.59 417.81L267.15 418.89L267.26 419.61L267.36 420.30L268.12 421.05L269.37 421.26L270.17 421.28L270.53 421.73L270.71 422.77L270.84 423.47L270.66 424.34L270.54 425.33L270.44 426.14L269.58 426.74L268.83 426.64L268.16 427.00L267.67 427.36L266.90 427.93L266.60 428.83L266.09 429.72L265.58 430.95L265.95 431.46L266.27 431.90L266.89 432.39L267.39 433.10L268.22 433.72L269.12 433.63L269.68 433.57L270.22 433.52L271.20 432.65L271.71 432.12L272.21 431.59L272.61 431.16L273.19 430.55L273.76 429.95L274.22 429.46L275.39 428.34L275.90 427.85L276.31 427.45L276.74 427.04L276.94 426.56L277.38 425.52L277.67 424.83L277.84 423.72L277.98 422.82L278.08 422.19L278.16 421.64L278.30 420.75L278.80 420.47L279.92 419.84L280.37 419.58L280.97 419.24L281.44 418.66L282.06 417.90L282.55 417.70L283.15 417.46L283.82 417.20L284.75 416.82L285.07 416.05L284.83 415.00L285.68 414.93L286.27 415.20L286.93 415.02L287.48 414.87L287.68 415.63L287.82 416.17L288.08 417.62L288.85 417.81L289.68 418.00L290.37 419.33L291.18 419.20L292.37 419.00L293.12 418.87L293.55 420.29L293.69 420.79L293.46 421.67L293.21 422.63L293.19 423.44L294.05 423.44L295.49 422.90L295.76 422.50L296.12 421.73L296.58 420.74L297.31 421.15L297.88 422.53L298.13 423.14L299.07 423.24L299.84 422.08L300.71 422.21L301.73 422.36L302.56 423.07L303.45 423.82L304.35 422.55L304.85 421.84L305.79 421.69L305.55 422.69L305.28 423.84L306.52 425.06L307.15 425.68L308.09 424.96L309.23 424.09L309.60 423.07L310.65 423.23L311.56 423.37L312.04 423.64L312.78 424.06L313.41 424.04L314.79 424.00L315.37 423.99L316.20 423.90L316.80 423.42L317.23 423.08L317.45 421.83L318.26 421.62L318.71 422.45L319.25 423.43L319.84 423.60L320.55 423.81L322.14 423.69L322.60 424.31L323.01 424.86L323.61 425.66L324.39 425.42L325.29 425.13L326.10 425.81L326.51 426.15L327.55 425.92L328.21 425.78L329.51 425.49L329.94 426.02L330.40 426.58L330.89 427.19L331.23 427.62L331.47 428.54L333.63 428.89L335.09 429.14L337.45 428.77L339.88 428.46L340.66 428.36L341.93 428.31L343.57 429.09L344.04 429.31L345.68 428.02L347.14 426.87L347.77 426.73L348.54 426.48L349.76 426.35L350.25 426.53L351.99 427.16L354.93 424.19L355.37 423.90L356.12 417.67L356.85 417.48L358.19 417.11L359.98 416.63L366.54 414.84L368.32 413.42L371.54 410.87L372.23 410.33L375.60 405.18L380.29 398.03L383.63 396.54L386.68 395.48L388.99 394.74L390.12 394.30L393.40 391.82L395.66 389.00L396.62 387.81L398.18 385.87L399.13 384.16L401.14 380.57L401.49 379.74L402.41 377.65L406.82 367.58L407.51 365.52L410.75 359.68L411.11 359.02L411.59 359.94L413.01 362.63L414.91 364.49L415.55 365.29L416.05 365.65L418.55 367.43L420.06 367.12L420.67 367.20L422.29 367.41L424.45 369.21L425.06 369.56L426.12 369.82L429.58 370.21L431.23 371.73L432.13 372.56L434.47 373.42L435.86 373.94L438.03 375.80L445.75 375.41L447.85 376.51L450.82 376.31L452.65 376.97L453.45 377.25L457.60 378.06L458.22 378.38L459.24 379.75L460.19 381.03L463.82 382.47L464.73 382.83L466.10 382.53L467.63 380.83L468.39 380.91L469.82 381.33L471.44 381.24L473.93 380.92L474.79 380.81L475.48 381.13L476.47 381.59L477.15 381.37L478.00 381.09L483.96 379.15L484.76 378.89L486.05 378.47L488.18 377.78L489.17 378.53L490.04 379.19L490.46 379.52L491.07 379.98L492.04 380.72L493.21 381.32L494.56 382.01L495.10 382.29L494.86 383.52L494.37 385.98L494.36 386.40L494.83 386.86L495.16 387.48L495.40 387.94L495.77 388.66L505.90 386.90L508.48 386.46L511.21 385.50L514.00 382.06L516.94 378.45L521.91 377.13L525.08 376.30L531.90 376.30L532.69 376.47L539.03 377.79L542.26 376.84L550.16 370.17L551.69 368.88L552.27 368.39L557.07 354.42L557.54 352.50L560.19 334.77L562.21 321.21L563.14 314.96L567.79 303.79L567.77 292.82L568.96 292.12L571.18 291.15L574.11 289.08L575.66 288.16L576.77 287.50L577.99 286.78L579.38 286.44L579.91 286.20L581.26 285.57L582.18 285.15L583.30 283.79L583.87 283.11L584.70 283.25L585.67 283.42L586.17 283.76L586.73 284.05L587.70 285.19L588.93 286.65L590.09 287.12L590.80 287.40L591.41 287.66L592.62 287.65L593.88 287.63L595.73 287.61L597.07 287.87L597.90 288.04L598.56 287.65L599.34 287.19L600.33 286.62L600.97 285.04L601.99 282.54L602.65 280.91L603.31 280.55L603.86 280.25L604.99 279.63L606.07 280.01L608.21 280.78L608.76 280.71L609.53 280.62L610.56 280.49L611.90 280.33L612.88 280.21L613.68 280.68L614.66 281.27L616.10 282.13L616.80 282.65L617.62 282.89L619.17 283.35L620.73 283.81L621.47 284.03L622.44 284.03L624.33 284.01L626.64 284.00L627.35 284.12L628.05 284.30L628.78 284.49L632.04 285.33L632.98 284.93L635.43 283.89L637.57 282.97L639.41 282.19L643.18 281.83L644.22 281.73L645.07 281.39L646.38 280.84L646.97 280.15L647.39 279.83L649.04 278.60L650.19 277.63L651.08 277.35L652.92 276.76L653.91 276.45L655.35 275.99L655.90 275.84L656.54 275.66L657.18 275.17L658.13 274.46L659.06 273.76L660.47 272.70L660.96 272.33L661.49 272.31L662.14 272.28L663.00 272.72L664.14 273.30L666.25 274.38L666.96 274.75L667.50 275.69L667.33 276.40L667.10 277.38L667.36 277.88L667.95 278.99L668.69 280.40L669.32 281.58L670.34 283.50L671.04 284.83L672.06 285.62L673.06 286.40L675.05 287.94L676.44 289.01L677.36 289.73L680.07 290.99L680.75 291.13L682.40 291.48L685.88 293.62L687.68 294.06L688.32 294.38L689.58 294.03L690.36 293.81L690.94 293.01L691.46 292.89L692.20 292.70L693.30 293.02L693.90 293.20L694.49 293.15L695.18 293.55L695.84 294.20L696.43 294.55L697.43 295.14L698.04 295.51L700.33 296.08L701.25 296.32L703.03 298.77L703.49 299.02L705.74 300.23L707.56 300.73L708.59 301.01L710.44 301.90L712.05 302.23L713.71 302.34L715.63 303.61L718.03 304.98L718.75 305.06L720.54 306.28L721.64 306.22L722.96 306.36L723.96 306.20L724.79 306.47L725.94 307.32L726.37 307.82L727.77 308.68L728.87 309.80L731.09 311.39L732.26 311.76L732.90 312.54L733.49 313.51L735.59 315.22L736.27 315.60L737.53 316.99L739.54 318.06L740.45 319.14L741.89 320.73L743.56 321.88L744.26 322.43L747.31 322.58L750.20 324.80L753.00 325.70L754.80 327.53L756.54 329.30L759.15 331.69L761.05 334.07L762.91 336.40L764.11 336.52L765.80 337.97L768.08 338.26L769.80 341.35L769.95 344.47L772.89 348.25L777.35 353.44L778.10 355.81L780.92 358.99L784.36 360.94L785.86 360.80L786.80 362.32L788.03 361.23L789.51 362.23L791.53 361.89L793.49 363.43L795.07 366.54L798.55 369.38L801.07 371.44L804.27 372.68L806.37 376.18L807.31 381.52L814.94 399.44L826.26 410.04L824.71 417.69L831.37 430.96L832.35 436.28L833.87 439.08L844.70 434.37L846.09 433.86L852.74 430.78L853.89 430.30L857.96 428.60L866.52 425.79L880.92 421.07L898.05 415.49L902.98 413.88L902.74 412.69L905.76 400.09L909.22 388.09L910.33 382.77L910.73 380.91L911.11 379.18L911.46 377.21L912.68 372.78L913.15 371.10L914.18 367.44L915.15 362.52L915.41 361.21L915.71 359.69L916.23 357.40L917.32 353.50L919.02 352.46L930.08 346.37L936.66 342.74L944.64 338.34L950.53 335.15L952.01 334.28L953.64 333.31L956.57 331.36L959.44 329.52L960.75 328.56L963.70 326.44L970.20 321.82L985.68 310.53L983.73 309.23L969.80 299.88L967.14 298.10L963.08 295.12L962.60 292.78L961.71 288.37L960.39 282.95L956.05 261.39L974.70 233.67L1000.00 201.32L998.91 195.26L995.62 173.39L991.52 149.00L992.21 126.02L992.21 125.46L992.63 101.29L990.87 100.49L990.11 100.56L974.46 101.81L860.95 114.95L882.92 97.37L889.27 57.70L856.41 46.86L855.77 46.70L828.59 37.78Z" data-ward="5" /></svg>