<svg viewBox="0 0 1000.00 571.24" xmlns="http://www.w3.org/2000/svg"><style>.ward { fill: #e2e8f0; stroke: #fff; stroke-width: 0.5px; } .ward:hover { fill: #cbd5e1; }</style><path id="ward-7" class="ward" d="M637.36 298.31L636.56 297.51L635.19 296.32L634.33 295.79L633.48 294.73L632.90 292.93L633.45 290.32L634.08 289.00L635.06 287.17L635.99 286.11L636.33 285.18L636.52 283.49L636.96 281.30L637.12 280.31L637.26 278.56L636.58 275.83L636.74 274.64L637.36 272.99L638.34 270.83L638.80 268.90L639.81 266.57L640.14 264.58L639.38 262.58L638.60 262.14L638.10 259.86L637.39 258.56L636.74 257.34L635.69 257.48L634.50 258.08L633.41 258.57L632.08 259.16L631.06 259.69L630.06 260.17L629.19 260.43L627.25 261.09L626.17 261.65L624.87 262.03L623.32 262.50L622.05 262.98L620.69 263.31L619.82 263.64L618.36 265.38L617.81 266.10L616.78 268.52L615.95 270.75L614.40 272.37L613.45 273.56L612.52 274.60L611.83 275.54L611.70 276.59L611.31 278.40L610.87 279.38L610.38 280.16L609.40 281.72L608.44 283.05L606.68 285.29L606.21 286.82L605.91 288.19L605.55 289.86L605.16 290.91L604.42 292.96L603.47 294.78L602.32 295.94L599.50 296.54L598.30 296.81L596.46 296.97L595.13 297.05L593.55 297.35L592.11 297.62L590.73 298.32L589.71 298.88L588.24 298.82L587.29 298.79L586.10 298.91L583.38 299.11L582.05 299.20L580.97 299.51L579.89 299.82L578.73 299.89L577.78 299.97L576.81 300.06L574.86 299.95L573.90 299.90L572.16 299.72L571.06 298.98L569.53 300.05L569.07 301.08L568.19 302.87L567.21 304.43L566.61 305.38L565.89 306.69L564.98 308.72L563.91 310.20L563.09 311.66L562.26 313.47L561.18 314.88L560.32 316.57L559.98 317.42L559.65 318.28L560.94 319.38L561.76 319.86L562.50 320.40L564.04 321.61L564.71 322.35L565.47 322.93L566.38 323.40L567.85 324.52L568.87 325.75L569.83 326.53L571.25 327.44L572.45 327.83L571.84 328.67L571.11 329.54L569.81 330.90L568.63 333.09L567.49 335.61L566.80 336.59L564.97 338.50L563.89 339.85L561.39 342.47L560.12 343.44L559.39 344.13L557.19 345.87L555.72 347.14L554.82 347.62L553.65 347.70L552.72 347.58L551.42 347.74L549.70 347.94L548.30 348.22L547.08 348.68L546.17 349.03L544.84 349.31L543.96 349.49L542.84 348.51L540.79 345.86L540.17 345.14L539.65 344.39L539.05 343.62L538.57 342.79L537.08 342.66L535.16 342.34L534.14 342.16L532.76 341.65L531.32 341.27L530.33 341.31L529.30 340.93L527.55 340.23L526.74 339.59L526.16 337.22L525.86 335.80L525.50 334.13L524.81 332.31L524.09 331.24L523.13 331.85L522.05 332.62L520.61 333.93L519.77 334.78L518.27 335.72L517.63 337.03L517.28 337.86L516.79 338.87L516.13 340.57L515.30 341.94L513.81 342.95L512.28 344.23L510.86 345.45L510.54 348.02L511.55 349.50L513.46 351.48L514.00 352.48L515.09 353.42L515.66 354.82L515.76 356.63L516.31 358.63L516.87 360.52L517.37 361.81L517.70 363.29L517.88 364.28L517.15 365.92L516.37 367.07L515.14 368.45L513.69 369.84L511.84 371.83L510.29 372.90L509.20 373.63L507.14 375.22L505.99 376.02L504.72 376.89L503.82 377.55L502.92 378.21L502.21 378.88L501.49 379.54L500.41 381.95L499.92 383.06L499.65 384.28L499.04 386.01L498.63 387.32L498.23 388.15L497.75 389.00L496.68 390.37L495.55 391.40L494.19 393.25L493.07 395.26L492.51 397.17L492.14 398.59L491.68 400.65L491.22 401.43L488.58 402.22L490.59 404.44L490.67 407.23L491.44 409.46L492.41 409.54L493.38 409.62L494.56 410.02L495.68 410.39L496.92 410.41L498.90 410.19L501.41 409.73L503.79 409.62L504.60 410.12L505.48 411.94L506.24 412.43L508.22 413.03L509.93 413.82L511.40 414.58L512.16 413.86L512.92 412.87L513.53 412.10L514.14 411.33L515.88 411.88L518.23 412.68L519.24 413.02L519.32 414.54L519.39 415.88L519.47 417.32L519.59 418.56L519.74 420.00L519.92 421.83L519.08 423.53L517.91 425.76L517.27 427.13L516.84 428.08L516.30 429.53L517.48 430.23L518.42 430.79L520.07 431.45L518.97 433.11L518.02 434.61L517.24 435.98L516.74 436.87L515.88 439.20L515.45 440.39L515.10 441.47L514.74 442.55L514.28 443.74L513.89 444.75L513.43 446.75L513.17 448.59L514.47 449.15L517.15 449.67L518.26 449.88L519.73 450.30L521.42 450.86L521.29 452.53L521.26 453.79L521.53 456.17L521.77 457.23L522.10 458.73L523.68 459.09L526.13 459.65L527.68 460.06L529.33 460.54L530.78 460.96L532.75 461.54L534.48 462.00L536.40 462.51L538.48 463.07L540.39 463.41L541.86 463.67L543.73 464.00L544.45 462.64L545.09 461.93L546.44 460.41L548.57 458.22L550.32 456.93L551.92 457.01L553.60 455.64L554.38 454.79L555.76 455.95L555.38 458.90L555.71 460.82L557.34 460.20L558.45 460.36L560.72 460.69L561.72 461.67L563.44 463.70L566.57 464.27L570.00 464.48L571.45 464.42L572.58 464.36L574.31 464.16L575.64 464.70L576.98 465.25L577.05 468.93L577.03 469.90L578.15 469.92L579.28 469.95L582.01 470.21L581.93 472.55L589.12 471.98L592.47 468.35L593.77 463.91L594.02 463.05L594.12 460.65L594.05 458.82L593.82 452.92L594.52 447.44L594.94 444.19L595.45 440.39L596.35 437.25L596.72 436.28L597.58 434.76L598.68 433.23L599.74 432.01L601.06 430.71L603.72 428.85L605.17 426.34L606.18 424.58L606.65 423.76L606.30 421.69L605.97 419.78L604.90 418.08L604.39 417.27L602.07 416.40L600.33 416.38L598.58 416.36L595.58 416.84L593.95 417.10L591.70 414.34L594.87 412.38L594.78 410.08L596.39 408.70L597.98 407.35L599.17 406.48L600.81 406.04L604.04 405.16L603.07 407.10L602.10 409.05L603.63 410.44L605.36 412.01L609.48 413.89L610.59 415.08L612.63 416.48L614.02 416.92L615.72 417.44L618.41 416.75L622.87 415.61L624.97 412.82L629.63 413.00L632.45 410.07L633.30 409.01L637.62 403.63L640.53 400.84L641.17 398.88L642.53 394.66L644.54 394.07L645.85 393.68L647.30 393.46L648.82 393.22L650.62 392.85L652.68 393.02L654.64 393.13L656.38 392.59L657.94 392.11L659.88 391.46L661.66 390.87L661.90 387.87L662.71 384.47L661.72 382.52L662.46 380.16L663.18 377.90L663.14 375.84L664.38 374.48L665.90 372.82L666.24 371.60L666.72 369.88L666.60 368.32L666.87 363.39L666.09 361.85L667.46 360.27L669.15 357.79L669.87 356.10L670.80 353.93L672.05 351.02L672.72 349.37L673.69 346.21L674.92 343.91L675.37 342.79L675.72 341.91L674.69 341.05L673.48 340.37L672.21 339.89L670.33 339.11L669.46 338.75L668.55 338.35L666.75 337.45L665.33 336.62L664.35 336.15L663.30 336.63L661.57 337.33L659.17 337.48L657.78 337.13L656.75 336.65L655.32 336.08L653.97 335.73L652.80 335.30L651.87 334.94L651.03 334.65L650.28 333.71L647.21 332.18L644.73 332.11L642.93 332.12L641.91 332.14L641.79 329.42L641.95 327.12L641.93 325.31L641.91 324.22L641.84 321.49L641.69 318.44L641.47 316.88L641.22 315.20L640.67 313.21L640.17 310.79L639.50 307.73L639.07 305.64L638.70 303.76L638.37 301.52L638.20 300.41L637.36 298.31Z" data-ward="7" /><path id="ward-2" class="ward" d="M490.25 70.14L488.96 68.70L487.61 67.21L486.35 65.82L485.33 64.69L484.13 63.35L483.15 62.49L481.86 61.34L479.63 62.40L476.75 62.96L475.26 63.26L474.28 64.24L473.00 67.03L472.12 68.76L468.92 70.46L468.33 71.70L467.05 73.33L465.53 75.30L463.05 76.52L461.24 77.07L458.87 78.08L456.74 78.99L455.90 79.63L454.27 81.35L452.98 82.59L452.01 84.01L451.62 84.88L451.21 85.98L450.87 86.84L450.00 87.62L448.68 89.11L447.81 90.17L446.98 91.53L445.64 93.44L445.07 94.39L444.46 95.15L443.79 96.22L443.15 97.04L442.17 98.29L441.92 99.16L441.16 100.84L440.74 101.81L440.34 103.45L439.93 104.79L439.51 106.28L438.66 107.18L437.73 108.23L437.03 109.17L436.49 111.85L436.06 112.97L435.55 114.26L435.12 115.43L434.51 117.01L434.26 117.95L434.06 118.84L433.70 120.10L433.50 120.99L433.26 121.90L433.11 123.65L433.03 124.55L432.68 126.42L432.47 127.79L432.11 128.77L431.11 129.34L429.74 129.78L428.87 130.06L427.96 130.63L426.84 131.33L425.84 132.81L425.24 133.92L424.02 135.22L422.48 136.84L421.38 137.99L420.73 138.97L420.08 140.11L419.54 140.90L417.23 140.68L415.50 140.73L414.48 140.73L412.67 140.79L411.75 140.78L409.84 141.02L407.73 141.44L406.36 141.64L405.28 142.32L404.27 143.33L403.38 143.97L400.63 144.85L398.87 145.71L398.03 146.11L395.67 147.12L393.71 147.52L392.74 147.76L391.85 147.90L390.08 148.35L388.35 148.74L386.61 148.92L385.38 149.78L384.30 150.29L382.88 151.29L381.57 152.10L380.28 152.89L378.90 153.76L377.66 154.72L376.15 156.31L375.39 157.47L374.71 158.77L373.99 160.48L373.36 162.20L372.90 163.73L372.68 165.15L372.40 167.18L372.28 169.27L372.10 170.87L372.16 172.16L372.22 173.30L372.29 174.98L372.28 177.16L372.32 178.34L373.24 180.09L374.18 179.40L375.27 178.88L376.20 178.62L377.39 178.37L379.30 178.10L380.36 178.03L381.89 177.81L382.91 177.68L383.99 177.64L385.88 177.35L387.86 176.82L389.86 175.88L391.70 174.70L392.80 173.98L394.67 172.74L395.79 171.91L397.87 170.90L399.38 170.39L400.77 170.22L401.92 170.22L403.85 170.29L404.99 170.66L406.77 171.80L407.82 172.87L408.78 173.66L409.81 174.61L410.52 175.28L411.92 176.30L413.00 176.98L414.75 178.04L416.18 178.85L418.51 180.21L419.81 181.11L421.28 182.41L422.42 183.81L423.37 185.40L424.04 186.16L425.36 186.63L427.00 186.59L427.98 186.40L428.98 186.13L430.76 185.00L432.13 184.12L432.96 183.56L433.83 182.98L435.88 181.76L436.89 181.12L438.17 180.03L439.56 178.73L441.03 177.82L441.68 177.21L443.56 176.27L446.39 175.29L449.10 175.98L450.31 177.07L451.08 177.76L452.60 179.12L454.49 180.61L456.30 182.03L457.74 182.92L458.68 183.57L460.16 184.62L461.64 185.93L462.37 187.34L462.40 188.60L462.10 189.96L461.57 191.79L461.28 193.54L461.63 194.89L462.05 195.78L463.01 196.58L465.88 197.10L467.60 197.31L468.92 197.47L470.06 197.71L471.15 197.77L473.02 197.79L475.35 198.01L477.33 198.06L479.61 198.14L481.50 197.99L483.15 197.53L485.37 197.12L486.26 196.96L488.50 196.65L490.64 196.21L493.10 195.55L494.55 195.31L495.87 195.21L496.83 195.24L498.21 195.44L499.75 195.53L500.67 195.77L502.60 196.15L504.42 196.29L506.06 195.98L507.46 195.61L509.54 194.98L510.86 194.63L512.51 194.10L513.58 193.27L514.50 192.63L515.59 191.74L517.24 191.57L518.21 191.58L519.22 191.59L520.95 191.88L522.40 191.98L523.84 192.13L525.42 192.12L526.97 192.26L528.61 192.43L529.82 192.87L531.55 192.85L532.50 192.67L533.54 192.43L535.03 192.17L536.31 191.90L537.55 191.82L538.47 191.77L539.51 191.69L540.58 191.50L541.59 191.75L542.64 191.84L543.73 191.97L544.70 192.06L546.73 192.35L547.99 192.56L549.18 192.84L551.04 193.08L552.04 193.24L552.97 193.33L554.45 193.44L556.15 193.54L557.39 193.80L558.62 193.79L560.32 193.48L561.57 193.13L562.86 193.20L564.02 192.80L564.90 192.64L566.17 192.50L567.53 192.45L569.38 192.32L570.51 192.35L571.68 192.48L572.90 192.54L574.16 192.68L575.59 192.73L576.80 192.92L577.68 193.12L579.02 193.41L580.01 193.49L582.03 193.78L582.97 193.83L583.95 193.92L585.19 194.00L586.85 194.34L588.10 194.52L589.36 194.98L590.76 195.66L592.05 196.31L593.27 196.98L594.34 197.70L595.55 198.75L596.44 199.87L597.24 200.91L598.18 201.93L599.78 203.05L600.57 203.78L601.85 204.50L602.70 204.88L603.62 205.22L604.91 205.50L606.60 205.60L607.75 205.50L608.93 205.20L610.22 204.87L611.69 204.61L613.13 204.26L614.43 204.07L615.68 203.80L616.99 203.87L618.04 203.88L619.33 204.17L620.60 204.26L622.01 204.19L623.28 204.00L624.68 203.74L625.66 203.85L627.86 204.21L629.39 204.35L630.93 204.40L631.84 204.54L633.29 204.72L634.61 204.76L636.76 204.81L638.24 204.80L639.46 204.82L641.35 205.01L642.64 204.87L643.86 204.71L644.89 204.65L646.19 204.18L646.84 203.18L646.79 202.12L646.40 200.88L645.93 199.79L645.49 198.18L645.39 196.35L645.32 195.12L645.23 193.79L645.34 192.15L645.33 190.27L645.43 189.25L645.56 188.20L646.02 186.68L646.52 185.68L646.49 184.51L645.53 184.17L644.22 183.20L641.86 184.64L640.66 185.55L639.77 186.37L638.71 187.54L638.02 188.17L637.18 187.80L636.34 187.42L634.93 186.55L633.97 186.24L632.71 186.09L631.78 185.93L629.97 185.74L628.20 185.29L627.12 184.98L625.74 184.70L623.90 184.37L622.84 184.10L621.32 182.99L620.29 182.18L618.66 181.03L617.28 180.66L615.19 180.59L613.44 179.47L612.47 178.15L611.87 177.41L611.12 176.83L610.13 176.21L609.01 175.65L607.60 174.82L606.42 173.55L605.68 172.60L605.21 171.83L604.68 170.66L604.22 169.68L603.32 167.34L602.46 165.50L601.51 163.11L601.11 162.29L600.06 160.86L598.61 160.29L596.77 159.85L595.36 160.03L594.26 160.17L592.02 160.46L589.80 161.37L587.32 161.26L586.15 161.21L583.61 161.09L580.95 161.22L578.90 161.32L577.33 161.39L575.72 161.47L574.82 161.51L572.75 161.60L571.35 161.66L569.38 161.75L567.89 161.83L566.34 161.91L564.98 161.98L563.57 162.05L560.05 162.08L558.98 161.53L557.97 160.33L556.62 159.13L555.10 158.12L553.75 157.44L550.52 156.26L548.58 155.39L547.14 154.75L545.88 153.29L545.10 151.83L544.63 150.40L544.11 147.82L543.81 146.67L543.56 145.40L543.52 144.01L543.48 142.62L543.55 140.16L543.89 138.36L544.13 137.07L544.57 135.60L546.21 135.37L547.64 135.16L548.67 135.02L550.10 135.30L551.52 135.59L552.75 136.10L553.70 136.49L554.58 136.86L555.42 137.21L556.49 137.65L557.86 138.22L558.95 136.79L559.86 137.25L560.77 137.72L562.00 138.53L563.03 138.49L564.56 137.96L565.89 137.30L567.30 135.79L568.78 134.42L569.57 133.75L570.24 132.99L570.97 132.16L571.67 131.01L572.06 130.21L572.27 128.34L572.22 127.38L571.98 125.88L571.06 124.55L569.95 123.47L569.25 122.81L568.40 122.04L567.58 121.52L566.82 120.83L565.35 120.34L563.28 119.77L562.15 119.38L560.61 119.37L559.53 119.36L558.28 119.62L556.43 120.13L553.71 120.97L551.70 122.08L549.71 123.02L547.86 123.86L547.00 124.42L545.88 125.15L544.68 126.59L543.59 127.77L542.47 128.99L541.18 130.32L540.34 131.38L539.69 132.20L536.65 132.56L534.35 131.96L533.03 131.27L532.35 130.18L532.00 129.28L531.65 128.39L531.41 126.91L531.09 125.29L530.93 124.02L530.69 123.03L530.49 122.04L530.37 121.11L530.25 120.22L530.11 119.31L529.97 118.39L529.49 115.69L529.24 114.71L528.76 113.88L527.52 112.94L526.62 112.84L525.73 113.04L524.70 113.27L523.68 113.50L521.97 113.99L520.16 114.24L518.65 114.19L517.44 114.05L516.14 113.48L514.03 111.24L513.16 110.12L512.70 108.56L512.38 106.08L512.22 104.31L512.35 102.84L512.94 101.51L514.07 99.68L514.69 98.88L515.52 97.97L514.73 96.03L513.93 94.07L511.81 92.04L510.18 90.48L508.72 89.04L507.58 87.93L506.53 86.96L504.47 84.91L502.82 83.25L501.21 81.63L499.67 80.08L498.22 78.63L496.72 77.12L495.82 76.22L494.81 75.56L494.00 74.52L492.73 72.88L491.37 71.37L490.25 70.14Z" data-ward="2" /><path id="ward-14" class="ward" d="M320.24 132.24L320.40 130.77L320.44 128.80L320.50 127.35L320.65 123.25L320.68 121.99L320.70 121.19L320.87 119.82L320.18 120.04L318.70 120.52L316.76 120.62L315.82 120.67L313.93 120.76L312.57 120.83L311.52 121.28L309.89 121.98L310.39 123.91L310.58 126.61L310.84 127.61L311.16 128.83L309.57 130.23L308.77 130.92L307.18 132.31L306.36 133.03L304.44 132.96L302.74 132.97L300.64 133.16L298.60 135.23L297.94 135.91L297.16 136.60L295.45 138.50L294.66 139.33L293.51 140.54L292.81 141.27L291.75 142.83L290.79 144.24L290.24 145.05L289.25 146.49L288.95 147.45L288.67 148.65L287.86 152.04L287.30 153.90L286.78 155.54L286.35 156.90L285.98 158.04L289.15 161.28L289.17 163.25L289.18 164.26L289.20 165.74L287.88 166.22L286.64 166.67L285.74 166.99L284.58 167.42L282.94 168.01L281.50 169.07L280.06 170.12L277.21 171.53L274.37 172.93L274.49 173.89L274.60 174.78L274.84 176.72L273.10 178.10L272.05 178.94L268.81 181.51L266.04 182.86L264.38 182.99L263.08 183.09L261.61 183.21L259.11 183.40L258.37 182.03L257.61 180.60L257.03 179.51L256.15 176.91L255.78 175.06L255.26 172.45L254.86 171.37L254.22 169.63L253.60 167.94L252.74 165.78L251.46 163.20L250.48 161.23L249.72 160.04L248.18 160.94L246.22 162.08L241.11 163.94L240.04 164.02L236.43 164.31L232.36 164.04L230.03 163.42L227.71 162.58L226.43 162.14L224.10 161.35L222.03 160.27L216.85 161.67L215.00 162.92L213.43 163.98L212.63 165.45L210.44 168.08L208.85 170.21L206.68 171.37L204.51 172.52L203.75 173.13L202.78 173.90L201.95 174.57L200.47 175.75L199.42 176.60L199.15 177.78L198.85 179.05L198.63 179.96L198.34 181.20L198.05 182.46L197.83 183.39L196.83 184.69L195.85 185.95L195.02 187.02L194.29 187.86L192.21 189.50L191.24 188.92L189.85 188.08L188.42 187.58L187.25 187.17L185.47 186.35L183.85 185.60L180.23 183.67L177.03 181.28L173.88 178.92L172.01 176.68L167.60 179.84L166.60 180.56L164.99 181.68L163.06 183.16L162.07 183.92L158.88 186.20L156.48 187.40L154.44 188.42L151.60 189.68L149.66 190.54L146.47 191.19L143.68 191.76L139.87 195.38L138.69 198.49L138.59 202.10L137.12 205.54L135.95 208.27L135.67 209.23L132.63 213.04L130.27 214.91L129.37 215.99L128.04 217.60L129.46 222.13L130.58 223.13L131.49 223.69L132.59 224.05L133.72 224.26L135.02 224.79L136.78 225.03L138.19 225.45L139.48 225.68L140.52 225.77L143.49 226.11L145.70 226.31L147.39 226.61L148.86 227.17L150.33 227.55L151.29 227.68L152.44 227.59L153.42 227.30L154.54 226.96L155.83 226.48L157.28 226.21L157.49 227.59L157.62 228.55L157.48 230.31L157.47 231.95L157.22 233.89L157.03 235.32L157.15 236.34L157.31 237.29L157.17 238.50L157.01 239.77L156.84 241.39L156.91 242.40L157.10 243.32L157.69 244.26L158.03 245.27L158.37 246.44L158.89 247.91L159.16 248.89L159.54 250.02L159.82 251.17L160.15 252.29L160.49 253.26L160.79 254.28L161.22 255.67L161.40 256.69L160.92 257.87L160.72 259.42L161.09 260.59L161.30 261.91L161.68 263.58L161.87 264.48L162.69 265.95L163.05 266.78L162.37 268.80L161.95 270.19L161.32 271.02L160.73 272.59L160.24 273.41L159.91 274.80L160.62 275.87L161.66 276.63L163.98 278.37L164.91 279.02L167.17 281.22L168.60 282.70L169.49 283.64L170.69 284.11L173.24 284.07L175.27 284.38L177.13 284.88L179.69 285.66L184.09 287.20L184.94 287.77L187.06 288.75L188.50 289.12L190.06 289.56L191.11 289.35L193.09 289.21L194.43 289.32L195.41 289.41L197.09 290.11L198.48 291.08L199.55 292.56L200.37 294.37L206.02 293.72L207.97 293.23L209.81 292.73L210.86 292.53L218.77 290.05L219.63 289.78L221.97 289.03L233.93 285.49L237.23 284.87L240.18 283.99L241.97 283.50L242.98 283.23L244.43 282.82L245.51 282.62L249.70 281.70L250.67 281.27L253.50 279.89L254.66 279.42L256.93 279.04L258.52 278.57L260.66 278.04L262.65 277.69L265.37 277.22L266.77 277.08L268.06 276.99L269.21 276.80L270.89 276.38L272.85 276.03L273.16 275.08L275.49 274.50L277.69 273.53L278.73 273.17L279.55 272.71L281.17 272.02L282.57 271.45L283.91 270.97L284.83 270.82L287.23 270.69L290.50 270.53L292.88 270.40L293.99 270.33L295.33 270.26L296.51 270.27L297.91 270.35L298.87 270.40L301.36 270.35L302.66 269.71L303.64 269.23L304.53 268.77L306.61 267.70L309.40 266.82L310.41 266.53L311.87 266.03L312.71 265.76L314.97 264.86L315.78 264.35L316.59 263.83L317.90 262.94L319.08 262.25L320.98 260.71L321.89 259.85L323.70 258.06L324.38 257.38L325.19 256.32L325.85 255.65L326.92 254.35L327.17 253.15L327.50 251.31L327.64 249.68L328.02 247.56L328.52 244.56L326.42 244.73L325.34 244.81L324.28 244.67L323.25 244.17L322.02 243.77L320.41 242.71L318.84 242.00L317.23 242.16L314.76 242.10L313.68 242.40L312.25 242.99L311.35 243.22L310.36 244.07L308.75 245.29L307.68 246.02L306.10 246.63L304.73 246.53L304.19 245.81L303.60 244.83L302.53 243.94L301.15 243.21L300.07 242.27L299.32 241.12L298.35 239.44L297.37 238.12L296.14 237.52L295.37 236.85L294.31 236.07L293.20 235.69L291.69 235.04L290.62 234.97L289.61 234.79L288.13 234.47L286.44 234.13L285.30 233.04L285.03 231.92L284.75 230.77L284.60 229.14L284.69 227.92L284.83 226.49L284.90 225.12L285.46 222.90L286.43 221.84L287.10 220.59L288.05 219.26L288.75 218.12L289.29 217.37L289.65 216.16L290.11 215.39L290.15 214.37L290.12 213.12L289.19 212.00L288.22 210.86L287.39 209.87L285.91 209.33L284.71 208.88L284.30 208.81L282.58 208.52L281.54 208.29L280.45 207.95L279.49 207.62L278.55 207.27L277.85 206.95L277.43 206.57L276.64 205.61L276.26 204.85L275.63 203.64L275.42 203.04L275.30 202.03L275.36 201.13L275.50 200.30L275.75 199.38L276.07 198.44L276.46 197.73L276.94 197.13L277.64 196.37L278.24 195.81L278.90 195.26L279.64 194.79L282.05 193.73L283.23 193.22L284.11 192.77L284.73 192.31L285.38 191.75L286.25 190.99L286.97 190.26L287.47 189.77L288.12 189.12L288.95 188.55L292.23 186.71L293.29 185.95L294.40 185.17L295.31 184.59L296.90 183.50L299.65 181.51L301.19 180.67L302.53 179.86L304.09 178.96L305.27 178.38L306.38 177.92L307.42 177.54L310.44 176.22L311.62 175.80L312.89 175.25L314.53 174.20L314.97 173.58L315.30 172.73L315.47 171.56L315.49 170.73L315.62 169.65L315.92 167.26L316.02 165.51L316.14 164.27L316.41 159.79L316.69 158.63L317.15 157.25L317.35 156.20L317.55 155.28L318.46 152.51L318.76 151.37L319.01 149.67L319.00 148.36L318.83 147.20L318.67 146.17L318.83 142.27L318.94 141.19L319.03 140.06L319.12 138.93L319.18 137.85L319.27 137.00L319.50 136.06L320.24 132.24Z" data-ward="14" /><path id="ward-8" class="ward" d="M416.18 178.85L414.75 178.04L413.00 176.98L411.92 176.30L410.52 175.28L409.81 174.61L408.78 173.66L407.82 172.87L406.77 171.80L404.99 170.66L403.85 170.29L401.92 170.22L400.77 170.22L399.38 170.39L397.87 170.90L395.79 171.91L394.67 172.74L392.80 173.98L391.70 174.70L389.86 175.88L387.86 176.82L385.88 177.35L383.99 177.64L382.91 177.68L381.89 177.81L380.36 178.03L379.30 178.10L377.39 178.37L376.20 178.62L375.27 178.88L374.18 179.40L373.24 180.09L372.46 182.25L371.99 183.05L371.30 184.22L370.76 185.15L372.55 185.54L374.51 186.29L375.70 186.75L377.68 187.72L379.79 188.39L380.74 188.69L382.73 188.68L385.24 188.28L387.53 187.30L389.38 186.21L390.93 185.03L392.80 183.75L394.48 182.62L395.27 182.08L397.10 180.76L399.44 179.17L400.94 179.06L402.23 178.96L404.48 179.94L405.46 180.93L406.46 181.93L407.04 182.88L407.83 184.17L409.02 185.27L410.54 186.59L411.29 187.24L412.29 190.50L411.67 193.95L410.22 195.68L408.80 197.38L408.17 198.16L406.24 200.79L404.31 203.96L402.65 205.72L401.64 206.45L398.90 208.40L396.57 209.74L395.62 210.41L390.48 214.02L391.46 215.97L392.02 217.07L393.28 219.51L394.17 221.21L394.75 222.75L396.46 227.04L396.81 228.85L397.85 231.57L399.79 235.27L400.67 237.18L400.80 237.32L401.75 238.36L403.06 239.20L404.99 240.36L406.18 241.06L407.60 241.74L408.52 242.18L409.51 242.67L410.05 242.90L410.24 242.98L410.88 243.44L411.80 244.07L412.49 244.37L413.87 244.61L415.18 245.26L417.49 246.00L420.77 244.11L423.81 242.89L427.65 242.38L429.44 241.03L431.37 239.56L433.49 238.15L435.34 237.51L436.31 237.17L439.46 237.56L443.67 239.30L448.16 241.94L448.37 245.10L450.44 247.86L451.54 249.93L451.57 251.10L453.04 253.68L451.66 254.31L448.61 255.71L447.13 257.33L444.89 259.79L443.49 260.75L440.91 262.55L436.93 263.91L435.97 264.37L434.14 265.24L431.03 266.73L431.96 269.36L432.59 270.44L433.37 271.87L434.15 273.31L435.71 275.47L437.18 277.32L438.50 278.61L439.74 279.52L440.76 280.07L441.60 280.52L442.65 280.67L444.02 280.86L446.44 281.19L448.75 280.73L451.78 279.93L454.58 278.62L456.61 277.47L459.08 276.05L460.03 275.33L462.69 273.28L465.40 271.93L466.99 270.74L475.00 275.92L477.17 277.32L478.29 277.77L479.42 278.24L481.32 279.10L482.29 279.46L484.26 279.90L485.38 280.02L487.98 280.01L488.48 281.91L489.05 283.64L490.11 285.23L491.04 285.97L491.92 286.33L493.30 286.70L495.05 287.40L496.01 287.58L497.73 288.19L499.57 289.13L500.23 290.07L500.89 291.01L501.19 292.41L501.22 293.69L501.25 294.96L500.92 296.67L500.44 298.60L500.99 299.85L501.99 301.02L502.89 301.71L504.81 302.72L506.20 303.71L507.46 304.20L509.73 304.90L511.75 306.81L513.03 308.50L513.48 309.39L513.92 310.27L514.13 311.28L514.34 312.30L514.46 313.34L514.46 316.36L514.73 318.03L514.86 318.93L515.19 320.50L516.19 321.65L517.56 322.59L518.74 323.75L519.89 325.24L521.11 326.88L521.85 327.78L523.26 329.72L524.09 331.24L524.81 332.31L525.50 334.13L525.86 335.80L526.16 337.22L526.74 339.59L527.55 340.23L529.30 340.93L530.33 341.31L531.32 341.27L532.76 341.65L534.14 342.16L535.16 342.34L537.08 342.66L538.57 342.79L539.05 343.62L539.65 344.39L540.17 345.14L540.79 345.86L542.84 348.51L543.96 349.49L544.84 349.31L546.17 349.03L547.08 348.68L548.30 348.22L549.70 347.94L551.42 347.74L552.72 347.58L553.65 347.70L554.82 347.62L555.72 347.14L557.19 345.87L559.39 344.13L560.12 343.44L561.39 342.47L563.89 339.85L564.97 338.50L566.80 336.59L567.49 335.61L568.63 333.09L569.81 330.90L571.11 329.54L571.84 328.67L572.45 327.83L571.25 327.44L569.83 326.53L568.87 325.75L567.85 324.52L566.38 323.40L565.47 322.93L564.71 322.35L564.04 321.61L562.50 320.40L561.76 319.86L560.94 319.38L559.65 318.28L559.98 317.42L560.32 316.57L561.18 314.88L562.26 313.47L563.09 311.66L563.91 310.20L564.98 308.72L565.89 306.69L566.61 305.38L567.21 304.43L568.19 302.87L569.07 301.08L569.53 300.05L571.06 298.98L570.15 298.12L569.22 297.24L568.35 296.41L567.38 294.30L566.65 292.61L566.02 291.46L564.65 289.52L563.89 288.87L562.50 288.06L561.13 287.74L558.94 287.92L557.34 287.70L555.28 287.41L553.23 287.16L551.34 287.19L550.10 287.24L548.77 287.29L548.41 285.73L548.12 283.75L547.81 282.45L546.00 281.25L545.05 280.97L543.59 280.41L542.84 278.70L542.33 277.59L541.79 276.66L541.08 275.49L539.77 273.91L538.91 272.21L538.18 270.97L537.25 269.79L536.54 268.98L535.71 268.02L534.92 267.19L534.07 266.32L533.23 265.92L532.15 265.46L529.65 264.11L527.02 262.68L525.88 262.53L523.53 262.65L522.41 262.90L521.06 263.28L520.03 263.64L518.18 264.14L516.56 264.40L515.09 264.69L513.63 264.99L512.18 265.28L510.55 265.63L509.08 265.93L507.38 266.25L505.75 266.57L504.41 266.82L503.14 266.59L502.09 266.29L499.21 265.59L497.86 265.44L497.22 264.50L497.45 263.08L497.51 261.99L498.00 260.58L498.60 259.01L498.90 258.02L499.08 257.11L498.95 255.95L498.97 254.78L498.85 253.45L498.73 252.13L498.56 250.37L498.42 249.12L498.80 246.81L498.87 244.40L498.97 242.42L499.05 240.58L498.96 238.75L498.82 237.86L498.64 236.63L498.53 235.42L499.09 233.31L499.58 232.49L500.37 231.60L500.99 230.76L501.44 229.97L502.37 228.83L503.31 227.73L504.58 226.33L505.44 224.61L505.76 223.71L506.21 222.64L506.64 221.57L507.39 219.83L508.33 217.98L509.08 216.28L509.29 215.27L508.30 213.54L508.36 211.71L508.19 210.02L508.46 207.61L508.84 205.30L509.31 203.55L509.50 202.68L509.13 201.23L508.09 200.01L507.13 199.04L505.25 197.50L504.42 196.29L502.60 196.15L500.67 195.77L499.75 195.53L498.21 195.44L496.83 195.24L495.87 195.21L494.55 195.31L493.10 195.55L490.64 196.21L488.50 196.65L486.26 196.96L485.37 197.12L483.15 197.53L481.50 197.99L479.61 198.14L477.33 198.06L475.35 198.01L473.02 197.79L471.15 197.77L470.06 197.71L468.92 197.47L467.60 197.31L465.88 197.10L463.01 196.58L462.05 195.78L461.63 194.89L461.28 193.54L461.57 191.79L462.10 189.96L462.40 188.60L462.37 187.34L461.64 185.93L460.16 184.62L458.68 183.57L457.74 182.92L456.30 182.03L454.49 180.61L452.60 179.12L451.08 177.76L450.31 177.07L449.10 175.98L446.39 175.29L443.56 176.27L441.68 177.21L441.03 177.82L439.56 178.73L438.17 180.03L436.89 181.12L435.88 181.76L433.83 182.98L432.96 183.56L432.13 184.12L430.76 185.00L428.98 186.13L427.98 186.40L427.00 186.59L425.36 186.63L424.04 186.16L423.37 185.40L422.42 183.81L421.28 182.41L419.81 181.11L418.51 180.21L416.18 178.85Z" data-ward="8" /><path id="ward-4" class="ward" d="M650.79 180.47L649.41 179.84L648.17 180.93L647.44 181.83L646.40 182.17L645.36 182.51L644.22 183.20L645.53 184.17L646.49 184.51L646.52 185.68L646.02 186.68L645.56 188.20L645.43 189.25L645.33 190.27L645.34 192.15L645.23 193.79L645.32 195.12L645.39 196.35L645.49 198.18L645.93 199.79L646.40 200.88L646.79 202.12L646.84 203.18L646.19 204.18L644.89 204.65L643.86 204.71L642.64 204.87L641.35 205.01L639.46 204.82L638.24 204.80L636.76 204.81L634.61 204.76L633.29 204.72L632.68 207.36L632.76 208.90L632.86 211.33L633.19 213.36L634.23 215.54L635.02 218.00L635.45 220.01L635.57 222.10L636.71 223.80L637.77 224.85L639.04 227.86L639.91 229.41L641.29 230.37L642.54 231.70L641.78 232.58L639.13 233.53L637.72 233.69L636.38 234.50L635.79 236.45L635.74 237.47L635.76 238.80L635.91 239.76L636.09 240.83L637.03 243.03L637.49 243.91L637.15 245.12L636.98 246.96L636.80 248.35L637.35 249.54L636.63 250.18L635.85 250.62L635.51 251.82L635.25 253.88L635.61 255.98L636.74 257.34L637.39 258.56L638.10 259.86L638.60 262.14L639.38 262.58L640.14 264.58L639.81 266.57L638.80 268.90L638.34 270.83L637.36 272.99L636.74 274.64L636.58 275.83L637.26 278.56L637.12 280.31L636.96 281.30L636.52 283.49L636.33 285.18L635.99 286.11L635.06 287.17L634.08 289.00L633.45 290.32L632.90 292.93L633.48 294.73L634.33 295.79L635.19 296.32L636.56 297.51L637.36 298.31L638.20 300.41L638.37 301.52L638.70 303.76L639.07 305.64L639.50 307.73L640.17 310.79L640.67 313.21L641.22 315.20L641.47 316.88L641.69 318.44L641.84 321.49L641.91 324.22L641.93 325.31L641.95 327.12L641.79 329.42L641.91 332.14L642.93 332.12L644.73 332.11L647.21 332.18L650.28 333.71L651.03 334.65L651.87 334.94L652.80 335.30L653.97 335.73L655.32 336.08L656.75 336.65L657.78 337.13L659.17 337.48L661.57 337.33L663.30 336.63L664.35 336.15L665.33 336.62L666.75 337.45L668.55 338.35L669.46 338.75L670.33 339.11L672.21 339.89L673.48 340.37L674.69 341.05L675.72 341.91L676.67 342.14L677.77 342.40L679.55 342.99L681.22 343.47L682.75 343.92L683.64 344.19L684.86 344.56L686.69 345.13L688.47 345.63L689.52 345.92L690.62 346.23L691.61 346.51L693.58 346.99L695.38 347.69L697.43 348.49L698.68 349.11L700.86 349.83L702.67 350.38L704.44 350.57L705.35 350.54L706.26 350.24L708.06 349.65L709.47 349.08L711.09 348.43L713.25 347.79L715.16 347.22L715.98 346.85L717.15 346.33L719.28 344.98L719.84 344.01L720.32 343.07L720.79 341.55L721.12 340.57L721.56 338.74L722.13 337.27L722.35 336.19L722.77 335.25L723.53 333.46L724.69 331.80L725.46 330.92L725.94 330.14L726.90 329.32L727.95 327.86L728.68 327.06L729.38 326.39L730.36 325.56L731.95 324.00L732.91 323.02L733.93 322.10L734.74 321.18L735.48 320.22L736.38 319.04L737.55 317.53L738.20 316.73L738.92 315.68L739.57 314.27L739.31 312.82L738.63 310.90L738.23 309.02L738.31 308.01L738.37 307.08L738.75 306.17L739.38 305.26L740.25 304.44L741.14 303.35L741.91 302.24L743.38 300.64L744.56 299.39L745.42 298.46L746.52 297.25L747.12 296.47L747.68 295.60L749.15 294.05L750.41 292.14L751.23 290.98L751.76 289.93L752.76 287.88L753.19 287.07L754.25 284.83L754.83 283.78L755.90 283.03L753.56 282.32L752.34 282.10L749.79 282.02L748.30 282.05L746.81 282.09L744.33 281.24L741.79 278.08L738.52 276.89L737.68 276.44L737.00 275.68L736.45 274.87L735.64 272.61L735.16 270.44L734.94 268.93L734.86 267.57L734.80 266.65L734.58 265.43L734.41 264.43L733.55 263.12L734.01 261.37L734.10 259.31L733.31 257.01L733.22 256.01L733.11 254.76L732.49 251.81L732.27 250.80L732.54 249.03L731.97 247.58L731.55 246.78L731.12 245.75L730.69 244.72L729.43 243.70L727.40 242.06L726.50 240.91L725.61 239.77L726.71 239.25L727.22 237.74L727.82 235.98L728.45 233.33L728.77 231.74L729.01 230.01L729.13 228.86L729.27 227.58L728.74 226.13L727.43 224.99L726.29 224.45L724.59 223.94L723.21 223.98L721.95 224.02L720.97 224.18L719.84 224.34L718.24 224.56L717.08 224.70L714.63 224.93L712.26 225.11L710.36 225.28L706.86 224.88L704.27 223.65L703.02 222.94L701.24 221.92L699.86 221.22L698.18 220.40L696.64 219.60L695.06 218.80L693.42 217.86L691.87 216.89L690.73 216.09L688.71 214.66L687.78 213.75L686.86 212.84L686.41 211.96L685.55 210.22L684.67 207.87L684.16 206.80L683.61 205.63L682.47 203.74L681.01 201.79L680.21 200.95L679.01 199.68L677.55 198.34L676.06 196.86L674.80 195.73L673.08 194.19L672.01 193.12L670.03 191.69L668.96 190.92L668.00 190.23L666.42 189.21L665.58 188.73L664.07 187.92L663.28 187.49L661.77 186.85L660.01 186.20L659.02 185.85L658.08 185.13L657.15 183.30L656.02 182.83L654.81 182.36L653.74 181.94L652.16 181.24L650.79 180.47Z" data-ward="4" /><path id="ward-13" class="ward" d="M6.86 223.16L7.23 224.16L7.95 226.08L8.72 228.30L9.04 229.22L8.93 230.57L8.84 231.77L8.76 232.79L7.98 234.25L7.25 235.63L5.77 238.79L4.03 242.51L1.87 246.32L1.50 247.28L0.67 249.40L0.05 251.87L0.04 253.56L0.00 257.22L0.91 260.45L1.45 262.36L2.40 265.86L2.83 267.46L4.48 272.87L5.71 277.04L6.67 280.29L7.44 282.93L8.14 284.76L9.26 287.67L10.13 289.03L10.98 290.42L11.90 291.56L12.60 292.71L14.02 294.43L15.49 296.54L16.15 297.66L16.43 299.96L16.17 301.39L15.86 303.05L17.61 303.72L20.07 306.15L21.89 307.20L23.14 308.57L24.91 310.52L26.88 312.69L27.68 313.72L30.31 316.70L32.48 318.39L33.42 319.11L33.54 320.38L33.68 321.73L33.87 322.90L34.68 323.63L36.68 324.37L37.66 324.71L39.03 325.17L40.83 325.64L42.07 326.13L42.99 326.51L43.86 326.87L42.28 328.66L40.50 330.08L38.80 332.13L37.95 333.16L37.50 335.51L37.52 336.58L37.56 338.30L37.18 339.97L38.75 341.20L40.17 342.31L44.01 342.73L45.50 342.66L46.98 342.58L49.15 342.13L50.89 341.68L51.79 341.43L53.33 340.85L54.99 338.61L55.99 337.19L56.70 336.20L58.06 333.44L59.13 331.73L59.54 330.72L62.73 330.82L65.68 330.25L68.37 329.74L70.67 328.46L72.06 327.72L73.16 327.29L75.13 326.53L76.43 326.12L77.74 325.72L79.79 325.08L81.83 323.91L84.14 324.26L85.20 324.42L87.55 324.75L89.11 325.15L90.42 325.44L91.72 325.73L93.88 324.86L95.88 324.35L97.01 323.41L97.88 321.43L100.04 319.15L101.27 318.42L102.01 317.78L103.97 316.26L105.71 314.91L108.89 313.57L111.32 313.58L114.51 313.06L117.17 312.32L118.07 312.09L118.97 311.86L121.56 311.38L122.63 311.31L124.17 311.32L125.77 311.72L127.35 312.26L129.65 311.63L130.65 309.55L131.19 308.41L132.05 306.68L132.66 305.49L135.00 300.44L136.07 297.49L136.42 294.95L136.62 291.50L136.31 288.14L136.42 284.90L136.47 283.55L136.90 282.56L137.40 281.41L137.90 280.26L139.77 277.06L140.26 274.32L141.39 271.90L143.18 270.24L144.95 268.75L146.20 267.95L147.55 266.99L149.97 267.10L152.31 267.75L154.72 268.16L155.77 269.14L156.48 269.95L158.33 271.82L160.24 273.41L160.73 272.59L161.32 271.02L161.95 270.19L162.37 268.80L163.05 266.78L162.69 265.95L161.87 264.48L161.68 263.58L161.30 261.91L161.09 260.59L160.72 259.42L160.92 257.87L161.40 256.69L161.22 255.67L160.79 254.28L160.49 253.26L160.15 252.29L159.82 251.17L159.54 250.02L159.16 248.89L158.89 247.91L158.37 246.44L158.03 245.27L157.69 244.26L157.10 243.32L156.91 242.40L156.84 241.39L157.01 239.77L157.17 238.50L157.31 237.29L157.15 236.34L157.03 235.32L157.22 233.89L157.47 231.95L157.48 230.31L157.62 228.55L157.49 227.59L157.28 226.21L155.83 226.48L154.54 226.96L153.42 227.30L152.44 227.59L151.29 227.68L150.33 227.55L148.86 227.17L147.39 226.61L145.70 226.31L143.49 226.11L140.52 225.77L139.48 225.68L138.19 225.45L136.78 225.03L135.02 224.79L133.72 224.26L132.59 224.05L131.49 223.69L130.58 223.13L129.46 222.13L128.04 217.60L126.11 218.80L123.88 220.20L122.07 221.18L119.78 223.30L117.40 224.49L116.10 225.14L115.27 224.51L114.16 223.68L112.83 222.68L111.97 222.02L110.83 220.95L109.59 219.79L108.09 218.38L107.06 217.26L105.65 215.72L104.50 213.34L103.79 211.87L103.30 209.70L102.92 208.02L103.25 206.87L103.60 205.65L104.16 203.69L104.66 201.94L105.12 200.33L103.10 200.01L101.38 199.74L101.54 198.22L101.71 196.64L101.75 195.30L101.66 194.15L101.39 192.68L101.18 191.50L100.62 190.19L99.73 188.06L95.22 189.07L92.57 189.70L90.58 190.18L89.30 190.11L88.11 190.16L86.27 189.69L84.46 189.22L83.45 188.45L82.45 187.69L81.52 186.94L80.65 186.53L78.40 185.34L76.59 185.88L74.74 186.45L73.12 186.94L72.30 187.80L70.79 189.39L70.01 190.21L69.33 190.92L67.55 192.36L64.90 193.95L60.72 195.85L58.88 197.12L57.90 197.79L56.84 198.52L56.03 199.78L55.27 200.97L53.73 203.75L52.90 206.18L51.62 206.77L50.35 207.36L48.32 207.97L45.45 208.82L43.94 209.37L42.25 209.99L40.80 210.52L39.89 210.86L37.95 211.32L36.84 211.60L33.55 211.77L32.39 211.77L31.46 211.77L29.64 211.77L27.47 211.63L26.43 211.75L24.78 211.72L22.71 211.68L21.55 211.70L20.07 211.71L19.02 211.78L17.81 211.86L15.72 212.84L13.92 213.68L13.10 214.07L11.66 214.86L10.62 215.04L8.98 215.32L7.73 215.53L6.55 215.73L6.60 216.95L6.65 217.95L6.69 218.92L6.81 221.85L6.86 223.16Z" data-ward="13" /><path id="ward-5" class="ward" d="M781.32 282.39L779.65 282.14L777.98 281.89L777.09 281.49L775.24 281.03L774.10 280.60L771.41 279.74L769.45 279.37L768.27 279.31L766.45 279.20L764.35 279.91L763.16 280.31L760.45 281.23L758.04 282.18L755.90 283.03L754.83 283.78L754.25 284.83L753.19 287.07L752.76 287.88L751.76 289.93L751.23 290.98L750.41 292.14L749.15 294.05L747.68 295.60L747.12 296.47L746.52 297.25L745.42 298.46L744.56 299.39L743.38 300.64L741.91 302.24L741.14 303.35L740.25 304.44L739.38 305.26L738.75 306.17L738.37 307.08L738.31 308.01L738.23 309.02L738.63 310.90L739.31 312.82L739.57 314.27L738.92 315.68L738.20 316.73L737.55 317.53L736.38 319.04L735.48 320.22L734.74 321.18L733.93 322.10L732.91 323.02L731.95 324.00L730.36 325.56L729.38 326.39L728.68 327.06L727.95 327.86L726.90 329.32L725.94 330.14L725.46 330.92L724.69 331.80L723.53 333.46L722.77 335.25L722.35 336.19L722.13 337.27L721.56 338.74L721.12 340.57L720.79 341.55L720.32 343.07L719.84 344.01L719.28 344.98L717.15 346.33L715.98 346.85L715.16 347.22L713.25 347.79L711.09 348.43L709.47 349.08L708.06 349.65L706.26 350.24L705.35 350.54L704.44 350.57L702.67 350.38L700.86 349.83L698.68 349.11L697.43 348.49L695.38 347.69L693.58 346.99L691.61 346.51L690.62 346.23L689.52 345.92L688.47 345.63L686.69 345.13L684.86 344.56L683.64 344.19L682.75 343.92L681.22 343.47L679.55 342.99L677.77 342.40L676.67 342.14L675.72 341.91L675.37 342.79L674.92 343.91L673.69 346.21L672.72 349.37L672.05 351.02L670.80 353.93L669.87 356.10L669.15 357.79L667.46 360.27L666.09 361.85L666.87 363.39L666.60 368.32L666.72 369.88L666.24 371.60L665.90 372.82L664.38 374.48L663.14 375.84L663.18 377.90L662.46 380.16L661.72 382.52L662.71 384.47L661.90 387.87L661.66 390.87L662.84 390.63L665.67 390.30L667.16 390.06L668.45 389.84L670.81 389.42L672.74 389.36L673.82 389.32L675.72 389.45L677.29 389.55L678.79 389.84L680.49 390.17L683.14 390.63L684.97 390.94L686.40 391.19L687.37 391.36L689.83 392.62L691.79 393.63L692.49 394.35L694.34 396.25L695.93 396.83L698.45 397.75L701.45 399.12L702.65 399.66L704.32 400.42L705.91 401.08L707.06 401.55L709.24 402.45L710.32 402.90L712.16 403.81L714.21 404.83L717.76 406.41L718.97 406.94L720.60 407.94L721.70 408.62L722.79 409.28L724.37 409.45L725.54 409.57L728.22 410.23L730.03 410.67L731.56 411.04L732.56 411.27L734.59 411.74L736.12 412.09L737.60 412.43L739.19 412.80L740.56 412.90L741.47 412.96L742.37 413.03L744.97 413.06L747.96 413.10L749.06 412.82L750.17 412.53L751.60 412.05L753.04 411.57L753.92 411.24L755.97 409.63L758.33 407.77L759.07 407.14L761.41 404.73L761.87 403.96L762.37 403.13L762.92 402.21L763.62 401.43L764.91 399.91L766.60 397.91L768.02 396.24L768.65 395.44L770.34 394.13L771.83 392.98L772.59 392.46L773.96 391.56L775.51 390.60L776.50 389.54L777.06 388.83L777.60 387.91L778.08 386.97L778.85 385.72L779.31 384.59L779.79 382.69L781.40 384.10L782.85 385.33L784.72 386.89L785.51 387.53L788.15 389.18L789.35 389.66L790.58 389.62L791.54 389.56L792.57 389.44L793.61 389.33L795.03 389.26L796.41 388.82L797.90 388.61L799.01 388.42L800.21 388.26L802.26 388.14L803.31 388.22L804.36 388.30L805.22 388.71L806.28 389.24L807.31 389.95L808.50 390.53L810.53 392.02L811.56 393.02L812.53 394.49L812.84 396.13L813.33 398.10L813.50 400.10L813.99 401.79L814.22 402.76L814.13 403.93L813.61 405.16L813.31 406.24L813.05 407.20L813.30 408.37L813.65 410.52L813.06 413.82L814.22 414.24L817.30 413.87L819.12 413.04L819.85 412.29L820.76 411.80L821.94 411.12L823.72 409.60L824.99 409.08L826.02 408.68L826.99 407.62L827.93 406.78L828.85 405.78L829.67 404.89L829.95 403.37L830.36 402.36L830.93 401.28L832.21 399.63L832.70 398.80L833.22 397.97L833.83 396.48L834.77 394.26L835.52 393.07L836.63 391.49L837.25 390.72L837.70 389.94L838.58 388.45L839.15 387.60L839.98 385.93L840.17 384.92L840.37 383.83L839.97 382.89L840.26 380.95L840.46 380.07L841.24 379.14L841.94 378.39L842.79 377.00L842.97 375.13L843.50 373.57L843.96 372.22L844.43 370.86L844.90 369.51L845.64 367.35L845.77 366.30L846.24 365.46L846.71 364.61L847.51 364.03L849.82 362.70L851.31 361.84L852.97 360.47L854.24 358.85L854.75 356.92L855.16 355.36L856.17 352.23L855.90 350.90L855.67 349.76L855.38 348.34L855.03 347.14L854.78 346.26L854.49 345.29L853.84 343.05L853.58 341.90L851.95 341.50L850.92 341.24L849.90 340.99L848.84 340.73L847.67 340.46L846.81 340.27L845.73 340.92L844.67 341.55L843.86 340.97L842.70 340.10L841.58 337.80L840.70 335.98L841.08 334.49L841.40 333.21L842.97 331.86L844.33 330.75L845.28 329.98L844.84 329.02L844.46 328.20L844.08 327.36L843.30 326.18L842.48 324.93L841.59 322.94L841.18 322.01L840.53 320.64L839.89 319.26L840.15 318.02L842.04 315.07L842.73 314.04L842.92 312.57L843.04 311.68L843.23 308.85L842.98 306.96L842.82 305.56L842.71 304.59L843.67 300.94L844.90 298.78L845.82 297.22L846.44 295.16L847.40 292.00L846.65 291.52L844.05 289.86L842.88 289.66L841.86 289.49L840.62 289.62L838.53 289.84L837.02 289.98L834.85 290.25L833.93 290.37L832.79 290.23L831.18 290.14L830.26 290.50L828.94 291.01L826.83 291.83L825.31 292.42L823.80 293.01L821.42 293.67L819.44 293.98L817.89 294.23L816.62 294.43L813.82 293.96L812.42 293.43L811.50 293.41L810.40 293.39L809.49 293.36L808.30 293.31L807.06 293.04L805.04 292.44L803.99 292.16L802.95 291.65L801.90 290.73L800.61 289.44L799.66 288.77L797.47 287.40L796.47 286.79L795.45 286.17L793.57 284.93L792.72 284.36L791.23 283.28L789.88 282.39L788.34 281.42L787.09 280.83L785.29 281.87L782.24 282.39L781.32 282.39Z" data-ward="5" /><path id="ward-11" class="ward" d="M331.13 244.41L328.52 244.56L328.02 247.56L327.64 249.68L327.50 251.31L327.17 253.15L326.92 254.35L325.85 255.65L325.19 256.32L324.38 257.38L323.70 258.06L321.89 259.85L320.98 260.71L319.08 262.25L317.90 262.94L316.59 263.83L315.78 264.35L314.97 264.86L312.71 265.76L311.87 266.03L310.41 266.53L309.40 266.82L306.61 267.70L304.53 268.77L303.64 269.23L302.66 269.71L301.36 270.35L298.87 270.40L297.91 270.35L296.51 270.27L295.33 270.26L293.99 270.33L292.88 270.40L290.50 270.53L287.23 270.69L284.83 270.82L283.91 270.97L282.57 271.45L281.17 272.02L279.55 272.71L278.73 273.17L277.69 273.53L275.49 274.50L273.16 275.08L272.85 276.03L270.89 276.38L269.21 276.80L268.06 276.99L266.77 277.08L265.37 277.22L262.65 277.69L260.66 278.04L258.52 278.57L256.93 279.04L254.66 279.42L253.50 279.89L250.67 281.27L252.72 284.18L254.74 287.24L256.65 289.90L257.06 291.19L257.71 293.10L261.01 302.90L262.74 305.76L263.89 307.66L262.21 308.94L260.36 309.73L258.77 310.69L257.72 311.74L256.75 312.17L255.12 312.99L253.71 313.06L252.66 313.05L250.69 312.99L249.15 312.76L248.05 312.73L246.50 312.58L245.18 312.78L244.25 314.90L243.54 316.56L242.66 318.17L242.20 319.50L241.23 321.16L239.90 323.66L239.51 324.56L240.48 326.59L241.16 327.49L242.09 328.81L242.90 330.45L243.73 331.97L244.42 333.53L245.20 335.11L246.06 336.72L246.53 337.79L258.57 359.93L260.44 363.38L261.15 364.48L262.09 366.14L262.56 367.26L261.48 368.52L258.60 369.92L257.27 370.53L256.32 371.11L254.61 371.91L253.57 372.73L252.05 373.00L249.95 374.03L249.06 374.57L247.28 375.67L245.51 376.76L244.62 377.30L243.71 378.31L243.37 379.21L243.02 380.12L242.18 382.35L241.51 384.11L240.96 385.33L239.01 387.64L237.50 388.28L236.40 387.98L235.50 387.75L233.90 387.32L232.55 386.95L231.53 386.63L230.64 386.32L229.76 385.98L228.36 385.45L226.56 385.15L225.37 385.65L224.45 386.52L223.77 387.21L222.67 388.21L221.06 389.19L219.50 390.54L218.34 389.16L216.97 387.30L215.17 386.95L214.03 387.10L212.46 387.34L211.47 388.78L211.04 390.93L210.56 392.25L209.83 393.85L209.58 395.20L209.36 396.09L209.16 397.47L208.82 398.34L208.02 399.10L207.43 400.71L206.39 402.91L205.34 405.04L203.38 409.66L206.32 409.94L208.27 410.13L209.16 410.48L211.16 411.36L213.68 412.73L214.34 413.47L215.47 414.73L217.47 415.51L218.94 416.08L219.68 417.73L220.43 419.37L220.16 421.10L220.00 422.10L220.51 423.55L221.41 426.14L221.66 427.20L221.59 428.36L221.53 429.51L220.47 431.73L220.54 433.48L220.48 435.29L220.36 436.40L220.27 437.64L220.36 438.57L221.08 439.60L221.80 440.62L222.45 441.75L223.11 442.88L223.79 444.09L224.35 445.09L224.50 447.81L224.95 448.59L225.27 449.47L226.50 451.64L227.82 452.75L229.50 453.21L230.83 453.94L231.87 455.20L232.23 456.12L233.21 457.46L233.64 459.11L234.69 460.50L235.61 462.13L236.12 463.22L237.53 463.83L239.32 463.71L240.39 463.39L241.36 463.10L242.25 463.05L244.23 462.95L245.28 462.62L246.90 462.18L250.12 462.46L253.89 463.44L254.17 464.51L255.89 465.47L259.66 463.68L260.71 464.17L261.69 463.22L262.57 461.97L261.90 460.97L263.32 460.50L264.74 461.07L265.46 462.24L266.97 463.28L267.97 463.93L268.97 464.58L270.52 465.76L271.20 466.56L273.49 467.27L274.49 467.58L276.61 468.24L277.58 468.81L280.63 470.58L284.34 472.71L286.25 472.39L287.14 472.39L288.04 472.40L290.53 472.56L291.35 471.83L292.41 469.48L293.01 468.71L293.89 468.20L294.77 467.69L295.68 467.93L296.59 468.18L297.76 468.35L298.67 468.48L300.27 467.85L302.37 467.41L304.18 467.03L305.98 466.63L306.21 465.65L305.54 464.32L305.42 460.14L306.47 457.37L307.29 455.43L308.11 453.50L307.93 452.30L307.73 450.94L308.80 449.51L309.72 449.51L312.28 450.57L313.21 450.95L314.34 451.42L316.31 452.48L317.26 452.45L319.08 450.76L320.26 449.60L319.77 448.75L318.00 446.07L318.17 444.32L319.65 442.61L319.35 439.95L319.11 439.05L319.84 438.22L322.23 437.89L322.52 440.08L323.22 440.77L325.70 440.78L327.44 441.79L329.77 442.94L330.70 442.35L331.16 440.85L332.71 438.86L333.33 437.75L335.79 436.26L336.96 435.06L337.47 434.16L339.10 432.92L339.16 431.63L339.44 430.63L342.15 431.51L344.25 431.82L343.93 429.09L343.67 427.47L343.49 426.33L343.34 424.94L343.65 423.45L344.79 422.03L346.94 421.38L348.18 421.02L349.24 420.74L351.53 420.07L352.80 419.22L353.29 417.28L354.38 415.01L354.65 413.95L353.72 412.92L350.23 411.44L349.73 410.60L348.30 408.17L344.44 405.01L343.75 404.25L341.19 401.12L340.11 399.78L337.30 396.06L336.63 395.14L335.50 393.26L334.31 391.11L332.25 386.00L332.45 383.99L333.77 382.66L334.71 381.74L335.64 380.83L336.83 379.66L338.05 378.45L339.19 377.33L340.25 376.29L341.29 375.20L342.07 374.32L343.88 372.30L345.26 371.34L346.66 370.54L347.90 369.82L349.04 369.02L349.71 368.43L351.91 366.54L352.79 366.19L353.83 365.81L355.44 364.07L356.12 362.75L356.87 361.11L357.01 358.97L356.62 357.54L355.67 356.36L354.14 355.77L350.73 356.32L348.88 356.26L346.06 356.33L344.95 356.33L343.65 356.21L342.53 355.82L341.44 353.63L341.49 352.11L341.47 350.25L341.43 349.17L341.21 346.44L340.98 342.54L341.82 341.36L345.45 338.89L346.84 337.82L348.87 336.62L350.16 335.81L351.71 334.51L352.60 334.14L354.77 333.32L356.68 332.23L357.87 331.58L358.69 331.13L359.92 330.19L361.05 329.23L362.51 327.46L362.95 326.15L363.24 324.71L362.47 323.63L361.38 323.04L359.58 322.38L357.56 321.67L355.31 321.20L353.97 321.03L351.35 320.61L349.61 320.65L346.87 320.84L344.86 322.41L342.84 323.83L340.61 326.02L337.78 327.82L335.10 330.96L332.42 333.29L330.81 334.51L329.53 335.50L327.98 336.92L327.01 338.37L325.78 340.28L324.80 341.90L323.74 342.92L321.72 343.49L320.61 342.49L319.08 340.38L318.06 338.27L317.55 337.01L317.03 335.75L315.96 333.18L314.39 331.73L309.89 327.88L307.37 327.16L306.32 326.71L305.04 326.12L303.76 325.53L302.10 324.64L298.45 323.57L297.66 323.14L296.12 322.29L294.92 321.26L294.43 319.04L295.10 317.87L295.76 316.69L296.81 315.32L298.41 313.39L299.86 311.85L301.33 311.09L303.70 310.53L304.60 310.48L305.61 310.53L306.84 310.57L308.86 310.94L310.89 311.30L311.87 310.57L312.85 310.31L313.72 309.69L315.50 308.36L316.92 306.93L317.79 306.06L318.49 304.15L319.32 301.89L319.32 298.95L319.37 297.36L319.45 295.78L319.78 293.40L319.94 292.14L320.24 290.83L320.45 289.92L320.45 288.29L320.44 287.37L320.01 285.60L319.55 283.66L319.16 281.93L318.34 280.42L316.46 276.68L315.12 275.14L314.51 274.00L314.04 272.92L314.24 270.69L314.43 269.75L314.93 267.90L315.82 267.25L316.94 266.46L317.88 265.70L318.60 265.10L320.24 263.75L320.96 263.20L322.75 261.86L324.12 260.84L324.84 260.31L326.74 258.91L329.35 258.57L330.64 258.64L333.51 258.06L335.48 257.71L337.06 257.42L339.23 255.93L341.41 254.44L342.18 252.40L343.51 250.24L343.57 248.25L343.02 245.91L342.29 243.89L340.40 242.20L338.59 243.12L337.66 243.42L336.45 243.81L335.04 243.93L332.94 244.35L331.13 244.41Z" data-ward="11" /><path id="ward-9" class="ward" d="M416.58 317.23L415.68 316.05L416.11 314.87L416.02 313.02L415.86 311.32L415.33 308.77L415.23 307.05L415.49 305.03L415.47 303.67L413.10 302.12L411.54 301.62L410.29 301.89L408.87 301.57L407.44 301.24L406.25 300.83L405.05 300.42L404.00 299.88L402.95 299.33L402.10 298.90L400.23 297.13L398.72 296.88L397.59 296.72L396.04 297.66L395.22 298.70L392.52 300.96L390.83 302.41L389.43 303.61L388.45 304.36L387.49 305.10L385.34 305.06L383.20 305.03L381.33 304.57L379.66 303.93L378.31 303.43L376.62 302.75L375.38 302.44L374.20 302.87L372.58 303.85L371.92 304.77L369.45 306.22L368.05 307.03L366.91 307.69L365.87 307.81L364.56 308.06L362.89 308.23L361.21 308.39L359.81 309.13L358.45 309.64L357.09 310.16L353.84 311.00L351.65 310.99L350.63 309.56L350.49 308.34L349.21 307.27L347.44 307.32L346.20 307.96L343.79 308.78L341.59 309.79L339.70 310.71L338.50 311.33L336.49 312.08L334.48 312.82L333.12 313.28L330.05 313.54L328.52 314.26L326.08 314.73L324.11 315.56L320.84 315.88L319.46 316.84L317.63 316.65L315.56 315.56L314.57 314.86L313.58 314.16L311.97 313.16L311.21 312.14L310.89 311.30L308.86 310.94L306.84 310.57L305.61 310.53L304.60 310.48L303.70 310.53L301.33 311.09L299.86 311.85L298.41 313.39L296.81 315.32L295.76 316.69L295.10 317.87L294.43 319.04L294.92 321.26L296.12 322.29L297.66 323.14L298.45 323.57L302.10 324.64L303.76 325.53L305.04 326.12L306.32 326.71L307.37 327.16L309.89 327.88L314.39 331.73L315.96 333.18L317.03 335.75L317.55 337.01L318.06 338.27L319.08 340.38L320.61 342.49L321.72 343.49L323.74 342.92L324.80 341.90L325.78 340.28L327.01 338.37L327.98 336.92L329.53 335.50L330.81 334.51L332.42 333.29L335.10 330.96L337.78 327.82L340.61 326.02L342.84 323.83L344.86 322.41L346.87 320.84L349.61 320.65L351.35 320.61L353.97 321.03L355.31 321.20L357.56 321.67L359.58 322.38L361.38 323.04L362.47 323.63L363.24 324.71L362.95 326.15L362.51 327.46L361.05 329.23L359.92 330.19L358.69 331.13L357.87 331.58L356.68 332.23L354.77 333.32L352.60 334.14L351.71 334.51L350.16 335.81L348.87 336.62L346.84 337.82L345.45 338.89L341.82 341.36L340.98 342.54L341.21 346.44L341.43 349.17L341.47 350.25L341.49 352.11L341.44 353.63L342.53 355.82L343.65 356.21L344.95 356.33L346.06 356.33L348.88 356.26L350.73 356.32L354.14 355.77L355.67 356.36L356.62 357.54L357.01 358.97L356.87 361.11L356.12 362.75L355.44 364.07L353.83 365.81L352.79 366.19L351.91 366.54L349.71 368.43L349.04 369.02L347.90 369.82L346.66 370.54L345.26 371.34L343.88 372.30L342.07 374.32L341.29 375.20L340.25 376.29L339.19 377.33L338.05 378.45L336.83 379.66L335.64 380.83L334.71 381.74L333.77 382.66L332.45 383.99L332.25 386.00L334.31 391.11L335.50 393.26L336.63 395.14L337.30 396.06L340.11 399.78L341.19 401.12L343.75 404.25L344.44 405.01L348.30 408.17L349.73 410.60L350.23 411.44L353.72 412.92L357.43 411.88L358.02 412.90L359.69 413.51L360.56 413.96L362.33 414.44L363.22 415.01L364.48 416.34L365.64 417.70L366.31 418.48L367.65 419.57L368.69 420.29L369.74 421.01L370.84 422.00L371.96 422.80L373.07 423.60L374.59 422.92L375.31 421.44L375.72 420.60L376.24 418.89L377.21 417.60L378.18 416.30L379.33 415.74L381.01 414.20L382.67 413.88L384.32 413.57L386.91 413.16L388.53 412.91L389.87 412.63L391.31 412.32L393.57 411.43L394.51 410.90L396.06 410.04L397.37 409.35L399.15 408.33L400.20 407.37L401.25 406.41L402.94 404.90L403.98 404.15L405.28 403.48L406.57 402.81L407.59 402.52L409.50 401.12L410.30 400.53L411.37 399.75L413.35 398.31L414.40 397.56L416.53 396.04L417.87 394.95L418.89 394.12L420.35 393.05L421.10 394.08L422.06 395.37L423.17 396.88L425.08 399.47L426.72 398.81L428.81 397.97L431.80 396.89L432.78 396.30L433.45 395.19L433.76 394.33L434.08 393.46L435.63 391.01L436.73 390.36L437.85 389.51L439.19 388.48L439.97 387.20L440.63 386.10L441.94 384.33L443.45 383.27L445.13 382.09L447.75 382.41L449.10 382.71L450.34 384.08L451.05 384.88L451.93 385.85L454.29 387.12L456.01 388.05L456.97 388.56L458.34 389.15L460.43 389.52L462.21 389.42L464.76 389.27L465.79 389.38L466.86 390.05L468.44 391.13L469.54 391.50L470.69 391.56L472.06 391.41L473.57 392.22L475.92 393.49L477.02 394.03L479.00 394.99L480.69 395.94L482.37 396.89L483.18 397.68L483.98 398.46L485.07 398.75L486.63 399.19L487.21 400.00L487.80 400.81L488.58 402.22L491.22 401.43L491.68 400.65L492.14 398.59L492.51 397.17L493.07 395.26L494.19 393.25L495.55 391.40L496.68 390.37L497.75 389.00L498.23 388.15L498.63 387.32L499.04 386.01L499.65 384.28L499.92 383.06L500.41 381.95L501.49 379.54L502.21 378.88L502.92 378.21L503.82 377.55L504.72 376.89L505.99 376.02L507.14 375.22L509.20 373.63L510.29 372.90L511.84 371.83L513.69 369.84L515.14 368.45L516.37 367.07L517.15 365.92L517.88 364.28L517.70 363.29L517.37 361.81L516.87 360.52L516.31 358.63L515.76 356.63L515.66 354.82L515.09 353.42L514.00 352.48L513.46 351.48L511.55 349.50L510.54 348.02L510.86 345.45L512.28 344.23L513.81 342.95L515.30 341.94L516.13 340.57L516.79 338.87L517.28 337.86L517.63 337.03L518.27 335.72L519.77 334.78L520.61 333.93L522.05 332.62L523.13 331.85L524.09 331.24L523.26 329.72L521.85 327.78L521.11 326.88L519.89 325.24L518.74 323.75L517.56 322.59L516.19 321.65L515.19 320.50L514.86 318.93L514.73 318.03L514.46 316.36L514.46 313.34L514.34 312.30L514.13 311.28L513.92 310.27L513.48 309.39L513.03 308.50L511.75 306.81L509.73 304.90L507.46 304.20L506.20 303.71L504.81 302.72L502.89 301.71L501.99 301.02L500.99 299.85L500.44 298.60L500.92 296.67L501.25 294.96L501.22 293.69L501.19 292.41L500.89 291.01L500.23 290.07L499.57 289.13L497.73 288.19L496.01 287.58L495.05 287.40L493.30 286.70L491.92 286.33L491.04 285.97L490.11 285.23L489.05 283.64L488.48 281.91L487.98 280.01L485.38 280.02L484.26 279.90L482.29 279.46L481.32 279.10L479.42 278.24L478.29 277.77L477.17 277.32L475.00 275.92L475.02 278.41L474.04 279.48L473.26 280.14L473.00 282.31L472.60 285.90L472.75 288.92L472.75 290.68L472.75 292.44L472.44 294.28L472.37 296.15L471.97 297.61L471.58 299.07L469.81 302.93L466.91 306.76L466.18 307.35L463.26 309.47L461.12 311.04L459.59 312.31L457.03 314.43L455.59 315.41L454.40 316.22L453.43 316.86L450.79 318.53L449.72 319.19L447.51 318.86L445.72 319.36L443.63 319.72L442.08 320.01L441.18 320.52L441.17 322.03L441.76 322.87L441.70 323.95L441.39 325.58L441.05 326.86L440.44 327.95L440.01 328.80L438.55 329.66L437.21 329.92L435.95 328.35L435.01 327.87L434.82 326.11L435.41 324.66L434.49 322.96L433.52 322.57L431.98 321.69L431.39 320.92L430.21 320.43L429.25 321.00L427.95 321.47L427.02 320.31L426.64 319.42L424.64 318.19L423.47 318.07L422.56 318.00L420.69 317.82L418.82 317.73L417.91 317.55L416.58 317.23Z" data-ward="9" /><path id="ward-3" class="ward" d="M634.50 258.08L635.69 257.48L636.74 257.34L635.61 255.98L635.25 253.88L635.51 251.82L635.85 250.62L636.63 250.18L637.35 249.54L636.80 248.35L636.98 246.96L637.15 245.12L637.49 243.91L637.03 243.03L636.09 240.83L635.91 239.76L635.76 238.80L635.74 237.47L635.79 236.45L636.38 234.50L637.72 233.69L639.13 233.53L641.78 232.58L642.54 231.70L641.29 230.37L639.91 229.41L639.04 227.86L637.77 224.85L636.71 223.80L635.57 222.10L635.45 220.01L635.02 218.00L634.23 215.54L633.19 213.36L632.86 211.33L632.76 208.90L632.68 207.36L633.29 204.72L631.84 204.54L630.93 204.40L629.39 204.35L627.86 204.21L625.66 203.85L624.68 203.74L623.28 204.00L622.01 204.19L620.60 204.26L619.33 204.17L618.04 203.88L616.99 203.87L615.68 203.80L614.43 204.07L613.13 204.26L611.69 204.61L610.22 204.87L608.93 205.20L607.75 205.50L606.60 205.60L604.91 205.50L603.62 205.22L602.70 204.88L601.85 204.50L600.57 203.78L599.78 203.05L598.18 201.93L597.24 200.91L596.44 199.87L595.55 198.75L594.34 197.70L593.27 196.98L592.05 196.31L590.76 195.66L589.36 194.98L588.10 194.52L586.85 194.34L585.19 194.00L583.95 193.92L582.97 193.83L582.03 193.78L580.01 193.49L579.02 193.41L577.68 193.12L576.80 192.92L575.59 192.73L574.16 192.68L572.90 192.54L571.68 192.48L570.51 192.35L569.38 192.32L567.53 192.45L566.17 192.50L564.90 192.64L564.02 192.80L562.86 193.20L561.57 193.13L560.32 193.48L558.62 193.79L557.39 193.80L556.15 193.54L554.45 193.44L552.97 193.33L552.04 193.24L551.04 193.08L549.18 192.84L547.99 192.56L546.73 192.35L544.70 192.06L543.73 191.97L542.64 191.84L541.59 191.75L540.58 191.50L539.51 191.69L538.47 191.77L537.55 191.82L536.31 191.90L535.03 192.17L533.54 192.43L532.50 192.67L531.55 192.85L529.82 192.87L528.61 192.43L526.97 192.26L525.42 192.12L523.84 192.13L522.40 191.98L520.95 191.88L519.22 191.59L518.21 191.58L517.24 191.57L515.59 191.74L514.50 192.63L513.58 193.27L512.51 194.10L510.86 194.63L509.54 194.98L507.46 195.61L506.06 195.98L504.42 196.29L505.25 197.50L507.13 199.04L508.09 200.01L509.13 201.23L509.50 202.68L509.31 203.55L508.84 205.30L508.46 207.61L508.19 210.02L508.36 211.71L508.30 213.54L509.29 215.27L509.08 216.28L508.33 217.98L507.39 219.83L506.64 221.57L506.21 222.64L505.76 223.71L505.44 224.61L504.58 226.33L503.31 227.73L502.37 228.83L501.44 229.97L500.99 230.76L500.37 231.60L499.58 232.49L499.09 233.31L498.53 235.42L498.64 236.63L498.82 237.86L498.96 238.75L499.05 240.58L498.97 242.42L498.87 244.40L498.80 246.81L498.42 249.12L498.56 250.37L498.73 252.13L498.85 253.45L498.97 254.78L498.95 255.95L499.08 257.11L498.90 258.02L498.60 259.01L498.00 260.58L497.51 261.99L497.45 263.08L497.22 264.50L497.86 265.44L499.21 265.59L502.09 266.29L503.14 266.59L504.41 266.82L505.75 266.57L507.38 266.25L509.08 265.93L510.55 265.63L512.18 265.28L513.63 264.99L515.09 264.69L516.56 264.40L518.18 264.14L520.03 263.64L521.06 263.28L522.41 262.90L523.53 262.65L525.88 262.53L527.02 262.68L529.65 264.11L532.15 265.46L533.23 265.92L534.07 266.32L534.92 267.19L535.71 268.02L536.54 268.98L537.25 269.79L538.18 270.97L538.91 272.21L539.77 273.91L541.08 275.49L541.79 276.66L542.33 277.59L542.84 278.70L543.59 280.41L545.05 280.97L546.00 281.25L547.81 282.45L548.12 283.75L548.41 285.73L548.77 287.29L550.10 287.24L551.34 287.19L553.23 287.16L555.28 287.41L557.34 287.70L558.94 287.92L561.13 287.74L562.50 288.06L563.89 288.87L564.65 289.52L566.02 291.46L566.65 292.61L567.38 294.30L568.35 296.41L569.22 297.24L570.15 298.12L571.06 298.98L572.16 299.72L573.90 299.90L574.86 299.95L576.81 300.06L577.78 299.97L578.73 299.89L579.89 299.82L580.97 299.51L582.05 299.20L583.38 299.11L586.10 298.91L587.29 298.79L588.24 298.82L589.71 298.88L590.73 298.32L592.11 297.62L593.55 297.35L595.13 297.05L596.46 296.97L598.30 296.81L599.50 296.54L602.32 295.94L603.47 294.78L604.42 292.96L605.16 290.91L605.55 289.86L605.91 288.19L606.21 286.82L606.68 285.29L608.44 283.05L609.40 281.72L610.38 280.16L610.87 279.38L611.31 278.40L611.70 276.59L611.83 275.54L612.52 274.60L613.45 273.56L614.40 272.37L615.95 270.75L616.78 268.52L617.81 266.10L618.36 265.38L619.82 263.64L620.69 263.31L622.05 262.98L623.32 262.50L624.87 262.03L626.17 261.65L627.25 261.09L629.19 260.43L630.06 260.17L631.06 259.69L632.08 259.16L633.41 258.57L634.50 258.08Z" data-ward="3" /><path id="ward-1" class="ward" d="M415.69 43.47L413.89 43.43L412.88 43.40L411.61 43.37L410.03 42.18L409.17 41.53L408.20 40.86L407.05 40.07L405.29 38.86L404.19 38.09L402.98 37.26L400.90 35.16L398.22 32.43L395.26 29.56L392.78 27.14L391.88 26.27L389.49 23.97L388.04 22.50L386.67 21.24L385.48 20.14L384.22 19.28L381.62 17.57L379.02 15.72L376.20 13.94L373.85 12.33L372.76 11.40L370.77 9.70L368.88 8.09L367.70 7.08L365.70 5.37L363.73 3.68L362.06 2.22L360.80 1.22L357.95 0.00L357.08 1.29L356.36 2.40L355.51 3.70L354.90 4.63L354.39 5.41L353.62 6.50L353.04 7.31L352.41 8.21L351.61 9.33L350.99 10.21L350.37 11.08L349.66 12.12L348.86 13.27L348.22 14.20L347.50 15.25L346.85 16.18L346.10 17.26L345.37 18.31L344.26 19.95L343.48 21.10L342.94 21.91L342.39 22.70L341.79 23.56L340.76 25.05L340.14 25.94L339.45 26.93L338.83 27.64L338.16 28.41L337.40 30.57L337.06 31.54L336.73 32.48L336.50 33.38L336.15 34.76L335.71 36.52L335.12 38.86L334.78 40.21L334.48 41.39L334.18 42.59L332.48 49.32L330.84 50.21L329.73 51.34L329.19 53.50L328.20 54.68L327.01 57.66L324.59 60.18L324.35 60.50L327.29 62.53L328.98 63.74L331.07 65.31L332.02 65.89L332.07 65.91L332.94 66.48L333.77 66.96L334.47 67.37L335.16 67.75L335.72 68.16L336.17 68.88L336.27 69.18L336.38 69.54L336.38 70.23L336.06 71.03L335.72 71.32L335.69 71.36L335.45 71.69L335.13 72.02L334.84 72.28L334.41 72.59L332.32 73.58L329.92 73.88L327.74 74.10L325.91 74.50L321.38 74.53L319.33 74.47L316.04 74.67L315.27 74.70L314.48 74.84L313.56 75.12L312.81 75.54L311.98 75.77L311.36 76.04L310.32 76.60L309.75 77.04L309.31 77.76L308.89 78.70L308.46 79.58L308.09 80.24L308.00 82.11L308.06 83.11L307.99 84.12L307.91 85.28L307.82 86.10L307.59 87.00L307.45 87.64L306.39 89.47L305.77 90.46L305.34 91.15L304.46 91.86L303.54 92.44L302.47 93.28L301.57 93.79L299.34 95.43L298.91 95.60L298.08 96.04L297.86 96.16L297.44 96.33L296.88 96.55L296.79 96.56L296.41 96.60L295.71 96.90L293.84 97.57L293.17 97.89L292.29 98.47L291.58 99.07L291.08 99.58L290.63 100.13L290.31 100.59L290.11 101.11L290.03 101.56L289.93 102.35L289.98 102.73L290.16 103.28L290.45 103.78L290.79 104.03L291.07 104.48L291.50 104.87L291.65 104.96L292.35 105.50L293.16 106.05L293.72 106.39L295.83 107.44L296.55 107.78L298.78 108.21L299.64 108.23L300.91 108.26L302.32 108.03L303.44 107.82L304.43 107.67L306.04 107.09L308.92 106.60L311.51 106.15L311.77 106.10L312.26 106.08L314.02 106.05L314.56 106.07L316.30 106.11L316.50 106.14L317.21 106.26L319.06 106.97L319.74 107.36L320.93 107.59L322.76 107.75L323.78 107.76L324.75 107.81L325.86 107.82L327.14 107.93L327.53 108.01L330.25 108.60L331.08 108.93L331.95 109.40L332.73 109.98L332.74 110.01L332.99 110.44L333.01 110.46L333.08 110.99L333.08 111.42L333.04 111.86L332.64 113.48L332.39 113.91L332.09 114.28L331.67 114.65L331.21 114.94L330.66 115.16L329.99 115.29L329.25 115.36L328.38 115.47L325.73 116.48L324.95 116.73L324.09 117.06L322.98 117.55L322.05 117.97L321.32 118.47L320.95 119.17L320.87 119.82L320.70 121.19L320.68 121.99L320.65 123.25L320.50 127.35L320.44 128.80L320.40 130.77L320.24 132.24L319.50 136.06L319.27 137.00L319.18 137.85L319.12 138.93L319.03 140.06L318.94 141.19L318.83 142.27L318.67 146.17L318.83 147.20L319.00 148.36L319.01 149.67L318.76 151.37L318.46 152.51L317.55 155.28L317.35 156.20L317.15 157.25L316.69 158.63L316.41 159.79L316.14 164.27L316.02 165.51L315.92 167.26L315.62 169.65L315.49 170.73L315.47 171.56L315.30 172.73L314.97 173.58L314.53 174.20L312.89 175.25L311.62 175.80L310.44 176.22L307.42 177.54L306.38 177.92L305.27 178.38L304.09 178.96L302.53 179.86L301.19 180.67L299.65 181.51L296.90 183.50L295.31 184.59L294.40 185.17L293.29 185.95L292.23 186.71L288.95 188.55L288.12 189.12L287.47 189.77L286.97 190.26L286.25 190.99L285.38 191.75L284.73 192.31L284.11 192.77L283.23 193.22L282.05 193.73L279.64 194.79L278.90 195.26L278.24 195.81L277.64 196.37L276.94 197.13L276.46 197.73L276.07 198.44L275.75 199.38L275.50 200.30L275.36 201.13L275.30 202.03L275.42 203.04L275.63 203.64L276.26 204.85L276.64 205.61L277.43 206.57L277.85 206.95L278.55 207.27L279.49 207.62L280.45 207.95L281.54 208.29L282.58 208.52L284.30 208.81L284.71 208.88L285.91 209.33L287.39 209.87L288.22 210.86L289.19 212.00L290.12 213.12L290.15 214.37L290.11 215.39L289.65 216.16L289.29 217.37L288.75 218.12L288.05 219.26L287.10 220.59L286.43 221.84L285.46 222.90L284.90 225.12L284.83 226.49L284.69 227.92L284.60 229.14L284.75 230.77L285.03 231.92L285.30 233.04L286.44 234.13L288.13 234.47L289.61 234.79L290.62 234.97L291.69 235.04L293.20 235.69L294.31 236.07L295.37 236.85L296.14 237.52L297.37 238.12L298.35 239.44L299.32 241.12L300.07 242.27L301.15 243.21L302.53 243.94L303.60 244.83L304.19 245.81L304.73 246.53L306.10 246.63L307.68 246.02L308.75 245.29L310.36 244.07L311.35 243.22L312.25 242.99L313.68 242.40L314.76 242.10L317.23 242.16L318.84 242.00L320.41 242.71L322.02 243.77L323.25 244.17L324.28 244.67L325.34 244.81L326.42 244.73L328.52 244.56L331.13 244.41L332.94 244.35L335.04 243.93L336.45 243.81L337.66 243.42L338.59 243.12L340.40 242.20L339.75 241.16L338.94 239.53L339.11 237.91L339.30 236.69L339.50 235.21L339.57 233.97L339.57 232.78L340.05 231.20L340.44 230.11L341.29 227.71L341.95 226.48L342.64 225.41L343.71 224.15L344.51 223.18L345.47 221.98L346.61 220.50L347.16 219.32L347.36 218.33L347.55 217.06L347.64 215.97L347.49 214.95L347.11 212.99L346.69 212.08L345.93 210.54L345.12 208.95L344.48 207.09L344.19 205.70L344.13 203.64L345.90 202.58L346.77 202.27L348.13 201.77L349.42 201.22L350.31 200.69L351.20 200.31L351.95 199.67L353.75 198.46L355.24 197.57L356.16 196.86L357.36 195.48L358.17 194.89L359.07 194.24L360.21 193.59L361.32 193.61L362.31 193.20L364.71 192.32L365.90 191.76L366.85 191.04L367.75 190.31L368.60 188.98L369.12 188.15L370.76 185.15L371.30 184.22L371.99 183.05L372.46 182.25L373.24 180.09L372.32 178.34L372.28 177.16L372.29 174.98L372.22 173.30L372.16 172.16L372.10 170.87L372.28 169.27L372.40 167.18L372.68 165.15L372.90 163.73L373.36 162.20L373.99 160.48L374.71 158.77L375.39 157.47L376.15 156.31L377.66 154.72L378.90 153.76L380.28 152.89L381.57 152.10L382.88 151.29L384.30 150.29L385.38 149.78L386.61 148.92L388.35 148.74L390.08 148.35L391.85 147.90L392.74 147.76L393.71 147.52L395.67 147.12L398.03 146.11L398.87 145.71L400.63 144.85L403.38 143.97L404.27 143.33L405.28 142.32L406.36 141.64L407.73 141.44L409.84 141.02L411.75 140.78L412.67 140.79L414.48 140.73L415.50 140.73L417.23 140.68L419.54 140.90L420.08 140.11L420.73 138.97L421.38 137.99L422.48 136.84L424.02 135.22L425.24 133.92L425.84 132.81L426.84 131.33L427.96 130.63L428.87 130.06L429.74 129.78L431.11 129.34L432.11 128.77L432.47 127.79L432.68 126.42L433.03 124.55L433.11 123.65L433.26 121.90L433.50 120.99L433.70 120.10L434.06 118.84L434.26 117.95L434.51 117.01L435.12 115.43L435.55 114.26L436.06 112.97L436.49 111.85L437.03 109.17L437.73 108.23L438.66 107.18L439.51 106.28L439.93 104.79L440.34 103.45L440.74 101.81L441.16 100.84L441.92 99.16L442.17 98.29L443.15 97.04L443.79 96.22L444.46 95.15L445.07 94.39L445.64 93.44L446.98 91.53L447.81 90.17L448.68 89.11L450.00 87.62L450.87 86.84L451.21 85.98L451.62 84.88L452.01 84.01L452.98 82.59L454.27 81.35L455.90 79.63L456.74 78.99L458.87 78.08L461.24 77.07L463.05 76.52L465.53 75.30L467.05 73.33L468.33 71.70L468.92 70.46L472.12 68.76L473.00 67.03L474.28 64.24L475.26 63.26L476.75 62.96L479.63 62.40L481.86 61.34L480.14 59.82L478.30 58.18L474.92 55.19L473.56 53.97L471.70 52.52L470.39 51.54L469.42 50.81L468.38 50.03L467.14 49.10L465.97 48.22L464.20 46.90L462.52 46.34L461.22 45.96L459.92 45.57L458.65 45.20L457.07 44.73L455.80 44.35L454.41 43.94L452.92 43.50L450.75 42.86L449.32 42.44L447.81 41.99L446.11 41.90L444.86 41.83L443.51 41.76L442.29 41.70L440.85 41.62L438.86 41.52L437.20 41.45L436.21 41.40L435.30 41.36L433.88 41.30L432.63 41.25L431.23 40.26L429.69 40.03L427.35 41.03L426.33 41.70L423.58 42.31L422.23 42.60L420.86 42.90L418.03 43.53L415.69 43.47Z" data-ward="1" /><path id="ward-10" class="ward" d="M411.29 187.24L410.54 186.59L409.02 185.27L407.83 184.17L407.04 182.88L406.46 181.93L405.46 180.93L404.48 179.94L402.23 178.96L400.94 179.06L399.44 179.17L397.10 180.76L395.27 182.08L394.48 182.62L392.80 183.75L390.93 185.03L389.38 186.21L387.53 187.30L385.24 188.28L382.73 188.68L380.74 188.69L379.79 188.39L377.68 187.72L375.70 186.75L374.51 186.29L372.55 185.54L370.76 185.15L369.12 188.15L368.60 188.98L367.75 190.31L366.85 191.04L365.90 191.76L364.71 192.32L362.31 193.20L361.32 193.61L360.21 193.59L359.07 194.24L358.17 194.89L357.36 195.48L356.16 196.86L355.24 197.57L353.75 198.46L351.95 199.67L351.20 200.31L350.31 200.69L349.42 201.22L348.13 201.77L346.77 202.27L345.90 202.58L344.13 203.64L344.19 205.70L344.48 207.09L345.12 208.95L345.93 210.54L346.69 212.08L347.11 212.99L347.49 214.95L347.64 215.97L347.55 217.06L347.36 218.33L347.16 219.32L346.61 220.50L345.47 221.98L344.51 223.18L343.71 224.15L342.64 225.41L341.95 226.48L341.29 227.71L340.44 230.11L340.05 231.20L339.57 232.78L339.57 233.97L339.50 235.21L339.30 236.69L339.11 237.91L338.94 239.53L339.75 241.16L340.40 242.20L342.29 243.89L343.02 245.91L343.57 248.25L343.51 250.24L342.18 252.40L341.41 254.44L339.23 255.93L337.06 257.42L335.48 257.71L333.51 258.06L330.64 258.64L329.35 258.57L326.74 258.91L324.84 260.31L324.12 260.84L322.75 261.86L320.96 263.20L320.24 263.75L318.60 265.10L317.88 265.70L316.94 266.46L315.82 267.25L314.93 267.90L314.43 269.75L314.24 270.69L314.04 272.92L314.51 274.00L315.12 275.14L316.46 276.68L318.34 280.42L319.16 281.93L319.55 283.66L320.01 285.60L320.44 287.37L320.45 288.29L320.45 289.92L320.24 290.83L319.94 292.14L319.78 293.40L319.45 295.78L319.37 297.36L319.32 298.95L319.32 301.89L318.49 304.15L317.79 306.06L316.92 306.93L315.50 308.36L313.72 309.69L312.85 310.31L311.87 310.57L310.89 311.30L311.21 312.14L311.97 313.16L313.58 314.16L314.57 314.86L315.56 315.56L317.63 316.65L319.46 316.84L320.84 315.88L324.11 315.56L326.08 314.73L328.52 314.26L330.05 313.54L333.12 313.28L334.48 312.82L336.49 312.08L338.50 311.33L339.70 310.71L341.59 309.79L343.79 308.78L346.20 307.96L347.44 307.32L349.21 307.27L350.49 308.34L350.63 309.56L351.65 310.99L353.84 311.00L357.09 310.16L358.45 309.64L359.81 309.13L361.21 308.39L362.89 308.23L364.56 308.06L365.87 307.81L366.91 307.69L368.05 307.03L369.45 306.22L371.92 304.77L372.58 303.85L374.20 302.87L375.38 302.44L376.62 302.75L378.31 303.43L379.66 303.93L381.33 304.57L383.20 305.03L385.34 305.06L387.49 305.10L388.45 304.36L389.43 303.61L390.83 302.41L392.52 300.96L395.22 298.70L396.04 297.66L397.59 296.72L398.72 296.88L400.23 297.13L402.10 298.90L402.95 299.33L404.00 299.88L405.05 300.42L406.25 300.83L407.44 301.24L408.87 301.57L410.29 301.89L411.54 301.62L413.10 302.12L415.47 303.67L415.49 305.03L415.23 307.05L415.33 308.77L415.86 311.32L416.02 313.02L416.11 314.87L415.68 316.05L416.58 317.23L417.91 317.55L418.82 317.73L420.69 317.82L422.56 318.00L423.47 318.07L424.64 318.19L426.64 319.42L427.02 320.31L427.95 321.47L429.25 321.00L430.21 320.43L431.39 320.92L431.98 321.69L433.52 322.57L434.49 322.96L435.41 324.66L434.82 326.11L435.01 327.87L435.95 328.35L437.21 329.92L438.55 329.66L440.01 328.80L440.44 327.95L441.05 326.86L441.39 325.58L441.70 323.95L441.76 322.87L441.17 322.03L441.18 320.52L442.08 320.01L443.63 319.72L445.72 319.36L447.51 318.86L449.72 319.19L450.79 318.53L453.43 316.86L454.40 316.22L455.59 315.41L457.03 314.43L459.59 312.31L461.12 311.04L463.26 309.47L466.18 307.35L466.91 306.76L469.81 302.93L471.58 299.07L471.97 297.61L472.37 296.15L472.44 294.28L472.75 292.44L472.75 290.68L472.75 288.92L472.60 285.90L473.00 282.31L473.26 280.14L474.04 279.48L475.02 278.41L475.00 275.92L466.99 270.74L465.40 271.93L462.69 273.28L460.03 275.33L459.08 276.05L456.61 277.47L454.58 278.62L451.78 279.93L448.75 280.73L446.44 281.19L444.02 280.86L442.65 280.67L441.60 280.52L440.76 280.07L439.74 279.52L438.50 278.61L437.18 277.32L435.71 275.47L434.15 273.31L433.37 271.87L432.59 270.44L431.96 269.36L431.03 266.73L434.14 265.24L435.97 264.37L436.93 263.91L440.91 262.55L443.49 260.75L444.89 259.79L447.13 257.33L448.61 255.71L451.66 254.31L453.04 253.68L451.57 251.10L451.54 249.93L450.44 247.86L448.37 245.10L448.16 241.94L443.67 239.30L439.46 237.56L436.31 237.17L435.34 237.51L433.49 238.15L431.37 239.56L429.44 241.03L427.65 242.38L423.81 242.89L420.77 244.11L417.49 246.00L415.18 245.26L413.87 244.61L412.49 244.37L411.80 244.07L410.88 243.44L410.24 242.98L410.05 242.90L409.51 242.67L408.52 242.18L407.60 241.74L406.18 241.06L404.99 240.36L403.06 239.20L401.75 238.36L400.80 237.32L400.67 237.18L399.79 235.27L397.85 231.57L396.81 228.85L396.46 227.04L394.75 222.75L394.17 221.21L393.28 219.51L392.02 217.07L391.46 215.97L390.48 214.02L395.62 210.41L396.57 209.74L398.90 208.40L401.64 206.45L402.65 205.72L404.31 203.96L406.24 200.79L408.17 198.16L408.80 197.38L410.22 195.68L411.67 193.95L412.29 190.50L411.29 187.24Z" data-ward="10" /><path id="ward-6" class="ward" d="M606.30 421.69L606.65 423.76L606.18 424.58L605.17 426.34L603.72 428.85L601.06 430.71L599.74 432.01L598.68 433.23L597.58 434.76L596.72 436.28L596.35 437.25L595.45 440.39L594.94 444.19L594.52 447.44L593.82 452.92L594.05 458.82L594.12 460.65L594.02 463.05L593.77 463.91L592.47 468.35L589.12 471.98L581.93 472.55L581.47 474.15L580.56 477.33L582.33 477.45L583.40 477.52L585.55 477.66L586.61 477.67L587.66 477.33L589.09 476.86L590.01 476.45L590.79 475.94L592.51 476.34L594.11 476.01L595.05 476.82L595.95 477.59L595.70 479.06L595.15 482.31L594.96 485.02L594.88 486.24L594.33 488.45L599.99 489.24L601.79 489.49L604.22 488.01L606.52 486.61L607.76 488.19L609.08 489.88L610.19 490.41L611.43 491.52L613.41 492.25L622.36 490.03L629.59 488.24L633.75 487.21L634.81 489.90L635.85 489.62L637.74 489.11L638.75 488.84L640.36 488.70L641.98 488.57L644.84 489.94L646.57 489.85L648.12 489.93L649.45 489.69L650.57 489.50L652.11 488.88L653.35 488.38L654.29 488.00L655.84 487.37L657.14 486.85L658.40 486.44L660.31 485.88L661.97 485.39L663.44 484.96L664.58 484.86L665.73 484.76L668.17 485.46L668.74 486.33L669.30 487.19L670.47 487.26L671.75 487.22L674.52 487.15L675.64 486.58L676.75 486.01L677.91 485.47L681.04 484.07L682.01 483.42L683.04 482.25L684.07 481.07L685.06 479.81L685.88 479.37L686.89 479.19L688.57 478.77L689.04 477.37L688.93 476.39L688.81 475.32L689.22 474.45L690.00 473.52L691.07 474.31L692.37 475.26L693.63 476.08L695.76 476.96L698.04 477.88L699.77 478.58L701.89 479.44L704.05 480.52L705.83 481.40L707.95 482.46L709.07 483.02L710.35 483.66L712.08 484.53L713.23 485.70L713.86 486.34L715.18 487.69L716.52 489.05L717.82 490.38L718.80 491.37L720.46 492.46L721.98 493.45L723.35 494.34L724.48 495.34L725.60 496.34L726.41 497.06L727.56 498.28L728.37 499.14L729.30 499.31L730.65 499.64L732.43 500.09L734.10 500.58L735.44 501.38L736.56 502.05L737.47 502.70L738.45 503.46L739.24 504.08L740.78 505.28L743.43 506.63L744.65 507.26L745.66 507.77L748.03 509.06L748.71 510.29L749.28 511.34L749.89 512.45L750.59 514.08L751.29 515.71L751.56 517.85L751.73 519.24L751.91 520.60L752.19 523.71L752.12 526.27L751.60 529.70L751.41 530.70L751.03 532.81L750.53 535.56L750.26 537.08L749.97 538.69L749.64 540.57L749.39 541.82L749.04 543.58L748.82 544.67L748.34 545.54L747.37 545.98L745.99 546.41L744.61 546.84L743.36 547.29L741.77 547.88L741.56 549.06L742.05 550.54L742.42 551.67L742.92 552.88L743.55 554.42L745.37 557.34L746.26 558.77L747.54 560.71L748.29 561.86L749.25 563.32L750.45 565.20L751.58 566.98L752.74 568.78L754.19 570.77L755.84 571.24L757.65 569.98L760.08 568.28L761.90 567.01L763.54 565.86L764.91 564.90L766.47 563.81L767.73 562.94L768.66 562.29L769.52 561.68L771.58 560.24L772.64 559.50L773.94 558.59L775.37 557.59L776.89 556.53L778.45 555.43L779.92 554.40L781.15 553.54L782.77 552.40L784.03 551.78L786.26 550.69L787.71 549.98L789.59 549.06L790.98 548.39L792.96 547.84L794.41 547.44L796.81 546.78L801.88 546.77L802.96 545.09L803.69 543.96L805.81 540.65L806.60 539.86L808.66 537.82L813.69 534.06L814.20 533.00L814.93 531.96L815.86 529.77L816.40 528.53L816.86 527.47L817.45 526.09L817.88 525.09L818.62 524.45L820.91 522.52L822.01 521.58L823.07 520.69L826.59 517.92L828.27 516.60L830.24 516.44L834.98 516.04L836.36 515.91L837.54 515.80L839.00 515.66L840.54 515.52L841.71 515.41L842.54 514.99L843.48 514.33L845.28 513.72L847.08 513.11L850.68 511.89L854.27 510.68L855.49 510.74L856.51 510.79L857.57 511.30L859.69 512.33L861.80 513.35L862.87 513.86L864.99 514.89L865.98 515.30L867.94 516.12L869.28 516.68L870.61 517.23L871.68 517.68L873.11 518.27L874.19 518.73L875.40 519.23L878.25 520.98L881.00 522.67L881.91 523.20L883.65 524.22L884.43 524.68L886.37 525.74L888.62 526.96L889.41 527.40L891.52 527.21L893.37 527.04L894.73 526.92L896.42 526.77L897.87 526.64L900.19 525.77L901.34 525.34L902.95 524.74L904.42 524.53L905.65 524.36L907.19 524.14L908.37 523.97L909.78 523.77L910.68 523.65L913.63 523.65L914.68 523.65L915.74 523.65L918.19 523.64L920.35 524.05L922.45 524.44L924.80 524.87L928.59 525.58L929.86 525.53L930.77 525.50L932.39 525.44L933.81 525.39L936.08 525.31L940.85 525.14L942.93 525.06L944.98 524.99L947.73 524.89L949.11 524.84L950.50 524.79L951.89 524.74L953.02 526.02L956.28 529.71L958.27 530.43L960.92 528.59L961.97 527.23L963.13 526.34L964.77 525.53L965.73 525.06L966.82 524.53L968.52 523.92L969.86 523.50L971.03 523.12L973.75 522.36L976.51 521.52L977.98 521.08L979.34 520.66L980.29 519.67L980.38 518.63L980.25 517.49L979.94 516.15L978.68 513.70L977.58 512.38L976.74 511.25L976.09 510.39L975.05 509.62L974.17 508.96L973.23 508.26L971.92 507.29L970.33 506.22L969.19 505.46L967.77 504.92L966.11 504.30L965.24 504.00L963.68 503.27L962.82 502.87L961.17 501.28L959.97 499.49L958.98 497.46L958.50 496.23L957.86 494.57L957.37 493.72L956.82 492.62L955.45 492.83L954.06 493.04L952.21 493.59L949.99 494.19L948.76 494.53L947.80 494.79L946.09 495.16L944.30 495.28L942.52 495.41L940.91 494.89L939.81 493.05L940.94 491.31L942.85 490.26L943.70 489.99L944.34 490.60L945.51 491.56L947.64 491.31L949.40 490.63L950.97 489.86L952.78 489.43L954.77 489.24L955.85 488.40L956.03 486.93L956.56 484.94L956.62 483.34L956.68 482.26L956.80 480.31L956.94 479.14L957.40 477.75L958.17 476.45L958.98 474.85L959.49 473.80L959.96 472.83L960.68 471.34L961.80 469.60L963.18 468.50L963.95 467.94L965.72 466.65L966.45 465.53L966.89 463.60L966.93 462.43L966.71 460.76L966.09 459.73L965.08 458.05L963.86 456.00L963.26 455.13L961.53 452.60L960.85 451.70L959.70 450.20L958.53 449.42L957.14 448.54L956.39 448.05L953.90 447.18L952.62 446.73L950.21 446.20L948.72 445.88L946.43 445.61L945.19 445.20L944.12 444.86L944.90 443.43L946.14 442.33L947.39 441.02L948.67 440.00L949.94 438.97L951.21 438.32L953.04 437.38L955.04 436.82L957.08 436.46L958.77 436.25L959.50 435.32L960.23 434.40L962.11 433.81L963.14 433.74L964.16 433.67L968.10 431.67L970.44 430.31L972.48 429.53L974.41 429.20L976.23 428.79L978.13 428.43L979.55 428.42L981.73 428.41L984.22 428.36L986.87 428.58L988.03 428.67L988.91 429.13L991.19 430.26L993.48 430.63L995.18 430.68L995.02 429.43L994.91 428.04L994.94 426.38L995.00 424.24L995.26 422.88L995.64 420.87L996.05 419.07L996.45 417.34L996.85 415.61L997.57 412.15L997.96 410.23L998.04 407.40L998.50 406.46L1000.00 406.36L999.80 404.57L999.83 403.65L999.69 402.55L999.44 400.58L999.17 398.47L998.86 396.07L998.68 394.45L997.09 394.77L995.97 394.81L994.09 394.71L992.34 394.46L990.82 393.83L988.16 392.50L987.04 392.24L985.60 392.35L984.26 392.44L981.75 392.61L980.49 391.93L979.61 391.45L978.94 390.14L976.80 389.65L975.06 388.55L974.09 387.94L972.73 387.15L971.00 386.15L969.69 385.59L968.44 385.06L966.59 384.60L964.93 384.58L963.51 384.55L961.80 384.75L960.36 384.92L959.04 385.36L957.48 385.88L955.45 386.56L954.39 386.92L952.07 387.86L950.63 388.15L949.56 388.18L948.20 388.21L945.57 387.73L942.60 386.93L940.09 385.89L937.97 384.83L936.90 384.29L935.83 383.76L933.66 382.68L931.21 381.23L929.86 380.18L928.70 379.27L927.69 378.49L926.88 377.95L925.11 376.78L923.12 375.97L920.72 374.99L919.33 375.06L918.06 375.13L915.91 375.89L913.76 375.89L912.25 375.05L910.68 374.18L909.71 373.65L908.40 372.94L907.41 372.41L906.09 371.70L905.06 371.08L903.96 370.41L902.80 369.72L902.01 369.21L901.17 368.67L900.03 367.94L898.28 366.99L897.21 367.05L894.83 367.18L892.94 366.90L891.88 366.74L890.66 367.13L889.15 367.61L887.15 367.96L886.73 369.27L887.30 371.88L886.47 374.14L885.61 376.49L884.50 379.55L883.74 381.64L882.78 381.67L880.89 381.73L879.65 382.20L877.22 383.29L875.40 383.40L873.87 383.50L871.42 383.00L870.22 382.75L866.92 383.59L861.37 383.03L854.77 381.78L853.90 381.55L849.81 380.76L846.17 379.68L844.07 379.06L842.79 377.00L841.94 378.39L841.24 379.14L840.46 380.07L840.26 380.95L839.97 382.89L840.37 383.83L840.17 384.92L839.98 385.93L839.15 387.60L838.58 388.45L837.70 389.94L837.25 390.72L836.63 391.49L835.52 393.07L834.77 394.26L833.83 396.48L833.22 397.97L832.70 398.80L832.21 399.63L830.93 401.28L830.36 402.36L829.95 403.37L829.67 404.89L828.85 405.78L827.93 406.78L826.99 407.62L826.02 408.68L824.99 409.08L823.72 409.60L821.94 411.12L820.76 411.80L819.85 412.29L819.12 413.04L817.30 413.87L814.22 414.24L813.06 413.82L813.65 410.52L813.30 408.37L813.05 407.20L813.31 406.24L813.61 405.16L814.13 403.93L814.22 402.76L813.99 401.79L813.50 400.10L813.33 398.10L812.84 396.13L812.53 394.49L811.56 393.02L810.53 392.02L808.50 390.53L807.31 389.95L806.28 389.24L805.22 388.71L804.36 388.30L803.31 388.22L802.26 388.14L800.21 388.26L799.01 388.42L797.90 388.61L796.41 388.82L795.03 389.26L793.61 389.33L792.57 389.44L791.54 389.56L790.58 389.62L789.35 389.66L788.15 389.18L785.51 387.53L784.72 386.89L782.85 385.33L781.40 384.10L779.79 382.69L779.31 384.59L778.85 385.72L778.08 386.97L777.60 387.91L777.06 388.83L776.50 389.54L775.51 390.60L773.96 391.56L772.59 392.46L771.83 392.98L770.34 394.13L768.65 395.44L768.02 396.24L766.60 397.91L764.91 399.91L763.62 401.43L762.92 402.21L762.37 403.13L761.87 403.96L761.41 404.73L759.07 407.14L758.33 407.77L755.97 409.63L753.92 411.24L753.04 411.57L751.60 412.05L750.17 412.53L749.06 412.82L747.96 413.10L744.97 413.06L742.37 413.03L741.47 412.96L740.56 412.90L739.19 412.80L737.60 412.43L736.12 412.09L734.59 411.74L732.56 411.27L731.56 411.04L730.03 410.67L728.22 410.23L725.54 409.57L724.37 409.45L722.79 409.28L721.70 408.62L720.60 407.94L718.97 406.94L717.76 406.41L714.21 404.83L712.16 403.81L710.32 402.90L709.24 402.45L707.06 401.55L705.91 401.08L704.32 400.42L702.65 399.66L701.45 399.12L698.45 397.75L695.93 396.83L694.34 396.25L692.49 394.35L691.79 393.63L689.83 392.62L687.37 391.36L686.40 391.19L684.97 390.94L683.14 390.63L680.49 390.17L678.79 389.84L677.29 389.55L675.72 389.45L673.82 389.32L672.74 389.36L670.81 389.42L668.45 389.84L667.16 390.06L665.67 390.30L662.84 390.63L661.66 390.87L659.88 391.46L657.94 392.11L656.38 392.59L654.64 393.13L652.68 393.02L650.62 392.85L648.82 393.22L647.30 393.46L645.85 393.68L644.54 394.07L642.53 394.66L641.17 398.88L640.53 400.84L637.62 403.63L633.30 409.01L632.45 410.07L629.63 413.00L624.97 412.82L622.87 415.61L618.41 416.75L615.72 417.44L614.02 416.92L612.63 416.48L610.59 415.08L609.48 413.89L605.36 412.01L603.63 410.44L602.10 409.05L603.07 407.10L604.04 405.16L600.81 406.04L599.17 406.48L597.98 407.35L596.39 408.70L594.78 410.08L594.87 412.38L591.70 414.34L593.95 417.10L595.58 416.84L598.58 416.36L600.33 416.38L602.07 416.40L604.39 417.27L604.90 418.08L605.97 419.78L606.30 421.69Z" data-ward="6" /><path id="ward-12" class="ward" d="M56.70 336.20L59.01 336.23L61.32 336.26L62.40 337.10L64.37 338.63L66.27 340.51L67.88 341.50L69.10 342.25L70.58 342.84L72.01 343.41L73.43 344.43L75.78 345.31L76.79 345.69L78.69 345.67L79.94 345.81L82.25 346.35L82.68 347.14L83.20 348.09L83.66 348.93L84.66 350.07L85.66 351.20L87.04 353.31L88.19 355.07L89.49 356.62L91.19 359.78L91.71 361.72L92.13 363.85L92.30 364.73L92.90 366.46L93.24 367.45L94.33 369.33L95.26 370.38L96.13 371.00L97.11 371.71L98.10 372.42L99.57 373.11L100.91 373.21L102.26 372.99L103.48 373.19L104.70 373.39L105.78 374.27L107.17 374.61L108.31 374.89L109.60 375.21L111.01 374.90L111.96 374.68L113.19 374.39L115.38 374.15L116.52 374.02L117.61 374.11L119.03 374.36L119.97 374.52L122.23 375.11L123.12 375.47L125.32 376.37L127.96 377.93L128.96 378.52L130.58 379.08L131.44 379.38L133.34 379.70L134.58 379.93L137.37 380.10L138.51 380.17L140.88 380.33L141.97 380.41L143.07 380.44L142.95 381.67L143.55 383.02L144.79 384.87L145.40 385.78L146.15 386.59L147.28 387.79L148.88 389.95L149.45 390.72L150.08 391.56L150.83 392.29L151.52 392.95L152.29 393.70L153.71 395.07L154.88 396.70L155.11 397.59L155.36 398.59L155.51 400.13L155.64 401.38L156.10 402.83L157.39 403.57L158.31 404.07L159.12 404.51L160.36 405.18L161.68 405.11L162.42 404.10L163.07 403.20L163.85 402.18L164.47 401.37L164.99 400.63L165.82 399.42L167.06 399.74L168.25 399.38L170.38 399.29L171.54 399.06L173.35 398.43L174.29 398.02L177.63 396.79L180.63 396.03L182.28 396.43L184.41 396.95L186.83 398.63L189.25 400.32L190.70 402.41L191.49 403.27L193.22 404.61L196.36 406.54L197.32 407.12L198.74 407.81L200.72 408.77L203.38 409.66L205.34 405.04L206.39 402.91L207.43 400.71L208.02 399.10L208.82 398.34L209.16 397.47L209.36 396.09L209.58 395.20L209.83 393.85L210.56 392.25L211.04 390.93L211.47 388.78L212.46 387.34L214.03 387.10L215.17 386.95L216.97 387.30L218.34 389.16L219.50 390.54L221.06 389.19L222.67 388.21L223.77 387.21L224.45 386.52L225.37 385.65L226.56 385.15L228.36 385.45L229.76 385.98L230.64 386.32L231.53 386.63L232.55 386.95L233.90 387.32L235.50 387.75L236.40 387.98L237.50 388.28L239.01 387.64L240.96 385.33L241.51 384.11L242.18 382.35L243.02 380.12L243.37 379.21L243.71 378.31L244.62 377.30L245.51 376.76L247.28 375.67L249.06 374.57L249.95 374.03L252.05 373.00L253.57 372.73L254.61 371.91L256.32 371.11L257.27 370.53L258.60 369.92L261.48 368.52L262.56 367.26L262.09 366.14L261.15 364.48L260.44 363.38L258.57 359.93L246.53 337.79L246.06 336.72L245.20 335.11L244.42 333.53L243.73 331.97L242.90 330.45L242.09 328.81L241.16 327.49L240.48 326.59L239.51 324.56L239.90 323.66L241.23 321.16L242.20 319.50L242.66 318.17L243.54 316.56L244.25 314.90L245.18 312.78L246.50 312.58L248.05 312.73L249.15 312.76L250.69 312.99L252.66 313.05L253.71 313.06L255.12 312.99L256.75 312.17L257.72 311.74L258.77 310.69L260.36 309.73L262.21 308.94L263.89 307.66L262.74 305.76L261.01 302.90L257.71 293.10L257.06 291.19L256.65 289.90L254.74 287.24L252.72 284.18L250.67 281.27L249.70 281.70L245.51 282.62L244.43 282.82L242.98 283.23L241.97 283.50L240.18 283.99L237.23 284.87L233.93 285.49L221.97 289.03L219.63 289.78L218.77 290.05L210.86 292.53L209.81 292.73L207.97 293.23L206.02 293.72L200.37 294.37L199.55 292.56L198.48 291.08L197.09 290.11L195.41 289.41L194.43 289.32L193.09 289.21L191.11 289.35L190.06 289.56L188.50 289.12L187.06 288.75L184.94 287.77L184.09 287.20L179.69 285.66L177.13 284.88L175.27 284.38L173.24 284.07L170.69 284.11L169.49 283.64L168.60 282.70L167.17 281.22L164.91 279.02L163.98 278.37L161.66 276.63L160.62 275.87L159.91 274.80L160.24 273.41L158.33 271.82L156.48 269.95L155.77 269.14L154.72 268.16L152.31 267.75L149.97 267.10L147.55 266.99L146.20 267.95L144.95 268.75L143.18 270.24L141.39 271.90L140.26 274.32L139.77 277.06L137.90 280.26L137.40 281.41L136.90 282.56L136.47 283.55L136.42 284.90L136.31 288.14L136.62 291.50L136.42 294.95L136.07 297.49L135.00 300.44L132.66 305.49L132.05 306.68L131.19 308.41L130.65 309.55L129.65 311.63L127.35 312.26L125.77 311.72L124.17 311.32L122.63 311.31L121.56 311.38L118.97 311.86L118.07 312.09L117.17 312.32L114.51 313.06L111.32 313.58L108.89 313.57L105.71 314.91L103.97 316.26L102.01 317.78L101.27 318.42L100.04 319.15L97.88 321.43L97.01 323.41L95.88 324.35L93.88 324.86L91.72 325.73L90.42 325.44L89.11 325.15L87.55 324.75L85.20 324.42L84.14 324.26L81.83 323.91L79.79 325.08L77.74 325.72L76.43 326.12L75.13 326.53L73.16 327.29L72.06 327.72L70.67 328.46L68.37 329.74L65.68 330.25L62.73 330.82L59.54 330.72L59.13 331.73L58.06 333.44L56.70 336.20Z" data-ward="12" /></svg>