<svg viewBox="0 0 1000.00 919.45" xmlns="http://www.w3.org/2000/svg"><style>.ward { fill: #e2e8f0; stroke: #fff; stroke-width: 0.5px; } .ward:hover { fill: #cbd5e1; }</style><path id="ward-13" class="ward" d="M222.48 837.57L224.10 837.12L225.59 837.24L226.77 836.47L228.58 836.33L230.67 836.36L233.23 836.11L235.43 836.47L235.75 837.62L237.13 838.01L238.48 838.04L239.52 837.09L240.33 836.35L241.67 835.76L243.68 835.69L246.22 835.79L248.20 835.94L249.18 835.40L251.70 834.03L253.09 833.27L254.52 832.49L257.10 830.74L258.20 829.37L259.55 827.89L260.92 825.83L261.49 824.57L263.68 824.85L264.82 825.43L267.48 823.10L269.62 822.60L273.39 818.84L274.22 817.74L276.66 814.53L278.53 811.83L279.58 810.45L280.82 808.84L282.06 807.32L283.46 805.55L284.79 804.26L284.57 803.14L282.97 801.03L281.56 799.17L280.25 797.43L278.83 795.54L281.46 793.55L282.70 792.61L284.21 791.46L285.29 790.65L286.63 789.85L288.71 788.71L290.10 788.05L291.34 787.69L293.02 787.19L294.27 786.84L296.47 787.13L297.66 786.44L298.84 786.11L300.51 785.63L301.58 785.20L302.84 784.72L304.62 784.04L306.65 782.96L309.00 782.40L310.67 781.83L312.36 781.25L313.70 780.99L315.28 780.67L317.36 781.36L319.74 780.72L321.71 780.65L322.85 783.44L323.67 785.47L324.16 786.66L325.23 788.95L325.70 789.95L327.25 789.92L329.14 789.88L331.16 790.62L332.67 791.50L334.14 792.35L335.68 792.96L337.82 793.80L339.85 794.60L341.05 792.00L342.12 792.42L343.20 792.83L344.31 789.61L345.12 787.22L348.74 788.09L351.41 788.73L352.95 789.10L354.18 789.55L355.68 790.09L357.56 790.74L359.96 791.66L361.20 793.95L363.21 794.91L365.00 795.76L366.89 796.46L369.56 797.49L371.70 795.86L373.58 794.84L376.06 793.79L376.99 793.02L378.83 791.48L381.63 790.42L382.88 789.94L385.32 788.98L386.83 788.15L388.01 786.55L389.35 786.06L390.57 785.62L392.93 785.78L395.26 784.77L397.26 784.60L399.52 784.40L400.82 784.28L402.87 784.09L405.57 783.85L406.43 782.66L407.34 781.10L407.52 779.36L408.43 778.05L409.90 775.94L411.97 775.32L412.83 774.19L416.35 775.04L420.62 771.85L421.36 770.63L422.37 769.31L422.80 768.24L423.89 767.88L426.26 769.22L427.51 769.48L429.16 768.91L429.56 767.60L430.08 765.65L432.97 765.31L434.04 763.94L434.27 762.27L434.53 760.37L434.59 757.52L435.05 756.18L435.85 754.91L436.91 753.59L437.78 752.16L439.21 750.53L440.64 748.91L442.03 746.29L442.42 745.12L444.48 742.39L445.49 741.20L447.10 738.63L447.59 737.44L448.18 735.33L449.66 733.79L451.27 732.37L452.38 731.63L453.75 730.48L454.82 729.56L450.21 725.40L448.09 723.49L444.26 719.24L453.73 706.77L458.87 700.16L459.96 698.69L461.05 697.22L461.69 695.13L462.06 693.96L464.34 689.04L465.51 686.51L467.62 682.82L468.77 680.80L472.17 680.73L473.74 676.97L476.55 677.23L477.09 673.10L466.91 674.51L466.94 680.22L464.74 680.70L462.54 681.18L461.43 681.77L460.25 683.00L459.06 684.24L457.44 685.22L455.72 686.27L453.21 687.16L450.79 687.86L448.36 688.56L448.77 691.97L448.94 693.36L448.41 695.50L449.43 698.42L450.23 700.66L441.85 706.51L438.84 709.98L435.75 712.67L433.00 715.05L431.94 715.37L430.29 715.22L426.99 714.91L425.36 714.75L422.05 714.44L418.80 714.76L416.36 715.69L413.93 716.62L411.80 717.70L408.45 719.40L403.87 721.85L398.96 724.66L394.18 727.38L392.23 728.22L390.60 728.91L386.31 730.74L383.90 731.77L381.40 731.49L377.39 734.85L376.27 735.79L375.25 736.68L367.94 739.99L366.22 740.81L362.92 741.90L359.98 741.71L355.36 741.91L353.98 742.41L349.21 744.13L344.73 745.75L340.45 745.51L337.30 745.81L334.15 746.11L332.96 746.34L325.06 747.86L318.70 749.89L313.33 751.60L308.94 753.48L306.05 757.88L304.32 760.51L301.70 764.50L298.02 764.98L291.34 765.86L290.30 766.19L283.92 768.19L279.45 769.32L275.12 770.41L269.70 772.13L263.63 778.71L260.93 781.64L256.67 786.26L252.26 790.45L249.81 793.64L249.07 794.60L247.03 797.74L245.28 800.07L242.58 802.23L240.60 803.81L239.48 804.71L237.67 806.91L236.12 810.19L236.42 814.66L236.53 816.22L236.07 818.25L234.04 820.84L230.38 823.15L227.83 824.76L225.07 826.63L219.32 831.02L220.61 833.58L221.91 836.13L222.48 837.57Z" data-ward="13" /><path id="ward-21" class="ward" d="M351.52 380.03L354.17 379.88L355.53 379.91L356.80 379.95L366.71 371.32L370.68 368.29L372.68 366.74L374.67 365.19L380.67 360.19L383.92 358.27L387.95 356.17L389.73 355.25L402.27 347.57L409.41 343.62L411.30 341.93L413.89 339.45L415.27 337.51L417.21 335.18L418.49 333.64L419.57 332.21L420.65 330.78L422.86 327.66L424.15 324.66L424.03 322.08L424.07 318.45L424.03 314.91L419.43 313.01L414.86 312.56L411.50 313.07L408.12 311.82L405.68 309.08L405.35 307.03L404.70 302.97L404.43 296.67L405.67 291.47L405.96 289.65L406.25 287.82L406.72 284.59L407.92 281.53L410.40 278.16L410.94 275.96L410.57 273.45L410.24 271.17L410.13 268.89L413.70 267.26L417.05 265.84L418.56 264.82L419.97 263.42L421.24 264.10L422.51 264.78L424.45 265.66L426.14 266.53L427.75 267.28L429.41 268.08L431.24 268.98L432.74 269.69L434.34 270.44L436.61 271.32L438.87 272.20L440.67 272.87L443.03 275.19L443.94 276.42L444.85 277.65L446.10 279.27L447.35 280.89L448.87 282.80L450.61 284.41L452.16 285.68L453.71 286.95L454.67 287.54L456.50 288.33L460.12 289.84L464.81 291.94L465.68 288.62L466.79 285.98L467.68 284.72L468.96 283.88L476.23 280.14L480.94 277.17L483.21 275.58L485.48 273.99L486.95 264.82L488.28 260.10L490.26 259.00L490.92 258.08L490.84 256.62L490.62 254.77L490.40 252.93L489.99 251.80L489.16 249.40L489.77 245.59L489.91 242.40L490.07 240.90L492.28 241.33L492.99 238.51L493.59 235.68L494.20 232.83L494.81 227.99L493.55 219.44L493.04 217.84L488.94 214.70L487.61 213.74L484.12 212.77L482.61 213.11L481.09 213.44L479.57 214.28L478.06 215.12L475.57 214.61L474.79 213.35L474.02 212.11L473.08 209.36L476.02 202.40L477.00 200.10L477.03 195.79L477.81 190.64L478.74 187.76L479.12 185.58L479.51 183.41L478.19 181.96L476.94 181.85L475.70 181.75L471.19 184.02L469.62 185.32L468.36 186.37L464.18 190.75L461.54 193.49L458.03 193.67L455.50 190.06L455.09 188.27L454.41 185.36L453.52 181.57L452.52 180.46L452.41 177.97L452.35 174.70L452.43 170.95L452.88 167.79L454.65 165.05L454.28 162.81L453.36 161.39L451.56 161.14L446.18 162.34L444.48 162.89L442.77 163.44L438.48 165.24L435.42 166.96L431.28 167.06L429.39 164.64L428.70 162.77L431.41 159.42L434.54 156.22L437.91 153.41L440.15 149.86L438.86 146.88L437.33 145.17L435.80 142.07L433.41 138.39L430.36 138.64L428.40 139.43L428.30 142.89L427.46 147.46L423.94 151.82L421.75 153.06L419.21 154.48L417.65 153.97L416.36 150.49L415.05 148.60L414.07 147.29L413.09 145.97L411.21 143.66L407.03 143.71L404.22 143.03L405.06 139.33L406.76 138.08L407.68 137.40L411.17 136.27L415.10 135.50L418.00 133.50L419.16 131.82L420.33 130.13L421.13 128.76L421.93 127.38L421.47 125.22L419.14 121.16L417.97 120.47L416.27 120.10L414.65 117.03L412.88 113.57L410.23 112.61L408.46 112.81L405.78 113.82L403.34 115.70L400.72 116.85L398.06 116.95L394.83 115.35L393.66 114.04L391.55 111.69L389.43 109.35L388.17 105.98L387.61 102.36L387.13 99.27L385.17 97.51L383.30 96.63L380.22 95.79L377.25 97.63L375.31 99.83L372.14 100.74L369.21 99.40L367.14 97.69L365.07 95.98L363.52 96.60L362.36 99.97L360.65 102.18L359.13 102.04L357.98 100.66L357.13 99.63L356.32 96.93L357.24 94.29L358.78 90.25L360.77 88.26L362.51 87.14L363.65 84.94L363.99 82.65L361.99 82.48L360.87 82.98L358.50 84.03L356.80 84.78L355.78 85.23L354.74 85.69L352.36 86.63L351.02 87.16L347.14 88.47L343.52 89.08L342.28 89.57L341.15 92.42L340.57 95.99L339.98 98.30L337.28 100.41L333.67 102.12L333.09 105.47L333.14 108.31L331.59 110.60L329.97 112.07L328.55 112.04L327.20 111.55L327.68 120.94L332.15 124.13L333.32 124.99L335.04 133.79L335.03 135.72L334.95 140.38L334.84 146.35L332.71 147.07L323.90 148.70L319.39 148.74L313.87 150.71L311.30 151.63L310.25 153.46L309.86 156.85L309.41 160.16L309.34 162.28L309.30 166.59L309.88 169.71L310.15 171.17L312.47 174.89L314.51 178.08L315.36 179.42L316.82 181.75L318.00 183.57L319.43 185.84L320.31 187.23L321.62 189.30L322.45 191.18L323.28 193.07L324.25 195.04L325.17 196.95L325.98 198.63L327.19 202.32L327.35 205.37L327.30 206.74L326.92 207.85L326.08 210.23L324.81 212.79L323.55 215.35L323.26 218.94L322.34 219.73L320.53 221.27L318.59 222.21L317.51 222.74L315.49 223.71L313.08 225.46L309.69 225.74L306.49 227.12L303.82 229.16L302.37 229.86L300.88 230.35L298.79 230.95L296.86 231.66L295.36 232.21L294.12 232.74L291.09 234.04L289.14 234.80L286.83 236.26L286.04 237.03L285.23 238.22L284.86 239.49L284.64 241.18L286.61 244.87L287.81 245.87L289.47 247.24L290.78 248.32L294.80 251.66L298.43 254.67L299.75 253.25L301.06 251.83L303.58 250.51L304.92 249.81L306.25 249.35L307.67 248.82L310.17 247.66L312.66 246.47L315.18 246.15L317.87 245.82L320.34 245.41L322.55 245.05L324.63 245.46L326.61 247.44L328.59 249.43L330.42 255.41L330.48 258.79L330.56 263.40L329.71 267.78L329.32 269.38L328.81 270.81L327.87 273.46L327.01 275.90L326.10 278.61L325.38 280.43L324.80 281.89L324.38 283.42L324.04 284.62L323.50 286.57L323.01 288.33L321.84 291.24L320.67 294.15L319.75 296.50L317.12 301.21L316.50 302.33L315.53 303.28L313.48 305.29L311.78 306.52L308.83 307.86L306.75 308.57L304.64 309.30L303.27 309.64L300.12 310.12L298.38 310.39L295.71 310.36L294.68 310.79L293.00 311.48L291.43 312.13L289.34 312.34L287.31 312.55L285.76 314.38L284.41 315.96L283.75 316.83L281.59 319.69L281.25 321.33L280.58 324.55L280.85 325.61L281.22 327.13L282.55 327.75L283.61 328.24L285.33 328.21L287.17 327.72L291.93 322.67L294.70 322.08L296.60 321.34L300.21 321.18L301.74 321.61L302.94 321.96L305.31 322.58L306.89 323.19L308.32 325.01L308.63 328.06L308.87 329.19L308.70 331.59L308.80 334.94L308.69 337.08L308.74 339.63L307.93 342.27L307.58 343.39L307.04 345.35L306.19 346.95L304.47 349.36L303.12 352.36L302.58 353.44L298.87 357.70L297.98 358.90L295.81 360.36L292.83 360.51L291.60 360.57L290.27 360.57L287.27 361.38L284.26 361.73L282.09 362.39L277.51 365.58L272.10 371.85L270.67 374.43L269.78 377.31L272.47 380.11L275.68 383.16L269.93 390.97L267.57 391.96L265.77 392.34L262.80 393.24L263.86 395.39L264.72 398.55L265.38 403.52L265.89 408.09L265.99 409.95L266.97 411.68L268.32 414.04L269.00 416.37L270.45 418.20L272.09 419.25L273.79 419.37L277.12 418.78L280.15 418.09L282.02 417.10L284.31 416.46L285.73 415.02L288.19 413.79L291.49 412.69L295.56 411.27L297.48 410.71L300.90 409.25L303.68 407.88L305.73 406.32L307.35 404.43L308.99 401.32L311.14 396.89L312.81 394.23L314.44 392.48L316.81 391.32L323.76 387.94L326.62 386.83L331.24 385.04L335.77 383.76L340.20 382.55L343.77 381.69L347.19 380.82L351.52 380.03Z" data-ward="21" /><path id="ward-2" class="ward" d="M569.47 7.50L567.03 5.88L563.10 5.38L559.14 4.89L556.67 4.98L554.48 5.06L553.10 4.57L550.45 4.20L547.69 4.49L546.56 4.60L545.15 4.75L542.74 5.00L540.19 5.27L538.84 5.41L537.20 5.58L535.25 5.78L533.86 5.92L532.29 6.09L531.02 6.23L529.37 6.40L527.71 6.57L525.59 6.80L523.37 7.00L523.28 8.97L523.54 20.47L528.22 20.72L529.12 22.22L530.35 23.20L529.61 30.37L528.88 31.65L528.19 32.66L528.12 34.79L527.76 39.33L527.87 40.57L526.87 42.39L524.83 43.07L522.12 42.87L520.71 43.65L520.04 46.32L519.13 50.29L518.40 53.59L518.16 54.69L517.87 55.93L517.35 58.18L522.85 58.98L524.59 59.23L528.19 59.36L530.72 59.45L536.88 60.24L541.46 61.21L545.09 62.90L548.67 64.73L545.58 66.84L540.00 71.00L537.40 74.23L534.33 77.64L532.37 80.37L531.16 82.05L530.39 83.74L529.47 85.78L528.42 87.90L527.38 90.29L526.48 93.13L522.68 102.72L518.68 112.96L513.87 124.82L504.99 136.56L498.59 144.66L495.89 149.79L493.32 152.44L491.37 155.19L488.98 158.75L486.41 161.20L483.28 164.07L482.46 165.17L479.83 167.95L477.40 170.85L476.40 171.76L475.36 172.71L472.80 174.24L469.37 175.19L465.74 176.21L459.55 179.03L458.02 179.85L453.52 181.57L454.41 185.36L455.09 188.27L455.50 190.06L458.03 193.67L461.54 193.49L464.18 190.75L468.36 186.37L469.62 185.32L471.19 184.02L475.70 181.75L476.94 181.85L478.19 181.96L479.51 183.41L479.12 185.58L478.74 187.76L477.81 190.64L477.03 195.79L477.00 200.10L476.02 202.40L473.08 209.36L474.02 212.11L474.79 213.35L475.57 214.61L478.06 215.12L479.57 214.28L481.09 213.44L482.61 213.11L484.12 212.77L487.61 213.74L488.94 214.70L493.04 217.84L493.55 219.44L494.81 227.99L494.20 232.83L493.59 235.68L492.99 238.51L492.28 241.33L493.18 244.41L495.97 248.13L497.58 251.25L497.68 256.10L497.56 257.57L498.06 263.65L499.73 265.27L503.74 267.62L506.49 268.49L508.23 267.05L508.95 263.43L510.47 259.05L515.03 257.64L518.53 257.79L523.42 260.64L526.95 262.62L532.15 254.27L535.15 249.45L539.32 241.35L541.20 237.70L542.35 235.46L542.95 234.45L543.46 232.99L544.81 229.12L545.36 227.55L546.99 223.00L553.61 200.95L554.31 198.72L553.19 196.53L549.35 194.60L549.37 192.61L549.47 190.26L549.16 187.90L549.00 185.62L548.72 183.92L548.22 181.45L547.20 178.36L547.01 176.99L546.55 175.71L545.81 174.58L545.43 173.37L546.32 170.95L547.57 168.17L551.05 161.92L553.24 158.62L554.33 156.33L555.59 153.32L556.54 151.03L557.72 147.98L558.65 145.37L559.95 142.09L560.86 139.12L561.46 137.14L561.52 135.39L561.46 133.14L561.96 131.48L563.46 131.11L565.88 130.57L567.98 130.28L569.48 129.91L568.97 126.94L568.88 124.53L568.90 122.60L568.80 119.60L568.69 117.46L568.34 115.93L571.13 114.42L575.90 111.92L577.87 110.67L579.10 110.13L582.13 109.27L584.63 108.78L586.07 108.46L588.46 107.68L589.22 104.74L589.65 102.86L590.13 100.74L591.09 97.30L594.07 98.22L595.39 86.51L596.73 84.06L598.43 80.58L600.36 78.39L602.19 76.10L603.93 74.01L606.20 76.27L608.70 76.80L610.78 75.38L612.52 73.87L613.69 72.45L614.48 70.93L616.20 68.50L616.14 65.21L617.78 63.39L621.13 61.90L623.26 61.12L627.17 60.02L629.20 59.20L630.36 58.78L629.85 56.57L629.64 55.00L628.92 52.33L628.35 51.25L627.47 50.03L626.38 47.84L626.48 45.06L625.34 45.17L622.88 44.85L623.90 42.72L623.70 41.25L623.15 37.21L623.23 36.07L623.21 34.53L623.12 32.67L622.93 30.66L623.00 29.28L622.97 26.67L623.05 25.47L623.07 23.52L622.96 20.64L622.93 17.81L622.30 16.32L621.59 13.98L619.54 12.34L618.17 13.33L616.66 14.41L615.49 15.25L614.49 16.00L613.28 16.91L611.94 17.92L611.04 19.03L608.64 21.88L607.86 23.00L606.08 24.56L604.55 25.17L603.01 25.78L599.69 27.07L597.56 26.60L596.26 26.25L594.84 25.52L591.84 23.52L588.56 21.06L586.79 20.10L582.79 17.67L581.78 17.04L578.98 15.21L576.87 13.55L576.01 12.87L573.78 11.47L572.45 10.55L570.94 9.44L569.47 7.50Z" data-ward="2" /><path id="ward-1" class="ward" d="M427.45 37.67L425.67 38.39L424.53 38.85L422.37 39.93L421.09 40.57L418.89 41.19L416.04 45.34L414.17 47.12L411.84 48.13L410.31 48.12L408.91 47.52L408.23 46.30L407.27 44.59L407.04 42.58L406.93 41.26L407.01 39.38L407.08 37.47L407.96 34.57L408.38 32.94L409.07 30.24L409.23 28.72L409.44 26.70L409.03 24.14L408.38 21.87L407.82 19.90L407.51 18.10L407.26 16.60L406.27 14.51L405.07 13.17L404.29 12.39L403.04 11.54L401.63 10.59L399.68 9.54L398.19 8.82L395.24 9.01L393.04 9.02L391.90 9.14L390.57 9.31L389.09 9.53L387.67 9.79L386.48 10.15L382.13 11.52L378.84 13.24L376.71 14.98L375.75 15.79L374.54 16.79L373.88 18.04L373.38 19.01L372.56 20.57L370.52 23.00L369.11 24.67L367.42 25.65L364.86 27.49L362.60 29.24L361.77 30.15L360.61 31.51L359.89 32.36L358.56 33.35L357.19 35.04L356.08 35.65L354.74 36.39L352.65 37.55L350.65 38.35L348.65 39.15L347.89 40.29L347.21 41.32L346.45 42.99L345.42 45.60L344.40 47.57L343.83 48.67L342.56 51.55L341.38 54.73L340.96 55.99L340.41 57.55L338.86 61.31L338.22 64.12L338.45 65.84L338.58 67.53L338.65 68.74L338.78 71.21L338.98 73.36L338.81 74.69L337.99 76.05L336.91 77.02L335.64 78.16L333.30 78.98L330.99 79.80L329.99 80.65L328.20 81.95L327.31 82.59L326.20 83.44L324.91 84.10L323.95 86.90L322.29 90.94L321.53 92.04L320.12 92.90L318.71 93.77L316.90 95.10L314.88 96.58L313.87 97.56L313.24 98.47L312.32 100.49L312.40 102.30L313.43 102.96L314.94 102.80L317.08 102.58L318.20 102.56L320.27 103.54L322.13 105.06L323.32 107.21L323.95 108.36L325.92 110.29L327.20 111.55L328.55 112.04L329.97 112.07L331.59 110.60L333.14 108.31L333.09 105.47L333.67 102.12L337.28 100.41L339.98 98.30L340.57 95.99L341.15 92.42L342.28 89.57L343.52 89.08L347.14 88.47L351.02 87.16L352.36 86.63L354.74 85.69L355.78 85.23L356.80 84.78L358.50 84.03L360.87 82.98L361.99 82.48L363.99 82.65L363.65 84.94L362.51 87.14L360.77 88.26L358.78 90.25L357.24 94.29L356.32 96.93L357.13 99.63L357.98 100.66L359.13 102.04L360.65 102.18L362.36 99.97L363.52 96.60L365.07 95.98L367.14 97.69L369.21 99.40L372.14 100.74L375.31 99.83L377.25 97.63L380.22 95.79L383.30 96.63L385.17 97.51L387.13 99.27L387.61 102.36L388.17 105.98L389.43 109.35L391.55 111.69L393.66 114.04L394.83 115.35L398.06 116.95L400.72 116.85L403.34 115.70L405.78 113.82L408.46 112.81L410.23 112.61L412.88 113.57L414.65 117.03L416.27 120.10L417.97 120.47L419.14 121.16L421.47 125.22L421.93 127.38L421.13 128.76L420.33 130.13L419.16 131.82L418.00 133.50L415.10 135.50L411.17 136.27L407.68 137.40L406.76 138.08L405.06 139.33L404.22 143.03L407.03 143.71L411.21 143.66L413.09 145.97L414.07 147.29L415.05 148.60L416.36 150.49L417.65 153.97L419.21 154.48L421.75 153.06L423.94 151.82L427.46 147.46L428.30 142.89L428.40 139.43L430.36 138.64L433.41 138.39L435.80 142.07L437.33 145.17L438.86 146.88L440.15 149.86L437.91 153.41L434.54 156.22L431.41 159.42L428.70 162.77L429.39 164.64L431.28 167.06L435.42 166.96L438.48 165.24L442.77 163.44L444.48 162.89L446.18 162.34L451.56 161.14L453.36 161.39L454.28 162.81L454.65 165.05L452.88 167.79L452.43 170.95L452.35 174.70L452.41 177.97L452.52 180.46L453.52 181.57L458.02 179.85L459.55 179.03L465.74 176.21L469.37 175.19L472.80 174.24L475.36 172.71L476.40 171.76L477.40 170.85L479.83 167.95L482.46 165.17L483.28 164.07L486.41 161.20L488.98 158.75L491.37 155.19L493.32 152.44L495.89 149.79L498.59 144.66L504.99 136.56L513.87 124.82L518.68 112.96L522.68 102.72L526.48 93.13L527.38 90.29L528.42 87.90L529.47 85.78L530.39 83.74L531.16 82.05L532.37 80.37L534.33 77.64L537.40 74.23L540.00 71.00L545.58 66.84L548.67 64.73L545.09 62.90L541.46 61.21L536.88 60.24L530.72 59.45L528.19 59.36L524.59 59.23L522.85 58.98L517.35 58.18L517.87 55.93L518.16 54.69L518.40 53.59L519.13 50.29L520.04 46.32L520.71 43.65L522.12 42.87L524.83 43.07L526.87 42.39L527.87 40.57L527.76 39.33L528.12 34.79L528.19 32.66L528.88 31.65L529.61 30.37L530.35 23.20L529.12 22.22L528.22 20.72L523.54 20.47L523.28 8.97L523.37 7.00L521.24 7.25L519.12 7.51L517.88 7.68L516.27 8.15L514.16 8.68L511.40 8.90L508.72 9.18L507.41 10.04L505.84 10.82L503.95 11.79L501.82 12.37L500.23 13.14L499.00 14.26L495.30 17.06L492.24 18.53L489.47 20.89L486.68 23.28L483.38 26.09L481.13 28.01L479.51 29.12L477.89 30.22L475.02 32.02L473.89 32.73L472.57 33.56L469.71 35.03L468.47 35.61L465.17 35.98L463.94 36.28L460.96 36.26L459.01 36.29L457.43 36.30L455.96 36.10L454.87 35.92L453.18 35.70L451.32 35.49L449.26 35.68L447.21 35.88L445.38 36.52L443.43 36.86L441.00 36.83L439.60 36.82L437.23 36.56L435.41 36.50L432.89 36.51L430.37 36.51L427.45 37.67Z" data-ward="1" /><path id="ward-9" class="ward" d="M803.00 561.75L800.33 560.86L799.28 560.52L796.86 559.45L795.22 559.98L791.27 561.25L789.61 561.79L783.88 561.39L782.14 561.26L782.56 562.61L782.24 564.20L782.00 566.30L783.33 566.56L783.70 570.92L784.03 573.87L784.43 578.54L787.42 579.27L788.75 584.31L789.70 587.82L789.78 592.25L789.88 596.29L789.95 602.11L797.21 614.86L798.85 617.75L798.77 619.28L798.47 624.45L798.21 629.31L799.57 634.39L800.67 638.53L801.86 642.86L801.68 646.37L801.41 651.44L801.53 655.05L801.64 658.10L801.44 660.29L801.13 663.34L800.23 664.71L799.46 665.81L801.36 669.63L807.42 676.18L809.36 679.44L811.15 683.56L811.79 685.87L814.70 691.41L824.67 701.32L824.25 703.21L819.85 713.70L810.58 716.33L804.68 720.30L801.75 722.27L801.61 724.28L799.07 724.43L797.53 726.91L797.86 729.24L797.38 730.36L796.48 732.45L797.11 734.61L796.69 740.04L796.65 745.42L796.62 748.80L805.52 750.73L805.87 765.34L804.60 765.98L805.11 768.29L805.53 770.70L805.69 773.27L805.59 777.27L805.57 779.05L805.32 781.01L804.80 784.84L803.21 792.24L805.39 793.58L809.70 794.92L813.86 795.96L813.20 798.36L813.42 799.51L814.80 799.88L815.91 800.24L816.10 801.55L815.67 802.91L813.94 806.11L814.92 807.77L816.60 810.75L818.83 809.91L820.07 809.04L821.72 808.68L823.38 808.31L824.21 809.12L826.39 808.75L826.11 806.83L827.14 805.94L828.17 805.05L831.27 802.95L831.29 801.01L831.32 799.08L834.48 797.83L837.51 796.62L840.00 796.58L843.41 796.52L845.30 796.62L846.52 796.70L848.85 797.12L850.17 796.95L852.19 797.12L854.05 796.74L855.13 796.40L856.16 796.82L857.99 795.76L861.09 796.24L863.40 796.60L867.43 797.23L868.81 797.45L870.77 797.88L872.99 798.37L875.68 799.20L877.69 799.20L879.56 799.20L880.73 799.19L883.02 799.19L884.28 799.14L886.09 799.07L888.39 798.97L890.33 798.90L893.24 799.70L895.75 799.18L896.92 798.77L899.84 798.08L901.76 797.63L903.08 797.32L904.34 797.02L906.30 796.36L908.18 795.72L909.31 795.34L911.27 794.68L910.34 792.32L909.18 789.34L912.03 788.54L913.42 790.69L915.01 790.19L916.45 789.74L917.94 788.82L919.23 788.09L920.80 787.20L922.14 786.44L923.49 785.16L924.36 784.34L925.60 783.16L926.60 782.22L927.07 780.88L927.71 779.06L928.68 776.32L929.31 775.41L929.92 774.51L931.17 772.70L931.79 771.79L932.41 770.88L933.03 769.98L933.66 769.07L934.90 767.27L935.52 766.36L936.14 765.46L936.76 764.55L937.39 763.64L936.68 760.51L935.92 759.80L934.24 759.63L932.31 757.18L931.46 756.10L930.37 754.45L929.62 753.57L928.58 752.37L927.60 751.21L926.73 750.20L925.93 749.27L926.56 747.12L926.89 746.02L927.63 743.50L928.22 741.51L930.34 739.92L931.21 739.26L932.30 738.44L934.43 738.20L936.17 738.00L937.25 737.88L939.00 737.68L940.46 737.51L941.91 737.35L943.09 737.21L945.40 738.32L946.52 738.86L947.53 739.35L949.56 740.32L951.20 743.10L952.34 745.04L953.11 746.34L955.19 749.90L956.42 749.68L958.29 748.72L958.69 747.05L959.03 745.57L959.52 743.52L959.77 742.44L960.14 740.86L960.49 739.38L960.96 737.41L961.40 735.52L961.71 734.23L962.13 732.45L962.45 731.05L963.05 728.54L963.50 726.60L964.10 724.08L964.58 722.05L965.79 716.89L966.47 714.01L966.98 711.86L967.85 708.16L969.64 705.70L968.99 703.30L970.52 701.49L971.44 700.41L972.41 699.28L975.43 695.77L977.56 694.96L978.90 694.44L980.59 693.79L981.16 692.20L981.62 690.95L982.38 689.53L985.58 687.52L987.15 686.53L989.37 685.14L990.34 684.53L991.52 683.16L992.23 682.32L992.95 681.49L994.51 679.66L995.60 678.38L997.48 676.72L998.30 675.99L1000.00 672.16L998.92 671.06L997.36 669.46L996.16 668.23L995.29 667.34L994.15 666.17L992.95 664.94L993.26 663.51L993.72 662.44L994.56 660.49L995.12 659.20L995.70 657.88L996.56 655.87L997.83 654.33L998.98 652.94L999.91 651.81L999.00 650.82L997.64 649.34L996.62 648.22L995.44 646.95L995.28 644.98L993.11 642.05L992.41 641.11L990.33 639.26L989.49 638.51L987.91 637.10L985.69 638.81L984.71 639.58L983.86 640.51L983.01 641.44L981.26 641.30L980.02 640.54L978.78 639.79L978.73 638.57L978.67 637.39L978.68 635.52L978.63 633.79L978.56 631.27L978.51 629.40L977.88 625.19L977.61 623.38L976.06 622.89L974.25 622.32L971.55 621.46L970.43 620.79L968.98 619.90L967.61 619.07L966.35 618.30L965.11 617.54L963.70 616.69L962.54 615.98L961.30 615.22L960.28 614.61L958.96 613.31L957.97 612.35L956.75 611.16L955.44 609.89L954.09 608.57L950.88 605.43L950.05 604.62L949.21 603.81L946.94 601.57L945.91 600.56L944.88 599.51L943.15 597.76L941.07 595.52L939.69 594.40L936.69 591.98L935.76 591.23L933.30 590.71L932.70 592.12L931.90 594.00L930.10 595.18L929.66 597.24L929.09 599.02L927.05 599.06L924.01 597.01L921.69 599.38L919.53 600.21L918.00 600.80L916.88 601.23L915.40 601.66L913.76 602.29L912.76 601.45L911.03 601.36L908.67 602.48L906.52 600.55L904.23 601.96L903.31 603.82L901.89 604.73L900.04 605.91L898.50 607.47L896.69 608.33L890.90 607.54L890.43 609.03L888.61 611.06L885.84 612.50L883.55 613.45L882.27 613.45L880.96 613.77L878.54 613.48L877.25 612.09L876.43 610.47L875.61 608.85L874.66 607.28L873.48 606.58L872.10 605.77L871.40 604.51L870.69 603.25L869.94 599.73L868.55 599.82L866.46 598.98L864.69 598.28L862.59 597.86L861.15 597.58L860.06 597.36L857.07 595.28L855.50 594.19L851.61 593.73L849.47 592.55L849.11 590.87L848.72 589.08L848.35 587.38L846.14 586.09L845.02 585.45L843.90 584.79L841.98 583.83L840.03 582.30L837.76 581.91L836.45 581.69L833.66 582.49L832.49 582.83L832.29 581.62L832.05 580.15L831.77 578.40L829.92 575.39L828.09 574.32L827.13 573.77L824.87 572.46L821.63 572.01L820.12 569.36L818.73 566.92L817.14 565.00L815.84 563.43L814.72 562.40L812.78 562.58L811.40 562.72L808.64 562.50L806.21 562.30L804.18 562.14L803.00 561.75Z" data-ward="9" /><path id="ward-12" class="ward" d="M226.19 852.33L224.62 853.10L223.29 855.89L222.88 857.02L222.18 858.98L221.73 860.15L218.90 858.18L216.19 856.28L214.85 856.54L212.57 856.52L211.65 854.45L210.28 853.95L209.01 854.05L207.92 854.30L206.84 854.06L205.86 853.55L204.78 853.01L203.61 852.23L202.03 851.05L200.45 849.22L199.74 848.12L199.46 846.10L199.35 844.22L199.29 841.97L199.12 840.47L198.15 839.23L196.60 839.31L195.05 839.39L190.90 840.21L188.22 841.20L186.01 841.37L185.50 840.01L184.16 838.58L182.42 838.85L181.28 839.17L180.17 839.38L178.21 839.78L177.17 840.90L179.77 844.66L180.96 846.58L181.06 848.54L180.92 849.70L180.38 851.24L180.13 852.42L180.26 854.15L180.63 856.27L180.72 857.42L180.93 859.35L181.15 861.28L181.53 862.91L182.10 864.16L182.98 865.91L183.86 867.67L184.93 870.42L186.64 874.57L187.31 877.55L187.72 880.09L188.04 882.52L188.24 885.78L188.05 887.93L187.89 889.89L187.83 892.08L188.00 894.91L188.15 896.51L188.53 899.87L188.56 901.37L188.74 903.89L192.17 904.46L193.73 904.22L195.63 903.92L198.04 903.54L200.95 902.72L202.80 902.01L204.67 901.28L207.25 900.28L208.87 899.65L209.99 899.21L211.96 899.32L213.35 899.49L214.48 899.35L217.14 899.01L218.98 898.85L221.55 898.58L223.06 898.42L224.30 898.63L225.74 898.87L227.45 896.27L228.59 895.31L229.59 894.19L230.63 893.30L231.97 891.72L233.68 891.09L235.85 889.14L237.72 886.14L238.90 884.26L241.88 880.82L246.12 879.53L251.00 878.94L253.12 878.68L254.68 880.05L256.55 880.19L258.28 879.81L260.33 879.45L261.30 878.62L262.21 877.84L266.83 881.90L268.98 883.79L269.43 887.52L278.56 891.23L283.00 891.80L286.27 892.34L289.76 892.72L291.04 892.86L292.91 894.28L295.70 896.39L299.27 899.09L301.28 897.99L303.66 898.17L306.35 898.37L308.26 898.77L310.13 899.08L311.61 899.54L313.34 899.99L315.04 896.90L316.74 893.82L318.31 893.68L319.84 894.32L322.22 895.32L323.97 896.06L326.43 897.10L331.07 897.75L338.27 898.80L343.15 899.51L345.77 898.84L347.09 898.53L348.53 898.28L352.60 897.65L353.27 896.15L351.21 894.35L350.02 893.52L347.67 891.90L345.63 890.39L344.43 889.50L341.10 886.90L338.05 884.43L336.32 882.85L333.36 880.63L330.40 878.42L328.94 877.73L326.27 876.57L323.60 875.40L317.43 874.71L316.80 871.83L316.46 870.71L315.81 868.61L315.28 866.71L314.75 864.80L313.73 863.41L312.67 861.98L315.86 861.70L318.06 861.86L319.36 861.97L320.93 861.67L322.51 861.38L324.69 860.63L326.87 859.89L329.66 859.18L331.70 859.02L332.99 859.08L334.83 859.56L337.11 859.78L341.93 859.59L342.73 861.17L344.35 861.37L344.95 862.37L346.43 864.83L347.56 866.72L348.60 865.58L350.87 862.68L351.70 855.89L352.28 850.94L352.85 847.83L353.54 845.66L354.80 843.63L355.99 841.50L356.30 840.22L356.40 838.59L358.71 830.67L360.41 826.45L361.66 822.42L362.90 818.91L364.79 814.32L360.31 810.95L357.90 808.14L355.45 805.28L351.99 802.13L350.71 801.15L346.42 797.87L339.85 794.60L337.82 793.80L335.68 792.96L334.14 792.35L332.67 791.50L331.16 790.62L329.14 789.88L327.25 789.92L325.70 789.95L325.23 788.95L324.16 786.66L323.67 785.47L322.85 783.44L321.71 780.65L319.74 780.72L317.36 781.36L315.28 780.67L313.70 780.99L312.36 781.25L310.67 781.83L309.00 782.40L306.65 782.96L304.62 784.04L302.84 784.72L301.58 785.20L300.51 785.63L298.84 786.11L297.66 786.44L296.47 787.13L294.27 786.84L293.02 787.19L291.34 787.69L290.10 788.05L288.71 788.71L286.63 789.85L285.29 790.65L284.21 791.46L282.70 792.61L281.46 793.55L278.83 795.54L280.25 797.43L281.56 799.17L282.97 801.03L284.57 803.14L284.79 804.26L283.46 805.55L282.06 807.32L280.82 808.84L279.58 810.45L278.53 811.83L276.66 814.53L274.22 817.74L273.39 818.84L269.62 822.60L267.48 823.10L264.82 825.43L263.68 824.85L261.49 824.57L260.92 825.83L259.55 827.89L258.20 829.37L257.10 830.74L254.52 832.49L253.09 833.27L251.70 834.03L249.18 835.40L248.20 835.94L246.22 835.79L243.68 835.69L241.67 835.76L240.33 836.35L239.52 837.09L238.48 838.04L237.13 838.01L235.75 837.62L235.43 836.47L233.23 836.11L230.67 836.36L228.58 836.33L226.77 836.47L225.59 837.24L224.10 837.12L222.48 837.57L223.40 839.89L224.54 844.89L225.29 848.27L226.19 852.33Z" data-ward="12" /><path id="ward-7" class="ward" d="M526.87 500.10L525.00 498.89L523.12 497.41L521.20 495.90L520.34 493.55L518.75 491.58L518.41 490.47L517.63 489.22L517.05 486.77L516.07 484.32L514.94 482.06L513.89 479.94L512.35 478.39L510.67 477.43L508.71 476.45L506.74 475.47L504.69 474.51L503.47 473.93L502.44 473.45L498.26 471.98L497.27 471.23L495.27 469.72L493.78 471.03L492.20 474.45L493.52 478.13L494.28 484.73L494.94 493.92L497.51 497.42L502.21 504.64L507.31 506.10L509.39 509.55L507.79 520.07L505.95 528.87L500.29 529.59L496.14 533.09L494.26 533.55L490.96 533.06L488.78 536.03L490.29 538.34L492.60 541.95L493.35 546.07L490.70 548.01L488.56 551.04L489.23 553.66L491.11 555.64L495.22 556.94L496.46 560.59L494.90 562.17L492.55 563.23L488.50 564.17L484.56 568.86L482.90 572.23L482.22 574.95L481.80 576.63L482.48 577.93L483.03 579.01L485.70 580.75L488.14 581.90L490.75 582.71L493.11 582.76L495.10 582.01L497.50 580.75L500.40 579.70L502.63 579.69L503.68 580.65L503.88 582.90L504.23 585.58L505.24 587.82L506.80 589.65L509.43 589.99L511.60 590.50L514.14 590.70L516.19 591.65L516.27 593.82L513.96 596.29L512.08 598.28L510.78 599.56L508.42 600.43L506.65 603.00L504.79 603.70L499.56 605.18L496.78 605.05L494.38 605.46L492.61 606.92L491.36 608.63L492.56 611.07L494.91 614.38L496.05 617.77L495.88 621.41L494.12 623.63L493.74 627.41L494.54 629.54L497.08 629.50L500.88 627.84L503.15 628.62L503.50 631.21L502.07 632.94L499.71 634.94L497.26 635.70L495.23 638.21L494.84 641.96L498.06 645.22L501.65 648.07L504.11 650.13L505.57 652.73L504.92 656.48L501.30 658.59L498.82 659.97L495.07 662.42L492.60 665.76L490.37 668.95L490.45 671.27L491.28 673.02L492.53 675.14L493.90 676.42L494.58 678.90L494.08 682.37L494.96 683.73L496.55 684.82L498.92 685.14L501.19 685.09L503.34 685.00L505.32 684.19L506.78 685.15L508.84 687.27L509.45 689.42L508.89 691.77L508.29 693.18L507.83 694.22L511.95 695.96L513.56 696.14L516.54 694.60L518.20 693.83L519.52 693.31L521.10 692.90L522.60 692.45L524.21 692.11L525.93 691.67L528.09 691.31L529.46 691.31L530.97 691.28L532.78 691.94L533.91 692.50L537.21 692.39L539.22 692.33L541.90 691.97L544.01 691.68L545.78 691.27L546.87 690.31L548.03 689.69L549.54 689.10L551.48 688.62L553.25 688.39L555.98 688.09L558.70 687.71L561.15 687.44L563.50 687.98L564.92 688.14L567.39 688.18L567.08 690.02L567.06 691.96L567.62 693.40L568.75 695.21L570.21 696.89L571.88 698.34L573.38 699.15L575.26 699.38L576.35 699.59L577.40 700.37L577.79 702.59L577.80 704.34L578.01 705.96L577.85 708.46L577.46 710.15L577.79 712.31L577.31 714.50L575.61 717.53L573.59 720.10L572.99 721.57L574.39 721.89L575.57 723.60L576.51 725.33L576.27 726.95L575.31 729.06L573.98 731.33L572.16 733.38L570.71 736.43L569.41 740.40L569.33 742.62L569.91 745.40L570.96 748.36L572.41 750.47L573.29 751.26L574.80 750.66L576.08 749.75L578.03 748.13L579.67 746.84L581.26 745.79L583.27 744.47L585.46 743.18L588.25 741.82L593.50 739.73L595.92 739.02L598.07 738.90L600.49 738.49L602.97 737.87L604.50 737.01L605.89 737.05L606.90 737.94L608.53 736.84L611.13 735.85L613.00 734.77L615.09 733.14L617.27 731.65L619.08 730.49L620.73 729.76L623.97 729.45L626.43 729.46L627.82 729.85L629.79 730.62L632.42 731.85L634.70 732.80L638.11 734.89L639.09 736.12L639.65 737.84L641.21 739.19L643.28 740.38L645.17 741.78L647.24 742.50L649.12 742.47L651.95 742.46L655.17 742.62L657.20 742.94L658.88 743.83L660.28 745.44L661.42 747.36L662.04 750.09L662.73 753.16L663.96 755.61L665.12 754.23L666.42 751.95L667.69 748.53L668.83 744.66L670.06 740.16L674.62 737.11L671.78 735.49L669.10 733.40L665.72 728.95L663.35 727.92L660.84 728.17L656.94 729.41L655.22 729.08L654.08 725.74L653.55 717.92L653.01 712.59L651.08 706.58L649.28 700.68L647.83 695.98L646.18 692.25L644.64 689.50L643.47 687.26L641.25 681.67L637.37 673.69L634.65 667.63L632.57 663.44L631.34 658.42L629.51 653.68L627.38 650.01L624.85 645.26L623.98 641.70L623.26 636.24L623.03 633.79L623.45 629.49L624.92 624.69L626.48 620.03L626.52 616.41L625.42 612.62L623.59 609.92L621.95 607.16L621.14 604.23L620.69 600.33L620.41 594.17L620.10 588.44L620.67 579.98L621.29 575.48L621.20 571.21L619.08 564.77L617.67 562.44L619.39 562.06L622.98 561.34L628.09 560.88L633.55 560.51L636.96 560.10L642.08 560.65L643.35 560.86L643.20 559.41L643.19 556.67L643.15 554.90L644.48 554.88L646.43 555.11L647.77 554.44L649.49 553.53L651.16 552.63L653.38 551.58L656.51 552.93L658.53 553.76L659.98 554.26L666.81 555.58L671.08 555.14L672.14 553.45L676.03 555.35L679.78 556.72L680.24 553.82L681.24 548.50L682.29 543.59L688.01 543.11L694.08 542.67L696.43 542.26L698.42 538.43L703.00 534.15L702.04 532.22L701.07 530.92L699.38 528.59L698.72 527.68L697.43 525.90L696.57 524.72L693.57 526.71L691.24 528.62L688.94 526.61L686.28 524.28L683.49 521.47L680.68 518.64L680.51 514.68L677.79 510.80L677.10 509.12L676.24 507.04L672.35 502.84L673.05 501.96L675.17 499.63L670.80 494.27L667.88 492.02L664.50 488.99L661.60 487.35L659.28 485.73L656.76 486.25L652.13 486.60L649.42 484.67L648.39 483.95L645.72 486.69L638.14 494.49L635.83 496.86L634.18 499.15L632.40 501.94L629.16 507.04L626.83 511.47L626.31 512.46L625.64 517.74L624.97 522.97L623.09 527.00L621.19 531.04L619.75 533.31L618.86 534.58L617.82 536.12L617.12 537.02L616.15 538.26L615.12 539.70L614.18 540.82L613.05 542.37L611.87 543.81L611.24 544.76L610.43 546.16L609.54 547.68L608.83 549.53L608.24 551.08L607.16 550.70L605.62 549.65L603.58 548.79L602.48 548.33L601.27 548.16L599.07 547.02L596.67 546.11L594.23 545.14L591.89 544.05L590.23 543.14L588.75 542.33L587.61 541.68L585.84 540.32L584.14 538.71L582.46 537.13L581.36 535.06L580.77 533.96L579.84 532.93L579.38 530.16L578.17 527.58L577.97 526.38L577.30 524.78L576.76 522.07L575.68 519.59L574.12 517.36L573.73 516.27L572.87 514.89L571.97 512.53L570.83 510.34L569.86 508.36L568.84 506.24L567.77 503.97L566.48 501.69L565.16 499.35L563.18 497.50L560.86 496.22L559.49 495.91L558.31 495.65L556.94 495.63L555.63 496.12L554.07 495.98L552.82 495.87L550.03 496.26L547.30 496.71L544.48 497.16L541.72 497.67L539.03 498.23L536.38 498.99L533.92 500.06L532.45 500.28L530.19 500.63L528.94 500.73L526.87 500.10Z" data-ward="7" /><path id="ward-14" class="ward" d="M288.98 663.75L282.34 665.65L276.42 667.08L275.41 670.56L273.04 677.54L271.98 680.05L271.44 681.33L269.91 684.99L268.35 687.93L267.51 689.51L266.67 691.10L266.20 692.38L265.73 693.66L264.50 696.96L260.54 709.55L256.77 718.54L254.40 722.61L252.60 724.85L251.71 725.92L250.91 726.87L248.39 729.70L244.74 733.79L239.03 739.42L236.42 742.00L233.81 744.60L228.13 750.26L226.22 752.17L223.85 754.83L218.36 761.00L216.13 763.80L213.90 766.60L211.45 771.27L210.90 772.64L208.58 778.35L206.86 783.18L206.33 784.69L206.15 785.80L205.14 791.97L205.44 798.55L206.82 806.31L208.40 811.77L209.98 817.22L211.95 821.40L214.69 824.97L217.07 828.08L219.32 831.02L225.07 826.63L227.83 824.76L230.38 823.15L234.04 820.84L236.07 818.25L236.53 816.22L236.42 814.66L236.12 810.19L237.67 806.91L239.48 804.71L240.60 803.81L242.58 802.23L245.28 800.07L247.03 797.74L249.07 794.60L249.81 793.64L252.26 790.45L256.67 786.26L260.93 781.64L263.63 778.71L269.70 772.13L275.12 770.41L279.45 769.32L283.92 768.19L290.30 766.19L291.34 765.86L298.02 764.98L301.70 764.50L304.32 760.51L306.05 757.88L308.94 753.48L313.33 751.60L318.70 749.89L325.06 747.86L332.96 746.34L334.15 746.11L337.30 745.81L340.45 745.51L344.73 745.75L349.21 744.13L353.98 742.41L355.36 741.91L359.98 741.71L362.92 741.90L366.22 740.81L367.94 739.99L375.25 736.68L376.27 735.79L377.39 734.85L381.40 731.49L383.90 731.77L386.31 730.74L390.60 728.91L392.23 728.22L394.18 727.38L398.96 724.66L403.87 721.85L408.45 719.40L411.80 717.70L413.93 716.62L416.36 715.69L418.80 714.76L422.05 714.44L425.36 714.75L426.99 714.91L430.29 715.22L431.94 715.37L433.00 715.05L435.75 712.67L438.84 709.98L441.85 706.51L450.23 700.66L449.43 698.42L448.41 695.50L448.94 693.36L448.77 691.97L448.36 688.56L447.19 683.27L445.61 674.58L445.00 669.44L443.68 663.88L441.27 655.00L439.48 648.47L438.68 642.44L438.39 635.58L435.66 634.89L431.49 632.45L428.14 630.24L423.15 629.49L416.03 628.58L411.62 627.77L408.21 627.89L404.40 629.18L399.00 630.41L394.06 631.57L384.74 633.80L374.76 636.22L370.40 637.35L366.02 638.78L356.38 641.55L350.04 643.54L348.53 644.01L340.82 646.59L334.08 648.55L327.50 650.19L320.56 652.21L314.99 653.93L308.63 656.37L303.20 658.14L298.12 660.06L293.51 661.94L288.98 663.75Z" data-ward="14" /><path id="ward-5" class="ward" d="M333.19 501.14L333.35 504.39L329.46 519.59L333.46 520.57L333.51 523.86L333.39 525.62L331.77 525.96L331.43 527.82L330.12 530.46L327.07 531.88L325.32 532.15L323.85 532.49L321.73 532.75L320.85 533.48L320.45 534.91L319.80 538.33L321.94 540.85L325.08 544.04L330.53 540.24L333.97 537.60L336.08 535.70L344.64 527.82L347.95 525.41L352.25 523.84L356.40 521.32L359.74 518.68L361.65 517.45L364.13 516.30L366.17 515.22L368.28 514.18L371.20 513.09L373.79 512.34L378.48 510.93L381.63 511.03L385.29 512.28L386.35 513.29L387.37 514.82L387.82 516.04L388.56 517.70L394.06 531.51L395.16 535.71L393.45 538.35L392.55 540.62L392.42 542.43L392.28 545.57L392.28 548.80L394.18 549.29L397.75 549.74L398.40 551.12L398.73 552.81L399.04 554.11L399.62 555.39L400.39 556.61L401.09 557.88L401.70 558.86L402.31 559.81L403.72 561.91L404.66 563.18L406.01 564.40L406.54 565.39L406.73 566.76L407.79 568.46L408.49 569.54L409.78 571.15L411.76 571.13L413.69 572.42L414.33 573.64L415.09 576.17L414.92 577.77L414.55 578.94L414.29 580.51L415.55 582.16L417.21 585.34L418.32 587.22L419.50 588.37L421.95 590.95L423.51 592.98L425.07 595.43L426.62 597.08L428.77 595.92L430.93 594.71L433.26 593.67L434.64 594.71L436.20 596.63L437.39 598.22L439.04 600.45L440.14 602.43L440.13 607.23L442.45 606.79L445.21 606.28L449.34 605.24L452.73 603.68L454.97 601.84L458.55 596.55L459.74 596.42L460.12 593.42L460.53 587.91L461.66 586.36L461.82 583.52L461.93 582.15L462.08 579.91L466.79 580.63L468.76 580.79L475.16 581.93L476.96 582.02L478.43 582.19L479.76 582.35L480.90 581.33L483.03 579.01L482.48 577.93L481.80 576.63L482.22 574.95L482.90 572.23L484.56 568.86L488.50 564.17L492.55 563.23L494.90 562.17L496.46 560.59L495.22 556.94L491.11 555.64L489.23 553.66L488.56 551.04L490.70 548.01L493.35 546.07L492.60 541.95L490.29 538.34L488.78 536.03L490.96 533.06L494.26 533.55L496.14 533.09L500.29 529.59L505.95 528.87L507.79 520.07L509.39 509.55L507.31 506.10L502.21 504.64L497.51 497.42L494.94 493.92L494.28 484.73L493.52 478.13L492.20 474.45L493.78 471.03L495.27 469.72L482.43 463.93L472.14 458.65L467.12 455.54L465.52 454.55L463.85 451.99L461.09 443.59L459.07 436.49L458.03 432.92L454.46 428.34L451.75 423.87L449.55 418.00L449.30 416.71L448.90 414.74L445.15 412.36L436.70 408.38L428.84 404.93L425.36 404.38L419.81 403.50L416.26 402.77L409.99 401.48L401.20 400.09L391.34 399.24L385.95 398.11L382.50 396.28L379.07 392.75L374.39 387.87L370.61 384.95L365.34 382.89L359.35 380.63L356.80 379.95L355.53 379.91L354.17 379.88L351.52 380.03L347.19 380.82L343.77 381.69L340.20 382.55L335.77 383.76L331.24 385.04L326.62 386.83L323.76 387.94L316.81 391.32L314.44 392.48L312.81 394.23L311.14 396.89L308.99 401.32L307.35 404.43L305.73 406.32L303.68 407.88L300.90 409.25L297.48 410.71L295.56 411.27L291.49 412.69L288.19 413.79L285.73 415.02L284.31 416.46L286.19 417.50L288.10 419.96L288.48 421.54L288.72 423.77L289.80 425.96L291.46 428.10L293.50 430.55L296.01 432.85L297.59 434.00L300.02 435.16L302.86 435.73L304.52 434.89L307.35 433.47L308.65 433.24L309.95 433.02L311.10 432.87L313.02 432.63L315.64 432.87L318.13 433.23L319.93 434.00L322.07 435.54L323.72 436.94L325.10 438.50L326.49 440.86L327.93 442.48L329.22 443.88L331.66 445.68L334.04 448.02L336.08 450.12L337.46 452.51L340.99 457.49L342.05 459.94L342.20 462.57L340.95 468.21L340.18 470.87L339.83 474.03L341.68 476.76L340.24 479.12L338.77 479.83L336.74 481.97L335.26 482.18L334.04 483.12L331.43 484.20L334.83 491.47L333.59 491.76L330.34 492.51L332.00 496.20L329.04 496.14L329.84 500.94L333.19 501.14Z" data-ward="5" /><path id="ward-6" class="ward" d="M320.56 652.21L327.50 650.19L334.08 648.55L340.82 646.59L348.53 644.01L350.04 643.54L356.38 641.55L366.02 638.78L370.40 637.35L374.76 636.22L384.74 633.80L394.06 631.57L399.00 630.41L404.40 629.18L408.21 627.89L411.62 627.77L416.03 628.58L423.15 629.49L428.14 630.24L431.49 632.45L435.66 634.89L438.39 635.58L438.68 642.44L439.48 648.47L441.27 655.00L443.68 663.88L445.00 669.44L445.61 674.58L447.19 683.27L448.36 688.56L450.79 687.86L453.21 687.16L455.72 686.27L457.44 685.22L459.06 684.24L460.25 683.00L461.43 681.77L462.54 681.18L464.74 680.70L466.94 680.22L466.91 674.51L477.09 673.10L476.55 677.23L473.74 676.97L472.17 680.73L468.77 680.80L467.62 682.82L465.51 686.51L464.34 689.04L462.06 693.96L461.69 695.13L461.05 697.22L459.96 698.69L458.87 700.16L453.73 706.77L444.26 719.24L448.09 723.49L450.21 725.40L454.82 729.56L458.72 726.17L462.09 723.25L464.37 720.70L469.87 714.54L472.83 709.53L473.51 708.05L476.10 706.52L478.20 706.67L480.79 707.64L482.97 705.18L483.66 706.25L484.46 707.22L484.68 710.20L484.53 712.49L484.92 717.35L487.39 724.01L489.59 723.59L491.45 723.34L495.14 725.55L498.59 728.48L500.20 732.11L500.62 734.51L502.43 735.37L504.98 735.26L506.24 734.44L507.82 730.40L509.70 726.18L510.66 722.97L510.27 720.91L507.27 718.78L504.15 716.53L501.36 715.32L498.27 713.94L497.39 711.35L497.74 709.91L498.00 708.81L499.59 706.56L502.11 705.23L504.04 703.47L505.93 701.00L506.85 697.75L507.83 694.22L508.29 693.18L508.89 691.77L509.45 689.42L508.84 687.27L506.78 685.15L505.32 684.19L503.34 685.00L501.19 685.09L498.92 685.14L496.55 684.82L494.96 683.73L494.08 682.37L494.58 678.90L493.90 676.42L492.53 675.14L491.28 673.02L490.45 671.27L490.37 668.95L492.60 665.76L495.07 662.42L498.82 659.97L501.30 658.59L504.92 656.48L505.57 652.73L504.11 650.13L501.65 648.07L498.06 645.22L494.84 641.96L495.23 638.21L497.26 635.70L499.71 634.94L502.07 632.94L503.50 631.21L503.15 628.62L500.88 627.84L497.08 629.50L494.54 629.54L493.74 627.41L494.12 623.63L495.88 621.41L496.05 617.77L494.91 614.38L492.56 611.07L491.36 608.63L492.61 606.92L494.38 605.46L496.78 605.05L499.56 605.18L504.79 603.70L506.65 603.00L508.42 600.43L510.78 599.56L512.08 598.28L513.96 596.29L516.27 593.82L516.19 591.65L514.14 590.70L511.60 590.50L509.43 589.99L506.80 589.65L505.24 587.82L504.23 585.58L503.88 582.90L503.68 580.65L502.63 579.69L500.40 579.70L497.50 580.75L495.10 582.01L493.11 582.76L490.75 582.71L488.14 581.90L485.70 580.75L483.03 579.01L480.90 581.33L479.76 582.35L478.43 582.19L476.96 582.02L475.16 581.93L468.76 580.79L466.79 580.63L462.08 579.91L461.93 582.15L461.82 583.52L461.66 586.36L460.53 587.91L460.12 593.42L459.74 596.42L458.55 596.55L454.97 601.84L452.73 603.68L449.34 605.24L445.21 606.28L442.45 606.79L440.13 607.23L440.14 602.43L439.04 600.45L437.39 598.22L436.20 596.63L434.64 594.71L433.26 593.67L430.93 594.71L428.77 595.92L426.62 597.08L425.07 595.43L423.51 592.98L421.95 590.95L419.50 588.37L418.32 587.22L417.21 585.34L415.55 582.16L414.29 580.51L414.55 578.94L414.92 577.77L415.09 576.17L414.33 573.64L413.69 572.42L411.76 571.13L409.78 571.15L408.49 569.54L407.79 568.46L406.73 566.76L406.54 565.39L406.01 564.40L404.66 563.18L403.72 561.91L402.31 559.81L401.70 558.86L401.09 557.88L400.39 556.61L399.62 555.39L399.04 554.11L398.73 552.81L398.40 551.12L397.75 549.74L394.18 549.29L392.28 548.80L392.28 545.57L392.42 542.43L392.55 540.62L393.45 538.35L395.16 535.71L394.06 531.51L388.56 517.70L387.82 516.04L387.37 514.82L386.35 513.29L385.29 512.28L381.63 511.03L378.48 510.93L373.79 512.34L371.20 513.09L368.28 514.18L366.17 515.22L364.13 516.30L361.65 517.45L359.74 518.68L356.40 521.32L352.25 523.84L347.95 525.41L344.64 527.82L336.08 535.70L333.97 537.60L330.53 540.24L325.08 544.04L321.63 546.84L317.90 550.10L312.53 555.17L309.24 558.23L301.39 576.76L300.20 578.89L298.59 580.98L296.62 582.82L295.41 584.02L294.38 585.98L293.77 588.17L293.49 591.13L293.17 593.32L292.44 594.77L290.97 596.20L289.20 597.70L287.57 598.41L284.93 599.20L280.99 599.94L281.54 603.08L282.23 606.01L282.52 609.41L282.84 612.03L282.63 614.71L282.49 617.71L282.28 620.46L282.03 623.30L281.49 626.11L281.11 629.09L280.34 632.03L279.79 635.25L279.54 637.86L279.78 640.30L280.30 643.22L280.97 646.50L281.15 648.55L281.03 651.17L280.64 653.89L279.87 656.00L279.26 658.05L278.57 660.55L277.81 662.76L276.86 665.57L276.42 667.08L282.34 665.65L288.98 663.75L293.51 661.94L298.12 660.06L303.20 658.14L308.63 656.37L314.99 653.93L320.56 652.21Z" data-ward="6" /><path id="ward-19" class="ward" d="M169.83 490.66L168.90 490.16L165.73 488.22L163.21 487.03L160.58 485.77L157.45 484.14L154.81 482.90L153.51 482.30L149.16 480.26L143.94 477.73L142.33 477.90L140.42 476.85L138.71 475.90L137.19 475.06L136.07 474.64L134.61 473.66L131.98 472.90L129.83 472.27L129.12 473.27L127.55 475.47L125.31 476.16L123.28 477.78L121.09 479.53L119.49 480.80L117.70 482.23L115.30 484.14L113.07 485.92L111.57 487.12L108.30 489.73L106.30 491.32L98.49 497.55L92.93 501.99L85.61 507.83L83.13 509.81L82.33 515.01L82.32 520.36L82.31 524.64L82.30 528.11L82.28 535.28L81.94 536.83L81.85 537.39L82.78 538.86L83.14 539.52L83.47 540.04L83.89 540.45L84.98 541.12L85.26 541.25L86.43 542.07L86.92 542.85L87.14 543.37L87.49 543.95L87.95 544.87L88.02 546.02L87.80 546.89L87.50 547.45L87.20 548.31L87.28 548.97L87.65 549.53L88.13 549.81L88.82 549.92L89.43 549.80L90.21 550.11L91.70 549.54L93.79 548.80L95.53 548.37L97.08 548.63L97.37 550.24L95.47 551.11L94.91 552.39L95.65 554.19L97.07 553.15L98.37 554.12L99.31 554.97L100.47 556.08L101.09 556.98L101.52 558.54L99.83 560.88L102.01 561.75L102.88 563.53L103.43 564.62L103.99 565.93L103.17 567.66L101.75 568.84L102.56 570.39L103.81 572.21L106.50 571.44L106.85 573.43L106.92 575.09L109.10 575.55L110.33 575.79L111.61 576.91L113.30 577.88L114.30 577.33L116.60 576.11L118.67 575.31L120.16 575.88L121.22 576.22L122.74 577.18L124.30 578.16L125.96 579.29L128.29 580.99L130.84 582.61L133.33 584.82L135.17 586.10L136.89 587.83L138.03 589.01L140.65 591.38L145.88 597.48L149.46 601.69L156.52 596.34L160.24 593.52L162.24 593.00L164.23 592.47L167.10 591.84L169.55 591.64L170.67 591.55L172.46 591.03L174.10 590.56L176.16 589.84L177.24 589.47L178.74 589.03L180.14 588.63L181.61 588.06L182.95 587.55L184.97 587.08L186.18 586.80L189.11 585.65L190.86 584.37L192.64 583.05L194.66 581.54L196.66 580.65L198.47 579.41L200.06 577.97L201.71 575.29L203.36 572.60L204.66 570.82L205.95 569.05L206.97 567.68L208.09 566.09L210.26 564.37L211.71 563.22L212.71 562.22L213.72 561.21L215.32 558.57L216.66 556.15L218.24 554.86L221.84 553.19L223.94 552.10L225.78 551.75L227.71 551.37L232.18 550.93L234.40 551.33L236.54 551.73L240.00 551.81L240.37 547.56L240.74 545.20L241.23 542.44L242.01 540.23L242.59 537.72L243.41 534.95L244.50 531.28L245.05 528.95L245.31 527.87L245.90 525.46L246.22 524.16L247.24 518.10L248.30 513.71L249.61 509.07L250.53 504.82L251.14 500.99L251.88 497.12L252.48 492.94L253.04 488.00L253.40 483.07L253.62 479.01L253.96 474.29L254.04 469.45L254.19 465.08L254.46 460.37L254.11 451.60L253.63 446.55L253.55 442.80L254.68 438.58L255.88 434.20L256.95 431.92L258.58 429.27L260.75 426.60L263.08 423.89L264.54 421.23L264.97 419.99L265.60 416.56L266.97 411.68L265.99 409.95L265.89 408.09L265.38 403.52L264.72 398.55L263.86 395.39L262.80 393.24L260.67 393.83L259.14 394.48L254.69 396.11L253.59 395.64L252.07 395.46L250.27 395.24L247.58 394.79L246.15 394.54L244.99 394.35L242.77 393.97L239.66 393.48L237.49 393.02L235.04 392.91L231.73 392.75L227.79 392.62L226.40 392.98L224.99 393.35L223.77 393.66L222.25 394.47L220.24 395.42L218.50 396.25L217.78 397.19L216.41 397.63L215.68 398.78L214.70 399.40L213.55 400.13L212.82 401.74L211.94 402.52L210.39 403.88L209.36 405.25L208.02 407.09L206.15 409.64L204.75 411.55L203.87 413.53L202.90 415.71L200.24 419.72L198.98 421.61L198.09 422.96L197.61 425.06L197.28 426.46L196.96 427.79L196.64 429.11L196.13 431.24L195.86 432.37L195.51 433.53L195.31 435.55L196.43 436.86L197.28 437.65L198.55 438.82L199.38 440.19L202.52 444.48L203.47 445.29L205.43 446.97L206.41 447.65L208.03 447.92L210.69 448.26L212.99 448.54L214.76 448.60L216.99 448.42L220.50 448.66L220.38 451.25L220.13 452.55L219.88 453.88L219.40 456.45L218.90 459.08L218.11 460.18L217.08 461.59L216.36 462.59L214.90 464.60L213.32 465.83L212.21 466.69L210.59 466.63L206.70 466.27L204.97 465.91L203.27 465.55L198.25 464.45L196.54 464.07L194.83 463.70L193.47 463.40L191.83 463.04L190.37 463.13L188.63 463.24L186.41 463.37L186.19 464.64L185.94 468.42L185.68 469.74L185.57 471.07L184.60 472.96L183.59 475.00L183.11 476.19L182.46 477.66L181.37 479.05L180.33 480.54L179.38 481.88L178.29 483.44L177.65 484.35L176.73 485.66L176.45 487.08L176.01 489.34L175.73 490.78L175.64 491.21L175.60 491.99L175.51 492.71L175.47 492.79L175.10 493.57L174.87 493.76L174.66 493.80L173.56 493.24L171.98 492.08L171.27 491.63L170.51 491.15L169.83 490.66Z" data-ward="19" /><path id="ward-11" class="ward" d="M484.71 800.74L485.33 798.30L485.60 797.22L486.62 794.88L489.23 788.88L490.47 787.26L491.42 786.02L492.57 785.19L495.08 783.38L498.01 783.18L500.73 782.34L502.88 781.43L504.55 780.80L506.29 779.46L508.17 776.34L510.89 775.58L510.85 772.21L510.83 766.64L513.97 764.00L522.03 763.58L528.79 764.68L531.72 764.94L533.26 763.83L535.41 763.74L537.03 762.84L538.17 761.28L538.48 759.55L537.89 758.02L536.36 757.52L534.35 756.55L532.20 757.11L529.08 758.26L527.08 757.62L525.60 757.84L524.35 757.98L521.86 757.23L519.66 756.57L515.52 755.32L513.64 753.08L512.55 750.73L511.47 748.37L510.30 746.15L507.91 741.59L506.55 740.82L505.37 740.99L503.08 741.33L501.62 742.10L500.16 742.94L498.04 744.77L495.20 745.32L494.55 743.42L493.73 742.00L492.91 740.57L491.54 739.12L488.99 734.48L486.39 731.25L485.80 729.68L485.04 727.65L485.68 726.16L486.35 724.96L487.39 724.01L484.92 717.35L484.53 712.49L484.68 710.20L484.46 707.22L483.66 706.25L482.97 705.18L480.79 707.64L478.20 706.67L476.10 706.52L473.51 708.05L472.83 709.53L469.87 714.54L464.37 720.70L462.09 723.25L458.72 726.17L454.82 729.56L453.75 730.48L452.38 731.63L451.27 732.37L449.66 733.79L448.18 735.33L447.59 737.44L447.10 738.63L445.49 741.20L444.48 742.39L442.42 745.12L442.03 746.29L440.64 748.91L439.21 750.53L437.78 752.16L436.91 753.59L435.85 754.91L435.05 756.18L434.59 757.52L434.53 760.37L434.27 762.27L434.04 763.94L432.97 765.31L430.08 765.65L429.56 767.60L429.16 768.91L427.51 769.48L426.26 769.22L423.89 767.88L422.80 768.24L422.37 769.31L421.36 770.63L420.62 771.85L416.35 775.04L412.83 774.19L411.97 775.32L409.90 775.94L408.43 778.05L407.52 779.36L407.34 781.10L406.43 782.66L405.57 783.85L402.87 784.09L400.82 784.28L399.52 784.40L397.26 784.60L395.26 784.77L392.93 785.78L390.57 785.62L389.35 786.06L388.01 786.55L386.83 788.15L385.32 788.98L382.88 789.94L381.63 790.42L378.83 791.48L376.99 793.02L376.06 793.79L373.58 794.84L371.70 795.86L369.56 797.49L366.89 796.46L365.00 795.76L363.21 794.91L361.20 793.95L359.96 791.66L357.56 790.74L355.68 790.09L354.18 789.55L352.95 789.10L351.41 788.73L348.74 788.09L345.12 787.22L344.31 789.61L343.20 792.83L342.12 792.42L341.05 792.00L339.85 794.60L346.42 797.87L350.71 801.15L351.99 802.13L355.45 805.28L357.90 808.14L360.31 810.95L364.79 814.32L362.90 818.91L361.66 822.42L360.41 826.45L358.71 830.67L356.40 838.59L356.30 840.22L355.99 841.50L354.80 843.63L353.54 845.66L352.85 847.83L352.28 850.94L351.70 855.89L350.87 862.68L348.60 865.58L347.56 866.72L346.43 864.83L344.95 862.37L344.35 861.37L342.73 861.17L341.93 859.59L337.11 859.78L334.83 859.56L332.99 859.08L331.70 859.02L329.66 859.18L326.87 859.89L324.69 860.63L322.51 861.38L320.93 861.67L319.36 861.97L318.06 861.86L315.86 861.70L312.67 861.98L313.73 863.41L314.75 864.80L315.28 866.71L315.81 868.61L316.46 870.71L316.80 871.83L317.43 874.71L323.60 875.40L326.27 876.57L328.94 877.73L330.40 878.42L333.36 880.63L336.32 882.85L338.05 884.43L341.10 886.90L344.43 889.50L345.63 890.39L347.67 891.90L350.02 893.52L351.21 894.35L353.27 896.15L355.32 897.04L356.97 897.91L359.96 898.53L363.24 898.97L364.39 898.90L367.59 898.71L369.19 898.54L371.78 898.26L374.06 898.33L376.21 898.48L377.60 898.62L378.82 898.72L382.76 899.19L384.38 897.72L384.07 895.95L383.71 893.88L385.25 893.60L387.57 893.17L389.16 892.88L390.31 892.76L392.20 894.30L395.39 895.88L396.49 895.93L397.29 894.25L397.46 893.07L397.74 891.26L396.15 891.51L394.06 891.61L392.50 890.75L393.50 889.81L394.50 888.86L396.73 888.30L397.60 886.88L397.84 885.75L398.17 884.20L399.24 882.55L400.31 880.90L401.05 879.57L401.80 878.24L404.88 877.03L406.79 876.27L410.63 873.40L415.73 872.01L417.86 871.78L420.70 871.47L427.97 874.50L429.71 875.23L431.09 875.80L433.44 879.57L435.23 879.39L437.01 879.22L440.21 877.99L444.10 878.34L447.65 878.65L449.90 879.12L451.34 879.42L453.61 879.89L455.26 871.70L455.78 869.13L457.87 865.93L458.77 863.41L459.36 862.09L460.07 860.49L461.32 858.07L462.36 856.86L463.66 855.36L465.64 852.71L467.75 849.75L468.33 848.33L469.54 845.35L471.14 841.16L473.27 835.56L474.09 834.15L476.41 830.95L477.52 829.41L479.21 824.46L478.24 821.99L479.07 819.26L479.82 816.75L480.49 814.54L482.80 807.24L484.28 802.42L484.71 800.74Z" data-ward="11" /><path id="ward-8" class="ward" d="M816.86 812.53L816.60 810.75L814.92 807.77L813.94 806.11L815.67 802.91L816.10 801.55L815.91 800.24L814.80 799.88L813.42 799.51L813.20 798.36L813.86 795.96L809.70 794.92L805.39 793.58L803.21 792.24L804.80 784.84L805.32 781.01L805.57 779.05L805.59 777.27L805.69 773.27L805.53 770.70L805.11 768.29L804.60 765.98L805.87 765.34L805.52 750.73L796.62 748.80L796.65 745.42L796.69 740.04L797.11 734.61L796.48 732.45L797.38 730.36L797.86 729.24L797.53 726.91L799.07 724.43L801.61 724.28L801.75 722.27L804.68 720.30L810.58 716.33L819.85 713.70L824.25 703.21L824.67 701.32L814.70 691.41L811.79 685.87L811.15 683.56L809.36 679.44L807.42 676.18L801.36 669.63L799.46 665.81L800.23 664.71L801.13 663.34L801.44 660.29L801.64 658.10L801.53 655.05L801.41 651.44L801.68 646.37L801.86 642.86L800.67 638.53L799.57 634.39L798.21 629.31L798.47 624.45L798.77 619.28L798.85 617.75L797.21 614.86L789.95 602.11L789.88 596.29L789.78 592.25L789.70 587.82L788.75 584.31L787.42 579.27L784.43 578.54L784.03 573.87L783.70 570.92L783.33 566.56L782.00 566.30L782.24 564.20L782.56 562.61L782.14 561.26L780.32 561.13L777.87 561.33L777.54 559.96L773.38 559.83L769.77 558.82L768.88 558.15L767.74 557.28L765.49 556.58L764.07 556.14L762.44 556.18L760.42 556.23L759.39 555.68L756.47 554.66L754.57 554.99L753.02 555.26L751.54 555.46L748.95 555.81L746.73 555.90L745.10 555.47L741.17 554.41L737.89 553.52L736.06 552.33L732.05 548.55L728.37 547.34L726.24 546.43L722.20 544.59L719.11 543.19L717.45 542.92L714.91 542.50L713.19 543.08L710.51 543.98L708.48 542.85L707.00 542.03L706.10 540.11L704.82 537.38L704.37 536.11L703.00 534.15L698.42 538.43L696.43 542.26L694.08 542.67L688.01 543.11L682.29 543.59L681.24 548.50L680.24 553.82L679.78 556.72L676.03 555.35L672.14 553.45L671.08 555.14L666.81 555.58L659.98 554.26L658.53 553.76L656.51 552.93L653.38 551.58L651.16 552.63L649.49 553.53L647.77 554.44L646.43 555.11L644.48 554.88L643.15 554.90L643.19 556.67L643.20 559.41L643.35 560.86L642.08 560.65L636.96 560.10L633.55 560.51L628.09 560.88L622.98 561.34L619.39 562.06L617.67 562.44L619.08 564.77L621.20 571.21L621.29 575.48L620.67 579.98L620.10 588.44L620.41 594.17L620.69 600.33L621.14 604.23L621.95 607.16L623.59 609.92L625.42 612.62L626.52 616.41L626.48 620.03L624.92 624.69L623.45 629.49L623.03 633.79L623.26 636.24L623.98 641.70L624.85 645.26L627.38 650.01L629.51 653.68L631.34 658.42L632.57 663.44L634.65 667.63L637.37 673.69L641.25 681.67L643.47 687.26L644.64 689.50L646.18 692.25L647.83 695.98L649.28 700.68L651.08 706.58L653.01 712.59L653.55 717.92L654.08 725.74L655.22 729.08L656.94 729.41L660.84 728.17L663.35 727.92L665.72 728.95L669.10 733.40L671.78 735.49L674.62 737.11L675.58 736.46L677.01 736.57L680.97 736.32L687.27 736.29L691.58 737.62L696.97 739.94L705.38 744.10L706.86 745.12L708.68 746.45L710.67 748.46L712.10 750.00L713.42 752.36L715.03 754.53L716.34 755.85L718.44 757.27L721.82 758.08L723.81 758.09L727.25 757.82L731.48 757.44L734.15 757.10L736.87 756.29L739.31 755.72L741.21 755.98L743.33 757.11L744.53 758.23L747.07 761.46L749.32 763.65L753.29 766.17L755.75 767.52L758.33 769.40L761.14 771.98L762.47 774.33L764.93 778.78L766.70 780.50L768.78 782.38L771.20 784.52L773.79 786.93L776.39 789.64L777.71 791.95L778.24 794.04L778.41 797.51L778.37 801.82L778.05 805.27L777.05 809.83L775.74 814.03L774.44 818.15L774.27 820.49L774.84 824.47L776.12 826.38L778.45 827.37L780.31 826.78L782.76 825.81L784.09 825.32L786.55 824.65L790.13 824.20L792.60 823.89L795.53 823.22L798.55 822.09L800.50 821.23L803.02 820.22L805.03 819.32L807.39 818.27L809.94 817.12L811.09 816.36L812.69 815.30L816.86 812.53Z" data-ward="8" /><path id="ward-17" class="ward" d="M83.89 540.45L84.35 545.50L84.76 549.87L85.07 554.67L85.01 556.68L84.94 559.01L84.84 562.82L84.45 564.49L84.88 565.72L85.21 567.81L85.43 569.25L85.47 570.46L85.56 573.78L85.77 576.04L85.88 577.22L86.64 578.64L87.68 580.55L88.54 583.48L88.81 585.33L89.15 587.29L89.48 589.25L89.07 590.66L88.58 592.31L88.11 593.89L87.29 596.57L86.91 597.80L84.69 601.26L82.94 601.94L81.37 602.34L80.29 602.61L77.90 603.08L76.14 603.39L73.03 603.73L71.03 603.30L69.36 602.74L67.15 601.99L65.30 601.35L62.68 600.59L60.76 600.59L58.84 600.58L56.66 601.54L53.54 602.92L51.72 604.57L50.17 605.71L48.60 606.48L47.04 607.25L45.79 608.85L44.99 609.87L44.24 610.71L42.28 613.64L41.72 614.77L40.61 616.88L39.60 618.82L38.85 620.48L38.10 622.14L37.59 623.90L36.60 626.92L35.06 629.77L33.94 630.70L34.14 632.18L34.33 633.67L33.54 635.64L32.22 637.40L30.88 640.87L30.80 643.88L30.56 646.68L29.18 648.43L27.27 650.43L28.14 652.36L29.12 653.13L29.95 655.40L30.56 656.54L31.17 657.68L31.60 659.77L31.62 661.31L31.64 662.57L30.88 665.90L30.47 667.58L30.05 669.26L29.70 671.83L29.56 674.02L29.43 676.40L29.34 677.93L29.28 679.03L29.16 681.95L29.49 683.17L29.90 684.71L30.19 687.04L30.40 688.74L30.70 690.19L30.78 692.12L30.83 693.52L31.23 696.57L31.37 698.95L31.45 700.20L31.40 701.47L31.35 702.59L31.29 704.27L30.83 707.06L30.71 708.63L30.87 710.39L31.03 712.15L32.12 713.79L33.19 715.40L34.02 717.10L34.85 718.79L35.17 720.23L35.50 721.68L35.46 723.21L35.39 726.52L33.74 727.72L31.64 727.91L29.23 728.13L25.29 727.72L22.90 728.01L20.71 728.81L18.53 729.61L16.76 730.81L16.37 732.56L16.98 733.63L16.65 735.63L14.80 738.54L12.47 739.42L10.91 739.65L9.34 739.87L5.30 741.91L3.69 742.72L2.04 743.55L0.00 745.79L0.48 747.24L1.25 749.57L1.71 751.04L2.37 753.09L3.48 756.53L4.32 758.44L4.13 762.39L7.56 764.41L11.55 767.36L12.68 768.20L13.80 769.92L15.75 771.67L17.18 772.94L17.27 775.16L16.34 778.45L15.19 780.48L16.51 781.78L18.61 783.67L20.15 785.05L21.75 784.39L25.23 781.88L27.66 780.12L30.54 777.96L31.45 776.91L31.91 775.89L32.08 774.22L32.79 771.99L34.02 770.62L35.37 769.25L36.08 767.91L36.85 766.31L37.56 764.44L38.28 762.25L39.19 760.12L40.76 757.60L43.19 755.25L44.38 754.13L46.18 754.75L48.62 755.73L49.82 756.36L51.92 756.65L54.14 756.92L56.39 757.19L58.43 757.13L60.38 757.27L61.96 757.12L63.34 757.32L65.02 757.50L66.55 756.97L67.95 757.89L69.03 759.14L70.09 761.13L71.85 763.41L74.31 762.81L75.93 761.93L77.77 761.01L80.07 759.96L81.86 759.21L84.03 759.01L85.37 758.96L87.05 758.83L89.04 758.83L90.84 758.91L92.47 758.59L94.43 758.07L96.43 757.64L98.36 757.27L99.58 756.88L100.85 755.25L101.92 754.32L103.33 752.93L104.69 751.52L106.26 750.19L108.56 750.39L110.40 750.77L112.20 751.05L113.94 750.97L115.67 751.00L117.34 751.04L118.87 750.83L119.60 749.24L120.09 748.23L120.73 746.94L121.31 745.43L121.72 743.75L122.00 741.98L123.30 741.83L124.77 742.13L126.40 742.09L127.94 741.62L129.96 741.18L131.99 740.80L133.83 740.42L135.74 739.84L139.64 739.34L142.16 738.11L143.20 737.44L145.10 736.49L147.15 735.52L148.82 734.89L150.29 734.73L151.58 735.53L153.50 736.19L155.36 735.73L157.08 735.17L158.66 733.95L161.10 732.64L158.69 731.23L157.10 729.77L156.34 728.70L155.70 726.53L155.09 723.04L154.13 719.77L153.33 718.23L152.21 716.28L150.37 714.80L148.59 713.34L146.97 712.52L145.44 712.36L143.78 712.35L142.30 712.70L140.00 713.99L137.75 715.41L134.68 716.56L133.08 715.65L132.17 714.69L131.18 713.78L130.14 712.50L128.95 711.12L126.98 709.37L124.31 708.30L123.19 708.39L121.92 708.69L120.42 709.38L119.16 710.17L117.97 711.14L116.85 712.45L116.17 713.61L115.15 715.11L114.02 716.76L112.90 718.25L111.41 720.05L109.76 722.06L108.11 723.21L105.77 725.62L103.61 728.26L102.12 730.77L100.57 732.63L98.73 734.32L96.70 735.93L95.26 736.58L93.38 736.87L91.48 735.20L88.99 733.28L86.55 731.56L86.29 730.32L86.48 728.88L87.15 727.08L87.51 724.72L88.37 722.35L89.86 720.93L92.02 718.82L94.06 717.02L96.07 714.68L97.48 712.57L98.35 709.95L98.84 708.68L99.30 707.47L110.06 712.25L111.53 711.12L112.75 709.11L113.72 708.12L114.92 706.97L116.87 704.88L118.03 703.94L119.21 702.98L121.83 701.62L124.49 700.50L126.35 699.07L127.85 697.56L129.27 696.11L130.62 694.52L132.15 692.67L133.97 690.52L135.41 688.71L137.01 686.63L138.60 684.90L140.14 683.39L141.12 682.17L144.70 684.34L147.19 685.88L149.21 687.37L151.13 688.85L152.58 689.86L154.37 690.99L156.20 692.44L158.08 693.80L160.21 694.32L161.83 694.06L163.02 693.68L164.73 693.18L165.74 692.32L166.72 691.62L167.73 691.16L168.99 690.70L169.85 689.15L171.33 686.00L172.39 684.57L173.81 681.90L175.05 677.69L175.75 674.32L176.41 669.74L176.44 663.81L176.73 659.56L176.38 654.43L167.90 654.38L165.56 654.30L162.95 651.68L159.55 651.14L156.11 650.15L154.20 649.94L153.64 645.95L147.92 647.70L140.74 646.58L141.18 642.06L133.44 640.38L128.61 638.83L127.47 638.62L125.24 640.97L120.50 639.51L117.64 637.89L117.44 633.56L117.36 626.73L118.77 626.35L122.46 625.34L126.12 623.47L128.00 621.78L129.90 619.57L131.69 617.32L133.87 614.26L135.47 612.20L138.37 609.97L141.02 607.95L144.71 605.25L147.37 603.15L149.46 601.69L145.88 597.48L140.65 591.38L138.03 589.01L136.89 587.83L135.17 586.10L133.33 584.82L130.84 582.61L128.29 580.99L125.96 579.29L124.30 578.16L122.74 577.18L121.22 576.22L120.16 575.88L118.67 575.31L116.60 576.11L114.30 577.33L113.30 577.88L111.61 576.91L110.33 575.79L109.10 575.55L106.92 575.09L106.85 573.43L106.50 571.44L103.81 572.21L102.56 570.39L101.75 568.84L103.17 567.66L103.99 565.93L103.43 564.62L102.88 563.53L102.01 561.75L99.83 560.88L101.52 558.54L101.09 556.98L100.47 556.08L99.31 554.97L98.37 554.12L97.07 553.15L95.65 554.19L94.91 552.39L95.47 551.11L97.37 550.24L97.08 548.63L95.53 548.37L93.79 548.80L91.70 549.54L90.21 550.11L89.43 549.80L88.82 549.92L88.13 549.81L87.65 549.53L87.28 548.97L87.20 548.31L87.50 547.45L87.80 546.89L88.02 546.02L87.95 544.87L87.49 543.95L87.14 543.37L86.92 542.85L86.43 542.07L85.26 541.25L84.98 541.12L83.89 540.45Z" data-ward="17" /><path id="ward-15" class="ward" d="M256.77 718.54L260.54 709.55L264.50 696.96L262.33 695.73L259.69 694.44L257.30 692.63L256.35 688.96L255.11 686.80L253.88 684.99L252.99 683.58L252.11 682.16L250.45 681.15L248.90 680.14L246.95 682.13L246.70 683.38L246.32 684.62L245.54 687.36L244.82 689.05L242.71 689.91L240.77 691.19L239.47 692.03L236.23 695.07L234.03 696.24L231.42 697.02L230.05 698.18L228.53 699.50L227.10 700.68L225.91 701.51L224.71 702.33L223.33 703.58L221.85 704.13L221.12 701.70L220.55 700.31L219.98 698.93L217.91 698.67L216.04 698.97L214.70 699.34L212.91 699.79L211.29 700.20L209.19 700.38L207.49 700.28L204.24 699.61L202.75 699.32L200.71 698.22L199.20 697.17L196.89 695.72L194.34 693.70L193.35 692.80L190.77 690.72L188.84 689.35L187.19 687.96L184.85 685.64L182.87 683.71L180.76 683.01L177.44 682.39L173.81 681.90L172.39 684.57L171.33 686.00L169.85 689.15L168.99 690.70L167.73 691.16L166.72 691.62L165.74 692.32L164.73 693.18L163.02 693.68L161.83 694.06L160.21 694.32L158.08 693.80L156.20 692.44L154.37 690.99L152.58 689.86L151.13 688.85L149.21 687.37L147.19 685.88L144.70 684.34L141.12 682.17L140.14 683.39L138.60 684.90L137.01 686.63L135.41 688.71L133.97 690.52L132.15 692.67L130.62 694.52L129.27 696.11L127.85 697.56L126.35 699.07L124.49 700.50L121.83 701.62L119.21 702.98L118.03 703.94L116.87 704.88L114.92 706.97L113.72 708.12L112.75 709.11L111.53 711.12L110.06 712.25L99.30 707.47L98.84 708.68L98.35 709.95L97.48 712.57L96.07 714.68L94.06 717.02L92.02 718.82L89.86 720.93L88.37 722.35L87.51 724.72L87.15 727.08L86.48 728.88L86.29 730.32L86.55 731.56L88.99 733.28L91.48 735.20L93.38 736.87L95.26 736.58L96.70 735.93L98.73 734.32L100.57 732.63L102.12 730.77L103.61 728.26L105.77 725.62L108.11 723.21L109.76 722.06L111.41 720.05L112.90 718.25L114.02 716.76L115.15 715.11L116.17 713.61L116.85 712.45L117.97 711.14L119.16 710.17L120.42 709.38L121.92 708.69L123.19 708.39L124.31 708.30L126.98 709.37L128.95 711.12L130.14 712.50L131.18 713.78L132.17 714.69L133.08 715.65L134.68 716.56L137.75 715.41L140.00 713.99L142.30 712.70L143.78 712.35L145.44 712.36L146.97 712.52L148.59 713.34L150.37 714.80L152.21 716.28L153.33 718.23L154.13 719.77L155.09 723.04L155.70 726.53L156.34 728.70L157.10 729.77L158.69 731.23L161.10 732.64L163.00 733.23L164.44 733.67L165.76 734.81L166.28 736.56L165.25 739.02L163.57 740.97L162.51 741.86L161.42 742.78L160.47 743.72L159.52 744.67L156.47 747.01L155.01 748.13L153.99 748.91L152.49 749.19L150.37 749.57L148.37 749.38L147.27 749.27L146.06 749.23L145.04 749.68L144.01 751.15L143.10 752.46L142.30 755.27L144.96 756.87L146.61 756.89L149.81 757.70L150.29 758.99L149.36 763.77L148.89 766.16L145.86 771.01L143.17 775.44L140.33 777.68L138.04 778.36L135.57 779.10L131.41 779.80L130.33 779.98L125.28 780.75L124.04 780.94L120.79 781.22L116.98 781.56L115.27 781.31L111.08 780.68L110.10 781.75L109.95 786.53L110.40 791.01L110.91 792.59L111.43 794.20L114.44 796.37L119.00 797.18L123.57 797.98L126.60 797.58L128.15 797.28L129.31 797.05L132.82 797.70L136.02 799.22L137.21 799.78L138.01 801.06L138.51 805.79L138.56 811.36L138.45 814.27L138.34 817.19L137.82 819.72L136.90 821.66L135.76 823.45L134.08 825.51L133.11 827.48L133.48 829.01L135.14 830.20L138.32 831.33L141.08 831.21L143.84 831.10L147.35 830.62L151.68 830.06L154.13 830.33L156.30 830.83L157.41 831.29L159.63 832.46L162.31 833.48L164.14 834.02L165.62 834.50L167.31 835.05L169.94 836.27L173.84 838.76L176.05 840.18L177.17 840.90L178.21 839.78L180.17 839.38L181.28 839.17L182.42 838.85L184.16 838.58L185.50 840.01L186.01 841.37L188.22 841.20L190.90 840.21L195.05 839.39L196.60 839.31L198.15 839.23L199.12 840.47L199.29 841.97L199.35 844.22L199.46 846.10L199.74 848.12L200.45 849.22L202.03 851.05L203.61 852.23L204.78 853.01L205.86 853.55L206.84 854.06L207.92 854.30L209.01 854.05L210.28 853.95L211.65 854.45L212.57 856.52L214.85 856.54L216.19 856.28L218.90 858.18L221.73 860.15L222.18 858.98L222.88 857.02L223.29 855.89L224.62 853.10L226.19 852.33L225.29 848.27L224.54 844.89L223.40 839.89L222.48 837.57L221.91 836.13L220.61 833.58L219.32 831.02L217.07 828.08L214.69 824.97L211.95 821.40L209.98 817.22L208.40 811.77L206.82 806.31L205.44 798.55L205.14 791.97L206.15 785.80L206.33 784.69L206.86 783.18L208.58 778.35L210.90 772.64L211.45 771.27L213.90 766.60L216.13 763.80L218.36 761.00L223.85 754.83L226.22 752.17L228.13 750.26L233.81 744.60L236.42 742.00L239.03 739.42L244.74 733.79L248.39 729.70L250.91 726.87L251.71 725.92L252.60 724.85L254.40 722.61L256.77 718.54Z" data-ward="15" /><path id="ward-16" class="ward" d="M180.96 846.58L179.77 844.66L177.17 840.90L176.05 840.18L173.84 838.76L169.94 836.27L167.31 835.05L165.62 834.50L164.14 834.02L162.31 833.48L159.63 832.46L157.41 831.29L156.30 830.83L154.13 830.33L151.68 830.06L147.35 830.62L143.84 831.10L141.08 831.21L138.32 831.33L135.14 830.20L133.48 829.01L133.11 827.48L134.08 825.51L135.76 823.45L136.90 821.66L137.82 819.72L138.34 817.19L138.45 814.27L138.56 811.36L138.51 805.79L138.01 801.06L137.21 799.78L136.02 799.22L132.82 797.70L129.31 797.05L128.15 797.28L126.60 797.58L123.57 797.98L119.00 797.18L114.44 796.37L111.43 794.20L110.91 792.59L110.40 791.01L109.95 786.53L110.10 781.75L111.08 780.68L115.27 781.31L116.98 781.56L120.79 781.22L124.04 780.94L125.28 780.75L130.33 779.98L131.41 779.80L135.57 779.10L138.04 778.36L140.33 777.68L143.17 775.44L145.86 771.01L148.89 766.16L149.36 763.77L150.29 758.99L149.81 757.70L146.61 756.89L144.96 756.87L142.30 755.27L143.10 752.46L144.01 751.15L145.04 749.68L146.06 749.23L147.27 749.27L148.37 749.38L150.37 749.57L152.49 749.19L153.99 748.91L155.01 748.13L156.47 747.01L159.52 744.67L160.47 743.72L161.42 742.78L162.51 741.86L163.57 740.97L165.25 739.02L166.28 736.56L165.76 734.81L164.44 733.67L163.00 733.23L161.10 732.64L158.66 733.95L157.08 735.17L155.36 735.73L153.50 736.19L151.58 735.53L150.29 734.73L148.82 734.89L147.15 735.52L145.10 736.49L143.20 737.44L142.16 738.11L139.64 739.34L135.74 739.84L133.83 740.42L131.99 740.80L129.96 741.18L127.94 741.62L126.40 742.09L124.77 742.13L123.30 741.83L122.00 741.98L121.72 743.75L121.31 745.43L120.73 746.94L120.09 748.23L119.60 749.24L118.87 750.83L117.34 751.04L115.67 751.00L113.94 750.97L112.20 751.05L110.40 750.77L108.56 750.39L106.26 750.19L104.69 751.52L103.33 752.93L101.92 754.32L100.85 755.25L99.58 756.88L98.36 757.27L96.43 757.64L94.43 758.07L92.47 758.59L90.84 758.91L89.04 758.83L87.05 758.83L85.37 758.96L84.03 759.01L81.86 759.21L80.07 759.96L77.77 761.01L75.93 761.93L74.31 762.81L71.85 763.41L70.09 761.13L69.03 759.14L67.95 757.89L66.55 756.97L65.02 757.50L63.34 757.32L61.96 757.12L60.38 757.27L58.43 757.13L56.39 757.19L54.14 756.92L51.92 756.65L49.82 756.36L48.62 755.73L46.18 754.75L44.38 754.13L43.19 755.25L40.76 757.60L39.19 760.12L38.28 762.25L37.56 764.44L36.85 766.31L36.08 767.91L35.37 769.25L34.02 770.62L32.79 771.99L32.08 774.22L31.91 775.89L31.45 776.91L30.54 777.96L27.66 780.12L25.23 781.88L21.75 784.39L20.15 785.05L21.98 786.86L23.76 788.51L25.23 790.06L26.21 791.09L28.00 793.48L29.40 795.79L30.07 797.22L30.69 798.53L31.77 801.41L32.82 803.53L33.37 804.61L34.50 805.73L35.63 806.84L38.11 808.59L39.51 809.57L41.40 810.76L43.40 811.91L45.34 812.88L47.22 813.87L49.28 814.87L50.96 815.72L53.15 816.97L54.68 817.84L57.84 819.34L62.13 819.83L64.45 819.63L67.36 819.41L70.36 819.13L71.78 818.95L73.73 818.68L75.11 818.49L76.31 818.30L77.86 818.25L79.55 818.19L81.63 818.82L83.02 819.48L84.63 820.88L85.28 822.65L85.10 824.21L84.95 825.62L84.66 827.74L84.26 829.68L83.49 832.93L82.76 835.09L82.14 836.93L80.79 837.57L81.88 838.97L82.98 840.37L85.47 842.38L87.01 843.62L87.54 844.89L88.06 846.15L88.58 847.12L89.27 848.91L88.94 851.07L89.21 852.30L89.97 855.91L90.11 857.44L90.22 858.66L91.18 861.48L91.08 864.00L90.51 866.14L91.56 867.75L91.78 868.97L92.04 870.46L92.11 871.59L92.21 873.26L92.48 875.11L93.06 877.76L94.06 880.53L94.73 881.51L95.56 882.45L96.59 883.00L100.59 884.45L103.70 888.32L106.74 889.36L108.56 889.32L110.39 889.27L113.51 889.38L114.99 889.65L117.86 890.51L120.48 889.47L123.43 888.31L126.75 887.19L128.20 886.70L130.77 885.82L133.00 885.95L134.45 886.04L136.84 886.49L140.14 887.54L141.53 888.06L143.80 888.63L144.88 889.11L146.93 889.42L148.98 889.72L150.10 889.73L153.83 889.09L156.03 887.82L157.56 888.54L159.45 889.73L161.10 890.81L162.92 892.14L163.97 892.83L166.26 894.36L167.51 895.12L168.74 895.86L171.42 897.53L172.57 898.36L174.16 899.93L175.45 901.05L176.71 901.68L177.99 902.03L180.47 902.76L181.99 903.09L183.44 903.15L184.56 903.19L185.90 903.21L187.03 903.23L188.74 903.89L188.56 901.37L188.53 899.87L188.15 896.51L188.00 894.91L187.83 892.08L187.89 889.89L188.05 887.93L188.24 885.78L188.04 882.52L187.72 880.09L187.31 877.55L186.64 874.57L184.93 870.42L183.86 867.67L182.98 865.91L182.10 864.16L181.53 862.91L181.15 861.28L180.93 859.35L180.72 857.42L180.63 856.27L180.26 854.15L180.13 852.42L180.38 851.24L180.92 849.70L181.06 848.54L180.96 846.58Z" data-ward="16" /><path id="ward-20" class="ward" d="M266.97 411.68L265.60 416.56L264.97 419.99L264.54 421.23L263.08 423.89L260.75 426.60L258.58 429.27L256.95 431.92L255.88 434.20L254.68 438.58L253.55 442.80L253.63 446.55L254.11 451.60L254.46 460.37L254.19 465.08L254.04 469.45L253.96 474.29L253.62 479.01L253.40 483.07L253.04 488.00L252.48 492.94L251.88 497.12L251.14 500.99L250.53 504.82L249.61 509.07L248.30 513.71L247.24 518.10L246.22 524.16L245.90 525.46L245.31 527.87L245.05 528.95L244.50 531.28L243.41 534.95L242.59 537.72L242.01 540.23L241.23 542.44L240.74 545.20L240.37 547.56L240.00 551.81L242.10 554.17L243.10 555.31L245.27 556.32L247.75 557.00L250.38 557.38L252.34 557.80L254.79 558.33L257.44 559.17L260.98 559.77L266.38 561.11L269.01 561.76L270.66 562.30L272.03 563.29L274.18 565.28L275.83 567.46L278.11 570.53L279.88 572.86L281.97 575.64L283.29 577.63L283.84 579.70L283.41 582.27L282.68 584.02L281.79 586.46L280.87 588.26L280.28 589.57L280.05 591.98L280.02 594.43L280.73 598.49L280.99 599.94L284.93 599.20L287.57 598.41L289.20 597.70L290.97 596.20L292.44 594.77L293.17 593.32L293.49 591.13L293.77 588.17L294.38 585.98L295.41 584.02L296.62 582.82L298.59 580.98L300.20 578.89L301.39 576.76L309.24 558.23L312.53 555.17L317.90 550.10L321.63 546.84L325.08 544.04L321.94 540.85L319.80 538.33L320.45 534.91L320.85 533.48L321.73 532.75L323.85 532.49L325.32 532.15L327.07 531.88L330.12 530.46L331.43 527.82L331.77 525.96L333.39 525.62L333.51 523.86L333.46 520.57L329.46 519.59L333.35 504.39L333.19 501.14L329.84 500.94L329.04 496.14L332.00 496.20L330.34 492.51L333.59 491.76L334.83 491.47L331.43 484.20L334.04 483.12L335.26 482.18L336.74 481.97L338.77 479.83L340.24 479.12L341.68 476.76L339.83 474.03L340.18 470.87L340.95 468.21L342.20 462.57L342.05 459.94L340.99 457.49L337.46 452.51L336.08 450.12L334.04 448.02L331.66 445.68L329.22 443.88L327.93 442.48L326.49 440.86L325.10 438.50L323.72 436.94L322.07 435.54L319.93 434.00L318.13 433.23L315.64 432.87L313.02 432.63L311.10 432.87L309.95 433.02L308.65 433.24L307.35 433.47L304.52 434.89L302.86 435.73L300.02 435.16L297.59 434.00L296.01 432.85L293.50 430.55L291.46 428.10L289.80 425.96L288.72 423.77L288.48 421.54L288.10 419.96L286.19 417.50L284.31 416.46L282.02 417.10L280.15 418.09L277.12 418.78L273.79 419.37L272.09 419.25L270.45 418.20L269.00 416.37L268.32 414.04L266.97 411.68Z" data-ward="20" /><path id="ward-18" class="ward" d="M243.10 555.31L242.10 554.17L240.00 551.81L236.54 551.73L234.40 551.33L232.18 550.93L227.71 551.37L225.78 551.75L223.94 552.10L221.84 553.19L218.24 554.86L216.66 556.15L215.32 558.57L213.72 561.21L212.71 562.22L211.71 563.22L210.26 564.37L208.09 566.09L206.97 567.68L205.95 569.05L204.66 570.82L203.36 572.60L201.71 575.29L200.06 577.97L198.47 579.41L196.66 580.65L194.66 581.54L192.64 583.05L190.86 584.37L189.11 585.65L186.18 586.80L184.97 587.08L182.95 587.55L181.61 588.06L180.14 588.63L178.74 589.03L177.24 589.47L176.16 589.84L174.10 590.56L172.46 591.03L170.67 591.55L169.55 591.64L167.10 591.84L164.23 592.47L162.24 593.00L160.24 593.52L156.52 596.34L149.46 601.69L147.37 603.15L144.71 605.25L141.02 607.95L138.37 609.97L135.47 612.20L133.87 614.26L131.69 617.32L129.90 619.57L128.00 621.78L126.12 623.47L122.46 625.34L118.77 626.35L117.36 626.73L117.44 633.56L117.64 637.89L120.50 639.51L125.24 640.97L127.47 638.62L128.61 638.83L133.44 640.38L141.18 642.06L140.74 646.58L147.92 647.70L153.64 645.95L154.20 649.94L156.11 650.15L159.55 651.14L162.95 651.68L165.56 654.30L167.90 654.38L176.38 654.43L176.73 659.56L176.44 663.81L176.41 669.74L175.75 674.32L175.05 677.69L173.81 681.90L177.44 682.39L180.76 683.01L182.87 683.71L184.85 685.64L187.19 687.96L188.84 689.35L190.77 690.72L193.35 692.80L194.34 693.70L196.89 695.72L199.20 697.17L200.71 698.22L202.75 699.32L204.24 699.61L207.49 700.28L209.19 700.38L211.29 700.20L212.91 699.79L214.70 699.34L216.04 698.97L217.91 698.67L219.98 698.93L220.55 700.31L221.12 701.70L221.85 704.13L223.33 703.58L224.71 702.33L225.91 701.51L227.10 700.68L228.53 699.50L230.05 698.18L231.42 697.02L234.03 696.24L236.23 695.07L239.47 692.03L240.77 691.19L242.71 689.91L244.82 689.05L245.54 687.36L246.32 684.62L246.70 683.38L246.95 682.13L248.90 680.14L250.45 681.15L252.11 682.16L252.99 683.58L253.88 684.99L255.11 686.80L256.35 688.96L257.30 692.63L259.69 694.44L262.33 695.73L264.50 696.96L265.73 693.66L266.20 692.38L266.67 691.10L267.51 689.51L268.35 687.93L269.91 684.99L271.44 681.33L271.98 680.05L273.04 677.54L275.41 670.56L276.42 667.08L276.86 665.57L277.81 662.76L278.57 660.55L279.26 658.05L279.87 656.00L280.64 653.89L281.03 651.17L281.15 648.55L280.97 646.50L280.30 643.22L279.78 640.30L279.54 637.86L279.79 635.25L280.34 632.03L281.11 629.09L281.49 626.11L282.03 623.30L282.28 620.46L282.49 617.71L282.63 614.71L282.84 612.03L282.52 609.41L282.23 606.01L281.54 603.08L280.99 599.94L280.73 598.49L280.02 594.43L280.05 591.98L280.28 589.57L280.87 588.26L281.79 586.46L282.68 584.02L283.41 582.27L283.84 579.70L283.29 577.63L281.97 575.64L279.88 572.86L278.11 570.53L275.83 567.46L274.18 565.28L272.03 563.29L270.66 562.30L269.01 561.76L266.38 561.11L260.98 559.77L257.44 559.17L254.79 558.33L252.34 557.80L250.38 557.38L247.75 557.00L245.27 556.32L243.10 555.31Z" data-ward="18" /><path id="ward-10" class="ward" d="M786.60 833.02L789.99 830.06L792.98 826.36L795.53 823.22L792.60 823.89L790.13 824.20L786.55 824.65L784.09 825.32L782.76 825.81L780.31 826.78L778.45 827.37L776.12 826.38L774.84 824.47L774.27 820.49L774.44 818.15L775.74 814.03L777.05 809.83L778.05 805.27L778.37 801.82L778.41 797.51L778.24 794.04L777.71 791.95L776.39 789.64L773.79 786.93L771.20 784.52L768.78 782.38L766.70 780.50L764.93 778.78L762.47 774.33L761.14 771.98L758.33 769.40L755.75 767.52L753.29 766.17L749.32 763.65L747.07 761.46L744.53 758.23L743.33 757.11L741.21 755.98L739.31 755.72L736.87 756.29L734.15 757.10L731.48 757.44L727.25 757.82L723.81 758.09L721.82 758.08L718.44 757.27L716.34 755.85L715.03 754.53L713.42 752.36L712.10 750.00L710.67 748.46L708.68 746.45L706.86 745.12L705.38 744.10L696.97 739.94L691.58 737.62L687.27 736.29L680.97 736.32L677.01 736.57L675.58 736.46L674.62 737.11L670.06 740.16L668.83 744.66L667.69 748.53L666.42 751.95L665.12 754.23L663.96 755.61L662.73 753.16L662.04 750.09L661.42 747.36L660.28 745.44L658.88 743.83L657.20 742.94L655.17 742.62L651.95 742.46L649.12 742.47L647.24 742.50L645.17 741.78L643.28 740.38L641.21 739.19L639.65 737.84L639.09 736.12L638.11 734.89L634.70 732.80L632.42 731.85L629.79 730.62L627.82 729.85L626.43 729.46L623.97 729.45L620.73 729.76L619.08 730.49L617.27 731.65L615.09 733.14L613.00 734.77L611.13 735.85L608.53 736.84L606.90 737.94L605.89 737.05L604.50 737.01L602.97 737.87L600.49 738.49L598.07 738.90L595.92 739.02L593.50 739.73L588.25 741.82L585.46 743.18L583.27 744.47L581.26 745.79L579.67 746.84L578.03 748.13L576.08 749.75L574.80 750.66L573.29 751.26L572.41 750.47L570.96 748.36L569.91 745.40L569.33 742.62L569.41 740.40L570.71 736.43L572.16 733.38L573.98 731.33L575.31 729.06L576.27 726.95L576.51 725.33L575.57 723.60L574.39 721.89L572.99 721.57L573.59 720.10L575.61 717.53L577.31 714.50L577.79 712.31L577.46 710.15L577.85 708.46L578.01 705.96L577.80 704.34L577.79 702.59L577.40 700.37L576.35 699.59L575.26 699.38L573.38 699.15L571.88 698.34L570.21 696.89L568.75 695.21L567.62 693.40L567.06 691.96L567.08 690.02L567.39 688.18L564.92 688.14L563.50 687.98L561.15 687.44L558.70 687.71L555.98 688.09L553.25 688.39L551.48 688.62L549.54 689.10L548.03 689.69L546.87 690.31L545.78 691.27L544.01 691.68L541.90 691.97L539.22 692.33L537.21 692.39L533.91 692.50L532.78 691.94L530.97 691.28L529.46 691.31L528.09 691.31L525.93 691.67L524.21 692.11L522.60 692.45L521.10 692.90L519.52 693.31L518.20 693.83L516.54 694.60L513.56 696.14L511.95 695.96L507.83 694.22L506.85 697.75L505.93 701.00L504.04 703.47L502.11 705.23L499.59 706.56L498.00 708.81L497.74 709.91L497.39 711.35L498.27 713.94L501.36 715.32L504.15 716.53L507.27 718.78L510.27 720.91L510.66 722.97L509.70 726.18L507.82 730.40L506.24 734.44L504.98 735.26L502.43 735.37L500.62 734.51L500.20 732.11L498.59 728.48L495.14 725.55L491.45 723.34L489.59 723.59L487.39 724.01L486.35 724.96L485.68 726.16L485.04 727.65L485.80 729.68L486.39 731.25L488.99 734.48L491.54 739.12L492.91 740.57L493.73 742.00L494.55 743.42L495.20 745.32L498.04 744.77L500.16 742.94L501.62 742.10L503.08 741.33L505.37 740.99L506.55 740.82L507.91 741.59L510.30 746.15L511.47 748.37L512.55 750.73L513.64 753.08L515.52 755.32L519.66 756.57L521.86 757.23L524.35 757.98L525.60 757.84L527.08 757.62L529.08 758.26L532.20 757.11L534.35 756.55L536.36 757.52L537.89 758.02L538.48 759.55L538.17 761.28L537.03 762.84L535.41 763.74L533.26 763.83L531.72 764.94L528.79 764.68L522.03 763.58L513.97 764.00L510.83 766.64L510.85 772.21L510.89 775.58L512.36 790.61L512.69 794.01L514.71 796.36L515.73 797.53L518.77 801.05L519.90 801.29L522.76 801.90L525.53 802.50L528.21 803.08L529.39 803.34L530.78 803.10L533.66 802.62L537.30 802.01L538.69 801.70L539.74 801.21L542.03 799.94L545.15 798.21L550.17 797.57L552.48 797.94L552.03 800.81L551.62 803.34L550.55 806.85L549.64 809.86L548.58 813.35L547.84 815.75L545.66 820.56L544.07 823.92L543.57 824.96L542.63 826.95L540.65 828.31L538.90 828.30L535.53 826.93L532.88 825.37L531.84 824.87L530.20 824.09L527.89 824.37L527.58 825.61L527.65 827.01L528.22 829.07L528.65 830.88L529.02 833.84L529.83 835.46L531.42 836.07L533.01 836.68L534.99 836.00L537.08 834.74L538.60 833.83L540.32 833.48L541.91 833.50L543.50 833.51L545.54 834.04L546.54 834.92L546.84 836.98L545.90 839.11L545.10 840.04L543.14 841.39L541.91 844.00L541.52 846.21L542.71 849.35L542.93 851.59L543.16 853.83L542.73 855.75L542.35 856.87L540.77 857.91L538.36 860.02L537.06 861.74L536.56 864.59L537.46 866.47L538.36 867.26L540.06 867.79L541.29 868.17L543.53 868.05L545.77 867.93L548.25 868.01L550.74 868.09L551.87 871.48L553.00 874.86L554.17 879.25L555.15 880.97L557.67 882.08L561.11 882.64L563.86 883.09L566.98 882.78L568.48 882.74L570.59 882.70L572.39 882.40L574.86 882.00L576.46 880.48L577.40 879.59L579.21 876.28L581.31 872.42L582.94 871.14L585.64 872.60L587.57 873.65L587.96 874.87L587.40 876.59L586.10 877.81L585.16 879.11L584.38 880.19L583.27 882.63L582.48 885.91L581.61 889.53L580.79 892.93L580.79 894.48L580.78 896.03L581.40 898.18L582.31 899.04L584.22 899.85L586.29 900.56L588.37 901.27L589.78 901.39L591.65 901.66L593.53 901.93L594.67 902.78L594.91 904.41L595.05 906.11L595.19 910.13L595.32 912.73L595.63 914.93L596.18 916.38L598.14 916.82L599.53 916.48L601.28 916.35L602.38 916.42L603.45 916.84L605.31 918.05L606.90 919.09L608.13 919.45L610.01 919.02L611.54 917.66L612.22 916.32L612.43 915.04L612.47 913.75L612.51 912.53L612.92 911.42L613.32 910.33L613.81 909.00L613.86 907.75L613.32 906.10L612.60 905.15L611.13 903.53L609.64 901.87L608.96 900.56L608.86 898.74L611.35 897.48L613.42 896.42L614.61 896.12L615.86 895.88L617.12 896.25L618.02 897.26L618.60 898.52L619.14 900.09L619.55 901.31L620.00 902.53L621.44 904.54L623.67 906.03L625.40 905.60L627.31 903.85L628.85 900.35L629.57 899.20L630.16 898.27L631.85 898.15L634.05 899.42L636.97 901.27L638.97 902.35L642.07 901.35L643.47 900.34L645.31 898.34L646.28 896.49L647.25 894.63L647.91 893.75L649.51 893.33L650.73 893.81L651.75 894.80L652.49 896.81L652.38 898.96L651.49 900.81L651.40 902.21L652.47 903.94L653.56 904.39L654.84 904.37L656.11 904.35L658.00 905.02L659.45 905.54L660.18 906.55L661.01 908.74L661.64 910.39L662.32 911.90L663.01 913.40L663.94 914.37L665.80 914.29L668.03 912.63L668.64 911.31L668.54 909.91L666.28 908.93L665.06 908.42L664.34 906.05L667.21 905.52L668.39 905.03L670.57 903.47L672.32 901.92L674.13 899.57L675.67 898.76L678.65 898.35L680.30 898.04L681.25 896.57L681.81 894.75L682.12 893.22L682.98 891.12L684.17 889.80L685.88 889.23L687.48 888.83L689.27 888.68L691.38 889.45L692.30 891.10L691.98 892.17L690.22 893.88L688.98 894.90L687.32 895.95L686.74 897.48L687.59 898.56L688.53 899.42L690.06 900.22L691.16 901.10L692.37 902.60L693.12 903.73L693.39 905.21L693.47 906.60L693.89 907.77L696.97 908.29L698.18 907.42L700.65 905.22L702.78 903.22L703.37 901.85L704.01 900.97L706.52 897.51L708.80 894.38L709.77 893.38L710.55 892.59L712.32 891.34L715.42 889.17L718.02 887.34L720.92 885.30L722.82 883.76L724.18 882.66L727.56 879.92L731.17 876.99L732.39 876.97L734.48 876.95L738.97 877.91L740.43 873.55L742.30 871.47L746.01 867.35L747.27 866.73L748.95 865.87L750.85 863.49L752.03 861.75L753.21 860.00L756.66 856.78L758.06 855.55L759.46 854.31L763.92 853.13L765.40 852.73L767.80 852.08L768.99 851.09L770.71 850.67L772.41 849.94L773.69 845.72L776.17 844.17L776.94 842.35L779.19 839.38L781.85 837.75L783.40 836.19L784.33 835.38L786.60 833.02Z" data-ward="10" /><path id="ward-3" class="ward" d="M750.33 70.76L749.74 69.22L749.24 67.93L748.70 66.51L750.33 64.70L753.01 63.34L751.18 61.49L750.04 60.39L748.30 58.83L746.13 56.87L744.22 55.27L742.25 53.49L740.52 51.98L739.54 51.09L736.54 48.36L735.35 47.28L732.56 46.17L731.50 45.82L729.26 44.18L728.28 43.46L726.06 42.04L724.79 41.28L723.30 40.39L721.18 39.54L719.27 38.73L717.85 38.19L715.45 37.22L710.45 35.69L707.26 34.57L705.02 33.87L701.16 32.53L699.21 31.78L697.10 30.71L695.77 29.79L694.44 28.86L691.31 26.85L690.26 26.16L688.58 25.04L684.97 22.62L681.46 20.35L679.29 18.92L677.26 17.59L676.22 16.86L673.25 14.80L670.37 12.75L667.89 11.00L665.73 9.52L663.57 8.03L661.45 6.34L659.75 5.23L658.06 4.12L655.63 3.24L653.20 2.35L649.40 1.23L648.12 0.95L643.77 0.00L640.54 0.07L637.34 0.15L635.90 0.49L633.84 0.96L632.01 1.47L630.57 1.88L629.34 1.91L628.10 1.94L625.17 2.01L624.83 4.20L624.57 5.83L624.34 7.27L622.82 8.88L619.54 12.34L621.59 13.98L622.30 16.32L622.93 17.81L622.96 20.64L623.07 23.52L623.05 25.47L622.97 26.67L623.00 29.28L622.93 30.66L623.12 32.67L623.21 34.53L623.23 36.07L623.15 37.21L623.70 41.25L623.90 42.72L622.88 44.85L625.34 45.17L626.48 45.06L626.38 47.84L627.47 50.03L628.35 51.25L628.92 52.33L629.64 55.00L629.85 56.57L630.36 58.78L629.20 59.20L627.17 60.02L623.26 61.12L621.13 61.90L617.78 63.39L616.14 65.21L616.20 68.50L614.48 70.93L613.69 72.45L612.52 73.87L610.78 75.38L608.70 76.80L606.20 76.27L603.93 74.01L602.19 76.10L600.36 78.39L598.43 80.58L596.73 84.06L595.39 86.51L594.07 98.22L591.09 97.30L590.13 100.74L589.65 102.86L589.22 104.74L588.46 107.68L586.07 108.46L584.63 108.78L582.13 109.27L579.10 110.13L577.87 110.67L575.90 111.92L571.13 114.42L568.34 115.93L568.69 117.46L568.80 119.60L568.90 122.60L568.88 124.53L568.97 126.94L569.48 129.91L567.98 130.28L565.88 130.57L563.46 131.11L561.96 131.48L561.46 133.14L561.52 135.39L561.46 137.14L560.86 139.12L559.95 142.09L558.65 145.37L557.72 147.98L556.54 151.03L555.59 153.32L554.33 156.33L553.24 158.62L551.05 161.92L547.57 168.17L546.32 170.95L545.43 173.37L545.81 174.58L546.55 175.71L547.01 176.99L547.20 178.36L548.22 181.45L548.72 183.92L549.00 185.62L549.16 187.90L549.47 190.26L549.37 192.61L549.35 194.60L553.19 196.53L554.31 198.72L553.61 200.95L546.99 223.00L548.65 223.19L550.72 223.41L552.17 223.57L555.05 223.89L557.40 223.85L558.63 223.83L559.92 223.81L561.80 224.20L563.08 224.47L564.16 224.70L565.37 224.96L566.89 225.28L568.26 225.57L569.02 224.30L570.24 222.25L571.24 220.58L571.89 219.48L573.13 217.41L575.90 212.76L576.92 213.15L578.48 213.75L580.52 214.55L582.23 215.21L584.33 216.03L585.58 216.51L587.02 217.07L588.05 218.09L589.51 219.55L590.52 220.55L591.48 221.51L592.46 222.48L593.27 223.29L594.74 223.71L596.08 224.08L598.39 224.74L600.19 225.25L603.51 226.18L605.70 225.75L607.16 225.47L608.75 225.15L611.87 224.54L613.32 224.42L614.64 224.30L617.47 224.06L620.04 223.84L621.81 223.69L623.72 223.53L625.89 223.34L628.06 223.16L634.69 223.50L636.26 223.58L638.76 223.71L639.07 221.79L639.73 217.76L639.92 216.47L640.26 214.23L640.73 211.06L641.05 209.95L641.60 208.08L642.60 204.62L642.56 201.40L642.44 198.06L642.33 194.86L644.22 191.49L645.00 190.10L646.06 188.22L647.53 185.59L647.61 183.86L647.86 178.11L646.28 174.21L645.44 172.07L644.81 170.80L643.16 167.24L643.51 164.23L643.94 162.53L644.60 159.96L647.65 159.22L654.23 158.29L658.07 157.74L660.21 155.59L663.16 152.63L664.50 149.62L665.48 147.41L666.04 146.15L666.50 145.14L667.21 143.54L668.28 142.17L669.26 141.15L671.02 139.31L673.13 137.53L675.19 135.20L676.43 133.80L677.75 132.32L679.09 130.81L680.94 128.72L682.28 127.21L684.25 125.00L685.43 123.66L686.73 122.20L688.29 120.44L689.36 119.24L690.10 118.19L691.22 116.62L692.34 115.04L693.35 113.61L694.35 112.20L695.64 110.36L696.30 109.19L697.18 107.61L698.30 105.61L699.29 103.82L700.51 101.64L702.69 100.14L703.71 99.44L705.37 98.45L706.38 97.84L707.64 95.90L708.20 94.43L708.48 92.40L708.77 91.16L711.57 89.53L713.32 89.26L714.59 89.06L715.76 88.89L718.28 88.50L719.86 88.27L721.26 87.88L723.07 87.38L724.15 86.76L726.59 85.37L728.65 84.20L729.72 83.60L730.79 82.99L732.47 82.04L733.83 81.27L734.86 80.68L736.09 79.98L737.30 79.30L739.04 78.31L741.27 77.20L742.91 76.39L744.38 75.66L746.05 74.84L747.52 74.11L749.01 73.37L749.57 72.26L750.33 70.76Z" data-ward="3" /><path id="ward-4" class="ward" d="M516.88 308.42L517.54 307.96L521.58 305.18L523.07 302.92L525.01 301.63L525.91 300.55L526.98 299.40L528.04 298.24L528.12 296.21L528.20 293.94L524.14 290.82L521.59 289.01L520.29 287.41L520.91 284.76L521.31 283.01L521.99 280.10L526.13 275.98L526.91 275.20L527.78 274.34L528.92 273.21L529.16 267.02L529.20 265.87L528.44 264.77L527.79 263.82L526.95 262.62L523.42 260.64L518.53 257.79L515.03 257.64L510.47 259.05L508.95 263.43L508.23 267.05L506.49 268.49L503.74 267.62L499.73 265.27L498.06 263.65L497.56 257.57L497.68 256.10L497.58 251.25L495.97 248.13L493.18 244.41L492.28 241.33L490.07 240.90L489.91 242.40L489.77 245.59L489.16 249.40L489.99 251.80L490.40 252.93L490.62 254.77L490.84 256.62L490.92 258.08L490.26 259.00L488.28 260.10L486.95 264.82L485.48 273.99L483.21 275.58L480.94 277.17L476.23 280.14L468.96 283.88L467.68 284.72L466.79 285.98L465.68 288.62L464.81 291.94L460.12 289.84L456.50 288.33L454.67 287.54L453.71 286.95L452.16 285.68L450.61 284.41L448.87 282.80L447.35 280.89L446.10 279.27L444.85 277.65L443.94 276.42L443.03 275.19L440.67 272.87L438.87 272.20L436.61 271.32L434.34 270.44L432.74 269.69L431.24 268.98L429.41 268.08L427.75 267.28L426.14 266.53L424.45 265.66L422.51 264.78L421.24 264.10L419.97 263.42L418.56 264.82L417.05 265.84L413.70 267.26L410.13 268.89L410.24 271.17L410.57 273.45L410.94 275.96L410.40 278.16L407.92 281.53L406.72 284.59L406.25 287.82L405.96 289.65L405.67 291.47L404.43 296.67L404.70 302.97L405.35 307.03L405.68 309.08L408.12 311.82L411.50 313.07L414.86 312.56L419.43 313.01L424.03 314.91L424.07 318.45L424.03 322.08L424.15 324.66L422.86 327.66L420.65 330.78L419.57 332.21L418.49 333.64L417.21 335.18L415.27 337.51L413.89 339.45L411.30 341.93L409.41 343.62L402.27 347.57L389.73 355.25L387.95 356.17L383.92 358.27L380.67 360.19L374.67 365.19L372.68 366.74L370.68 368.29L366.71 371.32L356.80 379.95L359.35 380.63L365.34 382.89L370.61 384.95L374.39 387.87L379.07 392.75L382.50 396.28L385.95 398.11L391.34 399.24L401.20 400.09L409.99 401.48L416.26 402.77L419.81 403.50L425.36 404.38L428.84 404.93L436.70 408.38L445.15 412.36L448.90 414.74L449.30 416.71L449.55 418.00L451.75 423.87L454.46 428.34L458.03 432.92L459.07 436.49L461.09 443.59L463.85 451.99L465.52 454.55L467.12 455.54L472.14 458.65L482.43 463.93L495.27 469.72L496.87 467.24L499.22 463.57L502.39 461.25L503.69 460.30L503.97 458.58L504.25 456.84L502.91 453.87L500.88 453.31L496.75 450.95L495.16 449.66L494.56 448.29L493.98 446.94L493.70 445.36L493.28 442.98L494.08 441.29L495.06 440.05L496.56 438.14L502.83 435.92L506.04 434.78L507.11 432.99L508.57 431.16L508.70 426.87L508.70 425.32L508.55 421.18L508.46 419.17L507.49 417.74L506.28 415.93L505.79 414.78L506.09 410.72L506.20 409.28L507.84 408.83L509.47 408.37L512.53 407.61L513.84 407.28L514.92 407.01L515.82 406.20L518.03 405.20L526.15 401.45L527.41 400.84L527.20 398.71L526.97 396.39L527.31 393.80L527.62 391.42L528.42 389.55L528.95 387.14L529.69 383.70L529.45 381.64L529.30 380.40L529.06 378.37L529.48 376.93L529.99 375.21L533.18 370.84L538.74 365.48L539.58 364.32L541.56 360.62L543.93 356.64L543.87 353.21L544.15 351.05L543.50 347.33L542.55 341.86L541.21 339.14L540.30 337.28L538.09 336.32L535.44 334.08L533.74 333.89L532.49 333.00L529.64 330.97L527.34 330.00L523.62 326.11L521.79 324.50L518.29 322.18L517.25 319.83L515.87 318.11L515.82 314.89L515.32 313.66L515.92 312.58L516.88 308.42Z" data-ward="4" /></svg>