<svg viewBox="0 0 1000.00 603.60" xmlns="http://www.w3.org/2000/svg"><style>.ward { fill: #e2e8f0; stroke: #fff; stroke-width: 0.5px; } .ward:hover { fill: #cbd5e1; }</style><path id="ward-18" class="ward" d="M402.45 320.91L400.89 320.36L399.02 320.05L396.31 319.76L393.36 320.01L390.67 319.85L389.71 319.53L386.15 318.25L384.56 317.76L383.63 317.08L383.68 315.89L383.50 314.82L380.93 313.55L379.32 313.14L373.99 311.70L372.34 310.66L370.84 308.81L369.47 308.13L366.47 307.01L364.51 306.29L361.45 305.39L359.26 305.60L357.25 305.98L353.43 306.36L351.00 306.40L349.90 307.42L348.76 308.55L348.04 307.75L347.04 306.70L346.14 306.42L343.55 306.17L342.33 306.86L341.00 306.97L339.41 306.82L337.82 305.37L336.00 304.14L334.53 303.04L332.20 301.23L331.46 300.26L330.46 297.93L329.11 297.16L327.48 296.02L325.36 294.37L324.07 293.48L321.57 291.08L319.58 289.54L317.56 288.19L316.58 287.04L314.61 286.28L312.37 285.28L311.72 284.52L311.52 283.71L309.90 282.71L308.37 281.84L306.39 281.27L304.67 279.84L303.26 279.26L301.48 278.97L298.90 278.63L297.66 277.06L295.76 274.67L293.82 272.79L292.34 271.60L290.48 269.37L286.11 268.25L284.51 263.53L284.20 262.33L283.60 259.94L283.29 258.71L283.04 257.73L280.63 258.28L278.74 258.40L274.18 259.75L270.63 260.80L267.93 261.60L265.20 262.75L260.21 264.82L258.01 265.74L256.20 266.50L253.97 267.42L253.11 267.78L252.37 268.09L251.53 269.61L251.10 270.38L249.66 272.99L248.63 274.84L246.30 279.05L244.36 282.41L243.04 284.69L242.43 287.58L236.89 289.33L227.11 292.26L226.40 292.48L223.50 294.45L220.84 296.25L219.31 297.29L217.85 298.28L213.81 298.26L208.82 298.23L205.44 295.86L198.75 291.18L195.54 288.93L193.72 287.54L192.33 286.67L188.62 284.36L184.12 281.44L180.82 279.31L173.39 274.51L171.00 272.96L169.64 272.08L164.62 270.65L161.58 270.02L159.77 269.72L158.13 269.72L155.59 269.65L153.75 270.40L150.46 271.49L146.43 272.51L143.63 273.85L139.81 276.30L136.69 278.14L133.73 279.19L128.89 279.74L123.48 280.09L117.55 279.09L113.36 279.21L111.90 279.84L100.65 282.88L98.88 283.36L97.15 283.87L93.58 284.94L91.69 285.46L89.65 286.00L85.61 287.21L86.14 287.78L94.00 295.45L94.59 299.30L94.84 302.85L95.65 310.99L95.04 315.35L91.73 318.57L89.80 320.90L87.19 322.80L85.12 324.99L80.60 327.58L88.44 331.60L96.37 335.68L103.71 339.45L106.31 340.92L107.75 341.91L109.20 342.90L111.03 344.25L114.16 346.55L116.43 348.23L119.13 350.22L122.00 352.28L125.01 354.44L127.14 355.96L127.75 356.32L130.06 357.65L132.85 359.27L134.15 360.03L134.77 361.06L135.38 362.09L136.66 364.45L138.15 367.20L139.34 369.65L138.18 378.19L141.68 382.62L144.71 383.34L148.28 384.19L149.70 384.57L151.12 384.95L153.61 385.77L156.68 386.78L160.08 391.87L162.82 392.95L165.98 394.19L170.98 396.16L174.24 397.44L177.62 398.76L180.54 399.16L184.56 399.64L187.77 398.24L191.18 396.75L194.94 395.11L198.52 393.54L200.95 392.48L201.94 392.05L203.44 390.89L206.08 388.86L207.93 387.43L209.19 386.46L210.56 385.40L212.98 383.57L213.98 382.87L215.99 381.44L217.64 380.28L218.95 379.35L220.18 378.48L221.96 377.22L223.61 376.06L226.14 374.27L230.54 371.17L238.81 371.97L241.30 372.24L247.02 374.49L248.13 374.95L249.24 375.41L255.75 379.44L256.77 380.00L258.79 381.11L259.95 380.51L260.98 379.98L263.11 378.89L263.71 378.53L267.63 376.18L269.79 376.28L272.34 375.44L273.80 374.96L276.04 374.22L278.05 373.56L279.02 373.52L279.99 373.49L282.73 373.45L283.60 373.57L284.28 373.84L285.30 374.29L286.47 374.79L287.96 375.44L296.12 377.23L298.12 377.46L300.22 377.70L301.75 377.88L303.52 378.08L306.02 378.37L307.71 378.56L310.25 378.85L312.51 379.16L313.22 379.41L313.64 380.15L313.77 382.10L313.60 382.88L313.47 383.81L312.38 384.52L311.50 385.06L311.37 386.00L311.39 387.38L313.28 386.44L314.47 385.87L315.47 385.27L316.47 384.68L317.38 386.13L318.39 386.91L319.55 387.15L320.34 387.30L321.40 386.91L323.36 386.86L323.56 387.98L322.61 389.16L322.09 389.89L321.45 390.19L320.40 390.50L319.88 391.09L319.61 391.90L319.57 392.76L320.09 394.20L320.77 395.47L320.96 396.46L320.89 397.76L320.43 399.89L319.67 400.60L320.19 401.80L321.28 403.51L322.29 404.25L323.21 404.82L324.81 405.79L325.49 406.24L326.63 406.86L327.38 407.29L329.57 407.81L330.71 407.57L331.85 407.05L333.02 406.70L334.20 406.62L335.62 406.49L336.43 406.32L337.54 405.91L338.63 404.99L340.29 403.86L341.25 403.94L342.34 404.10L343.26 404.22L345.07 404.28L347.29 403.88L348.60 403.25L349.37 402.88L350.33 402.41L351.66 401.77L352.79 401.23L354.35 400.52L355.29 400.17L356.50 399.72L357.74 399.26L359.96 398.44L362.10 397.63L364.43 396.69L368.25 395.14L369.11 394.80L371.29 393.86L373.46 392.94L375.01 392.30L377.02 391.47L377.57 390.59L380.30 385.45L383.09 380.69L384.45 377.24L385.19 375.68L385.62 375.03L386.21 374.57L387.63 373.92L389.50 372.90L396.32 369.32L398.44 367.75L398.79 366.99L398.51 365.87L398.21 364.99L398.00 364.01L397.95 363.24L398.30 362.16L398.89 361.25L399.78 360.28L401.25 359.30L401.97 358.88L404.03 358.29L406.51 357.41L407.22 356.95L407.93 356.12L408.43 355.26L409.22 352.00L409.35 350.02L409.22 348.03L409.34 347.23L409.80 346.00L410.56 345.01L411.31 343.38L411.39 342.40L411.32 341.24L411.23 339.69L411.04 338.45L411.09 335.18L411.80 330.79L412.01 329.02L412.26 327.29L412.29 326.48L412.08 325.33L411.75 324.20L411.42 323.37L410.79 322.87L409.94 322.96L407.36 323.04L405.08 322.89L403.89 322.41L403.09 321.62L402.45 320.91Z" data-ward="18" /><path id="ward-13" class="ward" d="M552.84 412.12L551.56 411.74L550.13 411.32L549.36 410.85L547.82 409.90L546.58 409.13L545.23 407.30L544.33 406.09L543.89 405.30L543.30 404.26L542.53 402.90L541.10 403.91L540.26 404.51L537.66 406.34L535.41 407.87L533.79 408.98L532.55 410.99L531.30 413.00L532.12 413.65L534.22 415.35L536.67 417.32L538.23 418.19L540.09 419.23L542.01 420.46L542.98 421.08L543.59 422.12L544.32 423.65L545.05 425.18L545.96 427.45L546.42 428.60L547.60 431.44L548.21 432.85L548.69 433.96L550.49 436.52L551.15 437.48L551.55 438.10L552.09 438.95L553.77 441.62L555.44 444.27L555.84 444.86L558.04 448.14L558.99 449.51L559.59 450.36L561.37 452.92L563.27 455.58L564.38 457.05L564.98 457.83L565.80 458.79L567.42 460.69L568.88 462.39L570.95 464.79L572.02 466.07L573.46 467.77L574.52 469.03L576.04 470.83L576.66 471.57L577.57 472.64L578.53 473.78L579.44 474.77L580.10 475.49L581.20 476.69L582.08 477.65L582.93 478.58L583.79 479.12L585.20 480.01L585.91 480.46L586.62 480.91L586.77 481.80L586.93 482.74L587.23 484.48L587.46 485.85L588.41 487.32L589.03 488.29L590.75 490.23L591.98 491.33L593.70 492.86L595.12 494.04L598.76 497.05L599.51 498.13L599.97 498.78L600.64 499.75L601.65 501.19L602.88 502.43L605.86 502.50L608.71 502.57L611.16 502.04L612.37 501.95L612.81 502.66L613.34 503.53L613.85 504.36L614.51 505.81L614.96 506.82L615.29 507.55L615.95 509.00L616.72 510.01L617.29 510.75L618.40 511.22L619.85 511.83L620.43 512.75L620.86 513.43L621.82 514.93L622.56 516.10L623.71 517.45L624.60 518.48L625.40 519.42L626.64 520.87L627.48 521.54L628.73 522.55L629.79 523.40L630.73 524.15L631.43 524.51L632.09 524.84L632.75 525.17L634.48 526.05L635.68 526.65L636.89 527.26L638.30 527.92L639.56 528.90L640.95 529.98L643.76 526.47L643.98 522.55L642.13 517.87L641.30 512.80L643.11 509.75L637.87 508.56L638.18 503.92L638.67 502.65L640.96 498.50L641.01 497.22L639.82 496.47L644.28 489.11L644.73 485.49L644.38 484.87L645.73 484.16L645.68 483.77L646.39 483.58L647.02 483.41L648.00 483.01L651.46 482.75L653.33 481.68L654.67 480.87L655.52 480.14L657.17 478.64L658.92 476.95L660.33 475.58L660.30 474.29L660.24 473.55L660.78 471.93L661.77 468.98L661.31 466.97L661.50 466.12L661.25 464.54L661.05 463.32L659.85 462.58L658.91 462.76L657.50 462.78L656.36 462.80L655.19 462.10L654.35 461.60L653.04 460.82L651.92 460.16L650.01 459.01L649.09 458.45L648.67 458.02L648.35 457.85L647.87 457.58L647.62 457.51L647.11 457.45L646.53 457.39L645.49 457.39L643.71 457.40L641.92 457.44L641.62 457.46L639.67 457.55L639.01 457.50L638.64 457.40L638.37 457.20L638.20 456.99L638.06 456.74L637.98 456.48L637.89 456.12L637.82 455.79L637.80 454.83L637.80 454.44L637.84 453.97L637.86 453.55L637.83 452.90L637.83 452.79L637.83 452.64L637.82 452.40L637.83 452.01L637.82 451.63L637.79 451.14L637.74 450.69L637.62 449.91L637.26 447.76L636.66 447.28L634.02 443.35L632.44 442.56L630.57 441.02L630.04 440.30L629.10 439.59L628.33 438.74L626.61 436.83L625.89 436.03L625.04 435.58L621.68 433.83L619.39 432.82L617.17 432.81L615.03 432.80L614.18 432.80L610.83 432.65L608.95 432.57L606.34 431.99L604.41 431.44L602.83 431.11L601.49 430.69L600.95 430.11L600.31 429.33L599.07 427.81L598.66 427.02L598.62 426.01L598.72 425.06L598.63 423.98L598.71 421.92L598.75 419.16L598.77 418.19L598.51 417.14L598.47 416.06L598.44 415.16L596.71 415.36L596.06 415.66L594.86 416.21L591.68 416.87L590.49 418.62L589.32 420.33L586.89 422.28L585.96 423.02L585.08 423.37L584.13 423.75L582.97 423.85L581.29 424.01L580.24 424.10L578.42 423.91L578.03 422.32L577.93 420.23L577.98 419.51L578.00 418.75L578.26 415.37L576.76 415.20L576.02 415.12L574.52 414.96L573.77 414.88L573.01 414.79L571.47 416.19L570.36 415.92L566.86 415.05L565.41 414.76L562.93 415.11L560.43 415.46L559.16 416.74L558.38 417.10L557.70 415.90L557.66 414.71L557.63 413.71L557.58 412.34L556.45 412.47L554.66 412.66L552.84 412.12Z" data-ward="13" /><path id="ward-4" class="ward" d="M714.46 119.28L712.04 116.40L708.05 114.08L706.43 114.38L704.74 114.94L703.76 115.54L702.50 116.31L701.42 116.62L700.04 117.06L698.70 117.49L695.53 118.17L694.73 118.34L693.09 118.54L689.60 119.03L688.46 119.19L687.33 119.39L686.21 119.60L682.22 119.68L680.53 118.72L677.27 116.35L673.52 114.08L672.73 114.39L671.70 115.07L670.49 119.38L669.43 122.79L668.73 126.59L668.12 128.66L667.64 130.25L667.54 132.48L667.45 134.26L667.92 136.76L666.94 137.74L664.58 137.71L662.17 137.68L661.42 137.67L657.59 138.21L655.12 138.56L653.89 139.19L652.33 140.00L652.13 140.09L651.88 140.29L651.20 140.71L650.62 141.09L650.02 141.54L649.57 141.90L648.99 142.35L648.34 142.84L647.70 143.32L647.10 143.78L646.45 144.38L645.80 145.08L644.76 146.57L644.17 147.35L643.71 148.10L643.24 148.94L642.80 149.93L642.11 151.10L641.82 151.42L641.63 152.01L641.76 152.63L642.10 153.16L642.43 153.66L643.13 155.12L642.92 156.66L642.86 156.95L642.92 157.94L642.95 158.51L642.66 159.01L642.45 159.38L641.87 159.87L641.41 160.05L640.90 160.06L640.32 160.01L639.74 159.90L639.17 159.69L638.51 159.42L636.48 158.34L636.30 158.24L635.44 158.00L634.53 157.75L633.77 157.57L633.04 157.57L632.12 157.76L631.29 157.89L631.18 157.91L630.20 158.09L628.97 158.36L628.29 158.39L627.61 158.35L626.91 158.29L626.04 158.23L625.21 158.13L624.31 158.01L621.95 157.35L621.20 157.22L620.66 157.12L620.13 157.06L619.39 157.06L618.60 157.16L617.77 157.35L616.96 157.56L615.07 157.93L612.94 158.33L609.03 158.48L604.00 159.72L599.15 159.57L595.98 159.46L594.62 159.44L591.68 159.26L590.06 159.17L587.58 159.87L585.31 161.82L585.47 165.22L586.69 168.77L587.78 171.51L588.48 173.20L590.47 176.61L591.11 177.57L594.17 180.62L596.40 183.09L595.62 184.04L594.67 185.19L592.72 186.12L591.24 186.83L587.38 188.01L586.48 188.29L587.28 191.55L588.01 191.56L588.90 191.83L589.34 192.69L589.60 193.64L590.01 195.16L590.54 196.18L591.10 197.11L592.58 198.45L594.48 199.57L595.74 200.04L597.13 200.67L598.56 201.28L599.29 201.67L600.32 201.93L602.09 202.52L600.34 203.92L600.23 205.16L600.32 205.91L600.50 206.58L600.77 207.36L600.87 208.60L600.69 210.45L600.12 212.16L599.66 213.47L599.59 214.84L599.78 216.90L599.39 218.24L598.93 219.87L598.80 220.99L599.18 222.87L599.76 224.59L600.73 226.36L601.56 228.61L601.91 229.45L604.26 230.33L605.46 231.28L607.94 235.05L609.99 237.23L613.16 239.54L616.87 243.62L622.43 248.92L625.93 252.34L634.78 250.19L638.00 249.73L639.87 249.75L641.02 250.52L642.42 251.31L644.79 249.73L649.28 251.52L653.00 238.21L654.48 236.95L659.55 227.40L663.60 222.36L662.94 220.06L663.45 217.69L665.37 216.51L668.83 214.51L674.20 211.25L677.66 208.21L678.39 196.43L678.10 188.80L676.19 183.69L684.94 180.73L687.23 180.58L688.84 183.76L689.28 184.52L692.13 184.57L695.74 184.75L697.15 185.11L698.26 185.85L699.50 187.07L701.22 188.21L705.34 188.79L708.15 189.09L716.70 189.67L721.14 190.01L724.48 190.37L724.34 189.19L724.05 186.95L724.18 185.53L724.90 183.36L725.47 182.32L725.91 181.44L726.30 180.44L726.30 179.63L725.68 178.22L724.94 176.14L724.74 174.58L724.97 172.83L725.38 170.26L725.52 168.80L725.47 167.13L724.78 165.37L724.67 164.35L724.67 162.66L724.67 161.16L724.92 159.38L724.99 158.26L725.06 154.79L725.15 152.80L725.01 151.55L724.87 150.44L725.17 149.14L725.47 147.66L726.35 145.86L727.22 144.91L727.98 144.07L728.90 142.38L729.27 140.83L729.84 138.77L730.05 137.01L730.00 135.79L730.07 134.56L730.27 132.98L730.21 131.68L729.01 131.43L727.98 129.58L727.31 128.37L726.72 127.30L723.52 125.56L722.85 125.19L719.09 123.15L718.07 122.70L717.13 121.80L716.05 120.78L714.46 119.28Z" data-ward="4" /><path id="ward-17" class="ward" d="M58.63 348.55L58.63 348.55L58.30 350.26L55.37 351.43L53.57 352.01L48.75 352.73L48.56 357.34L44.89 356.26L40.38 355.29L34.85 353.39L34.45 353.73L34.45 353.73L32.69 355.18L30.39 356.81L28.49 357.94L26.86 359.25L26.53 359.57L25.67 360.39L23.84 361.13L21.04 361.89L16.96 363.37L16.73 363.26L1.70 372.12L0.00 392.15L3.09 402.59L18.65 433.11L22.97 441.81L28.56 456.28L32.60 472.73L33.80 478.02L34.38 481.52L35.82 481.81L36.98 498.98L36.65 501.32L35.81 503.02L33.96 507.70L32.93 510.85L32.94 513.78L32.26 516.70L29.29 521.88L26.82 526.11L24.83 528.39L23.13 531.83L27.02 527.00L28.62 525.33L53.72 511.99L77.27 508.21L91.07 508.37L103.68 515.76L111.23 522.57L114.76 533.05L125.65 536.38L125.44 538.96L127.80 540.01L132.91 540.88L138.86 541.80L142.71 542.44L147.29 539.98L152.77 540.11L158.94 540.09L160.43 540.14L164.11 541.02L165.85 541.19L170.93 540.04L176.88 539.92L180.22 539.86L186.69 540.40L192.44 540.87L194.80 540.80L199.10 540.79L204.43 540.45L215.46 550.65L219.87 554.73L236.38 563.75L244.77 572.02L254.99 576.70L247.76 584.17L244.32 587.73L245.85 593.31L256.76 593.13L278.35 603.60L293.87 595.68L308.09 584.03L312.92 580.72L328.61 565.08L329.56 564.06L334.62 556.99L337.34 556.96L343.05 556.90L344.75 555.03L346.65 552.93L348.50 551.05L350.20 549.32L352.10 547.56L354.82 545.04L355.61 544.31L357.43 542.62L360.09 540.14L362.65 537.59L364.38 535.87L365.08 535.19L367.43 532.42L368.27 531.43L369.41 529.76L371.43 526.84L372.30 525.59L373.03 524.29L375.05 520.74L376.22 518.69L377.12 516.68L378.92 512.71L380.14 508.75L380.85 506.43L381.72 503.62L382.55 499.49L383.43 495.09L384.06 492.29L384.26 491.27L385.21 486.27L385.57 484.45L385.71 483.74L386.70 479.69L387.21 478.15L387.83 476.27L388.81 473.33L390.35 470.82L391.99 469.01L392.66 468.41L394.26 466.98L395.89 466.05L396.64 465.77L398.30 465.14L400.35 464.69L401.40 464.51L403.24 464.27L405.50 464.17L407.54 464.15L409.42 464.36L413.76 465.01L418.85 466.06L423.27 466.97L428.27 467.99L431.13 468.67L432.31 468.97L436.16 470.23L441.51 471.99L445.77 473.38L449.26 474.53L453.85 475.83L458.16 477.04L462.71 478.33L466.20 479.31L469.87 480.35L473.26 481.01L479.29 482.18L483.62 483.02L484.63 483.22L485.64 483.42L488.10 483.89L492.88 484.82L494.36 485.11L495.50 485.57L496.21 485.85L499.91 487.25L500.93 487.70L500.63 486.14L500.05 485.33L499.01 483.97L496.88 482.54L494.97 481.07L493.47 480.10L491.97 479.14L489.13 477.54L487.63 476.79L486.12 476.04L482.93 474.63L481.18 473.92L479.44 473.22L476.81 472.20L473.63 467.73L474.07 463.87L476.13 461.80L478.76 459.98L480.84 458.54L477.30 457.54L473.33 457.95L470.86 455.61L471.27 450.99L479.28 447.11L481.51 444.86L482.12 444.18L483.40 438.92L481.68 437.75L479.49 436.82L478.42 436.14L476.03 434.32L475.34 433.74L475.01 432.19L475.15 429.26L475.46 426.38L475.80 424.20L476.44 421.21L476.95 419.57L477.13 416.55L477.22 412.14L477.15 410.91L477.10 409.94L477.00 408.91L476.91 407.88L476.70 406.01L476.56 403.53L474.96 404.61L473.88 405.08L472.47 404.76L470.28 404.07L468.78 403.97L467.27 403.86L464.87 403.76L462.50 403.56L461.26 403.44L459.71 403.28L459.04 403.08L456.89 402.20L455.94 401.76L454.93 401.25L453.08 400.31L451.90 399.71L450.45 398.97L448.42 397.38L446.43 395.35L445.82 394.99L444.96 395.14L444.10 395.28L442.62 395.71L441.21 396.08L439.62 396.51L438.09 396.91L436.35 397.49L434.66 398.80L434.21 399.67L433.95 401.14L433.99 402.08L434.26 403.54L434.43 404.34L434.82 405.95L435.19 406.75L435.43 408.10L435.08 409.13L434.44 410.47L432.66 411.79L430.82 411.50L429.96 411.06L429.20 410.51L428.34 408.58L427.89 407.62L426.92 407.00L426.27 406.76L424.21 406.31L422.71 406.02L421.88 405.86L420.97 405.68L419.70 405.42L418.81 405.33L417.92 405.24L415.99 405.14L414.61 405.07L413.12 404.99L411.12 404.93L409.24 405.11L408.29 405.22L406.69 405.48L405.54 405.70L404.84 405.65L404.00 405.60L403.08 405.54L401.50 405.44L400.00 405.00L396.67 404.52L395.07 404.29L393.37 404.02L391.95 403.79L390.81 403.00L389.77 398.85L389.20 395.99L388.17 395.48L385.95 395.20L385.09 395.10L382.90 394.66L381.39 394.27L378.03 392.37L377.02 391.47L375.01 392.30L373.46 392.94L371.29 393.86L369.11 394.80L368.25 395.14L364.43 396.69L362.10 397.63L359.96 398.44L357.74 399.26L356.50 399.72L355.29 400.17L354.35 400.52L352.79 401.23L351.66 401.77L350.33 402.41L349.37 402.88L348.60 403.25L347.29 403.88L345.07 404.28L343.26 404.22L342.34 404.10L341.25 403.94L340.29 403.86L338.63 404.99L337.54 405.91L336.43 406.32L335.62 406.49L334.20 406.62L333.02 406.70L331.85 407.05L330.71 407.57L329.57 407.81L327.38 407.29L326.63 406.86L325.49 406.24L324.81 405.79L323.21 404.82L322.29 404.25L321.28 403.51L320.19 401.80L319.67 400.60L320.43 399.89L320.89 397.76L320.96 396.46L320.77 395.47L320.09 394.20L319.57 392.76L319.61 391.90L319.88 391.09L320.40 390.50L321.45 390.19L322.09 389.89L322.61 389.16L323.56 387.98L323.36 386.86L321.40 386.91L320.34 387.30L319.55 387.15L318.39 386.91L317.38 386.13L316.47 384.68L315.47 385.27L314.47 385.87L313.28 386.44L311.39 387.38L311.37 386.00L311.50 385.06L312.38 384.52L313.47 383.81L313.60 382.88L313.77 382.10L313.64 380.15L313.22 379.41L312.51 379.16L310.25 378.85L307.71 378.56L306.02 378.37L303.52 378.08L301.75 377.88L300.22 377.70L298.12 377.46L296.12 377.23L287.96 375.44L286.47 374.79L285.30 374.29L284.28 373.84L283.60 373.57L282.73 373.45L279.99 373.49L279.02 373.52L278.05 373.56L276.04 374.22L273.80 374.96L272.34 375.44L269.79 376.28L267.63 376.18L263.71 378.53L263.11 378.89L260.98 379.98L259.95 380.51L258.79 381.11L256.77 380.00L255.75 379.44L249.24 375.41L248.13 374.95L247.02 374.49L241.30 372.24L238.81 371.97L230.54 371.17L226.14 374.27L223.61 376.06L221.96 377.22L220.18 378.48L218.95 379.35L217.64 380.28L215.99 381.44L213.98 382.87L212.98 383.57L210.56 385.40L209.19 386.46L207.93 387.43L206.08 388.86L203.44 390.89L201.94 392.05L200.95 392.48L198.52 393.54L194.94 395.11L191.18 396.75L187.77 398.24L184.56 399.64L180.54 399.16L177.62 398.76L174.24 397.44L170.98 396.16L165.98 394.19L162.82 392.95L160.08 391.87L156.68 386.78L153.61 385.77L151.12 384.95L149.70 384.57L148.28 384.19L144.71 383.34L141.68 382.62L138.18 378.19L139.34 369.65L138.15 367.20L136.66 364.45L135.38 362.09L134.77 361.06L134.15 360.03L132.85 359.27L130.06 357.65L127.75 356.32L127.14 355.96L125.01 354.44L122.00 352.28L119.13 350.22L116.43 348.23L114.16 346.55L111.03 344.25L109.20 342.90L107.75 341.91L106.31 340.92L103.71 339.45L96.37 335.68L88.44 331.60L80.60 327.58L80.82 327.69L79.43 329.29L78.65 330.73L77.63 333.29L76.84 334.32L75.81 335.40L75.12 335.95L75.12 335.95L74.42 336.52L73.21 337.79L70.87 339.09L69.57 339.93L68.68 340.51L63.87 342.77L62.83 343.26L59.97 347.01L58.72 348.12L58.63 348.55L58.63 348.55Z" data-ward="17" /><path id="ward-10" class="ward" d="M692.13 184.57L689.28 184.52L688.84 183.76L687.23 180.58L684.94 180.73L676.19 183.69L678.10 188.80L678.39 196.43L677.66 208.21L674.20 211.25L668.83 214.51L665.37 216.51L663.45 217.69L662.94 220.06L663.60 222.36L659.55 227.40L654.48 236.95L653.00 238.21L649.28 251.52L644.79 249.73L642.42 251.31L641.02 250.52L639.87 249.75L638.00 249.73L634.78 250.19L625.93 252.34L622.43 248.92L616.87 243.62L613.16 239.54L609.99 237.23L607.94 235.05L605.46 231.28L604.26 230.33L601.91 229.45L601.80 230.55L601.56 231.53L601.17 232.23L600.48 232.97L599.53 233.68L597.58 235.03L596.43 236.07L595.45 237.61L594.95 239.04L594.78 239.92L594.51 240.81L593.99 242.23L593.30 243.19L592.20 244.64L591.22 245.73L590.38 247.12L590.02 248.85L589.34 254.34L589.19 255.45L588.54 257.94L587.72 260.38L587.38 261.60L586.99 262.63L585.89 264.58L583.99 265.68L582.88 266.17L581.83 266.93L580.90 268.02L580.57 269.24L580.58 270.35L580.71 272.31L580.59 273.30L580.20 275.06L579.90 276.24L579.45 277.68L578.50 279.80L579.33 280.63L580.80 281.56L581.70 281.65L585.03 280.99L588.60 280.84L589.87 281.02L592.12 281.60L593.37 280.95L595.43 279.26L595.96 280.04L596.27 282.00L597.38 288.12L597.28 288.87L596.64 289.76L595.94 290.43L594.97 292.43L594.36 294.78L593.61 298.45L592.89 300.91L592.08 304.39L592.08 305.95L591.90 307.11L590.59 309.91L588.77 315.17L588.40 317.52L588.49 320.89L588.42 324.89L588.94 327.80L589.39 329.20L597.00 327.28L603.77 325.42L607.21 324.46L615.62 321.74L616.17 320.39L617.21 318.55L619.23 316.27L619.98 316.02L620.85 316.05L621.54 316.51L622.51 317.25L623.41 318.05L624.50 318.74L625.48 318.74L627.54 318.04L630.32 316.98L631.01 316.73L632.07 316.34L634.06 315.37L638.40 313.26L639.95 313.14L643.59 313.64L647.24 314.03L657.72 312.59L659.66 312.31L664.68 312.48L666.89 312.03L669.09 308.98L673.84 306.25L678.86 305.25L681.02 303.75L686.70 298.14L692.66 293.42L700.12 293.48L702.87 293.31L706.33 292.96L705.72 287.61L705.44 283.40L704.59 281.73L704.26 278.65L703.60 276.50L703.55 275.11L703.32 273.26L703.55 271.92L703.07 271.29L703.69 268.79L704.33 265.62L704.84 263.47L704.20 262.70L700.47 260.99L699.20 260.76L696.47 259.21L695.34 258.38L694.51 257.29L693.09 255.76L692.28 254.93L692.12 253.91L692.19 250.37L692.94 247.44L693.79 246.52L694.90 245.87L697.32 245.16L697.43 242.01L697.64 239.42L697.87 238.19L698.68 231.57L698.24 229.07L699.04 221.37L698.94 217.66L698.09 213.55L697.73 210.51L694.52 210.84L694.78 207.58L694.25 205.47L694.63 204.62L694.34 200.62L694.84 196.75L695.28 189.10L695.74 184.75L692.13 184.57Z" data-ward="10" /><path id="ward-9" class="ward" d="M796.49 177.35L792.01 177.00L785.06 177.19L783.74 177.68L783.07 177.97L781.95 178.34L780.20 178.51L778.83 178.38L777.56 178.35L776.07 178.40L775.29 178.54L773.59 179.07L772.16 179.48L768.43 180.32L767.26 181.01L766.06 182.13L764.60 183.70L763.91 184.76L763.32 185.91L762.82 186.53L762.15 187.25L761.65 187.77L761.37 188.50L761.12 189.74L761.07 192.14L760.89 193.76L760.22 194.14L758.63 194.65L756.59 194.85L752.83 195.14L749.97 195.06L748.71 194.92L747.27 195.24L745.39 198.02L744.43 198.50L743.56 198.84L740.76 199.83L737.54 201.75L734.76 200.99L728.99 197.95L727.44 196.63L724.48 190.37L721.14 190.01L716.70 189.67L708.15 189.09L705.34 188.79L701.22 188.21L699.50 187.07L698.26 185.85L697.15 185.11L695.74 184.75L695.28 189.10L694.84 196.75L694.34 200.62L694.63 204.62L694.25 205.47L694.78 207.58L694.52 210.84L697.73 210.51L698.09 213.55L698.94 217.66L699.04 221.37L698.24 229.07L698.68 231.57L697.87 238.19L697.64 239.42L697.43 242.01L697.32 245.16L694.90 245.87L693.79 246.52L692.94 247.44L692.19 250.37L692.12 253.91L692.28 254.93L693.09 255.76L694.51 257.29L695.34 258.38L696.47 259.21L699.20 260.76L700.47 260.99L704.20 262.70L704.84 263.47L704.33 265.62L703.69 268.79L703.07 271.29L703.55 271.92L703.32 273.26L703.55 275.11L703.60 276.50L704.26 278.65L704.59 281.73L705.44 283.40L705.72 287.61L706.33 292.96L709.43 292.62L711.24 292.46L712.45 292.61L713.91 293.05L715.88 294.04L717.33 294.24L719.69 294.16L722.04 294.50L722.68 295.11L723.99 296.52L724.93 297.24L726.14 297.24L728.89 296.13L731.00 295.31L732.92 294.92L734.07 294.78L734.92 294.41L735.44 293.46L736.34 289.26L736.78 288.15L739.63 289.54L742.32 290.70L744.97 291.58L747.93 292.55L752.07 293.04L754.24 292.83L756.74 292.16L759.64 290.75L762.38 289.78L764.45 289.52L766.52 289.91L768.15 289.57L770.20 287.41L771.07 285.98L772.73 284.68L773.44 283.43L774.25 282.48L776.66 281.84L778.66 281.58L782.02 281.03L786.44 279.61L789.91 278.85L793.11 277.58L794.92 276.98L795.50 276.49L795.22 274.29L794.82 273.13L794.56 271.16L794.70 270.05L795.83 267.71L796.75 265.00L797.67 261.51L798.17 260.66L799.25 258.58L799.04 254.25L798.42 250.90L799.04 245.90L799.62 244.60L800.61 241.64L801.74 240.06L802.29 238.70L802.06 237.56L801.62 236.03L801.74 235.11L802.56 233.88L803.02 232.54L802.66 231.64L802.15 230.89L801.62 225.25L801.60 220.20L801.30 217.89L800.65 215.15L800.67 210.06L800.68 209.11L800.56 205.52L800.59 201.13L800.77 197.72L801.35 195.29L802.89 193.53L804.27 192.17L804.82 191.45L805.29 190.73L805.60 190.05L805.84 188.24L805.90 187.10L805.98 185.06L806.37 183.12L806.64 182.43L807.15 180.22L807.53 177.65L806.68 177.67L803.39 178.30L798.65 179.53L796.86 178.92L796.49 177.35Z" data-ward="9" /><path id="ward-15" class="ward" d="M500.30 398.73L500.44 399.79L499.97 401.59L499.91 403.01L499.40 405.17L498.21 406.00L497.51 406.03L496.50 405.42L495.33 404.69L494.44 404.23L493.06 404.14L492.30 404.20L490.91 404.50L489.63 404.87L488.00 405.04L484.55 404.34L481.97 403.34L479.40 402.90L477.30 403.08L476.56 403.53L476.70 406.01L476.91 407.88L477.00 408.91L477.10 409.94L477.15 410.91L477.22 412.14L477.13 416.55L476.95 419.57L476.44 421.21L475.80 424.20L475.46 426.38L475.15 429.26L475.01 432.19L475.34 433.74L476.03 434.32L478.42 436.14L479.49 436.82L481.68 437.75L483.40 438.92L482.12 444.18L481.51 444.86L479.28 447.11L471.27 450.99L470.86 455.61L473.33 457.95L477.30 457.54L480.84 458.54L478.76 459.98L476.13 461.80L474.07 463.87L473.63 467.73L476.81 472.20L479.44 473.22L481.18 473.92L482.93 474.63L486.12 476.04L487.63 476.79L489.13 477.54L491.97 479.14L493.47 480.10L494.97 481.07L496.88 482.54L499.01 483.97L500.05 485.33L500.63 486.14L500.93 487.70L502.98 488.61L507.21 490.49L508.18 490.92L508.53 490.20L508.57 487.46L508.06 484.26L508.00 483.40L508.48 482.03L509.19 479.76L509.36 478.32L509.95 477.00L511.51 475.24L512.75 473.58L513.94 472.75L516.19 471.71L517.99 471.06L518.95 470.41L520.52 467.98L522.58 465.68L524.07 463.83L524.69 462.69L525.04 461.33L525.02 459.26L524.24 457.33L523.67 456.16L523.18 455.21L522.98 454.44L522.58 453.02L521.83 452.43L520.09 451.92L518.88 450.77L518.37 449.60L518.30 448.28L518.68 447.14L519.36 446.35L520.37 446.34L521.34 446.83L522.23 447.17L523.87 447.02L525.99 445.97L528.13 444.32L530.38 441.32L531.04 439.66L531.81 437.64L532.76 436.43L534.18 435.30L535.09 434.50L536.09 432.69L536.81 430.90L537.55 429.18L538.21 428.25L538.87 427.08L539.25 426.41L539.59 424.38L539.62 423.54L539.46 422.74L538.30 421.11L536.06 419.51L535.25 418.91L534.25 418.16L532.91 416.80L532.07 415.33L531.32 413.97L531.30 413.00L532.55 410.99L533.79 408.98L535.41 407.87L537.66 406.34L540.26 404.51L541.10 403.91L542.53 402.90L542.77 400.44L543.31 396.66L544.18 394.90L546.03 391.88L546.79 391.17L548.61 390.16L550.61 389.01L552.20 387.61L553.64 386.69L555.72 386.10L557.60 385.85L559.72 385.27L561.12 384.72L564.54 383.76L566.04 383.21L566.89 382.72L567.89 381.37L568.13 379.95L568.07 378.75L567.90 377.26L567.68 374.54L567.67 373.05L567.99 370.12L568.42 366.84L566.77 366.40L564.24 365.92L562.15 365.54L560.48 365.01L558.88 364.36L557.62 363.57L556.50 362.46L554.72 360.74L553.49 359.78L552.79 359.44L550.62 358.90L548.77 358.35L548.12 357.72L547.34 356.44L547.02 355.15L546.52 353.41L546.00 352.12L545.34 351.24L544.25 350.16L543.07 349.10L541.26 347.32L539.92 346.07L538.80 345.23L537.68 344.96L536.02 344.87L535.18 344.99L533.49 345.04L531.59 344.96L530.27 344.82L527.31 344.30L525.56 344.03L524.85 343.91L523.20 344.08L521.38 344.34L519.83 344.67L517.96 345.08L516.39 345.84L515.33 346.36L514.18 346.85L512.99 347.25L511.63 347.38L510.42 347.17L508.33 346.77L507.16 346.45L505.96 346.27L504.45 345.89L503.62 345.59L500.96 344.37L498.88 343.10L498.11 342.99L497.97 344.23L498.27 345.30L498.62 347.21L498.61 348.46L498.41 349.39L498.10 350.23L497.64 351.07L496.63 352.31L496.18 353.13L496.01 354.51L495.32 355.94L494.67 356.65L493.34 357.10L492.34 356.95L491.31 356.62L490.61 356.85L490.34 357.86L489.99 358.88L489.69 360.09L489.30 361.26L488.99 362.44L488.75 363.44L487.97 365.52L487.69 367.92L488.29 368.55L487.76 369.79L486.59 370.60L486.01 371.68L486.58 372.90L487.31 374.54L487.86 375.88L487.11 376.89L486.48 377.26L485.82 377.83L485.58 378.58L485.96 379.52L486.18 380.52L485.49 381.17L484.58 381.95L484.51 382.87L484.59 384.72L485.00 387.35L485.80 388.16L486.71 389.59L487.29 390.49L488.12 391.76L488.84 392.76L489.23 393.54L489.92 394.95L491.24 395.37L492.34 395.54L493.74 396.07L495.03 396.57L496.20 396.87L497.41 397.12L498.34 398.09L499.38 398.89L500.30 398.73Z" data-ward="15" /><path id="ward-14" class="ward" d="M555.84 444.86L555.44 444.27L553.77 441.62L552.09 438.95L551.55 438.10L551.15 437.48L550.49 436.52L548.69 433.96L548.21 432.85L547.60 431.44L546.42 428.60L545.96 427.45L545.05 425.18L544.32 423.65L543.59 422.12L542.98 421.08L542.01 420.46L540.09 419.23L538.23 418.19L536.67 417.32L534.22 415.35L532.12 413.65L531.30 413.00L531.32 413.97L532.07 415.33L532.91 416.80L534.25 418.16L535.25 418.91L536.06 419.51L538.30 421.11L539.46 422.74L539.62 423.54L539.59 424.38L539.25 426.41L538.87 427.08L538.21 428.25L537.55 429.18L536.81 430.90L536.09 432.69L535.09 434.50L534.18 435.30L532.76 436.43L531.81 437.64L531.04 439.66L530.38 441.32L528.13 444.32L525.99 445.97L523.87 447.02L522.23 447.17L521.34 446.83L520.37 446.34L519.36 446.35L518.68 447.14L518.30 448.28L518.37 449.60L518.88 450.77L520.09 451.92L521.83 452.43L522.58 453.02L522.98 454.44L523.18 455.21L523.67 456.16L524.24 457.33L525.02 459.26L525.04 461.33L524.69 462.69L524.07 463.83L522.58 465.68L520.52 467.98L518.95 470.41L517.99 471.06L516.19 471.71L513.94 472.75L512.75 473.58L511.51 475.24L509.95 477.00L509.36 478.32L509.19 479.76L508.48 482.03L508.00 483.40L508.06 484.26L508.57 487.46L508.53 490.20L508.18 490.92L510.51 493.47L511.12 494.14L512.47 495.61L513.11 496.31L513.76 497.02L514.33 497.64L515.52 498.95L516.73 500.89L519.78 505.84L520.83 507.54L521.20 508.23L523.54 513.09L524.20 514.91L525.82 519.36L524.92 520.82L523.79 522.64L521.12 526.67L520.69 527.72L518.96 529.97L518.08 531.11L517.18 533.23L515.87 534.31L513.94 535.01L514.46 535.76L514.92 536.41L515.49 537.23L516.17 537.86L517.09 538.69L517.93 539.46L519.64 540.33L520.36 540.69L521.06 540.97L521.77 541.38L522.54 541.83L523.43 542.34L524.85 542.58L526.53 542.87L528.37 542.75L529.38 543.21L530.21 543.60L530.78 544.88L530.36 547.35L530.32 549.20L531.19 550.55L532.69 552.86L533.46 553.99L534.51 555.04L535.14 555.86L536.17 557.19L535.48 558.88L535.15 559.69L535.18 560.40L535.79 560.93L536.41 561.47L537.77 561.64L538.88 563.40L540.66 564.90L543.68 565.63L546.14 566.38L547.89 566.92L549.13 566.96L549.78 566.70L550.96 565.84L552.16 565.10L553.09 564.53L554.88 563.71L555.62 563.58L556.36 563.44L557.85 563.43L558.90 563.42L561.41 563.84L562.48 564.02L563.80 564.76L564.84 565.34L566.21 565.58L568.78 565.00L571.02 564.57L571.97 564.38L572.95 563.95L573.93 563.92L577.05 562.62L578.70 561.75L579.92 560.88L581.59 559.70L582.29 559.45L583.03 559.18L584.95 558.83L586.11 557.77L587.51 556.49L588.87 555.00L590.72 554.58L591.83 553.88L596.15 551.18L597.50 550.33L600.01 548.39L601.11 547.55L604.63 544.84L605.47 544.19L607.84 543.43L610.18 542.69L614.33 541.97L616.40 541.88L617.77 541.94L619.78 542.02L621.71 542.70L624.25 543.60L625.91 544.19L629.57 542.49L631.72 544.24L632.43 544.53L638.22 546.89L640.04 547.26L641.19 547.55L643.79 548.20L646.53 548.89L644.48 547.41L643.45 546.68L643.45 545.45L643.45 544.21L644.27 543.54L644.84 543.07L644.46 542.14L644.13 541.34L642.35 540.24L640.96 539.37L640.08 538.25L640.03 536.71L638.62 535.98L637.21 535.25L636.95 534.32L638.31 532.28L637.26 531.90L637.48 531.06L638.10 528.71L638.30 527.92L636.89 527.26L635.68 526.65L634.48 526.05L632.75 525.17L632.09 524.84L631.43 524.51L630.73 524.15L629.79 523.40L628.73 522.55L627.48 521.54L626.64 520.87L625.40 519.42L624.60 518.48L623.71 517.45L622.56 516.10L621.82 514.93L620.86 513.43L620.43 512.75L619.85 511.83L618.40 511.22L617.29 510.75L616.72 510.01L615.95 509.00L615.29 507.55L614.96 506.82L614.51 505.81L613.85 504.36L613.34 503.53L612.81 502.66L612.37 501.95L611.16 502.04L608.71 502.57L605.86 502.50L602.88 502.43L601.65 501.19L600.64 499.75L599.97 498.78L599.51 498.13L598.76 497.05L595.12 494.04L593.70 492.86L591.98 491.33L590.75 490.23L589.03 488.29L588.41 487.32L587.46 485.85L587.23 484.48L586.93 482.74L586.77 481.80L586.62 480.91L585.91 480.46L585.20 480.01L583.79 479.12L582.93 478.58L582.08 477.65L581.20 476.69L580.10 475.49L579.44 474.77L578.53 473.78L577.57 472.64L576.66 471.57L576.04 470.83L574.52 469.03L573.46 467.77L572.02 466.07L570.95 464.79L568.88 462.39L567.42 460.69L565.80 458.79L564.98 457.83L564.38 457.05L563.27 455.58L561.37 452.92L559.59 450.36L558.99 449.51L558.04 448.14L555.84 444.86Z" data-ward="14" /><path id="ward-16" class="ward" d="M465.78 318.04L465.00 317.94L463.20 317.41L461.00 316.55L459.99 315.97L458.38 315.47L456.89 315.11L455.08 315.21L453.65 315.29L452.37 315.96L451.09 317.05L450.03 318.03L447.90 318.42L444.57 318.42L440.76 317.63L436.19 316.52L434.72 316.46L432.95 316.52L431.06 317.07L427.51 318.40L424.83 319.71L423.73 320.58L421.97 320.92L417.63 321.50L413.08 322.04L411.42 323.37L411.75 324.20L412.08 325.33L412.29 326.48L412.26 327.29L412.01 329.02L411.80 330.79L411.09 335.18L411.04 338.45L411.23 339.69L411.32 341.24L411.39 342.40L411.31 343.38L410.56 345.01L409.80 346.00L409.34 347.23L409.22 348.03L409.35 350.02L409.22 352.00L408.43 355.26L407.93 356.12L407.22 356.95L406.51 357.41L404.03 358.29L401.97 358.88L401.25 359.30L399.78 360.28L398.89 361.25L398.30 362.16L397.95 363.24L398.00 364.01L398.21 364.99L398.51 365.87L398.79 366.99L398.44 367.75L396.32 369.32L389.50 372.90L387.63 373.92L386.21 374.57L385.62 375.03L385.19 375.68L384.45 377.24L383.09 380.69L380.30 385.45L377.57 390.59L377.02 391.47L378.03 392.37L381.39 394.27L382.90 394.66L385.09 395.10L385.95 395.20L388.17 395.48L389.20 395.99L389.77 398.85L390.81 403.00L391.95 403.79L393.37 404.02L395.07 404.29L396.67 404.52L400.00 405.00L401.50 405.44L403.08 405.54L404.00 405.60L404.84 405.65L405.54 405.70L406.69 405.48L408.29 405.22L409.24 405.11L411.12 404.93L413.12 404.99L414.61 405.07L415.99 405.14L417.92 405.24L418.81 405.33L419.70 405.42L420.97 405.68L421.88 405.86L422.71 406.02L424.21 406.31L426.27 406.76L426.92 407.00L427.89 407.62L428.34 408.58L429.20 410.51L429.96 411.06L430.82 411.50L432.66 411.79L434.44 410.47L435.08 409.13L435.43 408.10L435.19 406.75L434.82 405.95L434.43 404.34L434.26 403.54L433.99 402.08L433.95 401.14L434.21 399.67L434.66 398.80L436.35 397.49L438.09 396.91L439.62 396.51L441.21 396.08L442.62 395.71L444.10 395.28L444.96 395.14L445.82 394.99L446.43 395.35L448.42 397.38L450.45 398.97L451.90 399.71L453.08 400.31L454.93 401.25L455.94 401.76L456.89 402.20L459.04 403.08L459.71 403.28L461.26 403.44L462.50 403.56L464.87 403.76L467.27 403.86L468.78 403.97L470.28 404.07L472.47 404.76L473.88 405.08L474.96 404.61L476.56 403.53L477.30 403.08L479.40 402.90L481.97 403.34L484.55 404.34L488.00 405.04L489.63 404.87L490.91 404.50L492.30 404.20L493.06 404.14L494.44 404.23L495.33 404.69L496.50 405.42L497.51 406.03L498.21 406.00L499.40 405.17L499.91 403.01L499.97 401.59L500.44 399.79L500.30 398.73L499.38 398.89L498.34 398.09L497.41 397.12L496.20 396.87L495.03 396.57L493.74 396.07L492.34 395.54L491.24 395.37L489.92 394.95L489.23 393.54L488.84 392.76L488.12 391.76L487.29 390.49L486.71 389.59L485.80 388.16L485.00 387.35L484.59 384.72L484.51 382.87L484.58 381.95L485.49 381.17L486.18 380.52L485.96 379.52L485.58 378.58L485.82 377.83L486.48 377.26L487.11 376.89L487.86 375.88L487.31 374.54L486.58 372.90L486.01 371.68L486.59 370.60L487.76 369.79L488.29 368.55L487.69 367.92L487.97 365.52L488.75 363.44L488.99 362.44L489.30 361.26L489.69 360.09L489.99 358.88L490.34 357.86L490.61 356.85L491.31 356.62L492.34 356.95L493.34 357.10L494.67 356.65L495.32 355.94L496.01 354.51L496.18 353.13L496.63 352.31L497.64 351.07L498.10 350.23L498.41 349.39L498.61 348.46L498.62 347.21L498.27 345.30L497.97 344.23L498.11 342.99L496.23 341.60L489.87 338.79L486.37 337.45L485.48 337.02L483.90 335.74L481.87 334.25L480.96 333.31L480.53 332.63L480.41 331.40L480.75 329.42L481.03 328.51L480.99 327.48L480.88 325.54L480.40 324.60L479.78 323.83L478.25 322.41L477.26 321.98L476.22 321.89L475.11 321.72L474.21 321.51L472.80 320.84L471.11 320.00L468.99 318.86L467.72 318.44L465.78 318.04Z" data-ward="16" /><path id="ward-1" class="ward" d="M427.63 279.41L427.70 276.44L427.76 273.66L420.75 272.77L418.79 272.52L412.70 271.31L411.19 269.64L406.92 264.93L404.88 261.11L402.46 256.59L397.20 256.46L395.76 252.49L393.60 247.75L392.58 246.59L391.38 244.85L388.20 240.92L387.32 240.17L385.00 237.52L382.57 235.53L378.90 232.53L371.99 229.51L368.70 229.97L366.51 230.10L356.27 231.63L353.47 232.05L345.34 232.60L341.06 232.56L329.76 232.45L325.30 238.53L311.55 240.92L302.14 250.57L297.88 252.96L294.43 255.12L293.28 255.84L290.88 257.34L289.93 257.39L289.19 257.42L288.34 257.46L286.94 257.53L283.04 257.73L283.29 258.71L283.60 259.94L284.20 262.33L284.51 263.53L286.11 268.25L290.48 269.37L292.34 271.60L293.82 272.79L295.76 274.67L297.66 277.06L298.90 278.63L301.48 278.97L303.26 279.26L304.67 279.84L306.39 281.27L308.37 281.84L309.90 282.71L311.52 283.71L311.72 284.52L312.37 285.28L314.61 286.28L316.58 287.04L317.56 288.19L319.58 289.54L321.57 291.08L324.07 293.48L325.36 294.37L327.48 296.02L329.11 297.16L330.46 297.93L331.46 300.26L332.20 301.23L334.53 303.04L336.00 304.14L337.82 305.37L339.41 306.82L341.00 306.97L342.33 306.86L343.55 306.17L346.14 306.42L347.04 306.70L348.04 307.75L348.76 308.55L349.90 307.42L351.00 306.40L353.43 306.36L357.25 305.98L359.26 305.60L361.45 305.39L364.51 306.29L366.47 307.01L369.47 308.13L370.84 308.81L372.34 310.66L373.99 311.70L379.32 313.14L380.93 313.55L383.50 314.82L383.68 315.89L383.63 317.08L384.56 317.76L386.15 318.25L389.71 319.53L390.67 319.85L393.36 320.01L396.31 319.76L399.02 320.05L400.89 320.36L402.45 320.91L403.09 321.62L403.89 322.41L405.08 322.89L407.36 323.04L409.94 322.96L410.79 322.87L411.42 323.37L413.08 322.04L417.63 321.50L421.97 320.92L423.73 320.58L424.83 319.71L427.51 318.40L431.06 317.07L432.95 316.52L434.72 316.46L436.19 316.52L440.76 317.63L441.56 315.94L441.97 315.20L443.22 314.54L444.54 314.28L446.31 313.94L448.18 313.61L449.14 312.94L449.14 311.87L448.07 309.09L446.38 306.91L444.28 305.17L442.15 303.72L441.78 302.24L443.40 297.69L444.13 294.91L443.97 293.05L443.88 292.29L444.42 290.50L445.12 288.21L443.59 287.89L442.07 287.18L441.11 286.98L439.86 286.73L434.62 284.72L433.76 284.39L432.72 279.41L427.63 279.41Z" data-ward="1" /><path id="ward-12" class="ward" d="M595.96 280.04L595.43 279.26L593.37 280.95L592.12 281.60L589.87 281.02L588.60 280.84L585.03 280.99L581.70 281.65L580.80 281.56L579.33 280.63L578.50 279.80L577.60 283.91L577.05 285.15L575.91 286.15L574.16 287.26L572.15 288.21L570.68 289.19L569.47 290.60L568.36 292.17L567.42 293.84L566.39 296.45L566.49 299.71L567.17 301.95L567.76 304.26L567.68 306.54L567.24 308.71L566.43 310.36L565.48 311.84L564.85 313.86L565.09 316.15L565.96 317.26L566.34 318.56L566.23 321.26L565.44 323.80L564.17 327.15L563.77 328.60L563.36 332.32L563.01 333.51L562.61 335.21L562.94 337.65L563.42 339.60L563.73 341.82L564.45 343.63L565.07 345.60L565.24 346.52L564.85 348.76L563.81 351.43L563.09 352.69L563.16 355.30L564.10 357.78L565.90 359.08L568.46 360.30L569.90 361.17L570.39 361.78L570.08 363.62L569.00 365.80L568.42 366.84L567.99 370.12L567.67 373.05L567.68 374.54L567.90 377.26L568.07 378.75L568.13 379.95L567.89 381.37L566.89 382.72L566.04 383.21L564.54 383.76L561.12 384.72L559.72 385.27L557.60 385.85L555.72 386.10L553.64 386.69L552.20 387.61L550.61 389.01L548.61 390.16L546.79 391.17L546.03 391.88L544.18 394.90L543.31 396.66L542.77 400.44L542.53 402.90L543.30 404.26L543.89 405.30L544.33 406.09L545.23 407.30L546.58 409.13L547.82 409.90L549.36 410.85L550.13 411.32L551.56 411.74L552.84 412.12L554.66 412.66L556.45 412.47L557.58 412.34L557.63 413.71L557.66 414.71L557.70 415.90L558.38 417.10L559.16 416.74L560.43 415.46L562.93 415.11L565.41 414.76L566.86 415.05L570.36 415.92L571.47 416.19L573.01 414.79L573.77 414.88L574.52 414.96L576.02 415.12L576.76 415.20L578.26 415.37L578.00 418.75L577.98 419.51L577.93 420.23L578.03 422.32L578.42 423.91L580.24 424.10L581.29 424.01L582.97 423.85L584.13 423.75L585.08 423.37L585.96 423.02L586.89 422.28L589.32 420.33L590.49 418.62L591.68 416.87L594.86 416.21L596.06 415.66L596.71 415.36L598.44 415.16L599.08 413.22L601.03 409.11L601.55 407.87L602.26 405.98L602.10 403.67L601.47 401.50L600.90 398.80L599.61 397.32L595.05 395.37L591.00 392.61L593.14 390.65L595.49 387.80L596.96 386.74L600.20 385.91L601.54 385.15L603.37 383.65L605.19 382.61L607.17 381.93L610.69 381.24L613.47 380.93L615.62 380.71L617.28 379.98L619.32 378.56L622.41 377.19L625.74 376.19L630.17 374.74L631.02 374.28L630.83 372.76L629.18 367.37L627.34 360.98L624.90 352.34L626.38 352.09L628.06 351.61L629.44 351.19L630.82 350.06L633.90 346.45L636.45 343.25L637.01 341.49L638.29 339.27L639.67 337.77L640.22 336.31L640.39 334.83L640.22 333.23L639.49 331.82L638.82 330.47L637.67 327.90L636.48 326.54L635.35 325.75L634.27 325.01L633.30 323.00L631.83 320.20L631.08 317.77L631.01 316.73L630.32 316.98L627.54 318.04L625.48 318.74L624.50 318.74L623.41 318.05L622.51 317.25L621.54 316.51L620.85 316.05L619.98 316.02L619.23 316.27L617.21 318.55L616.17 320.39L615.62 321.74L607.21 324.46L603.77 325.42L597.00 327.28L589.39 329.20L588.94 327.80L588.42 324.89L588.49 320.89L588.40 317.52L588.77 315.17L590.59 309.91L591.90 307.11L592.08 305.95L592.08 304.39L592.89 300.91L593.61 298.45L594.36 294.78L594.97 292.43L595.94 290.43L596.64 289.76L597.28 288.87L597.38 288.12L596.27 282.00L595.96 280.04Z" data-ward="12" /><path id="ward-2" class="ward" d="M448.02 285.71L447.29 286.34L445.12 288.21L444.42 290.50L443.88 292.29L443.97 293.05L444.13 294.91L443.40 297.69L441.78 302.24L442.15 303.72L444.28 305.17L446.38 306.91L448.07 309.09L449.14 311.87L449.14 312.94L448.18 313.61L446.31 313.94L444.54 314.28L443.22 314.54L441.97 315.20L441.56 315.94L440.76 317.63L444.57 318.42L447.90 318.42L450.03 318.03L451.09 317.05L452.37 315.96L453.65 315.29L455.08 315.21L456.89 315.11L458.38 315.47L459.99 315.97L461.00 316.55L463.20 317.41L465.00 317.94L465.78 318.04L467.72 318.44L468.99 318.86L471.11 320.00L472.80 320.84L474.21 321.51L475.11 321.72L476.22 321.89L477.26 321.98L478.25 322.41L479.78 323.83L480.40 324.60L480.88 325.54L480.99 327.48L481.03 328.51L480.75 329.42L480.41 331.40L480.53 332.63L480.96 333.31L481.87 334.25L483.90 335.74L485.48 337.02L486.37 337.45L489.87 338.79L496.23 341.60L498.11 342.99L498.88 343.10L500.96 344.37L503.62 345.59L504.45 345.89L505.96 346.27L507.16 346.45L508.33 346.77L510.42 347.17L511.63 347.38L512.99 347.25L514.18 346.85L515.33 346.36L516.39 345.84L517.96 345.08L519.83 344.67L521.38 344.34L523.20 344.08L524.85 343.91L525.56 344.03L527.31 344.30L530.27 344.82L531.59 344.96L533.49 345.04L535.18 344.99L536.02 344.87L537.68 344.96L538.80 345.23L539.92 346.07L541.26 347.32L543.07 349.10L544.25 350.16L545.34 351.24L546.00 352.12L546.52 353.41L547.02 355.15L547.34 356.44L548.12 357.72L548.77 358.35L550.62 358.90L552.79 359.44L553.49 359.78L554.72 360.74L556.50 362.46L557.62 363.57L558.88 364.36L560.48 365.01L562.15 365.54L564.24 365.92L566.77 366.40L568.42 366.84L569.00 365.80L570.08 363.62L570.39 361.78L569.90 361.17L568.46 360.30L565.90 359.08L564.10 357.78L563.16 355.30L563.09 352.69L563.81 351.43L564.85 348.76L565.24 346.52L565.07 345.60L564.45 343.63L563.73 341.82L563.42 339.60L562.94 337.65L562.61 335.21L563.01 333.51L563.36 332.32L563.77 328.60L564.17 327.15L565.44 323.80L566.23 321.26L566.34 318.56L565.96 317.26L565.09 316.15L564.85 313.86L565.48 311.84L566.43 310.36L567.24 308.71L567.68 306.54L567.76 304.26L567.17 301.95L566.49 299.71L566.39 296.45L567.42 293.84L568.36 292.17L569.47 290.60L570.68 289.19L572.15 288.21L574.16 287.26L575.91 286.15L577.05 285.15L577.60 283.91L578.50 279.80L577.21 279.11L575.18 277.77L571.59 275.40L569.70 274.16L567.24 272.76L565.79 271.87L564.26 271.10L562.48 269.88L560.45 268.24L559.74 267.69L558.06 266.93L555.69 265.66L554.68 265.24L553.74 264.90L552.66 265.19L550.77 265.17L550.13 264.87L548.96 263.98L548.18 263.54L547.50 263.34L546.21 263.01L544.51 262.66L542.74 261.89L541.61 261.06L540.39 259.62L539.40 258.48L538.76 257.83L538.37 258.87L538.10 260.32L537.79 262.46L537.31 263.88L536.66 265.60L536.05 266.37L534.82 268.22L533.71 270.44L532.60 270.92L530.86 271.13L529.04 271.42L524.83 272.45L523.73 272.62L520.60 273.56L519.85 273.32L518.26 272.43L516.36 271.03L513.95 268.81L513.38 268.20L512.83 267.58L511.33 266.08L510.57 265.21L509.51 264.16L508.81 263.55L507.97 263.20L506.08 263.73L505.30 264.15L504.75 264.84L503.93 266.01L503.45 266.95L502.86 267.93L502.39 268.74L501.35 270.08L500.28 269.47L499.57 268.99L498.61 268.09L497.67 267.21L497.01 266.65L495.91 265.83L495.16 265.32L494.02 264.59L492.89 264.03L491.68 263.64L490.72 263.71L489.51 263.77L488.86 263.01L487.39 261.31L486.66 261.91L485.52 262.72L484.76 262.89L483.83 263.42L483.08 264.18L481.53 264.30L480.82 264.20L479.54 263.88L478.14 263.54L477.48 263.26L475.89 262.67L474.74 262.37L474.59 263.28L474.40 264.17L474.05 265.12L473.74 266.26L473.08 267.81L472.96 268.11L472.72 268.53L472.22 269.25L471.82 269.77L471.08 270.36L470.50 270.62L470.41 270.66L469.52 270.92L468.70 270.94L467.89 270.94L467.07 270.93L466.26 270.97L465.46 271.08L465.30 271.09L465.02 271.28L464.62 271.36L464.06 271.46L463.45 271.59L461.93 272.15L461.07 272.51L460.26 272.94L459.33 273.43L458.10 274.38L457.31 274.88L456.75 275.31L456.09 275.90L455.43 276.50L454.62 277.22L454.10 277.64L453.18 278.55L452.63 279.06L452.10 279.54L451.55 280.19L451.13 280.75L450.71 281.41L450.29 281.97L449.85 282.57L449.41 283.18L449.05 283.79L448.47 284.67L448.02 285.71Z" data-ward="2" /><path id="ward-3" class="ward" d="M567.32 164.26L566.74 163.63L564.48 161.16L563.81 160.78L561.28 158.62L559.47 157.30L558.70 155.75L558.40 154.14L558.51 152.90L557.49 151.13L556.57 149.58L556.28 148.11L555.99 146.64L555.47 145.96L554.79 145.06L553.99 144.01L551.65 144.09L548.67 144.29L545.45 144.50L544.01 144.70L542.23 145.01L539.87 145.58L538.00 146.03L537.17 146.23L536.72 146.85L536.35 147.90L536.10 148.60L536.26 150.63L535.66 154.06L534.83 158.76L534.39 159.37L533.89 161.28L533.45 162.99L532.76 164.17L532.31 164.96L531.07 165.26L529.47 164.90L527.92 164.55L526.91 164.32L522.25 163.28L519.11 162.57L516.80 162.74L515.44 162.85L512.96 163.19L512.35 163.80L511.19 165.55L510.73 166.23L510.71 168.71L510.68 171.96L510.64 175.26L510.53 177.02L510.40 178.27L510.14 180.63L509.90 182.83L509.57 185.93L509.25 188.87L508.64 194.53L508.43 196.48L508.28 197.87L507.61 199.43L507.23 200.79L506.85 202.24L506.50 203.90L506.39 205.18L506.41 206.82L506.52 207.73L506.51 208.88L506.43 209.98L506.24 210.83L506.11 211.44L505.54 211.90L504.42 212.19L503.81 212.27L503.28 212.38L502.37 212.51L502.08 212.56L500.86 212.96L500.20 213.04L499.38 212.98L499.09 212.97L498.77 212.95L497.97 213.03L497.41 213.20L496.88 213.40L496.48 213.56L495.98 213.73L495.70 213.88L495.17 214.13L494.66 214.41L493.57 214.88L492.59 215.21L491.69 215.43L490.21 215.88L489.15 216.40L488.75 216.59L488.04 217.04L487.44 217.48L486.93 217.99L486.23 218.73L485.52 219.48L485.25 219.99L485.01 220.68L484.66 221.74L484.56 222.46L484.51 223.84L484.58 224.67L484.85 225.37L485.06 226.05L485.37 227.07L486.11 229.13L486.73 230.69L486.94 231.61L487.18 232.70L487.68 234.77L487.83 235.73L487.87 236.43L487.84 237.30L487.41 238.48L487.17 239.51L486.93 240.34L485.58 242.00L484.67 243.03L484.22 243.90L483.26 245.41L482.93 246.12L482.32 247.12L481.98 247.60L481.56 248.15L480.48 249.74L480.34 250.02L479.81 251.07L479.43 251.84L478.83 252.89L478.23 253.67L476.36 257.22L475.24 260.00L474.74 262.37L475.89 262.67L477.48 263.26L478.14 263.54L479.54 263.88L480.82 264.20L481.53 264.30L483.08 264.18L483.83 263.42L484.76 262.89L485.52 262.72L486.66 261.91L487.39 261.31L488.86 263.01L489.51 263.77L490.72 263.71L491.68 263.64L492.89 264.03L494.02 264.59L495.16 265.32L495.91 265.83L497.01 266.65L497.67 267.21L498.61 268.09L499.57 268.99L500.28 269.47L501.35 270.08L502.39 268.74L502.86 267.93L503.45 266.95L503.93 266.01L504.75 264.84L505.30 264.15L506.08 263.73L507.97 263.20L508.81 263.55L509.51 264.16L510.57 265.21L511.33 266.08L512.83 267.58L513.38 268.20L513.95 268.81L516.36 271.03L518.26 272.43L519.85 273.32L520.60 273.56L523.73 272.62L524.83 272.45L529.04 271.42L530.86 271.13L532.60 270.92L533.71 270.44L534.82 268.22L536.05 266.37L536.66 265.60L537.31 263.88L537.79 262.46L538.10 260.32L538.37 258.87L538.76 257.83L539.40 258.48L540.39 259.62L541.61 261.06L542.74 261.89L544.51 262.66L546.21 263.01L547.50 263.34L548.18 263.54L548.96 263.98L550.13 264.87L550.77 265.17L552.66 265.19L553.74 264.90L554.68 265.24L555.69 265.66L558.06 266.93L559.74 267.69L560.45 268.24L562.48 269.88L564.26 271.10L565.79 271.87L567.24 272.76L569.70 274.16L571.59 275.40L575.18 277.77L577.21 279.11L578.50 279.80L579.45 277.68L579.90 276.24L580.20 275.06L580.59 273.30L580.71 272.31L580.58 270.35L580.57 269.24L580.90 268.02L581.83 266.93L582.88 266.17L583.99 265.68L585.89 264.58L586.99 262.63L587.38 261.60L587.72 260.38L588.54 257.94L589.19 255.45L589.34 254.34L590.02 248.85L590.38 247.12L591.22 245.73L592.20 244.64L593.30 243.19L593.99 242.23L594.51 240.81L594.78 239.92L594.95 239.04L595.45 237.61L596.43 236.07L597.58 235.03L599.53 233.68L600.48 232.97L601.17 232.23L601.56 231.53L601.80 230.55L601.91 229.45L601.56 228.61L600.73 226.36L599.76 224.59L599.18 222.87L598.80 220.99L598.93 219.87L599.39 218.24L599.78 216.90L599.59 214.84L599.66 213.47L600.12 212.16L600.69 210.45L600.87 208.60L600.77 207.36L600.50 206.58L600.32 205.91L600.23 205.16L600.34 203.92L602.09 202.52L600.32 201.93L599.29 201.67L598.56 201.28L597.13 200.67L595.74 200.04L594.48 199.57L592.58 198.45L591.10 197.11L590.54 196.18L590.01 195.16L589.60 193.64L589.34 192.69L588.90 191.83L588.01 191.56L587.28 191.55L586.48 188.29L583.47 188.63L579.91 187.92L579.30 187.53L575.91 185.87L574.94 185.13L572.74 183.46L572.39 181.48L573.66 179.74L574.49 178.60L575.10 177.75L574.82 176.34L574.50 174.68L573.06 172.46L570.99 169.24L568.89 165.99L567.32 164.26Z" data-ward="3" /><path id="ward-11" class="ward" d="M637.62 449.91L637.74 450.69L637.79 451.14L637.82 451.63L637.83 452.01L637.82 452.40L637.83 452.64L637.83 452.79L637.83 452.90L637.86 453.55L637.84 453.97L637.80 454.44L637.80 454.83L637.82 455.79L637.89 456.12L637.98 456.48L638.06 456.74L638.20 456.99L638.37 457.20L638.64 457.40L639.01 457.50L639.67 457.55L641.62 457.46L641.92 457.44L643.71 457.40L645.49 457.39L646.53 457.39L647.11 457.45L647.62 457.51L647.87 457.58L648.35 457.85L648.67 458.02L649.09 458.45L650.01 459.01L651.92 460.16L653.04 460.82L654.35 461.60L655.19 462.10L656.36 462.80L657.50 462.78L658.91 462.76L659.85 462.58L661.05 463.32L661.25 464.54L661.50 466.12L661.31 466.97L661.77 468.98L662.57 469.72L663.32 470.43L664.20 470.57L665.58 471.38L666.68 471.24L667.78 470.52L668.53 470.44L669.48 470.35L671.43 471.55L672.00 472.06L672.72 472.56L673.98 472.74L674.68 472.89L675.75 473.13L677.73 473.20L678.88 473.24L680.30 472.63L681.29 472.24L682.31 471.84L683.77 470.98L684.57 470.60L685.42 470.92L686.38 471.29L687.66 471.13L688.81 470.99L689.83 470.86L690.83 470.15L691.79 469.48L693.28 469.42L694.28 469.35L695.87 469.45L697.36 469.54L699.69 469.88L700.97 470.07L701.27 468.75L701.24 467.40L701.22 466.56L701.57 464.72L702.24 463.92L703.57 462.30L704.97 461.19L706.21 459.79L705.52 459.50L704.81 459.21L703.84 458.82L702.42 458.45L701.35 458.09L700.58 457.83L699.01 457.24L698.37 456.67L698.22 455.76L698.12 454.69L698.02 453.70L697.28 453.13L695.58 451.81L693.52 449.47L692.89 448.66L691.35 446.96L689.96 445.43L688.98 444.36L687.55 443.53L685.62 441.63L684.24 441.10L684.48 439.80L684.69 438.67L684.47 436.87L683.95 435.99L682.80 434.34L681.68 432.99L681.14 432.09L680.41 431.19L679.75 430.10L679.07 429.04L678.19 426.75L677.64 425.32L677.03 423.25L676.28 420.70L675.32 417.43L674.02 413.18L673.68 411.93L672.94 409.18L672.51 407.68L671.80 405.15L671.83 402.27L671.84 400.95L672.33 399.01L672.98 397.35L673.27 396.60L674.96 393.61L676.33 390.69L677.49 388.21L678.06 387.13L678.67 385.98L678.74 385.18L678.81 384.24L678.89 383.18L678.64 382.46L678.04 380.71L677.48 379.21L677.18 378.43L677.14 377.40L677.05 375.10L677.02 374.34L676.98 373.55L676.94 372.60L676.60 369.09L676.54 368.21L676.41 367.13L675.71 365.39L674.94 363.64L674.13 361.62L675.00 361.24L676.69 360.97L678.70 360.47L680.32 359.85L681.36 359.26L682.52 359.09L683.79 359.01L685.52 358.83L686.69 358.54L688.04 357.60L688.90 356.73L690.11 355.43L692.24 353.79L693.15 353.08L695.23 351.13L696.02 350.59L696.75 349.09L697.88 347.85L699.58 346.62L701.13 345.36L701.93 344.71L702.95 344.24L703.93 343.63L704.69 342.98L706.18 341.44L707.17 340.36L707.41 339.43L707.57 338.20L707.63 337.42L707.68 336.63L707.62 334.95L707.02 334.06L706.88 333.20L707.24 331.86L707.72 330.92L707.85 329.85L707.84 328.73L708.05 327.36L708.42 325.77L708.64 324.48L708.77 323.01L708.88 321.76L708.64 320.82L708.32 319.71L707.95 318.38L707.62 317.29L707.31 315.86L707.18 314.89L706.85 313.06L706.26 311.81L705.90 310.67L705.72 309.41L705.55 308.23L704.97 306.57L704.76 305.76L704.46 304.73L704.13 303.03L703.48 301.73L703.22 300.05L703.13 298.52L702.97 295.66L702.87 293.31L700.12 293.48L692.66 293.42L686.70 298.14L681.02 303.75L678.86 305.25L673.84 306.25L669.09 308.98L666.89 312.03L664.68 312.48L659.66 312.31L657.72 312.59L647.24 314.03L643.59 313.64L639.95 313.14L638.40 313.26L634.06 315.37L632.07 316.34L631.01 316.73L631.08 317.77L631.83 320.20L633.30 323.00L634.27 325.01L635.35 325.75L636.48 326.54L637.67 327.90L638.82 330.47L639.49 331.82L640.22 333.23L640.39 334.83L640.22 336.31L639.67 337.77L638.29 339.27L637.01 341.49L636.45 343.25L633.90 346.45L630.82 350.06L629.44 351.19L628.06 351.61L626.38 352.09L624.90 352.34L627.34 360.98L629.18 367.37L630.83 372.76L631.02 374.28L630.17 374.74L625.74 376.19L622.41 377.19L619.32 378.56L617.28 379.98L615.62 380.71L613.47 380.93L610.69 381.24L607.17 381.93L605.19 382.61L603.37 383.65L601.54 385.15L600.20 385.91L596.96 386.74L595.49 387.80L593.14 390.65L591.00 392.61L595.05 395.37L599.61 397.32L600.90 398.80L601.47 401.50L602.10 403.67L602.26 405.98L601.55 407.87L601.03 409.11L599.08 413.22L598.44 415.16L598.47 416.06L598.51 417.14L598.77 418.19L598.75 419.16L598.71 421.92L598.63 423.98L598.72 425.06L598.62 426.01L598.66 427.02L599.07 427.81L600.31 429.33L600.95 430.11L601.49 430.69L602.83 431.11L604.41 431.44L606.34 431.99L608.95 432.57L610.83 432.65L614.18 432.80L615.03 432.80L617.17 432.81L619.39 432.82L621.68 433.83L625.04 435.58L625.89 436.03L626.61 436.83L628.33 438.74L629.10 439.59L630.04 440.30L630.57 441.02L632.44 442.56L634.02 443.35L636.66 447.28L637.26 447.76L637.62 449.91Z" data-ward="11" /><path id="ward-8" class="ward" d="M818.08 298.53L816.13 298.35L814.90 298.13L812.41 297.55L811.35 297.18L810.45 297.06L808.41 297.68L807.24 297.76L806.61 297.45L805.12 296.86L803.71 295.85L801.91 294.97L799.49 294.06L798.52 292.97L798.05 292.21L796.21 291.83L795.00 291.57L794.25 291.06L793.11 289.95L792.86 288.89L793.39 287.18L793.40 285.89L793.39 284.15L794.75 283.49L795.10 282.44L794.98 281.71L795.32 279.94L795.42 278.66L794.92 276.98L793.11 277.58L789.91 278.85L786.44 279.61L782.02 281.03L778.66 281.58L776.66 281.84L774.25 282.48L773.44 283.43L772.73 284.68L771.07 285.98L770.20 287.41L768.15 289.57L766.52 289.91L764.45 289.52L762.38 289.78L759.64 290.75L756.74 292.16L754.24 292.83L752.07 293.04L747.93 292.55L744.97 291.58L742.32 290.70L739.63 289.54L736.78 288.15L736.34 289.26L735.44 293.46L734.92 294.41L734.07 294.78L732.92 294.92L731.00 295.31L728.89 296.13L726.14 297.24L724.93 297.24L723.99 296.52L722.68 295.11L722.04 294.50L719.69 294.16L717.33 294.24L715.88 294.04L713.91 293.05L712.45 292.61L711.24 292.46L709.43 292.62L706.33 292.96L702.87 293.31L702.97 295.66L703.13 298.52L703.22 300.05L703.48 301.73L704.13 303.03L704.46 304.73L704.76 305.76L704.97 306.57L705.55 308.23L705.72 309.41L705.90 310.67L706.26 311.81L706.85 313.06L707.18 314.89L707.31 315.86L707.62 317.29L707.95 318.38L708.32 319.71L708.64 320.82L708.88 321.76L708.77 323.01L708.64 324.48L708.42 325.77L708.05 327.36L707.84 328.73L707.85 329.85L707.72 330.92L707.24 331.86L706.88 333.20L707.02 334.06L707.62 334.95L707.68 336.63L707.63 337.42L707.57 338.20L707.41 339.43L707.17 340.36L706.18 341.44L704.69 342.98L703.93 343.63L702.95 344.24L701.93 344.71L701.13 345.36L699.58 346.62L697.88 347.85L696.75 349.09L696.02 350.59L695.23 351.13L693.15 353.08L692.24 353.79L690.11 355.43L688.90 356.73L688.04 357.60L686.69 358.54L685.52 358.83L683.79 359.01L682.52 359.09L681.36 359.26L680.32 359.85L678.70 360.47L676.69 360.97L675.00 361.24L674.13 361.62L674.94 363.64L675.71 365.39L676.41 367.13L676.54 368.21L676.60 369.09L676.94 372.60L677.87 372.44L678.85 372.27L680.13 372.05L680.95 371.92L682.08 371.29L682.72 370.99L684.13 370.33L685.78 369.56L686.72 369.50L687.55 369.45L688.71 369.43L689.62 369.42L691.24 369.45L692.54 369.48L693.35 369.38L695.06 369.49L696.48 369.49L697.21 369.49L698.12 369.49L700.70 369.35L701.58 369.14L703.09 368.78L703.81 368.51L704.95 368.10L706.28 367.61L707.46 367.18L709.71 366.51L711.30 366.03L712.30 365.57L713.30 365.10L713.96 363.20L715.16 361.02L715.76 360.09L716.40 359.09L717.22 358.53L717.99 358.00L719.44 357.01L722.72 355.51L724.80 354.27L726.19 353.14L726.72 352.58L727.34 351.93L728.52 350.69L729.16 350.01L730.43 349.63L731.89 349.18L733.30 348.76L735.07 349.69L735.75 350.02L736.48 350.60L737.27 351.20L738.06 351.80L739.48 352.17L740.92 352.54L741.86 352.50L742.86 352.55L744.42 352.18L746.51 351.68L750.04 350.89L750.74 352.56L751.17 353.59L751.34 354.51L751.55 355.67L751.63 356.57L751.60 357.62L751.46 358.86L751.33 360.05L752.68 360.27L754.27 360.52L753.91 361.78L753.51 363.15L753.07 364.69L752.80 365.65L752.54 366.55L752.84 367.87L753.22 369.57L753.78 370.72L754.69 372.59L755.79 373.80L756.60 374.68L757.78 375.78L758.75 376.69L759.64 377.53L760.32 378.05L761.36 378.83L762.23 379.49L762.88 379.98L763.90 379.47L765.77 378.54L767.57 376.88L768.99 376.11L770.74 375.01L772.25 374.06L773.29 372.80L774.00 371.95L775.85 370.49L778.24 367.50L778.46 366.74L779.37 364.60L780.53 361.90L780.60 359.07L781.53 356.63L784.51 353.79L786.71 353.34L789.21 352.84L790.73 352.16L792.96 351.17L794.56 350.37L796.45 349.43L798.94 347.64L799.72 347.05L801.24 345.89L802.50 345.01L803.29 344.45L806.74 341.96L808.21 343.72L810.68 345.57L813.19 347.45L816.03 348.96L817.30 349.55L818.70 350.19L819.61 350.52L820.74 350.91L821.83 351.56L822.59 352.02L824.22 350.73L824.80 350.07L825.44 349.24L826.21 348.24L827.00 347.23L827.17 346.50L827.40 345.51L827.63 344.54L827.80 343.82L828.03 342.82L828.25 341.90L829.07 341.24L830.23 340.31L830.89 339.79L831.64 339.18L832.24 338.70L833.94 337.80L835.64 336.89L836.89 335.22L838.61 333.15L839.24 332.00L840.47 331.17L841.92 330.19L845.98 329.09L843.62 328.09L841.65 327.25L839.43 326.31L838.21 326.04L837.14 324.95L836.35 321.74L835.49 317.95L834.65 315.50L833.60 312.83L833.20 311.50L832.24 311.38L830.99 311.75L830.20 312.03L829.07 312.15L826.78 311.87L825.80 311.76L824.96 311.50L823.67 310.95L822.96 310.17L821.98 306.80L819.83 305.83L818.92 305.61L818.85 304.10L819.36 300.89L819.25 299.14L818.08 298.53Z" data-ward="8" /><path id="ward-5" class="ward" d="M894.10 9.17L891.62 8.28L890.72 8.36L889.83 8.83L888.65 9.46L887.78 9.93L887.12 12.01L887.81 13.10L888.85 14.77L889.27 15.44L892.42 18.49L893.25 19.21L894.52 20.28L897.15 22.46L898.53 24.07L900.43 26.29L900.58 28.15L899.52 28.42L898.43 28.70L897.56 28.60L894.58 29.31L890.32 30.22L886.98 31.16L884.16 32.81L882.97 33.53L881.71 34.53L880.93 35.10L879.18 36.51L876.41 36.71L874.47 36.85L872.46 36.54L871.14 36.33L870.63 35.75L868.43 33.97L867.43 33.42L866.12 31.27L864.70 30.25L863.61 27.38L861.56 25.28L860.51 24.19L859.15 23.49L857.49 22.90L856.28 22.47L854.88 22.28L851.67 22.75L848.68 23.45L847.93 23.62L846.46 24.51L844.47 25.35L843.60 26.33L842.23 27.57L842.15 28.41L840.89 31.00L840.17 33.39L838.72 36.16L837.99 37.55L836.60 39.17L835.54 41.01L834.67 42.30L833.00 45.42L832.50 48.61L831.84 49.24L831.33 50.54L830.95 51.51L830.19 51.89L828.97 52.49L826.71 53.05L824.68 53.43L822.71 53.73L820.37 53.93L817.63 53.97L816.56 53.98L813.49 53.37L811.45 52.96L810.60 52.41L807.25 50.28L803.54 48.00L798.14 47.65L794.53 47.37L790.91 47.10L789.54 47.23L787.58 48.00L786.24 48.65L785.24 49.71L784.20 51.06L783.33 52.58L782.88 53.36L782.49 54.11L781.86 55.77L781.34 57.15L781.23 57.91L781.36 60.38L782.96 61.91L783.60 62.65L784.69 63.44L786.69 65.11L789.51 67.47L791.55 69.84L792.21 70.60L793.75 72.71L794.08 73.48L794.50 74.11L794.64 75.28L795.02 78.55L793.91 82.28L793.36 84.49L793.02 85.89L792.57 86.92L792.25 87.64L791.25 89.88L791.02 90.62L790.06 93.85L788.89 98.26L787.75 102.52L786.49 106.10L785.96 107.57L785.30 108.19L783.01 105.89L780.03 103.59L777.19 103.47L776.22 103.62L775.11 104.31L771.10 108.11L770.10 108.80L768.73 110.39L767.44 111.89L767.06 112.47L766.66 113.02L766.33 113.69L765.87 114.60L765.40 115.71L765.17 116.40L764.63 118.93L764.40 119.60L764.05 120.50L762.93 122.92L762.52 123.58L762.40 123.77L761.85 124.58L761.42 125.31L761.11 125.83L760.83 126.41L760.59 127.07L760.36 127.84L760.15 128.90L760.10 129.90L760.11 130.75L760.25 131.77L760.40 132.55L760.46 133.60L760.31 133.99L760.02 134.70L759.74 135.25L759.53 135.66L759.29 135.93L759.07 136.09L758.30 136.30L757.57 136.27L756.72 136.08L755.78 135.77L754.86 135.26L754.10 134.67L753.45 134.22L752.56 133.38L752.05 132.81L751.63 132.10L750.93 130.94L750.39 129.79L749.34 127.42L748.06 125.09L746.60 122.14L745.61 120.13L744.68 118.50L744.37 117.96L743.76 117.08L743.11 116.26L741.92 114.88L741.14 114.01L740.30 113.12L739.49 112.68L739.00 112.55L738.22 112.56L737.41 112.67L736.80 112.84L736.45 113.08L736.34 113.16L735.97 113.51L735.74 114.02L735.71 114.90L735.91 115.69L736.18 116.66L736.49 117.79L736.82 119.18L736.94 120.25L736.92 123.08L736.91 124.22L736.36 126.53L735.98 127.50L734.64 130.53L734.30 131.21L733.25 132.07L732.55 132.65L731.77 132.98L730.27 132.98L730.07 134.56L730.00 135.79L730.05 137.01L729.84 138.77L729.27 140.83L728.90 142.38L727.98 144.07L727.22 144.91L726.35 145.86L725.47 147.66L725.17 149.14L724.87 150.44L725.01 151.55L725.15 152.80L725.06 154.79L724.99 158.26L724.92 159.38L724.67 161.16L724.67 162.66L724.67 164.35L724.78 165.37L725.47 167.13L725.52 168.80L725.38 170.26L724.97 172.83L724.74 174.58L724.94 176.14L725.68 178.22L726.30 179.63L726.30 180.44L725.91 181.44L725.47 182.32L724.90 183.36L724.18 185.53L724.05 186.95L724.34 189.19L724.48 190.37L727.44 196.63L728.99 197.95L734.76 200.99L737.54 201.75L740.76 199.83L743.56 198.84L744.43 198.50L745.39 198.02L747.27 195.24L748.71 194.92L749.97 195.06L752.83 195.14L756.59 194.85L758.63 194.65L760.22 194.14L760.89 193.76L761.07 192.14L761.12 189.74L761.37 188.50L761.65 187.77L762.15 187.25L762.82 186.53L763.32 185.91L763.91 184.76L764.60 183.70L766.06 182.13L767.26 181.01L768.43 180.32L772.16 179.48L773.59 179.07L775.29 178.54L776.07 178.40L777.56 178.35L778.83 178.38L780.20 178.51L781.95 178.34L783.07 177.97L783.74 177.68L785.06 177.19L792.01 177.00L796.49 177.35L796.86 178.92L798.65 179.53L803.39 178.30L806.68 177.67L807.53 177.65L808.11 176.49L808.65 175.50L809.48 174.13L810.08 172.72L810.37 171.74L810.57 170.77L810.80 169.98L811.18 168.57L811.54 167.72L812.14 166.12L812.44 165.32L812.82 164.28L813.74 160.90L814.06 159.55L814.34 158.38L814.67 157.10L814.95 156.11L815.47 154.61L815.91 153.32L816.35 151.88L816.79 150.30L817.42 149.01L817.92 148.12L818.56 147.17L819.18 146.49L820.02 145.70L822.11 143.47L823.10 142.64L823.85 142.20L825.02 141.35L825.63 140.64L826.40 139.05L826.76 138.30L828.07 135.59L828.94 133.60L829.43 132.61L829.90 131.59L831.12 129.67L832.27 128.17L833.00 127.39L833.41 125.98L832.86 124.40L831.78 123.22L830.99 122.47L830.60 121.02L830.75 119.63L831.50 118.79L833.41 117.90L834.07 117.58L834.69 117.12L835.95 116.17L836.61 115.53L837.39 113.57L837.87 112.40L838.17 111.57L839.12 109.51L839.88 108.10L841.18 107.10L842.36 106.61L843.99 105.81L844.84 105.12L846.53 103.11L848.37 98.66L850.35 94.08L852.39 89.70L853.29 88.71L855.66 86.90L857.73 85.49L860.44 84.33L862.08 83.78L862.86 83.27L863.39 82.80L863.55 81.97L863.27 80.03L863.09 79.15L863.41 77.97L864.03 76.76L866.08 73.20L868.06 68.87L869.23 67.41L870.31 66.25L871.88 64.08L873.35 61.30L874.75 59.01L875.03 58.03L875.12 57.06L874.67 55.55L874.79 54.60L875.06 53.87L875.60 53.01L877.26 50.09L878.14 47.85L878.27 46.50L878.48 45.05L878.99 43.56L880.11 42.01L882.60 39.33L884.53 38.33L889.13 37.01L890.63 36.87L892.33 37.13L895.02 38.56L895.89 38.84L896.97 38.98L898.79 38.59L901.28 37.94L907.00 36.13L907.69 35.49L908.38 34.38L909.47 31.37L910.59 27.75L911.10 25.17L911.40 22.48L911.58 21.29L910.27 21.22L908.09 21.00L906.47 20.03L906.12 18.07L905.77 15.74L905.41 13.40L905.10 11.22L903.38 9.70L900.87 9.39L898.36 9.09L895.18 9.55L894.10 9.17Z" data-ward="5" /><path id="ward-7" class="ward" d="M913.10 215.94L913.55 214.61L913.91 213.19L914.14 211.69L914.20 210.11L914.15 209.03L914.07 206.41L913.59 203.33L913.67 202.17L913.65 202.08L913.29 198.77L912.95 195.70L912.49 194.07L912.66 193.10L912.23 189.37L912.11 188.38L911.66 187.70L911.21 187.02L909.97 186.35L908.91 186.02L907.30 185.41L903.54 184.52L900.31 184.92L898.66 185.12L895.69 185.37L892.76 185.93L889.20 186.85L887.99 187.39L884.81 188.80L882.30 190.82L880.65 192.14L878.83 193.75L877.55 195.26L876.09 196.97L873.77 200.20L871.22 204.61L870.22 205.93L869.07 208.04L867.69 208.96L865.58 212.80L864.24 215.25L863.41 216.31L861.81 215.80L858.79 214.83L856.85 212.94L855.61 214.87L854.32 220.37L853.25 222.33L852.63 222.88L852.08 223.84L851.33 224.75L849.28 225.53L847.66 225.34L846.90 225.16L845.89 225.20L844.40 224.57L843.72 223.79L843.14 223.04L842.56 222.65L841.18 222.21L839.36 221.65L838.06 221.32L837.29 221.54L835.58 222.35L833.48 223.46L832.60 224.32L830.92 224.90L829.20 224.87L827.74 224.93L826.25 224.32L824.79 223.32L823.79 222.62L823.22 221.51L822.91 220.37L820.34 220.65L816.26 220.57L815.31 220.20L815.61 218.51L815.61 217.40L815.55 215.81L815.22 214.83L814.25 213.81L813.18 212.49L812.00 211.48L811.67 210.73L811.65 209.99L811.19 209.23L808.58 209.59L805.54 209.94L803.02 209.81L801.53 209.96L800.67 210.06L800.65 215.15L801.30 217.89L801.60 220.20L801.62 225.25L802.15 230.89L802.66 231.64L803.02 232.54L802.56 233.88L801.74 235.11L801.62 236.03L802.06 237.56L802.29 238.70L801.74 240.06L800.61 241.64L799.62 244.60L799.04 245.90L798.42 250.90L799.04 254.25L799.25 258.58L798.17 260.66L797.67 261.51L796.75 265.00L795.83 267.71L794.70 270.05L794.56 271.16L794.82 273.13L795.22 274.29L795.50 276.49L794.92 276.98L795.42 278.66L795.32 279.94L794.98 281.71L795.10 282.44L794.75 283.49L793.39 284.15L793.40 285.89L793.39 287.18L792.86 288.89L793.11 289.95L794.25 291.06L795.00 291.57L796.21 291.83L798.05 292.21L798.52 292.97L799.49 294.06L801.91 294.97L803.71 295.85L805.12 296.86L806.61 297.45L807.24 297.76L808.41 297.68L810.45 297.06L811.35 297.18L812.41 297.55L814.90 298.13L816.13 298.35L818.08 298.53L819.25 299.14L819.36 300.89L818.85 304.10L818.92 305.61L819.83 305.83L821.98 306.80L822.96 310.17L823.67 310.95L824.96 311.50L825.80 311.76L826.78 311.87L829.07 312.15L830.20 312.03L830.99 311.75L832.24 311.38L833.20 311.50L833.60 312.83L834.65 315.50L835.49 317.95L836.35 321.74L837.14 324.95L838.21 326.04L839.43 326.31L841.65 327.25L843.62 328.09L845.98 329.09L847.61 329.94L849.43 330.56L850.44 330.90L852.26 331.56L854.09 332.05L857.28 332.26L860.12 332.04L860.95 331.97L864.96 330.51L866.50 329.62L867.71 328.91L868.30 329.84L869.07 331.39L870.07 333.41L870.75 335.10L871.24 336.43L871.74 337.79L872.06 338.64L872.46 340.69L872.75 342.14L873.44 344.18L873.90 345.04L874.49 346.16L875.07 347.24L877.03 347.09L878.18 346.99L879.21 346.91L880.51 346.81L882.69 345.76L885.22 343.73L886.05 343.08L887.42 341.99L887.23 340.47L887.14 339.78L887.04 339.02L889.28 337.92L891.51 336.82L892.64 335.99L893.77 335.16L895.05 334.70L895.97 334.36L896.67 334.11L897.64 333.76L898.68 333.38L898.66 332.22L898.65 331.43L898.64 329.88L896.15 327.34L896.44 326.45L896.78 325.38L897.19 324.09L897.62 322.63L898.26 319.97L898.48 319.03L898.72 318.28L899.49 317.15L899.93 316.51L900.68 315.41L901.51 314.19L902.06 313.61L902.96 312.67L903.58 312.01L904.93 310.52L905.54 309.98L906.06 309.45L907.65 307.82L909.30 307.67L910.63 307.67L912.14 307.72L912.78 307.16L914.03 306.07L914.65 305.52L915.90 304.43L915.66 303.47L915.45 302.68L915.30 300.56L914.91 299.06L916.19 298.51L917.01 298.15L918.08 298.10L919.56 298.02L920.30 297.98L921.82 297.90L922.98 297.53L923.52 297.36L923.59 296.85L923.88 296.30L924.45 295.91L925.18 295.58L926.05 295.19L926.73 294.93L927.33 294.74L929.42 293.94L930.10 293.86L930.68 293.80L931.20 293.70L931.64 293.53L932.00 293.30L932.32 293.01L932.56 292.72L932.76 292.38L933.07 291.11L933.10 290.77L933.10 290.43L933.04 290.02L933.03 290.00L932.84 289.66L932.82 289.64L932.21 289.19L931.53 288.82L930.88 288.56L928.75 288.09L928.44 288.03L927.44 287.94L926.56 287.94L925.81 287.89L925.01 287.89L923.57 287.77L922.63 287.58L922.10 287.27L920.65 286.72L920.09 286.63L919.94 286.60L918.57 286.57L918.15 286.55L916.77 286.57L916.38 286.60L916.18 286.63L914.15 286.99L911.89 287.37L910.62 287.82L909.85 287.95L908.97 288.11L907.86 288.29L906.87 288.27L906.19 288.25L904.44 287.91L903.88 287.65L902.22 286.82L901.78 286.55L901.15 286.12L900.60 285.70L900.48 285.62L900.14 285.32L899.92 284.97L899.66 284.77L899.43 284.38L899.29 283.95L899.25 283.65L899.33 283.03L899.39 282.68L899.55 282.27L899.80 281.91L900.16 281.48L900.54 281.08L901.10 280.61L901.80 280.15L902.32 279.90L903.79 279.38L904.33 279.14L904.63 279.11L904.70 279.10L905.14 278.93L905.47 278.79L905.64 278.71L906.29 278.36L906.63 278.22L908.38 276.94L909.09 276.54L909.93 275.88L910.65 275.42L911.34 274.87L911.67 274.33L912.16 273.55L912.99 272.11L913.11 271.61L913.29 270.90L913.36 270.26L913.42 269.35L913.48 268.56L913.42 267.78L913.50 266.31L913.79 265.79L914.12 265.10L914.46 264.36L914.80 263.80L915.25 263.45L916.06 263.01L916.55 262.80L917.20 262.62L917.79 262.29L918.51 262.07L919.13 261.96L919.74 261.94L922.32 261.78L923.92 261.83L927.47 261.81L928.91 261.49L930.62 261.32L932.51 261.08L934.14 260.30L934.48 260.06L934.71 259.86L934.96 259.60L935.15 259.34L935.17 259.31L935.44 259.08L935.69 258.45L935.69 257.91L935.60 257.63L935.53 257.40L935.17 256.83L934.73 256.51L934.19 256.21L933.64 255.89L933.00 255.51L932.31 255.07L932.27 255.05L931.52 254.59L929.88 253.36L928.56 252.41L926.25 250.82L925.24 250.18L924.39 249.55L922.19 248.20L921.24 247.71L920.64 247.48L919.72 247.14L918.42 246.86L916.55 246.22L915.42 245.87L912.41 245.35L911.41 245.13L909.65 244.69L908.80 244.15L907.48 243.42L907.04 243.06L906.88 242.36L907.27 241.34L907.71 240.28L907.83 238.90L908.22 237.65L908.78 236.51L909.42 235.54L910.19 234.43L910.86 233.41L912.03 231.08L912.50 230.05L913.08 228.77L913.47 227.44L913.37 226.39L913.07 225.27L912.63 224.02L912.44 222.80L912.42 221.77L912.48 218.80L912.65 217.33L913.10 215.94Z" data-ward="7" /><path id="ward-6" class="ward" d="M993.32 20.56L992.59 19.02L991.69 17.10L991.13 16.20L990.27 14.80L989.00 12.73L987.42 11.83L986.01 11.02L984.99 10.45L983.98 9.88L982.27 8.92L981.11 8.06L978.31 6.16L977.11 5.35L974.63 3.44L972.63 2.18L970.98 1.36L967.59 0.53L965.08 0.27L962.56 0.00L959.60 4.16L957.15 7.27L956.02 8.89L953.27 11.87L952.17 13.03L949.08 15.95L947.70 17.22L946.70 17.45L944.37 18.43L939.36 19.60L938.27 19.81L934.27 20.29L929.66 20.49L926.05 20.65L921.03 21.04L917.49 21.38L915.27 21.69L912.62 21.40L911.58 21.29L911.40 22.48L911.10 25.17L910.59 27.75L909.47 31.37L908.38 34.38L907.69 35.49L907.00 36.13L901.28 37.94L898.79 38.59L896.97 38.98L895.89 38.84L895.02 38.56L892.33 37.13L890.63 36.87L889.13 37.01L884.53 38.33L882.60 39.33L880.11 42.01L878.99 43.56L878.48 45.05L878.27 46.50L878.14 47.85L877.26 50.09L875.60 53.01L875.06 53.87L874.79 54.60L874.67 55.55L875.12 57.06L875.03 58.03L874.75 59.01L873.35 61.30L871.88 64.08L870.31 66.25L869.23 67.41L868.06 68.87L866.08 73.20L864.03 76.76L863.41 77.97L863.09 79.15L863.27 80.03L863.55 81.97L863.39 82.80L862.86 83.27L862.08 83.78L860.44 84.33L857.73 85.49L855.66 86.90L853.29 88.71L852.39 89.70L850.35 94.08L848.37 98.66L846.53 103.11L844.84 105.12L843.99 105.81L842.36 106.61L841.18 107.10L839.88 108.10L839.12 109.51L838.17 111.57L837.87 112.40L837.39 113.57L836.61 115.53L835.95 116.17L834.69 117.12L834.07 117.58L833.41 117.90L831.50 118.79L830.75 119.63L830.60 121.02L830.99 122.47L831.78 123.22L832.86 124.40L833.41 125.98L833.00 127.39L832.27 128.17L831.12 129.67L829.90 131.59L829.43 132.61L828.94 133.60L828.07 135.59L826.76 138.30L826.40 139.05L825.63 140.64L825.02 141.35L823.85 142.20L823.10 142.64L822.11 143.47L820.02 145.70L819.18 146.49L818.56 147.17L817.92 148.12L817.42 149.01L816.79 150.30L816.35 151.88L815.91 153.32L815.47 154.61L814.95 156.11L814.67 157.10L814.34 158.38L814.06 159.55L813.74 160.90L812.82 164.28L812.44 165.32L812.14 166.12L811.54 167.72L811.18 168.57L810.80 169.98L810.57 170.77L810.37 171.74L810.08 172.72L809.48 174.13L808.65 175.50L808.11 176.49L807.53 177.65L807.15 180.22L806.64 182.43L806.37 183.12L805.98 185.06L805.90 187.10L805.84 188.24L805.60 190.05L805.29 190.73L804.82 191.45L804.27 192.17L802.89 193.53L801.35 195.29L800.77 197.72L800.59 201.13L800.56 205.52L800.68 209.11L800.67 210.06L801.53 209.96L803.02 209.81L805.54 209.94L808.58 209.59L811.19 209.23L811.65 209.99L811.67 210.73L812.00 211.48L813.18 212.49L814.25 213.81L815.22 214.83L815.55 215.81L815.61 217.40L815.61 218.51L815.31 220.20L816.26 220.57L820.34 220.65L822.91 220.37L823.22 221.51L823.79 222.62L824.79 223.32L826.25 224.32L827.74 224.93L829.20 224.87L830.92 224.90L832.60 224.32L833.48 223.46L835.58 222.35L837.29 221.54L838.06 221.32L839.36 221.65L841.18 222.21L842.56 222.65L843.14 223.04L843.72 223.79L844.40 224.57L845.89 225.20L846.90 225.16L847.66 225.34L849.28 225.53L851.33 224.75L852.08 223.84L852.63 222.88L853.25 222.33L854.32 220.37L855.61 214.87L856.85 212.94L855.48 211.00L854.49 210.49L852.75 208.84L851.74 207.88L850.91 206.73L850.88 205.96L851.73 204.75L854.57 202.15L855.26 201.57L857.51 199.85L859.18 198.57L860.14 198.02L862.04 196.43L864.63 194.88L866.27 193.90L867.61 192.93L870.95 191.74L873.62 190.50L874.23 186.09L875.11 182.30L875.60 180.20L875.66 176.82L875.20 174.42L875.43 172.65L874.93 169.72L874.37 167.71L873.42 165.33L870.39 162.90L868.29 161.35L866.80 160.26L867.20 156.73L867.45 154.56L867.69 152.42L868.84 150.16L870.93 149.11L873.06 148.64L876.17 147.95L877.69 147.76L881.67 147.26L883.73 146.95L885.98 146.59L887.97 146.23L890.69 145.57L891.26 143.64L891.82 142.62L891.28 140.54L889.20 140.15L887.48 139.80L884.69 139.24L881.77 138.50L879.92 138.02L879.30 137.51L876.32 136.33L875.45 134.92L873.71 132.11L872.34 128.91L871.56 127.09L871.16 125.55L870.84 124.33L870.55 122.94L870.57 122.04L870.73 120.44L871.25 118.00L872.92 117.41L874.92 116.71L876.23 117.39L877.75 118.17L879.55 119.11L882.72 122.10L884.47 123.77L886.96 126.15L889.74 127.93L891.85 129.29L893.05 129.95L894.28 130.62L897.82 132.26L899.03 132.82L901.23 133.80L903.28 134.71L904.99 135.46L906.50 136.33L908.08 137.73L912.96 140.46L914.37 140.98L915.93 141.33L917.39 141.70L918.86 142.11L919.86 142.54L921.79 143.26L923.40 144.03L925.75 144.78L927.25 145.12L928.17 145.28L928.19 145.28L928.26 145.31L930.21 145.59L931.40 145.81L933.39 145.94L934.92 145.64L935.47 145.34L935.86 145.12L936.63 144.93L937.16 144.64L937.73 144.28L938.04 143.83L938.05 143.18L938.34 142.83L938.41 142.34L938.32 141.48L938.11 140.97L937.89 140.68L937.50 140.37L936.96 140.04L935.96 139.46L934.78 139.02L933.85 138.26L932.69 137.39L931.41 136.40L929.70 135.32L928.54 134.58L927.11 133.65L926.04 132.75L925.07 132.10L923.56 130.70L923.38 130.59L922.54 130.05L921.25 129.25L920.04 128.55L918.86 127.86L917.45 127.05L915.85 126.06L915.57 125.37L915.42 124.52L915.46 123.45L915.66 122.68L916.02 120.70L916.48 119.08L917.08 118.10L917.76 117.29L918.29 116.74L918.89 116.12L920.87 113.79L921.67 112.90L922.56 112.05L923.23 111.34L924.80 110.27L925.93 109.60L927.19 108.99L928.32 108.40L929.94 107.43L930.95 106.79L931.75 106.21L932.52 105.47L932.72 104.96L933.01 104.21L933.23 102.95L933.39 101.26L933.69 98.70L932.98 95.72L932.35 92.92L932.01 91.75L931.65 90.79L931.05 89.38L930.29 87.59L929.80 86.39L927.92 82.23L926.83 80.72L926.01 79.76L925.28 78.78L924.49 77.45L924.03 76.71L923.34 74.52L922.88 73.35L922.34 71.38L922.31 70.09L922.80 69.57L923.87 69.57L924.50 69.78L924.54 69.69L925.49 69.95L928.06 70.90L929.56 71.71L931.17 72.85L932.15 73.77L932.96 74.50L933.83 75.15L934.93 75.95L935.03 76.02L936.07 76.74L937.11 77.51L937.92 78.13L940.39 81.17L941.52 82.49L942.15 82.90L943.33 83.37L944.27 83.45L945.08 83.25L945.81 82.77L946.05 82.25L946.26 81.54L946.34 80.58L946.27 79.93L946.23 79.57L946.01 78.57L945.85 77.84L945.80 76.93L945.85 76.25L945.89 75.27L945.91 74.22L946.35 72.88L946.64 71.89L947.25 70.50L947.76 69.40L948.02 68.61L948.89 66.54L949.16 65.57L949.62 64.46L950.04 63.36L950.60 62.05L951.05 61.03L951.59 59.62L953.40 56.17L954.08 54.96L954.59 54.11L955.09 53.40L956.04 52.34L956.91 51.76L957.48 51.35L958.52 51.11L959.47 50.90L960.24 50.79L961.01 50.78L961.96 50.79L962.73 51.03L964.22 51.15L966.29 51.70L966.32 51.71L967.48 52.18L968.60 52.70L969.47 53.12L970.30 53.66L970.85 54.14L971.46 54.56L972.21 54.92L973.11 55.11L973.77 55.33L974.33 55.67L975.15 56.14L975.80 56.50L976.34 56.71L977.48 57.21L978.21 57.65L978.76 58.29L979.24 58.89L979.73 59.59L979.94 60.10L980.28 60.94L980.60 61.77L980.87 62.52L981.13 63.17L981.56 63.62L981.96 63.99L982.10 64.04L982.42 64.15L982.98 64.09L983.45 63.84L983.99 63.35L984.50 62.70L984.88 62.11L985.25 61.34L985.49 60.27L985.57 59.32L985.59 58.68L985.60 58.33L985.29 57.66L984.78 56.58L984.55 55.97L984.31 54.95L984.20 54.05L984.21 53.68L984.22 52.95L984.50 51.95L985.30 49.53L985.78 48.43L986.38 47.55L986.83 46.78L987.26 45.88L988.49 42.90L989.09 41.82L989.58 40.86L990.08 40.31L990.77 39.51L991.25 38.98L993.39 36.87L994.58 35.78L995.51 34.98L996.12 34.39L996.83 33.68L997.48 33.01L997.96 32.59L999.13 30.55L999.29 30.10L999.32 30.04L999.51 29.64L999.72 29.10L1000.00 28.78L998.68 28.73L996.59 26.22L994.15 22.31L993.32 20.56Z" data-ward="6" /></svg>