<svg viewBox="0 0 1000.00 1030.88" xmlns="http://www.w3.org/2000/svg"><style>.ward { fill: #e2e8f0; stroke: #fff; stroke-width: 0.5px; } .ward:hover { fill: #cbd5e1; }</style><path id="ward-13" class="ward" d="M205.94 400.35L204.13 399.56L201.74 398.43L197.57 396.50L194.79 398.77L192.08 400.40L187.54 400.65L185.02 400.34L181.62 399.92L179.89 399.67L178.21 399.46L173.41 400.05L170.17 401.22L163.55 402.95L161.04 403.86L158.53 404.77L152.61 406.88L150.26 407.59L147.90 408.30L145.57 409.26L143.23 410.21L141.02 410.77L139.34 411.04L137.25 410.94L135.41 410.90L128.66 409.48L126.88 409.28L123.27 408.86L118.67 408.02L115.47 406.88L111.92 409.87L108.93 412.28L104.96 415.46L101.50 417.67L98.90 419.18L94.73 421.60L91.14 423.56L92.58 426.10L94.02 428.63L95.90 432.18L96.57 436.05L100.83 441.05L100.52 444.38L102.61 446.54L103.75 448.37L105.30 450.09L107.02 451.93L108.39 452.99L110.26 453.67L111.94 454.46L114.22 455.52L116.76 457.01L120.59 459.18L124.20 462.68L126.12 464.54L126.07 467.31L125.21 469.08L125.87 477.32L126.36 480.98L130.14 483.01L126.96 487.48L121.60 495.00L122.53 496.88L123.98 499.82L125.72 503.35L133.82 505.18L140.06 506.58L146.73 509.07L153.40 511.57L159.14 518.14L160.91 520.18L158.69 525.76L153.20 528.78L151.56 529.68L145.08 529.28L135.62 528.70L129.01 528.24L125.99 528.03L117.60 527.45L115.77 527.09L112.32 526.48L107.34 525.25L103.38 526.72L100.29 527.86L97.54 531.97L97.54 539.58L101.73 549.55L103.32 552.95L109.66 553.40L111.00 557.29L112.33 561.17L110.73 562.24L107.55 564.36L105.24 566.35L102.93 568.35L100.43 569.74L98.42 570.03L96.41 570.32L92.98 571.55L91.48 572.31L88.46 573.84L86.60 574.78L83.85 575.98L81.14 577.16L79.56 577.86L77.23 581.09L76.00 582.79L67.25 587.40L65.07 588.55L60.60 590.91L60.44 594.77L60.20 600.62L60.22 606.21L60.24 614.13L63.34 632.91L67.02 637.03L74.40 640.40L75.73 644.63L75.75 647.52L81.22 647.58L86.74 648.87L87.22 651.15L86.52 652.89L85.56 655.11L84.35 658.09L86.12 658.90L87.68 658.40L90.28 657.56L92.04 657.77L93.09 659.70L92.30 662.43L92.80 665.77L95.78 663.92L97.97 663.91L99.02 666.88L98.65 668.89L97.63 670.59L98.83 672.31L100.05 670.89L103.63 672.19L103.62 673.86L102.52 676.67L105.73 678.27L106.20 679.85L106.67 681.43L106.00 684.48L109.83 687.07L110.31 688.81L108.32 690.12L110.38 694.95L111.49 697.01L112.29 698.65L112.83 703.25L111.70 705.53L109.86 708.49L113.54 709.69L113.28 712.27L113.28 714.31L112.70 717.04L114.72 718.83L117.07 717.69L118.83 716.57L122.69 714.10L128.38 710.82L130.72 709.47L137.28 714.64L142.08 716.65L150.26 720.06L151.86 720.57L157.05 722.20L163.90 724.77L167.15 725.45L170.54 722.97L172.93 722.45L176.04 723.85L177.85 724.67L182.40 726.58L187.35 730.60L193.77 733.59L197.88 732.75L205.72 733.11L210.62 731.84L216.37 729.62L218.14 728.89L220.73 727.88L227.38 725.06L229.43 724.20L232.95 722.61L237.84 720.20L245.15 716.46L232.25 708.90L228.37 705.22L223.28 700.12L221.23 698.01L219.83 696.56L217.66 694.62L213.08 690.52L210.39 688.88L208.42 687.55L206.37 686.12L201.30 682.59L199.32 678.94L195.56 674.91L191.95 671.43L188.09 670.43L183.64 668.66L178.32 664.90L176.25 660.54L176.17 654.25L176.58 650.48L175.45 646.29L174.08 643.59L172.04 641.34L170.11 640.34L168.17 639.34L166.22 638.42L163.37 637.12L161.03 635.83L157.74 633.50L154.94 629.38L154.21 627.54L153.54 625.86L153.46 621.67L154.07 618.20L154.86 615.07L154.93 610.08L160.64 607.12L167.79 603.38L178.28 598.87L183.62 597.81L186.08 597.33L188.25 596.29L189.58 592.31L190.86 585.30L192.46 581.50L194.87 576.83L198.13 574.01L201.50 570.98L203.12 567.46L205.14 562.13L208.37 557.81L206.24 553.74L204.89 552.15L200.67 545.04L197.90 535.53L196.32 530.33L197.33 526.68L197.70 524.62L195.83 521.58L191.08 517.18L188.61 512.32L191.11 506.53L192.70 501.27L193.53 497.71L190.90 492.27L190.73 486.59L190.54 483.71L190.37 481.27L186.17 473.31L185.79 468.55L185.21 465.19L180.93 458.52L178.44 455.31L175.80 452.66L173.69 450.27L171.59 447.88L168.56 443.17L166.35 439.72L167.14 437.10L174.32 432.68L182.00 426.98L183.34 426.01L193.16 419.47L195.92 417.07L197.74 415.49L199.55 413.92L201.06 412.08L206.08 405.95L206.76 403.78L207.48 401.05L205.94 400.35Z" data-ward="13" /><path id="ward-11" class="ward" d="M300.10 752.11L303.34 752.60L305.26 753.30L307.28 754.03L309.26 755.14L310.87 756.13L312.55 757.16L314.43 758.43L316.49 759.82L318.22 760.99L320.95 762.93L322.37 763.98L324.87 765.84L326.87 767.33L329.55 768.95L332.60 770.80L336.62 773.23L335.63 775.99L341.02 779.13L342.19 774.96L345.28 775.55L347.56 775.98L349.30 776.37L351.29 776.77L354.41 777.47L357.06 777.98L359.34 778.47L363.64 778.62L370.71 779.09L374.17 779.43L374.53 777.71L375.22 774.86L376.97 768.95L377.62 766.49L378.19 764.25L380.01 762.65L382.68 756.41L384.25 752.55L386.37 748.99L392.58 743.22L395.55 744.17L398.03 745.29L403.56 747.73L406.26 750.39L408.98 751.05L412.21 746.02L413.18 744.51L415.76 740.52L420.16 738.07L421.96 737.06L426.43 732.10L427.61 730.79L433.91 721.42L440.39 711.85L444.87 706.27L449.30 704.52L452.69 702.84L454.64 702.26L457.18 701.23L456.11 695.85L458.27 694.93L460.73 693.87L464.81 692.99L470.95 691.68L475.52 691.68L481.95 689.46L486.00 687.74L491.85 688.42L495.18 688.95L494.33 686.70L493.07 683.37L490.65 676.61L489.44 673.53L486.99 667.25L481.50 665.54L481.46 668.26L481.41 673.06L481.40 677.15L481.41 679.93L479.77 683.05L475.06 684.72L473.20 684.57L470.39 684.67L466.73 685.77L462.56 686.77L460.08 687.04L455.36 687.54L453.73 686.24L452.23 684.77L451.00 683.62L447.75 680.66L444.07 677.32L439.04 672.12L432.92 663.74L431.60 660.49L429.86 656.20L429.92 653.89L429.98 651.48L430.08 647.68L431.13 638.15L431.48 634.66L431.77 631.75L431.33 629.90L430.75 627.51L428.59 623.33L425.57 620.92L422.06 621.27L419.69 621.95L414.52 623.43L411.26 624.43L403.97 626.99L397.51 629.24L396.51 625.56L395.89 623.43L395.54 620.11L395.29 617.69L395.09 615.76L394.31 610.50L390.63 609.75L386.34 611.31L378.65 613.43L368.95 616.01L364.66 616.41L361.49 616.00L358.53 610.17L354.91 603.38L355.05 600.79L353.46 599.93L351.20 599.73L346.96 598.19L344.00 596.65L339.50 594.55L336.78 593.55L334.09 595.06L333.08 598.59L327.20 597.47L325.34 599.34L323.47 600.74L318.52 600.80L316.12 600.59L313.72 600.37L310.84 600.10L311.30 605.84L309.56 608.16L302.92 610.06L295.58 612.19L289.49 617.02L287.13 619.33L277.39 630.64L275.84 634.53L278.80 651.62L280.20 655.15L281.92 657.17L284.91 660.87L286.90 662.95L288.10 665.79L289.69 668.21L290.96 669.62L293.36 677.77L297.43 690.86L297.21 693.44L299.18 696.69L299.32 702.70L300.23 706.51L299.59 708.65L298.10 709.94L294.86 712.14L296.66 716.30L299.83 721.52L300.62 723.27L300.81 725.64L301.01 728.14L301.53 730.11L301.91 735.86L300.95 737.27L300.94 739.05L300.87 743.77L300.61 748.02L300.10 752.11Z" data-ward="11" /><path id="ward-8" class="ward" d="M548.97 887.34L543.36 882.70L535.39 876.13L532.24 880.41L521.58 894.88L511.84 903.76L509.90 906.72L507.09 911.00L504.28 915.29L502.43 918.11L500.28 918.34L498.55 916.13L496.07 915.06L492.67 923.09L491.01 923.32L486.08 920.12L480.91 916.76L479.05 915.55L470.77 913.35L460.92 921.83L451.58 918.41L445.16 916.06L441.35 919.75L437.27 922.16L427.06 928.18L429.09 930.97L430.19 932.48L432.63 935.83L434.75 937.43L439.01 940.64L440.13 941.93L442.52 944.67L443.73 946.66L444.80 948.41L446.33 950.62L447.29 951.99L448.73 954.07L450.67 956.86L452.13 959.63L453.29 961.84L454.61 964.34L455.63 966.28L458.29 968.94L461.09 971.72L462.98 973.28L464.14 974.48L467.55 977.16L471.48 980.23L472.81 981.28L479.90 975.85L482.33 973.70L485.37 970.88L487.80 968.64L491.70 964.81L496.65 961.60L500.07 959.96L505.55 957.30L508.89 957.17L514.44 956.87L516.71 956.75L519.28 956.51L521.76 954.72L525.32 951.58L528.97 949.14L531.33 947.62L532.55 946.42L532.96 943.58L534.93 942.56L536.92 941.05L542.57 938.77L546.25 938.11L549.10 939.20L551.70 940.37L552.11 942.81L554.69 943.05L556.22 945.05L557.62 946.09L557.32 948.50L555.48 952.54L553.28 957.40L552.76 959.89L554.23 961.48L555.71 963.07L557.66 963.59L561.06 966.80L564.56 969.81L565.23 973.51L565.06 978.60L564.13 981.47L562.45 984.16L561.29 986.22L559.19 990.09L558.02 992.40L555.31 997.73L554.08 1000.17L552.23 1002.40L550.72 1004.12L547.87 1007.01L545.49 1009.33L542.95 1011.49L545.27 1013.97L549.39 1016.20L552.22 1016.65L554.79 1017.70L556.45 1018.38L558.61 1019.70L560.35 1020.77L565.49 1024.29L568.56 1025.89L570.71 1027.00L572.50 1027.38L575.77 1028.08L580.87 1028.62L582.99 1028.48L585.11 1028.33L587.57 1029.03L594.68 1030.88L597.66 1030.86L600.63 1030.84L602.75 1029.78L604.38 1029.13L606.05 1027.98L609.45 1025.63L613.11 1024.52L614.56 1023.21L617.56 1020.51L621.77 1018.74L624.30 1018.21L626.49 1016.86L628.18 1015.54L630.23 1016.04L633.47 1019.32L635.03 1020.44L636.34 1018.88L640.35 1014.58L642.86 1010.47L645.41 1006.83L646.00 1005.08L646.48 1001.91L646.84 999.55L647.69 996.38L647.73 993.41L649.40 987.21L643.06 981.71L640.94 975.56L639.82 973.83L644.01 970.10L642.26 965.78L645.02 962.61L648.28 961.30L648.41 957.51L650.91 956.20L657.22 951.36L668.55 952.50L670.57 953.32L674.60 952.07L681.47 949.93L686.12 948.49L688.31 950.19L690.16 947.41L707.12 946.40L708.88 948.97L722.19 947.62L725.11 945.92L734.10 947.40L734.12 944.77L734.51 940.54L735.45 934.53L735.83 931.63L736.28 928.19L735.98 925.13L735.43 921.56L734.27 918.48L732.50 916.27L731.39 917.69L727.92 920.49L725.92 921.64L718.86 923.96L714.19 925.81L707.84 928.21L703.34 930.66L700.19 932.34L696.98 934.07L692.41 936.41L682.51 939.73L672.79 939.74L666.98 939.53L662.65 939.36L660.25 939.20L654.70 938.94L652.15 938.23L648.30 937.13L640.82 933.90L635.98 929.91L634.55 928.68L633.11 927.46L631.87 926.34L628.72 923.20L625.57 920.06L618.93 914.02L616.70 910.83L615.00 908.34L613.61 906.30L600.77 900.17L597.60 898.65L589.03 894.59L585.51 892.92L581.99 891.25L578.64 890.78L574.52 890.20L559.94 890.91L548.97 887.34Z" data-ward="8" /><path id="ward-7" class="ward" d="M736.28 928.19L735.83 931.63L735.45 934.53L734.51 940.54L734.12 944.77L734.10 947.40L736.13 947.54L737.79 947.24L756.79 943.84L760.90 943.10L763.91 940.70L765.87 940.17L777.61 934.48L779.73 933.68L796.00 928.52L799.56 927.24L803.16 925.70L812.54 921.15L810.13 914.17L813.29 900.08L819.84 899.55L826.40 896.01L829.11 894.55L831.21 893.42L841.61 883.14L849.49 875.64L853.84 871.46L856.81 871.15L860.66 870.75L862.35 872.07L863.56 869.08L865.81 863.35L864.79 861.66L863.34 859.25L861.75 856.65L860.17 854.06L861.66 851.79L863.37 849.22L863.55 846.55L861.58 844.70L860.14 843.04L856.80 841.12L854.83 839.98L850.49 836.62L847.34 834.03L846.12 831.93L847.51 829.65L848.91 827.38L850.75 826.74L853.13 825.93L854.96 825.30L856.73 825.53L863.99 823.65L866.49 821.68L868.56 820.84L870.63 820.00L875.10 821.90L878.17 824.36L880.57 825.02L886.16 826.54L888.79 827.43L891.34 828.30L893.43 828.77L895.56 826.90L895.92 823.72L896.12 821.99L894.80 818.72L894.00 816.74L892.27 813.68L889.27 808.36L888.00 806.11L884.96 800.83L875.75 797.29L872.40 793.99L869.27 789.97L866.94 789.12L857.64 792.14L855.91 787.85L853.68 787.70L852.04 787.93L848.92 789.81L845.93 789.92L843.29 790.79L841.61 791.33L838.46 792.33L833.89 792.68L829.36 793.01L823.63 791.25L821.29 790.52L811.97 783.24L810.38 781.87L806.34 783.13L802.43 784.34L799.54 787.42L797.75 789.32L795.32 791.04L792.89 792.76L791.05 793.88L788.81 795.20L784.30 797.82L784.35 799.77L785.03 804.43L785.24 806.59L783.83 816.73L783.25 820.21L775.58 822.45L765.93 827.68L760.39 826.39L755.23 824.80L752.03 823.82L748.66 822.78L746.88 823.50L744.14 824.51L740.14 825.99L733.30 825.51L730.02 824.41L727.98 823.60L723.09 817.70L721.98 816.31L717.04 809.03L715.88 807.35L707.28 795.83L705.95 794.38L701.72 790.15L697.35 785.80L694.12 788.68L692.93 791.20L690.86 795.18L688.55 798.02L686.24 800.85L682.89 803.38L681.25 804.52L671.47 808.66L668.11 810.25L666.55 811.01L662.85 812.71L660.17 813.37L655.54 814.41L642.29 814.75L632.63 815.61L627.75 817.47L624.18 821.20L622.84 825.16L621.58 832.48L620.67 840.15L619.31 844.24L618.38 847.30L617.84 849.07L617.31 850.84L617.24 856.45L619.36 861.97L620.68 865.64L621.17 873.15L620.70 878.92L620.46 881.64L620.22 884.36L618.21 896.82L615.13 903.23L613.61 906.30L615.00 908.34L616.70 910.83L618.93 914.02L625.57 920.06L628.72 923.20L631.87 926.34L633.11 927.46L634.55 928.68L635.98 929.91L640.82 933.90L648.30 937.13L652.15 938.23L654.70 938.94L660.25 939.20L662.65 939.36L666.98 939.53L672.79 939.74L682.51 939.73L692.41 936.41L696.98 934.07L700.19 932.34L703.34 930.66L707.84 928.21L714.19 925.81L718.86 923.96L725.92 921.64L727.92 920.49L731.39 917.69L732.50 916.27L734.27 918.48L735.43 921.56L735.98 925.13L736.28 928.19Z" data-ward="7" /><path id="ward-10" class="ward" d="M449.30 704.52L444.87 706.27L440.39 711.85L433.91 721.42L427.61 730.79L426.43 732.10L421.96 737.06L420.16 738.07L415.76 740.52L413.18 744.51L412.21 746.02L408.98 751.05L406.26 750.39L403.56 747.73L398.03 745.29L395.55 744.17L392.58 743.22L386.37 748.99L384.25 752.55L382.68 756.41L380.01 762.65L378.19 764.25L377.62 766.49L376.97 768.95L375.22 774.86L374.53 777.71L374.17 779.43L376.52 779.74L378.29 779.99L380.21 780.24L383.83 780.75L387.64 781.24L391.46 781.79L395.31 782.13L397.97 782.36L402.52 782.75L408.85 785.18L410.87 785.91L414.44 787.01L421.64 788.97L428.93 788.50L437.28 784.59L438.81 783.70L441.65 782.00L444.73 781.13L449.01 781.40L450.91 781.23L452.82 781.06L456.21 780.75L462.90 778.69L467.40 777.08L474.14 777.31L477.61 779.01L480.35 781.80L479.83 785.84L478.10 788.14L475.97 791.38L474.45 793.70L472.55 796.67L469.25 800.50L468.43 805.75L469.13 808.71L469.74 812.37L470.13 814.74L469.96 816.66L468.33 821.16L466.12 825.15L466.27 826.94L466.56 829.77L469.41 833.39L482.30 841.27L486.31 843.46L493.61 845.51L502.13 849.47L509.04 853.05L512.54 854.89L517.15 857.51L521.89 862.52L525.98 866.39L531.18 872.39L532.58 873.69L535.39 876.13L543.36 882.70L548.97 887.34L559.94 890.91L574.52 890.20L578.64 890.78L581.99 891.25L585.51 892.92L589.03 894.59L597.60 898.65L600.77 900.17L613.61 906.30L615.13 903.23L618.21 896.82L620.22 884.36L620.46 881.64L620.70 878.92L621.17 873.15L620.68 865.64L619.36 861.97L617.24 856.45L617.31 850.84L617.84 849.07L618.38 847.30L619.31 844.24L620.67 840.15L621.58 832.48L622.84 825.16L624.18 821.20L627.75 817.47L632.63 815.61L642.29 814.75L655.54 814.41L660.17 813.37L662.85 812.71L666.55 811.01L668.11 810.25L671.47 808.66L681.25 804.52L682.89 803.38L686.24 800.85L688.55 798.02L690.86 795.18L692.93 791.20L694.12 788.68L697.35 785.80L690.12 782.71L686.08 781.35L684.07 780.34L679.40 777.69L674.54 774.93L676.04 773.22L667.65 767.91L661.96 764.58L654.50 760.43L651.40 759.50L635.62 752.93L634.69 750.13L632.74 745.24L627.36 747.96L624.72 747.35L617.07 745.77L600.30 742.33L596.91 741.65L588.70 738.37L577.21 733.77L564.07 728.52L547.61 721.94L531.48 715.52L529.31 715.10L512.97 712.01L509.18 708.29L498.79 698.07L496.87 693.23L495.18 688.95L491.85 688.42L486.00 687.74L481.95 689.46L475.52 691.68L470.95 691.68L464.81 692.99L460.73 693.87L458.27 694.93L456.11 695.85L457.18 701.23L454.64 702.26L452.69 702.84L449.30 704.52Z" data-ward="10" /><path id="ward-6" class="ward" d="M668.06 532.07L666.17 531.57L660.55 530.98L654.93 530.39L649.38 529.82L647.00 528.85L642.79 524.34L639.95 520.52L637.89 517.82L635.83 515.11L634.30 513.14L632.23 511.99L628.81 510.70L625.40 509.40L623.85 508.81L617.34 505.43L611.10 501.81L607.80 500.29L606.01 499.63L603.84 498.87L599.43 497.81L594.49 496.97L589.55 496.13L587.59 495.90L584.65 495.84L575.23 495.64L572.62 496.90L570.02 498.17L566.97 499.98L561.52 502.30L555.88 503.56L549.19 505.06L547.05 505.55L543.41 507.35L538.51 509.78L536.43 511.59L534.95 512.87L534.26 514.73L532.72 518.84L532.12 520.45L531.47 525.82L530.82 531.20L530.11 537.43L529.05 541.20L528.07 543.31L525.97 548.25L523.86 553.19L523.69 556.21L523.52 559.23L525.74 567.72L527.71 572.41L529.68 577.09L528.17 583.31L526.63 586.10L525.50 588.35L525.08 595.30L527.97 602.72L530.96 610.50L534.73 620.87L536.34 625.26L536.64 627.00L538.04 633.90L539.76 642.33L541.91 650.75L554.29 657.56L562.81 659.24L566.45 659.90L571.41 660.83L581.77 662.78L587.68 664.95L595.49 669.28L596.98 669.99L607.81 675.20L627.55 684.71L627.71 699.48L626.92 707.49L628.81 714.04L637.68 718.26L640.18 719.44L658.87 718.07L670.52 717.11L673.06 717.72L675.04 720.35L675.68 721.94L676.61 723.98L683.90 731.08L685.67 732.65L689.73 738.44L690.46 742.09L691.67 746.72L692.90 751.42L694.22 755.47L695.54 759.53L697.45 762.21L699.53 765.08L700.55 767.87L700.66 769.62L700.76 771.37L700.20 774.98L699.58 777.55L697.35 785.80L701.72 790.15L705.95 794.38L707.28 795.83L715.88 807.35L717.04 809.03L721.98 816.31L723.09 817.70L727.98 823.60L730.02 824.41L733.30 825.51L740.14 825.99L744.14 824.51L746.88 823.50L748.66 822.78L752.03 823.82L755.23 824.80L760.39 826.39L765.93 827.68L775.58 822.45L783.25 820.21L783.83 816.73L785.24 806.59L785.03 804.43L784.35 799.77L784.30 797.82L788.81 795.20L791.05 793.88L792.89 792.76L795.32 791.04L797.75 789.32L799.54 787.42L802.43 784.34L806.34 783.13L810.38 781.87L811.97 783.24L821.29 790.52L823.63 791.25L829.36 793.01L833.89 792.68L838.46 792.33L841.61 791.33L843.29 790.79L845.93 789.92L848.92 789.81L852.04 787.93L853.68 787.70L855.91 787.85L857.64 792.14L866.94 789.12L869.27 789.97L872.40 793.99L875.75 797.29L884.96 800.83L884.72 793.87L886.88 791.74L892.12 792.61L896.10 791.34L899.62 789.51L903.16 789.48L905.22 789.46L908.04 787.94L911.76 785.92L914.66 784.34L917.68 780.55L918.91 777.23L923.75 775.22L928.15 776.45L931.12 775.61L933.51 774.94L936.78 770.42L939.87 769.60L945.07 768.21L947.46 765.76L948.66 764.63L951.23 762.22L951.79 759.20L949.04 757.62L944.95 754.47L941.05 752.28L937.70 751.60L930.06 749.07L926.76 748.51L921.46 747.96L919.52 747.46L918.86 743.99L918.70 743.77L918.23 742.94L917.37 741.82L916.59 740.65L915.14 739.56L912.89 739.23L911.15 739.61L909.14 740.34L905.19 742.06L899.66 745.38L884.94 753.25L880.24 755.25L877.98 755.61L875.94 756.73L870.90 757.22L868.63 757.35L865.25 757.53L863.56 757.62L860.15 757.85L853.89 758.26L846.43 756.59L841.85 754.49L841.36 754.35L841.67 751.78L843.19 749.57L839.56 746.22L836.36 745.59L836.34 745.51L835.49 741.52L834.80 737.68L834.29 734.84L833.36 729.63L832.60 726.90L831.60 723.34L830.44 719.21L829.48 715.81L825.92 716.09L782.34 736.85L778.84 729.57L775.44 722.49L771.06 713.40L757.32 690.82L752.77 683.35L751.41 682.13L750.24 680.88L745.70 676.07L744.47 672.69L740.73 668.25L730.31 659.73L720.26 649.57L717.91 647.92L714.05 645.23L706.79 638.46L705.78 634.25L684.55 563.93L682.73 561.97L677.11 555.00L675.64 553.18L674.42 550.68L675.99 549.57L678.05 548.75L678.19 541.47L676.18 534.84L676.41 531.94L672.23 533.08L668.06 532.07Z" data-ward="6" /><path id="ward-9" class="ward" d="M477.61 779.01L474.14 777.31L467.40 777.08L462.90 778.69L456.21 780.75L452.82 781.06L450.91 781.23L449.01 781.40L444.73 781.13L441.65 782.00L438.81 783.70L437.28 784.59L428.93 788.50L421.64 788.97L414.44 787.01L410.87 785.91L408.85 785.18L402.52 782.75L397.97 782.36L398.14 784.09L398.41 786.95L398.61 790.91L398.89 796.24L399.12 800.68L398.57 804.70L398.30 806.70L398.08 808.36L397.39 813.81L397.25 816.26L397.08 819.45L395.48 824.07L394.12 826.18L393.03 827.87L390.04 832.92L386.53 839.17L385.26 840.49L382.31 843.57L381.36 845.31L380.32 847.22L379.42 849.13L376.80 850.34L373.48 851.29L371.01 852.00L367.09 852.84L365.41 853.20L363.72 853.13L360.15 852.99L358.18 853.47L355.79 854.29L353.45 855.08L350.60 856.35L351.81 858.38L352.50 862.06L353.20 865.82L353.79 869.17L354.90 875.41L355.45 878.53L356.27 883.16L356.65 885.21L357.64 889.94L358.59 894.48L360.08 897.92L361.62 900.03L363.43 902.12L364.61 903.63L367.15 906.13L368.70 908.21L369.79 909.68L369.39 912.13L369.08 914.06L370.64 915.88L374.61 915.71L376.53 915.76L379.99 915.83L384.27 915.93L387.37 916.76L390.00 916.33L392.92 917.81L395.43 917.89L397.86 918.40L399.66 918.47L400.85 919.62L402.49 921.22L404.11 920.15L405.24 917.96L406.83 917.43L409.05 917.20L411.06 918.85L413.17 920.36L415.04 921.59L419.32 924.15L422.14 922.19L424.05 925.61L425.11 927.51L427.06 928.18L437.27 922.16L441.35 919.75L445.16 916.06L451.58 918.41L460.92 921.83L470.77 913.35L479.05 915.55L480.91 916.76L486.08 920.12L491.01 923.32L492.67 923.09L496.07 915.06L498.55 916.13L500.28 918.34L502.43 918.11L504.28 915.29L507.09 911.00L509.90 906.72L511.84 903.76L521.58 894.88L532.24 880.41L535.39 876.13L532.58 873.69L531.18 872.39L525.98 866.39L521.89 862.52L517.15 857.51L512.54 854.89L509.04 853.05L502.13 849.47L493.61 845.51L486.31 843.46L482.30 841.27L469.41 833.39L466.56 829.77L466.27 826.94L466.12 825.15L468.33 821.16L469.96 816.66L470.13 814.74L469.74 812.37L469.13 808.71L468.43 805.75L469.25 800.50L472.55 796.67L474.45 793.70L475.97 791.38L478.10 788.14L479.83 785.84L480.35 781.80L477.61 779.01Z" data-ward="9" /><path id="ward-1" class="ward" d="M91.28 407.16L84.69 413.50L86.12 420.40L86.66 422.97L88.88 423.26L91.14 423.56L94.73 421.60L98.90 419.18L101.50 417.67L104.96 415.46L108.93 412.28L111.92 409.87L115.47 406.88L118.67 408.02L123.27 408.86L126.88 409.28L128.66 409.48L135.41 410.90L137.25 410.94L139.34 411.04L141.02 410.77L143.23 410.21L145.57 409.26L147.90 408.30L150.26 407.59L152.61 406.88L158.53 404.77L161.04 403.86L163.55 402.95L170.17 401.22L173.41 400.05L178.21 399.46L179.89 399.67L181.62 399.92L185.02 400.34L187.54 400.65L192.08 400.40L194.79 398.77L197.57 396.50L201.74 398.43L204.13 399.56L207.78 388.24L209.72 382.25L209.79 374.82L210.29 372.96L214.23 366.61L219.08 360.37L226.04 358.14L228.50 357.93L232.17 357.85L235.85 357.77L242.77 360.30L251.47 362.98L257.10 362.99L266.81 363.67L275.88 364.34L279.52 364.32L282.68 364.30L291.58 361.58L295.65 358.86L297.72 352.62L304.74 344.12L306.37 343.56L310.72 342.11L312.70 341.45L318.56 339.53L320.19 337.35L321.54 335.65L322.43 332.19L322.97 330.08L323.52 327.97L324.46 324.30L324.97 315.30L338.59 311.70L343.44 313.40L345.20 315.15L348.69 318.72L353.09 324.54L355.41 326.51L357.33 328.19L361.27 330.62L368.55 326.48L377.56 322.02L380.92 317.90L383.02 315.27L387.42 311.16L390.57 304.62L392.13 299.87L392.52 290.65L394.97 280.72L394.95 278.67L386.09 267.32L379.91 262.78L375.27 259.41L372.56 256.96L359.43 245.10L351.50 234.32L350.71 232.83L339.71 219.89L338.29 218.50L326.50 206.92L324.12 204.64L314.43 210.66L310.85 212.12L302.17 215.56L295.15 215.50L281.56 207.95L276.00 202.57L267.68 194.53L267.21 191.38L266.53 186.86L261.48 181.75L253.95 174.12L252.76 172.93L247.25 169.31L241.74 165.69L237.28 162.00L235.27 159.20L234.24 156.83L232.78 153.49L235.21 149.10L239.72 140.96L244.68 133.02L246.49 130.13L251.70 123.28L255.53 119.88L258.63 117.12L259.63 111.35L260.57 107.92L266.71 101.98L271.49 97.27L272.48 91.86L271.45 89.95L264.28 91.43L252.31 101.65L247.47 105.78L245.66 107.32L241.41 105.08L244.25 91.69L240.38 91.12L235.37 89.49L234.87 91.33L234.76 93.72L231.75 96.00L230.80 97.67L228.65 99.88L224.12 102.62L222.97 104.67L220.11 108.34L219.27 111.10L217.56 112.19L213.26 110.07L210.05 108.20L205.47 108.18L204.18 106.92L203.66 102.87L199.24 103.48L197.90 105.02L198.35 106.67L198.90 111.58L196.18 114.73L195.86 117.95L199.11 122.89L200.01 124.47L197.85 126.60L194.48 129.73L192.74 129.77L189.11 127.82L187.03 126.96L185.31 126.25L180.60 124.30L178.90 124.30L176.92 126.94L177.30 129.44L177.63 131.65L176.12 135.21L174.59 138.79L172.66 143.90L172.89 151.60L174.12 154.06L173.70 155.87L170.38 156.61L167.05 157.31L163.17 158.12L160.22 159.28L158.55 159.03L156.39 158.71L154.71 158.27L153.02 157.82L151.41 158.76L149.79 159.69L148.68 161.11L146.73 165.45L145.22 166.79L140.61 166.50L138.97 166.49L137.32 166.48L133.80 167.07L126.96 163.15L121.34 159.88L119.54 158.84L115.64 157.62L113.79 157.05L109.57 155.73L108.51 159.49L107.47 163.20L105.97 164.69L104.47 166.18L103.77 168.48L104.55 171.35L106.74 174.32L112.76 177.29L116.53 182.09L117.69 184.06L121.14 186.31L122.41 189.46L119.54 190.65L115.86 190.49L111.14 190.30L108.44 192.61L107.08 193.65L105.86 195.11L104.84 197.28L99.43 199.29L96.93 200.22L93.91 202.36L90.66 204.15L87.81 204.92L85.41 204.94L82.16 205.05L78.73 206.92L75.55 208.66L74.47 210.32L73.05 213.08L72.14 214.83L72.70 217.93L72.03 219.79L70.82 221.69L68.76 222.24L66.51 223.05L60.59 225.14L59.26 226.49L57.93 227.84L55.59 230.20L52.99 233.85L50.27 237.44L48.09 240.31L51.20 242.28L47.47 246.97L41.55 251.68L39.19 253.43L37.15 254.94L36.23 258.13L35.31 261.32L36.12 265.91L36.34 269.91L37.29 272.20L34.28 272.64L31.64 273.02L31.63 276.30L36.39 280.55L37.38 282.20L39.10 285.06L36.80 288.80L34.71 289.00L29.05 288.09L24.13 289.31L19.82 291.91L17.79 296.27L16.32 299.01L13.80 307.78L13.24 309.35L11.85 313.29L12.53 317.95L11.69 319.42L9.02 319.87L7.19 319.74L3.21 319.45L0.00 320.61L0.92 322.85L1.85 325.09L3.45 327.25L4.15 329.06L4.90 330.99L16.54 333.23L19.71 336.52L20.05 338.87L18.69 342.59L17.39 344.26L15.07 353.23L19.38 357.36L24.64 355.00L27.27 353.82L29.01 353.25L30.78 352.65L36.34 351.90L39.81 351.43L41.80 351.79L45.92 353.86L47.62 355.45L49.31 357.03L51.49 359.35L53.67 361.67L55.24 364.05L55.47 367.00L55.39 370.14L55.30 373.28L58.83 371.73L64.68 368.94L66.34 372.62L64.97 376.66L62.54 380.97L60.90 384.73L60.35 388.16L60.80 390.53L61.29 393.13L61.86 396.52L62.46 400.13L60.75 405.11L64.32 404.66L66.07 405.52L67.81 406.39L69.16 404.84L70.96 402.74L72.53 400.83L74.10 398.91L82.41 393.94L84.10 398.18L85.23 399.85L88.52 403.82L91.28 407.16Z" data-ward="1" /><path id="ward-5" class="ward" d="M733.88 465.58L736.89 465.82L738.58 464.98L743.15 462.73L746.86 461.64L748.89 461.18L750.74 460.74L752.35 460.36L756.18 460.05L765.43 459.36L767.18 458.61L770.48 457.39L776.26 453.91L783.62 449.75L785.86 448.44L790.67 445.47L797.37 441.27L799.17 439.91L806.93 432.12L809.51 427.62L812.09 423.11L812.76 418.94L813.04 417.22L813.40 414.98L813.78 412.69L814.59 410.17L815.35 407.80L816.50 404.24L817.17 402.16L817.85 400.02L819.00 396.43L819.33 394.76L816.60 393.78L813.20 391.13L811.17 390.66L808.93 390.50L806.70 390.35L795.24 390.40L791.90 390.42L787.21 390.10L785.26 390.51L783.32 390.93L782.04 392.70L780.65 394.96L779.54 396.76L778.27 398.60L776.27 399.41L774.01 400.33L769.75 401.91L766.18 403.78L762.61 405.66L757.99 406.62L754.55 406.18L751.41 405.77L747.71 405.57L743.39 404.68L741.91 403.73L737.48 398.97L735.21 396.04L731.38 390.43L727.02 381.39L722.90 384.61L716.94 391.69L712.18 394.83L711.00 393.65L708.97 391.95L706.94 390.26L704.10 390.11L701.27 389.96L695.43 392.36L688.64 393.51L687.22 392.37L686.29 389.92L684.30 388.47L676.34 388.17L672.42 390.41L670.24 391.88L668.82 392.84L648.20 406.78L642.20 414.14L637.31 420.96L632.71 424.45L625.27 429.95L623.57 431.21L620.80 436.98L619.52 439.66L615.50 448.02L613.63 451.78L609.80 450.70L603.14 448.82L599.52 446.31L599.16 442.03L597.83 437.01L595.25 436.11L591.04 436.46L586.83 436.80L584.18 437.08L578.45 436.98L574.99 441.44L571.78 446.71L568.33 451.56L566.68 451.77L563.43 450.81L555.62 442.81L550.44 437.45L547.40 436.15L544.54 436.35L541.68 436.55L538.54 438.42L535.39 440.29L531.03 443.65L526.66 447.01L522.02 451.37L517.37 455.73L516.02 457.04L510.69 461.06L505.63 460.46L501.27 462.09L496.59 463.83L492.52 465.34L489.30 469.41L486.99 471.69L484.76 472.75L482.86 473.49L479.07 474.79L477.36 475.07L471.67 475.98L467.56 476.32L465.82 476.03L461.44 475.18L453.77 473.75L451.65 474.00L449.52 474.26L447.11 473.70L445.55 473.00L439.11 470.99L434.10 469.78L432.42 469.33L428.62 468.23L426.89 468.50L423.15 469.09L420.44 469.57L416.81 471.40L414.11 473.28L410.07 475.55L404.64 475.10L396.06 474.26L394.18 480.32L388.07 484.22L384.01 488.53L380.75 497.69L377.24 507.17L375.54 512.42L374.69 515.08L373.55 521.03L373.28 522.79L374.88 526.73L378.85 529.03L381.51 529.64L385.08 530.46L396.02 531.95L398.90 533.11L399.92 534.64L400.07 536.90L398.63 542.06L398.20 544.06L398.10 546.94L398.58 552.81L399.24 555.40L402.21 561.26L402.91 565.04L401.27 571.30L398.23 578.73L394.87 585.68L394.51 589.24L396.51 601.59L399.38 609.82L399.38 615.44L399.05 622.26L398.32 625.58L397.51 629.24L403.97 626.99L411.26 624.43L414.52 623.43L419.69 621.95L422.06 621.27L425.57 620.92L428.59 623.33L430.75 627.51L431.33 629.90L431.77 631.75L431.48 634.66L431.13 638.15L430.08 647.68L429.98 651.48L429.92 653.89L429.86 656.20L431.60 660.49L432.92 663.74L439.04 672.12L444.07 677.32L447.75 680.66L451.00 683.62L452.23 684.77L453.73 686.24L455.36 687.54L460.08 687.04L462.56 686.77L466.73 685.77L470.39 684.67L473.20 684.57L475.06 684.72L479.77 683.05L481.41 679.93L481.40 677.15L481.41 673.06L481.46 668.26L481.50 665.54L486.99 667.25L489.44 673.53L490.65 676.61L493.07 683.37L494.33 686.70L495.18 688.95L496.87 693.23L498.79 698.07L509.18 708.29L512.97 712.01L529.31 715.10L531.48 715.52L547.61 721.94L564.07 728.52L577.21 733.77L588.70 738.37L596.91 741.65L600.30 742.33L617.07 745.77L624.72 747.35L627.36 747.96L632.74 745.24L634.69 750.13L635.62 752.93L651.40 759.50L654.50 760.43L661.96 764.58L667.65 767.91L676.04 773.22L674.54 774.93L679.40 777.69L684.07 780.34L686.08 781.35L690.12 782.71L697.35 785.80L699.58 777.55L700.20 774.98L700.76 771.37L700.66 769.62L700.55 767.87L699.53 765.08L697.45 762.21L695.54 759.53L694.22 755.47L692.90 751.42L691.67 746.72L690.46 742.09L689.73 738.44L685.67 732.65L683.90 731.08L676.61 723.98L675.68 721.94L675.04 720.35L673.06 717.72L670.52 717.11L658.87 718.07L640.18 719.44L637.68 718.26L628.81 714.04L626.92 707.49L627.71 699.48L627.55 684.71L607.81 675.20L596.98 669.99L595.49 669.28L587.68 664.95L581.77 662.78L571.41 660.83L566.45 659.90L562.81 659.24L554.29 657.56L541.91 650.75L539.76 642.33L538.04 633.90L536.64 627.00L536.34 625.26L534.73 620.87L530.96 610.50L527.97 602.72L525.08 595.30L525.50 588.35L526.63 586.10L528.17 583.31L529.68 577.09L527.71 572.41L525.74 567.72L523.52 559.23L523.69 556.21L523.86 553.19L525.97 548.25L528.07 543.31L529.05 541.20L530.11 537.43L530.82 531.20L531.47 525.82L532.12 520.45L532.72 518.84L534.26 514.73L534.95 512.87L536.43 511.59L538.51 509.78L543.41 507.35L547.05 505.55L549.19 505.06L555.88 503.56L561.52 502.30L566.97 499.98L570.02 498.17L572.62 496.90L575.23 495.64L584.65 495.84L587.59 495.90L589.55 496.13L594.49 496.97L599.43 497.81L603.84 498.87L606.01 499.63L607.80 500.29L611.10 501.81L617.34 505.43L623.85 508.81L625.40 509.40L628.81 510.70L632.23 511.99L634.30 513.14L635.83 515.11L637.89 517.82L639.95 520.52L642.79 524.34L647.00 528.85L649.38 529.82L654.93 530.39L660.55 530.98L666.17 531.57L668.06 532.07L672.23 533.08L676.41 531.94L680.83 528.52L684.31 525.82L685.67 524.77L687.45 522.69L688.68 521.25L691.72 517.70L692.92 512.04L697.53 509.46L700.10 508.02L703.25 506.26L706.56 501.58L708.97 498.13L711.38 494.67L715.48 484.12L720.11 479.49L727.17 472.62L728.87 469.20L730.03 466.87L733.88 465.58Z" data-ward="5" /><path id="ward-4" class="ward" d="M722.90 384.61L727.02 381.39L724.60 376.17L719.70 365.58L718.64 363.26L716.98 359.64L714.84 354.87L710.00 345.45L708.38 342.34L706.73 337.26L704.42 330.65L703.00 327.00L701.59 323.35L699.79 320.25L696.51 316.40L693.47 313.24L690.43 310.08L687.13 307.24L685.90 305.28L684.01 294.39L682.92 288.17L681.98 282.77L681.17 280.39L679.80 277.85L678.42 275.30L674.15 269.58L672.19 267.70L669.50 265.80L665.24 263.43L660.99 261.07L657.09 259.19L653.20 257.31L651.45 256.52L646.71 255.15L641.96 253.78L639.19 254.90L636.83 255.72L635.09 256.20L629.31 257.28L626.80 257.95L624.44 258.58L621.45 259.37L615.60 261.23L613.30 261.96L608.11 263.58L603.82 265.15L601.25 265.32L599.03 263.55L595.16 257.98L593.22 254.34L589.89 248.12L588.41 246.14L586.92 244.15L581.17 242.12L576.77 240.67L569.66 238.33L565.58 236.99L563.60 235.76L561.16 233.98L557.64 232.32L554.70 229.88L553.53 228.15L551.61 227.67L548.31 228.29L545.82 228.71L543.32 229.14L541.02 229.71L538.69 230.51L536.35 231.32L532.65 232.90L529.50 234.26L527.20 235.24L524.44 235.67L521.25 235.85L517.18 235.72L513.26 235.95L510.43 237.70L507.96 239.23L505.02 241.80L502.12 244.34L499.14 246.03L496.73 246.58L493.29 246.51L488.28 245.92L485.65 245.76L483.02 245.60L480.96 245.52L476.06 246.42L473.88 246.29L470.66 246.11L466.97 245.90L464.44 245.78L461.91 245.67L460.39 246.51L457.34 248.20L452.80 250.71L445.59 254.69L443.50 255.95L441.98 257.23L438.94 259.81L436.50 260.63L434.92 261.16L431.98 261.64L430.34 261.90L427.88 262.24L425.42 262.57L422.59 263.38L419.76 264.19L418.10 264.90L416.19 265.68L412.15 267.34L408.53 269.25L405.08 271.33L400.51 274.09L394.95 278.67L394.97 280.72L392.52 290.65L392.13 299.87L390.57 304.62L387.42 311.16L383.02 315.27L380.92 317.90L377.56 322.02L368.55 326.48L361.27 330.62L360.34 333.27L358.42 338.77L357.86 347.52L357.70 351.56L357.63 354.21L354.07 358.26L349.74 358.33L344.38 359.68L342.74 360.28L340.24 361.20L336.90 363.80L333.33 369.24L330.62 372.32L327.02 375.87L327.11 377.70L328.94 379.79L332.70 381.30L335.95 382.62L340.35 384.61L342.44 385.56L344.52 386.50L348.55 388.36L350.87 389.60L354.27 391.44L357.30 393.37L359.19 394.57L362.19 396.48L364.57 397.70L369.71 400.25L373.57 403.99L376.72 405.77L378.21 406.60L382.33 413.16L383.91 416.77L385.11 419.64L386.51 422.96L388.44 426.79L389.68 429.25L390.92 431.70L389.82 435.69L389.40 438.21L389.48 443.34L391.01 451.03L394.13 455.67L396.02 464.66L395.99 469.66L396.06 474.26L404.64 475.10L410.07 475.55L414.11 473.28L416.81 471.40L420.44 469.57L423.15 469.09L426.89 468.50L428.62 468.23L432.42 469.33L434.10 469.78L439.11 470.99L445.55 473.00L447.11 473.70L449.52 474.26L451.65 474.00L453.77 473.75L461.44 475.18L465.82 476.03L467.56 476.32L471.67 475.98L477.36 475.07L479.07 474.79L482.86 473.49L484.76 472.75L486.99 471.69L489.30 469.41L492.52 465.34L496.59 463.83L501.27 462.09L505.63 460.46L510.69 461.06L516.02 457.04L517.37 455.73L522.02 451.37L526.66 447.01L531.03 443.65L535.39 440.29L538.54 438.42L541.68 436.55L544.54 436.35L547.40 436.15L550.44 437.45L555.62 442.81L563.43 450.81L566.68 451.77L568.33 451.56L571.78 446.71L574.99 441.44L578.45 436.98L584.18 437.08L586.83 436.80L591.04 436.46L595.25 436.11L597.83 437.01L599.16 442.03L599.52 446.31L603.14 448.82L609.80 450.70L613.63 451.78L615.50 448.02L619.52 439.66L620.80 436.98L623.57 431.21L625.27 429.95L632.71 424.45L637.31 420.96L642.20 414.14L648.20 406.78L668.82 392.84L670.24 391.88L672.42 390.41L676.34 388.17L684.30 388.47L686.29 389.92L687.22 392.37L688.64 393.51L695.43 392.36L701.27 389.96L704.10 390.11L706.94 390.26L708.97 391.95L711.00 393.65L712.18 394.83L716.94 391.69L722.90 384.61Z" data-ward="4" /><path id="ward-3" class="ward" d="M937.82 203.49L934.75 201.47L932.95 199.65L930.54 197.19L928.08 194.69L925.65 192.21L924.49 191.03L922.36 188.86L919.18 187.26L916.81 186.08L914.75 185.04L910.84 183.10L907.56 181.46L903.57 179.47L899.67 177.90L896.49 176.61L892.27 174.91L888.36 173.29L886.02 171.77L883.64 170.02L881.66 168.57L880.22 170.28L879.46 171.89L879.68 173.86L879.88 175.67L879.03 178.25L875.93 179.01L874.05 179.36L872.54 180.16L870.73 182.48L868.83 184.65L866.93 186.82L865.13 188.01L859.38 190.60L857.23 191.59L855.18 192.64L853.12 193.69L848.01 193.83L845.65 193.89L843.50 193.76L842.46 192.17L841.42 190.58L836.91 189.28L834.80 189.47L832.69 189.66L829.97 190.46L826.93 191.35L823.39 192.39L821.08 193.13L818.68 194.11L815.82 195.27L814.10 195.96L811.81 196.88L808.97 198.03L806.90 198.38L804.44 198.81L801.60 198.67L798.41 198.85L793.14 196.31L790.15 196.56L787.18 196.81L785.31 197.31L781.83 198.25L779.92 198.77L777.96 193.80L770.29 195.70L756.96 199.01L740.46 203.10L736.82 201.75L734.53 199.70L732.48 198.72L730.04 195.62L727.75 192.70L723.52 195.27L719.04 198.00L715.72 197.54L705.29 196.09L706.30 192.01L706.45 189.77L706.79 184.77L707.80 178.78L708.26 176.06L706.62 174.66L704.88 173.16L701.93 173.76L698.76 173.03L697.32 173.98L695.63 174.73L692.99 175.58L691.04 176.21L689.09 176.20L685.13 175.94L683.17 175.81L679.90 175.59L681.58 169.73L682.43 166.77L682.56 162.46L677.53 161.98L675.46 161.93L673.39 161.89L673.42 160.10L673.29 153.31L670.83 152.31L668.38 151.30L665.19 151.68L663.10 151.78L660.43 151.91L654.10 151.51L648.33 150.46L645.17 146.72L643.32 144.92L639.14 144.31L637.10 144.01L634.09 145.15L633.48 141.60L634.17 136.17L631.63 134.04L630.20 135.61L627.10 138.13L624.15 137.98L620.92 140.36L617.00 144.39L614.50 147.20L613.34 148.51L611.99 151.02L608.54 150.40L605.84 149.92L602.32 149.29L598.49 148.27L594.95 147.33L591.75 146.47L588.13 145.42L585.45 144.64L582.41 143.75L579.56 142.99L575.03 141.96L572.13 141.30L564.67 142.47L561.54 142.96L557.10 143.10L553.80 143.20L550.74 143.48L547.68 143.76L546.61 150.77L546.41 153.95L547.20 157.35L548.97 161.19L550.77 165.07L554.29 172.72L557.84 180.40L559.61 184.24L561.38 188.06L563.18 193.12L565.10 199.20L565.46 202.91L564.56 207.02L563.06 210.61L560.45 216.54L559.18 219.03L557.93 221.48L556.63 223.34L554.63 226.19L553.53 228.15L554.70 229.88L557.64 232.32L561.16 233.98L563.60 235.76L565.58 236.99L569.66 238.33L576.77 240.67L581.17 242.12L586.92 244.15L588.41 246.14L589.89 248.12L593.22 254.34L595.16 257.98L599.03 263.55L601.25 265.32L603.82 265.15L608.11 263.58L613.30 261.96L615.60 261.23L621.45 259.37L624.44 258.58L626.80 257.95L629.31 257.28L635.09 256.20L636.83 255.72L639.19 254.90L641.96 253.78L646.71 255.15L651.45 256.52L653.20 257.31L657.09 259.19L660.99 261.07L665.24 263.43L669.50 265.80L672.19 267.70L674.15 269.58L678.42 275.30L679.80 277.85L681.17 280.39L681.98 282.77L682.92 288.17L684.01 294.39L685.90 305.28L687.13 307.24L690.43 310.08L693.47 313.24L696.51 316.40L699.79 320.25L701.59 323.35L703.00 327.00L704.42 330.65L706.73 337.26L708.38 342.34L710.00 345.45L714.84 354.87L716.98 359.64L718.64 363.26L719.70 365.58L724.60 376.17L727.02 381.39L731.38 390.43L735.21 396.04L737.48 398.97L741.91 403.73L743.39 404.68L747.71 405.57L751.41 405.77L754.55 406.18L757.99 406.62L762.61 405.66L766.18 403.78L769.75 401.91L774.01 400.33L776.27 399.41L778.27 398.60L779.54 396.76L780.65 394.96L782.04 392.70L783.32 390.93L785.26 390.51L787.21 390.10L791.90 390.42L795.24 390.40L806.70 390.35L808.93 390.50L811.17 390.66L813.20 391.13L816.60 393.78L819.33 394.76L820.00 389.64L821.51 384.26L823.05 385.53L824.83 386.99L827.83 389.02L832.22 391.98L835.77 392.32L842.53 390.80L847.71 389.60L853.92 388.17L856.12 389.70L857.21 391.49L858.38 398.71L858.91 401.14L859.60 404.32L859.59 406.46L861.96 411.12L864.53 416.18L865.64 418.06L866.65 419.78L871.83 420.51L876.33 421.15L878.97 419.30L880.89 417.87L884.24 414.32L890.91 406.22L893.13 403.53L895.83 400.58L900.77 399.89L903.69 400.66L906.61 401.42L908.78 403.58L907.22 407.65L906.35 412.32L906.02 414.09L905.78 416.67L905.62 418.40L906.67 420.34L908.28 423.28L910.42 425.85L912.56 428.43L913.31 431.20L909.15 435.57L905.96 438.28L904.09 439.74L902.21 441.20L898.78 440.82L897.80 438.97L894.54 433.91L893.29 432.14L891.64 430.69L888.86 431.07L887.24 433.05L884.65 436.24L881.39 440.25L880.70 443.96L881.74 447.30L883.46 448.04L884.76 449.11L886.81 450.90L892.18 453.44L896.65 455.07L898.93 455.91L901.27 458.24L902.54 461.16L900.81 462.75L898.55 464.82L896.57 466.87L893.99 470.02L894.75 473.55L897.57 474.40L901.78 476.97L906.65 478.52L910.44 478.30L912.34 478.09L914.91 477.46L917.08 476.84L919.05 475.84L923.57 473.56L930.56 473.22L932.57 473.13L933.05 478.37L933.67 485.09L934.57 488.59L935.96 494.01L943.84 496.94L948.10 491.15L945.20 488.80L953.85 485.33L957.18 487.02L967.35 486.97L965.77 484.76L950.49 463.36L950.65 460.60L950.82 457.84L951.30 449.67L951.99 437.97L951.15 431.75L950.93 426.51L950.83 424.49L951.86 419.12L952.34 416.59L954.30 413.95L955.35 412.53L958.66 408.08L959.71 403.67L962.65 391.34L979.69 372.96L983.38 368.97L988.57 363.37L990.30 362.27L992.00 360.39L993.57 358.64L996.37 354.33L998.14 351.61L1000.00 347.84L997.32 344.18L995.18 340.86L993.09 337.58L990.88 334.11L989.12 331.43L987.73 329.31L985.38 325.73L983.74 323.09L980.38 317.70L979.22 314.88L978.30 312.65L977.61 310.55L976.71 307.82L977.10 305.65L980.03 304.57L982.33 303.73L984.88 302.94L987.43 302.16L989.21 301.33L990.10 299.73L990.50 297.72L991.15 294.47L991.61 292.17L992.22 288.70L992.75 285.74L993.24 282.94L994.17 277.88L994.88 273.98L995.21 272.14L996.19 265.81L996.30 261.09L995.78 255.37L995.47 252.86L995.14 250.29L994.64 246.35L993.35 243.34L992.06 240.33L990.95 238.30L989.89 236.36L988.65 234.08L984.27 231.71L982.41 230.76L980.15 229.61L975.27 227.12L972.44 224.91L970.97 223.77L969.18 222.37L967.49 221.17L965.43 219.93L962.96 218.45L959.89 217.54L956.59 216.72L954.11 216.11L952.40 215.80L950.90 214.21L948.78 211.96L947.29 210.64L945.22 208.79L943.14 206.95L940.61 205.31L937.82 203.49Z" data-ward="3" /><path id="ward-14" class="ward" d="M394.87 585.68L398.23 578.73L401.27 571.30L402.91 565.04L402.21 561.26L399.24 555.40L398.58 552.81L398.10 546.94L398.20 544.06L398.63 542.06L400.07 536.90L399.92 534.64L398.90 533.11L396.02 531.95L385.08 530.46L381.51 529.64L378.85 529.03L374.88 526.73L373.28 522.79L373.55 521.03L374.69 515.08L375.54 512.42L377.24 507.17L380.75 497.69L384.01 488.53L388.07 484.22L394.18 480.32L396.06 474.26L395.99 469.66L396.02 464.66L394.13 455.67L391.01 451.03L389.48 443.34L389.40 438.21L389.82 435.69L390.92 431.70L389.68 429.25L388.44 426.79L386.51 422.96L385.11 419.64L383.91 416.77L382.33 413.16L378.21 406.60L376.72 405.77L373.57 403.99L369.71 400.25L364.57 397.70L362.19 396.48L359.19 394.57L357.30 393.37L354.27 391.44L350.87 389.60L348.55 388.36L344.52 386.50L342.44 385.56L340.35 384.61L335.95 382.62L332.70 381.30L328.94 379.79L327.11 377.70L327.02 375.87L330.62 372.32L333.33 369.24L336.90 363.80L340.24 361.20L342.74 360.28L344.38 359.68L349.74 358.33L354.07 358.26L357.63 354.21L357.70 351.56L357.86 347.52L358.42 338.77L360.34 333.27L361.27 330.62L357.33 328.19L355.41 326.51L353.09 324.54L348.69 318.72L345.20 315.15L343.44 313.40L338.59 311.70L324.97 315.30L324.46 324.30L323.52 327.97L322.97 330.08L322.43 332.19L321.54 335.65L320.19 337.35L318.56 339.53L312.70 341.45L310.72 342.11L306.37 343.56L304.74 344.12L297.72 352.62L295.65 358.86L291.58 361.58L282.68 364.30L279.52 364.32L275.88 364.34L266.81 363.67L257.10 362.99L251.47 362.98L242.77 360.30L235.85 357.77L232.17 357.85L228.50 357.93L226.04 358.14L219.08 360.37L214.23 366.61L210.29 372.96L209.79 374.82L209.72 382.25L207.78 388.24L204.13 399.56L205.94 400.35L207.48 401.05L206.76 403.78L206.08 405.95L201.06 412.08L199.55 413.92L197.74 415.49L195.92 417.07L193.16 419.47L183.34 426.01L182.00 426.98L174.32 432.68L167.14 437.10L166.35 439.72L168.56 443.17L171.59 447.88L173.69 450.27L175.80 452.66L178.44 455.31L180.93 458.52L185.21 465.19L185.79 468.55L186.17 473.31L190.37 481.27L190.54 483.71L190.73 486.59L190.90 492.27L193.53 497.71L192.70 501.27L191.11 506.53L188.61 512.32L191.08 517.18L195.83 521.58L197.70 524.62L197.33 526.68L196.32 530.33L197.90 535.53L200.67 545.04L204.89 552.15L206.24 553.74L208.37 557.81L205.14 562.13L203.12 567.46L201.50 570.98L198.13 574.01L206.33 576.68L209.60 575.25L215.41 576.68L218.22 580.01L224.72 583.05L229.42 585.17L232.54 585.84L234.48 586.26L236.42 586.68L240.18 587.65L241.88 588.11L245.16 586.92L247.14 585.76L249.51 582.70L252.06 582.90L254.57 589.50L259.57 594.71L262.48 596.93L270.53 597.94L273.44 598.04L277.26 598.11L281.20 596.41L282.80 595.80L290.20 594.93L293.90 595.53L296.15 595.93L306.47 599.19L310.84 600.10L313.72 600.37L316.12 600.59L318.52 600.80L323.47 600.74L325.34 599.34L327.20 597.47L333.08 598.59L334.09 595.06L336.78 593.55L339.50 594.55L344.00 596.65L346.96 598.19L351.20 599.73L353.46 599.93L355.05 600.79L354.91 603.38L358.53 610.17L361.49 616.00L364.66 616.41L368.95 616.01L378.65 613.43L386.34 611.31L390.63 609.75L394.31 610.50L395.09 615.76L395.29 617.69L395.54 620.11L395.89 623.43L396.51 625.56L397.51 629.24L398.32 625.58L399.05 622.26L399.38 615.44L399.38 609.82L396.51 601.59L394.51 589.24L394.87 585.68Z" data-ward="14" /><path id="ward-12" class="ward" d="M178.32 664.90L183.64 668.66L188.09 670.43L191.95 671.43L195.56 674.91L199.32 678.94L201.30 682.59L206.37 686.12L208.42 687.55L210.39 688.88L213.08 690.52L217.66 694.62L219.83 696.56L221.23 698.01L223.28 700.12L228.37 705.22L232.25 708.90L245.15 716.46L247.60 718.53L250.30 720.81L253.26 723.62L256.64 726.69L258.72 728.59L262.53 732.14L266.81 736.15L268.91 738.69L272.45 742.16L275.30 744.96L276.86 746.12L280.84 749.08L283.86 750.74L286.84 752.37L289.24 752.72L292.11 752.71L294.81 752.71L296.51 752.52L298.34 752.31L300.10 752.11L300.61 748.02L300.87 743.77L300.94 739.05L300.95 737.27L301.91 735.86L301.53 730.11L301.01 728.14L300.81 725.64L300.62 723.27L299.83 721.52L296.66 716.30L294.86 712.14L298.10 709.94L299.59 708.65L300.23 706.51L299.32 702.70L299.18 696.69L297.21 693.44L297.43 690.86L293.36 677.77L290.96 669.62L289.69 668.21L288.10 665.79L286.90 662.95L284.91 660.87L281.92 657.17L280.20 655.15L278.80 651.62L275.84 634.53L277.39 630.64L287.13 619.33L289.49 617.02L295.58 612.19L302.92 610.06L309.56 608.16L311.30 605.84L310.84 600.10L306.47 599.19L296.15 595.93L293.90 595.53L290.20 594.93L282.80 595.80L281.20 596.41L277.26 598.11L273.44 598.04L270.53 597.94L262.48 596.93L259.57 594.71L254.57 589.50L252.06 582.90L249.51 582.70L247.14 585.76L245.16 586.92L241.88 588.11L240.18 587.65L236.42 586.68L234.48 586.26L232.54 585.84L229.42 585.17L224.72 583.05L218.22 580.01L215.41 576.68L209.60 575.25L206.33 576.68L198.13 574.01L194.87 576.83L192.46 581.50L190.86 585.30L189.58 592.31L188.25 596.29L186.08 597.33L183.62 597.81L178.28 598.87L167.79 603.38L160.64 607.12L154.93 610.08L154.86 615.07L154.07 618.20L153.46 621.67L153.54 625.86L154.21 627.54L154.94 629.38L157.74 633.50L161.03 635.83L163.37 637.12L166.22 638.42L168.17 639.34L170.11 640.34L172.04 641.34L174.08 643.59L175.45 646.29L176.58 650.48L176.17 654.25L176.25 660.54L178.32 664.90Z" data-ward="12" /><path id="ward-2" class="ward" d="M259.63 111.35L258.63 117.12L255.53 119.88L251.70 123.28L246.49 130.13L244.68 133.02L239.72 140.96L235.21 149.10L232.78 153.49L234.24 156.83L235.27 159.20L237.28 162.00L241.74 165.69L247.25 169.31L252.76 172.93L253.95 174.12L261.48 181.75L266.53 186.86L267.21 191.38L267.68 194.53L276.00 202.57L281.56 207.95L295.15 215.50L302.17 215.56L310.85 212.12L314.43 210.66L324.12 204.64L326.50 206.92L338.29 218.50L339.71 219.89L350.71 232.83L351.50 234.32L359.43 245.10L372.56 256.96L375.27 259.41L379.91 262.78L386.09 267.32L394.95 278.67L400.51 274.09L405.08 271.33L408.53 269.25L412.15 267.34L416.19 265.68L418.10 264.90L419.76 264.19L422.59 263.38L425.42 262.57L427.88 262.24L430.34 261.90L431.98 261.64L434.92 261.16L436.50 260.63L438.94 259.81L441.98 257.23L443.50 255.95L445.59 254.69L452.80 250.71L457.34 248.20L460.39 246.51L461.91 245.67L464.44 245.78L466.97 245.90L470.66 246.11L473.88 246.29L476.06 246.42L480.96 245.52L483.02 245.60L485.65 245.76L488.28 245.92L493.29 246.51L496.73 246.58L499.14 246.03L502.12 244.34L505.02 241.80L507.96 239.23L510.43 237.70L513.26 235.95L517.18 235.72L521.25 235.85L524.44 235.67L527.20 235.24L529.50 234.26L532.65 232.90L536.35 231.32L538.69 230.51L541.02 229.71L543.32 229.14L545.82 228.71L548.31 228.29L551.61 227.67L553.53 228.15L554.63 226.19L556.63 223.34L557.93 221.48L559.18 219.03L560.45 216.54L563.06 210.61L564.56 207.02L565.46 202.91L565.10 199.20L563.18 193.12L561.38 188.06L559.61 184.24L557.84 180.40L554.29 172.72L550.77 165.07L548.97 161.19L547.20 157.35L546.41 153.95L546.61 150.77L547.68 143.76L550.74 143.48L553.80 143.20L557.10 143.10L561.54 142.96L564.67 142.47L572.13 141.30L571.51 138.53L571.07 136.57L570.58 132.20L570.64 129.87L570.87 126.79L567.76 125.75L565.05 124.99L563.00 124.59L558.07 123.63L555.66 122.61L556.15 119.21L556.99 115.52L557.71 113.66L558.55 111.47L559.21 109.48L559.87 107.48L560.65 105.30L562.24 101.00L563.17 99.36L564.61 96.82L566.36 94.07L568.38 91.01L565.34 89.79L563.61 88.76L561.43 87.47L562.42 84.79L563.23 83.05L564.40 80.52L566.55 76.40L568.10 73.27L567.77 69.89L567.51 67.24L567.28 64.97L567.14 62.30L567.00 59.83L566.85 57.03L564.98 56.40L560.66 54.94L557.45 53.91L556.32 55.34L555.20 56.76L553.80 58.57L552.40 59.91L549.69 58.50L546.53 57.05L542.88 55.94L541.49 55.03L539.86 51.68L538.37 50.77L533.98 50.96L529.36 51.81L525.70 52.22L523.42 52.19L521.35 51.50L519.18 50.77L517.39 50.62L515.60 50.47L514.17 46.36L514.04 41.22L510.32 37.13L508.89 34.51L507.81 33.02L506.73 31.53L503.86 30.73L501.85 30.20L500.37 28.74L498.88 27.29L495.78 25.54L492.67 23.79L489.02 22.01L486.99 21.02L482.66 18.69L479.86 17.19L477.34 17.46L475.23 17.36L473.20 16.67L470.28 14.68L468.32 13.44L466.42 13.24L461.72 13.52L458.44 13.71L454.58 13.02L452.05 11.94L450.28 10.99L447.12 9.29L442.75 6.94L441.14 5.15L439.82 3.68L437.55 1.16L435.05 0.59L430.23 0.00L427.14 2.18L424.35 4.15L421.93 7.41L420.71 9.43L419.28 11.80L416.80 13.69L414.74 15.26L412.71 16.46L409.85 20.97L409.27 22.57L408.69 24.15L407.45 26.21L405.65 27.30L400.14 29.28L396.28 30.83L393.26 32.05L389.74 27.27L387.69 24.49L385.93 22.11L384.53 20.21L381.84 22.19L379.98 23.71L377.50 25.73L373.57 28.54L371.64 29.92L367.99 32.57L366.02 34.01L364.53 35.09L361.02 37.67L359.13 38.21L356.75 39.45L354.37 40.69L352.45 42.07L349.32 44.85L347.39 46.62L345.45 48.39L342.19 50.27L339.76 51.54L336.91 53.13L335.17 54.10L331.01 55.74L328.35 56.31L325.88 56.83L322.89 57.29L318.12 58.04L315.07 58.62L312.02 59.21L308.93 62.05L306.79 63.08L305.01 65.47L303.22 67.85L302.26 71.00L301.51 72.55L300.19 75.27L297.39 76.54L295.33 75.07L293.26 73.59L291.24 71.76L289.31 70.43L287.39 69.10L284.92 67.10L283.69 65.65L281.55 63.14L279.21 60.69L277.58 59.65L274.32 58.77L272.71 57.94L269.63 56.82L268.54 54.92L261.70 56.85L263.42 58.74L262.93 60.69L260.90 64.88L260.01 68.46L257.67 70.02L253.45 71.25L251.49 71.78L249.21 72.44L245.25 73.64L243.14 76.26L242.57 79.00L242.84 81.56L243.18 83.66L243.66 86.66L244.25 91.69L241.41 105.08L245.66 107.32L247.47 105.78L252.31 101.65L264.28 91.43L271.45 89.95L272.48 91.86L271.49 97.27L266.71 101.98L260.57 107.92L259.63 111.35Z" data-ward="2" /></svg>