<svg viewBox="0 0 1000.00 545.64" xmlns="http://www.w3.org/2000/svg"><style>.ward { fill: #e2e8f0; stroke: #fff; stroke-width: 0.5px; } .ward:hover { fill: #cbd5e1; }</style><path id="ward-17" class="ward" d="M328.79 388.01L326.89 387.53L325.72 387.20L322.96 386.67L321.54 386.15L320.54 385.80L320.06 384.02L319.87 381.16L320.05 379.44L320.74 377.63L322.85 377.55L324.63 376.16L325.69 374.09L325.96 372.83L326.30 371.81L326.81 370.81L327.42 369.57L328.20 368.47L328.88 367.19L330.02 366.13L330.79 364.39L331.51 362.31L332.66 359.77L332.88 356.50L332.95 352.38L332.14 349.98L331.92 348.85L331.70 347.58L331.12 346.32L328.26 344.93L324.46 343.40L322.85 343.10L320.16 342.61L317.97 342.84L308.46 343.84L303.38 345.00L301.32 346.72L300.98 351.14L299.69 357.17L298.72 360.01L297.80 362.08L296.78 362.72L295.50 363.53L291.20 364.03L289.95 365.78L288.91 368.06L287.86 370.44L287.61 372.96L287.54 375.52L287.50 378.42L287.48 379.91L287.10 382.59L287.59 386.31L288.12 387.95L289.04 390.31L289.33 391.53L289.88 393.95L290.53 396.68L291.22 398.37L291.80 400.57L291.15 402.12L289.50 404.99L288.36 406.66L287.08 408.69L286.27 409.65L285.05 410.77L284.21 411.72L282.91 413.15L281.63 413.97L280.19 415.91L279.29 416.85L278.49 418.66L278.02 420.01L280.06 420.01L282.09 420.02L284.24 419.80L286.39 419.59L288.70 420.35L290.97 421.38L292.29 421.99L293.61 422.60L294.85 422.88L296.09 423.15L297.97 422.87L299.86 422.58L301.27 422.04L302.54 421.82L303.79 421.87L304.88 422.32L306.51 423.03L308.00 423.68L310.50 425.16L311.04 427.07L311.59 429.20L312.34 430.97L312.85 432.01L314.46 433.40L316.36 435.08L318.14 436.68L318.94 438.69L318.73 439.78L318.71 441.22L318.70 442.66L315.35 442.06L313.44 442.73L310.63 443.46L309.19 444.79L308.55 446.42L307.92 448.05L307.65 449.36L306.57 454.28L306.59 455.98L307.00 457.17L306.83 458.24L306.71 460.31L307.06 462.37L308.33 464.67L308.29 465.89L310.04 466.90L312.07 467.72L313.54 468.31L315.42 468.33L317.29 468.36L318.48 468.20L321.30 466.70L322.97 466.66L324.78 466.46L326.21 466.36L326.87 468.14L326.73 469.70L326.79 471.30L326.55 474.62L327.45 477.48L327.24 478.83L327.04 480.18L327.48 481.66L327.85 482.66L328.41 484.05L327.48 485.64L326.49 486.56L324.27 488.63L322.66 490.13L324.16 492.32L326.23 492.89L328.26 493.54L330.76 494.31L333.19 494.99L334.76 495.36L336.13 495.66L338.09 496.16L341.81 497.40L344.08 495.70L344.79 494.91L346.20 494.49L347.37 494.92L349.53 495.51L351.46 494.61L352.02 491.90L352.10 490.10L352.19 488.31L351.90 485.42L348.90 485.38L346.14 485.33L345.08 485.27L343.91 485.19L343.74 484.07L344.06 481.80L344.36 479.64L344.41 477.90L343.78 475.05L342.72 473.27L343.22 471.91L344.23 470.97L346.40 469.53L348.01 468.85L350.33 469.10L351.81 468.75L353.38 467.87L354.39 468.19L355.81 468.59L357.30 469.00L358.32 469.28L358.37 471.80L358.71 473.80L359.55 476.50L360.09 478.87L359.83 482.44L358.85 483.83L358.50 486.09L359.21 487.18L361.27 488.11L363.32 489.03L364.45 490.96L364.55 492.28L359.68 496.04L358.61 498.12L357.54 500.20L357.52 501.58L357.51 502.71L357.38 505.06L357.04 506.14L356.78 507.44L356.53 508.75L358.03 510.72L359.83 513.16L360.93 516.69L363.19 520.18L364.25 522.45L364.57 524.82L364.42 526.03L364.26 527.29L364.11 528.49L363.90 530.09L363.69 531.40L363.04 535.11L362.50 536.27L361.87 537.88L361.31 539.78L360.97 542.30L363.71 545.64L365.29 543.13L366.48 541.22L368.30 538.63L370.14 536.03L370.63 535.05L371.72 532.86L370.60 527.85L369.35 525.57L368.63 524.25L367.77 522.41L366.98 520.73L366.44 519.50L365.44 517.20L364.87 515.80L364.54 514.60L363.79 512.03L364.28 508.94L364.66 506.52L365.30 505.66L366.95 503.11L366.99 501.86L367.61 500.65L368.68 498.57L368.44 496.02L368.27 494.19L367.23 489.95L366.15 485.92L365.53 481.06L365.73 479.16L365.88 477.69L364.82 477.40L363.25 475.75L362.32 472.75L361.35 468.74L360.50 461.56L361.00 459.54L361.58 457.76L362.53 454.76L363.04 453.24L363.72 450.69L364.18 448.69L364.39 447.28L364.71 445.96L364.63 444.87L363.64 443.06L361.64 442.32L359.13 442.35L357.32 442.21L354.47 441.70L352.14 441.23L350.69 439.46L350.62 438.18L350.92 436.59L350.74 435.45L350.52 433.91L349.80 431.97L349.45 430.49L349.13 428.75L348.48 427.72L347.67 426.17L347.01 423.41L346.41 420.53L346.77 419.16L346.95 416.94L346.72 413.82L346.44 411.40L346.25 409.38L346.01 407.84L345.50 405.38L345.13 402.98L344.31 402.27L344.59 399.66L344.36 397.78L343.89 396.37L343.32 395.27L342.26 393.15L341.40 391.19L339.47 389.92L336.40 388.43L334.90 387.58L333.49 387.74L331.71 387.72L330.61 388.17L328.79 388.01Z" data-ward="17" /><path id="ward-10" class="ward" d="M677.79 197.10L675.80 187.42L679.27 182.57L677.41 179.85L675.97 176.60L673.20 173.19L669.05 168.42L668.18 169.11L665.92 170.88L664.93 171.40L660.70 173.61L658.67 174.71L657.73 175.24L655.58 177.14L652.07 181.35L649.67 184.17L647.88 187.03L646.19 190.78L646.75 191.74L649.23 195.96L650.70 198.61L651.06 200.14L650.89 201.47L650.69 203.03L650.07 205.72L649.67 208.69L649.63 210.13L649.49 212.47L648.80 215.15L648.19 217.87L647.84 220.79L647.46 223.02L647.69 226.35L648.44 228.32L649.42 230.88L651.52 235.24L653.25 237.81L654.66 239.72L655.04 241.10L654.52 243.47L653.41 248.38L653.23 249.50L652.52 253.74L652.64 259.14L653.21 261.49L654.19 262.60L655.56 263.78L658.89 264.13L660.37 264.29L665.82 264.30L671.33 263.19L677.46 263.17L677.90 263.13L684.54 263.26L689.47 263.80L691.55 264.60L693.52 265.29L695.70 266.06L698.30 265.78L700.81 265.51L707.04 264.83L710.33 264.48L714.71 263.00L718.86 262.32L731.17 260.05L744.70 257.56L756.51 255.38L759.52 254.82L759.85 253.67L760.89 248.72L761.90 243.85L763.21 239.40L763.79 238.32L766.37 233.62L768.20 230.26L766.10 228.44L765.30 227.74L764.11 226.85L760.87 224.41L758.36 221.51L755.97 219.09L754.03 217.25L752.22 217.02L750.07 217.04L742.09 215.60L740.45 215.20L738.96 214.84L736.96 214.45L734.03 214.79L731.32 215.03L729.07 214.64L727.83 212.20L727.09 210.37L725.96 208.19L724.48 206.87L723.36 205.35L721.69 204.07L719.68 202.59L713.19 199.63L708.78 197.69L705.48 197.70L700.30 198.09L696.69 198.23L692.18 201.22L690.01 202.02L688.72 202.20L687.23 201.95L685.46 201.60L683.04 201.91L681.14 202.40L678.42 203.04L677.79 197.10Z" data-ward="10" /><path id="ward-20" class="ward" d="M128.00 158.30L126.12 157.82L124.83 156.73L124.39 155.51L123.80 151.55L122.54 148.15L121.06 144.69L120.01 143.39L118.65 142.88L116.38 142.96L114.67 143.01L112.82 143.48L110.48 144.20L107.55 146.31L106.19 147.67L102.96 152.81L101.60 155.02L99.73 158.17L98.89 159.24L97.23 160.27L94.06 160.15L89.22 159.30L83.64 158.61L80.09 157.83L77.00 158.33L78.63 159.73L79.53 160.50L81.54 162.01L83.55 164.17L85.45 166.10L84.87 171.96L83.60 177.18L83.13 179.10L82.86 183.37L82.12 187.80L81.94 191.87L81.38 193.77L80.93 195.27L81.20 196.73L83.04 200.13L84.71 203.23L85.96 205.55L86.93 207.34L89.26 210.71L90.04 212.17L91.04 214.37L91.92 216.26L94.91 222.69L94.76 223.78L93.98 230.54L93.79 232.17L93.64 239.96L93.16 242.80L92.45 247.16L91.51 252.89L82.66 261.45L79.38 264.62L75.05 267.16L77.02 269.61L67.53 281.44L66.10 281.88L55.22 274.80L48.08 278.18L53.14 281.22L54.48 280.74L63.29 289.20L58.32 292.25L54.87 291.09L51.00 286.04L43.43 279.79L41.94 282.53L40.17 280.80L38.32 280.87L37.68 282.01L38.89 284.74L38.33 287.03L35.08 286.59L28.60 287.09L23.56 290.78L21.33 291.42L20.05 293.97L21.56 298.09L17.32 302.60L11.80 300.09L10.64 299.46L9.65 298.92L7.39 298.68L3.52 301.51L1.86 304.64L1.65 306.68L3.22 309.54L0.00 311.29L1.84 320.61L3.06 321.95L15.40 323.48L16.97 326.13L18.88 327.01L16.95 328.65L10.78 341.32L10.15 343.28L8.78 343.95L5.57 345.51L4.73 357.06L25.62 363.62L19.75 367.03L7.58 367.70L6.43 373.49L5.83 376.54L6.28 380.33L4.94 380.38L4.89 383.19L8.47 383.32L11.23 385.27L11.61 386.38L11.38 387.63L10.59 389.78L11.91 394.96L11.49 397.81L12.16 398.93L11.57 400.60L10.64 403.22L11.71 404.56L13.22 406.44L15.45 406.85L18.58 407.43L20.83 409.28L21.81 410.21L22.88 411.23L23.71 412.02L28.39 413.03L31.89 413.78L33.72 413.41L34.87 414.12L37.30 415.64L41.70 417.44L50.48 418.09L60.61 418.84L64.26 421.11L68.19 423.57L70.54 425.21L72.43 426.59L74.98 428.46L77.99 428.51L81.26 427.64L84.76 427.45L88.67 424.78L89.77 424.03L93.58 420.50L95.32 418.74L97.18 417.38L99.70 415.50L100.91 415.06L102.77 414.53L105.33 413.95L106.82 413.69L110.86 413.38L114.59 411.26L116.08 411.51L117.56 411.78L119.67 412.44L121.66 412.68L124.33 413.02L124.15 409.32L124.48 406.67L124.79 405.30L120.46 398.50L114.95 389.81L112.12 384.61L109.71 382.18L105.40 381.24L104.26 380.38L104.41 376.04L104.44 372.48L107.59 371.68L107.77 368.60L108.03 367.14L109.66 366.94L111.68 366.61L115.03 366.19L117.20 364.22L119.31 362.32L120.43 360.55L120.72 358.46L122.21 358.01L124.12 357.68L123.24 354.00L122.57 349.78L122.48 346.67L122.26 340.59L122.22 339.29L121.97 336.75L121.91 333.68L121.70 330.08L121.14 326.28L120.07 321.86L120.64 320.91L121.70 318.26L124.34 314.38L127.45 311.45L129.49 308.92L130.80 307.46L132.99 303.40L134.06 301.44L135.29 299.17L135.80 296.14L136.36 291.71L136.22 280.93L138.25 280.96L139.88 280.11L141.16 275.57L141.95 273.89L143.71 270.10L146.18 268.79L149.15 268.42L150.99 268.43L152.47 268.02L151.66 266.69L148.56 261.94L147.85 260.85L145.84 257.08L143.71 251.30L141.11 245.72L139.95 241.98L140.18 239.24L141.01 236.84L142.24 233.02L142.75 230.89L143.72 227.44L145.35 224.91L146.20 222.34L147.06 219.55L146.91 215.76L146.92 211.96L147.23 207.37L147.70 204.84L149.76 199.33L150.81 196.53L151.88 192.16L152.09 187.81L152.72 183.63L153.86 180.53L155.32 178.53L156.66 176.97L157.61 175.33L158.41 173.38L159.32 171.15L161.93 166.53L163.83 163.61L164.57 162.26L163.77 159.10L162.18 155.65L160.48 152.55L159.07 151.47L156.74 150.91L153.52 150.73L152.08 151.16L150.51 154.11L147.79 156.76L145.10 158.07L143.42 158.75L141.28 158.66L138.65 158.55L133.93 158.51L132.33 158.74L128.00 158.30Z" data-ward="20" /><path id="ward-12" class="ward" d="M642.94 290.64L641.36 285.80L639.76 285.94L638.60 286.87L637.98 288.45L636.29 288.85L633.29 289.41L630.33 291.38L629.04 292.02L627.01 291.87L625.35 292.44L623.56 292.66L622.30 293.22L620.47 294.87L617.71 297.08L615.06 295.69L613.41 296.60L611.19 297.39L609.08 297.83L606.76 297.95L605.23 298.05L603.03 298.07L601.15 298.23L598.55 298.04L597.02 297.72L595.19 297.48L594.36 296.56L592.75 297.28L590.43 297.29L584.20 297.66L579.59 297.92L575.64 300.59L574.55 301.13L571.63 302.49L569.17 303.72L566.16 305.25L563.59 306.51L561.36 307.41L558.66 308.44L555.61 309.08L554.17 309.37L552.58 309.80L552.48 311.06L552.04 314.11L551.27 317.98L549.36 323.75L547.40 327.87L549.86 328.63L551.52 328.73L552.69 328.80L554.89 328.79L559.16 329.93L562.98 330.98L566.19 332.38L568.26 333.44L569.62 334.96L571.71 336.46L573.57 337.36L575.94 338.25L578.02 339.78L580.22 342.15L582.49 344.39L583.95 346.94L585.34 350.05L586.19 351.68L588.07 352.81L589.66 353.26L591.77 357.40L592.88 359.83L593.13 362.54L592.97 365.17L592.73 367.18L593.02 368.33L594.07 369.75L595.10 370.86L596.39 372.25L596.24 374.08L596.05 376.38L596.02 378.46L596.97 381.18L598.65 388.11L602.48 387.81L604.96 385.11L611.00 384.06L612.57 382.94L614.77 381.43L618.26 379.73L619.77 379.02L621.33 379.39L622.70 380.92L626.07 381.75L629.03 380.76L631.70 380.73L633.07 380.22L635.44 380.57L636.83 381.02L638.00 381.97L639.07 382.35L640.50 383.36L642.93 384.53L646.31 387.84L646.77 388.21L646.80 388.23L649.84 390.59L652.57 392.40L652.80 392.46L654.39 393.08L657.74 391.61L659.01 390.89L660.81 390.28L664.60 385.93L667.74 382.33L671.13 379.53L672.50 377.30L673.39 375.79L673.49 374.16L673.60 371.64L672.94 368.82L672.64 367.55L671.85 364.21L670.85 359.94L669.59 355.58L668.23 350.85L668.91 346.06L669.34 343.02L669.67 340.70L663.56 328.90L657.16 322.15L653.56 318.35L650.86 312.19L649.99 310.03L649.38 308.50L645.44 298.30L644.71 296.07L642.94 290.64Z" data-ward="12" /><path id="ward-3" class="ward" d="M416.46 150.89L415.50 150.44L412.51 149.05L410.68 148.45L409.55 147.04L408.34 144.49L407.77 143.30L405.39 141.27L401.17 137.69L400.79 136.10L399.70 133.97L396.99 128.64L395.74 124.09L394.02 123.26L392.29 121.05L390.84 119.20L390.32 117.87L388.67 115.77L387.34 114.08L385.58 112.17L384.60 111.11L381.92 108.19L379.87 105.07L379.46 103.08L381.28 101.48L381.49 100.18L380.89 99.10L379.04 97.16L377.39 95.44L374.83 92.81L373.29 88.41L372.29 86.21L372.35 82.02L369.33 78.73L368.42 77.74L367.60 76.53L365.74 74.06L364.14 69.31L364.20 68.01L364.97 65.25L365.44 63.54L366.01 61.50L366.41 60.48L367.56 58.30L368.54 56.45L371.48 52.63L374.06 50.30L374.96 49.48L376.98 47.38L379.14 44.60L381.00 42.19L382.04 40.85L383.40 39.19L385.36 36.76L386.86 34.93L386.09 33.00L385.47 31.42L384.65 29.36L382.71 25.58L381.43 24.63L379.42 23.15L377.97 21.94L375.55 20.92L373.78 22.51L371.46 23.14L370.70 24.18L369.67 25.99L369.26 27.18L369.31 31.37L369.49 32.57L369.31 33.93L369.12 35.34L369.54 36.69L370.39 38.05L370.71 40.27L370.59 41.82L371.11 44.36L369.26 45.67L366.48 46.93L363.95 49.20L363.83 51.17L363.22 54.07L362.43 55.19L361.15 58.07L360.20 60.26L358.78 60.38L356.69 61.22L356.21 62.43L356.01 65.66L356.82 68.58L358.31 71.36L358.94 72.56L359.79 74.14L358.23 75.89L356.87 77.57L355.40 78.43L353.36 78.83L351.84 79.12L347.99 79.86L345.30 80.51L342.07 81.29L334.70 82.11L329.01 83.82L326.84 84.58L323.34 85.85L322.36 86.26L319.81 87.60L319.03 88.85L317.93 90.62L316.38 92.11L315.32 93.59L314.06 95.50L313.11 97.01L312.44 97.93L311.56 98.93L310.52 100.11L309.49 101.00L308.36 101.97L307.36 102.75L305.17 104.53L303.17 106.84L302.30 107.84L301.66 108.69L300.87 109.69L300.02 110.72L299.24 111.66L298.28 113.20L297.17 114.15L296.25 115.00L294.52 116.40L292.13 117.60L290.59 118.34L289.22 119.01L287.09 120.08L286.32 120.90L284.79 122.52L283.87 123.50L280.61 128.19L281.83 129.55L283.29 130.61L284.18 131.25L285.25 132.07L286.02 133.53L287.50 136.70L289.23 140.05L290.91 142.49L292.80 146.41L294.89 151.56L296.29 154.32L297.36 157.07L298.76 158.22L299.82 158.70L300.87 159.18L302.54 159.94L303.37 161.21L303.63 163.44L304.04 166.48L304.65 168.42L305.76 171.31L307.27 172.68L309.36 174.61L311.34 176.08L312.48 177.17L314.18 178.93L316.37 180.25L318.28 182.00L319.08 183.60L319.90 186.59L320.49 187.71L321.98 188.96L324.74 189.46L328.84 190.34L331.45 191.03L332.95 191.41L334.39 191.78L336.82 192.34L339.64 195.08L340.42 195.81L343.36 198.53L344.72 200.46L346.62 203.15L348.52 205.84L349.46 205.31L352.35 203.67L354.59 202.45L355.76 200.66L357.04 199.57L357.99 198.74L358.99 197.70L359.74 196.81L360.43 193.84L362.43 194.68L363.58 195.28L367.20 192.86L369.85 192.84L373.03 192.43L374.39 192.25L376.23 191.69L376.79 187.12L378.42 186.46L380.53 185.05L381.52 184.16L383.45 181.33L386.05 180.15L387.50 180.13L390.64 179.58L391.92 179.25L394.67 175.89L399.98 174.47L406.34 173.84L410.18 172.27L412.99 170.58L413.91 169.72L414.93 168.76L417.00 166.83L418.55 164.07L420.46 161.63L420.53 159.15L420.32 156.88L418.97 155.05L419.00 153.77L419.05 151.08L418.55 150.76L417.48 151.37L416.46 150.89Z" data-ward="3" /><path id="ward-7" class="ward" d="M714.73 64.64L714.99 62.44L712.63 59.96L709.62 58.19L709.23 60.13L708.77 63.09L708.23 65.02L707.72 67.49L706.33 67.58L703.72 67.76L700.25 67.15L698.99 66.93L696.01 66.74L694.61 66.60L690.53 66.50L687.06 66.33L683.46 67.01L681.78 66.70L679.65 66.31L676.03 65.43L673.60 65.26L670.91 66.22L669.66 66.66L667.95 67.83L666.25 69.80L665.79 71.97L666.17 74.34L666.34 75.43L666.61 77.12L667.02 79.68L667.68 81.78L667.66 83.33L667.49 86.14L667.35 88.58L666.07 93.64L665.72 95.04L665.90 96.93L666.40 98.95L666.69 100.30L666.99 101.67L667.29 102.72L667.26 105.15L666.74 106.50L666.21 107.86L665.57 108.80L664.35 109.95L663.13 111.09L661.03 116.19L659.92 116.88L656.43 116.75L654.78 115.58L653.01 114.02L651.44 113.20L648.59 112.80L646.38 114.23L645.90 115.76L645.26 117.79L644.62 118.79L643.28 119.76L641.81 120.82L641.56 122.57L643.33 123.95L644.58 124.99L646.87 126.64L648.59 127.96L649.55 128.92L651.09 130.44L651.10 132.80L650.32 133.72L648.52 135.85L646.44 136.51L645.57 137.31L645.76 138.54L646.83 140.92L646.94 143.22L648.13 147.66L650.58 149.06L652.62 150.45L653.97 152.09L654.85 151.41L656.20 150.37L658.14 148.79L659.74 149.65L661.25 149.10L664.13 149.83L665.42 150.86L666.89 149.01L667.52 147.76L669.62 148.84L672.88 150.71L676.63 152.82L682.14 156.36L679.56 158.09L677.30 160.26L674.81 163.26L673.38 164.58L672.13 165.74L669.05 168.42L673.20 173.19L675.97 176.60L677.41 179.85L679.27 182.57L675.80 187.42L677.79 197.10L678.42 203.04L681.14 202.40L683.04 201.91L685.46 201.60L687.23 201.95L688.72 202.20L690.01 202.02L692.18 201.22L696.69 198.23L700.30 198.09L705.48 197.70L708.78 197.69L713.19 199.63L719.68 202.59L721.69 204.07L723.36 205.35L724.48 206.87L725.96 208.19L727.09 210.37L727.83 212.20L729.07 214.64L731.32 215.03L734.03 214.79L736.96 214.45L738.96 214.84L740.45 215.20L742.09 215.60L750.07 217.04L752.22 217.02L754.03 217.25L755.97 219.09L758.36 221.51L760.87 224.41L764.11 226.85L765.30 227.74L766.10 228.44L768.20 230.26L769.52 227.98L771.24 225.27L771.89 224.24L772.67 223.00L773.54 221.63L774.51 220.10L776.36 217.26L778.21 214.42L779.97 213.09L781.80 211.72L785.25 211.11L786.53 211.11L789.92 211.12L796.86 213.97L806.90 218.11L811.68 220.51L813.33 222.38L814.30 223.48L816.07 224.13L818.43 225.01L820.11 225.17L823.57 225.49L826.38 225.17L828.76 223.89L830.55 222.92L832.66 222.35L834.78 221.77L835.97 221.02L838.91 219.19L840.67 218.90L841.77 219.61L842.83 216.81L843.78 215.30L846.02 212.83L847.69 210.50L847.96 208.81L847.05 207.44L845.75 205.39L845.02 203.44L844.30 200.82L844.08 198.78L843.62 196.88L842.82 194.04L842.17 191.41L842.07 187.54L843.14 184.59L843.29 182.90L844.85 179.58L845.93 177.73L846.31 176.60L846.30 175.54L844.89 173.64L843.51 172.07L842.60 170.59L842.01 167.70L842.24 164.97L842.73 161.48L843.45 159.11L841.35 156.46L840.12 154.61L839.56 152.59L839.02 149.34L838.23 146.07L838.30 143.18L837.71 138.72L835.93 133.10L833.61 129.06L835.15 127.90L836.36 129.27L837.37 130.90L841.26 133.02L843.01 131.31L843.20 129.44L842.92 126.31L839.49 119.76L839.39 117.07L839.31 115.11L841.83 109.54L844.58 105.26L847.92 102.98L853.62 98.73L855.75 97.15L857.84 95.88L860.55 95.11L857.14 94.60L849.87 91.20L843.75 85.16L842.87 84.26L840.97 82.27L840.01 81.30L836.25 79.71L833.65 79.19L829.51 79.07L824.29 78.76L818.16 78.78L816.94 76.66L815.89 74.39L814.80 71.19L813.81 69.37L812.47 66.46L810.54 62.94L809.66 61.36L808.72 60.05L807.66 59.35L806.14 58.94L804.77 59.43L803.38 60.19L801.32 61.19L799.89 62.29L798.67 63.07L797.52 63.51L793.48 65.50L790.49 69.22L784.65 72.53L779.83 77.28L777.96 80.45L775.01 87.93L772.81 94.88L770.49 99.52L769.07 104.17L768.51 106.28L767.24 116.96L764.98 119.91L758.73 125.47L757.78 129.62L756.93 131.96L756.04 132.69L752.44 135.67L746.82 135.65L745.41 135.93L744.53 133.86L742.76 133.90L740.59 134.08L738.53 134.25L737.12 134.11L730.62 132.86L726.26 132.76L724.56 132.68L722.50 133.58L720.41 134.84L717.70 135.41L716.11 135.69L714.77 135.59L713.05 134.33L711.36 133.22L710.67 132.22L709.23 131.38L707.88 131.52L705.65 131.75L703.21 132.14L701.17 133.00L698.69 134.49L699.57 130.97L700.20 129.39L700.87 128.06L701.66 126.26L702.21 125.01L702.62 123.81L702.57 120.94L699.92 119.08L696.81 115.27L694.18 110.09L694.06 104.78L694.47 101.54L695.43 100.29L697.57 100.01L699.53 99.46L702.97 99.19L706.46 97.86L708.04 98.09L709.38 98.73L710.69 99.52L716.31 96.36L716.25 91.88L714.52 86.84L712.82 82.04L712.76 77.95L712.61 73.91L711.76 72.14L710.25 70.37L713.79 69.32L714.73 64.64Z" data-ward="7" /><path id="ward-1" class="ward" d="M314.77 5.48L311.04 4.32L303.39 1.94L299.54 0.74L296.45 0.59L291.10 0.32L288.14 0.17L284.68 0.00L281.80 6.15L279.09 11.96L278.29 14.19L276.32 14.26L274.91 15.79L276.29 18.18L277.22 22.34L277.05 25.02L277.27 29.03L276.85 30.38L275.81 32.34L275.86 36.48L275.92 40.62L275.20 41.81L275.37 43.47L276.27 44.83L276.78 46.97L274.82 50.08L273.95 51.46L272.85 55.23L272.37 57.86L272.08 59.45L270.94 61.02L270.87 62.66L270.15 64.86L267.46 66.57L264.85 72.93L263.58 73.06L262.30 75.01L261.37 76.31L260.12 78.08L259.48 83.43L258.68 85.08L258.76 87.10L258.84 88.96L259.64 92.26L260.14 95.01L261.48 96.20L262.30 99.95L263.16 103.86L261.01 104.51L258.25 105.31L257.22 105.73L255.40 105.97L253.21 107.93L252.52 108.87L251.01 110.07L249.48 111.28L250.34 112.81L247.89 114.24L244.50 116.22L242.61 117.86L242.30 119.17L241.30 120.04L241.04 125.14L242.18 126.92L241.70 134.80L241.62 136.17L241.46 138.79L240.51 140.04L239.34 141.34L239.92 143.73L239.13 145.20L239.18 146.76L239.24 147.89L239.33 149.37L239.40 150.52L239.72 152.37L239.70 153.84L239.29 155.45L239.17 157.21L240.16 160.21L241.16 163.23L240.86 165.34L238.79 166.90L234.62 163.50L231.91 162.02L229.90 161.30L228.23 160.70L225.39 159.67L223.69 158.15L220.02 157.06L217.55 155.82L214.98 153.44L210.62 153.80L208.80 153.67L207.29 151.36L205.73 150.38L205.22 149.03L204.00 145.80L203.46 144.53L199.61 142.03L195.03 142.12L193.25 141.14L190.96 140.93L186.60 140.16L186.31 137.96L183.86 134.64L179.76 130.86L180.73 128.09L180.36 126.74L179.65 124.15L178.63 123.07L177.11 121.47L176.23 118.25L176.08 117.09L175.89 115.67L175.05 114.95L172.53 114.47L167.99 112.92L165.96 112.23L164.16 111.22L162.35 110.21L159.92 109.20L158.58 107.43L157.25 105.65L155.52 105.02L151.39 103.52L148.21 103.20L146.39 105.40L141.50 106.91L140.56 105.85L138.26 104.18L137.68 102.50L134.49 99.78L132.39 98.00L130.11 98.77L126.74 98.23L124.45 97.86L122.20 97.36L120.24 96.46L117.16 95.04L114.38 93.75L111.66 91.66L108.51 89.23L106.26 86.49L101.61 85.23L100.24 83.94L98.88 83.38L94.20 81.43L91.87 79.34L91.03 78.22L90.21 77.14L86.78 74.02L85.12 72.80L83.46 71.58L82.05 70.79L80.34 69.82L78.71 68.61L77.07 67.40L76.27 66.36L75.48 65.34L74.42 65.54L73.19 64.85L71.98 63.99L71.10 63.37L69.65 61.99L68.60 61.00L67.81 62.11L68.88 65.87L62.59 67.26L57.44 67.00L52.27 66.74L50.17 62.60L49.44 68.72L48.22 72.64L46.89 76.92L48.64 77.73L48.98 80.95L49.82 84.14L50.42 85.99L50.43 89.83L50.44 93.28L50.44 94.47L51.54 97.13L53.00 100.68L55.14 103.10L55.91 104.03L57.67 105.82L58.59 107.24L59.35 109.67L60.30 111.63L60.36 113.54L60.44 115.97L59.15 118.41L57.91 119.88L56.73 121.54L55.93 122.66L55.90 123.97L55.84 127.19L55.31 128.99L54.93 130.27L53.71 131.38L52.30 131.82L51.97 132.87L51.36 134.76L52.09 137.39L51.93 138.56L53.19 140.46L53.87 142.09L54.97 144.76L56.63 146.55L58.29 148.27L59.98 149.73L62.19 151.55L63.13 152.05L66.54 153.87L68.73 154.71L70.84 155.51L76.00 157.48L77.00 158.33L80.09 157.83L83.64 158.61L89.22 159.30L94.06 160.15L97.23 160.27L98.89 159.24L99.73 158.17L101.60 155.02L102.96 152.81L106.19 147.67L107.55 146.31L110.48 144.20L112.82 143.48L114.67 143.01L116.38 142.96L118.65 142.88L120.01 143.39L121.06 144.69L122.54 148.15L123.80 151.55L124.39 155.51L124.83 156.73L126.12 157.82L128.00 158.30L132.33 158.74L133.93 158.51L138.65 158.55L141.28 158.66L143.42 158.75L145.10 158.07L147.79 156.76L150.51 154.11L152.08 151.16L153.52 150.73L156.74 150.91L159.07 151.47L160.48 152.55L162.18 155.65L163.77 159.10L164.57 162.26L163.83 163.61L161.93 166.53L159.32 171.15L158.41 173.38L157.61 175.33L156.66 176.97L155.32 178.53L153.86 180.53L152.72 183.63L152.09 187.81L151.88 192.16L150.81 196.53L149.76 199.33L147.70 204.84L147.23 207.37L146.92 211.96L146.91 215.76L147.06 219.55L146.20 222.34L145.35 224.91L143.72 227.44L142.75 230.89L142.24 233.02L141.01 236.84L140.18 239.24L139.95 241.98L141.11 245.72L143.71 251.30L145.84 257.08L147.85 260.85L148.56 261.94L151.66 266.69L152.47 268.02L153.24 268.81L154.49 270.91L155.64 273.88L156.46 276.77L158.51 280.33L159.69 282.28L160.80 282.37L162.11 282.06L164.13 281.57L164.85 280.70L165.75 279.87L165.93 278.66L167.16 276.95L167.99 275.35L169.15 272.85L169.86 270.58L170.67 268.74L171.25 267.01L171.19 265.41L170.50 263.65L170.31 262.48L170.16 260.82L169.74 258.97L169.33 257.63L169.52 256.57L168.76 254.32L168.19 251.18L167.93 250.00L167.90 248.50L168.06 247.42L168.20 246.21L168.09 244.66L168.11 243.08L168.45 240.32L168.88 239.11L169.97 234.19L170.16 230.39L169.97 226.01L170.29 222.98L171.27 220.84L172.99 217.98L173.78 215.27L173.19 214.06L173.45 212.39L174.11 211.09L174.99 209.94L176.80 207.50L177.51 206.39L178.13 204.25L179.91 201.88L181.52 198.58L182.51 196.96L184.13 196.03L185.37 195.07L186.99 193.72L188.84 192.64L191.20 192.73L193.36 193.57L195.25 193.38L197.20 192.52L198.77 191.68L201.13 189.44L202.66 187.19L203.24 184.58L203.60 182.86L204.62 180.94L205.61 179.42L206.75 178.45L208.06 177.19L209.38 176.39L210.91 176.62L212.30 176.85L213.72 177.45L215.09 177.48L215.83 176.67L216.64 175.52L217.57 173.47L218.25 171.35L219.00 169.99L221.11 168.04L222.37 166.54L224.16 167.14L225.20 168.10L226.83 169.05L228.92 169.51L230.87 169.42L232.02 168.58L234.07 168.61L239.58 168.29L243.16 167.54L245.01 170.55L246.48 172.76L247.85 173.91L248.68 176.36L249.01 178.66L248.49 182.58L248.21 186.05L249.93 188.43L250.44 190.02L251.49 191.02L252.45 192.85L253.33 195.63L254.33 199.03L256.03 201.32L257.23 201.73L260.09 202.52L264.56 205.39L266.91 207.69L268.06 208.41L269.07 207.06L270.55 205.84L271.50 204.13L272.51 201.67L274.35 199.82L276.26 199.03L277.17 197.23L279.54 196.30L280.49 194.94L283.22 192.99L285.87 191.26L288.10 191.00L290.50 191.33L292.11 190.33L294.33 190.59L297.58 191.55L299.67 192.05L300.74 192.93L303.95 190.37L306.49 187.80L308.86 188.20L312.29 188.12L315.46 189.13L317.04 189.42L318.46 189.07L320.49 187.71L319.90 186.59L319.08 183.60L318.28 182.00L316.37 180.25L314.18 178.93L312.48 177.17L311.34 176.08L309.36 174.61L307.27 172.68L305.76 171.31L304.65 168.42L304.04 166.48L303.63 163.44L303.37 161.21L302.54 159.94L300.87 159.18L299.82 158.70L298.76 158.22L297.36 157.07L296.29 154.32L294.89 151.56L292.80 146.41L290.91 142.49L289.23 140.05L287.50 136.70L286.02 133.53L285.25 132.07L284.18 131.25L283.29 130.61L281.83 129.55L280.61 128.19L283.87 123.50L284.79 122.52L286.32 120.90L287.09 120.08L289.22 119.01L290.59 118.34L292.13 117.60L294.52 116.40L296.25 115.00L297.17 114.15L298.28 113.20L299.24 111.66L300.02 110.72L300.87 109.69L301.66 108.69L302.30 107.84L303.17 106.84L305.17 104.53L307.36 102.75L308.36 101.97L309.49 101.00L310.52 100.11L311.56 98.93L312.44 97.93L313.11 97.01L314.06 95.50L315.32 93.59L316.38 92.11L317.93 90.62L319.03 88.85L319.81 87.60L322.36 86.26L323.34 85.85L326.84 84.58L329.01 83.82L334.70 82.11L342.07 81.29L345.30 80.51L347.99 79.86L351.84 79.12L353.36 78.83L355.40 78.43L356.87 77.57L358.23 75.89L359.79 74.14L358.94 72.56L358.31 71.36L356.82 68.58L356.01 65.66L356.21 62.43L356.69 61.22L358.78 60.38L360.20 60.26L361.15 58.07L362.43 55.19L363.22 54.07L363.83 51.17L363.95 49.20L366.48 46.93L369.26 45.67L371.11 44.36L370.59 41.82L370.71 40.27L370.39 38.05L369.54 36.69L369.12 35.34L369.31 33.93L369.49 32.57L369.31 31.37L369.26 27.18L369.67 25.99L370.70 24.18L371.46 23.14L373.78 22.51L375.55 20.92L371.69 17.99L369.08 16.29L366.37 15.69L365.16 15.42L364.00 15.17L362.49 14.83L359.15 14.09L355.52 13.28L351.24 12.74L343.03 12.52L339.23 9.65L336.01 7.22L331.07 5.59L328.92 4.88L326.47 4.07L324.13 4.40L321.69 4.76L320.22 5.47L318.57 6.27L314.77 5.48Z" data-ward="1" /><path id="ward-18" class="ward" d="M286.39 419.59L284.24 419.80L282.09 420.02L280.06 420.01L278.02 420.01L277.16 422.56L276.16 426.24L275.65 427.59L274.00 428.85L270.95 430.78L270.07 434.77L269.38 437.53L269.24 438.96L268.99 440.90L268.75 442.58L268.47 445.21L267.90 447.00L267.97 449.08L268.93 450.49L268.36 453.28L267.58 455.64L266.91 457.36L266.39 458.42L265.67 459.93L264.75 461.43L263.78 463.96L263.53 465.51L263.10 466.80L260.42 469.03L257.75 471.39L255.96 472.72L254.36 473.92L255.09 475.97L256.36 478.08L261.04 483.88L262.82 487.11L265.14 491.65L269.15 498.85L272.42 504.08L269.99 506.04L267.70 506.93L262.63 509.49L261.08 510.03L259.16 511.88L256.43 514.38L254.36 516.09L253.21 517.63L255.39 521.94L256.54 524.21L259.55 527.21L260.40 527.85L261.38 528.60L263.99 528.87L267.63 529.25L270.67 529.60L272.20 529.78L275.31 530.15L278.69 530.55L280.18 530.55L284.86 530.54L288.05 530.53L289.29 530.38L290.83 530.14L292.55 529.89L294.92 529.75L296.54 529.91L299.00 530.14L302.46 531.32L303.73 531.37L305.47 531.44L306.79 531.50L308.49 532.51L309.90 533.14L312.05 534.09L313.92 534.92L316.96 536.26L319.74 537.96L322.21 539.48L323.42 540.23L324.41 540.80L326.30 541.90L328.72 543.30L330.16 543.34L332.80 543.43L335.59 543.51L337.38 543.57L341.37 542.18L344.08 541.23L347.67 539.98L351.96 538.48L353.97 538.66L354.36 539.12L355.27 539.48L358.86 536.63L361.87 537.88L362.50 536.27L363.04 535.11L363.69 531.40L363.90 530.09L364.11 528.49L364.26 527.29L364.42 526.03L364.57 524.82L364.25 522.45L363.19 520.18L360.93 516.69L359.83 513.16L358.03 510.72L356.53 508.75L356.78 507.44L357.04 506.14L357.38 505.06L357.51 502.71L357.52 501.58L357.54 500.20L358.61 498.12L359.68 496.04L364.55 492.28L364.45 490.96L363.32 489.03L361.27 488.11L359.21 487.18L358.50 486.09L358.85 483.83L359.83 482.44L360.09 478.87L359.55 476.50L358.71 473.80L358.37 471.80L358.32 469.28L357.30 469.00L355.81 468.59L354.39 468.19L353.38 467.87L351.81 468.75L350.33 469.10L348.01 468.85L346.40 469.53L344.23 470.97L343.22 471.91L342.72 473.27L343.78 475.05L344.41 477.90L344.36 479.64L344.06 481.80L343.74 484.07L343.91 485.19L345.08 485.27L346.14 485.33L348.90 485.38L351.90 485.42L352.19 488.31L352.10 490.10L352.02 491.90L351.46 494.61L349.53 495.51L347.37 494.92L346.20 494.49L344.79 494.91L344.08 495.70L341.81 497.40L338.09 496.16L336.13 495.66L334.76 495.36L333.19 494.99L330.76 494.31L328.26 493.54L326.23 492.89L324.16 492.32L322.66 490.13L324.27 488.63L326.49 486.56L327.48 485.64L328.41 484.05L327.85 482.66L327.48 481.66L327.04 480.18L327.24 478.83L327.45 477.48L326.55 474.62L326.79 471.30L326.73 469.70L326.87 468.14L326.21 466.36L324.78 466.46L322.97 466.66L321.30 466.70L318.48 468.20L317.29 468.36L315.42 468.33L313.54 468.31L312.07 467.72L310.04 466.90L308.29 465.89L308.33 464.67L307.06 462.37L306.71 460.31L306.83 458.24L307.00 457.17L306.59 455.98L306.57 454.28L307.65 449.36L307.92 448.05L308.55 446.42L309.19 444.79L310.63 443.46L313.44 442.73L315.35 442.06L318.70 442.66L318.71 441.22L318.73 439.78L318.94 438.69L318.14 436.68L316.36 435.08L314.46 433.40L312.85 432.01L312.34 430.97L311.59 429.20L311.04 427.07L310.50 425.16L308.00 423.68L306.51 423.03L304.88 422.32L303.79 421.87L302.54 421.82L301.27 422.04L299.86 422.58L297.97 422.87L296.09 423.15L294.85 422.88L293.61 422.60L292.29 421.99L290.97 421.38L288.70 420.35L286.39 419.59Z" data-ward="18" /><path id="ward-9" class="ward" d="M865.25 102.60L861.59 97.17L860.55 95.11L857.84 95.88L855.75 97.15L853.62 98.73L847.92 102.98L844.58 105.26L841.83 109.54L839.31 115.11L839.39 117.07L839.49 119.76L842.92 126.31L843.20 129.44L843.01 131.31L841.26 133.02L837.37 130.90L836.36 129.27L835.15 127.90L833.61 129.06L835.93 133.10L837.71 138.72L838.30 143.18L838.23 146.07L839.02 149.34L839.56 152.59L840.12 154.61L841.35 156.46L843.45 159.11L842.73 161.48L842.24 164.97L842.01 167.70L842.60 170.59L843.51 172.07L844.89 173.64L846.30 175.54L846.31 176.60L845.93 177.73L844.85 179.58L843.29 182.90L843.14 184.59L842.07 187.54L842.17 191.41L842.82 194.04L843.62 196.88L844.08 198.78L844.30 200.82L845.02 203.44L845.75 205.39L847.05 207.44L847.96 208.81L847.69 210.50L846.02 212.83L843.78 215.30L842.83 216.81L841.77 219.61L844.60 219.91L846.38 220.86L848.79 220.83L851.27 220.80L855.52 220.67L861.93 222.71L865.25 225.38L867.68 227.54L871.49 230.92L877.98 235.19L881.19 237.31L886.63 238.97L890.36 239.04L898.06 239.72L902.61 239.59L903.46 232.92L903.95 230.18L905.05 224.04L905.87 215.50L904.35 213.43L903.20 211.55L903.69 210.35L903.90 209.12L904.73 207.76L906.42 207.18L908.64 204.25L909.04 201.07L909.46 199.76L909.64 198.56L910.43 197.59L911.22 196.63L912.43 196.66L913.82 197.17L917.70 198.60L922.39 200.34L924.73 201.53L927.31 202.12L929.22 201.74L932.51 200.02L936.62 198.46L939.40 196.15L940.36 194.79L941.92 192.61L942.60 191.63L945.54 190.78L945.76 190.74L945.97 190.72L947.07 191.11L947.09 191.12L948.25 191.51L948.33 191.54L948.94 191.80L949.03 191.84L949.82 192.09L950.12 192.14L952.06 192.95L953.74 192.27L956.46 191.18L960.64 189.57L962.83 188.72L964.53 187.30L965.99 185.67L968.51 180.69L969.69 178.36L970.89 173.86L974.71 171.64L977.46 170.03L979.42 170.08L981.21 169.45L983.35 169.34L984.47 169.81L989.99 169.44L991.45 169.34L993.34 168.99L996.32 167.50L996.29 165.80L996.17 164.53L995.82 163.14L995.20 161.14L994.63 159.74L995.25 157.62L995.29 157.49L995.91 157.23L996.07 157.23L996.65 157.26L997.68 157.62L997.87 157.70L998.85 157.20L996.81 156.25L996.23 156.32L995.66 156.40L994.43 157.00L993.09 155.76L991.60 154.13L990.25 153.02L988.40 151.39L986.64 150.14L979.92 146.33L977.68 144.32L976.62 142.63L975.52 140.98L973.60 137.78L970.73 136.09L968.86 134.96L966.80 133.55L965.19 132.18L963.74 130.90L962.35 129.62L961.12 128.72L962.25 127.35L961.91 124.50L961.26 120.80L956.80 120.17L952.46 120.73L949.92 117.38L948.57 114.53L947.96 110.70L949.15 108.40L949.12 105.01L948.73 99.44L947.62 97.30L944.17 100.08L942.80 101.13L941.75 103.23L941.11 106.47L940.42 108.22L938.09 109.29L934.73 108.85L930.27 107.96L927.47 107.96L923.52 108.41L920.00 110.11L916.93 112.41L914.37 114.89L913.25 117.24L911.77 119.94L910.15 122.19L908.23 124.72L906.18 126.38L903.20 127.63L900.01 128.91L897.22 129.98L894.99 129.83L893.64 130.09L890.53 128.60L887.24 126.87L884.80 125.99L882.28 122.64L880.38 118.44L879.57 116.67L878.85 115.73L877.74 114.45L876.33 113.64L875.28 112.12L874.59 110.54L874.49 108.82L874.44 106.34L873.72 104.50L871.36 104.13L867.79 104.13L865.25 102.60Z" data-ward="9" /><path id="ward-6" class="ward" d="M559.39 158.30L557.47 157.30L555.85 156.90L553.45 154.65L551.90 153.39L549.10 150.66L547.55 149.04L546.03 148.18L543.62 147.20L540.32 142.82L538.50 140.36L537.83 139.19L535.89 140.64L533.96 141.17L531.43 141.66L527.80 142.62L525.26 143.79L524.09 144.77L521.89 146.73L520.24 148.76L518.56 151.08L517.55 152.96L517.12 154.86L517.04 156.53L517.26 157.98L517.67 159.94L518.07 161.61L517.91 163.50L517.64 165.79L517.10 167.25L516.33 168.54L515.64 169.50L514.59 170.77L513.35 172.26L512.02 173.91L511.25 175.35L510.62 177.04L510.29 178.67L510.14 180.08L510.15 181.52L510.40 184.31L510.42 185.89L510.59 187.93L511.04 189.33L511.96 190.57L512.76 191.96L514.33 193.91L516.75 195.47L518.13 196.45L520.09 197.61L521.84 198.52L523.55 199.60L524.84 200.70L526.45 201.83L528.17 202.90L529.13 204.79L529.67 205.82L530.46 207.00L532.17 208.91L533.20 209.61L534.06 210.45L534.99 211.41L535.84 212.95L536.99 214.06L538.36 215.30L540.31 216.74L541.08 218.15L541.73 219.02L542.52 219.84L543.51 221.08L544.31 222.65L544.97 223.50L546.06 224.13L547.52 224.75L548.65 225.24L551.78 225.54L553.87 223.58L554.95 222.62L556.69 224.20L558.55 226.34L560.74 226.33L564.31 225.64L569.76 225.08L571.48 222.86L572.84 221.64L574.06 219.87L574.56 218.63L576.24 220.38L578.57 223.87L580.20 226.54L581.78 227.47L583.26 225.86L585.54 225.01L588.67 223.91L592.51 222.95L595.44 222.14L597.00 221.74L599.76 221.24L602.50 221.35L603.65 221.18L605.89 220.52L607.05 219.77L608.49 218.67L609.53 217.35L610.19 215.51L611.03 212.75L612.08 210.35L613.64 208.14L616.55 205.26L617.15 203.42L618.53 200.58L619.99 199.10L622.33 198.15L623.85 198.43L624.73 199.21L626.02 201.28L627.35 203.41L628.46 205.04L630.13 206.87L632.11 207.64L634.71 207.17L637.34 205.41L638.74 203.52L639.92 200.17L641.06 195.51L642.11 188.76L642.06 184.93L641.99 180.36L642.70 176.97L643.54 174.28L644.52 172.35L645.77 169.90L646.84 167.55L647.55 166.02L649.38 163.28L650.69 162.08L653.37 159.83L654.70 157.21L655.41 155.60L655.45 154.22L653.97 152.09L652.62 150.45L650.58 149.06L648.13 147.66L648.50 149.44L647.43 153.99L645.00 155.06L643.68 158.46L642.32 159.64L639.28 160.81L635.91 162.88L633.59 163.03L632.50 161.28L630.77 159.44L629.04 157.59L625.86 156.43L624.12 158.12L622.99 160.18L621.18 159.78L616.35 158.71L613.67 158.61L610.91 158.51L607.35 155.94L603.75 153.82L601.26 151.12L597.58 149.10L594.90 147.63L593.56 146.99L592.73 145.27L591.46 142.97L589.03 143.04L586.51 144.52L584.12 145.17L579.69 146.82L576.89 147.15L574.90 148.01L572.97 148.37L570.86 150.24L568.03 152.20L566.88 157.59L564.58 157.26L562.94 157.72L561.47 158.87L559.39 158.30Z" data-ward="6" /><path id="ward-14" class="ward" d="M497.13 328.10L495.11 326.12L493.01 327.75L491.60 328.94L489.55 330.97L488.02 332.49L484.83 336.04L483.39 338.33L482.62 339.46L481.05 341.27L479.61 342.52L477.16 343.97L475.09 344.70L473.96 345.07L472.86 345.37L469.77 346.13L468.35 346.32L465.00 346.04L462.02 345.40L458.17 345.64L451.47 344.94L445.02 345.09L441.60 345.29L439.18 345.85L440.11 348.04L441.66 351.32L442.27 352.48L443.18 354.18L443.70 356.26L443.45 359.99L443.47 364.15L443.39 367.14L443.47 369.55L442.57 371.66L442.30 373.85L443.15 376.74L444.60 379.54L446.37 382.26L448.03 384.52L449.24 386.41L449.39 387.52L449.47 389.54L449.39 391.25L449.88 392.90L450.85 396.83L451.22 399.74L451.67 400.93L452.95 401.94L455.64 402.90L457.79 404.12L459.12 404.78L459.89 405.63L460.91 406.94L463.27 407.58L465.62 408.22L467.23 408.42L470.40 408.83L471.87 409.64L474.31 410.97L475.28 411.50L476.41 411.04L478.08 411.42L479.79 411.81L482.06 412.33L483.14 412.16L487.69 415.83L510.57 424.11L518.51 415.25L520.21 413.69L524.86 407.13L526.94 404.74L528.25 402.79L530.29 396.14L533.01 389.52L535.58 382.30L536.01 376.48L536.09 375.37L536.25 374.16L536.92 369.26L537.45 366.72L537.99 364.18L538.07 362.66L538.36 357.35L538.52 347.56L539.68 340.40L539.86 338.89L539.91 335.26L537.48 337.15L536.30 336.85L534.73 336.93L532.79 336.98L530.70 336.27L529.52 335.97L527.38 335.79L524.71 335.88L523.03 333.54L522.30 332.67L521.30 331.95L520.21 330.96L519.57 329.55L519.69 328.31L519.26 326.69L517.20 327.18L513.83 328.06L512.70 328.20L510.47 328.52L508.83 328.67L506.65 329.39L505.64 328.67L504.54 328.10L502.80 327.45L501.20 327.49L500.13 328.10L498.57 329.47L497.13 328.10Z" data-ward="14" /><path id="ward-2" class="ward" d="M321.98 188.96L320.49 187.71L318.46 189.07L317.04 189.42L315.46 189.13L312.29 188.12L308.86 188.20L306.49 187.80L303.95 190.37L300.74 192.93L299.67 192.05L297.58 191.55L294.33 190.59L292.11 190.33L290.50 191.33L288.10 191.00L285.87 191.26L283.22 192.99L280.49 194.94L279.54 196.30L277.17 197.23L276.26 199.03L274.35 199.82L272.51 201.67L271.50 204.13L270.55 205.84L269.07 207.06L268.06 208.41L266.76 209.66L263.73 211.33L262.44 211.49L261.19 210.78L259.82 210.62L258.26 211.40L255.66 212.33L253.06 213.44L250.06 215.00L248.40 216.30L246.57 218.44L245.98 219.81L245.90 220.97L245.79 222.59L245.90 224.30L246.56 227.62L246.69 229.69L247.04 231.04L247.40 232.23L247.80 233.44L246.94 235.79L247.29 242.59L248.70 246.93L248.66 250.90L249.29 254.82L251.44 260.18L252.73 262.99L264.74 263.66L270.72 263.61L274.82 265.18L292.48 271.96L292.36 274.96L292.37 276.32L294.37 277.79L300.78 278.67L304.28 277.99L307.36 274.87L309.29 275.12L310.27 278.55L313.08 289.37L313.76 291.95L314.90 296.29L314.86 299.20L313.34 299.49L310.80 299.97L310.70 301.89L311.96 305.23L313.21 308.66L316.18 319.42L316.96 323.06L317.47 325.41L318.01 327.97L326.53 324.41L326.68 323.06L328.99 316.01L333.98 315.53L336.68 315.56L344.10 314.70L341.57 306.11L344.80 305.83L349.71 305.98L352.96 305.09L354.51 303.85L357.02 304.63L358.29 305.16L361.88 304.63L359.94 294.22L357.88 269.15L356.26 263.02L355.11 261.64L352.27 259.69L350.96 258.12L350.37 255.56L350.55 252.97L351.21 249.87L349.14 245.50L347.09 243.28L346.28 242.40L344.60 239.58L344.92 238.37L347.19 235.04L350.95 228.91L352.76 226.19L353.70 224.70L354.69 222.69L355.03 219.91L353.52 214.57L351.67 210.29L348.52 205.84L346.62 203.15L344.72 200.46L343.36 198.53L340.42 195.81L339.64 195.08L336.82 192.34L334.39 191.78L332.95 191.41L331.45 191.03L328.84 190.34L324.74 189.46L321.98 188.96Z" data-ward="2" /><path id="ward-5" class="ward" d="M464.30 109.35L462.35 108.95L461.24 107.07L460.13 106.06L457.48 104.84L456.47 104.22L453.28 105.41L451.40 105.52L448.67 105.98L448.25 110.05L445.94 113.21L444.10 115.27L442.03 117.59L440.77 119.11L439.70 119.47L437.61 118.53L435.80 117.71L434.85 115.21L430.56 114.21L428.56 115.19L427.87 116.39L426.86 117.30L425.12 119.37L424.60 122.39L425.23 126.12L425.64 128.61L425.87 131.30L424.95 132.60L423.61 133.38L423.25 135.19L420.35 140.09L420.61 142.91L419.28 146.74L418.46 148.81L418.75 149.94L419.05 151.08L419.00 153.77L418.97 155.05L420.32 156.88L420.53 159.15L420.46 161.63L421.14 163.06L422.31 162.57L423.70 162.26L426.53 162.03L427.25 160.37L428.48 159.42L430.91 159.46L431.26 157.74L430.86 148.58L430.98 145.58L434.33 144.89L436.30 144.79L437.41 144.72L438.48 144.02L439.84 143.28L442.10 142.13L444.29 141.09L446.00 140.28L452.47 138.49L455.37 138.14L456.67 137.94L457.87 139.29L459.63 141.85L462.08 142.96L464.39 146.14L467.01 148.42L469.73 150.46L472.74 153.17L475.23 155.12L477.01 156.90L477.07 160.18L477.20 162.79L476.86 164.52L476.26 166.86L476.28 168.27L476.49 171.32L476.86 174.41L477.05 176.34L477.17 177.61L477.70 179.17L475.13 180.35L472.62 180.81L471.22 181.13L469.55 181.87L468.23 182.46L465.98 183.42L463.79 184.00L461.09 184.84L458.84 185.42L459.10 186.93L460.96 191.67L463.22 195.98L464.33 198.05L462.82 200.05L461.75 200.99L460.74 203.60L459.62 204.92L458.10 206.79L457.24 208.33L456.89 209.68L456.49 211.17L456.20 213.15L455.83 214.52L453.43 216.23L451.62 218.05L451.02 219.87L451.86 221.20L451.67 223.82L450.32 226.49L449.56 228.53L446.76 228.71L443.66 228.66L441.47 228.35L439.90 228.43L438.81 230.40L438.47 233.13L438.04 235.58L437.85 236.65L441.73 238.65L437.42 248.09L447.17 251.18L448.33 257.58L449.69 263.15L450.39 267.67L451.27 271.66L452.53 274.81L453.73 276.24L454.55 277.42L455.87 278.74L456.33 279.93L456.55 281.47L456.68 282.61L457.60 285.36L460.19 286.38L461.93 287.08L460.93 290.22L460.22 292.45L459.12 295.93L458.30 298.71L459.30 301.26L459.77 303.46L459.52 305.01L458.84 306.23L456.52 309.64L455.49 311.14L454.09 313.25L452.72 315.14L451.85 317.02L450.86 319.26L448.41 320.37L448.34 322.48L448.08 324.43L447.69 326.52L448.38 330.22L448.87 331.55L449.25 332.56L449.60 334.28L450.08 335.78L450.82 337.17L451.72 338.31L452.87 339.96L451.39 341.08L449.85 341.76L450.12 343.39L451.47 344.94L458.17 345.64L462.02 345.40L465.00 346.04L468.35 346.32L469.77 346.13L472.86 345.37L473.96 345.07L475.09 344.70L477.16 343.97L479.61 342.52L481.05 341.27L482.62 339.46L483.39 338.33L484.83 336.04L488.02 332.49L489.55 330.97L491.60 328.94L493.01 327.75L495.11 326.12L495.83 325.08L498.44 321.95L503.00 318.55L505.64 316.35L506.60 315.55L505.25 313.32L503.07 309.95L501.22 306.29L500.56 302.55L500.43 299.87L502.02 295.84L503.10 286.27L501.94 281.68L498.65 273.57L501.47 268.05L501.85 263.98L498.84 257.17L498.50 251.12L497.23 246.54L498.49 229.37L497.76 216.57L499.77 197.49L499.80 184.38L499.21 173.45L500.85 171.26L501.77 169.52L502.30 168.43L504.83 167.94L506.61 168.03L508.44 169.03L509.47 170.20L511.27 172.57L512.02 173.91L513.35 172.26L514.59 170.77L515.64 169.50L516.33 168.54L517.10 167.25L517.64 165.79L517.91 163.50L518.07 161.61L517.67 159.94L517.26 157.98L517.04 156.53L517.12 154.86L517.55 152.96L518.56 151.08L520.24 148.76L521.89 146.73L524.09 144.77L525.26 143.79L527.80 142.62L531.43 141.66L533.96 141.17L535.89 140.64L537.83 139.19L536.07 137.16L533.64 135.58L531.04 133.53L526.31 132.11L525.11 131.86L522.51 128.74L518.36 128.32L516.32 128.20L515.27 127.77L514.87 126.75L512.82 126.54L510.87 125.07L508.33 123.16L507.03 122.11L507.11 120.69L503.39 118.77L498.77 116.39L496.59 115.26L493.92 113.89L491.86 113.73L490.38 113.62L488.75 113.51L487.72 113.16L486.16 112.60L483.36 110.61L480.73 110.46L476.99 110.24L474.22 110.29L471.85 110.33L470.66 110.36L468.36 110.40L465.85 110.66L464.30 109.35Z" data-ward="5" /><path id="ward-15" class="ward" d="M439.98 318.96L437.94 316.94L435.42 314.86L433.49 314.21L431.87 313.75L430.05 313.62L428.65 313.49L427.35 312.54L426.39 311.63L427.11 308.97L427.85 307.92L428.27 306.33L427.37 304.71L427.44 303.12L428.02 301.55L426.56 299.22L424.28 294.59L423.26 293.53L422.11 292.52L420.34 290.43L418.09 290.21L415.80 290.02L412.23 289.43L410.08 289.07L408.11 288.86L406.48 288.30L404.75 290.95L404.36 292.79L404.34 294.84L404.63 297.12L404.62 299.42L404.19 301.51L403.61 302.92L402.84 304.29L401.91 306.02L401.12 307.83L400.59 309.68L400.52 311.44L400.15 313.51L399.65 315.11L398.90 316.09L397.68 316.82L396.61 317.39L395.98 318.61L395.13 319.94L394.17 317.42L392.93 314.43L391.28 312.61L389.04 311.80L386.05 311.28L382.93 311.28L379.82 311.50L377.24 311.19L375.29 309.92L372.14 308.02L370.66 307.40L367.98 307.17L366.25 307.13L364.83 306.84L361.88 304.63L358.29 305.16L357.02 304.63L354.51 303.85L352.96 305.09L349.71 305.98L344.80 305.83L341.57 306.11L344.10 314.70L336.68 315.56L333.98 315.53L328.99 316.01L326.68 323.06L326.53 324.41L318.01 327.97L319.88 336.89L319.72 340.49L320.16 342.61L322.85 343.10L324.46 343.40L328.26 344.93L331.12 346.32L331.70 347.58L331.92 348.85L332.14 349.98L332.95 352.38L332.88 356.50L332.66 359.77L331.51 362.31L330.79 364.39L330.02 366.13L328.88 367.19L328.20 368.47L327.42 369.57L326.81 370.81L326.30 371.81L325.96 372.83L325.69 374.09L324.63 376.16L322.85 377.55L320.74 377.63L320.05 379.44L319.87 381.16L320.06 384.02L320.54 385.80L321.54 386.15L322.96 386.67L325.72 387.20L326.89 387.53L328.79 388.01L330.61 388.17L331.71 387.72L333.49 387.74L334.90 387.58L336.40 388.43L339.47 389.92L341.40 391.19L342.26 393.15L343.32 395.27L343.89 396.37L344.36 397.78L344.59 399.66L344.31 402.27L345.13 402.98L345.50 405.38L346.01 407.84L346.25 409.38L346.44 411.40L346.72 413.82L346.95 416.94L346.77 419.16L346.41 420.53L347.01 423.41L347.67 426.17L348.48 427.72L349.13 428.75L349.45 430.49L349.80 431.97L350.52 433.91L350.74 435.45L350.92 436.59L350.62 438.18L350.69 439.46L352.14 441.23L354.47 441.70L357.32 442.21L359.13 442.35L361.64 442.32L363.64 443.06L364.63 444.87L364.71 445.96L364.39 447.28L364.18 448.69L363.72 450.69L363.04 453.24L362.53 454.76L361.58 457.76L361.00 459.54L360.50 461.56L361.35 468.74L362.32 472.75L363.25 475.75L364.82 477.40L365.88 477.69L366.66 476.87L367.58 476.14L371.48 473.04L372.95 471.67L374.77 469.97L376.90 461.86L377.22 453.43L377.30 451.41L377.69 448.15L378.11 444.62L378.34 442.70L378.57 438.04L378.99 432.31L378.02 430.40L377.26 427.53L374.80 424.68L374.27 423.27L374.45 421.78L375.92 419.52L377.87 417.65L380.05 415.57L381.62 414.60L384.20 412.72L386.45 412.13L393.56 409.42L395.07 409.09L399.57 407.09L401.21 406.37L401.45 404.95L400.68 403.86L399.56 398.01L399.00 391.84L401.74 392.77L405.73 394.12L408.00 394.94L410.12 396.07L413.80 399.17L418.38 399.64L421.37 399.44L424.13 403.13L427.29 405.00L431.52 406.74L432.30 407.63L432.60 409.14L433.76 410.43L437.60 411.27L438.68 411.66L439.76 411.72L441.74 413.16L443.35 414.12L445.14 415.20L446.75 415.36L448.61 415.56L450.39 414.28L456.06 409.67L458.64 408.49L460.91 406.94L459.89 405.63L459.12 404.78L457.79 404.12L455.64 402.90L452.95 401.94L451.67 400.93L451.22 399.74L450.85 396.83L449.88 392.90L449.39 391.25L449.47 389.54L449.39 387.52L449.24 386.41L448.03 384.52L446.37 382.26L444.60 379.54L443.15 376.74L442.30 373.85L442.57 371.66L443.47 369.55L443.39 367.14L443.47 364.15L443.45 359.99L443.70 356.26L443.18 354.18L442.27 352.48L441.66 351.32L440.11 348.04L439.18 345.85L441.60 345.29L445.02 345.09L451.47 344.94L450.12 343.39L449.85 341.76L451.39 341.08L452.87 339.96L451.72 338.31L450.82 337.17L450.08 335.78L449.60 334.28L449.25 332.56L448.87 331.55L448.38 330.22L447.69 326.52L448.08 324.43L448.34 322.48L448.41 320.37L447.58 319.66L444.67 319.16L443.27 319.18L441.55 319.39L439.98 318.96Z" data-ward="15" /><path id="ward-8" class="ward" d="M850.74 18.43L849.75 17.61L848.34 16.43L846.89 15.22L845.52 14.08L844.10 12.86L842.34 11.35L841.51 10.63L840.68 9.91L838.92 9.16L837.91 8.73L836.56 7.93L835.62 7.36L834.69 7.94L833.69 8.57L832.52 10.72L831.60 12.20L830.69 13.66L829.37 13.80L828.05 13.94L826.94 14.82L825.60 15.87L824.64 16.64L824.19 17.65L823.76 18.64L823.14 20.07L822.30 21.99L822.01 23.12L821.61 24.64L820.81 25.36L820.01 26.09L817.23 25.38L811.66 23.53L809.46 22.48L803.75 19.77L801.02 17.22L798.70 15.06L795.50 15.87L792.30 16.68L789.72 17.49L787.45 18.20L786.11 18.62L785.33 20.18L783.24 21.65L777.95 26.66L776.85 27.23L772.40 29.57L767.61 33.23L764.67 35.48L754.05 35.00L746.78 33.72L740.90 35.49L737.84 39.10L736.78 40.24L733.87 43.31L732.65 44.61L731.53 45.82L730.36 46.70L728.40 49.46L723.97 49.82L722.39 50.01L720.80 50.20L721.10 51.94L720.46 53.31L716.82 53.76L715.09 54.02L710.38 54.28L709.85 56.98L709.62 58.19L712.63 59.96L714.99 62.44L714.73 64.64L713.79 69.32L710.25 70.37L711.76 72.14L712.61 73.91L712.76 77.95L712.82 82.04L714.52 86.84L716.25 91.88L716.31 96.36L710.69 99.52L709.38 98.73L708.04 98.09L706.46 97.86L702.97 99.19L699.53 99.46L697.57 100.01L695.43 100.29L694.47 101.54L694.06 104.78L694.18 110.09L696.81 115.27L699.92 119.08L702.57 120.94L702.62 123.81L702.21 125.01L701.66 126.26L700.87 128.06L700.20 129.39L699.57 130.97L698.69 134.49L701.17 133.00L703.21 132.14L705.65 131.75L707.88 131.52L709.23 131.38L710.67 132.22L711.36 133.22L713.05 134.33L714.77 135.59L716.11 135.69L717.70 135.41L720.41 134.84L722.50 133.58L724.56 132.68L726.26 132.76L730.62 132.86L737.12 134.11L738.53 134.25L740.59 134.08L742.76 133.90L744.53 133.86L745.41 135.93L746.82 135.65L752.44 135.67L756.04 132.69L756.93 131.96L757.78 129.62L758.73 125.47L764.98 119.91L767.24 116.96L768.51 106.28L769.07 104.17L770.49 99.52L772.81 94.88L775.01 87.93L777.96 80.45L779.83 77.28L784.65 72.53L790.49 69.22L793.48 65.50L797.52 63.51L798.67 63.07L799.89 62.29L801.32 61.19L803.38 60.19L804.77 59.43L806.14 58.94L807.66 59.35L808.72 60.05L809.66 61.36L810.54 62.94L812.47 66.46L813.81 69.37L814.80 71.19L815.89 74.39L816.94 76.66L818.16 78.78L824.29 78.76L829.51 79.07L833.65 79.19L836.25 79.71L840.01 81.30L840.97 82.27L842.87 84.26L843.75 85.16L849.87 91.20L857.14 94.60L860.55 95.11L861.59 97.17L865.25 102.60L867.79 104.13L871.36 104.13L873.72 104.50L874.44 106.34L874.49 108.82L874.59 110.54L875.28 112.12L876.33 113.64L877.74 114.45L878.85 115.73L879.57 116.67L880.38 118.44L882.28 122.64L884.80 125.99L887.24 126.87L890.53 128.60L893.64 130.09L894.99 129.83L897.22 129.98L900.01 128.91L903.20 127.63L906.18 126.38L908.23 124.72L910.15 122.19L911.77 119.94L913.25 117.24L914.37 114.89L916.93 112.41L920.00 110.11L923.52 108.41L927.47 107.96L930.27 107.96L934.73 108.85L938.09 109.29L940.42 108.22L941.11 106.47L941.75 103.23L942.80 101.13L944.17 100.08L947.62 97.30L948.73 99.44L949.12 105.01L949.15 108.40L947.96 110.70L948.57 114.53L949.92 117.38L952.46 120.73L956.80 120.17L961.26 120.80L961.91 124.50L962.25 127.35L961.12 128.72L962.35 129.62L963.74 130.90L965.19 132.18L966.80 133.55L968.86 134.96L970.73 136.09L973.60 137.78L975.52 140.98L976.62 142.63L977.68 144.32L979.92 146.33L986.64 150.14L988.40 151.39L990.25 153.02L991.60 154.13L993.09 155.76L994.43 157.00L995.66 156.40L996.81 156.25L998.85 157.20L999.45 155.67L1000.00 149.17L993.99 142.57L994.26 139.85L994.67 137.16L995.12 134.19L995.73 130.99L995.92 128.40L996.39 126.66L996.98 120.22L996.03 119.16L994.09 116.98L991.30 113.85L988.51 110.83L986.78 108.96L986.39 106.98L985.61 102.98L984.82 98.96L984.42 96.96L983.55 89.33L983.40 88.00L983.21 86.41L983.00 84.54L982.80 82.83L982.68 81.65L982.53 80.26L982.39 79.03L981.57 77.94L980.59 77.39L979.15 76.57L977.80 75.82L975.92 75.14L974.06 74.48L970.72 73.08L969.05 72.38L967.38 71.69L964.09 70.31L959.74 68.81L957.07 67.96L955.99 67.57L951.70 66.01L950.08 65.78L947.76 64.72L943.56 62.80L941.20 62.53L939.47 64.06L937.72 65.60L935.59 64.88L933.32 64.12L931.93 63.66L927.41 61.39L925.06 60.25L923.42 59.47L921.44 58.52L918.72 57.24L916.77 56.32L914.67 55.60L913.38 55.06L912.12 54.65L909.72 53.88L906.73 52.57L903.01 50.11L900.22 49.16L900.91 48.22L901.59 47.31L903.13 45.00L904.38 43.47L906.86 40.91L907.67 40.07L909.16 37.59L910.81 34.83L910.91 33.10L911.11 29.74L908.54 27.22L907.62 26.03L906.26 24.67L904.13 22.01L900.98 20.13L897.63 18.13L895.73 17.80L891.98 21.27L890.56 22.60L887.88 26.31L883.91 34.80L881.40 32.09L877.02 26.21L875.40 24.81L868.77 19.06L867.07 17.55L865.82 16.51L864.80 15.70L862.57 14.05L860.52 12.54L858.96 11.39L857.17 10.06L855.92 9.14L855.45 10.74L854.71 13.21L854.03 15.49L853.44 17.46L853.05 19.88L850.74 18.43Z" data-ward="8" /><path id="ward-19" class="ward" d="M226.83 169.05L225.20 168.10L224.16 167.14L222.37 166.54L221.11 168.04L219.00 169.99L218.25 171.35L217.57 173.47L216.64 175.52L215.83 176.67L215.09 177.48L213.72 177.45L212.30 176.85L210.91 176.62L209.38 176.39L208.06 177.19L206.75 178.45L205.61 179.42L204.62 180.94L203.60 182.86L203.24 184.58L202.66 187.19L201.13 189.44L198.77 191.68L197.20 192.52L195.25 193.38L193.36 193.57L191.20 192.73L188.84 192.64L186.99 193.72L185.37 195.07L184.13 196.03L182.51 196.96L181.52 198.58L179.91 201.88L178.13 204.25L177.51 206.39L176.80 207.50L174.99 209.94L174.11 211.09L173.45 212.39L173.19 214.06L173.78 215.27L172.99 217.98L171.27 220.84L170.29 222.98L169.97 226.01L170.16 230.39L169.97 234.19L168.88 239.11L168.45 240.32L168.11 243.08L168.09 244.66L168.20 246.21L168.06 247.42L167.90 248.50L167.93 250.00L168.19 251.18L168.76 254.32L169.52 256.57L169.33 257.63L169.74 258.97L170.16 260.82L170.31 262.48L170.50 263.65L171.19 265.41L171.25 267.01L170.67 268.74L169.86 270.58L169.15 272.85L167.99 275.35L167.16 276.95L165.93 278.66L165.75 279.87L164.85 280.70L164.13 281.57L162.11 282.06L160.80 282.37L159.69 282.28L158.51 280.33L156.46 276.77L155.64 273.88L154.49 270.91L153.24 268.81L152.47 268.02L150.99 268.43L149.15 268.42L146.18 268.79L143.71 270.10L141.95 273.89L141.16 275.57L139.88 280.11L138.25 280.96L136.22 280.93L136.36 291.71L135.80 296.14L135.29 299.17L134.06 301.44L132.99 303.40L130.80 307.46L129.49 308.92L127.45 311.45L124.34 314.38L121.70 318.26L120.64 320.91L120.07 321.86L121.14 326.28L121.70 330.08L121.91 333.68L121.97 336.75L122.22 339.29L122.26 340.59L122.48 346.67L122.57 349.78L123.24 354.00L124.12 357.68L122.21 358.01L120.72 358.46L120.43 360.55L119.31 362.32L117.20 364.22L115.03 366.19L111.68 366.61L109.66 366.94L108.03 367.14L107.77 368.60L107.59 371.68L104.44 372.48L104.41 376.04L104.26 380.38L105.40 381.24L109.71 382.18L112.12 384.61L114.95 389.81L120.46 398.50L124.79 405.30L124.48 406.67L124.15 409.32L124.33 413.02L128.28 412.88L130.11 412.70L132.75 412.44L134.94 412.23L138.79 411.56L141.67 411.71L145.30 414.60L146.62 416.99L148.66 421.04L150.36 422.53L151.70 424.40L153.97 425.59L155.42 426.35L157.83 427.05L159.27 427.47L160.69 427.45L161.78 427.87L165.17 426.35L167.12 425.47L170.60 425.26L172.61 425.15L176.17 425.99L178.36 425.67L181.46 425.23L183.29 425.55L184.94 426.24L187.58 426.92L190.60 430.40L192.62 434.58L193.77 436.07L194.56 437.27L195.65 438.82L196.61 440.37L198.16 441.91L199.38 443.42L200.40 445.58L201.30 447.47L204.02 449.07L208.04 449.79L211.43 450.53L213.08 451.46L212.39 452.91L211.71 454.35L210.35 455.54L206.99 458.08L205.32 461.81L203.14 462.94L204.78 464.78L206.15 466.42L207.85 467.76L209.44 468.57L211.86 472.17L213.24 475.90L214.27 477.78L215.24 478.94L216.64 479.84L218.49 481.21L220.33 482.58L221.49 483.43L225.31 486.27L227.22 487.72L228.32 488.52L232.99 492.05L234.47 493.60L237.71 496.38L240.64 498.90L243.93 501.73L245.21 502.83L246.11 505.16L247.42 508.51L248.75 511.52L249.69 513.28L251.09 515.15L253.21 517.63L254.36 516.09L256.43 514.38L259.16 511.88L261.08 510.03L262.63 509.49L267.70 506.93L269.99 506.04L272.42 504.08L269.15 498.85L265.14 491.65L262.82 487.11L261.04 483.88L256.36 478.08L255.09 475.97L254.36 473.92L253.55 472.74L252.47 471.38L248.56 469.86L245.54 469.69L246.96 462.98L245.32 462.44L244.19 462.18L241.69 462.50L239.16 461.78L236.86 460.80L235.43 460.15L234.79 458.22L233.16 453.37L231.72 452.21L228.92 451.29L227.19 450.48L227.14 448.85L225.52 448.09L224.51 446.08L222.01 444.08L221.94 442.85L221.85 441.30L221.74 440.13L225.97 438.11L224.68 433.65L223.54 427.79L223.37 424.52L223.24 422.01L221.90 418.42L221.73 415.72L221.99 411.79L221.34 410.04L220.39 407.87L220.83 406.02L223.06 403.48L223.20 401.55L220.58 401.36L220.29 397.05L220.17 391.83L221.02 388.40L223.24 383.06L223.90 374.59L218.03 352.82L217.47 350.75L204.91 347.63L192.67 346.65L186.22 339.32L186.82 333.21L187.74 318.74L182.01 312.63L181.76 304.55L181.78 293.96L192.50 282.82L198.75 284.03L201.79 286.92L210.75 289.30L216.79 289.26L221.24 287.83L226.50 286.53L227.88 275.62L236.88 275.39L237.15 271.86L237.91 265.72L247.23 265.83L248.48 265.85L252.35 265.89L253.12 264.26L252.73 262.99L251.44 260.18L249.29 254.82L248.66 250.90L248.70 246.93L247.29 242.59L246.94 235.79L247.80 233.44L247.40 232.23L247.04 231.04L246.69 229.69L246.56 227.62L245.90 224.30L245.79 222.59L245.90 220.97L245.98 219.81L246.57 218.44L248.40 216.30L250.06 215.00L253.06 213.44L255.66 212.33L258.26 211.40L259.82 210.62L261.19 210.78L262.44 211.49L263.73 211.33L266.76 209.66L268.06 208.41L266.91 207.69L264.56 205.39L260.09 202.52L257.23 201.73L256.03 201.32L254.33 199.03L253.33 195.63L252.45 192.85L251.49 191.02L250.44 190.02L249.93 188.43L248.21 186.05L248.49 182.58L249.01 178.66L248.68 176.36L247.85 173.91L246.48 172.76L245.01 170.55L243.16 167.54L239.58 168.29L234.07 168.61L232.02 168.58L230.87 169.42L228.92 169.51L226.83 169.05Z" data-ward="19" /><path id="ward-11" class="ward" d="M672.88 150.71L669.62 148.84L667.52 147.76L666.89 149.01L665.42 150.86L664.13 149.83L661.25 149.10L659.74 149.65L658.14 148.79L656.20 150.37L654.85 151.41L653.97 152.09L655.45 154.22L655.41 155.60L654.70 157.21L653.37 159.83L650.69 162.08L649.38 163.28L647.55 166.02L646.84 167.55L645.77 169.90L644.52 172.35L643.54 174.28L642.70 176.97L641.99 180.36L642.06 184.93L642.11 188.76L641.06 195.51L639.92 200.17L638.74 203.52L637.34 205.41L634.71 207.17L632.11 207.64L630.13 206.87L628.46 205.04L627.35 203.41L626.02 201.28L624.73 199.21L623.85 198.43L622.33 198.15L619.99 199.10L618.53 200.58L617.15 203.42L616.55 205.26L613.64 208.14L612.08 210.35L611.03 212.75L610.19 215.51L609.53 217.35L608.49 218.67L607.05 219.77L605.89 220.52L603.65 221.18L602.50 221.35L599.76 221.24L597.00 221.74L595.44 222.14L592.51 222.95L588.67 223.91L585.54 225.01L583.26 225.86L581.78 227.47L580.20 226.54L578.57 223.87L576.24 220.38L574.56 218.63L574.06 219.87L572.84 221.64L571.48 222.86L569.76 225.08L564.31 225.64L560.74 226.33L558.55 226.34L556.69 224.20L554.95 222.62L553.87 223.58L551.78 225.54L548.65 225.24L547.52 224.75L546.06 224.13L544.97 223.50L544.24 224.28L541.69 224.98L540.72 225.94L540.79 227.44L541.33 230.31L542.14 233.46L541.49 235.58L540.98 237.67L541.89 239.09L542.75 241.14L542.67 244.16L541.23 246.83L540.25 248.66L541.12 250.54L543.14 252.18L543.63 253.48L543.12 255.68L542.27 258.29L542.61 260.06L542.50 261.31L541.41 263.40L538.93 268.14L538.51 269.87L538.81 271.04L539.64 272.98L540.43 276.02L541.89 279.33L542.35 282.70L542.00 285.79L540.99 288.51L542.19 289.98L538.88 293.43L533.47 299.11L529.93 302.75L527.38 305.42L527.89 306.45L527.55 309.58L527.60 311.47L527.98 312.80L528.85 314.00L531.71 316.35L533.83 318.19L535.96 320.54L537.91 322.32L539.34 324.03L541.30 325.70L542.71 326.54L544.95 327.17L547.40 327.87L549.36 323.75L551.27 317.98L552.04 314.11L552.48 311.06L552.58 309.80L554.17 309.37L555.61 309.08L558.66 308.44L561.36 307.41L563.59 306.51L566.16 305.25L569.17 303.72L571.63 302.49L574.55 301.13L575.64 300.59L579.59 297.92L584.20 297.66L590.43 297.29L592.75 297.28L594.36 296.56L595.19 297.48L597.02 297.72L598.55 298.04L601.15 298.23L603.03 298.07L605.23 298.05L606.76 297.95L609.08 297.83L611.19 297.39L613.41 296.60L615.06 295.69L617.71 297.08L620.47 294.87L622.30 293.22L623.56 292.66L625.35 292.44L627.01 291.87L629.04 292.02L630.33 291.38L633.29 289.41L636.29 288.85L637.98 288.45L638.60 286.87L639.76 285.94L641.36 285.80L641.50 281.64L644.65 278.10L648.08 274.27L650.38 271.69L653.20 267.01L653.72 264.71L654.19 262.60L653.21 261.49L652.64 259.14L652.52 253.74L653.23 249.50L653.41 248.38L654.52 243.47L655.04 241.10L654.66 239.72L653.25 237.81L651.52 235.24L649.42 230.88L648.44 228.32L647.69 226.35L647.46 223.02L647.84 220.79L648.19 217.87L648.80 215.15L649.49 212.47L649.63 210.13L649.67 208.69L650.07 205.72L650.69 203.03L650.89 201.47L651.06 200.14L650.70 198.61L649.23 195.96L646.75 191.74L646.19 190.78L647.88 187.03L649.67 184.17L652.07 181.35L655.58 177.14L657.73 175.24L658.67 174.71L660.70 173.61L664.93 171.40L665.92 170.88L668.18 169.11L669.05 168.42L672.13 165.74L673.38 164.58L674.81 163.26L677.30 160.26L679.56 158.09L682.14 156.36L676.63 152.82L672.88 150.71Z" data-ward="11" /><path id="ward-4" class="ward" d="M477.01 156.90L475.23 155.12L472.74 153.17L469.73 150.46L467.01 148.42L464.39 146.14L462.08 142.96L459.63 141.85L457.87 139.29L456.67 137.94L455.37 138.14L452.47 138.49L446.00 140.28L444.29 141.09L442.10 142.13L439.84 143.28L438.48 144.02L437.41 144.72L436.30 144.79L434.33 144.89L430.98 145.58L430.86 148.58L431.26 157.74L430.91 159.46L428.48 159.42L427.25 160.37L426.53 162.03L423.70 162.26L422.31 162.57L421.14 163.06L420.46 161.63L418.55 164.07L417.00 166.83L414.93 168.76L413.91 169.72L412.99 170.58L410.18 172.27L406.34 173.84L399.98 174.47L394.67 175.89L391.92 179.25L390.64 179.58L387.50 180.13L386.05 180.15L383.45 181.33L381.52 184.16L380.53 185.05L378.42 186.46L376.79 187.12L376.23 191.69L374.39 192.25L373.03 192.43L369.85 192.84L367.20 192.86L363.58 195.28L362.43 194.68L360.43 193.84L359.74 196.81L358.99 197.70L357.99 198.74L357.04 199.57L355.76 200.66L354.59 202.45L352.35 203.67L349.46 205.31L348.52 205.84L351.67 210.29L353.52 214.57L355.03 219.91L354.69 222.69L353.70 224.70L352.76 226.19L350.95 228.91L347.19 235.04L344.92 238.37L344.60 239.58L346.28 242.40L347.09 243.28L349.14 245.50L351.21 249.87L350.55 252.97L350.37 255.56L350.96 258.12L352.27 259.69L355.11 261.64L356.26 263.02L357.88 269.15L359.94 294.22L361.88 304.63L364.83 306.84L366.25 307.13L367.98 307.17L370.66 307.40L372.14 308.02L375.29 309.92L377.24 311.19L379.82 311.50L382.93 311.28L386.05 311.28L389.04 311.80L391.28 312.61L392.93 314.43L394.17 317.42L395.13 319.94L395.98 318.61L396.61 317.39L397.68 316.82L398.90 316.09L399.65 315.11L400.15 313.51L400.52 311.44L400.59 309.68L401.12 307.83L401.91 306.02L402.84 304.29L403.61 302.92L404.19 301.51L404.62 299.42L404.63 297.12L404.34 294.84L404.36 292.79L404.75 290.95L406.48 288.30L408.11 288.86L410.08 289.07L412.23 289.43L415.80 290.02L418.09 290.21L420.34 290.43L422.11 292.52L423.26 293.53L424.28 294.59L426.56 299.22L428.02 301.55L427.44 303.12L427.37 304.71L428.27 306.33L427.85 307.92L427.11 308.97L426.39 311.63L427.35 312.54L428.65 313.49L430.05 313.62L431.87 313.75L433.49 314.21L435.42 314.86L437.94 316.94L439.98 318.96L441.55 319.39L443.27 319.18L444.67 319.16L447.58 319.66L448.41 320.37L450.86 319.26L451.85 317.02L452.72 315.14L454.09 313.25L455.49 311.14L456.52 309.64L458.84 306.23L459.52 305.01L459.77 303.46L459.30 301.26L458.30 298.71L459.12 295.93L460.22 292.45L460.93 290.22L461.93 287.08L460.19 286.38L457.60 285.36L456.68 282.61L456.55 281.47L456.33 279.93L455.87 278.74L454.55 277.42L453.73 276.24L452.53 274.81L451.27 271.66L450.39 267.67L449.69 263.15L448.33 257.58L447.17 251.18L437.42 248.09L441.73 238.65L437.85 236.65L438.04 235.58L438.47 233.13L438.81 230.40L439.90 228.43L441.47 228.35L443.66 228.66L446.76 228.71L449.56 228.53L450.32 226.49L451.67 223.82L451.86 221.20L451.02 219.87L451.62 218.05L453.43 216.23L455.83 214.52L456.20 213.15L456.49 211.17L456.89 209.68L457.24 208.33L458.10 206.79L459.62 204.92L460.74 203.60L461.75 200.99L462.82 200.05L464.33 198.05L463.22 195.98L460.96 191.67L459.10 186.93L458.84 185.42L461.09 184.84L463.79 184.00L465.98 183.42L468.23 182.46L469.55 181.87L471.22 181.13L472.62 180.81L475.13 180.35L477.70 179.17L477.17 177.61L477.05 176.34L476.86 174.41L476.49 171.32L476.28 168.27L476.26 166.86L476.86 164.52L477.20 162.79L477.07 160.18L477.01 156.90Z" data-ward="4" /><path id="ward-16" class="ward" d="M252.73 262.99L253.12 264.26L252.35 265.89L248.48 265.85L247.23 265.83L237.91 265.72L237.15 271.86L236.88 275.39L227.88 275.62L226.50 286.53L221.24 287.83L216.79 289.26L210.75 289.30L201.79 286.92L198.75 284.03L192.50 282.82L181.78 293.96L181.76 304.55L182.01 312.63L187.74 318.74L186.82 333.21L186.22 339.32L192.67 346.65L204.91 347.63L217.47 350.75L218.03 352.82L223.90 374.59L223.24 383.06L221.02 388.40L220.17 391.83L220.29 397.05L220.58 401.36L223.20 401.55L223.06 403.48L220.83 406.02L220.39 407.87L221.34 410.04L221.99 411.79L221.73 415.72L221.90 418.42L223.24 422.01L223.37 424.52L223.54 427.79L224.68 433.65L225.97 438.11L221.74 440.13L221.85 441.30L221.94 442.85L222.01 444.08L224.51 446.08L225.52 448.09L227.14 448.85L227.19 450.48L228.92 451.29L231.72 452.21L233.16 453.37L234.79 458.22L235.43 460.15L236.86 460.80L239.16 461.78L241.69 462.50L244.19 462.18L245.32 462.44L246.96 462.98L245.54 469.69L248.56 469.86L252.47 471.38L253.55 472.74L254.36 473.92L255.96 472.72L257.75 471.39L260.42 469.03L263.10 466.80L263.53 465.51L263.78 463.96L264.75 461.43L265.67 459.93L266.39 458.42L266.91 457.36L267.58 455.64L268.36 453.28L268.93 450.49L267.97 449.08L267.90 447.00L268.47 445.21L268.75 442.58L268.99 440.90L269.24 438.96L269.38 437.53L270.07 434.77L270.95 430.78L274.00 428.85L275.65 427.59L276.16 426.24L277.16 422.56L278.02 420.01L278.49 418.66L279.29 416.85L280.19 415.91L281.63 413.97L282.91 413.15L284.21 411.72L285.05 410.77L286.27 409.65L287.08 408.69L288.36 406.66L289.50 404.99L291.15 402.12L291.80 400.57L291.22 398.37L290.53 396.68L289.88 393.95L289.33 391.53L289.04 390.31L288.12 387.95L287.59 386.31L287.10 382.59L287.48 379.91L287.50 378.42L287.54 375.52L287.61 372.96L287.86 370.44L288.91 368.06L289.95 365.78L291.20 364.03L295.50 363.53L296.78 362.72L297.80 362.08L298.72 360.01L299.69 357.17L300.98 351.14L301.32 346.72L303.38 345.00L308.46 343.84L317.97 342.84L320.16 342.61L319.72 340.49L319.88 336.89L318.01 327.97L317.47 325.41L316.96 323.06L316.18 319.42L313.21 308.66L311.96 305.23L310.70 301.89L310.80 299.97L313.34 299.49L314.86 299.20L314.90 296.29L313.76 291.95L313.08 289.37L310.27 278.55L309.29 275.12L307.36 274.87L304.28 277.99L300.78 278.67L294.37 277.79L292.37 276.32L292.36 274.96L292.48 271.96L274.82 265.18L270.72 263.61L264.74 263.66L252.73 262.99Z" data-ward="16" /><path id="ward-13" class="ward" d="M542.71 326.54L541.30 325.70L539.34 324.03L537.91 322.32L535.96 320.54L533.83 318.19L531.71 316.35L528.85 314.00L527.98 312.80L527.60 311.47L527.55 309.58L527.89 306.45L527.38 305.42L529.93 302.75L533.47 299.11L538.88 293.43L542.19 289.98L540.99 288.51L542.00 285.79L542.35 282.70L541.89 279.33L540.43 276.02L539.64 272.98L538.81 271.04L538.51 269.87L538.93 268.14L541.41 263.40L542.50 261.31L542.61 260.06L542.27 258.29L543.12 255.68L543.63 253.48L543.14 252.18L541.12 250.54L540.25 248.66L541.23 246.83L542.67 244.16L542.75 241.14L541.89 239.09L540.98 237.67L541.49 235.58L542.14 233.46L541.33 230.31L540.79 227.44L540.72 225.94L541.69 224.98L544.24 224.28L544.97 223.50L544.31 222.65L543.51 221.08L542.52 219.84L541.73 219.02L541.08 218.15L540.31 216.74L538.36 215.30L536.99 214.06L535.84 212.95L534.99 211.41L534.06 210.45L533.20 209.61L532.17 208.91L530.46 207.00L529.67 205.82L529.13 204.79L528.17 202.90L526.45 201.83L524.84 200.70L523.55 199.60L521.84 198.52L520.09 197.61L518.13 196.45L516.75 195.47L514.33 193.91L512.76 191.96L511.96 190.57L511.04 189.33L510.59 187.93L510.42 185.89L510.40 184.31L510.15 181.52L510.14 180.08L510.29 178.67L510.62 177.04L511.25 175.35L512.02 173.91L511.27 172.57L509.47 170.20L508.44 169.03L506.61 168.03L504.83 167.94L502.30 168.43L501.77 169.52L500.85 171.26L499.21 173.45L499.80 184.38L499.77 197.49L497.76 216.57L498.49 229.37L497.23 246.54L498.50 251.12L498.84 257.17L501.85 263.98L501.47 268.05L498.65 273.57L501.94 281.68L503.10 286.27L502.02 295.84L500.43 299.87L500.56 302.55L501.22 306.29L503.07 309.95L505.25 313.32L506.60 315.55L505.64 316.35L503.00 318.55L498.44 321.95L495.83 325.08L495.11 326.12L497.13 328.10L498.57 329.47L500.13 328.10L501.20 327.49L502.80 327.45L504.54 328.10L505.64 328.67L506.65 329.39L508.83 328.67L510.47 328.52L512.70 328.20L513.83 328.06L517.20 327.18L519.26 326.69L519.69 328.31L519.57 329.55L520.21 330.96L521.30 331.95L522.30 332.67L523.03 333.54L524.71 335.88L527.38 335.79L529.52 335.97L530.70 336.27L532.79 336.98L534.73 336.93L536.30 336.85L537.48 337.15L539.91 335.26L539.86 338.89L539.68 340.40L538.52 347.56L538.36 357.35L538.07 362.66L537.99 364.18L537.45 366.72L536.92 369.26L536.25 374.16L536.09 375.37L536.01 376.48L535.58 382.30L533.01 389.52L530.29 396.14L528.25 402.79L530.24 403.49L532.30 404.22L537.75 406.14L542.52 407.82L544.77 408.83L550.51 410.59L556.49 412.55L557.97 412.90L558.93 413.78L560.42 414.50L561.53 415.03L563.06 414.49L564.29 414.19L565.24 415.95L568.08 415.47L570.30 415.10L573.43 414.60L574.22 411.24L576.17 410.15L577.84 408.66L579.41 408.18L582.05 405.98L582.96 404.79L585.49 405.03L587.98 403.43L590.26 401.96L595.36 399.10L596.39 398.53L598.66 396.73L597.61 393.87L597.04 390.78L596.65 388.61L598.65 388.11L596.97 381.18L596.02 378.46L596.05 376.38L596.24 374.08L596.39 372.25L595.10 370.86L594.07 369.75L593.02 368.33L592.73 367.18L592.97 365.17L593.13 362.54L592.88 359.83L591.77 357.40L589.66 353.26L588.07 352.81L586.19 351.68L585.34 350.05L583.95 346.94L582.49 344.39L580.22 342.15L578.02 339.78L575.94 338.25L573.57 337.36L571.71 336.46L569.62 334.96L568.26 333.44L566.19 332.38L562.98 330.98L559.16 329.93L554.89 328.79L552.69 328.80L551.52 328.73L549.86 328.63L547.40 327.87L544.95 327.17L542.71 326.54Z" data-ward="13" /></svg>