<svg viewBox="0 0 1000.00 859.37" xmlns="http://www.w3.org/2000/svg"><style>.ward { fill: #e2e8f0; stroke: #fff; stroke-width: 0.5px; } .ward:hover { fill: #cbd5e1; }</style><path id="ward-6" class="ward" d="M807.79 402.09L801.37 401.47L797.94 403.22L796.97 407.29L794.75 414.51L792.78 420.54L789.61 420.80L787.46 419.12L779.25 416.49L775.92 415.32L772.66 414.17L769.88 413.39L762.22 413.02L756.65 416.54L755.74 419.35L751.83 431.39L749.58 438.31L745.05 452.27L740.69 465.69L737.99 474.02L737.02 477.00L733.45 487.99L732.69 490.44L731.27 494.67L729.49 499.99L723.90 507.21L720.68 511.36L716.72 516.47L713.92 520.23L710.86 524.86L706.64 531.22L704.51 538.77L700.70 545.72L694.75 553.39L692.09 556.44L689.24 559.33L685.58 563.73L681.85 568.64L678.39 573.01L674.12 576.22L671.97 577.85L669.09 581.03L672.11 583.80L675.19 586.61L683.42 594.13L691.94 601.91L696.77 606.47L701.79 611.21L731.09 570.94L734.04 566.94L739.39 559.70L761.85 529.35L764.43 526.13L767.37 522.46L769.86 519.35L913.75 695.66L925.11 694.72L929.78 694.62L982.28 703.37L976.12 681.69L965.99 658.22L956.38 643.12L946.68 622.66L943.03 614.97L940.04 608.68L935.43 598.95L929.30 585.23L923.18 571.56L919.41 563.15L915.65 554.77L906.78 535.49L904.21 530.51L898.81 520.03L892.40 507.36L885.97 494.65L879.78 482.36L873.59 470.07L869.13 460.77L854.55 433.10L843.40 411.92L841.74 408.78L839.57 404.65L836.62 403.51L832.97 402.08L827.21 404.54L811.37 405.49L807.79 402.09Z" data-ward="6" /><path id="ward-4" class="ward" d="M699.99 442.18L692.61 438.64L688.81 435.11L685.01 431.58L680.33 429.26L675.13 426.64L673.07 424.22L669.62 420.05L668.23 417.84L661.18 415.37L658.04 412.85L653.36 408.89L650.96 405.90L649.02 402.75L647.09 399.62L661.97 364.66L630.62 343.77L637.15 330.22L639.44 325.48L638.67 322.66L635.98 313.05L634.97 310.37L643.18 284.06L649.21 273.57L644.44 272.54L640.56 271.70L635.95 270.69L631.15 269.65L628.52 269.08L625.55 268.43L621.51 267.56L616.70 266.51L613.55 265.83L589.16 324.83L588.32 327.93L583.55 345.77L582.39 349.82L579.64 360.16L577.98 365.61L567.66 387.20L564.90 392.97L562.30 398.40L556.07 411.45L548.85 418.42L537.11 423.35L533.47 424.59L530.51 425.61L527.53 426.63L520.91 428.90L515.93 430.30L511.42 432.27L514.18 435.01L516.92 437.72L520.85 441.36L528.91 449.40L533.25 453.50L537.86 457.82L541.74 461.45L545.53 464.98L549.31 468.50L553.68 472.10L556.93 474.78L561.10 478.15L592.50 506.37L634.19 547.54L636.50 544.87L638.66 542.30L640.53 539.38L642.39 536.46L644.95 531.95L647.89 526.78L651.46 519.98L653.05 516.90L654.99 514.02L656.94 509.99L659.00 506.95L660.73 503.25L662.73 499.29L668.99 485.81L672.30 478.20L675.63 471.35L680.10 461.49L683.66 456.07L693.75 456.23L699.99 442.18Z" data-ward="4" /><path id="ward-3" class="ward" d="M517.53 226.22L514.39 224.30L511.45 223.85L513.63 217.60L514.53 215.03L516.21 210.86L517.91 206.65L516.74 202.69L511.65 202.68L506.51 202.67L497.99 202.66L494.79 207.62L491.81 210.30L487.31 221.06L486.33 223.55L483.59 226.97L481.64 231.80L478.11 240.56L476.48 244.58L473.70 251.49L470.74 258.21L465.29 256.53L456.89 254.95L453.34 256.17L449.72 253.32L443.96 248.76L439.80 261.23L438.54 264.01L434.69 272.50L430.70 281.26L430.58 286.65L426.44 293.68L419.72 303.83L417.57 307.08L415.16 310.72L409.91 318.64L408.12 321.18L402.47 329.23L400.93 331.43L412.55 341.43L423.10 350.52L427.24 354.07L431.52 357.20L434.95 359.69L440.51 363.75L479.30 397.99L507.16 427.81L511.42 432.27L515.93 430.30L520.91 428.90L527.53 426.63L530.51 425.61L533.47 424.59L537.11 423.35L548.85 418.42L556.07 411.45L562.30 398.40L564.90 392.97L567.66 387.20L577.98 365.61L579.64 360.16L582.39 349.82L583.55 345.77L588.32 327.93L589.16 324.83L613.55 265.83L605.68 268.44L601.10 269.96L595.79 258.16L582.04 255.50L579.64 253.88L578.72 250.37L574.31 246.33L571.31 245.39L568.83 244.61L565.10 243.45L560.76 242.09L558.26 241.31L558.42 238.78L558.02 231.22L557.56 222.63L543.21 218.19L528.93 216.42L527.10 218.62L523.86 223.23L522.25 225.51L517.54 226.22L517.53 226.22Z" data-ward="3" /><path id="ward-18" class="ward" d="M126.92 226.94L149.50 195.84L153.86 189.83L157.06 185.42L159.16 182.53L162.81 177.51L184.27 149.35L176.86 142.44L130.88 101.53L126.05 97.90L120.76 105.67L107.34 125.07L98.18 137.28L88.15 151.05L84.88 156.03L66.69 183.81L125.15 229.37L126.92 226.94Z" data-ward="18" /><path id="ward-13" class="ward" d="M499.06 466.57L504.57 463.04L509.79 457.40L515.59 450.28L517.71 445.42L520.85 441.36L516.92 437.72L514.18 435.01L511.42 432.27L507.16 427.81L479.30 397.99L459.64 413.88L445.43 423.78L439.15 428.21L432.50 436.99L405.71 457.65L463.12 504.84L499.06 466.57Z" data-ward="13" /><path id="ward-16" class="ward" d="M322.06 290.43L334.48 274.39L299.53 245.04L297.02 243.12L282.53 232.04L265.79 221.78L258.01 217.01L254.99 213.79L246.65 204.88L236.17 193.68L222.30 215.06L211.64 231.45L176.53 269.83L259.13 337.89L286.02 305.76L295.93 293.91L301.11 298.89L308.82 302.07L314.12 296.69L317.01 297.97L319.52 298.30L320.45 295.41L322.06 290.43Z" data-ward="16" /><path id="ward-15" class="ward" d="M347.23 285.43L334.48 274.39L322.06 290.43L320.45 295.41L319.52 298.30L317.01 297.97L314.12 296.69L308.82 302.07L301.11 298.89L295.93 293.91L286.02 305.76L259.13 337.89L362.65 419.73L392.25 386.77L389.44 381.93L392.92 380.77L400.63 375.50L423.10 350.52L412.55 341.43L400.93 331.43L347.23 285.43Z" data-ward="15" /><path id="ward-10" class="ward" d="M711.91 691.63L719.64 683.30L723.36 679.38L728.95 672.29L732.42 667.78L733.79 663.90L737.19 660.02L739.31 657.78L744.13 652.67L736.23 644.93L716.17 625.29L701.79 611.21L696.77 606.47L691.94 601.91L683.42 594.13L675.19 586.61L672.11 583.80L669.09 581.03L657.52 570.60L651.71 565.10L646.98 560.36L638.56 551.93L634.19 547.54L621.17 562.07L610.46 574.52L599.76 586.97L584.83 604.90L641.69 652.09L702.27 702.00L711.91 691.63Z" data-ward="10" /><path id="ward-14" class="ward" d="M432.50 436.99L439.15 428.21L445.43 423.78L459.64 413.88L479.30 397.99L440.51 363.75L434.95 359.69L431.52 357.20L427.24 354.07L423.10 350.52L400.63 375.50L392.92 380.77L389.44 381.93L392.25 386.77L362.65 419.73L405.71 457.65L432.50 436.99Z" data-ward="14" /><path id="ward-12" class="ward" d="M518.59 536.50L528.72 527.33L535.00 518.08L539.87 512.06L543.46 507.13L546.24 500.18L551.90 492.15L555.12 486.23L557.00 483.56L561.10 478.15L556.93 474.78L553.68 472.10L549.31 468.50L545.53 464.98L541.74 461.45L537.86 457.82L533.25 453.50L528.91 449.40L520.85 441.36L517.71 445.42L515.59 450.28L509.79 457.40L504.57 463.04L499.06 466.57L463.12 504.84L503.15 537.20L510.86 543.46L518.59 536.50Z" data-ward="12" /><path id="ward-9" class="ward" d="M910.39 825.61L897.00 810.81L888.74 800.38L881.71 796.15L876.40 792.96L870.43 786.66L865.26 781.04L863.05 775.39L859.85 767.24L856.92 759.76L847.49 749.77L837.45 740.48L835.41 738.55L823.52 727.37L809.60 714.28L802.53 707.62L791.81 697.53L778.97 685.45L766.81 674.01L758.51 666.20L744.13 652.67L739.31 657.78L737.19 660.02L733.79 663.90L732.42 667.78L728.95 672.29L723.36 679.38L719.64 683.30L711.91 691.63L702.27 702.00L753.75 744.77L775.53 762.61L797.30 780.55L811.82 792.58L828.57 806.34L854.14 827.51L875.50 845.11L892.81 859.37L899.76 851.91L907.74 843.32L905.15 840.51L905.17 837.87L909.27 832.88L906.73 828.86L912.30 831.82L913.69 829.21L910.39 825.61Z" data-ward="9" /><path id="ward-11" class="ward" d="M599.76 586.97L610.46 574.52L621.17 562.07L634.19 547.54L592.50 506.37L561.10 478.15L557.00 483.56L555.12 486.23L551.90 492.15L546.24 500.18L543.46 507.13L539.87 512.06L535.00 518.08L528.72 527.33L518.59 536.50L510.86 543.46L584.83 604.90L599.76 586.97Z" data-ward="11" /><path id="ward-8" class="ward" d="M948.82 821.33L950.19 818.44L951.36 815.92L956.45 804.95L959.84 797.63L960.69 794.82L965.25 776.65L965.86 773.96L959.18 769.83L939.20 745.51L935.56 740.38L928.47 730.38L925.68 727.01L906.07 703.33L913.75 695.66L769.86 519.35L767.37 522.46L764.43 526.13L761.85 529.35L739.39 559.70L734.04 566.94L731.09 570.94L701.79 611.21L716.17 625.29L736.23 644.93L744.13 652.67L758.51 666.20L766.81 674.01L778.97 685.45L791.81 697.53L802.53 707.62L809.60 714.28L823.52 727.37L835.41 738.55L837.45 740.48L847.49 749.77L856.92 759.76L859.85 767.24L863.05 775.39L865.26 781.04L870.43 786.66L876.40 792.96L881.71 796.15L888.74 800.38L897.00 810.81L910.39 825.61L913.69 829.21L932.28 842.05L935.32 837.19L936.48 834.25L938.44 828.25L943.80 823.41L947.12 824.90L948.82 821.33Z" data-ward="8" /><path id="ward-5" class="ward" d="M839.57 404.65L828.78 380.19L813.47 349.14L840.10 350.54L850.78 353.34L872.45 360.03L894.67 368.65L896.83 381.57L897.57 378.44L898.61 374.90L899.57 370.93L901.45 363.23L903.82 354.14L904.88 350.07L905.55 347.49L906.20 345.02L907.14 341.43L907.80 338.88L906.88 333.65L906.97 329.63L895.44 325.64L889.15 325.40L889.10 322.79L888.99 316.90L881.99 316.03L868.22 314.32L861.90 313.54L860.70 315.78L857.67 315.63L857.08 312.61L853.87 312.17L843.70 310.80L835.81 309.73L830.10 308.96L809.97 307.46L796.64 306.29L793.74 306.13L790.09 305.92L786.13 306.28L780.76 306.76L775.85 307.20L771.66 307.21L766.77 307.22L760.58 306.44L754.86 305.71L751.53 305.28L748.49 304.89L738.80 301.27L735.09 299.88L729.89 297.93L725.81 296.40L720.59 294.45L714.46 292.48L709.33 290.82L702.78 288.71L695.56 285.64L690.60 283.53L686.75 281.90L681.49 279.66L674.15 276.54L665.09 273.05L661.19 274.26L656.51 273.99L649.21 273.57L643.18 284.06L634.97 310.37L635.98 313.05L638.67 322.66L639.44 325.48L637.15 330.22L630.62 343.77L661.97 364.66L647.09 399.62L649.02 402.75L650.96 405.90L653.36 408.89L658.04 412.85L661.18 415.37L668.23 417.84L669.62 420.05L673.07 424.22L675.13 426.64L680.33 429.26L685.01 431.58L688.81 435.11L692.61 438.64L699.99 442.18L693.75 456.23L683.66 456.07L680.10 461.49L675.63 471.35L672.30 478.20L668.99 485.81L662.73 499.29L660.73 503.25L659.00 506.95L656.94 509.99L654.99 514.02L653.05 516.90L651.46 519.98L647.89 526.78L644.95 531.95L642.39 536.46L640.53 539.38L638.66 542.30L636.50 544.87L634.19 547.54L638.56 551.93L646.98 560.36L651.71 565.10L657.52 570.60L669.09 581.03L671.97 577.85L674.12 576.22L678.39 573.01L681.85 568.64L685.58 563.73L689.24 559.33L692.09 556.44L694.75 553.39L700.70 545.72L704.51 538.77L706.64 531.22L710.86 524.86L713.92 520.23L716.72 516.47L720.68 511.36L723.90 507.21L729.49 499.99L731.27 494.67L732.69 490.44L733.45 487.99L737.02 477.00L737.99 474.02L740.69 465.69L745.05 452.27L749.58 438.31L751.83 431.39L755.74 419.35L756.65 416.54L762.22 413.02L769.88 413.39L772.66 414.17L775.92 415.32L779.25 416.49L787.46 419.12L789.61 420.80L792.78 420.54L794.75 414.51L796.97 407.29L797.94 403.22L801.37 401.47L807.79 402.09L811.37 405.49L827.21 404.54L832.97 402.08L836.62 403.51L839.57 404.65Z" data-ward="5" /><path id="ward-19" class="ward" d="M84.88 156.03L88.15 151.05L98.18 137.28L107.34 125.07L120.76 105.67L126.05 97.90L122.77 94.52L113.54 85.09L104.23 74.67L102.33 72.21L91.51 57.84L83.41 60.22L81.59 64.93L81.26 68.36L76.75 70.38L74.05 72.34L70.00 79.53L67.95 82.50L63.65 85.92L61.50 87.63L58.22 90.47L55.79 92.30L51.62 95.43L48.55 97.73L45.59 99.71L39.52 103.77L13.13 146.87L32.55 160.67L66.69 183.81L84.88 156.03Z" data-ward="19" /><path id="ward-17" class="ward" d="M211.64 231.45L222.30 215.06L236.17 193.68L228.45 186.64L225.69 183.27L221.90 179.92L211.21 170.75L208.68 168.59L184.27 149.35L162.81 177.51L159.16 182.53L157.06 185.42L153.86 189.83L149.50 195.84L126.92 226.94L125.15 229.37L176.53 269.83L211.64 231.45Z" data-ward="17" /><path id="ward-1" class="ward" d="M172.52 47.85L169.46 46.13L161.27 41.85L159.71 39.16L156.48 34.48L148.49 33.97L143.68 32.48L139.88 31.29L136.85 30.35L133.20 29.22L130.76 28.47L126.49 27.14L125.49 21.38L120.86 19.20L114.30 16.12L108.48 13.38L105.94 12.18L96.34 9.81L87.36 6.75L71.76 3.28L65.90 2.00L53.69 0.00L53.55 3.39L51.01 15.29L41.80 32.94L37.11 40.05L30.39 50.17L24.15 81.74L14.97 119.77L0.00 137.91L3.89 140.49L13.13 146.87L39.52 103.77L45.59 99.71L48.55 97.73L51.62 95.43L55.79 92.30L58.22 90.47L61.50 87.63L63.65 85.92L67.95 82.50L70.00 79.53L74.05 72.34L76.75 70.38L81.26 68.36L81.59 64.93L83.41 60.22L91.51 57.84L102.33 72.21L104.23 74.67L113.54 85.09L122.77 94.52L126.05 97.90L130.88 101.53L176.86 142.44L184.27 149.35L208.68 168.59L211.21 170.75L221.90 179.92L225.69 183.27L227.85 181.43L235.06 176.49L243.94 170.31L247.97 167.50L258.81 158.44L283.22 162.54L297.22 165.05L310.22 165.34L322.27 164.56L334.87 165.58L362.24 167.13L364.90 165.74L369.90 163.07L373.00 161.07L361.35 154.11L358.02 153.38L345.72 150.61L335.74 149.32L327.21 147.62L315.13 136.44L309.23 134.34L296.72 129.41L286.57 125.37L278.89 123.29L251.91 115.86L246.18 109.01L243.56 105.88L241.66 103.84L238.73 100.69L232.18 92.06L229.65 88.72L226.86 86.83L223.35 84.45L219.53 81.85L216.83 80.02L213.86 78.01L210.49 75.72L205.90 72.61L206.63 69.30L207.27 66.39L208.01 63.00L205.62 60.17L201.08 54.79L199.37 52.77L197.48 50.53L195.00 47.60L191.41 43.36L186.91 44.52L183.44 53.99L172.52 47.85Z" data-ward="1" /><path id="ward-2" class="ward" d="M482.94 165.37L485.90 164.65L487.01 160.29L484.14 156.57L478.95 155.18L473.71 153.77L470.00 153.37L467.48 153.10L464.78 152.81L461.09 152.42L458.46 152.19L455.07 151.89L452.41 150.56L447.34 148.03L445.84 145.38L440.41 142.13L429.97 138.02L422.93 133.96L417.57 129.27L415.29 129.56L387.02 149.30L373.00 161.07L369.90 163.07L364.90 165.74L362.24 167.13L334.87 165.58L322.27 164.56L310.22 165.34L297.22 165.05L283.22 162.54L258.81 158.44L247.97 167.50L243.94 170.31L235.06 176.49L227.85 181.43L225.69 183.27L228.45 186.64L236.17 193.68L246.65 204.88L254.99 213.79L258.01 217.01L265.79 221.78L282.53 232.04L297.02 243.12L299.53 245.04L334.48 274.39L347.23 285.43L400.93 331.43L402.47 329.23L408.12 321.18L409.91 318.64L415.16 310.72L417.57 307.08L419.72 303.83L426.44 293.68L430.58 286.65L430.70 281.26L434.69 272.50L438.54 264.01L439.80 261.23L443.96 248.76L449.72 253.32L453.34 256.17L456.89 254.95L465.29 256.53L470.74 258.21L473.70 251.49L476.48 244.58L478.11 240.56L481.64 231.80L483.59 226.97L486.33 223.55L487.31 221.06L491.81 210.30L494.79 207.62L497.99 202.66L492.46 198.13L492.35 195.37L489.80 174.10L481.49 171.13L482.94 165.37Z" data-ward="2" /><path id="ward-7" class="ward" d="M839.57 404.65L841.74 408.78L843.40 411.92L854.55 433.10L869.13 460.77L873.59 470.07L879.78 482.36L885.97 494.65L892.40 507.36L898.81 520.03L904.21 530.51L906.78 535.49L915.65 554.77L919.41 563.15L923.18 571.56L929.30 585.23L935.43 598.95L940.04 608.68L943.03 614.97L946.68 622.66L956.38 643.12L965.99 658.22L976.12 681.69L982.28 703.37L929.78 694.62L925.11 694.72L913.75 695.66L906.07 703.33L925.68 727.01L928.47 730.38L935.56 740.38L939.20 745.51L959.18 769.83L965.86 773.96L967.42 767.08L968.40 762.79L968.85 758.29L969.60 750.71L970.16 745.12L971.76 728.98L981.06 707.76L982.79 703.80L985.77 695.86L988.60 689.36L992.35 680.73L993.62 673.06L994.86 665.51L996.53 655.46L997.96 643.61L1000.00 626.78L986.21 626.70L991.34 608.43L992.52 602.22L994.33 592.67L991.13 580.85L990.54 576.00L989.91 570.90L986.75 569.70L985.53 563.89L983.00 563.07L980.27 562.19L975.78 560.74L976.16 558.22L976.58 555.41L977.10 551.93L974.11 547.64L974.03 544.93L973.94 541.70L973.82 537.73L974.21 531.42L974.42 528.00L974.64 524.52L974.81 521.84L975.20 515.53L982.73 491.52L971.42 489.38L967.84 488.71L963.51 498.18L960.78 498.07L953.62 497.81L949.62 497.27L944.22 495.69L944.64 489.77L945.07 486.33L944.86 482.50L945.08 478.53L945.25 475.53L945.47 471.56L946.21 464.81L946.30 461.10L941.80 452.67L941.71 451.11L941.70 450.98L940.82 441.86L938.63 438.83L938.51 438.79L937.93 438.67L923.56 436.96L920.28 436.40L920.15 436.38L915.28 435.74L915.22 435.73L906.81 434.46L893.04 432.37L887.97 431.31L885.16 428.98L884.02 425.83L882.30 419.97L883.37 414.93L884.39 411.98L885.66 408.28L888.19 401.31L889.87 397.19L890.89 388.49L894.37 388.35L897.62 388.22L896.83 381.57L894.67 368.65L872.45 360.03L850.78 353.34L840.10 350.54L813.47 349.14L828.78 380.19L839.57 404.65Z" data-ward="7" /></svg>