<svg viewBox="0 0 1000.00 795.24" xmlns="http://www.w3.org/2000/svg"><style>.ward { fill: #e2e8f0; stroke: #fff; stroke-width: 0.5px; } .ward:hover { fill: #cbd5e1; }</style><path id="ward-7" class="ward" d="M997.19 627.42L997.66 624.53L999.03 616.48L999.37 614.08L999.68 612.14L1000.00 610.20L999.10 607.76L998.19 605.31L996.36 604.41L992.69 602.60L991.87 600.58L990.67 598.74L988.27 595.08L985.87 591.40L984.66 589.55L983.44 587.69L982.68 586.13L974.52 586.14L968.73 587.26L963.30 588.44L955.75 590.35L950.42 591.61L944.83 592.68L941.17 593.35L937.45 593.87L933.79 594.06L931.98 594.10L932.31 601.41L928.46 608.15L927.16 610.42L937.09 621.70L927.41 639.15L917.22 635.89L915.76 639.72L913.98 646.21L912.54 651.23L906.28 654.28L902.55 655.46L899.85 656.39L896.34 664.06L892.74 669.58L890.60 675.56L889.44 679.03L888.17 684.43L887.70 690.34L888.29 695.35L885.96 697.29L882.19 700.22L880.75 702.14L880.35 703.75L880.34 706.80L880.83 708.94L881.23 710.67L883.97 720.12L884.07 722.56L883.73 724.58L880.82 727.67L879.35 730.52L876.85 737.31L873.73 739.87L871.80 741.44L869.27 743.50L866.86 745.47L872.15 745.61L875.93 745.71L881.02 746.54L891.20 748.20L898.82 754.74L904.60 765.73L905.55 767.99L910.22 779.04L913.56 785.68L918.55 787.64L921.16 788.66L927.55 789.40L933.75 790.12L935.65 790.46L940.89 792.75L944.44 795.24L947.82 786.62L947.46 779.00L948.35 775.46L951.04 767.68L951.74 758.54L959.85 732.18L961.25 727.96L962.48 723.11L962.51 722.78L962.41 713.52L961.78 709.35L961.50 703.85L962.36 698.77L964.73 684.78L965.67 680.97L965.92 676.99L965.79 674.07L964.97 654.69L967.67 642.36L974.35 645.64L979.91 648.36L982.74 649.78L989.34 645.48L994.04 640.24L997.19 627.42Z" data-ward="7" /><path id="ward-6" class="ward" d="M924.33 432.28L924.38 430.52L925.19 426.66L925.67 424.41L926.16 421.39L931.74 414.25L936.99 404.85L938.95 403.09L943.39 399.11L948.98 394.08L942.08 395.09L889.80 402.76L896.60 451.32L831.06 532.34L834.38 509.44L827.58 506.94L817.85 505.49L808.12 504.59L801.83 505.58L797.83 511.77L799.25 515.38L799.05 518.60L798.15 522.45L797.43 524.52L794.67 525.14L792.53 525.80L789.90 526.60L788.99 528.28L786.97 534.79L787.48 538.31L787.71 539.94L784.65 547.13L784.63 549.31L784.15 558.96L783.47 562.03L778.68 562.15L774.75 561.88L775.03 564.04L774.91 567.09L774.66 570.67L774.30 573.32L774.05 575.32L775.16 578.24L779.60 578.59L781.87 579.02L784.83 578.99L786.95 579.18L790.90 579.73L793.62 580.31L796.63 578.92L798.06 578.35L802.15 579.44L803.46 578.35L805.14 578.25L808.21 577.24L810.61 575.72L812.73 574.17L867.16 603.70L859.24 605.41L856.00 607.16L851.72 608.35L850.22 609.91L848.92 613.81L845.75 625.53L844.85 626.91L842.86 629.94L840.08 633.76L837.92 638.34L834.79 642.29L832.50 643.34L838.86 651.17L846.70 659.27L855.52 669.14L856.99 671.28L859.06 673.31L860.93 674.36L865.03 675.06L869.34 675.14L870.34 679.72L869.19 680.97L864.59 681.29L862.92 689.49L862.63 692.78L864.17 695.73L865.14 697.28L864.01 699.84L862.28 700.42L859.40 699.70L858.07 700.54L857.27 702.24L856.40 705.57L855.74 707.56L858.85 708.23L861.10 708.69L862.90 708.87L865.83 708.51L867.86 708.18L871.18 707.96L873.04 708.23L877.47 709.03L880.83 708.94L880.34 706.80L880.35 703.75L880.75 702.14L882.19 700.22L885.96 697.29L888.29 695.35L887.70 690.34L888.17 684.43L889.44 679.03L890.60 675.56L892.74 669.58L896.34 664.06L899.85 656.39L902.55 655.46L906.28 654.28L912.54 651.23L913.98 646.21L915.76 639.72L917.22 635.89L927.41 639.15L937.09 621.70L927.16 610.42L928.46 608.15L932.31 601.41L931.98 594.10L933.79 594.06L937.45 593.87L941.17 593.35L944.83 592.68L950.42 591.61L955.75 590.35L963.30 588.44L968.73 587.26L974.52 586.14L982.68 586.13L980.75 582.17L980.74 580.20L980.57 575.00L981.29 571.23L983.20 566.60L985.38 561.29L988.28 553.21L989.72 550.05L990.71 547.88L993.26 542.29L994.06 540.54L994.13 538.55L994.24 535.13L994.35 531.98L994.46 528.60L993.99 524.73L994.82 522.43L993.88 520.19L991.49 519.31L991.26 517.30L990.73 512.68L991.01 509.60L987.95 505.15L984.86 500.65L984.41 495.05L982.17 490.92L979.78 484.13L975.42 482.35L973.74 480.54L964.75 470.89L966.48 468.51L965.11 465.54L962.93 460.78L962.20 459.16L961.38 457.31L956.23 452.13L951.09 446.96L947.05 443.24L943.01 439.51L939.05 437.58L934.58 435.40L926.60 435.93L924.22 436.09L924.33 432.28Z" data-ward="6" /><path id="ward-15" class="ward" d="M181.41 327.56L180.45 324.91L175.25 319.98L172.73 317.82L170.53 315.94L165.06 321.03L161.25 321.81L156.48 322.79L152.74 327.26L144.57 328.66L134.79 330.33L126.49 330.03L121.98 332.23L119.32 333.62L115.18 335.79L108.51 336.89L104.94 337.48L100.02 339.28L98.06 340.28L96.38 341.64L94.34 343.78L92.26 348.48L90.82 351.75L89.22 355.37L88.85 359.74L88.51 363.88L88.66 367.72L88.84 372.12L91.44 378.36L93.16 380.36L94.41 381.80L94.47 384.79L92.80 386.62L92.25 387.79L91.94 392.26L87.89 397.74L81.99 399.64L78.99 398.98L75.56 398.14L73.20 396.56L71.18 395.74L66.10 393.71L58.32 390.70L54.75 389.68L49.45 388.17L44.34 387.07L37.54 385.42L32.75 384.26L29.91 383.65L18.00 381.69L15.28 381.77L11.71 381.88L6.07 381.93L0.74 382.56L0.00 382.86L0.92 385.25L0.84 387.12L0.75 389.26L2.80 395.52L4.00 399.18L5.62 404.11L7.03 407.92L11.27 419.40L14.13 425.10L16.04 427.94L18.33 431.35L20.44 435.93L22.82 440.22L26.28 446.46L28.16 449.85L31.84 454.82L38.96 464.46L40.10 466.00L43.60 471.41L46.83 475.55L47.88 476.95L50.61 479.53L52.96 481.80L56.33 484.89L58.97 487.35L61.28 489.64L62.36 490.72L63.60 492.37L66.09 493.78L67.64 494.65L72.38 496.59L74.62 498.06L76.01 499.01L78.04 500.40L80.14 502.46L82.13 504.18L84.13 506.06L86.49 508.34L88.82 510.60L91.74 513.56L93.90 515.52L97.25 518.56L100.58 520.17L104.00 519.75L107.92 518.46L109.90 518.20L114.25 517.63L118.41 517.33L122.57 517.03L125.08 516.76L127.05 516.67L129.92 515.97L132.08 514.37L136.53 517.50L137.92 520.68L143.72 518.85L147.27 523.40L153.75 521.70L154.76 527.04L157.02 527.80L164.85 527.48L167.06 527.38L168.76 527.31L172.32 526.90L175.45 526.70L178.33 527.92L182.87 530.80L186.61 533.18L189.53 533.07L192.06 533.94L195.62 535.17L200.25 536.58L203.01 537.42L205.45 538.26L207.82 539.08L209.47 540.25L212.17 542.06L214.01 543.06L216.71 544.51L219.47 546.19L221.48 547.42L222.78 548.22L224.74 548.60L226.38 552.12L228.41 554.22L229.76 555.07L231.52 555.38L234.17 556.97L235.41 555.62L237.99 552.43L241.77 547.97L243.27 545.05L244.19 543.27L245.11 541.41L248.54 536.31L247.07 534.49L244.88 531.91L242.90 530.46L240.58 529.64L236.96 528.84L234.23 528.29L229.81 527.40L226.57 526.72L223.38 525.74L224.90 522.10L227.02 516.66L227.09 514.86L227.11 513.05L225.80 509.33L223.54 507.63L221.40 506.65L214.61 504.56L205.87 500.26L201.76 497.29L199.68 496.93L194.28 495.75L190.23 494.27L188.69 493.11L184.14 489.44L178.56 484.50L176.00 481.84L171.69 476.47L170.62 473.59L169.66 470.97L168.88 468.53L169.02 466.69L171.98 457.63L173.09 454.80L174.27 451.38L175.18 449.21L179.00 442.66L180.32 440.50L181.51 438.39L182.85 436.22L186.84 429.83L191.75 423.95L194.88 422.82L202.69 424.40L204.25 424.55L207.78 424.39L210.59 422.78L213.50 420.19L216.52 416.53L218.06 413.91L220.10 410.88L223.89 409.22L227.78 406.84L231.22 406.50L234.43 408.26L236.43 409.56L238.79 410.56L241.79 410.89L245.42 411.65L245.55 408.36L245.23 404.36L242.15 399.35L237.93 390.85L235.95 385.75L233.28 381.45L231.90 379.53L225.90 372.22L218.62 362.22L205.70 354.99L204.39 356.43L202.22 354.23L200.16 353.55L195.91 352.17L194.45 351.69L192.25 351.82L189.67 351.96L187.73 352.68L183.81 351.83L182.05 350.54L179.97 348.95L182.00 333.72L181.65 330.46L181.41 327.56Z" data-ward="15" /><path id="ward-8" class="ward" d="M840.08 633.76L842.86 629.94L844.85 626.91L845.75 625.53L848.92 613.81L850.22 609.91L851.72 608.35L856.00 607.16L859.24 605.41L867.16 603.70L812.73 574.17L810.61 575.72L808.21 577.24L805.14 578.25L803.46 578.35L802.15 579.44L797.66 583.20L797.39 589.82L797.29 592.36L796.53 596.86L796.26 598.41L795.91 602.10L795.11 610.41L795.14 612.77L795.16 614.55L795.90 619.30L796.96 626.12L796.36 630.22L794.99 631.96L791.63 633.66L785.29 635.14L782.06 636.27L780.42 636.77L776.19 636.74L773.15 636.12L762.90 634.48L759.03 632.67L755.20 630.39L753.45 629.28L750.12 627.89L743.93 628.10L738.40 629.22L735.26 630.06L732.52 631.34L730.66 632.22L733.16 638.58L735.48 644.53L738.09 648.39L740.85 644.83L744.58 644.24L748.71 645.39L752.11 651.64L752.25 653.62L753.02 664.68L753.09 666.31L753.68 676.09L756.79 684.66L759.84 693.04L769.10 706.97L772.30 711.78L781.09 717.11L798.75 718.59L806.31 726.18L811.98 736.67L814.08 740.28L820.18 750.31L828.33 751.49L833.33 752.21L841.12 751.13L849.87 749.92L853.81 748.65L863.88 745.41L866.86 745.47L869.27 743.50L871.80 741.44L873.73 739.87L876.85 737.31L879.35 730.52L880.82 727.67L883.73 724.58L884.07 722.56L883.97 720.12L881.23 710.67L880.83 708.94L877.47 709.03L873.04 708.23L871.18 707.96L867.86 708.18L865.83 708.51L862.90 708.87L861.10 708.69L858.85 708.23L855.74 707.56L856.40 705.57L857.27 702.24L858.07 700.54L859.40 699.70L862.28 700.42L864.01 699.84L865.14 697.28L864.17 695.73L862.63 692.78L862.92 689.49L864.59 681.29L869.19 680.97L870.34 679.72L869.34 675.14L865.03 675.06L860.93 674.36L859.06 673.31L856.99 671.28L855.52 669.14L846.70 659.27L838.86 651.17L832.50 643.34L834.79 642.29L837.92 638.34L840.08 633.76Z" data-ward="8" /><path id="ward-14" class="ward" d="M184.96 448.49L179.53 449.99L174.27 451.38L173.09 454.80L171.98 457.63L169.02 466.69L168.88 468.53L169.66 470.97L170.62 473.59L171.69 476.47L176.00 481.84L178.56 484.50L184.14 489.44L188.69 493.11L190.23 494.27L194.28 495.75L199.68 496.93L201.76 497.29L205.87 500.26L214.61 504.56L221.40 506.65L223.54 507.63L225.80 509.33L227.11 513.05L227.09 514.86L227.02 516.66L224.90 522.10L223.38 525.74L226.57 526.72L229.81 527.40L234.23 528.29L236.96 528.84L240.58 529.64L242.90 530.46L244.88 531.91L247.07 534.49L248.54 536.31L245.11 541.41L244.19 543.27L243.27 545.05L241.77 547.97L237.99 552.43L235.41 555.62L234.17 556.97L237.02 557.72L240.20 562.26L245.87 571.81L246.84 576.44L248.42 578.72L249.40 580.14L250.62 582.62L254.56 586.32L254.63 586.38L255.76 587.34L255.95 587.68L256.05 589.93L257.69 592.13L259.13 591.89L259.35 592.54L258.42 595.42L262.76 597.14L264.14 599.62L265.39 600.77L267.86 603.06L269.23 604.33L270.90 605.03L272.58 605.73L272.53 612.37L276.42 611.96L280.35 611.55L285.73 612.01L289.73 610.11L293.50 608.32L295.21 608.75L299.17 607.26L301.72 606.88L302.56 609.09L304.49 611.19L307.76 611.71L310.32 613.16L316.30 613.46L318.12 614.04L321.61 614.42L324.88 615.34L326.55 615.30L330.05 616.32L331.87 617.13L333.80 617.23L337.58 618.30L339.18 616.67L341.01 618.24L340.65 620.75L345.53 622.45L349.07 622.14L351.20 619.82L354.44 620.11L360.00 618.79L362.69 618.16L364.84 616.58L364.46 612.09L363.64 606.24L361.52 604.88L357.82 600.30L355.46 600.31L352.76 598.26L351.02 596.48L349.13 592.74L349.67 589.55L351.18 586.61L353.11 583.68L353.94 581.14L354.46 579.35L353.80 576.57L352.49 574.72L342.74 561.03L341.20 557.69L346.84 550.32L349.96 543.69L349.54 536.08L348.11 532.97L344.85 529.77L344.06 525.19L345.18 520.09L346.32 512.11L347.72 506.20L348.80 501.49L334.32 487.42L332.26 485.42L330.65 486.60L328.55 488.40L320.36 491.93L320.27 495.40L320.21 497.92L319.78 499.75L318.88 503.52L318.30 506.81L317.16 508.99L309.94 494.65L305.05 486.39L299.74 482.57L291.85 478.45L280.63 472.97L276.18 470.96L274.63 470.32L273.08 470.14L263.73 473.15L260.32 472.92L257.29 472.04L252.98 469.15L244.49 462.68L242.10 460.87L239.70 459.34L236.89 457.92L233.78 455.75L231.71 453.84L228.32 450.13L226.17 450.88L223.41 451.78L215.07 451.28L206.79 448.50L194.06 448.66L184.96 448.49Z" data-ward="14" /><path id="ward-3" class="ward" d="M576.59 127.24L564.76 125.83L559.97 124.38L543.23 120.66L533.51 119.49L525.42 116.45L515.10 115.68L510.41 115.33L497.42 114.49L495.44 114.36L491.94 114.14L491.60 116.36L489.44 122.81L489.32 126.91L489.54 130.49L489.02 134.26L488.17 137.74L486.62 141.13L485.51 144.62L487.42 146.77L491.25 149.81L490.04 151.42L482.62 154.63L471.46 152.04L467.89 158.22L464.46 164.57L463.34 166.19L462.25 167.39L460.42 169.54L458.62 172.95L457.41 176.04L456.87 178.39L455.02 180.10L451.01 182.51L449.37 183.49L446.44 184.81L444.72 185.47L439.93 187.42L437.87 190.09L424.49 192.19L414.19 196.33L403.64 202.18L400.68 204.95L394.90 211.97L402.92 228.77L405.11 233.08L404.95 237.49L402.70 244.36L393.98 252.15L392.44 253.10L389.42 254.97L392.17 258.19L394.67 259.61L396.95 260.44L398.46 261.19L398.55 264.73L398.75 266.42L400.39 270.48L402.39 270.23L405.95 270.05L409.14 269.45L411.13 269.13L413.64 268.76L415.49 268.51L418.15 268.29L420.54 268.21L423.50 268.15L426.36 268.11L430.55 268.14L434.51 268.51L440.25 269.26L441.88 269.04L445.16 268.61L447.91 267.85L450.52 267.15L452.48 266.04L458.74 262.42L462.34 260.38L464.25 259.06L465.71 257.60L466.90 255.53L468.72 254.03L470.35 253.33L472.62 252.35L473.94 254.64L474.86 256.96L475.93 259.61L476.97 261.48L478.29 263.93L479.58 266.06L480.60 267.66L481.56 269.16L482.56 270.32L485.50 272.46L487.52 272.49L489.14 272.48L494.22 271.46L497.35 270.74L500.03 270.49L506.51 273.00L515.36 276.36L517.05 276.70L521.81 275.93L528.48 275.76L533.44 276.70L535.80 279.06L537.85 283.18L540.92 288.16L543.94 291.21L545.16 292.16L547.35 293.86L549.85 296.54L551.28 298.37L553.37 302.74L556.12 307.46L557.47 309.99L559.17 312.08L562.35 315.52L574.11 322.11L577.46 324.61L589.48 335.26L599.46 343.95L601.29 346.10L602.17 347.94L603.22 350.54L603.77 353.72L604.72 374.35L606.76 379.59L608.99 382.64L610.28 384.25L610.78 386.55L612.24 393.18L613.77 398.66L614.02 401.51L614.65 408.55L617.44 407.51L621.50 405.99L624.40 404.34L625.94 403.18L627.57 397.79L629.49 389.48L629.86 387.88L628.57 383.35L637.85 376.25L639.28 375.33L643.21 379.28L647.00 383.58L648.33 384.49L652.00 385.19L654.76 387.00L659.45 388.04L662.21 390.07L667.53 393.07L669.20 394.34L678.04 400.50L681.50 402.75L681.97 400.78L681.47 398.04L681.95 395.36L682.95 393.22L685.68 390.45L684.50 380.30L655.33 323.15L655.90 318.50L654.91 315.31L653.45 310.74L652.42 307.58L604.65 239.17L609.63 237.30L612.42 235.31L615.28 233.89L618.72 228.95L621.29 229.96L623.33 231.92L625.78 235.13L628.44 239.18L632.47 242.18L640.67 245.46L650.62 249.85L653.34 250.41L657.32 252.66L661.50 255.31L663.49 255.67L666.70 255.10L668.66 255.36L670.38 256.22L673.33 257.22L676.46 256.26L678.21 254.78L680.10 249.11L681.22 244.64L681.76 241.07L680.96 236.23L679.57 234.15L679.27 232.42L680.67 231.67L682.42 230.09L680.67 224.10L679.91 221.07L673.30 211.60L672.19 210.14L671.65 201.92L671.36 197.12L668.31 191.61L665.85 182.19L663.39 180.37L658.26 176.57L655.68 174.67L649.59 170.16L647.54 168.65L643.99 166.02L639.24 162.52L637.59 159.95L637.85 158.74L637.26 157.14L636.36 156.34L636.57 155.27L635.59 155.07L634.61 152.49L633.41 149.01L631.67 141.93L627.68 131.11L622.21 131.47L620.43 130.93L609.31 127.57L606.86 130.54L603.18 131.01L600.08 131.40L587.72 127.68L581.95 127.89L576.59 127.24Z" data-ward="3" /><path id="ward-4" class="ward" d="M720.39 227.88L716.97 224.11L695.17 201.37L693.19 199.39L689.56 196.71L683.19 193.02L674.53 188.00L671.18 185.76L665.85 182.19L668.31 191.61L671.36 197.12L671.65 201.92L672.19 210.14L673.30 211.60L679.91 221.07L680.67 224.10L682.42 230.09L685.52 230.19L688.58 229.96L690.37 231.06L692.22 233.23L693.60 235.77L695.63 238.85L700.90 242.81L703.33 245.22L704.22 246.54L708.22 253.98L709.22 256.93L710.86 260.80L713.99 269.86L715.83 271.80L720.11 274.82L721.82 275.74L726.31 279.61L728.90 283.52L732.86 289.11L734.04 293.41L735.43 295.78L736.86 298.53L737.90 300.80L738.89 306.12L735.54 308.22L730.23 307.94L726.28 308.27L721.93 309.43L718.08 311.92L716.34 316.26L717.97 318.66L726.54 318.97L736.28 323.65L740.54 325.60L742.80 326.95L747.03 329.16L749.39 330.73L753.35 332.89L755.95 335.29L760.38 337.99L764.14 338.93L768.23 341.21L772.95 342.76L775.96 344.24L778.57 345.98L786.14 349.69L789.09 350.03L794.05 350.17L797.68 356.64L798.52 359.72L798.42 361.60L797.70 367.44L796.94 373.84L796.86 378.11L798.49 383.67L799.04 388.22L798.36 389.94L797.03 391.33L795.16 393.29L794.17 394.73L793.41 396.50L792.11 402.58L791.37 406.54L790.48 408.85L786.52 415.36L785.09 420.06L796.63 421.89L802.96 422.57L806.51 423.44L812.08 426.17L814.42 427.37L817.98 428.63L819.91 426.25L821.90 422.65L824.41 420.31L828.12 417.45L838.86 411.56L843.07 409.61L889.80 402.76L942.08 395.09L948.98 394.08L953.73 393.52L950.25 377.49L949.78 375.32L951.27 366.68L952.16 361.51L952.50 359.56L954.22 349.56L954.76 346.45L955.10 344.48L957.12 337.45L955.54 334.05L957.89 328.14L958.77 325.94L963.62 321.04L969.73 314.86L972.42 302.48L976.37 297.15L980.44 293.41L981.71 291.85L986.01 286.56L988.70 283.25L989.56 276.60L995.36 277.23L995.59 274.78L995.81 272.33L994.24 267.58L993.79 266.01L992.84 262.13L991.63 258.51L991.08 256.97L989.91 253.72L988.69 247.77L988.72 245.16L988.62 241.84L980.90 241.78L971.43 246.19L970.62 244.80L969.65 243.13L968.10 241.69L966.59 240.27L960.86 236.03L954.54 231.35L950.33 230.45L944.70 229.25L942.56 228.79L933.64 228.57L932.11 228.54L928.67 228.81L923.44 229.23L918.37 229.08L915.13 228.98L912.46 228.05L907.08 226.16L901.76 225.40L895.60 223.38L892.18 223.68L890.12 223.05L885.95 223.20L881.96 221.57L876.73 219.45L874.59 219.39L869.99 219.27L865.85 218.85L861.70 218.06L857.56 216.96L855.04 216.07L853.35 215.00L848.53 212.15L847.08 211.43L845.47 210.64L842.93 209.43L839.38 207.72L837.37 206.89L835.12 205.80L833.40 205.74L829.58 205.61L827.81 205.55L824.48 204.55L821.45 204.09L816.97 202.06L813.93 199.17L810.92 196.01L807.25 193.62L803.40 191.12L799.89 189.79L795.75 188.23L791.19 189.92L768.51 198.36L763.45 215.22L758.52 231.67L743.82 231.67L740.63 231.67L734.53 230.34L720.39 227.88Z" data-ward="4" /><path id="ward-11" class="ward" d="M457.33 366.45L452.80 361.62L448.32 359.11L445.09 358.01L442.23 357.50L438.96 358.37L437.53 359.13L435.76 360.24L432.74 362.75L431.39 364.99L430.32 366.56L429.25 367.95L426.20 368.70L423.96 368.69L421.05 376.35L418.07 384.74L415.76 391.93L415.60 398.73L416.31 403.29L418.89 412.02L420.47 416.13L425.17 423.71L431.19 430.89L439.21 436.65L444.55 439.19L448.10 440.58L452.94 441.85L456.57 442.44L462.02 443.08L470.77 442.79L478.82 442.62L481.87 442.32L485.93 442.72L487.56 443.23L490.20 444.43L491.45 446.42L491.49 448.59L489.83 455.16L488.70 457.58L487.78 460.65L486.39 464.27L480.05 479.33L487.34 481.40L492.19 481.24L491.49 491.51L497.22 492.77L508.56 502.57L512.32 505.21L516.83 506.75L529.40 515.25L542.29 529.24L545.68 531.25L557.47 539.65L560.84 542.86L559.81 551.06L562.00 552.06L569.73 554.56L559.31 569.67L555.53 580.97L551.48 589.81L545.40 598.16L543.60 601.50L541.61 604.03L539.01 601.79L535.50 599.41L532.04 597.74L528.41 596.69L524.40 595.92L520.42 595.16L517.41 594.04L508.69 601.81L501.81 607.94L504.28 610.53L508.90 615.40L511.09 617.72L513.93 620.71L517.10 623.15L521.18 625.04L523.89 625.52L530.51 626.69L533.47 627.19L540.82 627.47L548.39 626.84L554.34 626.34L562.04 626.63L568.53 626.88L575.67 627.15L585.11 631.29L590.37 633.60L593.06 635.31L600.17 639.16L606.54 640.65L609.45 641.39L618.10 643.56L623.12 645.27L626.37 646.28L632.15 647.66L644.46 648.77L644.79 647.05L649.96 614.76L648.86 612.69L647.93 609.64L647.66 607.13L645.05 601.09L640.36 594.90L637.91 592.17L635.92 589.34L634.24 586.31L633.47 583.69L632.74 581.39L632.51 579.71L632.91 576.32L632.00 574.93L630.38 574.78L625.93 574.83L623.34 574.34L616.54 572.04L619.06 568.84L620.89 563.77L620.94 555.51L620.28 548.86L620.34 543.19L620.89 539.35L620.89 531.98L622.54 525.47L613.37 501.49L613.77 489.78L609.15 483.91L599.08 476.17L592.82 471.28L587.72 464.91L585.22 461.39L583.66 459.51L581.25 457.96L579.12 457.07L576.21 456.51L574.13 455.00L570.71 449.99L569.31 447.68L569.24 443.03L569.90 440.68L569.16 436.34L567.63 431.11L565.86 430.60L564.22 431.65L561.82 433.56L559.03 435.18L556.84 435.68L553.34 435.64L551.53 435.46L548.49 434.70L545.66 433.07L542.97 430.73L539.62 427.60L538.11 426.11L535.96 424.10L531.84 421.76L528.27 419.64L526.15 418.11L524.76 416.54L521.72 411.82L517.84 409.25L513.39 406.25L511.14 404.84L504.64 401.21L497.51 394.71L493.82 391.72L487.60 385.90L483.70 382.83L478.07 378.59L474.99 376.12L469.25 372.51L463.10 369.28L457.33 366.45Z" data-ward="11" /><path id="ward-16" class="ward" d="M275.54 169.44L239.02 133.91L234.64 141.57L230.77 147.80L223.19 160.03L223.14 165.22L221.39 166.62L218.41 172.54L214.44 168.13L212.32 168.56L208.18 169.12L198.56 176.10L189.97 185.03L182.56 195.65L178.22 199.45L167.22 209.08L164.60 215.56L158.88 221.11L156.86 223.06L151.61 227.01L142.83 233.59L141.80 235.89L129.97 243.55L130.24 245.33L130.78 247.91L130.92 250.54L131.26 256.84L130.58 264.62L129.58 276.14L130.17 278.43L130.69 281.66L132.36 291.94L138.71 307.46L139.00 309.11L139.84 313.88L139.58 318.97L135.82 323.02L132.10 327.02L126.49 330.03L134.79 330.33L144.57 328.66L152.74 327.26L156.48 322.79L161.25 321.81L165.06 321.03L170.53 315.94L172.73 317.82L175.25 319.98L180.45 324.91L181.41 327.56L181.65 330.46L182.00 333.72L179.97 348.95L182.05 350.54L183.81 351.83L187.73 352.68L189.67 351.96L192.25 351.82L194.45 351.69L195.91 352.17L200.16 353.55L202.22 354.23L204.39 356.43L205.70 354.99L218.62 362.22L225.90 372.22L231.90 379.53L233.28 381.45L235.95 385.75L237.93 390.85L242.15 399.35L245.23 404.36L245.55 408.36L245.42 411.65L247.76 413.81L249.04 415.05L251.01 416.47L252.48 416.94L256.59 417.32L259.37 417.39L261.87 416.72L263.18 415.61L266.10 414.87L268.57 415.38L271.88 414.94L274.53 415.11L277.69 414.98L279.92 414.60L281.82 414.60L283.71 414.60L285.61 414.60L289.16 415.96L291.43 416.15L294.38 416.06L296.06 416.29L297.75 416.52L301.42 418.59L304.35 420.99L308.24 424.26L310.84 426.21L312.61 427.41L314.97 429.33L316.96 432.92L321.89 441.80L322.80 438.67L324.31 437.60L327.80 436.41L329.27 433.90L331.65 429.76L334.71 424.43L335.86 422.91L337.62 420.58L343.00 413.37L346.75 398.77L346.24 390.65L344.03 385.85L339.57 380.22L335.88 375.53L331.67 372.53L327.92 368.28L324.15 368.36L320.83 371.23L316.50 375.27L310.06 378.57L307.53 377.96L305.87 375.20L304.22 372.44L305.30 369.87L308.46 347.10L303.99 338.25L296.61 323.61L289.65 316.94L286.48 310.93L285.99 309.03L286.38 301.80L286.53 300.24L287.02 294.97L285.75 290.48L285.09 288.68L283.53 285.19L280.95 282.18L276.62 276.32L274.20 274.09L272.52 269.46L278.23 267.33L289.04 261.30L292.06 260.85L293.53 259.77L295.13 257.09L298.41 256.40L301.50 248.14L305.12 246.00L308.75 240.02L309.57 227.34L310.42 224.37L309.44 220.61L309.97 217.80L309.13 213.20L303.36 208.09L301.13 206.11L296.61 200.12L293.58 192.34L290.75 185.94L285.54 181.74L283.31 174.54L275.54 169.44Z" data-ward="16" /><path id="ward-13" class="ward" d="M256.59 417.32L252.48 416.94L251.01 416.47L249.04 415.05L247.76 413.81L245.42 411.65L241.79 410.89L238.79 410.56L236.43 409.56L234.43 408.26L231.22 406.50L227.78 406.84L223.89 409.22L220.10 410.88L218.06 413.91L216.52 416.53L213.50 420.19L210.59 422.78L207.78 424.39L204.25 424.55L202.69 424.40L194.88 422.82L191.75 423.95L186.84 429.83L182.85 436.22L181.51 438.39L180.32 440.50L179.00 442.66L175.18 449.21L174.27 451.38L179.53 449.99L184.96 448.49L194.06 448.66L206.79 448.50L215.07 451.28L223.41 451.78L226.17 450.88L228.32 450.13L231.71 453.84L233.78 455.75L236.89 457.92L239.70 459.34L242.10 460.87L244.49 462.68L252.98 469.15L257.29 472.04L260.32 472.92L263.73 473.15L273.08 470.14L274.63 470.32L276.18 470.96L280.63 472.97L291.85 478.45L299.74 482.57L305.05 486.39L309.94 494.65L317.16 508.99L318.30 506.81L318.88 503.52L319.78 499.75L320.21 497.92L320.27 495.40L320.36 491.93L328.55 488.40L330.65 486.60L332.26 485.42L334.32 487.42L348.80 501.49L347.72 506.20L346.32 512.11L345.18 520.09L344.06 525.19L344.85 529.77L348.11 532.97L349.54 536.08L349.96 543.69L346.84 550.32L341.20 557.69L342.74 561.03L352.49 574.72L353.80 576.57L354.46 579.35L353.94 581.14L353.11 583.68L351.18 586.61L349.67 589.55L349.13 592.74L351.02 596.48L352.76 598.26L355.46 600.31L357.82 600.30L361.52 604.88L363.64 606.24L364.48 605.69L366.16 606.78L367.85 608.55L370.08 609.79L373.95 610.71L377.34 611.52L379.40 611.97L381.77 613.37L385.21 616.21L387.02 619.17L389.52 622.98L390.89 627.65L392.46 629.25L396.82 628.79L399.66 628.91L404.64 635.80L405.56 637.13L408.07 637.89L410.59 636.46L411.14 636.23L415.69 634.96L420.49 634.43L420.85 634.41L424.07 634.46L432.62 634.90L438.06 635.68L438.39 635.74L439.75 636.08L445.95 638.03L448.00 638.76L449.24 639.60L449.89 640.29L450.95 642.85L451.54 646.72L451.58 647.09L451.62 648.32L451.62 648.41L452.03 655.00L452.04 655.11L452.67 660.87L452.71 661.12L453.51 665.04L453.68 665.62L453.69 665.63L456.38 668.48L457.00 668.97L460.77 671.21L461.11 671.39L461.27 671.47L467.97 672.46L468.60 672.50L471.67 672.44L475.35 671.75L475.36 671.75L481.50 670.58L482.10 670.41L483.10 670.03L487.51 667.30L487.96 666.97L489.06 665.98L490.74 663.25L490.95 662.81L492.94 657.32L492.97 657.22L493.29 656.21L494.23 651.84L494.27 651.59L494.87 646.49L494.76 645.09L494.71 644.74L494.15 642.00L493.36 640.58L493.01 640.14L489.31 636.75L489.27 636.72L485.93 633.83L485.91 633.81L484.69 632.72L478.33 626.39L478.31 626.38L472.71 620.94L471.03 619.21L470.91 619.07L468.11 615.42L464.44 609.93L464.08 609.30L463.97 609.09L461.47 603.57L460.17 599.64L460.04 599.00L459.85 596.51L460.17 592.85L460.93 588.68L461.41 586.33L461.78 585.42L462.39 584.44L464.48 582.12L466.79 580.35L467.59 579.89L467.98 579.88L471.32 579.98L471.51 579.98L473.52 579.92L474.18 579.97L475.83 580.24L480.18 582.29L480.66 582.57L481.34 583.09L482.89 584.60L485.89 588.42L485.91 588.44L487.17 590.03L487.22 590.09L489.41 592.96L490.30 594.33L490.42 594.54L492.06 597.54L492.11 597.63L495.17 602.82L495.30 603.02L497.07 605.60L498.83 607.52L498.87 607.56L498.90 607.59L501.81 607.94L508.69 601.81L517.41 594.04L511.34 591.92L504.99 587.57L495.85 581.71L486.76 574.71L483.90 573.31L478.91 570.63L477.30 570.20L470.94 569.33L463.50 568.96L458.43 568.19L446.87 567.67L441.13 566.74L437.56 564.99L435.50 563.34L434.16 562.25L432.98 561.26L430.73 559.35L427.52 557.08L425.61 555.91L424.12 555.45L413.18 554.91L410.61 535.85L402.97 528.51L405.58 503.84L403.98 502.30L400.52 501.74L398.37 501.56L396.50 499.99L393.14 497.17L389.12 491.80L388.79 489.29L384.10 483.33L357.99 464.09L349.40 461.39L344.88 463.43L327.80 436.41L324.31 437.60L322.80 438.67L321.89 441.80L316.96 432.92L314.97 429.33L312.61 427.41L310.84 426.21L308.24 424.26L304.35 420.99L301.42 418.59L297.75 416.52L296.06 416.29L294.38 416.06L291.43 416.15L289.16 415.96L285.61 414.60L283.71 414.60L281.82 414.60L279.92 414.60L277.69 414.98L274.53 415.11L271.88 414.94L268.57 415.38L266.10 414.87L263.18 415.61L261.87 416.72L259.37 417.39L256.59 417.32Z" data-ward="13" /><path id="ward-1" class="ward" d="M311.14 1.30L309.61 1.29L307.73 0.19L305.47 0.00L305.69 2.69L304.26 10.20L303.30 15.24L301.77 16.92L299.57 18.19L298.07 21.00L297.40 24.97L297.01 27.30L295.57 35.89L293.14 39.36L291.86 40.20L282.85 46.39L275.04 51.14L274.06 52.88L268.88 54.52L264.07 62.89L263.90 64.57L261.88 67.13L259.73 71.42L258.97 74.54L257.38 76.01L255.66 76.86L249.30 80.02L245.26 83.98L243.68 85.54L241.77 85.88L238.47 86.47L235.75 86.69L223.00 95.70L219.35 101.09L208.44 113.10L201.83 120.38L198.89 127.38L198.15 129.15L187.98 140.60L186.05 142.90L174.77 156.63L173.38 158.32L171.67 161.48L169.58 165.33L168.90 166.92L169.01 169.83L169.56 175.39L170.25 182.22L171.05 190.14L169.16 196.03L168.09 199.39L167.44 206.61L167.22 209.08L178.22 199.45L182.56 195.65L189.97 185.03L198.56 176.10L208.18 169.12L212.32 168.56L214.44 168.13L218.41 172.54L221.39 166.62L223.14 165.22L223.19 160.03L230.77 147.80L234.64 141.57L239.02 133.91L275.54 169.44L283.31 174.54L285.54 181.74L290.75 185.94L293.58 192.34L296.61 200.12L301.13 206.11L303.36 208.09L309.13 213.20L317.22 207.49L319.01 206.25L322.43 204.67L325.47 203.72L327.95 204.22L329.80 205.60L332.10 207.55L334.18 209.27L339.26 214.06L340.51 215.09L343.73 217.49L347.98 219.88L356.88 219.27L365.02 219.26L370.05 219.97L376.99 221.90L375.48 223.88L375.18 225.49L376.14 229.29L376.43 235.42L376.45 238.16L376.81 239.72L378.34 241.26L381.12 243.65L385.53 249.92L386.36 251.21L387.22 252.63L389.42 254.97L392.44 253.10L393.98 252.15L402.70 244.36L404.95 237.49L405.11 233.08L402.92 228.77L394.90 211.97L400.68 204.95L403.64 202.18L414.19 196.33L424.49 192.19L437.87 190.09L439.93 187.42L444.72 185.47L446.44 184.81L449.37 183.49L451.01 182.51L455.02 180.10L456.87 178.39L457.41 176.04L458.62 172.95L460.42 169.54L462.25 167.39L463.34 166.19L464.46 164.57L467.89 158.22L471.46 152.04L482.62 154.63L490.04 151.42L491.25 149.81L487.42 146.77L485.51 144.62L486.62 141.13L488.17 137.74L489.02 134.26L489.54 130.49L489.32 126.91L489.44 122.81L491.60 116.36L491.94 114.14L489.47 113.98L487.76 113.87L486.08 113.76L483.18 113.57L481.46 113.46L479.40 113.32L477.34 113.19L474.42 113.00L464.42 112.35L462.35 107.17L458.92 106.56L456.68 106.16L454.52 103.35L453.36 104.63L450.95 104.03L448.85 103.89L446.98 103.57L444.40 102.63L442.28 101.85L440.24 100.36L438.00 99.70L433.20 98.46L430.81 99.66L428.44 98.95L426.08 98.24L423.43 97.44L421.12 97.09L419.32 95.36L417.67 93.03L416.09 91.44L414.52 89.86L412.95 88.69L411.24 87.80L409.16 86.72L406.38 84.85L404.26 83.43L402.82 82.46L402.15 80.24L401.65 78.58L400.43 76.80L398.31 74.81L397.25 73.62L395.76 71.93L394.78 70.27L393.20 67.59L389.19 63.62L386.98 62.12L385.28 60.96L382.82 57.35L378.90 53.27L375.06 49.26L373.85 47.16L373.10 44.08L372.33 42.39L368.10 39.62L364.69 36.65L363.18 35.35L359.66 32.42L354.81 28.39L351.28 25.21L349.01 23.18L347.76 22.05L344.39 21.04L339.82 19.35L337.41 13.49L330.68 7.72L329.26 6.51L326.59 6.51L320.16 6.53L314.80 6.54L314.86 2.40L312.33 2.55L311.14 1.30Z" data-ward="1" /><path id="ward-5" class="ward" d="M661.50 255.31L657.32 252.66L653.34 250.41L650.62 249.85L640.67 245.46L632.47 242.18L628.44 239.18L625.78 235.13L623.33 231.92L621.29 229.96L618.72 228.95L615.28 233.89L612.42 235.31L609.63 237.30L604.65 239.17L652.42 307.58L653.45 310.74L654.91 315.31L655.90 318.50L655.33 323.15L684.50 380.30L685.68 390.45L682.95 393.22L681.95 395.36L681.47 398.04L681.97 400.78L681.50 402.75L682.24 404.29L684.46 408.90L688.97 412.62L700.39 417.35L701.95 415.34L710.63 423.05L719.64 430.70L726.56 442.71L733.43 450.33L733.33 455.03L730.94 461.20L731.74 466.53L736.06 469.05L737.52 472.32L740.30 480.12L744.32 484.43L746.60 490.89L745.67 496.68L745.24 499.31L760.29 513.30L792.70 516.68L797.83 511.77L801.83 505.58L808.12 504.59L817.85 505.49L827.58 506.94L834.38 509.44L831.06 532.34L896.60 451.32L889.80 402.76L843.07 409.61L838.86 411.56L828.12 417.45L824.41 420.31L821.90 422.65L819.91 426.25L817.98 428.63L814.42 427.37L812.08 426.17L806.51 423.44L802.96 422.57L796.63 421.89L785.09 420.06L786.52 415.36L790.48 408.85L791.37 406.54L792.11 402.58L793.41 396.50L794.17 394.73L795.16 393.29L797.03 391.33L798.36 389.94L799.04 388.22L798.49 383.67L796.86 378.11L796.94 373.84L797.70 367.44L798.42 361.60L798.52 359.72L797.68 356.64L794.05 350.17L789.09 350.03L786.14 349.69L778.57 345.98L775.96 344.24L772.95 342.76L768.23 341.21L764.14 338.93L760.38 337.99L755.95 335.29L753.35 332.89L749.39 330.73L747.03 329.16L742.80 326.95L740.54 325.60L736.28 323.65L726.54 318.97L717.97 318.66L716.34 316.26L718.08 311.92L721.93 309.43L726.28 308.27L730.23 307.94L735.54 308.22L738.89 306.12L737.90 300.80L736.86 298.53L735.43 295.78L734.04 293.41L732.86 289.11L728.90 283.52L726.31 279.61L721.82 275.74L720.11 274.82L715.83 271.80L713.99 269.86L710.86 260.80L709.22 256.93L708.22 253.98L704.22 246.54L703.33 245.22L700.90 242.81L695.63 238.85L693.60 235.77L692.22 233.23L690.37 231.06L688.58 229.96L685.52 230.19L682.42 230.09L680.67 231.67L679.27 232.42L679.57 234.15L680.96 236.23L681.76 241.07L681.22 244.64L680.10 249.11L678.21 254.78L676.46 256.26L673.33 257.22L670.38 256.22L668.66 255.36L666.70 255.10L663.49 255.67L661.50 255.31Z" data-ward="5" /><path id="ward-12" class="ward" d="M334.06 371.67L327.92 368.28L331.67 372.53L335.88 375.53L339.57 380.22L344.03 385.85L346.24 390.65L346.75 398.77L343.00 413.37L337.62 420.58L335.86 422.91L334.71 424.43L331.65 429.76L329.27 433.90L327.80 436.41L344.88 463.43L349.40 461.39L357.99 464.09L384.10 483.33L388.79 489.29L389.12 491.80L393.14 497.17L396.50 499.99L398.37 501.56L400.52 501.74L403.98 502.30L405.58 503.84L402.97 528.51L410.61 535.85L413.18 554.91L424.12 555.45L425.61 555.91L427.52 557.08L430.73 559.35L432.98 561.26L434.16 562.25L435.50 563.34L437.56 564.99L441.13 566.74L446.87 567.67L458.43 568.19L463.50 568.96L470.94 569.33L477.30 570.20L478.91 570.63L483.90 573.31L486.76 574.71L495.85 581.71L504.99 587.57L511.34 591.92L517.41 594.04L520.42 595.16L524.40 595.92L528.41 596.69L532.04 597.74L535.50 599.41L539.01 601.79L541.61 604.03L543.60 601.50L545.40 598.16L551.48 589.81L555.53 580.97L559.31 569.67L569.73 554.56L562.00 552.06L559.81 551.06L560.84 542.86L557.47 539.65L545.68 531.25L542.29 529.24L529.40 515.25L516.83 506.75L512.32 505.21L508.56 502.57L497.22 492.77L491.49 491.51L492.19 481.24L487.34 481.40L480.05 479.33L486.39 464.27L487.78 460.65L488.70 457.58L489.83 455.16L491.49 448.59L491.45 446.42L490.20 444.43L487.56 443.23L485.93 442.72L481.87 442.32L478.82 442.62L470.77 442.79L462.02 443.08L456.57 442.44L452.94 441.85L448.10 440.58L444.55 439.19L439.21 436.65L431.19 430.89L425.17 423.71L420.47 416.13L418.89 412.02L416.31 403.29L409.56 400.39L383.46 394.85L375.10 395.09L371.94 395.18L334.06 371.67Z" data-ward="12" /><path id="ward-2" class="ward" d="M343.73 217.49L340.51 215.09L339.26 214.06L334.18 209.27L332.10 207.55L329.80 205.60L327.95 204.22L325.47 203.72L322.43 204.67L319.01 206.25L317.22 207.49L309.13 213.20L309.97 217.80L309.44 220.61L310.42 224.37L309.57 227.34L308.75 240.02L305.12 246.00L301.50 248.14L298.41 256.40L295.13 257.09L293.53 259.77L292.06 260.85L289.04 261.30L278.23 267.33L272.52 269.46L274.20 274.09L276.62 276.32L280.95 282.18L283.53 285.19L285.09 288.68L285.75 290.48L287.02 294.97L286.53 300.24L286.38 301.80L285.99 309.03L286.48 310.93L289.65 316.94L296.61 323.61L303.99 338.25L308.46 347.10L305.30 369.87L304.22 372.44L305.87 375.20L307.53 377.96L310.06 378.57L316.50 375.27L320.83 371.23L324.15 368.36L327.92 368.28L334.06 371.67L371.94 395.18L375.10 395.09L383.46 394.85L409.56 400.39L416.31 403.29L415.60 398.73L415.76 391.93L418.07 384.74L421.05 376.35L423.96 368.69L426.20 368.70L429.25 367.95L430.32 366.56L431.39 364.99L432.74 362.75L435.76 360.24L437.53 359.13L438.96 358.37L442.23 357.50L445.09 358.01L448.32 359.11L452.80 361.62L457.33 366.45L463.10 369.28L469.25 372.51L474.99 376.12L478.07 378.59L483.70 382.83L487.60 385.90L493.82 391.72L497.51 394.71L504.64 401.21L509.81 396.25L515.16 395.02L519.87 396.04L526.04 395.68L523.91 393.51L516.99 386.47L507.44 356.92L505.55 326.59L492.11 313.00L479.70 308.22L477.19 302.17L457.81 276.72L450.52 267.15L447.91 267.85L445.16 268.61L441.88 269.04L440.25 269.26L434.51 268.51L430.55 268.14L426.36 268.11L423.50 268.15L420.54 268.21L418.15 268.29L415.49 268.51L413.64 268.76L411.13 269.13L409.14 269.45L405.95 270.05L402.39 270.23L400.39 270.48L398.75 266.42L398.55 264.73L398.46 261.19L396.95 260.44L394.67 259.61L392.17 258.19L389.42 254.97L387.22 252.63L386.36 251.21L385.53 249.92L381.12 243.65L378.34 241.26L376.81 239.72L376.45 238.16L376.43 235.42L376.14 229.29L375.18 225.49L375.48 223.88L376.99 221.90L370.05 219.97L365.02 219.26L356.88 219.27L347.98 219.88L343.73 217.49Z" data-ward="2" /><path id="ward-9" class="ward" d="M745.24 499.31L728.67 499.22L704.49 506.69L695.52 503.64L690.81 502.92L688.15 501.24L682.23 504.73L676.96 508.05L671.29 510.34L665.40 511.98L668.17 536.59L668.28 553.27L669.91 557.74L660.09 566.43L657.92 568.36L647.01 571.84L632.91 576.32L632.51 579.71L632.74 581.39L633.47 583.69L634.24 586.31L635.92 589.34L637.91 592.17L640.36 594.90L645.05 601.09L647.66 607.13L647.93 609.64L648.86 612.69L649.96 614.76L644.79 647.05L644.46 648.77L648.59 649.14L655.10 648.68L658.46 649.99L663.06 651.78L682.43 660.12L691.11 666.90L692.87 667.19L698.97 671.48L702.43 677.39L706.09 683.68L710.82 690.26L715.86 697.10L722.02 702.39L728.21 701.86L730.71 700.10L733.24 698.32L735.71 692.12L736.20 684.78L735.61 677.95L734.54 669.84L733.29 662.04L732.41 655.08L738.09 648.39L735.48 644.53L733.16 638.58L730.66 632.22L732.52 631.34L735.26 630.06L738.40 629.22L743.93 628.10L750.12 627.89L753.45 629.28L755.20 630.39L759.03 632.67L762.90 634.48L773.15 636.12L776.19 636.74L780.42 636.77L782.06 636.27L785.29 635.14L791.63 633.66L794.99 631.96L796.36 630.22L796.96 626.12L795.90 619.30L795.16 614.55L795.14 612.77L795.11 610.41L795.91 602.10L796.26 598.41L796.53 596.86L797.29 592.36L797.39 589.82L797.66 583.20L802.15 579.44L798.06 578.35L796.63 578.92L793.62 580.31L790.90 579.73L786.95 579.18L784.83 578.99L781.87 579.02L779.60 578.59L775.16 578.24L774.05 575.32L774.30 573.32L774.66 570.67L774.91 567.09L775.03 564.04L774.75 561.88L778.68 562.15L783.47 562.03L784.15 558.96L784.63 549.31L784.65 547.13L787.71 539.94L787.48 538.31L786.97 534.79L788.99 528.28L789.90 526.60L792.53 525.80L794.67 525.14L797.43 524.52L798.15 522.45L799.05 518.60L799.25 515.38L797.83 511.77L792.70 516.68L760.29 513.30L745.24 499.31Z" data-ward="9" /><path id="ward-10" class="ward" d="M485.50 272.46L482.56 270.32L481.56 269.16L480.60 267.66L479.58 266.06L478.29 263.93L476.97 261.48L475.93 259.61L474.86 256.96L473.94 254.64L472.62 252.35L470.35 253.33L468.72 254.03L466.90 255.53L465.71 257.60L464.25 259.06L462.34 260.38L458.74 262.42L452.48 266.04L450.52 267.15L457.81 276.72L477.19 302.17L479.70 308.22L492.11 313.00L505.55 326.59L507.44 356.92L516.99 386.47L523.91 393.51L526.04 395.68L519.87 396.04L515.16 395.02L509.81 396.25L504.64 401.21L511.14 404.84L513.39 406.25L517.84 409.25L521.72 411.82L524.76 416.54L526.15 418.11L528.27 419.64L531.84 421.76L535.96 424.10L538.11 426.11L539.62 427.60L542.97 430.73L545.66 433.07L548.49 434.70L551.53 435.46L553.34 435.64L556.84 435.68L559.03 435.18L561.82 433.56L564.22 431.65L565.86 430.60L567.63 431.11L569.16 436.34L569.90 440.68L569.24 443.03L569.31 447.68L570.71 449.99L574.13 455.00L576.21 456.51L579.12 457.07L581.25 457.96L583.66 459.51L585.22 461.39L587.72 464.91L592.82 471.28L599.08 476.17L609.15 483.91L613.77 489.78L613.37 501.49L622.54 525.47L620.89 531.98L620.89 539.35L620.34 543.19L620.28 548.86L620.94 555.51L620.89 563.77L619.06 568.84L616.54 572.04L623.34 574.34L625.93 574.83L630.38 574.78L632.00 574.93L632.91 576.32L647.01 571.84L657.92 568.36L660.09 566.43L669.91 557.74L668.28 553.27L668.17 536.59L665.40 511.98L671.29 510.34L676.96 508.05L682.23 504.73L688.15 501.24L690.81 502.92L695.52 503.64L704.49 506.69L728.67 499.22L745.24 499.31L745.67 496.68L746.60 490.89L744.32 484.43L740.30 480.12L737.52 472.32L736.06 469.05L731.74 466.53L730.94 461.20L733.33 455.03L733.43 450.33L726.56 442.71L719.64 430.70L710.63 423.05L701.95 415.34L700.39 417.35L688.97 412.62L684.46 408.90L682.24 404.29L681.50 402.75L678.04 400.50L669.20 394.34L667.53 393.07L662.21 390.07L659.45 388.04L654.76 387.00L652.00 385.19L648.33 384.49L647.00 383.58L643.21 379.28L639.28 375.33L637.85 376.25L628.57 383.35L629.86 387.88L629.49 389.48L627.57 397.79L625.94 403.18L624.40 404.34L621.50 405.99L617.44 407.51L614.65 408.55L614.02 401.51L613.77 398.66L612.24 393.18L610.78 386.55L610.28 384.25L608.99 382.64L606.76 379.59L604.72 374.35L603.77 353.72L603.22 350.54L602.17 347.94L601.29 346.10L599.46 343.95L589.48 335.26L577.46 324.61L574.11 322.11L562.35 315.52L559.17 312.08L557.47 309.99L556.12 307.46L553.37 302.74L551.28 298.37L549.85 296.54L547.35 293.86L545.16 292.16L543.94 291.21L540.92 288.16L537.85 283.18L535.80 279.06L533.44 276.70L528.48 275.76L521.81 275.93L517.05 276.70L515.36 276.36L506.51 273.00L500.03 270.49L497.35 270.74L494.22 271.46L489.14 272.48L487.52 272.49L485.50 272.46Z" data-ward="10" /></svg>