<svg viewBox="0 0 1000.00 973.62" xmlns="http://www.w3.org/2000/svg"><style>.ward { fill: #e2e8f0; stroke: #fff; stroke-width: 0.5px; } .ward:hover { fill: #cbd5e1; }</style><path id="ward-10" class="ward" d="M623.04 528.27L616.55 526.67L613.37 525.60L607.88 523.33L600.73 522.61L595.60 522.41L589.67 520.73L587.45 520.00L577.29 516.97L572.30 515.48L570.81 517.62L565.53 525.13L558.11 538.17L552.45 549.36L550.15 554.25L548.34 558.07L546.00 563.02L543.19 568.95L540.07 575.52L535.28 586.68L533.49 591.62L532.00 595.73L531.20 597.92L528.41 605.61L529.58 615.42L529.88 617.32L531.39 626.69L533.88 634.91L534.69 637.12L536.12 639.44L537.63 641.91L549.47 636.82L555.73 634.57L564.79 631.31L566.58 630.67L573.98 628.62L586.67 630.48L596.07 631.54L599.65 631.95L601.85 632.20L604.14 632.46L606.21 632.23L614.88 631.27L618.92 630.82L622.18 629.98L628.59 628.33L635.11 626.63L641.81 622.31L644.97 620.27L649.03 617.58L650.66 615.72L656.90 609.79L663.16 603.85L669.69 600.10L681.04 596.50L680.02 591.85L677.51 588.76L677.18 584.49L676.60 577.87L676.44 574.34L676.06 570.72L675.56 563.19L675.18 558.23L674.99 555.81L674.76 552.86L674.38 547.95L675.71 540.22L676.03 537.13L676.35 532.44L669.20 531.30L667.90 533.94L663.26 532.38L658.65 531.09L655.57 529.81L652.50 528.54L649.06 526.57L646.95 525.03L645.56 523.32L637.00 522.15L633.82 521.72L632.34 525.16L630.25 530.01L623.04 528.27Z" data-ward="10" /><path id="ward-14" class="ward" d="M520.74 780.61L518.48 775.34L513.40 772.51L510.60 772.17L506.48 772.66L502.17 773.52L498.75 774.10L494.22 774.88L488.73 775.70L484.39 776.33L469.47 777.80L465.25 778.54L462.44 779.20L458.99 779.67L455.54 780.13L452.14 780.75L449.05 781.32L447.01 781.59L443.97 781.99L440.26 782.07L436.56 782.14L432.98 781.96L435.22 786.59L436.75 788.43L438.77 790.89L441.27 793.97L445.20 798.81L448.35 802.55L451.29 806.19L455.38 811.31L458.06 814.86L462.36 820.21L465.41 824.06L467.68 826.90L470.70 830.72L472.29 832.72L475.53 836.80L476.92 838.55L479.89 842.29L481.38 844.17L486.89 851.02L490.18 855.01L494.74 860.61L501.59 869.19L503.07 870.95L504.86 873.08L511.09 880.48L515.00 885.27L516.93 887.63L518.75 889.86L522.24 894.14L527.27 900.60L530.56 905.17L533.14 908.62L534.66 910.47L537.14 913.50L541.25 918.15L544.52 922.31L548.01 926.75L550.09 929.54L553.19 933.28L557.87 939.19L559.43 941.18L564.38 947.33L569.96 940.87L572.34 938.04L574.01 936.11L575.39 934.51L577.49 932.04L579.60 929.55L580.98 928.03L583.74 924.99L585.20 922.95L587.50 919.70L588.61 918.16L591.80 915.20L594.30 912.88L596.25 911.07L597.83 909.61L599.61 907.96L600.83 906.44L602.62 904.22L603.97 902.54L606.26 900.06L607.78 898.42L609.42 896.64L611.31 894.12L613.26 891.50L609.26 887.00L606.48 883.79L605.19 882.32L603.89 880.76L602.14 878.65L599.96 876.04L597.78 873.42L594.68 869.65L591.64 865.59L588.17 860.92L583.41 854.91L581.92 853.02L578.80 849.23L576.14 845.77L573.11 841.83L570.14 837.78L564.04 830.27L558.48 824.18L552.61 818.47L551.30 817.18L543.96 809.98L540.81 806.95L538.39 804.63L534.52 800.91L531.44 797.49L528.35 794.05L524.01 787.26L520.74 780.61Z" data-ward="14" /><path id="ward-13" class="ward" d="M538.14 646.46L537.63 641.91L532.92 643.22L529.92 644.37L526.81 645.50L524.66 646.27L520.29 648.02L515.94 649.76L512.80 651.15L509.68 652.23L505.98 653.49L502.79 654.58L499.99 655.56L497.21 656.55L486.96 660.50L480.64 663.32L476.33 663.29L478.55 669.65L479.68 672.88L480.86 676.25L481.98 679.44L483.13 682.71L485.36 689.08L486.09 691.19L489.04 699.67L489.73 701.61L491.67 707.03L492.66 709.79L494.07 713.49L496.14 718.92L496.99 721.16L498.53 724.98L500.07 728.79L503.25 735.76L506.08 743.93L510.16 754.18L511.13 756.57L514.35 764.47L516.81 770.26L518.48 775.34L520.74 780.61L524.01 787.26L528.35 794.05L531.44 797.49L534.52 800.91L538.39 804.63L540.81 806.95L543.96 809.98L551.30 817.18L552.61 818.47L558.48 824.18L564.04 830.27L570.14 837.78L573.11 841.83L576.14 845.77L578.80 849.23L581.92 853.02L583.41 854.91L588.17 860.92L591.64 865.59L594.68 869.65L597.78 873.42L599.96 876.04L602.14 878.65L603.89 880.76L605.19 882.32L606.48 883.79L609.26 887.00L613.26 891.50L616.55 891.43L620.44 887.51L623.49 884.28L626.34 882.25L628.56 879.92L630.91 877.22L634.12 873.83L636.21 871.62L637.47 870.29L639.50 868.15L640.96 866.71L642.67 865.02L647.21 860.54L648.74 859.03L650.55 856.69L653.19 854.95L655.54 853.40L658.35 851.55L661.34 849.57L663.38 848.23L663.59 842.83L664.64 839.43L665.66 836.11L666.74 833.18L667.81 830.25L669.00 828.35L670.17 826.45L670.98 822.86L669.86 819.26L669.88 816.71L671.76 814.34L674.43 810.98L676.37 809.94L679.73 808.22L682.03 805.60L684.04 802.67L684.75 800.98L685.52 799.15L685.75 796.52L686.18 792.86L687.16 790.74L688.12 788.25L688.69 786.49L689.28 784.68L690.14 781.08L691.19 777.05L691.44 773.83L691.78 769.49L692.28 767.22L694.13 759.89L694.79 757.29L695.40 753.88L696.41 751.12L697.21 749.42L698.25 747.21L698.28 743.70L698.09 741.71L697.91 739.88L697.08 737.46L695.92 733.33L695.00 729.39L695.28 726.15L695.94 723.18L696.97 720.38L697.74 718.14L699.15 715.57L698.64 712.18L695.87 711.63L694.45 710.00L692.73 708.14L691.84 706.31L690.51 702.90L689.37 700.26L685.94 697.73L682.07 711.04L680.16 714.83L677.52 720.05L675.39 723.22L669.47 720.97L666.32 720.00L663.16 719.03L660.71 718.37L658.29 717.71L651.61 716.37L644.16 715.16L638.42 715.96L629.27 717.85L624.58 719.45L622.19 720.32L617.06 721.85L614.71 722.55L610.83 722.65L607.74 722.73L601.17 722.82L600.97 720.77L600.77 717.99L600.57 715.24L597.56 710.30L595.94 707.65L592.33 700.67L591.23 698.42L590.26 696.22L586.99 688.78L583.92 681.78L583.23 680.09L581.26 675.14L579.71 670.66L575.76 659.30L574.89 656.98L567.18 653.18L563.55 651.99L559.94 650.80L554.02 649.75L546.49 648.63L541.83 649.93L539.48 650.08L538.14 646.46Z" data-ward="13" /><path id="ward-8" class="ward" d="M963.48 316.68L960.77 318.16L956.12 318.06L948.92 317.91L945.16 317.83L942.68 321.99L941.61 325.14L940.54 328.29L939.06 332.95L935.14 341.64L931.27 348.15L930.19 349.96L926.69 354.80L923.52 359.21L921.45 361.06L919.08 363.23L916.71 365.39L914.70 365.68L911.68 365.71L908.35 366.25L906.39 366.56L904.67 374.70L904.20 376.93L906.38 380.14L908.59 381.99L910.49 383.58L912.58 385.34L913.92 390.85L915.77 398.43L916.62 402.60L917.12 405.28L917.97 410.93L918.68 416.18L918.86 418.14L919.42 423.65L919.98 429.15L920.65 433.96L921.31 438.77L921.92 442.89L922.32 447.14L922.50 449.41L922.92 457.11L923.10 461.08L915.63 459.66L906.48 456.21L903.57 455.05L899.95 453.53L895.99 451.95L892.05 450.37L883.18 447.56L875.94 445.71L870.57 444.02L867.00 442.54L863.44 441.06L855.21 439.31L853.53 434.33L851.22 433.75L848.77 433.32L846.33 432.89L843.99 432.92L841.04 432.96L837.77 432.84L835.14 432.43L831.10 431.80L826.32 431.05L823.87 430.62L817.52 429.49L808.61 427.90L803.27 426.81L802.83 429.85L802.29 433.72L800.52 437.18L798.14 441.62L796.33 444.99L795.31 446.71L793.78 449.44L792.47 451.85L794.18 455.94L797.93 460.45L802.39 462.59L810.21 463.81L821.62 469.28L819.40 472.58L817.04 476.08L815.30 478.68L815.32 480.76L815.10 485.30L820.33 500.33L823.37 512.09L825.01 518.61L826.42 524.18L823.47 524.57L820.92 524.76L816.97 525.54L815.04 526.85L812.58 528.56L811.02 529.91L806.94 533.75L805.42 535.30L802.14 538.78L803.45 541.47L805.94 546.51L809.34 548.12L813.00 548.58L814.90 548.67L820.19 548.88L828.04 549.30L832.42 549.44L834.78 549.51L837.13 549.57L841.12 549.67L846.79 549.70L850.86 549.40L853.95 545.69L856.95 542.54L861.88 537.39L866.33 532.84L870.76 528.48L872.42 526.96L874.56 525.11L876.14 524.71L878.17 523.73L880.76 522.79L883.78 521.62L886.90 520.56L888.73 519.46L891.36 518.01L893.20 516.81L895.83 515.30L898.32 513.69L900.31 512.60L901.10 509.74L901.14 509.57L901.22 509.21L901.39 508.11L901.83 507.49L902.04 507.15L902.07 507.10L902.18 506.93L902.48 506.47L902.70 506.09L904.40 504.66L904.88 504.19L907.52 501.60L907.91 501.17L907.98 501.08L909.81 498.73L910.14 498.25L910.18 498.18L912.04 497.81L912.53 497.74L915.08 497.59L914.19 494.45L914.02 493.86L917.33 490.08L917.37 490.04L918.27 489.05L918.31 489.00L919.00 488.27L919.60 487.56L920.55 485.24L922.12 484.02L924.22 482.39L924.25 480.15L925.73 478.47L927.39 477.22L927.04 474.67L927.40 473.63L927.68 472.84L928.52 472.15L929.49 471.35L930.42 470.60L931.43 469.84L932.23 469.30L932.80 468.95L933.40 468.27L934.19 467.41L935.19 466.25L936.14 465.19L936.72 464.58L938.27 463.09L940.03 462.16L942.58 461.14L943.63 459.59L943.64 458.86L943.66 458.45L945.04 455.30L945.49 454.94L945.89 454.63L946.26 454.34L946.55 454.12L946.89 453.95L947.18 453.79L947.36 453.60L947.78 453.15L948.04 452.96L949.64 451.70L950.67 450.84L951.26 450.38L952.40 449.51L953.61 448.65L954.73 447.82L955.99 446.86L958.12 445.33L959.21 444.52L960.21 443.79L960.52 442.40L960.39 442.22L961.36 441.58L964.11 439.60L966.68 437.67L970.13 435.19L974.16 432.20L976.15 430.82L978.52 429.30L980.77 427.87L982.89 426.52L985.17 424.80L987.46 423.08L990.28 421.02L992.73 419.17L994.94 417.49L997.64 415.55L998.51 414.72L1000.00 411.30L996.80 407.97L994.19 405.24L991.50 402.42L988.81 399.61L987.03 397.75L985.60 396.26L984.00 394.58L981.10 391.54L979.78 388.22L977.71 383.01L976.76 380.93L975.67 378.53L973.79 374.41L972.86 372.37L970.59 367.40L970.95 364.80L969.76 361.69L968.26 359.53L968.82 356.21L970.52 355.05L968.23 350.74L966.17 349.19L965.31 343.71L964.85 340.76L964.43 338.11L965.64 332.72L965.39 328.34L965.06 322.54L964.28 319.64L963.48 316.68Z" data-ward="8" /><path id="ward-9" class="ward" d="M802.83 429.85L803.27 426.81L803.69 423.67L803.96 421.78L801.71 420.55L798.04 418.57L795.61 412.44L790.02 409.16L787.47 406.95L784.24 404.93L779.61 402.04L775.37 396.53L770.46 401.89L756.06 420.44L745.84 431.42L762.73 431.01L759.69 437.43L758.62 439.69L754.62 448.12L751.39 455.74L746.04 464.59L738.01 463.64L735.62 465.33L730.75 466.89L726.56 466.98L726.18 468.84L725.73 472.09L724.44 476.55L721.83 478.36L719.57 478.32L716.84 478.26L713.45 479.99L704.25 485.60L703.05 488.57L703.22 490.93L703.43 493.82L703.88 502.73L696.24 509.34L686.48 512.63L678.77 517.82L677.24 520.65L676.96 528.17L676.35 532.44L676.03 537.13L675.71 540.22L674.38 547.95L674.76 552.86L674.99 555.81L675.18 558.23L675.56 563.19L676.06 570.72L676.44 574.34L676.60 577.87L677.18 584.49L677.51 588.76L680.02 591.85L681.04 596.50L669.69 600.10L663.16 603.85L656.90 609.79L650.66 615.72L649.03 617.58L644.97 620.27L641.81 622.31L635.11 626.63L628.59 628.33L622.18 629.98L618.92 630.82L614.88 631.27L606.21 632.23L604.14 632.46L601.85 632.20L599.65 631.95L596.07 631.54L586.67 630.48L573.98 628.62L566.58 630.67L564.79 631.31L555.73 634.57L549.47 636.82L537.63 641.91L538.14 646.46L539.48 650.08L541.83 649.93L546.49 648.63L554.02 649.75L559.94 650.80L563.55 651.99L567.18 653.18L574.89 656.98L575.76 659.30L579.71 670.66L581.26 675.14L583.23 680.09L583.92 681.78L586.99 688.78L590.26 696.22L591.23 698.42L592.33 700.67L595.94 707.65L597.56 710.30L600.57 715.24L600.77 717.99L600.97 720.77L601.17 722.82L607.74 722.73L610.83 722.65L614.71 722.55L617.06 721.85L622.19 720.32L624.58 719.45L629.27 717.85L638.42 715.96L644.16 715.16L651.61 716.37L658.29 717.71L660.71 718.37L663.16 719.03L666.32 720.00L669.47 720.97L675.39 723.22L677.52 720.05L680.16 714.83L682.07 711.04L685.94 697.73L687.27 696.25L689.26 694.05L690.58 692.58L693.19 691.80L698.20 687.79L701.03 685.35L704.76 682.24L707.01 680.37L707.48 677.96L708.77 675.71L710.36 672.91L711.83 670.34L711.59 665.90L713.42 662.86L716.09 657.84L718.50 655.26L721.06 652.52L723.61 649.79L725.96 645.35L727.97 644.40L731.73 645.44L733.09 644.59L735.37 645.01L734.31 639.58L738.40 636.72L742.20 636.02L744.46 629.41L745.12 627.49L749.51 621.45L752.74 621.27L754.97 625.80L758.43 623.01L760.32 622.14L770.50 613.76L770.83 610.46L773.44 607.63L779.14 606.90L795.39 594.13L804.35 587.53L807.23 585.41L810.35 583.11L813.03 581.14L817.68 577.50L828.25 569.20L830.92 566.42L842.22 556.78L845.10 554.32L846.59 553.04L850.86 549.40L846.79 549.70L841.12 549.67L837.13 549.57L834.78 549.51L832.42 549.44L828.04 549.30L820.19 548.88L814.90 548.67L813.00 548.58L809.34 548.12L805.94 546.51L803.45 541.47L802.14 538.78L805.42 535.30L806.94 533.75L811.02 529.91L812.58 528.56L815.04 526.85L816.97 525.54L820.92 524.76L823.47 524.57L826.42 524.18L825.01 518.61L823.37 512.09L820.33 500.33L815.10 485.30L815.32 480.76L815.30 478.68L817.04 476.08L819.40 472.58L821.62 469.28L810.21 463.81L802.39 462.59L797.93 460.45L794.18 455.94L792.47 451.85L793.78 449.44L795.31 446.71L796.33 444.99L798.14 441.62L800.52 437.18L802.29 433.72L802.83 429.85Z" data-ward="9" /><path id="ward-20" class="ward" d="M329.53 623.10L323.85 613.45L304.99 607.94L296.47 605.07L288.48 602.38L261.68 593.42L256.26 591.76L262.47 599.56L268.10 606.60L274.16 614.29L275.78 616.29L249.20 624.26L238.26 623.65L192.50 621.13L188.55 622.11L190.10 625.57L190.94 628.02L192.02 631.16L192.74 633.39L196.91 643.14L198.35 646.51L200.18 650.32L201.45 652.95L202.80 655.76L204.07 658.41L205.08 660.52L206.83 664.45L207.78 666.81L201.80 672.59L195.23 679.30L193.23 681.71L190.49 684.77L187.21 687.60L179.15 695.85L187.17 702.56L187.61 703.96L186.29 705.81L187.93 709.91L189.12 711.77L193.27 718.59L195.11 721.53L196.74 727.01L198.55 733.67L200.36 737.74L202.09 741.63L203.59 744.27L209.37 754.44L210.74 758.03L214.40 766.01L216.08 768.14L222.40 775.79L227.60 776.99L236.44 786.64L236.87 790.31L237.29 793.96L245.34 792.84L248.59 792.38L253.56 786.59L264.55 792.07L268.13 793.26L279.09 805.39L284.43 814.83L289.27 823.39L290.53 823.86L303.49 818.25L317.02 809.93L319.14 810.29L317.18 808.22L311.57 795.42L299.08 781.63L287.28 768.02L281.09 760.88L286.81 755.58L290.16 753.63L294.92 750.10L297.40 748.37L300.03 746.44L301.73 745.19L304.96 742.81L305.03 739.25L307.62 736.40L311.44 734.01L315.80 730.93L318.27 729.71L322.55 727.61L329.48 725.04L333.86 723.01L335.68 722.12L337.47 721.24L343.95 717.78L345.80 716.81L347.68 716.04L350.68 714.52L355.06 712.30L362.81 708.36L366.02 706.17L368.74 704.32L370.79 701.05L375.00 699.41L376.97 698.81L378.89 698.04L380.82 697.26L380.73 693.73L378.33 690.35L373.51 683.59L368.68 676.81L366.30 673.47L358.93 663.28L353.33 655.54L347.06 647.23L343.48 642.30L342.24 640.64L336.25 632.64L333.55 629.03L329.53 623.10Z" data-ward="20" /><path id="ward-17" class="ward" d="M459.41 685.12L458.40 682.20L449.62 682.97L436.29 684.88L431.73 685.60L428.23 686.12L423.12 686.80L419.20 687.64L416.13 688.24L414.27 688.37L409.91 689.32L406.80 689.89L403.01 690.94L399.82 691.88L394.87 693.47L390.09 694.80L385.70 695.97L380.82 697.26L378.89 698.04L376.97 698.81L375.00 699.41L370.79 701.05L368.74 704.32L372.94 709.81L374.56 711.93L375.98 713.69L378.31 716.60L382.01 720.98L383.68 723.02L385.36 725.07L388.16 728.83L389.40 730.50L393.99 736.25L395.52 738.17L399.30 742.74L400.71 744.45L402.29 746.35L404.84 749.42L406.94 751.93L411.31 757.15L415.12 761.64L416.45 763.21L422.03 769.72L423.46 771.38L429.06 777.90L432.98 781.96L436.56 782.14L440.26 782.07L443.97 781.99L447.01 781.59L449.05 781.32L452.14 780.75L455.54 780.13L458.99 779.67L462.44 779.20L465.25 778.54L469.47 777.80L484.39 776.33L488.73 775.70L494.22 774.88L498.75 774.10L502.17 773.52L506.48 772.66L510.60 772.17L513.40 772.51L518.48 775.34L516.81 770.26L514.35 764.47L511.13 756.57L510.16 754.18L506.08 743.93L503.25 735.76L500.07 728.79L498.53 724.98L496.99 721.16L496.14 718.92L494.07 713.49L492.66 709.79L491.67 707.03L489.73 701.61L489.04 699.67L486.09 691.19L485.36 689.08L467.89 689.38L460.91 689.50L459.41 685.12Z" data-ward="17" /><path id="ward-4" class="ward" d="M606.27 59.21L600.51 58.98L594.27 62.06L583.69 67.28L579.81 68.69L573.82 70.86L569.72 72.35L572.64 82.91L546.27 98.91L541.13 102.02L536.71 104.52L531.41 107.52L528.45 109.19L526.44 110.32L524.75 112.50L522.14 115.86L519.35 119.44L514.97 125.08L512.76 127.92L511.08 130.08L508.17 133.83L503.60 139.71L499.46 145.03L496.39 148.98L486.68 150.36L481.46 151.11L475.76 151.92L469.83 152.76L464.97 153.46L459.62 154.22L454.67 155.31L452.18 155.85L447.20 156.95L438.07 158.95L431.11 159.62L423.91 160.31L421.04 160.59L417.81 160.90L418.50 164.51L419.80 171.35L419.83 173.67L419.91 182.98L419.94 185.64L419.96 188.33L420.11 203.92L420.17 210.23L420.23 216.10L420.26 220.07L420.29 223.00L419.73 226.13L419.41 227.93L418.36 233.78L419.25 237.25L417.48 242.40L419.10 239.81L420.73 237.21L423.60 232.63L425.06 229.80L435.91 222.85L447.71 215.44L450.15 213.99L462.73 214.06L476.13 210.59L485.03 207.33L490.79 205.50L503.89 201.32L508.17 199.95L527.26 195.99L544.61 191.38L555.88 186.10L551.13 177.37L555.11 175.88L559.10 174.39L567.53 172.11L570.64 171.18L581.82 167.98L586.78 169.24L591.75 170.51L596.76 172.37L607.30 175.32L614.13 177.59L622.15 181.29L629.63 183.62L633.36 178.85L640.27 181.35L647.73 183.39L652.04 184.92L654.71 185.86L663.44 189.85L672.08 193.80L674.19 194.76L681.03 198.53L692.76 203.56L701.30 208.38L709.83 229.88L719.25 253.65L729.49 279.50L751.39 326.97L752.45 324.30L754.33 320.93L754.95 318.01L754.31 315.39L754.13 313.51L754.38 311.06L754.11 308.95L756.00 308.25L758.10 308.32L757.87 305.57L757.67 302.79L757.99 300.62L760.16 300.46L762.52 300.44L764.88 300.41L771.22 301.41L775.68 302.37L776.65 298.26L776.48 295.14L776.62 291.57L777.67 289.15L784.09 290.34L788.09 291.21L789.04 288.51L790.59 283.56L791.85 279.65L792.74 277.30L793.42 275.54L796.00 270.28L797.94 266.97L799.85 263.87L801.02 261.74L801.73 259.98L802.62 257.77L804.23 254.30L806.91 250.52L807.34 244.62L804.45 243.61L797.01 241.04L794.18 240.35L788.12 238.39L785.67 233.92L782.37 232.30L775.50 229.11L773.24 227.92L771.09 226.79L765.90 224.08L762.38 222.23L760.19 221.08L754.27 215.48L755.09 213.25L756.28 209.99L750.83 206.45L752.34 202.64L754.27 195.21L746.80 191.64L739.04 189.02L730.67 186.26L721.57 186.29L716.89 187.02L713.77 187.47L708.14 185.73L702.52 184.00L698.89 182.19L690.62 179.21L688.92 178.51L683.34 176.04L682.43 171.34L677.00 168.76L669.95 166.60L667.12 165.79L660.84 163.27L654.56 160.75L647.95 157.28L641.34 153.81L643.29 146.97L642.44 142.90L641.58 138.81L642.70 135.67L643.47 133.61L645.90 126.06L646.87 122.54L647.70 119.51L648.46 114.06L648.14 108.94L647.76 103.07L647.64 101.16L651.53 93.71L653.02 91.14L654.76 87.54L657.62 81.39L658.85 77.83L659.45 76.10L661.76 69.08L663.72 63.16L659.06 63.72L655.40 63.23L648.09 62.82L638.25 62.06L628.57 61.31L620.28 60.20L615.79 59.37L612.38 59.46L606.27 59.21Z" data-ward="4" /><path id="ward-16" class="ward" d="M455.38 811.31L451.29 806.19L448.35 802.55L445.20 798.81L441.27 793.97L438.77 790.89L436.75 788.43L435.22 786.59L432.98 781.96L429.06 777.90L423.46 771.38L422.03 769.72L416.45 763.21L415.12 761.64L411.31 757.15L406.94 751.93L404.84 749.42L402.29 746.35L400.71 744.45L399.30 742.74L395.52 738.17L393.99 736.25L389.40 730.50L388.16 728.83L385.36 725.07L383.68 723.02L382.01 720.98L378.31 716.60L375.98 713.69L374.56 711.93L372.94 709.81L368.74 704.32L366.02 706.17L362.81 708.36L355.06 712.30L350.68 714.52L347.68 716.04L345.80 716.81L343.95 717.78L337.47 721.24L335.68 722.12L333.86 723.01L329.48 725.04L322.55 727.61L318.27 729.71L315.80 730.93L311.44 734.01L307.62 736.40L305.03 739.25L304.96 742.81L301.73 745.19L300.03 746.44L297.40 748.37L294.92 750.10L290.16 753.63L286.81 755.58L281.09 760.88L287.28 768.02L299.08 781.63L311.57 795.42L317.18 808.22L319.14 810.29L329.14 820.59L331.95 823.49L339.65 819.37L346.58 815.31L349.08 813.27L350.94 811.74L358.02 819.59L362.04 825.36L365.61 828.92L367.13 830.44L371.12 834.42L372.64 835.71L376.95 838.72L381.46 841.01L387.70 844.28L396.20 836.25L398.89 843.02L404.63 851.89L410.14 861.12L411.90 863.30L413.68 865.51L415.87 867.61L418.04 869.70L424.42 874.81L432.97 882.50L438.65 884.82L440.09 883.33L443.66 880.42L448.78 875.67L450.19 874.34L451.57 873.01L456.90 868.65L463.17 863.38L469.40 858.39L474.45 854.59L478.53 851.46L481.38 844.17L479.89 842.29L476.92 838.55L475.53 836.80L472.29 832.72L470.70 830.72L467.68 826.90L465.41 824.06L462.36 820.21L458.06 814.86L455.38 811.31Z" data-ward="16" /><path id="ward-18" class="ward" d="M459.19 604.63L456.30 594.63L451.99 579.72L451.04 576.41L447.82 561.55L440.26 581.32L439.37 589.06L438.48 596.80L437.51 602.54L436.28 609.87L404.79 606.07L400.38 605.50L390.89 606.43L379.13 607.54L371.72 608.25L362.05 609.13L327.95 612.35L323.85 613.45L329.53 623.10L333.55 629.03L336.25 632.64L342.24 640.64L343.48 642.30L347.06 647.23L353.33 655.54L358.93 663.28L366.30 673.47L368.68 676.81L373.51 683.59L378.33 690.35L380.73 693.73L380.82 697.26L385.70 695.97L390.09 694.80L394.87 693.47L399.82 691.88L403.01 690.94L406.80 689.89L409.91 689.32L414.27 688.37L416.13 688.24L419.20 687.64L423.12 686.80L428.23 686.12L431.73 685.60L436.29 684.88L449.62 682.97L458.40 682.20L459.41 685.12L460.91 689.50L467.89 689.38L485.36 689.08L483.13 682.71L481.98 679.44L480.86 676.25L479.68 672.88L478.55 669.65L476.33 663.29L471.16 643.64L470.65 641.70L469.29 637.43L467.34 631.27L465.87 626.71L463.60 619.66L462.47 615.85L461.34 612.04L459.19 604.63Z" data-ward="18" /><path id="ward-15" class="ward" d="M381.46 841.01L376.95 838.72L372.64 835.71L371.12 834.42L367.13 830.44L365.61 828.92L362.04 825.36L358.02 819.59L350.94 811.74L349.08 813.27L346.58 815.31L339.65 819.37L331.95 823.49L335.64 827.53L338.68 831.07L345.59 838.35L359.87 852.38L361.66 855.05L370.93 863.38L374.32 866.44L379.27 870.61L388.56 877.42L397.21 885.27L403.03 890.57L412.40 899.00L423.50 909.96L425.39 911.81L434.14 920.37L435.94 922.13L441.20 927.39L447.10 932.71L453.21 940.23L459.08 948.66L461.71 952.45L466.00 958.42L473.41 966.67L474.69 968.18L478.00 972.07L482.65 969.46L487.00 967.03L492.40 962.52L494.71 961.11L500.91 956.74L506.75 960.38L509.78 962.28L512.87 964.12L517.67 966.99L520.72 968.36L522.67 969.23L528.42 972.66L530.49 973.62L534.35 972.56L536.66 971.92L538.79 971.34L540.94 970.20L543.18 969.02L544.75 967.69L548.02 964.90L549.96 962.94L554.20 958.67L555.68 957.18L557.34 955.51L561.19 951.40L562.60 949.60L564.38 947.33L559.43 941.18L557.87 939.19L553.19 933.28L550.09 929.54L548.01 926.75L544.52 922.31L541.25 918.15L537.14 913.50L534.66 910.47L533.14 908.62L530.56 905.17L527.27 900.60L522.24 894.14L518.75 889.86L516.93 887.63L515.00 885.27L511.09 880.48L504.86 873.08L503.07 870.95L501.59 869.19L494.74 860.61L490.18 855.01L486.89 851.02L481.38 844.17L478.53 851.46L474.45 854.59L469.40 858.39L463.17 863.38L456.90 868.65L451.57 873.01L450.19 874.34L448.78 875.67L443.66 880.42L440.09 883.33L438.65 884.82L432.97 882.50L424.42 874.81L418.04 869.70L415.87 867.61L413.68 865.51L411.90 863.30L410.14 861.12L404.63 851.89L398.89 843.02L396.20 836.25L387.70 844.28L381.46 841.01Z" data-ward="15" /><path id="ward-3" class="ward" d="M622.15 181.29L614.13 177.59L607.30 175.32L596.76 172.37L591.75 170.51L586.78 169.24L581.82 167.98L570.64 171.18L567.53 172.11L559.10 174.39L555.11 175.88L551.13 177.37L555.88 186.10L544.61 191.38L527.26 195.99L508.17 199.95L503.89 201.32L490.79 205.50L485.03 207.33L476.13 210.59L462.73 214.06L450.15 213.99L447.71 215.44L435.91 222.85L425.06 229.80L423.60 232.63L420.73 237.21L417.48 242.40L413.64 253.01L417.45 256.94L418.85 258.98L423.56 265.84L426.60 270.26L429.40 273.94L432.53 278.05L437.44 284.49L438.72 286.32L443.34 292.83L444.54 294.43L447.00 297.70L449.22 300.66L452.41 304.61L456.90 310.44L461.73 316.73L464.45 320.47L465.64 321.97L472.45 330.54L474.58 333.18L476.50 335.57L478.93 338.59L492.66 357.22L499.98 368.24L502.21 371.21L506.35 372.32L510.04 374.67L514.99 375.90L515.09 377.93L517.84 378.40L522.91 377.58L524.76 376.99L532.16 374.60L548.34 377.78L562.35 384.50L564.30 385.65L574.38 391.57L576.11 392.59L581.71 395.77L585.60 397.50L589.45 398.74L605.32 407.74L609.10 411.29L610.99 412.77L615.01 415.39L618.52 417.68L622.18 419.05L649.66 432.34L651.56 433.55L655.42 432.69L657.04 431.41L660.66 428.83L662.10 425.52L676.35 415.31L688.67 406.63L691.35 406.63L692.88 405.06L697.11 401.01L699.36 399.28L702.80 396.75L706.79 394.03L710.13 390.96L713.19 388.05L716.86 385.11L719.07 382.98L720.68 380.82L722.52 378.36L725.56 374.96L730.14 369.42L731.61 367.59L731.55 364.14L732.00 360.64L734.75 356.76L735.21 354.38L735.93 350.35L736.51 346.51L738.51 342.09L739.42 340.16L740.29 338.30L741.08 336.06L741.61 333.97L742.20 330.59L746.26 331.55L750.48 332.55L750.83 330.22L751.39 326.97L729.49 279.50L719.25 253.65L709.83 229.88L701.30 208.38L692.76 203.56L681.03 198.53L674.19 194.76L672.08 193.80L663.44 189.85L654.71 185.86L652.04 184.92L647.73 183.39L640.27 181.35L633.36 178.85L629.63 183.62L622.15 181.29Z" data-ward="3" /><path id="ward-19" class="ward" d="M447.82 561.55L450.33 553.11L452.37 543.65L453.17 539.93L453.98 536.21L454.75 533.60L455.53 530.99L457.77 525.99L467.18 504.98L454.52 498.89L454.05 491.61L455.98 486.11L454.90 480.79L455.89 477.31L456.89 473.83L458.53 468.02L460.72 462.30L462.54 456.87L464.36 451.42L465.01 443.88L466.19 436.98L467.64 427.82L468.89 422.74L469.73 420.90L461.70 415.52L444.88 406.74L437.67 419.05L434.29 424.89L425.70 435.71L419.10 445.54L414.96 453.39L415.12 458.96L413.72 465.42L413.12 468.18L411.14 471.94L409.80 474.48L406.75 480.07L403.41 483.11L400.71 483.34L398.06 483.57L396.93 485.86L395.71 487.83L393.52 491.39L389.59 494.56L386.28 494.93L382.11 501.04L378.95 505.71L377.62 507.73L373.01 514.77L366.42 524.91L361.13 526.46L356.58 529.11L355.24 530.94L353.90 532.78L354.03 536.14L354.17 539.51L355.31 541.31L357.27 544.09L357.53 546.54L357.75 548.51L356.16 552.90L354.11 557.74L352.63 559.99L351.36 561.92L346.45 559.55L344.66 557.73L339.23 552.24L335.17 547.38L332.39 544.05L329.63 540.33L321.87 536.03L316.41 533.03L311.29 527.43L309.30 525.29L304.60 520.28L297.39 511.56L293.29 506.60L291.56 504.47L288.16 500.28L285.32 497.41L281.81 493.88L279.41 492.35L275.87 493.62L267.48 496.65L261.02 500.13L254.57 503.61L251.14 506.01L247.79 508.35L243.19 510.98L236.47 515.77L241.48 525.16L246.45 532.01L251.64 539.17L255.95 542.22L258.19 543.79L264.63 549.89L269.29 554.30L274.00 560.64L276.47 562.02L285.20 566.89L291.28 569.75L296.53 572.23L299.61 573.68L302.22 576.49L304.21 579.90L304.84 583.12L306.55 588.19L309.81 593.02L312.89 596.49L317.16 602.03L321.00 608.15L323.85 613.45L327.95 612.35L362.05 609.13L371.72 608.25L379.13 607.54L390.89 606.43L400.38 605.50L404.79 606.07L436.28 609.87L437.51 602.54L438.48 596.80L439.37 589.06L440.26 581.32L447.82 561.55Z" data-ward="19" /><path id="ward-2" class="ward" d="M501.41 405.07L502.18 402.29L502.91 400.33L503.95 395.84L504.61 390.83L504.40 386.42L504.19 382.02L503.61 378.61L503.03 375.29L502.21 371.21L499.98 368.24L492.66 357.22L478.93 338.59L476.50 335.57L474.58 333.18L472.45 330.54L465.64 321.97L464.45 320.47L461.73 316.73L456.90 310.44L452.41 304.61L449.22 300.66L447.00 297.70L444.54 294.43L443.34 292.83L438.72 286.32L437.44 284.49L432.53 278.05L429.40 273.94L426.60 270.26L423.56 265.84L418.85 258.98L417.45 256.94L413.64 253.01L412.66 258.06L409.52 268.30L404.48 278.22L403.44 280.29L391.14 294.51L384.61 296.41L378.59 303.47L375.28 307.37L366.50 321.46L363.34 326.53L359.69 332.20L357.45 335.68L354.10 340.93L351.23 344.77L349.43 347.19L345.22 351.66L341.81 355.23L340.33 356.92L337.51 360.73L333.35 365.38L327.50 373.22L318.60 378.11L305.45 385.36L303.78 386.52L297.91 390.67L290.15 396.51L282.23 400.13L273.13 408.53L271.57 409.98L261.13 417.32L258.78 419.00L247.42 426.59L240.30 436.19L233.22 441.50L229.72 445.02L227.14 447.04L224.72 448.94L221.45 452.05L216.33 456.91L213.52 460.47L208.24 463.02L203.83 467.07L199.79 469.57L197.17 471.20L193.72 476.07L200.43 483.81L206.17 492.07L210.81 500.03L212.32 502.62L213.36 504.35L218.41 512.13L226.52 524.61L229.77 529.14L238.05 540.65L242.23 546.47L250.42 556.83L260.68 569.82L274.00 560.64L269.29 554.30L264.63 549.89L258.19 543.79L255.95 542.22L251.64 539.17L246.45 532.01L241.48 525.16L236.47 515.77L243.19 510.98L247.79 508.35L251.14 506.01L254.57 503.61L261.02 500.13L267.48 496.65L275.87 493.62L279.41 492.35L281.81 493.88L285.32 497.41L288.16 500.28L291.56 504.47L293.29 506.60L297.39 511.56L304.60 520.28L309.30 525.29L311.29 527.43L316.41 533.03L321.87 536.03L329.63 540.33L332.39 544.05L335.17 547.38L339.23 552.24L344.66 557.73L346.45 559.55L351.36 561.92L352.63 559.99L354.11 557.74L356.16 552.90L357.75 548.51L357.53 546.54L357.27 544.09L355.31 541.31L354.17 539.51L354.03 536.14L353.90 532.78L355.24 530.94L356.58 529.11L361.13 526.46L366.42 524.91L373.01 514.77L377.62 507.73L378.95 505.71L382.11 501.04L386.28 494.93L389.59 494.56L393.52 491.39L395.71 487.83L396.93 485.86L398.06 483.57L400.71 483.34L403.41 483.11L406.75 480.07L409.80 474.48L411.14 471.94L413.12 468.18L413.72 465.42L415.12 458.96L414.96 453.39L419.10 445.54L425.70 435.71L434.29 424.89L437.67 419.05L444.88 406.74L461.70 415.52L469.73 420.90L468.89 422.74L467.64 427.82L466.19 436.98L465.01 443.88L464.36 451.42L462.54 456.87L460.72 462.30L458.53 468.02L456.89 473.83L455.89 477.31L454.90 480.79L455.98 486.11L454.05 491.61L454.52 498.89L467.18 504.98L471.45 496.32L475.52 488.02L477.49 484.01L479.89 477.01L482.01 470.53L484.99 461.26L485.74 458.96L490.68 442.71L493.20 434.32L495.09 428.04L495.72 425.74L498.21 416.71L498.88 414.27L501.41 405.07Z" data-ward="2" /><path id="ward-6" class="ward" d="M883.34 147.74L882.49 144.17L879.18 144.43L874.99 144.77L870.49 145.12L865.99 145.48L865.71 147.90L865.41 150.33L865.08 152.19L864.34 156.02L861.96 159.92L858.66 159.96L853.78 159.87L850.68 159.70L844.50 159.34L840.90 159.14L837.69 158.60L834.94 158.14L830.32 157.37L827.73 156.76L825.19 156.16L821.75 162.39L820.06 165.73L812.82 162.62L810.48 167.62L811.85 171.15L807.02 172.60L803.60 173.55L797.45 170.38L797.05 167.82L795.86 165.54L795.37 162.08L794.77 159.23L793.48 155.47L790.96 151.17L786.50 155.45L783.67 163.34L779.72 172.34L778.28 174.86L776.84 177.39L774.68 180.81L772.42 184.40L771.44 185.95L769.65 188.24L767.85 190.54L765.23 193.50L763.28 195.70L760.70 204.92L760.18 206.80L758.63 207.79L756.28 209.99L755.09 213.25L754.27 215.48L760.19 221.08L762.38 222.23L765.90 224.08L771.09 226.79L773.24 227.92L775.50 229.11L782.37 232.30L785.67 233.92L788.12 238.39L794.18 240.35L797.01 241.04L804.45 243.61L807.34 244.62L806.91 250.52L811.87 252.81L815.33 254.20L821.19 257.05L823.65 258.51L827.21 260.61L830.53 263.32L832.35 266.72L834.18 270.12L839.18 279.67L840.77 282.71L841.73 284.53L843.38 286.83L849.95 287.64L853.81 288.49L856.52 288.24L859.32 287.90L863.47 287.40L867.63 286.89L871.63 287.06L876.42 289.08L884.15 292.42L886.96 293.27L889.78 294.13L893.43 295.27L897.05 296.40L899.63 297.41L905.41 299.90L908.35 301.17L919.50 305.97L923.49 307.69L925.27 308.46L930.32 310.63L942.40 316.02L945.16 317.83L948.92 317.91L956.12 318.06L960.77 318.16L963.48 316.68L961.99 315.31L959.69 313.39L959.95 308.87L959.43 306.53L958.13 304.20L955.22 302.19L956.66 300.27L957.93 297.60L960.08 293.09L960.99 290.18L961.81 287.57L963.20 283.16L962.60 279.72L962.23 277.60L961.39 272.84L960.75 269.50L959.39 263.88L957.09 254.66L956.89 252.40L956.57 248.78L956.39 246.85L955.91 241.42L955.94 237.94L955.96 235.84L957.31 230.57L958.56 225.68L959.24 223.02L960.62 215.73L960.04 213.20L959.46 210.72L958.98 208.66L955.49 205.82L954.83 203.66L951.07 198.82L948.18 196.12L943.80 192.01L941.48 189.21L940.49 187.51L938.58 182.94L937.74 180.24L936.73 174.20L936.17 171.37L935.60 168.48L931.20 163.86L927.57 162.33L925.19 161.94L919.46 162.22L916.23 162.37L910.59 162.37L906.84 162.99L902.78 162.76L900.26 159.76L901.07 158.08L899.09 155.21L896.52 151.25L894.97 149.47L895.05 146.97L889.98 146.64L885.89 146.38L885.80 149.06L883.34 147.74Z" data-ward="6" /><path id="ward-5" class="ward" d="M830.44 16.07L829.12 12.58L828.23 10.85L825.82 9.40L820.89 5.92L816.86 2.67L814.99 1.16L811.45 0.00L807.73 2.30L800.63 6.68L795.23 10.06L789.04 12.86L782.87 14.48L776.68 16.10L771.32 17.40L767.66 16.73L763.69 15.51L759.31 15.16L755.65 14.81L751.68 14.42L748.27 14.70L743.29 14.61L735.52 14.46L729.86 15.64L728.01 16.64L721.84 19.96L714.64 25.38L709.17 29.16L706.65 31.01L700.39 33.89L699.00 37.12L696.60 39.23L693.17 42.23L689.39 45.33L687.90 46.59L682.88 48.18L679.64 50.02L670.11 55.46L666.91 57.27L668.63 59.54L668.22 61.22L663.72 63.16L661.76 69.08L659.45 76.10L658.85 77.83L657.62 81.39L654.76 87.54L653.02 91.14L651.53 93.71L647.64 101.16L647.76 103.07L648.14 108.94L648.46 114.06L647.70 119.51L646.87 122.54L645.90 126.06L643.47 133.61L642.70 135.67L641.58 138.81L642.44 142.90L643.29 146.97L641.34 153.81L647.95 157.28L654.56 160.75L660.84 163.27L667.12 165.79L669.95 166.60L677.00 168.76L682.43 171.34L683.34 176.04L688.92 178.51L690.62 179.21L698.89 182.19L702.52 184.00L708.14 185.73L713.77 187.47L716.89 187.02L721.57 186.29L730.67 186.26L739.04 189.02L746.80 191.64L754.27 195.21L752.34 202.64L750.83 206.45L756.28 209.99L758.63 207.79L760.18 206.80L760.70 204.92L763.28 195.70L765.23 193.50L767.85 190.54L769.65 188.24L771.44 185.95L772.42 184.40L774.68 180.81L776.84 177.39L778.28 174.86L779.72 172.34L783.67 163.34L786.50 155.45L790.96 151.17L788.44 146.88L790.66 144.51L792.29 141.54L795.99 137.55L798.59 131.04L797.82 127.00L797.73 121.25L798.18 117.92L798.49 115.61L797.92 109.69L800.31 108.38L804.06 107.17L806.77 106.29L808.03 102.15L808.96 99.02L810.24 94.07L811.01 91.90L811.86 89.47L812.52 87.60L813.60 84.53L815.10 80.38L816.53 76.98L817.67 74.87L819.42 71.60L820.49 69.80L822.25 66.85L823.24 65.09L825.14 61.70L826.55 59.21L827.81 55.75L828.45 53.53L829.33 50.46L829.90 47.90L830.44 45.45L830.51 41.45L830.69 37.69L831.49 35.62L833.32 33.90L833.70 31.62L834.35 27.64L833.87 25.83L833.38 23.96L832.38 21.27L831.14 17.93L830.44 16.07Z" data-ward="5" /><path id="ward-12" class="ward" d="M486.96 660.50L497.21 656.55L499.99 655.56L502.79 654.58L505.98 653.49L509.68 652.23L512.80 651.15L515.94 649.76L520.29 648.02L524.66 646.27L526.81 645.50L529.92 644.37L532.92 643.22L537.63 641.91L536.12 639.44L534.69 637.12L533.88 634.91L531.39 626.69L529.88 617.32L529.58 615.42L528.41 605.61L531.20 597.92L532.00 595.73L533.49 591.62L535.28 586.68L540.07 575.52L543.19 568.95L546.00 563.02L548.34 558.07L550.15 554.25L552.45 549.36L558.11 538.17L565.53 525.13L570.81 517.62L572.30 515.48L578.64 506.08L582.09 501.10L583.89 498.82L588.56 493.11L598.08 481.47L593.25 477.61L586.07 471.93L578.01 465.57L567.71 457.43L562.51 453.42L558.54 452.54L551.50 451.12L549.43 450.49L536.79 444.73L534.36 440.78L531.15 435.43L529.42 432.55L527.96 430.18L526.16 427.25L524.40 424.39L522.58 421.45L520.90 418.72L519.91 417.14L518.11 415.17L516.01 413.29L514.07 411.55L512.02 409.71L509.61 407.54L506.92 405.13L502.18 402.29L501.41 405.07L498.88 414.27L498.21 416.71L495.72 425.74L495.09 428.04L493.20 434.32L490.68 442.71L485.74 458.96L484.99 461.26L482.01 470.53L479.89 477.01L477.49 484.01L475.52 488.02L471.45 496.32L467.18 504.98L457.77 525.99L455.53 530.99L454.75 533.60L453.98 536.21L453.17 539.93L452.37 543.65L450.33 553.11L447.82 561.55L451.04 576.41L451.99 579.72L456.30 594.63L459.19 604.63L461.34 612.04L462.47 615.85L463.60 619.66L465.87 626.71L467.34 631.27L469.29 637.43L470.65 641.70L471.16 643.64L476.33 663.29L480.64 663.32L486.96 660.50Z" data-ward="12" /><path id="ward-7" class="ward" d="M849.95 287.64L843.38 286.83L841.73 284.53L840.77 282.71L839.18 279.67L834.18 270.12L832.35 266.72L830.53 263.32L827.21 260.61L823.65 258.51L821.19 257.05L815.33 254.20L811.87 252.81L806.91 250.52L804.23 254.30L802.62 257.77L801.73 259.98L801.02 261.74L799.85 263.87L797.94 266.97L796.00 270.28L793.42 275.54L792.74 277.30L791.85 279.65L790.59 283.56L789.04 288.51L788.09 291.21L784.09 290.34L777.67 289.15L776.62 291.57L776.48 295.14L776.65 298.26L775.68 302.37L771.22 301.41L764.88 300.41L762.52 300.44L760.16 300.46L757.99 300.62L757.67 302.79L757.87 305.57L758.10 308.32L756.00 308.25L754.11 308.95L754.38 311.06L754.13 313.51L754.31 315.39L754.95 318.01L754.33 320.93L752.45 324.30L751.39 326.97L750.83 330.22L750.48 332.55L746.26 331.55L742.20 330.59L741.61 333.97L741.08 336.06L740.29 338.30L739.42 340.16L738.51 342.09L736.51 346.51L735.93 350.35L735.21 354.38L734.75 356.76L732.00 360.64L731.55 364.14L731.61 367.59L730.14 369.42L725.56 374.96L722.52 378.36L720.68 380.82L719.07 382.98L716.86 385.11L713.19 388.05L710.13 390.96L706.79 394.03L702.80 396.75L699.36 399.28L697.11 401.01L692.88 405.06L691.35 406.63L696.77 411.86L705.48 417.49L708.29 419.40L717.35 425.53L720.20 427.26L722.83 428.85L729.67 432.98L729.89 429.92L738.19 431.08L741.94 431.84L745.84 431.42L756.06 420.44L770.46 401.89L775.37 396.53L779.61 402.04L784.24 404.93L787.47 406.95L790.02 409.16L795.61 412.44L798.04 418.57L801.71 420.55L803.96 421.78L803.69 423.67L803.27 426.81L808.61 427.90L817.52 429.49L823.87 430.62L826.32 431.05L831.10 431.80L835.14 432.43L837.77 432.84L841.04 432.96L843.99 432.92L846.33 432.89L848.77 433.32L851.22 433.75L853.53 434.33L855.21 439.31L863.44 441.06L867.00 442.54L870.57 444.02L875.94 445.71L883.18 447.56L892.05 450.37L895.99 451.95L899.95 453.53L903.57 455.05L906.48 456.21L915.63 459.66L923.10 461.08L922.92 457.11L922.50 449.41L922.32 447.14L921.92 442.89L921.31 438.77L920.65 433.96L919.98 429.15L919.42 423.65L918.86 418.14L918.68 416.18L917.97 410.93L917.12 405.28L916.62 402.60L915.77 398.43L913.92 390.85L912.58 385.34L910.49 383.58L908.59 381.99L906.38 380.14L904.20 376.93L904.67 374.70L906.39 366.56L908.35 366.25L911.68 365.71L914.70 365.68L916.71 365.39L919.08 363.23L921.45 361.06L923.52 359.21L926.69 354.80L930.19 349.96L931.27 348.15L935.14 341.64L939.06 332.95L940.54 328.29L941.61 325.14L942.68 321.99L945.16 317.83L942.40 316.02L930.32 310.63L925.27 308.46L923.49 307.69L919.50 305.97L908.35 301.17L905.41 299.90L899.63 297.41L897.05 296.40L893.43 295.27L889.78 294.13L886.96 293.27L884.15 292.42L876.42 289.08L871.63 287.06L867.63 286.89L863.47 287.40L859.32 287.90L856.52 288.24L853.81 288.49L849.95 287.64Z" data-ward="7" /><path id="ward-1" class="ward" d="M47.70 461.40L44.29 459.12L40.13 456.33L37.32 453.78L35.17 452.42L31.15 449.89L27.57 447.62L22.47 444.41L16.75 440.79L12.86 438.22L10.67 436.76L6.53 437.50L2.79 438.16L0.00 438.66L1.04 441.07L2.25 443.88L3.57 446.97L4.68 448.81L6.15 450.86L8.60 453.56L11.48 456.74L16.00 461.71L17.10 463.50L21.34 467.59L24.67 470.81L28.09 474.12L30.98 476.91L34.40 480.32L38.40 484.09L48.24 493.26L53.91 498.56L55.61 500.57L58.68 503.12L62.77 507.10L65.05 509.87L66.98 512.23L68.55 515.17L70.52 518.87L71.84 522.68L78.05 527.76L79.24 529.87L80.99 532.96L81.82 535.03L82.98 537.92L84.10 540.70L90.54 556.75L94.77 569.74L92.81 578.06L93.27 582.76L93.58 585.95L94.55 591.79L95.07 594.86L101.54 599.77L105.57 602.86L112.27 608.05L120.40 610.68L131.68 615.33L133.39 615.99L136.40 617.11L138.21 617.75L138.02 619.73L139.06 622.26L141.05 625.73L144.83 632.34L147.23 633.51L153.08 636.37L157.99 644.04L166.03 647.32L167.91 648.08L170.20 648.21L169.47 654.01L167.42 657.77L165.39 661.52L164.87 664.64L165.33 667.78L164.02 671.38L164.30 674.93L162.74 678.24L160.75 682.49L159.90 686.40L159.07 690.23L162.26 693.66L160.10 698.07L158.38 701.59L162.71 700.24L165.14 699.48L169.19 697.00L172.21 695.58L179.15 695.85L187.21 687.60L190.49 684.77L193.23 681.71L195.23 679.30L201.80 672.59L207.78 666.81L206.83 664.45L205.08 660.52L204.07 658.41L202.80 655.76L201.45 652.95L200.18 650.32L198.35 646.51L196.91 643.14L192.74 633.39L192.02 631.16L190.94 628.02L190.10 625.57L188.55 622.11L192.50 621.13L238.26 623.65L249.20 624.26L275.78 616.29L274.16 614.29L268.10 606.60L262.47 599.56L256.26 591.76L261.68 593.42L288.48 602.38L296.47 605.07L304.99 607.94L323.85 613.45L321.00 608.15L317.16 602.03L312.89 596.49L309.81 593.02L306.55 588.19L304.84 583.12L304.21 579.90L302.22 576.49L299.61 573.68L296.53 572.23L291.28 569.75L285.20 566.89L276.47 562.02L274.00 560.64L260.68 569.82L250.42 556.83L242.23 546.47L238.05 540.65L229.77 529.14L226.52 524.61L218.41 512.13L213.36 504.35L212.32 502.62L210.81 500.03L206.17 492.07L200.43 483.81L193.72 476.07L191.25 478.52L188.09 481.64L183.83 482.26L178.64 483.07L176.41 483.42L172.13 481.36L166.91 478.86L163.96 477.12L162.07 475.72L156.67 471.76L155.31 470.52L152.30 467.62L148.70 463.83L140.84 459.43L135.90 458.91L133.79 458.69L125.59 461.06L122.70 464.85L120.01 468.37L116.31 473.22L112.00 478.88L108.15 483.29L107.38 486.39L103.20 489.10L94.12 494.96L89.24 492.64L83.72 490.02L80.23 488.36L78.35 489.76L72.50 484.50L74.96 479.16L70.26 476.17L67.92 476.78L64.51 476.85L60.62 471.54L65.55 468.10L61.90 464.47L53.65 464.68L47.70 461.40Z" data-ward="1" /><path id="ward-11" class="ward" d="M515.09 377.93L514.99 375.90L510.04 374.67L506.35 372.32L502.21 371.21L503.03 375.29L503.61 378.61L504.19 382.02L504.40 386.42L504.61 390.83L503.95 395.84L502.91 400.33L502.18 402.29L506.92 405.13L509.61 407.54L512.02 409.71L514.07 411.55L516.01 413.29L518.11 415.17L519.91 417.14L520.90 418.72L522.58 421.45L524.40 424.39L526.16 427.25L527.96 430.18L529.42 432.55L531.15 435.43L534.36 440.78L536.79 444.73L549.43 450.49L551.50 451.12L558.54 452.54L562.51 453.42L567.71 457.43L578.01 465.57L586.07 471.93L593.25 477.61L598.08 481.47L588.56 493.11L583.89 498.82L582.09 501.10L578.64 506.08L572.30 515.48L577.29 516.97L587.45 520.00L589.67 520.73L595.60 522.41L600.73 522.61L607.88 523.33L613.37 525.60L616.55 526.67L623.04 528.27L630.25 530.01L632.34 525.16L633.82 521.72L637.00 522.15L645.56 523.32L646.95 525.03L649.06 526.57L652.50 528.54L655.57 529.81L658.65 531.09L663.26 532.38L667.90 533.94L669.20 531.30L676.35 532.44L676.96 528.17L677.24 520.65L678.77 517.82L686.48 512.63L696.24 509.34L703.88 502.73L703.43 493.82L703.22 490.93L703.05 488.57L704.25 485.60L713.45 479.99L716.84 478.26L719.57 478.32L721.83 478.36L724.44 476.55L725.73 472.09L726.18 468.84L726.56 466.98L730.75 466.89L735.62 465.33L738.01 463.64L746.04 464.59L751.39 455.74L754.62 448.12L758.62 439.69L759.69 437.43L762.73 431.01L745.84 431.42L741.94 431.84L738.19 431.08L729.89 429.92L729.67 432.98L722.83 428.85L720.20 427.26L717.35 425.53L708.29 419.40L705.48 417.49L696.77 411.86L691.35 406.63L688.67 406.63L676.35 415.31L662.10 425.52L660.66 428.83L657.04 431.41L655.42 432.69L651.56 433.55L649.66 432.34L622.18 419.05L618.52 417.68L615.01 415.39L610.99 412.77L609.10 411.29L605.32 407.74L589.45 398.74L585.60 397.50L581.71 395.77L576.11 392.59L574.38 391.57L564.30 385.65L562.35 384.50L548.34 377.78L532.16 374.60L524.76 376.99L522.91 377.58L517.84 378.40L515.09 377.93Z" data-ward="11" /></svg>