<svg viewBox="0 0 1000.00 1017.79" xmlns="http://www.w3.org/2000/svg"><style>.ward { fill: #e2e8f0; stroke: #fff; stroke-width: 0.5px; } .ward:hover { fill: #cbd5e1; }</style><path id="ward-16" class="ward" d="M83.84 794.62L83.45 791.91L82.14 785.67L81.30 777.25L79.24 776.71L78.71 772.88L78.33 769.22L78.16 766.67L76.46 760.71L69.71 760.34L69.70 763.79L69.68 768.78L69.67 771.57L69.44 776.88L69.35 778.91L68.91 781.81L68.12 784.47L67.05 786.79L65.26 790.66L62.76 793.45L61.01 794.04L59.03 794.71L55.90 794.67L54.15 794.66L51.89 794.63L48.67 794.62L46.14 794.62L43.52 794.61L41.14 794.61L39.14 794.63L37.08 794.65L35.36 797.24L34.05 800.70L32.94 803.61L32.21 805.55L31.40 807.68L30.45 810.35L28.75 815.13L27.45 819.33L26.30 823.69L25.96 825.53L25.77 828.11L25.44 832.35L25.40 835.62L25.36 838.97L25.00 843.36L24.70 846.31L24.42 848.56L23.66 853.57L22.76 858.64L22.29 861.30L20.65 865.27L19.20 868.73L18.36 872.44L17.70 878.16L17.03 883.93L16.24 885.87L14.85 889.29L12.95 892.89L11.61 895.43L10.22 901.07L8.79 908.78L7.92 913.54L7.10 917.37L6.61 919.66L5.56 924.55L4.82 928.57L3.99 933.60L3.18 938.50L2.59 941.11L2.13 944.44L1.75 947.21L1.50 949.63L0.00 953.49L0.32 955.80L5.22 958.57L9.32 959.65L16.22 961.47L22.71 964.43L28.49 967.06L34.59 957.29L41.68 946.67L48.77 936.05L50.19 930.53L50.76 928.30L51.37 925.91L55.75 912.80L59.49 905.92L63.71 900.75L66.70 897.20L70.05 891.15L71.17 888.40L71.98 884.30L72.44 880.70L74.85 871.43L75.09 868.00L75.87 861.32L76.92 854.42L77.22 851.82L79.22 845.91L78.14 839.30L81.61 839.51L83.36 839.62L85.13 839.73L86.83 836.87L87.05 834.57L87.38 831.11L88.92 822.92L89.36 820.59L90.39 815.44L91.52 809.84L83.22 807.54L83.52 801.21L83.84 794.62Z" data-ward="16" /><path id="ward-4" class="ward" d="M873.59 0.82L870.56 0.00L868.41 0.21L859.98 1.03L858.45 1.91L854.75 1.66L848.40 1.23L842.04 1.16L839.93 2.27L836.70 2.38L829.22 2.63L823.19 2.83L820.70 3.11L814.88 7.27L813.59 12.09L812.02 17.99L811.03 21.70L809.94 25.79L808.60 30.79L802.31 30.58L799.39 32.43L798.03 33.88L789.62 42.83L783.61 49.20L780.09 52.93L774.94 61.38L772.42 63.57L766.07 69.68L761.16 75.29L758.30 78.55L757.02 80.01L753.77 84.53L750.13 89.59L747.64 91.98L744.77 94.73L738.55 92.06L727.81 89.09L724.52 87.79L721.21 86.48L715.11 85.10L713.45 84.55L708.89 82.36L704.29 80.15L708.06 72.18L709.28 68.78L710.82 65.44L705.96 61.58L700.97 57.63L697.06 61.99L694.66 60.55L691.46 58.20L687.28 55.13L682.23 52.64L677.51 50.32L673.85 52.13L670.37 53.84L668.18 55.87L665.61 58.45L661.96 63.71L659.66 66.93L658.00 69.39L654.86 72.85L648.30 80.06L644.47 83.93L649.33 85.94L654.25 88.05L656.29 88.93L659.96 90.58L663.93 92.97L668.13 95.48L671.76 98.19L673.74 99.67L677.61 102.56L679.89 104.33L682.18 106.10L683.98 107.46L687.03 109.80L688.87 111.28L690.49 112.56L694.47 115.72L698.04 118.55L699.47 119.64L701.66 121.46L704.31 123.59L706.95 125.72L709.50 127.72L715.29 132.56L721.00 137.33L727.14 142.50L730.17 145.28L732.22 147.17L734.19 148.98L738.03 152.47L739.77 154.04L744.80 149.37L747.51 147.04L750.75 144.98L756.36 141.39L763.77 138.63L770.77 133.68L778.18 131.31L786.84 126.27L790.72 116.78L792.47 104.93L794.42 98.37L796.12 96.73L798.56 97.80L798.72 99.82L799.05 106.07L799.61 107.70L801.85 109.38L804.41 111.80L807.89 112.82L810.70 112.49L813.05 111.92L816.82 111.02L818.88 110.55L821.11 108.22L820.82 102.25L818.42 98.66L820.90 97.33L820.46 90.84L821.13 85.51L822.54 83.55L823.75 81.87L826.42 79.43L829.40 79.11L832.38 78.79L834.79 79.28L837.06 82.10L837.50 84.18L837.42 86.65L837.33 90.80L840.47 94.99L845.69 96.58L851.21 97.12L854.43 96.76L857.05 96.43L861.10 94.43L863.01 93.60L865.96 92.74L870.09 92.52L876.65 86.46L882.06 77.28L883.86 73.45L885.48 69.93L887.61 64.72L892.50 56.78L895.22 48.76L892.51 39.34L890.49 32.29L891.73 26.06L898.16 24.05L901.35 24.60L904.59 26.63L907.68 27.31L912.72 28.42L916.58 28.34L918.75 28.29L920.48 26.96L915.71 20.48L912.74 16.53L909.80 13.19L906.88 9.88L905.35 8.39L899.58 4.70L893.92 3.70L890.84 3.16L888.98 3.01L885.23 2.54L883.19 2.30L881.40 1.94L873.59 0.82Z" data-ward="4" /><path id="ward-17" class="ward" d="M173.89 710.40L176.55 710.23L178.85 710.05L183.60 709.70L185.85 705.52L186.70 701.27L187.37 699.16L188.05 697.00L189.06 694.63L185.50 688.73L183.59 682.78L182.39 678.06L181.41 672.39L180.08 669.09L179.26 667.19L177.49 664.50L171.93 659.70L167.51 655.88L163.34 652.64L159.84 650.81L147.85 648.00L144.76 647.43L136.50 647.10L127.61 646.75L113.76 647.66L100.89 648.92L98.39 649.17L89.22 650.22L83.45 651.81L78.28 652.81L75.80 653.38L67.29 655.40L66.97 659.91L66.72 663.24L66.23 664.91L65.61 667.01L64.19 669.89L62.77 672.74L61.35 676.48L60.26 680.58L59.27 685.01L58.82 686.95L58.34 689.03L57.20 694.21L56.70 698.10L56.99 700.77L57.20 703.27L58.79 712.43L59.10 714.22L59.89 718.77L60.78 723.88L62.14 727.75L63.20 730.75L64.80 733.60L66.16 737.30L66.74 739.47L67.74 743.20L68.11 745.67L68.71 749.64L68.99 753.33L69.26 756.94L69.71 760.34L76.46 760.71L78.16 766.67L78.33 769.22L78.71 772.88L79.24 776.71L81.30 777.25L82.14 785.67L83.45 791.91L83.84 794.62L83.52 801.21L83.22 807.54L91.52 809.84L90.39 815.44L89.36 820.59L88.92 822.92L87.38 831.11L87.05 834.57L86.83 836.87L85.13 839.73L83.36 839.62L81.61 839.51L78.14 839.30L79.22 845.91L85.05 846.59L89.60 847.63L93.68 848.57L95.85 849.32L97.91 850.04L99.80 850.70L101.69 851.36L99.99 861.49L108.15 865.47L110.54 866.24L112.93 867.00L115.39 868.09L117.58 863.18L119.42 859.07L122.85 854.22L123.65 851.21L124.48 843.27L125.99 839.52L126.70 835.25L126.54 832.75L127.20 829.95L127.50 825.76L127.48 822.41L129.19 818.90L131.74 813.68L139.65 812.53L141.77 811.24L145.06 802.78L148.00 797.12L153.57 792.59L154.32 786.04L155.76 778.31L156.70 773.34L158.16 765.65L159.11 760.64L160.68 755.48L162.20 751.83L163.57 748.53L163.16 743.21L162.01 728.82L162.04 726.75L162.20 716.72L162.93 710.59L167.51 711.06L169.95 710.81L173.89 710.40Z" data-ward="17" /><path id="ward-7" class="ward" d="M662.12 338.07L660.92 335.03L661.29 332.76L662.02 328.98L659.95 328.55L657.19 328.69L653.92 329.72L650.47 331.78L642.94 337.03L637.27 338.40L634.74 337.40L627.46 332.68L624.65 333.68L617.54 344.74L614.73 345.52L605.18 346.57L606.17 350.26L607.58 352.16L608.72 354.14L610.63 358.14L611.01 360.03L611.58 362.85L611.82 364.77L612.35 367.92L612.80 370.55L613.15 373.33L613.58 377.67L613.71 379.60L613.91 382.67L614.24 388.06L614.35 390.50L614.88 395.35L615.46 397.49L616.34 399.04L617.65 403.01L617.69 405.92L618.13 410.87L619.29 419.44L620.72 423.04L623.88 428.13L625.61 430.91L627.70 434.16L629.22 436.31L632.04 440.30L633.60 442.78L635.52 445.51L638.01 447.63L642.41 450.69L644.17 453.47L645.47 455.19L647.24 457.09L650.55 460.06L652.66 462.03L654.27 463.20L658.61 464.46L664.00 466.66L666.47 466.68L670.35 466.70L675.86 464.73L680.26 464.16L685.15 463.20L693.67 459.41L698.65 458.72L699.80 457.86L712.38 453.69L728.28 454.80L739.97 458.96L744.07 460.72L763.44 454.56L771.00 452.06L778.05 458.16L780.93 458.44L783.10 458.06L785.56 453.89L787.49 451.78L788.80 448.25L788.71 446.04L797.94 443.20L807.72 441.75L814.78 436.73L818.29 434.63L816.53 431.81L815.46 430.30L812.63 426.39L811.69 424.96L809.73 421.99L806.80 417.52L805.79 415.98L802.53 411.81L800.15 408.89L791.60 400.46L788.61 397.51L783.61 391.70L780.36 387.93L778.76 386.14L776.40 383.50L774.13 379.83L773.44 378.13L771.84 374.21L770.29 368.56L759.29 371.89L756.81 372.60L754.34 373.35L751.84 374.11L750.15 373.90L745.54 361.41L744.92 359.19L745.97 357.80L746.34 353.54L744.22 348.56L742.09 346.34L739.98 347.31L736.42 348.96L732.05 350.97L728.52 352.04L726.73 351.54L724.22 347.51L723.73 345.79L719.81 337.40L717.21 338.10L713.89 339.10L710.89 340.42L705.54 341.39L707.49 351.07L709.85 359.59L711.41 363.41L712.97 367.24L713.93 369.58L710.58 371.47L706.48 372.66L702.35 373.47L698.40 373.03L695.16 370.84L693.93 367.33L692.67 363.67L688.28 358.14L686.55 353.85L685.66 350.84L684.16 349.53L677.68 350.72L674.47 350.91L672.66 349.66L672.27 343.86L668.20 342.94L663.52 342.20L662.58 340.77L662.12 338.07Z" data-ward="7" /><path id="ward-14" class="ward" d="M225.69 709.95L221.44 707.28L219.59 706.15L216.18 704.07L211.61 701.29L207.35 698.70L202.50 696.48L193.10 694.93L191.13 694.78L189.06 694.63L188.05 697.00L187.37 699.16L186.70 701.27L185.85 705.52L183.60 709.70L178.85 710.05L176.55 710.23L173.89 710.40L169.95 710.81L167.51 711.06L162.93 710.59L162.20 716.72L162.04 726.75L162.01 728.82L163.16 743.21L163.57 748.53L162.20 751.83L160.68 755.48L159.11 760.64L158.16 765.65L156.70 773.34L155.76 778.31L154.32 786.04L153.57 792.59L148.00 797.12L145.06 802.78L141.77 811.24L142.57 814.24L142.28 820.39L141.74 825.22L141.53 827.03L146.78 827.92L151.35 828.23L155.00 827.49L158.70 827.93L162.18 819.98L191.87 819.38L193.14 810.37L199.03 811.61L204.24 813.35L201.05 823.95L205.82 827.25L212.45 827.01L213.28 824.93L226.89 829.05L231.45 830.98L234.30 825.61L234.68 815.64L243.71 819.49L252.74 823.52L263.89 828.91L275.72 830.75L291.07 834.04L298.25 835.59L317.26 837.96L327.62 839.53L331.61 840.18L340.51 842.88L344.86 845.78L349.55 846.79L349.67 850.36L360.15 851.80L367.44 854.26L373.68 858.13L379.25 859.17L383.59 849.81L386.41 836.73L390.44 820.37L395.33 808.96L396.33 803.94L396.63 791.04L396.70 776.54L392.43 776.22L388.74 775.25L385.95 774.52L383.87 773.97L377.88 772.36L371.52 770.65L367.07 769.19L362.61 767.72L355.76 765.37L344.95 760.85L343.36 760.18L338.25 758.03L334.03 756.25L329.60 754.37L325.03 752.44L322.96 751.55L319.64 750.06L317.33 749.00L313.13 747.07L308.56 745.07L306.14 744.57L302.69 743.87L297.59 743.07L292.98 742.35L286.11 741.62L279.10 741.79L272.61 741.94L266.68 741.82L261.55 741.71L259.78 741.07L258.01 740.42L254.47 739.14L247.06 730.01L241.28 722.90L236.94 718.44L233.06 715.02L227.92 711.36L225.69 709.95Z" data-ward="14" /><path id="ward-15" class="ward" d="M146.78 827.92L141.53 827.03L141.74 825.22L142.28 820.39L142.57 814.24L141.77 811.24L139.65 812.53L131.74 813.68L129.19 818.90L127.48 822.41L127.50 825.76L127.20 829.95L126.54 832.75L126.70 835.25L125.99 839.52L124.48 843.27L123.65 851.21L122.85 854.22L119.42 859.07L117.58 863.18L115.39 868.09L112.93 867.00L110.54 866.24L108.15 865.47L99.99 861.49L101.69 851.36L99.80 850.70L97.91 850.04L95.85 849.32L93.68 848.57L89.60 847.63L85.05 846.59L79.22 845.91L77.22 851.82L76.92 854.42L75.87 861.32L75.09 868.00L74.85 871.43L72.44 880.70L71.98 884.30L71.17 888.40L70.05 891.15L66.70 897.20L63.71 900.75L59.49 905.92L55.75 912.80L51.37 925.91L50.76 928.30L50.19 930.53L48.77 936.05L41.68 946.67L34.59 957.29L28.49 967.06L30.24 968.96L37.58 976.99L45.90 983.84L53.27 989.91L56.24 992.35L60.16 995.27L67.54 1002.50L69.85 1004.76L72.55 1006.51L81.62 1017.79L97.41 990.36L104.65 972.65L113.98 960.76L120.17 946.34L127.72 949.77L138.62 952.37L140.54 943.53L141.86 940.41L145.97 939.79L146.73 931.52L156.29 934.13L160.08 919.64L161.47 915.35L160.50 909.86L159.47 905.14L159.81 893.73L161.83 883.03L162.09 870.20L164.01 863.46L164.67 858.83L166.14 854.01L167.57 836.91L165.62 836.61L166.51 829.51L165.80 829.46L164.16 829.22L158.70 827.93L155.00 827.49L151.35 828.23L146.78 827.92Z" data-ward="15" /><path id="ward-12" class="ward" d="M405.09 606.27L400.73 605.09L397.06 602.55L395.62 598.77L392.97 598.52L387.23 598.00L385.78 599.97L384.41 601.24L382.04 604.42L381.51 607.66L381.36 612.53L380.52 616.64L378.13 622.71L375.39 626.60L374.16 630.17L375.05 634.72L371.84 639.83L371.36 642.79L370.00 645.16L368.82 651.92L367.01 657.23L364.50 663.97L364.13 671.58L363.49 674.80L361.85 681.26L359.01 687.94L358.31 689.59L356.50 693.96L354.68 697.67L353.65 699.86L352.20 708.03L350.75 716.20L348.49 722.65L345.05 729.25L341.76 735.58L339.21 744.64L338.25 758.03L343.36 760.18L344.95 760.85L355.76 765.37L362.61 767.72L367.07 769.19L371.52 770.65L377.88 772.36L383.87 773.97L385.95 774.52L388.74 775.25L392.43 776.22L396.70 776.54L400.58 776.53L410.77 772.67L418.60 770.22L432.47 764.34L432.56 763.40L434.09 757.32L435.78 750.84L434.51 747.64L439.26 746.52L444.37 746.20L450.68 747.30L461.63 750.06L468.92 751.29L468.62 745.70L468.98 741.93L468.41 738.75L468.06 736.65L467.72 734.62L466.91 729.78L464.07 728.89L461.42 728.04L457.41 725.33L452.86 722.26L450.99 719.33L450.11 716.82L449.44 714.89L448.83 712.89L447.79 709.45L447.04 707.00L446.30 704.55L444.21 700.21L443.00 697.67L441.13 693.76L440.16 691.57L439.89 688.29L438.99 686.32L437.97 684.08L436.17 680.33L435.06 675.84L433.67 669.94L432.23 664.42L431.08 661.37L429.99 659.57L428.63 658.34L425.47 658.08L422.77 648.90L422.30 643.78L421.70 639.59L421.88 634.98L423.90 629.80L425.31 625.84L426.51 620.71L426.97 614.98L426.98 612.46L425.53 610.05L421.09 606.27L416.02 605.78L410.62 606.56L405.09 606.27Z" data-ward="12" /><path id="ward-20" class="ward" d="M361.66 266.06L359.24 265.88L355.48 265.22L352.87 264.80L350.24 264.56L348.56 264.30L346.45 264.14L344.28 263.47L342.55 262.86L340.97 262.21L338.10 260.55L334.75 259.54L330.93 258.94L329.27 261.92L328.98 267.52L328.68 273.40L328.45 276.36L328.19 279.75L328.35 282.56L328.61 287.06L328.85 291.17L329.03 296.49L329.32 300.80L329.45 302.84L329.02 304.88L328.36 310.87L327.79 312.86L326.54 317.23L326.05 318.94L324.25 322.65L320.96 329.41L318.41 333.90L317.16 336.09L316.28 337.63L315.08 339.73L313.37 346.36L312.77 348.71L313.83 351.30L314.94 353.99L315.87 356.02L317.64 358.37L319.66 361.04L321.40 364.92L321.75 367.26L322.28 370.73L322.96 375.27L323.08 383.31L323.19 391.33L323.25 394.96L323.30 398.94L323.34 401.15L325.40 405.12L328.13 410.36L329.25 412.58L331.10 416.25L333.07 421.15L334.33 425.00L334.78 427.20L335.43 430.39L336.20 433.58L336.95 436.68L337.61 439.04L338.15 440.94L339.90 445.78L340.96 448.71L341.99 451.57L344.07 450.68L350.47 448.11L352.83 447.78L355.20 447.44L363.81 447.24L367.76 446.21L370.97 445.36L382.73 445.95L390.82 448.73L398.99 449.48L404.18 451.01L408.42 453.82L421.99 463.92L428.05 453.70L440.08 437.95L453.57 420.29L455.70 404.81L453.82 404.61L453.82 402.74L455.21 393.62L456.72 392.81L459.45 388.21L460.98 379.11L459.12 371.42L456.80 364.43L462.46 358.05L468.12 351.68L463.70 347.45L459.48 340.42L458.15 337.45L453.69 333.79L449.23 330.13L449.46 326.71L450.98 324.87L457.63 323.01L464.34 322.29L467.36 321.35L468.18 317.92L467.92 313.99L467.66 310.07L458.38 307.81L449.22 304.17L445.77 303.27L442.34 303.79L437.23 304.71L435.08 304.32L432.94 303.92L430.74 304.72L428.89 304.27L429.52 299.98L430.53 296.91L429.65 293.81L429.13 289.62L431.42 286.27L432.06 283.83L432.70 281.40L433.89 277.76L434.85 270.68L430.24 273.12L416.85 275.87L404.51 274.47L400.34 272.65L397.28 273.53L395.52 271.12L391.60 263.47L389.20 262.17L385.63 261.86L382.20 262.58L380.16 262.98L377.18 263.21L374.32 263.67L371.50 263.90L367.66 265.43L365.32 266.36L361.66 266.06Z" data-ward="20" /><path id="ward-8" class="ward" d="M560.77 222.81L557.63 222.90L551.34 222.88L548.79 223.39L546.62 224.96L544.91 225.90L542.47 226.54L537.55 226.13L532.20 226.05L530.19 226.32L528.51 226.56L525.31 226.74L519.14 227.83L516.95 228.87L514.97 230.33L515.30 233.35L515.87 235.54L516.21 237.95L516.21 240.01L515.10 241.67L512.12 244.86L508.57 247.74L505.84 247.61L504.07 247.57L503.63 251.12L503.20 254.66L502.02 259.21L501.16 262.33L500.11 264.72L499.20 266.56L498.47 273.59L498.18 277.30L492.78 277.57L490.40 277.28L487.67 276.96L484.17 275.92L481.71 274.60L476.09 272.59L472.01 272.02L469.33 270.59L467.14 269.56L464.00 267.52L461.74 266.06L458.50 264.70L456.26 264.31L453.46 263.76L448.67 263.42L434.85 270.68L433.89 277.76L432.70 281.40L432.06 283.83L431.42 286.27L429.13 289.62L429.65 293.81L430.53 296.91L429.52 299.98L428.89 304.27L430.74 304.72L432.94 303.92L435.08 304.32L437.23 304.71L442.34 303.79L445.77 303.27L449.22 304.17L458.38 307.81L467.66 310.07L467.92 313.99L468.18 317.92L467.36 321.35L464.34 322.29L457.63 323.01L450.98 324.87L449.46 326.71L449.23 330.13L453.69 333.79L458.15 337.45L459.48 340.42L463.70 347.45L468.12 351.68L472.92 352.31L477.11 354.93L482.70 357.49L489.28 360.15L490.24 354.87L492.39 347.29L496.99 340.95L498.34 339.09L513.18 329.82L518.38 329.68L523.48 333.85L526.23 338.40L528.28 346.47L529.22 351.98L529.30 355.01L529.45 360.32L529.60 365.63L531.13 368.27L534.14 370.13L538.76 371.12L544.37 369.45L548.58 369.18L551.41 371.63L556.60 376.71L562.88 381.67L569.16 386.64L574.79 389.86L579.18 389.74L586.04 388.19L592.54 386.24L594.52 379.90L598.63 376.65L600.84 374.49L602.24 373.13L605.62 371.85L609.06 370.54L612.80 370.55L612.35 367.92L611.82 364.77L611.58 362.85L611.01 360.03L610.63 358.14L608.72 354.14L607.58 352.16L606.17 350.26L605.18 346.57L614.73 345.52L617.54 344.74L624.65 333.68L627.46 332.68L634.74 337.40L637.27 338.40L642.94 337.03L650.47 331.78L653.92 329.72L657.19 328.69L659.95 328.55L662.02 328.98L661.29 332.76L660.92 335.03L662.12 338.07L662.58 340.77L663.52 342.20L668.20 342.94L672.27 343.86L672.66 349.66L674.47 350.91L677.68 350.72L684.16 349.53L681.89 345.48L680.39 341.64L679.63 337.50L679.11 333.29L678.99 329.68L678.94 327.98L677.76 324.46L675.31 319.51L669.26 315.40L664.84 310.93L663.03 305.03L662.07 300.79L659.74 299.34L654.46 297.57L647.25 295.11L640.89 292.50L635.65 290.05L632.97 287.89L627.83 287.60L625.72 287.12L622.87 286.48L618.96 284.15L615.90 280.80L613.26 277.71L612.09 276.35L610.81 274.73L608.61 271.96L604.45 268.72L600.67 267.81L595.60 270.00L593.13 272.01L588.61 273.57L586.65 273.97L582.61 273.80L582.53 263.50L582.13 260.73L581.78 258.42L581.89 254.52L581.90 251.11L581.91 247.88L582.11 242.33L581.44 237.46L581.17 231.61L580.13 227.63L578.55 224.86L577.43 223.05L574.25 222.81L572.54 222.81L569.32 222.82L560.77 222.81Z" data-ward="8" /><path id="ward-19" class="ward" d="M241.99 439.67L236.86 439.22L231.50 438.56L223.43 438.01L220.27 437.90L215.82 438.11L211.66 438.30L204.67 439.77L201.67 439.99L199.37 440.15L195.89 440.10L193.81 440.69L193.25 443.55L192.76 446.06L192.47 448.15L192.77 451.26L193.07 455.16L193.37 459.03L193.61 462.77L193.86 466.47L193.08 469.90L192.70 471.59L191.75 475.93L190.20 480.60L188.80 484.02L189.40 490.30L189.72 493.66L190.12 497.94L202.12 499.03L209.90 498.07L224.28 506.44L228.21 514.79L239.23 522.06L238.98 531.46L254.74 540.23L282.60 545.84L286.68 552.26L303.78 544.79L322.19 540.06L331.07 540.82L339.19 540.27L342.66 538.89L347.96 535.68L350.79 536.36L353.34 538.74L355.89 544.50L357.85 548.96L360.63 550.34L364.48 551.18L366.48 552.37L368.71 553.70L372.92 558.28L374.49 560.86L376.07 563.45L378.77 565.56L382.40 567.57L387.02 568.62L391.25 567.99L399.52 564.45L411.04 557.47L419.02 552.64L426.40 550.05L430.68 546.86L430.40 543.38L429.44 540.07L431.82 536.87L436.69 526.29L437.35 517.79L437.77 509.96L439.73 503.53L440.91 498.01L436.88 498.67L431.37 497.15L429.05 496.86L426.04 496.52L419.33 493.34L411.45 488.88L409.68 487.88L407.36 486.55L408.21 484.08L409.43 480.57L413.08 476.38L416.99 470.27L421.99 463.92L408.42 453.82L404.18 451.01L398.99 449.48L390.82 448.73L382.73 445.95L370.97 445.36L367.76 446.21L363.81 447.24L355.20 447.44L352.83 447.78L350.47 448.11L344.07 450.68L341.99 451.57L337.80 452.30L335.64 452.67L333.70 453.01L330.76 453.53L328.99 453.85L324.26 454.76L318.66 455.84L316.51 456.26L313.26 456.06L310.39 455.89L306.60 455.66L302.26 455.64L299.51 455.63L294.79 455.64L291.44 455.24L288.74 454.92L286.95 454.51L284.30 453.89L278.62 452.57L275.68 451.78L273.76 451.27L271.09 450.27L267.90 449.06L265.76 448.17L264.12 447.29L260.89 445.39L257.98 443.68L255.83 442.58L253.69 441.48L251.02 440.55L247.88 440.18L241.99 439.67Z" data-ward="19" /><path id="ward-13" class="ward" d="M381.36 612.53L381.51 607.66L382.04 604.42L384.41 601.24L385.78 599.97L387.23 598.00L388.77 592.65L378.46 591.09L363.65 590.47L359.36 604.00L357.27 606.42L349.18 613.91L343.86 613.96L340.95 613.03L340.12 609.88L340.81 604.94L333.45 602.18L324.67 599.49L321.44 598.49L309.88 594.92L308.96 596.39L306.82 600.81L303.43 606.14L302.20 615.43L300.17 626.51L297.08 635.81L294.85 634.87L286.52 631.16L278.45 625.35L277.43 632.36L275.63 639.74L274.93 642.64L274.30 645.14L273.68 647.64L271.59 654.09L267.65 664.12L264.83 671.29L264.21 672.86L258.90 684.63L257.66 686.84L256.41 689.06L254.51 692.43L249.95 701.29L247.72 706.78L246.33 710.19L244.93 713.60L244.00 715.77L243.07 717.92L242.16 719.85L241.28 722.90L247.06 730.01L254.47 739.14L258.01 740.42L259.78 741.07L261.55 741.71L266.68 741.82L272.61 741.94L279.10 741.79L286.11 741.62L292.98 742.35L297.59 743.07L302.69 743.87L306.14 744.57L308.56 745.07L313.13 747.07L317.33 749.00L319.64 750.06L322.96 751.55L325.03 752.44L329.60 754.37L334.03 756.25L338.25 758.03L339.21 744.64L341.76 735.58L345.05 729.25L348.49 722.65L350.75 716.20L352.20 708.03L353.65 699.86L354.68 697.67L356.50 693.96L358.31 689.59L359.01 687.94L361.85 681.26L363.49 674.80L364.13 671.58L364.50 663.97L367.01 657.23L368.82 651.92L370.00 645.16L371.36 642.79L371.84 639.83L375.05 634.72L374.16 630.17L375.39 626.60L378.13 622.71L380.52 616.64L381.36 612.53Z" data-ward="13" /><path id="ward-18" class="ward" d="M190.12 497.94L191.35 502.05L191.39 502.18L191.64 502.86L191.97 507.79L191.97 507.83L191.94 508.14L191.47 511.18L191.03 514.00L191.02 514.13L191.00 514.28L190.99 514.34L190.19 520.30L189.64 522.58L189.48 523.08L189.46 523.13L186.79 527.49L185.98 528.38L185.09 528.34L181.30 527.64L180.67 527.60L179.94 528.68L179.04 531.51L179.04 531.52L176.72 538.96L176.68 539.08L176.07 541.40L175.06 548.12L174.93 548.83L174.88 549.05L173.27 554.82L172.93 555.57L172.69 555.97L169.90 559.86L167.51 562.67L167.43 562.76L166.39 563.87L166.37 563.90L161.95 568.72L161.89 568.79L161.83 568.85L157.29 572.60L153.62 574.52L152.24 575.80L148.78 579.03L145.65 582.44L144.43 585.11L144.29 585.93L142.76 588.44L141.21 593.25L139.83 595.31L138.10 597.89L136.83 599.67L135.70 601.25L134.67 602.68L131.08 604.62L126.45 604.61L124.27 605.13L122.14 608.72L119.28 614.92L117.21 617.46L115.45 619.61L112.41 623.35L110.28 625.62L107.99 628.06L105.48 631.29L104.18 632.97L101.29 636.91L98.93 639.11L94.12 643.61L91.80 645.64L89.22 650.22L98.39 649.17L100.89 648.92L113.76 647.66L127.61 646.75L136.50 647.10L144.76 647.43L147.85 648.00L159.84 650.81L163.34 652.64L167.51 655.88L171.93 659.70L177.49 664.50L179.26 667.19L180.08 669.09L181.41 672.39L182.39 678.06L183.59 682.78L185.50 688.73L189.06 694.63L191.13 694.78L193.10 694.93L202.50 696.48L207.35 698.70L211.61 701.29L216.18 704.07L219.59 706.15L221.44 707.28L225.69 709.95L227.92 711.36L233.06 715.02L236.94 718.44L241.28 722.90L242.16 719.85L243.07 717.92L244.00 715.77L244.93 713.60L246.33 710.19L247.72 706.78L249.95 701.29L254.51 692.43L256.41 689.06L257.66 686.84L258.90 684.63L264.21 672.86L264.83 671.29L267.65 664.12L271.59 654.09L273.68 647.64L274.30 645.14L274.93 642.64L275.63 639.74L277.43 632.36L278.45 625.35L275.68 610.01L273.02 595.26L271.96 586.07L275.08 581.11L276.83 579.29L279.15 576.88L285.09 573.08L290.15 567.69L297.44 560.98L320.66 543.74L322.19 540.06L303.78 544.79L286.68 552.26L282.60 545.84L254.74 540.23L238.98 531.46L239.23 522.06L228.21 514.79L224.28 506.44L209.90 498.07L202.12 499.03L190.12 497.94Z" data-ward="18" /><path id="ward-9" class="ward" d="M529.30 355.01L529.22 351.98L528.28 346.47L526.23 338.40L523.48 333.85L518.38 329.68L513.18 329.82L498.34 339.09L496.99 340.95L492.39 347.29L490.24 354.87L489.28 360.15L482.70 357.49L477.11 354.93L472.92 352.31L468.12 351.68L462.46 358.05L456.80 364.43L459.12 371.42L460.98 379.11L459.45 388.21L456.72 392.81L455.21 393.62L453.82 402.74L453.82 404.61L455.70 404.81L453.57 420.29L440.08 437.95L428.05 453.70L421.99 463.92L416.99 470.27L413.08 476.38L409.43 480.57L408.21 484.08L407.36 486.55L409.68 487.88L411.45 488.88L419.33 493.34L426.04 496.52L429.05 496.86L431.37 497.15L436.88 498.67L440.91 498.01L445.18 497.22L448.39 496.61L446.98 490.45L449.43 483.13L451.50 481.07L454.92 479.19L457.26 475.54L461.25 468.32L462.79 463.45L467.57 459.05L471.15 456.63L473.73 454.17L474.90 450.66L473.26 441.14L475.26 436.97L479.50 435.96L486.02 432.46L489.15 432.63L491.59 434.93L518.99 440.66L524.58 442.90L549.11 452.71L562.77 460.43L569.24 469.65L579.32 483.57L586.58 491.79L597.29 495.88L608.09 505.43L616.64 498.64L625.02 495.21L632.42 489.61L639.82 484.02L655.27 483.16L659.31 481.46L664.31 479.34L664.33 476.79L664.32 474.76L664.00 466.66L658.61 464.46L654.27 463.20L652.66 462.03L650.55 460.06L647.24 457.09L645.47 455.19L644.17 453.47L642.41 450.69L638.01 447.63L635.52 445.51L633.60 442.78L632.04 440.30L629.22 436.31L627.70 434.16L625.61 430.91L623.88 428.13L620.72 423.04L619.29 419.44L618.13 410.87L617.69 405.92L617.65 403.01L616.34 399.04L615.46 397.49L614.88 395.35L614.35 390.50L614.24 388.06L613.91 382.67L613.71 379.60L613.58 377.67L613.15 373.33L612.80 370.55L609.06 370.54L605.62 371.85L602.24 373.13L600.84 374.49L598.63 376.65L594.52 379.90L592.54 386.24L586.04 388.19L579.18 389.74L574.79 389.86L569.16 386.64L562.88 381.67L556.60 376.71L551.41 371.63L548.58 369.18L544.37 369.45L538.76 371.12L534.14 370.13L531.13 368.27L529.60 365.63L529.45 360.32L529.30 355.01Z" data-ward="9" /><path id="ward-2" class="ward" d="M661.58 104.45L663.70 100.98L666.47 97.54L668.13 95.48L663.93 92.97L659.96 90.58L656.29 88.93L654.25 88.05L649.33 85.94L644.47 83.93L640.23 89.10L638.29 91.14L635.33 94.01L631.45 97.71L626.36 102.41L622.47 106.00L620.74 107.60L615.29 111.55L612.54 113.53L610.55 113.64L607.62 113.34L602.70 111.72L597.88 110.14L591.56 108.06L585.63 106.11L581.10 104.53L577.22 103.91L568.45 102.51L560.37 101.21L553.44 100.24L546.21 98.92L544.30 98.30L542.53 97.83L537.55 96.49L532.29 95.07L526.58 94.54L521.57 94.08L516.01 93.99L509.67 93.88L503.68 94.83L498.99 95.58L496.32 96.00L494.09 97.20L486.63 101.19L483.78 102.67L481.85 103.67L479.61 104.74L476.49 105.98L474.29 106.79L471.18 106.75L465.68 106.42L465.43 108.66L465.25 110.55L465.34 112.58L464.72 115.02L464.88 118.20L464.82 120.22L464.09 122.39L463.72 124.51L463.46 126.91L462.15 128.05L460.38 128.35L460.14 131.59L459.74 133.84L459.32 136.01L458.85 138.45L458.58 141.04L458.39 142.92L458.22 146.35L458.14 148.06L457.54 150.65L457.54 153.19L457.82 155.51L457.67 158.43L458.99 160.99L461.54 161.36L467.17 161.60L470.05 161.76L472.96 161.60L473.38 163.35L473.51 167.22L475.69 169.13L475.67 171.37L475.76 173.16L475.87 175.21L475.95 177.73L476.01 179.54L476.97 183.20L478.31 185.95L479.73 187.00L482.42 188.00L485.28 189.17L488.96 191.19L490.99 191.73L493.74 190.80L495.84 188.42L498.20 186.81L500.88 187.47L506.12 187.83L511.10 187.60L513.96 187.25L514.92 189.30L516.20 193.23L516.76 195.95L517.05 199.08L518.07 203.05L519.08 207.16L519.52 208.98L519.90 212.07L520.04 215.36L519.99 218.98L519.88 221.06L519.83 224.63L519.14 227.83L525.31 226.74L528.51 226.56L530.19 226.32L532.20 226.05L537.55 226.13L542.47 226.54L544.91 225.90L546.62 224.96L548.79 223.39L551.34 222.88L557.63 222.90L560.77 222.81L569.32 222.82L572.54 222.81L574.25 222.81L577.43 223.05L581.52 221.55L584.31 221.26L587.12 220.87L589.62 219.21L592.63 216.82L598.08 215.70L604.00 215.62L607.09 214.40L611.35 212.51L614.45 211.12L617.02 209.92L619.30 208.71L622.56 207.09L624.26 206.23L629.67 203.40L636.55 199.50L638.55 198.16L648.08 192.03L652.53 189.77L654.07 188.98L660.70 183.39L658.75 180.93L657.44 179.51L655.71 175.71L651.99 172.67L647.41 175.14L645.94 176.39L644.32 175.40L642.36 172.33L640.78 170.14L638.72 168.09L636.42 165.89L634.15 164.01L634.25 160.21L631.81 157.82L630.43 156.86L630.78 150.71L635.06 150.46L637.99 149.91L640.95 149.14L642.88 145.72L644.22 140.70L645.20 134.61L646.81 131.06L650.43 128.13L652.50 126.55L654.15 121.75L656.23 117.07L656.94 115.22L661.58 104.45Z" data-ward="2" /><path id="ward-1" class="ward" d="M464.72 115.02L465.34 112.58L465.25 110.55L465.43 108.66L465.68 106.42L463.57 106.18L459.28 105.69L457.34 107.01L456.21 108.52L454.73 110.01L452.13 110.26L450.37 110.44L448.03 110.67L446.08 110.86L441.79 111.28L438.75 111.92L433.47 112.75L431.81 113.11L429.05 113.95L422.64 116.16L418.38 116.59L411.29 115.55L405.32 114.68L402.52 114.33L400.55 114.34L398.36 114.34L397.55 117.32L397.22 119.21L396.86 121.33L396.30 124.54L395.87 127.03L395.34 130.13L394.67 132.79L393.61 135.28L392.53 137.83L391.33 142.20L389.48 146.27L387.60 150.42L386.24 152.96L383.37 153.76L379.57 154.80L379.03 156.52L379.96 158.46L380.49 160.70L379.83 162.88L376.39 167.37L373.53 170.93L371.49 173.31L369.71 175.39L367.06 178.74L364.09 182.26L362.41 184.21L360.82 186.04L357.75 189.33L355.18 191.96L352.23 194.97L350.27 197.60L348.24 200.32L346.16 204.53L344.91 207.05L343.92 209.37L343.22 211.52L341.96 214.76L340.95 217.34L339.96 219.85L339.27 222.20L338.39 224.03L337.51 227.06L337.00 229.04L336.45 231.18L335.84 233.51L334.79 237.43L334.36 239.71L333.90 241.88L332.89 246.56L332.50 248.39L331.87 251.89L331.50 253.96L330.93 258.94L334.75 259.54L338.10 260.55L340.97 262.21L342.55 262.86L344.28 263.47L346.45 264.14L348.56 264.30L350.24 264.56L352.87 264.80L355.48 265.22L359.24 265.88L361.66 266.06L365.32 266.36L367.66 265.43L371.50 263.90L374.32 263.67L377.18 263.21L380.16 262.98L382.20 262.58L385.63 261.86L389.20 262.17L391.60 263.47L395.52 271.12L397.28 273.53L400.34 272.65L404.51 274.47L416.85 275.87L430.24 273.12L434.85 270.68L448.67 263.42L453.46 263.76L456.26 264.31L458.50 264.70L461.74 266.06L464.00 267.52L467.14 269.56L469.33 270.59L472.01 272.02L476.09 272.59L481.71 274.60L484.17 275.92L487.67 276.96L490.40 277.28L492.78 277.57L498.18 277.30L498.47 273.59L499.20 266.56L500.11 264.72L501.16 262.33L502.02 259.21L503.20 254.66L503.63 251.12L504.07 247.57L505.84 247.61L508.57 247.74L512.12 244.86L515.10 241.67L516.21 240.01L516.21 237.95L515.87 235.54L515.30 233.35L514.97 230.33L516.95 228.87L519.14 227.83L519.83 224.63L519.88 221.06L519.99 218.98L520.04 215.36L519.90 212.07L519.52 208.98L519.08 207.16L518.07 203.05L517.05 199.08L516.76 195.95L516.20 193.23L514.92 189.30L513.96 187.25L511.10 187.60L506.12 187.83L500.88 187.47L498.20 186.81L495.84 188.42L493.74 190.80L490.99 191.73L488.96 191.19L485.28 189.17L482.42 188.00L479.73 187.00L478.31 185.95L476.97 183.20L476.01 179.54L475.95 177.73L475.87 175.21L475.76 173.16L475.67 171.37L475.69 169.13L473.51 167.22L473.38 163.35L472.96 161.60L470.05 161.76L467.17 161.60L461.54 161.36L458.99 160.99L457.67 158.43L457.82 155.51L457.54 153.19L457.54 150.65L458.14 148.06L458.22 146.35L458.39 142.92L458.58 141.04L458.85 138.45L459.32 136.01L459.74 133.84L460.14 131.59L460.38 128.35L462.15 128.05L463.46 126.91L463.72 124.51L464.09 122.39L464.82 120.22L464.88 118.20L464.72 115.02Z" data-ward="1" /><path id="ward-5" class="ward" d="M907.68 27.31L904.59 26.63L901.35 24.60L898.16 24.05L891.73 26.06L890.49 32.29L892.51 39.34L895.22 48.76L892.50 56.78L887.61 64.72L885.48 69.93L883.86 73.45L882.06 77.28L876.65 86.46L870.09 92.52L865.96 92.74L863.01 93.60L861.10 94.43L857.05 96.43L854.43 96.76L851.21 97.12L845.69 96.58L840.47 94.99L837.33 90.80L837.42 86.65L837.50 84.18L837.06 82.10L834.79 79.28L832.38 78.79L829.40 79.11L826.42 79.43L823.75 81.87L822.54 83.55L821.13 85.51L820.46 90.84L820.90 97.33L818.42 98.66L820.82 102.25L821.11 108.22L818.88 110.55L816.82 111.02L813.05 111.92L810.70 112.49L807.89 112.82L804.41 111.80L801.85 109.38L799.61 107.70L799.05 106.07L798.72 99.82L798.56 97.80L796.12 96.73L794.42 98.37L792.47 104.93L790.72 116.78L786.84 126.27L778.18 131.31L770.77 133.68L763.77 138.63L756.36 141.39L750.75 144.98L747.51 147.04L744.80 149.37L739.77 154.04L745.23 159.86L750.35 165.17L752.04 166.98L757.83 173.18L765.01 182.00L774.29 196.10L775.52 198.11L780.99 207.07L781.96 208.64L787.97 218.37L790.02 221.70L795.25 229.89L798.51 235.01L805.75 247.17L812.20 257.88L813.86 260.42L817.65 266.26L819.10 268.48L821.90 272.64L823.60 275.14L827.80 281.34L831.68 287.06L833.05 288.85L837.59 294.78L838.82 296.25L845.89 304.69L847.61 306.75L851.71 311.19L856.68 316.58L857.98 317.98L861.38 321.39L864.29 324.18L866.33 326.14L875.31 334.59L877.08 336.31L880.33 339.45L882.93 341.96L886.57 345.47L889.04 347.85L891.46 350.23L893.53 352.26L894.75 353.45L897.21 355.75L901.32 359.60L904.04 362.13L906.08 364.09L908.54 366.48L910.34 368.22L911.83 369.68L913.55 371.33L914.81 372.66L917.01 374.98L920.76 378.93L924.28 382.64L928.65 387.42L932.04 391.49L935.68 395.87L947.98 398.60L954.34 401.98L959.84 397.60L961.01 394.87L962.32 390.74L964.86 387.56L973.69 379.70L978.29 375.48L982.90 372.56L981.93 368.68L984.33 366.02L998.52 358.33L999.84 356.47L999.04 354.83L999.03 352.65L999.03 349.36L999.03 345.98L1000.00 341.68L999.87 340.25L999.88 335.44L997.81 332.86L995.11 329.52L991.76 325.34L986.88 321.85L985.30 319.28L983.35 316.09L982.10 313.61L979.88 311.42L978.75 308.65L976.02 306.53L971.91 300.93L968.89 296.82L965.96 292.31L963.46 288.47L960.90 287.88L958.41 287.30L955.04 286.52L948.87 285.08L944.65 284.11L942.35 283.57L938.74 281.17L938.41 279.09L936.13 278.71L935.18 279.46L933.52 279.47L931.53 277.28L928.44 275.23L923.07 273.37L917.46 271.44L906.33 269.78L897.57 276.90L888.89 279.10L880.46 280.13L879.22 280.44L875.87 281.17L875.42 281.22L873.53 281.20L860.84 278.11L859.68 277.38L859.73 276.96L860.46 273.12L860.47 272.33L860.19 270.45L859.81 269.89L858.43 265.96L858.56 264.08L857.26 261.23L857.45 256.64L857.40 253.38L857.36 250.76L857.29 246.12L856.57 240.86L856.10 238.07L855.50 234.53L855.48 232.74L855.37 229.36L855.26 225.93L854.65 221.45L854.29 218.84L853.24 216.45L851.82 215.39L851.41 212.97L852.02 208.92L852.34 206.71L853.86 202.35L854.81 199.39L856.03 195.57L858.29 190.03L859.79 186.35L861.85 182.39L863.34 179.69L865.63 175.51L866.89 170.31L865.69 168.80L862.78 165.13L862.05 163.25L861.82 160.95L862.36 157.41L866.03 148.36L874.10 138.77L876.24 136.45L878.77 133.71L881.43 131.43L884.18 128.77L887.95 124.69L891.35 121.58L894.06 119.11L898.19 115.02L900.20 113.61L903.17 108.44L906.35 110.11L909.46 111.14L915.05 113.01L919.98 114.65L924.01 116.24L925.39 114.08L928.67 108.97L931.19 102.66L933.88 95.94L935.01 93.07L935.88 90.46L937.92 84.23L938.40 82.27L939.26 77.58L939.76 74.03L939.74 72.19L939.55 65.24L939.25 61.24L938.98 58.65L938.05 51.89L937.38 49.68L936.50 46.78L935.28 43.65L934.02 41.61L932.11 38.50L930.67 36.25L928.22 33.62L925.67 30.87L923.44 28.78L920.48 26.96L918.75 28.29L916.58 28.34L912.72 28.42L907.68 27.31Z" data-ward="5" /><path id="ward-6" class="ward" d="M821.90 272.64L819.10 268.48L817.65 266.26L813.86 260.42L812.20 257.88L810.25 259.63L808.87 261.60L807.50 263.57L805.43 266.44L804.18 270.52L802.16 272.23L798.89 273.57L791.70 273.91L789.41 274.02L784.90 273.95L781.85 274.49L780.39 275.30L778.74 276.22L776.88 276.65L774.69 277.15L772.43 277.00L768.01 276.50L765.56 277.70L760.49 281.79L760.80 287.62L761.82 293.48L762.48 297.24L763.29 302.16L763.38 304.65L763.47 307.04L763.19 308.98L762.13 316.29L761.62 323.18L761.88 328.81L762.07 332.93L763.04 335.97L763.91 338.15L764.78 340.31L765.63 344.69L765.90 347.22L766.60 353.76L767.99 359.22L768.56 361.82L769.11 363.70L770.29 368.56L771.84 374.21L773.44 378.13L774.13 379.83L776.40 383.50L778.76 386.14L780.36 387.93L783.61 391.70L788.61 397.51L791.60 400.46L800.15 408.89L802.53 411.81L805.79 415.98L806.80 417.52L809.73 421.99L811.69 424.96L812.63 426.39L815.46 430.30L816.53 431.81L818.29 434.63L820.29 433.07L822.12 432.06L822.28 431.01L826.35 428.67L828.98 427.56L832.73 426.32L835.14 425.63L837.64 424.84L840.09 424.09L847.42 421.52L847.79 418.54L848.35 416.73L849.01 412.29L850.47 408.62L852.55 403.91L854.94 401.68L856.90 396.68L860.74 394.29L875.67 396.13L881.35 396.36L900.55 397.64L910.22 396.18L921.21 393.36L935.68 395.87L932.04 391.49L928.65 387.42L924.28 382.64L920.76 378.93L917.01 374.98L914.81 372.66L913.55 371.33L911.83 369.68L910.34 368.22L908.54 366.48L906.08 364.09L904.04 362.13L901.32 359.60L897.21 355.75L894.75 353.45L893.53 352.26L891.46 350.23L889.04 347.85L886.57 345.47L882.93 341.96L880.33 339.45L877.08 336.31L875.31 334.59L866.33 326.14L864.29 324.18L861.38 321.39L857.98 317.98L856.68 316.58L851.71 311.19L847.61 306.75L845.89 304.69L838.82 296.25L837.59 294.78L833.05 288.85L831.68 287.06L827.80 281.34L823.60 275.14L821.90 272.64Z" data-ward="6" /><path id="ward-3" class="ward" d="M752.04 166.98L750.35 165.17L745.23 159.86L739.77 154.04L738.03 152.47L734.19 148.98L732.22 147.17L730.17 145.28L727.14 142.50L721.00 137.33L715.29 132.56L709.50 127.72L706.95 125.72L704.31 123.59L701.66 121.46L699.47 119.64L698.04 118.55L694.47 115.72L690.49 112.56L688.87 111.28L687.03 109.80L683.98 107.46L682.18 106.10L679.89 104.33L677.61 102.56L673.74 99.67L671.76 98.19L668.13 95.48L666.47 97.54L663.70 100.98L661.58 104.45L656.94 115.22L656.23 117.07L654.15 121.75L652.50 126.55L650.43 128.13L646.81 131.06L645.20 134.61L644.22 140.70L642.88 145.72L640.95 149.14L637.99 149.91L635.06 150.46L630.78 150.71L630.43 156.86L631.81 157.82L634.25 160.21L634.15 164.01L636.42 165.89L638.72 168.09L640.78 170.14L642.36 172.33L644.32 175.40L645.94 176.39L647.41 175.14L651.99 172.67L655.71 175.71L657.44 179.51L658.75 180.93L660.70 183.39L654.07 188.98L652.53 189.77L648.08 192.03L638.55 198.16L636.55 199.50L629.67 203.40L624.26 206.23L622.56 207.09L619.30 208.71L617.02 209.92L614.45 211.12L611.35 212.51L607.09 214.40L604.00 215.62L598.08 215.70L592.63 216.82L589.62 219.21L587.12 220.87L584.31 221.26L581.52 221.55L577.43 223.05L578.55 224.86L580.13 227.63L581.17 231.61L581.44 237.46L582.11 242.33L581.91 247.88L581.90 251.11L581.89 254.52L581.78 258.42L582.13 260.73L582.53 263.50L582.61 273.80L586.65 273.97L588.61 273.57L593.13 272.01L595.60 270.00L600.67 267.81L604.45 268.72L608.61 271.96L610.81 274.73L612.09 276.35L613.26 277.71L615.90 280.80L618.96 284.15L622.87 286.48L625.72 287.12L627.83 287.60L632.97 287.89L635.65 290.05L640.89 292.50L647.25 295.11L654.46 297.57L659.74 299.34L662.07 300.79L663.03 305.03L664.84 310.93L669.26 315.40L675.31 319.51L677.76 324.46L678.94 327.98L678.99 329.68L679.11 333.29L679.63 337.50L680.39 341.64L681.89 345.48L684.16 349.53L685.66 350.84L686.55 353.85L688.28 358.14L692.67 363.67L693.93 367.33L695.16 370.84L698.40 373.03L702.35 373.47L706.48 372.66L710.58 371.47L713.93 369.58L712.97 367.24L711.41 363.41L709.85 359.59L707.49 351.07L705.54 341.39L710.89 340.42L713.89 339.10L717.21 338.10L719.81 337.40L723.73 345.79L724.22 347.51L726.73 351.54L728.52 352.04L732.05 350.97L736.42 348.96L739.98 347.31L742.09 346.34L744.22 348.56L746.34 353.54L745.97 357.80L744.92 359.19L745.54 361.41L750.15 373.90L751.84 374.11L754.34 373.35L756.81 372.60L759.29 371.89L770.29 368.56L769.11 363.70L768.56 361.82L767.99 359.22L766.60 353.76L765.90 347.22L765.63 344.69L764.78 340.31L763.91 338.15L763.04 335.97L762.07 332.93L761.88 328.81L761.62 323.18L762.13 316.29L763.19 308.98L763.47 307.04L763.38 304.65L763.29 302.16L762.48 297.24L761.82 293.48L760.80 287.62L760.49 281.79L765.56 277.70L768.01 276.50L772.43 277.00L774.69 277.15L776.88 276.65L778.74 276.22L780.39 275.30L781.85 274.49L784.90 273.95L789.41 274.02L791.70 273.91L798.89 273.57L802.16 272.23L804.18 270.52L805.43 266.44L807.50 263.57L808.87 261.60L810.25 259.63L812.20 257.88L805.75 247.17L798.51 235.01L795.25 229.89L790.02 221.70L787.97 218.37L781.96 208.64L780.99 207.07L775.52 198.11L774.29 196.10L765.01 182.00L757.83 173.18L752.04 166.98Z" data-ward="3" /><path id="ward-10" class="ward" d="M597.29 495.88L586.58 491.79L579.32 483.57L569.24 469.65L562.77 460.43L549.11 452.71L524.58 442.90L518.99 440.66L491.59 434.93L489.15 432.63L486.02 432.46L479.50 435.96L475.26 436.97L473.26 441.14L474.90 450.66L473.73 454.17L471.15 456.63L467.57 459.05L462.79 463.45L461.25 468.32L457.26 475.54L454.92 479.19L451.50 481.07L449.43 483.13L446.98 490.45L448.39 496.61L445.18 497.22L440.91 498.01L439.73 503.53L437.77 509.96L437.35 517.79L436.69 526.29L431.82 536.87L429.44 540.07L430.40 543.38L430.68 546.86L426.40 550.05L419.02 552.64L411.04 557.47L399.52 564.45L391.25 567.99L387.02 568.62L382.40 567.57L378.77 565.56L376.07 563.45L374.49 560.86L372.92 558.28L368.71 553.70L366.48 552.37L364.48 551.18L360.63 550.34L357.85 548.96L355.89 544.50L353.34 538.74L350.79 536.36L347.96 535.68L342.66 538.89L339.19 540.27L331.07 540.82L322.19 540.06L320.66 543.74L297.44 560.98L290.15 567.69L285.09 573.08L279.15 576.88L276.83 579.29L275.08 581.11L271.96 586.07L273.02 595.26L275.68 610.01L278.45 625.35L286.52 631.16L294.85 634.87L297.08 635.81L300.17 626.51L302.20 615.43L303.43 606.14L306.82 600.81L308.96 596.39L309.88 594.92L321.44 598.49L324.67 599.49L333.45 602.18L340.81 604.94L340.12 609.88L340.95 613.03L343.86 613.96L349.18 613.91L357.27 606.42L359.36 604.00L363.65 590.47L378.46 591.09L388.77 592.65L387.23 598.00L392.97 598.52L395.62 598.77L397.06 602.55L400.73 605.09L405.09 606.27L410.62 606.56L416.02 605.78L421.09 606.27L425.53 610.05L426.98 612.46L435.72 610.60L442.34 608.88L444.89 610.07L448.27 610.35L450.86 609.94L456.27 606.79L461.57 599.07L478.33 604.02L492.76 607.30L491.69 577.68L498.73 539.28L504.08 536.93L508.25 535.39L513.59 534.15L520.64 533.47L526.99 532.99L535.11 532.26L542.66 532.57L551.09 533.42L559.82 534.13L567.64 535.85L573.20 538.61L573.89 540.99L577.23 542.54L585.50 545.03L592.64 547.32L596.50 547.08L599.94 545.90L608.52 543.41L616.42 541.15L623.51 539.40L627.37 537.68L632.55 535.61L639.08 534.73L646.07 533.98L657.60 533.22L668.34 534.66L670.26 535.27L670.78 530.48L668.33 514.15L666.55 505.89L665.71 497.45L665.41 493.85L664.31 479.34L659.31 481.46L655.27 483.16L639.82 484.02L632.42 489.61L625.02 495.21L616.64 498.64L608.09 505.43L597.29 495.88Z" data-ward="10" /><path id="ward-11" class="ward" d="M478.33 604.02L461.57 599.07L456.27 606.79L450.86 609.94L448.27 610.35L444.89 610.07L442.34 608.88L435.72 610.60L426.98 612.46L426.97 614.98L426.51 620.71L425.31 625.84L423.90 629.80L421.88 634.98L421.70 639.59L422.30 643.78L422.77 648.90L425.47 658.08L428.63 658.34L429.99 659.57L431.08 661.37L432.23 664.42L433.67 669.94L435.06 675.84L436.17 680.33L437.97 684.08L438.99 686.32L439.89 688.29L440.16 691.57L441.13 693.76L443.00 697.67L444.21 700.21L446.30 704.55L447.04 707.00L447.79 709.45L448.83 712.89L449.44 714.89L450.11 716.82L450.99 719.33L452.86 722.26L457.41 725.33L461.42 728.04L464.07 728.89L466.91 729.78L467.72 734.62L468.06 736.65L468.41 738.75L468.98 741.93L468.62 745.70L468.92 751.29L471.38 751.42L487.80 752.10L487.27 761.13L495.40 762.85L517.23 768.63L547.54 776.33L551.75 761.44L559.41 754.04L562.07 749.87L563.99 748.42L565.87 740.26L572.34 727.64L574.68 722.19L568.39 720.25L568.75 716.32L560.81 714.96L545.35 712.37L536.71 710.62L530.37 708.94L528.63 705.07L525.66 702.21L513.90 692.23L511.13 689.10L505.69 683.46L500.73 683.68L497.10 677.75L496.28 672.76L495.37 664.63L496.90 654.98L497.55 649.60L511.06 649.45L511.21 647.55L506.70 634.58L499.36 633.27L479.11 628.90L478.33 604.02Z" data-ward="11" /></svg>