<svg viewBox="0 0 1000.00 975.01" xmlns="http://www.w3.org/2000/svg"><style>.ward { fill: #e2e8f0; stroke: #fff; stroke-width: 0.5px; } .ward:hover { fill: #cbd5e1; }</style><path id="ward-14" class="ward" d="M98.67 666.05L97.40 663.63L96.70 660.25L96.23 657.89L95.84 654.83L96.06 652.35L96.96 649.80L100.58 647.87L100.12 645.90L97.02 642.33L91.37 639.38L90.21 634.37L91.89 626.05L90.62 622.91L92.56 617.83L91.22 609.19L88.78 603.40L81.38 595.14L76.08 590.33L75.18 584.89L70.41 581.47L65.73 579.37L59.10 577.81L58.87 583.94L58.77 586.57L58.63 590.00L58.11 596.30L57.88 599.19L58.39 601.73L58.98 604.63L58.48 608.11L57.87 612.32L58.89 614.75L59.61 616.66L59.75 620.52L54.10 630.94L52.43 634.33L49.61 641.21L47.66 648.89L48.98 649.59L49.35 652.72L49.73 655.88L47.72 657.75L45.33 657.95L42.91 658.15L42.23 663.19L41.38 669.40L34.00 672.24L32.05 672.60L30.47 672.40L28.39 672.14L26.45 671.90L24.23 671.59L22.07 671.75L18.97 671.93L14.89 672.49L12.69 672.54L8.28 672.84L8.40 674.89L8.59 678.35L11.40 681.65L14.26 687.36L15.93 690.67L17.57 693.49L22.02 697.11L27.53 701.58L32.24 707.56L34.02 709.82L36.60 714.12L36.97 716.19L37.07 722.90L37.12 727.72L40.28 725.45L43.16 723.86L46.05 722.26L48.26 722.31L50.22 722.36L54.33 720.62L57.40 719.31L61.67 717.50L66.61 714.25L67.93 713.53L72.80 710.88L77.02 710.21L78.59 708.75L79.85 706.54L81.11 704.34L82.41 703.61L85.65 703.84L88.42 704.03L90.66 704.19L91.68 702.41L93.88 698.41L96.58 694.36L98.98 694.94L103.07 698.74L108.06 703.37L112.01 706.45L114.04 707.99L120.29 709.42L122.02 709.83L124.13 711.10L126.84 714.18L129.79 722.76L135.14 724.35L142.00 724.96L144.46 723.38L145.82 721.82L147.40 721.05L149.69 720.73L155.13 723.09L156.93 724.21L157.69 726.32L159.61 726.95L162.45 730.39L166.14 732.21L170.42 731.39L174.74 731.44L179.81 734.03L182.20 736.54L187.59 738.70L205.21 737.76L205.39 741.10L225.21 747.02L223.29 731.90L222.90 729.15L222.40 727.07L221.65 724.97L220.09 720.59L217.48 714.43L216.03 711.53L214.90 709.66L212.91 706.35L211.84 704.18L211.19 701.85L210.55 699.54L203.85 699.50L200.31 697.78L197.01 694.91L196.15 692.88L195.01 690.19L193.93 688.91L192.28 686.96L190.44 685.64L187.20 684.52L183.34 683.20L177.09 682.58L174.64 681.65L173.76 679.79L172.65 677.28L171.34 674.31L169.13 676.30L166.89 678.20L163.63 681.49L161.51 684.35L159.94 686.15L157.96 687.79L155.70 689.04L150.84 689.99L144.39 690.55L141.75 690.01L139.95 688.46L139.15 686.33L137.73 685.76L136.51 684.28L136.59 681.59L135.23 680.73L134.06 675.99L131.54 673.31L125.47 671.04L120.16 668.32L116.06 664.81L110.35 665.04L104.63 666.20L98.67 666.05Z" data-ward="14" /><path id="ward-7" class="ward" d="M581.78 459.59L578.39 456.40L578.82 454.59L579.78 452.55L582.84 446.08L583.55 444.57L585.61 440.36L587.56 436.38L587.99 434.05L588.44 431.59L587.63 426.62L588.45 421.98L579.52 402.65L575.47 393.89L572.93 387.93L571.90 385.51L570.77 383.12L566.78 382.41L559.25 382.04L556.83 381.91L507.19 392.71L497.73 394.76L494.31 396.06L492.91 396.68L483.36 400.81L481.82 401.20L476.55 402.53L472.67 403.01L459.12 404.70L460.76 414.22L458.59 420.71L458.18 423.30L457.89 425.10L458.02 427.47L458.28 432.40L460.44 443.55L460.51 446.71L460.66 452.97L461.43 457.11L464.37 472.71L467.67 478.17L468.36 479.54L470.71 484.48L472.55 487.33L475.14 490.17L476.68 491.58L480.61 495.11L484.46 499.06L488.41 503.15L490.10 505.40L491.81 508.17L492.46 510.07L493.36 512.97L493.83 516.59L493.26 519.92L491.79 522.07L489.19 523.98L485.68 524.92L482.72 525.05L480.56 524.82L477.97 524.23L476.37 523.68L475.03 522.73L473.01 521.14L471.98 520.04L469.62 516.61L465.57 509.13L463.72 507.46L460.56 505.86L452.48 503.53L450.95 503.08L445.62 501.00L442.30 499.72L438.97 498.44L425.47 495.01L423.85 494.46L419.85 493.03L415.44 491.45L413.98 490.93L411.30 490.28L408.48 489.96L405.41 490.02L403.77 490.46L401.55 491.78L400.45 493.04L400.14 497.63L401.58 500.51L402.48 501.79L404.16 503.16L407.62 504.61L411.15 505.70L412.62 506.15L423.20 509.44L429.13 511.94L431.85 513.69L433.28 514.80L434.92 516.09L440.11 520.17L441.58 521.32L443.06 522.48L450.73 527.61L453.27 530.34L454.47 532.16L456.10 535.50L457.72 538.83L458.59 540.65L460.37 545.45L461.14 548.53L461.62 550.58L461.82 552.51L461.94 554.00L461.83 555.76L461.48 557.49L460.38 559.93L458.66 561.26L455.92 561.62L453.37 561.18L444.18 557.81L438.83 555.33L434.71 553.28L431.97 551.55L425.87 547.69L423.92 546.70L422.47 546.20L420.01 545.97L418.32 546.33L416.32 547.15L412.88 549.05L410.50 549.89L408.06 550.07L405.79 549.89L403.98 549.29L400.66 548.19L396.29 546.75L392.35 545.45L378.61 539.34L371.76 537.65L365.94 535.73L363.22 534.95L361.03 534.40L356.39 533.67L350.04 533.14L346.11 532.59L345.55 536.49L344.12 543.53L343.60 548.12L343.81 550.76L357.63 572.56L368.79 583.58L374.20 588.92L388.05 593.01L398.51 596.09L406.08 601.13L422.97 612.38L457.46 641.54L452.07 658.15L457.64 659.86L460.88 660.75L464.08 661.65L469.65 663.25L476.17 665.39L477.74 665.90L480.57 666.83L483.66 667.83L489.84 668.26L494.03 668.90L500.44 670.12L502.46 670.51L504.57 670.29L507.65 668.38L509.71 667.10L512.20 665.26L517.87 665.11L521.23 665.23L524.03 665.33L526.29 665.41L527.55 664.01L529.80 662.42L535.12 661.35L539.06 661.58L542.05 661.75L543.21 655.20L540.76 638.85L569.76 649.30L570.15 647.34L571.06 639.52L566.89 632.47L561.96 629.07L552.21 623.44L550.62 622.67L542.74 618.26L540.82 616.08L540.81 614.18L540.79 612.10L533.92 605.57L533.34 602.62L534.08 597.39L534.91 593.82L535.22 591.91L535.45 590.43L535.27 586.12L535.19 582.94L534.56 578.56L534.48 574.48L534.07 570.59L533.68 569.05L532.46 566.85L530.73 565.35L528.78 564.54L526.75 564.01L524.55 563.67L520.99 562.51L519.25 561.70L516.34 559.72L513.34 557.53L509.41 554.61L507.57 553.42L505.91 552.65L504.54 551.99L502.78 550.88L501.59 549.36L501.33 547.21L501.80 544.87L503.13 541.12L503.80 537.99L503.80 536.01L503.74 533.50L503.77 530.44L504.36 527.76L505.61 526.43L508.17 525.88L509.65 525.69L510.95 524.93L512.22 523.62L513.49 522.31L514.25 519.31L513.93 515.01L513.62 512.66L513.34 510.86L513.07 509.05L512.62 505.64L511.86 501.47L511.07 497.58L510.76 495.20L510.96 492.89L511.51 491.19L512.52 488.10L512.33 485.40L512.21 483.81L512.05 481.62L511.85 479.94L512.15 476.25L512.47 474.73L512.93 472.53L513.65 469.81L514.08 468.17L514.80 466.00L515.32 464.45L515.93 462.79L517.09 459.74L519.12 460.22L521.30 461.17L526.51 464.39L529.05 465.96L537.77 471.01L542.73 473.36L544.18 474.04L547.90 475.19L551.25 476.11L554.17 476.39L555.75 476.55L559.31 476.38L564.06 472.58L566.49 471.37L570.13 470.85L576.73 470.19L579.13 469.69L581.54 469.19L585.33 467.79L586.98 467.19L588.99 466.36L581.78 459.59Z" data-ward="7" /><path id="ward-9" class="ward" d="M596.46 659.24L594.17 657.93L569.76 649.30L540.76 638.85L543.21 655.20L542.05 661.75L539.06 661.58L535.12 661.35L529.80 662.42L527.55 664.01L526.29 665.41L524.03 665.33L521.23 665.23L517.87 665.11L512.20 665.26L509.71 667.10L507.65 668.38L504.57 670.29L502.46 670.51L500.44 670.12L494.03 668.90L489.84 668.26L483.66 667.83L480.57 666.83L477.74 665.90L476.17 665.39L469.65 663.25L464.08 661.65L460.88 660.75L457.64 659.86L452.07 658.15L449.92 660.24L450.55 663.87L451.98 665.58L450.55 670.55L447.32 676.56L446.60 678.36L450.50 678.59L452.11 678.69L448.57 698.99L447.17 707.15L452.52 708.58L455.68 707.93L457.68 708.11L459.70 708.38L462.07 708.87L467.41 711.84L471.18 716.26L471.32 717.83L471.61 721.11L458.74 721.28L454.70 724.29L449.57 723.55L450.62 727.17L453.60 732.81L455.08 734.81L456.76 739.19L456.73 743.30L459.49 749.19L459.58 751.25L459.38 758.52L463.96 764.26L466.41 766.65L470.48 767.81L471.32 769.34L472.29 771.08L472.20 780.50L473.65 781.61L475.38 782.94L478.20 783.01L484.22 783.17L488.23 782.33L489.89 779.84L492.00 778.38L499.19 779.67L501.13 780.39L504.77 781.76L506.77 781.32L511.45 781.87L511.57 783.91L511.69 785.98L511.63 798.33L511.58 802.84L510.53 807.96L513.70 809.32L515.42 809.91L519.66 811.41L521.34 811.84L523.04 812.25L529.60 813.76L531.23 813.96L535.37 814.53L542.92 814.48L552.42 814.41L564.40 813.21L567.69 812.67L569.00 809.70L571.85 807.61L576.35 806.33L578.24 806.22L582.42 806.00L586.90 803.55L589.85 802.54L592.16 802.00L594.60 801.84L598.82 802.05L602.22 804.79L605.93 806.68L609.55 806.84L613.61 806.53L616.73 806.31L630.94 806.77L637.98 806.41L641.07 805.15L657.44 801.50L664.22 799.48L666.82 799.48L672.66 800.31L678.50 801.15L680.72 802.38L684.51 804.51L697.09 808.06L702.54 809.56L705.94 810.21L710.37 808.15L717.00 807.36L718.49 807.78L721.59 808.71L753.03 807.25L757.58 809.56L762.13 811.88L762.28 809.94L763.94 803.07L763.88 800.55L763.78 797.76L763.72 796.05L761.70 790.84L761.19 788.26L760.57 783.84L764.04 781.28L755.19 777.19L749.86 772.21L743.01 767.97L737.74 764.71L735.77 760.18L734.81 757.95L735.29 751.89L737.05 749.35L737.10 747.31L737.17 747.01L737.17 746.90L737.16 746.57L737.07 745.80L737.12 745.39L737.51 744.02L737.66 743.65L737.91 743.31L738.12 742.96L738.22 742.63L738.28 742.35L739.16 740.54L739.25 738.30L739.32 736.29L739.30 732.93L739.54 730.57L739.66 728.99L740.54 725.41L741.79 721.64L742.00 721.34L742.25 720.47L742.11 718.32L741.23 716.63L741.30 715.04L740.14 714.53L736.96 713.95L733.43 714.04L729.90 714.14L727.84 714.19L711.17 714.09L699.21 713.75L688.19 713.32L679.85 709.38L672.44 705.95L655.40 695.39L651.75 693.13L648.91 691.35L636.38 683.48L630.69 679.93L629.10 678.93L621.72 674.24L612.86 668.64L611.60 667.84L601.14 661.90L596.46 659.24Z" data-ward="9" /><path id="ward-18" class="ward" d="M327.33 327.99L324.35 322.83L318.98 320.49L314.90 317.97L311.12 314.07L307.33 311.94L302.35 310.54L297.38 309.14L291.95 308.00L286.93 311.92L284.96 313.45L282.73 315.26L280.50 317.07L277.60 320.70L279.93 321.40L283.72 322.54L285.98 323.02L288.59 323.95L290.14 324.95L294.41 328.74L295.25 330.66L293.59 336.28L292.92 342.89L293.27 346.30L293.68 350.20L294.39 352.04L295.38 354.56L296.15 356.89L297.23 360.11L297.97 362.39L296.27 364.05L294.57 365.71L292.72 366.18L291.29 367.02L289.93 369.23L282.43 374.12L281.22 375.72L276.90 381.41L273.33 383.50L269.70 387.73L266.50 386.75L259.90 385.70L253.52 383.49L249.04 381.13L246.78 379.56L238.87 374.05L232.23 367.93L230.12 366.40L226.14 363.50L222.75 362.43L219.33 361.36L215.22 359.13L207.59 354.99L205.53 353.90L202.27 353.36L200.64 354.71L197.08 357.42L196.81 362.23L196.90 371.99L196.92 375.02L194.13 380.51L193.32 385.77L192.95 388.16L192.39 391.73L192.28 399.30L191.24 403.09L190.78 404.79L188.88 407.34L190.20 412.37L190.59 415.60L189.78 419.63L189.41 421.44L188.56 425.03L187.55 429.30L187.01 434.68L191.05 438.47L194.31 443.82L197.83 451.53L201.45 455.54L208.38 459.63L216.17 464.24L222.71 469.71L227.57 473.01L232.16 474.08L238.25 472.26L242.62 472.62L246.38 476.30L244.47 486.08L238.61 497.92L273.32 510.85L294.04 514.05L309.70 515.89L317.75 508.54L323.91 502.23L329.38 496.62L330.57 495.39L333.95 492.81L337.76 489.22L350.57 477.16L356.61 474.32L356.62 472.65L355.36 470.62L353.60 469.70L352.86 467.89L354.26 464.70L355.21 462.10L351.02 461.52L347.24 460.43L344.07 458.02L346.36 456.52L348.65 455.02L341.85 446.81L338.49 443.68L336.14 429.56L338.65 425.19L341.16 420.81L352.29 418.48L352.90 410.21L350.20 405.43L349.68 403.18L351.40 401.10L356.53 397.22L358.52 393.77L361.28 391.40L367.30 376.40L366.54 371.96L364.78 361.73L356.42 360.04L345.44 355.95L342.77 354.43L339.79 351.56L338.96 348.01L338.60 345.52L336.34 340.75L334.91 333.73L332.56 332.94L330.31 333.16L327.33 327.99Z" data-ward="18" /><path id="ward-2" class="ward" d="M503.11 7.17L502.42 5.25L501.40 2.40L499.57 1.17L496.12 0.00L494.01 0.75L491.02 1.82L486.59 3.40L484.78 3.92L483.08 4.40L478.48 5.37L475.66 5.96L473.61 6.11L471.71 6.77L463.70 8.62L459.94 9.56L457.54 9.59L454.06 9.22L448.07 8.24L446.54 7.97L439.63 5.17L436.14 2.91L432.77 1.69L430.13 1.46L427.50 1.24L423.32 2.01L415.07 3.52L409.94 4.54L406.51 5.21L406.25 8.32L406.48 11.24L404.08 16.82L403.41 18.36L400.96 19.14L398.48 19.93L395.09 19.54L393.24 22.21L392.42 23.89L391.58 25.59L390.04 28.52L389.08 29.92L388.11 31.31L386.49 33.61L384.87 35.92L386.55 37.47L389.95 40.59L391.58 42.08L394.77 44.82L396.10 47.38L392.31 54.54L390.79 55.73L386.38 55.99L388.46 61.24L387.12 68.73L383.28 70.08L382.00 73.67L380.53 76.47L382.47 79.69L382.42 81.63L389.39 85.08L399.60 97.62L405.65 103.67L405.41 116.21L411.92 146.07L412.19 149.08L414.28 148.20L416.15 147.39L418.38 146.23L421.03 143.85L421.09 141.29L422.45 139.94L425.82 138.56L427.89 136.91L429.03 132.93L429.25 130.41L429.56 126.72L429.96 121.99L431.74 118.57L433.68 120.65L435.15 122.24L437.15 123.59L439.41 124.87L443.05 126.97L446.05 129.60L448.32 131.85L448.77 135.38L450.17 137.86L454.73 139.12L455.47 137.66L459.72 139.75L461.91 136.09L462.72 134.75L464.16 131.74L470.42 132.41L471.47 130.40L473.78 129.25L477.17 124.69L479.56 125.31L483.78 128.84L485.09 129.93L490.80 131.01L495.01 132.76L498.82 134.68L500.14 135.53L504.03 135.49L507.62 129.35L510.80 132.21L513.54 134.68L515.62 136.02L521.10 139.56L529.31 144.09L536.08 147.16L539.44 147.61L544.22 147.16L550.53 145.64L553.94 146.32L555.31 148.61L554.95 156.14L554.60 163.68L554.97 169.75L553.24 174.54L550.98 179.73L551.12 182.93L558.48 187.80L561.21 190.63L561.79 193.14L563.26 193.68L565.90 198.41L568.77 202.48L571.16 208.38L572.93 211.69L577.79 215.82L582.02 218.53L585.51 219.61L587.52 219.52L589.37 218.82L598.33 214.60L594.98 210.02L593.56 208.06L592.65 206.27L591.88 204.88L590.76 202.70L591.55 199.71L592.06 197.75L595.80 196.19L599.18 195.18L603.01 193.44L604.78 191.08L606.53 188.74L609.34 187.17L613.31 184.96L615.49 183.74L618.81 181.89L621.04 181.84L623.42 181.79L625.66 181.82L626.85 179.00L628.27 171.99L629.60 165.47L629.91 163.94L631.38 158.57L632.55 154.30L632.45 152.35L634.74 150.01L637.23 147.47L636.12 146.46L631.31 142.05L632.21 139.93L633.50 135.73L621.82 129.98L617.32 127.59L613.29 124.15L612.80 121.61L611.59 119.19L609.67 118.78L608.20 118.47L601.83 119.52L600.32 118.41L596.75 117.01L594.90 116.28L591.77 115.05L587.42 113.34L583.74 111.90L577.07 106.81L575.22 104.48L571.71 104.88L568.21 105.27L565.26 105.91L561.92 106.63L558.91 107.42L557.43 108.16L555.90 108.93L552.80 110.48L548.77 110.77L545.98 110.81L544.18 110.84L541.64 110.80L539.75 110.79L538.35 110.26L538.36 107.49L541.01 105.22L543.54 103.05L544.43 100.61L544.82 96.23L544.84 95.75L543.61 93.82L542.10 93.71L538.14 93.42L537.52 90.73L537.08 88.82L538.00 86.98L539.53 85.28L540.87 83.79L531.64 76.12L528.65 74.80L526.28 74.10L523.97 73.40L516.53 72.76L514.05 72.54L511.32 71.39L510.34 69.33L510.19 65.52L509.74 62.31L509.33 59.39L512.05 57.40L514.24 55.80L518.51 50.91L521.09 51.53L523.71 52.57L526.47 52.09L531.23 51.25L529.61 43.96L530.50 42.11L530.69 38.26L529.88 36.31L527.79 34.31L526.21 32.59L524.92 31.19L523.40 28.53L524.81 24.06L526.23 19.58L518.63 17.92L511.76 16.42L509.47 15.85L507.40 15.40L502.84 11.38L502.35 9.81L503.11 7.17Z" data-ward="2" /><path id="ward-10" class="ward" d="M785.29 787.89L777.60 785.93L772.89 785.15L768.48 783.22L764.04 781.28L760.57 783.84L761.19 788.26L761.70 790.84L763.72 796.05L763.78 797.76L763.88 800.55L763.94 803.07L762.28 809.94L762.13 811.88L757.58 809.56L753.03 807.25L721.59 808.71L718.49 807.78L717.00 807.36L710.37 808.15L705.94 810.21L702.54 809.56L697.09 808.06L684.51 804.51L680.72 802.38L678.50 801.15L672.66 800.31L666.82 799.48L664.22 799.48L657.44 801.50L641.07 805.15L637.98 806.41L630.94 806.77L616.73 806.31L619.73 809.71L620.56 814.98L621.19 818.99L622.64 828.25L624.11 837.67L624.75 840.10L626.00 842.89L630.00 846.93L631.50 848.27L638.51 850.51L645.57 852.75L653.87 855.38L655.38 855.63L667.71 857.46L669.36 859.29L673.00 866.72L677.08 869.66L679.35 871.92L681.40 870.57L683.87 868.95L686.05 867.52L687.45 866.61L690.00 865.01L691.73 863.71L697.12 859.92L703.87 855.17L707.32 852.78L716.36 857.58L719.65 860.04L716.60 862.57L716.44 866.00L724.09 866.66L731.24 871.99L737.33 876.54L742.50 880.84L748.29 885.65L752.12 888.10L760.61 893.51L763.54 898.58L767.89 903.47L769.14 904.76L774.44 910.60L775.84 912.14L778.15 916.75L780.24 919.21L784.56 922.43L789.41 927.07L790.64 928.00L792.26 930.08L795.75 932.36L797.29 933.55L799.85 935.53L804.20 937.99L822.27 948.23L830.11 952.67L839.55 957.19L852.49 962.18L862.98 965.86L870.50 963.77L877.73 961.75L880.74 960.91L882.68 961.32L885.74 963.04L885.68 964.49L886.82 963.47L887.96 962.44L893.03 960.99L896.72 959.94L902.88 960.34L907.45 960.64L913.94 961.07L916.31 962.16L918.67 962.83L920.80 964.45L926.70 968.91L929.58 971.10L933.14 973.80L936.55 973.88L939.36 973.74L941.51 973.38L948.16 971.62L955.70 971.18L958.42 971.45L960.63 972.21L966.66 975.01L968.23 974.93L974.13 974.64L976.37 973.23L977.71 972.38L981.99 969.50L983.46 966.28L984.45 964.12L985.11 962.69L986.68 959.26L988.83 954.58L991.47 952.01L994.93 951.68L996.84 951.50L1000.00 951.21L996.53 947.84L993.90 945.29L990.71 942.19L987.62 939.63L986.09 938.51L975.08 933.01L965.81 928.38L962.33 925.13L958.28 922.39L957.09 920.12L957.70 916.76L958.21 910.67L959.02 903.16L959.21 900.48L959.52 896.19L959.76 893.81L958.50 891.48L957.52 889.66L956.06 888.94L952.29 886.28L945.82 883.44L945.63 883.34L945.62 883.33L944.05 881.96L943.60 881.59L943.58 881.57L939.36 878.12L939.19 877.99L937.73 876.96L937.41 876.82L936.40 876.30L932.28 874.21L932.26 874.20L931.66 873.90L928.58 872.37L928.53 872.35L928.11 872.12L928.09 872.12L925.58 870.78L924.19 870.01L924.14 869.99L919.79 867.49L918.41 866.84L912.49 863.31L905.11 856.94L903.45 851.77L901.71 844.24L898.25 837.48L896.74 831.01L896.19 829.05L895.66 827.15L894.71 824.67L893.36 821.11L891.71 817.74L890.12 817.88L882.03 815.63L878.45 814.63L875.98 813.94L869.64 812.14L865.73 811.03L861.32 810.93L859.35 809.58L856.56 809.43L851.05 811.24L848.93 808.55L845.56 804.28L844.44 801.05L841.82 799.97L839.96 801.10L836.80 801.48L833.74 801.84L830.41 800.00L825.77 800.32L821.20 802.13L818.75 803.11L817.68 801.94L816.22 798.98L810.50 798.12L804.73 797.25L799.60 794.05L791.38 788.91L789.54 788.97L785.29 787.89Z" data-ward="10" /><path id="ward-12" class="ward" d="M254.00 687.37L251.05 686.42L248.09 685.46L246.52 684.71L244.81 683.68L242.59 681.83L241.26 680.54L243.15 663.83L236.84 661.33L234.68 660.48L230.62 659.62L228.11 659.86L225.66 660.10L219.92 664.69L219.33 666.16L218.29 668.80L217.24 675.37L210.68 695.83L210.55 699.54L211.19 701.85L211.84 704.18L212.91 706.35L214.90 709.66L216.03 711.53L217.48 714.43L220.09 720.59L221.65 724.97L222.40 727.07L222.90 729.15L223.29 731.90L225.21 747.02L226.18 751.70L226.71 754.23L228.06 757.10L230.19 759.67L232.62 761.54L234.44 762.35L235.91 763.01L237.70 763.50L241.41 764.51L245.54 764.76L258.38 765.52L266.68 766.01L269.40 766.07L272.12 766.12L274.94 766.18L280.36 766.29L285.83 766.41L291.13 767.52L296.75 768.88L301.13 769.95L304.62 770.95L308.67 772.24L310.78 773.19L312.88 774.14L315.48 775.92L316.76 777.43L316.10 780.64L315.37 784.15L318.34 784.16L324.35 796.09L329.57 807.01L329.93 810.45L332.84 820.79L335.10 834.29L338.22 835.23L347.65 835.35L350.74 833.07L353.07 832.53L358.01 831.38L360.65 831.31L363.40 829.74L365.26 826.77L368.35 821.84L369.50 820.02L367.68 818.53L368.03 804.07L369.40 794.02L373.04 794.00L376.56 795.54L384.21 795.86L387.77 796.59L393.53 797.77L399.78 796.88L402.53 796.45L401.86 794.24L400.83 791.20L399.29 786.83L398.63 784.39L397.51 780.77L396.96 778.74L399.27 777.37L401.60 776.34L404.91 774.84L407.41 774.11L409.49 773.67L411.73 774.60L414.79 775.38L416.29 775.22L417.85 775.12L419.38 774.80L421.45 772.68L423.33 769.20L424.59 768.34L426.26 767.99L430.27 767.88L432.68 767.89L435.96 767.86L438.85 768.08L441.44 768.51L443.23 769.03L445.82 767.42L444.39 765.15L443.54 763.14L442.43 757.47L442.59 751.09L442.77 749.04L443.19 744.79L443.45 742.14L443.43 740.43L443.41 738.21L442.13 735.52L442.25 732.44L443.13 729.53L443.63 727.30L444.03 725.47L444.38 723.90L446.45 723.09L449.57 723.55L454.70 724.29L458.74 721.28L471.61 721.11L471.32 717.83L471.18 716.26L467.41 711.84L462.07 708.87L459.70 708.38L457.68 708.11L455.68 707.93L452.52 708.58L447.17 707.15L445.46 706.35L440.84 704.13L437.84 702.68L428.42 701.23L423.49 699.52L422.19 697.52L420.11 696.45L415.03 696.12L409.02 696.63L405.74 697.34L395.93 699.46L396.10 694.06L392.35 685.70L383.73 683.92L372.86 683.03L370.88 682.16L368.83 680.50L367.26 679.24L362.75 678.56L360.60 677.55L357.78 674.42L355.99 673.07L353.33 672.61L349.96 673.07L345.01 674.27L341.93 674.73L336.47 675.38L334.47 675.35L329.24 674.36L325.41 673.82L322.55 674.19L321.50 672.62L320.57 669.69L318.60 668.39L316.86 669.00L314.13 670.88L311.39 672.76L305.63 673.09L298.06 673.04L296.65 674.00L295.39 676.92L291.91 676.80L289.77 677.48L292.54 702.25L306.44 705.95L305.55 708.75L303.53 714.12L299.49 712.63L292.45 710.03L290.70 709.11L287.82 707.61L282.07 704.01L278.62 700.93L271.77 691.77L268.48 689.34L262.87 689.59L254.00 687.37Z" data-ward="12" /><path id="ward-13" class="ward" d="M108.06 703.37L103.07 698.74L98.98 694.94L96.58 694.36L93.88 698.41L91.68 702.41L90.66 704.19L88.42 704.03L85.65 703.84L82.41 703.61L81.11 704.34L79.85 706.54L78.59 708.75L77.02 710.21L72.80 710.88L67.93 713.53L66.61 714.25L61.67 717.50L57.40 719.31L54.33 720.62L50.22 722.36L48.26 722.31L46.05 722.26L43.16 723.86L40.28 725.45L37.12 727.72L36.47 730.39L31.32 738.34L26.36 745.98L21.42 750.07L16.48 754.16L6.36 762.88L6.33 765.13L6.31 769.50L10.77 771.03L18.08 773.54L21.28 774.18L25.65 775.79L27.23 775.63L37.60 778.52L42.67 779.94L53.96 782.19L58.26 784.65L64.98 788.49L67.47 791.41L75.70 794.58L83.66 798.83L85.14 799.23L88.07 799.50L91.57 799.25L92.41 799.15L95.69 797.64L97.72 796.36L100.67 796.50L100.71 796.51L100.87 796.54L102.39 797.25L103.07 797.69L105.75 799.52L109.19 801.08L109.88 801.25L110.92 801.57L113.53 802.52L115.52 803.05L119.33 803.70L123.01 803.74L131.09 805.66L132.18 806.14L132.45 806.26L138.47 809.07L139.81 809.58L143.68 810.70L146.86 811.75L151.94 813.21L152.87 813.63L155.50 814.55L157.01 813.77L164.89 814.59L167.78 814.90L175.26 814.33L178.39 813.87L188.14 812.44L194.95 812.43L197.08 812.42L201.08 813.05L209.38 814.34L212.34 815.36L218.85 817.60L222.25 816.72L222.40 816.68L222.42 816.54L222.89 815.23L227.20 808.34L233.18 793.55L244.90 791.89L247.23 792.16L256.29 793.20L261.30 793.52L262.98 793.89L266.45 794.82L274.51 794.77L279.14 794.86L279.72 794.68L285.91 793.31L289.32 793.12L293.92 790.45L297.11 788.60L299.47 787.64L308.03 784.88L311.75 784.51L315.37 784.15L316.10 780.64L316.76 777.43L315.48 775.92L312.88 774.14L310.78 773.19L308.67 772.24L304.62 770.95L301.13 769.95L296.75 768.88L291.13 767.52L285.83 766.41L280.36 766.29L274.94 766.18L272.12 766.12L269.40 766.07L266.68 766.01L258.38 765.52L245.54 764.76L241.41 764.51L237.70 763.50L235.91 763.01L234.44 762.35L232.62 761.54L230.19 759.67L228.06 757.10L226.71 754.23L226.18 751.70L225.21 747.02L205.39 741.10L205.21 737.76L187.59 738.70L182.20 736.54L179.81 734.03L174.74 731.44L170.42 731.39L166.14 732.21L162.45 730.39L159.61 726.95L157.69 726.32L156.93 724.21L155.13 723.09L149.69 720.73L147.40 721.05L145.82 721.82L144.46 723.38L142.00 724.96L135.14 724.35L129.79 722.76L126.84 714.18L124.13 711.10L122.02 709.83L120.29 709.42L114.04 707.99L112.01 706.45L108.06 703.37Z" data-ward="13" /><path id="ward-1" class="ward" d="M405.41 116.21L405.65 103.67L399.60 97.62L389.39 85.08L382.42 81.63L384.12 84.42L383.37 88.34L380.02 93.35L377.91 96.49L375.66 99.23L372.66 101.39L369.70 101.51L366.62 103.88L362.62 106.97L363.69 113.07L359.89 116.41L356.15 117.33L345.86 112.63L340.34 109.29L338.16 108.59L333.37 107.03L329.25 105.70L325.23 105.94L318.87 106.32L314.46 108.78L310.25 113.42L308.50 114.90L304.77 118.07L300.39 121.34L299.65 130.83L290.86 135.03L286.93 136.65L284.20 137.40L280.96 140.45L280.28 141.94L278.16 146.59L277.71 150.47L276.03 153.72L269.79 154.74L267.08 155.19L261.46 156.40L259.85 158.31L255.98 161.05L253.86 164.23L251.48 167.79L245.84 170.22L241.91 170.06L240.54 171.22L236.15 176.15L232.14 177.04L230.03 177.50L226.65 178.83L219.40 185.25L217.79 186.00L212.88 189.22L212.33 189.45L207.91 191.91L203.43 193.55L206.02 198.71L212.51 197.53L221.62 206.80L229.25 213.00L243.12 229.00L245.78 232.10L247.11 233.65L249.63 234.86L251.78 240.89L249.93 248.59L247.89 257.04L258.18 251.99L261.79 250.21L264.85 246.01L268.25 241.35L271.16 242.86L276.87 232.54L280.52 223.82L285.38 225.52L299.59 229.00L302.08 229.69L313.65 232.10L317.03 230.62L323.84 227.62L334.13 223.10L340.47 207.50L340.92 205.96L339.77 202.55L338.22 202.33L332.34 201.85L329.83 202.51L327.12 202.69L325.40 201.73L320.55 196.32L315.87 194.56L314.12 194.51L312.36 194.46L310.46 193.44L309.34 191.63L309.45 189.23L309.52 187.66L309.95 185.69L311.05 180.72L312.26 177.98L312.87 176.62L313.71 174.78L325.23 163.85L331.56 162.63L333.30 162.07L335.58 161.25L337.89 160.41L348.50 158.01L350.86 157.48L353.06 156.98L355.33 156.59L357.58 156.20L363.94 156.01L368.02 152.69L372.53 155.56L374.19 155.37L375.70 155.20L380.90 154.62L382.41 153.72L387.22 150.87L390.34 152.36L392.52 152.05L394.67 151.75L398.42 151.48L399.95 151.38L403.72 151.10L408.25 150.02L412.19 149.08L411.92 146.07L405.41 116.21Z" data-ward="1" /><path id="ward-15" class="ward" d="M118.17 535.69L115.73 534.28L108.15 532.16L97.53 534.33L84.97 537.52L75.85 537.48L75.93 542.58L75.98 545.49L76.07 550.83L77.85 553.83L78.86 563.21L79.00 568.01L77.75 572.64L74.90 574.62L68.89 575.65L59.10 577.81L65.73 579.37L70.41 581.47L75.18 584.89L76.08 590.33L81.38 595.14L88.78 603.40L91.22 609.19L92.56 617.83L90.62 622.91L91.89 626.05L90.21 634.37L91.37 639.38L97.02 642.33L100.12 645.90L100.58 647.87L96.96 649.80L96.06 652.35L95.84 654.83L96.23 657.89L96.70 660.25L97.40 663.63L98.67 666.05L104.63 666.20L110.35 665.04L116.06 664.81L120.16 668.32L125.47 671.04L131.54 673.31L134.06 675.99L135.23 680.73L136.59 681.59L136.51 684.28L137.73 685.76L139.15 686.33L139.95 688.46L141.75 690.01L144.39 690.55L150.84 689.99L155.70 689.04L157.96 687.79L159.94 686.15L161.51 684.35L163.63 681.49L166.89 678.20L169.13 676.30L171.34 674.31L172.65 677.28L173.76 679.79L174.64 681.65L177.09 682.58L183.34 683.20L187.20 684.52L190.44 685.64L192.28 686.96L193.93 688.91L195.01 690.19L196.15 692.88L197.01 694.91L200.31 697.78L203.85 699.50L210.55 699.54L210.68 695.83L217.24 675.37L218.29 668.80L219.33 666.16L219.92 664.69L225.66 660.10L228.11 659.86L230.62 659.62L234.68 660.48L236.84 661.33L243.15 663.83L246.11 664.92L251.82 667.04L255.17 668.00L258.98 667.94L260.72 667.34L262.53 665.70L262.94 663.33L262.70 660.11L262.57 658.42L261.62 654.16L259.87 650.67L258.40 647.75L257.67 646.29L254.69 642.12L251.85 638.21L250.72 637.09L247.72 635.06L245.58 633.62L243.76 632.61L239.80 630.43L237.93 628.95L234.78 626.47L231.42 623.14L229.15 620.33L227.27 618.00L225.91 616.08L224.61 614.33L222.66 611.69L220.15 606.84L217.42 600.03L214.16 595.54L211.19 592.78L206.62 588.54L201.76 584.02L199.54 581.96L197.42 579.73L195.17 577.21L190.30 571.75L189.19 570.41L186.41 566.95L182.80 560.97L181.67 558.47L181.35 556.04L182.05 554.16L183.56 552.53L171.07 549.71L170.24 543.28L169.78 538.81L165.22 539.02L161.75 539.72L156.31 541.44L150.04 541.50L145.90 541.54L141.35 543.87L128.69 543.29L120.63 537.75L118.17 535.69Z" data-ward="15" /><path id="ward-17" class="ward" d="M227.57 473.01L222.71 469.71L216.17 464.24L208.38 459.63L201.45 455.54L197.83 451.53L194.31 443.82L191.05 438.47L187.01 434.68L187.55 429.30L188.56 425.03L189.41 421.44L189.78 419.63L190.59 415.60L190.20 412.37L182.74 412.24L168.84 408.53L163.60 403.73L155.18 405.64L136.48 419.78L125.71 429.21L117.62 434.42L116.36 435.23L118.03 439.71L117.43 442.06L114.32 446.81L112.55 453.09L109.85 462.62L110.21 467.16L109.14 472.16L110.32 476.12L112.63 479.85L115.54 481.50L117.17 483.07L118.61 487.50L125.24 496.56L115.72 498.88L112.53 499.66L103.83 501.67L100.98 502.25L91.52 504.16L89.34 504.28L86.34 504.43L81.88 503.00L79.48 502.23L75.28 502.43L68.48 505.85L66.96 505.24L66.90 507.13L64.72 508.90L62.05 510.33L59.65 509.83L52.66 508.31L49.23 507.57L46.11 505.81L43.77 504.41L44.52 509.13L44.04 511.93L45.15 513.15L55.78 515.87L57.67 517.87L59.41 519.72L60.57 520.95L64.47 523.03L65.49 526.29L63.84 531.95L63.22 534.07L75.85 537.48L84.97 537.52L97.53 534.33L108.15 532.16L115.73 534.28L118.17 535.69L120.63 537.75L128.69 543.29L141.35 543.87L145.90 541.54L150.04 541.50L156.31 541.44L161.75 539.72L165.22 539.02L169.78 538.81L170.24 543.28L171.07 549.71L183.56 552.53L185.10 551.92L187.22 551.08L200.56 550.75L215.77 550.38L221.40 549.59L228.27 548.62L229.74 548.14L231.25 547.35L233.56 544.24L233.11 541.26L231.11 537.54L225.34 530.51L219.40 520.43L218.51 518.17L218.18 516.35L218.18 514.58L218.55 512.99L219.89 510.91L221.04 509.66L222.73 508.50L229.95 505.18L237.12 504.77L240.82 505.32L249.73 508.09L252.89 509.35L259.26 512.38L269.19 516.36L278.31 520.43L290.40 524.28L292.71 517.78L294.04 514.05L273.32 510.85L238.61 497.92L244.47 486.08L246.38 476.30L242.62 472.62L238.25 472.26L232.16 474.08L227.57 473.01Z" data-ward="17" /><path id="ward-3" class="ward" d="M450.17 137.86L448.77 135.38L448.32 131.85L446.05 129.60L443.05 126.97L439.41 124.87L437.15 123.59L435.15 122.24L433.68 120.65L431.74 118.57L429.96 121.99L429.56 126.72L429.25 130.41L429.03 132.93L427.89 136.91L425.82 138.56L422.45 139.94L421.09 141.29L421.03 143.85L418.38 146.23L416.15 147.39L414.28 148.20L412.19 149.08L408.25 150.02L403.72 151.10L399.95 151.38L398.42 151.48L394.67 151.75L392.52 152.05L390.34 152.36L387.22 150.87L382.41 153.72L380.90 154.62L375.70 155.20L374.19 155.37L372.53 155.56L368.02 152.69L363.94 156.01L357.58 156.20L355.33 156.59L353.06 156.98L350.86 157.48L348.50 158.01L337.89 160.41L335.58 161.25L333.30 162.07L331.56 162.63L325.23 163.85L313.71 174.78L312.87 176.62L312.26 177.98L311.05 180.72L309.95 185.69L309.52 187.66L309.45 189.23L309.34 191.63L310.46 193.44L312.36 194.46L314.12 194.51L315.87 194.56L320.55 196.32L325.40 201.73L327.12 202.69L329.83 202.51L332.34 201.85L338.22 202.33L339.77 202.55L340.92 205.96L340.47 207.50L350.47 211.32L351.31 213.83L352.15 216.33L354.04 220.78L353.25 222.90L351.65 228.39L353.24 230.00L356.89 230.61L357.92 233.80L364.76 237.11L368.41 240.41L376.83 247.06L380.31 254.91L382.58 255.97L384.73 258.15L390.13 259.09L403.62 267.85L411.75 271.68L415.63 272.04L423.99 271.80L424.78 270.03L425.46 268.47L428.65 263.68L430.88 260.84L434.84 259.22L441.21 260.04L444.55 260.10L449.12 257.20L453.34 256.20L455.74 255.63L460.46 254.75L468.98 251.96L477.49 249.16L479.06 247.72L477.07 241.31L475.81 239.70L472.37 235.19L476.75 232.28L480.00 231.14L481.26 232.26L484.34 233.92L496.06 236.59L501.19 236.73L514.26 233.26L518.11 233.48L520.91 234.43L527.43 235.73L529.07 235.69L531.62 234.50L536.03 233.87L540.09 233.29L543.19 235.21L546.36 236.16L544.21 229.08L543.93 225.87L545.09 224.49L547.15 222.04L548.56 217.07L550.19 214.30L552.91 212.02L555.08 210.53L558.20 208.64L553.81 196.83L558.64 193.39L560.49 193.87L561.79 193.14L561.21 190.63L558.48 187.80L551.12 182.93L550.98 179.73L553.24 174.54L554.97 169.75L554.60 163.68L554.95 156.14L555.31 148.61L553.94 146.32L550.53 145.64L544.22 147.16L539.44 147.61L536.08 147.16L529.31 144.09L521.10 139.56L515.62 136.02L513.54 134.68L510.80 132.21L507.62 129.35L504.03 135.49L500.14 135.53L498.82 134.68L495.01 132.76L490.80 131.01L485.09 129.93L483.78 128.84L479.56 125.31L477.17 124.69L473.78 129.25L471.47 130.40L470.42 132.41L464.16 131.74L462.72 134.75L461.91 136.09L459.72 139.75L455.47 137.66L454.73 139.12L450.17 137.86Z" data-ward="3" /><path id="ward-19" class="ward" d="M196.81 362.23L197.08 357.42L188.13 356.35L175.46 352.33L167.59 347.33L161.17 344.92L149.48 352.23L139.26 360.39L131.42 364.14L125.96 369.33L122.82 368.13L115.90 360.75L111.53 363.56L107.91 370.85L96.34 381.66L93.67 381.61L85.12 381.47L77.28 385.99L67.10 385.81L62.29 383.82L56.26 382.22L52.69 378.71L52.80 376.11L53.95 370.79L48.48 365.01L47.63 368.48L47.25 370.04L45.99 370.84L40.55 374.29L40.62 377.55L43.65 379.73L48.95 383.50L53.62 386.13L60.49 391.23L62.83 394.57L61.73 395.71L60.20 397.04L58.66 399.50L57.55 401.09L57.81 405.36L56.84 408.35L56.61 409.92L55.00 411.55L52.72 413.86L48.03 414.53L42.42 415.35L34.82 417.66L27.56 421.10L22.71 423.01L17.88 424.91L10.92 427.64L6.93 429.21L5.61 431.31L3.16 442.68L2.14 445.49L1.27 448.82L0.00 453.69L6.09 457.64L10.25 460.33L20.95 467.26L23.46 472.86L29.54 476.55L34.13 480.52L35.53 481.32L38.04 482.71L43.80 485.15L48.76 487.25L50.98 489.40L52.56 490.76L53.60 493.89L53.99 496.32L54.86 501.69L56.42 503.04L57.96 504.37L61.21 504.49L64.10 504.60L65.66 504.46L66.96 505.24L68.48 505.85L75.28 502.43L79.48 502.23L81.88 503.00L86.34 504.43L89.34 504.28L91.52 504.16L100.98 502.25L103.83 501.67L112.53 499.66L115.72 498.88L125.24 496.56L118.61 487.50L117.17 483.07L115.54 481.50L112.63 479.85L110.32 476.12L109.14 472.16L110.21 467.16L109.85 462.62L112.55 453.09L114.32 446.81L117.43 442.06L118.03 439.71L116.36 435.23L117.62 434.42L125.71 429.21L136.48 419.78L155.18 405.64L163.60 403.73L168.84 408.53L182.74 412.24L190.20 412.37L188.88 407.34L190.78 404.79L191.24 403.09L192.28 399.30L192.39 391.73L192.95 388.16L193.32 385.77L194.13 380.51L196.92 375.02L196.90 371.99L196.81 362.23Z" data-ward="19" /><path id="ward-5" class="ward" d="M411.75 271.68L403.62 267.85L390.13 259.09L384.73 258.15L382.58 255.97L380.31 254.91L376.83 247.06L368.41 240.41L364.76 237.11L357.92 233.80L356.89 230.61L353.24 230.00L351.65 228.39L353.25 222.90L354.04 220.78L352.15 216.33L351.31 213.83L350.47 211.32L340.47 207.50L334.13 223.10L335.45 231.51L331.46 235.24L312.71 252.79L316.99 256.97L317.55 262.44L316.39 268.49L300.10 288.11L297.28 294.87L293.78 296.12L291.95 308.00L297.38 309.14L302.35 310.54L307.33 311.94L311.12 314.07L314.90 317.97L318.98 320.49L324.35 322.83L327.33 327.99L330.31 333.16L332.56 332.94L334.91 333.73L336.34 340.75L338.60 345.52L338.96 348.01L339.79 351.56L342.77 354.43L345.44 355.95L356.42 360.04L364.78 361.73L382.83 360.65L403.93 358.95L418.46 366.49L424.24 369.49L445.91 392.30L459.12 404.70L472.67 403.01L476.55 402.53L481.82 401.20L483.36 400.81L492.91 396.68L494.31 396.06L497.73 394.76L507.19 392.71L504.64 376.58L506.00 373.67L506.36 371.87L506.76 369.75L507.74 364.35L509.11 358.49L509.14 356.84L507.43 344.27L504.82 335.77L503.25 330.66L502.78 329.12L502.19 327.20L501.29 322.95L500.73 321.34L499.69 320.23L498.13 318.64L496.58 317.06L493.59 314.15L492.19 313.55L490.48 312.91L488.04 312.01L486.26 310.26L480.04 312.49L474.23 313.26L473.98 311.02L473.74 308.79L472.37 306.72L471.01 304.64L468.64 301.05L468.37 299.54L466.98 298.30L464.71 296.52L462.13 293.68L462.81 291.89L451.86 287.00L449.77 285.31L443.70 276.05L442.05 271.70L441.12 269.27L440.22 267.76L433.87 264.57L428.65 263.68L425.46 268.47L424.78 270.03L423.99 271.80L415.63 272.04L411.75 271.68Z" data-ward="5" /><path id="ward-4" class="ward" d="M563.26 193.68L561.79 193.14L560.49 193.87L558.64 193.39L553.81 196.83L558.20 208.64L555.08 210.53L552.91 212.02L550.19 214.30L548.56 217.07L547.15 222.04L545.09 224.49L543.93 225.87L544.21 229.08L546.36 236.16L543.19 235.21L540.09 233.29L536.03 233.87L531.62 234.50L529.07 235.69L527.43 235.73L520.91 234.43L518.11 233.48L514.26 233.26L501.19 236.73L496.06 236.59L484.34 233.92L481.26 232.26L480.00 231.14L476.75 232.28L472.37 235.19L475.81 239.70L477.07 241.31L479.06 247.72L477.49 249.16L468.98 251.96L460.46 254.75L455.74 255.63L453.34 256.20L449.12 257.20L444.55 260.10L441.21 260.04L434.84 259.22L430.88 260.84L428.65 263.68L433.87 264.57L440.22 267.76L441.12 269.27L442.05 271.70L443.70 276.05L449.77 285.31L451.86 287.00L462.81 291.89L462.13 293.68L464.71 296.52L466.98 298.30L468.37 299.54L468.64 301.05L471.01 304.64L472.37 306.72L473.74 308.79L473.98 311.02L474.23 313.26L480.04 312.49L486.26 310.26L488.04 312.01L490.48 312.91L492.19 313.55L493.59 314.15L496.58 317.06L498.13 318.64L499.69 320.23L500.73 321.34L501.29 322.95L502.19 327.20L502.78 329.12L503.25 330.66L504.82 335.77L507.43 344.27L509.14 356.84L509.11 358.49L507.74 364.35L506.76 369.75L506.36 371.87L506.00 373.67L504.64 376.58L507.19 392.71L556.83 381.91L559.25 382.04L566.78 382.41L570.77 383.12L571.90 385.51L578.70 387.06L581.68 387.74L583.30 388.15L593.68 390.78L597.05 391.63L598.76 392.07L609.24 384.22L613.79 377.14L619.21 368.72L630.88 361.64L641.42 359.14L657.95 359.05L666.92 361.07L671.36 361.37L674.77 361.63L681.87 362.17L689.78 361.41L689.09 359.29L688.25 355.34L687.59 352.11L687.33 348.47L686.96 343.32L684.40 338.50L681.97 334.91L681.04 333.70L679.03 332.25L676.13 330.17L672.21 328.44L670.53 327.63L668.91 326.75L665.59 324.81L662.26 324.43L659.24 324.87L656.15 325.65L654.46 324.78L651.81 323.41L651.43 321.87L649.40 313.52L648.63 311.43L647.41 307.44L645.78 303.11L645.60 300.98L643.76 295.57L644.26 293.39L643.43 291.77L642.86 288.49L640.67 282.91L639.32 279.46L637.03 274.44L635.90 273.21L633.55 267.75L631.86 263.81L629.60 258.57L626.92 254.84L622.56 248.78L618.35 244.30L614.03 238.75L609.08 232.38L607.29 229.26L604.13 225.06L602.07 221.69L600.32 218.81L599.10 216.24L598.33 214.60L589.37 218.82L587.52 219.52L585.51 219.61L582.02 218.53L577.79 215.82L572.93 211.69L571.16 208.38L568.77 202.48L565.90 198.41L563.26 193.68Z" data-ward="4" /><path id="ward-8" class="ward" d="M554.17 476.39L551.25 476.11L547.90 475.19L544.18 474.04L542.73 473.36L537.77 471.01L529.05 465.96L526.51 464.39L521.30 461.17L519.12 460.22L517.09 459.74L515.93 462.79L515.32 464.45L514.80 466.00L514.08 468.17L513.65 469.81L512.93 472.53L512.47 474.73L512.15 476.25L511.85 479.94L512.05 481.62L512.21 483.81L512.33 485.40L512.52 488.10L511.51 491.19L510.96 492.89L510.76 495.20L511.07 497.58L511.86 501.47L512.62 505.64L513.07 509.05L513.34 510.86L513.62 512.66L513.93 515.01L514.25 519.31L513.49 522.31L512.22 523.62L510.95 524.93L509.65 525.69L508.17 525.88L505.61 526.43L504.36 527.76L503.77 530.44L503.74 533.50L503.80 536.01L503.80 537.99L503.13 541.12L501.80 544.87L501.33 547.21L501.59 549.36L502.78 550.88L504.54 551.99L505.91 552.65L507.57 553.42L509.41 554.61L513.34 557.53L516.34 559.72L519.25 561.70L520.99 562.51L524.55 563.67L526.75 564.01L528.78 564.54L530.73 565.35L532.46 566.85L533.68 569.05L534.07 570.59L534.48 574.48L534.56 578.56L535.19 582.94L535.27 586.12L535.45 590.43L535.22 591.91L534.91 593.82L534.08 597.39L533.34 602.62L533.92 605.57L540.79 612.10L540.81 614.18L540.82 616.08L542.74 618.26L550.62 622.67L552.21 623.44L561.96 629.07L566.89 632.47L571.06 639.52L570.15 647.34L569.76 649.30L594.17 657.93L596.46 659.24L601.14 661.90L611.60 667.84L612.86 668.64L621.72 674.24L629.10 678.93L630.69 679.93L636.38 683.48L648.91 691.35L651.75 693.13L655.40 695.39L672.44 705.95L679.85 709.38L688.19 713.32L699.21 713.75L711.17 714.09L727.84 714.19L729.90 714.14L733.43 714.04L736.96 713.95L740.14 714.53L741.73 713.19L742.38 712.88L744.79 710.00L746.25 706.78L747.72 705.26L750.72 703.63L752.40 699.95L752.11 698.23L749.44 695.10L751.90 690.95L755.95 689.35L757.53 687.16L758.94 685.21L760.06 683.59L761.55 681.44L763.12 679.15L763.38 677.32L763.77 674.44L761.37 672.88L759.98 671.99L756.52 669.88L754.47 668.49L749.23 664.94L747.80 663.94L745.07 662.17L743.73 661.10L740.66 658.88L738.91 657.54L735.58 654.86L732.80 652.17L730.18 650.23L727.65 648.74L726.56 647.02L724.97 641.88L722.86 638.73L721.47 636.65L719.32 634.17L717.83 632.27L715.73 629.76L711.80 624.68L710.67 623.41L708.51 619.55L707.65 616.32L707.74 614.50L707.38 612.67L706.72 606.99L706.50 604.29L706.09 599.25L703.15 600.46L700.29 601.52L698.13 602.32L695.26 602.66L692.43 602.99L690.79 602.11L687.14 600.14L685.55 599.32L682.67 597.69L679.69 595.95L675.47 593.16L669.16 588.86L665.35 586.22L663.36 584.85L661.10 583.94L658.57 582.92L656.85 582.30L654.93 581.89L651.61 581.32L648.63 580.81L643.20 579.91L639.98 576.42L637.87 573.28L633.54 566.83L630.28 561.35L626.75 555.42L623.58 550.11L619.61 543.38L616.32 537.80L615.23 535.82L615.17 535.72L615.20 535.63L615.26 535.44L615.62 534.19L615.73 532.98L614.54 531.42L616.70 527.65L617.47 526.08L618.68 523.63L619.16 521.02L620.79 519.36L621.46 517.98L622.42 516.53L623.29 513.03L623.36 512.62L623.39 512.27L621.57 508.10L621.54 508.04L620.76 506.36L619.95 504.72L618.27 501.15L618.20 501.00L617.83 500.35L617.83 500.35L616.86 498.61L616.39 497.28L616.39 497.21L616.39 497.10L616.52 494.76L615.40 492.01L616.80 486.73L615.15 481.19L612.53 476.95L610.61 473.86L611.72 472.45L610.10 471.24L607.38 469.06L603.51 465.94L599.35 465.23L596.51 465.30L592.40 465.39L588.99 466.36L586.98 467.19L585.33 467.79L581.54 469.19L579.13 469.69L576.73 470.19L570.13 470.85L566.49 471.37L564.06 472.58L559.31 476.38L555.75 476.55L554.17 476.39Z" data-ward="8" /><path id="ward-11" class="ward" d="M470.48 767.81L466.41 766.65L463.96 764.26L459.38 758.52L459.58 751.25L459.49 749.19L456.73 743.30L456.76 739.19L455.08 734.81L453.60 732.81L450.62 727.17L449.57 723.55L446.45 723.09L444.38 723.90L444.03 725.47L443.63 727.30L443.13 729.53L442.25 732.44L442.13 735.52L443.41 738.21L443.43 740.43L443.45 742.14L443.19 744.79L442.77 749.04L442.59 751.09L442.43 757.47L443.54 763.14L444.39 765.15L445.82 767.42L443.23 769.03L441.44 768.51L438.85 768.08L435.96 767.86L432.68 767.89L430.27 767.88L426.26 767.99L424.59 768.34L423.33 769.20L421.45 772.68L419.38 774.80L417.85 775.12L416.29 775.22L414.79 775.38L411.73 774.60L409.49 773.67L407.41 774.11L404.91 774.84L401.60 776.34L399.27 777.37L396.96 778.74L397.51 780.77L398.63 784.39L399.29 786.83L400.83 791.20L401.86 794.24L402.53 796.45L399.78 796.88L393.53 797.77L387.77 796.59L384.21 795.86L376.56 795.54L373.04 794.00L369.40 794.02L368.03 804.07L367.68 818.53L369.50 820.02L374.71 825.65L380.28 827.56L382.22 828.23L381.09 830.20L381.37 832.66L390.53 837.41L395.96 835.02L398.81 835.32L401.99 835.65L403.58 835.81L410.30 836.51L417.08 835.86L423.22 838.97L426.23 842.54L434.40 844.12L438.32 844.92L444.27 840.82L446.44 842.56L447.88 843.73L450.60 845.92L467.39 850.37L473.14 851.16L475.82 852.13L478.43 853.08L479.99 853.35L481.05 854.52L482.70 857.21L483.53 858.57L490.99 858.88L495.77 859.08L499.42 858.88L503.94 857.89L505.49 858.46L510.96 860.50L516.58 861.63L522.38 864.86L533.84 869.14L548.56 878.03L555.78 881.25L560.29 882.23L565.54 883.37L568.91 884.08L571.21 884.43L573.01 884.80L576.77 885.28L578.55 885.48L582.67 885.95L586.39 886.22L591.21 886.57L595.21 887.07L599.15 887.56L601.70 887.78L604.61 888.04L609.77 888.54L612.63 888.86L615.29 889.29L619.15 888.97L621.25 888.87L623.63 888.61L625.85 888.36L629.41 888.45L632.64 888.68L635.44 888.88L637.50 889.06L639.56 889.24L643.28 889.30L645.27 889.15L647.04 889.01L648.79 888.69L651.91 887.23L654.27 886.12L657.38 884.66L660.12 883.23L662.83 881.82L664.91 880.85L667.48 879.40L670.63 877.63L675.17 874.65L679.35 871.92L677.08 869.66L673.00 866.72L669.36 859.29L667.71 857.46L655.38 855.63L653.87 855.38L645.57 852.75L638.51 850.51L631.50 848.27L630.00 846.93L626.00 842.89L624.75 840.10L624.11 837.67L622.64 828.25L621.19 818.99L620.56 814.98L619.73 809.71L616.73 806.31L613.61 806.53L609.55 806.84L605.93 806.68L602.22 804.79L598.82 802.05L594.60 801.84L592.16 802.00L589.85 802.54L586.90 803.55L582.42 806.00L578.24 806.22L576.35 806.33L571.85 807.61L569.00 809.70L567.69 812.67L564.40 813.21L552.42 814.41L542.92 814.48L535.37 814.53L531.23 813.96L529.60 813.76L523.04 812.25L521.34 811.84L519.66 811.41L515.42 809.91L513.70 809.32L510.53 807.96L511.58 802.84L511.63 798.33L511.69 785.98L511.57 783.91L511.45 781.87L506.77 781.32L504.77 781.76L501.13 780.39L499.19 779.67L492.00 778.38L489.89 779.84L488.23 782.33L484.22 783.17L478.20 783.01L475.38 782.94L473.65 781.61L472.20 780.50L472.29 771.08L471.32 769.34L470.48 767.81Z" data-ward="11" /><path id="ward-20" class="ward" d="M160.73 257.52L153.86 246.04L148.50 242.46L142.32 241.90L125.91 245.60L123.63 246.00L108.78 249.32L103.87 250.35L94.63 252.30L91.84 252.88L89.10 253.46L83.34 254.45L79.38 255.09L72.31 257.43L67.19 258.98L61.52 259.67L59.11 259.96L57.17 260.19L54.85 260.47L54.02 258.58L50.27 259.59L45.37 260.91L46.02 262.79L44.55 263.64L42.06 265.10L37.26 269.88L40.01 274.79L41.35 277.68L41.90 281.80L41.26 286.08L40.12 289.32L39.18 291.99L41.16 298.16L43.13 302.27L46.47 305.39L51.07 309.17L52.78 310.57L54.90 314.07L55.63 315.50L57.01 318.20L58.32 325.05L58.71 327.05L58.03 328.83L57.26 330.85L54.26 336.34L52.19 340.10L49.87 344.65L49.01 346.71L47.85 349.62L47.15 351.71L47.40 353.32L48.08 357.77L48.03 360.00L48.48 365.01L53.95 370.79L52.80 376.11L52.69 378.71L56.26 382.22L62.29 383.82L67.10 385.81L77.28 385.99L85.12 381.47L93.67 381.61L96.34 381.66L107.91 370.85L111.53 363.56L115.90 360.75L122.82 368.13L125.96 369.33L131.42 364.14L139.26 360.39L149.48 352.23L161.17 344.92L167.59 347.33L175.46 352.33L188.13 356.35L197.08 357.42L200.64 354.71L202.27 353.36L201.44 343.34L197.95 337.50L195.27 331.54L193.52 325.06L193.58 312.12L191.54 311.44L189.91 310.90L185.48 312.19L182.61 312.85L178.73 314.55L176.12 315.21L174.64 315.59L170.58 316.31L165.21 314.99L166.13 312.96L165.53 310.88L162.25 311.55L159.78 312.23L154.34 313.73L153.04 316.31L152.63 317.85L149.06 325.86L147.36 328.15L143.96 332.75L142.63 334.55L141.16 336.54L139.50 338.57L137.42 340.54L135.26 340.02L133.12 339.51L130.79 338.59L125.53 336.49L121.64 334.30L120.89 332.68L119.93 330.58L123.75 326.54L126.70 323.43L125.64 318.76L124.65 317.49L122.44 315.43L117.83 312.37L109.36 306.77L107.62 301.24L107.12 299.65L106.64 297.79L108.14 291.44L109.08 287.41L112.84 287.00L113.19 282.78L119.92 282.41L144.25 281.03L148.06 273.87L150.89 267.70L153.93 266.10L153.45 264.38L156.01 263.29L159.75 264.48L161.41 261.29L160.73 257.52Z" data-ward="20" /><path id="ward-21" class="ward" d="M203.43 193.55L198.72 195.38L193.79 196.79L191.42 197.47L184.73 203.18L178.69 212.23L175.46 215.82L173.02 218.53L170.10 221.78L163.41 226.63L155.19 233.91L150.24 237.49L142.32 241.90L148.50 242.46L153.86 246.04L160.73 257.52L161.41 261.29L159.75 264.48L156.01 263.29L153.45 264.38L153.93 266.10L150.89 267.70L148.06 273.87L144.25 281.03L119.92 282.41L113.19 282.78L112.84 287.00L109.08 287.41L108.14 291.44L106.64 297.79L107.12 299.65L107.62 301.24L109.36 306.77L117.83 312.37L122.44 315.43L124.65 317.49L125.64 318.76L126.70 323.43L123.75 326.54L119.93 330.58L120.89 332.68L121.64 334.30L125.53 336.49L130.79 338.59L133.12 339.51L135.26 340.02L137.42 340.54L139.50 338.57L141.16 336.54L142.63 334.55L143.96 332.75L147.36 328.15L149.06 325.86L152.63 317.85L153.04 316.31L154.34 313.73L159.78 312.23L162.25 311.55L165.53 310.88L166.13 312.96L165.21 314.99L170.58 316.31L174.64 315.59L176.12 315.21L178.73 314.55L182.61 312.85L185.48 312.19L189.91 310.90L191.54 311.44L193.58 312.12L193.52 325.06L195.27 331.54L197.95 337.50L201.44 343.34L202.27 353.36L205.53 353.90L207.59 354.99L215.22 359.13L219.33 361.36L222.75 362.43L226.14 363.50L230.12 366.40L232.23 367.93L238.87 374.05L246.78 379.56L249.04 381.13L253.52 383.49L259.90 385.70L266.50 386.75L269.70 387.73L273.33 383.50L276.90 381.41L281.22 375.72L282.43 374.12L289.93 369.23L291.29 367.02L292.72 366.18L294.57 365.71L296.27 364.05L297.97 362.39L297.23 360.11L296.15 356.89L295.38 354.56L294.39 352.04L293.68 350.20L293.27 346.30L292.92 342.89L293.59 336.28L295.25 330.66L294.41 328.74L290.14 324.95L288.59 323.95L285.98 323.02L283.72 322.54L279.93 321.40L277.60 320.70L280.50 317.07L282.73 315.26L284.96 313.45L286.93 311.92L291.95 308.00L293.78 296.12L297.28 294.87L300.10 288.11L316.39 268.49L317.55 262.44L316.99 256.97L312.71 252.79L331.46 235.24L335.45 231.51L334.13 223.10L323.84 227.62L317.03 230.62L313.65 232.10L302.08 229.69L299.59 229.00L285.38 225.52L280.52 223.82L276.87 232.54L271.16 242.86L268.25 241.35L264.85 246.01L261.79 250.21L258.18 251.99L247.89 257.04L249.93 248.59L251.78 240.89L249.63 234.86L247.11 233.65L245.78 232.10L243.12 229.00L229.25 213.00L221.62 206.80L212.51 197.53L206.02 198.71L203.43 193.55Z" data-ward="21" /><path id="ward-16" class="ward" d="M451.98 665.58L450.55 663.87L449.92 660.24L452.07 658.15L457.46 641.54L422.97 612.38L406.08 601.13L398.51 596.09L388.05 593.01L374.20 588.92L368.79 583.58L357.63 572.56L343.81 550.76L343.60 548.12L344.12 543.53L345.55 536.49L346.11 532.59L344.09 532.28L324.04 528.27L299.63 525.99L293.25 525.01L290.40 524.28L278.31 520.43L269.19 516.36L259.26 512.38L252.89 509.35L249.73 508.09L240.82 505.32L237.12 504.77L229.95 505.18L222.73 508.50L221.04 509.66L219.89 510.91L218.55 512.99L218.18 514.58L218.18 516.35L218.51 518.17L219.40 520.43L225.34 530.51L231.11 537.54L233.11 541.26L233.56 544.24L231.25 547.35L229.74 548.14L228.27 548.62L221.40 549.59L215.77 550.38L200.56 550.75L187.22 551.08L185.10 551.92L183.56 552.53L182.05 554.16L181.35 556.04L181.67 558.47L182.80 560.97L186.41 566.95L189.19 570.41L190.30 571.75L195.17 577.21L197.42 579.73L199.54 581.96L201.76 584.02L206.62 588.54L211.19 592.78L214.16 595.54L217.42 600.03L220.15 606.84L222.66 611.69L224.61 614.33L225.91 616.08L227.27 618.00L229.15 620.33L231.42 623.14L234.78 626.47L237.93 628.95L239.80 630.43L243.76 632.61L245.58 633.62L247.72 635.06L250.72 637.09L251.85 638.21L254.69 642.12L257.67 646.29L258.40 647.75L259.87 650.67L261.62 654.16L262.57 658.42L262.70 660.11L262.94 663.33L262.53 665.70L260.72 667.34L258.98 667.94L255.17 668.00L251.82 667.04L246.11 664.92L243.15 663.83L241.26 680.54L242.59 681.83L244.81 683.68L246.52 684.71L248.09 685.46L251.05 686.42L254.00 687.37L262.87 689.59L268.48 689.34L271.77 691.77L278.62 700.93L282.07 704.01L287.82 707.61L290.70 709.11L292.45 710.03L299.49 712.63L303.53 714.12L305.55 708.75L306.44 705.95L292.54 702.25L289.77 677.48L291.91 676.80L295.39 676.92L296.65 674.00L298.06 673.04L305.63 673.09L311.39 672.76L314.13 670.88L316.86 669.00L318.60 668.39L320.57 669.69L321.50 672.62L322.55 674.19L325.41 673.82L329.24 674.36L334.47 675.35L336.47 675.38L341.93 674.73L345.01 674.27L349.96 673.07L353.33 672.61L355.99 673.07L357.78 674.42L360.60 677.55L362.75 678.56L367.26 679.24L368.83 680.50L370.88 682.16L372.86 683.03L383.73 683.92L392.35 685.70L396.10 694.06L395.93 699.46L405.74 697.34L409.02 696.63L415.03 696.12L420.11 696.45L422.19 697.52L423.49 699.52L428.42 701.23L437.84 702.68L440.84 704.13L445.46 706.35L447.17 707.15L448.57 698.99L452.11 678.69L450.50 678.59L446.60 678.36L447.32 676.56L450.55 670.55L451.98 665.58Z" data-ward="16" /><path id="ward-6" class="ward" d="M472.55 487.33L470.71 484.48L468.36 479.54L467.67 478.17L464.37 472.71L461.43 457.11L460.66 452.97L460.51 446.71L460.44 443.55L458.28 432.40L458.02 427.47L457.89 425.10L458.18 423.30L458.59 420.71L460.76 414.22L459.12 404.70L445.91 392.30L424.24 369.49L418.46 366.49L403.93 358.95L382.83 360.65L364.78 361.73L366.54 371.96L367.30 376.40L361.28 391.40L358.52 393.77L356.53 397.22L351.40 401.10L349.68 403.18L350.20 405.43L352.90 410.21L352.29 418.48L341.16 420.81L338.65 425.19L336.14 429.56L338.49 443.68L341.85 446.81L348.65 455.02L346.36 456.52L344.07 458.02L347.24 460.43L351.02 461.52L355.21 462.10L354.26 464.70L352.86 467.89L353.60 469.70L355.36 470.62L356.62 472.65L356.61 474.32L350.57 477.16L337.76 489.22L333.95 492.81L330.57 495.39L329.38 496.62L323.91 502.23L317.75 508.54L309.70 515.89L294.04 514.05L292.71 517.78L290.40 524.28L293.25 525.01L299.63 525.99L324.04 528.27L344.09 532.28L346.11 532.59L350.04 533.14L356.39 533.67L361.03 534.40L363.22 534.95L365.94 535.73L371.76 537.65L378.61 539.34L392.35 545.45L396.29 546.75L400.66 548.19L403.98 549.29L405.79 549.89L408.06 550.07L410.50 549.89L412.88 549.05L416.32 547.15L418.32 546.33L420.01 545.97L422.47 546.20L423.92 546.70L425.87 547.69L431.97 551.55L434.71 553.28L438.83 555.33L444.18 557.81L453.37 561.18L455.92 561.62L458.66 561.26L460.38 559.93L461.48 557.49L461.83 555.76L461.94 554.00L461.82 552.51L461.62 550.58L461.14 548.53L460.37 545.45L458.59 540.65L457.72 538.83L456.10 535.50L454.47 532.16L453.27 530.34L450.73 527.61L443.06 522.48L441.58 521.32L440.11 520.17L434.92 516.09L433.28 514.80L431.85 513.69L429.13 511.94L423.20 509.44L412.62 506.15L411.15 505.70L407.62 504.61L404.16 503.16L402.48 501.79L401.58 500.51L400.14 497.63L400.45 493.04L401.55 491.78L403.77 490.46L405.41 490.02L408.48 489.96L411.30 490.28L413.98 490.93L415.44 491.45L419.85 493.03L423.85 494.46L425.47 495.01L438.97 498.44L442.30 499.72L445.62 501.00L450.95 503.08L452.48 503.53L460.56 505.86L463.72 507.46L465.57 509.13L469.62 516.61L471.98 520.04L473.01 521.14L475.03 522.73L476.37 523.68L477.97 524.23L480.56 524.82L482.72 525.05L485.68 524.92L489.19 523.98L491.79 522.07L493.26 519.92L493.83 516.59L493.36 512.97L492.46 510.07L491.81 508.17L490.10 505.40L488.41 503.15L484.46 499.06L480.61 495.11L476.68 491.58L475.14 490.17L472.55 487.33Z" data-ward="6" /></svg>