<svg viewBox="0 0 1000.00 1476.15" xmlns="http://www.w3.org/2000/svg"><style>.ward { fill: #e2e8f0; stroke: #fff; stroke-width: 0.5px; } .ward:hover { fill: #cbd5e1; }</style><path id="ward-2" class="ward" d="M736.07 142.24L731.59 140.92L724.33 138.33L720.59 136.88L717.28 136.11L715.34 138.24L713.40 141.19L713.23 145.25L708.74 149.06L705.37 151.03L701.65 153.42L699.34 154.91L696.60 156.74L694.44 158.78L691.91 161.50L688.72 165.17L686.53 168.31L684.73 171.67L682.28 176.99L679.72 182.51L677.01 188.03L675.93 192.09L675.30 194.47L679.07 196.23L682.23 198.87L686.72 202.36L689.75 204.74L692.75 206.61L696.48 208.75L699.73 210.78L705.84 212.94L709.46 218.75L711.34 220.98L717.75 222.04L722.42 222.44L725.82 223.24L730.17 223.27L736.01 223.56L734.64 226.48L733.40 232.66L733.40 235.47L733.39 238.29L734.48 241.41L736.53 246.00L740.31 250.04L740.98 254.58L741.64 259.07L741.54 261.98L741.38 266.26L738.87 272.76L735.67 275.60L732.46 278.99L729.27 286.09L728.14 288.62L726.89 291.42L724.47 295.69L721.23 300.54L720.50 308.23L718.37 313.91L717.02 319.60L715.98 323.98L713.66 330.26L712.83 332.52L707.98 338.60L705.46 341.77L703.90 349.35L702.78 353.84L701.18 356.31L699.60 358.74L696.55 363.30L694.67 366.11L693.87 368.95L692.98 372.11L689.80 376.60L686.37 382.81L685.70 388.47L686.19 391.81L686.17 397.34L685.69 400.28L685.14 403.61L682.17 407.13L675.98 414.51L671.91 422.97L661.81 426.73L645.44 446.48L645.22 449.54L645.15 453.93L645.53 476.03L645.63 481.58L645.91 490.02L646.02 493.11L646.22 495.81L646.46 499.07L645.25 502.56L643.82 506.68L642.73 509.56L642.62 512.81L642.49 516.08L642.37 520.37L641.85 524.55L641.40 528.15L643.29 530.94L647.71 533.77L651.61 536.27L654.30 540.04L656.86 543.64L660.18 548.22L664.85 551.50L667.39 553.29L672.86 556.19L677.94 557.14L681.42 556.69L684.93 556.24L688.78 556.10L691.58 555.99L695.91 554.86L698.35 554.08L702.38 552.46L705.85 553.11L715.42 556.81L727.55 561.49L734.27 564.08L738.02 563.80L740.95 563.35L746.68 559.07L750.70 555.81L754.81 552.70L758.43 551.01L766.10 549.03L768.33 549.54L771.30 550.53L770.46 546.12L771.76 542.65L772.36 540.39L773.81 532.01L778.66 524.38L781.54 520.47L782.93 517.38L782.92 513.30L782.51 509.15L783.75 505.95L786.07 502.54L788.45 498.66L789.04 494.30L789.66 491.48L788.47 486.19L787.28 482.26L784.89 474.19L784.57 469.87L785.43 463.53L786.25 460.20L787.72 456.04L789.22 453.88L787.05 446.58L784.57 445.26L779.75 443.47L779.58 439.17L779.46 436.39L780.66 431.03L786.59 426.03L789.66 423.65L790.92 421.62L792.38 418.01L793.50 414.13L794.65 410.16L795.95 404.45L796.90 401.50L797.70 399.04L800.54 395.44L803.10 393.49L806.69 390.95L815.14 382.63L818.44 378.65L821.29 373.20L824.02 368.25L826.98 367.36L828.81 363.47L830.41 360.27L832.88 355.92L834.65 352.23L836.47 348.86L837.82 345.78L838.00 340.77L837.75 335.60L837.65 332.60L837.86 329.75L839.35 327.16L841.67 322.33L843.50 319.15L844.29 314.83L843.47 311.13L842.19 305.66L841.96 302.94L838.33 303.54L833.58 302.21L831.28 301.46L827.45 300.00L824.97 298.52L823.45 294.74L824.22 288.87L826.23 284.48L828.55 280.85L830.71 277.28L833.49 273.43L835.48 270.21L837.26 267.44L838.90 265.09L840.68 262.98L842.61 261.20L844.46 259.15L846.60 257.17L850.41 255.28L854.42 254.37L856.80 253.87L860.73 253.07L864.35 250.98L865.39 244.79L864.63 240.40L861.77 237.70L858.22 236.93L855.63 235.94L851.51 235.26L848.60 234.86L845.72 234.16L840.65 232.95L836.86 231.26L834.44 230.11L829.80 226.31L826.20 223.74L819.78 226.91L816.30 230.00L811.00 235.53L806.95 236.73L802.78 237.59L798.73 238.46L795.92 238.77L792.86 239.20L788.70 239.70L783.95 239.61L781.46 239.46L776.09 239.10L769.55 235.56L766.55 233.99L764.23 233.13L761.34 231.77L759.91 228.30L753.27 226.52L750.27 226.27L748.42 224.71L747.21 222.04L747.43 218.02L747.34 215.66L746.22 209.83L745.60 204.78L746.19 198.15L747.01 195.82L748.14 191.23L752.18 189.41L754.84 187.12L755.45 183.95L756.41 180.62L757.50 176.79L758.67 174.61L762.58 171.93L763.27 169.68L764.51 164.11L766.15 159.06L766.32 155.40L765.99 152.40L764.39 147.50L764.63 143.58L764.98 140.24L762.70 140.22L758.22 140.18L754.68 140.15L749.27 140.90L743.23 141.98L738.38 142.41L736.07 142.24Z" data-ward="2" /><path id="ward-6" class="ward" d="M449.30 684.61L441.51 673.31L440.54 670.66L439.58 668.04L435.41 655.38L434.18 653.17L429.66 645.52L419.97 639.69L411.38 638.79L397.47 637.16L380.34 635.14L377.05 636.81L373.70 638.92L369.58 640.47L367.49 641.66L365.57 643.45L361.93 648.47L360.18 650.86L357.09 655.12L353.05 660.66L395.70 682.75L403.37 686.54L403.78 698.66L404.48 702.16L405.38 706.22L406.13 709.22L406.68 714.61L407.02 717.41L407.36 720.20L408.31 722.89L410.74 727.87L412.46 731.87L413.58 734.57L413.60 737.39L411.88 748.76L412.53 752.08L412.79 754.57L413.52 758.75L415.81 761.20L417.25 763.24L420.88 763.73L426.00 763.80L431.27 762.71L435.82 761.45L439.10 760.34L441.29 759.67L443.52 758.99L446.12 757.89L450.69 755.97L456.88 756.02L459.93 756.48L462.70 755.47L464.84 754.38L469.86 751.51L472.66 747.45L475.41 743.79L477.72 742.88L481.12 743.93L485.34 745.72L491.55 746.73L498.09 746.19L504.27 745.55L504.00 749.45L503.52 752.45L502.36 757.55L502.65 761.50L502.94 765.45L503.50 772.61L503.62 777.77L503.82 780.36L504.01 782.95L505.09 789.34L505.58 792.95L505.89 795.23L505.98 798.04L506.14 802.96L506.44 807.79L507.38 810.59L507.55 812.93L508.27 816.41L510.12 819.31L511.53 821.44L513.47 824.49L517.86 830.35L521.88 831.33L523.46 833.53L524.32 836.22L525.75 841.50L526.51 847.81L527.37 859.61L527.44 862.47L527.51 865.34L527.49 868.61L527.11 871.53L525.51 878.83L523.83 883.04L521.51 887.76L520.05 890.91L518.85 893.25L516.60 897.89L529.34 901.36L531.68 902.13L534.76 903.11L537.83 904.10L544.57 906.15L551.20 907.79L556.19 908.84L564.98 910.31L568.80 910.37L573.52 910.44L585.10 907.70L588.48 906.91L595.52 905.56L603.38 903.39L606.90 897.15L610.05 894.38L616.60 888.26L619.82 885.26L623.75 879.90L625.52 877.61L628.94 873.21L632.05 869.89L634.96 866.79L639.10 861.71L641.49 858.77L644.31 855.32L648.21 846.88L651.11 841.99L649.77 835.98L651.44 831.16L652.38 828.45L654.17 822.94L654.21 816.44L651.06 812.89L647.92 809.35L647.45 806.11L646.98 802.84L646.19 795.96L645.28 791.67L641.90 787.12L636.74 782.51L627.45 776.71L621.30 773.88L617.58 773.83L614.75 774.07L611.60 774.35L599.31 780.15L596.92 781.68L592.38 784.13L590.26 781.70L585.10 775.38L584.96 772.00L585.53 766.70L585.33 763.82L584.86 759.97L584.17 755.98L583.32 752.95L582.58 748.14L581.50 743.43L580.51 739.04L580.09 736.71L579.34 732.68L578.47 729.05L578.43 723.80L577.50 717.54L573.09 717.58L567.08 717.27L563.83 716.76L563.64 714.38L563.08 711.75L561.25 706.67L560.30 702.81L555.42 705.05L550.22 707.44L544.65 707.86L540.11 705.98L541.57 701.82L540.82 699.25L536.22 697.48L532.06 695.38L527.53 694.48L527.17 690.57L526.81 686.66L527.41 680.86L527.29 676.45L524.05 667.46L522.12 662.09L518.68 657.56L512.05 648.81L506.27 647.18L499.55 645.33L492.82 643.48L489.34 642.53L483.26 642.67L477.19 642.82L468.03 643.09L465.56 644.23L459.99 656.17L455.67 666.68L457.14 672.35L456.62 676.98L455.50 681.59L454.38 686.20L449.30 684.61Z" data-ward="6" /><path id="ward-16" class="ward" d="M196.08 703.44L199.90 701.79L202.13 698.65L199.00 699.54L194.28 700.93L192.05 702.56L189.13 704.87L185.33 704.55L183.05 706.98L181.53 708.69L178.72 709.17L174.77 708.41L167.34 709.33L162.27 709.10L159.97 708.66L153.92 713.26L152.98 715.46L150.26 715.06L147.37 714.36L144.87 712.45L139.53 714.31L137.25 714.94L133.60 714.73L128.09 714.36L122.45 713.98L115.72 717.17L93.65 703.10L90.35 704.94L88.16 706.18L83.61 708.72L79.13 711.24L73.72 714.27L67.57 716.39L60.22 717.97L57.32 721.43L55.47 729.80L53.61 738.17L52.19 744.03L51.64 746.28L50.66 750.31L49.83 755.32L48.95 760.52L48.13 767.06L47.28 771.33L47.20 774.06L48.52 778.69L49.72 782.45L54.50 789.61L58.42 792.41L60.19 794.89L63.29 798.59L67.34 806.67L70.20 812.37L70.80 814.91L71.63 820.38L71.82 824.93L70.21 826.66L68.39 828.61L66.01 831.15L59.10 844.38L57.92 846.65L49.02 851.96L45.06 854.24L40.90 856.56L38.69 857.71L35.05 859.59L25.96 864.58L21.35 867.11L12.05 871.17L8.94 872.87L6.95 874.90L5.54 877.12L4.36 879.52L1.44 885.46L0.00 890.13L0.50 893.28L1.11 897.13L2.00 903.63L5.60 911.01L16.99 924.45L32.88 936.57L43.82 943.20L70.36 960.13L75.04 962.84L84.43 972.72L98.76 987.80L103.44 992.73L111.66 1006.43L125.18 1028.93L125.88 1032.10L133.05 1047.59L133.85 1050.16L137.21 1061.01L145.05 1081.71L146.33 1085.06L146.73 1085.41L149.57 1087.89L150.09 1093.51L153.87 1093.59L158.15 1093.73L162.87 1093.89L167.25 1094.03L172.29 1094.20L178.37 1094.40L184.21 1094.62L189.76 1094.82L193.91 1094.02L196.26 1093.56L200.15 1092.81L205.38 1091.80L209.89 1090.93L213.83 1090.17L217.66 1089.42L221.09 1088.76L225.03 1088.00L232.02 1087.68L248.06 1089.24L269.34 1091.55L277.48 1101.67L285.37 1111.49L289.49 1116.63L291.85 1114.75L291.37 1111.43L291.03 1109.02L290.62 1095.15L290.47 1090.00L290.03 1085.64L289.08 1076.23L288.28 1068.33L295.34 1055.06L299.52 1050.76L305.04 1045.08L310.00 1042.62L311.78 1039.40L313.04 1035.12L312.94 1026.21L312.50 1022.89L312.01 1019.24L310.51 1013.12L309.96 1010.88L307.68 1005.89L303.84 1001.07L300.13 996.41L301.44 992.48L303.10 987.49L305.95 978.91L309.26 968.97L311.23 963.03L313.55 956.04L317.00 945.68L320.95 933.81L324.24 923.90L325.27 920.78L329.22 908.75L329.58 905.02L330.00 900.76L330.93 895.66L331.34 893.03L331.98 888.70L333.54 885.12L335.25 881.18L336.36 877.86L336.53 873.89L327.35 870.54L322.32 868.35L313.27 863.80L306.19 859.14L299.66 855.08L295.43 852.11L291.28 850.15L287.88 848.04L283.68 846.17L281.19 845.05L274.24 841.92L268.67 839.37L262.70 836.40L259.11 835.11L257.23 833.67L254.29 831.42L251.21 827.66L249.61 824.22L247.98 821.47L246.91 819.09L245.00 815.98L243.06 812.81L239.30 809.97L236.27 808.68L232.30 807.37L226.13 805.69L221.50 807.13L217.99 810.89L213.78 813.53L210.60 816.47L206.81 817.74L200.64 817.92L195.38 818.30L189.13 818.26L185.78 818.24L178.20 818.31L173.08 818.99L168.82 818.94L164.75 818.89L159.61 816.73L153.25 814.54L150.02 813.63L147.73 812.39L147.34 808.90L146.41 805.10L144.65 801.83L142.47 799.97L140.71 797.62L138.59 795.88L133.84 790.72L133.56 786.76L133.43 784.07L132.87 779.74L130.89 774.49L129.89 770.71L129.30 766.19L129.67 763.39L130.20 759.47L130.25 753.93L131.06 749.89L132.41 745.21L134.77 738.89L137.25 733.95L141.22 731.96L144.97 732.50L148.72 733.05L152.70 732.55L156.20 733.20L159.89 733.89L165.55 735.89L168.18 736.94L170.63 737.98L173.76 739.34L176.83 740.67L181.37 736.84L184.75 730.02L187.61 724.68L188.99 722.12L191.33 717.71L194.76 706.56L196.08 703.44Z" data-ward="16" /><path id="ward-5" class="ward" d="M672.86 556.19L667.39 553.29L664.85 551.50L660.18 548.22L656.86 543.64L654.30 540.04L651.61 536.27L647.71 533.77L643.29 530.94L638.90 535.69L630.61 543.51L627.61 546.87L626.36 549.20L625.76 553.31L624.67 556.56L617.30 564.78L615.16 567.09L613.02 569.39L609.86 572.74L607.11 579.92L605.93 582.63L603.06 590.24L601.74 593.89L599.94 596.44L596.59 599.06L593.25 601.68L589.69 604.36L586.86 606.32L580.32 607.62L569.23 605.13L561.62 601.86L557.41 600.77L553.48 599.65L550.99 599.15L544.60 597.42L541.53 596.60L539.14 595.95L534.00 594.19L531.64 593.03L529.97 589.92L529.02 587.67L528.02 584.93L525.13 582.43L516.18 580.52L506.22 579.24L499.33 578.06L494.22 577.01L489.15 575.96L484.05 575.66L481.50 575.96L479.27 577.43L476.28 580.77L474.32 582.97L470.27 585.56L466.21 588.16L462.80 589.26L459.49 590.58L454.44 591.35L450.73 588.82L447.40 586.62L445.72 584.86L444.61 582.63L441.65 578.01L436.01 570.52L425.00 570.55L414.68 571.54L406.97 571.38L402.30 573.67L400.67 577.51L392.59 583.25L386.91 585.37L380.27 589.85L381.98 593.88L382.09 596.31L382.30 599.46L382.57 604.38L382.23 608.89L381.33 612.25L380.46 615.51L379.17 620.42L379.01 624.77L378.10 627.41L377.54 632.42L377.05 636.81L380.34 635.14L397.47 637.16L411.38 638.79L419.97 639.69L429.66 645.52L434.18 653.17L435.41 655.38L439.58 668.04L440.54 670.66L441.51 673.31L449.30 684.61L454.38 686.20L455.50 681.59L456.62 676.98L457.14 672.35L455.67 666.68L459.99 656.17L465.56 644.23L468.03 643.09L477.19 642.82L483.26 642.67L489.34 642.53L492.82 643.48L499.55 645.33L506.27 647.18L512.05 648.81L518.68 657.56L522.12 662.09L524.05 667.46L527.29 676.45L527.41 680.86L526.81 686.66L527.17 690.57L527.53 694.48L532.06 695.38L536.22 697.48L540.82 699.25L541.57 701.82L540.11 705.98L544.65 707.86L550.22 707.44L555.42 705.05L560.30 702.81L561.25 706.67L563.08 711.75L563.64 714.38L563.83 716.76L567.08 717.27L573.09 717.58L577.50 717.54L578.43 723.80L578.47 729.05L579.34 732.68L580.09 736.71L580.51 739.04L581.50 743.43L582.58 748.14L583.32 752.95L584.17 755.98L584.86 759.97L585.33 763.82L585.53 766.70L584.96 772.00L585.10 775.38L590.26 781.70L592.38 784.13L596.92 781.68L599.31 780.15L611.60 774.35L614.75 774.07L617.58 773.83L621.30 773.88L627.45 776.71L636.74 782.51L641.90 787.12L645.28 791.67L646.19 795.96L646.98 802.84L647.45 806.11L647.92 809.35L651.06 812.89L654.21 816.44L654.17 822.94L652.38 828.45L651.44 831.16L649.77 835.98L651.11 841.99L654.08 841.27L660.38 841.30L665.27 838.66L666.67 836.70L668.20 834.55L669.93 832.13L672.29 828.61L674.17 825.82L676.28 819.26L678.37 815.84L678.55 814.73L680.22 811.09L684.49 806.45L689.20 802.05L691.07 800.30L696.07 797.69L702.25 792.59L702.34 792.50L702.41 792.42L708.43 785.84L708.46 785.81L709.88 784.30L709.99 784.17L713.25 780.35L717.04 775.04L717.36 774.50L717.83 773.48L720.02 765.62L720.09 765.33L720.27 764.36L721.65 755.21L722.48 752.05L722.52 751.88L725.68 741.76L725.69 741.74L726.92 737.88L727.91 736.41L728.77 736.47L733.92 737.42L735.14 737.48L736.23 736.26L739.88 730.33L739.90 730.27L740.11 729.58L740.87 726.48L741.96 718.36L741.97 718.28L741.99 718.07L742.02 717.89L742.61 714.06L743.25 709.92L743.29 709.49L743.29 709.43L742.84 702.73L742.50 701.80L742.44 701.62L740.78 696.02L740.23 690.20L739.79 685.62L738.97 677.07L740.88 672.42L743.00 666.06L744.28 660.15L744.81 657.85L745.87 653.18L745.53 648.13L745.19 643.05L744.79 637.77L744.38 632.46L743.97 628.23L744.36 625.38L745.03 621.96L745.80 618.07L748.63 617.26L753.37 617.34L756.51 617.11L760.59 616.82L770.11 614.82L775.77 614.55L781.83 614.27L786.13 614.42L786.94 611.22L787.75 608.02L787.87 600.96L783.92 600.26L782.50 597.87L781.75 595.26L780.43 591.38L780.24 589.00L780.51 586.03L780.66 583.10L781.08 579.58L781.04 576.58L780.09 572.09L779.25 569.39L777.47 566.39L775.62 563.68L773.90 559.81L772.57 554.44L771.30 550.53L768.33 549.54L766.10 549.03L758.43 551.01L754.81 552.70L750.70 555.81L746.68 559.07L740.95 563.35L738.02 563.80L734.27 564.08L727.55 561.49L715.42 556.81L705.85 553.11L702.38 552.46L698.35 554.08L695.91 554.86L691.58 555.99L688.78 556.10L684.93 556.24L681.42 556.69L677.94 557.14L672.86 556.19Z" data-ward="5" /><path id="ward-8" class="ward" d="M561.94 988.10L558.34 988.36L555.65 988.41L553.17 988.30L550.59 988.33L541.12 988.42L533.74 988.69L531.29 988.97L530.27 991.52L529.24 996.04L528.56 999.14L527.88 1002.24L527.07 1005.63L526.24 1009.14L525.77 1012.51L525.34 1016.03L525.04 1018.72L524.51 1022.28L523.39 1027.61L522.80 1030.87L522.17 1035.52L521.34 1038.78L518.31 1039.55L514.36 1038.12L510.01 1037.03L504.62 1039.38L498.85 1043.83L495.30 1044.95L489.72 1043.43L485.86 1042.99L480.46 1041.77L476.24 1041.93L470.33 1042.95L465.56 1045.44L460.57 1047.37L454.59 1047.85L450.80 1047.75L444.21 1046.71L442.65 1044.67L439.70 1044.24L436.38 1043.76L429.27 1042.23L423.13 1041.38L420.20 1040.74L418.39 1033.33L415.38 1033.23L409.55 1033.36L406.52 1032.32L400.67 1031.90L391.12 1030.64L392.02 1035.77L392.28 1038.67L392.14 1041.66L391.86 1045.10L392.38 1052.43L393.13 1056.18L393.88 1058.47L395.76 1062.69L395.51 1066.21L394.51 1071.37L394.11 1075.54L393.94 1080.14L394.60 1083.68L396.57 1086.47L398.19 1088.55L399.76 1091.84L400.30 1094.19L399.74 1098.25L398.92 1103.19L397.99 1109.78L397.24 1112.44L396.60 1114.86L398.32 1118.74L401.67 1120.68L406.79 1125.18L409.75 1130.60L410.47 1133.08L411.69 1137.29L412.36 1141.45L412.84 1145.18L411.57 1149.17L410.81 1152.66L410.18 1154.92L410.24 1160.50L411.37 1164.60L411.79 1168.23L412.96 1171.27L414.58 1173.54L416.67 1175.40L421.88 1179.25L423.90 1180.86L424.21 1183.13L424.06 1185.56L422.46 1187.85L423.77 1190.17L426.72 1194.23L427.87 1191.07L429.23 1187.87L430.76 1185.23L432.38 1183.07L433.86 1179.43L435.35 1176.28L436.86 1172.80L438.94 1167.95L440.42 1164.15L442.32 1159.51L444.52 1152.64L445.38 1149.81L446.10 1147.46L449.18 1137.87L450.07 1134.87L451.41 1130.41L452.64 1122.51L454.56 1118.59L456.42 1115.53L457.75 1113.59L459.96 1109.78L461.95 1104.43L462.84 1098.20L463.30 1093.75L463.60 1088.20L464.36 1083.83L466.02 1078.65L468.29 1073.18L470.55 1068.45L471.69 1065.50L472.77 1062.71L473.68 1059.95L474.98 1054.00L475.21 1050.60L476.22 1045.41L478.68 1045.90L479.78 1047.98L481.03 1050.19L482.29 1052.41L484.25 1056.55L485.72 1059.05L487.41 1061.70L489.10 1064.33L491.96 1067.70L493.96 1070.37L495.88 1072.26L499.20 1075.21L502.33 1078.24L508.56 1084.25L511.05 1086.46L514.12 1089.17L521.42 1096.28L523.21 1097.93L525.69 1100.19L530.04 1103.59L532.38 1100.05L535.18 1100.03L537.91 1100.00L541.15 1100.01L544.72 1100.02L548.16 1100.02L552.55 1100.03L555.62 1100.07L558.00 1100.09L562.27 1100.14L564.97 1099.23L567.34 1098.43L570.76 1094.63L573.19 1089.36L574.65 1086.20L575.72 1082.58L576.32 1078.62L576.44 1075.86L576.76 1068.62L576.77 1064.83L576.80 1058.04L576.81 1053.33L576.20 1048.71L575.83 1043.80L575.45 1038.76L574.63 1033.36L574.12 1030.00L572.76 1024.92L571.97 1021.97L570.13 1016.93L567.94 1013.04L566.50 1008.96L564.65 1003.69L563.44 996.73L562.36 990.54L561.94 988.10Z" data-ward="8" /><path id="ward-11" class="ward" d="M444.21 1255.01L439.48 1254.51L436.35 1253.74L431.63 1259.04L428.30 1264.19L426.13 1266.42L421.63 1269.97L419.06 1275.24L416.54 1279.87L415.05 1283.01L413.80 1285.59L412.41 1288.20L408.52 1295.02L407.62 1299.20L406.65 1305.55L408.33 1311.57L405.85 1316.27L402.28 1320.38L400.52 1323.09L398.38 1326.84L459.90 1373.85L461.42 1370.27L464.39 1364.81L467.26 1358.25L469.51 1349.82L467.41 1347.86L465.11 1345.60L466.13 1341.57L469.62 1335.98L471.41 1333.30L473.21 1330.12L473.82 1327.47L476.01 1324.23L479.37 1320.73L481.89 1316.35L483.93 1311.10L484.27 1307.80L484.79 1304.02L485.41 1299.49L486.21 1295.94L487.32 1289.27L488.46 1282.42L489.45 1276.94L490.88 1270.28L491.55 1267.17L492.67 1261.96L487.97 1263.62L485.41 1263.14L478.92 1262.58L475.54 1261.99L472.29 1261.43L467.77 1260.40L460.24 1258.46L454.05 1255.23L448.64 1255.56L444.21 1255.01Z" data-ward="11" /><path id="ward-9" class="ward" d="M495.80 1244.97L497.69 1237.29L499.52 1233.83L502.10 1228.93L504.01 1224.27L505.08 1221.63L505.99 1213.78L506.89 1205.99L508.04 1200.94L510.00 1196.22L512.24 1190.82L512.89 1187.19L514.11 1180.28L515.14 1173.46L515.52 1170.41L515.93 1166.39L516.42 1160.41L516.47 1155.84L516.53 1151.40L516.97 1145.62L517.24 1142.10L517.70 1139.60L519.26 1133.66L521.04 1127.94L523.35 1121.43L524.64 1117.80L525.74 1114.90L526.75 1112.26L528.25 1108.30L530.04 1103.59L525.69 1100.19L523.21 1097.93L521.42 1096.28L514.12 1089.17L511.05 1086.46L508.56 1084.25L502.33 1078.24L499.20 1075.21L495.88 1072.26L493.96 1070.37L491.96 1067.70L489.10 1064.33L487.41 1061.70L485.72 1059.05L484.25 1056.55L482.29 1052.41L481.03 1050.19L479.78 1047.98L478.68 1045.90L476.22 1045.41L475.21 1050.60L474.98 1054.00L473.68 1059.95L472.77 1062.71L471.69 1065.50L470.55 1068.45L468.29 1073.18L466.02 1078.65L464.36 1083.83L463.60 1088.20L463.30 1093.75L462.84 1098.20L461.95 1104.43L459.96 1109.78L457.75 1113.59L456.42 1115.53L454.56 1118.59L452.64 1122.51L451.41 1130.41L450.07 1134.87L449.18 1137.87L446.10 1147.46L445.38 1149.81L444.52 1152.64L442.32 1159.51L440.42 1164.15L438.94 1167.95L436.86 1172.80L435.35 1176.28L433.86 1179.43L432.38 1183.07L430.76 1185.23L429.23 1187.87L427.87 1191.07L426.72 1194.23L427.43 1197.48L428.23 1200.48L429.55 1204.73L431.72 1208.83L433.88 1213.03L434.93 1216.09L435.61 1219.81L436.05 1223.65L436.33 1225.94L436.81 1231.09L437.18 1233.71L437.70 1236.81L437.89 1239.50L437.81 1244.08L437.51 1246.69L436.35 1253.74L439.48 1254.51L444.21 1255.01L448.64 1255.56L454.05 1255.23L460.24 1258.46L467.77 1260.40L472.29 1261.43L475.54 1261.99L478.92 1262.58L485.41 1263.14L487.97 1263.62L492.67 1261.96L493.86 1255.47L495.80 1244.97Z" data-ward="9" /><path id="ward-17" class="ward" d="M379.17 620.42L380.46 615.51L381.33 612.25L382.23 608.89L382.57 604.38L382.30 599.46L382.09 596.31L381.98 593.88L380.27 589.85L375.48 590.35L369.44 591.58L358.59 593.70L351.61 595.50L346.01 597.34L341.93 600.09L334.90 603.43L329.88 605.93L326.93 607.84L323.48 609.98L322.35 613.27L320.05 617.22L316.34 619.36L312.62 621.50L307.51 622.48L302.82 623.39L298.62 623.91L295.26 623.79L291.21 623.07L285.09 621.99L281.24 621.13L269.79 618.06L267.13 617.21L263.83 616.16L253.52 612.59L251.08 611.75L247.45 611.13L243.33 610.02L232.38 606.35L226.09 603.25L219.23 606.99L216.73 608.93L214.22 610.87L210.18 612.73L206.02 614.90L203.08 616.52L198.40 618.97L194.89 620.25L191.47 621.50L186.34 628.81L181.47 635.75L178.89 639.42L173.40 643.62L169.46 648.03L165.50 649.65L161.25 652.89L155.97 654.67L151.32 656.24L147.01 657.69L141.68 659.23L135.91 660.78L129.21 662.58L125.02 663.71L121.89 664.30L115.51 665.50L111.66 666.97L109.31 667.78L106.98 669.46L102.58 673.13L99.92 683.65L97.85 691.46L96.82 694.32L95.31 698.49L93.65 703.10L115.72 717.17L122.45 713.98L128.09 714.36L133.60 714.73L137.25 714.94L139.53 714.31L144.87 712.45L147.37 714.36L150.26 715.06L152.98 715.46L153.92 713.26L159.97 708.66L162.27 709.10L167.34 709.33L174.77 708.41L178.72 709.17L181.53 708.69L183.05 706.98L185.33 704.55L189.13 704.87L192.05 702.56L194.28 700.93L199.00 699.54L202.13 698.65L199.90 701.79L196.08 703.44L194.76 706.56L191.33 717.71L188.99 722.12L187.61 724.68L184.75 730.02L181.37 736.84L176.83 740.67L173.76 739.34L170.63 737.98L168.18 736.94L165.55 735.89L159.89 733.89L156.20 733.20L152.70 732.55L148.72 733.05L144.97 732.50L141.22 731.96L137.25 733.95L134.77 738.89L132.41 745.21L131.06 749.89L130.25 753.93L130.20 759.47L129.67 763.39L129.30 766.19L129.89 770.71L130.89 774.49L132.87 779.74L133.43 784.07L133.56 786.76L133.84 790.72L138.59 795.88L140.71 797.62L142.47 799.97L144.65 801.83L146.41 805.10L147.34 808.90L147.73 812.39L150.02 813.63L153.25 814.54L159.61 816.73L164.75 818.89L168.82 818.94L173.08 818.99L178.20 818.31L185.78 818.24L189.13 818.26L195.38 818.30L200.64 817.92L206.81 817.74L210.60 816.47L213.78 813.53L217.99 810.89L221.50 807.13L226.13 805.69L232.30 807.37L236.27 808.68L239.30 809.97L243.06 812.81L245.00 815.98L246.91 819.09L247.98 821.47L249.61 824.22L251.21 827.66L254.29 831.42L257.23 833.67L259.11 835.11L262.70 836.40L268.67 839.37L274.24 841.92L281.19 845.05L283.68 846.17L287.88 848.04L291.28 850.15L295.43 852.11L299.66 855.08L306.19 859.14L313.27 863.80L322.32 868.35L327.35 870.54L336.53 873.89L342.27 873.89L350.19 877.67L356.17 882.53L359.40 885.23L364.07 889.16L367.93 892.38L371.47 894.35L373.83 895.16L380.29 896.57L385.02 896.55L388.53 896.53L393.02 896.32L395.95 896.10L401.31 895.68L407.50 894.02L411.81 892.58L420.23 890.24L425.24 889.01L430.39 888.55L437.71 888.95L438.19 880.84L438.51 873.78L435.85 867.91L430.52 867.04L428.12 867.04L426.90 862.16L425.98 858.50L424.51 854.65L424.49 852.17L425.18 849.30L426.63 846.84L427.71 841.02L428.31 837.79L427.93 835.03L427.71 832.08L426.74 826.61L425.78 819.20L421.55 816.75L422.34 811.95L422.84 808.88L423.78 804.58L423.42 800.10L422.85 797.18L421.57 790.71L420.60 786.31L419.60 783.80L418.72 779.58L417.73 774.82L417.98 772.55L417.25 763.24L415.81 761.20L413.52 758.75L412.79 754.57L412.53 752.08L411.88 748.76L413.60 737.39L413.58 734.57L412.46 731.87L410.74 727.87L408.31 722.89L407.36 720.20L407.02 717.41L406.68 714.61L406.13 709.22L405.38 706.22L404.48 702.16L403.78 698.66L403.37 686.54L395.70 682.75L353.05 660.66L357.09 655.12L360.18 650.86L361.93 648.47L365.57 643.45L367.49 641.66L369.58 640.47L373.70 638.92L377.05 636.81L377.54 632.42L378.10 627.41L379.01 624.77L379.17 620.42Z" data-ward="17" /><path id="ward-4" class="ward" d="M929.36 408.87L929.01 402.74L928.79 398.92L929.14 394.30L929.45 390.27L929.86 382.26L930.25 374.64L927.18 373.72L924.94 369.33L923.15 367.51L916.40 363.58L913.35 361.83L909.20 359.50L906.40 359.03L887.86 380.00L860.37 410.16L857.64 407.77L854.90 405.38L855.86 402.21L856.59 399.45L855.30 393.60L856.09 391.28L858.73 385.62L859.82 383.61L862.20 378.30L863.26 375.97L864.42 371.68L857.97 369.19L852.44 367.78L847.75 366.61L844.34 366.40L840.93 366.18L834.05 366.42L828.81 363.47L826.98 367.36L824.02 368.25L821.29 373.20L818.44 378.65L815.14 382.63L806.69 390.95L803.10 393.49L800.54 395.44L797.70 399.04L796.90 401.50L795.95 404.45L794.65 410.16L793.50 414.13L792.38 418.01L790.92 421.62L789.66 423.65L786.59 426.03L780.66 431.03L779.46 436.39L779.58 439.17L779.75 443.47L784.57 445.26L787.05 446.58L789.22 453.88L787.72 456.04L786.25 460.20L785.43 463.53L784.57 469.87L784.89 474.19L787.28 482.26L788.47 486.19L789.66 491.48L789.04 494.30L788.45 498.66L786.07 502.54L783.75 505.95L782.51 509.15L782.92 513.30L782.93 517.38L781.54 520.47L778.66 524.38L773.81 532.01L772.36 540.39L771.76 542.65L770.46 546.12L771.30 550.53L772.57 554.44L773.90 559.81L775.62 563.68L777.47 566.39L779.25 569.39L780.09 572.09L781.04 576.58L781.08 579.58L780.66 583.10L780.51 586.03L780.24 589.00L780.43 591.38L781.75 595.26L782.50 597.87L783.92 600.26L787.87 600.96L787.75 608.02L786.94 611.22L786.13 614.42L797.12 615.18L804.42 616.07L811.40 616.68L819.42 617.38L823.70 617.88L827.34 619.15L830.26 620.64L833.18 622.14L837.14 624.47L841.54 627.06L843.78 628.26L846.69 629.47L851.04 631.11L854.66 632.48L857.29 633.18L861.28 634.24L869.02 636.04L872.62 636.88L875.06 637.45L878.75 637.89L883.30 638.42L889.73 638.42L893.47 638.43L899.38 638.46L904.54 638.77L908.45 639.01L912.89 639.27L915.81 638.71L923.43 637.23L929.87 635.98L932.28 635.56L936.29 634.84L938.93 634.38L941.86 633.87L947.58 632.88L946.17 629.00L944.73 625.01L942.35 618.41L941.62 615.83L940.71 612.60L939.69 608.39L938.64 604.04L937.75 599.70L937.14 596.70L935.42 591.46L932.74 584.79L930.22 579.79L928.71 576.77L924.99 569.64L922.17 564.23L922.13 561.22L922.05 555.80L921.98 550.86L921.82 539.93L921.67 528.99L920.73 522.81L920.02 518.09L919.53 514.89L917.17 509.61L914.42 505.97L912.01 502.78L910.74 500.01L909.23 496.34L907.79 492.82L908.61 489.63L910.94 480.59L912.57 477.73L913.76 475.63L915.46 472.65L918.94 466.54L923.42 457.33L925.87 452.29L926.54 449.96L928.24 444.01L929.01 441.29L929.91 433.14L930.50 430.36L930.32 427.58L929.93 421.72L929.68 414.47L929.36 408.87Z" data-ward="4" /><path id="ward-18" class="ward" d="M647.93 389.66L645.95 387.91L643.01 386.66L639.22 385.05L636.29 383.80L631.91 380.53L627.83 377.48L625.83 376.00L622.64 374.29L616.45 370.96L613.39 369.32L608.30 366.46L603.25 363.62L599.60 360.75L595.95 357.88L593.60 355.85L589.81 352.57L584.28 355.02L581.65 356.19L578.07 359.33L574.74 362.26L572.25 364.73L569.37 367.59L565.50 371.54L561.89 376.41L560.19 381.87L559.17 385.12L556.87 391.05L554.04 395.56L554.11 398.27L552.11 403.68L551.41 406.20L549.88 412.24L547.48 419.38L546.18 425.19L545.14 432.64L544.82 435.01L544.34 438.66L543.27 446.98L541.75 453.61L537.62 459.19L535.51 461.40L532.05 465.03L531.47 467.43L530.52 471.41L529.74 474.72L528.82 478.62L528.18 481.29L526.75 487.31L524.95 493.42L522.66 499.17L517.35 498.33L514.93 497.86L512.18 497.31L506.45 496.38L502.59 496.90L499.57 497.63L498.34 500.37L496.54 504.48L495.18 507.53L494.00 509.94L493.10 512.07L488.92 512.75L486.46 511.92L484.04 510.86L479.84 509.23L477.50 508.20L474.22 507.58L471.88 508.16L469.34 513.52L467.21 516.96L465.43 519.84L463.38 523.15L461.99 524.95L459.28 527.38L455.26 530.45L451.70 531.62L448.25 530.95L444.53 530.03L440.16 528.75L433.95 527.20L431.36 526.61L427.25 525.67L424.68 526.21L421.33 528.29L418.16 531.36L415.54 533.89L411.79 537.47L409.96 539.21L405.45 542.76L394.40 543.76L389.14 543.57L385.47 545.05L382.89 546.37L375.70 550.05L370.10 552.95L366.09 554.96L359.35 558.43L350.09 564.37L343.40 568.32L339.11 569.55L335.92 570.17L330.17 571.29L324.52 570.84L320.33 570.50L317.28 569.20L314.35 567.74L302.39 566.97L298.86 567.27L296.91 573.27L296.59 578.45L295.95 581.83L295.12 585.86L291.71 588.17L283.17 589.06L271.56 589.89L262.64 590.52L259.34 590.65L237.45 598.16L226.09 603.25L232.38 606.35L243.33 610.02L247.45 611.13L251.08 611.75L253.52 612.59L263.83 616.16L267.13 617.21L269.79 618.06L281.24 621.13L285.09 621.99L291.21 623.07L295.26 623.79L298.62 623.91L302.82 623.39L307.51 622.48L312.62 621.50L316.34 619.36L320.05 617.22L322.35 613.27L323.48 609.98L326.93 607.84L329.88 605.93L334.90 603.43L341.93 600.09L346.01 597.34L351.61 595.50L358.59 593.70L369.44 591.58L375.48 590.35L380.27 589.85L386.91 585.37L392.59 583.25L400.67 577.51L402.30 573.67L406.97 571.38L414.68 571.54L425.00 570.55L436.01 570.52L441.65 578.01L444.61 582.63L445.72 584.86L447.40 586.62L450.73 588.82L454.44 591.35L459.49 590.58L462.80 589.26L466.21 588.16L470.27 585.56L474.32 582.97L476.28 580.77L479.27 577.43L481.50 575.96L484.05 575.66L489.15 575.96L494.22 577.01L499.33 578.06L506.22 579.24L516.18 580.52L525.13 582.43L528.02 584.93L529.02 587.67L529.97 589.92L531.64 593.03L534.00 594.19L539.14 595.95L541.53 596.60L544.60 597.42L550.99 599.15L553.48 599.65L557.41 600.77L561.62 601.86L569.23 605.13L580.32 607.62L586.86 606.32L589.69 604.36L593.25 601.68L596.59 599.06L599.94 596.44L601.74 593.89L603.06 590.24L605.93 582.63L607.11 579.92L609.86 572.74L613.02 569.39L615.16 567.09L617.30 564.78L624.67 556.56L625.76 553.31L626.36 549.20L627.61 546.87L630.61 543.51L638.90 535.69L643.29 530.94L641.40 528.15L641.85 524.55L642.37 520.37L642.49 516.08L642.62 512.81L642.73 509.56L643.82 506.68L645.25 502.56L646.46 499.07L646.22 495.81L646.02 493.11L645.91 490.02L645.63 481.58L645.53 476.03L645.15 453.93L645.22 449.54L645.44 446.48L661.81 426.73L671.91 422.97L675.98 414.51L682.17 407.13L685.14 403.61L685.69 400.28L686.17 397.34L686.19 391.81L685.70 388.47L686.37 382.81L681.90 383.71L676.34 384.83L673.24 384.90L671.19 388.45L669.36 391.64L667.09 392.83L663.75 392.94L659.48 393.07L647.93 389.66Z" data-ward="18" /><path id="ward-7" class="ward" d="M485.34 745.72L481.12 743.93L477.72 742.88L475.41 743.79L472.66 747.45L469.86 751.51L464.84 754.38L462.70 755.47L459.93 756.48L456.88 756.02L450.69 755.97L446.12 757.89L443.52 758.99L441.29 759.67L439.10 760.34L435.82 761.45L431.27 762.71L426.00 763.80L420.88 763.73L417.25 763.24L417.98 772.55L417.73 774.82L418.72 779.58L419.60 783.80L420.60 786.31L421.57 790.71L422.85 797.18L423.42 800.10L423.78 804.58L422.84 808.88L422.34 811.95L421.55 816.75L425.78 819.20L426.74 826.61L427.71 832.08L427.93 835.03L428.31 837.79L427.71 841.02L426.63 846.84L425.18 849.30L424.49 852.17L424.51 854.65L425.98 858.50L426.90 862.16L428.12 867.04L430.52 867.04L435.85 867.91L438.51 873.78L438.19 880.84L437.71 888.95L450.40 889.60L461.69 890.81L465.81 893.52L464.91 897.28L464.09 901.02L462.11 908.02L461.46 912.07L461.54 916.04L459.20 921.28L458.04 925.12L455.40 925.39L451.58 925.79L447.33 924.94L443.77 924.15L438.48 923.06L434.73 923.01L432.01 922.78L427.71 922.71L420.49 921.56L417.87 921.06L413.72 920.28L409.52 919.55L408.39 924.33L405.49 931.86L402.44 937.53L400.89 940.61L399.45 944.79L398.44 947.18L397.56 951.00L397.59 954.10L397.78 959.11L397.88 963.45L397.86 965.82L394.88 971.88L391.57 979.32L389.34 981.45L388.17 986.71L387.08 988.79L386.04 991.11L384.99 993.47L384.11 997.77L384.23 1002.41L387.06 1004.48L389.27 1006.10L391.44 1007.31L391.74 1011.72L390.21 1015.50L389.51 1020.05L389.76 1022.72L390.12 1025.76L391.12 1030.64L400.67 1031.90L406.52 1032.32L409.55 1033.36L415.38 1033.23L418.39 1033.33L420.20 1040.74L423.13 1041.38L429.27 1042.23L436.38 1043.76L439.70 1044.24L442.65 1044.67L444.21 1046.71L450.80 1047.75L454.59 1047.85L460.57 1047.37L465.56 1045.44L470.33 1042.95L476.24 1041.93L480.46 1041.77L485.86 1042.99L489.72 1043.43L495.30 1044.95L498.85 1043.83L504.62 1039.38L510.01 1037.03L514.36 1038.12L518.31 1039.55L521.34 1038.78L522.17 1035.52L522.80 1030.87L523.39 1027.61L524.51 1022.28L525.04 1018.72L525.34 1016.03L525.77 1012.51L526.24 1009.14L527.07 1005.63L527.88 1002.24L528.56 999.14L529.24 996.04L530.27 991.52L531.29 988.97L533.74 988.69L541.12 988.42L550.59 988.33L553.17 988.30L555.65 988.41L558.34 988.36L561.94 988.10L559.77 975.63L559.49 972.22L559.09 968.59L559.78 963.28L561.34 956.24L561.98 953.40L562.59 950.76L563.95 944.73L565.42 939.15L567.37 934.06L569.29 930.17L571.23 926.25L572.07 923.40L572.75 921.12L573.07 916.59L573.52 910.44L568.80 910.37L564.98 910.31L556.19 908.84L551.20 907.79L544.57 906.15L537.83 904.10L534.76 903.11L531.68 902.13L529.34 901.36L516.60 897.89L518.85 893.25L520.05 890.91L521.51 887.76L523.83 883.04L525.51 878.83L527.11 871.53L527.49 868.61L527.51 865.34L527.44 862.47L527.37 859.61L526.51 847.81L525.75 841.50L524.32 836.22L523.46 833.53L521.88 831.33L517.86 830.35L513.47 824.49L511.53 821.44L510.12 819.31L508.27 816.41L507.55 812.93L507.38 810.59L506.44 807.79L506.14 802.96L505.98 798.04L505.89 795.23L505.58 792.95L505.09 789.34L504.01 782.95L503.82 780.36L503.62 777.77L503.50 772.61L502.94 765.45L502.65 761.50L502.36 757.55L503.52 752.45L504.00 749.45L504.27 745.55L498.09 746.19L491.55 746.73L485.34 745.72Z" data-ward="7" /><path id="ward-3" class="ward" d="M945.40 221.07L940.22 217.54L937.32 215.55L934.06 213.47L929.90 210.94L925.59 208.96L923.49 207.99L920.38 206.56L917.61 205.29L912.04 204.50L909.79 203.60L906.75 202.38L902.85 200.82L894.56 197.51L886.96 193.83L878.84 189.89L869.69 184.69L867.33 183.36L864.74 181.91L861.34 180.00L858.27 178.29L854.91 176.41L850.16 172.99L846.98 170.71L843.91 168.50L841.60 166.84L837.53 163.90L834.38 161.62L831.47 159.52L829.65 158.12L823.49 153.39L818.86 150.61L810.32 147.36L806.88 146.44L799.79 144.54L797.02 143.57L790.22 142.40L783.19 140.96L771.21 140.48L764.98 140.24L764.63 143.58L764.39 147.50L765.99 152.40L766.32 155.40L766.15 159.06L764.51 164.11L763.27 169.68L762.58 171.93L758.67 174.61L757.50 176.79L756.41 180.62L755.45 183.95L754.84 187.12L752.18 189.41L748.14 191.23L747.01 195.82L746.19 198.15L745.60 204.78L746.22 209.83L747.34 215.66L747.43 218.02L747.21 222.04L748.42 224.71L750.27 226.27L753.27 226.52L759.91 228.30L761.34 231.77L764.23 233.13L766.55 233.99L769.55 235.56L776.09 239.10L781.46 239.46L783.95 239.61L788.70 239.70L792.86 239.20L795.92 238.77L798.73 238.46L802.78 237.59L806.95 236.73L811.00 235.53L816.30 230.00L819.78 226.91L826.20 223.74L829.80 226.31L834.44 230.11L836.86 231.26L840.65 232.95L845.72 234.16L848.60 234.86L851.51 235.26L855.63 235.94L858.22 236.93L861.77 237.70L864.63 240.40L865.39 244.79L864.35 250.98L860.73 253.07L856.80 253.87L854.42 254.37L850.41 255.28L846.60 257.17L844.46 259.15L842.61 261.20L840.68 262.98L838.90 265.09L837.26 267.44L835.48 270.21L833.49 273.43L830.71 277.28L828.55 280.85L826.23 284.48L824.22 288.87L823.45 294.74L824.97 298.52L827.45 300.00L831.28 301.46L833.58 302.21L838.33 303.54L841.96 302.94L842.19 305.66L843.47 311.13L844.29 314.83L843.50 319.15L841.67 322.33L839.35 327.16L837.86 329.75L837.65 332.60L837.75 335.60L838.00 340.77L837.82 345.78L836.47 348.86L834.65 352.23L832.88 355.92L830.41 360.27L828.81 363.47L834.05 366.42L840.93 366.18L844.34 366.40L847.75 366.61L852.44 367.78L857.97 369.19L864.42 371.68L863.26 375.97L862.20 378.30L859.82 383.61L858.73 385.62L856.09 391.28L855.30 393.60L856.59 399.45L855.86 402.21L854.90 405.38L857.64 407.77L860.37 410.16L887.86 380.00L906.40 359.03L909.20 359.50L913.35 361.83L916.40 363.58L923.15 367.51L924.94 369.33L927.18 373.72L930.25 374.64L932.51 370.58L933.29 363.80L933.79 360.98L934.65 356.21L935.18 353.73L936.55 347.35L937.19 344.40L937.77 341.29L939.19 335.96L940.03 332.77L940.78 329.86L941.47 327.16L942.68 323.04L943.87 320.56L944.82 317.36L946.16 313.93L947.53 310.42L949.25 306.01L950.21 303.08L951.55 299.93L953.25 296.49L956.09 290.76L958.85 287.05L961.52 283.47L965.53 279.37L969.04 275.80L973.22 271.32L975.38 268.82L977.67 266.17L981.71 261.37L985.32 256.81L987.75 253.98L990.53 250.73L994.41 245.88L999.11 239.77L1000.00 236.80L999.27 233.76L998.01 231.11L998.75 228.78L997.07 226.29L993.50 226.15L988.96 226.33L986.45 226.43L981.85 226.92L976.97 227.59L974.50 226.37L970.96 226.43L964.10 226.55L958.07 227.81L954.38 227.71L951.22 227.12L949.91 224.99L945.40 221.07Z" data-ward="3" /><path id="ward-19" class="ward" d="M346.70 335.04L342.69 336.69L340.07 337.76L335.54 339.62L333.26 339.01L328.71 339.42L321.07 345.56L317.59 346.99L315.75 350.66L313.35 352.17L312.78 353.13L312.50 353.78L312.45 353.89L312.45 353.89L310.05 359.35L305.25 371.60L304.08 373.94L300.35 381.36L301.22 386.86L299.51 390.27L299.71 394.02L298.87 396.59L297.76 400.03L294.79 404.56L294.54 407.96L292.30 412.01L290.22 414.31L287.71 417.09L284.13 422.50L281.02 427.19L279.39 429.66L276.12 436.04L273.72 440.75L271.62 444.08L270.28 446.20L268.46 450.21L267.12 453.37L265.63 455.38L262.99 459.22L258.87 462.67L256.07 465.01L252.66 466.82L249.28 468.62L247.22 472.26L242.86 473.46L237.27 477.84L231.85 482.09L228.59 485.12L224.49 488.94L221.69 492.20L219.95 494.23L216.92 495.85L213.45 501.94L213.32 502.26L211.00 506.84L206.61 513.01L205.21 520.52L205.32 528.73L205.41 535.03L205.95 538.73L205.30 543.63L206.32 546.01L205.73 548.92L205.21 551.50L205.90 555.42L203.30 561.48L200.77 567.08L198.92 571.71L198.06 576.33L196.90 582.52L196.04 587.04L195.59 589.35L194.55 594.13L193.89 598.74L192.87 605.88L192.53 608.25L191.47 621.50L194.89 620.25L198.40 618.97L203.08 616.52L206.02 614.90L210.18 612.73L214.22 610.87L216.73 608.93L219.23 606.99L226.09 603.25L237.45 598.16L259.34 590.65L262.64 590.52L271.56 589.89L283.17 589.06L291.71 588.17L295.12 585.86L295.95 581.83L296.59 578.45L296.91 573.27L298.86 567.27L302.39 566.97L314.35 567.74L317.28 569.20L320.33 570.50L324.52 570.84L330.17 571.29L335.92 570.17L339.11 569.55L343.40 568.32L350.09 564.37L359.35 558.43L366.09 554.96L370.10 552.95L375.70 550.05L382.89 546.37L385.47 545.05L389.14 543.57L394.40 543.76L405.45 542.76L409.96 539.21L411.79 537.47L415.54 533.89L418.16 531.36L421.33 528.29L424.68 526.21L427.25 525.67L431.36 526.61L433.95 527.20L440.16 528.75L444.53 530.03L448.25 530.95L451.70 531.62L455.26 530.45L459.28 527.38L461.99 524.95L463.38 523.15L465.43 519.84L467.21 516.96L469.34 513.52L471.88 508.16L474.22 507.58L477.50 508.20L479.84 509.23L484.04 510.86L486.46 511.92L488.92 512.75L493.10 512.07L494.00 509.94L495.18 507.53L496.54 504.48L498.34 500.37L499.57 497.63L502.59 496.90L506.45 496.38L512.18 497.31L514.93 497.86L517.35 498.33L522.66 499.17L524.95 493.42L526.75 487.31L528.18 481.29L528.82 478.62L529.74 474.72L530.52 471.41L531.47 467.43L532.05 465.03L535.51 461.40L537.62 459.19L541.75 453.61L543.27 446.98L544.34 438.66L544.82 435.01L545.14 432.64L546.18 425.19L547.48 419.38L549.88 412.24L551.41 406.20L552.11 403.68L554.11 398.27L554.04 395.56L549.34 395.31L543.25 394.71L538.69 394.09L533.70 394.17L528.87 394.24L526.10 394.64L522.04 395.98L517.97 396.66L513.81 397.04L505.62 397.11L502.24 397.26L496.84 397.63L492.40 395.61L485.77 397.91L482.24 397.75L474.52 396.47L472.16 400.10L468.77 404.91L466.75 408.24L461.59 408.98L457.26 407.50L452.61 406.51L442.13 404.27L438.48 403.46L432.52 402.13L429.49 401.42L429.14 397.38L429.03 389.83L428.86 378.57L428.79 374.18L428.84 369.37L428.94 365.81L430.43 359.01L435.60 360.81L440.00 361.44L442.39 354.89L440.30 352.39L438.77 350.38L435.05 347.84L432.22 346.94L428.80 347.36L426.25 347.67L416.86 347.84L391.40 348.05L366.73 348.24L361.18 348.28L358.16 345.52L346.70 335.04Z" data-ward="19" /><path id="ward-21" class="ward" d="M475.73 199.24L472.63 198.75L465.22 198.18L462.09 197.92L459.67 195.84L460.39 190.11L458.45 185.75L454.36 184.45L450.15 182.45L447.96 181.37L444.81 179.95L439.61 178.84L435.94 178.47L434.84 180.89L433.65 184.95L432.50 188.13L431.81 193.46L430.75 196.38L430.21 199.34L429.65 202.45L424.24 203.79L419.23 201.80L411.08 201.50L407.65 202.24L402.54 201.36L400.17 200.22L396.77 200.98L398.35 203.61L399.28 206.25L401.75 213.00L403.69 218.32L404.54 223.38L405.71 230.40L405.02 238.34L403.90 241.89L401.84 252.45L400.72 258.54L399.56 262.16L393.05 283.03L391.25 288.82L388.36 298.06L384.84 303.50L379.42 311.87L373.67 318.24L371.26 320.91L369.00 323.41L364.97 326.02L358.48 330.21L351.76 331.77L346.70 335.04L358.16 345.52L361.18 348.28L366.73 348.24L391.40 348.05L416.86 347.84L426.25 347.67L428.80 347.36L432.22 346.94L435.05 347.84L438.77 350.38L440.30 352.39L442.39 354.89L440.00 361.44L435.60 360.81L430.43 359.01L428.94 365.81L428.84 369.37L428.79 374.18L428.86 378.57L429.03 389.83L429.14 397.38L429.49 401.42L432.52 402.13L438.48 403.46L442.13 404.27L452.61 406.51L457.26 407.50L461.59 408.98L466.75 408.24L468.77 404.91L472.16 400.10L474.52 396.47L482.24 397.75L485.77 397.91L492.40 395.61L496.84 397.63L502.24 397.26L505.62 397.11L513.81 397.04L517.97 396.66L522.04 395.98L526.10 394.64L528.87 394.24L533.70 394.17L538.69 394.09L535.73 386.11L535.79 380.46L536.09 374.49L537.37 371.01L539.47 367.84L541.63 364.82L544.00 361.67L546.10 358.13L548.63 353.85L554.38 346.01L556.37 341.89L556.05 338.61L555.25 334.05L555.19 331.38L555.90 329.13L556.16 326.41L557.82 324.53L560.08 321.97L563.06 320.10L566.38 318.01L570.15 315.36L578.60 311.02L583.94 307.83L587.10 305.95L592.26 304.76L598.62 303.30L603.14 301.55L605.38 301.26L608.70 297.91L610.64 296.62L611.18 291.09L610.45 285.11L611.35 279.74L613.89 275.48L615.10 273.53L616.76 270.19L619.20 265.71L620.95 262.50L623.54 255.75L614.86 252.81L612.58 252.30L605.48 250.62L598.49 250.17L588.93 249.84L582.15 245.01L525.78 200.99L511.81 190.08L502.15 182.80L498.91 180.37L495.13 180.51L491.13 180.66L486.94 182.41L482.75 184.16L480.74 186.12L479.45 189.86L479.33 194.29L478.81 199.49L475.73 199.24Z" data-ward="21" /><path id="ward-20" class="ward" d="M705.37 151.03L708.74 149.06L713.23 145.25L713.40 141.19L711.04 140.29L707.87 138.57L705.63 137.55L703.32 136.20L698.89 134.54L694.61 133.21L692.60 131.77L690.41 130.59L687.69 130.21L685.81 133.16L683.18 136.21L681.00 138.72L677.13 142.93L673.85 146.83L672.01 150.33L668.07 152.09L665.07 149.53L660.93 147.28L658.75 146.33L654.28 144.32L649.56 142.42L644.00 139.78L639.87 141.42L636.28 141.66L633.94 140.76L630.90 139.40L626.31 139.62L623.64 139.90L621.37 140.14L616.89 140.90L614.15 142.07L609.69 145.83L607.02 148.09L601.28 151.15L598.54 150.96L593.16 150.42L589.21 149.82L585.26 148.72L582.61 148.04L579.96 147.63L576.10 147.54L573.16 149.27L568.52 149.66L564.20 146.33L561.10 147.75L558.29 149.04L555.32 149.74L551.36 149.94L543.29 149.31L540.12 150.22L537.98 151.55L535.83 152.87L533.95 154.40L529.36 157.98L525.60 161.63L523.02 163.33L519.59 165.46L517.53 167.40L513.49 171.20L507.43 175.86L504.99 177.55L498.91 180.37L502.15 182.80L511.81 190.08L525.78 200.99L582.15 245.01L588.93 249.84L598.49 250.17L605.48 250.62L612.58 252.30L614.86 252.81L623.54 255.75L620.95 262.50L619.20 265.71L616.76 270.19L615.10 273.53L613.89 275.48L611.35 279.74L610.45 285.11L611.18 291.09L610.64 296.62L608.70 297.91L605.38 301.26L603.14 301.55L598.62 303.30L592.26 304.76L587.10 305.95L583.94 307.83L578.60 311.02L570.15 315.36L566.38 318.01L563.06 320.10L560.08 321.97L557.82 324.53L556.16 326.41L555.90 329.13L555.19 331.38L555.25 334.05L556.05 338.61L556.37 341.89L554.38 346.01L548.63 353.85L546.10 358.13L544.00 361.67L541.63 364.82L539.47 367.84L537.37 371.01L536.09 374.49L535.79 380.46L535.73 386.11L538.69 394.09L543.25 394.71L549.34 395.31L554.04 395.56L556.87 391.05L559.17 385.12L560.19 381.87L561.89 376.41L565.50 371.54L569.37 367.59L572.25 364.73L574.74 362.26L578.07 359.33L581.65 356.19L584.28 355.02L589.81 352.57L593.60 355.85L595.95 357.88L599.60 360.75L603.25 363.62L608.30 366.46L613.39 369.32L616.45 370.96L622.64 374.29L625.83 376.00L627.83 377.48L631.91 380.53L636.29 383.80L639.22 385.05L643.01 386.66L645.95 387.91L647.93 389.66L659.48 393.07L663.75 392.94L667.09 392.83L669.36 391.64L671.19 388.45L673.24 384.90L676.34 384.83L681.90 383.71L686.37 382.81L689.80 376.60L692.98 372.11L693.87 368.95L694.67 366.11L696.55 363.30L699.60 358.74L701.18 356.31L702.78 353.84L703.90 349.35L705.46 341.77L707.98 338.60L712.83 332.52L713.66 330.26L715.98 323.98L717.02 319.60L718.37 313.91L720.50 308.23L721.23 300.54L724.47 295.69L726.89 291.42L728.14 288.62L729.27 286.09L732.46 278.99L735.67 275.60L738.87 272.76L741.38 266.26L741.54 261.98L741.64 259.07L740.98 254.58L740.31 250.04L736.53 246.00L734.48 241.41L733.39 238.29L733.40 235.47L733.40 232.66L734.64 226.48L736.01 223.56L730.17 223.27L725.82 223.24L722.42 222.44L717.75 222.04L711.34 220.98L709.46 218.75L705.84 212.94L699.73 210.78L696.48 208.75L692.75 206.61L689.75 204.74L686.72 202.36L682.23 198.87L679.07 196.23L675.30 194.47L675.93 192.09L677.01 188.03L679.72 182.51L682.28 176.99L684.73 171.67L686.53 168.31L688.72 165.17L691.91 161.50L694.44 158.78L696.60 156.74L699.34 154.91L701.65 153.42L705.37 151.03Z" data-ward="20" /><path id="ward-15" class="ward" d="M373.83 895.16L371.47 894.35L367.93 892.38L364.07 889.16L359.40 885.23L356.17 882.53L350.19 877.67L342.27 873.89L336.53 873.89L336.36 877.86L335.25 881.18L333.54 885.12L331.98 888.70L331.34 893.03L330.93 895.66L330.00 900.76L329.58 905.02L329.22 908.75L325.27 920.78L324.24 923.90L320.95 933.81L317.00 945.68L313.55 956.04L311.23 963.03L309.26 968.97L305.95 978.91L303.10 987.49L301.44 992.48L300.13 996.41L303.84 1001.07L307.68 1005.89L309.96 1010.88L310.51 1013.12L312.01 1019.24L312.50 1022.89L312.94 1026.21L313.04 1035.12L311.78 1039.40L310.00 1042.62L305.04 1045.08L299.52 1050.76L295.34 1055.06L288.28 1068.33L289.08 1076.23L290.03 1085.64L290.47 1090.00L290.62 1095.15L291.03 1109.02L291.37 1111.43L291.85 1114.75L294.07 1115.63L306.22 1118.61L318.30 1121.57L324.89 1124.16L329.29 1128.14L332.06 1130.52L334.66 1133.47L339.55 1138.10L342.24 1140.06L347.03 1143.27L350.86 1145.67L353.56 1147.46L355.52 1149.09L358.39 1151.96L361.31 1154.43L363.17 1156.01L368.27 1160.35L370.10 1162.21L372.11 1164.14L374.79 1167.06L377.74 1168.34L383.72 1174.39L386.84 1173.30L389.11 1172.43L392.06 1173.36L395.57 1174.33L397.60 1175.45L400.77 1174.75L404.21 1176.15L408.08 1178.40L411.44 1182.01L415.76 1185.08L419.45 1186.82L422.46 1187.85L424.06 1185.56L424.21 1183.13L423.90 1180.86L421.88 1179.25L416.67 1175.40L414.58 1173.54L412.96 1171.27L411.79 1168.23L411.37 1164.60L410.24 1160.50L410.18 1154.92L410.81 1152.66L411.57 1149.17L412.84 1145.18L412.36 1141.45L411.69 1137.29L410.47 1133.08L409.75 1130.60L406.79 1125.18L401.67 1120.68L398.32 1118.74L396.60 1114.86L397.24 1112.44L397.99 1109.78L398.92 1103.19L399.74 1098.25L400.30 1094.19L399.76 1091.84L398.19 1088.55L396.57 1086.47L394.60 1083.68L393.94 1080.14L394.11 1075.54L394.51 1071.37L395.51 1066.21L395.76 1062.69L393.88 1058.47L393.13 1056.18L392.38 1052.43L391.86 1045.10L392.14 1041.66L392.28 1038.67L392.02 1035.77L391.12 1030.64L390.12 1025.76L389.76 1022.72L389.51 1020.05L390.21 1015.50L391.74 1011.72L391.44 1007.31L389.27 1006.10L387.06 1004.48L384.23 1002.41L384.11 997.77L384.99 993.47L386.04 991.11L387.08 988.79L388.17 986.71L389.34 981.45L391.57 979.32L394.88 971.88L397.86 965.82L397.88 963.45L397.78 959.11L397.59 954.10L397.56 951.00L398.44 947.18L399.45 944.79L400.89 940.61L402.44 937.53L405.49 931.86L408.39 924.33L409.52 919.55L413.72 920.28L417.87 921.06L420.49 921.56L427.71 922.71L432.01 922.78L434.73 923.01L438.48 923.06L443.77 924.15L447.33 924.94L451.58 925.79L455.40 925.39L458.04 925.12L459.20 921.28L461.54 916.04L461.46 912.07L462.11 908.02L464.09 901.02L464.91 897.28L465.81 893.52L461.69 890.81L450.40 889.60L437.71 888.95L430.39 888.55L425.24 889.01L420.23 890.24L411.81 892.58L407.50 894.02L401.31 895.68L395.95 896.10L393.02 896.32L388.53 896.53L385.02 896.55L380.29 896.57L373.83 895.16Z" data-ward="15" /><path id="ward-1" class="ward" d="M507.85 19.00L502.45 17.10L498.78 14.67L496.27 13.82L493.61 12.92L486.91 10.08L483.55 9.36L479.28 8.10L471.32 5.74L468.17 4.77L465.09 3.95L459.37 2.41L454.55 0.85L451.93 0.00L448.08 1.46L447.54 5.04L446.07 7.47L444.16 9.90L440.73 13.84L437.43 17.82L435.88 19.69L432.43 20.38L429.14 20.47L425.74 21.20L424.69 21.32L423.47 21.13L421.56 19.94L418.23 18.82L413.81 17.17L411.27 15.72L406.97 15.76L404.09 15.39L401.77 15.10L398.92 14.73L395.13 13.71L391.34 12.68L386.12 13.81L385.53 16.62L384.94 19.44L383.19 21.43L379.33 22.14L376.98 24.83L381.71 30.22L386.36 35.51L390.98 40.76L392.68 42.90L397.28 51.05L403.03 59.17L402.61 64.80L402.06 72.00L401.78 75.78L398.38 80.04L390.16 90.35L386.07 92.34L366.53 103.28L365.17 105.63L360.34 108.55L355.75 115.14L353.46 120.86L352.40 123.51L354.40 129.38L356.77 136.35L362.47 146.50L370.83 158.91L380.95 172.76L385.87 179.31L388.61 183.82L390.31 186.63L394.74 197.58L396.77 200.98L400.17 200.22L402.54 201.36L407.65 202.24L411.08 201.50L419.23 201.80L424.24 203.79L429.65 202.45L430.21 199.34L430.75 196.38L431.81 193.46L432.50 188.13L433.65 184.95L434.84 180.89L435.94 178.47L439.61 178.84L444.81 179.95L447.96 181.37L450.15 182.45L454.36 184.45L458.45 185.75L460.39 190.11L459.67 195.84L462.09 197.92L465.22 198.18L472.63 198.75L475.73 199.24L478.81 199.49L479.33 194.29L479.45 189.86L480.74 186.12L482.75 184.16L486.94 182.41L491.13 180.66L495.13 180.51L498.91 180.37L504.99 177.55L507.43 175.86L513.49 171.20L517.53 167.40L519.59 165.46L523.02 163.33L525.60 161.63L529.36 157.98L533.95 154.40L535.83 152.87L537.98 151.55L540.12 150.22L543.29 149.31L551.36 149.94L555.32 149.74L558.29 149.04L561.10 147.75L564.20 146.33L568.52 149.66L573.16 149.27L576.10 147.54L579.96 147.63L582.61 148.04L585.26 148.72L589.21 149.82L593.16 150.42L598.54 150.96L601.28 151.15L607.02 148.09L609.69 145.83L614.15 142.07L616.89 140.90L621.37 140.14L623.64 139.90L626.31 139.62L630.90 139.40L633.94 140.76L636.28 141.66L639.87 141.42L644.00 139.78L649.56 142.42L654.28 144.32L658.75 146.33L660.93 147.28L665.07 149.53L668.07 152.09L672.01 150.33L673.85 146.83L677.13 142.93L681.00 138.72L683.18 136.21L685.81 133.16L687.69 130.21L690.41 130.59L692.60 131.77L694.61 133.21L698.89 134.54L703.32 136.20L705.63 137.55L707.87 138.57L711.04 140.29L713.40 141.19L715.34 138.24L717.28 136.11L720.59 136.88L724.33 138.33L731.59 140.92L736.07 142.24L738.38 142.41L743.23 141.98L749.27 140.90L754.68 140.15L751.24 136.18L748.03 132.47L744.38 129.71L740.41 123.18L738.25 119.63L735.74 117.27L733.89 113.32L731.47 110.73L728.28 107.14L725.62 105.65L720.62 102.85L716.32 101.43L708.02 98.70L705.68 96.92L701.96 95.24L695.31 92.25L689.76 89.75L687.05 88.53L681.17 87.15L676.29 86.00L670.58 84.66L663.30 80.69L654.09 75.69L649.27 73.93L641.18 70.98L633.01 68.00L625.10 65.12L618.97 62.89L616.81 61.78L612.30 61.57L608.74 60.33L604.61 59.94L599.04 59.41L593.99 57.52L588.90 55.13L586.42 54.50L580.44 51.80L577.52 49.16L574.45 47.78L567.43 44.65L559.60 41.15L552.61 38.26L547.77 35.25L544.96 34.18L536.90 31.10L532.99 29.13L529.80 27.99L525.31 25.69L521.11 23.55L515.27 21.55L507.85 19.00Z" data-ward="1" /><path id="ward-12" class="ward" d="M400.52 1323.09L402.28 1320.38L405.85 1316.27L408.33 1311.57L406.65 1305.55L407.62 1299.20L408.52 1295.02L412.41 1288.20L413.80 1285.59L415.05 1283.01L416.54 1279.87L419.06 1275.24L421.63 1269.97L426.13 1266.42L428.30 1264.19L431.63 1259.04L436.35 1253.74L437.51 1246.69L437.81 1244.08L437.89 1239.50L437.70 1236.81L437.18 1233.71L436.81 1231.09L436.33 1225.94L436.05 1223.65L435.61 1219.81L434.93 1216.09L433.88 1213.03L431.72 1208.83L429.55 1204.73L428.23 1200.48L427.43 1197.48L426.72 1194.23L423.77 1190.17L422.46 1187.85L420.36 1190.18L417.41 1194.19L415.17 1197.63L413.30 1203.37L416.42 1205.49L418.15 1213.22L415.82 1214.84L400.33 1229.68L391.70 1238.33L380.49 1249.56L381.61 1258.80L384.35 1284.27L382.60 1289.21L380.27 1292.75L377.83 1297.21L373.43 1301.19L369.48 1303.79L367.36 1305.94L398.38 1326.84L400.52 1323.09Z" data-ward="12" /><path id="ward-10" class="ward" d="M628.27 1442.41L627.62 1441.76L630.56 1439.14L618.45 1427.41L603.88 1413.22L593.02 1403.91L580.67 1388.55L577.00 1386.17L573.85 1383.08L563.81 1373.25L558.47 1369.27L554.43 1365.94L544.39 1357.68L533.06 1348.36L523.06 1337.42L520.69 1334.83L512.81 1331.24L503.98 1327.22L494.58 1324.74L488.99 1323.27L482.33 1319.50L481.89 1316.35L480.63 1318.54L479.37 1320.73L476.01 1324.23L473.82 1327.47L473.21 1330.12L471.41 1333.30L469.62 1335.98L466.13 1341.57L465.11 1345.60L467.41 1347.86L469.51 1349.82L467.26 1358.25L464.39 1364.81L461.42 1370.27L459.90 1373.85L483.02 1393.79L500.25 1406.34L517.45 1418.74L584.04 1473.18L588.47 1466.75L601.77 1476.15L628.27 1442.41Z" data-ward="10" /><path id="ward-13" class="ward" d="M369.48 1303.79L373.43 1301.19L377.83 1297.21L380.27 1292.75L382.60 1289.21L384.35 1284.27L381.61 1258.80L380.49 1249.56L391.70 1238.33L400.33 1229.68L415.82 1214.84L418.15 1213.22L416.42 1205.49L413.30 1203.37L415.17 1197.63L417.41 1194.19L420.36 1190.18L422.46 1187.85L419.45 1186.82L415.76 1185.08L411.44 1182.01L409.99 1184.80L406.24 1188.60L403.52 1192.91L402.24 1194.96L400.30 1197.95L397.23 1202.33L395.58 1204.75L394.49 1206.82L393.54 1208.98L390.83 1214.54L388.70 1216.96L382.00 1224.11L373.89 1232.77L365.91 1241.30L359.43 1248.22L354.00 1254.01L344.83 1264.10L348.67 1267.54L347.14 1269.57L345.03 1272.60L341.63 1277.40L338.66 1280.36L336.63 1282.55L335.20 1284.56L356.46 1300.75L367.36 1305.94L369.48 1303.79Z" data-ward="13" /><path id="ward-14" class="ward" d="M269.34 1091.55L248.06 1089.24L232.02 1087.68L225.03 1088.00L221.09 1088.76L217.66 1089.42L213.83 1090.17L209.89 1090.93L205.38 1091.80L200.15 1092.81L196.26 1093.56L193.91 1094.02L189.76 1094.82L184.21 1094.62L178.37 1094.40L172.29 1094.20L167.25 1094.03L162.87 1093.89L158.15 1093.73L153.87 1093.59L150.09 1093.51L149.00 1096.47L149.34 1097.19L161.56 1114.48L156.48 1118.80L146.10 1125.27L145.85 1126.71L143.69 1127.91L132.45 1133.90L335.20 1284.56L336.63 1282.55L338.66 1280.36L341.63 1277.40L345.03 1272.60L347.14 1269.57L348.67 1267.54L344.83 1264.10L354.00 1254.01L359.43 1248.22L365.91 1241.30L373.89 1232.77L382.00 1224.11L388.70 1216.96L390.83 1214.54L393.54 1208.98L394.49 1206.82L395.58 1204.75L397.23 1202.33L400.30 1197.95L402.24 1194.96L403.52 1192.91L406.24 1188.60L409.99 1184.80L411.44 1182.01L408.08 1178.40L404.21 1176.15L400.77 1174.75L397.60 1175.45L395.57 1174.33L392.06 1173.36L389.11 1172.43L386.84 1173.30L383.72 1174.39L377.74 1168.34L374.79 1167.06L372.11 1164.14L370.10 1162.21L368.27 1160.35L363.17 1156.01L361.31 1154.43L358.39 1151.96L355.52 1149.09L353.56 1147.46L350.86 1145.67L347.03 1143.27L342.24 1140.06L339.55 1138.10L334.66 1133.47L332.06 1130.52L329.29 1128.14L324.89 1124.16L318.30 1121.57L306.22 1118.61L294.07 1115.63L291.85 1114.75L289.49 1116.63L285.37 1111.49L277.48 1101.67L269.34 1091.55Z" data-ward="14" /></svg>