<svg viewBox="0 0 1000.00 733.73" xmlns="http://www.w3.org/2000/svg"><style>.ward { fill: #e2e8f0; stroke: #fff; stroke-width: 0.5px; } .ward:hover { fill: #cbd5e1; }</style><path id="ward-15" class="ward" d="M183.46 396.26L181.81 395.00L180.19 393.72L178.63 392.42L176.07 390.77L173.31 389.78L171.93 389.38L169.53 388.34L167.99 387.51L166.66 386.80L165.35 386.19L163.17 385.71L160.59 385.97L158.57 387.14L157.28 388.62L156.65 389.65L155.69 391.16L154.44 392.85L152.88 393.96L150.14 394.66L148.22 394.94L146.42 395.53L144.45 396.69L142.87 397.89L141.21 397.83L140.26 400.49L139.51 402.02L137.93 405.46L136.07 409.02L134.53 411.54L131.39 416.66L126.63 421.57L125.33 423.08L123.47 425.76L122.27 427.62L120.36 431.65L118.66 435.26L116.64 435.86L114.75 435.51L113.29 435.25L112.12 434.46L109.14 432.45L107.21 431.92L102.73 431.43L100.04 431.14L96.53 429.10L93.38 427.27L92.02 425.91L90.84 425.16L88.04 423.36L86.61 422.44L82.37 420.15L69.61 416.95L66.79 417.22L65.95 421.60L56.53 421.39L55.38 420.77L53.32 419.65L48.71 418.62L43.94 418.51L40.89 418.43L38.00 418.40L36.93 417.28L34.82 416.90L32.23 416.46L30.74 416.71L26.28 417.44L24.18 418.49L22.09 419.54L20.18 420.63L18.36 421.68L15.79 423.20L11.55 422.18L9.60 421.71L8.87 423.93L11.35 424.76L9.75 429.06L8.36 432.68L7.49 433.98L6.30 435.65L5.28 436.66L5.28 440.18L5.28 443.26L7.13 443.71L7.15 445.91L7.37 448.52L7.71 452.69L3.13 456.51L0.35 461.23L4.80 464.81L2.97 467.50L0.00 470.35L3.87 473.90L7.11 476.96L10.34 479.89L12.92 483.13L14.45 485.00L22.02 487.23L23.02 488.22L24.93 489.97L26.80 491.13L28.42 492.13L30.36 492.75L32.65 494.59L33.86 495.56L36.50 493.60L36.18 492.42L35.85 491.22L35.03 488.92L35.25 487.24L34.86 486.09L34.30 484.46L33.35 481.67L32.94 479.62L33.00 478.22L34.45 475.70L35.84 475.69L37.50 475.62L38.80 475.51L40.81 475.47L42.27 475.46L44.35 476.29L47.62 476.64L49.45 475.83L50.68 475.21L52.50 474.14L54.46 473.56L56.85 473.01L58.83 472.98L62.04 473.52L64.39 474.07L65.63 475.28L64.69 476.81L63.44 478.68L62.88 480.17L69.22 483.40L67.35 489.16L67.75 494.07L66.25 501.09L62.66 509.94L59.09 516.09L57.73 518.40L55.15 522.82L54.25 528.97L53.99 530.84L53.47 534.60L52.96 538.28L53.67 539.24L55.69 541.94L54.92 543.11L84.97 549.44L86.53 549.19L87.98 548.97L91.85 548.36L97.30 543.97L100.48 541.41L103.72 532.63L104.86 529.56L106.68 530.03L112.11 533.08L112.78 523.53L112.22 521.40L110.30 514.05L108.70 507.92L108.33 506.50L106.06 498.41L103.66 489.89L102.13 484.47L101.53 479.37L100.49 470.49L99.41 461.27L102.99 458.47L104.73 457.12L110.31 452.76L113.26 448.65L116.37 444.30L130.42 445.72L137.69 441.64L148.58 441.75L159.48 441.93L162.25 444.56L164.75 446.93L166.58 448.50L168.62 443.44L172.78 442.90L175.08 442.73L175.95 439.52L178.27 439.54L180.18 440.51L183.32 441.15L186.71 441.40L190.08 441.25L193.10 442.16L196.77 443.04L199.54 443.97L201.92 445.03L203.92 446.38L205.90 444.30L206.84 443.29L213.18 436.43L214.51 434.68L218.45 429.51L219.59 428.12L217.96 426.63L216.50 425.70L214.58 423.58L213.73 422.62L212.72 421.45L211.20 419.69L210.43 418.24L209.32 416.44L208.32 414.79L206.83 412.21L205.97 410.65L200.61 406.63L199.15 405.85L196.96 404.66L195.49 403.77L193.73 402.71L192.31 401.85L191.18 401.17L189.52 400.17L187.15 398.74L185.99 398.04L183.46 396.26Z" data-ward="15" /><path id="ward-14" class="ward" d="M65.63 475.28L64.39 474.07L62.04 473.52L58.83 472.98L56.85 473.01L54.46 473.56L52.50 474.14L50.68 475.21L49.45 475.83L47.62 476.64L44.35 476.29L42.27 475.46L40.81 475.47L38.80 475.51L37.50 475.62L35.84 475.69L34.45 475.70L33.00 478.22L32.94 479.62L33.35 481.67L34.30 484.46L34.86 486.09L35.25 487.24L35.03 488.92L35.85 491.22L36.18 492.42L36.50 493.60L33.86 495.56L33.16 497.64L32.48 499.66L31.90 501.03L31.63 502.22L31.31 503.65L31.49 505.89L31.66 507.91L32.28 509.95L32.71 511.30L32.84 511.77L33.25 513.13L33.26 513.15L33.89 514.09L33.53 515.40L33.98 516.54L34.72 518.39L35.23 519.69L35.24 521.64L35.77 523.77L36.12 525.21L36.59 527.09L36.63 528.85L36.72 532.25L36.36 536.42L36.21 538.13L37.08 540.73L40.05 549.60L38.87 550.07L37.69 550.54L35.67 552.08L34.68 552.84L33.54 553.71L32.53 554.48L30.79 555.69L27.79 559.28L26.74 560.54L26.49 562.84L26.24 565.16L26.92 567.78L27.35 569.47L27.79 570.83L28.42 572.82L29.20 575.24L29.51 578.26L29.47 578.79L29.29 578.86L28.47 579.74L28.66 582.77L28.85 585.72L26.73 590.50L26.18 591.75L22.78 593.00L21.73 593.76L21.13 594.84L19.88 595.36L18.50 596.49L17.60 597.60L17.16 599.52L15.83 601.00L14.99 601.93L14.48 604.19L14.06 605.89L12.79 607.96L11.60 609.80L11.12 611.37L10.11 613.02L8.48 615.06L7.87 617.20L7.44 620.21L10.65 621.48L14.28 622.93L17.90 624.37L20.30 623.71L21.73 623.32L24.29 622.61L27.24 621.81L28.57 621.44L31.10 620.51L33.03 619.80L37.19 618.28L39.74 617.35L43.30 616.04L45.52 615.91L48.11 615.76L48.92 618.30L49.34 619.63L50.26 622.52L49.16 626.61L50.20 627.75L51.45 630.03L55.61 633.65L56.84 633.84L58.50 634.27L60.70 634.34L65.87 634.50L67.42 635.33L71.53 637.91L73.15 638.93L75.31 639.96L77.46 640.99L79.62 642.02L82.56 645.45L83.51 646.56L84.43 647.64L85.40 648.85L88.43 649.85L90.92 650.68L92.53 651.21L101.63 643.37L103.72 642.52L107.79 642.80L109.43 639.60L107.48 635.25L110.06 633.05L113.27 630.35L113.64 628.22L113.86 626.93L114.32 624.32L114.35 622.83L114.54 619.70L114.73 616.57L115.16 612.29L115.32 610.84L115.26 608.12L114.96 594.61L114.07 580.68L113.84 577.12L111.32 573.17L109.70 570.62L105.43 569.31L101.43 568.08L90.37 566.23L86.90 565.67L85.23 566.34L84.05 566.04L83.73 564.60L83.20 561.85L82.16 556.41L67.58 553.29L59.63 551.02L57.98 550.16L54.18 548.15L54.92 543.11L55.69 541.94L53.67 539.24L52.96 538.28L53.47 534.60L53.99 530.84L54.25 528.97L55.15 522.82L57.73 518.40L59.09 516.09L62.66 509.94L66.25 501.09L67.75 494.07L67.35 489.16L69.22 483.40L62.88 480.17L63.44 478.68L64.69 476.81L65.63 475.28Z" data-ward="14" /><path id="ward-6" class="ward" d="M819.85 208.21L809.08 195.98L798.39 190.15L797.62 183.97L796.90 178.15L807.40 167.31L804.79 164.52L803.96 163.63L801.92 161.18L799.89 159.18L798.93 158.41L796.30 156.87L793.76 155.51L790.41 155.60L787.98 155.66L786.71 156.55L785.08 157.68L780.66 160.05L777.33 161.81L773.87 163.66L768.02 165.16L763.60 166.30L758.53 167.35L754.85 168.03L752.68 168.42L750.72 168.70L747.08 169.59L743.40 170.49L742.23 170.77L740.43 171.68L737.83 172.98L735.48 175.97L733.53 178.46L730.67 179.33L727.28 180.36L725.81 180.77L721.64 182.18L719.56 182.89L717.70 184.36L716.12 186.98L714.76 189.23L713.85 190.74L713.15 193.36L712.39 196.20L712.00 197.67L712.41 199.17L713.10 201.74L714.26 205.97L714.22 207.52L714.67 209.23L714.80 211.31L714.61 213.16L713.48 214.37L711.28 215.44L708.68 215.65L704.96 215.45L701.65 214.35L693.87 211.87L692.13 211.44L690.09 210.84L687.65 210.17L685.62 209.96L680.60 208.63L679.35 207.90L678.03 207.60L676.09 207.09L674.59 207.20L673.15 207.53L671.54 208.04L670.03 208.77L667.76 210.48L666.37 211.46L666.23 211.56L664.75 212.56L661.20 214.50L658.33 214.66L655.11 214.02L652.69 212.92L650.11 211.10L647.87 209.56L646.09 208.56L641.97 206.73L640.36 206.63L638.03 206.80L635.25 206.88L632.39 206.77L630.06 206.22L627.02 204.67L623.54 202.31L622.11 201.49L619.52 200.21L616.57 198.30L614.87 197.12L614.66 196.91L613.38 197.34L613.25 199.54L613.20 201.03L613.04 202.74L612.94 204.13L613.05 206.83L614.78 207.37L616.38 207.87L618.72 208.60L621.33 211.17L621.66 213.02L622.34 215.72L624.18 217.43L625.89 218.17L627.70 218.96L629.93 219.92L631.80 220.73L633.10 220.91L634.80 221.14L636.79 221.41L638.93 221.70L642.62 222.27L644.11 222.62L647.61 223.45L651.45 224.37L652.79 224.69L655.86 225.50L658.10 226.10L660.07 226.64L661.85 226.96L664.22 227.39L666.25 227.76L669.34 228.42L670.91 229.22L672.12 229.86L673.19 230.44L674.25 231.00L677.63 232.81L678.95 233.51L680.78 234.49L682.77 235.57L684.48 237.40L685.53 238.54L686.71 239.82L688.16 241.39L689.61 242.97L690.77 244.23L692.21 245.80L693.76 247.48L694.88 248.70L696.42 250.39L697.01 251.73L697.59 253.05L698.14 254.35L697.13 268.42L697.54 269.71L697.96 271.03L698.48 272.68L698.93 274.09L699.49 275.84L699.86 276.98L700.39 278.66L700.82 280.03L701.40 281.33L702.09 282.54L702.83 283.83L703.61 285.19L705.11 287.80L705.98 289.34L706.66 290.51L707.52 292.01L708.40 293.55L709.44 295.37L711.11 298.29L712.39 300.34L714.45 301.41L717.96 303.21L719.47 303.33L721.40 303.48L723.04 303.61L724.28 303.70L725.97 303.84L727.81 304.52L729.42 305.11L730.93 305.65L732.87 306.30L734.86 306.97L736.70 307.58L737.98 308.03L739.21 309.64L740.05 310.83L741.15 312.38L742.43 314.18L743.73 316.01L744.76 317.46L745.91 319.09L747.27 321.00L748.12 322.20L749.89 323.11L751.55 323.70L754.71 324.66L756.09 325.08L758.17 325.71L759.44 326.12L761.88 327.75L764.52 329.64L765.35 330.87L767.20 333.65L770.30 346.72L771.36 347.59L772.83 348.46L774.04 348.83L775.48 349.28L777.24 349.83L778.39 350.19L780.08 350.75L781.58 351.24L783.61 351.34L785.45 349.97L786.57 349.15L787.84 348.21L789.11 347.27L790.36 346.35L791.60 345.42L792.83 344.52L793.81 343.79L795.03 343.08L796.20 343.72L797.74 344.57L798.83 345.18L800.33 346.01L800.68 348.91L797.94 354.30L799.08 359.47L799.88 361.19L800.48 362.48L801.07 363.76L801.89 365.55L802.16 367.29L803.19 372.19L804.11 374.23L804.59 375.64L805.04 376.95L805.49 378.29L806.10 380.06L806.66 381.72L807.08 382.94L807.54 384.28L808.41 386.83L808.90 388.28L809.48 389.97L810.43 390.72L813.65 391.53L815.52 391.65L817.24 392.63L818.92 394.27L820.11 395.36L822.27 396.33L824.28 397.11L826.13 397.83L827.37 398.73L828.35 399.45L829.60 400.37L831.01 401.41L832.33 402.39L833.66 403.36L834.81 404.21L835.99 405.08L838.39 405.77L839.11 404.54L840.38 402.36L842.30 399.09L844.14 396.03L847.49 390.43L850.03 388.10L855.63 382.95L857.34 380.46L854.25 369.76L857.27 366.18L860.45 362.41L865.27 362.75L866.95 362.87L870.30 357.87L876.00 352.85L878.15 350.89L880.18 349.05L886.40 343.23L889.56 345.64L890.77 343.60L891.78 340.99L896.26 336.55L897.58 333.60L903.01 333.89L907.42 326.99L908.63 324.02L909.83 322.70L910.97 320.00L914.91 319.27L915.17 314.62L920.07 308.12L920.59 300.67L911.82 293.22L904.93 290.90L902.45 290.07L901.49 287.77L900.58 286.48L899.30 284.87L898.31 283.11L897.62 281.24L898.74 279.60L899.88 275.25L900.40 273.11L899.05 270.95L897.32 270.10L896.11 269.56L896.24 267.29L897.05 265.45L898.50 264.62L897.75 257.14L865.47 208.04L862.56 202.61L861.27 201.77L858.00 199.74L855.40 198.10L852.97 192.74L851.00 187.06L847.82 187.34L844.54 190.70L835.31 200.15L831.41 204.18L830.32 206.97L828.05 208.57L825.67 209.03L819.85 208.21Z" data-ward="6" /><path id="ward-11" class="ward" d="M384.62 267.01L383.57 266.43L382.59 265.15L381.19 263.99L379.34 262.00L377.83 260.95L376.76 260.14L375.67 259.03L374.17 258.30L372.54 257.87L370.92 257.44L367.88 256.66L365.06 256.14L362.09 255.67L360.85 258.00L359.47 259.36L357.07 260.21L356.03 261.17L354.00 263.51L352.52 264.55L351.44 265.44L350.65 266.99L350.07 268.13L348.94 270.25L347.72 272.53L346.81 274.23L346.19 276.65L345.91 277.89L345.63 279.14L345.03 281.76L345.62 283.15L343.87 288.17L342.35 290.76L339.79 296.13L338.84 301.17L338.55 307.94L337.82 311.39L339.33 315.57L341.58 319.02L344.47 324.74L347.62 329.26L349.44 333.85L350.11 338.56L350.91 342.39L354.38 345.54L360.41 349.83L362.23 351.44L363.02 352.39L364.82 354.37L367.65 355.60L376.16 358.33L377.48 359.48L379.59 361.26L381.23 362.35L383.05 362.80L385.30 363.98L386.80 370.91L386.60 373.27L386.09 375.37L385.65 376.67L384.53 378.71L383.79 379.72L382.12 381.08L379.67 382.34L378.51 382.80L375.85 383.82L374.06 384.24L372.75 384.40L371.49 384.31L370.03 384.01L368.31 383.88L367.49 385.37L368.08 386.55L369.47 388.31L371.28 389.67L372.76 390.17L374.71 390.95L375.30 392.61L375.08 394.02L374.25 396.50L373.92 398.87L374.23 401.12L375.32 403.25L376.65 405.91L376.95 407.67L377.02 409.10L377.04 410.80L377.10 413.51L376.83 414.86L376.12 416.36L375.16 417.90L374.20 418.88L372.88 420.22L371.92 421.20L370.91 422.23L368.77 424.49L367.71 425.76L366.60 427.09L365.72 428.15L363.97 428.34L362.44 428.00L360.20 428.88L359.51 431.09L359.86 434.62L359.98 436.01L362.86 439.07L365.39 443.92L367.96 449.22L369.38 451.65L374.15 455.01L375.20 459.00L380.22 462.56L387.16 466.62L394.42 467.00L400.52 468.22L404.94 472.51L411.48 475.68L417.69 475.46L423.44 474.22L428.69 474.59L434.09 477.98L444.34 481.02L444.54 478.59L446.33 472.07L446.58 468.67L446.81 465.38L449.57 459.97L452.00 456.85L457.20 451.71L462.13 448.68L465.12 445.46L467.87 445.75L470.22 444.77L471.31 442.24L470.83 440.29L470.76 437.66L469.15 435.38L468.04 431.26L466.28 429.54L462.65 428.26L460.21 427.86L458.09 425.86L456.46 423.52L456.49 421.57L457.51 415.96L456.24 413.60L456.46 410.47L459.10 402.37L463.03 394.69L466.72 388.63L468.07 387.30L473.28 383.55L475.33 378.97L476.57 376.73L478.50 373.24L481.32 365.66L482.81 363.42L484.91 360.19L486.98 357.01L486.79 355.35L486.63 352.02L487.38 350.34L490.64 346.80L493.82 345.21L498.64 344.43L512.78 342.66L511.80 340.70L510.78 339.75L509.60 338.64L508.44 337.61L506.58 336.04L504.88 334.60L503.62 333.20L501.95 331.99L500.22 330.70L499.19 329.71L497.74 327.85L496.65 326.10L492.97 325.44L491.40 325.01L489.38 324.45L487.30 323.42L485.55 322.56L482.91 319.85L480.20 318.03L476.66 315.66L473.90 313.94L471.00 311.46L469.95 310.25L467.00 309.20L464.75 309.52L462.24 309.19L459.86 306.43L458.30 304.44L457.44 303.42L455.74 302.36L454.00 301.25L452.44 299.87L451.52 299.04L449.01 296.62L447.96 295.45L446.69 294.36L445.50 293.35L444.46 292.45L443.24 291.67L440.97 290.08L440.04 289.26L437.22 287.65L435.65 286.75L432.87 284.68L431.71 283.44L430.55 282.21L429.32 279.81L428.83 277.65L428.35 275.50L428.51 274.25L428.67 273.00L427.16 272.07L424.98 272.80L422.98 272.96L418.48 273.79L416.70 277.68L415.21 277.08L413.21 276.20L411.22 275.32L404.88 271.71L403.83 268.91L402.29 267.55L400.42 266.70L398.75 266.55L395.42 266.87L393.02 267.00L391.08 267.08L389.45 267.18L387.65 267.31L384.62 267.01Z" data-ward="11" /><path id="ward-4" class="ward" d="M406.73 136.40L405.28 135.95L403.62 135.36L401.88 134.25L400.22 132.71L399.21 131.68L398.72 129.42L398.15 126.57L398.17 123.57L398.32 120.80L398.63 117.66L399.23 114.52L400.04 111.75L400.92 109.06L401.66 106.80L402.62 104.39L402.89 103.23L403.21 101.84L403.29 100.39L403.01 98.33L402.51 96.80L401.57 95.48L400.37 94.33L391.58 90.85L385.76 88.39L382.48 89.17L376.47 91.20L377.71 99.94L377.76 109.60L377.77 111.89L379.49 113.23L384.06 122.22L384.02 129.02L384.00 133.17L382.59 138.10L376.06 141.30L368.67 143.69L362.27 149.03L360.99 150.16L356.18 161.24L348.41 182.57L344.87 192.32L342.44 198.97L348.92 207.60L356.71 218.49L356.19 221.23L355.87 222.88L354.96 227.64L354.06 232.39L353.47 235.99L352.83 240.20L352.39 243.15L351.58 249.15L358.31 253.49L362.09 255.67L365.06 256.14L367.88 256.66L370.92 257.44L372.54 257.87L374.17 258.30L375.67 259.03L376.76 260.14L377.83 260.95L379.34 262.00L381.19 263.99L382.59 265.15L383.57 266.43L384.62 267.01L387.65 267.31L389.45 267.18L391.08 267.08L393.02 267.00L395.42 266.87L398.75 266.55L400.42 266.70L402.29 267.55L403.83 268.91L404.88 271.71L411.22 275.32L413.21 276.20L415.21 277.08L416.70 277.68L418.48 273.79L422.98 272.96L424.98 272.80L427.16 272.07L428.67 273.00L428.51 274.25L428.35 275.50L428.83 277.65L429.32 279.81L430.55 282.21L431.71 283.44L432.87 284.68L435.65 286.75L437.22 287.65L440.04 289.26L440.97 290.08L443.24 291.67L444.46 292.45L445.50 293.35L446.69 294.36L447.96 295.45L449.01 296.62L451.52 299.04L452.44 299.87L454.00 301.25L455.74 302.36L457.44 303.42L458.30 304.44L459.86 306.43L462.24 309.19L464.75 309.52L467.00 309.20L469.95 310.25L471.00 311.46L473.90 313.94L476.66 315.66L480.20 318.03L482.91 319.85L485.55 322.56L487.30 323.42L489.38 324.45L491.40 325.01L492.97 325.44L496.65 326.10L499.21 323.76L506.47 317.18L508.21 311.03L509.04 308.12L510.12 300.19L510.48 290.54L523.88 286.75L528.75 285.82L537.96 285.76L537.69 284.02L534.97 273.80L535.74 262.66L535.29 260.23L537.39 257.05L538.80 253.87L538.87 248.60L535.02 245.58L518.18 238.72L519.66 230.73L510.57 225.80L508.31 225.29L499.43 223.27L491.22 219.39L484.12 221.42L478.47 220.40L475.18 218.94L471.21 216.06L468.40 214.37L464.19 211.72L460.42 210.96L456.16 211.85L452.86 211.80L449.60 208.46L451.75 206.60L456.02 205.00L459.34 203.16L464.32 201.57L464.35 199.68L464.20 192.84L465.67 189.08L468.76 187.24L471.60 186.33L474.23 184.00L473.78 181.87L472.90 177.14L471.29 173.59L463.28 179.36L462.52 180.28L460.62 182.10L459.02 183.40L457.08 183.83L454.22 185.13L451.75 185.05L449.14 184.67L447.05 183.78L445.24 182.82L443.36 181.79L440.97 180.10L438.37 178.33L434.76 174.88L431.08 171.36L427.40 166.74L425.23 164.39L423.58 162.41L422.14 159.19L420.99 156.92L420.57 154.65L420.51 152.32L420.90 147.06L420.99 144.21L421.15 141.56L417.36 135.35L416.02 135.57L414.72 135.71L412.90 136.06L411.16 136.42L408.69 136.63L406.73 136.40Z" data-ward="4" /><path id="ward-9" class="ward" d="M597.63 392.41L596.21 392.17L594.90 391.80L593.04 390.78L591.82 389.98L590.56 388.96L589.27 387.85L588.31 386.94L585.88 384.16L585.07 382.98L583.88 381.27L579.52 378.23L578.22 377.33L575.80 375.34L574.42 373.15L573.91 372.04L572.76 371.10L570.77 369.49L568.98 368.04L567.19 366.59L565.68 365.24L564.75 363.77L564.10 362.74L561.98 360.17L559.51 358.62L557.90 357.73L554.96 355.78L552.28 354.48L549.99 353.02L545.56 348.93L541.89 346.74L538.99 345.67L525.56 344.18L512.78 342.66L498.64 344.43L493.82 345.21L490.64 346.80L487.38 350.34L486.63 352.02L486.79 355.35L486.98 357.01L484.91 360.19L482.81 363.42L481.32 365.66L478.50 373.24L476.57 376.73L475.33 378.97L473.28 383.55L475.16 385.09L476.64 386.18L477.79 387.03L479.06 388.29L480.30 389.64L481.57 391.09L482.59 392.26L483.26 393.32L484.00 394.91L484.14 396.36L485.12 398.69L485.82 400.33L486.32 401.51L487.00 403.11L487.72 404.83L488.81 407.30L491.25 408.27L493.18 408.51L495.25 408.77L497.33 409.03L499.48 409.29L501.88 409.66L503.41 409.90L507.71 409.47L509.89 409.68L511.52 409.89L519.21 411.85L520.94 412.39L523.10 413.53L524.41 414.73L525.73 415.93L528.70 418.78L532.63 421.82L533.99 423.19L535.36 424.57L536.55 425.98L537.74 427.40L539.54 428.52L546.32 429.55L549.81 432.13L553.59 434.99L555.33 436.37L557.07 437.74L560.42 441.43L564.94 443.65L571.54 446.84L573.02 447.96L578.43 452.03L581.24 452.67L582.74 452.42L584.67 452.05L586.43 451.72L589.15 451.77L593.50 452.26L595.80 452.58L598.09 452.90L603.15 453.80L607.87 455.24L612.70 456.80L618.35 459.27L622.40 461.11L625.94 463.56L630.70 466.86L635.12 471.78L636.19 473.51L639.11 477.76L640.67 479.19L644.43 482.71L645.66 485.44L646.74 495.26L647.60 496.67L648.88 497.51L650.73 498.62L656.26 501.94L662.29 505.72L666.38 512.73L667.58 515.94L669.21 520.31L671.37 523.69L673.73 528.10L677.13 532.84L679.84 537.59L682.07 544.74L684.81 550.48L691.49 554.68L695.12 559.76L695.91 565.86L694.68 570.52L694.14 578.03L694.19 582.76L693.27 585.61L692.00 587.41L691.24 588.47L690.23 590.02L689.30 595.45L689.07 596.95L687.76 601.36L695.39 606.53L700.12 610.36L704.87 614.29L706.68 616.05L707.84 617.77L710.11 621.21L710.96 622.12L712.41 623.67L714.16 625.01L718.83 626.05L720.04 626.09L721.85 626.16L727.47 626.27L733.17 625.18L738.02 624.59L741.23 624.05L742.61 623.45L746.66 621.69L748.75 620.78L750.77 619.90L752.41 619.28L754.04 618.66L756.65 617.72L759.27 616.78L761.05 616.14L765.33 614.60L768.85 613.35L775.43 613.15L780.13 616.11L780.93 617.82L781.46 619.55L780.93 624.16L780.31 629.07L779.99 631.57L780.74 632.93L783.38 633.92L785.90 634.85L788.52 635.83L791.09 636.97L793.47 637.96L795.80 638.91L798.10 639.96L800.58 641.09L802.62 640.69L804.48 640.33L807.01 640.33L808.79 636.66L811.69 633.77L814.35 632.03L815.51 631.27L820.96 630.81L823.06 628.60L823.38 627.98L826.08 625.68L827.60 625.06L831.23 623.57L832.40 619.69L832.22 613.53L833.77 609.22L834.76 607.83L833.96 604.89L833.74 600.38L829.80 599.51L828.82 597.46L828.88 591.59L828.97 583.84L829.00 580.66L835.65 567.94L838.27 562.92L839.44 561.11L837.07 559.73L835.82 557.80L833.54 556.01L831.59 554.48L826.70 546.93L824.96 544.25L822.81 540.94L822.25 538.14L820.49 535.60L818.77 533.12L817.20 534.15L816.94 534.07L815.90 532.34L816.97 531.65L818.58 530.89L818.68 529.35L818.92 524.71L818.47 519.84L816.89 519.50L815.38 517.90L813.72 518.64L812.02 519.39L810.72 520.20L809.03 519.93L807.23 519.64L803.65 518.37L803.15 516.76L802.62 515.05L804.58 514.78L806.53 514.51L807.03 513.42L805.90 512.41L804.95 511.55L803.91 510.61L806.13 510.71L807.67 510.78L809.38 510.86L810.92 510.92L811.82 509.15L811.55 506.61L810.66 505.10L808.33 504.15L805.81 503.12L803.88 502.33L803.47 501.06L802.55 498.19L801.17 496.06L799.96 495.20L798.56 493.25L796.80 494.41L796.07 495.73L793.64 497.14L791.88 496.30L791.46 495.03L790.79 492.96L790.32 491.78L789.97 488.07L789.80 486.34L787.66 484.92L786.19 483.36L784.40 481.69L782.83 480.94L781.58 480.95L780.40 481.19L778.04 481.20L770.71 480.41L768.77 480.20L766.70 479.98L764.85 479.78L759.34 477.49L756.50 476.39L751.15 474.32L749.33 472.89L747.07 470.87L745.08 468.97L742.03 465.64L741.21 464.63L740.39 463.62L738.90 462.87L737.26 462.51L733.61 461.99L731.59 461.26L729.34 460.45L727.75 460.28L725.95 459.50L724.13 458.72L721.81 456.13L720.47 454.91L719.93 453.46L718.77 450.40L718.30 449.17L717.64 447.44L716.59 445.66L714.79 444.33L712.07 442.30L709.56 441.36L706.97 440.42L705.04 440.24L703.78 440.53L702.51 440.83L686.87 451.04L684.54 452.65L682.46 453.81L680.42 454.18L678.54 453.24L675.56 451.03L673.62 449.53L672.72 448.73L670.63 445.64L670.06 444.53L665.40 438.90L663.85 437.03L662.87 436.06L661.32 434.71L658.48 433.52L656.93 432.98L655.57 431.78L655.59 430.00L656.44 427.49L656.76 425.89L656.21 424.35L654.02 422.87L652.78 421.90L650.64 420.21L648.51 418.49L647.26 417.80L644.28 417.53L642.85 417.63L641.05 417.42L637.76 416.57L634.79 415.82L633.63 415.26L631.83 414.30L626.67 410.80L620.55 408.92L619.17 407.17L617.77 403.93L617.65 401.90L617.72 399.65L617.59 398.37L616.39 396.44L614.43 394.98L611.87 393.38L610.70 392.49L609.49 391.63L608.00 391.01L606.72 390.94L605.42 391.12L603.55 391.74L602.20 392.13L600.21 392.46L597.63 392.41Z" data-ward="9" /><path id="ward-16" class="ward" d="M262.47 214.57L261.58 215.46L259.24 216.04L257.44 215.76L255.35 215.14L253.64 218.51L252.70 220.68L252.10 221.77L251.73 224.89L250.72 226.90L250.55 228.12L250.02 231.24L249.66 233.93L249.88 235.16L250.52 239.47L249.92 241.96L249.63 244.79L249.70 247.84L249.49 251.40L247.10 255.80L246.76 258.07L247.13 259.99L247.45 261.50L247.93 262.99L249.46 264.91L250.63 266.14L252.10 268.20L252.58 272.21L251.36 273.25L250.37 274.42L249.33 276.41L248.78 277.48L248.17 278.58L247.42 279.93L246.46 281.43L244.64 284.17L243.43 287.34L243.22 290.42L242.76 292.18L242.31 293.93L239.42 296.33L237.77 300.23L236.69 303.25L236.17 304.76L235.00 308.19L234.82 311.60L235.54 314.25L235.46 317.75L235.17 319.73L234.87 322.35L235.18 323.72L236.16 326.13L235.82 329.53L235.56 332.13L234.22 333.59L234.04 335.84L234.68 337.14L236.02 338.65L237.63 340.70L239.90 343.20L240.06 344.80L240.08 346.02L239.80 347.56L240.01 350.11L236.57 351.23L234.86 351.41L233.56 351.50L231.69 353.24L230.77 354.42L229.39 356.44L226.93 359.22L225.09 361.33L223.51 363.52L221.35 364.06L216.00 363.31L213.78 361.50L211.86 358.92L210.40 356.85L208.81 354.91L208.42 352.89L208.36 351.44L207.49 349.56L200.96 345.82L199.41 345.09L197.23 344.30L193.32 343.31L190.95 342.72L189.43 342.52L188.38 337.56L188.00 335.85L187.67 334.44L187.18 332.60L186.35 329.48L188.37 319.99L187.83 313.38L187.59 310.37L187.31 306.91L186.84 305.28L186.41 303.48L185.24 301.44L184.05 299.15L181.73 300.32L180.47 300.74L178.62 301.18L177.32 301.35L174.29 301.57L172.57 301.53L170.60 301.49L168.61 301.69L166.25 301.97L164.83 302.14L163.06 302.01L162.10 304.34L161.21 306.95L160.09 310.23L159.35 312.79L158.94 314.06L158.31 316.05L156.31 317.27L154.15 318.60L151.56 320.43L150.06 321.49L148.48 323.28L147.87 325.54L147.26 327.79L147.74 329.73L148.73 333.67L149.62 338.96L150.12 341.93L150.19 344.77L149.51 347.23L146.95 350.23L145.61 351.30L143.97 352.63L142.15 354.10L139.14 356.17L135.14 359.18L134.28 360.63L134.45 362.33L134.59 363.70L138.04 367.71L141.77 372.52L143.12 374.26L144.61 377.39L145.62 379.34L145.37 383.97L145.27 385.83L144.57 387.62L143.71 389.85L143.12 391.62L142.20 394.42L141.61 396.19L141.21 397.83L142.87 397.89L144.45 396.69L146.42 395.53L148.22 394.94L150.14 394.66L152.88 393.96L154.44 392.85L155.69 391.16L156.65 389.65L157.28 388.62L158.57 387.14L160.59 385.97L163.17 385.71L165.35 386.19L166.66 386.80L167.99 387.51L169.53 388.34L171.93 389.38L173.31 389.78L176.07 390.77L178.63 392.42L180.19 393.72L181.81 395.00L183.46 396.26L185.99 398.04L187.15 398.74L189.52 400.17L191.18 401.17L192.31 401.85L193.73 402.71L195.49 403.77L196.96 404.66L199.15 405.85L200.61 406.63L205.97 410.65L206.83 412.21L208.32 414.79L209.32 416.44L210.43 418.24L211.20 419.69L212.72 421.45L213.73 422.62L214.58 423.58L216.50 425.70L217.96 426.63L219.59 428.12L220.92 429.50L222.53 431.48L223.59 432.24L224.72 432.98L225.86 433.65L227.00 434.34L228.68 435.38L230.90 437.12L233.49 439.41L235.12 440.66L238.55 442.79L240.96 443.59L242.18 443.90L244.17 444.36L244.93 443.28L245.20 442.03L245.47 440.67L245.85 438.55L246.14 435.96L246.23 434.57L246.33 433.01L246.44 431.20L246.75 429.97L247.23 428.31L247.64 426.89L250.26 422.91L252.57 419.76L254.49 417.12L256.23 413.81L258.02 411.04L260.07 408.39L261.66 406.52L262.55 405.45L263.16 404.20L263.75 402.82L264.23 400.91L264.42 399.47L264.59 396.41L264.23 394.29L263.59 390.18L262.86 387.45L263.18 385.49L263.49 383.56L263.89 381.11L264.07 379.66L264.48 377.19L264.96 375.92L265.70 374.60L267.43 372.09L268.76 370.35L270.22 368.44L271.37 367.44L273.12 365.89L276.17 363.96L277.85 362.49L279.32 360.63L280.02 359.02L280.48 357.15L279.98 354.53L278.98 351.15L277.83 349.31L277.35 347.81L277.35 345.50L277.96 344.41L278.56 343.30L279.60 340.89L279.96 338.18L279.80 336.14L279.68 334.67L279.59 333.46L280.38 330.86L281.88 329.42L283.13 329.21L284.48 329.14L285.95 329.13L287.67 329.14L290.33 328.69L292.56 327.97L294.51 326.93L296.55 325.69L297.89 324.87L298.80 323.90L299.56 320.45L299.61 318.64L299.59 317.11L299.39 315.43L299.07 313.73L298.77 311.82L299.58 309.43L301.11 307.10L302.58 302.11L302.52 300.52L302.22 298.62L301.71 295.77L301.27 293.92L298.47 292.53L297.38 291.98L293.96 290.28L291.87 289.24L289.10 287.86L286.68 281.15L286.40 279.97L284.57 276.74L283.49 275.40L281.04 273.93L280.00 272.79L279.99 271.11L280.46 266.55L281.43 257.93L281.83 254.20L282.24 250.00L282.35 247.62L282.40 246.05L282.02 244.83L278.47 239.57L277.66 236.90L277.05 234.33L277.33 233.11L280.82 223.00L279.30 221.84L277.23 221.32L276.26 222.32L274.92 222.64L270.78 222.42L268.09 220.56L266.64 219.46L265.65 218.48L264.62 216.41L262.47 214.57Z" data-ward="16" /><path id="ward-2" class="ward" d="M210.65 118.48L209.99 114.41L209.19 110.79L208.40 109.70L206.32 109.49L205.12 109.47L203.88 109.51L202.47 109.64L197.38 111.22L190.51 112.57L190.31 114.12L190.82 116.44L190.67 119.35L191.55 121.72L194.76 124.21L193.58 125.33L192.56 127.33L189.73 128.53L188.94 126.68L187.11 124.74L186.06 123.42L183.58 122.15L181.42 121.35L178.97 121.73L176.21 124.39L174.21 128.75L175.88 135.06L176.61 137.80L178.62 139.72L179.68 142.41L179.95 144.29L178.80 145.46L180.15 147.43L181.26 148.29L180.59 150.89L178.47 152.11L177.63 153.32L174.90 154.73L173.17 156.80L172.26 158.31L172.09 159.58L172.60 161.65L173.43 165.36L171.95 167.33L172.63 170.10L173.61 172.47L175.09 173.61L176.54 174.69L178.52 176.41L179.24 177.86L180.33 180.14L181.19 183.89L182.99 185.21L184.13 185.84L185.17 188.18L185.79 189.45L185.47 191.03L184.97 193.04L185.01 195.59L183.69 197.38L183.15 198.87L183.30 200.31L183.41 202.03L183.86 204.29L183.45 208.98L183.99 210.88L183.89 212.58L183.90 214.33L183.93 217.41L184.13 219.17L181.26 224.65L179.65 229.05L178.05 233.47L177.16 236.73L172.36 235.91L168.00 243.30L173.79 252.17L174.89 257.08L178.31 258.60L180.45 261.43L180.92 265.74L181.38 267.56L181.51 270.86L182.86 272.02L186.47 275.91L187.11 279.73L188.23 280.71L189.40 281.97L187.87 284.16L185.00 286.59L183.72 288.53L184.77 289.53L186.69 290.91L189.10 291.00L193.65 291.80L191.81 293.18L189.86 294.61L187.24 296.78L186.17 297.56L184.05 299.15L185.24 301.44L186.41 303.48L186.84 305.28L187.31 306.91L187.59 310.37L187.83 313.38L188.37 319.99L186.35 329.48L187.18 332.60L187.67 334.44L188.00 335.85L188.38 337.56L189.43 342.52L190.95 342.72L193.32 343.31L197.23 344.30L199.41 345.09L200.96 345.82L207.49 349.56L208.36 351.44L208.42 352.89L208.81 354.91L210.40 356.85L211.86 358.92L213.78 361.50L216.00 363.31L221.35 364.06L223.51 363.52L225.09 361.33L226.93 359.22L229.39 356.44L230.77 354.42L231.69 353.24L233.56 351.50L234.86 351.41L236.57 351.23L240.01 350.11L239.80 347.56L240.08 346.02L240.06 344.80L239.90 343.20L237.63 340.70L236.02 338.65L234.68 337.14L234.04 335.84L234.22 333.59L235.56 332.13L235.82 329.53L236.16 326.13L235.18 323.72L234.87 322.35L235.17 319.73L235.46 317.75L235.54 314.25L234.82 311.60L235.00 308.19L236.17 304.76L236.69 303.25L237.77 300.23L239.42 296.33L242.31 293.93L242.76 292.18L243.22 290.42L243.43 287.34L244.64 284.17L246.46 281.43L247.42 279.93L248.17 278.58L248.78 277.48L249.33 276.41L250.37 274.42L251.36 273.25L252.58 272.21L252.10 268.20L250.63 266.14L249.46 264.91L247.93 262.99L247.45 261.50L247.13 259.99L246.76 258.07L247.10 255.80L249.49 251.40L249.70 247.84L249.63 244.79L249.92 241.96L250.52 239.47L249.88 235.16L249.66 233.93L250.02 231.24L250.55 228.12L250.72 226.90L251.73 224.89L252.10 221.77L252.70 220.68L253.64 218.51L255.35 215.14L257.44 215.76L259.24 216.04L261.58 215.46L262.47 214.57L264.62 216.41L265.65 218.48L266.64 219.46L268.09 220.56L270.78 222.42L274.92 222.64L276.26 222.32L277.23 221.32L279.30 221.84L280.82 223.00L282.99 225.85L283.36 227.90L283.67 229.62L285.90 231.64L288.21 233.12L291.71 232.60L290.68 226.38L289.67 220.32L290.80 212.38L291.10 210.00L292.09 205.72L292.77 202.66L293.59 198.97L291.96 193.91L290.09 187.79L289.00 185.38L287.15 180.87L284.64 174.74L283.77 172.73L280.06 164.17L277.87 161.81L270.84 154.22L269.98 153.03L263.61 149.27L262.00 148.59L258.97 147.92L255.56 147.50L254.54 148.30L250.79 151.63L249.83 152.66L245.72 159.63L244.20 161.97L240.38 168.03L238.62 170.72L232.20 174.72L228.99 170.96L224.83 163.68L222.86 160.23L220.98 157.01L215.87 149.15L214.54 141.56L212.34 128.97L210.65 118.48Z" data-ward="2" /><path id="ward-1" class="ward" d="M169.95 44.64L167.28 42.68L163.90 39.60L158.87 35.51L153.60 30.62L150.36 27.12L147.71 25.64L142.77 22.06L141.05 21.22L137.76 19.62L134.96 19.21L132.14 18.79L129.44 19.29L127.36 21.63L125.27 26.33L123.31 30.73L121.51 34.78L119.76 38.72L117.86 42.97L116.00 44.37L111.82 45.46L110.00 45.93L104.80 44.53L101.00 43.50L98.72 43.73L93.00 41.50L86.43 38.94L83.26 37.10L81.42 36.97L78.12 35.03L74.59 33.76L69.57 30.46L67.37 29.43L66.31 28.61L61.51 26.61L61.71 31.14L61.77 32.64L61.91 34.96L61.56 36.76L57.30 36.63L55.93 38.19L54.90 39.38L55.61 41.92L56.96 41.90L58.85 44.14L60.46 45.60L61.25 48.15L61.97 50.70L62.89 54.04L60.12 54.90L59.29 55.81L57.68 56.23L58.04 58.39L58.60 61.64L59.40 63.39L60.12 64.63L62.23 66.98L61.90 69.27L62.72 70.98L63.38 74.06L63.53 76.81L63.60 78.28L62.46 79.13L59.69 79.03L57.03 78.77L55.90 80.19L55.27 81.84L55.47 84.44L55.73 87.68L55.91 89.78L57.03 90.25L55.22 93.46L54.10 96.65L53.55 98.20L54.09 99.41L54.31 100.96L55.35 101.71L57.30 103.12L59.72 104.69L60.99 107.39L62.15 109.81L62.91 113.62L63.39 115.99L65.09 116.95L68.65 118.95L70.54 120.01L73.37 119.77L75.60 119.47L77.33 119.30L78.66 118.24L81.88 119.74L82.51 118.18L83.77 115.08L85.29 113.52L89.14 114.99L89.95 117.84L90.68 120.36L88.18 121.31L88.31 122.71L89.19 125.04L92.61 128.76L95.59 132.35L96.53 133.48L98.20 135.76L100.08 137.61L103.98 139.43L106.47 140.34L108.00 140.37L109.76 140.81L112.08 141.36L113.48 141.50L115.91 141.76L117.73 141.20L120.36 142.05L122.18 142.64L123.80 143.49L125.53 144.39L126.83 145.07L129.08 146.53L130.65 147.63L131.84 148.46L132.89 149.20L135.36 151.72L137.39 153.88L138.05 154.99L139.69 157.72L140.76 159.79L142.11 159.72L145.19 161.52L146.97 162.57L148.80 163.65L149.89 164.30L152.06 165.31L152.07 167.27L152.07 168.60L152.08 170.96L152.01 173.33L151.97 174.94L151.86 177.12L151.66 178.37L151.43 179.79L148.94 182.75L146.97 186.55L146.69 189.00L146.52 190.46L146.74 192.48L147.11 195.73L147.32 197.91L147.99 200.58L148.82 204.54L149.62 208.32L150.33 211.87L149.92 213.83L148.61 217.32L148.18 220.40L147.93 222.95L148.04 224.90L148.21 228.31L148.33 230.90L148.51 233.35L148.74 236.50L149.02 240.32L147.79 243.43L147.56 247.14L147.77 249.89L147.90 251.61L148.02 253.25L148.67 255.42L151.82 259.92L153.26 261.74L154.55 263.40L156.05 265.32L157.59 267.71L158.85 270.64L159.53 272.21L160.66 274.89L161.12 276.19L161.57 277.49L162.56 280.29L163.98 284.07L164.85 286.36L165.08 287.62L165.23 289.21L165.38 290.82L165.54 292.45L164.81 295.71L164.08 298.96L163.06 302.01L164.83 302.14L166.25 301.97L168.61 301.69L170.60 301.49L172.57 301.53L174.29 301.57L177.32 301.35L178.62 301.18L180.47 300.74L181.73 300.32L184.05 299.15L186.17 297.56L187.24 296.78L189.86 294.61L191.81 293.18L193.65 291.80L189.10 291.00L186.69 290.91L184.77 289.53L183.72 288.53L185.00 286.59L187.87 284.16L189.40 281.97L188.23 280.71L187.11 279.73L186.47 275.91L182.86 272.02L181.51 270.86L181.38 267.56L180.92 265.74L180.45 261.43L178.31 258.60L174.89 257.08L173.79 252.17L168.00 243.30L172.36 235.91L177.16 236.73L178.05 233.47L179.65 229.05L181.26 224.65L184.13 219.17L183.93 217.41L183.90 214.33L183.89 212.58L183.99 210.88L183.45 208.98L183.86 204.29L183.41 202.03L183.30 200.31L183.15 198.87L183.69 197.38L185.01 195.59L184.97 193.04L185.47 191.03L185.79 189.45L185.17 188.18L184.13 185.84L182.99 185.21L181.19 183.89L180.33 180.14L179.24 177.86L178.52 176.41L176.54 174.69L175.09 173.61L173.61 172.47L172.63 170.10L171.95 167.33L173.43 165.36L172.60 161.65L172.09 159.58L172.26 158.31L173.17 156.80L174.90 154.73L177.63 153.32L178.47 152.11L180.59 150.89L181.26 148.29L180.15 147.43L178.80 145.46L179.95 144.29L179.68 142.41L178.62 139.72L176.61 137.80L175.88 135.06L174.21 128.75L176.21 124.39L178.97 121.73L181.42 121.35L183.58 122.15L186.06 123.42L187.11 124.74L188.94 126.68L189.73 128.53L192.56 127.33L193.58 125.33L194.76 124.21L191.55 121.72L190.67 119.35L190.82 116.44L190.31 114.12L190.51 112.57L197.38 111.22L202.47 109.64L203.88 109.51L205.12 109.47L206.32 109.49L208.40 109.70L206.94 108.22L202.83 104.05L198.07 100.61L195.56 98.64L194.52 97.46L190.00 91.41L189.64 89.98L188.93 87.49L188.59 83.76L188.23 79.77L188.10 78.36L186.25 66.03L185.67 59.11L185.33 57.96L184.37 54.62L180.93 51.45L175.22 47.91L169.95 44.64Z" data-ward="1" /><path id="ward-10" class="ward" d="M501.88 409.66L499.48 409.29L497.33 409.03L495.25 408.77L493.18 408.51L491.25 408.27L488.81 407.30L487.72 404.83L487.00 403.11L486.32 401.51L485.82 400.33L485.12 398.69L484.14 396.36L484.00 394.91L483.26 393.32L482.59 392.26L481.57 391.09L480.30 389.64L479.06 388.29L477.79 387.03L476.64 386.18L475.16 385.09L473.28 383.55L468.07 387.30L466.72 388.63L463.03 394.69L459.10 402.37L456.46 410.47L456.24 413.60L457.51 415.96L456.49 421.57L456.46 423.52L458.09 425.86L460.21 427.86L462.65 428.26L466.28 429.54L468.04 431.26L469.15 435.38L470.76 437.66L470.83 440.29L471.31 442.24L470.22 444.77L467.87 445.75L465.12 445.46L462.13 448.68L457.20 451.71L452.00 456.85L449.57 459.97L446.81 465.38L446.58 468.67L446.33 472.07L444.54 478.59L444.34 481.02L436.48 485.24L434.22 487.12L429.76 484.78L421.41 490.26L421.21 492.05L418.62 492.42L416.72 492.25L416.06 493.85L414.92 496.61L413.33 499.12L413.65 501.78L411.38 502.12L408.45 503.76L408.13 509.10L406.98 512.48L407.59 513.59L409.56 515.32L410.13 515.55L410.83 515.75L411.38 515.69L413.37 514.43L415.18 514.67L416.52 514.84L417.79 515.01L421.17 515.46L424.60 515.92L427.64 516.32L433.41 516.27L436.29 516.25L445.84 518.59L448.98 520.81L451.66 522.28L452.94 522.50L455.04 524.85L457.63 525.46L459.52 525.90L462.56 525.44L464.65 525.57L466.21 525.26L467.43 525.57L471.78 526.67L477.34 527.56L483.91 528.63L489.29 530.37L491.04 530.53L497.42 531.98L497.94 533.08L499.97 534.74L500.76 538.95L505.01 542.81L506.25 544.08L506.26 544.09L508.97 546.93L510.48 548.92L510.53 548.99L511.95 551.17L511.96 551.19L513.44 553.38L515.26 555.88L515.30 555.92L517.10 558.15L520.56 561.05L522.42 560.20L524.30 561.21L526.96 561.92L527.17 562.19L529.14 564.56L534.15 569.78L541.15 574.73L546.13 577.45L547.39 578.53L551.38 581.62L553.29 582.40L554.44 583.29L557.08 584.53L558.88 586.29L562.35 589.67L563.30 590.51L564.46 591.56L566.22 593.04L569.33 594.92L575.56 596.19L575.68 596.26L575.78 596.32L580.41 599.50L583.19 602.98L584.09 604.72L584.13 604.81L585.71 608.43L588.50 612.04L593.01 615.09L599.71 618.47L601.60 619.52L604.13 620.67L605.73 621.40L607.64 622.28L610.87 623.80L613.52 625.05L615.30 625.90L617.62 627.34L619.19 628.31L621.35 631.64L622.17 631.58L623.35 633.35L623.43 633.49L624.16 634.89L625.95 638.94L629.00 644.68L629.09 644.82L629.93 646.15L634.21 651.54L634.44 651.80L634.46 651.82L641.50 659.55L645.18 661.76L645.89 662.88L649.53 668.66L650.07 671.02L650.87 672.89L652.99 677.82L656.18 683.23L656.96 684.31L660.45 689.14L666.25 694.26L669.50 696.32L670.52 697.05L674.00 699.36L677.03 701.38L678.71 702.32L680.51 702.99L682.88 703.76L688.74 705.14L691.15 705.55L697.43 706.96L700.81 707.75L705.53 709.21L706.94 709.64L711.64 711.53L717.50 713.27L719.51 715.21L723.50 717.11L727.73 719.12L731.86 723.17L732.83 724.11L735.70 728.20L735.78 728.29L738.77 732.52L741.06 732.75L743.64 732.97L750.91 733.58L752.78 733.73L755.13 733.33L757.10 730.97L758.03 729.77L760.29 726.15L762.75 722.19L766.26 716.49L767.02 714.30L766.07 710.34L763.89 708.91L764.01 707.19L765.03 704.84L766.19 702.29L766.83 700.88L768.80 696.98L772.74 691.71L778.86 683.53L779.89 680.84L781.60 673.45L784.79 665.97L786.71 664.13L788.49 663.88L789.78 660.50L787.86 660.36L784.99 658.30L782.33 658.21L783.43 655.08L784.97 651.34L785.80 649.33L787.32 648.77L789.42 645.37L791.10 642.66L791.00 640.64L791.09 636.97L788.52 635.83L785.90 634.85L783.38 633.92L780.74 632.93L779.99 631.57L780.31 629.07L780.93 624.16L781.46 619.55L780.93 617.82L780.13 616.11L775.43 613.15L768.85 613.35L765.33 614.60L761.05 616.14L759.27 616.78L756.65 617.72L754.04 618.66L752.41 619.28L750.77 619.90L748.75 620.78L746.66 621.69L742.61 623.45L741.23 624.05L738.02 624.59L733.17 625.18L727.47 626.27L721.85 626.16L720.04 626.09L718.83 626.05L714.16 625.01L712.41 623.67L710.96 622.12L710.11 621.21L707.84 617.77L706.68 616.05L704.87 614.29L700.12 610.36L695.39 606.53L687.76 601.36L689.07 596.95L689.30 595.45L690.23 590.02L691.24 588.47L692.00 587.41L693.27 585.61L694.19 582.76L694.14 578.03L694.68 570.52L695.91 565.86L695.12 559.76L691.49 554.68L684.81 550.48L682.07 544.74L679.84 537.59L677.13 532.84L673.73 528.10L671.37 523.69L669.21 520.31L667.58 515.94L666.38 512.73L662.29 505.72L656.26 501.94L650.73 498.62L648.88 497.51L647.60 496.67L646.74 495.26L645.66 485.44L644.43 482.71L640.67 479.19L639.11 477.76L636.19 473.51L635.12 471.78L630.70 466.86L625.94 463.56L622.40 461.11L618.35 459.27L612.70 456.80L607.87 455.24L603.15 453.80L598.09 452.90L595.80 452.58L593.50 452.26L589.15 451.77L586.43 451.72L584.67 452.05L582.74 452.42L581.24 452.67L578.43 452.03L573.02 447.96L571.54 446.84L564.94 443.65L560.42 441.43L557.07 437.74L555.33 436.37L553.59 434.99L549.81 432.13L546.32 429.55L539.54 428.52L537.74 427.40L536.55 425.98L535.36 424.57L533.99 423.19L532.63 421.82L528.70 418.78L525.73 415.93L524.41 414.73L523.10 413.53L520.94 412.39L519.21 411.85L511.52 409.89L509.89 409.68L507.71 409.47L503.41 409.90L501.88 409.66Z" data-ward="10" /><path id="ward-7" class="ward" d="M935.57 2.29L931.63 0.78L929.75 0.00L926.70 0.03L924.96 0.88L916.80 1.77L911.84 1.96L904.52 2.24L894.89 4.58L891.73 4.33L886.61 6.34L884.69 8.22L882.21 10.63L881.11 12.43L879.35 14.26L878.36 16.72L875.07 15.78L873.09 14.37L871.00 13.37L869.20 13.05L862.84 14.77L856.25 17.68L853.06 19.09L851.97 19.80L850.11 25.12L849.39 27.17L848.06 31.20L844.93 35.27L842.28 38.25L840.69 40.61L838.07 43.78L836.43 47.10L836.13 50.50L836.72 52.81L839.44 54.84L843.45 56.35L844.40 57.29L847.51 58.66L850.43 61.60L853.12 64.32L852.29 66.01L849.68 71.31L848.90 72.90L847.66 73.56L843.45 75.76L836.07 78.39L833.28 79.39L831.50 80.02L829.06 81.81L828.50 85.31L827.64 86.94L828.72 88.54L831.30 92.39L833.63 94.78L834.81 97.32L835.79 100.65L836.05 103.04L836.16 103.41L836.66 105.03L837.06 106.74L837.32 108.23L836.89 109.69L835.60 111.33L833.49 112.00L829.46 112.34L826.73 112.28L823.59 112.22L819.07 112.33L811.49 113.69L808.61 114.75L805.29 116.45L804.02 117.52L804.68 119.33L805.53 121.66L806.65 124.58L807.44 125.65L810.34 129.11L814.16 133.51L816.02 135.34L818.48 137.27L821.71 139.68L823.75 140.96L827.22 143.83L828.59 144.75L830.72 147.06L833.17 152.07L833.62 153.22L835.27 157.50L836.79 164.31L837.94 169.47L837.91 171.62L837.72 173.51L836.91 174.77L835.29 176.38L833.94 177.10L832.01 177.67L830.35 178.43L830.33 178.43L829.05 179.01L825.91 179.71L821.78 179.69L819.01 179.05L816.96 177.32L816.18 176.28L812.25 171.31L811.18 169.95L808.97 166.43L807.40 167.31L796.90 178.15L797.62 183.97L798.39 190.15L809.08 195.98L819.85 208.21L825.67 209.03L828.05 208.57L830.32 206.97L831.41 204.18L835.31 200.15L844.54 190.70L847.82 187.34L851.00 187.06L852.97 192.74L855.40 198.10L858.00 199.74L861.27 201.77L862.56 202.61L865.47 208.04L897.75 257.14L898.50 264.62L897.05 265.45L896.24 267.29L896.11 269.56L897.32 270.10L899.05 270.95L900.40 273.11L899.88 275.25L898.74 279.60L897.62 281.24L898.31 283.11L899.30 284.87L900.58 286.48L901.49 287.77L902.45 290.07L904.93 290.90L911.82 293.22L920.59 300.67L922.10 296.83L924.50 290.73L923.15 284.45L918.96 271.42L913.12 256.77L914.11 249.37L917.09 227.03L918.24 221.85L918.98 218.54L919.81 216.48L921.36 216.34L923.64 213.68L930.29 205.90L936.15 200.05L933.11 197.50L930.44 195.26L932.06 193.82L935.20 191.99L937.12 190.87L939.09 188.15L941.08 185.39L941.96 184.00L943.33 181.81L948.46 174.03L957.53 160.23L959.76 155.48L963.94 150.48L965.04 147.37L965.49 146.12L966.29 143.87L967.70 143.01L968.65 140.80L973.83 130.12L975.61 125.28L977.25 121.50L978.09 119.56L982.07 107.88L989.48 109.32L990.07 109.65L993.82 111.24L995.42 111.34L996.94 110.91L999.36 110.21L999.67 108.22L999.96 106.34L1000.00 102.83L999.40 100.40L998.78 97.89L998.38 96.28L997.82 94.01L997.36 92.13L996.93 90.41L996.20 87.44L995.57 85.98L995.33 83.98L996.24 82.97L997.16 81.94L998.14 81.04L997.45 79.50L994.52 72.90L993.05 69.60L992.37 68.08L990.24 64.43L988.40 63.21L986.19 61.75L982.70 59.45L980.40 57.51L979.71 55.86L978.78 53.63L977.89 51.47L976.69 48.59L975.35 45.36L974.84 44.28L974.32 43.19L972.69 39.76L971.71 37.64L969.57 34.15L968.61 32.80L964.73 25.67L962.45 22.71L960.62 21.66L959.69 18.78L955.58 13.27L952.31 11.40L943.40 6.29L935.57 2.29Z" data-ward="7" /><path id="ward-3" class="ward" d="M331.35 197.08L328.44 194.26L327.87 189.79L330.61 184.15L331.61 182.10L335.37 173.92L336.34 170.78L338.64 163.99L339.83 159.61L338.59 155.64L337.06 153.21L336.29 150.98L330.87 149.84L325.43 149.68L318.61 149.48L313.07 152.25L311.92 154.78L314.98 159.18L318.10 163.66L320.47 167.07L320.54 169.18L319.95 174.57L320.03 175.25L318.84 179.36L317.83 184.51L313.09 196.20L312.50 202.75L311.42 206.72L310.14 210.54L309.98 214.46L308.80 226.25L303.85 234.91L300.70 237.40L297.39 238.39L294.36 235.65L292.74 233.83L291.71 232.60L288.21 233.12L285.90 231.64L283.67 229.62L283.36 227.90L282.99 225.85L280.82 223.00L277.33 233.11L277.05 234.33L277.66 236.90L278.47 239.57L282.02 244.83L282.40 246.05L282.35 247.62L282.24 250.00L281.83 254.20L281.43 257.93L280.46 266.55L279.99 271.11L280.00 272.79L281.04 273.93L283.49 275.40L284.57 276.74L286.40 279.97L286.68 281.15L289.10 287.86L291.87 289.24L293.96 290.28L297.38 291.98L298.47 292.53L301.27 293.92L301.71 295.77L302.22 298.62L302.52 300.52L302.58 302.11L301.11 307.10L299.58 309.43L298.77 311.82L299.07 313.73L299.39 315.43L299.59 317.11L299.61 318.64L299.56 320.45L298.80 323.90L297.89 324.87L296.55 325.69L294.51 326.93L292.56 327.97L290.33 328.69L287.67 329.14L285.95 329.13L284.48 329.14L283.13 329.21L281.88 329.42L280.38 330.86L279.59 333.46L279.68 334.67L279.80 336.14L279.96 338.18L279.60 340.89L278.56 343.30L277.96 344.41L277.35 345.50L277.35 347.81L277.83 349.31L278.98 351.15L279.98 354.53L280.48 357.15L280.02 359.02L279.32 360.63L277.85 362.49L276.17 363.96L273.12 365.89L271.37 367.44L270.22 368.44L268.76 370.35L267.43 372.09L265.70 374.60L264.96 375.92L264.48 377.19L264.07 379.66L263.89 381.11L263.49 383.56L263.18 385.49L262.86 387.45L263.59 390.18L264.23 394.29L264.59 396.41L264.42 399.47L264.23 400.91L263.75 402.82L263.16 404.20L262.55 405.45L261.66 406.52L260.07 408.39L258.02 411.04L256.23 413.81L254.49 417.12L252.57 419.76L250.26 422.91L247.64 426.89L247.23 428.31L246.75 429.97L246.44 431.20L246.33 433.01L246.23 434.57L246.14 435.96L245.85 438.55L245.47 440.67L245.20 442.03L244.93 443.28L244.17 444.36L245.67 445.07L247.26 445.54L250.33 446.38L254.49 447.55L255.56 448.76L259.21 452.85L265.75 463.39L265.80 471.74L265.46 473.50L263.95 479.89L263.61 482.38L264.64 484.25L269.14 485.17L271.17 485.03L272.32 483.37L274.97 477.09L278.76 467.13L279.86 464.62L285.44 459.85L289.43 460.16L295.84 460.67L299.55 461.58L301.42 462.01L304.34 462.54L306.31 462.55L309.59 462.27L317.59 462.62L319.91 462.71L322.70 462.07L324.15 461.05L329.42 459.38L336.36 457.19L340.28 456.43L344.91 455.53L347.15 454.57L348.47 453.64L349.52 452.54L350.84 450.30L351.48 448.85L351.94 447.46L352.14 444.90L352.29 442.46L352.73 441.03L355.34 439.37L357.21 438.42L358.35 437.75L359.98 436.01L359.86 434.62L359.51 431.09L360.20 428.88L362.44 428.00L363.97 428.34L365.72 428.15L366.60 427.09L367.71 425.76L368.77 424.49L370.91 422.23L371.92 421.20L372.88 420.22L374.20 418.88L375.16 417.90L376.12 416.36L376.83 414.86L377.10 413.51L377.04 410.80L377.02 409.10L376.95 407.67L376.65 405.91L375.32 403.25L374.23 401.12L373.92 398.87L374.25 396.50L375.08 394.02L375.30 392.61L374.71 390.95L372.76 390.17L371.28 389.67L369.47 388.31L368.08 386.55L367.49 385.37L368.31 383.88L370.03 384.01L371.49 384.31L372.75 384.40L374.06 384.24L375.85 383.82L378.51 382.80L379.67 382.34L382.12 381.08L383.79 379.72L384.53 378.71L385.65 376.67L386.09 375.37L386.60 373.27L386.80 370.91L385.30 363.98L383.05 362.80L381.23 362.35L379.59 361.26L377.48 359.48L376.16 358.33L367.65 355.60L364.82 354.37L363.02 352.39L362.23 351.44L360.41 349.83L354.38 345.54L350.91 342.39L350.11 338.56L349.44 333.85L347.62 329.26L344.47 324.74L341.58 319.02L339.33 315.57L337.82 311.39L338.55 307.94L338.84 301.17L339.79 296.13L342.35 290.76L343.87 288.17L345.62 283.15L345.03 281.76L345.63 279.14L345.91 277.89L346.19 276.65L346.81 274.23L347.72 272.53L348.94 270.25L350.07 268.13L350.65 266.99L351.44 265.44L352.52 264.55L354.00 263.51L356.03 261.17L357.07 260.21L359.47 259.36L360.85 258.00L362.09 255.67L358.31 253.49L351.58 249.15L352.39 243.15L352.83 240.20L353.47 235.99L354.06 232.39L354.96 227.64L355.87 222.88L356.19 221.23L356.71 218.49L348.92 207.60L342.44 198.97L337.76 199.36L331.35 197.08Z" data-ward="3" /><path id="ward-5" class="ward" d="M506.99 165.84L502.86 164.94L498.22 163.23L493.88 160.58L490.71 157.94L487.67 155.15L485.29 152.80L482.83 151.32L480.01 150.94L476.38 150.93L472.75 151.56L472.22 151.80L470.20 152.72L467.81 155.71L466.91 157.59L466.98 159.13L469.35 163.01L470.96 167.78L471.29 173.59L472.90 177.14L473.78 181.87L474.23 184.00L471.60 186.33L468.76 187.24L465.67 189.08L464.20 192.84L464.35 199.68L464.32 201.57L459.34 203.16L456.02 205.00L451.75 206.60L449.60 208.46L452.86 211.80L456.16 211.85L460.42 210.96L464.19 211.72L468.40 214.37L471.21 216.06L475.18 218.94L478.47 220.40L484.12 221.42L491.22 219.39L499.43 223.27L508.31 225.29L510.57 225.80L519.66 230.73L518.18 238.72L535.02 245.58L538.87 248.60L538.80 253.87L537.39 257.05L535.29 260.23L535.74 262.66L534.97 273.80L537.69 284.02L537.96 285.76L528.75 285.82L523.88 286.75L510.48 290.54L510.12 300.19L509.04 308.12L508.21 311.03L506.47 317.18L499.21 323.76L496.65 326.10L497.74 327.85L499.19 329.71L500.22 330.70L501.95 331.99L503.62 333.20L504.88 334.60L506.58 336.04L508.44 337.61L509.60 338.64L510.78 339.75L511.80 340.70L512.78 342.66L525.56 344.18L538.99 345.67L541.89 346.74L545.56 348.93L549.99 353.02L552.28 354.48L554.96 355.78L557.90 357.73L559.51 358.62L561.98 360.17L564.10 362.74L564.75 363.77L565.68 365.24L567.19 366.59L568.98 368.04L570.77 369.49L572.76 371.10L573.91 372.04L574.42 373.15L575.80 375.34L578.22 377.33L579.52 378.23L583.88 381.27L585.07 382.98L585.88 384.16L588.31 386.94L589.27 387.85L590.56 388.96L591.82 389.98L593.04 390.78L594.90 391.80L596.21 392.17L597.63 392.41L600.21 392.46L602.20 392.13L603.55 391.74L605.42 391.12L606.72 390.94L608.00 391.01L609.49 391.63L610.70 392.49L611.87 393.38L614.43 394.98L616.39 396.44L617.59 398.37L617.72 399.65L617.65 401.90L617.77 403.93L619.17 407.17L620.55 408.92L626.67 410.80L631.83 414.30L633.63 415.26L634.79 415.82L637.76 416.57L641.05 417.42L642.85 417.63L644.28 417.53L647.26 417.80L648.51 418.49L650.64 420.21L652.78 421.90L654.02 422.87L656.21 424.35L656.76 425.89L656.44 427.49L655.59 430.00L655.57 431.78L656.93 432.98L658.48 433.52L661.32 434.71L662.87 436.06L663.85 437.03L665.40 438.90L670.06 444.53L670.63 445.64L672.72 448.73L673.62 449.53L675.56 451.03L678.54 453.24L680.42 454.18L682.46 453.81L684.54 452.65L686.87 451.04L702.51 440.83L702.82 435.08L703.55 430.49L703.86 426.34L704.78 422.74L703.43 419.38L703.00 416.01L702.87 411.44L701.02 407.90L702.55 404.59L705.23 403.20L703.85 400.63L701.15 399.90L697.68 398.10L696.83 396.11L696.95 392.47L697.47 387.36L698.38 383.01L698.01 381.18L697.14 378.47L696.89 375.79L695.78 374.09L693.58 371.86L692.50 369.43L691.25 366.53L691.82 365.25L692.45 363.63L691.24 362.75L688.97 362.70L686.55 363.34L683.46 364.55L680.63 363.69L678.93 361.05L678.02 358.97L677.48 357.74L677.69 353.31L676.31 352.34L675.58 350.35L676.46 348.03L677.67 346.32L675.51 345.13L673.20 343.50L671.70 341.38L670.90 340.03L670.09 338.51L669.16 337.15L668.23 336.09L666.21 334.88L664.26 333.78L662.74 332.67L661.00 330.83L660.00 329.54L659.17 328.55L657.30 327.73L655.45 327.94L653.09 327.55L651.31 326.95L650.28 326.28L648.84 325.24L647.98 324.23L647.47 322.28L647.93 319.78L647.93 317.48L647.71 315.36L647.44 313.98L646.35 312.99L644.33 311.94L643.27 311.19L641.98 310.21L640.85 309.39L639.50 307.76L638.41 306.58L636.68 304.72L635.87 303.72L634.07 302.30L632.72 301.26L631.67 300.39L630.52 299.34L629.29 296.98L628.67 294.78L628.41 293.48L628.10 292.26L627.33 290.83L626.24 288.95L624.80 286.64L623.08 284.75L621.85 282.70L621.34 281.43L620.56 280.17L619.50 279.29L618.28 278.67L617.64 277.51L617.14 275.20L617.16 273.73L617.63 271.46L617.40 268.80L617.33 267.18L617.28 265.97L617.20 264.63L617.15 263.32L616.46 261.04L614.67 259.91L613.49 259.56L612.04 259.23L610.67 258.82L609.45 256.97L609.80 255.58L609.75 254.17L608.71 252.00L608.68 250.73L608.59 249.51L608.30 248.30L607.96 246.07L607.87 244.83L607.45 242.82L607.07 241.57L606.18 240.75L605.05 240.28L603.06 239.67L601.67 238.87L601.20 237.71L601.28 236.40L601.77 235.26L602.38 232.88L602.95 230.48L602.96 228.10L602.77 226.62L602.56 225.23L601.71 223.13L601.19 221.98L600.75 220.77L600.55 219.22L600.35 217.83L599.88 216.49L599.51 215.22L599.63 213.29L600.56 212.53L602.56 211.27L604.39 210.84L605.97 210.48L607.45 208.84L608.14 207.38L610.34 206.97L611.96 207.38L613.05 206.83L612.94 204.13L613.04 202.74L613.20 201.03L613.25 199.54L613.38 197.34L614.66 196.91L613.18 195.40L610.77 193.04L608.46 189.87L605.08 185.80L603.12 183.44L600.98 180.09L599.46 176.43L596.98 174.66L594.21 173.38L591.43 172.92L588.29 173.80L585.96 174.15L583.19 174.05L581.13 173.14L579.61 171.50L578.02 168.79L577.57 168.03L574.09 165.07L572.46 163.69L571.13 163.32L569.33 162.07L566.29 160.16L563.98 158.54L562.10 157.43L559.34 156.76L556.01 156.16L552.46 155.70L548.98 155.25L546.80 154.43L545.07 153.69L543.04 152.95L540.29 152.06L535.79 151.74L533.32 151.66L529.82 151.01L527.16 152.14L524.83 153.08L522.50 154.23L521.07 155.20L519.44 157.57L516.14 163.91L514.17 165.14L510.83 166.07L506.99 165.84Z" data-ward="5" /><path id="ward-8" class="ward" d="M614.78 207.37L613.05 206.83L611.96 207.38L610.34 206.97L608.14 207.38L607.45 208.84L605.97 210.48L604.39 210.84L602.56 211.27L600.56 212.53L599.63 213.29L599.51 215.22L599.88 216.49L600.35 217.83L600.55 219.22L600.75 220.77L601.19 221.98L601.71 223.13L602.56 225.23L602.77 226.62L602.96 228.10L602.95 230.48L602.38 232.88L601.77 235.26L601.28 236.40L601.20 237.71L601.67 238.87L603.06 239.67L605.05 240.28L606.18 240.75L607.07 241.57L607.45 242.82L607.87 244.83L607.96 246.07L608.30 248.30L608.59 249.51L608.68 250.73L608.71 252.00L609.75 254.17L609.80 255.58L609.45 256.97L610.67 258.82L612.04 259.23L613.49 259.56L614.67 259.91L616.46 261.04L617.15 263.32L617.20 264.63L617.28 265.97L617.33 267.18L617.40 268.80L617.63 271.46L617.16 273.73L617.14 275.20L617.64 277.51L618.28 278.67L619.50 279.29L620.56 280.17L621.34 281.43L621.85 282.70L623.08 284.75L624.80 286.64L626.24 288.95L627.33 290.83L628.10 292.26L628.41 293.48L628.67 294.78L629.29 296.98L630.52 299.34L631.67 300.39L632.72 301.26L634.07 302.30L635.87 303.72L636.68 304.72L638.41 306.58L639.50 307.76L640.85 309.39L641.98 310.21L643.27 311.19L644.33 311.94L646.35 312.99L647.44 313.98L647.71 315.36L647.93 317.48L647.93 319.78L647.47 322.28L647.98 324.23L648.84 325.24L650.28 326.28L651.31 326.95L653.09 327.55L655.45 327.94L657.30 327.73L659.17 328.55L660.00 329.54L661.00 330.83L662.74 332.67L664.26 333.78L666.21 334.88L668.23 336.09L669.16 337.15L670.09 338.51L670.90 340.03L671.70 341.38L673.20 343.50L675.51 345.13L677.67 346.32L676.46 348.03L675.58 350.35L676.31 352.34L677.69 353.31L677.48 357.74L678.02 358.97L678.93 361.05L680.63 363.69L683.46 364.55L686.55 363.34L688.97 362.70L691.24 362.75L692.45 363.63L691.82 365.25L691.25 366.53L692.50 369.43L693.58 371.86L695.78 374.09L696.89 375.79L697.14 378.47L698.01 381.18L698.38 383.01L697.47 387.36L696.95 392.47L696.83 396.11L697.68 398.10L701.15 399.90L703.85 400.63L705.23 403.20L702.55 404.59L701.02 407.90L702.87 411.44L703.00 416.01L703.43 419.38L704.78 422.74L703.86 426.34L703.55 430.49L702.82 435.08L702.51 440.83L703.78 440.53L705.04 440.24L706.97 440.42L709.56 441.36L712.07 442.30L714.79 444.33L716.59 445.66L717.64 447.44L718.30 449.17L718.77 450.40L719.93 453.46L720.47 454.91L721.81 456.13L724.13 458.72L725.95 459.50L727.75 460.28L729.34 460.45L731.59 461.26L733.61 461.99L737.26 462.51L738.90 462.87L740.39 463.62L741.21 464.63L742.03 465.64L745.08 468.97L747.07 470.87L749.33 472.89L751.15 474.32L756.50 476.39L759.34 477.49L764.85 479.78L766.70 479.98L768.77 480.20L770.71 480.41L778.04 481.20L780.40 481.19L781.58 480.95L782.83 480.94L784.40 481.69L786.19 483.36L787.66 484.92L789.80 486.34L791.52 484.85L792.83 483.71L795.72 481.84L798.97 479.75L799.80 477.44L799.59 475.28L799.93 474.13L801.38 469.24L803.12 468.58L804.71 467.81L806.48 468.28L807.74 468.61L809.74 468.79L811.14 468.69L813.07 468.56L815.32 468.41L816.99 470.74L819.08 469.89L820.41 469.87L822.34 469.26L825.19 468.35L827.73 466.46L832.49 468.51L833.78 469.07L834.56 470.55L835.25 470.87L836.74 470.03L837.70 468.13L838.84 465.90L839.40 464.81L839.11 461.82L838.98 460.49L838.74 454.10L838.68 452.47L838.64 450.42L838.60 448.30L838.70 447.06L838.81 445.62L839.24 437.82L839.42 434.35L839.55 432.04L839.82 426.95L840.36 422.51L840.64 420.19L841.03 414.90L840.26 412.19L838.83 409.58L838.39 405.77L835.99 405.08L834.81 404.21L833.66 403.36L832.33 402.39L831.01 401.41L829.60 400.37L828.35 399.45L827.37 398.73L826.13 397.83L824.28 397.11L822.27 396.33L820.11 395.36L818.92 394.27L817.24 392.63L815.52 391.65L813.65 391.53L810.43 390.72L809.48 389.97L808.90 388.28L808.41 386.83L807.54 384.28L807.08 382.94L806.66 381.72L806.10 380.06L805.49 378.29L805.04 376.95L804.59 375.64L804.11 374.23L803.19 372.19L802.16 367.29L801.89 365.55L801.07 363.76L800.48 362.48L799.88 361.19L799.08 359.47L797.94 354.30L800.68 348.91L800.33 346.01L798.83 345.18L797.74 344.57L796.20 343.72L795.03 343.08L793.81 343.79L792.83 344.52L791.60 345.42L790.36 346.35L789.11 347.27L787.84 348.21L786.57 349.15L785.45 349.97L783.61 351.34L781.58 351.24L780.08 350.75L778.39 350.19L777.24 349.83L775.48 349.28L774.04 348.83L772.83 348.46L771.36 347.59L770.30 346.72L767.20 333.65L765.35 330.87L764.52 329.64L761.88 327.75L759.44 326.12L758.17 325.71L756.09 325.08L754.71 324.66L751.55 323.70L749.89 323.11L748.12 322.20L747.27 321.00L745.91 319.09L744.76 317.46L743.73 316.01L742.43 314.18L741.15 312.38L740.05 310.83L739.21 309.64L737.98 308.03L736.70 307.58L734.86 306.97L732.87 306.30L730.93 305.65L729.42 305.11L727.81 304.52L725.97 303.84L724.28 303.70L723.04 303.61L721.40 303.48L719.47 303.33L717.96 303.21L714.45 301.41L712.39 300.34L711.11 298.29L709.44 295.37L708.40 293.55L707.52 292.01L706.66 290.51L705.98 289.34L705.11 287.80L703.61 285.19L702.83 283.83L702.09 282.54L701.40 281.33L700.82 280.03L700.39 278.66L699.86 276.98L699.49 275.84L698.93 274.09L698.48 272.68L697.96 271.03L697.54 269.71L697.13 268.42L698.14 254.35L697.59 253.05L697.01 251.73L696.42 250.39L694.88 248.70L693.76 247.48L692.21 245.80L690.77 244.23L689.61 242.97L688.16 241.39L686.71 239.82L685.53 238.54L684.48 237.40L682.77 235.57L680.78 234.49L678.95 233.51L677.63 232.81L674.25 231.00L673.19 230.44L672.12 229.86L670.91 229.22L669.34 228.42L666.25 227.76L664.22 227.39L661.85 226.96L660.07 226.64L658.10 226.10L655.86 225.50L652.79 224.69L651.45 224.37L647.61 223.45L644.11 222.62L642.62 222.27L638.93 221.70L636.79 221.41L634.80 221.14L633.10 220.91L631.80 220.73L629.93 219.92L627.70 218.96L625.89 218.17L624.18 217.43L622.34 215.72L621.66 213.02L621.33 211.17L618.72 208.60L616.38 207.87L614.78 207.37Z" data-ward="8" /><path id="ward-12" class="ward" d="M380.22 462.56L375.20 459.00L374.15 455.01L369.38 451.65L367.96 449.22L365.39 443.92L362.86 439.07L359.98 436.01L358.35 437.75L357.21 438.42L355.34 439.37L352.73 441.03L352.29 442.46L352.14 444.90L351.94 447.46L351.48 448.85L350.84 450.30L349.52 452.54L348.47 453.64L347.15 454.57L344.91 455.53L340.28 456.43L336.36 457.19L329.42 459.38L324.15 461.05L322.70 462.07L319.91 462.71L317.59 462.62L309.59 462.27L306.31 462.55L304.34 462.54L301.42 462.01L299.55 461.58L295.84 460.67L289.43 460.16L285.44 459.85L279.86 464.62L278.76 467.13L274.97 477.09L272.32 483.37L271.17 485.03L269.14 485.17L264.64 484.25L263.61 482.38L263.95 479.89L265.46 473.50L265.80 471.74L265.75 463.39L259.21 452.85L255.56 448.76L254.49 447.55L250.33 446.38L247.26 445.54L245.67 445.07L244.17 444.36L242.18 443.90L240.96 443.59L240.40 446.08L239.88 448.97L239.13 451.92L238.04 455.13L237.29 458.08L235.96 461.12L232.16 468.51L228.15 469.95L224.28 470.92L221.96 470.14L219.06 469.03L216.99 468.20L214.32 466.77L212.83 465.67L210.40 463.91L208.57 462.26L206.18 460.74L204.18 459.21L202.66 459.91L200.51 460.70L197.21 461.79L196.91 463.25L197.46 465.87L198.20 468.01L199.16 473.97L188.39 470.01L185.74 468.82L184.47 468.25L179.14 476.48L178.12 478.32L172.34 488.78L168.09 494.23L166.80 496.39L162.24 504.04L163.74 506.66L165.98 506.64L167.98 506.71L170.47 507.07L172.59 508.05L173.27 510.29L173.54 513.46L173.62 515.87L178.71 514.72L181.87 514.03L186.92 513.23L190.61 513.56L194.93 515.03L198.95 516.20L200.72 516.21L202.37 515.47L204.19 515.04L205.52 515.23L207.39 515.47L208.94 516.38L210.20 517.71L210.54 520.06L210.62 521.73L211.71 523.67L213.28 525.18L215.98 526.62L218.18 527.66L223.02 529.38L224.13 532.00L227.53 533.73L231.42 534.18L233.32 534.20L235.35 534.52L237.58 535.36L239.55 536.52L241.70 537.10L241.51 539.58L238.47 544.69L237.08 546.56L236.32 547.87L235.64 549.15L235.59 551.54L236.68 553.60L237.35 556.52L236.80 558.28L238.17 559.91L240.88 563.13L241.46 564.68L243.76 570.78L245.18 572.51L249.47 577.76L255.26 585.65L268.40 584.34L274.25 584.92L283.21 586.85L287.67 588.42L296.32 593.86L303.30 597.28L309.39 601.37L317.27 597.83L319.77 597.18L335.07 589.98L336.94 587.38L338.30 585.85L339.74 584.08L340.81 582.76L340.86 582.70L342.95 580.30L343.25 579.90L344.55 578.17L344.65 578.04L346.16 576.28L346.93 575.37L350.88 571.59L350.98 571.49L351.44 570.99L356.23 565.46L356.39 565.25L356.45 565.17L360.69 559.48L360.78 559.36L361.89 557.61L361.90 557.60L362.46 556.73L363.57 555.24L364.52 553.77L365.23 552.95L366.74 550.57L368.71 550.45L368.86 550.44L369.00 550.29L369.91 548.77L371.48 548.38L372.71 547.46L375.57 544.96L378.51 542.29L383.22 537.29L387.18 534.88L390.59 528.07L392.81 523.64L394.79 519.67L398.85 516.80L402.21 514.42L404.22 513.75L404.83 513.67L406.66 513.20L407.59 513.59L406.98 512.48L408.13 509.10L408.45 503.76L411.38 502.12L413.65 501.78L413.33 499.12L414.92 496.61L416.06 493.85L416.72 492.25L418.62 492.42L421.21 492.05L421.41 490.26L429.76 484.78L434.22 487.12L436.48 485.24L444.34 481.02L434.09 477.98L428.69 474.59L423.44 474.22L417.69 475.46L411.48 475.68L404.94 472.51L400.52 468.22L394.42 467.00L387.16 466.62L380.22 462.56Z" data-ward="12" /><path id="ward-13" class="ward" d="M240.40 446.08L240.96 443.59L238.55 442.79L235.12 440.66L233.49 439.41L230.90 437.12L228.68 435.38L227.00 434.34L225.86 433.65L224.72 432.98L223.59 432.24L222.53 431.48L220.92 429.50L219.59 428.12L218.45 429.51L214.51 434.68L213.18 436.43L206.84 443.29L205.90 444.30L203.92 446.38L201.92 445.03L199.54 443.97L196.77 443.04L193.10 442.16L190.08 441.25L186.71 441.40L183.32 441.15L180.18 440.51L178.27 439.54L175.95 439.52L175.08 442.73L172.78 442.90L168.62 443.44L166.58 448.50L164.75 446.93L162.25 444.56L159.48 441.93L148.58 441.75L137.69 441.64L130.42 445.72L116.37 444.30L113.26 448.65L110.31 452.76L104.73 457.12L102.99 458.47L99.41 461.27L100.49 470.49L101.53 479.37L102.13 484.47L103.66 489.89L106.06 498.41L108.33 506.50L108.70 507.92L110.30 514.05L112.22 521.40L112.78 523.53L112.11 533.08L106.68 530.03L104.86 529.56L103.72 532.63L100.48 541.41L97.30 543.97L91.85 548.36L87.98 548.97L86.53 549.19L84.97 549.44L54.92 543.11L54.18 548.15L57.98 550.16L59.63 551.02L67.58 553.29L82.16 556.41L83.20 561.85L83.73 564.60L84.05 566.04L85.23 566.34L86.90 565.67L90.37 566.23L101.43 568.08L105.43 569.31L109.70 570.62L111.32 573.17L113.84 577.12L114.07 580.68L114.96 594.61L115.26 608.12L115.32 610.84L115.16 612.29L114.73 616.57L114.54 619.70L114.35 622.83L114.32 624.32L113.86 626.93L113.64 628.22L113.27 630.35L110.06 633.05L107.48 635.25L109.43 639.60L113.57 639.03L119.27 638.24L123.19 636.44L127.48 636.61L135.38 634.14L137.78 631.85L147.12 629.65L148.67 629.58L151.68 629.44L156.44 626.73L158.38 624.95L158.41 624.93L161.83 622.22L162.34 620.25L163.56 618.66L164.34 617.65L165.15 616.58L166.74 614.47L167.93 612.53L174.02 602.55L174.28 601.35L180.23 583.32L187.67 571.69L190.06 568.73L190.17 568.61L191.78 566.99L192.86 565.67L192.91 565.62L195.69 562.48L195.72 562.45L201.18 556.62L201.31 556.56L201.66 556.43L207.36 554.90L209.70 554.65L212.07 554.40L215.19 554.07L221.16 553.44L222.69 553.80L224.17 554.16L225.71 554.52L230.75 556.23L233.47 557.15L236.80 558.28L237.35 556.52L236.68 553.60L235.59 551.54L235.64 549.15L236.32 547.87L237.08 546.56L238.47 544.69L241.51 539.58L241.70 537.10L239.55 536.52L237.58 535.36L235.35 534.52L233.32 534.20L231.42 534.18L227.53 533.73L224.13 532.00L223.02 529.38L218.18 527.66L215.98 526.62L213.28 525.18L211.71 523.67L210.62 521.73L210.54 520.06L210.20 517.71L208.94 516.38L207.39 515.47L205.52 515.23L204.19 515.04L202.37 515.47L200.72 516.21L198.95 516.20L194.93 515.03L190.61 513.56L186.92 513.23L181.87 514.03L178.71 514.72L173.62 515.87L173.54 513.46L173.27 510.29L172.59 508.05L170.47 507.07L167.98 506.71L165.98 506.64L163.74 506.66L162.24 504.04L166.80 496.39L168.09 494.23L172.34 488.78L178.12 478.32L179.14 476.48L184.47 468.25L185.74 468.82L188.39 470.01L199.16 473.97L198.20 468.01L197.46 465.87L196.91 463.25L197.21 461.79L200.51 460.70L202.66 459.91L204.18 459.21L206.18 460.74L208.57 462.26L210.40 463.91L212.83 465.67L214.32 466.77L216.99 468.20L219.06 469.03L221.96 470.14L224.28 470.92L228.15 469.95L232.16 468.51L235.96 461.12L237.29 458.08L238.04 455.13L239.13 451.92L239.88 448.97L240.40 446.08Z" data-ward="13" /></svg>