<svg viewBox="0 0 1000.00 1139.19" xmlns="http://www.w3.org/2000/svg"><style>.ward { fill: #e2e8f0; stroke: #fff; stroke-width: 0.5px; } .ward:hover { fill: #cbd5e1; }</style><path id="ward-6" class="ward" d="M819.36 277.73L809.87 275.73L809.65 271.87L809.42 267.94L798.27 264.47L799.21 260.79L800.23 255.90L800.66 251.07L803.43 235.26L804.41 230.82L806.46 221.53L807.25 216.09L808.29 208.92L808.71 201.09L809.08 194.10L809.45 187.18L804.45 186.11L800.51 185.26L796.49 185.02L792.43 184.78L789.07 184.59L781.92 184.17L763.90 180.42L761.14 178.84L758.29 177.79L752.02 175.47L746.68 173.50L743.84 172.23L740.77 170.85L726.46 164.43L718.97 163.31L715.29 162.76L711.62 162.22L704.14 161.10L695.51 168.00L694.25 182.89L693.80 188.16L693.45 192.24L692.60 201.65L692.33 204.66L691.35 215.58L688.38 236.74L686.76 240.85L682.42 243.62L674.25 246.97L668.74 249.12L656.03 254.09L619.73 271.01L622.21 277.55L623.64 281.33L621.69 289.27L624.30 290.73L626.00 294.97L628.19 300.43L642.64 336.52L652.08 364.87L655.26 374.91L656.73 379.57L659.05 386.90L655.87 389.01L651.49 390.09L644.72 400.45L641.78 400.88L636.09 401.51L629.48 401.29L624.20 401.24L616.84 401.19L611.44 401.23L606.44 401.51L604.53 406.74L603.73 411.69L603.03 415.84L610.98 421.77L630.92 431.15L634.81 437.02L635.55 444.99L634.50 450.41L638.37 454.35L642.61 456.28L651.71 457.39L661.40 460.56L667.88 463.73L670.99 465.43L675.32 468.17L680.71 473.07L685.93 476.36L690.89 478.40L693.98 482.39L697.35 485.84L703.47 485.30L708.01 484.98L719.41 485.89L731.94 487.35L743.67 488.59L755.40 488.53L769.64 487.13L782.54 486.22L790.65 485.93L792.13 483.31L794.21 480.07L794.80 474.96L795.23 471.88L795.97 468.76L796.31 462.97L796.90 458.73L797.37 455.63L797.68 450.71L798.42 447.74L800.18 444.94L802.56 441.73L804.56 438.10L805.72 434.96L807.43 429.48L808.07 426.62L807.81 422.63L807.97 418.91L808.29 414.44L808.66 411.15L809.51 404.51L810.11 400.68L810.05 397.20L810.26 393.75L810.74 390.09L812.29 383.57L813.78 379.85L814.95 374.67L816.60 369.34L818.15 366.59L819.38 363.68L820.54 360.97L822.57 355.49L824.92 349.67L826.68 346.76L827.48 343.64L834.69 327.42L835.53 321.92L836.22 317.93L837.84 311.85L837.80 308.07L837.70 298.59L837.49 288.33L837.86 277.56L838.04 272.89L832.57 271.09L827.03 269.27L822.59 278.27L819.36 277.73Z" data-ward="6" /><path id="ward-2" class="ward" d="M701.18 144.98L701.21 144.75L701.51 142.05L701.80 139.50L702.17 136.77L702.17 136.72L702.50 134.06L704.44 125.65L704.49 120.00L704.53 115.21L704.56 111.61L702.08 105.92L699.06 99.01L697.77 96.07L692.85 84.79L690.71 79.91L683.58 78.31L679.87 77.48L676.26 76.67L672.47 75.82L665.18 74.18L657.16 72.39L652.48 71.34L642.50 69.10L637.57 67.99L633.97 67.19L622.12 65.41L616.87 64.33L604.85 63.82L600.67 63.65L597.55 63.51L594.39 63.38L590.03 63.19L579.07 62.73L573.97 62.51L565.76 62.17L555.19 61.44L551.47 61.19L546.29 60.79L541.70 60.43L538.22 60.17L532.99 59.76L527.75 59.36L522.51 58.96L516.12 58.46L513.89 86.33L513.84 91.34L511.71 97.75L506.86 99.21L505.31 105.40L502.38 109.07L500.17 111.67L497.21 116.21L496.62 119.58L494.91 125.50L492.62 132.13L490.86 140.43L486.92 146.90L480.89 145.66L477.57 143.54L474.92 139.24L471.62 139.08L467.61 138.63L463.99 138.65L457.69 141.09L456.74 147.42L457.92 150.27L458.71 153.79L457.81 158.91L456.84 163.42L454.74 167.04L448.52 165.31L442.77 163.82L438.84 163.42L432.57 162.57L430.23 167.52L429.22 172.27L428.22 175.78L427.21 179.12L427.59 184.60L429.54 187.53L436.04 190.81L432.91 192.70L429.31 191.75L423.69 190.19L418.33 187.60L414.57 185.28L412.80 181.32L411.68 175.74L410.41 170.12L410.00 165.18L409.88 161.39L409.75 155.06L409.73 150.02L409.99 144.96L410.43 139.20L411.64 130.91L411.69 124.26L410.95 120.65L408.27 115.67L405.51 112.60L402.20 108.91L397.25 104.38L393.19 102.66L390.37 110.20L388.72 116.72L387.92 121.25L387.17 128.20L387.12 132.94L387.71 137.65L388.86 144.53L390.10 148.03L393.30 152.72L393.94 156.27L392.43 163.79L389.94 169.04L388.74 174.29L388.13 177.40L383.22 192.75L383.01 202.45L384.71 208.93L385.03 212.25L385.60 219.58L386.59 235.60L392.14 236.91L434.27 246.48L432.65 254.65L431.31 258.88L431.41 263.66L432.93 273.31L434.64 276.61L439.37 284.50L447.59 294.87L450.47 299.69L453.69 305.10L454.16 312.24L452.67 318.94L451.60 323.30L453.55 329.22L455.98 335.91L457.40 341.75L462.99 350.36L465.28 353.89L468.65 365.90L472.55 396.45L481.64 396.72L490.74 396.99L494.19 385.77L494.96 382.68L497.21 367.07L498.22 361.34L497.27 354.85L496.95 351.70L493.15 342.75L491.64 339.12L492.46 319.76L494.93 312.76L495.81 307.53L497.42 296.00L497.79 281.58L497.33 278.03L495.71 265.61L508.46 265.50L515.48 267.09L529.51 270.26L532.56 270.95L535.67 271.63L554.59 275.74L575.47 280.28L589.69 283.37L614.71 288.07L621.69 289.27L623.64 281.33L622.21 277.55L619.73 271.01L656.03 254.09L668.74 249.12L674.25 246.97L682.42 243.62L686.76 240.85L688.38 236.74L691.35 215.58L692.33 204.66L692.60 201.65L693.45 192.24L693.80 188.16L694.25 182.89L695.51 168.00L704.14 161.10L699.81 155.99L699.99 153.97L700.42 150.29L700.77 147.72L701.18 144.98Z" data-ward="2" /><path id="ward-10" class="ward" d="M764.62 821.27L763.92 817.28L763.07 813.13L762.00 809.12L761.33 806.17L760.41 802.13L759.42 797.59L758.74 794.53L757.02 784.68L756.00 780.07L755.09 775.86L753.12 769.21L751.55 763.76L750.17 758.68L749.54 755.03L748.02 747.47L746.93 743.14L745.85 738.80L743.32 729.58L741.32 722.06L740.39 716.66L738.96 707.62L737.72 699.82L735.73 691.32L734.60 685.21L732.93 676.71L731.99 672.24L730.77 666.45L730.10 663.26L728.36 655.26L727.75 651.80L725.26 637.86L723.96 628.09L723.14 621.02L722.51 615.53L721.40 608.25L719.73 604.62L710.12 602.26L690.11 598.20L685.66 596.92L675.72 593.32L671.71 590.63L667.85 586.19L663.15 583.67L658.37 581.33L658.89 573.94L652.77 581.27L649.68 584.07L646.74 587.73L644.34 592.37L641.25 595.65L640.29 598.83L639.49 603.20L639.01 606.32L637.79 611.06L637.09 614.62L636.19 618.61L635.49 627.70L634.89 631.82L633.69 641.15L632.77 646.63L632.56 652.82L633.77 661.55L634.48 665.47L634.37 669.26L633.13 674.48L632.03 679.28L631.66 682.47L630.64 688.25L628.36 697.47L627.18 701.70L627.07 707.46L627.50 710.64L628.35 714.41L627.66 721.80L627.39 725.68L627.28 733.54L628.03 738.18L628.67 745.99L628.14 749.92L626.86 753.91L625.65 759.88L625.47 768.19L626.11 774.39L626.27 780.10L627.12 786.08L627.92 790.71L628.88 797.13L629.52 800.14L630.22 803.27L630.75 808.82L629.68 815.07L628.87 818.11L627.76 821.27L619.15 822.78L587.05 819.70L576.32 818.67L577.63 823.12L576.37 826.22L576.21 830.64L575.36 834.36L574.44 837.29L572.77 842.58L571.24 845.27L569.92 848.64L567.52 852.57L563.84 852.49L558.03 851.11L549.93 848.96L544.58 847.73L540.81 846.87L535.46 845.15L532.51 844.53L528.44 843.20L521.91 841.91L521.24 846.92L520.51 850.04L519.84 853.61L518.94 857.01L518.09 860.73L517.36 864.75L516.30 868.46L515.44 871.61L515.30 875.48L514.02 879.99L513.34 882.93L513.00 885.86L512.02 891.32L511.75 894.98L511.52 899.01L510.65 903.27L510.00 906.62L508.56 909.64L504.13 913.52L500.56 918.64L497.89 925.59L497.20 929.84L495.60 932.91L494.27 935.99L492.24 941.80L490.06 946.44L487.12 951.56L485.47 955.44L485.27 959.89L491.32 961.52L497.32 963.13L500.63 967.43L499.35 972.47L495.93 973.29L494.25 979.96L503.85 983.39L506.80 1007.96L506.93 1011.15L513.31 1016.38L523.16 1016.39L529.10 1016.40L534.98 1016.41L536.34 1021.00L534.37 1025.85L532.42 1030.67L531.39 1033.64L528.87 1040.86L532.26 1041.38L535.89 1043.60L535.90 1043.60L541.35 1042.78L543.21 1040.14L546.95 1034.82L549.06 1032.28L565.56 1034.32L582.15 1039.45L582.67 1049.38L583.13 1058.11L582.95 1061.03L585.84 1061.94L590.85 1063.51L595.16 1064.85L598.03 1065.75L601.49 1066.84L606.58 1071.50L607.65 1075.55L610.43 1077.42L626.31 1080.50L632.45 1094.13L637.74 1092.38L646.83 1089.36L647.99 1084.34L650.87 1079.76L653.00 1076.37L655.72 1070.76L658.28 1063.22L661.37 1054.81L663.77 1048.40L665.16 1043.22L666.94 1034.69L667.78 1030.16L668.78 1024.64L670.43 1019.04L671.93 1013.65L672.94 1009.12L668.04 1006.37L663.77 1005.19L659.19 1003.52L655.44 1001.82L652.26 998.51L651.30 994.84L646.78 992.47L640.99 990.31L633.28 986.92L629.12 985.68L625.07 984.60L621.44 983.26L618.43 982.99L615.95 978.64L617.34 973.07L619.15 965.36L620.37 959.71L620.59 956.69L621.92 951.09L622.56 948.12L623.68 942.52L624.37 939.50L625.65 936.76L628.90 930.45L632.43 924.62L634.29 921.78L635.73 915.36L635.30 907.17L634.13 902.00L634.93 897.80L636.10 894.30L637.97 890.04L641.75 883.14L641.47 879.48L644.01 876.50L643.33 873.39L643.59 868.27L645.13 862.68L646.53 856.60L647.64 853.84L649.00 850.96L650.80 846.30L651.91 842.54L654.06 836.07L659.77 835.89L667.24 838.26L674.70 840.30L678.27 840.90L683.23 840.79L688.77 840.03L696.25 839.48L707.43 839.98L711.86 840.52L717.88 842.73L731.18 845.87L735.73 845.86L751.10 844.40L760.11 843.43L764.96 843.11L770.59 841.26L769.15 836.73L767.98 833.01L766.84 829.76L765.63 825.25L764.62 821.27Z" data-ward="10" /><path id="ward-4" class="ward" d="M500.96 440.05L499.85 431.85L495.54 423.40L491.41 420.83L483.90 416.20L479.68 410.36L475.75 405.10L474.60 402.22L472.55 396.45L465.37 395.57L462.13 395.15L450.37 394.19L442.56 393.32L415.23 390.91L400.12 387.04L393.51 385.34L390.01 384.61L384.41 383.74L381.27 383.20L378.24 382.72L364.93 380.57L354.65 380.06L331.09 401.37L319.77 410.56L313.17 415.03L308.64 418.81L306.23 421.49L301.55 425.43L297.60 429.64L293.64 434.00L290.28 437.87L288.46 441.25L287.42 445.70L287.69 454.80L288.75 461.97L289.87 467.36L292.86 471.56L295.10 473.77L295.36 480.29L294.74 483.21L292.97 489.67L291.47 495.00L289.87 500.23L287.25 507.76L287.43 511.33L287.47 514.83L288.59 519.52L289.34 522.75L289.98 526.36L290.56 531.16L291.95 546.14L291.90 550.72L292.09 554.14L293.18 558.85L294.46 563.70L294.56 568.45L294.46 573.73L292.84 578.44L288.93 579.57L285.87 585.15L285.00 589.17L283.90 595.66L283.99 598.64L284.15 601.72L285.47 605.66L286.95 611.25L293.29 612.65L297.08 613.62L300.49 614.86L305.71 616.15L309.13 617.07L312.38 618.04L317.87 620.08L321.33 621.75L325.65 623.21L329.54 624.18L332.42 625.20L336.42 626.44L341.76 628.35L344.53 629.41L348.52 630.97L351.30 632.48L354.83 633.88L359.93 636.63L363.16 639.08L366.06 640.99L369.53 643.04L374.33 645.41L377.76 647.51L380.56 649.23L385.20 651.28L388.88 652.31L391.81 653.28L395.07 654.68L398.05 656.56L401.89 658.13L404.82 659.31L407.75 660.39L412.05 661.74L413.25 652.92L415.63 644.75L419.13 625.41L423.98 601.32L430.91 573.09L434.73 553.90L453.49 558.58L470.57 557.88L498.58 558.44L505.81 544.92L509.73 540.75L511.74 538.58L514.06 535.73L522.72 525.73L523.74 521.35L518.51 518.16L512.59 514.56L499.20 504.46L494.35 502.15L490.47 499.40L486.16 496.33L439.84 496.81L424.59 490.86L420.76 490.37L416.38 489.18L408.94 486.03L405.35 484.06L402.04 482.39L398.49 480.62L393.09 476.68L389.73 475.05L382.49 471.73L377.24 468.89L376.91 465.43L378.72 455.11L381.10 450.07L385.54 445.15L388.99 443.86L395.41 445.11L399.99 446.34L404.02 448.35L408.07 450.38L412.27 452.04L431.21 459.49L435.59 459.86L445.17 460.68L456.05 460.84L473.86 461.54L486.38 461.86L491.98 461.00L495.34 460.41L500.41 456.10L500.90 449.69L501.16 446.31L500.96 440.05Z" data-ward="4" /><path id="ward-7" class="ward" d="M989.17 589.79L990.92 573.39L1000.00 478.57L969.24 475.65L970.67 466.28L971.48 460.99L972.69 453.05L973.60 447.09L974.52 441.11L975.93 431.91L976.89 425.63L975.13 420.43L978.26 413.36L978.69 407.35L979.31 398.62L979.81 391.61L980.37 383.82L981.20 372.12L981.64 365.97L982.03 360.44L982.41 355.09L982.69 351.18L982.99 346.96L983.35 341.92L983.67 337.55L984.20 330.07L985.01 318.74L985.29 314.74L984.64 307.88L981.67 305.05L926.42 305.17L915.70 305.71L905.97 306.21L898.61 306.58L892.40 306.90L880.20 307.52L868.92 308.09L863.22 308.38L859.32 308.58L854.73 308.81L849.72 309.07L845.83 309.98L837.84 311.85L836.22 317.93L835.53 321.92L834.69 327.42L827.48 343.64L826.68 346.76L824.92 349.67L822.57 355.49L820.54 360.97L819.38 363.68L818.15 366.59L816.60 369.34L814.95 374.67L813.78 379.85L812.29 383.57L810.74 390.09L810.26 393.75L810.05 397.20L810.11 400.68L809.51 404.51L808.66 411.15L808.29 414.44L807.97 418.91L807.81 422.63L808.07 426.62L807.43 429.48L805.72 434.96L804.56 438.10L802.56 441.73L800.18 444.94L798.42 447.74L797.68 450.71L797.37 455.63L796.90 458.73L796.31 462.97L795.97 468.76L795.23 471.88L794.80 474.96L794.21 480.07L792.13 483.31L790.65 485.93L789.25 502.92L790.84 511.65L791.28 518.36L791.72 523.23L792.03 526.31L792.56 535.36L792.72 543.77L792.35 548.99L791.49 558.37L789.09 570.01L788.03 575.45L787.39 584.02L787.01 588.61L786.59 593.66L787.12 599.16L791.12 600.88L794.64 600.40L803.87 599.21L807.54 598.84L813.89 598.35L821.86 599.92L823.59 604.28L822.42 607.57L818.52 609.24L816.70 617.63L816.87 624.39L816.77 629.31L817.51 637.36L819.80 639.84L823.16 640.65L828.01 641.30L833.34 641.68L838.25 642.00L844.38 644.26L844.38 649.87L844.22 656.49L843.74 660.59L843.79 665.78L843.69 670.88L843.59 675.39L847.65 673.65L851.48 673.49L856.03 671.97L856.61 668.37L859.59 667.47L864.89 667.12L868.20 666.94L874.86 667.72L879.61 667.29L885.75 665.68L886.53 660.53L887.03 653.92L889.32 648.41L889.19 645.13L889.52 641.66L890.06 637.93L890.57 631.69L891.00 628.63L894.40 626.39L901.02 627.63L905.50 628.35L908.81 628.13L909.31 624.79L912.59 611.76L918.39 612.47L921.93 613.16L936.52 617.30L940.16 618.22L943.09 619.15L949.24 619.77L954.44 620.67L961.27 620.60L965.78 620.98L970.70 620.65L974.86 620.30L982.20 619.98L986.83 611.76L988.25 598.40L989.17 589.79Z" data-ward="7" /><path id="ward-8" class="ward" d="M986.83 611.76L982.20 619.98L974.86 620.30L970.70 620.65L965.78 620.98L961.27 620.60L954.44 620.67L949.24 619.77L943.09 619.15L940.16 618.22L936.52 617.30L921.93 613.16L918.39 612.47L912.59 611.76L909.31 624.79L908.81 628.13L905.50 628.35L901.02 627.63L894.40 626.39L891.00 628.63L890.57 631.69L890.06 637.93L889.52 641.66L889.19 645.13L889.32 648.41L887.03 653.92L886.53 660.53L885.75 665.68L879.61 667.29L874.86 667.72L868.20 666.94L864.89 667.12L859.59 667.47L856.61 668.37L856.03 671.97L851.48 673.49L847.65 673.65L843.59 675.39L842.26 678.35L841.83 682.95L841.76 688.88L841.60 693.27L841.45 697.88L842.99 701.07L846.10 702.04L849.89 702.47L851.20 707.47L851.10 715.60L850.80 718.58L849.86 723.54L847.26 731.55L845.71 739.26L844.71 745.07L841.49 747.68L833.07 749.88L828.35 751.45L824.03 753.55L821.22 755.01L815.06 757.90L811.01 760.06L809.46 763.52L808.00 768.02L806.19 771.79L799.76 772.08L793.74 772.57L791.45 774.38L790.44 778.17L789.26 781.72L787.44 787.86L784.19 794.98L782.54 799.45L780.03 802.90L775.82 803.06L768.78 803.92L765.82 808.34L762.00 809.12L763.07 813.13L763.92 817.28L764.62 821.27L765.63 825.25L766.84 829.76L767.98 833.01L769.15 836.73L770.59 841.26L770.61 846.72L772.69 858.35L774.07 864.23L775.41 870.80L776.37 875.71L778.07 884.60L779.30 888.80L780.74 894.78L781.33 899.09L782.66 905.18L784.68 913.26L787.17 926.62L788.45 933.18L793.74 960.26L802.97 994.57L808.30 995.11L814.33 998.32L818.64 1000.23L821.52 1001.36L827.60 1003.30L831.33 1004.32L836.50 1004.76L845.03 1005.46L849.94 1006.21L854.58 1007.67L857.88 1008.47L861.40 1009.55L868.17 1012.14L872.49 1013.65L877.61 1014.89L885.29 1015.69L888.70 1015.80L892.96 1015.59L896.05 1016.13L898.77 1017.53L903.63 1019.57L907.30 1020.60L913.22 1022.00L915.83 1023.99L918.54 1026.03L923.79 1026.16L926.59 1021.73L930.12 1011.14L931.39 1006.29L933.93 996.54L936.34 980.91L936.98 976.72L937.73 971.84L939.45 969.06L939.59 965.92L941.45 959.62L944.01 953.71L945.40 950.40L948.95 941.92L948.99 938.45L949.05 933.49L951.06 928.96L951.16 928.19L951.87 925.50L952.90 920.97L952.93 920.86L953.65 918.12L955.98 917.10L954.02 914.47L954.30 908.76L955.74 903.82L956.80 900.21L958.79 892.28L960.54 886.90L961.52 883.88L963.21 877.95L963.60 873.83L964.04 869.32L963.90 864.52L965.29 860.62L964.27 856.64L965.44 851.24L966.07 848.37L966.51 843.11L967.10 837.71L967.80 833.16L968.64 827.78L969.13 824.60L969.22 821.44L969.33 818.02L969.50 812.17L970.77 808.98L972.21 805.35L974.75 798.96L974.02 795.76L974.00 795.64L973.79 794.40L973.13 791.45L972.56 789.76L972.35 789.25L972.02 787.59L971.68 786.08L971.41 784.11L971.39 783.98L971.34 783.45L969.84 779.43L972.20 773.40L969.06 767.13L966.58 762.17L967.14 757.14L967.65 752.49L967.80 748.36L969.11 744.72L971.62 738.25L974.36 732.44L975.37 723.96L976.22 720.45L976.03 715.07L976.21 710.78L975.55 697.71L976.06 694.10L976.72 689.47L978.10 686.35L980.13 681.76L980.89 678.24L983.15 674.25L982.83 669.58L982.61 666.54L983.51 663.06L984.32 659.85L984.09 655.79L984.30 651.81L984.53 647.42L984.92 641.73L985.18 637.78L986.71 634.60L986.72 634.21L986.73 633.95L986.85 632.80L986.84 631.70L986.79 630.81L986.78 630.67L986.77 629.74L986.77 629.71L986.75 628.32L986.75 628.28L986.76 627.71L986.78 626.66L985.74 621.84L986.83 611.76Z" data-ward="8" /><path id="ward-1" class="ward" d="M280.49 55.67L276.33 54.53L272.52 53.65L268.97 51.57L262.47 46.29L258.00 45.62L255.63 42.50L252.68 41.47L249.21 38.43L246.74 36.27L241.07 35.52L237.32 35.02L233.97 33.62L227.44 30.88L223.77 29.96L217.95 28.56L211.40 26.14L207.97 25.60L202.92 24.80L185.77 18.72L182.89 17.67L174.88 15.09L168.13 12.92L163.44 10.42L159.41 9.86L150.38 5.54L147.60 4.60L144.76 2.75L136.71 0.00L133.50 7.25L133.74 14.06L137.29 16.54L140.77 35.39L141.22 38.72L141.22 48.03L145.06 56.77L145.43 61.66L145.58 64.93L146.39 71.67L147.29 79.20L147.30 83.85L147.31 89.08L149.09 92.59L152.34 99.04L156.82 100.52L161.27 102.00L166.92 103.54L171.36 104.76L176.36 106.80L183.22 109.36L190.36 111.95L194.60 113.28L200.88 114.97L204.48 115.67L208.09 116.37L215.32 118.32L221.38 119.96L227.72 123.76L234.79 128.61L238.72 131.31L237.97 137.54L236.11 141.90L234.11 146.57L230.03 156.83L228.04 161.03L226.59 164.09L224.46 167.80L222.43 172.87L222.75 177.23L222.08 180.67L221.37 184.35L220.46 187.20L218.65 192.05L216.51 196.96L213.38 205.16L210.30 208.04L208.04 210.16L207.35 215.44L206.97 219.48L206.23 223.68L200.58 226.18L196.08 226.31L190.23 226.49L187.29 226.74L182.25 225.60L179.14 225.25L174.61 227.30L172.67 229.29L176.12 230.81L180.46 232.72L191.90 233.45L197.45 241.30L204.48 245.92L206.88 254.81L206.85 254.81L206.89 254.86L206.91 254.93L206.96 254.94L213.91 266.83L220.06 264.06L233.95 261.60L237.41 261.06L244.74 258.82L250.78 257.20L256.84 255.70L283.59 249.34L297.29 246.98L308.05 244.93L311.05 244.35L329.50 240.69L355.64 237.44L369.47 236.28L372.69 236.15L381.56 235.83L386.59 235.60L385.60 219.58L385.03 212.25L384.71 208.93L383.01 202.45L383.22 192.75L388.13 177.40L388.74 174.29L389.94 169.04L392.43 163.79L393.94 156.27L393.30 152.72L390.10 148.03L388.86 144.53L387.71 137.65L387.12 132.94L387.17 128.20L387.92 121.25L388.72 116.72L390.37 110.20L393.19 102.66L397.25 104.38L402.20 108.91L405.51 112.60L408.27 115.67L410.95 120.65L411.69 124.26L411.64 130.91L410.43 139.20L409.99 144.96L409.73 150.02L409.75 155.06L409.88 161.39L410.00 165.18L410.41 170.12L411.68 175.74L412.80 181.32L414.57 185.28L418.33 187.60L423.69 190.19L429.31 191.75L432.91 192.70L436.04 190.81L429.54 187.53L427.59 184.60L427.21 179.12L428.22 175.78L429.22 172.27L430.23 167.52L432.57 162.57L438.84 163.42L442.77 163.82L448.52 165.31L454.74 167.04L456.84 163.42L457.81 158.91L458.71 153.79L457.92 150.27L456.74 147.42L457.69 141.09L463.99 138.65L467.61 138.63L471.62 139.08L474.92 139.24L477.57 143.54L480.89 145.66L486.92 146.90L490.86 140.43L492.62 132.13L494.91 125.50L496.62 119.58L497.21 116.21L500.17 111.67L502.38 109.07L505.31 105.40L506.86 99.21L511.71 97.75L513.84 91.34L513.89 86.33L516.12 58.46L510.72 56.75L506.05 55.27L499.03 53.05L495.93 52.07L487.96 49.55L481.16 49.09L474.55 47.15L461.83 41.27L454.87 39.07L450.42 37.66L447.79 35.67L443.72 32.60L438.77 28.87L434.81 25.88L431.73 23.56L428.71 21.28L421.37 16.35L418.65 14.75L405.48 9.48L392.52 4.30L386.05 11.43L384.58 21.34L382.61 24.84L379.67 30.08L372.01 39.15L368.82 42.78L363.62 48.69L360.60 52.12L357.42 56.72L354.92 60.33L351.19 65.74L348.32 69.88L346.49 72.53L342.81 77.84L335.83 77.75L332.42 77.71L317.58 69.71L311.96 66.64L308.79 64.90L306.11 63.43L293.55 54.62L289.55 55.45L286.03 55.99L280.49 55.67Z" data-ward="1" /><path id="ward-15" class="ward" d="M454.16 312.24L453.69 305.10L450.47 299.69L447.59 294.87L439.37 284.50L434.64 276.61L432.93 273.31L431.41 263.66L431.31 258.88L432.65 254.65L434.27 246.48L392.14 236.91L386.59 235.60L381.56 235.83L372.69 236.15L369.47 236.28L355.64 237.44L329.50 240.69L311.05 244.35L308.05 244.93L297.29 246.98L283.59 249.34L256.84 255.70L250.78 257.20L244.74 258.82L237.41 261.06L233.95 261.60L220.06 264.06L213.91 266.83L212.42 272.06L185.71 279.04L174.81 290.86L171.44 296.68L169.81 299.49L168.03 302.57L165.48 306.97L163.75 309.37L161.97 311.85L160.19 314.33L157.78 312.15L153.17 310.24L151.75 309.40L149.95 308.13L149.29 307.65L149.27 307.60L149.06 307.24L146.71 303.57L144.01 302.12L140.60 300.29L137.40 298.56L133.10 296.25L129.23 294.93L125.50 293.66L124.47 296.61L123.47 299.46L121.54 304.96L120.49 307.95L118.79 312.78L116.80 318.47L118.69 329.95L119.28 333.45L119.79 336.45L120.44 340.30L121.16 344.59L122.20 350.73L123.46 358.18L124.56 364.67L124.47 369.38L124.36 374.75L124.26 380.04L124.20 383.00L123.79 387.66L122.60 400.95L122.15 405.94L121.88 408.99L121.30 415.40L120.84 420.54L118.10 425.11L112.49 434.46L106.63 444.22L104.14 447.97L101.79 451.51L96.70 459.17L95.74 466.50L94.97 472.42L94.55 475.67L93.87 480.84L93.23 485.76L92.47 491.61L93.14 496.09L94.23 503.25L95.65 510.45L93.61 514.57L92.19 517.44L89.38 523.45L89.90 532.05L90.93 536.79L92.71 537.40L96.94 538.33L101.50 537.69L105.31 537.03L110.06 535.81L117.21 533.85L121.81 532.59L134.34 522.24L141.75 515.63L147.19 510.52L151.87 507.56L159.36 505.44L164.16 503.26L166.30 500.80L170.29 496.28L174.05 492.02L179.39 487.84L184.55 484.55L187.03 482.97L192.55 480.89L199.49 480.17L205.57 483.15L209.63 485.13L214.05 487.29L217.33 489.46L220.11 491.37L223.58 493.77L228.89 497.08L232.74 498.71L236.35 500.93L240.13 502.01L245.68 502.81L249.81 503.48L257.37 503.97L263.80 504.70L266.74 504.65L270.39 504.95L276.32 505.75L281.09 506.80L287.25 507.76L289.87 500.23L291.47 495.00L292.97 489.67L294.74 483.21L295.36 480.29L295.10 473.77L292.86 471.56L289.87 467.36L288.75 461.97L287.69 454.80L287.42 445.70L288.46 441.25L290.28 437.87L293.64 434.00L297.60 429.64L301.55 425.43L306.23 421.49L308.64 418.81L313.17 415.03L319.77 410.56L331.09 401.37L354.65 380.06L364.93 380.57L378.24 382.72L381.27 383.20L384.41 383.74L390.01 384.61L393.51 385.34L400.12 387.04L415.23 390.91L442.56 393.32L450.37 394.19L462.13 395.15L465.37 395.57L472.55 396.45L468.65 365.90L465.28 353.89L462.99 350.36L457.40 341.75L455.98 335.91L453.55 329.22L451.60 323.30L452.67 318.94L454.16 312.24Z" data-ward="15" /><path id="ward-3" class="ward" d="M651.49 390.09L655.87 389.01L659.05 386.90L656.73 379.57L655.26 374.91L652.08 364.87L642.64 336.52L628.19 300.43L626.00 294.97L624.30 290.73L621.69 289.27L614.71 288.07L589.69 283.37L575.47 280.28L554.59 275.74L535.67 271.63L532.56 270.95L529.51 270.26L515.48 267.09L508.46 265.50L495.71 265.61L497.33 278.03L497.79 281.58L497.42 296.00L495.81 307.53L494.93 312.76L492.46 319.76L491.64 339.12L493.15 342.75L496.95 351.70L497.27 354.85L498.22 361.34L497.21 367.07L494.96 382.68L494.19 385.77L490.74 396.99L481.64 396.72L472.55 396.45L474.60 402.22L475.75 405.10L479.68 410.36L483.90 416.20L491.41 420.83L495.54 423.40L499.85 431.85L500.96 440.05L501.16 446.31L500.90 449.69L500.41 456.10L495.34 460.41L491.98 461.00L486.38 461.86L473.86 461.54L456.05 460.84L445.17 460.68L435.59 459.86L431.21 459.49L412.27 452.04L408.07 450.38L404.02 448.35L399.99 446.34L395.41 445.11L388.99 443.86L385.54 445.15L381.10 450.07L378.72 455.11L376.91 465.43L377.24 468.89L382.49 471.73L389.73 475.05L393.09 476.68L398.49 480.62L402.04 482.39L405.35 484.06L408.94 486.03L416.38 489.18L420.76 490.37L424.59 490.86L439.84 496.81L486.16 496.33L490.47 499.40L494.35 502.15L499.20 504.46L512.59 514.56L518.51 518.16L523.74 521.35L530.26 520.76L533.86 517.39L534.79 513.80L535.63 510.59L537.11 504.91L538.64 501.51L540.35 497.76L544.66 496.40L550.68 497.75L553.77 498.18L561.34 499.74L564.43 500.41L569.07 501.41L577.23 502.49L582.93 503.35L588.27 504.21L593.54 503.03L593.81 499.20L593.60 494.57L595.02 490.10L604.88 490.83L608.04 491.66L612.91 492.77L616.10 493.52L620.63 494.68L623.24 492.95L625.05 490.42L630.40 481.64L633.63 477.33L636.26 470.37L638.27 466.82L639.44 463.21L639.14 460.21L638.37 454.35L634.50 450.41L635.55 444.99L634.81 437.02L630.92 431.15L610.98 421.77L603.03 415.84L603.73 411.69L604.53 406.74L606.44 401.51L611.44 401.23L616.84 401.19L624.20 401.24L629.48 401.29L636.09 401.51L641.78 400.88L644.72 400.45L651.49 390.09Z" data-ward="3" /><path id="ward-11" class="ward" d="M658.89 573.94L652.98 569.88L646.87 566.01L642.31 563.18L635.54 558.59L632.52 556.47L628.38 553.58L621.96 551.94L618.00 553.60L612.34 556.97L608.29 560.90L604.76 564.27L601.84 567.06L598.40 570.63L594.09 574.79L590.80 578.53L584.75 581.11L579.79 579.82L566.58 576.43L559.26 575.07L547.37 572.11L538.90 568.50L533.34 566.94L530.25 566.65L524.66 565.91L516.61 563.70L508.62 561.87L503.24 560.47L498.58 558.44L470.57 557.88L453.49 558.58L434.73 553.90L430.91 573.09L423.98 601.32L419.13 625.41L415.63 644.75L413.25 652.92L412.05 661.74L417.03 664.97L420.23 666.37L423.94 667.54L427.91 669.60L431.48 671.33L433.98 672.89L437.66 674.56L440.75 675.53L444.33 676.34L448.91 678.82L452.11 680.70L452.38 684.15L455.41 683.12L462.04 685.70L466.78 688.32L472.57 692.54L478.37 694.63L484.91 696.33L492.32 697.91L501.11 700.85L509.81 704.23L516.64 706.88L515.17 710.86L513.90 714.98L510.44 725.19L508.14 731.39L505.38 740.12L503.07 747.77L502.23 752.12L497.95 768.40L495.52 780.89L491.51 797.79L486.23 812.92L482.22 826.85L482.57 831.46L498.48 834.32L508.28 837.02L512.23 837.44L516.73 838.47L521.91 841.91L528.44 843.20L532.51 844.53L535.46 845.15L540.81 846.87L544.58 847.73L549.93 848.96L558.03 851.11L563.84 852.49L567.52 852.57L569.92 848.64L571.24 845.27L572.77 842.58L574.44 837.29L575.36 834.36L576.21 830.64L576.37 826.22L577.63 823.12L576.32 818.67L587.05 819.70L619.15 822.78L627.76 821.27L628.87 818.11L629.68 815.07L630.75 808.82L630.22 803.27L629.52 800.14L628.88 797.13L627.92 790.71L627.12 786.08L626.27 780.10L626.11 774.39L625.47 768.19L625.65 759.88L626.86 753.91L628.14 749.92L628.67 745.99L628.03 738.18L627.28 733.54L627.39 725.68L627.66 721.80L628.35 714.41L627.50 710.64L627.07 707.46L627.18 701.70L628.36 697.47L630.64 688.25L631.66 682.47L632.03 679.28L633.13 674.48L634.37 669.26L634.48 665.47L633.77 661.55L632.56 652.82L632.77 646.63L633.69 641.15L634.89 631.82L635.49 627.70L636.19 618.61L637.09 614.62L637.79 611.06L639.01 606.32L639.49 603.20L640.29 598.83L641.25 595.65L644.34 592.37L646.74 587.73L649.68 584.07L652.77 581.27L658.89 573.94Z" data-ward="11" /><path id="ward-5" class="ward" d="M693.98 482.39L690.89 478.40L685.93 476.36L680.71 473.07L675.32 468.17L670.99 465.43L667.88 463.73L661.40 460.56L651.71 457.39L642.61 456.28L638.37 454.35L639.14 460.21L639.44 463.21L638.27 466.82L636.26 470.37L633.63 477.33L630.40 481.64L625.05 490.42L623.24 492.95L620.63 494.68L616.10 493.52L612.91 492.77L608.04 491.66L604.88 490.83L595.02 490.10L593.60 494.57L593.81 499.20L593.54 503.03L588.27 504.21L582.93 503.35L577.23 502.49L569.07 501.41L564.43 500.41L561.34 499.74L553.77 498.18L550.68 497.75L544.66 496.40L540.35 497.76L538.64 501.51L537.11 504.91L535.63 510.59L534.79 513.80L533.86 517.39L530.26 520.76L523.74 521.35L522.72 525.73L514.06 535.73L511.74 538.58L509.73 540.75L505.81 544.92L498.58 558.44L503.24 560.47L508.62 561.87L516.61 563.70L524.66 565.91L530.25 566.65L533.34 566.94L538.90 568.50L547.37 572.11L559.26 575.07L566.58 576.43L579.79 579.82L584.75 581.11L590.80 578.53L594.09 574.79L598.40 570.63L601.84 567.06L604.76 564.27L608.29 560.90L612.34 556.97L618.00 553.60L621.96 551.94L628.38 553.58L632.52 556.47L635.54 558.59L642.31 563.18L646.87 566.01L652.98 569.88L658.89 573.94L658.37 581.33L663.15 583.67L667.85 586.19L671.71 590.63L675.72 593.32L685.66 596.92L690.11 598.20L710.12 602.26L719.73 604.62L721.40 608.25L722.51 615.53L723.14 621.02L723.96 628.09L725.26 637.86L727.75 651.80L728.36 655.26L730.10 663.26L730.77 666.45L731.99 672.24L732.93 676.71L734.60 685.21L735.73 691.32L737.72 699.82L738.96 707.62L740.39 716.66L741.32 722.06L743.32 729.58L745.85 738.80L746.93 743.14L748.02 747.47L749.54 755.03L750.17 758.68L751.55 763.76L753.12 769.21L755.09 775.86L756.00 780.07L757.02 784.68L758.74 794.53L759.42 797.59L760.41 802.13L761.33 806.17L762.00 809.12L765.82 808.34L768.78 803.92L775.82 803.06L780.03 802.90L782.54 799.45L784.19 794.98L787.44 787.86L789.26 781.72L790.44 778.17L791.45 774.38L793.74 772.57L799.76 772.08L806.19 771.79L808.00 768.02L809.46 763.52L811.01 760.06L815.06 757.90L821.22 755.01L824.03 753.55L828.35 751.45L833.07 749.88L841.49 747.68L844.71 745.07L845.71 739.26L847.26 731.55L849.86 723.54L850.80 718.58L851.10 715.60L851.20 707.47L849.89 702.47L846.10 702.04L842.99 701.07L841.45 697.88L841.60 693.27L841.76 688.88L841.83 682.95L842.26 678.35L843.59 675.39L843.69 670.88L843.79 665.78L843.74 660.59L844.22 656.49L844.38 649.87L844.38 644.26L838.25 642.00L833.34 641.68L828.01 641.30L823.16 640.65L819.80 639.84L817.51 637.36L816.77 629.31L816.87 624.39L816.70 617.63L818.52 609.24L822.42 607.57L823.59 604.28L821.86 599.92L813.89 598.35L807.54 598.84L803.87 599.21L794.64 600.40L791.12 600.88L787.12 599.16L786.59 593.66L787.01 588.61L787.39 584.02L788.03 575.45L789.09 570.01L791.49 558.37L792.35 548.99L792.72 543.77L792.56 535.36L792.03 526.31L791.72 523.23L791.28 518.36L790.84 511.65L789.25 502.92L790.65 485.93L782.54 486.22L769.64 487.13L755.40 488.53L743.67 488.59L731.94 487.35L719.41 485.89L708.01 484.98L703.47 485.30L697.35 485.84L693.98 482.39Z" data-ward="5" /><path id="ward-9" class="ward" d="M674.70 840.30L667.24 838.26L659.77 835.89L654.06 836.07L651.91 842.54L650.80 846.30L649.00 850.96L647.64 853.84L646.53 856.60L645.13 862.68L643.59 868.27L643.33 873.39L644.01 876.50L641.47 879.48L641.75 883.14L637.97 890.04L636.10 894.30L634.93 897.80L634.13 902.00L635.30 907.17L635.73 915.36L634.29 921.78L632.43 924.62L628.90 930.45L625.65 936.76L624.37 939.50L623.68 942.52L622.56 948.12L621.92 951.09L620.59 956.69L620.37 959.71L619.15 965.36L617.34 973.07L615.95 978.64L618.43 982.99L621.44 983.26L625.07 984.60L629.12 985.68L633.28 986.92L640.99 990.31L646.78 992.47L651.30 994.84L652.26 998.51L655.44 1001.82L659.19 1003.52L663.77 1005.19L668.04 1006.37L672.94 1009.12L671.93 1013.65L670.43 1019.04L668.78 1024.64L667.78 1030.16L666.94 1034.69L665.16 1043.22L663.77 1048.40L661.37 1054.81L658.28 1063.22L655.72 1070.76L653.00 1076.37L650.87 1079.76L647.99 1084.34L646.83 1089.36L650.46 1090.15L656.02 1091.36L660.70 1092.37L664.13 1093.12L667.16 1093.78L672.71 1094.98L678.04 1096.14L682.51 1097.11L688.02 1098.31L696.46 1098.79L701.87 1099.11L706.37 1097.71L716.84 1101.73L725.33 1105.34L731.40 1107.93L735.84 1109.81L741.57 1112.25L749.91 1115.80L757.49 1118.24L763.41 1120.15L770.49 1122.43L776.52 1124.69L781.24 1126.45L787.25 1128.70L791.53 1130.30L802.73 1134.50L806.25 1134.94L810.09 1135.43L816.69 1136.28L823.84 1137.19L829.50 1137.17L834.34 1137.16L840.02 1136.65L846.21 1136.09L850.80 1135.68L855.01 1135.92L858.36 1136.11L873.76 1137.46L897.02 1139.19L895.40 1134.85L897.06 1132.36L897.93 1127.34L899.36 1121.81L901.92 1110.30L907.32 1110.01L909.63 1108.82L913.01 1098.32L911.71 1091.26L911.43 1083.44L914.94 1077.14L914.63 1068.11L916.29 1059.65L919.34 1044.13L922.39 1031.83L923.79 1026.16L918.54 1026.03L915.83 1023.99L913.22 1022.00L907.30 1020.60L903.63 1019.57L898.77 1017.53L896.05 1016.13L892.96 1015.59L888.70 1015.80L885.29 1015.69L877.61 1014.89L872.49 1013.65L868.17 1012.14L861.40 1009.55L857.88 1008.47L854.58 1007.67L849.94 1006.21L845.03 1005.46L836.50 1004.76L831.33 1004.32L827.60 1003.30L821.52 1001.36L818.64 1000.23L814.33 998.32L808.30 995.11L802.97 994.57L793.74 960.26L788.45 933.18L787.17 926.62L784.68 913.26L782.66 905.18L781.33 899.09L780.74 894.78L779.30 888.80L778.07 884.60L776.37 875.71L775.41 870.80L774.07 864.23L772.69 858.35L770.61 846.72L770.59 841.26L764.96 843.11L760.11 843.43L751.10 844.40L735.73 845.86L731.18 845.87L717.88 842.73L711.86 840.52L707.43 839.98L696.25 839.48L688.77 840.03L683.23 840.79L678.27 840.90L674.70 840.30Z" data-ward="9" /><path id="ward-14" class="ward" d="M257.37 503.97L249.81 503.48L245.68 502.81L240.13 502.01L236.35 500.93L232.74 498.71L228.89 497.08L223.58 493.77L220.11 491.37L217.33 489.46L214.05 487.29L209.63 485.13L205.57 483.15L199.49 480.17L192.55 480.89L187.03 482.97L184.55 484.55L179.39 487.84L174.05 492.02L170.29 496.28L166.30 500.80L164.16 503.26L159.36 505.44L151.87 507.56L147.19 510.52L141.75 515.63L134.34 522.24L121.81 532.59L117.21 533.85L110.06 535.81L105.31 537.03L101.50 537.69L96.94 538.33L92.71 537.40L91.67 540.43L94.60 557.41L92.14 561.20L85.66 563.31L70.48 574.54L61.08 590.37L54.51 616.06L7.08 739.39L1.16 754.36L0.00 782.24L14.11 784.55L20.88 786.03L38.90 790.04L49.27 793.57L60.36 796.32L63.30 797.70L70.02 800.86L77.60 804.42L82.96 806.94L86.38 800.87L89.00 799.25L90.17 795.48L91.29 791.71L92.46 788.69L94.43 785.67L95.98 782.76L97.37 779.64L98.42 774.48L99.02 769.88L99.34 766.70L99.77 763.74L101.47 760.24L101.63 756.20L101.90 753.23L102.54 750.34L102.80 747.25L103.92 743.21L104.56 740.25L106.18 734.95L106.91 731.52L107.22 728.30L107.60 725.05L107.69 721.73L110.38 717.51L114.64 717.94L117.73 718.15L120.98 718.42L124.08 718.80L127.70 719.02L131.17 719.18L137.66 719.99L142.63 721.22L145.72 721.97L153.94 722.43L157.02 721.92L160.65 721.06L167.21 719.66L171.10 719.66L176.11 721.06L180.20 723.36L183.41 724.67L189.33 726.13L197.17 726.83L201.75 727.37L205.38 728.12L209.86 727.58L210.82 724.51L211.94 721.01L212.63 717.56L213.38 714.71L214.50 710.82L215.40 706.62L216.11 702.88L219.19 697.95L222.81 696.17L227.08 695.20L231.02 694.34L234.43 692.07L236.35 687.12L238.01 684.04L239.55 679.73L239.63 674.80L239.66 668.79L240.14 663.68L240.30 660.55L242.16 658.02L247.18 655.97L249.89 654.81L252.83 653.65L256.51 652.31L260.93 651.22L265.25 650.53L270.26 649.34L272.61 647.56L275.04 640.96L277.91 635.66L279.16 632.48L279.96 628.22L281.63 622.56L282.58 618.57L283.59 615.61L286.95 611.25L285.47 605.66L284.15 601.72L283.99 598.64L283.90 595.66L285.00 589.17L285.87 585.15L288.93 579.57L292.84 578.44L294.46 573.73L294.56 568.45L294.46 563.70L293.18 558.85L292.09 554.14L291.90 550.72L291.95 546.14L290.56 531.16L289.98 526.36L289.34 522.75L288.59 519.52L287.47 514.83L287.43 511.33L287.25 507.76L281.09 506.80L276.32 505.75L270.39 504.95L266.74 504.65L263.80 504.70L257.37 503.97Z" data-ward="14" /><path id="ward-13" class="ward" d="M433.98 723.92L436.25 717.83L438.36 714.92L441.34 709.91L442.78 706.84L444.38 702.63L445.02 699.24L446.51 695.25L448.49 691.21L449.76 688.52L452.38 684.15L452.11 680.70L448.91 678.82L444.33 676.34L440.75 675.53L437.66 674.56L433.98 672.89L431.48 671.33L427.91 669.60L423.94 667.54L420.23 666.37L417.03 664.97L412.05 661.74L407.75 660.39L404.82 659.31L401.89 658.13L398.05 656.56L395.07 654.68L391.81 653.28L388.88 652.31L385.20 651.28L380.56 649.23L377.76 647.51L374.33 645.41L369.53 643.04L366.06 640.99L363.16 639.08L359.93 636.63L354.83 633.88L351.30 632.48L348.52 630.97L344.53 629.41L341.76 628.35L336.42 626.44L332.42 625.20L329.54 624.18L325.65 623.21L321.33 621.75L317.87 620.08L312.38 618.04L309.13 617.07L305.71 616.15L300.49 614.86L297.08 613.62L293.29 612.65L286.95 611.25L283.59 615.61L282.58 618.57L281.63 622.56L279.96 628.22L279.16 632.48L277.91 635.66L275.04 640.96L272.61 647.56L270.26 649.34L265.25 650.53L260.93 651.22L256.51 652.31L252.83 653.65L249.89 654.81L247.18 655.97L242.16 658.02L240.30 660.55L240.14 663.68L239.66 668.79L239.63 674.80L239.55 679.73L238.01 684.04L236.35 687.12L234.43 692.07L231.02 694.34L227.08 695.20L222.81 696.17L219.19 697.95L216.11 702.88L215.40 706.62L214.50 710.82L213.38 714.71L212.63 717.56L211.94 721.01L210.82 724.51L209.86 727.58L205.38 728.12L201.75 727.37L197.17 726.83L189.33 726.13L183.41 724.67L180.20 723.36L176.11 721.06L171.10 719.66L167.21 719.66L160.65 721.06L157.02 721.92L153.94 722.43L145.72 721.97L142.63 721.22L137.66 719.99L131.17 719.18L127.70 719.02L124.08 718.80L120.98 718.42L117.73 718.15L114.64 717.94L110.38 717.51L107.69 721.73L107.60 725.05L107.22 728.30L106.91 731.52L106.18 734.95L104.56 740.25L103.92 743.21L102.80 747.25L102.54 750.34L101.90 753.23L101.63 756.20L101.47 760.24L99.77 763.74L99.34 766.70L99.02 769.88L98.42 774.48L97.37 779.64L95.98 782.76L94.43 785.67L92.46 788.69L91.29 791.71L90.17 795.48L89.00 799.25L86.38 800.87L82.96 806.94L84.11 813.60L89.04 815.13L91.86 816.00L96.08 817.31L99.58 818.40L103.97 819.76L109.52 821.48L118.75 822.08L122.49 827.48L124.29 830.59L133.75 835.53L137.28 837.52L149.91 844.61L153.92 833.68L159.12 832.34L163.26 837.24L166.12 840.62L168.31 843.21L170.28 845.55L175.53 851.76L178.30 855.03L177.43 858.94L176.69 862.31L175.85 866.12L181.16 869.72L185.06 872.37L188.48 874.69L191.60 876.81L196.02 879.81L200.07 882.55L203.30 884.75L206.22 888.60L213.79 898.57L217.17 902.21L219.36 904.56L222.12 902.27L223.88 899.10L225.64 896.24L227.66 893.60L230.24 889.45L231.61 886.70L233.15 884.22L235.20 875.72L238.61 869.70L254.27 843.43L250.75 841.66L249.04 838.53L251.92 832.87L255.60 831.90L259.81 835.67L263.60 837.67L266.64 838.53L269.73 839.82L272.98 841.01L276.60 841.60L279.96 842.73L285.93 843.92L291.32 843.27L293.24 840.31L296.81 836.70L298.89 832.39L300.30 826.89L302.19 822.31L303.15 818.59L303.73 813.97L304.11 810.94L304.22 807.39L303.99 803.98L302.86 800.92L301.40 796.99L305.02 796.88L308.59 796.82L313.44 797.47L317.50 798.49L320.38 799.73L327.25 801.40L330.93 802.54L334.45 803.51L337.59 804.58L340.90 805.23L344.15 805.45L347.99 805.77L352.74 807.64L357.25 808.84L360.54 809.77L363.61 810.89L367.29 811.91L371.29 813.04L375.34 814.12L378.97 814.82L382.54 815.09L385.84 815.09L390.03 815.32L393.20 816.06L396.77 815.90L399.54 812.56L400.98 809.43L402.14 806.13L403.49 802.54L405.62 798.12L407.05 795.24L408.55 792.03L410.05 789.39L410.85 786.26L410.19 783.29L408.07 781.04L408.66 777.64L410.97 771.93L412.45 768.21L414.95 763.69L416.92 760.02L418.10 756.84L419.00 752.21L420.92 747.36L423.69 742.35L425.67 739.11L427.43 736.37L428.97 733.46L430.52 730.82L433.98 723.92Z" data-ward="13" /><path id="ward-12" class="ward" d="M486.23 812.92L491.51 797.79L495.52 780.89L497.95 768.40L502.23 752.12L503.07 747.77L505.38 740.12L508.14 731.39L510.44 725.19L513.90 714.98L515.17 710.86L516.64 706.88L509.81 704.23L501.11 700.85L492.32 697.91L484.91 696.33L478.37 694.63L472.57 692.54L466.78 688.32L462.04 685.70L455.41 683.12L452.38 684.15L449.76 688.52L448.49 691.21L446.51 695.25L445.02 699.24L444.38 702.63L442.78 706.84L441.34 709.91L438.36 714.92L436.25 717.83L433.98 723.92L430.52 730.82L428.97 733.46L427.43 736.37L425.67 739.11L423.69 742.35L420.92 747.36L419.00 752.21L418.10 756.84L416.92 760.02L414.95 763.69L412.45 768.21L410.97 771.93L408.66 777.64L408.07 781.04L410.19 783.29L410.85 786.26L410.05 789.39L408.55 792.03L407.05 795.24L405.62 798.12L403.49 802.54L402.14 806.13L400.98 809.43L399.54 812.56L396.77 815.90L393.20 816.06L390.03 815.32L385.84 815.09L382.54 815.09L378.97 814.82L375.34 814.12L371.29 813.04L367.29 811.91L363.61 810.89L360.54 809.77L357.25 808.84L352.74 807.64L347.99 805.77L344.15 805.45L340.90 805.23L337.59 804.58L334.45 803.51L330.93 802.54L327.25 801.40L320.38 799.73L317.50 798.49L313.44 797.47L308.59 796.82L305.02 796.88L301.40 796.99L302.86 800.92L303.99 803.98L304.22 807.39L304.11 810.94L303.73 813.97L303.15 818.59L302.19 822.31L300.30 826.89L298.89 832.39L296.81 836.70L293.24 840.31L291.32 843.27L285.93 843.92L279.96 842.73L276.60 841.60L272.98 841.01L269.73 839.82L266.64 838.53L263.60 837.67L259.81 835.67L255.60 831.90L251.92 832.87L249.04 838.53L250.75 841.66L254.27 843.43L238.61 869.70L235.20 875.72L233.15 884.22L231.61 886.70L230.24 889.45L227.66 893.60L225.64 896.24L223.88 899.10L222.12 902.27L219.36 904.56L222.39 908.19L229.02 916.09L260.18 924.68L269.05 927.09L280.78 931.75L295.24 937.45L302.05 939.87L316.01 952.79L325.86 954.76L337.39 956.24L351.61 959.44L355.45 960.29L368.91 968.33L385.11 954.74L417.77 931.92L420.41 931.59L426.60 937.01L434.74 941.70L446.79 946.44L453.06 950.20L454.79 953.26L460.66 956.19L463.73 957.72L467.65 958.07L470.68 958.33L474.95 958.79L478.07 959.12L480.98 959.44L485.27 959.89L485.47 955.44L487.12 951.56L490.06 946.44L492.24 941.80L494.27 935.99L495.60 932.91L497.20 929.84L497.89 925.59L500.56 918.64L504.13 913.52L508.56 909.64L510.00 906.62L510.65 903.27L511.52 899.01L511.75 894.98L512.02 891.32L513.00 885.86L513.34 882.93L514.02 879.99L515.30 875.48L515.44 871.61L516.30 868.46L517.36 864.75L518.09 860.73L518.94 857.01L519.84 853.61L520.51 850.04L521.24 846.92L521.91 841.91L516.73 838.47L512.23 837.44L508.28 837.02L498.48 834.32L482.57 831.46L482.22 826.85L486.23 812.92Z" data-ward="12" /></svg>