<svg viewBox="0 0 1000.00 1160.00" xmlns="http://www.w3.org/2000/svg"><style>.ward { fill: #e2e8f0; stroke: #fff; stroke-width: 0.5px; } .ward:hover { fill: #cbd5e1; }</style><path id="ward-31" class="ward" d="M489.85 438.32L488.78 435.25L487.52 432.03L485.89 427.19L483.95 421.43L481.08 412.99L480.55 410.98L479.49 406.97L478.85 403.52L478.53 401.42L478.03 398.10L477.78 394.81L476.91 389.31L473.85 394.03L472.85 397.05L471.75 400.40L470.64 403.74L468.97 408.43L465.03 416.31L462.34 421.99L458.90 430.37L455.99 437.38L455.48 439.30L451.10 440.46L449.09 440.34L444.88 440.64L441.81 445.95L440.46 448.06L438.53 450.10L434.27 454.59L426.86 464.73L421.35 473.61L415.03 475.21L408.18 468.22L394.46 454.31L359.98 430.15L353.20 425.84L347.33 423.58L347.07 425.79L344.88 427.08L347.79 429.90L350.38 431.56L350.48 433.86L349.48 446.31L348.38 460.08L347.21 474.47L347.09 479.39L346.46 490.07L340.47 490.56L337.41 491.68L327.24 495.40L315.59 503.98L311.13 509.15L306.64 514.36L301.82 526.60L300.00 531.14L298.83 533.98L298.02 535.94L297.34 542.38L296.35 551.75L296.08 553.72L295.53 557.83L295.79 561.19L298.97 561.28L303.61 561.71L306.19 561.51L310.88 559.78L314.15 557.54L316.83 556.56L317.89 560.23L319.26 568.24L322.14 569.89L325.70 568.78L325.98 573.93L326.21 578.38L326.29 580.62L326.87 588.73L327.18 595.45L328.76 605.21L330.85 603.59L340.23 598.89L343.35 598.74L346.55 598.58L350.59 598.36L356.86 597.98L362.10 597.82L365.24 592.59L367.51 588.61L371.43 587.00L374.16 587.50L384.44 588.62L389.74 589.02L393.65 578.64L394.44 573.29L396.03 562.27L396.05 559.62L396.07 556.97L395.89 547.96L396.00 540.88L395.99 537.95L395.98 535.03L395.84 530.64L399.55 519.48L403.23 510.16L409.51 495.36L412.40 491.11L414.30 488.07L416.19 485.03L417.53 482.05L418.86 479.06L420.96 478.55L424.59 482.59L430.67 489.34L432.40 491.04L444.45 502.94L452.12 509.96L454.23 512.53L460.14 518.78L467.40 526.24L474.65 533.70L488.32 547.20L496.38 555.35L505.09 564.08L510.46 570.29L514.31 574.36L530.07 591.02L532.99 588.52L527.21 581.33L523.28 577.24L519.50 572.24L515.33 566.65L514.04 565.01L509.98 559.63L506.91 555.58L505.10 552.73L501.66 543.89L499.84 536.83L498.64 532.30L497.71 529.20L491.72 510.96L491.07 508.85L490.21 506.05L489.35 503.26L488.04 499.49L487.05 495.82L486.77 492.60L486.83 484.72L487.28 482.20L488.12 476.77L488.96 471.34L489.28 465.92L489.59 460.48L489.78 451.18L490.26 446.59L489.85 438.32Z" data-ward="31" /><path id="ward-34" class="ward" d="M315.59 503.98L327.24 495.40L337.41 491.68L340.47 490.56L346.46 490.07L347.09 479.39L347.21 474.47L344.97 474.69L342.72 474.91L340.35 475.48L336.63 476.37L330.46 477.85L327.95 478.85L322.17 481.14L317.22 483.44L314.98 484.23L313.03 484.92L308.03 485.66L305.12 485.94L302.16 486.24L297.79 486.88L291.24 487.40L287.09 487.77L286.72 492.09L286.54 494.19L286.21 498.08L286.51 500.23L286.01 502.89L277.45 504.44L275.31 504.28L269.87 503.88L259.44 502.59L257.06 502.50L254.57 504.91L251.35 513.04L250.18 516.56L249.23 519.63L248.54 521.54L248.06 523.49L246.32 524.74L244.38 525.20L230.00 525.69L224.04 525.88L220.87 525.32L218.64 524.92L211.51 526.25L206.93 526.37L203.80 526.45L199.64 524.23L199.82 528.32L199.94 531.66L201.46 542.68L202.01 546.73L202.45 550.12L203.16 555.54L203.51 558.23L203.26 564.59L202.86 567.96L202.62 570.02L199.52 571.32L197.09 571.50L196.24 567.38L195.65 563.39L191.92 564.48L187.54 565.10L182.06 565.87L180.13 566.14L172.75 566.56L170.38 566.81L167.13 567.22L167.29 570.87L167.09 583.90L166.19 589.60L163.98 590.74L162.07 591.32L157.52 593.26L157.47 598.57L157.81 602.00L157.39 613.89L156.84 615.98L155.32 621.26L154.63 624.52L154.11 627.00L153.46 630.07L151.80 634.57L150.97 636.83L150.08 639.25L147.92 648.07L150.07 650.63L153.86 652.57L158.29 654.59L162.55 656.87L165.86 657.38L168.77 657.83L171.65 658.28L178.45 659.85L182.97 659.74L186.11 659.09L190.87 660.28L194.49 661.31L197.54 662.69L201.14 664.67L201.39 659.63L201.54 656.92L202.02 647.99L202.19 642.80L202.14 639.46L202.10 637.24L202.97 629.00L203.32 623.56L206.14 623.40L209.37 623.45L212.74 621.69L216.07 620.07L224.06 619.45L226.53 618.72L228.67 617.39L230.24 614.77L236.64 609.78L245.15 605.87L247.43 604.87L249.86 603.81L254.10 602.47L254.54 599.09L257.02 598.93L259.60 598.77L265.38 598.39L267.47 597.67L272.77 595.85L282.67 591.14L284.25 593.84L287.13 598.96L301.75 598.06L308.07 597.44L312.43 597.42L312.21 601.89L313.87 603.63L315.78 604.85L318.13 606.35L321.72 607.90L328.76 605.21L327.18 595.45L326.87 588.73L326.29 580.62L326.21 578.38L325.98 573.93L325.70 568.78L322.14 569.89L319.26 568.24L317.89 560.23L316.83 556.56L314.15 557.54L310.88 559.78L306.19 561.51L303.61 561.71L298.97 561.28L295.79 561.19L295.53 557.83L296.08 553.72L296.35 551.75L297.34 542.38L298.02 535.94L298.83 533.98L300.00 531.14L301.82 526.60L306.64 514.36L311.13 509.15L315.59 503.98Z" data-ward="34" /><path id="ward-18" class="ward" d="M681.64 816.48L688.33 823.71L692.85 827.65L698.10 830.98L699.47 834.08L698.66 841.87L694.83 844.32L686.09 845.92L682.04 849.00L680.77 856.29L677.71 860.51L667.67 862.32L671.46 873.02L667.56 876.08L665.00 877.85L665.83 881.69L668.00 885.35L666.95 888.71L664.41 894.07L661.29 896.44L654.36 899.73L647.29 901.66L639.86 903.58L633.43 906.98L629.12 912.49L624.44 918.91L622.24 922.50L616.45 931.57L610.34 937.88L607.99 940.30L600.47 943.07L596.62 943.33L593.77 946.09L592.49 949.48L591.85 956.09L590.38 969.38L589.73 979.62L588.66 986.41L588.62 998.23L588.67 1002.46L588.79 1011.27L588.88 1017.47L591.50 1016.58L595.93 1014.74L598.58 1013.65L601.01 1012.52L604.50 1010.90L610.49 1008.31L614.98 1006.91L617.87 1005.94L623.38 1004.04L629.44 1001.95L635.01 1000.76L640.32 998.93L642.26 998.26L644.81 997.58L648.30 996.64L652.79 995.44L658.03 994.04L662.26 993.01L665.20 992.49L667.19 991.85L671.24 990.57L677.02 989.85L679.33 989.21L683.30 988.51L687.45 987.40L695.75 986.15L701.65 985.44L708.14 984.66L711.36 984.17L713.39 983.94L718.02 983.41L721.78 981.35L725.39 979.35L727.24 978.08L729.06 976.83L728.64 973.36L727.63 965.23L726.97 959.82L726.12 954.90L725.66 952.24L725.11 948.60L730.09 948.64L754.20 948.50L756.72 948.48L764.26 946.14L764.95 942.14L767.50 938.36L769.19 935.48L778.06 920.34L781.64 914.24L787.08 907.76L791.22 903.19L793.33 901.61L795.51 899.99L800.38 895.64L802.49 893.53L805.37 890.65L808.95 886.55L811.29 883.86L813.63 881.17L815.38 876.74L811.36 873.71L803.12 870.27L794.99 866.90L792.31 865.84L789.63 864.78L784.86 862.97L781.37 861.19L777.77 858.42L774.07 853.91L772.13 851.63L770.18 849.34L768.48 847.39L766.07 844.65L761.27 840.66L758.21 838.78L756.20 837.56L753.42 835.51L748.22 832.18L746.43 828.64L741.53 831.22L681.64 816.48Z" data-ward="18" /><path id="ward-15" class="ward" d="M820.40 561.10L816.44 557.80L814.83 559.72L812.31 560.45L809.95 560.90L806.28 561.53L801.98 562.41L793.22 563.64L788.53 564.93L785.50 565.22L782.18 566.19L778.98 566.12L775.77 567.02L772.93 567.30L769.17 568.20L766.16 569.03L762.21 569.02L759.24 569.81L756.76 569.65L747.32 570.87L745.48 571.50L742.13 572.44L738.97 572.20L736.55 572.71L733.11 573.18L730.82 573.73L728.15 574.18L724.91 574.80L721.69 576.67L722.65 579.22L723.42 582.11L724.33 585.98L724.92 588.00L725.74 591.35L726.75 595.87L727.76 598.17L729.32 603.60L729.73 606.12L730.86 608.63L731.22 611.13L727.91 612.94L724.93 614.95L723.11 615.92L720.63 616.68L717.54 617.59L714.61 618.67L711.63 619.84L707.02 621.12L702.32 623.18L700.22 623.92L696.18 625.34L691.35 627.22L694.19 633.14L697.86 639.31L704.86 646.88L707.85 648.58L709.64 644.33L712.44 640.97L715.57 638.59L722.79 635.26L726.54 634.01L732.21 633.45L734.33 633.34L737.81 633.27L741.68 632.85L744.65 632.86L747.63 632.87L751.44 633.02L755.25 633.17L757.46 633.37L762.40 633.75L766.07 633.96L768.30 634.09L775.70 636.85L778.75 637.98L781.93 640.05L785.50 641.85L787.07 643.19L788.66 644.58L791.34 646.69L793.09 648.46L794.85 650.25L798.93 652.52L802.19 653.29L804.84 657.48L805.10 661.38L805.90 664.52L804.89 666.39L802.17 668.92L801.66 671.69L802.22 674.69L802.46 679.13L802.44 681.76L802.50 684.81L801.76 688.77L801.50 692.95L802.30 695.23L805.88 695.48L808.48 695.43L810.56 695.46L812.63 695.52L818.34 694.75L821.18 694.48L823.71 694.23L828.04 693.20L831.11 692.35L833.49 691.81L835.78 691.10L839.40 689.35L841.17 687.87L844.48 686.58L846.74 685.64L850.10 684.25L853.73 683.26L856.62 682.71L860.23 682.53L863.21 682.04L865.96 682.69L868.55 683.08L871.14 681.17L871.85 678.59L873.88 675.13L875.59 673.73L877.29 672.34L880.36 670.60L882.39 670.87L884.48 671.08L888.28 670.72L892.45 670.43L894.49 669.78L896.48 668.82L899.03 668.19L905.37 665.29L908.40 664.20L912.48 662.54L914.39 661.80L916.30 661.06L918.47 660.52L923.00 658.80L925.72 657.78L928.04 657.07L930.93 656.46L933.39 658.00L934.06 659.93L934.73 661.85L935.23 664.17L935.17 666.64L935.12 669.10L931.92 673.28L930.39 675.14L928.43 677.72L926.27 679.87L923.81 682.85L922.23 684.49L920.58 687.24L919.68 691.98L919.44 694.17L919.73 698.37L919.31 700.91L919.07 703.24L919.07 705.44L919.38 707.40L923.19 708.38L925.22 708.38L928.78 708.05L931.23 707.59L933.35 707.37L935.34 706.94L939.61 706.43L943.58 706.36L948.16 706.58L951.42 706.52L954.43 706.46L957.90 706.87L959.10 710.19L958.88 713.48L959.01 717.75L959.10 720.70L959.10 723.07L959.48 726.58L959.66 729.27L959.63 734.28L965.57 737.30L969.29 738.99L973.71 740.93L976.37 742.12L981.12 744.43L984.73 745.45L986.84 746.09L988.93 746.18L992.94 746.38L995.08 743.14L996.68 740.71L998.37 738.16L1000.00 735.69L999.78 732.67L999.47 728.61L999.16 724.34L998.54 719.30L998.26 717.02L997.65 712.01L997.17 708.05L993.94 694.01L992.98 689.87L992.03 685.73L990.82 680.46L989.11 674.62L988.13 671.27L987.50 669.09L986.41 665.37L986.43 660.86L986.43 658.85L986.78 655.22L986.60 652.43L986.39 649.37L986.14 645.68L982.73 641.32L979.90 637.71L977.53 634.68L975.20 631.71L971.54 629.77L966.32 627.02L962.70 626.09L957.89 624.92L951.88 623.46L948.30 622.58L945.96 622.27L941.42 621.65L935.82 621.53L930.78 621.43L925.90 620.70L921.36 620.03L914.43 616.72L910.59 614.88L903.00 611.25L899.36 609.10L886.78 601.64L880.59 597.97L877.28 596.02L873.97 594.07L869.53 591.45L867.05 589.98L863.57 587.93L858.76 585.09L851.57 580.86L846.99 578.17L845.19 577.04L840.58 574.16L835.93 571.25L829.98 567.36L820.40 561.10Z" data-ward="15" /><path id="ward-17" class="ward" d="M913.07 806.84L911.05 804.74L909.31 803.57L906.31 801.07L903.93 799.27L899.18 795.66L896.54 793.66L891.51 790.95L886.94 788.32L881.48 785.66L878.22 784.25L875.30 783.07L872.53 781.45L869.17 779.90L865.19 779.09L862.76 778.44L861.24 780.71L859.69 782.62L858.22 785.38L857.52 787.51L858.01 790.04L858.51 792.57L861.05 796.88L861.48 799.49L860.00 802.19L858.42 804.27L857.03 806.47L855.34 809.14L853.26 812.42L851.14 816.50L848.89 818.80L847.38 821.17L845.85 822.81L842.80 825.21L839.92 822.97L836.53 820.95L833.99 820.35L831.39 819.73L828.69 819.80L823.71 819.93L818.73 820.05L814.70 820.46L809.52 821.00L802.66 821.16L800.60 821.27L797.49 820.89L794.27 821.25L791.18 820.98L787.74 820.78L782.76 820.89L778.47 821.30L775.04 821.43L772.83 821.59L768.82 821.98L764.72 822.75L759.16 824.02L750.85 827.06L746.43 828.64L748.22 832.18L753.42 835.51L756.20 837.56L758.21 838.78L761.27 840.66L766.07 844.65L768.48 847.39L770.18 849.34L772.13 851.63L774.07 853.91L777.77 858.42L781.37 861.19L784.86 862.97L789.63 864.78L792.31 865.84L794.99 866.90L803.12 870.27L811.36 873.71L815.38 876.74L818.42 877.06L821.05 878.46L824.09 878.67L826.10 879.57L830.85 881.06L843.13 884.90L851.77 887.56L863.13 891.05L866.89 892.21L879.67 895.21L888.88 897.33L897.50 899.32L902.53 900.53L907.46 901.71L916.00 903.83L921.09 905.06L928.58 906.65L936.65 907.97L942.07 908.79L954.45 909.89L955.33 904.42L955.33 894.39L955.70 892.43L955.27 888.46L955.75 881.25L955.14 878.65L954.75 871.32L954.76 871.19L955.02 859.73L955.02 859.70L955.03 859.54L955.71 845.49L955.71 845.48L955.76 844.29L956.00 837.04L956.02 836.53L956.40 827.55L956.49 827.07L956.50 827.02L958.16 819.29L958.32 815.19L960.33 811.41L960.38 811.37L960.47 811.29L960.56 811.22L962.56 809.47L962.81 809.23L962.85 809.19L965.20 809.91L965.68 807.61L963.63 804.81L962.98 802.71L960.28 803.38L956.91 802.59L954.34 802.75L952.64 803.72L949.71 802.86L945.85 802.42L940.97 801.65L938.85 801.48L935.58 800.80L932.29 799.69L927.00 797.62L922.10 795.00L919.13 793.84L918.26 797.22L918.09 799.18L917.77 801.56L916.21 805.47L915.06 807.14L913.07 806.84Z" data-ward="17" /><path id="ward-20" class="ward" d="M520.57 945.54L520.99 953.67L510.30 953.31L509.36 959.06L502.13 958.56L494.66 958.33L492.49 964.08L491.40 967.24L491.06 970.96L491.55 974.51L492.22 979.06L492.13 984.13L494.79 987.53L496.57 992.07L498.58 995.34L499.13 997.75L494.21 1001.93L492.18 1002.01L485.74 1000.52L478.18 997.87L469.78 995.75L465.11 994.60L458.17 993.39L450.15 992.00L449.31 1002.38L448.47 1013.41L448.14 1017.80L447.04 1027.62L445.51 1041.26L444.15 1048.78L443.83 1055.69L443.51 1061.03L443.22 1064.41L442.45 1068.79L442.24 1070.91L442.04 1073.04L441.82 1080.49L441.93 1083.44L443.18 1095.09L445.02 1099.15L446.54 1102.06L448.06 1104.97L453.00 1114.36L458.14 1119.36L463.03 1123.66L465.14 1125.00L471.09 1128.67L476.21 1131.69L480.71 1134.35L485.02 1133.22L488.37 1132.33L508.05 1141.49L509.49 1125.65L509.72 1123.12L509.93 1120.81L510.46 1117.69L511.05 1115.59L513.73 1108.94L517.14 1100.50L521.47 1101.04L520.92 1096.24L520.93 1090.80L520.95 1076.62L520.95 1070.08L522.02 1066.81L523.95 1065.96L533.52 1067.06L538.54 1067.63L553.61 1070.50L555.60 1069.59L560.02 1062.67L562.39 1058.95L564.78 1055.22L567.37 1051.16L569.82 1047.32L572.82 1042.62L576.15 1037.40L578.84 1033.19L581.15 1029.58L583.02 1026.64L585.89 1022.15L588.88 1017.47L588.79 1011.27L588.67 1002.46L588.62 998.23L580.91 994.33L579.44 992.56L570.60 981.97L564.83 975.05L560.95 970.33L559.04 968.00L556.89 965.17L555.20 962.73L554.00 961.01L552.08 958.20L547.99 951.96L540.96 952.92L540.12 949.83L535.47 947.86L531.36 947.49L529.79 950.60L520.57 945.54Z" data-ward="20" /><path id="ward-23" class="ward" d="M516.22 901.70L516.60 896.06L516.75 893.79L517.28 890.66L517.99 887.20L517.63 884.35L516.24 880.64L516.46 876.45L517.40 872.44L517.40 870.26L518.31 867.49L519.02 864.60L519.85 861.60L521.30 858.44L522.63 855.49L523.71 851.78L524.42 849.82L526.06 845.53L527.28 842.82L528.06 841.01L529.19 838.37L530.57 833.73L531.38 831.64L533.83 827.10L535.72 823.87L537.53 821.36L539.19 818.50L541.22 815.15L541.86 812.84L543.42 809.43L543.53 806.86L543.51 804.67L543.71 801.97L541.21 797.56L536.52 798.46L534.15 799.08L531.78 799.69L529.49 800.36L526.50 801.22L523.57 802.03L521.22 802.73L518.87 803.43L515.12 804.72L512.79 806.24L510.46 807.76L506.44 810.19L499.62 814.55L496.06 816.24L489.17 818.81L484.11 820.90L480.87 822.26L477.94 823.20L473.43 824.37L470.50 824.98L467.61 825.58L462.09 826.15L459.11 827.47L456.14 828.79L453.43 829.23L451.52 829.73L449.15 830.33L445.10 830.99L440.59 831.72L437.44 832.20L433.48 833.36L430.40 834.27L426.07 834.55L424.10 835.26L421.60 836.74L418.25 837.86L415.41 839.63L412.05 841.00L408.47 842.46L404.64 843.08L401.38 843.80L402.61 851.58L403.84 862.02L404.39 867.25L402.51 870.76L401.19 873.34L399.66 876.95L398.82 878.95L397.51 883.29L405.22 886.36L409.96 887.98L418.19 891.87L408.81 914.88L406.79 919.21L405.93 921.24L404.79 923.97L403.12 928.86L401.76 932.90L401.01 935.15L399.28 939.40L397.52 942.52L396.54 945.19L402.89 949.19L406.53 950.57L409.73 951.79L412.12 952.70L417.91 953.24L428.31 954.15L431.45 954.42L443.03 955.43L453.98 958.70L455.96 956.77L456.25 954.39L456.98 950.07L460.46 936.52L464.24 931.44L468.64 925.52L476.95 917.83L519.57 911.47L522.99 910.96L539.48 908.50L546.22 908.97L569.73 910.78L571.65 910.43L574.31 909.76L576.32 907.42L575.83 904.70L571.63 904.75L537.26 905.17L533.74 905.28L530.80 905.38L519.24 905.78L516.62 905.87L516.22 901.70Z" data-ward="23" /><path id="ward-6" class="ward" d="M518.31 217.51L514.26 216.31L512.16 216.90L509.04 217.78L501.44 218.35L499.09 218.30L498.97 223.99L498.66 228.46L498.20 231.55L497.74 234.62L497.02 236.54L494.85 242.29L492.28 249.12L491.17 252.09L487.27 250.99L482.04 249.63L473.21 246.28L464.35 242.92L462.38 241.77L456.60 238.08L442.49 230.40L441.23 232.43L432.34 247.13L424.41 267.24L422.99 269.85L420.72 273.01L419.48 275.74L417.82 279.35L416.59 280.87L414.32 283.68L412.88 285.45L407.85 287.27L405.68 288.13L400.57 291.17L394.98 293.56L412.94 320.45L415.53 329.37L415.81 331.33L417.49 343.25L417.79 347.75L418.02 350.27L418.25 352.79L419.87 360.15L426.59 357.87L431.08 358.39L435.78 361.93L435.00 370.60L434.23 373.80L443.40 374.26L445.41 373.47L449.22 371.70L456.43 372.04L460.41 372.13L464.38 372.23L472.21 372.29L475.64 374.91L478.96 379.37L481.14 374.78L483.00 372.58L486.59 368.98L491.05 366.03L493.56 363.88L504.08 355.52L510.89 348.78L516.60 339.28L522.07 330.93L528.05 321.78L536.70 309.95L549.99 293.07L554.72 287.06L554.85 283.95L555.01 279.09L555.60 274.63L556.08 270.92L556.37 262.96L557.68 256.88L559.86 252.76L562.46 258.64L565.97 259.26L566.45 254.34L568.08 250.28L570.92 241.07L570.78 237.64L568.27 228.53L567.66 226.26L565.06 227.01L563.67 222.38L557.28 222.44L555.08 222.46L550.25 222.50L537.05 222.39L534.22 221.79L528.94 220.66L525.88 219.75L518.31 217.51Z" data-ward="6" /><path id="ward-3" class="ward" d="M346.87 192.78L337.42 192.77L333.40 187.12L319.48 189.76L316.86 190.26L315.07 197.16L310.82 196.21L304.34 193.46L296.52 192.34L290.12 191.76L275.37 194.02L275.65 199.19L276.08 207.01L277.98 211.63L278.20 218.31L278.98 221.90L278.70 225.22L278.74 230.14L278.40 234.86L286.37 238.22L293.41 241.19L297.20 242.79L296.69 247.96L293.31 261.78L289.71 263.86L275.96 264.55L275.04 267.46L274.10 270.39L273.89 275.62L273.65 281.22L273.19 284.38L272.62 293.18L273.37 295.30L274.12 297.43L278.11 298.94L282.08 300.44L286.05 301.94L288.05 302.69L287.46 306.90L287.01 310.06L286.56 313.26L286.26 315.37L284.92 320.87L284.00 324.67L283.01 328.74L282.48 330.92L281.78 333.82L281.14 336.46L280.74 340.16L280.19 345.27L279.26 348.34L278.11 353.14L277.15 355.18L276.97 355.56L275.98 357.78L274.95 359.38L274.22 360.52L273.70 361.70L273.54 363.28L273.64 363.98L274.17 366.28L274.04 367.26L274.03 368.79L274.00 370.21L273.88 371.51L273.84 371.99L273.65 376.38L304.62 394.64L309.00 397.50L309.75 394.71L311.24 389.14L313.37 381.24L315.38 373.75L315.56 366.72L317.77 364.34L318.36 356.23L318.66 353.75L319.47 347.17L319.90 343.91L321.00 340.36L323.00 340.89L327.00 341.80L329.42 342.14L332.36 342.96L335.30 343.78L341.59 345.55L347.59 347.03L350.09 347.60L350.23 345.10L348.26 336.62L347.84 333.59L347.56 331.57L348.44 327.84L350.44 324.77L376.83 304.97L378.57 304.03L382.00 302.19L384.67 300.75L388.27 298.21L394.98 293.56L400.57 291.17L405.68 288.13L407.85 287.27L412.88 285.45L414.32 283.68L416.59 280.87L417.82 279.35L419.48 275.74L420.72 273.01L422.99 269.85L424.41 267.24L412.74 264.75L408.44 262.54L405.57 261.94L400.60 261.18L402.71 256.84L403.64 254.37L403.14 245.00L400.43 245.21L397.76 245.43L388.03 244.59L384.52 244.06L382.48 244.21L378.89 244.26L374.19 244.34L373.47 246.84L373.01 249.56L371.77 254.42L370.32 260.13L367.59 264.08L364.39 263.86L357.45 260.26L352.31 257.80L347.07 255.50L343.73 254.14L340.40 252.78L338.32 251.90L335.50 250.23L336.64 246.64L339.89 237.81L341.50 232.29L342.57 228.61L341.84 224.03L338.59 220.33L338.92 216.86L339.17 214.23L339.76 210.42L342.62 204.70L344.24 200.16L346.87 192.78Z" data-ward="3" /><path id="ward-22" class="ward" d="M240.95 849.11L239.96 844.18L239.72 841.91L239.77 836.13L239.86 833.80L220.80 832.52L205.63 839.98L220.30 859.42L231.24 878.46L267.42 885.81L270.83 887.90L273.97 889.89L280.00 892.17L282.34 893.59L284.70 895.01L288.24 897.50L291.31 896.89L294.21 897.17L294.94 900.99L298.19 902.37L302.53 903.07L307.22 902.99L309.87 903.69L313.47 902.76L313.31 898.08L316.19 896.52L318.89 895.59L321.53 894.69L323.97 894.39L332.33 893.52L333.86 895.92L335.15 898.59L337.09 901.95L337.75 903.83L339.97 907.45L341.87 910.57L345.62 917.30L346.83 919.77L347.65 922.03L348.78 924.97L349.75 929.24L352.39 938.15L353.39 941.28L354.41 944.40L355.10 946.93L356.55 950.52L359.63 957.23L361.47 960.48L363.38 963.26L365.86 966.97L368.35 970.69L369.90 973.45L371.65 976.57L374.45 980.35L376.09 982.60L377.27 984.46L380.42 980.62L381.51 978.49L383.56 975.72L384.87 973.02L385.91 970.46L387.58 967.77L389.25 965.09L392.13 960.78L393.74 953.57L395.14 949.39L396.54 945.19L397.52 942.52L399.28 939.40L401.01 935.15L401.76 932.90L403.12 928.86L404.79 923.97L405.93 921.24L406.79 919.21L408.81 914.88L418.19 891.87L409.96 887.98L405.22 886.36L397.51 883.29L398.82 878.95L399.66 876.95L401.19 873.34L402.51 870.76L404.39 867.25L403.84 862.02L402.61 851.58L401.38 843.80L399.35 844.01L397.32 844.22L394.35 844.50L390.87 844.82L387.37 845.14L384.89 845.12L376.58 843.80L365.92 843.51L361.38 844.74L356.85 845.97L328.65 852.05L315.20 854.29L311.19 854.42L301.68 854.72L296.16 854.62L290.63 854.51L281.29 853.93L277.91 853.72L261.73 852.55L259.09 852.36L249.16 851.25L246.95 851.60L240.95 849.11Z" data-ward="22" /><path id="ward-9" class="ward" d="M604.78 258.43L606.63 252.75L608.58 246.75L612.45 239.45L606.31 229.89L602.01 231.64L595.95 233.81L590.52 235.33L588.54 236.04L584.71 237.41L578.21 239.19L570.92 241.07L568.08 250.28L566.45 254.34L565.97 259.26L562.46 258.64L559.86 252.76L557.68 256.88L556.37 262.96L556.08 270.92L555.60 274.63L555.01 279.09L554.85 283.95L554.72 287.06L549.99 293.07L536.70 309.95L528.05 321.78L522.07 330.93L516.60 339.28L510.89 348.78L504.08 355.52L493.56 363.88L499.88 365.81L503.91 367.09L508.23 366.93L509.41 364.84L510.88 363.34L512.82 361.82L514.51 360.78L518.55 359.26L521.13 358.35L528.83 358.30L533.25 358.46L534.44 355.56L534.83 353.41L545.33 352.35L551.42 351.68L557.14 350.71L562.44 348.85L565.90 347.16L568.12 347.13L573.76 345.42L576.80 344.33L579.13 343.79L583.44 342.20L588.36 341.69L589.38 344.15L595.09 343.00L599.23 341.83L602.19 341.03L603.97 348.56L604.73 351.78L617.35 405.13L620.32 417.72L623.88 432.71L634.11 432.39L636.65 431.61L639.48 431.47L647.61 429.98L649.65 429.22L656.46 428.76L662.62 426.04L666.40 422.49L669.76 418.74L671.53 415.93L672.95 413.36L674.59 412.24L676.51 410.92L679.64 408.88L684.49 405.92L687.28 404.32L691.65 401.65L690.40 397.35L687.04 390.08L681.14 379.12L677.70 370.54L671.42 365.82L674.86 364.79L677.73 364.64L681.08 364.72L683.27 364.51L687.47 364.57L691.49 364.59L695.35 364.33L698.05 364.50L700.98 364.88L703.21 364.92L706.99 363.33L709.63 362.26L713.12 362.44L716.58 363.99L720.84 364.41L723.22 364.35L726.86 363.77L731.63 364.17L734.00 364.54L738.09 364.59L741.29 364.61L744.65 365.17L747.52 365.08L749.50 364.27L751.70 362.54L754.11 360.20L754.10 355.82L752.41 353.53L750.68 353.33L750.05 353.33L749.10 353.44L745.35 352.29L740.48 348.53L739.75 346.35L733.83 343.38L724.04 340.66L716.02 336.96L712.49 333.91L712.14 333.60L711.24 333.22L711.24 333.22L707.57 331.67L707.45 331.61L704.64 330.21L696.69 327.34L696.04 325.63L695.26 325.41L690.51 323.93L686.34 318.64L679.80 316.36L676.58 317.15L673.09 316.35L671.61 316.31L671.09 316.40L669.72 316.53L669.34 316.55L667.22 316.55L666.34 316.10L666.31 316.09L661.75 313.70L657.56 310.14L654.10 307.20L651.73 305.19L647.01 303.89L646.45 301.14L643.06 298.76L638.96 295.89L634.17 290.45L629.29 289.14L626.50 289.29L617.96 287.86L616.68 286.13L614.13 284.94L610.83 280.35L609.30 276.80L607.45 272.49L605.92 268.95L605.15 261.83L604.78 258.43Z" data-ward="9" /><path id="ward-27" class="ward" d="M429.19 780.63L426.15 777.40L422.09 772.42L420.64 770.76L420.71 766.81L420.64 764.40L421.02 762.19L420.88 759.72L420.72 756.37L419.83 753.16L418.11 751.31L416.78 749.87L414.12 747.03L411.09 750.16L407.98 754.53L406.06 757.09L402.06 761.47L400.36 762.80L396.41 766.68L395.16 768.56L392.37 772.05L389.55 775.57L387.10 777.95L383.69 780.62L378.35 783.44L376.01 785.07L373.94 785.92L371.87 786.76L367.55 789.25L365.39 790.62L363.51 791.91L362.93 795.07L363.61 797.07L364.69 799.52L365.13 803.71L365.52 806.38L366.27 808.30L367.42 811.55L366.68 814.03L364.79 815.22L360.37 818.09L358.65 807.17L358.41 804.61L354.70 799.15L348.36 801.11L346.55 802.48L341.80 805.86L337.05 809.24L335.30 810.35L327.24 816.92L320.84 819.91L318.46 820.75L316.09 821.59L311.42 821.28L308.26 820.10L305.10 818.92L297.42 813.57L293.16 814.53L290.41 815.15L287.48 815.83L285.21 816.08L283.01 816.31L280.25 816.61L278.01 816.93L273.73 817.54L270.41 815.38L267.03 812.61L264.20 809.54L259.97 808.25L257.64 807.95L255.39 807.65L250.52 807.69L246.57 807.54L240.27 806.97L235.36 806.18L231.17 805.70L226.97 805.22L219.74 804.39L216.54 804.21L214.47 804.09L211.95 803.95L209.98 804.43L208.09 805.10L205.00 806.80L201.15 809.17L190.71 817.65L205.63 839.98L220.80 832.52L239.86 833.80L239.77 836.13L239.72 841.91L239.96 844.18L240.95 849.11L246.95 851.60L249.16 851.25L259.09 852.36L261.73 852.55L277.91 853.72L281.29 853.93L290.63 854.51L296.16 854.62L301.68 854.72L311.19 854.42L315.20 854.29L328.65 852.05L356.85 845.97L361.38 844.74L365.92 843.51L376.58 843.80L384.89 845.12L387.37 845.14L390.87 844.82L394.35 844.50L397.32 844.22L399.35 844.01L401.38 843.80L404.64 843.08L408.47 842.46L412.05 841.00L415.41 839.63L418.25 837.86L421.60 836.74L424.10 835.26L426.07 834.55L430.40 834.27L433.48 833.36L437.44 832.20L440.59 831.72L445.10 830.99L449.15 830.33L451.52 829.73L453.43 829.23L456.14 828.79L459.11 827.47L462.09 826.15L461.78 815.15L461.71 810.37L461.56 806.39L457.74 799.23L456.61 796.85L453.41 796.44L451.70 797.74L449.67 799.07L447.84 800.14L446.49 797.04L444.04 794.60L441.91 792.36L440.91 790.23L439.58 788.58L438.26 786.93L437.02 784.72L435.91 782.19L432.86 783.31L429.19 780.63Z" data-ward="27" /><path id="ward-11" class="ward" d="M610.19 404.68L607.16 392.16L597.54 393.10L591.93 393.64L589.62 393.72L576.46 407.92L573.04 418.23L571.11 418.60L567.74 419.19L563.46 419.91L560.45 421.12L555.62 422.87L550.06 425.35L546.95 426.17L541.30 427.54L536.06 428.98L530.05 431.48L527.87 432.39L529.01 434.74L530.67 438.42L529.41 442.43L528.24 446.17L525.58 454.68L523.46 461.63L520.97 464.78L519.00 466.27L518.25 469.59L517.89 472.41L517.93 475.54L517.52 478.64L517.57 481.37L522.17 481.66L524.14 482.26L531.49 484.55L538.21 486.06L540.61 486.60L542.84 486.85L547.51 486.96L552.71 486.32L556.55 485.84L559.12 486.44L560.28 490.53L561.02 493.01L561.13 496.19L560.48 501.45L560.23 504.10L560.02 506.47L557.51 514.69L558.28 521.61L558.70 525.83L558.97 528.57L559.49 532.44L559.92 536.37L555.74 539.52L551.78 542.45L550.01 543.53L545.58 546.21L539.17 550.01L536.24 550.00L532.86 549.98L530.94 550.55L527.98 551.44L525.48 551.98L522.11 552.72L518.12 553.62L510.06 555.80L506.91 555.58L509.98 559.63L514.04 565.01L515.33 566.65L519.50 572.24L523.28 577.24L527.21 581.33L541.22 581.25L551.96 581.35L572.17 582.17L574.63 581.05L577.63 575.51L578.50 571.93L582.24 558.26L583.66 554.13L581.17 547.22L580.98 543.71L580.80 541.70L579.79 539.73L577.39 536.58L575.68 532.79L582.39 531.81L586.67 530.13L594.71 529.38L598.17 528.53L605.62 523.31L610.77 520.18L620.01 516.83L624.95 515.16L628.70 514.01L631.45 513.43L635.12 512.42L636.24 517.26L637.60 523.17L642.26 545.49L643.09 548.53L646.91 547.25L649.54 546.34L623.88 432.71L620.32 417.72L617.35 405.13L611.78 406.78L610.19 404.68Z" data-ward="11" /><path id="ward-14" class="ward" d="M801.50 692.95L801.76 688.77L802.50 684.81L802.44 681.76L802.46 679.13L802.22 674.69L801.66 671.69L802.17 668.92L804.89 666.39L805.90 664.52L805.10 661.38L804.84 657.48L802.19 653.29L798.93 652.52L794.85 650.25L793.09 648.46L791.34 646.69L788.66 644.58L787.07 643.19L785.50 641.85L781.93 640.05L778.75 637.98L775.70 636.85L768.30 634.09L766.07 633.96L762.40 633.75L757.46 633.37L755.25 633.17L751.44 633.02L747.63 632.87L744.65 632.86L741.68 632.85L737.81 633.27L734.33 633.34L732.21 633.45L726.54 634.01L722.79 635.26L715.57 638.59L712.44 640.97L709.64 644.33L707.85 648.58L715.76 660.16L722.56 672.22L725.93 675.55L728.68 679.45L730.33 681.81L731.99 684.17L736.63 691.51L739.72 697.02L743.87 707.09L744.26 709.82L744.76 713.30L746.29 724.13L724.71 733.74L726.29 719.02L726.70 715.42L726.15 712.06L725.02 707.38L724.18 704.51L722.68 702.23L719.64 697.69L716.47 694.21L713.58 689.71L710.64 685.43L708.52 682.47L705.21 681.43L701.42 680.25L697.26 683.58L695.13 685.95L693.95 687.59L692.09 689.57L691.54 691.78L690.37 695.12L688.36 697.44L686.22 699.86L683.66 702.76L679.94 707.40L677.26 711.38L674.85 714.06L673.57 715.64L670.81 718.39L668.14 721.16L664.26 722.11L660.49 723.94L660.29 727.57L661.41 731.07L662.10 734.67L665.54 738.33L665.85 740.90L666.23 744.30L666.50 746.68L666.45 751.46L666.10 753.89L665.74 756.90L665.94 760.24L666.40 766.70L667.55 768.36L670.01 769.80L668.45 772.72L667.31 774.87L665.38 778.47L664.10 780.89L661.45 784.19L664.73 787.13L670.03 792.38L675.95 798.19L677.68 799.41L682.88 803.05L679.66 814.35L681.64 816.48L741.53 831.22L746.43 828.64L750.85 827.06L759.16 824.02L764.72 822.75L768.82 821.98L772.83 821.59L775.04 821.43L778.47 821.30L782.76 820.89L787.74 820.78L791.18 820.98L794.27 821.25L797.49 820.89L800.60 821.27L802.66 821.16L809.52 821.00L814.70 820.46L818.73 820.05L823.71 819.93L828.69 819.80L831.39 819.73L833.99 820.35L836.53 820.95L839.92 822.97L842.80 825.21L845.85 822.81L847.38 821.17L848.89 818.80L851.14 816.50L853.26 812.42L855.34 809.14L857.03 806.47L858.42 804.27L860.00 802.19L861.48 799.49L861.05 796.88L858.51 792.57L858.01 790.04L854.93 788.79L852.21 786.23L847.20 784.33L843.97 783.15L817.06 771.11L788.94 745.25L752.21 711.46L761.34 705.25L765.71 699.93L769.55 697.79L773.50 695.39L776.16 695.60L778.19 696.47L780.86 695.54L787.81 694.99L795.05 695.39L799.96 695.35L802.30 695.23L801.50 692.95Z" data-ward="14" /><path id="ward-24" class="ward" d="M609.36 889.17L639.97 851.28L653.94 833.99L655.33 831.73L657.24 828.98L659.48 826.25L664.39 817.83L667.35 813.48L662.93 812.34L655.92 810.96L648.37 807.35L642.87 799.93L637.65 796.54L634.60 794.51L631.55 792.48L625.28 788.11L621.41 785.17L617.73 784.93L604.71 786.57L602.13 786.95L594.76 788.04L591.10 788.53L586.09 789.15L579.27 790.11L573.19 791.35L564.50 793.62L559.47 794.62L551.77 795.91L547.21 796.60L541.21 797.56L543.71 801.97L543.51 804.67L543.53 806.86L543.42 809.43L541.86 812.84L541.22 815.15L539.19 818.50L537.53 821.36L535.72 823.87L533.83 827.10L531.38 831.64L530.57 833.73L529.19 838.37L528.06 841.01L527.28 842.82L526.06 845.53L524.42 849.82L523.71 851.78L522.63 855.49L521.30 858.44L519.85 861.60L519.02 864.60L518.31 867.49L517.40 870.26L517.40 872.44L516.46 876.45L516.24 880.64L517.63 884.35L517.99 887.20L517.28 890.66L516.75 893.79L516.60 896.06L516.22 901.70L516.62 905.87L519.24 905.78L530.80 905.38L533.74 905.28L537.26 905.17L571.63 904.75L575.83 904.70L576.32 907.42L580.56 913.30L596.00 906.81L609.36 889.17Z" data-ward="24" /><path id="ward-16" class="ward" d="M935.12 669.10L935.17 666.64L935.23 664.17L934.73 661.85L934.06 659.93L933.39 658.00L930.93 656.46L928.04 657.07L925.72 657.78L923.00 658.80L918.47 660.52L916.30 661.06L914.39 661.80L912.48 662.54L908.40 664.20L905.37 665.29L899.03 668.19L896.48 668.82L894.49 669.78L892.45 670.43L888.28 670.72L884.48 671.08L882.39 670.87L880.36 670.60L877.29 672.34L875.59 673.73L873.88 675.13L871.85 678.59L871.14 681.17L868.55 683.08L865.96 682.69L863.21 682.04L860.23 682.53L856.62 682.71L853.73 683.26L850.10 684.25L846.74 685.64L844.48 686.58L841.17 687.87L839.40 689.35L835.78 691.10L833.49 691.81L831.11 692.35L828.04 693.20L823.71 694.23L821.18 694.48L818.34 694.75L812.63 695.52L810.56 695.46L808.48 695.43L805.88 695.48L802.30 695.23L799.96 695.35L795.05 695.39L787.81 694.99L780.86 695.54L778.19 696.47L776.16 695.60L773.50 695.39L769.55 697.79L765.71 699.93L761.34 705.25L752.21 711.46L788.94 745.25L817.06 771.11L843.97 783.15L847.20 784.33L852.21 786.23L854.93 788.79L858.01 790.04L857.52 787.51L858.22 785.38L859.69 782.62L861.24 780.71L862.76 778.44L865.19 779.09L869.17 779.90L872.53 781.45L875.30 783.07L878.22 784.25L881.48 785.66L886.94 788.32L891.51 790.95L896.54 793.66L899.18 795.66L903.93 799.27L906.31 801.07L909.31 803.57L911.05 804.74L913.07 806.84L915.06 807.14L916.21 805.47L917.77 801.56L918.09 799.18L918.26 797.22L919.13 793.84L922.10 795.00L927.00 797.62L932.29 799.69L935.58 800.80L938.85 801.48L940.97 801.65L945.85 802.42L949.71 802.86L952.64 803.72L954.34 802.75L956.91 802.59L960.28 803.38L962.98 802.71L964.53 801.39L964.85 800.61L964.89 800.50L964.92 800.40L965.00 799.76L965.06 799.36L966.20 797.99L967.11 795.41L966.23 791.68L968.92 789.29L968.78 787.05L968.81 786.97L968.33 784.72L970.02 783.13L970.39 781.64L970.53 781.23L970.64 781.00L972.21 778.55L973.15 776.60L975.39 773.46L976.58 770.25L978.90 766.86L988.65 752.63L992.94 746.38L988.93 746.18L986.84 746.09L984.73 745.45L981.12 744.43L976.37 742.12L973.71 740.93L969.29 738.99L965.57 737.30L959.63 734.28L959.66 729.27L959.48 726.58L959.10 723.07L959.10 720.70L959.01 717.75L958.88 713.48L959.10 710.19L957.90 706.87L954.43 706.46L951.42 706.52L948.16 706.58L943.58 706.36L939.61 706.43L935.34 706.94L933.35 707.37L931.23 707.59L928.78 708.05L925.22 708.38L923.19 708.38L919.38 707.40L919.07 705.44L919.07 703.24L919.31 700.91L919.73 698.37L919.44 694.17L919.68 691.98L920.58 687.24L922.23 684.49L923.81 682.85L926.27 679.87L928.43 677.72L930.39 675.14L931.92 673.28L935.12 669.10Z" data-ward="16" /><path id="ward-30" class="ward" d="M514.31 574.36L510.46 570.29L505.09 564.08L496.38 555.35L488.32 547.20L474.65 533.70L467.40 526.24L460.14 518.78L454.23 512.53L452.12 509.96L444.45 502.94L432.40 491.04L430.67 489.34L424.59 482.59L420.96 478.55L418.86 479.06L417.53 482.05L416.19 485.03L414.30 488.07L412.40 491.11L409.51 495.36L403.23 510.16L399.55 519.48L395.84 530.64L395.98 535.03L395.99 537.95L396.00 540.88L395.89 547.96L396.07 556.97L396.05 559.62L396.03 562.27L394.44 573.29L393.65 578.64L389.74 589.02L384.44 588.62L374.16 587.50L371.43 587.00L367.51 588.61L365.24 592.59L362.10 597.82L360.04 606.11L359.23 609.10L358.43 612.08L357.44 622.07L354.86 633.82L354.12 639.92L352.36 644.99L347.92 655.73L347.07 661.00L349.69 661.63L360.03 664.12L378.27 665.23L381.13 664.99L384.05 661.99L384.58 657.96L387.76 655.15L385.88 648.25L386.01 643.20L386.89 639.99L391.06 638.97L396.48 639.61L402.53 640.80L410.35 640.30L416.87 639.54L420.20 638.24L419.44 633.66L417.15 623.97L414.82 615.01L413.69 604.29L412.54 592.89L411.92 585.61L415.58 585.24L419.91 584.83L423.42 581.59L430.18 577.11L433.78 579.45L438.23 583.85L443.28 593.89L446.76 599.42L452.48 599.06L456.81 598.31L462.56 597.20L475.27 594.85L484.53 592.73L489.37 592.17L492.68 591.64L492.74 595.73L492.73 600.68L492.35 605.72L492.39 610.83L492.39 614.53L492.36 617.59L492.33 620.63L491.48 630.87L492.13 640.38L513.12 641.30L517.36 640.59L518.15 638.31L523.11 636.05L526.96 635.88L534.39 634.55L541.80 633.23L551.29 630.68L536.53 608.38L530.19 598.78L527.18 594.16L530.07 591.02L514.31 574.36Z" data-ward="30" /><path id="ward-7" class="ward" d="M417.49 343.25L415.81 331.33L415.53 329.37L412.94 320.45L394.98 293.56L388.27 298.21L384.67 300.75L382.00 302.19L378.57 304.03L376.83 304.97L350.44 324.77L348.44 327.84L347.56 331.57L347.84 333.59L348.26 336.62L350.23 345.10L350.09 347.60L347.59 347.03L341.59 345.55L335.30 343.78L332.36 342.96L329.42 342.14L327.00 341.80L323.00 340.89L321.00 340.36L319.90 343.91L319.47 347.17L318.66 353.75L318.36 356.23L317.77 364.34L315.56 366.72L315.38 373.75L313.37 381.24L311.24 389.14L309.75 394.71L309.00 397.50L318.79 403.88L323.92 407.22L333.84 413.24L343.80 419.29L345.54 420.30L347.33 423.58L353.20 425.84L359.98 430.15L394.46 454.31L408.18 468.22L415.03 475.21L421.35 473.61L426.86 464.73L434.27 454.59L438.53 450.10L440.46 448.06L441.81 445.95L444.88 440.64L449.09 440.34L451.10 440.46L455.48 439.30L455.99 437.38L458.90 430.37L462.34 421.99L465.03 416.31L468.97 408.43L470.64 403.74L471.75 400.40L472.85 397.05L473.85 394.03L476.91 389.31L477.53 384.66L478.96 379.37L475.64 374.91L472.21 372.29L464.38 372.23L460.41 372.13L456.43 372.04L449.22 371.70L445.41 373.47L443.40 374.26L434.23 373.80L435.00 370.60L435.78 361.93L431.08 358.39L426.59 357.87L419.87 360.15L418.25 352.79L418.02 350.27L417.79 347.75L417.49 343.25Z" data-ward="7" /><path id="ward-1" class="ward" d="M198.31 501.49L198.80 498.55L199.29 495.60L199.76 491.72L200.11 488.05L200.72 483.75L201.12 481.32L200.92 477.61L200.22 473.94L198.51 468.19L198.01 466.00L197.20 463.68L194.86 460.25L190.89 457.82L187.99 455.26L184.76 453.12L182.19 451.68L180.41 450.81L178.38 449.69L176.31 448.50L173.17 446.03L171.31 445.12L169.46 444.21L165.77 442.13L161.97 440.09L159.68 438.68L156.95 437.22L154.67 436.22L151.62 434.25L148.10 432.37L145.49 431.04L143.52 429.94L141.16 428.44L139.20 427.33L136.72 425.65L134.41 424.40L129.86 421.94L127.64 420.48L124.94 418.51L121.88 416.66L119.59 420.58L118.74 423.01L117.11 424.78L114.08 425.26L111.37 425.53L108.72 425.79L102.40 426.28L99.69 427.27L98.62 428.94L98.07 429.12L95.25 431.08L90.14 432.44L81.17 432.70L82.25 441.70L83.06 444.81L84.55 450.51L85.23 453.18L85.84 455.59L87.44 462.10L87.54 466.00L88.81 472.40L89.55 477.11L90.35 485.33L91.12 493.17L91.37 500.41L73.13 501.28L66.21 501.61L58.77 502.03L55.75 502.35L52.51 501.49L51.13 502.28L48.93 503.08L47.63 503.08L46.10 503.35L35.88 507.06L26.93 508.60L24.95 509.56L23.18 510.41L16.52 513.61L12.67 518.42L5.85 526.91L0.00 534.20L25.77 573.16L29.26 569.89L40.45 569.45L50.73 572.47L55.64 582.69L58.17 587.94L62.87 594.72L80.36 607.06L90.74 614.70L96.60 621.90L102.59 627.73L106.89 630.47L114.50 633.86L125.25 638.40L131.34 640.15L136.86 641.73L147.92 648.07L150.08 639.25L150.97 636.83L151.80 634.57L153.46 630.07L154.11 627.00L154.63 624.52L155.32 621.26L156.84 615.98L157.39 613.89L157.81 602.00L157.47 598.57L157.52 593.26L162.07 591.32L163.98 590.74L166.19 589.60L167.09 583.90L167.29 570.87L167.13 567.22L170.38 566.81L172.75 566.56L180.13 566.14L182.06 565.87L187.54 565.10L191.92 564.48L195.65 563.39L196.24 567.38L197.09 571.50L199.52 571.32L202.62 570.02L202.86 567.96L203.26 564.59L203.51 558.23L203.16 555.54L202.45 550.12L202.01 546.73L201.46 542.68L199.94 531.66L199.82 528.32L199.64 524.23L199.34 520.03L198.65 512.99L197.85 507.80L197.68 504.41L198.31 501.49Z" data-ward="1" /><path id="ward-29" class="ward" d="M443.28 593.89L438.23 583.85L433.78 579.45L430.18 577.11L423.42 581.59L419.91 584.83L415.58 585.24L411.92 585.61L412.54 592.89L413.69 604.29L414.82 615.01L417.15 623.97L419.44 633.66L420.20 638.24L416.87 639.54L410.35 640.30L402.53 640.80L396.48 639.61L391.06 638.97L386.89 639.99L386.01 643.20L385.88 648.25L387.76 655.15L384.58 657.96L384.05 661.99L381.13 664.99L382.91 673.53L383.41 675.94L384.75 681.82L385.68 689.48L386.33 692.83L388.62 697.86L391.77 698.13L393.62 697.51L397.84 696.60L399.35 699.93L400.62 702.72L401.38 706.07L402.36 710.54L401.11 713.79L399.71 716.31L386.49 722.03L383.24 724.84L376.98 730.24L369.87 732.82L364.75 734.75L362.37 735.78L362.20 739.99L361.61 748.30L361.27 753.15L350.41 760.30L344.43 761.75L343.16 764.31L342.30 766.56L341.45 768.80L339.86 773.48L341.04 777.04L342.13 780.70L346.26 779.49L348.65 778.36L352.20 776.44L354.67 774.95L359.67 771.51L369.07 762.93L376.33 756.31L379.73 753.45L388.08 746.44L394.23 741.27L396.58 739.30L405.03 730.83L407.43 729.46L403.87 716.35L407.69 713.93L411.51 711.52L413.11 710.40L415.88 708.62L418.02 706.85L420.18 705.06L426.30 698.60L425.89 695.15L429.56 692.96L432.46 690.52L433.92 689.15L433.88 686.24L437.19 683.76L440.49 681.29L442.18 679.84L443.87 678.39L446.07 676.43L448.26 674.47L450.04 672.87L453.94 670.05L460.62 670.07L464.91 669.13L470.31 670.64L477.63 672.35L483.38 674.10L490.54 676.31L490.54 669.89L491.24 660.34L491.81 647.00L492.13 640.38L491.48 630.87L492.33 620.63L492.36 617.59L492.39 614.53L492.39 610.83L492.35 605.72L492.73 600.68L492.74 595.73L492.68 591.64L489.37 592.17L484.53 592.73L475.27 594.85L462.56 597.20L456.81 598.31L452.48 599.06L446.76 599.42L443.28 593.89Z" data-ward="29" /><path id="ward-12" class="ward" d="M642.26 545.49L637.60 523.17L636.24 517.26L635.12 512.42L631.45 513.43L628.70 514.01L624.95 515.16L620.01 516.83L610.77 520.18L605.62 523.31L598.17 528.53L594.71 529.38L586.67 530.13L582.39 531.81L575.68 532.79L577.39 536.58L579.79 539.73L580.80 541.70L580.98 543.71L581.17 547.22L583.66 554.13L582.24 558.26L578.50 571.93L577.63 575.51L574.63 581.05L572.17 582.17L551.96 581.35L541.22 581.25L527.21 581.33L532.99 588.52L530.07 591.02L527.18 594.16L530.19 598.78L536.53 608.38L551.29 630.68L558.85 641.22L562.67 646.85L567.56 653.95L569.70 658.25L571.24 660.84L572.55 663.04L580.09 675.05L581.70 677.62L583.54 680.26L585.38 682.90L589.02 688.07L590.48 690.13L599.52 695.02L599.49 688.85L597.94 682.90L596.40 679.68L594.01 672.87L593.00 670.40L592.99 668.23L592.97 665.38L594.71 661.63L597.41 659.18L603.80 655.34L608.06 653.88L611.16 653.15L613.31 653.44L616.05 653.81L623.89 659.34L630.24 663.65L633.89 665.19L639.74 667.27L643.16 665.72L651.60 658.52L653.96 653.61L654.81 649.52L659.06 647.47L662.07 646.92L664.32 646.66L673.65 645.60L676.02 645.32L679.63 643.98L681.11 640.96L682.79 639.66L688.87 636.25L694.19 633.14L691.35 627.22L689.57 624.80L685.30 620.47L682.72 613.84L676.52 602.25L675.62 598.51L673.67 593.03L672.20 588.23L670.96 582.44L668.63 575.02L666.91 569.55L665.36 562.57L664.20 557.74L661.47 551.82L660.98 549.91L660.49 547.03L659.92 544.07L649.54 546.34L646.91 547.25L643.09 548.53L642.26 545.49Z" data-ward="12" /><path id="ward-33" class="ward" d="M171.65 658.28L168.77 657.83L165.86 657.38L162.55 656.87L158.29 654.59L153.86 652.57L150.07 650.63L147.92 648.07L136.86 641.73L131.34 640.15L125.25 638.40L114.50 633.86L106.89 630.47L102.59 627.73L96.60 621.90L90.74 614.70L80.36 607.06L62.87 594.72L58.17 587.94L55.64 582.69L50.73 572.47L40.45 569.45L29.26 569.89L25.77 573.16L28.59 578.13L33.33 589.23L37.18 602.97L38.49 615.74L41.53 623.55L48.21 640.88L51.44 649.24L52.48 659.47L53.18 674.13L56.55 694.38L64.71 699.48L72.78 699.14L84.47 706.81L110.88 734.33L156.71 774.86L190.71 817.65L201.15 809.17L205.00 806.80L208.09 805.10L209.98 804.43L211.95 803.95L214.47 804.09L216.54 804.21L219.74 804.39L226.97 805.22L231.17 805.70L235.36 806.18L240.27 806.97L246.57 807.54L250.52 807.69L255.39 807.65L257.64 807.95L259.97 808.25L264.20 809.54L267.03 812.61L270.41 815.38L273.73 817.54L278.01 816.93L280.25 816.61L283.01 816.31L285.21 816.08L287.48 815.83L290.41 815.15L293.16 814.53L297.42 813.57L296.48 810.41L295.87 807.59L295.27 804.24L294.60 800.48L293.40 794.69L290.18 791.57L285.69 789.39L272.57 784.46L266.31 783.17L262.38 782.89L258.38 780.64L263.53 779.34L268.44 779.91L271.25 779.87L275.19 779.80L280.80 779.34L282.94 778.62L284.98 777.92L285.60 774.39L285.17 770.65L283.97 766.16L279.39 756.26L271.70 742.80L268.73 737.44L266.23 730.59L259.44 718.62L250.11 711.94L242.38 707.27L227.16 700.81L223.81 698.96L220.45 697.11L210.86 691.31L206.55 684.76L204.97 679.03L203.93 675.15L202.55 669.90L201.14 664.67L197.54 662.69L194.49 661.31L190.87 660.28L186.11 659.09L182.97 659.74L178.45 659.85L171.65 658.28Z" data-ward="33" /><path id="ward-4" class="ward" d="M433.35 3.96L408.43 1.68L397.00 0.00L384.32 8.58L369.93 18.32L368.21 22.49L357.42 19.69L353.69 18.72L344.90 17.72L340.05 17.17L336.90 14.53L329.82 11.59L327.80 10.75L320.49 4.25L318.94 2.88L312.95 6.54L308.37 9.34L303.61 9.66L299.74 9.92L294.13 10.30L292.58 11.58L286.32 16.73L283.80 20.56L281.28 24.39L276.35 28.18L273.25 29.06L270.28 29.90L249.54 41.05L251.18 44.34L252.83 47.64L242.07 50.78L243.00 55.89L243.64 59.46L245.97 61.98L246.42 68.42L249.38 68.91L246.62 76.25L244.92 80.78L242.89 86.21L241.06 91.07L241.06 91.08L239.82 93.43L238.30 96.56L241.02 99.10L241.56 99.60L243.00 101.27L243.16 101.21L245.06 103.38L245.76 103.89L246.32 104.38L247.34 105.41L246.09 108.03L248.06 116.75L248.38 123.84L248.94 130.53L252.92 129.40L253.28 132.76L253.32 136.16L252.82 138.51L252.36 140.74L249.86 143.95L249.29 149.07L249.00 151.59L248.70 154.21L251.08 156.92L255.71 158.67L257.77 160.74L257.89 160.78L258.10 160.85L261.99 161.81L263.62 161.80L264.14 161.86L267.45 162.61L268.60 164.28L267.60 175.14L267.16 179.89L267.22 182.39L271.35 194.01L275.37 194.02L290.12 191.76L293.03 184.36L293.84 182.24L296.31 174.85L300.19 165.72L298.54 160.05L298.98 157.89L299.83 153.70L302.16 146.15L302.95 140.55L303.58 136.57L308.38 135.22L312.68 135.13L318.41 136.56L325.29 136.15L341.69 133.93L352.26 132.50L364.32 129.20L371.43 127.25L375.24 126.32L391.87 122.94L397.65 123.25L406.86 125.96L415.41 130.89L435.72 117.40L492.74 83.97L513.56 72.38L508.45 48.71L495.64 32.01L488.80 26.90L484.73 23.86L480.69 20.84L472.65 14.84L460.12 5.49L452.84 4.54L446.75 5.70L433.35 3.96Z" data-ward="4" /><path id="ward-25" class="ward" d="M558.85 641.22L551.29 630.68L541.80 633.23L534.39 634.55L526.96 635.88L523.11 636.05L518.15 638.31L517.36 640.59L513.12 641.30L492.13 640.38L491.81 647.00L491.24 660.34L490.54 669.89L490.54 676.31L490.47 683.87L491.47 694.37L491.54 696.88L491.61 699.39L491.66 703.61L491.64 706.82L491.63 710.03L491.36 712.63L491.09 715.23L490.58 718.79L489.74 723.68L488.97 728.92L488.40 731.11L487.82 733.30L486.96 735.98L489.21 735.82L491.65 735.61L496.58 734.50L501.05 733.19L508.77 730.71L513.76 729.64L519.05 728.40L522.29 732.18L523.97 736.21L525.83 740.68L529.01 748.43L529.82 750.74L531.36 755.21L532.05 757.63L532.73 760.04L534.38 767.91L534.99 770.28L536.11 774.57L537.55 779.61L538.62 783.13L540.86 790.19L542.33 793.97L541.21 797.56L547.21 796.60L551.77 795.91L559.47 794.62L564.50 793.62L573.19 791.35L579.27 790.11L586.09 789.15L591.10 788.53L594.76 788.04L602.13 786.95L604.71 786.57L617.73 784.93L621.41 785.17L627.26 784.67L630.65 785.00L638.86 785.84L644.49 786.86L655.85 787.02L661.45 784.19L656.95 781.63L655.29 780.25L651.33 777.64L647.57 775.09L645.01 772.69L642.97 770.63L639.68 767.31L637.13 764.17L634.83 761.06L632.72 758.34L630.70 755.76L629.16 753.78L627.85 752.13L626.11 748.70L623.86 744.64L621.75 740.83L617.66 733.45L615.46 729.46L613.77 726.54L612.04 721.92L610.78 719.31L609.52 716.69L608.00 714.19L606.98 711.04L605.75 708.25L604.22 705.22L602.55 701.13L601.05 698.11L599.52 695.02L590.48 690.13L589.02 688.07L585.38 682.90L583.54 680.26L581.70 677.62L580.09 675.05L572.55 663.04L571.24 660.84L569.70 658.25L567.56 653.95L562.67 646.85L558.85 641.22Z" data-ward="25" /><path id="ward-26" class="ward" d="M464.91 669.13L460.62 670.07L453.94 670.05L450.04 672.87L448.26 674.47L446.07 676.43L443.87 678.39L442.18 679.84L440.49 681.29L437.19 683.76L433.88 686.24L433.92 689.15L432.46 690.52L429.56 692.96L425.89 695.15L426.30 698.60L420.18 705.06L418.02 706.85L415.88 708.62L413.11 710.40L411.51 711.52L407.69 713.93L403.87 716.35L407.43 729.46L405.03 730.83L407.92 734.54L415.39 745.06L414.12 747.03L416.78 749.87L418.11 751.31L419.83 753.16L420.72 756.37L420.88 759.72L421.02 762.19L420.64 764.40L420.71 766.81L420.64 770.76L422.09 772.42L426.15 777.40L429.19 780.63L432.86 783.31L435.91 782.19L437.02 784.72L438.26 786.93L439.58 788.58L440.91 790.23L441.91 792.36L444.04 794.60L446.49 797.04L447.84 800.14L449.67 799.07L451.70 797.74L453.41 796.44L456.61 796.85L457.74 799.23L461.56 806.39L461.71 810.37L461.78 815.15L462.09 826.15L467.61 825.58L470.50 824.98L473.43 824.37L477.94 823.20L480.87 822.26L484.11 820.90L489.17 818.81L496.06 816.24L499.62 814.55L506.44 810.19L510.46 807.76L512.79 806.24L515.12 804.72L518.87 803.43L521.22 802.73L523.57 802.03L526.50 801.22L529.49 800.36L531.78 799.69L534.15 799.08L536.52 798.46L541.21 797.56L542.33 793.97L540.86 790.19L538.62 783.13L537.55 779.61L536.11 774.57L534.99 770.28L534.38 767.91L532.73 760.04L532.05 757.63L531.36 755.21L529.82 750.74L529.01 748.43L525.83 740.68L523.97 736.21L522.29 732.18L519.05 728.40L513.76 729.64L508.77 730.71L501.05 733.19L496.58 734.50L491.65 735.61L489.21 735.82L486.96 735.98L487.82 733.30L488.40 731.11L488.97 728.92L489.74 723.68L490.58 718.79L491.09 715.23L491.36 712.63L491.63 710.03L491.64 706.82L491.66 703.61L491.61 699.39L491.54 696.88L491.47 694.37L490.47 683.87L490.54 676.31L483.38 674.10L477.63 672.35L470.31 670.64L464.91 669.13Z" data-ward="26" /><path id="ward-13" class="ward" d="M715.76 660.16L707.85 648.58L704.86 646.88L697.86 639.31L694.19 633.14L688.87 636.25L682.79 639.66L681.11 640.96L679.63 643.98L676.02 645.32L673.65 645.60L664.32 646.66L662.07 646.92L659.06 647.47L654.81 649.52L653.96 653.61L651.60 658.52L643.16 665.72L639.74 667.27L633.89 665.19L630.24 663.65L623.89 659.34L616.05 653.81L613.31 653.44L611.16 653.15L608.06 653.88L603.80 655.34L597.41 659.18L594.71 661.63L592.97 665.38L592.99 668.23L593.00 670.40L594.01 672.87L596.40 679.68L597.94 682.90L599.49 688.85L599.52 695.02L601.05 698.11L602.55 701.13L604.22 705.22L605.75 708.25L606.98 711.04L608.00 714.19L609.52 716.69L610.78 719.31L612.04 721.92L613.77 726.54L615.46 729.46L617.66 733.45L621.75 740.83L623.86 744.64L626.11 748.70L627.85 752.13L629.16 753.78L630.70 755.76L632.72 758.34L634.83 761.06L637.13 764.17L639.68 767.31L642.97 770.63L645.01 772.69L647.57 775.09L651.33 777.64L655.29 780.25L656.95 781.63L661.45 784.19L664.10 780.89L665.38 778.47L667.31 774.87L668.45 772.72L670.01 769.80L667.55 768.36L666.40 766.70L665.94 760.24L665.74 756.90L666.10 753.89L666.45 751.46L666.50 746.68L666.23 744.30L665.85 740.90L665.54 738.33L662.10 734.67L661.41 731.07L660.29 727.57L660.49 723.94L664.26 722.11L668.14 721.16L670.81 718.39L673.57 715.64L674.85 714.06L677.26 711.38L679.94 707.40L683.66 702.76L686.22 699.86L688.36 697.44L690.37 695.12L691.54 691.78L692.09 689.57L693.95 687.59L695.13 685.95L697.26 683.58L701.42 680.25L705.21 681.43L708.52 682.47L710.64 685.43L713.58 689.71L716.47 694.21L719.64 697.69L722.68 702.23L724.18 704.51L725.02 707.38L726.15 712.06L726.70 715.42L726.29 719.02L724.71 733.74L746.29 724.13L744.76 713.30L744.26 709.82L743.87 707.09L739.72 697.02L736.63 691.51L731.99 684.17L730.33 681.81L728.68 679.45L725.93 675.55L722.56 672.22L715.76 660.16Z" data-ward="13" /><path id="ward-10" class="ward" d="M754.11 360.20L751.70 362.54L749.50 364.27L747.52 365.08L744.65 365.17L741.29 364.61L738.09 364.59L734.00 364.54L731.63 364.17L726.86 363.77L723.22 364.35L720.84 364.41L716.58 363.99L713.12 362.44L709.63 362.26L706.99 363.33L703.21 364.92L700.98 364.88L698.05 364.50L695.35 364.33L691.49 364.59L687.47 364.57L683.27 364.51L681.08 364.72L677.73 364.64L674.86 364.79L671.42 365.82L677.70 370.54L681.14 379.12L687.04 390.08L690.40 397.35L691.65 401.65L687.28 404.32L684.49 405.92L679.64 408.88L676.51 410.92L674.59 412.24L672.95 413.36L671.53 415.93L669.76 418.74L666.40 422.49L662.62 426.04L656.46 428.76L649.65 429.22L647.61 429.98L639.48 431.47L636.65 431.61L634.11 432.39L623.88 432.71L649.54 546.34L659.92 544.07L660.49 547.03L660.98 549.91L661.47 551.82L664.20 557.74L665.36 562.57L666.91 569.55L668.63 575.02L670.96 582.44L672.20 588.23L673.67 593.03L675.62 598.51L676.52 602.25L682.72 613.84L685.30 620.47L689.57 624.80L691.35 627.22L696.18 625.34L700.22 623.92L702.32 623.18L707.02 621.12L711.63 619.84L714.61 618.67L717.54 617.59L720.63 616.68L723.11 615.92L724.93 614.95L727.91 612.94L731.22 611.13L730.86 608.63L729.73 606.12L729.32 603.60L727.76 598.17L726.75 595.87L725.74 591.35L724.92 588.00L724.33 585.98L723.42 582.11L722.65 579.22L721.69 576.67L724.91 574.80L728.15 574.18L730.82 573.73L733.11 573.18L736.55 572.71L738.97 572.20L742.13 572.44L745.48 571.50L747.32 570.87L756.76 569.65L759.24 569.81L762.21 569.02L766.16 569.03L769.17 568.20L772.93 567.30L775.77 567.02L778.98 566.12L782.18 566.19L785.50 565.22L788.53 564.93L793.22 563.64L801.98 562.41L806.28 561.53L809.95 560.90L812.31 560.45L814.83 559.72L816.44 557.80L812.38 554.42L807.59 551.34L804.97 549.66L798.83 542.95L793.33 535.11L786.54 525.43L784.79 510.57L783.33 498.17L779.22 487.29L772.38 469.19L763.17 444.77L762.46 442.85L758.14 431.17L758.71 423.02L757.74 417.09L757.16 413.76L755.41 403.17L755.09 391.56L754.60 375.93L754.11 360.20Z" data-ward="10" /><path id="ward-32" class="ward" d="M284.25 593.84L282.67 591.14L272.77 595.85L267.47 597.67L265.38 598.39L259.60 598.77L257.02 598.93L254.54 599.09L254.10 602.47L249.86 603.81L247.43 604.87L245.15 605.87L236.64 609.78L230.24 614.77L228.67 617.39L226.53 618.72L224.06 619.45L216.07 620.07L212.74 621.69L209.37 623.45L206.14 623.40L203.32 623.56L202.97 629.00L202.10 637.24L202.14 639.46L202.19 642.80L202.02 647.99L201.54 656.92L201.39 659.63L201.14 664.67L202.55 669.90L203.93 675.15L204.97 679.03L206.55 684.76L210.86 691.31L220.45 697.11L223.81 698.96L227.16 700.81L242.38 707.27L250.11 711.94L259.44 718.62L266.23 730.59L268.73 737.44L278.56 733.13L281.78 732.28L286.87 730.93L292.76 728.83L295.99 727.68L301.04 724.92L303.60 717.50L305.12 700.44L306.75 697.52L309.96 697.49L317.10 697.43L321.01 698.10L324.50 695.46L325.76 693.34L338.80 693.84L340.34 689.51L340.15 686.46L340.02 684.42L340.19 681.93L340.39 678.79L340.42 676.05L343.55 667.44L345.02 663.40L347.07 661.00L347.92 655.73L352.36 644.99L354.12 639.92L354.86 633.82L357.44 622.07L358.43 612.08L359.23 609.10L360.04 606.11L362.10 597.82L356.86 597.98L350.59 598.36L346.55 598.58L343.35 598.74L340.23 598.89L330.85 603.59L328.76 605.21L321.72 607.90L318.13 606.35L315.78 604.85L313.87 603.63L312.21 601.89L312.43 597.42L308.07 597.44L301.75 598.06L287.13 598.96L284.25 593.84Z" data-ward="32" /><path id="ward-8" class="ward" d="M602.19 341.03L599.23 341.83L595.09 343.00L589.38 344.15L588.36 341.69L583.44 342.20L579.13 343.79L576.80 344.33L573.76 345.42L568.12 347.13L565.90 347.16L562.44 348.85L557.14 350.71L551.42 351.68L545.33 352.35L534.83 353.41L534.44 355.56L533.25 358.46L528.83 358.30L521.13 358.35L518.55 359.26L514.51 360.78L512.82 361.82L510.88 363.34L509.41 364.84L508.23 366.93L503.91 367.09L499.88 365.81L493.56 363.88L491.05 366.03L486.59 368.98L483.00 372.58L481.14 374.78L478.96 379.37L477.53 384.66L476.91 389.31L477.78 394.81L478.03 398.10L478.53 401.42L478.85 403.52L479.49 406.97L480.55 410.98L481.08 412.99L483.95 421.43L485.89 427.19L487.52 432.03L488.78 435.25L489.85 438.32L490.26 446.59L489.78 451.18L489.59 460.48L489.28 465.92L488.96 471.34L488.12 476.77L487.28 482.20L486.83 484.72L486.77 492.60L487.05 495.82L488.04 499.49L489.35 503.26L490.21 506.05L491.07 508.85L491.72 510.96L497.71 529.20L498.64 532.30L499.84 536.83L501.66 543.89L505.10 552.73L506.91 555.58L510.06 555.80L518.12 553.62L522.11 552.72L525.48 551.98L527.98 551.44L530.94 550.55L532.86 549.98L536.24 550.00L539.17 550.01L545.58 546.21L550.01 543.53L551.78 542.45L555.74 539.52L559.92 536.37L559.49 532.44L558.97 528.57L558.70 525.83L558.28 521.61L557.51 514.69L560.02 506.47L560.23 504.10L560.48 501.45L561.13 496.19L561.02 493.01L560.28 490.53L559.12 486.44L556.55 485.84L552.71 486.32L547.51 486.96L542.84 486.85L540.61 486.60L538.21 486.06L531.49 484.55L524.14 482.26L522.17 481.66L517.57 481.37L517.52 478.64L517.93 475.54L517.89 472.41L518.25 469.59L519.00 466.27L520.97 464.78L523.46 461.63L525.58 454.68L528.24 446.17L529.41 442.43L530.67 438.42L529.01 434.74L527.87 432.39L530.05 431.48L536.06 428.98L541.30 427.54L546.95 426.17L550.06 425.35L555.62 422.87L560.45 421.12L563.46 419.91L567.74 419.19L571.11 418.60L573.04 418.23L576.46 407.92L589.62 393.72L591.93 393.64L597.54 393.10L607.16 392.16L610.19 404.68L611.78 406.78L617.35 405.13L604.73 351.78L603.97 348.56L602.19 341.03Z" data-ward="8" /><path id="ward-2" class="ward" d="M323.92 407.22L318.79 403.88L309.00 397.50L304.62 394.64L273.65 376.38L273.56 376.98L273.32 378.37L273.31 379.77L273.20 381.99L273.53 383.67L274.19 385.92L274.72 387.48L275.43 389.03L276.53 390.54L278.33 394.27L278.99 395.72L280.14 398.05L281.23 400.35L282.58 403.77L283.31 405.92L283.44 407.19L283.35 407.45L283.20 407.91L282.69 408.12L281.66 408.06L280.22 408.00L278.32 407.68L277.62 407.56L275.50 407.18L275.19 407.12L272.91 406.50L270.19 405.76L265.07 404.49L260.94 403.46L253.81 401.07L250.37 399.91L246.23 398.52L243.27 397.58L241.18 397.19L240.27 399.29L235.08 398.99L232.73 398.90L228.31 398.72L226.35 398.61L222.65 398.44L219.70 398.30L215.56 397.60L211.62 396.90L208.52 396.39L205.25 395.86L202.62 395.46L200.56 395.14L196.23 394.51L191.26 393.79L188.34 393.37L184.79 392.86L178.45 392.11L175.57 391.79L171.21 391.20L169.24 392.44L168.87 394.41L168.32 397.39L167.62 400.89L167.15 403.24L166.47 406.54L165.60 410.63L165.00 413.43L162.22 415.73L158.83 416.33L154.60 416.81L151.70 416.70L147.93 416.38L144.45 416.00L141.50 416.00L139.04 415.77L133.75 414.81L130.39 414.41L126.96 414.01L123.27 413.82L121.88 416.66L124.94 418.51L127.64 420.48L129.86 421.94L134.41 424.40L136.72 425.65L139.20 427.33L141.16 428.44L143.52 429.94L145.49 431.04L148.10 432.37L151.62 434.25L154.67 436.22L156.95 437.22L159.68 438.68L161.97 440.09L165.77 442.13L169.46 444.21L171.31 445.12L173.17 446.03L176.31 448.50L178.38 449.69L180.41 450.81L182.19 451.68L184.76 453.12L187.99 455.26L190.89 457.82L194.86 460.25L197.20 463.68L198.01 466.00L198.51 468.19L200.22 473.94L200.92 477.61L201.12 481.32L200.72 483.75L200.11 488.05L199.76 491.72L199.29 495.60L198.80 498.55L198.31 501.49L197.68 504.41L197.85 507.80L198.65 512.99L199.34 520.03L199.64 524.23L203.80 526.45L206.93 526.37L211.51 526.25L218.64 524.92L220.87 525.32L224.04 525.88L230.00 525.69L244.38 525.20L246.32 524.74L248.06 523.49L248.54 521.54L249.23 519.63L250.18 516.56L251.35 513.04L254.57 504.91L257.06 502.50L259.44 502.59L269.87 503.88L275.31 504.28L277.45 504.44L286.01 502.89L286.51 500.23L286.21 498.08L286.54 494.19L286.72 492.09L287.09 487.77L291.24 487.40L297.79 486.88L302.16 486.24L305.12 485.94L308.03 485.66L313.03 484.92L314.98 484.23L317.22 483.44L322.17 481.14L327.95 478.85L330.46 477.85L336.63 476.37L340.35 475.48L342.72 474.91L344.97 474.69L347.21 474.47L348.38 460.08L349.48 446.31L350.48 433.86L350.38 431.56L347.79 429.90L344.88 427.08L347.07 425.79L347.33 423.58L345.54 420.30L343.80 419.29L333.84 413.24L323.92 407.22Z" data-ward="2" /><path id="ward-21" class="ward" d="M284.70 895.01L282.34 893.59L280.00 892.17L273.97 889.89L270.83 887.90L267.42 885.81L231.24 878.46L378.06 1036.55L393.86 1055.20L423.45 1087.99L438.35 1114.75L468.03 1153.45L470.55 1156.74L472.96 1160.00L485.78 1147.73L489.49 1145.99L493.18 1144.26L495.22 1143.31L508.05 1141.49L488.37 1132.33L485.02 1133.22L480.71 1134.35L476.21 1131.69L471.09 1128.67L465.14 1125.00L463.03 1123.66L458.14 1119.36L453.00 1114.36L448.06 1104.97L446.54 1102.06L445.02 1099.15L443.18 1095.09L441.93 1083.44L441.82 1080.49L442.04 1073.04L442.24 1070.91L442.45 1068.79L443.22 1064.41L443.51 1061.03L443.83 1055.69L444.15 1048.78L445.51 1041.26L447.04 1027.62L448.14 1017.80L448.47 1013.41L449.31 1002.38L450.15 992.00L451.63 981.63L451.95 979.43L454.65 960.99L453.98 958.70L443.03 955.43L431.45 954.42L428.31 954.15L417.91 953.24L412.12 952.70L409.73 951.79L406.53 950.57L402.89 949.19L396.54 945.19L395.14 949.39L393.74 953.57L392.13 960.78L389.25 965.09L387.58 967.77L385.91 970.46L384.87 973.02L383.56 975.72L381.51 978.49L380.42 980.62L377.27 984.46L376.09 982.60L374.45 980.35L371.65 976.57L369.90 973.45L368.35 970.69L365.86 966.97L363.38 963.26L361.47 960.48L359.63 957.23L356.55 950.52L355.10 946.93L354.41 944.40L353.39 941.28L352.39 938.15L349.75 929.24L348.78 924.97L347.65 922.03L346.83 919.77L345.62 917.30L341.87 910.57L339.97 907.45L337.75 903.83L337.09 901.95L335.15 898.59L333.86 895.92L332.33 893.52L323.97 894.39L321.53 894.69L318.89 895.59L316.19 896.52L313.31 898.08L313.47 902.76L309.87 903.69L307.22 902.99L302.53 903.07L298.19 902.37L294.94 900.99L294.21 897.17L291.31 896.89L288.24 897.50L284.70 895.01Z" data-ward="21" /><path id="ward-19" class="ward" d="M661.45 784.19L655.85 787.02L644.49 786.86L638.86 785.84L630.65 785.00L627.26 784.67L621.41 785.17L625.28 788.11L631.55 792.48L634.60 794.51L637.65 796.54L642.87 799.93L648.37 807.35L655.92 810.96L662.93 812.34L667.35 813.48L664.39 817.83L659.48 826.25L657.24 828.98L655.33 831.73L653.94 833.99L639.97 851.28L609.36 889.17L596.00 906.81L580.56 913.30L576.32 907.42L574.31 909.76L571.65 910.43L569.73 910.78L546.22 908.97L539.48 908.50L522.99 910.96L519.57 911.47L476.95 917.83L468.64 925.52L464.24 931.44L460.46 936.52L456.98 950.07L456.25 954.39L455.96 956.77L453.98 958.70L454.65 960.99L451.95 979.43L451.63 981.63L450.15 992.00L458.17 993.39L465.11 994.60L469.78 995.75L478.18 997.87L485.74 1000.52L492.18 1002.01L494.21 1001.93L499.13 997.75L498.58 995.34L496.57 992.07L494.79 987.53L492.13 984.13L492.22 979.06L491.55 974.51L491.06 970.96L491.40 967.24L492.49 964.08L494.66 958.33L502.13 958.56L509.36 959.06L510.30 953.31L520.99 953.67L520.57 945.54L529.79 950.60L531.36 947.49L535.47 947.86L540.12 949.83L540.96 952.92L547.99 951.96L552.08 958.20L554.00 961.01L555.20 962.73L556.89 965.17L559.04 968.00L560.95 970.33L564.83 975.05L570.60 981.97L579.44 992.56L580.91 994.33L588.62 998.23L588.66 986.41L589.73 979.62L590.38 969.38L591.85 956.09L592.49 949.48L593.77 946.09L596.62 943.33L600.47 943.07L607.99 940.30L610.34 937.88L616.45 931.57L622.24 922.50L624.44 918.91L629.12 912.49L633.43 906.98L639.86 903.58L647.29 901.66L654.36 899.73L661.29 896.44L664.41 894.07L666.95 888.71L668.00 885.35L665.83 881.69L665.00 877.85L667.56 876.08L671.46 873.02L667.67 862.32L677.71 860.51L680.77 856.29L682.04 849.00L686.09 845.92L694.83 844.32L698.66 841.87L699.47 834.08L698.10 830.98L692.85 827.65L688.33 823.71L681.64 816.48L679.66 814.35L682.88 803.05L677.68 799.41L675.95 798.19L670.03 792.38L664.73 787.13L661.45 784.19Z" data-ward="19" /><path id="ward-5" class="ward" d="M558.08 127.11L551.35 118.83L545.15 111.21L536.90 101.07L529.92 92.49L513.56 72.38L492.74 83.97L435.72 117.40L415.41 130.89L406.86 125.96L397.65 123.25L391.87 122.94L375.24 126.32L371.43 127.25L364.32 129.20L352.26 132.50L341.69 133.93L325.29 136.15L318.41 136.56L312.68 135.13L308.38 135.22L303.58 136.57L302.95 140.55L302.16 146.15L299.83 153.70L298.98 157.89L298.54 160.05L300.19 165.72L296.31 174.85L293.84 182.24L293.03 184.36L290.12 191.76L296.52 192.34L304.34 193.46L310.82 196.21L315.07 197.16L316.86 190.26L319.48 189.76L333.40 187.12L337.42 192.77L346.87 192.78L344.24 200.16L342.62 204.70L339.76 210.42L339.17 214.23L338.92 216.86L338.59 220.33L341.84 224.03L342.57 228.61L341.50 232.29L339.89 237.81L336.64 246.64L335.50 250.23L338.32 251.90L340.40 252.78L343.73 254.14L347.07 255.50L352.31 257.80L357.45 260.26L364.39 263.86L367.59 264.08L370.32 260.13L371.77 254.42L373.01 249.56L373.47 246.84L374.19 244.34L378.89 244.26L382.48 244.21L384.52 244.06L388.03 244.59L397.76 245.43L400.43 245.21L403.14 245.00L403.64 254.37L402.71 256.84L400.60 261.18L405.57 261.94L408.44 262.54L412.74 264.75L424.41 267.24L432.34 247.13L441.23 232.43L442.49 230.40L456.60 238.08L462.38 241.77L464.35 242.92L473.21 246.28L482.04 249.63L487.27 250.99L491.17 252.09L492.28 249.12L494.85 242.29L497.02 236.54L497.74 234.62L498.20 231.55L498.66 228.46L498.97 223.99L499.09 218.30L501.44 218.35L509.04 217.78L512.16 216.90L514.26 216.31L518.31 217.51L525.88 219.75L528.94 220.66L534.22 221.79L537.05 222.39L550.25 222.50L555.08 222.46L557.28 222.44L563.67 222.38L565.06 227.01L567.66 226.26L568.27 228.53L570.78 237.64L570.92 241.07L578.21 239.19L584.71 237.41L588.54 236.04L590.52 235.33L595.95 233.81L602.01 231.64L606.31 229.89L607.51 226.94L608.57 224.31L610.90 221.39L612.16 218.79L616.55 209.75L618.08 206.59L622.57 197.46L625.34 191.83L626.13 190.81L628.06 188.30L629.11 186.60L630.10 180.53L630.24 179.83L628.49 179.48L622.37 178.26L611.20 177.44L595.97 171.85L589.34 164.07L584.49 158.38L580.64 153.86L564.50 134.91L562.90 133.04L558.08 127.11Z" data-ward="5" /><path id="ward-28" class="ward" d="M360.03 664.12L349.69 661.63L347.07 661.00L345.02 663.40L343.55 667.44L340.42 676.05L340.39 678.79L340.19 681.93L340.02 684.42L340.15 686.46L340.34 689.51L338.80 693.84L325.76 693.34L324.50 695.46L321.01 698.10L317.10 697.43L309.96 697.49L306.75 697.52L305.12 700.44L303.60 717.50L301.04 724.92L295.99 727.68L292.76 728.83L286.87 730.93L281.78 732.28L278.56 733.13L268.73 737.44L271.70 742.80L279.39 756.26L283.97 766.16L285.17 770.65L285.60 774.39L284.98 777.92L282.94 778.62L280.80 779.34L275.19 779.80L271.25 779.87L268.44 779.91L263.53 779.34L258.38 780.64L262.38 782.89L266.31 783.17L272.57 784.46L285.69 789.39L290.18 791.57L293.40 794.69L294.60 800.48L295.27 804.24L295.87 807.59L296.48 810.41L297.42 813.57L305.10 818.92L308.26 820.10L311.42 821.28L316.09 821.59L318.46 820.75L320.84 819.91L327.24 816.92L335.30 810.35L337.05 809.24L341.80 805.86L346.55 802.48L348.36 801.11L354.70 799.15L358.41 804.61L358.65 807.17L360.37 818.09L364.79 815.22L366.68 814.03L367.42 811.55L366.27 808.30L365.52 806.38L365.13 803.71L364.69 799.52L363.61 797.07L362.93 795.07L363.51 791.91L365.39 790.62L367.55 789.25L371.87 786.76L373.94 785.92L376.01 785.07L378.35 783.44L383.69 780.62L387.10 777.95L389.55 775.57L392.37 772.05L395.16 768.56L396.41 766.68L400.36 762.80L402.06 761.47L406.06 757.09L407.98 754.53L411.09 750.16L414.12 747.03L415.39 745.06L407.92 734.54L405.03 730.83L396.58 739.30L394.23 741.27L388.08 746.44L379.73 753.45L376.33 756.31L369.07 762.93L359.67 771.51L354.67 774.95L352.20 776.44L348.65 778.36L346.26 779.49L342.13 780.70L341.04 777.04L339.86 773.48L341.45 768.80L342.30 766.56L343.16 764.31L344.43 761.75L350.41 760.30L361.27 753.15L361.61 748.30L362.20 739.99L362.37 735.78L364.75 734.75L369.87 732.82L376.98 730.24L383.24 724.84L386.49 722.03L399.71 716.31L401.11 713.79L402.36 710.54L401.38 706.07L400.62 702.72L399.35 699.93L397.84 696.60L393.62 697.51L391.77 698.13L388.62 697.86L386.33 692.83L385.68 689.48L384.75 681.82L383.41 675.94L382.91 673.53L381.13 664.99L378.27 665.23L360.03 664.12Z" data-ward="28" /></svg>