<svg viewBox="0 0 1000.00 1096.92" xmlns="http://www.w3.org/2000/svg"><style>.ward { fill: #e2e8f0; stroke: #fff; stroke-width: 0.5px; } .ward:hover { fill: #cbd5e1; }</style><path id="ward-14" class="ward" d="M624.81 677.18L625.18 679.15L625.73 681.57L626.24 684.44L626.65 686.93L627.03 690.50L620.54 692.09L615.37 692.84L612.64 693.33L612.85 696.27L613.31 702.08L614.07 709.04L614.54 712.90L615.13 716.98L615.63 720.54L615.85 725.13L614.69 727.18L609.47 728.09L604.78 728.90L603.16 729.47L601.33 730.17L600.21 732.44L599.74 737.23L600.37 742.69L600.35 744.60L598.97 746.75L596.21 747.49L589.49 749.70L588.91 752.01L587.46 753.91L584.94 755.40L580.55 757.00L575.07 759.15L571.88 760.42L572.17 762.71L573.94 764.04L573.92 767.27L571.93 766.54L563.97 767.34L563.69 763.75L558.81 763.05L558.84 767.99L556.16 768.53L554.42 768.82L553.48 762.42L553.00 757.25L552.80 755.27L551.86 747.12L550.33 743.25L549.57 736.22L549.41 734.49L548.74 726.96L547.99 719.79L547.51 716.52L546.00 711.69L541.67 712.26L539.74 712.76L537.07 713.54L533.31 714.95L528.67 716.19L524.89 717.36L522.26 718.62L518.88 719.28L517.18 719.44L514.87 719.73L512.78 720.22L502.02 721.30L502.14 723.87L500.19 724.89L500.24 726.60L497.91 727.65L494.10 728.00L492.79 724.03L492.56 721.87L490.43 722.34L488.56 723.01L485.84 724.43L483.90 725.23L481.34 724.75L479.93 723.07L477.99 723.31L475.87 721.18L473.74 718.42L470.99 718.85L466.33 719.39L464.12 718.94L463.71 716.90L463.13 714.01L462.76 712.15L462.28 710.21L460.75 707.20L448.49 706.56L439.39 707.25L438.87 709.84L438.08 713.72L436.16 715.55L434.25 719.38L432.74 723.28L429.91 728.08L427.80 732.48L425.69 735.24L423.19 738.93L422.01 741.95L419.84 747.96L419.05 750.75L419.14 757.66L419.96 762.80L422.15 766.39L426.11 774.03L430.80 782.60L433.51 788.79L433.81 791.33L432.71 796.57L430.32 800.93L427.99 805.77L427.27 809.54L428.11 815.10L429.91 818.76L431.75 820.57L434.61 820.34L437.37 819.50L442.70 815.19L448.98 814.68L460.69 816.68L472.99 818.95L484.33 820.83L493.56 822.90L496.30 825.92L500.39 831.00L506.72 834.55L508.85 836.88L512.57 839.75L518.10 843.88L523.57 849.46L524.68 847.55L534.09 829.56L534.21 823.09L534.40 812.29L531.52 807.52L533.30 805.37L535.75 803.47L538.31 801.27L540.10 799.62L543.44 797.61L546.24 795.72L555.07 791.90L558.73 790.31L560.52 789.60L568.46 787.96L570.08 789.18L574.51 790.06L579.54 789.41L583.21 789.55L585.94 789.87L587.83 790.13L588.18 792.92L596.50 795.64L598.61 796.15L606.63 795.82L610.28 795.44L614.84 794.97L619.41 794.50L623.07 796.51L627.69 799.05L632.31 801.60L637.79 807.00L640.68 804.82L644.62 801.66L646.38 798.63L648.10 797.94L651.57 796.87L652.29 794.83L654.53 792.92L660.16 791.45L664.33 790.02L663.65 786.75L663.07 783.91L662.82 781.39L662.61 778.80L662.45 774.90L661.65 770.18L660.43 765.52L660.15 762.38L659.70 757.91L658.77 752.92L658.04 748.81L657.84 746.02L657.39 739.82L658.12 736.92L658.48 731.45L658.53 728.51L661.57 726.15L662.25 722.19L662.55 717.53L662.54 714.13L661.28 711.35L661.15 707.86L661.18 702.65L660.16 698.28L660.01 692.89L660.46 688.82L661.30 684.76L661.67 683.04L662.34 679.60L663.02 676.27L663.38 674.52L664.06 671.16L664.40 666.84L664.33 662.37L664.55 659.16L660.97 659.01L659.25 659.00L653.73 659.23L648.31 659.48L646.38 659.08L642.47 657.87L639.33 657.30L632.63 656.38L633.75 660.87L634.22 663.22L634.79 665.68L633.51 668.67L631.23 669.20L624.09 670.32L624.30 672.14L624.81 677.18Z" data-ward="14" /><path id="ward-7" class="ward" d="M969.94 886.43L971.04 885.02L971.73 883.46L972.43 881.88L972.16 879.60L974.08 879.35L976.26 879.10L979.71 878.70L981.44 878.61L984.45 878.44L986.92 877.90L990.66 877.08L989.68 872.36L988.67 867.55L989.37 862.64L989.43 860.90L989.28 858.23L989.14 855.85L989.00 853.49L988.87 851.36L988.60 847.22L990.40 847.38L992.41 847.56L994.28 847.69L998.84 848.02L999.20 843.69L999.52 839.83L999.48 836.54L999.55 834.16L999.54 831.88L999.38 828.10L1000.00 823.49L999.94 815.15L999.92 812.59L999.82 809.92L999.73 807.71L999.62 804.73L999.51 801.82L997.50 801.78L995.17 801.73L991.67 801.66L991.50 796.06L991.45 794.30L991.38 792.06L991.13 783.60L991.03 780.36L990.97 778.47L990.88 775.65L990.24 773.36L988.77 768.11L988.19 766.05L987.67 764.21L984.91 760.14L982.25 754.88L980.39 751.22L979.98 748.96L979.42 745.83L975.83 742.20L975.42 740.35L975.21 738.52L975.24 734.72L975.19 732.95L972.20 728.10L970.37 726.35L968.57 724.25L966.78 720.39L966.50 718.49L965.51 716.75L961.95 715.74L957.80 713.94L956.12 711.28L956.10 708.46L956.06 704.67L954.65 702.04L952.24 699.38L951.04 698.05L951.43 694.45L952.32 691.59L953.21 688.73L953.67 684.79L954.55 677.31L952.08 674.19L950.44 672.11L951.11 669.80L951.68 667.06L942.21 671.18L937.83 671.29L934.43 662.73L933.03 660.08L930.23 661.81L928.37 665.94L925.34 667.44L923.61 668.68L920.11 670.47L918.70 671.80L917.30 673.13L915.33 673.47L914.00 674.91L912.75 679.40L910.39 679.51L905.52 679.74L902.46 679.88L902.03 682.23L901.38 685.58L899.43 692.56L895.65 692.40L893.91 691.93L891.09 691.13L883.96 689.07L882.25 688.73L874.16 687.40L870.73 696.97L866.12 701.78L863.45 703.42L862.34 708.30L860.42 708.46L857.63 708.97L858.72 712.02L861.29 719.19L862.92 723.65L863.66 725.75L865.01 729.46L868.22 738.22L869.12 740.64L870.11 743.33L871.29 746.02L872.68 749.00L873.72 751.10L874.50 752.66L876.99 757.65L878.74 761.18L880.52 764.93L884.39 773.36L888.45 782.85L889.45 785.18L892.33 792.12L893.32 794.50L895.63 800.22L896.58 802.61L897.41 804.71L898.21 806.42L903.07 816.79L904.25 819.31L905.05 821.01L906.21 823.42L909.08 829.41L911.84 834.37L914.58 839.18L914.37 842.00L919.27 847.64L922.02 850.82L927.70 859.48L928.89 861.28L930.07 862.82L935.85 870.24L938.54 873.52L942.99 878.99L945.08 881.37L953.50 889.89L954.83 890.98L958.87 890.13L962.56 889.35L965.82 888.34L967.63 887.50L969.94 886.43Z" data-ward="7" /><path id="ward-4" class="ward" d="M830.40 394.36L828.83 393.50L826.50 391.03L824.39 386.28L823.28 381.31L821.49 381.65L812.88 383.27L806.69 383.70L801.85 386.85L796.62 390.28L789.05 398.88L788.52 400.74L786.44 402.43L779.04 402.92L772.32 405.35L759.04 405.98L758.84 411.40L758.90 414.29L756.51 426.40L751.65 432.42L748.23 436.03L745.45 438.34L741.17 441.88L734.73 446.43L730.84 448.97L719.94 456.51L719.84 459.30L719.36 461.61L715.77 469.34L711.26 477.32L709.82 479.87L709.09 482.57L711.14 487.93L712.16 490.61L712.83 492.36L713.43 493.99L714.54 496.97L716.19 501.35L716.93 503.32L718.81 508.01L722.09 513.55L724.89 512.64L728.12 512.05L727.92 507.41L735.19 506.83L743.94 506.16L745.96 502.96L747.82 499.44L753.83 499.06L752.49 496.54L751.48 492.79L752.09 489.66L758.51 487.80L760.50 487.20L762.48 486.60L764.75 485.81L769.39 483.64L772.81 483.61L773.72 489.51L774.35 492.40L774.93 495.01L776.36 497.60L780.72 497.02L783.99 496.10L787.28 492.07L789.68 491.44L792.24 494.39L793.28 499.10L793.70 501.11L794.32 505.64L799.88 504.18L807.63 502.81L809.64 501.93L809.78 496.54L809.85 494.09L815.94 491.63L818.06 491.12L818.04 496.41L818.69 498.99L819.27 503.55L820.41 505.53L821.02 509.11L822.25 512.12L824.09 515.33L828.66 512.60L837.81 510.10L847.94 505.76L856.97 501.84L859.64 499.29L862.95 497.61L866.82 495.73L868.18 494.17L869.68 492.45L872.72 489.87L875.13 487.09L872.74 484.32L871.84 481.93L869.26 479.61L864.84 479.83L864.77 484.68L864.70 490.02L862.51 490.14L860.08 490.37L852.47 490.56L851.50 480.92L854.09 463.91L861.81 461.82L864.37 460.12L867.80 457.85L864.44 449.73L862.46 444.97L855.07 440.74L852.17 439.07L851.82 435.34L852.38 430.32L851.82 421.41L846.76 421.47L846.05 415.41L845.82 413.49L845.88 408.61L846.03 404.09L844.74 401.65L842.89 398.15L840.37 395.49L837.92 395.04L834.91 395.09L830.40 394.36Z" data-ward="4" /><path id="ward-9" class="ward" d="M805.39 1079.47L806.84 1080.99L808.29 1082.50L810.16 1084.45L813.29 1087.65L814.63 1089.39L816.24 1091.36L817.91 1092.93L819.42 1094.35L822.62 1096.92L823.09 1093.90L824.01 1089.82L822.92 1088.50L820.75 1087.46L814.52 1087.62L806.20 1078.82L806.20 1078.82L811.44 1074.61L817.12 1070.14L821.18 1066.91L819.90 1061.51L819.84 1059.25L819.56 1057.42L819.28 1054.43L819.37 1044.45L815.69 1043.90L811.63 1037.42L812.31 1022.44L812.54 1019.83L813.57 1017.21L812.66 1014.41L812.83 1012.21L812.97 1010.28L816.44 1004.16L819.82 981.29L819.79 971.78L819.99 967.76L820.31 963.37L820.66 958.58L820.85 956.01L823.15 955.36L826.82 953.56L837.87 954.94L838.34 950.37L838.98 939.26L841.30 939.44L841.86 933.50L842.19 929.91L843.37 921.28L846.72 920.72L846.92 903.49L845.16 897.76L845.67 895.14L846.24 892.23L848.29 886.37L849.82 882.99L850.55 881.22L851.77 878.24L853.10 873.99L853.60 871.89L857.25 871.76L864.49 872.31L868.42 872.27L872.23 872.23L875.68 872.19L881.46 873.78L882.94 874.92L885.22 876.20L885.65 878.81L887.21 879.62L889.65 880.87L891.73 881.95L894.65 882.37L898.09 883.68L900.27 884.03L903.36 884.53L905.50 884.85L907.79 885.94L911.53 887.70L912.00 893.91L914.71 894.64L919.94 896.04L923.31 895.89L925.86 895.78L927.76 895.57L929.73 895.35L932.96 893.93L937.23 892.59L939.37 892.53L941.36 893.36L943.68 893.98L945.55 893.00L946.87 891.57L948.02 890.31L953.50 889.89L945.08 881.37L942.99 878.99L938.54 873.52L935.85 870.24L930.07 862.82L928.89 861.28L927.70 859.48L922.02 850.82L914.37 842.00L909.52 842.82L906.16 843.21L901.18 844.33L898.95 844.99L894.94 846.18L893.19 846.70L889.65 847.75L886.91 848.54L883.58 849.47L877.94 850.60L876.31 846.13L875.25 843.75L873.11 844.02L869.36 844.82L866.26 845.79L863.55 846.19L860.37 845.18L857.36 845.09L854.94 847.10L854.61 848.94L854.01 850.62L852.25 854.21L850.10 856.59L847.36 858.68L845.48 859.50L841.70 861.09L838.43 862.41L834.17 864.15L830.35 864.66L827.73 866.29L826.41 871.35L821.96 872.07L817.89 874.43L818.26 877.46L818.50 879.81L818.81 885.08L818.16 887.69L816.18 894.17L815.03 896.84L813.86 899.20L813.75 901.69L814.18 903.52L815.82 907.10L816.92 909.35L818.31 912.28L807.53 915.23L797.32 918.20L784.42 921.87L777.00 923.20L769.06 923.36L765.45 923.48L763.50 923.52L759.97 924.85L755.13 928.16L750.43 929.40L747.11 929.02L739.31 928.73L738.34 924.25L738.17 920.64L737.84 914.72L733.89 914.69L728.98 914.69L726.78 914.78L723.79 914.91L718.88 914.90L711.87 914.68L709.92 914.31L704.64 912.94L700.85 912.36L698.55 912.33L696.25 912.30L693.68 912.69L689.89 913.30L687.15 913.86L681.40 913.99L680.17 918.88L674.39 921.99L665.42 924.00L663.66 917.96L662.97 915.37L661.05 907.94L658.78 901.78L656.81 899.72L653.43 896.17L648.88 899.35L647.07 900.83L645.25 902.32L640.96 905.99L637.35 908.45L631.97 911.77L628.02 914.33L624.22 917.24L621.70 919.01L619.76 920.01L616.33 922.67L612.98 925.99L616.87 929.83L617.26 930.17L617.91 930.74L619.21 931.99L621.19 933.89L625.39 937.91L625.90 938.42L626.28 938.82L627.15 939.78L628.53 941.28L631.34 944.34L631.99 945.05L632.17 945.25L632.50 945.62L633.11 946.27L634.60 947.91L637.27 950.72L643.14 956.74L643.54 957.16L643.75 957.34L644.19 957.89L645.07 959.04L645.62 959.74L645.86 960.06L646.67 961.11L648.04 962.87L650.91 966.55L656.63 973.91L657.15 974.57L657.91 975.55L659.04 976.97L661.47 979.67L666.32 985.06L666.64 985.42L666.74 985.54L666.88 985.71L667.25 986.10L668.08 987.02L669.54 988.68L672.41 991.99L678.02 998.58L678.31 998.93L678.32 998.96L678.35 999.01L678.39 999.06L678.62 999.34L679.16 1000.08L680.29 1001.51L682.42 1004.27L686.86 1009.93L687.17 1010.32L687.24 1010.38L687.72 1010.87L688.89 1012.08L690.93 1014.15L695.03 1018.35L695.44 1018.79L695.71 1019.03L696.43 1019.77L697.90 1021.27L700.48 1023.91L705.57 1029.11L705.84 1029.40L705.95 1029.51L706.11 1029.67L706.61 1030.19L707.62 1031.22L709.70 1033.34L709.81 1033.45L709.81 1033.45L709.81 1033.45L709.82 1033.45L709.82 1033.45L709.82 1033.46L709.83 1033.46L709.83 1033.47L709.84 1033.47L709.84 1033.48L709.85 1033.48L709.86 1033.49L709.86 1033.50L709.87 1033.50L709.87 1033.51L709.88 1033.51L709.88 1033.52L709.89 1033.52L709.89 1033.53L709.89 1033.53L709.90 1033.53L709.90 1033.54L709.90 1033.54L709.90 1033.54L709.91 1033.54L709.91 1033.55L709.91 1033.55L709.91 1033.55L709.92 1033.55L709.92 1033.56L709.92 1033.56L709.92 1033.56L709.93 1033.56L709.93 1033.57L709.93 1033.57L709.93 1033.57L709.93 1033.57L709.94 1033.57L709.94 1033.57L709.94 1033.58L709.94 1033.58L709.95 1033.58L709.95 1033.59L709.96 1033.59L709.96 1033.60L709.97 1033.60L709.98 1033.62L709.99 1033.63L710.00 1033.64L710.02 1033.66L710.03 1033.67L710.04 1033.68L710.06 1033.70L710.07 1033.71L710.09 1033.73L710.10 1033.74L710.11 1033.75L710.13 1033.77L710.14 1033.78L710.16 1033.80L710.18 1033.83L710.20 1033.85L710.23 1033.87L710.25 1033.89L710.27 1033.92L711.51 1035.07L713.79 1033.62L718.54 1030.57L722.76 1027.86L725.83 1025.89L729.76 1023.37L734.54 1022.45L736.35 1024.06L738.69 1026.15L741.53 1028.69L744.11 1030.98L746.68 1033.24L749.81 1036.08L751.23 1037.37L753.77 1039.67L756.28 1041.73L758.27 1043.36L759.71 1044.68L761.66 1046.46L764.10 1048.68L765.46 1049.81L767.14 1051.20L768.46 1052.29L770.23 1053.59L771.66 1054.63L774.21 1056.51L778.93 1057.34L780.71 1057.73L784.33 1058.54L789.70 1060.24L791.97 1060.79L793.64 1063.03L794.64 1064.43L796.82 1065.01L798.96 1065.59L799.58 1070.28L799.95 1073.07L802.39 1075.95L803.60 1077.37L805.39 1079.47Z" data-ward="9" /><path id="ward-11" class="ward" d="M704.60 763.74L703.39 758.43L704.11 754.95L704.86 751.33L705.33 747.04L702.56 747.49L699.86 747.52L697.75 747.65L694.22 748.44L692.09 749.02L689.96 749.61L684.39 751.22L679.44 752.77L675.49 753.38L667.78 754.37L665.44 754.94L659.70 757.91L660.15 762.38L660.43 765.52L667.81 765.02L669.87 765.28L671.66 765.47L674.85 765.48L678.54 766.84L678.95 769.96L680.00 773.66L683.78 774.49L688.48 774.23L691.06 774.88L691.81 776.45L691.61 778.48L691.40 780.79L691.05 786.56L691.12 788.40L692.71 794.92L692.75 796.75L692.82 799.24L693.29 803.58L693.53 807.07L691.93 809.01L693.69 815.27L696.98 821.36L697.83 823.10L699.04 825.57L700.25 828.04L701.59 831.76L701.74 836.85L699.93 837.31L697.45 838.01L694.64 838.26L692.57 838.45L689.33 838.54L682.42 838.06L679.45 837.87L674.39 837.90L672.15 838.24L669.11 839.89L663.79 842.96L659.68 843.21L657.67 843.77L652.67 845.32L649.79 845.68L647.58 845.86L644.26 846.15L641.16 846.41L638.07 846.67L635.91 844.04L634.46 842.86L630.00 843.17L625.95 843.45L621.07 844.85L618.44 846.10L613.47 848.88L610.27 849.73L610.47 855.22L609.95 858.82L611.17 861.08L612.25 863.08L615.24 867.79L618.49 872.67L621.19 876.14L626.23 878.83L628.59 880.42L630.97 882.35L634.42 884.42L636.91 885.39L646.86 890.58L649.32 892.41L653.76 889.62L654.24 887.31L656.71 885.89L659.52 883.92L662.33 881.95L666.15 879.65L668.87 878.94L671.30 877.63L675.23 877.84L677.66 878.75L680.82 880.05L684.06 881.42L687.59 881.87L689.79 881.96L690.44 886.17L691.11 889.28L692.89 891.73L694.75 891.35L696.61 890.96L700.35 890.25L703.56 890.38L711.29 892.94L717.44 893.12L720.31 892.36L722.25 892.07L726.03 890.64L727.68 893.47L730.09 899.16L731.03 900.85L732.13 902.67L734.85 905.68L736.59 908.57L737.47 910.64L737.76 912.49L737.84 914.72L738.17 920.64L738.34 924.25L739.31 928.73L747.11 929.02L750.43 929.40L755.13 928.16L759.97 924.85L763.50 923.52L765.45 923.48L769.06 923.36L777.00 923.20L784.42 921.87L797.32 918.20L807.53 915.23L818.31 912.28L816.92 909.35L815.82 907.10L814.18 903.52L813.75 901.69L813.86 899.20L815.03 896.84L816.18 894.17L818.16 887.69L818.81 885.08L818.50 879.81L818.26 877.46L817.89 874.43L821.96 872.07L826.41 871.35L827.73 866.29L830.35 864.66L834.17 864.15L838.43 862.41L841.70 861.09L845.48 859.50L847.36 858.68L850.10 856.59L852.25 854.21L854.01 850.62L854.61 848.94L854.94 847.10L851.82 846.86L853.10 842.43L853.09 839.70L852.74 837.14L852.08 832.09L851.61 828.47L851.15 825.11L850.26 822.22L849.46 819.66L848.12 818.31L845.11 817.05L840.45 816.28L836.73 816.44L835.11 817.48L832.20 821.49L828.85 822.11L824.96 821.39L821.47 820.38L816.60 818.73L814.54 819.13L811.21 820.06L807.40 823.93L804.61 826.18L802.78 827.68L798.39 831.34L796.05 833.41L791.34 833.82L787.69 833.10L785.48 833.63L782.62 834.23L781.36 836.12L778.98 838.87L777.48 840.31L773.72 842.07L771.64 842.60L761.89 848.09L758.85 850.32L756.79 851.84L755.31 852.68L750.68 855.26L747.79 856.67L747.85 850.31L747.90 845.37L746.51 838.81L745.19 832.57L744.32 827.45L743.83 824.61L743.40 821.94L743.47 818.93L745.04 813.01L744.80 805.44L744.56 798.07L744.43 789.45L744.29 780.84L742.62 780.19L739.40 779.07L723.91 771.25L720.13 772.89L716.91 774.36L713.88 776.28L711.72 776.84L710.93 775.29L709.02 770.92L707.39 766.64L704.60 763.74Z" data-ward="11" /><path id="ward-8" class="ward" d="M872.67 633.76L870.77 634.03L868.10 634.35L865.52 634.66L862.34 635.01L859.19 634.78L855.09 634.91L853.59 638.89L853.15 640.85L851.27 646.68L847.59 645.96L843.93 644.81L835.33 642.66L830.82 642.88L833.79 646.72L836.42 652.64L837.89 655.96L839.34 659.44L843.50 670.10L846.37 678.49L849.64 689.98L846.46 689.34L842.46 688.55L832.09 687.97L827.18 687.69L823.04 688.87L820.80 689.51L817.21 690.54L815.48 691.54L812.78 693.20L809.16 695.11L804.79 696.44L804.39 698.32L803.54 700.30L800.17 700.71L796.21 701.18L794.49 703.88L794.98 708.13L795.31 712.02L793.36 720.87L792.81 723.56L792.26 726.25L791.65 729.49L790.41 731.68L787.79 731.55L785.36 731.43L777.94 731.06L777.20 734.92L777.81 743.59L777.86 746.99L777.96 748.76L779.83 749.69L785.47 749.22L790.02 748.84L791.80 748.64L794.20 748.41L793.83 745.50L800.38 745.22L804.88 744.89L806.89 744.92L807.42 749.01L807.96 753.09L808.41 756.15L802.54 757.08L800.39 757.66L794.98 759.19L790.52 760.10L788.29 760.45L784.10 760.53L785.80 778.10L786.39 784.00L787.00 791.32L792.23 790.42L798.14 788.99L800.91 788.16L805.58 787.09L807.81 792.51L808.12 794.31L808.42 797.07L809.25 802.66L809.53 806.54L806.66 809.06L800.71 811.93L795.79 814.10L793.17 815.24L791.11 816.15L789.60 820.29L788.51 822.00L787.25 823.18L785.31 824.81L783.98 826.43L782.88 830.07L782.62 834.23L785.48 833.63L787.69 833.10L791.34 833.82L796.05 833.41L798.39 831.34L802.78 827.68L804.61 826.18L807.40 823.93L811.21 820.06L814.54 819.13L816.60 818.73L821.47 820.38L824.96 821.39L828.85 822.11L832.20 821.49L835.11 817.48L836.73 816.44L840.45 816.28L845.11 817.05L848.12 818.31L849.46 819.66L850.26 822.22L851.15 825.11L851.61 828.47L852.08 832.09L852.74 837.14L853.09 839.70L853.10 842.43L851.82 846.86L854.94 847.10L857.36 845.09L860.37 845.18L863.55 846.19L866.26 845.79L869.36 844.82L873.11 844.02L875.25 843.75L876.31 846.13L877.94 850.60L883.58 849.47L886.91 848.54L889.65 847.75L893.19 846.70L894.94 846.18L898.95 844.99L901.18 844.33L906.16 843.21L909.52 842.82L914.37 842.00L914.58 839.18L911.84 834.37L909.08 829.41L906.21 823.42L905.05 821.01L904.25 819.31L903.07 816.79L898.21 806.42L897.41 804.71L896.58 802.61L895.63 800.22L893.32 794.50L892.33 792.12L889.45 785.18L888.45 782.85L884.39 773.36L880.52 764.93L878.74 761.18L876.99 757.65L874.50 752.66L873.72 751.10L872.68 749.00L871.29 746.02L870.11 743.33L869.12 740.64L868.22 738.22L865.01 729.46L863.66 725.75L862.92 723.65L861.29 719.19L858.72 712.02L857.63 708.97L860.42 708.46L862.34 708.30L863.45 703.42L866.12 701.78L870.73 696.97L874.16 687.40L882.25 688.73L883.96 689.07L891.09 691.13L893.91 691.93L895.65 692.40L899.43 692.56L901.38 685.58L902.03 682.23L902.46 679.88L900.02 678.98L897.74 679.00L895.47 679.03L892.77 679.32L890.07 679.60L886.47 680.00L884.44 680.35L881.26 680.16L879.13 679.64L876.56 678.84L877.49 676.61L878.36 674.68L878.86 672.33L879.41 668.91L879.47 666.53L879.64 663.91L879.87 660.61L880.12 657.09L879.93 655.08L878.64 652.75L877.56 651.29L875.47 648.75L874.99 645.36L874.29 641.39L873.59 637.41L872.67 633.76Z" data-ward="8" /><path id="ward-5" class="ward" d="M922.03 592.27L924.94 590.39L927.51 587.07L930.61 584.65L932.24 582.99L933.78 582.06L935.69 578.82L938.13 577.18L940.43 574.02L942.84 570.71L943.51 568.11L944.02 566.11L944.76 563.23L945.60 559.98L943.04 555.59L942.12 553.59L940.53 550.60L939.26 548.23L938.09 545.82L936.37 542.50L934.59 539.07L930.00 533.26L928.70 531.65L923.52 530.73L921.97 528.80L920.50 526.08L918.97 522.56L916.92 519.64L915.40 517.87L914.13 515.75L911.52 512.08L909.96 511.40L907.40 510.89L904.85 510.39L899.45 505.95L897.61 504.60L892.85 505.86L890.79 507.39L888.83 508.84L885.97 509.31L885.51 506.52L884.98 504.41L882.46 503.80L881.19 500.89L881.39 497.91L881.32 494.99L881.25 492.55L881.05 488.43L880.82 485.63L877.33 486.52L875.13 487.09L872.72 489.87L869.68 492.45L868.18 494.17L866.82 495.73L862.95 497.61L859.64 499.29L856.97 501.84L847.94 505.76L837.81 510.10L828.66 512.60L824.09 515.33L822.25 512.12L821.02 509.11L820.41 505.53L819.27 503.55L818.69 498.99L818.04 496.41L818.06 491.12L815.94 491.63L809.85 494.09L809.78 496.54L809.64 501.93L807.63 502.81L799.88 504.18L794.32 505.64L793.70 501.11L793.28 499.10L792.24 494.39L789.68 491.44L787.28 492.07L783.99 496.10L780.72 497.02L776.36 497.60L774.93 495.01L774.35 492.40L773.72 489.51L772.81 483.61L769.39 483.64L764.75 485.81L762.48 486.60L760.50 487.20L758.51 487.80L752.09 489.66L751.48 492.79L752.49 496.54L753.83 499.06L747.82 499.44L745.96 502.96L743.94 506.16L735.19 506.83L727.92 507.41L728.12 512.05L724.89 512.64L722.09 513.55L725.83 520.96L731.28 530.50L735.04 536.72L736.20 538.65L737.37 540.57L738.34 542.18L745.31 553.00L751.64 562.45L755.86 567.10L758.88 566.03L764.03 564.24L767.80 562.94L774.07 560.80L778.79 559.11L783.50 557.41L784.46 561.81L784.77 563.50L788.14 562.93L791.50 562.36L795.87 561.60L797.65 561.17L803.34 559.68L809.33 559.64L815.24 560.12L817.32 560.83L817.35 563.67L816.92 566.71L812.57 568.76L810.25 569.65L808.72 574.76L805.91 577.61L806.26 580.59L808.35 581.19L813.64 579.79L818.66 578.27L823.73 577.71L823.74 581.14L823.76 584.82L826.82 584.94L831.10 585.02L835.39 585.10L839.03 584.91L845.37 583.91L848.01 583.56L850.04 583.33L852.44 583.07L851.92 587.37L860.98 587.32L861.22 583.64L864.47 583.00L866.58 583.41L871.18 584.63L876.49 586.54L880.40 588.08L882.05 588.78L883.35 587.11L885.07 584.90L886.90 585.25L889.14 585.69L892.78 586.39L895.36 586.68L899.11 587.09L903.43 587.76L908.36 588.52L910.79 588.98L918.86 590.28L922.03 592.27Z" data-ward="5" /><path id="ward-24" class="ward" d="M196.18 197.95L199.63 203.69L201.70 207.14L202.83 209.46L204.51 212.71L207.03 217.22L212.50 226.05L213.64 227.81L215.68 230.13L217.73 232.46L219.89 234.86L220.99 236.54L227.76 246.95L229.86 250.13L236.22 259.80L250.90 252.68L257.21 249.76L260.75 248.13L264.29 246.49L273.65 242.17L277.83 240.22L283.29 236.02L285.62 234.98L294.85 230.76L310.10 222.92L303.29 211.18L297.58 204.54L296.48 201.80L295.26 197.72L294.41 194.86L289.66 184.60L287.88 180.81L285.61 176.20L282.93 170.81L281.32 165.90L279.67 160.81L276.71 154.86L275.91 153.33L274.12 148.68L265.29 147.10L263.47 146.80L258.93 146.06L254.39 145.32L245.64 143.89L213.99 124.92L207.41 121.10L202.67 118.11L201.03 117.12L191.50 107.93L187.50 106.36L185.56 105.59L183.45 104.51L180.45 99.75L177.46 94.99L175.35 93.03L172.83 91.73L165.28 87.86L162.46 86.41L161.85 89.42L161.87 96.18L159.14 96.12L159.16 100.31L158.33 102.61L156.63 103.30L152.88 104.34L154.12 107.29L154.51 111.78L154.46 114.33L153.66 118.59L151.92 122.10L153.75 126.09L156.10 131.03L153.73 131.68L148.62 135.24L143.07 138.17L137.66 140.54L132.71 140.57L130.03 133.97L130.09 132.01L128.32 125.52L124.99 121.53L122.14 118.23L120.65 116.71L118.49 115.15L117.07 113.89L115.08 111.61L113.89 110.27L111.95 108.90L110.46 114.15L109.73 119.39L109.95 121.34L111.74 126.06L113.88 131.92L116.65 137.97L120.95 147.03L122.63 151.51L123.74 154.42L126.75 160.20L133.14 167.78L138.33 173.79L142.49 179.14L144.96 182.32L148.67 188.26L149.63 190.36L152.83 195.70L163.79 191.89L166.36 190.67L174.68 185.90L186.25 181.51L188.03 184.14L190.06 187.18L192.23 191.27L193.88 194.40L196.18 197.95Z" data-ward="24" /><path id="ward-18" class="ward" d="M649.57 353.67L643.24 352.50L635.93 351.15L624.06 348.99L613.59 346.23L605.79 334.98L604.54 336.90L602.43 337.85L599.12 339.34L596.71 341.07L594.89 342.90L591.25 346.56L587.13 348.15L577.68 351.35L575.95 351.90L570.42 353.63L568.46 354.14L565.43 353.20L559.61 355.61L552.87 359.24L548.88 360.08L550.85 363.76L551.81 366.20L552.95 368.90L554.24 371.95L556.79 377.70L559.54 383.16L560.65 385.36L563.60 387.19L565.30 390.70L567.54 396.41L568.27 398.29L570.48 399.58L572.69 411.24L573.31 415.53L573.56 417.22L573.71 423.68L573.74 425.77L573.37 429.65L571.45 430.02L567.42 430.84L563.07 433.69L561.24 438.48L560.86 444.04L560.95 447.05L561.08 451.20L560.90 456.55L560.57 462.67L561.68 464.86L562.23 467.15L566.34 467.23L570.18 466.57L581.87 464.51L598.23 461.29L605.12 460.11L611.36 458.33L613.53 456.64L615.63 459.10L619.46 466.03L620.30 470.31L621.09 473.77L622.07 478.07L623.81 484.88L624.31 486.80L625.86 495.47L626.19 499.65L627.75 502.23L632.39 500.00L635.21 498.91L640.09 497.18L644.06 495.78L649.98 493.87L642.79 489.20L642.38 487.49L642.18 481.38L642.11 479.34L642.17 476.00L642.24 472.67L642.55 470.84L645.59 470.87L650.19 470.23L655.08 469.19L657.02 469.70L661.70 469.36L662.95 467.79L664.46 466.04L665.97 464.29L669.01 460.33L668.17 456.16L667.40 450.09L667.23 446.21L673.39 445.74L683.30 446.08L686.00 445.34L694.51 446.62L700.56 447.36L702.52 447.68L704.48 447.99L711.55 449.33L713.45 449.81L715.35 450.29L718.10 450.42L720.25 446.49L724.85 442.91L723.67 439.61L721.58 435.82L723.50 429.92L728.40 416.55L731.29 407.03L731.97 404.80L734.80 400.52L738.33 395.25L738.14 390.71L733.50 390.94L721.20 391.69L720.72 394.01L719.06 394.85L718.74 397.02L715.43 397.34L706.93 398.02L707.42 402.99L707.59 404.69L707.37 408.07L705.35 408.20L700.77 408.35L696.19 408.51L693.98 407.63L693.85 405.74L693.67 403.12L693.41 399.37L693.23 397.50L692.46 389.33L693.18 385.07L693.26 380.18L693.00 372.75L690.70 363.72L688.59 362.99L673.06 357.41L667.18 356.70L661.86 356.06L649.57 353.67Z" data-ward="18" /><path id="ward-2" class="ward" d="M634.62 155.40L630.42 155.37L623.22 154.13L617.37 153.01L610.87 151.78L607.21 150.57L603.53 149.34L595.74 146.65L589.49 144.49L583.32 142.36L567.42 136.87L559.80 133.23L544.20 124.91L542.67 124.09L539.25 123.16L536.54 122.42L532.74 121.42L530.72 120.89L525.34 119.28L522.74 118.50L520.84 117.93L512.82 115.74L510.74 115.17L508.90 114.67L507.13 114.18L505.35 113.69L503.52 113.19L499.87 112.20L496.94 111.39L493.29 110.40L484.93 108.11L482.22 107.36L480.04 106.77L476.25 105.73L461.94 101.81L419.26 86.88L419.32 89.49L417.44 96.35L415.99 101.65L414.55 106.92L413.64 110.24L412.21 115.50L411.24 119.10L410.69 121.11L409.59 125.23L408.66 129.19L406.39 138.79L406.32 140.75L406.38 143.45L407.39 148.10L409.33 150.26L406.79 152.38L402.48 155.05L399.57 157.20L400.81 160.73L401.62 162.48L403.68 166.65L404.11 169.69L404.16 171.78L404.41 174.68L404.87 178.23L405.44 182.65L400.26 185.82L396.90 188.72L397.89 191.96L399.20 194.44L400.50 196.92L401.55 200.26L402.50 203.56L398.25 205.71L394.30 207.09L407.14 213.79L419.28 220.12L435.77 228.80L452.78 238.25L463.14 244.00L471.03 248.37L477.15 251.77L491.18 252.96L500.45 253.74L519.26 256.95L525.35 257.99L537.35 262.51L550.27 267.38L554.79 269.62L559.61 274.22L567.30 281.54L570.92 285.10L580.30 294.34L581.64 295.84L584.28 299.83L586.92 303.83L590.06 308.81L595.34 317.39L604.71 333.16L605.79 334.98L613.59 346.23L624.06 348.99L635.93 351.15L643.24 352.50L649.57 353.67L661.86 356.06L667.18 356.70L673.06 357.41L672.24 355.00L668.11 347.16L665.56 341.56L678.58 337.46L677.87 335.35L674.13 326.57L672.87 324.41L668.64 314.51L657.07 289.76L654.55 281.89L653.59 278.74L652.27 270.88L651.61 265.40L649.81 261.09L646.95 256.94L642.51 252.27L641.56 250.68L640.02 246.29L640.20 243.59L641.21 240.06L640.47 230.71L639.97 226.91L645.11 195.52L648.55 174.50L651.19 158.30L653.42 156.09L648.93 156.09L646.56 156.09L643.21 156.09L640.69 156.09L638.14 156.09L634.62 155.40Z" data-ward="2" /><path id="ward-1" class="ward" d="M248.09 2.10L232.64 0.00L204.98 1.57L199.31 1.89L188.11 2.01L185.85 2.90L182.81 3.29L161.00 6.35L157.73 6.81L149.89 8.14L147.93 8.48L143.79 9.18L140.84 9.68L138.98 10.00L137.37 10.82L135.17 11.94L133.27 12.91L131.62 13.74L129.16 15.00L126.92 16.14L115.73 21.83L110.91 24.28L106.23 26.66L101.21 29.22L99.38 30.39L97.10 31.84L91.75 35.25L90.20 36.24L88.38 37.40L86.48 38.61L84.71 39.74L82.90 40.90L81.30 41.91L79.68 42.95L78.19 43.90L76.72 44.84L74.96 45.96L73.51 46.95L71.12 48.57L69.64 49.57L68.16 50.57L65.50 52.31L64.06 53.24L62.58 54.20L61.14 55.14L59.63 56.12L54.99 59.03L51.04 61.51L45.77 64.84L42.66 66.81L41.13 68.02L38.79 69.51L31.69 74.05L30.09 75.08L27.39 76.81L25.20 78.21L23.03 79.60L20.91 80.96L18.64 82.42L15.91 84.16L12.46 86.41L10.10 87.94L7.76 89.47L5.38 91.02L3.08 92.51L0.00 94.52L13.65 128.20L25.18 137.34L50.26 156.55L62.49 168.84L81.47 189.02L98.14 208.58L105.48 202.86L113.76 196.50L119.71 191.65L122.77 188.06L125.62 184.62L127.85 182.09L132.02 178.83L138.33 173.79L133.14 167.78L126.75 160.20L123.74 154.42L122.63 151.51L120.95 147.03L116.65 137.97L113.88 131.92L111.74 126.06L109.95 121.34L109.73 119.39L110.46 114.15L111.95 108.90L113.89 110.27L115.08 111.61L117.07 113.89L118.49 115.15L120.65 116.71L122.14 118.23L124.99 121.53L128.32 125.52L130.09 132.01L130.03 133.97L132.71 140.57L137.66 140.54L143.07 138.17L148.62 135.24L153.73 131.68L156.10 131.03L153.75 126.09L151.92 122.10L153.66 118.59L154.46 114.33L154.51 111.78L154.12 107.29L152.88 104.34L156.63 103.30L158.33 102.61L159.16 100.31L159.14 96.12L161.87 96.18L161.85 89.42L162.46 86.41L165.28 87.86L172.83 91.73L175.35 93.03L177.46 94.99L180.45 99.75L183.45 104.51L185.56 105.59L187.50 106.36L191.50 107.93L201.03 117.12L202.67 118.11L207.41 121.10L213.99 124.92L245.64 143.89L254.39 145.32L258.93 146.06L263.47 146.80L265.29 147.10L274.12 148.68L278.35 150.54L280.33 151.42L283.60 152.86L286.25 154.03L288.58 155.06L292.48 156.79L295.68 158.36L325.25 172.84L344.79 182.55L356.36 188.30L361.38 190.80L380.59 200.18L386.08 202.87L394.30 207.09L398.25 205.71L402.50 203.56L401.55 200.26L400.50 196.92L399.20 194.44L397.89 191.96L396.90 188.72L400.26 185.82L405.44 182.65L404.87 178.23L404.41 174.68L404.16 171.78L404.11 169.69L403.68 166.65L401.62 162.48L400.81 160.73L399.57 157.20L402.48 155.05L406.79 152.38L409.33 150.26L407.39 148.10L406.38 143.45L406.32 140.75L406.39 138.79L408.66 129.19L409.59 125.23L410.69 121.11L411.24 119.10L412.21 115.50L413.64 110.24L414.55 106.92L415.99 101.65L417.44 96.35L419.32 89.49L419.26 86.88L399.79 79.72L396.91 78.28L370.64 61.44L347.91 46.87L326.20 34.77L302.42 20.45L283.62 12.51L275.03 9.34L266.22 6.10L255.29 2.07L253.19 2.79L248.09 2.10Z" data-ward="1" /><path id="ward-3" class="ward" d="M801.85 386.85L806.69 383.70L812.88 383.27L821.49 381.65L823.28 381.31L822.18 376.34L818.77 373.01L817.13 371.41L816.83 367.82L816.63 365.51L820.65 360.76L823.09 355.04L824.55 351.07L826.84 344.85L828.50 339.95L829.21 337.84L830.00 334.47L829.56 331.26L829.18 328.58L830.08 322.63L833.98 321.77L840.25 310.64L844.45 302.69L850.87 288.82L856.18 277.35L858.03 272.71L848.99 268.48L847.18 267.63L841.45 264.70L839.23 263.57L835.48 261.23L833.23 259.83L831.76 258.90L825.12 254.22L817.08 248.55L813.30 246.07L803.32 239.53L797.11 235.57L789.39 230.21L779.22 223.59L776.90 221.83L771.70 218.46L765.75 214.61L761.96 212.16L760.00 210.89L756.27 208.05L748.07 202.48L743.66 199.46L739.82 196.40L737.51 194.70L735.67 193.36L732.75 191.20L731.04 190.18L729.05 189.37L727.38 188.27L724.90 187.16L723.43 186.23L719.73 183.45L716.64 182.18L710.48 177.87L706.88 176.31L701.35 172.82L686.21 164.99L683.41 164.13L669.00 157.33L661.07 155.60L658.81 155.75L653.42 156.09L651.19 158.30L648.55 174.50L645.11 195.52L639.97 226.91L640.47 230.71L641.21 240.06L640.20 243.59L640.02 246.29L641.56 250.68L642.51 252.27L646.95 256.94L649.81 261.09L651.61 265.40L652.27 270.88L653.59 278.74L654.55 281.89L657.07 289.76L668.64 314.51L672.87 324.41L674.13 326.57L677.87 335.35L678.58 337.46L665.56 341.56L668.11 347.16L672.24 355.00L673.06 357.41L688.59 362.99L690.70 363.72L693.00 372.75L693.26 380.18L693.18 385.07L692.46 389.33L693.23 397.50L693.41 399.37L693.67 403.12L693.85 405.74L693.98 407.63L696.19 408.51L700.77 408.35L705.35 408.20L707.37 408.07L707.59 404.69L707.42 402.99L706.93 398.02L715.43 397.34L718.74 397.02L719.06 394.85L720.72 394.01L721.20 391.69L733.50 390.94L738.14 390.71L738.33 395.25L734.80 400.52L731.97 404.80L731.29 407.03L728.40 416.55L723.50 429.92L721.58 435.82L723.67 439.61L724.85 442.91L720.25 446.49L718.10 450.42L719.25 452.08L719.94 456.51L730.84 448.97L734.73 446.43L741.17 441.88L745.45 438.34L748.23 436.03L751.65 432.42L756.51 426.40L758.90 414.29L758.84 411.40L759.04 405.98L772.32 405.35L779.04 402.92L786.44 402.43L788.52 400.74L789.05 398.88L796.62 390.28L801.85 386.85Z" data-ward="3" /><path id="ward-21" class="ward" d="M345.65 376.81L344.60 381.13L345.57 383.50L339.08 386.53L336.61 387.78L333.99 389.82L331.81 392.12L333.90 395.78L326.24 400.11L324.46 397.75L321.71 393.80L320.71 392.36L318.69 388.76L314.72 381.41L307.58 370.86L303.37 364.93L302.40 363.53L300.44 359.65L299.75 357.92L298.61 356.12L297.48 354.31L293.31 348.51L286.70 340.47L285.57 339.08L284.51 337.72L270.01 321.18L268.29 322.50L265.86 324.47L258.14 330.19L251.26 334.16L248.69 335.43L246.12 336.70L243.14 338.17L236.70 340.66L232.47 343.46L228.34 346.51L224.20 349.57L219.81 352.97L212.60 358.14L218.88 366.61L239.55 394.41L259.61 423.11L280.31 453.01L298.64 478.20L318.19 504.09L337.03 532.08L355.71 559.45L374.06 585.99L389.54 608.98L400.94 629.58L409.35 623.05L419.24 615.38L423.01 612.45L427.87 608.69L429.55 607.38L431.21 606.00L434.20 602.10L431.39 598.01L435.17 594.98L438.95 591.95L443.62 588.51L449.58 587.27L454.92 585.53L454.27 582.36L453.63 579.18L457.37 577.35L458.98 574.60L462.36 572.97L462.13 570.70L457.40 561.95L455.38 555.55L452.56 548.10L451.24 545.70L450.33 544.18L447.83 543.74L445.49 544.36L441.96 538.25L441.04 536.60L435.40 529.46L442.58 526.42L448.76 523.82L446.88 520.13L445.88 518.05L444.43 515.06L448.25 512.37L451.27 510.24L455.80 507.60L457.94 506.35L460.63 504.78L464.37 502.86L466.72 501.84L469.79 500.01L467.81 494.37L466.70 491.23L464.41 486.65L463.08 483.99L461.63 481.09L461.58 478.41L461.84 474.84L460.93 473.22L459.48 470.71L458.04 468.20L453.08 459.56L446.93 450.12L445.18 447.34L442.28 442.71L433.57 428.69L431.24 424.80L422.33 409.95L416.31 400.63L407.44 386.46L406.24 384.56L403.14 380.40L401.12 377.84L399.01 374.20L392.90 364.05L389.46 358.31L383.30 348.28L382.29 346.64L378.73 349.75L377.11 350.66L372.34 353.37L367.58 355.70L364.38 355.69L360.80 357.20L359.23 358.08L352.90 361.75L340.67 368.88L337.47 371.54L338.96 374.03L341.43 373.56L343.77 373.34L345.65 376.81Z" data-ward="21" /><path id="ward-19" class="ward" d="M461.63 481.09L463.08 483.99L464.41 486.65L466.70 491.23L467.81 494.37L469.79 500.01L466.72 501.84L464.37 502.86L460.63 504.78L457.94 506.35L455.80 507.60L451.27 510.24L448.25 512.37L444.43 515.06L445.88 518.05L446.88 520.13L448.76 523.82L442.58 526.42L435.40 529.46L441.04 536.60L441.96 538.25L445.49 544.36L447.83 543.74L450.33 544.18L451.24 545.70L452.56 548.10L455.38 555.55L457.40 561.95L462.13 570.70L462.36 572.97L466.12 570.63L471.66 567.74L479.02 564.26L480.98 563.35L488.17 559.95L493.11 556.96L501.67 551.83L510.22 546.69L524.58 539.92L530.37 537.19L530.93 539.44L531.43 542.29L532.01 545.64L533.31 551.51L539.05 543.03L548.36 534.54L552.42 532.67L557.43 530.36L560.09 525.82L562.98 520.89L565.54 520.03L565.70 512.91L565.49 509.28L565.20 504.20L564.55 496.94L564.30 494.82L563.45 487.79L562.86 482.94L562.52 475.49L562.23 467.15L561.68 464.86L560.57 462.67L560.90 456.55L561.08 451.20L560.95 447.05L560.86 444.04L561.24 438.48L563.07 433.69L567.42 430.84L571.45 430.02L573.37 429.65L573.74 425.77L573.71 423.68L573.56 417.22L573.31 415.53L572.69 411.24L570.48 399.58L568.27 398.29L567.54 396.41L565.30 390.70L563.60 387.19L560.65 385.36L559.54 383.16L556.79 377.70L554.24 371.95L552.95 368.90L551.81 366.20L550.85 363.76L548.88 360.08L547.12 358.18L544.87 354.99L537.23 357.54L530.33 360.54L517.54 367.25L507.46 372.65L502.60 375.08L500.29 374.71L498.57 373.03L496.79 370.71L493.32 372.49L490.18 374.34L482.44 378.80L479.83 380.07L471.70 383.72L467.68 385.54L463.87 387.24L456.83 390.17L445.41 396.47L440.91 398.76L437.69 400.40L436.05 401.23L432.79 402.89L429.56 404.99L425.41 407.71L422.33 409.95L431.24 424.80L433.57 428.69L442.28 442.71L445.18 447.34L446.93 450.12L453.08 459.56L458.04 468.20L459.48 470.71L460.93 473.22L461.84 474.84L461.58 478.41L461.63 481.09Z" data-ward="19" /><path id="ward-23" class="ward" d="M338.96 374.03L337.47 371.54L340.67 368.88L352.90 361.75L359.23 358.08L360.80 357.20L364.38 355.69L367.58 355.70L372.34 353.37L377.11 350.66L378.73 349.75L382.29 346.64L380.31 343.25L377.93 339.20L374.72 333.61L368.77 323.31L365.98 318.46L362.29 311.49L358.53 304.60L354.98 297.99L353.87 295.70L350.34 288.26L345.21 281.50L344.35 279.90L342.49 276.33L340.62 272.73L339.10 269.60L334.62 260.25L333.16 257.51L328.13 248.86L321.61 241.57L317.38 234.13L312.03 225.26L310.10 222.92L294.85 230.76L285.62 234.98L283.29 236.02L277.83 240.22L273.65 242.17L264.29 246.49L260.75 248.13L257.21 249.76L250.90 252.68L236.22 259.80L229.86 250.13L227.76 246.95L220.99 236.54L219.89 234.86L217.73 232.46L215.68 230.13L213.64 227.81L212.50 226.05L207.03 217.22L204.51 212.71L202.83 209.46L201.70 207.14L199.63 203.69L196.18 197.95L193.88 194.40L192.23 191.27L190.06 187.18L188.03 184.14L186.25 181.51L174.68 185.90L166.36 190.67L163.79 191.89L152.83 195.70L149.63 190.36L148.67 188.26L144.96 182.32L142.49 179.14L138.33 173.79L132.02 178.83L127.85 182.09L125.62 184.62L122.77 188.06L119.71 191.65L113.76 196.50L105.48 202.86L98.14 208.58L172.62 302.64L212.60 358.14L219.81 352.97L224.20 349.57L228.34 346.51L232.47 343.46L236.70 340.66L243.14 338.17L246.12 336.70L248.69 335.43L251.26 334.16L258.14 330.19L265.86 324.47L268.29 322.50L270.01 321.18L284.51 337.72L285.57 339.08L286.70 340.47L293.31 348.51L297.48 354.31L298.61 356.12L299.75 357.92L300.44 359.65L302.40 363.53L303.37 364.93L307.58 370.86L314.72 381.41L318.69 388.76L320.71 392.36L321.71 393.80L324.46 397.75L326.24 400.11L333.90 395.78L331.81 392.12L333.99 389.82L336.61 387.78L339.08 386.53L345.57 383.50L344.60 381.13L345.65 376.81L343.77 373.34L341.43 373.56L338.96 374.03Z" data-ward="23" /><path id="ward-6" class="ward" d="M784.46 561.81L783.50 557.41L778.79 559.11L774.07 560.80L767.80 562.94L764.03 564.24L758.88 566.03L755.86 567.10L758.22 570.72L760.22 575.62L764.62 586.39L769.93 593.21L771.23 594.63L776.09 599.95L780.43 604.76L785.32 608.40L789.34 611.30L800.66 618.89L812.18 626.71L820.62 632.08L825.72 637.15L828.13 639.56L830.82 642.88L835.33 642.66L843.93 644.81L847.59 645.96L851.27 646.68L853.15 640.85L853.59 638.89L855.09 634.91L859.19 634.78L862.34 635.01L865.52 634.66L868.10 634.35L870.77 634.03L872.67 633.76L873.59 637.41L874.29 641.39L874.99 645.36L875.47 648.75L877.56 651.29L878.64 652.75L879.93 655.08L880.12 657.09L879.87 660.61L879.64 663.91L879.47 666.53L879.41 668.91L878.86 672.33L878.36 674.68L877.49 676.61L876.56 678.84L879.13 679.64L881.26 680.16L884.44 680.35L886.47 680.00L890.07 679.60L892.77 679.32L895.47 679.03L897.74 679.00L900.02 678.98L902.46 679.88L905.52 679.74L910.39 679.51L912.75 679.40L914.00 674.91L915.33 673.47L917.30 673.13L918.70 671.80L920.11 670.47L923.61 668.68L925.34 667.44L928.37 665.94L930.23 661.81L933.03 660.08L934.43 662.73L937.83 671.29L942.21 671.18L951.68 667.06L943.13 662.49L938.50 660.01L935.27 657.03L932.42 655.24L929.80 653.61L927.01 651.92L925.73 649.59L925.20 646.24L924.90 644.36L923.82 639.48L923.12 636.62L922.62 634.60L922.21 632.95L921.04 628.18L919.91 624.53L919.44 620.44L918.92 618.34L918.15 616.06L918.34 612.04L918.52 610.10L918.70 608.09L918.29 605.04L917.94 601.42L918.46 598.22L920.37 595.36L922.03 592.27L918.86 590.28L910.79 588.98L908.36 588.52L903.43 587.76L899.11 587.09L895.36 586.68L892.78 586.39L889.14 585.69L886.90 585.25L885.07 584.90L883.35 587.11L882.05 588.78L880.40 588.08L876.49 586.54L871.18 584.63L866.58 583.41L864.47 583.00L861.22 583.64L860.98 587.32L851.92 587.37L852.44 583.07L850.04 583.33L848.01 583.56L845.37 583.91L839.03 584.91L835.39 585.10L831.10 585.02L826.82 584.94L823.76 584.82L823.74 581.14L823.73 577.71L818.66 578.27L813.64 579.79L808.35 581.19L806.26 580.59L805.91 577.61L808.72 574.76L810.25 569.65L812.57 568.76L816.92 566.71L817.35 563.67L817.32 560.83L815.24 560.12L809.33 559.64L803.34 559.68L797.65 561.17L795.87 561.60L791.50 562.36L788.14 562.93L784.77 563.50L784.46 561.81Z" data-ward="6" /><path id="ward-13" class="ward" d="M762.90 618.64L760.32 618.68L756.13 618.76L752.96 619.52L749.47 619.70L747.32 619.36L743.03 619.24L738.71 619.11L738.23 616.62L738.68 612.35L738.73 609.78L738.79 607.23L738.55 605.23L738.13 601.03L738.03 595.67L737.97 592.35L735.69 589.81L735.67 584.83L728.93 582.97L726.61 582.97L723.30 583.06L721.17 583.24L720.90 586.29L718.40 586.24L715.08 586.17L711.75 586.10L709.84 586.06L708.99 594.38L708.66 599.42L708.55 601.36L708.66 612.90L708.59 615.30L708.51 617.11L708.43 619.43L706.48 622.76L706.18 627.28L705.98 633.03L701.65 632.26L697.50 631.37L692.95 630.44L689.41 628.51L683.83 628.74L677.79 629.15L673.70 630.47L671.44 631.06L664.50 631.64L662.09 631.92L656.74 632.55L652.09 632.50L647.73 632.64L646.56 636.86L645.78 639.15L642.82 638.74L635.20 636.21L633.80 638.79L632.88 643.87L632.06 648.43L632.04 654.15L632.63 656.38L639.33 657.30L642.47 657.87L646.38 659.08L648.31 659.48L653.73 659.23L659.25 659.00L660.97 659.01L664.55 659.16L664.33 662.37L664.40 666.84L664.06 671.16L663.38 674.52L663.02 676.27L662.34 679.60L661.67 683.04L661.30 684.76L660.46 688.82L660.01 692.89L660.16 698.28L661.18 702.65L661.15 707.86L661.28 711.35L662.54 714.13L662.55 717.53L662.25 722.19L661.57 726.15L658.53 728.51L658.48 731.45L658.12 736.92L657.39 739.82L657.84 746.02L658.04 748.81L658.77 752.92L659.70 757.91L665.44 754.94L667.78 754.37L675.49 753.38L679.44 752.77L684.39 751.22L689.96 749.61L692.09 749.02L694.22 748.44L697.75 747.65L699.86 747.52L702.56 747.49L705.33 747.04L705.85 745.19L706.38 738.04L708.40 737.08L710.41 734.04L710.38 729.98L717.46 729.80L719.33 729.89L721.77 730.01L725.20 730.19L727.79 729.15L731.29 726.14L733.80 723.71L737.01 721.19L739.62 717.73L746.45 717.12L752.77 714.93L756.10 712.80L759.56 712.33L762.39 712.19L765.60 712.03L768.26 710.56L770.28 709.52L775.99 709.65L778.94 709.72L778.54 707.45L777.29 704.48L776.41 701.41L776.04 697.83L776.08 695.75L776.42 693.92L776.98 691.22L776.15 684.53L776.60 682.83L777.09 680.25L777.71 676.96L777.70 673.68L777.04 668.37L775.32 661.39L772.62 652.35L770.40 645.54L769.81 643.55L768.62 639.51L767.23 634.82L766.64 632.44L765.79 629.08L764.71 622.01L762.90 618.64Z" data-ward="13" /><path id="ward-16" class="ward" d="M400.94 629.58L404.82 634.82L414.52 649.43L432.46 642.64L443.11 639.48L448.05 638.02L460.33 634.79L465.33 632.13L474.46 629.13L474.88 622.05L477.11 621.06L483.88 620.53L488.63 620.48L492.98 620.44L492.94 617.82L496.34 616.54L502.36 615.61L504.53 615.26L509.33 614.51L520.65 611.68L522.35 611.27L532.34 611.61L531.60 613.75L530.94 616.39L529.86 618.28L529.05 619.99L528.61 623.50L528.61 626.46L528.94 629.39L531.27 630.83L535.44 640.29L544.15 639.53L550.79 639.30L554.27 639.46L560.56 639.69L562.57 638.31L563.16 635.39L566.14 635.92L569.13 636.44L573.66 637.52L576.33 638.39L578.97 639.42L583.15 640.83L586.99 641.33L587.56 639.55L588.11 637.75L589.23 634.26L590.38 631.45L591.42 627.01L592.08 623.00L592.70 620.23L593.42 617.03L599.01 618.00L601.66 618.67L604.31 619.33L606.13 619.77L612.96 620.81L619.47 621.08L624.16 621.19L627.42 621.92L631.43 622.41L635.49 622.90L639.46 623.48L640.98 622.60L641.40 618.30L640.61 609.44L640.10 599.86L639.71 592.04L639.30 583.75L639.17 581.19L638.74 577.52L637.83 569.68L637.13 563.94L634.84 563.83L635.09 557.53L634.99 552.65L635.07 550.88L635.42 545.45L635.20 543.42L634.71 537.91L634.08 530.34L633.00 525.24L632.32 521.98L631.71 519.71L631.06 517.24L630.37 514.86L628.84 509.58L629.11 504.99L627.75 502.23L626.19 499.65L625.86 495.47L624.31 486.80L623.81 484.88L622.07 478.07L621.09 473.77L620.30 470.31L619.46 466.03L615.63 459.10L613.53 456.64L611.36 458.33L605.12 460.11L598.23 461.29L581.87 464.51L570.18 466.57L566.34 467.23L562.23 467.15L562.52 475.49L562.86 482.94L563.45 487.79L564.30 494.82L564.55 496.94L565.20 504.20L565.49 509.28L565.70 512.91L565.54 520.03L562.98 520.89L560.09 525.82L557.43 530.36L552.42 532.67L548.36 534.54L539.05 543.03L533.31 551.51L532.01 545.64L531.43 542.29L530.93 539.44L530.37 537.19L524.58 539.92L510.22 546.69L501.67 551.83L493.11 556.96L488.17 559.95L480.98 563.35L479.02 564.26L471.66 567.74L466.12 570.63L462.36 572.97L458.98 574.60L457.37 577.35L453.63 579.18L454.27 582.36L454.92 585.53L449.58 587.27L443.62 588.51L438.95 591.95L435.17 594.98L431.39 598.01L434.20 602.10L431.21 606.00L429.55 607.38L427.87 608.69L423.01 612.45L419.24 615.38L409.35 623.05L400.94 629.58Z" data-ward="16" /><path id="ward-17" class="ward" d="M686.00 445.34L683.30 446.08L673.39 445.74L667.23 446.21L667.40 450.09L668.17 456.16L669.01 460.33L665.97 464.29L664.46 466.04L662.95 467.79L661.70 469.36L657.02 469.70L655.08 469.19L650.19 470.23L645.59 470.87L642.55 470.84L642.24 472.67L642.17 476.00L642.11 479.34L642.18 481.38L642.38 487.49L642.79 489.20L649.98 493.87L644.06 495.78L640.09 497.18L635.21 498.91L632.39 500.00L627.75 502.23L629.11 504.99L628.84 509.58L630.37 514.86L631.06 517.24L631.71 519.71L632.32 521.98L633.00 525.24L634.08 530.34L634.71 537.91L635.20 543.42L635.42 545.45L635.07 550.88L634.99 552.65L635.09 557.53L634.84 563.83L637.13 563.94L637.83 569.68L638.74 577.52L639.17 581.19L639.30 583.75L639.71 592.04L640.10 599.86L640.61 609.44L641.40 618.30L640.98 622.60L639.46 623.48L637.11 629.26L636.82 631.33L636.57 633.53L635.20 636.21L642.82 638.74L645.78 639.15L646.56 636.86L647.73 632.64L652.09 632.50L656.74 632.55L662.09 631.92L664.50 631.64L671.44 631.06L673.70 630.47L677.79 629.15L683.83 628.74L689.41 628.51L692.95 630.44L697.50 631.37L701.65 632.26L705.98 633.03L706.18 627.28L706.48 622.76L708.43 619.43L708.51 617.11L708.59 615.30L708.66 612.90L708.55 601.36L708.66 599.42L708.99 594.38L709.84 586.06L711.75 586.10L715.08 586.17L718.40 586.24L720.90 586.29L721.17 583.24L723.30 583.06L726.61 582.97L728.93 582.97L735.67 584.83L735.69 589.81L737.97 592.35L738.03 595.67L738.13 601.03L738.55 605.23L738.79 607.23L738.73 609.78L738.68 612.35L738.23 616.62L738.71 619.11L743.03 619.24L747.32 619.36L749.47 619.70L752.96 619.52L756.13 618.76L760.32 618.68L762.90 618.64L766.20 618.26L769.51 617.88L771.18 617.11L773.90 615.37L774.43 613.32L774.69 611.07L780.86 611.10L785.14 611.20L789.34 611.30L785.32 608.40L780.43 604.76L776.09 599.95L771.23 594.63L769.93 593.21L764.62 586.39L760.22 575.62L758.22 570.72L755.86 567.10L751.64 562.45L745.31 553.00L738.34 542.18L737.37 540.57L736.20 538.65L735.04 536.72L731.28 530.50L725.83 520.96L722.09 513.55L718.81 508.01L716.93 503.32L716.19 501.35L714.54 496.97L713.43 493.99L712.83 492.36L712.16 490.61L711.14 487.93L709.09 482.57L709.82 479.87L711.26 477.32L715.77 469.34L719.36 461.61L719.84 459.30L719.94 456.51L719.25 452.08L718.10 450.42L715.35 450.29L713.45 449.81L711.55 449.33L704.48 447.99L702.52 447.68L700.56 447.36L694.51 446.62L686.00 445.34Z" data-ward="17" /><path id="ward-22" class="ward" d="M605.79 334.98L604.71 333.16L595.34 317.39L590.06 308.81L586.92 303.83L584.28 299.83L581.64 295.84L580.30 294.34L570.92 285.10L567.30 281.54L559.61 274.22L554.79 269.62L550.27 267.38L537.35 262.51L525.35 257.99L519.26 256.95L500.45 253.74L491.18 252.96L477.15 251.77L471.03 248.37L463.14 244.00L462.26 246.40L458.56 248.52L457.03 249.28L449.33 252.95L442.11 256.76L435.91 260.04L428.87 264.04L431.28 266.91L432.31 268.36L434.32 271.32L437.04 275.36L438.28 277.25L438.32 280.89L437.58 283.86L436.29 286.51L438.04 290.02L441.24 296.07L444.98 301.67L445.54 303.68L446.39 306.38L450.55 312.95L454.34 319.16L455.50 322.06L457.28 326.51L453.52 328.49L447.85 331.11L445.84 332.02L439.52 334.69L440.69 338.03L441.37 339.98L445.15 344.21L446.49 347.21L447.29 348.97L448.62 351.87L451.83 356.31L453.93 359.01L455.79 361.80L456.63 363.61L458.11 368.35L462.80 376.78L465.10 381.14L467.68 385.54L471.70 383.72L479.83 380.07L482.44 378.80L490.18 374.34L493.32 372.49L496.79 370.71L498.57 373.03L500.29 374.71L502.60 375.08L507.46 372.65L517.54 367.25L530.33 360.54L537.23 357.54L544.87 354.99L547.12 358.18L548.88 360.08L552.87 359.24L559.61 355.61L565.43 353.20L568.46 354.14L570.42 353.63L575.95 351.90L577.68 351.35L587.13 348.15L591.25 346.56L594.89 342.90L596.71 341.07L599.12 339.34L602.43 337.85L604.54 336.90L605.79 334.98Z" data-ward="22" /><path id="ward-20" class="ward" d="M394.30 207.09L386.08 202.87L380.59 200.18L361.38 190.80L356.36 188.30L344.79 182.55L325.25 172.84L295.68 158.36L292.48 156.79L288.58 155.06L286.25 154.03L283.60 152.86L280.33 151.42L278.35 150.54L274.12 148.68L275.91 153.33L276.71 154.86L279.67 160.81L281.32 165.90L282.93 170.81L285.61 176.20L287.88 180.81L289.66 184.60L294.41 194.86L295.26 197.72L296.48 201.80L297.58 204.54L303.29 211.18L310.10 222.92L312.03 225.26L317.38 234.13L321.61 241.57L328.13 248.86L333.16 257.51L334.62 260.25L339.10 269.60L340.62 272.73L342.49 276.33L344.35 279.90L345.21 281.50L350.34 288.26L353.87 295.70L354.98 297.99L358.53 304.60L362.29 311.49L365.98 318.46L368.77 323.31L374.72 333.61L377.93 339.20L380.31 343.25L382.29 346.64L383.30 348.28L389.46 358.31L392.90 364.05L399.01 374.20L401.12 377.84L403.14 380.40L406.24 384.56L407.44 386.46L416.31 400.63L422.33 409.95L425.41 407.71L429.56 404.99L432.79 402.89L436.05 401.23L437.69 400.40L440.91 398.76L445.41 396.47L456.83 390.17L463.87 387.24L467.68 385.54L465.10 381.14L462.80 376.78L458.11 368.35L456.63 363.61L455.79 361.80L453.93 359.01L451.83 356.31L448.62 351.87L447.29 348.97L446.49 347.21L445.15 344.21L441.37 339.98L440.69 338.03L439.52 334.69L445.84 332.02L447.85 331.11L453.52 328.49L457.28 326.51L455.50 322.06L454.34 319.16L450.55 312.95L446.39 306.38L445.54 303.68L444.98 301.67L441.24 296.07L438.04 290.02L436.29 286.51L437.58 283.86L438.32 280.89L438.28 277.25L437.04 275.36L434.32 271.32L432.31 268.36L431.28 266.91L428.87 264.04L435.91 260.04L442.11 256.76L449.33 252.95L457.03 249.28L458.56 248.52L462.26 246.40L463.14 244.00L452.78 238.25L435.77 228.80L419.28 220.12L407.14 213.79L394.30 207.09Z" data-ward="20" /><path id="ward-10" class="ward" d="M680.00 773.66L678.95 769.96L678.54 766.84L674.85 765.48L671.66 765.47L669.87 765.28L667.81 765.02L660.43 765.52L661.65 770.18L662.45 774.90L662.61 778.80L662.82 781.39L663.07 783.91L663.65 786.75L664.33 790.02L660.16 791.45L654.53 792.92L652.29 794.83L651.57 796.87L648.10 797.94L646.38 798.63L644.62 801.66L640.68 804.82L637.79 807.00L632.31 801.60L627.69 799.05L623.07 796.51L619.41 794.50L614.84 794.97L610.28 795.44L606.63 795.82L598.61 796.15L596.50 795.64L588.18 792.92L587.83 790.13L585.94 789.87L583.21 789.55L579.54 789.41L574.51 790.06L570.08 789.18L568.46 787.96L560.52 789.60L558.73 790.31L555.07 791.90L546.24 795.72L543.44 797.61L540.10 799.62L538.31 801.27L535.75 803.47L533.30 805.37L531.52 807.52L534.40 812.29L534.21 823.09L534.09 829.56L524.68 847.55L523.57 849.46L528.11 853.54L532.08 857.17L537.98 862.22L546.06 869.32L553.36 875.19L559.66 880.09L566.04 884.13L571.86 888.87L579.35 894.92L586.96 902.13L593.23 907.86L599.25 913.52L607.26 920.76L612.98 925.99L616.33 922.67L619.76 920.01L621.70 919.01L624.22 917.24L628.02 914.33L631.97 911.77L637.35 908.45L640.96 905.99L645.25 902.32L647.07 900.83L648.88 899.35L653.43 896.17L656.81 899.72L658.78 901.78L661.05 907.94L662.97 915.37L663.66 917.96L665.42 924.00L674.39 921.99L680.17 918.88L681.40 913.99L687.15 913.86L689.89 913.30L693.68 912.69L696.25 912.30L698.55 912.33L700.85 912.36L704.64 912.94L709.92 914.31L711.87 914.68L718.88 914.90L723.79 914.91L726.78 914.78L728.98 914.69L733.89 914.69L737.84 914.72L737.76 912.49L737.47 910.64L736.59 908.57L734.85 905.68L732.13 902.67L731.03 900.85L730.09 899.16L727.68 893.47L726.03 890.64L722.25 892.07L720.31 892.36L717.44 893.12L711.29 892.94L703.56 890.38L700.35 890.25L696.61 890.96L694.75 891.35L692.89 891.73L691.11 889.28L690.44 886.17L689.79 881.96L687.59 881.87L684.06 881.42L680.82 880.05L677.66 878.75L675.23 877.84L671.30 877.63L668.87 878.94L666.15 879.65L662.33 881.95L659.52 883.92L656.71 885.89L654.24 887.31L653.76 889.62L649.32 892.41L646.86 890.58L636.91 885.39L634.42 884.42L630.97 882.35L628.59 880.42L626.23 878.83L621.19 876.14L618.49 872.67L615.24 867.79L612.25 863.08L611.17 861.08L609.95 858.82L610.47 855.22L610.27 849.73L613.47 848.88L618.44 846.10L621.07 844.85L625.95 843.45L630.00 843.17L634.46 842.86L635.91 844.04L638.07 846.67L641.16 846.41L644.26 846.15L647.58 845.86L649.79 845.68L652.67 845.32L657.67 843.77L659.68 843.21L663.79 842.96L669.11 839.89L672.15 838.24L674.39 837.90L679.45 837.87L682.42 838.06L689.33 838.54L692.57 838.45L694.64 838.26L697.45 838.01L699.93 837.31L701.74 836.85L701.59 831.76L700.25 828.04L699.04 825.57L697.83 823.10L696.98 821.36L693.69 815.27L691.93 809.01L693.53 807.07L693.29 803.58L692.82 799.24L692.75 796.75L692.71 794.92L691.12 788.40L691.05 786.56L691.40 780.79L691.61 778.48L691.81 776.45L691.06 774.88L688.48 774.23L683.78 774.49L680.00 773.66Z" data-ward="10" /><path id="ward-12" class="ward" d="M705.33 747.04L704.86 751.33L704.11 754.95L703.39 758.43L704.60 763.74L707.39 766.64L709.02 770.92L710.93 775.29L711.72 776.84L713.88 776.28L716.91 774.36L720.13 772.89L723.91 771.25L739.40 779.07L742.62 780.19L744.29 780.84L744.43 789.45L744.56 798.07L744.80 805.44L745.04 813.01L743.47 818.93L743.40 821.94L743.83 824.61L744.32 827.45L745.19 832.57L746.51 838.81L747.90 845.37L747.85 850.31L747.79 856.67L750.68 855.26L755.31 852.68L756.79 851.84L758.85 850.32L761.89 848.09L771.64 842.60L773.72 842.07L777.48 840.31L778.98 838.87L781.36 836.12L782.62 834.23L782.88 830.07L783.98 826.43L785.31 824.81L787.25 823.18L788.51 822.00L789.60 820.29L791.11 816.15L793.17 815.24L795.79 814.10L800.71 811.93L806.66 809.06L809.53 806.54L809.25 802.66L808.42 797.07L808.12 794.31L807.81 792.51L805.58 787.09L800.91 788.16L798.14 788.99L792.23 790.42L787.00 791.32L786.39 784.00L785.80 778.10L784.10 760.53L788.29 760.45L790.52 760.10L794.98 759.19L800.39 757.66L802.54 757.08L808.41 756.15L807.96 753.09L807.42 749.01L806.89 744.92L804.88 744.89L800.38 745.22L793.83 745.50L794.20 748.41L791.80 748.64L790.02 748.84L785.47 749.22L779.83 749.69L777.96 748.76L777.86 746.99L777.81 743.59L777.20 734.92L777.94 731.06L785.36 731.43L787.79 731.55L790.41 731.68L791.65 729.49L792.26 726.25L792.81 723.56L793.36 720.87L795.31 712.02L794.98 708.13L794.49 703.88L796.21 701.18L800.17 700.71L803.54 700.30L804.39 698.32L804.79 696.44L809.16 695.11L812.78 693.20L815.48 691.54L817.21 690.54L820.80 689.51L823.04 688.87L827.18 687.69L832.09 687.97L842.46 688.55L846.46 689.34L849.64 689.98L846.37 678.49L843.50 670.10L839.34 659.44L837.89 655.96L836.42 652.64L833.79 646.72L830.82 642.88L828.13 639.56L825.72 637.15L820.62 632.08L812.18 626.71L800.66 618.89L789.34 611.30L785.14 611.20L780.86 611.10L774.69 611.07L774.43 613.32L773.90 615.37L771.18 617.11L769.51 617.88L766.20 618.26L762.90 618.64L764.71 622.01L765.79 629.08L766.64 632.44L767.23 634.82L768.62 639.51L769.81 643.55L770.40 645.54L772.62 652.35L775.32 661.39L777.04 668.37L777.70 673.68L777.71 676.96L777.09 680.25L776.60 682.83L776.15 684.53L776.98 691.22L776.42 693.92L776.08 695.75L776.04 697.83L776.41 701.41L777.29 704.48L778.54 707.45L778.94 709.72L775.99 709.65L770.28 709.52L768.26 710.56L765.60 712.03L762.39 712.19L759.56 712.33L756.10 712.80L752.77 714.93L746.45 717.12L739.62 717.73L737.01 721.19L733.80 723.71L731.29 726.14L727.79 729.15L725.20 730.19L721.77 730.01L719.33 729.89L717.46 729.80L710.38 729.98L710.41 734.04L708.40 737.08L706.38 738.04L705.85 745.19L705.33 747.04Z" data-ward="12" /><path id="ward-15" class="ward" d="M586.99 641.33L583.15 640.83L578.97 639.42L576.33 638.39L573.66 637.52L569.13 636.44L566.14 635.92L563.16 635.39L562.57 638.31L560.56 639.69L554.27 639.46L550.79 639.30L544.15 639.53L535.44 640.29L531.27 630.83L528.94 629.39L528.61 626.46L528.61 623.50L529.05 619.99L529.86 618.28L530.94 616.39L531.60 613.75L532.34 611.61L522.35 611.27L520.65 611.68L509.33 614.51L504.53 615.26L502.36 615.61L496.34 616.54L492.94 617.82L492.98 620.44L488.63 620.48L483.88 620.53L477.11 621.06L474.88 622.05L474.46 629.13L465.33 632.13L460.33 634.79L448.05 638.02L443.11 639.48L432.46 642.64L414.52 649.43L417.89 655.35L424.52 665.58L427.76 673.51L431.00 679.51L435.34 688.16L437.92 695.90L439.39 707.25L448.49 706.56L460.75 707.20L462.28 710.21L462.76 712.15L463.13 714.01L463.71 716.90L464.12 718.94L466.33 719.39L470.99 718.85L473.74 718.42L475.87 721.18L477.99 723.31L479.93 723.07L481.34 724.75L483.90 725.23L485.84 724.43L488.56 723.01L490.43 722.34L492.56 721.87L492.79 724.03L494.10 728.00L497.91 727.65L500.24 726.60L500.19 724.89L502.14 723.87L502.02 721.30L512.78 720.22L514.87 719.73L517.18 719.44L518.88 719.28L522.26 718.62L524.89 717.36L528.67 716.19L533.31 714.95L537.07 713.54L539.74 712.76L541.67 712.26L546.00 711.69L547.51 716.52L547.99 719.79L548.74 726.96L549.41 734.49L549.57 736.22L550.33 743.25L551.86 747.12L552.80 755.27L553.00 757.25L553.48 762.42L554.42 768.82L556.16 768.53L558.84 767.99L558.81 763.05L563.69 763.75L563.97 767.34L571.93 766.54L573.92 767.27L573.94 764.04L572.17 762.71L571.88 760.42L575.07 759.15L580.55 757.00L584.94 755.40L587.46 753.91L588.91 752.01L589.49 749.70L596.21 747.49L598.97 746.75L600.35 744.60L600.37 742.69L599.74 737.23L600.21 732.44L601.33 730.17L603.16 729.47L604.78 728.90L609.47 728.09L614.69 727.18L615.85 725.13L615.63 720.54L615.13 716.98L614.54 712.90L614.07 709.04L613.31 702.08L612.85 696.27L612.64 693.33L615.37 692.84L620.54 692.09L627.03 690.50L626.65 686.93L626.24 684.44L625.73 681.57L625.18 679.15L624.81 677.18L624.30 672.14L624.09 670.32L631.23 669.20L633.51 668.67L634.79 665.68L634.22 663.22L633.75 660.87L632.63 656.38L632.04 654.15L632.06 648.43L632.88 643.87L633.80 638.79L635.20 636.21L636.57 633.53L636.82 631.33L637.11 629.26L639.46 623.48L635.49 622.90L631.43 622.41L627.42 621.92L624.16 621.19L619.47 621.08L612.96 620.81L606.13 619.77L604.31 619.33L601.66 618.67L599.01 618.00L593.42 617.03L592.70 620.23L592.08 623.00L591.42 627.01L590.38 631.45L589.23 634.26L588.11 637.75L587.56 639.55L586.99 641.33Z" data-ward="15" /></svg>