<svg viewBox="0 0 1000.00 1317.88" xmlns="http://www.w3.org/2000/svg"><style>.ward { fill: #e2e8f0; stroke: #fff; stroke-width: 0.5px; } .ward:hover { fill: #cbd5e1; }</style><path id="ward-2" class="ward" d="M442.28 114.51L435.81 115.52L427.76 116.52L425.21 116.84L420.55 117.28L420.57 120.87L419.93 130.10L419.64 134.30L418.84 145.79L417.92 150.36L416.97 155.15L413.29 161.71L412.32 166.09L411.54 169.66L408.78 178.06L406.51 184.31L403.69 192.12L402.60 195.19L398.91 205.66L397.23 210.42L395.36 215.28L393.72 219.54L391.69 224.81L390.83 227.50L389.98 230.20L388.45 235.74L386.95 241.16L385.70 245.69L383.89 251.73L382.62 255.98L381.13 260.95L380.39 263.47L379.65 266.00L377.85 272.42L376.61 276.82L376.06 279.25L375.51 281.69L374.82 285.74L374.03 290.40L373.59 293.06L373.41 297.35L373.45 301.33L373.52 304.46L375.31 308.05L379.39 308.34L384.67 308.72L389.42 310.29L394.26 309.85L398.12 308.63L400.41 307.70L404.82 307.06L407.05 308.74L408.28 316.38L409.78 320.39L414.90 319.69L418.25 318.25L422.89 316.63L425.04 314.06L423.37 310.52L420.73 303.30L421.22 300.84L421.71 298.39L424.94 297.00L429.78 295.46L432.18 294.73L437.06 292.78L440.36 292.57L444.30 292.34L447.26 293.60L448.02 296.00L449.04 300.44L449.95 305.06L451.53 308.59L452.56 311.36L453.76 314.81L454.95 318.68L456.17 322.14L457.55 324.77L458.24 329.94L459.40 333.77L465.60 332.85L472.55 333.85L472.52 337.11L476.09 336.90L484.38 337.24L494.52 333.18L498.49 332.44L501.46 332.58L511.18 333.41L515.40 333.77L518.14 332.93L525.05 330.82L530.79 329.04L541.83 327.48L543.33 329.91L547.96 337.38L559.84 333.31L570.25 329.75L574.26 328.96L588.62 326.10L593.04 343.49L596.26 345.58L617.63 343.47L620.50 343.19L649.88 339.89L653.05 339.53L653.74 336.94L654.97 332.30L655.77 329.31L657.27 326.21L658.84 323.35L665.62 315.34L665.30 307.34L664.81 295.12L664.46 286.31L661.13 276.86L645.29 261.53L633.75 258.80L631.37 257.90L627.61 258.33L604.95 260.93L598.75 260.53L590.02 259.65L578.24 256.94L566.84 254.19L561.73 252.60L555.61 250.55L542.71 246.23L528.29 230.09L522.23 223.31L518.63 219.29L516.91 216.75L515.52 214.70L512.41 210.12L505.57 200.06L503.29 196.70L500.56 192.67L494.06 184.04L489.95 178.37L486.33 174.11L482.73 169.86L479.78 166.38L477.85 164.11L478.20 160.67L478.63 156.40L478.97 152.99L488.71 147.36L491.83 145.55L488.84 142.50L483.58 132.29L478.06 122.08L474.87 122.28L467.57 123.33L460.28 122.32L447.98 124.41L442.28 114.51Z" data-ward="2" /><path id="ward-5" class="ward" d="M655.44 545.54L650.82 545.87L647.83 546.42L641.62 547.70L637.19 547.80L632.69 548.03L629.46 548.17L623.35 548.04L620.10 547.69L618.88 550.75L616.73 554.71L613.77 555.31L608.76 553.66L604.57 553.18L601.95 552.76L599.13 550.32L594.75 548.03L589.86 547.97L582.88 549.74L579.45 550.26L574.84 551.24L572.51 551.40L568.31 551.15L565.27 551.57L560.69 552.33L555.67 552.45L552.32 553.01L547.87 552.93L543.17 552.16L539.55 553.34L535.28 553.73L530.40 553.96L527.23 553.91L522.75 554.22L519.67 553.08L516.88 550.87L513.67 550.98L508.16 551.51L500.84 551.47L500.83 555.95L500.58 558.71L500.31 562.48L500.64 567.57L502.53 572.26L505.25 575.20L505.53 578.23L504.54 580.67L504.02 584.49L503.50 588.32L503.68 592.16L506.60 593.12L510.57 592.53L514.54 591.93L516.83 591.44L521.07 589.70L522.50 586.18L524.97 585.65L528.97 585.80L532.00 586.31L532.18 592.66L531.93 596.53L529.69 597.17L527.09 597.62L521.18 598.86L513.18 604.46L509.03 607.03L507.68 610.67L504.06 611.79L498.72 611.35L495.81 613.40L493.87 614.98L488.30 614.63L484.39 614.55L480.84 614.84L480.25 618.07L481.05 623.49L481.27 627.31L481.21 630.79L481.23 634.22L480.68 639.29L480.38 642.45L477.42 644.36L480.49 647.05L479.89 650.02L479.43 653.51L479.31 656.14L480.13 660.33L479.92 663.09L479.86 667.30L479.32 670.21L478.32 673.84L476.97 680.21L477.14 682.60L478.60 685.31L479.37 688.55L478.76 695.74L478.81 698.32L481.94 700.84L484.59 700.83L487.82 700.96L491.38 700.79L497.12 701.65L500.08 702.29L507.33 702.29L510.78 696.57L511.82 692.93L512.37 690.33L512.82 688.00L513.23 684.64L513.73 681.30L515.08 677.05L516.43 672.79L519.72 668.05L522.42 666.96L529.09 665.58L531.97 664.01L533.67 661.46L534.25 657.98L535.36 653.57L537.62 651.51L539.88 649.44L546.14 648.79L548.83 648.66L551.42 648.55L558.15 648.62L566.23 648.19L571.42 649.41L570.87 654.39L572.22 657.42L574.30 658.74L576.68 659.16L580.17 659.55L586.60 659.85L590.79 666.39L595.00 667.43L600.86 667.57L604.65 668.01L607.23 668.35L609.48 666.78L612.25 660.51L616.74 658.86L625.73 658.93L631.34 658.92L634.55 659.20L640.58 658.83L644.19 658.78L646.70 658.61L649.27 655.94L650.82 653.51L653.67 649.74L659.14 642.12L660.47 638.05L660.39 634.71L659.87 625.35L659.73 622.53L655.55 619.58L651.79 616.74L651.38 613.60L651.45 608.13L650.94 601.53L649.62 594.90L648.86 590.16L648.60 587.86L648.21 584.86L647.10 581.05L643.43 580.75L639.34 575.49L638.72 572.45L637.72 569.33L637.42 564.86L638.24 561.45L641.96 559.99L645.08 559.85L649.49 558.41L654.29 557.23L656.79 551.13L655.44 545.54Z" data-ward="5" /><path id="ward-17" class="ward" d="M477.42 644.36L472.90 644.77L469.73 644.22L466.30 643.68L460.74 644.22L455.60 646.14L451.72 646.82L449.37 650.61L448.63 657.85L448.40 660.24L448.08 666.31L447.66 670.39L447.54 672.81L444.21 674.26L440.07 674.74L435.92 675.07L432.12 674.74L424.63 674.36L415.99 674.18L410.13 675.48L403.37 674.64L400.47 674.28L377.00 672.38L362.47 671.72L347.95 671.07L316.53 670.98L303.51 670.94L304.41 673.54L305.68 677.20L306.28 679.99L308.13 688.50L309.02 693.18L309.89 700.43L312.06 721.74L312.56 729.10L327.34 731.58L349.07 734.37L383.27 740.67L423.44 743.12L456.04 745.20L475.47 746.45L481.10 746.88L486.75 747.44L490.67 747.92L496.33 748.94L506.11 749.21L509.33 749.57L514.95 750.19L525.80 751.49L530.84 752.00L534.13 752.43L537.34 752.98L541.04 753.15L544.87 753.45L552.54 754.11L555.31 754.39L560.68 754.94L563.36 755.21L568.87 755.76L571.57 756.04L578.09 757.30L581.43 757.94L584.71 758.58L591.22 759.84L599.01 761.01L598.36 757.81L596.74 753.45L595.91 750.73L595.63 746.53L595.46 743.93L593.85 738.60L592.79 733.97L595.12 731.84L597.53 730.57L600.12 729.08L602.28 728.10L604.61 727.12L607.03 726.40L609.73 726.06L613.27 724.83L617.77 723.13L636.15 717.84L635.70 714.24L636.45 706.41L637.21 701.04L646.78 699.94L647.36 696.33L647.93 692.73L648.58 689.04L649.05 685.97L649.60 681.59L649.68 675.88L649.63 671.17L649.63 663.87L649.27 660.85L646.70 658.61L644.19 658.78L640.58 658.83L634.55 659.20L631.34 658.92L625.73 658.93L616.74 658.86L612.25 660.51L609.48 666.78L607.23 668.35L604.65 668.01L600.86 667.57L595.00 667.43L590.79 666.39L586.60 659.85L580.17 659.55L576.68 659.16L574.30 658.74L572.22 657.42L570.87 654.39L571.42 649.41L566.23 648.19L558.15 648.62L551.42 648.55L548.83 648.66L546.14 648.79L539.88 649.44L537.62 651.51L535.36 653.57L534.25 657.98L533.67 661.46L531.97 664.01L529.09 665.58L522.42 666.96L519.72 668.05L516.43 672.79L515.08 677.05L513.73 681.30L513.23 684.64L512.82 688.00L512.37 690.33L511.82 692.93L510.78 696.57L507.33 702.29L500.08 702.29L497.12 701.65L491.38 700.79L487.82 700.96L484.59 700.83L481.94 700.84L478.81 698.32L478.76 695.74L479.37 688.55L478.60 685.31L477.14 682.60L476.97 680.21L478.32 673.84L479.32 670.21L479.86 667.30L479.92 663.09L480.13 660.33L479.31 656.14L479.43 653.51L479.89 650.02L480.49 647.05L477.42 644.36Z" data-ward="17" /><path id="ward-18" class="ward" d="M376.38 562.94L375.56 560.52L374.76 558.23L373.05 554.00L369.80 548.00L369.03 541.42L368.41 536.68L368.20 533.27L368.06 530.90L368.52 528.25L353.57 527.83L347.82 527.47L342.42 527.14L334.28 525.10L347.25 504.47L359.42 492.63L359.46 480.04L358.41 467.22L357.45 461.60L356.39 455.37L350.85 442.44L282.78 439.19L279.49 448.47L271.37 460.68L257.58 509.88L252.56 523.88L251.94 529.78L249.75 541.56L247.57 553.30L247.08 555.93L247.61 558.30L249.31 565.92L257.81 615.79L261.17 628.17L265.89 641.86L270.33 651.39L289.14 665.40L295.69 667.92L300.43 669.75L303.51 670.94L316.53 670.98L347.95 671.07L362.47 671.72L377.00 672.38L400.47 674.28L403.37 674.64L410.13 675.48L415.99 674.18L424.63 674.36L432.12 674.74L435.92 675.07L440.07 674.74L444.21 674.26L447.54 672.81L447.66 670.39L448.08 666.31L448.40 660.24L448.63 657.85L449.37 650.61L451.72 646.82L455.60 646.14L460.74 644.22L466.30 643.68L469.73 644.22L472.90 644.77L477.42 644.36L480.38 642.45L480.68 639.29L481.23 634.22L481.21 630.79L481.27 627.31L481.05 623.49L480.25 618.07L480.84 614.84L484.39 614.55L488.30 614.63L493.87 614.98L495.81 613.40L498.72 611.35L504.06 611.79L507.68 610.67L509.03 607.03L513.18 604.46L521.18 598.86L527.09 597.62L529.69 597.17L531.93 596.53L532.18 592.66L532.00 586.31L528.97 585.80L524.97 585.65L522.50 586.18L521.07 589.70L516.83 591.44L514.54 591.93L510.57 592.53L506.60 593.12L503.68 592.16L503.50 588.32L504.02 584.49L504.54 580.67L505.53 578.23L505.25 575.20L502.53 572.26L500.64 567.57L500.31 562.48L500.58 558.71L500.83 555.95L500.84 551.47L497.72 550.58L494.61 549.70L491.00 549.23L487.15 549.49L483.56 550.10L480.50 550.24L474.91 550.14L472.08 550.26L469.24 550.38L465.66 550.93L460.28 551.75L456.26 552.04L453.16 552.31L450.06 552.58L447.09 552.88L440.91 553.26L437.39 552.94L438.98 559.87L436.80 560.87L432.82 562.45L429.98 562.08L427.23 560.71L424.29 558.88L419.87 559.61L415.80 560.54L408.03 562.31L405.04 562.88L399.00 563.79L395.09 564.38L390.08 565.14L384.97 565.91L377.59 566.67L376.38 562.94Z" data-ward="18" /><path id="ward-10" class="ward" d="M436.79 1082.93L430.61 1075.99L420.56 1063.63L416.62 1061.62L415.96 1066.59L416.04 1069.42L401.81 1065.04L394.60 1061.66L391.56 1059.52L388.17 1057.30L382.73 1053.81L380.65 1052.39L377.59 1049.45L369.79 1068.34L359.09 1068.81L353.20 1069.04L347.31 1069.27L343.25 1069.51L339.86 1069.88L335.45 1070.04L329.73 1067.63L327.28 1066.50L324.83 1065.37L321.85 1065.68L320.05 1069.26L317.87 1072.34L317.13 1075.26L316.96 1081.24L316.02 1086.05L310.65 1097.07L310.11 1099.88L309.95 1104.27L333.21 1109.76L337.00 1112.39L339.43 1114.68L342.04 1116.04L344.28 1117.07L347.97 1119.59L349.82 1111.69L351.48 1105.62L353.66 1097.63L354.68 1091.36L357.21 1087.79L366.51 1088.21L383.68 1091.37L384.51 1094.23L385.81 1099.91L386.63 1102.13L386.01 1105.57L386.22 1109.58L387.38 1113.93L386.64 1117.71L384.80 1124.01L383.90 1128.74L382.60 1135.72L381.18 1142.82L376.60 1143.80L367.48 1145.32L363.77 1145.99L357.54 1147.67L353.69 1150.00L352.59 1153.65L350.99 1158.29L350.01 1160.64L335.60 1164.56L332.39 1162.42L330.06 1161.27L328.32 1159.29L322.40 1152.58L319.59 1154.74L316.72 1156.13L313.41 1157.73L324.34 1177.37L321.88 1177.89L319.28 1178.53L316.69 1179.16L313.55 1180.17L311.30 1180.78L296.12 1181.89L298.79 1194.96L300.37 1213.31L300.22 1227.18L318.60 1225.72L324.85 1224.92L329.03 1224.39L333.21 1223.86L335.99 1223.36L337.40 1219.45L337.57 1214.34L341.52 1213.72L348.96 1214.46L357.80 1215.74L362.99 1216.58L365.93 1217.06L370.22 1217.76L373.35 1218.26L375.94 1218.68L382.00 1214.91L391.83 1214.66L395.26 1212.65L397.22 1208.61L399.18 1204.56L400.35 1200.68L404.70 1193.01L408.88 1190.38L412.35 1191.35L416.40 1192.85L421.28 1194.65L429.21 1197.58L430.47 1194.62L432.96 1188.81L434.52 1185.15L439.95 1184.23L442.37 1184.25L453.29 1186.12L457.03 1187.36L461.31 1188.78L464.70 1189.90L469.04 1191.50L472.38 1192.94L478.56 1192.45L483.96 1192.03L486.85 1190.64L489.74 1189.26L490.27 1186.13L490.81 1182.99L494.45 1180.58L497.50 1176.18L498.43 1164.47L498.41 1159.43L498.38 1154.38L495.89 1144.76L494.00 1137.66L495.22 1132.71L496.66 1130.12L499.14 1124.06L497.68 1098.32L483.99 1097.51L478.79 1097.15L471.30 1095.40L460.68 1094.88L455.93 1093.68L443.51 1090.58L436.79 1082.93Z" data-ward="10" /><path id="ward-4" class="ward" d="M863.71 466.83L855.28 459.16L847.66 456.91L839.98 454.64L832.34 452.38L824.67 450.11L794.93 441.33L789.64 439.76L783.14 438.49L774.56 436.53L760.17 435.88L752.17 435.52L747.04 435.15L724.93 433.86L720.49 433.60L717.82 449.94L715.89 461.34L712.28 467.35L710.09 464.89L707.36 463.90L702.47 462.70L699.69 462.23L696.49 462.20L692.75 464.34L692.79 467.23L694.40 472.66L697.21 480.93L697.61 485.98L697.89 490.96L700.54 506.83L701.61 514.51L691.32 515.44L688.67 515.85L687.98 518.32L684.13 518.58L680.52 518.79L676.93 518.73L674.04 518.71L669.77 518.64L664.27 518.26L660.56 517.60L659.46 513.93L659.42 511.43L650.93 509.65L651.66 520.26L652.15 526.42L652.32 530.02L655.44 545.54L656.79 551.13L654.29 557.23L649.49 558.41L645.08 559.85L641.96 559.99L638.24 561.45L637.42 564.86L637.72 569.33L638.72 572.45L639.34 575.49L643.43 580.75L647.10 581.05L648.21 584.86L648.60 587.86L648.86 590.16L649.62 594.90L650.94 601.53L651.45 608.13L651.38 613.60L651.79 616.74L655.55 619.58L659.73 622.53L659.87 625.35L660.39 634.71L660.47 638.05L665.02 639.05L668.93 639.46L671.35 639.24L676.46 638.01L678.21 636.20L678.09 632.07L679.27 625.90L679.92 622.12L680.76 618.76L681.45 615.71L682.50 611.40L684.47 607.40L685.04 602.30L686.33 597.79L686.95 595.01L687.10 592.62L686.71 589.88L687.12 586.35L689.54 584.99L694.48 585.91L699.26 586.22L702.21 586.31L707.27 586.38L711.60 586.48L714.44 586.61L721.07 586.90L724.69 586.74L730.21 586.44L732.50 586.57L736.68 589.97L740.20 589.98L742.09 593.65L744.97 596.13L751.07 596.35L754.88 596.76L758.33 597.09L762.25 598.12L766.48 599.01L771.81 598.87L778.38 596.22L781.54 596.82L783.03 599.28L783.63 602.64L784.11 607.75L784.84 611.46L786.25 615.57L786.92 617.83L789.70 622.94L792.81 632.46L797.49 633.22L799.65 635.94L800.99 639.60L801.51 642.49L802.40 648.68L803.63 654.42L816.86 734.35L827.57 743.31L830.10 741.38L834.17 738.28L844.62 730.80L854.84 722.82L872.70 708.86L878.71 704.11L881.65 701.80L888.65 695.92L896.30 689.50L907.14 679.70L914.91 672.51L920.64 667.57L942.06 657.67L956.39 651.45L967.29 646.72L975.35 643.22L982.04 640.65L991.17 637.16L998.10 621.35L1000.00 617.03L998.94 601.94L996.99 580.89L993.02 576.98L978.07 562.24L967.91 554.13L954.89 545.25L952.83 543.85L935.78 534.88L921.26 520.79L914.13 513.86L899.11 499.29L895.60 495.88L883.60 485.93L879.90 483.11L873.85 476.86L863.71 466.83Z" data-ward="4" /><path id="ward-15" class="ward" d="M479.57 792.44L477.58 779.48L476.22 772.97L475.26 763.36L475.47 746.45L456.04 745.20L423.44 743.12L383.27 740.67L349.07 734.37L327.34 731.58L312.56 729.10L312.96 753.99L313.07 775.25L312.28 784.48L309.57 808.89L308.21 821.06L307.29 828.51L304.46 851.15L297.83 871.63L294.27 882.64L289.97 893.22L287.79 898.24L293.30 900.72L301.28 904.47L306.28 906.84L325.00 891.32L329.43 894.00L351.20 905.39L356.68 908.26L362.11 911.10L372.74 884.10L385.32 887.86L390.93 889.54L393.98 889.01L397.43 884.99L399.79 881.20L402.02 880.08L402.68 873.10L403.56 863.85L413.00 864.57L418.14 864.96L422.96 861.25L428.53 861.23L429.41 865.80L433.24 865.96L437.37 866.13L441.63 867.23L444.92 867.52L447.55 867.75L455.58 868.97L457.98 869.38L460.83 869.87L467.07 867.43L469.91 867.75L473.04 868.10L477.30 862.06L478.87 853.10L478.95 848.58L479.02 844.07L479.10 839.55L479.26 829.51L479.42 820.28L479.46 813.33L479.53 802.03L479.55 796.87L479.57 792.44Z" data-ward="15" /><path id="ward-13" class="ward" d="M351.20 905.39L329.43 894.00L325.00 891.32L306.28 906.84L301.28 904.47L293.30 900.72L287.79 898.24L284.07 906.82L280.83 914.27L277.99 921.13L275.46 927.22L271.02 937.91L266.45 948.13L264.17 950.62L260.38 954.12L254.16 959.85L247.49 966.15L242.90 970.48L262.68 999.79L268.14 1007.90L277.59 1012.27L282.40 1014.48L284.50 1015.45L293.48 1020.18L298.58 1023.03L300.90 1023.97L304.99 1024.79L309.95 1025.80L313.03 1026.46L317.81 1027.54L320.84 1028.27L330.95 1029.50L338.51 1029.13L358.61 1028.00L367.36 1041.18L375.83 1047.95L377.59 1049.45L380.65 1052.39L382.73 1053.81L388.17 1057.30L391.56 1059.52L394.60 1061.66L401.81 1065.04L416.04 1069.42L415.96 1066.59L416.62 1061.62L420.20 1059.58L404.12 1036.39L393.47 1021.00L382.72 1005.50L385.29 1004.53L406.01 1014.66L409.02 1010.06L411.78 1006.01L417.29 997.95L425.59 985.80L428.34 981.78L448.88 982.22L465.86 990.11L470.92 990.89L477.84 990.51L479.09 987.68L476.17 975.85L466.70 950.36L464.76 947.30L461.82 944.57L459.04 944.01L454.47 940.78L444.35 933.64L433.85 929.44L421.84 927.04L418.95 926.42L407.75 923.94L400.48 922.36L396.82 921.56L388.87 918.43L385.02 916.91L369.86 912.59L365.00 911.20L362.11 911.10L356.68 908.26L351.20 905.39Z" data-ward="13" /><path id="ward-12" class="ward" d="M268.14 1007.90L262.68 999.79L242.90 970.48L231.36 974.87L222.10 977.20L219.21 977.93L205.20 983.34L190.78 985.67L188.65 986.58L166.09 980.04L157.57 977.57L133.33 971.85L129.67 970.84L114.83 971.19L117.25 974.00L140.21 995.87L135.75 997.75L119.19 1003.46L104.19 1018.46L97.51 1031.62L95.07 1055.21L95.62 1078.99L94.34 1096.95L121.14 1105.42L126.63 1095.49L127.74 1092.27L134.44 1072.80L134.54 1064.01L134.82 1060.66L144.59 1061.04L148.11 1057.67L158.00 1056.71L167.89 1055.75L174.05 1054.01L182.61 1053.33L184.50 1058.08L179.91 1073.66L176.14 1086.92L175.45 1089.35L173.41 1097.47L168.90 1115.50L143.48 1104.71L138.24 1111.32L141.04 1114.79L145.21 1124.49L146.38 1127.56L152.10 1133.08L155.93 1136.77L163.77 1144.71L157.10 1150.22L158.36 1154.20L164.96 1157.88L169.19 1159.77L175.37 1161.04L179.45 1160.31L182.52 1159.32L185.63 1158.30L187.82 1157.54L190.98 1156.45L194.10 1157.03L198.01 1157.86L203.43 1159.12L205.69 1159.65L210.07 1159.09L211.73 1152.83L212.65 1147.50L216.48 1148.10L219.84 1147.44L220.84 1144.00L226.17 1142.55L228.05 1140.86L227.87 1138.21L227.11 1131.75L218.05 1128.52L214.95 1127.95L214.97 1121.06L217.82 1110.93L233.39 1105.01L238.49 1102.09L243.98 1106.29L251.98 1110.69L253.62 1115.69L253.50 1118.62L257.79 1123.35L261.03 1126.20L261.63 1130.06L261.95 1133.68L261.38 1141.18L260.87 1147.35L262.63 1148.97L271.62 1150.40L278.18 1141.16L278.56 1138.87L278.39 1136.44L278.31 1134.06L279.22 1130.06L288.93 1128.19L289.73 1125.63L289.92 1119.73L290.15 1117.20L290.46 1113.82L290.42 1110.55L290.50 1107.57L291.09 1104.00L294.22 1104.28L297.35 1105.01L300.81 1105.41L303.22 1105.67L306.78 1104.67L309.95 1104.27L310.11 1099.88L310.65 1097.07L316.02 1086.05L316.96 1081.24L317.13 1075.26L317.87 1072.34L320.05 1069.26L321.85 1065.68L324.83 1065.37L327.28 1066.50L329.73 1067.63L335.45 1070.04L339.86 1069.88L343.25 1069.51L347.31 1069.27L353.20 1069.04L359.09 1068.81L369.79 1068.34L377.59 1049.45L375.83 1047.95L367.36 1041.18L358.61 1028.00L338.51 1029.13L330.95 1029.50L320.84 1028.27L317.81 1027.54L313.03 1026.46L309.95 1025.80L304.99 1024.79L300.90 1023.97L298.58 1023.03L293.48 1020.18L284.50 1015.45L282.40 1014.48L277.59 1012.27L268.14 1007.90Z" data-ward="12" /><path id="ward-7" class="ward" d="M706.04 824.87L693.64 814.00L689.99 811.07L685.39 807.43L684.10 822.74L683.77 827.49L678.14 836.36L669.68 836.40L665.28 836.71L659.63 837.90L656.54 839.07L653.82 840.29L647.33 842.54L642.12 843.31L637.54 845.14L630.80 846.97L626.85 845.10L624.09 845.89L619.88 848.57L616.93 849.52L614.40 850.45L613.81 862.36L610.52 864.46L607.23 865.59L606.44 868.02L606.74 874.52L607.71 877.69L610.23 885.09L607.65 891.15L603.49 895.06L601.49 897.57L599.08 900.86L593.41 908.25L589.54 906.76L582.94 905.57L577.68 903.28L572.58 899.76L568.77 900.52L565.11 900.97L562.74 899.84L558.36 900.51L557.78 903.78L558.00 911.66L555.86 918.64L555.15 921.63L554.44 924.59L553.01 930.53L551.59 936.47L550.19 941.75L547.58 951.52L546.30 956.33L545.76 959.28L544.90 963.93L543.53 971.37L541.45 974.19L548.99 974.28L556.94 974.38L561.19 974.46L567.19 974.55L571.81 974.50L576.50 975.78L579.71 971.58L582.80 967.23L585.39 967.61L591.23 970.96L595.09 973.37L612.50 984.24L616.81 983.70L621.11 980.31L623.10 978.74L625.91 975.60L629.22 974.72L632.96 973.10L639.00 969.53L643.69 966.08L643.41 963.49L640.96 957.39L640.39 955.09L639.79 952.69L637.91 945.18L638.00 939.78L638.06 936.20L646.05 935.57L654.05 934.95L661.36 939.80L665.72 941.12L673.96 941.65L676.67 942.07L680.65 945.62L684.92 944.95L689.53 944.18L692.70 943.67L697.47 943.58L702.24 943.49L708.36 943.55L711.43 944.66L713.08 951.57L718.50 959.26L727.09 971.77L727.61 975.97L728.38 982.16L734.46 991.33L740.80 1000.90L777.71 967.70L797.20 956.52L824.51 943.64L835.61 938.41L808.39 914.53L706.04 824.87Z" data-ward="7" /><path id="ward-6" class="ward" d="M714.44 586.61L711.60 586.48L707.27 586.38L702.21 586.31L699.26 586.22L694.48 585.91L689.54 584.99L687.12 586.35L686.71 589.88L687.10 592.62L686.95 595.01L686.33 597.79L685.04 602.30L684.47 607.40L682.50 611.40L681.45 615.71L680.76 618.76L679.92 622.12L679.27 625.90L678.09 632.07L678.21 636.20L676.46 638.01L671.35 639.24L668.93 639.46L665.02 639.05L660.47 638.05L659.14 642.12L653.67 649.74L650.82 653.51L649.27 655.94L646.70 658.61L649.27 660.85L649.63 663.87L649.63 671.17L649.68 675.88L649.60 681.59L649.05 685.97L648.58 689.04L647.93 692.73L647.36 696.33L646.78 699.94L637.21 701.04L636.45 706.41L635.70 714.24L636.15 717.84L617.77 723.13L613.27 724.83L609.73 726.06L607.03 726.40L604.61 727.12L602.28 728.10L600.12 729.08L597.53 730.57L595.12 731.84L592.79 733.97L593.85 738.60L595.46 743.93L595.63 746.53L595.91 750.73L596.74 753.45L598.36 757.81L599.01 761.01L599.40 763.52L597.88 775.79L596.75 777.95L592.98 782.70L591.61 787.01L590.52 791.88L584.55 793.43L581.67 793.31L578.32 800.36L576.96 806.85L582.81 807.77L589.45 808.48L591.75 808.48L594.68 808.51L601.97 808.91L604.39 809.16L608.69 810.33L614.01 811.88L620.85 813.88L620.43 816.81L619.95 819.80L619.50 822.54L620.38 827.87L621.40 832.37L623.90 838.29L626.85 845.10L630.80 846.97L637.54 845.14L642.12 843.31L647.33 842.54L653.82 840.29L656.54 839.07L659.63 837.90L665.28 836.71L669.68 836.40L678.14 836.36L683.77 827.49L684.10 822.74L685.39 807.43L689.99 811.07L693.64 814.00L706.04 824.87L808.39 914.53L835.61 938.41L855.52 929.30L889.41 911.67L900.65 882.66L909.29 860.57L885.42 851.48L867.88 848.02L850.43 844.58L842.80 841.43L832.61 837.23L823.89 833.63L817.05 827.00L812.01 822.11L805.47 815.77L802.46 795.83L812.80 770.86L818.07 761.02L823.05 751.74L827.57 743.31L816.86 734.35L803.63 654.42L802.40 648.68L801.51 642.49L800.99 639.60L799.65 635.94L797.49 633.22L792.81 632.46L789.70 622.94L786.92 617.83L786.25 615.57L784.84 611.46L784.11 607.75L783.63 602.64L783.03 599.28L781.54 596.82L778.38 596.22L771.81 598.87L766.48 599.01L762.25 598.12L758.33 597.09L754.88 596.76L751.07 596.35L744.97 596.13L742.09 593.65L740.20 589.98L736.68 589.97L732.50 586.57L730.21 586.44L724.69 586.74L721.07 586.90L714.44 586.61Z" data-ward="6" /><path id="ward-3" class="ward" d="M588.62 326.10L574.26 328.96L570.25 329.75L559.84 333.31L547.96 337.38L543.33 329.91L541.83 327.48L530.79 329.04L533.85 339.75L541.72 366.54L542.96 370.77L542.55 375.54L536.59 376.43L534.13 377.65L530.76 378.81L527.36 380.04L524.50 381.09L521.50 381.91L514.15 382.59L510.44 383.02L505.57 384.39L504.28 387.44L504.82 390.59L505.40 392.93L506.70 397.52L507.90 400.29L510.32 403.46L514.96 410.66L517.68 411.12L523.07 412.71L524.72 416.49L525.98 418.86L526.51 424.91L527.01 428.74L527.22 431.84L529.68 433.84L531.88 435.12L535.53 434.22L538.66 436.65L539.38 439.33L539.58 443.03L538.13 447.67L536.71 451.71L536.42 454.09L536.13 459.11L537.00 462.17L539.33 462.59L542.87 463.06L545.75 463.66L550.87 464.25L556.44 463.74L559.94 463.78L563.77 463.83L566.97 463.50L571.79 463.50L574.14 463.61L580.28 465.15L580.02 467.50L578.38 473.24L577.32 476.96L572.82 477.50L571.17 481.97L568.40 484.60L562.15 483.45L558.78 483.65L555.49 484.37L553.41 485.57L554.33 489.93L554.48 494.64L554.55 497.41L558.27 501.37L559.81 507.29L562.57 509.21L564.61 524.68L567.48 524.60L569.51 526.37L563.56 529.41L561.17 529.68L545.37 530.96L543.39 536.14L543.42 538.81L542.96 544.45L542.88 547.23L543.17 552.16L547.87 552.93L552.32 553.01L555.67 552.45L560.69 552.33L565.27 551.57L568.31 551.15L572.51 551.40L574.84 551.24L579.45 550.26L582.88 549.74L589.86 547.97L594.75 548.03L599.13 550.32L601.95 552.76L604.57 553.18L608.76 553.66L613.77 555.31L616.73 554.71L618.88 550.75L620.10 547.69L623.35 548.04L629.46 548.17L632.69 548.03L637.19 547.80L641.62 547.70L647.83 546.42L650.82 545.87L655.44 545.54L652.32 530.02L652.15 526.42L651.66 520.26L650.93 509.65L659.42 511.43L659.46 513.93L660.56 517.60L664.27 518.26L669.77 518.64L674.04 518.71L676.93 518.73L680.52 518.79L684.13 518.58L687.98 518.32L688.67 515.85L691.32 515.44L701.61 514.51L700.54 506.83L697.89 490.96L697.61 485.98L697.21 480.93L694.40 472.66L692.79 467.23L692.75 464.34L696.49 462.20L699.69 462.23L702.47 462.70L707.36 463.90L710.09 464.89L712.28 467.35L715.89 461.34L717.82 449.94L720.49 433.60L717.78 433.51L705.63 434.58L697.39 433.45L678.26 438.97L672.87 435.65L666.24 432.54L657.18 423.23L656.39 420.74L651.50 405.33L651.97 395.92L652.10 378.99L652.56 359.99L652.68 355.08L650.41 351.24L653.05 339.53L649.88 339.89L620.50 343.19L617.63 343.47L596.26 345.58L593.04 343.49L588.62 326.10Z" data-ward="3" /><path id="ward-11" class="ward" d="M253.50 1118.62L253.62 1115.69L251.98 1110.69L243.98 1106.29L238.49 1102.09L233.39 1105.01L217.82 1110.93L214.97 1121.06L214.95 1127.95L218.05 1128.52L227.11 1131.75L227.87 1138.21L228.05 1140.86L226.17 1142.55L220.84 1144.00L219.84 1147.44L216.48 1148.10L212.65 1147.50L211.73 1152.83L210.07 1159.09L205.69 1159.65L203.43 1159.12L198.01 1157.86L194.10 1157.03L190.98 1156.45L187.82 1157.54L185.63 1158.30L182.52 1159.32L179.45 1160.31L175.37 1161.04L169.19 1159.77L164.96 1157.88L158.36 1154.20L157.10 1150.22L163.77 1144.71L155.93 1136.77L152.10 1133.08L146.38 1127.56L145.21 1124.49L141.04 1114.79L138.24 1111.32L143.48 1104.71L168.90 1115.50L173.41 1097.47L175.45 1089.35L176.14 1086.92L179.91 1073.66L184.50 1058.08L182.61 1053.33L174.05 1054.01L167.89 1055.75L158.00 1056.71L148.11 1057.67L144.59 1061.04L134.82 1060.66L134.54 1064.01L134.44 1072.80L127.74 1092.27L126.63 1095.49L121.14 1105.42L94.34 1096.95L91.99 1096.12L83.37 1111.16L70.39 1122.75L49.62 1140.92L31.63 1156.46L18.89 1168.49L12.93 1180.10L9.68 1192.59L6.77 1197.20L4.23 1201.25L2.48 1203.83L1.71 1208.10L0.00 1211.75L0.39 1213.57L1.55 1217.22L3.72 1221.07L5.37 1223.13L10.01 1224.23L11.97 1223.43L18.61 1220.99L20.31 1220.27L25.08 1216.90L26.45 1214.68L29.51 1208.56L32.72 1203.27L35.72 1199.75L37.84 1196.18L44.19 1189.82L46.17 1187.35L48.21 1185.19L50.74 1183.07L53.26 1178.80L55.07 1174.30L58.16 1168.06L61.95 1163.46L66.11 1160.21L69.99 1153.49L77.50 1152.18L84.60 1151.97L86.58 1153.56L103.43 1167.00L108.39 1170.02L124.86 1178.95L138.61 1185.60L151.89 1193.07L160.40 1198.89L175.14 1208.58L184.13 1213.66L190.70 1218.12L199.70 1225.58L203.56 1230.93L205.07 1233.76L207.15 1236.06L211.52 1238.03L219.85 1240.09L228.54 1246.58L239.06 1254.34L253.99 1268.69L266.48 1282.64L267.26 1285.77L268.25 1287.80L268.60 1289.29L269.37 1290.00L270.41 1290.41L271.97 1290.17L275.07 1286.77L277.57 1282.34L281.28 1277.16L284.97 1273.55L292.36 1271.07L290.69 1255.62L301.22 1251.27L300.22 1227.18L300.37 1213.31L298.79 1194.96L296.12 1181.89L311.30 1180.78L313.55 1180.17L316.69 1179.16L319.28 1178.53L321.88 1177.89L324.34 1177.37L313.41 1157.73L316.72 1156.13L319.59 1154.74L322.40 1152.58L328.32 1159.29L330.06 1161.27L332.39 1162.42L335.60 1164.56L350.01 1160.64L350.99 1158.29L352.59 1153.65L353.69 1150.00L357.54 1147.67L363.77 1145.99L367.48 1145.32L376.60 1143.80L381.18 1142.82L382.60 1135.72L383.90 1128.74L384.80 1124.01L386.64 1117.71L387.38 1113.93L386.22 1109.58L386.01 1105.57L386.63 1102.13L385.81 1099.91L384.51 1094.23L383.68 1091.37L366.51 1088.21L357.21 1087.79L354.68 1091.36L353.66 1097.63L351.48 1105.62L349.82 1111.69L347.97 1119.59L344.28 1117.07L342.04 1116.04L339.43 1114.68L337.00 1112.39L333.21 1109.76L309.95 1104.27L306.78 1104.67L303.22 1105.67L300.81 1105.41L297.35 1105.01L294.22 1104.28L291.09 1104.00L290.50 1107.57L290.42 1110.55L290.46 1113.82L290.15 1117.20L289.92 1119.73L289.73 1125.63L288.93 1128.19L279.22 1130.06L278.31 1134.06L278.39 1136.44L278.56 1138.87L278.18 1141.16L271.62 1150.40L262.63 1148.97L260.87 1147.35L261.38 1141.18L261.95 1133.68L261.63 1130.06L261.03 1126.20L257.79 1123.35L253.50 1118.62Z" data-ward="11" /><path id="ward-16" class="ward" d="M572.58 899.76L577.68 903.28L582.94 905.57L589.54 906.76L593.41 908.25L599.08 900.86L601.49 897.57L603.49 895.06L607.65 891.15L610.23 885.09L607.71 877.69L606.74 874.52L606.44 868.02L607.23 865.59L610.52 864.46L613.81 862.36L614.40 850.45L616.93 849.52L619.88 848.57L624.09 845.89L626.85 845.10L623.90 838.29L621.40 832.37L620.38 827.87L619.50 822.54L619.95 819.80L620.43 816.81L620.85 813.88L614.01 811.88L608.69 810.33L604.39 809.16L601.97 808.91L594.68 808.51L591.75 808.48L589.45 808.48L582.81 807.77L576.96 806.85L578.32 800.36L581.67 793.31L584.55 793.43L590.52 791.88L591.61 787.01L592.98 782.70L596.75 777.95L597.88 775.79L599.40 763.52L599.01 761.01L591.22 759.84L584.71 758.58L581.43 757.94L578.09 757.30L571.57 756.04L568.87 755.76L563.36 755.21L560.68 754.94L555.31 754.39L552.54 754.11L544.87 753.45L541.04 753.15L537.34 752.98L534.13 752.43L530.84 752.00L525.80 751.49L514.95 750.19L509.33 749.57L506.11 749.21L496.33 748.94L490.67 747.92L486.75 747.44L481.10 746.88L475.47 746.45L475.26 763.36L476.22 772.97L477.58 779.48L479.57 792.44L479.55 796.87L479.53 802.03L479.46 813.33L479.42 820.28L479.26 829.51L479.10 839.55L479.02 844.07L478.95 848.58L478.87 853.10L477.30 862.06L473.04 868.10L474.84 872.10L472.43 880.44L471.10 887.49L470.54 891.37L469.88 894.85L468.55 901.89L467.34 908.24L465.97 915.49L465.04 920.39L464.44 923.53L466.27 928.28L475.47 927.42L478.22 927.00L484.80 926.41L494.41 925.81L499.04 925.30L503.82 924.03L509.08 922.01L511.32 921.18L515.81 919.73L525.10 917.39L531.42 916.50L536.29 916.80L541.79 917.46L548.36 918.24L552.45 918.84L555.86 918.64L558.00 911.66L557.78 903.78L558.36 900.51L562.74 899.84L565.11 900.97L568.77 900.52L572.58 899.76Z" data-ward="16" /><path id="ward-19" class="ward" d="M574.14 463.61L571.79 463.50L566.97 463.50L563.77 463.83L559.94 463.78L556.44 463.74L550.87 464.25L545.75 463.66L542.87 463.06L539.33 462.59L537.00 462.17L536.13 459.11L536.42 454.09L536.71 451.71L538.13 447.67L539.58 443.03L539.38 439.33L538.66 436.65L535.53 434.22L531.88 435.12L529.68 433.84L527.22 431.84L527.01 428.74L526.51 424.91L525.98 418.86L524.72 416.49L523.07 412.71L517.68 411.12L514.96 410.66L507.27 417.59L506.88 428.11L497.96 429.73L484.75 426.16L478.54 430.81L476.06 429.08L474.47 427.41L471.68 425.07L468.90 422.73L461.45 419.07L456.53 417.21L452.21 416.35L448.12 415.91L446.04 417.67L444.52 420.50L443.26 422.79L440.09 423.04L436.82 422.50L435.31 419.62L430.47 419.84L426.79 421.17L423.11 421.94L417.24 423.66L414.63 423.91L411.29 424.33L410.97 434.13L411.61 442.87L386.93 445.09L377.61 445.54L370.03 444.82L364.97 443.47L362.63 443.30L350.85 442.44L356.39 455.37L357.45 461.60L358.41 467.22L359.46 480.04L359.42 492.63L347.25 504.47L334.28 525.10L342.42 527.14L347.82 527.47L353.57 527.83L368.52 528.25L368.06 530.90L368.20 533.27L368.41 536.68L369.03 541.42L369.80 548.00L373.05 554.00L374.76 558.23L375.56 560.52L376.38 562.94L377.59 566.67L384.97 565.91L390.08 565.14L395.09 564.38L399.00 563.79L405.04 562.88L408.03 562.31L415.80 560.54L419.87 559.61L424.29 558.88L427.23 560.71L429.98 562.08L432.82 562.45L436.80 560.87L438.98 559.87L437.39 552.94L440.91 553.26L447.09 552.88L450.06 552.58L453.16 552.31L456.26 552.04L460.28 551.75L465.66 550.93L469.24 550.38L472.08 550.26L474.91 550.14L480.50 550.24L483.56 550.10L487.15 549.49L491.00 549.23L494.61 549.70L497.72 550.58L500.84 551.47L508.16 551.51L513.67 550.98L516.88 550.87L519.67 553.08L522.75 554.22L527.23 553.91L530.40 553.96L535.28 553.73L539.55 553.34L543.17 552.16L542.88 547.23L542.96 544.45L543.42 538.81L543.39 536.14L545.37 530.96L561.17 529.68L563.56 529.41L569.51 526.37L567.48 524.60L564.61 524.68L562.57 509.21L559.81 507.29L558.27 501.37L554.55 497.41L554.48 494.64L554.33 489.93L553.41 485.57L555.49 484.37L558.78 483.65L562.15 483.45L568.40 484.60L571.17 481.97L572.82 477.50L577.32 476.96L578.38 473.24L580.02 467.50L580.28 465.15L574.14 463.61Z" data-ward="19" /><path id="ward-20" class="ward" d="M447.26 293.60L444.30 292.34L440.36 292.57L437.06 292.78L432.18 294.73L429.78 295.46L424.94 297.00L421.71 298.39L421.22 300.84L420.73 303.30L423.37 310.52L425.04 314.06L422.89 316.63L418.25 318.25L414.90 319.69L409.78 320.39L408.28 316.38L407.05 308.74L404.82 307.06L400.41 307.70L398.12 308.63L394.26 309.85L389.42 310.29L384.67 308.72L379.39 308.34L375.31 308.05L377.76 323.20L375.43 323.91L372.63 324.77L355.06 331.50L352.20 336.48L317.77 352.12L316.49 349.09L315.39 346.49L312.53 339.71L311.37 337.20L307.40 335.97L277.20 352.54L279.13 355.97L283.51 363.70L285.04 366.41L290.91 385.61L295.33 400.05L290.29 415.77L288.33 421.16L282.78 439.19L350.85 442.44L362.63 443.30L364.97 443.47L370.03 444.82L377.61 445.54L386.93 445.09L411.61 442.87L410.97 434.13L411.29 424.33L414.63 423.91L417.24 423.66L423.11 421.94L426.79 421.17L430.47 419.84L435.31 419.62L436.82 422.50L440.09 423.04L443.26 422.79L444.52 420.50L446.04 417.67L448.12 415.91L452.21 416.35L456.53 417.21L461.45 419.07L468.90 422.73L471.68 425.07L474.47 427.41L476.06 429.08L478.54 430.81L484.75 426.16L497.96 429.73L506.88 428.11L507.27 417.59L514.96 410.66L510.32 403.46L507.90 400.29L506.70 397.52L505.40 392.93L504.82 390.59L504.28 387.44L505.57 384.39L510.44 383.02L514.15 382.59L521.50 381.91L524.50 381.09L527.36 380.04L530.76 378.81L534.13 377.65L536.59 376.43L542.55 375.54L542.96 370.77L541.72 366.54L533.85 339.75L530.79 329.04L525.05 330.82L518.14 332.93L515.40 333.77L511.18 333.41L501.46 332.58L498.49 332.44L494.52 333.18L484.38 337.24L476.09 336.90L472.52 337.11L472.55 333.85L465.60 332.85L459.40 333.77L458.24 329.94L457.55 324.77L456.17 322.14L454.95 318.68L453.76 314.81L452.56 311.36L451.53 308.59L449.95 305.06L449.04 300.44L448.02 296.00L447.26 293.60Z" data-ward="20" /><path id="ward-1" class="ward" d="M257.96 319.23L270.48 340.92L277.20 352.54L307.40 335.97L311.37 337.20L312.53 339.71L315.39 346.49L316.49 349.09L317.77 352.12L352.20 336.48L355.06 331.50L372.63 324.77L375.43 323.91L377.76 323.20L375.31 308.05L373.52 304.46L373.45 301.33L373.41 297.35L373.59 293.06L374.03 290.40L374.82 285.74L375.51 281.69L376.06 279.25L376.61 276.82L377.85 272.42L379.65 266.00L380.39 263.47L381.13 260.95L382.62 255.98L383.89 251.73L385.70 245.69L386.95 241.16L388.45 235.74L389.98 230.20L390.83 227.50L391.69 224.81L393.72 219.54L395.36 215.28L397.23 210.42L398.91 205.66L402.60 195.19L403.69 192.12L406.51 184.31L408.78 178.06L411.54 169.66L412.32 166.09L413.29 161.71L416.97 155.15L417.92 150.36L418.84 145.79L419.64 134.30L419.93 130.10L420.57 120.87L420.55 117.28L425.21 116.84L427.76 116.52L435.81 115.52L442.28 114.51L447.98 124.41L460.28 122.32L467.57 123.33L474.87 122.28L478.06 122.08L483.58 132.29L488.84 142.50L491.83 145.55L500.90 141.24L505.25 138.37L507.21 137.07L510.74 132.18L511.91 129.67L513.48 125.73L514.64 121.53L515.63 117.92L518.00 110.31L519.16 106.60L519.60 95.55L520.04 84.43L517.04 72.56L515.93 68.19L514.92 64.61L514.18 61.97L511.30 53.06L507.82 42.29L504.87 36.76L503.32 33.85L498.59 24.96L496.48 22.80L494.16 20.43L490.37 19.09L483.80 16.77L478.21 14.80L471.33 12.42L463.95 11.67L455.89 10.86L448.73 12.29L441.79 13.67L439.04 15.03L433.62 17.72L430.44 19.29L426.41 23.64L422.37 28.00L412.84 30.93L403.71 28.76L392.43 22.46L378.84 11.70L368.40 5.52L365.49 3.80L362.41 1.97L359.08 0.00L350.70 18.34L347.88 23.43L339.77 42.73L336.33 50.07L333.96 54.96L331.45 59.62L327.80 67.60L322.19 78.70L317.26 90.61L311.19 104.94L307.76 112.87L299.80 131.28L289.78 152.14L286.98 157.14L285.33 160.07L275.95 173.40L269.23 183.33L266.36 187.29L258.16 203.26L254.14 212.07L251.47 217.53L246.71 229.43L242.95 239.10L239.07 249.07L237.95 264.44L239.24 269.63L242.19 281.49L244.76 291.82L245.59 295.15L246.46 298.63L249.49 304.10L253.32 310.99L256.46 316.65L257.96 319.23Z" data-ward="1" /><path id="ward-14" class="ward" d="M473.04 868.10L469.91 867.75L467.07 867.43L460.83 869.87L457.98 869.38L455.58 868.97L447.55 867.75L444.92 867.52L441.63 867.23L437.37 866.13L433.24 865.96L429.41 865.80L428.53 861.23L422.96 861.25L418.14 864.96L413.00 864.57L403.56 863.85L402.68 873.10L402.02 880.08L399.79 881.20L397.43 884.99L393.98 889.01L390.93 889.54L385.32 887.86L372.74 884.10L362.11 911.10L365.00 911.20L369.86 912.59L385.02 916.91L388.87 918.43L396.82 921.56L400.48 922.36L407.75 923.94L418.95 926.42L421.84 927.04L433.85 929.44L444.35 933.64L454.47 940.78L459.04 944.01L461.82 944.57L464.76 947.30L466.70 950.36L476.17 975.85L479.09 987.68L477.84 990.51L470.92 990.89L465.86 990.11L448.88 982.22L428.34 981.78L425.59 985.80L417.29 997.95L411.78 1006.01L409.02 1010.06L406.01 1014.66L385.29 1004.53L382.72 1005.50L393.47 1021.00L404.12 1036.39L420.20 1059.58L416.62 1061.62L420.56 1063.63L430.61 1075.99L436.79 1082.93L443.51 1090.58L455.93 1093.68L460.68 1094.88L471.30 1095.40L478.79 1097.15L483.99 1097.51L497.68 1098.32L499.14 1124.06L503.74 1121.62L508.34 1119.18L515.85 1113.09L517.70 1106.21L536.93 1106.93L536.42 1101.97L535.74 1098.56L534.98 1094.14L534.29 1090.19L533.26 1082.58L533.03 1079.86L534.70 1076.21L535.40 1070.52L535.61 1066.50L533.54 1061.61L524.47 1052.76L528.21 1050.20L530.85 1045.79L531.18 1039.18L532.17 1033.94L533.89 1031.94L540.91 1023.46L548.58 1012.43L553.95 1008.11L558.81 1007.75L567.12 1007.06L568.55 1003.78L574.08 984.53L575.95 978.23L576.50 975.78L571.81 974.50L567.19 974.55L561.19 974.46L556.94 974.38L548.99 974.28L541.45 974.19L543.53 971.37L544.90 963.93L545.76 959.28L546.30 956.33L547.58 951.52L550.19 941.75L551.59 936.47L553.01 930.53L554.44 924.59L555.15 921.63L555.86 918.64L552.45 918.84L548.36 918.24L541.79 917.46L536.29 916.80L531.42 916.50L525.10 917.39L515.81 919.73L511.32 921.18L509.08 922.01L503.82 924.03L499.04 925.30L494.41 925.81L484.80 926.41L478.22 927.00L475.47 927.42L466.27 928.28L464.44 923.53L465.04 920.39L465.97 915.49L467.34 908.24L468.55 901.89L469.88 894.85L470.54 891.37L471.10 887.49L472.43 880.44L474.84 872.10L473.04 868.10Z" data-ward="14" /><path id="ward-8" class="ward" d="M676.67 942.07L673.96 941.65L665.72 941.12L661.36 939.80L654.05 934.95L646.05 935.57L638.06 936.20L638.00 939.78L637.91 945.18L639.79 952.69L640.39 955.09L640.96 957.39L643.41 963.49L643.69 966.08L639.00 969.53L632.96 973.10L629.22 974.72L625.91 975.60L623.10 978.74L621.11 980.31L616.81 983.70L612.50 984.24L595.09 973.37L591.23 970.96L585.39 967.61L582.80 967.23L579.71 971.58L576.50 975.78L575.95 978.23L574.08 984.53L568.55 1003.78L567.12 1007.06L558.81 1007.75L553.95 1008.11L548.58 1012.43L540.91 1023.46L533.89 1031.94L532.17 1033.94L531.18 1039.18L530.85 1045.79L528.21 1050.20L524.47 1052.76L533.54 1061.61L535.61 1066.50L535.40 1070.52L534.70 1076.21L533.03 1079.86L533.26 1082.58L534.29 1090.19L534.98 1094.14L535.74 1098.56L536.42 1101.97L536.93 1106.93L517.70 1106.21L515.85 1113.09L508.34 1119.18L503.74 1121.62L499.14 1124.06L496.66 1130.12L553.49 1161.11L571.15 1137.19L577.90 1129.13L598.06 1101.68L608.10 1095.48L623.63 1083.09L650.45 1065.53L668.23 1052.74L684.54 1043.23L711.95 1027.34L740.80 1000.90L734.46 991.33L728.38 982.16L727.61 975.97L727.09 971.77L718.50 959.26L713.08 951.57L711.43 944.66L708.36 943.55L702.24 943.49L697.47 943.58L692.70 943.67L689.53 944.18L684.92 944.95L680.65 945.62L676.67 942.07Z" data-ward="8" /><path id="ward-9" class="ward" d="M544.26 1189.63L544.76 1186.94L547.09 1180.05L549.12 1174.03L553.49 1161.11L496.66 1130.12L495.22 1132.71L494.00 1137.66L495.89 1144.76L498.38 1154.38L498.41 1159.43L498.43 1164.47L497.50 1176.18L494.45 1180.58L490.81 1182.99L490.27 1186.13L489.74 1189.26L486.85 1190.64L483.96 1192.03L478.56 1192.45L472.38 1192.94L469.04 1191.50L464.70 1189.90L461.31 1188.78L457.03 1187.36L453.29 1186.12L442.37 1184.25L439.95 1184.23L434.52 1185.15L432.96 1188.81L430.47 1194.62L429.21 1197.58L421.28 1194.65L416.40 1192.85L412.35 1191.35L408.88 1190.38L404.70 1193.01L400.35 1200.68L399.18 1204.56L397.22 1208.61L395.26 1212.65L391.83 1214.66L382.00 1214.91L375.94 1218.68L373.35 1218.26L370.22 1217.76L365.93 1217.06L362.99 1216.58L357.80 1215.74L348.96 1214.46L341.52 1213.72L337.57 1214.34L337.40 1219.45L335.99 1223.36L333.21 1223.86L329.03 1224.39L324.85 1224.92L318.60 1225.72L300.22 1227.18L301.22 1251.27L290.69 1255.62L292.36 1271.07L300.82 1270.88L312.56 1272.15L321.29 1274.70L328.76 1284.52L334.67 1276.93L338.76 1271.94L344.45 1267.31L357.86 1262.92L380.32 1260.26L395.80 1261.83L402.78 1264.98L409.64 1268.29L418.13 1275.95L426.06 1286.62L433.93 1296.99L441.31 1306.22L451.16 1305.35L472.95 1299.57L505.88 1306.24L529.18 1317.88L530.08 1314.15L531.12 1309.86L532.14 1305.64L533.16 1301.44L534.91 1294.21L536.17 1288.95L538.61 1282.45L541.20 1275.31L542.20 1272.41L543.22 1269.44L544.45 1264.34L545.28 1260.93L545.95 1258.17L545.51 1253.69L545.08 1249.23L544.69 1240.36L544.34 1232.59L544.07 1226.39L543.52 1217.75L543.34 1214.83L543.02 1209.74L542.60 1203.01L542.93 1198.47L543.12 1195.83L544.26 1189.63Z" data-ward="9" /></svg>