<svg viewBox="0 0 1000.00 663.35" xmlns="http://www.w3.org/2000/svg"><style>.ward { fill: #e2e8f0; stroke: #fff; stroke-width: 0.5px; } .ward:hover { fill: #cbd5e1; }</style><path id="ward-10" class="ward" d="M151.29 482.69L151.07 484.40L150.78 485.28L150.48 486.22L150.32 487.60L151.82 488.13L152.53 488.33L153.10 489.60L152.96 490.68L152.84 491.68L152.63 493.13L152.49 494.13L152.42 494.84L153.62 495.30L155.13 495.49L156.38 495.59L157.26 495.75L158.48 496.00L159.97 496.47L160.83 496.85L161.71 497.16L163.09 497.76L165.03 498.01L166.00 498.05L166.69 498.08L167.61 498.13L167.62 496.34L167.70 493.78L167.75 491.95L167.80 490.54L167.86 488.65L167.92 486.58L167.97 485.00L168.00 483.88L167.85 481.85L167.89 479.00L168.62 479.16L169.50 479.39L170.25 479.59L171.34 479.83L172.52 480.03L173.49 480.20L174.20 480.32L175.19 480.34L176.36 480.31L177.59 480.26L178.41 480.24L179.27 480.20L180.69 480.24L182.05 480.29L184.70 480.39L186.14 480.45L189.63 480.50L196.17 480.60L200.40 480.58L201.79 480.61L203.18 480.63L205.38 480.68L208.91 479.99L214.41 478.90L219.49 476.37L224.10 474.09L229.09 471.80L231.66 470.62L236.18 468.48L238.50 467.39L241.24 466.14L241.91 465.93L244.15 465.25L248.75 463.85L249.48 463.62L253.09 462.07L257.99 459.97L260.97 458.69L263.64 457.30L268.05 454.96L272.78 452.45L277.79 449.20L282.96 445.85L287.56 442.88L293.67 438.56L297.74 435.67L299.91 434.13L300.83 433.53L301.76 432.93L303.44 431.88L305.20 430.78L306.57 429.92L307.52 429.02L308.14 428.41L309.35 427.22L310.70 425.88L311.88 424.43L313.14 423.34L313.53 422.34L313.86 421.49L314.84 419.83L316.10 417.73L316.50 416.32L316.75 415.46L317.21 413.87L317.07 412.88L316.95 411.98L316.39 409.85L315.02 404.70L314.81 403.69L314.41 402.08L313.23 397.24L312.18 392.77L311.79 389.85L311.54 388.00L310.54 387.99L309.39 388.01L308.24 388.02L306.73 388.09L304.55 388.08L303.11 388.14L302.38 388.18L301.21 388.18L300.17 388.19L299.12 388.20L297.17 388.30L295.86 388.37L295.13 388.40L293.25 388.49L292.06 388.56L290.88 388.63L289.07 388.75L288.20 388.81L287.40 388.82L285.89 388.87L284.38 388.92L284.83 386.38L285.41 384.49L286.33 382.00L287.83 379.25L261.95 380.47L259.53 380.58L257.29 380.69L254.68 380.82L253.68 380.88L252.69 380.95L250.33 381.14L248.48 381.29L245.88 381.50L243.73 381.67L241.06 381.89L238.95 382.06L237.09 382.20L235.04 382.37L232.89 382.54L231.02 382.69L229.21 382.84L227.79 382.95L226.63 383.08L226.10 383.81L225.65 384.46L224.77 385.64L223.55 387.34L223.05 388.12L221.87 389.98L220.74 391.76L219.63 393.50L218.17 395.79L216.47 394.27L215.12 393.05L213.87 391.92L212.56 390.75L211.21 389.53L209.97 388.42L208.68 387.25L208.00 386.64L207.03 384.07L206.46 381.91L205.93 379.95L205.38 377.89L204.89 375.92L204.49 372.93L204.11 370.23L203.26 368.09L202.84 367.17L201.46 365.13L200.07 363.15L199.20 362.27L198.66 361.75L197.60 362.15L197.01 362.64L196.31 363.23L195.51 363.88L194.30 364.88L192.69 366.16L191.52 367.37L190.25 368.53L189.58 368.93L188.32 368.87L187.37 368.85L185.94 369.61L185.39 370.20L184.19 370.37L182.87 370.37L182.10 370.41L181.07 371.01L179.73 371.28L178.43 371.56L177.13 371.85L176.29 372.33L174.83 373.24L173.12 374.72L171.32 375.10L170.45 375.20L169.03 375.34L167.32 375.52L165.70 375.68L163.28 375.94L161.06 376.32L159.99 376.50L158.31 376.79L156.55 376.89L155.75 377.01L155.07 377.10L154.19 377.21L153.26 377.28L152.11 377.68L151.93 378.96L151.86 380.35L151.81 381.77L151.11 382.17L150.15 382.27L149.25 382.33L148.13 382.41L147.19 382.48L146.09 382.59L145.36 382.62L144.40 382.74L143.63 382.87L141.67 383.18L139.49 383.22L137.76 383.14L136.43 382.98L135.19 382.96L134.88 383.98L134.84 386.17L135.41 389.39L135.40 390.51L135.39 391.80L135.38 393.16L135.34 394.71L135.30 396.30L135.26 397.81L135.25 399.82L135.29 400.60L135.43 402.25L135.45 403.62L135.62 404.29L136.46 404.43L138.67 404.12L139.47 404.75L139.89 406.49L140.04 407.75L140.27 408.94L140.81 410.05L141.41 411.28L141.81 412.09L142.20 412.84L142.59 413.58L143.37 414.19L144.16 414.67L145.36 416.38L146.32 418.28L146.65 418.91L147.09 419.74L147.86 421.34L148.26 422.10L148.73 423.01L148.43 423.97L147.52 426.05L147.05 427.42L146.58 429.84L146.48 431.09L146.38 432.64L146.21 433.96L146.00 435.62L145.80 437.28L145.65 438.54L145.50 439.79L145.15 441.84L144.72 443.18L144.11 444.42L143.82 445.29L143.53 446.16L143.16 447.39L142.93 448.13L142.63 448.97L142.19 450.24L141.62 450.83L140.74 451.65L139.41 452.86L138.87 453.42L138.17 454.31L137.33 455.87L136.97 456.67L136.77 457.34L136.31 459.07L135.92 460.61L135.71 461.73L135.48 462.75L135.22 463.46L134.16 464.09L133.40 464.29L132.33 464.47L131.20 464.61L130.23 464.80L129.29 465.51L127.81 467.16L127.31 467.65L126.69 468.24L125.78 469.12L124.80 470.17L124.34 470.70L123.89 471.75L123.54 472.54L123.17 473.30L122.38 474.06L121.09 473.73L120.06 473.38L119.33 473.08L118.60 474.40L117.69 476.09L117.55 477.72L118.83 478.26L119.76 478.56L120.45 478.74L121.41 478.98L122.43 479.32L123.66 480.18L124.43 480.54L125.43 480.99L127.06 481.64L127.95 481.88L128.73 482.04L130.08 482.26L131.30 482.43L132.74 482.58L134.12 482.63L136.13 482.43L137.54 482.19L139.03 481.94L139.99 481.73L141.24 481.55L142.91 481.55L144.37 481.57L145.25 481.49L146.74 481.41L148.09 481.66L149.56 482.11L151.29 482.69Z" data-ward="10" /><path id="ward-15" class="ward" d="M80.90 443.33L79.96 443.26L78.41 443.08L76.57 442.87L74.67 442.65L72.79 442.57L71.20 442.35L70.14 442.26L69.08 442.17L66.44 442.01L63.80 441.85L61.71 441.71L59.69 441.30L58.67 441.09L56.65 440.49L56.99 438.76L57.32 437.42L57.77 435.56L57.97 434.42L58.42 431.99L58.75 430.61L59.22 428.48L59.72 426.29L60.22 424.13L60.62 422.65L60.89 421.66L61.18 420.52L61.48 419.39L61.70 418.30L61.89 416.84L61.83 415.94L61.64 415.22L60.46 415.56L59.43 415.85L58.67 416.15L57.63 416.59L56.80 416.93L55.93 417.51L55.22 417.99L53.83 418.95L53.05 419.55L51.95 420.42L50.80 421.32L49.57 422.34L48.42 423.55L47.62 424.40L47.04 425.02L46.54 425.55L45.77 426.22L44.78 427.08L43.91 427.85L43.23 428.44L42.38 428.76L41.32 429.16L40.40 429.50L39.25 429.93L37.96 430.42L37.12 430.72L35.94 431.16L34.76 431.60L33.55 432.04L31.95 432.64L30.42 433.20L29.57 433.58L27.09 434.65L26.08 434.97L24.87 435.26L23.55 436.44L24.73 437.75L25.58 438.68L26.15 439.31L27.00 440.94L27.51 441.91L28.24 442.91L29.36 444.45L29.74 445.25L30.04 445.89L30.38 446.59L31.14 448.19L31.19 451.08L31.22 452.20L31.25 453.63L31.13 454.68L30.88 456.96L30.09 459.65L29.17 462.83L28.58 464.89L28.23 466.18L27.21 470.13L26.89 472.92L26.72 474.38L26.12 478.42L25.70 480.39L25.38 482.18L24.47 487.27L23.92 488.71L22.88 491.41L22.12 493.38L21.89 495.05L21.25 499.67L20.72 503.44L20.53 504.93L20.51 505.67L20.46 509.45L20.43 511.72L20.64 514.10L20.86 516.53L21.05 517.63L21.75 520.68L22.02 521.69L22.23 522.48L23.67 524.18L24.81 526.51L25.56 528.47L26.34 530.48L27.57 534.69L27.12 540.76L26.59 542.17L26.00 543.75L24.97 545.40L23.48 547.78L22.09 548.36L21.36 548.73L20.77 549.73L20.14 550.19L18.28 552.08L17.81 552.75L16.33 554.75L15.84 555.43L14.74 556.95L13.94 558.07L13.58 558.86L12.76 560.59L11.89 562.79L9.00 569.25L11.26 569.31L12.47 569.31L13.67 569.31L15.12 569.36L15.99 569.33L17.26 569.26L18.14 569.21L19.38 569.37L20.80 569.56L22.18 569.67L22.92 569.71L23.71 569.75L24.41 569.74L25.14 569.73L26.49 569.72L27.78 569.70L30.03 569.77L31.68 569.83L32.44 569.89L33.51 569.99L35.06 570.32L35.96 570.55L35.19 573.71L36.60 573.83L38.01 573.95L39.34 574.13L40.69 574.35L42.04 574.58L42.75 574.73L46.94 575.20L57.12 576.33L57.26 574.41L57.38 572.77L57.48 571.47L57.59 570.08L57.67 569.06L57.87 567.51L57.98 566.70L58.16 565.40L58.91 564.18L60.03 562.37L60.87 561.02L61.65 559.79L62.11 559.08L62.57 558.37L63.03 557.65L63.56 556.83L64.04 556.08L64.51 555.13L64.99 553.79L65.34 552.83L65.82 551.49L66.18 550.48L66.44 549.77L66.58 548.98L66.77 547.92L66.93 547.04L67.09 546.13L67.26 545.19L67.45 543.84L67.51 542.32L67.55 541.30L67.59 540.35L67.63 539.49L67.70 538.10L68.16 536.81L68.40 536.13L68.87 534.79L69.14 534.02L69.39 533.30L69.84 532.03L70.33 530.66L70.63 529.80L70.97 528.84L71.13 528.06L71.29 527.34L71.43 526.66L71.59 525.92L71.87 524.58L71.89 523.12L71.92 521.85L72.31 520.71L72.96 519.11L73.25 518.45L73.90 516.97L74.17 516.14L74.38 514.90L74.79 513.47L75.30 511.84L75.75 510.95L75.92 509.92L75.97 508.29L76.36 507.53L76.80 506.70L77.43 505.49L77.72 504.81L78.00 503.86L78.12 503.16L78.21 501.59L78.66 500.68L79.10 499.84L79.54 498.81L80.19 496.66L80.40 495.88L80.94 493.48L81.26 491.75L81.54 490.11L82.22 489.01L83.09 487.64L83.67 486.89L84.37 485.97L85.38 484.66L86.31 483.53L87.14 482.56L87.49 480.74L87.78 479.29L88.26 477.86L88.89 476.11L89.31 474.95L89.62 474.00L90.08 472.63L90.48 471.40L90.83 470.31L91.17 469.30L91.69 468.45L92.17 467.67L93.02 466.45L94.41 465.67L95.03 465.33L96.31 464.78L97.37 464.34L98.49 463.87L99.77 463.23L100.30 462.79L100.87 462.31L101.67 461.63L102.67 461.06L103.47 460.82L104.34 459.91L105.17 459.03L105.86 458.21L106.32 457.60L106.58 456.74L106.96 455.20L107.44 454.29L107.91 453.66L108.83 452.52L109.91 450.95L110.49 449.97L110.79 448.84L110.79 447.94L110.84 446.42L110.94 445.17L110.86 443.77L110.91 442.34L110.33 441.17L109.99 440.10L109.86 439.09L109.81 437.63L109.65 436.39L109.26 433.21L107.55 434.15L105.78 435.09L105.03 435.57L104.23 436.32L102.94 437.61L101.87 437.79L100.76 437.82L99.19 437.93L97.70 438.20L97.28 438.77L96.29 439.56L93.89 440.24L92.59 440.58L91.88 440.78L90.00 441.30L89.32 441.66L87.71 442.34L86.80 442.28L85.55 442.17L84.54 442.24L84.11 443.56L82.86 443.58L80.90 443.33Z" data-ward="15" /><path id="ward-9" class="ward" d="M128.53 384.08L129.46 385.12L130.39 385.46L132.98 385.79L134.84 386.17L134.88 383.98L135.19 382.96L136.43 382.98L137.76 383.14L139.49 383.22L141.67 383.18L143.63 382.87L144.40 382.74L145.36 382.62L146.09 382.59L147.19 382.48L148.13 382.41L149.25 382.33L150.15 382.27L151.11 382.17L151.81 381.77L151.86 380.35L151.93 378.96L152.11 377.68L153.26 377.28L154.19 377.21L155.07 377.10L155.75 377.01L156.55 376.89L158.31 376.79L159.99 376.50L161.06 376.32L163.28 375.94L165.70 375.68L167.32 375.52L169.03 375.34L170.45 375.20L171.32 375.10L173.12 374.72L174.83 373.24L176.29 372.33L177.13 371.85L178.43 371.56L179.73 371.28L181.07 371.01L182.10 370.41L182.87 370.37L184.19 370.37L185.39 370.20L185.94 369.61L187.37 368.85L188.32 368.87L189.58 368.93L190.25 368.53L191.52 367.37L192.69 366.16L194.30 364.88L195.51 363.88L196.31 363.23L197.01 362.64L197.60 362.15L198.66 361.75L199.20 362.27L200.07 363.15L201.46 365.13L202.84 367.17L203.26 368.09L204.11 370.23L204.49 372.93L204.89 375.92L205.38 377.89L205.93 379.95L206.46 381.91L207.03 384.07L208.00 386.64L208.68 387.25L209.97 388.42L211.21 389.53L212.56 390.75L213.87 391.92L215.12 393.05L216.47 394.27L218.17 395.79L219.63 393.50L220.74 391.76L221.87 389.98L223.05 388.12L223.55 387.34L224.77 385.64L225.65 384.46L226.10 383.81L226.63 383.08L227.79 382.95L229.21 382.84L231.02 382.69L232.89 382.54L235.04 382.37L237.09 382.20L238.95 382.06L241.06 381.89L243.73 381.67L245.88 381.50L248.48 381.29L250.33 381.14L252.69 380.95L253.68 380.88L254.68 380.82L257.29 380.69L259.53 380.58L261.95 380.47L287.83 379.25L286.33 382.00L285.41 384.49L284.83 386.38L284.38 388.92L285.89 388.87L287.40 388.82L288.20 388.81L289.07 388.75L290.88 388.63L292.06 388.56L293.25 388.49L295.13 388.40L295.86 388.37L297.17 388.30L299.12 388.20L300.17 388.19L301.21 388.18L302.38 388.18L303.11 388.14L304.55 388.08L306.73 388.09L308.24 388.02L309.39 388.01L310.54 387.99L311.54 388.00L311.36 386.61L311.25 385.81L311.05 384.26L310.86 382.79L310.98 381.42L311.39 377.73L311.75 374.33L311.75 371.45L311.75 364.59L312.83 359.36L313.30 357.08L315.75 352.07L317.49 351.14L318.60 350.55L319.60 350.02L319.28 348.64L317.04 348.77L314.44 348.60L312.09 348.46L310.19 348.34L308.10 348.49L305.32 348.47L303.23 348.49L301.28 348.45L300.37 348.70L299.55 349.41L297.50 351.70L296.98 352.21L295.74 353.40L295.20 353.91L294.21 354.83L293.12 355.79L291.92 356.80L290.46 357.28L288.63 357.07L287.54 356.76L285.89 356.18L284.16 355.55L283.23 355.19L282.59 354.93L281.44 354.48L280.28 353.72L278.90 352.61L278.33 352.12L277.40 351.47L276.04 351.01L275.05 350.65L273.96 350.21L273.06 350.06L271.68 349.99L270.43 349.94L268.94 349.62L266.57 349.69L266.90 347.79L267.36 345.21L267.55 344.11L267.74 342.97L268.16 340.61L268.63 337.92L256.37 307.00L255.30 306.22L254.56 305.62L251.66 303.21L249.95 301.24L249.15 300.14L247.10 297.98L244.61 295.85L238.42 291.96L237.60 293.87L236.82 295.83L236.26 297.64L235.95 299.85L235.97 301.71L234.95 303.93L233.73 305.58L232.52 306.50L231.93 306.94L229.56 308.52L228.05 309.72L226.23 310.89L224.65 312.45L223.60 313.82L222.02 316.35L220.93 318.39L219.92 319.92L219.32 320.87L218.94 321.46L217.16 323.22L215.62 324.71L213.72 325.95L212.51 326.38L211.76 326.60L210.74 326.73L209.04 326.06L208.16 325.52L207.05 324.52L205.65 322.47L203.89 320.08L202.61 318.36L201.91 317.50L201.31 316.76L199.42 314.16L197.66 311.91L194.34 307.74L193.06 306.36L191.58 305.61L190.27 306.65L187.95 309.99L185.98 313.17L183.89 316.23L182.54 318.50L182.16 319.12L181.43 320.29L180.80 321.31L179.67 324.53L178.38 327.52L177.94 328.19L176.95 329.63L175.71 330.86L173.06 332.10L170.58 333.30L167.92 334.51L166.05 335.25L163.94 336.99L161.94 338.84L159.63 340.50L158.22 342.96L156.63 345.05L154.79 345.83L152.63 346.15L150.85 346.46L149.58 346.81L148.70 348.13L148.12 350.97L147.56 353.53L147.06 356.16L146.44 358.06L145.57 359.40L144.33 360.11L142.84 360.87L140.93 361.54L139.13 362.11L137.19 363.31L135.73 363.48L133.74 363.28L132.79 362.64L131.56 362.11L130.05 360.84L128.59 359.29L127.16 357.62L126.79 357.02L125.40 357.83L124.21 358.91L123.65 360.59L123.27 362.92L122.68 365.66L122.55 366.45L122.85 367.14L123.56 368.76L124.73 370.15L125.41 371.77L127.50 377.26L127.87 378.18L128.24 379.10L128.67 380.12L129.57 382.33L129.05 383.52L128.53 384.08Z" data-ward="9" /><path id="ward-16" class="ward" d="M123.56 368.76L122.33 368.85L120.94 368.85L120.07 368.83L120.41 370.19L120.79 371.29L121.02 372.46L121.11 373.26L121.03 374.62L120.97 375.45L120.87 376.20L120.78 376.95L120.66 377.79L120.47 379.29L120.30 380.54L117.24 380.45L115.64 380.43L114.56 380.41L113.49 380.40L109.74 380.29L77.75 382.89L76.92 382.15L63.71 370.54L62.26 372.56L61.42 373.48L60.50 374.50L58.51 376.32L57.46 377.28L55.91 378.76L53.10 381.45L51.15 383.11L48.63 385.25L46.52 386.52L45.36 386.99L41.49 388.57L36.62 389.00L35.18 389.13L33.34 389.72L30.84 390.41L29.87 390.83L30.12 394.04L30.03 397.43L29.95 399.11L29.68 399.82L28.24 400.05L26.66 400.01L23.49 399.50L22.03 399.64L20.54 399.78L19.30 400.04L18.42 400.68L17.99 401.23L17.21 402.23L17.06 403.30L17.13 404.46L17.20 405.62L17.37 406.33L18.03 407.19L19.19 408.00L20.35 408.59L21.42 408.84L22.75 409.14L23.44 409.85L23.69 411.55L23.57 413.96L23.36 416.50L23.26 418.54L23.15 421.00L23.03 423.70L24.36 425.57L23.16 431.78L22.73 433.82L23.55 436.44L24.87 435.26L26.08 434.97L27.09 434.65L29.57 433.58L30.42 433.20L31.95 432.64L33.55 432.04L34.76 431.60L35.94 431.16L37.12 430.72L37.96 430.42L39.25 429.93L40.40 429.50L41.32 429.16L42.38 428.76L43.23 428.44L43.91 427.85L44.78 427.08L45.77 426.22L46.54 425.55L47.04 425.02L47.62 424.40L48.42 423.55L49.57 422.34L50.80 421.32L51.95 420.42L53.05 419.55L53.83 418.95L55.22 417.99L55.93 417.51L56.80 416.93L57.63 416.59L58.67 416.15L59.43 415.85L60.46 415.56L61.64 415.22L61.83 415.94L61.89 416.84L61.70 418.30L61.48 419.39L61.18 420.52L60.89 421.66L60.62 422.65L60.22 424.13L59.72 426.29L59.22 428.48L58.75 430.61L58.42 431.99L57.97 434.42L57.77 435.56L57.32 437.42L56.99 438.76L56.65 440.49L58.67 441.09L59.69 441.30L61.71 441.71L63.80 441.85L66.44 442.01L69.08 442.17L70.14 442.26L71.20 442.35L72.79 442.57L74.67 442.65L76.57 442.87L78.41 443.08L79.96 443.26L80.90 443.33L82.86 443.58L84.11 443.56L84.54 442.24L85.55 442.17L86.80 442.28L87.71 442.34L89.32 441.66L90.00 441.30L91.88 440.78L92.59 440.58L93.89 440.24L96.29 439.56L97.28 438.77L97.70 438.20L99.19 437.93L100.76 437.82L101.87 437.79L102.94 437.61L104.23 436.32L105.03 435.57L105.78 435.09L107.55 434.15L109.26 433.21L109.65 436.39L109.81 437.63L109.86 439.09L109.99 440.10L110.33 441.17L110.91 442.34L110.86 443.77L110.94 445.17L110.84 446.42L110.79 447.94L110.79 448.84L110.49 449.97L109.91 450.95L108.83 452.52L107.91 453.66L107.44 454.29L106.96 455.20L106.58 456.74L106.32 457.60L105.86 458.21L105.17 459.03L104.34 459.91L103.47 460.82L104.45 461.69L105.44 462.71L106.56 463.73L107.49 464.61L108.73 465.82L109.49 466.50L110.63 467.31L111.92 468.22L113.39 469.33L114.72 469.14L117.32 471.82L118.60 472.72L119.33 473.08L120.06 473.38L121.09 473.73L122.38 474.06L123.17 473.30L123.54 472.54L123.89 471.75L124.34 470.70L124.80 470.17L125.78 469.12L126.69 468.24L127.31 467.65L127.81 467.16L129.29 465.51L130.23 464.80L131.20 464.61L132.33 464.47L133.40 464.29L134.16 464.09L135.22 463.46L135.48 462.75L135.71 461.73L135.92 460.61L136.31 459.07L136.77 457.34L136.97 456.67L137.33 455.87L138.17 454.31L138.87 453.42L139.41 452.86L140.74 451.65L141.62 450.83L142.19 450.24L142.63 448.97L142.93 448.13L143.16 447.39L143.53 446.16L143.82 445.29L144.11 444.42L144.72 443.18L145.15 441.84L145.50 439.79L145.65 438.54L145.80 437.28L146.00 435.62L146.21 433.96L146.38 432.64L146.48 431.09L146.58 429.84L147.05 427.42L147.52 426.05L148.43 423.97L148.73 423.01L148.26 422.10L147.86 421.34L147.09 419.74L146.65 418.91L146.32 418.28L145.36 416.38L144.16 414.67L143.37 414.19L142.59 413.58L142.20 412.84L141.81 412.09L141.41 411.28L140.81 410.05L140.27 408.94L140.04 407.75L139.89 406.49L139.47 404.75L138.67 404.12L136.46 404.43L135.62 404.29L135.45 403.62L135.43 402.25L135.29 400.60L135.25 399.82L135.26 397.81L135.30 396.30L135.34 394.71L135.38 393.16L135.39 391.80L135.40 390.51L135.41 389.39L134.84 386.17L132.98 385.79L130.39 385.46L129.46 385.12L128.53 384.08L129.05 383.52L129.57 382.33L128.67 380.12L128.24 379.10L127.87 378.18L127.50 377.26L125.41 371.77L124.73 370.15L123.56 368.76Z" data-ward="16" /><path id="ward-1" class="ward" d="M159.61 250.20L156.98 249.51L155.30 249.04L151.86 248.34L151.22 247.74L150.53 247.09L148.04 247.31L143.71 247.69L142.02 246.98L139.05 247.58L136.59 248.07L133.47 248.83L132.49 249.07L131.28 250.14L130.41 251.30L127.78 252.90L124.86 256.31L123.01 256.23L121.75 256.18L120.59 256.35L119.42 256.53L118.41 257.09L117.83 257.58L116.93 258.33L115.87 259.61L115.35 260.31L114.84 260.77L114.27 261.29L113.39 262.09L112.94 263.20L112.33 264.69L111.49 265.79L110.72 266.01L110.09 265.05L108.71 265.64L107.24 266.27L105.92 266.46L104.22 266.57L102.69 266.54L101.87 266.55L101.12 266.59L99.07 266.68L96.85 266.56L96.83 267.61L96.81 268.61L97.24 270.66L96.46 272.09L95.42 272.59L95.07 274.00L95.02 275.27L95.07 277.39L95.23 278.30L95.32 280.06L94.93 281.54L93.41 281.76L92.39 282.04L91.89 282.71L91.81 283.47L92.14 284.58L92.36 285.31L92.13 286.26L90.66 286.03L90.02 286.32L89.50 287.07L89.67 288.06L90.00 289.07L90.70 289.99L91.32 290.59L91.05 291.94L90.80 292.76L89.90 294.05L89.15 295.12L87.60 296.04L86.89 296.86L87.40 298.12L87.76 298.97L88.23 299.67L88.57 300.29L88.82 301.06L89.11 301.97L88.87 303.36L88.08 304.43L87.35 303.50L86.62 302.56L85.40 302.68L84.40 303.53L84.30 304.80L84.92 305.98L85.41 307.47L85.34 308.63L85.18 309.56L85.49 310.76L85.10 312.45L84.58 313.11L83.76 314.03L82.26 315.20L81.35 315.61L80.36 316.33L81.23 317.58L82.07 318.13L83.63 319.13L84.00 320.55L84.50 321.80L84.86 322.73L85.38 323.55L85.02 324.83L83.91 326.36L83.22 327.53L83.39 328.75L84.08 330.59L84.33 331.27L85.71 333.20L88.11 336.07L88.57 337.43L86.93 338.16L85.59 338.66L84.83 338.79L82.45 339.17L81.24 339.34L79.66 339.93L77.76 340.65L76.94 341.76L76.44 342.53L76.26 343.20L76.02 344.23L75.82 345.64L75.51 346.34L74.25 349.05L73.26 351.18L72.59 352.74L70.02 355.51L68.56 357.79L67.42 359.57L66.66 361.07L65.73 363.29L65.53 365.02L65.23 367.72L64.74 368.50L64.60 369.31L63.71 370.54L76.92 382.15L77.75 382.89L109.74 380.29L113.49 380.40L114.56 380.41L115.64 380.43L117.24 380.45L120.30 380.54L120.47 379.29L120.66 377.79L120.78 376.95L120.87 376.20L120.97 375.45L121.03 374.62L121.11 373.26L121.02 372.46L120.79 371.29L120.41 370.19L120.07 368.83L120.94 368.85L122.33 368.85L123.56 368.76L122.85 367.14L122.55 366.45L122.68 365.66L123.27 362.92L123.65 360.59L124.21 358.91L125.40 357.83L126.79 357.02L128.27 355.76L129.23 355.04L130.06 354.41L131.54 353.43L132.85 352.81L133.87 352.65L135.25 352.48L136.48 352.22L137.22 352.04L137.91 351.61L138.50 351.03L139.23 349.80L140.04 347.90L140.28 347.24L140.69 346.14L141.21 344.85L141.52 344.09L142.06 342.74L142.38 341.92L143.05 340.20L143.53 338.90L143.86 338.01L144.17 337.18L144.73 335.63L145.18 334.42L145.77 333.02L146.57 331.51L147.05 330.61L147.80 329.06L148.03 327.88L148.13 326.61L148.29 325.83L148.97 325.10L149.52 324.61L150.19 324.03L151.49 322.83L152.43 322.03L153.80 320.86L154.39 320.33L156.03 318.88L156.86 318.18L157.70 317.48L158.49 316.83L159.55 315.94L161.28 314.49L161.87 314.05L163.25 313.03L163.94 312.62L164.83 312.09L165.62 311.62L167.05 310.77L168.42 309.85L169.11 309.13L170.31 307.83L170.89 307.18L171.90 306.05L172.62 305.22L173.09 304.69L173.75 303.49L174.55 302.04L175.34 300.57L176.23 298.91L177.00 296.96L177.57 295.52L178.04 294.20L178.29 293.53L178.63 292.57L179.16 291.01L179.42 290.10L179.76 289.19L180.31 288.63L180.90 288.03L181.48 287.45L182.04 286.89L183.54 285.35L184.31 284.54L185.12 283.68L186.21 282.76L187.70 281.90L187.39 280.31L187.02 279.40L186.73 278.64L186.44 277.92L186.10 276.92L185.75 275.93L185.46 274.90L185.17 273.89L184.82 272.60L184.45 271.44L184.15 270.38L183.71 268.84L182.52 267.14L180.94 266.87L179.25 267.40L177.48 267.38L176.60 267.21L175.56 266.91L174.52 266.58L172.72 266.32L171.54 266.22L170.79 266.07L170.05 264.45L169.50 263.49L169.21 262.73L169.44 261.85L169.70 261.12L170.15 259.78L170.43 258.09L169.83 257.65L168.26 256.50L166.97 255.56L166.40 255.15L163.60 253.12L161.55 251.61L160.93 251.16L159.61 250.20Z" data-ward="1" /><path id="ward-13" class="ward" d="M155.81 514.83L154.39 513.42L152.65 512.53L146.35 508.64L144.56 519.14L144.66 532.51L143.28 537.52L139.19 550.09L138.53 555.86L138.53 561.16L138.65 562.83L138.72 563.81L138.92 566.67L138.75 570.86L138.64 572.14L138.12 577.71L135.36 589.88L136.30 590.55L137.25 591.22L138.43 592.06L139.07 592.46L140.71 593.41L140.81 594.20L139.53 594.78L138.61 594.73L137.66 594.63L136.73 594.53L135.56 594.34L134.36 594.15L133.25 594.00L131.38 594.25L130.84 595.32L130.63 596.06L130.22 597.52L130.04 598.36L129.79 599.31L129.50 600.31L129.10 601.60L128.67 602.58L128.03 604.04L127.65 605.09L127.40 606.06L127.19 607.16L127.06 609.14L127.13 610.88L127.16 612.20L126.38 612.58L125.30 612.50L123.43 612.38L122.44 612.28L121.32 612.15L119.68 611.91L119.08 610.92L119.04 610.17L118.78 608.89L117.90 608.54L115.84 608.13L114.66 607.48L113.73 606.82L112.61 606.64L111.82 606.68L110.63 607.76L108.56 608.28L107.84 608.42L106.83 608.52L105.84 608.55L104.96 609.43L104.51 610.09L103.33 610.27L102.23 610.45L100.83 610.79L99.65 610.86L98.74 610.98L97.83 611.11L96.94 611.17L95.83 611.12L94.90 611.15L94.13 611.20L93.09 611.23L92.18 611.31L91.37 611.43L90.29 611.81L88.91 612.30L88.22 612.23L87.25 612.59L86.15 612.88L85.18 612.94L84.43 612.90L83.82 614.07L83.82 614.79L83.72 615.85L83.60 616.69L83.20 617.96L82.94 618.73L84.68 619.43L86.09 619.98L87.52 620.54L89.50 621.31L91.12 621.94L92.77 622.58L94.53 623.27L97.13 624.28L99.31 625.13L100.89 625.76L101.79 626.10L104.74 627.16L105.64 627.44L107.61 628.04L109.01 628.47L110.45 628.66L112.75 628.96L115.13 629.27L115.85 629.36L118.52 629.52L121.18 629.70L122.65 629.78L123.38 629.82L124.47 629.88L126.63 630.00L127.60 631.07L128.11 631.64L129.51 633.18L130.98 635.17L131.66 635.50L134.77 637.00L136.86 637.52L138.54 638.02L139.90 638.24L144.53 638.99L145.33 639.12L147.01 639.39L147.87 640.65L149.40 642.90L149.40 643.93L150.62 644.14L152.28 645.82L154.87 647.60L156.49 648.72L158.64 650.20L159.70 650.26L161.56 650.38L164.25 650.55L167.07 650.72L168.09 650.78L169.43 650.87L171.29 651.76L173.24 652.69L175.16 653.61L177.59 654.77L185.48 658.55L189.41 659.88L191.64 660.64L192.80 661.03L194.99 662.17L195.83 662.37L199.01 663.10L200.08 663.35L200.93 663.30L203.92 663.11L205.01 662.87L207.01 662.20L209.92 660.94L210.36 659.79L211.02 658.22L211.42 657.26L211.85 656.23L212.53 654.61L213.17 653.03L213.82 651.46L214.09 650.77L214.50 649.75L214.80 649.01L215.17 648.08L215.63 646.95L216.07 645.85L216.95 644.16L217.48 643.13L217.86 642.41L218.23 641.69L218.55 641.07L219.05 640.12L219.38 639.49L219.90 638.49L220.31 637.69L221.07 636.24L221.86 634.71L229.30 626.10L235.77 618.62L240.45 613.54L246.26 607.03L243.40 607.31L238.07 608.61L237.10 606.75L235.07 604.45L233.84 603.31L233.07 602.59L231.74 601.25L229.05 598.88L227.97 597.87L226.90 596.86L225.66 595.62L224.51 594.47L222.49 592.41L220.74 590.61L218.98 588.80L217.75 587.51L215.77 585.39L215.29 584.89L212.78 582.09L210.38 579.56L207.70 576.76L205.64 574.78L205.05 574.40L204.21 573.74L203.93 572.54L203.51 570.42L203.06 568.81L202.40 566.10L201.57 564.06L200.84 563.02L200.12 561.82L200.24 559.50L200.40 558.16L200.51 557.00L200.36 554.49L200.39 553.49L200.33 551.81L200.13 550.41L200.20 548.59L200.26 547.70L200.72 545.38L200.96 544.18L201.34 542.30L201.61 540.82L201.77 539.96L199.24 538.91L199.01 537.64L199.07 536.79L198.15 535.37L196.84 534.95L195.61 534.88L194.82 535.31L193.98 535.53L192.60 535.95L191.68 536.09L190.26 536.31L189.26 536.36L188.39 536.01L189.20 534.10L189.62 533.44L191.03 533.46L191.81 533.49L192.44 528.39L192.52 527.46L190.29 526.01L188.83 525.18L186.78 523.94L185.66 523.41L182.23 522.19L178.68 520.92L174.53 519.52L172.73 519.08L169.27 518.37L165.61 517.42L164.41 517.18L163.68 516.98L161.83 516.43L160.03 515.24L158.75 515.19L157.48 515.52L155.81 514.83Z" data-ward="13" /><path id="ward-3" class="ward" d="M312.50 310.76L312.89 313.54L313.45 317.16L313.56 317.91L314.25 322.09L314.66 324.57L315.43 328.81L315.96 331.92L316.20 333.24L316.44 334.56L316.61 335.35L317.19 338.05L317.38 338.96L317.66 340.15L317.94 341.35L318.48 343.67L319.28 348.64L319.60 350.02L321.14 349.26L323.81 348.16L328.53 346.21L329.09 342.25L330.38 332.43L330.53 331.28L330.80 329.20L330.97 327.05L331.13 325.02L331.30 322.74L331.57 319.18L331.85 315.53L332.47 307.40L332.63 305.59L332.77 304.61L332.52 299.85L331.91 295.55L331.84 294.58L331.63 291.52L330.99 287.70L330.14 284.78L329.52 282.61L328.99 280.25L328.97 279.16L328.97 278.14L329.25 275.63L329.76 273.24L330.09 272.25L330.42 271.01L330.61 270.31L330.99 268.94L331.23 266.34L331.31 265.56L331.29 264.79L331.27 264.00L331.27 262.12L331.29 261.27L331.31 260.42L331.07 257.85L330.57 256.15L329.03 254.67L327.85 253.93L328.04 251.93L328.29 250.62L328.46 249.65L328.47 248.87L328.51 248.00L328.50 246.99L328.48 245.76L328.45 244.71L328.48 243.82L328.48 243.12L328.55 241.88L328.53 240.99L327.43 240.46L327.31 239.23L327.38 238.51L327.53 237.58L328.71 237.29L329.33 236.91L330.01 235.97L330.45 235.05L331.03 234.13L331.39 233.51L332.01 232.41L332.60 231.76L333.70 230.57L334.20 229.63L334.56 228.94L335.83 228.19L336.47 227.82L336.98 227.31L337.59 226.57L337.91 225.73L337.82 224.98L337.41 224.13L337.03 223.50L336.65 222.88L336.34 221.83L336.25 221.00L336.59 220.01L337.00 218.95L337.40 217.88L337.68 217.17L338.03 216.18L338.01 214.39L337.80 213.14L337.95 212.30L338.40 211.30L338.86 210.29L339.96 208.64L340.87 207.20L341.73 205.90L342.72 204.34L343.24 203.40L343.75 202.48L344.46 201.43L345.16 200.38L346.10 199.40L346.46 198.71L347.62 197.13L348.51 196.42L349.96 195.84L351.39 194.88L352.08 194.31L352.87 193.69L354.17 193.28L354.88 193.21L356.07 193.17L356.75 193.24L358.15 193.44L359.55 193.64L360.98 194.13L362.41 194.61L363.35 194.95L367.28 194.49L372.29 193.40L375.80 191.25L379.59 188.01L380.93 183.97L389.83 172.81L390.48 172.23L395.00 168.40L401.56 165.85L406.21 164.15L412.98 164.13L427.41 161.17L434.92 156.63L436.00 156.21L442.94 153.45L449.04 148.63L449.75 147.83L456.53 140.21L464.40 132.33L469.42 127.68L470.25 126.87L471.07 125.90L471.68 125.20L472.57 124.15L473.46 123.10L474.37 122.03L474.98 121.31L475.45 120.69L476.10 119.81L476.99 118.61L477.94 117.33L479.58 115.13L480.83 113.45L481.58 112.43L482.20 111.60L482.84 110.74L483.78 109.48L484.94 107.92L486.25 106.15L486.82 105.38L487.46 104.44L487.89 103.79L488.46 102.94L489.25 101.77L489.84 100.89L490.32 100.18L490.85 99.39L491.80 97.98L492.39 97.10L493.38 95.62L494.44 94.05L495.02 93.19L495.64 92.33L496.27 91.53L497.21 90.32L497.92 89.41L498.41 88.78L499.62 87.24L500.23 86.46L500.67 85.89L501.18 85.24L502.01 84.17L502.58 83.45L503.33 82.48L503.81 81.87L504.35 81.15L505.11 79.87L505.74 78.81L506.30 77.86L507.34 76.11L507.89 75.20L508.42 74.36L509.18 73.13L509.64 72.39L510.28 71.35L510.79 70.52L511.27 69.75L511.78 68.93L512.50 67.76L513.45 66.24L513.97 65.39L514.62 62.26L515.40 58.87L515.88 56.84L516.14 55.74L518.00 54.84L514.01 45.20L508.71 37.79L499.74 30.08L492.86 24.12L488.14 21.67L485.65 21.09L482.46 20.45L477.59 19.83L473.98 18.94L469.99 18.38L468.60 19.02L467.80 19.39L466.30 20.86L464.51 22.62L462.53 23.82L453.41 29.32L452.52 29.86L451.47 30.59L449.31 32.08L446.59 33.96L444.07 32.63L439.90 28.77L431.34 28.71L424.69 28.66L422.88 28.64L422.04 28.75L421.14 28.87L419.39 29.10L418.17 29.28L414.97 29.71L411.16 30.23L408.94 30.25L407.14 30.19L404.72 30.36L403.97 30.43L401.50 30.63L399.21 31.18L398.26 31.42L397.22 31.68L396.55 31.85L395.29 32.18L393.67 32.58L391.85 32.81L391.07 32.91L389.46 33.11L388.61 33.42L385.41 34.61L382.02 35.68L379.29 36.29L378.45 36.48L375.77 37.12L373.22 36.96L371.56 39.55L369.17 44.69L368.33 53.24L367.10 55.82L360.71 60.56L356.98 63.32L355.06 64.94L354.37 65.48L345.89 74.94L342.32 78.46L339.38 81.34L338.48 82.23L337.82 83.02L334.67 86.83L330.38 92.01L325.92 97.45L323.39 100.44L321.84 102.38L321.37 102.97L320.93 103.53L317.56 107.77L313.85 112.26L310.91 116.30L309.65 119.08L307.86 123.04L306.68 125.62L306.03 127.10L305.48 128.26L302.57 134.78L301.06 138.07L299.75 141.07L298.64 143.51L296.63 147.99L294.99 151.66L294.62 152.49L292.44 157.38L289.80 163.33L294.15 164.48L298.05 165.55L299.10 165.82L306.18 167.68L311.72 169.15L307.65 176.98L303.44 183.10L299.28 189.16L293.70 195.96L287.95 203.00L285.89 202.16L284.03 201.40L282.60 200.76L281.33 200.17L279.59 199.36L277.28 198.28L275.69 197.54L273.15 197.51L269.50 197.46L268.49 197.45L269.03 199.12L269.03 200.51L268.34 201.86L267.11 202.41L265.91 203.58L265.54 204.17L264.50 204.57L263.46 204.97L262.47 205.23L261.08 205.51L259.92 205.53L259.16 205.92L258.62 207.74L258.75 209.45L258.88 211.19L259.00 212.69L257.87 214.07L256.29 214.64L254.92 215.14L254.21 215.40L253.43 216.06L252.83 216.56L252.36 217.29L251.95 217.91L251.68 218.71L252.30 222.66L253.19 226.62L255.22 234.59L257.71 236.67L261.43 237.60L264.31 237.07L266.06 236.02L266.77 235.56L267.61 234.41L268.32 233.43L269.73 231.83L270.90 230.73L272.23 229.68L274.11 228.55L274.99 227.97L276.40 227.67L278.02 227.58L278.97 227.50L280.07 227.41L282.06 227.57L283.00 228.64L283.27 229.61L282.63 230.40L282.16 231.64L282.18 233.00L282.17 233.86L282.25 234.88L282.22 235.70L282.04 236.75L281.71 237.73L281.42 238.39L281.01 239.39L280.66 240.40L280.38 241.57L280.20 242.39L280.12 243.59L280.34 244.54L280.87 245.64L281.72 246.81L282.39 248.08L283.41 248.95L284.62 249.71L285.37 250.84L286.70 252.11L287.65 252.32L288.66 252.43L289.84 252.46L290.60 252.48L292.02 252.80L293.01 253.06L294.46 253.57L295.36 254.32L295.41 255.31L294.60 256.51L294.12 257.20L293.82 258.46L293.95 259.42L294.27 260.57L294.28 261.84L294.16 262.64L293.76 263.99L293.03 264.95L292.56 265.52L290.88 266.56L290.13 266.87L289.49 267.29L288.84 268.27L288.79 269.36L289.40 270.78L290.52 271.94L291.53 272.85L292.42 273.87L293.21 275.12L293.60 276.59L293.72 277.73L293.80 278.79L293.80 279.61L293.78 280.82L293.76 281.87L293.32 283.34L292.97 284.02L292.21 285.49L293.27 285.46L294.06 285.27L295.49 285.06L296.91 285.86L297.50 286.92L297.88 288.48L298.01 290.03L298.09 291.76L297.50 294.07L298.24 296.35L299.61 296.46L300.75 296.29L302.26 296.42L303.11 297.44L303.77 297.82L305.21 298.10L306.48 297.35L307.87 296.72L309.30 296.42L310.52 297.09L310.76 298.49L311.00 300.08L311.10 300.99L311.45 303.24L311.72 305.33L312.09 307.66L312.26 308.85L312.36 309.59L312.50 310.76Z" data-ward="3" /><path id="ward-14" class="ward" d="M18.14 569.21L17.26 569.26L15.99 569.33L15.12 569.36L13.67 569.31L12.47 569.31L11.26 569.31L9.00 569.25L8.47 570.49L7.67 572.58L5.89 577.22L4.64 580.81L3.86 583.06L3.26 584.36L2.67 585.66L2.33 586.91L1.78 588.95L1.25 591.15L0.60 593.91L0.33 595.06L0.00 596.44L0.29 598.29L0.42 599.15L0.71 601.35L1.15 604.62L1.34 606.02L2.27 606.50L5.04 607.92L7.37 609.16L9.15 609.56L10.95 609.97L13.43 610.29L16.85 610.73L18.21 610.90L20.20 611.16L21.85 611.19L25.17 611.25L29.96 611.44L32.53 611.58L34.09 611.65L37.77 611.83L38.99 611.89L40.78 611.97L43.86 612.12L45.86 612.21L46.62 612.25L47.34 612.28L49.14 612.36L51.03 612.45L54.21 612.56L56.22 612.74L58.45 612.93L60.71 613.13L62.83 613.28L64.88 613.42L68.66 613.82L70.06 614.03L71.46 614.24L73.77 615.18L75.29 615.76L78.56 617.03L80.06 617.61L81.50 618.17L82.94 618.73L83.20 617.96L83.60 616.69L83.72 615.85L83.82 614.79L83.82 614.07L84.43 612.90L85.18 612.94L86.15 612.88L87.25 612.59L88.22 612.23L88.91 612.30L90.29 611.81L91.37 611.43L92.18 611.31L93.09 611.23L94.13 611.20L94.90 611.15L95.83 611.12L96.94 611.17L97.83 611.11L98.74 610.98L99.65 610.86L100.83 610.79L102.23 610.45L103.33 610.27L104.51 610.09L104.96 609.43L105.84 608.55L106.83 608.52L107.84 608.42L108.56 608.28L110.63 607.76L111.82 606.68L112.61 606.64L113.73 606.82L114.66 607.48L115.84 608.13L117.90 608.54L118.78 608.89L119.04 610.17L119.08 610.92L119.68 611.91L121.32 612.15L122.44 612.28L123.43 612.38L125.30 612.50L126.38 612.58L127.16 612.20L127.13 610.88L127.06 609.14L127.19 607.16L127.40 606.06L127.65 605.09L128.03 604.04L128.67 602.58L129.10 601.60L129.50 600.31L129.79 599.31L130.04 598.36L130.22 597.52L130.63 596.06L130.84 595.32L131.38 594.25L133.25 594.00L134.36 594.15L135.56 594.34L136.73 594.53L137.66 594.63L138.61 594.73L139.53 594.78L140.81 594.20L140.71 593.41L139.07 592.46L138.43 592.06L137.25 591.22L136.30 590.55L135.36 589.88L134.47 589.11L133.71 588.02L133.01 587.07L132.16 585.53L131.01 583.74L130.37 582.54L129.96 581.33L129.66 580.40L129.19 578.38L129.01 577.45L128.09 576.56L127.38 576.27L125.21 575.71L124.53 575.52L123.41 575.24L122.72 575.04L121.71 574.48L121.43 573.57L120.98 572.66L83.38 583.96L82.63 584.20L81.67 582.30L81.21 581.30L80.89 580.56L80.30 579.77L79.61 580.08L78.71 580.47L77.80 580.89L76.35 581.30L75.46 579.55L74.74 578.95L73.65 578.60L72.69 578.36L71.60 577.86L70.33 576.99L69.53 576.49L57.12 576.33L46.94 575.20L42.75 574.73L42.04 574.58L40.69 574.35L39.34 574.13L38.01 573.95L36.60 573.83L35.19 573.71L35.96 570.55L35.06 570.32L33.51 569.99L32.44 569.89L31.68 569.83L30.03 569.77L27.78 569.70L26.49 569.72L25.14 569.73L24.41 569.74L23.71 569.75L22.92 569.71L22.18 569.67L20.80 569.56L19.38 569.37L18.14 569.21Z" data-ward="14" /><path id="ward-2" class="ward" d="M237.48 210.99L236.63 210.15L235.25 209.81L233.85 209.47L233.06 209.27L232.24 209.07L231.05 209.51L228.56 210.43L226.73 211.10L224.80 210.97L223.00 210.84L221.81 210.75L220.85 210.68L219.56 210.58L219.22 211.19L218.70 212.11L218.31 212.83L217.88 213.86L217.42 214.54L217.00 215.14L216.06 218.35L215.18 221.38L214.98 222.47L215.20 223.70L215.95 225.10L216.98 227.03L217.83 228.63L218.89 230.73L219.95 232.86L220.39 233.75L219.62 234.42L219.08 234.90L216.87 235.36L215.22 235.26L213.64 235.16L211.43 234.87L211.24 237.45L209.53 237.99L208.76 239.61L208.92 240.80L207.54 242.07L206.81 242.74L206.01 245.24L205.63 246.41L203.44 250.48L200.20 251.65L196.72 252.90L194.43 252.86L193.07 253.16L191.20 254.21L189.15 255.67L188.29 256.02L185.60 257.10L182.96 258.11L181.24 258.77L179.96 259.26L177.50 259.95L176.55 260.21L174.55 259.80L172.10 259.30L170.43 258.09L170.15 259.78L169.70 261.12L169.44 261.85L169.21 262.73L169.50 263.49L170.05 264.45L170.79 266.07L171.54 266.22L172.72 266.32L174.52 266.58L175.56 266.91L176.60 267.21L177.48 267.38L179.25 267.40L180.94 266.87L182.52 267.14L183.71 268.84L184.15 270.38L184.45 271.44L184.82 272.60L185.17 273.89L185.46 274.90L185.75 275.93L186.10 276.92L186.44 277.92L186.73 278.64L187.02 279.40L187.39 280.31L187.70 281.90L186.21 282.76L185.12 283.68L184.31 284.54L183.54 285.35L182.04 286.89L181.48 287.45L180.90 288.03L180.31 288.63L179.76 289.19L179.42 290.10L179.16 291.01L178.63 292.57L178.29 293.53L178.04 294.20L177.57 295.52L177.00 296.96L176.23 298.91L175.34 300.57L174.55 302.04L173.75 303.49L173.09 304.69L172.62 305.22L171.90 306.05L170.89 307.18L170.31 307.83L169.11 309.13L168.42 309.85L167.05 310.77L165.62 311.62L164.83 312.09L163.94 312.62L163.25 313.03L161.87 314.05L161.28 314.49L159.55 315.94L158.49 316.83L157.70 317.48L156.86 318.18L156.03 318.88L154.39 320.33L153.80 320.86L152.43 322.03L151.49 322.83L150.19 324.03L149.52 324.61L148.97 325.10L148.29 325.83L148.13 326.61L148.03 327.88L147.80 329.06L147.05 330.61L146.57 331.51L145.77 333.02L145.18 334.42L144.73 335.63L144.17 337.18L143.86 338.01L143.53 338.90L143.05 340.20L142.38 341.92L142.06 342.74L141.52 344.09L141.21 344.85L140.69 346.14L140.28 347.24L140.04 347.90L139.23 349.80L138.50 351.03L137.91 351.61L137.22 352.04L136.48 352.22L135.25 352.48L133.87 352.65L132.85 352.81L131.54 353.43L130.06 354.41L129.23 355.04L128.27 355.76L126.79 357.02L127.16 357.62L128.59 359.29L130.05 360.84L131.56 362.11L132.79 362.64L133.74 363.28L135.73 363.48L137.19 363.31L139.13 362.11L140.93 361.54L142.84 360.87L144.33 360.11L145.57 359.40L146.44 358.06L147.06 356.16L147.56 353.53L148.12 350.97L148.70 348.13L149.58 346.81L150.85 346.46L152.63 346.15L154.79 345.83L156.63 345.05L158.22 342.96L159.63 340.50L161.94 338.84L163.94 336.99L166.05 335.25L167.92 334.51L170.58 333.30L173.06 332.10L175.71 330.86L176.95 329.63L177.94 328.19L178.38 327.52L179.67 324.53L180.80 321.31L181.43 320.29L182.16 319.12L182.54 318.50L183.89 316.23L185.98 313.17L187.95 309.99L190.27 306.65L191.58 305.61L193.06 306.36L194.34 307.74L197.66 311.91L199.42 314.16L201.31 316.76L201.91 317.50L202.61 318.36L203.89 320.08L205.65 322.47L207.05 324.52L208.16 325.52L209.04 326.06L210.74 326.73L211.76 326.60L212.51 326.38L213.72 325.95L215.62 324.71L217.16 323.22L218.94 321.46L219.32 320.87L219.92 319.92L220.93 318.39L222.02 316.35L223.60 313.82L224.65 312.45L226.23 310.89L228.05 309.72L229.56 308.52L231.93 306.94L232.52 306.50L233.73 305.58L234.95 303.93L235.97 301.71L235.95 299.85L236.26 297.64L236.82 295.83L237.60 293.87L238.42 291.96L244.61 295.85L247.10 297.98L249.15 300.14L249.95 301.24L251.66 303.21L254.56 305.62L255.30 306.22L256.37 307.00L268.63 337.92L268.16 340.61L267.74 342.97L267.55 344.11L267.36 345.21L266.90 347.79L266.57 349.69L268.94 349.62L270.43 349.94L271.68 349.99L273.06 350.06L273.96 350.21L275.05 350.65L276.04 351.01L277.40 351.47L278.33 352.12L278.90 352.61L280.28 353.72L281.44 354.48L282.59 354.93L283.23 355.19L284.16 355.55L285.89 356.18L287.54 356.76L288.63 357.07L290.46 357.28L291.92 356.80L293.12 355.79L294.21 354.83L295.20 353.91L295.74 353.40L296.98 352.21L297.50 351.70L299.55 349.41L300.37 348.70L301.28 348.45L303.23 348.49L305.32 348.47L308.10 348.49L310.19 348.34L312.09 348.46L314.44 348.60L317.04 348.77L319.28 348.64L318.48 343.67L317.94 341.35L317.66 340.15L317.38 338.96L317.19 338.05L316.61 335.35L316.44 334.56L316.20 333.24L315.96 331.92L315.43 328.81L314.66 324.57L314.25 322.09L313.56 317.91L313.45 317.16L312.89 313.54L312.50 310.76L312.36 309.59L312.26 308.85L312.09 307.66L311.72 305.33L311.45 303.24L311.10 300.99L311.00 300.08L310.76 298.49L310.52 297.09L309.30 296.42L307.87 296.72L306.48 297.35L305.21 298.10L303.77 297.82L303.11 297.44L302.26 296.42L300.75 296.29L299.61 296.46L298.24 296.35L297.50 294.07L298.09 291.76L298.01 290.03L297.88 288.48L297.50 286.92L296.91 285.86L295.49 285.06L294.06 285.27L293.27 285.46L292.21 285.49L292.97 284.02L293.32 283.34L293.76 281.87L293.78 280.82L293.80 279.61L293.80 278.79L293.72 277.73L293.60 276.59L293.21 275.12L292.42 273.87L291.53 272.85L290.52 271.94L289.40 270.78L288.79 269.36L288.84 268.27L289.49 267.29L290.13 266.87L290.88 266.56L292.56 265.52L293.03 264.95L293.76 263.99L294.16 262.64L294.28 261.84L294.27 260.57L293.95 259.42L293.82 258.46L294.12 257.20L294.60 256.51L295.41 255.31L295.36 254.32L294.46 253.57L293.01 253.06L292.02 252.80L290.60 252.48L289.84 252.46L288.66 252.43L287.65 252.32L286.70 252.11L285.37 250.84L284.62 249.71L283.41 248.95L282.39 248.08L281.72 246.81L280.87 245.64L280.34 244.54L280.12 243.59L280.20 242.39L280.38 241.57L280.66 240.40L281.01 239.39L281.42 238.39L281.71 237.73L282.04 236.75L282.22 235.70L282.25 234.88L282.17 233.86L282.18 233.00L282.16 231.64L282.63 230.40L283.27 229.61L283.00 228.64L282.06 227.57L280.07 227.41L278.97 227.50L278.02 227.58L276.40 227.67L274.99 227.97L274.11 228.55L272.23 229.68L270.90 230.73L269.73 231.83L268.32 233.43L267.61 234.41L266.77 235.56L266.06 236.02L264.31 237.07L261.43 237.60L257.71 236.67L255.22 234.59L253.19 226.62L252.30 222.66L251.68 218.71L250.08 219.44L248.20 219.03L246.32 218.61L245.27 217.63L244.22 216.65L242.62 215.12L241.49 214.04L239.99 213.46L239.43 212.90L238.72 212.21L237.48 210.99Z" data-ward="2" /><path id="ward-8" class="ward" d="M961.74 35.49L960.47 34.11L958.47 31.96L957.53 30.94L956.42 30.08L954.24 28.17L952.86 26.10L952.94 23.65L952.98 22.75L953.03 21.02L953.10 18.69L951.98 18.68L950.14 18.66L948.81 17.36L948.65 16.64L949.03 15.27L949.11 14.46L947.31 15.01L945.51 15.55L943.71 16.10L941.64 16.73L938.92 18.94L937.12 20.40L937.18 23.88L937.72 24.52L937.45 30.48L937.22 35.53L933.26 35.15L932.21 34.85L929.81 34.16L928.73 33.85L927.57 33.51L926.86 33.31L916.60 29.87L906.59 27.73L899.98 26.31L894.15 24.45L888.85 22.75L879.55 20.17L870.33 20.22L861.25 21.18L854.48 20.00L853.31 22.08L851.43 25.43L848.15 32.92L844.59 52.64L844.22 54.59L843.98 55.89L842.88 61.32L837.72 86.55L839.84 85.89L840.85 85.58L841.88 85.27L842.91 84.96L844.42 84.53L845.24 84.31L847.35 83.99L848.35 83.87L849.36 83.75L851.71 83.47L855.07 83.43L858.06 83.64L859.43 83.71L860.40 83.76L861.15 83.69L862.59 83.54L864.94 82.70L866.17 82.22L866.82 81.96L867.68 81.63L868.78 81.14L870.03 80.60L872.47 80.37L872.31 81.83L871.33 84.43L871.04 85.19L870.55 86.49L869.72 88.16L868.44 90.66L867.87 91.79L866.17 95.17L865.18 97.50L864.69 99.45L864.85 101.05L865.05 101.95L865.38 102.72L865.98 104.13L866.38 105.00L866.67 105.64L866.90 106.30L867.37 107.61L866.64 113.97L863.98 136.43L863.09 136.50L862.81 137.59L861.98 139.39L860.73 141.47L860.03 143.15L860.11 143.97L861.33 146.01L862.33 147.27L863.93 149.35L865.10 151.13L866.30 153.18L866.52 154.38L866.68 156.01L866.62 157.09L866.58 157.80L865.77 159.81L863.93 162.70L862.90 164.85L862.18 166.31L859.25 170.39L858.74 170.97L857.49 172.39L856.86 173.03L854.08 175.88L855.70 178.41L857.30 180.92L858.07 181.92L859.37 182.83L861.12 183.85L862.60 184.04L865.05 184.11L866.56 183.90L870.28 182.76L875.80 179.05L885.82 172.33L893.02 167.96L893.72 167.52L906.24 165.88L908.11 165.36L925.34 160.59L927.14 160.10L940.53 157.47L943.24 152.15L943.95 150.07L944.51 149.13L945.39 145.81L949.33 142.13L951.02 140.88L952.13 140.06L955.89 138.21L960.38 134.19L962.54 132.50L965.91 129.07L967.81 127.28L970.93 124.78L973.75 122.52L978.54 120.78L981.33 120.47L989.39 119.55L990.76 117.74L994.37 112.96L994.80 112.05L996.06 109.78L996.36 109.14L998.04 107.01L998.70 105.00L998.87 102.96L999.40 96.29L999.67 92.95L999.79 91.75L999.92 90.56L1000.00 89.09L999.08 87.14L998.18 85.26L997.61 83.56L997.56 79.46L998.14 77.35L998.21 75.75L998.28 74.20L998.73 73.54L998.62 72.51L997.87 72.20L995.42 72.77L994.03 72.41L992.24 69.03L991.69 67.97L990.73 66.76L989.33 64.96L988.11 63.48L987.01 62.13L985.60 59.71L984.77 56.88L984.60 56.18L983.83 53.07L982.90 51.31L982.40 50.35L982.01 49.37L980.55 47.95L978.74 45.96L974.61 43.99L971.15 42.22L967.83 40.71L964.98 39.23L963.42 38.43L961.74 35.49Z" data-ward="8" /><path id="ward-11" class="ward" d="M111.92 468.22L110.63 467.31L109.49 466.50L108.73 465.82L107.49 464.61L106.56 463.73L105.44 462.71L104.45 461.69L103.47 460.82L102.67 461.06L101.67 461.63L100.87 462.31L100.30 462.79L99.77 463.23L98.49 463.87L97.37 464.34L96.31 464.78L95.03 465.33L94.41 465.67L93.02 466.45L92.17 467.67L91.69 468.45L91.17 469.30L90.83 470.31L90.48 471.40L90.08 472.63L89.62 474.00L89.31 474.95L88.89 476.11L88.26 477.86L87.78 479.29L87.49 480.74L87.14 482.56L86.31 483.53L85.38 484.66L84.37 485.97L83.67 486.89L83.09 487.64L82.22 489.01L81.54 490.11L81.26 491.75L80.94 493.48L80.40 495.88L80.19 496.66L79.54 498.81L79.10 499.84L78.66 500.68L78.21 501.59L78.12 503.16L78.00 503.86L77.72 504.81L77.43 505.49L76.80 506.70L76.36 507.53L75.97 508.29L75.92 509.92L75.75 510.95L75.30 511.84L74.79 513.47L74.38 514.90L74.17 516.14L73.90 516.97L73.25 518.45L72.96 519.11L72.31 520.71L71.92 521.85L71.89 523.12L71.87 524.58L71.59 525.92L71.43 526.66L71.29 527.34L71.13 528.06L70.97 528.84L70.63 529.80L70.33 530.66L69.84 532.03L69.39 533.30L69.14 534.02L68.87 534.79L68.40 536.13L68.16 536.81L67.70 538.10L67.63 539.49L67.59 540.35L67.55 541.30L67.51 542.32L67.45 543.84L67.26 545.19L67.09 546.13L66.93 547.04L66.77 547.92L66.58 548.98L66.44 549.77L66.18 550.48L65.82 551.49L65.34 552.83L64.99 553.79L64.51 555.13L64.04 556.08L63.56 556.83L63.03 557.65L62.57 558.37L62.11 559.08L61.65 559.79L60.87 561.02L60.03 562.37L58.91 564.18L58.16 565.40L57.98 566.70L57.87 567.51L57.67 569.06L57.59 570.08L57.48 571.47L57.38 572.77L57.26 574.41L57.12 576.33L69.53 576.49L70.33 576.99L71.60 577.86L72.69 578.36L73.65 578.60L74.74 578.95L75.46 579.55L76.35 581.30L77.80 580.89L78.71 580.47L79.61 580.08L80.30 579.77L80.89 580.56L81.21 581.30L81.67 582.30L82.63 584.20L83.38 583.96L120.98 572.66L121.43 573.57L121.71 574.48L122.72 575.04L123.41 575.24L124.53 575.52L125.21 575.71L127.38 576.27L128.09 576.56L129.01 577.45L129.19 578.38L129.66 580.40L129.96 581.33L130.37 582.54L131.01 583.74L132.16 585.53L133.01 587.07L133.71 588.02L134.47 589.11L135.36 589.88L138.12 577.71L138.64 572.14L138.75 570.86L138.92 566.67L138.72 563.81L138.65 562.83L138.53 561.16L138.53 555.86L139.19 550.09L143.28 537.52L144.66 532.51L144.56 519.14L146.35 508.64L152.65 512.53L154.39 513.42L155.81 514.83L157.48 515.52L158.75 515.19L160.03 515.24L161.83 516.43L163.68 516.98L164.41 517.18L165.61 517.42L169.27 518.37L172.73 519.08L174.53 519.52L178.68 520.92L182.23 522.19L182.48 520.75L182.80 519.43L183.05 518.41L183.50 517.12L183.93 515.82L183.97 514.85L184.01 513.58L183.92 512.46L183.94 511.61L184.15 510.67L184.45 509.03L184.72 507.52L184.83 506.80L185.00 505.64L185.11 504.82L185.20 503.35L183.30 503.60L182.10 503.61L181.18 503.50L180.16 503.06L179.38 502.68L177.85 501.83L177.14 501.76L175.53 501.90L174.20 501.76L172.67 501.72L171.98 501.56L171.37 500.25L170.21 498.73L167.61 498.13L166.69 498.08L166.00 498.05L165.03 498.01L163.09 497.76L161.71 497.16L160.83 496.85L159.97 496.47L158.48 496.00L157.26 495.75L156.38 495.59L155.13 495.49L153.62 495.30L152.42 494.84L152.49 494.13L152.63 493.13L152.84 491.68L152.96 490.68L153.10 489.60L152.53 488.33L151.82 488.13L150.32 487.60L150.48 486.22L150.78 485.28L151.07 484.40L151.29 482.69L149.56 482.11L148.09 481.66L146.74 481.41L145.25 481.49L144.37 481.57L142.91 481.55L141.24 481.55L139.99 481.73L139.03 481.94L137.54 482.19L136.13 482.43L134.12 482.63L132.74 482.58L131.30 482.43L130.08 482.26L128.73 482.04L127.95 481.88L127.06 481.64L125.43 480.99L124.43 480.54L123.66 480.18L122.43 479.32L121.41 478.98L120.45 478.74L119.76 478.56L118.83 478.26L117.55 477.72L117.69 476.09L118.60 474.40L119.33 473.08L118.60 472.72L117.32 471.82L114.72 469.14L113.39 469.33L111.92 468.22Z" data-ward="11" /><path id="ward-7" class="ward" d="M825.00 22.30L818.62 21.82L809.40 21.13L801.46 17.84L794.31 11.13L792.63 9.67L791.32 8.55L785.04 3.69L779.87 1.28L775.58 0.52L772.69 0.00L770.17 0.42L758.28 2.39L757.99 6.56L757.82 9.12L757.55 12.92L757.35 15.80L757.07 19.81L756.85 22.91L756.57 25.89L756.12 30.53L755.80 33.92L755.38 38.24L754.90 43.29L754.90 44.95L754.90 47.02L754.89 49.72L754.89 52.69L754.89 54.86L754.89 57.74L754.89 60.02L754.88 62.96L754.88 65.52L754.88 69.45L754.88 71.95L752.14 72.07L747.72 73.11L745.54 73.62L741.21 74.64L739.04 75.15L738.14 77.13L737.25 79.10L736.66 80.51L736.03 82.00L734.83 84.88L734.23 86.31L733.01 89.22L731.67 90.87L731.44 92.73L729.17 99.35L722.27 111.77L722.38 112.66L722.55 113.99L722.76 115.70L722.87 116.61L723.09 118.33L723.20 119.22L723.34 120.39L723.55 122.06L723.86 124.52L723.90 126.02L724.03 131.32L723.48 139.28L723.65 140.04L724.00 141.43L724.26 142.45L725.33 141.77L726.45 141.51L728.30 141.32L729.72 141.52L730.67 141.58L731.73 141.65L732.78 142.08L733.70 142.43L734.60 142.58L735.51 142.73L736.71 142.95L738.05 143.27L738.84 143.47L739.74 143.68L740.74 143.90L741.60 144.10L742.99 144.76L744.33 144.13L744.79 142.99L744.97 141.39L745.50 138.63L745.38 135.74L745.46 134.39L746.28 133.63L747.55 133.45L749.36 133.58L750.88 133.97L752.99 134.54L753.92 134.79L755.19 135.00L756.31 134.82L757.38 134.64L758.35 134.48L759.31 134.32L760.24 134.16L760.95 134.04L761.77 133.87L763.17 133.26L765.78 132.11L766.45 131.44L769.99 125.33L771.39 122.62L772.52 122.10L773.34 121.72L774.18 121.32L775.48 120.68L776.13 120.36L776.63 119.65L777.09 118.99L777.58 118.31L778.02 117.69L778.40 116.83L779.01 115.63L779.37 114.92L780.64 112.86L781.95 111.38L782.44 112.45L782.73 113.09L783.45 114.66L784.23 116.34L784.99 118.00L785.81 119.77L786.81 121.93L787.77 124.01L788.85 126.36L789.98 128.81L791.22 131.49L792.15 133.51L793.24 135.89L794.21 137.99L795.11 139.93L796.12 142.13L797.06 144.17L797.78 145.73L798.70 147.73L799.53 149.52L800.30 151.21L801.05 152.83L801.82 154.50L802.67 156.34L803.42 157.95L804.21 159.68L805.41 162.27L806.02 163.51L807.67 166.05L808.29 166.99L809.31 168.57L815.64 178.28L819.35 183.99L819.87 184.79L821.37 187.71L823.25 192.03L827.74 176.83L828.87 172.33L829.74 168.88L831.56 165.43L832.17 164.79L834.20 162.65L838.02 159.23L841.96 157.95L845.97 158.11L848.66 158.22L849.76 159.58L850.89 161.51L851.43 162.41L852.14 164.22L852.30 165.47L852.60 167.98L853.03 170.22L853.24 171.29L854.08 175.88L856.86 173.03L857.49 172.39L858.74 170.97L859.25 170.39L862.18 166.31L862.90 164.85L863.93 162.70L865.77 159.81L866.58 157.80L866.62 157.09L866.68 156.01L866.52 154.38L866.30 153.18L865.10 151.13L863.93 149.35L862.33 147.27L861.33 146.01L860.11 143.97L860.03 143.15L860.73 141.47L861.98 139.39L862.81 137.59L863.09 136.50L863.98 136.43L866.64 113.97L867.37 107.61L866.90 106.30L866.67 105.64L866.38 105.00L865.98 104.13L865.38 102.72L865.05 101.95L864.85 101.05L864.69 99.45L865.18 97.50L866.17 95.17L867.87 91.79L868.44 90.66L869.72 88.16L870.55 86.49L871.04 85.19L871.33 84.43L872.31 81.83L872.47 80.37L870.03 80.60L868.78 81.14L867.68 81.63L866.82 81.96L866.17 82.22L864.94 82.70L862.59 83.54L861.15 83.69L860.40 83.76L859.43 83.71L858.06 83.64L855.07 83.43L851.71 83.47L849.36 83.75L848.35 83.87L847.35 83.99L845.24 84.31L844.42 84.53L842.91 84.96L841.88 85.27L840.85 85.58L839.84 85.89L837.72 86.55L842.88 61.32L843.98 55.89L844.22 54.59L844.59 52.64L848.15 32.92L851.43 25.43L853.31 22.08L854.48 20.00L853.76 19.40L852.95 18.71L851.69 17.66L848.65 15.09L843.96 11.14L835.08 20.33L828.95 22.60L825.00 22.30Z" data-ward="7" /><path id="ward-12" class="ward" d="M309.62 444.33L309.40 437.28L310.85 429.25L313.14 423.34L311.88 424.43L310.70 425.88L309.35 427.22L308.14 428.41L307.52 429.02L306.57 429.92L305.20 430.78L303.44 431.88L301.76 432.93L300.83 433.53L299.91 434.13L297.74 435.67L293.67 438.56L287.56 442.88L282.96 445.85L277.79 449.20L272.78 452.45L268.05 454.96L263.64 457.30L260.97 458.69L257.99 459.97L253.09 462.07L249.48 463.62L248.75 463.85L244.15 465.25L241.91 465.93L241.24 466.14L238.50 467.39L236.18 468.48L231.66 470.62L229.09 471.80L224.10 474.09L219.49 476.37L214.41 478.90L208.91 479.99L205.38 480.68L203.18 480.63L201.79 480.61L200.40 480.58L196.17 480.60L189.63 480.50L186.14 480.45L184.70 480.39L182.05 480.29L180.69 480.24L179.27 480.20L178.41 480.24L177.59 480.26L176.36 480.31L175.19 480.34L174.20 480.32L173.49 480.20L172.52 480.03L171.34 479.83L170.25 479.59L169.50 479.39L168.62 479.16L167.89 479.00L167.85 481.85L168.00 483.88L167.97 485.00L167.92 486.58L167.86 488.65L167.80 490.54L167.75 491.95L167.70 493.78L167.62 496.34L167.61 498.13L170.21 498.73L171.37 500.25L171.98 501.56L172.67 501.72L174.20 501.76L175.53 501.90L177.14 501.76L177.85 501.83L179.38 502.68L180.16 503.06L181.18 503.50L182.10 503.61L183.30 503.60L185.20 503.35L185.11 504.82L185.00 505.64L184.83 506.80L184.72 507.52L184.45 509.03L184.15 510.67L183.94 511.61L183.92 512.46L184.01 513.58L183.97 514.85L183.93 515.82L183.50 517.12L183.05 518.41L182.80 519.43L182.48 520.75L182.23 522.19L185.66 523.41L186.78 523.94L188.83 525.18L190.29 526.01L192.52 527.46L192.44 528.39L191.81 533.49L191.03 533.46L189.62 533.44L189.20 534.10L188.39 536.01L189.26 536.36L190.26 536.31L191.68 536.09L192.60 535.95L193.98 535.53L194.82 535.31L195.61 534.88L196.84 534.95L198.15 535.37L199.07 536.79L199.01 537.64L199.24 538.91L201.77 539.96L201.61 540.82L201.34 542.30L200.96 544.18L200.72 545.38L200.26 547.70L200.20 548.59L200.13 550.41L200.33 551.81L200.39 553.49L200.36 554.49L200.51 557.00L200.40 558.16L200.24 559.50L200.12 561.82L200.84 563.02L201.57 564.06L202.40 566.10L203.06 568.81L203.51 570.42L203.93 572.54L204.21 573.74L205.05 574.40L205.64 574.78L207.70 576.76L210.38 579.56L212.78 582.09L215.29 584.89L215.77 585.39L217.75 587.51L218.98 588.80L220.74 590.61L222.49 592.41L224.51 594.47L225.66 595.62L226.90 596.86L227.97 597.87L229.05 598.88L231.74 601.25L233.07 602.59L233.84 603.31L235.07 604.45L237.10 606.75L238.07 608.61L243.40 607.31L246.26 607.03L247.24 606.00L253.20 599.75L257.33 595.13L258.49 593.81L264.72 586.72L265.66 585.57L266.23 585.01L268.63 582.60L271.21 580.02L273.82 577.37L275.76 575.40L277.99 573.13L280.45 570.64L282.24 568.81L283.67 567.53L285.10 566.26L286.41 563.07L287.57 561.54L289.10 559.52L289.86 558.48L291.19 556.69L292.25 555.25L292.63 554.08L293.64 552.53L294.89 550.63L295.91 549.12L296.64 548.02L298.60 545.05L301.26 541.03L302.35 539.38L307.63 533.41L308.71 532.19L309.79 530.98L312.59 527.84L314.18 526.06L317.36 522.51L322.77 512.45L324.35 509.51L332.37 493.91L333.97 490.80L341.72 475.80L334.71 469.94L331.56 467.21L330.72 466.80L329.20 465.83L326.28 464.47L322.11 464.29L316.68 465.06L310.29 465.97L309.62 444.33Z" data-ward="12" /><path id="ward-6" class="ward" d="M729.17 99.35L731.44 92.73L731.67 90.87L733.01 89.22L730.66 90.50L727.86 92.04L726.31 92.26L724.81 92.47L719.08 93.28L713.72 95.95L707.66 98.97L701.77 99.84L699.44 97.42L697.52 95.43L692.82 91.14L684.73 93.30L678.04 95.08L669.01 97.49L670.33 98.27L668.30 106.97L668.41 114.51L666.51 121.52L665.92 123.73L664.65 129.01L663.36 134.39L661.90 142.89L661.48 145.29L661.06 147.68L659.97 153.83L659.15 159.45L658.85 161.48L658.73 162.23L657.94 166.15L657.75 167.06L656.89 169.58L654.42 171.76L653.72 171.28L650.93 170.82L650.48 172.93L649.62 177.08L649.72 178.30L651.52 182.93L651.69 183.83L651.80 185.09L652.21 192.40L650.94 193.87L649.66 195.34L649.11 195.96L648.17 196.95L647.22 197.95L646.07 199.14L643.63 200.36L641.33 199.80L638.63 199.55L636.14 201.79L634.54 205.82L631.55 205.38L629.63 205.09L628.57 205.47L627.73 205.76L625.92 205.55L623.48 208.48L622.71 209.40L621.67 210.65L621.68 213.67L621.17 218.84L620.38 219.43L617.69 221.44L615.61 221.91L612.87 221.86L611.23 222.36L607.95 223.35L603.53 225.81L601.35 226.58L598.70 226.06L597.46 226.28L596.39 226.46L595.19 226.52L593.29 226.62L590.86 228.55L590.58 229.21L586.26 231.90L584.04 232.37L583.80 238.10L584.86 259.21L586.44 265.20L587.23 268.20L587.91 269.89L590.41 276.13L592.11 282.57L589.98 286.74L589.76 289.13L596.33 305.44L597.29 307.83L599.63 305.72L601.16 304.34L607.47 299.07L616.99 301.35L619.71 301.99L620.42 300.99L624.33 295.47L630.64 286.52L636.42 285.95L640.41 285.53L644.64 285.09L648.14 284.73L649.30 284.36L651.30 283.74L652.15 283.47L656.99 281.95L658.88 273.62L655.86 270.92L662.99 255.85L678.21 255.45L677.78 254.43L672.99 243.11L674.58 241.39L676.65 239.16L679.53 236.05L682.50 232.83L684.39 232.86L685.56 235.42L686.72 237.88L687.34 239.19L691.14 237.98L692.17 238.36L694.44 239.21L695.82 239.72L700.76 241.80L703.70 242.74L706.80 242.27L711.10 241.63L714.76 241.08L716.67 240.79L717.55 239.94L718.15 239.36L718.81 238.73L722.13 235.53L725.40 232.42L729.80 228.20L733.29 224.85L734.15 224.03L734.66 223.55L736.29 222.47L739.97 220.06L741.67 219.12L742.50 218.67L744.10 218.04L746.52 217.10L745.48 215.25L743.82 212.24L742.33 209.73L745.79 209.20L749.09 208.68L751.35 208.28L753.85 207.82L759.20 206.76L760.37 206.53L764.56 205.59L768.09 203.97L768.86 202.94L770.57 200.63L771.76 199.00L774.42 195.22L776.51 192.25L777.06 191.45L780.60 185.04L785.68 185.00L790.47 185.17L791.56 185.21L795.38 186.25L800.42 187.91L801.11 188.39L805.53 191.47L807.29 191.95L810.26 192.77L810.95 192.96L811.80 193.19L812.70 193.44L814.16 193.84L815.08 193.93L817.95 194.22L819.95 194.42L821.74 194.60L822.48 194.68L823.25 192.03L821.37 187.71L819.87 184.79L819.35 183.99L815.64 178.28L809.31 168.57L808.29 166.99L807.67 166.05L806.02 163.51L805.41 162.27L804.21 159.68L803.42 157.95L802.67 156.34L801.82 154.50L801.05 152.83L800.30 151.21L799.53 149.52L798.70 147.73L797.78 145.73L797.06 144.17L796.12 142.13L795.11 139.93L794.21 137.99L793.24 135.89L792.15 133.51L791.22 131.49L789.98 128.81L788.85 126.36L787.77 124.01L786.81 121.93L785.81 119.77L784.99 118.00L784.23 116.34L783.45 114.66L782.73 113.09L782.44 112.45L781.95 111.38L780.64 112.86L779.37 114.92L779.01 115.63L778.40 116.83L778.02 117.69L777.58 118.31L777.09 118.99L776.63 119.65L776.13 120.36L775.48 120.68L774.18 121.32L773.34 121.72L772.52 122.10L771.39 122.62L769.99 125.33L766.45 131.44L765.78 132.11L763.17 133.26L761.77 133.87L760.95 134.04L760.24 134.16L759.31 134.32L758.35 134.48L757.38 134.64L756.31 134.82L755.19 135.00L753.92 134.79L752.99 134.54L750.88 133.97L749.36 133.58L747.55 133.45L746.28 133.63L745.46 134.39L745.38 135.74L745.50 138.63L744.97 141.39L744.79 142.99L744.33 144.13L742.99 144.76L741.60 144.10L740.74 143.90L739.74 143.68L738.84 143.47L738.05 143.27L736.71 142.95L735.51 142.73L734.60 142.58L733.70 142.43L732.78 142.08L731.73 141.65L730.67 141.58L729.72 141.52L728.30 141.32L726.45 141.51L725.33 141.77L724.26 142.45L724.00 141.43L723.65 140.04L723.48 139.28L724.03 131.32L723.90 126.02L723.86 124.52L723.55 122.06L723.34 120.39L723.20 119.22L723.09 118.33L722.87 116.61L722.76 115.70L722.55 113.99L722.38 112.66L722.27 111.77L729.17 99.35Z" data-ward="6" /><path id="ward-5" class="ward" d="M527.56 68.45L525.77 66.26L523.40 63.51L520.79 60.55L520.24 59.43L519.45 57.81L518.00 54.84L516.14 55.74L515.88 56.84L515.40 58.87L514.62 62.26L513.97 65.39L513.45 66.24L512.50 67.76L511.78 68.93L511.27 69.75L510.79 70.52L510.28 71.35L509.64 72.39L509.18 73.13L508.42 74.36L507.89 75.20L507.34 76.11L506.30 77.86L505.74 78.81L505.11 79.87L504.35 81.15L503.81 81.87L503.33 82.48L502.58 83.45L502.01 84.17L501.18 85.24L500.67 85.89L500.23 86.46L499.62 87.24L498.41 88.78L497.92 89.41L497.21 90.32L496.27 91.53L495.64 92.33L495.02 93.19L494.44 94.05L493.38 95.62L492.39 97.10L491.80 97.98L490.85 99.39L490.32 100.18L489.84 100.89L489.25 101.77L488.46 102.94L487.89 103.79L487.46 104.44L486.82 105.38L486.25 106.15L484.94 107.92L483.78 109.48L482.84 110.74L482.20 111.60L481.58 112.43L480.83 113.45L479.58 115.13L477.94 117.33L476.99 118.61L476.10 119.81L475.45 120.69L474.98 121.31L474.37 122.03L473.46 123.10L472.57 124.15L471.68 125.20L471.07 125.90L470.25 126.87L468.38 141.11L466.63 165.32L465.96 195.00L466.06 197.08L466.50 206.44L466.83 213.46L467.51 227.95L469.58 232.45L470.83 235.13L471.78 237.19L472.06 237.97L472.44 239.03L470.99 240.46L470.35 241.18L469.55 242.11L468.68 243.58L467.80 244.91L467.23 245.47L465.93 246.10L466.21 247.84L465.96 253.64L466.46 254.24L469.47 255.91L473.35 257.61L474.09 257.65L475.43 257.71L476.69 257.03L477.40 255.45L478.98 251.45L479.50 250.22L481.92 244.40L483.01 243.66L484.46 243.08L485.58 242.75L486.65 242.35L488.25 241.50L488.94 240.99L489.76 240.38L490.16 239.64L490.54 238.95L491.45 237.20L492.91 234.32L494.50 232.41L496.73 230.09L497.88 228.71L499.37 226.91L501.49 224.18L502.49 223.20L503.68 222.79L504.92 223.02L505.55 223.39L506.02 224.06L507.00 225.33L508.27 227.23L508.71 227.87L511.14 229.35L513.21 232.66L515.33 235.24L518.17 237.03L519.56 236.82L521.55 236.53L522.82 236.32L523.71 236.18L526.15 235.36L526.80 237.29L528.70 242.88L528.95 243.64L529.34 244.23L529.90 245.10L530.45 245.97L531.01 247.31L534.21 255.06L534.54 255.85L537.47 262.96L540.03 267.48L542.15 271.21L545.94 277.90L549.06 283.41L552.15 288.86L553.58 291.37L553.99 294.29L554.99 296.41L558.63 298.64L560.23 299.85L560.79 300.39L561.92 301.10L562.37 301.88L562.86 302.74L563.79 303.64L564.69 304.26L565.87 305.42L567.05 306.58L571.17 310.93L574.11 314.04L576.54 316.61L577.92 318.07L581.24 321.57L584.40 324.91L585.53 326.08L586.06 325.20L587.82 321.82L590.05 317.52L592.60 312.85L593.47 311.79L594.79 310.20L597.29 307.83L596.33 305.44L589.76 289.13L589.98 286.74L592.11 282.57L590.41 276.13L587.91 269.89L587.23 268.20L586.44 265.20L584.86 259.21L583.80 238.10L584.04 232.37L586.26 231.90L590.58 229.21L590.86 228.55L593.29 226.62L595.19 226.52L596.39 226.46L597.46 226.28L598.70 226.06L601.35 226.58L603.53 225.81L607.95 223.35L611.23 222.36L612.87 221.86L615.61 221.91L617.69 221.44L620.38 219.43L621.17 218.84L621.68 213.67L621.67 210.65L622.71 209.40L623.48 208.48L625.92 205.55L627.73 205.76L628.57 205.47L629.63 205.09L631.55 205.38L634.54 205.82L636.14 201.79L638.63 199.55L641.33 199.80L643.63 200.36L646.07 199.14L647.22 197.95L648.17 196.95L649.11 195.96L649.66 195.34L650.94 193.87L652.21 192.40L651.80 185.09L651.69 183.83L651.52 182.93L649.72 178.30L649.62 177.08L650.48 172.93L650.93 170.82L653.72 171.28L654.42 171.76L656.89 169.58L657.75 167.06L657.94 166.15L658.73 162.23L658.85 161.48L659.15 159.45L659.97 153.83L661.06 147.68L661.48 145.29L661.90 142.89L663.36 134.39L664.65 129.01L665.92 123.73L666.51 121.52L668.41 114.51L668.30 106.97L670.33 98.27L669.01 97.49L655.03 101.22L652.17 100.05L648.17 98.39L644.45 96.87L642.92 96.25L641.82 95.80L641.02 95.70L635.20 95.06L623.76 93.81L618.16 93.20L608.48 92.15L601.79 91.43L596.28 90.83L594.85 90.68L590.91 82.99L587.97 77.22L582.32 66.09L579.56 60.66L576.80 60.75L574.75 60.81L573.08 60.82L566.53 60.84L563.47 61.51L560.07 62.25L558.11 62.68L557.03 62.91L555.82 63.17L553.44 63.67L552.67 63.78L548.27 64.66L545.27 65.22L542.16 65.80L540.35 66.28L537.27 67.10L528.38 69.46L527.56 68.45Z" data-ward="5" /><path id="ward-4" class="ward" d="M330.97 327.05L330.80 329.20L330.53 331.28L330.38 332.43L329.09 342.25L328.53 346.21L330.12 345.57L345.56 339.33L356.02 332.95L373.39 331.59L376.88 331.10L382.96 330.24L390.55 329.30L395.98 328.62L416.46 326.03L422.29 325.42L431.27 324.27L438.12 323.40L439.67 324.29L441.02 326.58L445.91 340.23L449.26 349.57L450.54 355.37L453.02 366.58L453.48 368.69L457.76 374.59L474.78 373.29L476.56 373.20L493.28 372.13L506.13 373.30L509.56 377.03L512.76 381.13L514.29 383.63L516.21 386.80L523.94 382.01L533.83 371.22L537.59 369.34L540.07 367.70L544.89 364.33L547.69 362.12L549.73 360.35L551.81 358.57L553.14 357.38L560.51 350.49L562.01 349.08L562.85 348.26L569.18 341.35L573.96 336.43L576.09 334.32L582.23 328.75L582.96 328.09L583.59 327.60L584.20 327.12L585.53 326.08L584.40 324.91L581.24 321.57L577.92 318.07L576.54 316.61L574.11 314.04L571.17 310.93L567.05 306.58L565.87 305.42L564.69 304.26L563.79 303.64L562.86 302.74L562.37 301.88L561.92 301.10L560.79 300.39L560.23 299.85L558.63 298.64L554.99 296.41L553.99 294.29L553.58 291.37L552.15 288.86L549.06 283.41L545.94 277.90L542.15 271.21L540.03 267.48L537.47 262.96L534.54 255.85L534.21 255.06L531.01 247.31L530.45 245.97L529.90 245.10L529.34 244.23L528.95 243.64L528.70 242.88L526.80 237.29L526.15 235.36L523.71 236.18L522.82 236.32L521.55 236.53L519.56 236.82L518.17 237.03L515.33 235.24L513.21 232.66L511.14 229.35L508.71 227.87L508.27 227.23L507.00 225.33L506.02 224.06L505.55 223.39L504.92 223.02L503.68 222.79L502.49 223.20L501.49 224.18L499.37 226.91L497.88 228.71L496.73 230.09L494.50 232.41L492.91 234.32L491.45 237.20L490.54 238.95L490.16 239.64L489.76 240.38L488.94 240.99L488.25 241.50L486.65 242.35L485.58 242.75L484.46 243.08L483.01 243.66L481.92 244.40L479.50 250.22L478.98 251.45L477.40 255.45L476.69 257.03L475.43 257.71L474.09 257.65L473.35 257.61L469.47 255.91L466.46 254.24L465.96 253.64L466.21 247.84L465.93 246.10L467.23 245.47L467.80 244.91L468.68 243.58L469.55 242.11L470.35 241.18L470.99 240.46L472.44 239.03L472.06 237.97L471.78 237.19L470.83 235.13L469.58 232.45L467.51 227.95L466.83 213.46L466.50 206.44L466.06 197.08L465.96 195.00L466.63 165.32L468.38 141.11L470.25 126.87L469.42 127.68L464.40 132.33L456.53 140.21L449.75 147.83L449.04 148.63L442.94 153.45L436.00 156.21L434.92 156.63L427.41 161.17L412.98 164.13L406.21 164.15L401.56 165.85L395.00 168.40L390.48 172.23L389.83 172.81L380.93 183.97L379.59 188.01L375.80 191.25L372.29 193.40L367.28 194.49L363.35 194.95L362.41 194.61L360.98 194.13L359.55 193.64L358.15 193.44L356.75 193.24L356.07 193.17L354.88 193.21L354.17 193.28L352.87 193.69L352.08 194.31L351.39 194.88L349.96 195.84L348.51 196.42L347.62 197.13L346.46 198.71L346.10 199.40L345.16 200.38L344.46 201.43L343.75 202.48L343.24 203.40L342.72 204.34L341.73 205.90L340.87 207.20L339.96 208.64L338.86 210.29L338.40 211.30L337.95 212.30L337.80 213.14L338.01 214.39L338.03 216.18L337.68 217.17L337.40 217.88L337.00 218.95L336.59 220.01L336.25 221.00L336.34 221.83L336.65 222.88L337.03 223.50L337.41 224.13L337.82 224.98L337.91 225.73L337.59 226.57L336.98 227.31L336.47 227.82L335.83 228.19L334.56 228.94L334.20 229.63L333.70 230.57L332.60 231.76L332.01 232.41L331.39 233.51L331.03 234.13L330.45 235.05L330.01 235.97L329.33 236.91L328.71 237.29L327.53 237.58L327.38 238.51L327.31 239.23L327.43 240.46L328.53 240.99L328.55 241.88L328.48 243.12L328.48 243.82L328.45 244.71L328.48 245.76L328.50 246.99L328.51 248.00L328.47 248.87L328.46 249.65L328.29 250.62L328.04 251.93L327.85 253.93L329.03 254.67L330.57 256.15L331.07 257.85L331.31 260.42L331.29 261.27L331.27 262.12L331.27 264.00L331.29 264.79L331.31 265.56L331.23 266.34L330.99 268.94L330.61 270.31L330.42 271.01L330.09 272.25L329.76 273.24L329.25 275.63L328.97 278.14L328.97 279.16L328.99 280.25L329.52 282.61L330.14 284.78L330.99 287.70L331.63 291.52L331.84 294.58L331.91 295.55L332.52 299.85L332.77 304.61L332.63 305.59L332.47 307.40L331.85 315.53L331.57 319.18L331.30 322.74L331.13 325.02L330.97 327.05Z" data-ward="4" /></svg>