<svg viewBox="0 0 1000.00 623.06" xmlns="http://www.w3.org/2000/svg"><style>.ward { fill: #e2e8f0; stroke: #fff; stroke-width: 0.5px; } .ward:hover { fill: #cbd5e1; }</style><path id="ward-21" class="ward" d="M575.47 282.19L561.94 282.59L549.67 282.47L538.88 283.11L529.71 283.71L520.37 284.74L513.10 285.88L508.86 288.65L505.69 289.01L504.24 295.97L501.58 305.91L500.87 314.21L504.24 321.65L513.25 333.57L527.66 350.84L533.63 357.44L537.08 361.51L541.40 366.39L548.53 374.56L554.10 381.00L559.93 388.62L563.02 394.25L563.63 395.34L564.48 397.51L568.42 407.47L573.15 419.45L575.27 424.82L576.31 426.86L578.84 425.27L583.32 423.83L588.55 422.58L590.87 422.01L593.94 421.25L601.44 420.13L605.51 420.40L608.53 420.69L611.95 421.54L613.25 420.48L615.27 418.40L616.85 417.35L618.55 415.67L618.96 413.50L620.62 411.09L624.01 406.62L624.88 405.77L628.03 402.58L631.13 399.82L643.59 388.68L657.29 375.79L662.63 372.78L661.96 370.64L661.65 369.42L660.89 367.57L660.28 365.59L659.57 363.49L658.99 361.43L657.34 359.01L656.31 357.73L654.80 353.24L653.25 347.51L652.53 344.03L651.24 341.92L648.66 341.81L646.37 332.45L645.21 327.80L644.13 319.15L634.58 319.93L618.75 321.22L617.29 320.41L616.53 315.92L615.78 311.46L615.04 306.41L610.00 307.22L609.18 311.28L602.99 311.07L599.46 308.79L590.78 305.04L582.15 304.50L572.97 302.94L573.35 300.00L576.05 298.36L577.64 297.39L577.48 290.82L577.10 285.88L575.47 282.19Z" data-ward="21" /><path id="ward-19" class="ward" d="M700.58 481.47L700.46 479.37L700.03 476.90L699.23 474.35L698.04 470.68L697.75 468.13L697.55 466.16L697.52 464.17L697.68 460.43L698.95 456.00L701.75 452.45L703.92 449.33L688.37 440.53L689.92 434.75L690.51 431.49L689.81 423.75L689.10 416.00L688.64 414.15L680.20 415.34L678.03 409.54L676.48 404.27L675.83 399.93L675.91 394.72L675.62 388.39L674.45 388.54L672.24 388.83L667.09 389.49L665.39 390.03L659.06 392.89L654.59 395.80L650.23 398.63L648.64 399.67L644.49 402.43L642.29 403.89L633.82 411.46L626.41 417.61L622.04 419.65L619.34 420.12L613.25 420.48L611.95 421.54L610.78 422.53L611.29 423.75L612.68 425.65L614.14 427.34L616.65 429.86L620.45 433.82L621.54 435.04L627.27 441.39L632.59 445.77L637.65 449.57L637.00 453.94L636.53 459.13L636.02 465.14L635.76 468.09L635.51 471.04L634.83 477.29L634.59 481.59L632.93 481.73L628.35 481.83L624.21 481.83L620.96 482.00L619.43 482.82L618.11 483.12L615.66 483.26L612.27 483.87L611.84 485.94L612.07 490.11L613.56 494.39L613.42 499.47L614.03 500.87L614.27 502.80L611.69 507.50L614.62 508.15L616.90 508.67L620.55 509.36L624.69 508.83L626.87 508.55L628.32 508.92L634.85 510.29L641.75 511.43L644.60 510.96L648.00 512.11L645.93 517.99L648.43 518.47L650.35 518.78L653.09 518.65L656.08 518.34L658.11 518.81L659.67 519.60L660.75 522.58L666.74 521.88L669.86 521.85L673.58 522.18L677.08 523.33L679.20 524.54L680.89 524.21L681.02 522.01L681.15 520.74L680.59 519.48L678.27 514.47L675.83 511.59L673.15 509.17L670.75 507.02L669.38 504.60L669.44 501.19L669.75 497.40L669.92 495.13L670.05 493.85L670.24 492.18L670.43 490.98L671.58 489.45L672.70 488.65L674.71 488.65L676.47 488.82L676.78 491.93L677.34 495.15L678.58 498.23L679.54 500.80L682.43 503.73L684.97 503.23L686.98 505.29L688.59 504.63L691.55 503.37L694.87 502.25L694.80 497.03L694.88 494.16L694.91 490.93L694.91 489.49L694.91 487.76L694.20 484.04L693.00 481.32L694.69 481.14L698.44 481.54L700.58 481.47Z" data-ward="19" /><path id="ward-10" class="ward" d="M784.11 212.61L778.87 212.98L770.29 214.31L768.06 214.71L763.25 215.56L761.59 215.84L760.04 214.27L757.41 214.95L753.46 216.21L748.76 217.31L743.63 218.41L740.09 219.44L738.38 219.80L731.91 220.22L728.01 220.33L727.05 222.58L729.87 224.21L739.01 229.69L737.89 232.20L735.16 238.30L739.29 244.60L744.50 247.74L745.31 249.28L745.96 250.51L746.07 253.93L743.96 255.13L744.20 269.25L744.93 274.25L738.81 289.38L737.14 293.29L736.36 295.13L735.70 301.21L736.68 306.83L737.50 311.58L736.55 318.06L734.84 329.71L732.51 333.84L731.04 336.44L721.97 340.08L714.89 340.06L707.81 340.04L704.82 340.03L704.98 351.81L703.29 353.40L701.59 354.98L698.86 357.55L690.98 364.94L680.88 373.63L673.58 377.32L665.69 381.31L664.28 377.06L663.79 375.67L662.63 372.78L657.29 375.79L643.59 388.68L631.13 399.82L628.03 402.58L624.88 405.77L624.01 406.62L620.62 411.09L618.96 413.50L618.55 415.67L616.85 417.35L615.27 418.40L613.25 420.48L619.34 420.12L622.04 419.65L626.41 417.61L633.82 411.46L642.29 403.89L644.49 402.43L648.64 399.67L650.23 398.63L654.59 395.80L659.06 392.89L665.39 390.03L667.09 389.49L672.24 388.83L674.45 388.54L675.62 388.39L677.26 388.45L681.44 388.14L683.87 387.93L691.15 388.14L698.12 388.69L699.89 389.08L710.30 390.98L715.03 390.00L722.09 388.53L724.11 387.58L730.83 384.40L735.17 376.71L736.21 373.30L739.46 362.56L741.78 354.90L744.72 353.54L764.15 349.58L772.67 345.45L775.77 343.77L783.53 340.84L790.17 337.80L795.74 335.25L797.27 334.39L798.42 333.75L801.77 331.88L805.65 331.51L806.82 331.39L810.18 331.72L813.67 333.87L813.72 331.88L808.87 320.14L807.63 317.13L802.02 303.40L790.49 288.05L785.22 274.33L785.33 272.88L786.69 254.94L784.66 238.01L785.34 233.18L790.25 224.94L789.12 216.90L786.98 217.22L785.33 217.46L784.71 216.12L784.11 212.61Z" data-ward="10" /><path id="ward-25" class="ward" d="M449.69 428.98L451.42 426.04L451.54 424.61L451.67 423.05L447.02 416.48L447.08 414.50L447.19 410.54L442.82 410.85L439.51 411.68L438.04 411.82L435.35 413.99L430.75 414.95L427.29 416.00L425.75 416.53L424.58 417.27L423.06 418.33L423.00 421.72L420.45 423.68L417.49 429.92L412.32 420.46L411.07 418.18L410.20 416.59L408.72 413.87L407.84 414.89L406.60 416.65L403.92 420.45L397.06 430.19L393.17 435.54L391.05 437.89L388.90 439.92L382.28 446.17L376.51 440.99L375.35 437.87L368.29 435.71L363.77 434.77L360.77 434.15L357.77 433.97L353.57 433.72L342.53 432.96L340.76 429.89L338.24 428.81L319.78 414.48L317.58 412.54L315.41 412.44L312.43 412.10L307.76 411.49L302.25 410.64L300.25 410.46L295.91 411.44L293.88 411.64L291.91 411.45L289.06 412.02L286.17 412.77L283.35 413.59L278.65 414.38L278.87 418.68L279.19 419.86L281.26 419.80L281.78 432.96L282.60 436.60L284.66 436.65L286.83 438.88L287.51 441.37L288.00 444.82L288.07 446.04L288.38 451.42L289.25 452.85L290.31 455.43L283.03 459.53L281.53 460.91L279.29 462.95L279.80 464.28L278.80 465.58L280.52 466.98L280.75 469.66L280.18 472.22L281.20 474.31L282.83 476.24L284.40 478.59L286.17 482.78L285.99 485.64L284.80 488.98L282.25 493.30L283.96 495.60L284.65 498.19L284.94 500.50L285.08 503.04L286.50 502.26L288.06 501.45L289.20 500.90L290.97 500.15L293.09 499.26L295.51 498.30L297.94 497.35L300.37 498.26L305.11 496.41L310.36 494.37L310.05 492.06L312.19 490.89L313.42 490.14L315.09 489.17L316.77 488.28L318.51 487.44L321.05 486.39L322.34 485.89L324.39 485.14L325.53 484.72L327.61 483.83L329.02 483.14L336.06 479.09L337.34 478.23L341.12 475.14L342.27 474.32L343.45 473.55L344.65 472.81L347.32 471.16L349.97 469.50L351.82 468.38L353.69 467.31L355.26 466.53L357.84 465.07L359.88 463.57L361.51 462.16L362.70 461.11L363.73 460.39L364.80 459.93L366.91 459.28L368.89 458.52L370.66 457.70L372.43 456.75L373.47 456.16L375.24 455.15L377.60 453.72L379.10 452.82L381.57 451.79L385.05 451.24L388.21 450.82L392.27 451.15L394.76 453.24L397.86 453.98L399.45 454.36L405.91 455.89L411.44 456.89L413.34 457.92L415.26 458.96L419.60 461.17L420.88 461.02L422.14 460.78L423.39 460.46L424.61 460.06L426.08 459.55L429.07 458.51L434.87 456.15L436.47 455.85L437.77 455.49L440.67 454.70L443.97 453.79L442.37 447.59L441.30 443.41L442.25 440.10L444.26 437.62L445.61 435.95L449.69 428.98Z" data-ward="25" /><path id="ward-28" class="ward" d="M83.71 400.53L85.10 402.79L85.96 404.18L87.53 404.34L89.26 404.48L91.86 404.70L93.97 404.76L95.31 404.80L96.94 404.85L98.42 407.55L98.62 408.97L99.28 413.68L99.46 414.93L100.76 416.15L102.26 417.53L103.43 418.63L105.59 420.63L105.13 423.40L104.93 424.60L104.44 426.47L103.96 428.34L103.55 429.59L102.97 431.34L101.42 433.45L100.07 435.67L99.40 436.76L98.78 438.47L97.33 438.58L96.70 441.67L96.39 443.17L94.55 443.62L92.70 444.07L88.96 445.32L87.57 445.79L86.20 446.25L86.84 449.39L88.83 453.56L89.66 455.62L90.54 456.63L92.29 459.13L93.47 460.80L94.98 462.77L95.78 463.81L96.50 465.10L98.15 467.83L98.62 471.75L98.89 473.34L99.20 475.11L98.43 481.38L97.98 485.14L97.79 486.68L97.53 488.86L95.90 490.15L94.49 491.28L92.96 492.56L93.48 493.98L93.91 495.15L94.50 496.76L94.38 498.34L94.29 500.43L94.39 501.97L94.47 503.20L94.56 504.66L95.67 506.65L95.80 509.33L95.77 510.57L94.59 511.83L93.40 513.10L91.67 512.75L91.71 515.09L91.75 517.47L91.79 519.86L90.02 521.03L88.59 522.50L88.01 523.76L87.80 525.29L87.41 526.76L84.87 527.11L84.45 531.21L84.31 532.59L84.14 534.23L86.09 536.23L87.11 537.28L87.98 540.75L88.99 544.80L89.22 546.25L89.87 550.35L87.73 552.95L84.18 553.99L82.19 554.57L80.82 554.75L78.38 554.60L76.87 554.50L75.25 554.40L72.59 554.23L70.00 554.07L70.55 557.67L69.05 559.13L69.71 560.81L70.36 562.45L72.24 564.93L71.78 566.92L71.14 568.27L72.76 569.66L72.59 570.83L72.20 573.56L73.62 574.20L75.05 573.98L77.02 573.66L81.26 572.80L83.68 572.37L84.95 572.15L89.45 571.44L90.77 571.23L92.57 570.80L95.52 570.46L96.98 570.44L98.45 570.42L99.83 570.00L101.81 569.40L103.75 568.98L105.54 568.20L107.34 567.42L109.17 566.74L113.21 565.25L115.81 564.07L117.09 563.48L118.39 563.08L119.51 562.01L120.80 561.71L122.53 560.62L124.42 560.02L126.29 559.33L128.17 558.64L129.92 558.00L131.71 557.47L133.50 557.02L136.43 556.53L139.48 556.07L141.84 555.84L143.06 555.83L144.54 555.79L146.01 555.79L149.63 555.75L151.88 555.75L154.31 555.74L157.21 555.69L159.54 555.65L160.86 555.61L162.66 555.56L165.04 555.56L166.30 555.55L168.20 555.55L170.60 555.55L170.57 553.20L170.13 548.65L169.95 546.72L169.19 544.12L168.74 541.95L169.30 540.84L168.07 538.81L167.23 536.57L166.51 534.21L165.79 528.99L165.43 526.83L164.86 524.01L164.63 520.45L157.08 517.25L156.78 514.90L157.62 511.32L155.37 508.40L153.82 506.58L153.55 503.33L153.35 500.91L152.43 498.64L151.95 495.83L152.63 494.45L152.81 492.51L152.70 491.03L150.61 489.41L151.61 486.10L140.48 490.31L133.56 486.70L130.84 482.75L128.76 476.01L129.71 466.89L130.05 462.54L130.13 459.98L129.99 456.57L130.13 453.43L128.43 446.11L128.01 440.46L128.27 435.46L129.22 432.47L133.02 428.67L134.56 425.70L136.74 421.48L138.93 414.76L136.73 414.62L133.88 414.43L132.34 413.40L130.35 410.51L128.56 409.16L125.89 407.58L122.78 405.22L120.29 402.40L117.81 401.11L114.75 400.04L112.32 399.03L110.21 397.79L107.86 395.88L106.39 394.57L104.70 393.12L102.77 391.86L99.17 391.93L96.57 391.68L91.17 388.66L88.17 385.99L87.48 384.27L87.01 382.62L86.21 381.07L82.67 377.31L78.65 373.52L74.69 370.51L69.56 378.70L66.37 383.45L67.75 384.50L68.98 385.43L71.35 387.43L76.23 391.57L77.56 392.70L80.28 395.00L81.11 396.33L82.40 398.42L83.71 400.53Z" data-ward="28" /><path id="ward-7" class="ward" d="M536.00 159.59L535.78 158.23L535.07 156.21L534.36 154.20L533.02 153.05L532.11 150.75L529.93 147.74L529.08 146.35L528.18 145.30L527.18 144.15L525.18 142.63L522.22 142.25L520.70 142.55L519.18 142.85L515.23 143.62L513.79 144.86L513.18 147.96L512.26 150.55L512.07 152.36L511.90 153.96L511.02 156.44L509.90 158.21L509.02 159.60L508.38 160.61L507.10 161.33L505.65 162.14L503.08 161.83L501.18 161.61L496.92 161.11L494.24 162.02L492.14 162.72L490.55 163.47L489.23 164.09L489.42 165.52L489.64 167.97L489.96 171.55L490.21 174.30L491.54 189.31L491.89 193.22L492.25 197.24L492.84 203.88L492.46 207.74L491.31 218.44L492.02 219.58L492.33 221.77L493.06 226.82L495.45 235.72L497.56 241.53L501.52 251.14L504.31 257.89L505.22 260.09L507.12 268.94L507.55 278.66L506.49 284.67L505.69 289.01L508.86 288.65L513.10 285.88L520.37 284.74L529.71 283.71L538.88 283.11L549.67 282.47L561.94 282.59L575.47 282.19L577.10 285.88L577.48 290.82L577.64 297.39L576.05 298.36L573.35 300.00L572.97 302.94L582.15 304.50L590.78 305.04L599.46 308.79L602.99 311.07L609.18 311.28L610.00 307.22L615.04 306.41L610.48 280.02L610.70 263.79L608.20 263.30L605.87 263.95L597.40 254.88L595.12 249.73L592.60 244.81L586.65 233.22L586.49 227.63L585.78 222.58L584.05 216.61L581.33 209.83L579.32 206.52L577.42 203.97L578.89 202.17L579.27 198.92L579.04 197.06L578.73 194.52L578.56 190.23L578.60 189.01L573.72 188.57L571.47 188.77L568.95 188.74L568.07 187.91L566.41 186.35L565.95 182.27L562.87 180.65L560.19 180.56L556.85 180.44L553.59 180.33L551.57 180.27L547.26 179.75L544.92 179.46L543.11 178.56L541.59 178.19L539.98 177.16L537.69 175.92L536.52 174.93L535.34 172.78L534.80 170.23L535.38 167.14L535.72 165.30L536.15 164.02L536.53 162.89L536.00 159.59Z" data-ward="7" /><path id="ward-17" class="ward" d="M710.30 390.98L699.89 389.08L698.12 388.69L691.15 388.14L683.87 387.93L681.44 388.14L677.26 388.45L675.62 388.39L675.91 394.72L675.83 399.93L676.48 404.27L678.03 409.54L680.20 415.34L688.64 414.15L689.10 416.00L689.81 423.75L690.51 431.49L689.92 434.75L688.37 440.53L703.92 449.33L701.75 452.45L698.95 456.00L697.68 460.43L697.52 464.17L697.55 466.16L697.75 468.13L698.04 470.68L699.23 474.35L700.03 476.90L700.46 479.37L700.58 481.47L698.44 481.54L694.69 481.14L693.00 481.32L694.20 484.04L694.91 487.76L694.91 489.49L694.91 490.93L694.88 494.16L694.80 497.03L694.87 502.25L695.02 503.75L694.67 507.69L697.73 506.85L699.86 505.93L702.99 504.78L704.45 504.54L705.76 504.48L707.05 504.41L708.40 503.84L711.64 502.05L710.42 499.17L714.05 497.49L716.21 496.68L718.92 495.58L721.17 495.06L722.30 496.66L727.08 493.55L730.01 491.75L731.78 493.56L734.66 496.49L739.56 499.24L743.79 501.79L749.60 503.47L755.82 506.74L759.06 510.59L761.68 513.76L763.14 516.84L763.02 520.77L763.57 522.39L766.89 523.09L768.26 523.38L771.68 523.23L772.12 524.59L772.24 526.41L772.37 528.36L773.99 530.22L775.33 530.07L777.56 528.58L779.57 527.90L783.58 526.28L782.58 521.61L783.20 518.67L783.20 515.80L781.98 513.08L780.98 507.46L780.30 504.53L779.54 500.57L779.13 497.77L778.75 495.09L778.40 492.24L777.42 490.04L776.28 485.70L775.06 483.47L773.71 481.88L773.84 479.26L772.64 468.81L769.99 463.41L771.15 457.55L772.50 456.49L775.44 454.16L776.22 451.81L777.63 447.54L779.51 444.50L779.79 442.77L779.65 441.25L779.13 440.09L777.25 437.58L775.27 436.83L773.79 437.12L772.21 437.52L770.11 437.99L765.52 434.75L763.50 434.03L760.47 434.17L758.53 434.64L757.28 434.74L754.04 433.24L751.35 431.03L747.78 427.78L746.22 426.45L744.61 422.62L745.48 419.44L746.82 417.16L747.25 415.43L748.00 413.61L745.14 413.14L741.19 412.14L739.78 411.79L736.83 410.81L735.70 410.43L732.12 409.62L729.69 409.69L728.21 409.73L724.85 409.40L722.24 409.18L718.12 409.35L715.67 410.43L711.77 411.08L711.90 406.62L711.98 403.92L711.06 397.51L709.92 392.14L710.30 390.98Z" data-ward="17" /><path id="ward-4" class="ward" d="M446.57 157.54L445.60 156.88L444.66 156.04L442.97 154.52L440.83 152.61L437.27 149.43L433.97 146.67L431.89 146.07L430.77 146.58L428.56 147.58L426.96 151.95L425.91 154.81L424.78 155.96L423.13 156.34L421.70 157.48L418.94 158.01L416.50 157.51L413.45 156.87L409.55 155.82L407.27 155.01L402.04 153.47L398.86 152.41L394.51 152.25L391.33 151.98L389.23 153.47L385.55 154.01L379.86 157.42L376.92 159.43L373.98 161.25L372.41 161.83L368.53 164.16L367.49 164.78L366.00 164.39L359.12 165.07L356.80 164.25L352.64 162.79L348.74 161.32L345.82 160.57L341.95 162.17L340.03 163.15L332.56 167.82L331.31 168.60L328.42 169.52L323.43 172.10L320.23 173.76L316.19 173.23L311.81 172.66L303.48 167.08L301.64 166.47L295.72 164.05L292.91 162.66L289.60 160.56L281.11 154.49L277.23 153.09L275.75 151.85L267.96 148.99L264.17 150.14L261.62 148.83L259.71 157.72L257.66 161.22L256.72 163.69L254.31 170.08L252.57 174.49L250.74 178.61L250.33 179.92L247.07 190.49L245.68 194.77L245.71 199.83L245.72 201.53L247.15 204.94L250.23 206.02L253.18 207.04L254.69 210.15L255.06 212.03L258.61 213.22L260.23 213.95L260.91 219.52L261.13 226.95L260.72 230.02L274.08 228.17L274.78 233.43L274.56 241.39L277.83 241.44L279.00 241.45L282.79 241.50L284.57 241.52L285.85 241.54L287.26 241.56L289.14 241.58L289.00 240.36L293.89 237.81L293.74 234.36L293.58 230.91L296.93 229.12L303.88 227.39L312.94 226.46L320.71 221.96L322.82 228.31L333.79 223.91L340.15 221.08L344.43 225.16L352.14 225.00L355.18 231.40L359.74 235.20L361.45 236.93L360.88 239.82L358.38 243.02L359.74 249.70L357.35 252.25L359.08 256.54L362.18 257.68L367.15 258.29L368.70 260.69L368.16 262.93L367.61 265.17L373.77 263.93L379.33 263.59L382.75 262.73L385.41 262.67L387.09 262.56L388.29 261.10L390.30 260.55L392.03 259.74L395.62 259.74L400.12 259.20L402.19 259.41L401.37 249.86L399.74 245.46L395.73 242.53L390.46 235.80L395.94 233.68L404.68 229.50L408.43 228.26L412.45 227.88L416.95 227.88L421.89 225.76L423.52 224.40L421.82 219.24L421.29 217.62L422.05 216.39L423.63 213.82L425.11 212.96L426.84 211.95L429.49 211.81L433.94 212.68L442.08 212.68L447.49 212.40L455.22 211.97L459.44 212.11L462.28 211.97L466.59 211.94L470.91 211.92L473.51 212.19L478.07 214.41L482.53 214.68L482.53 216.86L485.35 218.16L488.03 217.20L489.53 219.35L491.31 218.44L492.46 207.74L492.84 203.88L492.25 197.24L491.89 193.22L491.54 189.31L490.21 174.30L489.96 171.55L489.64 167.97L489.42 165.52L489.23 164.09L487.71 164.93L485.55 166.14L475.03 171.61L470.35 174.04L467.23 175.01L465.09 175.67L462.79 175.37L460.89 175.13L458.82 173.23L457.37 172.60L455.47 168.15L455.89 166.63L453.65 164.18L449.27 159.41L446.57 157.54Z" data-ward="4" /><path id="ward-8" class="ward" d="M649.83 154.44L648.15 156.89L647.32 158.10L645.83 160.26L642.69 159.09L642.41 160.69L642.08 162.66L641.66 165.93L641.34 168.47L641.33 173.09L641.32 176.01L641.31 178.49L637.98 178.84L633.09 179.34L630.61 179.60L627.89 178.82L626.02 177.15L624.07 178.51L622.74 179.24L620.90 179.32L619.14 179.67L617.80 180.01L615.82 180.52L612.58 181.66L610.89 182.57L609.28 183.43L607.47 184.94L606.11 187.52L602.71 192.55L602.61 192.55L600.04 192.14L597.35 191.70L591.59 189.44L585.59 186.89L582.17 186.40L580.58 186.47L580.28 186.49L578.67 186.81L578.60 189.01L578.56 190.23L578.73 194.52L579.04 197.06L579.27 198.92L578.89 202.17L577.42 203.97L579.32 206.52L581.33 209.83L584.05 216.61L585.78 222.58L586.49 227.63L586.65 233.22L592.60 244.81L595.12 249.73L597.40 254.88L605.87 263.95L608.20 263.30L610.70 263.79L615.68 261.83L618.53 260.66L618.64 256.84L619.05 251.78L619.16 250.49L620.87 242.75L622.50 233.58L624.64 231.11L625.50 229.48L626.24 228.07L626.91 227.09L628.55 224.70L631.13 221.61L632.65 221.14L636.28 221.47L636.58 225.65L636.42 227.11L636.04 230.59L636.42 234.88L637.07 237.51L638.29 239.41L642.36 244.05L640.95 251.81L643.30 256.82L644.54 258.88L649.78 257.49L652.20 256.83L656.50 255.68L659.07 254.53L661.26 253.52L666.03 251.85L667.84 251.25L674.53 249.11L675.91 251.24L682.97 251.24L683.95 253.69L685.59 254.74L685.97 256.88L685.80 260.57L688.81 260.44L689.71 259.09L690.51 258.07L691.68 258.40L693.11 258.86L694.34 257.14L695.67 255.37L696.73 253.89L698.82 254.23L700.96 255.38L704.82 256.35L707.21 256.78L708.94 256.78L711.09 256.35L712.54 255.39L714.34 244.98L711.47 242.29L710.18 237.20L709.79 235.66L709.24 233.47L719.94 233.66L732.12 237.07L735.16 238.30L737.89 232.20L739.01 229.69L729.87 224.21L727.05 222.58L728.01 220.33L731.91 220.22L732.11 217.84L730.75 214.68L730.07 213.10L729.18 210.46L728.50 209.09L726.41 209.21L723.87 210.31L720.48 211.84L716.18 212.99L714.20 212.57L711.67 211.18L706.73 208.56L702.85 206.51L699.93 204.15L698.06 202.42L695.62 202.80L692.66 204.05L689.08 204.40L687.27 204.70L686.61 202.23L685.94 198.95L688.16 196.58L688.92 194.98L688.41 193.76L687.19 190.99L686.45 189.67L686.43 187.71L686.02 183.99L686.20 182.12L686.91 174.57L686.47 168.79L686.59 165.26L688.56 156.89L687.21 156.79L686.00 156.69L677.91 156.05L675.95 155.93L670.73 155.72L669.11 155.56L666.50 155.46L664.30 155.38L662.94 155.33L661.19 155.26L657.00 155.02L654.99 154.91L652.71 155.31L649.83 154.44Z" data-ward="8" /><path id="ward-5" class="ward" d="M429.49 211.81L426.84 211.95L425.11 212.96L423.63 213.82L422.05 216.39L421.29 217.62L421.82 219.24L423.52 224.40L421.89 225.76L416.95 227.88L412.45 227.88L408.43 228.26L404.68 229.50L395.94 233.68L390.46 235.80L395.73 242.53L399.74 245.46L401.37 249.86L402.19 259.41L400.12 259.20L395.62 259.74L392.03 259.74L390.30 260.55L388.29 261.10L387.09 262.56L385.41 262.67L382.75 262.73L379.33 263.59L373.77 263.93L367.61 265.17L370.81 266.91L374.56 273.04L378.74 277.26L381.50 280.04L387.75 285.96L391.87 293.34L391.44 300.45L393.06 303.81L398.49 302.19L409.41 298.72L414.73 298.34L421.62 296.98L423.95 296.54L429.54 295.19L429.49 298.17L430.30 299.15L441.76 293.83L447.89 290.14L447.01 288.93L445.98 287.76L446.01 283.63L441.22 282.31L441.80 278.93L442.51 276.97L446.41 274.67L449.93 273.49L453.16 273.12L457.39 273.38L459.05 273.54L462.74 274.59L465.74 277.46L466.65 278.31L469.39 280.38L471.14 281.97L472.25 282.50L474.90 283.42L478.16 284.09L481.88 283.18L483.67 282.33L483.07 279.32L483.46 275.52L483.77 274.15L484.48 271.63L486.16 265.28L487.41 258.87L488.17 255.34L489.26 251.82L487.30 249.05L485.02 247.31L481.82 246.33L477.69 245.63L475.47 245.63L472.97 246.06L471.23 246.17L468.19 245.46L463.74 244.22L464.42 238.91L463.44 234.66L463.11 232.78L462.71 230.59L460.87 230.26L460.09 229.15L460.08 225.92L459.84 223.90L459.31 221.46L459.28 219.75L459.47 217.67L459.46 216.07L459.40 214.25L459.44 212.11L455.22 211.97L447.49 212.40L442.08 212.68L433.94 212.68L429.49 211.81Z" data-ward="5" /><path id="ward-3" class="ward" d="M340.15 221.08L333.79 223.91L322.82 228.31L320.71 221.96L312.94 226.46L303.88 227.39L296.93 229.12L293.58 230.91L293.74 234.36L293.89 237.81L289.00 240.36L289.14 241.58L286.75 247.66L284.34 252.57L281.30 258.98L277.58 266.80L275.00 271.44L274.05 273.94L274.40 277.71L272.56 279.61L269.35 282.02L273.72 286.91L276.51 290.05L277.85 290.74L281.35 292.31L282.54 293.88L284.18 296.36L286.89 298.17L291.14 301.75L291.71 303.95L292.26 305.41L296.09 314.48L299.02 312.26L300.27 313.81L303.76 319.22L304.74 320.78L306.29 323.13L307.35 324.88L312.30 325.88L318.20 326.07L318.82 332.55L318.67 343.85L319.89 344.97L325.46 343.26L326.41 345.67L331.18 343.66L334.42 342.30L336.34 341.49L340.63 339.59L345.46 338.29L349.69 336.28L355.18 334.05L359.63 331.07L364.73 328.46L368.64 327.54L373.58 325.70L377.49 325.70L382.70 321.73L386.66 320.34L388.48 321.82L390.79 323.70L393.45 327.34L394.29 328.58L396.27 331.48L399.89 335.76L403.15 339.38L404.64 340.78L409.06 342.49L411.53 343.62L414.00 344.59L415.54 345.70L418.74 343.47L421.81 340.65L421.16 338.56L421.32 337.28L422.71 335.60L425.31 332.45L426.80 331.80L429.68 330.28L430.89 329.79L433.73 328.63L436.98 327.60L443.23 328.64L444.42 328.84L445.91 328.65L449.47 329.44L451.36 329.96L454.90 330.93L455.75 326.26L456.09 324.37L455.03 318.28L453.78 310.09L454.03 307.46L452.74 305.20L452.14 304.14L452.83 303.03L454.14 300.70L453.92 297.74L451.64 296.41L451.45 295.02L447.89 290.14L441.76 293.83L430.30 299.15L429.49 298.17L429.54 295.19L423.95 296.54L421.62 296.98L414.73 298.34L409.41 298.72L398.49 302.19L393.06 303.81L391.44 300.45L391.87 293.34L387.75 285.96L381.50 280.04L378.74 277.26L374.56 273.04L370.81 266.91L367.61 265.17L368.16 262.93L368.70 260.69L367.15 258.29L362.18 257.68L359.08 256.54L357.35 252.25L359.74 249.70L358.38 243.02L360.88 239.82L361.45 236.93L359.74 235.20L355.18 231.40L352.14 225.00L344.43 225.16L340.15 221.08Z" data-ward="3" /><path id="ward-1" class="ward" d="M136.43 206.10L127.57 203.70L116.24 200.64L114.64 206.62L113.99 214.30L119.14 232.53L120.21 236.30L120.73 238.16L121.80 240.72L122.30 241.93L118.56 243.06L107.34 243.84L103.87 244.84L100.97 246.77L100.10 251.11L100.34 253.09L104.74 257.98L109.24 266.85L110.68 271.19L113.29 278.01L115.65 280.37L118.15 281.32L119.61 281.32L121.62 282.30L122.27 284.25L121.86 286.91L120.24 292.53L116.22 297.79L110.82 303.60L111.14 306.15L113.51 310.25L116.54 321.03L120.83 329.12L132.02 338.13L133.32 340.13L135.11 341.17L139.07 340.68L143.85 343.61L148.25 346.43L149.66 346.54L152.37 349.96L155.36 352.19L159.70 349.91L163.45 350.61L167.63 353.38L171.21 356.15L176.26 361.36L180.06 366.52L182.74 370.31L183.27 373.06L183.97 375.74L188.04 381.61L190.59 386.22L192.92 391.27L196.18 396.24L209.17 388.95L225.36 379.00L224.04 375.08L222.33 369.10L218.67 369.36L213.31 367.04L212.75 363.27L210.74 357.93L217.38 352.70L210.65 336.47L208.26 335.36L216.62 320.89L224.76 313.13L225.71 308.30L234.35 307.64L240.91 300.64L243.73 297.82L247.15 300.34L251.38 292.78L255.23 290.67L258.65 288.86L261.33 287.41L263.46 286.31L265.20 285.25L268.07 283.15L269.35 282.02L272.56 279.61L274.40 277.71L274.05 273.94L275.00 271.44L277.58 266.80L281.30 258.98L284.34 252.57L286.75 247.66L289.14 241.58L287.26 241.56L285.85 241.54L284.57 241.52L282.79 241.50L279.00 241.45L277.83 241.44L274.56 241.39L274.78 233.43L274.08 228.17L260.72 230.02L261.13 226.95L260.91 219.52L260.23 213.95L258.61 213.22L255.06 212.03L254.69 210.15L253.18 207.04L250.23 206.02L247.15 204.94L245.72 201.53L243.74 203.80L240.71 204.83L237.86 205.80L234.27 205.92L230.19 206.01L224.99 206.09L220.43 206.08L218.59 206.77L212.14 206.77L210.43 207.78L202.64 208.53L199.56 208.82L195.55 208.64L193.17 208.28L181.52 206.05L174.50 206.24L171.62 206.19L163.65 206.97L154.10 206.95L150.00 207.36L143.51 208.01L136.43 206.10Z" data-ward="1" /><path id="ward-18" class="ward" d="M679.54 500.80L678.58 498.23L677.34 495.15L676.78 491.93L676.47 488.82L674.71 488.65L672.70 488.65L671.58 489.45L670.43 490.98L670.24 492.18L670.05 493.85L669.92 495.13L669.75 497.40L669.44 501.19L669.38 504.60L670.75 507.02L673.15 509.17L675.83 511.59L678.27 514.47L680.59 519.48L681.15 520.74L681.02 522.01L680.89 524.21L679.20 524.54L677.08 523.33L673.58 522.18L669.86 521.85L666.74 521.88L660.75 522.58L659.67 519.60L658.11 518.81L656.08 518.34L653.09 518.65L650.35 518.78L648.43 518.47L645.93 517.99L645.42 519.44L640.58 518.93L634.94 520.38L632.90 520.87L630.42 521.75L631.17 528.53L631.64 536.20L632.32 543.33L632.45 548.49L627.84 547.33L627.98 551.47L627.91 555.88L627.50 560.63L624.38 560.42L621.40 561.31L620.24 563.14L618.48 563.75L616.65 563.41L614.20 563.27L609.79 563.75L604.77 564.50L598.60 565.31L595.03 566.99L596.12 569.22L597.14 571.30L597.33 572.51L597.53 573.75L597.76 575.23L597.67 576.78L597.53 579.10L597.40 581.11L599.37 581.05L604.50 580.90L606.70 581.25L608.87 581.59L609.21 584.69L608.65 586.75L611.23 586.97L615.34 587.31L620.22 587.71L621.72 587.84L622.83 588.50L626.17 593.24L626.99 596.77L627.63 599.53L628.24 602.53L629.45 602.08L630.42 600.59L632.04 600.67L632.79 602.26L634.90 601.55L636.55 601.01L638.20 600.14L640.79 598.78L642.92 598.00L644.95 597.25L646.35 596.80L648.29 596.22L649.62 593.30L650.15 592.14L652.09 592.48L653.61 592.76L654.37 593.95L655.31 595.43L656.53 595.56L657.81 596.56L658.87 597.39L660.39 598.85L661.68 600.08L663.95 598.24L665.07 597.33L667.22 599.89L668.58 601.52L669.98 603.19L671.67 603.83L673.50 604.71L678.17 594.45L682.84 584.18L683.34 583.07L683.95 581.75L686.61 579.44L688.18 577.14L687.66 574.80L694.31 568.48L694.10 564.14L695.21 562.86L697.14 563.50L699.14 563.46L700.27 562.78L700.64 560.72L701.53 558.44L710.33 551.38L710.06 548.31L712.74 548.45L715.95 547.42L717.99 548.03L720.42 542.80L717.52 543.03L712.80 542.78L711.16 543.00L708.22 543.63L703.61 542.86L702.02 542.69L700.05 542.57L697.81 542.44L695.34 541.79L697.22 538.49L697.62 536.26L698.92 535.37L701.34 533.17L704.17 531.89L708.86 529.64L708.89 527.79L709.84 526.91L711.68 525.14L713.01 523.57L714.86 522.12L717.57 521.55L721.92 520.93L725.42 521.44L730.93 520.30L731.77 518.62L733.75 518.54L737.44 519.16L744.58 518.21L748.18 517.28L748.94 512.49L750.80 511.74L752.77 511.69L754.20 511.22L755.61 510.03L756.89 510.32L757.68 511.26L759.06 510.59L755.82 506.74L749.60 503.47L743.79 501.79L739.56 499.24L734.66 496.49L731.78 493.56L730.01 491.75L727.08 493.55L722.30 496.66L721.17 495.06L718.92 495.58L716.21 496.68L714.05 497.49L710.42 499.17L711.64 502.05L708.40 503.84L707.05 504.41L705.76 504.48L704.45 504.54L702.99 504.78L699.86 505.93L697.73 506.85L694.67 507.69L695.02 503.75L694.87 502.25L691.55 503.37L688.59 504.63L686.98 505.29L684.97 503.23L682.43 503.73L679.54 500.80Z" data-ward="18" /><path id="ward-29" class="ward" d="M115.65 280.37L113.29 278.01L110.68 271.19L109.24 266.85L104.74 257.98L100.34 253.09L100.10 251.11L100.97 246.77L103.87 244.84L107.34 243.84L118.56 243.06L122.30 241.93L121.80 240.72L120.73 238.16L120.21 236.30L119.14 232.53L113.99 214.30L114.64 206.62L116.24 200.64L108.65 197.11L104.55 195.20L102.17 194.55L97.85 193.48L92.34 192.49L87.25 191.38L81.94 190.16L80.73 189.96L71.66 184.81L68.63 183.04L66.90 182.21L63.55 179.91L61.39 176.85L59.22 173.78L56.87 170.58L54.65 167.36L42.78 173.00L42.32 176.46L41.85 179.93L42.36 183.48L42.52 186.08L42.07 189.12L41.57 192.48L41.69 196.95L41.29 198.29L40.76 200.12L40.23 201.95L39.76 203.81L39.29 205.68L38.96 208.61L38.97 214.13L38.88 216.98L38.78 220.12L38.64 222.60L38.57 223.89L38.26 226.89L37.80 231.23L37.63 232.83L37.53 236.16L37.61 237.63L37.70 239.12L38.54 248.22L46.00 252.99L46.39 256.05L46.79 259.11L52.00 259.28L54.41 260.05L56.72 261.47L57.58 263.90L56.18 264.19L52.44 265.27L47.53 272.00L39.46 282.87L33.71 290.81L30.14 295.74L22.48 306.88L22.08 309.64L21.08 313.06L19.43 314.01L17.47 315.62L16.29 316.57L14.82 318.58L10.57 320.70L7.84 321.28L4.71 322.36L2.82 323.02L1.63 323.85L0.00 326.29L0.05 330.79L8.41 345.21L16.06 356.90L21.31 364.92L23.29 368.61L23.92 369.79L29.86 368.12L29.39 370.74L29.93 374.21L33.89 374.04L40.34 373.48L42.37 372.95L44.74 372.30L46.16 371.87L48.38 371.21L52.87 370.38L55.64 371.24L57.80 372.32L58.86 372.94L61.13 374.45L62.91 375.07L62.46 376.54L61.72 378.25L66.37 383.45L69.56 378.70L74.69 370.51L78.65 373.52L82.67 377.31L86.21 381.07L87.01 382.62L87.48 384.27L88.17 385.99L91.17 388.66L96.57 391.68L99.17 391.93L102.77 391.86L104.70 393.12L106.39 394.57L107.86 395.88L110.21 397.79L112.32 399.03L114.75 400.04L117.81 401.11L120.29 402.40L122.78 405.22L125.89 407.58L128.56 409.16L130.35 410.51L132.34 413.40L133.88 414.43L136.73 414.62L138.93 414.76L141.76 414.17L143.89 413.55L149.04 411.26L152.61 409.69L159.99 409.21L161.18 413.17L169.87 411.57L170.60 409.76L171.74 408.97L171.37 405.79L172.10 404.00L173.15 401.24L173.83 399.49L177.17 399.54L183.26 400.74L193.32 397.21L196.18 396.24L192.92 391.27L190.59 386.22L188.04 381.61L183.97 375.74L183.27 373.06L182.74 370.31L180.06 366.52L176.26 361.36L171.21 356.15L167.63 353.38L163.45 350.61L159.70 349.91L155.36 352.19L152.37 349.96L149.66 346.54L148.25 346.43L143.85 343.61L139.07 340.68L135.11 341.17L133.32 340.13L132.02 338.13L120.83 329.12L116.54 321.03L113.51 310.25L111.14 306.15L110.82 303.60L116.22 297.79L120.24 292.53L121.86 286.91L122.27 284.25L121.62 282.30L119.61 281.32L118.15 281.32L115.65 280.37Z" data-ward="29" /><path id="ward-11" class="ward" d="M935.39 164.93L951.52 133.66L953.79 129.26L961.48 114.35L965.76 106.06L961.77 107.63L954.69 110.41L953.30 110.73L950.03 111.48L945.78 112.47L943.14 114.02L937.86 117.14L931.04 125.41L923.64 134.40L919.18 141.13L912.02 147.86L904.74 155.79L896.38 164.36L883.26 170.89L881.46 168.60L880.68 167.69L879.43 166.35L877.84 165.17L875.99 164.13L874.16 163.50L872.23 162.36L871.01 160.18L870.53 158.89L869.30 157.68L868.14 156.61L866.44 155.12L865.48 154.38L864.53 153.61L863.48 152.76L862.06 151.58L860.45 149.90L859.36 148.47L858.31 146.95L857.25 145.11L855.66 142.66L854.02 141.75L850.68 142.06L849.07 142.11L847.52 142.00L846.21 141.57L844.83 140.32L844.21 139.33L842.92 137.16L842.28 135.99L840.98 134.92L838.50 133.81L836.37 133.07L833.59 132.10L830.65 131.08L828.07 130.11L826.60 129.61L825.30 129.28L821.41 128.26L820.12 127.95L817.05 126.80L816.48 128.58L814.53 133.40L813.52 136.86L812.83 139.19L810.90 139.64L809.28 140.01L807.61 140.82L806.78 141.77L804.07 144.88L802.43 147.58L800.20 151.25L799.24 152.89L797.72 155.46L796.38 157.73L795.94 159.15L795.32 161.15L794.69 163.17L792.61 169.89L790.52 169.86L788.33 169.82L783.64 170.04L781.96 170.35L779.95 170.53L776.10 170.46L774.76 170.44L772.52 170.51L770.46 170.23L766.95 170.18L765.26 169.98L763.99 169.81L762.61 169.84L760.66 169.87L759.30 169.89L756.64 169.80L755.36 169.75L753.81 169.69L752.21 169.64L749.59 169.54L747.68 169.47L742.64 172.94L740.14 173.91L730.67 173.77L727.05 172.10L724.17 170.76L722.50 169.99L718.89 168.38L717.03 167.56L714.63 166.49L712.66 165.61L708.65 163.84L706.49 161.61L705.51 160.25L704.39 158.37L701.79 154.04L699.73 151.69L697.13 153.20L695.91 154.07L692.36 156.47L691.09 156.84L690.02 157.35L688.56 156.89L686.59 165.26L686.47 168.79L686.91 174.57L686.20 182.12L686.02 183.99L686.43 187.71L686.45 189.67L687.19 190.99L688.41 193.76L688.92 194.98L688.16 196.58L685.94 198.95L686.61 202.23L687.27 204.70L689.08 204.40L692.66 204.05L695.62 202.80L698.06 202.42L699.93 204.15L702.85 206.51L706.73 208.56L711.67 211.18L714.20 212.57L716.18 212.99L720.48 211.84L723.87 210.31L726.41 209.21L728.50 209.09L729.18 210.46L730.07 213.10L730.75 214.68L732.11 217.84L731.91 220.22L738.38 219.80L740.09 219.44L743.63 218.41L748.76 217.31L753.46 216.21L757.41 214.95L760.04 214.27L761.59 215.84L763.25 215.56L768.06 214.71L770.29 214.31L778.87 212.98L784.11 212.61L784.71 216.12L785.33 217.46L786.98 217.22L789.12 216.90L788.76 214.74L787.71 208.45L782.43 202.23L783.10 195.59L781.49 190.15L790.51 187.82L793.19 187.12L802.87 189.40L807.22 192.33L843.27 196.80L852.55 199.45L843.19 217.81L847.48 233.21L860.83 257.28L862.61 260.48L862.98 262.26L877.50 249.71L886.00 239.39L888.81 235.97L901.54 222.11L911.46 211.31L935.39 164.93Z" data-ward="11" /><path id="ward-15" class="ward" d="M822.86 413.32L823.17 411.37L822.12 410.15L819.91 409.01L815.61 409.78L809.63 411.69L806.34 413.05L804.34 413.65L801.63 414.29L798.66 414.90L796.54 416.12L795.06 415.56L792.87 413.58L791.62 412.98L790.40 412.96L788.63 413.23L780.55 414.45L777.77 414.71L775.37 415.01L773.20 415.18L771.60 414.13L770.68 412.98L767.22 412.67L765.10 412.99L763.35 413.22L761.71 413.57L760.19 413.58L758.88 413.57L757.67 413.73L756.18 413.87L754.71 413.59L753.46 413.20L752.04 412.75L749.56 413.15L748.00 413.61L747.25 415.43L746.82 417.16L745.48 419.44L744.61 422.62L746.22 426.45L747.78 427.78L751.35 431.03L754.04 433.24L757.28 434.74L758.53 434.64L760.47 434.17L763.50 434.03L765.52 434.75L770.11 437.99L772.21 437.52L773.79 437.12L775.27 436.83L777.25 437.58L779.13 440.09L779.65 441.25L779.79 442.77L779.51 444.50L777.63 447.54L776.22 451.81L775.44 454.16L772.50 456.49L771.15 457.55L769.99 463.41L772.64 468.81L773.84 479.26L773.71 481.88L775.06 483.47L776.28 485.70L777.42 490.04L778.40 492.24L778.75 495.09L779.13 497.77L779.54 500.57L780.30 504.53L780.98 507.46L781.98 513.08L783.20 515.80L783.20 518.67L782.58 521.61L783.58 526.28L786.57 528.06L790.78 527.71L795.96 526.73L800.63 524.62L803.70 523.80L808.04 523.10L813.22 521.52L824.76 518.00L827.93 517.43L832.85 517.10L833.93 514.28L836.08 513.46L840.39 512.11L843.46 511.78L846.88 511.48L848.37 510.50L848.53 511.97L850.76 513.06L853.28 512.92L855.16 513.87L857.03 513.84L871.71 510.37L870.49 507.49L887.21 496.06L888.81 493.24L889.65 486.18L894.97 479.86L900.05 471.69L903.33 466.43L905.18 464.34L907.43 464.53L907.17 468.59L908.75 468.95L913.18 468.86L916.42 468.79L919.67 468.71L921.16 468.77L928.02 467.76L927.42 464.66L926.47 459.72L925.29 455.02L924.70 452.67L924.10 450.31L922.89 445.50L920.54 445.65L919.14 445.72L915.85 445.90L907.57 446.34L905.36 447.15L904.81 448.24L904.48 449.87L904.15 451.50L903.06 454.50L898.29 452.63L897.14 452.18L891.54 452.85L886.78 453.79L884.04 454.25L883.56 455.32L882.02 457.60L879.54 457.49L876.34 456.30L871.42 454.56L869.45 453.86L867.80 452.83L864.46 452.25L861.17 452.31L855.14 452.49L850.01 451.99L844.33 450.94L841.82 450.35L839.32 449.76L832.25 448.93L830.55 448.76L828.68 448.58L826.30 446.54L824.87 443.56L824.39 440.68L823.81 435.90L824.34 431.29L824.73 427.91L823.99 421.55L822.86 417.65L822.86 413.32Z" data-ward="15" /><path id="ward-23" class="ward" d="M414.00 344.59L411.53 343.62L409.06 342.49L404.64 340.78L403.15 339.38L399.89 335.76L396.27 331.48L394.29 328.58L393.45 327.34L390.79 323.70L388.48 321.82L386.66 320.34L382.70 321.73L377.49 325.70L373.58 325.70L368.64 327.54L364.73 328.46L359.63 331.07L355.18 334.05L349.69 336.28L345.46 338.29L340.63 339.59L336.34 341.49L338.06 345.88L339.24 349.17L339.92 352.28L340.83 355.80L341.46 358.18L341.52 362.87L341.67 368.28L342.19 370.37L342.58 373.11L342.98 375.04L345.57 378.23L346.71 380.43L347.28 381.97L349.39 387.42L351.51 387.31L356.75 385.96L359.48 385.27L360.60 384.23L367.02 381.24L370.33 380.50L373.21 379.64L378.62 377.77L381.06 377.28L385.03 377.20L386.20 379.71L389.27 380.17L389.37 381.99L388.99 386.76L389.67 393.50L390.73 397.54L391.19 399.30L392.11 404.51L394.07 408.18L395.97 412.03L396.97 413.06L398.36 413.93L399.63 415.48L400.91 417.19L403.92 420.45L406.60 416.65L407.84 414.89L408.72 413.87L410.75 411.07L413.25 407.61L414.67 405.66L417.55 398.49L418.28 397.27L421.48 391.90L422.57 390.54L425.91 386.76L428.13 383.96L431.50 379.71L436.62 374.41L437.97 372.97L439.18 371.69L440.52 368.76L441.79 366.60L442.98 365.30L444.15 364.54L447.57 362.78L449.60 361.67L452.63 360.21L458.15 357.60L457.85 360.82L457.58 362.95L457.53 366.48L457.53 372.04L457.35 374.37L457.22 377.10L459.09 377.03L461.03 376.95L464.31 377.54L467.06 377.58L467.86 375.03L469.43 368.62L469.19 364.66L470.12 363.90L473.87 363.83L474.24 362.61L478.76 363.16L480.05 363.49L480.33 362.11L480.57 360.46L480.78 358.09L481.88 351.63L482.53 348.13L483.49 343.58L483.93 341.50L484.53 336.67L479.30 338.70L476.93 339.43L473.08 339.65L469.28 338.02L465.15 335.95L463.90 334.97L462.39 333.78L457.07 331.77L454.90 330.93L451.36 329.96L449.47 329.44L445.91 328.65L444.42 328.84L443.23 328.64L436.98 327.60L433.73 328.63L430.89 329.79L429.68 330.28L426.80 331.80L425.31 332.45L422.71 335.60L421.32 337.28L421.16 338.56L421.81 340.65L418.74 343.47L415.54 345.70L414.00 344.59Z" data-ward="23" /><path id="ward-6" class="ward" d="M482.53 216.86L482.53 214.68L478.07 214.41L473.51 212.19L470.91 211.92L466.59 211.94L462.28 211.97L459.44 212.11L459.40 214.25L459.46 216.07L459.47 217.67L459.28 219.75L459.31 221.46L459.84 223.90L460.08 225.92L460.09 229.15L460.87 230.26L462.71 230.59L463.11 232.78L463.44 234.66L464.42 238.91L463.74 244.22L468.19 245.46L471.23 246.17L472.97 246.06L475.47 245.63L477.69 245.63L481.82 246.33L485.02 247.31L487.30 249.05L489.26 251.82L488.17 255.34L487.41 258.87L486.16 265.28L484.48 271.63L483.77 274.15L483.46 275.52L483.07 279.32L483.67 282.33L481.88 283.18L478.16 284.09L474.90 283.42L472.25 282.50L471.14 281.97L469.39 280.38L466.65 278.31L465.74 277.46L462.74 274.59L459.05 273.54L457.39 273.38L453.16 273.12L449.93 273.49L446.41 274.67L442.51 276.97L441.80 278.93L441.22 282.31L446.01 283.63L445.98 287.76L447.01 288.93L447.89 290.14L451.45 295.02L451.64 296.41L453.92 297.74L454.14 300.70L452.83 303.03L452.14 304.14L452.74 305.20L454.03 307.46L453.78 310.09L455.03 318.28L456.09 324.37L455.75 326.26L454.90 330.93L457.07 331.77L462.39 333.78L463.90 334.97L465.15 335.95L469.28 338.02L473.08 339.65L476.93 339.43L479.30 338.70L484.53 336.67L483.93 341.50L483.49 343.58L482.53 348.13L481.88 351.63L480.78 358.09L480.57 360.46L480.33 362.11L480.05 363.49L477.69 373.68L485.62 374.88L493.00 376.45L500.44 377.70L504.29 378.49L505.85 378.92L509.72 380.68L516.72 382.58L520.93 383.38L524.22 384.00L528.67 384.32L534.69 383.67L533.55 378.68L539.62 378.83L545.98 379.00L547.12 382.83L548.94 387.42L550.76 389.48L552.74 392.05L554.88 394.83L556.27 396.49L558.56 396.46L560.58 395.99L563.63 395.34L563.02 394.25L559.93 388.62L554.10 381.00L548.53 374.56L541.40 366.39L537.08 361.51L533.63 357.44L527.66 350.84L513.25 333.57L504.24 321.65L500.87 314.21L501.58 305.91L504.24 295.97L505.69 289.01L506.49 284.67L507.55 278.66L507.12 268.94L505.22 260.09L504.31 257.89L501.52 251.14L497.56 241.53L495.45 235.72L493.06 226.82L492.33 221.77L492.02 219.58L491.31 218.44L489.53 219.35L488.03 217.20L485.35 218.16L482.53 216.86Z" data-ward="6" /><path id="ward-20" class="ward" d="M616.90 508.67L614.62 508.15L611.69 507.50L614.27 502.80L614.03 500.87L613.42 499.47L613.56 494.39L612.07 490.11L611.84 485.94L612.27 483.87L615.66 483.26L618.11 483.12L619.43 482.82L620.96 482.00L624.21 481.83L628.35 481.83L632.93 481.73L634.59 481.59L634.83 477.29L635.51 471.04L635.76 468.09L636.02 465.14L636.53 459.13L637.00 453.94L637.65 449.57L632.59 445.77L627.27 441.39L621.54 435.04L620.45 433.82L616.65 429.86L614.14 427.34L612.68 425.65L611.29 423.75L610.78 422.53L611.95 421.54L608.53 420.69L605.51 420.40L601.44 420.13L593.94 421.25L590.87 422.01L588.55 422.58L583.32 423.83L578.84 425.27L576.31 426.86L576.33 429.65L576.93 432.63L577.57 435.81L577.97 437.61L579.79 438.01L581.17 438.31L588.81 440.26L592.64 440.68L596.98 441.17L597.11 449.21L595.49 455.94L593.08 465.94L593.51 468.92L593.50 472.02L593.49 477.31L591.86 477.75L590.41 477.91L585.09 478.32L585.22 480.40L585.38 482.96L585.58 486.09L585.66 487.41L586.20 490.65L586.55 492.77L586.79 494.23L589.42 496.87L589.49 498.99L589.59 502.19L589.67 505.01L589.72 506.51L589.82 509.62L589.97 512.19L590.05 513.41L590.10 514.66L590.17 516.68L590.00 518.46L589.60 521.93L589.31 524.60L588.83 528.94L588.37 530.90L587.14 532.45L585.62 532.71L584.43 533.24L584.66 534.97L584.88 536.70L585.10 538.83L585.27 540.51L580.26 540.51L577.63 540.51L576.36 540.51L573.74 540.52L572.53 540.62L569.50 541.36L568.00 541.73L565.18 542.89L565.93 546.96L567.02 550.64L567.51 552.27L564.76 553.54L564.72 555.48L563.00 556.28L560.47 557.47L561.21 558.45L562.03 559.55L563.61 561.84L565.96 565.15L567.89 564.97L570.01 564.53L571.69 564.19L573.27 563.87L576.10 564.09L576.95 565.70L577.74 567.20L578.86 569.30L580.50 570.21L586.45 569.34L586.63 567.92L586.81 566.50L592.51 566.30L595.03 566.99L598.60 565.31L604.77 564.50L609.79 563.75L614.20 563.27L616.65 563.41L618.48 563.75L620.24 563.14L621.40 561.31L624.38 560.42L627.50 560.63L627.91 555.88L627.98 551.47L627.84 547.33L632.45 548.49L632.32 543.33L631.64 536.20L631.17 528.53L630.42 521.75L632.90 520.87L634.94 520.38L640.58 518.93L645.42 519.44L645.93 517.99L648.00 512.11L644.60 510.96L641.75 511.43L634.85 510.29L628.32 508.92L626.87 508.55L624.69 508.83L620.55 509.36L616.90 508.67Z" data-ward="20" /><path id="ward-2" class="ward" d="M247.15 300.34L243.73 297.82L240.91 300.64L234.35 307.64L225.71 308.30L224.76 313.13L216.62 320.89L208.26 335.36L210.65 336.47L217.38 352.70L210.74 357.93L212.75 363.27L213.31 367.04L218.67 369.36L222.33 369.10L224.04 375.08L225.36 379.00L209.17 388.95L196.18 396.24L193.32 397.21L183.26 400.74L177.17 399.54L173.83 399.49L173.15 401.24L172.10 404.00L171.37 405.79L171.74 408.97L170.60 409.76L169.87 411.57L161.18 413.17L159.99 409.21L152.61 409.69L149.04 411.26L143.89 413.55L141.76 414.17L138.93 414.76L136.74 421.48L134.56 425.70L133.02 428.67L129.22 432.47L128.27 435.46L128.01 440.46L128.43 446.11L130.13 453.43L131.25 452.95L135.41 451.17L139.53 450.09L143.01 450.06L147.51 448.05L151.10 447.15L155.95 446.67L158.72 444.74L159.75 443.49L168.63 439.12L170.58 437.71L173.27 434.89L174.71 431.66L178.99 429.23L181.55 427.78L182.96 427.61L188.09 424.79L194.33 420.96L202.29 415.81L203.55 415.93L204.86 416.07L206.33 416.17L207.48 416.32L210.62 416.73L214.50 416.89L216.81 417.03L217.56 418.24L218.38 419.55L220.14 420.07L226.31 419.74L231.30 419.55L233.28 420.94L234.43 421.23L236.08 421.64L241.44 422.12L242.81 422.24L246.91 420.47L257.47 417.41L259.20 417.98L259.94 423.79L261.92 430.92L260.42 434.37L260.29 439.23L262.11 440.53L266.69 453.93L268.51 455.80L271.02 458.22L272.60 459.88L273.52 461.40L274.99 463.49L276.72 465.12L278.80 465.58L279.80 464.28L279.29 462.95L281.53 460.91L283.03 459.53L290.31 455.43L289.25 452.85L288.38 451.42L288.07 446.04L288.00 444.82L287.51 441.37L286.83 438.88L284.66 436.65L282.60 436.60L281.78 432.96L281.26 419.80L279.19 419.86L278.87 418.68L278.65 414.38L283.35 413.59L286.17 412.77L289.06 412.02L291.91 411.45L293.88 411.64L295.91 411.44L300.25 410.46L302.25 410.64L307.76 411.49L312.43 412.10L315.41 412.44L317.58 412.54L315.36 410.05L311.72 402.24L299.29 389.61L297.50 386.71L296.20 377.45L295.24 373.59L293.40 366.19L292.65 363.83L288.60 351.10L286.83 347.83L281.02 337.07L277.52 330.20L274.21 320.70L272.46 317.61L271.23 315.44L269.38 310.41L268.32 309.22L256.84 310.44L249.40 308.66L246.33 307.27L245.77 306.02L245.80 304.82L246.23 303.39L246.77 301.64L247.15 300.34Z" data-ward="2" /><path id="ward-13" class="ward" d="M913.92 341.46L913.61 321.05L915.30 312.10L911.24 311.20L909.44 310.82L907.65 310.44L889.01 307.17L883.46 303.58L871.13 294.71L868.73 285.95L867.00 279.61L862.64 263.64L862.98 262.26L862.61 260.48L860.83 257.28L847.48 233.21L843.19 217.81L852.55 199.45L843.27 196.80L807.22 192.33L802.87 189.40L793.19 187.12L790.51 187.82L781.49 190.15L783.10 195.59L782.43 202.23L787.71 208.45L788.76 214.74L789.12 216.90L790.25 224.94L785.34 233.18L784.66 238.01L786.69 254.94L785.33 272.88L785.22 274.33L790.49 288.05L802.02 303.40L807.63 317.13L808.87 320.14L813.72 331.88L813.67 333.87L814.22 341.85L810.22 354.99L820.24 354.91L826.63 351.71L837.57 357.77L842.25 361.57L846.77 362.24L848.62 362.27L854.38 364.53L856.74 363.02L859.35 361.90L864.08 363.72L866.22 370.02L866.33 377.02L871.17 379.33L873.11 379.86L876.28 385.10L876.06 387.85L880.74 393.27L901.19 388.14L902.55 388.12L904.00 388.02L909.23 387.73L911.15 387.67L916.39 386.28L915.66 380.33L915.39 378.19L914.41 370.20L914.27 364.83L914.12 355.13L913.92 341.46Z" data-ward="13" /><path id="ward-16" class="ward" d="M907.17 468.59L907.43 464.53L905.18 464.34L903.33 466.43L900.05 471.69L894.97 479.86L889.65 486.18L888.81 493.24L887.21 496.06L870.49 507.49L871.71 510.37L857.03 513.84L855.16 513.87L853.28 512.92L850.76 513.06L848.53 511.97L848.37 510.50L846.88 511.48L843.46 511.78L840.39 512.11L836.08 513.46L833.93 514.28L832.85 517.10L827.93 517.43L824.76 518.00L813.22 521.52L808.04 523.10L803.70 523.80L800.63 524.62L795.96 526.73L790.78 527.71L786.57 528.06L783.58 526.28L779.57 527.90L777.56 528.58L775.33 530.07L773.99 530.22L772.37 528.36L772.24 526.41L772.12 524.59L771.68 523.23L768.26 523.38L766.89 523.09L763.57 522.39L763.02 520.77L763.14 516.84L761.68 513.76L759.06 510.59L757.68 511.26L756.89 510.32L755.61 510.03L754.20 511.22L752.77 511.69L750.80 511.74L748.94 512.49L748.18 517.28L744.58 518.21L737.44 519.16L733.75 518.54L731.77 518.62L730.93 520.30L725.42 521.44L721.92 520.93L717.57 521.55L714.86 522.12L713.01 523.57L711.68 525.14L709.84 526.91L708.89 527.79L708.86 529.64L704.17 531.89L701.34 533.17L698.92 535.37L697.62 536.26L697.22 538.49L695.34 541.79L697.81 542.44L700.05 542.57L702.02 542.69L703.61 542.86L708.22 543.63L711.16 543.00L712.80 542.78L717.52 543.03L720.42 542.80L717.99 548.03L715.95 547.42L712.74 548.45L710.06 548.31L710.33 551.38L701.53 558.44L700.64 560.72L700.27 562.78L699.14 563.46L697.14 563.50L695.21 562.86L694.10 564.14L694.31 568.48L687.66 574.80L688.18 577.14L686.61 579.44L683.95 581.75L683.34 583.07L682.84 584.18L678.17 594.45L673.50 604.71L671.67 603.83L672.02 605.35L670.80 607.06L669.88 608.50L668.30 610.96L666.57 615.00L665.94 616.45L665.23 618.44L663.97 622.48L665.67 622.63L669.05 622.79L674.78 623.06L680.35 622.99L686.62 622.90L688.65 622.89L691.47 622.88L695.94 622.80L698.04 622.80L701.97 622.70L709.75 622.57L724.33 622.28L736.56 622.04L739.67 621.84L742.49 621.64L753.41 620.33L759.98 619.54L765.47 618.88L769.55 618.43L771.27 618.16L779.45 616.86L784.28 616.05L791.12 614.56L794.32 613.86L802.08 611.92L807.05 610.67L811.58 610.03L816.37 609.34L817.93 609.12L819.88 608.84L831.62 607.05L842.37 601.71L849.61 598.12L853.74 595.74L858.14 592.98L865.82 588.15L870.17 585.23L874.52 582.31L881.79 574.13L889.02 565.97L896.29 557.49L898.07 555.18L898.81 554.21L902.13 548.58L902.99 547.14L903.98 545.46L904.91 543.67L905.46 542.61L906.31 540.58L908.54 533.62L909.70 530.00L911.59 523.91L912.27 521.61L914.98 513.08L915.32 511.73L917.54 503.69L919.67 495.98L922.33 487.06L922.73 485.72L925.23 477.26L928.02 467.76L921.16 468.77L919.67 468.71L916.42 468.79L913.18 468.86L908.75 468.95L907.17 468.59Z" data-ward="16" /><path id="ward-24" class="ward" d="M391.05 437.89L393.17 435.54L397.06 430.19L403.92 420.45L400.91 417.19L399.63 415.48L398.36 413.93L396.97 413.06L395.97 412.03L394.07 408.18L392.11 404.51L391.19 399.30L390.73 397.54L389.67 393.50L388.99 386.76L389.37 381.99L389.27 380.17L386.20 379.71L385.03 377.20L381.06 377.28L378.62 377.77L373.21 379.64L370.33 380.50L367.02 381.24L360.60 384.23L359.48 385.27L356.75 385.96L351.51 387.31L349.39 387.42L347.28 381.97L346.71 380.43L345.57 378.23L342.98 375.04L342.58 373.11L342.19 370.37L341.67 368.28L341.52 362.87L341.46 358.18L340.83 355.80L339.92 352.28L339.24 349.17L338.06 345.88L336.34 341.49L334.42 342.30L331.18 343.66L326.41 345.67L325.46 343.26L319.89 344.97L318.67 343.85L318.82 332.55L318.20 326.07L312.30 325.88L307.35 324.88L306.29 323.13L304.74 320.78L303.76 319.22L300.27 313.81L299.02 312.26L296.09 314.48L292.26 305.41L291.71 303.95L291.14 301.75L286.89 298.17L284.18 296.36L282.54 293.88L281.35 292.31L277.85 290.74L276.51 290.05L273.72 286.91L269.35 282.02L268.07 283.15L265.20 285.25L263.46 286.31L261.33 287.41L258.65 288.86L255.23 290.67L251.38 292.78L247.15 300.34L246.77 301.64L246.23 303.39L245.80 304.82L245.77 306.02L246.33 307.27L249.40 308.66L256.84 310.44L268.32 309.22L269.38 310.41L271.23 315.44L272.46 317.61L274.21 320.70L277.52 330.20L281.02 337.07L286.83 347.83L288.60 351.10L292.65 363.83L293.40 366.19L295.24 373.59L296.20 377.45L297.50 386.71L299.29 389.61L311.72 402.24L315.36 410.05L317.58 412.54L319.78 414.48L338.24 428.81L340.76 429.89L342.53 432.96L353.57 433.72L357.77 433.97L360.77 434.15L363.77 434.77L368.29 435.71L375.35 437.87L376.51 440.99L382.28 446.17L388.90 439.92L391.05 437.89Z" data-ward="24" /><path id="ward-9" class="ward" d="M643.30 256.82L640.95 251.81L642.36 244.05L638.29 239.41L637.07 237.51L636.42 234.88L636.04 230.59L636.42 227.11L636.58 225.65L636.28 221.47L632.65 221.14L631.13 221.61L628.55 224.70L626.91 227.09L626.24 228.07L625.50 229.48L624.64 231.11L622.50 233.58L620.87 242.75L619.16 250.49L619.05 251.78L618.64 256.84L618.53 260.66L615.68 261.83L610.70 263.79L610.48 280.02L615.04 306.41L615.78 311.46L616.53 315.92L617.29 320.41L618.75 321.22L634.58 319.93L644.13 319.15L645.21 327.80L646.37 332.45L648.66 341.81L651.24 341.92L652.53 344.03L653.25 347.51L654.80 353.24L656.31 357.73L657.34 359.01L658.99 361.43L659.57 363.49L660.28 365.59L660.89 367.57L661.65 369.42L661.96 370.64L662.63 372.78L663.79 375.67L664.28 377.06L665.69 381.31L673.58 377.32L680.88 373.63L690.98 364.94L698.86 357.55L701.59 354.98L703.29 353.40L704.98 351.81L704.82 340.03L707.81 340.04L714.89 340.06L721.97 340.08L731.04 336.44L732.51 333.84L734.84 329.71L736.55 318.06L737.50 311.58L736.68 306.83L735.70 301.21L736.36 295.13L737.14 293.29L738.81 289.38L744.93 274.25L744.20 269.25L743.96 255.13L746.07 253.93L745.96 250.51L745.31 249.28L744.50 247.74L739.29 244.60L735.16 238.30L732.12 237.07L719.94 233.66L709.24 233.47L709.79 235.66L710.18 237.20L711.47 242.29L714.34 244.98L712.54 255.39L711.09 256.35L708.94 256.78L707.21 256.78L704.82 256.35L700.96 255.38L698.82 254.23L696.73 253.89L695.67 255.37L694.34 257.14L693.11 258.86L691.68 258.40L690.51 258.07L689.71 259.09L688.81 260.44L685.80 260.57L685.97 256.88L685.59 254.74L683.95 253.69L682.97 251.24L675.91 251.24L674.53 249.11L667.84 251.25L666.03 251.85L661.26 253.52L659.07 254.53L656.50 255.68L652.20 256.83L649.78 257.49L644.54 258.88L643.30 256.82Z" data-ward="9" /><path id="ward-26" class="ward" d="M256.07 535.11L258.98 532.62L260.31 530.19L261.84 527.40L261.37 525.81L261.30 524.14L262.60 521.28L264.34 517.74L265.38 516.46L266.55 515.65L270.93 513.63L272.44 512.88L274.35 511.93L276.28 510.40L277.66 508.69L279.96 506.29L281.12 505.51L282.28 504.72L284.01 503.65L285.08 503.04L284.94 500.50L284.65 498.19L283.96 495.60L282.25 493.30L284.80 488.98L285.99 485.64L286.17 482.78L284.40 478.59L282.83 476.24L281.20 474.31L280.18 472.22L280.75 469.66L280.52 466.98L278.80 465.58L276.72 465.12L274.99 463.49L273.52 461.40L272.60 459.88L271.02 458.22L268.51 455.80L266.69 453.93L262.11 440.53L260.29 439.23L260.42 434.37L261.92 430.92L259.94 423.79L259.20 417.98L257.47 417.41L246.91 420.47L242.81 422.24L241.44 422.12L236.08 421.64L234.43 421.23L233.28 420.94L231.30 419.55L226.31 419.74L220.14 420.07L218.38 419.55L217.56 418.24L216.81 417.03L214.50 416.89L210.62 416.73L207.48 416.32L206.33 416.17L204.86 416.07L204.73 420.42L207.35 429.27L208.23 431.71L209.13 434.10L208.66 440.51L210.07 444.21L210.89 446.37L208.34 448.38L208.83 450.03L203.97 451.20L203.67 453.40L202.71 454.82L198.88 458.42L200.63 461.65L201.49 464.38L196.53 466.83L197.97 472.10L200.28 476.77L204.89 475.75L207.54 474.76L209.35 476.11L211.41 475.06L212.68 474.68L213.75 474.20L215.95 478.03L216.83 479.83L219.25 481.41L222.70 483.25L225.30 486.69L225.71 488.46L224.34 492.33L223.32 494.76L222.77 500.57L222.39 506.58L222.32 507.76L222.70 514.07L223.57 519.07L223.60 520.25L223.70 524.21L221.23 526.38L220.34 538.16L220.06 542.31L220.36 544.13L221.39 550.35L220.30 550.93L214.92 553.62L215.63 555.99L216.00 557.11L217.86 558.57L219.15 558.06L220.76 557.47L223.07 556.61L225.10 556.21L228.51 556.06L229.69 555.27L230.85 552.26L234.94 552.27L237.96 552.28L241.28 552.17L244.12 551.99L249.51 551.60L253.04 551.35L254.24 549.91L254.24 546.94L253.77 541.45L254.36 539.83L254.79 538.64L255.20 537.49L256.07 535.11Z" data-ward="26" /><path id="ward-14" class="ward" d="M814.22 341.85L813.67 333.87L810.18 331.72L806.82 331.39L805.65 331.51L801.77 331.88L798.42 333.75L797.27 334.39L795.74 335.25L790.17 337.80L783.53 340.84L775.77 343.77L772.67 345.45L764.15 349.58L744.72 353.54L741.78 354.90L739.46 362.56L736.21 373.30L735.17 376.71L730.83 384.40L724.11 387.58L722.09 388.53L715.03 390.00L710.30 390.98L709.92 392.14L711.06 397.51L711.98 403.92L711.90 406.62L711.77 411.08L715.67 410.43L718.12 409.35L722.24 409.18L724.85 409.40L728.21 409.73L729.69 409.69L732.12 409.62L735.70 410.43L736.83 410.81L739.78 411.79L741.19 412.14L745.14 413.14L748.00 413.61L749.56 413.15L752.04 412.75L753.46 413.20L754.71 413.59L756.18 413.87L757.67 413.73L758.88 413.57L760.19 413.58L761.71 413.57L763.35 413.22L765.10 412.99L767.22 412.67L770.68 412.98L771.60 414.13L773.20 415.18L775.37 415.01L777.77 414.71L780.55 414.45L788.63 413.23L790.40 412.96L791.62 412.98L792.87 413.58L795.06 415.56L796.54 416.12L798.66 414.90L801.63 414.29L804.34 413.65L806.34 413.05L809.63 411.69L815.61 409.78L819.91 409.01L822.12 410.15L823.17 411.37L822.86 413.32L822.86 417.65L823.99 421.55L824.73 427.91L824.34 431.29L823.81 435.90L824.39 440.68L824.87 443.56L826.30 446.54L828.68 448.58L830.55 448.76L832.25 448.93L839.32 449.76L841.82 450.35L844.33 450.94L850.01 451.99L855.14 452.49L861.17 452.31L864.46 452.25L867.80 452.83L869.45 453.86L871.42 454.56L876.34 456.30L879.54 457.49L882.02 457.60L883.56 455.32L884.04 454.25L886.78 453.79L891.54 452.85L897.14 452.18L898.29 452.63L903.06 454.50L904.15 451.50L904.48 449.87L904.81 448.24L905.36 447.15L907.57 446.34L915.85 445.90L919.14 445.72L920.54 445.65L922.89 445.50L923.85 444.05L923.60 441.81L923.20 438.26L922.97 436.59L922.66 434.28L922.40 432.36L922.10 430.12L921.89 428.58L921.44 425.31L920.94 421.63L920.30 416.86L919.83 413.15L918.98 406.34L918.48 402.69L918.13 400.00L917.81 397.51L916.99 391.08L916.39 386.28L911.15 387.67L909.23 387.73L904.00 388.02L902.55 388.12L901.19 388.14L880.74 393.27L876.06 387.85L876.28 385.10L873.11 379.86L871.17 379.33L866.33 377.02L866.22 370.02L864.08 363.72L859.35 361.90L856.74 363.02L854.38 364.53L848.62 362.27L846.77 362.24L842.25 361.57L837.57 357.77L826.63 351.71L820.24 354.91L810.22 354.99L814.22 341.85Z" data-ward="14" /><path id="ward-27" class="ward" d="M204.86 416.07L203.55 415.93L202.29 415.81L194.33 420.96L188.09 424.79L182.96 427.61L181.55 427.78L178.99 429.23L174.71 431.66L173.27 434.89L170.58 437.71L168.63 439.12L159.75 443.49L158.72 444.74L155.95 446.67L151.10 447.15L147.51 448.05L143.01 450.06L139.53 450.09L135.41 451.17L131.25 452.95L130.13 453.43L129.99 456.57L130.13 459.98L130.05 462.54L129.71 466.89L128.76 476.01L130.84 482.75L133.56 486.70L140.48 490.31L151.61 486.10L150.61 489.41L152.70 491.03L152.81 492.51L152.63 494.45L151.95 495.83L152.43 498.64L153.35 500.91L153.55 503.33L153.82 506.58L155.37 508.40L157.62 511.32L156.78 514.90L157.08 517.25L164.63 520.45L164.86 524.01L165.43 526.83L165.79 528.99L166.51 534.21L167.23 536.57L168.07 538.81L169.30 540.84L168.74 541.95L169.19 544.12L169.95 546.72L170.13 548.65L170.57 553.20L170.60 555.55L174.15 555.59L179.19 555.64L182.33 555.63L183.54 555.62L185.06 555.61L186.57 555.59L189.14 555.50L191.25 555.45L198.01 555.03L200.85 554.88L202.61 554.79L205.81 554.73L209.00 554.68L210.30 554.59L212.32 554.29L213.66 553.98L214.92 553.62L220.30 550.93L221.39 550.35L220.36 544.13L220.06 542.31L220.34 538.16L221.23 526.38L223.70 524.21L223.60 520.25L223.57 519.07L222.70 514.07L222.32 507.76L222.39 506.58L222.77 500.57L223.32 494.76L224.34 492.33L225.71 488.46L225.30 486.69L222.70 483.25L219.25 481.41L216.83 479.83L215.95 478.03L213.75 474.20L212.68 474.68L211.41 475.06L209.35 476.11L207.54 474.76L204.89 475.75L200.28 476.77L197.97 472.10L196.53 466.83L201.49 464.38L200.63 461.65L198.88 458.42L202.71 454.82L203.67 453.40L203.97 451.20L208.83 450.03L208.34 448.38L210.89 446.37L210.07 444.21L208.66 440.51L209.13 434.10L208.23 431.71L207.35 429.27L204.73 420.42L204.86 416.07Z" data-ward="27" /><path id="ward-12" class="ward" d="M963.38 42.95L961.76 40.35L960.36 38.11L959.36 36.82L958.32 35.47L957.42 34.31L956.60 33.24L955.71 32.10L953.62 30.68L952.22 29.72L950.59 28.62L948.77 27.38L946.73 25.99L944.94 24.78L943.17 22.36L941.99 20.76L940.07 18.15L936.72 13.60L933.04 13.52L928.26 13.19L920.27 13.04L918.09 12.94L918.15 9.62L918.20 6.74L918.13 5.02L918.07 3.54L918.02 2.37L917.92 0.00L913.78 4.47L912.42 5.93L908.18 10.36L907.03 11.57L905.82 12.83L904.63 14.07L903.57 15.47L902.33 17.11L901.23 18.58L900.48 19.57L899.60 20.72L898.63 22.02L897.44 22.87L896.45 23.57L893.65 25.57L892.38 26.48L890.46 27.85L889.17 29.27L887.86 30.72L886.77 32.49L886.15 33.50L885.51 34.55L884.61 36.01L883.44 37.91L882.41 39.00L880.26 41.23L879.53 42.15L878.79 43.07L877.91 44.17L876.18 42.75L874.13 41.07L872.75 42.56L871.83 43.56L864.74 51.23L865.73 52.64L866.65 53.93L866.39 55.86L866.13 57.78L863.69 59.06L862.52 59.95L861.41 61.04L860.34 62.19L858.16 64.58L856.86 66.06L855.72 67.34L853.29 70.29L851.63 72.31L850.33 73.75L849.10 75.11L846.59 78.00L845.79 78.92L844.66 80.07L842.69 82.09L841.87 82.93L840.68 84.46L839.86 85.55L838.68 87.11L836.92 89.43L834.65 91.92L832.63 94.01L831.79 94.94L829.94 97.01L828.24 98.91L826.88 100.37L826.19 101.32L825.25 102.52L824.12 103.97L823.09 105.29L820.16 109.07L818.84 110.88L817.60 112.57L816.24 114.43L815.38 115.59L814.64 116.78L812.98 119.67L811.34 122.84L810.70 124.09L813.28 125.19L817.05 126.80L820.12 127.95L821.41 128.26L825.30 129.28L826.60 129.61L828.07 130.11L830.65 131.08L833.59 132.10L836.37 133.07L838.50 133.81L840.98 134.92L842.28 135.99L842.92 137.16L844.21 139.33L844.83 140.32L846.21 141.57L847.52 142.00L849.07 142.11L850.68 142.06L854.02 141.75L855.66 142.66L857.25 145.11L858.31 146.95L859.36 148.47L860.45 149.90L862.06 151.58L863.48 152.76L864.53 153.61L865.48 154.38L866.44 155.12L868.14 156.61L869.30 157.68L870.53 158.89L871.01 160.18L872.23 162.36L874.16 163.50L875.99 164.13L877.84 165.17L879.43 166.35L880.68 167.69L881.46 168.60L883.26 170.89L896.38 164.36L904.74 155.79L912.02 147.86L919.18 141.13L923.64 134.40L931.04 125.41L937.86 117.14L943.14 114.02L945.78 112.47L950.03 111.48L953.30 110.73L954.69 110.41L961.77 107.63L965.76 106.06L961.48 114.35L953.79 129.26L951.52 133.66L935.39 164.93L911.46 211.31L901.54 222.11L888.81 235.97L886.00 239.39L877.50 249.71L862.98 262.26L862.64 263.64L867.00 279.61L868.73 285.95L871.13 294.71L883.46 303.58L889.01 307.17L907.65 310.44L909.44 310.82L911.24 311.20L915.30 312.10L915.90 308.92L920.05 287.00L920.50 284.58L921.65 278.47L922.61 273.33L922.96 271.47L923.47 267.99L923.80 264.78L924.42 258.82L924.72 255.90L925.06 252.92L925.53 248.80L926.15 243.72L926.52 240.69L927.41 235.44L927.96 232.23L928.44 229.44L933.65 216.25L941.05 197.56L942.20 194.70L943.02 192.60L943.56 191.21L944.24 189.45L944.93 187.67L945.89 185.20L946.67 183.22L947.39 181.36L953.04 172.29L961.43 158.83L963.95 154.79L967.16 149.66L970.30 144.62L972.92 140.44L975.84 135.76L979.03 130.57L980.61 127.99L982.52 124.89L986.62 118.22L988.89 111.15L992.32 106.04L1000.00 94.61L991.81 86.29L990.99 84.79L983.26 70.63L984.60 69.15L979.14 63.11L978.04 61.89L975.45 59.02L974.22 57.57L971.61 54.46L969.88 52.39L968.18 49.95L966.82 47.99L964.32 44.47L963.38 42.95Z" data-ward="12" /><path id="ward-22" class="ward" d="M457.35 374.37L457.53 372.04L457.53 366.48L457.58 362.95L457.85 360.82L458.15 357.60L452.63 360.21L449.60 361.67L447.57 362.78L444.15 364.54L442.98 365.30L441.79 366.60L440.52 368.76L439.18 371.69L437.97 372.97L436.62 374.41L431.50 379.71L428.13 383.96L425.91 386.76L422.57 390.54L421.48 391.90L418.28 397.27L417.55 398.49L414.67 405.66L413.25 407.61L410.75 411.07L408.72 413.87L410.20 416.59L411.07 418.18L412.32 420.46L417.49 429.92L420.45 423.68L423.00 421.72L423.06 418.33L424.58 417.27L425.75 416.53L427.29 416.00L430.75 414.95L435.35 413.99L438.04 411.82L439.51 411.68L442.82 410.85L447.19 410.54L447.08 414.50L447.02 416.48L451.67 423.05L451.54 424.61L451.42 426.04L449.69 428.98L445.61 435.95L444.26 437.62L442.25 440.10L441.30 443.41L442.37 447.59L443.97 453.79L445.41 453.42L452.07 451.60L453.24 451.28L457.17 450.16L458.59 449.76L459.81 449.48L461.02 449.29L462.98 449.17L464.84 449.18L466.71 449.18L469.69 449.20L469.55 451.42L469.40 453.57L469.28 455.26L469.23 458.04L469.18 460.84L470.56 462.39L472.27 463.62L474.51 463.95L476.76 464.27L485.72 465.10L485.22 461.99L484.88 459.94L484.53 457.82L484.32 456.28L483.88 453.03L483.81 453.04L482.04 452.69L480.33 449.74L476.68 443.44L490.57 438.31L490.46 437.05L494.19 436.67L503.30 432.85L509.58 430.21L516.70 430.89L530.62 431.31L534.31 432.00L542.11 433.46L559.07 435.30L564.31 435.87L565.95 436.64L570.69 437.52L576.37 438.57L576.36 438.62L577.97 437.61L577.57 435.81L576.93 432.63L576.33 429.65L576.31 426.86L575.27 424.82L573.15 419.45L568.42 407.47L564.48 397.51L563.63 395.34L560.58 395.99L558.56 396.46L556.27 396.49L554.88 394.83L552.74 392.05L550.76 389.48L548.94 387.42L547.12 382.83L545.98 379.00L539.62 378.83L533.55 378.68L534.69 383.67L528.67 384.32L524.22 384.00L520.93 383.38L516.72 382.58L509.72 380.68L505.85 378.92L504.29 378.49L500.44 377.70L493.00 376.45L485.62 374.88L477.69 373.68L480.05 363.49L478.76 363.16L474.24 362.61L473.87 363.83L470.12 363.90L469.19 364.66L469.43 368.62L467.86 375.03L467.06 377.58L464.31 377.54L461.03 376.95L459.09 377.03L457.22 377.10L457.35 374.37Z" data-ward="22" /></svg>