<svg viewBox="0 0 1000.00 741.07" xmlns="http://www.w3.org/2000/svg"><style>.ward { fill: #e2e8f0; stroke: #fff; stroke-width: 0.5px; } .ward:hover { fill: #cbd5e1; }</style><path id="ward-18" class="ward" d="M331.38 387.12L325.46 381.88L319.66 380.70L318.47 380.39L317.27 380.08L313.11 375.22L305.75 372.55L299.06 370.01L291.97 367.33L288.11 361.73L279.01 357.85L267.55 352.96L259.55 349.17L247.60 343.38L242.56 336.85L234.98 326.70L216.51 344.74L215.13 348.59L212.57 355.09L206.84 361.43L203.78 361.92L199.65 362.80L197.51 366.31L199.20 369.87L202.89 377.64L201.80 382.10L203.59 386.33L200.52 388.18L196.95 388.30L190.82 384.99L181.52 381.51L175.81 380.84L173.72 381.85L172.48 384.11L172.79 385.15L174.51 385.21L177.21 385.62L179.43 386.94L180.83 389.30L181.59 390.60L183.17 391.85L185.26 393.53L190.80 395.21L191.87 392.85L194.63 394.64L195.47 395.76L197.00 397.83L196.91 400.67L196.80 404.50L197.53 407.30L199.37 408.61L202.80 408.57L203.90 409.45L205.74 410.95L205.79 412.60L206.28 415.17L207.52 415.36L209.03 415.59L211.38 415.96L212.62 415.77L215.41 415.37L219.65 414.12L223.76 414.74L225.40 415.31L227.83 417.45L229.46 418.88L231.27 419.47L231.87 419.54L233.93 420.46L235.59 421.79L237.47 422.83L238.70 423.51L240.62 424.57L243.12 425.95L246.16 427.46L247.53 427.64L248.47 428.51L250.66 429.35L252.74 430.15L255.26 432.11L255.88 433.68L256.09 435.39L256.13 436.43L257.87 437.82L262.70 437.07L263.97 437.07L268.94 437.04L270.21 438.38L270.92 443.50L271.04 445.38L271.86 449.31L272.73 450.11L275.17 450.17L276.38 450.20L280.13 452.03L280.68 454.40L282.45 457.22L284.61 459.52L287.31 460.94L290.56 462.57L292.04 463.31L293.90 463.86L295.71 465.70L297.50 465.70L300.12 465.50L304.58 465.18L306.78 467.25L306.60 469.65L309.54 470.01L312.35 470.36L314.62 470.64L316.21 470.83L317.40 472.53L319.47 473.83L320.56 473.92L320.69 473.93L320.99 473.95L325.25 473.15L326.42 473.18L334.93 475.31L335.92 475.55L344.00 472.97L347.11 465.90L356.99 463.39L366.22 470.59L369.38 470.25L371.95 469.98L371.61 468.31L371.24 465.19L371.40 463.50L371.55 461.81L372.20 459.38L372.88 456.82L371.46 453.30L368.16 450.89L366.83 449.92L365.65 449.05L359.57 448.28L357.44 445.22L358.10 443.02L358.58 440.52L359.00 438.32L359.70 432.69L359.30 426.44L358.95 420.93L358.64 416.15L358.47 414.19L355.95 411.59L354.11 411.09L353.87 408.59L355.44 406.26L351.78 402.89L347.48 398.93L343.96 395.16L341.70 393.15L339.34 391.78L337.67 391.71L335.10 391.19L331.38 387.12Z" data-ward="18" /><path id="ward-17" class="ward" d="M383.25 379.36L381.67 377.54L378.55 375.27L375.75 373.22L373.02 371.23L367.98 369.93L361.99 366.89L357.96 363.72L354.46 360.99L352.08 360.08L346.62 357.98L340.05 355.13L338.60 354.25L337.45 353.57L335.61 351.59L334.16 350.56L332.08 349.09L329.78 348.01L325.88 348.65L324.18 348.92L323.52 350.07L322.52 352.02L323.47 354.75L324.37 356.31L325.28 357.86L326.45 359.54L327.63 361.22L328.69 362.52L329.75 363.83L332.66 366.95L335.13 369.60L336.42 371.97L336.87 374.84L336.94 376.49L337.81 379.21L339.10 380.01L340.98 379.90L342.90 380.17L344.50 381.73L345.11 384.56L341.94 382.60L342.78 384.88L344.28 388.59L345.19 390.91L346.09 392.61L347.11 394.52L348.14 396.45L349.30 397.75L354.14 403.17L356.01 405.02L355.44 406.26L353.87 408.59L354.11 411.09L355.95 411.59L358.47 414.19L358.64 416.15L358.95 420.93L359.30 426.44L359.70 432.69L359.00 438.32L358.58 440.52L358.10 443.02L357.44 445.22L359.57 448.28L365.65 449.05L366.83 449.92L368.16 450.89L371.46 453.30L372.88 456.82L372.20 459.38L371.55 461.81L371.40 463.50L371.24 465.19L371.61 468.31L371.95 469.98L369.38 470.25L366.22 470.59L356.99 463.39L347.11 465.90L344.00 472.97L343.57 479.15L346.03 481.45L347.35 483.01L349.38 486.12L351.27 488.90L354.86 491.76L358.60 495.79L360.12 497.04L361.12 497.66L366.30 499.89L366.63 500.07L369.25 501.91L369.41 502.01L371.46 503.19L377.14 504.93L383.79 506.94L385.62 507.07L393.94 511.46L398.06 513.63L399.93 514.03L402.30 513.42L403.54 513.10L404.29 512.16L412.88 509.00L414.15 508.76L416.03 508.41L417.83 509.20L419.77 514.25L421.33 516.29L424.01 519.82L425.41 522.29L425.92 523.64L426.97 526.44L427.42 527.61L431.68 531.84L434.67 530.95L434.94 530.83L436.43 530.83L437.41 530.82L437.74 530.90L438.10 531.01L439.18 531.45L442.03 532.27L443.48 531.87L445.57 534.12L446.31 535.35L450.18 539.24L454.28 543.76L458.76 544.43L465.72 546.56L470.31 549.03L471.06 550.49L475.63 555.00L476.05 555.33L476.43 555.55L483.54 558.59L490.73 562.37L490.79 562.40L496.46 565.33L498.19 566.83L498.53 567.44L498.62 567.59L499.62 569.33L500.91 570.85L502.64 573.15L502.85 573.41L504.13 574.40L505.70 574.99L505.73 575.00L511.31 577.16L511.37 577.18L513.15 577.97L516.73 578.87L526.42 579.49L533.97 579.97L539.00 574.07L544.67 567.41L543.64 566.26L541.13 563.47L539.80 562.00L538.89 560.49L538.23 559.42L537.21 558.27L535.69 557.02L534.67 556.19L532.00 555.25L526.91 553.47L524.89 552.49L522.85 551.51L521.83 550.52L524.77 546.93L526.15 544.92L527.98 542.25L528.12 539.98L528.23 538.64L530.39 538.91L535.38 539.54L539.68 539.84L539.61 538.10L539.44 533.72L539.54 531.45L536.74 527.12L533.66 524.05L532.56 522.89L531.45 521.74L529.76 519.82L528.91 518.85L525.96 515.59L523.53 514.88L519.50 513.71L517.52 510.65L514.28 508.29L506.16 504.06L506.73 502.74L507.43 501.64L507.80 500.22L508.15 498.94L508.88 497.13L508.67 495.93L505.70 494.22L502.66 491.45L501.89 487.77L500.02 486.11L499.60 483.95L500.32 480.13L496.53 477.74L496.50 476.28L496.30 474.95L495.92 472.39L495.70 470.88L493.55 466.53L490.89 462.75L488.38 459.77L483.53 456.93L479.09 454.86L476.47 452.62L472.85 450.01L469.73 449.60L468.15 449.09L466.09 447.12L462.75 444.36L461.38 443.25L460.15 442.36L457.06 440.11L454.66 438.62L451.70 436.78L446.79 435.81L441.78 433.63L436.17 440.49L436.44 435.38L436.55 433.28L437.36 430.95L436.57 429.77L435.37 427.96L435.10 424.44L433.89 424.11L431.17 423.39L427.74 424.50L424.69 425.02L421.43 423.96L418.95 422.92L416.82 418.04L414.38 414.48L413.58 411.30L412.86 408.47L410.36 406.17L408.27 404.25L402.45 401.91L396.59 399.35L396.44 396.66L396.33 394.50L395.03 393.17L393.28 391.37L388.50 388.95L386.14 387.76L385.51 384.95L384.61 380.92L383.25 379.36Z" data-ward="17" /><path id="ward-13" class="ward" d="M438.28 419.70L435.81 417.65L434.27 416.51L431.12 414.61L427.74 410.54L426.53 409.09L426.06 407.69L425.31 405.48L422.03 404.56L418.61 401.12L417.86 399.68L416.25 397.83L414.72 396.22L408.66 392.41L407.58 391.73L403.62 386.39L402.64 385.07L399.26 382.50L396.72 380.26L393.70 377.71L392.08 376.34L391.13 374.90L388.33 371.33L386.99 370.93L383.65 370.49L381.64 370.20L373.02 371.23L375.75 373.22L378.55 375.27L381.67 377.54L383.25 379.36L384.61 380.92L385.51 384.95L386.14 387.76L388.50 388.95L393.28 391.37L395.03 393.17L396.33 394.50L396.44 396.66L396.59 399.35L402.45 401.91L408.27 404.25L410.36 406.17L412.86 408.47L413.58 411.30L414.38 414.48L416.82 418.04L418.95 422.92L421.43 423.96L424.69 425.02L427.74 424.50L431.17 423.39L433.89 424.11L435.10 424.44L435.37 427.96L436.57 429.77L437.36 430.95L436.55 433.28L436.44 435.38L436.17 440.49L441.78 433.63L446.79 435.81L451.70 436.78L454.66 438.62L457.06 440.11L460.15 442.36L461.38 443.25L462.75 444.36L466.09 447.12L468.15 449.09L469.73 449.60L472.85 450.01L476.47 452.62L479.09 454.86L483.53 456.93L488.38 459.77L490.89 462.75L493.55 466.53L495.70 470.88L495.92 472.39L496.30 474.95L496.50 476.28L496.53 477.74L500.32 480.13L499.60 483.95L500.02 486.11L501.89 487.77L502.66 491.45L505.70 494.22L508.67 495.93L508.88 497.13L508.15 498.94L507.80 500.22L507.43 501.64L506.73 502.74L506.16 504.06L514.28 508.29L517.52 510.65L519.50 513.71L523.53 514.88L525.96 515.59L528.91 518.85L529.76 519.82L531.45 521.74L532.56 522.89L533.66 524.05L536.74 527.12L539.54 531.45L543.76 531.37L546.07 532.15L551.29 533.97L556.52 537.27L559.80 542.68L561.62 545.68L563.85 549.12L566.12 552.65L564.68 554.78L563.50 555.90L565.23 557.94L566.90 558.85L567.11 560.88L568.03 563.82L565.01 569.33L563.66 571.77L561.06 576.51L559.23 577.75L559.18 580.76L558.09 583.40L557.86 587.39L561.04 592.66L562.19 597.76L564.20 600.35L570.67 602.26L578.67 604.61L586.48 606.91L590.90 608.21L598.05 607.87L597.58 606.54L597.54 604.80L597.50 602.87L595.27 597.75L595.67 595.65L597.88 593.19L601.17 590.08L604.39 586.72L604.23 585.23L603.67 581.99L604.40 580.96L605.27 579.75L605.05 578.32L606.36 577.64L608.25 576.79L611.31 576.90L616.35 577.54L618.89 577.50L621.50 575.36L622.87 574.20L623.35 568.63L623.79 566.95L625.78 559.48L631.87 561.39L634.33 562.11L635.38 557.80L636.59 552.43L641.20 555.09L645.18 558.39L648.99 562.93L650.62 565.95L653.72 566.45L655.50 566.70L660.39 567.25L661.33 565.40L661.81 564.04L661.34 562.83L660.00 560.77L658.54 558.53L657.56 555.34L657.36 554.05L656.60 551.80L655.83 550.74L654.02 548.49L652.24 544.27L651.81 538.09L654.81 535.73L655.92 535.10L658.04 536.38L661.41 538.00L664.22 539.37L666.93 540.68L670.52 542.43L673.91 544.43L681.07 548.66L686.04 553.89L689.91 558.13L693.46 562.00L696.95 565.87L700.06 570.11L704.94 576.76L709.85 583.14L720.27 590.52L726.49 594.92L727.16 591.13L727.75 588.15L728.12 585.38L732.55 583.49L734.04 582.56L736.26 581.17L736.04 578.55L734.11 576.82L733.19 575.72L730.60 572.62L725.55 568.41L723.35 565.31L721.68 563.49L720.43 562.44L718.53 561.39L715.85 560.67L714.19 559.71L711.77 558.30L706.85 555.44L706.31 553.62L705.79 551.86L704.19 548.98L703.56 547.49L702.68 545.82L700.56 541.80L698.68 536.82L698.38 535.47L698.08 534.12L695.65 533.78L694.55 532.53L692.71 531.25L688.52 529.55L682.67 527.17L680.78 526.40L673.44 525.49L670.98 524.19L669.04 524.47L666.98 522.93L667.95 520.31L670.17 515.99L673.39 515.43L675.24 515.21L681.03 514.51L683.70 513.39L684.18 511.41L676.05 508.06L671.53 506.96L665.84 507.83L663.75 508.18L656.21 509.65L654.08 509.04L650.99 507.48L648.98 504.54L647.96 503.79L643.17 502.29L639.03 500.61L636.91 499.96L633.84 499.99L632.31 499.63L629.87 497.21L627.57 496.22L623.67 495.40L622.36 493.84L621.59 492.92L619.55 492.61L615.83 491.97L611.38 491.29L610.05 491.43L608.96 490.42L607.90 488.99L606.84 487.55L605.77 486.21L603.26 483.77L600.29 480.92L598.70 480.50L597.12 480.08L595.39 480.60L593.67 481.12L589.34 483.08L586.26 484.34L583.11 485.04L581.55 484.46L579.99 483.88L578.07 483.30L576.90 482.95L580.33 472.83L575.49 463.07L572.87 457.80L567.46 455.62L561.53 452.60L551.51 445.86L552.84 442.09L553.26 438.74L549.70 436.25L547.16 434.48L542.15 428.24L538.32 420.63L535.01 414.04L529.26 415.02L524.86 415.77L519.71 413.87L496.22 423.29L478.08 430.56L465.51 435.60L464.10 435.26L461.09 434.62L459.36 434.25L456.99 433.60L453.51 432.88L450.54 430.91L446.01 430.53L445.64 428.38L445.26 426.22L438.28 419.70Z" data-ward="13" /><path id="ward-8" class="ward" d="M938.34 466.36L936.20 466.02L934.20 463.10L934.66 461.26L934.40 459.25L934.68 456.52L934.84 452.87L934.94 450.52L933.48 447.05L932.67 445.14L932.71 440.31L932.74 437.40L932.70 432.88L924.37 432.69L922.48 432.28L920.00 431.65L917.77 429.96L915.53 428.27L910.61 426.87L905.51 426.84L900.38 427.45L893.04 429.57L899.03 437.34L906.95 447.45L897.35 454.05L889.83 463.03L881.08 477.11L886.09 481.63L889.49 486.29L890.99 488.55L892.07 491.13L892.81 492.89L891.64 494.59L889.91 496.97L888.19 499.36L886.34 498.13L880.58 494.30L874.43 495.90L870.73 496.86L866.44 497.81L860.11 500.24L861.33 502.02L861.81 505.28L865.28 507.85L869.81 511.14L871.58 514.52L869.25 519.15L871.37 522.36L876.23 529.52L887.48 530.63L889.36 531.52L894.18 533.82L899.37 537.23L910.94 541.77L914.25 543.35L911.40 546.68L913.56 547.95L916.47 549.66L919.35 551.35L921.98 552.98L922.07 564.38L923.55 567.29L925.60 571.32L924.02 578.12L922.13 577.90L920.23 577.68L914.29 575.58L909.51 579.40L907.38 585.77L907.41 589.23L908.70 591.18L910.79 594.32L911.54 595.44L913.29 600.83L914.28 606.19L914.88 610.27L915.68 614.12L915.51 616.06L915.16 618.55L913.30 618.80L913.38 620.33L912.29 622.94L909.85 624.00L907.33 625.10L906.82 626.20L905.36 630.24L904.94 632.87L905.23 634.89L906.68 638.28L915.53 640.15L924.48 641.95L926.18 642.29L931.34 643.12L934.82 642.40L936.87 642.16L944.02 640.44L945.21 641.98L947.34 644.39L947.60 645.62L948.63 646.93L950.14 648.85L951.97 648.50L954.13 648.08L955.70 645.81L958.16 643.57L961.38 642.06L965.47 643.01L981.63 646.76L986.01 648.02L989.79 649.77L992.56 651.90L996.14 651.27L999.86 651.33L999.94 647.32L1000.00 644.60L993.52 631.35L992.69 628.16L992.05 625.73L991.24 622.57L990.44 618.51L990.19 615.18L990.00 612.62L989.43 609.39L989.03 607.93L988.69 606.82L987.44 603.73L987.00 601.50L986.85 600.92L986.39 597.50L985.85 595.14L985.88 593.61L985.86 592.07L985.54 590.32L984.86 587.17L984.80 587.00L984.59 586.39L984.42 585.53L984.46 584.69L984.27 581.93L984.03 580.51L983.90 579.67L983.81 578.25L983.85 576.41L983.29 573.46L982.79 572.48L982.74 572.39L982.51 571.28L981.91 567.79L981.54 566.26L981.15 565.58L980.83 564.56L980.69 561.85L980.46 560.50L980.34 559.29L979.66 556.18L979.37 554.95L979.09 553.56L978.43 552.10L977.63 550.31L977.35 549.70L977.29 548.57L977.38 547.94L977.38 547.91L977.41 545.68L977.11 545.21L976.96 538.93L976.85 534.00L976.75 529.75L974.82 525.49L973.44 522.42L971.74 518.67L969.53 513.76L967.71 508.98L965.92 504.29L964.62 500.88L964.15 499.65L969.94 496.47L974.10 494.49L978.28 489.80L980.37 486.51L981.73 484.36L981.40 482.85L980.74 479.88L977.44 476.58L975.82 475.09L974.05 474.70L971.09 475.20L969.65 475.70L966.36 473.08L963.48 471.65L959.68 470.35L956.28 470.03L953.20 468.04L951.00 467.50L949.42 466.51L946.34 466.55L943.20 466.79L941.26 467.43L938.34 466.36Z" data-ward="8" /><path id="ward-15" class="ward" d="M349.03 282.47L347.86 281.89L342.81 280.44L339.74 279.77L335.82 278.71L334.25 278.41L332.68 278.10L328.31 277.33L325.34 276.80L319.03 274.68L315.15 273.34L314.92 274.69L314.66 276.29L314.37 279.61L314.38 283.11L314.74 285.06L315.87 288.65L316.65 289.95L316.12 291.37L312.35 293.87L311.52 295.27L310.75 298.64L310.16 300.41L308.41 304.02L306.34 308.27L303.16 309.63L300.46 311.54L299.77 312.94L300.57 314.86L302.38 316.35L303.79 318.01L304.41 319.09L306.47 321.79L308.04 324.06L309.12 325.33L311.57 327.75L312.72 328.92L314.08 330.75L315.62 332.68L317.45 334.28L319.05 335.84L321.39 339.42L322.69 341.46L323.24 343.33L323.83 345.35L324.18 348.92L325.88 348.65L329.78 348.01L332.08 349.09L334.16 350.56L335.61 351.59L337.45 353.57L338.60 354.25L340.05 355.13L346.62 357.98L352.08 360.08L354.46 360.99L357.96 363.72L361.99 366.89L367.98 369.93L373.02 371.23L381.64 370.20L383.65 370.49L386.99 370.93L388.33 371.33L391.13 374.90L392.08 376.34L393.70 377.71L396.72 380.26L399.26 382.50L402.64 385.07L403.62 386.39L407.58 391.73L408.66 392.41L414.72 396.22L416.25 397.83L417.86 399.68L418.61 401.12L422.03 404.56L425.31 405.48L426.06 407.69L426.53 409.09L427.74 410.54L431.12 414.61L434.27 416.51L435.81 417.65L438.28 419.70L445.26 426.22L445.64 428.38L446.01 430.53L450.54 430.91L453.51 432.88L456.99 433.60L459.36 434.25L461.09 434.62L464.10 435.26L465.51 435.60L478.08 430.56L496.22 423.29L519.71 413.87L524.86 415.77L529.26 415.02L535.01 414.04L534.90 410.64L534.66 409.19L534.31 407.09L533.26 404.39L532.60 402.69L533.27 401.02L534.92 399.76L537.38 396.84L537.81 395.68L538.79 393.04L538.02 391.22L536.98 389.07L540.11 386.43L538.91 384.72L538.12 383.58L536.45 381.80L533.79 380.10L531.92 378.00L530.10 375.81L529.03 374.73L527.76 374.01L525.92 374.34L523.78 374.75L522.69 373.34L521.14 371.32L518.23 367.53L506.35 358.57L499.67 353.40L497.96 352.07L478.74 337.03L476.75 335.47L475.21 333.83L470.49 333.61L464.35 329.95L459.91 324.52L456.26 324.16L454.64 326.54L454.70 328.62L454.76 330.69L453.83 331.69L452.89 332.68L449.36 333.24L446.50 333.70L439.52 332.14L429.99 333.90L414.10 330.92L408.19 336.17L400.97 342.58L396.50 338.69L395.53 327.42L385.42 324.92L381.59 319.86L378.65 311.82L371.72 305.49L366.52 298.58L365.55 297.29L364.88 286.15L364.13 283.33L361.62 282.87L359.87 282.55L357.69 282.65L355.55 282.74L350.74 283.33L349.03 282.47Z" data-ward="15" /><path id="ward-1" class="ward" d="M112.22 90.46L110.92 89.32L109.29 87.44L109.18 87.32L104.12 82.51L103.06 81.25L101.37 77.58L99.51 75.54L100.26 72.55L100.91 70.00L102.61 63.25L104.11 57.30L105.51 51.76L102.82 49.38L91.37 39.19L84.09 32.72L73.50 23.30L69.38 19.79L66.31 18.28L59.52 14.15L58.42 13.46L58.19 13.32L56.14 12.18L51.02 8.54L48.47 4.66L46.15 0.00L36.86 7.81L33.86 10.33L29.92 13.70L26.63 17.92L22.42 22.41L11.57 37.71L10.74 38.89L8.62 42.34L4.16 54.18L2.78 57.86L0.66 67.55L0.00 78.71L5.15 89.28L6.04 90.21L14.65 100.66L24.40 105.30L29.31 107.64L36.89 114.73L39.12 116.41L46.59 120.60L52.85 124.93L58.37 128.75L60.41 139.63L75.03 155.97L78.82 160.05L89.64 171.70L91.30 173.50L108.43 182.57L118.37 187.60L122.12 189.96L125.75 191.79L129.38 193.62L131.30 194.58L137.95 197.92L139.99 199.51L149.22 206.70L153.51 209.94L158.65 213.82L159.74 214.65L168.60 209.68L170.39 210.81L176.11 214.42L181.28 220.54L184.19 224.59L192.40 229.60L196.27 231.97L205.48 232.87L207.52 233.62L208.98 234.17L210.45 234.71L216.90 237.10L227.32 245.83L232.57 253.47L234.77 256.67L236.06 258.55L238.03 262.08L240.94 267.30L243.09 271.29L243.94 272.74L245.13 274.08L245.44 275.73L245.24 277.46L247.53 276.15L249.18 276.40L252.82 277.41L255.25 277.28L256.47 276.72L258.50 274.16L259.50 272.52L260.62 270.71L264.09 267.37L266.88 264.57L270.31 262.46L271.56 261.51L273.15 260.29L274.57 259.64L276.41 258.79L277.55 259.22L278.46 260.60L279.02 262.45L280.66 264.11L281.50 265.33L282.58 267.08L282.70 269.56L283.20 271.38L284.41 271.94L286.20 271.44L287.05 266.92L288.33 262.57L289.06 259.92L289.11 257.81L289.59 254.40L290.29 252.23L291.91 250.17L292.59 247.54L290.78 246.52L289.51 245.71L284.22 243.42L282.45 242.93L279.93 242.88L277.92 241.78L274.70 238.78L272.21 233.37L271.35 232.38L269.25 231.96L268.44 232.86L267.72 233.84L266.99 234.83L265.59 236.24L264.38 236.15L261.21 235.14L252.02 228.90L237.38 218.32L235.65 217.06L234.60 215.92L235.53 214.76L236.41 213.68L238.15 211.52L237.21 209.94L239.12 206.81L232.14 205.40L230.68 202.28L228.88 200.39L225.76 199.04L222.31 195.83L222.32 194.43L221.53 192.80L220.15 191.62L219.09 190.33L219.82 189.31L221.70 188.63L224.58 188.39L227.47 188.14L230.48 182.76L230.19 181.05L229.67 179.60L228.80 177.60L227.25 175.27L225.77 174.20L224.26 172.77L220.35 167.00L219.45 155.84L219.18 136.59L219.17 135.31L219.14 133.24L216.03 132.55L208.22 130.92L205.60 129.74L195.89 126.12L191.33 123.33L189.50 122.51L186.05 120.96L184.21 120.13L178.89 115.90L178.79 115.82L176.50 114.18L174.78 112.38L173.20 108.71L173.18 108.66L171.79 105.64L169.28 102.70L167.43 100.54L165.21 97.95L159.76 97.11L156.42 96.82L152.23 96.44L150.49 95.68L143.43 94.58L141.40 94.26L132.98 92.94L128.28 92.50L122.91 92.00L119.74 91.70L117.03 91.76L114.39 91.82L112.22 90.46Z" data-ward="1" /><path id="ward-11" class="ward" d="M735.92 503.16L737.39 502.07L738.37 500.68L737.10 497.24L736.14 496.51L734.56 495.12L732.49 493.31L729.48 489.28L726.53 484.56L721.16 481.81L718.03 478.85L714.97 473.94L713.33 470.41L709.85 467.56L707.79 466.22L705.72 464.88L702.41 462.99L700.97 462.17L696.58 459.61L692.47 458.18L687.12 456.45L684.94 462.11L683.77 466.50L685.59 471.74L686.20 473.51L687.33 476.95L687.31 480.26L686.09 482.81L686.54 485.00L688.23 488.80L688.98 491.95L688.16 495.22L688.80 498.64L687.83 500.57L686.87 502.50L685.85 504.41L684.78 507.31L684.18 511.41L683.70 513.39L681.03 514.51L675.24 515.21L673.39 515.43L670.17 515.99L667.95 520.31L666.98 522.93L669.04 524.47L670.98 524.19L673.44 525.49L680.78 526.40L682.67 527.17L688.52 529.55L692.71 531.25L694.55 532.53L695.65 533.78L698.08 534.12L698.38 535.47L698.68 536.82L700.56 541.80L702.68 545.82L703.56 547.49L704.19 548.98L705.79 551.86L706.31 553.62L706.85 555.44L711.77 558.30L714.19 559.71L715.85 560.67L718.53 561.39L721.30 560.31L724.01 561.66L725.67 562.92L728.07 564.76L730.52 566.72L732.25 568.10L733.64 569.10L737.32 571.75L740.50 574.00L744.09 575.90L748.28 576.53L748.98 575.03L749.08 573.52L749.22 571.46L750.31 565.41L754.55 558.11L756.54 554.44L758.46 550.91L759.87 550.44L764.03 549.05L768.12 547.83L769.92 548.00L774.27 548.41L779.40 548.89L781.17 548.98L782.28 543.64L782.78 540.29L783.29 536.93L783.84 531.01L784.43 524.54L784.96 518.85L786.34 512.53L787.47 508.37L789.35 506.56L790.25 505.70L792.48 504.38L793.44 502.55L794.41 500.72L795.14 498.67L794.66 493.82L794.00 490.70L791.84 488.65L790.70 487.94L786.99 485.65L785.88 485.01L782.56 483.08L781.45 482.54L777.95 480.83L772.29 480.41L768.95 480.10L766.77 477.59L766.47 474.90L766.07 471.25L765.36 469.17L764.68 467.18L763.47 467.69L760.08 469.06L756.83 469.56L753.41 470.08L750.67 471.65L749.78 475.94L749.26 481.58L751.45 481.52L753.10 482.12L755.43 484.71L757.14 486.20L758.85 487.69L758.97 489.05L756.82 489.19L756.25 492.25L756.16 493.47L755.88 497.50L755.89 500.56L755.89 502.65L749.84 503.14L747.64 503.42L743.15 503.99L739.27 504.75L737.41 505.11L735.92 503.16Z" data-ward="11" /><path id="ward-16" class="ward" d="M283.20 271.38L282.70 269.56L282.58 267.08L281.50 265.33L280.66 264.11L279.02 262.45L278.46 260.60L277.55 259.22L276.41 258.79L274.57 259.64L273.15 260.29L271.56 261.51L270.31 262.46L266.88 264.57L264.09 267.37L260.62 270.71L259.50 272.52L258.50 274.16L256.47 276.72L255.25 277.28L252.82 277.41L249.18 276.40L247.53 276.15L245.24 277.46L248.07 279.05L250.73 280.06L250.51 281.33L250.39 283.64L250.15 288.58L251.21 289.72L254.79 293.52L253.82 296.02L257.65 297.34L255.78 300.82L250.80 306.79L248.08 310.42L245.37 314.05L240.91 320.81L234.98 326.70L242.56 336.85L247.60 343.38L259.55 349.17L267.55 352.96L279.01 357.85L288.11 361.73L291.97 367.33L299.06 370.01L305.75 372.55L313.11 375.22L317.27 380.08L318.47 380.39L319.66 380.70L325.46 381.88L331.38 387.12L335.10 391.19L337.67 391.71L339.34 391.78L341.70 393.15L343.96 395.16L347.48 398.93L351.78 402.89L355.44 406.26L356.01 405.02L354.14 403.17L349.30 397.75L348.14 396.45L347.11 394.52L346.09 392.61L345.19 390.91L344.28 388.59L342.78 384.88L341.94 382.60L345.11 384.56L344.50 381.73L342.90 380.17L340.98 379.90L339.10 380.01L337.81 379.21L336.94 376.49L336.87 374.84L336.42 371.97L335.13 369.60L332.66 366.95L329.75 363.83L328.69 362.52L327.63 361.22L326.45 359.54L325.28 357.86L324.37 356.31L323.47 354.75L322.52 352.02L323.52 350.07L324.18 348.92L323.83 345.35L323.24 343.33L322.69 341.46L321.39 339.42L319.05 335.84L317.45 334.28L315.62 332.68L314.08 330.75L312.72 328.92L311.57 327.75L309.12 325.33L308.04 324.06L306.47 321.79L304.41 319.09L303.79 318.01L302.38 316.35L300.57 314.86L299.77 312.94L300.46 311.54L303.16 309.63L306.34 308.27L308.41 304.02L310.16 300.41L310.75 298.64L311.52 295.27L312.35 293.87L316.12 291.37L316.65 289.95L315.87 288.65L314.74 285.06L314.38 283.11L314.37 279.61L314.66 276.29L314.92 274.69L315.15 273.34L310.84 272.26L308.01 274.03L307.62 275.63L304.39 275.92L302.16 282.16L301.85 284.98L296.51 283.50L293.75 281.19L292.50 279.85L291.65 278.94L290.43 277.64L286.87 275.84L286.20 271.44L284.41 271.94L283.20 271.38Z" data-ward="16" /><path id="ward-9" class="ward" d="M857.61 445.40L855.87 445.68L854.55 445.94L852.32 445.57L849.80 448.11L847.09 450.64L844.39 453.17L841.49 455.70L835.18 453.84L833.17 453.98L830.57 453.91L825.50 453.77L823.02 454.86L820.22 454.72L817.41 454.59L813.61 452.49L809.82 450.39L807.18 448.81L804.64 448.45L801.26 449.91L796.61 453.86L794.58 453.87L791.71 453.89L789.47 453.91L787.52 456.17L785.55 458.49L782.69 459.76L779.84 461.03L777.98 460.55L774.23 459.57L772.38 459.09L770.97 458.70L768.87 460.97L766.63 464.13L765.39 464.96L764.14 465.80L764.68 467.18L765.36 469.17L766.07 471.25L766.47 474.90L766.77 477.59L768.95 480.10L772.29 480.41L777.95 480.83L781.45 482.54L782.56 483.08L785.88 485.01L786.99 485.65L790.70 487.94L791.84 488.65L794.00 490.70L794.66 493.82L795.14 498.67L794.41 500.72L793.44 502.55L792.48 504.38L790.25 505.70L789.35 506.56L787.47 508.37L786.34 512.53L784.96 518.85L784.43 524.54L783.84 531.01L783.29 536.93L782.78 540.29L782.28 543.64L781.17 548.98L779.40 548.89L774.27 548.41L769.92 548.00L768.12 547.83L764.03 549.05L759.87 550.44L758.46 550.91L756.54 554.44L754.55 558.11L750.31 565.41L749.22 571.46L749.08 573.52L748.98 575.03L748.28 576.53L744.09 575.90L740.50 574.00L737.32 571.75L733.64 569.10L732.25 568.10L730.52 566.72L728.07 564.76L725.67 562.92L724.01 561.66L721.30 560.31L718.53 561.39L720.43 562.44L721.68 563.49L723.35 565.31L725.55 568.41L730.60 572.62L733.19 575.72L734.11 576.82L736.04 578.55L736.26 581.17L734.04 582.56L732.55 583.49L728.12 585.38L727.75 588.15L727.16 591.13L726.49 594.92L730.79 597.20L733.51 598.64L736.39 599.20L741.12 600.06L751.78 599.37L757.43 598.89L759.16 599.01L761.41 599.16L763.25 599.29L766.36 599.51L769.55 600.09L774.36 600.98L776.19 601.58L778.59 602.39L781.09 595.71L784.84 587.57L791.08 589.94L795.75 591.84L803.31 594.92L805.36 595.52L809.53 596.93L811.46 598.81L815.10 602.78L819.57 603.83L821.42 604.39L826.27 605.86L827.94 607.81L829.53 609.66L830.40 610.67L831.74 612.21L833.33 614.22L834.91 616.23L838.26 621.46L840.88 622.64L845.40 624.93L846.73 625.90L848.78 627.37L849.88 627.95L851.51 628.80L854.07 628.31L855.27 628.08L857.09 627.85L858.91 627.61L862.53 627.83L866.16 631.25L868.68 634.76L869.67 636.16L870.65 637.55L872.02 639.51L873.35 641.32L876.59 644.22L877.36 645.23L880.06 648.77L882.22 651.55L885.24 655.45L886.22 656.31L888.99 658.75L891.90 661.62L894.28 665.06L896.09 669.03L897.34 671.22L899.50 672.63L901.28 674.24L902.44 676.04L900.39 676.45L902.65 679.56L905.13 680.80L906.91 681.38L909.13 682.10L910.87 683.19L914.21 685.74L920.63 680.69L924.43 670.15L927.80 660.77L928.03 653.60L928.25 646.86L930.07 646.45L931.53 646.13L933.76 645.63L944.02 640.44L936.87 642.16L934.82 642.40L931.34 643.12L926.18 642.29L924.48 641.95L915.53 640.15L906.68 638.28L905.23 634.89L904.94 632.87L905.36 630.24L906.82 626.20L907.33 625.10L909.85 624.00L912.29 622.94L913.38 620.33L913.30 618.80L915.16 618.55L915.51 616.06L915.68 614.12L914.88 610.27L914.28 606.19L913.29 600.83L911.54 595.44L910.79 594.32L908.70 591.18L907.41 589.23L907.38 585.77L909.51 579.40L914.29 575.58L920.23 577.68L922.13 577.90L924.02 578.12L925.60 571.32L923.55 567.29L922.07 564.38L921.98 552.98L919.35 551.35L916.47 549.66L913.56 547.95L911.40 546.68L914.25 543.35L910.94 541.77L899.37 537.23L894.18 533.82L889.36 531.52L887.48 530.63L876.23 529.52L871.37 522.36L869.25 519.15L871.58 514.52L869.81 511.14L865.28 507.85L861.81 505.28L861.33 502.02L860.11 500.24L866.44 497.81L870.73 496.86L874.43 495.90L880.58 494.30L886.34 498.13L888.19 499.36L889.91 496.97L891.64 494.59L892.81 492.89L892.07 491.13L890.99 488.55L889.49 486.29L886.09 481.63L881.08 477.11L872.99 472.55L865.29 466.23L865.74 461.56L866.19 456.80L866.29 454.99L864.65 456.46L862.95 458.01L861.78 456.42L861.73 454.49L860.90 452.44L859.96 450.18L859.35 447.75L857.61 445.40Z" data-ward="9" /><path id="ward-4" class="ward" d="M515.21 241.77L510.52 239.86L508.40 239.04L505.82 238.06L502.62 236.84L499.09 235.55L490.14 235.08L480.94 234.60L474.29 234.41L472.82 234.37L468.90 234.26L463.61 234.12L459.32 234.00L456.75 233.66L452.79 231.95L448.06 229.90L443.66 228.00L442.09 227.32L440.81 226.77L439.49 226.20L437.31 225.25L435.11 224.30L432.67 223.24L430.16 222.16L428.70 221.53L425.29 220.05L423.74 219.41L422.19 218.77L418.17 217.36L415.70 216.50L410.62 214.72L405.58 212.95L402.88 212.01L399.62 210.81L398.40 210.36L396.48 209.65L394.51 208.93L390.40 206.40L388.16 205.00L385.14 202.80L383.72 201.77L382.27 200.72L380.81 199.68L379.20 198.57L377.59 197.47L374.21 195.37L370.67 194.66L367.56 192.35L364.95 191.65L363.25 192.01L363.71 194.81L361.58 197.37L357.31 197.48L355.38 200.34L354.88 202.45L358.50 204.40L360.25 206.07L361.18 206.95L361.08 209.49L361.02 210.93L362.14 212.37L363.02 213.19L367.21 217.20L368.76 219.80L369.78 221.51L368.23 225.39L368.34 227.61L370.20 233.35L370.36 236.88L370.37 238.52L370.38 240.20L370.40 242.26L363.64 246.73L359.63 244.36L358.70 243.34L352.36 237.22L351.19 238.74L348.12 244.00L346.45 242.03L341.58 239.16L337.23 240.22L335.46 239.94L333.24 239.59L332.06 238.69L329.27 236.22L326.53 234.57L324.75 238.21L322.85 242.15L323.05 248.47L321.57 248.63L320.06 249.11L318.55 249.92L317.03 251.55L314.37 253.54L313.10 252.75L311.62 251.24L311.95 253.47L312.16 254.97L312.62 259.42L312.75 261.38L313.09 262.74L313.86 264.92L314.63 267.77L315.41 270.76L315.15 273.34L319.03 274.68L325.34 276.80L328.31 277.33L332.68 278.10L334.25 278.41L335.82 278.71L339.74 279.77L342.81 280.44L347.86 281.89L349.03 282.47L350.74 283.33L355.55 282.74L357.69 282.65L359.87 282.55L361.62 282.87L364.13 283.33L364.88 286.15L365.55 297.29L366.52 298.58L371.72 305.49L378.65 311.82L381.59 319.86L385.42 324.92L395.53 327.42L396.50 338.69L400.97 342.58L408.19 336.17L414.10 330.92L429.99 333.90L439.52 332.14L446.50 333.70L449.36 333.24L452.89 332.68L453.83 331.69L454.76 330.69L454.70 328.62L454.64 326.54L456.26 324.16L459.91 324.52L464.35 329.95L466.61 328.45L467.55 326.37L470.38 326.72L473.49 325.47L475.77 320.19L470.01 307.60L469.64 300.71L468.21 295.10L467.41 291.95L463.19 287.43L461.34 281.37L460.87 279.57L460.22 270.94L475.06 275.55L480.35 280.99L482.91 283.55L486.85 284.45L490.08 283.37L494.55 285.33L498.89 289.27L502.01 292.04L507.29 292.61L512.29 292.32L511.86 286.64L511.82 277.55L519.85 275.86L524.41 269.36L524.65 263.39L521.23 252.63L515.21 241.77Z" data-ward="4" /><path id="ward-3" class="ward" d="M366.05 150.88L361.86 149.49L359.78 148.79L358.76 150.95L357.38 150.59L355.52 150.19L353.67 149.79L351.74 149.73L350.08 150.12L347.24 152.37L346.12 154.05L344.94 154.68L342.59 154.88L341.44 155.37L337.99 157.27L337.73 159.03L338.26 162.84L338.60 164.17L339.48 165.09L338.52 165.91L336.07 166.25L333.17 169.03L331.07 171.87L329.40 172.76L328.47 174.82L328.17 176.11L326.10 175.18L324.56 173.83L322.95 172.43L320.53 172.41L320.08 173.70L321.00 176.27L320.00 177.25L318.67 178.65L315.84 180.27L314.05 183.23L312.83 186.50L311.17 188.24L310.13 191.85L309.73 193.73L309.32 195.60L309.52 197.94L310.59 199.58L309.48 202.18L307.99 205.18L307.85 208.81L307.65 211.78L307.68 214.24L308.16 215.44L312.63 217.83L316.16 219.62L319.55 220.75L323.02 221.64L327.47 222.01L335.33 220.02L336.98 220.91L339.50 223.17L343.09 227.77L346.22 231.72L347.15 232.78L352.36 237.22L358.70 243.34L359.63 244.36L363.64 246.73L370.40 242.26L370.38 240.20L370.37 238.52L370.36 236.88L370.20 233.35L368.34 227.61L368.23 225.39L369.78 221.51L368.76 219.80L367.21 217.20L363.02 213.19L362.14 212.37L361.02 210.93L361.08 209.49L361.18 206.95L360.25 206.07L358.50 204.40L354.88 202.45L355.38 200.34L357.31 197.48L361.58 197.37L363.71 194.81L363.25 192.01L364.95 191.65L367.56 192.35L370.67 194.66L374.21 195.37L377.59 197.47L379.20 198.57L380.81 199.68L382.27 200.72L383.72 201.77L385.14 202.80L388.16 205.00L390.40 206.40L394.51 208.93L396.48 209.65L398.40 210.36L399.62 210.81L402.88 212.01L405.58 212.95L410.62 214.72L415.70 216.50L418.17 217.36L422.19 218.77L423.74 219.41L425.29 220.05L428.70 221.53L430.16 222.16L432.67 223.24L435.11 224.30L437.31 225.25L439.49 226.20L440.81 226.77L442.09 227.32L443.66 228.00L448.06 229.90L452.79 231.95L456.75 233.66L459.32 234.00L463.61 234.12L468.90 234.26L472.82 234.37L474.29 234.41L480.94 234.60L490.14 235.08L499.09 235.55L502.62 236.84L505.82 238.06L508.40 239.04L510.52 239.86L515.21 241.77L522.08 244.27L526.33 245.89L532.43 248.27L534.32 249.01L558.90 259.29L568.96 263.46L586.62 264.20L589.37 264.32L597.87 265.11L611.63 266.39L627.25 268.34L631.13 268.45L648.62 268.95L649.68 256.52L647.69 255.03L649.98 249.98L650.27 248.10L649.75 246.77L648.96 244.77L650.20 235.59L648.51 234.61L645.60 233.87L643.39 233.30L640.84 233.94L638.40 234.54L634.35 236.28L631.11 236.58L628.49 235.44L625.81 235.31L623.81 234.77L620.52 234.58L617.70 233.11L614.74 232.09L610.42 230.59L606.94 225.89L603.51 223.89L600.20 221.54L595.49 221.46L593.53 221.35L590.26 221.18L587.00 221.01L583.43 221.43L581.75 220.73L579.95 220.63L578.99 219.23L575.95 214.82L574.18 212.79L571.69 211.90L567.90 210.69L564.50 209.60L563.05 209.17L561.12 208.59L557.05 207.37L554.27 206.54L547.55 204.53L544.97 203.56L542.35 202.57L538.10 200.62L533.18 198.36L528.99 196.42L525.10 194.96L522.33 195.04L520.04 194.47L517.64 193.88L513.61 192.88L510.96 192.69L508.53 192.52L505.89 191.62L503.85 190.94L501.30 190.08L498.59 189.16L491.92 186.91L489.36 186.78L484.66 186.52L482.70 186.42L470.62 182.15L467.67 181.12L464.14 180.04L462.76 179.58L458.56 178.66L456.86 178.65L454.20 178.64L450.98 179.17L448.19 179.64L446.69 177.68L444.70 175.06L441.13 173.98L438.37 173.00L434.52 171.63L432.09 170.76L430.56 170.89L424.15 169.48L420.78 168.74L416.00 166.37L411.99 164.59L407.88 162.43L403.29 161.77L402.09 161.59L398.17 160.79L393.59 159.92L392.09 159.63L388.52 158.30L385.41 157.32L383.92 156.86L378.77 155.14L372.52 153.05L369.88 152.02L366.05 150.88Z" data-ward="3" /><path id="ward-7" class="ward" d="M686.71 334.02L672.07 326.46L670.06 325.42L660.06 317.85L647.01 342.23L646.87 343.47L646.05 349.76L644.64 351.05L639.92 354.93L646.00 366.34L646.84 367.91L652.13 372.36L655.16 374.39L662.19 374.04L666.44 373.82L670.68 373.82L674.30 378.53L675.94 379.48L680.44 382.30L682.49 388.01L681.41 392.52L680.48 395.72L678.76 399.90L678.49 401.53L683.58 404.00L684.73 404.56L687.68 406.56L687.98 408.76L688.89 412.02L691.60 412.32L694.13 412.67L695.28 413.64L696.57 415.43L696.27 417.96L697.91 423.29L697.99 425.30L698.07 427.32L697.44 430.84L697.09 432.70L694.75 434.77L692.78 436.48L691.86 439.49L691.10 441.96L690.94 444.71L690.74 448.07L690.64 449.83L685.30 451.04L686.08 453.34L686.50 454.59L687.12 456.45L692.47 458.18L696.58 459.61L700.97 462.17L702.41 462.99L705.72 464.88L707.79 466.22L709.85 467.56L713.33 470.41L714.97 473.94L718.03 478.85L721.16 481.81L726.53 484.56L729.48 489.28L732.49 493.31L734.56 495.12L736.14 496.51L737.10 497.24L738.37 500.68L737.39 502.07L735.92 503.16L737.41 505.11L739.27 504.75L743.15 503.99L747.64 503.42L749.84 503.14L755.89 502.65L755.89 500.56L755.88 497.50L756.16 493.47L756.25 492.25L756.82 489.19L758.97 489.05L758.85 487.69L757.14 486.20L755.43 484.71L753.10 482.12L751.45 481.52L749.26 481.58L749.78 475.94L750.67 471.65L753.41 470.08L756.83 469.56L760.08 469.06L763.47 467.69L764.68 467.18L764.14 465.80L765.39 464.96L766.63 464.13L768.87 460.97L770.97 458.70L772.38 459.09L774.23 459.57L777.98 460.55L779.84 461.03L782.69 459.76L785.55 458.49L787.52 456.17L789.47 453.91L791.71 453.89L794.58 453.87L796.61 453.86L801.26 449.91L804.64 448.45L807.18 448.81L809.82 450.39L813.61 452.49L817.41 454.59L820.22 454.72L823.02 454.86L825.50 453.77L830.57 453.91L833.17 453.98L835.18 453.84L841.49 455.70L844.39 453.17L847.09 450.64L849.80 448.11L852.32 445.57L854.55 445.94L855.87 445.68L857.61 445.40L859.35 447.75L859.96 450.18L860.90 452.44L861.73 454.49L861.78 456.42L862.95 458.01L864.65 456.46L866.29 454.99L866.19 456.80L865.74 461.56L865.29 466.23L872.99 472.55L881.08 477.11L889.83 463.03L897.35 454.05L906.95 447.45L899.03 437.34L893.04 429.57L893.51 426.57L893.75 424.75L893.97 423.16L894.17 421.61L894.49 419.13L894.69 417.57L894.93 415.49L895.11 413.89L895.34 412.06L895.47 410.29L895.60 408.64L886.73 409.19L881.24 411.10L874.66 407.96L860.81 409.40L856.69 413.26L852.62 415.72L852.39 417.90L850.16 418.56L847.56 416.91L846.43 415.42L839.44 411.17L835.40 405.27L838.87 406.40L845.75 400.56L847.98 399.43L847.76 397.87L845.21 397.08L844.83 394.84L844.29 391.64L842.46 390.51L838.48 390.14L837.90 388.60L836.75 387.51L837.09 386.06L841.25 384.24L842.89 382.91L844.32 379.15L844.68 376.52L845.80 374.83L842.08 374.43L831.65 372.95L822.69 371.69L821.36 371.49L815.88 370.65L802.28 368.83L795.85 367.52L779.50 364.21L763.79 359.47L759.88 358.73L745.32 355.99L740.25 355.19L720.57 338.62L700.59 341.20L686.71 334.02Z" data-ward="7" /><path id="ward-19" class="ward" d="M158.65 213.82L153.51 209.94L149.22 206.70L139.99 199.51L137.95 197.92L131.30 194.58L129.38 193.62L125.75 191.79L122.12 189.96L118.37 187.60L108.43 182.57L91.30 173.50L89.64 171.70L78.82 160.05L75.03 155.97L60.41 139.63L54.45 152.43L50.41 159.63L46.81 163.25L44.01 165.36L42.53 167.81L40.17 171.73L39.01 173.66L36.59 177.66L35.13 180.08L32.01 185.26L30.82 187.23L28.53 190.51L27.16 192.47L25.50 195.13L17.36 203.84L8.79 213.01L8.47 216.62L8.19 219.83L8.70 221.71L10.90 226.00L13.50 229.70L16.77 234.35L19.52 238.26L22.33 242.25L23.94 243.92L25.52 246.79L27.06 248.98L33.05 257.51L34.82 260.03L37.20 263.89L38.75 266.41L47.69 271.80L49.67 272.99L52.35 273.95L57.02 275.62L63.78 276.35L73.77 276.19L79.18 277.07L83.15 278.39L85.96 279.32L88.04 281.19L90.28 283.78L92.10 285.63L96.17 288.58L100.42 291.53L104.53 291.94L108.19 292.30L111.23 294.53L114.92 296.82L117.05 296.44L122.25 296.86L123.57 297.85L128.55 301.29L133.40 304.63L136.55 306.81L139.96 309.16L143.53 311.61L149.16 315.50L150.48 317.78L151.81 320.05L155.87 320.93L158.42 321.75L160.82 322.53L164.36 326.21L166.71 328.62L168.65 330.61L171.30 332.26L170.49 335.28L169.84 336.45L168.37 338.42L164.17 342.70L162.23 345.10L160.95 346.69L158.96 349.16L159.17 350.03L160.82 350.83L161.14 350.94L164.13 351.68L164.44 351.80L165.03 352.67L165.48 354.24L165.16 355.69L164.59 358.32L164.28 359.70L166.31 361.85L166.68 362.32L166.72 364.46L166.50 365.90L166.00 369.29L165.59 372.12L165.30 374.04L165.82 376.59L165.82 376.59L165.91 376.68L167.29 378.10L168.83 380.31L170.34 381.60L170.59 384.23L170.64 384.30L170.62 384.85L169.58 385.66L171.00 386.81L171.74 385.46L172.48 384.11L173.72 381.85L175.81 380.84L181.52 381.51L190.82 384.99L196.95 388.30L200.52 388.18L203.59 386.33L201.80 382.10L202.89 377.64L199.20 369.87L197.51 366.31L199.65 362.80L203.78 361.92L206.84 361.43L212.57 355.09L215.13 348.59L216.51 344.74L234.98 326.70L240.91 320.81L245.37 314.05L248.08 310.42L250.80 306.79L255.78 300.82L257.65 297.34L253.82 296.02L254.79 293.52L251.21 289.72L250.15 288.58L250.39 283.64L250.51 281.33L250.73 280.06L248.07 279.05L245.24 277.46L245.44 275.73L245.13 274.08L243.94 272.74L243.09 271.29L240.94 267.30L238.03 262.08L236.06 258.55L234.77 256.67L232.57 253.47L227.32 245.83L216.90 237.10L210.45 234.71L208.98 234.17L207.52 233.62L205.48 232.87L196.27 231.97L192.40 229.60L184.19 224.59L181.28 220.54L176.11 214.42L170.39 210.81L168.60 209.68L159.74 214.65L158.65 213.82Z" data-ward="19" /><path id="ward-6" class="ward" d="M648.62 268.95L631.13 268.45L627.25 268.34L611.63 266.39L597.87 265.11L589.37 264.32L586.62 264.20L568.96 263.46L558.90 259.29L534.32 249.01L532.43 248.27L526.33 245.89L522.08 244.27L515.21 241.77L521.23 252.63L524.65 263.39L524.41 269.36L519.85 275.86L511.82 277.55L511.86 286.64L512.29 292.32L507.29 292.61L502.01 292.04L498.89 289.27L494.55 285.33L490.08 283.37L486.85 284.45L482.91 283.55L480.35 280.99L475.06 275.55L460.22 270.94L460.87 279.57L461.34 281.37L463.19 287.43L467.41 291.95L468.21 295.10L469.64 300.71L470.01 307.60L475.77 320.19L473.49 325.47L470.38 326.72L467.55 326.37L466.61 328.45L464.35 329.95L470.49 333.61L475.21 333.83L476.75 335.47L478.74 337.03L497.96 352.07L499.67 353.40L506.35 358.57L518.23 367.53L521.14 371.32L522.69 373.34L523.78 374.75L525.92 374.34L527.76 374.01L529.03 374.73L531.34 372.93L533.10 371.43L534.48 370.27L537.81 371.60L541.70 373.18L545.61 374.76L550.06 374.23L550.99 375.98L551.66 377.24L552.65 378.12L553.63 379.00L555.82 381.79L559.47 387.24L561.49 389.11L563.99 391.42L567.64 392.40L570.74 393.23L572.02 393.46L574.98 393.99L577.15 394.38L578.81 394.68L582.39 394.28L584.27 394.07L585.59 393.70L588.04 393.03L589.87 392.52L593.68 391.58L596.09 393.96L595.37 398.35L595.09 399.57L594.81 400.79L592.30 406.01L591.39 408.92L595.47 410.77L597.12 411.48L600.11 412.77L602.00 413.55L604.49 413.98L605.94 414.22L607.20 414.44L609.79 414.94L611.17 416.67L612.09 419.02L614.66 420.66L617.24 421.06L619.68 422.09L621.19 422.79L622.62 423.14L625.21 424.50L626.93 424.92L629.00 425.30L630.25 425.88L631.69 426.71L634.84 427.81L637.03 430.06L640.31 431.29L643.02 432.28L644.93 432.91L646.78 435.53L650.07 437.19L652.02 438.07L653.04 439.27L654.07 440.46L656.76 440.71L658.18 440.92L659.61 441.13L661.57 442.41L663.14 443.18L664.38 443.73L666.96 444.16L668.95 444.96L670.81 444.52L672.13 443.65L673.45 442.78L675.01 441.54L676.14 441.02L678.02 441.60L678.98 440.00L679.96 438.33L680.66 437.13L681.65 435.45L682.28 434.38L684.18 432.78L686.06 431.21L688.42 431.71L692.02 432.90L692.88 431.61L694.26 429.29L695.10 427.88L695.90 426.53L698.07 427.32L697.99 425.30L697.91 423.29L696.27 417.96L696.57 415.43L695.28 413.64L694.13 412.67L691.60 412.32L688.89 412.02L687.98 408.76L687.68 406.56L684.73 404.56L683.58 404.00L678.49 401.53L678.76 399.90L680.48 395.72L681.41 392.52L682.49 388.01L680.44 382.30L675.94 379.48L674.30 378.53L670.68 373.82L666.44 373.82L662.19 374.04L655.16 374.39L652.13 372.36L646.84 367.91L646.00 366.34L639.92 354.93L644.64 351.05L646.05 349.76L646.87 343.47L647.01 342.23L660.06 317.85L655.66 313.98L645.50 305.47L645.73 302.74L646.06 298.91L648.62 268.95Z" data-ward="6" /><path id="ward-14" class="ward" d="M541.70 373.18L537.81 371.60L534.48 370.27L533.10 371.43L531.34 372.93L529.03 374.73L530.10 375.81L531.92 378.00L533.79 380.10L536.45 381.80L538.12 383.58L538.91 384.72L540.11 386.43L536.98 389.07L538.02 391.22L538.79 393.04L537.81 395.68L537.38 396.84L534.92 399.76L533.27 401.02L532.60 402.69L533.26 404.39L534.31 407.09L534.66 409.19L534.90 410.64L535.01 414.04L538.32 420.63L542.15 428.24L547.16 434.48L549.70 436.25L553.26 438.74L552.84 442.09L551.51 445.86L561.53 452.60L567.46 455.62L572.87 457.80L575.49 463.07L580.33 472.83L576.90 482.95L578.07 483.30L579.99 483.88L581.55 484.46L583.11 485.04L586.26 484.34L589.34 483.08L593.67 481.12L595.39 480.60L597.12 480.08L598.70 480.50L600.29 480.92L603.26 483.77L605.77 486.21L606.84 487.55L607.90 488.99L608.96 490.42L610.05 491.43L611.38 491.29L615.83 491.97L619.55 492.61L621.59 492.92L622.36 493.84L623.67 495.40L627.57 496.22L629.87 497.21L632.31 499.63L633.84 499.99L636.91 499.96L639.03 500.61L643.17 502.29L647.96 503.79L648.98 504.54L650.99 507.48L654.08 509.04L656.21 509.65L663.75 508.18L665.84 507.83L671.53 506.96L676.05 508.06L684.18 511.41L684.78 507.31L685.85 504.41L686.87 502.50L687.83 500.57L688.80 498.64L688.16 495.22L688.98 491.95L688.23 488.80L686.54 485.00L686.09 482.81L687.31 480.26L687.33 476.95L686.20 473.51L685.59 471.74L683.77 466.50L684.94 462.11L687.12 456.45L686.50 454.59L686.08 453.34L685.30 451.04L690.64 449.83L690.74 448.07L690.94 444.71L691.10 441.96L691.86 439.49L692.78 436.48L694.75 434.77L697.09 432.70L697.44 430.84L698.07 427.32L695.90 426.53L695.10 427.88L694.26 429.29L692.88 431.61L692.02 432.90L688.42 431.71L686.06 431.21L684.18 432.78L682.28 434.38L681.65 435.45L680.66 437.13L679.96 438.33L678.98 440.00L678.02 441.60L676.14 441.02L675.01 441.54L673.45 442.78L672.13 443.65L670.81 444.52L668.95 444.96L666.96 444.16L664.38 443.73L663.14 443.18L661.57 442.41L659.61 441.13L658.18 440.92L656.76 440.71L654.07 440.46L653.04 439.27L652.02 438.07L650.07 437.19L646.78 435.53L644.93 432.91L643.02 432.28L640.31 431.29L637.03 430.06L634.84 427.81L631.69 426.71L630.25 425.88L629.00 425.30L626.93 424.92L625.21 424.50L622.62 423.14L621.19 422.79L619.68 422.09L617.24 421.06L614.66 420.66L612.09 419.02L611.17 416.67L609.79 414.94L607.20 414.44L605.94 414.22L604.49 413.98L602.00 413.55L600.11 412.77L597.12 411.48L595.47 410.77L591.39 408.92L592.30 406.01L594.81 400.79L595.09 399.57L595.37 398.35L596.09 393.96L593.68 391.58L589.87 392.52L588.04 393.03L585.59 393.70L584.27 394.07L582.39 394.28L578.81 394.68L577.15 394.38L574.98 393.99L572.02 393.46L570.74 393.23L567.64 392.40L563.99 391.42L561.49 389.11L559.47 387.24L555.82 381.79L553.63 379.00L552.65 378.12L551.66 377.24L550.99 375.98L550.06 374.23L545.61 374.76L541.70 373.18Z" data-ward="14" /><path id="ward-2" class="ward" d="M310.35 136.84L306.27 134.79L304.51 133.69L301.91 132.06L297.79 131.60L296.60 131.47L295.16 131.27L292.13 130.75L289.17 130.06L285.22 129.14L282.03 128.03L278.00 126.62L275.78 126.38L271.73 128.09L270.56 128.80L267.56 130.60L265.12 132.08L258.68 135.96L254.99 136.30L249.21 136.82L246.87 135.67L244.54 134.52L243.11 133.81L241.75 133.22L239.01 132.02L236.91 131.83L234.41 131.62L232.26 131.43L230.52 132.17L226.37 133.93L224.96 133.85L221.74 133.81L219.14 133.24L219.17 135.31L219.18 136.59L219.45 155.84L220.35 167.00L224.26 172.77L225.77 174.20L227.25 175.27L228.80 177.60L229.67 179.60L230.19 181.05L230.48 182.76L227.47 188.14L224.58 188.39L221.70 188.63L219.82 189.31L219.09 190.33L220.15 191.62L221.53 192.80L222.32 194.43L222.31 195.83L225.76 199.04L228.88 200.39L230.68 202.28L232.14 205.40L239.12 206.81L237.21 209.94L238.15 211.52L236.41 213.68L235.53 214.76L234.60 215.92L235.65 217.06L237.38 218.32L252.02 228.90L261.21 235.14L264.38 236.15L265.59 236.24L266.99 234.83L267.72 233.84L268.44 232.86L269.25 231.96L271.35 232.38L272.21 233.37L274.70 238.78L277.92 241.78L279.93 242.88L282.45 242.93L284.22 243.42L289.51 245.71L290.78 246.52L292.59 247.54L291.91 250.17L290.29 252.23L289.59 254.40L289.11 257.81L289.06 259.92L288.33 262.57L287.05 266.92L286.20 271.44L286.87 275.84L290.43 277.64L291.65 278.94L292.50 279.85L293.75 281.19L296.51 283.50L301.85 284.98L302.16 282.16L304.39 275.92L307.62 275.63L308.01 274.03L310.84 272.26L315.15 273.34L315.41 270.76L314.63 267.77L313.86 264.92L313.09 262.74L312.75 261.38L312.62 259.42L312.16 254.97L311.95 253.47L311.62 251.24L313.10 252.75L314.37 253.54L317.03 251.55L318.55 249.92L320.06 249.11L321.57 248.63L323.05 248.47L322.85 242.15L324.75 238.21L326.53 234.57L329.27 236.22L332.06 238.69L333.24 239.59L335.46 239.94L337.23 240.22L341.58 239.16L346.45 242.03L348.12 244.00L351.19 238.74L352.36 237.22L347.15 232.78L346.22 231.72L343.09 227.77L339.50 223.17L336.98 220.91L335.33 220.02L327.47 222.01L323.02 221.64L319.55 220.75L316.16 219.62L312.63 217.83L308.16 215.44L307.68 214.24L307.65 211.78L307.85 208.81L307.99 205.18L309.48 202.18L310.59 199.58L309.52 197.94L309.32 195.60L309.73 193.73L310.13 191.85L311.17 188.24L312.83 186.50L314.05 183.23L315.84 180.27L318.67 178.65L320.00 177.25L321.00 176.27L320.08 173.70L320.53 172.41L322.95 172.43L324.56 173.83L326.10 175.18L328.17 176.11L328.47 174.82L329.40 172.76L331.07 171.87L333.17 169.03L336.07 166.25L338.52 165.91L339.48 165.09L338.60 164.17L338.26 162.84L337.73 159.03L337.99 157.27L341.44 155.37L342.59 154.88L344.94 154.68L346.12 154.05L347.24 152.37L350.08 150.12L351.74 149.73L353.67 149.79L355.52 150.19L357.38 150.59L358.76 150.95L359.78 148.79L356.47 147.89L350.18 146.27L346.07 145.21L341.39 145.01L339.02 144.91L336.67 144.36L334.24 143.50L332.96 143.28L328.68 145.61L326.93 145.80L325.39 145.97L324.09 144.89L323.45 143.02L318.78 139.99L311.55 137.29L310.35 136.84Z" data-ward="2" /><path id="ward-5" class="ward" d="M720.04 279.14L718.48 278.91L708.17 276.13L706.79 275.69L702.48 274.29L699.54 272.30L696.17 270.03L693.03 267.90L691.11 266.60L687.34 263.01L685.64 261.39L683.05 258.92L681.53 257.48L680.03 253.98L679.41 252.54L678.30 249.97L674.65 248.05L669.63 245.41L664.94 242.94L662.52 241.73L659.30 240.13L656.19 238.58L652.51 236.75L650.20 235.59L648.96 244.77L649.75 246.77L650.27 248.10L649.98 249.98L647.69 255.03L649.68 256.52L648.62 268.95L646.06 298.91L645.73 302.74L645.50 305.47L655.66 313.98L660.06 317.85L670.06 325.42L672.07 326.46L686.71 334.02L700.59 341.20L720.57 338.62L740.25 355.19L745.32 355.99L759.88 358.73L763.79 359.47L779.50 364.21L795.85 367.52L802.28 368.83L815.88 370.65L821.36 371.49L822.69 371.69L831.65 372.95L842.08 374.43L845.80 374.83L844.68 376.52L844.32 379.15L842.89 382.91L841.25 384.24L837.09 386.06L836.75 387.51L837.90 388.60L838.48 390.14L842.46 390.51L844.29 391.64L844.83 394.84L845.21 397.08L847.76 397.87L847.98 399.43L845.75 400.56L838.87 406.40L835.40 405.27L839.44 411.17L846.43 415.42L847.56 416.91L850.16 418.56L852.39 417.90L852.62 415.72L856.69 413.26L860.81 409.40L874.66 407.96L881.24 411.10L886.73 409.19L895.60 408.64L895.47 410.29L895.34 412.06L895.11 413.89L894.93 415.49L894.69 417.57L894.49 419.13L894.17 421.61L893.97 423.16L893.75 424.75L893.51 426.57L893.04 429.57L900.38 427.45L905.51 426.84L910.61 426.87L915.53 428.27L917.77 429.96L920.00 431.65L922.48 432.28L924.37 432.69L932.70 432.88L932.69 430.37L932.69 428.94L931.91 426.13L931.88 423.62L932.64 420.44L932.69 417.86L932.75 414.74L932.81 411.46L932.86 408.60L932.90 406.32L932.57 403.45L932.18 400.21L931.83 397.23L931.55 394.90L932.17 391.54L930.16 375.18L929.80 372.25L929.31 370.68L928.33 367.57L927.78 365.82L927.70 362.87L927.67 361.60L927.78 359.61L927.61 357.95L926.68 355.34L925.60 354.07L924.55 352.19L924.15 350.95L922.85 348.34L921.28 348.16L919.51 345.92L917.62 343.53L916.47 339.85L916.45 337.81L915.38 332.98L915.13 331.48L911.22 329.29L906.74 327.68L903.22 326.42L897.24 324.32L894.70 323.42L891.87 321.89L887.12 319.44L885.26 318.48L883.63 318.95L881.23 319.63L879.78 322.54L878.46 325.21L875.85 330.45L873.04 337.11L872.50 338.39L869.16 338.22L867.70 338.15L867.22 337.98L866.05 337.51L865.04 337.16L864.09 336.91L863.96 336.93L863.69 336.94L863.34 336.94L863.14 336.90L862.73 336.83L862.35 336.70L862.27 336.64L862.01 336.59L861.52 336.42L860.45 335.87L858.86 335.28L858.03 335.18L857.30 335.20L856.28 335.28L855.37 335.36L855.18 335.37L854.62 335.40L853.86 335.36L853.16 335.16L852.79 334.90L851.34 333.64L850.96 333.35L849.19 331.99L848.14 331.18L846.38 329.83L843.61 327.70L842.14 326.14L840.42 324.32L838.10 321.86L835.28 321.03L832.89 320.33L830.22 319.54L827.55 317.79L825.71 316.59L822.56 313.78L820.63 312.43L819.73 311.40L816.94 309.29L814.75 308.40L813.16 307.15L809.60 305.86L805.89 304.83L803.34 304.13L801.07 303.28L796.87 301.71L793.81 301.20L790.31 300.61L788.91 300.64L786.61 300.69L785.11 300.72L779.81 297.76L778.14 297.32L776.04 296.49L773.50 295.49L768.96 292.23L767.03 289.38L766.43 288.83L765.82 288.20L764.46 286.95L760.93 285.15L758.48 284.31L754.05 282.76L748.13 280.63L746.21 279.89L743.91 279.36L741.93 279.27L740.37 279.24L738.72 279.28L737.18 279.14L734.93 279.02L731.86 279.34L727.08 279.35L720.04 279.14Z" data-ward="5" /><path id="ward-12" class="ward" d="M556.52 537.27L551.29 533.97L546.07 532.15L543.76 531.37L539.54 531.45L539.44 533.72L539.61 538.10L539.68 539.84L535.38 539.54L530.39 538.91L528.23 538.64L528.12 539.98L527.98 542.25L526.15 544.92L524.77 546.93L521.83 550.52L522.85 551.51L524.89 552.49L526.91 553.47L532.00 555.25L534.67 556.19L535.69 557.02L537.21 558.27L538.23 559.42L538.89 560.49L539.80 562.00L541.13 563.47L543.64 566.26L544.67 567.41L539.00 574.07L533.97 579.97L535.97 585.77L536.97 587.55L540.12 589.70L546.72 594.94L553.96 600.60L556.50 603.70L560.03 607.45L563.43 609.29L570.86 612.18L571.07 612.25L575.36 613.39L575.42 613.43L575.49 613.47L579.17 615.73L580.83 616.60L581.57 616.89L582.36 616.94L585.82 616.79L586.39 616.74L587.08 616.47L588.25 615.93L590.03 615.91L591.23 616.02L591.29 616.03L593.53 616.50L595.09 616.78L595.25 616.82L595.34 616.84L599.48 617.83L602.30 618.32L604.41 619.03L604.82 619.19L609.09 621.06L612.58 623.83L615.48 626.89L617.77 630.00L624.01 639.21L630.72 642.40L631.59 643.52L634.27 646.97L635.15 649.44L636.65 649.87L640.98 654.63L640.76 658.05L645.41 659.12L648.33 661.62L651.22 663.48L652.15 664.71L653.42 666.40L654.61 667.66L654.83 669.00L654.24 671.67L653.92 675.67L657.31 672.04L661.23 668.35L662.09 667.39L665.68 663.37L671.38 659.62L677.27 655.82L680.75 653.59L682.21 652.30L683.67 651.01L685.18 651.16L686.68 651.30L689.84 651.43L693.00 651.56L698.02 649.00L702.30 647.73L703.97 648.76L707.45 650.89L709.90 652.67L712.39 654.48L717.17 655.16L717.88 651.64L720.19 651.83L725.94 653.18L729.13 652.80L732.09 650.23L734.98 647.56L736.63 649.36L742.33 654.55L745.72 654.00L752.53 653.70L757.69 657.10L763.99 661.25L774.28 652.91L779.93 652.13L785.41 655.43L789.20 644.65L785.24 639.18L782.71 635.69L782.14 631.51L784.07 626.65L785.86 622.11L785.13 618.20L783.55 615.77L783.15 611.59L782.50 610.49L781.65 609.06L779.81 605.80L779.81 604.55L779.82 602.77L778.59 602.39L776.19 601.58L774.36 600.98L769.55 600.09L766.36 599.51L763.25 599.29L761.41 599.16L759.16 599.01L757.43 598.89L751.78 599.37L741.12 600.06L736.39 599.20L733.51 598.64L730.79 597.20L726.49 594.92L720.27 590.52L709.85 583.14L704.94 576.76L700.06 570.11L696.95 565.87L693.46 562.00L689.91 558.13L686.04 553.89L681.07 548.66L673.91 544.43L670.52 542.43L666.93 540.68L664.22 539.37L661.41 538.00L658.04 536.38L655.92 535.10L654.81 535.73L651.81 538.09L652.24 544.27L654.02 548.49L655.83 550.74L656.60 551.80L657.36 554.05L657.56 555.34L658.54 558.53L660.00 560.77L661.34 562.83L661.81 564.04L661.33 565.40L660.39 567.25L655.50 566.70L653.72 566.45L650.62 565.95L648.99 562.93L645.18 558.39L641.20 555.09L636.59 552.43L635.38 557.80L634.33 562.11L631.87 561.39L625.78 559.48L623.79 566.95L623.35 568.63L622.87 574.20L621.50 575.36L618.89 577.50L616.35 577.54L611.31 576.90L608.25 576.79L606.36 577.64L605.05 578.32L605.27 579.75L604.40 580.96L603.67 581.99L604.23 585.23L604.39 586.72L601.17 590.08L597.88 593.19L595.67 595.65L595.27 597.75L597.50 602.87L597.54 604.80L597.58 606.54L598.05 607.87L590.90 608.21L586.48 606.91L578.67 604.61L570.67 602.26L564.20 600.35L562.19 597.76L561.04 592.66L557.86 587.39L558.09 583.40L559.18 580.76L559.23 577.75L561.06 576.51L563.66 571.77L565.01 569.33L568.03 563.82L567.11 560.88L566.90 558.85L565.23 557.94L563.50 555.90L564.68 554.78L566.12 552.65L563.85 549.12L561.62 545.68L559.80 542.68L556.52 537.27Z" data-ward="12" /><path id="ward-10" class="ward" d="M849.88 627.95L848.78 627.37L846.73 625.90L845.40 624.93L840.88 622.64L838.26 621.46L834.91 616.23L833.33 614.22L831.74 612.21L830.40 610.67L829.53 609.66L827.94 607.81L826.27 605.86L821.42 604.39L819.57 603.83L815.10 602.78L811.46 598.81L809.53 596.93L805.36 595.52L803.31 594.92L795.75 591.84L791.08 589.94L784.84 587.57L781.09 595.71L778.59 602.39L779.82 602.77L779.81 604.55L779.81 605.80L781.65 609.06L782.50 610.49L783.15 611.59L783.55 615.77L785.13 618.20L785.86 622.11L784.07 626.65L782.14 631.51L782.71 635.69L785.24 639.18L789.20 644.65L785.41 655.43L779.93 652.13L774.28 652.91L763.99 661.25L757.69 657.10L752.53 653.70L745.72 654.00L742.33 654.55L736.63 649.36L734.98 647.56L732.09 650.23L729.13 652.80L725.94 653.18L720.19 651.83L717.88 651.64L717.17 655.16L712.39 654.48L709.90 652.67L707.45 650.89L703.97 648.76L702.30 647.73L698.02 649.00L693.00 651.56L689.84 651.43L686.68 651.30L685.18 651.16L683.67 651.01L682.21 652.30L680.75 653.59L677.27 655.82L671.38 659.62L665.68 663.37L662.09 667.39L661.23 668.35L657.31 672.04L653.92 675.67L654.80 676.64L655.65 677.59L658.08 679.97L659.80 681.64L660.79 683.01L661.57 684.75L662.74 687.34L663.57 689.19L664.22 690.34L667.17 695.53L668.06 697.94L669.36 701.49L669.90 702.95L670.86 705.57L671.31 706.77L672.16 709.00L672.60 710.16L673.60 710.87L675.68 711.37L678.13 711.95L679.89 712.60L681.48 713.18L682.71 713.53L683.88 714.88L685.05 716.38L686.28 717.95L688.69 719.61L689.73 720.32L690.89 720.84L694.01 722.20L696.81 723.42L698.95 724.59L701.55 726.01L703.26 726.78L705.18 727.63L707.06 728.47L708.90 729.52L711.17 730.81L712.35 731.82L714.13 733.35L714.85 734.76L715.68 736.36L715.88 737.41L715.91 737.66L716.07 739.05L716.15 739.71L716.36 740.54L716.38 740.56L716.73 740.92L717.84 740.96L718.56 741.03L719.67 741.07L720.74 740.80L722.01 740.38L722.69 739.99L722.98 739.80L724.09 739.69L725.97 739.14L727.31 738.75L729.00 738.26L732.13 738.20L733.60 738.18L735.33 738.27L739.12 738.47L741.14 738.16L743.31 737.82L746.43 736.76L747.67 736.13L751.72 730.61L752.71 727.58L752.73 725.61L752.18 723.46L752.17 720.15L752.15 717.28L752.37 715.80L752.83 712.79L753.59 708.63L753.83 706.52L754.11 704.11L754.33 701.95L754.55 699.76L754.71 698.15L754.85 696.72L754.99 695.34L755.22 693.06L755.36 691.67L755.59 689.39L756.58 687.77L757.37 686.47L758.28 685.62L760.17 683.86L761.13 682.97L762.06 682.10L764.36 679.95L765.72 678.69L767.01 679.14L767.62 680.57L768.79 683.32L769.53 685.07L770.54 685.94L773.23 688.30L774.15 689.11L776.46 690.53L777.74 691.33L779.28 692.28L780.48 693.02L782.27 693.95L783.34 694.50L784.44 695.07L785.57 695.65L787.05 696.42L789.92 697.87L791.75 698.80L792.46 699.91L793.89 702.14L795.16 703.26L796.40 704.34L798.04 705.79L799.20 706.81L801.44 707.79L802.71 708.35L805.00 709.35L806.70 710.10L808.12 710.50L811.27 711.70L815.10 712.10L816.97 712.30L818.84 712.50L820.51 712.60L822.19 712.71L824.21 712.83L828.17 713.33L829.40 713.49L832.42 713.90L834.75 714.22L836.54 714.00L838.36 713.78L840.62 714.15L842.14 715.00L844.01 716.06L845.88 717.55L846.98 719.33L847.85 720.74L850.01 723.86L853.41 726.41L855.75 726.04L857.68 725.46L860.25 724.52L862.60 723.65L865.34 722.64L866.58 720.98L867.44 720.03L869.01 718.31L871.74 716.14L872.71 715.37L873.69 714.60L873.16 713.17L872.65 710.75L872.03 709.08L872.67 707.55L873.84 704.95L874.33 703.86L878.10 701.71L878.85 700.69L880.18 697.90L880.95 693.85L881.93 691.22L884.02 685.65L884.10 685.63L884.61 685.54L885.24 685.62L885.70 685.68L886.14 685.68L886.82 685.60L887.61 685.38L888.09 685.09L888.68 684.68L889.35 684.04L890.75 682.34L891.59 681.00L891.61 680.99L891.37 678.29L891.09 675.12L893.51 674.96L895.69 674.82L897.11 674.73L900.39 676.45L902.44 676.04L901.28 674.24L899.50 672.63L897.34 671.22L896.09 669.03L894.28 665.06L891.90 661.62L888.99 658.75L886.22 656.31L885.24 655.45L882.22 651.55L880.06 648.77L877.36 645.23L876.59 644.22L873.35 641.32L872.02 639.51L870.65 637.55L869.67 636.16L868.68 634.76L866.16 631.25L862.53 627.83L858.91 627.61L857.09 627.85L855.27 628.08L854.07 628.31L851.51 628.80L849.88 627.95Z" data-ward="10" /></svg>