<svg viewBox="0 0 1000.00 645.70" xmlns="http://www.w3.org/2000/svg"><style>.ward { fill: #e2e8f0; stroke: #fff; stroke-width: 0.5px; } .ward:hover { fill: #cbd5e1; }</style><path id="ward-4" class="ward" d="M519.72 162.16L516.73 160.38L515.76 159.66L514.37 160.03L513.50 160.87L513.48 162.46L514.04 164.83L514.92 166.72L516.35 168.64L519.26 171.62L521.36 174.56L515.11 174.86L509.43 174.11L504.95 173.53L498.80 173.64L495.03 173.65L488.82 182.77L483.48 192.51L484.10 197.22L484.30 198.73L484.53 200.49L484.75 202.10L484.96 203.70L485.19 205.41L485.43 207.22L485.66 208.92L485.90 210.69L486.11 212.29L486.44 213.80L486.88 215.43L487.29 216.93L487.70 218.46L488.12 220.04L488.55 221.61L488.95 223.11L489.39 224.75L489.83 226.24L490.65 227.88L491.46 229.52L492.25 231.10L493.06 232.72L493.78 234.16L494.49 235.58L495.62 237.79L496.47 238.68L497.47 239.71L502.84 245.10L504.17 246.21L505.45 246.49L507.25 246.76L508.52 247.94L510.47 249.83L511.34 250.71L512.39 249.79L514.99 247.87L517.07 247.57L518.67 247.46L519.99 247.30L522.07 246.91L523.88 246.41L526.04 246.06L527.57 245.94L528.78 245.85L530.12 245.69L531.51 245.52L532.75 245.38L534.51 245.21L536.14 244.97L537.81 244.67L539.70 244.58L541.58 244.75L542.73 245.12L545.14 245.82L546.40 246.13L547.84 246.53L549.41 247.01L550.68 247.34L551.97 247.66L554.25 248.37L557.59 250.48L558.82 251.78L559.80 253.07L560.71 254.60L561.71 256.47L562.79 258.27L563.84 259.79L564.74 261.33L565.66 262.89L566.75 264.78L567.57 266.62L568.31 268.27L569.16 269.88L570.17 271.44L571.89 273.24L572.90 273.96L574.55 274.65L575.86 274.70L577.72 274.65L579.29 274.56L581.28 274.61L582.71 274.83L584.44 275.35L585.68 275.31L586.88 274.82L587.96 273.96L589.11 273.28L590.56 273.57L592.46 274.23L594.08 274.47L596.05 275.29L597.97 276.06L600.43 277.08L602.35 278.20L603.84 279.67L605.28 281.24L606.40 282.80L607.85 284.58L611.25 286.86L612.78 287.79L614.42 288.48L616.11 289.44L617.80 290.40L619.19 291.68L620.61 292.96L622.27 294.93L623.84 296.76L624.46 297.84L625.65 298.71L626.86 299.36L628.13 299.92L629.24 300.43L631.29 301.37L632.37 301.97L633.62 303.18L634.13 304.96L634.76 307.13L635.19 308.86L635.51 310.50L635.91 312.65L636.19 314.15L636.59 317.78L636.60 319.52L636.98 321.66L637.70 322.64L638.97 323.47L640.23 323.65L642.00 323.94L643.82 324.31L645.46 324.62L646.85 324.45L648.16 324.07L649.50 323.53L651.98 322.94L654.05 323.24L655.37 325.22L656.29 326.15L657.74 326.39L657.29 325.08L657.28 323.73L657.25 321.97L657.23 320.19L655.89 318.75L654.50 317.25L652.94 315.57L651.42 313.94L650.38 312.81L652.00 312.09L654.11 311.34L655.88 310.73L657.68 310.32L660.12 309.84L662.34 309.41L664.18 309.05L665.76 310.09L666.89 310.84L668.04 311.60L669.09 312.29L670.66 313.16L671.97 313.73L673.44 314.37L674.71 314.90L678.74 316.26L680.44 316.18L684.00 316.02L686.22 315.57L689.98 315.54L693.68 315.94L696.54 315.83L700.40 317.06L703.63 318.33L704.98 321.43L706.38 324.86L707.17 327.09L707.97 329.32L707.34 330.38L706.69 331.46L708.48 332.42L710.09 332.32L711.48 331.20L712.38 330.39L714.16 330.23L715.61 328.91L716.64 327.98L717.33 326.75L717.99 325.57L719.15 324.52L720.35 323.65L720.61 321.17L720.44 318.60L719.71 316.35L719.75 313.98L719.93 312.12L720.12 310.07L720.27 308.39L719.66 307.19L718.57 305.97L716.73 303.93L715.76 302.84L714.69 301.65L713.43 300.23L712.68 298.48L711.87 296.46L711.20 294.77L710.47 292.95L709.93 291.60L709.38 290.23L708.83 288.87L708.29 287.51L707.66 285.94L707.06 284.42L706.34 282.64L705.89 281.50L705.18 279.83L704.36 278.06L703.39 275.98L702.69 274.46L701.90 272.76L700.22 269.22L699.40 267.78L698.62 266.42L697.45 264.37L696.70 263.06L695.93 261.72L695.09 260.24L693.48 257.39L692.57 255.76L691.74 254.25L690.87 252.67L689.82 250.77L688.88 249.07L688.04 247.55L687.23 246.09L685.29 242.56L684.35 240.76L683.67 239.40L682.70 237.45L681.87 235.79L681.00 234.04L680.24 232.52L679.46 230.96L678.52 229.08L677.44 226.90L676.70 225.42L675.75 223.51L674.29 220.59L673.09 219.29L671.48 217.56L670.25 216.23L668.66 214.52L667.64 213.42L666.32 212.01L664.99 210.57L663.84 209.32L662.96 208.38L662.12 207.47L660.89 206.15L660.57 204.98L660.11 203.31L659.16 202.57L657.51 201.27L656.05 200.13L654.42 198.87L653.11 197.84L651.07 196.24L650.10 195.49L649.03 194.52L647.79 191.97L647.28 190.88L645.51 190.48L643.35 189.54L642.38 188.66L640.66 187.05L640.38 184.67L640.22 182.64L640.05 181.24L639.19 180.31L638.45 178.15L637.48 177.04L637.11 175.52L636.79 174.11L637.27 172.05L637.62 170.29L637.00 168.93L636.33 167.78L635.54 166.37L633.60 165.07L633.21 166.31L632.97 167.90L633.13 170.59L632.86 172.25L631.77 173.29L629.94 174.16L629.81 176.15L629.93 177.40L629.96 178.75L630.31 179.97L628.77 180.96L626.83 180.35L624.32 179.78L621.63 179.30L619.61 178.97L617.47 179.13L615.41 179.50L615.86 182.07L616.98 183.06L618.79 184.35L620.81 186.06L621.80 187.50L622.60 188.85L623.38 190.33L623.78 191.58L623.37 193.60L622.26 195.49L619.63 195.41L618.30 195.29L616.43 195.04L615.18 197.12L615.36 198.74L615.92 200.48L616.41 202.03L617.08 204.03L616.34 205.38L614.34 206.12L613.16 206.29L611.45 206.53L609.63 206.19L608.06 205.83L606.66 205.16L602.57 201.56L598.05 197.39L594.49 194.41L592.86 192.36L592.24 190.88L591.74 189.75L591.28 188.48L590.77 187.03L588.33 187.14L586.21 188.97L585.89 191.22L582.53 190.93L577.44 189.45L576.19 188.77L574.95 188.08L572.31 186.60L569.10 184.75L563.59 181.54L558.98 178.82L557.03 177.67L549.05 172.77L546.17 171.88L544.45 171.06L543.33 170.52L540.98 169.40L538.34 167.52L536.75 166.38L532.50 163.71L529.18 162.48L526.41 162.35L522.03 162.54L519.72 162.16Z" data-ward="4" /><path id="ward-6" class="ward" d="M674.71 314.90L673.44 314.37L671.97 313.73L670.66 313.16L669.09 312.29L668.04 311.60L666.89 310.84L665.76 310.09L664.18 309.05L662.34 309.41L660.12 309.84L657.68 310.32L655.88 310.73L654.11 311.34L652.00 312.09L650.38 312.81L651.42 313.94L652.94 315.57L654.50 317.25L655.89 318.75L657.23 320.19L657.25 321.97L657.28 323.73L657.29 325.08L657.74 326.39L656.29 326.15L655.37 325.22L654.05 323.24L651.98 322.94L649.50 323.53L648.16 324.07L646.85 324.45L645.46 324.62L643.82 324.31L642.00 323.94L640.23 323.65L638.97 323.47L637.70 322.64L636.98 321.66L635.05 320.86L633.41 320.85L632.09 320.82L630.35 320.76L628.83 320.59L627.22 320.42L625.43 320.28L624.17 321.77L622.16 323.78L620.20 325.74L618.06 326.90L616.18 327.99L614.35 329.14L612.18 330.53L610.26 332.52L607.66 335.24L606.08 337.72L604.80 339.94L603.34 342.42L605.06 343.19L628.72 352.87L630.98 354.43L632.54 355.51L635.82 357.57L638.53 359.26L641.04 362.02L643.81 365.25L645.79 367.49L647.17 367.84L648.81 367.29L649.48 366.22L649.48 364.68L649.50 363.15L649.62 361.45L649.92 359.96L650.61 358.47L651.39 357.44L652.35 356.73L653.83 355.60L654.85 354.82L656.33 353.60L657.98 353.16L658.37 354.30L659.55 356.26L660.70 357.34L662.05 358.35L663.38 358.94L664.47 359.89L664.69 361.85L665.57 363.38L666.17 364.44L666.99 365.88L669.14 367.14L670.16 368.13L670.94 369.57L671.59 371.10L671.89 372.63L672.12 373.82L672.43 375.30L672.81 376.91L673.51 378.65L674.99 381.60L675.50 382.91L675.93 384.12L676.15 385.41L676.49 387.28L676.83 389.15L677.65 391.54L678.87 393.98L679.90 395.39L680.66 396.77L682.71 399.04L681.15 400.15L680.41 401.34L679.66 402.49L678.86 403.64L678.07 404.69L676.96 406.48L676.24 407.59L675.53 408.67L674.55 410.39L674.02 412.49L673.64 413.71L673.12 415.10L673.64 416.70L673.91 418.04L674.04 419.74L674.74 420.72L675.35 421.79L676.14 423.18L676.79 424.30L677.52 425.58L678.26 426.87L678.76 428.02L679.30 429.35L681.71 432.02L682.18 433.85L683.23 435.89L684.02 437.14L684.20 438.51L684.73 440.59L685.74 441.67L686.50 442.62L687.23 443.66L688.10 444.59L689.15 445.95L690.04 447.63L690.01 449.20L689.14 451.06L689.29 452.95L688.95 456.96L688.28 458.48L688.11 460.33L690.58 461.30L692.14 461.59L693.62 461.29L695.87 461.01L696.61 459.90L697.55 457.97L699.01 457.00L700.30 457.04L701.68 457.03L703.10 457.02L704.36 456.94L705.42 456.39L706.81 455.67L709.23 453.25L710.29 451.18L711.38 450.42L713.85 448.99L715.06 449.11L716.34 449.61L717.79 451.19L718.44 452.50L720.05 453.68L721.13 454.34L722.96 455.66L724.85 456.87L726.36 457.68L727.57 455.90L727.68 454.36L727.79 452.62L727.88 450.68L728.27 448.42L728.66 446.18L730.41 444.48L731.60 441.61L733.24 439.92L734.26 438.79L737.76 435.47L738.62 433.89L740.81 429.93L742.15 429.26L744.59 428.04L747.28 426.69L748.45 426.17L749.61 425.65L752.37 424.51L753.88 423.42L757.01 421.15L758.45 420.10L759.58 419.28L761.91 418.87L764.26 418.48L767.40 417.97L768.77 416.60L769.68 415.68L770.56 414.79L771.42 413.93L772.41 412.85L772.71 411.61L773.01 410.38L773.39 408.81L773.79 407.17L775.07 406.45L777.06 405.45L778.22 404.87L779.49 404.87L783.19 406.40L784.66 407.17L785.74 407.93L786.74 408.95L787.66 409.88L788.62 410.67L789.75 411.26L791.02 410.94L792.35 408.63L792.85 406.68L794.85 404.74L794.31 403.51L793.40 400.80L794.49 397.59L795.27 395.81L795.89 394.41L796.50 393.01L797.14 391.54L799.19 387.65L799.90 386.41L801.83 385.33L804.07 384.16L805.87 383.13L807.74 381.23L808.44 379.63L809.33 377.62L810.21 375.63L811.19 373.41L811.74 372.17L813.49 369.23L813.25 366.63L813.08 364.95L813.65 363.40L814.18 361.99L814.79 359.37L815.29 357.65L815.91 356.56L817.33 355.53L819.01 354.79L821.08 354.35L818.32 352.60L816.23 351.60L814.67 352.50L812.38 354.46L810.22 354.64L808.51 354.99L806.66 355.68L803.92 356.23L802.08 356.95L799.45 356.19L797.94 355.04L796.94 354.11L795.93 353.08L795.00 352.14L793.79 350.91L792.67 349.78L791.46 348.56L790.44 347.53L788.89 346.03L787.60 344.86L786.42 343.79L785.23 342.71L783.96 341.56L782.71 340.43L781.40 339.24L780.22 338.23L778.86 337.04L777.91 336.22L775.40 335.10L773.83 334.44L772.45 334.29L770.82 334.23L769.00 334.15L767.65 332.79L766.32 331.45L765.38 330.49L764.12 328.98L762.91 327.53L761.86 326.28L759.95 324.99L757.64 324.87L756.22 324.80L754.35 324.72L752.54 324.85L750.59 325.03L747.23 324.31L744.89 324.19L743.64 324.14L740.77 324.58L739.42 324.98L737.33 325.63L736.60 326.63L735.59 327.99L734.02 327.51L731.54 326.76L730.19 326.35L729.00 325.96L727.86 325.53L726.52 325.37L723.53 325.89L722.19 326.18L719.01 327.55L717.33 326.75L716.64 327.98L715.61 328.91L714.16 330.23L712.38 330.39L711.48 331.20L710.09 332.32L708.48 332.42L706.69 331.46L707.34 330.38L707.97 329.32L707.17 327.09L706.38 324.86L704.98 321.43L703.63 318.33L700.40 317.06L696.54 315.83L693.68 315.94L689.98 315.54L686.22 315.57L684.00 316.02L680.44 316.18L678.74 316.26L674.71 314.90Z" data-ward="6" /><path id="ward-5" class="ward" d="M707.71 210.23L706.43 208.91L704.50 206.93L703.22 205.61L701.26 203.59L700.00 202.32L698.00 200.32L696.06 198.37L694.58 196.87L693.54 195.82L692.55 194.82L690.73 192.96L689.48 191.68L687.46 189.65L686.08 188.25L684.41 186.51L683.11 185.17L679.66 181.59L678.28 179.73L676.74 177.66L675.08 175.43L673.54 173.35L672.15 171.79L670.50 169.92L669.34 168.61L667.52 168.40L662.84 166.13L661.04 164.84L657.65 162.41L655.36 161.45L651.78 159.94L649.01 159.82L646.46 160.24L644.11 160.69L640.20 161.43L638.76 162.22L637.33 163.02L635.94 163.78L633.60 165.07L635.54 166.37L636.33 167.78L637.00 168.93L637.62 170.29L637.27 172.05L636.79 174.11L637.11 175.52L637.48 177.04L638.45 178.15L639.19 180.31L640.05 181.24L640.22 182.64L640.38 184.67L640.66 187.05L642.38 188.66L643.35 189.54L645.51 190.48L647.28 190.88L647.79 191.97L649.03 194.52L650.10 195.49L651.07 196.24L653.11 197.84L654.42 198.87L656.05 200.13L657.51 201.27L659.16 202.57L660.11 203.31L660.57 204.98L660.89 206.15L662.12 207.47L662.96 208.38L663.84 209.32L664.99 210.57L666.32 212.01L667.64 213.42L668.66 214.52L670.25 216.23L671.48 217.56L673.09 219.29L674.29 220.59L675.75 223.51L676.70 225.42L677.44 226.90L678.52 229.08L679.46 230.96L680.24 232.52L681.00 234.04L681.87 235.79L682.70 237.45L683.67 239.40L684.35 240.76L685.29 242.56L687.23 246.09L688.04 247.55L688.88 249.07L689.82 250.77L690.87 252.67L691.74 254.25L692.57 255.76L693.48 257.39L695.09 260.24L695.93 261.72L696.70 263.06L697.45 264.37L698.62 266.42L699.40 267.78L700.22 269.22L701.90 272.76L702.69 274.46L703.39 275.98L704.36 278.06L705.18 279.83L705.89 281.50L706.34 282.64L707.06 284.42L707.66 285.94L708.29 287.51L708.83 288.87L709.38 290.23L709.93 291.60L710.47 292.95L711.20 294.77L711.87 296.46L712.68 298.48L713.43 300.23L714.69 301.65L715.76 302.84L716.73 303.93L718.57 305.97L719.66 307.19L720.27 308.39L720.12 310.07L719.93 312.12L719.75 313.98L719.71 316.35L720.44 318.60L720.61 321.17L720.35 323.65L719.15 324.52L717.99 325.57L717.33 326.75L719.01 327.55L722.19 326.18L723.53 325.89L726.52 325.37L727.86 325.53L729.00 325.96L730.19 326.35L731.54 326.76L734.02 327.51L735.59 327.99L736.60 326.63L737.33 325.63L739.42 324.98L740.77 324.58L743.64 324.14L744.89 324.19L747.23 324.31L750.59 325.03L752.54 324.85L754.35 324.72L756.22 324.80L757.64 324.87L759.95 324.99L761.86 326.28L762.91 327.53L764.12 328.98L765.38 330.49L766.32 331.45L767.65 332.79L769.00 334.15L770.82 334.23L772.45 334.29L773.83 334.44L775.40 335.10L777.91 336.22L778.86 337.04L780.22 338.23L781.40 339.24L782.71 340.43L783.96 341.56L785.23 342.71L786.42 343.79L787.60 344.86L788.89 346.03L790.44 347.53L791.46 348.56L792.67 349.78L793.79 350.91L795.00 352.14L795.93 353.08L796.94 354.11L797.94 355.04L799.45 356.19L802.08 356.95L803.92 356.23L806.66 355.68L808.51 354.99L810.22 354.64L812.38 354.46L814.67 352.50L816.23 351.60L818.32 352.60L821.08 354.35L823.88 354.82L825.55 355.26L827.41 355.24L829.66 355.21L830.42 356.22L831.27 357.33L832.46 358.87L833.47 359.93L834.44 360.95L835.59 362.16L837.30 362.67L838.56 362.17L840.32 361.12L841.26 360.38L842.30 359.44L843.92 357.97L845.59 356.52L847.38 355.13L848.60 353.55L849.04 352.35L849.45 350.95L849.84 349.62L851.44 349.36L852.17 350.88L852.53 352.21L852.59 353.44L852.60 354.69L853.37 355.98L854.61 357.10L856.17 357.72L857.83 357.53L858.48 356.35L858.82 355.12L859.63 354.07L862.03 354.66L862.57 356.16L863.41 357.77L864.42 359.18L866.99 359.82L868.31 358.65L868.70 356.92L869.12 355.20L870.61 354.87L871.79 355.25L874.52 356.59L875.88 356.97L877.44 357.38L879.44 359.02L881.30 359.54L885.33 363.36L886.37 364.26L887.41 365.17L889.46 366.95L893.75 369.64L898.34 372.92L899.66 374.46L900.99 375.99L903.89 378.51L905.71 380.08L906.94 381.15L910.57 385.31L911.88 386.93L912.99 388.32L915.23 391.09L916.46 392.62L918.09 398.11L918.63 400.28L919.44 403.53L920.29 406.95L920.73 408.73L921.71 409.62L922.65 410.47L923.59 411.33L924.58 412.23L925.48 413.04L926.37 413.85L931.57 418.56L933.27 419.79L935.19 421.14L937.10 422.49L942.01 425.95L947.37 429.32L949.47 430.35L951.36 427.32L958.36 427.34L978.77 426.95L977.92 421.57L976.90 409.16L974.55 402.23L968.05 386.02L964.69 373.06L964.29 371.52L963.94 370.12L963.61 368.83L963.38 367.39L963.30 366.05L963.21 364.77L963.10 363.10L963.01 361.79L962.93 360.53L962.82 358.96L962.73 357.48L962.63 356.01L962.55 354.74L962.45 353.26L962.36 351.96L962.26 350.38L962.14 349.13L961.75 347.63L961.45 346.47L961.14 345.28L960.80 343.96L960.50 342.80L960.17 341.55L959.85 340.31L959.54 339.14L959.21 337.86L958.83 336.37L958.48 335.01L958.08 333.40L957.72 331.79L957.41 330.38L957.09 328.93L956.83 327.76L956.54 326.47L956.66 325.26L956.88 322.98L957.11 320.65L957.32 318.51L957.51 316.66L957.64 315.26L957.79 313.75L957.91 312.51L958.08 310.78L958.27 308.80L958.48 307.05L958.69 305.48L958.90 303.88L959.13 302.08L959.46 299.62L959.78 297.14L959.75 295.89L959.32 294.32L958.92 292.88L958.55 291.50L958.13 290.00L957.71 288.52L957.37 287.38L956.88 285.63L956.53 284.46L956.17 283.28L955.82 282.12L955.48 280.97L955.24 279.49L955.06 278.01L954.84 276.69L955.59 273.16L958.11 263.47L960.42 262.59L963.03 261.57L966.59 260.15L969.98 258.83L973.87 257.30L977.59 255.91L981.06 254.62L984.25 253.42L989.71 251.38L992.21 250.38L992.70 248.91L994.14 244.62L995.50 240.63L996.88 236.62L998.20 232.66L1000.00 228.32L999.04 226.38L997.94 224.64L996.63 222.57L995.09 220.60L993.56 218.62L992.56 216.12L991.75 213.94L990.53 211.88L989.58 210.46L988.27 208.52L987.25 207.01L984.69 204.55L982.85 202.78L980.99 201.95L977.57 200.25L975.00 197.46L973.53 196.62L971.55 195.30L970.04 194.30L968.29 193.14L966.46 191.93L964.04 190.32L960.74 189.61L958.64 188.46L956.53 187.31L954.60 185.69L952.74 184.14L951.70 182.75L950.77 181.29L949.42 179.16L948.08 177.06L946.36 175.92L943.68 175.39L941.52 175.94L938.35 180.41L936.59 182.89L934.79 185.43L933.55 188.48L932.86 191.24L933.06 192.48L933.10 193.92L933.13 196.33L931.80 197.92L930.55 197.99L928.40 196.00L927.50 194.69L927.17 192.69L927.70 191.35L926.05 189.74L924.64 189.80L923.55 189.04L922.07 187.81L920.61 188.78L918.28 190.34L916.37 189.95L914.28 189.52L911.42 187.66L909.86 187.46L908.11 187.24L906.48 186.69L904.03 185.87L902.43 185.33L901.59 183.91L900.89 182.73L899.86 181.20L899.18 180.20L897.57 178.35L896.04 177.50L891.08 176.05L887.31 174.95L886.01 175.88L883.91 177.40L882.80 178.11L880.54 179.54L876.79 180.93L873.91 182.51L872.09 183.88L869.58 185.74L864.60 187.73L861.57 189.95L860.61 190.80L858.17 192.27L856.43 193.66L854.96 197.70L854.39 199.27L853.36 202.16L851.84 206.40L849.67 212.50L843.63 218.25L840.34 221.38L838.92 221.38L835.99 221.36L831.55 221.34L828.43 221.31L826.82 221.13L824.00 220.79L821.49 220.49L820.10 220.31L818.27 220.08L815.52 219.74L814.14 219.56L812.84 219.41L810.26 219.11L806.78 218.71L804.36 218.28L800.84 217.65L798.78 217.27L796.06 216.78L794.51 216.49L790.94 215.84L788.49 215.39L785.44 214.83L784.03 214.56L779.73 213.75L775.74 212.99L772.82 212.44L770.75 211.31L768.22 210.00L766.88 210.36L764.34 210.54L760.59 209.31L759.38 208.83L756.74 207.80L755.45 207.62L752.71 207.25L749.57 207.05L747.27 206.91L744.47 206.73L741.63 206.55L738.07 206.32L735.72 206.18L734.10 206.46L731.00 207.00L726.03 207.87L721.94 209.36L718.40 210.64L715.00 211.87L713.03 212.14L710.04 212.59L707.71 210.23Z" data-ward="5" /><path id="ward-14" class="ward" d="M85.06 68.74L83.85 68.30L82.63 68.03L80.54 67.51L78.28 68.41L77.14 69.15L76.07 69.82L74.82 70.37L73.67 70.79L72.39 71.32L71.17 71.67L69.99 71.89L68.56 71.37L67.16 70.95L65.63 70.94L63.68 71.07L62.22 71.57L60.64 72.25L59.58 72.79L58.10 74.00L56.43 75.80L55.82 77.23L56.01 79.53L54.77 81.00L53.13 80.02L52.11 79.24L50.70 78.39L48.46 78.64L47.46 79.47L46.05 79.54L45.72 78.34L45.37 76.63L44.08 75.77L42.44 75.11L40.75 73.89L39.41 73.30L37.46 72.47L35.87 71.70L34.86 71.05L32.89 70.24L30.76 69.91L29.32 71.11L27.24 72.83L25.62 75.19L24.68 76.71L23.61 78.28L22.52 79.94L20.61 82.69L18.41 85.78L18.24 88.77L15.70 87.70L14.07 89.29L12.44 90.88L9.36 91.01L6.28 91.13L4.52 92.41L2.57 93.83L0.00 97.02L0.80 98.20L1.95 99.89L3.25 101.11L3.60 103.22L3.77 104.42L4.22 107.12L6.11 109.73L6.85 117.79L11.67 121.76L14.15 125.82L15.13 127.43L21.21 130.74L25.61 130.93L27.85 138.91L31.93 141.83L32.40 145.13L35.63 148.50L37.01 148.62L40.24 148.21L42.12 151.63L41.76 153.04L41.44 154.25L42.27 155.66L45.80 158.39L48.34 160.35L49.89 161.00L49.96 163.87L49.31 165.61L48.16 168.66L48.10 170.33L48.73 172.54L46.16 176.23L45.22 177.58L43.00 182.08L41.73 184.66L40.72 185.52L39.66 186.42L37.99 187.84L37.70 186.42L36.02 185.61L34.68 184.98L33.53 186.16L33.47 187.55L33.29 191.23L31.79 195.69L36.49 200.03L36.11 201.78L35.39 205.07L36.57 207.53L34.54 209.80L31.45 212.02L30.95 214.39L30.68 215.66L29.41 217.45L26.69 220.16L27.42 225.37L27.44 228.29L28.38 231.57L28.21 234.39L29.81 236.55L29.74 238.50L32.16 239.93L35.25 250.12L32.57 249.27L30.31 251.65L25.74 253.36L21.90 251.13L19.33 250.68L17.88 252.54L16.40 254.44L13.02 252.99L5.34 254.03L6.64 256.66L7.89 259.20L15.16 259.59L17.12 259.36L25.44 258.50L33.75 257.64L44.03 256.59L53.93 253.09L67.14 248.15L75.69 245.47L81.36 248.38L89.73 254.04L90.93 257.73L96.83 264.94L104.49 270.95L106.49 272.20L109.10 273.77L110.62 274.67L112.06 275.54L113.69 276.51L114.87 277.21L115.95 277.86L118.04 279.11L120.82 280.78L123.47 282.36L129.91 284.68L135.89 286.63L139.83 287.91L145.33 289.70L148.66 290.78L152.33 291.98L155.78 293.10L157.63 293.70L160.36 294.59L165.03 295.29L167.39 294.45L168.96 293.89L170.14 293.47L171.64 293.86L173.60 294.37L175.24 294.79L177.05 295.26L178.79 295.71L181.25 296.35L184.34 297.10L186.14 297.53L188.00 297.98L189.46 298.33L191.49 298.61L193.02 298.80L194.42 299.02L196.50 298.70L197.50 297.30L198.61 295.75L201.74 290.09L201.23 288.29L200.71 286.47L200.26 284.89L199.74 283.03L201.35 282.45L201.76 281.11L202.70 280.36L204.76 279.90L206.00 279.33L208.30 278.94L210.00 279.72L211.41 280.69L213.64 282.10L215.17 282.81L217.70 283.37L218.86 283.87L220.59 284.63L223.65 284.90L226.01 284.96L227.32 285.15L228.60 284.72L230.08 284.28L231.93 284.36L233.43 284.69L234.24 283.74L236.42 282.95L237.29 281.94L238.55 281.37L239.81 280.80L241.52 280.44L244.04 279.34L246.01 279.40L247.14 278.74L248.24 278.09L249.39 275.97L252.52 275.62L261.24 266.85L262.31 265.87L263.37 264.89L266.58 263.20L272.18 260.25L281.41 252.75L283.79 250.57L284.99 248.65L285.95 247.36L290.37 244.73L291.46 243.89L292.42 243.14L293.79 242.34L295.17 241.55L296.60 240.84L298.09 240.18L299.20 239.37L299.86 238.29L300.50 237.25L301.04 235.26L300.92 233.60L300.67 232.21L300.13 231.01L299.61 229.22L299.47 228.02L299.36 226.43L299.27 225.05L299.13 223.83L298.88 222.64L298.52 221.45L297.96 220.17L297.01 218.31L296.43 217.17L295.76 215.65L293.68 214.42L292.26 213.16L291.45 211.72L288.98 210.58L287.86 209.50L287.11 208.55L286.31 207.62L285.10 206.28L284.22 205.31L283.25 204.16L281.92 203.64L280.32 203.88L279.07 204.08L277.20 204.39L275.77 204.62L272.68 205.07L271.10 205.14L270.03 204.48L269.00 203.80L267.56 202.83L266.11 201.69L264.57 200.47L262.47 199.15L260.62 198.30L259.10 197.04L258.06 196.15L256.82 194.98L255.99 194.01L255.06 192.92L254.02 192.21L252.80 191.50L251.63 190.67L249.36 188.43L248.56 187.42L247.56 186.64L246.51 185.81L245.47 185.11L244.39 184.50L242.92 183.66L241.34 182.76L239.78 181.98L236.33 180.26L234.03 179.12L232.89 178.55L230.71 177.47L229.60 177.04L228.46 176.60L226.94 176.02L225.60 175.51L223.71 174.91L221.69 174.36L219.87 173.68L218.73 173.28L217.52 172.98L216.26 172.63L214.88 171.69L213.23 170.61L212.08 170.10L208.75 169.44L204.53 169.16L203.44 166.53L203.06 165.27L202.66 164.03L200.64 165.59L197.29 166.46L194.73 166.20L193.38 166.06L192.11 165.92L189.99 165.35L188.71 165.00L187.35 164.76L185.88 164.49L184.42 164.23L182.99 164.26L176.70 167.93L166.49 169.78L163.93 170.24L161.05 170.54L158.17 170.84L155.39 171.06L151.32 171.18L149.87 169.22L148.54 167.07L148.20 165.78L147.85 164.08L148.09 161.46L145.87 157.94L142.39 155.37L141.71 154.22L140.50 152.20L139.29 150.19L138.16 148.37L136.72 146.06L135.58 144.14L134.23 142.15L132.74 141.29L131.39 141.03L130.04 140.76L128.62 140.48L127.48 137.51L126.17 133.51L126.12 130.50L124.94 125.58L123.74 125.18L122.37 125.00L120.45 125.02L118.99 124.95L117.64 124.82L116.43 124.63L115.18 124.39L113.91 124.11L112.72 123.76L111.50 123.25L110.16 122.70L108.95 122.50L107.63 122.28L106.49 121.82L105.00 121.55L103.29 121.45L101.92 121.13L100.89 120.11L99.61 118.85L98.05 117.47L96.35 116.28L95.30 114.74L97.27 112.26L97.62 110.98L98.28 108.56L98.25 105.94L98.43 104.50L98.63 102.87L99.43 101.75L100.84 100.06L98.45 100.43L97.16 100.56L95.84 101.11L95.66 99.74L97.15 98.38L98.89 97.12L99.92 94.46L100.11 92.82L99.38 89.95L98.66 88.54L97.92 87.31L96.85 86.31L94.49 85.24L93.33 84.85L92.10 83.71L91.47 82.51L90.56 80.12L90.16 78.27L91.85 75.69L91.25 74.09L89.60 73.52L89.66 72.21L89.87 70.85L89.31 69.62L87.89 69.24L86.43 69.25L85.06 68.74Z" data-ward="14" /><path id="ward-1" class="ward" d="M76.91 12.54L74.12 12.06L70.09 11.38L68.47 9.80L67.36 8.72L66.01 7.41L65.00 6.42L61.72 3.23L59.97 1.53L57.44 0.00L55.02 0.37L52.85 0.69L51.59 3.10L50.82 4.56L49.98 5.52L49.17 6.45L47.52 7.17L45.89 7.88L44.36 7.99L43.43 9.05L41.94 11.07L40.41 12.77L39.58 13.71L38.75 14.66L37.70 15.75L36.03 16.77L34.14 17.35L32.02 17.50L31.34 18.41L31.37 19.26L32.86 20.41L32.78 21.81L32.71 23.31L32.63 24.79L33.48 27.68L34.17 30.06L36.73 34.86L38.01 37.48L38.71 39.29L39.31 40.88L40.00 42.94L39.90 45.59L39.67 52.06L39.46 57.80L39.10 60.17L38.79 62.25L34.63 66.42L33.74 67.31L32.67 68.11L30.76 69.91L32.89 70.24L34.86 71.05L35.87 71.70L37.46 72.47L39.41 73.30L40.75 73.89L42.44 75.11L44.08 75.77L45.37 76.63L45.72 78.34L46.05 79.54L47.46 79.47L48.46 78.64L50.70 78.39L52.11 79.24L53.13 80.02L54.77 81.00L56.01 79.53L55.82 77.23L56.43 75.80L58.10 74.00L59.58 72.79L60.64 72.25L62.22 71.57L63.68 71.07L65.63 70.94L67.16 70.95L68.56 71.37L69.99 71.89L71.17 71.67L72.39 71.32L73.67 70.79L74.82 70.37L76.07 69.82L77.14 69.15L78.28 68.41L80.54 67.51L82.63 68.03L83.85 68.30L85.06 68.74L86.43 69.25L87.89 69.24L89.31 69.62L89.87 70.85L89.66 72.21L89.60 73.52L91.25 74.09L91.85 75.69L90.16 78.27L90.56 80.12L91.47 82.51L92.10 83.71L93.33 84.85L94.49 85.24L96.85 86.31L97.92 87.31L98.66 88.54L99.38 89.95L100.11 92.82L99.92 94.46L98.89 97.12L97.15 98.38L95.66 99.74L95.84 101.11L97.16 100.56L98.45 100.43L100.84 100.06L99.43 101.75L98.63 102.87L98.43 104.50L98.25 105.94L98.28 108.56L97.62 110.98L97.27 112.26L95.30 114.74L96.35 116.28L98.05 117.47L99.61 118.85L100.89 120.11L101.92 121.13L103.29 121.45L105.00 121.55L106.49 121.82L107.63 122.28L108.95 122.50L110.16 122.70L111.50 123.25L112.72 123.76L113.91 124.11L115.18 124.39L116.43 124.63L117.64 124.82L118.99 124.95L120.45 125.02L122.37 125.00L123.74 125.18L124.94 125.58L126.12 130.50L126.17 133.51L127.48 137.51L128.62 140.48L130.04 140.76L131.39 141.03L132.74 141.29L134.23 142.15L135.58 144.14L136.72 146.06L138.16 148.37L139.29 150.19L140.50 152.20L141.71 154.22L142.39 155.37L145.87 157.94L148.09 161.46L147.85 164.08L148.20 165.78L148.54 167.07L149.87 169.22L151.32 171.18L155.39 171.06L158.17 170.84L161.05 170.54L163.93 170.24L166.49 169.78L176.70 167.93L182.99 164.26L184.42 164.23L185.88 164.49L187.35 164.76L188.71 165.00L189.99 165.35L192.11 165.92L193.38 166.06L194.73 166.20L197.29 166.46L200.64 165.59L202.66 164.03L203.06 165.27L203.44 166.53L204.53 169.16L208.75 169.44L212.08 170.10L213.23 170.61L214.88 171.69L216.26 172.63L217.52 172.98L218.73 173.28L219.87 173.68L221.69 174.36L223.71 174.91L225.60 175.51L226.94 176.02L228.46 176.60L229.60 177.04L230.71 177.47L232.89 178.55L234.03 179.12L236.33 180.26L239.78 181.98L241.34 182.76L242.92 183.66L244.39 184.50L245.47 185.11L246.51 185.81L247.56 186.64L248.56 187.42L249.36 188.43L251.82 188.23L252.16 186.21L251.11 184.71L249.54 183.67L247.93 182.62L247.25 181.49L246.43 180.28L245.32 179.12L244.39 178.15L243.23 176.90L242.21 175.19L241.76 173.94L241.34 172.77L240.87 171.52L240.43 170.36L240.00 169.22L239.45 168.14L238.78 167.14L238.11 166.14L237.22 165.15L235.96 164.97L233.64 164.32L233.70 162.94L233.77 161.64L233.94 160.10L235.07 157.21L235.60 156.11L236.56 154.13L237.45 149.88L237.41 148.40L237.35 146.59L237.02 145.07L236.74 143.79L235.42 142.14L234.64 141.15L233.63 140.10L232.13 138.54L231.11 137.89L230.04 137.20L228.15 136.01L226.96 135.28L225.45 134.36L224.70 133.40L223.84 132.29L223.01 131.23L222.31 130.19L223.30 128.64L223.96 127.62L225.39 126.04L226.41 125.29L227.42 124.54L228.47 123.76L229.19 122.73L229.96 121.65L230.92 120.72L232.86 121.46L234.11 121.94L235.66 122.54L236.80 123.00L238.42 123.77L239.74 124.41L241.23 125.13L243.80 123.82L244.98 122.94L246.51 121.20L247.74 119.78L248.95 119.35L250.23 119.21L251.46 119.08L252.19 118.04L252.34 116.73L252.48 115.50L252.70 114.16L254.33 114.78L255.58 114.68L256.80 114.36L258.31 113.98L260.08 113.23L261.82 112.49L262.70 111.23L263.93 109.45L265.34 107.83L267.04 106.19L268.27 105.00L268.81 103.34L269.31 101.78L269.97 99.74L270.70 97.31L271.47 96.07L273.05 95.07L273.68 93.72L274.15 92.58L274.54 91.44L275.03 90.20L275.93 89.11L276.70 88.20L278.28 86.54L279.24 85.80L278.80 83.66L275.92 80.88L274.75 80.57L273.22 79.63L272.71 77.86L273.22 76.25L275.24 74.56L276.53 73.84L278.13 73.00L279.55 72.19L281.18 71.12L281.64 69.52L281.98 67.24L282.11 64.15L280.41 63.43L279.13 62.41L277.49 61.08L276.05 59.90L273.59 58.60L271.84 57.85L270.09 57.11L267.76 55.12L265.71 53.92L263.80 53.25L261.75 53.51L260.04 53.90L257.61 53.82L254.97 53.72L251.74 52.64L251.47 51.35L251.05 49.38L250.70 47.17L248.84 46.18L248.08 47.56L248.03 50.49L246.15 52.97L242.51 52.02L238.63 52.26L237.38 52.33L232.43 54.84L228.87 53.93L227.13 53.94L225.29 53.96L221.92 54.06L221.00 53.17L222.13 50.41L221.16 48.14L219.81 47.35L218.64 46.65L215.42 46.07L212.80 45.05L211.75 43.99L210.72 42.95L209.58 41.81L207.44 41.24L205.25 40.99L204.04 40.85L202.83 40.71L201.62 40.57L200.44 40.44L199.16 40.29L194.91 39.80L188.60 37.90L187.19 36.26L185.27 35.00L183.81 34.04L182.39 33.10L180.68 33.54L177.48 34.23L175.48 34.19L173.86 34.15L169.92 35.25L166.03 33.32L164.35 32.49L161.09 32.09L158.80 31.81L157.84 31.08L156.17 29.80L153.74 29.13L150.50 27.54L149.09 26.84L147.17 25.90L143.04 26.32L141.05 24.10L139.88 23.43L138.88 22.45L137.46 21.06L136.19 19.82L135.01 18.89L133.41 17.63L131.62 15.65L130.69 14.62L128.41 14.70L126.76 16.42L126.48 17.86L125.93 20.64L125.55 22.52L124.48 23.19L122.69 22.28L119.20 20.56L116.16 19.08L114.49 18.29L112.55 15.23L111.75 13.97L108.99 14.20L106.73 14.75L104.71 17.26L107.23 18.36L106.97 19.67L104.77 20.89L103.39 20.42L101.08 18.67L98.65 16.83L95.67 16.67L93.27 16.54L90.50 16.39L88.77 14.75L87.17 13.24L85.78 11.92L84.13 10.36L82.41 11.26L80.90 12.06L79.23 12.93L76.91 12.54Z" data-ward="1" /><path id="ward-3" class="ward" d="M382.43 66.71L380.12 66.50L375.06 65.70L370.45 64.96L368.53 64.21L365.21 62.91L363.15 62.10L359.67 61.73L356.86 59.10L354.58 56.62L351.78 54.93L350.66 57.68L352.24 58.59L353.36 59.11L353.22 60.52L352.55 61.90L353.17 63.10L354.24 64.24L356.98 64.71L358.61 65.77L359.55 66.54L360.66 66.97L361.48 67.91L362.16 68.96L363.19 69.85L364.40 70.55L365.64 71.20L366.33 72.19L366.69 73.36L366.79 74.66L367.45 75.76L368.57 76.16L369.33 77.15L369.75 78.30L370.67 79.09L371.71 79.69L372.84 80.07L373.60 80.99L375.27 83.94L376.15 85.64L376.58 86.88L377.33 88.16L378.15 89.20L379.36 89.75L380.54 89.92L382.02 91.24L382.82 92.36L383.61 93.45L384.63 96.74L385.19 97.84L385.85 99.81L386.34 101.17L386.12 102.63L384.83 103.95L383.32 105.09L382.02 105.75L381.27 106.77L380.97 107.94L380.65 109.18L380.30 110.55L379.99 111.75L379.98 112.99L380.30 115.11L379.83 117.97L378.54 120.49L377.51 121.52L376.49 122.55L374.57 124.40L372.91 125.99L371.77 127.08L370.89 127.93L369.89 128.89L368.89 129.85L367.87 130.83L366.43 132.22L365.45 133.15L365.98 134.94L366.78 137.59L368.42 143.28L368.41 145.14L367.98 147.02L367.64 148.53L367.34 149.83L366.84 151.39L366.01 152.40L365.31 153.45L365.53 154.77L365.74 156.03L365.96 157.39L366.19 158.76L367.43 159.85L368.64 161.01L370.04 162.35L371.26 163.52L372.51 164.72L374.05 166.24L374.57 167.73L374.33 169.24L373.29 170.92L372.42 172.21L371.53 173.52L371.86 174.83L372.89 175.73L374.20 177.06L382.43 185.63L383.01 186.74L383.60 187.85L384.20 189.10L385.32 191.44L386.90 194.75L387.71 196.46L388.83 199.43L388.24 201.24L386.92 202.33L385.85 203.02L384.66 203.79L383.38 204.61L381.76 205.54L379.74 205.46L378.46 205.25L377.37 205.80L376.58 207.95L377.09 209.17L378.21 210.57L379.52 212.04L381.10 213.42L382.54 214.65L384.62 216.43L390.52 220.88L395.63 224.30L399.48 226.64L400.56 225.60L402.16 224.06L403.72 222.56L404.67 221.65L406.45 219.94L410.35 216.10L413.41 212.80L416.05 209.96L422.09 211.39L441.27 215.46L458.26 206.19L476.52 196.23L483.48 192.51L488.82 182.77L495.03 173.65L498.80 173.64L504.95 173.53L509.43 174.11L515.11 174.86L521.36 174.56L519.26 171.62L516.35 168.64L514.92 166.72L514.04 164.83L513.48 162.46L513.50 160.87L514.37 160.03L515.76 159.66L516.73 160.38L519.72 162.16L522.03 162.54L526.41 162.35L529.18 162.48L532.50 163.71L536.75 166.38L538.34 167.52L540.98 169.40L543.33 170.52L544.45 171.06L546.17 171.88L549.05 172.77L557.03 177.67L558.98 178.82L563.59 181.54L569.10 184.75L572.31 186.60L574.95 188.08L576.19 188.77L577.44 189.45L582.53 190.93L585.89 191.22L586.21 188.97L588.33 187.14L590.77 187.03L591.28 188.48L591.74 189.75L592.24 190.88L592.86 192.36L594.49 194.41L598.05 197.39L602.57 201.56L606.66 205.16L608.06 205.83L609.63 206.19L611.45 206.53L613.16 206.29L614.34 206.12L616.34 205.38L617.08 204.03L616.41 202.03L615.92 200.48L615.36 198.74L615.18 197.12L616.43 195.04L618.30 195.29L619.63 195.41L622.26 195.49L623.37 193.60L623.78 191.58L623.38 190.33L622.60 188.85L621.80 187.50L620.81 186.06L618.79 184.35L616.98 183.06L615.86 182.07L615.41 179.50L617.47 179.13L619.61 178.97L621.63 179.30L624.32 179.78L626.83 180.35L628.77 180.96L630.31 179.97L629.96 178.75L629.93 177.40L629.81 176.15L629.94 174.16L631.77 173.29L632.86 172.25L633.13 170.59L632.97 167.90L633.21 166.31L633.60 165.07L633.04 163.12L631.83 158.92L631.34 156.57L630.99 154.89L630.40 152.03L630.15 150.76L629.86 149.25L628.12 146.62L627.22 145.25L623.35 144.46L621.45 144.33L620.25 143.91L619.20 143.28L618.44 141.41L617.93 139.99L617.90 136.92L618.49 135.37L617.96 134.22L617.45 132.62L616.73 131.33L616.55 130.02L615.67 127.82L614.91 125.88L613.89 124.87L612.10 125.43L610.51 125.12L608.92 124.80L607.64 124.60L606.25 124.78L604.34 126.13L603.69 127.52L603.34 129.49L600.54 131.37L598.50 131.61L597.63 133.12L596.84 134.49L595.34 134.96L593.87 134.41L592.37 133.85L591.20 133.30L587.91 131.78L585.84 130.40L584.61 129.65L582.59 128.41L580.90 126.55L580.96 122.91L580.29 121.30L578.76 120.10L576.96 120.58L575.16 121.06L572.44 121.79L571.05 122.79L568.99 124.28L567.31 123.78L564.70 121.36L563.28 120.58L562.16 119.96L558.60 121.17L558.28 123.01L557.28 125.97L554.26 125.32L551.32 124.01L549.95 123.19L548.61 122.39L548.00 120.59L547.21 118.03L544.50 116.29L542.18 114.79L539.89 113.33L538.64 112.53L535.77 111.59L533.98 109.95L533.30 107.51L530.24 105.64L530.17 103.37L530.12 101.69L530.19 99.90L530.26 98.11L528.80 95.79L526.79 94.07L524.32 93.63L522.20 94.67L519.97 96.57L518.06 99.02L515.93 98.47L512.20 96.44L510.02 95.14L508.80 94.42L506.96 93.14L505.42 91.51L503.49 89.49L502.17 87.48L500.12 85.06L498.88 84.78L496.55 85.29L494.62 85.29L490.58 88.56L488.13 89.20L485.48 88.59L484.76 85.87L482.46 85.25L479.22 84.75L478.15 84.18L476.95 83.53L474.30 82.84L471.98 83.70L469.08 86.11L465.84 86.64L464.58 85.65L463.21 84.32L461.53 83.06L461.79 81.79L460.74 81.09L460.11 78.28L458.12 75.08L456.37 74.99L454.80 74.90L447.96 74.53L444.03 75.68L440.66 75.95L437.52 75.86L429.68 75.63L427.39 73.85L423.48 70.81L419.24 65.43L414.90 64.27L410.55 64.56L406.28 68.99L402.93 68.27L401.26 67.77L399.80 67.34L398.51 66.82L396.55 66.02L394.78 66.10L389.81 66.31L387.44 67.16L382.43 66.71Z" data-ward="3" /><path id="ward-13" class="ward" d="M486.88 215.43L486.44 213.80L486.11 212.29L485.90 210.69L485.66 208.92L485.43 207.22L485.19 205.41L484.96 203.70L484.75 202.10L484.53 200.49L484.30 198.73L484.10 197.22L483.48 192.51L476.52 196.23L458.26 206.19L441.27 215.46L422.09 211.39L416.05 209.96L413.41 212.80L410.35 216.10L406.45 219.94L404.67 221.65L403.72 222.56L402.16 224.06L400.56 225.60L399.48 226.64L395.63 224.30L390.52 220.88L384.62 216.43L382.54 214.65L381.10 213.42L379.52 212.04L378.21 210.57L375.56 214.72L374.12 215.23L372.87 215.66L371.40 216.95L370.21 217.98L368.78 220.53L368.02 221.53L367.26 222.53L365.58 224.15L365.21 225.49L366.80 226.85L367.88 228.24L368.95 229.66L370.48 230.35L372.13 230.86L373.78 231.36L375.61 232.70L376.69 233.64L377.77 234.57L378.35 237.24L380.08 238.77L381.40 239.42L382.72 240.08L385.34 242.58L386.93 244.30L388.53 246.03L389.80 247.79L391.07 249.57L390.68 251.72L390.73 253.40L391.35 254.89L392.50 255.76L393.90 256.40L395.44 256.93L397.59 257.42L399.59 258.06L401.55 258.27L403.51 258.48L404.91 259.52L406.45 260.71L408.32 261.82L410.23 262.02L411.77 262.10L413.31 262.18L414.81 263.37L416.30 264.57L417.45 266.34L418.61 268.55L420.07 271.32L420.78 273.53L422.03 275.03L422.78 275.98L423.96 277.45L425.16 279.32L426.16 281.17L427.10 282.24L428.26 282.68L429.42 283.13L430.66 284.14L431.76 285.71L432.86 286.85L433.95 287.63L435.17 289.03L436.49 290.52L437.70 292.23L438.87 294.05L440.42 296.21L441.34 297.53L443.49 299.33L444.38 300.14L445.88 301.28L448.27 302.10L449.63 302.12L450.90 302.06L452.66 301.44L454.17 300.79L456.09 299.96L457.69 299.06L460.07 298.38L461.24 302.36L464.85 306.77L467.75 311.65L470.51 313.36L472.07 314.35L473.64 315.35L477.88 318.26L482.47 319.99L483.49 321.61L485.72 324.06L488.51 324.86L491.84 325.44L493.17 325.19L494.42 325.03L495.66 324.87L497.75 325.38L500.24 326.07L500.80 327.31L501.57 329.23L501.56 332.23L501.01 334.59L501.85 336.06L503.14 336.40L503.64 339.09L504.18 340.37L504.76 342.43L506.90 343.28L508.96 343.57L510.70 342.90L513.23 340.91L515.41 340.57L516.58 340.34L517.98 343.33L518.84 345.38L521.53 345.85L522.98 345.10L524.93 345.28L526.49 346.79L528.80 346.55L529.91 345.89L531.00 345.30L532.30 345.88L533.05 347.34L534.14 350.28L535.48 351.61L537.07 352.70L539.33 354.38L541.50 355.13L543.04 355.56L544.83 356.02L547.49 357.36L549.89 358.25L553.18 358.20L554.67 357.56L556.64 357.68L559.37 357.84L562.99 358.02L566.12 358.29L567.34 358.00L571.83 357.15L574.36 356.67L581.10 353.96L582.42 353.32L584.71 352.22L589.51 348.43L590.90 347.46L592.22 346.55L597.34 343.53L599.62 341.37L602.14 342.08L603.34 342.42L604.80 339.94L606.08 337.72L607.66 335.24L610.26 332.52L612.18 330.53L614.35 329.14L616.18 327.99L618.06 326.90L620.20 325.74L622.16 323.78L624.17 321.77L625.43 320.28L627.22 320.42L628.83 320.59L630.35 320.76L632.09 320.82L633.41 320.85L635.05 320.86L636.98 321.66L636.60 319.52L636.59 317.78L636.19 314.15L635.91 312.65L635.51 310.50L635.19 308.86L634.76 307.13L634.13 304.96L633.62 303.18L632.37 301.97L631.29 301.37L629.24 300.43L628.13 299.92L626.86 299.36L625.65 298.71L624.46 297.84L623.84 296.76L622.27 294.93L620.61 292.96L619.19 291.68L617.80 290.40L616.11 289.44L614.42 288.48L612.78 287.79L611.25 286.86L607.85 284.58L606.40 282.80L605.28 281.24L603.84 279.67L602.35 278.20L600.43 277.08L597.97 276.06L596.05 275.29L594.08 274.47L592.46 274.23L590.56 273.57L589.11 273.28L587.96 273.96L586.88 274.82L585.68 275.31L584.44 275.35L582.71 274.83L581.28 274.61L579.29 274.56L577.72 274.65L575.86 274.70L574.55 274.65L572.90 273.96L571.89 273.24L570.17 271.44L569.16 269.88L568.31 268.27L567.57 266.62L566.75 264.78L565.66 262.89L564.74 261.33L563.84 259.79L562.79 258.27L561.71 256.47L560.71 254.60L559.80 253.07L558.82 251.78L557.59 250.48L554.25 248.37L551.97 247.66L550.68 247.34L549.41 247.01L547.84 246.53L546.40 246.13L545.14 245.82L542.73 245.12L541.58 244.75L539.70 244.58L537.81 244.67L536.14 244.97L534.51 245.21L532.75 245.38L531.51 245.52L530.12 245.69L528.78 245.85L527.57 245.94L526.04 246.06L523.88 246.41L522.07 246.91L519.99 247.30L518.67 247.46L517.07 247.57L514.99 247.87L512.39 249.79L511.34 250.71L510.47 249.83L508.52 247.94L507.25 246.76L505.45 246.49L504.17 246.21L502.84 245.10L497.47 239.71L496.47 238.68L495.62 237.79L494.49 235.58L493.78 234.16L493.06 232.72L492.25 231.10L491.46 229.52L490.65 227.88L489.83 226.24L489.39 224.75L488.95 223.11L488.55 221.61L488.12 220.04L487.70 218.46L487.29 216.93L486.88 215.43Z" data-ward="13" /><path id="ward-7" class="ward" d="M854.61 357.10L853.37 355.98L852.60 354.69L852.59 353.44L852.53 352.21L852.17 350.88L851.44 349.36L849.84 349.62L849.45 350.95L849.04 352.35L848.60 353.55L847.38 355.13L845.59 356.52L843.92 357.97L842.30 359.44L841.26 360.38L840.32 361.12L838.56 362.17L837.30 362.67L835.59 362.16L834.44 360.95L833.47 359.93L832.46 358.87L831.27 357.33L830.42 356.22L829.66 355.21L827.41 355.24L825.55 355.26L823.88 354.82L821.08 354.35L819.01 354.79L817.33 355.53L815.91 356.56L815.29 357.65L814.79 359.37L814.18 361.99L813.65 363.40L813.08 364.95L813.25 366.63L813.49 369.23L811.74 372.17L811.19 373.41L810.21 375.63L809.33 377.62L808.44 379.63L807.74 381.23L805.87 383.13L804.07 384.16L801.83 385.33L799.90 386.41L799.19 387.65L797.14 391.54L796.50 393.01L795.89 394.41L795.27 395.81L794.49 397.59L793.40 400.80L794.31 403.51L794.85 404.74L792.85 406.68L792.35 408.63L791.02 410.94L789.75 411.26L788.62 410.67L787.66 409.88L786.74 408.95L785.74 407.93L784.66 407.17L783.19 406.40L779.49 404.87L778.22 404.87L777.06 405.45L775.07 406.45L773.79 407.17L773.39 408.81L773.01 410.38L772.71 411.61L772.41 412.85L771.42 413.93L770.56 414.79L769.68 415.68L768.77 416.60L767.40 417.97L764.26 418.48L761.91 418.87L759.58 419.28L758.45 420.10L757.01 421.15L753.88 423.42L752.37 424.51L749.61 425.65L748.45 426.17L747.28 426.69L744.59 428.04L742.15 429.26L740.81 429.93L738.62 433.89L737.76 435.47L734.26 438.79L733.24 439.92L731.60 441.61L730.41 444.48L728.66 446.18L728.27 448.42L727.88 450.68L727.79 452.62L727.68 454.36L727.57 455.90L726.36 457.68L724.85 456.87L722.96 455.66L721.13 454.34L720.05 453.68L718.44 452.50L717.79 451.19L716.34 449.61L715.06 449.11L713.85 448.99L711.38 450.42L710.29 451.18L709.23 453.25L706.81 455.67L705.42 456.39L704.36 456.94L703.10 457.02L701.68 457.03L700.30 457.04L699.01 457.00L697.55 457.97L696.61 459.90L695.87 461.01L693.62 461.29L692.14 461.59L690.58 461.30L688.11 460.33L686.36 460.78L685.20 461.15L683.90 461.65L682.59 462.73L681.42 464.90L680.95 466.14L680.18 468.34L679.93 469.72L678.15 470.49L676.64 470.43L675.26 470.94L673.96 471.66L672.46 474.45L672.11 475.74L671.33 478.14L669.36 479.50L667.43 480.39L665.80 481.79L663.24 483.14L662.39 484.21L661.52 485.59L660.68 486.89L661.37 489.91L662.66 491.69L663.23 493.39L662.59 495.15L661.95 496.95L661.04 498.94L660.68 501.01L660.59 502.62L660.54 504.31L660.50 505.95L662.64 506.98L664.63 507.41L666.67 510.40L667.50 511.62L670.09 513.92L671.47 515.24L672.72 516.61L673.61 517.58L674.87 518.41L676.35 519.04L677.82 519.66L679.45 520.36L684.76 520.09L686.15 519.91L692.14 518.39L701.14 516.02L708.25 513.61L710.31 512.91L719.71 511.55L724.53 510.85L727.28 509.44L730.42 507.83L732.15 506.94L733.81 507.08L735.61 507.29L737.84 506.77L740.53 506.12L743.26 505.45L745.65 504.87L750.75 511.28L751.61 512.37L752.46 513.43L754.27 515.72L756.27 518.23L761.93 526.61L766.95 534.03L769.52 536.99L770.83 538.50L775.03 543.33L780.13 549.20L785.80 555.73L792.20 563.10L797.29 568.95L798.73 569.92L799.72 570.58L800.82 571.32L801.99 572.11L803.38 573.04L804.59 573.86L805.76 574.64L805.17 576.12L804.61 577.45L803.87 578.95L804.71 581.64L805.00 583.04L805.24 584.58L805.32 588.14L806.43 589.61L807.17 591.50L806.59 592.74L807.34 594.94L809.40 596.73L810.78 598.70L811.43 601.46L812.09 602.84L813.06 604.85L813.94 606.06L816.11 609.06L817.94 607.81L819.79 607.93L821.53 608.35L827.54 603.83L832.34 600.10L833.13 599.18L833.85 598.07L834.93 595.43L835.86 593.13L834.69 591.23L833.03 588.51L828.69 587.28L829.36 586.21L831.68 582.47L831.68 576.62L834.41 573.62L835.50 572.71L838.38 570.30L839.55 569.31L840.46 568.46L841.47 566.63L843.30 563.26L842.11 559.39L843.19 546.67L843.51 544.31L844.10 539.91L844.47 537.14L848.03 537.39L849.36 537.48L851.14 537.60L852.82 537.72L854.73 536.11L858.99 537.24L861.13 537.80L885.93 538.48L890.64 537.13L892.19 536.69L898.32 547.18L902.38 546.44L906.52 547.51L909.74 548.35L914.68 551.92L916.33 553.07L919.42 555.22L920.93 556.23L925.05 558.99L928.52 559.75L929.85 559.62L932.89 558.10L935.40 556.84L943.97 553.47L934.86 537.27L930.02 528.68L924.26 518.43L923.09 516.17L918.85 506.88L915.24 499.01L912.45 492.90L908.15 482.62L910.14 482.80L911.97 482.89L914.20 483.10L916.39 483.31L918.29 483.38L920.82 483.59L923.32 483.80L926.10 484.03L929.11 484.27L930.60 484.38L933.24 484.59L934.36 483.03L935.71 481.16L937.45 478.74L939.21 476.28L940.85 473.99L941.85 472.36L942.99 470.28L944.01 468.40L944.10 464.26L943.54 459.51L942.82 453.28L942.55 450.89L943.16 446.23L943.79 441.55L944.17 438.74L945.78 436.23L947.02 434.31L949.47 430.35L947.37 429.32L942.01 425.95L937.10 422.49L935.19 421.14L933.27 419.79L931.57 418.56L926.37 413.85L925.48 413.04L924.58 412.23L923.59 411.33L922.65 410.47L921.71 409.62L920.73 408.73L920.29 406.95L919.44 403.53L918.63 400.28L918.09 398.11L916.46 392.62L915.23 391.09L912.99 388.32L911.88 386.93L910.57 385.31L906.94 381.15L905.71 380.08L903.89 378.51L900.99 375.99L899.66 374.46L898.34 372.92L893.75 369.64L889.46 366.95L887.41 365.17L886.37 364.26L885.33 363.36L881.30 359.54L879.44 359.02L877.44 357.38L875.88 356.97L874.52 356.59L871.79 355.25L870.61 354.87L869.12 355.20L868.70 356.92L868.31 358.65L866.99 359.82L864.42 359.18L863.41 357.77L862.57 356.16L862.03 354.66L859.63 354.07L858.82 355.12L858.48 356.35L857.83 357.53L856.17 357.72L854.61 357.10Z" data-ward="7" /><path id="ward-9" class="ward" d="M212.61 397.83L211.62 396.98L209.57 398.35L208.39 398.44L207.41 397.69L205.39 397.79L204.25 397.36L202.65 398.67L201.22 399.45L200.23 400.11L199.46 401.58L199.16 403.01L199.01 405.01L197.76 405.45L196.30 405.50L195.00 406.20L195.37 407.57L193.97 408.82L191.99 409.14L190.78 410.25L188.72 410.62L186.71 411.19L184.82 412.23L184.05 414.49L183.33 415.79L180.86 416.58L179.49 417.96L177.88 419.03L176.12 420.06L174.43 420.92L172.54 421.86L171.15 421.80L171.56 423.26L171.93 424.72L172.31 426.22L172.85 428.13L175.26 431.53L175.89 432.62L176.51 433.70L177.06 434.84L177.35 436.24L177.28 437.47L175.37 438.44L174.07 438.57L172.69 438.71L171.51 438.75L170.02 438.79L168.58 438.80L166.65 438.82L164.51 438.99L163.29 439.40L162.09 439.86L161.07 441.16L160.91 443.17L160.78 444.50L160.84 446.15L162.06 446.91L162.47 448.03L162.44 449.52L162.15 450.70L161.48 453.13L161.87 454.41L162.37 455.69L164.18 456.91L164.94 457.99L165.65 459.10L166.11 460.29L167.40 462.12L168.59 462.67L169.37 463.61L169.68 464.85L170.24 465.95L170.46 467.27L170.20 468.47L169.73 470.13L168.50 470.72L167.38 471.22L166.93 472.68L165.96 473.84L164.81 474.83L163.43 474.91L162.15 474.98L160.95 474.95L159.63 474.86L158.30 474.77L156.92 474.65L155.49 474.19L154.26 473.69L153.73 473.73L153.45 473.79L153.26 473.99L153.24 474.37L153.23 474.40L153.25 474.56L153.32 474.88L153.37 475.22L153.32 475.69L153.20 476.06L153.11 476.26L152.99 476.51L152.74 476.81L155.32 479.98L157.03 481.72L158.68 483.41L159.88 484.62L163.10 487.81L166.19 489.04L169.19 489.68L171.90 491.97L174.08 494.44L175.00 495.47L175.91 497.62L176.48 498.91L177.45 501.13L178.14 502.71L178.99 503.58L181.07 505.71L182.46 507.14L186.69 509.72L188.64 510.30L190.26 510.78L193.93 511.86L195.77 512.41L197.75 512.89L201.13 513.71L204.33 514.67L205.68 515.23L208.10 516.22L212.03 517.78L214.73 518.86L217.50 520.07L219.81 521.02L221.93 521.45L224.95 521.77L226.06 522.49L227.90 524.02L229.37 526.21L230.31 527.74L230.98 528.83L232.30 530.51L233.87 532.11L234.75 533.03L236.85 535.67L238.11 537.47L239.03 538.99L241.22 539.52L243.08 538.89L244.76 538.32L246.76 537.64L248.95 538.41L251.41 539.09L252.57 539.35L253.83 539.44L256.73 539.50L258.52 540.35L259.68 541.79L260.65 543.01L263.49 544.70L266.08 545.80L268.67 546.89L270.10 547.76L272.45 549.21L273.63 549.93L275.82 551.67L277.22 552.77L279.07 553.83L281.79 555.38L283.15 555.48L284.70 555.60L287.01 555.23L289.75 554.79L292.13 555.87L295.25 557.29L297.66 558.39L301.23 560.02L303.80 561.15L307.00 562.57L310.95 564.32L313.77 565.39L316.79 566.54L320.19 567.83L323.88 569.12L326.67 570.09L329.83 571.19L332.39 572.10L335.37 571.68L339.14 571.16L343.06 570.62L345.40 571.26L349.47 572.36L351.13 572.81L353.88 573.56L358.63 574.86L363.28 578.71L367.08 581.86L368.54 583.35L371.75 586.61L374.79 589.71L378.56 592.69L381.84 595.30L383.31 595.43L386.39 595.71L389.70 596.02L392.05 595.73L395.31 595.33L397.93 594.28L399.45 593.67L402.90 591.83L406.20 589.68L410.23 587.05L414.01 586.07L417.88 585.06L419.63 584.71L424.61 583.53L428.81 582.82L434.16 582.10L436.72 581.90L447.99 581.80L456.43 581.73L469.99 592.15L486.08 608.19L487.12 609.03L488.05 607.66L490.06 604.73L491.61 602.89L493.40 600.76L494.14 599.67L496.78 595.76L498.55 594.39L501.34 592.54L502.89 592.04L504.02 591.68L506.21 590.97L509.35 589.92L511.16 588.24L512.21 586.09L512.45 584.03L512.71 581.75L512.88 580.00L513.31 575.65L513.70 572.69L514.05 571.04L514.40 569.39L516.54 566.75L517.48 565.67L518.43 564.60L521.05 561.85L522.53 559.33L524.16 556.95L526.06 555.96L529.01 555.81L530.72 555.63L533.85 554.93L535.69 552.99L537.17 551.35L538.90 548.20L539.34 544.98L538.57 543.38L537.30 541.90L536.35 541.10L535.05 540.22L533.75 539.96L532.33 539.31L530.03 538.25L526.97 533.94L525.87 532.40L525.02 531.30L523.67 529.56L522.83 528.65L520.85 526.89L519.06 525.63L517.61 524.15L516.34 522.49L515.48 521.08L514.62 519.67L514.00 518.20L513.69 516.89L513.28 515.27L511.91 513.65L510.44 512.02L509.63 510.87L508.69 509.72L507.45 508.12L505.85 508.60L501.54 509.90L498.09 509.69L495.24 509.08L490.57 509.53L488.43 508.99L486.91 508.61L482.62 508.03L478.73 506.53L476.34 505.89L474.85 505.48L472.24 504.61L470.94 504.15L467.23 504.28L462.91 503.62L460.99 503.56L458.13 503.65L453.00 502.95L451.32 501.30L450.16 500.64L448.23 500.99L446.63 503.02L444.05 504.79L444.05 506.61L444.05 507.91L443.81 510.58L443.69 511.88L444.54 514.64L445.02 516.12L445.30 517.61L445.48 519.87L445.55 521.63L445.60 522.88L445.71 525.64L445.79 527.72L445.03 529.14L444.06 530.95L443.48 532.03L442.25 534.34L441.22 536.26L439.88 537.86L439.10 538.79L437.65 540.52L436.59 541.78L435.80 542.72L433.78 543.12L430.57 544.30L428.51 545.82L426.09 547.62L424.73 548.63L420.92 549.47L418.65 549.97L416.02 550.55L414.53 550.88L413.29 551.15L409.15 551.64L406.00 552.00L404.52 552.18L403.10 552.34L398.77 551.27L395.74 550.52L393.77 550.03L392.18 549.62L390.49 549.19L388.40 548.66L386.99 548.30L385.19 548.05L383.95 548.16L380.98 548.51L379.16 548.72L377.97 548.86L376.34 547.70L373.89 546.56L372.32 546.68L370.96 546.77L368.80 546.98L367.76 547.62L366.29 548.57L364.73 549.58L363.21 550.57L361.72 550.18L360.02 549.73L357.36 549.04L356.05 548.70L353.38 548.05L351.32 547.57L349.98 547.26L348.24 546.86L346.85 546.54L345.18 545.56L343.55 544.60L341.44 543.36L339.88 542.74L338.02 542.08L336.33 541.47L335.14 541.05L333.78 540.56L332.64 540.00L331.51 539.44L330.16 538.76L328.61 537.98L331.42 536.55L332.34 535.00L331.69 533.49L331.20 531.51L331.58 529.92L331.97 528.30L332.33 526.15L332.44 524.90L332.46 523.44L332.40 522.12L332.35 520.92L331.96 519.16L331.66 517.96L330.34 517.47L329.40 516.68L328.72 515.70L328.00 514.67L327.25 513.61L327.18 512.38L327.45 511.00L327.71 509.64L328.86 509.14L330.04 508.90L331.29 509.07L332.46 509.55L333.72 510.01L335.21 509.58L336.53 509.18L337.73 508.82L338.97 508.25L338.92 506.80L338.87 505.50L339.22 504.15L339.64 502.51L339.98 501.21L339.99 499.67L339.99 498.47L339.99 497.16L338.57 496.91L337.26 496.68L335.91 496.45L335.15 495.48L334.91 494.25L333.58 493.47L332.18 492.69L330.09 491.80L328.84 491.43L327.55 491.06L325.46 490.51L323.59 490.02L322.29 489.69L320.99 489.35L319.61 488.88L318.40 487.85L317.42 487.01L316.28 485.83L314.83 484.34L313.99 483.38L314.16 481.65L314.34 479.81L313.94 477.93L313.04 476.45L312.30 475.24L311.58 474.04L310.84 472.79L309.99 471.30L309.31 470.08L308.61 468.84L307.61 467.08L306.61 465.63L305.74 464.43L304.84 463.19L303.16 461.37L301.94 460.54L300.88 459.81L299.88 459.12L298.78 458.36L297.33 457.93L296.06 457.58L294.70 457.21L293.21 456.81L291.93 456.45L290.57 455.96L289.08 455.41L287.79 454.93L286.50 453.85L285.73 452.89L284.81 451.74L284.00 450.73L282.66 449.05L281.80 447.95L280.86 446.73L279.51 444.86L278.53 443.32L277.88 442.30L277.05 441.00L276.28 439.80L275.01 439.25L273.84 439.52L272.45 439.84L271.06 440.07L269.84 440.09L268.58 439.56L267.59 438.87L266.59 438.18L265.40 437.36L264.26 436.58L262.88 435.61L261.64 434.73L260.31 433.78L259.25 433.02L258.15 432.23L257.18 431.54L256.01 430.73L254.46 430.02L253.14 429.42L251.79 428.81L250.39 428.03L249.03 426.99L248.04 426.23L246.92 425.36L245.84 424.41L244.81 423.51L243.77 422.60L241.79 421.14L240.73 420.53L239.68 419.92L238.06 418.98L235.32 417.93L234.07 417.45L232.84 416.98L231.26 416.36L229.38 414.87L228.46 413.90L227.42 412.65L225.41 411.27L222.54 410.64L220.34 410.49L218.93 410.32L217.76 409.56L216.45 407.75L215.94 406.66L215.33 405.50L214.72 404.34L213.73 402.21L213.55 400.31L212.61 397.83Z" data-ward="9" /><path id="ward-10" class="ward" d="M90.93 257.73L89.73 254.04L81.36 248.38L75.69 245.47L67.14 248.15L53.93 253.09L44.03 256.59L33.75 257.64L25.44 258.50L17.12 259.36L15.16 259.59L7.89 259.20L9.87 263.28L8.41 263.23L5.93 273.25L5.47 275.14L4.53 277.93L3.89 279.77L2.92 282.46L2.19 284.47L1.65 287.47L3.77 289.94L6.81 291.95L8.69 293.23L11.57 292.49L11.63 292.62L11.77 292.94L12.66 294.11L15.20 296.15L15.29 296.24L15.58 296.64L15.58 296.64L15.67 297.47L15.30 298.78L13.28 299.91L11.92 300.66L11.05 302.73L10.58 303.85L15.07 306.58L16.58 307.44L17.84 309.23L18.97 312.66L20.09 316.05L21.89 318.91L22.55 319.97L23.60 321.73L24.56 323.33L27.74 328.60L28.13 335.49L28.23 337.80L28.34 340.12L28.48 344.33L28.10 347.06L29.56 347.69L33.74 349.52L36.04 350.31L42.81 352.63L46.85 354.02L48.50 354.58L52.78 356.44L54.07 357.33L58.51 360.38L60.23 361.70L62.16 364.12L64.66 367.28L67.52 370.87L68.32 372.76L70.28 377.42L72.00 381.49L72.50 382.69L73.31 384.61L73.39 386.19L74.34 387.97L75.99 391.06L76.86 392.69L77.94 393.45L79.22 397.79L80.24 399.37L81.54 401.38L84.35 404.77L87.51 408.56L89.85 411.71L92.13 413.76L92.63 414.97L93.58 415.86L95.04 418.31L98.06 421.70L100.04 423.16L103.72 427.81L105.22 428.52L107.19 430.85L109.67 433.78L111.75 435.76L114.44 438.91L116.03 440.23L117.27 441.74L119.80 444.82L120.71 445.63L122.18 446.93L124.14 448.67L126.15 448.54L128.43 448.82L130.06 449.35L132.04 452.24L133.44 454.96L135.85 456.37L138.68 457.53L141.68 458.75L143.64 459.91L146.04 461.32L147.43 462.86L148.13 465.21L148.82 469.63L150.04 472.34L150.80 474.01L151.14 474.51L151.95 475.50L152.69 476.75L152.74 476.81L152.99 476.51L153.11 476.26L153.20 476.06L153.32 475.69L153.37 475.22L153.32 474.88L153.25 474.56L153.23 474.40L153.24 474.37L153.26 473.99L153.45 473.79L153.73 473.73L154.26 473.69L155.49 474.19L156.92 474.65L158.30 474.77L159.63 474.86L160.95 474.95L162.15 474.98L163.43 474.91L164.81 474.83L165.96 473.84L166.93 472.68L167.38 471.22L168.50 470.72L169.73 470.13L170.20 468.47L170.46 467.27L170.24 465.95L169.68 464.85L169.37 463.61L168.59 462.67L167.40 462.12L166.11 460.29L165.65 459.10L164.94 457.99L164.18 456.91L162.37 455.69L161.87 454.41L161.48 453.13L162.15 450.70L162.44 449.52L162.47 448.03L162.06 446.91L160.84 446.15L160.78 444.50L160.91 443.17L161.07 441.16L162.09 439.86L163.29 439.40L164.51 438.99L166.65 438.82L168.58 438.80L170.02 438.79L171.51 438.75L172.69 438.71L174.07 438.57L175.37 438.44L177.28 437.47L177.35 436.24L177.06 434.84L176.51 433.70L175.89 432.62L175.26 431.53L172.85 428.13L172.31 426.22L171.93 424.72L171.56 423.26L171.15 421.80L172.54 421.86L174.43 420.92L176.12 420.06L177.88 419.03L179.49 417.96L180.86 416.58L183.33 415.79L184.05 414.49L184.82 412.23L186.71 411.19L188.72 410.62L190.78 410.25L191.99 409.14L193.97 408.82L195.37 407.57L195.00 406.20L196.30 405.50L196.35 403.71L196.11 401.94L195.63 400.30L196.64 398.23L196.40 395.67L195.83 394.45L195.93 392.82L197.23 392.04L199.30 390.92L200.65 390.09L202.06 389.04L202.67 386.32L203.00 384.58L202.95 383.26L202.66 381.41L202.02 379.64L201.94 377.60L201.31 375.85L202.14 373.85L202.97 371.86L203.29 369.67L203.42 365.52L202.47 364.59L201.39 362.55L200.15 360.58L199.75 359.04L198.29 356.61L197.40 355.66L197.74 353.90L197.77 352.62L197.27 351.42L196.85 350.26L196.68 348.50L195.66 347.68L194.84 345.09L194.95 342.79L196.28 341.37L197.60 339.94L199.36 338.53L201.13 337.79L200.40 336.51L199.27 334.53L198.28 333.01L196.71 331.32L196.64 329.85L196.79 328.40L197.17 326.48L198.18 324.64L198.96 323.52L199.74 322.41L201.26 320.83L201.76 319.61L202.81 316.93L204.11 314.01L204.19 312.47L204.72 310.34L204.98 309.08L204.60 307.64L204.22 306.18L204.77 304.94L205.61 303.02L205.15 301.02L203.97 299.00L205.05 297.18L207.49 297.60L210.27 298.06L212.78 297.80L214.18 297.76L215.58 297.72L217.94 298.60L220.29 299.49L221.41 299.95L224.18 301.13L227.00 302.52L229.39 302.26L231.72 302.45L233.29 303.79L234.41 305.32L236.45 306.80L238.23 307.99L242.08 310.27L244.85 311.02L246.70 309.53L246.90 307.20L247.12 304.72L246.02 301.26L245.36 299.13L244.80 297.18L244.11 294.80L243.02 291.52L242.57 290.00L242.11 288.46L241.19 285.40L240.73 283.86L239.81 280.80L238.55 281.37L237.29 281.94L236.42 282.95L234.24 283.74L233.43 284.69L231.93 284.36L230.08 284.28L228.60 284.72L227.32 285.15L226.01 284.96L223.65 284.90L220.59 284.63L218.86 283.87L217.70 283.37L215.17 282.81L213.64 282.10L211.41 280.69L210.00 279.72L208.30 278.94L206.00 279.33L204.76 279.90L202.70 280.36L201.76 281.11L201.35 282.45L199.74 283.03L200.26 284.89L200.71 286.47L201.23 288.29L201.74 290.09L198.61 295.75L197.50 297.30L196.50 298.70L194.42 299.02L193.02 298.80L191.49 298.61L189.46 298.33L188.00 297.98L186.14 297.53L184.34 297.10L181.25 296.35L178.79 295.71L177.05 295.26L175.24 294.79L173.60 294.37L171.64 293.86L170.14 293.47L168.96 293.89L167.39 294.45L165.03 295.29L160.36 294.59L157.63 293.70L155.78 293.10L152.33 291.98L148.66 290.78L145.33 289.70L139.83 287.91L135.89 286.63L129.91 284.68L123.47 282.36L120.82 280.78L118.04 279.11L115.95 277.86L114.87 277.21L113.69 276.51L112.06 275.54L110.62 274.67L109.10 273.77L106.49 272.20L104.49 270.95L96.83 264.94L90.93 257.73Z" data-ward="10" /><path id="ward-2" class="ward" d="M273.25 40.32L271.35 39.64L268.66 40.22L266.87 40.61L263.17 39.73L261.87 42.64L260.18 42.93L258.50 43.21L256.66 42.21L254.15 42.31L250.89 42.44L249.64 44.72L248.84 46.18L250.70 47.17L251.05 49.38L251.47 51.35L251.74 52.64L254.97 53.72L257.61 53.82L260.04 53.90L261.75 53.51L263.80 53.25L265.71 53.92L267.76 55.12L270.09 57.11L271.84 57.85L273.59 58.60L276.05 59.90L277.49 61.08L279.13 62.41L280.41 63.43L282.11 64.15L281.98 67.24L281.64 69.52L281.18 71.12L279.55 72.19L278.13 73.00L276.53 73.84L275.24 74.56L273.22 76.25L272.71 77.86L273.22 79.63L274.75 80.57L275.92 80.88L278.80 83.66L279.24 85.80L278.28 86.54L276.70 88.20L275.93 89.11L275.03 90.20L274.54 91.44L274.15 92.58L273.68 93.72L273.05 95.07L271.47 96.07L270.70 97.31L269.97 99.74L269.31 101.78L268.81 103.34L268.27 105.00L267.04 106.19L265.34 107.83L263.93 109.45L262.70 111.23L261.82 112.49L260.08 113.23L258.31 113.98L256.80 114.36L255.58 114.68L254.33 114.78L252.70 114.16L252.48 115.50L252.34 116.73L252.19 118.04L251.46 119.08L250.23 119.21L248.95 119.35L247.74 119.78L246.51 121.20L244.98 122.94L243.80 123.82L241.23 125.13L239.74 124.41L238.42 123.77L236.80 123.00L235.66 122.54L234.11 121.94L232.86 121.46L230.92 120.72L229.96 121.65L229.19 122.73L228.47 123.76L227.42 124.54L226.41 125.29L225.39 126.04L223.96 127.62L223.30 128.64L222.31 130.19L223.01 131.23L223.84 132.29L224.70 133.40L225.45 134.36L226.96 135.28L228.15 136.01L230.04 137.20L231.11 137.89L232.13 138.54L233.63 140.10L234.64 141.15L235.42 142.14L236.74 143.79L237.02 145.07L237.35 146.59L237.41 148.40L237.45 149.88L236.56 154.13L235.60 156.11L235.07 157.21L233.94 160.10L233.77 161.64L233.70 162.94L233.64 164.32L235.96 164.97L237.22 165.15L238.11 166.14L238.78 167.14L239.45 168.14L240.00 169.22L240.43 170.36L240.87 171.52L241.34 172.77L241.76 173.94L242.21 175.19L243.23 176.90L244.39 178.15L245.32 179.12L246.43 180.28L247.25 181.49L247.93 182.62L249.54 183.67L251.11 184.71L252.16 186.21L251.82 188.23L249.36 188.43L251.63 190.67L252.80 191.50L254.02 192.21L255.06 192.92L255.99 194.01L256.82 194.98L258.06 196.15L259.10 197.04L260.62 198.30L262.47 199.15L264.57 200.47L266.11 201.69L267.56 202.83L269.00 203.80L270.03 204.48L271.10 205.14L272.68 205.07L275.77 204.62L277.20 204.39L279.07 204.08L280.32 203.88L281.92 203.64L283.25 204.16L284.22 205.31L285.10 206.28L286.31 207.62L287.11 208.55L287.86 209.50L288.98 210.58L291.45 211.72L292.26 213.16L293.68 214.42L295.76 215.65L296.43 217.17L297.01 218.31L297.96 220.17L298.52 221.45L298.88 222.64L299.13 223.83L299.27 225.05L299.36 226.43L299.47 228.02L299.61 229.22L300.13 231.01L300.67 232.21L300.92 233.60L301.04 235.26L300.50 237.25L299.86 238.29L299.20 239.37L298.09 240.18L296.60 240.84L295.17 241.55L293.79 242.34L292.42 243.14L291.46 243.89L290.37 244.73L292.13 245.68L293.79 245.86L295.19 246.00L296.42 246.13L298.60 246.07L300.03 245.86L301.34 245.67L302.63 245.75L303.97 246.30L305.26 246.84L306.48 247.34L308.58 247.33L313.57 246.83L314.76 247.35L315.91 247.85L317.90 248.49L319.10 248.60L320.60 248.74L321.96 248.87L323.23 248.93L325.88 248.59L327.73 248.34L329.39 248.12L331.05 247.88L332.73 247.63L333.97 247.41L335.98 247.03L337.92 246.67L339.30 246.40L341.02 245.50L342.07 244.90L343.62 243.87L344.97 243.17L346.18 242.69L347.23 241.24L348.03 240.30L349.10 239.65L350.32 239.58L351.92 239.90L353.51 238.99L354.28 237.53L356.12 236.56L358.21 234.94L359.93 234.13L361.06 232.42L362.83 229.44L363.49 228.10L365.21 225.49L365.58 224.15L367.26 222.53L368.02 221.53L368.78 220.53L370.21 217.98L371.40 216.95L372.87 215.66L374.12 215.23L375.56 214.72L378.21 210.57L377.09 209.17L376.58 207.95L377.37 205.80L378.46 205.25L379.74 205.46L381.76 205.54L383.38 204.61L384.66 203.79L385.85 203.02L386.92 202.33L388.24 201.24L388.83 199.43L387.71 196.46L386.90 194.75L385.32 191.44L384.20 189.10L383.60 187.85L383.01 186.74L382.43 185.63L374.20 177.06L372.89 175.73L371.86 174.83L371.53 173.52L372.42 172.21L373.29 170.92L374.33 169.24L374.57 167.73L374.05 166.24L372.51 164.72L371.26 163.52L370.04 162.35L368.64 161.01L367.43 159.85L366.19 158.76L365.96 157.39L365.74 156.03L365.53 154.77L365.31 153.45L366.01 152.40L366.84 151.39L367.34 149.83L367.64 148.53L367.98 147.02L368.41 145.14L368.42 143.28L366.78 137.59L365.98 134.94L365.45 133.15L366.43 132.22L367.87 130.83L368.89 129.85L369.89 128.89L370.89 127.93L371.77 127.08L372.91 125.99L374.57 124.40L376.49 122.55L377.51 121.52L378.54 120.49L379.83 117.97L380.30 115.11L379.98 112.99L379.99 111.75L380.30 110.55L380.65 109.18L380.97 107.94L381.27 106.77L382.02 105.75L383.32 105.09L384.83 103.95L386.12 102.63L386.34 101.17L385.85 99.81L385.19 97.84L384.63 96.74L383.61 93.45L382.82 92.36L382.02 91.24L380.54 89.92L379.36 89.75L378.15 89.20L377.33 88.16L376.58 86.88L376.15 85.64L375.27 83.94L373.60 80.99L372.84 80.07L371.71 79.69L370.67 79.09L369.75 78.30L369.33 77.15L368.57 76.16L367.45 75.76L366.79 74.66L366.69 73.36L366.33 72.19L365.64 71.20L364.40 70.55L363.19 69.85L362.16 68.96L361.48 67.91L360.66 66.97L359.55 66.54L358.61 65.77L356.98 64.71L354.24 64.24L353.17 63.10L352.55 61.90L353.22 60.52L353.36 59.11L352.24 58.59L350.66 57.68L351.78 54.93L350.21 55.40L348.07 56.05L346.92 57.32L344.46 60.05L342.58 62.12L341.60 64.20L337.46 64.76L334.38 65.18L332.58 65.95L330.38 65.47L327.10 64.08L322.83 63.33L321.10 59.82L319.09 58.42L316.64 56.71L313.97 57.53L309.68 57.44L308.67 58.74L307.68 60.01L306.97 63.67L304.51 62.79L302.75 63.10L299.61 62.98L295.94 60.66L296.95 57.99L296.80 54.15L295.52 53.84L291.43 52.84L288.10 52.03L285.22 53.03L284.46 54.37L283.04 56.85L281.16 55.93L282.76 53.29L284.05 51.16L281.94 48.08L277.70 47.93L276.22 47.01L274.62 46.01L274.00 44.18L274.33 42.69L274.43 40.74L273.25 40.32Z" data-ward="2" /><path id="ward-11" class="ward" d="M207.49 297.60L205.05 297.18L203.97 299.00L205.15 301.02L205.61 303.02L204.77 304.94L204.22 306.18L204.60 307.64L204.98 309.08L204.72 310.34L204.19 312.47L204.11 314.01L202.81 316.93L201.76 319.61L201.26 320.83L199.74 322.41L198.96 323.52L198.18 324.64L197.17 326.48L196.79 328.40L196.64 329.85L196.71 331.32L198.28 333.01L199.27 334.53L200.40 336.51L201.13 337.79L199.36 338.53L197.60 339.94L196.28 341.37L194.95 342.79L194.84 345.09L195.66 347.68L196.68 348.50L196.85 350.26L197.27 351.42L197.77 352.62L197.74 353.90L197.40 355.66L198.29 356.61L199.75 359.04L200.15 360.58L201.39 362.55L202.47 364.59L203.42 365.52L203.29 369.67L202.97 371.86L202.14 373.85L201.31 375.85L201.94 377.60L202.02 379.64L202.66 381.41L202.95 383.26L203.00 384.58L202.67 386.32L202.06 389.04L200.65 390.09L199.30 390.92L197.23 392.04L195.93 392.82L195.83 394.45L196.40 395.67L196.64 398.23L195.63 400.30L196.11 401.94L196.35 403.71L196.30 405.50L197.76 405.45L199.01 405.01L199.16 403.01L199.46 401.58L200.23 400.11L201.22 399.45L202.65 398.67L204.25 397.36L205.39 397.79L207.41 397.69L208.39 398.44L209.57 398.35L211.62 396.98L212.61 397.83L213.55 400.31L213.73 402.21L214.72 404.34L215.33 405.50L215.94 406.66L216.45 407.75L217.76 409.56L218.93 410.32L220.34 410.49L222.54 410.64L225.41 411.27L227.42 412.65L228.46 413.90L229.38 414.87L231.26 416.36L232.84 416.98L234.07 417.45L235.32 417.93L238.06 418.98L239.68 419.92L240.73 420.53L241.79 421.14L243.77 422.60L244.81 423.51L245.84 424.41L246.92 425.36L248.04 426.23L249.03 426.99L250.39 428.03L251.79 428.81L253.14 429.42L254.46 430.02L256.01 430.73L257.18 431.54L258.15 432.23L259.25 433.02L260.31 433.78L261.64 434.73L262.88 435.61L264.26 436.58L265.40 437.36L266.59 438.18L267.59 438.87L268.58 439.56L269.84 440.09L271.06 440.07L272.45 439.84L273.84 439.52L275.01 439.25L276.28 439.80L277.05 441.00L277.88 442.30L278.53 443.32L279.51 444.86L280.86 446.73L281.80 447.95L282.66 449.05L284.00 450.73L284.81 451.74L285.73 452.89L286.50 453.85L287.79 454.93L289.08 455.41L290.57 455.96L291.93 456.45L293.21 456.81L294.70 457.21L296.06 457.58L297.33 457.93L298.78 458.36L299.88 459.12L300.88 459.81L301.94 460.54L303.16 461.37L304.84 463.19L305.74 464.43L306.61 465.63L307.61 467.08L308.61 468.84L309.31 470.08L309.99 471.30L310.84 472.79L311.58 474.04L312.30 475.24L313.04 476.45L313.94 477.93L314.34 479.81L314.16 481.65L313.99 483.38L314.83 484.34L316.28 485.83L317.42 487.01L318.40 487.85L319.61 488.88L320.99 489.35L322.29 489.69L323.59 490.02L325.46 490.51L327.55 491.06L328.84 491.43L330.09 491.80L332.18 492.69L333.58 493.47L334.91 494.25L335.15 495.48L335.91 496.45L337.26 496.68L338.57 496.91L339.99 497.16L339.99 498.47L339.99 499.67L339.98 501.21L339.64 502.51L339.22 504.15L338.87 505.50L338.92 506.80L338.97 508.25L337.73 508.82L336.53 509.18L335.21 509.58L333.72 510.01L332.46 509.55L331.29 509.07L330.04 508.90L328.86 509.14L327.71 509.64L327.45 511.00L327.18 512.38L327.25 513.61L328.00 514.67L328.72 515.70L329.40 516.68L330.34 517.47L331.66 517.96L331.96 519.16L332.35 520.92L332.40 522.12L332.46 523.44L332.44 524.90L332.33 526.15L331.97 528.30L331.58 529.92L331.20 531.51L331.69 533.49L332.34 535.00L331.42 536.55L328.61 537.98L330.16 538.76L331.51 539.44L332.64 540.00L333.78 540.56L335.14 541.05L336.33 541.47L338.02 542.08L339.88 542.74L341.44 543.36L343.55 544.60L345.18 545.56L346.85 546.54L348.24 546.86L349.98 547.26L351.32 547.57L353.38 548.05L356.05 548.70L357.36 549.04L360.02 549.73L361.72 550.18L363.21 550.57L364.73 549.58L366.29 548.57L367.76 547.62L368.80 546.98L370.96 546.77L372.32 546.68L373.89 546.56L376.34 547.70L377.97 548.86L379.16 548.72L380.98 548.51L383.95 548.16L385.19 548.05L386.99 548.30L388.40 548.66L390.49 549.19L392.18 549.62L393.77 550.03L395.74 550.52L398.77 551.27L403.10 552.34L404.52 552.18L406.00 552.00L409.15 551.64L413.29 551.15L414.53 550.88L416.02 550.55L418.65 549.97L420.92 549.47L424.73 548.63L426.09 547.62L428.51 545.82L430.57 544.30L433.78 543.12L435.80 542.72L436.59 541.78L437.65 540.52L439.10 538.79L439.88 537.86L441.22 536.26L442.25 534.34L443.48 532.03L444.06 530.95L445.03 529.14L445.79 527.72L445.71 525.64L445.60 522.88L445.55 521.63L445.48 519.87L445.30 517.61L445.02 516.12L444.54 514.64L443.69 511.88L443.81 510.58L444.05 507.91L444.05 506.61L444.05 504.79L446.63 503.02L448.23 500.99L448.88 499.29L450.52 495.26L452.86 493.39L454.56 492.11L455.88 491.10L457.94 490.20L459.49 489.95L460.61 490.65L461.40 492.97L461.02 494.30L460.47 495.75L459.47 497.84L459.15 499.12L459.22 500.42L460.26 501.19L461.52 501.34L463.58 501.62L465.07 501.63L466.29 501.35L467.45 501.09L469.66 500.59L471.49 500.17L473.14 499.80L475.94 500.03L477.30 499.80L479.34 499.45L481.72 498.58L483.47 497.23L484.68 495.61L485.38 493.51L485.24 491.73L485.70 489.27L484.59 488.65L483.38 488.53L482.43 489.37L481.14 490.93L479.60 492.13L478.14 492.23L476.49 491.59L474.94 490.74L471.24 487.04L473.10 485.26L474.38 483.71L473.76 481.61L473.28 479.30L473.01 477.95L469.06 472.42L468.01 470.53L467.32 469.27L466.06 463.86L465.17 458.82L465.71 454.04L468.14 449.43L467.37 443.55L468.29 440.14L469.91 435.34L470.46 432.78L470.52 431.15L470.68 427.13L470.75 425.17L470.83 423.12L469.57 417.99L468.50 415.63L465.93 414.78L464.01 414.17L461.92 413.55L461.93 411.72L461.95 407.49L461.53 405.29L461.08 402.94L460.00 399.56L458.17 397.20L457.26 396.05L455.95 394.43L453.70 391.60L452.84 387.94L452.51 385.82L451.62 382.24L451.20 380.53L450.82 378.98L448.91 372.95L447.20 372.46L446.02 372.12L444.78 371.65L442.67 370.68L441.38 370.09L439.74 369.27L437.51 368.73L433.56 369.89L432.07 370.32L430.50 370.57L428.57 370.87L427.25 371.11L424.81 371.55L418.60 373.00L417.31 373.39L415.04 374.09L413.79 374.46L412.54 374.83L410.52 375.41L408.39 376.02L405.82 376.64L403.93 376.77L402.63 376.78L400.70 376.14L398.77 375.42L397.23 374.20L395.63 373.00L394.28 372.21L392.95 371.42L389.39 370.42L388.09 370.07L386.38 369.60L384.25 369.05L382.94 368.87L381.15 368.61L379.35 368.37L375.25 368.70L373.32 369.47L371.89 369.77L369.39 369.88L367.08 369.83L365.25 369.63L363.72 370.28L361.93 371.34L359.84 371.08L357.37 371.47L354.99 372.75L353.31 372.78L353.30 371.20L353.28 369.99L351.95 368.74L350.28 367.91L349.18 367.35L348.17 366.39L347.51 363.74L346.97 361.92L346.32 360.15L345.73 358.49L345.17 356.81L344.65 355.18L343.76 353.32L342.33 351.65L341.20 350.68L339.59 350.46L337.63 350.16L335.28 348.87L333.14 347.65L331.51 346.74L329.49 345.49L327.23 340.22L325.09 336.87L322.93 334.23L320.14 332.46L315.66 331.58L312.43 330.91L310.26 331.22L308.58 332.01L304.19 330.99L299.88 329.65L297.86 328.23L297.56 324.23L297.31 322.95L296.09 322.59L294.84 322.22L293.53 322.51L290.68 323.15L288.86 323.48L287.48 323.64L285.86 323.83L283.95 323.55L282.74 322.94L281.33 322.23L279.87 321.50L278.22 320.62L276.96 319.65L275.53 318.55L274.54 317.79L273.57 317.05L271.48 315.24L268.83 315.26L267.01 315.75L263.74 314.52L260.54 313.30L259.09 312.32L256.72 310.79L254.75 309.90L253.55 309.36L249.59 309.31L246.70 309.53L244.85 311.02L242.08 310.27L238.23 307.99L236.45 306.80L234.41 305.32L233.29 303.79L231.72 302.45L229.39 302.26L227.00 302.52L224.18 301.13L221.41 299.95L220.29 299.49L217.94 298.60L215.58 297.72L214.18 297.76L212.78 297.80L210.27 298.06L207.49 297.60Z" data-ward="11" /><path id="ward-12" class="ward" d="M382.72 240.08L381.40 239.42L380.08 238.77L378.35 237.24L377.77 234.57L376.69 233.64L375.61 232.70L373.78 231.36L372.13 230.86L370.48 230.35L368.95 229.66L367.88 228.24L366.80 226.85L365.21 225.49L363.49 228.10L362.83 229.44L361.06 232.42L359.93 234.13L358.21 234.94L356.12 236.56L354.28 237.53L353.51 238.99L351.92 239.90L350.32 239.58L349.10 239.65L348.03 240.30L347.23 241.24L346.18 242.69L344.97 243.17L343.62 243.87L342.07 244.90L341.02 245.50L339.30 246.40L337.92 246.67L335.98 247.03L333.97 247.41L332.73 247.63L331.05 247.88L329.39 248.12L327.73 248.34L325.88 248.59L323.23 248.93L321.96 248.87L320.60 248.74L319.10 248.60L317.90 248.49L315.91 247.85L314.76 247.35L313.57 246.83L308.58 247.33L306.48 247.34L305.26 246.84L303.97 246.30L302.63 245.75L301.34 245.67L300.03 245.86L298.60 246.07L296.42 246.13L295.19 246.00L293.79 245.86L292.13 245.68L290.37 244.73L285.95 247.36L284.99 248.65L283.79 250.57L281.41 252.75L272.18 260.25L266.58 263.20L263.37 264.89L262.31 265.87L261.24 266.85L252.52 275.62L249.39 275.97L248.24 278.09L247.14 278.74L246.01 279.40L244.04 279.34L241.52 280.44L239.81 280.80L240.73 283.86L241.19 285.40L242.11 288.46L242.57 290.00L243.02 291.52L244.11 294.80L244.80 297.18L245.36 299.13L246.02 301.26L247.12 304.72L246.90 307.20L246.70 309.53L249.59 309.31L253.55 309.36L254.75 309.90L256.72 310.79L259.09 312.32L260.54 313.30L263.74 314.52L267.01 315.75L268.83 315.26L271.48 315.24L273.57 317.05L274.54 317.79L275.53 318.55L276.96 319.65L278.22 320.62L279.87 321.50L281.33 322.23L282.74 322.94L283.95 323.55L285.86 323.83L287.48 323.64L288.86 323.48L290.68 323.15L293.53 322.51L294.84 322.22L296.09 322.59L297.31 322.95L297.56 324.23L297.86 328.23L299.88 329.65L304.19 330.99L308.58 332.01L310.26 331.22L312.43 330.91L315.66 331.58L320.14 332.46L322.93 334.23L325.09 336.87L327.23 340.22L329.49 345.49L331.51 346.74L333.14 347.65L335.28 348.87L337.63 350.16L339.59 350.46L341.20 350.68L342.33 351.65L343.76 353.32L344.65 355.18L345.17 356.81L345.73 358.49L346.32 360.15L346.97 361.92L347.51 363.74L348.17 366.39L349.18 367.35L350.28 367.91L351.95 368.74L353.28 369.99L353.30 371.20L353.31 372.78L354.99 372.75L357.37 371.47L359.84 371.08L361.93 371.34L363.72 370.28L365.25 369.63L367.08 369.83L369.39 369.88L371.89 369.77L373.32 369.47L375.25 368.70L379.35 368.37L381.15 368.61L382.94 368.87L384.25 369.05L386.38 369.60L388.09 370.07L389.39 370.42L392.95 371.42L394.28 372.21L395.63 373.00L397.23 374.20L398.77 375.42L400.70 376.14L402.63 376.78L403.93 376.77L405.82 376.64L408.39 376.02L410.52 375.41L412.54 374.83L413.79 374.46L415.04 374.09L417.31 373.39L418.60 373.00L424.81 371.55L427.25 371.11L428.57 370.87L430.50 370.57L432.07 370.32L433.56 369.89L437.51 368.73L439.74 369.27L441.38 370.09L442.67 370.68L444.78 371.65L446.02 372.12L447.20 372.46L448.91 372.95L450.82 378.98L451.20 380.53L451.62 382.24L452.51 385.82L452.84 387.94L453.70 391.60L455.95 394.43L457.26 396.05L458.17 397.20L460.00 399.56L461.08 402.94L461.53 405.29L461.95 407.49L461.93 411.72L461.92 413.55L464.01 414.17L465.93 414.78L468.50 415.63L469.57 417.99L470.83 423.12L470.75 425.17L470.68 427.13L470.52 431.15L470.46 432.78L469.91 435.34L468.29 440.14L467.37 443.55L468.14 449.43L465.71 454.04L465.17 458.82L466.06 463.86L467.32 469.27L468.01 470.53L469.06 472.42L473.01 477.95L473.28 479.30L473.76 481.61L474.38 483.71L473.10 485.26L471.24 487.04L474.94 490.74L476.49 491.59L478.14 492.23L479.60 492.13L481.14 490.93L482.43 489.37L483.38 488.53L484.59 488.65L485.70 489.27L485.24 491.73L485.38 493.51L487.44 494.29L488.44 496.46L490.44 496.56L491.64 496.01L493.27 495.51L494.47 494.08L496.12 494.41L497.32 494.77L498.54 495.14L500.26 495.65L501.69 496.01L503.11 496.37L504.74 496.76L505.93 497.03L507.70 497.43L509.03 497.72L511.01 497.51L511.15 494.17L511.06 492.14L510.72 490.17L511.65 488.65L512.82 487.95L514.98 487.06L517.76 486.05L520.56 485.44L522.14 485.09L521.80 483.79L518.57 481.07L517.55 479.89L515.81 477.36L515.90 475.62L515.52 474.29L513.25 466.32L512.06 460.88L510.88 455.42L510.10 449.16L509.87 446.18L510.36 444.69L512.21 438.97L510.50 428.94L509.77 427.94L509.05 426.94L508.06 425.57L507.07 424.21L506.31 423.14L505.60 422.16L504.89 421.18L504.40 419.93L504.48 417.81L504.57 415.69L504.64 413.89L505.62 412.50L511.63 409.74L515.68 407.72L521.44 403.49L521.59 397.47L522.74 395.00L523.52 393.31L524.39 391.43L524.90 390.33L525.35 388.82L525.36 387.12L525.37 385.60L525.41 383.65L526.02 382.13L527.04 380.19L527.96 378.44L528.19 376.76L526.96 375.46L525.77 374.25L524.10 372.59L523.45 371.46L522.58 369.95L520.94 368.29L519.94 367.34L518.38 366.10L516.61 365.64L515.34 366.90L513.97 367.79L512.76 368.63L511.60 369.54L509.56 370.04L507.25 369.44L505.89 367.93L504.33 366.18L503.41 365.11L502.62 364.18L500.01 360.98L498.65 359.11L497.51 357.93L496.54 356.93L495.19 355.54L492.39 352.84L490.88 350.62L489.61 348.86L488.45 347.71L487.21 346.48L485.81 345.20L485.59 343.11L486.41 341.39L487.10 340.23L487.61 339.06L489.78 337.06L491.89 336.62L492.88 337.52L494.18 339.23L495.20 340.02L496.69 339.91L497.84 339.03L497.99 337.67L498.62 336.29L499.86 336.00L501.85 336.06L501.01 334.59L501.56 332.23L501.57 329.23L500.80 327.31L500.24 326.07L497.75 325.38L495.66 324.87L494.42 325.03L493.17 325.19L491.84 325.44L488.51 324.86L485.72 324.06L483.49 321.61L482.47 319.99L477.88 318.26L473.64 315.35L472.07 314.35L470.51 313.36L467.75 311.65L464.85 306.77L461.24 302.36L460.07 298.38L457.69 299.06L456.09 299.96L454.17 300.79L452.66 301.44L450.90 302.06L449.63 302.12L448.27 302.10L445.88 301.28L444.38 300.14L443.49 299.33L441.34 297.53L440.42 296.21L438.87 294.05L437.70 292.23L436.49 290.52L435.17 289.03L433.95 287.63L432.86 286.85L431.76 285.71L430.66 284.14L429.42 283.13L428.26 282.68L427.10 282.24L426.16 281.17L425.16 279.32L423.96 277.45L422.78 275.98L422.03 275.03L420.78 273.53L420.07 271.32L418.61 268.55L417.45 266.34L416.30 264.57L414.81 263.37L413.31 262.18L411.77 262.10L410.23 262.02L408.32 261.82L406.45 260.71L404.91 259.52L403.51 258.48L401.55 258.27L399.59 258.06L397.59 257.42L395.44 256.93L393.90 256.40L392.50 255.76L391.35 254.89L390.73 253.40L390.68 251.72L391.07 249.57L389.80 247.79L388.53 246.03L386.93 244.30L385.34 242.58L382.72 240.08Z" data-ward="12" /><path id="ward-8" class="ward" d="M503.64 339.09L503.14 336.40L501.85 336.06L499.86 336.00L498.62 336.29L497.99 337.67L497.84 339.03L496.69 339.91L495.20 340.02L494.18 339.23L492.88 337.52L491.89 336.62L489.78 337.06L487.61 339.06L487.10 340.23L486.41 341.39L485.59 343.11L485.81 345.20L487.21 346.48L488.45 347.71L489.61 348.86L490.88 350.62L492.39 352.84L495.19 355.54L496.54 356.93L497.51 357.93L498.65 359.11L500.01 360.98L502.62 364.18L503.41 365.11L504.33 366.18L505.89 367.93L507.25 369.44L509.56 370.04L511.60 369.54L512.76 368.63L513.97 367.79L515.34 366.90L516.61 365.64L518.38 366.10L519.94 367.34L520.94 368.29L522.58 369.95L523.45 371.46L524.10 372.59L525.77 374.25L526.96 375.46L528.19 376.76L527.96 378.44L527.04 380.19L526.02 382.13L525.41 383.65L525.37 385.60L525.36 387.12L525.35 388.82L524.90 390.33L524.39 391.43L523.52 393.31L522.74 395.00L521.59 397.47L521.44 403.49L515.68 407.72L511.63 409.74L505.62 412.50L504.64 413.89L504.57 415.69L504.48 417.81L504.40 419.93L504.89 421.18L505.60 422.16L506.31 423.14L507.07 424.21L508.06 425.57L509.05 426.94L509.77 427.94L510.50 428.94L512.21 438.97L510.36 444.69L509.87 446.18L510.10 449.16L510.88 455.42L512.06 460.88L513.25 466.32L515.52 474.29L515.90 475.62L515.81 477.36L517.55 479.89L518.57 481.07L521.80 483.79L522.14 485.09L520.56 485.44L517.76 486.05L514.98 487.06L512.82 487.95L511.65 488.65L510.72 490.17L511.06 492.14L511.15 494.17L511.01 497.51L509.03 497.72L507.70 497.43L505.93 497.03L504.74 496.76L503.11 496.37L501.69 496.01L500.26 495.65L498.54 495.14L497.32 494.77L496.12 494.41L494.47 494.08L493.27 495.51L491.64 496.01L490.44 496.56L488.44 496.46L487.44 494.29L485.38 493.51L484.68 495.61L483.47 497.23L481.72 498.58L479.34 499.45L477.30 499.80L475.94 500.03L473.14 499.80L471.49 500.17L469.66 500.59L467.45 501.09L466.29 501.35L465.07 501.63L463.58 501.62L461.52 501.34L460.26 501.19L459.22 500.42L459.15 499.12L459.47 497.84L460.47 495.75L461.02 494.30L461.40 492.97L460.61 490.65L459.49 489.95L457.94 490.20L455.88 491.10L454.56 492.11L452.86 493.39L450.52 495.26L448.88 499.29L448.23 500.99L450.16 500.64L451.32 501.30L453.00 502.95L458.13 503.65L460.99 503.56L462.91 503.62L467.23 504.28L470.94 504.15L472.24 504.61L474.85 505.48L476.34 505.89L478.73 506.53L482.62 508.03L486.91 508.61L488.43 508.99L490.57 509.53L495.24 509.08L498.09 509.69L501.54 509.90L505.85 508.60L507.45 508.12L508.69 509.72L509.63 510.87L510.44 512.02L511.91 513.65L513.28 515.27L513.69 516.89L514.00 518.20L514.62 519.67L515.48 521.08L516.34 522.49L517.61 524.15L519.06 525.63L520.85 526.89L522.83 528.65L523.67 529.56L525.02 531.30L525.87 532.40L526.97 533.94L530.03 538.25L532.33 539.31L533.75 539.96L535.05 540.22L536.35 541.10L537.30 541.90L538.57 543.38L539.34 544.98L538.90 548.20L537.17 551.35L535.69 552.99L533.85 554.93L530.72 555.63L529.01 555.81L526.06 555.96L524.16 556.95L522.53 559.33L521.05 561.85L518.43 564.60L517.48 565.67L516.54 566.75L514.40 569.39L514.05 571.04L513.70 572.69L513.31 575.65L512.88 580.00L512.71 581.75L512.45 584.03L512.21 586.09L511.16 588.24L509.35 589.92L506.21 590.97L504.02 591.68L502.89 592.04L501.34 592.54L498.55 594.39L496.78 595.76L494.14 599.67L493.40 600.76L491.61 602.89L490.06 604.73L488.05 607.66L487.12 609.03L489.63 611.13L491.21 611.77L496.25 611.00L500.56 610.39L503.26 610.28L505.91 610.08L508.06 609.91L510.18 609.65L516.67 608.01L522.42 606.47L523.97 606.13L529.46 604.72L534.30 603.63L536.88 603.05L540.62 602.21L543.11 601.64L548.42 600.42L550.05 600.04L553.62 599.27L556.50 598.65L561.45 596.85L563.07 596.31L565.90 595.36L571.88 595.06L575.16 594.89L580.01 598.83L587.93 600.69L595.04 602.36L601.88 603.97L609.25 605.70L615.65 607.21L621.83 608.66L623.97 609.16L629.63 610.35L635.60 610.32L636.92 610.32L641.06 610.07L647.02 609.09L651.69 608.33L652.99 607.73L655.70 606.47L656.12 603.09L660.87 605.56L664.82 607.88L667.30 609.33L672.64 611.75L674.24 612.48L679.91 615.08L683.09 616.42L686.43 617.95L689.23 619.16L692.68 620.65L696.34 622.23L698.66 623.23L704.33 624.97L709.08 626.41L714.22 628.16L719.67 630.02L723.00 631.15L725.40 631.97L729.47 632.80L747.47 636.46L764.16 639.85L766.31 640.25L773.51 641.73L781.17 643.31L784.81 644.10L790.86 645.04L794.23 645.70L800.56 641.73L803.24 640.06L808.51 633.83L812.88 628.66L813.48 626.46L811.75 625.74L810.01 625.02L809.51 622.74L812.06 619.37L814.14 616.62L815.52 615.82L816.75 613.72L818.40 610.90L819.79 609.65L821.53 608.35L819.79 607.93L817.94 607.81L816.11 609.06L813.94 606.06L813.06 604.85L812.09 602.84L811.43 601.46L810.78 598.70L809.40 596.73L807.34 594.94L806.59 592.74L807.17 591.50L806.43 589.61L805.32 588.14L805.24 584.58L805.00 583.04L804.71 581.64L803.87 578.95L804.61 577.45L805.17 576.12L805.76 574.64L804.59 573.86L803.38 573.04L801.99 572.11L800.82 571.32L799.72 570.58L798.73 569.92L797.29 568.95L792.20 563.10L785.80 555.73L780.13 549.20L775.03 543.33L770.83 538.50L769.52 536.99L766.95 534.03L761.93 526.61L756.27 518.23L754.27 515.72L752.46 513.43L751.61 512.37L750.75 511.28L745.65 504.87L743.26 505.45L740.53 506.12L737.84 506.77L735.61 507.29L733.81 507.08L732.15 506.94L730.42 507.83L727.28 509.44L724.53 510.85L719.71 511.55L710.31 512.91L708.25 513.61L701.14 516.02L692.14 518.39L686.15 519.91L684.76 520.09L679.45 520.36L677.82 519.66L676.35 519.04L674.87 518.41L673.61 517.58L672.72 516.61L671.47 515.24L670.09 513.92L667.50 511.62L666.67 510.40L664.63 507.41L662.64 506.98L660.50 505.95L660.54 504.31L660.59 502.62L660.68 501.01L661.04 498.94L661.95 496.95L662.59 495.15L663.23 493.39L662.66 491.69L661.37 489.91L660.68 486.89L661.52 485.59L662.39 484.21L663.24 483.14L665.80 481.79L667.43 480.39L669.36 479.50L671.33 478.14L672.11 475.74L672.46 474.45L673.96 471.66L675.26 470.94L676.64 470.43L678.15 470.49L679.93 469.72L680.18 468.34L680.95 466.14L681.42 464.90L682.59 462.73L683.90 461.65L685.20 461.15L686.36 460.78L688.11 460.33L688.28 458.48L688.95 456.96L689.29 452.95L689.14 451.06L690.01 449.20L690.04 447.63L689.15 445.95L688.10 444.59L687.23 443.66L686.50 442.62L685.74 441.67L684.73 440.59L684.20 438.51L684.02 437.14L683.23 435.89L682.18 433.85L681.71 432.02L679.30 429.35L678.76 428.02L678.26 426.87L677.52 425.58L676.79 424.30L676.14 423.18L675.35 421.79L674.74 420.72L674.04 419.74L673.91 418.04L673.64 416.70L673.12 415.10L673.64 413.71L674.02 412.49L674.55 410.39L675.53 408.67L676.24 407.59L676.96 406.48L678.07 404.69L678.86 403.64L679.66 402.49L680.41 401.34L681.15 400.15L682.71 399.04L680.66 396.77L679.90 395.39L678.87 393.98L677.65 391.54L676.83 389.15L676.49 387.28L676.15 385.41L675.93 384.12L675.50 382.91L674.99 381.60L673.51 378.65L672.81 376.91L672.43 375.30L672.12 373.82L671.89 372.63L671.59 371.10L670.94 369.57L670.16 368.13L669.14 367.14L666.99 365.88L666.17 364.44L665.57 363.38L664.69 361.85L664.47 359.89L663.38 358.94L662.05 358.35L660.70 357.34L659.55 356.26L658.37 354.30L657.98 353.16L656.33 353.60L654.85 354.82L653.83 355.60L652.35 356.73L651.39 357.44L650.61 358.47L649.92 359.96L649.62 361.45L649.50 363.15L649.48 364.68L649.48 366.22L648.81 367.29L647.17 367.84L645.79 367.49L643.81 365.25L641.04 362.02L638.53 359.26L635.82 357.57L632.54 355.51L630.98 354.43L628.72 352.87L605.06 343.19L603.34 342.42L602.14 342.08L599.62 341.37L597.34 343.53L592.22 346.55L590.90 347.46L589.51 348.43L584.71 352.22L582.42 353.32L581.10 353.96L574.36 356.67L571.83 357.15L567.34 358.00L566.12 358.29L562.99 358.02L559.37 357.84L556.64 357.68L554.67 357.56L553.18 358.20L549.89 358.25L547.49 357.36L544.83 356.02L543.04 355.56L541.50 355.13L539.33 354.38L537.07 352.70L535.48 351.61L534.14 350.28L533.05 347.34L532.30 345.88L531.00 345.30L529.91 345.89L528.80 346.55L526.49 346.79L524.93 345.28L522.98 345.10L521.53 345.85L518.84 345.38L517.98 343.33L516.58 340.34L515.41 340.57L513.23 340.91L510.70 342.90L508.96 343.57L506.90 343.28L504.76 342.43L504.18 340.37L503.64 339.09Z" data-ward="8" /></svg>