<svg viewBox="0 0 1000.00 964.97" xmlns="http://www.w3.org/2000/svg"><style>.ward { fill: #e2e8f0; stroke: #fff; stroke-width: 0.5px; } .ward:hover { fill: #cbd5e1; }</style><path id="ward-14" class="ward" d="M117.35 300.30L113.24 300.08L107.48 299.92L104.41 299.90L102.03 298.91L99.93 297.92L96.98 296.87L93.79 295.74L90.82 295.06L88.71 294.46L85.31 295.79L84.07 298.87L82.82 301.94L81.46 304.40L79.39 307.65L77.38 310.22L75.37 312.79L72.04 315.76L75.05 316.14L71.85 320.98L68.98 325.34L67.37 327.77L67.01 332.52L67.64 335.01L68.21 337.27L70.19 341.65L72.38 343.78L70.22 349.74L67.32 352.54L62.58 357.35L64.63 361.85L65.98 364.83L67.07 367.24L68.31 369.96L70.05 373.31L72.63 375.38L74.68 377.02L77.42 379.22L78.10 382.12L76.15 385.60L73.17 388.33L71.03 385.60L68.88 382.87L66.68 386.75L67.17 391.98L65.81 394.47L58.46 407.87L63.52 410.97L76.53 418.95L93.81 429.32L88.64 437.23L92.47 441.91L94.71 444.65L96.56 446.92L98.67 449.50L100.94 452.28L103.64 455.57L102.10 458.79L100.39 462.37L98.87 465.55L96.59 470.32L94.50 473.32L92.80 475.76L91.02 478.31L88.12 482.47L90.24 486.55L91.51 488.28L95.04 492.49L97.52 495.84L100.25 498.64L104.26 501.02L107.79 502.02L112.04 504.10L114.77 505.66L118.34 507.31L120.70 508.83L121.96 510.63L123.92 512.81L126.13 515.08L128.97 516.95L131.66 518.42L137.32 518.73L139.22 520.64L142.27 521.32L144.12 522.95L146.55 523.95L150.09 524.85L154.81 526.10L159.13 526.38L162.17 526.92L165.88 528.60L169.57 531.39L172.01 533.32L174.50 535.09L176.66 536.58L179.16 538.01L182.17 538.99L184.58 539.35L187.66 540.01L190.32 540.54L193.72 541.28L202.21 543.37L202.71 539.17L203.21 536.78L203.47 532.56L203.93 529.43L204.28 526.98L207.30 527.16L208.56 522.66L208.98 517.99L209.03 514.64L209.03 511.67L208.64 504.67L208.95 499.36L208.69 496.58L207.79 492.14L205.03 488.44L201.75 484.12L200.19 482.26L198.18 480.14L194.33 476.77L192.37 474.45L194.80 471.56L195.60 469.09L195.70 466.26L194.97 463.74L194.21 461.17L193.65 456.79L193.85 454.39L193.96 451.55L195.08 448.46L196.27 445.16L197.38 442.26L198.44 439.48L199.29 437.38L201.58 431.07L202.46 428.46L203.31 425.74L204.04 423.38L206.19 418.95L207.10 416.15L207.01 413.01L206.85 410.82L206.69 408.66L206.53 406.51L206.31 403.51L206.91 401.39L208.40 396.10L209.92 393.07L212.00 388.78L213.48 385.73L213.93 380.74L212.96 377.01L211.50 373.32L209.08 369.08L209.07 366.66L209.71 363.34L210.90 360.12L213.89 355.22L213.62 352.60L213.21 350.40L212.39 346.97L211.37 343.41L206.57 337.67L205.59 334.52L204.26 330.22L203.18 324.57L205.36 318.16L201.92 311.92L198.57 311.95L195.45 312.20L192.29 311.90L188.44 311.87L184.71 311.72L182.09 310.96L178.98 311.03L176.76 311.08L175.03 307.62L171.90 306.52L168.76 306.19L166.47 305.54L163.97 304.72L161.57 305.73L156.20 306.84L152.76 308.10L147.86 309.57L145.82 310.72L143.06 309.39L142.06 306.45L140.48 303.26L138.03 301.55L135.52 300.45L131.71 299.08L127.37 299.68L122.28 300.66L117.35 300.30Z" data-ward="14" /><path id="ward-5" class="ward" d="M463.33 534.10L461.05 531.60L460.70 529.47L460.06 527.10L459.10 524.36L458.05 521.67L456.53 517.80L456.23 513.94L456.30 510.19L455.99 506.55L457.50 504.36L459.11 502.04L460.19 499.07L461.14 496.92L462.41 494.21L462.89 491.90L463.48 489.06L463.27 486.65L462.14 484.18L460.74 481.48L457.92 478.45L455.60 476.95L453.78 474.03L452.27 471.01L450.75 467.99L450.04 465.52L449.00 462.17L446.90 464.03L445.19 465.84L441.46 467.17L438.44 467.77L434.98 468.39L430.49 471.56L429.34 473.45L427.93 476.07L426.85 478.03L424.97 480.16L422.56 482.64L419.49 484.87L416.40 487.70L415.13 490.83L414.75 493.49L414.35 495.81L412.49 497.48L408.36 499.33L405.02 501.06L402.64 501.90L404.14 505.95L405.05 509.49L405.91 512.54L406.34 516.13L406.90 520.60L407.80 525.44L408.15 530.78L408.76 535.15L409.40 542.10L410.55 546.07L411.82 550.72L413.61 553.91L414.66 556.16L415.88 558.83L417.37 560.63L418.86 562.43L421.80 565.17L425.63 568.45L427.88 570.33L429.54 571.90L432.74 574.04L435.56 575.88L438.26 577.60L440.66 579.35L444.41 582.16L447.13 584.03L450.73 586.56L453.63 588.49L457.01 590.64L458.92 592.02L461.01 593.46L463.12 594.84L465.60 596.44L468.96 598.44L472.00 600.17L475.86 602.87L478.19 604.53L481.33 606.51L483.76 608.32L485.71 609.61L488.23 611.24L491.10 613.08L493.14 614.35L495.33 615.71L498.15 617.45L501.09 619.26L504.24 621.11L507.77 623.19L509.79 624.40L512.27 625.89L514.63 627.21L517.39 628.68L519.92 631.23L522.08 632.47L524.14 633.35L526.20 634.23L529.71 635.84L531.85 636.41L534.81 638.26L537.36 639.31L539.42 640.42L543.08 641.64L545.57 643.08L548.35 644.49L551.05 645.74L557.18 648.34L559.64 649.49L563.08 651.01L566.77 652.20L569.07 652.77L571.82 653.16L575.14 653.64L576.98 654.77L578.81 655.90L581.82 658.11L583.84 659.59L585.87 661.07L588.66 663.09L593.15 665.77L597.44 668.01L601.67 670.35L603.99 671.60L605.90 672.71L607.82 673.81L611.06 676.24L614.71 678.62L617.51 683.06L620.28 686.19L624.28 689.89L629.14 693.19L635.29 697.69L648.35 706.10L660.62 713.99L667.24 715.95L667.47 707.58L668.61 704.72L669.94 699.20L670.57 696.61L671.79 688.70L672.68 682.93L673.13 680.01L700.32 667.44L715.28 663.54L720.99 662.05L726.77 659.50L730.97 660.05L738.90 652.97L741.75 652.26L744.51 651.58L745.12 647.87L745.73 644.27L746.14 641.89L744.30 640.22L742.46 638.55L740.90 636.68L739.38 634.08L738.08 631.78L736.78 629.48L738.63 627.20L738.91 623.06L733.93 619.70L728.65 616.15L729.35 613.56L729.44 610.26L729.00 607.27L726.84 602.15L728.24 599.14L730.89 595.46L732.99 591.64L735.43 588.58L737.87 585.54L740.30 584.11L742.72 582.69L746.35 580.86L749.53 578.64L751.50 573.64L751.43 570.67L750.67 563.90L749.87 561.44L749.12 557.79L749.69 555.22L750.27 552.65L751.46 550.35L753.68 548.42L755.50 546.84L756.36 543.85L755.24 542.02L753.73 539.89L756.58 537.57L759.04 535.93L761.74 534.05L765.29 528.60L765.91 525.82L766.59 522.74L762.70 522.35L760.12 521.66L758.73 519.54L757.38 517.83L755.32 515.25L753.98 513.16L754.08 510.67L752.21 509.46L750.07 507.76L748.33 510.00L745.34 508.53L744.57 505.25L743.51 502.97L741.87 499.17L739.57 496.15L736.80 495.26L734.16 495.00L734.49 492.41L732.40 493.03L729.84 492.42L725.31 491.46L721.79 493.89L723.68 498.12L727.52 502.01L726.57 505.48L724.61 508.53L722.68 509.77L719.80 511.81L713.05 514.69L704.84 511.51L686.08 502.62L683.29 506.63L679.76 511.05L677.44 514.41L675.64 517.87L674.55 519.95L673.47 522.04L668.45 524.13L660.86 520.27L657.62 519.51L654.38 518.76L650.10 517.48L645.37 516.27L643.03 515.59L640.12 515.05L636.77 514.37L634.61 513.57L632.45 512.76L629.87 511.71L627.30 510.66L624.79 508.97L623.14 507.43L621.10 505.62L619.48 504.03L617.18 501.90L614.72 499.56L612.73 497.67L609.71 494.80L608.17 492.96L605.46 489.72L602.08 487.53L600.25 486.17L598.52 489.01L597.38 491.40L595.40 495.54L594.03 497.36L592.68 499.48L591.43 504.77L591.44 508.01L591.50 510.97L591.25 513.42L590.99 515.88L590.35 518.44L588.79 522.71L588.00 525.15L587.72 527.73L587.62 530.46L587.82 533.03L588.02 535.63L587.93 538.27L587.84 540.90L587.24 543.70L586.64 546.50L584.82 549.79L582.82 551.47L580.83 553.14L578.76 553.89L575.40 555.10L573.21 557.33L572.61 560.80L572.12 564.53L570.98 566.66L568.77 565.50L564.71 563.64L562.57 562.73L560.36 561.78L556.02 560.07L553.10 559.54L549.10 558.88L545.68 559.62L542.93 560.13L541.04 558.87L537.56 556.56L535.08 554.99L532.39 553.23L529.61 551.29L527.70 550.03L524.65 547.09L520.59 545.45L517.42 544.96L513.82 543.81L511.37 542.24L509.69 540.87L508.01 539.51L505.43 537.37L500.70 534.57L497.39 535.50L495.06 536.10L491.70 536.67L488.35 537.24L484.13 537.06L480.94 536.65L477.90 536.46L474.94 536.02L469.20 535.73L464.92 535.83L463.33 534.10Z" data-ward="5" /><path id="ward-6" class="ward" d="M267.32 194.48L264.89 191.55L262.43 189.25L260.87 187.42L258.47 186.52L256.35 185.15L253.40 184.41L246.82 187.09L246.84 192.46L245.00 197.07L241.58 204.51L239.88 207.94L238.08 210.17L234.95 212.23L237.90 223.71L232.96 226.40L228.03 229.07L226.14 248.76L234.67 252.66L241.66 255.62L243.72 256.30L247.43 257.54L257.43 260.75L264.58 257.75L267.92 266.68L268.12 271.81L276.32 274.11L276.50 283.31L275.47 287.32L271.54 294.87L266.70 294.53L260.20 294.07L255.97 293.86L251.74 293.64L244.05 293.48L248.03 301.56L253.55 306.13L252.43 313.71L252.34 315.88L252.27 320.36L253.28 326.57L247.14 328.52L243.19 329.78L241.18 335.31L247.31 343.16L245.22 345.12L243.14 347.07L241.85 350.97L238.10 355.24L233.11 359.60L231.01 361.46L227.18 364.71L225.52 367.36L227.91 368.19L230.49 369.08L232.88 369.77L236.64 371.31L239.56 372.54L242.44 373.47L245.33 374.40L249.02 374.90L254.88 375.90L257.30 376.34L261.26 377.51L262.65 375.73L262.82 371.72L264.42 368.62L267.51 367.72L270.70 367.77L274.70 368.41L278.45 369.15L281.06 369.30L283.68 369.45L286.42 368.79L288.67 367.83L290.74 365.93L292.41 364.07L294.08 362.21L295.70 359.67L297.33 357.13L298.22 354.84L299.70 352.40L302.22 348.24L304.13 345.59L305.81 343.88L307.60 342.12L310.14 340.56L312.98 338.88L315.38 337.71L317.73 336.80L320.33 335.61L322.58 334.57L325.22 333.57L328.51 333.15L332.61 333.28L335.58 333.08L338.38 331.79L340.54 330.71L343.00 329.05L345.50 329.82L346.92 333.21L347.83 335.63L348.95 338.89L350.17 341.77L353.72 345.34L356.57 348.08L359.27 349.96L361.61 351.53L365.78 354.08L368.63 356.41L371.19 357.94L374.38 359.97L376.85 360.91L379.41 362.73L381.01 364.75L382.38 366.55L383.74 368.35L385.86 369.92L388.96 372.24L392.73 373.38L395.60 375.53L396.04 378.18L395.47 381.09L395.39 385.14L396.45 387.17L398.20 389.39L400.02 391.60L404.43 395.48L407.40 397.34L409.63 399.93L410.43 401.98L411.47 404.04L412.70 407.04L410.72 408.03L407.37 409.71L405.31 412.86L406.37 414.78L407.47 416.77L409.52 418.88L411.69 420.06L413.60 421.35L415.71 422.51L417.56 424.59L418.57 427.91L419.28 430.64L419.98 433.36L421.13 435.86L422.28 438.36L424.10 440.44L425.93 442.52L428.25 445.90L431.03 447.51L436.65 450.10L440.03 451.68L443.59 454.75L445.44 456.44L447.99 459.36L449.00 462.17L450.04 465.52L450.75 467.99L452.27 471.01L453.78 474.03L455.60 476.95L457.92 478.45L460.74 481.48L462.14 484.18L463.27 486.65L463.48 489.06L462.89 491.90L462.41 494.21L461.14 496.92L460.19 499.07L459.11 502.04L457.50 504.36L455.99 506.55L456.30 510.19L456.23 513.94L456.53 517.80L458.05 521.67L459.10 524.36L460.06 527.10L460.70 529.47L461.05 531.60L463.33 534.10L464.92 535.83L469.20 535.73L474.94 536.02L477.90 536.46L480.94 536.65L484.13 537.06L488.35 537.24L491.70 536.67L495.06 536.10L497.39 535.50L500.70 534.57L505.43 537.37L508.01 539.51L509.69 540.87L511.37 542.24L513.82 543.81L517.42 544.96L520.59 545.45L524.65 547.09L527.70 550.03L529.61 551.29L532.39 553.23L535.08 554.99L537.56 556.56L541.04 558.87L542.93 560.13L545.68 559.62L549.10 558.88L553.10 559.54L556.02 560.07L560.36 561.78L562.57 562.73L564.71 563.64L568.77 565.50L570.98 566.66L572.12 564.53L572.61 560.80L573.21 557.33L575.40 555.10L578.76 553.89L580.83 553.14L582.82 551.47L584.82 549.79L586.64 546.50L587.24 543.70L587.84 540.90L587.93 538.27L588.02 535.63L587.82 533.03L587.62 530.46L587.72 527.73L588.00 525.15L588.79 522.71L590.35 518.44L590.99 515.88L591.25 513.42L591.50 510.97L591.44 508.01L591.43 504.77L592.68 499.48L594.03 497.36L595.40 495.54L597.38 491.40L598.52 489.01L600.25 486.17L603.49 481.36L605.33 478.64L605.62 476.32L601.71 472.01L599.33 468.36L593.17 465.99L591.38 460.38L591.44 454.64L592.79 451.89L598.57 450.43L599.67 445.42L600.00 440.39L598.39 436.50L594.83 435.03L592.68 434.61L590.54 434.20L587.35 432.74L584.77 431.01L579.35 430.05L577.70 425.23L577.72 421.53L577.53 418.53L577.05 415.97L576.53 413.20L575.94 410.10L575.48 406.85L575.02 403.61L574.01 396.50L573.08 392.07L570.09 391.27L567.95 391.42L563.90 391.72L561.72 388.62L557.52 381.93L556.04 379.15L554.06 375.42L553.08 373.46L549.77 369.27L546.65 365.41L541.22 359.37L537.19 355.34L535.17 353.32L532.84 350.99L531.15 349.23L529.46 347.47L527.98 345.20L526.07 343.36L524.05 342.17L520.55 340.10L520.24 337.34L516.93 333.28L512.63 328.56L510.63 327.18L507.78 327.07L504.94 326.97L501.00 326.42L497.63 327.28L494.25 328.13L490.42 326.94L487.18 324.99L482.68 322.30L480.52 322.17L476.71 323.00L473.96 323.84L470.35 324.51L466.54 323.73L464.40 322.64L461.59 321.65L459.06 320.83L456.67 320.91L453.58 320.89L450.41 320.93L447.76 320.97L445.37 321.00L442.95 320.94L439.58 319.51L438.87 317.26L438.15 315.00L436.75 312.86L435.33 311.17L432.46 308.40L429.92 305.26L428.71 302.94L427.50 300.61L426.64 297.12L425.77 294.69L424.03 292.77L422.13 290.81L420.71 288.65L418.29 284.99L417.51 282.78L416.04 278.62L413.73 277.46L410.08 276.35L407.52 275.61L405.63 274.48L403.63 272.83L401.18 269.96L399.22 266.56L393.87 262.17L389.87 261.88L387.74 260.29L384.83 257.68L381.05 252.77L378.13 250.20L373.95 246.72L372.55 244.51L371.15 242.30L368.82 242.68L366.50 243.06L362.13 244.01L359.10 243.67L355.12 243.52L352.02 243.47L348.05 243.41L346.11 242.22L342.52 240.01L340.59 238.24L337.82 235.67L335.25 233.08L332.78 230.18L331.47 228.26L328.88 224.40L327.66 222.56L326.44 220.73L325.10 219.00L323.01 216.31L321.30 214.78L319.56 213.23L317.97 211.12L315.82 208.17L313.67 205.08L312.38 203.24L307.12 200.70L304.47 200.87L301.43 199.68L298.80 198.30L296.54 196.63L294.14 195.42L291.43 195.27L288.84 195.45L286.67 195.90L284.12 195.31L281.95 194.06L279.68 192.88L276.82 192.13L273.83 191.71L271.59 195.67L267.32 194.48Z" data-ward="6" /><path id="ward-7" class="ward" d="M346.92 333.21L345.50 329.82L343.00 329.05L340.54 330.71L338.38 331.79L335.58 333.08L332.61 333.28L328.51 333.15L325.22 333.57L322.58 334.57L320.33 335.61L317.73 336.80L315.38 337.71L312.98 338.88L310.14 340.56L307.60 342.12L305.81 343.88L304.13 345.59L302.22 348.24L299.70 352.40L298.22 354.84L297.33 357.13L295.70 359.67L294.08 362.21L292.41 364.07L290.74 365.93L288.67 367.83L286.42 368.79L283.68 369.45L281.06 369.30L278.45 369.15L274.70 368.41L270.70 367.77L267.51 367.72L264.42 368.62L262.82 371.72L262.65 375.73L261.26 377.51L257.30 376.34L254.88 375.90L249.02 374.90L245.33 374.40L242.44 373.47L239.56 372.54L236.64 371.31L232.88 369.77L230.49 369.08L227.91 368.19L225.52 367.36L223.12 366.83L220.73 366.29L218.23 365.62L215.73 364.94L212.23 363.87L209.71 363.34L209.07 366.66L209.08 369.08L211.50 373.32L212.96 377.01L213.93 380.74L213.48 385.73L212.00 388.78L209.92 393.07L208.40 396.10L210.91 397.99L212.02 400.08L211.86 403.93L212.61 406.73L212.98 409.26L213.96 411.63L216.94 416.04L220.55 416.71L224.51 415.85L229.31 414.78L233.13 414.31L235.96 413.83L237.89 415.99L240.08 418.45L242.14 420.19L243.69 421.90L244.77 424.16L245.86 426.41L247.35 429.29L248.91 432.40L249.78 435.13L251.11 437.58L252.79 440.22L254.31 442.09L257.02 444.78L259.10 445.68L262.60 446.33L266.58 446.46L268.67 445.63L270.75 444.81L273.73 443.76L275.91 443.53L278.20 445.60L280.38 448.69L281.98 450.25L286.65 452.73L292.32 454.99L294.38 457.11L300.86 460.84L305.65 463.04L309.59 464.16L313.82 463.81L316.87 464.01L321.94 466.19L327.84 469.26L333.08 469.05L335.66 468.61L338.24 468.16L340.53 468.21L344.54 468.29L347.99 468.28L351.03 468.38L354.27 469.79L357.98 471.75L362.98 473.93L366.36 475.25L368.45 476.37L371.83 478.19L374.01 479.96L376.27 481.81L379.20 484.04L381.93 486.16L386.27 489.15L389.94 492.15L393.23 494.35L394.90 495.71L396.57 497.06L399.39 499.53L402.64 501.90L405.02 501.06L408.36 499.33L412.49 497.48L414.35 495.81L414.75 493.49L415.13 490.83L416.40 487.70L419.49 484.87L422.56 482.64L424.97 480.16L426.85 478.03L427.93 476.07L429.34 473.45L430.49 471.56L434.98 468.39L438.44 467.77L441.46 467.17L445.19 465.84L446.90 464.03L449.00 462.17L447.99 459.36L445.44 456.44L443.59 454.75L440.03 451.68L436.65 450.10L431.03 447.51L428.25 445.90L425.93 442.52L424.10 440.44L422.28 438.36L421.13 435.86L419.98 433.36L419.28 430.64L418.57 427.91L417.56 424.59L415.71 422.51L413.60 421.35L411.69 420.06L409.52 418.88L407.47 416.77L406.37 414.78L405.31 412.86L407.37 409.71L410.72 408.03L412.70 407.04L411.47 404.04L410.43 401.98L409.63 399.93L407.40 397.34L404.43 395.48L400.02 391.60L398.20 389.39L396.45 387.17L395.39 385.14L395.47 381.09L396.04 378.18L395.60 375.53L392.73 373.38L388.96 372.24L385.86 369.92L383.74 368.35L382.38 366.55L381.01 364.75L379.41 362.73L376.85 360.91L374.38 359.97L371.19 357.94L368.63 356.41L365.78 354.08L361.61 351.53L359.27 349.96L356.57 348.08L353.72 345.34L350.17 341.77L348.95 338.89L347.83 335.63L346.92 333.21Z" data-ward="7" /><path id="ward-8" class="ward" d="M539.42 640.42L537.36 639.31L534.81 638.26L531.85 636.41L529.71 635.84L529.32 638.82L527.50 640.37L524.74 640.29L521.87 640.00L519.50 639.61L516.60 639.06L514.49 639.90L512.77 641.59L511.40 643.40L509.36 645.69L507.78 648.66L504.73 652.18L502.09 653.47L499.12 654.93L496.65 657.09L494.18 659.25L492.89 661.81L491.71 664.58L489.99 667.37L486.84 667.07L483.88 666.59L480.94 666.53L478.56 666.47L475.98 665.24L472.49 666.58L472.37 669.91L472.24 673.25L473.49 676.92L471.47 679.00L469.16 681.09L467.34 682.32L464.84 683.39L461.54 684.49L459.82 685.83L458.88 689.10L459.63 692.33L460.66 694.40L461.14 696.60L459.83 698.56L458.52 700.51L458.42 703.42L460.59 705.22L462.14 707.01L463.41 709.24L464.48 714.24L464.35 717.08L464.11 721.99L463.90 726.04L462.02 729.51L459.27 730.87L454.36 733.08L451.26 734.36L448.36 736.22L444.54 738.60L440.27 733.07L436.81 730.24L433.32 726.90L429.54 722.84L426.97 721.84L422.66 721.03L420.58 720.38L415.33 716.51L412.78 715.93L410.39 714.38L407.36 712.42L403.80 710.18L399.56 708.52L397.21 706.99L394.38 704.71L392.58 703.04L388.38 699.11L385.64 697.12L380.86 694.10L376.75 691.88L374.77 690.66L372.48 690.74L369.63 692.40L366.40 693.53L364.26 694.53L362.08 695.30L359.49 693.74L359.99 696.75L360.93 699.86L361.67 702.63L362.58 707.56L361.13 711.74L360.77 714.20L360.87 716.72L360.96 719.25L361.17 722.44L362.30 728.26L363.21 730.22L364.40 732.81L366.96 736.14L368.10 739.10L368.72 742.09L369.47 745.68L370.26 748.62L374.13 751.79L375.91 753.42L379.53 757.14L381.58 759.68L382.76 761.78L384.12 764.20L385.37 766.52L386.80 769.38L388.54 773.63L389.13 776.13L390.47 782.45L393.71 784.76L397.50 786.71L401.21 788.44L406.10 788.24L408.63 789.36L411.91 790.96L412.97 794.01L411.99 797.88L411.67 800.12L411.34 802.36L414.47 806.84L417.69 807.77L420.14 808.15L422.59 808.54L424.14 812.11L425.31 814.14L426.48 816.18L428.95 819.09L432.35 820.34L435.49 821.48L438.01 823.08L441.48 825.27L448.44 828.88L449.07 825.07L452.88 822.65L459.07 818.69L461.76 816.96L463.52 815.43L468.23 811.27L479.39 811.98L487.78 812.52L487.85 809.57L488.56 781.29L487.25 776.73L488.11 772.00L490.10 767.24L492.90 762.89L492.86 759.43L497.89 754.97L499.46 750.28L500.74 746.45L503.79 744.49L513.55 746.07L519.63 749.28L523.99 752.08L530.71 756.39L538.86 761.61L543.84 756.59L552.85 758.01L556.37 758.56L570.17 762.89L589.94 761.78L602.79 770.37L610.65 775.62L619.49 781.53L626.33 786.10L629.20 770.20L628.26 754.61L631.40 746.16L634.17 740.67L640.31 731.52L652.72 734.50L667.10 718.15L667.24 715.95L660.62 713.99L648.35 706.10L635.29 697.69L629.14 693.19L624.28 689.89L620.28 686.19L617.51 683.06L614.71 678.62L611.06 676.24L607.82 673.81L605.90 672.71L603.99 671.60L601.67 670.35L597.44 668.01L593.15 665.77L588.66 663.09L585.87 661.07L583.84 659.59L581.82 658.11L578.81 655.90L576.98 654.77L575.14 653.64L571.82 653.16L569.07 652.77L566.77 652.20L563.08 651.01L559.64 649.49L557.18 648.34L551.05 645.74L548.35 644.49L545.57 643.08L543.08 641.64L539.42 640.42Z" data-ward="8" /><path id="ward-3" class="ward" d="M698.62 163.63L693.50 161.72L688.45 161.63L666.36 158.30L662.35 157.35L655.54 156.09L649.81 154.73L638.01 151.94L628.26 149.63L622.87 149.37L616.61 148.69L610.75 148.30L607.25 148.60L607.23 148.61L602.61 150.77L598.59 155.71L594.64 159.16L590.21 161.72L586.67 163.40L582.21 164.39L578.12 164.00L571.50 162.17L568.06 161.04L565.76 159.63L560.16 155.78L551.52 149.35L543.77 155.46L540.18 160.61L533.17 170.65L523.31 180.23L511.55 191.80L503.44 204.07L513.53 206.65L515.32 213.35L516.63 219.36L520.63 224.82L528.06 229.77L524.68 236.30L520.42 242.16L512.93 237.15L507.32 233.54L500.95 231.06L496.00 233.77L493.86 234.93L490.08 236.84L482.15 232.26L477.39 229.26L473.64 226.90L471.12 225.12L469.23 223.80L465.37 221.09L463.96 219.19L462.27 216.92L460.41 214.41L458.03 211.21L456.04 208.53L452.13 203.27L449.37 199.55L447.02 196.40L444.80 193.57L443.58 195.80L441.09 196.59L436.65 198.01L431.50 199.65L428.29 200.68L424.88 201.77L421.95 202.70L419.00 203.64L415.39 204.79L410.03 206.50L407.29 213.03L404.34 220.08L402.55 224.34L399.79 233.01L399.03 235.38L399.04 239.02L399.05 245.01L399.05 248.27L399.06 251.65L399.06 254.28L399.07 257.00L399.07 259.31L399.08 261.82L399.22 266.56L401.18 269.96L403.63 272.83L405.63 274.48L407.52 275.61L410.08 276.35L413.73 277.46L416.04 278.62L417.51 282.78L418.29 284.99L420.71 288.65L422.13 290.81L424.03 292.77L425.77 294.69L426.64 297.12L427.50 300.61L428.71 302.94L429.92 305.26L432.46 308.40L435.33 311.17L436.75 312.86L438.15 315.00L438.87 317.26L439.58 319.51L442.95 320.94L445.37 321.00L447.76 320.97L450.41 320.93L453.58 320.89L456.67 320.91L459.06 320.83L461.59 321.65L464.40 322.64L466.54 323.73L470.35 324.51L473.96 323.84L476.71 323.00L480.52 322.17L482.68 322.30L487.18 324.99L490.42 326.94L494.25 328.13L497.63 327.28L501.00 326.42L504.94 326.97L507.78 327.07L510.63 327.18L512.63 328.56L516.93 333.28L520.24 337.34L520.55 340.10L524.05 342.17L526.07 343.36L527.98 345.20L529.46 347.47L531.15 349.23L532.84 350.99L535.17 353.32L537.19 355.34L541.22 359.37L546.65 365.41L549.77 369.27L553.08 373.46L554.06 375.42L556.04 379.15L557.52 381.93L561.72 388.62L563.90 391.72L567.95 391.42L570.09 391.27L573.08 392.07L574.01 396.50L575.02 403.61L575.48 406.85L575.94 410.10L576.53 413.20L577.05 415.97L577.53 418.53L577.72 421.53L577.70 425.23L579.35 430.05L584.77 431.01L587.35 432.74L590.54 434.20L592.68 434.61L594.83 435.03L598.39 436.50L600.00 440.39L599.67 445.42L598.57 450.43L592.79 451.89L591.44 454.64L591.38 460.38L593.17 465.99L599.33 468.36L601.71 472.01L605.62 476.32L605.33 478.64L603.49 481.36L600.25 486.17L602.08 487.53L605.46 489.72L608.17 492.96L609.71 494.80L612.73 497.67L614.72 499.56L617.18 501.90L619.48 504.03L621.10 505.62L623.14 507.43L624.79 508.97L627.30 510.66L629.87 511.71L632.45 512.76L634.61 513.57L636.77 514.37L640.12 515.05L643.03 515.59L645.37 516.27L650.10 517.48L654.38 518.76L657.62 519.51L660.86 520.27L668.45 524.13L673.47 522.04L674.55 519.95L675.64 517.87L677.44 514.41L679.76 511.05L683.29 506.63L686.08 502.62L704.84 511.51L713.05 514.69L719.80 511.81L722.68 509.77L724.61 508.53L726.57 505.48L727.52 502.01L723.68 498.12L721.79 493.89L725.31 491.46L729.84 492.42L732.40 493.03L734.49 492.41L733.42 488.66L732.81 486.53L734.61 483.80L737.16 480.88L739.03 478.91L740.53 477.09L742.04 475.26L744.19 472.29L745.90 470.45L748.68 468.78L752.33 468.07L755.67 474.24L758.21 473.44L760.74 472.63L763.02 471.62L765.41 470.59L767.70 469.57L770.18 472.30L772.09 476.35L772.85 478.85L771.80 481.82L770.25 485.23L769.57 487.93L770.88 489.83L787.28 489.39L802.00 489.26L806.18 491.63L808.33 492.46L812.22 490.45L814.42 489.19L812.26 486.92L810.10 484.64L807.94 483.71L805.14 481.13L806.33 478.58L807.88 476.86L809.13 474.46L806.34 473.67L805.11 471.28L803.67 467.19L802.67 464.92L801.62 461.04L809.37 458.34L811.36 457.55L813.47 456.58L817.93 453.41L819.77 452.17L822.22 450.53L826.00 446.86L829.84 445.56L831.94 444.61L835.79 443.57L842.23 443.51L843.96 445.97L846.02 447.06L848.08 448.15L851.94 448.31L855.94 448.94L859.59 451.30L861.76 452.70L863.81 453.86L867.38 455.87L869.89 457.10L872.61 456.93L875.32 456.76L877.24 453.61L877.75 451.04L877.92 448.87L878.11 446.38L878.60 442.48L877.76 438.69L877.67 435.97L879.13 434.38L882.82 433.05L886.44 431.77L890.78 425.11L891.77 422.92L894.39 422.01L896.74 422.96L900.42 424.45L903.49 424.79L907.78 425.26L910.20 425.46L916.64 425.18L917.42 422.87L918.69 420.74L919.79 418.33L920.90 415.92L921.94 413.16L923.47 409.93L926.19 405.59L928.68 403.06L926.49 398.49L925.69 394.81L924.66 391.54L924.52 386.27L923.20 382.10L923.45 379.18L926.77 378.64L930.20 378.07L934.90 377.81L938.08 377.16L940.95 377.28L945.48 376.70L945.13 372.22L944.94 369.38L944.75 366.47L944.55 363.21L944.12 356.07L943.91 352.84L943.70 349.68L943.04 347.44L942.29 344.88L941.39 341.80L939.46 339.97L934.67 335.47L931.87 333.78L929.04 332.07L926.69 330.42L924.27 328.71L921.87 327.02L919.49 324.85L917.23 322.77L912.87 321.39L910.59 321.37L908.27 320.85L905.44 321.07L902.10 321.32L899.84 320.91L895.41 319.83L892.95 319.23L889.98 317.62L887.98 316.17L885.66 314.48L883.36 312.81L880.28 310.51L877.28 308.28L874.68 305.89L871.04 302.55L866.78 297.04L865.11 294.86L863.76 293.12L860.64 289.05L859.06 287.56L856.96 285.52L853.19 282.64L849.60 279.47L846.52 276.75L844.46 274.90L841.65 272.39L838.08 269.15L834.72 266.20L830.91 263.16L826.29 259.16L821.40 255.23L815.52 249.79L809.02 244.20L801.54 240.87L795.99 240.10L788.23 241.52L785.80 241.80L780.18 242.59L776.81 243.07L766.08 243.12L762.81 242.79L759.30 241.51L752.92 239.16L747.09 235.61L733.97 227.04L730.96 223.41L726.71 217.70L724.51 214.75L720.62 204.60L719.45 198.66L718.02 191.44L717.27 179.33L715.26 174.48L713.75 170.83L710.67 168.79L707.89 167.08L698.62 163.63Z" data-ward="3" /><path id="ward-10" class="ward" d="M353.61 548.35L350.03 547.12L347.82 546.69L345.61 546.26L343.29 546.06L340.76 545.85L338.31 546.33L335.86 546.82L332.89 547.95L329.80 548.74L325.92 548.69L323.48 548.57L318.47 548.41L316.34 548.58L313.53 548.75L310.42 549.21L310.91 552.60L310.86 558.12L310.16 561.15L309.47 564.18L313.86 569.09L315.82 572.24L318.28 575.18L320.91 579.23L323.60 581.21L324.76 583.73L325.92 586.24L325.83 591.04L326.21 595.35L320.34 595.68L316.41 596.16L311.85 598.01L308.50 599.51L306.01 603.46L305.12 605.62L302.73 608.04L300.48 608.83L297.95 609.73L300.60 612.48L303.53 615.13L306.40 617.88L309.51 621.17L313.70 626.66L314.59 628.71L315.49 630.75L316.51 633.11L319.61 637.07L321.54 639.35L323.47 641.63L325.36 644.05L327.25 646.47L328.33 648.50L330.15 651.89L331.85 655.04L333.13 657.43L334.71 659.50L336.95 662.39L339.80 666.07L340.77 669.36L341.75 672.66L342.84 676.88L344.21 681.07L345.09 683.73L347.07 687.86L349.74 693.00L352.12 697.68L352.94 700.32L354.07 703.95L354.63 706.47L354.31 711.49L354.45 716.25L354.55 721.98L353.10 726.87L347.80 725.09L342.43 726.30L340.01 727.07L335.78 728.43L330.72 730.59L327.14 735.61L325.31 737.00L323.37 739.70L323.09 742.09L319.12 745.39L318.73 748.77L311.64 750.22L309.44 749.85L307.05 751.40L305.08 754.05L302.94 755.64L299.48 756.50L297.44 757.61L294.64 759.39L298.20 761.02L300.43 761.60L298.71 764.34L297.03 767.54L296.07 769.81L293.12 775.44L290.50 778.09L288.59 783.38L287.34 785.45L286.25 787.38L285.17 789.84L288.96 793.26L288.30 795.36L287.13 799.08L291.24 800.98L296.19 803.70L302.91 803.12L305.46 803.71L310.69 805.46L314.05 806.69L318.73 808.42L323.06 810.42L324.65 811.97L326.32 813.96L328.20 816.88L330.08 819.79L334.65 823.09L338.00 825.36L342.79 828.85L347.52 830.33L349.93 830.99L352.35 831.65L357.34 832.91L360.05 834.36L364.16 835.24L365.50 833.19L367.78 832.46L375.45 833.56L379.34 834.09L381.35 833.05L383.37 832.01L384.57 824.34L384.65 820.05L387.24 815.60L388.87 813.36L390.50 811.13L392.54 808.58L394.80 806.97L399.50 807.74L401.88 809.39L404.37 811.10L409.28 813.59L416.44 814.89L419.90 816.21L423.78 818.90L426.44 821.05L428.28 822.53L431.17 822.75L432.35 820.34L428.95 819.09L426.48 816.18L425.31 814.14L424.14 812.11L422.59 808.54L420.14 808.15L417.69 807.77L414.47 806.84L411.34 802.36L411.67 800.12L411.99 797.88L412.97 794.01L411.91 790.96L408.63 789.36L406.10 788.24L401.21 788.44L397.50 786.71L393.71 784.76L390.47 782.45L389.13 776.13L388.54 773.63L386.80 769.38L385.37 766.52L384.12 764.20L382.76 761.78L381.58 759.68L379.53 757.14L375.91 753.42L374.13 751.79L370.26 748.62L369.47 745.68L368.72 742.09L368.10 739.10L366.96 736.14L364.40 732.81L363.21 730.22L362.30 728.26L361.17 722.44L360.96 719.25L360.87 716.72L360.77 714.20L361.13 711.74L362.58 707.56L361.67 702.63L360.93 699.86L359.99 696.75L359.49 693.74L362.08 695.30L364.26 694.53L366.40 693.53L369.63 692.40L372.48 690.74L374.77 690.66L376.75 691.88L380.86 694.10L385.64 697.12L388.38 699.11L392.58 703.04L394.38 704.71L397.21 706.99L399.56 708.52L403.80 710.18L407.36 712.42L410.39 714.38L412.78 715.93L415.33 716.51L420.58 720.38L422.66 721.03L426.97 721.84L429.54 722.84L433.32 726.90L436.81 730.24L440.27 733.07L444.54 738.60L448.36 736.22L451.26 734.36L454.36 733.08L459.27 730.87L462.02 729.51L463.90 726.04L464.11 721.99L464.35 717.08L464.48 714.24L463.41 709.24L462.14 707.01L460.59 705.22L458.42 703.42L458.52 700.51L459.83 698.56L461.14 696.60L460.66 694.40L459.63 692.33L458.88 689.10L459.82 685.83L461.54 684.49L464.84 683.39L467.34 682.32L469.16 681.09L471.47 679.00L473.49 676.92L472.24 673.25L472.37 669.91L472.49 666.58L475.98 665.24L478.56 666.47L480.94 666.53L483.88 666.59L486.84 667.07L489.99 667.37L491.71 664.58L492.89 661.81L494.18 659.25L496.65 657.09L499.12 654.93L502.09 653.47L504.73 652.18L507.78 648.66L509.36 645.69L511.40 643.40L512.77 641.59L514.49 639.90L516.60 639.06L519.50 639.61L521.87 640.00L524.74 640.29L527.50 640.37L529.32 638.82L529.71 635.84L526.20 634.23L524.14 633.35L522.08 632.47L519.92 631.23L517.39 628.68L514.63 627.21L512.27 625.89L509.79 624.40L507.77 623.19L504.24 621.11L501.09 619.26L498.15 617.45L495.33 615.71L493.14 614.35L491.10 613.08L488.23 611.24L485.71 609.61L483.76 608.32L481.33 606.51L478.19 604.53L475.86 602.87L472.00 600.17L468.96 598.44L465.60 596.44L463.12 594.84L461.01 593.46L458.92 592.02L457.01 590.64L453.63 588.49L450.73 586.56L447.13 584.03L444.41 582.16L440.66 579.35L438.26 577.60L435.56 575.88L432.74 574.04L429.54 571.90L426.96 574.80L425.13 576.28L422.91 578.00L420.57 579.20L417.78 580.20L415.54 580.33L412.76 579.66L410.51 578.81L407.29 577.63L404.95 577.10L400.60 577.07L397.32 577.30L394.71 578.06L391.11 580.12L387.42 579.16L386.01 577.09L386.10 574.71L386.16 571.47L385.53 569.23L384.89 566.99L382.84 563.75L381.06 562.07L379.27 560.39L375.06 559.07L372.93 557.71L371.04 556.25L369.14 554.78L366.16 553.27L363.48 553.01L360.17 552.12L357.95 550.71L355.78 549.53L353.61 548.35Z" data-ward="10" /><path id="ward-4" class="ward" d="M945.48 376.70L940.95 377.28L938.08 377.16L934.90 377.81L930.20 378.07L926.77 378.64L923.45 379.18L923.20 382.10L924.52 386.27L924.66 391.54L925.69 394.81L926.49 398.49L928.68 403.06L926.19 405.59L923.47 409.93L921.94 413.16L920.90 415.92L919.79 418.33L918.69 420.74L917.42 422.87L916.64 425.18L910.20 425.46L907.78 425.26L903.49 424.79L900.42 424.45L896.74 422.96L894.39 422.01L891.77 422.92L890.78 425.11L886.44 431.77L882.82 433.05L879.13 434.38L877.67 435.97L877.76 438.69L878.60 442.48L878.11 446.38L877.92 448.87L877.75 451.04L877.24 453.61L875.32 456.76L872.61 456.93L869.89 457.10L867.38 455.87L863.81 453.86L861.76 452.70L859.59 451.30L855.94 448.94L851.94 448.31L848.08 448.15L846.02 447.06L843.96 445.97L842.23 443.51L835.79 443.57L831.94 444.61L829.84 445.56L826.00 446.86L822.22 450.53L819.77 452.17L817.93 453.41L813.47 456.58L811.36 457.55L809.37 458.34L801.62 461.04L802.67 464.92L803.67 467.19L805.11 471.28L806.34 473.67L809.13 474.46L807.88 476.86L806.33 478.58L805.14 481.13L807.94 483.71L810.10 484.64L812.26 486.92L814.42 489.19L812.22 490.45L808.33 492.46L806.18 491.63L802.00 489.26L787.28 489.39L770.88 489.83L769.57 487.93L770.25 485.23L771.80 481.82L772.85 478.85L772.09 476.35L770.18 472.30L767.70 469.57L765.41 470.59L763.02 471.62L760.74 472.63L758.21 473.44L755.67 474.24L752.33 468.07L748.68 468.78L745.90 470.45L744.19 472.29L742.04 475.26L740.53 477.09L739.03 478.91L737.16 480.88L734.61 483.80L732.81 486.53L733.42 488.66L734.49 492.41L734.16 495.00L736.80 495.26L739.57 496.15L741.87 499.17L743.51 502.97L744.57 505.25L745.34 508.53L748.33 510.00L750.07 507.76L752.21 509.46L754.08 510.67L753.98 513.16L755.32 515.25L757.38 517.83L758.73 519.54L760.12 521.66L762.70 522.35L766.59 522.74L765.91 525.82L765.29 528.60L761.74 534.05L759.04 535.93L756.58 537.57L753.73 539.89L755.24 542.02L756.36 543.85L755.50 546.84L753.68 548.42L751.46 550.35L750.27 552.65L749.69 555.22L749.12 557.79L749.87 561.44L750.67 563.90L751.43 570.67L751.50 573.64L749.53 578.64L746.35 580.86L742.72 582.69L740.30 584.11L737.87 585.54L735.43 588.58L732.99 591.64L730.89 595.46L728.24 599.14L726.84 602.15L729.00 607.27L729.44 610.26L729.35 613.56L728.65 616.15L733.93 619.70L738.91 623.06L738.63 627.20L736.78 629.48L738.08 631.78L739.38 634.08L740.90 636.68L742.46 638.55L744.30 640.22L746.14 641.89L745.73 644.27L745.12 647.87L744.51 651.58L741.75 652.26L738.90 652.97L730.97 660.05L737.02 665.24L740.56 673.50L755.12 682.38L761.04 681.25L766.11 678.40L768.18 665.49L766.70 660.56L763.56 657.69L777.97 652.28L786.63 649.04L777.19 634.17L775.20 628.99L771.73 620.52L770.88 617.42L780.95 615.27L789.41 613.47L800.05 591.05L802.08 591.91L805.59 593.40L809.48 589.69L811.48 586.87L813.16 584.50L815.04 581.85L835.15 593.48L837.15 594.63L839.30 594.75L842.51 594.44L845.68 592.83L848.01 591.65L851.94 589.54L857.14 586.61L863.88 582.52L870.25 583.14L885.94 575.57L896.33 570.57L902.76 567.46L903.36 569.98L906.62 570.26L922.17 572.12L939.36 568.40L942.55 567.15L945.33 564.20L948.12 562.72L951.77 560.78L954.65 561.01L956.41 544.80L956.94 539.84L962.58 534.81L970.62 533.49L973.82 529.45L977.67 524.54L981.57 522.88L985.71 521.12L998.44 513.15L994.92 510.25L993.21 507.23L992.74 506.12L991.98 501.53L991.68 499.64L992.24 496.00L992.95 493.87L995.19 483.71L997.17 474.77L999.40 464.67L999.76 458.98L1000.00 455.28L998.31 445.35L998.69 441.33L997.87 437.43L997.89 429.34L995.09 424.11L991.52 422.84L984.19 420.25L980.53 418.73L974.35 419.07L966.61 417.81L960.42 413.54L956.44 409.20L953.71 406.22L949.15 396.55L947.57 389.45L946.82 385.63L946.13 381.02L945.48 376.70Z" data-ward="4" /><path id="ward-13" class="ward" d="M216.94 416.04L213.96 411.63L212.98 409.26L212.61 406.73L211.86 403.93L212.02 400.08L210.91 397.99L208.40 396.10L206.91 401.39L206.31 403.51L206.53 406.51L206.69 408.66L206.85 410.82L207.01 413.01L207.10 416.15L206.19 418.95L204.04 423.38L203.31 425.74L202.46 428.46L201.58 431.07L199.29 437.38L198.44 439.48L197.38 442.26L196.27 445.16L195.08 448.46L193.96 451.55L193.85 454.39L193.65 456.79L194.21 461.17L194.97 463.74L195.70 466.26L195.60 469.09L194.80 471.56L192.37 474.45L194.33 476.77L198.18 480.14L200.19 482.26L201.75 484.12L205.03 488.44L207.79 492.14L208.69 496.58L208.95 499.36L208.64 504.67L209.03 511.67L209.03 514.64L208.98 517.99L208.56 522.66L207.30 527.16L204.28 526.98L203.93 529.43L203.47 532.56L203.21 536.78L202.71 539.17L202.21 543.37L207.77 545.25L211.07 547.12L214.38 548.99L216.94 550.44L215.93 552.50L220.70 554.35L222.61 555.59L224.52 556.84L226.85 558.30L230.09 560.32L232.14 562.18L235.12 564.87L236.90 566.60L239.69 569.30L241.84 570.88L243.25 572.80L245.53 573.84L248.50 576.15L249.42 578.55L251.21 580.11L254.52 584.32L256.16 586.09L258.65 588.74L258.68 590.92L257.80 594.51L257.17 598.08L256.69 600.47L256.25 602.74L259.40 602.28L262.48 602.75L264.60 602.48L269.18 601.25L274.12 602.17L277.20 601.19L279.39 600.30L281.52 598.83L283.73 595.99L285.65 593.24L289.98 593.55L293.58 594.04L298.53 591.46L297.72 589.21L296.72 585.79L296.13 582.82L295.68 580.01L295.60 576.21L298.65 571.00L300.45 569.04L302.25 567.08L306.07 565.54L309.47 564.18L310.16 561.15L310.86 558.12L310.91 552.60L310.42 549.21L313.53 548.75L316.34 548.58L318.47 548.41L323.48 548.57L325.92 548.69L329.80 548.74L332.89 547.95L335.86 546.82L338.31 546.33L340.76 545.85L343.29 546.06L345.61 546.26L347.82 546.69L350.03 547.12L353.61 548.35L355.78 549.53L357.95 550.71L360.17 552.12L363.48 553.01L366.16 553.27L369.14 554.78L371.04 556.25L372.93 557.71L375.06 559.07L379.27 560.39L381.06 562.07L382.84 563.75L384.89 566.99L385.53 569.23L386.16 571.47L386.10 574.71L386.01 577.09L387.42 579.16L391.11 580.12L394.71 578.06L397.32 577.30L400.60 577.07L404.95 577.10L407.29 577.63L410.51 578.81L412.76 579.66L415.54 580.33L417.78 580.20L420.57 579.20L422.91 578.00L425.13 576.28L426.96 574.80L429.54 571.90L427.88 570.33L425.63 568.45L421.80 565.17L418.86 562.43L417.37 560.63L415.88 558.83L414.66 556.16L413.61 553.91L411.82 550.72L410.55 546.07L409.40 542.10L408.76 535.15L408.15 530.78L407.80 525.44L406.90 520.60L406.34 516.13L405.91 512.54L405.05 509.49L404.14 505.95L402.64 501.90L399.39 499.53L396.57 497.06L394.90 495.71L393.23 494.35L389.94 492.15L386.27 489.15L381.93 486.16L379.20 484.04L376.27 481.81L374.01 479.96L371.83 478.19L368.45 476.37L366.36 475.25L362.98 473.93L357.98 471.75L354.27 469.79L351.03 468.38L347.99 468.28L344.54 468.29L340.53 468.21L338.24 468.16L335.66 468.61L333.08 469.05L327.84 469.26L321.94 466.19L316.87 464.01L313.82 463.81L309.59 464.16L305.65 463.04L300.86 460.84L294.38 457.11L292.32 454.99L286.65 452.73L281.98 450.25L280.38 448.69L278.20 445.60L275.91 443.53L273.73 443.76L270.75 444.81L268.67 445.63L266.58 446.46L262.60 446.33L259.10 445.68L257.02 444.78L254.31 442.09L252.79 440.22L251.11 437.58L249.78 435.13L248.91 432.40L247.35 429.29L245.86 426.41L244.77 424.16L243.69 421.90L242.14 420.19L240.08 418.45L237.89 415.99L235.96 413.83L233.13 414.31L229.31 414.78L224.51 415.85L220.55 416.71L216.94 416.04Z" data-ward="13" /><path id="ward-12" class="ward" d="M270.28 707.77L269.82 704.81L267.67 702.89L262.73 698.74L259.79 693.89L260.63 691.76L261.13 689.55L260.85 686.44L259.86 683.31L258.56 679.19L257.51 675.18L256.90 670.39L256.45 666.80L256.21 663.10L255.97 659.32L255.94 656.16L255.81 651.98L255.70 646.22L255.54 643.18L255.33 639.12L255.12 634.89L255.03 632.62L255.00 627.59L254.96 621.53L254.77 617.58L254.92 613.74L255.07 609.92L255.67 606.32L256.25 602.74L256.69 600.47L257.17 598.08L257.80 594.51L258.68 590.92L258.65 588.74L256.16 586.09L254.52 584.32L251.21 580.11L249.42 578.55L248.50 576.15L245.53 573.84L243.25 572.80L241.84 570.88L239.69 569.30L236.90 566.60L235.12 564.87L232.14 562.18L230.09 560.32L226.85 558.30L224.52 556.84L222.61 555.59L220.70 554.35L215.93 552.50L216.94 550.44L214.38 548.99L211.07 547.12L207.77 545.25L202.21 543.37L193.72 541.28L190.32 540.54L187.66 540.01L184.58 539.35L182.17 538.99L179.16 538.01L176.66 536.58L174.50 535.09L172.01 533.32L169.57 531.39L165.88 528.60L162.17 526.92L159.13 526.38L154.81 526.10L150.09 524.85L146.55 523.95L144.12 522.95L142.27 521.32L139.22 520.64L137.32 518.73L131.66 518.42L128.97 516.95L126.13 515.08L123.92 512.81L121.96 510.63L120.70 508.83L118.34 507.31L114.77 505.66L112.04 504.10L107.79 502.02L104.26 501.02L100.25 498.64L97.52 495.84L95.04 492.49L91.51 488.28L90.24 486.55L88.12 482.47L84.95 484.01L78.07 487.36L73.79 487.95L76.07 491.80L77.63 494.46L78.46 496.56L76.55 499.73L70.83 509.23L65.02 518.85L56.85 528.02L50.18 554.07L78.81 580.46L88.47 589.36L91.25 591.92L86.99 597.56L79.22 607.84L83.05 610.67L85.28 612.32L87.53 613.97L91.07 616.58L95.24 619.57L98.50 621.91L102.01 624.43L104.76 625.75L108.52 627.56L111.40 628.95L114.95 630.66L118.75 632.49L124.19 635.12L127.87 637.13L131.11 638.90L133.71 640.33L136.90 642.07L142.35 645.05L147.14 648.15L150.11 650.08L152.12 651.38L154.62 653.18L157.27 655.28L159.50 657.06L164.58 658.38L167.53 659.14L170.55 662.66L172.56 664.99L171.57 667.10L170.03 670.39L168.62 674.00L167.81 676.07L165.49 684.14L164.61 687.20L163.49 691.10L161.76 695.46L159.76 700.48L158.26 704.25L160.10 706.24L163.46 709.87L166.67 710.70L169.56 709.96L173.64 708.90L179.08 709.17L183.35 709.72L186.50 710.21L189.14 711.55L194.37 714.06L199.63 719.75L202.12 722.45L205.32 730.73L206.47 735.58L209.45 739.39L211.73 740.46L214.34 741.68L222.41 741.38L225.95 742.32L228.83 743.09L232.10 744.60L235.73 746.27L240.83 749.65L246.04 752.09L248.78 756.99L248.28 759.29L248.88 760.05L251.99 759.33L254.24 756.90L255.60 754.87L256.64 751.73L257.06 748.80L257.17 746.43L257.14 744.11L257.05 740.42L256.91 738.16L256.91 734.07L257.22 730.69L258.48 728.94L261.40 726.09L263.89 724.02L266.56 721.80L268.19 719.59L268.85 717.50L269.56 714.85L269.93 712.31L270.19 709.93L270.28 707.77Z" data-ward="12" /><path id="ward-1" class="ward" d="M184.91 72.85L186.23 67.51L184.78 60.93L181.45 59.67L178.52 58.30L172.87 56.21L167.58 53.58L162.25 55.70L156.01 56.61L150.28 60.14L141.07 66.52L135.42 71.46L128.47 78.24L122.08 86.18L118.37 88.89L113.89 89.91L106.03 88.64L97.34 86.77L87.92 87.90L77.38 91.41L64.64 93.43L54.23 90.96L44.01 88.58L36.23 88.08L27.28 92.78L22.06 96.43L15.15 101.85L8.97 107.34L0.00 114.56L2.26 118.88L4.62 123.38L11.03 128.16L13.68 130.63L16.22 132.98L19.35 135.01L20.59 137.92L23.66 145.17L25.32 149.12L28.58 152.63L30.57 154.79L34.41 159.31L35.51 163.71L37.46 169.73L41.13 171.96L45.71 174.10L47.65 177.50L49.84 181.34L52.31 185.79L54.39 188.79L55.78 191.12L60.44 197.01L63.90 200.65L68.51 202.60L71.16 204.38L74.58 209.09L75.12 213.92L75.57 217.93L75.94 221.25L78.73 226.15L80.62 228.57L82.51 230.99L82.02 233.85L80.57 236.72L78.63 239.49L77.19 241.55L75.55 244.25L75.73 247.08L75.97 250.70L77.89 251.91L80.69 253.84L83.49 255.77L83.52 259.02L83.57 262.62L86.59 268.41L88.82 273.84L90.19 277.17L90.31 284.03L89.47 289.54L88.71 294.46L90.82 295.06L93.79 295.74L96.98 296.87L99.93 297.92L102.03 298.91L104.41 299.90L107.48 299.92L113.24 300.08L117.35 300.30L122.28 300.66L127.37 299.68L131.71 299.08L135.52 300.45L138.03 301.55L140.48 303.26L142.06 306.45L143.06 309.39L145.82 310.72L147.86 309.57L152.76 308.10L156.20 306.84L161.57 305.73L163.97 304.72L166.47 305.54L168.76 306.19L171.90 306.52L175.03 307.62L176.76 311.08L178.98 311.03L182.09 310.96L184.71 311.72L188.44 311.87L192.29 311.90L195.45 312.20L198.57 311.95L201.92 311.92L205.36 318.16L203.18 324.57L204.26 330.22L205.59 334.52L206.57 337.67L211.37 343.41L212.39 346.97L213.21 350.40L213.62 352.60L213.89 355.22L210.90 360.12L209.71 363.34L212.23 363.87L215.73 364.94L218.23 365.62L220.73 366.29L223.12 366.83L225.52 367.36L227.18 364.71L231.01 361.46L233.11 359.60L238.10 355.24L241.85 350.97L243.14 347.07L245.22 345.12L247.31 343.16L241.18 335.31L243.19 329.78L247.14 328.52L253.28 326.57L252.27 320.36L252.34 315.88L252.43 313.71L253.55 306.13L248.03 301.56L244.05 293.48L251.74 293.64L255.97 293.86L260.20 294.07L266.70 294.53L271.54 294.87L275.47 287.32L276.50 283.31L276.32 274.11L268.12 271.81L267.92 266.68L264.58 257.75L257.43 260.75L247.43 257.54L243.72 256.30L241.66 255.62L234.67 252.66L226.14 248.76L228.03 229.07L232.96 226.40L237.90 223.71L234.95 212.23L238.08 210.17L239.88 207.94L241.58 204.51L245.00 197.07L246.84 192.46L246.82 187.09L253.40 184.41L256.35 185.15L258.47 186.52L260.87 187.42L262.43 189.25L264.89 191.55L267.32 194.48L271.59 195.67L273.83 191.71L269.76 189.77L267.78 188.48L264.28 186.20L262.06 184.53L258.95 181.83L256.66 179.80L254.37 177.77L251.68 175.54L248.45 171.29L244.01 169.29L237.49 167.26L232.53 165.56L231.14 163.73L228.55 160.31L225.32 158.70L221.55 157.23L219.02 155.08L215.64 152.46L209.74 150.67L203.52 149.10L201.80 147.46L200.08 145.82L198.69 143.31L197.29 140.80L196.52 138.20L195.75 135.59L194.88 132.90L191.64 129.85L185.65 129.71L180.41 133.06L177.66 136.60L174.21 133.92L168.81 128.61L165.77 125.73L162.74 122.85L165.23 119.85L167.72 116.85L170.24 114.24L172.75 111.63L177.66 105.87L181.50 98.84L179.33 92.20L178.38 88.71L176.86 83.12L176.32 80.47L175.77 77.82L178.77 77.73L181.11 78.47L183.28 77.94L184.91 72.85Z" data-ward="1" /><path id="ward-2" class="ward" d="M270.38 27.62L266.34 21.79L259.79 15.70L248.91 7.70L239.13 2.48L227.71 0.00L218.97 2.64L212.71 7.16L204.59 13.95L197.13 22.84L190.57 32.66L185.01 36.73L178.07 41.47L173.17 47.39L167.58 53.58L172.87 56.21L178.52 58.30L181.45 59.67L184.78 60.93L186.23 67.51L184.91 72.85L183.28 77.94L181.11 78.47L178.77 77.73L175.77 77.82L176.32 80.47L176.86 83.12L178.38 88.71L179.33 92.20L181.50 98.84L177.66 105.87L172.75 111.63L170.24 114.24L167.72 116.85L165.23 119.85L162.74 122.85L165.77 125.73L168.81 128.61L174.21 133.92L177.66 136.60L180.41 133.06L185.65 129.71L191.64 129.85L194.88 132.90L195.75 135.59L196.52 138.20L197.29 140.80L198.69 143.31L200.08 145.82L201.80 147.46L203.52 149.10L209.74 150.67L215.64 152.46L219.02 155.08L221.55 157.23L225.32 158.70L228.55 160.31L231.14 163.73L232.53 165.56L237.49 167.26L244.01 169.29L248.45 171.29L251.68 175.54L254.37 177.77L256.66 179.80L258.95 181.83L262.06 184.53L264.28 186.20L267.78 188.48L269.76 189.77L273.83 191.71L276.82 192.13L279.68 192.88L281.95 194.06L284.12 195.31L286.67 195.90L288.84 195.45L291.43 195.27L294.14 195.42L296.54 196.63L298.80 198.30L301.43 199.68L304.47 200.87L307.12 200.70L312.38 203.24L313.67 205.08L315.82 208.17L317.97 211.12L319.56 213.23L321.30 214.78L323.01 216.31L325.10 219.00L326.44 220.73L327.66 222.56L328.88 224.40L331.47 228.26L332.78 230.18L335.25 233.08L337.82 235.67L340.59 238.24L342.52 240.01L346.11 242.22L348.05 243.41L352.02 243.47L355.12 243.52L359.10 243.67L362.13 244.01L366.50 243.06L368.82 242.68L371.15 242.30L372.55 244.51L373.95 246.72L378.13 250.20L381.05 252.77L384.83 257.68L387.74 260.29L389.87 261.88L393.87 262.17L399.22 266.56L399.08 261.82L399.07 259.31L399.07 257.00L399.06 254.28L399.06 251.65L399.05 248.27L399.05 245.01L399.04 239.02L399.03 235.38L399.79 233.01L402.55 224.34L404.34 220.08L407.29 213.03L410.03 206.50L415.39 204.79L419.00 203.64L421.95 202.70L424.88 201.77L428.29 200.68L431.50 199.65L436.65 198.01L441.09 196.59L443.58 195.80L444.80 193.57L447.02 196.40L449.37 199.55L452.13 203.27L456.04 208.53L458.03 211.21L460.41 214.41L462.27 216.92L463.96 219.19L465.37 221.09L469.23 223.80L471.12 225.12L473.64 226.90L477.39 229.26L482.15 232.26L490.08 236.84L493.86 234.93L496.00 233.77L500.95 231.06L507.32 233.54L512.93 237.15L520.42 242.16L524.68 236.30L528.06 229.77L520.63 224.82L516.63 219.36L515.32 213.35L513.53 206.65L503.44 204.07L511.55 191.80L523.31 180.23L533.17 170.65L540.18 160.61L543.77 155.46L551.52 149.35L546.38 143.10L539.10 144.22L531.19 144.10L519.92 141.27L508.65 138.07L499.25 136.03L490.64 131.73L483.58 125.17L477.65 117.87L470.24 109.41L463.23 98.67L452.04 90.16L447.82 85.50L444.67 79.65L440.43 74.16L436.85 73.20L432.01 71.86L427.71 70.89L422.87 69.37L417.32 67.47L414.13 64.53L410.63 57.41L407.25 54.64L400.67 49.47L396.90 48.87L389.19 47.13L381.92 46.82L373.91 46.00L365.87 47.04L360.57 49.03L352.59 46.38L344.16 43.48L335.05 39.89L326.83 37.46L319.51 36.89L310.61 34.68L299.44 30.82L290.51 30.23L278.36 30.28L270.38 27.62Z" data-ward="2" /><path id="ward-9" class="ward" d="M296.07 769.81L297.03 767.54L298.71 764.34L300.43 761.60L298.20 761.02L294.64 759.39L289.88 761.94L285.97 763.54L283.35 764.23L280.26 764.69L278.11 764.87L275.62 765.07L271.63 765.39L268.21 766.09L265.22 767.25L262.90 768.15L258.88 769.68L253.36 770.60L251.52 768.81L249.39 767.97L247.81 761.43L244.83 769.29L242.64 775.05L240.60 776.33L238.32 780.37L235.34 784.65L233.07 787.90L228.02 789.05L224.58 789.83L222.91 792.07L223.56 794.60L223.84 798.17L224.15 802.03L222.63 807.04L221.55 808.96L220.98 811.70L220.11 814.92L218.84 818.47L217.38 822.58L214.87 826.16L213.09 828.71L208.86 831.24L207.26 832.70L204.79 834.95L207.75 840.15L211.11 846.26L211.95 848.41L213.39 853.38L214.03 856.18L213.81 861.40L214.43 865.34L214.37 869.09L215.33 879.58L216.09 886.40L216.53 889.09L216.97 893.74L217.33 896.67L230.69 902.05L239.17 904.23L241.39 904.81L248.93 908.37L257.58 912.72L259.89 913.88L265.91 917.18L273.10 921.12L281.50 925.94L285.08 927.99L288.52 930.32L290.53 932.85L294.23 937.49L296.42 940.20L297.96 942.02L300.41 944.87L303.94 948.97L307.35 951.97L309.44 953.81L311.85 955.92L317.42 959.68L322.10 960.45L325.01 959.91L325.05 959.90L326.84 959.58L329.94 959.28L332.91 958.84L343.64 958.45L348.52 959.11L353.44 956.09L356.04 956.06L360.42 960.20L365.13 961.19L373.76 963.01L379.18 964.97L395.06 958.38L395.20 954.88L399.21 953.89L401.65 955.31L407.32 953.72L414.81 953.69L418.73 953.10L423.17 952.98L426.13 952.89L431.44 951.17L430.79 948.02L429.66 945.51L427.90 941.61L427.25 938.18L424.40 935.24L421.48 930.97L422.85 926.64L424.27 922.16L422.76 917.96L420.74 912.33L419.04 909.14L416.11 903.62L414.04 898.56L412.50 894.78L412.66 891.90L412.47 889.01L413.42 886.47L414.21 884.35L417.21 881.64L421.35 880.06L424.03 877.20L425.57 875.20L428.78 870.99L430.47 868.78L429.98 864.48L431.74 861.14L436.17 856.00L439.08 852.51L442.68 848.17L445.98 844.20L452.57 842.27L457.53 838.80L456.91 834.99L454.57 834.41L449.58 832.36L448.44 828.88L441.48 825.27L438.01 823.08L435.49 821.48L432.35 820.34L431.17 822.75L428.28 822.53L426.44 821.05L423.78 818.90L419.90 816.21L416.44 814.89L409.28 813.59L404.37 811.10L401.88 809.39L399.50 807.74L394.80 806.97L392.54 808.58L390.50 811.13L388.87 813.36L387.24 815.60L384.65 820.05L384.57 824.34L383.37 832.01L381.35 833.05L379.34 834.09L375.45 833.56L367.78 832.46L365.50 833.19L364.16 835.24L360.05 834.36L357.34 832.91L352.35 831.65L349.93 830.99L347.52 830.33L342.79 828.85L338.00 825.36L334.65 823.09L330.08 819.79L328.20 816.88L326.32 813.96L324.65 811.97L323.06 810.42L318.73 808.42L314.05 806.69L310.69 805.46L305.46 803.71L302.91 803.12L296.19 803.70L291.24 800.98L287.13 799.08L288.30 795.36L288.96 793.26L285.17 789.84L286.25 787.38L287.34 785.45L288.59 783.38L290.50 778.09L293.12 775.44L296.07 769.81Z" data-ward="9" /><path id="ward-11" class="ward" d="M325.83 591.04L325.92 586.24L324.76 583.73L323.60 581.21L320.91 579.23L318.28 575.18L315.82 572.24L313.86 569.09L309.47 564.18L306.07 565.54L302.25 567.08L300.45 569.04L298.65 571.00L295.60 576.21L295.68 580.01L296.13 582.82L296.72 585.79L297.72 589.21L298.53 591.46L293.58 594.04L289.98 593.55L285.65 593.24L283.73 595.99L281.52 598.83L279.39 600.30L277.20 601.19L274.12 602.17L269.18 601.25L264.60 602.48L262.48 602.75L259.40 602.28L256.25 602.74L255.67 606.32L255.07 609.92L254.92 613.74L254.77 617.58L254.96 621.53L255.00 627.59L255.03 632.62L255.12 634.89L255.33 639.12L255.54 643.18L255.70 646.22L255.81 651.98L255.94 656.16L255.97 659.32L256.21 663.10L256.45 666.80L256.90 670.39L257.51 675.18L258.56 679.19L259.86 683.31L260.85 686.44L261.13 689.55L260.63 691.76L259.79 693.89L262.73 698.74L267.67 702.89L269.82 704.81L270.28 707.77L270.19 709.93L269.93 712.31L269.56 714.85L268.85 717.50L268.19 719.59L266.56 721.80L263.89 724.02L261.40 726.09L258.48 728.94L257.22 730.69L256.91 734.07L256.91 738.16L257.05 740.42L257.14 744.11L257.17 746.43L257.06 748.80L256.64 751.73L255.60 754.87L254.24 756.90L251.99 759.33L248.88 760.05L248.28 759.29L248.05 760.36L247.81 761.43L249.39 767.97L251.52 768.81L253.36 770.60L258.88 769.68L262.90 768.15L265.22 767.25L268.21 766.09L271.63 765.39L275.62 765.07L278.11 764.87L280.26 764.69L283.35 764.23L285.97 763.54L289.88 761.94L294.64 759.39L297.44 757.61L299.48 756.50L302.94 755.64L305.08 754.05L307.05 751.40L309.44 749.85L311.64 750.22L318.73 748.77L319.12 745.39L323.09 742.09L323.37 739.70L325.31 737.00L327.14 735.61L330.72 730.59L335.78 728.43L340.01 727.07L342.43 726.30L347.80 725.09L353.10 726.87L354.55 721.98L354.45 716.25L354.31 711.49L354.63 706.47L354.07 703.95L352.94 700.32L352.12 697.68L349.74 693.00L347.07 687.86L345.09 683.73L344.21 681.07L342.84 676.88L341.75 672.66L340.77 669.36L339.80 666.07L336.95 662.39L334.71 659.50L333.13 657.43L331.85 655.04L330.15 651.89L328.33 648.50L327.25 646.47L325.36 644.05L323.47 641.63L321.54 639.35L319.61 637.07L316.51 633.11L315.49 630.75L314.59 628.71L313.70 626.66L309.51 621.17L306.40 617.88L303.53 615.13L300.60 612.48L297.95 609.73L300.48 608.83L302.73 608.04L305.12 605.62L306.01 603.46L308.50 599.51L311.85 598.01L316.41 596.16L320.34 595.68L326.21 595.35L325.83 591.04Z" data-ward="11" /></svg>