<svg viewBox="0 0 1000.00 826.41" xmlns="http://www.w3.org/2000/svg"><style>.ward { fill: #e2e8f0; stroke: #fff; stroke-width: 0.5px; } .ward:hover { fill: #cbd5e1; }</style><path id="ward-9" class="ward" d="M788.91 624.29L788.23 619.52L780.74 621.12L773.01 623.45L760.16 624.70L758.41 623.95L749.79 620.26L749.43 625.72L750.40 633.18L751.53 639.91L751.66 645.68L751.79 651.22L750.92 662.58L750.51 668.07L747.58 672.47L746.43 676.90L739.53 678.05L737.60 673.07L734.27 672.10L731.37 672.82L729.41 674.39L725.51 677.44L722.35 677.12L719.17 676.81L713.32 676.22L712.93 678.63L712.21 683.15L712.15 686.55L709.60 693.16L708.80 695.23L708.00 698.63L706.54 701.75L705.19 703.20L702.58 705.99L702.10 707.93L703.94 708.28L705.79 708.63L707.89 709.76L709.99 710.89L713.63 711.61L715.97 712.07L717.99 712.47L717.00 714.53L715.74 717.15L714.41 719.90L712.36 723.91L711.09 726.38L709.24 730.01L707.63 733.15L706.05 736.24L704.12 739.15L702.31 741.22L701.44 743.57L700.53 746.07L701.88 747.30L704.16 749.39L706.62 752.08L708.26 753.87L710.05 755.93L711.34 758.28L714.06 764.79L714.61 767.11L715.36 770.27L715.90 772.55L716.24 776.56L716.47 779.20L717.93 783.20L719.53 783.86L718.22 786.70L716.97 789.41L715.40 792.30L713.67 795.25L711.95 798.20L711.11 799.87L709.46 803.18L707.80 806.50L705.38 811.33L702.82 816.46L705.23 816.94L708.19 817.13L715.09 817.58L723.05 818.09L729.72 818.74L732.07 818.97L734.26 819.23L737.41 819.75L741.32 820.40L749.10 819.98L751.47 819.86L753.64 817.46L756.04 814.79L759.90 814.94L760.98 817.56L763.07 818.20L765.18 818.86L769.56 819.03L774.63 819.22L776.92 819.79L779.76 820.49L781.41 820.89L791.07 820.27L793.27 819.98L793.66 818.07L794.06 816.15L793.86 811.91L793.66 807.66L794.38 803.16L794.78 800.69L798.91 796.96L801.20 797.37L805.21 798.08L818.03 800.36L819.80 800.68L833.94 810.20L842.74 816.12L846.45 818.62L853.80 823.26L856.52 824.98L858.79 826.41L861.65 824.20L863.20 823.00L867.32 819.82L869.39 818.23L871.52 818.15L874.02 818.80L875.36 817.04L877.04 814.85L879.90 811.11L882.10 809.23L882.90 804.16L884.33 798.89L885.46 794.70L885.40 791.14L885.36 789.40L885.30 786.18L883.53 783.04L881.99 780.31L880.39 777.48L875.82 769.39L875.06 766.92L874.18 764.07L872.03 757.97L871.20 755.12L870.43 752.46L870.01 746.21L869.77 742.61L868.75 737.57L866.22 725.08L865.24 716.38L864.54 710.13L865.66 704.36L867.15 696.71L858.08 699.16L850.98 700.43L843.17 701.83L840.40 702.37L830.99 705.59L822.85 701.39L819.68 705.64L817.00 694.18L813.73 680.97L807.30 675.11L811.59 669.40L800.73 663.86L788.59 657.66L794.12 645.16L792.74 640.40L789.75 630.09L788.91 624.29Z" data-ward="9" /><path id="ward-4" class="ward" d="M563.89 247.73L561.27 247.32L566.72 246.02L570.68 245.07L570.87 243.22L568.42 242.67L565.96 242.11L560.37 241.82L553.06 241.65L546.17 241.52L540.58 241.42L537.28 241.36L532.98 240.60L526.88 240.08L517.96 237.84L516.79 240.01L515.94 241.59L514.28 248.15L494.32 248.75L477.03 249.28L465.36 249.43L391.91 310.83L391.07 328.00L391.23 333.46L393.11 339.40L394.82 340.75L398.47 344.75L400.22 346.30L401.98 347.86L403.51 349.88L403.62 352.04L407.52 355.12L409.94 358.05L413.11 361.65L413.25 363.88L414.15 366.10L417.74 367.87L417.16 370.79L415.92 374.78L414.16 377.12L411.52 380.63L410.07 383.96L407.35 388.91L404.26 393.70L402.49 396.40L399.45 401.74L399.02 404.62L398.53 407.94L398.27 411.98L396.11 414.90L386.92 419.55L385.26 423.71L384.75 427.62L386.72 428.14L399.66 431.59L414.38 435.52L414.27 443.10L414.13 445.23L413.56 450.43L413.34 454.19L413.12 457.96L412.96 462.39L412.65 472.03L412.45 478.45L412.49 480.88L412.74 483.16L413.21 485.12L414.53 486.57L417.52 487.25L420.21 486.80L423.01 484.39L423.90 482.74L425.61 482.25L429.40 483.55L462.10 453.62L466.91 449.33L471.69 445.07L482.37 435.56L500.40 419.50L510.56 398.42L514.53 387.77L516.11 383.51L518.45 375.58L521.22 366.97L525.34 362.03L526.49 360.65L529.68 357.69L534.02 353.65L543.26 348.30L549.59 344.64L557.51 340.05L573.86 315.16L576.04 311.84L577.12 310.30L578.19 308.77L587.97 295.53L616.84 264.18L625.15 244.90L622.22 244.77L618.16 246.36L615.64 245.79L612.55 245.92L607.01 247.61L601.01 250.12L598.94 250.59L596.79 250.53L594.63 250.47L591.20 249.97L579.09 248.04L568.10 248.39L563.89 247.73Z" data-ward="4" /><path id="ward-11" class="ward" d="M550.42 456.03L547.38 450.62L545.87 454.53L543.97 457.06L542.13 458.47L539.30 455.06L536.66 456.13L534.56 457.71L527.52 454.86L524.19 455.74L520.35 458.70L520.99 467.78L521.23 471.16L521.55 475.71L520.77 478.73L520.14 480.38L519.50 482.02L517.18 485.35L514.80 487.65L510.92 491.12L507.43 493.86L508.92 495.71L509.14 498.36L504.29 501.70L499.89 509.16L497.01 515.21L490.37 527.12L490.02 529.99L490.73 532.66L487.91 536.78L486.86 539.45L487.68 542.42L488.52 545.45L487.97 547.99L487.06 552.19L481.36 553.83L473.89 554.34L474.96 557.74L474.99 560.26L474.04 561.68L470.81 564.91L469.66 567.20L468.22 569.04L467.54 572.90L467.95 575.41L469.85 578.66L470.63 585.38L478.58 584.99L483.70 584.46L486.22 584.07L488.74 583.67L493.56 582.83L499.73 581.74L507.33 584.84L510.00 586.34L511.80 587.36L516.72 591.49L522.17 594.84L524.96 597.61L527.40 599.38L529.06 600.59L532.96 601.50L534.60 601.89L536.31 602.90L538.68 604.30L540.85 604.64L543.26 604.63L546.44 604.63L548.56 604.62L552.56 604.62L558.83 604.61L561.27 604.67L565.20 604.76L569.50 604.86L574.14 604.97L577.12 605.04L580.90 607.90L588.37 608.88L593.25 609.51L593.03 614.03L595.61 615.39L599.55 617.47L603.18 619.38L607.66 623.42L613.01 628.24L617.85 632.60L622.77 636.21L625.83 638.46L629.49 643.23L634.87 650.23L638.22 655.80L639.72 657.22L641.53 658.93L645.63 661.86L652.60 662.83L656.19 662.68L654.90 660.69L653.67 658.70L650.44 653.89L649.36 652.29L650.54 650.09L655.97 647.57L664.28 650.08L671.21 651.18L677.78 650.84L682.72 650.59L685.58 649.35L689.21 642.73L694.31 633.44L705.35 627.95L708.64 627.68L713.49 627.29L719.15 626.84L721.30 627.31L724.93 627.81L728.52 628.30L729.80 626.91L733.00 621.06L735.08 617.24L726.41 610.21L722.84 607.90L715.81 603.35L707.60 598.70L702.85 596.02L694.54 591.41L686.36 588.06L680.55 587.89L676.27 590.27L670.57 587.44L659.18 581.78L661.29 578.57L663.16 574.48L673.10 569.69L682.12 561.04L689.07 557.75L695.58 554.74L694.80 551.24L693.73 546.40L692.00 542.25L690.51 538.66L688.30 537.36L681.55 542.28L677.96 542.78L670.34 541.01L665.93 538.96L661.76 537.02L660.61 534.91L659.39 532.68L652.49 530.39L645.69 526.39L642.58 526.51L646.53 514.34L661.27 499.39L664.24 496.27L666.13 494.29L662.92 487.38L659.67 480.37L658.10 476.97L654.78 477.84L651.66 478.16L648.13 480.06L641.59 482.61L635.05 485.15L632.26 485.76L628.54 486.61L626.58 487.06L617.86 485.61L614.73 485.06L610.78 484.56L607.16 485.08L603.64 488.84L602.00 491.27L602.15 494.55L599.77 497.69L595.37 503.52L590.54 507.44L588.63 508.58L583.42 511.68L580.63 513.35L574.55 515.61L567.95 518.78L563.45 519.65L560.04 517.82L559.07 515.76L557.80 513.04L556.18 509.59L555.22 501.10L554.84 497.69L555.16 495.13L554.55 492.52L553.93 489.91L553.76 488.08L553.16 485.48L551.15 477.42L551.95 474.01L552.76 460.19L550.42 456.03Z" data-ward="11" /><path id="ward-5" class="ward" d="M504.43 156.60L501.84 157.23L500.24 159.03L498.17 159.62L494.71 160.61L492.55 160.99L491.52 163.15L494.52 163.48L501.56 163.38L503.30 163.35L507.98 163.90L512.67 164.46L516.34 165.23L521.84 166.35L525.37 167.07L527.85 167.56L532.19 168.40L535.86 168.13L539.49 167.86L545.00 168.58L546.74 169.53L549.42 170.99L552.35 173.95L553.71 175.33L555.70 177.36L554.48 179.30L550.35 185.43L546.00 192.09L543.55 195.82L539.81 201.07L531.19 213.96L523.02 228.75L519.93 234.12L517.96 237.84L526.88 240.08L532.98 240.60L537.28 241.36L540.58 241.42L546.17 241.52L553.06 241.65L560.37 241.82L565.96 242.11L568.42 242.67L570.87 243.22L570.68 245.07L566.72 246.02L561.27 247.32L563.89 247.73L568.10 248.39L579.09 248.04L591.20 249.97L594.63 250.47L596.79 250.53L598.94 250.59L601.01 250.12L607.01 247.61L612.55 245.92L615.64 245.79L618.16 246.36L622.22 244.77L625.15 244.90L616.84 264.18L587.97 295.53L578.19 308.77L577.12 310.30L576.04 311.84L573.86 315.16L557.51 340.05L549.59 344.64L543.26 348.30L534.02 353.65L529.68 357.69L526.49 360.65L525.34 362.03L521.22 366.97L518.45 375.58L516.11 383.51L514.53 387.77L510.56 398.42L500.40 419.50L482.37 435.56L471.69 445.07L466.91 449.33L462.10 453.62L429.40 483.55L433.18 486.45L436.23 488.78L437.72 489.92L442.41 493.15L444.40 494.75L455.15 485.49L457.36 479.81L461.32 474.03L476.57 467.23L483.63 463.16L487.23 454.61L488.38 446.93L489.08 444.05L490.95 441.05L498.49 435.06L515.36 444.89L517.60 446.09L520.66 448.03L521.27 453.76L520.94 455.54L520.35 458.70L524.19 455.74L527.52 454.86L534.56 457.71L536.66 456.13L539.30 455.06L542.13 458.47L543.97 457.06L545.87 454.53L547.38 450.62L547.83 448.25L548.16 446.51L548.43 444.74L548.94 441.14L549.28 438.80L550.40 433.56L548.65 432.36L547.19 431.37L548.35 429.94L551.56 426.00L551.03 421.06L552.96 416.68L554.81 409.59L555.00 406.20L555.17 403.13L553.86 399.81L551.71 396.95L550.52 391.99L550.59 389.82L552.30 388.51L556.58 387.15L560.43 385.93L566.41 384.45L569.07 386.57L575.14 385.31L581.46 380.55L587.90 374.85L591.87 369.21L594.24 368.68L597.25 368.01L599.36 366.98L602.94 365.25L608.41 354.44L611.18 348.97L626.39 347.70L640.83 344.63L638.13 340.57L645.72 335.29L653.38 328.06L657.90 322.19L664.14 314.09L705.62 292.25L723.54 278.24L737.74 266.43L752.19 254.41L766.74 242.31L780.34 231.00L787.90 217.93L800.01 196.98L807.92 183.30L809.18 181.29L810.44 179.28L817.98 168.18L824.98 158.86L844.85 144.26L846.61 141.95L850.73 136.53L853.03 133.36L855.24 130.31L858.25 126.15L854.07 121.36L850.12 116.83L845.36 115.69L845.56 113.22L845.91 109.04L846.33 103.88L846.48 102.13L844.39 99.30L843.34 97.88L841.93 95.97L840.05 95.42L838.27 94.89L833.76 93.57L830.69 92.66L824.48 89.57L821.78 88.22L819.06 86.87L817.34 85.62L806.03 77.42L797.08 70.61L790.39 64.91L787.65 59.65L782.72 53.40L780.84 51.02L778.52 47.50L776.71 44.75L773.99 42.48L767.42 41.04L764.99 41.51L761.48 41.29L759.47 39.81L755.51 39.96L748.99 41.45L746.76 41.05L742.54 40.30L740.28 39.89L738.54 39.77L735.19 39.54L730.85 39.23L728.22 38.42L723.36 36.91L718.57 38.13L713.66 39.38L709.72 39.20L707.94 38.48L703.60 36.56L696.87 33.33L694.92 32.34L690.79 30.59L686.35 28.71L681.27 24.10L673.54 14.47L674.57 10.93L677.10 9.25L678.58 7.46L679.12 4.55L675.83 4.32L672.92 4.12L670.99 3.99L666.23 2.75L662.32 0.65L659.14 0.25L657.17 0.00L654.46 0.01L652.53 1.98L650.41 4.14L649.63 6.25L648.17 8.09L645.11 11.33L643.68 12.86L640.44 12.74L638.29 11.14L636.77 12.30L635.65 13.94L634.04 16.77L632.98 19.47L632.73 20.02L632.57 20.39L632.06 21.15L629.06 23.54L625.54 26.18L623.83 27.46L622.43 28.81L621.86 30.02L619.78 34.32L619.21 35.67L618.73 36.09L618.02 36.28L617.51 36.35L617.07 36.32L616.63 36.20L616.02 36.01L614.01 34.89L607.46 31.27L603.49 29.42L601.62 28.05L600.80 31.05L599.89 34.38L599.43 37.03L598.83 40.46L598.17 44.24L598.22 47.77L598.25 50.27L598.26 51.07L597.37 52.01L596.84 52.45L596.41 52.70L596.05 52.97L595.78 53.37L595.64 53.76L595.63 54.20L595.75 55.01L595.95 55.45L596.53 55.92L597.00 56.36L597.63 57.00L598.03 57.44L598.09 57.49L597.97 58.72L597.72 61.23L597.38 64.63L597.11 67.39L594.92 71.08L593.76 73.03L592.22 75.62L591.01 77.65L589.41 80.31L587.75 83.06L586.25 85.53L584.27 88.81L582.21 91.49L580.78 93.36L579.50 95.03L578.39 96.47L576.95 98.35L575.47 100.27L574.07 102.10L574.07 102.10L573.71 118.33L570.66 124.73L568.74 131.67L570.05 133.24L565.83 136.08L564.67 135.79L563.25 134.77L559.21 133.89L555.95 133.62L552.59 132.73L549.96 132.26L548.49 132.63L546.92 136.04L545.76 137.88L545.23 139.19L545.02 141.56L544.45 144.03L541.03 147.28L538.33 150.33L534.36 151.80L533.02 152.09L530.53 152.54L529.06 152.80L528.43 153.17L528.32 154.95L528.19 158.05L527.93 158.29L526.72 158.21L520.34 157.71L518.08 157.92L513.06 158.10L508.73 157.68L506.07 157.21L504.45 156.66L504.43 156.60Z" data-ward="5" /><path id="ward-2" class="ward" d="M186.43 294.99L184.09 294.03L180.29 292.47L180.67 295.32L182.40 297.92L184.75 301.43L188.32 307.35L190.65 310.78L193.97 315.66L196.36 318.89L199.04 322.52L204.10 326.48L205.38 328.69L207.03 331.54L209.62 336.02L212.18 341.10L213.24 346.75L213.60 348.67L214.31 351.63L215.82 357.99L216.35 360.06L217.65 365.26L218.18 367.21L218.95 370.03L219.95 373.73L220.98 378.37L221.63 381.28L223.57 388.49L224.93 392.61L225.76 395.11L226.38 396.98L227.62 400.33L228.40 402.44L230.16 406.64L231.19 409.12L233.29 413.24L234.82 416.24L236.12 421.52L237.41 426.78L237.89 429.09L238.38 431.41L239.14 435.02L240.07 439.16L241.16 443.17L242.93 448.20L244.51 453.02L244.31 458.64L244.13 463.95L243.35 469.57L242.81 471.50L242.10 474.03L241.21 477.21L240.84 479.25L239.62 485.84L235.84 490.58L231.32 497.76L227.44 503.93L229.78 505.66L232.99 508.03L240.34 505.64L244.75 502.17L246.27 500.97L249.30 499.36L254.70 495.60L257.12 495.91L261.98 496.52L266.97 495.86L268.66 496.13L274.19 497.03L275.95 497.39L278.75 498.69L282.56 500.45L289.35 499.57L296.05 498.70L297.85 499.72L300.69 501.31L304.69 502.86L305.81 501.55L308.33 499.97L310.02 496.07L311.70 495.98L317.52 495.66L322.17 495.40L326.06 496.72L326.02 499.29L325.98 502.14L325.42 510.03L325.59 516.44L324.89 523.20L324.18 527.87L323.69 531.09L323.63 537.45L322.91 542.40L321.94 547.07L322.52 551.72L323.20 557.14L325.07 559.52L325.72 561.09L327.73 561.22L331.13 561.45L333.87 561.64L341.76 561.56L349.81 561.26L352.96 559.71L357.39 557.53L360.08 558.18L361.74 559.41L366.07 562.63L365.67 564.49L364.88 568.28L368.76 567.49L372.48 566.73L375.93 566.02L380.84 566.46L385.05 566.84L389.90 567.28L392.26 567.50L398.75 567.57L402.08 567.61L408.36 566.78L412.74 566.20L417.12 565.25L421.64 561.77L424.99 563.04L427.41 562.58L431.20 563.84L433.14 564.20L435.07 564.56L436.85 565.06L442.37 568.16L444.08 568.24L445.85 564.03L445.29 558.03L441.61 551.81L440.06 549.78L438.66 547.96L439.20 543.08L439.42 541.09L438.09 535.85L437.39 531.63L436.68 527.32L437.03 524.92L437.49 521.73L436.88 517.89L435.87 515.70L437.16 514.11L438.70 512.20L439.37 509.63L440.03 507.05L440.23 502.36L442.03 499.27L442.89 497.62L444.40 494.75L442.41 493.15L437.72 489.92L436.23 488.78L433.18 486.45L429.40 483.55L425.61 482.25L423.90 482.74L423.01 484.39L420.21 486.80L417.52 487.25L414.53 486.57L413.21 485.12L412.74 483.16L412.49 480.88L412.45 478.45L412.65 472.03L412.96 462.39L413.12 457.96L413.34 454.19L413.56 450.43L414.13 445.23L414.27 443.10L414.38 435.52L399.66 431.59L386.72 428.14L384.75 427.62L382.35 425.13L379.46 422.14L375.33 418.02L377.72 402.65L388.79 380.23L398.04 372.84L405.17 367.13L402.97 363.87L397.36 361.30L391.82 360.04L383.06 360.13L375.72 358.59L366.43 360.21L357.94 358.37L349.67 353.60L344.38 351.34L341.12 349.95L335.67 347.63L330.52 345.46L323.68 342.55L321.79 340.77L320.16 339.22L315.35 334.69L310.00 333.65L304.38 332.56L301.27 332.18L290.08 330.81L280.65 329.36L270.71 325.64L266.66 324.06L262.61 322.47L256.68 319.91L253.13 317.68L250.86 317.88L248.69 319.86L245.81 322.49L242.50 324.96L239.32 324.87L236.86 324.28L234.26 323.17L232.60 321.27L227.29 315.19L226.13 311.45L225.08 308.08L222.32 302.33L218.36 298.64L210.89 296.46L206.96 295.32L190.90 295.67L188.23 295.73L186.43 294.99Z" data-ward="2" /><path id="ward-7" class="ward" d="M828.10 430.80L826.00 429.52L820.39 426.10L814.74 422.65L810.09 419.81L804.35 416.31L799.69 413.46L798.93 409.63L797.92 404.55L794.84 402.86L791.69 401.12L765.33 409.40L753.61 412.52L751.43 413.10L727.42 414.45L727.17 421.52L720.00 430.58L716.46 433.30L709.97 431.57L700.99 429.16L696.63 431.04L694.09 435.74L695.72 436.43L697.35 437.11L700.11 438.19L700.40 442.36L700.62 445.45L700.65 447.25L701.65 450.51L702.86 456.44L705.74 460.61L709.30 465.76L712.84 470.90L718.65 475.71L721.46 478.04L723.24 482.07L723.19 485.65L722.50 489.13L715.15 489.08L709.50 489.04L708.32 487.28L706.94 485.02L696.79 477.60L691.16 473.49L685.46 469.92L682.12 467.83L677.19 464.67L674.93 464.47L665.95 463.69L663.59 464.09L663.88 468.42L663.47 471.36L658.10 476.97L659.67 480.37L662.92 487.38L666.13 494.29L664.24 496.27L661.27 499.39L646.53 514.34L642.58 526.51L645.69 526.39L652.49 530.39L659.39 532.68L660.61 534.91L661.76 537.02L665.93 538.96L670.34 541.01L677.96 542.78L681.55 542.28L688.30 537.36L690.51 538.66L692.00 542.25L693.73 546.40L694.80 551.24L695.58 554.74L689.07 557.75L682.12 561.04L673.10 569.69L663.16 574.48L661.29 578.57L659.18 581.78L670.57 587.44L676.27 590.27L680.55 587.89L686.36 588.06L694.54 591.41L702.85 596.02L707.60 598.70L715.81 603.35L722.84 607.90L726.41 610.21L735.08 617.24L741.02 617.75L743.80 617.98L749.79 620.26L758.41 623.95L760.16 624.70L773.01 623.45L780.74 621.12L788.23 619.52L790.49 619.01L797.32 618.08L805.72 616.16L811.64 611.95L820.55 610.92L824.01 610.37L828.69 613.93L834.95 615.93L841.48 616.81L851.90 614.80L859.23 615.21L868.23 619.57L877.35 626.18L881.33 630.17L883.92 632.53L886.51 634.89L891.11 638.44L897.29 635.99L902.91 629.86L908.95 626.57L912.55 625.28L916.15 624.00L920.84 620.27L927.71 617.68L929.88 618.38L932.17 618.34L935.49 618.28L932.81 614.23L929.72 612.15L927.51 609.66L928.22 605.12L928.24 603.39L928.27 601.25L928.31 598.62L925.92 593.09L925.11 591.07L923.36 589.02L922.63 587.08L920.87 582.41L918.90 577.17L916.79 572.43L913.80 565.47L912.65 563.33L908.84 555.30L907.47 552.37L904.51 544.94L901.57 537.56L902.14 535.20L901.45 533.01L900.04 528.51L899.08 523.95L898.56 521.75L898.42 517.59L895.07 513.08L892.12 509.11L887.08 502.28L886.25 499.95L885.10 496.68L879.16 489.62L875.50 480.09L875.82 474.82L875.64 473.07L874.73 470.85L871.75 465.35L870.04 459.68L868.88 455.84L863.95 450.43L861.62 447.87L855.44 445.30L848.07 440.60L839.37 436.33L837.06 435.20L828.10 430.80Z" data-ward="7" /><path id="ward-14" class="ward" d="M325.59 516.44L325.42 510.03L325.98 502.14L326.02 499.29L326.06 496.72L322.17 495.40L317.52 495.66L311.70 495.98L310.02 496.07L308.33 499.97L305.81 501.55L304.69 502.86L302.88 505.48L300.51 507.61L297.97 509.66L296.52 510.89L294.19 512.86L292.90 514.08L291.42 515.08L288.81 516.24L285.88 517.21L280.95 516.86L278.06 518.25L276.28 521.36L273.90 523.37L269.78 525.35L267.56 526.41L264.61 527.91L259.79 530.36L256.82 532.59L255.36 533.68L253.52 535.90L251.98 537.76L250.15 542.88L248.07 547.45L247.24 549.27L245.91 551.60L244.02 553.28L242.55 554.59L240.99 555.98L236.28 550.71L234.17 549.30L231.38 548.61L228.40 544.01L226.31 541.74L223.23 540.63L218.38 543.41L213.02 547.00L208.47 550.06L207.27 554.88L205.99 559.81L203.20 570.99L202.67 573.07L203.91 585.51L204.25 588.78L205.29 598.97L206.07 604.74L204.67 610.39L201.85 611.23L200.49 612.35L199.48 614.31L197.89 615.05L195.30 613.40L192.77 609.45L189.58 607.66L185.94 608.09L178.04 605.67L171.56 603.68L167.98 603.52L163.45 606.24L160.11 610.60L160.13 615.40L161.07 618.82L160.23 621.00L159.83 623.23L162.56 626.00L164.46 625.51L166.04 626.23L168.92 626.17L173.68 627.60L175.40 627.81L177.20 628.58L178.36 631.40L179.55 633.27L181.13 634.44L182.34 635.85L184.14 636.47L187.70 637.12L189.88 637.43L191.22 636.15L194.20 633.81L197.99 632.82L199.96 632.20L202.77 630.05L203.85 627.47L202.11 623.23L201.02 621.29L201.31 619.31L202.27 616.03L208.59 614.97L213.31 614.17L214.98 613.57L218.55 612.15L220.60 612.62L224.88 613.61L226.82 614.06L229.77 614.65L237.07 615.83L242.65 621.85L248.81 621.33L250.57 621.18L258.52 620.80L263.09 621.80L269.83 623.33L273.68 625.67L277.92 628.01L279.89 630.22L281.98 631.28L284.03 633.38L285.18 635.07L287.21 636.36L289.83 636.77L294.12 638.24L295.84 640.21L297.10 641.87L301.39 644.46L305.96 647.46L309.08 646.05L311.83 644.80L314.75 641.99L316.25 640.55L320.57 635.92L321.85 633.77L325.09 633.06L330.45 632.52L332.31 630.09L333.08 632.80L334.10 636.38L334.40 638.56L332.70 640.81L330.84 643.28L331.50 645.31L332.54 646.66L334.85 650.11L331.76 651.01L329.39 652.35L327.71 653.28L325.51 653.80L323.35 654.32L321.47 653.98L317.72 653.30L316.23 655.05L316.26 657.18L317.70 660.43L319.47 662.86L321.42 664.90L325.18 665.95L328.68 666.34L332.82 666.94L334.79 667.87L335.85 669.46L335.10 671.36L333.55 672.34L330.03 673.44L328.00 674.31L326.81 675.98L325.72 679.61L325.17 682.23L324.88 683.99L326.16 685.19L328.71 685.26L332.54 685.35L335.09 685.42L337.96 685.70L340.83 685.98L344.98 687.26L348.37 687.76L353.69 688.70L358.52 689.27L362.28 689.06L364.91 689.10L367.86 690.31L369.34 692.66L371.29 693.34L373.61 694.17L373.80 691.81L374.56 682.72L402.42 671.32L414.81 668.87L423.26 666.66L427.01 665.68L428.75 663.21L429.56 660.91L432.34 660.35L433.32 656.53L427.20 653.65L426.33 647.47L425.14 642.04L424.74 640.23L424.81 637.85L424.93 633.57L424.64 630.96L424.58 627.19L424.53 623.53L424.75 618.93L424.94 614.96L425.08 612.05L425.12 605.72L425.61 602.90L426.23 599.35L428.61 593.24L429.88 588.35L430.61 584.89L430.01 581.82L431.84 578.89L433.67 575.95L434.28 573.14L434.76 570.95L435.62 566.99L436.85 565.06L435.07 564.56L433.14 564.20L431.20 563.84L427.41 562.58L424.99 563.04L421.64 561.77L417.12 565.25L412.74 566.20L408.36 566.78L402.08 567.61L398.75 567.57L392.26 567.50L389.90 567.28L385.05 566.84L380.84 566.46L375.93 566.02L372.48 566.73L368.76 567.49L364.88 568.28L365.67 564.49L366.07 562.63L361.74 559.41L360.08 558.18L357.39 557.53L352.96 559.71L349.81 561.26L341.76 561.56L333.87 561.64L331.13 561.45L327.73 561.22L325.72 561.09L325.07 559.52L323.20 557.14L322.52 551.72L321.94 547.07L322.91 542.40L323.63 537.45L323.69 531.09L324.18 527.87L324.89 523.20L325.59 516.44Z" data-ward="14" /><path id="ward-10" class="ward" d="M538.68 604.30L536.31 602.90L534.60 601.89L532.96 601.50L529.06 600.59L527.40 599.38L524.96 597.61L522.17 594.84L520.64 596.48L519.00 598.22L519.29 599.96L519.89 603.50L520.25 608.31L520.55 612.24L520.54 613.98L520.50 618.73L520.41 620.99L520.32 623.00L520.11 625.78L519.88 628.67L519.60 631.26L518.88 633.38L517.47 635.24L515.59 637.73L517.98 638.09L523.21 638.89L525.05 639.16L525.21 641.98L525.31 643.83L524.71 647.33L525.77 652.08L526.04 654.92L529.01 655.66L530.95 655.13L532.87 655.55L533.42 658.49L533.78 660.43L534.39 663.68L535.50 665.00L537.37 667.22L539.97 670.29L540.61 673.48L541.25 676.68L538.11 677.97L532.34 678.50L525.59 680.59L519.64 677.17L516.27 675.23L512.48 673.65L504.26 670.21L490.42 666.73L486.16 668.44L482.09 669.72L481.11 673.06L480.15 676.32L480.16 678.03L480.20 681.97L480.41 684.18L480.62 686.39L481.60 688.87L488.12 690.21L490.28 691.42L491.61 693.53L493.46 697.02L495.32 700.52L491.87 702.20L488.29 703.94L485.55 705.27L483.44 706.30L472.60 710.82L478.44 713.80L485.51 717.09L489.30 719.28L490.51 720.84L493.48 724.96L493.95 727.73L495.44 729.05L497.27 730.63L499.15 732.24L501.42 734.34L502.35 736.37L504.55 736.02L508.72 735.30L511.03 737.29L511.64 740.78L514.72 741.85L520.82 743.55L524.80 744.81L526.80 745.45L529.60 746.97L529.51 751.57L529.39 757.87L532.52 760.80L536.40 764.32L538.84 766.32L542.30 769.16L549.30 774.48L555.75 779.37L557.66 780.91L559.25 781.90L563.15 781.92L565.54 779.71L568.55 778.06L570.47 777.01L572.90 778.17L576.23 779.77L578.89 779.74L582.46 783.19L582.54 787.34L585.21 789.87L586.28 791.21L587.46 792.41L589.35 794.97L592.57 795.60L597.48 796.57L599.73 795.71L598.47 791.46L597.47 788.84L598.10 785.17L600.90 781.89L605.56 776.43L612.67 768.32L615.83 766.74L618.00 766.00L619.94 765.33L623.09 765.99L625.88 767.05L628.30 767.09L631.37 766.20L633.58 765.56L636.77 767.14L644.86 771.49L649.05 773.74L652.21 775.55L654.98 778.96L657.93 783.15L660.95 785.01L662.57 786.78L664.93 789.37L668.02 791.30L669.97 791.64L671.92 791.97L675.40 793.84L677.75 796.07L680.51 797.52L683.57 798.57L686.62 800.37L687.19 806.12L687.62 810.40L688.59 812.65L689.30 814.32L692.30 815.23L698.89 816.00L702.82 816.46L705.38 811.33L707.80 806.50L709.46 803.18L711.11 799.87L711.95 798.20L713.67 795.25L715.40 792.30L716.97 789.41L718.22 786.70L719.53 783.86L717.93 783.20L716.47 779.20L716.24 776.56L715.90 772.55L715.36 770.27L714.61 767.11L714.06 764.79L711.34 758.28L710.05 755.93L708.26 753.87L706.62 752.08L704.16 749.39L701.88 747.30L700.53 746.07L701.44 743.57L702.31 741.22L704.12 739.15L706.05 736.24L707.63 733.15L709.24 730.01L711.09 726.38L712.36 723.91L714.41 719.90L715.74 717.15L717.00 714.53L717.99 712.47L715.97 712.07L713.63 711.61L709.99 710.89L707.89 709.76L705.79 708.63L703.94 708.28L702.10 707.93L702.58 705.99L705.19 703.20L706.54 701.75L708.00 698.63L708.80 695.23L709.60 693.16L712.15 686.55L712.21 683.15L712.93 678.63L713.32 676.22L719.17 676.81L722.35 677.12L725.51 677.44L729.41 674.39L731.37 672.82L734.27 672.10L737.60 673.07L739.53 678.05L746.43 676.90L747.58 672.47L750.51 668.07L750.92 662.58L751.79 651.22L751.66 645.68L751.53 639.91L750.40 633.18L749.43 625.72L749.79 620.26L743.80 617.98L741.02 617.75L735.08 617.24L733.00 621.06L729.80 626.91L728.52 628.30L724.93 627.81L721.30 627.31L719.15 626.84L713.49 627.29L708.64 627.68L705.35 627.95L694.31 633.44L689.21 642.73L685.58 649.35L682.72 650.59L677.78 650.84L671.21 651.18L664.28 650.08L655.97 647.57L650.54 650.09L649.36 652.29L650.44 653.89L653.67 658.70L654.90 660.69L656.19 662.68L652.60 662.83L645.63 661.86L641.53 658.93L639.72 657.22L638.22 655.80L634.87 650.23L629.49 643.23L625.83 638.46L622.77 636.21L617.85 632.60L613.01 628.24L607.66 623.42L603.18 619.38L599.55 617.47L595.61 615.39L593.03 614.03L593.25 609.51L588.37 608.88L580.90 607.90L577.12 605.04L574.14 604.97L569.50 604.86L565.20 604.76L561.27 604.67L558.83 604.61L552.56 604.62L548.56 604.62L546.44 604.63L543.26 604.63L540.85 604.64L538.68 604.30Z" data-ward="10" /><path id="ward-13" class="ward" d="M237.07 615.83L229.77 614.65L226.82 614.06L224.88 613.61L220.60 612.62L218.55 612.15L214.98 613.57L213.31 614.17L208.59 614.97L202.27 616.03L201.31 619.31L201.02 621.29L202.11 623.23L203.85 627.47L202.77 630.05L199.96 632.20L197.99 632.82L194.20 633.81L191.22 636.15L189.88 637.43L187.70 637.12L184.14 636.47L182.34 635.85L181.13 634.44L179.55 633.27L178.36 631.40L177.20 628.58L175.40 627.81L173.68 627.60L168.92 626.17L166.04 626.23L164.46 625.51L162.56 626.00L159.83 623.23L157.46 628.37L155.80 631.96L155.08 633.53L153.49 635.73L151.32 638.95L150.86 640.84L152.00 644.60L152.16 646.46L152.32 648.32L153.14 650.37L153.31 652.20L153.51 654.38L153.18 657.74L152.88 662.08L153.80 665.48L154.36 667.55L155.09 670.13L155.96 673.19L157.42 675.52L158.33 676.98L159.88 678.81L161.80 679.43L166.40 680.93L171.36 682.25L174.92 684.22L176.94 689.07L177.59 692.51L177.94 694.38L179.67 703.55L179.98 705.22L180.32 707.02L180.72 709.14L181.06 710.96L183.34 710.65L185.29 710.73L187.23 710.81L188.87 710.42L190.87 709.26L192.81 708.13L199.66 705.31L205.20 704.15L211.30 703.60L215.15 703.79L220.89 704.44L224.97 704.20L229.42 703.94L231.89 704.15L234.55 704.46L236.48 704.69L240.53 705.92L246.62 708.92L247.86 710.14L251.41 714.22L252.78 715.71L254.72 717.73L256.63 719.63L260.20 723.19L262.55 725.19L266.52 728.57L273.48 734.50L277.83 738.20L282.79 740.55L286.21 742.16L288.82 743.40L293.13 744.63L296.93 746.76L298.52 747.47L300.08 748.11L302.04 747.79L303.99 747.83L309.63 749.67L313.74 751.55L315.46 753.58L318.72 754.94L321.63 754.98L323.49 754.10L325.06 753.36L328.16 751.83L334.26 749.86L336.82 750.04L341.82 752.62L346.08 755.25L349.31 755.90L353.55 756.89L359.23 758.21L360.90 758.86L363.37 759.50L368.66 760.85L372.55 761.93L377.15 762.41L380.99 764.15L382.80 764.97L383.59 767.17L384.34 769.23L384.77 772.97L385.92 774.25L390.67 774.42L393.50 771.80L394.07 769.62L394.75 766.97L396.63 763.25L399.34 761.02L401.97 760.18L403.73 759.64L406.91 758.67L409.41 757.75L411.66 756.65L413.86 754.89L415.07 752.96L416.28 751.04L417.24 748.19L421.70 734.92L422.54 731.54L423.37 728.15L427.07 723.30L429.48 720.96L433.42 717.11L435.91 716.11L438.98 715.98L438.60 712.06L438.85 706.47L441.48 701.18L435.71 698.35L433.41 698.39L427.18 700.49L420.44 701.53L415.90 702.23L406.85 703.63L405.03 703.63L402.51 701.12L401.07 698.28L397.50 696.87L393.18 695.45L378.08 694.23L373.61 694.17L371.29 693.34L369.34 692.66L367.86 690.31L364.91 689.10L362.28 689.06L358.52 689.27L353.69 688.70L348.37 687.76L344.98 687.26L340.83 685.98L337.96 685.70L335.09 685.42L332.54 685.35L328.71 685.26L326.16 685.19L324.88 683.99L325.17 682.23L325.72 679.61L326.81 675.98L328.00 674.31L330.03 673.44L333.55 672.34L335.10 671.36L335.85 669.46L334.79 667.87L332.82 666.94L328.68 666.34L325.18 665.95L321.42 664.90L319.47 662.86L317.70 660.43L316.26 657.18L316.23 655.05L317.72 653.30L321.47 653.98L323.35 654.32L325.51 653.80L327.71 653.28L329.39 652.35L331.76 651.01L334.85 650.11L332.54 646.66L331.50 645.31L330.84 643.28L332.70 640.81L334.40 638.56L334.10 636.38L333.08 632.80L332.31 630.09L330.45 632.52L325.09 633.06L321.85 633.77L320.57 635.92L316.25 640.55L314.75 641.99L311.83 644.80L309.08 646.05L305.96 647.46L301.39 644.46L297.10 641.87L295.84 640.21L294.12 638.24L289.83 636.77L287.21 636.36L285.18 635.07L284.03 633.38L281.98 631.28L279.89 630.22L277.92 628.01L273.68 625.67L269.83 623.33L263.09 621.80L258.52 620.80L250.57 621.18L248.81 621.33L242.65 621.85L237.07 615.83Z" data-ward="13" /><path id="ward-1" class="ward" d="M221.63 381.28L220.98 378.37L219.95 373.73L218.95 370.03L218.18 367.21L217.65 365.26L216.35 360.06L215.82 357.99L214.31 351.63L213.60 348.67L213.24 346.75L212.18 341.10L209.62 336.02L207.03 331.54L205.38 328.69L204.10 326.48L199.04 322.52L196.36 318.89L193.97 315.66L190.65 310.78L188.32 307.35L184.75 301.43L182.40 297.92L180.67 295.32L180.29 292.47L174.57 290.23L171.19 288.92L167.24 287.50L162.37 285.83L160.22 285.10L157.82 284.28L155.05 283.24L152.54 282.29L150.28 281.45L143.63 280.43L138.49 281.71L133.35 282.99L128.42 285.59L121.95 289.01L117.88 290.78L115.64 291.75L113.39 292.73L111.14 293.71L106.65 295.66L105.00 296.38L103.29 297.13L100.32 298.42L96.80 299.42L93.99 300.22L90.31 301.25L88.27 301.82L86.56 302.23L84.71 302.66L80.73 303.42L75.95 304.31L70.97 305.19L65.82 306.09L63.19 306.54L58.75 307.39L55.70 307.97L52.13 308.43L47.98 311.45L43.43 314.75L38.02 318.69L35.09 320.74L32.03 322.84L26.78 326.44L23.90 328.42L21.57 330.12L16.23 334.01L13.36 339.39L10.92 343.96L9.70 346.28L6.86 351.76L5.74 354.39L3.35 359.97L2.23 362.58L2.64 365.63L0.50 374.92L0.01 377.06L0.00 378.79L0.00 382.77L0.00 386.10L3.97 386.37L6.45 386.45L8.95 386.50L14.10 386.42L16.84 386.37L19.03 386.32L21.85 386.27L24.66 385.98L27.71 385.67L30.45 385.40L33.16 385.21L33.19 391.39L28.62 391.78L24.37 392.45L22.17 392.80L15.08 393.91L8.71 395.83L5.65 396.75L10.76 397.85L23.91 400.66L31.20 399.69L38.07 398.64L42.58 397.97L44.61 397.67L47.45 397.25L49.14 397.08L51.18 396.21L53.55 395.19L55.70 394.21L58.03 393.15L60.51 392.08L65.49 389.93L67.04 389.26L73.04 393.05L80.41 397.78L82.08 398.85L88.87 407.14L93.28 412.53L95.84 422.10L90.08 423.64L83.59 425.37L81.37 425.32L76.83 426.29L70.20 427.71L66.30 435.58L64.53 439.13L61.44 445.35L59.88 448.48L56.59 455.11L55.32 457.66L55.92 460.97L56.41 463.65L56.81 465.83L54.36 468.72L54.24 470.43L52.19 471.98L50.84 475.35L55.92 485.59L61.60 497.01L66.30 503.99L69.62 508.93L80.80 524.83L84.31 529.91L88.38 535.47L93.37 544.37L98.25 553.08L101.24 556.43L104.03 559.57L106.08 560.47L110.31 562.35L110.55 564.13L111.39 565.73L112.56 567.97L113.72 570.22L114.11 573.34L113.16 575.67L118.26 575.92L119.64 577.04L121.22 578.85L123.26 581.06L124.08 583.29L124.53 585.93L124.55 587.87L124.56 589.59L122.82 590.67L121.23 591.99L119.82 594.47L119.96 595.95L120.04 597.70L119.19 600.72L117.53 605.81L117.70 607.92L118.18 609.58L121.92 614.65L123.84 617.29L125.35 618.95L128.57 622.47L132.50 623.38L134.60 623.90L138.50 624.85L142.47 625.83L144.73 628.04L148.01 631.16L150.73 635.90L151.32 638.95L153.49 635.73L155.08 633.53L155.80 631.96L157.46 628.37L159.83 623.23L160.23 621.00L161.07 618.82L160.13 615.40L160.11 610.60L163.45 606.24L167.98 603.52L171.56 603.68L178.04 605.67L185.94 608.09L189.58 607.66L192.77 609.45L195.30 613.40L197.89 615.05L199.48 614.31L200.49 612.35L201.85 611.23L204.67 610.39L206.07 604.74L205.29 598.97L204.25 588.78L203.91 585.51L202.67 573.07L203.20 570.99L205.99 559.81L207.27 554.88L208.47 550.06L213.02 547.00L218.38 543.41L223.23 540.63L226.31 541.74L228.40 544.01L231.38 548.61L234.17 549.30L236.28 550.71L240.99 555.98L242.55 554.59L244.02 553.28L245.91 551.60L247.24 549.27L248.07 547.45L250.15 542.88L251.98 537.76L253.52 535.90L255.36 533.68L256.82 532.59L259.79 530.36L264.61 527.91L267.56 526.41L269.78 525.35L273.90 523.37L276.28 521.36L278.06 518.25L280.95 516.86L285.88 517.21L288.81 516.24L291.42 515.08L292.90 514.08L294.19 512.86L296.52 510.89L297.97 509.66L300.51 507.61L302.88 505.48L304.69 502.86L300.69 501.31L297.85 499.72L296.05 498.70L289.35 499.57L282.56 500.45L278.75 498.69L275.95 497.39L274.19 497.03L268.66 496.13L266.97 495.86L261.98 496.52L257.12 495.91L254.70 495.60L249.30 499.36L246.27 500.97L244.75 502.17L240.34 505.64L232.99 508.03L229.78 505.66L227.44 503.93L231.32 497.76L235.84 490.58L239.62 485.84L240.84 479.25L241.21 477.21L242.10 474.03L242.81 471.50L243.35 469.57L244.13 463.95L244.31 458.64L244.51 453.02L242.93 448.20L241.16 443.17L240.07 439.16L239.14 435.02L238.38 431.41L237.89 429.09L237.41 426.78L236.12 421.52L234.82 416.24L233.29 413.24L231.19 409.12L230.16 406.64L228.40 402.44L227.62 400.33L226.38 396.98L225.76 395.11L224.93 392.61L223.57 388.49L221.63 381.28Z" data-ward="1" /><path id="ward-6" class="ward" d="M867.91 296.74L863.98 295.22L862.06 291.23L859.25 289.29L856.80 287.60L853.78 286.81L851.03 286.08L848.85 285.86L848.14 283.78L848.51 282.63L843.16 276.25L845.63 273.57L847.37 271.69L850.12 264.60L852.51 261.60L854.34 259.31L855.58 256.93L855.07 250.71L856.20 243.34L856.67 240.29L857.23 236.61L857.87 232.45L858.31 229.61L857.89 225.52L857.44 221.16L857.19 219.15L856.87 216.32L855.97 209.53L857.54 207.71L860.77 203.95L865.16 200.75L866.82 199.54L869.45 197.63L874.48 193.25L875.83 192.07L878.38 189.85L880.54 187.97L881.90 186.78L883.55 185.35L886.88 182.45L888.76 180.81L890.24 179.52L891.85 178.11L893.38 174.67L893.02 172.57L887.72 170.65L877.82 167.05L870.34 163.95L868.49 163.19L863.08 156.81L859.96 154.60L857.23 153.85L850.74 152.06L846.49 148.14L844.85 144.26L824.98 158.86L817.98 168.18L810.44 179.28L809.18 181.29L807.92 183.30L800.01 196.98L787.90 217.93L780.34 231.00L766.74 242.31L752.19 254.41L737.74 266.43L723.54 278.24L705.62 292.25L664.14 314.09L657.90 322.19L653.38 328.06L645.72 335.29L638.13 340.57L640.83 344.63L626.39 347.70L611.18 348.97L608.41 354.44L602.94 365.25L599.36 366.98L597.25 368.01L594.24 368.68L591.87 369.21L587.90 374.85L581.46 380.55L575.14 385.31L569.07 386.57L566.41 384.45L560.43 385.93L556.58 387.15L552.30 388.51L550.59 389.82L550.52 391.99L551.71 396.95L553.86 399.81L555.17 403.13L555.00 406.20L554.81 409.59L552.96 416.68L551.03 421.06L551.56 426.00L548.35 429.94L547.19 431.37L548.65 432.36L550.40 433.56L549.28 438.80L548.94 441.14L548.43 444.74L548.16 446.51L547.83 448.25L547.38 450.62L550.42 456.03L552.76 460.19L551.95 474.01L551.15 477.42L553.16 485.48L553.76 488.08L553.93 489.91L554.55 492.52L555.16 495.13L554.84 497.69L555.22 501.10L556.18 509.59L557.80 513.04L559.07 515.76L560.04 517.82L563.45 519.65L567.95 518.78L574.55 515.61L580.63 513.35L583.42 511.68L588.63 508.58L590.54 507.44L595.37 503.52L599.77 497.69L602.15 494.55L602.00 491.27L603.64 488.84L607.16 485.08L610.78 484.56L614.73 485.06L617.86 485.61L626.58 487.06L628.54 486.61L632.26 485.76L635.05 485.15L641.59 482.61L648.13 480.06L651.66 478.16L654.78 477.84L658.10 476.97L663.47 471.36L663.88 468.42L663.59 464.09L665.95 463.69L674.93 464.47L677.19 464.67L682.12 467.83L685.46 469.92L691.16 473.49L696.79 477.60L706.94 485.02L708.32 487.28L709.50 489.04L715.15 489.08L722.50 489.13L723.19 485.65L723.24 482.07L721.46 478.04L718.65 475.71L712.84 470.90L709.30 465.76L705.74 460.61L702.86 456.44L701.65 450.51L700.65 447.25L700.62 445.45L700.40 442.36L700.11 438.19L697.35 437.11L695.72 436.43L694.09 435.74L696.63 431.04L700.99 429.16L709.97 431.57L716.46 433.30L720.00 430.58L727.17 421.52L727.42 414.45L751.43 413.10L753.61 412.52L765.33 409.40L791.69 401.12L794.84 402.86L797.92 404.55L798.93 409.63L799.69 413.46L801.25 411.65L803.09 409.51L804.25 408.17L806.88 405.10L809.91 401.58L812.67 398.37L815.28 395.34L817.65 392.58L822.67 387.59L825.97 384.31L828.55 381.76L830.46 379.86L832.29 376.96L835.48 371.90L837.76 368.29L847.41 352.99L850.50 348.23L859.61 334.56L862.03 331.15L872.79 319.46L880.48 313.12L882.83 310.13L892.37 302.75L897.25 294.19L894.42 293.89L891.55 291.23L887.80 287.76L884.90 286.46L883.65 288.70L882.61 290.54L880.46 294.40L876.93 297.36L872.78 298.62L867.91 296.74Z" data-ward="6" /><path id="ward-3" class="ward" d="M391.91 310.83L465.36 249.43L456.82 249.40L435.79 249.33L434.06 249.77L410.95 255.68L397.15 259.49L372.64 267.50L348.86 276.02L339.55 278.67L326.23 283.45L306.20 290.55L295.52 294.22L272.82 302.02L260.12 306.35L249.04 310.19L243.42 311.44L227.29 315.19L232.60 321.27L234.26 323.17L236.86 324.28L239.32 324.87L242.50 324.96L245.81 322.49L248.69 319.86L250.86 317.88L253.13 317.68L256.68 319.91L262.61 322.47L266.66 324.06L270.71 325.64L280.65 329.36L290.08 330.81L301.27 332.18L304.38 332.56L310.00 333.65L315.35 334.69L320.16 339.22L321.79 340.77L323.68 342.55L330.52 345.46L335.67 347.63L341.12 349.95L344.38 351.34L349.67 353.60L357.94 358.37L366.43 360.21L375.72 358.59L383.06 360.13L391.82 360.04L397.36 361.30L402.97 363.87L405.17 367.13L398.04 372.84L388.79 380.23L377.72 402.65L375.33 418.02L379.46 422.14L382.35 425.13L384.75 427.62L385.26 423.71L386.92 419.55L396.11 414.90L398.27 411.98L398.53 407.94L399.02 404.62L399.45 401.74L402.49 396.40L404.26 393.70L407.35 388.91L410.07 383.96L411.52 380.63L414.16 377.12L415.92 374.78L417.16 370.79L417.74 367.87L414.15 366.10L413.25 363.88L413.11 361.65L409.94 358.05L407.52 355.12L403.62 352.04L403.51 349.88L401.98 347.86L400.22 346.30L398.47 344.75L394.82 340.75L393.11 339.40L391.23 333.46L391.07 328.00L391.91 310.83Z" data-ward="3" /><path id="ward-12" class="ward" d="M469.66 567.20L470.81 564.91L474.04 561.68L474.99 560.26L474.96 557.74L473.89 554.34L481.36 553.83L487.06 552.19L487.97 547.99L488.52 545.45L487.68 542.42L486.86 539.45L487.91 536.78L490.73 532.66L490.02 529.99L490.37 527.12L497.01 515.21L499.89 509.16L504.29 501.70L509.14 498.36L508.92 495.71L507.43 493.86L510.92 491.12L514.80 487.65L517.18 485.35L519.50 482.02L520.14 480.38L520.77 478.73L521.55 475.71L521.23 471.16L520.99 467.78L520.35 458.70L520.94 455.54L521.27 453.76L520.66 448.03L517.60 446.09L515.36 444.89L498.49 435.06L490.95 441.05L489.08 444.05L488.38 446.93L487.23 454.61L483.63 463.16L476.57 467.23L461.32 474.03L457.36 479.81L455.15 485.49L444.40 494.75L442.89 497.62L442.03 499.27L440.23 502.36L440.03 507.05L439.37 509.63L438.70 512.20L437.16 514.11L435.87 515.70L436.88 517.89L437.49 521.73L437.03 524.92L436.68 527.32L437.39 531.63L438.09 535.85L439.42 541.09L439.20 543.08L438.66 547.96L440.06 549.78L441.61 551.81L445.29 558.03L445.85 564.03L444.08 568.24L442.37 568.16L436.85 565.06L435.62 566.99L434.76 570.95L434.28 573.14L433.67 575.95L431.84 578.89L430.01 581.82L430.61 584.89L429.88 588.35L428.61 593.24L426.23 599.35L425.61 602.90L425.12 605.72L425.08 612.05L424.94 614.96L424.75 618.93L424.53 623.53L424.58 627.19L424.64 630.96L424.93 633.57L424.81 637.85L424.74 640.23L425.14 642.04L426.33 647.47L427.20 653.65L433.32 656.53L432.34 660.35L429.56 660.91L428.75 663.21L427.01 665.68L423.26 666.66L414.81 668.87L402.42 671.32L374.56 682.72L373.80 691.81L373.61 694.17L378.08 694.23L393.18 695.45L397.50 696.87L401.07 698.28L402.51 701.12L405.03 703.63L406.85 703.63L415.90 702.23L420.44 701.53L427.18 700.49L433.41 698.39L435.71 698.35L441.48 701.18L438.85 706.47L438.60 712.06L438.98 715.98L443.22 716.82L448.98 717.95L451.52 718.37L453.89 719.58L455.28 721.54L455.84 725.24L456.22 727.70L456.74 729.48L459.34 730.21L461.92 730.94L464.02 730.23L466.01 729.85L472.35 729.83L474.08 730.00L478.71 730.41L482.14 731.59L484.76 732.49L486.40 733.74L490.45 736.82L494.61 739.85L496.59 740.97L498.79 742.17L500.93 743.05L506.02 745.16L512.05 749.15L514.72 750.35L516.41 751.10L519.77 751.31L523.25 752.16L526.97 755.62L529.39 757.87L529.51 751.57L529.60 746.97L526.80 745.45L524.80 744.81L520.82 743.55L514.72 741.85L511.64 740.78L511.03 737.29L508.72 735.30L504.55 736.02L502.35 736.37L501.42 734.34L499.15 732.24L497.27 730.63L495.44 729.05L493.95 727.73L493.48 724.96L490.51 720.84L489.30 719.28L485.51 717.09L478.44 713.80L472.60 710.82L483.44 706.30L485.55 705.27L488.29 703.94L491.87 702.20L495.32 700.52L493.46 697.02L491.61 693.53L490.28 691.42L488.12 690.21L481.60 688.87L480.62 686.39L480.41 684.18L480.20 681.97L480.16 678.03L480.15 676.32L481.11 673.06L482.09 669.72L486.16 668.44L490.42 666.73L504.26 670.21L512.48 673.65L516.27 675.23L519.64 677.17L525.59 680.59L532.34 678.50L538.11 677.97L541.25 676.68L540.61 673.48L539.97 670.29L537.37 667.22L535.50 665.00L534.39 663.68L533.78 660.43L533.42 658.49L532.87 655.55L530.95 655.13L529.01 655.66L526.04 654.92L525.77 652.08L524.71 647.33L525.31 643.83L525.21 641.98L525.05 639.16L523.21 638.89L517.98 638.09L515.59 637.73L517.47 635.24L518.88 633.38L519.60 631.26L519.88 628.67L520.11 625.78L520.32 623.00L520.41 620.99L520.50 618.73L520.54 613.98L520.55 612.24L520.25 608.31L519.89 603.50L519.29 599.96L519.00 598.22L520.64 596.48L522.17 594.84L516.72 591.49L511.80 587.36L510.00 586.34L507.33 584.84L499.73 581.74L493.56 582.83L488.74 583.67L486.22 584.07L483.70 584.46L478.58 584.99L470.63 585.38L469.85 578.66L467.95 575.41L467.54 572.90L468.22 569.04L469.66 567.20Z" data-ward="12" /><path id="ward-8" class="ward" d="M950.27 618.05L948.68 617.08L947.33 616.03L943.77 613.52L941.05 612.25L938.56 611.09L934.50 609.34L930.67 607.22L928.22 605.12L927.51 609.66L929.72 612.15L932.81 614.23L935.49 618.28L932.17 618.34L929.88 618.38L927.71 617.68L920.84 620.27L916.15 624.00L912.55 625.28L908.95 626.57L902.91 629.86L897.29 635.99L891.11 638.44L886.51 634.89L883.92 632.53L881.33 630.17L877.35 626.18L868.23 619.57L859.23 615.21L851.90 614.80L841.48 616.81L834.95 615.93L828.69 613.93L824.01 610.37L820.55 610.92L811.64 611.95L805.72 616.16L797.32 618.08L790.49 619.01L788.23 619.52L788.91 624.29L789.75 630.09L792.74 640.40L794.12 645.16L788.59 657.66L800.73 663.86L811.59 669.40L807.30 675.11L813.73 680.97L817.00 694.18L819.68 705.64L822.85 701.39L830.99 705.59L840.40 702.37L843.17 701.83L850.98 700.43L858.08 699.16L867.15 696.71L865.66 704.36L864.54 710.13L865.24 716.38L866.22 725.08L868.75 737.57L869.77 742.61L870.01 746.21L870.43 752.46L871.20 755.12L872.03 757.97L874.18 764.07L875.06 766.92L875.82 769.39L880.39 777.48L881.99 780.31L883.53 783.04L885.30 786.18L887.96 785.81L890.12 785.51L892.29 785.21L896.42 785.50L898.57 785.64L900.83 785.80L903.89 782.91L907.36 779.64L909.60 777.53L913.32 775.59L916.65 773.86L915.45 771.46L914.69 769.95L913.69 767.94L916.13 765.31L918.40 764.33L923.10 762.32L931.12 760.98L934.49 760.27L937.49 759.54L941.59 758.35L941.29 751.93L942.06 750.36L943.52 747.38L948.54 741.79L950.47 739.66L953.36 736.49L955.90 734.43L958.34 732.45L960.89 730.41L962.43 729.17L965.20 727.68L968.53 729.32L970.95 730.52L971.31 733.41L974.58 735.34L976.19 736.92L977.74 740.46L977.21 743.75L976.57 747.73L978.11 750.62L980.96 751.93L982.45 750.53L986.38 748.97L987.30 746.95L991.18 745.56L992.46 744.19L996.18 741.66L999.70 738.81L1000.00 736.24L998.03 732.76L991.68 728.36L990.64 725.23L989.66 722.25L989.08 718.70L987.98 715.96L988.06 713.02L988.70 710.07L991.06 709.10L997.29 706.53L998.05 704.21L999.69 699.20L998.83 697.09L997.13 692.89L996.89 690.21L994.91 686.22L989.59 684.15L986.78 680.77L988.40 676.76L985.60 675.50L983.09 670.90L981.75 666.72L981.53 662.05L981.35 658.08L981.54 656.09L981.86 652.61L979.60 647.01L977.50 642.97L975.74 640.32L974.78 638.89L970.75 634.86L966.34 631.06L961.27 627.02L958.78 624.92L956.37 622.80L953.36 620.80L950.27 618.05Z" data-ward="8" /></svg>