<svg viewBox="0 0 1000.00 981.43" xmlns="http://www.w3.org/2000/svg"><style>.ward { fill: #e2e8f0; stroke: #fff; stroke-width: 0.5px; } .ward:hover { fill: #cbd5e1; }</style><path id="ward-10" class="ward" d="M505.59 285.32L502.67 295.07L494.79 317.92L494.16 328.28L481.59 341.99L463.93 356.69L450.20 366.32L446.24 369.52L442.19 372.89L438.33 375.27L434.58 378.15L434.88 385.31L435.11 389.65L435.43 393.44L437.66 396.16L445.40 396.13L448.67 395.96L451.95 395.79L456.47 394.84L461.00 393.88L465.62 392.82L466.97 398.25L469.90 397.76L480.29 395.15L490.68 392.54L494.86 390.77L499.70 388.71L501.48 398.96L509.65 406.22L516.49 399.39L522.41 393.49L526.29 389.85L529.97 386.41L533.45 383.06L540.12 376.63L542.39 374.45L546.79 369.70L551.27 365.25L554.85 361.69L566.53 341.58L569.60 330.88L569.68 322.04L570.96 316.44L580.51 317.48L577.14 313.67L575.82 311.08L573.59 305.92L572.65 303.03L571.72 299.54L568.88 296.11L563.18 296.44L555.32 295.80L552.06 293.30L549.24 289.80L544.50 287.78L545.11 283.97L545.56 280.79L549.58 279.47L553.23 278.43L556.46 275.55L571.64 268.01L570.29 258.37L557.63 255.46L557.25 251.61L559.91 244.93L556.34 241.67L560.79 238.53L567.61 235.38L575.14 234.06L578.68 233.56L579.68 230.38L580.04 227.44L581.43 213.73L572.50 212.77L549.06 211.39L541.15 213.36L533.19 215.33L527.79 216.68L519.89 218.64L549.06 211.39L517.49 243.93L505.59 285.32Z" data-ward="10" /><path id="ward-24" class="ward" d="M444.77 285.83L442.97 282.97L441.79 278.75L438.83 278.09L432.99 279.35L429.46 279.94L423.12 290.36L415.24 288.92L414.68 286.04L414.04 283.06L412.99 279.46L410.26 280.65L404.73 282.39L400.87 283.92L345.59 287.88L326.44 289.04L317.35 289.66L311.07 290.09L311.37 293.86L312.05 302.56L310.61 307.85L310.37 315.47L309.41 330.76L303.88 354.99L301.93 363.53L296.76 385.37L293.23 400.31L293.18 405.69L292.03 412.11L292.27 415.60L292.69 421.67L293.81 427.54L295.39 435.78L293.43 443.02L291.09 446.91L290.27 450.10L288.21 458.14L291.48 465.45L297.08 469.78L303.91 475.47L315.25 477.57L325.65 476.70L334.16 478.32L342.62 481.40L350.10 485.88L359.87 489.86L370.56 491.73L377.98 492.57L387.22 493.06L390.99 493.38L396.23 493.73L399.17 493.21L403.56 488.93L406.84 485.57L410.09 483.83L439.53 485.30L439.75 480.19L440.10 475.25L439.93 470.80L439.40 466.18L438.61 461.92L438.09 458.89L437.31 454.37L436.22 448.33L435.78 443.58L434.88 437.86L434.64 434.09L434.16 430.39L433.83 427.04L433.19 420.54L432.77 416.21L432.34 411.87L433.10 407.34L434.17 402.43L435.19 398.01L437.66 396.16L435.43 393.44L435.11 389.65L434.88 385.31L434.58 378.15L438.33 375.27L442.19 372.89L446.24 369.52L450.20 366.32L451.36 359.32L451.44 354.09L451.12 350.80L450.94 345.93L450.31 341.96L448.48 334.42L448.17 330.60L447.42 325.66L446.86 321.93L446.28 318.01L445.85 315.14L445.54 312.01L444.58 306.38L444.26 300.90L445.45 295.06L444.82 291.09L444.77 285.83Z" data-ward="24" /><path id="ward-23" class="ward" d="M303.91 475.47L297.08 469.78L291.48 465.45L290.76 472.34L290.28 475.80L289.50 481.49L292.55 484.17L288.69 485.01L285.53 485.70L284.67 495.25L285.43 500.14L283.68 505.65L280.10 507.98L276.40 510.40L271.75 515.62L271.32 516.14L269.49 518.49L268.66 521.52L267.37 525.19L261.43 528.48L257.62 530.60L254.45 531.53L250.30 531.99L243.18 532.77L241.76 536.79L237.69 540.11L234.34 541.75L230.40 542.84L228.61 546.76L224.01 548.62L219.20 549.16L215.70 549.56L211.35 548.52L208.56 548.74L208.19 548.75L207.95 548.74L204.63 546.40L196.38 547.08L196.53 552.83L196.78 561.87L192.65 566.17L190.55 571.58L186.71 576.95L180.34 586.74L208.58 590.47L244.08 594.65L247.09 564.52L254.89 564.82L254.01 544.81L257.07 532.85L261.34 532.93L264.32 532.99L267.29 533.05L274.12 533.19L297.05 533.65L324.94 534.54L334.76 537.18L340.23 538.65L339.46 541.71L337.66 548.83L328.63 557.67L321.76 568.69L339.87 576.45L357.47 579.63L382.64 585.74L416.25 584.73L415.85 577.82L419.04 556.36L421.54 548.93L426.45 534.33L429.36 525.68L433.37 513.75L436.44 499.33L439.53 485.30L410.09 483.83L406.84 485.57L403.56 488.93L399.17 493.21L396.23 493.73L390.99 493.38L387.22 493.06L377.98 492.57L370.56 491.73L359.87 489.86L350.10 485.88L342.62 481.40L334.16 478.32L325.65 476.70L315.25 477.57L303.91 475.47Z" data-ward="23" /><path id="ward-5" class="ward" d="M782.19 167.29L778.52 167.26L775.60 167.16L771.60 166.99L762.56 168.51L759.48 169.02L756.03 168.96L756.39 172.61L756.97 178.44L758.15 190.35L753.36 193.14L751.92 196.67L749.67 202.13L747.83 206.62L745.41 212.52L741.76 221.41L740.41 224.72L736.57 234.08L740.29 234.86L743.95 236.33L747.52 237.52L748.96 240.65L747.90 245.14L746.63 248.43L745.23 252.24L743.56 255.54L742.22 260.22L739.03 265.31L736.14 269.48L734.55 272.22L732.40 276.12L730.37 279.71L729.44 283.43L730.11 287.89L730.27 295.03L733.92 294.61L737.53 294.53L738.66 297.82L746.98 301.33L758.41 307.18L778.27 325.98L784.71 317.96L787.01 311.06L794.48 285.10L807.29 268.39L813.35 259.91L819.56 260.66L823.85 259.95L822.25 252.81L821.30 247.05L820.93 237.72L821.97 228.98L821.80 224.22L821.64 219.37L821.42 213.18L823.20 208.06L825.05 203.17L827.67 195.43L825.36 192.40L823.60 188.26L821.44 183.17L819.42 179.81L817.37 176.39L814.36 177.40L809.52 177.72L805.19 177.80L801.67 178.12L798.47 178.66L790.18 180.20L790.56 176.36L791.01 172.08L790.51 168.89L785.88 169.05L782.19 167.29Z" data-ward="5" /><path id="ward-17" class="ward" d="M604.99 726.08L605.36 711.73L618.30 687.41L613.20 661.49L599.56 659.88L587.76 658.48L572.23 663.73L564.50 698.65L561.65 698.77L557.81 698.92L551.39 702.43L542.92 706.27L522.02 715.75L496.86 727.17L474.76 735.63L470.27 753.75L463.25 752.92L460.07 753.11L456.34 751.85L450.62 749.91L441.82 750.15L445.41 755.90L447.54 759.51L449.19 762.24L451.29 765.67L452.98 768.61L455.45 773.66L457.26 777.06L458.69 780.14L459.91 784.29L460.16 787.77L460.57 792.69L460.62 795.95L460.21 799.90L460.53 805.27L460.35 808.14L460.16 813.79L460.14 816.72L459.83 819.87L459.71 822.85L459.68 828.46L459.29 833.05L459.12 840.03L460.70 854.83L484.32 853.41L498.70 852.54L515.33 850.87L570.93 859.86L578.71 860.97L623.44 867.40L625.00 840.02L629.41 838.83L630.59 833.81L630.10 829.45L616.61 830.90L617.37 827.85L615.71 818.06L614.96 813.64L625.10 812.70L625.17 803.62L604.99 726.08Z" data-ward="17" /><path id="ward-6" class="ward" d="M730.11 287.89L729.44 283.43L730.37 279.71L732.40 276.12L734.55 272.22L736.14 269.48L739.03 265.31L742.22 260.22L743.56 255.54L745.23 252.24L746.63 248.43L747.90 245.14L748.96 240.65L747.52 237.52L743.95 236.33L740.29 234.86L736.57 234.08L729.80 244.07L724.65 251.19L721.93 255.29L717.94 261.33L714.81 266.06L711.69 270.78L708.07 276.24L704.91 281.02L702.45 284.75L697.42 292.38L692.00 299.63L684.22 303.42L678.05 306.13L673.99 307.88L668.88 310.08L654.79 316.08L642.01 321.77L639.51 323.87L633.55 332.69L624.59 345.95L607.51 371.23L603.27 377.50L601.64 379.91L585.24 405.09L578.23 416.27L572.77 420.91L564.83 442.04L558.78 458.01L571.12 469.66L581.60 466.56L605.15 457.81L674.64 440.94L693.49 439.30L698.56 428.82L697.68 419.04L700.13 408.12L712.00 404.59L714.90 414.01L728.04 416.52L749.32 420.65L749.17 395.82L752.53 382.60L753.76 368.28L762.35 347.09L771.45 334.20L778.27 325.98L758.41 307.18L746.98 301.33L738.66 297.82L737.53 294.53L733.92 294.61L730.27 295.03L730.11 287.89Z" data-ward="6" /><path id="ward-1" class="ward" d="M505.59 285.32L517.49 243.93L549.06 211.39L519.89 218.64L520.52 201.76L502.39 201.58L490.06 178.99L450.77 157.02L451.82 141.97L452.35 134.25L452.17 131.30L449.96 95.74L447.59 89.22L444.79 78.42L443.50 73.47L441.49 65.72L431.44 64.38L421.68 63.08L412.51 61.86L401.76 60.42L400.98 63.27L398.47 72.47L397.62 75.58L396.84 78.42L395.07 84.92L392.14 95.62L391.32 99.76L389.95 107.89L388.93 115.60L388.19 121.20L386.95 130.61L388.02 139.95L388.55 144.55L386.80 157.66L385.60 169.04L383.11 172.73L382.24 176.91L381.37 181.11L380.02 187.57L378.54 194.71L376.03 206.76L358.72 210.07L350.82 210.86L350.98 213.89L351.36 220.96L353.29 229.94L353.52 245.43L353.93 272.43L348.49 272.29L345.59 287.88L400.87 283.92L404.73 282.39L410.26 280.65L412.99 279.46L414.04 283.06L414.68 286.04L415.24 288.92L423.12 290.36L429.46 279.94L432.99 279.35L438.83 278.09L441.79 278.75L442.97 282.97L444.77 285.83L444.82 291.09L445.45 295.06L444.26 300.90L444.58 306.38L445.54 312.01L445.85 315.14L446.28 318.01L446.86 321.93L447.42 325.66L448.17 330.60L448.48 334.42L450.31 341.96L450.94 345.93L451.12 350.80L451.44 354.09L451.36 359.32L450.20 366.32L463.93 356.69L481.59 341.99L494.16 328.28L494.79 317.92L502.67 295.07L505.59 285.32Z" data-ward="1" /><path id="ward-14" class="ward" d="M600.10 580.04L571.83 577.45L540.25 574.53L536.18 574.16L531.35 573.73L526.82 573.06L522.75 574.86L516.67 577.62L502.74 578.54L495.83 579.94L484.21 582.29L478.35 583.50L473.10 583.43L466.85 583.35L465.10 587.30L455.48 587.06L448.23 586.86L442.62 586.98L438.67 587.06L431.79 587.09L423.54 586.67L416.25 584.73L416.73 591.28L418.12 599.71L419.48 610.10L420.06 614.62L420.54 618.35L421.57 629.41L422.29 638.72L423.90 649.92L424.81 659.36L425.47 672.48L427.28 677.20L432.70 677.13L447.85 670.30L448.22 665.89L472.21 661.59L491.33 664.23L512.65 667.15L513.46 609.49L533.49 607.22L537.08 608.23L540.09 607.33L545.48 606.54L548.54 597.47L560.64 601.70L564.89 603.19L575.99 601.22L584.57 601.99L595.84 602.92L597.41 596.11L598.62 588.91L600.10 580.04Z" data-ward="14" /><path id="ward-16" class="ward" d="M560.64 601.70L548.54 597.47L545.48 606.54L540.09 607.33L537.08 608.23L533.49 607.22L513.46 609.49L512.65 667.15L491.33 664.23L472.21 661.59L448.22 665.89L447.85 670.30L432.70 677.13L427.28 677.20L427.85 681.33L428.40 685.35L428.88 688.88L429.20 691.94L429.49 695.10L429.55 698.30L429.75 701.46L429.89 705.53L430.25 708.98L430.67 715.04L431.37 721.82L432.17 724.64L433.15 730.31L433.95 735.50L435.14 738.41L438.15 744.01L439.63 746.77L441.82 750.15L450.62 749.91L456.34 751.85L460.07 753.11L463.25 752.92L470.27 753.75L474.76 735.63L496.86 727.17L522.02 715.75L542.92 706.27L551.39 702.43L557.81 698.92L561.65 698.77L564.50 698.65L572.23 663.73L584.57 601.99L575.99 601.22L564.89 603.19L560.64 601.70Z" data-ward="16" /><path id="ward-20" class="ward" d="M186.71 576.95L180.48 574.20L171.26 577.89L162.19 576.90L151.17 583.20L142.42 584.15L133.55 585.11L127.16 588.78L121.28 587.00L119.01 602.40L117.80 610.62L112.55 608.65L108.86 609.14L102.83 611.39L98.64 612.95L95.81 615.37L92.56 616.41L89.35 614.95L82.33 614.43L73.66 611.21L72.84 611.03L72.69 611.02L67.82 613.50L65.00 616.26L61.56 626.66L60.42 630.13L67.67 634.43L71.04 636.62L71.99 640.36L74.69 644.08L77.41 646.88L78.21 648.83L78.30 649.80L79.17 653.32L82.39 657.59L75.34 670.60L70.90 672.06L67.16 673.30L64.88 675.55L61.03 679.36L56.43 680.17L52.84 678.12L52.76 677.86L51.80 674.20L51.71 673.89L50.72 670.83L50.08 665.89L50.07 665.71L50.06 665.60L49.88 664.75L48.80 661.60L48.24 660.49L44.70 660.97L44.29 661.20L41.95 662.86L38.72 664.67L37.83 665.24L33.70 668.17L30.69 669.44L27.55 670.20L26.36 670.19L23.80 669.92L16.64 668.39L16.06 668.28L7.17 666.89L0.00 660.80L3.20 671.36L13.67 696.43L20.28 716.92L23.66 730.58L30.17 749.34L34.67 768.76L41.00 792.69L43.43 800.37L46.74 814.30L46.86 822.65L48.95 828.87L51.96 846.44L60.03 875.18L77.85 920.14L81.54 928.47L99.53 953.19L114.63 960.02L134.12 968.84L159.62 975.57L171.65 977.65L184.04 979.43L206.20 980.72L229.28 980.27L242.22 979.69L243.58 964.82L245.25 944.90L245.10 938.94L244.82 933.94L244.32 928.84L243.94 923.83L243.07 920.77L240.83 915.53L239.80 912.49L238.33 908.49L236.97 904.06L235.84 900.46L233.98 894.41L233.08 890.83L232.55 886.02L232.30 882.33L232.02 877.87L231.71 873.18L231.84 869.79L231.90 862.15L231.94 857.05L231.98 852.55L232.55 849.54L233.86 846.72L235.79 843.67L238.00 840.99L241.36 837.08L246.72 833.16L249.68 830.88L252.02 828.79L254.15 826.79L256.78 824.10L258.89 819.55L259.73 816.32L261.13 809.89L262.23 803.47L263.87 800.71L265.23 796.51L265.87 792.57L266.76 789.65L267.67 786.72L268.16 782.42L268.62 776.72L268.98 773.09L268.90 768.47L268.51 765.31L267.55 760.09L266.69 755.82L268.26 752.70L277.26 750.19L291.70 746.15L251.66 696.40L224.31 686.44L215.77 650.34L203.12 652.59L192.21 621.95L208.58 590.47L180.34 586.74L186.71 576.95Z" data-ward="20" /><path id="ward-3" class="ward" d="M632.10 0.00L624.85 1.74L621.61 2.52L617.79 3.78L612.27 7.32L601.16 14.47L596.01 18.89L591.46 21.71L588.65 23.50L583.84 25.09L580.53 26.19L577.27 27.27L569.45 29.87L558.33 37.70L548.53 37.44L540.07 36.69L526.86 35.20L522.76 35.16L513.79 35.07L508.00 33.14L501.41 32.00L496.32 32.37L493.25 32.60L488.87 35.36L485.85 41.43L484.00 45.16L479.76 56.39L478.97 64.73L484.94 77.42L489.83 87.41L493.16 94.19L522.55 155.74L533.66 156.81L547.56 138.35L568.63 129.16L572.92 136.92L583.28 143.14L580.42 159.46L585.51 160.15L587.71 162.09L591.09 161.39L598.79 160.73L598.44 152.53L600.32 149.54L600.90 145.20L601.49 141.29L610.24 138.57L613.68 144.90L617.18 143.87L620.17 142.72L623.91 143.36L625.42 147.09L627.90 152.63L636.90 152.73L644.88 151.47L655.11 150.94L663.62 149.93L670.41 148.13L675.20 149.32L682.21 153.37L692.67 159.04L684.77 174.31L668.57 205.58L687.70 204.44L710.52 177.32L704.94 144.66L699.14 144.06L703.13 130.26L705.12 123.36L708.12 113.00L711.25 102.17L711.84 99.13L713.28 91.63L714.34 85.31L716.04 78.28L717.54 72.10L719.39 63.24L705.52 64.90L702.24 65.37L688.74 67.28L681.36 67.63L677.17 67.83L670.73 67.88L662.61 70.68L660.58 71.81L660.45 72.66L660.35 73.72L655.88 77.86L651.65 78.08L647.71 78.29L643.15 72.62L642.18 69.00L640.91 64.22L638.35 62.02L632.36 61.18L626.38 60.34L624.23 58.13L621.92 54.66L618.77 49.94L632.10 0.00Z" data-ward="3" /><path id="ward-18" class="ward" d="M427.53 866.24L436.20 861.61L442.48 859.87L460.70 854.83L459.12 840.03L459.29 833.05L459.68 828.46L459.71 822.85L459.83 819.87L460.14 816.72L460.16 813.79L460.35 808.14L460.53 805.27L460.21 799.90L460.62 795.95L460.57 792.69L460.16 787.77L459.91 784.29L458.69 780.14L457.26 777.06L455.45 773.66L452.98 768.61L451.29 765.67L449.19 762.24L447.54 759.51L445.41 755.90L441.82 750.15L439.63 746.77L438.15 744.01L435.14 738.41L433.95 735.50L433.15 730.31L432.17 724.64L431.37 721.82L430.67 715.04L430.25 708.98L429.89 705.53L429.75 701.46L429.55 698.30L429.49 695.10L429.20 691.94L428.88 688.88L428.40 685.35L427.85 681.33L427.28 677.20L425.47 672.48L421.45 675.74L414.80 682.54L409.07 687.57L402.73 693.51L398.25 699.57L394.42 704.85L390.80 710.34L385.33 717.79L370.94 731.40L367.28 734.78L363.29 738.56L359.74 741.66L356.71 745.00L353.11 749.04L350.79 751.61L348.74 754.24L346.09 757.44L345.64 760.50L344.67 765.54L344.08 773.26L343.38 781.64L343.90 789.60L344.99 799.58L345.58 807.94L347.78 814.31L349.95 822.77L352.22 825.70L359.82 837.23L361.43 840.55L364.66 844.79L368.87 849.35L372.41 852.75L377.15 855.54L381.09 857.29L385.52 860.60L390.99 863.83L396.49 867.01L400.81 870.01L406.37 872.61L414.57 878.57L427.53 866.24Z" data-ward="18" /><path id="ward-19" class="ward" d="M374.53 676.91L371.07 676.24L368.30 674.19L366.22 671.94L364.02 670.00L361.78 668.00L359.92 665.77L356.78 665.37L353.48 665.00L350.14 664.77L291.70 746.15L277.26 750.19L268.26 752.70L266.69 755.82L267.55 760.09L268.51 765.31L268.90 768.47L268.98 773.09L268.62 776.72L268.16 782.42L267.67 786.72L266.76 789.65L265.87 792.57L265.23 796.51L263.87 800.71L262.23 803.47L261.13 809.89L259.73 816.32L258.89 819.55L256.78 824.10L254.15 826.79L252.02 828.79L249.68 830.88L246.72 833.16L241.36 837.08L238.00 840.99L235.79 843.67L233.86 846.72L232.55 849.54L231.98 852.55L231.94 857.05L231.90 862.15L231.84 869.79L231.71 873.18L232.02 877.87L232.30 882.33L232.55 886.02L233.08 890.83L233.98 894.41L235.84 900.46L236.97 904.06L238.33 908.49L239.80 912.49L240.83 915.53L243.07 920.77L243.94 923.83L244.32 928.84L244.82 933.94L245.10 938.94L245.25 944.90L243.58 964.82L242.22 979.69L271.14 981.43L275.17 979.14L286.66 978.74L306.41 974.20L312.69 972.76L322.27 970.02L334.57 963.12L357.59 949.02L388.07 913.19L410.72 883.60L414.57 878.57L406.37 872.61L400.81 870.01L396.49 867.01L390.99 863.83L385.52 860.60L381.09 857.29L377.15 855.54L372.41 852.75L368.87 849.35L364.66 844.79L361.43 840.55L359.82 837.23L352.22 825.70L349.95 822.77L347.78 814.31L345.58 807.94L344.99 799.58L343.90 789.60L343.38 781.64L344.08 773.26L344.67 765.54L345.64 760.50L346.09 757.44L348.74 754.24L350.79 751.61L353.11 749.04L356.71 745.00L359.74 741.66L363.29 738.56L367.28 734.78L370.94 731.40L385.33 717.79L390.80 710.34L394.42 704.85L398.25 699.57L402.73 693.51L409.07 687.57L414.80 682.54L421.45 675.74L417.45 673.79L414.56 673.83L410.79 674.25L407.23 675.26L402.52 676.86L399.28 677.95L396.29 678.56L392.35 678.41L389.39 677.67L385.82 677.99L382.38 677.36L378.71 677.51L374.53 676.91Z" data-ward="19" /><path id="ward-11" class="ward" d="M580.51 317.48L570.96 316.44L569.68 322.04L569.60 330.88L566.53 341.58L554.85 361.69L551.27 365.25L546.79 369.70L542.39 374.45L540.12 376.63L533.45 383.06L529.97 386.41L526.29 389.85L522.41 393.49L516.49 399.39L509.65 406.22L501.48 398.96L499.70 388.71L494.86 390.77L490.68 392.54L480.29 395.15L469.90 397.76L466.97 398.25L465.62 392.82L461.00 393.88L456.47 394.84L451.95 395.79L448.67 395.96L445.40 396.13L437.66 396.16L435.19 398.01L434.17 402.43L433.10 407.34L432.34 411.87L432.77 416.21L433.19 420.54L433.83 427.04L434.16 430.39L434.64 434.09L434.88 437.86L435.78 443.58L436.22 448.33L437.31 454.37L438.09 458.89L438.61 461.92L439.40 466.18L439.93 470.80L440.10 475.25L439.75 480.19L439.53 485.30L445.74 487.09L460.76 490.21L469.50 491.76L482.92 485.00L494.26 479.29L507.07 477.40L516.97 459.86L518.15 454.30L519.70 446.71L534.08 438.89L548.88 441.16L554.95 451.53L558.78 458.01L564.83 442.04L572.77 420.91L578.23 416.27L585.24 405.09L601.64 379.91L597.04 377.41L592.42 374.91L587.03 373.27L591.93 358.20L594.67 356.82L598.59 347.99L599.72 340.58L602.26 332.94L602.36 328.35L592.72 320.88L586.44 321.09L580.51 317.48Z" data-ward="11" /><path id="ward-9" class="ward" d="M595.80 207.35L581.32 205.22L581.43 213.73L580.04 227.44L579.68 230.38L578.68 233.56L575.14 234.06L567.61 235.38L560.79 238.53L556.34 241.67L559.91 244.93L557.25 251.61L557.63 255.46L570.29 258.37L571.64 268.01L556.46 275.55L553.23 278.43L549.58 279.47L545.56 280.79L545.11 283.97L544.50 287.78L549.24 289.80L552.06 293.30L555.32 295.80L563.18 296.44L568.88 296.11L571.72 299.54L572.65 303.03L573.59 305.92L575.82 311.08L577.14 313.67L580.51 317.48L586.44 321.09L592.72 320.88L602.36 328.35L602.26 332.94L599.72 340.58L598.59 347.99L594.67 356.82L591.93 358.20L587.03 373.27L592.42 374.91L597.04 377.41L601.64 379.91L603.27 377.50L607.51 371.23L624.59 345.95L633.55 332.69L639.51 323.87L642.01 321.77L654.79 316.08L668.88 310.08L673.99 307.88L678.05 306.13L684.22 303.42L692.00 299.63L697.42 292.38L702.45 284.75L704.91 281.02L708.07 276.24L711.69 270.78L714.81 266.06L717.94 261.33L721.93 255.29L724.65 251.19L729.80 244.07L736.57 234.08L701.88 225.27L660.43 212.46L655.97 211.88L652.95 211.49L644.11 210.35L633.05 210.19L627.18 210.41L618.93 210.72L612.47 211.00L608.03 211.19L595.80 207.35Z" data-ward="9" /><path id="ward-2" class="ward" d="M493.16 94.19L490.83 96.15L488.45 98.14L480.43 99.44L474.40 98.34L469.69 97.81L463.62 97.13L457.36 96.97L454.38 96.53L449.96 95.74L452.17 131.30L452.35 134.25L451.82 141.97L450.77 157.02L490.06 178.99L502.39 201.58L520.52 201.76L519.89 218.64L527.79 216.68L533.19 215.33L541.15 213.36L549.06 211.39L572.50 212.77L581.43 213.73L581.32 205.22L595.80 207.35L608.03 211.19L612.47 211.00L618.93 210.72L627.18 210.41L633.05 210.19L644.11 210.35L652.95 211.49L655.97 211.88L660.43 212.46L701.88 225.27L736.57 234.08L740.41 224.72L741.76 221.41L745.41 212.52L747.83 206.62L749.67 202.13L751.92 196.67L753.36 193.14L758.15 190.35L756.97 178.44L756.39 172.61L756.03 168.96L753.13 168.13L738.83 164.01L728.90 161.15L723.78 159.68L713.04 173.96L710.52 177.32L687.70 204.44L668.57 205.58L684.77 174.31L692.67 159.04L682.21 153.37L675.20 149.32L670.41 148.13L663.62 149.93L655.11 150.94L644.88 151.47L636.90 152.73L627.90 152.63L625.42 147.09L623.91 143.36L620.17 142.72L617.18 143.87L613.68 144.90L610.24 138.57L601.49 141.29L600.90 145.20L600.32 149.54L598.44 152.53L598.79 160.73L591.09 161.39L587.71 162.09L585.51 160.15L580.42 159.46L583.28 143.14L572.92 136.92L568.63 129.16L547.56 138.35L533.66 156.81L522.55 155.74L493.16 94.19Z" data-ward="2" /><path id="ward-8" class="ward" d="M991.95 409.40L993.54 405.40L996.73 396.47L999.00 390.13L993.72 389.08L978.51 386.04L971.03 386.78L965.46 387.79L961.14 390.82L958.56 392.27L955.70 394.92L950.99 395.29L947.32 395.99L944.22 399.48L943.77 409.41L933.49 409.06L922.73 411.53L919.83 410.57L917.52 408.81L915.16 407.13L904.85 400.60L901.48 398.84L898.57 398.02L895.69 399.76L891.94 402.36L888.75 403.55L885.26 404.06L881.08 404.96L877.13 405.56L873.92 406.17L870.71 406.33L867.72 406.42L840.37 410.17L820.61 417.58L799.71 426.76L759.37 442.29L756.36 445.25L757.73 447.92L760.15 451.95L764.70 461.64L779.76 468.75L787.96 471.69L790.64 472.85L793.31 474.00L800.06 478.99L800.47 487.84L798.38 499.84L791.35 508.45L784.26 517.94L778.28 524.84L769.64 532.30L763.42 543.00L761.14 549.94L760.17 552.88L759.80 566.52L759.39 569.98L757.69 584.33L754.08 605.55L753.36 608.51L750.19 621.38L749.07 624.81L745.43 635.90L740.10 652.14L738.46 667.34L737.66 683.06L736.03 695.11L735.37 700.37L736.11 706.85L737.22 716.60L736.58 729.16L722.30 794.52L718.89 821.42L723.79 812.17L730.72 804.35L737.74 796.44L742.43 791.15L746.80 786.21L752.43 776.70L755.38 773.22L755.89 772.70L757.39 770.77L759.36 767.96L760.61 766.13L761.69 764.03L762.37 761.12L761.93 758.53L760.57 756.01L759.06 754.08L758.40 753.15L759.09 747.75L756.76 739.28L755.26 733.85L752.88 725.21L753.58 721.74L754.19 718.71L756.02 711.80L758.69 701.77L762.37 689.41L767.84 680.32L775.71 669.93L777.16 666.67L781.91 661.78L789.26 653.42L795.59 646.22L802.01 640.09L805.52 638.13L808.06 636.89L810.42 635.78L813.14 635.08L815.32 635.00L817.76 635.01L821.28 635.07L825.87 635.96L834.80 637.16L844.93 639.62L851.58 642.35L854.77 643.19L860.27 647.31L860.80 647.85L863.64 652.49L866.11 658.95L868.01 662.28L869.38 664.69L873.01 668.20L875.34 670.35L878.20 672.10L881.41 673.95L884.03 675.17L885.63 675.58L886.73 675.69L887.37 675.77L887.94 675.76L888.43 675.74L889.03 675.71L890.00 675.61L891.12 675.61L894.14 675.53L898.86 674.48L903.58 672.89L908.03 671.21L914.23 666.96L918.22 664.80L922.12 663.25L928.44 659.73L932.22 657.11L935.36 654.33L937.50 651.93L943.17 644.34L940.08 635.68L939.47 631.66L938.85 627.61L936.78 624.25L933.96 619.65L928.37 608.32L927.14 605.54L924.42 599.41L923.05 595.79L921.50 591.70L920.37 588.72L920.15 584.98L919.75 578.08L921.01 572.67L922.02 568.34L926.62 557.73L931.73 551.35L935.21 547.82L940.46 542.89L945.87 538.33L949.19 535.42L953.00 531.88L956.76 527.73L962.13 519.26L967.34 511.06L970.37 506.09L971.67 501.20L972.82 496.37L975.82 488.20L976.95 479.21L978.09 474.93L978.77 457.52L979.34 442.70L980.35 439.30L982.72 431.34L989.41 415.44L991.95 409.40Z" data-ward="8" /><path id="ward-7" class="ward" d="M813.35 259.91L807.29 268.39L794.48 285.10L787.01 311.06L784.71 317.96L778.27 325.98L771.45 334.20L762.35 347.09L753.76 368.28L752.53 382.60L749.17 395.82L749.32 420.65L752.07 437.50L756.36 445.25L759.37 442.29L799.71 426.76L820.61 417.58L840.37 410.17L867.72 406.42L870.71 406.33L873.92 406.17L877.13 405.56L881.08 404.96L885.26 404.06L888.75 403.55L891.94 402.36L895.69 399.76L898.57 398.02L901.48 398.84L904.85 400.60L915.16 407.13L917.52 408.81L919.83 410.57L922.73 411.53L933.49 409.06L943.77 409.41L944.22 399.48L947.32 395.99L950.99 395.29L955.70 394.92L958.56 392.27L961.14 390.82L965.46 387.79L971.03 386.78L978.51 386.04L993.72 389.08L999.00 390.13L999.50 382.88L1000.00 375.63L999.99 368.68L996.82 353.70L991.43 339.76L987.03 328.40L985.40 324.18L984.06 320.73L982.81 317.48L979.25 308.29L977.49 299.06L976.17 292.08L970.82 290.73L949.83 285.40L940.59 283.06L922.42 279.54L899.20 275.05L863.73 267.94L823.85 259.95L819.56 260.66L813.35 259.91Z" data-ward="7" /><path id="ward-4" class="ward" d="M820.16 156.01L821.23 150.35L823.04 139.62L822.99 135.11L820.32 131.30L819.42 127.13L816.00 114.38L814.85 107.88L816.03 100.23L805.23 96.08L800.79 93.70L798.32 92.22L793.35 89.01L787.41 84.98L779.58 78.33L777.08 74.98L774.93 71.87L772.75 68.85L770.50 65.49L768.28 62.48L766.42 59.95L762.08 54.08L744.25 57.85L739.62 59.55L733.97 60.92L729.20 62.92L719.39 63.24L717.54 72.10L716.04 78.28L714.34 85.31L713.28 91.63L711.84 99.13L711.25 102.17L708.12 113.00L705.12 123.36L703.13 130.26L699.14 144.06L704.94 144.66L710.52 177.32L713.04 173.96L723.78 159.68L728.90 161.15L738.83 164.01L753.13 168.13L756.03 168.96L759.48 169.02L762.56 168.51L771.60 166.99L775.60 167.16L778.52 167.26L782.19 167.29L785.88 169.05L790.51 168.89L791.01 172.08L790.56 176.36L790.18 180.20L798.47 178.66L801.67 178.12L805.19 177.80L809.52 177.72L814.36 177.40L817.37 176.39L813.51 172.33L814.70 166.25L819.42 161.87L820.16 156.01Z" data-ward="4" /><path id="ward-21" class="ward" d="M328.63 557.67L337.66 548.83L339.46 541.71L340.23 538.65L334.76 537.18L324.94 534.54L297.05 533.65L274.12 533.19L267.29 533.05L261.34 532.93L257.07 532.85L254.01 544.81L254.89 564.82L247.09 564.52L244.08 594.65L208.58 590.47L192.21 621.95L203.12 652.59L215.77 650.34L224.31 686.44L286.34 657.50L290.09 629.44L316.25 632.74L317.45 626.97L317.00 623.87L315.46 617.19L315.08 611.90L316.52 609.09L318.94 604.18L319.73 600.21L319.33 596.66L318.45 591.89L318.38 588.22L318.58 584.20L319.12 578.17L321.76 568.69L328.63 557.67Z" data-ward="21" /><path id="ward-22" class="ward" d="M357.47 579.63L339.87 576.45L321.76 568.69L319.12 578.17L318.58 584.20L318.38 588.22L318.45 591.89L319.33 596.66L319.73 600.21L318.94 604.18L316.52 609.09L315.08 611.90L315.46 617.19L317.00 623.87L317.45 626.97L316.25 632.74L290.09 629.44L286.34 657.50L224.31 686.44L251.66 696.40L291.70 746.15L350.14 664.77L353.48 665.00L356.78 665.37L359.92 665.77L361.78 668.00L364.02 670.00L366.22 671.94L368.30 674.19L371.07 676.24L374.53 676.91L378.71 677.51L382.38 677.36L385.82 677.99L389.39 677.67L392.35 678.41L396.29 678.56L399.28 677.95L402.52 676.86L407.23 675.26L410.79 674.25L414.56 673.83L417.45 673.79L421.45 675.74L425.47 672.48L424.81 659.36L423.90 649.92L422.29 638.72L421.57 629.41L420.54 618.35L420.06 614.62L419.48 610.10L418.12 599.71L416.73 591.28L416.25 584.73L382.64 585.74L357.47 579.63Z" data-ward="22" /><path id="ward-15" class="ward" d="M733.26 602.61L729.44 599.24L725.08 596.58L718.67 595.68L712.56 593.13L706.32 589.85L700.88 587.32L698.66 585.38L696.24 583.18L692.73 579.98L690.63 576.90L689.05 574.40L686.81 570.32L685.96 566.41L682.91 560.04L676.31 557.06L673.12 557.77L667.46 559.11L657.32 560.88L646.67 561.66L629.40 572.11L626.81 573.68L622.24 573.97L617.34 574.49L609.54 577.23L603.64 578.25L600.10 580.04L598.62 588.91L597.41 596.11L595.84 602.92L584.57 601.99L572.23 663.73L587.76 658.48L599.56 659.88L613.20 661.49L618.30 687.41L605.36 711.73L604.99 726.08L625.17 803.62L625.10 812.70L614.96 813.64L615.71 818.06L617.37 827.85L616.61 830.90L630.10 829.45L630.59 833.81L629.41 838.83L625.00 840.02L623.44 867.40L624.81 868.91L669.24 868.70L672.72 868.78L686.34 860.84L704.03 843.64L708.17 839.62L711.33 834.25L713.73 830.18L718.89 821.42L722.30 794.52L736.58 729.16L737.22 716.60L736.11 706.85L735.37 700.37L736.03 695.11L737.66 683.06L738.46 667.34L740.10 652.14L745.43 635.90L749.07 624.81L750.19 621.38L753.36 608.51L746.83 607.62L739.95 605.23L737.30 603.77L733.26 602.61Z" data-ward="15" /><path id="ward-13" class="ward" d="M596.56 487.69L585.64 482.70L577.18 479.67L573.78 474.06L571.12 469.66L558.78 458.01L554.95 451.53L548.88 441.16L534.08 438.89L519.70 446.71L518.15 454.30L516.97 459.86L507.07 477.40L494.26 479.29L482.92 485.00L469.50 491.76L460.76 490.21L445.74 487.09L439.53 485.30L436.44 499.33L433.37 513.75L429.36 525.68L426.45 534.33L421.54 548.93L419.04 556.36L415.85 577.82L416.25 584.73L423.54 586.67L431.79 587.09L438.67 587.06L442.62 586.98L448.23 586.86L455.48 587.06L465.10 587.30L466.85 583.35L473.10 583.43L478.35 583.50L484.21 582.29L495.83 579.94L502.74 578.54L516.67 577.62L522.75 574.86L526.82 573.06L531.35 573.73L536.18 574.16L540.25 574.53L571.83 577.45L600.10 580.04L603.64 578.25L609.54 577.23L617.34 574.49L622.24 573.97L626.81 573.68L629.40 572.11L646.67 561.66L644.22 555.27L638.12 550.39L632.29 546.03L631.60 543.08L630.48 539.22L628.89 534.31L627.82 530.69L626.53 526.40L622.68 519.36L617.37 511.47L610.61 503.10L603.63 493.75L596.56 487.69Z" data-ward="13" /><path id="ward-12" class="ward" d="M760.17 552.88L761.14 549.94L763.42 543.00L769.64 532.30L778.28 524.84L784.26 517.94L791.35 508.45L798.38 499.84L800.47 487.84L800.06 478.99L793.31 474.00L790.64 472.85L787.96 471.69L779.76 468.75L764.70 461.64L760.15 451.95L757.73 447.92L756.36 445.25L752.07 437.50L749.32 420.65L728.04 416.52L714.90 414.01L712.00 404.59L700.13 408.12L697.68 419.04L698.56 428.82L693.49 439.30L674.64 440.94L605.15 457.81L581.60 466.56L571.12 469.66L573.78 474.06L577.18 479.67L585.64 482.70L596.56 487.69L603.63 493.75L610.61 503.10L617.37 511.47L622.68 519.36L626.53 526.40L627.82 530.69L628.89 534.31L630.48 539.22L631.60 543.08L632.29 546.03L638.12 550.39L644.22 555.27L646.67 561.66L657.32 560.88L667.46 559.11L673.12 557.77L676.31 557.06L682.91 560.04L685.96 566.41L686.81 570.32L689.05 574.40L690.63 576.90L692.73 579.98L696.24 583.18L698.66 585.38L700.88 587.32L706.32 589.85L712.56 593.13L718.67 595.68L725.08 596.58L729.44 599.24L733.26 602.61L737.30 603.77L739.95 605.23L746.83 607.62L753.36 608.51L754.08 605.55L757.69 584.33L759.39 569.98L759.80 566.52L760.17 552.88Z" data-ward="12" /></svg>