<svg viewBox="0 0 1000.00 1748.38" xmlns="http://www.w3.org/2000/svg"><style>.ward { fill: #e2e8f0; stroke: #fff; stroke-width: 0.5px; } .ward:hover { fill: #cbd5e1; }</style><path id="ward-13" class="ward" d="M801.63 1050.06L800.32 1047.51L798.23 1043.47L796.60 1040.35L794.87 1037.02L793.52 1034.41L790.84 1029.26L788.42 1024.69L780.49 1009.79L776.55 1002.43L770.57 991.19L768.09 986.07L765.25 980.22L763.79 976.53L761.59 968.95L759.07 960.19L756.97 951.99L755.28 946.41L750.36 947.63L743.44 949.30L739.11 950.65L734.59 950.74L728.96 951.41L717.93 953.66L708.73 955.83L705.97 956.91L702.84 957.72L699.86 958.94L693.09 960.77L685.68 963.82L684.48 966.83L681.05 969.73L677.14 970.96L673.17 972.20L670.44 973.25L667.45 974.53L663.79 976.35L660.97 978.04L594.90 1017.65L579.05 1027.11L479.85 1086.38L485.49 1090.50L488.20 1092.53L491.43 1094.92L495.54 1097.96L516.86 1115.12L518.65 1118.50L520.14 1121.34L522.88 1126.54L525.45 1131.41L527.64 1135.54L529.42 1138.93L544.69 1168.08L559.39 1197.30L566.47 1211.80L570.13 1219.25L588.68 1206.98L592.67 1204.37L624.47 1183.81L638.02 1174.14L640.34 1172.48L651.45 1162.77L659.05 1156.12L666.86 1149.15L670.53 1145.89L678.98 1138.43L684.94 1133.18L693.20 1125.88L699.63 1120.21L702.04 1118.08L717.30 1106.51L719.89 1104.74L722.19 1102.97L724.49 1101.20L727.78 1099.71L730.01 1097.09L727.91 1092.70L731.14 1090.62L733.91 1089.03L735.35 1086.34L733.70 1082.48L731.56 1077.97L728.80 1074.32L726.08 1071.62L724.10 1069.41L722.70 1064.30L722.02 1061.36L724.75 1060.41L730.05 1058.44L733.36 1057.68L736.43 1057.19L742.02 1055.45L745.14 1054.15L748.58 1053.17L750.44 1056.47L753.52 1062.33L756.93 1061.70L761.68 1060.14L764.51 1059.38L767.44 1058.58L771.14 1057.56L774.89 1056.52L777.93 1059.90L785.04 1058.42L788.45 1057.70L792.04 1056.89L796.58 1056.04L803.68 1054.04L801.63 1050.06Z" data-ward="13" /><path id="ward-20" class="ward" d="M446.88 289.22L443.99 289.51L438.71 290.04L435.43 290.92L432.53 291.26L428.77 291.08L423.73 291.46L419.27 292.18L414.69 293.18L410.11 293.62L406.90 293.71L400.63 293.59L396.68 294.73L397.48 299.15L398.86 302.42L400.78 305.58L403.85 310.21L403.90 314.79L404.01 321.12L402.57 325.07L398.74 326.56L395.52 327.67L392.06 328.48L386.06 329.78L383.05 331.22L378.49 332.90L373.19 334.52L369.66 338.80L371.53 343.69L372.59 348.53L373.31 352.30L374.66 356.27L377.19 357.65L380.42 358.03L381.55 360.90L384.42 369.50L387.75 368.58L393.78 366.48L394.30 370.96L395.15 376.32L394.77 382.04L389.78 382.74L384.41 384.48L379.73 386.00L376.52 386.84L371.12 388.61L367.03 390.37L363.70 391.83L361.00 393.02L357.00 394.77L349.00 398.30L344.69 400.20L340.26 402.15L335.33 404.32L332.42 405.61L327.50 407.77L322.49 409.98L319.71 411.20L314.46 413.51L179.69 472.89L183.11 479.05L186.06 484.27L188.22 488.10L190.35 491.89L194.45 499.15L201.91 512.38L203.64 515.45L343.27 481.55L399.44 467.90L417.64 463.47L421.92 462.18L428.43 460.22L433.62 456.55L438.66 454.85L448.80 450.96L452.06 449.58L456.77 451.91L459.95 453.58L461.55 456.59L465.02 455.69L468.80 452.74L471.44 451.07L476.19 450.12L481.71 448.64L480.49 442.82L479.41 436.40L479.16 432.19L478.85 427.78L478.55 424.71L477.90 419.67L477.28 414.48L476.54 409.71L475.80 405.82L474.88 401.08L474.06 397.34L474.05 394.15L474.75 389.73L474.49 385.27L474.10 380.99L473.69 377.88L472.25 374.14L469.26 374.80L461.98 373.75L461.43 369.58L460.76 364.02L460.31 361.04L457.60 355.25L455.53 350.23L454.80 344.05L454.40 338.59L453.42 334.63L452.69 331.05L452.05 327.66L452.18 324.44L452.11 317.75L452.08 314.85L451.80 311.80L451.57 308.85L451.26 305.15L450.94 301.45L449.92 294.30L446.88 289.22Z" data-ward="20" /><path id="ward-11" class="ward" d="M819.42 1411.38L835.86 1409.35L839.38 1406.97L839.66 1403.90L837.91 1400.96L834.87 1397.16L832.98 1394.80L829.62 1392.91L828.03 1389.53L828.79 1385.67L832.17 1383.63L848.52 1378.67L847.99 1374.79L862.05 1371.67L867.09 1370.56L870.17 1369.44L873.27 1368.31L877.16 1366.85L880.14 1365.74L883.94 1364.38L883.02 1361.53L874.81 1335.63L869.83 1320.57L865.02 1306.44L861.89 1296.07L857.32 1280.93L855.94 1276.33L853.69 1268.82L850.96 1257.68L850.59 1254.76L848.84 1240.38L847.44 1228.85L844.14 1209.50L835.45 1214.95L837.08 1219.46L838.59 1223.64L839.38 1230.31L840.11 1236.18L840.55 1239.12L829.59 1240.31L826.36 1240.79L822.97 1243.65L819.76 1245.22L816.10 1246.12L804.56 1247.34L785.68 1249.34L764.24 1252.26L742.06 1257.01L716.32 1266.65L665.12 1285.81L615.90 1304.24L623.10 1317.42L625.97 1323.35L630.60 1331.93L631.95 1344.11L632.61 1349.27L632.51 1369.78L630.69 1400.18L623.95 1435.49L733.40 1419.05L760.61 1415.25L784.93 1412.86L804.47 1413.09L819.42 1411.38Z" data-ward="11" /><path id="ward-21" class="ward" d="M458.77 179.31L450.43 181.70L441.30 183.45L442.63 189.61L443.72 201.36L446.74 211.74L449.43 220.97L450.88 228.65L452.44 236.98L453.44 242.31L453.99 245.27L455.15 251.47L456.22 257.15L457.21 262.45L458.36 268.58L459.26 272.18L460.97 278.98L462.20 283.85L463.49 289.11L459.81 290.70L452.72 293.10L449.92 294.30L450.94 301.45L451.26 305.15L451.57 308.85L451.80 311.80L452.08 314.85L452.11 317.75L452.18 324.44L452.05 327.66L452.69 331.05L453.42 334.63L454.40 338.59L454.80 344.05L455.53 350.23L457.60 355.25L460.31 361.04L460.76 364.02L461.43 369.58L461.98 373.75L469.26 374.80L472.25 374.14L476.04 372.48L485.27 368.26L488.98 366.91L492.69 365.56L496.59 364.27L502.41 361.64L510.51 359.61L513.11 362.39L518.06 361.89L523.65 360.77L526.38 359.74L531.78 357.22L537.03 357.74L538.86 362.87L542.29 362.82L545.11 361.90L548.46 360.80L552.40 359.50L551.09 356.84L549.39 353.28L547.31 349.42L545.41 345.88L542.93 341.12L541.44 337.95L539.74 334.47L538.30 331.36L536.30 327.14L535.06 324.48L533.83 321.82L531.80 317.53L530.20 314.18L528.64 310.59L527.18 307.61L525.68 304.10L524.19 300.59L522.73 296.20L520.45 290.83L518.18 286.03L515.79 281.04L513.61 276.32L512.36 273.69L511.11 271.05L507.69 263.97L504.99 258.44L503.61 255.52L502.24 252.60L500.74 249.62L499.46 246.90L497.25 242.86L495.14 238.97L492.45 234.54L490.37 230.68L488.21 224.15L487.30 219.76L486.74 216.89L485.91 212.38L485.66 207.88L483.56 198.67L482.34 193.94L478.20 180.52L474.24 181.79L469.09 182.97L465.11 183.84L460.59 184.80L458.77 179.31Z" data-ward="21" /><path id="ward-22" class="ward" d="M419.32 221.37L418.39 218.19L417.31 214.46L416.15 210.43L415.43 207.62L414.34 203.34L413.48 200.53L412.55 197.44L411.41 194.30L409.30 191.13L407.55 188.69L406.50 185.71L405.34 182.36L403.79 177.66L403.38 174.67L401.89 169.15L401.23 163.30L400.80 159.35L400.19 154.38L399.78 151.15L398.22 147.05L396.41 142.41L393.90 135.95L392.59 131.94L391.38 128.22L390.16 124.51L388.55 120.57L386.92 116.59L385.49 113.32L383.96 108.18L380.66 109.21L374.36 111.91L375.34 118.22L370.95 118.81L366.58 119.12L359.56 119.62L356.00 120.09L348.71 121.07L337.59 125.07L338.54 128.71L339.33 131.92L340.30 136.19L341.08 139.42L343.08 147.03L345.05 149.25L349.14 150.27L350.06 153.53L351.54 158.19L352.40 161.33L355.15 168.02L345.82 171.69L344.66 175.48L346.51 178.63L348.84 182.42L349.72 185.54L354.42 195.36L357.63 200.10L358.93 203.86L360.92 209.18L362.10 215.76L363.11 219.95L364.11 223.93L366.03 227.42L367.65 233.53L368.11 239.97L370.99 248.79L372.27 252.21L373.26 254.93L374.72 257.54L376.16 263.22L375.83 266.93L373.27 269.17L371.32 271.26L370.40 275.15L370.51 278.27L370.22 281.32L371.18 285.32L372.31 288.26L376.26 294.49L378.86 296.76L380.36 301.15L384.52 299.73L387.58 298.53L392.27 293.49L396.68 294.73L400.63 293.59L406.90 293.71L410.11 293.62L414.69 293.18L419.27 292.18L423.73 291.46L428.77 291.08L432.53 291.26L435.43 290.92L438.71 290.04L443.99 289.51L446.88 289.22L449.92 294.30L452.72 293.10L459.81 290.70L463.49 289.11L462.20 283.85L460.97 278.98L459.26 272.18L458.36 268.58L457.21 262.45L456.22 257.15L455.15 251.47L453.99 245.27L453.44 242.31L452.44 236.98L450.88 228.65L449.43 220.97L445.08 218.51L441.77 219.56L436.49 221.24L432.58 222.35L429.15 223.33L425.60 224.36L421.45 225.94L419.32 221.37Z" data-ward="22" /><path id="ward-6" class="ward" d="M562.92 202.31L558.81 201.71L554.74 202.00L551.17 202.25L546.16 202.71L543.26 203.04L540.33 203.36L537.26 203.61L531.49 204.46L526.59 205.58L521.89 206.69L516.72 208.16L513.46 208.67L507.86 209.18L501.40 209.22L498.12 208.88L495.05 208.39L490.53 207.56L485.66 207.88L485.91 212.38L486.74 216.89L487.30 219.76L488.21 224.15L490.37 230.68L492.45 234.54L495.14 238.97L497.25 242.86L499.46 246.90L500.74 249.62L502.24 252.60L503.61 255.52L504.99 258.44L507.69 263.97L511.11 271.05L512.36 273.69L513.61 276.32L515.79 281.04L518.18 286.03L520.45 290.83L522.73 296.20L524.19 300.59L525.68 304.10L527.18 307.61L528.64 310.59L530.20 314.18L531.80 317.53L533.83 321.82L535.06 324.48L536.30 327.14L538.30 331.36L539.74 334.47L541.44 337.95L542.93 341.12L545.41 345.88L547.31 349.42L549.39 353.28L551.09 356.84L552.40 359.50L555.11 363.54L557.95 368.99L559.60 374.09L560.93 378.21L562.26 383.30L563.13 387.10L563.63 390.51L564.58 395.90L567.83 395.41L570.83 394.95L573.76 394.50L576.91 394.02L579.70 394.86L582.58 396.93L586.37 396.03L591.94 394.76L595.27 394.48L600.11 394.11L603.81 393.73L609.84 392.27L614.00 391.15L618.87 389.84L621.78 389.52L625.82 389.11L629.34 389.61L632.84 390.20L637.24 390.10L640.74 390.01L646.18 389.81L649.44 389.48L653.57 388.66L656.75 388.01L660.42 387.22L663.97 386.46L667.54 385.69L670.89 384.96L673.98 384.30L677.76 383.47L682.74 382.25L686.03 381.45L689.92 380.50L693.19 379.69L692.13 375.63L691.77 368.74L691.45 362.55L690.59 359.18L688.25 356.16L683.48 352.35L681.17 350.63L677.46 347.94L673.60 345.15L669.99 340.03L666.17 334.56L662.22 328.88L657.37 328.58L645.79 328.64L638.77 324.90L631.98 318.63L627.23 312.60L625.81 306.91L624.68 301.83L623.81 296.92L623.21 293.55L622.40 289.21L620.30 284.86L617.97 280.27L614.26 275.56L610.87 271.40L607.85 269.41L604.19 266.98L600.43 264.25L597.21 261.90L592.73 258.65L588.18 255.38L585.13 253.19L582.69 250.65L579.55 247.00L575.73 240.67L573.33 236.71L570.67 231.97L568.40 227.78L566.57 224.20L565.75 220.80L563.85 212.03L562.92 202.31Z" data-ward="6" /><path id="ward-16" class="ward" d="M658.99 684.86L657.07 681.17L655.26 676.89L653.62 672.64L651.47 667.14L647.89 667.73L641.34 668.82L635.78 669.93L632.30 670.63L622.23 672.55L615.88 673.79L608.19 675.28L601.92 676.33L589.68 678.67L589.04 682.16L585.88 683.33L579.99 685.52L575.60 687.18L571.49 686.33L568.20 686.16L563.28 687.19L558.25 687.47L554.46 689.48L551.14 690.51L547.74 690.96L544.30 691.41L541.47 691.90L537.18 692.92L533.35 693.82L518.80 697.46L514.80 698.00L490.34 701.28L459.97 705.35L341.40 721.25L262.57 731.82L267.13 746.72L269.10 753.14L271.83 762.07L273.55 767.76L278.82 785.17L281.87 795.25L283.32 800.79L284.56 805.51L288.33 819.92L290.02 826.70L292.15 834.98L293.21 839.12L294.12 842.65L298.33 859.54L498.74 796.16L543.74 781.94L549.81 779.43L553.69 777.13L556.98 775.77L562.22 773.09L568.34 769.96L572.29 768.74L575.45 773.32L579.59 772.57L582.53 772.68L587.43 771.97L591.89 771.22L596.33 772.62L596.85 776.34L598.86 778.49L605.67 777.98L609.98 776.44L613.56 775.60L613.42 772.66L612.90 767.76L612.33 763.76L613.53 760.51L614.18 756.50L616.18 750.00L616.36 744.32L619.68 741.52L625.98 741.19L632.00 739.86L641.59 736.79L641.29 731.75L643.48 729.52L647.81 730.28L655.02 729.80L663.57 730.01L670.74 729.38L678.87 727.43L683.33 726.34L682.28 721.10L680.75 713.82L679.65 711.02L676.82 705.48L674.66 703.28L670.31 699.76L666.06 695.66L663.55 692.78L660.67 688.02L658.99 684.86Z" data-ward="16" /><path id="ward-2" class="ward" d="M394.88 48.87L391.40 47.35L386.61 45.30L383.92 44.15L377.48 46.35L373.89 47.86L370.53 48.02L365.09 48.27L364.70 51.51L366.19 54.76L367.79 58.06L369.17 61.03L370.47 64.35L372.10 68.93L373.88 72.25L374.69 75.28L377.44 82.68L378.88 88.55L376.23 92.38L376.71 96.13L379.29 100.43L381.48 102.83L382.91 105.37L383.96 108.18L385.49 113.32L386.92 116.59L388.55 120.57L390.16 124.51L391.38 128.22L392.59 131.94L393.90 135.95L396.41 142.41L398.22 147.05L399.78 151.15L400.19 154.38L400.80 159.35L401.23 163.30L401.89 169.15L403.38 174.67L403.79 177.66L405.34 182.36L406.50 185.71L407.55 188.69L409.30 191.13L411.41 194.30L412.55 197.44L413.48 200.53L414.34 203.34L415.43 207.62L416.15 210.43L417.31 214.46L418.39 218.19L419.32 221.37L421.45 225.94L425.60 224.36L429.15 223.33L432.58 222.35L436.49 221.24L441.77 219.56L445.08 218.51L449.43 220.97L446.74 211.74L443.72 201.36L442.63 189.61L441.30 183.45L450.43 181.70L458.77 179.31L460.59 184.80L465.11 183.84L469.09 182.97L474.24 181.79L478.20 180.52L471.13 160.45L469.77 156.04L468.90 153.28L467.87 149.96L466.90 146.85L465.75 143.14L463.98 137.45L460.13 125.07L458.69 120.44L456.65 113.86L455.09 108.79L454.53 105.01L453.75 99.02L452.97 94.27L451.68 87.59L450.91 82.89L449.48 75.45L447.78 70.81L446.67 67.65L445.43 64.67L444.18 61.69L442.31 58.42L440.44 55.15L438.07 51.24L433.99 52.95L428.86 54.61L426.41 52.25L421.92 47.93L419.54 45.65L414.61 46.81L408.72 48.20L405.40 48.98L402.50 49.67L394.88 48.87Z" data-ward="2" /><path id="ward-9" class="ward" d="M902.63 1169.50L899.74 1169.13L896.71 1168.76L894.60 1163.89L893.22 1159.26L889.48 1158.89L885.68 1159.65L880.38 1160.38L872.37 1161.40L868.88 1162.33L864.03 1163.52L855.79 1164.14L852.13 1164.49L848.48 1164.83L843.66 1165.57L840.23 1166.10L836.35 1166.66L836.84 1169.51L837.48 1173.27L838.63 1180.09L839.57 1185.93L840.89 1193.99L841.47 1196.79L842.11 1199.84L842.72 1202.76L843.38 1205.87L844.14 1209.50L847.44 1228.85L848.84 1240.38L850.59 1254.76L850.96 1257.68L853.69 1268.82L855.94 1276.33L857.32 1280.93L861.89 1296.07L865.02 1306.44L869.83 1320.57L874.81 1335.63L883.02 1361.53L883.94 1364.38L885.12 1368.12L887.59 1375.94L889.49 1381.98L891.10 1387.11L892.49 1391.59L893.92 1396.23L897.25 1407.34L898.66 1412.67L900.26 1418.22L902.60 1426.31L904.94 1434.39L907.48 1442.38L909.17 1447.69L910.56 1452.06L912.29 1457.50L913.24 1460.62L914.09 1463.73L915.13 1467.25L916.53 1472.03L917.35 1474.89L918.50 1479.63L920.71 1486.37L921.70 1489.31L923.15 1493.89L925.02 1499.78L926.00 1503.07L926.90 1505.79L928.40 1510.32L930.54 1517.90L930.98 1523.08L931.21 1527.02L931.50 1532.67L931.86 1537.52L932.08 1540.46L932.65 1546.05L934.31 1552.41L935.85 1557.26L936.99 1560.59L938.32 1566.98L939.44 1572.07L940.21 1577.91L940.96 1584.26L957.77 1584.96L966.96 1586.22L972.55 1592.06L975.90 1594.11L985.32 1586.42L992.01 1581.56L994.78 1573.06L994.80 1567.40L990.03 1555.18L986.15 1543.08L986.07 1529.34L990.60 1512.65L993.50 1506.11L997.31 1498.83L999.51 1493.02L1000.00 1484.88L999.95 1480.29L995.79 1472.77L982.37 1460.35L971.24 1454.62L966.55 1451.41L954.36 1443.11L953.17 1436.94L948.77 1432.26L940.44 1433.32L938.96 1429.04L937.48 1424.75L935.99 1420.47L934.44 1411.68L932.88 1402.89L932.44 1399.56L931.02 1388.88L925.46 1367.64L915.72 1349.75L910.15 1335.66L910.19 1326.69L912.50 1307.41L909.28 1283.57L906.04 1274.15L899.03 1262.91L894.92 1256.31L887.33 1245.77L884.42 1241.73L879.16 1233.77L877.03 1226.19L875.48 1220.65L875.75 1216.76L875.96 1213.66L876.38 1207.55L877.28 1202.15L877.81 1198.93L881.32 1193.72L883.64 1190.26L888.05 1187.43L892.14 1184.79L901.00 1182.03L906.64 1180.28L911.60 1178.73L927.32 1170.75L934.79 1164.51L938.31 1160.44L933.92 1160.55L931.04 1161.15L927.60 1161.28L924.38 1159.52L920.90 1159.93L916.85 1163.07L916.32 1166.60L913.65 1168.17L910.65 1169.18L907.45 1169.66L902.63 1169.50Z" data-ward="9" /><path id="ward-12" class="ward" d="M750.44 1056.47L748.58 1053.17L745.14 1054.15L742.02 1055.45L736.43 1057.19L733.36 1057.68L730.05 1058.44L724.75 1060.41L722.02 1061.36L722.70 1064.30L724.10 1069.41L726.08 1071.62L728.80 1074.32L731.56 1077.97L733.70 1082.48L735.35 1086.34L733.91 1089.03L731.14 1090.62L727.91 1092.70L730.01 1097.09L727.78 1099.71L724.49 1101.20L722.19 1102.97L719.89 1104.74L717.30 1106.51L702.04 1118.08L699.63 1120.21L693.20 1125.88L684.94 1133.18L678.98 1138.43L670.53 1145.89L666.86 1149.15L659.05 1156.12L651.45 1162.77L640.34 1172.48L638.02 1174.14L624.47 1183.81L592.67 1204.37L588.68 1206.98L570.13 1219.25L583.94 1247.72L593.17 1264.85L615.90 1304.24L665.12 1285.81L716.32 1266.65L742.06 1257.01L764.24 1252.26L785.68 1249.34L804.56 1247.34L816.10 1246.12L819.76 1245.22L822.97 1243.65L826.36 1240.79L829.59 1240.31L840.55 1239.12L840.11 1236.18L839.38 1230.31L838.59 1223.64L837.08 1219.46L835.45 1214.95L844.14 1209.50L843.38 1205.87L842.72 1202.76L842.11 1199.84L841.47 1196.79L840.89 1193.99L839.57 1185.93L838.63 1180.09L837.48 1173.27L836.84 1169.51L836.35 1166.66L835.51 1161.89L834.90 1158.25L834.38 1155.22L833.55 1150.29L832.73 1145.48L832.32 1142.61L830.95 1133.16L830.32 1129.40L829.70 1125.65L828.11 1116.50L827.14 1111.46L826.53 1108.62L825.92 1105.75L825.25 1102.64L824.35 1098.85L823.65 1095.89L822.20 1090.71L821.20 1087.63L819.54 1083.68L817.51 1080.12L815.69 1076.93L813.50 1073.10L809.27 1064.90L806.95 1060.39L805.52 1057.62L803.68 1054.04L796.58 1056.04L792.04 1056.89L788.45 1057.70L785.04 1058.42L777.93 1059.90L774.89 1056.52L771.14 1057.56L767.44 1058.58L764.51 1059.38L761.68 1060.14L756.93 1061.70L753.52 1062.33L750.44 1056.47Z" data-ward="12" /><path id="ward-23" class="ward" d="M346.51 178.63L344.66 175.48L345.82 171.69L339.85 171.67L334.54 172.30L329.59 173.06L326.47 174.60L322.68 177.19L318.85 178.78L313.61 180.81L312.20 177.33L307.19 178.32L302.12 179.30L300.85 175.96L284.49 178.15L242.91 186.40L207.47 222.49L177.28 253.24L158.53 272.33L142.95 288.20L122.80 308.72L102.42 329.48L81.93 350.35L74.58 359.45L76.93 362.87L82.73 371.30L84.69 374.14L86.54 376.82L88.66 379.91L91.57 382.02L93.97 383.76L96.62 385.69L100.38 388.42L104.24 391.23L106.87 393.13L109.84 395.29L112.34 397.11L116.02 399.78L119.45 402.27L124.88 406.21L128.22 408.64L130.67 410.42L133.43 412.42L136.15 414.39L140.52 419.56L148.83 429.38L153.36 434.74L156.16 438.05L159.86 442.41L165.26 450.71L167.91 454.79L170.70 459.08L173.39 463.21L176.17 467.47L179.69 472.89L314.46 413.51L319.71 411.20L322.49 409.98L327.50 407.77L332.42 405.61L335.33 404.32L340.26 402.15L344.69 400.20L349.00 398.30L357.00 394.77L361.00 393.02L363.70 391.83L367.03 390.37L371.12 388.61L376.52 386.84L379.73 386.00L384.41 384.48L389.78 382.74L394.77 382.04L395.15 376.32L394.30 370.96L393.78 366.48L387.75 368.58L384.42 369.50L381.55 360.90L380.42 358.03L377.19 357.65L374.66 356.27L373.31 352.30L372.59 348.53L371.53 343.69L369.66 338.80L373.19 334.52L378.49 332.90L383.05 331.22L386.06 329.78L392.06 328.48L395.52 327.67L398.74 326.56L402.57 325.07L404.01 321.12L403.90 314.79L403.85 310.21L400.78 305.58L398.86 302.42L397.48 299.15L396.68 294.73L392.27 293.49L387.58 298.53L384.52 299.73L380.36 301.15L378.86 296.76L376.26 294.49L372.31 288.26L371.18 285.32L370.22 281.32L370.51 278.27L370.40 275.15L371.32 271.26L373.27 269.17L375.83 266.93L376.16 263.22L374.72 257.54L373.26 254.93L372.27 252.21L370.99 248.79L368.11 239.97L367.65 233.53L366.03 227.42L364.11 223.93L363.11 219.95L362.10 215.76L360.92 209.18L358.93 203.86L357.63 200.10L354.42 195.36L349.72 185.54L348.84 182.42L346.51 178.63Z" data-ward="23" /><path id="ward-3" class="ward" d="M645.46 6.24L640.23 6.76L633.67 8.89L626.26 11.29L620.12 13.09L614.97 14.60L611.73 15.55L606.55 15.58L599.55 15.62L595.31 15.40L591.07 15.18L585.98 15.37L582.58 15.20L578.32 15.03L574.88 14.89L571.27 14.79L567.65 14.70L562.05 14.55L557.60 14.45L554.51 14.38L551.54 14.06L546.70 13.54L543.41 13.29L544.96 18.13L542.77 20.53L543.26 26.03L544.13 35.53L546.06 38.90L547.38 42.44L548.69 45.97L549.60 48.77L548.18 51.44L539.52 54.00L529.15 54.00L523.15 52.45L518.09 49.97L509.65 33.93L508.07 25.48L496.97 33.84L484.00 39.06L471.16 43.85L468.40 44.88L462.61 46.02L455.91 47.33L449.24 48.63L445.97 49.51L442.74 50.37L438.07 51.24L440.44 55.15L442.31 58.42L444.18 61.69L445.43 64.67L446.67 67.65L447.78 70.81L449.48 75.45L450.91 82.89L451.68 87.59L452.97 94.27L453.75 99.02L454.53 105.01L455.09 108.79L456.65 113.86L458.69 120.44L460.13 125.07L463.98 137.45L465.75 143.14L466.90 146.85L467.87 149.96L468.90 153.28L469.77 156.04L471.13 160.45L478.20 180.52L482.34 193.94L483.56 198.67L485.66 207.88L490.53 207.56L495.05 208.39L498.12 208.88L501.40 209.22L507.86 209.18L513.46 208.67L516.72 208.16L521.89 206.69L526.59 205.58L531.49 204.46L537.26 203.61L540.33 203.36L543.26 203.04L546.16 202.71L551.17 202.25L554.74 202.00L558.81 201.71L562.92 202.31L565.63 201.38L568.61 201.30L573.59 201.05L576.74 200.66L580.97 200.36L586.86 200.16L592.48 200.02L600.71 200.17L611.67 200.02L618.41 200.04L624.73 200.07L627.78 200.08L630.81 200.00L637.79 199.83L641.23 199.91L644.66 199.99L649.89 200.19L653.16 199.45L654.02 194.80L655.12 191.24L660.41 190.09L664.44 189.90L667.29 189.53L675.13 188.49L682.16 187.38L685.56 186.75L691.78 185.47L694.54 182.43L698.53 179.13L704.50 179.17L712.63 179.75L716.30 178.48L717.83 169.09L717.85 165.93L716.02 158.81L714.38 152.08L713.38 148.82L711.78 143.61L710.48 139.34L710.30 132.07L710.06 126.00L709.42 120.05L708.75 115.17L707.27 110.75L705.70 107.86L703.03 105.44L701.19 102.68L699.35 99.92L698.42 96.75L697.62 90.18L696.68 85.36L695.17 80.53L693.28 74.65L691.90 70.41L690.72 67.40L689.88 64.48L689.04 60.97L688.65 54.66L689.15 51.84L689.65 49.01L690.86 43.11L691.80 38.16L692.20 33.57L692.55 28.78L692.62 24.79L691.45 17.90L690.32 14.19L689.73 10.34L689.27 7.30L684.14 8.27L678.56 9.34L673.51 10.30L667.30 10.66L662.09 10.55L658.32 8.93L652.50 6.43L648.46 6.60L645.46 6.24Z" data-ward="3" /><path id="ward-18" class="ward" d="M483.05 454.56L481.71 448.64L476.19 450.12L471.44 451.07L468.80 452.74L465.02 455.69L461.55 456.59L459.95 453.58L456.77 451.91L452.06 449.58L448.80 450.96L438.66 454.85L433.62 456.55L428.43 460.22L421.92 462.18L417.64 463.47L399.44 467.90L343.27 481.55L203.64 515.45L206.67 521.20L206.63 526.72L211.92 533.97L213.21 536.43L214.51 538.95L214.93 543.12L216.27 545.77L218.74 550.66L224.98 563.00L227.99 568.96L229.05 579.41L229.67 585.58L230.81 596.78L233.50 623.37L234.69 635.14L235.70 638.96L327.42 619.59L338.75 617.00L347.48 615.00L357.16 612.78L367.15 610.50L376.05 608.46L385.79 606.23L395.38 604.03L404.44 601.96L411.11 600.44L419.43 598.53L427.93 596.59L434.95 594.98L444.35 592.83L452.64 590.93L465.76 587.93L472.11 586.81L476.47 585.73L481.70 584.82L485.25 584.20L493.87 582.74L500.28 581.66L505.66 580.86L511.03 580.07L514.30 581.41L517.51 580.67L523.61 579.24L530.28 577.68L528.63 571.94L533.40 571.03L536.60 570.42L539.89 571.61L544.33 573.22L546.39 575.76L550.13 580.36L552.30 583.19L554.57 587.04L558.72 586.36L560.80 584.26L563.81 582.42L566.80 580.59L573.74 576.33L578.61 573.16L581.21 571.46L585.03 567.92L588.29 566.00L592.88 563.31L598.32 561.86L603.95 560.37L608.96 558.73L606.00 551.44L603.41 545.37L602.32 542.71L600.65 538.64L599.48 535.74L597.19 530.13L595.11 525.09L592.92 519.76L588.86 521.49L584.27 523.45L579.32 521.21L574.17 521.93L568.18 522.41L564.29 523.02L558.21 523.59L551.70 524.61L548.30 525.02L542.47 526.85L539.54 527.36L536.08 528.31L535.05 531.18L534.20 534.79L533.58 540.46L529.55 541.92L523.71 542.67L518.49 543.85L513.69 544.65L509.78 545.36L508.83 542.23L507.25 535.33L507.44 530.18L507.50 523.47L506.29 518.76L505.69 514.63L505.75 511.74L506.83 507.02L507.59 502.77L506.18 496.84L502.52 495.53L496.87 496.01L493.12 493.38L491.68 489.46L490.24 481.22L488.29 472.97L485.34 465.68L484.37 461.96L483.05 454.56Z" data-ward="18" /><path id="ward-15" class="ward" d="M684.03 729.41L683.33 726.34L678.87 727.43L670.74 729.38L663.57 730.01L655.02 729.80L647.81 730.28L643.48 729.52L641.29 731.75L641.59 736.79L632.00 739.86L625.98 741.19L619.68 741.52L616.36 744.32L616.18 750.00L614.18 756.50L613.53 760.51L612.33 763.76L612.90 767.76L613.42 772.66L613.56 775.60L609.98 776.44L605.67 777.98L598.86 778.49L596.85 776.34L596.33 772.62L591.89 771.22L587.43 771.97L582.53 772.68L579.59 772.57L575.45 773.32L572.29 768.74L568.34 769.96L562.22 773.09L556.98 775.77L553.69 777.13L549.81 779.43L543.74 781.94L498.74 796.16L298.33 859.54L299.44 863.94L300.17 866.82L301.10 870.50L301.95 873.90L307.87 897.34L311.09 910.13L312.83 917.00L313.89 921.22L317.04 923.87L332.92 931.96L347.65 939.44L357.06 942.25L363.62 940.05L378.65 935.01L392.62 930.33L405.55 926.00L421.07 920.79L438.87 914.83L456.08 909.06L473.66 903.16L491.86 897.06L593.11 863.11L596.84 861.11L602.21 858.22L606.26 856.04L610.24 853.90L616.71 850.42L621.11 850.93L625.47 850.58L630.54 849.19L636.20 847.68L640.74 847.39L646.36 847.26L655.21 844.95L658.30 843.85L668.02 841.72L673.58 840.53L677.60 839.64L681.99 838.53L685.03 837.75L688.75 836.79L693.19 835.70L697.18 834.69L700.43 833.87L703.95 833.02L711.85 831.13L714.79 830.41L713.28 826.43L712.16 823.43L710.77 819.83L709.02 815.16L707.68 811.58L706.35 808.23L702.43 798.00L699.06 789.18L697.90 785.58L696.29 780.57L694.87 775.37L692.99 768.43L691.42 761.01L690.23 756.56L689.32 753.33L688.25 748.43L687.18 743.52L686.02 737.97L685.17 734.29L684.03 729.41Z" data-ward="15" /><path id="ward-10" class="ward" d="M898.66 1412.67L897.25 1407.34L893.92 1396.23L892.49 1391.59L891.10 1387.11L889.49 1381.98L887.59 1375.94L885.12 1368.12L883.94 1364.38L880.14 1365.74L877.16 1366.85L873.27 1368.31L870.17 1369.44L867.09 1370.56L862.05 1371.67L847.99 1374.79L848.52 1378.67L832.17 1383.63L828.79 1385.67L828.03 1389.53L829.62 1392.91L832.98 1394.80L834.87 1397.16L837.91 1400.96L839.66 1403.90L839.38 1406.97L835.86 1409.35L819.42 1411.38L804.47 1413.09L784.93 1412.86L760.61 1415.25L733.40 1419.05L623.95 1435.49L619.57 1455.81L613.61 1478.66L609.94 1494.91L609.93 1515.38L612.69 1549.16L613.74 1560.52L621.13 1604.06L635.68 1650.95L660.06 1718.15L674.64 1748.38L682.22 1739.37L710.00 1723.60L730.53 1701.42L751.82 1673.99L767.29 1661.35L780.45 1640.26L789.81 1627.19L796.37 1620.24L799.15 1617.22L817.69 1609.41L822.40 1607.46L826.91 1605.54L829.81 1604.33L842.59 1600.49L866.85 1593.22L898.38 1588.13L908.99 1587.55L916.28 1586.47L924.54 1585.02L932.49 1583.82L940.96 1584.26L940.21 1577.91L939.44 1572.07L938.32 1566.98L936.99 1560.59L935.85 1557.26L934.31 1552.41L932.65 1546.05L932.08 1540.46L931.86 1537.52L931.50 1532.67L931.21 1527.02L930.98 1523.08L930.54 1517.90L928.40 1510.32L926.90 1505.79L926.00 1503.07L925.02 1499.78L923.15 1493.89L921.70 1489.31L920.71 1486.37L918.50 1479.63L917.35 1474.89L916.53 1472.03L915.13 1467.25L914.09 1463.73L913.24 1460.62L912.29 1457.50L910.56 1452.06L909.17 1447.69L907.48 1442.38L904.94 1434.39L902.60 1426.31L900.26 1418.22L898.66 1412.67Z" data-ward="10" /><path id="ward-5" class="ward" d="M787.41 152.90L782.28 152.81L777.01 152.60L773.51 152.33L769.81 154.57L766.73 154.45L762.90 154.15L759.61 158.98L755.98 162.07L754.74 165.72L753.20 168.44L746.08 168.63L741.60 167.83L737.69 168.01L733.55 167.98L727.67 166.18L724.38 164.91L721.12 165.42L717.85 165.93L717.83 169.09L716.30 178.48L712.63 179.75L704.50 179.17L698.53 179.13L694.54 182.43L691.78 185.47L685.56 186.75L682.16 187.38L675.13 188.49L667.29 189.53L664.44 189.90L660.41 190.09L655.12 191.24L654.02 194.80L653.16 199.45L649.89 200.19L644.66 199.99L641.23 199.91L637.79 199.83L630.81 200.00L627.78 200.08L624.73 200.07L618.41 200.04L611.67 200.02L600.71 200.17L592.48 200.02L586.86 200.16L580.97 200.36L576.74 200.66L573.59 201.05L568.61 201.30L565.63 201.38L562.92 202.31L563.85 212.03L565.75 220.80L566.57 224.20L568.40 227.78L570.67 231.97L573.33 236.71L575.73 240.67L579.55 247.00L582.69 250.65L585.13 253.19L588.18 255.38L592.73 258.65L597.21 261.90L600.43 264.25L604.19 266.98L607.85 269.41L610.87 271.40L614.26 275.56L617.97 280.27L620.30 284.86L622.40 289.21L623.21 293.55L623.81 296.92L624.68 301.83L625.81 306.91L627.23 312.60L631.98 318.63L638.77 324.90L645.79 328.64L657.37 328.58L662.22 328.88L666.17 334.56L669.99 340.03L673.60 345.15L677.46 347.94L681.17 350.63L683.48 352.35L688.25 356.16L690.59 359.18L691.45 362.55L691.77 368.74L692.13 375.63L693.19 379.69L694.07 382.53L695.20 391.72L695.80 394.87L696.36 397.79L697.88 404.54L698.96 408.29L700.12 412.26L702.01 418.54L702.98 421.77L705.00 423.89L708.65 424.85L712.69 425.91L716.35 426.87L719.53 428.70L718.65 421.15L719.71 414.33L720.90 406.68L721.60 400.71L724.48 399.71L726.77 403.56L736.75 399.62L744.15 396.70L746.20 390.80L748.51 387.92L752.86 382.51L758.55 377.86L764.87 372.69L767.73 371.36L774.10 375.09L779.12 374.43L785.14 368.03L788.36 368.49L791.71 366.93L794.59 361.80L799.95 353.25L803.48 347.62L805.85 343.84L806.19 339.00L805.98 333.29L804.71 329.08L823.88 322.82L828.97 312.62L832.75 305.05L833.97 301.82L835.24 298.45L836.37 295.46L837.50 292.48L839.25 288.65L841.04 284.71L842.66 281.16L844.02 278.18L847.15 271.31L849.48 266.13L854.33 262.34L857.81 259.63L862.27 256.15L865.27 253.80L870.68 249.58L876.40 245.11L879.52 242.67L883.15 241.17L886.84 239.64L889.54 238.51L893.41 236.91L896.64 235.57L894.40 227.04L891.74 219.08L890.71 214.38L888.79 208.78L888.94 205.33L890.99 194.60L889.53 192.45L867.15 184.72L853.00 179.84L847.95 178.09L833.80 173.21L821.79 169.06L808.86 164.59L794.67 159.79L787.87 157.60L787.41 152.90Z" data-ward="5" /><path id="ward-1" class="ward" d="M374.69 75.28L373.88 72.25L372.10 68.93L357.74 73.34L352.58 74.66L347.41 75.99L339.56 74.38L330.38 76.28L323.53 79.23L320.86 80.26L313.27 83.17L309.15 84.03L304.76 84.95L300.85 85.77L295.44 86.90L292.62 87.49L287.79 88.49L281.98 89.71L276.31 87.54L271.38 86.49L268.10 85.79L262.19 84.77L253.60 83.29L245.90 84.08L238.06 83.54L231.86 87.06L228.91 88.73L225.39 90.52L219.98 93.26L213.45 95.24L212.07 94.20L211.42 90.45L207.36 89.43L200.51 91.39L196.72 92.56L193.70 93.50L190.88 94.38L187.37 95.46L184.42 96.38L180.70 97.53L170.14 103.67L172.21 110.63L174.29 117.60L176.43 123.05L178.65 128.72L180.32 132.96L182.06 139.16L182.47 142.97L183.07 148.63L184.18 159.03L184.52 162.26L184.99 166.64L181.60 166.91L178.75 167.13L175.02 167.42L172.01 167.65L167.72 167.99L160.85 166.94L147.68 164.94L135.88 163.15L128.11 165.02L122.45 166.38L116.92 167.59L108.84 169.35L102.27 170.90L95.99 172.81L87.84 175.98L76.81 186.98L55.01 209.08L51.23 212.76L40.02 223.39L33.86 229.19L24.42 238.06L15.80 246.20L13.03 248.74L10.04 251.20L5.08 255.16L1.94 256.38L1.18 255.41L0.59 257.32L0.00 259.22L3.07 261.07L6.90 263.38L13.71 267.49L16.30 271.04L18.04 273.42L19.99 276.10L24.72 282.59L26.75 285.37L31.23 291.52L34.28 296.42L36.07 299.28L38.54 303.26L40.93 307.10L44.34 312.58L46.29 315.71L49.00 320.06L51.98 324.84L54.59 329.04L56.97 332.66L62.81 341.55L64.87 344.68L69.04 351.02L74.58 359.45L81.93 350.35L102.42 329.48L122.80 308.72L142.95 288.20L158.53 272.33L177.28 253.24L207.47 222.49L242.91 186.40L284.49 178.15L300.85 175.96L302.12 179.30L307.19 178.32L312.20 177.33L313.61 180.81L318.85 178.78L322.68 177.19L326.47 174.60L329.59 173.06L334.54 172.30L339.85 171.67L345.82 171.69L355.15 168.02L352.40 161.33L351.54 158.19L350.06 153.53L349.14 150.27L345.05 149.25L343.08 147.03L341.08 139.42L340.30 136.19L339.33 131.92L338.54 128.71L337.59 125.07L348.71 121.07L356.00 120.09L359.56 119.62L366.58 119.12L370.95 118.81L375.34 118.22L374.36 111.91L380.66 109.21L383.96 108.18L382.91 105.37L381.48 102.83L379.29 100.43L376.71 96.13L376.23 92.38L378.88 88.55L377.44 82.68L374.69 75.28Z" data-ward="1" /><path id="ward-8" class="ward" d="M940.03 1157.21L942.35 1152.83L943.57 1149.35L945.01 1142.36L946.07 1137.23L945.89 1131.31L944.44 1128.10L940.90 1121.19L937.61 1116.01L933.71 1108.07L931.62 1103.95L930.33 1101.38L927.78 1096.40L925.90 1092.74L922.73 1086.74L921.10 1083.67L909.34 1075.04L899.07 1065.05L895.97 1059.71L893.05 1054.69L885.13 1047.68L877.14 1040.59L874.69 1038.38L867.63 1031.92L853.65 1027.67L843.95 1024.73L838.37 1020.41L834.97 1014.13L833.81 1010.68L830.31 1000.87L826.80 990.97L823.49 981.91L819.86 972.01L814.33 957.26L812.39 951.70L808.94 941.84L807.94 936.96L804.57 920.74L803.98 917.73L802.98 913.06L794.79 893.88L792.89 888.61L788.80 877.26L790.45 871.72L794.04 859.71L797.28 852.97L798.58 844.01L800.55 830.49L806.12 812.69L805.28 802.69L804.04 787.87L801.83 768.42L800.63 757.92L796.58 745.13L793.32 734.86L791.05 728.34L790.76 720.81L790.48 713.63L790.28 708.53L785.89 700.68L782.94 695.39L779.44 691.39L773.21 684.29L769.77 680.37L767.64 672.89L768.32 667.97L771.85 642.52L772.31 635.31L766.87 620.57L763.11 610.40L759.57 600.19L760.05 593.41L761.10 578.63L761.46 572.75L761.34 566.15L761.25 561.89L759.84 552.60L758.89 546.37L751.25 547.75L744.45 549.86L741.20 551.02L737.95 552.18L735.27 553.16L730.75 554.83L725.84 556.63L722.79 557.75L719.54 558.95L716.76 559.94L713.62 561.06L710.34 562.22L707.29 563.30L704.15 564.41L701.29 565.42L698.37 566.45L693.00 568.36L689.78 569.37L686.77 570.32L683.55 571.33L680.10 572.42L676.89 573.44L666.42 576.73L659.93 578.78L656.54 580.28L653.11 581.76L649.20 582.66L643.32 584.28L639.30 585.42L635.20 586.59L631.27 587.69L625.92 589.31L621.82 590.01L623.95 595.21L626.86 602.46L628.31 606.09L629.78 609.74L632.68 616.99L634.74 622.31L636.85 627.78L638.42 631.86L640.15 636.34L641.52 640.05L645.84 651.81L647.48 656.35L649.75 662.62L651.47 667.14L653.62 672.64L655.26 676.89L657.07 681.17L658.99 684.86L660.67 688.02L663.55 692.78L666.06 695.66L670.31 699.76L674.66 703.28L676.82 705.48L679.65 711.02L680.75 713.82L682.28 721.10L683.33 726.34L684.03 729.41L685.17 734.29L686.02 737.97L687.18 743.52L688.25 748.43L689.32 753.33L690.23 756.56L691.42 761.01L692.99 768.43L694.87 775.37L696.29 780.57L697.90 785.58L699.06 789.18L702.43 798.00L706.35 808.23L707.68 811.58L709.02 815.16L710.77 819.83L712.16 823.43L713.28 826.43L714.79 830.41L716.09 833.92L718.27 839.81L719.69 843.08L720.83 846.23L725.24 858.26L726.97 862.49L728.71 866.87L729.97 870.02L731.61 874.13L735.94 886.00L738.09 891.86L739.46 895.63L740.73 899.30L742.56 904.67L743.79 908.33L745.74 914.63L747.28 919.65L748.16 922.52L749.03 925.34L751.14 931.74L752.79 936.75L753.86 940.00L754.78 943.42L755.28 946.41L756.97 951.99L759.07 960.19L761.59 968.95L763.79 976.53L765.25 980.22L768.09 986.07L770.57 991.19L776.55 1002.43L780.49 1009.79L788.42 1024.69L790.84 1029.26L793.52 1034.41L794.87 1037.02L796.60 1040.35L798.23 1043.47L800.32 1047.51L801.63 1050.06L803.68 1054.04L805.52 1057.62L806.95 1060.39L809.27 1064.90L813.50 1073.10L815.69 1076.93L817.51 1080.12L819.54 1083.68L821.20 1087.63L822.20 1090.71L823.65 1095.89L824.35 1098.85L825.25 1102.64L825.92 1105.75L826.53 1108.62L827.14 1111.46L828.11 1116.50L829.70 1125.65L830.32 1129.40L830.95 1133.16L832.32 1142.61L832.73 1145.48L833.55 1150.29L834.38 1155.22L834.90 1158.25L835.51 1161.89L836.35 1166.66L840.23 1166.10L843.66 1165.57L848.48 1164.83L852.13 1164.49L855.79 1164.14L864.03 1163.52L868.88 1162.33L872.37 1161.40L880.38 1160.38L885.68 1159.65L889.48 1158.89L893.22 1159.26L894.60 1163.89L896.71 1168.76L899.74 1169.13L902.63 1169.50L907.45 1169.66L910.65 1169.18L913.65 1168.17L916.32 1166.60L916.85 1163.07L920.90 1159.93L924.38 1159.52L927.60 1161.28L931.04 1161.15L933.92 1160.55L938.31 1160.44L940.03 1157.21Z" data-ward="8" /><path id="ward-4" class="ward" d="M755.91 0.00L746.65 2.03L741.23 2.88L731.99 2.76L726.02 0.53L720.92 3.03L716.60 5.14L711.24 5.25L706.27 5.35L701.22 5.45L697.80 5.52L693.52 6.42L689.27 7.30L689.73 10.34L690.32 14.19L691.45 17.90L692.62 24.79L692.55 28.78L692.20 33.57L691.80 38.16L690.86 43.11L689.65 49.01L689.15 51.84L688.65 54.66L689.04 60.97L689.88 64.48L690.72 67.40L691.90 70.41L693.28 74.65L695.17 80.53L696.68 85.36L697.62 90.18L698.42 96.75L699.35 99.92L701.19 102.68L703.03 105.44L705.70 107.86L707.27 110.75L708.75 115.17L709.42 120.05L710.06 126.00L710.30 132.07L710.48 139.34L711.78 143.61L713.38 148.82L714.38 152.08L716.02 158.81L717.85 165.93L721.12 165.42L724.38 164.91L727.67 166.18L733.55 167.98L737.69 168.01L741.60 167.83L746.08 168.63L753.20 168.44L754.74 165.72L755.98 162.07L759.61 158.98L762.90 154.15L766.73 154.45L769.81 154.57L773.51 152.33L777.01 152.60L782.28 152.81L787.41 152.90L787.87 157.60L794.67 159.79L808.86 164.59L821.79 169.06L833.80 173.21L847.95 178.09L853.00 179.84L867.15 184.72L889.53 192.45L891.71 191.58L894.44 183.04L892.63 180.42L890.88 177.89L889.07 175.28L885.70 170.41L880.06 154.71L878.51 150.05L868.44 125.11L866.43 120.13L860.93 105.35L852.09 87.16L849.29 81.21L846.87 76.97L846.38 73.83L842.38 63.40L841.19 60.30L837.47 50.69L835.65 46.11L833.27 40.81L833.40 37.27L831.86 34.08L830.34 30.94L828.56 27.26L827.08 24.20L824.36 18.29L821.36 11.75L817.95 8.69L810.02 8.68L802.15 8.67L794.11 8.12L786.06 7.58L778.93 7.19L769.11 7.22L761.39 7.23L759.63 3.40L755.91 0.00Z" data-ward="4" /><path id="ward-7" class="ward" d="M694.07 382.53L693.19 379.69L689.92 380.50L686.03 381.45L682.74 382.25L677.76 383.47L673.98 384.30L670.89 384.96L667.54 385.69L663.97 386.46L660.42 387.22L656.75 388.01L653.57 388.66L649.44 389.48L646.18 389.81L640.74 390.01L637.24 390.10L632.84 390.20L629.34 389.61L625.82 389.11L621.78 389.52L618.87 389.84L614.00 391.15L609.84 392.27L603.81 393.73L600.11 394.11L595.27 394.48L591.94 394.76L586.37 396.03L582.58 396.93L579.70 394.86L576.91 394.02L573.76 394.50L570.83 394.95L567.83 395.41L564.58 395.90L565.78 403.51L566.48 406.69L567.19 409.87L567.80 412.66L569.34 418.89L570.88 425.13L573.08 434.40L574.94 442.06L577.88 455.64L578.67 460.04L579.25 463.03L579.94 467.25L580.62 471.47L581.14 476.17L581.82 482.41L582.68 487.86L583.37 490.84L584.24 494.57L585.19 497.35L586.24 500.44L587.97 505.26L589.11 508.51L590.25 511.75L591.55 515.40L592.92 519.76L595.11 525.09L597.19 530.13L599.48 535.74L600.65 538.64L602.32 542.71L603.41 545.37L606.00 551.44L608.96 558.73L610.80 563.20L613.41 569.54L618.18 581.15L621.82 590.01L625.92 589.31L631.27 587.69L635.20 586.59L639.30 585.42L643.32 584.28L649.20 582.66L653.11 581.76L656.54 580.28L659.93 578.78L666.42 576.73L676.89 573.44L680.10 572.42L683.55 571.33L686.77 570.32L689.78 569.37L693.00 568.36L698.37 566.45L701.29 565.42L704.15 564.41L707.29 563.30L710.34 562.22L713.62 561.06L716.76 559.94L719.54 558.95L722.79 557.75L725.84 556.63L730.75 554.83L735.27 553.16L737.95 552.18L741.20 551.02L744.45 549.86L751.25 547.75L758.89 546.37L757.43 542.93L755.06 537.30L752.21 532.83L750.27 529.78L748.38 526.81L746.41 523.72L744.71 521.05L742.40 517.40L741.33 510.46L740.89 507.60L740.06 502.23L739.50 498.63L738.94 494.99L738.39 491.40L737.84 487.80L737.03 481.87L735.69 476.69L734.81 473.39L734.07 470.57L732.34 465.36L730.74 460.55L729.79 457.68L728.31 455.15L726.79 452.70L724.56 449.10L724.31 444.99L724.07 440.98L723.23 437.19L722.33 433.10L719.53 428.70L716.35 426.87L712.69 425.91L708.65 424.85L705.00 423.89L702.98 421.77L702.01 418.54L700.12 412.26L698.96 408.29L697.88 404.54L696.36 397.79L695.80 394.87L695.20 391.72L694.07 382.53Z" data-ward="7" /><path id="ward-14" class="ward" d="M720.83 846.23L719.69 843.08L718.27 839.81L716.09 833.92L714.79 830.41L711.85 831.13L703.95 833.02L700.43 833.87L697.18 834.69L693.19 835.70L688.75 836.79L685.03 837.75L681.99 838.53L677.60 839.64L673.58 840.53L668.02 841.72L658.30 843.85L655.21 844.95L646.36 847.26L640.74 847.39L636.20 847.68L630.54 849.19L625.47 850.58L621.11 850.93L616.71 850.42L610.24 853.90L606.26 856.04L602.21 858.22L596.84 861.11L593.11 863.11L491.86 897.06L473.66 903.16L456.08 909.06L438.87 914.83L421.07 920.79L405.55 926.00L392.62 930.33L378.65 935.01L363.62 940.05L357.06 942.25L395.75 953.88L450.23 1064.48L479.85 1086.38L579.05 1027.11L594.90 1017.65L660.97 978.04L663.79 976.35L667.45 974.53L670.44 973.25L673.17 972.20L677.14 970.96L681.05 969.73L684.48 966.83L685.68 963.82L693.09 960.77L699.86 958.94L702.84 957.72L705.97 956.91L708.73 955.83L717.93 953.66L728.96 951.41L734.59 950.74L739.11 950.65L743.44 949.30L750.36 947.63L755.28 946.41L754.78 943.42L753.86 940.00L752.79 936.75L751.14 931.74L749.03 925.34L748.16 922.52L747.28 919.65L745.74 914.63L743.79 908.33L742.56 904.67L740.73 899.30L739.46 895.63L738.09 891.86L735.94 886.00L731.61 874.13L729.97 870.02L728.71 866.87L726.97 862.49L725.24 858.26L720.83 846.23Z" data-ward="14" /><path id="ward-17" class="ward" d="M618.18 581.15L613.41 569.54L610.80 563.20L608.96 558.73L603.95 560.37L598.32 561.86L592.88 563.31L588.29 566.00L585.03 567.92L581.21 571.46L578.61 573.16L573.74 576.33L566.80 580.59L563.81 582.42L560.80 584.26L558.72 586.36L554.57 587.04L552.30 583.19L550.13 580.36L546.39 575.76L544.33 573.22L539.89 571.61L536.60 570.42L533.40 571.03L528.63 571.94L530.28 577.68L523.61 579.24L517.51 580.67L514.30 581.41L511.03 580.07L505.66 580.86L500.28 581.66L493.87 582.74L485.25 584.20L481.70 584.82L476.47 585.73L472.11 586.81L465.76 587.93L452.64 590.93L444.35 592.83L434.95 594.98L427.93 596.59L419.43 598.53L411.11 600.44L404.44 601.96L395.38 604.03L385.79 606.23L376.05 608.46L367.15 610.50L357.16 612.78L347.48 615.00L338.75 617.00L327.42 619.59L235.70 638.96L242.48 662.37L250.15 688.88L255.73 708.16L262.57 731.82L341.40 721.25L459.97 705.35L490.34 701.28L514.80 698.00L518.80 697.46L533.35 693.82L537.18 692.92L541.47 691.90L544.30 691.41L547.74 690.96L551.14 690.51L554.46 689.48L558.25 687.47L563.28 687.19L568.20 686.16L571.49 686.33L575.60 687.18L579.99 685.52L585.88 683.33L589.04 682.16L589.68 678.67L601.92 676.33L608.19 675.28L615.88 673.79L622.23 672.55L632.30 670.63L635.78 669.93L641.34 668.82L647.89 667.73L651.47 667.14L649.75 662.62L647.48 656.35L645.84 651.81L641.52 640.05L640.15 636.34L638.42 631.86L636.85 627.78L634.74 622.31L632.68 616.99L629.78 609.74L628.31 606.09L626.86 602.46L623.95 595.21L621.82 590.01L618.18 581.15Z" data-ward="17" /><path id="ward-19" class="ward" d="M537.03 357.74L531.78 357.22L526.38 359.74L523.65 360.77L518.06 361.89L513.11 362.39L510.51 359.61L502.41 361.64L496.59 364.27L492.69 365.56L488.98 366.91L485.27 368.26L476.04 372.48L472.25 374.14L473.69 377.88L474.10 380.99L474.49 385.27L474.75 389.73L474.05 394.15L474.06 397.34L474.88 401.08L475.80 405.82L476.54 409.71L477.28 414.48L477.90 419.67L478.55 424.71L478.85 427.78L479.16 432.19L479.41 436.40L480.49 442.82L481.71 448.64L483.05 454.56L484.37 461.96L485.34 465.68L488.29 472.97L490.24 481.22L491.68 489.46L493.12 493.38L496.87 496.01L502.52 495.53L506.18 496.84L507.59 502.77L506.83 507.02L505.75 511.74L505.69 514.63L506.29 518.76L507.50 523.47L507.44 530.18L507.25 535.33L508.83 542.23L509.78 545.36L513.69 544.65L518.49 543.85L523.71 542.67L529.55 541.92L533.58 540.46L534.20 534.79L535.05 531.18L536.08 528.31L539.54 527.36L542.47 526.85L548.30 525.02L551.70 524.61L558.21 523.59L564.29 523.02L568.18 522.41L574.17 521.93L579.32 521.21L584.27 523.45L588.86 521.49L592.92 519.76L591.55 515.40L590.25 511.75L589.11 508.51L587.97 505.26L586.24 500.44L585.19 497.35L584.24 494.57L583.37 490.84L582.68 487.86L581.82 482.41L581.14 476.17L580.62 471.47L579.94 467.25L579.25 463.03L578.67 460.04L577.88 455.64L574.94 442.06L573.08 434.40L570.88 425.13L569.34 418.89L567.80 412.66L567.19 409.87L566.48 406.69L565.78 403.51L564.58 395.90L563.63 390.51L563.13 387.10L562.26 383.30L560.93 378.21L559.60 374.09L557.95 368.99L555.11 363.54L552.40 359.50L548.46 360.80L545.11 361.90L542.29 362.82L538.86 362.87L537.03 357.74Z" data-ward="19" /></svg>