<svg viewBox="0 0 1000.00 1403.27" xmlns="http://www.w3.org/2000/svg"><style>.ward { fill: #e2e8f0; stroke: #fff; stroke-width: 0.5px; } .ward:hover { fill: #cbd5e1; }</style><path id="ward-5" class="ward" d="M533.12 894.55L530.74 892.01L528.38 889.30L526.25 886.49L524.27 883.79L522.00 881.20L519.69 878.79L517.62 876.56L514.27 872.35L512.61 877.13L512.54 880.41L512.39 883.63L512.07 886.91L511.77 890.12L511.49 892.84L509.66 895.32L506.84 895.31L503.37 895.18L500.68 895.56L498.10 896.78L494.85 896.55L491.41 896.08L488.16 896.01L485.19 895.89L481.21 894.27L477.36 894.45L471.51 895.69L467.28 899.82L464.65 902.67L462.69 904.66L459.47 907.94L457.63 910.24L454.67 913.76L451.60 917.13L448.76 920.38L446.92 922.59L445.12 924.94L443.31 927.27L441.47 929.42L438.84 932.51L436.64 936.59L435.53 939.87L434.71 942.68L434.11 945.66L432.84 948.38L430.88 950.19L428.35 951.48L426.30 953.26L424.55 955.95L416.50 988.58L415.93 991.49L414.72 994.77L411.77 995.72L408.12 995.81L405.43 995.91L401.45 995.97L397.38 996.36L394.61 997.04L391.96 997.81L388.97 998.26L386.02 998.39L383.30 998.97L380.32 1000.01L378.15 1002.16L375.76 1005.13L374.20 1007.30L372.54 1009.60L370.94 1013.22L369.86 1017.08L368.41 1020.72L366.30 1026.21L365.72 1029.30L365.12 1033.13L364.64 1037.05L363.28 1040.27L360.90 1043.15L359.12 1045.30L357.07 1048.57L355.95 1052.13L355.05 1055.62L354.03 1058.99L352.76 1062.91L351.46 1067.26L350.50 1070.14L349.35 1073.15L348.39 1076.15L347.63 1079.09L347.30 1082.22L346.88 1085.25L346.46 1089.35L346.19 1092.23L345.61 1096.55L345.64 1099.37L345.46 1102.28L345.01 1106.27L344.44 1109.97L344.01 1113.50L343.50 1117.60L343.23 1121.19L342.39 1125.53L345.40 1125.70L351.47 1126.21L356.68 1126.65L363.03 1127.18L367.58 1127.78L370.22 1128.17L373.12 1128.68L375.83 1128.74L384.55 1129.21L391.25 1129.89L396.38 1130.36L398.66 1134.39L399.74 1138.19L400.52 1141.90L401.45 1145.55L402.39 1148.98L403.14 1152.71L403.72 1157.62L403.75 1161.42L405.16 1164.33L407.94 1163.47L411.31 1162.24L414.39 1161.11L418.88 1159.64L422.44 1159.09L425.12 1159.09L427.78 1158.63L430.55 1158.26L431.85 1160.68L432.57 1163.28L433.02 1165.98L433.48 1168.71L432.27 1171.25L432.12 1173.98L432.72 1176.58L433.75 1179.12L436.10 1180.44L438.72 1180.84L441.44 1180.60L445.51 1179.86L448.19 1179.65L450.87 1179.43L453.47 1178.45L455.97 1177.13L458.14 1174.50L459.29 1172.02L462.15 1171.13L465.14 1170.79L467.70 1169.63L470.68 1168.40L472.73 1166.47L472.52 1163.28L472.34 1160.04L471.95 1156.54L471.92 1153.54L482.87 1145.61L485.88 1143.25L488.90 1141.75L491.37 1140.61L493.87 1139.57L497.13 1138.77L500.78 1138.38L504.06 1137.55L507.74 1137.18L511.12 1137.09L523.41 1135.44L519.37 1123.67L518.08 1119.89L518.65 1111.27L519.61 1096.63L519.26 1092.55L518.77 1086.91L525.15 1086.69L533.62 1086.40L539.41 1086.21L549.38 1085.87L558.56 1085.55L557.82 1077.04L556.90 1070.91L557.34 1067.89L557.78 1064.87L558.77 1058.77L557.53 1053.61L556.86 1050.87L555.38 1044.74L552.92 1041.57L550.94 1037.13L550.74 1032.38L550.58 1028.66L550.30 1024.08L549.29 1019.48L546.50 1019.28L543.78 1019.09L540.28 1018.83L535.53 1018.49L531.05 1018.42L527.49 1018.36L524.29 1018.30L519.80 1018.23L516.91 1018.18L514.10 1018.12L510.58 1018.03L507.62 1017.97L504.89 1017.80L501.71 1017.60L501.77 1014.43L501.84 1011.03L501.90 1007.59L501.96 1004.31L502.02 1001.52L502.08 998.27L502.14 994.96L502.20 991.87L502.26 988.88L502.39 982.07L502.47 978.06L502.53 974.52L502.42 969.97L502.32 966.05L502.25 962.95L526.27 962.75L551.19 962.54L551.24 959.50L551.31 955.95L551.41 949.98L551.46 947.16L559.55 946.94L563.57 946.83L563.64 949.65L567.16 949.88L570.03 950.06L575.92 950.44L579.16 950.74L582.87 949.12L585.06 946.63L593.54 943.70L600.63 941.75L603.90 941.10L607.80 940.32L613.07 939.21L615.57 933.63L616.74 924.20L619.86 923.74L623.12 923.27L622.41 919.38L621.40 913.85L620.81 910.60L619.81 905.07L623.97 903.94L632.83 901.52L632.06 895.21L638.47 893.43L642.13 891.29L648.92 887.64L648.02 881.84L592.28 892.37L589.58 893.19L586.71 893.76L583.46 894.65L580.78 895.01L577.61 894.86L573.57 894.81L570.84 895.26L567.22 896.33L564.68 897.71L563.93 900.38L562.83 902.86L559.73 902.55L556.98 901.81L554.20 902.54L554.45 905.42L554.53 908.45L554.54 911.39L554.93 914.51L552.84 916.48L551.12 914.30L548.88 912.13L546.79 909.78L544.41 907.08L542.02 904.32L539.46 901.86L537.48 899.41L535.34 897.00L533.12 894.55Z" data-ward="5" /><path id="ward-4" class="ward" d="M568.14 697.69L565.36 696.77L562.35 696.00L559.36 695.60L556.26 695.57L552.79 695.20L549.65 694.81L546.12 693.95L538.63 718.22L536.75 724.72L534.92 731.05L532.86 738.15L531.93 741.36L531.17 744.28L529.83 749.09L528.78 751.99L526.22 759.06L524.40 764.05L522.85 768.67L517.82 788.48L514.21 803.09L510.96 815.73L507.39 826.11L506.24 830.27L504.51 834.12L501.59 839.01L499.16 843.29L495.35 850.29L490.05 858.59L487.17 861.71L484.72 865.51L482.41 871.90L480.74 879.14L479.15 882.83L477.35 886.79L471.51 895.69L477.36 894.45L481.21 894.27L485.19 895.89L488.16 896.01L491.41 896.08L494.85 896.55L498.10 896.78L500.68 895.56L503.37 895.18L506.84 895.31L509.66 895.32L511.49 892.84L511.77 890.12L512.07 886.91L512.39 883.63L512.54 880.41L512.61 877.13L514.27 872.35L517.62 876.56L519.69 878.79L522.00 881.20L524.27 883.79L526.25 886.49L528.38 889.30L530.74 892.01L533.12 894.55L535.34 897.00L537.48 899.41L539.46 901.86L542.02 904.32L544.41 907.08L546.79 909.78L548.88 912.13L551.12 914.30L552.84 916.48L554.93 914.51L554.54 911.39L554.53 908.45L554.45 905.42L554.20 902.54L556.98 901.81L559.73 902.55L562.83 902.86L563.93 900.38L564.68 897.71L567.22 896.33L570.84 895.26L573.57 894.81L577.61 894.86L580.78 895.01L583.46 894.65L586.71 893.76L589.58 893.19L592.28 892.37L648.02 881.84L646.96 874.67L645.68 865.95L644.22 862.80L639.40 852.35L638.07 849.29L636.88 845.82L635.49 841.48L642.23 840.13L646.93 839.19L649.58 838.66L661.59 840.23L662.18 841.76L662.31 847.52L676.41 847.62L683.11 847.19L685.88 847.01L700.15 851.68L701.49 847.15L712.21 847.80L710.61 843.97L713.42 842.71L715.78 832.69L707.22 828.94L710.56 814.73L693.08 813.24L690.06 814.60L684.64 812.50L684.65 805.88L683.29 797.80L681.10 784.81L679.87 777.49L679.71 774.64L679.53 771.38L679.76 766.23L679.90 763.22L680.59 758.81L681.09 755.66L680.57 743.95L679.16 741.56L678.07 737.83L676.71 735.37L674.00 735.37L670.80 734.00L668.12 732.43L665.59 730.78L662.94 728.20L658.32 723.18L655.70 722.51L652.74 721.52L650.18 720.85L647.38 720.27L644.87 719.13L642.07 717.60L639.53 716.55L634.77 713.96L631.94 713.96L628.74 713.68L625.79 713.50L622.80 712.98L619.94 712.76L616.62 712.33L613.39 712.00L610.56 711.93L607.06 711.69L603.96 710.98L600.97 710.65L598.98 708.17L598.80 705.50L596.69 703.75L594.13 702.86L591.29 701.88L588.13 701.03L585.32 700.32L582.55 699.62L579.65 698.94L577.09 697.81L574.20 698.05L571.27 698.33L568.14 697.69Z" data-ward="4" /><path id="ward-13" class="ward" d="M148.49 869.07L147.75 863.67L143.53 864.91L145.90 875.87L154.05 884.14L154.17 884.13L157.30 892.43L159.43 894.63L221.75 892.16L237.22 890.23L252.80 888.09L253.34 892.91L253.90 895.75L256.59 896.44L259.63 897.23L266.33 898.95L279.13 902.24L284.83 902.00L296.49 902.09L304.03 901.08L311.21 901.96L324.60 902.95L332.74 904.11L335.98 904.38L333.10 917.24L331.25 925.52L331.32 934.10L331.38 941.14L331.41 944.86L331.29 948.29L332.01 953.06L333.15 960.47L333.65 963.74L338.09 968.52L338.28 976.42L345.59 976.06L351.73 975.75L355.48 968.20L370.34 938.27L372.26 932.86L375.51 930.11L379.44 926.76L383.42 923.38L387.39 917.43L390.45 912.84L394.01 911.68L397.99 910.39L406.28 912.05L411.50 913.42L417.44 913.91L424.76 914.40L429.56 914.80L432.94 913.64L435.44 911.86L449.19 902.67L452.65 899.88L454.50 895.71L457.15 890.78L459.70 889.55L463.88 890.00L469.01 890.90L471.51 895.69L477.35 886.79L479.15 882.83L480.74 879.14L482.41 871.90L484.72 865.51L487.17 861.71L479.38 854.86L473.92 852.53L468.58 851.35L465.07 850.83L461.56 850.31L457.36 850.11L453.84 848.89L449.64 848.35L446.55 849.16L441.46 849.12L441.43 845.47L441.35 841.24L441.30 838.43L441.23 835.35L438.26 834.71L433.58 833.71L430.68 833.09L420.22 832.84L419.32 842.52L408.13 839.20L399.45 832.36L396.92 830.13L392.84 826.86L388.76 823.59L389.65 816.47L390.80 807.19L388.53 800.73L385.55 798.08L384.43 794.14L384.84 786.16L385.19 779.48L381.66 779.43L378.42 779.37L375.19 779.28L372.21 778.82L369.10 778.09L366.18 777.20L363.52 776.43L360.76 775.22L354.45 778.88L349.98 778.15L345.67 776.68L332.95 775.02L330.05 775.05L327.04 777.11L320.74 779.80L317.45 779.74L301.95 778.64L299.27 777.60L290.92 777.69L285.55 777.72L282.93 780.39L278.77 785.47L273.22 790.25L270.99 792.00L268.78 794.48L269.75 797.30L271.59 800.45L270.17 804.84L267.91 807.07L265.53 809.49L263.27 811.76L260.81 813.52L255.70 812.43L252.29 810.77L250.98 813.66L249.28 817.09L248.10 819.94L246.86 822.85L245.75 825.55L241.41 829.41L237.31 830.97L230.04 833.64L226.21 834.89L221.63 835.69L218.66 834.59L217.53 832.18L216.41 828.53L214.62 825.65L211.71 825.02L208.90 824.42L206.21 825.93L205.99 831.11L205.41 845.02L204.89 854.51L202.99 856.53L181.29 857.12L177.70 857.51L174.65 857.85L158.31 859.65L154.27 860.64L155.94 868.03L156.03 868.16L148.49 869.07Z" data-ward="13" /><path id="ward-12" class="ward" d="M253.34 892.91L252.80 888.09L237.22 890.23L221.75 892.16L159.43 894.63L157.30 892.43L142.88 893.15L121.03 894.25L119.70 897.79L118.73 900.34L116.67 903.50L107.30 917.93L92.49 935.42L90.54 937.79L89.22 953.39L88.87 957.72L87.92 969.37L81.39 968.04L74.73 968.50L54.20 977.67L49.68 980.13L33.75 990.02L25.97 994.84L26.24 1001.16L28.97 1005.13L30.19 1007.75L32.64 1011.16L31.43 1016.69L27.39 1037.13L25.91 1045.37L26.09 1049.90L26.27 1054.82L29.71 1055.28L33.02 1055.41L36.58 1055.62L40.26 1055.84L43.43 1056.36L46.05 1057.80L48.61 1058.90L51.90 1059.60L54.64 1059.70L57.33 1059.42L60.43 1057.92L61.58 1055.16L62.60 1051.70L64.90 1048.60L67.55 1047.16L69.96 1046.06L73.67 1045.30L76.44 1044.68L79.04 1044.07L82.23 1043.55L85.70 1043.55L88.47 1043.46L92.39 1043.24L95.56 1043.24L99.12 1043.33L106.63 1044.56L110.18 1045.33L112.87 1046.09L115.55 1046.46L118.45 1046.74L121.67 1046.74L125.41 1046.70L169.64 1044.07L172.75 1043.15L176.82 1042.94L179.75 1043.15L183.54 1043.18L186.65 1043.37L189.94 1043.33L193.58 1043.40L196.24 1043.21L199.83 1043.37L206.50 1043.27L210.32 1043.21L213.03 1043.37L216.68 1043.24L219.33 1043.15L222.02 1042.92L224.86 1042.67L231.15 1041.67L234.36 1039.03L237.09 1037.61L238.72 1031.11L238.66 1023.97L238.48 1020.48L237.76 1011.50L237.76 1008.19L238.09 1004.91L238.66 998.79L238.51 995.87L238.03 988.80L237.67 983.44L237.52 979.15L238.42 975.65L252.95 979.02L286.48 983.59L312.96 980.13L327.44 976.14L338.28 976.42L338.09 968.52L333.65 963.74L333.15 960.47L332.01 953.06L331.29 948.29L331.41 944.86L331.38 941.14L331.32 934.10L331.25 925.52L333.10 917.24L335.98 904.38L332.74 904.11L324.60 902.95L311.21 901.96L304.03 901.08L296.49 902.09L284.83 902.00L279.13 902.24L266.33 898.95L259.63 897.23L256.59 896.44L253.90 895.75L253.34 892.91Z" data-ward="12" /><path id="ward-11" class="ward" d="M454.67 913.76L457.63 910.24L459.47 907.94L462.69 904.66L464.65 902.67L467.28 899.82L471.51 895.69L469.01 890.90L463.88 890.00L459.70 889.55L457.15 890.78L454.50 895.71L452.65 899.88L449.19 902.67L435.44 911.86L432.94 913.64L429.56 914.80L424.76 914.40L417.44 913.91L411.50 913.42L406.28 912.05L397.99 910.39L394.01 911.68L390.45 912.84L387.39 917.43L383.42 923.38L379.44 926.76L375.51 930.11L372.26 932.86L370.34 938.27L355.48 968.20L351.73 975.75L345.59 976.06L338.28 976.42L327.44 976.14L312.96 980.13L286.48 983.59L252.95 979.02L238.42 975.65L237.52 979.15L237.67 983.44L238.03 988.80L238.51 995.87L238.66 998.79L238.09 1004.91L237.76 1008.19L237.76 1011.50L238.48 1020.48L238.66 1023.97L238.72 1031.11L237.09 1037.61L234.36 1039.03L231.15 1041.67L232.17 1044.55L233.20 1047.42L232.28 1052.28L231.36 1057.13L229.09 1060.03L221.88 1062.18L213.93 1064.19L204.15 1065.86L199.90 1067.21L200.12 1070.34L200.28 1074.28L200.43 1077.13L200.73 1079.83L201.58 1082.92L201.55 1086.63L204.14 1093.95L204.86 1096.52L204.59 1100.14L206.67 1104.37L209.38 1103.72L212.07 1104.80L212.70 1107.55L213.91 1111.23L214.69 1114.11L215.54 1117.05L217.59 1124.89L218.22 1128.54L215.26 1140.03L213.45 1144.34L214.17 1146.94L214.81 1149.62L216.29 1152.81L218.45 1155.47L219.40 1158.05L222.35 1158.69L225.37 1158.09L230.37 1157.36L234.09 1157.12L237.20 1157.15L240.20 1157.00L243.12 1156.60L245.81 1156.42L248.41 1157.12L251.69 1158.94L255.77 1159.22L256.52 1156.60L257.18 1153.79L258.17 1150.28L258.40 1147.53L259.28 1143.01L259.20 1140.06L258.78 1137.21L258.50 1132.89L259.00 1128.19L262.50 1127.94L267.01 1127.95L271.20 1126.43L273.75 1124.93L277.96 1123.29L281.51 1122.11L283.56 1120.17L284.32 1117.35L286.32 1115.58L289.74 1114.67L292.56 1113.88L295.67 1113.03L298.42 1112.36L303.58 1110.82L305.82 1109.30L308.55 1109.36L312.20 1110.95L315.01 1112.68L317.04 1115.64L318.49 1119.66L319.90 1123.70L321.38 1126.35L323.21 1128.80L325.04 1131.11L326.59 1133.54L328.36 1137.60L328.42 1140.73L328.70 1147.32L329.02 1153.60L329.19 1158.24L328.77 1161.33L326.90 1165.83L325.53 1168.92L324.19 1171.87L322.90 1174.80L321.45 1177.55L323.89 1180.09L327.28 1181.33L329.42 1179.22L330.54 1175.79L331.50 1173.21L332.35 1170.58L333.85 1166.72L334.55 1162.89L335.33 1160.04L336.24 1157.25L337.60 1152.31L338.53 1147.17L339.35 1143.42L339.88 1140.56L340.40 1136.26L341.58 1129.88L342.39 1125.53L343.23 1121.19L343.50 1117.60L344.01 1113.50L344.44 1109.97L345.01 1106.27L345.46 1102.28L345.64 1099.37L345.61 1096.55L346.19 1092.23L346.46 1089.35L346.88 1085.25L347.30 1082.22L347.63 1079.09L348.39 1076.15L349.35 1073.15L350.50 1070.14L351.46 1067.26L352.76 1062.91L354.03 1058.99L355.05 1055.62L355.95 1052.13L357.07 1048.57L359.12 1045.30L360.90 1043.15L363.28 1040.27L364.64 1037.05L365.12 1033.13L365.72 1029.30L366.30 1026.21L368.41 1020.72L369.86 1017.08L370.94 1013.22L372.54 1009.60L374.20 1007.30L375.76 1005.13L378.15 1002.16L380.32 1000.01L383.30 998.97L386.02 998.39L388.97 998.26L391.96 997.81L394.61 997.04L397.38 996.36L401.45 995.97L405.43 995.91L408.12 995.81L411.77 995.72L414.72 994.77L415.93 991.49L416.50 988.58L424.55 955.95L426.30 953.26L428.35 951.48L430.88 950.19L432.84 948.38L434.11 945.66L434.71 942.68L435.53 939.87L436.64 936.59L438.84 932.51L441.47 929.42L443.31 927.27L445.12 924.94L446.92 922.59L448.76 920.38L451.60 917.13L454.67 913.76Z" data-ward="11" /><path id="ward-1" class="ward" d="M765.68 2.24L762.86 1.55L756.52 0.00L755.62 3.48L746.71 2.80L728.97 6.15L723.89 3.29L717.86 4.50L710.37 5.76L697.24 7.93L688.51 9.37L679.92 9.14L671.00 9.16L660.15 9.19L649.56 11.01L640.95 13.52L637.66 18.28L636.57 24.77L639.03 32.07L643.73 53.38L648.01 72.77L649.47 78.59L652.40 92.45L657.50 115.16L661.08 131.61L659.87 134.45L657.51 139.96L654.16 141.55L648.84 139.80L645.02 138.54L639.27 137.91L634.63 136.78L631.79 136.10L629.20 134.05L623.39 131.43L619.26 131.08L614.58 132.22L611.79 131.59L601.83 129.34L596.39 130.92L592.37 132.09L583.88 129.92L579.34 129.70L576.27 129.56L573.26 140.99L571.80 143.39L566.99 151.28L556.58 145.63L550.48 144.22L524.53 138.22L520.88 143.29L506.34 140.56L504.39 146.04L501.08 159.17L492.11 174.17L490.40 177.35L486.19 188.01L508.26 195.51L507.50 201.99L504.46 218.19L503.60 222.81L503.92 235.74L506.55 237.93L509.63 240.32L517.82 244.16L516.55 249.32L516.38 252.54L516.01 261.39L515.90 264.05L518.77 266.01L522.22 268.36L525.67 269.43L534.30 272.11L539.25 273.64L543.63 272.92L552.77 275.42L569.02 279.85L572.08 281.42L574.45 282.63L574.17 291.31L569.88 292.47L567.94 294.97L564.25 297.33L561.34 297.46L558.94 301.82L554.55 305.71L553.87 309.32L550.77 310.08L550.12 313.93L549.53 317.41L548.98 320.63L552.73 322.02L555.42 323.02L558.50 325.83L560.95 330.83L565.25 332.47L573.27 335.52L579.88 338.04L577.52 341.19L563.18 338.57L550.95 339.54L548.36 340.07L545.98 344.83L540.12 342.89L537.30 349.57L535.20 352.70L530.35 355.66L518.36 357.37L513.90 356.28L508.21 357.28L502.71 355.42L498.35 353.36L491.40 351.83L489.17 353.92L483.94 352.86L479.24 351.90L480.28 346.75L480.91 343.58L478.36 342.57L473.92 338.38L467.75 336.87L468.46 332.89L458.04 330.11L453.66 327.76L450.48 331.98L450.54 337.31L450.42 340.37L450.72 343.13L452.74 346.29L454.37 349.72L455.70 353.37L456.90 356.49L458.83 358.42L461.19 360.35L463.06 362.28L466.01 364.92L468.60 367.34L471.47 370.43L474.36 372.67L476.29 374.79L478.64 377.21L482.62 379.41L485.85 379.87L489.83 379.99L494.87 380.15L498.12 381.22L500.99 382.26L503.97 383.21L508.98 384.28L511.72 384.81L516.15 385.88L519.08 386.86L522.15 387.78L524.87 388.18L530.90 389.55L541.84 391.82L545.28 392.22L549.41 392.28L552.07 392.22L555.62 391.98L559.45 392.19L562.41 392.34L565.09 391.39L567.26 389.19L569.43 386.92L572.30 385.94L575.16 385.97L577.91 386.92L581.31 388.67L606.53 391.67L607.21 388.29L610.21 386.17L617.20 385.44L625.55 384.68L632.70 383.96L636.16 383.50L640.11 382.92L645.64 381.96L651.92 379.81L657.60 377.77L661.47 375.89L662.54 373.32L661.70 369.41L660.47 363.85L659.96 356.67L659.66 351.42L660.31 347.95L661.63 343.92L668.80 336.08L670.92 330.28L672.77 324.95L676.47 314.31L681.62 299.88L685.25 289.47L688.42 279.01L688.98 276.35L690.79 262.38L691.30 252.63L695.70 251.46L701.68 250.44L716.80 248.21L723.53 248.06L733.31 249.04L737.61 248.55L742.37 248.02L751.75 244.33L759.21 235.09L767.87 229.88L769.96 224.55L771.58 219.95L774.45 211.81L776.73 203.58L778.46 192.88L771.83 185.60L771.85 176.51L773.91 165.01L775.53 155.34L775.71 145.93L771.91 130.97L768.56 120.03L771.03 115.21L775.51 113.94L777.04 110.91L777.30 105.53L777.65 98.19L778.54 95.45L779.99 92.31L784.21 83.15L788.71 76.82L791.88 73.94L807.46 59.12L797.97 56.33L798.33 48.31L780.73 39.72L770.24 34.59L763.77 31.44L766.17 28.54L766.05 21.71L765.68 2.24Z" data-ward="1" /><path id="ward-15" class="ward" d="M442.10 325.69L439.89 322.86L433.71 320.81L429.25 319.33L417.93 311.69L414.20 311.58L404.09 311.28L393.00 310.94L388.84 319.02L385.81 322.54L382.90 325.94L380.38 324.85L367.25 319.20L352.18 312.72L325.71 349.53L342.83 358.11L350.46 361.28L356.40 363.75L363.22 372.38L368.18 387.11L369.89 393.54L371.21 398.47L374.26 409.40L373.25 420.51L372.03 424.15L368.80 425.99L366.12 426.50L363.12 427.06L357.05 426.36L341.25 424.54L339.57 429.41L336.67 438.69L332.04 452.51L336.04 449.28L340.73 445.62L342.94 442.30L344.62 439.77L344.51 436.40L355.60 437.63L360.73 438.20L360.14 444.57L374.10 444.62L390.69 444.67L390.56 449.62L390.18 454.77L407.36 457.56L423.79 460.24L438.81 462.69L435.98 486.76L431.43 486.28L430.90 492.82L426.87 493.28L419.37 493.70L407.14 494.39L401.73 494.70L398.96 498.95L399.41 502.70L400.20 509.18L403.07 510.51L407.76 512.66L412.57 514.31L417.74 516.08L416.33 518.97L414.90 521.89L410.48 530.89L407.00 529.66L405.06 525.67L403.11 523.46L397.24 516.78L388.20 512.51L385.56 511.26L379.16 512.31L374.80 513.03L372.44 519.57L369.89 526.61L367.23 534.38L364.11 543.49L360.25 554.77L375.99 566.05L390.72 577.54L399.13 579.44L403.96 580.06L412.31 580.76L417.19 587.53L419.82 588.33L425.21 590.01L424.76 595.50L425.12 598.87L429.77 601.47L432.27 602.33L436.10 603.71L439.39 604.84L444.81 605.12L445.99 602.70L450.24 603.74L453.62 604.81L458.69 606.50L462.54 627.91L470.75 636.00L486.45 640.67L483.04 678.03L479.30 698.44L506.40 708.18L508.96 720.10L512.03 720.73L519.36 716.42L523.80 712.40L528.39 708.17L534.84 703.27L538.50 703.20L536.60 709.12L534.82 714.62L534.30 721.65L531.06 730.06L528.22 738.04L527.58 743.91L531.17 744.28L531.93 741.36L532.86 738.15L534.92 731.05L536.75 724.72L538.63 718.22L546.12 693.95L546.76 690.52L547.36 687.79L548.24 684.85L549.23 681.45L550.20 677.77L552.49 669.74L555.23 659.51L556.11 655.83L558.55 645.20L559.18 641.67L559.87 636.13L560.57 632.57L562.23 627.46L564.49 624.36L567.26 621.82L570.13 619.31L573.56 615.35L574.80 612.75L575.61 610.05L576.70 607.20L578.69 604.26L581.37 601.53L584.57 594.61L585.84 589.13L586.26 585.75L586.35 582.60L586.80 579.75L587.86 577.18L590.00 575.37L592.71 573.93L595.67 571.05L596.90 568.53L597.72 565.10L598.38 559.89L598.62 556.46L598.65 553.34L598.53 549.93L598.20 546.17L598.50 542.64L599.01 539.12L600.46 536.27L602.48 533.57L604.38 531.43L605.74 529.10L606.37 526.28L606.58 523.37L606.10 520.24L605.28 517.06L604.68 513.93L604.14 511.33L603.44 508.57L602.66 505.60L601.03 502.87L598.08 500.26L595.79 498.67L592.98 496.22L592.26 493.16L592.26 490.43L592.29 487.70L592.20 485.00L591.75 482.25L590.99 479.34L589.85 476.70L587.19 474.22L585.44 471.74L584.81 468.86L584.42 465.76L584.36 462.36L584.99 459.05L585.47 455.74L586.17 452.62L587.77 449.34L589.09 445.97L590.51 442.63L591.90 439.29L593.01 435.89L594.43 432.73L595.42 430.00L596.30 427.09L597.44 423.69L598.44 420.47L601.36 417.78L604.14 417.04L606.91 415.97L609.90 414.80L612.61 413.76L614.51 411.03L613.24 408.34L611.50 405.92L609.20 403.28L608.12 400.74L607.03 397.95L606.79 395.10L606.53 391.67L581.31 388.67L577.91 386.92L575.16 385.97L572.30 385.94L569.43 386.92L567.26 389.19L565.09 391.39L562.41 392.34L559.45 392.19L555.62 391.98L552.07 392.22L549.41 392.28L545.28 392.22L541.84 391.82L530.90 389.55L524.87 388.18L522.15 387.78L519.08 386.86L516.15 385.88L511.72 384.81L508.98 384.28L503.97 383.21L500.99 382.26L498.12 381.22L494.87 380.15L489.83 379.99L485.85 379.87L482.62 379.41L478.64 377.21L476.29 374.79L474.36 372.67L471.47 370.43L468.60 367.34L466.01 364.92L463.06 362.28L461.19 360.35L458.83 358.42L456.90 356.49L455.70 353.37L454.37 349.72L452.74 346.29L450.72 343.13L450.42 340.37L450.54 337.31L450.48 331.98L453.66 327.76L442.10 325.69Z" data-ward="15" /><path id="ward-8" class="ward" d="M75.48 1172.66L75.15 1169.87L75.81 1167.08L75.87 1164.02L76.35 1161.23L77.05 1157.71L77.87 1154.81L79.14 1152.41L76.36 1150.17L24.65 1141.29L21.09 1143.94L10.58 1151.75L13.74 1160.96L13.62 1164.81L13.43 1170.95L13.35 1173.73L11.24 1180.84L9.79 1185.76L10.50 1191.62L9.56 1197.77L10.93 1200.07L15.87 1208.30L14.97 1215.01L15.50 1218.24L19.17 1219.79L26.50 1222.90L32.66 1222.36L39.64 1226.34L38.19 1229.56L35.99 1231.23L35.53 1234.32L37.36 1238.62L37.77 1242.16L38.17 1245.71L41.29 1249.23L42.04 1252.46L40.76 1258.35L41.23 1263.41L37.54 1273.83L36.64 1281.41L30.70 1286.70L26.94 1290.06L22.19 1292.53L19.08 1293.74L15.28 1299.11L12.93 1301.08L7.64 1302.23L2.70 1302.85L1.03 1306.32L1.42 1311.05L0.00 1313.93L4.63 1317.97L6.66 1323.04L7.83 1325.92L9.01 1328.80L9.49 1332.66L12.11 1333.16L15.71 1333.85L19.75 1334.31L24.03 1332.82L26.94 1331.80L36.13 1333.09L41.26 1332.32L45.11 1333.24L50.52 1334.39L55.77 1335.52L59.22 1336.26L63.25 1335.81L69.69 1335.49L73.19 1336.21L76.70 1336.92L81.32 1340.38L83.86 1342.29L86.83 1344.35L90.84 1347.13L94.96 1350.00L100.10 1353.85L105.29 1357.74L105.94 1360.52L106.60 1363.30L108.75 1366.18L111.05 1369.27L112.47 1371.52L114.22 1374.29L119.03 1377.29L123.31 1378.41L128.75 1379.83L133.98 1380.36L138.33 1380.95L141.29 1382.76L145.41 1383.80L150.77 1381.33L160.15 1380.05L163.32 1379.64L166.83 1380.64L170.22 1381.60L173.77 1382.19L176.19 1385.67L179.14 1389.93L180.36 1393.71L183.43 1394.78L188.07 1396.40L193.50 1398.29L199.94 1397.86L202.08 1399.91L204.72 1402.29L210.27 1402.73L214.06 1403.27L217.49 1402.89L221.67 1402.42L229.64 1401.41L231.21 1398.52L236.10 1396.83L240.60 1393.19L244.26 1387.43L250.60 1384.58L255.29 1380.24L261.19 1378.09L264.43 1375.85L261.10 1371.84L258.26 1370.46L255.52 1366.87L256.57 1363.47L257.33 1360.26L257.21 1355.90L256.06 1353.30L253.53 1352.17L251.64 1349.98L251.15 1346.77L251.48 1344.11L254.04 1339.79L255.10 1337.12L255.55 1334.49L256.03 1331.76L256.15 1326.19L254.52 1321.13L249.57 1316.51L245.45 1315.10L243.82 1312.89L243.82 1308.39L244.15 1305.51L244.45 1301.06L244.39 1298.09L244.33 1293.77L243.85 1290.25L243.58 1287.40L242.91 1284.40L242.16 1281.12L241.20 1278.30L240.26 1274.47L239.30 1270.49L237.16 1263.76L232.60 1264.18L228.80 1264.60L225.97 1265.92L223.35 1267.94L220.93 1270.24L215.35 1270.27L211.16 1269.54L208.33 1269.14L205.43 1268.86L202.21 1268.62L199.16 1268.53L195.06 1268.43L192.26 1268.53L189.57 1268.37L186.77 1268.22L183.91 1268.04L180.74 1268.07L177.51 1268.28L174.35 1268.40L171.27 1268.71L168.26 1268.89L165.27 1269.20L162.53 1269.72L159.87 1270.03L156.53 1270.95L153.54 1271.65L150.41 1272.36L146.49 1272.36L142.57 1272.66L139.64 1272.97L136.63 1273.03L133.55 1273.21L130.60 1273.40L127.61 1273.61L124.78 1274.19L121.70 1274.50L118.66 1274.65L115.67 1274.96L112.72 1275.18L109.76 1275.54L106.99 1275.94L104.27 1276.25L100.75 1276.80L97.40 1277.07L94.56 1277.32L92.09 1276.03L91.43 1273.34L90.22 1270.03L89.50 1267.21L88.56 1263.26L87.18 1259.61L86.03 1256.82L85.37 1253.70L84.77 1250.57L84.22 1247.60L83.86 1244.54L83.50 1241.50L83.11 1238.26L82.90 1235.13L83.02 1232.28L83.68 1229.37L84.10 1226.55L83.89 1223.83L83.77 1221.01L83.71 1218.04L83.95 1215.25L84.49 1212.64L85.70 1208.87L86.94 1205.63L88.35 1202.93L90.58 1201.03L94.17 1201.03L96.98 1200.33L97.76 1197.75L98.00 1194.29L98.24 1191.50L97.91 1188.22L97.10 1185.22L96.49 1182.31L96.10 1179.68L95.83 1176.98L95.17 1174.13L91.82 1172.32L88.47 1172.20L84.77 1172.32L81.99 1172.51L78.07 1173.27L75.48 1172.66Z" data-ward="8" /><path id="ward-14" class="ward" d="M375.99 566.05L360.25 554.77L357.56 554.78L354.89 555.24L351.21 555.87L350.73 559.04L348.92 570.91L343.21 570.44L338.26 570.10L336.23 579.01L335.54 582.02L334.89 584.88L333.86 589.41L336.56 590.07L339.31 590.64L342.10 591.21L344.21 593.07L343.44 608.50L342.19 612.29L339.66 613.13L336.21 612.95L332.70 612.86L325.61 612.67L319.36 612.81L315.64 619.33L317.10 632.06L315.45 634.67L309.96 635.44L304.41 636.62L299.33 635.86L294.54 635.14L288.50 634.38L289.76 643.90L290.11 646.61L290.78 654.11L291.05 657.14L291.30 660.47L293.44 664.96L286.06 665.48L281.66 665.79L273.41 666.75L267.03 666.95L266.00 670.95L265.47 676.90L264.88 683.14L265.61 689.16L266.01 693.49L266.83 702.27L266.81 705.69L266.79 710.40L266.74 717.24L266.43 729.64L264.36 732.40L264.28 739.11L263.53 747.30L255.27 746.21L250.84 745.62L242.37 744.50L233.58 739.23L227.77 735.75L221.21 731.82L217.09 731.14L214.21 736.19L211.54 742.43L206.72 748.09L204.57 750.61L203.24 757.67L202.08 765.95L201.40 768.71L200.51 777.08L200.09 781.06L199.06 790.83L201.61 792.33L202.83 796.48L204.11 800.83L204.24 803.57L204.60 810.84L204.82 815.17L205.26 818.62L206.21 825.93L208.90 824.42L211.71 825.02L214.62 825.65L216.41 828.53L217.53 832.18L218.66 834.59L221.63 835.69L226.21 834.89L230.04 833.64L237.31 830.97L241.41 829.41L245.75 825.55L246.86 822.85L248.10 819.94L249.28 817.09L250.98 813.66L252.29 810.77L255.70 812.43L260.81 813.52L263.27 811.76L265.53 809.49L267.91 807.07L270.17 804.84L271.59 800.45L269.75 797.30L268.78 794.48L270.99 792.00L273.22 790.25L278.77 785.47L282.93 780.39L285.55 777.72L290.92 777.69L299.27 777.60L301.95 778.64L317.45 779.74L320.74 779.80L327.04 777.11L330.05 775.05L332.95 775.02L345.67 776.68L349.98 778.15L354.45 778.88L360.76 775.22L363.52 776.43L366.18 777.20L369.10 778.09L372.21 778.82L375.19 779.28L378.42 779.37L381.66 779.43L385.19 779.48L384.84 786.16L384.43 794.14L385.55 798.08L388.53 800.73L390.80 807.19L389.65 816.47L388.76 823.59L392.84 826.86L396.92 830.13L399.45 832.36L408.13 839.20L419.32 842.52L420.22 832.84L430.68 833.09L433.58 833.71L438.26 834.71L441.23 835.35L441.30 838.43L441.35 841.24L441.43 845.47L441.46 849.12L446.55 849.16L449.64 848.35L453.84 848.89L457.36 850.11L461.56 850.31L465.07 850.83L468.58 851.35L473.92 852.53L479.38 854.86L487.17 861.71L490.05 858.59L495.35 850.29L499.16 843.29L501.59 839.01L504.51 834.12L506.24 830.27L507.39 826.11L510.96 815.73L514.21 803.09L517.82 788.48L522.85 768.67L524.40 764.05L526.22 759.06L528.78 751.99L529.83 749.09L531.17 744.28L527.58 743.91L528.22 738.04L531.06 730.06L534.30 721.65L534.82 714.62L536.60 709.12L538.50 703.20L534.84 703.27L528.39 708.17L523.80 712.40L519.36 716.42L512.03 720.73L508.96 720.10L506.40 708.18L479.30 698.44L483.04 678.03L486.45 640.67L470.75 636.00L462.54 627.91L458.69 606.50L453.62 604.81L450.24 603.74L445.99 602.70L444.81 605.12L439.39 604.84L436.10 603.71L432.27 602.33L429.77 601.47L425.12 598.87L424.76 595.50L425.21 590.01L419.82 588.33L417.19 587.53L412.31 580.76L403.96 580.06L399.13 579.44L390.72 577.54L375.99 566.05Z" data-ward="14" /><path id="ward-2" class="ward" d="M992.08 104.66L998.27 102.58L999.60 99.15L999.58 96.48L999.79 93.80L1000.00 91.13L996.25 88.86L990.42 84.50L980.29 81.19L974.94 79.46L967.85 72.99L961.31 68.51L954.19 63.64L946.67 59.80L943.41 58.13L937.03 53.18L931.28 48.72L923.10 42.77L913.11 35.50L906.46 32.56L895.09 28.28L887.64 24.92L878.94 20.99L860.25 14.88L856.21 13.57L842.42 6.67L838.29 5.35L833.37 3.78L833.38 10.55L830.19 18.94L825.17 32.20L822.47 39.31L820.95 43.32L818.87 45.75L815.95 49.18L812.37 53.36L810.18 55.94L807.46 59.12L791.88 73.94L788.71 76.82L784.21 83.15L779.99 92.31L778.54 95.45L777.65 98.19L777.30 105.53L777.04 110.91L775.51 113.94L771.03 115.21L768.56 120.03L771.91 130.97L775.71 145.93L775.53 155.34L773.91 165.01L771.85 176.51L771.83 185.60L778.46 192.88L776.73 203.58L774.45 211.81L771.58 219.95L769.96 224.55L767.87 229.88L759.21 235.09L751.75 244.33L742.37 248.02L737.61 248.55L733.31 249.04L723.53 248.06L716.80 248.21L701.68 250.44L695.70 251.46L691.30 252.63L690.79 262.38L688.98 276.35L688.42 279.01L685.25 289.47L681.62 299.88L676.47 314.31L672.77 324.95L670.92 330.28L668.80 336.08L672.80 341.30L675.26 342.92L678.25 344.70L680.76 346.06L683.09 347.78L685.73 348.49L689.42 348.56L693.36 348.90L696.99 348.99L700.88 349.87L704.20 350.64L707.27 351.03L710.40 351.63L713.41 352.43L716.53 353.06L719.32 353.62L722.19 354.09L725.74 354.70L729.17 355.18L732.08 355.60L735.08 355.82L738.81 356.05L742.10 356.17L744.91 356.58L747.91 356.90L751.06 358.30L753.37 359.98L757.51 365.02L762.92 368.64L765.88 371.50L767.32 374.03L773.73 376.94L777.25 380.52L785.75 382.39L790.56 383.00L799.73 388.29L806.79 390.75L811.76 392.69L818.73 395.80L827.22 399.23L836.56 403.23L846.13 409.48L855.34 417.05L863.18 423.43L864.91 431.59L865.56 435.03L866.27 438.85L866.25 441.98L866.24 445.12L871.48 443.59L871.01 434.95L871.41 429.70L871.84 424.12L870.03 421.92L868.04 419.48L863.19 417.38L859.17 415.63L856.16 414.18L853.85 410.71L851.84 403.30L851.14 399.39L850.44 395.49L850.34 390.31L850.26 386.51L850.57 381.89L848.16 375.86L846.88 371.64L845.67 367.66L844.63 364.24L844.15 360.37L844.67 355.29L850.38 354.33L854.48 354.03L858.38 354.23L861.42 354.39L864.56 355.14L866.99 357.31L869.70 361.30L873.90 364.39L877.62 366.23L881.93 367.52L885.87 368.70L889.76 369.24L893.02 369.29L897.62 367.69L900.11 364.08L902.21 360.50L902.87 357.64L904.86 354.25L907.11 349.33L909.23 345.73L910.46 342.55L912.06 339.56L913.14 336.70L915.58 332.15L917.22 329.65L918.91 327.07L920.77 321.77L919.32 318.67L918.05 315.95L915.81 310.88L914.01 306.67L913.44 302.83L915.13 297.14L920.73 291.31L923.10 288.15L924.92 285.73L929.30 280.05L928.97 277.39L925.42 271.98L927.33 265.04L928.80 256.92L930.66 253.44L930.02 246.39L928.80 243.09L926.89 240.67L924.39 235.92L926.98 231.95L929.05 230.26L933.51 226.63L936.73 223.42L939.93 219.95L940.50 217.21L941.07 214.49L944.24 209.70L947.59 206.73L955.55 199.09L957.54 196.95L959.41 194.95L962.27 190.62L963.58 188.17L965.37 185.54L964.23 181.11L965.18 174.54L963.24 168.52L961.97 164.59L959.43 161.54L957.88 157.88L957.42 155.80L956.83 148.65L957.52 144.21L958.05 140.82L958.50 137.92L959.05 134.42L960.19 127.07L960.41 124.09L961.97 121.07L963.48 118.14L964.81 115.59L967.66 113.53L971.51 110.77L975.32 108.02L979.00 109.57L984.06 111.70L987.38 112.25L993.92 113.33L992.72 109.10L992.08 104.66Z" data-ward="2" /><path id="ward-3" class="ward" d="M846.96 506.74L847.21 503.73L847.46 500.68L847.73 497.51L848.00 494.24L848.24 491.38L847.20 486.42L846.58 483.51L845.60 478.80L845.24 476.07L844.89 473.37L847.17 468.43L851.44 465.06L856.11 464.16L860.11 460.23L862.74 453.74L864.24 450.06L865.24 447.59L866.24 445.12L866.25 441.98L866.27 438.85L865.56 435.03L864.91 431.59L863.18 423.43L855.34 417.05L846.13 409.48L836.56 403.23L827.22 399.23L818.73 395.80L811.76 392.69L806.79 390.75L799.73 388.29L790.56 383.00L785.75 382.39L777.25 380.52L773.73 376.94L767.32 374.03L765.88 371.50L762.92 368.64L757.51 365.02L753.37 359.98L751.06 358.30L747.91 356.90L744.91 356.58L742.10 356.17L738.81 356.05L735.08 355.82L732.08 355.60L729.17 355.18L725.74 354.70L722.19 354.09L719.32 353.62L716.53 353.06L713.41 352.43L710.40 351.63L707.27 351.03L704.20 350.64L700.88 349.87L696.99 348.99L693.36 348.90L689.42 348.56L685.73 348.49L683.09 347.78L680.76 346.06L678.25 344.70L675.26 342.92L672.80 341.30L668.80 336.08L661.63 343.92L660.31 347.95L659.66 351.42L659.96 356.67L660.47 363.85L661.70 369.41L662.54 373.32L661.47 375.89L657.60 377.77L651.92 379.81L645.64 381.96L640.11 382.92L636.16 383.50L632.70 383.96L625.55 384.68L617.20 385.44L610.21 386.17L607.21 388.29L606.53 391.67L606.79 395.10L607.03 397.95L608.12 400.74L609.20 403.28L611.50 405.92L613.24 408.34L614.51 411.03L612.61 413.76L609.90 414.80L606.91 415.97L604.14 417.04L601.36 417.78L598.44 420.47L597.44 423.69L596.30 427.09L595.42 430.00L594.43 432.73L593.01 435.89L591.90 439.29L590.51 442.63L589.09 445.97L587.77 449.34L586.17 452.62L585.47 455.74L584.99 459.05L584.36 462.36L584.42 465.76L584.81 468.86L585.44 471.74L587.19 474.22L589.85 476.70L590.99 479.34L591.75 482.25L592.20 485.00L592.29 487.70L592.26 490.43L592.26 493.16L592.98 496.22L595.79 498.67L598.08 500.26L601.03 502.87L602.66 505.60L603.44 508.57L604.14 511.33L604.68 513.93L605.28 517.06L606.10 520.24L606.58 523.37L606.37 526.28L605.74 529.10L604.38 531.43L602.48 533.57L600.46 536.27L599.01 539.12L598.50 542.64L598.20 546.17L598.53 549.93L598.65 553.34L598.62 556.46L598.38 559.89L597.72 565.10L596.90 568.53L595.67 571.05L592.71 573.93L590.00 575.37L587.86 577.18L586.80 579.75L586.35 582.60L586.26 585.75L585.84 589.13L584.57 594.61L581.37 601.53L578.69 604.26L576.70 607.20L575.61 610.05L574.80 612.75L573.56 615.35L570.13 619.31L567.26 621.82L564.49 624.36L562.23 627.46L560.57 632.57L559.87 636.13L559.18 641.67L558.55 645.20L556.11 655.83L555.23 659.51L552.49 669.74L550.20 677.77L549.23 681.45L548.24 684.85L547.36 687.79L546.76 690.52L546.12 693.95L549.65 694.81L552.79 695.20L556.26 695.57L559.36 695.60L562.35 696.00L565.36 696.77L568.14 697.69L571.27 698.33L574.20 698.05L577.09 697.81L579.65 698.94L582.55 699.62L585.32 700.32L588.13 701.03L591.29 701.88L594.13 702.86L596.69 703.75L598.80 705.50L598.98 708.17L600.97 710.65L603.96 710.98L607.06 711.69L610.56 711.93L613.39 712.00L616.62 712.33L619.94 712.76L622.80 712.98L625.79 713.50L628.74 713.68L631.94 713.96L634.77 713.96L639.53 716.55L642.07 717.60L644.87 719.13L647.38 720.27L650.18 720.85L652.74 721.52L655.70 722.51L658.32 723.18L662.94 728.20L665.59 730.78L668.12 732.43L670.80 734.00L674.00 735.37L676.71 735.37L678.07 737.83L679.16 741.56L680.57 743.95L681.09 755.66L695.73 759.18L702.48 738.74L703.68 735.11L705.23 730.40L708.78 719.67L713.29 706.01L716.50 696.27L721.13 696.00L724.49 695.80L727.60 695.62L730.96 695.42L734.04 695.23L736.81 695.07L740.64 696.98L743.51 698.41L747.58 699.98L750.76 701.10L754.34 702.05L757.04 702.95L757.20 699.64L757.38 696.15L756.99 690.83L755.80 680.89L755.45 677.94L758.13 670.62L759.17 667.79L761.14 662.41L762.11 659.75L763.27 656.59L764.96 651.96L767.46 645.13L769.21 640.70L773.20 633.04L774.92 629.73L775.98 626.43L777.73 620.07L777.51 617.19L777.30 614.34L777.43 610.51L777.53 607.73L777.29 604.03L775.95 600.84L774.71 597.88L773.42 594.83L771.55 589.89L769.97 586.87L767.33 581.82L765.56 578.43L763.90 575.25L761.96 571.52L761.69 567.01L761.47 563.34L761.25 559.68L761.01 555.74L766.16 554.97L770.97 553.66L773.58 552.95L776.13 552.25L780.11 546.33L781.06 543.02L781.84 540.30L782.67 537.42L784.10 532.42L786.33 525.64L788.10 520.03L789.07 516.93L790.78 511.95L791.91 508.66L795.56 509.55L800.09 510.66L804.92 514.16L808.29 516.26L811.73 518.40L816.46 521.35L820.66 523.04L823.49 524.17L826.22 525.27L828.76 526.29L832.08 527.02L835.13 526.97L838.53 525.07L842.25 520.20L843.31 516.96L844.94 512.02L846.96 506.74Z" data-ward="3" /><path id="ward-7" class="ward" d="M316.71 1253.84L314.10 1253.39L311.51 1252.59L309.86 1250.01L310.10 1247.34L310.66 1244.73L311.27 1242.09L312.11 1238.72L313.11 1235.13L313.98 1230.81L314.24 1227.98L314.37 1225.11L314.74 1221.71L315.91 1218.77L317.39 1216.26L318.32 1213.68L318.45 1210.77L317.87 1208.05L317.45 1204.59L317.15 1201.64L314.39 1199.04L309.50 1202.52L306.66 1203.67L304.00 1204.46L300.75 1205.26L296.92 1205.81L294.17 1206.03L290.28 1206.48L287.60 1207.01L283.62 1207.53L278.58 1208.02L274.54 1208.97L270.20 1209.55L266.43 1210.38L261.67 1211.51L258.35 1212.40L255.13 1213.04L251.90 1213.78L249.03 1214.94L246.83 1216.60L245.99 1219.44L245.60 1222.75L245.24 1226.06L244.90 1229.13L244.60 1232.13L244.33 1235.04L243.97 1237.86L243.58 1240.83L243.09 1243.68L241.65 1246.87L239.21 1248.80L236.61 1250.30L235.26 1252.87L235.65 1255.90L236.34 1258.85L237.16 1263.76L239.30 1270.49L240.26 1274.47L241.20 1278.30L242.16 1281.12L242.91 1284.40L243.58 1287.40L243.85 1290.25L244.33 1293.77L244.39 1298.09L244.45 1301.06L244.15 1305.51L243.82 1308.39L243.82 1312.89L245.45 1315.10L249.57 1316.51L254.52 1321.13L256.15 1326.19L256.03 1331.76L255.55 1334.49L255.10 1337.12L254.04 1339.79L251.48 1344.11L251.15 1346.77L251.64 1349.98L253.53 1352.17L256.06 1353.30L257.21 1355.90L257.33 1360.26L256.57 1363.47L255.52 1366.87L258.26 1370.46L261.10 1371.84L264.43 1375.85L267.68 1373.61L275.06 1376.34L278.13 1377.48L282.38 1373.82L285.16 1371.54L287.38 1369.72L289.97 1365.12L292.15 1360.49L298.85 1357.07L302.56 1356.77L306.29 1356.47L314.74 1355.79L320.34 1356.74L322.97 1357.86L327.10 1359.63L330.09 1360.91L332.11 1362.80L334.70 1366.10L337.75 1370.01L340.15 1371.91L342.75 1373.97L346.02 1377.02L349.20 1379.99L353.94 1380.13L358.04 1379.66L360.95 1377.87L366.63 1373.50L371.14 1370.03L374.52 1368.89L377.95 1367.06L382.30 1366.22L386.00 1365.50L389.48 1363.69L391.96 1362.41L396.72 1359.95L402.02 1355.94L404.60 1353.98L407.36 1351.89L410.06 1350.12L412.76 1348.35L415.07 1343.75L417.26 1339.40L419.44 1336.47L421.58 1333.61L426.24 1330.71L431.39 1327.72L435.21 1326.99L440.24 1326.04L451.23 1328.12L460.49 1328.22L464.67 1329.01L456.32 1308.34L454.38 1292.69L453.66 1286.61L452.38 1275.66L451.28 1270.56L448.17 1270.42L435.67 1272.03L424.38 1271.23L419.56 1271.12L413.66 1270.99L399.71 1269.63L399.42 1273.27L393.91 1271.27L382.64 1269.63L381.90 1272.66L381.01 1276.12L379.84 1279.99L378.54 1282.59L375.89 1286.17L373.35 1284.73L370.13 1283.50L367.50 1282.56L362.95 1281.03L359.93 1279.83L355.83 1278.12L353.21 1276.28L351.19 1273.89L349.62 1271.44L348.30 1268.62L346.92 1265.61L345.55 1263.18L343.14 1260.81L341.12 1258.94L338.29 1257.34L335.75 1256.42L331.50 1255.03L328.88 1254.43L325.86 1254.13L323.03 1254.00L320.25 1254.10L316.71 1253.84Z" data-ward="7" /><path id="ward-6" class="ward" d="M403.75 1161.42L403.72 1157.62L403.14 1152.71L402.39 1148.98L401.45 1145.55L400.52 1141.90L399.74 1138.19L398.66 1134.39L396.38 1130.36L391.25 1129.89L384.55 1129.21L375.83 1128.74L373.12 1128.68L370.22 1128.17L367.58 1127.78L363.03 1127.18L356.68 1126.65L351.47 1126.21L345.40 1125.70L342.39 1125.53L341.58 1129.88L340.40 1136.26L339.88 1140.56L339.35 1143.42L338.53 1147.17L337.60 1152.31L336.24 1157.25L335.33 1160.04L334.55 1162.89L333.85 1166.72L332.35 1170.58L331.50 1173.21L330.54 1175.79L329.42 1179.22L327.28 1181.33L323.89 1180.09L321.45 1177.55L320.68 1183.06L319.39 1186.97L318.34 1190.26L316.53 1194.28L314.39 1199.04L317.15 1201.64L317.45 1204.59L317.87 1208.05L318.45 1210.77L318.32 1213.68L317.39 1216.26L315.91 1218.77L314.74 1221.71L314.37 1225.11L314.24 1227.98L313.98 1230.81L313.11 1235.13L312.11 1238.72L311.27 1242.09L310.66 1244.73L310.10 1247.34L309.86 1250.01L311.51 1252.59L314.10 1253.39L316.71 1253.84L320.25 1254.10L323.03 1254.00L325.86 1254.13L328.88 1254.43L331.50 1255.03L335.75 1256.42L338.29 1257.34L341.12 1258.94L343.14 1260.81L345.55 1263.18L346.92 1265.61L348.30 1268.62L349.62 1271.44L351.19 1273.89L353.21 1276.28L355.83 1278.12L359.93 1279.83L362.95 1281.03L367.50 1282.56L370.13 1283.50L373.35 1284.73L375.89 1286.17L378.54 1282.59L379.84 1279.99L381.01 1276.12L381.90 1272.66L382.64 1269.63L393.91 1271.27L399.42 1273.27L399.71 1269.63L413.66 1270.99L419.56 1271.12L424.38 1271.23L435.67 1272.03L448.17 1270.42L451.28 1270.56L452.38 1275.66L453.66 1286.61L454.38 1292.69L456.32 1308.34L464.67 1329.01L472.56 1325.19L476.20 1323.42L484.96 1321.03L487.94 1319.36L494.21 1315.83L500.77 1312.14L504.95 1309.79L513.35 1307.64L517.09 1306.69L521.26 1305.62L523.10 1301.82L524.44 1299.05L527.98 1291.74L531.24 1284.99L534.65 1280.68L537.72 1276.80L541.15 1270.70L546.30 1261.54L554.08 1250.22L553.45 1245.37L551.10 1232.20L551.16 1228.27L548.69 1211.90L541.32 1198.42L535.46 1189.99L533.69 1185.31L530.30 1180.18L529.14 1165.91L528.15 1158.86L527.19 1152.94L524.31 1140.59L523.41 1135.44L511.12 1137.09L507.74 1137.18L504.06 1137.55L500.78 1138.38L497.13 1138.77L493.87 1139.57L491.37 1140.61L488.90 1141.75L485.88 1143.25L482.87 1145.61L471.92 1153.54L471.95 1156.54L472.34 1160.04L472.52 1163.28L472.73 1166.47L470.68 1168.40L467.70 1169.63L465.14 1170.79L462.15 1171.13L459.29 1172.02L458.14 1174.50L455.97 1177.13L453.47 1178.45L450.87 1179.43L448.19 1179.65L445.51 1179.86L441.44 1180.60L438.72 1180.84L436.10 1180.44L433.75 1179.12L432.72 1176.58L432.12 1173.98L432.27 1171.25L433.48 1168.71L433.02 1165.98L432.57 1163.28L431.85 1160.68L430.55 1158.26L427.78 1158.63L425.12 1159.09L422.44 1159.09L418.88 1159.64L414.39 1161.11L411.31 1162.24L407.94 1163.47L405.16 1164.33L403.75 1161.42Z" data-ward="6" /><path id="ward-10" class="ward" d="M231.15 1041.67L224.86 1042.67L222.02 1042.92L219.33 1043.15L216.68 1043.24L213.03 1043.37L210.32 1043.21L206.50 1043.27L199.83 1043.37L196.24 1043.21L193.58 1043.40L189.94 1043.33L186.65 1043.37L183.54 1043.18L179.75 1043.15L176.82 1042.94L172.75 1043.15L169.64 1044.07L125.41 1046.70L121.67 1046.74L118.45 1046.74L115.55 1046.46L112.87 1046.09L110.18 1045.33L106.63 1044.56L99.12 1043.33L95.56 1043.24L92.39 1043.24L88.47 1043.46L85.70 1043.55L82.23 1043.55L79.04 1044.07L76.44 1044.68L73.67 1045.30L69.96 1046.06L67.55 1047.16L64.90 1048.60L62.60 1051.70L61.58 1055.16L60.43 1057.92L57.33 1059.42L54.64 1059.70L51.90 1059.60L48.61 1058.90L46.05 1057.80L43.43 1056.36L40.26 1055.84L36.58 1055.62L33.02 1055.41L29.71 1055.28L26.27 1054.82L21.49 1064.51L19.95 1067.73L16.79 1074.36L14.33 1079.58L14.29 1082.57L12.30 1087.05L12.90 1090.16L13.56 1093.55L11.71 1097.66L9.67 1102.19L10.91 1105.12L12.61 1109.15L14.82 1116.12L15.91 1119.58L18.98 1121.88L18.80 1126.96L21.23 1135.11L22.63 1137.64L24.65 1141.29L76.36 1150.17L79.14 1152.41L79.78 1146.36L81.62 1143.89L84.76 1143.97L87.93 1143.12L90.42 1141.23L92.48 1139.25L95.57 1136.53L98.08 1137.37L101.46 1138.72L105.35 1139.48L109.45 1139.80L112.79 1140.03L115.23 1141.39L118.76 1142.91L122.78 1141.44L125.87 1140.43L127.23 1137.88L127.98 1134.20L128.51 1131.20L130.61 1128.97L133.68 1128.52L136.44 1128.28L141.06 1128.24L144.88 1128.35L148.29 1128.43L151.32 1128.69L154.74 1129.08L158.02 1129.64L160.86 1129.98L162.75 1131.97L165.60 1132.71L169.76 1132.77L173.06 1132.85L176.08 1132.84L179.39 1132.56L182.29 1132.56L185.50 1133.56L186.03 1136.16L186.37 1139.11L186.77 1142.35L187.69 1146.72L188.64 1149.60L190.38 1151.68L192.78 1150.56L195.64 1148.49L198.66 1146.43L201.22 1144.69L204.10 1143.32L207.93 1142.81L210.96 1142.48L213.45 1144.34L215.26 1140.03L218.22 1128.54L217.59 1124.89L215.54 1117.05L214.69 1114.11L213.91 1111.23L212.70 1107.55L212.07 1104.80L209.38 1103.72L206.67 1104.37L204.59 1100.14L204.86 1096.52L204.14 1093.95L201.55 1086.63L201.58 1082.92L200.73 1079.83L200.43 1077.13L200.28 1074.28L200.12 1070.34L199.90 1067.21L204.15 1065.86L213.93 1064.19L221.88 1062.18L229.09 1060.03L231.36 1057.13L232.28 1052.28L233.20 1047.42L232.17 1044.55L231.15 1041.67Z" data-ward="10" /><path id="ward-9" class="ward" d="M329.19 1158.24L329.02 1153.60L328.70 1147.32L328.42 1140.73L328.36 1137.60L326.59 1133.54L325.04 1131.11L323.21 1128.80L321.38 1126.35L319.90 1123.70L318.49 1119.66L317.04 1115.64L315.01 1112.68L312.20 1110.95L308.55 1109.36L305.82 1109.30L303.58 1110.82L298.42 1112.36L295.67 1113.03L292.56 1113.88L289.74 1114.67L286.32 1115.58L284.32 1117.35L283.56 1120.17L281.51 1122.11L277.96 1123.29L273.75 1124.93L271.20 1126.43L267.01 1127.95L262.50 1127.94L259.00 1128.19L258.50 1132.89L258.78 1137.21L259.20 1140.06L259.28 1143.01L258.40 1147.53L258.17 1150.28L257.18 1153.79L256.52 1156.60L255.77 1159.22L251.69 1158.94L248.41 1157.12L245.81 1156.42L243.12 1156.60L240.20 1157.00L237.20 1157.15L234.09 1157.12L230.37 1157.36L225.37 1158.09L222.35 1158.69L219.40 1158.05L218.45 1155.47L216.29 1152.81L214.81 1149.62L214.17 1146.94L213.45 1144.34L210.96 1142.48L207.93 1142.81L204.10 1143.32L201.22 1144.69L198.66 1146.43L195.64 1148.49L192.78 1150.56L190.38 1151.68L188.64 1149.60L187.69 1146.72L186.77 1142.35L186.37 1139.11L186.03 1136.16L185.50 1133.56L182.29 1132.56L179.39 1132.56L176.08 1132.84L173.06 1132.85L169.76 1132.77L165.60 1132.71L162.75 1131.97L160.86 1129.98L158.02 1129.64L154.74 1129.08L151.32 1128.69L148.29 1128.43L144.88 1128.35L141.06 1128.24L136.44 1128.28L133.68 1128.52L130.61 1128.97L128.51 1131.20L127.98 1134.20L127.23 1137.88L125.87 1140.43L122.78 1141.44L118.76 1142.91L115.23 1141.39L112.79 1140.03L109.45 1139.80L105.35 1139.48L101.46 1138.72L98.08 1137.37L95.57 1136.53L92.48 1139.25L90.42 1141.23L87.93 1143.12L84.76 1143.97L81.62 1143.89L79.78 1146.36L79.14 1152.41L77.87 1154.81L77.05 1157.71L76.35 1161.23L75.87 1164.02L75.81 1167.08L75.15 1169.87L75.48 1172.66L78.07 1173.27L81.99 1172.51L84.77 1172.32L88.47 1172.20L91.82 1172.32L95.17 1174.13L95.83 1176.98L96.10 1179.68L96.49 1182.31L97.10 1185.22L97.91 1188.22L98.24 1191.50L98.00 1194.29L97.76 1197.75L96.98 1200.33L94.17 1201.03L90.58 1201.03L88.35 1202.93L86.94 1205.63L85.70 1208.87L84.49 1212.64L83.95 1215.25L83.71 1218.04L83.77 1221.01L83.89 1223.83L84.10 1226.55L83.68 1229.37L83.02 1232.28L82.90 1235.13L83.11 1238.26L83.50 1241.50L83.86 1244.54L84.22 1247.60L84.77 1250.57L85.37 1253.70L86.03 1256.82L87.18 1259.61L88.56 1263.26L89.50 1267.21L90.22 1270.03L91.43 1273.34L92.09 1276.03L94.56 1277.32L97.40 1277.07L100.75 1276.80L104.27 1276.25L106.99 1275.94L109.76 1275.54L112.72 1275.18L115.67 1274.96L118.66 1274.65L121.70 1274.50L124.78 1274.19L127.61 1273.61L130.60 1273.40L133.55 1273.21L136.63 1273.03L139.64 1272.97L142.57 1272.66L146.49 1272.36L150.41 1272.36L153.54 1271.65L156.53 1270.95L159.87 1270.03L162.53 1269.72L165.27 1269.20L168.26 1268.89L171.27 1268.71L174.35 1268.40L177.51 1268.28L180.74 1268.07L183.91 1268.04L186.77 1268.22L189.57 1268.37L192.26 1268.53L195.06 1268.43L199.16 1268.53L202.21 1268.62L205.43 1268.86L208.33 1269.14L211.16 1269.54L215.35 1270.27L220.93 1270.24L223.35 1267.94L225.97 1265.92L228.80 1264.60L232.60 1264.18L237.16 1263.76L236.34 1258.85L235.65 1255.90L235.26 1252.87L236.61 1250.30L239.21 1248.80L241.65 1246.87L243.09 1243.68L243.58 1240.83L243.97 1237.86L244.33 1235.04L244.60 1232.13L244.90 1229.13L245.24 1226.06L245.60 1222.75L245.99 1219.44L246.83 1216.60L249.03 1214.94L251.90 1213.78L255.13 1213.04L258.35 1212.40L261.67 1211.51L266.43 1210.38L270.20 1209.55L274.54 1208.97L278.58 1208.02L283.62 1207.53L287.60 1207.01L290.28 1206.48L294.17 1206.03L296.92 1205.81L300.75 1205.26L304.00 1204.46L306.66 1203.67L309.50 1202.52L314.39 1199.04L316.53 1194.28L318.34 1190.26L319.39 1186.97L320.68 1183.06L321.45 1177.55L322.90 1174.80L324.19 1171.87L325.53 1168.92L326.90 1165.83L328.77 1161.33L329.19 1158.24Z" data-ward="9" /></svg>