<svg viewBox="0 0 1000.00 894.90" xmlns="http://www.w3.org/2000/svg"><style>.ward { fill: #e2e8f0; stroke: #fff; stroke-width: 0.5px; } .ward:hover { fill: #cbd5e1; }</style><path id="ward-4" class="ward" d="M444.08 130.89L441.76 126.38L440.25 123.44L438.34 119.73L435.26 118.08L431.11 107.77L427.95 99.91L425.87 94.74L423.31 91.33L411.67 75.81L392.51 64.16L389.41 65.63L383.86 67.75L372.06 72.22L364.11 74.90L360.53 76.17L356.93 77.45L351.47 79.48L348.45 80.61L345.68 81.64L344.53 85.48L341.63 91.33L341.90 95.12L342.33 101.13L342.79 107.66L343.20 113.46L343.53 118.04L345.49 124.31L346.44 127.33L347.79 131.63L343.24 132.11L339.20 132.54L334.50 133.04L330.28 133.49L324.56 134.50L319.83 135.34L314.15 135.28L307.82 135.22L298.58 135.13L292.06 135.82L291.42 145.61L291.11 150.36L291.70 156.80L291.49 161.02L291.20 167.13L296.12 165.82L301.80 164.00L306.62 162.44L314.86 160.14L317.96 159.85L318.93 162.47L319.44 165.41L321.49 168.35L323.32 171.18L324.74 173.69L325.44 176.40L326.10 180.04L326.95 183.62L328.55 188.28L333.38 188.70L336.85 187.40L340.31 185.63L344.02 185.04L347.55 185.13L351.43 183.97L354.67 182.93L358.16 182.09L361.07 181.37L364.78 180.44L367.89 179.65L369.64 184.23L370.88 187.39L371.97 190.64L372.96 194.56L374.10 198.45L375.06 201.35L375.90 207.33L375.67 211.10L376.45 214.76L377.75 219.53L379.41 223.13L380.49 227.35L384.26 226.47L390.57 224.35L395.14 222.83L401.40 221.12L409.17 219.54L410.63 222.82L414.12 225.23L416.07 228.44L418.19 232.92L419.59 236.06L420.92 238.67L421.79 241.56L424.30 246.46L426.83 248.18L427.93 251.31L428.87 254.10L428.99 258.45L428.88 262.41L429.41 267.28L430.38 271.47L431.19 277.20L432.61 281.36L436.52 285.65L438.91 290.98L439.10 294.55L436.29 295.89L431.13 297.85L426.20 299.36L422.64 300.65L419.63 301.81L416.49 302.90L413.27 304.03L410.29 305.25L406.02 308.09L408.17 312.95L410.87 318.80L413.94 324.01L417.49 330.66L419.58 336.48L421.21 341.01L423.12 345.16L425.55 350.45L428.25 356.41L430.71 363.14L432.58 369.64L434.34 374.81L437.14 382.92L440.40 381.91L447.86 379.52L454.75 377.40L459.41 376.08L464.24 374.63L467.78 373.58L473.47 371.89L477.53 371.41L485.04 372.10L488.84 371.97L494.05 370.00L500.70 367.67L504.43 366.15L508.60 363.63L511.80 361.95L508.95 355.44L506.00 348.78L502.98 342.50L499.04 335.44L494.19 324.69L490.17 316.00L487.81 307.19L486.72 303.10L485.56 299.67L482.33 289.94L481.11 285.60L479.01 278.13L475.69 266.54L471.63 255.81L468.96 252.13L464.82 243.98L462.77 239.86L460.39 234.89L457.20 226.40L451.72 217.57L445.89 208.29L438.68 189.33L436.66 182.42L434.77 175.90L433.80 170.18L433.29 161.61L434.15 156.66L434.79 153.15L436.35 149.35L440.20 140.15L441.54 136.96L444.08 130.89Z" data-ward="4" /><path id="ward-10" class="ward" d="M556.25 536.13L554.91 533.72L552.96 531.66L550.38 528.48L550.44 524.96L549.45 522.32L548.42 519.69L545.66 513.18L543.92 510.66L543.12 506.58L542.71 502.96L542.43 499.99L542.05 495.72L541.32 491.16L540.12 487.98L538.85 485.29L537.46 482.72L534.95 481.37L531.97 482.87L527.76 484.46L524.33 484.73L520.85 485.33L515.53 486.95L510.46 489.92L507.85 491.45L503.98 493.25L501.24 494.49L497.56 496.39L494.98 497.81L492.25 499.29L489.44 500.99L487.40 503.00L485.22 505.33L482.87 506.79L478.55 508.08L474.72 509.40L471.95 510.56L467.49 511.76L464.60 512.55L461.10 513.51L458.02 514.53L455.29 515.31L452.09 516.17L448.99 517.03L444.41 518.79L439.43 520.86L441.77 525.65L444.52 530.48L446.36 534.16L448.23 537.90L450.64 543.48L451.64 546.71L452.78 550.38L454.11 554.68L455.13 557.91L456.61 560.49L460.01 562.00L462.11 565.38L463.22 568.51L464.89 573.90L466.04 577.65L467.38 581.98L469.27 587.58L470.63 591.65L472.11 595.50L473.00 598.25L474.11 600.94L475.10 603.63L476.42 607.06L479.35 608.71L482.18 609.64L484.28 611.42L486.04 615.06L487.84 618.50L490.81 619.70L495.43 618.74L499.97 617.99L503.95 617.53L509.23 616.94L515.02 615.86L517.82 615.46L521.05 615.02L525.58 614.25L529.44 613.79L533.84 613.32L536.89 613.10L542.04 612.72L543.33 616.92L545.12 619.98L547.88 621.40L549.26 624.64L553.27 624.43L555.30 626.52L556.82 630.82L559.67 632.22L560.45 635.58L560.82 640.15L557.36 643.61L558.64 646.50L560.52 649.60L564.61 649.35L567.56 648.78L571.61 646.98L574.06 645.41L578.87 644.79L584.74 643.38L588.32 642.53L591.34 641.71L594.17 640.89L598.12 639.75L602.36 638.53L608.34 635.55L608.26 632.26L608.17 628.81L608.75 621.90L609.00 618.90L609.36 614.59L610.20 607.87L611.19 599.88L611.58 596.69L612.26 591.18L612.64 587.87L615.18 565.42L615.40 560.22L615.56 556.55L615.78 551.28L616.32 538.28L616.78 527.55L612.15 527.88L591.78 529.94L588.89 530.72L585.53 531.64L580.47 532.83L577.61 533.48L574.85 534.15L571.61 534.83L566.31 536.10L562.47 537.01L558.85 537.90L556.25 536.13Z" data-ward="10" /><path id="ward-18" class="ward" d="M206.79 270.13L197.93 272.32L192.43 273.77L186.93 275.22L183.36 276.23L179.33 277.17L175.23 277.90L170.44 279.00L166.81 280.71L163.94 281.04L161.15 281.21L157.97 281.78L153.41 283.53L150.59 285.53L146.15 285.32L140.22 285.76L135.86 286.33L132.46 286.43L126.64 287.05L123.50 287.53L118.87 288.11L115.72 287.47L112.15 286.58L108.47 285.21L105.43 285.16L102.53 284.86L98.35 284.83L94.98 284.94L90.85 285.76L86.70 286.67L87.86 292.86L88.41 296.04L88.30 298.79L88.38 302.18L88.47 305.29L89.20 309.84L90.11 313.11L91.74 318.75L92.94 322.71L93.51 325.42L94.25 329.75L95.14 333.76L96.32 338.13L97.00 340.85L97.36 345.22L97.44 348.45L97.43 352.26L97.93 356.27L99.19 360.17L100.05 362.98L100.78 366.26L101.50 368.94L103.30 372.46L106.30 376.15L106.92 379.35L107.82 383.01L109.19 387.26L111.07 392.08L112.61 395.62L117.65 394.63L120.77 392.25L124.15 391.34L128.05 390.83L129.91 393.37L131.70 396.43L134.60 396.28L137.93 395.85L142.71 395.27L145.59 394.93L148.85 394.18L153.82 392.94L158.97 391.35L163.12 390.12L167.50 389.15L170.37 388.86L169.20 384.64L165.95 374.86L164.60 370.41L162.31 368.72L160.68 364.72L160.04 361.63L160.70 357.17L164.74 356.02L167.48 357.28L171.02 357.07L174.19 356.42L178.10 355.49L177.55 352.06L183.36 351.19L183.88 354.61L184.20 357.77L185.32 360.81L185.96 364.08L186.28 366.83L186.53 370.68L187.41 375.74L189.07 378.28L189.79 381.03L194.41 381.86L197.90 381.48L202.00 381.38L206.39 380.94L210.29 380.38L213.05 379.81L217.29 378.73L220.55 377.96L223.44 377.27L227.45 376.27L231.19 375.47L236.00 374.52L239.36 373.70L243.72 372.27L247.47 371.10L250.19 370.27L254.62 368.75L258.45 367.22L260.79 365.53L261.52 362.62L262.71 357.86L263.58 354.07L264.57 349.41L265.26 346.53L266.31 342.12L266.84 338.75L250.42 322.32L237.97 310.09L234.37 305.60L226.61 295.90L221.75 289.75L206.79 270.13Z" data-ward="18" /><path id="ward-11" class="ward" d="M547.88 621.40L545.12 619.98L543.33 616.92L542.04 612.72L536.89 613.10L533.84 613.32L529.44 613.79L525.58 614.25L521.05 615.02L517.82 615.46L515.02 615.86L509.23 616.94L503.95 617.53L499.97 617.99L495.43 618.74L490.81 619.70L491.32 626.53L492.38 629.45L493.80 632.73L495.29 635.06L496.92 637.31L498.84 639.60L501.35 644.18L502.68 647.56L504.26 651.24L506.48 655.43L508.18 658.60L510.59 663.75L512.53 668.55L513.81 671.75L515.27 675.84L516.33 680.57L516.79 683.32L517.43 686.22L518.08 689.04L518.80 691.70L519.60 694.63L520.78 698.94L523.07 706.25L524.85 713.16L525.91 717.30L526.99 721.55L527.99 726.02L528.39 729.51L529.20 733.76L530.24 736.92L531.69 739.95L533.33 742.53L533.85 745.87L533.43 749.23L530.24 751.59L526.72 754.11L523.11 756.66L518.67 759.78L514.88 762.45L509.28 766.39L503.68 770.33L498.61 773.87L493.54 777.41L483.98 784.07L472.19 792.33L452.22 805.48L428.30 821.01L430.97 822.75L433.90 824.60L439.45 828.22L442.75 830.21L445.64 832.23L448.69 834.04L453.20 836.99L463.00 841.88L470.41 845.54L478.83 849.73L482.12 851.37L486.57 853.58L496.21 858.38L499.48 859.81L502.42 860.73L505.70 861.84L534.17 870.61L537.58 871.68L544.13 873.70L549.64 874.98L566.62 879.43L627.54 889.07L642.04 892.08L661.65 892.49L667.32 892.67L673.00 892.84L678.26 893.00L681.36 893.09L684.39 893.18L687.23 893.27L692.14 893.70L695.86 894.26L699.93 894.85L704.39 894.90L704.09 892.07L703.74 888.81L694.52 802.06L693.96 796.27L687.53 730.21L640.57 673.10L608.34 635.55L602.36 638.53L598.12 639.75L594.17 640.89L591.34 641.71L588.32 642.53L584.74 643.38L578.87 644.79L574.06 645.41L571.61 646.98L567.56 648.78L564.61 649.35L560.52 649.60L558.64 646.50L557.36 643.61L560.82 640.15L560.45 635.58L559.67 632.22L556.82 630.82L555.30 626.52L553.27 624.43L549.26 624.64L547.88 621.40Z" data-ward="11" /><path id="ward-7" class="ward" d="M609.58 370.58L607.52 367.90L605.09 364.74L602.21 360.48L600.40 357.30L598.53 351.12L597.47 348.24L596.19 342.11L594.64 334.97L590.66 335.74L586.78 336.46L583.77 336.99L580.75 337.51L576.23 338.44L568.29 340.51L564.58 341.21L560.45 342.59L555.96 344.13L550.26 346.69L546.77 348.05L542.66 349.90L539.73 351.06L536.01 352.63L532.77 353.80L529.84 355.11L525.92 356.65L521.57 358.59L518.07 360.05L515.26 360.93L511.80 361.95L508.60 363.63L504.43 366.15L500.70 367.67L494.05 370.00L488.84 371.97L485.04 372.10L477.53 371.41L473.47 371.89L467.78 373.58L464.24 374.63L459.41 376.08L459.35 379.54L460.36 382.40L462.22 387.26L463.44 390.26L464.86 393.62L467.63 393.44L469.08 396.51L469.28 399.71L470.72 404.06L472.45 410.37L473.53 413.25L475.00 416.27L476.11 418.91L477.22 421.52L479.43 426.19L482.25 428.72L485.02 430.60L487.79 432.11L489.25 434.91L493.32 433.62L496.27 432.97L498.91 431.26L502.83 428.15L505.83 431.65L506.96 434.59L508.12 437.72L510.36 440.73L514.70 439.75L517.06 442.18L517.39 446.73L514.33 448.26L504.76 451.29L505.97 453.79L506.96 456.92L507.81 459.95L508.63 462.88L509.26 465.63L510.94 469.59L512.28 472.55L513.65 475.09L514.80 477.71L515.71 480.31L516.60 483.68L515.53 486.95L520.85 485.33L524.33 484.73L527.76 484.46L531.97 482.87L534.95 481.37L537.46 482.72L538.85 485.29L540.12 487.98L541.32 491.16L542.05 495.72L542.43 499.99L542.71 502.96L543.12 506.58L543.92 510.66L545.66 513.18L548.42 519.69L549.45 522.32L550.44 524.96L550.38 528.48L552.96 531.66L554.91 533.72L556.25 536.13L558.85 537.90L562.47 537.01L566.31 536.10L571.61 534.83L574.85 534.15L577.61 533.48L580.47 532.83L585.53 531.64L588.89 530.72L591.78 529.94L612.15 527.88L616.78 527.55L619.99 527.04L637.91 524.19L637.31 519.86L633.30 500.87L632.39 493.96L632.68 487.02L636.23 484.26L639.90 482.42L643.57 480.58L646.86 478.99L650.43 477.52L656.22 475.37L657.51 472.39L656.58 467.36L655.65 464.02L654.46 461.32L652.70 457.08L651.21 453.33L650.16 450.77L648.86 445.89L647.99 442.70L646.84 439.41L645.62 435.73L644.56 432.63L642.66 426.60L641.44 423.00L640.44 419.75L639.01 415.48L636.92 410.10L635.27 404.39L633.31 401.07L631.55 398.25L628.95 394.72L624.08 389.18L621.21 386.34L619.53 384.14L617.48 381.27L615.39 378.61L611.66 373.33L609.58 370.58Z" data-ward="7" /><path id="ward-2" class="ward" d="M281.16 149.51L278.25 149.41L275.62 150.59L272.86 150.77L269.98 152.98L268.24 157.19L266.18 158.82L261.47 158.26L257.79 159.39L254.82 160.30L251.17 161.42L244.88 163.36L238.67 165.26L228.30 168.45L224.17 169.72L223.76 187.99L223.67 192.29L222.03 199.78L220.64 206.15L216.33 214.78L214.67 218.10L213.04 221.35L211.01 225.42L209.47 228.49L208.15 231.27L206.81 235.06L205.64 238.38L204.57 241.41L203.42 244.66L202.37 250.53L202.51 253.67L202.76 259.22L206.79 270.13L221.75 289.75L226.61 295.90L234.37 305.60L237.97 310.09L250.42 322.32L266.84 338.75L279.70 349.13L281.83 351.24L285.80 355.20L289.82 359.22L291.77 362.32L294.10 366.04L295.99 369.05L298.39 372.88L299.94 375.58L302.94 385.00L304.18 389.05L304.26 405.11L301.70 417.58L301.08 420.30L300.47 423.02L295.08 440.43L293.07 447.67L292.49 450.46L295.93 450.68L303.24 451.13L307.59 451.40L311.00 451.61L315.58 451.90L318.65 452.09L322.64 452.15L326.30 451.49L329.35 449.98L332.31 448.89L336.91 447.62L339.85 444.39L345.05 442.88L347.87 441.58L350.69 438.50L348.36 433.52L346.31 429.67L344.92 426.65L343.69 423.95L341.77 420.16L339.67 414.87L338.58 410.36L336.86 407.54L336.60 401.14L335.67 397.03L335.05 388.86L335.16 385.83L334.19 382.49L333.32 379.23L332.58 375.57L330.88 370.47L330.78 365.11L336.01 363.36L338.98 362.36L342.12 361.28L346.66 359.85L350.79 359.27L353.18 360.68L356.18 362.99L359.26 362.22L363.05 361.11L367.03 360.75L369.63 358.51L373.32 355.04L370.87 349.38L368.48 343.64L366.74 337.75L365.67 333.98L363.82 328.42L361.45 326.25L357.16 324.73L353.07 323.51L351.21 320.72L349.56 316.40L347.75 311.76L346.50 308.69L345.07 305.86L342.78 302.46L340.98 299.25L338.85 294.38L337.40 290.95L334.88 284.84L333.19 279.94L332.22 276.80L331.17 273.31L329.81 269.47L328.33 266.53L326.42 263.50L324.78 260.33L322.69 256.70L320.06 251.82L318.28 248.56L316.07 244.58L314.23 241.42L312.51 238.25L309.97 233.43L307.96 229.34L306.01 225.66L303.27 221.72L300.93 219.16L296.17 214.75L292.57 210.74L289.01 207.55L289.17 204.16L289.42 199.88L289.67 195.77L289.90 191.62L290.00 188.68L290.19 185.25L290.34 182.38L290.61 177.48L290.79 174.46L291.20 167.13L291.49 161.02L291.70 156.80L291.11 150.36L287.73 150.55L284.84 150.72L281.16 149.51Z" data-ward="2" /><path id="ward-19" class="ward" d="M153.41 283.53L157.97 281.78L161.15 281.21L163.94 281.04L166.81 280.71L170.44 279.00L175.23 277.90L179.33 277.17L183.36 276.23L186.93 275.22L192.43 273.77L197.93 272.32L206.79 270.13L202.76 259.22L202.51 253.67L202.37 250.53L203.42 244.66L204.57 241.41L205.64 238.38L206.81 235.06L208.15 231.27L209.47 228.49L211.01 225.42L213.04 221.35L214.67 218.10L216.33 214.78L220.64 206.15L222.03 199.78L223.67 192.29L223.76 187.99L224.17 169.72L221.98 163.28L216.63 147.57L214.39 141.00L212.44 135.27L211.42 132.28L210.44 129.41L207.47 124.36L203.89 118.30L198.74 113.70L190.91 106.68L188.02 103.66L184.25 101.05L179.40 97.14L176.45 94.76L174.87 92.33L173.10 89.61L171.24 86.76L170.45 83.34L169.69 80.09L161.91 85.82L156.42 86.81L153.67 87.45L150.86 88.20L146.87 89.17L143.83 89.52L140.72 89.92L137.79 91.57L134.97 94.01L131.64 96.34L129.01 97.77L126.12 98.69L122.03 100.07L118.25 101.33L113.99 102.80L108.72 104.68L105.58 105.06L102.48 105.60L97.40 107.97L94.75 109.01L90.35 109.99L87.36 110.59L82.86 110.86L79.09 111.30L76.35 111.71L76.43 116.76L77.14 120.91L77.68 124.37L78.40 128.07L79.22 134.57L79.63 138.58L80.05 141.86L80.47 145.97L80.86 149.22L81.31 152.64L81.68 155.90L82.21 160.88L82.81 165.94L83.33 170.09L83.87 175.24L84.19 181.96L84.19 186.39L84.09 189.54L84.35 196.12L84.87 201.93L85.26 208.45L85.90 215.01L86.34 219.70L85.91 223.34L85.26 227.06L84.20 231.93L83.92 235.94L83.86 241.04L83.96 245.35L84.54 249.31L84.97 252.31L85.38 255.58L85.35 259.36L84.95 264.73L84.59 267.49L84.05 271.62L84.31 275.56L84.58 278.64L85.86 283.73L86.70 286.67L90.85 285.76L94.98 284.94L98.35 284.83L102.53 284.86L105.43 285.16L108.47 285.21L112.15 286.58L115.72 287.47L118.87 288.11L123.50 287.53L126.64 287.05L132.46 286.43L135.86 286.33L140.22 285.76L146.15 285.32L150.59 285.53L153.41 283.53Z" data-ward="19" /><path id="ward-15" class="ward" d="M215.49 456.78L213.85 453.27L211.80 449.26L210.86 446.35L214.34 445.35L218.73 444.02L218.18 440.65L217.76 433.54L217.11 429.75L212.43 430.89L209.13 431.56L205.29 432.26L201.99 432.90L199.60 436.73L196.49 437.52L198.44 442.61L200.57 445.02L201.57 449.03L197.75 451.81L194.62 452.62L190.10 453.26L184.05 454.96L181.12 456.16L178.59 457.23L175.05 458.71L172.13 459.86L168.96 460.62L166.04 461.10L162.14 462.08L156.75 463.50L152.06 464.05L147.11 464.45L147.72 468.28L148.16 471.28L148.25 475.42L145.39 476.28L140.72 477.15L136.34 479.94L138.51 484.36L139.69 487.59L140.65 490.67L141.53 493.70L142.32 496.95L143.73 500.58L145.09 504.33L146.24 508.78L147.50 513.76L150.31 518.15L152.94 519.96L159.71 525.30L163.24 528.46L166.02 532.39L168.47 536.76L170.70 540.71L172.63 545.21L174.84 549.34L176.85 553.02L178.46 557.26L180.51 562.15L182.09 566.56L183.19 570.38L179.53 570.97L172.87 572.99L167.69 574.68L164.78 575.65L160.20 575.93L157.62 577.12L153.90 579.51L150.49 581.28L147.06 582.94L144.46 584.17L141.65 585.51L138.84 586.19L135.92 586.15L132.72 586.32L128.86 586.69L108.13 590.09L59.50 598.08L56.13 598.77L29.80 604.14L16.20 606.98L11.05 608.06L8.25 608.64L9.81 611.77L12.76 612.56L15.99 613.43L18.60 614.27L21.41 615.22L25.25 616.49L28.72 617.67L31.74 618.67L34.59 619.79L37.11 621.22L39.96 622.84L59.52 634.04L69.55 644.13L78.63 656.08L85.54 662.97L96.33 672.99L107.48 684.01L119.74 695.96L131.06 708.05L142.47 718.52L159.74 732.76L172.20 742.49L177.77 747.15L182.76 751.77L190.90 758.19L199.30 763.55L199.88 753.13L200.68 738.67L201.59 721.71L201.78 718.25L202.56 703.59L202.92 696.85L203.26 690.41L203.37 680.33L203.42 674.84L203.49 668.08L203.24 662.89L202.74 658.23L202.16 653.29L201.30 648.83L200.59 645.85L199.55 642.50L198.53 639.70L196.56 634.29L195.35 630.99L194.04 628.19L192.33 623.32L194.35 619.96L195.84 617.48L195.07 614.34L194.29 611.09L192.79 604.89L191.80 602.15L191.28 598.84L190.34 593.63L192.13 591.11L193.78 588.79L195.95 585.65L197.64 583.02L199.33 580.41L201.28 577.10L203.04 573.82L205.13 569.39L206.20 566.85L207.29 564.28L208.32 561.64L209.35 558.52L210.53 554.41L211.47 550.57L212.20 547.25L212.91 543.83L213.41 540.97L213.98 537.72L214.55 534.45L215.10 531.33L215.64 528.24L216.20 525.05L216.76 521.88L217.35 518.44L218.05 514.37L218.86 509.67L219.43 506.37L219.95 503.36L220.46 500.42L220.99 497.35L221.94 491.85L222.66 487.71L223.33 483.87L223.81 481.10L224.31 478.23L224.93 474.63L225.44 471.75L226.10 467.94L226.74 464.30L227.33 460.95L228.06 456.84L221.64 456.96L215.49 456.78Z" data-ward="15" /><path id="ward-16" class="ward" d="M100.78 366.26L100.05 362.98L99.19 360.17L97.93 356.27L97.43 352.26L97.44 348.45L92.69 348.86L88.83 349.93L85.32 350.23L85.47 353.40L84.38 356.45L80.93 357.69L77.43 359.33L74.92 360.55L72.20 361.86L69.48 363.60L68.00 366.40L64.69 366.83L61.64 367.10L57.90 367.62L53.36 367.52L49.75 367.53L45.58 367.57L40.34 367.74L36.35 367.88L31.61 368.08L28.02 368.24L21.22 368.55L16.35 368.79L10.48 369.02L10.59 374.18L10.65 377.44L10.72 381.07L10.78 383.97L10.87 388.30L10.94 391.74L11.01 395.69L11.10 400.13L11.44 405.69L11.74 410.57L11.96 414.13L12.19 417.85L12.40 421.35L12.60 424.60L12.79 427.57L12.98 430.68L13.18 434.04L13.46 438.54L13.71 442.69L13.93 446.29L12.85 450.55L12.64 453.56L12.42 456.68L12.22 459.72L11.94 463.71L11.71 466.98L11.51 471.07L11.36 474.17L11.19 477.49L11.04 480.50L10.82 484.93L10.62 489.04L10.43 492.90L10.19 497.64L10.03 500.78L9.87 504.13L9.06 520.46L8.71 527.53L8.30 535.69L7.89 543.99L7.17 552.95L6.55 560.73L5.98 567.90L5.39 575.31L4.82 582.48L4.39 587.89L3.90 593.93L3.46 599.44L2.99 605.42L2.65 609.71L8.25 608.64L11.05 608.06L16.20 606.98L29.80 604.14L56.13 598.77L59.50 598.08L108.13 590.09L128.86 586.69L132.72 586.32L135.92 586.15L138.84 586.19L141.65 585.51L144.46 584.17L147.06 582.94L150.49 581.28L153.90 579.51L157.62 577.12L160.20 575.93L164.78 575.65L167.69 574.68L172.87 572.99L179.53 570.97L183.19 570.38L182.09 566.56L180.51 562.15L178.46 557.26L176.85 553.02L174.84 549.34L172.63 545.21L170.70 540.71L168.47 536.76L166.02 532.39L163.24 528.46L159.71 525.30L152.94 519.96L150.31 518.15L147.50 513.76L146.24 508.78L145.09 504.33L143.73 500.58L142.32 496.95L141.53 493.70L140.65 490.67L139.69 487.59L138.51 484.36L136.34 479.94L134.61 477.20L133.21 474.52L130.32 469.27L127.72 464.71L125.34 461.11L122.88 456.98L120.95 453.06L119.92 448.52L119.23 445.29L118.34 441.50L117.62 438.12L117.01 435.28L115.86 432.03L114.43 425.95L113.84 422.34L112.96 417.10L113.09 414.25L113.87 410.97L114.82 407.33L114.65 403.68L113.70 399.44L112.61 395.62L111.07 392.08L109.19 387.26L107.82 383.01L106.92 379.35L106.30 376.15L103.30 372.46L101.50 368.94L100.78 366.26Z" data-ward="16" /><path id="ward-5" class="ward" d="M556.45 211.12L554.46 206.58L553.91 203.82L552.24 195.04L551.78 190.70L552.06 185.29L552.04 180.86L552.28 177.82L547.33 170.73L540.46 170.22L535.28 169.83L531.05 169.51L524.95 166.13L509.69 157.67L506.89 156.03L497.11 150.29L490.82 146.60L466.11 139.76L457.51 137.37L444.08 130.89L441.54 136.96L440.20 140.15L436.35 149.35L434.79 153.15L434.15 156.66L433.29 161.61L433.80 170.18L434.77 175.90L436.66 182.42L438.68 189.33L445.89 208.29L451.72 217.57L457.20 226.40L460.39 234.89L462.77 239.86L464.82 243.98L468.96 252.13L471.63 255.81L475.69 266.54L479.01 278.13L481.11 285.60L482.33 289.94L485.56 299.67L486.72 303.10L487.81 307.19L490.17 316.00L494.19 324.69L499.04 335.44L502.98 342.50L506.00 348.78L508.95 355.44L511.80 361.95L515.26 360.93L518.07 360.05L521.57 358.59L525.92 356.65L529.84 355.11L532.77 353.80L536.01 352.63L539.73 351.06L542.66 349.90L546.77 348.05L550.26 346.69L555.96 344.13L560.45 342.59L564.58 341.21L568.29 340.51L576.23 338.44L580.75 337.51L583.77 336.99L586.78 336.46L590.66 335.74L594.64 334.97L593.70 327.32L592.87 324.32L593.07 321.52L592.61 317.04L591.59 312.51L589.93 308.29L589.50 305.40L589.13 301.72L588.71 297.21L587.89 292.26L585.83 290.14L582.83 290.55L581.11 287.58L580.75 284.27L579.59 279.69L578.10 276.57L576.43 272.40L574.32 266.43L572.46 260.94L571.61 257.84L571.29 253.98L571.39 249.40L574.07 246.75L577.36 246.06L580.86 244.56L583.64 243.54L588.14 242.38L590.08 240.01L589.48 237.17L588.26 233.15L587.02 229.71L582.42 216.98L581.05 213.12L576.47 207.23L573.09 207.64L569.39 208.45L565.97 209.20L559.64 211.75L556.45 211.12Z" data-ward="5" /><path id="ward-1" class="ward" d="M145.38 4.91L142.18 0.60L134.17 0.31L125.52 0.00L114.37 0.77L103.69 1.51L78.87 4.09L66.03 5.42L60.94 5.94L56.51 5.76L46.87 5.37L41.73 5.16L27.68 7.71L23.14 8.53L18.95 6.83L0.00 7.54L2.18 23.53L4.39 41.32L6.35 54.39L9.10 75.07L9.26 79.69L9.49 86.25L9.66 91.25L9.79 95.02L9.98 100.35L10.19 106.41L10.36 111.25L10.51 115.55L10.70 121.07L10.86 125.68L11.07 131.55L11.26 137.07L11.36 139.99L11.53 144.90L11.69 149.34L11.43 154.11L10.94 163.53L10.74 167.38L10.47 172.53L10.06 180.27L9.78 185.49L9.51 190.65L9.24 195.80L8.88 201.25L8.61 205.28L8.31 209.68L8.00 214.40L7.74 218.30L7.43 222.89L6.95 230.03L6.68 234.07L6.37 238.69L6.12 242.46L5.67 249.12L5.72 254.47L5.77 259.31L5.80 262.82L5.82 265.93L5.85 269.49L5.88 273.01L5.91 276.40L5.95 280.73L6.00 287.27L6.70 294.91L7.28 301.32L7.73 306.21L8.16 310.85L8.61 315.79L9.09 321.14L9.54 326.07L10.08 331.95L10.62 337.85L11.08 342.93L11.16 349.32L10.84 353.88L10.33 361.14L10.42 366.00L10.48 369.02L16.35 368.79L21.22 368.55L28.02 368.24L31.61 368.08L36.35 367.88L40.34 367.74L45.58 367.57L49.75 367.53L53.36 367.52L57.90 367.62L61.64 367.10L64.69 366.83L68.00 366.40L69.48 363.60L72.20 361.86L74.92 360.55L77.43 359.33L80.93 357.69L84.38 356.45L85.47 353.40L85.32 350.23L88.83 349.93L92.69 348.86L97.44 348.45L97.36 345.22L97.00 340.85L96.32 338.13L95.14 333.76L94.25 329.75L93.51 325.42L92.94 322.71L91.74 318.75L90.11 313.11L89.20 309.84L88.47 305.29L88.38 302.18L88.30 298.79L88.41 296.04L87.86 292.86L86.70 286.67L85.86 283.73L84.58 278.64L84.31 275.56L84.05 271.62L84.59 267.49L84.95 264.73L85.35 259.36L85.38 255.58L84.97 252.31L84.54 249.31L83.96 245.35L83.86 241.04L83.92 235.94L84.20 231.93L85.26 227.06L85.91 223.34L86.34 219.70L85.90 215.01L85.26 208.45L84.87 201.93L84.35 196.12L84.09 189.54L84.19 186.39L84.19 181.96L83.87 175.24L83.33 170.09L82.81 165.94L82.21 160.88L81.68 155.90L81.31 152.64L80.86 149.22L80.47 145.97L80.05 141.86L79.63 138.58L79.22 134.57L78.40 128.07L77.68 124.37L77.14 120.91L76.43 116.76L76.35 111.71L79.09 111.30L82.86 110.86L87.36 110.59L90.35 109.99L94.75 109.01L97.40 107.97L102.48 105.60L105.58 105.06L108.72 104.68L113.99 102.80L118.25 101.33L122.03 100.07L126.12 98.69L129.01 97.77L131.64 96.34L134.97 94.01L137.79 91.57L140.72 89.92L143.83 89.52L146.87 89.17L150.86 88.20L153.67 87.45L156.42 86.81L161.91 85.82L169.69 80.09L167.59 63.25L167.10 59.34L166.39 53.73L165.56 47.10L163.20 39.08L162.13 35.42L161.00 31.60L159.43 26.25L158.22 22.14L154.23 16.79L150.30 11.51L147.64 7.94L145.38 4.91Z" data-ward="1" /><path id="ward-6" class="ward" d="M679.26 206.19L672.93 203.70L669.52 202.02L663.54 199.07L658.00 196.34L651.67 193.21L646.89 190.65L643.86 189.03L640.44 187.20L637.28 185.51L634.03 183.77L625.50 179.21L620.01 176.27L610.89 171.38L606.15 168.85L600.76 165.96L596.04 163.44L592.47 161.53L586.26 160.95L580.01 160.36L575.59 159.95L570.84 161.55L564.74 163.61L559.79 165.28L556.30 166.80L551.40 168.95L547.33 170.73L552.28 177.82L552.04 180.86L552.06 185.29L551.78 190.70L552.24 195.04L553.91 203.82L554.46 206.58L556.45 211.12L559.64 211.75L565.97 209.20L569.39 208.45L573.09 207.64L576.47 207.23L581.05 213.12L582.42 216.98L587.02 229.71L588.26 233.15L589.48 237.17L590.08 240.01L588.14 242.38L583.64 243.54L580.86 244.56L577.36 246.06L574.07 246.75L571.39 249.40L571.29 253.98L571.61 257.84L572.46 260.94L574.32 266.43L576.43 272.40L578.10 276.57L579.59 279.69L580.75 284.27L581.11 287.58L582.83 290.55L585.83 290.14L587.89 292.26L588.71 297.21L589.13 301.72L589.50 305.40L589.93 308.29L591.59 312.51L592.61 317.04L593.07 321.52L592.87 324.32L593.70 327.32L594.64 334.97L596.19 342.11L597.47 348.24L598.53 351.12L600.40 357.30L602.21 360.48L605.09 364.74L607.52 367.90L609.58 370.58L611.66 373.33L615.39 378.61L617.48 381.27L619.53 384.14L621.21 386.34L624.08 389.18L628.95 394.72L631.55 398.25L633.31 401.07L635.27 404.39L636.92 410.10L639.01 415.48L640.44 419.75L641.44 423.00L642.66 426.60L644.56 432.63L645.62 435.73L646.84 439.41L647.99 442.70L648.86 445.89L650.16 450.77L651.21 453.33L652.70 457.08L654.46 461.32L655.65 464.02L656.58 467.36L657.51 472.39L656.22 475.37L650.43 477.52L646.86 478.99L643.57 480.58L639.90 482.42L636.23 484.26L632.68 487.02L632.39 493.96L633.30 500.87L637.31 519.86L637.91 524.19L619.99 527.04L616.78 527.55L616.32 538.28L615.78 551.28L615.56 556.55L615.40 560.22L615.18 565.42L612.64 587.87L612.26 591.18L611.58 596.69L611.19 599.88L610.20 607.87L609.36 614.59L609.00 618.90L608.75 621.90L608.17 628.81L608.26 632.26L608.34 635.55L640.57 673.10L687.53 730.21L693.96 796.27L694.52 802.06L703.74 888.81L704.09 892.07L704.39 894.90L713.49 894.26L722.30 892.84L725.12 892.38L752.62 887.95L764.02 886.11L773.49 883.30L786.74 879.69L821.28 869.21L825.79 867.85L902.47 844.73L947.43 840.99L965.57 844.67L1000.00 849.82L998.98 845.77L997.31 839.17L994.21 826.88L988.53 804.35L987.71 801.09L986.81 797.55L986.11 794.78L985.04 790.55L981.00 774.32L980.13 770.93L979.10 766.95L977.06 759.00L975.43 752.48L971.81 738.63L970.63 734.10L969.23 728.78L966.30 719.09L961.23 702.36L959.58 696.90L956.95 688.31L955.07 682.15L950.69 667.83L944.11 645.09L938.75 626.56L931.38 601.09L924.87 578.60L923.90 574.92L922.75 563.61L920.16 538.06L919.07 527.30L918.47 521.36L917.46 511.32L914.56 505.60L908.57 493.74L906.19 489.04L904.90 486.50L904.50 482.49L903.25 480.07L902.01 477.71L896.93 470.74L896.97 465.43L894.06 459.91L892.39 456.95L885.23 444.25L881.29 437.27L879.24 433.63L877.16 429.95L874.33 424.93L871.04 419.01L867.65 413.81L864.99 409.71L862.41 405.74L859.73 401.62L857.17 397.70L851.98 389.72L848.43 385.53L845.74 382.35L841.39 377.20L833.40 367.76L829.20 362.80L826.59 360.90L823.94 358.98L821.59 357.27L818.37 354.93L813.16 351.15L809.86 348.76L806.33 346.19L803.92 344.44L801.07 342.37L798.54 340.54L794.83 337.84L791.21 335.22L788.67 333.37L786.36 331.69L783.57 329.66L781.53 326.70L779.75 324.12L777.87 321.39L772.29 313.29L770.04 310.01L764.71 301.90L760.71 295.81L758.73 292.80L753.11 284.26L750.83 280.79L748.32 276.75L745.46 272.15L742.85 267.97L740.98 264.96L737.70 259.69L735.41 256.01L733.03 252.19L731.32 249.44L728.39 244.73L724.08 238.82L722.13 236.15L717.58 229.91L715.70 227.34L714.04 225.05L711.55 221.64L705.00 217.69L701.32 215.47L698.37 213.69L692.97 211.57L684.54 208.26L679.26 206.19Z" data-ward="6" /><path id="ward-9" class="ward" d="M498.98 450.31L495.48 448.17L491.13 450.06L488.64 451.24L485.81 451.86L482.04 451.72L479.30 451.61L475.40 452.37L470.25 454.05L466.51 455.03L462.29 456.05L458.84 456.81L454.64 457.87L451.57 459.13L448.18 460.46L443.94 462.29L440.00 464.24L437.12 465.54L433.97 466.84L429.97 468.63L427.07 469.51L424.67 472.14L426.01 475.38L427.25 478.62L428.67 482.92L430.05 485.52L432.12 489.83L433.15 492.59L433.38 496.50L433.60 500.72L434.49 505.59L435.34 509.55L431.40 511.04L429.08 512.63L426.18 514.59L421.99 516.79L419.76 514.76L416.94 512.73L416.22 507.80L417.27 503.77L417.55 498.96L413.40 497.34L409.63 498.41L406.85 499.41L401.84 500.75L396.97 501.75L393.58 502.06L389.36 502.12L385.97 501.88L382.23 502.42L378.55 502.87L375.85 503.34L371.35 503.57L367.99 504.23L363.20 506.35L359.19 507.15L357.37 509.51L358.50 513.89L360.26 520.17L361.10 524.16L361.84 530.06L360.39 533.88L362.93 536.98L364.12 540.49L365.24 543.98L365.87 547.53L368.53 549.14L372.11 547.99L376.54 546.31L379.54 545.54L382.21 544.67L385.38 544.56L387.53 546.98L389.41 551.62L391.07 555.70L393.02 559.78L394.67 563.09L396.19 565.56L399.02 570.87L400.62 574.75L402.42 578.21L404.02 580.70L406.20 583.95L410.25 581.72L413.80 580.65L417.86 579.55L421.79 578.68L425.93 578.10L429.42 578.42L433.64 577.07L436.17 574.98L439.30 571.97L442.08 570.23L446.68 568.07L451.83 566.66L454.59 565.40L460.01 562.00L456.61 560.49L455.13 557.91L454.11 554.68L452.78 550.38L451.64 546.71L450.64 543.48L448.23 537.90L446.36 534.16L444.52 530.48L441.77 525.65L439.43 520.86L444.41 518.79L448.99 517.03L452.09 516.17L455.29 515.31L458.02 514.53L461.10 513.51L464.60 512.55L467.49 511.76L471.95 510.56L474.72 509.40L478.55 508.08L482.87 506.79L485.22 505.33L487.40 503.00L489.44 500.99L492.25 499.29L494.98 497.81L497.56 496.39L501.24 494.49L503.98 493.25L507.85 491.45L510.46 489.92L515.53 486.95L516.60 483.68L515.71 480.31L514.80 477.71L513.65 475.09L512.28 472.55L510.94 469.59L509.26 465.63L508.63 462.88L507.81 459.95L506.96 456.92L505.97 453.79L504.76 451.29L501.08 452.06L498.98 450.31Z" data-ward="9" /><path id="ward-13" class="ward" d="M399.28 435.27L396.53 434.84L393.54 432.95L391.53 428.82L388.35 427.20L383.70 429.10L379.55 431.13L378.13 433.98L374.37 434.63L370.90 434.98L367.45 435.18L364.67 434.87L360.84 434.49L355.88 435.47L350.69 438.50L347.87 441.58L345.05 442.88L339.85 444.39L336.91 447.62L332.31 448.89L329.35 449.98L326.30 451.49L322.64 452.15L318.65 452.09L315.58 451.90L311.00 451.61L307.59 451.40L303.24 451.13L295.93 450.68L292.49 450.46L290.61 455.25L289.19 459.32L286.51 467.06L285.20 470.83L283.87 474.64L282.81 477.68L281.62 481.08L280.39 484.59L279.25 487.83L278.53 490.76L278.22 495.34L277.73 502.63L282.75 518.87L287.10 527.75L290.86 539.54L293.02 546.25L298.42 558.58L302.11 570.92L306.14 584.52L310.30 598.63L313.06 615.71L314.06 621.93L316.40 632.99L317.89 640.34L320.42 648.31L324.23 663.58L325.47 667.52L342.57 659.10L381.07 640.10L383.70 638.43L387.26 635.42L387.67 631.04L387.24 627.59L386.87 624.73L386.94 621.66L391.74 620.08L396.35 619.03L401.03 617.06L403.86 615.31L406.52 613.71L405.54 610.57L403.82 607.95L401.46 604.12L398.33 597.96L397.99 594.17L401.35 590.78L403.93 586.70L406.20 583.95L404.02 580.70L402.42 578.21L400.62 574.75L399.02 570.87L396.19 565.56L394.67 563.09L393.02 559.78L391.07 555.70L389.41 551.62L387.53 546.98L385.38 544.56L382.21 544.67L379.54 545.54L376.54 546.31L372.11 547.99L368.53 549.14L365.87 547.53L365.24 543.98L364.12 540.49L362.93 536.98L360.39 533.88L361.84 530.06L361.10 524.16L360.26 520.17L358.50 513.89L357.37 509.51L359.19 507.15L363.20 506.35L367.99 504.23L371.35 503.57L375.85 503.34L378.55 502.87L382.23 502.42L385.97 501.88L389.36 502.12L393.58 502.06L396.97 501.75L401.84 500.75L406.85 499.41L409.63 498.41L413.40 497.34L417.55 498.96L417.27 503.77L416.22 507.80L416.94 512.73L419.76 514.76L421.99 516.79L426.18 514.59L429.08 512.63L431.40 511.04L435.34 509.55L434.49 505.59L433.60 500.72L433.38 496.50L433.15 492.59L432.12 489.83L430.05 485.52L428.67 482.92L427.25 478.62L426.01 475.38L424.67 472.14L422.01 470.51L419.11 470.02L416.10 467.93L414.59 464.35L414.30 459.54L413.31 453.87L412.22 450.06L411.10 446.75L407.94 445.18L405.53 442.89L403.50 439.56L401.82 436.98L399.28 435.27Z" data-ward="13" /><path id="ward-3" class="ward" d="M328.55 188.28L326.95 183.62L326.10 180.04L325.44 176.40L324.74 173.69L323.32 171.18L321.49 168.35L319.44 165.41L318.93 162.47L317.96 159.85L314.86 160.14L306.62 162.44L301.80 164.00L296.12 165.82L291.20 167.13L290.79 174.46L290.61 177.48L290.34 182.38L290.19 185.25L290.00 188.68L289.90 191.62L289.67 195.77L289.42 199.88L289.17 204.16L289.01 207.55L292.57 210.74L296.17 214.75L300.93 219.16L303.27 221.72L306.01 225.66L307.96 229.34L309.97 233.43L312.51 238.25L314.23 241.42L316.07 244.58L318.28 248.56L320.06 251.82L322.69 256.70L324.78 260.33L326.42 263.50L328.33 266.53L329.81 269.47L331.17 273.31L332.22 276.80L333.19 279.94L334.88 284.84L337.40 290.95L338.85 294.38L340.98 299.25L342.78 302.46L345.07 305.86L346.50 308.69L347.75 311.76L349.56 316.40L351.21 320.72L353.07 323.51L357.16 324.73L361.45 326.25L363.82 328.42L365.67 333.98L366.74 337.75L368.48 343.64L370.87 349.38L373.32 355.04L379.15 352.58L381.71 351.57L384.29 350.53L389.33 348.49L393.87 346.76L398.31 345.62L402.18 345.39L403.82 349.90L405.80 353.66L407.63 356.45L408.42 359.68L406.57 363.07L406.05 366.18L405.79 369.23L406.45 372.51L407.89 374.94L409.17 377.83L409.89 381.51L409.61 385.38L408.33 388.05L409.17 390.83L412.47 392.14L414.79 390.31L418.64 389.10L424.42 387.01L430.00 385.38L437.14 382.92L434.34 374.81L432.58 369.64L430.71 363.14L428.25 356.41L425.55 350.45L423.12 345.16L421.21 341.01L419.58 336.48L417.49 330.66L413.94 324.01L410.87 318.80L408.17 312.95L406.02 308.09L410.29 305.25L413.27 304.03L416.49 302.90L419.63 301.81L422.64 300.65L426.20 299.36L431.13 297.85L436.29 295.89L439.10 294.55L438.91 290.98L436.52 285.65L432.61 281.36L431.19 277.20L430.38 271.47L429.41 267.28L428.88 262.41L428.99 258.45L428.87 254.10L427.93 251.31L426.83 248.18L424.30 246.46L421.79 241.56L420.92 238.67L419.59 236.06L418.19 232.92L416.07 228.44L414.12 225.23L410.63 222.82L409.17 219.54L401.40 221.12L395.14 222.83L390.57 224.35L384.26 226.47L380.49 227.35L379.41 223.13L377.75 219.53L376.45 214.76L375.67 211.10L375.90 207.33L375.06 201.35L374.10 198.45L372.96 194.56L371.97 190.64L370.88 187.39L369.64 184.23L367.89 179.65L364.78 180.44L361.07 181.37L358.16 182.09L354.67 182.93L351.43 183.97L347.55 185.13L344.02 185.04L340.31 185.63L336.85 187.40L333.38 188.70L328.55 188.28Z" data-ward="3" /><path id="ward-17" class="ward" d="M183.88 354.61L183.36 351.19L177.55 352.06L178.10 355.49L174.19 356.42L171.02 357.07L167.48 357.28L164.74 356.02L160.70 357.17L160.04 361.63L160.68 364.72L162.31 368.72L164.60 370.41L165.95 374.86L169.20 384.64L170.37 388.86L167.50 389.15L163.12 390.12L158.97 391.35L153.82 392.94L148.85 394.18L145.59 394.93L142.71 395.27L137.93 395.85L134.60 396.28L131.70 396.43L129.91 393.37L128.05 390.83L124.15 391.34L120.77 392.25L117.65 394.63L112.61 395.62L113.70 399.44L114.65 403.68L114.82 407.33L113.87 410.97L113.09 414.25L112.96 417.10L113.84 422.34L114.43 425.95L115.86 432.03L117.01 435.28L117.62 438.12L118.34 441.50L119.23 445.29L119.92 448.52L120.95 453.06L122.88 456.98L125.34 461.11L127.72 464.71L130.32 469.27L133.21 474.52L134.61 477.20L136.34 479.94L140.72 477.15L145.39 476.28L148.25 475.42L148.16 471.28L147.72 468.28L147.11 464.45L152.06 464.05L156.75 463.50L162.14 462.08L166.04 461.10L168.96 460.62L172.13 459.86L175.05 458.71L178.59 457.23L181.12 456.16L184.05 454.96L190.10 453.26L194.62 452.62L197.75 451.81L201.57 449.03L200.57 445.02L198.44 442.61L196.49 437.52L199.60 436.73L201.99 432.90L205.29 432.26L209.13 431.56L212.43 430.89L217.11 429.75L217.76 433.54L218.18 440.65L218.73 444.02L214.34 445.35L210.86 446.35L211.80 449.26L213.85 453.27L215.49 456.78L221.64 456.96L228.06 456.84L231.07 455.68L235.75 455.29L241.43 455.26L242.08 451.97L242.81 448.29L245.19 436.21L245.72 433.50L246.52 429.41L247.21 425.91L249.41 414.74L250.26 410.53L251.48 404.98L252.20 401.72L252.87 398.70L253.85 394.67L254.94 389.98L256.18 385.04L257.08 381.41L258.42 375.82L259.30 371.98L258.45 367.22L254.62 368.75L250.19 370.27L247.47 371.10L243.72 372.27L239.36 373.70L236.00 374.52L231.19 375.47L227.45 376.27L223.44 377.27L220.55 377.96L217.29 378.73L213.05 379.81L210.29 380.38L206.39 380.94L202.00 381.38L197.90 381.48L194.41 381.86L189.79 381.03L189.07 378.28L187.41 375.74L186.53 370.68L186.28 366.83L185.96 364.08L185.32 360.81L184.20 357.77L183.88 354.61Z" data-ward="17" /><path id="ward-12" class="ward" d="M466.04 577.65L464.89 573.90L463.22 568.51L462.11 565.38L460.01 562.00L454.59 565.40L451.83 566.66L446.68 568.07L442.08 570.23L439.30 571.97L436.17 574.98L433.64 577.07L429.42 578.42L425.93 578.10L421.79 578.68L417.86 579.55L413.80 580.65L410.25 581.72L406.20 583.95L403.93 586.70L401.35 590.78L397.99 594.17L398.33 597.96L401.46 604.12L403.82 607.95L405.54 610.57L406.52 613.71L403.86 615.31L401.03 617.06L396.35 619.03L391.74 620.08L386.94 621.66L386.87 624.73L387.24 627.59L387.67 631.04L387.26 635.42L383.70 638.43L381.07 640.10L342.57 659.10L325.47 667.52L327.88 678.61L329.24 690.53L330.22 696.70L332.12 705.84L333.84 714.33L336.41 723.66L339.17 733.03L341.48 742.42L342.26 748.88L342.86 753.88L343.21 756.95L343.69 761.11L344.40 767.01L347.77 778.03L351.48 795.58L352.35 799.66L358.54 800.48L364.90 801.29L371.32 802.20L376.15 802.92L379.43 803.43L382.22 803.97L385.89 804.99L388.79 805.79L391.90 806.78L428.30 821.01L452.22 805.48L472.19 792.33L483.98 784.07L493.54 777.41L498.61 773.87L503.68 770.33L509.28 766.39L514.88 762.45L518.67 759.78L523.11 756.66L526.72 754.11L530.24 751.59L533.43 749.23L533.85 745.87L533.33 742.53L531.69 739.95L530.24 736.92L529.20 733.76L528.39 729.51L527.99 726.02L526.99 721.55L525.91 717.30L524.85 713.16L523.07 706.25L520.78 698.94L519.60 694.63L518.80 691.70L518.08 689.04L517.43 686.22L516.79 683.32L516.33 680.57L515.27 675.84L513.81 671.75L512.53 668.55L510.59 663.75L508.18 658.60L506.48 655.43L504.26 651.24L502.68 647.56L501.35 644.18L498.84 639.60L496.92 637.31L495.29 635.06L493.80 632.73L492.38 629.45L491.32 626.53L490.81 619.70L487.84 618.50L486.04 615.06L484.28 611.42L482.18 609.64L479.35 608.71L476.42 607.06L475.10 603.63L474.11 600.94L473.00 598.25L472.11 595.50L470.63 591.65L469.27 587.58L467.38 581.98L466.04 577.65Z" data-ward="12" /><path id="ward-14" class="ward" d="M351.48 795.58L347.77 778.03L344.40 767.01L343.69 761.11L343.21 756.95L342.86 753.88L342.26 748.88L341.48 742.42L339.17 733.03L336.41 723.66L333.84 714.33L332.12 705.84L330.22 696.70L329.24 690.53L327.88 678.61L325.47 667.52L324.23 663.58L320.42 648.31L317.89 640.34L316.40 632.99L314.06 621.93L313.06 615.71L310.30 598.63L306.14 584.52L302.11 570.92L298.42 558.58L293.02 546.25L290.86 539.54L287.10 527.75L282.75 518.87L277.73 502.63L278.22 495.34L278.53 490.76L279.25 487.83L280.39 484.59L281.62 481.08L282.81 477.68L283.87 474.64L285.20 470.83L286.51 467.06L289.19 459.32L290.61 455.25L292.49 450.46L293.07 447.67L295.08 440.43L300.47 423.02L301.08 420.30L301.70 417.58L304.26 405.11L304.18 389.05L302.94 385.00L299.94 375.58L298.39 372.88L295.99 369.05L294.10 366.04L291.77 362.32L289.82 359.22L285.80 355.20L281.83 351.24L279.70 349.13L266.84 338.75L266.31 342.12L265.26 346.53L264.57 349.41L263.58 354.07L262.71 357.86L261.52 362.62L260.79 365.53L258.45 367.22L259.30 371.98L258.42 375.82L257.08 381.41L256.18 385.04L254.94 389.98L253.85 394.67L252.87 398.70L252.20 401.72L251.48 404.98L250.26 410.53L249.41 414.74L247.21 425.91L246.52 429.41L245.72 433.50L245.19 436.21L242.81 448.29L242.08 451.97L241.43 455.26L235.75 455.29L231.07 455.68L228.06 456.84L227.33 460.95L226.74 464.30L226.10 467.94L225.44 471.75L224.93 474.63L224.31 478.23L223.81 481.10L223.33 483.87L222.66 487.71L221.94 491.85L220.99 497.35L220.46 500.42L219.95 503.36L219.43 506.37L218.86 509.67L218.05 514.37L217.35 518.44L216.76 521.88L216.20 525.05L215.64 528.24L215.10 531.33L214.55 534.45L213.98 537.72L213.41 540.97L212.91 543.83L212.20 547.25L211.47 550.57L210.53 554.41L209.35 558.52L208.32 561.64L207.29 564.28L206.20 566.85L205.13 569.39L203.04 573.82L201.28 577.10L199.33 580.41L197.64 583.02L195.95 585.65L193.78 588.79L192.13 591.11L190.34 593.63L191.28 598.84L191.80 602.15L192.79 604.89L194.29 611.09L195.07 614.34L195.84 617.48L194.35 619.96L192.33 623.32L194.04 628.19L195.35 630.99L196.56 634.29L198.53 639.70L199.55 642.50L200.59 645.85L201.30 648.83L202.16 653.29L202.74 658.23L203.24 662.89L203.49 668.08L203.42 674.84L203.37 680.33L203.26 690.41L202.92 696.85L202.56 703.59L201.78 718.25L201.59 721.71L200.68 738.67L199.88 753.13L199.30 763.55L208.44 768.62L219.57 775.01L232.38 779.74L240.82 782.84L246.23 784.82L252.62 786.73L257.35 788.30L263.50 790.36L267.67 791.15L272.42 792.06L276.64 792.86L279.35 793.37L284.71 794.17L291.27 794.83L295.33 795.23L301.48 795.86L306.50 796.36L311.79 796.87L316.93 797.38L321.36 797.49L326.68 797.64L331.31 797.77L336.37 798.12L341.15 798.43L349.21 799.23L352.35 799.66L351.48 795.58Z" data-ward="14" /><path id="ward-8" class="ward" d="M406.57 363.07L408.42 359.68L407.63 356.45L405.80 353.66L403.82 349.90L402.18 345.39L398.31 345.62L393.87 346.76L389.33 348.49L384.29 350.53L381.71 351.57L379.15 352.58L373.32 355.04L369.63 358.51L367.03 360.75L363.05 361.11L359.26 362.22L356.18 362.99L353.18 360.68L350.79 359.27L346.66 359.85L342.12 361.28L338.98 362.36L336.01 363.36L330.78 365.11L330.88 370.47L332.58 375.57L333.32 379.23L334.19 382.49L335.16 385.83L335.05 388.86L335.67 397.03L336.60 401.14L336.86 407.54L338.58 410.36L339.67 414.87L341.77 420.16L343.69 423.95L344.92 426.65L346.31 429.67L348.36 433.52L350.69 438.50L355.88 435.47L360.84 434.49L364.67 434.87L367.45 435.18L370.90 434.98L374.37 434.63L378.13 433.98L379.55 431.13L383.70 429.10L388.35 427.20L391.53 428.82L393.54 432.95L396.53 434.84L399.28 435.27L401.82 436.98L403.50 439.56L405.53 442.89L407.94 445.18L411.10 446.75L412.22 450.06L413.31 453.87L414.30 459.54L414.59 464.35L416.10 467.93L419.11 470.02L422.01 470.51L424.67 472.14L427.07 469.51L429.97 468.63L433.97 466.84L437.12 465.54L440.00 464.24L443.94 462.29L448.18 460.46L451.57 459.13L454.64 457.87L458.84 456.81L462.29 456.05L466.51 455.03L470.25 454.05L475.40 452.37L479.30 451.61L482.04 451.72L485.81 451.86L488.64 451.24L491.13 450.06L495.48 448.17L498.98 450.31L501.08 452.06L504.76 451.29L514.33 448.26L517.39 446.73L517.06 442.18L514.70 439.75L510.36 440.73L508.12 437.72L506.96 434.59L505.83 431.65L502.83 428.15L498.91 431.26L496.27 432.97L493.32 433.62L489.25 434.91L487.79 432.11L485.02 430.60L482.25 428.72L479.43 426.19L477.22 421.52L476.11 418.91L475.00 416.27L473.53 413.25L472.45 410.37L470.72 404.06L469.28 399.71L469.08 396.51L467.63 393.44L464.86 393.62L463.44 390.26L462.22 387.26L460.36 382.40L459.35 379.54L459.41 376.08L454.75 377.40L447.86 379.52L440.40 381.91L437.14 382.92L430.00 385.38L424.42 387.01L418.64 389.10L414.79 390.31L412.47 392.14L409.17 390.83L408.33 388.05L409.61 385.38L409.89 381.51L409.17 377.83L407.89 374.94L406.45 372.51L405.79 369.23L406.05 366.18L406.57 363.07Z" data-ward="8" /></svg>