<svg viewBox="0 0 1000.00 1376.97" xmlns="http://www.w3.org/2000/svg"><style>.ward { fill: #e2e8f0; stroke: #fff; stroke-width: 0.5px; } .ward:hover { fill: #cbd5e1; }</style><path id="ward-18" class="ward" d="M528.40 447.25L524.14 445.81L519.47 444.23L512.65 442.28L510.73 451.27L508.90 460.43L508.35 471.84L508.23 481.27L508.11 490.30L508.02 497.66L508.32 502.64L509.29 518.50L510.50 522.70L513.13 531.81L515.95 541.56L518.20 549.36L519.94 555.41L521.96 559.74L524.27 564.70L525.88 568.14L527.87 572.40L530.54 578.13L532.29 582.31L534.46 587.49L537.22 594.07L537.42 599.92L537.64 606.28L539.22 612.65L537.02 630.92L534.90 648.48L525.77 665.46L553.81 669.82L561.54 669.36L568.52 668.94L573.85 666.72L582.59 656.23L584.96 651.62L588.09 645.55L591.52 640.53L593.99 644.05L596.11 648.96L600.49 655.96L614.49 670.20L617.85 668.16L623.89 665.24L627.84 663.20L632.80 660.51L634.42 655.57L630.99 649.80L627.48 644.32L622.11 639.11L620.89 634.47L619.77 630.70L616.77 622.83L614.75 618.71L612.81 615.14L607.46 613.27L604.14 609.74L602.72 603.72L600.06 596.56L597.32 590.33L595.68 585.09L594.12 577.45L593.20 573.16L592.11 569.14L590.85 565.33L589.22 560.41L587.96 556.06L585.94 548.76L584.05 544.57L581.81 539.80L579.27 534.66L575.87 528.32L572.04 520.95L569.11 517.51L564.97 512.21L562.63 508.26L560.89 504.69L560.43 499.01L561.26 495.25L561.70 490.57L562.83 485.53L568.55 484.43L568.34 478.85L567.87 474.10L566.90 468.79L568.40 460.53L567.88 456.70L567.12 452.33L566.38 448.09L560.92 447.59L556.91 448.12L545.57 448.84L540.53 448.03L533.78 448.82L528.40 447.25Z" data-ward="18" /><path id="ward-7" class="ward" d="M600.41 871.69L593.51 871.89L589.33 872.10L584.34 872.33L579.72 872.27L574.10 872.30L568.87 872.76L562.97 873.22L558.11 873.32L552.56 873.60L547.07 874.14L540.69 875.04L529.58 877.11L523.42 878.52L517.49 880.40L512.68 881.93L506.53 883.83L499.84 886.66L493.35 889.73L487.25 892.76L482.26 895.23L476.24 898.16L466.46 902.93L462.93 904.39L459.06 905.99L451.63 908.94L445.08 911.37L439.60 913.47L433.42 916.07L422.88 921.65L417.38 925.44L416.03 930.68L414.38 934.53L415.57 939.19L416.52 945.32L417.69 953.00L420.00 962.07L421.11 968.75L421.82 972.98L423.27 981.09L424.81 989.24L425.70 994.49L426.81 1001.61L428.00 1009.12L431.26 1014.70L433.58 1018.45L434.41 1022.20L435.32 1026.86L436.91 1032.24L438.00 1039.47L441.54 1044.66L450.97 1043.02L462.32 1040.75L463.29 1030.69L467.28 1027.40L472.40 1023.93L477.86 1021.03L482.79 1018.66L483.52 1012.77L488.22 1014.51L494.95 1017.67L499.04 1020.83L503.13 1023.99L507.20 1027.11L510.53 1029.67L514.60 1034.46L516.46 1041.17L517.93 1046.45L519.05 1051.25L520.18 1055.46L521.95 1063.48L523.13 1068.84L534.06 1066.78L538.86 1065.88L545.07 1064.73L552.51 1063.36L560.69 1062.12L562.16 1067.95L567.83 1066.19L571.83 1065.66L575.80 1065.12L580.98 1067.99L582.92 1074.62L584.62 1080.39L586.38 1085.08L594.95 1085.05L599.81 1084.17L605.54 1082.62L609.37 1081.90L612.15 1079.32L611.11 1075.07L610.16 1071.11L607.90 1063.50L606.33 1057.65L604.48 1051.65L602.87 1047.98L598.22 1045.30L598.65 1035.57L598.97 1030.17L599.20 1026.08L599.46 1021.67L599.90 1014.22L600.42 1006.85L599.04 999.80L597.70 992.15L597.28 985.24L595.05 977.09L592.75 969.06L588.88 956.83L589.08 950.97L589.28 944.98L589.17 939.73L589.06 934.48L588.54 923.57L589.47 910.11L589.42 905.37L589.15 899.03L590.47 893.10L595.18 890.24L599.99 885.26L600.12 880.80L601.01 875.89L600.41 871.69Z" data-ward="7" /><path id="ward-8" class="ward" d="M690.54 1018.28L682.42 1017.51L676.99 1015.40L665.99 1010.92L655.97 1006.79L645.25 1000.86L636.82 995.25L630.25 990.87L620.37 983.70L616.37 980.86L601.88 973.90L592.75 969.06L595.05 977.09L597.28 985.24L597.70 992.15L599.04 999.80L600.42 1006.85L599.90 1014.22L599.46 1021.67L599.20 1026.08L598.97 1030.17L598.65 1035.57L598.22 1045.30L602.87 1047.98L604.48 1051.65L606.33 1057.65L607.90 1063.50L610.16 1071.11L611.11 1075.07L612.15 1079.32L609.37 1081.90L605.54 1082.62L599.81 1084.17L594.95 1085.05L586.38 1085.08L584.62 1080.39L582.92 1074.62L580.98 1067.99L575.80 1065.12L571.83 1065.66L567.83 1066.19L562.16 1067.95L560.69 1062.12L552.51 1063.36L545.07 1064.73L538.86 1065.88L534.06 1066.78L523.13 1068.84L525.69 1080.77L526.51 1084.56L529.22 1092.33L533.17 1103.65L535.91 1113.61L537.06 1117.76L538.30 1122.28L542.65 1138.09L540.94 1147.87L536.05 1148.18L529.67 1151.25L528.67 1157.54L528.04 1161.51L526.05 1173.99L525.18 1179.46L523.97 1187.13L522.99 1194.19L522.46 1201.66L521.76 1206.62L520.59 1214.05L520.50 1222.20L520.44 1232.70L519.11 1240.45L518.17 1244.43L516.79 1247.99L515.06 1251.68L512.24 1255.19L508.51 1260.22L506.98 1263.99L503.19 1269.30L499.59 1272.96L496.28 1275.83L494.11 1279.08L491.94 1282.34L488.21 1292.46L500.50 1297.44L507.37 1300.22L510.37 1304.82L518.09 1316.66L520.86 1321.31L526.81 1330.02L532.16 1339.27L534.81 1342.91L540.77 1353.76L550.76 1364.96L559.27 1374.50L566.45 1375.12L587.78 1376.97L596.45 1374.92L600.44 1367.54L604.77 1359.52L607.28 1352.63L609.10 1347.64L610.17 1342.37L611.24 1337.05L613.25 1327.09L615.16 1318.03L616.56 1313.49L619.39 1304.28L622.51 1299.10L626.53 1292.43L631.30 1285.70L636.31 1278.63L640.51 1275.52L644.82 1272.33L650.59 1268.06L655.59 1264.49L661.93 1259.96L666.80 1256.48L670.87 1253.57L677.90 1250.23L683.16 1247.72L691.32 1243.83L700.45 1239.49L705.59 1237.00L710.49 1234.63L715.99 1231.97L720.71 1229.69L732.62 1223.93L736.68 1221.97L753.07 1209.19L766.83 1198.68L778.33 1189.89L781.65 1178.05L783.52 1171.37L785.52 1162.86L784.82 1149.09L784.50 1144.01L784.38 1136.57L783.38 1129.60L782.35 1122.37L779.97 1113.66L777.47 1104.54L775.47 1097.52L771.30 1082.95L768.16 1070.68L766.29 1063.37L761.08 1055.15L755.38 1046.16L748.06 1035.51L743.16 1028.87L733.30 1017.73L727.66 1021.62L722.58 1022.38L715.81 1023.40L710.63 1020.84L705.65 1018.37L700.08 1017.43L695.33 1018.34L690.54 1018.28Z" data-ward="8" /><path id="ward-9" class="ward" d="M276.05 1072.44L258.67 1063.81L239.80 1054.43L225.43 1063.75L218.41 1068.27L214.15 1070.59L205.44 1075.86L201.41 1077.83L165.84 1098.12L156.99 1103.10L134.35 1103.75L125.53 1103.87L115.99 1104.00L111.95 1102.45L107.34 1100.58L102.68 1098.70L93.68 1095.05L89.97 1091.80L85.40 1087.80L81.05 1088.00L66.33 1096.76L58.93 1101.17L49.82 1106.58L46.25 1108.71L40.46 1111.48L33.83 1115.80L28.02 1119.59L22.71 1123.05L14.84 1128.19L10.86 1130.78L6.83 1138.12L5.41 1153.64L4.41 1164.53L3.94 1169.59L3.54 1174.03L2.58 1185.27L2.04 1191.48L1.53 1197.43L0.41 1210.62L0.00 1215.43L3.94 1225.61L6.52 1232.28L11.64 1245.51L14.43 1252.71L17.12 1259.41L19.82 1266.13L25.20 1279.53L30.59 1292.94L38.43 1292.20L48.54 1291.25L65.47 1289.65L76.84 1288.59L91.51 1287.20L108.37 1285.62L116.08 1280.69L127.18 1273.60L140.65 1265.00L144.88 1262.30L154.75 1255.84L158.91 1252.99L163.66 1248.75L167.25 1245.55L171.78 1241.48L178.13 1235.79L184.63 1229.95L194.12 1221.45L193.46 1206.65L191.83 1169.57L189.07 1137.84L188.57 1131.28L187.43 1115.49L186.20 1097.31L201.73 1090.93L222.84 1080.05L236.51 1073.02L251.10 1089.67L260.58 1100.48L269.47 1110.65L272.56 1115.67L275.54 1120.52L281.70 1131.01L288.57 1142.44L291.23 1147.11L297.01 1157.22L301.72 1165.45L308.28 1176.92L314.88 1190.10L321.43 1203.18L323.17 1206.68L326.51 1213.40L330.30 1218.74L336.68 1227.74L339.96 1232.24L343.50 1234.62L349.06 1238.33L361.95 1242.74L365.64 1243.70L369.53 1245.40L393.15 1255.78L396.84 1256.81L402.53 1258.40L406.39 1259.48L415.14 1261.93L423.60 1264.29L432.13 1266.67L443.01 1269.70L468.36 1282.50L476.76 1286.74L481.96 1289.35L488.21 1292.46L491.94 1282.34L494.11 1279.08L496.28 1275.83L499.59 1272.96L503.19 1269.30L506.98 1263.99L508.51 1260.22L512.24 1255.19L515.06 1251.68L516.79 1247.99L518.17 1244.43L519.11 1240.45L520.44 1232.70L520.50 1222.20L520.59 1214.05L521.76 1206.62L522.46 1201.66L522.99 1194.19L523.97 1187.13L525.18 1179.46L526.05 1173.99L528.04 1161.51L528.67 1157.54L529.67 1151.25L536.05 1148.18L540.94 1147.87L542.65 1138.09L538.30 1122.28L537.06 1117.76L535.91 1113.61L533.17 1103.65L529.22 1092.33L526.51 1084.56L525.69 1080.77L523.13 1068.84L508.82 1071.66L493.74 1074.92L496.89 1089.43L496.14 1096.79L498.43 1112.11L499.28 1117.92L500.13 1123.21L501.84 1127.30L496.05 1129.43L492.47 1130.75L488.86 1132.08L485.40 1133.56L481.09 1134.71L476.27 1135.52L470.10 1135.99L464.95 1131.30L460.45 1129.59L454.81 1127.82L451.38 1125.87L447.79 1121.73L443.88 1120.63L437.40 1120.21L432.13 1120.72L431.79 1116.57L431.45 1112.46L437.38 1107.24L441.36 1102.61L448.16 1093.53L450.51 1088.14L455.22 1084.98L452.05 1079.86L444.57 1079.14L440.79 1079.95L432.59 1081.71L429.11 1075.96L421.51 1077.11L413.91 1078.27L407.51 1079.61L401.27 1083.19L402.67 1089.33L404.89 1095.07L408.46 1104.30L411.25 1111.50L413.48 1117.27L409.60 1118.39L402.55 1119.76L399.06 1117.31L393.98 1117.35L388.45 1118.25L382.37 1118.75L377.43 1119.46L372.81 1117.95L368.37 1119.22L362.90 1120.40L358.60 1119.51L352.54 1119.30L346.48 1119.10L345.22 1112.43L336.05 1113.51L326.88 1114.60L316.98 1116.69L307.95 1118.56L303.42 1119.55L296.25 1121.04L289.35 1098.96L286.74 1095.07L282.12 1081.17L276.05 1072.44Z" data-ward="9" /><path id="ward-14" class="ward" d="M713.14 723.92L713.11 718.32L711.64 713.07L709.35 707.39L709.43 702.87L709.13 696.91L708.14 692.40L705.77 686.31L705.67 681.88L709.60 680.22L709.43 674.96L706.32 668.43L703.93 663.58L701.08 659.39L696.79 656.33L691.94 658.31L686.91 661.14L682.72 663.70L677.71 666.08L670.80 668.72L665.70 671.17L661.88 673.68L657.97 677.24L654.23 680.52L650.33 684.59L645.98 688.65L642.76 692.08L640.62 695.47L636.63 700.32L634.41 704.42L634.14 711.42L629.34 713.44L625.39 713.75L618.69 714.67L614.68 715.13L611.79 718.04L614.38 723.88L609.95 724.87L604.81 725.74L598.85 725.88L593.82 724.73L585.32 729.72L582.76 735.64L580.43 745.02L582.10 749.05L577.79 755.46L578.91 765.74L578.74 773.36L562.84 773.01L555.23 781.56L551.43 786.43L556.40 791.93L559.83 795.61L565.94 803.30L569.64 807.54L577.46 815.03L580.89 817.73L584.41 820.50L589.86 823.43L596.74 826.24L605.04 829.63L612.46 831.30L619.69 833.89L625.20 836.60L629.11 837.68L633.01 838.75L639.25 839.55L644.63 840.24L650.18 840.53L658.06 840.94L665.66 841.74L672.37 843.40L678.43 845.58L682.39 846.52L686.35 847.46L690.32 848.00L697.64 851.41L701.25 854.66L706.34 860.39L711.44 860.26L718.10 856.99L721.34 854.04L725.07 844.83L726.95 836.15L730.04 828.95L732.27 823.76L735.19 816.53L737.43 810.81L738.16 806.59L739.03 800.72L739.92 794.83L740.49 791.08L739.33 779.53L737.63 773.63L735.99 769.63L733.75 764.18L730.88 758.44L729.02 754.71L724.56 743.18L722.68 736.06L721.69 731.32L717.40 726.48L713.14 723.92Z" data-ward="14" /><path id="ward-16" class="ward" d="M777.59 650.74L775.88 647.28L774.11 640.07L784.83 636.80L795.69 633.49L802.33 631.30L807.04 629.74L809.00 624.76L807.43 621.06L805.85 617.36L803.76 612.92L801.63 608.48L799.82 605.14L796.63 598.94L794.44 595.79L792.02 592.32L784.73 594.79L779.60 596.84L772.11 599.84L766.01 601.97L761.19 603.66L754.84 606.35L752.21 609.31L746.68 613.26L741.91 614.12L736.40 615.20L728.82 616.57L723.40 618.35L726.33 635.55L721.65 639.91L720.94 646.42L714.74 647.85L711.24 651.43L704.19 653.10L696.79 656.33L701.08 659.39L703.93 663.58L706.32 668.43L709.43 674.96L709.60 680.22L705.67 681.88L705.77 686.31L708.14 692.40L709.13 696.91L709.43 702.87L709.35 707.39L711.64 713.07L713.11 718.32L713.14 723.92L717.40 726.48L721.69 731.32L722.68 736.06L724.56 743.18L729.02 754.71L730.88 758.44L733.75 764.18L735.99 769.63L737.63 773.63L739.33 779.53L744.63 777.42L752.50 774.30L756.12 772.86L755.04 769.24L753.90 765.60L752.52 760.57L759.49 760.00L767.43 759.03L772.26 757.52L776.80 755.27L784.22 754.05L789.14 753.56L795.91 753.05L798.43 748.11L799.16 742.42L798.44 738.27L797.19 732.87L801.27 732.31L807.11 731.51L811.49 730.91L818.89 729.46L817.05 722.42L824.92 721.00L836.71 717.16L849.48 712.04L839.95 693.62L838.05 689.63L831.81 676.58L818.50 647.34L803.57 653.76L782.08 663.00L777.59 650.74Z" data-ward="16" /><path id="ward-20" class="ward" d="M692.02 304.40L687.10 304.85L673.25 306.40L664.01 308.08L654.38 310.20L642.61 309.66L631.92 309.66L619.35 309.66L605.18 310.46L588.07 311.27L578.44 311.27L572.34 312.88L567.44 313.59L551.13 312.58L545.29 327.63L528.83 329.04L528.23 344.35L527.84 354.09L525.47 371.75L524.08 382.02L523.13 389.04L521.93 395.43L520.73 401.80L518.43 413.30L514.91 431.66L512.65 442.28L519.47 444.23L524.14 445.81L528.40 447.25L533.78 448.82L540.53 448.03L545.57 448.84L556.91 448.12L560.92 447.59L566.38 448.09L567.12 452.33L567.88 456.70L568.40 460.53L566.90 468.79L567.87 474.10L568.34 478.85L568.55 484.43L562.83 485.53L561.70 490.57L561.26 495.25L560.43 499.01L560.89 504.69L562.63 508.26L564.97 512.21L569.11 517.51L572.04 520.95L582.78 516.35L589.95 510.72L594.06 507.23L596.99 504.73L604.06 498.50L609.34 493.26L613.19 488.90L616.97 487.77L617.85 494.98L618.35 499.02L619.68 509.71L623.86 509.76L628.07 510.33L631.94 510.86L638.93 511.81L640.70 519.72L646.97 519.64L650.97 519.28L655.81 518.66L662.74 518.47L673.13 518.26L671.85 506.92L670.27 501.74L668.08 494.59L665.64 487.08L665.79 480.22L671.13 478.38L674.72 477.15L685.67 472.30L685.22 468.35L684.77 464.40L683.84 459.03L680.85 453.71L679.40 448.75L678.14 443.20L676.62 434.23L675.21 429.86L673.81 424.82L672.45 421.14L670.66 416.32L666.81 415.16L660.42 404.55L662.48 399.84L665.67 392.69L668.17 387.32L671.91 380.76L677.38 372.25L683.12 364.23L689.57 356.97L696.02 350.25L700.09 347.46L704.21 344.07L700.66 337.56L696.62 325.44L694.68 314.98L694.41 310.43L692.02 304.40Z" data-ward="20" /><path id="ward-17" class="ward" d="M638.93 511.81L631.94 510.86L628.07 510.33L623.86 509.76L619.68 509.71L619.49 513.81L619.30 517.91L619.64 522.94L620.01 530.76L620.38 538.58L622.02 545.93L626.77 546.57L631.65 545.64L636.88 545.25L638.88 549.79L640.07 553.99L642.18 559.73L643.58 563.62L644.98 567.52L647.79 573.81L649.61 578.14L652.81 586.56L658.02 586.65L661.65 584.62L667.57 582.73L671.91 581.97L677.24 580.96L682.56 579.95L688.62 576.04L694.24 574.96L702.72 573.89L712.84 572.62L716.39 587.99L718.21 595.91L721.21 611.80L723.40 618.35L728.82 616.57L736.40 615.20L741.91 614.12L746.68 613.26L752.21 609.31L754.84 606.35L761.19 603.66L766.01 601.97L772.11 599.84L779.60 596.84L784.73 594.79L792.02 592.32L791.04 587.66L787.26 581.06L784.74 576.67L781.93 571.80L778.22 565.62L775.92 561.89L773.66 557.94L770.93 552.99L767.97 547.93L764.98 542.89L762.26 538.56L758.81 533.01L756.89 529.37L754.99 523.05L753.60 517.84L748.43 517.76L744.46 518.14L737.60 518.35L731.61 518.47L726.39 518.63L721.56 518.64L716.56 518.54L711.77 518.50L707.65 518.34L703.53 518.18L698.08 518.13L690.90 518.14L683.99 518.15L678.85 518.12L673.13 518.26L662.74 518.47L655.81 518.66L650.97 519.28L646.97 519.64L640.70 519.72L638.93 511.81Z" data-ward="17" /><path id="ward-1" class="ward" d="M664.01 308.08L673.25 306.40L687.10 304.85L692.02 304.40L693.14 297.32L690.92 288.33L689.37 282.34L687.04 274.24L684.60 266.37L680.83 259.15L678.61 253.89L677.61 248.95L674.84 238.63L670.89 225.74L668.86 219.06L666.78 212.18L663.95 202.86L663.64 197.86L663.12 189.50L662.41 182.72L660.52 172.84L659.08 167.07L655.31 154.19L652.54 144.11L649.61 134.44L646.89 127.12L643.28 117.39L641.73 113.74L650.93 111.41L655.43 105.20L663.50 102.98L667.92 101.30L660.12 94.29L651.15 86.22L643.54 77.89L639.78 73.76L634.16 68.88L619.11 55.79L565.27 5.63L560.32 13.35L558.39 21.03L557.62 25.69L556.81 30.61L556.10 34.89L555.45 38.84L555.09 43.65L554.80 47.44L554.81 52.98L554.32 56.91L554.11 69.29L555.62 76.95L557.11 84.48L557.86 88.28L558.74 92.06L560.70 100.43L561.92 105.38L562.93 111.00L563.71 115.15L565.42 124.21L565.75 129.49L566.98 148.99L568.02 165.55L569.89 186.14L569.26 209.67L568.49 215.96L566.86 232.11L565.14 249.16L564.27 257.79L562.61 266.34L558.66 286.67L552.59 307.56L551.13 312.58L567.44 313.59L572.34 312.88L578.44 311.27L588.07 311.27L605.18 310.46L619.35 309.66L631.92 309.66L642.61 309.66L654.38 310.20L664.01 308.08Z" data-ward="1" /><path id="ward-15" class="ward" d="M622.02 545.93L620.38 538.58L620.01 530.76L619.64 522.94L619.30 517.91L619.49 513.81L619.68 509.71L618.35 499.02L617.85 494.98L616.97 487.77L613.19 488.90L609.34 493.26L604.06 498.50L596.99 504.73L594.06 507.23L589.95 510.72L582.78 516.35L572.04 520.95L575.87 528.32L579.27 534.66L581.81 539.80L584.05 544.57L585.94 548.76L587.96 556.06L589.22 560.41L590.85 565.33L592.11 569.14L593.20 573.16L594.12 577.45L595.68 585.09L597.32 590.33L600.06 596.56L602.72 603.72L604.14 609.74L607.46 613.27L612.81 615.14L614.75 618.71L616.77 622.83L619.77 630.70L620.89 634.47L622.11 639.11L627.48 644.32L630.99 649.80L634.42 655.57L632.80 660.51L627.84 663.20L623.89 665.24L617.85 668.16L614.49 670.20L600.49 655.96L596.11 648.96L593.99 644.05L591.52 640.53L588.09 645.55L584.96 651.62L582.59 656.23L573.85 666.72L568.52 668.94L561.54 669.36L553.81 669.82L525.77 665.46L522.42 671.36L520.10 675.43L516.92 681.02L506.34 693.42L499.81 698.88L496.39 701.73L493.24 704.36L490.08 706.99L479.83 710.21L475.81 711.44L482.14 721.46L485.61 726.96L489.67 731.85L493.06 734.16L496.45 736.47L500.51 743.32L503.14 746.67L510.15 749.93L514.68 752.17L519.56 755.67L522.55 758.29L526.09 762.70L531.87 767.31L539.29 774.75L542.33 777.68L545.36 780.61L551.43 786.43L555.23 781.56L562.84 773.01L578.74 773.36L578.91 765.74L577.79 755.46L582.10 749.05L580.43 745.02L582.76 735.64L585.32 729.72L593.82 724.73L598.85 725.88L604.81 725.74L609.95 724.87L614.38 723.88L611.79 718.04L614.68 715.13L618.69 714.67L625.39 713.75L629.34 713.44L634.14 711.42L634.41 704.42L636.63 700.32L640.62 695.47L642.76 692.08L645.98 688.65L650.33 684.59L654.23 680.52L657.97 677.24L661.88 673.68L665.70 671.17L670.80 668.72L677.71 666.08L682.72 663.70L686.91 661.14L691.94 658.31L696.79 656.33L704.19 653.10L711.24 651.43L714.74 647.85L720.94 646.42L721.65 639.91L726.33 635.55L723.40 618.35L721.21 611.80L718.21 595.91L716.39 587.99L712.84 572.62L702.72 573.89L694.24 574.96L688.62 576.04L682.56 579.95L677.24 580.96L671.91 581.97L667.57 582.73L661.65 584.62L658.02 586.65L652.81 586.56L649.61 578.14L647.79 573.81L644.98 567.52L643.58 563.62L642.18 559.73L640.07 553.99L638.88 549.79L636.88 545.25L631.65 545.64L626.77 546.57L622.02 545.93Z" data-ward="15" /><path id="ward-6" class="ward" d="M772.22 763.47L770.61 759.75L772.26 757.52L769.84 758.28L767.43 759.03L759.49 760.00L752.52 760.57L753.90 765.60L755.04 769.24L756.12 772.86L752.50 774.30L744.63 777.42L739.33 779.53L740.49 791.08L739.92 794.83L739.03 800.72L738.16 806.59L737.43 810.81L735.19 816.53L732.27 823.76L730.04 828.95L726.95 836.15L725.07 844.83L721.34 854.04L718.10 856.99L711.44 860.26L706.34 860.39L698.71 864.94L690.44 868.29L683.33 870.74L677.32 872.03L678.37 875.89L680.15 881.82L682.14 889.03L683.27 894.11L683.88 900.46L684.56 907.76L685.44 919.40L686.27 923.50L685.14 934.32L686.76 944.57L687.17 951.02L687.95 955.55L690.41 961.34L691.51 967.13L693.03 973.79L697.30 980.67L698.95 987.95L698.91 992.10L699.51 1000.09L700.52 1006.41L702.09 1012.46L700.08 1017.43L705.65 1018.37L710.63 1020.84L715.81 1023.40L722.58 1022.38L727.66 1021.62L733.30 1017.73L728.60 1012.82L719.66 1003.45L717.19 994.98L714.82 986.86L716.53 977.84L717.53 972.64L718.34 968.42L719.67 961.59L723.37 956.54L726.33 952.50L730.23 947.11L734.49 941.24L736.88 936.36L738.80 932.45L743.97 925.99L748.21 920.69L752.62 917.58L758.63 913.34L764.59 909.14L769.00 906.03L776.07 900.66L780.00 897.68L783.93 894.69L790.81 890.42L797.33 885.94L801.37 883.16L809.72 879.71L814.42 879.83L820.30 880.76L824.60 880.92L831.00 880.27L839.36 877.38L843.15 868.60L844.94 862.29L846.29 853.42L846.05 848.11L845.68 839.75L844.90 826.73L843.01 813.57L840.41 810.59L835.22 804.65L829.55 803.50L826.47 797.19L830.91 792.48L835.21 787.92L836.22 783.62L832.80 777.52L827.26 772.77L821.23 769.16L816.93 771.42L813.02 773.48L809.11 775.53L803.70 777.73L791.51 777.02L790.89 769.75L790.41 764.13L781.01 767.74L774.30 768.48L772.22 763.47Z" data-ward="6" /><path id="ward-19" class="ward" d="M753.63 513.91L753.23 509.66L752.51 505.90L757.53 504.19L761.56 502.88L765.51 501.59L770.98 500.61L777.53 498.81L780.94 496.75L789.18 494.21L793.13 493.07L799.23 487.34L797.80 483.39L793.13 474.06L790.62 468.95L789.82 465.01L786.68 459.45L780.85 448.52L779.28 444.02L777.72 439.51L776.17 435.30L774.43 430.42L771.75 422.94L770.07 417.25L773.52 415.06L783.16 411.20L794.01 406.78L801.71 402.72L811.32 397.99L805.79 388.46L795.71 371.06L781.47 346.49L778.29 341.01L758.82 307.71L753.20 311.13L736.56 321.85L719.68 332.57L704.21 344.07L700.09 347.46L696.02 350.25L689.57 356.97L683.12 364.23L677.38 372.25L671.91 380.76L668.17 387.32L665.67 392.69L662.48 399.84L660.42 404.55L666.81 415.16L670.66 416.32L672.45 421.14L673.81 424.82L675.21 429.86L676.62 434.23L678.14 443.20L679.40 448.75L680.85 453.71L683.84 459.03L684.77 464.40L685.22 468.35L685.67 472.30L674.72 477.15L671.13 478.38L665.79 480.22L665.64 487.08L668.08 494.59L670.27 501.74L671.85 506.92L673.13 518.26L678.85 518.12L683.99 518.15L690.90 518.14L698.08 518.13L703.53 518.18L707.65 518.34L711.77 518.50L716.56 518.54L721.56 518.64L726.39 518.63L731.61 518.47L737.60 518.35L744.46 518.14L748.43 517.76L753.60 517.84L753.63 513.91Z" data-ward="19" /><path id="ward-13" class="ward" d="M450.12 713.28L445.13 712.66L440.17 712.03L435.16 711.40L430.79 709.98L420.28 706.53L409.71 703.03L401.50 700.31L390.30 696.48L384.94 694.65L365.21 687.55L366.00 692.75L367.04 699.84L367.87 706.40L368.60 712.77L369.53 722.17L370.88 729.03L373.63 737.79L375.64 744.19L377.91 752.54L379.96 760.09L381.47 766.16L383.41 774.20L384.81 780.00L386.53 787.20L388.31 794.60L389.63 800.04L391.40 807.28L393.05 813.32L394.42 818.00L396.44 827.76L397.45 832.86L398.25 837.27L399.06 841.69L400.32 849.00L401.04 853.21L401.76 857.41L403.02 864.86L404.51 873.70L406.88 881.52L409.37 889.78L411.44 898.91L413.45 907.62L415.36 914.06L417.38 925.44L422.88 921.65L433.42 916.07L439.60 913.47L445.08 911.37L451.63 908.94L459.06 905.99L462.93 904.39L466.46 902.93L476.24 898.16L482.26 895.23L487.25 892.76L493.35 889.73L499.84 886.66L506.53 883.83L512.68 881.93L517.49 880.40L523.42 878.52L529.58 877.11L540.69 875.04L547.07 874.14L552.56 873.60L558.11 873.32L562.97 873.22L568.87 872.76L574.10 872.30L579.72 872.27L584.34 872.33L589.33 872.10L593.51 871.89L600.41 871.69L601.01 875.89L600.12 880.80L599.99 885.26L595.18 890.24L590.47 893.10L589.15 899.03L589.42 905.37L589.47 910.11L588.54 923.57L589.06 934.48L589.17 939.73L589.28 944.98L589.08 950.97L588.88 956.83L592.75 969.06L601.88 973.90L616.37 980.86L620.37 983.70L630.25 990.87L636.82 995.25L645.25 1000.86L655.97 1006.79L665.99 1010.92L676.99 1015.40L682.42 1017.51L690.54 1018.28L695.33 1018.34L700.08 1017.43L702.09 1012.46L700.52 1006.41L699.51 1000.09L698.91 992.10L698.95 987.95L697.30 980.67L693.03 973.79L691.51 967.13L690.41 961.34L687.95 955.55L687.17 951.02L686.76 944.57L685.14 934.32L686.27 923.50L685.44 919.40L684.56 907.76L683.88 900.46L683.27 894.11L682.14 889.03L680.15 881.82L678.37 875.89L677.32 872.03L683.33 870.74L690.44 868.29L698.71 864.94L706.34 860.39L701.25 854.66L697.64 851.41L690.32 848.00L686.35 847.46L682.39 846.52L678.43 845.58L672.37 843.40L665.66 841.74L658.06 840.94L650.18 840.53L644.63 840.24L639.25 839.55L633.01 838.75L629.11 837.68L625.20 836.60L619.69 833.89L612.46 831.30L605.04 829.63L596.74 826.24L589.86 823.43L584.41 820.50L580.89 817.73L577.46 815.03L569.64 807.54L565.94 803.30L559.83 795.61L556.40 791.93L551.43 786.43L545.36 780.61L542.33 777.68L539.29 774.75L531.87 767.31L526.09 762.70L522.55 758.29L519.56 755.67L514.68 752.17L510.15 749.93L503.14 746.67L500.51 743.32L496.45 736.47L493.06 734.16L489.67 731.85L485.61 726.96L482.14 721.46L475.81 711.44L472.11 712.34L468.41 713.24L463.33 714.47L450.12 713.28Z" data-ward="13" /><path id="ward-12" class="ward" d="M415.36 914.06L413.45 907.62L411.44 898.91L409.37 889.78L406.88 881.52L404.51 873.70L403.02 864.86L401.76 857.41L401.04 853.21L400.32 849.00L399.06 841.69L398.25 837.27L397.45 832.86L396.44 827.76L394.42 818.00L393.05 813.32L391.40 807.28L389.63 800.04L388.31 794.60L386.53 787.20L384.81 780.00L383.41 774.20L381.47 766.16L379.96 760.09L377.91 752.54L375.64 744.19L373.63 737.79L370.88 729.03L369.53 722.17L368.60 712.77L367.87 706.40L367.04 699.84L366.00 692.75L365.21 687.55L358.41 686.28L353.68 685.41L349.14 684.56L344.47 683.70L335.93 683.59L326.10 683.32L322.14 683.72L317.51 684.18L311.87 684.75L307.95 685.51L301.00 686.53L291.00 688.52L283.46 690.03L260.69 690.08L249.80 697.83L228.56 712.93L222.26 727.55L219.13 734.82L217.57 738.45L216.03 742.01L217.06 764.32L217.89 779.07L219.23 787.38L222.66 806.60L224.99 817.23L229.46 834.24L237.36 861.62L242.91 881.46L246.24 892.02L247.89 897.29L249.15 901.28L254.42 918.02L256.00 923.05L262.02 922.17L267.29 921.40L274.74 921.15L279.37 921.68L283.99 922.20L289.70 923.16L295.40 924.13L304.22 925.67L310.54 926.53L320.28 928.73L325.01 929.58L330.49 930.55L340.88 934.19L341.93 938.79L342.08 942.72L342.78 948.41L345.12 952.97L346.30 957.47L346.76 963.93L345.26 970.83L346.11 975.26L347.16 980.59L348.10 984.31L350.56 992.35L351.86 996.42L353.93 1001.53L356.42 1006.86L360.23 1013.58L364.51 1020.25L369.61 1017.89L373.69 1015.99L381.01 1012.68L384.98 1014.10L389.87 1019.18L394.92 1020.88L400.57 1019.16L407.54 1016.78L414.08 1012.14L418.73 1007.54L426.81 1001.61L425.70 994.49L424.81 989.24L423.27 981.09L421.82 972.98L421.11 968.75L420.00 962.07L417.69 953.00L416.52 945.32L415.57 939.19L414.38 934.53L416.03 930.68L417.38 925.44L415.36 914.06Z" data-ward="12" /><path id="ward-10" class="ward" d="M433.58 1018.45L431.26 1014.70L428.00 1009.12L426.81 1001.61L418.73 1007.54L414.08 1012.14L407.54 1016.78L400.57 1019.16L394.92 1020.88L389.87 1019.18L384.98 1014.10L381.01 1012.68L373.69 1015.99L369.61 1017.89L364.51 1020.25L368.29 1027.12L373.51 1033.63L376.92 1038.09L383.87 1043.19L388.57 1044.25L388.23 1049.33L390.77 1057.78L395.95 1065.73L398.95 1072.88L400.22 1078.53L401.27 1083.19L407.51 1079.61L413.91 1078.27L421.51 1077.11L429.11 1075.96L432.59 1081.71L440.79 1079.95L444.57 1079.14L452.05 1079.86L455.22 1084.98L450.51 1088.14L448.16 1093.53L441.36 1102.61L437.38 1107.24L431.45 1112.46L431.79 1116.57L432.13 1120.72L437.40 1120.21L443.88 1120.63L447.79 1121.73L451.38 1125.87L454.81 1127.82L460.45 1129.59L464.95 1131.30L470.10 1135.99L476.27 1135.52L481.09 1134.71L485.40 1133.56L488.86 1132.08L492.47 1130.75L496.05 1129.43L501.84 1127.30L500.13 1123.21L499.28 1117.92L498.43 1112.11L496.14 1096.79L496.89 1089.43L493.74 1074.92L508.82 1071.66L523.13 1068.84L521.95 1063.48L520.18 1055.46L519.05 1051.25L517.93 1046.45L516.46 1041.17L514.60 1034.46L510.53 1029.67L507.20 1027.11L503.13 1023.99L499.04 1020.83L494.95 1017.67L488.22 1014.51L483.52 1012.77L482.79 1018.66L477.86 1021.03L472.40 1023.93L467.28 1027.40L463.29 1030.69L462.32 1040.75L450.97 1043.02L441.54 1044.66L438.00 1039.47L436.91 1032.24L435.32 1026.86L434.41 1022.20L433.58 1018.45Z" data-ward="10" /><path id="ward-2" class="ward" d="M850.09 266.66L862.47 261.77L867.23 260.18L888.00 253.25L902.47 245.58L902.90 239.81L903.22 235.15L899.61 220.14L895.00 204.24L890.86 189.97L881.79 179.60L877.80 175.03L874.02 170.70L863.82 160.25L857.58 154.91L846.89 147.45L835.83 139.73L829.88 135.57L824.06 130.67L812.32 120.78L808.56 117.60L798.12 115.01L784.15 114.17L768.69 113.57L750.04 112.41L745.57 111.84L737.42 110.20L722.11 106.38L714.49 102.29L698.25 94.47L687.69 87.69L680.99 83.18L663.44 68.94L658.64 65.06L650.04 48.39L636.18 30.92L633.33 26.58L630.68 23.83L623.48 20.56L614.69 17.61L595.27 11.11L583.92 6.03L570.45 0.00L565.27 5.63L619.11 55.79L634.16 68.88L639.78 73.76L643.54 77.89L651.15 86.22L660.12 94.29L667.92 101.30L663.50 102.98L655.43 105.20L650.93 111.41L641.73 113.74L643.28 117.39L646.89 127.12L649.61 134.44L652.54 144.11L655.31 154.19L659.08 167.07L660.52 172.84L662.41 182.72L663.12 189.50L663.64 197.86L663.95 202.86L666.78 212.18L668.86 219.06L670.89 225.74L674.84 238.63L677.61 248.95L678.61 253.89L680.83 259.15L684.60 266.37L687.04 274.24L689.37 282.34L690.92 288.33L693.14 297.32L692.02 304.40L694.41 310.43L694.68 314.98L696.62 325.44L700.66 337.56L704.21 344.07L719.68 332.57L736.56 321.85L753.20 311.13L758.82 307.71L749.48 290.38L746.54 283.38L743.06 275.06L739.79 267.27L743.69 266.33L747.93 269.51L753.47 276.64L757.95 284.01L764.41 284.50L771.79 282.18L780.80 280.34L786.14 279.25L794.96 277.73L798.43 279.61L804.64 281.00L814.72 280.49L830.15 274.85L850.09 266.66Z" data-ward="2" /><path id="ward-4" class="ward" d="M892.07 584.97L887.62 569.40L867.94 521.37L861.67 504.84L854.72 487.55L845.79 465.31L840.33 453.57L831.04 433.63L816.50 407.33L811.32 397.99L801.71 402.72L794.01 406.78L783.16 411.20L773.52 415.06L770.07 417.25L771.75 422.94L774.43 430.42L776.17 435.30L777.72 439.51L779.28 444.02L780.85 448.52L786.68 459.45L789.82 465.01L790.62 468.95L793.13 474.06L797.80 483.39L799.23 487.34L793.13 493.07L789.18 494.21L780.94 496.75L777.53 498.81L770.98 500.61L765.51 501.59L761.56 502.88L757.53 504.19L752.51 505.90L753.23 509.66L753.63 513.91L753.60 517.84L754.99 523.05L756.89 529.37L758.81 533.01L762.26 538.56L764.98 542.89L767.97 547.93L770.93 552.99L773.66 557.94L775.92 561.89L778.22 565.62L781.93 571.80L784.74 576.67L787.26 581.06L791.04 587.66L792.02 592.32L794.44 595.79L796.63 598.94L799.82 605.14L801.63 608.48L809.17 605.39L813.82 603.10L817.37 601.35L823.36 599.25L829.88 596.81L836.57 594.28L848.81 588.98L855.89 587.34L860.01 590.01L862.89 594.74L870.21 591.78L877.48 590.37L884.55 587.76L892.07 584.97Z" data-ward="4" /><path id="ward-5" class="ward" d="M897.94 594.05L892.07 584.97L884.55 587.76L877.48 590.37L870.21 591.78L862.89 594.74L860.01 590.01L855.89 587.34L848.81 588.98L836.57 594.28L829.88 596.81L823.36 599.25L817.37 601.35L813.82 603.10L809.17 605.39L801.63 608.48L803.76 612.92L805.85 617.36L807.43 621.06L809.00 624.76L807.04 629.74L802.33 631.30L795.69 633.49L784.83 636.80L774.11 640.07L775.88 647.28L777.59 650.74L782.08 663.00L803.57 653.76L818.50 647.34L831.81 676.58L838.05 689.63L839.95 693.62L849.48 712.04L836.71 717.16L824.92 721.00L817.05 722.42L818.89 729.46L811.49 730.91L807.11 731.51L801.27 732.31L797.19 732.87L798.44 738.27L799.16 742.42L798.43 748.11L795.91 753.05L789.14 753.56L784.22 754.05L776.80 755.27L772.26 757.52L770.61 759.75L772.22 763.47L774.30 768.48L781.01 767.74L790.41 764.13L794.15 763.50L801.72 759.99L811.01 756.74L818.80 753.75L823.07 748.73L825.68 745.72L829.83 745.38L836.16 744.92L841.72 743.49L845.46 742.15L850.32 740.42L853.48 737.73L853.69 732.22L852.86 728.34L851.71 722.94L855.67 719.38L860.50 717.88L867.84 714.78L876.95 711.94L880.88 709.34L895.24 706.41L893.31 697.83L892.42 693.88L890.77 686.14L888.38 675.41L887.46 671.59L885.33 662.14L884.26 657.06L889.41 655.39L896.61 653.07L903.36 654.46L910.41 650.39L913.65 648.18L917.46 645.60L922.40 638.72L919.00 634.02L914.85 628.22L911.38 622.38L905.07 611.09L903.50 607.33L901.20 601.85L897.94 594.05Z" data-ward="5" /><path id="ward-11" class="ward" d="M411.25 1111.50L408.46 1104.30L404.89 1095.07L402.67 1089.33L401.27 1083.19L400.22 1078.53L398.95 1072.88L395.95 1065.73L390.77 1057.78L388.23 1049.33L388.57 1044.25L383.87 1043.19L376.92 1038.09L373.51 1033.63L368.29 1027.12L364.51 1020.25L360.23 1013.58L356.42 1006.86L353.93 1001.53L351.86 996.42L350.56 992.35L348.10 984.31L347.16 980.59L346.11 975.26L345.26 970.83L346.76 963.93L346.30 957.47L345.12 952.97L342.78 948.41L342.08 942.72L341.93 938.79L340.88 934.19L330.49 930.55L325.01 929.58L320.28 928.73L310.54 926.53L304.22 925.67L295.40 924.13L289.70 923.16L283.99 922.20L279.37 921.68L274.74 921.15L267.29 921.40L262.02 922.17L256.00 923.05L258.12 929.44L259.99 952.41L260.87 966.44L261.52 975.00L261.91 982.76L262.48 990.91L262.76 994.99L263.03 998.85L259.91 1020.76L257.31 1028.69L255.51 1034.17L254.32 1037.80L251.77 1045.55L248.75 1047.79L239.80 1054.43L258.67 1063.81L276.05 1072.44L282.12 1081.17L286.74 1095.07L289.35 1098.96L296.25 1121.04L303.42 1119.55L307.95 1118.56L316.98 1116.69L326.88 1114.60L336.05 1113.51L345.22 1112.43L346.48 1119.10L352.54 1119.30L358.60 1119.51L362.90 1120.40L368.37 1119.22L372.81 1117.95L377.43 1119.46L382.37 1118.75L388.45 1118.25L393.98 1117.35L399.06 1117.31L402.55 1119.76L409.60 1118.39L413.48 1117.27L411.25 1111.50Z" data-ward="11" /><path id="ward-3" class="ward" d="M892.89 270.30L896.26 263.14L899.06 257.22L900.55 252.14L902.47 245.58L888.00 253.25L867.23 260.18L862.47 261.77L850.09 266.66L830.15 274.85L814.72 280.49L804.64 281.00L798.43 279.61L794.96 277.73L786.14 279.25L780.80 280.34L771.79 282.18L764.41 284.50L757.95 284.01L753.47 276.64L747.93 269.51L743.69 266.33L739.79 267.27L743.06 275.06L746.54 283.38L749.48 290.38L758.82 307.71L778.29 341.01L781.47 346.49L795.71 371.06L805.79 388.46L811.32 397.99L816.50 407.33L831.04 433.63L840.33 453.57L845.79 465.31L854.72 487.55L861.67 504.84L867.94 521.37L887.62 569.40L892.07 584.97L897.94 594.05L901.20 601.85L903.50 607.33L905.07 611.09L911.38 622.38L914.85 628.22L919.00 634.02L922.40 638.72L932.30 637.06L930.59 633.45L946.62 629.31L959.92 625.30L964.66 623.88L977.98 619.13L987.69 617.31L1000.00 615.00L997.30 607.19L994.10 596.48L993.27 589.80L991.45 575.02L983.80 555.92L976.34 543.32L974.10 539.53L970.59 536.11L964.26 529.95L957.77 524.51L940.50 510.05L935.89 505.75L927.51 497.36L911.50 481.34L901.05 470.45L889.37 458.33L878.50 444.47L868.34 431.49L865.66 428.07L860.55 418.50L853.94 387.20L852.95 357.10L853.31 349.11L853.49 345.23L855.68 334.85L877.38 303.12L892.89 270.30Z" data-ward="3" /></svg>