<svg viewBox="0 0 1000.00 964.85" xmlns="http://www.w3.org/2000/svg"><style>.ward { fill: #e2e8f0; stroke: #fff; stroke-width: 0.5px; } .ward:hover { fill: #cbd5e1; }</style><path id="ward-6" class="ward" d="M449.52 270.43L438.24 268.92L427.28 267.45L422.16 266.37L417.06 265.28L410.00 263.79L405.44 262.98L400.95 262.18L396.64 261.16L392.33 260.15L385.38 258.45L378.94 256.83L371.83 254.64L363.93 253.06L357.99 251.02L353.27 252.59L352.40 257.49L349.71 263.54L344.47 264.82L336.94 267.71L337.64 277.32L337.81 284.57L336.81 289.41L336.13 297.28L340.05 299.16L343.96 301.03L349.39 302.30L358.08 301.71L364.70 301.79L376.29 301.65L380.52 302.15L388.44 303.07L395.39 299.87L402.65 298.05L403.47 303.77L410.96 303.51L413.48 298.77L419.85 300.21L420.07 307.87L425.64 315.36L427.42 322.76L427.87 327.57L427.99 332.79L427.95 337.93L427.90 345.74L427.09 351.92L427.52 358.55L431.20 367.17L436.68 365.41L442.16 363.65L454.55 359.69L456.94 366.90L460.87 378.74L466.57 395.98L487.11 379.23L499.29 369.30L521.61 351.09L572.88 356.15L584.91 357.34L584.24 348.69L583.66 341.13L582.64 336.25L581.62 331.08L580.80 326.89L579.83 322.02L579.00 315.08L579.56 310.61L579.62 305.75L574.02 306.62L569.38 307.30L564.30 307.84L558.08 308.42L554.19 310.13L549.24 311.79L544.95 313.08L540.41 314.55L535.79 315.63L529.79 317.03L525.68 318.18L521.57 319.27L517.02 320.56L512.14 321.46L511.77 315.33L510.85 310.85L509.81 305.78L508.66 300.06L507.59 294.67L507.72 289.91L504.12 287.04L499.98 286.28L495.14 287.79L491.17 285.37L490.60 279.80L485.62 280.35L479.79 282.20L475.72 283.49L472.01 281.06L471.03 273.47L468.66 263.74L461.51 269.00L455.91 271.28L449.52 270.43Z" data-ward="6" /><path id="ward-7" class="ward" d="M343.96 301.03L340.05 299.16L336.13 297.28L336.81 289.41L337.81 284.57L337.64 277.32L336.94 267.71L344.47 264.82L349.71 263.54L352.40 257.49L353.27 252.59L346.77 248.61L340.98 248.00L336.87 247.40L332.44 246.94L328.04 246.61L319.32 245.73L309.60 243.30L304.04 241.53L297.88 239.48L291.02 236.69L286.19 234.78L280.27 232.34L273.96 231.48L293.48 264.07L300.59 276.95L303.79 282.74L305.81 286.45L311.02 296.03L320.34 313.20L326.86 327.02L332.74 342.75L341.23 358.54L349.96 372.04L352.58 376.08L355.49 379.99L370.55 400.21L397.00 428.20L418.05 447.78L424.14 454.75L466.57 395.98L460.87 378.74L456.94 366.90L454.55 359.69L442.16 363.65L436.68 365.41L431.20 367.17L427.52 358.55L427.09 351.92L427.90 345.74L427.95 337.93L427.99 332.79L427.87 327.57L427.42 322.76L425.64 315.36L420.07 307.87L419.85 300.21L413.48 298.77L410.96 303.51L403.47 303.77L402.65 298.05L395.39 299.87L388.44 303.07L380.52 302.15L376.29 301.65L364.70 301.79L358.08 301.71L349.39 302.30L343.96 301.03Z" data-ward="7" /><path id="ward-12" class="ward" d="M888.74 521.15L885.27 445.65L848.41 440.70L811.08 420.56L793.66 406.26L771.36 387.96L765.06 391.17L750.86 420.02L734.39 453.48L720.19 482.26L723.45 485.89L730.97 495.38L730.85 500.51L730.64 509.33L730.38 519.82L734.31 531.25L736.11 538.11L738.67 542.41L742.44 548.46L744.79 559.01L748.19 573.63L753.74 576.98L770.17 583.20L781.21 590.25L792.32 594.85L803.89 598.84L811.29 600.23L815.98 600.78L821.88 600.35L830.45 599.53L838.88 598.28L837.02 585.99L830.60 543.73L825.78 526.63L825.67 521.14L833.43 521.62L845.62 522.37L850.25 522.43L854.88 522.49L876.04 522.39L881.97 521.81L888.74 521.15Z" data-ward="12" /><path id="ward-19" class="ward" d="M703.11 744.45L717.83 691.57L717.92 691.57L709.91 691.62L698.95 685.51L692.80 685.43L684.72 685.17L671.20 681.96L664.70 680.15L660.15 678.85L655.59 677.55L651.60 676.27L640.30 673.16L620.55 683.19L610.07 698.98L607.76 709.63L603.47 729.39L601.59 739.97L599.08 754.09L593.85 783.43L603.25 784.36L607.62 784.26L625.57 783.87L637.22 783.62L641.72 776.29L663.75 774.15L670.36 784.62L676.61 779.76L684.37 773.05L699.23 758.41L700.47 753.94L703.11 744.45Z" data-ward="19" /><path id="ward-24" class="ward" d="M355.49 379.99L352.58 376.08L349.96 372.04L341.23 358.54L332.74 342.75L326.86 327.02L320.34 313.20L311.02 296.03L305.81 286.45L303.79 282.74L300.59 276.95L293.48 264.07L273.96 231.48L264.58 230.55L258.85 232.59L254.97 239.47L252.13 243.94L248.78 249.72L248.44 257.15L249.31 280.21L250.38 286.89L251.21 291.42L251.53 300.89L254.53 304.36L250.49 306.28L245.04 308.99L239.52 311.89L235.73 314.99L235.93 320.24L238.89 331.22L237.59 342.43L236.49 347.28L266.55 365.76L278.30 371.96L283.65 378.16L291.36 385.82L299.25 393.55L290.76 392.19L259.94 395.46L248.94 396.63L253.21 401.32L266.66 416.07L270.95 420.51L279.18 426.24L292.63 436.10L290.85 442.49L306.10 448.93L309.01 454.20L314.56 466.03L328.03 469.45L358.61 477.20L366.41 479.18L418.05 447.78L397.00 428.20L370.55 400.21L355.49 379.99Z" data-ward="24" /><path id="ward-11" class="ward" d="M744.79 559.01L742.44 548.46L738.67 542.41L736.11 538.11L734.31 531.25L730.38 519.82L730.64 509.33L730.85 500.51L730.97 495.38L723.45 485.89L720.19 482.26L625.90 585.13L633.85 588.89L642.65 596.17L652.55 585.43L659.61 576.92L664.74 573.22L676.44 575.30L676.64 584.93L676.95 599.56L677.13 605.63L677.36 612.92L678.81 617.55L681.28 625.28L686.88 630.92L692.59 630.84L703.04 630.28L708.40 629.99L713.14 635.05L715.24 640.87L718.00 651.08L719.53 658.40L720.57 667.30L719.94 680.19L718.26 690.03L726.87 689.83L742.01 692.47L749.20 694.09L762.39 703.34L769.36 705.48L771.26 700.69L772.35 695.78L773.75 689.49L775.06 678.05L773.52 659.86L772.21 644.55L769.71 618.71L777.67 598.63L781.21 590.25L770.17 583.20L753.74 576.98L748.19 573.63L744.79 559.01Z" data-ward="11" /><path id="ward-23" class="ward" d="M451.86 657.25L467.50 656.93L474.29 652.53L474.15 644.05L473.93 635.89L473.78 628.77L473.64 621.89L473.49 617.55L472.36 601.15L471.49 589.28L469.45 580.93L462.95 554.22L459.40 530.83L457.67 524.44L449.83 506.37L437.21 477.28L424.14 454.75L418.05 447.78L366.41 479.18L368.34 489.35L370.90 502.80L376.09 516.20L377.92 520.93L379.87 525.97L382.25 532.12L388.66 548.68L396.52 568.99L401.13 590.83L401.15 600.96L400.42 611.53L399.69 622.09L396.39 631.34L391.73 644.35L389.41 650.18L414.99 656.45L428.35 656.94L444.69 657.43L451.86 657.25Z" data-ward="23" /><path id="ward-4" class="ward" d="M461.51 269.00L468.66 263.74L467.77 240.75L467.31 235.12L466.55 228.56L465.92 223.19L465.11 216.51L464.61 208.23L465.31 174.12L465.73 169.92L467.43 153.53L455.77 160.72L430.94 168.47L425.01 172.10L409.25 181.19L396.63 184.50L391.09 185.39L383.21 186.84L371.41 187.64L363.95 188.28L356.76 188.26L357.66 199.25L359.57 207.07L360.67 212.31L360.96 217.70L361.80 222.78L363.41 226.72L364.71 231.07L365.09 236.44L365.26 243.03L365.48 248.17L363.93 253.06L371.83 254.64L378.94 256.83L385.38 258.45L392.33 260.15L396.64 261.16L400.95 262.18L405.44 262.98L410.00 263.79L417.06 265.28L422.16 266.37L427.28 267.45L438.24 268.92L449.52 270.43L455.91 271.28L461.51 269.00Z" data-ward="4" /><path id="ward-8" class="ward" d="M555.69 476.82L548.38 475.01L542.97 473.97L536.02 468.08L536.81 462.24L538.42 452.96L543.38 449.03L549.60 445.06L555.31 441.41L559.15 438.99L567.71 434.17L575.43 429.82L580.04 424.77L573.08 423.53L568.12 423.35L563.95 423.19L547.83 422.57L535.34 421.43L525.73 420.56L510.83 418.95L509.70 412.39L508.38 403.35L506.89 396.15L504.13 383.22L499.29 369.30L487.11 379.23L466.57 395.98L424.14 454.75L437.21 477.28L449.83 506.37L457.67 524.44L470.70 526.95L488.43 526.92L495.97 526.91L510.38 527.32L528.47 525.97L529.91 516.69L531.75 504.81L533.62 494.46L534.37 483.24L554.74 496.55L555.69 476.82Z" data-ward="8" /><path id="ward-16" class="ward" d="M772.46 864.33L772.46 864.33L773.10 860.74L772.46 864.33Z M763.00 863.67L771.96 867.12L774.06 875.22L787.81 871.77L785.67 865.47L772.83 866.09L772.46 864.33L772.46 864.33L773.10 860.74L770.14 859.20L769.09 853.99L766.49 849.62L761.31 840.92L761.87 836.21L771.03 835.06L777.44 837.32L777.86 842.29L786.63 846.88L790.19 853.59L794.68 853.46L808.52 855.32L825.43 852.08L831.50 851.84L837.62 851.61L848.30 849.84L856.85 844.18L860.84 840.81L863.93 830.83L863.90 823.04L865.14 817.97L863.17 811.17L862.69 803.32L863.72 792.46L840.81 791.30L833.48 790.92L823.81 790.43L819.25 790.20L802.39 789.34L776.23 795.86L761.55 801.03L754.05 803.16L749.10 803.96L741.55 804.88L735.89 804.00L726.54 801.93L713.24 792.23L691.40 784.00L670.36 784.62L676.37 794.38L684.26 797.80L692.01 801.13L696.67 805.55L700.13 808.80L705.99 817.88L713.93 829.02L722.90 829.25L732.16 829.49L736.20 835.53L737.73 842.61L740.69 847.70L741.01 852.32L747.12 854.63L752.55 856.68L757.40 861.52L763.00 863.67Z" data-ward="16" /><path id="ward-15" class="ward" d="M717.92 691.57L717.83 691.57L703.11 744.45L700.47 753.94L699.23 758.41L684.37 773.05L676.61 779.76L670.36 784.62L691.40 784.00L713.24 792.23L726.54 801.93L735.89 804.00L741.55 804.88L749.10 803.96L754.05 803.16L761.55 801.03L776.23 795.86L802.39 789.34L819.25 790.20L823.81 790.43L833.48 790.92L840.81 791.30L863.72 792.46L865.91 787.60L867.54 775.91L869.08 771.33L873.21 767.14L876.86 758.49L878.08 754.38L878.11 747.57L882.26 740.31L879.99 735.79L878.65 730.94L873.20 731.42L867.68 729.18L862.63 730.04L858.51 732.91L851.34 734.26L843.10 733.99L835.29 732.78L830.87 735.31L822.96 740.98L819.42 744.41L815.48 748.67L811.65 752.79L807.34 757.43L803.09 757.44L797.77 752.65L799.46 748.57L802.72 745.67L806.65 739.86L808.12 733.39L810.41 725.48L814.05 715.61L814.28 711.15L815.26 704.12L806.79 699.12L806.76 692.61L800.02 689.42L795.51 685.19L796.41 677.51L790.56 677.15L784.86 676.61L780.55 677.11L775.06 678.05L773.75 689.49L772.35 695.78L771.26 700.69L769.36 705.48L762.39 703.34L749.20 694.09L742.01 692.47L726.87 689.83L718.26 690.03L719.94 680.19L720.57 667.30L719.53 658.40L718.00 651.08L715.24 640.87L713.14 635.05L708.40 629.99L703.04 630.28L692.59 630.84L686.88 630.92L683.39 633.86L678.06 637.46L674.40 639.85L670.88 642.23L666.70 646.83L662.17 652.05L656.76 658.96L649.63 665.12L640.30 673.16L651.60 676.27L655.59 677.55L660.15 678.85L664.70 680.15L671.20 681.96L684.72 685.17L692.80 685.43L698.95 685.51L709.91 691.62L717.92 691.57Z" data-ward="15" /><path id="ward-22" class="ward" d="M428.35 656.94L414.99 656.45L389.41 650.18L385.71 658.98L375.95 682.16L372.50 693.76L371.03 698.71L370.20 720.31L369.22 745.69L367.56 751.93L365.91 765.04L361.53 776.95L359.86 783.99L357.97 791.11L353.55 798.35L345.96 810.31L338.13 822.65L332.64 828.70L349.55 837.51L378.65 848.74L382.62 850.58L386.10 847.23L391.49 832.56L393.75 826.41L396.98 820.35L401.77 811.78L407.74 801.26L410.64 795.64L414.83 787.74L417.09 783.46L420.86 776.32L424.56 769.29L427.95 762.78L431.33 756.27L434.71 749.73L436.82 745.38L441.02 736.71L443.47 731.64L446.14 725.88L448.05 721.82L452.00 712.70L456.35 701.36L460.78 687.54L462.46 680.12L464.37 671.62L465.64 665.98L467.50 656.93L451.86 657.25L444.69 657.43L428.35 656.94Z" data-ward="22" /><path id="ward-3" class="ward" d="M548.99 151.81L537.80 140.90L514.47 118.55L508.32 112.66L504.83 109.57L499.17 104.58L489.10 95.69L474.08 87.72L463.03 82.78L449.24 76.60L388.77 61.54L381.66 59.77L368.24 62.24L359.15 63.91L352.32 64.46L331.41 66.14L330.65 72.61L329.89 79.12L328.60 90.26L326.87 105.08L325.48 113.69L325.83 126.39L327.41 136.69L327.85 145.60L325.62 153.35L322.32 158.42L319.95 165.38L320.80 169.82L321.63 174.11L321.89 179.30L322.15 189.16L327.33 187.88L333.03 185.84L338.20 184.97L343.80 183.08L347.33 178.94L353.30 177.57L356.48 181.36L356.76 188.26L363.95 188.28L371.41 187.64L383.21 186.84L391.09 185.39L396.63 184.50L409.25 181.19L425.01 172.10L430.94 168.47L455.77 160.72L467.43 153.53L465.73 169.92L465.31 174.12L471.22 176.20L475.54 176.16L480.38 179.36L484.55 181.72L492.12 185.82L496.13 189.44L503.51 198.81L510.11 206.93L519.61 218.18L523.09 215.65L529.24 210.92L552.78 206.07L583.51 199.73L577.60 191.88L566.14 175.84L548.99 151.81Z" data-ward="3" /><path id="ward-13" class="ward" d="M907.84 445.88L885.27 445.65L888.74 521.15L881.97 521.81L876.04 522.39L854.88 522.49L850.25 522.43L845.62 522.37L833.43 521.62L825.67 521.14L825.78 526.63L830.60 543.73L837.02 585.99L838.88 598.28L873.56 594.57L894.97 592.28L895.93 604.36L897.20 620.11L898.47 630.97L897.97 644.17L899.74 654.92L901.43 665.17L900.30 670.62L915.42 670.97L919.80 670.99L927.47 671.25L932.98 671.44L937.44 667.60L936.66 661.92L935.19 654.78L933.07 644.57L924.91 642.94L927.02 616.89L925.72 612.28L927.82 606.80L934.62 592.16L941.77 601.21L955.43 607.07L958.59 612.71L966.40 609.53L967.99 602.26L968.50 596.41L969.07 589.84L962.67 580.42L946.44 578.91L952.25 565.93L956.05 557.44L961.07 554.92L967.19 551.85L975.72 553.25L979.41 550.84L984.21 550.69L991.20 549.89L991.53 543.04L992.88 534.89L999.91 532.64L999.44 526.70L1000.00 522.43L996.16 512.75L995.78 502.94L995.28 489.85L993.04 482.84L990.90 474.17L990.76 468.56L990.21 446.46L953.59 446.37L907.84 445.88Z" data-ward="13" /><path id="ward-17" class="ward" d="M670.36 784.62L663.75 774.15L641.72 776.29L637.22 783.62L625.57 783.87L607.62 784.26L603.25 784.36L593.85 783.43L583.56 847.63L592.16 848.16L596.30 851.69L600.16 855.20L606.81 856.72L613.89 858.34L624.47 861.61L630.41 863.47L635.90 865.12L646.81 868.46L656.59 871.46L663.43 872.01L675.78 868.44L682.81 866.41L688.12 865.37L693.47 866.57L696.98 870.87L698.12 875.23L698.85 879.77L700.31 888.90L700.75 905.30L701.05 916.61L701.51 929.55L723.27 923.94L726.04 930.60L728.82 937.27L731.62 942.03L734.42 946.79L737.44 950.59L740.63 954.60L744.16 959.11L746.52 964.22L752.39 963.13L767.80 964.85L767.52 958.34L767.21 950.85L774.14 943.18L773.13 938.17L771.83 929.58L773.42 924.55L775.12 919.19L777.29 912.30L781.50 905.04L789.26 891.65L791.85 884.92L790.60 880.85L787.81 871.77L774.06 875.22L771.96 867.12L763.00 863.67L757.40 861.52L752.55 856.68L747.12 854.63L741.01 852.32L740.69 847.70L737.73 842.61L736.20 835.53L732.16 829.49L722.90 829.25L713.93 829.02L705.99 817.88L700.13 808.80L696.67 805.55L692.01 801.13L684.26 797.80L676.37 794.38L670.36 784.62Z" data-ward="17" /><path id="ward-21" class="ward" d="M536.22 650.51L533.37 645.81L528.23 636.79L528.81 632.14L521.81 632.83L510.91 633.91L505.57 636.47L506.48 654.30L474.15 644.05L474.29 652.53L467.50 656.93L465.64 665.98L464.37 671.62L462.46 680.12L460.78 687.54L456.35 701.36L452.00 712.70L448.05 721.82L446.14 725.88L443.47 731.64L441.02 736.71L436.82 745.38L434.71 749.73L431.33 756.27L427.95 762.78L424.56 769.29L420.86 776.32L417.09 783.46L414.83 787.74L410.64 795.64L407.74 801.26L401.77 811.78L396.98 820.35L393.75 826.41L403.69 832.92L409.37 840.69L417.51 841.91L425.33 840.94L431.96 838.32L438.64 835.69L442.07 830.56L450.31 826.72L454.80 824.57L459.02 822.55L463.27 820.51L469.62 817.46L475.39 817.67L484.60 819.22L503.15 819.30L502.56 812.71L501.91 805.34L501.38 799.39L500.93 794.42L500.27 788.16L496.22 783.71L491.00 784.22L483.17 785.55L474.81 786.50L466.08 786.50L459.31 785.20L483.95 757.92L508.01 731.11L512.26 729.57L516.35 728.08L522.42 725.88L529.43 722.95L537.35 721.49L543.77 720.68L556.68 721.40L561.39 722.06L570.11 722.91L577.34 723.51L583.14 723.99L592.04 726.84L603.47 729.39L607.76 709.63L610.07 698.98L603.84 691.08L599.05 688.99L594.25 686.90L586.39 685.04L578.54 683.18L570.05 684.87L565.27 683.87L557.21 682.17L551.63 676.21L548.67 673.05L544.45 665.08L540.24 657.12L536.22 650.51Z" data-ward="21" /><path id="ward-20" class="ward" d="M585.80 482.38L585.40 478.04L584.10 466.09L583.02 456.12L582.17 448.25L582.60 439.30L583.04 430.27L580.04 424.77L575.43 429.82L567.71 434.17L559.15 438.99L555.31 441.41L549.60 445.06L543.38 449.03L538.42 452.96L536.81 462.24L536.02 468.08L542.97 473.97L548.38 475.01L555.69 476.82L554.74 496.55L534.37 483.24L533.62 494.46L531.75 504.81L529.91 516.69L528.47 525.97L510.38 527.32L495.97 526.91L488.43 526.92L470.70 526.95L457.67 524.44L459.40 530.83L462.95 554.22L469.45 580.93L471.49 589.28L472.36 601.15L473.49 617.55L473.64 621.89L473.78 628.77L473.93 635.89L474.15 644.05L506.48 654.30L505.57 636.47L510.91 633.91L521.81 632.83L528.81 632.14L528.23 636.79L533.37 645.81L536.22 650.51L540.24 657.12L544.45 665.08L548.67 673.05L551.63 676.21L557.21 682.17L565.27 683.87L570.05 684.87L578.54 683.18L586.39 685.04L594.25 686.90L599.05 688.99L603.84 691.08L610.07 698.98L620.55 683.19L640.30 673.16L649.63 665.12L656.76 658.96L662.17 652.05L666.70 646.83L670.88 642.23L674.40 639.85L678.06 637.46L683.39 633.86L686.88 630.92L681.28 625.28L678.81 617.55L677.36 612.92L677.13 605.63L676.95 599.56L676.64 584.93L676.44 575.30L664.74 573.22L659.61 576.92L652.55 585.43L642.65 596.17L633.85 588.89L625.90 585.13L618.37 585.36L605.96 585.68L596.86 586.65L590.24 587.32L582.52 586.47L575.79 583.24L575.69 579.02L573.68 573.06L565.64 572.68L561.47 571.61L556.84 568.45L551.50 566.38L537.71 561.03L540.36 554.26L540.68 545.22L543.91 536.74L550.99 536.18L568.39 533.89L569.73 519.68L573.65 505.59L581.85 507.29L587.90 507.35L585.80 482.38Z" data-ward="20" /><path id="ward-9" class="ward" d="M698.97 347.66L694.98 345.48L673.71 359.17L666.19 362.51L615.41 359.33L584.91 357.34L572.88 356.15L521.61 351.09L499.29 369.30L504.13 383.22L506.89 396.15L508.38 403.35L509.70 412.39L510.83 418.95L525.73 420.56L535.34 421.43L547.83 422.57L563.95 423.19L568.12 423.35L573.08 423.53L580.04 424.77L583.04 430.27L582.60 439.30L582.17 448.25L583.02 456.12L584.10 466.09L585.40 478.04L594.43 477.35L606.15 476.07L616.82 475.04L625.53 474.08L637.79 474.55L644.88 474.72L651.58 474.97L656.16 475.25L661.04 475.52L661.49 469.98L662.06 463.98L662.47 458.87L663.00 450.87L663.61 441.52L664.00 435.57L666.97 432.60L672.63 434.23L676.91 435.46L682.32 437.04L687.44 439.77L692.08 443.38L697.99 448.02L701.80 451.59L705.68 456.31L709.85 463.47L713.12 471.06L715.81 476.59L720.19 482.26L734.39 453.48L750.86 420.02L765.06 391.17L771.36 387.96L765.75 384.31L698.97 347.66Z" data-ward="9" /><path id="ward-5" class="ward" d="M465.31 174.12L464.61 208.23L465.11 216.51L465.92 223.19L466.55 228.56L467.31 235.12L467.77 240.75L468.66 263.74L471.03 273.47L472.01 281.06L475.72 283.49L479.79 282.20L485.62 280.35L490.60 279.80L491.17 285.37L495.14 287.79L499.98 286.28L504.12 287.04L507.72 289.91L507.59 294.67L508.66 300.06L509.81 305.78L510.85 310.85L511.77 315.33L512.14 321.46L517.02 320.56L521.57 319.27L525.68 318.18L529.79 317.03L535.79 315.63L540.41 314.55L544.95 313.08L549.24 311.79L554.19 310.13L558.08 308.42L564.30 307.84L569.38 307.30L574.02 306.62L579.62 305.75L579.56 310.61L579.00 315.08L579.83 322.02L580.80 326.89L581.62 331.08L582.64 336.25L583.66 341.13L584.24 348.69L584.91 357.34L615.41 359.33L666.19 362.51L673.71 359.17L694.98 345.48L675.30 334.68L671.25 333.26L668.29 328.71L660.59 316.87L653.67 307.28L647.11 296.30L638.32 284.21L635.92 279.90L621.81 254.49L618.45 250.60L593.18 213.80L587.91 206.13L583.51 199.73L552.78 206.07L529.24 210.92L523.09 215.65L519.61 218.18L510.11 206.93L503.51 198.81L496.13 189.44L492.12 185.82L484.55 181.72L480.38 179.36L475.54 176.16L471.22 176.20L465.31 174.12Z" data-ward="5" /><path id="ward-18" class="ward" d="M593.85 783.43L599.08 754.09L601.59 739.97L603.47 729.39L592.04 726.84L583.14 723.99L577.34 723.51L570.11 722.91L561.39 722.06L556.68 721.40L543.77 720.68L537.35 721.49L529.43 722.95L522.42 725.88L516.35 728.08L512.26 729.57L508.01 731.11L483.95 757.92L459.31 785.20L466.08 786.50L474.81 786.50L483.17 785.55L491.00 784.22L496.22 783.71L500.27 788.16L500.93 794.42L501.38 799.39L501.91 805.34L502.56 812.71L503.15 819.30L504.84 823.48L511.47 827.27L515.79 829.73L522.79 832.68L528.65 835.18L533.91 836.77L541.80 839.16L552.53 840.01L565.97 841.07L575.92 846.14L583.56 847.63L593.85 783.43Z" data-ward="18" /><path id="ward-1" class="ward" d="M218.74 41.99L213.84 37.84L210.34 33.97L204.10 27.07L200.40 22.99L196.61 18.79L177.50 3.78L172.68 0.00L156.23 6.27L152.17 7.82L146.69 9.47L140.91 11.36L135.14 13.25L123.22 15.34L84.44 26.08L28.44 41.59L14.02 40.91L7.33 44.26L1.23 61.23L0.00 66.09L3.28 71.64L6.89 74.65L12.43 79.40L17.94 84.06L23.69 89.06L28.99 93.67L32.16 96.43L35.34 99.18L38.45 103.50L43.95 111.15L46.19 115.00L49.30 120.14L52.23 124.97L54.36 132.27L60.68 140.84L63.41 144.53L66.64 148.91L69.92 153.81L73.10 158.20L76.23 162.74L79.88 167.63L91.28 177.32L99.94 183.19L107.18 187.87L110.79 190.02L117.26 193.49L133.01 199.54L131.28 210.69L132.95 220.17L137.94 238.75L139.26 244.83L143.14 250.39L152.62 248.62L158.68 248.59L166.05 245.45L171.78 244.63L176.59 245.86L181.55 245.01L187.39 244.47L192.59 245.08L197.28 245.45L202.31 245.85L208.33 245.00L209.00 235.91L208.81 230.70L211.41 224.28L215.06 221.31L219.60 222.61L226.12 224.27L244.49 227.80L256.38 228.82L258.85 232.59L264.58 230.55L273.96 231.48L268.20 223.96L264.22 218.69L259.95 212.60L255.83 207.73L251.98 202.73L248.37 198.48L245.34 194.24L240.80 188.75L231.27 176.08L226.76 169.04L224.50 165.12L221.40 160.45L217.09 153.97L213.56 148.66L210.78 144.39L207.76 140.04L202.78 132.64L199.38 127.27L195.72 121.45L192.54 115.89L189.92 110.64L188.56 105.66L187.28 99.40L190.84 95.75L200.33 94.30L214.75 92.10L223.83 90.72L228.92 86.77L273.59 96.43L292.47 99.50L313.34 102.88L326.87 105.08L328.60 90.26L329.89 79.12L330.65 72.61L331.41 66.14L318.95 65.56L303.45 64.85L275.21 63.55L254.60 58.25L236.71 53.65L230.65 52.09L222.60 45.27L218.74 41.99Z" data-ward="1" /><path id="ward-25" class="ward" d="M291.36 385.82L283.65 378.16L278.30 371.96L266.55 365.76L236.49 347.28L203.44 335.19L196.72 332.73L192.40 331.15L187.91 330.12L181.01 328.27L167.23 324.05L160.86 321.82L146.66 316.27L137.95 315.54L140.88 320.44L144.04 327.86L146.61 333.89L149.97 338.30L146.14 349.58L143.45 356.71L140.86 364.17L141.17 373.19L141.41 380.27L141.65 387.20L140.14 399.94L140.68 413.54L142.07 421.94L144.40 432.34L202.53 443.99L254.23 454.35L288.07 460.90L314.56 466.03L309.01 454.20L306.10 448.93L290.85 442.49L292.63 436.10L279.18 426.24L270.95 420.51L266.66 416.07L253.21 401.32L248.94 396.63L259.94 395.46L290.76 392.19L299.25 393.55L291.36 385.82Z" data-ward="25" /><path id="ward-2" class="ward" d="M321.89 179.30L321.63 174.11L320.80 169.82L319.95 165.38L322.32 158.42L325.62 153.35L327.85 145.60L327.41 136.69L325.83 126.39L325.48 113.69L326.87 105.08L313.34 102.88L292.47 99.50L273.59 96.43L228.92 86.77L223.83 90.72L214.75 92.10L200.33 94.30L190.84 95.75L187.28 99.40L188.56 105.66L189.92 110.64L192.54 115.89L195.72 121.45L199.38 127.27L202.78 132.64L207.76 140.04L210.78 144.39L213.56 148.66L217.09 153.97L221.40 160.45L224.50 165.12L226.76 169.04L231.27 176.08L240.80 188.75L245.34 194.24L248.37 198.48L251.98 202.73L255.83 207.73L259.95 212.60L264.22 218.69L268.20 223.96L273.96 231.48L280.27 232.34L286.19 234.78L291.02 236.69L297.88 239.48L304.04 241.53L309.60 243.30L319.32 245.73L328.04 246.61L332.44 246.94L336.87 247.40L340.98 248.00L346.77 248.61L353.27 252.59L357.99 251.02L363.93 253.06L365.48 248.17L365.26 243.03L365.09 236.44L364.71 231.07L363.41 226.72L361.80 222.78L360.96 217.70L360.67 212.31L359.57 207.07L357.66 199.25L356.76 188.26L356.48 181.36L353.30 177.57L347.33 178.94L343.80 183.08L338.20 184.97L333.03 185.84L327.33 187.88L322.15 189.16L321.89 179.30Z" data-ward="2" /><path id="ward-14" class="ward" d="M811.29 600.23L803.89 598.84L792.32 594.85L781.21 590.25L777.67 598.63L769.71 618.71L772.21 644.55L773.52 659.86L775.06 678.05L780.55 677.11L784.86 676.61L790.56 677.15L796.41 677.51L795.51 685.19L800.02 689.42L806.76 692.61L806.79 699.12L815.26 704.12L820.99 694.07L825.96 696.80L830.53 700.11L836.99 705.20L846.29 704.92L851.26 701.97L856.55 692.89L857.13 687.46L858.22 683.07L859.22 679.00L860.37 674.35L861.42 670.09L863.50 661.67L865.06 655.35L871.43 642.50L881.31 649.51L883.59 653.94L893.91 667.73L900.30 670.62L901.43 665.17L899.74 654.92L897.97 644.17L898.47 630.97L897.20 620.11L895.93 604.36L894.97 592.28L873.56 594.57L838.88 598.28L830.45 599.53L821.88 600.35L815.98 600.78L811.29 600.23Z" data-ward="14" /><path id="ward-10" class="ward" d="M713.12 471.06L709.85 463.47L705.68 456.31L701.80 451.59L697.99 448.02L692.08 443.38L687.44 439.77L682.32 437.04L676.91 435.46L672.63 434.23L666.97 432.60L664.00 435.57L663.61 441.52L663.00 450.87L662.47 458.87L662.06 463.98L661.49 469.98L661.04 475.52L656.16 475.25L651.58 474.97L644.88 474.72L637.79 474.55L625.53 474.08L616.82 475.04L606.15 476.07L594.43 477.35L585.40 478.04L585.80 482.38L587.90 507.35L581.85 507.29L573.65 505.59L569.73 519.68L568.39 533.89L550.99 536.18L543.91 536.74L540.68 545.22L540.36 554.26L537.71 561.03L551.50 566.38L556.84 568.45L561.47 571.61L565.64 572.68L573.68 573.06L575.69 579.02L575.79 583.24L582.52 586.47L590.24 587.32L596.86 586.65L605.96 585.68L618.37 585.36L625.90 585.13L720.19 482.26L715.81 476.59L713.12 471.06Z" data-ward="10" /><path id="ward-26" class="ward" d="M252.13 243.94L254.97 239.47L258.85 232.59L256.38 228.82L244.49 227.80L226.12 224.27L219.60 222.61L215.06 221.31L211.41 224.28L208.81 230.70L209.00 235.91L208.33 245.00L202.31 245.85L197.28 245.45L192.59 245.08L187.39 244.47L181.55 245.01L176.59 245.86L171.78 244.63L166.05 245.45L158.68 248.59L152.62 248.62L143.14 250.39L143.22 256.96L140.59 272.59L139.03 280.84L137.94 289.39L131.05 295.77L129.33 304.64L134.95 310.55L137.95 315.54L146.66 316.27L160.86 321.82L167.23 324.05L181.01 328.27L187.91 330.12L192.40 331.15L196.72 332.73L203.44 335.19L236.49 347.28L237.59 342.43L238.89 331.22L235.93 320.24L235.73 314.99L239.52 311.89L245.04 308.99L250.49 306.28L254.53 304.36L251.53 300.89L251.21 291.42L250.38 286.89L249.31 280.21L248.44 257.15L248.78 249.72L252.13 243.94Z" data-ward="26" /></svg>