<svg viewBox="0 0 1000.00 1066.67" xmlns="http://www.w3.org/2000/svg"><style>.ward { fill: #e2e8f0; stroke: #fff; stroke-width: 0.5px; } .ward:hover { fill: #cbd5e1; }</style><path id="ward-9" class="ward" d="M607.80 802.67L604.17 804.46L599.24 807.20L595.29 809.62L593.25 810.81L591.39 811.89L585.94 814.67L582.94 816.34L580.98 817.02L577.32 817.67L578.68 824.90L579.71 829.07L580.31 831.95L581.03 833.92L581.19 835.96L581.56 837.51L582.06 839.16L582.42 840.71L582.57 844.51L582.95 847.14L583.43 851.43L583.46 853.28L583.83 855.11L584.36 857.38L585.10 858.81L583.88 860.18L582.20 860.98L580.70 861.50L578.84 862.43L577.21 863.06L575.25 863.97L573.62 865.16L571.95 865.96L570.39 866.55L565.88 868.09L566.37 872.24L567.22 879.35L567.69 883.41L568.60 887.81L569.29 890.06L570.23 892.46L572.69 897.19L575.61 894.82L577.65 893.96L579.98 893.01L581.86 892.22L584.57 891.23L585.99 895.39L589.98 894.15L592.70 892.10L594.51 890.74L597.08 889.63L598.33 891.24L598.76 893.85L599.37 896.10L600.41 898.64L601.76 900.60L603.21 901.95L604.49 903.50L605.51 905.76L608.21 906.64L608.74 908.38L609.77 910.46L611.94 910.51L615.47 909.29L617.60 908.68L619.59 906.58L623.35 906.22L625.95 906.21L628.96 906.06L630.60 905.94L632.64 905.38L635.26 903.42L638.87 902.39L646.23 901.52L647.90 904.37L656.12 904.64L658.06 904.45L662.85 903.79L667.63 903.14L670.21 905.50L675.48 904.10L681.31 903.15L684.15 903.56L684.67 905.21L685.14 906.72L686.67 907.74L688.20 908.76L689.74 909.94L692.35 909.26L694.08 909.18L696.61 909.15L699.38 908.86L701.05 908.25L702.72 907.30L704.35 905.89L706.81 905.17L732.64 897.59L773.01 886.50L792.65 883.26L827.37 878.13L946.30 860.53L946.86 853.43L948.22 847.81L957.20 844.67L958.30 843.25L959.40 841.83L996.86 842.77L996.55 840.11L996.14 836.65L995.84 834.13L994.23 820.48L993.02 810.19L991.72 799.19L991.45 797.16L991.07 794.26L989.01 778.63L988.55 775.13L978.95 776.03L975.74 776.33L973.56 776.82L971.50 777.29L971.06 775.51L970.18 772.17L969.59 768.54L968.78 766.53L967.39 760.24L966.32 758.13L964.97 752.70L964.34 750.18L963.46 747.15L962.32 743.24L960.95 740.43L959.60 737.06L958.81 733.48L958.26 731.44L957.34 728.00L956.42 726.45L954.53 724.51L952.51 721.83L950.41 719.27L949.52 717.76L948.61 716.21L940.10 719.21L930.79 722.45L924.79 724.21L920.49 725.66L916.48 727.02L912.56 728.34L908.60 729.68L904.69 731.00L901.70 732.02L897.32 733.50L892.90 735.04L889.79 736.12L887.18 736.86L878.46 739.60L873.39 741.18L870.94 741.96L866.96 742.82L863.03 743.26L859.13 743.65L854.01 744.16L849.22 744.77L844.24 745.40L841.21 745.80L838.90 746.08L835.04 746.55L829.33 747.24L826.80 747.54L825.20 747.65L821.18 747.94L819.03 747.87L813.99 747.71L810.79 747.59L808.21 747.48L801.74 748.84L799.04 747.80L798.28 745.97L798.24 744.33L796.30 736.39L793.57 725.28L791.46 716.67L788.81 716.04L786.03 716.47L783.83 716.81L778.29 717.61L765.23 719.22L763.59 719.39L760.31 719.62L758.72 719.44L756.23 719.16L756.06 717.55L754.30 709.84L754.14 709.25L749.95 690.37L748.29 686.21L748.28 686.18L744.64 677.40L743.77 674.36L743.67 672.03L743.38 664.92L741.27 665.10L734.15 665.72L731.99 666.73L723.91 670.04L721.43 671.14L718.17 671.98L710.71 669.54L707.63 668.54L698.03 665.83L696.82 664.46L694.40 661.73L692.50 654.91L688.55 653.16L686.62 653.37L684.38 653.62L681.42 653.66L673.50 654.06L671.29 654.08L669.07 654.09L663.47 653.95L661.86 653.91L656.42 653.14L652.72 652.62L650.73 652.48L644.19 652.05L642.62 651.84L640.34 653.06L638.08 653.37L635.69 653.69L632.10 654.18L630.62 653.34L629.21 652.54L626.81 653.09L624.69 653.38L621.84 654.47L618.52 656.09L616.58 656.86L614.29 655.03L612.84 656.04L611.55 658.13L607.44 659.20L605.73 660.05L605.02 662.02L604.38 663.81L601.83 664.30L599.67 664.07L597.85 664.47L595.99 667.52L593.78 668.41L590.75 668.75L588.76 668.70L586.70 669.33L584.98 669.85L582.77 670.47L580.56 671.09L577.84 671.64L575.35 671.94L572.50 671.90L570.63 671.72L568.31 672.16L566.16 672.71L564.87 674.48L564.77 676.15L564.79 679.19L564.96 682.19L566.01 685.13L567.55 688.02L568.97 689.06L571.26 688.02L574.79 687.22L577.35 687.03L580.92 686.57L582.82 686.33L586.20 686.38L588.25 686.64L590.24 686.92L593.68 687.05L595.90 684.93L597.27 687.67L597.64 689.24L598.42 691.88L597.45 695.20L597.97 697.84L598.20 699.45L598.83 701.33L599.40 702.96L599.96 704.70L600.60 706.98L603.51 707.53L605.37 707.36L609.25 706.30L610.83 706.65L612.45 706.73L614.44 706.56L616.33 706.43L618.51 706.30L620.50 706.01L624.06 705.56L626.73 704.97L629.64 704.32L631.47 703.85L634.00 706.59L633.84 712.82L634.11 715.28L634.16 717.38L632.91 718.39L631.65 719.41L629.18 720.26L624.91 721.70L622.46 721.95L620.32 722.17L617.84 722.15L614.83 722.01L611.95 722.09L609.09 722.32L607.32 722.28L605.59 722.21L603.34 722.62L598.28 723.56L595.94 724.06L591.25 725.26L589.38 726.23L587.10 725.46L585.54 725.02L583.99 726.69L583.10 733.09L583.34 735.21L583.47 737.72L583.60 740.16L583.53 742.32L584.40 745.41L584.79 747.67L585.15 750.32L585.55 753.17L587.52 754.64L589.25 755.21L589.21 756.96L589.04 760.60L585.66 760.79L583.75 760.65L581.97 760.72L579.56 760.71L577.74 760.64L575.46 760.57L572.94 760.90L568.77 760.57L568.93 763.52L569.32 765.37L569.81 767.42L570.36 770.05L570.88 773.03L571.71 777.20L572.01 780.10L572.29 781.79L572.69 784.87L573.18 788.83L573.46 790.75L573.81 793.14L574.13 794.68L574.48 796.42L574.81 798.57L576.76 801.91L580.38 800.54L582.32 799.71L584.10 798.95L585.52 798.18L586.95 797.42L589.09 796.21L591.57 794.81L593.53 794.06L595.34 793.34L597.26 792.66L599.15 791.71L600.56 790.98L602.48 789.71L604.68 792.00L605.22 793.60L605.99 795.68L607.62 800.13L607.80 802.67Z" data-ward="9" /><path id="ward-1" class="ward" d="M183.10 322.81L185.41 322.22L188.75 320.57L190.60 319.65L192.13 316.55L194.87 315.57L197.37 314.67L199.94 313.75L201.87 311.33L204.25 310.51L205.15 308.66L205.67 306.99L206.22 305.22L209.42 303.84L211.26 302.88L212.79 302.08L214.65 300.31L218.73 298.27L221.27 297.25L223.72 296.61L226.23 295.75L227.91 295.18L231.58 290.77L230.36 287.71L235.30 284.09L237.66 281.06L239.25 280.42L245.57 277.89L243.20 273.80L241.85 268.15L241.00 264.57L241.78 262.53L240.71 257.77L233.91 258.60L233.55 256.51L232.66 251.33L231.18 245.93L230.45 241.47L229.20 237.80L227.69 230.41L227.22 228.12L221.05 228.50L217.68 220.13L219.46 217.72L220.10 214.05L219.23 212.24L216.14 212.04L213.94 211.90L210.66 211.68L208.06 212.55L201.64 213.71L199.97 213.15L197.89 212.46L193.06 212.62L190.16 211.41L184.56 211.57L181.55 212.39L179.91 211.71L178.24 211.76L172.01 211.94L169.20 214.05L169.24 215.17L173.32 219.09L173.91 221.00L172.26 224.15L167.40 227.72L167.24 227.85L167.08 227.99L166.57 229.26L166.54 229.34L163.75 235.52L161.84 237.33L158.52 238.42L156.95 237.89L154.96 238.15L153.03 237.47L148.80 235.18L142.82 234.09L138.92 233.38L137.48 234.27L135.18 235.69L133.61 236.54L132.47 237.75L129.21 241.74L127.67 243.63L123.02 249.33L119.45 250.73L117.85 252.15L115.06 254.62L108.71 256.04L104.63 256.96L96.14 256.96L90.02 256.96L88.32 254.68L86.06 251.63L84.52 249.56L81.16 249.85L77.19 250.19L75.05 248.20L72.86 246.05L68.86 248.57L70.51 251.28L69.96 252.30L62.78 254.54L64.03 257.05L66.86 262.71L68.95 263.63L71.34 265.88L74.23 268.61L76.82 273.23L76.31 277.20L74.30 282.75L73.66 284.54L71.31 286.38L68.95 288.22L68.12 290.02L64.28 290.95L62.79 288.61L60.60 285.17L60.83 283.38L60.99 283.23L61.53 282.98L64.41 283.07L66.29 282.40L67.95 279.39L68.02 277.63L63.95 277.96L55.15 279.03L52.76 279.68L45.69 280.87L43.25 268.93L41.13 258.51L17.07 264.19L6.18 273.02L0.44 282.57L0.00 296.82L10.19 324.40L12.41 327.18L14.93 332.56L16.86 336.56L19.60 342.08L22.70 348.49L26.05 355.16L29.00 361.04L33.27 369.17L35.24 372.92L36.52 375.37L44.09 391.27L47.98 399.42L51.75 407.45L53.32 410.80L56.57 409.77L58.72 409.08L64.52 407.20L67.02 406.18L68.84 404.52L70.56 403.52L75.32 401.17L77.46 400.46L78.77 399.36L81.65 397.79L83.52 396.84L85.52 396.10L88.13 394.78L89.90 394.15L92.26 394.82L95.81 393.06L105.76 390.67L107.25 395.09L113.28 393.41L114.21 395.20L116.28 396.21L118.99 395.73L123.64 396.67L125.17 392.27L126.84 384.07L128.11 382.14L130.62 380.73L134.03 379.38L133.35 372.90L131.25 366.22L130.42 364.74L131.45 361.83L132.68 359.93L132.10 357.06L131.71 355.09L129.57 353.06L131.10 351.87L132.82 349.74L133.89 348.40L135.80 345.53L138.39 342.52L140.67 341.55L142.20 341.15L144.38 340.15L146.18 339.68L148.71 338.49L150.39 338.01L153.00 337.01L154.59 336.52L157.58 334.34L161.30 334.20L164.94 333.70L167.94 333.30L170.48 332.46L174.42 331.34L176.79 329.85L178.67 327.88L180.69 326.27L183.10 322.81Z" data-ward="1" /><path id="ward-12" class="ward" d="M361.35 883.85L361.87 889.09L362.83 892.49L363.76 895.79L366.69 904.40L366.39 906.67L367.78 912.26L377.24 910.27L378.86 911.05L381.11 911.24L383.24 910.78L385.86 909.55L387.48 908.74L388.17 907.02L390.47 905.21L393.40 904.11L395.09 903.43L396.81 902.70L398.53 901.84L400.08 900.94L402.11 901.92L403.25 904.59L404.88 908.30L406.23 910.52L407.57 912.75L410.28 917.14L411.85 918.01L414.83 916.58L418.24 914.54L420.22 913.27L421.58 912.19L422.71 911.10L424.41 909.84L426.45 908.65L428.40 907.72L431.19 907.18L432.97 906.85L434.83 906.45L436.83 905.92L439.24 905.27L441.27 904.55L445.16 902.50L446.95 901.71L449.50 900.29L447.25 895.59L446.15 894.39L444.38 894.38L443.75 892.74L443.57 890.71L443.16 888.29L443.15 886.66L442.24 885.25L440.25 884.15L439.58 882.61L438.10 878.95L437.15 876.46L436.37 874.44L434.69 872.05L433.29 870.16L431.72 865.49L432.41 863.53L433.26 861.49L432.49 859.75L432.54 857.79L431.05 856.13L429.11 853.09L428.36 850.70L427.69 848.59L432.23 845.85L433.89 845.23L435.34 844.21L436.66 843.28L435.76 841.07L434.99 839.18L444.91 835.02L440.80 828.75L439.55 824.03L442.59 823.02L442.40 820.33L445.45 820.93L446.08 819.45L447.99 817.81L449.49 818.34L453.26 816.36L454.46 814.88L456.83 814.80L457.99 813.62L458.63 811.37L464.60 809.83L470.41 808.34L469.63 806.48L468.91 804.57L468.42 802.60L467.39 798.41L466.69 794.07L466.05 791.73L463.61 787.59L460.99 786.73L459.35 786.26L457.71 785.80L455.98 785.81L454.25 785.83L450.93 786.75L447.55 787.70L444.92 788.41L434.36 791.01L432.48 791.20L430.55 791.22L427.64 791.20L425.97 790.40L424.53 787.77L423.05 785.24L421.27 781.91L420.04 779.00L418.70 776.64L416.89 773.88L415.02 770.55L412.33 765.33L414.41 764.26L416.54 762.71L418.67 761.79L421.15 761.03L422.80 760.64L424.69 761.71L427.57 762.27L429.31 761.28L430.52 758.95L430.45 756.89L430.48 754.97L430.63 752.89L432.44 751.73L434.22 751.39L436.01 750.61L436.00 747.99L435.98 746.01L435.96 744.15L436.81 742.54L436.50 739.23L434.86 737.44L434.61 734.92L434.35 732.34L432.93 727.56L431.69 724.60L429.78 723.90L427.64 723.26L426.13 721.23L424.75 718.83L422.58 715.07L421.14 712.29L420.22 710.20L421.42 709.18L423.45 707.45L423.17 705.53L422.75 702.62L422.27 699.32L421.45 693.60L424.06 693.06L426.55 692.58L429.18 692.63L429.81 690.98L429.77 689.27L432.17 687.48L431.84 685.48L430.55 683.34L431.18 681.33L430.79 678.17L429.75 676.12L430.71 674.41L431.76 672.55L435.98 668.33L434.82 665.85L437.36 656.63L435.19 648.30L433.33 646.37L429.04 645.29L422.46 642.44L415.30 639.34L408.66 640.27L398.70 641.67L393.15 642.45L391.21 642.72L388.66 638.94L387.04 636.53L384.80 633.21L382.94 630.45L378.77 624.25L374.35 617.69L370.27 611.63L368.73 609.34L366.30 605.73L365.08 602.36L362.33 594.71L361.06 590.62L360.27 587.41L358.06 575.38L357.56 572.66L357.23 570.84L355.63 567.11L348.15 569.26L343.19 570.68L334.06 573.98L329.80 575.16L324.50 576.94L316.41 580.89L306.01 585.95L303.76 587.05L296.74 587.52L298.45 590.81L299.50 596.28L299.15 598.62L297.60 602.63L296.99 604.27L295.91 605.98L293.89 608.17L291.33 608.99L287.39 610.71L286.37 612.26L288.06 612.85L290.54 614.55L294.30 616.50L295.52 617.67L297.43 619.50L299.45 621.60L301.06 622.83L304.03 628.65L305.21 631.26L306.42 633.16L307.95 635.57L309.57 636.82L310.52 638.60L311.93 641.72L312.81 643.30L313.69 644.88L314.89 647.08L314.83 649.67L312.88 650.96L311.24 651.69L308.75 652.71L306.76 653.26L305.13 654.33L303.83 655.50L301.72 656.60L300.07 658.54L301.30 661.42L301.85 663.24L302.67 665.18L303.67 667.54L305.07 670.49L306.39 673.04L307.28 674.77L308.79 677.55L310.15 680.09L311.87 683.50L312.58 684.89L313.37 686.40L314.29 688.18L315.01 689.59L316.36 691.83L317.33 693.46L318.55 695.49L320.01 697.64L322.19 700.86L323.57 702.89L322.41 704.31L320.68 704.94L318.64 705.66L316.84 706.82L316.65 709.52L317.25 711.49L317.74 713.25L318.35 715.47L319.10 717.65L319.70 719.46L320.51 721.64L321.80 723.24L322.41 724.72L323.50 726.69L324.43 728.86L325.11 730.50L325.42 732.23L325.89 734.89L325.99 737.34L323.05 737.28L320.13 736.51L317.96 737.47L315.70 737.61L314.59 734.95L313.27 732.19L311.15 732.55L306.62 734.33L302.01 736.18L298.78 737.83L295.80 739.35L293.97 740.29L291.23 741.71L289.04 742.89L287.29 743.84L284.48 745.36L282.95 746.19L280.95 747.27L283.61 752.29L306.58 795.60L308.14 798.55L322.81 822.87L329.80 834.44L342.37 855.29L346.57 862.25L354.76 874.20L361.35 883.85Z" data-ward="12" /><path id="ward-14" class="ward" d="M223.60 404.83L220.56 404.83L217.50 406.03L215.62 408.05L214.32 409.01L212.81 409.78L211.15 410.36L209.70 410.94L208.09 411.72L206.83 413.11L205.15 413.41L203.26 413.97L201.59 414.77L199.92 415.67L197.44 416.52L195.01 417.13L193.53 416.30L192.91 414.02L192.41 411.63L190.70 408.16L189.89 406.48L189.14 404.94L187.94 403.40L185.47 400.87L184.62 398.95L183.60 396.51L184.38 394.17L183.32 391.73L181.48 387.50L179.79 383.35L178.49 380.14L177.33 376.74L176.37 372.92L175.50 371.27L173.53 371.05L172.07 369.28L170.70 368.12L169.34 367.08L167.83 364.22L165.79 362.89L163.28 364.00L160.27 365.20L158.38 365.20L157.06 362.29L156.26 359.71L155.70 357.94L155.19 356.09L154.62 354.05L156.07 352.75L158.66 351.63L157.46 347.61L155.89 342.33L154.59 336.52L153.00 337.01L150.39 338.01L148.71 338.49L146.18 339.68L144.38 340.15L142.20 341.15L140.67 341.55L138.39 342.52L135.80 345.53L133.89 348.40L132.82 349.74L131.10 351.87L129.57 353.06L131.71 355.09L132.10 357.06L132.68 359.93L131.45 361.83L130.42 364.74L131.25 366.22L133.35 372.90L134.03 379.38L130.62 380.73L128.11 382.14L126.84 384.07L125.17 392.27L123.64 396.67L118.99 395.73L116.28 396.21L114.21 395.20L113.28 393.41L107.25 395.09L105.76 390.67L95.81 393.06L92.26 394.82L89.90 394.15L88.13 394.78L85.52 396.10L83.52 396.84L81.65 397.79L78.77 399.36L77.46 400.46L75.32 401.17L70.56 403.52L68.84 404.52L67.02 406.18L64.52 407.20L58.72 409.08L56.57 409.77L53.32 410.80L54.94 414.76L57.59 418.86L62.80 426.87L69.27 436.85L75.19 451.60L79.49 462.33L83.98 473.52L87.87 483.20L91.80 493.00L92.37 494.74L94.92 504.20L97.64 514.85L99.56 522.35L99.50 523.99L99.43 526.26L99.30 529.98L99.18 533.57L99.08 536.56L98.96 540.25L98.80 545.05L98.38 557.36L97.40 568.48L119.72 606.20L110.66 613.58L97.31 624.45L90.35 630.21L91.64 635.55L92.24 638.08L95.08 650.26L103.52 650.47L114.25 647.93L119.35 646.72L122.10 646.07L132.73 639.34L139.15 633.83L145.14 629.43L157.71 623.75L164.35 620.42L171.55 618.76L175.42 618.51L172.62 616.01L153.68 585.82L154.82 578.69L154.64 572.35L155.12 561.44L154.76 556.54L154.40 550.37L154.92 546.35L156.18 542.58L158.44 538.69L161.32 536.44L166.83 534.44L173.83 533.71L180.82 533.48L186.07 533.50L189.19 533.51L193.93 536.30L196.78 542.97L200.37 552.79L202.47 560.34L202.66 565.25L203.96 562.74L206.61 557.47L209.00 551.94L217.05 536.24L217.77 534.80L225.05 529.65L224.60 526.77L225.48 525.00L226.92 523.97L227.96 522.62L228.87 521.21L227.27 517.98L229.36 516.04L231.31 514.24L232.62 513.19L233.25 511.72L232.38 508.34L231.39 505.54L230.81 503.90L229.91 501.68L229.02 499.46L230.21 498.20L229.56 496.56L228.49 493.87L227.43 491.62L226.54 489.74L225.72 485.69L224.69 483.65L223.37 479.41L222.03 476.67L220.86 472.61L219.95 470.40L221.41 469.01L220.60 466.78L219.88 464.77L219.20 462.89L218.26 459.77L220.12 458.59L221.58 457.65L223.07 457.16L225.99 456.19L229.26 454.64L233.16 452.52L235.45 452.13L237.70 451.74L239.75 451.21L241.68 451.08L245.12 450.54L248.34 450.03L250.73 456.60L251.56 458.86L252.23 460.72L254.27 460.37L255.89 459.05L257.28 457.92L259.71 457.31L261.94 456.43L265.99 454.82L273.08 450.37L274.59 449.43L276.74 448.08L279.28 446.98L281.82 445.89L284.39 445.34L287.40 444.42L293.79 442.49L297.50 441.36L301.27 440.12L315.46 435.44L317.01 440.62L319.61 440.25L325.20 439.44L327.11 440.52L326.84 442.23L327.66 450.33L328.99 453.65L330.17 459.29L331.46 464.48L333.23 464.33L335.50 464.06L335.89 462.10L341.10 457.25L347.76 451.04L350.61 448.38L353.02 446.13L353.31 444.39L353.60 442.62L353.30 439.65L352.66 438.07L352.75 436.17L353.26 433.86L351.03 431.00L348.93 428.29L348.04 426.65L346.65 423.07L345.77 421.01L344.02 419.28L343.02 417.65L341.77 415.61L339.57 413.72L337.98 416.14L335.24 417.21L331.21 417.98L329.79 420.31L326.50 421.36L322.59 422.72L320.23 423.54L317.98 424.68L313.74 424.65L312.45 425.69L309.10 425.75L306.47 425.80L304.70 424.31L300.74 424.55L299.62 421.42L298.12 420.40L297.60 417.21L298.23 415.78L298.05 412.57L297.23 409.41L296.33 407.67L295.92 405.64L295.50 402.32L294.77 399.03L294.33 397.00L292.77 396.25L290.25 396.70L287.80 397.17L284.07 397.97L282.74 396.85L280.56 396.70L278.09 397.44L274.78 398.87L273.09 400.16L270.18 401.96L266.49 403.50L263.64 404.70L259.86 406.12L258.89 404.59L256.06 406.40L251.66 409.82L249.65 407.86L248.53 404.40L247.86 398.99L240.36 400.08L235.89 401.02L229.32 402.40L226.89 403.43L223.60 404.83Z" data-ward="14" /><path id="ward-11" class="ward" d="M541.06 780.15L541.59 782.13L542.16 784.28L542.71 786.36L543.48 789.27L543.91 790.88L544.48 793.01L544.88 794.53L546.27 799.15L547.75 804.36L548.69 807.05L549.47 809.11L550.28 811.08L551.78 815.05L553.03 818.91L554.09 822.59L555.13 826.72L555.92 829.68L556.39 831.44L557.30 835.30L557.67 836.99L558.15 839.21L559.10 842.88L559.87 845.71L560.49 847.38L561.07 849.00L561.73 850.79L562.41 852.66L563.92 855.54L564.93 858.88L565.85 862.01L565.85 864.22L565.85 865.94L565.88 868.09L570.39 866.55L571.95 865.96L573.62 865.16L575.25 863.97L577.21 863.06L578.84 862.43L580.70 861.50L582.20 860.98L583.88 860.18L585.10 858.81L584.36 857.38L583.83 855.11L583.46 853.28L583.43 851.43L582.95 847.14L582.57 844.51L582.42 840.71L582.06 839.16L581.56 837.51L581.19 835.96L581.03 833.92L580.31 831.95L579.71 829.07L578.68 824.90L577.32 817.67L580.98 817.02L582.94 816.34L585.94 814.67L591.39 811.89L593.25 810.81L595.29 809.62L599.24 807.20L604.17 804.46L607.80 802.67L607.62 800.13L605.99 795.68L605.22 793.60L604.68 792.00L602.48 789.71L600.56 790.98L599.15 791.71L597.26 792.66L595.34 793.34L593.53 794.06L591.57 794.81L589.09 796.21L586.95 797.42L585.52 798.18L584.10 798.95L582.32 799.71L580.38 800.54L576.76 801.91L574.81 798.57L574.48 796.42L574.13 794.68L573.81 793.14L573.46 790.75L573.18 788.83L572.69 784.87L572.29 781.79L572.01 780.10L571.71 777.20L570.88 773.03L570.36 770.05L569.81 767.42L569.32 765.37L568.93 763.52L568.77 760.57L572.94 760.90L575.46 760.57L577.74 760.64L579.56 760.71L581.97 760.72L583.75 760.65L585.66 760.79L589.04 760.60L589.21 756.96L589.25 755.21L587.52 754.64L585.55 753.17L585.15 750.32L584.79 747.67L584.40 745.41L583.53 742.32L583.60 740.16L583.47 737.72L583.34 735.21L583.10 733.09L583.99 726.69L585.54 725.02L587.10 725.46L589.38 726.23L591.25 725.26L595.94 724.06L598.28 723.56L603.34 722.62L605.59 722.21L607.32 722.28L609.09 722.32L611.95 722.09L614.83 722.01L617.84 722.15L620.32 722.17L622.46 721.95L624.91 721.70L629.18 720.26L631.65 719.41L632.91 718.39L634.16 717.38L634.11 715.28L633.84 712.82L634.00 706.59L631.47 703.85L629.64 704.32L626.73 704.97L624.06 705.56L620.50 706.01L618.51 706.30L616.33 706.43L614.44 706.56L612.45 706.73L610.83 706.65L609.25 706.30L605.37 707.36L603.51 707.53L600.60 706.98L599.96 704.70L599.40 702.96L598.83 701.33L598.20 699.45L597.97 697.84L597.45 695.20L598.42 691.88L597.64 689.24L597.27 687.67L595.90 684.93L593.68 687.05L590.24 686.92L588.25 686.64L586.20 686.38L582.82 686.33L580.92 686.57L577.35 687.03L574.79 687.22L571.26 688.02L568.97 689.06L567.55 688.02L566.01 685.13L564.96 682.19L564.79 679.19L564.77 676.15L564.87 674.48L566.16 672.71L568.31 672.16L570.63 671.72L572.50 671.90L575.35 671.94L577.84 671.64L580.56 671.09L582.77 670.47L584.98 669.85L586.70 669.33L588.76 668.70L590.75 668.75L593.78 668.41L595.99 667.52L597.85 664.47L599.67 664.07L601.83 664.30L604.38 663.81L605.02 662.02L605.73 660.05L607.44 659.20L611.55 658.13L612.84 656.04L614.29 655.03L616.58 656.86L618.52 656.09L621.84 654.47L624.69 653.38L626.81 653.09L629.21 652.54L628.11 650.19L626.75 647.07L624.00 644.17L622.68 642.78L621.14 640.72L619.70 638.81L620.84 637.14L621.82 635.70L627.59 630.98L629.90 632.08L633.13 631.97L635.79 630.03L636.77 628.40L637.18 626.25L636.58 623.82L635.60 621.88L658.24 599.09L659.31 595.86L658.46 592.67L657.28 591.23L655.74 590.23L653.37 589.73L651.56 589.97L649.91 590.83L647.88 592.83L645.86 594.84L638.48 602.24L633.52 607.22L628.72 608.29L627.71 606.71L626.83 605.30L625.30 602.68L624.19 601.19L619.45 595.20L618.30 593.74L616.56 593.17L614.82 592.59L611.31 593.70L609.96 595.24L609.45 596.74L608.95 598.25L609.29 600.62L611.21 603.66L616.26 610.50L613.10 612.38L611.67 613.20L611.41 616.30L609.32 616.53L607.56 616.57L602.45 616.48L594.18 617.39L594.47 622.53L595.05 628.54L584.99 628.12L582.35 627.93L577.75 627.60L575.84 627.47L569.73 627.03L565.84 626.75L549.91 626.90L546.30 629.00L541.48 631.77L538.37 632.53L528.65 634.17L526.69 634.84L524.86 635.47L521.95 637.76L527.94 651.67L528.58 653.16L531.68 653.32L535.46 661.08L534.63 664.37L534.14 666.62L531.98 667.35L530.28 667.92L528.47 668.98L526.64 666.64L522.12 669.12L509.22 671.68L504.86 672.39L501.03 672.87L491.73 656.15L488.68 650.58L478.54 655.64L479.83 664.42L473.28 666.61L470.94 666.84L463.16 666.46L457.58 666.18L458.99 655.18L455.73 653.83L443.79 649.05L443.82 647.48L445.02 641.05L430.29 640.15L415.30 639.34L422.46 642.44L429.04 645.29L433.33 646.37L435.19 648.30L437.36 656.63L434.82 665.85L435.98 668.33L431.76 672.55L430.71 674.41L429.75 676.12L430.79 678.17L431.18 681.33L430.55 683.34L431.84 685.48L432.17 687.48L429.77 689.27L429.81 690.98L429.18 692.63L426.55 692.58L424.06 693.06L421.45 693.60L422.27 699.32L422.75 702.62L423.17 705.53L423.45 707.45L421.42 709.18L420.22 710.20L421.14 712.29L422.58 715.07L424.75 718.83L426.13 721.23L427.64 723.26L429.78 723.90L431.69 724.60L432.93 727.56L434.35 732.34L434.61 734.92L434.86 737.44L436.50 739.23L436.81 742.54L435.96 744.15L435.98 746.01L436.00 747.99L436.01 750.61L434.22 751.39L432.44 751.73L430.63 752.89L430.48 754.97L430.45 756.89L430.52 758.95L429.31 761.28L427.57 762.27L424.69 761.71L422.80 760.64L421.15 761.03L418.67 761.79L416.54 762.71L414.41 764.26L412.33 765.33L415.02 770.55L416.89 773.88L418.70 776.64L420.04 779.00L421.27 781.91L423.05 785.24L424.53 787.77L425.97 790.40L427.64 791.20L430.55 791.22L432.48 791.20L434.36 791.01L444.92 788.41L447.55 787.70L450.93 786.75L454.25 785.83L455.98 785.81L457.71 785.80L459.35 786.26L460.99 786.73L463.61 787.59L466.05 791.73L466.69 794.07L467.39 798.41L468.42 802.60L468.91 804.57L469.63 806.48L470.41 808.34L472.41 809.47L473.48 810.85L474.55 812.23L475.70 814.39L476.52 815.94L477.49 817.76L478.23 819.16L479.49 821.18L481.16 823.52L485.54 827.83L486.74 829.04L487.93 830.26L488.98 832.04L490.77 834.68L493.93 834.59L496.79 833.44L499.00 832.05L501.38 831.04L503.45 829.55L502.74 827.94L502.04 826.32L501.49 824.28L500.73 821.66L499.78 819.06L498.67 816.57L497.73 813.91L497.20 811.55L496.73 809.65L496.31 807.78L495.96 805.90L495.44 803.74L495.35 799.83L497.13 798.74L498.29 796.97L499.09 795.57L500.08 794.07L501.85 792.22L503.97 790.89L506.08 789.55L507.44 788.76L509.94 787.30L513.71 785.43L515.65 783.35L515.59 781.72L516.45 780.31L517.30 778.90L518.96 777.36L520.93 776.43L522.90 775.50L524.72 775.31L526.54 775.11L528.28 775.11L530.09 775.55L532.17 776.06L533.68 778.30L535.18 780.42L536.39 781.71L538.28 781.08L541.06 780.15Z" data-ward="11" /><path id="ward-5" class="ward" d="M456.40 280.38L457.51 282.70L458.06 285.34L457.48 287.50L456.93 289.87L455.19 291.68L449.40 293.65L450.06 296.85L449.07 298.33L445.79 299.21L442.26 300.12L439.80 300.80L437.62 301.59L435.43 298.66L434.29 296.34L433.03 293.91L431.80 290.89L430.32 287.28L429.89 285.58L428.60 282.40L425.25 282.99L423.09 283.49L421.02 283.77L418.38 283.52L416.72 283.57L414.24 283.99L412.83 285.51L413.28 287.25L413.67 289.75L414.27 292.02L415.09 294.49L417.88 294.09L420.45 294.63L421.17 296.82L421.52 299.34L421.43 302.08L422.08 304.84L422.73 306.37L423.03 307.92L423.41 310.03L423.73 313.13L424.08 316.68L423.24 318.25L423.95 320.84L424.56 322.86L422.90 323.50L421.42 324.17L419.28 324.92L416.51 325.71L415.01 326.43L413.23 326.92L410.53 327.77L409.95 329.68L408.38 329.77L405.76 329.77L404.10 330.07L402.37 330.36L400.71 330.82L398.82 331.15L397.09 331.33L395.35 331.90L393.34 332.44L391.39 332.88L389.73 333.37L387.82 333.77L385.49 334.30L383.30 334.11L382.46 332.14L380.81 331.39L378.36 331.34L375.53 331.89L373.19 332.56L370.88 333.41L368.80 334.12L366.72 333.40L366.19 331.19L365.67 329.31L364.96 327.67L364.38 325.81L362.64 323.31L361.71 320.61L361.26 318.53L360.89 316.37L360.47 313.96L359.88 310.79L359.11 309.41L357.33 309.19L355.54 309.07L353.06 308.88L349.83 309.00L347.58 309.10L345.67 309.12L343.36 308.93L341.23 308.80L338.14 309.20L336.44 309.39L334.88 309.80L332.97 310.13L330.29 310.60L328.09 311.13L326.88 309.94L326.52 308.28L325.92 306.65L325.06 304.57L324.68 302.82L324.01 300.31L323.13 297.19L319.58 298.01L317.78 298.20L316.12 298.75L314.20 299.29L312.32 299.76L310.87 301.50L311.22 303.74L309.53 304.57L306.21 305.48L306.67 307.17L307.44 309.82L307.80 311.84L308.27 314.10L308.47 316.77L307.16 318.27L305.55 318.71L303.61 319.28L302.09 319.76L300.23 320.64L301.54 322.14L302.65 323.87L303.03 326.25L301.86 328.32L303.21 330.85L305.08 334.36L306.05 336.28L306.85 337.85L307.68 339.48L308.30 341.10L308.89 342.63L309.86 344.76L310.84 346.91L311.65 348.90L312.26 350.39L314.72 355.25L315.41 357.79L316.79 362.82L317.70 365.84L318.92 370.52L324.60 368.29L324.38 366.20L324.09 364.43L323.85 362.75L325.67 362.12L327.86 362.15L328.46 364.17L330.36 363.57L332.40 362.87L334.75 362.31L336.41 361.49L335.92 359.82L335.01 357.96L336.29 356.87L338.91 355.47L340.71 354.95L342.41 354.36L343.95 353.40L345.30 352.12L348.39 351.36L350.84 351.57L352.31 353.34L353.72 354.48L357.58 352.98L360.42 351.82L362.91 351.05L364.62 350.54L366.74 349.81L371.16 348.64L372.54 350.19L374.10 350.14L376.61 349.82L378.57 349.50L380.34 350.49L381.09 353.96L381.78 356.20L382.69 358.07L383.79 360.21L385.76 360.83L388.54 360.08L391.43 359.42L395.33 358.83L398.94 358.07L399.66 356.25L400.32 354.74L402.13 354.04L403.89 353.39L405.81 353.06L408.02 352.48L410.30 351.53L412.42 350.68L414.41 349.89L418.04 347.95L419.90 346.84L422.20 345.67L423.95 345.53L424.56 346.99L425.30 348.78L426.22 350.71L427.72 353.73L426.88 355.14L425.26 355.69L423.19 356.30L423.09 358.24L423.42 359.97L421.98 360.67L419.72 360.97L417.83 361.51L415.65 361.98L414.26 362.75L414.11 364.67L411.81 365.20L408.93 365.85L406.94 366.79L405.03 367.55L404.67 370.33L405.29 373.01L406.08 375.30L406.68 377.52L407.43 380.21L408.25 381.94L409.24 383.98L410.00 386.78L410.89 389.44L411.83 391.94L413.67 392.41L416.18 391.53L420.95 389.70L424.76 388.19L430.00 385.66L432.42 385.17L436.58 384.75L438.22 384.65L439.75 384.37L441.62 383.54L442.51 385.42L442.92 387.89L443.18 389.64L443.97 392.47L444.55 394.29L445.27 397.16L445.11 399.40L445.46 401.33L445.64 403.34L445.81 405.00L444.14 405.70L442.63 407.00L441.04 407.49L440.53 409.59L439.02 409.99L437.18 409.84L435.73 410.89L435.03 412.43L433.44 413.66L431.35 414.21L429.46 414.56L429.29 416.24L429.45 418.04L429.93 419.93L430.51 422.80L432.20 422.54L435.78 422.06L437.46 421.90L439.28 421.78L440.91 421.56L443.40 421.30L445.46 420.88L447.10 420.65L448.92 420.26L451.01 419.70L453.05 419.22L454.84 418.70L456.60 418.19L458.60 417.73L460.32 417.17L462.69 416.31L464.23 415.68L466.36 414.44L469.27 413.12L471.74 412.33L474.33 411.64L475.87 411.40L477.61 411.22L480.39 411.30L483.32 413.42L483.70 411.90L484.40 410.17L485.76 407.06L485.15 402.36L488.89 400.56L491.12 399.39L496.61 396.50L499.73 394.86L503.77 392.73L506.55 391.27L508.78 389.07L509.84 386.72L511.32 383.41L514.70 384.26L516.77 385.61L518.91 387.00L523.20 387.10L524.99 387.14L528.30 387.22L530.05 388.05L531.97 388.97L535.75 386.79L537.35 386.45L542.27 385.39L542.44 382.07L542.92 380.23L544.18 378.82L545.54 378.03L548.21 378.79L549.01 380.59L550.95 383.25L552.72 383.31L554.40 383.37L555.94 383.21L558.33 382.97L560.15 380.78L559.91 377.63L563.04 373.44L564.44 372.04L566.61 372.52L573.82 372.18L577.46 371.98L579.65 371.86L582.29 371.46L585.22 371.27L587.08 371.16L588.69 371.05L591.48 370.97L594.87 370.58L597.41 370.28L599.51 370.20L601.94 369.50L606.11 367.37L605.34 365.95L604.34 363.50L603.80 361.88L603.25 359.95L602.62 358.52L601.98 356.80L601.48 355.31L600.76 353.46L600.24 351.92L599.32 349.65L598.31 346.90L596.95 344.40L596.24 342.98L595.78 340.34L595.05 338.69L594.21 336.86L593.60 334.18L593.39 331.58L593.33 328.71L593.01 326.25L592.39 324.50L591.87 322.37L591.55 320.46L589.62 320.24L587.58 320.60L585.91 320.82L583.52 320.99L581.72 321.03L580.56 319.63L579.78 316.96L579.24 315.45L576.91 315.84L575.06 316.56L573.18 317.06L571.38 317.03L568.29 317.39L566.39 317.84L564.31 318.42L564.08 321.09L562.56 321.49L560.82 321.65L558.34 322.45L557.28 320.87L556.64 318.93L555.97 316.59L553.76 316.48L552.66 314.70L551.40 311.51L550.79 309.54L549.53 307.18L548.66 304.61L548.05 302.35L547.41 300.71L546.91 299.23L546.23 297.81L544.69 294.29L544.17 292.71L543.54 290.85L543.10 288.90L542.14 287.04L541.45 285.39L540.42 282.82L539.94 280.93L539.96 279.30L539.37 277.40L538.76 275.11L536.92 274.53L533.45 274.70L531.56 274.29L529.90 274.35L528.18 274.55L524.90 274.30L523.67 272.85L522.51 271.40L521.48 269.68L520.74 268.11L519.46 266.79L517.16 259.76L519.12 258.56L520.95 258.07L522.90 257.45L524.67 257.14L528.56 256.57L530.49 256.37L532.09 256.33L533.54 256.94L536.84 257.22L538.73 256.94L541.13 256.35L543.42 255.40L546.34 253.51L549.97 252.92L552.64 252.39L554.97 252.07L559.95 252.43L562.59 253.57L564.49 254.20L567.01 253.59L569.46 252.15L570.87 251.21L572.53 250.00L574.34 249.31L576.29 248.74L577.85 248.45L579.44 247.98L581.62 247.66L583.70 247.59L585.59 247.32L587.35 247.00L589.49 246.87L591.15 246.64L593.50 246.46L598.26 246.02L592.70 231.69L579.71 204.78L579.17 200.12L578.41 196.15L577.15 192.70L575.14 188.66L574.31 186.83L573.61 184.63L572.63 181.63L571.73 180.04L569.38 176.75L565.90 174.24L563.86 172.66L561.49 171.11L559.10 170.17L556.45 169.53L553.96 168.57L552.03 167.63L549.80 165.76L547.74 164.05L546.30 163.30L543.45 163.08L540.54 163.26L538.19 162.74L535.40 161.66L533.27 159.91L531.30 157.98L526.48 152.60L518.74 152.25L512.75 152.30L511.01 152.20L508.54 151.40L506.04 150.28L502.71 149.38L504.26 153.72L504.98 155.88L505.51 158.07L505.58 159.95L505.32 161.87L504.65 163.30L503.32 164.73L501.72 166.59L499.97 168.36L498.73 169.89L497.05 171.78L495.72 173.02L492.83 175.56L493.20 177.24L494.36 179.43L495.87 181.75L496.80 183.22L496.01 185.10L493.69 186.23L491.91 186.85L490.29 187.42L488.68 187.99L487.15 188.62L485.56 189.30L483.52 190.21L481.75 191.05L479.55 192.13L477.53 192.87L476.07 193.47L473.15 194.65L470.66 195.63L467.98 196.62L465.77 197.34L463.96 197.92L461.22 198.74L459.51 199.17L457.09 200.11L454.64 201.27L453.03 201.74L450.60 202.29L448.93 202.81L447.45 203.54L445.09 204.09L443.06 204.56L440.52 205.09L438.21 205.91L436.37 206.44L434.65 206.94L432.97 207.30L431.38 207.71L428.42 208.49L426.46 209.14L424.92 209.70L423.22 210.33L420.67 211.86L418.28 213.52L415.96 214.60L416.59 216.06L417.46 217.53L418.39 218.96L419.20 220.83L419.95 223.20L420.77 225.21L421.26 227.17L421.68 228.98L422.09 230.83L422.68 232.86L424.65 235.25L425.53 236.59L426.30 238.00L426.83 239.98L427.34 242.09L428.25 243.92L429.21 246.22L430.14 248.91L431.02 251.72L431.25 254.47L433.64 258.32L435.11 259.77L437.01 261.02L439.16 262.36L442.06 264.24L443.58 264.88L445.49 265.15L448.30 265.03L449.25 266.43L448.69 269.30L448.09 272.70L449.64 274.49L452.12 275.56L454.52 276.25L455.40 277.65L456.40 280.38Z" data-ward="5" /><path id="ward-6" class="ward" d="M435.83 500.55L437.89 504.06L440.03 507.58L442.80 512.59L444.13 515.00L447.67 528.73L468.98 527.75L471.65 525.51L480.86 527.73L478.87 537.94L478.85 539.64L478.70 542.58L478.56 545.29L478.43 547.84L478.32 550.02L478.15 553.28L477.95 557.20L477.84 559.30L477.15 568.99L485.77 569.40L503.93 569.28L506.68 569.38L509.42 569.47L525.68 570.90L529.63 575.48L532.01 575.80L546.38 577.04L547.08 574.90L553.50 573.93L553.34 570.98L552.99 565.34L552.78 561.80L552.62 559.08L551.72 551.24L553.11 550.27L554.08 542.59L554.26 540.88L554.72 536.45L554.94 521.99L553.51 521.35L542.20 521.01L539.97 520.95L537.84 520.68L535.92 520.82L534.58 518.32L521.04 514.55L484.91 503.45L483.34 502.97L483.15 495.82L482.89 485.81L479.33 488.31L476.72 488.41L472.61 488.59L470.97 487.55L469.01 486.33L470.93 484.29L473.34 481.76L474.49 480.70L476.94 478.63L478.70 476.48L479.95 474.93L481.24 473.34L483.30 470.81L480.21 469.21L481.45 467.36L484.34 465.36L485.81 463.01L489.32 457.40L492.59 452.16L492.04 449.60L491.07 446.94L490.89 444.88L490.58 441.49L490.23 437.61L490.31 435.39L490.43 432.24L490.55 429.09L490.64 427.40L490.72 425.82L492.88 426.91L497.89 427.67L500.37 427.93L503.94 428.42L513.14 428.47L518.75 428.51L524.65 428.21L529.81 430.43L540.58 430.47L545.27 430.49L549.07 430.05L555.60 429.30L563.38 428.41L569.08 426.84L579.05 424.11L578.73 420.51L578.57 418.62L582.26 417.93L585.21 417.70L588.07 417.23L592.04 416.60L598.67 414.41L601.28 413.34L606.12 411.33L610.53 408.83L615.05 405.59L616.70 404.43L630.67 397.07L633.32 396.89L643.64 396.59L654.44 397.38L660.21 397.79L663.84 398.04L666.72 397.73L664.34 395.42L660.86 393.49L659.37 392.66L657.63 391.68L656.20 390.89L654.19 389.77L652.46 388.81L648.42 386.56L644.59 384.43L642.21 383.10L640.68 382.25L638.82 381.21L637.59 379.27L636.58 376.17L635.15 372.98L632.40 368.85L629.02 365.37L626.76 362.20L627.25 355.93L626.51 352.63L626.38 349.04L624.59 347.09L624.62 349.47L624.86 352.96L625.06 355.93L625.18 357.61L625.35 360.23L622.69 360.10L619.49 361.09L617.63 361.92L615.08 363.25L612.33 364.09L609.73 365.52L607.76 366.60L606.11 367.37L601.94 369.50L599.51 370.20L597.41 370.28L594.87 370.58L591.48 370.97L588.69 371.05L587.08 371.16L585.22 371.27L582.29 371.46L579.65 371.86L577.46 371.98L573.82 372.18L566.61 372.52L564.44 372.04L563.04 373.44L559.91 377.63L560.15 380.78L558.33 382.97L555.94 383.21L554.40 383.37L552.72 383.31L550.95 383.25L549.01 380.59L548.21 378.79L545.54 378.03L544.18 378.82L542.92 380.23L542.44 382.07L542.27 385.39L537.35 386.45L535.75 386.79L531.97 388.97L530.05 388.05L528.30 387.22L524.99 387.14L523.20 387.10L518.91 387.00L516.77 385.61L514.70 384.26L511.32 383.41L509.84 386.72L508.78 389.07L506.55 391.27L503.77 392.73L499.73 394.86L496.61 396.50L491.12 399.39L488.89 400.56L485.15 402.36L485.76 407.06L484.40 410.17L483.70 411.90L483.32 413.42L480.39 411.30L477.61 411.22L475.87 411.40L474.33 411.64L471.74 412.33L469.27 413.12L466.36 414.44L464.23 415.68L462.69 416.31L460.32 417.17L458.60 417.73L456.60 418.19L454.84 418.70L453.05 419.22L451.01 419.70L448.92 420.26L447.10 420.65L445.46 420.88L443.40 421.30L440.91 421.56L439.28 421.78L437.46 421.90L435.78 422.06L432.20 422.54L430.51 422.80L429.93 419.93L429.45 418.04L429.29 416.24L429.46 414.56L431.35 414.21L433.44 413.66L435.03 412.43L435.73 410.89L437.18 409.84L439.02 409.99L440.53 409.59L441.04 407.49L442.63 407.00L444.14 405.70L445.81 405.00L445.64 403.34L445.46 401.33L445.11 399.40L445.27 397.16L444.55 394.29L443.97 392.47L443.18 389.64L442.92 387.89L442.51 385.42L441.62 383.54L439.75 384.37L438.22 384.65L436.58 384.75L432.42 385.17L430.00 385.66L424.76 388.19L420.95 389.70L416.18 391.53L413.67 392.41L411.83 391.94L410.89 389.44L410.00 386.78L409.24 383.98L408.25 381.94L407.43 380.21L406.68 377.52L406.08 375.30L405.29 373.01L404.67 370.33L405.03 367.55L406.94 366.79L408.93 365.85L411.81 365.20L414.11 364.67L414.26 362.75L415.65 361.98L417.83 361.51L419.72 360.97L421.98 360.67L423.42 359.97L423.09 358.24L423.19 356.30L425.26 355.69L426.88 355.14L427.72 353.73L426.22 350.71L425.30 348.78L424.56 346.99L423.95 345.53L422.20 345.67L419.90 346.84L418.04 347.95L414.41 349.89L412.42 350.68L410.30 351.53L408.02 352.48L405.81 353.06L403.89 353.39L402.13 354.04L400.32 354.74L399.66 356.25L398.94 358.07L395.33 358.83L391.43 359.42L388.54 360.08L385.76 360.83L383.79 360.21L382.69 358.07L381.78 356.20L381.09 353.96L380.34 350.49L378.57 349.50L376.61 349.82L374.10 350.14L372.54 350.19L371.16 348.64L366.74 349.81L364.62 350.54L362.91 351.05L360.42 351.82L357.58 352.98L353.72 354.48L352.31 353.34L350.84 351.57L348.39 351.36L345.30 352.12L343.95 353.40L342.41 354.36L340.71 354.95L338.91 355.47L336.29 356.87L335.01 357.96L335.92 359.82L336.41 361.49L334.75 362.31L332.40 362.87L330.36 363.57L328.46 364.17L327.86 362.15L325.67 362.12L323.85 362.75L324.09 364.43L324.38 366.20L324.60 368.29L318.92 370.52L319.01 375.05L319.03 377.74L319.53 379.41L320.35 381.50L321.76 385.00L329.09 382.20L331.45 380.99L334.55 379.41L336.24 379.14L339.32 378.65L341.03 378.49L343.12 378.30L345.16 378.35L348.24 379.00L347.31 383.34L347.64 385.66L347.93 387.74L348.06 389.59L346.22 390.17L344.11 390.82L342.12 391.44L339.56 392.23L337.44 392.88L338.07 396.45L338.35 398.01L339.08 400.02L339.69 402.28L340.49 403.94L340.17 405.60L338.35 407.29L339.18 408.94L340.33 411.22L341.12 413.64L341.77 415.61L343.02 417.65L344.02 419.28L345.77 421.01L346.65 423.07L348.04 426.65L348.93 428.29L351.03 431.00L353.26 433.86L352.75 436.17L352.66 438.07L353.30 439.65L353.60 442.62L353.31 444.39L353.02 446.13L354.38 449.21L355.11 451.56L356.06 454.61L357.27 458.53L357.75 460.05L358.81 463.49L359.57 465.94L360.30 468.27L361.01 470.78L361.51 472.52L362.09 474.52L363.16 478.25L363.59 479.77L364.35 482.41L366.88 485.51L370.28 486.61L374.56 487.60L375.58 489.82L377.16 493.27L378.30 495.75L379.84 499.11L379.46 502.35L379.17 504.78L378.84 507.48L378.63 509.30L378.36 511.53L379.25 518.33L381.52 520.11L383.53 519.24L385.63 518.33L389.11 516.83L394.83 514.36L403.05 511.61L405.50 510.98L410.64 509.58L411.56 509.39L415.12 507.91L416.73 506.78L418.82 507.29L422.81 505.71L426.31 504.32L435.83 500.55Z" data-ward="6" /><path id="ward-2" class="ward" d="M247.86 398.99L248.53 404.40L249.65 407.86L251.66 409.82L256.06 406.40L258.89 404.59L259.86 406.12L263.64 404.70L266.49 403.50L270.18 401.96L273.09 400.16L274.78 398.87L278.09 397.44L280.56 396.70L282.74 396.85L284.07 397.97L287.80 397.17L290.25 396.70L292.77 396.25L294.33 397.00L294.77 399.03L295.50 402.32L295.92 405.64L296.33 407.67L297.23 409.41L298.05 412.57L298.23 415.78L297.60 417.21L298.12 420.40L299.62 421.42L300.74 424.55L304.70 424.31L306.47 425.80L309.10 425.75L312.45 425.69L313.74 424.65L317.98 424.68L320.23 423.54L322.59 422.72L326.50 421.36L329.79 420.31L331.21 417.98L335.24 417.21L337.98 416.14L339.57 413.72L341.77 415.61L341.12 413.64L340.33 411.22L339.18 408.94L338.35 407.29L340.17 405.60L340.49 403.94L339.69 402.28L339.08 400.02L338.35 398.01L338.07 396.45L337.44 392.88L339.56 392.23L342.12 391.44L344.11 390.82L346.22 390.17L348.06 389.59L347.93 387.74L347.64 385.66L347.31 383.34L348.24 379.00L345.16 378.35L343.12 378.30L341.03 378.49L339.32 378.65L336.24 379.14L334.55 379.41L331.45 380.99L329.09 382.20L321.76 385.00L320.35 381.50L319.53 379.41L319.03 377.74L319.01 375.05L318.92 370.52L317.70 365.84L316.79 362.82L315.41 357.79L314.72 355.25L312.26 350.39L311.65 348.90L310.84 346.91L309.86 344.76L308.89 342.63L308.30 341.10L307.68 339.48L306.85 337.85L306.05 336.28L305.08 334.36L303.21 330.85L301.86 328.32L303.03 326.25L302.65 323.87L301.54 322.14L300.23 320.64L297.68 321.36L299.39 312.21L291.72 309.42L291.02 307.74L290.32 306.05L289.17 302.93L288.58 301.10L287.15 296.69L288.77 295.99L290.29 295.32L292.88 293.59L295.36 292.74L297.58 291.88L299.67 290.23L302.18 289.34L303.69 288.80L304.94 287.72L306.90 286.95L306.88 278.21L305.27 277.43L303.82 275.95L303.39 274.26L302.83 272.08L302.00 269.57L301.32 267.49L294.62 264.84L292.83 262.64L289.99 263.71L290.42 265.95L286.59 267.68L284.24 268.75L281.88 266.75L278.88 267.72L275.94 268.68L275.51 267.13L274.78 264.54L273.08 260.57L272.44 258.57L274.75 257.39L275.87 254.65L278.74 249.64L281.18 247.95L281.65 245.79L282.15 243.51L282.02 240.62L279.65 235.07L277.23 231.38L275.47 229.26L271.33 224.27L271.65 221.06L270.17 219.72L267.71 218.61L265.54 215.16L267.19 213.71L268.07 212.18L266.99 208.37L265.64 203.57L263.62 203.31L260.85 202.95L258.01 203.60L255.62 204.30L253.64 202.75L248.28 205.50L245.12 206.21L241.50 207.04L236.64 207.62L234.75 207.90L230.80 208.70L222.71 209.86L219.23 212.24L220.10 214.05L219.46 217.72L217.68 220.13L221.05 228.50L227.22 228.12L227.69 230.41L229.20 237.80L230.45 241.47L231.18 245.93L232.66 251.33L233.55 256.51L233.91 258.60L240.71 257.77L241.78 262.53L241.00 264.57L241.85 268.15L243.20 273.80L245.57 277.89L239.25 280.42L237.66 281.06L235.30 284.09L230.36 287.71L231.58 290.77L227.91 295.18L226.23 295.75L223.72 296.61L221.27 297.25L218.73 298.27L214.65 300.31L212.79 302.08L211.26 302.88L209.42 303.84L206.22 305.22L205.67 306.99L205.15 308.66L204.25 310.51L201.87 311.33L199.94 313.75L197.37 314.67L194.87 315.57L192.13 316.55L190.60 319.65L188.75 320.57L185.41 322.22L183.10 322.81L180.69 326.27L178.67 327.88L176.79 329.85L174.42 331.34L170.48 332.46L167.94 333.30L164.94 333.70L161.30 334.20L157.58 334.34L154.59 336.52L155.89 342.33L157.46 347.61L158.66 351.63L156.07 352.75L154.62 354.05L155.19 356.09L155.70 357.94L156.26 359.71L157.06 362.29L158.38 365.20L160.27 365.20L163.28 364.00L165.79 362.89L167.83 364.22L169.34 367.08L170.70 368.12L172.07 369.28L173.53 371.05L175.50 371.27L176.37 372.92L177.33 376.74L178.49 380.14L179.79 383.35L181.48 387.50L183.32 391.73L184.38 394.17L183.60 396.51L184.62 398.95L185.47 400.87L187.94 403.40L189.14 404.94L189.89 406.48L190.70 408.16L192.41 411.63L192.91 414.02L193.53 416.30L195.01 417.13L197.44 416.52L199.92 415.67L201.59 414.77L203.26 413.97L205.15 413.41L206.83 413.11L208.09 411.72L209.70 410.94L211.15 410.36L212.81 409.78L214.32 409.01L215.62 408.05L217.50 406.03L220.56 404.83L223.60 404.83L226.89 403.43L229.32 402.40L235.89 401.02L240.36 400.08L247.86 398.99Z" data-ward="2" /><path id="ward-13" class="ward" d="M453.74 566.35L453.56 560.97L452.96 549.84L451.45 543.78L451.02 541.43L450.69 539.61L450.12 536.42L449.59 533.51L449.16 531.15L447.67 528.73L444.13 515.00L442.80 512.59L440.03 507.58L437.89 504.06L435.83 500.55L426.31 504.32L422.81 505.71L418.82 507.29L416.73 506.78L415.12 507.91L411.56 509.39L410.64 509.58L405.50 510.98L403.05 511.61L394.83 514.36L389.11 516.83L385.63 518.33L383.53 519.24L381.52 520.11L379.25 518.33L378.36 511.53L378.63 509.30L378.84 507.48L379.17 504.78L379.46 502.35L379.84 499.11L378.30 495.75L377.16 493.27L375.58 489.82L374.56 487.60L370.28 486.61L366.88 485.51L364.35 482.41L363.59 479.77L363.16 478.25L362.09 474.52L361.51 472.52L361.01 470.78L360.30 468.27L359.57 465.94L358.81 463.49L357.75 460.05L357.27 458.53L356.06 454.61L355.11 451.56L354.38 449.21L353.02 446.13L350.61 448.38L347.76 451.04L341.10 457.25L335.89 462.10L335.50 464.06L333.23 464.33L331.46 464.48L330.17 459.29L328.99 453.65L327.66 450.33L326.84 442.23L327.11 440.52L325.20 439.44L319.61 440.25L317.01 440.62L315.46 435.44L301.27 440.12L297.50 441.36L293.79 442.49L287.40 444.42L284.39 445.34L281.82 445.89L279.28 446.98L276.74 448.08L274.59 449.43L273.08 450.37L265.99 454.82L261.94 456.43L259.71 457.31L257.28 457.92L255.89 459.05L254.27 460.37L252.23 460.72L251.56 458.86L250.73 456.60L248.34 450.03L245.12 450.54L241.68 451.08L239.75 451.21L237.70 451.74L235.45 452.13L233.16 452.52L229.26 454.64L225.99 456.19L223.07 457.16L221.58 457.65L220.12 458.59L218.26 459.77L219.20 462.89L219.88 464.77L220.60 466.78L221.41 469.01L219.95 470.40L220.86 472.61L222.03 476.67L223.37 479.41L224.69 483.65L225.72 485.69L226.54 489.74L227.43 491.62L228.49 493.87L229.56 496.56L230.21 498.20L229.02 499.46L229.91 501.68L230.81 503.90L231.39 505.54L232.38 508.34L233.25 511.72L232.62 513.19L231.31 514.24L229.36 516.04L227.27 517.98L228.87 521.21L227.96 522.62L226.92 523.97L225.48 525.00L224.60 526.77L225.05 529.65L217.77 534.80L217.05 536.24L209.00 551.94L206.61 557.47L203.96 562.74L202.66 565.25L202.47 560.34L200.37 552.79L196.78 542.97L193.93 536.30L189.19 533.51L186.07 533.50L180.82 533.48L173.83 533.71L166.83 534.44L161.32 536.44L158.44 538.69L156.18 542.58L154.92 546.35L154.40 550.37L154.76 556.54L155.12 561.44L154.64 572.35L154.82 578.69L153.68 585.82L172.62 616.01L175.42 618.51L183.28 620.54L193.15 623.08L202.38 625.46L209.72 632.67L216.86 639.68L223.09 645.81L236.91 670.25L242.33 680.22L280.95 747.27L282.95 746.19L284.48 745.36L287.29 743.84L289.04 742.89L291.23 741.71L293.97 740.29L295.80 739.35L298.78 737.83L302.01 736.18L306.62 734.33L311.15 732.55L313.27 732.19L314.59 734.95L315.70 737.61L317.96 737.47L320.13 736.51L323.05 737.28L325.99 737.34L325.89 734.89L325.42 732.23L325.11 730.50L324.43 728.86L323.50 726.69L322.41 724.72L321.80 723.24L320.51 721.64L319.70 719.46L319.10 717.65L318.35 715.47L317.74 713.25L317.25 711.49L316.65 709.52L316.84 706.82L318.64 705.66L320.68 704.94L322.41 704.31L323.57 702.89L322.19 700.86L320.01 697.64L318.55 695.49L317.33 693.46L316.36 691.83L315.01 689.59L314.29 688.18L313.37 686.40L312.58 684.89L311.87 683.50L310.15 680.09L308.79 677.55L307.28 674.77L306.39 673.04L305.07 670.49L303.67 667.54L302.67 665.18L301.85 663.24L301.30 661.42L300.07 658.54L301.72 656.60L303.83 655.50L305.13 654.33L306.76 653.26L308.75 652.71L311.24 651.69L312.88 650.96L314.83 649.67L314.89 647.08L313.69 644.88L312.81 643.30L311.93 641.72L310.52 638.60L309.57 636.82L307.95 635.57L306.42 633.16L305.21 631.26L304.03 628.65L301.06 622.83L299.45 621.60L297.43 619.50L295.52 617.67L294.30 616.50L290.54 614.55L288.06 612.85L286.37 612.26L287.39 610.71L291.33 608.99L293.89 608.17L295.91 605.98L296.99 604.27L297.60 602.63L299.15 598.62L299.50 596.28L298.45 590.81L296.74 587.52L303.76 587.05L306.01 585.95L316.41 580.89L324.50 576.94L329.80 575.16L334.06 573.98L343.19 570.68L348.15 569.26L355.63 567.11L357.23 570.84L357.56 572.66L358.06 575.38L360.27 587.41L361.06 590.62L362.33 594.71L365.08 602.36L366.30 605.73L368.73 609.34L370.27 611.63L374.35 617.69L378.77 624.25L382.94 630.45L384.80 633.21L387.04 636.53L388.66 638.94L391.21 642.72L393.15 642.45L398.70 641.67L408.66 640.27L415.30 639.34L430.29 640.15L427.98 621.63L430.64 620.82L433.81 617.34L436.48 617.31L438.02 616.89L439.59 616.12L440.10 618.35L454.94 614.33L456.46 613.92L458.57 613.35L460.56 613.36L462.02 616.22L463.88 623.39L465.23 628.58L466.95 635.18L468.36 638.76L480.89 635.43L461.49 590.62L454.48 574.45L453.74 566.35Z" data-ward="13" /><path id="ward-7" class="ward" d="M798.65 517.76L797.70 519.77L797.00 521.94L797.31 524.73L797.72 527.14L799.42 528.05L801.87 528.64L803.49 529.02L805.06 529.39L806.62 529.77L809.52 530.46L811.12 530.84L819.28 532.79L820.29 534.27L821.98 535.52L824.43 536.34L827.52 536.35L828.89 537.10L830.83 538.24L834.56 540.41L835.26 541.98L835.60 544.29L837.94 545.24L842.53 548.35L845.89 548.83L847.77 548.05L853.66 544.52L858.34 541.99L869.76 535.82L873.10 534.46L873.55 533.37L878.79 531.26L882.27 529.31L887.05 526.62L896.07 519.14L895.84 516.33L895.72 514.76L894.19 508.00L890.19 491.60L885.90 477.65L874.09 462.79L869.00 456.40L865.41 454.56L863.67 453.68L848.07 445.73L843.89 444.43L842.24 444.96L836.77 450.08L833.80 452.87L831.62 454.08L828.22 455.95L824.75 457.87L822.69 457.13L820.88 458.45L819.07 459.76L817.46 461.85L816.07 463.64L814.33 463.03L811.41 461.99L807.29 460.53L807.31 457.83L807.34 455.04L806.81 451.87L806.11 447.62L805.68 445.00L803.35 443.71L800.98 442.39L799.22 439.03L799.47 437.23L799.76 435.09L800.07 432.92L800.30 431.20L799.22 429.89L797.71 428.04L796.66 426.76L792.64 421.85L790.06 418.70L791.95 413.25L792.65 411.25L795.23 410.17L797.28 409.32L797.94 408.19L796.81 405.19L794.07 404.03L792.42 403.33L789.93 402.28L788.21 401.55L786.52 400.03L785.18 398.83L783.01 396.87L776.60 394.98L774.88 393.71L773.15 392.44L772.86 390.38L775.56 388.15L777.70 387.01L779.31 386.16L781.44 382.66L780.61 380.38L779.83 378.25L779.17 376.47L778.45 374.50L778.55 372.29L778.68 369.68L778.76 367.98L778.86 365.83L778.94 364.05L780.12 362.58L786.31 354.87L789.21 351.26L789.95 346.96L790.24 345.26L790.55 342.92L790.96 339.68L791.66 337.75L792.64 335.95L793.66 333.75L795.15 331.56L796.71 328.99L798.35 327.33L799.98 325.68L801.18 324.54L801.38 322.02L798.89 318.23L797.08 316.50L794.41 313.58L792.78 312.37L790.16 311.33L787.27 309.47L785.40 308.71L782.72 307.86L781.12 307.37L779.29 306.56L777.32 304.02L775.50 300.40L774.65 298.97L772.87 297.31L771.29 296.31L768.57 295.55L765.98 295.83L763.39 296.11L760.48 296.87L757.51 296.42L755.52 296.12L753.15 294.05L751.67 292.39L749.54 288.13L745.74 290.64L739.78 294.57L732.53 298.45L731.13 299.20L731.31 302.08L731.32 302.16L728.68 317.62L728.25 320.75L726.95 322.51L721.81 323.69L723.34 330.58L722.03 331.53L720.67 332.52L719.28 333.52L713.52 333.44L708.55 333.15L705.52 332.98L703.48 332.95L701.74 332.93L698.15 332.05L694.68 331.21L693.12 330.83L690.07 329.90L687.56 329.76L685.06 329.63L683.56 328.88L681.63 328.01L679.47 327.03L677.44 325.75L674.94 325.30L673.19 325.32L670.96 325.67L668.70 326.03L665.86 326.10L661.88 326.21L660.07 326.86L658.31 327.49L655.26 328.55L652.48 329.53L649.12 330.71L646.86 331.21L644.45 331.26L642.71 332.06L640.39 333.11L638.27 333.91L636.33 334.10L633.75 333.65L632.02 333.94L630.29 334.23L626.51 335.43L624.45 336.39L624.50 340.48L624.54 343.20L624.59 347.09L626.38 349.04L626.51 352.63L627.25 355.93L626.76 362.20L629.02 365.37L632.40 368.85L635.15 372.98L636.58 376.17L637.59 379.27L638.82 381.21L640.68 382.25L642.21 383.10L644.59 384.43L648.42 386.56L652.46 388.81L654.19 389.77L656.20 390.89L657.63 391.68L659.37 392.66L660.86 393.49L664.34 395.42L666.72 397.73L663.84 398.04L660.21 397.79L654.44 397.38L643.64 396.59L633.32 396.89L630.67 397.07L616.70 404.43L615.05 405.59L610.53 408.83L606.12 411.33L601.28 413.34L598.67 414.41L592.04 416.60L588.07 417.23L585.21 417.70L582.26 417.93L578.57 418.62L578.73 420.51L579.05 424.11L569.08 426.84L563.38 428.41L555.60 429.30L549.07 430.05L545.27 430.49L540.58 430.47L529.81 430.43L524.65 428.21L518.75 428.51L513.14 428.47L503.94 428.42L500.37 427.93L497.89 427.67L492.88 426.91L490.72 425.82L490.64 427.40L490.55 429.09L490.43 432.24L490.31 435.39L490.23 437.61L490.58 441.49L490.89 444.88L491.07 446.94L492.04 449.60L492.59 452.16L489.32 457.40L485.81 463.01L484.34 465.36L481.45 467.36L480.21 469.21L483.30 470.81L481.24 473.34L479.95 474.93L478.70 476.48L476.94 478.63L474.49 480.70L473.34 481.76L470.93 484.29L469.01 486.33L470.97 487.55L472.61 488.59L476.72 488.41L479.33 488.31L482.89 485.81L483.15 495.82L483.34 502.97L484.91 503.45L521.04 514.55L534.58 518.32L535.92 520.82L537.84 520.68L535.87 514.43L535.16 512.14L550.79 511.94L597.60 512.28L601.52 503.72L602.40 495.55L601.24 493.11L600.39 491.30L599.89 488.83L598.87 484.17L606.62 485.08L612.80 486.69L615.20 487.40L618.98 489.46L621.66 490.92L624.21 491.64L630.43 495.53L633.55 497.57L637.10 497.84L659.37 515.04L663.03 513.92L664.82 512.91L668.77 510.70L670.87 509.53L672.28 510.63L674.65 512.50L677.34 514.64L678.99 515.94L682.08 514.94L684.17 514.26L687.23 513.26L696.05 510.04L697.95 507.43L699.56 505.22L700.50 503.92L701.44 502.62L705.14 497.53L711.19 500.13L723.33 507.04L734.35 513.32L734.51 510.06L734.59 508.00L742.76 508.30L746.42 510.49L748.18 512.19L750.48 508.49L751.51 506.15L752.27 504.45L754.21 504.84L755.80 505.28L764.28 507.63L765.42 506.42L766.87 504.87L767.81 506.82L768.48 508.45L769.32 510.46L771.85 516.55L777.18 516.61L782.57 516.67L788.94 517.05L794.87 517.44L798.65 517.76Z" data-ward="7" /><path id="ward-4" class="ward" d="M598.26 246.02L593.50 246.46L591.15 246.64L589.49 246.87L587.35 247.00L585.59 247.32L583.70 247.59L581.62 247.66L579.44 247.98L577.85 248.45L576.29 248.74L574.34 249.31L572.53 250.00L570.87 251.21L569.46 252.15L567.01 253.59L564.49 254.20L562.59 253.57L559.95 252.43L554.97 252.07L552.64 252.39L549.97 252.92L546.34 253.51L543.42 255.40L541.13 256.35L538.73 256.94L536.84 257.22L533.54 256.94L532.09 256.33L530.49 256.37L528.56 256.57L524.67 257.14L522.90 257.45L520.95 258.07L519.12 258.56L517.16 259.76L519.46 266.79L520.74 268.11L521.48 269.68L522.51 271.40L523.67 272.85L524.90 274.30L528.18 274.55L529.90 274.35L531.56 274.29L533.45 274.70L536.92 274.53L538.76 275.11L539.37 277.40L539.96 279.30L539.94 280.93L540.42 282.82L541.45 285.39L542.14 287.04L543.10 288.90L543.54 290.85L544.17 292.71L544.69 294.29L546.23 297.81L546.91 299.23L547.41 300.71L548.05 302.35L548.66 304.61L549.53 307.18L550.79 309.54L551.40 311.51L552.66 314.70L553.76 316.48L555.97 316.59L556.64 318.93L557.28 320.87L558.34 322.45L560.82 321.65L562.56 321.49L564.08 321.09L564.31 318.42L566.39 317.84L568.29 317.39L571.38 317.03L573.18 317.06L575.06 316.56L576.91 315.84L579.24 315.45L579.78 316.96L580.56 319.63L581.72 321.03L583.52 320.99L585.91 320.82L587.58 320.60L589.62 320.24L591.55 320.46L591.87 322.37L592.39 324.50L593.01 326.25L593.33 328.71L593.39 331.58L593.60 334.18L594.21 336.86L595.05 338.69L595.78 340.34L596.24 342.98L596.95 344.40L598.31 346.90L599.32 349.65L600.24 351.92L600.76 353.46L601.48 355.31L601.98 356.80L602.62 358.52L603.25 359.95L603.80 361.88L604.34 363.50L605.34 365.95L606.11 367.37L607.76 366.60L609.73 365.52L612.33 364.09L615.08 363.25L617.63 361.92L619.49 361.09L622.69 360.10L625.35 360.23L625.18 357.61L625.06 355.93L624.86 352.96L624.62 349.47L624.59 347.09L624.54 343.20L624.50 340.48L624.45 336.39L626.51 335.43L630.29 334.23L632.02 333.94L633.75 333.65L636.33 334.10L638.27 333.91L640.39 333.11L642.71 332.06L644.45 331.26L646.86 331.21L649.12 330.71L652.48 329.53L655.26 328.55L658.31 327.49L660.07 326.86L661.88 326.21L665.86 326.10L668.70 326.03L670.96 325.67L673.19 325.32L674.94 325.30L677.44 325.75L679.47 327.03L681.63 328.01L683.56 328.88L685.06 329.63L687.56 329.76L690.07 329.90L693.12 330.83L694.68 331.21L698.15 332.05L701.74 332.93L703.48 332.95L705.52 332.98L708.55 333.15L713.52 333.44L719.28 333.52L720.67 332.52L722.03 331.53L723.34 330.58L721.81 323.69L726.95 322.51L728.25 320.75L728.68 317.62L731.32 302.16L731.31 302.08L731.13 299.20L732.53 298.45L739.78 294.57L745.74 290.64L749.54 288.13L751.10 284.79L751.85 282.71L752.95 279.65L753.79 277.29L754.76 272.89L757.50 272.43L760.11 272.01L762.05 271.69L764.98 270.99L769.53 269.92L773.08 270.20L777.29 270.65L779.56 270.98L782.11 271.50L783.86 271.86L789.07 270.69L794.24 268.93L797.43 268.43L801.26 267.83L805.15 267.67L808.85 267.52L810.93 266.21L813.85 264.39L816.09 262.99L817.89 260.32L820.15 256.98L822.27 251.38L821.96 246.35L821.85 244.43L819.95 241.19L818.74 239.14L817.28 236.65L818.33 235.06L821.76 231.84L822.35 229.82L822.89 228.03L821.74 225.60L819.27 223.04L816.79 221.21L814.15 219.26L812.77 218.11L810.13 215.91L809.36 213.92L808.57 211.88L810.01 209.09L810.76 207.65L812.39 204.06L812.00 202.44L811.45 200.18L810.72 197.42L809.88 195.84L808.18 191.86L806.72 189.19L806.22 185.65L805.99 184.08L805.58 181.16L806.88 178.89L807.71 177.43L809.15 175.84L810.75 174.08L812.14 172.54L812.89 170.80L813.88 168.52L813.94 166.63L813.99 164.98L812.92 162.61L811.25 158.93L808.94 156.12L807.90 154.85L805.36 151.75L803.98 150.58L801.76 150.82L800.46 152.59L799.35 154.09L798.20 156.79L795.67 157.35L793.33 157.82L789.97 156.35L788.84 154.88L787.27 152.82L787.41 150.51L787.57 148.02L788.91 146.87L790.14 145.81L791.64 144.52L795.12 143.80L796.84 142.86L798.30 142.05L800.73 140.71L801.98 138.58L803.25 136.41L803.51 134.28L803.71 132.69L803.43 130.60L803.12 128.31L802.77 125.70L803.14 121.65L805.12 120.22L807.26 118.68L808.94 118.67L810.54 118.66L813.05 119.42L815.20 120.06L817.71 120.34L821.08 120.72L822.61 119.79L824.45 118.67L825.63 116.39L826.76 114.22L826.81 112.06L826.85 110.04L826.08 107.67L825.38 105.55L824.17 103.87L822.93 102.15L821.84 100.44L820.69 98.63L820.53 95.56L820.43 93.69L820.34 91.84L820.77 89.68L820.74 87.24L820.18 85.34L817.33 84.34L815.45 83.68L812.22 83.34L809.87 83.09L808.22 82.26L804.87 80.58L800.30 77.84L798.69 76.39L797.14 75.59L796.27 73.82L796.66 72.27L798.03 71.47L799.84 70.42L802.34 70.09L804.27 69.42L805.79 68.90L807.95 68.15L809.77 66.49L811.03 64.08L811.22 62.51L811.46 60.51L811.74 58.17L809.69 52.87L806.78 50.94L805.02 50.46L803.48 51.07L801.94 51.67L799.84 54.48L798.69 55.82L796.26 58.64L793.69 59.48L791.29 58.83L788.74 58.14L785.93 55.70L784.34 53.04L785.13 50.78L789.33 47.57L791.22 45.78L792.46 42.86L790.97 40.37L789.48 39.03L786.81 36.62L782.31 35.66L778.90 36.07L776.77 36.32L775.16 36.98L772.74 37.85L770.84 38.54L768.45 44.75L765.35 46.46L758.90 47.29L754.35 47.87L749.73 47.73L745.50 48.07L739.64 48.50L733.81 48.73L726.41 49.06L721.48 48.46L722.30 44.17L722.76 39.49L721.58 37.81L721.21 36.01L720.84 34.22L719.47 29.87L716.37 28.56L713.44 29.45L709.24 27.99L702.80 25.76L700.34 24.17L697.22 24.28L677.41 19.16L678.08 21.64L669.06 21.63L668.29 25.08L663.66 24.86L659.80 24.10L655.13 22.46L652.02 22.40L648.50 21.65L648.90 18.15L648.63 16.06L648.29 13.50L645.57 12.93L642.41 12.27L640.80 12.03L638.04 11.61L636.08 11.31L631.90 10.49L629.64 10.05L622.85 9.95L621.73 7.62L620.85 5.85L619.95 4.06L619.47 2.28L618.85 0.00L605.08 3.33L602.25 4.02L598.26 4.99L593.43 9.03L589.82 12.06L588.48 13.18L581.93 16.37L580.22 17.91L578.56 20.24L577.28 21.55L575.81 22.97L574.58 24.26L572.66 26.55L571.18 28.12L569.50 28.92L567.95 29.55L565.01 30.93L563.20 31.87L558.91 33.30L557.08 33.91L554.64 34.60L550.41 35.92L548.30 36.58L544.98 37.47L544.02 38.78L542.53 40.61L540.88 42.27L539.33 43.41L536.37 44.52L532.87 45.90L529.62 47.23L527.69 48.03L524.10 48.94L520.22 48.33L516.89 47.50L514.65 47.88L511.30 48.87L508.33 50.24L504.97 52.15L502.23 54.13L499.56 56.57L498.34 57.69L496.42 59.46L494.33 62.01L492.32 64.46L490.34 66.25L489.07 67.52L486.56 70.04L484.68 70.48L482.66 70.97L481.33 75.00L480.50 77.51L479.20 79.16L477.42 81.42L476.31 82.83L474.24 87.33L473.51 88.93L472.64 90.82L471.49 93.32L471.18 96.49L470.98 98.66L471.25 100.45L471.50 102.10L473.45 103.15L473.02 105.92L472.55 108.94L472.37 111.16L472.01 112.96L471.66 114.76L470.71 119.05L470.33 121.23L469.45 124.83L468.65 127.19L468.05 128.97L466.49 133.09L465.70 135.16L463.30 135.12L460.70 135.37L458.54 138.24L455.69 138.46L454.08 138.59L448.73 138.93L446.71 138.86L444.19 138.67L439.18 138.02L434.98 137.58L432.90 136.64L429.35 135.84L425.30 135.69L420.04 135.49L417.05 135.37L415.75 133.18L415.11 128.93L413.58 127.79L411.97 128.23L409.62 129.42L407.97 131.21L406.45 134.15L403.38 137.54L402.43 138.83L401.17 140.53L400.65 143.48L400.00 147.04L398.77 148.78L399.45 151.11L397.16 153.55L395.34 154.53L392.89 155.60L391.39 156.26L390.16 158.27L389.28 159.71L388.89 161.36L388.28 162.95L385.91 163.57L383.73 163.77L380.59 164.04L382.29 166.67L384.05 168.31L385.45 169.40L386.82 170.59L388.07 172.41L388.89 174.07L389.61 175.73L390.63 177.28L391.86 179.07L393.51 182.22L394.35 183.87L395.27 185.45L397.26 190.09L398.56 192.79L399.82 195.05L401.65 197.82L403.35 200.60L404.47 202.57L406.34 205.00L410.34 207.01L412.66 207.70L414.02 208.66L414.83 210.45L415.60 212.93L415.96 214.60L418.28 213.52L420.67 211.86L423.22 210.33L424.92 209.70L426.46 209.14L428.42 208.49L431.38 207.71L432.97 207.30L434.65 206.94L436.37 206.44L438.21 205.91L440.52 205.09L443.06 204.56L445.09 204.09L447.45 203.54L448.93 202.81L450.60 202.29L453.03 201.74L454.64 201.27L457.09 200.11L459.51 199.17L461.22 198.74L463.96 197.92L465.77 197.34L467.98 196.62L470.66 195.63L473.15 194.65L476.07 193.47L477.53 192.87L479.55 192.13L481.75 191.05L483.52 190.21L485.56 189.30L487.15 188.62L488.68 187.99L490.29 187.42L491.91 186.85L493.69 186.23L496.01 185.10L496.80 183.22L495.87 181.75L494.36 179.43L493.20 177.24L492.83 175.56L495.72 173.02L497.05 171.78L498.73 169.89L499.97 168.36L501.72 166.59L503.32 164.73L504.65 163.30L505.32 161.87L505.58 159.95L505.51 158.07L504.98 155.88L504.26 153.72L502.71 149.38L506.04 150.28L508.54 151.40L511.01 152.20L512.75 152.30L518.74 152.25L526.48 152.60L531.30 157.98L533.27 159.91L535.40 161.66L538.19 162.74L540.54 163.26L543.45 163.08L546.30 163.30L547.74 164.05L549.80 165.76L552.03 167.63L553.96 168.57L556.45 169.53L559.10 170.17L561.49 171.11L563.86 172.66L565.90 174.24L569.38 176.75L571.73 180.04L572.63 181.63L573.61 184.63L574.31 186.83L575.14 188.66L577.15 192.70L578.41 196.15L579.17 200.12L579.71 204.78L592.70 231.69L598.26 246.02Z" data-ward="4" /><path id="ward-3" class="ward" d="M428.60 282.40L429.89 285.58L430.32 287.28L431.80 290.89L433.03 293.91L434.29 296.34L435.43 298.66L437.62 301.59L439.80 300.80L442.26 300.12L445.79 299.21L449.07 298.33L450.06 296.85L449.40 293.65L455.19 291.68L456.93 289.87L457.48 287.50L458.06 285.34L457.51 282.70L456.40 280.38L455.40 277.65L454.52 276.25L452.12 275.56L449.64 274.49L448.09 272.70L448.69 269.30L449.25 266.43L448.30 265.03L445.49 265.15L443.58 264.88L442.06 264.24L439.16 262.36L437.01 261.02L435.11 259.77L433.64 258.32L431.25 254.47L431.02 251.72L430.14 248.91L429.21 246.22L428.25 243.92L427.34 242.09L426.83 239.98L426.30 238.00L425.53 236.59L424.65 235.25L422.68 232.86L422.09 230.83L421.68 228.98L421.26 227.17L420.77 225.21L419.95 223.20L419.20 220.83L418.39 218.96L417.46 217.53L416.59 216.06L415.96 214.60L415.60 212.93L414.83 210.45L414.02 208.66L412.66 207.70L410.34 207.01L406.34 205.00L404.47 202.57L403.35 200.60L401.65 197.82L399.82 195.05L398.56 192.79L397.26 190.09L395.27 185.45L394.35 183.87L393.51 182.22L391.86 179.07L390.63 177.28L389.61 175.73L388.89 174.07L388.07 172.41L386.82 170.59L385.45 169.40L384.05 168.31L382.29 166.67L380.59 164.04L379.04 162.71L379.07 158.86L378.69 156.36L378.00 153.58L377.60 152.00L377.93 150.18L378.27 148.32L379.19 145.90L378.41 143.61L376.89 142.33L374.10 140.98L373.01 138.31L374.93 136.31L376.18 137.39L378.19 136.64L378.10 134.72L376.68 133.64L374.46 132.28L373.41 129.50L374.10 127.04L373.46 125.14L372.68 122.79L372.24 120.46L371.93 118.78L372.18 116.95L372.67 113.72L371.07 113.62L368.56 113.45L367.16 115.90L365.38 116.41L363.66 116.90L361.16 117.62L359.03 118.23L356.61 118.92L354.62 119.49L351.87 120.58L349.29 121.45L347.52 122.16L345.18 122.82L342.78 123.46L341.21 123.88L339.38 124.47L337.05 125.23L334.21 126.00L330.94 127.06L329.23 127.39L326.53 127.93L324.83 128.31L322.41 128.91L319.56 129.49L315.96 130.46L313.78 131.12L311.33 131.84L309.18 132.30L307.35 132.86L305.33 133.48L303.04 134.15L300.37 135.00L297.84 135.99L296.27 136.48L293.64 137.31L289.09 138.76L286.75 139.85L283.67 140.96L280.27 141.82L276.78 143.06L273.61 144.30L272.08 144.89L269.77 145.80L266.23 147.18L263.39 147.84L260.54 148.70L258.49 149.23L256.54 149.95L250.78 151.34L247.16 152.20L245.37 153.66L245.15 155.37L245.52 157.30L246.14 160.53L246.77 162.58L247.65 165.44L247.96 167.90L249.00 170.91L250.85 176.24L251.51 179.38L251.89 181.22L253.01 184.31L253.15 186.53L253.29 188.76L252.90 192.72L252.88 196.50L253.08 198.15L253.43 201.04L253.64 202.75L255.62 204.30L258.01 203.60L260.85 202.95L263.62 203.31L265.64 203.57L266.99 208.37L268.07 212.18L267.19 213.71L265.54 215.16L267.71 218.61L270.17 219.72L271.65 221.06L271.33 224.27L275.47 229.26L277.23 231.38L279.65 235.07L282.02 240.62L282.15 243.51L281.65 245.79L281.18 247.95L278.74 249.64L275.87 254.65L274.75 257.39L272.44 258.57L273.08 260.57L274.78 264.54L275.51 267.13L275.94 268.68L278.88 267.72L281.88 266.75L284.24 268.75L286.59 267.68L290.42 265.95L289.99 263.71L292.83 262.64L294.62 264.84L301.32 267.49L302.00 269.57L302.83 272.08L303.39 274.26L303.82 275.95L305.27 277.43L306.88 278.21L306.90 286.95L304.94 287.72L303.69 288.80L302.18 289.34L299.67 290.23L297.58 291.88L295.36 292.74L292.88 293.59L290.29 295.32L288.77 295.99L287.15 296.69L288.58 301.10L289.17 302.93L290.32 306.05L291.02 307.74L291.72 309.42L299.39 312.21L297.68 321.36L300.23 320.64L302.09 319.76L303.61 319.28L305.55 318.71L307.16 318.27L308.47 316.77L308.27 314.10L307.80 311.84L307.44 309.82L306.67 307.17L306.21 305.48L309.53 304.57L311.22 303.74L310.87 301.50L312.32 299.76L314.20 299.29L316.12 298.75L317.78 298.20L319.58 298.01L323.13 297.19L324.01 300.31L324.68 302.82L325.06 304.57L325.92 306.65L326.52 308.28L326.88 309.94L328.09 311.13L330.29 310.60L332.97 310.13L334.88 309.80L336.44 309.39L338.14 309.20L341.23 308.80L343.36 308.93L345.67 309.12L347.58 309.10L349.83 309.00L353.06 308.88L355.54 309.07L357.33 309.19L359.11 309.41L359.88 310.79L360.47 313.96L360.89 316.37L361.26 318.53L361.71 320.61L362.64 323.31L364.38 325.81L364.96 327.67L365.67 329.31L366.19 331.19L366.72 333.40L368.80 334.12L370.88 333.41L373.19 332.56L375.53 331.89L378.36 331.34L380.81 331.39L382.46 332.14L383.30 334.11L385.49 334.30L387.82 333.77L389.73 333.37L391.39 332.88L393.34 332.44L395.35 331.90L397.09 331.33L398.82 331.15L400.71 330.82L402.37 330.36L404.10 330.07L405.76 329.77L408.38 329.77L409.95 329.68L410.53 327.77L413.23 326.92L415.01 326.43L416.51 325.71L419.28 324.92L421.42 324.17L422.90 323.50L424.56 322.86L423.95 320.84L423.24 318.25L424.08 316.68L423.73 313.13L423.41 310.03L423.03 307.92L422.73 306.37L422.08 304.84L421.43 302.08L421.52 299.34L421.17 296.82L420.45 294.63L417.88 294.09L415.09 294.49L414.27 292.02L413.67 289.75L413.28 287.25L412.83 285.51L414.24 283.99L416.72 283.57L418.38 283.52L421.02 283.77L423.09 283.49L425.25 282.99L428.60 282.40Z" data-ward="3" /><path id="ward-10" class="ward" d="M572.69 897.19L570.23 892.46L569.29 890.06L568.60 887.81L567.69 883.41L567.22 879.35L566.37 872.24L565.88 868.09L565.85 865.94L565.85 864.22L565.85 862.01L564.93 858.88L563.92 855.54L562.41 852.66L561.73 850.79L561.07 849.00L560.49 847.38L559.87 845.71L559.10 842.88L558.15 839.21L557.67 836.99L557.30 835.30L556.39 831.44L555.92 829.68L555.13 826.72L554.09 822.59L553.03 818.91L551.78 815.05L550.28 811.08L549.47 809.11L548.69 807.05L547.75 804.36L546.27 799.15L544.88 794.53L544.48 793.01L543.91 790.88L543.48 789.27L542.71 786.36L542.16 784.28L541.59 782.13L541.06 780.15L538.28 781.08L536.39 781.71L535.18 780.42L533.68 778.30L532.17 776.06L530.09 775.55L528.28 775.11L526.54 775.11L524.72 775.31L522.90 775.50L520.93 776.43L518.96 777.36L517.30 778.90L516.45 780.31L515.59 781.72L515.65 783.35L513.71 785.43L509.94 787.30L507.44 788.76L506.08 789.55L503.97 790.89L501.85 792.22L500.08 794.07L499.09 795.57L498.29 796.97L497.13 798.74L495.35 799.83L495.44 803.74L495.96 805.90L496.31 807.78L496.73 809.65L497.20 811.55L497.73 813.91L498.67 816.57L499.78 819.06L500.73 821.66L501.49 824.28L502.04 826.32L502.74 827.94L503.45 829.55L501.38 831.04L499.00 832.05L496.79 833.44L493.93 834.59L490.77 834.68L488.98 832.04L487.93 830.26L486.74 829.04L485.54 827.83L481.16 823.52L479.49 821.18L478.23 819.16L477.49 817.76L476.52 815.94L475.70 814.39L474.55 812.23L473.48 810.85L472.41 809.47L470.41 808.34L464.60 809.83L458.63 811.37L457.99 813.62L456.83 814.80L454.46 814.88L453.26 816.36L449.49 818.34L447.99 817.81L446.08 819.45L445.45 820.93L442.40 820.33L442.59 823.02L439.55 824.03L440.80 828.75L444.91 835.02L434.99 839.18L435.76 841.07L436.66 843.28L435.34 844.21L433.89 845.23L432.23 845.85L427.69 848.59L428.36 850.70L429.11 853.09L431.05 856.13L432.54 857.79L432.49 859.75L433.26 861.49L432.41 863.53L431.72 865.49L433.29 870.16L434.69 872.05L436.37 874.44L437.15 876.46L438.10 878.95L439.58 882.61L440.25 884.15L442.24 885.25L443.15 886.66L443.16 888.29L443.57 890.71L443.75 892.74L444.38 894.38L446.15 894.39L447.25 895.59L449.50 900.29L446.95 901.71L445.16 902.50L441.27 904.55L439.24 905.27L436.83 905.92L434.83 906.45L432.97 906.85L431.19 907.18L428.40 907.72L426.45 908.65L424.41 909.84L422.71 911.10L421.58 912.19L420.22 913.27L418.24 914.54L414.83 916.58L411.85 918.01L410.28 917.14L407.57 912.75L406.23 910.52L404.88 908.30L403.25 904.59L402.11 901.92L400.08 900.94L398.53 901.84L396.81 902.70L395.09 903.43L393.40 904.11L390.47 905.21L388.17 907.02L387.48 908.74L385.86 909.55L383.24 910.78L381.11 911.24L378.86 911.05L377.24 910.27L367.78 912.26L366.39 906.67L366.69 904.40L363.76 895.79L362.83 892.49L361.87 889.09L361.35 883.85L354.76 874.20L346.57 862.25L342.43 864.23L340.07 865.36L341.36 874.27L342.66 881.92L343.77 886.88L346.13 895.74L347.02 898.53L348.40 902.78L350.82 909.91L353.35 917.38L358.64 931.22L371.99 948.78L378.59 957.47L386.12 965.87L406.15 988.22L416.50 1008.20L417.29 1009.72L421.48 1016.86L420.43 1019.10L431.77 1030.05L433.65 1031.64L438.99 1036.14L442.57 1038.14L445.78 1041.33L449.63 1045.16L451.90 1047.28L453.37 1048.66L463.01 1056.79L475.40 1066.67L476.86 1063.23L478.00 1060.54L478.97 1058.87L479.86 1057.32L481.20 1055.02L482.33 1053.05L484.10 1050.00L485.36 1047.92L485.77 1046.29L488.03 1037.40L488.30 1030.02L488.59 1021.14L488.57 1019.41L488.16 1007.31L483.67 991.08L481.31 987.59L480.38 986.17L479.59 984.39L478.54 981.94L476.73 977.70L475.11 973.90L459.78 959.18L466.77 946.22L474.23 944.47L485.40 941.83L491.69 942.09L497.86 942.35L502.34 942.53L504.44 942.61L506.84 942.71L510.96 942.88L513.55 942.99L515.88 943.33L517.45 943.56L519.62 943.88L521.89 944.22L524.14 944.55L526.35 944.88L527.92 945.11L529.50 945.34L534.40 946.06L536.59 946.19L539.64 946.62L553.63 948.60L573.89 953.19L579.52 955.79L581.54 956.35L584.17 957.08L586.03 957.60L587.64 958.04L596.83 956.31L601.20 955.47L603.77 954.98L606.37 954.48L610.53 954.37L615.55 954.03L618.64 954.11L625.84 954.30L630.95 957.63L634.81 960.15L637.09 961.64L646.20 967.89L647.57 968.83L650.31 969.78L653.08 970.74L654.88 971.36L659.41 972.93L661.82 973.72L669.26 975.27L676.49 976.77L682.42 976.99L689.54 976.73L696.97 976.45L704.83 977.38L714.02 978.47L724.67 981.07L726.18 981.44L730.31 982.44L730.76 976.94L731.00 973.92L731.21 971.26L731.74 964.78L735.40 962.59L738.91 960.50L742.12 959.91L753.32 957.82L763.37 956.45L767.71 955.89L779.07 954.43L792.45 952.18L803.55 950.28L817.01 947.29L831.84 944.58L834.73 944.19L843.40 942.20L855.97 939.90L862.43 938.54L866.49 937.68L869.29 937.04L871.93 936.43L875.71 935.56L878.00 935.03L881.85 934.15L884.13 933.62L885.90 933.30L887.43 932.94L891.18 932.06L892.96 931.64L895.38 931.08L897.55 930.57L899.11 930.20L901.16 929.72L903.47 929.18L906.35 928.43L909.70 927.55L912.24 926.89L914.62 926.27L917.30 925.57L920.17 924.82L922.39 924.24L924.71 923.64L927.27 922.97L933.36 921.38L938.94 920.46L944.97 919.46L953.57 916.53L957.89 909.34L963.63 899.78L968.24 892.10L974.43 889.37L981.75 886.14L983.70 885.28L985.85 885.19L987.50 883.76L990.19 877.27L997.94 865.52L1000.00 861.91L997.64 847.50L997.26 845.19L996.86 842.77L959.40 841.83L958.30 843.25L957.20 844.67L948.22 847.81L946.86 853.43L946.30 860.53L827.37 878.13L792.65 883.26L773.01 886.50L732.64 897.59L706.81 905.17L704.35 905.89L702.72 907.30L701.05 908.25L699.38 908.86L696.61 909.15L694.08 909.18L692.35 909.26L689.74 909.94L688.20 908.76L686.67 907.74L685.14 906.72L684.67 905.21L684.15 903.56L681.31 903.15L675.48 904.10L670.21 905.50L667.63 903.14L662.85 903.79L658.06 904.45L656.12 904.64L647.90 904.37L646.23 901.52L638.87 902.39L635.26 903.42L632.64 905.38L630.60 905.94L628.96 906.06L625.95 906.21L623.35 906.22L619.59 906.58L617.60 908.68L615.47 909.29L611.94 910.51L609.77 910.46L608.74 908.38L608.21 906.64L605.51 905.76L604.49 903.50L603.21 901.95L601.76 900.60L600.41 898.64L599.37 896.10L598.76 893.85L598.33 891.24L597.08 889.63L594.51 890.74L592.70 892.10L589.98 894.15L585.99 895.39L584.57 891.23L581.86 892.22L579.98 893.01L577.65 893.96L575.61 894.82L572.69 897.19Z" data-ward="10" /><path id="ward-8" class="ward" d="M569.73 627.03L575.84 627.47L577.75 627.60L582.35 627.93L584.99 628.12L595.05 628.54L594.47 622.53L594.18 617.39L602.45 616.48L607.56 616.57L609.32 616.53L611.41 616.30L611.67 613.20L613.10 612.38L616.26 610.50L611.21 603.66L609.29 600.62L608.95 598.25L609.45 596.74L609.96 595.24L611.31 593.70L614.82 592.59L616.56 593.17L618.30 593.74L619.45 595.20L624.19 601.19L625.30 602.68L626.83 605.30L627.71 606.71L628.72 608.29L633.52 607.22L638.48 602.24L645.86 594.84L647.88 592.83L649.91 590.83L651.56 589.97L653.37 589.73L655.74 590.23L657.28 591.23L658.46 592.67L659.31 595.86L658.24 599.09L635.60 621.88L636.58 623.82L637.18 626.25L636.77 628.40L635.79 630.03L633.13 631.97L629.90 632.08L627.59 630.98L621.82 635.70L620.84 637.14L619.70 638.81L621.14 640.72L622.68 642.78L624.00 644.17L626.75 647.07L628.11 650.19L629.21 652.54L630.62 653.34L632.10 654.18L635.69 653.69L638.08 653.37L640.34 653.06L642.62 651.84L644.19 652.05L650.73 652.48L652.72 652.62L656.42 653.14L661.86 653.91L663.47 653.95L669.07 654.09L671.29 654.08L673.50 654.06L681.42 653.66L684.38 653.62L686.62 653.37L688.55 653.16L692.50 654.91L694.40 661.73L696.82 664.46L698.03 665.83L707.63 668.54L710.71 669.54L718.17 671.98L721.43 671.14L723.91 670.04L731.99 666.73L734.15 665.72L741.27 665.10L743.38 664.92L743.67 672.03L743.77 674.36L744.64 677.40L748.28 686.18L748.29 686.21L749.95 690.37L754.14 709.25L754.30 709.84L756.06 717.55L756.23 719.16L758.72 719.44L760.31 719.62L763.59 719.39L765.23 719.22L778.29 717.61L783.83 716.81L786.03 716.47L788.81 716.04L791.46 716.67L793.57 725.28L796.30 736.39L798.24 744.33L798.28 745.97L799.04 747.80L801.74 748.84L808.21 747.48L810.79 747.59L813.99 747.71L819.03 747.87L821.18 747.94L825.20 747.65L826.80 747.54L829.33 747.24L835.04 746.55L838.90 746.08L841.21 745.80L844.24 745.40L849.22 744.77L854.01 744.16L859.13 743.65L863.03 743.26L866.96 742.82L870.94 741.96L873.39 741.18L878.46 739.60L887.18 736.86L889.79 736.12L892.90 735.04L897.32 733.50L901.70 732.02L904.69 731.00L908.60 729.68L912.56 728.34L916.48 727.02L920.49 725.66L924.79 724.21L921.11 715.32L920.49 713.80L917.45 706.58L915.41 701.73L913.65 696.51L913.13 695.00L912.37 692.75L908.96 684.55L907.76 680.08L906.54 675.57L905.80 672.82L905.75 670.60L905.13 665.10L904.76 661.85L903.75 659.74L903.04 658.26L899.81 655.64L897.09 653.44L896.10 650.36L895.24 647.65L896.29 637.92L895.15 634.97L893.11 627.79L892.45 625.44L891.96 623.80L891.74 621.30L891.31 616.45L893.61 612.60L894.18 609.31L891.66 599.76L891.65 599.74L881.43 562.26L873.10 534.46L869.76 535.82L858.34 541.99L853.66 544.52L847.77 548.05L845.89 548.83L842.53 548.35L837.94 545.24L835.60 544.29L835.26 541.98L834.56 540.41L830.83 538.24L828.89 537.10L827.52 536.35L824.43 536.34L821.98 535.52L820.29 534.27L819.28 532.79L811.12 530.84L809.52 530.46L806.62 529.77L805.06 529.39L803.49 529.02L801.87 528.64L799.42 528.05L797.72 527.14L797.31 524.73L797.00 521.94L797.70 519.77L798.65 517.76L794.87 517.44L788.94 517.05L782.57 516.67L777.18 516.61L771.85 516.55L769.32 510.46L768.48 508.45L767.81 506.82L766.87 504.87L765.42 506.42L764.28 507.63L755.80 505.28L754.21 504.84L752.27 504.45L751.51 506.15L750.48 508.49L748.18 512.19L746.42 510.49L742.76 508.30L734.59 508.00L734.51 510.06L734.35 513.32L723.33 507.04L711.19 500.13L705.14 497.53L701.44 502.62L700.50 503.92L699.56 505.22L697.95 507.43L696.05 510.04L687.23 513.26L684.17 514.26L682.08 514.94L678.99 515.94L677.34 514.64L674.65 512.50L672.28 510.63L670.87 509.53L668.77 510.70L664.82 512.91L663.03 513.92L659.37 515.04L637.10 497.84L633.55 497.57L630.43 495.53L624.21 491.64L621.66 490.92L618.98 489.46L615.20 487.40L612.80 486.69L606.62 485.08L598.87 484.17L599.89 488.83L600.39 491.30L601.24 493.11L602.40 495.55L601.52 503.72L597.60 512.28L550.79 511.94L535.16 512.14L535.87 514.43L537.84 520.68L539.97 520.95L542.20 521.01L553.51 521.35L554.94 521.99L554.72 536.45L554.26 540.88L554.08 542.59L553.11 550.27L551.72 551.24L552.62 559.08L552.78 561.80L552.99 565.34L553.34 570.98L553.50 573.93L547.08 574.90L546.38 577.04L532.01 575.80L529.63 575.48L525.68 570.90L509.42 569.47L506.68 569.38L503.93 569.28L485.77 569.40L477.15 568.99L477.84 559.30L477.95 557.20L478.15 553.28L478.32 550.02L478.43 547.84L478.56 545.29L478.70 542.58L478.85 539.64L478.87 537.94L480.86 527.73L471.65 525.51L468.98 527.75L447.67 528.73L449.16 531.15L449.59 533.51L450.12 536.42L450.69 539.61L451.02 541.43L451.45 543.78L452.96 549.84L453.56 560.97L453.74 566.35L454.48 574.45L461.49 590.62L480.89 635.43L468.36 638.76L466.95 635.18L465.23 628.58L463.88 623.39L462.02 616.22L460.56 613.36L458.57 613.35L456.46 613.92L454.94 614.33L440.10 618.35L439.59 616.12L438.02 616.89L436.48 617.31L433.81 617.34L430.64 620.82L427.98 621.63L430.29 640.15L445.02 641.05L443.82 647.48L443.79 649.05L455.73 653.83L458.99 655.18L457.58 666.18L463.16 666.46L470.94 666.84L473.28 666.61L479.83 664.42L478.54 655.64L488.68 650.58L491.73 656.15L501.03 672.87L504.86 672.39L509.22 671.68L522.12 669.12L526.64 666.64L528.47 668.98L530.28 667.92L531.98 667.35L534.14 666.62L534.63 664.37L535.46 661.08L531.68 653.32L528.58 653.16L527.94 651.67L521.95 637.76L524.86 635.47L526.69 634.84L528.65 634.17L538.37 632.53L541.48 631.77L546.30 629.00L549.91 626.90L565.84 626.75L569.73 627.03Z" data-ward="8" /></svg>