<svg viewBox="0 0 1000.00 759.63" xmlns="http://www.w3.org/2000/svg"><style>.ward { fill: #e2e8f0; stroke: #fff; stroke-width: 0.5px; } .ward:hover { fill: #cbd5e1; }</style><path id="ward-20" class="ward" d="M41.31 558.07L42.51 554.36L43.76 551.64L44.81 547.41L45.63 545.08L46.44 542.58L47.36 539.71L48.41 535.54L49.45 530.84L49.66 528.24L49.87 525.69L51.47 509.68L52.71 505.46L53.00 502.37L40.70 498.21L36.41 496.89L35.54 494.67L34.29 492.70L34.79 488.94L30.83 487.51L27.65 486.37L23.68 484.94L17.61 482.77L15.54 482.02L11.67 480.31L9.38 484.40L5.90 491.30L3.23 496.59L2.03 503.97L1.88 508.51L1.38 524.11L1.00 536.15L0.42 545.26L0.42 548.20L0.42 559.37L0.15 565.97L0.05 570.80L0.00 573.17L0.58 585.23L7.16 585.63L8.62 587.87L10.05 589.41L13.26 589.59L15.17 592.59L14.82 595.40L14.99 597.39L17.14 601.63L19.77 606.45L19.88 608.26L21.18 609.03L23.53 609.04L23.41 612.14L25.78 612.23L29.75 614.65L33.48 616.30L33.56 618.66L32.27 621.02L38.50 621.47L41.42 622.81L40.98 633.65L40.88 636.11L39.53 638.54L39.65 641.17L40.98 645.34L42.65 643.18L47.48 624.47L49.86 618.92L51.29 616.31L53.43 613.72L54.95 612.28L58.81 608.61L63.24 604.14L65.79 601.57L67.61 597.22L69.03 593.86L64.24 593.23L57.69 592.38L55.16 591.88L51.87 590.85L51.23 587.46L51.96 584.60L56.32 584.00L56.03 580.87L55.93 578.67L56.46 576.24L59.61 577.01L62.08 577.77L63.53 568.60L55.40 565.39L56.86 562.10L55.85 559.94L53.62 559.93L48.71 560.79L45.76 561.62L42.47 562.57L38.42 563.57L41.31 558.07Z" data-ward="20" /><path id="ward-9" class="ward" d="M1000.00 442.50L995.58 427.33L993.42 419.94L990.42 409.64L982.29 409.42L987.17 392.37L982.50 386.80L989.04 380.34L970.66 383.97L972.08 379.18L970.86 378.29L968.25 376.09L965.90 372.94L963.17 369.26L961.32 365.21L958.45 361.98L957.56 358.68L956.69 356.76L955.87 354.94L951.77 351.64L948.49 348.99L946.86 347.43L941.31 342.56L939.02 340.59L936.84 341.21L934.65 341.83L932.16 337.79L929.06 338.35L926.26 336.51L920.78 336.68L911.44 343.06L873.91 364.74L873.53 375.56L875.24 393.18L877.05 410.29L872.30 410.49L869.10 408.69L864.87 406.56L864.36 397.15L856.56 395.56L854.39 395.11L852.35 396.34L848.14 396.20L846.02 396.91L840.62 401.70L838.72 398.66L837.00 395.90L833.38 393.44L826.90 388.94L824.91 387.54L822.77 386.30L818.08 383.58L815.25 381.94L811.30 380.61L806.97 379.15L802.86 377.76L799.95 376.81L795.04 369.52L791.65 365.00L789.29 362.95L787.18 361.59L768.89 394.11L717.97 386.01L705.77 400.60L704.38 410.33L705.37 412.62L708.43 411.41L710.48 410.60L714.43 412.20L718.83 419.17L709.32 426.80L701.24 418.45L700.08 411.95L691.72 422.11L680.82 423.13L680.93 426.80L689.29 441.71L692.16 451.14L694.04 462.50L693.37 475.67L701.66 479.02L701.81 482.27L702.50 497.50L699.96 503.42L697.85 510.51L698.96 517.69L695.50 522.93L694.35 533.89L694.09 536.09L692.01 553.80L690.27 567.73L684.71 595.09L683.29 605.96L709.54 608.10L730.61 609.82L735.73 604.68L739.70 602.75L742.41 602.07L744.85 601.06L755.21 596.78L761.80 592.68L767.28 594.15L773.63 595.84L777.24 596.28L786.80 597.46L792.89 598.62L796.85 602.85L802.38 607.91L830.98 587.51L847.49 599.51L845.60 594.96L850.86 575.24L852.36 569.65L852.52 562.40L852.69 555.13L857.05 551.85L867.68 543.87L870.70 538.62L874.51 532.03L880.27 526.25L882.62 523.90L885.50 521.03L887.64 518.90L889.84 516.71L896.26 509.34L897.18 501.31L898.11 493.27L906.22 475.55L909.09 469.29L932.68 463.98L941.37 462.03L949.23 457.06L962.89 448.43L966.25 446.51L982.64 446.94L983.34 446.68L992.75 444.36L995.74 443.59L998.41 442.89L1000.00 442.50Z" data-ward="9" /><path id="ward-17" class="ward" d="M122.28 554.05L113.00 552.89L113.22 560.28L108.05 560.83L105.92 561.39L106.08 566.35L106.47 570.96L105.26 575.10L103.37 578.04L107.39 583.52L113.83 591.79L114.78 597.44L115.22 600.54L117.46 600.60L117.27 604.49L117.92 610.01L123.68 608.86L129.93 607.53L137.83 607.00L138.67 609.68L139.54 612.94L140.60 615.76L143.99 615.31L148.85 615.06L151.28 614.94L151.70 618.15L152.10 623.64L151.62 626.73L152.33 629.51L153.63 632.25L156.21 637.30L160.95 642.46L164.11 643.30L165.03 647.70L165.70 651.24L164.79 653.40L165.80 657.92L166.10 663.51L167.38 670.10L168.40 677.42L170.53 685.12L174.11 690.24L177.31 694.09L179.72 697.73L183.46 703.34L179.31 705.27L177.37 707.47L177.46 710.09L176.06 715.24L178.44 717.82L179.19 725.90L179.68 734.46L179.25 737.32L178.90 739.61L178.70 743.09L182.23 744.11L190.66 746.15L194.48 747.07L198.40 748.24L201.62 749.17L205.38 751.10L207.24 754.16L208.20 759.19L211.55 759.31L217.62 759.52L220.90 759.63L218.91 756.79L213.45 748.99L211.92 746.23L210.22 743.52L207.34 740.49L205.14 739.08L202.93 737.30L198.78 735.27L193.66 732.49L190.38 730.71L189.24 728.99L188.94 727.84L189.02 727.66L189.15 727.39L191.53 723.06L196.97 717.59L200.50 713.65L201.57 710.80L202.12 707.68L202.62 705.68L202.52 702.87L202.42 699.86L201.83 697.48L201.08 694.45L200.41 691.71L199.53 688.65L198.37 684.64L198.37 681.23L198.36 677.42L199.78 675.70L201.64 673.45L203.30 671.43L206.09 668.06L207.91 665.74L209.27 664.01L211.74 659.50L211.15 655.63L210.21 652.32L209.41 649.54L208.87 647.63L208.03 644.71L206.83 640.03L205.50 636.30L200.85 637.10L198.71 625.98L198.26 617.03L198.14 608.51L195.39 602.28L190.73 589.71L188.83 584.59L170.30 566.45L152.61 556.26L142.44 554.23L133.26 554.11L131.31 554.97L128.58 555.03L122.28 554.05Z" data-ward="17" /><path id="ward-5" class="ward" d="M399.92 237.38L390.33 231.60L380.21 224.29L372.09 221.42L362.83 217.23L360.57 220.45L356.01 221.23L351.61 223.29L351.02 226.48L345.10 232.53L335.97 237.69L334.05 237.67L328.14 233.05L318.88 235.88L312.76 237.75L304.70 249.99L308.11 253.44L310.36 255.73L306.72 267.52L298.00 272.95L292.74 276.24L288.64 277.50L284.45 276.75L282.06 275.69L277.64 289.55L275.24 293.78L273.77 296.38L264.73 303.22L261.80 301.19L259.58 299.66L253.67 297.82L250.18 299.09L246.81 301.68L242.35 305.18L238.95 308.66L236.13 311.77L231.64 316.69L227.88 320.00L225.04 325.07L220.22 331.14L218.17 336.33L216.21 340.48L213.17 342.33L216.74 346.98L220.97 351.09L223.23 357.43L229.23 358.40L235.85 357.98L236.44 368.49L238.33 363.69L242.46 358.94L246.69 355.77L251.71 351.37L252.97 348.17L253.74 342.82L254.40 339.58L253.56 334.93L250.78 331.27L248.43 327.57L250.79 325.51L253.41 324.08L257.04 322.94L262.45 321.47L264.79 319.72L266.64 317.88L268.53 315.43L269.99 313.41L274.11 309.61L277.42 306.70L285.80 312.05L290.84 307.21L295.67 301.85L299.61 297.34L301.06 293.90L303.01 289.22L305.63 281.00L306.55 277.35L309.33 272.89L312.37 272.75L318.41 273.08L335.13 274.93L339.49 275.41L327.97 302.85L323.50 316.69L322.42 321.09L319.13 354.95L329.16 354.66L340.43 353.49L345.47 353.10L351.93 354.98L355.47 348.33L363.02 347.57L366.22 347.66L368.39 347.72L370.43 347.78L374.39 348.23L374.73 345.75L375.65 339.10L375.68 332.56L375.23 327.38L372.95 318.36L369.05 308.30L371.34 302.26L376.35 296.27L376.80 291.56L377.57 285.24L378.89 281.35L384.20 273.64L385.54 269.85L388.08 264.82L387.49 257.45L392.49 252.37L398.53 249.49L401.48 249.03L403.54 248.27L405.34 246.26L407.91 243.26L405.59 240.72L399.92 237.38Z" data-ward="5" /><path id="ward-3" class="ward" d="M139.17 267.70L133.85 267.90L127.89 269.17L127.90 276.94L127.94 282.44L121.67 284.93L120.25 286.64L121.65 289.48L123.05 292.33L125.00 299.66L125.27 304.28L121.03 302.37L117.73 301.95L118.63 309.19L123.85 310.46L122.73 316.18L121.81 318.24L118.60 325.44L115.67 329.40L114.49 330.99L112.16 331.65L108.41 332.02L103.99 332.10L98.32 333.28L90.85 334.84L89.55 337.50L87.76 336.34L82.66 337.19L77.92 338.49L78.42 343.04L77.61 345.09L78.14 348.65L80.56 351.56L84.02 352.20L86.12 353.59L89.52 355.32L92.43 356.20L95.11 358.20L96.59 359.70L95.52 361.67L97.34 363.08L97.63 365.41L117.18 361.31L118.48 374.02L119.84 380.37L123.87 381.71L126.07 387.25L128.26 392.78L144.52 389.79L149.65 388.84L157.11 392.38L161.33 392.57L163.41 392.49L170.82 392.19L177.14 391.06L179.81 391.64L184.89 392.75L187.14 392.26L193.71 391.51L193.88 395.59L197.38 397.32L199.90 396.98L202.49 396.96L204.43 396.72L208.83 395.12L203.74 385.20L200.10 379.03L199.35 374.67L198.94 366.04L198.62 362.04L216.90 359.56L223.23 357.43L220.97 351.09L216.74 346.98L213.17 342.33L216.21 340.48L218.17 336.33L220.22 331.14L225.04 325.07L227.88 320.00L231.64 316.69L236.13 311.77L238.95 308.66L242.35 305.18L246.81 301.68L250.18 299.09L253.67 297.82L250.62 286.98L237.46 294.09L232.05 297.01L225.43 303.90L222.62 299.14L219.42 300.74L217.42 301.41L211.97 303.24L212.36 306.21L212.73 309.03L210.71 310.57L205.21 314.65L198.56 319.44L191.30 324.67L187.83 324.72L182.68 324.79L176.19 326.54L171.90 327.70L165.15 324.03L159.92 321.18L155.47 311.88L139.69 294.51L139.96 287.48L144.29 286.59L146.17 283.61L146.21 279.35L147.84 277.95L147.88 275.68L150.48 275.10L150.57 272.93L153.14 268.04L145.04 269.03L139.40 269.83L139.17 267.70Z" data-ward="3" /><path id="ward-18" class="ward" d="M139.54 612.94L138.67 609.68L137.83 607.00L129.93 607.53L123.68 608.86L117.92 610.01L115.45 610.12L114.90 619.03L114.66 623.20L110.87 624.41L107.54 625.26L103.95 629.30L101.13 630.49L95.51 632.87L91.46 632.78L85.17 633.68L79.64 634.25L79.93 628.54L72.54 629.30L65.30 628.96L59.52 629.22L61.02 636.27L60.52 641.40L60.64 643.80L48.56 646.79L41.91 648.26L45.03 658.09L48.39 668.64L51.12 677.23L53.01 686.33L54.60 688.19L58.33 690.02L72.55 691.68L83.62 686.71L87.44 684.92L90.02 684.51L98.78 682.87L111.60 686.65L118.29 692.64L126.81 699.35L129.56 701.95L138.80 710.69L140.76 710.77L152.48 714.31L157.50 715.82L162.11 711.81L168.25 710.77L171.09 711.28L176.06 715.24L177.46 710.09L177.37 707.47L179.31 705.27L183.46 703.34L179.72 697.73L177.31 694.09L174.11 690.24L170.53 685.12L168.40 677.42L167.38 670.10L166.10 663.51L165.80 657.92L164.79 653.40L165.70 651.24L165.03 647.70L164.11 643.30L160.95 642.46L156.21 637.30L153.63 632.25L152.33 629.51L151.62 626.73L152.10 623.64L151.70 618.15L151.28 614.94L148.85 615.06L143.99 615.31L140.60 615.76L139.54 612.94Z" data-ward="18" /><path id="ward-1" class="ward" d="M97.74 399.40L95.12 399.59L92.90 399.41L90.58 400.92L88.31 401.07L85.94 400.99L83.06 400.90L78.04 400.75L73.52 400.29L73.12 405.17L70.53 402.72L68.04 402.82L65.92 402.58L63.72 402.25L61.72 402.99L61.00 405.29L47.60 403.09L41.02 412.28L37.19 417.63L35.90 420.34L33.97 424.42L32.00 429.49L30.63 433.00L29.64 435.54L28.23 439.00L27.16 441.64L25.95 444.61L23.92 449.59L21.41 455.87L20.37 458.49L18.45 463.31L17.33 466.12L13.90 474.72L11.67 480.31L15.54 482.02L17.61 482.77L23.68 484.94L27.65 486.37L30.83 487.51L34.79 488.94L39.20 490.53L41.93 491.43L45.78 492.70L53.03 495.09L65.27 499.48L72.25 502.05L80.88 504.75L87.55 507.16L96.93 510.39L98.74 503.69L99.38 501.43L100.23 496.33L100.61 493.97L100.31 491.24L99.82 487.28L99.44 483.56L100.45 476.24L105.20 476.24L119.21 476.65L126.44 476.79L128.17 475.55L128.04 472.17L126.21 469.06L125.95 465.97L125.49 456.33L123.47 438.65L115.98 417.37L106.28 407.92L97.74 399.40Z" data-ward="1" /><path id="ward-8" class="ward" d="M698.40 110.65L691.16 115.90L681.03 123.25L677.39 137.32L676.48 140.81L679.74 152.79L670.58 164.55L652.10 169.68L636.60 177.07L632.55 179.01L605.38 183.98L603.72 186.03L601.83 188.37L596.48 194.99L586.32 200.12L583.59 202.62L577.10 208.55L571.95 218.40L565.80 228.72L547.34 232.60L526.01 236.54L505.13 244.75L493.49 256.46L496.22 269.93L496.71 282.66L490.82 293.43L490.64 303.37L490.61 318.52L488.36 320.26L477.03 328.98L472.30 333.54L470.77 336.80L466.25 346.40L463.03 347.70L463.48 359.40L463.61 362.53L468.22 370.22L473.56 372.33L478.75 383.71L483.70 394.40L485.81 393.44L489.38 391.70L496.09 388.09L499.17 385.51L503.23 383.19L504.48 385.23L505.92 388.01L509.90 385.89L515.15 383.62L518.09 384.28L520.15 387.02L526.64 395.35L535.22 400.49L543.33 401.93L546.60 405.15L560.51 418.88L571.42 429.14L580.60 439.28L583.58 442.57L587.40 449.57L597.05 453.32L610.23 455.37L618.98 439.24L625.11 435.11L633.77 432.66L635.96 432.04L639.48 431.96L646.67 431.79L652.60 430.32L655.21 426.22L654.82 420.02L660.29 417.23L669.04 414.01L678.57 413.61L678.30 421.15L680.82 423.13L691.72 422.11L700.08 411.95L701.24 418.45L709.32 426.80L718.83 419.17L714.43 412.20L710.48 410.60L708.43 411.41L705.37 412.62L704.38 410.33L705.77 400.60L717.97 386.01L768.89 394.11L787.18 361.59L792.20 352.74L794.68 346.24L788.73 336.56L785.02 330.54L776.80 328.16L775.00 327.27L769.75 324.66L766.38 322.62L760.70 323.00L758.75 325.75L756.55 327.73L754.19 329.72L751.68 331.84L748.34 333.10L744.89 334.40L738.08 337.10L733.60 338.43L730.89 339.22L724.29 340.16L723.71 342.96L720.17 344.94L715.79 345.37L712.53 343.96L706.62 341.40L703.33 339.98L698.85 336.98L690.97 331.71L685.01 327.72L680.34 324.59L674.78 321.54L672.10 320.07L667.13 318.44L664.79 318.18L659.66 317.60L655.68 318.66L645.28 315.02L641.09 313.55L636.29 307.89L631.73 302.53L629.93 296.84L630.70 290.11L632.16 286.84L635.52 279.28L637.62 274.57L634.88 265.94L625.07 254.40L626.67 241.12L634.37 232.12L637.61 228.33L640.37 225.10L643.35 219.63L641.77 210.38L642.26 205.01L648.36 201.72L656.23 205.02L659.93 205.25L664.00 205.84L667.27 205.41L669.55 204.95L671.25 203.72L674.78 200.68L676.48 198.98L679.43 197.89L681.62 197.09L684.71 199.08L691.22 203.25L698.69 209.63L711.73 197.84L715.89 193.16L718.54 190.36L720.58 185.56L721.61 181.60L722.75 178.40L727.38 175.52L732.71 175.72L737.91 177.46L741.48 179.78L743.53 181.10L746.55 184.16L747.96 185.67L750.65 189.25L751.99 191.08L753.49 194.41L754.72 200.14L756.85 202.37L758.48 204.07L763.11 202.92L765.54 199.25L763.52 196.65L761.22 192.93L762.56 187.91L763.79 183.34L765.15 178.71L766.12 176.55L768.34 171.52L771.41 168.16L772.88 165.19L774.35 162.21L774.18 159.06L773.94 154.65L780.02 153.50L784.81 154.19L787.99 154.65L791.42 153.88L796.30 154.48L798.58 154.42L802.66 154.32L808.70 153.36L817.06 152.05L821.36 147.35L824.01 144.80L824.64 142.60L821.64 140.06L814.31 140.59L801.78 141.50L793.80 142.72L786.08 143.90L783.21 144.33L779.54 129.31L772.90 129.39L771.79 117.06L765.92 119.76L763.81 120.67L761.90 121.49L755.09 124.42L748.67 126.46L746.49 130.16L731.77 119.95L722.24 111.58L719.43 111.73L716.39 111.90L712.04 112.14L698.40 110.65Z" data-ward="8" /><path id="ward-7" class="ward" d="M665.57 1.70L662.11 0.74L659.76 0.00L654.40 0.77L652.30 1.08L646.19 2.80L640.87 0.37L641.44 5.44L641.68 7.62L642.16 11.87L642.40 13.96L642.69 16.54L642.72 20.80L644.77 24.08L646.49 33.25L646.94 35.65L642.98 43.04L640.51 46.29L638.33 49.17L636.36 51.76L634.74 56.67L633.68 58.50L634.02 64.43L634.31 69.52L634.49 72.76L634.44 76.23L634.36 85.28L635.27 87.38L636.12 89.35L637.98 93.65L634.84 95.57L631.20 96.39L624.47 97.24L602.79 106.09L599.97 110.49L597.94 113.65L600.32 120.27L602.79 127.13L602.64 132.63L599.17 140.66L598.27 144.02L590.04 147.00L583.56 149.36L579.08 150.98L575.88 152.14L573.11 153.15L568.42 155.97L566.49 157.13L563.81 158.75L563.66 161.94L563.31 169.65L562.08 172.84L561.35 174.72L557.47 178.74L554.98 180.65L550.23 184.30L541.86 183.75L538.35 168.44L544.27 154.47L546.10 149.91L547.25 148.19L549.28 142.97L549.48 140.56L551.59 133.81L549.17 130.20L554.26 123.04L556.65 111.85L559.22 99.84L557.58 94.46L553.38 95.96L544.97 98.97L537.03 101.05L530.40 102.78L515.35 105.97L512.50 106.59L506.50 107.91L501.10 109.08L501.45 112.01L502.43 120.26L503.09 125.90L499.29 128.40L498.13 130.45L499.01 134.76L500.68 138.27L502.70 142.52L504.73 146.76L508.22 147.23L509.17 150.86L508.42 156.01L507.86 159.82L507.48 162.39L506.68 174.04L505.64 179.83L504.09 188.41L503.72 190.44L503.08 194.62L502.60 197.78L501.11 200.06L498.91 203.42L496.32 209.42L495.20 212.25L493.55 215.36L492.51 217.21L492.43 220.04L489.36 228.26L487.27 231.63L484.57 236.00L484.03 240.03L483.50 243.97L481.80 246.28L479.46 249.45L472.31 250.54L470.13 250.55L463.83 250.17L459.11 249.64L454.90 249.17L449.92 247.76L446.99 246.93L444.35 246.91L442.42 246.42L440.18 245.85L437.45 245.16L434.80 244.48L431.73 243.70L425.83 243.45L425.82 249.69L419.52 250.10L416.93 254.47L414.33 268.06L421.02 267.45L423.29 267.77L425.34 269.32L436.54 275.63L441.16 275.28L453.53 277.31L446.06 320.69L438.98 345.18L441.91 351.17L452.87 351.81L463.03 347.70L466.25 346.40L470.77 336.80L472.30 333.54L477.03 328.98L488.36 320.26L490.61 318.52L490.64 303.37L490.82 293.43L496.71 282.66L496.22 269.93L493.49 256.46L505.13 244.75L526.01 236.54L547.34 232.60L565.80 228.72L571.95 218.40L577.10 208.55L583.59 202.62L586.32 200.12L596.48 194.99L601.83 188.37L603.72 186.03L605.38 183.98L632.55 179.01L636.60 177.07L652.10 169.68L670.58 164.55L679.74 152.79L676.48 140.81L677.39 137.32L681.03 123.25L691.16 115.90L698.40 110.65L712.04 112.14L716.39 111.90L719.43 111.73L722.24 111.58L731.77 119.95L746.49 130.16L748.67 126.46L747.81 118.59L746.92 110.42L747.10 94.66L747.28 78.71L748.39 74.54L747.71 66.31L744.64 64.95L739.13 62.53L735.65 58.12L731.57 52.97L730.24 51.27L725.63 45.37L724.09 41.53L724.12 37.04L719.26 37.53L711.58 35.56L702.43 33.20L700.42 32.56L692.14 30.12L690.23 31.73L688.09 33.53L687.03 36.26L685.68 39.75L683.78 43.43L681.79 44.09L679.37 41.36L677.46 39.19L674.07 35.19L671.61 32.09L667.44 26.80L666.01 24.87L665.96 20.03L665.94 17.66L668.26 7.34L665.57 1.70Z" data-ward="7" /><path id="ward-13" class="ward" d="M364.84 437.94L363.88 435.48L360.83 436.77L356.69 438.65L353.71 439.37L351.64 438.48L349.00 438.18L346.89 439.96L344.89 441.85L341.26 442.84L339.19 442.89L338.93 445.41L338.89 448.08L338.48 451.14L338.23 453.61L338.13 456.05L336.56 458.15L337.27 461.98L337.65 464.44L337.48 467.43L337.41 469.42L336.09 470.97L334.08 470.94L331.06 470.90L328.63 471.11L325.01 472.10L322.70 472.66L319.06 472.72L309.33 474.89L305.14 476.17L302.75 476.90L300.69 477.19L298.85 478.79L298.20 483.15L295.76 486.18L293.31 487.63L291.11 488.73L288.20 490.33L283.93 491.56L279.93 492.22L275.84 492.89L272.07 493.51L268.52 493.95L266.54 493.94L261.24 493.60L256.48 493.36L254.01 493.25L249.51 493.02L247.08 492.70L246.33 495.64L245.55 498.30L244.81 501.26L244.32 504.25L243.76 506.87L243.53 509.40L242.77 513.37L242.13 515.96L242.65 519.14L243.32 521.62L242.95 524.82L242.29 527.14L240.81 534.30L237.00 542.56L235.32 546.67L234.04 555.60L232.67 561.11L231.58 565.47L230.44 568.89L229.99 572.07L225.94 573.48L223.34 577.86L221.87 580.62L219.45 585.26L218.85 587.52L224.10 587.28L228.66 588.89L231.24 588.84L234.16 589.72L237.26 592.27L240.62 595.50L244.25 596.92L246.29 596.02L247.96 594.52L248.90 592.46L249.65 589.69L250.08 587.65L250.34 585.27L249.91 582.02L249.11 577.85L248.52 573.77L247.71 569.76L248.38 567.62L250.82 564.91L253.43 564.07L255.48 564.62L258.03 565.32L262.43 566.51L265.71 566.52L268.55 566.52L272.51 564.39L273.84 562.61L275.80 560.00L278.58 556.09L280.17 554.82L282.96 555.09L285.22 557.13L287.15 560.44L288.56 563.07L293.70 567.13L295.56 567.83L297.56 567.13L300.28 566.18L303.40 562.72L304.46 559.76L305.48 556.51L306.08 554.63L306.90 551.21L309.68 548.63L312.84 548.98L314.90 549.52L318.38 550.44L321.00 549.96L323.18 549.55L326.85 548.43L330.52 547.30L337.57 545.14L340.28 543.81L342.98 542.49L347.42 539.93L350.70 538.05L355.82 535.00L358.91 532.28L363.21 528.72L364.92 525.67L367.24 523.46L368.52 521.58L370.06 519.92L372.00 516.35L372.45 512.86L372.49 510.86L372.54 508.86L370.95 506.09L369.19 501.85L367.30 498.26L366.57 496.22L365.84 494.16L365.16 491.25L364.69 489.23L363.82 484.92L363.98 482.06L364.74 478.79L365.88 476.93L367.67 475.52L369.85 475.00L372.65 475.27L374.64 475.83L378.80 477.00L383.08 478.21L392.60 481.51L397.41 483.15L401.14 484.43L406.71 486.29L411.44 485.75L414.21 484.58L417.16 482.76L420.47 479.63L422.15 477.39L422.33 473.45L420.48 470.43L418.15 467.40L416.94 465.82L415.51 463.87L416.87 458.85L407.49 461.40L400.99 461.00L396.68 459.97L392.51 459.07L386.60 458.48L380.22 457.63L363.63 458.02L364.66 455.13L365.23 451.50L365.47 449.38L365.81 447.06L366.00 444.47L365.85 442.47L365.47 439.99L364.84 437.94Z" data-ward="13" /><path id="ward-6" class="ward" d="M452.07 194.51L449.59 186.54L450.61 184.70L451.70 182.35L452.47 180.28L453.87 176.57L453.21 173.57L452.43 170.02L455.02 168.37L465.31 161.81L448.98 139.64L425.16 140.16L426.22 150.16L427.09 158.39L427.76 164.74L428.13 168.21L428.94 173.75L429.92 180.44L429.38 185.50L428.76 191.19L420.32 198.51L414.50 201.54L410.23 200.49L409.16 193.49L402.79 192.75L396.72 192.05L391.64 190.56L385.28 187.64L384.89 187.41L380.72 186.42L369.58 199.29L368.00 209.85L364.88 214.29L362.83 217.23L372.09 221.42L380.21 224.29L390.33 231.60L399.92 237.38L405.59 240.72L407.91 243.26L405.34 246.26L403.54 248.27L401.48 249.03L398.53 249.49L392.49 252.37L387.49 257.45L388.08 264.82L385.54 269.85L384.20 273.64L378.89 281.35L377.57 285.24L376.80 291.56L376.35 296.27L371.34 302.26L369.05 308.30L372.95 318.36L375.23 327.38L375.68 332.56L375.65 339.10L374.73 345.75L374.39 348.23L379.92 350.26L382.34 350.41L384.75 350.72L388.68 350.50L391.73 350.57L395.04 351.41L398.43 350.99L403.05 348.94L405.40 346.92L408.82 343.46L411.84 341.18L414.46 339.38L416.44 338.64L417.62 336.61L418.41 334.21L419.11 331.78L419.82 328.18L420.64 325.51L422.05 323.19L423.23 320.72L424.13 318.25L425.33 314.94L426.02 312.49L426.66 309.49L427.32 306.63L427.72 304.11L428.47 302.12L429.48 300.23L430.94 297.27L432.25 293.54L432.85 291.08L433.52 287.58L433.67 285.45L433.83 282.46L434.03 280.21L434.49 278.22L436.54 275.63L425.34 269.32L423.29 267.77L421.02 267.45L414.33 268.06L416.93 254.47L419.52 250.10L425.82 249.69L425.83 243.45L431.73 243.70L434.80 244.48L437.45 245.16L440.18 245.85L442.42 246.42L444.35 246.91L446.99 246.93L447.43 242.43L448.10 235.50L449.52 231.36L450.90 228.16L451.58 223.15L451.93 218.96L452.09 216.99L453.33 211.02L454.27 206.52L453.66 203.19L452.07 194.51Z" data-ward="6" /><path id="ward-10" class="ward" d="M463.03 347.70L452.87 351.81L441.91 351.17L444.16 355.75L441.69 364.09L440.94 370.82L442.74 378.81L445.09 384.41L443.29 387.41L438.53 391.09L433.40 393.60L428.13 395.03L422.94 395.46L420.58 399.31L419.92 404.26L419.65 409.60L420.86 412.86L420.96 419.37L420.42 428.89L419.67 435.62L413.96 443.62L411.58 450.57L412.11 453.33L412.48 455.27L413.35 457.35L416.87 458.85L418.62 457.73L420.49 456.54L422.74 455.61L426.68 454.00L428.73 453.40L431.53 452.83L435.18 452.08L438.03 451.69L440.20 451.39L446.34 451.12L451.73 450.89L455.17 450.18L458.62 449.47L460.44 447.56L463.57 444.29L466.24 441.49L468.68 438.94L471.27 437.97L475.77 436.29L479.48 435.10L482.16 434.24L485.43 433.19L487.56 432.51L493.04 431.01L492.44 435.87L492.15 438.64L491.90 440.97L491.65 443.40L491.21 448.82L492.05 451.42L492.86 453.93L493.79 456.81L495.76 460.56L496.00 464.43L498.51 466.40L503.83 470.28L507.99 473.20L512.32 476.24L519.62 480.94L522.13 482.55L525.70 484.00L532.22 486.66L536.13 488.26L539.20 489.64L542.47 491.11L546.09 491.12L548.84 490.61L552.74 489.88L560.05 487.49L567.63 491.40L570.77 491.84L575.35 495.84L576.01 504.07L576.84 514.43L577.33 520.65L578.34 524.19L580.71 532.46L587.15 538.97L591.53 543.41L594.74 545.44L599.61 548.51L601.16 550.10L603.65 552.65L607.51 556.60L609.23 559.39L611.40 562.91L619.17 568.25L625.03 570.32L632.43 571.69L639.74 571.63L642.71 572.46L647.21 573.71L660.35 573.59L661.43 578.89L661.62 587.36L664.14 590.86L668.48 596.90L670.52 604.92L683.29 605.96L684.71 595.09L690.27 567.73L692.01 553.80L694.09 536.09L694.35 533.89L695.50 522.93L698.96 517.69L697.85 510.51L699.96 503.42L702.50 497.50L701.81 482.27L701.66 479.02L693.37 475.67L694.04 462.50L692.16 451.14L689.29 441.71L680.93 426.80L680.82 423.13L678.30 421.15L678.57 413.61L669.04 414.01L660.29 417.23L654.82 420.02L655.21 426.22L652.60 430.32L646.67 431.79L639.48 431.96L635.96 432.04L633.77 432.66L625.11 435.11L618.98 439.24L610.23 455.37L597.05 453.32L587.40 449.57L583.58 442.57L580.60 439.28L571.42 429.14L560.51 418.88L546.60 405.15L543.33 401.93L535.22 400.49L526.64 395.35L520.15 387.02L518.09 384.28L515.15 383.62L509.90 385.89L505.92 388.01L504.48 385.23L503.23 383.19L499.17 385.51L496.09 388.09L489.38 391.70L485.81 393.44L483.70 394.40L478.75 383.71L473.56 372.33L468.22 370.22L463.61 362.53L463.48 359.40L463.03 347.70Z" data-ward="10" /><path id="ward-14" class="ward" d="M286.91 323.05L284.91 321.40L284.00 318.20L281.01 316.32L275.17 322.88L269.80 328.06L268.29 332.04L267.35 335.67L265.11 342.75L262.73 348.68L259.78 356.21L258.81 364.80L259.35 370.80L260.44 376.62L259.75 379.61L253.82 383.81L244.64 388.48L238.90 392.73L236.67 393.63L234.91 395.97L233.71 398.12L235.96 403.30L236.46 405.54L235.70 411.04L232.99 410.92L230.71 413.33L230.18 415.64L230.84 418.02L228.43 419.70L225.74 421.71L221.30 422.51L217.81 422.72L213.89 421.71L213.39 418.15L213.30 413.27L212.93 408.73L212.43 402.54L212.06 399.31L211.65 395.37L208.83 395.12L204.43 396.72L202.49 396.96L199.90 396.98L200.79 399.85L201.52 402.86L202.37 407.62L202.81 410.85L203.43 414.78L204.04 417.82L206.21 423.79L206.29 429.21L206.82 431.73L206.80 435.35L213.08 435.30L214.23 438.99L214.56 441.22L212.95 442.73L207.90 448.44L205.57 450.91L203.49 452.86L200.56 454.04L197.02 456.82L198.18 458.55L199.55 460.60L203.26 467.44L206.31 474.13L207.78 475.97L209.62 478.39L211.63 478.75L214.84 476.29L217.09 474.12L222.15 470.80L224.30 475.73L225.12 477.70L226.86 481.96L230.69 488.73L240.92 491.09L247.08 492.70L247.92 489.10L248.93 486.28L249.78 483.68L250.43 481.72L251.21 478.13L251.03 476.06L250.75 472.40L246.22 467.38L242.63 462.53L240.34 459.43L240.06 453.53L238.85 449.20L247.63 442.45L250.08 440.92L252.58 439.55L256.60 437.34L255.98 433.05L259.10 427.14L261.59 423.87L263.23 420.41L263.40 418.23L263.76 413.55L266.76 406.76L270.17 404.08L272.11 399.78L276.90 396.52L278.50 395.05L281.14 392.63L284.68 392.53L286.87 391.35L289.25 390.06L294.47 389.59L300.83 389.80L306.70 390.47L308.97 390.52L312.46 390.41L315.81 389.46L318.11 388.23L317.71 384.48L316.49 376.46L316.18 372.66L315.71 368.29L313.68 364.33L313.93 360.96L318.95 357.08L319.13 354.95L322.42 321.09L313.69 322.06L308.11 323.01L304.85 322.26L301.71 320.35L299.75 321.09L296.42 327.78L286.91 323.05Z" data-ward="14" /><path id="ward-15" class="ward" d="M209.62 478.39L207.78 475.97L206.31 474.13L203.26 467.44L199.55 460.60L198.18 458.55L195.31 460.02L192.99 461.04L189.20 461.15L186.53 461.99L183.74 462.88L180.74 466.89L176.43 473.29L174.93 476.27L173.68 478.75L166.98 479.35L167.96 486.58L157.72 493.22L146.28 499.91L138.03 502.86L130.65 504.76L114.89 508.77L113.23 511.99L112.17 515.74L116.45 516.57L122.29 517.50L142.60 520.38L148.72 521.28L153.83 521.98L156.47 522.34L163.26 521.88L166.13 521.69L172.10 522.13L175.14 522.36L178.92 522.79L180.40 524.79L183.64 527.65L188.52 529.57L193.07 532.24L197.84 535.42L203.33 540.07L207.19 543.50L210.87 545.08L213.47 545.61L218.44 545.75L231.88 545.86L235.32 546.67L237.00 542.56L240.81 534.30L242.29 527.14L242.95 524.82L243.32 521.62L242.65 519.14L242.13 515.96L242.77 513.37L243.53 509.40L243.76 506.87L244.32 504.25L244.81 501.26L245.55 498.30L246.33 495.64L247.08 492.70L240.92 491.09L230.69 488.73L226.86 481.96L225.12 477.70L224.30 475.73L222.15 470.80L217.09 474.12L214.84 476.29L211.63 478.75L209.62 478.39Z" data-ward="15" /><path id="ward-4" class="ward" d="M327.97 302.85L339.49 275.41L335.13 274.93L318.41 273.08L312.37 272.75L309.33 272.89L306.55 277.35L305.63 281.00L303.01 289.22L301.06 293.90L299.61 297.34L295.67 301.85L290.84 307.21L285.80 312.05L277.42 306.70L274.11 309.61L269.99 313.41L268.53 315.43L266.64 317.88L264.79 319.72L262.45 321.47L257.04 322.94L253.41 324.08L250.79 325.51L248.43 327.57L250.78 331.27L253.56 334.93L254.40 339.58L253.74 342.82L252.97 348.17L251.71 351.37L246.69 355.77L242.46 358.94L238.33 363.69L236.44 368.49L235.85 357.98L229.23 358.40L223.23 357.43L216.90 359.56L198.62 362.04L198.94 366.04L199.35 374.67L200.10 379.03L203.74 385.20L208.83 395.12L211.65 395.37L212.06 399.31L212.43 402.54L212.93 408.73L213.30 413.27L213.39 418.15L213.89 421.71L217.81 422.72L221.30 422.51L225.74 421.71L228.43 419.70L230.84 418.02L230.18 415.64L230.71 413.33L232.99 410.92L235.70 411.04L236.46 405.54L235.96 403.30L233.71 398.12L234.91 395.97L236.67 393.63L238.90 392.73L244.64 388.48L253.82 383.81L259.75 379.61L260.44 376.62L259.35 370.80L258.81 364.80L259.78 356.21L262.73 348.68L265.11 342.75L267.35 335.67L268.29 332.04L269.80 328.06L275.17 322.88L281.01 316.32L284.00 318.20L284.91 321.40L286.91 323.05L296.42 327.78L299.75 321.09L301.71 320.35L304.85 322.26L308.11 323.01L313.69 322.06L322.42 321.09L323.50 316.69L327.97 302.85Z" data-ward="4" /><path id="ward-19" class="ward" d="M89.31 558.30L77.62 557.63L79.66 544.41L80.10 535.70L77.90 528.10L75.96 519.62L75.91 514.77L73.44 513.98L70.00 512.86L63.88 509.48L57.78 504.92L53.00 502.37L52.71 505.46L51.47 509.68L49.87 525.69L49.66 528.24L49.45 530.84L48.41 535.54L47.36 539.71L46.44 542.58L45.63 545.08L44.81 547.41L43.76 551.64L42.51 554.36L41.31 558.07L38.42 563.57L42.47 562.57L45.76 561.62L48.71 560.79L53.62 559.93L55.85 559.94L56.86 562.10L55.40 565.39L63.53 568.60L62.08 577.77L59.61 577.01L56.46 576.24L55.93 578.67L56.03 580.87L56.32 584.00L51.96 584.60L51.23 587.46L51.87 590.85L55.16 591.88L57.69 592.38L64.24 593.23L69.03 593.86L67.61 597.22L65.79 601.57L63.24 604.14L58.81 608.61L54.95 612.28L53.43 613.72L51.29 616.31L49.86 618.92L47.48 624.47L42.65 643.18L40.98 645.34L41.91 648.26L48.56 646.79L60.64 643.80L60.52 641.40L61.02 636.27L59.52 629.22L65.30 628.96L72.54 629.30L79.93 628.54L79.64 634.25L85.17 633.68L91.46 632.78L95.51 632.87L101.13 630.49L103.95 629.30L107.54 625.26L110.87 624.41L114.66 623.20L114.90 619.03L115.45 610.12L117.92 610.01L117.27 604.49L117.46 600.60L115.22 600.54L114.78 597.44L113.83 591.79L107.39 583.52L103.37 578.04L105.26 575.10L106.47 570.96L106.08 566.35L105.92 561.39L104.07 560.54L98.64 561.04L93.20 560.62L89.31 558.30Z" data-ward="19" /><path id="ward-11" class="ward" d="M441.91 351.17L438.98 345.18L446.06 320.69L453.53 277.31L441.16 275.28L436.54 275.63L434.49 278.22L434.03 280.21L433.83 282.46L433.67 285.45L433.52 287.58L432.85 291.08L432.25 293.54L430.94 297.27L429.48 300.23L428.47 302.12L427.72 304.11L427.32 306.63L426.66 309.49L426.02 312.49L425.33 314.94L424.13 318.25L423.23 320.72L422.05 323.19L420.64 325.51L419.82 328.18L419.11 331.78L418.41 334.21L417.62 336.61L416.44 338.64L414.46 339.38L411.84 341.18L408.82 343.46L405.40 346.92L403.05 348.94L398.43 350.99L395.04 351.41L391.73 350.57L388.68 350.50L384.75 350.72L382.34 350.41L379.92 350.26L380.18 353.65L380.46 357.70L380.99 361.10L381.94 367.82L382.20 370.70L382.59 375.07L383.98 380.39L384.97 384.99L383.49 387.63L381.29 387.75L379.19 387.86L376.09 388.03L372.41 388.22L369.23 388.39L367.06 388.99L364.93 389.59L361.96 393.32L357.02 398.91L353.10 403.46L348.96 408.79L345.68 412.32L343.52 414.00L340.99 416.17L336.59 417.70L333.60 420.23L328.05 422.88L321.65 422.53L313.55 421.82L306.76 423.92L306.08 425.91L305.91 428.31L305.69 431.62L305.34 439.76L304.41 446.89L304.20 449.00L303.98 451.83L303.87 454.69L304.04 459.50L304.49 461.85L304.90 463.97L305.51 467.61L305.81 469.88L306.07 471.84L305.14 476.17L309.33 474.89L319.06 472.72L322.70 472.66L325.01 472.10L328.63 471.11L331.06 470.90L334.08 470.94L336.09 470.97L337.41 469.42L337.48 467.43L337.65 464.44L337.27 461.98L336.56 458.15L338.13 456.05L338.23 453.61L338.48 451.14L338.89 448.08L338.93 445.41L339.19 442.89L341.26 442.84L344.89 441.85L346.89 439.96L349.00 438.18L351.64 438.48L353.71 439.37L356.69 438.65L360.83 436.77L363.88 435.48L364.84 437.94L365.47 439.99L365.85 442.47L366.00 444.47L365.81 447.06L365.47 449.38L365.23 451.50L364.66 455.13L363.63 458.02L380.22 457.63L386.60 458.48L392.51 459.07L396.68 459.97L400.99 461.00L407.49 461.40L416.87 458.85L413.35 457.35L412.48 455.27L412.11 453.33L411.58 450.57L413.96 443.62L419.67 435.62L420.42 428.89L420.96 419.37L420.86 412.86L419.65 409.60L419.92 404.26L420.58 399.31L422.94 395.46L428.13 395.03L433.40 393.60L438.53 391.09L443.29 387.41L445.09 384.41L442.74 378.81L440.94 370.82L441.69 364.09L444.16 355.75L441.91 351.17Z" data-ward="11" /><path id="ward-12" class="ward" d="M380.18 353.65L379.92 350.26L374.39 348.23L370.43 347.78L368.39 347.72L366.22 347.66L363.02 347.57L355.47 348.33L351.93 354.98L345.47 353.10L340.43 353.49L329.16 354.66L319.13 354.95L318.95 357.08L313.93 360.96L313.68 364.33L315.71 368.29L316.18 372.66L316.49 376.46L317.71 384.48L318.11 388.23L315.81 389.46L312.46 390.41L308.97 390.52L306.70 390.47L300.83 389.80L294.47 389.59L289.25 390.06L286.87 391.35L284.68 392.53L281.14 392.63L278.50 395.05L276.90 396.52L272.11 399.78L270.17 404.08L266.76 406.76L263.76 413.55L263.40 418.23L263.23 420.41L261.59 423.87L259.10 427.14L255.98 433.05L256.60 437.34L252.58 439.55L250.08 440.92L247.63 442.45L238.85 449.20L240.06 453.53L240.34 459.43L242.63 462.53L246.22 467.38L250.75 472.40L251.03 476.06L251.21 478.13L250.43 481.72L249.78 483.68L248.93 486.28L247.92 489.10L247.08 492.70L249.51 493.02L254.01 493.25L256.48 493.36L261.24 493.60L266.54 493.94L268.52 493.95L272.07 493.51L275.84 492.89L279.93 492.22L283.93 491.56L288.20 490.33L291.11 488.73L293.31 487.63L295.76 486.18L298.20 483.15L298.85 478.79L300.69 477.19L302.75 476.90L305.14 476.17L306.07 471.84L305.81 469.88L305.51 467.61L304.90 463.97L304.49 461.85L304.04 459.50L303.87 454.69L303.98 451.83L304.20 449.00L304.41 446.89L305.34 439.76L305.69 431.62L305.91 428.31L306.08 425.91L306.76 423.92L313.55 421.82L321.65 422.53L328.05 422.88L333.60 420.23L336.59 417.70L340.99 416.17L343.52 414.00L345.68 412.32L348.96 408.79L353.10 403.46L357.02 398.91L361.96 393.32L364.93 389.59L367.06 388.99L369.23 388.39L372.41 388.22L376.09 388.03L379.19 387.86L381.29 387.75L383.49 387.63L384.97 384.99L383.98 380.39L382.59 375.07L382.20 370.70L381.94 367.82L380.99 361.10L380.46 357.70L380.18 353.65Z" data-ward="12" /><path id="ward-2" class="ward" d="M117.18 361.31L97.63 365.41L97.91 367.65L98.53 372.54L100.90 372.09L103.33 375.79L104.68 377.84L104.27 379.98L104.72 382.76L104.31 386.30L103.24 390.08L102.51 392.65L98.37 393.14L98.42 395.24L97.74 399.40L106.28 407.92L115.98 417.37L123.47 438.65L125.49 456.33L125.95 465.97L126.21 469.06L128.04 472.17L128.17 475.55L126.44 476.79L119.21 476.65L105.20 476.24L100.45 476.24L99.44 483.56L99.82 487.28L100.31 491.24L100.61 493.97L100.23 496.33L99.38 501.43L98.74 503.69L96.93 510.39L100.56 512.12L112.17 515.74L113.23 511.99L114.89 508.77L130.65 504.76L138.03 502.86L146.28 499.91L157.72 493.22L167.96 486.58L166.98 479.35L173.68 478.75L174.93 476.27L176.43 473.29L180.74 466.89L183.74 462.88L186.53 461.99L189.20 461.15L192.99 461.04L195.31 460.02L198.18 458.55L197.02 456.82L200.56 454.04L203.49 452.86L205.57 450.91L207.90 448.44L212.95 442.73L214.56 441.22L214.23 438.99L213.08 435.30L206.80 435.35L206.82 431.73L206.29 429.21L206.21 423.79L204.04 417.82L203.43 414.78L202.81 410.85L202.37 407.62L201.52 402.86L200.79 399.85L199.90 396.98L197.38 397.32L193.88 395.59L193.71 391.51L187.14 392.26L184.89 392.75L179.81 391.64L177.14 391.06L170.82 392.19L163.41 392.49L161.33 392.57L157.11 392.38L149.65 388.84L144.52 389.79L128.26 392.78L126.07 387.25L123.87 381.71L119.84 380.37L118.48 374.02L117.18 361.31Z" data-ward="2" /><path id="ward-16" class="ward" d="M153.83 521.98L148.72 521.28L142.60 520.38L122.29 517.50L116.45 516.57L112.17 515.74L100.56 512.12L96.93 510.39L87.55 507.16L80.88 504.75L72.25 502.05L65.27 499.48L53.03 495.09L45.78 492.70L41.93 491.43L39.20 490.53L34.79 488.94L34.29 492.70L35.54 494.67L36.41 496.89L40.70 498.21L53.00 502.37L57.78 504.92L63.88 509.48L70.00 512.86L73.44 513.98L75.91 514.77L75.96 519.62L77.90 528.10L80.10 535.70L79.66 544.41L77.62 557.63L89.31 558.30L93.20 560.62L98.64 561.04L104.07 560.54L105.92 561.39L108.05 560.83L113.22 560.28L113.00 552.89L122.28 554.05L128.58 555.03L131.31 554.97L133.26 554.11L142.44 554.23L152.61 556.26L170.30 566.45L188.83 584.59L190.73 589.71L195.39 602.28L198.14 608.51L198.26 617.03L198.71 625.98L200.85 637.10L205.50 636.30L207.18 634.31L208.57 632.67L211.45 629.25L213.07 627.51L214.54 625.93L216.41 623.92L217.93 620.54L219.33 617.45L220.50 614.84L221.19 611.98L222.03 608.50L222.58 606.24L223.19 603.96L223.62 599.84L223.98 596.49L225.33 594.53L226.90 592.25L228.66 588.89L224.10 587.28L218.85 587.52L219.45 585.26L221.87 580.62L223.34 577.86L225.94 573.48L229.99 572.07L230.44 568.89L231.58 565.47L232.67 561.11L234.04 555.60L235.32 546.67L231.88 545.86L218.44 545.75L213.47 545.61L210.87 545.08L207.19 543.50L203.33 540.07L197.84 535.42L193.07 532.24L188.52 529.57L183.64 527.65L180.40 524.79L178.92 522.79L175.14 522.36L172.10 522.13L166.13 521.69L163.26 521.88L156.47 522.34L153.83 521.98Z" data-ward="16" /></svg>