<svg viewBox="0 0 1000.00 1260.49" xmlns="http://www.w3.org/2000/svg"><style>.ward { fill: #e2e8f0; stroke: #fff; stroke-width: 0.5px; } .ward:hover { fill: #cbd5e1; }</style><path id="ward-4" class="ward" d="M442.29 564.22L439.11 557.61L444.14 555.61L450.41 553.30L455.27 551.68L466.63 547.58L478.14 543.41L477.56 538.89L473.52 527.24L471.99 523.06L469.46 516.22L464.53 505.58L460.52 496.88L456.57 489.16L454.77 485.65L451.26 486.74L446.75 488.13L442.79 493.04L435.03 502.64L426.82 507.21L419.42 509.75L415.61 511.05L405.40 514.67L401.82 516.62L398.15 518.63L393.56 521.15L388.70 523.93L383.69 526.81L381.74 533.19L373.80 539.51L368.77 542.59L364.15 545.99L360.83 548.52L355.95 551.46L348.76 554.85L343.15 557.61L337.19 561.04L329.15 563.45L321.82 565.52L319.49 559.47L314.39 560.28L309.21 561.05L305.15 567.21L294.76 569.65L288.98 571.01L278.18 573.23L270.92 574.18L266.32 574.64L267.16 578.25L271.65 595.84L273.37 602.58L277.41 618.37L278.60 623.05L279.59 626.91L281.30 633.64L285.55 645.93L290.95 652.86L295.68 658.93L301.12 665.23L304.50 669.21L306.93 672.19L309.35 675.17L311.80 687.71L312.60 692.84L313.42 696.66L322.32 696.54L329.39 694.55L336.56 690.55L342.07 688.38L351.74 700.49L354.23 704.40L356.95 708.68L359.99 713.44L361.94 716.51L373.96 713.25L380.13 723.20L381.73 727.60L383.46 732.47L385.67 738.71L387.89 744.94L390.11 751.17L393.43 760.52L394.90 764.66L396.54 769.25L399.97 770.68L403.38 772.05L405.33 775.13L408.34 780.39L410.40 783.79L413.23 788.09L416.06 792.39L420.59 804.18L426.94 809.12L434.95 805.81L447.21 801.00L455.55 797.86L465.62 794.08L486.35 785.97L484.73 780.82L481.73 771.29L479.89 765.46L478.79 761.75L473.54 745.20L472.21 741.02L470.89 736.86L466.61 727.64L461.44 717.83L457.46 706.47L454.00 693.45L450.66 682.60L446.49 676.31L440.06 663.98L438.42 660.59L430.92 643.47L413.53 603.80L421.44 601.25L429.36 598.69L434.86 596.41L439.23 589.67L451.03 584.99L445.98 572.98L442.29 564.22Z" data-ward="4" /><path id="ward-6" class="ward" d="M555.07 311.57L558.69 310.00L573.95 303.36L579.76 301.84L589.40 299.97L559.67 241.78L551.65 235.47L546.89 231.72L489.97 186.92L469.77 172.67L460.13 165.87L448.21 157.47L420.23 137.74L401.18 117.52L387.75 103.27L372.62 87.20L368.19 79.82L351.37 51.80L348.08 28.83L347.10 22.00L343.97 0.00L337.06 3.97L331.43 7.20L327.98 9.19L320.68 13.38L317.39 15.12L313.36 17.26L305.02 28.23L304.56 35.82L305.99 40.98L308.00 46.87L311.09 55.93L312.89 61.23L317.43 74.53L320.94 80.23L327.20 90.38L332.01 99.14L334.45 104.50L339.63 115.88L344.57 126.73L346.46 131.69L349.54 142.52L353.69 148.05L355.21 152.73L356.55 156.86L356.69 162.01L356.81 166.26L357.35 172.96L359.33 177.56L361.47 182.54L365.39 194.03L369.82 207.05L374.13 219.70L374.51 232.14L376.94 236.83L379.24 240.34L383.97 247.59L389.95 251.52L393.36 253.75L390.49 258.59L393.87 264.99L395.91 268.86L400.44 277.45L403.06 281.65L407.53 288.85L412.95 303.99L415.24 310.38L430.30 327.64L430.33 319.61L434.28 321.13L440.33 321.76L447.58 318.40L463.05 311.25L467.74 321.14L469.42 324.68L471.31 328.27L475.17 335.61L485.70 352.29L491.58 349.02L495.70 346.72L501.88 345.68L505.58 345.05L506.40 339.58L507.55 331.80L524.25 330.32L535.18 332.52L538.10 327.74L541.72 324.76L544.91 321.46L544.22 316.29L547.83 314.72L551.45 313.15L555.07 311.57Z" data-ward="6" /><path id="ward-1" class="ward" d="M190.65 1051.02L195.12 1049.22L199.58 1047.41L204.68 1044.91L188.25 997.77L178.16 970.88L173.57 959.90L169.62 947.78L163.13 927.84L155.04 901.32L161.94 898.79L167.81 897.35L173.70 895.92L186.90 891.59L184.53 884.46L182.88 879.48L175.57 855.90L176.42 848.50L174.15 842.07L169.99 830.02L165.83 817.97L164.16 813.03L156.76 797.80L155.61 793.54L151.29 777.41L137.98 777.30L135.18 768.25L132.57 759.80L129.41 751.62L121.02 734.91L114.08 729.99L103.81 729.01L97.36 727.11L90.29 714.61L85.07 705.38L81.85 697.63L68.78 688.91L58.70 691.45L50.38 693.54L44.39 695.74L41.19 697.98L37.97 700.05L34.05 702.58L30.17 704.90L25.89 706.38L17.20 709.08L0.00 714.42L12.74 751.01L16.23 772.44L52.04 857.59L140.73 1068.60L190.65 1051.02Z" data-ward="1" /><path id="ward-11" class="ward" d="M957.63 1114.25L952.15 1090.38L949.12 1082.33L940.88 1060.47L934.76 1047.02L920.68 1016.08L913.60 1020.77L895.77 1027.07L870.78 1036.82L871.76 1042.38L861.21 1047.29L840.23 1057.15L816.55 1070.36L824.67 1085.28L827.49 1091.49L833.67 1104.74L837.66 1113.21L830.19 1116.91L826.49 1117.71L818.27 1117.40L829.48 1140.52L840.92 1164.21L843.45 1168.13L855.62 1186.94L862.11 1194.91L870.03 1204.63L872.63 1207.38L881.91 1217.20L892.98 1214.90L894.80 1219.68L899.47 1229.29L901.52 1233.60L904.56 1240.72L910.02 1250.06L916.13 1260.49L933.70 1258.67L945.64 1257.69L950.57 1257.40L960.76 1256.96L975.62 1252.45L990.19 1249.47L994.31 1248.17L1000.00 1236.75L994.83 1233.35L987.80 1225.04L985.27 1220.62L975.74 1203.93L972.77 1194.64L970.13 1186.35L965.37 1176.11L959.34 1153.43L959.39 1125.67L957.63 1114.25Z" data-ward="11" /><path id="ward-8" class="ward" d="M730.90 596.04L728.14 590.82L711.14 564.30L696.82 541.97L671.72 554.61L667.54 556.25L660.18 559.18L656.57 559.75L650.93 560.64L643.44 562.69L641.09 566.12L649.12 592.60L641.58 593.96L632.58 596.21L627.47 597.53L623.38 598.58L613.11 600.65L609.21 594.66L601.77 594.27L594.02 596.32L595.99 601.78L597.38 605.70L598.78 609.62L617.56 662.52L626.30 686.78L633.69 707.28L641.91 728.46L646.20 731.60L651.51 736.74L654.91 740.10L658.29 745.12L663.25 752.95L667.31 760.08L671.22 767.88L673.87 773.67L676.52 779.36L678.60 783.82L682.04 790.28L683.98 795.56L685.94 799.81L687.90 804.06L690.04 807.97L693.45 814.57L696.89 821.14L699.69 826.48L702.36 830.19L704.85 834.39L707.99 837.39L711.79 836.43L718.25 834.78L725.88 832.84L729.95 831.88L735.47 830.35L740.65 827.93L744.28 826.60L748.32 824.74L751.93 823.28L756.66 820.57L762.52 817.25L767.26 814.56L774.01 810.05L770.62 801.50L767.64 795.51L764.58 790.46L760.69 787.86L757.55 781.62L754.65 775.86L752.39 770.82L747.57 759.85L744.13 756.88L734.94 743.52L729.49 736.42L726.73 732.83L722.68 727.76L717.43 722.59L713.10 716.85L711.54 709.63L711.60 697.82L715.07 696.10L720.39 693.46L724.21 690.31L733.51 684.36L738.37 682.61L743.23 680.86L748.58 678.52L766.71 673.54L764.21 665.83L761.55 657.65L758.73 650.37L755.86 643.76L746.04 624.98L730.90 596.04Z" data-ward="8" /><path id="ward-9" class="ward" d="M830.27 834.78L824.12 819.71L816.22 803.65L808.33 785.32L800.84 767.92L797.28 759.54L793.61 750.91L786.65 734.32L780.18 718.89L778.20 712.13L774.16 698.31L770.53 686.02L766.71 673.54L748.58 678.52L743.23 680.86L738.37 682.61L733.51 684.36L724.21 690.31L720.39 693.46L715.07 696.10L711.60 697.82L711.54 709.63L713.10 716.85L717.43 722.59L722.68 727.76L726.73 732.83L729.49 736.42L734.94 743.52L744.13 756.88L747.57 759.85L752.39 770.82L754.65 775.86L757.55 781.62L760.69 787.86L764.58 790.46L767.64 795.51L770.62 801.50L774.01 810.05L767.26 814.56L762.52 817.25L756.66 820.57L751.93 823.28L748.32 824.74L744.28 826.60L740.65 827.93L735.47 830.35L729.95 831.88L725.88 832.84L718.25 834.78L711.79 836.43L707.99 837.39L704.85 834.39L702.36 830.19L699.69 826.48L696.89 821.14L693.45 814.57L690.04 807.97L687.90 804.06L685.94 799.81L683.98 795.56L682.04 790.28L678.60 783.82L676.52 779.36L673.87 773.67L671.22 767.88L667.31 760.08L663.25 752.95L658.29 745.12L654.91 740.10L651.51 736.74L646.20 731.60L641.91 728.46L638.42 730.72L634.81 732.42L631.20 734.11L624.34 737.19L620.19 739.05L616.74 741.32L610.51 744.69L603.02 747.41L595.92 749.99L591.79 751.49L584.32 754.21L589.55 768.83L592.29 775.43L595.95 785.32L601.13 797.74L603.52 803.72L606.87 812.44L610.22 821.16L612.14 826.17L617.52 839.69L623.74 854.67L629.13 867.39L633.66 876.86L635.33 880.59L637.00 884.33L641.21 894.83L647.25 907.24L655.61 924.89L661.89 937.35L670.27 934.13L673.84 932.82L686.58 927.71L693.13 925.18L699.68 922.64L703.15 921.38L714.13 917.05L721.82 914.14L727.21 911.99L736.20 912.07L738.90 917.86L741.67 924.18L745.78 932.43L748.10 938.52L753.73 948.85L759.97 960.51L765.47 958.13L770.20 955.81L775.63 952.91L780.03 951.30L787.76 949.55L796.34 948.56L802.45 945.38L806.31 943.04L809.05 940.34L812.09 937.37L815.01 934.30L819.83 935.27L824.83 936.28L832.50 939.37L840.30 941.39L844.59 940.60L857.54 937.18L865.93 934.14L877.63 930.17L872.50 919.56L865.75 905.58L855.40 884.16L844.48 863.87L841.23 856.75L838.64 852.60L832.40 838.67L830.27 834.78Z" data-ward="9" /><path id="ward-13" class="ward" d="M647.25 907.24L641.21 894.83L637.00 884.33L635.33 880.59L633.66 876.86L629.13 867.39L623.74 854.67L617.52 839.69L612.14 826.17L610.22 821.16L606.87 812.44L603.52 803.72L601.13 797.74L595.95 785.32L592.29 775.43L589.55 768.83L584.32 754.21L580.62 754.44L575.72 754.88L568.05 757.00L550.70 762.12L527.03 768.79L514.05 774.05L495.81 781.73L486.35 785.97L465.62 794.08L455.55 797.86L447.21 801.00L434.95 805.81L426.94 809.12L433.00 823.09L435.28 828.36L438.54 836.48L440.37 841.86L442.20 847.24L444.03 852.62L451.94 863.21L455.39 867.49L462.79 876.46L470.81 892.86L480.85 904.98L490.78 930.69L493.80 938.52L504.92 959.64L523.51 952.59L528.33 950.68L534.86 948.09L540.37 943.26L556.44 935.58L574.07 924.01L578.97 919.47L584.46 917.81L585.96 924.83L589.41 932.43L590.99 937.92L592.42 944.34L596.00 950.77L597.24 955.60L597.05 960.38L597.93 965.73L599.89 968.82L601.76 972.92L603.63 977.02L605.73 984.58L609.24 988.48L614.53 990.22L617.89 994.45L629.90 989.59L641.92 984.74L646.67 982.87L661.92 976.67L673.76 971.62L661.89 937.35L655.61 924.89L647.25 907.24Z" data-ward="13" /><path id="ward-7" class="ward" d="M589.40 299.97L579.76 301.84L573.95 303.36L558.69 310.00L555.07 311.57L551.45 313.15L547.83 314.72L544.22 316.29L544.91 321.46L541.72 324.76L538.10 327.74L535.18 332.52L524.25 330.32L507.55 331.80L506.40 339.58L505.58 345.05L501.88 345.68L495.70 346.72L491.58 349.02L485.70 352.29L475.17 335.61L471.31 328.27L469.42 324.68L467.74 321.14L463.05 311.25L447.58 318.40L440.33 321.76L434.28 321.13L430.33 319.61L430.30 327.64L431.47 343.82L432.80 362.15L442.73 356.51L448.82 353.05L454.77 359.70L457.21 362.77L460.60 364.45L463.99 366.13L466.76 369.05L469.98 375.26L473.93 383.30L475.59 386.69L480.92 397.55L484.85 405.54L489.49 415.00L492.31 418.04L496.48 422.35L502.66 420.81L505.70 425.18L508.11 428.66L510.38 434.31L512.72 441.83L514.31 445.19L514.86 449.23L522.04 461.13L532.13 477.55L539.73 490.92L542.39 496.25L546.01 497.30L550.29 495.60L554.90 494.09L561.34 492.63L563.21 499.41L564.03 503.17L566.19 514.03L567.92 521.00L569.63 528.56L584.49 563.50L590.25 571.18L594.02 596.32L601.77 594.27L609.21 594.66L613.11 600.65L623.38 598.58L627.47 597.53L632.58 596.21L641.58 593.96L649.12 592.60L641.09 566.12L643.44 562.69L650.93 560.64L656.57 559.75L660.18 559.18L667.54 556.25L671.72 554.61L696.82 541.97L673.75 505.99L662.43 480.26L645.13 440.92L619.87 376.72L589.40 299.97Z" data-ward="7" /><path id="ward-14" class="ward" d="M327.34 871.08L320.95 856.20L314.27 858.62L308.26 861.08L302.10 864.96L298.01 867.31L291.14 870.30L284.26 873.29L280.14 874.06L274.08 872.48L265.88 868.98L257.99 867.05L253.65 867.65L248.94 868.44L239.62 870.42L228.75 874.65L220.94 879.73L211.05 885.91L196.21 890.19L186.90 891.59L173.70 895.92L167.81 897.35L161.94 898.79L155.04 901.32L163.13 927.84L169.62 947.78L173.57 959.90L178.16 970.88L188.25 997.77L204.68 1044.91L215.67 1041.81L222.16 1041.87L235.99 1039.12L240.15 1037.82L246.19 1035.94L254.60 1031.78L260.64 1028.72L268.96 1024.51L272.51 1022.36L278.07 1018.99L282.10 1016.83L289.28 1012.99L294.11 1010.51L298.79 1008.37L303.47 1006.24L314.50 1001.73L317.77 1005.19L319.05 1010.37L325.24 1028.86L329.66 1028.12L336.16 1026.64L342.50 1026.00L347.59 1025.75L352.68 1025.51L358.46 1025.57L366.76 1023.19L370.62 1019.08L373.56 1012.26L376.08 1009.04L379.63 1007.12L386.61 1005.59L389.71 1000.82L390.56 992.87L385.58 991.67L383.19 986.78L380.80 981.90L378.30 975.55L376.17 969.66L374.32 962.15L370.96 954.43L363.39 941.41L352.96 925.03L345.66 923.55L343.74 917.83L341.82 912.12L340.41 907.60L334.85 889.40L333.41 885.90L327.34 871.08Z" data-ward="14" /><path id="ward-3" class="ward" d="M312.60 692.84L311.80 687.71L309.35 675.17L306.93 672.19L304.50 669.21L301.12 665.23L295.68 658.93L290.95 652.86L285.55 645.93L281.30 633.64L279.59 626.91L278.60 623.05L277.41 618.37L273.37 602.58L271.65 595.84L267.16 578.25L266.32 574.64L260.86 570.37L256.85 570.29L252.84 570.21L246.19 574.06L237.64 576.44L229.22 577.89L219.52 580.47L222.04 595.49L234.43 632.15L235.59 635.59L237.81 642.18L240.42 648.83L243.66 653.08L247.68 657.65L252.74 674.08L258.40 690.93L261.81 701.15L270.68 727.79L276.68 742.61L279.77 750.21L282.16 757.58L285.68 768.41L291.31 792.94L287.85 794.60L275.67 800.43L266.95 810.76L242.36 821.51L253.65 867.65L257.99 867.05L265.88 868.98L274.08 872.48L280.14 874.06L284.26 873.29L291.14 870.30L298.01 867.31L302.10 864.96L308.26 861.08L314.27 858.62L320.95 856.20L327.34 871.08L333.41 885.90L334.85 889.40L340.41 907.60L341.82 912.12L343.74 917.83L345.66 923.55L352.96 925.03L359.68 920.42L363.29 916.78L364.37 912.75L371.98 907.41L381.86 901.49L385.27 899.47L388.65 898.13L392.47 896.90L396.46 896.36L411.31 894.38L413.79 899.06L417.57 902.28L420.98 905.19L427.74 902.42L431.31 901.23L436.08 899.65L444.55 893.50L443.36 890.00L440.04 879.28L447.52 872.39L451.43 870.28L455.39 867.49L451.94 863.21L444.03 852.62L442.20 847.24L440.37 841.86L438.54 836.48L435.28 828.36L433.00 823.09L426.94 809.12L420.59 804.18L416.06 792.39L413.23 788.09L410.40 783.79L408.34 780.39L405.33 775.13L403.38 772.05L399.97 770.68L396.54 769.25L394.90 764.66L393.43 760.52L390.11 751.17L387.89 744.94L385.67 738.71L383.46 732.47L381.73 727.60L380.13 723.20L373.96 713.25L361.94 716.51L359.99 713.44L356.95 708.68L354.23 704.40L351.74 700.49L342.07 688.38L336.56 690.55L329.39 694.55L322.32 696.54L313.42 696.66L312.60 692.84Z" data-ward="3" /><path id="ward-10" class="ward" d="M753.73 948.85L748.10 938.52L745.78 932.43L741.67 924.18L738.90 917.86L736.20 912.07L727.21 911.99L721.82 914.14L714.13 917.05L703.15 921.38L699.68 922.64L693.13 925.18L686.58 927.71L673.84 932.82L670.27 934.13L661.89 937.35L673.76 971.62L676.30 977.89L681.53 994.27L695.79 1025.08L706.85 1048.06L708.74 1052.37L718.13 1050.00L722.91 1046.06L727.62 1042.16L735.20 1035.89L746.60 1024.77L758.10 1018.55L765.00 1014.82L769.82 1012.22L772.31 1016.42L774.01 1023.60L774.98 1027.72L776.24 1033.01L779.94 1038.40L786.87 1048.49L790.25 1053.42L792.61 1057.55L802.91 1075.56L810.58 1098.75L818.27 1117.40L826.49 1117.71L830.19 1116.91L837.66 1113.21L833.67 1104.74L827.49 1091.49L824.67 1085.28L816.55 1070.36L840.23 1057.15L861.21 1047.29L871.76 1042.38L870.78 1036.82L895.77 1027.07L913.60 1020.77L920.68 1016.08L911.81 996.59L883.68 941.93L877.63 930.17L865.93 934.14L857.54 937.18L844.59 940.60L840.30 941.39L832.50 939.37L824.83 936.28L819.83 935.27L815.01 934.30L812.09 937.37L809.05 940.34L806.31 943.04L802.45 945.38L796.34 948.56L787.76 949.55L780.03 951.30L775.63 952.91L770.20 955.81L765.47 958.13L759.97 960.51L753.73 948.85Z" data-ward="10" /><path id="ward-2" class="ward" d="M196.21 890.19L211.05 885.91L220.94 879.73L228.75 874.65L239.62 870.42L248.94 868.44L253.65 867.65L242.36 821.51L266.95 810.76L275.67 800.43L287.85 794.60L291.31 792.94L285.68 768.41L282.16 757.58L279.77 750.21L276.68 742.61L270.68 727.79L261.81 701.15L258.40 690.93L252.74 674.08L247.68 657.65L243.66 653.08L240.42 648.83L237.81 642.18L235.59 635.59L234.43 632.15L222.04 595.49L212.16 596.66L205.28 597.48L200.02 598.10L195.11 598.77L191.06 599.33L183.95 600.30L179.87 600.86L174.60 601.58L155.25 606.24L158.43 621.79L146.51 625.78L136.90 628.99L131.14 629.80L117.71 631.69L120.57 643.93L115.59 646.06L112.30 648.47L109.00 650.87L110.40 655.39L111.76 661.36L112.69 665.45L114.13 671.76L115.77 680.10L109.58 681.26L99.27 683.22L86.01 685.74L76.93 687.41L68.78 688.91L81.85 697.63L85.07 705.38L90.29 714.61L97.36 727.11L103.81 729.01L114.08 729.99L121.02 734.91L129.41 751.62L132.57 759.80L135.18 768.25L137.98 777.30L151.29 777.41L155.61 793.54L156.76 797.80L164.16 813.03L165.83 817.97L169.99 830.02L174.15 842.07L176.42 848.50L175.57 855.90L182.88 879.48L184.53 884.46L186.90 891.59L196.21 890.19Z" data-ward="2" /><path id="ward-15" class="ward" d="M451.01 1015.95L446.03 1001.06L442.59 989.20L440.62 982.10L422.54 985.98L390.56 992.87L389.71 1000.82L386.61 1005.59L379.63 1007.12L376.08 1009.04L373.56 1012.26L370.62 1019.08L366.76 1023.19L358.46 1025.57L352.68 1025.51L347.59 1025.75L342.50 1026.00L336.16 1026.64L329.66 1028.12L325.24 1028.86L319.05 1010.37L317.77 1005.19L314.50 1001.73L303.47 1006.24L298.79 1008.37L294.11 1010.51L289.28 1012.99L282.10 1016.83L278.07 1018.99L272.51 1022.36L268.96 1024.51L260.64 1028.72L254.60 1031.78L246.19 1035.94L240.15 1037.82L235.99 1039.12L222.16 1041.87L215.67 1041.81L204.68 1044.91L199.58 1047.41L195.12 1049.22L190.65 1051.02L140.73 1068.60L186.71 1182.80L214.06 1167.80L222.04 1163.43L228.47 1159.90L244.40 1139.84L262.26 1134.49L296.75 1124.17L317.68 1110.37L334.93 1098.99L348.08 1088.33L374.42 1076.62L380.71 1073.82L388.47 1072.27L392.28 1071.25L396.39 1069.03L399.70 1067.24L405.55 1063.97L409.06 1062.00L416.68 1058.15L420.45 1056.69L428.68 1053.19L435.67 1050.06L439.59 1048.30L446.14 1046.63L451.59 1045.24L456.30 1044.04L464.20 1042.03L451.01 1015.95Z" data-ward="15" /><path id="ward-12" class="ward" d="M480.85 904.98L470.81 892.86L462.79 876.46L455.39 867.49L451.43 870.28L447.52 872.39L440.04 879.28L443.36 890.00L444.55 893.50L436.08 899.65L431.31 901.23L427.74 902.42L420.98 905.19L417.57 902.28L413.79 899.06L411.31 894.38L396.46 896.36L392.47 896.90L388.65 898.13L385.27 899.47L381.86 901.49L371.98 907.41L364.37 912.75L363.29 916.78L359.68 920.42L352.96 925.03L363.39 941.41L370.96 954.43L374.32 962.15L376.17 969.66L378.30 975.55L380.80 981.90L383.19 986.78L385.58 991.67L390.56 992.87L422.54 985.98L440.62 982.10L442.59 989.20L446.03 1001.06L451.01 1015.95L464.20 1042.03L471.63 1041.57L494.91 1037.36L499.16 1046.16L502.75 1044.94L506.34 1043.72L509.94 1042.49L517.14 1040.05L524.32 1037.60L534.99 1027.98L534.34 1020.51L535.97 1018.21L544.80 1017.88L555.52 1019.74L563.57 1021.13L574.97 1026.65L579.51 1028.84L585.94 1035.47L590.61 1042.32L589.38 1050.75L587.86 1061.21L587.58 1082.86L603.19 1089.82L609.77 1088.47L617.21 1086.94L623.60 1085.63L629.27 1083.23L637.90 1079.59L642.90 1077.49L654.64 1076.33L661.73 1062.81L669.03 1061.42L676.68 1059.97L680.85 1059.18L697.70 1056.44L708.74 1052.37L706.85 1048.06L695.79 1025.08L681.53 994.27L676.30 977.89L673.76 971.62L661.92 976.67L646.67 982.87L641.92 984.74L629.90 989.59L617.89 994.45L614.53 990.22L609.24 988.48L605.73 984.58L603.63 977.02L601.76 972.92L599.89 968.82L597.93 965.73L597.05 960.38L597.24 955.60L596.00 950.77L592.42 944.34L590.99 937.92L589.41 932.43L585.96 924.83L584.46 917.81L578.97 919.47L574.07 924.01L556.44 935.58L540.37 943.26L534.86 948.09L528.33 950.68L523.51 952.59L504.92 959.64L493.80 938.52L490.78 930.69L480.85 904.98Z" data-ward="12" /><path id="ward-5" class="ward" d="M542.39 496.25L539.73 490.92L532.13 477.55L522.04 461.13L514.86 449.23L512.41 453.24L508.48 457.13L505.09 460.93L500.35 464.50L494.48 468.18L490.44 470.72L484.33 472.66L480.78 473.79L475.56 475.30L471.91 477.85L462.92 479.67L454.77 485.65L456.57 489.16L460.52 496.88L464.53 505.58L469.46 516.22L471.99 523.06L473.52 527.24L477.56 538.89L478.14 543.41L466.63 547.58L455.27 551.68L450.41 553.30L444.14 555.61L439.11 557.61L442.29 564.22L445.98 572.98L451.03 584.99L439.23 589.67L434.86 596.41L429.36 598.69L421.44 601.25L413.53 603.80L430.92 643.47L438.42 660.59L440.06 663.98L446.49 676.31L450.66 682.60L454.00 693.45L457.46 706.47L461.44 717.83L466.61 727.64L470.89 736.86L472.21 741.02L473.54 745.20L478.79 761.75L479.89 765.46L481.73 771.29L484.73 780.82L486.35 785.97L495.81 781.73L514.05 774.05L527.03 768.79L550.70 762.12L568.05 757.00L575.72 754.88L580.62 754.44L584.32 754.21L591.79 751.49L595.92 749.99L603.02 747.41L610.51 744.69L616.74 741.32L620.19 739.05L624.34 737.19L631.20 734.11L634.81 732.42L638.42 730.72L641.91 728.46L633.69 707.28L626.30 686.78L617.56 662.52L598.78 609.62L597.38 605.70L595.99 601.78L594.02 596.32L590.25 571.18L584.49 563.50L569.63 528.56L567.92 521.00L566.19 514.03L564.03 503.17L563.21 499.41L561.34 492.63L554.90 494.09L550.29 495.60L546.01 497.30L542.39 496.25Z" data-ward="5" /></svg>