<svg viewBox="0 0 1000.00 997.57" xmlns="http://www.w3.org/2000/svg"><style>.ward { fill: #e2e8f0; stroke: #fff; stroke-width: 0.5px; } .ward:hover { fill: #cbd5e1; }</style><path id="ward-7" class="ward" d="M620.75 477.74L615.91 478.16L595.40 483.41L587.55 484.65L579.44 484.51L568.44 482.53L567.58 484.63L545.63 482.04L540.81 498.39L529.27 497.96L527.58 505.19L527.12 509.71L525.82 523.44L525.69 526.29L528.02 526.14L531.92 525.89L536.56 525.11L542.12 526.51L547.60 527.46L548.46 530.52L549.27 533.70L548.67 539.34L548.36 543.14L546.16 543.47L543.67 544.31L542.55 546.48L538.60 547.25L534.87 547.54L530.57 548.43L525.05 549.48L522.15 549.98L519.44 550.27L516.24 550.54L513.02 549.60L511.36 545.96L508.39 546.16L505.82 546.45L503.86 547.39L501.31 547.20L497.91 546.75L491.10 548.00L479.45 552.20L480.22 554.49L477.79 556.56L471.02 555.81L466.12 556.04L464.39 557.58L461.95 559.27L463.51 572.56L464.66 584.92L465.08 589.40L461.08 599.96L459.31 604.65L456.92 616.18L465.39 617.68L470.25 618.54L472.98 613.45L478.21 613.80L484.53 614.21L491.00 614.64L501.56 615.35L506.35 618.84L511.37 622.50L516.69 626.38L520.63 628.67L527.48 631.24L545.35 631.39L546.09 637.95L564.09 641.65L591.47 645.42L601.10 646.74L638.80 645.86L622.82 640.31L619.98 637.87L618.24 617.06L618.53 604.40L618.73 595.68L614.65 581.97L613.95 579.11L612.71 565.11L618.42 552.94L620.48 548.54L620.71 544.49L621.30 534.37L621.63 523.11L620.18 513.05L619.90 502.58L619.44 485.62L620.75 477.74Z" data-ward="7" /><path id="ward-13" class="ward" d="M179.66 558.28L178.84 549.72L177.41 540.09L174.82 540.62L172.12 541.18L167.71 542.06L165.11 542.59L160.80 543.78L156.49 544.97L149.99 547.15L147.28 548.78L148.17 552.49L149.11 555.15L143.58 557.27L140.46 558.92L138.78 559.88L137.53 558.99L138.02 560.51L138.51 562.04L139.20 564.19L139.89 567.48L140.52 570.51L136.08 572.69L132.41 574.20L136.15 587.22L135.03 589.77L133.66 592.89L132.87 595.50L131.43 598.39L130.49 601.86L128.98 603.49L128.93 606.71L128.88 609.55L131.86 609.56L135.22 610.52L134.78 612.68L134.18 615.69L133.48 619.11L130.84 619.50L128.91 620.91L126.54 622.89L123.89 626.43L121.12 629.07L118.94 631.14L116.85 633.84L115.55 635.59L112.89 639.18L116.80 644.36L119.24 643.62L120.33 647.85L122.71 646.46L123.88 650.64L126.16 654.95L127.91 661.87L129.75 669.19L130.76 673.95L134.29 675.98L137.59 676.31L140.89 676.64L140.69 683.99L155.03 694.11L158.41 697.24L161.75 700.32L162.40 703.37L163.08 706.57L167.01 712.28L166.34 717.17L173.71 714.47L177.20 713.04L179.67 711.98L186.20 709.18L191.33 708.85L191.56 706.10L195.21 702.82L196.60 700.56L196.43 697.75L195.90 694.48L194.36 689.66L192.43 686.93L190.49 681.22L189.04 675.61L188.46 672.50L187.78 668.89L186.96 665.01L186.33 662.03L185.36 658.61L180.05 658.92L175.21 658.58L174.76 655.71L174.86 647.65L175.98 638.54L176.26 636.26L178.82 633.67L179.98 629.97L180.10 624.07L180.65 617.77L180.99 611.35L180.94 608.56L180.64 600.28L180.35 594.48L180.72 590.30L181.85 587.09L183.19 583.21L182.95 578.60L182.83 576.25L180.94 568.30L179.66 558.28Z" data-ward="13" /><path id="ward-16" class="ward" d="M416.94 492.29L430.47 487.50L433.09 486.49L432.20 483.09L427.47 465.08L425.05 455.64L422.21 450.49L419.13 450.42L415.24 450.62L404.63 450.93L401.71 451.09L401.68 455.22L401.66 457.89L401.64 460.44L395.94 461.36L390.24 462.29L386.79 464.46L384.10 465.19L381.94 465.76L381.91 468.52L375.90 470.37L371.95 471.58L365.84 472.82L363.27 473.34L362.23 485.87L362.20 488.36L361.25 493.00L347.57 490.15L347.51 496.62L346.32 500.30L344.15 503.49L341.55 503.03L339.82 510.14L339.55 516.23L340.10 519.59L340.55 526.61L339.11 528.68L335.00 528.84L331.17 528.71L327.99 528.73L325.23 527.93L323.15 528.57L318.62 528.13L315.93 529.81L310.19 529.88L308.15 531.35L304.12 531.04L300.27 531.75L297.09 532.54L293.91 533.44L290.92 533.12L284.55 532.94L281.50 533.32L279.55 532.34L276.82 533.04L273.33 533.70L270.25 534.03L267.86 534.47L265.49 534.74L262.71 535.21L259.86 535.43L257.27 535.99L257.93 538.16L258.58 542.79L259.01 545.98L259.38 549.62L258.46 551.59L254.57 555.54L251.70 558.52L254.47 561.95L256.61 573.99L257.23 577.48L258.96 587.51L260.15 593.42L260.51 599.50L261.06 603.29L265.89 601.95L269.95 601.09L274.45 600.15L275.26 604.77L277.09 613.51L278.52 617.19L279.16 619.79L280.18 626.50L281.05 637.99L280.79 647.06L280.91 653.33L281.84 657.85L277.27 658.62L274.52 659.05L274.68 662.43L274.83 665.81L274.89 675.27L276.81 680.21L279.72 679.16L283.99 676.91L292.09 673.15L301.51 668.60L307.40 665.92L311.99 663.98L312.89 661.85L312.35 659.37L312.14 656.96L315.47 655.80L319.35 654.37L326.60 652.33L333.26 650.11L340.05 648.42L345.05 647.17L350.09 646.70L356.35 647.68L361.15 648.78L366.87 649.81L370.96 650.32L372.91 648.62L373.14 645.71L374.15 642.44L377.10 642.18L380.00 642.41L384.15 642.80L388.62 643.59L389.59 640.49L389.54 636.78L390.04 634.36L392.12 633.28L394.38 631.84L395.34 629.86L394.80 627.70L395.11 625.37L396.32 620.74L396.73 616.04L395.95 612.59L395.41 607.57L395.27 603.35L394.83 599.24L394.49 594.70L394.37 592.52L394.13 587.21L394.18 581.83L395.55 579.88L397.38 578.63L399.14 576.61L398.83 574.30L397.79 570.67L396.61 565.36L395.85 561.77L395.39 559.06L394.54 555.67L394.19 552.84L394.28 549.92L394.14 546.74L393.84 544.55L392.48 540.60L392.05 537.84L391.95 534.96L391.53 531.93L390.49 529.85L389.50 527.45L388.54 523.08L388.09 520.07L388.11 516.16L389.54 511.68L393.90 510.63L396.91 510.01L399.13 509.16L399.13 506.89L398.27 504.50L397.03 501.95L396.63 499.66L404.27 496.74L406.46 495.90L410.60 494.48L416.94 492.29Z" data-ward="16" /><path id="ward-3" class="ward" d="M786.40 224.56L783.78 220.93L782.24 218.79L781.85 214.37L779.10 213.77L775.45 212.98L775.11 209.66L777.79 207.79L778.01 203.62L778.57 200.40L780.57 199.09L782.81 197.62L785.22 197.27L784.96 190.99L784.55 181.24L785.19 170.30L781.01 169.41L778.78 168.55L776.27 167.51L774.09 166.47L768.03 163.04L765.68 161.49L763.33 159.42L761.50 158.03L760.56 160.48L759.85 162.56L758.85 165.93L758.46 168.17L758.42 170.74L758.51 175.07L758.70 177.70L758.76 179.95L758.97 184.32L757.33 186.23L755.90 188.55L753.99 191.39L751.84 195.28L750.75 197.25L748.16 202.23L745.66 206.74L744.11 208.49L742.74 210.18L738.83 211.08L735.56 212.71L733.08 213.89L727.93 216.08L725.85 216.81L721.02 218.51L717.33 219.37L715.15 219.88L712.83 220.43L708.92 221.13L703.98 221.56L701.30 222.44L698.46 223.21L694.86 223.91L689.13 224.90L684.87 225.68L682.49 224.02L682.16 221.83L681.23 216.16L680.79 213.35L680.42 210.72L679.07 206.88L677.09 205.31L676.15 202.31L675.71 199.90L674.81 197.91L674.62 194.60L674.37 192.41L674.12 190.19L674.12 186.70L673.66 182.83L672.97 180.03L671.71 176.26L669.80 174.86L666.52 175.13L664.36 175.55L659.84 176.27L657.56 176.60L655.00 177.04L652.59 177.31L649.12 177.48L644.71 178.42L640.70 179.09L636.49 179.44L632.99 179.68L630.21 179.26L627.06 178.47L624.76 178.74L620.39 180.54L617.94 181.73L614.69 183.02L611.66 183.09L608.69 182.97L606.15 184.18L605.51 186.25L604.46 190.41L603.39 194.38L602.27 200.71L601.94 202.94L601.66 205.42L600.74 207.55L599.81 209.56L598.63 212.56L598.85 216.49L599.21 219.29L600.35 222.88L602.32 228.55L603.13 231.38L603.87 236.46L604.08 239.74L604.18 245.66L606.41 253.67L608.91 254.48L612.72 254.95L617.93 255.86L624.47 258.41L630.46 261.75L634.68 264.72L638.79 268.64L642.08 272.18L643.88 274.14L648.49 279.15L651.40 282.07L654.10 284.71L658.01 288.26L661.10 291.31L663.83 294.50L665.13 296.46L665.36 298.72L665.64 301.40L665.57 304.99L672.47 304.21L677.76 307.81L685.17 313.02L693.35 319.58L699.35 327.07L705.05 333.27L718.05 343.37L724.09 346.84L732.09 319.05L739.72 323.13L750.43 328.28L762.02 332.77L775.09 328.99L788.56 328.73L801.83 329.06L801.00 316.42L800.83 313.77L799.71 302.30L800.66 295.29L800.99 292.89L800.21 286.23L799.97 283.55L798.88 276.86L799.37 272.74L799.55 267.45L800.78 263.22L802.10 256.80L805.44 253.63L804.26 245.74L803.98 243.25L802.42 239.80L800.97 237.74L797.51 229.24L792.61 227.50L788.68 226.11L786.40 224.56Z" data-ward="3" /><path id="ward-9" class="ward" d="M451.40 622.80L452.87 618.56L454.89 617.37L456.92 616.18L459.31 604.65L461.08 599.96L465.08 589.40L464.66 584.92L463.51 572.56L461.95 559.27L459.37 556.08L451.95 546.50L449.98 542.27L448.47 539.04L447.11 536.11L442.68 526.60L441.84 521.40L441.47 519.18L440.26 508.17L435.85 497.01L433.09 486.49L430.47 487.50L416.94 492.29L410.60 494.48L406.46 495.90L404.27 496.74L396.63 499.66L397.03 501.95L398.27 504.50L399.13 506.89L399.13 509.16L396.91 510.01L393.90 510.63L389.54 511.68L388.11 516.16L388.09 520.07L388.54 523.08L389.50 527.45L390.49 529.85L391.53 531.93L391.95 534.96L392.05 537.84L392.48 540.60L393.84 544.55L394.14 546.74L394.28 549.92L394.19 552.84L394.54 555.67L395.39 559.06L395.85 561.77L396.61 565.36L397.79 570.67L398.83 574.30L399.14 576.61L397.38 578.63L395.55 579.88L394.18 581.83L394.13 587.21L394.37 592.52L394.49 594.70L394.83 599.24L395.27 603.35L395.41 607.57L395.95 612.59L396.73 616.04L396.32 620.74L395.11 625.37L394.80 627.70L395.34 629.86L394.38 631.84L392.12 633.28L390.04 634.36L389.54 636.78L389.59 640.49L388.62 643.59L384.15 642.80L380.00 642.41L377.10 642.18L374.15 642.44L373.14 645.71L372.91 648.62L370.96 650.32L366.87 649.81L361.15 648.78L356.35 647.68L350.09 646.70L345.05 647.17L340.05 648.42L333.26 650.11L326.60 652.33L319.35 654.37L315.47 655.80L312.14 656.96L312.35 659.37L312.89 661.85L311.99 663.98L307.40 665.92L301.51 668.60L292.09 673.15L283.99 676.91L279.72 679.16L276.81 680.21L274.94 682.89L274.59 685.28L274.25 688.06L273.30 692.50L272.81 695.58L272.31 698.63L271.61 702.59L271.09 705.25L271.93 709.88L272.49 713.70L271.74 715.79L269.98 718.93L268.30 722.67L267.24 727.62L266.53 731.67L266.63 735.71L266.69 738.45L266.77 744.14L283.10 743.23L301.08 742.38L310.62 742.00L317.80 741.55L321.42 740.80L320.77 736.60L320.05 731.48L319.49 726.07L319.35 718.66L324.45 716.68L329.38 713.82L332.50 712.55L335.75 712.37L342.54 713.17L344.84 713.19L344.98 710.16L343.93 707.63L343.15 705.59L343.04 702.76L343.30 698.21L342.88 693.32L342.13 688.19L341.21 685.45L340.91 683.03L340.63 677.51L344.17 677.32L349.44 677.69L352.00 677.87L354.62 677.63L358.24 677.31L362.59 677.18L364.84 677.76L367.43 678.91L369.66 679.45L372.90 680.84L376.33 682.98L379.58 683.16L382.87 683.54L387.31 682.93L389.19 681.66L391.86 680.79L394.83 679.58L397.83 678.70L400.65 678.80L404.03 677.00L406.22 676.31L411.48 675.40L416.58 674.62L420.41 671.69L420.72 668.40L421.16 662.20L421.00 655.95L420.93 653.27L422.24 649.35L423.21 646.42L424.22 644.06L425.55 640.94L426.27 637.66L427.62 634.03L428.09 631.12L435.73 628.35L439.11 628.27L441.88 628.20L446.29 627.75L449.64 627.86L451.40 622.80Z" data-ward="9" /><path id="ward-11" class="ward" d="M247.62 775.00L222.16 773.06L211.42 773.20L203.11 775.38L194.11 777.65L190.70 785.76L186.94 786.16L188.48 790.04L181.84 796.99L170.28 808.97L164.56 816.58L148.72 837.55L146.37 841.79L140.72 851.97L139.97 855.53L139.08 859.71L138.88 870.70L139.38 880.60L140.22 883.42L142.30 891.81L149.93 895.33L152.62 897.00L155.01 898.40L157.91 899.78L159.30 902.28L159.35 905.74L159.84 908.56L166.76 909.49L171.78 909.96L181.16 911.49L180.66 913.66L180.72 926.03L182.33 943.25L178.08 945.49L171.49 948.97L173.55 955.00L175.68 957.07L178.76 964.50L179.91 967.28L182.22 986.15L186.24 986.33L190.21 988.26L193.39 989.80L200.17 987.89L204.87 990.68L208.81 992.65L211.11 993.80L221.92 990.03L224.17 984.06L223.18 977.18L221.20 963.50L222.31 954.66L222.76 951.05L225.26 946.99L226.66 944.70L229.11 940.07L232.91 932.90L235.06 928.83L237.51 929.76L240.58 930.91L244.37 932.34L244.19 924.17L244.12 920.93L244.05 917.82L245.15 912.69L243.60 909.58L243.45 904.56L240.74 904.69L239.75 901.41L241.56 897.06L242.64 894.40L244.55 893.19L245.99 881.87L246.65 876.75L247.08 873.33L247.40 870.84L248.49 865.49L249.00 861.74L250.21 856.83L250.84 854.24L252.33 852.27L254.28 849.68L255.50 846.13L257.14 841.33L259.16 835.42L258.48 831.12L257.86 827.13L257.00 821.67L256.12 816.05L255.77 813.84L255.13 809.79L256.57 806.16L256.89 802.86L257.40 800.27L257.19 796.10L257.10 790.02L256.77 785.71L256.78 783.26L255.73 776.49L252.63 775.83L250.47 775.84L247.62 775.00Z" data-ward="11" /><path id="ward-1" class="ward" d="M721.55 34.11L719.36 30.63L717.36 27.47L715.26 24.14L714.05 22.23L709.77 15.45L707.95 11.55L706.08 10.04L702.52 7.18L700.59 6.19L698.57 5.15L696.64 4.16L694.37 2.99L691.81 1.68L689.14 1.25L685.89 0.73L681.30 0.00L677.60 2.37L674.84 4.15L670.11 7.63L668.12 9.10L664.41 10.90L660.29 11.10L657.34 11.44L655.87 13.99L655.78 18.84L656.04 21.78L656.28 24.55L655.36 29.89L653.29 32.07L651.14 34.33L648.72 35.05L646.96 33.48L644.95 29.49L643.82 27.04L642.86 24.94L639.09 20.88L635.44 18.95L631.27 20.60L627.89 23.27L625.43 27.46L625.09 30.48L624.73 33.85L623.89 36.19L623.11 38.39L622.19 43.19L625.74 45.24L627.70 46.37L630.41 49.52L632.67 52.13L634.17 55.28L634.76 56.14L635.67 62.01L631.84 66.46L628.14 70.75L623.05 75.84L620.51 79.68L619.20 81.68L616.85 86.21L615.00 89.01L613.48 91.33L610.43 94.90L607.32 97.29L604.21 99.68L596.10 99.48L593.65 98.32L591.50 97.29L587.90 94.79L587.23 90.67L586.69 87.37L586.24 84.55L586.19 78.33L587.48 72.12L588.15 68.93L588.60 66.63L589.95 62.54L587.97 61.05L585.73 59.36L582.70 58.61L580.42 58.05L576.18 56.90L573.78 56.26L571.54 55.65L569.36 55.06L565.04 53.90L560.98 52.81L559.37 53.38L558.14 56.51L555.32 60.19L551.54 59.20L549.82 61.46L547.73 64.22L545.57 67.07L543.60 66.08L540.52 64.52L537.58 63.03L535.50 61.98L531.28 59.85L527.48 58.06L524.53 56.68L521.24 55.14L517.59 53.12L514.90 51.63L511.71 51.06L507.05 50.23L503.36 49.57L499.57 48.44L495.27 46.88L492.41 45.52L488.89 43.85L486.71 42.75L484.60 41.69L481.87 40.33L479.42 39.10L477.27 38.02L474.74 36.76L471.74 35.26L468.90 34.66L466.70 34.20L463.61 35.26L461.54 35.97L458.50 37.01L454.20 38.49L450.92 41.77L448.65 44.05L445.34 43.80L443.02 43.63L439.62 41.93L436.23 40.24L432.84 38.55L430.62 42.36L427.78 47.24L426.27 49.29L421.07 56.34L419.34 59.14L416.32 64.02L414.97 66.21L412.93 71.37L411.97 73.78L410.96 76.32L410.56 80.70L410.28 83.78L409.84 88.55L409.43 92.98L409.41 95.65L409.39 98.98L409.37 102.09L409.68 105.36L410.12 110.07L410.46 113.67L410.05 118.31L409.61 123.15L408.85 127.89L408.20 131.93L407.73 134.86L407.34 137.30L406.17 139.52L405.08 141.60L403.96 143.72L402.80 145.94L398.49 147.71L395.91 148.77L391.74 150.36L388.88 151.46L386.57 153.19L386.45 154.30L388.61 155.58L394.30 157.75L401.57 158.55L408.49 159.03L413.20 158.69L423.16 158.70L427.53 160.17L429.63 161.46L434.81 161.24L439.37 161.88L440.97 164.27L443.27 165.97L445.90 166.38L451.29 166.74L460.03 167.38L468.67 167.96L475.76 167.57L482.66 167.07L488.87 165.93L494.75 164.48L497.45 161.68L498.94 158.73L502.39 156.47L506.88 154.91L513.28 154.13L518.84 153.94L522.19 154.22L525.11 153.87L530.27 152.03L534.38 151.17L539.13 149.62L543.93 147.97L549.74 146.61L550.05 143.93L551.46 137.56L554.66 133.86L558.81 131.98L562.33 129.11L566.51 125.04L571.02 119.20L577.05 118.62L584.96 118.41L594.97 119.10L602.82 120.17L612.91 120.25L623.29 120.49L632.62 120.29L638.35 120.19L637.17 114.60L636.28 109.83L637.29 102.68L638.45 99.73L641.41 99.76L646.92 100.77L649.21 101.18L658.26 102.45L661.37 101.98L664.31 97.54L670.13 89.75L673.31 85.82L677.18 85.94L680.52 85.97L683.75 86.35L686.05 87.07L689.77 87.11L691.81 86.10L694.16 87.00L696.45 86.38L697.95 84.43L700.93 84.68L703.21 86.04L705.42 86.54L712.31 87.14L713.34 85.06L716.80 75.16L745.84 58.12L752.03 54.69L754.06 52.33L753.60 48.33L753.29 45.62L750.82 43.38L748.33 41.13L745.58 41.48L743.01 41.82L735.06 42.86L731.41 41.81L727.77 40.76L725.51 38.34L723.33 36.00L721.55 34.11Z" data-ward="1" /><path id="ward-2" class="ward" d="M771.29 67.32L769.26 66.39L767.69 64.19L766.35 62.33L765.52 60.10L764.73 57.99L763.91 55.78L761.24 54.20L758.89 53.58L756.74 53.03L754.06 52.33L752.03 54.69L745.84 58.12L716.80 75.16L713.34 85.06L712.31 87.14L705.42 86.54L703.21 86.04L700.93 84.68L697.95 84.43L696.45 86.38L694.16 87.00L691.81 86.10L689.77 87.11L686.05 87.07L683.75 86.35L680.52 85.97L677.18 85.94L673.31 85.82L670.13 89.75L664.31 97.54L661.37 101.98L658.26 102.45L649.21 101.18L646.92 100.77L641.41 99.76L638.45 99.73L637.29 102.68L636.28 109.83L637.17 114.60L638.35 120.19L639.57 124.92L639.38 127.54L638.43 131.49L637.73 135.09L637.80 138.64L638.41 143.71L638.57 147.24L636.44 149.69L632.36 154.73L627.26 161.42L625.91 163.49L624.92 165.89L624.39 168.06L624.30 170.23L624.48 172.97L624.76 178.74L627.06 178.47L630.21 179.26L632.99 179.68L636.49 179.44L640.70 179.09L644.71 178.42L649.12 177.48L652.59 177.31L655.00 177.04L657.56 176.60L659.84 176.27L664.36 175.55L666.52 175.13L669.80 174.86L671.71 176.26L672.97 180.03L673.66 182.83L674.12 186.70L674.12 190.19L674.37 192.41L674.62 194.60L674.81 197.91L675.71 199.90L676.15 202.31L677.09 205.31L679.07 206.88L680.42 210.72L680.79 213.35L681.23 216.16L682.16 221.83L682.49 224.02L684.87 225.68L689.13 224.90L694.86 223.91L698.46 223.21L701.30 222.44L703.98 221.56L708.92 221.13L712.83 220.43L715.15 219.88L717.33 219.37L721.02 218.51L725.85 216.81L727.93 216.08L733.08 213.89L735.56 212.71L738.83 211.08L742.74 210.18L744.11 208.49L745.66 206.74L748.16 202.23L750.75 197.25L751.84 195.28L753.99 191.39L755.90 188.55L757.33 186.23L758.97 184.32L758.76 179.95L758.70 177.70L758.51 175.07L758.42 170.74L758.46 168.17L758.85 165.93L759.85 162.56L760.56 160.48L761.50 158.03L763.33 159.42L765.68 161.49L768.03 163.04L774.09 166.47L776.27 167.51L778.78 168.55L781.01 169.41L785.19 170.30L785.72 165.81L785.98 163.63L786.14 159.53L786.25 157.07L786.34 154.77L786.43 152.59L786.61 148.32L786.71 145.67L786.82 143.03L786.96 139.47L787.06 136.90L787.35 129.34L789.18 125.74L790.43 123.27L791.69 120.77L792.97 118.24L794.23 115.75L796.01 112.11L797.22 109.64L798.21 107.61L799.44 105.10L801.07 101.76L800.89 99.37L800.70 96.94L800.42 93.26L799.76 90.58L799.04 87.62L798.30 84.62L797.77 82.46L796.99 80.37L793.68 78.14L791.02 76.35L792.10 72.69L792.77 70.42L793.27 63.51L790.77 63.14L786.41 62.48L784.24 62.15L781.99 62.94L779.61 63.78L777.43 64.55L775.42 66.33L773.28 68.22L771.29 67.32Z" data-ward="2" /><path id="ward-4" class="ward" d="M780.03 477.14L779.93 479.63L779.83 482.12L779.47 485.56L779.22 489.33L779.05 493.55L778.19 497.51L777.07 502.15L776.35 505.81L774.88 513.01L772.42 524.79L770.33 532.80L769.72 534.89L769.40 536.44L768.60 538.91L766.68 543.79L764.83 548.49L761.67 547.31L759.88 546.17L759.18 544.18L752.23 546.55L748.37 540.73L741.48 540.64L732.34 544.46L731.50 545.39L726.26 545.59L726.04 548.53L726.67 550.95L727.22 555.19L728.54 559.86L730.72 560.37L741.70 562.12L741.89 561.25L745.93 559.38L746.58 556.80L751.95 552.07L753.65 551.18L752.51 547.11L758.91 544.82L759.65 546.62L764.89 549.18L765.92 549.53L768.59 542.20L769.47 539.39L770.50 536.10L770.92 534.52L772.14 528.89L773.37 523.62L774.05 521.13L774.89 517.49L775.20 515.58L775.91 512.79L776.56 510.20L777.51 506.49L778.22 503.68L778.71 500.53L779.17 498.15L779.65 494.29L780.28 489.70L780.39 487.03L780.53 479.77L780.78 477.03L780.82 477.00L788.45 475.65L794.05 475.03L811.62 473.42L823.15 476.83L826.47 477.85L835.74 480.72L842.65 482.86L845.27 483.67L850.75 485.34L856.33 481.43L860.51 484.32L864.42 487.02L867.44 489.11L872.68 490.66L877.56 489.33L894.23 484.81L910.78 480.32L916.76 478.70L920.11 472.91L924.29 472.58L935.93 471.28L941.35 472.09L944.22 473.70L947.41 473.59L950.84 474.47L951.84 476.24L951.84 474.83L951.84 473.42L952.01 470.84L952.18 467.55L952.38 463.74L952.92 453.73L953.03 451.55L953.22 448.01L953.94 439.80L954.16 437.23L954.60 435.03L955.32 431.43L956.92 428.55L958.93 425.94L963.36 421.20L964.42 419.26L965.63 417.06L967.27 414.05L968.65 412.11L969.36 407.77L971.21 405.63L972.88 400.60L975.35 396.19L977.75 389.13L980.77 384.01L983.15 381.64L985.33 379.47L986.74 375.97L987.93 373.44L989.15 370.83L992.03 364.64L992.97 361.92L994.12 356.16L995.07 352.59L997.09 344.99L998.67 339.25L1000.00 331.74L992.58 324.47L991.27 316.75L980.55 317.26L978.12 317.68L973.76 318.28L968.19 319.45L964.46 320.23L957.45 321.70L950.84 323.00L943.12 324.41L938.74 324.81L925.77 325.68L906.45 326.31L895.39 328.28L879.76 332.19L870.35 333.67L865.78 335.63L854.23 340.58L846.68 343.27L842.53 343.71L838.63 345.74L836.02 347.09L833.94 348.41L826.78 352.57L823.67 354.38L814.84 353.11L805.87 351.82L802.78 351.92L801.58 351.04L801.39 346.97L801.59 338.95L801.74 332.92L801.83 329.06L788.56 328.73L775.09 328.99L762.02 332.77L750.43 328.28L739.72 323.13L732.09 319.05L724.09 346.84L718.94 381.66L716.23 441.88L715.62 455.30L713.01 456.50L712.70 472.12L712.63 476.03L717.05 476.38L719.81 476.60L725.37 475.45L726.45 473.49L728.80 473.43L731.97 473.33L737.42 472.57L737.90 477.55L737.17 482.38L736.47 486.96L735.58 489.49L734.37 492.93L735.89 497.75L740.49 498.65L743.37 493.90L744.46 491.59L748.00 491.69L751.93 491.80L754.39 491.60L757.86 491.30L762.11 490.00L764.72 489.56L766.78 486.94L767.51 484.18L768.13 480.85L770.96 480.09L774.05 478.69L774.86 476.23L777.19 476.64L780.03 477.14Z" data-ward="4" /><path id="ward-14" class="ward" d="M362.20 488.36L362.23 485.87L363.27 473.34L365.84 472.82L371.95 471.58L375.90 470.37L381.91 468.52L381.94 465.76L375.72 465.08L370.73 464.45L360.08 463.36L357.15 463.06L354.74 462.81L350.86 462.42L348.38 461.73L344.54 460.66L341.62 459.85L336.57 458.45L333.67 457.64L330.78 456.83L327.86 456.02L324.97 455.22L326.14 452.16L322.24 450.45L319.59 449.28L315.71 447.58L312.59 446.22L307.11 443.82L301.09 441.18L297.36 439.54L298.47 436.43L299.25 434.27L299.99 432.20L299.41 431.06L293.51 430.26L290.86 430.31L287.03 430.39L281.46 430.51L277.41 430.60L269.09 430.78L266.27 430.84L263.49 430.90L259.97 431.17L257.21 431.39L254.27 431.62L251.26 431.86L249.00 432.04L246.17 432.26L243.65 432.46L241.20 432.65L238.42 432.87L235.74 433.08L232.97 433.30L230.78 433.47L227.71 433.88L225.13 434.22L222.18 434.60L219.51 434.95L216.81 435.31L213.66 435.72L211.07 436.06L208.37 436.42L205.95 436.74L203.32 437.08L200.58 437.44L194.92 438.18L191.69 438.34L189.50 438.45L186.97 438.58L184.73 438.69L182.21 438.81L179.39 438.95L177.11 439.06L172.62 439.28L166.24 439.60L162.47 439.78L160.21 439.89L161.08 446.09L161.65 450.18L161.95 453.27L162.19 455.72L159.59 462.44L150.25 465.87L146.90 468.39L144.25 470.63L142.20 472.28L140.11 474.61L141.02 478.88L141.80 481.78L142.39 484.01L143.00 488.41L141.32 495.71L139.86 498.98L138.42 502.35L137.22 505.15L136.99 507.81L137.75 510.43L137.26 512.84L133.81 514.44L131.91 515.98L130.65 518.63L125.47 521.48L122.48 525.56L121.74 528.30L125.82 532.53L129.54 536.38L131.36 541.52L132.29 544.15L133.22 546.67L135.28 552.30L136.11 554.54L137.53 558.99L138.78 559.88L140.46 558.92L143.58 557.27L149.11 555.15L148.17 552.49L147.28 548.78L149.99 547.15L156.49 544.97L160.80 543.78L165.11 542.59L167.71 542.06L172.12 541.18L174.82 540.62L177.41 540.09L178.84 549.72L179.66 558.28L180.94 568.30L182.83 576.25L182.95 578.60L183.19 583.21L181.85 587.09L180.72 590.30L180.35 594.48L180.64 600.28L180.94 608.56L189.33 608.65L193.44 608.94L198.61 609.31L202.67 609.48L205.66 610.00L210.13 609.79L216.09 608.31L218.21 607.77L219.27 618.06L221.55 624.75L224.17 624.47L226.98 624.41L228.98 619.77L230.09 617.16L234.00 614.30L245.37 608.99L248.41 607.88L252.50 606.39L257.78 605.39L261.06 603.29L260.51 599.50L260.15 593.42L258.96 587.51L257.23 577.48L256.61 573.99L254.47 561.95L251.70 558.52L254.57 555.54L258.46 551.59L259.38 549.62L259.01 545.98L258.58 542.79L257.93 538.16L257.27 535.99L259.86 535.43L262.71 535.21L265.49 534.74L267.86 534.47L270.25 534.03L273.33 533.70L276.82 533.04L279.55 532.34L281.50 533.32L284.55 532.94L290.92 533.12L293.91 533.44L297.09 532.54L300.27 531.75L304.12 531.04L308.15 531.35L310.19 529.88L315.93 529.81L318.62 528.13L323.15 528.57L325.23 527.93L327.99 528.73L331.17 528.71L335.00 528.84L339.11 528.68L340.55 526.61L340.10 519.59L339.55 516.23L339.82 510.14L341.55 503.03L344.15 503.49L346.32 500.30L347.51 496.62L347.57 490.15L361.25 493.00L362.20 488.36Z" data-ward="14" /><path id="ward-10" class="ward" d="M472.45 676.30L471.21 672.43L469.78 667.97L468.25 663.18L465.79 655.46L464.84 652.49L463.21 647.40L461.75 642.82L460.31 638.33L458.46 636.51L453.73 631.88L451.40 629.58L449.64 627.86L446.29 627.75L441.88 628.20L439.11 628.27L435.73 628.35L428.09 631.12L427.62 634.03L426.27 637.66L425.55 640.94L424.22 644.06L423.21 646.42L422.24 649.35L420.93 653.27L421.00 655.95L421.16 662.20L420.72 668.40L420.41 671.69L416.58 674.62L411.48 675.40L406.22 676.31L404.03 677.00L400.65 678.80L397.83 678.70L394.83 679.58L391.86 680.79L389.19 681.66L387.31 682.93L382.87 683.54L379.58 683.16L376.33 682.98L372.90 680.84L369.66 679.45L367.43 678.91L364.84 677.76L362.59 677.18L358.24 677.31L354.62 677.63L352.00 677.87L349.44 677.69L344.17 677.32L340.63 677.51L340.91 683.03L341.21 685.45L342.13 688.19L342.88 693.32L343.30 698.21L343.04 702.76L343.15 705.59L343.93 707.63L344.98 710.16L344.84 713.19L342.54 713.17L335.75 712.37L332.50 712.55L329.38 713.82L324.45 716.68L319.35 718.66L319.49 726.07L320.05 731.48L320.77 736.60L321.42 740.80L317.80 741.55L310.62 742.00L301.08 742.38L283.10 743.23L266.77 744.14L256.87 743.49L250.60 741.69L246.91 741.08L244.22 740.66L238.44 739.96L235.60 739.00L227.21 736.33L219.05 733.41L216.95 732.66L215.22 731.16L208.86 725.66L201.83 718.73L200.14 717.08L197.56 714.57L192.74 711.15L191.33 708.85L186.20 709.18L179.67 711.98L177.20 713.04L173.71 714.47L166.34 717.17L166.66 720.00L166.72 722.45L166.77 724.73L166.81 727.42L166.92 730.12L164.48 730.35L155.40 731.20L154.68 738.46L150.22 738.51L148.78 744.24L160.59 747.34L161.22 752.50L162.29 761.29L161.51 764.23L160.71 768.90L163.09 768.37L168.55 768.47L168.45 773.03L173.11 775.31L178.48 779.27L182.92 782.76L185.05 785.00L186.94 786.16L190.70 785.76L194.11 777.65L203.11 775.38L211.42 773.20L222.16 773.06L247.62 775.00L250.47 775.84L252.63 775.83L255.73 776.49L256.78 783.26L256.77 785.71L257.10 790.02L257.19 796.10L257.40 800.27L256.89 802.86L256.57 806.16L261.77 805.61L263.73 804.08L267.80 800.38L270.01 798.36L271.99 792.70L273.22 789.91L276.01 787.54L282.62 787.14L287.96 786.16L291.73 784.20L297.24 780.62L299.52 778.48L303.81 775.61L310.26 773.56L317.03 773.50L324.47 774.02L330.79 774.90L336.80 775.74L342.71 778.18L345.49 779.40L349.03 780.96L354.10 784.89L359.74 787.02L364.87 785.36L371.97 783.05L377.22 783.68L384.00 785.97L387.90 786.21L391.80 786.44L398.66 784.56L402.36 782.60L404.06 781.06L415.88 783.03L423.34 784.27L430.69 787.42L432.82 788.56L438.00 791.32L438.52 788.14L439.07 784.78L439.73 780.77L439.72 773.98L439.71 770.73L439.71 767.99L443.90 759.42L447.76 751.52L450.78 745.33L453.74 736.18L455.90 729.51L457.63 724.17L459.91 717.14L460.78 714.44L461.53 712.12L463.38 706.41L464.64 701.76L465.41 698.90L466.60 694.48L467.31 691.87L468.05 689.14L468.95 685.79L471.57 681.86L473.36 679.17L472.45 676.30Z" data-ward="10" /><path id="ward-18" class="ward" d="M612.91 120.25L602.82 120.17L594.97 119.10L584.96 118.41L577.05 118.62L571.02 119.20L566.51 125.04L562.33 129.11L558.81 131.98L554.66 133.86L551.46 137.56L550.05 143.93L549.74 146.61L543.93 147.97L539.13 149.62L534.38 151.17L530.27 152.03L525.11 153.87L522.19 154.22L518.84 153.94L513.28 154.13L506.88 154.91L502.39 156.47L498.94 158.73L497.45 161.68L494.75 164.48L488.87 165.93L482.66 167.07L475.76 167.57L468.67 167.96L460.03 167.38L451.29 166.74L445.90 166.38L443.27 165.97L440.97 164.27L439.37 161.88L434.81 161.24L429.63 161.46L427.53 160.17L423.16 158.70L413.20 158.69L408.49 159.03L401.57 158.55L394.30 157.75L388.61 155.58L386.45 155.76L385.46 160.79L384.22 162.86L382.95 164.97L381.72 167.00L378.26 172.76L376.02 176.47L373.76 180.16L373.41 182.92L374.95 187.14L378.31 188.31L378.59 191.70L378.37 199.05L378.26 201.46L378.03 206.22L377.46 211.33L377.13 214.35L376.50 220.04L375.67 223.32L374.58 227.64L373.86 230.49L373.11 233.45L372.43 236.16L371.70 239.04L370.97 241.95L371.24 244.74L371.57 248.07L371.83 250.65L370.73 254.48L370.93 256.27L371.36 259.12L371.37 259.17L371.58 260.81L371.58 260.83L371.69 261.58L372.07 264.22L372.07 264.23L372.44 266.85L373.88 269.82L374.19 272.45L374.71 276.89L375.20 281.09L375.68 285.22L376.37 291.13L377.09 293.85L378.06 297.50L378.82 300.35L379.55 303.09L380.16 305.37L381.18 309.19L381.99 312.22L382.85 315.46L383.61 318.31L384.25 320.71L385.19 324.25L385.97 327.20L386.56 329.39L387.22 331.87L387.80 334.04L388.67 337.32L389.85 341.77L392.09 341.53L394.70 341.25L396.99 341.00L400.13 340.67L401.03 344.58L401.63 347.18L402.22 349.72L402.82 352.30L403.99 357.38L403.97 362.07L408.20 361.33L412.31 360.98L416.69 360.93L427.07 359.67L431.64 358.58L435.33 359.36L438.02 358.97L442.34 358.92L445.33 358.50L448.36 358.74L451.39 358.65L454.12 358.28L456.59 357.52L460.00 356.19L463.37 355.91L468.86 355.86L474.23 355.36L478.16 354.81L483.83 353.89L486.07 352.25L491.30 351.61L496.36 348.36L499.77 346.19L501.70 344.97L505.24 343.53L506.94 340.86L507.04 335.08L509.50 331.57L511.96 328.21L513.96 325.40L515.91 323.75L520.04 325.08L522.58 323.31L524.52 321.81L525.62 319.68L525.65 315.64L525.08 312.00L524.65 308.66L524.53 304.61L524.64 302.01L524.50 298.53L524.48 292.17L524.18 285.80L524.06 281.75L523.69 276.96L524.45 268.37L523.69 265.36L523.14 261.61L523.01 259.28L527.78 259.05L533.88 258.32L537.57 257.60L540.48 257.58L544.16 257.40L548.13 256.65L551.45 256.52L553.43 255.36L553.53 252.97L553.53 250.60L553.65 248.24L554.20 245.28L555.44 241.14L556.66 237.16L558.94 235.19L561.26 233.71L563.06 232.41L565.45 230.67L570.38 228.50L575.40 226.04L578.23 223.99L584.15 222.88L588.39 221.68L594.64 219.95L599.21 219.29L598.85 216.49L598.63 212.56L599.81 209.56L600.74 207.55L601.66 205.42L601.94 202.94L602.27 200.71L603.39 194.38L604.46 190.41L605.51 186.25L606.15 184.18L608.69 182.97L611.66 183.09L614.69 183.02L617.94 181.73L620.39 180.54L624.76 178.74L624.48 172.97L624.30 170.23L624.39 168.06L624.92 165.89L625.91 163.49L627.26 161.42L632.36 154.73L636.44 149.69L638.57 147.24L638.41 143.71L637.80 138.64L637.73 135.09L638.43 131.49L639.38 127.54L639.57 124.92L638.35 120.19L632.62 120.29L623.29 120.49L612.91 120.25Z" data-ward="18" /><path id="ward-17" class="ward" d="M645.12 286.36L648.08 286.31L651.07 285.84L654.10 284.71L651.40 282.07L648.49 279.15L643.88 274.14L642.08 272.18L638.79 268.64L634.68 264.72L630.46 261.75L624.47 258.41L617.93 255.86L612.72 254.95L608.91 254.48L606.41 253.67L604.18 245.66L604.08 239.74L603.87 236.46L603.13 231.38L602.32 228.55L600.35 222.88L599.21 219.29L594.64 219.95L588.39 221.68L584.15 222.88L578.23 223.99L575.40 226.04L570.38 228.50L565.45 230.67L563.06 232.41L561.26 233.71L558.94 235.19L556.66 237.16L555.44 241.14L554.20 245.28L553.65 248.24L553.53 250.60L553.53 252.97L553.43 255.36L551.45 256.52L548.13 256.65L544.16 257.40L540.48 257.58L537.57 257.60L533.88 258.32L527.78 259.05L523.01 259.28L523.14 261.61L523.69 265.36L524.45 268.37L523.69 276.96L524.06 281.75L524.18 285.80L524.48 292.17L524.50 298.53L524.64 302.01L524.53 304.61L524.65 308.66L525.08 312.00L525.65 315.64L525.62 319.68L524.52 321.81L522.58 323.31L520.04 325.08L515.91 323.75L513.96 325.40L511.96 328.21L509.50 331.57L507.04 335.08L506.94 340.86L505.24 343.53L501.70 344.97L499.77 346.19L496.36 348.36L491.30 351.61L486.07 352.25L483.83 353.89L478.16 354.81L474.23 355.36L468.86 355.86L463.37 355.91L460.00 356.19L456.59 357.52L454.12 358.28L451.39 358.65L448.36 358.74L445.33 358.50L442.34 358.92L438.02 358.97L435.33 359.36L431.64 358.58L427.07 359.67L416.69 360.93L412.31 360.98L408.20 361.33L403.97 362.07L403.94 370.69L403.93 374.43L403.91 377.98L403.90 382.15L403.88 386.03L403.85 395.66L403.83 398.92L403.82 402.88L403.41 405.43L402.79 411.32L402.38 413.58L402.09 421.01L401.74 429.71L401.73 438.00L401.73 441.38L401.72 443.96L401.71 451.09L404.63 450.93L415.24 450.62L419.13 450.42L422.21 450.49L422.73 444.45L446.53 437.53L449.53 438.09L451.85 438.27L455.47 438.60L461.19 437.98L467.27 437.29L467.33 441.78L468.11 450.02L470.58 450.73L478.40 451.58L478.23 455.72L477.30 463.20L485.04 463.96L490.29 464.44L493.63 465.19L497.13 466.20L497.29 463.26L499.17 461.77L504.81 462.49L512.16 462.81L519.89 462.78L526.62 463.55L526.69 461.31L526.49 454.29L527.37 450.15L528.87 439.79L536.81 439.57L536.75 433.09L535.67 429.58L538.71 421.10L546.65 421.00L550.06 419.69L552.95 420.15L555.52 420.03L562.79 419.90L562.98 412.54L563.97 408.64L563.92 405.68L563.73 403.13L563.93 400.51L564.45 396.73L563.84 393.17L563.30 390.63L562.18 387.22L561.39 384.88L560.59 380.26L560.41 377.03L560.25 373.93L560.14 370.83L560.08 368.31L559.96 365.53L559.83 361.75L560.40 355.38L563.59 355.28L566.69 354.33L566.86 351.85L567.24 349.09L567.54 346.77L568.16 343.40L569.26 340.16L571.43 338.78L571.05 334.83L570.88 331.68L570.92 329.18L571.43 322.25L574.78 307.43L578.45 307.26L581.63 307.29L584.25 306.57L586.52 306.63L589.00 306.74L591.48 305.94L592.70 303.48L594.98 304.34L597.87 305.23L601.98 305.69L605.14 306.41L607.43 306.16L611.50 306.06L614.70 306.07L616.87 305.63L619.42 305.48L622.42 304.94L623.01 302.23L624.74 300.59L627.45 300.35L627.54 297.65L627.63 295.22L627.92 290.70L629.58 288.20L633.32 287.63L636.42 287.51L639.57 286.90L642.14 287.26L645.12 286.36Z" data-ward="17" /><path id="ward-15" class="ward" d="M279.16 619.79L278.52 617.19L277.09 613.51L275.26 604.77L274.45 600.15L269.95 601.09L265.89 601.95L261.06 603.29L257.78 605.39L252.50 606.39L248.41 607.88L245.37 608.99L234.00 614.30L230.09 617.16L228.98 619.77L226.98 624.41L224.17 624.47L221.55 624.75L219.27 618.06L218.21 607.77L216.09 608.31L210.13 609.79L205.66 610.00L202.67 609.48L198.61 609.31L193.44 608.94L189.33 608.65L180.94 608.56L180.99 611.35L180.65 617.77L180.10 624.07L179.98 629.97L178.82 633.67L176.26 636.26L175.98 638.54L174.86 647.65L174.76 655.71L175.21 658.58L180.05 658.92L185.36 658.61L186.33 662.03L186.96 665.01L187.78 668.89L188.46 672.50L189.04 675.61L190.49 681.22L192.43 686.93L194.36 689.66L195.90 694.48L196.43 697.75L196.60 700.56L195.21 702.82L191.56 706.10L191.33 708.85L192.74 711.15L197.56 714.57L200.14 717.08L201.83 718.73L208.86 725.66L215.22 731.16L216.95 732.66L219.05 733.41L227.21 736.33L235.60 739.00L238.44 739.96L244.22 740.66L246.91 741.08L250.60 741.69L256.87 743.49L266.77 744.14L266.69 738.45L266.63 735.71L266.53 731.67L267.24 727.62L268.30 722.67L269.98 718.93L271.74 715.79L272.49 713.70L271.93 709.88L271.09 705.25L271.61 702.59L272.31 698.63L272.81 695.58L273.30 692.50L274.25 688.06L274.59 685.28L274.94 682.89L276.81 680.21L274.89 675.27L274.83 665.81L274.68 662.43L274.52 659.05L277.27 658.62L281.84 657.85L280.91 653.33L280.79 647.06L281.05 637.99L280.18 626.50L279.16 619.79Z" data-ward="15" /><path id="ward-8" class="ward" d="M599.60 385.67L591.86 386.23L587.04 386.22L582.97 386.83L579.44 387.50L576.89 387.29L571.28 386.92L566.57 386.86L562.18 387.22L563.30 390.63L563.84 393.17L564.45 396.73L563.93 400.51L563.73 403.13L563.92 405.68L563.97 408.64L562.98 412.54L562.79 419.90L555.52 420.03L552.95 420.15L550.06 419.69L546.65 421.00L538.71 421.10L535.67 429.58L536.75 433.09L536.81 439.57L528.87 439.79L527.37 450.15L526.49 454.29L526.69 461.31L526.62 463.55L519.89 462.78L512.16 462.81L504.81 462.49L499.17 461.77L497.29 463.26L497.13 466.20L493.63 465.19L490.29 464.44L485.04 463.96L477.30 463.20L478.23 455.72L478.40 451.58L470.58 450.73L468.11 450.02L467.33 441.78L467.27 437.29L461.19 437.98L455.47 438.60L451.85 438.27L449.53 438.09L446.53 437.53L422.73 444.45L422.21 450.49L425.05 455.64L427.47 465.08L432.20 483.09L433.09 486.49L435.85 497.01L440.26 508.17L441.47 519.18L441.84 521.40L442.68 526.60L447.11 536.11L448.47 539.04L449.98 542.27L451.95 546.50L459.37 556.08L461.95 559.27L464.39 557.58L466.12 556.04L471.02 555.81L477.79 556.56L480.22 554.49L479.45 552.20L491.10 548.00L497.91 546.75L501.31 547.20L503.86 547.39L505.82 546.45L508.39 546.16L511.36 545.96L513.02 549.60L516.24 550.54L519.44 550.27L522.15 549.98L525.05 549.48L530.57 548.43L534.87 547.54L538.60 547.25L542.55 546.48L543.67 544.31L546.16 543.47L548.36 543.14L548.67 539.34L549.27 533.70L548.46 530.52L547.60 527.46L542.12 526.51L536.56 525.11L531.92 525.89L528.02 526.14L525.69 526.29L525.82 523.44L527.12 509.71L527.58 505.19L529.27 497.96L540.81 498.39L545.63 482.04L567.58 484.63L568.44 482.53L579.44 484.51L587.55 484.65L595.40 483.41L615.91 478.16L620.75 477.74L622.73 465.88L622.43 433.93L622.89 430.43L622.82 424.91L623.02 418.60L623.66 411.61L623.70 403.48L620.71 402.83L618.43 402.54L615.81 402.27L613.14 401.72L610.74 401.25L607.66 400.52L605.34 400.32L602.86 400.41L600.23 400.09L601.30 391.94L599.60 385.67Z" data-ward="8" /><path id="ward-6" class="ward" d="M654.10 284.71L651.07 285.84L648.08 286.31L645.12 286.36L642.14 287.26L639.57 286.90L636.42 287.51L633.32 287.63L629.58 288.20L627.92 290.70L627.63 295.22L627.54 297.65L627.45 300.35L624.74 300.59L623.01 302.23L622.42 304.94L619.42 305.48L616.87 305.63L614.70 306.07L611.50 306.06L607.43 306.16L605.14 306.41L601.98 305.69L597.87 305.23L594.98 304.34L592.70 303.48L591.48 305.94L589.00 306.74L586.52 306.63L584.25 306.57L581.63 307.29L578.45 307.26L574.78 307.43L571.43 322.25L570.92 329.18L570.88 331.68L571.05 334.83L571.43 338.78L569.26 340.16L568.16 343.40L567.54 346.77L567.24 349.09L566.86 351.85L566.69 354.33L563.59 355.28L560.40 355.38L559.83 361.75L559.96 365.53L560.08 368.31L560.14 370.83L560.25 373.93L560.41 377.03L560.59 380.26L561.39 384.88L562.18 387.22L566.57 386.86L571.28 386.92L576.89 387.29L579.44 387.50L582.97 386.83L587.04 386.22L591.86 386.23L599.60 385.67L601.30 391.94L600.23 400.09L602.86 400.41L605.34 400.32L607.66 400.52L610.74 401.25L613.14 401.72L615.81 402.27L618.43 402.54L620.71 402.83L623.70 403.48L623.66 411.61L623.02 418.60L622.82 424.91L622.89 430.43L622.43 433.93L627.56 432.38L632.39 432.76L636.26 433.50L639.88 434.84L643.42 437.54L647.26 438.92L653.80 442.29L655.73 443.86L659.99 448.52L662.23 449.68L667.51 450.54L673.41 451.33L679.93 450.57L685.74 449.59L691.87 449.69L696.74 450.40L699.76 451.34L702.39 451.80L706.74 451.82L708.63 452.87L713.01 456.50L715.62 455.30L716.23 441.88L718.94 381.66L724.09 346.84L718.05 343.37L705.05 333.27L699.35 327.07L693.35 319.58L685.17 313.02L677.76 307.81L672.47 304.21L665.57 304.99L665.64 301.40L665.36 298.72L665.13 296.46L663.83 294.50L661.10 291.31L658.01 288.26L654.10 284.71Z" data-ward="6" /><path id="ward-12" class="ward" d="M170.28 808.97L181.84 796.99L188.48 790.04L186.94 786.16L185.05 785.00L182.92 782.76L178.48 779.27L173.11 775.31L168.45 773.03L159.73 772.81L155.12 775.24L133.97 778.06L125.24 779.22L118.08 780.17L111.95 780.99L110.75 783.13L109.61 785.16L110.10 788.17L111.00 793.63L111.44 797.31L111.90 801.13L112.21 803.71L111.93 806.92L109.95 807.78L107.67 808.77L103.86 810.42L100.20 806.88L98.23 809.26L93.87 814.52L90.47 821.08L89.16 823.61L86.94 827.90L86.07 833.14L85.52 836.46L79.79 836.72L72.67 840.92L68.20 843.57L64.65 854.36L63.57 857.65L61.50 859.65L55.04 876.04L52.73 877.80L50.14 877.98L46.35 877.22L42.81 877.37L38.58 876.15L36.46 872.86L34.19 865.31L33.90 861.27L33.53 856.20L24.20 856.74L6.60 856.73L4.48 865.02L4.26 875.75L4.17 879.84L1.88 887.27L0.00 893.39L2.49 909.92L5.72 910.24L10.81 909.36L20.86 907.61L32.59 907.73L50.54 908.11L51.39 918.03L52.12 926.53L52.43 929.67L52.46 938.62L52.50 950.85L39.60 948.93L40.18 961.66L49.70 965.54L50.28 997.57L56.03 996.63L61.77 995.69L70.50 990.37L73.21 990.06L78.45 989.46L80.71 989.21L82.74 988.32L85.49 986.15L87.86 984.28L91.77 983.19L94.38 982.41L96.87 982.47L99.37 982.52L108.60 981.67L117.28 980.87L123.62 981.79L125.82 982.05L129.88 985.64L138.35 984.35L142.04 991.02L148.04 989.88L156.23 988.33L162.83 987.07L164.66 989.87L167.15 991.35L169.94 989.74L172.95 988.00L176.59 985.90L178.86 986.00L182.22 986.15L179.91 967.28L178.76 964.50L175.68 957.07L173.55 955.00L171.49 948.97L178.08 945.49L182.33 943.25L180.72 926.03L180.66 913.66L181.16 911.49L171.78 909.96L166.76 909.49L159.84 908.56L159.35 905.74L159.30 902.28L157.91 899.78L155.01 898.40L152.62 897.00L149.93 895.33L142.30 891.81L140.22 883.42L139.38 880.60L138.88 870.70L139.08 859.71L139.97 855.53L140.72 851.97L146.37 841.79L148.72 837.55L164.56 816.58L170.28 808.97Z" data-ward="12" /><path id="ward-5" class="ward" d="M712.12 494.63L712.60 475.92L712.70 472.12L713.49 456.28L713.01 456.50L708.63 452.87L706.74 451.82L702.39 451.80L699.76 451.34L696.74 450.40L691.87 449.69L685.74 449.59L679.93 450.57L673.41 451.33L667.51 450.54L662.23 449.68L659.99 448.52L655.73 443.86L653.80 442.29L647.26 438.92L643.42 437.54L639.88 434.84L636.26 433.50L632.39 432.76L629.42 432.15L627.56 432.38L624.65 433.22L623.43 433.61L622.43 433.93L622.73 465.88L620.75 477.74L619.44 485.62L619.90 502.58L620.18 513.05L621.63 523.11L621.81 524.38L621.80 524.57L621.30 534.37L620.71 544.49L620.48 548.54L618.42 552.94L612.71 565.11L613.95 579.11L614.01 579.83L614.65 581.97L618.73 595.68L618.53 604.40L618.24 617.06L619.98 637.87L622.82 640.31L638.80 645.86L601.10 646.74L591.47 645.42L564.09 641.65L546.09 637.95L545.35 631.39L545.30 630.92L527.48 631.24L520.63 628.67L520.26 628.53L518.43 627.40L509.86 626.52L503.10 628.39L502.71 633.71L506.66 643.26L507.89 650.77L510.87 656.88L515.51 676.09L525.03 714.37L518.09 722.88L516.97 732.77L515.96 736.92L520.34 750.97L522.43 756.51L527.13 754.98L528.27 754.77L531.60 754.21L532.93 750.53L534.17 746.25L534.24 744.07L539.22 736.46L542.48 731.93L547.94 729.16L552.93 727.62L562.80 727.28L579.87 720.31L585.92 720.26L589.84 721.85L594.95 722.68L601.66 728.81L603.01 730.14L606.93 732.40L611.16 731.62L614.62 726.96L619.04 724.43L630.10 720.98L633.61 724.68L636.25 726.88L639.29 733.36L641.60 736.46L645.05 739.06L649.00 739.31L651.72 740.59L655.82 739.55L654.47 735.95L653.53 731.78L653.28 728.25L657.50 727.44L662.43 726.92L662.34 718.80L662.61 708.23L663.91 693.73L670.70 695.01L674.59 695.45L690.72 693.88L702.60 692.89L703.49 692.85L704.64 685.50L705.74 679.31L698.13 680.47L694.36 680.63L684.45 682.80L676.14 683.08L677.33 668.67L677.74 664.92L677.18 655.73L677.46 654.34L680.07 650.66L681.15 648.25L683.52 644.45L685.89 641.26L686.36 638.45L682.97 637.29L681.02 636.94L677.54 634.73L674.68 633.15L671.04 631.84L658.31 632.27L655.50 631.21L652.68 629.83L650.05 627.43L649.63 622.78L649.72 617.43L651.16 614.49L660.41 608.56L664.08 605.92L670.42 601.73L671.73 599.04L671.69 593.95L675.59 587.28L678.19 586.17L679.27 577.50L679.40 570.11L679.30 566.10L685.09 565.61L687.82 564.57L695.08 564.32L699.35 564.35L699.77 561.54L706.63 559.20L715.26 557.84L711.46 542.27L711.59 518.27L712.12 494.63Z" data-ward="5" /></svg>