<svg viewBox="0 0 1000.00 1048.02" xmlns="http://www.w3.org/2000/svg"><style>.ward { fill: #e2e8f0; stroke: #fff; stroke-width: 0.5px; } .ward:hover { fill: #cbd5e1; }</style><path id="ward-19" class="ward" d="M186.02 373.39L184.66 371.56L182.95 366.38L178.80 354.95L163.84 358.25L164.20 372.45L158.40 374.64L150.25 378.52L144.92 379.80L144.42 376.86L141.19 375.35L127.60 376.38L124.28 374.20L121.90 374.55L119.52 374.91L117.48 376.50L114.74 377.19L111.48 377.83L104.58 379.18L104.71 381.68L97.63 382.63L98.50 389.30L91.81 390.53L89.64 392.08L69.85 393.14L63.38 393.20L55.01 393.28L54.30 396.63L53.58 399.98L53.48 402.93L53.36 406.37L52.74 409.75L52.10 413.18L51.01 419.12L49.94 422.82L50.00 426.23L50.05 429.04L50.54 432.73L51.13 437.42L51.47 442.66L51.76 447.68L52.11 453.86L52.14 456.70L52.22 466.11L50.26 470.65L48.81 474.03L46.56 476.69L45.45 479.15L43.91 482.54L41.36 485.45L40.64 492.10L37.01 491.89L34.19 492.55L32.20 495.88L29.02 496.59L26.83 499.34L25.31 501.24L23.56 503.43L21.26 506.32L19.73 508.24L16.63 512.13L13.03 513.77L8.31 515.92L6.70 519.25L3.04 523.78L9.74 528.10L17.65 533.19L26.98 535.42L30.68 536.71L33.77 537.02L39.24 538.60L44.31 540.07L47.64 539.28L51.25 538.42L58.75 539.29L68.22 543.63L70.78 542.49L77.38 543.82L84.27 545.22L89.43 546.27L92.79 547.81L95.90 552.91L102.56 558.24L110.32 563.43L112.32 565.31L131.38 574.87L132.01 580.24L131.20 586.20L130.27 593.02L131.04 598.27L131.96 602.23L132.68 605.41L135.13 605.96L139.69 606.98L144.47 608.04L149.46 608.90L150.19 603.73L150.94 598.44L150.94 592.72L150.74 589.94L150.44 587.22L149.04 574.13L148.71 571.09L148.11 567.65L147.60 563.05L146.64 554.37L147.60 550.98L148.03 542.83L145.24 540.03L146.50 518.96L158.98 520.09L159.75 517.70L165.27 517.93L169.29 501.05L190.15 502.95L195.64 500.79L202.27 499.75L208.80 498.72L213.48 497.99L221.37 496.93L224.90 496.46L221.57 482.34L220.60 478.01L217.79 465.54L217.10 462.47L215.18 441.03L215.10 426.84L214.64 420.20L214.18 413.56L212.95 406.20L211.73 398.83L211.14 395.86L210.59 389.25L210.35 386.99L205.40 377.73L201.05 378.42L196.70 379.12L190.98 380.03L186.02 373.39Z" data-ward="19" /><path id="ward-2" class="ward" d="M241.72 224.25L239.54 224.39L236.19 224.93L230.05 224.98L227.68 224.99L223.65 224.93L219.82 224.83L214.17 223.96L210.05 223.57L207.75 223.35L202.85 222.89L195.10 223.19L192.47 223.29L188.30 223.12L181.09 222.83L178.64 222.68L175.08 222.70L172.33 222.89L169.81 223.06L167.17 223.24L164.85 223.39L161.25 223.63L156.38 223.37L151.12 222.88L147.05 222.60L143.55 222.32L138.68 221.15L135.39 221.23L132.11 221.31L128.04 221.90L123.97 222.48L120.98 223.14L118.00 223.81L115.27 225.91L111.87 226.58L111.37 229.95L110.97 232.60L110.83 234.87L107.06 235.67L101.73 236.86L98.81 237.60L96.03 238.49L99.83 251.96L101.24 264.11L101.67 267.74L101.94 270.12L103.15 280.66L94.22 280.40L92.35 290.92L90.49 301.45L89.64 306.22L101.67 309.98L111.57 310.11L119.97 309.58L122.83 309.86L125.93 311.91L128.26 311.94L136.98 312.05L139.91 311.84L148.67 310.39L158.17 308.82L163.81 310.33L175.00 310.67L175.80 307.42L178.17 308.44L185.87 311.76L189.14 313.35L192.53 313.18L215.71 312.04L219.26 324.24L238.94 319.14L239.84 316.66L257.49 314.12L270.23 309.80L268.61 307.67L266.99 305.53L263.66 305.20L261.10 288.18L263.03 281.89L265.39 274.23L265.48 270.03L265.71 258.98L267.89 250.45L252.09 250.85L241.18 251.22L241.06 250.89L240.92 239.60L241.77 233.13L241.77 224.36L241.72 224.25Z" data-ward="2" /><path id="ward-5" class="ward" d="M584.68 284.95L586.09 278.58L586.55 274.13L586.89 271.17L590.34 266.01L593.99 260.92L595.68 258.56L584.66 257.73L554.32 255.44L556.56 248.21L559.07 239.99L558.75 234.27L558.46 229.12L558.45 226.82L558.45 224.53L558.46 220.35L558.49 218.06L558.53 215.76L558.62 211.69L558.75 205.23L558.88 198.80L547.45 195.54L543.08 187.98L541.09 184.52L539.05 190.36L536.78 192.43L532.59 196.25L530.57 197.82L525.22 198.39L523.74 202.13L524.40 206.29L524.75 208.56L525.66 214.35L526.54 219.97L527.19 224.08L527.88 228.51L525.81 234.59L524.12 239.53L522.86 243.19L520.85 245.86L519.32 247.88L518.67 250.55L517.43 255.60L516.90 259.46L515.78 264.97L515.45 267.53L515.00 271.05L514.33 276.32L512.84 287.97L510.88 289.22L509.77 291.97L507.91 296.44L508.92 299.82L511.71 299.68L511.86 304.85L513.46 308.05L512.33 313.34L512.40 316.54L512.48 319.87L512.66 328.28L508.76 326.81L505.60 325.62L503.08 324.67L500.87 328.85L496.96 336.24L494.43 341.01L492.99 343.36L490.41 347.54L489.95 351.26L488.81 360.36L490.84 374.44L491.87 381.53L489.54 387.67L478.42 391.55L476.05 390.37L474.12 393.11L499.63 461.29L501.24 470.76L502.57 472.65L513.15 470.01L530.00 468.57L537.73 467.91L540.47 467.99L542.72 467.61L548.06 467.48L553.47 467.34L558.98 467.20L563.82 467.08L563.89 473.72L563.97 481.84L564.07 491.67L564.00 499.54L563.96 505.35L563.91 510.77L563.86 517.13L566.29 516.21L568.62 515.34L570.94 514.46L573.38 513.54L578.00 511.80L580.40 510.90L587.48 508.23L592.27 506.43L594.60 505.55L595.00 500.48L595.25 497.35L593.53 491.34L591.85 485.45L589.91 478.63L589.19 475.71L588.62 473.09L587.60 467.25L586.56 461.30L576.93 459.25L582.12 427.27L582.43 413.16L582.54 407.96L581.27 399.84L579.22 387.24L575.80 364.75L573.97 352.74L570.39 349.35L564.48 347.30L564.79 337.65L565.06 334.36L569.58 334.13L567.46 313.18L564.28 290.52L571.64 291.70L582.87 293.20L584.68 284.95Z" data-ward="5" /><path id="ward-16" class="ward" d="M690.82 463.58L684.75 458.80L671.96 455.98L671.93 452.67L654.39 452.32L651.24 456.28L650.38 465.82L635.48 465.11L630.47 465.75L629.04 469.41L630.27 475.03L628.09 481.82L624.72 492.52L623.18 497.39L621.25 498.55L617.75 500.63L617.68 504.03L623.64 504.32L624.64 510.61L625.32 514.90L626.37 519.07L627.53 523.67L628.30 527.73L628.70 529.97L629.35 539.27L629.64 543.44L629.96 547.98L630.85 560.78L628.50 561.33L626.09 561.90L623.67 562.47L621.11 563.07L618.41 563.70L615.32 564.42L612.53 565.08L609.44 565.80L605.28 555.41L603.30 552.11L600.93 548.17L598.99 546.68L596.37 544.66L593.72 542.62L592.51 540.45L589.37 534.81L587.06 532.68L581.66 531.24L577.62 530.17L572.76 530.56L570.08 531.56L563.40 534.05L560.17 535.31L555.37 537.62L552.91 539.10L550.25 540.69L546.96 543.28L544.91 544.89L541.70 547.49L539.53 549.17L537.60 550.66L535.53 552.26L533.76 553.70L530.48 556.37L527.70 558.43L525.19 560.64L522.96 562.61L520.44 564.75L518.19 566.67L515.94 568.60L513.73 570.41L511.71 572.06L509.61 573.60L507.34 575.31L504.89 577.16L502.69 579.34L503.12 586.34L502.38 590.00L502.10 594.19L501.81 598.14L501.61 602.02L501.11 605.33L500.60 608.73L500.88 612.01L501.20 615.66L501.37 618.98L501.56 622.37L503.60 625.45L506.15 625.95L508.52 626.28L511.81 626.96L514.00 627.42L515.15 631.80L518.80 638.78L517.88 643.66L513.01 651.53L510.89 654.18L508.76 652.74L506.43 651.17L503.80 653.56L502.09 656.49L502.17 660.70L506.42 664.56L519.69 676.59L532.29 701.61L536.76 705.36L538.54 701.53L543.86 700.94L547.49 690.84L548.41 688.27L549.93 683.58L550.82 680.61L552.56 674.80L554.00 666.55L554.67 662.72L561.28 662.46L566.47 662.27L571.26 662.08L573.74 661.76L576.10 661.46L578.32 661.17L581.24 660.79L579.67 644.78L579.24 640.35L578.65 636.52L581.92 633.84L585.30 627.95L587.00 624.71L590.89 621.50L595.07 617.51L598.69 614.06L600.88 611.97L605.28 608.52L607.76 606.57L609.64 605.09L611.96 604.17L614.87 603.63L617.29 602.85L622.32 601.43L626.66 600.20L629.63 605.74L628.84 608.26L630.38 613.81L630.78 616.62L630.04 621.33L630.23 625.62L631.70 631.81L633.14 635.95L634.21 643.50L634.97 648.82L653.28 647.29L657.78 646.92L664.41 646.49L666.03 654.79L667.32 667.59L668.84 670.07L670.99 672.51L674.51 673.36L679.62 663.95L680.84 656.89L681.57 652.69L680.99 647.12L675.76 646.05L675.06 639.33L676.36 632.86L676.97 613.19L668.66 615.10L669.26 593.62L669.66 579.37L674.23 573.86L681.57 570.03L687.06 567.17L699.02 558.94L718.34 545.74L705.00 519.83L703.36 488.62L706.22 486.83L706.11 472.45L699.97 472.70L692.36 473.01L690.82 463.58Z" data-ward="16" /><path id="ward-11" class="ward" d="M845.57 626.20L838.99 625.43L834.16 625.26L821.28 626.97L815.14 627.78L809.88 627.62L805.90 627.50L802.34 642.12L798.51 646.11L793.47 643.68L788.21 643.18L787.20 653.46L786.96 655.95L786.46 659.14L785.43 673.58L774.78 675.39L776.62 689.91L777.31 696.81L767.77 698.72L770.90 709.14L775.78 709.92L778.33 722.82L779.93 731.25L781.52 739.68L781.94 743.38L782.96 749.22L787.45 749.94L788.53 752.60L795.66 770.19L799.59 771.12L803.72 772.10L806.35 779.82L794.70 782.11L794.15 785.81L784.83 786.53L784.92 793.64L760.94 793.45L757.00 793.39L752.74 793.32L750.94 798.12L744.94 798.65L743.87 813.73L743.34 818.45L742.81 823.16L745.82 827.12L744.65 840.66L746.18 844.13L747.13 847.59L747.33 854.58L747.51 860.54L753.44 860.57L759.25 860.60L766.42 859.68L772.73 860.23L792.03 858.95L797.18 856.39L799.04 854.53L801.79 851.78L805.11 850.56L807.55 850.32L816.65 849.43L828.25 845.26L834.58 844.69L844.97 844.04L847.43 844.53L849.81 845.01L853.56 845.75L857.84 846.61L859.24 848.63L864.36 850.85L866.33 852.22L868.95 851.93L871.57 851.63L875.91 851.71L881.19 850.99L889.46 849.88L895.95 846.48L899.70 842.42L904.26 837.49L908.64 836.14L911.52 835.26L914.99 834.19L917.16 832.13L919.50 829.90L921.08 825.94L923.43 806.37L943.85 805.27L943.11 798.45L945.18 796.06L945.22 786.91L945.27 777.42L950.81 776.09L951.32 767.35L947.38 767.75L947.06 764.67L942.83 764.03L933.09 763.87L929.68 763.81L914.14 765.46L913.04 756.86L897.62 755.53L886.74 759.87L877.80 760.86L861.19 762.71L849.04 766.21L849.84 756.68L855.41 752.63L855.25 737.50L855.13 726.95L852.11 711.58L854.48 688.44L857.90 666.15L862.25 642.84L862.94 630.36L845.57 626.20Z" data-ward="11" /><path id="ward-12" class="ward" d="M799.93 551.82L798.56 547.15L797.69 541.86L795.40 531.62L794.17 528.40L792.29 524.61L790.74 517.78L778.83 519.41L772.34 520.30L737.55 530.35L718.34 545.74L699.02 558.94L687.06 567.17L681.57 570.03L674.23 573.86L669.66 579.37L669.26 593.62L668.66 615.10L676.97 613.19L676.36 632.86L675.06 639.33L675.76 646.05L680.99 647.12L681.57 652.69L680.84 656.89L679.62 663.95L674.51 673.36L672.85 681.41L671.36 688.62L676.73 689.81L686.92 692.07L696.22 694.13L700.16 695.01L710.70 697.34L714.62 703.82L694.03 746.44L694.36 757.47L690.73 783.68L686.72 790.16L682.70 796.65L674.70 821.07L673.55 824.56L669.57 845.68L667.75 855.31L664.69 871.59L660.71 895.50L688.35 898.21L705.47 898.21L707.96 894.23L711.90 887.91L715.74 881.76L716.53 878.06L718.27 877.13L724.90 877.91L735.67 878.11L738.02 878.15L742.37 875.60L747.51 860.54L747.33 854.58L747.13 847.59L746.18 844.13L744.65 840.66L745.82 827.12L742.81 823.16L743.34 818.45L743.87 813.73L744.94 798.65L750.94 798.12L752.74 793.32L757.00 793.39L760.94 793.45L784.92 793.64L784.83 786.53L794.15 785.81L794.70 782.11L806.35 779.82L803.72 772.10L799.59 771.12L795.66 770.19L788.53 752.60L787.45 749.94L782.96 749.22L781.94 743.38L781.52 739.68L779.93 731.25L778.33 722.82L775.78 709.92L770.90 709.14L767.77 698.72L777.31 696.81L776.62 689.91L774.78 675.39L785.43 673.58L786.46 659.14L786.96 655.95L787.20 653.46L788.21 643.18L793.47 643.68L798.51 646.11L802.34 642.12L805.90 627.50L802.28 627.40L797.69 627.27L795.16 627.19L797.74 617.37L801.23 604.09L807.06 586.14L818.93 549.61L814.44 551.31L809.96 553.01L803.43 553.72L799.93 551.82Z" data-ward="12" /><path id="ward-3" class="ward" d="M314.76 322.29L314.00 313.55L313.12 303.33L294.64 302.95L282.57 302.82L272.23 304.62L266.99 305.53L268.61 307.67L270.23 309.80L257.49 314.12L239.84 316.66L238.94 319.14L219.26 324.24L215.71 312.04L192.53 313.18L189.14 313.35L185.87 311.76L178.17 308.44L175.80 307.42L175.00 310.67L175.33 314.09L176.35 326.67L178.80 354.95L182.95 366.38L184.66 371.56L186.02 373.39L190.98 380.03L196.70 379.12L201.05 378.42L205.40 377.73L210.35 386.99L210.59 389.25L211.14 395.86L211.73 398.83L212.95 406.20L214.18 413.56L214.64 420.20L215.10 426.84L215.18 441.03L217.10 462.47L217.79 465.54L220.60 478.01L221.57 482.34L224.90 496.46L226.07 501.47L239.24 499.43L242.05 499.00L246.79 495.18L251.04 495.24L254.27 495.31L258.13 495.00L262.45 494.64L269.34 494.22L268.50 483.03L261.36 483.05L260.97 480.06L257.94 457.24L260.12 454.44L258.43 445.81L253.65 444.51L256.13 436.02L238.96 411.95L253.40 402.86L256.88 400.67L260.17 398.74L282.12 385.86L286.96 393.00L293.88 395.36L307.63 392.55L312.86 395.43L312.26 362.46L302.46 358.46L301.86 345.36L315.14 347.34L315.10 334.74L315.07 325.54L314.76 322.29Z" data-ward="3" /><path id="ward-1" class="ward" d="M49.25 222.54L47.48 214.29L46.88 211.77L46.05 208.25L36.59 210.91L33.78 211.47L30.80 212.33L27.41 215.42L27.84 218.33L28.38 221.99L28.56 227.37L28.70 231.47L28.83 235.01L29.08 241.76L29.25 246.53L29.84 252.35L30.40 257.85L32.78 259.52L33.16 262.57L33.08 267.93L33.04 271.06L29.54 270.88L26.07 270.70L23.03 270.55L19.25 270.36L13.65 270.07L10.87 271.66L5.31 274.83L3.31 277.39L0.00 281.62L0.52 289.61L0.69 292.10L0.86 294.69L1.84 297.83L2.59 302.45L2.77 306.08L2.96 309.84L7.21 311.13L12.39 312.70L17.71 314.31L21.97 316.58L28.03 318.61L34.65 320.81L34.11 325.10L33.50 329.94L46.61 330.69L47.03 333.95L49.37 333.88L52.93 333.77L55.63 333.69L56.46 337.40L57.64 342.64L58.45 346.27L59.07 349.00L61.37 351.33L65.84 350.54L69.09 349.97L69.36 352.46L69.81 356.58L70.43 360.64L71.55 368.01L64.75 370.44L60.66 371.91L59.96 374.57L58.55 379.89L57.13 385.26L56.42 387.95L55.01 393.28L63.38 393.20L69.85 393.14L89.64 392.08L91.81 390.53L98.50 389.30L97.63 382.63L104.71 381.68L104.58 379.18L111.48 377.83L114.74 377.19L117.48 376.50L119.52 374.91L121.90 374.55L124.28 374.20L127.60 376.38L141.19 375.35L144.42 376.86L144.92 379.80L150.25 378.52L158.40 374.64L164.20 372.45L163.84 358.25L178.80 354.95L176.35 326.67L175.33 314.09L175.00 310.67L163.81 310.33L158.17 308.82L148.67 310.39L139.91 311.84L136.98 312.05L128.26 311.94L125.93 311.91L122.83 309.86L119.97 309.58L111.57 310.11L101.67 309.98L89.64 306.22L90.49 301.45L92.35 290.92L94.22 280.40L103.15 280.66L101.94 270.12L101.67 267.74L101.24 264.11L99.83 251.96L96.03 238.49L93.18 233.78L92.58 231.07L92.21 227.16L91.91 224.09L83.62 225.97L78.92 226.77L74.95 227.45L71.70 228.01L69.45 228.40L55.94 231.25L49.50 232.60L49.25 222.54Z" data-ward="1" /><path id="ward-9" class="ward" d="M762.50 334.01L750.42 346.14L748.99 352.09L749.32 365.24L748.32 389.81L731.85 390.22L723.16 390.25L712.61 390.24L710.97 386.06L685.57 380.18L666.04 379.63L666.00 386.20L665.89 405.94L669.10 440.97L672.63 443.65L672.38 447.97L671.93 452.67L671.96 455.98L684.75 458.80L690.82 463.58L692.36 473.01L699.97 472.70L706.11 472.45L706.22 486.83L703.36 488.62L705.00 519.83L718.34 545.74L737.55 530.35L772.34 520.30L778.83 519.41L790.74 517.78L792.29 524.61L794.17 528.40L795.40 531.62L797.69 541.86L798.56 547.15L799.93 551.82L803.43 553.72L809.96 553.01L814.44 551.31L818.93 549.61L816.50 546.65L813.84 531.67L810.69 513.91L815.17 500.07L835.21 456.34L837.44 455.14L838.94 453.13L840.34 450.86L847.90 438.61L848.56 431.57L849.72 419.19L851.03 410.44L850.42 396.75L859.50 370.63L854.91 365.85L841.41 355.93L820.86 344.33L814.34 342.91L798.82 342.09L787.54 335.49L785.18 335.77L780.31 335.91L775.45 336.06L762.50 334.01Z" data-ward="9" /><path id="ward-6" class="ward" d="M771.80 269.82L771.20 264.79L770.13 260.24L768.69 254.15L766.71 245.75L765.17 239.22L764.39 235.20L760.64 208.81L758.46 193.48L757.06 190.10L755.59 187.68L733.78 169.73L731.56 182.38L730.04 188.92L729.74 195.48L729.52 199.18L728.21 208.09L728.39 228.69L728.00 232.68L727.61 235.35L727.24 237.90L726.28 243.38L726.48 246.62L727.37 250.79L727.12 259.48L726.16 264.46L724.22 271.06L719.94 269.86L713.88 268.84L701.71 268.12L698.56 266.39L696.12 265.67L684.36 263.35L681.86 262.34L676.65 261.30L667.47 262.27L667.71 266.85L667.75 271.21L667.78 274.47L671.94 274.95L677.84 276.82L677.77 279.19L677.21 295.82L677.91 303.43L660.61 307.57L635.60 313.89L619.51 306.43L607.76 301.97L587.58 295.11L582.87 293.20L571.64 291.70L564.28 290.52L567.46 313.18L569.58 334.13L565.06 334.36L564.79 337.65L564.48 347.30L570.39 349.35L573.97 352.74L575.80 364.75L579.22 387.24L581.27 399.84L582.54 407.96L582.43 413.16L582.12 427.27L576.93 459.25L586.56 461.30L625.62 457.82L627.96 464.57L630.47 465.75L635.48 465.11L650.38 465.82L651.24 456.28L654.39 452.32L671.93 452.67L672.38 447.97L672.63 443.65L669.10 440.97L665.89 405.94L666.00 386.20L666.04 379.63L685.57 380.18L710.97 386.06L712.61 390.24L723.16 390.25L731.85 390.22L748.32 389.81L749.32 365.24L748.99 352.09L750.42 346.14L762.50 334.01L750.80 325.35L753.12 298.37L759.25 286.43L771.80 269.82Z" data-ward="6" /><path id="ward-10" class="ward" d="M818.93 549.61L807.06 586.14L801.23 604.09L797.74 617.37L795.16 627.19L797.69 627.27L802.28 627.40L805.90 627.50L809.88 627.62L815.14 627.78L821.28 626.97L834.16 625.26L838.99 625.43L845.57 626.20L862.94 630.36L862.25 642.84L857.90 666.15L854.48 688.44L852.11 711.58L855.13 726.95L855.25 737.50L855.41 752.63L849.84 756.68L849.04 766.21L861.19 762.71L877.80 760.86L886.74 759.87L897.62 755.53L913.04 756.86L914.14 765.46L929.68 763.81L933.09 763.87L942.83 764.03L947.06 764.67L947.38 767.75L951.32 767.35L951.57 763.21L951.86 760.59L952.32 756.39L956.84 755.48L962.45 755.49L972.02 755.51L973.61 746.24L979.44 744.81L982.81 714.74L984.30 709.84L985.14 707.11L991.30 686.87L985.03 676.71L979.66 668.02L979.89 660.54L980.02 656.60L980.75 649.77L983.61 623.10L1000.00 625.11L999.64 616.65L999.40 610.87L999.28 608.19L998.72 605.86L996.67 597.39L995.82 593.91L990.81 592.44L985.11 590.76L979.05 590.77L971.59 590.77L966.12 590.78L965.87 581.30L965.56 569.62L960.62 567.32L953.71 564.11L938.79 557.17L931.39 553.73L925.63 557.18L920.74 560.11L910.92 566.82L905.24 568.72L894.86 572.19L892.32 573.04L889.75 574.37L868.69 570.52L857.48 560.20L842.93 563.80L840.70 564.04L831.79 565.27L818.93 549.61Z" data-ward="10" /><path id="ward-4" class="ward" d="M390.62 379.46L388.36 379.18L381.83 378.24L372.89 379.06L363.39 379.94L360.82 379.88L358.26 379.83L355.57 380.63L351.54 381.75L349.11 383.67L346.27 385.91L344.19 386.82L341.85 387.09L336.46 387.70L333.67 388.02L324.69 393.49L318.77 394.46L312.86 395.43L307.63 392.55L293.88 395.36L286.96 393.00L282.12 385.86L260.17 398.74L256.88 400.67L253.40 402.86L238.96 411.95L256.13 436.02L253.65 444.51L258.43 445.81L260.12 454.44L257.94 457.24L260.97 480.06L261.36 483.05L268.50 483.03L269.34 494.22L270.82 497.42L294.33 496.02L303.15 495.49L307.19 496.59L316.66 496.71L323.31 496.79L327.36 496.84L330.05 496.54L333.01 496.21L337.70 495.68L340.45 495.37L343.64 495.02L349.94 494.57L348.66 482.44L356.01 480.07L369.67 480.61L370.41 492.23L371.55 496.91L377.46 498.31L377.91 501.72L376.77 516.07L376.28 522.24L382.89 525.28L385.46 526.46L386.77 535.00L387.22 537.85L390.99 538.36L390.62 546.05L390.32 552.47L417.34 553.01L421.07 553.09L423.62 553.14L428.89 556.17L442.76 551.85L455.40 552.88L457.38 549.86L467.71 549.75L471.33 549.71L475.10 536.01L500.87 538.38L501.37 520.46L501.77 505.99L502.19 490.70L502.47 477.68L502.57 472.65L501.24 470.76L499.63 461.29L474.12 393.11L476.05 390.37L472.00 388.33L467.16 385.47L460.18 387.43L456.91 385.84L452.82 383.86L448.68 383.68L445.22 383.52L442.89 383.41L439.14 385.58L436.04 387.37L433.17 389.03L430.60 387.50L428.72 384.63L421.92 385.91L413.49 387.51L407.32 388.68L403.52 381.82L394.80 383.15L390.62 379.46Z" data-ward="4" /><path id="ward-18" class="ward" d="M371.55 496.91L370.41 492.23L369.67 480.61L356.01 480.07L348.66 482.44L349.94 494.57L343.64 495.02L340.45 495.37L337.70 495.68L333.01 496.21L330.05 496.54L327.36 496.84L323.31 496.79L316.66 496.71L307.19 496.59L303.15 495.49L294.33 496.02L270.82 497.42L269.34 494.22L262.45 494.64L258.13 495.00L254.27 495.31L251.04 495.24L246.79 495.18L242.05 499.00L239.24 499.43L226.07 501.47L224.90 496.46L221.37 496.93L213.48 497.99L208.80 498.72L202.27 499.75L195.64 500.79L190.15 502.95L169.29 501.05L165.27 517.93L159.75 517.70L158.98 520.09L146.50 518.96L145.24 540.03L148.03 542.83L147.60 550.98L146.64 554.37L147.60 563.05L148.11 567.65L148.71 571.09L149.04 574.13L150.44 587.22L150.74 589.94L154.99 590.29L158.67 589.23L161.26 588.93L164.52 587.74L171.28 585.28L173.65 584.42L172.68 582.17L170.78 578.13L172.41 571.73L178.36 571.43L183.82 571.15L186.60 572.58L190.55 579.04L194.84 579.26L205.69 579.84L209.66 580.19L213.31 580.60L216.66 580.97L221.42 581.38L224.76 581.60L226.99 581.74L229.99 583.80L233.31 582.83L232.79 577.20L228.50 576.23L228.68 573.43L228.99 568.73L231.64 568.25L236.29 567.41L240.00 566.70L242.72 566.18L245.45 565.83L253.35 566.39L254.32 570.01L260.65 569.49L269.33 572.15L277.30 572.32L284.36 574.16L289.54 576.03L299.87 579.78L302.08 579.46L310.04 578.63L328.38 576.70L331.50 578.07L335.63 582.54L339.27 586.46L344.74 589.55L349.35 592.15L354.04 592.97L363.22 594.58L367.77 598.36L372.04 597.74L375.93 597.17L378.14 597.48L381.08 597.89L387.89 598.83L390.33 599.19L391.86 602.42L395.47 603.08L403.36 604.53L411.85 606.09L419.80 604.65L426.39 603.46L423.53 574.67L459.94 570.26L458.30 564.05L456.90 558.45L456.13 555.60L455.40 552.88L442.76 551.85L428.89 556.17L423.62 553.14L421.07 553.09L417.34 553.01L390.32 552.47L390.62 546.05L390.99 538.36L387.22 537.85L386.77 535.00L385.46 526.46L382.89 525.28L376.28 522.24L376.77 516.07L377.91 501.72L377.46 498.31L371.55 496.91Z" data-ward="18" /><path id="ward-14" class="ward" d="M490.73 828.06L492.47 813.77L479.51 813.00L477.95 825.49L477.78 829.63L477.13 845.18L476.66 856.12L476.52 859.43L468.21 860.70L464.01 861.34L463.25 857.05L460.42 855.86L460.62 852.67L460.85 848.78L461.14 843.99L461.35 840.52L462.20 836.10L446.02 831.31L442.69 830.32L435.64 829.79L421.21 828.69L413.12 828.07L411.39 829.16L408.55 839.97L407.95 843.56L405.65 846.83L401.68 860.08L400.98 866.13L398.49 871.14L396.18 877.23L394.39 881.93L400.27 888.55L395.90 895.63L389.61 902.41L386.79 905.07L383.27 908.39L379.16 912.54L376.42 915.10L373.00 918.29L371.15 920.01L369.48 921.57L366.16 922.68L361.47 925.27L358.45 926.94L354.81 928.96L353.54 935.19L352.62 939.71L356.25 941.85L358.27 945.56L360.31 949.28L362.63 953.53L364.75 957.42L363.20 962.29L360.12 966.35L357.14 970.27L354.50 973.89L353.04 975.89L351.64 977.81L356.97 979.87L362.04 981.84L368.13 984.20L370.38 985.08L373.92 986.51L377.60 988.01L386.16 991.40L393.22 994.19L399.35 996.62L404.13 1003.36L410.81 1007.77L415.71 1011.84L421.45 1019.29L425.41 1025.29L428.74 1030.33L430.85 1033.55L435.63 1035.64L439.90 1037.50L444.70 1043.50L445.14 1039.20L445.47 1035.95L443.07 1031.46L440.82 1026.42L437.95 1019.63L434.44 1009.99L432.21 1004.99L427.15 987.74L424.77 986.73L425.00 979.33L428.53 977.31L445.76 967.44L461.24 958.58L480.35 945.32L474.76 938.48L467.25 928.19L469.52 925.71L480.21 925.91L490.60 926.12L493.04 927.02L495.49 927.92L506.48 926.68L513.43 924.52L521.08 922.15L522.01 916.50L522.39 914.21L529.42 912.88L530.18 907.11L535.85 905.23L539.19 904.13L550.65 902.93L551.56 896.68L553.24 891.18L554.85 889.54L556.46 887.89L561.12 874.25L562.17 869.85L566.54 851.60L550.83 847.00L551.30 843.61L541.81 840.72L537.72 839.75L527.82 839.20L512.25 839.81L510.44 845.22L502.29 844.50L494.15 843.79L488.48 843.88L490.73 828.06Z" data-ward="14" /><path id="ward-7" class="ward" d="M625.62 176.49L620.40 172.44L616.76 170.84L613.90 169.58L607.81 167.07L601.62 166.21L595.11 165.30L587.45 164.76L580.49 164.83L573.85 166.94L569.43 169.89L567.08 172.09L561.41 175.78L557.54 177.79L552.04 178.80L545.23 179.22L542.36 181.66L541.09 184.52L543.08 187.98L547.45 195.54L558.88 198.80L558.75 205.23L558.62 211.69L558.53 215.76L558.49 218.06L558.46 220.35L558.45 224.53L558.45 226.82L558.46 229.12L558.75 234.27L559.07 239.99L556.56 248.21L554.32 255.44L584.66 257.73L595.68 258.56L593.99 260.92L590.34 266.01L586.89 271.17L586.55 274.13L586.09 278.58L584.68 284.95L582.87 293.20L587.58 295.11L607.76 301.97L619.51 306.43L635.60 313.89L660.61 307.57L677.91 303.43L677.21 295.82L677.77 279.19L677.84 276.82L671.94 274.95L667.78 274.47L667.75 271.21L667.71 266.85L667.47 262.27L676.65 261.30L681.86 262.34L684.36 263.35L696.12 265.67L698.56 266.39L701.71 268.12L713.88 268.84L719.94 269.86L724.22 271.06L726.16 264.46L727.12 259.48L727.37 250.79L726.48 246.62L726.28 243.38L727.24 237.90L727.61 235.35L728.00 232.68L728.39 228.69L728.21 208.09L729.52 199.18L729.74 195.48L730.04 188.92L731.56 182.38L727.83 182.52L718.56 182.87L712.00 183.11L706.66 180.27L704.46 179.10L696.90 175.86L689.22 174.58L677.06 172.55L675.30 174.13L671.49 176.15L664.43 178.09L660.42 177.85L656.40 177.60L649.42 175.24L644.02 174.60L636.71 176.97L631.43 178.68L625.62 176.49Z" data-ward="7" /><path id="ward-17" class="ward" d="M625.32 514.90L624.64 510.61L623.64 504.32L617.68 504.03L617.75 500.63L621.25 498.55L623.18 497.39L624.72 492.52L628.09 481.82L630.27 475.03L629.04 469.41L630.47 465.75L627.96 464.57L625.62 457.82L586.56 461.30L587.60 467.25L588.62 473.09L589.19 475.71L589.91 478.63L591.85 485.45L593.53 491.34L595.25 497.35L595.00 500.48L594.60 505.55L592.27 506.43L587.48 508.23L580.40 510.90L578.00 511.80L573.38 513.54L570.94 514.46L568.62 515.34L566.29 516.21L563.86 517.13L563.91 510.77L563.96 505.35L564.00 499.54L564.07 491.67L563.97 481.84L563.89 473.72L563.82 467.08L558.98 467.20L553.47 467.34L548.06 467.48L542.72 467.61L540.47 467.99L537.73 467.91L530.00 468.57L513.15 470.01L502.57 472.65L502.47 477.68L502.19 490.70L501.77 505.99L501.37 520.46L500.87 538.38L475.10 536.01L471.33 549.71L467.71 549.75L457.38 549.86L455.40 552.88L456.13 555.60L456.90 558.45L458.30 564.05L459.94 570.26L423.53 574.67L426.39 603.46L427.11 610.73L427.50 614.68L428.39 620.44L429.18 625.56L428.43 628.78L427.69 631.29L426.95 633.80L426.07 636.80L425.43 638.97L424.89 642.00L424.43 644.60L423.92 647.47L424.52 651.53L425.08 655.23L425.43 663.01L424.83 668.00L424.88 674.00L424.93 680.40L425.10 683.54L425.17 687.60L425.21 690.29L425.16 692.73L425.42 696.00L425.92 702.16L426.17 705.26L426.40 707.70L426.68 710.61L427.01 713.23L427.49 717.00L427.66 719.66L428.01 724.76L428.32 728.65L428.54 731.33L429.04 737.16L429.49 742.32L436.37 743.08L441.42 748.78L441.79 751.42L448.30 749.11L453.05 747.41L456.04 746.35L459.89 744.97L466.78 742.52L474.67 739.71L482.68 736.86L490.33 734.13L498.03 731.39L502.88 729.67L505.39 728.75L509.20 727.35L516.00 725.24L522.23 723.30L525.86 723.04L531.81 722.61L534.16 722.45L534.52 714.97L531.78 714.34L528.37 712.93L526.35 707.70L532.29 701.61L519.69 676.59L506.42 664.56L502.17 660.70L502.09 656.49L503.80 653.56L506.43 651.17L508.76 652.74L510.89 654.18L513.01 651.53L517.88 643.66L518.80 638.78L515.15 631.80L514.00 627.42L511.81 626.96L508.52 626.28L506.15 625.95L503.60 625.45L501.56 622.37L501.37 618.98L501.20 615.66L500.88 612.01L500.60 608.73L501.11 605.33L501.61 602.02L501.81 598.14L502.10 594.19L502.38 590.00L503.12 586.34L502.69 579.34L504.89 577.16L507.34 575.31L509.61 573.60L511.71 572.06L513.73 570.41L515.94 568.60L518.19 566.67L520.44 564.75L522.96 562.61L525.19 560.64L527.70 558.43L530.48 556.37L533.76 553.70L535.53 552.26L537.60 550.66L539.53 549.17L541.70 547.49L544.91 544.89L546.96 543.28L550.25 540.69L552.91 539.10L555.37 537.62L560.17 535.31L563.40 534.05L570.08 531.56L572.76 530.56L577.62 530.17L581.66 531.24L587.06 532.68L589.37 534.81L592.51 540.45L593.72 542.62L596.37 544.66L598.99 546.68L600.93 548.17L603.30 552.11L605.28 555.41L609.44 565.80L612.53 565.08L615.32 564.42L618.41 563.70L621.11 563.07L623.67 562.47L626.09 561.90L628.50 561.33L630.85 560.78L629.96 547.98L629.64 543.44L629.35 539.27L628.70 529.97L628.30 527.73L627.53 523.67L626.37 519.07L625.32 514.90Z" data-ward="17" /><path id="ward-15" class="ward" d="M634.21 643.50L633.14 635.95L631.70 631.81L630.23 625.62L630.04 621.33L630.78 616.62L630.38 613.81L628.84 608.26L629.63 605.74L626.66 600.20L622.32 601.43L617.29 602.85L614.87 603.63L611.96 604.17L609.64 605.09L607.76 606.57L605.28 608.52L600.88 611.97L598.69 614.06L595.07 617.51L590.89 621.50L587.00 624.71L585.30 627.95L581.92 633.84L578.65 636.52L579.24 640.35L579.67 644.78L581.24 660.79L578.32 661.17L576.10 661.46L573.74 661.76L571.26 662.08L566.47 662.27L561.28 662.46L554.67 662.72L554.00 666.55L552.56 674.80L550.82 680.61L549.93 683.58L548.41 688.27L547.49 690.84L543.86 700.94L538.54 701.53L536.76 705.36L532.29 701.61L526.35 707.70L528.37 712.93L531.78 714.34L534.52 714.97L534.16 722.45L531.81 722.61L525.86 723.04L522.23 723.30L516.00 725.24L509.20 727.35L505.39 728.75L502.88 729.67L498.03 731.39L490.33 734.13L482.68 736.86L474.67 739.71L466.78 742.52L459.89 744.97L456.04 746.35L453.05 747.41L448.30 749.11L441.79 751.42L441.42 748.78L436.37 743.08L429.49 742.32L429.62 750.38L429.70 755.52L429.78 760.43L426.79 763.48L424.86 765.43L419.98 775.44L417.22 780.88L416.21 785.56L416.97 794.36L420.09 796.58L423.05 798.68L427.27 801.68L426.86 807.39L422.34 815.31L421.10 817.48L413.12 828.07L421.21 828.69L435.64 829.79L442.69 830.32L446.02 831.31L462.20 836.10L461.35 840.52L461.14 843.99L460.85 848.78L460.62 852.67L460.42 855.86L463.25 857.05L464.01 861.34L468.21 860.70L476.52 859.43L476.66 856.12L477.13 845.18L477.78 829.63L477.95 825.49L479.51 813.00L481.45 800.35L485.73 800.63L486.89 795.97L487.26 793.58L487.64 791.19L489.05 785.42L491.44 783.80L491.63 776.06L493.46 774.00L497.04 774.03L505.28 774.77L507.87 774.98L517.07 778.81L520.18 781.13L524.16 783.31L528.14 785.49L532.46 787.87L534.90 789.36L546.00 796.01L551.49 799.31L555.11 792.82L569.55 794.46L578.89 797.62L585.88 799.98L592.93 802.36L603.14 802.70L605.07 804.82L608.78 808.91L620.58 822.13L630.63 833.40L648.38 853.31L664.69 871.59L667.75 855.31L669.57 845.68L673.55 824.56L674.70 821.07L682.70 796.65L686.72 790.16L690.73 783.68L694.36 757.47L694.03 746.44L714.62 703.82L710.70 697.34L700.16 695.01L696.22 694.13L686.92 692.07L676.73 689.81L671.36 688.62L672.85 681.41L674.51 673.36L670.99 672.51L668.84 670.07L667.32 667.59L666.03 654.79L664.41 646.49L657.78 646.92L653.28 647.29L634.97 648.82L634.21 643.50Z" data-ward="15" /><path id="ward-8" class="ward" d="M777.42 1.95L766.55 1.23L759.89 0.79L753.39 0.36L748.00 0.00L745.19 5.24L740.18 4.35L731.47 2.81L729.38 4.04L727.30 5.26L725.79 9.62L723.97 14.84L725.78 16.61L728.18 18.97L733.05 23.75L734.96 25.62L736.44 30.24L737.94 34.96L739.62 40.19L740.60 43.25L743.14 51.20L744.71 56.12L746.18 60.72L747.45 64.70L748.40 67.65L746.55 70.42L743.85 74.48L742.92 77.93L742.16 80.74L741.44 83.41L740.21 87.97L739.41 90.91L738.12 95.70L736.21 101.58L735.44 103.96L734.54 106.74L732.20 113.98L730.42 119.48L728.20 126.35L725.15 135.76L722.04 142.14L718.06 150.27L713.75 159.09L713.75 161.91L713.76 165.26L713.77 172.25L713.10 176.37L712.53 179.83L712.00 183.11L718.56 182.87L727.83 182.52L731.56 182.38L733.78 169.73L755.59 187.68L757.06 190.10L758.46 193.48L760.64 208.81L764.39 235.20L765.17 239.22L766.71 245.75L768.69 254.15L770.13 260.24L771.20 264.79L771.80 269.82L759.25 286.43L753.12 298.37L750.80 325.35L762.50 334.01L775.45 336.06L780.31 335.91L785.18 335.77L787.54 335.49L798.82 342.09L814.34 342.91L820.86 344.33L841.41 355.93L854.91 365.85L859.50 370.63L858.53 360.20L860.23 354.67L861.83 352.59L863.08 347.24L859.87 342.45L864.78 338.18L870.00 333.63L875.09 329.19L878.07 330.44L884.19 326.24L883.38 314.41L886.15 310.73L890.46 305.00L889.74 295.39L889.42 291.06L881.23 287.01L881.63 283.33L881.60 275.18L881.57 268.41L881.54 261.83L881.52 256.56L880.73 250.28L877.51 242.29L879.02 228.03L876.79 220.43L870.18 215.85L867.65 214.10L872.28 192.64L866.21 187.53L857.31 180.05L817.37 169.66L814.06 167.23L808.24 160.94L801.46 153.60L796.08 147.78L798.70 146.81L798.21 143.14L792.31 126.24L795.09 112.18L801.20 103.29L791.68 64.51L786.84 44.77L785.21 38.11L783.34 30.52L779.79 20.74L779.84 16.23L786.27 14.80L793.00 13.31L787.52 9.32L782.36 5.55L777.42 1.95Z" data-ward="8" /><path id="ward-13" class="ward" d="M546.00 796.01L534.90 789.36L532.46 787.87L528.14 785.49L524.16 783.31L520.18 781.13L517.07 778.81L507.87 774.98L505.28 774.77L497.04 774.03L493.46 774.00L491.63 776.06L491.44 783.80L489.05 785.42L487.64 791.19L487.26 793.58L486.89 795.97L485.73 800.63L481.45 800.35L479.51 813.00L492.47 813.77L490.73 828.06L488.48 843.88L494.15 843.79L502.29 844.50L510.44 845.22L512.25 839.81L527.82 839.20L537.72 839.75L541.81 840.72L551.30 843.61L550.83 847.00L566.54 851.60L562.17 869.85L561.12 874.25L556.46 887.89L554.85 889.54L553.24 891.18L551.56 896.68L550.65 902.93L539.19 904.13L535.85 905.23L530.18 907.11L529.42 912.88L522.39 914.21L522.01 916.50L521.08 922.15L513.43 924.52L506.48 926.68L495.49 927.92L493.04 927.02L490.60 926.12L480.21 925.91L469.52 925.71L467.25 928.19L474.76 938.48L480.35 945.32L461.24 958.58L445.76 967.44L428.53 977.31L425.00 979.33L424.77 986.73L427.15 987.74L432.21 1004.99L434.44 1009.99L437.95 1019.63L440.82 1026.42L443.07 1031.46L445.47 1035.95L445.14 1039.20L444.70 1043.50L444.29 1047.57L449.63 1045.01L453.57 1043.12L456.26 1041.84L459.57 1040.25L461.72 1039.22L471.01 1034.78L475.66 1032.55L482.01 1034.48L488.06 1036.32L496.28 1041.49L504.43 1046.61L509.74 1047.19L511.96 1047.43L517.45 1048.02L519.80 1039.55L524.18 1037.81L525.16 1034.63L526.40 1030.64L528.95 1025.68L535.46 1024.15L536.41 1021.29L537.80 1017.13L538.61 1009.65L539.82 1004.42L539.64 1001.92L539.03 993.77L540.64 991.99L545.32 990.33L547.43 989.57L552.55 989.52L555.96 989.49L558.52 989.46L562.94 989.42L567.30 990.58L573.28 994.32L577.16 995.01L581.12 992.89L582.80 990.95L587.97 990.11L599.62 995.97L611.09 1001.74L617.55 1011.34L622.03 1009.58L627.99 1007.67L632.44 1006.28L637.22 1005.40L642.00 1002.71L651.41 1000.62L659.38 998.84L663.32 1001.77L666.68 1004.26L670.58 1007.15L672.74 1009.14L675.29 1011.50L678.68 1018.05L685.16 1016.44L688.55 1015.60L690.80 1015.04L695.48 1013.89L700.80 1012.57L696.73 1004.79L693.43 997.83L689.00 988.46L686.99 983.85L680.37 969.94L678.09 966.17L672.31 955.64L666.91 946.16L664.58 940.08L661.85 931.09L661.38 925.97L661.19 917.14L660.71 895.50L664.69 871.59L648.38 853.31L630.63 833.40L620.58 822.13L608.78 808.91L605.07 804.82L603.14 802.70L592.93 802.36L585.88 799.98L578.89 797.62L569.55 794.46L555.11 792.82L551.49 799.31L546.00 796.01Z" data-ward="13" /></svg>