<svg viewBox="0 0 1000.00 668.01" xmlns="http://www.w3.org/2000/svg"><style>.ward { fill: #e2e8f0; stroke: #fff; stroke-width: 0.5px; } .ward:hover { fill: #cbd5e1; }</style><path id="ward-16" class="ward" d="M179.91 248.01L173.61 235.09L171.55 230.73L169.27 226.17L165.11 225.07L158.69 226.26L154.64 228.21L150.65 230.14L147.42 231.69L144.16 233.26L139.35 236.02L134.22 238.53L130.84 240.18L126.46 242.21L122.16 244.42L118.19 245.99L111.98 247.91L107.97 248.89L103.66 249.84L99.66 251.16L94.96 251.54L91.28 252.24L86.88 251.52L82.49 251.33L78.62 252.25L74.52 253.31L70.71 254.92L66.91 257.53L61.29 260.26L53.72 263.39L50.20 264.84L44.53 267.44L39.76 268.51L33.93 269.92L18.64 276.65L15.99 280.56L7.35 285.68L0.00 290.03L13.44 335.65L19.80 333.71L25.47 331.18L35.22 328.16L39.74 334.49L46.43 334.04L50.28 332.55L69.23 326.30L72.66 324.43L94.39 317.63L97.91 316.15L104.63 313.32L108.76 311.30L112.34 310.24L115.19 313.03L117.04 319.08L120.06 326.74L126.99 333.45L133.74 343.71L136.67 353.32L147.66 352.76L150.59 357.34L155.67 362.65L158.06 367.04L162.47 366.35L172.47 361.36L190.80 354.56L201.18 349.03L206.41 347.24L217.61 343.44L216.89 338.66L215.05 334.77L213.35 331.19L207.40 318.12L204.52 310.19L200.68 300.32L196.51 289.67L193.76 280.32L191.52 275.43L183.96 257.00L182.32 253.01L179.91 248.01Z" data-ward="16" /><path id="ward-12" class="ward" d="M318.65 501.08L317.11 497.22L319.26 493.88L318.33 489.31L319.69 484.85L323.60 483.73L329.14 483.28L333.78 482.70L337.99 479.32L336.81 474.92L334.57 466.39L333.63 461.04L333.57 457.45L333.37 453.19L333.06 436.42L335.01 430.68L334.25 425.84L333.86 422.18L332.09 419.05L328.07 409.24L326.33 404.85L324.31 399.19L322.75 395.64L319.32 389.23L316.92 384.40L315.25 381.01L312.30 370.12L291.57 372.40L282.89 374.52L262.94 380.65L245.22 393.72L241.51 395.93L237.09 398.36L231.76 401.34L232.64 404.93L233.78 409.56L235.55 416.73L237.93 427.23L238.94 432.59L239.84 437.32L241.90 448.25L246.27 461.28L252.61 478.91L258.95 496.56L260.73 502.79L263.98 524.66L271.68 527.35L277.17 525.94L281.68 524.52L293.85 520.52L302.41 515.27L302.11 510.84L305.98 508.42L311.80 506.54L315.76 506.94L318.65 501.08Z" data-ward="12" /><path id="ward-10" class="ward" d="M592.39 338.34L590.40 331.11L589.03 326.21L588.10 320.05L586.32 314.21L582.98 303.24L577.91 300.39L573.70 301.61L567.06 303.70L549.25 309.22L538.27 312.24L532.76 313.65L494.22 324.80L480.80 328.68L425.54 344.97L428.13 356.25L431.71 362.21L435.28 375.46L437.11 382.28L438.69 388.17L439.74 392.08L441.77 399.68L443.54 408.64L444.43 412.92L446.48 417.32L449.30 423.49L450.69 426.79L454.34 429.16L461.43 442.23L464.80 447.12L468.32 462.83L467.63 473.29L468.77 479.14L472.29 482.23L476.41 480.20L484.99 475.95L483.90 471.99L487.29 470.50L493.51 467.85L499.73 465.20L504.28 462.29L516.41 461.01L520.85 460.54L531.43 458.59L537.45 457.96L541.51 457.46L562.94 457.28L585.60 457.61L596.01 457.76L604.09 454.97L633.23 444.89L639.61 442.56L664.25 433.57L679.20 428.11L677.56 423.48L676.54 415.73L676.59 408.78L675.61 401.22L674.44 396.04L672.22 386.34L669.81 380.50L668.10 377.05L666.38 373.59L664.27 369.05L662.40 365.02L658.27 356.09L655.35 349.40L653.64 337.71L651.33 330.33L643.12 331.82L609.36 338.42L592.39 338.34Z" data-ward="10" /><path id="ward-14" class="ward" d="M237.93 427.23L235.55 416.73L233.78 409.56L232.64 404.93L231.76 401.34L228.46 398.06L223.35 399.20L205.34 404.09L192.81 408.52L184.83 410.94L170.70 415.68L166.52 418.21L162.65 422.54L149.97 426.71L142.20 427.40L137.27 425.86L129.68 428.72L120.48 430.95L110.73 434.49L151.60 525.40L155.30 529.65L156.18 534.46L159.23 538.97L181.52 574.86L185.25 575.50L189.04 574.82L193.65 582.83L203.81 612.02L207.47 622.55L193.98 633.22L191.13 636.67L197.04 639.67L197.90 644.92L203.76 649.66L207.93 646.37L212.22 645.33L217.88 642.81L214.61 638.79L212.75 632.25L216.38 627.67L218.92 624.47L222.92 619.61L228.39 619.69L236.24 619.81L238.61 624.53L243.84 634.94L246.00 641.44L248.52 649.02L250.21 654.09L250.44 658.41L255.02 660.32L261.97 657.91L268.80 655.55L270.67 651.49L273.50 644.49L278.72 641.58L279.95 633.62L285.83 631.16L291.95 629.71L296.71 627.46L288.74 610.85L283.73 600.42L276.33 581.25L273.98 562.70L270.86 552.94L267.74 543.18L265.49 536.06L263.98 530.60L263.98 524.66L260.73 502.79L258.95 496.56L252.61 478.91L246.27 461.28L241.90 448.25L239.84 437.32L238.94 432.59L237.93 427.23Z" data-ward="14" /><path id="ward-13" class="ward" d="M328.74 253.20L328.16 249.56L327.42 244.88L326.73 240.58L328.12 226.69L324.17 227.06L318.84 227.32L315.11 227.50L310.86 227.70L306.57 227.90L302.99 228.07L299.08 228.26L296.29 231.87L295.69 240.32L292.86 253.15L276.69 254.81L271.50 249.62L259.54 252.74L247.68 257.93L229.49 263.85L226.18 266.60L222.91 270.09L219.26 272.10L198.20 279.92L193.76 280.32L196.51 289.67L200.68 300.32L204.52 310.19L207.40 318.12L213.35 331.19L215.05 334.77L216.89 338.66L217.61 343.44L206.41 347.24L201.18 349.03L190.80 354.56L172.47 361.36L162.47 366.35L158.06 367.04L155.67 362.65L150.59 357.34L147.66 352.76L136.67 353.32L133.74 343.71L126.99 333.45L120.06 326.74L117.04 319.08L115.19 313.03L112.34 310.24L108.76 311.30L104.63 313.32L97.91 316.15L94.39 317.63L72.66 324.43L69.23 326.30L74.71 338.70L76.76 345.15L77.72 348.73L79.76 355.96L84.58 367.09L86.82 371.66L88.75 375.73L92.10 384.83L93.48 389.44L96.35 397.06L99.21 404.68L103.00 406.12L106.52 404.18L110.06 402.25L113.98 400.55L118.57 399.19L123.35 397.30L125.81 400.72L128.14 407.21L129.88 412.26L132.10 417.96L135.23 421.19L137.27 425.86L142.20 427.40L149.97 426.71L162.65 422.54L166.52 418.21L170.70 415.68L184.83 410.94L192.81 408.52L205.34 404.09L223.35 399.20L228.46 398.06L231.76 401.34L237.09 398.36L241.51 395.93L245.22 393.72L262.94 380.65L282.89 374.52L291.57 372.40L312.30 370.12L318.07 368.05L341.52 367.03L347.62 366.75L343.74 325.12L342.87 321.50L342.00 317.92L340.88 313.33L339.98 309.65L338.96 305.44L337.87 300.95L336.85 296.75L335.77 292.33L334.73 288.05L333.48 282.90L332.63 277.60L331.88 272.91L331.23 268.80L330.59 264.81L329.98 260.98L329.37 257.12L328.74 253.20Z" data-ward="13" /><path id="ward-11" class="ward" d="M402.39 494.63L410.17 494.16L416.77 492.23L421.02 490.45L424.57 488.96L453.19 482.61L461.05 480.86L468.77 479.14L467.63 473.29L468.32 462.83L464.80 447.12L461.43 442.23L454.34 429.16L450.69 426.79L449.30 423.49L446.48 417.32L444.43 412.92L443.54 408.64L441.77 399.68L439.74 392.08L438.69 388.17L437.11 382.28L435.28 375.46L431.71 362.21L428.13 356.25L425.54 344.97L405.97 349.61L382.14 358.15L361.49 364.39L347.62 366.75L341.52 367.03L318.07 368.05L312.30 370.12L315.25 381.01L316.92 384.40L319.32 389.23L322.75 395.64L324.31 399.19L326.33 404.85L328.07 409.24L332.09 419.05L333.86 422.18L334.25 425.84L335.01 430.68L333.06 436.42L333.37 453.19L333.57 457.45L333.63 461.04L334.57 466.39L336.81 474.92L337.99 479.32L333.78 482.70L329.14 483.28L323.60 483.73L319.69 484.85L318.33 489.31L319.26 493.88L317.11 497.22L318.65 501.08L315.76 506.94L311.80 506.54L305.98 508.42L302.11 510.84L302.41 515.27L293.85 520.52L281.68 524.52L277.17 525.94L271.68 527.35L263.98 524.66L263.98 530.60L265.49 536.06L267.74 543.18L270.86 552.94L273.98 562.70L276.33 581.25L283.73 600.42L288.74 610.85L296.71 627.46L300.67 636.35L309.46 634.90L338.15 630.14L333.43 607.55L332.61 603.62L330.68 598.21L324.13 583.02L322.49 579.39L321.69 572.09L331.66 564.44L331.05 560.25L328.54 556.77L318.27 542.50L319.97 535.41L324.61 531.02L334.52 531.06L339.09 527.38L346.48 521.43L352.04 513.70L351.61 510.04L346.71 501.55L364.44 494.56L391.94 494.79L398.82 494.85L402.39 494.63Z" data-ward="11" /><path id="ward-7" class="ward" d="M754.13 122.23L746.79 124.23L743.16 125.25L737.14 125.32L732.24 124.66L725.06 126.81L721.72 128.32L716.53 130.73L713.33 133.21L705.56 136.74L702.05 137.76L694.55 140.24L692.65 144.60L695.34 155.31L696.57 164.01L690.55 165.87L686.81 166.29L683.85 168.66L684.76 173.01L686.29 176.26L684.26 179.36L682.92 185.99L676.18 187.42L673.12 189.35L669.30 190.00L662.24 191.77L654.85 193.69L652.04 187.67L650.75 181.22L647.40 172.12L647.01 167.06L645.90 162.97L644.31 158.44L643.21 154.25L642.19 150.35L641.46 145.48L637.76 123.31L633.19 124.37L626.84 127.33L621.60 129.77L615.97 132.40L600.00 146.31L598.21 150.25L599.18 155.58L593.02 161.49L586.21 163.53L571.05 168.88L572.55 173.14L573.39 178.08L574.08 183.72L575.24 187.54L577.94 196.51L581.67 208.88L585.33 215.49L588.69 219.27L591.85 222.51L594.41 226.33L598.25 231.77L607.31 239.68L609.83 249.68L611.02 253.55L612.21 257.43L614.90 263.97L621.96 269.87L623.77 274.41L626.63 284.58L644.61 280.25L651.52 278.32L667.50 273.84L682.04 269.77L699.17 264.66L721.54 257.99L732.19 254.81L739.90 252.44L754.12 248.49L769.99 244.08L792.03 240.98L797.84 240.16L796.64 234.11L791.60 226.18L789.33 222.99L791.56 219.92L793.70 216.99L787.27 206.07L770.10 169.87L768.54 166.56L757.99 140.23L754.89 125.82L754.13 122.23Z" data-ward="7" /><path id="ward-4" class="ward" d="M396.97 114.41L393.68 108.05L388.64 110.00L385.59 113.51L386.40 117.02L384.80 120.57L371.29 126.46L368.20 128.56L370.36 139.57L368.74 142.79L368.49 147.76L368.99 160.68L364.52 164.53L365.79 170.13L367.64 175.41L372.43 195.95L402.15 185.85L400.13 192.39L404.62 193.08L405.50 197.33L408.22 205.19L410.05 213.30L411.48 218.17L412.29 222.90L414.13 231.11L416.24 235.09L419.20 240.95L423.31 242.66L430.58 240.31L437.07 237.82L441.85 235.63L445.88 233.66L452.37 232.44L454.40 237.67L463.16 236.70L465.18 242.63L466.28 248.15L468.44 251.55L468.14 255.22L468.02 258.87L470.66 261.32L473.31 265.03L477.64 267.74L481.33 266.20L490.49 263.80L496.77 257.00L501.41 257.32L505.55 259.51L509.74 265.30L512.53 270.81L514.75 274.80L527.06 301.28L532.76 313.65L538.27 312.24L549.25 309.22L567.06 303.70L573.70 301.61L577.91 300.39L585.01 298.32L589.96 296.52L607.92 291.15L614.43 288.83L620.93 286.51L626.63 284.58L623.77 274.41L621.96 269.87L614.90 263.97L612.21 257.43L611.02 253.55L609.83 249.68L607.31 239.68L598.25 231.77L594.41 226.33L591.85 222.51L588.69 219.27L585.33 215.49L581.67 208.88L577.94 196.51L575.24 187.54L574.08 183.72L573.39 178.08L572.55 173.14L571.05 168.88L566.58 165.58L564.20 162.27L560.97 156.35L555.91 147.75L551.87 147.95L543.12 151.26L537.92 153.27L525.81 159.91L519.81 162.02L516.27 163.59L511.35 165.70L507.20 166.15L501.67 166.51L496.30 168.65L489.71 170.85L486.26 171.74L477.09 172.39L470.20 172.26L465.87 169.43L464.33 163.42L465.33 159.89L464.92 153.46L462.94 148.61L460.93 143.63L459.02 138.24L438.94 142.74L431.78 143.77L428.44 142.25L423.87 130.55L421.76 126.84L420.54 122.94L419.50 118.15L414.33 111.45L409.11 113.82L403.48 114.61L396.97 114.41Z" data-ward="4" /><path id="ward-5" class="ward" d="M470.11 0.00L458.02 2.63L451.48 1.66L449.24 5.87L447.00 10.09L439.72 12.22L429.04 16.28L424.77 17.86L418.30 20.24L412.07 22.53L408.54 23.83L402.21 26.16L395.89 28.49L388.14 31.26L371.27 37.30L367.90 38.75L355.86 42.93L348.89 45.45L341.60 44.54L337.31 44.32L329.67 42.57L320.92 41.99L312.61 42.37L308.30 43.46L300.30 44.90L289.89 46.83L289.02 54.75L288.14 62.67L302.42 136.96L303.41 143.54L302.47 159.91L307.75 159.68L311.66 175.92L326.48 174.93L331.36 174.28L336.07 168.17L337.92 171.75L350.80 170.02L354.28 172.16L357.67 170.68L361.46 170.27L365.79 170.13L364.52 164.53L368.99 160.68L368.49 147.76L368.74 142.79L370.36 139.57L368.20 128.56L371.29 126.46L384.80 120.57L386.40 117.02L385.59 113.51L388.64 110.00L393.68 108.05L396.97 114.41L403.48 114.61L409.11 113.82L414.33 111.45L419.50 118.15L420.54 122.94L421.76 126.84L423.87 130.55L428.44 142.25L431.78 143.77L438.94 142.74L459.02 138.24L460.93 143.63L462.94 148.61L464.92 153.46L465.33 159.89L464.33 163.42L465.87 169.43L470.20 172.26L477.09 172.39L486.26 171.74L480.56 142.53L468.63 115.24L468.46 111.58L471.14 93.31L474.16 84.50L477.76 81.11L486.74 78.86L512.04 75.82L526.26 72.12L528.32 65.32L530.87 56.89L528.60 42.17L514.24 42.74L507.33 32.80L497.37 32.42L490.18 15.78L489.18 12.20L485.47 5.87L480.04 3.24L470.11 0.00Z" data-ward="5" /><path id="ward-6" class="ward" d="M788.86 99.51L777.68 106.95L797.61 98.96L800.79 107.77L803.97 116.59L804.73 120.44L805.81 125.07L807.45 128.63L809.64 133.47L809.86 138.00L810.36 144.03L813.64 153.91L812.61 159.56L813.65 163.25L816.89 169.32L818.94 176.62L819.92 180.46L820.90 184.31L826.65 184.97L831.73 182.47L835.22 181.30L838.53 183.46L843.92 182.55L848.72 180.61L852.11 177.03L855.63 174.46L860.15 173.47L868.58 171.94L870.10 177.28L875.79 178.94L879.36 176.87L878.79 170.48L877.72 164.98L878.56 161.41L879.65 156.96L880.21 150.94L880.17 144.71L879.60 139.97L879.06 136.24L877.43 131.35L877.00 124.58L876.20 119.72L874.82 115.75L872.17 111.19L869.95 102.57L868.61 94.95L867.06 88.92L865.09 84.04L861.30 81.59L859.81 76.53L858.71 72.80L863.05 69.98L868.45 69.02L872.02 68.19L875.63 67.57L879.23 66.90L885.14 65.38L888.69 63.68L889.41 59.39L893.08 58.10L896.54 57.00L900.24 56.09L899.11 49.64L896.31 43.67L891.67 33.75L889.56 29.23L887.86 25.43L884.10 25.49L878.59 26.86L873.47 28.13L860.31 31.54L855.34 32.83L847.55 34.60L840.44 36.21L833.52 37.78L826.33 39.79L822.14 42.13L818.29 42.37L813.25 42.68L806.60 44.26L801.66 45.43L806.14 55.67L806.18 72.87L810.54 85.06L813.08 92.16L796.92 97.06L788.86 99.51Z M543.88 82.92L536.50 85.41L534.62 79.47L531.70 73.79L526.26 72.12L512.04 75.82L486.74 78.86L477.76 81.11L474.16 84.50L471.14 93.31L468.46 111.58L468.63 115.24L480.56 142.53L486.26 171.74L489.71 170.85L496.30 168.65L501.67 166.51L507.20 166.15L511.35 165.70L516.27 163.59L519.81 162.02L525.81 159.91L537.92 153.27L543.12 151.26L551.87 147.95L555.91 147.75L560.97 156.35L564.20 162.27L566.58 165.58L571.05 168.88L586.21 163.53L593.02 161.49L599.18 155.58L598.21 150.25L600.00 146.31L615.97 132.40L621.60 129.77L626.84 127.33L633.19 124.37L637.76 123.31L641.46 145.48L642.19 150.35L643.21 154.25L644.31 158.44L645.90 162.97L647.01 167.06L647.40 172.12L650.75 181.22L652.04 187.67L654.85 193.69L662.24 191.77L669.30 190.00L673.12 189.35L676.18 187.42L682.92 185.99L684.26 179.36L686.29 176.26L684.76 173.01L683.85 168.66L686.81 166.29L690.55 165.87L696.57 164.01L695.34 155.31L692.65 144.60L694.55 140.24L702.05 137.76L705.56 136.74L713.33 133.21L716.53 130.73L721.72 128.32L725.06 126.81L732.24 124.66L737.14 125.32L743.16 125.25L746.79 124.23L754.13 122.23L757.79 120.76L765.17 117.79L768.85 115.98L769.98 112.40L777.68 106.95L783.27 103.23L788.86 99.51L777.29 104.97L769.61 105.35L765.89 106.47L761.68 107.75L755.73 109.55L749.50 112.32L743.91 114.80L734.19 116.57L728.09 119.09L723.49 120.98L714.87 126.68L711.59 128.71L704.85 129.90L695.91 130.07L688.40 130.22L682.82 129.81L673.49 130.07L671.73 125.87L666.36 134.66L653.25 134.71L650.26 121.17L648.64 114.19L642.72 111.78L628.73 110.99L616.30 110.29L613.28 105.71L608.14 77.12L596.13 76.53L591.23 73.80L582.83 73.71L570.06 77.79L564.50 78.84L557.44 80.17L551.26 80.44L543.88 82.92Z" data-ward="6" /><path id="ward-9" class="ward" d="M990.00 243.11L1000.00 225.42L984.95 226.68L975.78 228.43L964.74 232.15L961.38 233.37L947.33 236.90L934.00 240.45L925.12 242.82L919.34 244.36L899.67 245.72L895.10 245.93L889.48 246.18L875.93 244.07L858.43 241.34L853.00 240.80L844.60 240.55L835.80 240.28L831.05 240.25L821.55 240.18L816.80 240.15L812.07 240.12L802.57 240.06L797.84 240.16L792.03 240.98L769.99 244.08L754.12 248.49L739.90 252.44L732.19 254.81L721.54 257.99L699.17 264.66L682.04 269.77L667.50 273.84L651.52 278.32L644.61 280.25L626.63 284.58L620.93 286.51L614.43 288.83L607.92 291.15L589.96 296.52L585.01 298.32L577.91 300.39L582.98 303.24L586.32 314.21L588.10 320.05L589.03 326.21L590.40 331.11L592.39 338.34L609.36 338.42L643.12 331.82L651.33 330.33L653.64 337.71L655.35 349.40L658.27 356.09L662.40 365.02L664.27 369.05L666.38 373.59L668.10 377.05L669.81 380.50L672.22 386.34L674.44 396.04L675.61 401.22L676.59 408.78L676.54 415.73L677.56 423.48L679.20 428.11L684.04 426.32L692.20 421.11L696.79 420.01L702.82 418.57L719.54 414.58L719.31 409.35L711.33 381.83L708.48 372.01L705.94 363.27L704.69 358.97L699.88 345.22L706.34 341.35L708.75 338.43L711.80 334.75L717.23 333.20L721.11 332.05L724.86 330.94L723.72 324.07L728.80 322.50L731.81 331.12L735.64 337.94L738.86 343.68L751.35 341.40L757.21 343.57L764.76 340.86L768.37 339.00L778.91 338.30L798.43 337.00L818.55 326.42L825.15 328.38L837.02 322.22L834.31 317.11L832.50 313.71L826.50 293.21L829.26 290.75L834.43 288.51L839.73 286.39L843.72 287.41L848.04 286.26L847.82 282.24L852.73 276.79L858.61 270.27L877.18 266.30L889.04 262.33L908.50 259.52L917.78 261.80L925.61 260.26L939.52 258.24L948.62 255.65L977.38 247.47L990.00 243.11Z" data-ward="9" /><path id="ward-2" class="ward" d="M303.41 143.54L302.42 136.96L288.14 62.67L283.29 63.79L279.56 63.93L272.51 64.32L264.05 64.79L260.40 66.42L247.06 69.44L252.02 80.90L245.98 82.80L239.50 84.84L233.48 86.56L227.43 88.41L212.76 92.89L211.27 99.77L204.75 102.91L199.15 105.93L189.86 110.80L184.67 113.53L186.07 119.63L185.46 124.40L187.74 133.79L188.53 139.10L189.66 146.48L188.36 150.00L188.29 155.49L189.40 159.09L190.91 162.78L193.13 167.98L194.75 172.02L197.48 174.64L198.33 178.30L199.01 181.83L200.72 186.25L203.72 192.28L205.16 195.75L207.71 199.97L209.70 203.53L212.55 214.17L214.60 217.15L217.93 225.14L214.22 228.20L215.00 231.95L216.78 237.20L214.63 240.43L200.57 243.50L179.91 248.01L182.32 253.01L183.96 257.00L191.52 275.43L193.76 280.32L198.20 279.92L219.26 272.10L222.91 270.09L226.18 266.60L229.49 263.85L247.68 257.93L259.54 252.74L271.50 249.62L276.69 254.81L292.86 253.15L295.69 240.32L296.29 231.87L299.08 228.26L302.99 228.07L306.57 227.90L310.86 227.70L315.11 227.50L318.84 227.32L324.17 227.06L328.12 226.69L329.87 216.12L335.15 214.26L341.71 211.49L347.30 207.77L352.71 205.70L357.98 204.64L363.21 202.04L366.64 200.34L372.43 195.95L367.64 175.41L365.79 170.13L361.46 170.27L357.67 170.68L354.28 172.16L350.80 170.02L337.92 171.75L336.07 168.17L331.36 174.28L326.48 174.93L311.66 175.92L307.75 159.68L302.47 159.91L303.41 143.54Z" data-ward="2" /><path id="ward-1" class="ward" d="M217.93 225.14L214.60 217.15L212.55 214.17L209.70 203.53L207.71 199.97L205.16 195.75L203.72 192.28L200.72 186.25L199.01 181.83L198.33 178.30L197.48 174.64L194.75 172.02L193.13 167.98L190.91 162.78L189.40 159.09L188.29 155.49L188.36 150.00L189.66 146.48L188.53 139.10L187.74 133.79L185.46 124.40L186.07 119.63L184.67 113.53L178.03 117.27L169.44 121.63L160.38 132.45L150.22 138.45L144.53 141.81L139.97 143.38L133.33 145.66L127.88 153.37L124.76 155.40L121.05 157.82L121.20 163.27L115.96 171.50L115.59 176.14L116.67 181.54L117.59 186.15L112.70 189.66L104.75 195.36L93.74 203.26L91.28 206.34L83.73 215.78L70.63 223.64L68.17 229.50L61.02 231.81L53.16 234.36L47.51 237.99L44.28 240.07L40.92 244.65L33.02 255.42L33.93 269.92L39.76 268.51L44.53 267.44L50.20 264.84L53.72 263.39L61.29 260.26L66.91 257.53L70.71 254.92L74.52 253.31L78.62 252.25L82.49 251.33L86.88 251.52L91.28 252.24L94.96 251.54L99.66 251.16L103.66 249.84L107.97 248.89L111.98 247.91L118.19 245.99L122.16 244.42L126.46 242.21L130.84 240.18L134.22 238.53L139.35 236.02L144.16 233.26L147.42 231.69L150.65 230.14L154.64 228.21L158.69 226.26L165.11 225.07L169.27 226.17L171.55 230.73L173.61 235.09L179.91 248.01L200.57 243.50L214.63 240.43L216.78 237.20L215.00 231.95L214.22 228.20L217.93 225.14Z" data-ward="1" /><path id="ward-15" class="ward" d="M69.23 326.30L50.28 332.55L46.43 334.04L39.74 334.49L35.22 328.16L25.47 331.18L19.80 333.71L13.44 335.65L115.70 668.01L136.64 665.35L153.13 658.31L160.84 653.92L170.66 648.33L181.87 641.95L191.13 636.67L193.98 633.22L207.47 622.55L203.81 612.02L193.65 582.83L189.04 574.82L185.25 575.50L181.52 574.86L159.23 538.97L156.18 534.46L155.30 529.65L151.60 525.40L110.73 434.49L120.48 430.95L129.68 428.72L137.27 425.86L135.23 421.19L132.10 417.96L129.88 412.26L128.14 407.21L125.81 400.72L123.35 397.30L118.57 399.19L113.98 400.55L110.06 402.25L106.52 404.18L103.00 406.12L99.21 404.68L96.35 397.06L93.48 389.44L92.10 384.83L88.75 375.73L86.82 371.66L84.58 367.09L79.76 355.96L77.72 348.73L76.76 345.15L74.71 338.70L69.23 326.30Z" data-ward="15" /><path id="ward-3" class="ward" d="M419.20 240.95L416.24 235.09L414.13 231.11L412.29 222.90L411.48 218.17L410.05 213.30L408.22 205.19L405.50 197.33L404.62 193.08L400.13 192.39L402.15 185.85L372.43 195.95L366.64 200.34L363.21 202.04L357.98 204.64L352.71 205.70L347.30 207.77L341.71 211.49L335.15 214.26L329.87 216.12L328.12 226.69L326.73 240.58L327.42 244.88L328.16 249.56L328.74 253.20L329.37 257.12L329.98 260.98L330.59 264.81L331.23 268.80L331.88 272.91L332.63 277.60L333.48 282.90L334.73 288.05L335.77 292.33L336.85 296.75L337.87 300.95L338.96 305.44L339.98 309.65L340.88 313.33L342.00 317.92L342.87 321.50L343.74 325.12L347.62 366.75L361.49 364.39L382.14 358.15L405.97 349.61L425.54 344.97L480.80 328.68L494.22 324.80L532.76 313.65L527.06 301.28L514.75 274.80L512.53 270.81L509.74 265.30L505.55 259.51L501.41 257.32L496.77 257.00L490.49 263.80L481.33 266.20L477.64 267.74L473.31 265.03L470.66 261.32L468.02 258.87L468.14 255.22L468.44 251.55L466.28 248.15L465.18 242.63L463.16 236.70L454.40 237.67L452.37 232.44L445.88 233.66L441.85 235.63L437.07 237.82L430.58 240.31L423.31 242.66L419.20 240.95Z" data-ward="3" /><path id="ward-8" class="ward" d="M777.68 106.95L769.98 112.40L768.85 115.98L765.17 117.79L757.79 120.76L754.13 122.23L754.89 125.82L757.99 140.23L768.54 166.56L770.10 169.87L787.27 206.07L793.70 216.99L791.56 219.92L789.33 222.99L791.60 226.18L796.64 234.11L797.84 240.16L802.57 240.06L812.07 240.12L816.80 240.15L821.55 240.18L831.05 240.25L835.80 240.28L844.60 240.55L853.00 240.80L858.43 241.34L875.93 244.07L889.48 246.18L895.10 245.93L899.67 245.72L919.34 244.36L925.12 242.82L934.00 240.45L947.33 236.90L961.38 233.37L964.74 232.15L975.78 228.43L984.95 226.68L981.20 218.17L975.59 205.46L974.35 200.00L970.67 191.07L967.43 185.87L963.51 177.38L960.28 167.03L955.34 155.25L947.44 138.40L945.85 135.02L936.97 124.39L925.83 120.09L923.34 115.98L916.59 102.52L915.18 98.27L910.19 83.16L905.52 69.06L900.24 56.09L896.54 57.00L893.08 58.10L889.41 59.39L888.69 63.68L885.14 65.38L879.23 66.90L875.63 67.57L872.02 68.19L868.45 69.02L863.05 69.98L858.71 72.80L859.81 76.53L861.30 81.59L865.09 84.04L867.06 88.92L868.61 94.95L869.95 102.57L872.17 111.19L874.82 115.75L876.20 119.72L877.00 124.58L877.43 131.35L879.06 136.24L879.60 139.97L880.17 144.71L880.21 150.94L879.65 156.96L878.56 161.41L877.72 164.98L878.79 170.48L879.36 176.87L875.79 178.94L870.10 177.28L868.58 171.94L860.15 173.47L855.63 174.46L852.11 177.03L848.72 180.61L843.92 182.55L838.53 183.46L835.22 181.30L831.73 182.47L826.65 184.97L820.90 184.31L819.92 180.46L818.94 176.62L816.89 169.32L813.65 163.25L812.61 159.56L813.64 153.91L810.36 144.03L809.86 138.00L809.64 133.47L807.45 128.63L805.81 125.07L804.73 120.44L803.97 116.59L800.79 107.77L797.61 98.96L777.68 106.95Z" data-ward="8" /></svg>