<svg viewBox="0 0 1000.00 373.72" xmlns="http://www.w3.org/2000/svg"><style>.ward { fill: #e2e8f0; stroke: #fff; stroke-width: 0.5px; } .ward:hover { fill: #cbd5e1; }</style><path id="ward-11" class="ward" d="M329.71 261.01L328.60 261.13L328.15 261.18L327.76 261.80L327.30 262.55L326.69 263.56L325.85 264.04L325.35 263.81L324.52 263.43L323.60 263.07L323.04 263.13L322.45 263.36L322.09 263.73L321.51 264.73L320.69 266.18L320.10 267.11L319.73 267.68L318.72 269.50L318.36 270.00L317.36 271.79L315.96 273.85L314.45 276.58L313.65 275.93L312.73 275.09L311.95 274.32L311.52 273.99L310.33 274.04L309.73 274.63L309.72 275.12L309.64 276.07L308.82 276.16L308.34 276.03L307.60 275.50L307.04 275.67L306.59 275.39L306.28 274.84L306.08 274.07L305.79 273.27L305.46 272.26L305.12 271.63L304.67 271.17L303.92 271.62L302.51 271.28L301.57 271.05L301.76 268.64L301.96 268.19L302.04 267.60L302.01 266.39L299.97 264.83L299.39 264.14L298.81 263.46L298.41 264.37L297.88 264.29L297.21 264.08L296.96 263.67L296.99 263.15L297.41 261.97L296.92 261.84L296.06 261.45L295.65 260.91L295.18 260.36L294.33 259.42L293.78 259.06L293.57 258.29L293.33 257.90L292.50 257.69L292.06 258.73L293.10 259.25L293.26 261.44L293.26 263.01L293.25 263.86L292.98 264.97L292.48 265.45L291.41 266.48L290.85 266.76L289.90 267.24L289.29 267.50L293.85 269.25L295.09 269.45L293.94 271.46L294.42 272.13L294.46 272.94L294.72 273.77L294.36 274.30L294.57 275.01L294.14 275.48L293.92 276.16L293.27 276.95L293.04 277.61L292.87 278.08L291.32 277.66L291.50 278.22L291.65 278.70L291.94 279.61L292.14 280.32L292.42 280.79L292.86 281.11L293.31 281.32L293.94 281.62L294.67 281.98L295.32 282.40L295.73 283.18L295.93 283.65L296.19 284.30L295.41 284.56L294.77 284.83L294.39 285.12L294.20 285.57L294.37 286.22L302.28 293.74L302.46 293.88L302.48 293.90L308.27 298.17L310.74 299.86L326.51 308.15L329.30 306.73L328.37 304.35L326.65 299.94L325.96 298.19L323.91 295.34L325.47 287.67L325.95 287.73L326.10 286.86L326.20 286.28L326.56 285.15L326.75 284.55L326.91 283.63L326.91 282.91L327.65 282.70L328.64 282.86L329.37 282.98L333.19 278.85L337.99 273.65L339.71 271.78L340.26 271.22L341.06 270.35L344.64 266.34L348.17 262.32L357.11 261.47L356.72 264.28L359.40 259.45L360.43 258.26L359.89 256.99L358.79 257.54L357.58 257.47L356.22 257.02L355.30 256.78L354.85 256.63L353.01 256.28L350.62 256.17L348.67 255.64L346.63 255.61L344.54 255.80L341.52 255.77L340.58 255.47L339.40 254.96L338.27 254.48L337.43 254.34L336.86 254.24L336.03 254.42L335.71 255.25L335.32 256.19L335.00 256.93L334.75 257.53L334.50 258.01L334.14 258.73L333.95 259.56L333.23 259.81L332.08 260.46L330.79 260.98L330.74 260.80L329.71 261.01Z" data-ward="11" /><path id="ward-6" class="ward" d="M218.07 148.05L215.12 145.76L214.63 145.38L214.15 144.96L213.70 144.59L211.97 143.19L211.56 142.78L210.66 141.96L210.18 141.47L209.45 140.73L208.75 140.00L207.56 139.06L207.03 138.64L206.82 139.14L206.38 140.23L206.04 141.43L205.94 142.56L205.83 143.72L205.42 144.93L204.99 145.55L204.29 146.25L203.72 146.82L202.82 148.17L202.47 148.98L202.10 149.26L201.94 150.87L202.10 152.15L202.22 153.08L202.32 154.64L202.53 157.66L202.64 158.14L202.97 159.74L203.15 162.01L203.46 162.66L203.51 164.98L203.93 166.07L204.48 168.08L204.71 170.00L205.11 171.44L205.94 172.33L206.72 173.05L208.22 174.32L209.27 175.20L208.66 175.41L208.17 175.54L207.66 175.69L206.86 176.00L206.05 176.59L205.59 177.14L205.15 177.67L204.67 177.89L204.21 177.90L202.20 178.90L200.35 179.64L199.90 179.82L199.14 180.08L198.43 180.32L197.95 181.16L197.13 182.61L195.11 182.54L193.85 183.40L192.80 185.45L192.58 185.95L192.79 186.52L193.34 187.98L193.95 188.20L194.56 188.43L195.22 188.62L195.69 189.23L196.03 190.13L196.73 191.26L197.29 191.93L197.80 192.54L198.28 193.04L198.45 193.55L199.41 193.88L199.66 194.41L199.68 195.14L199.62 195.74L199.60 196.42L199.57 197.05L199.55 197.61L199.18 198.22L198.76 198.53L198.37 198.81L198.35 200.25L198.69 201.62L199.98 203.63L201.52 203.68L202.11 204.18L202.58 204.88L203.67 205.96L203.55 206.60L202.98 207.55L202.41 207.75L201.84 207.96L199.50 207.79L198.49 208.20L198.25 208.98L198.17 209.57L197.72 211.26L197.28 212.66L196.85 214.04L198.34 214.18L198.86 214.04L201.04 214.05L202.52 213.59L203.78 213.48L203.91 214.30L206.63 214.48L207.75 214.56L208.26 214.59L209.78 214.67L209.96 215.97L210.45 219.43L210.47 220.06L211.12 220.22L211.78 220.15L212.32 220.05L213.01 219.92L213.96 219.57L214.21 218.82L214.31 218.28L214.49 217.31L214.60 216.78L214.61 215.73L214.78 215.11L215.63 215.15L216.17 215.15L217.00 215.10L217.83 215.00L218.38 214.89L218.88 214.91L219.68 214.99L220.16 215.13L220.72 215.23L221.26 215.26L221.73 214.90L222.18 214.21L222.64 214.03L223.48 213.65L224.43 212.70L225.15 211.99L225.77 211.81L226.39 211.29L227.14 210.62L228.18 209.63L228.77 209.10L229.29 208.33L229.29 207.57L229.65 206.72L230.11 205.63L230.55 205.18L230.79 204.26L231.21 203.83L231.15 202.68L231.94 201.50L233.04 199.46L233.48 199.34L233.62 198.43L235.12 197.27L235.71 196.83L235.69 196.17L235.64 194.76L235.70 192.65L235.81 190.41L235.90 188.67L233.94 186.49L234.17 184.04L235.99 183.33L235.72 181.81L235.02 178.04L233.92 175.96L233.40 173.18L230.38 173.63L230.59 171.18L228.43 169.89L228.01 168.93L228.39 168.16L228.97 167.47L227.89 165.61L228.55 165.19L229.52 164.57L229.15 163.57L229.18 162.53L229.24 160.90L229.54 160.04L230.62 159.27L231.47 158.67L231.73 157.86L230.84 156.31L230.01 156.03L229.06 155.70L228.15 155.39L227.18 154.25L227.18 149.89L227.98 149.24L228.64 148.96L229.53 148.57L229.99 148.21L230.40 147.97L231.52 147.34L232.43 146.52L232.71 143.00L232.07 142.83L231.24 142.62L230.75 142.78L230.42 142.74L229.79 143.06L229.71 143.90L229.61 144.93L228.65 145.51L224.21 148.18L222.34 149.31L220.83 150.21L218.07 148.05Z" data-ward="6" /><path id="ward-13" class="ward" d="M258.06 248.41L256.82 248.51L256.34 248.94L255.44 248.87L254.95 249.73L254.64 249.32L254.02 249.16L253.56 249.11L253.25 249.54L252.40 249.86L252.09 249.99L251.86 249.80L251.40 249.90L250.84 249.91L250.78 249.21L250.30 249.27L249.96 248.89L249.59 249.53L249.15 248.91L248.71 249.08L248.17 248.91L247.72 248.65L247.60 249.19L247.39 250.01L247.16 250.55L247.21 251.24L247.83 251.53L248.45 252.26L248.77 252.61L249.76 253.24L250.83 253.94L251.35 254.27L252.42 254.87L253.88 255.79L254.37 256.16L254.95 256.61L255.45 256.93L255.95 257.11L256.48 257.30L257.03 257.45L257.90 257.70L258.87 258.00L259.62 258.21L260.84 258.52L262.40 258.88L263.12 258.67L263.83 258.75L264.83 259.23L265.84 259.73L266.72 260.18L267.14 260.76L267.11 261.33L266.91 263.19L266.81 264.08L266.47 264.83L265.83 265.13L265.49 266.59L264.91 268.48L264.63 269.60L264.17 269.84L263.58 270.73L263.32 271.48L263.14 272.01L262.59 273.71L261.92 275.06L261.85 276.19L262.45 276.94L262.86 277.41L264.27 279.35L264.55 280.06L264.77 280.54L265.16 281.24L265.64 282.39L266.11 283.22L266.36 283.96L266.65 284.58L267.17 285.43L267.87 286.58L268.35 287.65L268.61 288.34L268.76 289.27L267.36 289.68L266.29 290.21L266.88 291.80L266.36 292.33L266.51 293.39L267.30 293.75L267.84 293.98L269.28 294.32L272.85 295.19L275.93 295.93L278.58 292.66L279.03 291.47L279.13 289.82L280.00 281.92L280.19 281.55L280.38 281.58L293.70 285.83L294.20 285.57L294.39 285.12L294.77 284.83L295.41 284.56L296.19 284.30L295.93 283.65L295.73 283.18L295.32 282.40L294.67 281.98L293.94 281.62L293.31 281.32L292.86 281.11L292.42 280.79L292.14 280.32L291.94 279.61L291.65 278.70L291.50 278.22L291.32 277.66L292.87 278.08L293.04 277.61L293.27 276.95L293.92 276.16L294.14 275.48L294.57 275.01L294.36 274.30L294.72 273.77L294.46 272.94L294.42 272.13L293.94 271.46L295.09 269.45L293.85 269.25L289.29 267.50L289.90 267.24L290.85 266.76L291.41 266.48L292.48 265.45L292.98 264.97L293.25 263.86L293.26 263.01L293.26 261.44L293.10 259.25L292.06 258.73L292.50 257.69L291.59 256.91L289.29 256.99L287.86 257.04L284.27 256.94L278.75 255.70L277.20 255.13L275.69 255.55L274.00 254.81L271.15 253.57L270.46 253.10L270.01 252.81L269.19 252.75L268.73 252.46L268.28 252.29L267.81 252.17L267.17 252.17L266.63 252.01L265.93 251.95L264.88 251.47L264.49 251.76L264.12 252.37L263.59 252.48L262.59 251.90L261.57 251.54L261.17 251.20L261.48 250.85L261.77 250.28L261.28 249.88L259.84 250.12L259.24 250.27L258.79 249.93L258.68 249.31L258.06 248.41Z" data-ward="13" /><path id="ward-23" class="ward" d="M140.23 199.68L140.42 199.13L140.69 198.35L140.73 196.81L140.78 196.11L140.87 195.14L140.85 194.69L140.83 193.99L140.81 193.36L140.77 192.25L140.94 190.80L141.34 190.36L141.29 189.57L139.72 189.19L138.99 189.14L138.41 188.89L137.08 188.69L136.06 188.57L135.28 188.53L134.12 188.47L133.51 188.41L132.80 188.34L131.98 188.30L131.32 188.38L130.64 188.46L129.87 188.66L129.07 188.87L128.35 189.29L127.47 189.69L125.76 190.94L123.78 192.02L122.68 192.75L122.01 193.20L121.79 194.10L121.70 195.74L123.03 198.35L123.07 199.60L121.35 199.82L119.31 198.88L118.71 199.25L118.14 197.58L115.95 196.58L115.26 197.50L114.52 197.65L114.16 198.20L113.80 199.17L113.24 198.89L112.25 198.39L110.99 198.27L110.65 198.81L109.98 198.75L109.80 199.19L109.67 201.03L109.49 202.25L108.59 202.50L108.61 203.07L108.69 203.64L108.71 204.31L108.19 204.74L108.01 205.56L107.95 206.29L107.91 206.97L107.76 208.42L107.34 209.59L107.06 210.33L106.68 211.19L106.22 211.50L106.07 212.10L105.51 212.99L104.81 213.32L104.23 213.53L103.60 213.96L102.97 214.39L102.13 214.77L99.35 214.89L98.56 215.25L97.99 215.57L97.49 216.01L97.12 216.34L96.56 216.33L95.74 216.35L94.95 216.26L94.06 216.22L94.06 217.40L94.25 219.05L94.30 219.52L94.43 220.61L94.20 221.96L94.09 222.83L93.99 223.61L93.89 224.34L93.83 224.86L93.72 225.42L94.53 225.57L94.96 225.69L99.47 226.27L104.90 226.66L107.86 226.87L112.20 226.37L121.72 224.88L124.50 225.28L128.01 226.38L131.01 227.05L134.27 226.88L137.38 227.39L138.24 227.53L141.18 227.43L141.70 227.41L142.83 227.37L144.11 227.27L145.73 227.33L147.27 227.38L147.77 227.47L148.50 227.60L149.54 227.69L150.84 227.71L150.89 226.93L150.94 226.20L150.93 224.87L150.86 223.92L150.78 223.04L150.45 222.68L150.17 220.81L149.96 219.95L149.99 219.44L149.92 218.87L151.46 218.01L151.35 215.99L151.30 215.00L151.46 213.32L151.75 212.41L152.42 211.78L152.78 211.48L153.22 210.89L153.32 209.81L152.43 208.70L151.83 208.47L151.30 208.15L150.95 207.73L151.30 207.03L151.34 206.41L150.85 205.86L150.49 205.39L149.98 204.35L149.60 203.84L149.20 203.31L148.41 202.57L147.42 202.89L146.59 202.89L145.97 202.98L145.42 203.20L144.89 203.45L144.17 203.35L143.19 203.13L142.93 202.72L142.30 202.66L141.12 203.37L139.97 203.25L139.21 203.21L138.29 203.27L137.64 203.07L138.14 202.40L138.58 201.80L139.15 201.06L139.74 200.31L140.23 199.68Z" data-ward="23" /><path id="ward-24" class="ward" d="M168.99 180.38L167.89 179.97L166.35 180.23L165.88 180.53L165.23 180.71L164.77 180.74L164.05 180.70L163.57 180.88L162.86 181.21L161.97 181.72L161.43 181.91L160.05 182.41L158.34 183.12L158.09 183.94L158.16 184.50L158.24 185.32L158.24 186.12L158.15 186.65L157.76 186.94L157.05 187.25L156.84 188.03L156.51 188.55L156.09 188.92L155.46 188.73L154.64 188.47L153.62 188.49L153.12 188.54L152.61 188.59L152.11 188.64L151.44 188.85L150.57 189.13L150.47 189.58L149.92 189.76L148.68 189.72L148.18 189.67L147.02 189.74L146.52 189.77L145.94 189.86L144.54 189.71L143.46 189.68L141.78 189.62L141.29 189.57L141.34 190.36L140.94 190.80L140.77 192.25L140.81 193.36L140.83 193.99L140.85 194.69L140.87 195.14L140.78 196.11L140.73 196.81L140.69 198.35L140.42 199.13L140.23 199.68L139.74 200.31L139.15 201.06L138.58 201.80L138.14 202.40L137.64 203.07L138.29 203.27L139.21 203.21L139.97 203.25L141.12 203.37L142.30 202.66L142.93 202.72L143.19 203.13L144.17 203.35L144.89 203.45L145.42 203.20L145.97 202.98L146.59 202.89L147.42 202.89L148.41 202.57L149.20 203.31L149.60 203.84L149.98 204.35L150.49 205.39L150.85 205.86L151.34 206.41L151.30 207.03L150.95 207.73L151.30 208.15L151.83 208.47L152.43 208.70L153.32 209.81L153.22 210.89L152.78 211.48L152.42 211.78L151.75 212.41L152.51 212.51L153.31 212.62L154.12 212.99L154.31 214.09L155.10 214.47L155.74 214.78L156.54 214.89L157.24 214.99L157.69 216.39L157.86 216.90L158.43 217.17L159.14 217.50L159.84 217.87L160.51 218.23L161.29 218.64L161.92 218.51L162.49 217.86L162.84 217.46L163.33 216.57L163.76 215.78L164.61 215.27L165.04 215.02L164.95 214.31L164.90 213.63L164.97 213.11L165.04 212.65L165.14 211.97L165.23 211.36L165.22 210.58L165.21 209.97L165.20 209.29L165.54 208.56L165.83 207.94L166.52 208.04L167.15 208.13L167.56 208.48L168.04 208.61L168.51 208.63L169.26 208.67L169.88 208.70L170.33 208.73L170.72 208.46L171.17 208.16L170.97 207.69L170.92 207.17L170.67 206.71L170.79 206.26L171.13 205.84L171.32 205.04L171.69 204.36L171.94 203.91L171.91 203.25L171.87 202.43L170.89 202.07L170.02 201.50L170.03 200.46L170.12 199.97L170.22 199.35L170.32 198.73L170.41 198.23L170.43 197.30L169.14 197.34L167.76 197.22L167.32 197.13L166.68 196.97L165.95 196.79L166.30 195.75L166.48 195.19L166.68 194.19L166.68 193.09L166.83 192.33L167.60 191.94L168.36 190.70L169.33 188.09L169.34 186.97L170.00 185.83L170.24 185.37L170.48 184.90L170.60 184.32L170.78 183.41L170.78 182.51L170.61 181.81L170.38 181.06L168.99 180.38Z" data-ward="24" /><path id="ward-8" class="ward" d="M275.24 212.83L274.77 213.25L273.97 217.33L272.68 218.30L271.79 221.06L270.95 220.84L269.85 220.84L269.27 220.63L268.86 219.53L268.07 219.57L266.95 219.64L266.46 219.38L265.65 218.94L265.31 218.55L264.97 218.16L264.56 217.81L264.15 217.46L263.86 217.11L263.37 216.74L262.34 216.54L261.56 216.49L259.44 216.63L258.96 216.65L257.58 216.57L256.99 216.57L256.45 216.74L255.86 217.29L255.30 217.61L254.80 217.66L254.47 217.18L253.99 216.73L253.19 216.26L252.65 216.19L252.02 216.02L251.28 215.76L251.16 214.78L250.52 214.53L250.05 214.39L249.48 214.24L248.86 214.59L248.04 214.73L247.11 214.33L246.97 214.78L246.81 215.32L246.58 216.09L246.35 217.07L246.08 218.13L243.96 217.75L243.15 217.61L242.41 217.56L242.13 218.25L241.31 218.15L241.25 218.96L240.68 219.07L240.53 219.51L240.06 219.67L239.97 220.17L240.17 220.70L239.97 222.01L242.75 222.94L242.46 223.81L242.13 224.33L241.91 224.96L241.76 225.70L241.57 226.42L241.35 227.20L241.56 227.75L242.15 227.92L242.49 228.23L242.35 229.07L242.10 229.77L241.64 230.89L241.31 231.63L241.84 232.28L242.35 232.46L244.21 233.15L245.14 233.51L247.36 234.68L248.86 235.70L249.71 235.80L251.16 236.60L251.63 236.83L254.18 238.03L255.26 238.48L256.02 238.54L258.45 239.73L259.15 240.09L262.29 241.75L264.71 242.67L266.55 243.27L269.05 244.48L271.19 244.78L273.92 245.05L276.24 245.87L278.59 246.84L280.41 247.87L283.27 249.45L286.78 251.09L288.43 251.82L288.88 250.83L289.21 249.88L289.39 249.27L289.68 247.50L289.93 245.97L290.07 245.47L290.56 245.19L292.15 245.00L292.74 244.92L293.20 244.85L293.83 244.67L294.26 244.32L294.37 243.85L294.33 243.30L294.02 242.54L292.30 240.48L291.96 240.14L291.56 239.39L291.17 238.67L290.88 238.13L290.69 236.76L290.49 236.28L290.11 235.21L289.96 234.77L289.64 233.49L289.44 232.62L289.84 231.92L289.35 231.50L288.58 231.49L287.99 231.40L287.53 231.07L286.87 230.03L286.44 229.79L285.37 229.48L284.86 229.26L284.27 229.21L283.88 228.66L283.87 227.96L284.34 226.92L285.06 225.75L285.51 225.20L285.89 224.84L287.08 223.78L287.86 222.97L288.24 222.32L288.11 220.83L287.96 219.57L287.88 219.03L287.81 218.57L288.10 217.79L288.48 216.99L287.48 216.59L286.90 216.33L285.93 215.95L285.00 215.63L284.40 215.30L284.37 214.47L281.53 213.49L280.79 214.40L275.24 212.83Z" data-ward="8" /><path id="ward-7" class="ward" d="M255.59 146.08L254.84 145.41L253.99 145.19L251.45 144.55L249.33 143.84L242.12 137.78L237.59 133.98L234.88 131.71L233.88 130.96L233.15 131.38L232.77 131.77L232.26 132.28L231.80 132.75L231.18 133.38L230.80 133.96L230.47 134.47L229.90 135.35L229.73 136.64L230.13 137.76L230.16 139.00L230.15 139.81L229.41 140.39L228.66 141.43L229.47 142.00L230.30 142.38L231.24 142.62L232.07 142.83L232.71 143.00L232.43 146.52L231.52 147.34L230.40 147.97L229.99 148.21L229.53 148.57L228.64 148.96L227.98 149.24L227.18 149.89L227.18 154.25L228.15 155.39L229.06 155.70L230.01 156.03L230.84 156.31L231.73 157.86L231.47 158.67L230.62 159.27L229.54 160.04L229.24 160.90L229.18 162.53L229.15 163.57L229.52 164.57L228.55 165.19L227.89 165.61L228.97 167.47L228.39 168.16L228.01 168.93L228.43 169.89L230.59 171.18L230.38 173.63L233.40 173.18L233.92 175.96L235.02 178.04L235.72 181.81L235.99 183.33L234.17 184.04L233.94 186.49L235.90 188.67L235.81 190.41L235.70 192.65L235.64 194.76L235.69 196.17L235.71 196.83L235.12 197.27L233.62 198.43L233.48 199.34L233.04 199.46L231.94 201.50L231.15 202.68L231.21 203.83L230.79 204.26L230.55 205.18L231.58 205.16L233.50 205.14L234.97 204.63L236.25 203.72L236.55 203.08L236.75 202.63L237.28 202.48L237.94 202.67L238.47 202.66L238.41 203.19L238.67 203.62L239.49 204.04L240.08 204.33L240.91 204.66L241.46 204.76L242.25 204.76L243.39 204.92L244.27 204.96L245.34 205.07L246.47 205.34L246.99 205.53L247.76 205.96L248.27 205.94L249.06 206.05L249.70 206.08L250.67 206.29L252.12 206.60L253.10 206.81L253.71 207.01L254.02 207.42L254.75 208.00L255.64 208.20L256.83 208.48L258.17 208.68L259.39 209.37L260.47 209.97L260.33 210.71L260.98 211.38L261.91 212.34L262.50 212.77L264.61 214.15L265.25 214.41L265.94 214.69L266.93 215.34L267.09 215.80L267.60 216.06L268.52 216.06L269.06 215.98L269.94 216.06L270.26 216.40L268.94 218.96L268.86 219.53L269.27 220.63L269.85 220.84L270.95 220.84L271.79 221.06L272.68 218.30L273.97 217.33L274.77 213.25L275.24 212.83L280.79 214.40L281.53 213.49L284.37 214.47L292.62 205.84L294.10 204.29L289.47 203.22L288.05 202.27L286.59 200.86L286.75 193.17L292.64 195.17L293.66 196.32L297.09 199.87L297.63 200.49L303.40 204.58L308.15 205.27L308.85 205.37L311.57 201.68L314.06 198.29L316.92 194.41L319.50 190.90L323.07 186.06L324.72 183.82L326.10 181.93L327.40 180.16L328.63 178.49L328.98 178.02L329.26 176.61L329.31 176.07L329.58 175.48L329.92 174.72L330.22 174.08L329.63 173.61L329.28 173.07L328.73 172.23L328.47 171.48L328.57 170.41L328.25 169.49L328.05 168.92L328.03 167.92L328.01 167.14L328.20 166.49L328.65 165.70L329.02 165.03L329.25 163.89L329.39 163.18L329.79 162.65L330.11 162.23L330.92 161.82L331.89 161.33L332.75 160.73L333.08 160.33L333.09 159.43L332.72 158.80L332.23 158.29L331.66 157.70L330.02 156.30L328.62 155.10L327.89 154.19L327.29 154.01L326.67 154.04L326.22 154.42L325.22 155.25L324.57 155.80L322.38 157.47L320.36 158.55L319.23 159.15L318.53 159.24L317.96 158.44L317.59 158.90L315.87 159.21L313.33 156.75L312.73 156.16L293.02 154.65L291.32 154.52L289.70 154.14L287.41 153.60L273.23 150.05L258.13 146.26L257.99 146.75L257.23 146.91L255.59 146.08Z" data-ward="7" /><path id="ward-12" class="ward" d="M237.47 229.27L235.85 228.35L235.32 228.27L234.30 228.15L232.73 227.98L231.66 227.86L230.97 227.89L229.82 228.04L228.87 228.31L227.88 228.57L227.41 228.67L226.35 228.91L225.83 229.03L224.66 229.27L223.38 229.54L222.54 229.75L221.93 229.82L221.12 229.87L220.62 229.86L220.11 229.83L218.47 229.59L217.19 229.40L215.36 229.12L213.96 228.80L212.76 229.42L212.61 230.18L212.47 230.72L212.35 231.22L212.21 231.80L212.14 232.71L212.75 232.84L213.62 232.88L214.51 232.93L215.14 233.02L215.78 233.10L216.57 233.21L217.18 233.29L217.64 233.29L218.30 233.26L220.58 233.35L221.00 233.50L221.60 233.72L221.67 234.58L221.68 235.25L221.58 235.77L221.67 236.38L221.75 236.89L222.10 237.31L222.61 237.39L223.49 237.54L224.03 237.84L223.95 238.51L224.81 239.15L224.79 239.64L224.76 240.13L225.90 240.34L226.68 240.70L227.45 241.06L227.25 241.64L226.91 242.22L226.71 242.94L226.61 243.40L226.49 244.00L226.33 244.86L226.22 245.66L225.83 245.98L226.31 246.23L226.73 246.48L226.89 247.12L227.40 247.40L228.05 247.63L228.12 248.99L228.62 249.50L230.03 250.01L231.43 250.19L231.84 249.97L232.16 249.31L232.56 249.06L233.27 249.11L233.65 249.55L234.22 249.98L234.72 250.05L235.23 250.07L236.48 250.32L237.07 250.25L237.74 250.50L239.18 251.71L239.80 250.89L239.52 250.14L239.56 249.10L240.63 249.17L241.19 249.19L241.48 248.66L242.25 248.61L242.77 247.77L243.05 248.41L243.42 247.52L243.68 247.14L244.96 248.22L246.06 248.32L247.72 248.65L248.17 248.91L248.71 249.08L249.15 248.91L249.59 249.53L249.96 248.89L250.30 249.27L250.78 249.21L250.84 249.91L251.40 249.90L251.86 249.80L252.09 249.99L252.40 249.86L253.25 249.54L253.56 249.11L254.02 249.16L254.64 249.32L254.95 249.73L255.44 248.87L256.34 248.94L256.82 248.51L258.06 248.41L258.68 249.31L258.79 249.93L259.24 250.27L259.84 250.12L261.28 249.88L261.77 250.28L261.48 250.85L261.17 251.20L261.57 251.54L262.59 251.90L263.59 252.48L264.12 252.37L264.49 251.76L264.88 251.47L265.93 251.95L266.63 252.01L267.17 252.17L267.81 252.17L268.28 252.29L268.73 252.46L269.19 252.75L270.01 252.81L270.46 253.10L271.15 253.57L274.00 254.81L275.69 255.55L277.20 255.13L278.75 255.70L284.27 256.94L287.86 257.04L289.29 256.99L291.59 256.91L292.50 257.69L293.33 257.90L293.57 258.29L293.78 259.06L294.33 259.42L295.18 260.36L295.65 260.91L296.06 261.45L296.92 261.84L297.41 261.97L296.99 263.15L296.96 263.67L297.21 264.08L297.88 264.29L298.41 264.37L298.81 263.46L299.39 264.14L299.97 264.83L302.01 266.39L302.04 267.60L301.96 268.19L301.76 268.64L301.57 271.05L302.51 271.28L303.92 271.62L304.67 271.17L305.12 271.63L305.46 272.26L305.79 273.27L306.08 274.07L306.28 274.84L306.59 275.39L307.04 275.67L307.60 275.50L308.34 276.03L308.82 276.16L309.64 276.07L309.72 275.12L309.73 274.63L310.33 274.04L311.52 273.99L311.95 274.32L312.73 275.09L313.65 275.93L314.45 276.58L315.96 273.85L317.36 271.79L318.36 270.00L318.72 269.50L318.01 269.16L317.30 268.98L316.37 268.73L315.70 268.44L315.18 268.14L314.40 267.39L314.02 267.01L313.44 266.36L312.92 265.78L311.99 264.95L311.48 264.49L310.98 264.14L310.44 263.70L309.89 263.27L308.92 262.38L308.16 261.73L307.64 261.14L306.72 260.16L305.69 259.15L304.50 258.27L303.67 257.79L302.77 257.41L302.26 257.21L301.77 257.02L301.15 256.82L299.98 256.37L299.01 255.98L297.92 255.51L296.24 254.82L295.65 254.62L294.95 254.37L294.17 254.09L293.71 253.92L292.37 253.41L291.59 253.15L290.77 252.86L288.43 251.82L286.78 251.09L283.27 249.45L280.41 247.87L278.59 246.84L276.24 245.87L273.92 245.05L271.19 244.78L269.05 244.48L266.55 243.27L264.71 242.67L262.29 241.75L259.15 240.09L258.45 239.73L256.02 238.54L255.26 238.48L254.18 238.03L251.63 236.83L251.16 236.60L249.71 235.80L248.86 235.70L247.36 234.68L245.14 233.51L244.21 233.15L242.35 232.46L241.84 232.28L241.31 231.63L240.68 231.54L240.17 231.21L238.96 230.36L238.51 230.03L237.47 229.27Z" data-ward="12" /><path id="ward-17" class="ward" d="M182.49 227.56L182.61 226.47L181.59 224.49L181.06 224.54L179.69 224.67L178.11 224.99L176.80 225.18L175.59 225.47L174.00 225.85L172.56 226.07L170.72 226.18L169.63 226.31L168.85 226.38L167.00 226.56L165.40 226.67L164.02 226.82L163.39 226.88L162.39 227.02L161.82 227.06L160.60 227.16L159.02 227.33L158.38 227.39L157.77 227.45L157.18 227.57L156.17 227.70L155.59 227.78L154.33 227.84L153.00 227.78L151.44 227.76L150.84 227.71L149.54 227.69L148.50 227.60L148.38 228.34L148.61 229.17L149.13 229.34L149.08 229.81L149.18 230.32L149.27 230.82L149.32 231.35L149.31 231.81L149.40 232.82L149.48 233.34L149.70 233.76L150.84 233.91L150.85 234.38L150.87 235.28L150.82 235.88L151.02 236.33L150.80 237.12L151.10 237.59L150.79 238.59L150.35 239.03L149.70 239.42L149.33 239.75L148.40 240.03L148.26 240.59L148.12 241.12L147.90 245.23L147.76 247.00L147.67 248.20L147.61 249.16L147.33 251.28L146.96 251.59L146.57 252.04L146.89 252.53L147.39 252.56L147.70 253.01L147.59 253.49L147.74 253.94L148.39 254.57L148.80 254.93L149.47 254.98L150.01 254.86L150.63 254.86L151.13 254.65L151.74 254.80L151.85 255.74L149.36 256.22L148.34 256.65L147.53 257.06L147.55 257.77L147.58 258.76L143.99 260.66L143.46 260.93L141.66 261.66L139.76 262.42L138.78 264.99L140.85 265.90L146.34 268.36L159.23 271.84L165.93 273.82L165.74 272.46L167.28 269.91L168.66 267.28L168.46 266.01L168.06 263.43L167.68 260.71L167.02 256.08L167.77 256.19L168.59 256.44L168.91 256.80L169.38 257.21L169.96 257.12L170.04 256.57L170.14 255.95L170.62 256.10L171.30 256.37L172.13 256.70L172.85 256.75L173.55 256.61L174.42 256.42L174.67 255.80L175.02 254.46L175.23 253.63L175.57 253.08L175.92 252.42L176.24 251.83L176.51 251.32L176.59 250.82L176.53 250.21L176.23 249.38L176.51 247.96L176.83 246.94L177.27 246.00L177.62 245.40L177.77 244.74L177.87 244.27L177.97 243.82L178.57 243.98L179.53 244.23L180.42 244.40L181.05 244.53L180.91 243.83L180.83 243.37L180.55 242.98L180.11 242.55L180.00 242.05L179.41 241.62L179.10 241.07L178.97 240.62L179.66 240.22L179.79 239.68L180.04 238.62L179.24 237.66L179.02 236.55L179.28 235.98L179.63 235.27L179.43 234.77L180.06 234.69L180.12 234.23L180.06 232.49L179.43 230.88L180.56 230.56L180.84 228.92L181.20 228.48L181.85 228.02L182.49 227.56Z" data-ward="17" /><path id="ward-22" class="ward" d="M107.51 174.97L107.45 173.92L107.17 173.47L107.01 172.87L107.11 172.25L107.26 171.69L107.52 171.16L106.66 170.73L106.13 170.46L105.52 170.16L105.12 171.03L104.87 171.56L104.59 172.11L104.37 172.53L103.49 173.07L103.11 174.29L101.97 175.21L101.47 175.19L100.86 175.17L100.36 174.84L99.81 174.48L99.34 173.99L98.87 173.50L98.44 172.96L97.70 172.30L96.79 173.14L96.84 173.73L96.34 174.47L96.26 175.06L96.19 175.64L96.07 176.55L95.71 176.82L95.19 177.23L94.48 177.78L93.96 178.12L93.35 178.53L92.63 178.97L92.20 179.24L91.75 179.52L91.32 179.78L90.22 180.94L89.68 181.52L89.30 181.92L88.85 182.39L87.97 183.22L87.30 183.84L86.62 184.48L86.26 184.81L83.81 186.34L82.83 186.95L82.15 187.34L81.42 187.76L80.10 188.47L77.75 189.71L78.18 194.93L80.49 194.78L81.59 194.71L82.19 194.66L83.02 194.52L83.54 194.77L84.27 194.99L84.88 194.96L85.27 194.32L85.92 194.39L86.79 194.79L86.80 195.25L87.32 195.52L88.16 195.83L89.10 195.92L89.91 196.03L90.45 196.29L90.62 196.97L90.81 197.74L91.04 198.44L91.19 198.94L91.31 199.40L91.45 199.84L91.64 200.60L91.74 201.19L91.93 202.01L91.97 202.64L91.97 203.16L91.84 203.95L91.50 204.53L91.17 205.14L90.70 205.70L90.18 206.33L89.56 207.03L88.94 207.71L88.21 208.47L87.51 209.28L87.00 209.85L86.59 210.23L86.12 210.74L85.48 211.60L85.35 212.12L85.32 212.76L85.19 213.60L85.11 214.22L85.05 215.36L85.04 215.99L84.95 216.76L84.93 217.22L84.94 217.94L84.93 218.41L84.92 218.88L84.90 219.69L84.91 220.54L84.91 221.17L84.90 221.89L84.91 222.39L84.91 223.08L85.05 223.89L85.84 224.08L86.48 224.24L87.14 224.40L87.62 224.50L88.50 224.67L89.35 224.84L90.13 224.93L90.59 224.98L91.48 225.06L92.21 225.17L92.78 225.27L93.72 225.42L93.83 224.86L93.89 224.34L93.99 223.61L94.09 222.83L94.20 221.96L94.43 220.61L94.30 219.52L94.25 219.05L94.06 217.40L94.06 216.22L94.95 216.26L95.74 216.35L96.56 216.33L97.12 216.34L97.49 216.01L97.99 215.57L98.56 215.25L99.35 214.89L102.13 214.77L102.97 214.39L103.60 213.96L104.23 213.53L104.81 213.32L105.51 212.99L106.07 212.10L106.22 211.50L106.68 211.19L107.06 210.33L107.34 209.59L107.76 208.42L107.91 206.97L107.95 206.29L108.01 205.56L108.19 204.74L108.71 204.31L108.69 203.64L108.61 203.07L108.59 202.50L109.49 202.25L109.67 201.03L109.80 199.19L109.98 198.75L110.65 198.81L110.99 198.27L112.25 198.39L113.24 198.89L113.80 199.17L114.16 198.20L114.52 197.65L115.26 197.50L115.95 196.58L115.68 195.59L115.91 195.09L116.18 194.48L116.47 193.72L116.64 193.29L116.70 192.83L116.61 192.39L116.13 192.36L115.76 192.63L115.29 192.85L115.13 192.30L115.30 191.86L115.47 191.41L115.62 190.89L115.00 190.55L114.49 190.59L113.90 190.32L114.08 189.78L114.28 189.16L113.95 188.70L113.36 188.36L113.04 187.95L113.25 187.33L113.72 186.10L113.99 185.55L113.98 185.07L113.55 184.86L112.83 184.76L111.81 184.64L110.95 184.56L110.46 184.54L110.23 184.03L110.21 183.57L110.21 182.98L110.19 182.15L109.88 181.60L109.10 180.71L108.50 180.04L108.09 179.60L107.69 179.17L107.08 178.47L106.74 177.98L106.98 177.50L107.33 177.21L107.68 176.61L107.61 175.96L107.49 175.49L107.51 174.97Z" data-ward="22" /><path id="ward-1" class="ward" d="M142.93 159.37L141.69 157.81L141.51 155.68L141.89 155.12L141.82 153.44L141.37 153.15L139.53 152.51L137.69 151.87L137.38 156.82L137.32 157.74L137.28 158.46L137.16 159.08L137.09 160.17L137.19 160.74L137.13 161.44L136.86 162.27L136.70 162.79L136.31 163.45L135.91 164.15L135.42 164.99L134.03 165.10L132.73 165.65L132.17 165.89L129.80 164.46L129.31 164.18L128.79 163.89L128.60 162.65L127.17 162.63L127.02 161.67L126.13 161.60L125.59 161.56L125.66 160.76L125.72 160.17L125.97 158.87L126.11 158.17L126.37 157.42L126.57 156.84L126.79 156.19L127.23 154.60L124.91 154.10L124.83 154.76L120.80 154.60L120.59 154.00L119.85 153.90L119.89 155.42L119.34 155.50L119.00 157.29L118.10 157.91L117.96 158.38L118.18 161.20L118.75 161.99L118.70 163.66L118.65 165.13L117.84 165.29L117.01 165.33L116.14 165.50L115.59 165.61L114.84 165.94L114.23 165.86L113.76 166.38L112.68 167.60L111.60 168.81L111.02 169.45L110.42 170.12L110.04 170.55L109.46 170.65L109.09 171.18L108.64 171.12L108.08 171.06L107.52 171.16L107.26 171.69L107.11 172.25L107.01 172.87L107.17 173.47L107.45 173.92L107.51 174.97L107.49 175.49L107.61 175.96L107.68 176.61L107.33 177.21L106.98 177.50L106.74 177.98L107.08 178.47L107.69 179.17L108.09 179.60L108.50 180.04L109.10 180.71L109.88 181.60L110.19 182.15L110.21 182.98L110.21 183.57L110.23 184.03L110.46 184.54L110.95 184.56L111.81 184.64L112.83 184.76L113.55 184.86L113.98 185.07L113.99 185.55L113.72 186.10L113.25 187.33L113.04 187.95L113.36 188.36L113.95 188.70L114.28 189.16L114.08 189.78L113.90 190.32L114.49 190.59L115.00 190.55L115.62 190.89L115.47 191.41L115.30 191.86L115.13 192.30L115.29 192.85L115.76 192.63L116.13 192.36L116.61 192.39L116.70 192.83L116.64 193.29L116.47 193.72L116.18 194.48L115.91 195.09L115.68 195.59L115.95 196.58L118.14 197.58L118.71 199.25L119.31 198.88L121.35 199.82L123.07 199.60L123.03 198.35L121.70 195.74L121.79 194.10L122.01 193.20L122.68 192.75L123.78 192.02L125.76 190.94L127.47 189.69L128.35 189.29L129.07 188.87L129.87 188.66L130.64 188.46L131.32 188.38L131.98 188.30L132.80 188.34L133.51 188.41L134.12 188.47L135.28 188.53L136.06 188.57L137.08 188.69L138.41 188.89L138.99 189.14L139.72 189.19L141.29 189.57L141.78 189.62L143.46 189.68L144.54 189.71L145.94 189.86L146.52 189.77L147.02 189.74L148.18 189.67L148.68 189.72L149.92 189.76L150.47 189.58L150.57 189.13L151.44 188.85L152.11 188.64L152.61 188.59L153.12 188.54L153.62 188.49L154.64 188.47L155.46 188.73L156.09 188.92L156.51 188.55L156.84 188.03L157.05 187.25L157.76 186.94L158.15 186.65L158.24 186.12L158.24 185.32L158.16 184.50L158.09 183.94L158.34 183.12L160.05 182.41L161.43 181.91L161.97 181.72L162.86 181.21L163.57 180.88L164.05 180.70L164.77 180.74L165.23 180.71L165.88 180.53L166.35 180.23L165.95 179.63L165.59 179.01L164.52 177.14L163.43 175.46L163.05 175.11L162.62 174.93L161.91 174.87L160.49 175.28L159.05 175.62L158.48 175.81L157.84 176.00L157.39 175.77L157.18 175.30L156.90 174.54L156.24 174.15L155.50 174.40L153.81 175.09L152.23 175.59L151.20 175.80L149.86 176.15L148.91 176.12L147.82 176.17L147.35 176.20L146.90 176.26L146.35 176.16L145.91 175.90L146.04 174.63L145.61 174.24L144.75 174.31L144.54 173.88L144.49 173.04L144.44 172.21L144.34 171.15L144.53 170.43L146.24 169.61L146.89 169.44L147.35 169.26L147.73 168.77L147.75 167.80L147.80 167.27L147.99 166.85L148.46 166.82L148.95 166.88L149.49 166.80L150.00 166.52L150.45 166.42L151.29 166.39L151.00 165.09L150.80 164.44L150.80 162.24L150.84 161.33L150.13 161.41L148.37 161.34L145.94 160.31L143.81 160.42L142.93 159.37Z" data-ward="1" /><path id="ward-4" class="ward" d="M202.41 207.75L202.98 207.55L203.55 206.60L203.67 205.96L202.58 204.88L202.11 204.18L201.52 203.68L199.98 203.63L198.69 201.62L198.35 200.25L198.37 198.81L197.64 199.21L197.39 200.23L197.29 201.27L197.25 201.80L197.01 202.41L196.80 203.62L196.13 203.96L195.93 204.96L195.82 205.51L195.13 206.20L194.37 206.96L194.45 207.74L193.90 208.18L193.52 208.47L192.93 208.94L192.31 210.87L192.43 211.63L192.15 212.61L191.96 213.34L191.72 214.25L191.70 214.91L190.97 215.08L189.66 216.12L188.95 216.01L188.33 215.48L187.89 215.11L187.48 214.76L187.44 214.23L187.37 213.34L187.32 212.81L185.85 212.17L185.22 211.90L184.35 211.52L183.93 210.17L183.42 209.95L182.30 209.49L181.71 209.94L181.07 210.21L180.57 210.41L179.65 210.78L178.29 211.34L177.74 210.19L176.96 209.25L176.10 208.22L175.46 207.63L174.77 206.99L173.40 205.19L172.79 203.20L172.64 202.74L171.87 202.43L171.91 203.25L171.94 203.91L171.69 204.36L171.32 205.04L171.13 205.84L170.79 206.26L170.67 206.71L170.92 207.17L170.97 207.69L171.17 208.16L170.72 208.46L170.33 208.73L169.88 208.70L169.26 208.67L168.51 208.63L168.04 208.61L167.56 208.48L167.15 208.13L166.52 208.04L165.83 207.94L165.54 208.56L165.20 209.29L165.21 209.97L165.22 210.58L165.23 211.36L165.14 211.97L165.04 212.65L164.97 213.11L164.90 213.63L164.95 214.31L165.04 215.02L164.61 215.27L163.76 215.78L163.33 216.57L162.84 217.46L162.49 217.86L161.92 218.51L161.29 218.64L160.51 218.23L159.84 217.87L159.14 217.50L158.43 217.17L157.86 216.90L157.69 216.39L157.24 214.99L156.54 214.89L155.74 214.78L155.10 214.47L154.31 214.09L154.12 212.99L153.31 212.62L152.51 212.51L151.75 212.41L151.46 213.32L151.30 215.00L151.35 215.99L151.46 218.01L149.92 218.87L149.99 219.44L149.96 219.95L150.17 220.81L150.45 222.68L150.78 223.04L150.86 223.92L150.93 224.87L150.94 226.20L150.89 226.93L150.84 227.71L151.44 227.76L153.00 227.78L154.33 227.84L155.59 227.78L156.17 227.70L157.18 227.57L157.77 227.45L158.38 227.39L159.02 227.33L160.60 227.16L161.82 227.06L162.39 227.02L163.39 226.88L164.02 226.82L165.40 226.67L167.00 226.56L168.85 226.38L169.63 226.31L170.72 226.18L172.56 226.07L174.00 225.85L175.59 225.47L176.80 225.18L178.11 224.99L179.69 224.67L181.06 224.54L181.59 224.49L182.03 224.21L183.54 223.94L184.07 223.85L185.54 223.75L187.23 223.67L188.83 223.47L190.23 223.54L190.91 223.51L191.76 223.54L192.46 223.51L192.94 223.50L194.50 223.73L195.12 223.92L196.18 224.26L197.22 224.59L198.29 224.93L198.88 225.11L200.33 225.91L201.47 226.33L203.11 226.81L204.76 227.12L206.26 227.54L207.76 228.03L208.80 228.22L210.03 228.27L210.71 228.41L210.90 227.13L210.98 226.50L211.06 225.67L211.14 224.93L211.23 223.81L211.30 222.59L211.38 221.60L211.56 221.00L211.78 220.15L211.12 220.22L210.47 220.06L210.45 219.43L209.96 215.97L209.78 214.67L208.26 214.59L207.75 214.56L206.63 214.48L203.91 214.30L203.78 213.48L202.52 213.59L201.04 214.05L198.86 214.04L198.34 214.18L196.85 214.04L197.28 212.66L197.72 211.26L198.17 209.57L198.25 208.98L198.49 208.20L199.50 207.79L201.84 207.96L202.41 207.75Z" data-ward="4" /><path id="ward-3" class="ward" d="M173.76 177.97L172.92 177.69L172.46 177.52L172.32 178.04L172.08 178.85L171.89 179.61L171.68 180.56L171.11 180.76L170.38 181.06L170.61 181.81L170.78 182.51L170.78 183.41L170.60 184.32L170.48 184.90L170.24 185.37L170.00 185.83L169.34 186.97L169.33 188.09L168.36 190.70L167.60 191.94L166.83 192.33L166.68 193.09L166.68 194.19L166.48 195.19L166.30 195.75L165.95 196.79L166.68 196.97L167.32 197.13L167.76 197.22L169.14 197.34L170.43 197.30L170.41 198.23L170.32 198.73L170.22 199.35L170.12 199.97L170.03 200.46L170.02 201.50L170.89 202.07L171.87 202.43L172.64 202.74L172.79 203.20L173.40 205.19L174.77 206.99L175.46 207.63L176.10 208.22L176.96 209.25L177.74 210.19L178.29 211.34L179.65 210.78L180.57 210.41L181.07 210.21L181.71 209.94L182.30 209.49L183.42 209.95L183.93 210.17L184.35 211.52L185.22 211.90L185.85 212.17L187.32 212.81L187.37 213.34L187.44 214.23L187.48 214.76L187.89 215.11L188.33 215.48L188.95 216.01L189.66 216.12L190.97 215.08L191.70 214.91L191.72 214.25L191.96 213.34L192.15 212.61L192.43 211.63L192.31 210.87L192.93 208.94L193.52 208.47L193.90 208.18L194.45 207.74L194.37 206.96L195.13 206.20L195.82 205.51L195.93 204.96L196.13 203.96L196.80 203.62L197.01 202.41L197.25 201.80L197.29 201.27L197.39 200.23L197.64 199.21L198.37 198.81L198.76 198.53L199.18 198.22L199.55 197.61L199.57 197.05L199.60 196.42L199.62 195.74L199.68 195.14L199.66 194.41L199.41 193.88L198.45 193.55L198.28 193.04L197.80 192.54L197.29 191.93L196.73 191.26L196.03 190.13L195.69 189.23L195.22 188.62L194.56 188.43L193.95 188.20L193.34 187.98L192.25 187.53L191.19 187.04L190.45 186.59L190.00 186.28L188.98 185.62L188.62 185.29L188.19 184.92L187.71 184.53L186.33 183.53L185.54 182.82L184.97 182.35L184.49 181.88L183.98 181.41L183.66 181.07L183.23 180.69L182.60 180.07L182.22 179.68L181.55 179.01L181.19 178.66L180.67 178.14L179.95 177.58L179.41 177.63L178.89 177.67L178.35 177.80L177.39 177.96L176.52 178.08L175.87 178.13L174.91 178.14L173.76 177.97Z" data-ward="3" /><path id="ward-21" class="ward" d="M65.26 194.74L64.65 194.50L63.81 193.23L63.39 191.87L63.21 190.15L63.01 188.27L62.73 185.52L62.52 183.57L62.33 181.52L62.18 179.93L62.33 179.26L61.72 178.53L60.93 177.97L59.77 178.31L59.24 178.47L57.52 179.31L55.85 180.14L54.69 180.71L54.24 181.00L53.23 181.71L52.52 182.57L52.22 183.49L52.05 184.85L52.20 185.43L51.85 186.41L51.67 187.78L52.25 189.71L52.38 190.22L52.83 191.94L53.07 192.93L56.14 197.50L56.32 199.29L56.28 199.75L56.10 200.74L56.22 201.83L56.34 203.42L56.58 204.37L56.82 205.29L56.60 206.02L56.32 206.50L55.94 206.86L55.82 207.45L55.71 208.17L55.21 208.77L54.80 209.05L54.18 209.14L53.40 209.15L51.21 209.15L50.25 209.09L50.25 208.49L49.69 208.50L49.00 208.42L48.32 208.28L47.56 208.20L46.71 208.28L46.77 209.66L46.71 210.81L46.73 211.33L46.67 212.01L46.50 212.83L46.29 213.80L46.20 214.38L48.85 214.72L50.81 214.90L51.93 215.13L53.44 215.46L55.08 215.69L58.91 216.29L60.40 216.74L60.96 217.00L61.68 217.35L62.26 217.61L66.09 219.34L68.25 219.83L69.28 219.98L70.63 220.34L71.90 220.60L74.13 221.20L76.64 222.00L77.63 222.32L78.54 222.50L79.16 222.59L79.94 222.71L80.96 222.93L81.66 223.09L82.65 223.31L83.35 223.50L84.07 223.69L85.05 223.89L84.91 223.08L84.91 222.39L84.90 221.89L84.91 221.17L84.91 220.54L84.90 219.69L84.92 218.88L84.93 218.41L84.94 217.94L84.93 217.22L84.95 216.76L85.04 215.99L85.05 215.36L85.11 214.22L85.19 213.60L85.32 212.76L85.35 212.12L85.48 211.60L86.12 210.74L86.59 210.23L87.00 209.85L87.51 209.28L88.21 208.47L88.94 207.71L89.56 207.03L90.18 206.33L90.70 205.70L91.17 205.14L91.50 204.53L91.84 203.95L91.97 203.16L91.97 202.64L91.93 202.01L91.74 201.19L91.64 200.60L91.45 199.84L91.31 199.40L91.19 198.94L91.04 198.44L90.81 197.74L90.62 196.97L90.45 196.29L89.91 196.03L89.10 195.92L88.16 195.83L87.32 195.52L86.80 195.25L86.79 194.79L85.92 194.39L85.27 194.32L84.88 194.96L84.27 194.99L83.54 194.77L83.02 194.52L82.19 194.66L81.59 194.71L80.49 194.78L78.18 194.93L77.75 189.71L76.82 190.21L76.19 190.67L75.20 191.25L73.53 192.23L71.88 193.28L70.67 194.06L68.49 194.86L66.87 195.06L66.26 195.13L65.26 194.74Z" data-ward="21" /><path id="ward-15" class="ward" d="M188.83 223.47L187.23 223.67L185.54 223.75L184.07 223.85L183.54 223.94L182.03 224.21L181.59 224.49L182.61 226.47L182.49 227.56L181.85 228.02L181.20 228.48L180.84 228.92L180.56 230.56L179.43 230.88L180.06 232.49L180.12 234.23L180.06 234.69L179.43 234.77L179.63 235.27L179.28 235.98L179.02 236.55L179.24 237.66L180.04 238.62L179.79 239.68L179.66 240.22L178.97 240.62L179.10 241.07L179.41 241.62L180.00 242.05L180.11 242.55L180.55 242.98L180.83 243.37L180.91 243.83L181.05 244.53L180.42 244.40L179.53 244.23L178.57 243.98L177.97 243.82L177.87 244.27L177.77 244.74L177.62 245.40L177.27 246.00L176.83 246.94L176.51 247.96L176.23 249.38L176.53 250.21L176.59 250.82L176.51 251.32L176.24 251.83L175.92 252.42L175.57 253.08L175.23 253.63L175.02 254.46L174.67 255.80L174.42 256.42L173.55 256.61L172.85 256.75L172.13 256.70L171.30 256.37L170.62 256.10L170.14 255.95L170.04 256.57L169.96 257.12L169.89 257.63L171.04 259.54L172.62 261.40L173.22 262.11L174.38 264.77L174.27 266.75L174.42 267.50L175.28 268.26L176.66 268.97L179.26 269.58L180.11 268.92L181.87 268.37L183.15 267.69L184.63 267.23L180.15 260.37L180.30 257.73L179.17 254.02L180.07 251.30L182.44 248.97L183.50 247.93L183.79 246.77L183.82 245.09L184.29 245.20L186.88 245.44L187.49 245.49L187.94 245.87L188.57 245.67L189.22 245.92L189.63 246.51L190.28 246.80L191.98 246.95L192.96 247.15L193.68 247.08L194.65 247.18L195.50 248.00L196.41 248.55L197.01 248.91L197.66 249.31L198.64 249.99L199.35 250.48L199.86 250.84L200.37 251.14L200.79 251.42L201.37 251.73L201.95 251.88L202.81 251.98L203.49 251.88L203.99 251.97L204.65 252.28L205.78 252.70L206.29 252.69L206.67 251.23L207.20 251.33L207.64 251.42L207.90 250.46L208.27 249.48L208.56 248.92L208.77 248.33L209.18 247.19L210.12 247.74L210.77 248.12L211.20 248.37L211.81 248.73L212.58 248.22L212.86 248.69L213.13 249.32L213.41 249.94L214.17 250.97L214.60 251.55L215.39 252.07L215.92 251.98L216.57 251.27L217.29 251.08L218.28 251.71L219.27 251.18L219.82 251.26L220.43 251.13L221.04 250.99L220.94 251.74L222.06 251.42L223.17 251.10L223.17 249.96L223.51 249.38L224.11 248.81L224.70 248.23L225.50 247.91L226.48 247.79L226.89 247.12L226.73 246.48L226.31 246.23L225.83 245.98L226.22 245.66L226.33 244.86L226.49 244.00L226.61 243.40L226.71 242.94L226.91 242.22L227.25 241.64L227.45 241.06L226.68 240.70L225.90 240.34L224.76 240.13L224.79 239.64L224.81 239.15L223.95 238.51L224.03 237.84L223.49 237.54L222.61 237.39L222.10 237.31L221.75 236.89L221.67 236.38L221.58 235.77L221.68 235.25L221.67 234.58L221.60 233.72L221.00 233.50L220.58 233.35L218.30 233.26L217.64 233.29L217.18 233.29L216.57 233.21L215.78 233.10L215.14 233.02L214.51 232.93L213.62 232.88L212.75 232.84L212.14 232.71L212.21 231.80L212.35 231.22L212.47 230.72L212.61 230.18L212.76 229.42L211.80 228.59L210.71 228.41L210.03 228.27L208.80 228.22L207.76 228.03L206.26 227.54L204.76 227.12L203.11 226.81L201.47 226.33L200.33 225.91L198.88 225.11L198.29 224.93L197.22 224.59L196.18 224.26L195.12 223.92L194.50 223.73L192.94 223.50L192.46 223.51L191.76 223.54L190.91 223.51L190.23 223.54L188.83 223.47Z" data-ward="15" /><path id="ward-18" class="ward" d="M94.96 225.69L94.53 225.57L93.72 225.42L92.78 225.27L92.21 225.17L91.48 225.06L90.59 224.98L90.13 224.93L89.35 224.84L88.50 224.67L87.62 224.50L87.14 224.40L86.48 224.24L85.84 224.08L85.05 223.89L84.07 223.69L83.35 223.50L82.65 223.31L81.66 223.09L80.96 222.93L79.94 222.71L79.16 222.59L78.54 222.50L77.63 222.32L77.70 222.99L77.78 223.66L77.81 224.13L77.89 225.26L78.39 225.38L79.57 225.66L80.60 225.63L81.08 229.12L83.93 230.47L83.79 233.94L83.82 234.40L84.22 238.39L84.42 240.08L90.51 237.95L98.86 235.01L98.86 237.33L104.95 239.00L105.75 239.22L105.31 242.84L113.28 245.00L117.26 248.01L118.04 248.52L121.67 251.43L122.33 251.99L126.72 255.74L127.62 256.51L137.87 264.59L138.78 264.99L139.76 262.42L141.66 261.66L143.46 260.93L143.99 260.66L147.58 258.76L147.55 257.77L147.53 257.06L148.34 256.65L149.36 256.22L151.85 255.74L151.74 254.80L151.13 254.65L150.63 254.86L150.01 254.86L149.47 254.98L148.80 254.93L148.39 254.57L147.74 253.94L147.59 253.49L147.70 253.01L147.39 252.56L146.89 252.53L146.57 252.04L146.96 251.59L147.33 251.28L147.61 249.16L147.67 248.20L147.76 247.00L147.90 245.23L148.12 241.12L148.26 240.59L148.40 240.03L149.33 239.75L149.70 239.42L150.35 239.03L150.79 238.59L151.10 237.59L150.80 237.12L151.02 236.33L150.82 235.88L150.87 235.28L150.85 234.38L150.84 233.91L149.70 233.76L149.48 233.34L149.40 232.82L149.31 231.81L149.32 231.35L149.27 230.82L149.18 230.32L149.08 229.81L149.13 229.34L148.61 229.17L148.38 228.34L148.50 227.60L147.77 227.47L147.27 227.38L145.73 227.33L144.11 227.27L142.83 227.37L141.70 227.41L141.18 227.43L138.24 227.53L137.38 227.39L134.27 226.88L131.01 227.05L128.01 226.38L124.50 225.28L121.72 224.88L112.20 226.37L107.86 226.87L104.90 226.66L99.47 226.27L94.96 225.69Z" data-ward="18" /><path id="ward-10" class="ward" d="M328.60 261.13L329.71 261.01L330.74 260.80L330.79 260.98L332.08 260.46L333.23 259.81L333.95 259.56L334.14 258.73L334.50 258.01L334.75 257.53L335.00 256.93L335.32 256.19L335.71 255.25L336.03 254.42L336.86 254.24L337.43 254.34L338.27 254.48L339.40 254.96L340.58 255.47L341.52 255.77L344.54 255.80L346.63 255.61L348.67 255.64L350.62 256.17L353.01 256.28L354.85 256.63L355.30 256.78L356.22 257.02L357.58 257.47L358.79 257.54L359.89 256.99L360.43 258.26L359.40 259.45L356.72 264.28L354.61 276.01L355.15 275.56L357.47 273.22L369.43 289.94L379.70 304.30L381.69 303.36L383.94 302.96L389.13 301.34L393.75 300.89L403.18 300.85L405.88 300.49L412.33 302.71L419.02 305.01L425.34 307.17L426.35 307.40L449.46 312.21L483.29 307.27L531.51 307.84L549.71 308.40L550.72 308.84L557.00 310.60L573.59 362.83L577.23 373.36L577.05 373.72L577.32 373.62L577.59 373.52L584.88 371.29L591.80 369.18L596.42 367.77L600.20 366.62L600.74 366.45L601.94 366.64L602.74 366.77L603.35 366.87L605.44 367.20L609.46 367.84L613.07 368.42L615.84 368.86L617.94 369.19L621.32 369.73L622.27 369.89L626.90 370.62L632.04 371.44L634.38 371.82L639.40 370.19L647.21 367.66L654.10 367.80L659.33 367.90L660.06 367.92L664.21 368.00L665.16 368.02L666.07 368.04L667.34 368.07L668.00 367.89L670.34 367.27L672.34 366.56L672.90 366.36L674.53 365.79L675.68 365.47L676.21 365.33L677.66 364.25L678.26 363.06L678.79 361.68L679.18 360.69L679.37 360.21L679.48 358.88L679.58 357.63L679.70 356.28L679.75 355.62L680.10 355.15L680.51 354.62L681.42 353.41L682.06 352.06L682.56 351.02L682.74 350.54L683.22 349.66L683.81 348.46L684.21 347.65L685.27 346.71L686.54 345.59L687.44 344.79L688.99 344.18L689.56 343.96L690.29 343.67L691.01 343.39L692.44 343.41L693.87 343.43L695.06 343.45L696.09 343.46L697.59 343.48L698.89 343.50L700.20 343.52L701.30 343.54L703.18 343.86L704.46 344.08L706.27 344.40L707.52 344.61L708.95 344.86L710.19 345.12L711.17 345.32L712.53 345.60L713.82 345.86L715.17 346.14L716.27 346.37L716.97 346.51L717.67 346.66L718.20 346.77L719.21 347.16L722.39 348.41L724.63 348.49L726.87 348.57L728.92 347.93L729.52 346.85L729.77 346.28L730.00 345.08L729.85 344.23L728.83 343.19L726.68 341.58L722.50 337.37L720.66 335.51L718.45 333.29L717.42 331.06L716.60 329.28L716.65 327.06L718.40 322.96L722.78 316.18L723.91 314.19L721.90 302.66L723.46 295.80L724.61 290.75L727.20 279.36L729.45 274.47L732.94 267.75L733.05 267.10L746.32 251.03L753.68 252.29L765.13 254.25L765.65 254.69L766.59 255.16L768.05 256.74L771.47 256.78L774.67 256.82L779.34 256.89L782.46 256.93L789.97 258.86L794.95 256.79L817.49 247.43L829.26 242.55L834.51 242.57L843.17 241.22L847.19 240.59L850.15 241.01L850.75 241.09L852.19 241.00L858.40 242.14L859.07 242.23L863.08 242.86L865.49 243.24L867.60 243.58L869.29 243.39L869.78 243.34L873.93 241.87L876.44 241.48L877.48 241.39L878.30 241.46L880.73 241.90L882.57 242.32L886.36 243.11L886.97 243.24L891.64 244.53L896.28 246.59L898.82 246.59L903.84 245.63L906.93 245.05L907.88 245.01L910.39 244.92L911.64 245.44L914.88 246.79L919.64 248.77L923.42 249.51L926.80 251.04L929.01 252.96L929.52 253.40L931.69 255.70L933.37 258.35L934.74 259.66L937.90 259.28L940.62 259.66L945.41 259.55L948.84 258.05L951.16 256.48L957.74 254.74L960.45 254.02L960.83 253.15L960.80 250.73L960.27 246.61L995.69 224.74L995.57 224.40L993.34 224.32L992.56 219.24L993.84 215.28L995.37 212.09L997.49 210.98L998.85 211.57L999.67 210.57L1000.00 208.97L999.37 208.17L998.68 207.29L993.51 204.34L991.12 203.63L989.28 203.67L988.30 204.27L984.67 212.42L980.81 216.60L974.07 214.04L968.30 206.00L964.34 197.93L962.83 189.41L964.82 184.22L963.96 181.79L961.83 178.82L960.48 178.10L958.81 179.37L957.26 181.17L955.71 181.92L953.75 181.24L950.90 177.43L947.44 169.18L940.98 162.28L938.54 156.57L936.38 153.94L935.05 153.05L934.30 152.55L932.38 152.49L929.65 152.71L927.54 152.84L925.64 152.48L924.49 150.81L924.53 145.39L926.53 143.35L927.41 138.87L927.41 135.54L925.37 131.44L923.87 130.53L919.96 129.00L916.41 125.21L915.21 123.80L915.68 122.18L918.74 120.14L920.02 119.37L921.10 117.88L920.22 115.79L918.08 114.05L914.90 109.94L913.55 104.76L909.35 98.20L910.45 93.12L910.01 92.04L900.47 88.65L892.83 83.32L891.07 83.44L889.33 81.12L891.47 75.07L889.44 68.60L884.27 62.06L878.32 58.61L876.66 53.40L877.29 49.51L874.20 45.41L869.16 40.37L868.44 38.47L856.65 33.69L849.92 34.50L846.14 34.78L845.43 34.81L843.06 33.58L840.17 33.89L834.34 34.46L832.84 34.60L827.37 32.86L820.97 33.29L813.50 35.44L808.39 32.58L802.43 32.64L793.88 37.74L788.40 38.36L786.04 37.81L783.74 37.28L780.03 40.42L776.18 43.40L769.39 35.21L769.03 29.24L769.09 23.34L769.99 19.89L772.43 14.32L770.17 11.77L765.43 8.69L761.88 9.28L758.40 6.82L758.07 4.34L724.25 0.00L722.06 1.14L723.53 2.14L724.39 2.73L724.95 4.52L725.92 5.96L726.27 7.27L726.49 8.09L726.59 8.94L726.44 11.49L726.22 15.37L726.19 15.83L726.02 19.02L726.03 19.56L726.06 21.69L726.03 22.22L725.79 23.25L725.45 24.58L724.89 26.73L724.48 28.30L724.06 29.91L723.15 31.23L722.63 31.98L722.25 32.53L721.72 33.29L721.11 34.18L720.07 35.69L719.36 36.71L718.64 37.76L717.66 39.18L717.24 39.79L716.71 40.56L715.67 42.06L713.91 46.02L712.13 50.00L710.46 53.76L709.46 56.00L708.77 58.57L708.34 59.54L707.69 60.64L707.35 62.13L702.97 82.24L698.70 101.81L694.02 123.03L688.58 137.12L686.24 143.20L672.50 142.70L653.29 139.93L652.45 139.52L645.18 135.98L631.97 136.38L623.59 129.89L607.64 133.36L594.54 130.66L584.36 130.82L552.01 120.05L539.26 118.60L532.20 113.84L519.75 102.85L506.94 99.48L506.33 99.32L479.54 98.93L479.16 99.23L476.36 114.41L476.21 115.35L473.58 121.93L455.54 122.88L399.71 103.89L398.84 103.59L412.30 131.60L404.19 143.60L405.13 148.13L382.88 144.75L380.70 144.37L361.50 141.05L350.53 141.75L348.03 142.08L344.45 142.54L339.83 143.14L336.43 142.74L335.84 142.66L331.82 142.82L325.26 148.04L325.00 148.57L324.81 151.17L324.74 152.11L323.72 152.44L323.42 152.91L323.05 154.03L322.75 154.42L322.45 154.81L321.55 155.20L320.85 155.51L320.21 155.46L319.80 156.01L318.27 158.06L317.96 158.44L318.53 159.24L319.23 159.15L320.36 158.55L322.38 157.47L324.57 155.80L325.22 155.25L326.22 154.42L326.67 154.04L327.29 154.01L327.89 154.19L328.62 155.10L330.02 156.30L331.66 157.70L332.23 158.29L332.72 158.80L333.09 159.43L333.08 160.33L332.75 160.73L331.89 161.33L330.92 161.82L330.11 162.23L329.79 162.65L329.39 163.18L329.25 163.89L329.02 165.03L328.65 165.70L328.20 166.49L328.01 167.14L328.03 167.92L328.05 168.92L328.25 169.49L328.57 170.41L328.47 171.48L328.73 172.23L329.28 173.07L329.63 173.61L330.22 174.08L329.92 174.72L329.58 175.48L329.31 176.07L329.26 176.61L328.98 178.02L328.63 178.49L327.40 180.16L326.10 181.93L324.72 183.82L323.07 186.06L319.50 190.90L316.92 194.41L314.06 198.29L311.57 201.68L308.85 205.37L309.96 205.53L315.51 207.61L315.50 211.35L317.17 211.78L316.99 212.89L315.00 213.18L312.89 213.90L312.15 214.14L311.14 215.95L312.45 217.01L312.32 217.60L313.75 217.99L316.19 218.67L317.42 218.63L318.12 219.16L321.17 220.12L322.70 220.77L323.96 220.28L325.08 222.33L325.51 223.53L326.56 223.61L327.53 223.28L328.12 223.58L331.09 224.25L332.26 226.88L330.64 240.39L331.36 243.14L330.95 244.28L330.09 245.07L328.74 244.96L331.42 246.78L330.33 249.38L329.15 250.96L330.12 252.55L330.18 254.21L331.90 256.49L331.64 258.04L331.17 259.62L330.60 260.31L329.43 260.70L328.90 260.75L328.06 260.78L327.76 260.42L327.71 260.39L327.70 260.39L327.19 260.18L326.13 259.69L325.10 259.20L324.07 258.54L322.99 257.74L321.32 256.60L320.14 256.45L319.12 256.28L318.62 256.23L317.22 255.99L316.23 255.65L315.53 256.74L314.46 259.19L314.21 259.74L313.75 260.94L313.03 262.12L312.88 262.57L311.92 263.88L311.48 264.49L311.99 264.95L312.92 265.78L313.44 266.36L314.02 267.01L314.40 267.39L315.18 268.14L315.70 268.44L316.37 268.73L317.30 268.98L318.01 269.16L318.72 269.50L319.73 267.68L320.10 267.11L320.69 266.18L321.51 264.73L322.09 263.73L322.45 263.36L323.04 263.13L323.60 263.07L324.52 263.43L325.35 263.81L325.85 264.04L326.69 263.56L327.30 262.55L327.76 261.80L328.15 261.18L328.60 261.13Z" data-ward="10" /><path id="ward-19" class="ward" d="M33.79 213.23L33.13 213.21L32.63 213.20L32.11 213.19L31.62 212.97L30.70 212.56L30.17 212.50L29.55 212.43L28.83 212.40L27.61 212.35L27.15 212.51L26.44 212.96L25.56 213.51L24.31 214.29L24.25 214.87L24.21 215.37L24.15 215.93L23.85 216.46L23.63 217.00L23.45 217.46L23.47 218.03L23.40 218.60L23.19 219.50L23.03 220.11L22.87 220.77L22.48 221.90L22.00 223.22L21.40 225.24L20.70 227.57L20.43 228.91L19.40 228.97L15.18 229.24L16.57 229.67L16.76 231.39L16.61 232.17L16.31 232.72L15.82 232.74L15.22 233.80L14.78 235.52L14.62 236.24L14.61 236.99L15.44 237.16L16.16 237.31L16.69 237.42L17.47 235.95L18.06 235.93L18.52 235.90L19.53 235.85L20.68 235.80L20.55 234.40L21.50 234.08L24.02 226.35L24.31 225.47L25.09 223.07L25.51 221.78L25.87 220.67L26.37 219.82L26.65 219.35L27.12 218.46L28.01 218.60L28.43 218.92L28.80 220.33L29.15 221.61L29.40 222.28L29.59 223.20L30.06 223.98L30.39 224.53L30.51 225.01L30.76 226.01L31.34 227.22L32.04 228.68L32.63 229.95L32.94 230.63L33.36 230.97L33.88 231.40L34.14 231.81L35.96 234.54L36.15 235.06L36.14 236.16L40.10 237.70L41.93 237.76L42.70 237.79L46.54 239.10L47.27 239.35L47.91 240.23L48.20 241.30L48.43 242.34L48.58 243.03L48.66 244.33L48.48 245.27L49.02 246.08L49.09 246.56L48.81 247.24L48.59 247.79L48.88 248.31L49.65 248.72L50.18 249.00L50.76 249.34L51.35 249.81L52.08 250.29L52.53 250.58L53.58 251.69L54.48 251.83L57.42 253.70L58.24 254.58L59.03 254.73L59.84 254.58L59.43 253.57L60.75 253.06L61.01 250.81L64.10 251.20L65.18 253.20L67.16 253.36L69.78 254.31L70.39 254.53L71.09 254.28L71.65 254.08L70.97 253.28L71.07 252.19L72.40 252.03L73.06 251.07L73.71 249.75L75.53 250.87L79.18 249.49L81.62 247.36L81.73 248.74L81.32 249.45L82.96 250.01L83.75 250.48L84.42 250.87L85.15 250.85L88.02 251.40L88.15 250.62L90.14 250.37L90.81 250.28L92.38 250.81L93.17 251.17L93.98 251.74L96.67 254.32L99.48 256.61L101.15 257.98L102.14 258.24L102.51 257.77L103.49 258.31L103.79 257.73L102.85 257.12L103.45 256.29L104.04 256.67L104.52 255.88L104.14 255.62L104.50 254.98L104.79 254.48L104.93 253.91L105.17 252.94L105.65 252.94L105.70 252.15L105.31 251.78L105.22 250.54L105.13 249.15L104.44 247.67L104.22 247.19L105.31 242.84L105.75 239.22L104.95 239.00L98.86 237.33L98.86 235.01L90.51 237.95L84.42 240.08L84.22 238.39L83.82 234.40L83.79 233.94L83.93 230.47L81.08 229.12L80.60 225.63L79.57 225.66L78.39 225.38L77.89 225.26L77.81 224.13L77.78 223.66L77.70 222.99L77.63 222.32L76.64 222.00L74.13 221.20L71.90 220.60L70.63 220.34L69.28 219.98L68.25 219.83L66.09 219.34L62.26 217.61L61.68 217.35L60.96 217.00L60.40 216.74L58.91 216.29L55.08 215.69L53.44 215.46L51.93 215.13L50.81 214.90L48.85 214.72L46.20 214.38L45.70 214.35L45.12 214.33L44.41 214.30L43.16 214.24L42.32 214.23L41.64 214.09L40.99 213.96L39.78 213.71L39.11 213.58L38.25 213.40L37.16 213.28L36.59 213.25L36.07 213.23L35.21 213.24L34.63 213.25L33.79 213.23Z" data-ward="19" /><path id="ward-5" class="ward" d="M237.28 202.48L236.75 202.63L236.55 203.08L236.25 203.72L234.97 204.63L233.50 205.14L231.58 205.16L230.55 205.18L230.11 205.63L229.65 206.72L229.29 207.57L229.29 208.33L228.77 209.10L228.18 209.63L227.14 210.62L226.39 211.29L225.77 211.81L225.15 211.99L224.43 212.70L223.48 213.65L222.64 214.03L222.18 214.21L221.73 214.90L221.26 215.26L220.72 215.23L220.16 215.13L219.68 214.99L218.88 214.91L218.38 214.89L217.83 215.00L217.00 215.10L216.17 215.15L215.63 215.15L214.78 215.11L214.61 215.73L214.60 216.78L214.49 217.31L214.31 218.28L214.21 218.82L213.96 219.57L213.01 219.92L212.32 220.05L211.78 220.15L211.56 221.00L211.38 221.60L211.30 222.59L211.23 223.81L211.14 224.93L211.06 225.67L210.98 226.50L210.90 227.13L210.71 228.41L211.80 228.59L212.76 229.42L213.96 228.80L215.36 229.12L217.19 229.40L218.47 229.59L220.11 229.83L220.62 229.86L221.12 229.87L221.93 229.82L222.54 229.75L223.38 229.54L224.66 229.27L225.83 229.03L226.35 228.91L227.41 228.67L227.88 228.57L228.87 228.31L229.82 228.04L230.97 227.89L231.66 227.86L232.73 227.98L234.30 228.15L235.32 228.27L235.85 228.35L237.47 229.27L238.51 230.03L238.96 230.36L240.17 231.21L240.68 231.54L241.31 231.63L241.64 230.89L242.10 229.77L242.35 229.07L242.49 228.23L242.15 227.92L241.56 227.75L241.35 227.20L241.57 226.42L241.76 225.70L241.91 224.96L242.13 224.33L242.46 223.81L242.75 222.94L239.97 222.01L240.17 220.70L239.97 220.17L240.06 219.67L240.53 219.51L240.68 219.07L241.25 218.96L241.31 218.15L242.13 218.25L242.41 217.56L243.15 217.61L243.96 217.75L246.08 218.13L246.35 217.07L246.58 216.09L246.81 215.32L246.97 214.78L247.11 214.33L248.04 214.73L248.86 214.59L249.48 214.24L250.05 214.39L250.52 214.53L251.16 214.78L251.28 215.76L252.02 216.02L252.65 216.19L253.19 216.26L253.99 216.73L254.47 217.18L254.80 217.66L255.30 217.61L255.86 217.29L256.45 216.74L256.99 216.57L257.58 216.57L258.96 216.65L259.44 216.63L261.56 216.49L262.34 216.54L263.37 216.74L263.86 217.11L264.15 217.46L264.56 217.81L264.97 218.16L265.31 218.55L265.65 218.94L266.46 219.38L266.95 219.64L268.07 219.57L268.86 219.53L268.94 218.96L270.26 216.40L269.94 216.06L269.06 215.98L268.52 216.06L267.60 216.06L267.09 215.80L266.93 215.34L265.94 214.69L265.25 214.41L264.61 214.15L262.50 212.77L261.91 212.34L260.98 211.38L260.33 210.71L260.47 209.97L259.39 209.37L258.17 208.68L256.83 208.48L255.64 208.20L254.75 208.00L254.02 207.42L253.71 207.01L253.10 206.81L252.12 206.60L250.67 206.29L249.70 206.08L249.06 206.05L248.27 205.94L247.76 205.96L246.99 205.53L246.47 205.34L245.34 205.07L244.27 204.96L243.39 204.92L242.25 204.76L241.46 204.76L240.91 204.66L240.08 204.33L239.49 204.04L238.67 203.62L238.41 203.19L238.47 202.66L237.94 202.67L237.28 202.48Z" data-ward="5" /><path id="ward-2" class="ward" d="M202.82 148.17L203.72 146.82L204.29 146.25L204.99 145.55L205.42 144.93L205.83 143.72L205.94 142.56L206.04 141.43L206.38 140.23L204.31 140.95L203.69 141.35L201.82 142.55L201.05 142.86L196.15 144.87L195.32 145.21L193.83 146.15L193.24 146.39L190.10 147.70L187.27 148.82L186.37 148.85L185.34 148.45L184.43 148.09L183.36 147.48L182.12 146.79L180.94 146.11L180.43 145.81L178.55 145.37L177.20 144.51L176.55 144.14L174.54 142.64L171.93 141.69L169.79 141.56L168.89 142.88L167.97 143.14L166.69 144.00L165.66 144.24L164.95 143.97L165.00 146.15L164.73 147.50L164.56 148.39L164.20 150.05L164.46 151.08L164.90 152.85L160.82 153.98L159.53 155.11L158.93 155.63L158.56 157.85L157.05 159.21L155.22 160.84L153.52 161.03L150.84 161.33L150.80 162.24L150.80 164.44L151.00 165.09L151.29 166.39L150.45 166.42L150.00 166.52L149.49 166.80L148.95 166.88L148.46 166.82L147.99 166.85L147.80 167.27L147.75 167.80L147.73 168.77L147.35 169.26L146.89 169.44L146.24 169.61L144.53 170.43L144.34 171.15L144.44 172.21L144.49 173.04L144.54 173.88L144.75 174.31L145.61 174.24L146.04 174.63L145.91 175.90L146.35 176.16L146.90 176.26L147.35 176.20L147.82 176.17L148.91 176.12L149.86 176.15L151.20 175.80L152.23 175.59L153.81 175.09L155.50 174.40L156.24 174.15L156.90 174.54L157.18 175.30L157.39 175.77L157.84 176.00L158.48 175.81L159.05 175.62L160.49 175.28L161.91 174.87L162.62 174.93L163.05 175.11L163.43 175.46L164.52 177.14L165.59 179.01L165.95 179.63L166.35 180.23L167.89 179.97L168.99 180.38L170.38 181.06L171.11 180.76L171.68 180.56L171.89 179.61L172.08 178.85L172.32 178.04L172.46 177.52L172.92 177.69L173.76 177.97L174.91 178.14L175.87 178.13L176.52 178.08L177.39 177.96L178.35 177.80L178.89 177.67L179.41 177.63L179.95 177.58L180.67 178.14L181.19 178.66L181.55 179.01L182.22 179.68L182.60 180.07L183.23 180.69L183.66 181.07L183.98 181.41L184.49 181.88L184.97 182.35L185.54 182.82L186.33 183.53L187.71 184.53L188.19 184.92L188.62 185.29L188.98 185.62L190.00 186.28L190.45 186.59L191.19 187.04L192.25 187.53L193.34 187.98L192.79 186.52L192.58 185.95L192.80 185.45L193.85 183.40L195.11 182.54L197.13 182.61L197.95 181.16L198.43 180.32L199.14 180.08L199.90 179.82L200.35 179.64L202.20 178.90L204.21 177.90L204.67 177.89L205.15 177.67L205.59 177.14L206.05 176.59L206.86 176.00L207.66 175.69L208.17 175.54L208.66 175.41L209.27 175.20L208.22 174.32L206.72 173.05L205.94 172.33L205.11 171.44L204.71 170.00L204.48 168.08L203.93 166.07L203.51 164.98L203.46 162.66L203.15 162.01L202.97 159.74L202.64 158.14L202.53 157.66L202.32 154.64L202.22 153.08L202.10 152.15L201.94 150.87L202.10 149.26L202.47 148.98L202.82 148.17Z" data-ward="2" /><path id="ward-16" class="ward" d="M187.49 245.49L186.88 245.44L184.29 245.20L183.82 245.09L183.79 246.77L183.50 247.93L182.44 248.97L180.07 251.30L179.17 254.02L180.30 257.73L180.15 260.37L184.63 267.23L183.15 267.69L181.87 268.37L180.11 268.92L179.26 269.58L176.66 268.97L175.28 268.26L174.42 267.50L174.27 266.75L174.38 264.77L173.22 262.11L172.62 261.40L171.04 259.54L169.89 257.63L169.96 257.12L169.38 257.21L168.91 256.80L168.59 256.44L167.77 256.19L167.02 256.08L167.68 260.71L168.06 263.43L168.46 266.01L168.66 267.28L167.28 269.91L165.74 272.46L165.93 273.82L164.13 280.48L164.68 280.59L171.90 280.30L186.98 281.17L199.12 281.87L199.71 281.75L221.10 282.86L222.15 280.54L222.29 279.34L222.38 278.55L222.54 277.18L222.37 276.61L222.76 274.98L225.98 275.26L226.84 275.33L227.52 272.94L227.65 270.94L227.65 267.85L228.06 264.77L228.26 263.24L228.41 261.95L228.48 260.97L227.42 260.03L226.66 259.28L226.11 258.94L225.45 258.52L224.26 257.78L223.48 257.33L222.91 257.08L221.43 256.92L220.84 257.01L220.78 255.94L219.75 255.12L219.94 253.10L220.05 252.22L220.41 251.91L220.94 251.74L221.04 250.99L220.43 251.13L219.82 251.26L219.27 251.18L218.28 251.71L217.29 251.08L216.57 251.27L215.92 251.98L215.39 252.07L214.60 251.55L214.17 250.97L213.41 249.94L213.13 249.32L212.86 248.69L212.58 248.22L211.81 248.73L211.20 248.37L210.77 248.12L210.12 247.74L209.18 247.19L208.77 248.33L208.56 248.92L208.27 249.48L207.90 250.46L207.64 251.42L207.20 251.33L206.67 251.23L206.29 252.69L205.78 252.70L204.65 252.28L203.99 251.97L203.49 251.88L202.81 251.98L201.95 251.88L201.37 251.73L200.79 251.42L200.37 251.14L199.86 250.84L199.35 250.48L198.64 249.99L197.66 249.31L197.01 248.91L196.41 248.55L195.50 248.00L194.65 247.18L193.68 247.08L192.96 247.15L191.98 246.95L190.28 246.80L189.63 246.51L189.22 245.92L188.57 245.67L187.94 245.87L187.49 245.49Z" data-ward="16" /><path id="ward-14" class="ward" d="M246.06 248.32L244.96 248.22L243.68 247.14L243.42 247.52L243.05 248.41L242.77 247.77L242.25 248.61L241.48 248.66L241.19 249.19L240.63 249.17L239.56 249.10L239.52 250.14L239.80 250.89L239.18 251.71L237.74 250.50L237.07 250.25L236.48 250.32L235.23 250.07L234.72 250.05L234.22 249.98L233.65 249.55L233.27 249.11L232.56 249.06L232.16 249.31L231.84 249.97L231.43 250.19L230.03 250.01L228.62 249.50L228.12 248.99L228.05 247.63L227.40 247.40L226.89 247.12L226.48 247.79L225.50 247.91L224.70 248.23L224.11 248.81L223.51 249.38L223.17 249.96L223.17 251.10L222.06 251.42L220.94 251.74L220.41 251.91L220.05 252.22L219.94 253.10L219.75 255.12L220.78 255.94L220.84 257.01L221.43 256.92L222.91 257.08L223.48 257.33L224.26 257.78L225.45 258.52L226.11 258.94L226.66 259.28L227.42 260.03L228.48 260.97L228.41 261.95L228.26 263.24L228.06 264.77L227.65 267.85L227.65 270.94L227.52 272.94L226.84 275.33L225.98 275.26L222.76 274.98L222.37 276.61L222.54 277.18L222.38 278.55L222.29 279.34L222.15 280.54L221.10 282.86L222.66 282.93L224.90 283.24L231.26 284.22L245.96 286.63L251.23 287.54L256.35 287.39L266.51 293.39L266.36 292.33L266.88 291.80L266.29 290.21L267.36 289.68L268.76 289.27L268.61 288.34L268.35 287.65L267.87 286.58L267.17 285.43L266.65 284.58L266.36 283.96L266.11 283.22L265.64 282.39L265.16 281.24L264.77 280.54L264.55 280.06L264.27 279.35L262.86 277.41L262.45 276.94L261.85 276.19L261.92 275.06L262.59 273.71L263.14 272.01L263.32 271.48L263.58 270.73L264.17 269.84L264.63 269.60L264.91 268.48L265.49 266.59L265.83 265.13L266.47 264.83L266.81 264.08L266.91 263.19L267.11 261.33L267.14 260.76L266.72 260.18L265.84 259.73L264.83 259.23L263.83 258.75L263.12 258.67L262.40 258.88L260.84 258.52L259.62 258.21L258.87 258.00L257.90 257.70L257.03 257.45L256.48 257.30L255.95 257.11L255.45 256.93L254.95 256.61L254.37 256.16L253.88 255.79L252.42 254.87L251.35 254.27L250.83 253.94L249.76 253.24L248.77 252.61L248.45 252.26L247.83 251.53L247.21 251.24L247.16 250.55L247.39 250.01L247.60 249.19L247.72 248.65L246.06 248.32Z" data-ward="14" /><path id="ward-20" class="ward" d="M38.54 193.56L37.95 193.13L36.46 192.56L33.85 191.56L33.30 191.12L32.02 190.49L30.46 189.59L29.97 189.30L28.84 188.34L28.28 187.97L27.00 187.12L26.75 186.52L26.26 185.56L25.80 184.65L25.20 183.05L24.90 181.76L23.74 179.14L23.31 178.17L22.70 177.25L22.15 176.41L20.78 175.87L19.36 175.31L15.96 174.46L12.36 174.73L9.43 175.95L6.71 177.07L3.60 178.35L1.66 179.25L0.69 180.09L0.00 180.35L0.53 181.47L0.29 182.43L0.42 182.89L0.73 183.86L1.38 185.07L2.00 186.15L2.64 186.59L6.06 188.95L7.05 189.77L7.47 190.60L7.46 191.32L7.35 192.06L7.20 193.02L7.10 193.63L6.43 193.95L4.45 193.13L2.48 192.31L2.26 193.02L2.32 193.48L2.57 195.28L2.82 197.00L2.28 198.28L2.24 199.82L2.22 200.47L2.02 201.89L1.87 202.86L1.65 203.46L1.39 204.18L1.84 204.30L2.55 204.61L3.02 204.77L3.45 204.93L4.22 204.97L5.53 205.04L6.18 205.07L6.66 205.08L7.55 205.17L8.32 205.25L8.49 205.78L8.51 206.27L8.54 206.77L8.69 207.23L9.39 207.59L9.98 207.83L9.89 208.71L11.09 208.82L12.03 208.00L12.72 208.03L13.46 208.06L14.20 208.09L15.29 208.04L16.08 208.07L17.03 208.11L18.12 208.16L19.14 208.38L19.83 208.69L21.06 209.25L21.65 210.35L21.85 211.03L22.13 211.64L22.44 212.33L22.47 212.92L22.97 213.37L22.53 213.69L22.80 214.28L23.03 214.80L22.70 215.12L22.52 215.48L22.59 215.76L22.55 215.98L22.54 216.00L22.17 217.71L22.33 218.44L22.29 219.03L22.26 219.51L22.23 219.96L21.61 220.10L21.09 220.22L20.56 220.32L20.23 220.85L19.90 221.39L19.13 222.09L17.96 222.03L16.79 221.98L15.53 222.98L14.97 223.73L14.43 224.08L13.27 224.84L13.04 224.35L10.02 227.61L9.55 230.53L9.40 231.02L9.07 232.11L9.64 232.40L9.60 233.58L9.59 234.10L9.47 234.81L9.29 235.91L10.20 236.09L11.70 236.40L13.23 236.71L14.61 236.99L14.62 236.24L14.78 235.52L15.22 233.80L15.82 232.74L16.31 232.72L16.61 232.17L16.76 231.39L16.57 229.67L15.18 229.24L19.40 228.97L20.43 228.91L20.70 227.57L21.40 225.24L22.00 223.22L22.48 221.90L22.87 220.77L23.03 220.11L23.19 219.50L23.40 218.60L23.47 218.03L23.45 217.46L23.63 217.00L23.85 216.46L24.15 215.93L24.21 215.37L24.25 214.87L24.31 214.29L25.56 213.51L26.44 212.96L27.15 212.51L27.61 212.35L28.83 212.40L29.55 212.43L30.17 212.50L30.70 212.56L31.62 212.97L32.11 213.19L32.63 213.20L33.13 213.21L33.79 213.23L34.63 213.25L35.21 213.24L36.07 213.23L36.59 213.25L37.16 213.28L38.25 213.40L39.11 213.58L39.78 213.71L40.99 213.96L41.64 214.09L42.32 214.23L43.16 214.24L44.41 214.30L45.12 214.33L45.70 214.35L46.20 214.38L46.29 213.80L46.50 212.83L46.67 212.01L46.73 211.33L46.71 210.81L46.77 209.66L46.71 208.28L47.56 208.20L48.32 208.28L49.00 208.42L49.69 208.50L50.25 208.49L50.25 209.09L51.21 209.15L53.40 209.15L54.18 209.14L54.80 209.05L55.21 208.77L55.71 208.17L55.82 207.45L55.94 206.86L56.32 206.50L56.60 206.02L56.82 205.29L56.58 204.37L56.34 203.42L56.22 201.83L56.10 200.74L56.28 199.75L56.32 199.29L56.14 197.50L53.07 192.93L53.78 195.79L53.67 197.45L53.57 199.06L53.73 199.57L53.23 200.29L53.11 200.84L52.56 201.29L52.00 201.74L51.02 202.60L50.12 202.66L49.35 202.71L48.21 201.99L47.71 201.50L47.17 201.20L46.40 199.95L45.69 199.42L44.39 198.47L43.63 197.25L43.09 196.80L41.87 195.79L41.47 195.13L40.51 194.61L38.54 193.56Z" data-ward="20" /><path id="ward-9" class="ward" d="M330.60 260.31L331.17 259.62L331.64 258.04L331.90 256.49L330.18 254.21L330.12 252.55L329.15 250.96L330.33 249.38L331.42 246.78L328.74 244.96L330.09 245.07L330.95 244.28L331.36 243.14L330.64 240.39L332.26 226.88L331.09 224.25L328.12 223.58L327.53 223.28L326.56 223.61L325.51 223.53L325.08 222.33L323.96 220.28L322.70 220.77L321.17 220.12L318.12 219.16L317.42 218.63L316.19 218.67L313.75 217.99L312.32 217.60L312.45 217.01L311.14 215.95L312.15 214.14L312.89 213.90L315.00 213.18L316.99 212.89L317.17 211.78L315.50 211.35L315.51 207.61L309.96 205.53L308.85 205.37L308.15 205.27L303.40 204.58L297.63 200.49L297.09 199.87L293.66 196.32L292.64 195.17L286.75 193.17L286.59 200.86L288.05 202.27L289.47 203.22L294.10 204.29L292.62 205.84L284.37 214.47L284.40 215.30L285.00 215.63L285.93 215.95L286.90 216.33L287.48 216.59L288.48 216.99L288.10 217.79L287.81 218.57L287.88 219.03L287.96 219.57L288.11 220.83L288.24 222.32L287.86 222.97L287.08 223.78L285.89 224.84L285.51 225.20L285.06 225.75L284.34 226.92L283.87 227.96L283.88 228.66L284.27 229.21L284.86 229.26L285.37 229.48L286.44 229.79L286.87 230.03L287.53 231.07L287.99 231.40L288.58 231.49L289.35 231.50L289.84 231.92L289.44 232.62L289.64 233.49L289.96 234.77L290.11 235.21L290.49 236.28L290.69 236.76L290.88 238.13L291.17 238.67L291.56 239.39L291.96 240.14L292.30 240.48L294.02 242.54L294.33 243.30L294.37 243.85L294.26 244.32L293.83 244.67L293.20 244.85L292.74 244.92L292.15 245.00L290.56 245.19L290.07 245.47L289.93 245.97L289.68 247.50L289.39 249.27L289.21 249.88L288.88 250.83L288.43 251.82L290.77 252.86L291.59 253.15L292.37 253.41L293.71 253.92L294.17 254.09L294.95 254.37L295.65 254.62L296.24 254.82L297.92 255.51L299.01 255.98L299.98 256.37L301.15 256.82L301.77 257.02L302.26 257.21L302.77 257.41L303.67 257.79L304.50 258.27L305.69 259.15L306.72 260.16L307.64 261.14L308.16 261.73L308.92 262.38L309.89 263.27L310.44 263.70L310.98 264.14L311.48 264.49L311.92 263.88L312.88 262.57L313.03 262.12L313.75 260.94L314.21 259.74L314.46 259.19L315.53 256.74L316.23 255.65L317.22 255.99L318.62 256.23L319.12 256.28L320.14 256.45L321.32 256.60L322.99 257.74L324.07 258.54L325.10 259.20L326.13 259.69L327.19 260.18L327.70 260.39L327.71 260.39L327.76 260.42L328.06 260.78L328.90 260.75L329.43 260.70L330.60 260.31Z" data-ward="9" /></svg>