<svg viewBox="0 0 1000.00 1136.36" xmlns="http://www.w3.org/2000/svg"><style>.ward { fill: #e2e8f0; stroke: #fff; stroke-width: 0.5px; } .ward:hover { fill: #cbd5e1; }</style><path id="ward-5" class="ward" d="M543.28 303.45L543.42 302.71L543.94 298.12L543.42 297.08L540.98 293.47L539.06 290.62L536.48 286.80L534.43 284.45L533.30 280.42L531.91 276.11L530.95 274.71L529.37 272.52L527.36 273.59L525.72 274.81L524.90 275.42L510.17 283.22L507.48 284.65L484.88 296.81L463.48 300.63L461.10 302.36L454.69 307.00L453.84 307.27L451.89 306.53L448.16 305.11L445.80 300.06L444.58 296.84L444.79 295.85L445.22 294.67L446.43 293.98L446.83 293.25L447.65 291.14L447.85 290.20L447.64 289.22L446.61 288.25L446.15 287.21L445.40 287.21L444.08 287.50L442.15 288.60L439.93 291.10L439.76 292.12L439.22 294.96L437.82 296.58L433.75 301.10L429.61 304.01L425.24 308.10L422.33 314.75L419.42 318.82L415.22 322.12L416.31 325.31L416.10 329.71L416.62 332.45L416.72 333.24L417.00 335.50L417.25 337.54L418.50 341.37L419.68 360.36L421.22 372.03L421.97 375.73L423.59 383.67L423.88 385.07L424.13 395.81L420.88 398.38L421.09 399.49L421.74 402.96L421.76 403.72L421.85 407.59L421.46 408.61L420.58 411.30L421.41 413.02L421.81 413.86L422.31 414.52L423.33 414.15L427.68 412.54L431.65 413.93L432.84 412.91L434.22 411.37L434.72 408.63L437.19 409.48L440.18 409.61L440.89 410.49L441.69 415.08L442.28 415.73L443.82 417.42L445.16 416.27L445.53 415.47L446.85 412.73L448.77 410.06L450.02 409.40L451.72 408.51L454.36 408.32L456.70 409.54L459.80 411.40L462.90 412.93L463.96 413.35L466.23 414.25L468.40 417.16L468.96 419.02L469.37 420.36L470.06 420.04L473.70 418.37L477.09 416.34L479.81 414.47L480.63 415.79L482.82 417.00L483.55 417.25L484.12 418.05L482.93 420.56L479.80 423.49L479.47 424.70L480.02 425.28L482.56 424.89L484.13 425.43L484.38 426.44L483.10 426.90L483.32 428.47L488.38 428.34L490.96 427.51L492.00 426.41L493.56 422.80L495.51 422.54L497.04 421.47L499.72 421.06L500.76 422.85L500.47 425.96L506.11 430.05L506.11 431.22L505.92 432.50L503.93 433.39L502.52 432.81L500.70 432.97L499.41 434.52L499.77 436.68L500.33 440.02L501.51 444.68L504.50 450.22L506.27 453.33L507.60 453.34L509.39 453.22L512.33 454.88L512.86 454.23L514.10 453.47L514.91 452.98L517.68 451.55L518.87 451.27L519.90 451.02L522.07 450.08L523.38 446.84L524.11 444.72L525.12 443.34L525.86 442.94L530.70 441.00L533.42 439.82L535.69 439.03L539.11 438.81L542.48 438.27L543.55 438.16L545.23 438.00L546.96 436.91L549.89 434.58L551.76 432.17L553.39 430.79L554.46 429.60L556.22 426.18L555.83 423.83L554.79 421.36L553.77 419.42L556.12 417.97L557.25 416.95L558.03 416.18L558.50 414.09L559.48 411.55L559.79 409.93L559.48 409.17L558.85 408.45L557.42 407.46L556.24 406.70L555.22 406.19L553.86 405.71L552.91 405.25L552.09 403.83L552.14 402.84L552.19 401.20L551.60 399.62L551.18 398.74L551.28 397.96L552.66 396.95L554.09 396.58L556.26 396.05L557.14 395.94L558.16 395.34L558.33 394.19L560.17 393.45L562.78 392.82L565.63 393.49L566.29 394.11L567.28 396.03L568.67 397.23L569.37 397.53L570.17 397.89L572.26 398.24L575.25 398.89L576.31 400.24L576.69 401.16L577.42 401.68L578.17 402.41L578.09 404.02L577.86 405.43L578.39 406.15L579.72 406.85L580.67 406.65L582.12 406.35L582.76 407.68L583.52 408.23L584.68 407.21L585.76 406.02L587.54 405.13L588.19 404.74L589.58 403.90L590.44 403.09L591.37 401.94L592.19 400.95L592.76 399.78L592.29 398.53L592.06 397.54L592.29 396.54L593.24 397.01L594.77 398.34L595.73 399.12L597.76 399.70L599.04 400.53L601.47 401.11L602.93 401.06L604.83 400.72L604.95 399.24L605.08 397.64L604.21 397.51L600.75 396.99L602.82 393.42L608.23 389.34L620.01 384.85L631.57 383.23L632.95 383.11L633.80 383.04L634.76 383.79L636.24 384.94L638.69 385.85L640.54 386.53L648.56 386.75L653.23 378.28L656.24 372.84L655.36 371.33L654.70 370.21L651.32 364.41L645.73 362.70L637.13 363.26L633.62 360.32L631.97 358.94L630.19 357.44L625.16 353.34L624.65 350.49L622.55 345.89L619.69 345.76L616.81 345.86L614.25 345.50L613.52 345.40L613.08 342.88L611.27 340.09L609.81 338.12L607.01 337.27L605.46 336.56L604.72 336.13L603.24 335.10L602.34 335.72L600.25 335.51L598.82 334.50L597.71 333.20L586.05 332.51L585.01 318.92L583.54 314.68L582.50 311.67L579.54 305.16L560.98 312.96L559.10 312.46L552.84 310.92L545.93 310.53L545.27 309.92L543.28 303.45Z" data-ward="5" /><path id="ward-9" class="ward" d="M343.85 466.72L339.98 464.42L339.95 468.72L339.93 470.48L338.56 475.96L335.60 480.91L334.68 483.09L333.55 485.78L333.69 486.56L334.18 489.30L329.80 494.44L327.89 496.68L321.82 505.64L320.90 507.00L319.25 508.23L318.21 509.00L318.81 510.00L320.24 510.59L321.41 510.70L323.88 510.45L326.32 509.66L324.89 509.28L325.74 508.46L326.94 508.79L327.56 510.23L326.75 512.13L326.41 513.07L325.84 516.08L323.77 516.68L319.79 521.93L318.30 523.89L317.64 524.77L315.88 530.04L313.93 535.92L314.52 540.77L313.85 544.77L311.49 554.25L313.20 559.20L313.85 561.10L314.49 562.96L321.10 563.52L326.49 563.97L330.38 564.81L338.05 566.78L343.46 570.41L347.66 570.44L351.03 573.18L354.62 572.29L356.42 571.85L357.30 571.68L359.06 571.33L362.87 570.47L363.57 572.24L363.81 574.34L365.81 573.19L366.94 571.85L368.54 573.45L368.60 576.42L370.20 576.40L370.99 576.55L372.32 577.35L374.27 576.98L375.49 579.10L376.76 578.90L378.17 576.89L380.26 576.51L381.19 579.36L380.28 582.33L382.37 583.89L384.73 585.06L387.30 584.66L389.27 582.01L390.07 580.93L393.84 582.20L395.84 584.18L394.39 588.77L394.57 593.10L392.22 596.05L388.78 597.64L387.83 601.73L388.24 602.35L389.55 604.33L391.49 605.97L392.77 608.97L392.68 613.71L393.05 617.74L394.39 623.17L395.65 623.41L396.22 624.88L398.27 624.77L399.28 622.73L401.41 622.86L402.48 622.32L401.58 621.09L401.42 618.56L403.33 618.90L404.90 620.09L407.31 623.74L409.39 626.68L411.12 629.76L411.89 631.13L415.92 632.94L423.20 636.22L427.89 634.37L431.25 632.98L436.94 640.25L441.09 645.93L436.02 654.51L437.89 655.31L445.50 658.56L449.66 660.21L450.44 659.53L453.55 656.84L454.39 656.12L466.13 645.95L476.56 635.34L477.69 634.19L477.06 629.94L476.98 629.01L479.36 626.51L482.06 623.28L482.70 622.51L488.07 619.45L497.21 606.08L496.96 605.34L496.24 602.74L495.78 601.07L493.99 600.01L493.20 600.22L490.49 600.95L488.78 601.98L486.58 602.67L485.60 601.20L486.60 599.61L486.48 598.78L485.88 598.23L486.09 595.58L487.97 593.46L489.27 591.81L487.34 590.05L487.49 587.61L488.80 585.02L488.62 584.19L488.47 582.37L490.64 579.40L492.71 576.18L492.26 574.18L491.67 571.11L490.53 569.92L491.40 569.47L493.13 570.69L493.63 570.13L497.13 566.28L499.98 561.59L501.83 562.72L505.61 559.72L503.26 556.95L501.90 555.60L500.81 554.25L500.19 553.64L498.90 552.37L498.46 551.09L497.82 550.16L495.64 548.98L493.72 548.71L491.26 551.22L486.86 552.21L486.02 551.49L485.08 550.69L482.97 549.63L481.47 548.29L480.40 548.40L478.87 548.57L476.43 548.83L475.71 547.68L474.86 546.30L474.14 546.93L472.84 547.53L467.13 550.53L466.35 550.97L464.90 552.12L459.53 550.68L454.30 549.60L450.98 549.13L445.64 545.13L443.84 544.10L441.48 540.61L437.57 540.69L433.99 537.67L432.64 537.93L431.68 537.85L424.91 538.68L422.11 536.98L421.56 536.00L421.06 535.11L419.58 532.97L418.59 531.52L418.19 528.49L418.86 527.43L417.68 526.19L416.35 525.16L416.27 524.20L417.07 523.81L418.20 522.43L417.55 522.05L415.39 521.93L414.28 522.08L413.69 521.57L403.76 514.28L404.03 510.63L404.33 507.71L402.27 504.48L401.69 503.59L399.09 504.20L398.73 506.54L393.74 505.84L391.80 505.73L388.40 505.66L384.62 505.28L384.36 503.85L386.56 503.44L387.40 503.20L388.39 502.97L389.24 502.98L390.98 501.91L389.50 501.28L389.58 500.34L390.46 499.91L393.50 498.21L394.40 497.65L400.76 486.07L400.85 483.35L399.34 482.49L398.50 481.83L398.35 480.53L397.34 480.01L393.38 477.43L386.91 474.94L383.41 469.73L379.08 468.47L375.18 467.34L374.10 467.30L368.00 467.05L366.73 467.32L364.00 467.90L358.64 469.03L351.99 469.90L343.85 466.72Z" data-ward="9" /><path id="ward-11" class="ward" d="M282.29 494.63L278.70 494.64L277.48 494.61L275.05 494.81L269.46 495.86L268.28 496.97L267.09 498.41L264.75 500.99L264.79 502.42L264.52 505.30L264.65 507.07L264.86 510.00L264.40 511.07L263.25 512.94L262.19 514.67L261.68 515.40L260.99 516.32L259.74 517.97L260.08 519.39L260.71 521.99L260.85 524.28L260.91 525.40L261.39 526.82L261.42 529.17L261.44 531.26L260.66 533.17L259.46 536.12L258.94 536.78L258.12 537.59L257.19 538.11L254.70 539.21L252.18 540.03L251.40 540.70L250.02 541.87L249.67 543.16L249.43 544.04L248.91 545.36L248.43 546.30L247.72 547.35L247.02 548.21L246.41 548.64L245.25 549.13L243.75 549.75L242.82 549.90L241.01 550.21L239.36 551.93L237.90 553.45L237.11 555.83L236.86 556.80L236.38 557.65L235.48 559.22L234.80 559.57L233.76 560.10L232.71 560.40L231.55 560.61L230.37 560.60L229.28 560.09L227.49 559.74L225.50 559.34L222.69 560.18L220.69 562.09L218.90 564.09L216.59 565.69L214.77 566.31L212.87 566.96L212.08 568.08L211.33 569.13L212.26 570.50L213.54 571.86L214.33 572.88L215.46 574.34L217.36 576.70L218.25 577.90L218.91 579.02L220.16 581.38L222.00 584.68L222.76 586.13L223.35 587.27L223.85 588.63L224.61 590.69L223.55 592.76L222.61 592.81L221.77 592.13L220.20 590.85L219.10 590.27L217.67 588.52L216.54 588.52L215.34 588.52L214.52 588.09L212.85 588.24L212.17 588.85L211.60 589.35L211.38 590.52L213.82 592.63L215.84 594.39L216.77 595.19L219.46 597.54L221.24 598.73L222.45 600.01L223.25 601.09L224.23 602.79L225.44 605.33L224.69 608.31L224.08 609.25L223.38 609.67L221.46 610.81L219.26 611.79L217.73 612.26L215.59 614.39L214.10 615.82L212.31 616.58L210.00 617.56L207.91 618.76L206.38 620.03L204.99 620.33L203.25 620.79L202.51 620.71L200.14 620.73L197.93 621.78L196.78 622.31L194.74 623.85L194.01 624.26L193.36 624.66L192.40 625.23L191.37 625.86L190.20 625.56L189.17 625.30L188.09 624.90L187.01 624.50L185.59 624.93L184.62 625.23L182.77 627.06L181.04 627.57L180.58 628.60L180.06 629.76L179.52 630.97L178.04 632.99L177.24 634.03L176.41 634.73L175.79 635.23L174.93 635.77L173.88 636.43L172.48 636.14L170.80 635.80L170.10 635.32L168.83 634.12L168.19 633.42L166.80 634.02L165.28 634.96L165.16 636.34L165.20 637.16L165.28 638.98L164.78 639.64L164.15 640.35L161.96 641.11L159.81 641.84L158.66 641.71L157.71 641.60L156.41 641.58L154.92 641.56L153.75 641.49L152.96 641.45L152.58 642.09L152.44 643.97L152.78 646.14L152.02 647.45L151.22 648.69L149.42 650.45L148.82 651.54L148.19 653.01L147.90 654.14L148.81 655.22L150.33 657.03L151.44 658.19L152.16 658.94L152.34 660.71L152.46 661.89L151.78 663.35L151.02 663.85L148.77 664.09L147.52 664.00L146.66 663.95L145.33 663.77L143.90 663.58L142.60 663.43L141.34 663.30L140.60 663.22L139.12 663.07L138.34 663.29L136.79 663.72L136.03 663.97L135.37 664.46L134.88 665.69L134.34 667.03L134.56 667.86L134.85 668.95L135.52 670.39L135.86 671.13L136.29 672.74L137.06 673.49L137.72 674.93L138.05 677.08L139.43 679.04L140.02 680.59L141.94 681.72L142.72 682.41L143.08 683.12L143.57 684.49L143.40 686.24L143.45 687.67L142.74 688.47L142.31 689.53L142.56 690.84L143.51 692.48L144.88 694.25L144.73 695.50L144.40 696.68L143.64 697.21L144.20 697.09L144.77 696.98L145.79 697.05L146.79 697.12L149.56 697.31L151.46 697.44L180.02 699.32L181.54 699.42L183.03 699.45L186.80 699.53L188.94 699.55L224.68 700.89L258.19 709.12L279.75 702.43L290.94 684.26L291.46 682.74L295.80 670.19L294.02 664.11L290.74 664.41L289.45 666.33L287.55 668.56L283.53 667.69L281.45 665.33L277.36 664.28L276.73 661.56L277.91 658.77L278.59 655.42L278.33 652.64L281.76 650.38L284.53 646.89L283.72 643.46L284.39 640.40L285.31 638.57L285.75 637.68L284.99 635.26L283.46 633.83L284.26 632.00L283.81 630.09L286.49 627.45L289.12 625.16L290.21 624.10L292.08 621.62L292.84 617.78L293.98 615.26L292.06 615.66L288.44 616.37L287.86 615.74L286.57 614.14L285.81 611.91L286.38 607.72L285.26 603.67L283.43 598.09L279.46 594.66L276.55 591.30L273.44 587.71L271.60 582.08L269.76 576.45L271.24 573.80L272.45 572.50L275.93 570.61L279.13 569.35L279.58 567.63L278.38 564.60L278.41 562.66L279.88 560.79L278.00 557.21L280.46 556.86L283.53 557.38L285.50 558.66L287.60 556.60L305.77 555.02L311.49 554.25L313.85 544.77L314.52 540.77L313.93 535.92L315.88 530.04L317.64 524.77L318.30 523.89L319.79 521.93L323.77 516.68L325.84 516.08L326.41 513.07L326.75 512.13L327.56 510.23L326.94 508.79L325.74 508.46L324.89 509.28L326.32 509.66L323.88 510.45L321.41 510.70L320.24 510.59L318.81 510.00L318.21 509.00L317.34 507.54L315.45 504.07L313.86 501.02L312.98 499.96L310.99 500.37L308.32 501.44L307.54 502.51L306.51 502.51L305.71 501.75L302.98 501.41L298.44 502.33L297.37 504.41L295.72 504.55L295.14 502.79L293.78 502.30L291.73 502.20L289.78 501.53L288.15 502.29L287.05 502.66L287.24 500.76L286.91 499.33L282.43 497.67L280.33 498.12L279.25 498.43L283.41 495.81L282.29 494.63Z" data-ward="11" /><path id="ward-13" class="ward" d="M438.27 155.08L437.71 154.07L436.92 152.17L436.36 150.96L435.86 150.03L434.68 149.34L433.22 148.68L432.78 147.79L431.74 145.18L430.32 143.19L428.90 141.20L426.94 140.63L424.89 141.77L424.21 142.15L423.33 143.74L424.09 145.35L425.15 147.62L425.38 148.54L426.08 150.14L426.72 152.13L425.49 154.07L424.53 155.58L422.97 156.09L421.41 154.98L420.59 154.39L419.61 152.44L419.23 151.68L417.07 151.18L414.58 152.03L413.30 152.47L411.27 153.55L410.53 153.94L409.71 154.76L408.30 156.08L407.70 157.44L407.26 158.46L407.61 159.50L407.77 161.13L407.78 162.12L408.14 162.92L409.03 165.62L409.19 166.75L409.43 168.33L409.72 170.32L409.81 172.04L409.77 173.62L409.71 175.82L409.65 178.31L409.42 179.55L409.10 181.34L408.76 183.20L408.42 185.05L408.28 185.95L407.76 186.97L407.01 188.54L405.58 188.95L404.78 189.18L401.94 187.82L399.62 186.93L398.70 186.69L397.71 186.43L395.43 186.10L394.71 185.99L394.28 185.17L393.30 183.26L393.45 181.15L393.76 176.59L393.94 174.03L394.44 171.04L394.66 169.55L394.45 168.45L393.96 166.24L393.62 163.87L393.43 162.57L391.57 161.67L389.24 162.04L388.09 162.22L385.87 162.74L384.57 163.05L383.51 163.87L382.41 164.51L381.57 164.89L380.57 165.12L378.84 165.53L377.76 166.59L376.66 167.66L376.51 168.67L376.34 169.83L376.79 171.76L377.05 172.91L377.27 173.86L378.15 176.34L378.67 177.48L378.06 178.03L377.43 178.59L376.06 179.20L375.09 179.63L374.21 180.02L373.03 180.20L371.76 180.40L369.87 179.06L368.57 178.01L367.10 176.81L366.32 176.20L364.59 174.86L362.53 173.87L361.91 174.31L361.00 174.97L360.37 175.43L359.51 176.10L358.38 176.98L357.64 177.55L356.76 178.07L355.89 178.58L355.20 178.99L354.07 179.65L353.25 180.06L352.16 180.59L350.74 181.29L349.64 181.82L348.41 182.40L346.73 183.32L346.50 184.45L346.31 185.42L346.10 186.46L345.87 187.44L345.57 188.68L345.31 189.77L345.02 190.82L344.66 192.11L343.99 193.34L343.55 194.16L343.07 195.03L342.58 195.93L342.02 196.98L341.03 198.57L340.60 199.26L339.97 200.27L339.58 200.91L338.73 202.17L337.75 203.62L337.04 204.10L336.09 204.73L333.07 204.85L332.29 203.77L331.57 202.79L330.92 201.88L330.30 201.03L329.58 200.03L328.87 199.05L328.27 198.23L327.58 197.41L326.91 196.63L326.25 195.85L325.49 194.96L324.39 194.66L323.00 194.27L321.85 193.95L321.05 193.73L319.62 193.33L318.40 192.99L315.45 192.16L310.61 190.61L309.02 190.75L307.09 190.72L305.94 190.69L305.10 190.81L302.55 191.11L302.07 191.75L301.07 193.09L300.43 193.96L300.23 195.65L300.05 197.23L300.36 198.49L300.70 199.86L300.89 200.65L301.59 202.51L301.88 203.29L301.33 204.52L300.97 205.35L299.51 205.64L298.32 205.87L295.94 205.68L295.11 205.61L292.49 206.17L291.53 206.47L289.96 206.97L288.81 207.92L287.64 208.89L286.24 210.04L285.37 211.20L284.00 213.02L282.98 214.22L281.94 215.43L281.42 216.11L280.37 217.48L279.63 219.71L279.30 220.70L278.78 222.29L278.67 223.57L278.57 224.67L278.47 225.81L278.37 227.03L278.56 228.22L278.68 228.96L279.01 229.87L279.54 231.32L280.04 232.33L280.64 233.51L281.06 234.35L281.67 235.58L282.16 236.64L282.78 237.95L282.98 238.89L283.40 240.90L283.81 242.80L283.97 244.45L284.05 245.20L283.48 245.96L282.99 246.60L281.94 247.24L281.18 247.71L279.87 248.33L279.08 248.71L277.65 249.39L276.85 249.55L275.94 249.73L275.10 249.90L274.34 251.59L274.44 252.82L274.53 253.69L274.86 254.49L275.22 255.36L276.68 257.24L277.42 258.19L278.20 259.37L278.68 260.10L279.09 260.72L279.51 261.35L280.27 262.51L280.75 263.22L282.13 265.68L282.74 266.98L283.59 268.81L284.37 270.76L285.44 273.43L285.72 274.25L286.63 276.92L287.40 279.30L287.71 280.36L288.09 282.08L288.63 284.79L288.10 285.63L287.53 286.53L286.43 286.99L284.31 287.87L282.88 288.47L281.11 289.06L280.20 289.36L279.42 289.89L278.70 290.38L277.85 290.96L277.22 291.39L276.37 292.22L275.64 292.93L274.91 293.64L275.09 294.58L275.24 295.33L275.85 297.29L276.40 298.69L277.03 300.29L277.66 301.90L278.00 302.78L278.78 304.74L279.43 306.38L280.08 308.02L280.45 308.95L281.49 312.64L281.84 313.88L282.66 313.76L283.80 313.62L284.67 313.92L285.71 314.57L287.16 314.75L288.24 314.85L289.91 314.88L290.99 314.85L292.72 314.07L293.68 314.12L294.17 314.89L295.74 314.96L296.79 314.88L298.22 315.13L298.78 316.19L299.49 316.88L301.92 317.07L303.44 316.66L304.23 317.19L304.49 318.01L305.40 318.84L307.66 318.59L309.82 318.16L313.38 318.21L314.24 317.98L319.32 316.64L320.29 316.38L323.06 315.19L324.45 314.60L325.87 313.71L329.63 311.34L330.36 310.83L332.48 309.35L339.66 307.68L341.25 310.78L343.40 312.94L345.22 311.82L346.69 309.49L348.13 308.76L350.33 309.97L350.57 311.97L351.31 313.17L351.62 313.84L350.16 316.85L351.34 319.67L353.91 322.70L354.05 323.95L358.13 325.51L361.51 324.50L362.22 324.29L364.48 323.21L365.81 324.38L365.70 326.46L368.52 327.51L372.34 327.55L373.27 327.86L374.36 328.22L376.72 331.11L378.09 332.76L381.42 335.09L382.61 335.87L384.00 336.17L386.52 337.47L389.79 337.27L392.67 336.27L394.82 337.00L396.38 338.36L401.39 338.53L406.59 338.04L409.86 336.96L411.19 337.03L412.51 337.69L413.52 340.89L414.41 342.45L415.29 342.31L416.75 342.08L418.50 341.37L417.25 337.54L417.00 335.50L416.72 333.24L416.62 332.45L416.10 329.71L416.31 325.31L415.22 322.12L410.13 322.88L408.66 323.07L405.58 323.35L403.20 321.60L402.32 320.95L400.40 321.48L399.69 321.68L396.79 319.07L396.29 318.21L394.90 316.08L392.96 314.56L392.53 311.69L389.43 308.95L388.14 306.95L391.10 303.41L391.65 300.02L392.24 295.80L390.97 292.24L391.98 289.57L391.00 285.35L390.71 280.82L389.79 277.94L390.08 276.40L393.01 271.69L395.85 269.41L400.95 266.94L402.54 260.17L403.61 256.78L404.27 252.74L404.29 251.94L404.31 250.84L403.82 248.52L404.74 247.25L405.40 246.35L407.37 245.41L409.12 243.58L413.17 239.35L418.12 234.82L421.48 232.37L427.34 231.23L428.76 230.84L432.27 229.95L437.07 229.20L439.35 227.41L440.66 225.29L439.77 221.51L438.53 212.89L437.47 210.18L436.95 209.06L435.76 208.10L434.28 207.58L433.89 205.65L435.24 203.47L435.52 202.07L435.41 200.23L435.15 198.89L435.10 197.35L435.49 195.60L436.17 195.02L438.03 194.71L440.13 195.03L440.50 194.29L440.37 192.81L439.09 190.46L438.50 189.66L437.95 188.92L437.61 187.42L437.81 186.49L438.70 185.93L440.43 186.12L441.90 186.24L442.97 186.10L444.34 185.68L446.59 184.65L447.73 184.08L449.09 182.62L449.31 181.90L449.45 180.48L449.22 179.26L448.63 178.36L447.39 178.23L446.09 178.43L446.30 177.14L446.19 175.79L445.39 173.82L445.09 173.09L444.48 172.09L443.77 171.21L442.67 170.05L441.92 169.59L441.18 168.42L441.82 167.60L442.61 166.21L443.21 165.22L443.57 164.37L443.45 163.60L442.56 163.54L441.49 164.28L439.84 164.61L439.95 163.62L440.62 162.43L441.15 161.41L441.24 160.49L441.34 159.12L440.96 157.78L440.58 156.28L440.05 155.30L439.18 155.37L438.27 155.08Z" data-ward="13" /><path id="ward-3" class="ward" d="M616.46 103.24L608.42 96.73L597.32 92.65L597.35 93.46L597.48 94.95L598.38 97.65L599.01 98.06L600.22 98.83L601.36 100.06L602.09 101.73L602.04 103.73L601.69 104.75L600.95 105.30L600.15 105.74L597.61 104.90L596.73 104.90L596.38 105.59L596.58 106.47L597.00 107.32L597.67 108.17L598.37 108.74L599.47 109.40L600.30 110.11L600.53 111.00L600.18 111.71L599.53 113.21L598.80 114.74L597.92 115.68L596.51 116.80L596.79 117.79L597.54 118.73L598.54 119.85L598.99 120.74L599.39 121.60L599.42 122.39L599.91 123.38L599.25 123.99L597.86 124.83L597.45 125.67L596.88 126.34L595.54 127.75L595.88 128.68L595.56 129.60L594.58 130.86L593.66 131.28L592.93 131.53L592.16 131.82L591.99 132.60L592.07 134.55L592.23 135.83L592.45 137.51L592.55 138.31L592.21 139.42L591.49 139.04L590.40 138.59L589.65 138.50L588.90 138.41L587.59 138.25L585.18 138.04L583.83 137.85L582.86 137.80L581.84 137.89L581.11 138.09L580.12 138.33L579.16 138.51L578.32 138.55L577.58 138.44L576.85 138.33L575.05 137.88L572.62 137.55L571.29 137.53L569.65 137.94L568.69 138.47L567.78 138.78L566.61 138.73L565.21 138.77L563.00 138.98L561.23 139.14L559.97 139.32L559.05 139.46L556.83 139.82L556.08 139.69L555.27 139.50L554.56 139.31L553.23 139.01L552.32 139.02L551.22 139.21L549.32 139.19L547.70 138.51L546.76 138.46L544.38 138.36L542.47 137.71L541.47 137.30L540.04 136.58L540.15 138.18L540.08 139.09L539.88 139.81L539.14 142.70L538.70 144.45L537.63 145.69L536.61 146.87L535.44 148.18L534.88 150.05L535.05 151.46L535.33 152.80L535.90 154.21L536.81 155.55L537.99 156.85L538.67 158.32L539.16 159.32L538.97 160.45L537.94 161.97L536.17 163.45L534.15 163.87L532.98 164.11L531.06 164.31L528.16 164.72L526.48 164.99L525.27 165.18L524.19 165.35L523.13 165.52L522.39 165.63L520.67 165.90L519.24 166.12L518.19 167.13L518.36 168.73L518.52 169.50L519.93 173.13L523.64 177.42L522.66 178.05L520.51 178.44L519.45 178.64L515.92 179.28L513.49 180.04L514.12 182.37L515.94 182.69L517.42 184.02L515.57 185.86L515.76 186.72L516.27 187.49L516.21 188.69L516.15 189.69L516.02 192.29L516.20 195.17L521.37 195.42L525.15 195.55L532.41 194.73L532.47 192.31L532.64 191.53L533.21 188.88L534.85 186.71L535.43 185.95L536.31 185.00L537.48 183.74L538.69 182.58L539.88 182.18L541.52 181.31L542.19 180.91L543.02 180.29L543.97 179.57L544.50 180.24L550.34 187.62L551.19 187.52L552.72 187.35L554.01 187.20L553.29 192.32L552.84 193.48L551.57 197.12L550.14 201.20L550.21 202.38L550.40 205.76L549.18 208.11L547.95 210.50L547.50 211.17L542.67 213.82L542.48 215.00L542.52 216.22L542.65 217.59L542.28 219.27L541.07 221.06L540.47 221.68L539.51 222.68L538.11 223.92L537.28 225.50L536.90 226.28L536.16 227.50L535.58 228.27L534.94 228.87L533.36 230.00L531.12 231.88L530.57 232.57L529.75 233.28L528.54 233.67L527.73 233.94L524.57 234.89L521.03 235.78L518.70 235.81L517.88 236.33L517.25 237.01L515.88 237.59L513.72 238.73L513.06 239.09L510.99 240.25L510.00 240.45L509.29 240.66L508.44 241.09L507.75 241.53L506.63 241.99L505.91 242.14L504.58 242.27L503.50 242.65L502.37 243.50L501.55 244.22L499.78 244.42L494.50 245.21L492.36 248.31L491.79 249.14L490.72 250.68L489.81 251.32L489.14 251.70L486.63 253.25L485.75 253.79L482.51 255.87L481.23 257.02L480.33 257.28L478.49 257.07L476.98 256.92L473.78 257.31L473.15 258.53L472.73 259.21L471.64 259.66L469.03 260.75L468.11 260.74L465.54 262.16L460.44 264.98L459.01 264.95L457.89 265.13L456.22 265.92L454.97 266.52L454.22 266.98L452.76 267.76L450.95 268.48L449.86 268.81L448.78 268.61L447.52 268.30L446.13 268.12L444.49 267.91L440.87 269.38L440.26 269.80L439.30 269.81L437.86 269.54L437.02 269.78L436.09 270.11L434.27 270.86L432.28 270.84L430.96 270.92L430.59 271.69L430.03 273.15L428.56 274.37L427.21 276.33L425.72 277.50L425.02 277.81L423.99 278.05L423.23 278.28L422.42 278.53L421.39 278.55L420.40 279.03L418.92 279.58L417.20 278.97L414.99 279.33L415.72 280.54L416.82 280.74L417.58 281.56L417.36 282.67L419.20 285.81L421.66 286.49L422.64 287.50L423.07 288.17L423.38 289.57L424.55 289.57L426.49 289.57L427.71 285.40L428.73 285.38L430.99 285.32L432.07 285.26L432.89 283.98L434.81 283.00L436.02 282.54L437.02 282.70L438.33 282.14L439.05 281.97L439.19 282.77L435.65 285.47L434.94 288.39L436.36 288.73L436.69 289.44L437.32 289.90L438.05 289.56L439.54 290.34L439.93 291.10L442.15 288.60L444.08 287.50L445.40 287.21L446.15 287.21L446.61 288.25L447.64 289.22L447.85 290.20L447.65 291.14L446.83 293.25L446.43 293.98L445.22 294.67L444.79 295.85L444.58 296.84L445.80 300.06L448.16 305.11L451.89 306.53L453.84 307.27L454.69 307.00L461.10 302.36L463.48 300.63L484.88 296.81L507.48 284.65L510.17 283.22L524.90 275.42L525.72 274.81L527.36 273.59L529.37 272.52L533.37 269.12L534.52 268.27L536.03 267.15L540.42 263.89L545.51 260.95L548.75 259.08L551.07 257.73L552.80 256.73L555.13 255.39L557.12 254.24L559.19 253.26L565.03 250.49L565.87 250.09L574.65 246.02L575.62 245.57L576.50 245.16L577.41 244.63L578.41 243.77L581.46 241.14L587.07 236.31L587.72 235.75L588.62 235.28L590.36 234.39L598.32 230.32L602.72 228.07L604.02 227.40L606.43 225.82L608.70 224.34L618.48 217.94L631.97 215.20L632.69 215.03L633.41 214.61L634.38 214.04L635.22 213.55L640.17 210.67L641.78 209.72L645.82 207.37L655.68 205.47L657.89 205.04L658.82 204.86L660.09 204.62L661.82 204.29L662.67 204.42L669.21 205.48L671.02 205.77L670.83 204.58L671.31 203.31L671.61 202.48L673.17 200.65L673.77 199.94L678.59 189.56L680.72 187.05L684.08 183.10L689.84 182.33L691.40 182.02L692.98 181.71L694.12 181.48L696.59 181.00L698.60 180.60L699.99 180.33L702.40 178.83L704.28 177.65L707.92 177.79L710.75 177.89L712.82 176.85L713.97 176.28L715.27 175.29L717.22 173.79L718.63 172.71L719.38 172.14L720.13 171.51L720.92 171.08L721.32 169.72L721.34 168.95L721.68 167.73L722.26 166.60L722.91 166.25L723.70 165.99L724.44 165.42L725.20 165.02L726.14 164.67L727.44 164.39L726.46 162.03L725.80 160.83L725.02 158.68L724.70 157.14L723.24 151.21L722.60 149.28L721.99 148.26L721.15 146.07L721.08 144.30L721.89 143.66L722.72 143.34L723.97 143.54L724.70 144.62L725.72 145.24L727.08 146.03L727.98 146.31L728.73 146.21L729.43 145.14L730.41 144.18L731.29 142.87L732.63 139.95L733.24 138.29L733.08 137.14L732.23 135.91L731.01 135.09L729.91 133.25L729.29 132.20L728.32 130.98L728.72 129.48L729.64 128.68L731.08 128.73L732.52 128.96L733.47 128.67L733.19 127.83L733.60 126.67L734.44 126.11L735.35 125.63L735.78 124.75L736.09 123.81L736.35 122.91L736.30 122.12L736.46 121.35L736.38 120.27L736.03 119.37L735.38 118.26L734.86 117.26L734.58 116.41L733.97 114.64L733.42 114.03L732.65 113.33L731.47 112.11L730.70 111.39L730.04 110.36L729.30 109.36L728.61 108.60L727.93 107.83L727.07 107.17L726.37 106.71L725.40 106.32L724.26 106.02L723.54 106.19L722.80 107.16L722.82 107.91L723.19 108.68L723.51 109.61L723.34 110.77L722.58 111.39L721.79 111.87L721.16 112.34L719.74 113.32L719.22 113.90L718.64 114.84L717.97 116.08L717.39 116.81L716.73 117.61L716.11 118.46L715.37 119.16L714.71 119.68L713.67 120.92L712.53 121.70L711.76 122.78L711.31 123.60L710.92 124.58L710.50 125.65L709.98 126.47L709.14 127.62L708.19 128.80L706.78 130.21L705.65 131.22L704.50 132.28L703.21 133.31L702.45 134.03L701.33 135.02L700.02 135.98L698.28 136.87L697.08 137.19L696.06 137.43L695.23 137.68L694.08 137.86L693.24 137.94L692.31 138.01L690.73 137.83L689.58 137.47L689.14 136.81L688.80 135.56L687.34 135.24L686.88 134.05L687.31 133.43L688.38 132.85L690.30 132.65L691.21 132.42L692.37 132.09L693.21 131.85L694.28 131.47L695.41 130.83L696.17 130.00L696.62 129.08L696.48 128.33L695.91 127.62L695.02 127.41L693.47 127.39L692.57 126.93L691.68 126.29L690.99 125.90L690.16 125.55L688.62 124.81L686.89 124.35L684.07 123.56L682.80 123.64L681.72 123.53L680.66 123.26L679.36 122.78L678.25 122.27L676.98 121.60L675.70 120.79L673.91 119.53L672.31 117.73L671.16 116.37L669.93 114.84L669.42 114.22L668.67 113.84L667.71 113.99L666.94 114.65L666.44 115.63L666.32 116.46L666.16 117.54L665.72 118.98L665.17 120.75L664.99 122.08L665.17 123.50L665.48 125.43L665.17 127.14L662.94 129.88L658.31 134.52L650.87 141.05L641.33 145.31L634.55 145.20L635.07 140.98L637.79 130.58L637.02 126.61L633.25 124.75L630.78 127.21L625.90 128.96L625.02 125.66L625.34 116.66L622.42 111.83L616.46 103.24Z" data-ward="3" /><path id="ward-14" class="ward" d="M508.15 133.18L507.87 132.49L507.60 131.56L507.34 130.84L506.55 129.80L505.41 129.35L504.50 128.51L503.86 127.21L503.22 125.92L502.58 124.62L502.00 123.68L501.54 122.92L501.22 122.09L500.93 121.29L500.45 120.22L499.72 119.78L498.63 119.74L497.70 119.70L496.02 119.47L495.04 119.34L492.21 118.90L491.45 118.74L490.13 118.47L489.14 118.25L487.85 117.96L487.12 117.77L485.88 117.44L484.97 117.29L484.00 117.16L482.67 116.93L481.79 116.79L481.03 116.68L479.23 116.41L478.50 116.29L477.63 116.19L476.34 116.03L475.21 115.90L474.03 115.78L471.42 115.53L470.10 115.45L467.87 115.47L467.04 115.53L465.94 115.70L464.22 115.98L462.80 116.21L461.02 116.56L459.61 116.86L457.92 117.48L455.81 118.26L453.57 119.15L452.16 119.72L451.20 120.17L449.50 121.10L446.80 122.57L445.70 123.13L444.95 123.50L443.92 124.01L442.55 124.69L441.38 125.26L440.53 125.68L439.15 126.35L437.77 127.08L436.99 127.49L435.68 128.19L434.75 128.97L435.28 131.33L435.73 133.57L435.90 135.90L435.64 137.19L435.41 138.38L434.44 138.89L433.08 139.61L431.22 140.61L428.90 141.20L430.32 143.19L431.74 145.18L432.78 147.79L433.22 148.68L434.68 149.34L435.86 150.03L436.36 150.96L436.92 152.17L437.71 154.07L438.27 155.08L439.18 155.37L440.05 155.30L440.58 156.28L440.96 157.78L441.34 159.12L441.24 160.49L441.15 161.41L440.62 162.43L439.95 163.62L439.84 164.61L441.49 164.28L442.56 163.54L443.45 163.60L443.57 164.37L443.21 165.22L442.61 166.21L441.82 167.60L441.18 168.42L441.92 169.59L442.67 170.05L443.77 171.21L444.48 172.09L445.09 173.09L445.39 173.82L446.19 175.79L446.30 177.14L446.09 178.43L447.39 178.23L448.63 178.36L449.22 179.26L449.45 180.48L449.31 181.90L449.09 182.62L447.73 184.08L446.59 184.65L444.34 185.68L442.97 186.10L441.90 186.24L440.43 186.12L438.70 185.93L437.81 186.49L437.61 187.42L437.95 188.92L438.50 189.66L439.09 190.46L440.37 192.81L440.50 194.29L440.13 195.03L438.03 194.71L436.17 195.02L435.49 195.60L435.10 197.35L435.15 198.89L435.41 200.23L435.52 202.07L435.24 203.47L433.89 205.65L434.28 207.58L435.76 208.10L436.95 209.06L437.47 210.18L438.53 212.89L439.77 221.51L440.66 225.29L439.35 227.41L437.07 229.20L432.27 229.95L428.76 230.84L427.34 231.23L421.48 232.37L418.12 234.82L413.17 239.35L409.12 243.58L407.37 245.41L405.40 246.35L404.74 247.25L403.82 248.52L404.31 250.84L404.29 251.94L404.27 252.74L403.61 256.78L402.54 260.17L400.95 266.94L395.85 269.41L393.01 271.69L390.08 276.40L389.79 277.94L390.71 280.82L391.00 285.35L391.98 289.57L390.97 292.24L392.24 295.80L391.65 300.02L391.10 303.41L388.14 306.95L389.43 308.95L392.53 311.69L392.96 314.56L394.90 316.08L396.29 318.21L396.79 319.07L399.69 321.68L400.40 321.48L402.32 320.95L403.20 321.60L405.58 323.35L408.66 323.07L410.13 322.88L415.22 322.12L419.42 318.82L422.33 314.75L425.24 308.10L429.61 304.01L433.75 301.10L437.82 296.58L439.22 294.96L439.76 292.12L439.93 291.10L439.54 290.34L438.05 289.56L437.32 289.90L436.69 289.44L436.36 288.73L434.94 288.39L435.65 285.47L439.19 282.77L439.05 281.97L438.33 282.14L437.02 282.70L436.02 282.54L434.81 283.00L432.89 283.98L432.07 285.26L430.99 285.32L428.73 285.38L427.71 285.40L426.49 289.57L424.55 289.57L423.38 289.57L423.07 288.17L422.64 287.50L421.66 286.49L419.20 285.81L417.36 282.67L417.58 281.56L416.82 280.74L415.72 280.54L414.99 279.33L417.20 278.97L418.92 279.58L420.40 279.03L421.39 278.55L422.42 278.53L423.23 278.28L423.99 278.05L425.02 277.81L425.72 277.50L427.21 276.33L428.56 274.37L430.03 273.15L430.59 271.69L430.96 270.92L432.28 270.84L434.27 270.86L436.09 270.11L437.02 269.78L437.86 269.54L439.30 269.81L440.26 269.80L440.87 269.38L444.49 267.91L446.13 268.12L447.52 268.30L448.78 268.61L449.86 268.81L450.95 268.48L452.76 267.76L454.22 266.98L454.97 266.52L456.22 265.92L457.89 265.13L459.01 264.95L460.44 264.98L465.54 262.16L468.11 260.74L469.03 260.75L471.64 259.66L472.73 259.21L473.15 258.53L473.78 257.31L476.98 256.92L478.49 257.07L480.33 257.28L481.23 257.02L482.51 255.87L485.75 253.79L486.63 253.25L489.14 251.70L489.81 251.32L490.72 250.68L491.79 249.14L492.36 248.31L494.50 245.21L499.78 244.42L501.55 244.22L502.37 243.50L503.50 242.65L504.58 242.27L505.91 242.14L506.63 241.99L507.75 241.53L508.44 241.09L509.29 240.66L510.00 240.45L510.99 240.25L513.06 239.09L513.72 238.73L515.88 237.59L517.25 237.01L517.88 236.33L518.70 235.81L521.03 235.78L524.57 234.89L527.73 233.94L528.54 233.67L529.75 233.28L530.57 232.57L531.12 231.88L533.36 230.00L534.94 228.87L535.58 228.27L536.16 227.50L536.90 226.28L537.28 225.50L538.11 223.92L539.51 222.68L540.47 221.68L541.07 221.06L542.28 219.27L542.65 217.59L542.52 216.22L542.48 215.00L542.67 213.82L547.50 211.17L547.95 210.50L549.18 208.11L550.40 205.76L550.21 202.38L550.14 201.20L551.57 197.12L552.84 193.48L553.29 192.32L554.01 187.20L552.72 187.35L551.19 187.52L550.34 187.62L544.50 180.24L543.97 179.57L543.02 180.29L542.19 180.91L541.52 181.31L539.88 182.18L538.69 182.58L537.48 183.74L536.31 185.00L535.43 185.95L534.85 186.71L533.21 188.88L532.64 191.53L532.47 192.31L532.41 194.73L525.15 195.55L521.37 195.42L516.20 195.17L516.02 192.29L516.15 189.69L516.21 188.69L516.27 187.49L515.76 186.72L515.57 185.86L517.42 184.02L515.94 182.69L514.12 182.37L513.49 180.04L515.92 179.28L519.45 178.64L520.51 178.44L522.66 178.05L523.64 177.42L519.93 173.13L518.52 169.50L518.36 168.73L518.19 167.13L519.24 166.12L520.67 165.90L522.39 165.63L523.13 165.52L524.19 165.35L525.27 165.18L526.48 164.99L528.16 164.72L531.06 164.31L532.98 164.11L534.15 163.87L536.17 163.45L537.94 161.97L538.97 160.45L539.16 159.32L538.67 158.32L537.99 156.85L536.81 155.55L535.90 154.21L535.33 152.80L535.05 151.46L534.88 150.05L535.44 148.18L536.61 146.87L537.63 145.69L538.70 144.45L539.14 142.70L539.88 139.81L540.08 139.09L540.15 138.18L540.04 136.58L539.25 136.26L537.73 135.45L536.52 134.86L535.31 134.27L534.10 133.68L532.94 133.73L531.09 133.80L530.15 133.76L529.17 133.71L528.38 133.58L526.05 133.25L525.25 133.05L524.33 132.33L523.13 131.79L521.34 131.86L518.97 132.59L517.91 133.03L516.91 133.45L516.09 133.59L515.27 133.58L511.95 133.13L508.93 133.67L508.15 133.18Z" data-ward="14" /><path id="ward-10" class="ward" d="M311.49 554.25L305.77 555.02L287.60 556.60L285.50 558.66L283.53 557.38L280.46 556.86L278.00 557.21L279.88 560.79L278.41 562.66L278.38 564.60L279.58 567.63L279.13 569.35L275.93 570.61L272.45 572.50L271.24 573.80L269.76 576.45L271.60 582.08L273.44 587.71L276.55 591.30L279.46 594.66L283.43 598.09L285.26 603.67L286.38 607.72L285.81 611.91L286.57 614.14L287.86 615.74L288.44 616.37L292.06 615.66L293.98 615.26L292.84 617.78L292.08 621.62L290.21 624.10L289.12 625.16L286.49 627.45L283.81 630.09L284.26 632.00L283.46 633.83L284.99 635.26L285.75 637.68L285.31 638.57L284.39 640.40L283.72 643.46L284.53 646.89L281.76 650.38L278.33 652.64L278.59 655.42L277.91 658.77L276.73 661.56L277.36 664.28L281.45 665.33L283.53 667.69L287.55 668.56L289.45 666.33L290.74 664.41L294.02 664.11L295.80 670.19L291.46 682.74L290.94 684.26L279.75 702.43L258.19 709.12L224.68 700.89L188.94 699.55L186.80 699.53L183.03 699.45L181.54 699.42L180.02 699.32L151.46 697.44L149.56 697.31L146.79 697.12L145.79 697.05L144.77 696.98L143.64 697.21L140.99 698.53L140.19 699.91L140.06 701.21L139.95 702.31L139.37 703.57L138.75 704.30L138.14 705.02L138.39 706.13L138.68 707.38L138.22 708.46L137.78 709.50L137.62 710.65L138.05 712.06L138.38 713.17L138.87 714.82L134.09 719.13L126.76 725.72L125.83 726.56L117.46 727.46L113.74 729.90L111.18 729.53L109.63 729.31L108.36 729.13L102.62 728.94L100.38 729.42L99.10 729.69L95.04 731.05L93.26 731.47L91.87 732.51L89.93 733.40L87.55 733.84L85.44 734.24L83.60 734.58L81.83 735.69L79.49 737.17L78.73 737.66L75.63 739.30L74.91 739.67L74.12 740.09L72.52 740.93L70.34 741.21L66.53 741.71L64.73 742.65L63.61 742.97L61.21 743.66L58.50 744.86L56.67 745.18L54.93 745.48L51.42 746.08L49.53 747.20L47.87 748.34L45.54 749.74L43.57 751.06L42.41 751.16L40.58 751.30L39.69 751.38L36.60 751.70L30.93 752.91L20.11 756.00L11.73 753.68L10.75 753.18L0.00 750.84L0.11 752.98L5.00 849.86L4.78 850.59L12.73 873.92L13.10 876.42L14.23 878.94L17.36 880.23L18.08 880.79L23.60 881.45L25.59 881.69L26.74 881.93L30.29 882.65L33.53 883.81L35.65 884.56L37.90 889.33L38.82 891.99L44.60 908.61L41.89 923.59L55.48 929.69L55.34 931.71L53.33 950.68L53.33 951.68L53.35 996.83L53.78 1007.13L53.81 1008.28L56.04 1013.79L58.92 1019.04L79.10 1037.43L79.97 1037.73L82.03 1038.45L91.81 1044.66L96.97 1047.95L106.06 1050.70L108.35 1051.39L114.53 1052.96L123.18 1054.34L131.69 1064.11L136.43 1069.56L139.82 1076.90L133.73 1093.04L153.32 1107.99L179.64 1128.09L183.41 1128.44L184.67 1128.04L194.33 1126.41L208.98 1130.64L220.81 1134.05L228.80 1136.36L259.11 1129.00L261.24 1128.48L275.27 1122.71L275.69 1117.70L277.88 1116.06L282.70 1111.34L300.06 1100.03L321.40 1094.02L326.11 1074.43L314.92 1056.46L321.48 1037.45L323.75 1031.24L331.74 1019.60L332.60 1014.94L334.75 1012.91L336.32 1007.57L333.02 996.04L332.56 981.61L332.01 965.40L340.37 959.58L343.70 954.62L351.38 948.88L355.37 944.95L368.14 935.15L369.16 934.34L372.84 920.30L381.64 909.85L399.42 892.81L414.07 877.52L424.35 861.76L424.84 857.53L422.72 842.63L423.56 834.20L426.04 823.08L434.76 804.58L433.87 791.90L435.61 785.31L438.25 770.70L441.55 754.62L445.02 740.05L445.77 740.52L448.94 735.44L458.67 725.71L462.02 719.77L467.00 696.21L449.66 660.21L445.50 658.56L437.89 655.31L436.02 654.51L441.09 645.93L436.94 640.25L431.25 632.98L427.89 634.37L423.20 636.22L415.92 632.94L411.89 631.13L411.12 629.76L409.39 626.68L407.31 623.74L404.90 620.09L403.33 618.90L401.42 618.56L401.58 621.09L402.48 622.32L401.41 622.86L399.28 622.73L398.27 624.77L396.22 624.88L395.65 623.41L394.39 623.17L393.05 617.74L392.68 613.71L392.77 608.97L391.49 605.97L389.55 604.33L388.24 602.35L387.83 601.73L388.78 597.64L392.22 596.05L394.57 593.10L394.39 588.77L395.84 584.18L393.84 582.20L390.07 580.93L389.27 582.01L387.30 584.66L384.73 585.06L382.37 583.89L380.28 582.33L381.19 579.36L380.26 576.51L378.17 576.89L376.76 578.90L375.49 579.10L374.27 576.98L372.32 577.35L370.99 576.55L370.20 576.40L368.60 576.42L368.54 573.45L366.94 571.85L365.81 573.19L363.81 574.34L363.57 572.24L362.87 570.47L359.06 571.33L357.30 571.68L356.42 571.85L354.62 572.29L351.03 573.18L347.66 570.44L343.46 570.41L338.05 566.78L330.38 564.81L326.49 563.97L321.10 563.52L314.49 562.96L313.85 561.10L313.20 559.20L311.49 554.25Z" data-ward="10" /><path id="ward-12" class="ward" d="M341.25 310.78L339.66 307.68L332.48 309.35L330.36 310.83L329.63 311.34L325.87 313.71L324.45 314.60L323.06 315.19L320.29 316.38L319.32 316.64L314.24 317.98L313.38 318.21L309.82 318.16L307.66 318.59L305.40 318.84L304.49 318.01L304.23 317.19L303.44 316.66L301.92 317.07L299.49 316.88L298.78 316.19L298.22 315.13L296.79 314.88L295.74 314.96L294.17 314.89L293.68 314.12L292.72 314.07L290.99 314.85L289.91 314.88L288.24 314.85L287.16 314.75L285.71 314.57L284.67 313.92L283.80 313.62L282.66 313.76L281.84 313.88L281.67 315.95L281.51 317.91L281.41 319.34L281.05 320.84L280.80 321.78L280.21 323.85L279.62 324.95L279.25 325.65L278.74 327.36L277.77 329.36L276.66 329.92L275.61 330.45L273.91 329.39L273.05 328.02L272.20 326.64L271.05 325.08L270.39 322.89L270.20 321.43L269.50 319.92L269.13 319.11L268.57 316.69L266.70 315.10L264.44 313.19L263.78 312.44L262.84 312.06L261.15 311.52L260.19 311.23L259.03 310.88L257.57 310.45L255.70 309.67L255.02 309.38L254.08 308.51L252.10 308.80L251.01 308.95L249.28 309.94L247.72 311.48L246.08 312.92L244.68 314.03L243.32 315.10L240.92 316.79L238.80 319.23L238.80 320.87L239.35 322.63L239.90 324.40L240.50 326.44L240.90 328.30L241.12 329.34L242.07 331.75L242.67 334.05L243.77 335.40L244.66 335.89L245.50 336.34L246.34 337.24L247.19 338.15L248.53 338.98L250.64 340.04L252.68 340.58L254.06 341.17L255.59 341.20L257.30 341.12L259.10 340.22L260.47 339.07L261.66 338.08L262.54 337.89L263.61 337.66L264.81 338.49L265.41 339.66L265.99 340.80L266.54 341.70L267.44 343.17L268.22 343.90L269.62 345.22L271.28 346.79L273.38 348.77L274.07 349.71L275.15 350.85L276.71 351.38L278.12 351.84L279.11 351.61L280.09 351.83L282.67 353.62L283.63 354.45L284.18 354.90L284.80 355.50L285.90 356.99L287.91 357.64L289.08 358.01L291.62 358.58L294.14 360.32L294.79 360.78L295.81 361.48L297.32 361.78L298.61 362.04L299.98 362.37L301.71 364.18L302.29 364.66L303.63 365.63L304.30 366.12L306.47 366.90L309.22 366.98L310.83 367.26L311.89 367.40L313.68 367.82L315.24 368.32L317.24 369.84L317.90 370.93L319.77 374.03L320.71 376.25L322.56 379.27L324.10 381.77L323.89 383.69L322.25 384.77L321.31 385.09L319.98 385.44L318.79 386.16L317.93 386.31L317.05 386.99L315.98 387.45L315.49 388.04L314.94 388.71L314.25 390.16L313.90 391.12L313.62 392.38L313.46 393.44L313.27 395.66L313.12 397.35L312.96 399.22L312.84 400.24L312.65 401.98L312.54 402.97L311.66 404.49L310.90 406.44L310.04 407.75L309.43 409.29L308.34 410.74L307.87 411.36L305.34 412.68L304.34 413.18L303.40 413.66L302.57 414.09L300.55 415.17L298.52 416.74L297.45 417.57L296.34 417.55L295.59 418.24L295.04 418.74L294.42 419.31L293.81 421.12L293.33 422.38L292.82 423.69L292.45 424.64L292.37 425.81L292.13 428.33L292.05 430.40L291.64 431.56L291.84 432.47L291.45 434.25L291.17 437.30L290.64 438.82L290.19 439.56L289.19 440.65L287.81 441.36L286.40 441.03L283.66 440.32L281.89 440.17L279.87 440.00L278.67 440.28L276.86 440.72L275.86 441.82L275.43 442.84L274.58 444.31L273.08 446.48L272.09 447.30L269.82 449.18L269.25 449.84L268.29 450.95L267.42 452.02L267.45 454.31L268.37 455.69L269.34 456.65L270.14 457.45L270.72 458.66L270.92 459.84L271.12 461.07L270.75 462.41L269.92 464.59L269.07 466.24L268.38 467.57L268.02 468.65L267.44 470.43L267.18 471.24L266.95 472.10L266.55 474.28L266.48 476.34L265.67 478.24L265.24 479.23L266.07 480.29L266.46 481.63L266.44 484.00L265.40 485.79L264.00 487.73L263.44 488.49L261.91 489.86L260.91 490.76L260.38 492.10L260.42 493.14L260.83 493.94L262.60 496.27L263.49 497.44L263.88 498.55L264.33 499.82L264.75 500.99L267.09 498.41L268.28 496.97L269.46 495.86L275.05 494.81L277.48 494.61L278.70 494.64L282.29 494.63L283.41 495.81L279.25 498.43L280.33 498.12L282.43 497.67L286.91 499.33L287.24 500.76L287.05 502.66L288.15 502.29L289.78 501.53L291.73 502.20L293.78 502.30L295.14 502.79L295.72 504.55L297.37 504.41L298.44 502.33L302.98 501.41L305.71 501.75L306.51 502.51L307.54 502.51L308.32 501.44L310.99 500.37L312.98 499.96L313.86 501.02L315.45 504.07L317.34 507.54L318.21 509.00L319.25 508.23L320.90 507.00L321.82 505.64L327.89 496.68L329.80 494.44L334.18 489.30L333.69 486.56L333.55 485.78L334.68 483.09L335.60 480.91L338.56 475.96L339.93 470.48L339.95 468.72L339.98 464.42L343.85 466.72L351.99 469.90L358.64 469.03L364.00 467.90L366.73 467.32L368.00 467.05L374.10 467.30L375.18 467.34L379.08 468.47L383.41 469.73L386.91 474.94L393.38 477.43L397.34 480.01L398.35 480.53L398.50 481.83L399.34 482.49L400.85 483.35L400.89 482.21L402.67 482.00L404.09 481.73L407.04 478.68L409.03 474.20L409.37 473.10L412.55 468.81L418.37 462.00L425.51 455.16L426.32 454.39L426.98 452.49L427.72 450.38L427.25 447.80L427.39 445.18L427.46 444.43L427.69 441.83L425.30 440.26L422.63 437.78L422.42 436.48L422.19 435.00L420.50 432.83L416.16 433.27L413.22 433.23L409.71 431.93L410.85 428.70L414.75 428.37L415.11 424.88L417.07 421.19L418.77 419.44L422.40 415.71L422.31 414.52L421.81 413.86L421.41 413.02L420.58 411.30L421.46 408.61L421.85 407.59L421.76 403.72L421.74 402.96L421.09 399.49L420.88 398.38L424.13 395.81L423.88 385.07L423.59 383.67L421.97 375.73L421.22 372.03L419.68 360.36L418.50 341.37L416.75 342.08L415.29 342.31L414.41 342.45L413.52 340.89L412.51 337.69L411.19 337.03L409.86 336.96L406.59 338.04L401.39 338.53L396.38 338.36L394.82 337.00L392.67 336.27L389.79 337.27L386.52 337.47L384.00 336.17L382.61 335.87L381.42 335.09L378.09 332.76L376.72 331.11L374.36 328.22L373.27 327.86L372.34 327.55L368.52 327.51L365.70 326.46L365.81 324.38L364.48 323.21L362.22 324.29L361.51 324.50L358.13 325.51L354.05 323.95L353.91 322.70L351.34 319.67L350.16 316.85L351.62 313.84L351.31 313.17L350.57 311.97L350.33 309.97L348.13 308.76L346.69 309.49L345.22 311.82L343.40 312.94L341.25 310.78Z" data-ward="12" /><path id="ward-2" class="ward" d="M458.10 15.68L457.19 14.57L456.37 13.46L455.91 12.40L455.77 11.29L455.73 10.24L455.67 9.18L455.15 7.69L454.43 8.25L454.13 9.05L453.64 10.02L453.27 11.27L453.80 12.74L454.94 14.41L456.09 16.71L456.65 18.02L456.93 18.70L457.64 19.59L458.68 20.76L459.20 21.34L460.23 22.44L460.98 23.24L462.07 24.61L462.67 25.72L463.81 28.53L464.10 29.26L464.43 30.00L464.77 30.69L465.44 31.83L466.47 33.29L467.49 34.88L468.23 36.69L468.50 38.88L469.07 40.59L469.48 41.79L470.50 44.67L471.18 46.30L471.56 47.10L472.60 49.31L473.40 50.93L474.02 52.03L475.18 54.94L475.98 56.99L476.36 57.95L476.74 58.92L477.70 61.34L478.44 63.39L479.01 64.34L480.23 66.36L480.74 67.28L481.20 67.99L482.06 68.22L483.71 68.73L484.31 69.38L484.18 70.47L484.27 71.43L484.56 72.11L484.90 72.85L485.00 73.81L484.47 75.22L483.66 75.29L482.52 75.34L481.25 75.45L479.75 76.00L478.15 77.32L477.13 77.92L476.12 78.51L476.37 79.77L476.79 80.96L477.11 82.62L477.37 83.93L477.60 85.07L478.27 87.71L478.86 90.36L479.26 91.97L479.75 94.07L480.10 95.76L480.38 97.44L480.72 99.16L479.86 99.66L479.13 100.23L478.38 100.82L476.69 102.33L475.58 103.27L473.74 104.83L472.57 105.84L471.93 106.42L471.30 107.00L469.81 108.38L469.17 108.97L469.80 109.97L470.58 110.22L471.33 110.27L472.21 110.38L473.13 110.59L474.12 110.79L474.88 111.06L476.04 111.40L476.74 111.59L477.63 111.83L478.47 111.99L479.22 112.48L480.09 113.89L480.98 114.56L482.23 115.70L482.67 116.93L484.00 117.16L484.97 117.29L485.88 117.44L487.12 117.77L487.85 117.96L489.14 118.25L490.13 118.47L491.45 118.74L492.21 118.90L495.04 119.34L496.02 119.47L497.70 119.70L498.63 119.74L499.72 119.78L500.45 120.22L500.93 121.29L501.22 122.09L501.54 122.92L502.00 123.68L502.58 124.62L503.22 125.92L503.86 127.21L504.50 128.51L505.41 129.35L506.55 129.80L507.34 130.84L507.60 131.56L507.87 132.49L508.15 133.18L508.93 133.67L511.95 133.13L515.27 133.58L516.09 133.59L516.91 133.45L517.91 133.03L518.97 132.59L521.34 131.86L523.13 131.79L524.33 132.33L525.25 133.05L526.05 133.25L528.38 133.58L529.17 133.71L530.15 133.76L531.09 133.80L532.94 133.73L534.10 133.68L535.31 134.27L536.52 134.86L537.73 135.45L539.25 136.26L540.04 136.58L541.47 137.30L542.47 137.71L544.38 138.36L546.76 138.46L547.70 138.51L549.32 139.19L551.22 139.21L552.32 139.02L553.23 139.01L554.56 139.31L555.27 139.50L556.08 139.69L556.83 139.82L559.05 139.46L559.97 139.32L561.23 139.14L563.00 138.98L565.21 138.77L566.61 138.73L567.78 138.78L568.69 138.47L569.65 137.94L571.29 137.53L572.62 137.55L575.05 137.88L576.85 138.33L577.58 138.44L578.32 138.55L579.16 138.51L580.12 138.33L581.11 138.09L581.84 137.89L582.86 137.80L583.83 137.85L585.18 138.04L587.59 138.25L588.90 138.41L589.65 138.50L590.40 138.59L591.49 139.04L592.21 139.42L592.55 138.31L592.45 137.51L592.23 135.83L592.07 134.55L591.99 132.60L592.16 131.82L592.93 131.53L593.66 131.28L594.58 130.86L595.56 129.60L595.88 128.68L595.54 127.75L596.88 126.34L597.45 125.67L597.86 124.83L599.25 123.99L599.91 123.38L599.42 122.39L599.39 121.60L598.99 120.74L598.54 119.85L597.54 118.73L596.79 117.79L596.51 116.80L597.92 115.68L598.80 114.74L599.53 113.21L600.18 111.71L600.53 111.00L600.30 110.11L599.47 109.40L598.37 108.74L597.67 108.17L597.00 107.32L596.58 106.47L596.38 105.59L596.73 104.90L597.61 104.90L600.15 105.74L600.95 105.30L601.69 104.75L602.04 103.73L602.09 101.73L601.36 100.06L600.22 98.83L599.01 98.06L598.38 97.65L597.48 94.95L597.35 93.46L597.32 92.65L595.87 91.95L594.48 91.79L593.40 91.97L592.40 91.51L591.58 90.54L591.09 89.92L590.58 88.67L590.45 87.43L590.60 85.71L590.14 84.96L588.74 83.93L587.38 83.18L585.76 81.72L584.79 80.99L583.42 80.09L581.79 79.00L580.50 77.85L580.16 77.10L579.97 76.26L580.24 74.97L580.92 72.84L581.26 71.27L582.01 69.24L584.05 64.98L584.89 63.39L585.31 61.67L586.23 59.38L585.92 57.48L585.33 56.83L584.16 56.86L582.98 57.19L581.88 57.43L580.70 57.40L579.29 56.57L577.63 55.03L576.40 53.62L575.60 51.94L574.97 50.80L573.85 50.09L572.70 49.81L571.37 50.03L569.98 50.62L568.28 51.49L566.12 52.39L564.84 53.28L564.19 53.67L563.16 54.00L560.79 54.43L558.29 54.75L555.77 54.82L553.27 54.94L551.47 55.32L549.69 55.59L547.90 55.88L545.06 56.73L542.93 57.69L540.42 58.94L538.99 60.03L538.41 60.71L538.21 62.33L538.44 63.89L538.61 64.78L538.81 65.51L539.32 66.61L540.25 67.34L541.79 68.27L543.51 69.07L544.50 69.42L546.79 69.88L549.05 70.61L551.83 71.68L553.49 72.74L555.09 74.54L556.07 76.93L556.46 78.19L557.71 80.25L558.44 81.23L558.83 82.32L558.81 83.49L558.52 84.54L557.48 86.09L556.35 86.75L551.93 87.89L548.45 88.45L545.95 88.73L544.40 88.85L543.64 88.88L542.71 88.75L541.90 88.67L541.11 88.58L540.27 88.47L539.52 88.37L538.67 88.32L537.80 88.29L537.03 88.26L536.29 88.26L535.44 88.26L534.27 88.38L533.50 88.59L532.71 88.44L531.71 88.25L528.91 88.52L527.48 88.50L524.42 86.77L520.81 84.46L515.21 80.86L514.16 79.63L513.23 78.76L512.19 77.86L511.08 77.33L508.78 76.02L507.47 75.48L506.18 74.34L505.63 73.04L504.71 70.77L502.26 67.47L501.14 67.09L499.36 65.55L497.75 64.17L496.37 62.85L495.88 61.94L496.27 60.41L497.82 59.71L499.91 59.69L502.59 59.95L504.44 59.12L505.07 57.44L504.78 56.36L503.24 52.44L501.38 48.49L499.33 46.27L497.56 45.35L495.10 44.84L492.13 44.91L490.37 45.16L489.17 46.12L487.02 47.18L485.55 47.94L484.38 48.17L483.58 47.73L481.79 47.64L478.85 45.70L476.78 44.49L475.36 42.34L473.78 39.04L472.75 37.62L472.45 36.14L473.15 34.47L474.85 33.21L475.54 32.59L478.02 28.91L478.78 28.26L479.37 27.55L479.65 25.93L478.76 23.80L478.33 21.93L477.33 19.61L476.40 18.07L475.14 16.79L473.41 15.86L471.45 15.32L469.27 14.91L467.79 14.70L466.69 14.72L465.19 15.13L464.31 15.49L463.53 15.86L462.22 16.42L461.48 16.69L459.57 16.76L458.10 15.68Z" data-ward="2" /><path id="ward-6" class="ward" d="M661.39 372.12L657.07 372.29L656.24 372.84L653.23 378.28L648.56 386.75L640.54 386.53L638.69 385.85L636.24 384.94L634.76 383.79L633.80 383.04L632.95 383.11L631.57 383.23L620.01 384.85L608.23 389.34L602.82 393.42L600.75 396.99L604.21 397.51L605.08 397.64L604.95 399.24L604.83 400.72L602.93 401.06L601.47 401.11L599.04 400.53L597.76 399.70L595.73 399.12L594.77 398.34L593.24 397.01L592.29 396.54L592.06 397.54L592.29 398.53L592.76 399.78L592.19 400.95L591.37 401.94L590.44 403.09L589.58 403.90L588.19 404.74L587.54 405.13L585.76 406.02L584.68 407.21L583.52 408.23L582.76 407.68L582.12 406.35L580.67 406.65L579.72 406.85L578.39 406.15L577.86 405.43L578.09 404.02L578.17 402.41L577.42 401.68L576.69 401.16L576.31 400.24L575.25 398.89L572.26 398.24L570.17 397.89L569.37 397.53L568.67 397.23L567.28 396.03L566.29 394.11L565.63 393.49L562.78 392.82L560.17 393.45L558.33 394.19L558.16 395.34L557.14 395.94L556.26 396.05L554.09 396.58L552.66 396.95L551.28 397.96L551.18 398.74L551.60 399.62L552.19 401.20L552.14 402.84L552.09 403.83L552.91 405.25L553.86 405.71L555.22 406.19L556.24 406.70L557.42 407.46L558.85 408.45L559.48 409.17L559.79 409.93L559.48 411.55L558.50 414.09L558.03 416.18L557.25 416.95L556.12 417.97L553.77 419.42L554.79 421.36L555.83 423.83L556.22 426.18L554.46 429.60L553.39 430.79L551.76 432.17L549.89 434.58L546.96 436.91L545.23 438.00L543.55 438.16L542.48 438.27L539.11 438.81L535.69 439.03L533.42 439.82L530.70 441.00L525.86 442.94L525.12 443.34L524.11 444.72L523.38 446.84L522.07 450.08L519.90 451.02L518.87 451.27L517.68 451.55L514.91 452.98L514.10 453.47L512.86 454.23L512.33 454.88L512.69 455.68L514.08 456.17L515.02 455.92L516.33 456.36L518.21 456.99L519.28 457.35L521.12 457.53L522.45 456.89L523.52 456.18L524.84 456.16L526.17 456.73L526.20 457.61L525.84 458.91L527.03 459.17L527.65 458.71L528.67 458.23L528.79 459.46L528.67 460.87L529.61 461.72L531.18 461.92L532.29 462.01L533.32 462.58L533.76 463.26L534.35 464.23L535.27 464.98L536.28 465.39L539.21 466.77L540.18 466.14L540.95 465.46L541.99 465.65L543.39 465.55L544.39 465.16L545.14 464.71L548.29 464.97L550.44 465.70L551.12 466.62L550.86 467.55L550.08 467.00L548.31 466.44L546.37 466.20L544.31 466.48L542.90 466.86L541.11 467.78L540.19 468.33L539.23 469.40L538.11 470.37L534.86 472.41L534.23 472.80L533.04 473.42L531.41 473.60L531.33 476.54L531.73 477.37L532.86 478.85L535.49 481.65L537.22 483.88L538.41 486.73L539.43 488.14L541.35 488.85L543.39 488.68L545.54 488.48L548.38 487.52L549.96 492.08L551.63 495.82L552.89 499.18L553.62 502.76L554.20 505.28L554.80 507.28L554.77 509.75L553.69 513.74L552.80 516.64L552.65 518.82L553.02 523.08L552.38 525.33L550.59 526.68L548.26 527.79L549.67 542.46L543.89 552.00L536.95 563.07L548.94 582.88L549.85 584.45L554.53 593.53L557.57 599.44L560.18 604.51L565.12 599.70L571.27 598.05L579.86 598.20L590.73 600.92L605.38 601.76L610.45 600.71L620.91 597.82L630.95 598.92L640.96 605.55L657.07 611.25L667.38 610.28L675.20 607.21L683.82 605.62L689.07 606.72L703.98 613.18L714.53 616.68L720.03 620.35L738.45 630.79L749.62 632.59L761.77 636.13L773.10 642.85L812.81 649.06L823.25 655.62L829.20 653.71L840.35 644.77L862.14 634.22L874.31 632.09L903.95 630.24L912.52 627.35L938.97 622.63L953.83 616.18L956.64 611.69L964.34 594.98L964.97 592.43L964.92 580.06L981.80 561.95L993.58 535.93L1000.00 528.09L987.29 516.76L977.06 518.52L973.33 521.11L966.71 528.11L961.94 535.35L959.96 541.94L958.54 548.81L956.35 553.99L953.24 558.30L946.08 563.65L942.82 568.41L937.67 574.54L931.11 579.51L923.19 583.17L915.59 586.99L908.22 589.99L906.10 589.87L902.59 588.66L897.84 587.86L889.31 589.36L888.00 590.28L885.61 590.79L879.49 590.99L875.93 589.93L873.16 587.89L871.58 587.98L870.17 589.64L867.15 590.24L865.13 588.38L863.88 588.71L857.09 587.85L849.89 585.25L844.82 584.71L841.46 584.06L840.71 583.88L836.69 582.17L834.58 579.23L831.46 578.69L826.09 577.62L820.46 573.91L818.17 570.70L815.72 568.40L810.81 567.04L808.91 564.50L804.51 561.26L805.49 558.65L804.88 556.50L804.19 552.91L805.22 549.13L803.32 546.60L802.27 542.05L801.05 538.33L796.88 538.96L791.02 538.97L788.08 536.30L786.33 536.20L784.92 538.37L782.72 538.20L779.37 534.21L776.54 533.70L769.07 532.15L762.75 529.55L759.37 525.87L757.81 525.60L755.86 526.61L754.04 525.58L753.51 523.49L751.70 523.04L748.74 522.62L747.11 523.81L743.00 526.31L739.49 526.55L735.26 524.87L733.71 525.18L728.70 527.45L726.36 526.79L724.44 524.18L723.02 521.00L720.97 518.92L719.17 518.03L716.54 518.79L715.69 517.47L715.66 515.88L717.90 514.39L721.65 512.88L724.21 508.73L725.40 501.24L724.61 499.33L722.42 498.79L718.22 500.66L715.61 500.62L714.17 498.74L713.54 495.07L713.11 492.24L710.16 486.60L711.84 483.31L713.92 478.36L712.94 476.70L709.97 475.70L707.68 472.50L706.91 469.36L708.50 467.89L711.23 467.26L714.59 466.03L715.85 463.38L713.47 457.15L711.27 455.53L708.72 454.97L704.96 454.96L703.27 453.85L701.53 445.14L703.61 435.13L705.54 433.58L708.60 434.44L714.10 438.88L719.77 440.51L721.33 439.69L721.65 437.96L720.54 433.95L721.11 426.11L722.13 424.12L726.24 423.21L729.80 423.04L730.79 423.99L731.42 428.01L736.23 430.24L738.73 429.26L741.07 425.65L743.17 418.96L743.80 415.08L742.83 411.66L743.52 408.22L744.91 405.36L747.37 404.61L749.94 406.04L752.32 407.27L753.93 407.41L755.00 408.92L755.87 411.21L757.57 412.93L763.94 411.96L766.67 410.95L768.45 408.63L769.54 405.81L769.24 404.26L768.95 403.57L768.90 402.45L767.74 402.10L766.66 402.13L762.58 393.22L755.08 387.61L737.01 374.07L736.17 378.74L733.18 381.00L728.94 384.21L722.66 391.95L721.15 393.80L720.39 393.97L706.17 397.14L690.84 400.28L689.18 395.46L688.52 393.56L684.16 390.40L680.69 387.68L680.61 386.21L680.59 383.97L680.67 381.81L680.51 376.56L680.25 375.85L679.50 375.85L678.83 376.17L661.39 372.12Z" data-ward="6" /><path id="ward-4" class="ward" d="M729.13 174.49L726.14 164.67L725.20 165.02L724.44 165.42L723.70 165.99L722.91 166.25L722.26 166.60L721.68 167.73L721.34 168.95L721.32 169.72L720.92 171.08L720.13 171.51L719.38 172.14L718.63 172.71L717.22 173.79L715.27 175.29L713.97 176.28L712.82 176.85L710.75 177.89L707.92 177.79L704.28 177.65L702.40 178.83L699.99 180.33L698.60 180.60L696.59 181.00L694.12 181.48L692.98 181.71L691.40 182.02L689.84 182.33L684.08 183.10L680.72 187.05L678.59 189.56L673.77 199.94L673.17 200.65L671.61 202.48L671.31 203.31L670.83 204.58L671.02 205.77L669.21 205.48L662.67 204.42L661.82 204.29L660.09 204.62L658.82 204.86L657.89 205.04L655.68 205.47L645.82 207.37L641.78 209.72L640.17 210.67L635.22 213.55L634.38 214.04L633.41 214.61L632.69 215.03L631.97 215.20L618.48 217.94L608.70 224.34L606.43 225.82L604.02 227.40L602.72 228.07L598.32 230.32L590.36 234.39L588.62 235.28L587.72 235.75L587.07 236.31L581.46 241.14L578.41 243.77L577.41 244.63L576.50 245.16L575.62 245.57L574.65 246.02L565.87 250.09L565.03 250.49L559.19 253.26L557.12 254.24L555.13 255.39L552.80 256.73L551.07 257.73L548.75 259.08L545.51 260.95L540.42 263.89L536.03 267.15L534.52 268.27L533.37 269.12L529.37 272.52L530.95 274.71L531.91 276.11L533.30 280.42L534.43 284.45L536.48 286.80L539.06 290.62L540.98 293.47L543.42 297.08L543.94 298.12L543.42 302.71L543.28 303.45L545.27 309.92L545.93 310.53L552.84 310.92L559.10 312.46L560.98 312.96L579.54 305.16L582.50 311.67L583.54 314.68L585.01 318.92L586.05 332.51L597.71 333.20L598.82 334.50L600.25 335.51L602.34 335.72L603.24 335.10L604.72 336.13L605.46 336.56L607.01 337.27L609.81 338.12L611.27 340.09L613.08 342.88L613.52 345.40L614.25 345.50L616.81 345.86L619.69 345.76L622.55 345.89L624.65 350.49L625.16 353.34L630.19 357.44L631.97 358.94L633.62 360.32L637.13 363.26L645.73 362.70L651.32 364.41L654.70 370.21L655.36 371.33L656.24 372.84L657.07 372.29L661.39 372.12L678.83 376.17L679.50 375.85L680.25 375.85L680.51 376.56L680.67 381.81L680.59 383.97L680.61 386.21L680.69 387.68L684.16 390.40L688.52 393.56L689.18 395.46L690.84 400.28L706.17 397.14L720.39 393.97L721.15 393.80L722.66 391.95L728.94 384.21L733.18 381.00L736.17 378.74L737.01 374.07L755.08 387.61L762.58 393.22L766.66 402.13L767.74 402.10L768.90 402.45L768.66 400.72L768.54 399.89L767.56 395.74L765.89 390.03L765.06 386.58L767.25 377.62L760.66 370.87L758.45 362.08L759.36 356.78L758.43 344.21L752.55 332.39L744.70 331.48L740.48 334.35L737.29 336.72L729.40 336.96L725.52 329.26L724.60 326.92L723.22 325.12L722.33 321.04L720.06 315.78L716.62 305.92L710.98 298.79L700.75 299.39L700.50 294.85L699.09 291.79L696.58 288.06L689.18 279.01L691.03 272.95L695.65 277.37L699.94 276.19L701.57 263.65L698.96 252.57L698.78 250.34L702.15 250.20L708.19 256.02L710.87 256.60L717.39 255.23L724.08 254.68L731.80 241.44L735.14 237.05L730.95 231.97L730.62 224.95L735.77 222.45L733.17 218.18L733.57 207.88L728.59 199.00L730.39 194.08L734.76 183.81L729.13 174.49Z" data-ward="4" /><path id="ward-8" class="ward" d="M468.40 417.16L466.23 414.25L463.96 413.35L462.90 412.93L459.80 411.40L456.70 409.54L454.36 408.32L451.72 408.51L450.02 409.40L448.77 410.06L446.85 412.73L445.53 415.47L445.16 416.27L443.82 417.42L442.28 415.73L441.69 415.08L440.89 410.49L440.18 409.61L437.19 409.48L434.72 408.63L434.22 411.37L432.84 412.91L431.65 413.93L427.68 412.54L423.33 414.15L422.31 414.52L422.40 415.71L418.77 419.44L417.07 421.19L415.11 424.88L414.75 428.37L410.85 428.70L409.71 431.93L413.22 433.23L416.16 433.27L420.50 432.83L422.19 435.00L422.42 436.48L422.63 437.78L425.30 440.26L427.69 441.83L427.46 444.43L427.39 445.18L427.25 447.80L427.72 450.38L426.98 452.49L426.32 454.39L425.51 455.16L418.37 462.00L412.55 468.81L409.37 473.10L409.03 474.20L407.04 478.68L404.09 481.73L402.67 482.00L400.89 482.21L400.85 483.35L400.76 486.07L394.40 497.65L393.50 498.21L390.46 499.91L389.58 500.34L389.50 501.28L390.98 501.91L389.24 502.98L388.39 502.97L387.40 503.20L386.56 503.44L384.36 503.85L384.62 505.28L388.40 505.66L391.80 505.73L393.74 505.84L398.73 506.54L399.09 504.20L401.69 503.59L402.27 504.48L404.33 507.71L404.03 510.63L403.76 514.28L413.69 521.57L414.28 522.08L415.39 521.93L417.55 522.05L418.20 522.43L417.07 523.81L416.27 524.20L416.35 525.16L417.68 526.19L418.86 527.43L418.19 528.49L418.59 531.52L419.58 532.97L421.06 535.11L421.56 536.00L422.11 536.98L424.91 538.68L431.68 537.85L432.64 537.93L433.99 537.67L437.57 540.69L441.48 540.61L443.84 544.10L445.64 545.13L450.98 549.13L454.30 549.60L459.53 550.68L464.90 552.12L466.35 550.97L467.13 550.53L472.84 547.53L474.14 546.93L474.86 546.30L478.12 543.53L477.36 542.14L476.68 541.47L475.66 540.34L475.27 538.72L474.79 536.69L474.80 535.26L474.81 533.83L475.96 531.63L476.45 530.54L477.61 527.60L477.87 526.55L478.37 524.52L478.40 521.84L479.26 520.75L479.78 520.09L480.24 519.52L481.37 517.17L481.85 516.16L482.40 513.82L482.69 512.56L484.12 509.47L484.47 508.71L484.62 507.83L484.57 507.02L484.03 505.72L484.40 504.45L485.49 504.44L486.39 504.81L487.27 504.98L488.43 504.91L489.09 504.57L490.16 504.02L490.67 503.45L491.12 502.37L491.15 501.19L491.47 500.49L492.38 500.37L493.24 501.22L495.03 500.29L496.18 499.26L497.09 498.46L497.58 497.65L498.14 494.62L498.65 492.94L499.63 491.72L500.76 490.29L501.24 489.34L500.85 487.78L500.34 486.48L500.48 485.34L500.56 483.91L500.52 483.16L499.77 481.86L498.62 481.18L494.32 481.63L493.07 478.42L490.70 478.67L487.40 480.81L485.82 482.35L480.89 487.35L479.46 488.79L478.50 489.75L477.42 489.65L472.00 489.19L467.46 488.51L467.51 486.48L467.57 485.45L468.05 478.88L467.85 477.47L467.17 477.13L464.70 475.58L463.92 474.71L462.45 475.18L460.37 474.91L458.76 474.16L456.28 472.11L452.94 469.49L451.38 468.28L450.76 467.18L449.10 464.50L448.15 462.97L447.69 461.34L447.45 460.50L447.04 456.82L449.58 455.08L450.63 454.36L455.68 450.83L457.84 449.47L459.50 448.43L460.42 447.29L460.85 446.68L461.96 444.74L462.75 443.44L463.78 441.73L464.47 438.91L463.99 437.59L463.26 434.92L463.49 433.12L462.98 429.95L462.72 428.10L461.51 427.42L460.42 426.81L461.45 425.99L463.56 425.78L464.88 425.64L467.61 427.15L469.97 426.30L471.24 426.14L472.99 425.91L474.24 425.46L474.94 425.21L475.57 424.66L476.86 423.26L477.97 421.13L478.58 419.35L479.88 418.42L481.27 417.75L482.82 417.00L480.63 415.79L479.81 414.47L477.09 416.34L473.70 418.37L470.06 420.04L469.37 420.36L468.96 419.02L468.40 417.16Z" data-ward="8" /><path id="ward-7" class="ward" d="M479.47 424.70L479.80 423.49L482.93 420.56L484.12 418.05L483.55 417.25L482.82 417.00L481.27 417.75L479.88 418.42L478.58 419.35L477.97 421.13L476.86 423.26L475.57 424.66L474.94 425.21L474.24 425.46L472.99 425.91L471.24 426.14L469.97 426.30L467.61 427.15L464.88 425.64L463.56 425.78L461.45 425.99L460.42 426.81L461.51 427.42L462.72 428.10L462.98 429.95L463.49 433.12L463.26 434.92L463.99 437.59L464.47 438.91L463.78 441.73L462.75 443.44L461.96 444.74L460.85 446.68L460.42 447.29L459.50 448.43L457.84 449.47L455.68 450.83L450.63 454.36L449.58 455.08L447.04 456.82L447.45 460.50L447.69 461.34L448.15 462.97L449.10 464.50L450.76 467.18L451.38 468.28L452.94 469.49L456.28 472.11L458.76 474.16L460.37 474.91L462.45 475.18L463.92 474.71L464.70 475.58L467.17 477.13L467.85 477.47L468.05 478.88L467.57 485.45L467.51 486.48L467.46 488.51L472.00 489.19L477.42 489.65L478.50 489.75L479.46 488.79L480.89 487.35L485.82 482.35L487.40 480.81L490.70 478.67L493.07 478.42L494.32 481.63L498.62 481.18L499.77 481.86L500.52 483.16L500.56 483.91L500.48 485.34L500.34 486.48L500.85 487.78L501.24 489.34L500.76 490.29L499.63 491.72L498.65 492.94L498.14 494.62L497.58 497.65L497.09 498.46L496.18 499.26L495.03 500.29L493.24 501.22L492.38 500.37L491.47 500.49L491.15 501.19L491.12 502.37L490.67 503.45L490.16 504.02L489.09 504.57L488.43 504.91L487.27 504.98L486.39 504.81L485.49 504.44L484.40 504.45L484.03 505.72L484.57 507.02L484.62 507.83L484.47 508.71L484.12 509.47L482.69 512.56L482.40 513.82L481.85 516.16L481.37 517.17L480.24 519.52L479.78 520.09L479.26 520.75L478.40 521.84L478.37 524.52L477.87 526.55L477.61 527.60L476.45 530.54L475.96 531.63L474.81 533.83L474.80 535.26L474.79 536.69L475.27 538.72L475.66 540.34L476.68 541.47L477.36 542.14L478.12 543.53L474.86 546.30L475.71 547.68L476.43 548.83L478.87 548.57L480.40 548.40L481.47 548.29L482.97 549.63L485.08 550.69L486.02 551.49L486.86 552.21L491.26 551.22L493.72 548.71L495.64 548.98L497.82 550.16L498.46 551.09L498.90 552.37L500.19 553.64L500.81 554.25L501.90 555.60L503.26 556.95L505.61 559.72L501.83 562.72L499.98 561.59L497.13 566.28L493.63 570.13L493.13 570.69L491.40 569.47L490.53 569.92L491.67 571.11L492.26 574.18L492.71 576.18L490.64 579.40L488.47 582.37L488.62 584.19L488.80 585.02L487.49 587.61L487.34 590.05L489.27 591.81L487.97 593.46L486.09 595.58L485.88 598.23L486.48 598.78L486.60 599.61L485.60 601.20L486.58 602.67L488.78 601.98L490.49 600.95L493.20 600.22L493.99 600.01L495.78 601.07L496.24 602.74L496.96 605.34L497.21 606.08L488.07 619.45L482.70 622.51L482.06 623.28L479.36 626.51L476.98 629.01L477.06 629.94L477.69 634.19L476.56 635.34L466.13 645.95L454.39 656.12L453.55 656.84L450.44 659.53L449.66 660.21L467.00 696.21L478.40 683.30L488.69 676.17L505.99 661.93L521.55 655.60L527.08 650.59L538.18 640.36L545.90 631.87L547.25 627.60L547.80 624.99L547.98 622.65L548.16 620.62L547.85 617.29L547.76 614.72L547.61 612.17L548.85 610.53L550.01 610.20L551.33 609.90L552.36 609.71L553.45 609.55L554.30 609.53L555.53 609.40L556.80 609.43L558.27 608.92L559.07 607.87L559.67 606.84L559.86 605.45L560.18 604.51L557.57 599.44L554.53 593.53L549.85 584.45L548.94 582.88L536.95 563.07L543.89 552.00L549.67 542.46L548.26 527.79L550.59 526.68L552.38 525.33L553.02 523.08L552.65 518.82L552.80 516.64L553.69 513.74L554.77 509.75L554.80 507.28L554.20 505.28L553.62 502.76L552.89 499.18L551.63 495.82L549.96 492.08L548.38 487.52L545.54 488.48L543.39 488.68L541.35 488.85L539.43 488.14L538.41 486.73L537.22 483.88L535.49 481.65L532.86 478.85L531.73 477.37L531.33 476.54L531.41 473.60L533.04 473.42L534.23 472.80L534.86 472.41L538.11 470.37L539.23 469.40L540.19 468.33L541.11 467.78L542.90 466.86L544.31 466.48L546.37 466.20L548.31 466.44L550.08 467.00L550.86 467.55L551.12 466.62L550.44 465.70L548.29 464.97L545.14 464.71L544.39 465.16L543.39 465.55L541.99 465.65L540.95 465.46L540.18 466.14L539.21 466.77L536.28 465.39L535.27 464.98L534.35 464.23L533.76 463.26L533.32 462.58L532.29 462.01L531.18 461.92L529.61 461.72L528.67 460.87L528.79 459.46L528.67 458.23L527.65 458.71L527.03 459.17L525.84 458.91L526.20 457.61L526.17 456.73L524.84 456.16L523.52 456.18L522.45 456.89L521.12 457.53L519.28 457.35L518.21 456.99L516.33 456.36L515.02 455.92L514.08 456.17L512.69 455.68L512.33 454.88L509.39 453.22L507.60 453.34L506.27 453.33L504.50 450.22L501.51 444.68L500.33 440.02L499.77 436.68L499.41 434.52L500.70 432.97L502.52 432.81L503.93 433.39L505.92 432.50L506.11 431.22L506.11 430.05L500.47 425.96L500.76 422.85L499.72 421.06L497.04 421.47L495.51 422.54L493.56 422.80L492.00 426.41L490.96 427.51L488.38 428.34L483.32 428.47L483.10 426.90L484.38 426.44L484.13 425.43L482.56 424.89L480.02 425.28L479.47 424.70Z" data-ward="7" /><path id="ward-1" class="ward" d="M440.70 1.81L439.76 1.54L438.25 0.85L437.46 0.53L436.39 0.27L435.12 0.00L433.38 0.44L432.38 1.40L432.58 3.59L432.77 4.71L433.06 6.39L433.24 7.48L434.14 10.98L434.63 13.39L434.95 14.58L435.48 18.15L435.73 20.49L435.90 22.00L436.28 23.27L437.20 26.38L437.59 27.77L438.15 28.92L439.01 30.75L439.03 32.19L439.05 33.15L439.06 34.19L438.81 34.92L437.41 37.36L437.94 38.49L438.68 40.04L440.60 42.57L442.04 44.24L443.56 46.01L444.53 47.12L446.04 48.77L447.77 50.63L450.98 53.20L451.42 53.98L452.20 54.77L453.02 56.36L453.82 57.90L453.73 60.31L453.47 61.76L453.30 62.68L452.72 64.02L451.27 67.42L450.65 68.05L450.38 68.96L448.32 71.89L446.91 72.43L444.89 72.32L443.29 72.23L442.22 72.11L439.71 72.03L438.60 72.26L436.84 72.62L435.86 73.88L435.34 74.54L435.39 77.25L436.52 78.78L438.28 81.17L438.76 82.15L440.11 83.52L441.69 85.49L442.86 86.96L444.05 88.45L445.31 92.23L446.16 94.77L446.12 96.21L443.78 98.12L443.15 98.63L440.65 100.40L439.37 101.15L437.97 101.87L434.89 103.37L434.01 103.79L430.82 105.07L427.46 107.02L427.09 107.85L425.77 108.80L425.83 109.67L426.11 111.44L426.68 113.01L427.50 114.78L428.54 116.64L430.24 119.65L432.04 122.54L432.27 123.58L433.58 126.04L434.20 127.85L434.75 128.97L435.68 128.19L436.99 127.49L437.77 127.08L439.15 126.35L440.53 125.68L441.38 125.26L442.55 124.69L443.92 124.01L444.95 123.50L445.70 123.13L446.80 122.57L449.50 121.10L451.20 120.17L452.16 119.72L453.57 119.15L455.81 118.26L457.92 117.48L459.61 116.86L461.02 116.56L462.80 116.21L464.22 115.98L465.94 115.70L467.04 115.53L467.87 115.47L470.10 115.45L471.42 115.53L474.03 115.78L475.21 115.90L476.34 116.03L477.63 116.19L478.50 116.29L479.23 116.41L481.03 116.68L481.79 116.79L482.67 116.93L482.23 115.70L480.98 114.56L480.09 113.89L479.22 112.48L478.47 111.99L477.63 111.83L476.74 111.59L476.04 111.40L474.88 111.06L474.12 110.79L473.13 110.59L472.21 110.38L471.33 110.27L470.58 110.22L469.80 109.97L469.17 108.97L469.81 108.38L471.30 107.00L471.93 106.42L472.57 105.84L473.74 104.83L475.58 103.27L476.69 102.33L478.38 100.82L479.13 100.23L479.86 99.66L480.72 99.16L480.38 97.44L480.10 95.76L479.75 94.07L479.26 91.97L478.86 90.36L478.27 87.71L477.60 85.07L477.37 83.93L477.11 82.62L476.79 80.96L476.37 79.77L476.12 78.51L477.13 77.92L478.15 77.32L479.75 76.00L481.25 75.45L482.52 75.34L483.66 75.29L484.47 75.22L485.00 73.81L484.90 72.85L484.56 72.11L484.27 71.43L484.18 70.47L484.31 69.38L483.71 68.73L482.06 68.22L481.20 67.99L480.74 67.28L480.23 66.36L479.01 64.34L478.44 63.39L477.70 61.34L476.74 58.92L476.36 57.95L475.98 56.99L475.18 54.94L474.02 52.03L473.40 50.93L472.60 49.31L471.56 47.10L471.18 46.30L470.50 44.67L469.48 41.79L469.07 40.59L468.50 38.88L468.23 36.69L467.49 34.88L466.47 33.29L465.44 31.83L464.77 30.69L464.43 30.00L464.10 29.26L463.81 28.53L462.67 25.72L462.07 24.61L460.98 23.24L460.23 22.44L459.20 21.34L458.68 20.76L457.64 19.59L456.93 18.70L456.65 18.02L456.09 16.71L454.94 14.41L453.80 12.74L453.27 11.27L453.64 10.02L454.13 9.05L454.43 8.25L455.15 7.69L454.78 5.71L454.35 5.01L452.48 3.54L450.27 2.83L448.96 2.48L447.86 1.94L446.80 1.31L445.87 1.42L444.52 2.18L442.82 2.65L440.70 1.81Z" data-ward="1" /></svg>