<svg viewBox="0 0 1000.00 580.70" xmlns="http://www.w3.org/2000/svg"><style>.ward { fill: #e2e8f0; stroke: #fff; stroke-width: 0.5px; } .ward:hover { fill: #cbd5e1; }</style><path id="ward-3" class="ward" d="M425.22 13.72L424.16 10.67L423.71 9.37L423.35 7.32L426.41 2.64L422.65 1.78L420.19 0.92L416.93 0.13L415.19 0.00L412.68 0.44L411.30 0.93L409.94 2.93L408.39 4.76L407.17 8.15L406.62 9.71L405.20 10.99L403.06 11.69L401.58 12.42L398.98 13.42L396.38 14.79L394.43 14.32L392.94 14.41L390.80 15.68L388.38 15.92L387.15 14.98L385.97 14.45L383.32 14.36L379.89 14.23L376.30 14.34L371.89 14.45L366.99 14.59L363.52 14.35L361.20 14.19L357.35 13.92L355.42 14.22L353.79 15.80L352.56 19.29L351.16 23.26L350.56 25.50L351.31 27.15L352.31 29.35L353.27 31.45L353.91 33.51L354.38 36.32L355.87 42.38L357.28 45.64L360.86 51.42L362.74 54.65L363.89 57.30L365.40 60.61L368.04 65.92L369.47 68.38L371.86 72.51L373.75 75.69L374.84 76.86L375.52 78.58L376.11 80.03L376.72 82.37L377.16 84.03L377.68 86.03L378.30 87.50L379.15 89.54L379.55 90.96L380.30 92.64L381.25 94.75L383.54 103.94L383.84 105.19L384.24 107.12L384.74 109.52L385.13 112.30L385.68 113.52L386.96 116.32L387.59 118.53L388.18 120.50L388.55 121.72L389.77 123.30L391.09 125.02L392.10 126.33L393.33 127.92L394.48 129.40L395.39 130.80L396.23 132.44L396.28 134.53L395.45 136.08L395.04 137.57L394.74 139.02L394.43 140.47L393.36 142.64L392.57 144.88L392.04 146.41L391.45 148.07L390.77 150.02L390.84 153.41L391.90 154.36L393.09 154.77L394.88 154.33L396.41 153.87L397.68 153.76L398.95 153.65L400.62 154.29L402.91 155.62L404.19 155.99L406.49 156.81L408.16 157.38L409.26 159.81L408.75 162.24L407.56 163.29L405.67 164.66L404.23 165.89L402.54 167.22L401.69 168.32L400.98 169.33L400.58 170.67L400.36 171.88L400.50 174.03L400.51 175.48L400.71 176.83L400.92 178.55L400.80 179.95L400.93 181.33L402.53 182.35L404.19 183.76L405.31 184.49L406.83 185.14L408.73 185.80L411.18 186.62L412.78 186.85L414.62 186.76L417.11 185.94L419.54 185.97L420.88 186.25L422.81 187.07L424.93 188.81L426.07 189.58L428.22 191.04L429.09 192.18L430.01 193.31L430.69 195.19L431.54 196.66L432.15 197.90L433.37 198.68L434.68 199.18L436.00 199.57L438.23 199.43L440.50 199.27L441.81 199.17L443.64 198.99L445.94 198.60L447.17 198.26L448.38 197.88L449.93 197.12L451.48 196.58L452.80 195.94L454.80 193.82L455.74 191.22L455.88 189.04L454.92 184.42L453.75 179.09L453.57 176.78L454.08 174.63L455.93 174.09L457.39 174.52L459.59 173.96L460.91 173.05L462.86 172.47L466.86 170.68L469.85 169.67L473.31 168.35L474.96 168.08L476.78 168.65L478.66 169.28L480.27 169.40L480.08 167.27L479.92 165.51L479.58 164.12L478.98 161.74L478.07 158.16L477.04 155.62L476.00 153.08L475.29 150.42L474.96 149.21L474.71 146.53L474.37 144.82L473.92 142.54L473.57 140.73L473.11 138.39L473.44 135.50L469.27 133.56L469.08 131.05L468.94 128.91L468.82 127.13L467.90 123.50L467.30 121.17L464.73 115.12L463.00 108.59L462.59 107.06L461.49 102.04L460.82 98.95L460.38 96.94L459.93 94.88L458.13 86.66L457.15 85.29L456.04 79.66L454.57 66.77L452.29 52.25L452.14 50.46L452.65 46.96L452.85 45.55L453.32 42.37L452.03 40.51L448.90 36.00L447.33 33.72L445.60 31.22L444.87 30.17L443.04 27.67L440.61 24.34L439.25 23.77L433.00 21.16L427.71 15.87L425.22 13.72Z" data-ward="3" /><path id="ward-14" class="ward" d="M688.63 319.12L685.15 315.71L683.79 314.38L681.15 312.35L680.74 310.83L677.56 308.03L672.88 306.28L671.77 307.70L671.51 309.50L671.26 311.30L671.62 313.64L671.72 316.14L670.77 318.52L668.22 320.31L666.83 320.83L663.35 320.96L661.30 320.89L659.46 320.41L657.22 319.81L654.97 319.55L653.62 319.71L651.40 319.97L649.19 319.66L647.82 319.41L645.32 319.00L641.09 317.39L640.34 316.41L637.24 312.47L635.38 311.58L633.99 311.63L631.53 311.71L629.61 312.40L628.34 312.85L626.97 313.34L625.72 313.56L623.65 313.70L621.55 313.66L619.29 313.82L616.87 314.09L614.89 313.74L613.70 311.77L612.22 311.43L609.30 311.80L607.06 312.77L604.07 312.40L602.01 314.43L600.21 315.82L598.73 316.36L597.03 317.29L595.53 318.30L593.33 318.19L589.91 314.72L585.39 310.17L575.57 324.37L573.07 335.82L574.87 345.97L577.35 349.24L579.83 352.52L580.23 353.87L580.92 356.57L584.89 365.35L585.35 376.12L585.60 381.78L586.33 390.79L586.74 395.88L586.91 397.69L587.56 401.69L588.60 408.86L588.86 410.60L589.88 427.97L589.13 433.73L588.31 440.02L589.87 440.08L594.18 440.26L595.99 440.33L598.36 440.91L603.34 443.83L609.32 448.79L612.08 450.36L614.76 451.88L621.32 453.99L625.36 454.06L629.18 454.22L630.68 454.32L634.33 454.55L638.20 455.43L640.03 455.84L643.57 457.11L649.83 460.17L654.00 462.13L656.56 463.85L658.33 465.00L659.82 465.69L662.26 466.83L664.39 467.29L666.17 467.68L668.85 467.59L678.15 468.37L680.36 468.55L686.87 469.09L693.55 469.65L696.14 469.87L696.84 459.59L693.87 403.09L693.81 401.87L697.32 397.73L700.44 394.04L701.89 392.45L700.89 390.27L705.74 386.31L708.30 384.22L712.11 382.67L714.21 381.81L717.67 379.00L718.16 376.40L720.19 374.07L722.56 371.44L724.16 368.77L726.11 365.49L728.54 362.77L729.39 359.75L730.25 356.74L729.79 351.99L728.77 341.50L727.47 341.43L724.59 341.29L721.82 340.99L719.81 341.04L715.61 341.13L712.41 338.54L710.82 337.24L709.34 336.05L707.69 334.59L706.19 333.27L704.67 331.92L702.71 330.65L695.83 326.17L691.96 322.37L688.63 319.12Z" data-ward="14" /><path id="ward-16" class="ward" d="M470.32 270.41L468.32 268.32L467.44 267.13L466.57 265.93L463.30 264.34L456.34 261.97L456.36 259.00L454.98 259.15L452.05 259.49L449.58 259.78L446.40 260.15L446.81 263.94L447.22 265.39L446.23 267.44L443.21 270.81L440.52 267.38L436.47 268.10L433.80 268.55L432.31 268.79L428.60 270.40L422.65 272.54L418.98 274.12L413.95 274.46L410.75 274.52L395.60 272.13L394.84 274.21L401.65 291.82L402.76 296.54L403.32 298.93L403.87 301.28L405.11 306.54L405.39 307.73L405.63 309.10L405.66 312.79L405.70 316.48L406.25 321.87L406.59 325.34L406.75 326.84L406.93 328.41L407.38 332.30L408.85 335.06L409.44 336.17L410.32 337.84L411.62 340.20L413.31 343.43L413.87 345.91L419.59 345.65L420.23 347.46L421.03 349.69L422.03 351.22L424.65 352.89L426.26 353.91L428.62 354.98L431.60 356.00L433.17 357.17L434.73 357.88L437.28 359.05L436.37 360.02L434.05 361.01L432.52 361.59L431.03 362.43L429.48 363.32L426.40 364.74L424.63 365.45L422.88 366.15L420.97 367.77L419.17 369.24L418.00 370.19L416.62 371.84L413.74 375.30L412.77 377.24L411.48 379.81L410.15 382.74L409.62 384.58L409.27 385.81L408.45 389.82L408.20 393.19L408.08 394.89L406.46 405.60L408.83 407.12L411.16 408.59L418.09 413.00L426.17 418.15L431.72 421.61L433.44 422.78L436.89 425.00L442.27 428.46L443.59 429.30L451.07 432.86L457.50 435.92L463.69 438.87L467.37 440.62L469.93 441.84L473.82 442.77L477.52 443.66L492.09 447.15L492.99 444.38L493.22 443.18L493.49 438.16L493.73 435.71L493.90 433.67L494.04 432.15L494.13 430.82L494.25 429.49L494.46 426.42L494.46 424.89L494.86 422.78L494.88 420.77L495.09 418.77L494.30 417.37L494.34 415.90L493.92 414.51L494.65 412.61L495.70 410.31L496.66 408.48L497.10 407.29L497.54 405.79L498.24 404.03L498.02 402.07L497.29 400.68L496.44 399.39L495.91 397.56L495.59 395.52L496.37 392.83L497.31 390.38L499.24 387.08L499.21 384.06L499.57 382.23L500.49 379.85L501.31 377.06L502.39 373.55L502.83 370.54L502.66 366.40L502.59 364.73L501.64 359.63L500.73 357.89L500.13 356.14L499.95 354.86L499.65 352.74L498.74 350.88L498.60 349.06L498.18 347.60L497.40 345.51L496.95 342.68L495.55 338.15L495.09 335.22L494.15 331.88L492.76 329.70L491.51 327.74L489.59 325.84L488.52 324.02L487.32 322.63L485.94 320.05L484.21 317.56L483.50 316.47L482.71 315.26L481.07 312.74L479.84 309.92L479.63 307.85L479.09 305.79L478.13 304.35L476.52 302.55L475.06 301.55L472.63 299.89L474.28 296.33L475.09 295.32L477.64 292.17L478.61 290.29L478.90 288.40L479.40 285.12L475.75 281.82L474.57 277.36L471.99 274.07L470.32 270.41Z" data-ward="16" /><path id="ward-11" class="ward" d="M906.82 460.86L906.08 458.97L905.41 457.26L901.75 457.05L900.52 456.79L898.05 456.27L896.52 456.06L895.21 455.87L893.33 455.62L891.13 455.31L887.08 454.29L885.95 451.96L885.29 450.60L884.76 448.70L884.05 446.05L882.19 444.56L880.19 442.97L878.65 441.74L873.46 438.78L870.46 445.80L866.67 447.08L865.44 447.50L864.99 454.09L862.08 459.51L856.85 460.17L849.72 461.05L847.84 460.90L842.15 460.41L837.32 460.01L835.33 460.47L833.18 460.98L830.41 461.63L822.86 460.94L821.17 460.78L815.42 459.68L812.97 458.77L811.59 458.25L809.30 457.40L806.46 456.34L804.93 455.98L803.58 457.20L802.23 459.33L800.46 462.89L798.25 463.93L797.16 464.72L795.06 466.34L793.54 467.72L792.41 468.23L790.27 469.19L788.19 470.83L786.26 471.34L784.59 471.23L780.74 471.57L778.82 472.85L772.13 477.12L768.21 479.62L763.58 488.30L760.71 494.49L758.42 499.98L760.46 501.18L762.22 501.86L763.96 502.52L765.90 502.84L767.74 503.13L769.65 503.24L772.12 503.39L775.74 503.58L778.29 504.07L779.63 504.75L781.59 506.65L783.43 509.66L784.05 511.99L784.43 514.63L784.13 517.34L784.06 518.63L783.98 520.27L783.87 522.22L785.69 523.20L786.95 523.88L788.07 524.49L789.28 525.60L790.66 526.87L791.59 527.73L792.44 529.33L793.30 530.93L795.89 533.28L798.27 533.47L799.62 533.58L802.66 532.78L804.19 530.66L805.15 529.33L805.91 528.27L806.56 526.44L807.33 524.23L808.19 523.26L810.18 521.02L812.09 520.95L814.73 521.70L816.39 521.93L818.16 522.17L819.40 522.51L821.48 523.08L822.79 523.44L824.32 523.86L825.09 525.82L825.85 527.77L824.61 531.72L822.84 534.30L821.66 536.04L820.59 537.60L819.72 538.87L818.42 543.36L819.26 548.66L820.16 550.21L821.15 551.93L825.29 555.38L829.43 557.71L833.64 560.09L835.19 560.97L838.27 562.95L842.92 562.53L850.15 562.16L853.87 562.09L855.17 562.29L857.06 562.85L860.48 563.85L862.97 566.27L865.17 568.17L867.37 570.32L868.78 571.50L872.63 574.71L876.17 576.87L878.94 578.11L880.61 579.24L882.74 579.83L884.96 580.44L886.19 580.50L890.06 580.70L892.33 579.50L893.78 576.81L894.53 575.46L896.65 570.98L897.97 568.35L899.00 566.99L900.98 564.57L904.00 563.07L905.63 562.40L909.66 560.94L910.83 559.52L911.56 558.39L913.45 550.81L915.31 546.64L916.12 544.84L917.29 542.82L920.26 540.52L921.88 540.23L924.18 540.55L926.09 540.81L928.24 540.05L930.10 539.39L931.50 538.33L932.57 537.51L933.90 536.63L935.10 535.91L937.21 534.70L938.33 534.10L940.37 533.39L942.58 532.51L945.07 531.51L948.13 531.23L952.04 531.35L953.32 531.39L955.12 532.00L956.96 532.30L959.14 531.29L960.04 528.44L960.24 525.94L960.47 522.91L959.34 517.18L957.44 514.79L955.29 512.07L955.81 508.98L956.12 507.42L956.82 506.09L958.75 502.69L961.64 498.60L963.15 496.99L965.72 494.27L966.42 493.13L967.54 491.56L969.11 488.51L970.26 485.94L971.37 484.59L972.80 482.49L975.08 481.54L977.48 481.62L977.59 479.79L975.67 478.88L974.27 477.87L971.91 475.89L969.56 474.43L967.86 471.81L968.06 469.81L966.05 468.30L964.50 467.55L963.32 467.06L961.54 467.00L959.93 467.05L958.37 466.98L956.21 466.81L953.26 465.90L944.61 463.16L941.44 461.05L939.16 460.30L930.75 458.77L928.70 458.31L927.53 457.80L925.31 456.85L923.08 456.42L921.31 457.86L920.84 459.85L919.77 460.45L917.33 460.96L915.46 461.29L913.17 461.50L911.20 461.68L909.80 462.07L907.35 462.06L906.82 460.86Z" data-ward="11" /><path id="ward-9" class="ward" d="M886.31 405.29L887.79 404.96L907.29 377.64L904.06 375.72L904.17 374.50L904.47 370.95L903.60 369.24L902.73 367.69L902.12 366.61L901.72 363.88L901.87 361.84L902.02 359.92L902.47 358.65L902.14 356.75L901.03 354.63L898.24 353.32L897.46 349.95L897.74 347.97L897.33 345.71L893.95 342.09L896.96 338.20L894.55 335.38L893.38 333.87L892.22 332.36L891.33 331.52L890.44 330.67L888.52 329.87L886.59 329.07L885.18 328.51L883.76 327.96L879.25 326.29L877.13 325.47L875.69 324.68L873.31 323.38L870.32 321.76L865.97 319.39L865.13 318.00L863.34 315.05L862.22 313.21L861.63 311.80L859.94 309.37L856.02 307.89L854.33 307.56L852.67 307.24L849.74 306.78L847.53 306.55L845.78 306.28L844.43 306.25L842.01 306.20L840.63 306.13L838.84 305.61L837.80 304.74L835.62 302.68L833.48 300.55L832.92 302.87L832.52 304.62L832.17 306.11L831.81 308.41L831.17 309.62L830.43 310.70L828.00 314.49L826.90 319.85L826.22 324.12L825.97 325.72L825.78 328.45L826.10 329.67L826.36 330.87L826.99 333.83L827.30 335.95L827.48 337.17L827.60 339.32L827.72 341.48L827.48 342.70L826.63 346.26L829.77 347.70L830.25 348.95L830.73 350.20L831.83 351.85L832.32 353.35L831.69 355.32L831.19 356.88L830.06 358.81L830.65 360.66L830.21 369.12L829.98 373.37L829.83 376.76L829.24 378.99L828.75 380.81L832.10 384.94L833.44 386.41L835.21 388.34L836.78 390.54L839.09 393.51L837.38 394.84L835.83 396.05L833.60 398.94L831.36 401.84L833.80 404.50L832.58 405.24L830.65 406.18L829.48 406.86L828.31 407.54L826.79 408.41L824.63 409.66L823.16 410.57L821.69 411.49L820.33 412.27L818.21 413.97L818.86 415.10L819.58 417.60L820.16 418.95L820.68 420.15L886.31 405.29Z" data-ward="9" /><path id="ward-8" class="ward" d="M902.78 243.99L900.86 243.37L898.92 242.22L895.39 240.14L894.79 238.74L893.20 238.56L891.02 238.32L889.15 237.44L887.81 236.81L885.98 235.94L884.52 234.68L882.69 233.64L878.68 230.84L874.86 228.17L872.15 226.25L870.64 225.14L868.76 223.89L867.69 223.15L864.20 220.50L859.94 218.86L856.80 218.39L854.06 217.71L851.78 217.42L849.50 216.54L841.73 214.19L832.87 212.92L828.70 212.32L824.14 209.71L817.88 206.81L816.34 206.10L812.21 204.65L807.34 203.07L800.77 200.94L793.84 198.69L787.61 197.27L782.63 195.09L781.67 194.06L778.88 191.64L776.85 189.87L772.56 186.51L769.78 184.33L766.33 181.78L759.16 176.64L756.94 175.05L754.10 173.16L749.46 170.31L740.85 175.71L736.40 179.51L733.28 182.17L732.18 183.11L728.77 187.33L724.42 192.72L720.53 201.31L717.18 208.71L704.71 215.04L701.29 218.09L698.65 220.65L696.87 223.68L696.10 224.99L695.29 226.57L694.61 228.22L693.64 232.36L692.64 234.56L691.60 236.82L690.34 240.17L689.83 243.63L690.01 247.23L690.15 249.98L690.28 251.84L691.39 253.24L693.18 254.08L694.96 254.92L698.01 256.33L700.89 258.65L702.59 259.97L705.09 260.60L709.98 265.59L711.80 266.56L714.71 268.11L716.64 269.62L717.63 271.88L718.70 275.64L719.48 278.34L719.33 280.69L718.13 282.78L717.25 286.89L716.37 291.01L715.24 298.94L714.40 300.88L714.93 302.40L716.46 303.08L719.27 304.33L722.33 307.08L724.97 306.85L727.27 306.78L729.18 306.72L730.89 306.72L732.33 306.17L734.97 305.97L735.87 306.80L735.12 309.93L738.18 317.87L739.46 317.69L741.08 317.42L742.30 317.45L747.16 317.64L749.28 318.32L751.59 318.91L753.45 319.02L754.46 318.16L756.36 315.70L756.98 314.48L757.96 312.80L759.44 310.46L760.94 307.71L761.24 306.13L761.48 303.87L762.18 301.88L763.36 300.16L764.17 298.99L767.89 295.88L769.22 295.29L775.91 293.20L777.52 293.00L779.59 292.76L780.85 292.61L782.85 292.36L784.76 292.01L789.72 291.02L792.15 290.55L794.96 291.09L798.16 291.90L801.38 292.54L802.99 291.51L803.58 290.37L804.16 289.23L804.58 287.70L804.95 286.31L806.91 286.21L808.30 286.35L811.94 288.77L814.39 290.20L820.42 293.73L822.60 294.86L826.49 296.94L833.48 300.55L835.62 302.68L837.80 304.74L838.84 305.61L840.63 306.13L842.01 306.20L844.43 306.25L845.78 306.28L847.53 306.55L849.74 306.78L852.67 307.24L854.33 307.56L856.02 307.89L859.94 309.37L861.63 311.80L862.22 313.21L863.34 315.05L865.13 318.00L865.97 319.39L870.32 321.76L873.31 323.38L875.69 324.68L877.13 325.47L879.25 326.29L883.76 327.96L885.18 328.51L886.59 329.07L888.52 329.87L890.44 330.67L891.33 331.52L892.22 332.36L893.38 333.87L894.55 335.38L896.96 338.20L893.95 342.09L897.33 345.71L897.74 347.97L897.46 349.95L898.24 353.32L901.03 354.63L902.14 356.75L902.47 358.65L902.02 359.92L901.87 361.84L901.72 363.88L902.12 366.61L902.73 367.69L903.60 369.24L904.47 370.95L904.17 374.50L904.06 375.72L907.29 377.64L909.40 377.66L910.49 376.22L912.19 376.03L913.39 375.77L915.03 374.58L916.32 373.56L917.61 372.54L920.40 361.06L917.71 353.73L911.67 337.26L910.89 336.23L910.12 335.20L909.50 332.58L908.81 331.50L907.05 331.95L886.76 295.65L902.78 243.99Z" data-ward="8" /><path id="ward-6" class="ward" d="M597.79 273.57L597.60 271.61L597.66 257.44L592.79 257.18L588.30 257.13L581.38 255.74L576.41 254.75L566.24 250.79L560.67 261.82L555.57 268.96L550.68 275.81L543.99 274.81L541.82 274.48L538.62 273.68L537.29 273.35L534.82 272.73L533.42 272.59L530.80 272.34L528.64 272.22L525.14 272.02L522.35 271.86L521.07 271.79L519.69 271.72L518.41 275.32L517.82 276.93L517.50 278.45L515.78 280.54L513.63 280.26L511.52 278.84L508.70 277.97L507.16 277.86L505.12 278.08L502.47 278.74L500.40 279.76L495.39 282.13L494.22 282.69L490.43 282.87L486.14 283.33L483.45 283.82L481.87 284.07L479.40 285.12L478.90 288.40L478.61 290.29L477.64 292.17L475.09 295.32L474.28 296.33L472.63 299.89L475.06 301.55L476.52 302.55L478.13 304.35L479.09 305.79L479.63 307.85L479.84 309.92L481.07 312.74L482.71 315.26L483.50 316.47L484.21 317.56L485.94 320.05L487.32 322.63L488.52 324.02L489.59 325.84L491.51 327.74L492.76 329.70L494.15 331.88L495.09 335.22L495.55 338.15L496.95 342.68L497.40 345.51L498.18 347.60L498.60 349.06L498.74 350.88L499.65 352.74L499.95 354.86L500.13 356.14L500.73 357.89L501.64 359.63L504.42 364.98L516.02 387.01L516.69 384.55L517.40 383.35L518.21 381.36L519.30 380.49L520.56 379.52L522.23 378.46L523.35 377.58L524.77 375.84L525.79 374.31L526.85 372.66L528.23 370.39L528.97 369.24L530.24 367.13L532.00 367.90L534.15 368.86L534.44 370.47L534.99 372.57L535.46 374.33L536.37 375.60L537.67 376.19L539.71 376.05L541.13 376.11L542.64 376.21L543.84 376.43L585.60 381.78L585.35 376.12L584.89 365.35L580.92 356.57L580.23 353.87L579.83 352.52L577.35 349.24L574.87 345.97L573.07 335.82L575.57 324.37L585.39 310.17L588.40 307.32L602.84 296.14L599.36 284.85L599.11 283.45L598.29 278.80L597.79 273.57Z" data-ward="6" /><path id="ward-20" class="ward" d="M233.59 145.27L232.65 144.37L230.98 143.06L229.55 140.35L227.15 139.88L208.93 136.47L207.05 138.09L204.96 139.52L202.79 139.83L201.29 140.04L199.88 140.24L198.24 140.47L196.31 140.75L194.24 141.34L193.34 142.73L191.64 145.36L188.90 145.68L187.27 148.88L187.06 150.32L186.56 151.70L185.53 153.42L184.22 157.32L184.54 160.05L184.68 163.58L184.75 165.24L184.27 168.45L183.48 168.89L180.67 168.28L179.25 171.22L178.25 173.30L177.32 175.14L177.31 178.13L177.04 179.34L176.66 181.23L174.44 183.91L173.45 185.28L172.03 187.24L171.39 189.18L170.78 191.05L170.43 194.94L169.51 198.52L168.78 200.78L168.14 202.74L166.07 205.00L165.07 205.75L164.00 206.45L162.76 207.26L157.95 210.27L156.97 211.66L152.84 217.39L151.67 219.42L150.49 221.25L149.42 222.43L146.08 226.11L144.98 227.32L142.04 229.98L140.71 231.48L139.68 232.64L137.50 235.95L137.89 240.45L136.81 241.81L142.62 244.13L161.74 251.69L163.92 254.11L165.99 255.66L167.31 256.38L168.35 257.02L168.89 258.16L168.53 259.54L167.55 260.46L166.28 260.77L165.46 261.92L165.14 263.33L164.69 266.63L163.55 268.35L162.54 272.12L162.22 274.73L162.26 276.86L162.29 278.24L162.33 280.44L160.42 290.10L161.01 293.19L162.18 293.65L164.11 294.41L164.70 296.06L164.42 298.12L164.11 300.34L163.41 303.01L163.00 304.55L162.14 306.15L161.81 308.38L161.48 310.61L161.44 312.42L160.83 314.22L159.79 315.25L159.64 316.75L159.50 318.25L159.04 320.15L156.98 322.03L156.73 323.93L156.42 326.25L158.95 326.85L160.66 326.82L161.94 326.80L163.52 327.09L166.02 326.34L167.29 322.52L169.92 322.79L173.23 321.67L175.01 321.07L175.78 320.09L177.86 316.31L180.13 315.47L184.19 315.65L186.93 315.87L188.72 316.50L190.04 316.91L191.26 316.84L192.31 316.04L193.73 315.56L195.57 315.80L196.85 315.84L198.59 315.84L200.01 315.68L201.97 315.54L203.71 315.46L205.37 315.49L206.80 315.63L208.34 315.96L210.27 316.52L212.23 317.57L213.26 318.31L214.41 319.27L215.59 320.07L216.87 320.84L218.50 321.63L220.19 322.46L222.46 323.68L224.43 325.22L226.16 326.57L227.26 325.94L234.63 314.39L237.07 310.39L236.19 309.06L234.86 307.61L234.52 305.45L234.45 303.19L234.41 301.32L234.52 299.73L234.44 298.43L233.24 297.03L234.70 294.62L235.70 293.38L237.07 291.68L238.37 290.23L239.39 289.49L240.70 288.73L241.77 287.89L242.56 286.93L243.44 285.64L244.49 283.88L246.25 282.68L248.12 281.40L249.48 280.83L251.25 280.93L253.34 281.06L255.58 280.87L257.10 279.40L258.22 278.32L258.53 276.07L258.23 274.84L259.37 272.56L261.88 272.08L263.18 272.22L264.39 271.86L266.49 271.23L268.65 270.59L270.63 270.23L272.08 269.96L273.73 270.55L275.53 271.32L276.84 271.93L278.13 272.67L279.42 273.14L280.71 273.61L282.54 274.41L284.06 275.20L286.62 276.42L287.89 277.03L290.63 278.98L292.47 279.95L336.70 233.77L326.84 234.32L316.25 234.91L318.69 219.94L321.61 216.33L324.52 212.73L324.87 209.37L322.84 207.10L318.38 208.20L316.35 208.64L313.45 209.27L310.84 209.70L305.93 210.52L303.60 210.01L299.00 209.01L294.98 208.13L291.18 206.46L288.43 205.25L281.91 202.52L278.11 200.89L275.51 200.49L272.28 199.89L268.44 198.66L264.31 197.91L261.27 197.08L260.99 195.35L262.23 193.34L262.72 192.07L262.92 190.37L262.07 188.42L261.60 186.71L261.10 184.82L260.26 181.76L258.81 176.60L257.21 175.58L254.56 173.55L253.17 172.49L251.96 171.70L250.24 169.95L248.09 161.47L246.18 159.49L244.25 157.53L242.00 155.34L240.63 155.20L239.38 153.15L240.87 150.06L239.28 148.66L238.40 147.74L235.87 146.31L234.48 146.35L233.59 145.27Z" data-ward="20" /><path id="ward-17" class="ward" d="M388.65 240.14L382.11 238.53L380.49 238.03L379.15 237.43L375.07 235.26L370.80 232.99L368.66 232.21L364.76 230.58L360.80 229.73L357.82 229.33L354.85 228.04L353.56 227.02L351.37 224.23L350.36 222.93L348.85 221.08L346.94 223.07L344.68 225.43L336.70 233.77L292.47 279.95L290.63 278.98L287.89 277.03L286.62 276.42L284.06 275.20L282.54 274.41L280.71 273.61L279.42 273.14L278.13 272.67L276.84 271.93L275.53 271.32L273.73 270.55L272.08 269.96L270.63 270.23L268.65 270.59L266.49 271.23L264.39 271.86L263.18 272.22L261.88 272.08L259.37 272.56L258.23 274.84L258.53 276.07L258.22 278.32L257.10 279.40L255.58 280.87L253.34 281.06L251.25 280.93L249.48 280.83L248.12 281.40L246.25 282.68L244.49 283.88L261.94 306.96L279.15 329.72L278.57 334.78L278.63 337.75L280.37 341.54L282.12 345.32L284.67 347.82L289.43 350.22L292.88 354.66L297.50 366.94L298.99 366.15L300.07 365.57L301.29 364.93L303.56 363.74L306.79 361.17L309.60 358.94L312.13 356.91L313.57 355.74L315.66 355.12L319.03 354.12L320.88 354.10L322.72 354.16L324.02 354.20L325.63 355.23L328.86 357.27L332.09 359.31L335.32 361.35L336.93 362.37L338.50 363.35L341.27 365.08L345.66 367.83L348.46 369.03L350.80 370.02L353.02 370.97L355.63 372.09L363.16 375.31L366.08 376.56L367.46 377.15L370.72 379.09L373.18 380.56L376.06 382.28L379.43 384.29L382.03 385.70L386.29 388.00L391.42 390.78L395.86 395.63L397.48 396.38L399.80 397.45L402.71 400.83L406.46 405.60L408.08 394.89L408.20 393.19L408.45 389.82L409.27 385.81L409.62 384.58L410.15 382.74L411.48 379.81L412.77 377.24L413.74 375.30L416.62 371.84L418.00 370.19L419.17 369.24L420.97 367.77L422.88 366.15L424.63 365.45L426.40 364.74L429.48 363.32L431.03 362.43L432.52 361.59L434.05 361.01L436.37 360.02L437.28 359.05L434.73 357.88L433.17 357.17L431.60 356.00L428.62 354.98L426.26 353.91L424.65 352.89L422.03 351.22L421.03 349.69L420.23 347.46L419.59 345.65L413.87 345.91L413.31 343.43L411.62 340.20L410.32 337.84L409.44 336.17L408.85 335.06L407.38 332.30L406.93 328.41L406.75 326.84L406.59 325.34L406.25 321.87L405.70 316.48L405.66 312.79L405.63 309.10L405.39 307.73L405.11 306.54L403.87 301.28L403.32 298.93L402.76 296.54L401.65 291.82L394.84 274.21L395.60 272.13L399.95 260.15L400.51 258.75L401.93 254.63L402.80 252.03L403.25 250.89L403.74 249.60L404.76 246.93L405.72 244.41L406.20 243.12L407.18 240.55L406.08 237.60L404.79 235.94L402.99 235.93L401.18 235.93L399.92 236.14L398.61 236.42L397.12 235.69L393.61 234.77L391.91 234.32L391.57 235.59L390.23 240.53L388.65 240.14Z" data-ward="17" /><path id="ward-18" class="ward" d="M261.94 306.96L244.49 283.88L243.44 285.64L242.56 286.93L241.77 287.89L240.70 288.73L239.39 289.49L238.37 290.23L237.07 291.68L235.70 293.38L234.70 294.62L233.24 297.03L234.44 298.43L234.52 299.73L234.41 301.32L234.45 303.19L234.52 305.45L234.86 307.61L236.19 309.06L237.07 310.39L234.63 314.39L227.26 325.94L226.16 326.57L224.43 325.22L222.46 323.68L220.19 322.46L218.50 321.63L216.87 320.84L215.59 320.07L214.41 319.27L213.26 318.31L212.23 317.57L210.27 316.52L208.34 315.96L206.80 315.63L205.37 315.49L203.71 315.46L201.97 315.54L200.01 315.68L198.59 315.84L196.85 315.84L195.57 315.80L193.73 315.56L192.31 316.04L191.26 316.84L190.04 316.91L188.72 316.50L186.93 315.87L184.19 315.65L180.13 315.47L177.86 316.31L175.78 320.09L175.01 321.07L173.23 321.67L169.92 322.79L167.29 322.52L166.02 326.34L163.52 327.09L161.94 326.80L160.66 326.82L158.95 326.85L156.42 326.25L154.52 327.04L152.72 327.21L152.49 328.79L151.94 330.16L149.25 330.23L139.91 327.60L138.21 327.27L136.81 327.40L135.87 328.22L132.34 328.01L130.90 326.28L130.52 324.94L130.57 322.54L128.88 321.77L127.03 321.40L125.49 320.74L124.43 319.87L122.96 319.03L121.16 318.46L119.45 318.29L117.27 318.05L115.54 318.51L115.06 319.98L114.50 321.49L113.81 323.05L113.52 324.65L111.42 336.22L110.20 341.09L110.08 343.37L110.00 345.06L108.04 348.38L108.51 353.11L107.80 360.06L108.16 363.91L106.52 372.12L105.41 376.83L103.91 380.78L100.83 384.23L96.82 392.51L107.25 400.66L111.43 401.44L112.88 401.50L124.71 400.63L133.00 400.33L137.43 399.92L146.50 399.08L148.82 399.03L159.48 401.85L162.45 402.64L171.13 404.17L177.05 405.22L179.12 405.17L182.08 405.11L183.96 404.76L187.57 404.09L191.17 403.42L192.98 403.09L194.78 402.75L196.67 402.40L199.89 401.05L202.57 399.93L204.11 399.29L207.44 397.89L210.42 396.64L212.33 395.83L214.11 395.09L215.95 394.64L219.16 393.86L222.05 393.15L224.14 392.65L227.55 391.82L229.56 391.34L232.32 390.67L234.39 390.17L237.32 389.46L238.64 389.16L240.32 388.77L242.22 388.33L243.89 387.95L246.69 387.06L249.12 386.29L252.59 385.19L254.41 384.64L256.49 384.01L257.95 383.57L260.53 382.79L263.26 381.97L265.48 381.30L267.94 380.56L269.25 380.16L270.71 379.73L272.46 379.20L274.03 378.73L276.02 378.13L277.42 377.71L279.85 376.42L282.25 375.16L286.99 372.67L289.83 371.17L291.99 369.98L295.08 368.28L297.50 366.94L292.88 354.66L289.43 350.22L284.67 347.82L282.12 345.32L280.37 341.54L278.63 337.75L278.57 334.78L279.15 329.72L261.94 306.96Z" data-ward="18" /><path id="ward-1" class="ward" d="M351.31 27.15L350.56 25.50L347.69 26.47L346.51 26.88L344.11 27.69L340.88 27.92L338.00 28.13L336.36 28.00L331.14 27.57L328.33 27.35L326.51 27.23L324.08 27.06L322.40 27.05L317.76 26.99L315.99 28.75L314.28 30.44L313.45 31.86L312.61 33.28L311.24 34.30L307.56 33.84L305.88 32.16L303.22 29.94L301.42 29.84L299.54 31.42L298.32 32.53L296.93 33.79L295.34 36.04L289.55 35.95L288.20 35.93L286.67 35.67L283.96 35.21L279.67 34.45L273.51 33.63L270.26 32.74L266.80 31.80L265.12 35.70L262.57 41.61L260.32 42.94L262.32 44.32L262.14 52.45L259.40 54.84L260.47 57.83L252.60 66.08L245.96 63.62L244.72 63.95L243.34 64.32L241.67 66.33L240.76 68.74L240.20 70.24L239.64 71.54L239.40 71.95L239.37 71.99L236.59 73.02L234.60 75.30L233.33 76.76L232.43 77.79L231.21 79.19L231.42 81.26L231.86 83.45L230.65 85.89L229.54 88.14L228.88 89.47L228.16 91.60L228.86 94.60L229.22 96.17L229.60 97.78L230.00 99.51L228.95 100.28L226.10 102.37L224.93 103.23L223.51 104.28L220.55 105.22L219.07 105.70L217.23 106.56L215.88 107.09L215.05 107.99L211.39 106.85L211.14 105.24L210.52 103.38L209.32 102.95L207.94 104.04L208.30 106.07L208.85 107.25L208.44 109.06L208.03 110.87L206.45 113.57L205.11 115.85L204.02 119.91L205.70 121.69L207.00 122.10L208.29 122.50L208.67 124.86L209.12 127.56L209.54 130.15L209.68 131.48L209.82 132.82L210.92 134.22L208.93 136.47L227.15 139.88L229.55 140.35L230.98 143.06L232.65 144.37L233.59 145.27L234.48 146.35L235.87 146.31L238.40 147.74L239.28 148.66L240.87 150.06L239.38 153.15L240.63 155.20L242.00 155.34L244.25 157.53L246.18 159.49L248.09 161.47L250.24 169.95L251.96 171.70L253.17 172.49L254.56 173.55L257.21 175.58L258.81 176.60L260.26 181.76L261.10 184.82L261.60 186.71L262.07 188.42L262.92 190.37L262.72 192.07L262.23 193.34L260.99 195.35L261.27 197.08L264.31 197.91L268.44 198.66L272.28 199.89L275.51 200.49L278.11 200.89L281.91 202.52L288.43 205.25L289.79 200.81L290.37 198.96L291.34 195.77L292.16 192.06L292.60 190.10L292.84 188.86L293.34 184.91L293.66 183.66L294.17 181.93L294.71 180.10L295.46 178.30L296.06 176.89L296.84 175.40L297.78 173.78L298.59 172.38L299.80 170.29L300.89 167.78L301.42 165.73L303.12 162.50L305.44 159.34L306.23 157.64L306.20 156.19L305.80 153.54L306.70 150.98L307.27 147.50L310.30 146.43L313.60 145.50L316.63 144.56L318.02 140.39L319.26 137.58L319.94 136.15L322.17 133.99L323.67 132.53L325.45 130.80L327.33 129.83L330.69 128.10L335.01 125.80L337.14 124.67L341.88 120.62L344.10 115.93L344.70 114.79L344.90 112.78L344.59 109.75L344.53 107.63L344.44 101.02L344.41 99.08L344.99 90.01L344.17 88.30L346.38 84.93L348.05 83.14L348.88 81.55L350.20 78.98L356.25 73.72L358.80 71.85L360.69 70.24L362.61 68.61L364.40 67.15L365.96 66.22L368.04 65.92L365.40 60.61L363.89 57.30L362.74 54.65L360.86 51.42L357.28 45.64L355.87 42.38L354.38 36.32L353.91 33.51L353.27 31.45L352.31 29.35L351.31 27.15Z" data-ward="1" /><path id="ward-2" class="ward" d="M378.30 161.63L381.01 160.08L382.93 158.99L386.85 154.97L388.31 153.47L390.84 153.41L390.77 150.02L391.45 148.07L392.04 146.41L392.57 144.88L393.36 142.64L394.43 140.47L394.74 139.02L395.04 137.57L395.45 136.08L396.28 134.53L396.23 132.44L395.39 130.80L394.48 129.40L393.33 127.92L392.10 126.33L391.09 125.02L389.77 123.30L388.55 121.72L388.18 120.50L387.59 118.53L386.96 116.32L385.68 113.52L385.13 112.30L384.74 109.52L384.24 107.12L383.84 105.19L383.54 103.94L381.25 94.75L380.30 92.64L379.55 90.96L379.15 89.54L378.30 87.50L377.68 86.03L377.16 84.03L376.72 82.37L376.11 80.03L375.52 78.58L374.84 76.86L373.75 75.69L371.86 72.51L369.47 68.38L368.04 65.92L365.96 66.22L364.40 67.15L362.61 68.61L360.69 70.24L358.80 71.85L356.25 73.72L350.20 78.98L348.88 81.55L348.05 83.14L346.38 84.93L344.17 88.30L344.99 90.01L344.41 99.08L344.44 101.02L344.53 107.63L344.59 109.75L344.90 112.78L344.70 114.79L344.10 115.93L341.88 120.62L337.14 124.67L335.01 125.80L330.69 128.10L327.33 129.83L325.45 130.80L323.67 132.53L322.17 133.99L319.94 136.15L319.26 137.58L318.02 140.39L316.63 144.56L313.60 145.50L310.30 146.43L307.27 147.50L306.70 150.98L305.80 153.54L306.20 156.19L306.23 157.64L305.44 159.34L303.12 162.50L301.42 165.73L300.89 167.78L299.80 170.29L298.59 172.38L297.78 173.78L296.84 175.40L296.06 176.89L295.46 178.30L294.71 180.10L294.17 181.93L293.66 183.66L293.34 184.91L292.84 188.86L292.60 190.10L292.16 192.06L291.34 195.77L290.37 198.96L289.79 200.81L288.43 205.25L291.18 206.46L294.98 208.13L299.00 209.01L303.60 210.01L305.93 210.52L310.84 209.70L313.45 209.27L316.35 208.64L318.38 208.20L322.84 207.10L324.87 209.37L324.52 212.73L321.61 216.33L318.69 219.94L316.25 234.91L326.84 234.32L336.70 233.77L344.68 225.43L346.94 223.07L348.85 221.08L350.36 222.93L351.37 224.23L353.56 227.02L354.85 228.04L357.82 229.33L360.80 229.73L364.76 230.58L368.66 232.21L370.80 232.99L375.07 235.26L379.15 237.43L380.49 238.03L382.11 238.53L388.65 240.14L390.23 240.53L391.57 235.59L391.91 234.32L392.05 232.48L390.96 230.36L390.69 228.16L390.56 226.59L390.26 222.94L389.82 220.61L389.29 218.74L389.21 213.95L389.18 212.13L387.52 210.77L381.71 208.51L382.52 204.70L381.83 201.41L379.00 200.94L379.35 199.30L379.35 195.32L378.15 192.31L376.90 189.17L377.07 186.44L376.40 182.87L375.73 181.60L374.18 178.67L374.66 175.83L373.30 174.63L371.68 173.19L370.49 172.17L366.36 168.60L368.70 164.12L369.51 162.57L374.51 164.35L375.97 163.30L378.30 161.63Z" data-ward="2" /><path id="ward-7" class="ward" d="M719.63 168.34L717.11 167.79L715.01 166.57L712.65 166.18L709.49 165.02L705.33 162.57L702.96 161.18L701.44 160.29L699.37 159.71L696.17 159.06L693.59 158.53L691.48 158.10L688.22 158.35L685.70 159.19L683.41 159.95L682.28 160.72L680.25 162.10L675.84 165.74L673.82 166.85L672.70 167.46L670.70 168.56L667.28 169.46L665.99 169.39L664.05 169.29L662.16 169.77L659.09 170.54L657.52 170.60L655.43 170.67L653.84 170.73L648.53 170.23L645.70 170.16L643.16 170.10L642.00 170.90L639.43 172.66L637.54 173.96L635.95 175.88L634.24 177.53L633.19 178.55L630.79 180.17L629.04 181.36L626.37 183.16L624.29 184.57L619.24 187.98L617.95 189.12L617.02 189.95L618.81 191.99L621.52 197.24L624.45 203.09L626.61 210.31L621.69 219.30L618.95 224.43L616.96 228.31L612.64 237.06L609.84 242.44L606.22 247.55L604.13 250.37L599.82 256.04L597.66 257.44L597.60 271.61L597.79 273.57L598.29 278.80L599.11 283.45L599.36 284.85L602.84 296.14L588.40 307.32L585.39 310.17L589.91 314.72L593.33 318.19L595.53 318.30L597.03 317.29L598.73 316.36L600.21 315.82L602.01 314.43L604.07 312.40L607.06 312.77L609.30 311.80L612.22 311.43L613.70 311.77L614.89 313.74L616.87 314.09L619.29 313.82L621.55 313.66L623.65 313.70L625.72 313.56L626.97 313.34L628.34 312.85L629.61 312.40L631.53 311.71L633.99 311.63L635.38 311.58L637.24 312.47L640.34 316.41L641.09 317.39L645.32 319.00L647.82 319.41L649.19 319.66L651.40 319.97L653.62 319.71L654.97 319.55L657.22 319.81L659.46 320.41L661.30 320.89L663.35 320.96L666.83 320.83L668.22 320.31L670.77 318.52L671.72 316.14L671.62 313.64L671.26 311.30L671.51 309.50L671.77 307.70L672.88 306.28L676.35 303.64L677.59 303.29L678.93 302.91L680.21 302.48L682.09 301.59L685.09 300.15L687.36 297.97L686.23 294.73L684.66 290.95L684.11 286.53L684.84 282.33L685.53 278.35L686.53 277.53L688.22 276.14L689.67 276.71L693.01 278.23L698.31 280.66L701.18 281.13L703.64 281.64L705.00 281.92L707.31 282.51L708.62 282.58L710.11 282.66L712.66 282.55L714.44 282.63L716.41 282.71L718.13 282.78L719.33 280.69L719.48 278.34L718.70 275.64L717.63 271.88L716.64 269.62L714.71 268.11L711.80 266.56L709.98 265.59L705.09 260.60L702.59 259.97L700.89 258.65L698.01 256.33L694.96 254.92L693.18 254.08L691.39 253.24L690.28 251.84L690.15 249.98L690.01 247.23L689.83 243.63L690.34 240.17L691.60 236.82L692.64 234.56L693.64 232.36L694.61 228.22L695.29 226.57L696.10 224.99L696.87 223.68L698.65 220.65L701.29 218.09L704.71 215.04L717.18 208.71L720.53 201.31L724.42 192.72L728.77 187.33L732.18 183.11L733.28 182.17L736.40 179.51L740.85 175.71L749.46 170.31L744.48 168.25L739.53 166.20L736.76 164.95L733.59 164.90L730.85 164.85L728.71 164.88L726.95 164.76L725.78 165.84L724.40 167.11L722.64 168.36L719.63 168.34Z" data-ward="7" /><path id="ward-13" class="ward" d="M708.62 282.58L707.31 282.51L705.00 281.92L703.64 281.64L701.18 281.13L698.31 280.66L693.01 278.23L689.67 276.71L688.22 276.14L686.53 277.53L685.53 278.35L684.84 282.33L684.11 286.53L684.66 290.95L686.23 294.73L687.36 297.97L685.09 300.15L682.09 301.59L680.21 302.48L678.93 302.91L677.59 303.29L676.35 303.64L672.88 306.28L677.56 308.03L680.74 310.83L681.15 312.35L683.79 314.38L685.15 315.71L688.63 319.12L691.96 322.37L695.83 326.17L702.71 330.65L704.67 331.92L706.19 333.27L707.69 334.59L709.34 336.05L710.82 337.24L712.41 338.54L715.61 341.13L719.81 341.04L721.82 340.99L724.59 341.29L727.47 341.43L728.77 341.50L729.79 351.99L730.25 356.74L729.39 359.75L728.54 362.77L726.11 365.49L724.16 368.77L722.56 371.44L720.19 374.07L718.16 376.40L717.67 379.00L714.21 381.81L712.11 382.67L708.30 384.22L705.74 386.31L700.89 390.27L701.89 392.45L700.44 394.04L697.32 397.73L693.81 401.87L693.87 403.09L696.84 459.59L696.14 469.87L701.63 470.21L704.56 470.40L705.80 470.52L710.10 471.04L712.40 471.34L715.10 472.59L716.01 469.43L726.75 431.91L729.93 421.77L744.75 374.45L747.21 375.17L749.19 375.75L751.09 375.27L753.42 374.69L754.87 374.42L756.11 373.66L759.65 374.17L762.49 375.09L765.32 375.85L766.99 375.97L768.68 375.91L770.85 374.56L772.63 374.25L773.12 372.18L773.10 370.40L774.02 369.23L776.74 369.94L779.55 370.70L780.90 370.20L781.92 366.64L782.27 365.24L782.67 363.78L783.35 361.97L783.82 360.74L784.67 358.68L785.91 356.77L786.37 354.79L787.09 353.24L787.76 352.19L788.42 350.48L788.97 349.20L789.66 347.54L790.30 345.68L790.66 344.27L791.03 342.85L791.23 341.20L791.82 339.70L792.48 337.78L792.77 336.45L793.07 335.21L793.84 334.24L793.96 332.62L794.15 330.89L794.39 328.19L795.20 326.16L795.96 324.23L800.96 328.20L805.35 404.10L810.52 405.63L813.52 404.96L819.48 403.61L820.75 403.32L823.67 401.83L826.20 401.00L828.30 400.31L829.73 401.10L831.36 401.84L833.60 398.94L835.83 396.05L837.38 394.84L839.09 393.51L836.78 390.54L835.21 388.34L833.44 386.41L832.10 384.94L828.75 380.81L829.24 378.99L829.83 376.76L829.98 373.37L830.21 369.12L830.65 360.66L830.06 358.81L831.19 356.88L831.69 355.32L832.32 353.35L831.83 351.85L830.73 350.20L830.25 348.95L829.77 347.70L826.63 346.26L827.48 342.70L827.72 341.48L827.60 339.32L827.48 337.17L827.30 335.95L826.99 333.83L826.36 330.87L826.10 329.67L825.78 328.45L825.97 325.72L826.22 324.12L826.90 319.85L828.00 314.49L830.43 310.70L831.17 309.62L831.81 308.41L832.17 306.11L832.52 304.62L832.92 302.87L833.48 300.55L826.49 296.94L822.60 294.86L820.42 293.73L814.39 290.20L811.94 288.77L808.30 286.35L806.91 286.21L804.95 286.31L804.58 287.70L804.16 289.23L803.58 290.37L802.99 291.51L801.38 292.54L798.16 291.90L794.96 291.09L792.15 290.55L789.72 291.02L784.76 292.01L782.85 292.36L780.85 292.61L779.59 292.76L777.52 293.00L775.91 293.20L769.22 295.29L767.89 295.88L764.17 298.99L763.36 300.16L762.18 301.88L761.48 303.87L761.24 306.13L760.94 307.71L759.44 310.46L757.96 312.80L756.98 314.48L756.36 315.70L754.46 318.16L753.45 319.02L751.59 318.91L749.28 318.32L747.16 317.64L742.30 317.45L741.08 317.42L739.46 317.69L738.18 317.87L735.12 309.93L735.87 306.80L734.97 305.97L732.33 306.17L730.89 306.72L729.18 306.72L727.27 306.78L724.97 306.85L722.33 307.08L719.27 304.33L716.46 303.08L714.93 302.40L714.40 300.88L715.24 298.94L716.37 291.01L717.25 286.89L718.13 282.78L716.41 282.71L714.44 282.63L712.66 282.55L710.11 282.66L708.62 282.58Z" data-ward="13" /><path id="ward-12" class="ward" d="M800.96 328.20L795.96 324.23L795.20 326.16L794.39 328.19L794.15 330.89L793.96 332.62L793.84 334.24L793.07 335.21L792.77 336.45L792.48 337.78L791.82 339.70L791.23 341.20L791.03 342.85L790.66 344.27L790.30 345.68L789.66 347.54L788.97 349.20L788.42 350.48L787.76 352.19L787.09 353.24L786.37 354.79L785.91 356.77L784.67 358.68L783.82 360.74L783.35 361.97L782.67 363.78L782.27 365.24L781.92 366.64L780.90 370.20L779.55 370.70L776.74 369.94L774.02 369.23L773.10 370.40L773.12 372.18L772.63 374.25L770.85 374.56L768.68 375.91L766.99 375.97L765.32 375.85L762.49 375.09L759.65 374.17L756.11 373.66L754.87 374.42L753.42 374.69L751.09 375.27L749.19 375.75L747.21 375.17L744.75 374.45L729.93 421.77L726.75 431.91L716.01 469.43L715.10 472.59L717.15 473.79L719.60 475.93L721.43 477.53L722.70 478.65L724.61 480.32L726.46 481.76L728.13 483.07L729.28 483.97L730.83 484.85L733.68 486.46L735.92 487.27L737.53 487.85L738.82 488.31L740.36 488.86L741.81 489.38L744.13 490.22L747.35 491.37L748.60 492.05L752.00 494.80L753.76 496.22L755.79 497.86L757.25 499.04L758.42 499.98L760.71 494.49L763.58 488.30L768.21 479.62L772.13 477.12L778.82 472.85L780.74 471.57L784.59 471.23L786.26 471.34L788.19 470.83L790.27 469.19L792.41 468.23L793.54 467.72L795.06 466.34L797.16 464.72L798.25 463.93L800.46 462.89L802.23 459.33L803.58 457.20L804.93 455.98L806.46 456.34L809.30 457.40L811.59 458.25L812.97 458.77L815.42 459.68L821.17 460.78L822.86 460.94L830.41 461.63L833.18 460.98L835.33 460.47L837.32 460.01L842.15 460.41L847.84 460.90L849.72 461.05L856.85 460.17L862.08 459.51L864.99 454.09L865.44 447.50L866.67 447.08L870.46 445.80L873.46 438.78L878.65 441.74L880.19 442.97L882.19 444.56L884.05 446.05L884.76 448.70L885.29 450.60L885.95 451.96L887.08 454.29L891.13 455.31L893.33 455.62L895.21 455.87L896.52 456.06L898.05 456.27L900.52 456.79L901.75 457.05L905.41 457.26L905.56 448.81L905.60 446.27L906.64 438.33L908.92 428.47L910.28 425.88L911.28 423.95L913.72 420.71L918.11 414.90L918.52 412.85L914.86 411.11L911.98 410.54L908.14 409.58L906.16 409.08L905.44 407.66L902.87 406.86L896.00 406.21L893.66 406.39L890.82 406.23L887.79 404.96L886.31 405.29L820.68 420.15L820.16 418.95L819.58 417.60L818.86 415.10L818.21 413.97L820.33 412.27L821.69 411.49L823.16 410.57L824.63 409.66L826.79 408.41L828.31 407.54L829.48 406.86L830.65 406.18L832.58 405.24L833.80 404.50L831.36 401.84L829.73 401.10L828.30 400.31L826.20 401.00L823.67 401.83L820.75 403.32L819.48 403.61L813.52 404.96L810.52 405.63L805.35 404.10L800.96 328.20Z" data-ward="12" /><path id="ward-19" class="ward" d="M87.96 222.67L88.10 221.09L88.42 217.57L86.28 217.39L85.02 217.28L83.47 217.15L81.63 216.99L80.45 219.26L79.48 221.10L78.17 223.61L77.14 225.57L75.28 225.76L72.96 225.99L71.00 226.18L71.06 228.65L70.75 230.57L70.73 232.42L70.42 234.01L69.49 238.76L68.14 243.20L68.05 244.72L66.32 245.53L64.07 246.58L60.85 249.63L59.48 250.65L58.12 251.67L55.71 250.94L51.06 251.94L50.66 255.39L51.11 257.32L52.64 258.67L54.74 259.17L54.70 260.62L56.48 261.88L57.79 261.42L59.96 262.90L61.20 263.75L62.53 265.43L61.50 267.63L60.48 269.80L59.25 272.43L57.78 275.58L55.45 274.94L52.20 275.77L50.83 277.23L48.48 279.72L46.13 282.97L43.91 286.03L42.15 288.46L40.18 291.18L37.94 292.97L35.37 295.01L32.95 296.94L30.96 297.96L30.15 299.39L28.23 301.75L27.16 303.06L25.33 306.82L24.76 308.50L24.13 310.34L22.87 310.73L21.02 309.81L19.88 310.25L18.23 310.59L16.88 310.44L14.28 310.48L11.18 310.45L9.93 310.43L8.32 310.28L6.91 310.15L4.99 310.31L2.58 310.50L1.44 312.72L0.00 315.53L0.52 316.88L2.46 321.91L3.00 323.73L4.31 328.15L3.23 337.29L1.93 345.72L1.32 349.69L3.63 350.13L2.72 352.64L2.89 356.19L3.04 359.17L4.55 360.31L11.22 361.36L14.99 361.08L18.44 360.70L27.95 359.67L31.08 359.45L35.15 358.86L42.85 358.37L48.50 362.26L50.94 363.14L55.90 367.19L63.42 371.40L65.38 372.82L76.42 379.75L93.72 390.57L96.82 392.51L100.83 384.23L103.91 380.78L105.41 376.83L106.52 372.12L108.16 363.91L107.80 360.06L108.51 353.11L108.04 348.38L110.00 345.06L110.08 343.37L110.20 341.09L111.42 336.22L113.52 324.65L113.81 323.05L114.50 321.49L115.06 319.98L115.54 318.51L117.27 318.05L119.45 318.29L121.16 318.46L122.96 319.03L124.43 319.87L125.49 320.74L127.03 321.40L128.88 321.77L130.57 322.54L130.52 324.94L130.90 326.28L132.34 328.01L135.87 328.22L136.81 327.40L138.21 327.27L139.91 327.60L149.25 330.23L151.94 330.16L152.49 328.79L152.72 327.21L154.52 327.04L156.42 326.25L156.73 323.93L156.98 322.03L159.04 320.15L159.50 318.25L159.64 316.75L159.79 315.25L160.83 314.22L161.44 312.42L161.48 310.61L161.81 308.38L162.14 306.15L163.00 304.55L163.41 303.01L164.11 300.34L164.42 298.12L164.70 296.06L164.11 294.41L162.18 293.65L161.01 293.19L160.42 290.10L162.33 280.44L162.29 278.24L162.26 276.86L162.22 274.73L162.54 272.12L163.55 268.35L164.69 266.63L165.14 263.33L165.46 261.92L166.28 260.77L167.55 260.46L168.53 259.54L168.89 258.16L168.35 257.02L167.31 256.38L165.99 255.66L163.92 254.11L161.74 251.69L142.62 244.13L136.81 241.81L133.82 245.57L129.92 248.20L125.04 251.51L119.91 256.10L116.60 259.07L114.66 260.29L111.93 261.55L107.97 262.80L106.46 263.64L104.16 264.91L103.18 266.03L99.95 269.70L90.89 275.28L87.76 276.37L83.98 277.69L82.43 275.59L79.69 271.87L77.21 270.47L77.35 267.21L74.65 265.02L71.75 264.51L71.96 262.56L72.18 260.56L73.13 259.02L74.12 255.95L75.15 254.83L74.91 253.53L72.45 252.71L70.83 252.35L69.53 252.07L69.48 250.26L70.70 249.61L72.61 249.07L74.44 248.55L76.12 248.08L74.30 246.87L75.32 245.69L77.50 243.15L78.60 241.87L78.99 240.68L79.94 237.82L80.46 236.29L81.19 234.09L81.68 232.37L82.19 230.62L84.12 230.19L85.07 228.00L85.87 226.96L84.53 226.72L81.33 226.17L82.36 224.15L84.28 224.32L86.04 224.47L87.78 224.63L87.96 222.67Z" data-ward="19" /><path id="ward-15" class="ward" d="M504.42 364.98L501.64 359.63L502.59 364.73L502.66 366.40L502.83 370.54L502.39 373.55L501.31 377.06L500.49 379.85L499.57 382.23L499.21 384.06L499.24 387.08L497.31 390.38L496.37 392.83L495.59 395.52L495.91 397.56L496.44 399.39L497.29 400.68L498.02 402.07L498.24 404.03L497.54 405.79L497.10 407.29L496.66 408.48L495.70 410.31L494.65 412.61L493.92 414.51L494.34 415.90L494.30 417.37L495.09 418.77L494.88 420.77L494.86 422.78L494.46 424.89L494.46 426.42L494.25 429.49L494.13 430.82L494.04 432.15L493.90 433.67L493.73 435.71L493.49 438.16L493.22 443.18L492.99 444.38L492.09 447.15L500.54 448.94L511.50 451.27L517.49 452.65L524.27 455.55L528.01 457.16L534.75 460.11L541.32 462.94L542.97 463.70L546.37 465.18L548.42 465.94L550.75 466.82L552.71 467.46L559.80 469.78L569.57 470.20L577.60 465.96L580.80 458.25L582.12 455.06L582.61 453.89L583.56 451.66L584.93 448.42L585.58 446.89L586.18 445.49L587.83 441.26L588.31 440.02L589.13 433.73L589.88 427.97L588.86 410.60L588.60 408.86L587.56 401.69L586.91 397.69L586.74 395.88L586.33 390.79L585.60 381.78L543.84 376.43L542.64 376.21L541.13 376.11L539.71 376.05L537.67 376.19L536.37 375.60L535.46 374.33L534.99 372.57L534.44 370.47L534.15 368.86L532.00 367.90L530.24 367.13L528.97 369.24L528.23 370.39L526.85 372.66L525.79 374.31L524.77 375.84L523.35 377.58L522.23 378.46L520.56 379.52L519.30 380.49L518.21 381.36L517.40 383.35L516.69 384.55L516.02 387.01L504.42 364.98Z" data-ward="15" /><path id="ward-4" class="ward" d="M391.90 154.36L390.84 153.41L388.31 153.47L386.85 154.97L382.93 158.99L381.01 160.08L378.30 161.63L375.97 163.30L374.51 164.35L369.51 162.57L368.70 164.12L366.36 168.60L370.49 172.17L371.68 173.19L373.30 174.63L374.66 175.83L374.18 178.67L375.73 181.60L376.40 182.87L377.07 186.44L376.90 189.17L378.15 192.31L379.35 195.32L379.35 199.30L379.00 200.94L381.83 201.41L382.52 204.70L381.71 208.51L387.52 210.77L389.18 212.13L389.21 213.95L389.29 218.74L389.82 220.61L390.26 222.94L390.56 226.59L390.69 228.16L390.96 230.36L392.05 232.48L391.91 234.32L393.61 234.77L397.12 235.69L398.61 236.42L399.92 236.14L401.18 235.93L402.99 235.93L404.79 235.94L406.08 237.60L407.18 240.55L406.20 243.12L405.72 244.41L404.76 246.93L403.74 249.60L403.25 250.89L402.80 252.03L401.93 254.63L400.51 258.75L399.95 260.15L395.60 272.13L410.75 274.52L413.95 274.46L418.98 274.12L422.65 272.54L428.60 270.40L432.31 268.79L433.80 268.55L436.47 268.10L440.52 267.38L443.21 270.81L446.23 267.44L447.22 265.39L446.81 263.94L446.40 260.15L449.58 259.78L452.05 259.49L454.98 259.15L456.36 259.00L457.48 256.90L460.69 257.07L461.25 255.96L461.84 253.94L462.34 250.77L462.19 248.52L463.02 246.43L463.18 242.41L463.30 240.97L464.32 240.27L465.98 238.43L466.63 236.63L467.22 235.00L466.63 231.88L465.27 231.39L463.68 230.82L463.30 229.04L462.80 226.62L461.86 222.54L461.10 219.18L458.16 218.48L457.61 216.56L457.06 214.63L456.79 211.88L459.93 209.52L461.49 209.19L464.18 208.63L465.45 208.31L467.28 207.85L468.62 207.71L470.33 207.83L473.20 207.95L476.52 207.68L479.34 207.49L483.13 207.23L486.88 207.59L486.68 203.60L486.57 200.78L486.50 199.08L486.18 196.45L487.23 194.90L488.19 193.48L489.07 192.18L489.61 190.41L492.50 187.95L491.46 184.59L490.71 182.54L489.85 180.18L488.69 177.82L488.53 176.56L486.89 173.69L483.34 171.70L481.50 170.66L480.27 169.40L478.66 169.28L476.78 168.65L474.96 168.08L473.31 168.35L469.85 169.67L466.86 170.68L462.86 172.47L460.91 173.05L459.59 173.96L457.39 174.52L455.93 174.09L454.08 174.63L453.57 176.78L453.75 179.09L454.92 184.42L455.88 189.04L455.74 191.22L454.80 193.82L452.80 195.94L451.48 196.58L449.93 197.12L448.38 197.88L447.17 198.26L445.94 198.60L443.64 198.99L441.81 199.17L440.50 199.27L438.23 199.43L436.00 199.57L434.68 199.18L433.37 198.68L432.15 197.90L431.54 196.66L430.69 195.19L430.01 193.31L429.09 192.18L428.22 191.04L426.07 189.58L424.93 188.81L422.81 187.07L420.88 186.25L419.54 185.97L417.11 185.94L414.62 186.76L412.78 186.85L411.18 186.62L408.73 185.80L406.83 185.14L405.31 184.49L404.19 183.76L402.53 182.35L400.93 181.33L400.80 179.95L400.92 178.55L400.71 176.83L400.51 175.48L400.50 174.03L400.36 171.88L400.58 170.67L400.98 169.33L401.69 168.32L402.54 167.22L404.23 165.89L405.67 164.66L407.56 163.29L408.75 162.24L409.26 159.81L408.16 157.38L406.49 156.81L404.19 155.99L402.91 155.62L400.62 154.29L398.95 153.65L397.68 153.76L396.41 153.87L394.88 154.33L393.09 154.77L391.90 154.36Z" data-ward="4" /><path id="ward-10" class="ward" d="M973.16 326.64L971.67 324.39L963.09 306.91L944.41 268.83L935.94 251.10L923.95 248.45L911.92 246.85L910.45 246.39L902.78 243.99L886.76 295.65L907.05 331.95L908.81 331.50L909.50 332.58L910.12 335.20L910.89 336.23L911.67 337.26L917.71 353.73L920.40 361.06L917.61 372.54L916.32 373.56L915.03 374.58L913.39 375.77L912.19 376.03L910.49 376.22L909.40 377.66L907.29 377.64L887.79 404.96L890.82 406.23L893.66 406.39L896.00 406.21L902.87 406.86L905.44 407.66L906.16 409.08L908.14 409.58L911.98 410.54L914.86 411.11L918.52 412.85L918.11 414.90L913.72 420.71L911.28 423.95L910.28 425.88L908.92 428.47L906.64 438.33L905.60 446.27L905.56 448.81L905.41 457.26L906.08 458.97L906.82 460.86L907.35 462.06L909.80 462.07L911.20 461.68L913.17 461.50L915.46 461.29L917.33 460.96L919.77 460.45L920.84 459.85L921.31 457.86L923.08 456.42L925.31 456.85L927.53 457.80L928.70 458.31L930.75 458.77L939.16 460.30L941.44 461.05L944.61 463.16L953.26 465.90L956.21 466.81L958.37 466.98L959.93 467.05L961.54 467.00L963.32 467.06L964.50 467.55L966.05 468.30L968.06 469.81L967.86 471.81L969.56 474.43L971.91 475.89L974.27 477.87L975.67 478.88L977.59 479.79L977.48 481.62L979.48 482.20L981.24 482.75L982.67 483.20L985.98 483.80L988.06 482.80L989.08 481.36L989.21 479.13L989.40 476.09L990.32 472.55L991.83 470.19L993.15 468.12L993.03 462.71L993.29 458.93L993.73 454.17L994.50 451.92L997.23 443.87L1000.00 433.23L995.84 429.32L985.99 424.37L979.27 420.99L976.36 416.73L975.16 411.66L974.09 407.19L975.37 400.39L975.75 398.36L977.55 393.13L978.15 391.39L979.82 389.56L981.40 387.84L983.28 385.79L984.80 383.93L985.42 381.72L986.19 375.95L986.30 374.65L979.80 352.10L973.16 326.64Z" data-ward="10" /><path id="ward-5" class="ward" d="M583.32 176.33L582.10 174.84L580.10 171.71L578.56 168.98L577.81 167.65L577.07 163.74L576.77 162.16L574.00 156.21L572.31 152.54L566.38 151.21L563.93 150.49L561.48 149.77L556.58 149.69L552.64 149.62L547.64 149.54L534.69 157.77L529.36 163.19L525.59 167.02L522.41 168.33L519.06 169.07L517.61 169.39L515.09 169.46L512.82 169.52L510.78 171.21L509.50 172.28L509.16 173.69L508.74 175.50L507.68 177.79L503.20 177.03L499.51 175.39L496.80 175.41L494.31 175.89L489.69 174.75L486.89 173.69L488.53 176.56L488.69 177.82L489.85 180.18L490.71 182.54L491.46 184.59L492.50 187.95L489.61 190.41L489.07 192.18L488.19 193.48L487.23 194.90L486.18 196.45L486.50 199.08L486.57 200.78L486.68 203.60L486.88 207.59L483.13 207.23L479.34 207.49L476.52 207.68L473.20 207.95L470.33 207.83L468.62 207.71L467.28 207.85L465.45 208.31L464.18 208.63L461.49 209.19L459.93 209.52L456.79 211.88L457.06 214.63L457.61 216.56L458.16 218.48L461.10 219.18L461.86 222.54L462.80 226.62L463.30 229.04L463.68 230.82L465.27 231.39L466.63 231.88L467.22 235.00L466.63 236.63L465.98 238.43L464.32 240.27L463.30 240.97L463.18 242.41L463.02 246.43L462.19 248.52L462.34 250.77L461.84 253.94L461.25 255.96L460.69 257.07L457.48 256.90L456.36 259.00L456.34 261.97L463.30 264.34L466.57 265.93L467.44 267.13L468.32 268.32L470.32 270.41L471.99 274.07L474.57 277.36L475.75 281.82L479.40 285.12L481.87 284.07L483.45 283.82L486.14 283.33L490.43 282.87L494.22 282.69L495.39 282.13L500.40 279.76L502.47 278.74L505.12 278.08L507.16 277.86L508.70 277.97L511.52 278.84L513.63 280.26L515.78 280.54L517.50 278.45L517.82 276.93L518.41 275.32L519.69 271.72L521.07 271.79L522.35 271.86L525.14 272.02L528.64 272.22L530.80 272.34L533.42 272.59L534.82 272.73L537.29 273.35L538.62 273.68L541.82 274.48L543.99 274.81L550.68 275.81L555.57 268.96L560.67 261.82L566.24 250.79L576.41 254.75L581.38 255.74L588.30 257.13L592.79 257.18L597.66 257.44L599.82 256.04L604.13 250.37L606.22 247.55L609.84 242.44L612.64 237.06L616.96 228.31L618.95 224.43L621.69 219.30L626.61 210.31L624.45 203.09L621.52 197.24L618.81 191.99L617.02 189.95L615.04 189.09L612.00 187.78L609.25 186.59L603.24 184.40L599.07 183.18L592.74 181.32L589.37 180.16L586.00 179.00L583.32 176.33Z" data-ward="5" /></svg>