<svg viewBox="0 0 1000.00 910.54" xmlns="http://www.w3.org/2000/svg"><style>.ward { fill: #e2e8f0; stroke: #fff; stroke-width: 0.5px; } .ward:hover { fill: #cbd5e1; }</style><path id="ward-18" class="ward" d="M83.91 345.64L81.53 346.10L77.40 350.83L74.20 350.90L71.57 347.02L68.30 347.22L64.64 350.35L56.84 353.82L56.68 359.95L58.54 362.40L58.30 365.02L52.91 364.95L52.74 367.60L51.95 370.21L50.53 372.85L47.28 375.00L46.19 378.02L44.84 381.76L42.72 383.38L39.58 385.77L37.30 387.18L34.86 388.69L32.05 390.41L28.75 390.41L25.93 392.95L23.76 397.05L22.20 400.01L20.00 402.26L18.34 403.96L14.10 408.30L11.03 413.63L10.44 417.02L9.59 421.96L9.94 424.47L8.81 427.77L8.17 430.28L7.58 434.81L7.27 437.20L8.98 439.73L9.24 443.24L9.25 446.01L9.15 448.36L9.15 448.41L8.94 454.69L8.78 457.54L8.89 457.65L9.78 458.40L12.37 460.16L17.66 463.45L22.85 462.49L22.44 466.30L22.11 469.40L21.67 473.55L21.27 477.35L21.50 481.05L21.75 485.13L22.58 490.06L23.55 495.77L24.36 500.57L24.25 503.59L24.17 505.97L22.70 508.52L21.50 510.60L19.05 514.84L18.95 521.23L34.57 526.00L46.36 522.69L48.58 521.13L50.53 519.78L62.72 520.13L69.25 522.63L100.38 519.72L100.40 513.52L109.67 512.98L114.77 511.05L114.57 506.97L118.66 505.52L118.31 500.70L117.08 497.96L116.32 489.81L115.15 486.91L118.38 484.01L120.78 483.56L129.08 480.40L140.13 475.98L138.71 470.99L145.38 467.59L148.17 456.13L147.82 443.90L159.31 444.98L164.43 442.80L167.52 443.43L177.89 439.96L189.40 439.95L190.43 442.98L190.99 447.52L193.97 453.17L196.93 454.28L198.17 459.05L198.31 462.26L198.46 465.46L215.79 465.68L223.86 463.88L228.33 463.97L229.31 459.49L232.20 457.28L230.59 450.33L232.14 446.50L231.98 443.87L232.98 431.86L240.43 433.66L246.85 434.10L257.39 435.15L261.38 433.33L267.09 430.74L262.55 415.43L262.64 405.29L264.74 395.99L263.27 389.68L260.43 386.63L253.86 384.34L252.13 381.61L246.65 382.89L234.01 388.30L228.25 387.54L223.16 384.39L211.32 385.98L204.97 388.26L200.21 389.89L192.44 383.24L189.96 383.68L180.22 385.67L155.91 390.61L154.45 388.33L146.62 387.54L143.46 388.47L141.60 386.43L142.78 379.49L143.12 376.70L143.08 370.85L140.54 370.36L132.42 372.31L132.81 367.30L133.01 364.52L122.45 369.72L115.62 365.01L112.34 360.11L104.83 362.64L103.62 357.50L102.41 355.12L94.74 349.44L87.63 352.26L83.91 345.64Z" data-ward="18" /><path id="ward-5" class="ward" d="M793.59 283.21L793.58 283.21L792.82 282.22L792.62 281.17L792.19 279.87L791.90 278.79L791.32 277.58L790.76 276.77L790.52 275.77L790.13 274.67L790.11 274.02L789.72 273.50L789.00 273.24L788.22 272.63L787.46 272.18L786.87 271.63L786.55 270.92L786.24 270.20L785.29 269.25L784.51 268.29L784.49 267.68L784.77 266.97L785.31 266.47L786.14 266.02L786.46 265.82L787.65 265.60L788.67 265.62L789.43 265.60L790.86 265.56L792.30 265.60L793.42 265.58L794.46 265.32L795.51 265.11L796.61 265.28L797.18 265.63L798.00 265.86L798.26 265.93L799.36 266.02L799.68 266.08L800.16 266.13L800.68 266.03L800.97 265.88L801.33 265.62L801.67 265.43L802.15 265.28L802.54 265.27L802.87 265.29L802.86 265.38L802.97 245.77L797.34 243.59L795.68 235.89L796.15 230.66L787.83 227.82L783.98 226.76L779.15 226.76L776.41 227.86L772.78 230.65L768.11 229.42L765.67 228.86L767.61 213.52L772.84 211.58L787.32 202.05L834.72 136.30L855.06 112.39L897.68 124.65L909.73 127.98L910.75 124.62L921.21 124.52L924.53 120.69L919.37 116.84L916.50 114.69L914.09 113.89L899.47 109.01L892.22 105.60L887.22 103.50L885.32 101.48L880.05 95.88L873.59 93.16L869.02 91.24L864.30 90.08L861.13 89.31L853.44 87.42L847.37 85.93L840.80 84.32L837.30 83.87L829.74 83.88L827.37 83.84L821.42 85.48L814.16 87.32L809.81 87.96L809.72 82.52L809.52 79.55L807.73 76.37L804.38 73.72L801.82 69.54L801.09 64.81L800.02 60.40L797.92 56.46L794.77 53.54L793.70 51.40L791.80 48.75L790.71 45.01L788.69 41.10L786.67 37.18L783.94 34.95L778.84 31.55L773.63 29.03L768.59 25.79L766.01 21.01L762.94 19.15L760.28 17.53L756.85 12.89L753.89 9.96L750.39 6.51L749.96 3.94L747.40 2.30L743.79 0.00L736.18 0.47L729.32 0.89L727.22 3.32L721.70 3.73L720.13 15.93L719.47 19.02L718.46 22.17L717.86 28.67L718.57 32.42L719.51 37.48L724.52 38.90L734.32 43.74L733.54 45.99L732.14 49.99L728.51 52.79L727.82 56.13L727.13 59.40L726.04 64.65L725.52 67.12L724.05 74.18L719.19 80.47L716.88 83.48L715.41 85.38L713.36 88.03L711.04 91.03L708.83 93.90L705.70 101.96L703.87 106.67L702.16 111.05L701.12 117.74L702.78 121.15L706.69 124.60L708.47 126.18L708.18 129.85L707.96 132.76L707.58 137.51L707.30 141.04L706.95 145.55L728.49 165.40L731.97 175.06L727.94 177.40L733.69 186.56L744.25 205.59L761.69 254.78L762.93 272.72L773.37 276.84L778.52 290.13L790.52 287.37L793.59 283.21Z" data-ward="5" /><path id="ward-1" class="ward" d="M385.67 257.34L382.35 254.57L379.02 251.02L382.07 247.25L382.70 241.78L383.19 237.53L393.58 235.79L395.98 231.77L395.71 214.11L382.95 199.96L385.95 174.68L387.29 163.94L390.05 141.83L390.50 137.52L390.95 133.22L392.46 113.00L393.87 105.04L359.07 101.59L332.80 99.12L329.90 96.99L322.24 91.70L308.38 82.14L293.76 87.76L276.96 92.21L257.91 97.26L235.19 103.28L223.76 121.02L227.29 127.16L222.82 139.67L208.00 150.23L189.90 157.92L180.42 161.95L172.16 165.46L165.57 168.27L162.45 176.58L164.24 194.39L164.66 198.58L145.30 215.72L132.44 227.10L123.23 235.26L118.58 239.37L195.93 247.05L219.95 266.54L223.82 274.74L225.62 278.55L228.25 292.53L236.21 303.98L257.28 311.56L264.61 317.70L267.20 316.99L271.54 319.45L273.17 322.03L279.53 320.30L280.78 326.85L282.40 329.93L289.56 328.56L290.07 337.48L291.26 358.19L272.16 377.75L270.15 379.81L281.94 383.93L288.18 385.25L296.03 385.25L319.72 386.86L325.30 385.69L327.40 384.42L339.38 377.18L353.98 365.52L359.11 362.49L356.51 351.19L355.85 342.96L353.45 337.54L351.68 332.98L351.89 330.23L359.99 327.53L357.29 314.86L357.71 311.08L358.51 303.98L364.05 304.92L367.04 287.37L357.68 286.79L359.13 277.44L361.06 265.07L366.27 264.35L368.93 262.85L374.86 263.07L386.26 266.84L386.63 263.02L385.67 257.34Z" data-ward="1" /><path id="ward-3" class="ward" d="M519.97 285.96L517.20 283.84L511.70 269.46L508.00 260.39L506.44 263.77L502.49 271.59L500.78 277.26L499.52 281.82L494.73 299.06L487.90 296.35L475.06 303.97L470.41 315.42L457.24 325.12L442.30 328.29L426.93 335.67L416.95 341.11L410.36 344.69L408.50 346.55L412.91 350.21L419.42 355.61L428.25 360.19L433.98 363.17L437.16 364.82L439.61 365.67L446.22 369.15L450.16 372.58L453.66 377.24L456.22 380.07L458.78 382.90L467.54 384.23L463.86 390.32L467.24 392.34L469.68 395.72L474.02 396.39L477.39 399.63L486.03 410.95L492.88 421.32L500.58 430.95L505.09 420.08L508.94 413.65L512.01 410.68L513.90 408.84L518.41 403.94L522.91 399.03L531.07 383.59L535.41 385.16L537.73 383.63L538.86 381.06L542.99 382.49L545.55 386.37L548.01 391.21L547.70 396.94L547.61 400.27L548.37 405.07L551.24 415.11L562.86 410.04L565.32 412.48L572.32 409.76L567.57 404.02L558.35 389.15L569.19 385.09L571.66 388.27L576.27 389.54L588.54 390.98L590.55 387.04L593.00 379.62L594.14 372.78L611.26 373.97L628.38 375.16L628.37 372.56L628.36 369.45L629.51 367.21L630.77 362.77L629.13 358.93L629.49 354.02L645.61 346.69L645.55 334.38L587.40 314.90L568.77 318.13L558.67 315.83L559.88 312.88L563.16 304.83L565.32 295.77L561.72 296.16L556.81 295.68L552.66 295.62L545.37 295.46L542.72 295.69L535.17 295.00L529.02 295.05L519.97 285.96Z" data-ward="3" /><path id="ward-7" class="ward" d="M793.59 283.21L790.52 287.37L799.50 306.56L798.23 347.84L797.82 361.07L797.52 370.67L767.90 364.80L751.62 364.37L738.41 361.84L725.48 361.87L723.12 362.18L697.10 365.63L697.29 377.54L699.22 380.63L699.22 391.73L699.90 401.51L702.67 411.56L702.71 419.60L702.71 429.80L701.43 435.40L701.15 439.11L700.94 441.82L699.26 445.71L698.55 449.20L693.82 461.86L711.25 469.13L724.44 481.85L712.74 493.56L752.13 517.17L768.58 526.84L779.19 526.42L781.89 525.90L789.63 524.40L799.34 525.06L800.43 527.22L913.98 448.08L928.22 426.80L919.36 412.07L903.72 391.48L906.36 385.79L909.81 378.37L912.19 370.95L914.76 362.94L917.11 355.64L918.83 350.29L920.61 344.73L922.59 338.57L924.37 333.01L925.79 328.59L928.48 320.21L905.91 322.64L872.79 325.28L871.63 322.57L870.96 319.52L865.89 309.61L863.23 305.38L861.29 299.69L858.51 294.37L858.63 288.69L855.49 287.96L842.91 289.05L839.77 290.13L820.95 293.98L820.81 289.66L819.11 280.83L809.74 281.09L806.09 278.44L802.86 265.38L802.87 265.29L802.54 265.27L802.15 265.28L801.67 265.43L801.33 265.62L800.97 265.88L800.68 266.03L800.16 266.13L799.68 266.08L799.36 266.02L798.26 265.93L798.00 265.86L797.18 265.63L796.61 265.28L795.51 265.11L794.46 265.32L793.42 265.58L792.30 265.60L790.86 265.56L789.43 265.60L788.67 265.62L787.65 265.60L786.46 265.82L786.14 266.02L785.31 266.47L784.77 266.97L784.49 267.68L784.51 268.29L785.29 269.25L786.24 270.20L786.55 270.92L786.87 271.63L787.46 272.18L788.22 272.63L789.00 273.24L789.72 273.50L790.11 274.02L790.13 274.67L790.52 275.77L790.76 276.77L791.32 277.58L791.90 278.79L792.19 279.87L792.62 281.17L792.82 282.22L793.58 283.21L793.59 283.21Z" data-ward="7" /><path id="ward-20" class="ward" d="M228.25 292.53L225.62 278.55L223.82 274.74L219.95 266.54L195.93 247.05L118.58 239.37L115.19 259.17L114.47 263.37L113.82 267.22L110.01 269.56L103.70 273.44L98.89 277.81L86.28 284.15L78.30 289.06L72.76 295.27L68.32 295.97L63.88 296.67L61.97 298.45L54.27 293.24L45.87 293.02L45.04 295.58L44.20 298.13L45.97 300.97L46.74 303.37L47.92 307.10L49.09 310.36L51.08 317.75L51.06 322.91L48.84 328.69L47.86 331.36L46.80 334.70L45.64 338.34L43.17 341.04L42.80 343.64L42.22 347.77L40.53 351.45L42.63 355.37L44.74 359.29L47.98 361.54L52.91 364.95L58.30 365.02L58.54 362.40L56.68 359.95L56.84 353.82L64.64 350.35L68.30 347.22L71.57 347.02L74.20 350.90L77.40 350.83L81.53 346.10L83.91 345.64L87.63 352.26L94.74 349.44L102.41 355.12L103.62 357.50L104.83 362.64L112.34 360.11L115.62 365.01L122.45 369.72L133.01 364.52L132.81 367.30L132.42 372.31L140.54 370.36L143.08 370.85L143.12 376.70L142.78 379.49L141.60 386.43L143.46 388.47L146.62 387.54L154.45 388.33L155.91 390.61L180.22 385.67L189.96 383.68L192.44 383.24L200.21 389.89L204.97 388.26L211.32 385.98L223.16 384.39L228.25 387.54L234.01 388.30L246.65 382.89L252.13 381.61L253.86 384.34L260.43 386.63L263.27 389.68L269.66 390.23L268.59 382.00L270.15 379.81L272.16 377.75L291.26 358.19L290.07 337.48L289.56 328.56L282.40 329.93L280.78 326.85L279.53 320.30L273.17 322.03L271.54 319.45L267.20 316.99L264.61 317.70L257.28 311.56L236.21 303.98L228.25 292.53Z" data-ward="20" /><path id="ward-16" class="ward" d="M202.02 494.83L200.34 491.65L195.12 491.30L189.61 477.41L184.04 476.54L179.90 493.40L180.15 497.40L184.60 497.35L187.30 501.84L188.41 506.66L176.79 508.43L177.52 515.63L181.54 527.39L192.24 524.22L196.68 524.63L201.36 523.78L211.47 524.34L210.23 534.92L201.39 542.96L217.86 560.63L217.27 570.24L216.09 576.20L215.26 587.03L212.47 587.49L208.68 584.74L206.10 582.90L204.64 579.88L199.17 581.33L196.48 583.75L200.32 586.86L200.17 593.50L203.08 603.92L195.74 603.91L196.42 611.68L194.23 616.69L190.05 616.63L187.66 615.08L175.17 614.79L172.69 612.38L170.11 605.98L165.67 604.29L162.82 596.22L151.82 597.56L138.67 596.90L136.09 592.44L133.08 590.76L127.73 590.14L126.99 607.66L118.84 611.40L119.31 637.56L90.91 629.85L83.42 633.02L16.71 630.42L9.31 630.27L8.01 632.41L6.44 634.99L2.33 641.75L1.60 644.27L0.71 647.33L0.00 649.77L0.65 656.22L1.37 663.43L1.88 668.51L2.91 678.80L3.23 681.99L3.58 685.47L14.36 688.97L20.77 688.68L34.37 691.04L39.95 694.19L44.15 693.91L53.82 699.27L65.81 700.88L80.47 702.86L104.82 706.15L123.97 708.73L132.70 710.92L139.35 712.59L142.88 713.61L159.47 717.83L164.16 719.07L173.54 730.75L182.47 729.31L185.08 730.77L189.81 730.79L194.51 730.82L208.06 731.18L211.88 730.68L228.03 728.54L231.24 720.92L233.86 714.71L238.69 714.96L246.55 715.37L254.39 713.48L264.17 711.13L268.06 710.20L273.19 710.71L278.83 709.47L293.61 711.15L296.86 704.84L298.06 702.50L304.99 702.47L308.04 702.45L311.72 702.29L317.37 706.77L322.10 706.90L328.08 705.36L333.83 703.87L339.25 704.18L344.67 704.49L344.08 701.39L343.39 697.80L349.90 689.40L347.89 683.12L347.97 680.46L346.46 674.49L345.20 669.65L345.95 662.84L343.69 655.25L357.02 617.50L288.54 597.43L266.59 592.77L257.56 593.72L248.09 564.28L242.75 563.04L239.39 553.91L236.63 539.17L229.93 537.36L225.28 531.96L218.18 518.88L213.51 511.60L204.69 499.93L202.02 494.83Z" data-ward="16" /><path id="ward-8" class="ward" d="M697.10 365.63L670.89 369.81L664.50 370.87L650.17 373.48L633.48 375.89L628.38 375.16L611.26 373.97L594.14 372.78L593.00 379.62L590.55 387.04L588.54 390.98L576.27 389.54L571.66 388.27L569.19 385.09L558.35 389.15L567.57 404.02L572.32 409.76L565.32 412.48L562.86 410.04L551.24 415.11L548.37 405.07L547.61 400.27L547.70 396.94L548.01 391.21L545.55 386.37L542.99 382.49L538.86 381.06L537.73 383.63L535.41 385.16L531.07 383.59L522.91 399.03L518.41 403.94L513.90 408.84L512.01 410.68L508.94 413.65L505.09 420.08L500.58 430.95L492.88 421.32L488.17 422.24L484.58 422.95L478.77 423.83L473.97 424.53L468.50 426.29L459.48 438.62L459.54 460.47L468.45 466.85L483.82 480.16L489.79 490.02L491.74 501.22L496.83 511.92L501.65 519.75L509.51 529.36L512.05 538.21L513.24 542.40L521.28 551.69L538.74 554.63L543.53 551.20L548.76 550.49L547.41 540.59L548.80 525.43L548.72 522.45L548.86 516.26L549.36 513.57L546.75 507.99L543.06 505.18L536.70 509.63L526.37 518.41L525.95 509.95L523.38 504.40L522.37 498.73L518.61 498.65L519.13 475.03L521.33 467.31L529.04 456.58L540.69 452.13L543.42 452.31L547.42 451.38L551.35 450.16L556.86 448.42L567.73 446.75L608.56 450.59L616.48 449.75L621.49 457.52L627.83 455.35L630.24 454.24L634.98 451.89L646.21 448.90L655.83 452.32L689.59 476.81L693.82 461.86L698.55 449.20L699.26 445.71L700.94 441.82L701.15 439.11L701.43 435.40L702.71 429.80L702.71 419.60L702.67 411.56L699.90 401.51L699.22 391.73L699.22 380.63L697.29 377.54L697.10 365.63Z" data-ward="8" /><path id="ward-11" class="ward" d="M732.10 651.37L690.49 652.67L640.11 661.68L628.45 658.78L620.50 658.82L630.84 687.02L633.36 700.34L630.01 703.50L629.68 713.92L629.29 726.58L652.91 747.00L676.53 767.97L681.15 772.06L708.90 833.12L720.52 845.74L740.10 866.57L752.74 882.20L757.76 879.21L776.60 874.42L779.89 874.68L788.14 875.31L783.43 860.90L818.16 837.62L858.44 810.61L894.44 806.28L907.78 802.50L921.42 788.53L917.34 782.75L929.46 769.26L926.48 755.19L912.42 738.42L885.72 735.45L828.03 729.06L789.78 723.49L771.22 723.14L765.84 715.41L760.45 707.67L766.40 703.58L771.72 693.07L776.67 688.74L779.21 686.43L779.81 678.30L778.32 666.19L772.10 662.27L761.54 662.02L759.33 663.68L757.22 664.82L754.61 665.28L749.81 666.14L745.43 665.84L732.10 651.37Z" data-ward="11" /><path id="ward-13" class="ward" d="M521.28 551.69L513.24 542.40L512.97 548.67L512.59 555.76L506.15 569.01L490.77 591.68L503.66 591.13L514.47 592.67L527.76 592.37L529.95 603.60L531.12 609.64L533.04 611.99L539.62 612.39L548.70 608.87L556.69 613.96L559.20 627.49L564.45 649.83L553.74 653.55L546.09 658.26L524.40 665.53L521.32 654.10L509.57 654.79L500.99 657.11L509.26 683.23L514.01 685.23L502.10 699.63L505.42 705.12L509.17 707.59L514.64 705.10L518.64 703.27L521.94 704.03L525.14 706.83L527.98 707.15L531.65 708.05L534.24 709.61L537.89 711.80L537.35 716.43L540.99 717.92L544.64 719.41L545.02 715.85L550.80 718.66L554.35 720.39L567.96 725.27L580.49 724.07L582.53 725.41L584.94 726.66L590.27 727.09L584.07 748.61L581.27 757.98L591.70 758.54L595.60 759.24L604.28 758.77L602.53 752.10L629.29 726.58L629.68 713.92L630.01 703.50L633.36 700.34L630.84 687.02L620.50 658.82L615.68 653.84L615.71 649.81L619.72 649.46L620.56 644.78L621.36 640.23L623.58 634.05L625.68 627.03L626.89 623.86L628.66 622.09L628.57 619.50L632.72 619.04L632.99 604.52L621.76 604.12L618.24 596.35L616.33 587.43L613.87 576.05L599.60 562.96L602.24 552.84L601.14 548.66L598.02 545.81L590.80 544.76L583.10 543.63L562.70 547.37L548.76 550.49L543.53 551.20L538.74 554.63L521.28 551.69Z" data-ward="13" /><path id="ward-6" class="ward" d="M952.81 137.78L946.60 134.21L930.54 124.60L924.53 120.69L921.21 124.52L910.75 124.62L909.73 127.98L897.68 124.65L855.06 112.39L834.72 136.30L787.32 202.05L772.84 211.58L767.61 213.52L765.67 228.86L768.11 229.42L772.78 230.65L776.41 227.86L779.15 226.76L783.98 226.76L787.83 227.82L796.15 230.66L795.68 235.89L797.34 243.59L802.97 245.77L802.86 265.38L806.09 278.44L809.74 281.09L819.11 280.83L820.81 289.66L820.95 293.98L839.77 290.13L842.91 289.05L855.49 287.96L858.63 288.69L858.51 294.37L861.29 299.69L863.23 305.38L865.89 309.61L870.96 319.52L871.63 322.57L872.79 325.28L905.91 322.64L928.48 320.21L930.33 316.85L935.32 314.89L946.78 310.38L953.83 306.98L991.48 288.80L993.93 288.96L997.41 289.19L1000.00 289.37L997.21 276.37L989.21 250.07L983.73 232.09L986.49 227.66L989.39 223.00L992.52 215.08L999.30 201.40L996.85 192.61L991.14 188.74L982.13 183.05L980.00 181.78L973.37 178.90L970.30 175.37L968.00 172.73L965.26 169.56L961.14 164.82L958.68 164.10L960.99 159.30L959.19 153.39L950.34 152.50L947.72 149.00L946.54 146.04L947.29 145.17L957.27 144.79L956.70 141.33L952.81 137.78Z" data-ward="6" /><path id="ward-12" class="ward" d="M554.35 720.39L553.12 724.11L551.70 728.42L550.47 732.18L550.41 736.15L550.35 739.51L550.29 743.37L550.23 747.17L553.13 752.59L554.74 755.61L552.63 769.26L550.36 775.20L553.43 777.41L561.47 781.14L564.00 788.32L564.31 795.54L562.60 802.28L566.93 807.93L564.74 822.37L562.75 831.59L560.70 838.52L557.64 846.05L559.75 852.94L570.01 854.08L578.46 853.13L589.29 861.54L607.10 873.23L615.77 879.32L645.75 893.98L648.55 895.35L686.40 910.54L700.31 897.44L703.07 897.12L722.83 893.89L729.19 893.27L730.97 895.20L739.41 891.67L747.36 885.41L752.74 882.20L740.10 866.57L720.52 845.74L708.90 833.12L681.15 772.06L676.53 767.97L652.91 747.00L629.29 726.58L602.53 752.10L604.28 758.77L595.60 759.24L591.70 758.54L581.27 757.98L584.07 748.61L590.27 727.09L584.94 726.66L582.53 725.41L580.49 724.07L567.96 725.27L554.35 720.39Z" data-ward="12" /><path id="ward-9" class="ward" d="M567.73 446.75L556.86 448.42L551.35 450.16L547.42 451.38L543.42 452.31L540.69 452.13L529.04 456.58L521.33 467.31L519.13 475.03L518.61 498.65L522.37 498.73L523.38 504.40L525.95 509.95L526.37 518.41L536.70 509.63L543.06 505.18L546.75 507.99L549.36 513.57L548.86 516.26L548.72 522.45L548.80 525.43L547.41 540.59L548.76 550.49L562.70 547.37L583.10 543.63L590.80 544.76L598.02 545.81L601.14 548.66L602.24 552.84L599.60 562.96L613.87 576.05L616.33 587.43L618.24 596.35L621.76 604.12L632.99 604.52L632.72 619.04L643.72 618.12L650.15 618.22L656.36 618.31L661.46 616.54L671.81 615.27L676.68 615.42L679.98 619.71L685.88 619.93L688.74 621.02L692.25 621.54L707.47 618.44L710.24 618.69L720.15 617.16L726.98 616.55L730.66 616.39L734.85 616.85L739.17 616.23L738.81 611.64L736.65 605.32L735.75 599.42L734.76 591.01L747.79 586.35L747.17 581.33L757.61 579.47L756.40 572.94L764.22 567.05L765.66 558.02L767.34 552.69L770.14 551.02L772.75 547.40L774.36 541.24L768.58 526.84L752.13 517.17L712.74 493.56L724.44 481.85L711.25 469.13L693.82 461.86L689.59 476.81L655.83 452.32L646.21 448.90L634.98 451.89L630.24 454.24L627.83 455.35L621.49 457.52L616.48 449.75L608.56 450.59L567.73 446.75Z" data-ward="9" /><path id="ward-15" class="ward" d="M270.32 461.74L271.37 458.85L269.30 457.19L265.73 455.50L265.13 450.93L264.77 448.21L258.41 448.39L252.91 451.01L252.66 455.51L245.09 455.80L240.42 455.95L235.30 456.70L232.20 457.28L229.31 459.49L228.33 463.97L223.86 463.88L215.79 465.68L218.07 478.30L218.31 483.36L215.70 486.90L200.34 491.65L202.02 494.83L204.69 499.93L213.51 511.60L218.18 518.88L225.28 531.96L229.93 537.36L236.63 539.17L239.39 553.91L242.75 563.04L248.09 564.28L257.56 593.72L266.59 592.77L288.54 597.43L357.02 617.50L368.05 611.35L363.40 586.25L367.31 574.25L383.98 542.23L399.71 540.13L406.48 557.71L422.38 552.42L424.81 540.37L441.12 543.96L444.15 546.05L443.71 559.43L444.96 565.40L450.93 567.04L453.22 570.73L456.02 571.01L455.65 575.70L453.29 575.74L451.31 581.45L452.87 590.97L457.13 590.58L466.61 593.94L473.67 593.65L477.73 595.23L481.54 599.26L490.77 591.68L506.15 569.01L512.59 555.76L512.97 548.67L513.24 542.40L512.05 538.21L509.51 529.36L501.65 519.75L496.83 511.92L491.74 501.22L489.79 490.02L483.82 480.16L468.45 466.85L459.54 460.47L446.99 479.43L437.51 484.40L432.26 487.14L427.17 489.81L422.14 489.41L417.70 489.06L418.42 491.73L404.79 497.45L390.13 488.03L388.20 486.67L377.62 478.89L369.36 477.26L365.42 473.43L352.04 468.77L335.14 462.94L321.13 458.10L292.51 473.44L274.68 464.64L270.32 461.74Z" data-ward="15" /><path id="ward-19" class="ward" d="M419.42 355.61L412.91 350.21L408.50 346.55L399.67 350.85L390.63 352.55L388.04 353.98L380.93 358.52L374.41 357.61L371.02 357.67L361.96 361.34L359.11 362.49L353.98 365.52L339.38 377.18L327.40 384.42L325.30 385.69L319.72 386.86L296.03 385.25L288.18 385.25L281.94 383.93L270.15 379.81L268.59 382.00L269.66 390.23L263.27 389.68L264.74 395.99L262.64 405.29L262.55 415.43L267.09 430.74L261.38 433.33L257.39 435.15L246.85 434.10L240.43 433.66L232.98 431.86L231.98 443.87L232.14 446.50L230.59 450.33L232.20 457.28L235.30 456.70L240.42 455.95L245.09 455.80L252.66 455.51L252.91 451.01L258.41 448.39L264.77 448.21L265.13 450.93L265.73 455.50L269.30 457.19L271.37 458.85L270.32 461.74L274.68 464.64L292.51 473.44L321.13 458.10L335.14 462.94L352.04 468.77L365.42 473.43L369.36 477.26L377.62 478.89L388.20 486.67L390.13 488.03L404.79 497.45L418.42 491.73L417.70 489.06L422.14 489.41L427.17 489.81L432.26 487.14L437.51 484.40L446.99 479.43L459.54 460.47L459.48 438.62L468.50 426.29L473.97 424.53L478.77 423.83L484.58 422.95L488.17 422.24L492.88 421.32L486.03 410.95L477.39 399.63L474.02 396.39L469.68 395.72L467.24 392.34L463.86 390.32L467.54 384.23L458.78 382.90L456.22 380.07L453.66 377.24L450.16 372.58L446.22 369.15L439.61 365.67L437.16 364.82L433.98 363.17L428.25 360.19L419.42 355.61Z" data-ward="19" /><path id="ward-2" class="ward" d="M482.92 202.23L467.80 185.70L463.85 181.39L460.45 164.77L457.67 151.21L456.42 147.60L449.83 125.26L444.74 109.30L446.76 102.30L435.69 101.35L411.80 103.46L393.87 105.04L392.46 113.00L390.95 133.22L390.50 137.52L390.05 141.83L387.29 163.94L385.95 174.68L382.95 199.96L395.71 214.11L395.98 231.77L393.58 235.79L383.19 237.53L382.70 241.78L382.07 247.25L379.02 251.02L382.35 254.57L385.67 257.34L386.63 263.02L386.26 266.84L374.86 263.07L368.93 262.85L366.27 264.35L361.06 265.07L359.13 277.44L357.68 286.79L367.04 287.37L364.05 304.92L358.51 303.98L357.71 311.08L357.29 314.86L359.99 327.53L351.89 330.23L351.68 332.98L353.45 337.54L355.85 342.96L356.51 351.19L359.11 362.49L361.96 361.34L371.02 357.67L374.41 357.61L380.93 358.52L388.04 353.98L390.63 352.55L399.67 350.85L408.50 346.55L410.36 344.69L416.95 341.11L426.93 335.67L442.30 328.29L457.24 325.12L470.41 315.42L475.06 303.97L487.90 296.35L494.73 299.06L499.52 281.82L500.78 277.26L502.49 271.59L506.44 263.77L508.00 260.39L505.31 253.87L502.92 248.07L503.45 221.47L492.20 221.56L482.92 202.23Z" data-ward="2" /><path id="ward-10" class="ward" d="M937.80 465.39L924.75 455.90L913.98 448.08L800.43 527.22L799.34 525.06L789.63 524.40L781.89 525.90L779.19 526.42L768.58 526.84L774.36 541.24L772.75 547.40L770.14 551.02L767.34 552.69L765.66 558.02L764.22 567.05L756.40 572.94L757.61 579.47L747.17 581.33L747.79 586.35L734.76 591.01L735.75 599.42L736.65 605.32L738.81 611.64L739.17 616.23L734.85 616.85L730.66 616.39L726.98 616.55L720.15 617.16L710.24 618.69L707.47 618.44L692.25 621.54L688.74 621.02L685.88 619.93L679.98 619.71L676.68 615.42L671.81 615.27L661.46 616.54L656.36 618.31L650.15 618.22L643.72 618.12L632.72 619.04L628.57 619.50L628.66 622.09L626.89 623.86L625.68 627.03L623.58 634.05L621.36 640.23L620.56 644.78L619.72 649.46L615.71 649.81L615.68 653.84L620.50 658.82L628.45 658.78L640.11 661.68L690.49 652.67L732.10 651.37L745.43 665.84L749.81 666.14L754.61 665.28L757.22 664.82L759.33 663.68L761.54 662.02L772.10 662.27L778.32 666.19L779.81 678.30L779.21 686.43L776.67 688.74L771.72 693.07L766.40 703.58L760.45 707.67L765.84 715.41L771.22 723.14L789.78 723.49L828.03 729.06L885.72 735.45L912.42 738.42L916.50 728.66L920.57 718.92L926.11 713.02L930.56 705.79L932.99 701.82L936.45 688.49L943.87 674.11L947.89 662.50L947.02 654.83L946.80 651.59L946.23 645.66L945.54 638.46L945.17 633.21L945.06 629.78L944.73 619.56L944.56 614.15L952.67 605.61L949.65 600.51L957.68 592.35L958.01 587.29L961.63 582.68L967.52 575.18L967.13 569.59L959.52 559.87L958.73 553.99L957.69 551.17L955.68 545.66L952.53 538.02L952.03 534.25L953.52 529.33L951.12 522.67L956.47 518.47L954.10 513.13L945.84 507.26L943.46 504.07L941.97 500.93L939.66 496.03L941.32 485.51L941.83 482.37L943.92 469.65L934.46 472.56L937.80 465.39Z" data-ward="10" /><path id="ward-14" class="ward" d="M399.71 540.13L383.98 542.23L367.31 574.25L363.40 586.25L368.05 611.35L357.02 617.50L343.69 655.25L345.95 662.84L353.97 647.11L366.56 650.54L374.29 652.63L377.33 650.66L381.61 649.29L384.10 647.05L384.93 646.48L385.61 647.16L390.93 653.98L394.44 656.29L405.28 663.41L409.96 660.52L414.11 660.52L417.76 660.51L425.58 663.65L428.73 664.91L428.76 671.40L427.27 676.36L426.06 680.38L430.81 684.23L443.42 682.60L446.84 684.17L448.90 687.33L451.07 687.85L453.19 689.68L452.48 692.73L455.13 695.60L458.41 696.60L462.19 697.61L464.01 697.91L464.60 697.44L465.22 695.97L465.30 695.73L465.42 695.29L466.87 689.78L468.09 684.80L467.57 680.17L478.36 678.20L483.72 675.53L486.15 674.32L489.09 674.79L490.64 677.21L492.52 681.27L495.11 685.00L496.22 687.59L494.91 691.97L499.52 696.87L502.10 699.63L514.01 685.23L509.26 683.23L500.99 657.11L509.57 654.79L521.32 654.10L524.40 665.53L546.09 658.26L553.74 653.55L564.45 649.83L559.20 627.49L556.69 613.96L548.70 608.87L539.62 612.39L533.04 611.99L531.12 609.64L529.95 603.60L527.76 592.37L514.47 592.67L503.66 591.13L490.77 591.68L481.54 599.26L477.73 595.23L473.67 593.65L466.61 593.94L457.13 590.58L452.87 590.97L451.31 581.45L453.29 575.74L455.65 575.70L456.02 571.01L453.22 570.73L450.93 567.04L444.96 565.40L443.71 559.43L444.15 546.05L441.12 543.96L424.81 540.37L422.38 552.42L406.48 557.71L399.71 540.13Z" data-ward="14" /><path id="ward-4" class="ward" d="M728.49 165.40L706.95 145.55L706.55 148.39L707.29 152.64L707.12 158.62L706.73 162.55L706.96 165.69L701.52 165.67L702.04 171.76L702.26 174.35L702.46 176.71L702.69 179.43L703.31 182.86L704.69 187.66L695.96 189.06L696.26 191.91L696.56 194.76L697.56 197.72L698.57 200.69L700.13 206.68L700.98 209.94L701.63 212.41L702.47 215.63L701.20 218.53L700.03 222.18L699.26 224.58L698.66 228.33L698.25 230.91L697.06 237.38L696.36 241.21L694.75 249.96L691.49 250.30L686.90 250.78L682.55 251.24L678.01 251.71L663.73 256.88L658.79 257.65L652.02 258.70L649.63 255.83L646.13 258.45L641.28 258.41L637.63 258.38L635.16 260.14L632.84 261.78L628.29 262.72L623.95 263.61L619.94 264.19L616.95 264.62L613.10 265.18L608.65 265.82L601.79 269.30L593.15 270.47L582.04 271.98L579.96 284.65L579.45 287.73L574.27 289.58L570.31 290.99L565.32 295.77L563.16 304.83L559.88 312.88L558.67 315.83L568.77 318.13L587.40 314.90L645.55 334.38L645.61 346.69L629.49 354.02L629.13 358.93L630.77 362.77L629.51 367.21L628.36 369.45L628.37 372.56L628.38 375.16L633.48 375.89L650.17 373.48L664.50 370.87L670.89 369.81L697.10 365.63L723.12 362.18L725.48 361.87L738.41 361.84L751.62 364.37L767.90 364.80L797.52 370.67L797.82 361.07L798.23 347.84L799.50 306.56L790.52 287.37L778.52 290.13L773.37 276.84L762.93 272.72L761.69 254.78L744.25 205.59L733.69 186.56L727.94 177.40L731.97 175.06L728.49 165.40Z" data-ward="4" /><path id="ward-17" class="ward" d="M190.43 442.98L189.40 439.95L177.89 439.96L167.52 443.43L164.43 442.80L159.31 444.98L147.82 443.90L148.17 456.13L145.38 467.59L138.71 470.99L140.13 475.98L129.08 480.40L120.78 483.56L118.38 484.01L115.15 486.91L116.32 489.81L117.08 497.96L118.31 500.70L118.66 505.52L114.57 506.97L114.77 511.05L109.67 512.98L100.40 513.52L100.38 519.72L69.25 522.63L62.72 520.13L50.53 519.78L48.58 521.13L46.36 522.69L34.57 526.00L18.95 521.23L17.26 526.70L16.35 529.63L14.46 535.77L12.85 539.42L9.70 546.57L3.87 546.15L3.71 548.84L3.53 551.89L3.19 557.82L4.62 562.13L5.88 565.95L7.50 569.54L8.86 572.01L10.18 574.41L11.48 576.76L22.75 579.92L22.55 583.94L22.39 587.22L22.11 592.94L20.48 597.70L19.01 601.98L18.04 604.82L16.02 610.70L14.80 614.24L13.61 617.73L12.39 621.28L11.34 624.35L9.31 630.27L16.71 630.42L83.42 633.02L90.91 629.85L119.31 637.56L118.84 611.40L126.99 607.66L127.73 590.14L133.08 590.76L136.09 592.44L138.67 596.90L151.82 597.56L162.82 596.22L165.67 604.29L170.11 605.98L172.69 612.38L175.17 614.79L187.66 615.08L190.05 616.63L194.23 616.69L196.42 611.68L195.74 603.91L203.08 603.92L200.17 593.50L200.32 586.86L196.48 583.75L199.17 581.33L204.64 579.88L206.10 582.90L208.68 584.74L212.47 587.49L215.26 587.03L216.09 576.20L217.27 570.24L217.86 560.63L201.39 542.96L210.23 534.92L211.47 524.34L201.36 523.78L196.68 524.63L192.24 524.22L181.54 527.39L177.52 515.63L176.79 508.43L188.41 506.66L187.30 501.84L184.60 497.35L180.15 497.40L179.90 493.40L184.04 476.54L189.61 477.41L195.12 491.30L200.34 491.65L215.70 486.90L218.31 483.36L218.07 478.30L215.79 465.68L198.46 465.46L198.31 462.26L198.17 459.05L196.93 454.28L193.97 453.17L190.99 447.52L190.43 442.98Z" data-ward="17" /></svg>