<svg viewBox="0 0 1000.00 1134.89" xmlns="http://www.w3.org/2000/svg"><style>.ward { fill: #e2e8f0; stroke: #fff; stroke-width: 0.5px; } .ward:hover { fill: #cbd5e1; }</style><path id="ward-2" class="ward" d="M303.21 172.70L302.43 168.98L301.68 165.78L299.41 161.44L298.22 155.43L298.76 152.98L300.64 148.47L302.88 144.15L305.16 140.85L308.98 137.20L311.19 134.89L316.55 130.83L319.77 128.70L324.48 125.81L327.15 123.86L330.24 121.61L334.89 118.06L339.32 114.53L344.85 111.42L349.76 108.10L360.57 100.79L364.41 95.60L363.57 92.85L363.02 87.10L356.36 82.84L347.74 77.77L343.40 75.57L337.67 72.66L330.45 69.30L324.95 66.74L316.71 67.93L309.93 68.91L305.24 69.58L292.85 71.12L289.60 71.55L279.20 72.15L267.11 72.84L266.39 76.62L266.89 80.59L266.39 86.84L264.91 95.18L263.87 99.45L262.18 103.16L261.28 108.78L261.28 111.32L260.75 119.41L259.24 129.11L259.12 132.04L258.07 136.61L257.51 139.03L256.80 142.13L256.29 144.32L255.81 146.97L255.09 154.91L256.25 158.06L259.93 161.10L260.71 164.21L263.42 173.64L269.97 173.66L272.95 173.68L277.47 174.41L279.52 180.78L280.17 182.91L280.11 189.08L278.68 191.78L275.50 195.71L271.63 195.79L267.53 196.40L263.84 197.25L259.26 198.26L254.28 199.30L250.10 200.75L247.41 202.02L249.98 208.45L250.40 211.52L250.78 214.37L250.58 217.50L250.25 222.71L249.29 225.80L248.23 229.36L248.09 236.70L249.10 241.05L250.67 244.78L254.01 248.54L254.11 251.56L251.91 250.92L242.71 248.27L239.46 249.08L236.37 249.85L231.58 248.92L227.08 247.99L225.06 249.61L223.26 254.45L223.10 257.88L222.62 261.00L222.24 263.47L221.62 266.81L220.60 272.43L220.29 274.84L219.78 278.87L219.21 283.38L215.08 283.49L211.36 282.14L210.78 288.83L210.71 291.64L210.73 294.45L210.76 297.26L211.07 303.65L212.15 313.85L208.50 316.81L208.90 324.91L205.80 325.91L202.83 326.87L196.10 329.47L196.10 331.96L195.81 337.17L194.42 340.90L193.83 343.87L190.62 345.81L186.18 348.38L183.24 350.07L177.07 353.16L173.57 355.19L170.34 357.30L167.19 360.52L164.63 363.01L158.81 369.72L156.74 372.26L152.98 376.87L148.15 382.79L146.41 385.80L146.04 388.13L145.89 390.67L145.25 393.57L144.41 396.94L143.53 400.27L141.83 404.74L140.22 408.95L139.77 414.35L141.50 416.53L141.33 418.87L139.41 421.26L138.41 424.55L138.95 427.11L141.12 427.29L144.92 425.51L149.46 422.03L151.14 419.92L153.93 416.39L158.13 411.88L159.93 409.93L163.48 410.18L167.13 410.31L170.28 410.16L176.54 407.38L179.74 406.91L182.48 406.28L185.36 406.26L188.51 405.91L191.75 405.65L203.20 402.12L205.74 400.58L212.22 396.77L221.66 393.71L230.63 393.30L239.40 395.08L244.61 389.65L249.18 385.11L254.07 380.74L256.60 379.81L260.27 378.46L263.62 377.21L271.84 376.25L275.71 375.80L279.65 375.34L288.36 374.31L290.57 374.16L294.71 373.95L299.19 373.79L304.02 373.62L307.50 374.49L313.27 372.84L315.60 372.69L322.70 372.23L328.73 372.77L331.71 371.52L334.00 370.55L336.37 369.85L339.46 366.71L340.26 362.40L341.19 359.88L341.70 357.14L342.30 354.56L345.75 351.09L349.58 349.05L351.78 348.04L354.19 347.54L356.21 346.68L358.69 344.67L359.43 342.30L358.48 339.88L357.36 337.05L356.72 334.96L355.27 333.01L353.73 331.11L353.75 328.09L355.42 326.01L357.92 322.41L360.39 318.88L361.82 315.39L361.40 311.53L361.07 308.61L361.05 305.62L363.40 301.02L364.46 298.96L365.72 295.89L368.22 290.57L370.13 287.81L372.16 282.43L367.98 277.69L363.86 274.65L359.31 272.95L354.08 272.39L350.07 272.27L346.75 270.71L346.32 267.97L346.15 264.74L345.97 262.45L338.47 264.53L336.09 264.90L334.34 268.65L330.83 268.39L324.26 267.45L318.83 268.87L315.13 267.21L311.76 265.43L308.73 263.82L306.04 258.76L305.62 255.53L305.04 251.01L307.89 240.31L310.80 232.48L312.56 230.08L316.21 225.08L316.51 220.55L316.90 214.63L310.51 207.20L309.57 203.34L308.21 197.75L310.26 194.62L311.77 192.97L309.91 189.65L308.08 186.74L306.29 183.99L304.26 181.45L302.75 175.20L303.21 172.70Z" data-ward="2" /><path id="ward-6" class="ward" d="M824.78 75.24L814.65 74.56L801.96 73.71L794.44 71.78L790.13 69.87L790.04 69.82L782.61 66.22L779.18 65.48L777.84 64.09L772.36 65.41L748.09 70.02L738.48 73.52L728.78 75.41L722.80 77.04L714.52 78.69L700.69 81.46L693.05 82.99L685.44 84.51L680.02 85.59L674.88 86.62L674.99 91.06L675.24 97.43L677.12 103.44L677.80 105.59L678.39 107.71L679.95 113.31L680.18 117.76L680.38 121.62L680.52 123.97L681.33 133.92L680.33 143.41L679.62 150.20L684.44 151.59L690.67 152.00L690.41 155.17L692.01 163.10L693.98 167.48L694.95 169.54L697.41 174.94L698.67 178.01L701.38 182.78L701.96 184.93L702.26 187.81L695.70 188.03L693.43 188.56L687.41 188.71L689.02 193.82L690.64 199.10L693.14 205.34L690.32 212.19L689.10 214.98L687.93 217.68L686.12 221.01L685.02 223.03L682.47 228.69L680.97 232.99L679.85 236.21L678.54 239.44L677.67 241.58L675.50 245.93L674.05 248.16L672.07 250.85L670.43 252.63L668.54 255.26L668.61 257.73L670.70 260.41L672.20 262.00L672.71 264.37L673.28 267.40L673.89 271.67L676.62 274.96L678.63 278.83L680.62 280.48L683.10 280.00L686.27 284.09L686.82 288.64L688.37 292.93L689.49 296.25L689.69 298.91L689.89 301.57L688.45 307.35L691.48 310.28L693.92 311.97L694.86 314.35L695.64 318.37L696.02 321.47L696.89 325.80L698.44 328.93L704.12 333.77L707.01 335.41L708.75 337.01L708.18 340.02L706.87 344.00L710.97 345.30L714.34 346.88L716.66 346.33L720.50 343.97L723.02 338.00L728.07 335.72L730.18 334.76L736.02 332.80L740.58 326.16L738.93 324.21L738.42 321.76L740.07 307.14L742.76 296.66L747.27 283.41L752.66 270.15L753.11 267.71L753.83 263.75L756.81 251.50L758.58 246.75L757.25 241.79L757.91 239.56L762.12 233.88L764.63 232.90L766.99 231.85L769.42 230.26L771.59 228.83L773.82 227.27L775.35 225.68L777.02 223.94L779.29 221.59L783.51 216.90L786.04 215.40L788.15 214.78L790.18 217.23L796.08 225.13L800.90 233.48L806.68 243.67L810.72 250.25L816.53 257.33L823.10 267.68L827.33 274.25L831.03 280.53L835.72 287.85L837.14 290.08L839.48 289.52L841.99 288.74L847.18 289.53L852.89 290.98L855.27 291.83L857.82 292.50L860.80 293.17L868.98 293.83L868.97 290.85L867.92 284.20L867.12 280.54L864.87 265.51L865.33 261.37L864.99 255.09L863.91 248.04L870.61 247.30L875.30 247.83L877.69 248.06L880.10 248.28L881.87 243.40L884.40 240.96L886.12 239.38L889.64 238.59L891.77 238.16L894.01 237.71L900.73 232.50L904.86 229.76L906.98 228.23L909.95 226.09L914.31 223.79L916.72 222.53L918.63 221.49L921.23 220.10L924.27 218.49L932.53 214.13L937.45 211.55L939.98 210.23L945.99 207.03L943.28 203.81L941.87 198.96L940.64 196.79L939.12 194.12L938.56 189.47L937.20 181.43L933.06 179.78L933.56 176.33L934.84 167.54L931.59 165.42L922.13 161.64L914.25 158.49L911.55 157.41L904.06 154.43L897.60 152.44L895.29 151.73L889.62 149.21L890.99 146.32L892.41 143.33L893.75 140.52L895.11 137.65L897.09 130.97L901.36 122.69L903.02 119.47L904.09 117.39L904.02 114.72L903.94 111.77L903.81 106.78L903.77 103.86L903.73 100.56L903.68 97.50L903.41 93.87L903.20 91.00L902.96 87.83L902.73 84.82L899.96 82.32L895.45 78.26L888.25 73.54L885.93 69.61L880.26 70.67L871.67 73.23L869.26 73.95L867.01 74.62L854.55 75.28L838.33 76.14L824.78 75.24Z" data-ward="6" /><path id="ward-11" class="ward" d="M363.15 372.80L363.69 369.85L364.00 364.60L363.87 360.61L363.41 358.09L362.83 354.88L362.17 351.28L361.41 347.00L358.69 344.67L356.21 346.68L354.19 347.54L351.78 348.04L349.58 349.05L345.75 351.09L342.30 354.56L341.70 357.14L341.19 359.88L340.26 362.40L339.46 366.71L336.37 369.85L334.00 370.55L331.71 371.52L328.73 372.77L322.70 372.23L315.60 372.69L313.27 372.84L307.50 374.49L304.02 373.62L299.19 373.79L294.71 373.95L290.57 374.16L288.36 374.31L279.65 375.34L275.71 375.80L271.84 376.25L263.62 377.21L260.27 378.46L256.60 379.81L254.07 380.74L249.18 385.11L244.61 389.65L239.40 395.08L230.63 393.30L221.66 393.71L212.22 396.77L205.74 400.58L203.20 402.12L191.75 405.65L188.51 405.91L185.36 406.26L182.48 406.28L179.74 406.91L176.54 407.38L170.28 410.16L167.13 410.31L163.48 410.18L159.93 409.93L158.13 411.88L153.93 416.39L151.14 419.92L149.46 422.03L144.92 425.51L141.12 427.29L142.72 430.28L146.05 436.48L148.79 441.60L149.64 444.35L151.65 450.87L153.01 455.27L161.41 457.17L176.81 460.66L180.76 460.56L185.27 460.39L189.65 460.24L201.10 461.11L203.26 461.26L207.33 463.01L210.75 464.48L217.72 467.48L225.49 470.95L237.81 476.46L244.25 480.71L248.65 483.75L251.61 485.99L253.61 487.61L255.56 489.19L259.08 492.04L261.09 493.85L263.97 496.45L265.65 497.97L267.90 500.01L270.61 502.52L280.23 511.97L287.66 518.76L293.47 525.64L295.44 530.00L302.43 536.11L307.42 540.46L309.84 542.49L318.97 550.11L330.13 560.08L335.81 569.30L345.69 576.81L352.79 578.55L361.82 582.78L376.74 586.12L385.86 585.75L395.83 588.87L400.64 589.59L403.48 590.01L407.73 595.20L412.35 600.99L419.12 604.20L424.39 610.75L425.87 614.53L426.78 616.85L427.55 623.81L428.41 626.13L430.37 631.47L432.11 636.98L437.99 643.16L445.12 646.96L450.75 650.21L457.71 655.21L462.14 658.28L468.81 659.20L471.22 657.70L471.55 654.32L472.39 651.80L475.54 643.90L478.18 637.28L479.17 634.82L478.79 629.65L485.12 628.36L488.19 627.21L491.09 625.47L496.25 621.80L501.14 619.58L503.33 618.58L508.49 617.98L509.48 615.44L510.12 613.14L510.77 610.84L509.77 602.08L508.58 596.32L506.19 587.43L500.06 574.37L498.71 571.49L488.75 563.95L484.66 555.86L481.54 550.55L479.57 547.20L475.39 536.40L474.25 525.44L465.99 520.98L462.84 516.82L462.48 510.53L462.38 506.01L465.64 504.66L468.74 502.31L471.83 499.95L476.67 494.19L479.86 489.89L483.05 485.59L483.75 479.85L484.62 477.20L485.87 472.42L487.12 467.64L488.10 459.84L488.44 457.14L489.56 450.88L490.56 446.45L487.84 445.54L484.18 444.31L481.18 443.77L481.07 440.08L481.03 437.58L478.70 435.40L475.42 434.82L469.43 433.38L466.32 431.07L466.18 428.37L465.97 424.58L463.59 421.84L452.52 420.78L448.55 420.53L444.59 420.27L441.69 420.12L435.12 419.66L431.46 419.40L419.93 418.38L411.71 417.17L402.45 416.05L393.32 414.25L385.59 412.51L380.29 410.72L378.20 407.20L376.05 407.01L371.42 406.96L367.86 407.19L364.46 407.38L359.53 407.64L359.33 404.56L359.07 402.20L358.56 399.74L358.32 396.51L358.00 393.22L357.63 390.10L357.73 387.26L358.46 382.54L361.58 380.85L362.39 378.38L362.69 375.42L363.15 372.80Z" data-ward="11" /><path id="ward-4" class="ward" d="M496.51 97.99L491.46 96.10L486.61 94.29L479.75 91.72L474.07 89.54L462.53 85.34L454.79 82.48L461.65 88.32L460.21 96.54L457.28 101.27L456.06 103.35L454.84 105.43L452.81 109.08L447.22 117.62L445.94 119.58L440.39 127.08L436.55 132.44L433.61 136.54L429.78 141.30L428.02 144.48L427.67 149.71L428.41 155.54L426.68 163.04L427.65 168.61L428.14 173.30L428.06 177.08L428.42 179.66L428.78 182.22L428.09 184.73L426.68 187.89L425.01 190.31L422.84 192.49L421.37 194.90L418.50 198.71L417.94 201.36L417.11 204.62L416.32 207.46L416.72 210.48L419.67 211.67L422.64 212.56L424.83 213.30L425.75 215.73L427.85 216.53L429.92 217.71L432.68 219.34L432.55 221.51L431.66 223.91L430.73 226.19L429.72 228.64L428.76 231.16L425.54 234.01L423.99 235.68L422.85 237.64L421.11 241.41L419.99 244.42L419.38 246.69L420.03 249.99L420.27 252.93L421.53 257.37L422.39 259.93L420.70 261.90L418.06 261.83L414.40 261.26L411.74 261.46L407.33 263.41L402.40 264.39L399.53 265.20L396.95 266.21L394.18 268.25L391.71 270.58L390.39 273.10L390.32 276.43L390.14 280.66L387.40 285.39L385.86 286.94L384.00 289.54L382.12 292.15L380.28 295.86L381.96 301.78L386.41 303.04L389.95 302.94L392.98 302.58L401.75 301.01L404.52 300.34L407.99 299.45L410.60 299.97L411.72 302.31L414.27 306.38L416.43 308.17L420.80 310.14L423.62 310.91L427.54 311.98L430.23 308.04L430.45 303.05L431.52 299.95L434.15 295.78L435.35 293.19L434.70 290.53L434.28 286.43L434.62 280.77L435.16 275.53L435.76 271.85L436.70 268.21L437.86 264.65L443.65 265.78L449.70 267.41L453.92 268.43L461.00 271.04L466.86 271.91L471.84 271.51L475.14 273.70L479.40 272.92L484.67 270.15L489.79 272.65L495.58 274.57L501.81 276.87L508.40 277.35L511.77 277.44L515.85 277.49L522.24 277.42L525.35 277.52L528.81 277.61L528.96 282.12L528.83 286.39L529.25 290.94L529.54 293.27L530.61 296.58L532.37 299.86L533.28 303.62L533.76 305.99L534.24 308.36L536.36 311.62L537.19 315.63L537.17 320.00L536.95 322.68L536.57 326.99L536.34 329.41L535.75 334.62L535.40 337.21L534.53 342.49L534.29 346.41L534.41 350.39L537.00 353.98L541.25 354.02L544.68 353.58L548.60 353.64L550.85 353.72L553.04 355.45L556.26 357.67L559.48 356.86L559.67 352.16L557.66 349.95L553.79 348.36L550.11 345.40L547.19 338.71L547.34 333.34L547.11 327.94L546.73 323.57L546.19 317.14L558.25 302.28L559.58 300.16L565.60 290.55L567.20 287.95L568.47 285.80L569.65 282.60L568.31 279.70L566.94 276.13L568.21 273.43L569.23 270.25L567.87 268.55L566.19 266.86L564.29 263.08L565.45 260.56L564.45 258.09L561.89 254.62L560.24 252.46L559.93 249.20L562.08 246.74L561.88 244.24L561.70 236.95L559.46 232.50L559.93 229.68L561.40 227.42L563.91 224.95L569.34 221.33L569.63 218.54L571.14 215.09L573.02 212.29L575.54 210.38L574.56 208.42L574.46 205.74L575.35 203.55L577.68 200.31L579.44 197.84L581.31 195.50L582.53 192.44L583.12 190.30L583.68 187.55L584.25 184.07L584.23 180.85L583.31 176.78L578.92 172.02L575.27 169.39L570.75 165.32L567.54 161.95L564.36 158.10L562.40 154.61L561.11 150.39L562.49 148.58L566.55 143.27L568.93 141.71L572.43 139.41L573.72 137.48L575.25 135.17L575.67 128.86L571.55 117.94L570.73 114.89L568.07 110.09L564.64 108.23L560.97 106.16L556.98 103.75L552.16 95.92L545.67 87.91L538.29 90.62L532.46 92.29L530.13 93.09L521.96 95.55L516.81 96.81L514.00 98.00L504.55 100.99L496.51 97.99Z" data-ward="4" /><path id="ward-5" class="ward" d="M600.46 106.66L597.52 103.56L589.98 99.25L582.51 92.50L580.38 91.23L570.81 80.97L561.97 83.38L557.07 84.72L550.82 86.84L545.67 87.91L552.16 95.92L556.98 103.75L560.97 106.16L564.64 108.23L568.07 110.09L570.73 114.89L571.55 117.94L575.67 128.86L575.25 135.17L573.72 137.48L572.43 139.41L568.93 141.71L566.55 143.27L562.49 148.58L561.11 150.39L562.40 154.61L564.36 158.10L567.54 161.95L570.75 165.32L575.27 169.39L578.92 172.02L583.31 176.78L584.23 180.85L584.25 184.07L583.68 187.55L583.12 190.30L582.53 192.44L581.31 195.50L579.44 197.84L577.68 200.31L575.35 203.55L574.46 205.74L574.56 208.42L575.54 210.38L573.02 212.29L571.14 215.09L569.63 218.54L569.34 221.33L563.91 224.95L561.40 227.42L559.93 229.68L559.46 232.50L561.70 236.95L561.88 244.24L562.08 246.74L559.93 249.20L560.24 252.46L561.89 254.62L564.45 258.09L565.45 260.56L564.29 263.08L566.19 266.86L567.87 268.55L569.23 270.25L568.21 273.43L566.94 276.13L568.31 279.70L569.65 282.60L568.47 285.80L567.20 287.95L570.92 289.56L574.28 291.81L574.97 294.20L577.51 296.33L580.70 295.44L584.14 293.00L586.53 291.71L592.50 293.36L593.49 296.79L594.22 300.07L599.95 301.14L602.54 301.17L605.88 300.66L610.28 300.52L614.25 300.09L619.16 299.28L623.75 297.44L626.95 296.55L631.01 296.33L634.57 294.99L638.91 294.11L641.23 293.95L644.49 293.73L651.36 292.92L657.14 292.62L666.05 288.65L665.97 285.73L665.85 281.02L664.69 278.54L664.28 275.73L666.62 274.55L670.78 273.76L673.89 271.67L673.28 267.40L672.71 264.37L672.20 262.00L670.70 260.41L668.61 257.73L668.54 255.26L670.43 252.63L672.07 250.85L674.05 248.16L675.50 245.93L677.67 241.58L678.54 239.44L679.85 236.21L680.97 232.99L682.47 228.69L685.02 223.03L686.12 221.01L687.93 217.68L689.10 214.98L690.32 212.19L693.14 205.34L690.64 199.10L689.02 193.82L687.41 188.71L693.43 188.56L695.70 188.03L702.26 187.81L701.96 184.93L701.38 182.78L698.67 178.01L697.41 174.94L694.95 169.54L693.98 167.48L692.01 163.10L690.41 155.17L690.67 152.00L684.44 151.59L679.62 150.20L680.33 143.41L681.33 133.92L680.52 123.97L680.38 121.62L680.18 117.76L679.95 113.31L678.39 107.71L677.80 105.59L677.12 103.44L675.24 97.43L674.99 91.06L674.88 86.62L668.18 89.72L658.32 94.28L654.43 96.08L646.14 101.93L643.86 103.54L633.36 108.31L633.02 105.46L632.40 100.14L628.84 102.92L626.24 104.53L623.37 106.31L617.85 109.71L615.54 110.47L611.95 111.64L608.99 112.61L606.77 113.33L600.46 106.66Z" data-ward="5" /><path id="ward-10" class="ward" d="M381.96 301.78L380.28 295.86L374.74 293.89L371.91 292.31L368.22 290.57L365.72 295.89L364.46 298.96L363.40 301.02L361.05 305.62L361.07 308.61L361.40 311.53L361.82 315.39L360.39 318.88L357.92 322.41L355.42 326.01L353.75 328.09L353.73 331.11L355.27 333.01L356.72 334.96L357.36 337.05L358.48 339.88L359.43 342.30L358.69 344.67L361.41 347.00L362.17 351.28L362.83 354.88L363.41 358.09L363.87 360.61L364.00 364.60L363.69 369.85L363.15 372.80L362.69 375.42L362.39 378.38L361.58 380.85L358.46 382.54L357.73 387.26L357.63 390.10L358.00 393.22L358.32 396.51L358.56 399.74L359.07 402.20L359.33 404.56L359.53 407.64L364.46 407.38L367.86 407.19L371.42 406.96L376.05 407.01L378.20 407.20L380.29 410.72L385.59 412.51L393.32 414.25L402.45 416.05L411.71 417.17L419.93 418.38L431.46 419.40L435.12 419.66L441.69 420.12L444.59 420.27L448.55 420.53L452.52 420.78L463.59 421.84L465.97 424.58L466.18 428.37L466.32 431.07L469.43 433.38L475.42 434.82L478.70 435.40L481.03 437.58L481.07 440.08L481.18 443.77L484.18 444.31L487.84 445.54L490.56 446.45L491.29 443.31L491.67 440.27L492.35 434.83L493.69 428.50L495.64 425.10L497.72 423.82L500.85 421.41L504.34 421.58L506.83 421.92L510.66 419.31L512.08 417.46L513.51 415.39L514.63 413.35L516.43 410.09L516.77 407.73L517.35 403.70L517.00 398.98L517.83 393.52L518.45 389.29L518.55 386.35L519.12 381.76L519.79 377.24L520.67 372.94L517.09 373.63L513.52 374.45L511.39 375.02L508.85 375.72L505.85 377.19L502.49 378.47L498.47 380.57L495.11 382.50L492.09 383.13L488.07 384.43L484.46 384.94L480.93 384.74L478.51 383.73L479.61 381.23L480.88 377.99L483.13 376.12L486.31 374.20L487.68 372.46L489.61 368.53L490.92 366.19L489.55 362.60L488.92 359.54L487.78 354.72L488.18 352.39L488.57 349.56L486.25 346.27L483.12 344.10L478.75 341.06L473.74 338.06L471.44 336.44L468.60 334.47L465.07 332.85L461.16 331.41L458.60 330.55L456.51 329.27L455.46 324.94L453.25 320.85L451.74 318.79L450.44 316.98L448.74 314.82L446.51 313.73L443.18 312.21L440.16 310.99L437.87 309.89L434.40 308.82L430.23 308.04L427.54 311.98L423.62 310.91L420.80 310.14L416.43 308.17L414.27 306.38L411.72 302.31L410.60 299.97L407.99 299.45L404.52 300.34L401.75 301.01L392.98 302.58L389.95 302.94L386.41 303.04L381.96 301.78Z" data-ward="10" /><path id="ward-15" class="ward" d="M285.08 768.94L284.71 765.06L284.14 761.00L283.90 758.50L283.32 755.17L283.72 752.67L285.94 750.73L287.91 749.56L289.73 747.98L290.66 744.95L291.27 741.75L291.92 738.38L292.82 735.13L293.55 730.55L292.18 727.93L287.07 725.36L281.79 722.39L278.03 720.70L276.74 729.65L267.60 748.95L253.99 771.36L237.09 780.77L217.91 777.15L197.13 769.54L177.84 760.39L162.00 748.66L151.61 737.28L146.62 732.81L141.69 739.61L139.34 741.06L137.01 742.50L130.10 746.77L128.22 747.92L124.67 750.15L112.29 757.08L101.11 771.57L92.45 790.27L112.17 806.12L122.65 814.62L133.16 822.82L140.75 827.25L152.27 837.25L159.66 842.77L169.77 856.48L194.11 889.48L197.40 893.95L199.42 900.01L199.79 902.70L199.79 904.03L198.10 917.60L197.42 920.77L194.05 931.95L193.94 932.65L195.39 939.12L196.80 945.04L192.16 973.76L192.01 974.53L187.88 992.54L184.06 995.89L186.90 1000.41L185.54 1004.22L183.26 1010.57L181.83 1014.58L180.33 1018.74L182.69 1018.78L188.19 1018.88L194.03 1018.36L204.56 1017.94L208.77 1021.94L213.50 1026.42L220.99 1034.24L226.61 1046.92L226.47 1056.61L226.24 1066.59L225.45 1070.38L224.67 1074.10L223.71 1077.97L222.74 1081.85L221.71 1085.98L220.78 1090.64L219.99 1094.98L219.08 1100.04L218.33 1106.59L218.07 1108.88L219.75 1113.98L222.04 1116.31L224.49 1118.81L225.37 1121.71L226.23 1124.60L226.86 1126.70L228.89 1130.94L230.76 1134.89L236.01 1133.17L246.35 1129.79L251.28 1127.87L253.75 1126.91L258.67 1124.99L261.13 1124.03L264.52 1120.94L268.46 1117.34L273.70 1110.75L274.42 1107.79L276.71 1098.43L278.25 1092.12L280.33 1083.63L281.01 1080.03L282.66 1071.41L284.04 1062.10L284.86 1056.61L285.60 1054.14L286.10 1044.94L286.39 1039.64L286.70 1033.82L286.99 1029.73L287.60 1019.97L288.24 1009.90L288.29 1004.40L288.34 1000.09L287.20 987.86L287.67 982.56L287.91 979.78L288.36 974.67L288.82 969.50L288.04 966.35L289.43 964.29L291.55 961.14L294.12 957.32L296.54 953.75L298.15 951.35L300.08 950.20L302.57 948.72L305.24 947.12L308.28 945.31L311.94 943.12L314.81 941.40L318.46 939.22L320.79 937.83L323.36 936.29L326.76 934.26L330.89 932.60L333.32 931.63L337.22 930.06L341.00 928.07L344.85 926.04L341.02 919.06L334.72 907.94L329.11 896.52L324.24 886.27L318.58 880.02L314.68 875.51L309.04 869.45L303.41 863.39L298.19 857.62L293.93 853.17L289.68 848.72L285.75 845.14L281.11 841.67L281.55 836.62L280.69 832.87L279.44 827.37L280.00 820.82L278.07 815.98L279.13 806.94L278.74 802.39L276.00 799.23L273.57 797.07L271.35 794.79L268.81 792.44L268.17 789.32L266.95 786.72L265.42 783.86L267.26 781.29L268.49 778.98L270.32 776.24L271.61 773.74L272.17 771.61L274.72 770.30L277.95 771.12L280.27 771.67L283.35 770.78L285.08 768.94Z" data-ward="15" /><path id="ward-1" class="ward" d="M208.16 11.14L197.35 5.00L189.92 2.35L173.77 0.00L168.67 3.44L161.52 8.28L148.20 17.94L141.54 22.84L134.98 28.51L125.11 37.15L123.64 42.76L121.79 49.80L116.02 66.02L109.45 84.49L111.81 88.36L116.03 95.26L120.80 100.76L122.77 103.88L128.59 113.42L128.51 125.08L127.72 127.15L123.09 141.28L119.59 147.77L115.60 155.38L104.95 171.97L103.49 174.36L97.87 187.26L95.99 189.19L93.07 200.09L92.16 203.49L90.79 211.56L89.86 218.23L91.84 221.82L94.19 226.07L100.43 225.88L100.35 228.13L110.15 230.53L112.03 234.20L114.41 245.54L114.51 245.92L115.13 247.95L117.29 250.29L120.95 254.24L126.58 258.91L123.58 264.30L121.09 268.76L118.36 273.64L104.40 290.73L102.80 292.99L106.29 294.93L108.37 296.10L112.52 298.38L115.18 299.51L119.04 301.14L121.36 302.12L125.47 303.86L129.13 305.41L132.13 306.68L138.75 309.64L145.63 312.73L148.61 314.11L153.04 316.15L158.04 318.46L161.12 320.16L163.79 322.32L167.37 325.22L172.73 329.55L174.25 331.81L176.88 335.72L176.31 341.38L175.83 346.15L175.93 349.86L177.07 353.16L183.24 350.07L186.18 348.38L190.62 345.81L193.83 343.87L194.42 340.90L195.81 337.17L196.10 331.96L196.10 329.47L202.83 326.87L205.80 325.91L208.90 324.91L208.50 316.81L212.15 313.85L211.07 303.65L210.76 297.26L210.73 294.45L210.71 291.64L210.78 288.83L211.36 282.14L215.08 283.49L219.21 283.38L219.78 278.87L220.29 274.84L220.60 272.43L221.62 266.81L222.24 263.47L222.62 261.00L223.10 257.88L223.26 254.45L225.06 249.61L227.08 247.99L231.58 248.92L236.37 249.85L239.46 249.08L242.71 248.27L251.91 250.92L254.11 251.56L254.01 248.54L250.67 244.78L249.10 241.05L248.09 236.70L248.23 229.36L249.29 225.80L250.25 222.71L250.58 217.50L250.78 214.37L250.40 211.52L249.98 208.45L247.41 202.02L250.10 200.75L254.28 199.30L259.26 198.26L263.84 197.25L267.53 196.40L271.63 195.79L275.50 195.71L278.68 191.78L280.11 189.08L280.17 182.91L279.52 180.78L277.47 174.41L272.95 173.68L269.97 173.66L263.42 173.64L260.71 164.21L259.93 161.10L256.25 158.06L255.09 154.91L255.81 146.97L256.29 144.32L256.80 142.13L257.51 139.03L258.07 136.61L259.12 132.04L259.24 129.11L260.75 119.41L261.28 111.32L261.28 108.78L262.18 103.16L263.87 99.45L264.91 95.18L266.39 86.84L266.89 80.59L266.39 76.62L267.11 72.84L261.04 73.19L258.53 70.64L256.76 67.09L250.83 55.20L244.29 42.42L243.28 40.12L241.02 32.45L238.78 25.39L236.13 18.52L233.16 14.09L229.29 9.49L225.39 10.86L214.47 14.72L208.16 11.14Z" data-ward="1" /><path id="ward-7" class="ward" d="M970.01 245.58L964.95 239.64L962.90 235.39L959.51 228.36L958.84 222.49L965.14 220.50L964.93 217.51L950.35 209.44L945.99 207.03L939.98 210.23L937.45 211.55L932.53 214.13L924.27 218.49L921.23 220.10L918.63 221.49L916.72 222.53L914.31 223.79L909.95 226.09L906.98 228.23L904.86 229.76L900.73 232.50L894.01 237.71L891.77 238.16L889.64 238.59L886.12 239.38L884.40 240.96L881.87 243.40L880.10 248.28L877.69 248.06L875.30 247.83L870.61 247.30L863.91 248.04L864.99 255.09L865.33 261.37L864.87 265.51L867.12 280.54L867.92 284.20L868.97 290.85L868.98 293.83L860.80 293.17L857.82 292.50L855.27 291.83L852.89 290.98L847.18 289.53L841.99 288.74L839.48 289.52L837.14 290.08L835.72 287.85L831.03 280.53L827.33 274.25L823.10 267.68L816.53 257.33L810.72 250.25L806.68 243.67L800.90 233.48L796.08 225.13L790.18 217.23L788.15 214.78L786.04 215.40L783.51 216.90L779.29 221.59L777.02 223.94L775.35 225.68L773.82 227.27L771.59 228.83L769.42 230.26L766.99 231.85L764.63 232.90L762.12 233.88L757.91 239.56L757.25 241.79L758.58 246.75L756.81 251.50L753.83 263.75L753.11 267.71L752.66 270.15L747.27 283.41L742.76 296.66L740.07 307.14L738.42 321.76L738.93 324.21L740.58 326.16L736.02 332.80L730.18 334.76L728.07 335.72L723.02 338.00L720.50 343.97L716.66 346.33L714.34 346.88L710.97 345.30L706.87 344.00L704.67 349.36L703.63 353.00L702.71 355.16L700.13 355.59L697.34 355.27L694.23 355.55L692.01 356.67L689.97 358.43L689.72 361.39L688.94 364.42L687.85 367.19L685.50 368.89L683.06 369.28L675.10 370.26L669.73 369.46L666.06 368.73L659.44 369.40L657.38 370.14L654.53 371.17L654.95 375.33L655.48 380.47L658.11 380.25L660.39 380.06L666.90 379.68L671.11 379.64L674.31 379.66L674.96 382.64L676.37 390.23L676.67 395.38L678.62 399.21L681.62 402.69L686.15 409.35L689.18 412.29L691.24 416.09L692.28 418.17L696.36 418.68L696.14 427.27L695.90 430.99L694.97 440.82L694.89 443.00L694.80 447.90L695.18 455.89L699.56 458.42L703.92 461.10L706.77 463.52L709.77 463.81L713.30 464.14L719.00 464.38L724.77 464.00L727.40 463.81L732.72 463.92L740.71 463.53L744.43 462.52L748.21 462.93L748.64 465.84L750.01 468.10L752.40 471.84L753.01 474.34L753.64 479.40L756.66 481.45L757.27 484.68L757.19 487.13L756.99 491.53L756.81 496.00L760.40 496.49L766.47 499.93L771.09 503.40L772.03 501.11L772.84 498.46L773.45 495.08L772.87 490.95L777.37 490.75L780.23 491.16L780.38 487.44L780.85 483.44L780.43 481.10L778.11 478.77L778.67 475.04L775.39 473.75L775.28 470.60L774.81 467.32L773.47 464.67L771.49 462.44L769.52 460.22L770.39 455.19L772.02 450.25L780.60 448.12L783.96 447.26L795.07 444.84L799.29 441.97L800.16 438.64L805.17 436.00L812.00 439.68L816.38 446.99L821.11 447.98L823.59 447.02L826.33 446.33L831.57 444.67L832.60 441.24L836.77 441.12L842.73 441.29L844.75 442.52L851.94 446.90L856.77 452.34L861.60 459.47L864.11 463.83L870.15 467.61L875.71 470.33L881.72 475.94L884.84 485.32L885.87 489.32L886.75 491.61L887.99 494.81L894.54 495.62L894.56 490.30L896.22 487.02L898.00 483.32L900.52 478.08L905.51 479.19L906.92 478.39L907.77 472.69L907.65 469.74L907.41 463.45L906.83 458.60L909.15 451.65L911.00 448.59L911.89 446.14L912.27 443.57L915.17 437.89L920.04 437.31L923.05 432.64L924.66 430.16L928.34 429.11L931.78 428.62L934.70 428.21L937.20 427.86L939.87 427.48L943.72 426.93L947.44 424.38L950.80 421.50L954.33 417.49L952.38 415.00L952.13 412.63L951.88 410.25L951.12 405.64L950.34 400.85L949.65 396.65L947.37 395.93L945.04 395.20L942.05 392.04L944.00 384.82L946.38 380.76L949.19 375.96L949.92 372.73L950.65 369.51L949.68 367.42L949.03 363.80L951.48 361.86L953.63 362.63L954.73 365.94L955.17 368.81L961.69 370.84L963.16 369.24L965.56 368.29L968.83 366.75L971.47 365.91L976.73 364.23L979.26 362.36L981.34 360.84L986.41 357.12L988.28 355.74L987.57 352.67L986.90 349.80L986.25 347.02L985.00 341.68L986.29 337.88L987.46 335.52L989.44 331.52L991.58 327.17L990.80 323.29L990.44 319.59L992.60 317.10L994.20 315.28L996.46 312.68L1000.00 308.62L994.22 309.23L987.25 309.95L981.75 310.53L969.69 318.78L957.38 325.95L951.21 329.72L947.57 331.94L944.84 333.04L943.37 325.76L944.09 323.18L944.99 319.92L948.90 307.08L953.17 296.45L953.01 291.16L952.89 287.26L954.28 283.13L955.07 272.86L955.25 270.58L953.79 263.16L955.74 257.54L964.29 254.06L970.36 253.44L970.01 245.58Z" data-ward="7" /><path id="ward-14" class="ward" d="M401.31 695.12L385.72 688.00L379.21 684.81L369.80 682.66L362.66 680.50L359.75 679.26L358.43 685.51L357.69 691.48L356.97 695.63L357.17 698.72L354.95 698.33L350.49 698.88L348.45 700.25L346.95 704.26L341.87 707.90L338.92 708.82L336.54 710.00L334.17 712.20L331.94 715.73L329.56 718.38L327.85 720.99L326.32 723.84L324.75 726.59L323.81 729.08L322.91 731.27L325.19 732.54L328.18 734.16L332.55 736.42L335.89 738.07L339.21 739.67L342.32 740.86L345.30 741.74L348.24 742.19L351.48 740.21L353.58 742.29L352.93 745.05L352.46 747.87L351.73 750.08L351.62 754.41L351.55 757.49L350.55 761.93L347.80 767.31L340.10 766.25L334.30 764.36L330.19 761.51L325.22 758.27L317.89 753.30L313.54 750.88L309.17 746.94L304.63 742.27L299.11 736.68L293.55 730.55L292.82 735.13L291.92 738.38L291.27 741.75L290.66 744.95L289.73 747.98L287.91 749.56L285.94 750.73L283.72 752.67L283.32 755.17L283.90 758.50L284.14 761.00L284.71 765.06L285.08 768.94L283.35 770.78L280.27 771.67L277.95 771.12L274.72 770.30L272.17 771.61L271.61 773.74L270.32 776.24L268.49 778.98L267.26 781.29L265.42 783.86L266.95 786.72L268.17 789.32L268.81 792.44L271.35 794.79L273.57 797.07L276.00 799.23L278.74 802.39L279.13 806.94L278.07 815.98L280.00 820.82L279.44 827.37L280.69 832.87L281.55 836.62L281.11 841.67L285.75 845.14L289.68 848.72L293.93 853.17L298.19 857.62L303.41 863.39L309.04 869.45L314.68 875.51L318.58 880.02L324.24 886.27L329.11 896.52L334.72 907.94L341.02 919.06L344.85 926.04L346.95 925.35L350.35 924.22L354.91 922.68L357.53 921.79L366.74 921.25L368.93 921.12L375.57 921.53L379.65 922.43L387.78 924.05L394.12 926.11L399.21 927.77L412.13 931.92L416.01 932.23L418.27 932.41L422.60 932.75L425.04 932.94L428.18 933.19L431.47 933.34L440.15 933.74L450.63 930.34L454.11 929.21L459.86 927.46L470.31 924.28L481.71 919.53L486.41 917.90L491.65 913.46L496.05 910.34L502.80 905.55L505.50 901.11L509.81 894.00L511.09 886.59L512.41 877.93L513.55 871.46L514.47 865.96L516.64 853.01L517.53 850.93L523.46 841.21L520.97 839.85L517.97 838.46L510.97 835.64L505.79 834.64L500.70 834.12L495.22 835.04L490.68 832.55L486.01 828.56L483.28 826.54L479.20 823.85L474.12 821.20L468.48 818.90L462.92 817.84L455.94 818.76L455.43 812.72L454.59 809.23L455.55 806.08L456.28 803.69L450.85 802.60L447.87 801.91L444.75 799.25L446.21 795.88L448.82 790.56L448.42 785.24L448.55 779.34L449.20 776.48L447.91 772.41L446.69 769.02L448.22 761.75L451.02 753.90L454.35 739.43L458.72 729.67L461.86 722.99L455.18 719.51L444.22 714.26L434.24 711.15L416.87 703.63L401.31 695.12Z" data-ward="14" /><path id="ward-12" class="ward" d="M361.82 582.78L352.79 578.55L345.69 576.81L335.81 569.30L330.13 560.08L318.97 550.11L309.84 542.49L307.42 540.46L302.43 536.11L295.44 530.00L293.47 525.64L287.66 518.76L280.23 511.97L275.36 514.87L272.73 520.13L271.13 523.30L269.53 526.47L268.14 530.05L267.06 532.84L265.48 536.88L263.22 543.32L261.35 548.65L260.72 550.78L258.47 558.50L258.81 566.10L261.47 569.48L264.60 572.50L266.86 574.68L271.42 579.89L274.23 583.11L276.66 586.05L280.24 589.55L282.77 592.36L285.29 595.17L287.61 596.75L289.93 598.32L292.20 601.01L295.92 603.56L299.64 606.11L301.58 607.84L303.73 609.75L305.26 612.88L306.80 616.01L308.00 619.34L308.67 621.69L309.60 624.77L309.44 628.24L309.27 631.69L307.36 635.15L305.58 638.47L304.39 640.70L300.18 648.29L292.52 653.67L289.10 656.07L281.91 662.15L279.78 663.95L272.28 672.33L264.67 681.20L263.17 682.94L260.15 686.69L258.00 690.63L256.93 692.60L254.92 696.29L252.89 701.27L252.37 705.73L255.15 706.59L257.95 707.22L260.14 707.88L263.30 709.32L266.10 710.68L268.96 711.96L272.21 713.91L273.93 715.74L275.92 719.27L278.03 720.70L281.79 722.39L287.07 725.36L292.18 727.93L293.55 730.55L299.11 736.68L304.63 742.27L309.17 746.94L313.54 750.88L317.89 753.30L325.22 758.27L330.19 761.51L334.30 764.36L340.10 766.25L347.80 767.31L350.55 761.93L351.55 757.49L351.62 754.41L351.73 750.08L352.46 747.87L352.93 745.05L353.58 742.29L351.48 740.21L348.24 742.19L345.30 741.74L342.32 740.86L339.21 739.67L335.89 738.07L332.55 736.42L328.18 734.16L325.19 732.54L322.91 731.27L323.81 729.08L324.75 726.59L326.32 723.84L327.85 720.99L329.56 718.38L331.94 715.73L334.17 712.20L336.54 710.00L338.92 708.82L341.87 707.90L346.95 704.26L348.45 700.25L350.49 698.88L354.95 698.33L357.17 698.72L356.97 695.63L357.69 691.48L358.43 685.51L359.75 679.26L362.66 680.50L369.80 682.66L379.21 684.81L385.72 688.00L401.31 695.12L416.87 703.63L434.24 711.15L444.22 714.26L455.18 719.51L461.86 722.99L464.91 724.58L473.83 727.22L481.81 728.90L486.74 732.72L493.52 740.38L494.23 737.37L496.59 729.22L513.25 722.02L516.06 724.17L520.01 725.84L520.90 723.57L522.30 721.86L524.69 719.37L526.75 720.82L530.88 723.96L531.43 726.73L534.47 729.47L536.76 732.13L535.57 734.42L536.90 736.54L540.26 738.47L543.53 738.76L545.62 735.13L547.47 732.40L549.97 730.82L553.36 731.20L556.31 732.88L559.27 734.06L562.62 734.17L562.98 727.29L557.88 721.47L552.76 717.41L547.64 713.35L543.01 710.97L536.62 705.63L528.65 701.59L523.94 701.16L517.21 701.77L515.25 699.77L513.66 697.38L511.79 694.60L508.15 689.96L503.36 684.50L498.69 680.69L495.43 675.97L495.22 672.20L495.91 669.59L498.35 666.49L496.91 664.25L494.38 660.30L492.04 656.86L490.06 652.03L488.49 648.30L485.96 643.83L483.76 638.39L486.72 634.48L488.19 627.21L485.12 628.36L478.79 629.65L479.17 634.82L478.18 637.28L475.54 643.90L472.39 651.80L471.55 654.32L471.22 657.70L468.81 659.20L462.14 658.28L457.71 655.21L450.75 650.21L445.12 646.96L437.99 643.16L432.11 636.98L430.37 631.47L428.41 626.13L427.55 623.81L426.78 616.85L425.87 614.53L424.39 610.75L419.12 604.20L412.35 600.99L407.73 595.20L403.48 590.01L400.64 589.59L395.83 588.87L385.86 585.75L376.74 586.12L361.82 582.78Z" data-ward="12" /><path id="ward-17" class="ward" d="M161.41 457.17L153.01 455.27L151.65 450.87L149.64 444.35L148.79 441.60L146.05 436.48L142.72 430.28L141.12 427.29L138.95 427.11L137.67 429.57L135.08 434.55L130.90 442.58L127.15 447.35L125.63 449.96L122.90 453.94L122.03 456.81L121.18 459.45L120.48 463.09L119.83 466.11L120.12 470.33L123.37 473.11L126.96 476.17L130.83 478.60L134.21 480.69L133.68 484.20L132.65 487.76L130.39 490.56L125.74 491.19L122.01 491.70L118.74 492.14L114.66 492.70L111.30 493.16L109.66 496.32L108.26 499.05L107.10 501.30L106.08 503.27L104.97 505.18L101.51 507.25L98.18 506.86L95.08 506.50L89.06 503.78L86.46 502.76L84.19 501.82L80.82 500.24L77.57 498.72L74.35 497.41L71.64 496.31L67.85 494.77L67.24 497.70L67.62 501.77L71.74 504.02L73.73 505.35L75.68 506.67L78.71 508.64L76.45 513.34L74.47 517.45L73.25 519.99L69.99 519.51L67.82 519.18L65.58 518.85L64.12 521.82L63.80 524.59L62.80 528.76L60.51 528.28L57.44 529.21L55.24 529.88L53.28 532.83L51.96 535.57L50.15 538.54L42.54 540.57L40.14 540.14L36.71 539.54L32.86 538.96L30.37 538.71L25.67 538.23L24.19 540.25L21.78 543.55L18.95 548.30L18.80 551.09L19.24 554.12L20.09 559.98L19.59 562.64L18.86 566.57L16.76 569.22L15.04 571.39L11.85 573.56L9.36 575.24L7.44 576.30L4.88 576.28L5.53 580.19L6.67 587.08L7.41 591.51L8.10 595.05L8.85 598.84L9.59 602.64L10.60 607.80L11.14 610.50L11.87 615.01L12.43 618.45L13.24 623.42L13.89 627.46L14.48 631.08L14.97 634.04L15.07 637.48L15.15 640.41L15.24 643.32L15.30 645.65L15.39 648.52L14.86 651.35L14.06 655.59L13.25 659.93L12.73 662.69L12.27 665.13L11.80 667.66L11.35 670.06L10.33 672.56L8.63 677.21L5.66 685.31L4.44 688.64L13.32 690.76L17.20 692.32L31.68 698.14L33.34 700.55L36.30 704.85L35.36 709.63L34.85 712.18L39.38 719.31L33.74 730.08L34.11 732.12L36.98 735.26L39.24 737.71L43.12 741.94L48.18 746.15L51.26 748.71L56.49 753.06L57.30 757.83L58.12 762.67L68.21 772.94L85.85 784.96L92.45 790.27L101.11 771.57L112.29 757.08L124.67 750.15L128.22 747.92L130.10 746.77L137.01 742.50L139.34 741.06L141.69 739.61L146.62 732.81L146.06 728.87L145.67 725.35L145.40 722.87L145.09 720.10L144.37 715.03L141.13 714.20L137.89 713.37L135.30 713.18L130.17 713.28L125.70 713.46L116.20 713.26L108.23 708.96L101.80 705.50L99.34 703.68L96.67 701.70L94.72 700.26L91.94 698.13L89.99 696.65L87.52 694.84L85.34 692.52L83.95 690.61L82.75 688.16L81.27 685.13L80.16 682.85L79.17 677.56L83.99 676.31L86.21 677.96L89.38 680.34L92.13 682.40L94.73 684.94L97.51 687.57L103.00 692.78L105.20 694.68L110.70 699.13L113.04 700.36L115.17 699.40L120.36 696.91L125.08 694.64L128.90 697.27L132.34 692.73L127.47 689.44L122.60 686.16L124.08 682.42L125.31 679.33L126.87 675.41L128.39 671.60L127.95 667.55L126.91 657.98L130.24 657.62L134.12 657.20L137.17 656.87L138.53 653.48L138.47 649.96L137.95 646.23L137.59 642.78L135.12 641.42L132.91 639.32L131.06 637.55L128.63 635.20L126.20 632.85L124.49 629.83L122.70 626.63L120.79 623.21L121.15 619.32L121.43 616.37L122.00 610.30L122.21 608.01L122.42 605.82L122.75 602.76L123.08 599.66L123.86 592.36L127.19 592.04L131.16 591.66L134.66 591.76L137.03 591.81L139.90 591.87L142.77 591.94L146.32 592.31L149.37 589.51L152.41 586.70L153.67 583.48L155.07 578.29L155.38 575.18L155.71 571.86L158.67 567.92L160.12 565.99L162.17 563.26L161.73 560.04L161.22 556.16L158.91 551.51L157.40 548.48L156.12 545.71L154.28 542.79L153.98 539.05L157.67 539.75L160.82 541.13L162.97 543.08L165.18 543.05L165.88 539.49L165.81 535.47L165.77 532.91L165.59 529.14L165.31 526.66L166.03 524.29L166.66 520.54L166.78 516.25L166.51 511.72L165.67 507.21L164.84 504.09L164.03 500.44L166.87 496.93L167.56 493.44L166.40 490.81L166.96 488.59L167.52 486.37L169.36 484.18L171.90 481.16L172.90 479.20L174.80 475.47L176.71 471.71L177.36 468.83L177.93 466.59L178.99 464.17L180.76 460.56L176.81 460.66L161.41 457.17Z" data-ward="17" /><path id="ward-16" class="ward" d="M263.22 543.32L265.48 536.88L267.06 532.84L268.14 530.05L269.53 526.47L271.13 523.30L272.73 520.13L275.36 514.87L280.23 511.97L270.61 502.52L267.90 500.01L265.65 497.97L263.97 496.45L261.09 493.85L259.08 492.04L255.56 489.19L253.61 487.61L251.61 485.99L248.65 483.75L244.25 480.71L237.81 476.46L225.49 470.95L217.72 467.48L210.75 464.48L207.33 463.01L203.26 461.26L201.10 461.11L189.65 460.24L185.27 460.39L180.76 460.56L178.99 464.17L177.93 466.59L177.36 468.83L176.71 471.71L174.80 475.47L172.90 479.20L171.90 481.16L169.36 484.18L167.52 486.37L166.96 488.59L166.40 490.81L167.56 493.44L166.87 496.93L164.03 500.44L164.84 504.09L165.67 507.21L166.51 511.72L166.78 516.25L166.66 520.54L166.03 524.29L165.31 526.66L165.59 529.14L165.77 532.91L165.81 535.47L165.88 539.49L165.18 543.05L162.97 543.08L160.82 541.13L157.67 539.75L153.98 539.05L154.28 542.79L156.12 545.71L157.40 548.48L158.91 551.51L161.22 556.16L161.73 560.04L162.17 563.26L160.12 565.99L158.67 567.92L155.71 571.86L155.38 575.18L155.07 578.29L153.67 583.48L152.41 586.70L149.37 589.51L146.32 592.31L142.77 591.94L139.90 591.87L137.03 591.81L134.66 591.76L131.16 591.66L127.19 592.04L123.86 592.36L123.08 599.66L122.75 602.76L122.42 605.82L122.21 608.01L122.00 610.30L121.43 616.37L121.15 619.32L120.79 623.21L122.70 626.63L124.49 629.83L126.20 632.85L128.63 635.20L131.06 637.55L132.91 639.32L135.12 641.42L137.59 642.78L137.95 646.23L138.47 649.96L138.53 653.48L137.17 656.87L134.12 657.20L130.24 657.62L126.91 657.98L127.95 667.55L128.39 671.60L126.87 675.41L125.31 679.33L124.08 682.42L122.60 686.16L127.47 689.44L132.34 692.73L128.90 697.27L125.08 694.64L120.36 696.91L115.17 699.40L113.04 700.36L110.70 699.13L105.20 694.68L103.00 692.78L97.51 687.57L94.73 684.94L92.13 682.40L89.38 680.34L86.21 677.96L83.99 676.31L79.17 677.56L80.16 682.85L81.27 685.13L82.75 688.16L83.95 690.61L85.34 692.52L87.52 694.84L89.99 696.65L91.94 698.13L94.72 700.26L96.67 701.70L99.34 703.68L101.80 705.50L108.23 708.96L116.20 713.26L125.70 713.46L130.17 713.28L135.30 713.18L137.89 713.37L141.13 714.20L144.37 715.03L145.09 720.10L145.40 722.87L145.67 725.35L146.06 728.87L146.62 732.81L151.61 737.28L162.00 748.66L177.84 760.39L197.13 769.54L217.91 777.15L237.09 780.77L253.99 771.36L267.60 748.95L276.74 729.65L278.03 720.70L275.92 719.27L273.93 715.74L272.21 713.91L268.96 711.96L266.10 710.68L263.30 709.32L260.14 707.88L257.95 707.22L255.15 706.59L252.37 705.73L252.89 701.27L254.92 696.29L256.93 692.60L258.00 690.63L260.15 686.69L263.17 682.94L264.67 681.20L272.28 672.33L279.78 663.95L281.91 662.15L289.10 656.07L292.52 653.67L300.18 648.29L304.39 640.70L305.58 638.47L307.36 635.15L309.27 631.69L309.44 628.24L309.60 624.77L308.67 621.69L308.00 619.34L306.80 616.01L305.26 612.88L303.73 609.75L301.58 607.84L299.64 606.11L295.92 603.56L292.20 601.01L289.93 598.32L287.61 596.75L285.29 595.17L282.77 592.36L280.24 589.55L276.66 586.05L274.23 583.11L271.42 579.89L266.86 574.68L264.60 572.50L261.47 569.48L258.81 566.10L258.47 558.50L260.72 550.78L261.35 548.65L263.22 543.32Z" data-ward="16" /><path id="ward-3" class="ward" d="M461.65 88.32L454.79 82.48L449.60 83.45L444.20 84.47L438.41 85.55L432.16 86.72L424.00 88.52L418.23 88.51L415.53 86.13L406.56 89.25L404.10 90.93L400.69 93.27L397.95 93.98L389.49 96.16L385.88 95.35L380.68 94.18L378.05 93.59L370.66 91.18L368.29 89.91L363.02 87.10L363.57 92.85L364.41 95.60L360.57 100.79L349.76 108.10L344.85 111.42L339.32 114.53L334.89 118.06L330.24 121.61L327.15 123.86L324.48 125.81L319.77 128.70L316.55 130.83L311.19 134.89L308.98 137.20L305.16 140.85L302.88 144.15L300.64 148.47L298.76 152.98L298.22 155.43L299.41 161.44L301.68 165.78L302.43 168.98L303.21 172.70L302.75 175.20L304.26 181.45L306.29 183.99L308.08 186.74L309.91 189.65L311.77 192.97L310.26 194.62L308.21 197.75L309.57 203.34L310.51 207.20L316.90 214.63L316.51 220.55L316.21 225.08L312.56 230.08L310.80 232.48L307.89 240.31L305.04 251.01L305.62 255.53L306.04 258.76L308.73 263.82L311.76 265.43L315.13 267.21L318.83 268.87L324.26 267.45L330.83 268.39L334.34 268.65L336.09 264.90L338.47 264.53L345.97 262.45L346.15 264.74L346.32 267.97L346.75 270.71L350.07 272.27L354.08 272.39L359.31 272.95L363.86 274.65L367.98 277.69L372.16 282.43L370.13 287.81L368.22 290.57L371.91 292.31L374.74 293.89L380.28 295.86L382.12 292.15L384.00 289.54L385.86 286.94L387.40 285.39L390.14 280.66L390.32 276.43L390.39 273.10L391.71 270.58L394.18 268.25L396.95 266.21L399.53 265.20L402.40 264.39L407.33 263.41L411.74 261.46L414.40 261.26L418.06 261.83L420.70 261.90L422.39 259.93L421.53 257.37L420.27 252.93L420.03 249.99L419.38 246.69L419.99 244.42L421.11 241.41L422.85 237.64L423.99 235.68L425.54 234.01L428.76 231.16L429.72 228.64L430.73 226.19L431.66 223.91L432.55 221.51L432.68 219.34L429.92 217.71L427.85 216.53L425.75 215.73L424.83 213.30L422.64 212.56L419.67 211.67L416.72 210.48L416.32 207.46L417.11 204.62L417.94 201.36L418.50 198.71L421.37 194.90L422.84 192.49L425.01 190.31L426.68 187.89L428.09 184.73L428.78 182.22L428.42 179.66L428.06 177.08L428.14 173.30L427.65 168.61L426.68 163.04L428.41 155.54L427.67 149.71L428.02 144.48L429.78 141.30L433.61 136.54L436.55 132.44L440.39 127.08L445.94 119.58L447.22 117.62L452.81 109.08L454.84 105.43L456.06 103.35L457.28 101.27L460.21 96.54L461.65 88.32Z" data-ward="3" /><path id="ward-13" class="ward" d="M693.55 603.43L689.81 603.20L682.66 602.79L676.85 602.49L654.04 603.33L630.42 609.49L622.75 612.04L607.01 617.27L581.02 623.92L577.02 624.63L563.43 627.03L553.97 628.70L527.65 628.52L507.70 627.95L507.32 625.32L506.78 622.34L508.49 617.98L503.33 618.58L501.14 619.58L496.25 621.80L491.09 625.47L488.19 627.21L486.72 634.48L483.76 638.39L485.96 643.83L488.49 648.30L490.06 652.03L492.04 656.86L494.38 660.30L496.91 664.25L498.35 666.49L495.91 669.59L495.22 672.20L495.43 675.97L498.69 680.69L503.36 684.50L508.15 689.96L511.79 694.60L513.66 697.38L515.25 699.77L517.21 701.77L523.94 701.16L528.65 701.59L536.62 705.63L543.01 710.97L547.64 713.35L552.76 717.41L557.88 721.47L562.98 727.29L562.62 734.17L559.27 734.06L556.31 732.88L553.36 731.20L549.97 730.82L547.47 732.40L545.62 735.13L543.53 738.76L540.26 738.47L536.90 736.54L535.57 734.42L536.76 732.13L534.47 729.47L531.43 726.73L530.88 723.96L526.75 720.82L524.69 719.37L522.30 721.86L520.90 723.57L520.01 725.84L516.06 724.17L513.25 722.02L496.59 729.22L494.23 737.37L493.52 740.38L486.74 732.72L481.81 728.90L473.83 727.22L464.91 724.58L461.86 722.99L458.72 729.67L454.35 739.43L451.02 753.90L448.22 761.75L446.69 769.02L447.91 772.41L449.20 776.48L448.55 779.34L448.42 785.24L448.82 790.56L446.21 795.88L444.75 799.25L447.87 801.91L450.85 802.60L456.28 803.69L455.55 806.08L454.59 809.23L455.43 812.72L455.94 818.76L462.92 817.84L468.48 818.90L474.12 821.20L479.20 823.85L483.28 826.54L486.01 828.56L490.68 832.55L495.22 835.04L500.70 834.12L505.79 834.64L510.97 835.64L517.97 838.46L520.97 839.85L523.46 841.21L525.20 838.65L530.65 830.64L537.15 821.11L541.59 816.60L548.81 812.91L559.64 809.19L566.57 811.56L584.49 817.70L584.24 812.40L583.93 806.07L585.55 801.61L581.43 800.83L582.52 793.78L584.83 778.77L586.76 762.52L584.43 754.65L583.47 751.41L580.02 742.47L579.09 740.06L581.65 735.06L583.67 731.11L587.97 730.77L591.39 730.49L593.90 730.72L596.75 730.99L598.98 731.03L604.49 731.09L609.12 731.01L611.52 731.28L614.45 730.67L616.49 729.89L619.78 731.52L622.02 730.83L623.13 727.56L624.15 724.57L627.42 717.87L629.31 715.54L632.73 711.35L634.17 708.80L637.71 706.99L642.03 703.55L646.58 699.92L650.58 696.74L654.08 691.90L657.21 687.58L661.16 682.13L665.34 676.36L669.52 671.92L671.95 669.32L677.74 667.86L681.88 668.98L684.50 663.39L686.70 658.70L688.51 654.84L690.33 650.94L687.98 647.94L685.76 646.43L681.90 643.80L679.56 644.62L676.40 642.37L676.47 639.78L672.74 638.90L670.02 636.49L669.22 633.08L669.93 626.92L678.20 625.15L682.48 626.44L684.91 624.63L687.34 622.82L693.07 617.39L697.07 615.52L700.16 614.08L700.32 611.38L702.72 603.48L697.28 603.66L693.55 603.43Z" data-ward="13" /><path id="ward-9" class="ward" d="M461.00 271.04L453.92 268.43L449.70 267.41L443.65 265.78L437.86 264.65L436.70 268.21L435.76 271.85L435.16 275.53L434.62 280.77L434.28 286.43L434.70 290.53L435.35 293.19L434.15 295.78L431.52 299.95L430.45 303.05L430.23 308.04L434.40 308.82L437.87 309.89L440.16 310.99L443.18 312.21L446.51 313.73L448.74 314.82L450.44 316.98L451.74 318.79L453.25 320.85L455.46 324.94L456.51 329.27L458.60 330.55L461.16 331.41L465.07 332.85L468.60 334.47L471.44 336.44L473.74 338.06L478.75 341.06L483.12 344.10L486.25 346.27L488.57 349.56L488.18 352.39L487.78 354.72L488.92 359.54L489.55 362.60L490.92 366.19L489.61 368.53L487.68 372.46L486.31 374.20L483.13 376.12L480.88 377.99L479.61 381.23L478.51 383.73L480.93 384.74L484.46 384.94L488.07 384.43L492.09 383.13L495.11 382.50L498.47 380.57L502.49 378.47L505.85 377.19L508.85 375.72L511.39 375.02L513.52 374.45L517.09 373.63L520.67 372.94L519.79 377.24L519.12 381.76L518.55 386.35L518.45 389.29L517.83 393.52L517.00 398.98L517.35 403.70L516.77 407.73L516.43 410.09L514.63 413.35L513.51 415.39L512.08 417.46L510.66 419.31L506.83 421.92L504.34 421.58L500.85 421.41L497.72 423.82L495.64 425.10L493.69 428.50L492.35 434.83L491.67 440.27L491.29 443.31L490.56 446.45L494.35 447.95L496.53 448.82L501.15 448.67L506.57 448.95L511.49 448.75L514.37 448.61L517.25 448.47L525.98 447.85L528.33 447.26L531.82 447.55L535.49 447.77L539.12 447.39L542.80 446.36L546.28 446.42L550.76 446.65L553.85 446.94L556.69 448.20L559.40 449.59L562.13 450.16L565.13 449.55L568.54 450.27L572.55 451.92L575.68 452.39L578.83 452.86L580.89 450.19L581.63 446.11L582.00 441.86L582.31 436.92L582.12 433.09L582.75 425.58L582.42 423.16L581.82 418.80L581.33 415.13L581.01 412.80L580.67 410.20L582.69 408.92L585.16 407.92L587.20 407.09L589.35 406.21L592.37 404.99L594.87 403.97L598.01 402.71L600.31 403.48L604.37 404.38L610.03 403.94L611.22 406.49L616.19 406.74L619.59 407.15L621.83 407.42L625.75 407.89L627.95 407.85L631.90 407.79L634.30 407.80L636.44 407.10L639.63 406.06L644.11 404.72L652.50 402.59L656.30 401.92L661.39 401.60L664.25 401.42L669.88 400.90L672.08 400.92L674.24 400.50L678.62 399.21L676.67 395.38L676.37 390.23L674.96 382.64L674.31 379.66L671.11 379.64L666.90 379.68L660.39 380.06L658.11 380.25L655.48 380.47L654.95 375.33L654.53 371.17L657.38 370.14L659.44 369.40L666.06 368.73L669.73 369.46L675.10 370.26L683.06 369.28L685.50 368.89L687.85 367.19L688.94 364.42L689.72 361.39L689.97 358.43L692.01 356.67L694.23 355.55L697.34 355.27L700.13 355.59L702.71 355.16L703.63 353.00L704.67 349.36L706.87 344.00L708.18 340.02L708.75 337.01L707.01 335.41L704.12 333.77L698.44 328.93L696.89 325.80L696.02 321.47L695.64 318.37L694.86 314.35L693.92 311.97L691.48 310.28L688.45 307.35L689.89 301.57L689.69 298.91L689.49 296.25L688.37 292.93L686.82 288.64L686.27 284.09L683.10 280.00L680.62 280.48L678.63 278.83L676.62 274.96L673.89 271.67L670.78 273.76L666.62 274.55L664.28 275.73L664.69 278.54L665.85 281.02L665.97 285.73L666.05 288.65L657.14 292.62L651.36 292.92L644.49 293.73L641.23 293.95L638.91 294.11L634.57 294.99L631.01 296.33L626.95 296.55L623.75 297.44L619.16 299.28L614.25 300.09L610.28 300.52L605.88 300.66L602.54 301.17L599.95 301.14L594.22 300.07L593.49 296.79L592.50 293.36L586.53 291.71L584.14 293.00L580.70 295.44L577.51 296.33L574.97 294.20L574.28 291.81L570.92 289.56L567.20 287.95L565.60 290.55L559.58 300.16L558.25 302.28L546.19 317.14L546.73 323.57L547.11 327.94L547.34 333.34L547.19 338.71L550.11 345.40L553.79 348.36L557.66 349.95L559.67 352.16L559.48 356.86L556.26 357.67L553.04 355.45L550.85 353.72L548.60 353.64L544.68 353.58L541.25 354.02L537.00 353.98L534.41 350.39L534.29 346.41L534.53 342.49L535.40 337.21L535.75 334.62L536.34 329.41L536.57 326.99L536.95 322.68L537.17 320.00L537.19 315.63L536.36 311.62L534.24 308.36L533.76 305.99L533.28 303.62L532.37 299.86L530.61 296.58L529.54 293.27L529.25 290.94L528.83 286.39L528.96 282.12L528.81 277.61L525.35 277.52L522.24 277.42L515.85 277.49L511.77 277.44L508.40 277.35L501.81 276.87L495.58 274.57L489.79 272.65L484.67 270.15L479.40 272.92L475.14 273.70L471.84 271.51L466.86 271.91L461.00 271.04Z" data-ward="9" /><path id="ward-8" class="ward" d="M678.62 399.21L674.24 400.50L672.08 400.92L669.88 400.90L664.25 401.42L661.39 401.60L656.30 401.92L652.50 402.59L644.11 404.72L639.63 406.06L636.44 407.10L634.30 407.80L631.90 407.79L627.95 407.85L625.75 407.89L621.83 407.42L619.59 407.15L616.19 406.74L611.22 406.49L610.03 403.94L604.37 404.38L600.31 403.48L598.01 402.71L594.87 403.97L592.37 404.99L589.35 406.21L587.20 407.09L585.16 407.92L582.69 408.92L580.67 410.20L581.01 412.80L581.33 415.13L581.82 418.80L582.42 423.16L582.75 425.58L582.12 433.09L582.31 436.92L582.00 441.86L581.63 446.11L580.89 450.19L578.83 452.86L575.68 452.39L572.55 451.92L568.54 450.27L565.13 449.55L562.13 450.16L559.40 449.59L556.69 448.20L553.85 446.94L550.76 446.65L546.28 446.42L542.80 446.36L539.12 447.39L535.49 447.77L531.82 447.55L528.33 447.26L525.98 447.85L517.25 448.47L514.37 448.61L511.49 448.75L506.57 448.95L501.15 448.67L496.53 448.82L494.35 447.95L490.56 446.45L489.56 450.88L488.44 457.14L488.10 459.84L487.12 467.64L485.87 472.42L484.62 477.20L483.75 479.85L483.05 485.59L479.86 489.89L476.67 494.19L471.83 499.95L468.74 502.31L465.64 504.66L462.38 506.01L462.48 510.53L462.84 516.82L465.99 520.98L474.25 525.44L475.39 536.40L479.57 547.20L481.54 550.55L484.66 555.86L488.75 563.95L498.71 571.49L500.06 574.37L506.19 587.43L508.58 596.32L509.77 602.08L510.77 610.84L510.12 613.14L509.48 615.44L508.49 617.98L506.78 622.34L507.32 625.32L507.70 627.95L527.65 628.52L553.97 628.70L563.43 627.03L577.02 624.63L581.02 623.92L607.01 617.27L622.75 612.04L630.42 609.49L654.04 603.33L676.85 602.49L682.66 602.79L689.81 603.20L693.55 603.43L697.28 603.66L702.72 603.48L704.38 595.02L704.93 592.20L704.96 588.91L705.50 585.49L705.41 581.10L708.89 580.76L713.01 580.35L716.33 580.02L718.16 576.53L720.50 572.07L722.21 568.78L724.32 564.76L727.60 565.03L730.35 565.27L732.59 565.46L736.40 565.78L735.83 572.04L735.57 574.85L735.25 578.34L732.16 578.07L729.04 577.79L725.61 577.49L723.79 581.08L729.47 582.07L731.85 582.48L730.44 584.33L728.74 588.23L725.31 588.99L724.41 592.12L723.53 595.18L722.23 599.09L721.32 601.82L719.63 606.89L718.92 609.01L716.96 611.29L713.09 615.81L711.28 617.91L714.52 620.06L711.53 620.90L708.27 621.82L704.87 622.78L702.70 623.95L702.79 627.16L705.10 627.66L707.99 628.29L712.36 629.76L712.78 632.08L710.96 634.07L709.19 639.52L707.51 642.27L707.12 645.83L706.74 649.28L711.89 650.21L716.70 654.10L716.46 659.90L720.87 662.38L725.74 669.00L728.49 672.74L735.22 670.40L740.79 668.46L756.91 658.53L762.66 651.99L764.40 650.01L768.49 647.74L771.18 646.25L778.23 644.03L783.07 641.79L786.53 639.62L792.43 634.34L801.54 626.16L810.24 620.28L817.17 615.59L822.48 608.91L824.41 606.48L823.72 598.48L827.60 592.60L829.43 590.53L831.80 587.86L837.03 583.12L838.98 580.97L844.92 574.43L846.83 572.33L848.92 569.07L851.00 565.46L858.35 555.28L860.09 552.79L868.65 547.43L870.86 545.99L872.76 544.76L874.54 543.42L878.23 539.39L879.36 535.92L880.67 531.89L882.30 525.52L882.91 518.60L884.01 515.28L885.14 511.83L887.67 508.34L889.43 505.90L893.39 501.13L894.05 497.77L894.54 495.62L887.99 494.81L886.75 491.61L885.87 489.32L884.84 485.32L881.72 475.94L875.71 470.33L870.15 467.61L864.11 463.83L861.60 459.47L856.77 452.34L851.94 446.90L844.75 442.52L842.73 441.29L836.77 441.12L832.60 441.24L831.57 444.67L826.33 446.33L823.59 447.02L821.11 447.98L816.38 446.99L812.00 439.68L805.17 436.00L800.16 438.64L799.29 441.97L795.07 444.84L783.96 447.26L780.60 448.12L772.02 450.25L770.39 455.19L769.52 460.22L771.49 462.44L773.47 464.67L774.81 467.32L775.28 470.60L775.39 473.75L778.67 475.04L778.11 478.77L780.43 481.10L780.85 483.44L780.38 487.44L780.23 491.16L777.37 490.75L772.87 490.95L773.45 495.08L772.84 498.46L772.03 501.11L771.09 503.40L766.47 499.93L760.40 496.49L756.81 496.00L756.99 491.53L757.19 487.13L757.27 484.68L756.66 481.45L753.64 479.40L753.01 474.34L752.40 471.84L750.01 468.10L748.64 465.84L748.21 462.93L744.43 462.52L740.71 463.53L732.72 463.92L727.40 463.81L724.77 464.00L719.00 464.38L713.30 464.14L709.77 463.81L706.77 463.52L703.92 461.10L699.56 458.42L695.18 455.89L694.80 447.90L694.89 443.00L694.97 440.82L695.90 430.99L696.14 427.27L696.36 418.68L692.28 418.17L691.24 416.09L689.18 412.29L686.15 409.35L681.62 402.69L678.62 399.21Z" data-ward="8" /><path id="ward-18" class="ward" d="M111.30 493.16L114.66 492.70L118.74 492.14L122.01 491.70L125.74 491.19L130.39 490.56L132.65 487.76L133.68 484.20L134.21 480.69L130.83 478.60L126.96 476.17L123.37 473.11L120.12 470.33L119.83 466.11L120.48 463.09L121.18 459.45L122.03 456.81L122.90 453.94L125.63 449.96L127.15 447.35L130.90 442.58L135.08 434.55L137.67 429.57L138.95 427.11L138.41 424.55L139.41 421.26L141.33 418.87L141.50 416.53L139.77 414.35L140.22 408.95L141.83 404.74L143.53 400.27L144.41 396.94L145.25 393.57L145.89 390.67L146.04 388.13L146.41 385.80L148.15 382.79L152.98 376.87L156.74 372.26L158.81 369.72L164.63 363.01L167.19 360.52L170.34 357.30L173.57 355.19L177.07 353.16L175.93 349.86L175.83 346.15L176.31 341.38L176.88 335.72L174.25 331.81L172.73 329.55L167.37 325.22L163.79 322.32L161.12 320.16L158.04 318.46L153.04 316.15L148.61 314.11L145.63 312.73L138.75 309.64L132.13 306.68L129.13 305.41L125.47 303.86L121.36 302.12L119.04 301.14L115.18 299.51L112.52 298.38L108.37 296.10L106.29 294.93L102.80 292.99L96.55 302.65L94.63 305.61L90.93 311.94L86.47 314.74L83.08 316.87L75.00 323.25L66.05 334.85L62.47 343.59L60.71 356.59L60.17 360.55L58.82 364.39L56.35 373.17L53.04 384.98L51.42 390.49L50.29 394.33L49.25 397.87L48.57 400.18L47.84 402.35L47.04 404.73L45.65 408.86L44.20 413.19L40.83 414.40L38.16 415.55L34.64 416.59L31.10 418.15L27.72 419.73L24.71 421.40L22.67 422.99L20.73 424.34L16.82 426.32L13.64 427.01L9.86 427.17L9.06 431.49L8.27 435.72L8.32 439.10L8.36 442.13L9.07 446.17L8.65 449.08L7.86 454.52L5.79 459.89L4.51 463.22L3.79 467.65L2.50 475.56L1.31 482.83L1.03 485.00L0.71 487.49L0.30 490.63L0.00 492.97L0.07 495.54L0.16 498.91L0.24 502.20L0.90 505.39L1.54 508.51L2.13 511.40L3.91 516.75L4.86 519.62L4.46 522.28L4.02 525.12L3.55 528.24L3.06 531.42L2.59 534.54L2.16 537.40L1.78 539.84L1.80 542.18L2.48 548.49L2.87 552.16L3.29 556.08L4.01 562.70L4.88 571.57L4.88 576.28L7.44 576.30L9.36 575.24L11.85 573.56L15.04 571.39L16.76 569.22L18.86 566.57L19.59 562.64L20.09 559.98L19.24 554.12L18.80 551.09L18.95 548.30L21.78 543.55L24.19 540.25L25.67 538.23L30.37 538.71L32.86 538.96L36.71 539.54L40.14 540.14L42.54 540.57L50.15 538.54L51.96 535.57L53.28 532.83L55.24 529.88L57.44 529.21L60.51 528.28L62.80 528.76L63.80 524.59L64.12 521.82L65.58 518.85L67.82 519.18L69.99 519.51L73.25 519.99L74.47 517.45L76.45 513.34L78.71 508.64L75.68 506.67L73.73 505.35L71.74 504.02L67.62 501.77L67.24 497.70L67.85 494.77L71.64 496.31L74.35 497.41L77.57 498.72L80.82 500.24L84.19 501.82L86.46 502.76L89.06 503.78L95.08 506.50L98.18 506.86L101.51 507.25L104.97 505.18L106.08 503.27L107.10 501.30L108.26 499.05L109.66 496.32L111.30 493.16Z" data-ward="18" /></svg>