<svg viewBox="0 0 1000.00 861.19" xmlns="http://www.w3.org/2000/svg"><style>.ward { fill: #e2e8f0; stroke: #fff; stroke-width: 0.5px; } .ward:hover { fill: #cbd5e1; }</style><path id="ward-3" class="ward" d="M357.20 426.24L358.94 426.39L360.17 426.98L361.38 428.40L362.12 429.64L363.59 428.63L366.21 426.79L367.57 425.84L369.17 424.71L371.06 423.39L372.81 422.15L374.45 421.01L376.60 419.44L377.10 417.91L377.53 416.60L378.12 414.78L378.94 412.30L379.34 411.06L381.12 406.74L385.44 403.37L387.21 404.32L390.69 406.44L392.80 407.82L395.67 411.25L398.20 414.28L400.47 413.12L402.55 412.15L400.98 410.18L396.78 404.90L394.06 401.09L393.17 398.39L392.73 396.44L391.85 393.59L393.43 393.80L395.01 394.01L398.44 393.88L400.49 393.00L402.45 392.54L405.97 390.90L407.51 391.24L408.74 392.02L410.69 391.61L412.81 392.64L413.27 393.92L413.27 396.54L412.08 399.11L411.67 401.16L411.81 402.48L412.15 404.25L412.50 406.02L414.51 405.64L415.86 405.38L417.49 404.21L419.26 402.33L420.85 400.74L422.44 399.15L423.36 398.21L424.85 396.71L427.15 394.75L428.43 393.65L429.84 392.43L430.97 390.65L432.65 389.82L435.11 389.09L436.58 388.08L437.00 385.96L436.96 384.49L436.23 382.60L435.38 379.35L436.46 375.67L438.29 373.55L439.17 371.91L439.91 370.23L440.08 367.72L438.91 365.04L438.16 362.36L438.68 359.77L439.78 357.60L440.38 356.26L440.80 354.99L441.16 353.25L441.31 351.40L441.12 348.84L440.96 347.15L440.69 344.29L440.93 342.15L441.56 339.28L442.31 337.54L443.31 335.65L444.15 333.76L446.12 330.00L446.99 328.38L448.30 326.80L450.07 324.67L451.91 322.81L452.31 321.17L452.07 319.91L451.83 318.64L452.12 316.11L454.08 315.67L456.90 315.02L459.57 314.73L460.44 311.82L460.14 309.81L457.78 308.42L457.13 307.06L457.68 305.39L458.29 303.14L458.15 301.77L457.02 298.53L456.54 296.83L457.05 295.28L458.09 294.13L459.38 292.68L460.44 290.98L461.71 288.90L462.72 287.22L463.34 285.37L463.61 284.03L463.76 282.59L463.72 280.85L463.40 278.07L463.08 275.65L463.14 271.91L464.34 266.69L464.64 265.36L466.02 261.03L460.14 254.53L457.91 252.08L453.90 247.68L447.44 240.58L446.23 239.26L444.42 237.78L442.11 235.92L438.73 233.18L434.54 229.80L433.49 228.95L433.97 227.70L435.07 225.20L435.81 223.51L437.15 222.94L440.49 221.53L444.06 220.01L448.88 217.96L453.85 216.60L456.60 215.86L461.20 214.62L459.22 212.57L456.99 210.02L453.98 206.60L449.70 204.13L444.85 203.25L439.36 203.14L433.26 204.51L427.17 205.87L425.93 206.25L424.55 206.75L422.04 207.82L418.89 210.74L416.58 214.27L414.04 217.35L412.48 218.20L410.64 218.95L406.42 219.33L402.24 217.21L401.16 216.49L398.22 214.42L395.33 211.78L393.19 211.27L391.07 210.88L383.20 211.87L380.39 212.41L378.53 212.89L376.84 213.46L371.64 215.32L367.58 217.01L363.32 218.58L361.38 219.39L358.94 221.71L355.72 224.72L353.93 226.58L352.14 228.43L350.12 230.57L348.65 231.88L346.53 233.72L345.60 234.62L343.44 239.51L343.19 245.40L342.48 249.10L342.02 250.49L339.59 253.41L334.35 255.13L332.59 255.43L330.39 255.81L328.23 256.31L326.02 257.83L323.68 261.08L321.41 261.31L319.71 263.34L313.38 264.23L309.37 262.84L303.89 260.81L300.10 259.64L295.61 260.08L293.11 260.45L289.15 262.67L285.19 264.90L282.67 266.42L279.94 269.15L278.07 271.10L278.13 273.10L278.78 274.39L279.92 275.97L281.56 278.04L283.31 280.34L284.34 281.83L285.30 283.27L286.37 284.46L287.32 285.50L288.56 286.71L289.74 287.86L291.18 288.98L292.44 289.19L292.84 290.94L292.87 293.14L293.07 295.36L293.18 296.81L293.12 298.10L293.50 299.68L293.62 301.20L293.73 302.72L293.26 304.48L292.68 306.71L294.23 308.33L295.78 309.96L297.70 310.93L298.94 311.71L300.15 312.61L301.86 314.15L302.99 315.68L304.38 317.62L305.54 319.71L306.16 320.86L306.45 322.44L306.08 323.88L306.22 326.35L307.15 328.90L308.79 329.97L310.59 331.31L311.85 332.48L314.06 333.72L315.26 334.89L316.59 336.18L318.20 337.01L319.53 338.26L320.23 339.64L322.26 341.94L322.92 344.88L323.38 346.30L323.78 347.52L324.35 348.74L324.95 350.02L326.51 352.23L326.16 354.09L325.41 355.59L324.49 356.65L322.24 358.78L320.77 360.37L320.52 362.04L321.20 363.70L323.44 365.48L324.50 366.21L326.75 367.72L328.03 368.59L329.30 369.92L330.73 372.99L331.28 377.90L331.37 379.27L331.57 382.30L331.77 385.33L332.03 387.65L334.41 390.04L336.17 391.62L337.39 392.70L339.08 394.27L340.46 395.57L341.29 397.38L341.18 399.27L341.04 400.59L340.59 402.98L341.00 404.48L341.47 405.89L342.39 407.80L343.38 409.53L344.08 410.75L343.74 412.47L342.14 413.81L339.93 415.30L336.47 416.85L336.40 418.18L338.20 419.49L339.41 420.03L341.50 420.95L343.81 423.14L345.39 425.68L348.20 426.75L350.62 427.05L352.48 427.15L354.78 427.28L357.20 426.24Z" data-ward="3" /><path id="ward-7" class="ward" d="M916.55 854.77L917.82 855.62L918.26 857.15L921.67 858.19L926.16 861.19L932.54 855.85L943.80 846.40L948.00 842.90L958.24 833.84L959.82 832.44L961.00 831.40L962.64 829.96L964.39 828.41L965.94 827.05L966.94 826.16L968.59 824.71L970.11 823.36L971.25 817.99L971.67 816.03L972.64 812.28L973.62 808.18L974.08 805.98L974.64 803.32L975.25 800.61L976.12 796.74L976.57 795.27L977.40 792.59L978.05 790.36L978.39 788.95L979.52 783.78L980.21 780.61L981.22 776.52L982.24 772.41L982.84 769.99L983.71 764.93L984.71 762.61L985.27 759.96L986.55 754.27L986.92 752.56L988.52 746.40L989.04 744.04L990.34 738.14L991.06 735.48L991.78 732.82L992.28 730.96L992.73 729.04L993.19 727.04L994.20 722.64L994.70 720.62L996.09 715.01L996.36 713.29L996.88 710.06L998.20 705.59L999.08 700.61L1000.00 697.23L998.29 696.72L996.28 695.93L993.83 694.97L992.48 694.50L989.76 693.56L988.55 693.14L982.78 690.90L979.87 689.81L976.56 688.58L974.90 687.96L970.43 686.35L967.46 685.31L965.46 684.64L960.36 683.00L958.45 682.29L957.16 681.91L953.55 680.58L950.78 679.56L948.12 678.57L945.08 677.33L942.71 667.27L942.06 664.48L941.51 662.17L940.22 656.66L940.62 651.64L941.02 646.86L941.13 645.43L942.78 639.81L943.38 635.72L943.81 632.79L944.31 630.84L942.84 627.35L942.35 625.34L943.01 623.20L941.57 621.23L939.66 620.46L938.31 619.67L936.59 618.76L934.71 617.28L932.95 615.66L931.60 615.19L929.55 614.39L928.29 614.04L927.35 613.13L926.54 611.82L925.70 609.65L925.85 607.63L926.45 605.76L927.66 603.06L929.04 601.82L930.83 600.47L932.86 599.55L933.76 598.52L934.21 596.64L934.24 595.21L934.35 593.58L934.54 591.32L934.01 590.03L933.11 588.64L932.06 587.25L930.61 585.15L929.54 583.45L927.96 580.92L927.11 579.73L926.24 578.67L925.16 577.69L924.13 576.70L922.88 575.61L921.70 574.36L920.28 572.86L919.42 571.68L918.42 570.62L917.20 569.30L910.49 563.68L907.38 559.73L904.81 557.56L902.34 554.78L900.09 551.46L898.27 548.77L896.58 546.34L894.53 543.95L892.85 541.92L891.08 540.46L889.37 539.00L887.97 537.59L886.57 536.04L885.40 534.73L883.97 533.57L882.19 532.52L879.36 534.02L876.06 535.00L872.99 537.84L868.26 541.97L865.05 545.01L860.19 548.37L856.38 549.45L852.33 550.55L848.83 549.85L844.98 549.05L841.78 547.77L840.24 545.82L838.73 543.24L835.82 541.79L833.66 541.90L831.54 544.61L828.81 546.73L825.21 547.74L823.63 546.22L822.38 544.20L820.01 540.53L817.81 538.32L814.76 535.08L812.04 533.62L809.60 532.78L807.03 532.87L806.04 531.78L804.24 530.81L800.67 531.37L796.85 532.19L793.15 534.16L790.04 535.98L785.77 539.20L783.63 540.23L781.43 540.77L780.07 542.40L775.70 546.91L771.64 550.45L777.71 555.80L781.20 558.43L781.95 564.26L781.95 568.33L778.81 569.23L777.03 568.94L774.58 568.02L775.09 570.75L774.94 572.03L774.64 573.71L774.90 577.14L774.92 579.85L773.66 582.77L772.25 584.37L770.74 584.78L770.26 588.16L765.85 587.56L763.40 588.33L761.97 589.99L761.90 593.43L759.25 596.01L756.52 598.86L754.60 602.23L752.21 605.34L751.21 606.90L749.45 607.68L745.26 607.70L738.89 607.63L738.40 609.75L737.75 612.12L737.17 613.66L735.10 615.57L738.53 617.50L740.19 620.49L741.43 623.71L741.65 625.27L741.91 627.09L742.48 628.46L743.22 630.23L739.94 633.46L741.96 638.60L741.82 642.62L741.76 644.38L742.47 647.12L743.47 650.05L744.81 651.47L746.61 652.21L747.55 653.47L749.41 656.25L752.02 660.70L753.98 662.36L756.90 661.48L758.00 659.75L760.19 659.42L762.57 660.52L765.58 663.18L767.58 664.54L769.01 668.54L771.11 671.61L774.23 673.87L778.88 675.80L780.75 676.10L789.59 677.51L789.83 682.98L790.70 688.57L791.25 692.37L792.07 693.55L795.23 694.98L798.24 697.72L803.24 701.50L805.81 702.32L810.09 703.68L816.38 704.18L823.23 705.27L827.41 706.60L832.58 708.98L838.35 712.60L842.52 717.89L848.04 721.08L855.95 721.90L865.17 725.92L870.93 726.94L886.42 734.92L888.41 735.94L893.05 735.87L898.18 734.60L904.77 733.93L908.88 738.91L911.82 750.10L914.13 749.05L915.95 750.02L917.53 751.47L919.18 753.61L921.01 755.57L923.21 758.61L923.55 761.34L923.98 763.50L924.94 766.66L927.47 770.19L928.74 773.42L928.24 777.40L926.96 782.02L926.03 785.19L924.84 789.25L923.87 791.71L923.16 793.54L922.11 796.69L922.42 798.14L919.44 800.56L917.50 801.48L916.09 802.40L913.81 804.73L913.62 806.35L913.72 807.95L913.77 810.62L913.87 812.62L914.32 816.25L912.90 816.16L911.15 816.05L909.19 815.99L906.59 816.85L906.11 819.18L907.63 820.45L909.73 821.76L910.94 822.79L912.45 824.83L913.71 827.16L914.88 829.67L916.21 831.95L916.76 833.87L917.04 837.08L916.61 839.57L914.96 841.69L913.76 842.95L913.02 844.19L911.91 846.00L909.53 848.88L914.63 853.16L916.55 854.77Z" data-ward="7" /><path id="ward-4" class="ward" d="M518.78 116.71L516.75 103.41L514.89 101.39L511.61 97.84L509.97 96.06L507.55 93.43L503.03 88.54L500.35 85.63L498.23 83.33L492.23 76.83L489.59 73.97L487.97 71.43L486.71 69.43L484.16 65.43L476.85 53.93L480.10 37.84L473.99 25.16L468.29 13.32L463.57 3.74L462.53 1.63L457.18 1.17L449.15 0.47L443.68 0.00L433.16 0.86L418.70 1.94L418.89 35.29L419.95 36.56L421.22 38.09L423.62 41.16L424.72 42.58L429.35 49.32L430.40 53.83L430.75 55.26L430.81 60.25L430.74 63.39L429.81 66.48L428.88 69.57L428.07 72.60L426.47 75.57L426.18 78.20L424.66 80.15L423.32 81.63L420.09 83.40L418.01 84.54L416.45 85.39L413.57 87.55L408.72 90.36L414.26 90.50L407.11 95.29L399.99 100.06L397.49 101.89L396.47 104.77L395.33 110.09L393.82 117.29L394.32 118.59L394.45 121.13L393.92 125.20L392.51 124.76L389.34 123.86L388.24 123.18L385.89 120.84L384.81 120.10L382.90 118.77L381.35 118.98L379.70 120.22L378.44 122.07L377.48 125.01L376.98 127.57L376.70 129.06L376.46 131.48L376.33 132.99L376.09 134.81L375.62 137.72L375.68 139.22L375.77 140.93L375.64 142.51L373.39 143.31L370.90 144.09L368.37 144.47L363.94 145.91L362.10 146.19L358.93 145.48L356.85 144.91L355.54 143.68L353.29 146.83L350.86 148.36L349.53 146.95L348.83 145.61L348.14 144.27L347.64 142.89L347.08 141.33L345.16 140.45L342.12 139.71L340.34 139.44L338.50 138.97L335.45 138.20L331.35 137.33L330.07 137.04L328.27 136.81L327.11 137.67L326.71 139.92L327.80 142.20L329.13 144.85L330.61 146.20L331.23 148.19L330.89 150.39L330.11 152.53L328.86 154.01L327.18 154.20L325.26 154.44L323.08 156.06L322.32 157.12L321.35 159.94L320.51 161.22L319.33 162.06L317.25 163.54L315.84 165.26L315.47 166.64L314.59 169.42L313.97 170.68L312.65 173.36L311.95 174.53L309.62 176.83L309.73 178.58L310.60 179.81L311.48 181.04L312.22 182.65L312.81 184.68L312.41 186.20L311.04 187.06L308.35 187.17L305.67 187.29L303.65 189.45L306.24 191.65L308.45 192.78L310.71 193.61L312.96 194.96L314.11 196.26L315.68 199.25L316.03 201.19L316.18 204.38L316.05 206.02L316.59 208.37L317.97 212.40L318.72 214.61L318.63 216.64L318.53 218.67L318.22 223.11L318.76 226.44L321.17 231.40L323.36 235.17L325.45 237.65L326.55 240.37L327.37 242.82L327.15 246.81L325.68 248.98L323.25 252.34L319.27 254.61L319.69 256.66L320.00 258.94L321.41 261.31L323.68 261.08L326.02 257.83L328.23 256.31L330.39 255.81L332.59 255.43L334.35 255.13L339.59 253.41L342.02 250.49L342.48 249.10L343.19 245.40L343.44 239.51L345.60 234.62L346.53 233.72L348.65 231.88L350.12 230.57L352.14 228.43L353.93 226.58L355.72 224.72L358.94 221.71L361.38 219.39L363.32 218.58L367.58 217.01L371.64 215.32L376.84 213.46L378.53 212.89L380.39 212.41L383.20 211.87L391.07 210.88L393.19 211.27L395.33 211.78L398.22 214.42L401.16 216.49L402.24 217.21L406.42 219.33L410.64 218.95L412.48 218.20L414.04 217.35L416.58 214.27L418.89 210.74L422.04 207.82L424.55 206.75L425.93 206.25L427.17 205.87L433.26 204.51L439.36 203.14L444.85 203.25L449.70 204.13L453.98 206.60L456.99 210.02L459.22 212.57L461.20 214.62L456.60 215.86L453.85 216.60L448.88 217.96L444.06 220.01L440.49 221.53L437.15 222.94L435.81 223.51L435.07 225.20L433.97 227.70L433.49 228.95L434.54 229.80L438.73 233.18L442.11 235.92L444.42 237.78L446.23 239.26L447.44 240.58L453.90 247.68L457.91 252.08L460.14 254.53L466.02 261.03L464.64 265.36L464.34 266.69L463.14 271.91L463.08 275.65L463.40 278.07L463.72 280.85L463.76 282.59L463.61 284.03L463.34 285.37L462.72 287.22L461.71 288.90L460.44 290.98L459.38 292.68L458.09 294.13L457.05 295.28L456.54 296.83L457.02 298.53L458.15 301.77L458.29 303.14L457.68 305.39L457.13 307.06L457.78 308.42L460.14 309.81L460.44 311.82L459.57 314.73L460.79 315.13L462.65 315.33L464.18 316.27L466.62 316.02L468.06 315.57L470.39 314.05L472.05 313.33L478.23 315.85L481.93 317.84L486.57 319.49L491.16 321.00L496.20 322.12L500.05 323.25L502.49 324.03L504.43 325.06L505.34 326.35L511.91 333.70L515.78 337.49L517.43 339.36L519.05 340.18L521.15 339.94L524.96 339.22L526.15 337.72L527.04 335.86L528.29 334.23L531.02 333.61L535.02 334.41L538.10 335.07L540.91 336.04L543.33 338.07L545.29 339.87L548.75 341.05L551.54 342.76L554.46 343.18L556.90 343.64L559.00 344.31L560.73 345.44L562.46 347.40L564.35 348.72L569.11 350.46L574.29 352.63L580.54 355.52L581.84 355.84L584.93 354.93L588.47 355.12L592.81 357.14L596.21 359.11L600.32 360.64L603.16 361.42L607.43 362.26L612.65 363.44L618.06 364.41L620.96 364.40L624.39 365.23L626.82 366.31L629.60 366.85L631.55 367.50L635.21 369.14L638.97 371.01L642.13 371.67L644.72 372.56L647.24 373.64L649.51 373.75L653.55 373.39L656.06 373.29L657.51 373.23L659.11 371.54L659.61 368.84L659.79 366.91L659.97 364.54L660.06 363.26L660.12 361.75L660.20 360.03L660.28 358.62L660.40 355.98L660.68 352.88L660.78 351.36L660.92 349.40L660.53 346.88L658.93 344.58L657.72 343.63L653.54 341.93L646.02 338.85L644.59 336.16L645.75 334.18L647.39 332.82L648.42 330.84L647.01 328.11L646.44 325.44L648.30 321.75L650.20 319.58L660.29 313.20L661.14 311.47L664.36 308.54L659.88 305.53L656.04 302.96L653.53 301.28L650.85 299.45L647.36 295.44L645.49 292.46L645.05 289.98L644.61 287.51L644.52 285.75L646.48 282.83L649.94 280.92L652.08 277.82L650.88 275.56L649.27 272.55L645.17 274.69L642.07 276.32L629.83 261.45L638.66 245.55L641.73 243.23L640.62 238.94L641.84 235.85L642.63 233.86L643.24 199.27L643.30 192.08L636.99 184.28L635.27 183.68L626.83 180.89L625.31 180.63L612.80 179.79L603.89 179.84L602.45 179.84L599.13 179.86L595.37 179.88L574.73 180.00L571.07 179.21L565.00 177.89L560.27 176.99L557.59 176.48L556.18 176.27L552.80 175.78L545.82 174.77L544.42 174.57L542.08 174.23L541.95 171.32L541.54 161.88L539.92 161.38L538.41 160.92L537.29 159.44L536.08 157.84L534.66 155.97L533.57 154.53L532.39 152.96L531.05 151.20L530.11 149.95L528.92 148.38L527.58 146.62L526.18 144.76L522.28 139.62L521.81 136.53L520.14 125.59L518.78 116.71Z" data-ward="4" /><path id="ward-8" class="ward" d="M735.10 615.57L733.52 616.45L730.35 615.55L728.66 615.53L725.27 615.48L721.89 615.61L719.20 615.21L718.96 610.69L718.51 609.36L717.16 607.09L714.36 605.06L710.01 602.79L707.44 601.73L706.35 603.38L705.36 605.27L703.53 609.50L702.48 610.99L700.53 611.38L696.45 610.87L692.99 611.23L688.08 612.43L686.14 613.59L682.83 616.38L679.66 618.71L678.28 619.72L674.15 622.98L674.98 627.05L675.61 630.07L675.18 631.76L673.56 633.82L671.45 634.72L669.69 634.45L667.43 634.71L665.38 634.94L664.04 635.47L661.85 636.39L659.75 637.39L657.38 639.29L656.05 642.52L655.06 644.44L653.85 646.76L652.50 648.84L651.17 650.88L649.68 654.13L646.88 658.56L643.18 659.07L639.08 658.90L634.48 658.30L630.99 657.80L628.54 656.85L626.95 656.35L625.58 657.26L623.48 658.65L619.82 661.08L615.93 664.32L612.27 667.35L608.49 670.19L605.86 672.34L604.36 673.47L602.81 674.40L598.36 676.17L594.87 677.83L591.92 678.93L588.54 678.85L584.42 679.17L584.20 681.57L584.48 683.16L584.54 685.83L584.66 688.97L584.69 692.85L584.34 695.79L583.36 698.37L582.68 699.50L581.69 701.77L581.16 703.23L580.22 704.97L578.51 705.31L577.24 705.47L575.88 705.64L573.28 705.95L570.57 706.61L569.34 708.17L568.10 709.73L566.30 709.75L562.94 709.38L559.82 709.43L558.43 710.06L557.14 711.21L555.40 712.92L554.32 714.29L552.93 716.92L552.10 718.07L551.32 719.77L551.25 723.21L551.61 726.00L551.51 727.29L551.48 729.62L552.49 731.22L554.20 732.81L555.40 734.69L552.07 735.31L549.34 736.20L546.52 737.33L544.01 738.37L541.57 739.52L538.95 740.67L536.38 741.22L532.80 740.99L528.91 740.94L525.99 741.54L523.05 742.55L518.93 744.63L515.17 748.09L507.21 754.39L501.35 758.85L495.57 762.92L491.28 765.69L490.19 766.39L488.57 767.13L485.60 768.48L483.89 769.18L479.95 770.76L476.95 772.25L470.81 775.25L466.52 777.16L460.37 779.54L455.71 781.55L451.24 783.45L445.08 785.98L443.37 786.68L445.28 792.91L447.15 792.57L449.79 792.21L456.70 790.81L470.39 788.06L482.02 785.68L486.10 784.89L490.55 783.96L499.52 782.09L502.19 781.68L506.60 780.64L513.27 779.30L521.24 777.69L527.30 776.71L531.71 776.43L533.41 776.41L540.98 776.17L553.18 775.79L561.09 775.54L568.82 775.19L575.66 774.88L578.65 774.74L583.63 773.22L606.33 766.44L628.56 759.26L636.44 756.71L639.12 755.84L640.93 755.26L651.84 752.03L659.30 749.81L662.16 748.97L665.33 748.03L670.08 746.63L674.56 745.30L677.79 744.34L680.99 743.39L685.18 742.15L688.49 741.17L691.67 740.23L695.22 739.18L698.05 738.34L701.56 737.30L704.99 736.29L706.51 735.77L707.80 735.33L710.22 735.96L711.49 736.30L713.29 736.76L716.01 737.50L717.45 737.90L719.41 738.52L721.03 738.84L723.66 739.27L724.94 739.49L726.47 739.74L728.23 740.03L732.01 740.65L735.03 741.15L736.73 741.52L738.42 741.89L743.93 743.33L747.67 744.29L749.36 744.73L751.54 744.98L753.34 744.84L755.33 744.99L756.78 745.09L759.79 745.31L762.06 746.68L763.53 746.98L765.57 747.39L768.91 748.12L770.55 748.48L774.51 749.34L777.96 750.06L781.55 750.80L782.97 751.10L785.64 751.72L787.42 752.08L791.99 753.00L796.32 753.87L802.22 755.59L803.86 756.06L805.94 756.71L807.82 757.27L811.93 758.50L814.63 759.33L815.85 759.70L819.18 759.53L821.74 759.40L823.89 759.59L826.77 760.10L829.65 760.61L833.39 761.39L835.62 761.86L838.41 762.47L840.16 762.89L841.86 763.28L845.05 764.03L846.43 766.74L847.81 769.45L848.99 771.78L850.22 774.18L850.83 775.39L852.04 777.76L853.77 780.78L854.68 782.36L856.61 785.73L858.75 789.47L862.81 798.35L864.32 802.83L865.45 807.52L866.86 810.70L870.11 818.01L872.32 820.63L875.68 825.06L880.34 828.49L886.03 832.69L891.87 837.21L893.46 838.34L896.90 840.70L902.39 844.43L906.33 846.89L909.53 848.88L911.91 846.00L913.02 844.19L913.76 842.95L914.96 841.69L916.61 839.57L917.04 837.08L916.76 833.87L916.21 831.95L914.88 829.67L913.71 827.16L912.45 824.83L910.94 822.79L909.73 821.76L907.63 820.45L906.11 819.18L906.59 816.85L909.19 815.99L911.15 816.05L912.90 816.16L914.32 816.25L913.87 812.62L913.77 810.62L913.72 807.95L913.62 806.35L913.81 804.73L916.09 802.40L917.50 801.48L919.44 800.56L922.42 798.14L922.11 796.69L923.16 793.54L923.87 791.71L924.84 789.25L926.03 785.19L926.96 782.02L928.24 777.40L928.74 773.42L927.47 770.19L924.94 766.66L923.98 763.50L923.55 761.34L923.21 758.61L921.01 755.57L919.18 753.61L917.53 751.47L915.95 750.02L914.13 749.05L911.82 750.10L908.88 738.91L904.77 733.93L898.18 734.60L893.05 735.87L888.41 735.94L886.42 734.92L870.93 726.94L865.17 725.92L855.95 721.90L848.04 721.08L842.52 717.89L838.35 712.60L832.58 708.98L827.41 706.60L823.23 705.27L816.38 704.18L810.09 703.68L805.81 702.32L803.24 701.50L798.24 697.72L795.23 694.98L792.07 693.55L791.25 692.37L790.70 688.57L789.83 682.98L789.59 677.51L780.75 676.10L778.88 675.80L774.23 673.87L771.11 671.61L769.01 668.54L767.58 664.54L765.58 663.18L762.57 660.52L760.19 659.42L758.00 659.75L756.90 661.48L753.98 662.36L752.02 660.70L749.41 656.25L747.55 653.47L746.61 652.21L744.81 651.47L743.47 650.05L742.47 647.12L741.76 644.38L741.82 642.62L741.96 638.60L739.94 633.46L743.22 630.23L742.48 628.46L741.91 627.09L741.65 625.27L741.43 623.71L740.19 620.49L738.53 617.50L735.10 615.57Z" data-ward="8" /><path id="ward-1" class="ward" d="M232.89 367.28L235.69 366.48L237.68 365.52L239.28 363.48L240.50 361.63L242.28 359.54L243.32 358.47L244.45 357.69L246.62 356.06L247.30 354.66L247.78 352.90L248.42 351.12L249.88 349.09L250.81 348.05L250.74 345.06L250.63 343.73L251.41 342.33L253.90 341.82L256.39 341.99L259.38 342.24L261.94 342.18L263.61 341.90L267.62 341.29L269.46 341.79L270.84 342.06L273.12 341.80L275.24 342.15L275.99 343.77L276.66 345.77L277.91 347.15L279.63 349.02L281.05 350.35L283.99 351.12L285.11 348.49L286.51 345.94L287.54 342.93L288.19 340.67L288.95 338.17L289.90 335.92L290.90 333.96L291.97 332.67L293.98 332.06L295.65 332.06L297.02 332.39L307.15 328.90L306.22 326.35L306.08 323.88L306.45 322.44L306.16 320.86L305.54 319.71L304.38 317.62L302.99 315.68L301.86 314.15L300.15 312.61L298.94 311.71L297.70 310.93L295.78 309.96L294.23 308.33L292.68 306.71L293.26 304.48L293.73 302.72L293.62 301.20L293.50 299.68L293.12 298.10L293.18 296.81L293.07 295.36L292.87 293.14L292.84 290.94L292.44 289.19L291.18 288.98L289.74 287.86L288.56 286.71L287.32 285.50L286.37 284.46L285.30 283.27L284.34 281.83L283.31 280.34L281.56 278.04L279.92 275.97L278.78 274.39L278.13 273.10L278.07 271.10L279.94 269.15L282.67 266.42L285.19 264.90L289.15 262.67L293.11 260.45L295.61 260.08L300.10 259.64L303.89 260.81L309.37 262.84L313.38 264.23L319.71 263.34L321.41 261.31L320.00 258.94L319.69 256.66L319.27 254.61L323.25 252.34L325.68 248.98L327.15 246.81L327.37 242.82L326.55 240.37L325.45 237.65L323.36 235.17L321.17 231.40L318.76 226.44L318.22 223.11L318.53 218.67L318.63 216.64L318.72 214.61L317.97 212.40L316.59 208.37L316.05 206.02L316.18 204.38L316.03 201.19L315.68 199.25L314.11 196.26L312.96 194.96L310.71 193.61L308.45 192.78L306.24 191.65L303.65 189.45L305.67 187.29L308.35 187.17L311.04 187.06L312.41 186.20L312.81 184.68L312.22 182.65L311.48 181.04L310.60 179.81L309.73 178.58L309.62 176.83L311.95 174.53L312.65 173.36L313.97 170.68L314.59 169.42L315.47 166.64L315.84 165.26L317.25 163.54L319.33 162.06L320.51 161.22L321.35 159.94L322.32 157.12L323.08 156.06L325.26 154.44L327.18 154.20L328.86 154.01L330.11 152.53L330.89 150.39L331.23 148.19L330.61 146.20L329.13 144.85L327.80 142.20L326.71 139.92L327.11 137.67L328.27 136.81L330.07 137.04L331.35 137.33L335.45 138.20L338.50 138.97L340.34 139.44L342.12 139.71L345.16 140.45L347.08 141.33L347.64 142.89L348.14 144.27L348.83 145.61L349.53 146.95L350.86 148.36L353.29 146.83L355.54 143.68L356.85 144.91L358.93 145.48L362.10 146.19L363.94 145.91L368.37 144.47L370.90 144.09L373.39 143.31L375.64 142.51L375.77 140.93L375.68 139.22L375.62 137.72L376.09 134.81L376.33 132.99L376.46 131.48L376.70 129.06L376.98 127.57L377.48 125.01L378.44 122.07L379.70 120.22L381.35 118.98L382.90 118.77L384.81 120.10L385.89 120.84L388.24 123.18L389.34 123.86L392.51 124.76L393.92 125.20L394.45 121.13L394.32 118.59L393.82 117.29L395.33 110.09L396.47 104.77L397.49 101.89L399.99 100.06L407.11 95.29L414.26 90.50L408.72 90.36L413.57 87.55L416.45 85.39L418.01 84.54L420.09 83.40L423.32 81.63L424.66 80.15L426.18 78.20L426.47 75.57L428.07 72.60L428.88 69.57L429.81 66.48L430.74 63.39L430.81 60.25L430.75 55.26L430.40 53.83L429.35 49.32L424.72 42.58L423.62 41.16L421.22 38.09L419.95 36.56L418.89 35.29L418.70 1.94L415.59 1.78L411.28 1.52L408.68 1.21L404.62 1.36L400.54 1.51L392.96 1.80L382.80 2.14L356.03 3.48L318.72 5.35L311.22 5.09L307.53 4.96L303.94 4.82L289.15 4.21L280.33 3.68L272.40 2.49L261.42 0.90L260.62 10.96L260.08 17.77L258.96 31.87L258.67 35.44L257.10 60.82L225.51 96.73L220.31 102.64L216.80 106.24L214.10 109.46L212.23 111.69L198.58 128.39L192.95 134.04L178.02 149.02L168.98 157.80L160.37 166.66L145.80 181.63L145.52 183.50L145.28 188.83L145.10 193.10L144.92 197.34L143.92 200.41L141.82 207.04L141.06 208.33L139.87 209.58L136.67 213.09L135.86 214.55L134.61 216.80L134.00 218.17L134.56 220.37L136.72 227.60L133.62 228.56L129.66 229.78L125.47 231.08L121.49 232.31L118.95 232.83L115.65 233.50L113.37 233.97L108.67 234.49L107.13 234.65L98.65 235.78L91.64 243.45L87.54 247.73L82.30 253.50L78.47 257.74L75.49 260.97L77.26 265.50L78.23 268.00L79.06 270.03L79.88 271.94L81.17 274.89L82.63 278.28L83.25 279.62L84.65 282.67L86.57 286.73L88.00 289.78L88.99 291.87L91.57 297.34L92.45 299.20L95.85 299.57L102.66 300.32L106.08 300.70L112.87 301.44L115.32 298.53L117.81 294.89L123.67 292.09L126.19 290.53L131.20 287.43L135.70 285.06L140.64 283.21L145.17 281.02L150.93 277.30L155.73 275.09L158.65 274.40L163.22 274.36L169.15 274.73L176.32 274.58L180.63 273.65L183.66 274.06L190.65 275.54L192.01 275.70L193.82 275.33L194.94 274.22L196.12 272.60L197.42 270.97L198.68 269.45L199.14 268.23L199.84 266.41L199.79 264.10L199.84 262.41L200.15 260.86L201.38 259.51L203.49 258.68L206.46 258.14L207.95 259.94L209.67 261.79L211.35 262.82L213.28 263.19L215.56 263.47L218.97 263.14L222.17 263.67L223.32 264.84L223.89 266.11L225.04 267.76L225.92 269.17L227.12 271.59L227.67 272.90L228.09 274.30L228.14 275.67L228.09 278.26L228.49 280.41L228.45 283.43L227.37 284.97L226.29 287.29L227.56 288.97L228.13 290.60L226.83 291.96L225.90 292.91L224.70 294.96L222.99 297.39L221.74 299.72L220.87 301.15L220.09 302.20L219.14 303.47L217.69 305.42L215.85 307.60L214.83 308.82L214.05 310.09L213.64 312.02L214.14 314.15L214.92 316.16L215.87 317.86L217.48 320.09L219.95 322.70L221.13 324.35L221.07 326.09L220.40 328.84L219.47 331.75L218.98 334.18L218.32 336.31L217.55 338.70L216.43 339.98L215.45 340.84L214.00 341.67L211.39 342.75L209.84 342.97L207.97 342.77L206.06 342.25L204.92 342.94L205.63 344.29L207.33 346.14L208.73 347.49L210.08 348.67L212.80 351.27L214.64 353.62L215.84 355.10L216.81 356.31L218.18 358.15L219.36 360.06L220.24 361.52L220.43 365.08L220.08 367.49L219.89 369.23L219.76 371.06L219.64 373.05L219.30 375.19L218.87 377.23L218.25 378.87L217.92 381.28L220.41 378.55L223.31 375.94L225.82 373.97L227.34 372.31L229.38 369.55L230.13 368.46L232.89 367.28Z" data-ward="1" /><path id="ward-11" class="ward" d="M395.46 632.64L396.65 632.77L396.98 632.80L397.56 630.96L398.57 628.75L399.89 627.46L400.83 626.54L401.66 624.93L402.22 623.16L402.56 621.90L402.98 620.36L406.01 618.49L407.66 616.92L407.98 613.71L407.66 610.28L407.49 607.68L407.24 604.01L406.32 602.35L406.03 600.62L405.07 598.24L404.34 596.52L403.12 595.28L402.20 594.21L401.47 591.52L400.06 590.01L398.60 587.45L398.24 586.14L398.17 584.22L398.28 581.81L396.38 580.38L396.57 577.81L395.88 575.79L396.33 573.30L395.13 572.46L393.85 572.40L392.18 572.08L392.40 570.75L393.59 569.95L396.05 569.07L397.94 567.44L398.62 565.37L397.54 562.32L397.95 560.77L399.28 558.81L398.02 557.56L398.50 555.80L399.33 552.44L399.54 550.83L399.76 549.34L401.29 544.64L401.43 542.17L402.79 539.71L403.63 538.25L404.47 536.79L404.26 533.89L403.31 530.40L402.51 526.20L402.43 523.39L403.32 521.18L405.55 519.90L407.26 518.26L408.65 516.98L408.03 514.72L406.58 515.07L405.40 515.65L404.20 516.54L402.32 516.26L401.05 516.87L399.68 517.21L397.02 518.43L393.40 520.39L390.23 521.26L387.71 520.91L385.34 521.04L382.19 522.38L381.18 523.66L379.89 525.24L378.10 527.84L376.45 529.95L374.48 531.76L373.70 533.06L373.35 534.43L372.39 536.27L374.10 537.75L374.69 541.16L375.08 544.56L374.58 547.64L372.16 551.78L369.04 555.53L366.24 558.93L363.39 560.83L360.73 562.84L359.36 565.85L358.61 561.46L357.56 556.39L356.79 552.46L355.28 550.41L353.01 548.52L349.78 545.33L349.51 542.58L349.45 539.96L349.24 538.59L349.98 537.10L349.80 535.69L347.32 534.98L344.45 534.05L339.11 534.79L336.35 532.62L333.82 531.56L330.91 531.63L327.04 530.50L322.92 529.86L318.46 530.82L314.44 529.59L311.41 528.63L304.17 527.50L299.21 526.68L296.11 525.81L293.58 524.48L287.20 521.08L286.04 518.59L284.76 515.86L283.31 516.42L280.87 520.42L278.67 525.22L276.26 527.29L274.91 527.62L273.12 526.76L270.81 524.67L268.14 522.42L265.74 520.44L261.81 521.47L259.82 521.98L257.89 522.53L255.60 523.17L255.49 528.22L255.46 529.99L255.25 532.52L254.63 540.01L254.36 548.61L254.85 553.84L253.51 558.66L253.15 561.68L253.54 566.47L253.73 572.07L253.94 576.34L253.13 579.41L251.37 581.46L246.65 584.18L242.77 585.70L240.75 587.57L239.93 589.78L238.36 592.99L237.57 594.60L237.04 596.15L235.55 600.54L233.65 605.24L232.96 608.14L231.62 611.43L232.81 614.35L234.40 618.19L235.57 621.01L236.13 622.59L236.97 624.96L238.44 627.28L240.25 628.04L243.87 630.10L247.33 631.56L246.22 633.81L244.21 636.26L243.15 637.15L241.14 638.03L239.39 640.36L237.95 640.47L236.08 640.62L235.53 643.07L234.68 646.18L235.91 649.64L238.30 653.74L239.74 656.53L240.85 659.80L242.20 663.46L242.57 667.74L242.81 671.40L242.50 674.88L242.74 679.54L243.13 682.65L243.21 686.72L244.17 694.87L246.11 703.86L247.74 707.63L248.36 711.86L246.93 717.43L246.08 719.89L245.34 722.06L244.60 724.24L232.91 730.04L219.93 736.55L207.17 745.66L202.33 745.79L197.56 745.35L179.93 755.86L180.03 766.31L187.01 781.06L203.35 794.81L230.35 812.71L247.50 813.56L251.05 809.19L254.84 804.87L258.41 803.43L261.70 803.75L264.02 804.41L267.26 804.18L270.08 804.33L269.14 805.77L267.38 807.74L270.83 807.66L275.34 807.56L279.65 809.06L283.62 810.31L294.73 803.44L295.38 801.92L296.29 800.38L297.19 799.13L294.62 796.85L288.78 788.77L284.62 783.02L279.33 775.69L278.67 774.00L275.70 766.39L273.19 759.97L270.66 755.63L268.84 750.93L264.22 738.92L260.75 729.90L257.11 720.46L253.62 711.38L250.03 702.06L247.23 694.79L258.20 690.32L269.99 685.79L273.93 684.28L276.74 683.44L285.87 681.27L292.28 680.07L298.64 678.06L301.51 677.16L306.83 675.76L312.18 674.35L316.28 674.04L319.09 673.83L320.99 673.69L325.81 671.57L335.49 672.92L336.32 672.86L344.58 672.28L347.05 673.28L347.53 673.26L348.88 673.23L350.22 673.44L351.29 672.38L352.35 671.34L355.47 669.73L357.52 669.03L359.76 669.94L361.04 670.72L362.77 671.90L365.71 673.82L370.55 675.29L376.37 676.80L381.52 669.14L384.15 664.29L385.88 661.00L387.61 657.71L388.27 656.48L390.07 652.88L390.72 651.59L392.16 649.40L392.25 647.78L391.87 646.00L391.26 643.92L390.98 642.18L390.69 640.44L391.13 637.90L391.91 636.31L392.67 634.83L393.61 633.37L393.69 631.92L393.71 631.61L394.56 630.37L395.46 632.64Z" data-ward="11" /><path id="ward-14" class="ward" d="M217.92 381.28L218.25 378.87L218.87 377.23L219.30 375.19L219.64 373.05L219.76 371.06L219.89 369.23L220.08 367.49L220.43 365.08L220.24 361.52L219.36 360.06L218.18 358.15L216.81 356.31L215.84 355.10L214.64 353.62L212.80 351.27L210.08 348.67L208.73 347.49L207.33 346.14L205.63 344.29L204.92 342.94L206.06 342.25L207.97 342.77L209.84 342.97L211.39 342.75L214.00 341.67L215.45 340.84L216.43 339.98L217.55 338.70L218.32 336.31L218.98 334.18L219.47 331.75L220.40 328.84L221.07 326.09L221.13 324.35L219.95 322.70L217.48 320.09L215.87 317.86L214.92 316.16L214.14 314.15L213.64 312.02L214.05 310.09L214.83 308.82L215.85 307.60L217.69 305.42L219.14 303.47L220.09 302.20L220.87 301.15L221.74 299.72L222.99 297.39L224.70 294.96L225.90 292.91L226.83 291.96L228.13 290.60L227.56 288.97L226.29 287.29L227.37 284.97L228.45 283.43L228.49 280.41L228.09 278.26L228.14 275.67L228.09 274.30L227.67 272.90L227.12 271.59L225.92 269.17L225.04 267.76L223.89 266.11L223.32 264.84L222.17 263.67L218.97 263.14L215.56 263.47L213.28 263.19L211.35 262.82L209.67 261.79L207.95 259.94L206.46 258.14L203.49 258.68L201.38 259.51L200.15 260.86L199.84 262.41L199.79 264.10L199.84 266.41L199.14 268.23L198.68 269.45L197.42 270.97L196.12 272.60L194.94 274.22L193.82 275.33L192.01 275.70L190.65 275.54L183.66 274.06L180.63 273.65L176.32 274.58L169.15 274.73L163.22 274.36L158.65 274.40L155.73 275.09L150.93 277.30L145.17 281.02L140.64 283.21L135.70 285.06L131.20 287.43L126.19 290.53L123.67 292.09L117.81 294.89L115.32 298.53L112.87 301.44L117.28 301.65L122.18 301.90L127.42 302.10L129.31 302.17L134.00 302.35L135.47 302.39L138.71 302.48L140.28 302.52L141.81 302.57L143.44 302.62L144.98 302.66L146.47 302.71L148.16 304.65L149.94 306.74L151.57 308.61L152.58 309.78L154.85 312.31L157.13 314.81L158.48 316.30L161.89 320.06L162.70 321.70L164.11 324.56L165.31 326.99L166.48 329.38L167.80 332.05L168.27 333.75L168.69 335.02L169.58 338.07L170.38 340.78L165.50 355.11L165.55 357.15L165.59 358.94L165.65 361.44L165.71 363.89L165.82 368.61L165.86 370.28L165.89 371.70L165.94 373.69L165.98 375.42L166.07 379.55L166.11 381.26L166.11 383.99L166.11 385.36L166.11 386.72L166.11 388.09L166.11 389.45L166.11 390.82L166.11 393.55L166.10 394.92L164.44 397.45L162.72 400.07L161.31 407.13L160.88 409.31L160.14 413.00L160.31 414.78L160.53 417.14L157.36 417.12L153.55 419.86L151.57 421.28L150.03 422.39L148.73 423.33L147.59 424.14L145.33 425.77L143.40 427.17L140.79 429.05L139.56 429.93L136.67 432.01L134.96 433.15L133.33 434.19L131.28 435.59L128.59 437.35L127.58 438.45L126.61 439.49L124.16 442.14L121.75 444.75L119.32 447.38L117.96 448.85L115.97 451.00L114.67 452.41L113.45 453.73L107.73 459.91L105.52 462.29L104.54 463.36L102.97 465.06L101.14 467.07L99.34 469.04L96.35 472.32L94.59 474.24L92.97 476.20L85.36 485.44L75.89 496.92L71.74 501.95L70.71 503.21L68.63 504.12L66.12 505.21L63.10 506.53L61.08 507.30L59.10 508.05L56.58 509.00L54.25 509.89L52.97 510.37L52.52 508.09L50.21 503.81L47.25 501.45L45.07 499.71L42.33 497.52L39.14 494.97L38.10 494.14L36.52 494.15L33.94 494.16L30.85 494.18L29.25 497.48L28.60 498.82L32.84 502.09L32.44 503.62L31.49 507.25L28.42 506.13L23.75 504.42L17.87 502.70L15.06 501.00L9.84 501.76L9.19 504.03L16.09 505.71L20.36 508.91L23.24 510.30L25.14 510.91L26.45 511.24L28.30 511.36L31.57 511.45L35.92 512.10L42.50 513.36L49.29 515.15L66.80 521.29L74.79 521.67L79.01 522.34L82.68 523.25L88.73 521.80L94.69 522.39L96.07 522.44L98.05 522.70L99.70 522.90L101.41 523.01L102.95 523.10L104.32 523.30L107.10 524.63L108.97 524.60L111.42 523.51L115.51 521.44L117.60 521.54L120.15 521.83L123.12 522.17L128.32 521.97L135.83 521.66L137.52 522.15L139.65 522.57L142.71 524.97L146.01 526.42L149.63 527.07L155.15 526.80L160.08 526.04L160.95 528.91L164.12 533.46L167.79 536.87L172.85 541.78L175.46 544.99L176.82 546.11L181.91 550.36L186.97 553.86L192.28 558.11L198.07 563.29L198.72 564.53L200.41 567.77L204.48 571.71L208.22 575.22L213.20 579.34L217.57 584.05L222.31 593.32L226.66 601.68L230.47 608.59L231.62 611.43L232.96 608.14L233.65 605.24L235.55 600.54L237.04 596.15L237.57 594.60L238.36 592.99L239.93 589.78L240.75 587.57L242.77 585.70L246.65 584.18L251.37 581.46L253.13 579.41L253.94 576.34L253.73 572.07L253.54 566.47L253.15 561.68L253.51 558.66L254.85 553.84L254.36 548.61L254.63 540.01L255.25 532.52L255.46 529.99L255.49 528.22L255.60 523.17L257.89 522.53L259.82 521.98L261.81 521.47L265.74 520.44L267.38 509.83L262.62 507.63L259.86 505.79L261.86 501.99L262.88 499.12L264.02 495.97L266.02 491.69L268.50 488.20L270.54 485.45L273.05 484.05L275.15 482.63L277.92 481.00L280.47 479.00L280.50 476.90L279.56 475.62L277.78 474.59L275.84 473.94L273.56 473.16L271.92 473.03L270.21 473.14L268.38 473.95L267.09 474.03L265.67 474.05L264.62 475.47L264.59 478.24L262.79 478.74L259.08 478.32L255.50 477.39L254.24 477.94L252.73 479.05L250.52 480.46L247.76 481.93L244.81 483.18L240.84 484.83L236.70 486.38L231.17 487.72L228.80 487.38L224.46 486.47L222.53 484.80L220.49 483.01L219.02 480.82L217.44 478.92L215.70 477.10L214.37 476.55L211.78 475.70L209.79 475.05L206.46 473.95L203.34 473.07L202.04 472.43L200.00 471.11L197.45 469.71L194.03 467.29L190.79 464.99L188.52 463.65L185.32 463.06L183.49 464.31L182.02 465.53L180.34 466.96L178.97 467.82L177.28 468.62L175.51 469.06L172.88 469.46L170.11 470.42L167.74 471.26L165.67 471.71L164.07 471.84L161.80 472.16L162.66 468.92L163.15 464.01L163.65 459.44L163.80 455.87L163.54 452.85L162.99 450.17L162.66 448.47L162.67 446.64L162.95 444.71L163.76 443.25L165.64 441.48L166.98 441.28L168.38 440.91L169.98 439.17L173.23 435.28L176.06 431.83L179.80 429.43L184.29 427.56L189.35 425.01L193.95 421.96L197.23 417.37L199.79 412.65L202.85 408.42L205.56 406.33L208.43 404.18L212.49 400.86L214.76 398.54L215.27 396.50L215.92 392.55L216.69 388.21L217.15 384.33L217.92 381.28Z" data-ward="14" /><path id="ward-5" class="ward" d="M661.63 491.05L662.61 489.43L663.46 487.79L663.91 486.26L663.26 483.40L662.18 482.69L660.80 481.46L659.03 479.52L657.97 478.35L656.82 476.24L655.69 474.70L653.83 472.47L654.29 470.11L655.17 467.73L655.87 466.42L656.35 463.81L656.61 460.85L656.07 458.22L653.46 455.42L654.80 454.26L656.10 453.59L657.76 452.30L658.57 450.92L659.65 448.53L661.00 444.47L661.28 442.99L661.80 440.26L662.07 438.22L662.11 435.69L661.98 433.44L661.01 430.85L659.84 429.57L658.90 428.55L657.48 426.35L653.57 425.80L651.38 425.53L649.40 424.94L649.19 422.89L649.89 420.51L650.50 418.70L651.81 415.21L652.25 413.45L651.98 411.15L651.82 409.81L651.46 406.94L651.19 404.64L653.88 403.48L655.80 402.78L657.72 402.31L659.16 396.03L660.87 396.26L663.45 397.05L677.62 399.64L683.39 403.12L687.22 404.91L690.35 406.10L691.64 406.59L695.64 408.40L698.15 411.28L702.90 412.41L704.81 413.59L708.05 415.37L709.44 413.47L724.29 393.24L726.19 394.53L727.52 395.56L730.11 396.89L731.39 397.11L734.11 397.10L736.19 396.87L738.03 396.94L739.62 397.09L742.22 398.53L743.60 399.50L745.69 399.48L747.24 398.16L748.18 397.28L749.38 396.17L752.11 394.94L754.95 394.56L759.04 393.82L762.92 393.73L756.49 384.75L748.70 373.88L742.33 365.00L736.70 357.14L717.58 300.20L706.81 291.17L709.11 280.02L702.82 275.11L703.45 272.44L697.94 272.19L696.31 273.35L691.86 276.52L688.68 278.78L686.73 278.86L684.82 278.04L680.79 273.24L676.56 271.72L674.82 271.59L670.25 271.25L665.22 270.88L660.17 271.83L659.06 272.66L657.52 273.79L654.72 275.87L652.08 277.82L649.94 280.92L646.48 282.83L644.52 285.75L644.61 287.51L645.05 289.98L645.49 292.46L647.36 295.44L650.85 299.45L653.53 301.28L656.04 302.96L659.88 305.53L664.36 308.54L661.14 311.47L660.29 313.20L650.20 319.58L648.30 321.75L646.44 325.44L647.01 328.11L648.42 330.84L647.39 332.82L645.75 334.18L644.59 336.16L646.02 338.85L653.54 341.93L657.72 343.63L658.93 344.58L660.53 346.88L660.92 349.40L660.78 351.36L660.68 352.88L660.40 355.98L660.28 358.62L660.20 360.03L660.12 361.75L660.06 363.26L659.97 364.54L659.79 366.91L659.61 368.84L659.11 371.54L657.51 373.23L656.06 373.29L653.55 373.39L649.51 373.75L647.24 373.64L644.72 372.56L642.13 371.67L638.97 371.01L635.21 369.14L631.55 367.50L629.60 366.85L626.82 366.31L624.39 365.23L620.96 364.40L618.06 364.41L612.65 363.44L607.43 362.26L603.16 361.42L600.32 360.64L596.21 359.11L592.81 357.14L588.47 355.12L584.93 354.93L581.84 355.84L580.54 355.52L574.29 352.63L569.11 350.46L564.35 348.72L562.46 347.40L560.73 345.44L559.00 344.31L556.90 343.64L554.46 343.18L551.54 342.76L548.75 341.05L545.29 339.87L543.33 338.07L540.91 336.04L538.10 335.07L535.02 334.41L531.02 333.61L528.29 334.23L527.04 335.86L526.15 337.72L524.96 339.22L521.15 339.94L519.05 340.18L517.43 339.36L515.78 337.49L511.91 333.70L505.34 326.35L504.43 325.06L502.49 324.03L500.05 323.25L496.20 322.12L491.16 321.00L486.57 319.49L481.93 317.84L478.23 315.85L472.05 313.33L470.39 314.05L468.06 315.57L466.62 316.02L464.18 316.27L462.65 315.33L460.79 315.13L459.57 314.73L456.90 315.02L454.08 315.67L452.12 316.11L451.83 318.64L452.07 319.91L452.31 321.17L451.91 322.81L450.07 324.67L448.30 326.80L446.99 328.38L446.12 330.00L444.15 333.76L443.31 335.65L442.31 337.54L441.56 339.28L440.93 342.15L440.69 344.29L440.96 347.15L441.12 348.84L441.31 351.40L441.16 353.25L440.80 354.99L440.38 356.26L439.78 357.60L438.68 359.77L438.16 362.36L438.91 365.04L440.08 367.72L439.91 370.23L439.17 371.91L438.29 373.55L436.46 375.67L435.38 379.35L436.23 382.60L436.96 384.49L437.00 385.96L438.75 386.73L440.52 387.39L442.19 387.73L443.55 387.95L446.22 388.33L447.72 388.49L450.69 389.65L452.08 390.36L453.59 391.56L454.89 394.06L455.87 396.01L456.68 398.69L456.85 400.92L456.49 404.08L456.13 405.91L456.15 407.66L457.48 408.86L458.91 408.43L461.31 407.99L462.81 408.00L464.08 407.91L467.11 407.62L469.12 407.90L470.75 407.05L470.61 404.34L470.45 402.37L470.33 400.20L471.52 397.30L473.37 395.92L473.96 394.18L473.72 391.86L473.56 390.29L473.57 387.02L475.43 384.70L477.13 383.58L479.06 382.33L480.91 381.12L486.06 382.06L488.02 382.26L491.43 383.38L493.36 383.88L496.36 383.70L497.37 382.65L498.35 381.64L499.72 378.36L500.57 376.66L502.31 374.80L504.39 372.47L506.31 372.76L506.59 375.51L506.77 377.95L507.46 379.26L507.28 381.95L507.15 384.13L506.65 385.97L506.38 387.31L506.34 388.60L507.57 390.51L509.00 392.33L510.35 394.56L511.11 395.86L512.37 397.85L513.83 400.66L514.35 403.54L515.19 404.92L516.21 406.98L515.42 409.49L514.48 411.14L514.32 413.48L514.12 415.44L512.33 418.40L512.10 422.45L511.26 425.09L510.50 427.92L508.54 427.80L503.21 427.47L503.24 430.25L503.26 432.16L504.22 434.20L503.98 439.39L503.91 440.75L503.94 442.23L504.08 445.22L504.18 446.75L504.58 449.40L504.80 450.78L505.67 452.88L506.33 454.48L509.14 455.74L510.75 456.06L511.01 458.96L513.60 458.91L515.23 459.30L518.61 460.22L520.36 460.69L522.38 461.51L525.62 463.68L528.87 465.33L530.76 466.29L532.21 466.21L532.54 464.53L531.83 462.94L531.95 459.90L532.83 457.91L534.03 456.81L535.00 455.96L537.37 455.08L538.90 455.25L540.10 456.23L541.88 457.93L542.62 459.09L543.34 460.27L544.17 461.80L544.97 463.28L545.61 467.00L545.40 470.06L545.96 471.27L546.46 472.59L547.21 474.61L547.92 476.30L548.83 478.02L547.02 480.24L543.71 482.74L541.41 483.85L537.68 485.20L534.92 487.37L533.30 491.21L532.50 493.34L533.62 495.99L534.80 497.79L536.11 499.46L537.13 500.36L539.04 500.44L541.89 500.55L543.58 503.85L543.88 506.96L545.46 511.17L546.63 514.31L547.50 516.63L549.20 518.89L550.32 519.90L551.84 522.09L553.91 525.87L554.82 529.20L555.90 530.66L557.94 532.64L559.47 533.82L560.79 533.85L563.64 532.33L566.05 530.55L569.54 528.94L572.07 529.84L573.73 530.27L575.39 530.32L577.61 532.12L580.74 532.92L583.11 533.30L584.78 532.27L586.84 530.63L588.57 529.13L590.89 528.99L589.43 523.43L588.82 521.85L588.15 519.94L587.55 516.60L587.16 512.41L586.38 508.85L585.87 506.87L583.99 504.86L582.59 504.01L585.99 502.22L586.97 501.18L588.02 500.28L589.12 498.81L591.60 497.95L593.69 496.65L596.22 495.07L600.23 493.32L601.86 493.27L605.22 493.16L606.78 493.00L609.23 492.07L611.40 491.81L613.76 490.17L615.17 489.19L619.58 488.52L624.54 488.89L632.84 489.61L635.29 489.33L637.14 489.43L638.97 489.13L640.56 489.13L642.92 488.98L644.29 489.16L646.95 489.71L650.26 492.19L652.52 494.28L654.77 495.53L656.53 494.07L658.94 494.61L660.25 496.39L661.00 493.05L661.63 491.05Z" data-ward="5" /><path id="ward-6" class="ward" d="M730.11 396.89L727.52 395.56L726.19 394.53L724.29 393.24L709.44 413.47L708.05 415.37L704.81 413.59L702.90 412.41L698.15 411.28L695.64 408.40L691.64 406.59L690.35 406.10L687.22 404.91L683.39 403.12L677.62 399.64L663.45 397.05L660.87 396.26L659.16 396.03L657.72 402.31L655.80 402.78L653.88 403.48L651.19 404.64L651.46 406.94L651.82 409.81L651.98 411.15L652.25 413.45L651.81 415.21L650.50 418.70L649.89 420.51L649.19 422.89L649.40 424.94L651.38 425.53L653.57 425.80L657.48 426.35L658.90 428.55L659.84 429.57L661.01 430.85L661.98 433.44L662.11 435.69L662.07 438.22L661.80 440.26L661.28 442.99L661.00 444.47L659.65 448.53L658.57 450.92L657.76 452.30L656.10 453.59L654.80 454.26L653.46 455.42L656.07 458.22L656.61 460.85L656.35 463.81L655.87 466.42L655.17 467.73L654.29 470.11L653.83 472.47L655.69 474.70L656.82 476.24L657.97 478.35L659.03 479.52L660.80 481.46L662.18 482.69L663.26 483.40L663.91 486.26L663.46 487.79L662.61 489.43L661.63 491.05L661.00 493.05L660.25 496.39L661.94 498.93L663.31 500.82L665.41 503.25L668.06 505.20L670.45 506.96L672.30 508.73L672.47 510.04L671.43 511.96L670.09 515.29L670.12 516.86L670.07 519.42L670.25 522.57L670.43 525.75L670.32 530.26L670.30 532.93L670.30 535.80L670.82 538.37L670.54 539.98L668.08 541.03L666.73 541.31L664.77 542.13L662.19 543.32L660.11 544.92L657.34 546.84L655.60 548.07L654.05 549.66L653.31 551.99L651.14 554.86L650.26 555.83L649.82 558.01L649.80 559.73L648.39 561.68L646.44 564.46L646.61 568.35L646.71 570.53L646.06 571.78L643.62 576.31L642.44 577.06L641.33 577.84L639.09 580.82L638.38 582.04L636.54 584.81L634.65 587.69L633.33 589.60L631.88 591.29L629.65 593.22L627.46 595.39L626.47 597.25L626.61 598.95L627.28 601.62L627.74 603.33L628.16 605.20L628.61 607.82L629.12 610.51L629.48 614.06L629.09 615.94L628.33 617.48L627.40 619.96L626.67 622.95L626.98 624.87L627.67 629.23L628.25 631.88L629.20 634.65L630.35 638.34L631.52 640.64L632.20 642.17L630.86 644.60L628.99 645.61L628.77 647.76L629.09 649.43L628.68 652.48L627.91 654.58L626.95 656.35L628.54 656.85L630.99 657.80L634.48 658.30L639.08 658.90L643.18 659.07L646.88 658.56L649.68 654.13L651.17 650.88L652.50 648.84L653.85 646.76L655.06 644.44L656.05 642.52L657.38 639.29L659.75 637.39L661.85 636.39L664.04 635.47L665.38 634.94L667.43 634.71L669.69 634.45L671.45 634.72L673.56 633.82L675.18 631.76L675.61 630.07L674.98 627.05L674.15 622.98L678.28 619.72L679.66 618.71L682.83 616.38L686.14 613.59L688.08 612.43L692.99 611.23L696.45 610.87L700.53 611.38L702.48 610.99L703.53 609.50L705.36 605.27L706.35 603.38L707.44 601.73L710.01 602.79L714.36 605.06L717.16 607.09L718.51 609.36L718.96 610.69L719.20 615.21L721.89 615.61L725.27 615.48L728.66 615.53L730.35 615.55L733.52 616.45L735.10 615.57L737.17 613.66L737.75 612.12L738.40 609.75L738.89 607.63L745.26 607.70L749.45 607.68L751.21 606.90L752.21 605.34L754.60 602.23L756.52 598.86L759.25 596.01L761.90 593.43L761.97 589.99L763.40 588.33L765.85 587.56L770.26 588.16L770.74 584.78L772.25 584.37L773.66 582.77L774.92 579.85L774.90 577.14L774.64 573.71L774.94 572.03L775.09 570.75L774.58 568.02L777.03 568.94L778.81 569.23L781.95 568.33L781.95 564.26L781.20 558.43L777.71 555.80L771.64 550.45L775.70 546.91L780.07 542.40L781.43 540.77L783.63 540.23L785.77 539.20L790.04 535.98L793.15 534.16L796.85 532.19L800.67 531.37L804.24 530.81L806.04 531.78L807.03 532.87L809.60 532.78L812.04 533.62L814.76 535.08L817.81 538.32L820.01 540.53L822.38 544.20L823.63 546.22L825.21 547.74L828.81 546.73L831.54 544.61L833.66 541.90L835.82 541.79L838.73 543.24L840.24 545.82L841.78 547.77L844.98 549.05L848.83 549.85L852.33 550.55L856.38 549.45L860.19 548.37L865.05 545.01L868.26 541.97L872.99 537.84L876.06 535.00L879.36 534.02L882.19 532.52L883.97 533.57L885.40 534.73L886.57 536.04L887.97 537.59L889.37 539.00L891.08 540.46L892.85 541.92L894.53 543.95L896.58 546.34L898.27 548.77L900.09 551.46L902.34 554.78L904.81 557.56L907.38 559.73L910.49 563.68L917.20 569.30L918.42 570.62L919.42 571.68L920.28 572.86L921.70 574.36L922.88 575.61L924.13 576.70L925.16 577.69L926.24 578.67L927.11 579.73L927.96 580.92L929.54 583.45L930.61 585.15L932.06 587.25L933.11 588.64L934.01 590.03L934.54 591.32L934.35 593.58L934.24 595.21L934.21 596.64L933.76 598.52L932.86 599.55L930.83 600.47L929.04 601.82L927.66 603.06L926.45 605.76L925.85 607.63L925.70 609.65L926.54 611.82L927.35 613.13L928.29 614.04L929.55 614.39L931.60 615.19L932.95 615.66L934.71 617.28L936.59 618.76L938.31 619.67L939.66 620.46L941.57 621.23L943.01 623.20L942.35 625.34L942.84 627.35L944.31 630.84L945.03 625.63L944.87 613.97L944.77 606.28L944.75 604.99L944.02 603.15L943.48 601.77L942.63 599.62L941.77 597.43L940.91 595.26L939.75 592.31L936.23 586.94L932.78 581.68L928.26 574.78L921.94 565.13L921.10 563.40L920.25 561.76L914.47 551.37L910.52 544.31L908.39 540.80L904.45 535.52L899.89 529.28L882.40 507.10L881.58 506.12L878.35 500.19L880.86 494.74L884.30 486.70L886.24 480.42L887.47 475.50L888.42 468.16L888.90 464.46L889.38 460.80L889.66 458.61L885.14 458.87L883.70 458.95L882.24 459.04L875.16 459.68L864.50 460.64L860.15 461.04L857.19 460.44L852.89 459.59L849.48 458.92L845.19 458.08L843.33 455.87L840.33 452.28L835.83 451.06L834.24 450.63L832.96 450.28L831.30 449.82L828.10 448.95L824.92 448.09L823.54 447.71L821.78 447.62L818.25 447.43L816.48 447.34L814.72 447.25L811.18 447.06L809.60 446.50L808.35 446.05L806.35 445.33L803.43 444.28L802.14 443.82L800.88 443.37L796.88 439.15L794.57 436.15L793.79 435.14L791.47 432.14L788.69 428.53L782.90 421.03L779.11 416.13L778.13 414.85L777.15 413.58L772.59 407.22L770.50 404.30L768.27 401.19L767.17 399.66L765.36 397.13L762.92 393.73L759.04 393.82L754.95 394.56L752.11 394.94L749.38 396.17L748.18 397.28L747.24 398.16L745.69 399.48L743.60 399.50L742.22 398.53L739.62 397.09L738.03 396.94L736.19 396.87L734.11 397.10L731.39 397.11L730.11 396.89Z" data-ward="6" /><path id="ward-9" class="ward" d="M624.54 488.89L619.58 488.52L615.17 489.19L613.76 490.17L611.40 491.81L609.23 492.07L606.78 493.00L605.22 493.16L601.86 493.27L600.23 493.32L596.22 495.07L593.69 496.65L591.60 497.95L589.12 498.81L588.02 500.28L586.97 501.18L585.99 502.22L582.59 504.01L583.99 504.86L585.87 506.87L586.38 508.85L587.16 512.41L587.55 516.60L588.15 519.94L588.82 521.85L589.43 523.43L590.89 528.99L588.57 529.13L586.84 530.63L584.78 532.27L583.11 533.30L580.74 532.92L577.61 532.12L575.39 530.32L573.73 530.27L572.07 529.84L569.54 528.94L566.05 530.55L563.64 532.33L560.79 533.85L559.47 533.82L557.94 532.64L555.90 530.66L554.82 529.20L553.91 525.87L551.84 522.09L550.32 519.90L549.20 518.89L547.50 516.63L546.63 514.31L543.79 516.70L542.34 517.07L540.18 517.54L536.25 517.72L530.90 517.89L527.95 517.54L524.79 518.05L522.70 518.87L522.42 520.16L522.04 522.09L522.00 523.73L522.63 525.58L523.21 527.13L522.81 529.39L522.49 531.47L522.23 535.32L522.03 537.40L521.87 539.02L521.75 541.09L521.67 544.50L521.86 546.38L522.08 548.63L522.70 551.36L523.20 553.68L523.67 555.82L526.46 556.15L529.34 556.49L531.53 556.75L536.65 557.38L540.35 557.90L542.56 558.71L544.76 559.53L552.35 562.37L549.96 568.77L548.07 573.93L546.35 579.89L543.27 588.20L542.12 593.12L544.60 599.48L542.58 600.94L536.55 605.30L534.18 608.24L531.45 611.64L525.82 615.29L518.58 616.92L515.83 619.21L513.23 620.28L509.90 621.19L509.07 620.08L508.27 619.02L506.96 617.37L504.75 618.59L500.66 619.36L498.14 618.83L494.18 618.61L492.59 618.89L489.83 619.58L488.48 620.08L486.74 621.10L483.15 628.28L480.51 628.34L477.97 628.34L475.28 627.67L473.76 627.97L471.74 628.31L469.52 628.69L467.24 630.12L466.34 632.01L465.52 634.28L464.57 636.08L463.29 638.40L462.10 639.22L460.22 640.08L456.65 641.19L453.67 641.30L450.87 641.55L449.73 642.36L448.59 643.11L447.75 644.23L447.41 645.53L447.10 647.78L446.81 650.37L446.76 652.53L445.95 653.92L444.19 655.25L439.19 657.40L435.85 658.28L434.03 658.01L431.61 657.99L428.02 658.17L426.32 659.00L425.33 659.82L424.36 661.09L423.61 663.19L422.55 664.41L420.84 666.26L419.77 667.30L418.59 668.16L417.58 669.05L416.03 670.57L412.72 676.41L408.84 680.18L405.29 682.58L401.00 683.13L396.40 682.59L391.53 682.10L388.61 681.13L384.96 679.38L381.35 678.08L376.37 676.80L370.55 675.29L365.71 673.82L362.77 671.90L361.04 670.72L359.76 669.94L357.52 669.03L355.47 669.73L352.35 671.34L358.04 673.05L361.38 674.61L364.76 677.07L368.14 679.54L371.10 681.79L374.18 684.14L375.95 685.50L382.97 690.36L389.70 695.01L391.75 695.57L393.79 696.11L395.90 696.68L397.89 697.53L399.66 697.86L404.84 698.81L409.05 700.47L411.44 701.41L413.98 702.41L415.97 703.19L417.82 703.65L420.73 704.36L424.66 705.32L426.41 705.75L431.66 705.94L434.08 706.02L435.55 706.75L445.15 709.45L445.27 711.58L445.42 714.20L445.11 716.65L445.12 718.56L444.70 722.70L444.39 725.87L443.84 731.44L442.71 734.13L440.12 743.05L440.29 747.85L440.52 754.25L439.36 757.97L438.76 759.39L439.11 761.61L440.60 771.14L442.33 779.28L443.34 784.04L443.37 786.68L445.08 785.98L451.24 783.45L455.71 781.55L460.37 779.54L466.52 777.16L470.81 775.25L476.95 772.25L479.95 770.76L483.89 769.18L485.60 768.48L488.57 767.13L490.19 766.39L491.28 765.69L495.57 762.92L501.35 758.85L507.21 754.39L515.17 748.09L518.93 744.63L523.05 742.55L525.99 741.54L528.91 740.94L532.80 740.99L536.38 741.22L538.95 740.67L541.57 739.52L544.01 738.37L546.52 737.33L549.34 736.20L552.07 735.31L555.40 734.69L554.20 732.81L552.49 731.22L551.48 729.62L551.51 727.29L551.61 726.00L551.25 723.21L551.32 719.77L552.10 718.07L552.93 716.92L554.32 714.29L555.40 712.92L557.14 711.21L558.43 710.06L559.82 709.43L562.94 709.38L566.30 709.75L568.10 709.73L569.34 708.17L570.57 706.61L573.28 705.95L575.88 705.64L577.24 705.47L578.51 705.31L580.22 704.97L581.16 703.23L581.69 701.77L582.68 699.50L583.36 698.37L584.34 695.79L584.69 692.85L584.66 688.97L584.54 685.83L584.48 683.16L584.20 681.57L584.42 679.17L588.54 678.85L591.92 678.93L594.87 677.83L598.36 676.17L602.81 674.40L604.36 673.47L605.86 672.34L608.49 670.19L612.27 667.35L615.93 664.32L619.82 661.08L623.48 658.65L625.58 657.26L626.95 656.35L627.91 654.58L628.68 652.48L629.09 649.43L628.77 647.76L628.99 645.61L630.86 644.60L632.20 642.17L631.52 640.64L630.35 638.34L629.20 634.65L628.25 631.88L627.67 629.23L626.98 624.87L626.67 622.95L627.40 619.96L628.33 617.48L629.09 615.94L629.48 614.06L629.12 610.51L628.61 607.82L628.16 605.20L627.74 603.33L627.28 601.62L626.61 598.95L626.47 597.25L627.46 595.39L629.65 593.22L631.88 591.29L633.33 589.60L634.65 587.69L636.54 584.81L638.38 582.04L639.09 580.82L641.33 577.84L642.44 577.06L643.62 576.31L646.06 571.78L646.71 570.53L646.61 568.35L646.44 564.46L648.39 561.68L649.80 559.73L649.82 558.01L650.26 555.83L651.14 554.86L653.31 551.99L654.05 549.66L655.60 548.07L657.34 546.84L660.11 544.92L662.19 543.32L664.77 542.13L666.73 541.31L668.08 541.03L670.54 539.98L670.82 538.37L670.30 535.80L670.30 532.93L670.32 530.26L670.43 525.75L670.25 522.57L670.07 519.42L670.12 516.86L670.09 515.29L671.43 511.96L672.47 510.04L672.30 508.73L670.45 506.96L668.06 505.20L665.41 503.25L663.31 500.82L661.94 498.93L660.25 496.39L658.94 494.61L656.53 494.07L654.77 495.53L652.52 494.28L650.26 492.19L646.95 489.71L644.29 489.16L642.92 488.98L640.56 489.13L638.97 489.13L637.14 489.43L635.29 489.33L632.84 489.61L624.54 488.89Z" data-ward="9" /><path id="ward-12" class="ward" d="M241.14 638.03L236.90 637.77L234.70 636.87L232.36 635.95L231.43 635.02L230.02 634.13L228.44 632.91L226.86 632.63L224.74 632.28L222.83 632.12L220.82 629.26L219.75 627.42L218.55 626.05L216.66 626.11L215.78 628.37L214.48 629.63L213.12 630.69L211.80 631.99L210.72 632.94L209.46 634.06L207.23 634.83L204.09 635.18L201.38 635.66L197.74 636.29L194.69 636.53L192.03 637.52L190.21 639.15L188.82 639.79L185.01 641.23L182.98 642.95L181.02 645.02L178.69 646.06L176.64 646.87L174.90 648.00L173.70 649.21L172.97 650.41L171.90 651.87L170.55 653.59L169.14 654.87L167.79 655.32L166.24 655.26L164.81 654.83L163.52 653.74L161.93 652.18L159.91 652.28L155.41 653.30L153.02 653.82L150.72 654.31L149.01 654.50L147.51 654.83L145.24 654.85L142.80 654.55L141.68 653.87L139.73 652.58L138.46 652.30L136.39 651.77L137.29 658.66L137.29 661.51L137.42 662.92L138.09 665.08L139.01 666.56L140.06 667.91L140.95 669.29L141.67 670.72L141.99 673.99L142.41 677.83L144.46 682.10L145.16 684.06L144.31 685.47L135.90 687.38L127.92 688.06L121.51 689.51L114.57 691.09L107.95 692.18L104.06 693.09L101.31 693.52L99.80 693.74L97.26 693.93L95.83 693.99L94.79 694.81L94.49 697.31L92.31 699.08L91.04 699.65L90.02 700.62L88.14 701.99L86.70 702.59L84.93 703.44L81.98 704.54L78.93 705.48L74.71 706.43L72.29 706.97L70.97 706.94L68.05 705.31L64.47 703.52L55.86 697.61L51.60 695.52L48.60 698.05L45.91 700.13L42.52 702.51L38.51 705.56L35.24 707.77L33.19 707.12L35.47 710.66L37.03 713.07L38.86 715.91L40.04 717.62L41.95 720.43L43.01 721.98L45.65 725.84L47.84 729.05L48.81 730.58L50.32 732.75L53.81 738.06L54.79 739.55L56.04 741.42L57.62 743.57L60.01 746.78L62.82 750.56L64.68 753.40L66.52 756.23L68.41 759.11L70.63 762.50L71.68 763.85L72.94 765.48L76.25 769.73L77.88 771.82L78.87 773.45L79.82 775.03L81.45 777.72L82.47 779.41L83.56 781.20L85.13 783.81L86.10 785.35L87.03 786.85L87.89 788.23L89.15 790.23L89.54 792.00L90.83 793.82L92.04 797.14L93.79 801.93L94.50 803.22L95.52 805.09L96.15 806.25L97.42 808.58L98.79 810.80L99.82 812.24L101.07 813.73L102.27 815.16L103.58 816.71L105.86 819.43L107.40 821.26L106.53 822.42L108.79 822.91L110.54 823.28L112.74 823.76L115.08 824.26L122.57 825.88L125.16 826.29L128.89 827.39L130.73 827.18L132.13 827.01L134.50 826.74L140.00 826.11L141.40 826.05L144.44 825.92L149.77 825.69L151.76 825.97L157.77 824.54L159.37 824.27L161.77 824.36L163.68 824.43L164.70 824.46L166.06 824.51L168.42 824.11L170.14 823.82L171.95 823.51L173.07 823.32L173.88 823.19L180.86 821.72L186.77 824.32L187.99 824.86L190.01 825.75L192.52 828.37L193.20 829.08L193.50 829.38L196.32 832.33L199.35 833.79L199.79 834.01L200.64 834.42L201.79 834.97L202.20 835.17L202.94 835.53L204.15 836.12L206.13 836.05L207.50 836.00L209.52 835.94L211.03 835.89L212.43 835.84L213.74 835.79L215.13 835.89L216.66 835.99L218.25 836.10L218.43 837.46L221.46 838.39L221.58 838.35L221.73 838.28L221.85 838.23L222.13 838.13L222.41 838.02L222.71 837.91L222.94 837.82L223.31 837.68L224.40 837.26L226.26 836.50L226.58 836.30L227.34 835.78L227.82 835.46L229.78 833.76L231.01 834.09L232.48 834.48L234.07 834.91L235.63 835.32L238.09 834.52L239.52 834.06L247.19 831.58L260.05 830.14L263.42 830.05L266.73 829.97L269.44 829.90L272.02 829.83L273.80 829.78L275.91 829.73L277.19 829.38L279.79 828.68L282.95 827.83L286.40 827.47L288.13 827.29L292.67 826.82L299.94 826.07L304.43 825.82L310.39 826.95L316.70 827.36L308.23 815.10L298.40 800.87L297.19 799.13L296.29 800.38L295.38 801.92L294.73 803.44L283.62 810.31L279.65 809.06L275.34 807.56L270.83 807.66L267.38 807.74L269.14 805.77L270.08 804.33L267.26 804.18L264.02 804.41L261.70 803.75L258.41 803.43L254.84 804.87L251.05 809.19L247.50 813.56L230.35 812.71L203.35 794.81L187.01 781.06L180.03 766.31L179.93 755.86L197.56 745.35L202.33 745.79L207.17 745.66L219.93 736.55L232.91 730.04L244.60 724.24L245.34 722.06L246.08 719.89L246.93 717.43L248.36 711.86L247.74 707.63L246.11 703.86L244.17 694.87L243.21 686.72L243.13 682.65L242.74 679.54L242.50 674.88L242.81 671.40L242.57 667.74L242.20 663.46L240.85 659.80L239.74 656.53L238.30 653.74L235.91 649.64L234.68 646.18L235.53 643.07L236.08 640.62L237.95 640.47L239.39 640.36L241.14 638.03Z" data-ward="12" /><path id="ward-2" class="ward" d="M357.20 426.24L354.78 427.28L352.48 427.15L350.62 427.05L348.20 426.75L345.39 425.68L343.81 423.14L341.50 420.95L339.41 420.03L338.20 419.49L336.40 418.18L336.47 416.85L339.93 415.30L342.14 413.81L343.74 412.47L344.08 410.75L343.38 409.53L342.39 407.80L341.47 405.89L341.00 404.48L340.59 402.98L341.04 400.59L341.18 399.27L341.29 397.38L340.46 395.57L339.08 394.27L337.39 392.70L336.17 391.62L334.41 390.04L332.03 387.65L331.77 385.33L331.57 382.30L331.37 379.27L331.28 377.90L330.73 372.99L329.30 369.92L328.03 368.59L326.75 367.72L324.50 366.21L323.44 365.48L321.20 363.70L320.52 362.04L320.77 360.37L322.24 358.78L324.49 356.65L325.41 355.59L326.16 354.09L326.51 352.23L324.95 350.02L324.35 348.74L323.78 347.52L323.38 346.30L322.92 344.88L322.26 341.94L320.23 339.64L319.53 338.26L318.20 337.01L316.59 336.18L315.26 334.89L314.06 333.72L311.85 332.48L310.59 331.31L308.79 329.97L307.15 328.90L297.02 332.39L295.65 332.06L293.98 332.06L291.97 332.67L290.90 333.96L289.90 335.92L288.95 338.17L288.19 340.67L287.54 342.93L286.51 345.94L285.11 348.49L283.99 351.12L281.05 350.35L279.63 349.02L277.91 347.15L276.66 345.77L275.99 343.77L275.24 342.15L273.12 341.80L270.84 342.06L269.46 341.79L267.62 341.29L263.61 341.90L261.94 342.18L259.38 342.24L256.39 341.99L253.90 341.82L251.41 342.33L250.63 343.73L250.74 345.06L250.81 348.05L249.88 349.09L248.42 351.12L247.78 352.90L247.30 354.66L246.62 356.06L244.45 357.69L243.32 358.47L242.28 359.54L240.50 361.63L239.28 363.48L237.68 365.52L235.69 366.48L232.89 367.28L230.13 368.46L229.38 369.55L227.34 372.31L225.82 373.97L223.31 375.94L220.41 378.55L217.92 381.28L217.15 384.33L216.69 388.21L215.92 392.55L215.27 396.50L214.76 398.54L212.49 400.86L208.43 404.18L205.56 406.33L202.85 408.42L199.79 412.65L197.23 417.37L193.95 421.96L189.35 425.01L184.29 427.56L179.80 429.43L176.06 431.83L173.23 435.28L169.98 439.17L168.38 440.91L166.98 441.28L165.64 441.48L163.76 443.25L162.95 444.71L162.67 446.64L162.66 448.47L162.99 450.17L163.54 452.85L163.80 455.87L163.65 459.44L163.15 464.01L162.66 468.92L161.80 472.16L164.07 471.84L165.67 471.71L167.74 471.26L170.11 470.42L172.88 469.46L175.51 469.06L177.28 468.62L178.97 467.82L180.34 466.96L182.02 465.53L183.49 464.31L185.32 463.06L188.52 463.65L190.79 464.99L194.03 467.29L197.45 469.71L200.00 471.11L202.04 472.43L203.34 473.07L206.46 473.95L209.79 475.05L211.78 475.70L214.37 476.55L215.70 477.10L217.44 478.92L219.02 480.82L220.49 483.01L222.53 484.80L224.46 486.47L228.80 487.38L231.17 487.72L236.70 486.38L240.84 484.83L244.81 483.18L247.76 481.93L250.52 480.46L252.73 479.05L254.24 477.94L255.50 477.39L259.08 478.32L262.79 478.74L264.59 478.24L264.62 475.47L265.67 474.05L267.09 474.03L268.38 473.95L270.21 473.14L271.92 473.03L273.56 473.16L275.84 473.94L277.78 474.59L279.56 475.62L280.50 476.90L280.47 479.00L277.92 481.00L275.15 482.63L273.05 484.05L270.54 485.45L268.50 488.20L266.02 491.69L264.02 495.97L262.88 499.12L261.86 501.99L259.86 505.79L262.62 507.63L267.38 509.83L265.74 520.44L268.14 522.42L270.81 524.67L273.12 526.76L274.91 527.62L276.26 527.29L278.67 525.22L280.87 520.42L283.31 516.42L284.76 515.86L286.04 518.59L287.20 521.08L293.58 524.48L296.11 525.81L299.21 526.68L304.17 527.50L311.41 528.63L314.44 529.59L318.46 530.82L322.92 529.86L327.04 530.50L330.91 531.63L333.82 531.56L336.35 532.62L339.11 534.79L344.45 534.05L347.32 534.98L349.80 535.69L349.98 537.10L349.24 538.59L349.45 539.96L349.51 542.58L349.78 545.33L353.01 548.52L355.28 550.41L356.79 552.46L357.56 556.39L358.61 561.46L359.36 565.85L360.73 562.84L363.39 560.83L366.24 558.93L369.04 555.53L372.16 551.78L374.58 547.64L375.08 544.56L374.69 541.16L374.10 537.75L372.39 536.27L373.35 534.43L373.70 533.06L374.48 531.76L376.45 529.95L378.10 527.84L379.89 525.24L381.18 523.66L380.05 521.56L379.59 519.72L378.52 518.13L377.56 516.79L375.35 515.84L374.16 513.68L374.07 511.31L373.55 509.96L372.02 504.95L370.10 500.42L369.00 495.67L367.99 490.20L367.91 484.98L367.89 483.08L367.88 480.08L368.13 477.59L368.39 474.98L368.46 472.74L368.52 470.97L368.11 467.63L366.92 466.70L362.83 466.07L361.47 463.24L373.12 459.41L380.57 456.95L383.04 456.14L385.22 455.42L388.70 455.60L390.47 455.61L392.32 455.64L395.04 455.92L397.84 456.34L399.26 456.72L401.28 457.69L403.09 458.30L404.56 459.04L406.31 460.11L407.34 459.26L407.67 457.93L407.49 456.48L406.46 453.92L405.47 449.67L406.46 440.54L407.01 435.15L408.05 434.36L407.41 430.44L406.55 427.76L403.80 424.50L402.38 421.01L401.54 419.25L400.48 417.01L398.20 414.28L395.67 411.25L392.80 407.82L390.69 406.44L387.21 404.32L385.44 403.37L381.12 406.74L379.34 411.06L378.94 412.30L378.12 414.78L377.53 416.60L377.10 417.91L376.60 419.44L374.45 421.01L372.81 422.15L371.06 423.39L369.17 424.71L367.57 425.84L366.21 426.79L363.59 428.63L362.12 429.64L361.38 428.40L360.17 426.98L358.94 426.39L357.20 426.24Z" data-ward="2" /><path id="ward-10" class="ward" d="M393.69 631.92L393.61 633.37L392.67 634.83L391.91 636.31L391.13 637.90L390.69 640.44L390.98 642.18L391.26 643.92L391.87 646.00L392.25 647.78L392.16 649.40L390.72 651.59L390.07 652.88L388.27 656.48L387.61 657.71L385.88 661.00L384.15 664.29L381.52 669.14L376.37 676.80L381.35 678.08L384.96 679.38L388.61 681.13L391.53 682.10L396.40 682.59L401.00 683.13L405.29 682.58L408.84 680.18L412.72 676.41L416.03 670.57L417.58 669.05L418.59 668.16L419.77 667.30L420.84 666.26L422.55 664.41L423.61 663.19L424.36 661.09L425.33 659.82L426.32 659.00L428.02 658.17L431.61 657.99L434.03 658.01L435.85 658.28L439.19 657.40L444.19 655.25L445.95 653.92L446.76 652.53L446.81 650.37L447.10 647.78L447.41 645.53L447.75 644.23L448.59 643.11L449.73 642.36L450.87 641.55L453.67 641.30L456.65 641.19L460.22 640.08L462.10 639.22L463.29 638.40L464.57 636.08L465.52 634.28L466.34 632.01L467.24 630.12L469.52 628.69L471.74 628.31L473.76 627.97L475.28 627.67L477.97 628.34L480.51 628.34L483.15 628.28L486.74 621.10L488.48 620.08L489.83 619.58L492.59 618.89L494.18 618.61L498.14 618.83L500.66 619.36L504.75 618.59L506.96 617.37L508.27 619.02L509.07 620.08L509.90 621.19L513.23 620.28L515.83 619.21L518.58 616.92L525.82 615.29L531.45 611.64L534.18 608.24L536.55 605.30L542.58 600.94L544.60 599.48L542.12 593.12L543.27 588.20L546.35 579.89L548.07 573.93L549.96 568.77L552.35 562.37L544.76 559.53L542.56 558.71L540.35 557.90L536.65 557.38L531.53 556.75L529.34 556.49L526.46 556.15L523.67 555.82L523.20 553.68L522.70 551.36L522.08 548.63L521.86 546.38L521.67 544.50L521.75 541.09L521.87 539.02L522.03 537.40L522.23 535.32L522.49 531.47L522.81 529.39L523.21 527.13L522.63 525.58L522.00 523.73L522.04 522.09L522.42 520.16L522.70 518.87L524.79 518.05L527.95 517.54L530.90 517.89L536.25 517.72L540.18 517.54L542.34 517.07L543.79 516.70L546.63 514.31L545.46 511.17L543.88 506.96L543.58 503.85L541.89 500.55L539.04 500.44L537.13 500.36L536.11 499.46L534.80 497.79L533.62 495.99L532.50 493.34L533.30 491.21L534.92 487.37L537.68 485.20L541.41 483.85L543.71 482.74L547.02 480.24L548.83 478.02L547.92 476.30L547.21 474.61L546.46 472.59L545.96 471.27L545.40 470.06L545.61 467.00L544.97 463.28L544.17 461.80L543.34 460.27L542.62 459.09L541.88 457.93L540.10 456.23L538.90 455.25L537.37 455.08L535.00 455.96L534.03 456.81L532.83 457.91L531.95 459.90L531.83 462.94L532.54 464.53L532.21 466.21L530.76 466.29L528.87 465.33L525.62 463.68L522.38 461.51L520.36 460.69L518.61 460.22L515.23 459.30L513.60 458.91L511.01 458.96L510.75 456.06L509.14 455.74L506.33 454.48L505.67 452.88L504.80 450.78L504.58 449.40L504.18 446.75L504.08 445.22L503.94 442.23L503.91 440.75L503.98 439.39L504.22 434.20L503.26 432.16L503.24 430.25L503.21 427.47L508.54 427.80L510.50 427.92L511.26 425.09L512.10 422.45L512.33 418.40L514.12 415.44L514.32 413.48L514.48 411.14L515.42 409.49L516.21 406.98L515.19 404.92L514.35 403.54L513.83 400.66L512.37 397.85L511.11 395.86L510.35 394.56L509.00 392.33L507.57 390.51L506.34 388.60L506.38 387.31L506.65 385.97L507.15 384.13L507.28 381.95L507.46 379.26L506.77 377.95L506.59 375.51L506.31 372.76L504.39 372.47L502.31 374.80L500.57 376.66L499.72 378.36L498.35 381.64L497.37 382.65L496.36 383.70L493.36 383.88L491.43 383.38L488.02 382.26L486.06 382.06L480.91 381.12L479.06 382.33L477.13 383.58L475.43 384.70L473.57 387.02L473.56 390.29L473.72 391.86L473.96 394.18L473.37 395.92L471.52 397.30L470.33 400.20L470.45 402.37L470.61 404.34L470.75 407.05L469.12 407.90L467.11 407.62L464.08 407.91L462.81 408.00L461.31 407.99L458.91 408.43L457.48 408.86L456.15 407.66L456.13 405.91L456.49 404.08L456.85 400.92L456.68 398.69L455.87 396.01L454.89 394.06L453.59 391.56L452.08 390.36L450.69 389.65L447.72 388.49L446.22 388.33L443.55 387.95L442.19 387.73L440.52 387.39L438.75 386.73L437.00 385.96L436.58 388.08L435.11 389.09L432.65 389.82L430.97 390.65L429.84 392.43L428.43 393.65L427.15 394.75L424.85 396.71L423.36 398.21L422.44 399.15L420.85 400.74L419.26 402.33L417.49 404.21L415.86 405.38L414.51 405.64L412.50 406.02L412.15 404.25L411.81 402.48L411.67 401.16L412.08 399.11L413.27 396.54L413.27 393.92L412.81 392.64L410.69 391.61L408.74 392.02L407.51 391.24L405.97 390.90L402.45 392.54L400.49 393.00L398.44 393.88L395.01 394.01L393.43 393.80L391.85 393.59L392.73 396.44L393.17 398.39L394.06 401.09L396.78 404.90L400.98 410.18L402.55 412.15L400.47 413.12L398.20 414.28L400.48 417.01L401.54 419.25L402.38 421.01L403.80 424.50L406.55 427.76L407.41 430.44L408.05 434.36L407.01 435.15L406.46 440.54L405.47 449.67L406.46 453.92L407.49 456.48L407.67 457.93L407.34 459.26L406.31 460.11L404.56 459.04L403.09 458.30L401.28 457.69L399.26 456.72L397.84 456.34L395.04 455.92L392.32 455.64L390.47 455.61L388.70 455.60L385.22 455.42L383.04 456.14L380.57 456.95L373.12 459.41L361.47 463.24L362.83 466.07L366.92 466.70L368.11 467.63L368.52 470.97L368.46 472.74L368.39 474.98L368.13 477.59L367.88 480.08L367.89 483.08L367.91 484.98L367.99 490.20L369.00 495.67L370.10 500.42L372.02 504.95L373.55 509.96L374.07 511.31L374.16 513.68L375.35 515.84L377.56 516.79L378.52 518.13L379.59 519.72L380.05 521.56L381.18 523.66L382.19 522.38L385.34 521.04L387.71 520.91L390.23 521.26L393.40 520.39L397.02 518.43L399.68 517.21L401.05 516.87L402.32 516.26L404.20 516.54L405.40 515.65L406.58 515.07L408.03 514.72L408.65 516.98L407.26 518.26L405.55 519.90L403.32 521.18L402.43 523.39L402.51 526.20L403.31 530.40L404.26 533.89L404.47 536.79L403.63 538.25L402.79 539.71L401.43 542.17L401.29 544.64L399.76 549.34L399.54 550.83L399.33 552.44L398.50 555.80L398.02 557.56L399.28 558.81L397.95 560.77L397.54 562.32L398.62 565.37L397.94 567.44L396.05 569.07L393.59 569.95L392.40 570.75L392.18 572.08L393.85 572.40L395.13 572.46L396.33 573.30L395.88 575.79L396.57 577.81L396.38 580.38L398.28 581.81L398.17 584.22L398.24 586.14L398.60 587.45L400.06 590.01L401.47 591.52L402.20 594.21L403.12 595.28L404.34 596.52L405.07 598.24L406.03 600.62L406.32 602.35L407.24 604.01L407.49 607.68L407.66 610.28L407.98 613.71L407.66 616.92L406.01 618.49L402.98 620.36L402.56 621.90L402.22 623.16L401.66 624.93L400.83 626.54L399.89 627.46L398.57 628.75L397.56 630.96L396.98 632.80L396.65 632.77L395.46 632.64L394.56 630.37L393.71 631.61L393.69 631.92Z" data-ward="10" /><path id="ward-13" class="ward" d="M231.62 611.43L230.47 608.59L226.66 601.68L222.31 593.32L217.57 584.05L213.20 579.34L208.22 575.22L204.48 571.71L200.41 567.77L198.72 564.53L198.07 563.29L192.28 558.11L186.97 553.86L181.91 550.36L176.82 546.11L175.46 544.99L172.85 541.78L167.79 536.87L164.12 533.46L160.95 528.91L160.08 526.04L155.15 526.80L149.63 527.07L146.01 526.42L142.71 524.97L139.65 522.57L137.52 522.15L135.83 521.66L128.32 521.97L123.12 522.17L120.15 521.83L117.60 521.54L115.51 521.44L111.42 523.51L108.97 524.60L107.10 524.63L104.32 523.30L102.95 523.10L101.41 523.01L99.70 522.90L98.05 522.70L96.07 522.44L94.69 522.39L88.73 521.80L82.68 523.25L79.01 522.34L74.79 521.67L66.80 521.29L49.29 515.15L42.50 513.36L35.92 512.10L31.57 511.45L28.30 511.36L26.45 511.24L25.14 510.91L23.24 510.30L20.36 508.91L16.09 505.71L9.19 504.03L11.03 506.43L12.26 508.05L14.02 510.36L12.69 512.91L11.75 514.72L10.93 516.70L9.97 519.01L9.32 520.58L8.65 521.73L6.33 525.73L9.55 527.56L15.47 530.90L18.74 527.05L24.19 538.53L25.97 538.79L28.96 530.58L29.99 527.75L30.73 525.72L29.54 519.65L37.31 520.39L37.28 523.82L37.27 526.16L37.26 527.56L37.21 535.28L35.87 540.27L34.93 543.76L36.00 545.03L37.34 546.63L37.55 549.11L39.10 554.93L35.93 557.61L38.43 562.22L39.83 564.81L36.72 575.46L35.24 580.54L34.06 583.60L33.49 585.09L32.81 586.73L31.66 589.48L31.11 590.80L30.54 592.19L29.28 595.26L28.44 597.32L27.69 599.13L27.16 600.34L26.14 602.65L25.24 604.67L23.61 608.37L22.94 609.86L21.50 613.10L20.39 615.59L19.18 618.32L17.93 621.11L16.71 623.85L15.91 625.63L14.55 628.70L13.56 630.91L12.89 632.41L12.23 633.91L11.28 636.04L10.44 637.97L9.22 640.59L7.03 645.30L4.19 651.39L2.51 655.00L1.67 656.80L0.84 658.59L0.00 660.39L1.59 663.18L2.82 665.34L3.82 667.09L5.62 669.37L9.66 674.48L10.73 675.83L12.71 678.98L14.65 682.06L16.58 684.52L17.38 685.53L18.46 686.91L19.30 687.98L22.10 690.95L23.57 692.51L24.56 693.56L25.26 694.67L26.12 696.03L27.30 697.91L28.39 699.63L29.08 700.73L29.97 702.14L30.95 703.65L32.06 705.37L33.19 707.12L35.24 707.77L38.51 705.56L42.52 702.51L45.91 700.13L48.60 698.05L51.60 695.52L55.86 697.61L64.47 703.52L68.05 705.31L70.97 706.94L72.29 706.97L74.71 706.43L78.93 705.48L81.98 704.54L84.93 703.44L86.70 702.59L88.14 701.99L90.02 700.62L91.04 699.65L92.31 699.08L94.49 697.31L94.79 694.81L95.83 693.99L97.26 693.93L99.80 693.74L101.31 693.52L104.06 693.09L107.95 692.18L114.57 691.09L121.51 689.51L127.92 688.06L135.90 687.38L144.31 685.47L145.16 684.06L144.46 682.10L142.41 677.83L141.99 673.99L141.67 670.72L140.95 669.29L140.06 667.91L139.01 666.56L138.09 665.08L137.42 662.92L137.29 661.51L137.29 658.66L136.39 651.77L138.46 652.30L139.73 652.58L141.68 653.87L142.80 654.55L145.24 654.85L147.51 654.83L149.01 654.50L150.72 654.31L153.02 653.82L155.41 653.30L159.91 652.28L161.93 652.18L163.52 653.74L164.81 654.83L166.24 655.26L167.79 655.32L169.14 654.87L170.55 653.59L171.90 651.87L172.97 650.41L173.70 649.21L174.90 648.00L176.64 646.87L178.69 646.06L181.02 645.02L182.98 642.95L185.01 641.23L188.82 639.79L190.21 639.15L192.03 637.52L194.69 636.53L197.74 636.29L201.38 635.66L204.09 635.18L207.23 634.83L209.46 634.06L210.72 632.94L211.80 631.99L213.12 630.69L214.48 629.63L215.78 628.37L216.66 626.11L218.55 626.05L219.75 627.42L220.82 629.26L222.83 632.12L224.74 632.28L226.86 632.63L228.44 632.91L230.02 634.13L231.43 635.02L232.36 635.95L234.70 636.87L236.90 637.77L241.14 638.03L243.15 637.15L244.21 636.26L246.22 633.81L247.33 631.56L243.87 630.10L240.25 628.04L238.44 627.28L236.97 624.96L236.13 622.59L235.57 621.01L234.40 618.19L232.81 614.35L231.62 611.43Z" data-ward="13" /></svg>