<svg viewBox="0 0 1000.00 939.73" xmlns="http://www.w3.org/2000/svg"><style>.ward { fill: #e2e8f0; stroke: #fff; stroke-width: 0.5px; } .ward:hover { fill: #cbd5e1; }</style><path id="ward-1" class="ward" d="M380.73 38.37L378.46 38.35L375.51 39.49L372.51 38.77L370.54 38.32L369.01 37.98L366.35 37.64L363.93 36.40L361.50 35.16L354.35 31.51L347.14 27.84L342.01 25.22L340.85 24.63L333.58 20.90L331.77 19.96L330.43 19.28L325.30 16.27L317.43 11.65L311.04 7.93L309.53 7.05L301.73 2.65L300.42 1.94L296.87 0.00L294.88 1.46L291.41 4.00L288.36 6.27L285.58 8.34L281.43 11.56L279.00 13.48L276.75 15.25L272.10 18.86L267.57 22.29L266.05 23.44L262.27 26.00L254.94 31.59L252.50 33.45L251.45 34.22L250.31 35.06L248.22 36.58L245.68 38.40L243.85 39.78L240.90 41.90L235.88 45.57L231.04 49.11L229.33 51.90L228.01 56.68L227.02 60.28L226.20 63.33L224.35 63.85L222.83 64.27L220.12 65.01L217.45 67.40L215.56 69.08L214.28 71.69L212.53 75.24L212.34 76.98L212.15 78.71L210.91 79.77L208.71 81.11L207.44 81.89L206.24 82.62L202.48 84.92L200.84 85.69L199.33 86.39L197.91 87.26L196.29 88.26L192.14 90.88L188.91 93.07L187.57 94.02L185.44 95.52L184.69 96.86L183.54 98.90L182.83 102.77L182.04 104.30L180.54 107.20L178.47 111.20L176.06 113.64L174.11 115.61L173.08 116.64L171.00 118.80L168.94 120.94L167.46 122.48L165.30 124.76L165.16 126.58L164.89 130.24L164.75 132.08L164.61 133.90L164.34 137.57L163.95 139.16L163.57 140.75L162.65 144.44L162.07 146.77L160.33 152.53L159.64 154.81L159.71 157.80L160.53 162.11L161.35 166.41L161.29 170.31L159.02 174.19L156.24 178.87L154.12 182.59L152.09 186.05L149.43 190.71L137.77 195.41L132.70 197.45L126.88 199.80L123.96 200.85L120.29 202.33L116.01 204.06L114.77 204.57L110.80 206.26L110.03 208.83L110.20 210.89L100.43 212.62L100.29 220.57L91.31 219.94L91.00 217.48L88.23 215.95L87.99 213.36L85.29 213.27L82.39 213.17L76.78 212.98L70.58 212.78L68.22 212.70L65.45 212.61L64.77 214.86L64.22 216.67L63.82 217.96L63.27 219.77L62.42 222.56L62.97 224.79L64.07 229.30L65.98 234.95L66.65 236.93L68.31 238.95L72.52 243.98L79.68 247.27L89.87 246.33L94.40 248.14L98.27 250.44L103.93 253.22L105.30 254.36L108.25 257.30L110.53 260.02L113.74 264.80L116.51 270.77L119.09 276.33L122.38 280.78L127.21 286.15L130.38 287.81L132.41 288.19L134.39 286.47L135.55 283.42L135.91 273.12L137.18 267.52L140.61 261.81L145.61 257.33L149.34 255.11L154.69 253.15L159.14 252.59L162.58 252.57L169.78 252.79L173.44 253.62L176.97 254.41L183.28 255.82L188.93 256.54L195.08 257.00L199.92 256.74L201.76 256.64L205.55 255.21L208.67 253.84L212.12 251.61L214.86 248.52L216.56 245.48L219.43 237.97L221.14 230.97L222.58 225.00L226.33 220.57L237.39 225.07L261.38 234.84L262.78 234.88L264.08 233.87L265.67 232.67L267.85 231.76L269.82 230.96L272.15 230.00L273.37 229.20L275.86 227.54L277.16 226.92L278.54 226.28L280.17 225.12L281.43 224.16L283.28 223.41L285.20 223.84L286.84 224.66L289.34 225.87L291.38 224.97L291.30 223.46L291.23 222.11L290.24 220.29L289.99 218.01L290.49 215.14L291.23 212.64L291.75 210.91L292.32 208.88L292.94 206.71L293.45 205.01L293.51 203.19L293.88 201.31L294.72 199.08L294.96 197.71L295.85 195.33L297.76 194.07L299.01 193.25L300.23 192.05L301.04 190.51L301.88 187.88L301.69 185.32L301.57 184.01L302.61 181.57L304.58 179.45L306.45 178.67L308.24 178.43L309.83 177.77L311.26 176.88L312.24 175.98L311.96 173.69L310.62 172.13L308.68 169.80L308.65 168.19L310.44 166.95L311.98 166.47L313.87 166.48L315.15 166.53L317.11 165.00L318.18 163.76L319.17 162.09L320.25 160.44L321.05 159.40L321.89 156.81L321.94 154.96L322.05 152.30L324.33 151.02L326.56 149.81L328.90 148.49L330.35 147.33L331.77 145.77L332.86 143.28L334.27 140.78L336.24 139.44L338.59 138.28L340.09 136.39L339.80 134.58L339.49 133.22L337.89 131.29L338.18 129.29L340.56 128.09L342.19 127.24L343.46 126.25L344.61 125.15L345.66 124.29L347.52 123.03L348.66 122.29L351.28 121.97L352.70 121.80L354.78 123.59L356.11 124.44L358.25 124.82L360.11 123.70L361.17 122.40L362.35 120.75L362.61 118.97L362.30 116.64L360.98 114.47L360.42 112.81L359.94 111.13L359.56 109.68L359.85 107.43L360.09 106.15L360.51 103.89L361.46 102.23L362.18 101.05L362.83 99.23L362.92 97.87L363.18 95.84L363.81 93.74L365.42 92.08L367.20 90.38L367.97 88.20L367.87 86.77L367.48 85.33L367.11 84.00L366.55 81.96L366.74 79.59L367.43 78.24L368.07 77.01L368.67 75.85L369.89 73.60L370.88 72.26L373.26 69.35L375.28 67.56L376.51 66.48L378.34 64.90L379.82 64.26L381.20 63.66L382.18 62.71L383.11 61.57L384.47 59.76L385.69 58.52L387.05 57.64L389.10 55.99L390.17 54.88L391.67 53.14L392.53 52.09L393.43 50.32L394.05 49.12L394.78 47.69L395.31 46.04L395.58 44.07L395.48 42.39L394.66 41.26L393.74 40.31L392.16 37.86L391.87 34.04L388.53 35.37L386.89 36.02L384.91 37.53L382.96 37.59L380.73 38.37Z" data-ward="1" /><path id="ward-7" class="ward" d="M497.22 451.88L500.15 452.16L503.06 452.89L517.64 445.48L538.76 427.33L539.89 425.30L543.27 420.37L546.50 414.86L546.56 410.95L540.41 406.00L535.35 403.75L530.22 403.57L524.89 405.65L519.01 407.63L514.48 408.17L511.76 406.71L509.39 405.43L505.98 402.08L501.28 395.83L496.63 390.11L489.66 386.07L482.68 383.43L478.92 380.45L475.74 373.48L481.28 365.03L484.29 361.39L486.33 358.93L485.50 355.22L481.33 350.72L476.57 346.39L472.98 342.16L470.85 339.68L471.03 336.03L471.24 332.90L471.48 325.90L474.66 320.97L473.75 316.03L469.44 316.09L462.00 311.76L456.57 318.00L450.49 325.30L448.21 332.77L439.70 336.72L426.62 337.41L415.95 333.21L409.10 334.11L395.15 345.22L388.46 352.15L385.40 361.66L382.28 369.04L375.27 377.93L366.23 395.44L362.09 406.84L361.99 415.67L363.07 420.34L362.94 422.92L362.48 424.45L360.48 425.72L355.68 428.41L351.70 430.27L345.98 432.81L342.77 434.93L339.73 438.07L335.57 442.99L332.55 446.24L336.53 449.44L339.65 452.21L344.07 455.71L346.59 456.54L348.55 456.98L350.77 457.56L352.82 458.10L356.62 458.89L361.79 459.96L364.88 460.44L368.36 460.98L370.49 461.16L370.65 459.06L373.60 459.11L376.10 458.99L377.47 458.88L379.03 458.76L380.88 458.92L383.46 458.29L384.74 457.46L386.82 454.86L388.53 452.34L389.76 450.34L391.02 448.31L392.37 445.36L393.84 445.33L395.32 446.38L397.83 447.89L399.85 449.01L401.67 449.78L403.07 447.43L403.83 445.78L407.08 438.01L405.69 436.31L404.74 435.04L403.47 433.51L402.37 431.00L403.62 430.54L405.26 429.15L406.76 427.69L408.32 426.10L410.21 424.46L411.64 424.65L412.69 425.53L413.87 426.68L415.47 428.25L416.54 429.53L418.48 431.17L419.75 431.60L421.07 431.72L422.75 431.69L424.20 431.54L425.54 431.42L427.12 431.36L428.56 431.32L430.48 431.40L431.39 445.84L431.37 447.92L430.18 451.68L424.71 454.16L420.44 455.52L418.14 457.08L417.95 463.39L417.40 467.08L417.07 469.29L416.25 474.91L414.50 484.35L414.93 486.53L416.46 488.10L419.66 489.37L423.12 492.51L424.49 498.34L427.62 498.63L430.31 498.50L432.54 498.42L434.61 498.15L436.90 497.75L438.52 497.31L440.41 495.78L466.19 475.03L470.12 476.56L477.49 477.15L483.46 477.43L484.13 476.08L484.65 471.73L485.81 464.88L486.41 462.96L487.58 461.97L490.08 460.28L491.05 456.10L491.24 452.11L497.22 451.88Z" data-ward="7" /><path id="ward-20" class="ward" d="M267.68 575.22L267.63 575.79L266.79 577.47L266.68 577.70L267.00 579.35L267.33 581.09L267.47 581.82L267.60 582.49L267.91 584.06L268.25 585.85L268.73 588.32L268.98 589.62L269.26 591.03L268.37 592.06L267.47 593.10L264.08 597.01L263.22 598.00L261.98 599.44L258.09 603.93L257.05 605.13L255.28 607.18L254.16 608.47L252.85 609.98L249.90 613.40L248.85 614.61L247.66 615.98L241.44 620.59L239.45 622.06L237.14 623.77L234.20 625.95L238.66 638.58L240.52 634.43L242.48 629.70L243.43 628.02L245.09 625.89L246.62 624.54L248.95 621.68L250.64 618.96L253.20 615.39L255.32 612.99L257.21 611.30L258.85 610.48L260.12 609.84L263.03 608.76L265.39 606.74L268.15 604.72L270.64 603.51L274.27 601.89L278.77 599.93L282.71 599.07L287.02 598.21L291.34 597.49L293.28 597.52L296.90 598.94L300.08 600.17L304.22 602.44L306.88 604.28L308.85 606.01L311.48 606.69L315.30 605.79L315.88 603.27L315.89 600.69L315.78 597.79L315.63 595.10L315.48 592.25L315.30 590.02L315.43 588.29L318.48 589.61L320.52 591.16L321.95 593.12L323.91 595.78L324.71 596.98L326.33 599.39L328.56 602.47L330.35 604.94L334.56 608.17L338.21 610.98L342.99 612.98L347.99 604.41L346.44 595.19L352.36 592.51L354.30 591.64L356.94 590.95L361.91 590.88L366.30 590.65L370.20 590.38L371.46 590.09L372.94 589.27L378.62 589.34L378.56 587.49L378.19 581.10L378.06 578.63L376.36 574.26L372.97 569.90L369.30 564.86L366.19 560.05L362.34 555.44L357.76 551.01L352.11 546.64L349.80 544.31L347.61 540.47L345.58 535.94L344.74 533.34L344.25 531.48L343.29 527.81L342.52 522.67L341.71 519.90L339.13 516.18L336.19 513.17L334.14 511.14L332.26 509.26L329.94 505.73L328.21 506.19L326.18 511.58L324.19 521.03L322.27 527.72L320.60 533.08L316.98 537.80L312.32 543.06L308.35 547.09L302.05 545.47L297.60 544.55L295.36 544.70L293.76 544.81L287.38 545.84L284.56 539.93L265.26 553.23L267.51 562.66L267.26 568.82L267.25 569.10L267.26 569.25L267.29 569.68L267.35 570.52L267.47 572.23L267.56 573.47L267.64 574.71L267.68 575.22Z" data-ward="20" /><path id="ward-22" class="ward" d="M253.00 525.75L253.44 526.42L257.07 532.13L258.05 533.81L258.28 534.34L259.31 536.72L260.31 539.07L260.32 539.11L260.35 539.18L260.39 539.29L260.47 539.48L260.62 539.87L260.91 540.65L260.95 540.73L261.20 541.40L261.46 542.07L263.90 548.43L263.92 548.50L263.95 548.59L263.99 548.74L264.07 549.04L264.24 549.62L264.57 550.79L265.26 553.23L284.56 539.93L287.38 545.84L293.76 544.81L295.36 544.70L297.60 544.55L302.05 545.47L308.35 547.09L312.32 543.06L316.98 537.80L320.60 533.08L322.27 527.72L324.19 521.03L326.18 511.58L328.21 506.19L329.94 505.73L327.27 501.70L324.63 497.71L323.66 495.97L320.30 489.94L317.37 489.12L315.69 488.52L313.97 487.87L311.99 487.42L310.38 487.23L308.88 487.05L307.22 486.85L305.52 486.88L297.65 488.84L295.44 489.76L291.57 490.57L290.84 488.73L290.42 487.34L290.87 483.37L291.14 481.90L291.51 477.26L291.95 471.77L289.00 470.78L286.92 471.53L284.76 472.84L282.03 473.68L280.70 474.07L280.05 471.35L279.78 469.19L279.33 464.92L279.02 462.42L278.72 459.99L277.97 458.73L275.53 458.23L273.66 458.00L271.80 457.77L268.88 457.36L265.96 456.95L265.84 449.83L267.81 442.44L269.49 439.10L271.26 437.66L272.39 436.82L272.99 435.47L279.08 435.45L282.32 436.14L289.41 436.61L294.65 437.20L307.89 440.47L320.20 442.98L318.91 441.32L312.44 432.29L307.52 423.24L304.11 419.21L294.24 409.64L285.45 403.85L276.15 398.66L267.20 393.67L264.11 391.28L260.57 388.06L258.80 384.83L259.25 382.02L261.39 374.64L263.48 365.13L264.61 358.36L265.00 356.09L265.14 354.57L265.79 347.52L265.20 343.68L264.98 342.26L264.12 332.87L263.63 327.43L262.77 317.56L262.18 315.16L262.27 310.40L263.25 307.68L265.96 303.87L266.70 302.20L265.44 300.27L261.51 299.72L254.03 298.16L251.51 296.20L249.96 294.72L248.98 293.78L246.49 291.38L243.98 289.08L242.45 287.17L241.23 285.51L240.35 284.37L239.25 283.44L237.00 282.81L235.60 283.09L233.74 283.76L232.30 284.27L229.11 285.43L227.73 285.88L224.99 286.82L223.37 287.34L221.65 287.88L220.14 288.36L217.69 289.01L215.20 289.56L213.30 289.50L211.84 289.55L208.90 289.43L209.35 292.31L209.29 294.09L207.37 294.81L207.19 300.84L205.67 308.83L204.22 315.10L203.46 317.71L200.15 319.05L198.20 323.99L198.09 325.39L197.78 329.30L195.97 331.05L194.61 331.05L188.51 331.11L193.11 351.20L192.82 353.70L192.06 360.26L190.81 370.97L199.80 381.38L208.66 397.86L214.77 409.22L205.70 418.47L187.23 511.77L185.96 528.14L173.85 530.34L173.77 531.74L174.51 536.27L180.24 535.78L182.42 542.47L186.08 553.70L188.60 553.70L189.78 552.64L191.97 550.68L194.80 548.15L195.79 547.26L197.18 546.02L199.08 544.20L200.04 543.28L201.33 542.05L202.75 537.91L202.98 537.72L211.15 530.86L213.77 530.13L214.48 529.86L215.48 529.48L225.35 525.73L231.97 523.24L232.70 522.99L233.84 522.59L236.92 519.47L240.84 516.98L241.69 516.61L242.50 516.29L244.88 515.33L245.66 514.99L245.89 514.90L246.11 514.81L246.55 514.63L247.41 514.27L249.13 513.55L251.21 520.50L251.90 522.79L251.62 525.89L253.00 525.75Z" data-ward="22" /><path id="ward-13" class="ward" d="M277.36 816.43L272.72 803.56L280.17 800.29L281.49 799.71L282.92 798.61L284.30 797.54L286.13 796.12L293.37 790.52L295.66 788.75L301.21 786.78L303.08 790.36L309.32 790.34L308.80 789.04L303.08 774.89L307.13 772.03L295.45 750.22L293.99 747.53L288.70 750.94L284.64 753.56L272.11 760.87L269.54 762.12L266.98 763.21L264.73 763.63L258.98 765.12L258.90 767.17L251.91 766.26L253.53 759.55L253.63 757.80L230.68 746.95L229.62 749.12L228.31 752.26L225.92 758.10L224.15 762.66L222.31 768.57L220.64 774.84L220.43 777.61L220.36 781.32L221.69 783.40L222.32 785.76L221.85 787.31L220.30 792.34L220.20 796.60L220.92 803.01L221.46 804.26L223.18 807.80L231.76 806.95L239.38 806.81L244.84 808.61L244.37 810.62L242.76 818.02L242.86 820.54L241.32 825.04L239.46 828.24L237.80 829.28L238.13 831.81L256.55 825.43L270.65 819.33L277.36 816.43Z" data-ward="13" /><path id="ward-10" class="ward" d="M439.83 601.07L438.50 595.98L434.67 585.10L434.19 583.37L431.40 582.16L426.34 580.16L422.13 577.56L416.42 579.67L406.36 583.37L400.10 585.67L391.70 588.14L389.20 588.47L387.79 588.66L384.82 588.48L378.56 587.49L378.62 589.34L378.54 598.95L377.84 606.26L377.64 609.67L378.14 614.19L378.57 617.86L378.77 621.67L377.67 626.37L375.81 631.42L375.73 633.23L376.40 635.18L378.99 638.50L382.44 643.46L385.70 647.77L388.29 650.69L391.22 654.48L393.63 658.26L395.41 661.67L397.55 666.70L399.55 671.27L400.12 672.59L401.98 676.77L403.08 681.05L403.56 684.95L403.98 686.54L404.85 689.83L406.36 693.45L407.84 696.83L410.39 698.60L412.73 699.65L416.23 700.51L419.33 701.36L420.97 702.20L423.18 704.31L425.20 708.13L427.57 712.53L429.16 716.79L431.04 721.41L432.18 723.34L433.79 725.41L436.88 726.94L439.67 727.58L443.76 728.42L447.58 728.91L451.71 729.27L455.13 729.85L458.55 730.43L461.46 730.12L462.45 728.51L464.06 726.53L465.53 724.90L468.97 720.75L471.50 718.17L472.37 716.01L472.72 713.24L473.23 710.40L473.59 706.88L473.82 703.26L474.38 699.82L475.19 698.23L478.11 697.23L485.50 693.94L489.17 692.93L488.52 690.17L487.57 687.56L486.26 683.54L484.46 680.09L499.55 670.58L504.77 670.17L511.94 671.86L512.69 675.78L515.72 675.06L519.32 674.34L522.79 673.91L522.70 679.40L522.16 682.20L521.61 685.01L521.08 689.09L522.75 689.38L529.30 667.95L534.44 654.10L528.58 652.23L527.15 651.77L525.65 647.20L523.99 645.04L521.79 644.09L519.59 643.14L516.12 642.69L513.39 641.09L508.94 636.50L506.98 635.03L504.69 634.34L502.57 634.33L499.62 633.97L497.21 632.90L493.77 630.37L490.44 627.07L483.21 628.35L483.38 625.68L483.41 624.13L483.44 621.92L482.88 619.47L480.22 619.25L478.60 629.92L472.84 630.42L468.87 630.77L469.53 634.63L462.93 634.91L461.73 634.14L462.29 631.83L452.26 631.07L451.46 636.75L447.21 636.58L434.65 636.08L435.22 627.89L436.70 621.16L438.59 614.49L441.27 606.54L439.83 601.07Z" data-ward="10" /><path id="ward-21" class="ward" d="M320.30 489.94L323.66 495.97L324.63 497.71L327.27 501.70L329.94 505.73L332.26 509.26L334.14 511.14L336.19 513.17L339.13 516.18L341.71 519.90L342.52 522.67L343.29 527.81L344.25 531.48L344.74 533.34L345.58 535.94L347.61 540.47L349.80 544.31L352.11 546.64L357.76 551.01L362.34 555.44L366.19 560.05L369.30 564.86L383.72 563.25L395.19 562.37L397.18 562.96L401.05 560.87L404.64 560.07L407.70 563.20L411.27 565.36L413.29 556.34L413.59 550.08L410.23 544.62L408.15 544.02L405.77 541.57L404.38 538.56L403.49 534.59L400.92 530.41L397.57 527.19L395.97 523.41L401.13 522.12L407.68 520.47L413.23 517.29L418.02 514.38L422.91 512.77L422.65 508.50L423.92 504.82L423.87 503.44L424.49 498.34L423.12 492.51L419.66 489.37L416.46 488.10L414.93 486.53L414.50 484.35L416.25 474.91L417.07 469.29L417.40 467.08L417.95 463.39L418.14 457.08L420.44 455.52L424.71 454.16L430.18 451.68L431.37 447.92L431.39 445.84L430.48 431.40L428.56 431.32L427.12 431.36L425.54 431.42L424.20 431.54L422.75 431.69L421.07 431.72L419.75 431.60L418.48 431.17L416.54 429.53L415.47 428.25L413.87 426.68L412.69 425.53L411.64 424.65L410.21 424.46L408.32 426.10L406.76 427.69L405.26 429.15L403.62 430.54L402.37 431.00L403.47 433.51L404.74 435.04L405.69 436.31L407.08 438.01L403.83 445.78L403.07 447.43L401.67 449.78L399.85 449.01L397.83 447.89L395.32 446.38L393.84 445.33L392.37 445.36L391.02 448.31L389.76 450.34L388.53 452.34L386.82 454.86L384.74 457.46L383.46 458.29L380.88 458.92L379.03 458.76L377.47 458.88L376.10 458.99L373.60 459.11L370.65 459.06L370.49 461.16L368.36 460.98L364.88 460.44L361.79 459.96L356.62 458.89L352.82 458.10L350.77 457.56L348.55 456.98L346.59 456.54L344.07 455.71L339.65 452.21L336.53 449.44L332.55 446.24L331.90 449.04L330.71 454.05L329.14 453.03L326.17 450.60L322.96 446.49L320.20 442.98L307.89 440.47L294.65 437.20L289.41 436.61L282.32 436.14L279.08 435.45L272.99 435.47L272.39 436.82L271.26 437.66L269.49 439.10L267.81 442.44L265.84 449.83L265.96 456.95L268.88 457.36L271.80 457.77L273.66 458.00L275.53 458.23L277.97 458.73L278.72 459.99L279.02 462.42L279.33 464.92L279.78 469.19L280.05 471.35L280.70 474.07L282.03 473.68L284.76 472.84L286.92 471.53L289.00 470.78L291.95 471.77L291.51 477.26L291.14 481.90L290.87 483.37L290.42 487.34L290.84 488.73L291.57 490.57L295.44 489.76L297.65 488.84L305.52 486.88L307.22 486.85L308.88 487.05L310.38 487.23L311.99 487.42L313.97 487.87L315.69 488.52L317.37 489.12L320.30 489.94Z" data-ward="21" /><path id="ward-24" class="ward" d="M237.39 225.07L226.33 220.57L222.58 225.00L221.14 230.97L219.43 237.97L216.56 245.48L214.86 248.52L212.12 251.61L208.67 253.84L205.55 255.21L201.76 256.64L199.92 256.74L195.08 257.00L188.93 256.54L183.28 255.82L176.97 254.41L173.44 253.62L169.78 252.79L162.58 252.57L159.14 252.59L154.69 253.15L149.34 255.11L145.61 257.33L140.61 261.81L137.18 267.52L135.91 273.12L135.55 283.42L134.39 286.47L132.41 288.19L130.38 287.81L127.21 286.15L122.38 280.78L119.09 276.33L116.51 270.77L113.74 264.80L110.53 260.02L108.25 257.30L105.30 254.36L103.93 253.22L98.27 250.44L94.40 248.14L89.87 246.33L79.68 247.27L72.52 243.98L68.31 238.95L66.65 236.93L65.98 234.95L64.07 229.30L62.97 224.79L61.59 228.65L61.16 229.87L57.13 237.38L56.31 239.25L51.46 242.56L41.88 249.10L39.67 250.20L32.85 248.48L30.47 247.89L28.78 248.63L15.88 254.89L13.16 256.49L0.00 262.84L0.39 266.11L0.74 269.12L1.71 277.37L4.02 298.25L5.04 307.51L5.62 313.78L7.39 332.72L7.88 339.02L8.86 351.72L9.25 356.82L10.39 371.54L11.24 381.61L11.63 385.45L21.96 395.82L26.58 400.41L35.43 408.87L44.93 416.80L49.66 421.14L53.96 421.32L60.30 420.21L67.45 418.96L75.72 417.99L75.97 413.44L77.00 407.82L79.14 403.77L80.18 401.34L81.31 396.05L82.03 391.33L82.73 386.54L83.19 383.44L83.86 380.63L84.26 378.19L85.86 376.03L87.80 373.42L89.86 370.39L92.27 367.11L93.34 365.72L96.26 362.13L97.62 360.44L100.42 359.80L102.57 359.89L105.63 359.80L107.06 359.98L108.69 359.19L111.81 356.40L112.30 354.89L113.00 350.84L114.24 349.54L114.92 347.14L115.81 344.97L118.90 345.61L120.59 346.17L124.16 346.49L124.80 348.97L124.86 351.63L125.13 353.49L125.19 356.48L125.55 357.81L127.27 358.60L127.44 363.66L127.35 366.65L125.99 371.52L129.91 369.53L132.07 367.96L133.73 365.38L135.08 363.48L136.20 361.88L137.71 360.42L139.86 359.10L142.94 357.93L143.43 355.48L143.95 352.37L144.13 349.33L144.56 347.26L145.14 345.98L146.03 344.93L147.10 344.19L148.21 343.43L150.97 342.14L152.55 341.11L152.92 337.77L153.30 335.63L155.09 333.97L156.60 332.87L158.68 332.15L160.64 331.32L162.81 330.39L163.80 329.48L164.89 328.46L166.08 327.52L169.32 326.73L171.22 327.23L174.98 326.54L178.71 326.06L180.58 326.42L181.95 327.99L182.54 330.60L188.51 331.11L194.61 331.05L195.97 331.05L197.78 329.30L198.09 325.39L198.20 323.99L200.15 319.05L203.46 317.71L204.22 315.10L205.67 308.83L207.19 300.84L207.37 294.81L209.29 294.09L209.35 292.31L208.90 289.43L211.84 289.55L213.30 289.50L215.20 289.56L217.69 289.01L220.14 288.36L221.65 287.88L223.37 287.34L224.99 286.82L227.73 285.88L229.11 285.43L232.30 284.27L233.74 283.76L235.60 283.09L237.00 282.81L239.25 283.44L240.35 284.37L241.23 285.51L242.45 287.17L243.98 289.08L246.49 291.38L248.98 293.78L249.96 294.72L251.51 296.20L254.03 298.16L253.49 295.86L251.83 287.05L248.69 281.58L243.39 272.51L238.98 253.60L237.67 248.02L235.76 241.22L235.06 235.57L235.27 232.85L235.50 230.11L237.39 225.07Z" data-ward="24" /><path id="ward-11" class="ward" d="M522.75 689.38L521.08 689.09L521.61 685.01L522.16 682.20L522.70 679.40L522.79 673.91L519.32 674.34L515.72 675.06L512.69 675.78L511.94 671.86L504.77 670.17L499.55 670.58L484.46 680.09L486.26 683.54L487.57 687.56L488.52 690.17L489.17 692.93L485.50 693.94L478.11 697.23L475.19 698.23L474.38 699.82L473.82 703.26L473.59 706.88L473.23 710.40L472.72 713.24L472.37 716.01L471.50 718.17L468.97 720.75L465.53 724.90L464.06 726.53L462.45 728.51L461.46 730.12L458.55 730.43L455.13 729.85L451.71 729.27L447.58 728.91L443.76 728.42L439.67 727.58L436.88 726.94L433.79 725.41L432.18 723.34L431.04 721.41L429.16 716.79L427.57 712.53L425.20 708.13L423.18 704.31L420.97 702.20L419.33 701.36L416.23 700.51L412.73 699.65L410.39 698.60L407.84 696.83L406.36 693.45L404.85 689.83L403.98 686.54L403.56 684.95L403.08 681.05L401.98 676.77L400.12 672.59L397.03 672.92L393.79 672.99L389.50 673.46L383.25 673.88L382.09 678.01L381.79 680.93L381.29 683.65L380.60 690.43L380.43 693.20L380.33 695.58L379.45 699.10L375.85 707.46L370.09 708.44L369.49 714.47L369.55 717.68L367.99 723.35L365.43 731.11L364.25 734.87L364.45 736.83L364.31 738.74L364.13 741.77L362.54 742.25L359.43 743.19L355.76 744.25L350.85 745.27L347.23 744.38L336.04 751.83L331.58 755.34L329.71 756.52L328.00 757.60L317.16 765.43L312.19 768.64L309.20 770.57L307.13 772.03L303.08 774.89L308.80 789.04L313.76 786.56L317.64 784.63L322.05 782.43L334.30 776.32L338.75 774.10L342.06 772.45L345.96 773.28L359.60 776.42L377.32 780.49L378.61 780.79L380.77 781.28L382.99 781.79L385.72 782.42L393.58 784.23L395.85 784.75L409.80 788.05L415.43 789.38L421.37 790.77L430.15 792.83L440.76 795.33L446.16 796.60L453.76 798.32L467.33 801.40L479.36 804.13L480.75 804.42L482.12 802.13L482.79 801.00L483.52 799.77L484.97 797.34L487.88 792.46L494.20 781.84L495.25 780.09L496.93 777.25L500.50 771.26L501.78 769.13L503.17 766.79L506.34 761.46L507.29 759.87L507.78 757.32L508.06 755.82L508.40 754.07L508.70 752.50L509.13 750.24L509.53 748.17L509.92 746.09L510.71 741.97L510.97 740.62L511.33 738.72L511.58 737.42L512.29 733.70L512.76 731.25L513.24 728.71L514.01 724.69L516.91 724.46L517.25 722.01L517.59 719.57L518.59 712.39L520.74 697.00L521.36 695.26L522.75 689.38Z" data-ward="11" /><path id="ward-19" class="ward" d="M242.48 629.70L240.52 634.43L238.66 638.58L236.31 644.84L234.51 648.39L234.24 651.20L234.17 652.85L234.08 654.62L236.17 654.82L238.58 655.05L240.49 655.26L242.51 655.50L244.99 655.72L247.11 655.79L249.34 655.64L251.26 655.49L254.00 655.33L256.68 654.91L258.93 654.58L261.41 654.30L263.63 653.89L266.09 653.52L267.78 653.50L269.70 653.57L271.21 653.90L274.23 654.82L276.67 655.58L279.07 656.41L281.06 657.12L282.81 657.71L284.61 658.21L286.42 658.67L288.52 659.16L290.75 659.49L292.69 659.78L294.96 660.25L296.96 660.50L298.88 661.28L299.99 663.34L300.71 664.47L301.86 666.48L302.12 668.37L301.71 670.49L300.56 671.89L299.16 672.70L297.62 673.39L294.77 674.05L293.13 674.63L291.53 675.22L290.13 676.33L289.37 677.37L288.30 679.25L286.87 682.74L286.06 684.90L284.89 686.85L283.64 688.47L282.99 689.81L286.36 689.62L289.34 689.73L291.90 690.76L293.91 691.90L296.36 693.17L298.82 694.87L300.20 696.91L303.00 698.49L306.30 698.53L310.72 697.95L315.15 695.84L320.40 694.09L324.99 692.40L329.35 691.66L333.37 691.96L337.62 692.08L341.04 693.37L345.06 696.43L349.35 699.81L353.12 702.96L356.89 705.96L363.00 707.23L370.09 708.44L375.85 707.46L379.45 699.10L380.33 695.58L380.43 693.20L380.60 690.43L381.29 683.65L381.79 680.93L382.09 678.01L383.25 673.88L389.50 673.46L393.79 672.99L397.03 672.92L400.12 672.59L399.55 671.27L397.55 666.70L395.41 661.67L393.63 658.26L391.22 654.48L388.29 650.69L385.70 647.77L382.44 643.46L378.99 638.50L376.40 635.18L375.73 633.23L375.81 631.42L377.67 626.37L378.77 621.67L378.57 617.86L378.14 614.19L377.64 609.67L377.84 606.26L378.54 598.95L378.62 589.34L372.94 589.27L371.46 590.09L370.20 590.38L366.30 590.65L361.91 590.88L356.94 590.95L354.30 591.64L352.36 592.51L346.44 595.19L347.99 604.41L342.99 612.98L338.21 610.98L334.56 608.17L330.35 604.94L328.56 602.47L326.33 599.39L324.71 596.98L323.91 595.78L321.95 593.12L320.52 591.16L318.48 589.61L315.43 588.29L315.30 590.02L315.48 592.25L315.63 595.10L315.78 597.79L315.89 600.69L315.88 603.27L315.30 605.79L311.48 606.69L308.85 606.01L306.88 604.28L304.22 602.44L300.08 600.17L296.90 598.94L293.28 597.52L291.34 597.49L287.02 598.21L282.71 599.07L278.77 599.93L274.27 601.89L270.64 603.51L268.15 604.72L265.39 606.74L263.03 608.76L260.12 609.84L258.85 610.48L257.21 611.30L255.32 612.99L253.20 615.39L250.64 618.96L248.95 621.68L246.62 624.54L245.09 625.89L243.43 628.02L242.48 629.70Z" data-ward="19" /><path id="ward-5" class="ward" d="M837.60 311.70L834.08 310.38L830.13 308.84L810.03 301.16L783.72 291.10L779.58 289.52L777.44 288.70L775.15 287.83L772.58 286.84L767.91 285.06L763.74 283.46L761.21 282.04L757.24 279.81L755.13 278.62L752.43 277.87L749.70 277.10L747.33 276.43L744.96 275.48L743.62 274.95L741.42 274.06L736.25 271.97L731.20 269.93L728.15 268.81L726.91 268.36L724.99 267.66L722.89 266.89L718.60 265.32L712.97 263.26L711.36 262.67L709.84 262.00L706.80 260.67L701.03 258.13L693.84 262.59L690.21 263.08L689.99 271.48L687.48 276.66L687.12 281.50L679.09 282.74L671.74 284.11L669.89 284.98L667.22 285.44L665.84 287.03L661.41 288.26L657.23 292.82L644.81 297.47L644.59 301.20L646.54 307.81L647.12 310.56L640.82 313.24L633.16 313.22L631.98 323.66L628.71 333.06L632.01 340.86L631.34 346.96L630.24 353.39L625.48 357.03L621.68 360.98L618.56 366.73L608.40 375.85L601.76 370.73L599.31 363.08L593.21 356.52L584.80 352.77L573.82 362.02L569.33 365.79L554.11 378.67L511.04 404.44L509.39 405.43L511.76 406.71L514.48 408.17L519.01 407.63L524.89 405.65L530.22 403.57L535.35 403.75L540.41 406.00L546.56 410.95L546.50 414.86L543.27 420.37L539.89 425.30L538.76 427.33L540.46 429.30L545.49 430.45L551.45 430.20L558.00 429.89L563.42 430.26L569.15 432.58L570.36 433.07L575.60 434.01L580.80 433.89L584.81 431.67L587.91 428.90L591.53 425.69L595.20 424.78L597.24 425.72L598.07 434.79L596.19 444.25L591.70 452.43L591.35 460.32L596.26 466.28L600.81 469.12L608.27 469.23L616.52 465.82L617.89 465.26L622.86 463.09L627.86 459.10L629.46 457.57L632.48 455.85L635.33 456.35L637.70 457.55L639.12 457.31L640.91 455.09L643.39 452.01L644.75 450.31L649.96 445.41L657.85 438.58L659.74 436.95L669.79 428.35L674.75 424.12L677.07 422.13L680.00 419.62L681.34 416.27L683.15 411.75L688.08 403.31L711.43 408.21L744.04 414.97L746.89 415.56L760.40 422.55L765.11 425.03L785.49 435.72L799.77 427.93L824.65 414.36L853.03 412.88L859.49 413.53L867.47 414.34L879.22 415.20L883.80 415.52L888.12 415.42L905.52 413.55L911.44 413.25L919.04 412.87L931.52 412.63L933.48 412.95L935.63 413.57L937.39 414.40L939.13 415.23L941.40 416.38L949.13 416.60L971.13 417.22L1000.00 402.80L993.84 386.03L987.67 369.27L984.59 360.87L981.51 352.49L973.14 345.26L968.29 341.07L955.54 330.05L944.48 320.49L933.50 310.99L923.67 312.17L906.67 314.20L897.07 315.35L883.97 316.89L882.37 317.08L871.37 318.35L866.27 318.24L859.05 319.28L858.86 317.16L858.68 315.04L853.38 315.30L848.08 315.56L837.60 311.70Z" data-ward="5" /><path id="ward-6" class="ward" d="M454.15 297.21L451.13 296.92L449.40 299.82L447.47 303.03L444.15 305.12L440.85 305.86L439.69 304.91L436.70 304.34L423.99 295.11L418.94 289.71L416.48 282.40L408.84 274.41L402.39 275.86L396.99 277.44L388.69 277.02L378.15 276.28L374.59 277.63L371.94 278.62L367.38 280.33L363.06 279.65L357.75 278.81L342.94 274.07L327.62 283.54L322.62 290.70L312.04 294.20L299.65 294.84L298.37 294.57L295.65 293.99L288.81 292.52L286.31 291.99L282.60 285.50L275.61 270.97L272.46 262.55L269.49 250.40L268.63 241.20L262.78 234.88L261.38 234.84L237.39 225.07L235.50 230.11L235.27 232.85L235.06 235.57L235.76 241.22L237.67 248.02L238.98 253.60L243.39 272.51L248.69 281.58L251.83 287.05L253.49 295.86L254.03 298.16L261.51 299.72L265.44 300.27L266.70 302.20L265.96 303.87L263.25 307.68L262.27 310.40L262.18 315.16L262.77 317.56L263.63 327.43L264.12 332.87L264.98 342.26L265.20 343.68L265.79 347.52L265.14 354.57L265.00 356.09L264.61 358.36L263.48 365.13L261.39 374.64L259.25 382.02L258.80 384.83L260.57 388.06L264.11 391.28L267.20 393.67L276.15 398.66L285.45 403.85L294.24 409.64L304.11 419.21L307.52 423.24L312.44 432.29L318.91 441.32L320.20 442.98L322.96 446.49L326.17 450.60L329.14 453.03L330.71 454.05L331.90 449.04L332.55 446.24L335.57 442.99L339.73 438.07L342.77 434.93L345.98 432.81L351.70 430.27L355.68 428.41L360.48 425.72L362.48 424.45L362.94 422.92L363.07 420.34L361.99 415.67L362.09 406.84L366.23 395.44L375.27 377.93L382.28 369.04L385.40 361.66L388.46 352.15L395.15 345.22L409.10 334.11L415.95 333.21L426.62 337.41L439.70 336.72L448.21 332.77L450.49 325.30L456.57 318.00L462.00 311.76L460.07 309.79L460.42 305.33L459.62 302.44L458.14 300.16L456.38 298.36L454.15 297.21Z" data-ward="6" /><path id="ward-14" class="ward" d="M239.46 828.24L241.32 825.04L242.86 820.54L242.76 818.02L244.37 810.62L244.84 808.61L239.38 806.81L231.76 806.95L223.18 807.80L218.23 808.84L214.03 809.53L210.14 810.14L205.78 811.33L201.42 811.86L199.58 812.04L195.59 811.85L190.94 811.53L189.47 811.87L185.39 812.82L181.95 813.54L183.32 817.98L184.70 821.65L185.75 824.50L167.88 827.55L157.56 829.33L171.94 840.92L181.19 857.52L185.14 866.17L188.05 873.38L189.38 881.39L192.52 880.96L195.67 880.39L198.91 880.13L202.30 880.16L204.67 880.40L207.62 880.80L211.23 882.14L214.74 883.83L218.52 885.03L219.75 879.52L220.30 875.38L223.09 875.71L226.03 875.81L228.57 875.95L232.26 876.23L235.42 876.36L236.90 876.41L239.63 875.89L238.54 872.99L237.45 870.10L238.74 869.21L239.83 868.47L241.27 867.49L242.79 866.45L245.75 864.43L251.66 860.39L253.87 858.87L254.46 857.64L255.46 855.56L256.33 853.74L257.44 852.51L258.49 851.34L259.86 849.83L260.75 848.84L261.64 847.86L263.28 846.03L262.68 844.45L262.06 842.84L261.34 840.95L261.05 839.40L256.55 825.43L238.13 831.81L237.80 829.28L239.46 828.24Z" data-ward="14" /><path id="ward-8" class="ward" d="M616.52 465.82L608.27 469.23L600.81 469.12L596.26 466.28L591.35 460.32L591.70 452.43L596.19 444.25L598.07 434.79L597.24 425.72L595.20 424.78L591.53 425.69L587.91 428.90L584.81 431.67L580.80 433.89L575.60 434.01L570.36 433.07L569.15 432.58L563.42 430.26L558.00 429.89L551.45 430.20L545.49 430.45L540.46 429.30L538.76 427.33L517.64 445.48L503.06 452.89L500.15 452.16L497.22 451.88L491.24 452.11L491.05 456.10L490.08 460.28L487.58 461.97L486.41 462.96L485.81 464.88L484.65 471.73L484.13 476.08L483.46 477.43L477.49 477.15L470.12 476.56L466.19 475.03L440.41 495.78L438.52 497.31L436.90 497.75L434.61 498.15L432.54 498.42L430.31 498.50L427.62 498.63L424.49 498.34L423.87 503.44L423.92 504.82L422.65 508.50L422.91 512.77L418.02 514.38L413.23 517.29L407.68 520.47L401.13 522.12L395.97 523.41L397.57 527.19L400.92 530.41L403.49 534.59L404.38 538.56L405.77 541.57L408.15 544.02L410.23 544.62L413.59 550.08L413.29 556.34L411.27 565.36L407.70 563.20L404.64 560.07L401.05 560.87L397.18 562.96L395.19 562.37L383.72 563.25L369.30 564.86L372.97 569.90L376.36 574.26L378.06 578.63L378.19 581.10L378.56 587.49L384.82 588.48L387.79 588.66L389.20 588.47L391.70 588.14L400.10 585.67L406.36 583.37L416.42 579.67L422.13 577.56L426.34 580.16L431.40 582.16L434.19 583.37L434.67 585.10L438.50 595.98L439.83 601.07L441.27 606.54L438.59 614.49L436.70 621.16L435.22 627.89L434.65 636.08L447.21 636.58L451.46 636.75L452.26 631.07L462.29 631.83L464.00 624.27L465.18 613.30L464.75 609.56L463.14 595.46L452.84 594.21L456.33 588.32L458.48 586.98L461.93 585.05L464.47 582.88L467.54 576.37L467.41 573.92L467.30 571.73L467.85 566.51L468.67 564.67L473.28 564.05L475.83 563.01L479.73 559.11L482.68 555.54L483.69 553.54L483.46 552.22L491.69 551.85L493.48 542.77L495.51 532.56L496.56 531.46L499.31 530.77L499.59 528.71L500.69 527.90L502.58 527.76L501.98 520.58L505.57 520.56L510.28 520.52L514.98 520.49L532.46 520.36L541.40 521.27L549.65 520.85L560.40 518.92L570.00 517.62L575.66 515.63L577.57 515.12L587.25 512.54L591.56 510.96L594.83 509.75L604.41 506.03L610.97 503.55L615.67 501.60L621.56 499.35L622.39 496.82L621.07 491.29L618.37 482.44L616.59 472.53L615.21 468.48L616.52 465.82Z" data-ward="8" /><path id="ward-23" class="ward" d="M53.96 421.32L49.66 421.14L50.97 422.36L51.16 422.53L52.51 423.79L68.13 438.33L77.36 446.93L85.49 454.40L101.02 468.66L106.70 483.72L114.02 502.28L120.97 521.01L122.13 524.31L122.80 526.23L123.03 526.90L125.14 532.90L127.08 538.10L132.08 549.98L133.42 553.15L135.32 557.65L137.07 561.81L137.37 562.52L138.78 565.86L141.21 564.94L141.86 564.73L144.68 563.84L146.28 563.33L149.97 562.16L157.68 559.72L166.50 556.92L176.56 554.62L186.08 553.70L182.42 542.47L180.24 535.78L174.51 536.27L173.77 531.74L173.85 530.34L185.96 528.14L187.23 511.77L205.70 418.47L214.77 409.22L208.66 397.86L199.80 381.38L190.81 370.97L192.06 360.26L192.82 353.70L193.11 351.20L188.51 331.11L182.54 330.60L181.95 327.99L180.58 326.42L178.71 326.06L174.98 326.54L171.22 327.23L169.32 326.73L166.08 327.52L164.89 328.46L163.80 329.48L162.81 330.39L160.64 331.32L158.68 332.15L156.60 332.87L155.09 333.97L153.30 335.63L152.92 337.77L152.55 341.11L150.97 342.14L148.21 343.43L147.10 344.19L146.03 344.93L145.14 345.98L144.56 347.26L144.13 349.33L143.95 352.37L143.43 355.48L142.94 357.93L139.86 359.10L137.71 360.42L136.20 361.88L135.08 363.48L133.73 365.38L132.07 367.96L129.91 369.53L125.99 371.52L127.35 366.65L127.44 363.66L127.27 358.60L125.55 357.81L125.19 356.48L125.13 353.49L124.86 351.63L124.80 348.97L124.16 346.49L120.59 346.17L118.90 345.61L115.81 344.97L114.92 347.14L114.24 349.54L113.00 350.84L112.30 354.89L111.81 356.40L108.69 359.19L107.06 359.98L105.63 359.80L102.57 359.89L100.42 359.80L97.62 360.44L96.26 362.13L93.34 365.72L92.27 367.11L89.86 370.39L87.80 373.42L85.86 376.03L84.26 378.19L83.86 380.63L83.19 383.44L82.73 386.54L82.03 391.33L81.31 396.05L80.18 401.34L79.14 403.77L77.00 407.82L75.97 413.44L75.72 417.99L67.45 418.96L60.30 420.21L53.96 421.32Z" data-ward="23" /><path id="ward-4" class="ward" d="M654.00 208.88L652.49 206.42L650.87 203.76L647.55 198.38L646.82 197.27L645.08 194.60L641.66 189.39L639.59 190.31L628.79 195.16L616.46 201.11L615.29 201.67L613.15 204.21L610.62 205.55L607.89 207.11L606.36 208.86L604.70 212.48L602.73 218.02L600.65 221.13L598.90 222.45L596.21 223.71L594.50 224.50L592.60 225.39L591.52 226.26L587.80 229.19L585.36 230.52L582.93 230.91L576.34 231.20L572.11 231.25L568.48 230.84L566.12 230.57L564.50 230.19L562.02 229.17L559.22 227.70L557.12 226.61L555.58 224.33L554.36 221.98L552.09 220.35L549.94 219.64L546.80 219.93L544.06 220.99L541.95 221.81L539.44 223.84L536.72 225.30L533.81 226.72L530.43 227.88L527.11 228.83L524.01 229.71L520.98 230.43L517.00 230.78L514.54 230.74L512.63 230.84L511.04 231.10L507.86 232.28L502.45 233.74L497.48 235.58L492.23 236.55L488.78 237.69L486.80 242.04L483.98 247.16L481.59 252.05L480.67 253.67L479.13 256.40L478.82 258.29L476.33 257.79L469.88 256.50L466.51 255.82L462.54 250.68L457.04 245.80L451.90 245.37L449.89 263.56L444.15 305.12L447.47 303.03L449.40 299.82L451.13 296.92L454.15 297.21L456.38 298.36L458.14 300.16L459.62 302.44L460.42 305.33L460.07 309.79L462.00 311.76L469.44 316.09L473.75 316.03L474.66 320.97L471.48 325.90L471.24 332.90L471.03 336.03L470.85 339.68L472.98 342.16L476.57 346.39L481.33 350.72L485.50 355.22L486.33 358.93L484.29 361.39L481.28 365.03L475.74 373.48L478.92 380.45L482.68 383.43L489.66 386.07L496.63 390.11L501.28 395.83L505.98 402.08L509.39 405.43L511.04 404.44L554.11 378.67L569.33 365.79L573.82 362.02L584.80 352.77L593.21 356.52L599.31 363.08L601.76 370.73L608.40 375.85L618.56 366.73L621.68 360.98L625.48 357.03L630.24 353.39L631.34 346.96L632.01 340.86L628.71 333.06L631.98 323.66L633.16 313.22L640.82 313.24L647.12 310.56L646.54 307.81L644.59 301.20L644.81 297.47L657.23 292.82L661.41 288.26L665.84 287.03L667.22 285.44L669.89 284.98L671.74 284.11L679.09 282.74L687.12 281.50L687.48 276.66L689.99 271.48L690.21 263.08L693.84 262.59L701.03 258.13L698.51 257.03L697.14 256.42L693.82 254.91L692.06 254.07L689.72 252.95L685.82 251.09L684.33 250.39L683.10 249.81L679.02 247.88L676.39 243.76L671.70 236.44L669.24 232.60L666.52 228.37L663.91 224.30L660.28 218.66L657.85 214.93L656.92 213.49L655.36 211.08L654.00 208.88Z" data-ward="4" /><path id="ward-3" class="ward" d="M445.92 149.85L438.97 154.50L439.96 164.83L438.67 168.90L431.45 173.61L424.34 187.53L422.02 190.49L417.11 192.27L416.39 193.75L412.25 205.63L411.03 212.27L409.03 213.51L406.44 214.21L404.62 217.23L409.32 227.88L409.59 234.73L411.13 240.64L412.65 241.93L416.83 241.48L418.40 241.29L419.20 243.45L419.44 249.14L419.45 250.75L422.31 250.37L425.09 249.35L428.07 248.38L430.13 248.29L431.47 247.82L432.96 245.26L438.09 245.53L450.23 245.21L451.90 245.37L457.04 245.80L462.54 250.68L466.51 255.82L469.88 256.50L476.33 257.79L478.82 258.29L479.13 256.40L480.67 253.67L481.59 252.05L483.98 247.16L486.80 242.04L488.78 237.69L492.23 236.55L497.48 235.58L502.45 233.74L507.86 232.28L511.04 231.10L512.63 230.84L514.54 230.74L517.00 230.78L520.98 230.43L524.01 229.71L527.11 228.83L530.43 227.88L533.81 226.72L536.72 225.30L539.44 223.84L541.95 221.81L544.06 220.99L546.80 219.93L549.94 219.64L552.09 220.35L554.36 221.98L555.58 224.33L557.12 226.61L559.22 227.70L562.02 229.17L564.50 230.19L566.12 230.57L568.48 230.84L572.11 231.25L576.34 231.20L582.93 230.91L585.36 230.52L587.80 229.19L591.52 226.26L592.60 225.39L594.50 224.50L596.21 223.71L598.90 222.45L600.65 221.13L602.73 218.02L604.70 212.48L606.36 208.86L607.89 207.11L610.62 205.55L613.15 204.21L615.29 201.67L616.46 201.11L615.98 193.07L615.68 188.03L615.40 183.26L615.07 177.82L614.29 164.75L613.65 153.86L610.68 152.77L608.01 151.79L605.10 150.72L602.70 149.83L599.77 148.75L597.27 147.80L595.05 146.97L591.91 145.79L588.78 144.62L582.56 142.29L579.70 141.21L576.76 140.11L571.00 137.94L569.34 137.32L567.89 136.77L564.39 135.46L557.73 133.08L556.45 132.62L549.43 130.07L545.95 128.73L527.88 121.79L526.44 122.51L525.08 122.25L520.49 117.22L516.60 116.12L512.24 116.56L502.98 121.52L497.90 122.68L494.05 122.52L482.35 122.83L470.20 123.70L463.51 122.49L461.46 122.09L457.73 122.86L455.85 124.98L454.84 126.10L450.41 128.39L447.74 129.56L446.12 130.19L445.92 149.85Z" data-ward="3" /><path id="ward-15" class="ward" d="M157.56 829.33L117.41 816.50L118.36 825.78L121.03 827.40L119.49 843.84L119.09 848.16L118.92 850.99L122.03 851.86L123.38 854.29L123.90 856.94L124.10 858.44L125.66 857.56L126.36 856.33L127.03 855.15L127.69 853.97L130.43 854.76L133.16 855.55L137.94 856.92L144.09 858.69L149.60 860.27L148.80 862.36L147.99 864.44L146.38 868.61L142.19 879.46L137.68 891.16L136.84 893.35L135.01 898.09L136.88 900.76L140.90 906.51L142.91 909.38L145.92 913.69L147.92 916.54L151.40 921.52L156.13 928.28L162.31 931.30L164.91 932.58L166.61 933.27L173.25 935.99L175.72 937.00L176.98 937.52L180.59 939.01L182.33 939.73L184.91 939.73L189.02 934.81L191.04 932.36L193.05 929.94L196.15 926.40L199.93 922.09L201.68 920.09L203.73 920.15L206.01 920.22L207.42 920.18L210.08 920.10L216.32 919.93L221.21 918.18L223.74 916.61L225.69 915.40L224.84 912.46L223.70 908.50L221.39 900.51L220.37 896.96L228.10 895.47L229.44 895.22L230.94 894.93L234.45 893.88L238.27 892.73L241.04 891.62L243.63 890.61L244.98 890.08L243.99 887.46L242.45 883.38L239.63 875.89L236.90 876.41L235.42 876.36L232.26 876.23L228.57 875.95L226.03 875.81L223.09 875.71L220.30 875.38L219.75 879.52L218.52 885.03L214.74 883.83L211.23 882.14L207.62 880.80L204.67 880.40L202.30 880.16L198.91 880.13L195.67 880.39L192.52 880.96L189.38 881.39L188.05 873.38L185.14 866.17L181.19 857.52L171.94 840.92L157.56 829.33Z" data-ward="15" /><path id="ward-16" class="ward" d="M114.74 714.72L112.05 716.13L110.91 716.73L108.94 717.62L107.31 718.35L105.99 718.95L104.74 719.52L103.14 720.24L100.72 721.33L99.18 723.18L98.28 724.25L97.41 725.30L96.35 726.57L93.85 726.82L90.43 727.15L89.45 729.41L88.92 730.63L88.28 732.10L86.65 733.05L84.58 734.26L83.41 734.94L82.01 735.76L80.78 736.47L79.60 737.16L78.35 737.89L76.79 738.80L75.56 739.52L73.79 740.55L74.41 746.16L74.61 747.95L75.00 751.45L75.18 753.09L75.91 755.13L76.36 756.37L77.36 759.16L77.76 760.98L78.41 763.89L79.11 767.06L79.53 768.94L80.11 771.58L80.63 773.91L81.01 775.64L82.55 778.43L83.41 779.99L84.21 781.45L85.11 783.09L85.82 784.37L87.18 786.84L88.21 788.71L89.84 791.67L90.83 793.48L92.59 796.18L93.76 797.97L94.71 799.42L97.47 801.67L90.17 815.34L88.80 818.00L89.74 819.46L90.92 821.29L91.81 822.67L92.57 825.48L93.86 830.29L94.32 831.99L94.94 834.32L95.26 835.93L96.03 839.88L96.28 841.18L96.65 843.06L96.96 844.66L97.28 846.27L97.59 847.86L97.90 849.46L98.21 851.04L98.51 852.61L98.95 854.86L99.24 856.34L99.00 858.25L98.82 859.68L98.64 861.12L98.46 862.52L98.18 864.79L97.98 866.35L97.80 867.74L97.56 869.69L97.39 871.05L97.16 872.86L96.55 877.69L100.28 879.03L105.57 876.82L108.93 875.42L110.17 874.90L114.00 873.30L117.64 871.78L118.91 869.53L120.27 867.11L120.99 865.84L122.17 863.75L123.59 861.24L124.30 859.98L124.10 858.44L123.90 856.94L123.38 854.29L122.03 851.86L118.92 850.99L119.09 848.16L119.49 843.84L121.03 827.40L118.36 825.78L117.41 816.50L157.56 829.33L167.88 827.55L185.75 824.50L184.70 821.65L183.32 817.98L181.95 813.54L181.49 812.07L181.35 810.19L181.27 807.81L181.11 804.02L169.95 796.01L163.49 797.15L159.11 795.57L153.10 794.03L143.77 792.99L144.66 788.89L146.19 784.28L147.97 780.14L150.24 775.48L152.38 771.10L152.43 768.34L149.03 770.43L144.74 771.79L137.25 772.14L127.64 770.81L120.09 770.23L118.14 769.66L117.14 768.74L116.89 766.79L116.42 763.64L116.02 761.06L115.10 756.43L114.83 754.90L114.50 753.37L116.60 752.92L117.95 752.63L119.51 752.49L121.74 752.12L121.97 747.22L121.88 744.64L121.75 742.46L121.65 740.38L121.55 738.40L121.67 736.63L121.75 735.23L123.31 734.80L124.83 734.95L125.64 733.05L128.64 732.76L131.35 733.08L136.18 730.82L137.27 728.42L138.26 726.18L138.48 724.50L138.73 722.18L136.67 722.16L133.94 721.89L131.28 719.18L129.33 716.71L128.03 714.90L126.12 710.70L123.22 711.80L121.47 712.87L120.00 713.51L115.64 714.24L114.74 714.72Z" data-ward="16" /><path id="ward-17" class="ward" d="M201.25 647.70L198.54 647.70L197.18 648.44L196.45 648.84L192.17 651.18L190.69 651.99L188.97 653.83L181.41 657.09L177.61 659.19L174.15 661.09L170.29 663.22L167.92 664.52L166.54 665.28L167.04 667.65L167.84 671.38L168.18 673.02L168.65 675.21L169.16 677.62L166.67 678.57L160.89 680.75L157.50 682.03L152.66 683.86L148.70 685.36L146.14 686.33L144.68 688.96L143.02 692.18L141.33 693.86L136.25 698.92L132.30 702.85L129.03 706.11L128.64 706.50L127.40 707.74L126.12 710.70L128.03 714.90L129.33 716.71L131.28 719.18L133.94 721.89L136.67 722.16L138.73 722.18L138.48 724.50L138.26 726.18L137.27 728.42L136.18 730.82L131.35 733.08L128.64 732.76L125.64 733.05L124.83 734.95L123.31 734.80L121.75 735.23L121.67 736.63L121.55 738.40L121.65 740.38L121.75 742.46L121.88 744.64L121.97 747.22L121.74 752.12L119.51 752.49L117.95 752.63L116.60 752.92L114.50 753.37L114.83 754.90L115.10 756.43L116.02 761.06L116.42 763.64L116.89 766.79L117.14 768.74L118.14 769.66L120.09 770.23L127.64 770.81L137.25 772.14L144.74 771.79L149.03 770.43L152.43 768.34L152.38 771.10L150.24 775.48L147.97 780.14L146.19 784.28L144.66 788.89L143.77 792.99L153.10 794.03L159.11 795.57L163.49 797.15L169.95 796.01L181.11 804.02L182.47 803.33L184.01 802.59L186.85 801.16L187.33 799.77L188.34 797.11L189.27 794.58L190.17 792.02L191.34 788.78L192.57 785.68L193.65 782.70L194.48 780.44L195.08 778.92L199.63 764.25L204.85 763.22L204.79 761.62L204.75 760.22L204.66 758.31L204.65 756.09L204.57 753.76L204.43 751.47L204.39 749.08L204.32 746.21L205.35 743.53L207.61 741.99L207.65 739.38L207.49 738.04L207.92 735.64L208.18 733.83L208.45 732.20L208.54 729.83L208.59 728.27L208.62 726.39L208.80 723.40L209.04 719.03L209.39 714.31L209.36 711.55L209.23 709.51L208.89 707.55L208.63 705.44L208.11 702.65L207.93 700.04L207.47 696.35L207.11 693.91L207.16 691.46L207.32 688.23L207.57 684.69L207.68 680.58L207.75 679.03L207.44 677.78L207.03 675.70L206.70 673.12L206.41 670.68L206.18 668.47L205.69 664.42L204.45 656.33L202.08 649.73L201.25 647.70Z" data-ward="17" /><path id="ward-18" class="ward" d="M238.66 638.58L234.20 625.95L229.08 629.74L227.49 630.92L224.31 633.28L222.70 634.58L217.87 637.13L217.19 637.49L215.87 638.21L213.98 639.25L212.80 639.89L211.91 641.99L211.71 642.12L211.61 642.19L211.41 642.30L211.09 642.46L210.51 642.77L209.34 643.39L207.01 644.63L202.43 647.07L201.25 647.70L202.08 649.73L204.45 656.33L205.69 664.42L206.18 668.47L206.41 670.68L206.70 673.12L207.03 675.70L207.44 677.78L207.75 679.03L207.68 680.58L207.57 684.69L207.32 688.23L207.16 691.46L207.11 693.91L207.47 696.35L207.93 700.04L208.11 702.65L208.63 705.44L208.89 707.55L209.23 709.51L209.36 711.55L209.39 714.31L209.04 719.03L208.80 723.40L208.62 726.39L208.59 728.27L208.54 729.83L208.45 732.20L208.18 733.83L207.92 735.64L207.49 738.04L207.65 739.38L207.61 741.99L205.35 743.53L204.32 746.21L204.39 749.08L204.43 751.47L204.57 753.76L204.65 756.09L204.66 758.31L204.75 760.22L204.79 761.62L204.85 763.22L199.63 764.25L195.08 778.92L194.48 780.44L193.65 782.70L192.57 785.68L191.34 788.78L190.17 792.02L189.27 794.58L188.34 797.11L187.33 799.77L186.85 801.16L184.01 802.59L182.47 803.33L181.11 804.02L181.27 807.81L181.35 810.19L181.49 812.07L181.95 813.54L185.39 812.82L189.47 811.87L190.94 811.53L195.59 811.85L199.58 812.04L201.42 811.86L205.78 811.33L210.14 810.14L214.03 809.53L218.23 808.84L223.18 807.80L221.46 804.26L220.92 803.01L220.20 796.60L220.30 792.34L221.85 787.31L222.32 785.76L221.69 783.40L220.36 781.32L220.43 777.61L220.64 774.84L222.31 768.57L224.15 762.66L225.92 758.10L228.31 752.26L229.62 749.12L230.68 746.95L253.63 757.80L253.81 754.81L254.54 749.37L254.97 745.75L255.16 744.09L255.41 742.75L256.36 737.43L258.91 728.24L262.80 718.26L265.46 711.87L269.18 704.41L272.02 700.22L275.12 696.71L278.60 693.59L282.99 689.81L283.64 688.47L284.89 686.85L286.06 684.90L286.87 682.74L288.30 679.25L289.37 677.37L290.13 676.33L291.53 675.22L293.13 674.63L294.77 674.05L297.62 673.39L299.16 672.70L300.56 671.89L301.71 670.49L302.12 668.37L301.86 666.48L300.71 664.47L299.99 663.34L298.88 661.28L296.96 660.50L294.96 660.25L292.69 659.78L290.75 659.49L288.52 659.16L286.42 658.67L284.61 658.21L282.81 657.71L281.06 657.12L279.07 656.41L276.67 655.58L274.23 654.82L271.21 653.90L269.70 653.57L267.78 653.50L266.09 653.52L263.63 653.89L261.41 654.30L258.93 654.58L256.68 654.91L254.00 655.33L251.26 655.49L249.34 655.64L247.11 655.79L244.99 655.72L242.51 655.50L240.49 655.26L238.58 655.05L236.17 654.82L234.08 654.62L234.17 652.85L234.24 651.20L234.51 648.39L236.31 644.84L238.66 638.58Z" data-ward="18" /><path id="ward-12" class="ward" d="M293.99 747.53L295.45 750.22L307.13 772.03L309.20 770.57L312.19 768.64L317.16 765.43L328.00 757.60L329.71 756.52L331.58 755.34L336.04 751.83L347.23 744.38L350.85 745.27L355.76 744.25L359.43 743.19L362.54 742.25L364.13 741.77L364.31 738.74L364.45 736.83L364.25 734.87L365.43 731.11L367.99 723.35L369.55 717.68L369.49 714.47L370.09 708.44L363.00 707.23L356.89 705.96L353.12 702.96L349.35 699.81L345.06 696.43L341.04 693.37L337.62 692.08L333.37 691.96L329.35 691.66L324.99 692.40L320.40 694.09L315.15 695.84L310.72 697.95L306.30 698.53L303.00 698.49L300.20 696.91L298.82 694.87L296.36 693.17L293.91 691.90L291.90 690.76L289.34 689.73L286.36 689.62L282.99 689.81L278.60 693.59L275.12 696.71L272.02 700.22L269.18 704.41L265.46 711.87L262.80 718.26L258.91 728.24L256.36 737.43L255.41 742.75L255.16 744.09L254.97 745.75L254.54 749.37L253.81 754.81L253.63 757.80L253.53 759.55L251.91 766.26L258.90 767.17L258.98 765.12L264.73 763.63L266.98 763.21L269.54 762.12L272.11 760.87L284.64 753.56L288.70 750.94L293.99 747.53Z" data-ward="12" /><path id="ward-9" class="ward" d="M635.33 456.35L632.48 455.85L629.46 457.57L627.86 459.10L622.86 463.09L617.89 465.26L616.52 465.82L615.21 468.48L616.59 472.53L618.37 482.44L621.07 491.29L622.39 496.82L621.56 499.35L615.67 501.60L610.97 503.55L604.41 506.03L594.83 509.75L591.56 510.96L587.25 512.54L577.57 515.12L575.66 515.63L570.00 517.62L560.40 518.92L549.65 520.85L541.40 521.27L532.46 520.36L514.98 520.49L510.28 520.52L505.57 520.56L501.98 520.58L502.58 527.76L500.69 527.90L499.59 528.71L499.31 530.77L496.56 531.46L495.51 532.56L493.48 542.77L491.69 551.85L483.46 552.22L483.69 553.54L482.68 555.54L479.73 559.11L475.83 563.01L473.28 564.05L468.67 564.67L467.85 566.51L467.30 571.73L467.41 573.92L467.54 576.37L464.47 582.88L461.93 585.05L458.48 586.98L456.33 588.32L452.84 594.21L463.14 595.46L464.75 609.56L465.18 613.30L464.00 624.27L462.29 631.83L461.73 634.14L462.93 634.91L469.53 634.63L468.87 630.77L472.84 630.42L478.60 629.92L480.22 619.25L482.88 619.47L483.44 621.92L483.41 624.13L483.38 625.68L483.21 628.35L490.44 627.07L493.77 630.37L497.21 632.90L499.62 633.97L502.57 634.33L504.69 634.34L506.98 635.03L508.94 636.50L513.39 641.09L516.12 642.69L519.59 643.14L521.79 644.09L523.99 645.04L525.65 647.20L527.15 651.77L528.58 652.23L534.44 654.10L534.96 652.70L535.44 651.41L535.99 649.93L537.38 646.19L538.27 643.70L539.17 641.17L542.08 632.97L545.76 622.60L546.49 620.55L547.20 618.56L547.79 616.90L548.22 615.67L556.28 608.22L561.84 603.08L565.06 600.11L569.94 599.37L578.52 598.08L580.36 596.82L584.15 591.31L588.57 584.88L596.13 573.90L603.91 562.60L606.42 562.59L609.10 562.58L613.39 562.56L619.75 562.24L624.30 562.02L634.55 561.33L638.14 561.12L643.74 560.59L647.82 560.42L649.27 560.42L653.04 560.38L662.16 560.83L666.22 560.86L672.03 560.91L673.45 560.92L673.52 558.64L673.63 555.24L673.71 552.80L673.77 550.94L673.86 548.18L673.07 546.85L671.54 545.89L670.02 544.92L668.71 544.10L666.30 542.57L665.08 541.80L664.86 539.67L664.36 534.67L664.05 531.61L663.99 529.91L663.91 527.79L663.77 523.93L664.16 521.35L665.15 514.62L666.07 508.41L666.58 505.64L667.62 501.96L668.34 499.44L667.37 496.66L666.87 495.22L666.33 493.68L665.81 492.16L664.74 489.09L663.99 486.94L663.12 484.44L662.25 482.66L661.02 480.14L660.27 478.61L659.24 477.78L656.70 475.73L654.60 475.29L652.46 474.84L650.97 474.53L649.25 471.35L648.40 469.76L646.88 467.73L646.02 466.57L645.03 465.24L643.63 463.36L642.65 462.04L641.37 460.33L640.43 459.06L639.12 457.31L637.70 457.55L635.33 456.35Z" data-ward="9" /><path id="ward-2" class="ward" d="M527.88 121.79L523.05 113.19L521.54 110.42L520.46 108.43L515.99 100.16L514.14 96.72L512.67 94.01L507.15 83.79L495.98 62.94L494.02 59.28L493.52 57.58L492.01 52.36L491.44 50.35L490.16 45.74L488.10 43.56L481.27 36.30L478.14 32.97L474.88 31.05L473.26 30.08L469.00 27.54L466.63 26.12L463.78 24.43L460.70 23.22L458.74 22.46L456.30 21.50L452.00 19.85L443.93 16.69L438.98 16.07L430.15 14.95L427.43 14.60L426.41 13.72L425.35 12.79L424.25 11.84L423.59 13.75L417.43 18.98L411.44 19.40L410.47 17.28L409.80 15.83L401.55 21.07L398.98 23.86L399.07 27.58L397.88 30.69L396.55 32.12L395.34 33.41L393.21 33.94L391.87 34.04L392.16 37.86L393.74 40.31L394.66 41.26L395.48 42.39L395.58 44.07L395.31 46.04L394.78 47.69L394.05 49.12L393.43 50.32L392.53 52.09L391.67 53.14L390.17 54.88L389.10 55.99L387.05 57.64L385.69 58.52L384.47 59.76L383.11 61.57L382.18 62.71L381.20 63.66L379.82 64.26L378.34 64.90L376.51 66.48L375.28 67.56L373.26 69.35L370.88 72.26L369.89 73.60L368.67 75.85L368.07 77.01L367.43 78.24L366.74 79.59L366.55 81.96L367.11 84.00L367.48 85.33L367.87 86.77L367.97 88.20L367.20 90.38L365.42 92.08L363.81 93.74L363.18 95.84L362.92 97.87L362.83 99.23L362.18 101.05L361.46 102.23L360.51 103.89L360.09 106.15L359.85 107.43L359.56 109.68L359.94 111.13L360.42 112.81L360.98 114.47L362.30 116.64L362.61 118.97L362.35 120.75L361.17 122.40L360.11 123.70L358.25 124.82L356.11 124.44L354.78 123.59L352.70 121.80L351.28 121.97L348.66 122.29L347.52 123.03L345.66 124.29L344.61 125.15L343.46 126.25L342.19 127.24L340.56 128.09L338.18 129.29L337.89 131.29L339.49 133.22L339.80 134.58L340.09 136.39L338.59 138.28L336.24 139.44L334.27 140.78L332.86 143.28L331.77 145.77L330.35 147.33L328.90 148.49L326.56 149.81L324.33 151.02L322.05 152.30L321.94 154.96L321.89 156.81L321.05 159.40L320.25 160.44L319.17 162.09L318.18 163.76L317.11 165.00L315.15 166.53L313.87 166.48L311.98 166.47L310.44 166.95L308.65 168.19L308.68 169.80L310.62 172.13L311.96 173.69L312.24 175.98L311.26 176.88L309.83 177.77L308.24 178.43L306.45 178.67L304.58 179.45L302.61 181.57L301.57 184.01L301.69 185.32L301.88 187.88L301.04 190.51L300.23 192.05L299.01 193.25L297.76 194.07L295.85 195.33L294.96 197.71L294.72 199.08L293.88 201.31L293.51 203.19L293.45 205.01L292.94 206.71L292.32 208.88L291.75 210.91L291.23 212.64L290.49 215.14L289.99 218.01L290.24 220.29L291.23 222.11L291.30 223.46L291.38 224.97L289.34 225.87L286.84 224.66L285.20 223.84L283.28 223.41L281.43 224.16L280.17 225.12L278.54 226.28L277.16 226.92L275.86 227.54L273.37 229.20L272.15 230.00L269.82 230.96L267.85 231.76L265.67 232.67L264.08 233.87L262.78 234.88L268.63 241.20L269.49 250.40L272.46 262.55L275.61 270.97L282.60 285.50L286.31 291.99L288.81 292.52L295.65 293.99L298.37 294.57L299.65 294.84L312.04 294.20L322.62 290.70L327.62 283.54L342.94 274.07L357.75 278.81L363.06 279.65L367.38 280.33L371.94 278.62L374.59 277.63L378.15 276.28L388.69 277.02L396.99 277.44L402.39 275.86L408.84 274.41L416.48 282.40L418.94 289.71L423.99 295.11L436.70 304.34L439.69 304.91L440.85 305.86L444.15 305.12L449.89 263.56L451.90 245.37L450.23 245.21L438.09 245.53L432.96 245.26L431.47 247.82L430.13 248.29L428.07 248.38L425.09 249.35L422.31 250.37L419.45 250.75L419.44 249.14L419.20 243.45L418.40 241.29L416.83 241.48L412.65 241.93L411.13 240.64L409.59 234.73L409.32 227.88L404.62 217.23L406.44 214.21L409.03 213.51L411.03 212.27L412.25 205.63L416.39 193.75L417.11 192.27L422.02 190.49L424.34 187.53L431.45 173.61L438.67 168.90L439.96 164.83L438.97 154.50L445.92 149.85L446.12 130.19L447.74 129.56L450.41 128.39L454.84 126.10L455.85 124.98L457.73 122.86L461.46 122.09L463.51 122.49L470.20 123.70L482.35 122.83L494.05 122.52L497.90 122.68L502.98 121.52L512.24 116.56L516.60 116.12L520.49 117.22L525.08 122.25L526.44 122.51L527.88 121.79Z" data-ward="2" /></svg>