<svg viewBox="0 0 1000.00 2509.35" xmlns="http://www.w3.org/2000/svg"><style>.ward { fill: #e2e8f0; stroke: #fff; stroke-width: 0.5px; } .ward:hover { fill: #cbd5e1; }</style><path id="ward-14" class="ward" d="M117.12 187.33L112.75 186.12L110.24 185.43L108.44 184.55L106.25 182.81L103.47 181.04L102.07 180.01L101.04 178.34L99.29 177.38L98.09 176.60L95.91 175.40L92.00 175.83L89.21 175.91L84.49 176.04L81.14 176.13L78.84 176.06L74.42 175.92L67.51 174.91L65.49 171.10L64.33 168.26L62.54 162.67L61.30 158.47L60.50 155.66L59.33 149.93L59.74 146.80L60.01 144.72L60.10 142.96L60.17 141.24L60.28 139.05L58.79 134.34L57.90 132.05L57.24 130.42L54.63 125.64L54.85 120.68L55.59 117.31L54.94 114.17L55.51 111.98L56.59 110.18L56.60 106.43L55.70 102.96L55.14 101.00L54.85 97.11L55.67 91.60L56.39 86.89L56.60 85.40L57.18 81.25L57.74 77.92L58.74 75.49L59.42 73.74L60.92 70.99L60.00 69.18L36.58 53.76L23.30 64.70L20.07 67.35L14.95 71.37L11.61 73.99L10.28 75.05L8.03 76.89L5.25 79.18L3.50 80.62L0.00 83.50L1.11 87.61L1.84 89.25L2.82 91.56L3.96 95.74L4.19 98.92L6.22 102.31L7.24 107.74L10.04 111.98L10.72 114.95L13.71 120.20L8.34 127.59L38.26 158.63L79.64 248.34L81.09 247.95L82.48 247.59L84.55 246.96L86.30 246.21L90.41 244.97L94.27 243.91L97.91 242.30L100.70 240.31L103.47 238.16L107.30 238.31L110.95 236.61L112.18 234.69L112.38 233.23L111.05 230.64L111.02 228.39L111.48 226.55L112.04 223.77L115.05 222.65L117.35 222.18L124.26 222.17L126.59 222.16L127.17 239.63L128.88 252.57L130.78 252.66L132.47 252.71L135.07 252.79L137.10 252.53L138.69 252.63L139.65 254.27L140.97 255.16L143.97 255.03L145.75 255.43L147.51 255.22L149.09 254.89L152.05 254.52L155.76 254.39L160.46 254.28L163.30 254.50L167.38 254.67L167.19 253.27L166.44 250.33L165.66 247.27L165.60 245.60L165.32 243.75L165.00 242.20L163.38 238.02L162.04 236.33L160.87 234.86L158.00 231.16L155.86 228.44L154.66 226.78L151.99 222.96L147.74 216.55L145.53 213.49L140.04 205.88L134.31 196.79L127.63 184.53L126.91 183.10L125.29 179.87L124.31 177.92L121.53 179.77L119.67 181.69L118.72 183.22L118.00 184.73L117.12 187.33Z" data-ward="14" /><path id="ward-1" class="ward" d="M110.65 72.70L109.21 71.12L108.16 64.32L106.38 52.82L105.16 44.93L104.24 41.64L104.66 40.07L104.86 39.31L105.21 30.58L109.23 23.69L107.06 20.95L101.40 12.31L100.23 10.53L96.81 5.31L94.59 0.00L92.42 0.55L73.85 4.19L60.01 6.90L53.10 8.26L51.33 8.71L48.90 23.71L47.47 32.54L41.67 43.79L38.18 50.56L36.58 53.76L60.00 69.18L60.92 70.99L59.42 73.74L58.74 75.49L57.74 77.92L57.18 81.25L56.60 85.40L56.39 86.89L55.67 91.60L54.85 97.11L55.14 101.00L55.70 102.96L56.60 106.43L56.59 110.18L55.51 111.98L54.94 114.17L55.59 117.31L54.85 120.68L54.63 125.64L57.24 130.42L57.90 132.05L58.79 134.34L60.28 139.05L60.17 141.24L60.10 142.96L60.01 144.72L59.74 146.80L59.33 149.93L60.50 155.66L61.30 158.47L62.54 162.67L64.33 168.26L65.49 171.10L67.51 174.91L74.42 175.92L78.84 176.06L81.14 176.13L84.49 176.04L89.21 175.91L92.00 175.83L95.91 175.40L98.09 176.60L99.29 177.38L101.04 178.34L102.07 180.01L103.47 181.04L106.25 182.81L108.44 184.55L110.24 185.43L112.75 186.12L117.12 187.33L118.00 184.73L118.72 183.22L119.67 181.69L121.53 179.77L124.31 177.92L123.14 176.57L122.06 175.31L119.86 172.76L116.60 164.44L114.63 159.09L113.49 155.99L112.43 150.07L111.88 143.99L111.87 141.56L111.67 138.49L112.50 130.62L113.65 124.24L114.00 120.45L114.22 117.48L114.36 115.59L114.37 111.07L114.32 108.90L113.50 101.43L112.07 88.63L111.39 82.64L110.75 79.26L110.65 72.70Z" data-ward="1" /><path id="ward-3" class="ward" d="M637.25 1103.68L635.01 1101.22L618.68 1083.38L615.37 1086.05L613.45 1087.04L611.65 1087.95L607.54 1089.89L604.38 1091.23L601.72 1091.08L600.14 1088.34L599.15 1086.21L598.06 1085.26L596.03 1085.34L593.50 1085.89L590.20 1087.03L587.66 1087.50L585.97 1086.31L582.75 1086.95L578.82 1088.81L576.97 1090.00L575.22 1090.76L573.86 1091.19L570.45 1092.00L568.15 1092.57L564.40 1093.29L562.50 1093.62L559.14 1094.15L557.09 1094.39L554.26 1094.73L549.00 1095.10L548.25 1098.32L548.69 1100.75L549.49 1102.57L550.14 1103.97L550.86 1105.56L552.35 1108.96L552.52 1111.20L552.83 1113.73L553.52 1117.56L554.44 1121.83L554.12 1125.22L555.04 1127.03L555.94 1129.18L556.73 1131.09L557.41 1132.40L558.35 1134.94L559.26 1137.38L559.82 1138.72L560.57 1141.42L561.15 1142.99L561.85 1144.93L553.49 1150.08L550.98 1150.56L547.32 1151.11L545.80 1151.60L542.37 1152.87L543.06 1154.33L543.54 1155.80L544.43 1157.91L545.03 1159.29L544.19 1161.30L541.06 1162.60L540.80 1164.23L541.67 1167.24L542.13 1168.81L542.98 1171.45L543.58 1174.59L544.05 1178.15L545.00 1180.18L545.97 1181.81L544.32 1182.82L539.51 1183.99L537.16 1184.47L535.16 1184.88L533.67 1185.19L533.94 1190.19L532.85 1192.58L533.08 1194.40L533.27 1195.90L533.12 1198.17L534.56 1201.24L537.88 1202.90L541.46 1204.93L542.66 1207.99L543.23 1212.81L543.28 1218.46L544.73 1223.34L546.60 1227.85L548.88 1233.35L552.25 1235.53L554.12 1238.75L553.55 1241.86L553.55 1243.42L555.37 1243.11L557.80 1246.43L560.29 1246.17L562.94 1248.92L564.86 1251.41L565.43 1253.95L564.86 1257.94L564.55 1260.54L564.55 1262.77L564.86 1264.84L565.48 1266.87L565.95 1269.56L566.52 1271.22L568.80 1271.17L570.51 1271.53L572.02 1272.47L572.59 1275.84L572.95 1281.55L572.85 1285.28L573.78 1287.56L575.03 1289.90L575.49 1292.28L576.32 1293.79L577.21 1294.98L579.75 1296.28L580.68 1297.89L580.21 1300.95L579.59 1303.85L579.07 1305.93L578.55 1307.59L578.24 1309.20L578.50 1311.27L579.75 1312.46L579.96 1314.59L579.80 1316.67L580.58 1317.96L581.10 1319.52L582.36 1321.55L583.42 1325.24L584.07 1327.50L580.16 1334.71L577.89 1337.52L577.97 1339.92L581.90 1337.53L582.62 1336.13L583.34 1334.73L584.27 1332.74L585.56 1330.67L586.60 1329.01L587.00 1327.25L587.43 1325.38L589.16 1324.07L590.18 1323.28L594.75 1319.76L597.02 1317.99L596.14 1315.99L595.01 1313.39L594.91 1313.17L594.38 1311.95L596.31 1308.25L596.99 1304.42L597.44 1301.88L597.01 1300.13L596.88 1298.63L596.62 1295.54L596.49 1294.00L597.24 1290.20L597.30 1289.85L597.63 1288.19L598.47 1283.93L604.96 1275.21L603.91 1273.76L603.72 1273.50L601.33 1270.19L600.47 1266.46L600.31 1264.41L600.80 1259.66L600.76 1256.69L601.35 1254.56L602.07 1251.98L602.47 1250.58L602.94 1248.89L603.44 1247.09L603.96 1245.24L605.62 1239.31L606.29 1236.92L604.96 1234.70L604.63 1232.80L604.55 1231.26L604.57 1229.26L604.78 1227.56L605.11 1224.90L604.91 1222.44L604.61 1217.40L604.49 1215.30L605.19 1213.30L605.97 1211.08L606.26 1209.60L606.92 1206.18L605.44 1204.08L604.43 1202.66L603.34 1201.10L603.03 1198.13L604.21 1196.12L603.90 1193.72L603.58 1191.32L602.79 1187.93L602.06 1184.87L602.67 1182.25L602.96 1180.45L603.22 1178.81L602.91 1176.20L602.46 1172.31L604.89 1169.33L606.08 1167.49L607.30 1165.60L609.05 1165.16L611.77 1164.44L614.44 1167.45L616.55 1167.29L622.81 1166.79L626.23 1164.02L628.13 1161.66L630.78 1158.40L633.71 1155.99L636.71 1153.09L638.00 1151.84L639.81 1148.25L646.77 1134.49L648.04 1130.02L648.71 1127.66L649.20 1125.24L647.78 1124.17L646.37 1123.10L644.33 1121.16L644.24 1119.39L644.15 1117.52L646.04 1115.23L645.96 1113.78L645.87 1112.32L644.82 1110.61L643.66 1109.60L641.04 1109.55L640.64 1109.21L639.89 1108.45L639.82 1108.38L637.71 1107.41L639.09 1105.69L637.25 1103.68Z" data-ward="3" /><path id="ward-12" class="ward" d="M211.45 366.76L188.13 351.40L186.86 350.25L185.38 347.20L181.81 339.59L176.79 329.71L175.48 326.39L171.48 316.27L170.92 314.85L169.52 308.93L169.19 307.53L168.59 301.43L168.25 297.97L168.07 296.17L167.86 294.03L167.95 291.64L168.24 290.08L168.56 288.37L166.96 288.21L163.52 288.92L161.79 289.17L158.50 289.89L156.96 290.12L155.54 290.47L153.82 290.81L151.71 291.22L149.11 291.73L149.87 294.91L150.27 296.60L151.56 302.06L151.96 303.76L152.86 307.57L153.07 310.27L148.78 313.13L142.54 313.27L139.73 317.04L138.83 318.26L137.87 319.56L136.95 320.80L136.10 321.96L134.68 323.80L133.22 324.83L130.70 325.44L127.29 326.20L124.44 326.78L121.85 327.54L120.01 327.54L117.07 328.02L113.75 328.77L111.87 329.20L114.24 334.31L115.77 340.22L118.38 347.53L120.85 354.59L124.51 362.52L124.64 362.85L127.90 372.91L132.85 385.96L136.31 384.63L138.04 384.24L151.84 383.57L155.18 383.93L158.77 384.33L161.90 384.67L164.07 387.01L168.09 391.47L169.19 392.54L180.36 384.95L182.31 383.61L182.68 376.63L182.66 373.21L193.55 369.79L195.59 373.18L196.31 374.60L209.31 398.48L212.95 405.18L216.59 410.79L227.59 428.59L235.28 445.90L239.50 455.38L240.31 460.70L243.98 465.27L250.48 473.36L251.67 477.89L252.52 486.97L303.94 482.15L309.24 476.24L311.13 474.23L312.81 474.88L314.41 474.11L317.48 470.93L316.98 469.34L317.69 466.94L319.72 460.37L317.67 455.94L317.00 454.47L317.42 451.85L315.42 444.86L313.86 443.79L311.78 439.26L317.52 435.55L319.52 435.21L322.24 430.68L324.32 420.68L325.37 415.59L325.23 412.53L325.12 410.25L325.03 408.32L324.01 404.43L323.20 401.28L320.26 397.00L315.78 394.54L314.40 393.83L311.63 392.34L306.41 389.55L304.51 388.53L299.61 386.51L297.46 385.60L295.92 384.96L291.01 379.51L288.15 379.91L284.98 380.36L282.44 380.72L280.33 381.56L280.73 383.63L281.43 385.25L279.00 384.71L277.74 385.50L272.00 384.77L268.94 384.69L267.72 380.56L265.81 373.55L267.40 372.62L267.44 369.69L265.74 367.15L264.38 365.16L257.95 367.59L254.44 368.92L251.12 372.05L248.86 374.17L244.59 378.19L243.22 380.34L241.85 382.49L234.94 383.22L225.17 383.02L219.00 379.00L211.45 366.76Z" data-ward="12" /><path id="ward-6" class="ward" d="M554.30 1377.15L552.81 1377.15L550.82 1377.48L549.05 1377.77L546.99 1378.01L543.67 1378.39L540.94 1378.70L537.80 1378.55L535.20 1378.44L529.61 1378.18L524.47 1377.83L520.58 1378.69L516.59 1379.63L526.41 1406.96L531.01 1419.54L538.76 1437.44L548.99 1464.22L560.52 1492.47L583.04 1553.75L596.50 1592.30L599.11 1591.56L601.29 1590.96L602.79 1590.54L604.81 1590.54L608.21 1589.72L610.45 1589.76L611.90 1589.61L618.76 1589.24L627.68 1582.17L629.08 1580.50L680.82 1566.70L683.79 1573.91L685.37 1579.04L689.91 1579.83L694.45 1581.51L705.28 1596.22L708.83 1610.72L713.61 1622.29L721.02 1632.31L725.03 1637.56L724.56 1650.05L725.03 1658.69L726.72 1664.86L732.37 1667.76L736.02 1666.57L742.81 1664.35L740.79 1660.86L739.50 1657.32L738.85 1655.14L737.81 1651.46L737.11 1648.52L736.57 1646.38L735.53 1642.25L734.31 1636.80L733.74 1634.56L732.57 1629.93L730.81 1624.55L729.74 1620.07L729.13 1616.11L727.87 1612.95L727.22 1611.44L726.17 1609.36L724.76 1606.55L722.94 1602.25L722.20 1600.21L721.57 1598.19L720.71 1595.57L720.02 1593.53L719.41 1591.98L718.76 1589.63L717.46 1586.34L716.19 1583.86L715.30 1582.40L714.28 1580.49L712.19 1577.50L711.03 1575.14L709.82 1572.81L708.12 1568.93L706.73 1564.99L705.58 1561.61L705.05 1559.26L704.15 1555.64L702.78 1552.12L701.59 1549.41L700.79 1547.95L699.91 1546.48L698.94 1544.74L697.98 1542.63L696.52 1539.41L695.88 1537.48L694.67 1535.03L692.98 1531.51L692.02 1529.25L690.65 1525.96L688.93 1520.48L688.11 1517.67L687.67 1516.27L686.54 1513.66L685.04 1511.09L682.33 1506.87L681.50 1505.46L680.67 1504.05L679.70 1502.46L678.61 1500.19L677.20 1497.39L675.59 1494.46L674.23 1492.17L672.97 1489.28L671.17 1484.87L670.59 1482.87L669.77 1479.64L670.07 1477.17L669.75 1474.75L669.08 1471.15L668.46 1468.25L667.70 1465.86L667.76 1463.95L669.64 1463.35L671.87 1462.64L673.35 1462.18L675.88 1461.52L677.40 1460.79L679.83 1459.64L683.06 1459.10L683.61 1461.84L685.68 1463.17L688.56 1463.21L691.64 1461.39L694.23 1459.04L698.20 1459.91L699.99 1460.36L702.43 1458.44L706.37 1455.35L707.20 1453.17L709.51 1452.83L713.87 1452.28L714.12 1449.82L712.36 1447.83L711.09 1445.57L709.11 1442.04L710.23 1439.27L708.17 1435.33L707.30 1433.71L705.49 1432.89L703.42 1433.81L701.55 1432.99L699.96 1432.93L696.97 1432.83L691.72 1431.60L690.21 1431.89L687.86 1432.35L684.93 1430.46L681.27 1427.37L677.11 1425.69L675.81 1425.16L672.36 1423.74L670.67 1423.04L667.43 1421.70L665.15 1420.75L661.81 1418.77L657.70 1416.32L656.61 1413.76L665.15 1412.69L670.11 1409.61L668.78 1407.21L665.33 1406.42L662.36 1405.74L657.68 1408.06L655.57 1409.25L654.20 1410.02L652.49 1410.99L651.58 1411.51L643.39 1416.13L638.47 1420.63L632.49 1427.81L629.00 1430.92L628.00 1431.81L625.41 1434.13L622.53 1436.70L621.39 1439.91L619.63 1444.82L619.40 1446.96L619.13 1449.41L587.99 1413.82L563.01 1384.28L559.81 1380.50L559.09 1379.64L554.30 1377.15Z" data-ward="6" /><path id="ward-4" class="ward" d="M713.87 1452.28L709.51 1452.83L707.20 1453.17L706.37 1455.35L702.43 1458.44L699.99 1460.36L698.20 1459.91L694.23 1459.04L691.64 1461.39L688.56 1463.21L685.68 1463.17L683.61 1461.84L683.06 1459.10L679.83 1459.64L677.40 1460.79L675.88 1461.52L673.35 1462.18L671.87 1462.64L669.64 1463.35L667.76 1463.95L667.70 1465.86L668.46 1468.25L669.08 1471.15L669.75 1474.75L670.07 1477.17L669.77 1479.64L670.59 1482.87L671.17 1484.87L672.97 1489.28L674.23 1492.17L675.59 1494.46L677.20 1497.39L678.61 1500.19L679.70 1502.46L680.67 1504.05L681.50 1505.46L682.33 1506.87L685.04 1511.09L686.54 1513.66L687.67 1516.27L688.11 1517.67L688.93 1520.48L690.65 1525.96L692.02 1529.25L692.98 1531.51L694.67 1535.03L695.88 1537.48L696.52 1539.41L697.98 1542.63L698.94 1544.74L699.91 1546.48L700.79 1547.95L701.59 1549.41L702.78 1552.12L704.15 1555.64L705.05 1559.26L705.58 1561.61L706.73 1564.99L708.12 1568.93L709.82 1572.81L711.03 1575.14L712.19 1577.50L714.28 1580.49L715.30 1582.40L716.19 1583.86L717.46 1586.34L718.76 1589.63L719.41 1591.98L720.02 1593.53L720.71 1595.57L721.57 1598.19L722.20 1600.21L722.94 1602.25L724.76 1606.55L726.17 1609.36L727.22 1611.44L727.87 1612.95L729.13 1616.11L729.74 1620.07L730.81 1624.55L732.57 1629.93L733.74 1634.56L734.31 1636.80L735.53 1642.25L736.57 1646.38L737.11 1648.52L737.81 1651.46L738.85 1655.14L739.50 1657.32L740.79 1660.86L742.81 1664.35L736.02 1666.57L732.37 1667.76L732.99 1670.65L732.66 1674.21L732.32 1677.80L731.68 1682.57L732.04 1685.81L733.72 1689.23L738.15 1688.92L739.56 1696.89L742.14 1706.51L741.79 1710.27L744.02 1712.49L746.72 1714.25L749.49 1711.49L753.44 1752.03L755.21 1750.15L756.45 1748.79L757.73 1747.27L759.14 1745.77L760.69 1743.97L762.29 1742.23L780.27 1722.31L783.60 1724.82L788.91 1727.42L793.66 1726.44L798.73 1723.97L801.81 1719.87L805.67 1716.67L809.64 1710.58L811.63 1703.20L811.51 1696.71L810.45 1690.83L810.06 1686.34L810.57 1680.78L801.39 1670.83L791.36 1657.80L791.14 1655.95L790.75 1652.61L787.39 1645.74L785.67 1642.21L783.37 1638.39L781.07 1634.56L778.52 1632.45L776.55 1630.82L776.06 1628.35L775.42 1625.64L774.35 1621.08L771.85 1617.34L767.59 1614.79L764.87 1610.96L764.50 1608.59L760.26 1600.84L756.73 1600.59L756.19 1598.86L754.65 1593.85L753.96 1591.63L752.55 1587.04L752.60 1585.35L750.64 1580.79L749.67 1578.53L750.14 1575.59L749.67 1571.45L751.38 1569.67L753.11 1567.87L753.88 1565.28L754.42 1563.45L755.20 1560.80L757.37 1558.53L758.96 1556.86L760.28 1555.47L761.56 1553.66L762.50 1550.47L763.20 1548.08L764.64 1545.65L766.42 1542.65L768.24 1539.59L769.69 1536.42L770.92 1531.88L772.45 1527.74L774.99 1520.88L776.26 1519.99L779.39 1515.61L782.47 1509.78L781.64 1508.17L780.65 1505.83L778.94 1502.60L777.22 1499.36L775.96 1496.98L775.82 1494.67L774.23 1491.53L771.63 1486.96L768.51 1481.31L765.50 1475.87L763.64 1472.83L761.61 1469.52L760.69 1468.01L759.12 1465.44L758.02 1464.47L755.60 1462.33L751.20 1459.33L749.78 1459.10L748.04 1458.09L746.18 1457.51L744.32 1456.56L741.83 1454.93L737.12 1454.50L735.22 1454.32L731.19 1453.95L729.30 1453.99L726.59 1454.04L723.19 1454.10L713.87 1452.28Z" data-ward="4" /><path id="ward-2" class="ward" d="M514.33 983.32L507.11 983.47L504.29 984.47L502.58 984.27L497.90 986.29L493.81 988.98L491.85 991.52L490.11 992.77L486.20 992.68L484.24 993.94L484.38 996.81L481.27 998.27L478.38 1000.05L475.19 1001.51L472.32 1003.60L469.54 1005.36L467.14 1005.87L465.56 1008.64L463.20 1009.62L460.98 1011.37L459.68 1013.83L458.20 1013.41L456.90 1014.06L456.26 1016.05L454.82 1016.38L453.25 1019.66L453.76 1022.72L454.22 1026.33L455.61 1027.49L457.51 1027.63L459.96 1028.78L463.11 1029.85L466.26 1031.52L466.30 1035.36L461.16 1038.60L463.94 1046.52L471.03 1043.79L470.61 1045.64L471.63 1047.30L474.82 1049.99L478.11 1055.45L481.26 1056.47L484.55 1057.91L486.91 1059.44L487.00 1061.94L486.81 1064.76L487.46 1066.47L486.26 1070.69L485.73 1072.46L483.99 1074.07L482.97 1075.64L481.81 1079.75L481.34 1084.89L481.24 1092.04L479.43 1094.61L479.43 1097.95L481.62 1099.76L487.72 1102.80L491.25 1102.90L492.30 1104.23L495.92 1106.90L500.30 1114.91L502.97 1115.48L502.11 1122.62L504.94 1125.22L511.15 1135.10L515.95 1145.12L518.11 1157.69L520.02 1162.42L521.25 1164.41L523.35 1168.67L526.33 1174.31L527.97 1177.86L530.23 1179.75L533.67 1185.19L535.16 1184.88L537.16 1184.47L539.51 1183.99L544.32 1182.82L545.97 1181.81L545.00 1180.18L544.05 1178.15L543.58 1174.59L542.98 1171.45L542.13 1168.81L541.67 1167.24L540.80 1164.23L541.06 1162.60L544.19 1161.30L545.03 1159.29L544.43 1157.91L543.54 1155.80L543.06 1154.33L542.37 1152.87L545.80 1151.60L547.32 1151.11L550.98 1150.56L553.49 1150.08L561.85 1144.93L561.15 1142.99L560.57 1141.42L559.82 1138.72L559.26 1137.38L558.35 1134.94L557.41 1132.40L556.73 1131.09L555.94 1129.18L555.04 1127.03L554.12 1125.22L554.44 1121.83L553.52 1117.56L552.83 1113.73L552.52 1111.20L552.35 1108.96L550.86 1105.56L550.14 1103.97L549.49 1102.57L548.69 1100.75L548.25 1098.32L549.00 1095.10L554.26 1094.73L557.09 1094.39L559.14 1094.15L562.50 1093.62L564.40 1093.29L568.15 1092.57L570.45 1092.00L573.86 1091.19L575.22 1090.76L576.97 1090.00L578.82 1088.81L582.75 1086.95L585.97 1086.31L587.66 1087.50L590.20 1087.03L593.50 1085.89L596.03 1085.34L598.06 1085.26L599.15 1086.21L600.14 1088.34L601.72 1091.08L604.38 1091.23L607.54 1089.89L611.65 1087.95L613.45 1087.04L615.37 1086.05L618.68 1083.38L615.61 1079.34L613.34 1080.56L611.52 1078.75L607.45 1074.46L606.37 1072.81L605.20 1070.14L604.14 1068.50L602.05 1062.40L601.39 1060.48L598.02 1057.00L594.35 1051.63L589.34 1046.83L584.89 1043.08L579.16 1041.70L576.32 1041.32L574.47 1041.53L570.87 1041.62L569.89 1040.22L567.58 1038.78L563.33 1033.72L557.01 1027.68L549.49 1021.51L545.06 1016.46L538.99 1015.98L530.08 1014.43L521.96 1010.49L516.70 1005.24L514.24 999.06L514.44 997.04L513.41 995.20L514.48 994.23L515.58 991.71L518.21 990.42L520.37 991.17L521.04 986.72L516.85 984.60L514.33 983.32Z" data-ward="2" /><path id="ward-13" class="ward" d="M126.59 222.16L124.26 222.17L117.35 222.18L115.05 222.65L112.04 223.77L111.48 226.55L111.02 228.39L111.05 230.64L112.38 233.23L112.18 234.69L110.95 236.61L107.30 238.31L103.47 238.16L100.70 240.31L97.91 242.30L94.27 243.91L90.41 244.97L86.30 246.21L84.55 246.96L82.48 247.59L81.09 247.95L79.64 248.34L83.40 259.72L86.19 269.31L94.14 287.92L102.19 306.96L110.82 327.94L111.87 329.20L113.75 328.77L117.07 328.02L120.01 327.54L121.85 327.54L124.44 326.78L127.29 326.20L130.70 325.44L133.22 324.83L134.68 323.80L136.10 321.96L136.95 320.80L137.87 319.56L138.83 318.26L139.73 317.04L142.54 313.27L148.78 313.13L153.07 310.27L152.86 307.57L151.96 303.76L151.56 302.06L150.27 296.60L149.87 294.91L149.11 291.73L151.71 291.22L153.82 290.81L155.54 290.47L156.96 290.12L158.50 289.89L161.79 289.17L163.52 288.92L166.96 288.21L168.56 288.37L170.23 287.21L170.25 287.21L169.93 279.84L169.63 272.70L169.01 264.65L169.51 262.35L168.84 260.31L167.67 256.71L167.38 254.67L163.30 254.50L160.46 254.28L155.76 254.39L152.05 254.52L149.09 254.89L147.51 255.22L145.75 255.43L143.97 255.03L140.97 255.16L139.65 254.27L138.69 252.63L137.10 252.53L135.07 252.79L132.47 252.71L130.78 252.66L128.88 252.57L127.17 239.63L126.59 222.16Z" data-ward="13" /><path id="ward-5" class="ward" d="M629.08 1580.50L627.68 1582.17L618.76 1589.24L611.90 1589.61L610.45 1589.76L608.21 1589.72L604.81 1590.54L602.79 1590.54L601.29 1590.96L599.11 1591.56L596.50 1592.30L616.57 1640.96L630.90 1677.69L647.93 1726.06L667.04 1772.05L682.56 1812.06L699.39 1855.92L703.18 1862.04L706.24 1871.58L713.46 1886.62L716.51 1893.11L717.86 1904.24L723.73 1917.33L728.50 1928.33L733.03 1942.40L741.10 1961.60L748.68 1979.46L752.47 1990.10L756.76 1997.07L757.37 2005.15L761.28 2010.41L768.13 2021.17L770.91 2029.56L772.46 2035.07L774.86 2040.07L777.85 2047.53L781.74 2055.96L784.40 2062.05L785.27 2064.26L786.02 2067.66L787.13 2070.15L789.06 2075.15L790.72 2080.01L793.06 2085.75L795.55 2091.91L799.15 2100.22L802.72 2108.56L807.91 2120.55L813.17 2134.37L818.71 2149.45L824.18 2161.72L828.88 2171.75L833.37 2180.52L838.56 2193.28L843.05 2205.13L848.24 2216.14L854.55 2231.43L860.37 2247.49L866.26 2261.87L872.08 2274.84L877.34 2286.69L883.87 2302.26L889.76 2317.90L895.65 2332.77L901.05 2347.15L906.17 2359.35L911.85 2372.74L919.66 2392.43L919.62 2392.04L943.75 2445.39L961.14 2483.14L972.36 2509.35L984.89 2507.34L987.28 2506.19L989.11 2505.54L990.27 2505.07L991.59 2504.54L992.27 2504.30L993.55 2502.92L994.97 2501.48L996.20 2500.25L997.38 2499.06L997.67 2497.40L998.00 2495.33L998.29 2493.62L998.60 2491.63L998.91 2489.74L999.32 2487.19L999.76 2484.49L1000.00 2483.07L999.50 2481.87L998.60 2479.79L997.38 2477.02L995.95 2473.72L994.89 2471.30L993.57 2468.24L992.39 2465.54L990.99 2462.29L989.57 2459.06L987.95 2455.22L986.73 2452.45L985.47 2449.47L984.24 2446.61L983.07 2443.98L982.18 2441.93L980.95 2438.97L979.86 2436.44L978.83 2434.10L977.96 2432.05L976.99 2429.88L975.81 2427.05L974.76 2424.57L973.48 2421.72L972.56 2419.50L971.63 2417.29L970.52 2414.78L970.25 2412.86L969.80 2410.23L969.46 2408.07L969.05 2405.39L968.59 2402.35L967.89 2398.11L967.34 2394.29L966.78 2390.87L966.25 2387.20L965.56 2382.79L964.98 2379.13L964.35 2375.18L963.77 2371.30L963.17 2367.69L962.40 2362.69L961.55 2357.10L960.60 2351.27L959.68 2345.19L958.81 2339.81L958.30 2336.35L957.04 2332.86L955.53 2328.42L954.27 2324.86L952.76 2320.29L951.14 2315.78L949.29 2310.26L947.70 2305.67L946.11 2301.05L944.45 2296.28L942.96 2291.95L937.83 2277.04L934.63 2267.71L930.84 2256.62L926.70 2244.32L921.97 2230.44L916.60 2214.93L911.33 2203.80L903.76 2187.98L894.65 2169.42L886.99 2151.66L880.32 2135.75L876.13 2126.02L869.37 2110.33L864.37 2098.25L858.36 2084.33L857.55 2081.96L856.84 2079.82L856.06 2077.69L855.11 2075.01L854.46 2073.35L853.85 2071.65L852.43 2067.59L852.43 2065.21L852.33 2063.48L852.26 2061.48L852.19 2058.64L852.09 2055.99L851.99 2053.35L851.89 2049.86L851.79 2045.86L851.65 2042.17L851.48 2038.03L851.31 2033.76L851.14 2029.12L851.11 2026.27L850.97 2022.41L850.80 2018.68L850.70 2014.58L850.50 2010.00L850.30 2004.72L850.16 2000.95L850.06 1997.53L849.99 1994.75L849.89 1993.12L848.97 1989.16L848.60 1987.19L847.89 1984.18L847.08 1980.48L846.53 1977.91L845.82 1974.76L845.25 1971.98L844.43 1968.52L843.48 1964.08L842.84 1961.13L842.09 1957.74L841.38 1954.69L840.87 1952.22L840.33 1949.74L839.04 1947.71L837.69 1945.47L836.43 1943.41L835.32 1941.61L837.05 1940.44L825.75 1918.73L812.02 1895.92L809.58 1893.05L805.84 1888.48L799.93 1881.53L794.33 1874.82L789.92 1868.98L785.39 1863.26L783.09 1860.20L780.30 1856.63L777.80 1853.21L774.78 1849.16L771.88 1845.34L769.58 1842.13L766.68 1838.59L763.58 1834.93L761.51 1832.35L759.64 1830.09L757.54 1827.58L756.27 1825.20L754.72 1822.54L752.93 1819.48L751.10 1816.18L749.11 1812.60L746.49 1807.76L743.23 1801.56L740.21 1795.64L738.71 1792.78L737.47 1788.65L736.84 1786.82L736.60 1783.04L736.36 1781.93L736.52 1779.43L736.68 1777.32L737.35 1774.90L737.95 1772.32L739.82 1769.34L741.49 1766.32L743.27 1763.30L745.82 1760.52L749.79 1756.11L753.44 1752.03L749.49 1711.49L746.72 1714.25L744.02 1712.49L741.79 1710.27L742.14 1706.51L739.56 1696.89L738.15 1688.92L733.72 1689.23L732.04 1685.81L731.68 1682.57L732.32 1677.80L732.66 1674.21L732.99 1670.65L732.37 1667.76L726.72 1664.86L725.03 1658.69L724.56 1650.05L725.03 1637.56L721.02 1632.31L713.61 1622.29L708.83 1610.72L705.28 1596.22L694.45 1581.51L689.91 1579.83L685.37 1579.04L683.79 1573.91L680.82 1566.70L629.08 1580.50Z" data-ward="5" /><path id="ward-11" class="ward" d="M138.04 384.24L136.31 384.63L132.85 385.96L130.04 387.87L138.90 411.40L150.68 441.48L177.30 515.02L180.92 513.94L183.81 513.34L186.84 512.71L188.44 512.38L190.05 512.05L192.87 511.47L199.54 509.40L201.82 508.21L204.29 506.92L206.85 505.60L208.95 504.47L214.01 501.74L215.69 501.91L218.81 502.20L220.82 502.39L227.51 503.03L228.89 502.61L230.93 501.99L236.01 500.44L240.50 499.64L242.96 497.05L245.85 493.99L248.16 491.56L250.93 488.65L252.52 486.97L251.67 477.89L250.48 473.36L243.98 465.27L240.31 460.70L239.50 455.38L235.28 445.90L227.59 428.59L216.59 410.79L212.95 405.18L209.31 398.48L196.31 374.60L195.59 373.18L193.55 369.79L182.66 373.21L182.68 376.63L182.31 383.61L180.36 384.95L169.19 392.54L168.09 391.47L164.07 387.01L161.90 384.67L158.77 384.33L155.18 383.93L151.84 383.57L138.04 384.24Z" data-ward="11" /><path id="ward-7" class="ward" d="M554.30 1377.15L559.72 1368.38L567.01 1356.61L574.17 1345.04L575.46 1343.30L577.97 1339.92L577.89 1337.52L580.16 1334.71L584.07 1327.50L583.42 1325.24L582.36 1321.55L581.10 1319.52L580.58 1317.96L579.80 1316.67L579.96 1314.59L579.75 1312.46L578.50 1311.27L578.24 1309.20L578.55 1307.59L579.07 1305.93L579.59 1303.85L580.21 1300.95L580.68 1297.89L579.75 1296.28L577.21 1294.98L576.32 1293.79L575.49 1292.28L575.03 1289.90L573.78 1287.56L572.85 1285.28L572.95 1281.55L572.59 1275.84L572.02 1272.47L570.51 1271.53L568.80 1271.17L566.52 1271.22L565.95 1269.56L565.48 1266.87L564.86 1264.84L564.55 1262.77L564.55 1260.54L564.86 1257.94L565.43 1253.95L564.86 1251.41L562.94 1248.92L560.29 1246.17L557.80 1246.43L555.37 1243.11L553.55 1243.42L553.55 1241.86L554.12 1238.75L552.25 1235.53L548.88 1233.35L546.60 1227.85L544.73 1223.34L543.28 1218.46L543.23 1212.81L542.66 1207.99L541.46 1204.93L537.88 1202.90L534.56 1201.24L533.12 1198.17L533.27 1195.90L533.08 1194.40L532.85 1192.58L533.94 1190.19L533.67 1185.19L530.23 1179.75L527.97 1177.86L526.33 1174.31L523.35 1168.67L521.25 1164.41L520.02 1162.42L518.11 1157.69L515.95 1145.12L511.15 1135.10L504.94 1125.22L502.11 1122.62L502.97 1115.48L500.30 1114.91L495.92 1106.90L492.30 1104.23L491.25 1102.90L487.72 1102.80L481.62 1099.76L479.43 1097.95L479.43 1094.61L481.24 1092.04L481.34 1084.89L481.81 1079.75L482.97 1075.64L483.99 1074.07L485.73 1072.46L486.26 1070.69L487.46 1066.47L486.81 1064.76L487.00 1061.94L486.91 1059.44L484.55 1057.91L481.26 1056.47L478.11 1055.45L474.82 1049.99L471.63 1047.30L470.61 1045.64L471.03 1043.79L463.94 1046.52L461.16 1038.60L466.30 1035.36L466.26 1031.52L463.11 1029.85L459.96 1028.78L457.51 1027.63L455.61 1027.49L454.22 1026.33L453.76 1022.72L453.25 1019.66L454.82 1016.38L456.26 1016.05L456.90 1014.06L458.20 1013.41L459.68 1013.83L460.98 1011.37L463.20 1009.62L465.56 1008.64L467.14 1005.87L469.54 1005.36L472.32 1003.60L475.19 1001.51L478.38 1000.05L481.27 998.27L484.38 996.81L484.24 993.94L486.20 992.68L490.11 992.77L491.85 991.52L493.81 988.98L497.90 986.29L485.35 980.57L471.84 974.41L468.09 972.70L463.30 970.52L440.59 960.18L435.25 956.53L433.62 955.44L431.15 950.49L426.12 951.60L421.45 952.60L418.82 953.24L417.08 953.66L413.38 954.60L411.13 955.18L408.86 955.76L405.89 955.70L403.32 956.37L401.44 956.43L398.88 956.62L394.01 956.78L390.14 957.04L388.80 958.65L385.84 959.08L383.81 959.11L381.98 958.83L380.35 958.67L377.98 959.74L375.24 959.89L372.34 960.58L368.79 961.41L365.46 962.20L362.36 962.93L356.08 964.46L350.60 965.80L378.87 1032.75L432.27 1170.59L516.59 1379.63L520.58 1378.69L524.47 1377.83L529.61 1378.18L535.20 1378.44L537.80 1378.55L540.94 1378.70L543.67 1378.39L546.99 1378.01L549.05 1377.77L550.82 1377.48L552.81 1377.15L554.30 1377.15Z" data-ward="7" /><path id="ward-8" class="ward" d="M293.97 735.21L287.18 735.45L282.00 735.44L276.62 736.03L273.94 736.43L270.06 737.07L267.57 737.58L263.53 738.65L267.88 752.88L272.37 764.35L276.59 776.08L280.55 786.87L285.44 798.87L290.00 809.80L301.83 839.27L317.18 876.37L332.28 916.80L342.51 947.77L350.60 965.80L356.08 964.46L362.36 962.93L365.46 962.20L368.79 961.41L372.34 960.58L375.24 959.89L377.98 959.74L380.35 958.67L381.98 958.83L383.81 959.11L385.84 959.08L388.80 958.65L390.14 957.04L394.01 956.78L398.88 956.62L401.44 956.43L403.32 956.37L405.89 955.70L408.86 955.76L411.13 955.18L413.38 954.60L417.08 953.66L418.82 953.24L421.45 952.60L426.12 951.60L431.15 950.49L428.95 946.00L427.33 942.69L425.66 939.29L424.19 936.27L423.08 934.00L421.73 931.24L420.67 927.96L419.72 925.00L418.93 922.55L417.55 919.95L415.26 915.64L414.09 912.21L406.35 902.25L401.95 898.49L396.46 893.51L390.91 889.51L382.41 882.72L377.75 874.29L372.47 861.95L368.17 852.62L365.58 844.05L364.50 841.81L355.09 822.35L351.84 813.96L348.84 806.20L346.84 801.02L343.92 793.47L340.54 781.06L340.91 779.32L339.97 773.10L339.19 767.95L337.59 748.17L337.13 742.45L335.50 742.44L334.10 742.18L331.04 742.63L328.78 742.14L327.17 742.27L325.59 742.25L322.18 742.55L321.30 740.45L320.34 738.94L318.75 737.52L317.17 737.37L314.60 737.03L311.54 736.61L309.36 736.27L306.93 736.56L305.49 736.30L302.77 735.92L297.80 735.75L293.97 735.21Z" data-ward="8" /><path id="ward-9" class="ward" d="M314.20 614.85L312.49 612.73L311.50 611.52L310.15 609.84L309.02 610.68L306.53 611.75L302.79 613.94L299.09 615.54L297.30 615.98L295.03 616.25L292.65 616.14L290.87 616.77L288.54 617.42L287.21 617.87L284.63 618.77L282.39 619.59L280.40 621.39L277.82 621.33L273.64 621.94L270.30 622.28L268.48 622.50L265.18 623.03L262.64 623.82L258.60 624.59L255.69 624.81L253.72 625.10L252.29 625.42L250.27 626.43L250.97 629.18L241.22 631.98L238.24 632.70L235.27 633.42L232.34 634.13L230.25 634.64L228.25 635.12L225.46 635.78L237.53 668.49L263.53 738.65L267.57 737.58L270.06 737.07L273.94 736.43L276.62 736.03L282.00 735.44L287.18 735.45L293.97 735.21L297.80 735.75L302.77 735.92L305.49 736.30L306.93 736.56L309.36 736.27L311.54 736.61L314.60 737.03L317.17 737.37L318.75 737.52L320.34 738.94L321.30 740.45L322.18 742.55L325.59 742.25L327.17 742.27L328.78 742.14L331.04 742.63L334.10 742.18L335.50 742.44L337.13 742.45L337.00 740.26L336.89 738.50L336.78 736.67L336.64 734.28L336.55 732.76L336.49 729.99L336.44 727.20L336.55 724.65L336.69 721.53L336.81 718.75L336.95 715.59L337.07 712.74L337.16 710.87L337.26 708.58L336.55 705.05L336.66 701.79L336.79 697.99L336.89 694.90L337.68 692.75L337.92 690.82L338.50 685.92L339.19 680.11L339.50 677.56L339.79 675.09L340.20 671.81L340.50 669.41L340.84 667.00L341.40 663.07L341.81 660.20L341.63 656.89L340.75 654.45L337.74 652.99L337.57 648.88L337.17 646.32L335.84 644.86L334.07 644.75L332.44 641.10L330.22 638.22L326.70 633.63L325.12 630.46L323.94 628.09L322.15 624.49L320.34 623.75L319.48 622.51L318.35 620.86L315.72 616.72L314.20 614.85Z" data-ward="9" /><path id="ward-10" class="ward" d="M240.50 499.64L236.01 500.44L230.93 501.99L228.89 502.61L227.51 503.03L220.82 502.39L218.81 502.20L215.69 501.91L214.01 501.74L208.95 504.47L206.85 505.60L204.29 506.92L201.82 508.21L199.54 509.40L192.87 511.47L190.05 512.05L188.44 512.38L186.84 512.71L183.81 513.34L180.92 513.94L177.30 515.02L180.78 522.13L225.46 635.78L228.25 635.12L230.25 634.64L232.34 634.13L235.27 633.42L238.24 632.70L241.22 631.98L250.97 629.18L250.27 626.43L252.29 625.42L253.72 625.10L255.69 624.81L258.60 624.59L262.64 623.82L265.18 623.03L268.48 622.50L270.30 622.28L273.64 621.94L277.82 621.33L280.40 621.39L282.39 619.59L284.63 618.77L287.21 617.87L288.54 617.42L290.87 616.77L292.65 616.14L295.03 616.25L297.30 615.98L299.09 615.54L302.79 613.94L306.53 611.75L309.02 610.68L310.15 609.84L306.35 604.88L303.25 600.82L300.78 598.04L299.12 596.04L297.51 594.27L295.35 591.72L290.58 586.09L278.20 570.91L269.40 560.27L267.47 557.93L265.52 555.58L259.23 547.32L257.00 544.31L249.11 530.87L247.44 527.49L246.79 526.16L244.98 521.27L244.26 519.14L243.75 517.50L241.68 510.77L241.10 507.85L240.27 505.03L240.35 503.21L240.50 499.64Z" data-ward="10" /></svg>