<svg viewBox="0 0 1000.00 890.30" xmlns="http://www.w3.org/2000/svg"><style>.ward { fill: #e2e8f0; stroke: #fff; stroke-width: 0.5px; } .ward:hover { fill: #cbd5e1; }</style><path id="ward-10" class="ward" d="M813.85 416.53L810.47 412.96L807.51 409.83L809.73 403.79L811.60 399.28L811.88 398.11L812.01 396.83L812.44 394.53L812.57 390.43L812.61 389.22L812.40 384.11L811.80 382.25L810.90 380.13L809.44 376.68L808.44 374.10L807.63 372.02L806.67 368.83L806.15 367.09L805.58 365.61L802.58 357.86L800.38 351.86L799.92 350.60L798.56 346.41L791.95 347.63L787.95 348.16L785.57 348.58L784.28 341.65L782.81 334.90L774.91 333.87L768.93 335.63L767.81 336.28L765.99 337.43L764.10 335.86L754.79 326.13L751.07 325.96L749.37 326.31L742.87 326.84L740.39 324.60L738.15 322.56L736.55 321.11L734.67 319.88L733.49 319.25L731.90 319.20L729.99 319.16L726.76 319.09L722.14 318.69L717.76 318.23L715.50 318.28L713.68 318.26L712.87 318.95L711.41 320.31L711.72 322.36L712.17 323.91L712.62 325.46L716.64 328.15L718.73 329.55L719.90 330.08L721.07 330.60L722.83 331.35L724.19 332.63L723.85 334.65L723.19 335.60L720.24 336.57L718.01 336.36L715.78 335.44L714.84 338.46L713.35 343.56L716.85 344.98L719.85 346.14L721.49 348.86L722.53 350.09L723.57 351.32L727.38 350.88L730.70 350.43L734.03 349.97L741.68 351.20L748.45 352.81L762.25 355.92L767.35 357.13L762.20 359.29L765.74 363.00L770.14 367.56L768.76 374.53L767.29 380.41L766.75 381.93L765.95 384.21L765.40 385.99L764.99 387.19L762.87 388.83L762.23 390.60L761.63 391.48L759.20 393.28L755.82 395.01L754.56 397.31L752.81 400.45L750.04 401.09L747.17 401.18L745.98 401.04L744.08 401.88L740.90 403.58L737.45 407.54L737.76 408.80L738.06 410.07L739.18 413.65L739.41 417.94L739.62 418.92L740.27 421.94L740.16 424.77L738.86 426.87L736.44 433.40L743.72 436.54L750.42 439.44L759.39 443.32L760.33 443.79L764.58 445.55L766.38 446.32L768.10 447.06L769.78 447.78L771.44 448.22L773.45 448.76L775.01 449.18L782.77 451.26L793.67 451.11L800.26 450.98L803.94 450.91L804.86 450.98L812.14 451.12L815.61 453.43L816.67 454.28L819.20 456.95L819.80 457.85L822.42 461.49L826.65 466.15L827.28 466.84L828.77 467.40L830.16 467.96L831.73 468.01L835.14 468.10L841.52 464.15L844.09 457.83L844.54 456.74L845.90 453.43L847.18 450.57L848.14 448.43L850.93 442.60L852.32 439.68L854.19 435.77L855.44 433.15L851.61 429.41L849.81 427.65L849.09 427.06L847.72 426.34L844.99 425.09L843.33 425.29L841.33 424.68L837.98 420.23L836.25 417.93L835.44 416.88L830.53 416.60L828.74 416.50L827.94 416.82L826.81 417.28L821.31 419.49L816.39 419.22L813.85 416.53Z" data-ward="10" /><path id="ward-1" class="ward" d="M259.62 361.00L259.33 359.82L258.45 356.22L257.02 351.03L255.75 346.39L254.10 340.38L255.19 335.85L256.09 333.27L256.40 332.39L256.61 330.26L256.33 329.13L254.41 327.77L252.48 326.42L249.70 325.68L247.94 324.73L247.13 324.30L240.66 319.48L242.78 317.52L243.79 316.15L244.20 314.09L242.96 312.94L240.04 310.03L236.48 306.49L234.69 304.70L233.39 303.41L225.61 300.99L220.49 299.18L218.23 296.73L216.59 297.33L215.14 297.87L212.06 299.16L208.37 300.85L207.32 300.93L205.28 301.09L204.19 301.18L202.56 301.32L198.16 300.44L197.13 299.78L191.73 296.28L189.69 294.93L187.75 295.56L182.04 297.40L165.93 302.61L149.48 307.53L145.87 308.63L143.70 308.73L138.75 308.95L133.14 309.20L127.41 309.39L118.57 309.66L113.08 309.84L111.85 309.85L108.65 310.06L104.26 310.77L98.49 311.93L93.66 312.90L90.46 313.66L88.52 313.95L82.02 315.31L78.80 315.98L75.84 316.55L67.41 318.28L57.49 320.27L52.48 321.28L50.57 321.55L49.21 321.80L47.81 322.05L46.79 322.96L45.24 324.24L41.10 327.41L40.32 328.04L38.73 329.32L34.32 332.89L32.76 334.21L28.00 338.25L24.89 341.72L21.37 344.12L15.88 348.72L14.79 349.64L14.45 353.54L13.52 359.31L13.05 361.90L11.75 368.86L11.14 370.73L10.36 376.74L9.42 383.25L8.86 387.04L10.33 388.11L17.97 393.68L25.60 399.25L32.03 403.93L37.62 408.01L43.77 412.49L61.95 436.44L69.71 449.26L74.49 452.28L87.20 459.61L97.83 458.53L102.20 458.09L106.44 457.84L109.11 457.87L111.65 457.58L113.18 457.40L115.43 457.15L125.04 455.21L128.18 454.58L133.76 453.28L137.27 452.47L144.94 449.38L146.46 449.28L148.35 449.17L152.73 448.89L156.64 448.83L161.38 450.75L163.19 451.50L164.05 451.85L165.21 452.33L168.03 455.73L170.53 458.76L171.00 459.59L172.39 462.46L173.63 465.67L176.04 471.89L178.23 477.38L180.50 475.79L181.90 474.41L183.58 472.76L190.48 466.16L190.94 462.25L191.48 457.68L191.09 449.52L191.27 442.23L191.70 440.71L192.13 439.18L192.97 436.38L193.63 434.15L194.20 429.73L194.38 428.28L195.93 423.57L197.47 418.87L202.80 423.68L204.70 421.62L208.72 417.24L215.67 416.08L217.50 413.76L220.97 409.37L222.29 408.97L233.00 406.14L234.21 404.92L235.58 403.52L238.08 400.99L244.48 394.46L253.34 385.48L257.47 385.32L256.91 383.68L256.50 382.47L255.64 380.89L254.78 379.31L255.55 377.03L255.52 375.47L255.65 374.20L255.87 372.05L255.50 369.35L255.19 367.11L256.06 366.13L256.93 365.14L258.04 364.80L259.15 364.46L259.45 362.52L259.62 361.00Z" data-ward="1" /><path id="ward-13" class="ward" d="M291.66 495.58L289.47 503.16L288.85 507.80L285.16 510.88L287.31 514.49L288.08 515.79L289.07 517.47L289.84 518.56L290.52 519.52L292.13 521.80L293.66 523.96L297.25 525.81L299.49 526.99L300.62 529.18L301.49 530.91L302.01 531.93L302.88 533.46L304.07 535.54L309.30 541.94L310.12 542.94L310.85 543.74L311.50 544.46L312.44 545.50L313.39 546.25L315.14 547.33L317.36 549.61L318.64 551.27L319.96 553.06L320.70 554.52L321.44 555.98L322.18 558.23L322.65 560.29L323.26 561.86L323.70 563.02L324.30 564.96L325.18 569.11L325.43 570.39L324.43 572.92L323.58 575.03L322.74 577.43L322.27 579.18L322.26 581.09L322.76 582.41L326.22 585.70L329.29 588.11L331.93 590.19L335.09 592.66L336.94 594.11L338.67 594.57L342.09 595.48L343.61 596.10L345.94 597.05L350.19 598.24L351.45 599.11L355.35 601.82L356.96 603.40L358.06 604.49L358.69 605.23L359.87 606.61L361.08 608.14L361.66 609.68L362.96 609.85L365.48 609.62L369.38 610.00L370.86 610.05L372.91 610.00L388.57 610.56L392.14 605.40L401.15 611.16L412.05 620.00L434.54 631.74L453.06 645.72L454.29 646.48L464.29 652.63L477.53 661.21L489.55 671.05L493.04 673.43L496.10 673.79L499.50 674.68L507.41 677.34L513.58 679.45L530.09 685.93L531.86 683.27L533.47 680.85L536.96 675.60L539.51 671.76L540.11 670.86L540.65 669.99L541.50 668.60L532.64 665.21L530.68 664.46L529.77 664.11L526.16 662.60L520.53 653.55L514.87 644.19L513.68 642.61L512.50 641.03L511.01 639.93L509.54 638.83L506.13 636.37L504.83 635.44L504.24 634.67L502.36 632.18L500.62 629.86L498.84 627.51L497.69 625.49L496.86 624.04L495.73 623.00L495.02 622.34L493.19 620.67L492.13 619.71L491.33 618.93L489.62 617.26L488.82 616.54L485.44 613.53L483.95 611.87L483.20 611.04L481.21 609.75L479.43 608.60L476.50 607.38L474.73 606.65L471.31 603.86L469.34 602.09L468.01 600.92L464.68 597.50L452.37 583.61L449.84 583.04L448.59 582.76L447.04 582.65L443.74 582.90L442.53 583.31L439.62 582.97L436.50 581.44L434.83 580.62L433.16 579.79L432.04 578.18L431.66 576.74L430.23 574.26L429.10 573.57L426.41 571.90L425.20 571.07L422.07 568.90L420.36 567.72L408.57 559.51L405.70 557.45L406.56 556.09L404.55 554.57L402.01 553.71L399.35 552.55L396.49 551.47L393.72 550.59L391.64 549.93L389.37 549.20L389.16 533.67L385.44 500.93L384.55 493.11L384.28 490.73L384.32 489.49L385.19 487.09L385.93 485.68L386.96 483.73L388.75 482.98L390.91 482.06L392.11 481.74L392.92 480.39L393.69 479.09L394.17 477.82L395.19 475.12L393.92 471.55L392.85 471.74L391.13 472.09L389.00 472.67L385.62 473.60L380.60 474.40L372.08 476.17L370.34 476.06L361.21 477.68L354.30 478.91L352.11 479.30L346.77 479.18L345.30 479.11L343.97 479.54L341.40 480.39L339.11 480.84L336.83 481.29L335.05 481.01L333.79 480.82L332.90 480.07L330.69 477.02L329.36 475.18L328.82 472.90L328.18 470.16L326.08 468.24L323.66 466.02L320.69 465.94L316.91 465.66L315.56 463.07L314.47 460.50L311.81 454.57L310.43 453.17L308.67 452.34L308.39 455.02L308.13 458.12L307.62 459.61L307.16 460.72L305.30 461.31L304.09 462.87L303.41 463.74L302.39 466.55L301.56 468.65L300.94 470.08L299.45 473.52L298.86 474.66L296.47 479.55L294.54 486.00L291.66 495.58Z" data-ward="13" /><path id="ward-6" class="ward" d="M464.14 97.85L462.72 97.47L460.50 96.68L455.31 94.91L452.19 92.74L450.49 91.57L448.48 90.00L447.67 89.45L444.75 87.41L443.46 86.53L442.43 86.23L440.33 85.64L437.97 85.41L440.39 94.72L440.64 96.39L441.19 98.96L441.95 101.53L441.81 102.66L441.51 104.54L440.48 106.43L441.43 109.01L440.94 111.38L442.76 115.92L444.64 117.35L445.17 118.11L445.41 119.57L444.86 121.35L445.05 124.24L445.99 126.88L446.53 128.40L447.71 130.71L448.16 131.61L449.18 132.31L450.38 133.08L450.57 134.33L450.14 136.23L450.03 139.10L449.34 140.10L447.91 142.13L448.11 145.19L448.78 148.12L448.91 149.15L449.06 150.31L448.93 152.33L449.48 153.32L450.28 154.61L451.25 155.83L452.58 157.40L453.86 158.87L457.23 162.51L462.56 167.09L466.69 172.82L468.44 175.25L470.18 178.93L474.65 188.38L481.38 203.54L482.32 204.49L487.62 209.45L487.09 211.74L484.40 219.37L481.67 227.78L481.12 229.63L480.60 232.39L480.04 235.36L479.34 239.32L481.11 244.46L484.00 251.00L482.21 253.83L481.24 256.75L484.12 259.11L485.19 259.96L488.23 262.02L489.96 262.01L491.78 262.01L494.22 261.26L496.73 260.39L498.67 258.49L500.54 256.65L503.75 253.13L505.39 252.28L506.68 251.61L510.31 249.17L515.13 244.82L517.61 246.68L519.56 247.90L523.53 250.37L526.13 251.84L531.99 257.32L533.42 262.69L535.50 267.52L540.01 275.70L540.91 277.31L545.40 281.04L547.91 282.37L549.05 282.96L559.13 288.29L560.77 289.16L566.93 291.99L571.32 294.01L575.57 295.96L578.95 297.52L580.21 297.86L581.17 298.13L582.70 298.97L584.24 299.82L585.26 300.62L587.18 302.11L588.91 303.46L590.32 304.85L591.23 305.75L592.46 307.51L593.70 309.28L595.34 311.85L596.98 314.42L597.88 315.02L599.33 315.99L601.50 318.08L621.80 318.54L623.44 318.55L629.99 316.39L632.96 315.60L635.93 307.08L636.82 304.41L640.84 300.42L643.77 298.03L648.55 293.78L656.27 288.05L659.93 286.67L663.25 285.42L663.46 283.87L664.40 281.36L665.48 281.22L669.26 281.01L668.68 273.56L668.80 272.60L670.23 270.00L671.37 268.99L673.06 268.96L674.84 268.93L678.42 268.96L684.07 272.24L687.91 271.98L689.42 271.98L690.79 269.12L691.08 267.34L690.66 264.07L690.41 262.12L690.16 260.16L689.97 258.62L690.46 254.16L690.98 251.59L693.95 251.40L697.21 251.08L702.11 250.34L704.35 249.72L705.30 249.51L706.49 249.12L708.70 247.72L710.95 248.92L712.92 249.33L714.67 249.20L716.34 248.88L717.14 246.76L717.46 245.79L718.64 243.53L721.58 238.02L722.34 235.24L723.13 232.32L724.09 231.31L726.23 229.82L724.19 229.22L722.45 228.14L721.60 227.59L717.31 224.81L708.91 219.38L705.85 221.67L704.75 222.49L703.38 223.47L701.86 224.55L699.73 220.01L697.76 215.50L699.12 214.65L700.36 213.89L702.01 212.89L702.77 211.93L703.83 210.49L705.40 208.42L714.08 208.44L713.26 207.45L712.13 206.12L711.29 204.98L710.76 203.55L710.24 202.11L709.22 199.16L706.57 198.38L704.19 197.62L703.14 197.29L702.00 196.93L699.65 193.14L697.73 189.98L695.87 187.23L695.14 186.16L694.40 185.00L694.05 182.85L693.71 179.67L696.47 176.39L698.88 175.36L702.81 173.68L704.61 173.45L706.05 172.72L708.22 171.56L713.25 168.88L714.86 168.01L717.36 164.30L718.80 161.45L717.83 161.27L714.09 160.85L710.58 160.42L707.45 160.03L702.83 159.34L697.89 158.54L696.03 158.32L694.06 158.45L689.84 158.86L687.93 158.56L685.91 157.54L684.96 157.08L683.39 156.29L680.16 154.69L678.60 154.39L676.54 153.99L675.01 156.01L673.62 157.83L670.49 160.84L667.36 163.44L663.93 165.14L659.89 167.38L656.66 169.17L652.97 170.81L649.11 172.53L645.24 174.37L643.86 175.00L642.35 176.56L641.66 177.27L640.86 178.07L639.79 179.14L639.04 179.83L637.95 180.83L636.04 182.49L635.12 183.38L633.71 184.30L631.67 185.52L627.84 187.88L626.29 188.84L624.66 189.87L622.89 191.22L621.37 192.27L619.06 194.01L617.43 194.96L616.30 195.61L613.90 196.61L611.22 197.73L610.17 198.15L608.12 198.98L602.60 200.75L599.15 201.82L596.03 202.79L593.63 203.71L591.58 204.90L591.65 203.47L591.82 200.31L591.75 197.86L591.87 196.67L591.74 194.43L591.79 192.20L591.73 190.40L591.68 188.02L591.67 187.07L591.68 184.83L591.45 183.69L591.11 181.87L590.81 180.33L590.44 178.26L590.06 176.35L589.85 175.28L589.36 172.75L588.85 170.06L588.11 167.86L587.59 167.08L587.05 166.25L585.98 164.62L585.33 163.63L584.35 162.27L583.26 160.77L581.08 158.61L579.83 157.38L578.27 155.83L576.57 154.15L575.06 153.18L572.76 151.67L571.59 150.90L568.92 149.32L566.28 148.18L563.64 147.05L558.83 145.97L554.18 144.93L549.07 144.19L546.13 143.77L541.49 143.10L538.38 142.68L535.62 142.30L531.60 141.74L527.12 141.13L520.91 142.61L516.91 143.57L514.36 143.66L512.31 143.79L509.43 143.26L503.88 142.23L502.79 141.32L501.65 140.38L499.75 134.35L498.80 131.35L496.91 125.37L495.96 122.37L495.01 119.37L493.66 116.05L491.55 110.89L490.92 109.47L490.17 107.93L488.31 104.40L486.59 102.92L484.88 101.44L481.21 98.44L479.09 96.91L478.02 97.34L471.49 100.00L464.14 97.85Z" data-ward="6" /><path id="ward-2" class="ward" d="M259.62 361.00L259.45 362.52L259.15 364.46L258.04 364.80L256.93 365.14L256.06 366.13L255.19 367.11L255.50 369.35L255.87 372.05L255.65 374.20L255.52 375.47L255.55 377.03L254.78 379.31L255.64 380.89L256.50 382.47L256.91 383.68L257.47 385.32L253.34 385.48L244.48 394.46L238.08 400.99L235.58 403.52L234.21 404.92L233.00 406.14L222.29 408.97L220.97 409.37L217.50 413.76L215.67 416.08L208.72 417.24L204.70 421.62L202.80 423.68L197.47 418.87L195.93 423.57L194.38 428.28L194.20 429.73L193.63 434.15L192.97 436.38L192.13 439.18L191.70 440.71L191.27 442.23L191.09 449.52L191.48 457.68L190.94 462.25L190.48 466.16L183.58 472.76L181.90 474.41L180.50 475.79L178.23 477.38L181.01 481.98L182.52 484.15L183.57 485.57L184.79 486.86L186.75 488.36L192.25 492.59L198.51 497.40L201.78 499.85L205.41 501.00L206.96 501.40L209.03 501.93L210.84 501.06L211.76 500.70L213.40 499.77L215.89 499.79L216.97 501.06L218.99 503.45L221.91 505.52L223.24 505.90L226.09 505.96L229.97 506.78L231.07 507.66L232.93 509.14L235.97 513.09L238.37 515.70L239.99 516.73L241.99 518.00L243.05 518.17L246.61 518.75L249.53 519.39L253.33 519.72L257.95 520.12L259.42 520.25L266.10 518.99L267.70 518.63L269.86 518.14L271.64 517.57L272.97 517.12L277.57 515.49L280.71 513.58L281.95 512.83L285.16 510.88L288.85 507.80L289.47 503.16L291.66 495.58L294.54 486.00L296.47 479.55L298.86 474.66L299.45 473.52L300.94 470.08L301.56 468.65L302.39 466.55L303.41 463.74L304.09 462.87L305.30 461.31L307.16 460.72L307.62 459.61L308.13 458.12L308.39 455.02L308.67 452.34L310.43 453.17L311.81 454.57L314.47 460.50L315.56 463.07L316.91 465.66L320.69 465.94L323.66 466.02L326.08 468.24L328.18 470.16L328.82 472.90L329.36 475.18L330.69 477.02L332.90 480.07L333.79 480.82L335.05 481.01L336.83 481.29L339.11 480.84L341.40 480.39L343.97 479.54L345.30 479.11L346.77 479.18L352.11 479.30L354.30 478.91L361.21 477.68L361.44 475.30L361.67 472.93L361.88 471.88L362.34 469.26L360.66 467.48L358.24 464.24L357.13 462.07L357.88 458.67L359.49 456.23L360.10 455.28L360.72 452.18L361.11 450.25L361.42 446.35L360.24 441.22L358.09 438.17L353.08 434.72L350.43 431.87L347.39 429.10L345.07 425.35L342.89 423.43L341.22 423.24L339.95 422.75L336.90 421.58L334.81 420.77L333.99 419.88L330.95 416.57L330.21 415.68L326.83 411.62L326.24 410.79L322.72 405.83L321.77 404.49L320.24 402.09L319.28 401.21L316.60 397.69L317.16 396.09L317.71 394.49L318.72 393.61L319.73 392.73L321.51 391.00L321.93 388.93L320.31 388.12L319.63 387.04L319.54 385.68L318.68 383.42L318.08 381.86L317.44 369.20L313.74 364.59L313.17 363.45L312.60 362.31L310.46 357.75L309.78 356.22L309.48 352.71L310.20 349.44L308.48 346.35L304.90 343.83L303.57 343.68L302.21 342.96L300.84 342.23L300.22 341.49L293.97 338.63L292.77 338.23L291.07 337.21L289.37 336.19L285.69 333.23L282.83 332.79L279.17 332.25L276.33 331.83L274.99 330.32L273.64 328.81L275.81 325.76L273.39 321.46L270.99 320.08L272.34 316.81L274.26 314.41L274.78 313.18L275.01 312.02L271.98 310.84L273.01 308.18L274.05 305.53L275.63 302.58L276.30 299.90L276.74 295.71L276.97 289.20L277.14 287.30L274.96 287.14L273.91 287.06L272.47 286.96L271.16 287.06L269.58 286.88L268.35 286.56L265.65 285.86L261.65 284.82L260.43 284.55L259.19 284.28L257.01 283.92L254.27 283.47L252.99 283.26L251.88 283.08L250.96 282.92L249.05 282.61L247.88 282.38L246.46 281.93L245.41 281.64L243.44 281.10L242.14 280.76L241.21 280.52L239.46 280.07L238.53 280.39L237.42 280.76L234.94 281.50L232.40 282.25L230.35 282.86L227.77 283.62L225.47 284.30L223.07 285.01L220.03 285.91L217.71 286.60L215.37 287.29L212.12 288.25L208.68 289.27L206.39 289.95L204.32 290.56L198.91 292.16L191.00 294.51L189.69 294.93L191.73 296.28L197.13 299.78L198.16 300.44L202.56 301.32L204.19 301.18L205.28 301.09L207.32 300.93L208.37 300.85L212.06 299.16L215.14 297.87L216.59 297.33L218.23 296.73L220.49 299.18L225.61 300.99L233.39 303.41L234.69 304.70L236.48 306.49L240.04 310.03L242.96 312.94L244.20 314.09L243.79 316.15L242.78 317.52L240.66 319.48L247.13 324.30L247.94 324.73L249.70 325.68L252.48 326.42L254.41 327.77L256.33 329.13L256.61 330.26L256.40 332.39L256.09 333.27L255.19 335.85L254.10 340.38L255.75 346.39L257.02 351.03L258.45 356.22L259.33 359.82L259.62 361.00Z" data-ward="2" /><path id="ward-5" class="ward" d="M536.78 321.84L539.33 319.47L541.59 317.87L543.53 317.21L544.55 316.74L545.56 316.27L548.29 314.74L551.28 312.42L552.82 311.46L554.97 310.11L557.57 308.07L559.13 306.86L561.88 304.23L562.98 303.17L563.54 302.24L563.29 301.11L563.01 299.80L561.97 294.79L561.33 291.85L560.77 289.16L559.13 288.29L549.05 282.96L547.91 282.37L545.40 281.04L540.91 277.31L540.01 275.70L535.50 267.52L533.42 262.69L531.99 257.32L526.13 251.84L523.53 250.37L519.56 247.90L517.61 246.68L515.13 244.82L510.31 249.17L506.68 251.61L505.39 252.28L503.75 253.13L500.54 256.65L498.67 258.49L496.73 260.39L494.22 261.26L491.78 262.01L489.96 262.01L488.23 262.02L485.19 259.96L484.12 259.11L481.24 256.75L482.21 253.83L484.00 251.00L481.11 244.46L479.34 239.32L480.04 235.36L480.60 232.39L481.12 229.63L481.67 227.78L484.40 219.37L487.09 211.74L487.62 209.45L482.32 204.49L481.38 203.54L474.65 188.38L470.18 178.93L468.44 175.25L466.69 172.82L462.56 167.09L457.23 162.51L453.86 158.87L452.58 157.40L451.25 155.83L450.28 154.61L449.48 153.32L448.93 152.33L449.06 150.31L448.91 149.15L448.78 148.12L448.11 145.19L447.91 142.13L449.34 140.10L450.03 139.10L450.14 136.23L450.57 134.33L450.38 133.08L449.18 132.31L448.16 131.61L447.71 130.71L446.53 128.40L445.99 126.88L445.05 124.24L444.86 121.35L445.41 119.57L445.17 118.11L444.64 117.35L442.76 115.92L440.94 111.38L441.43 109.01L440.48 106.43L441.51 104.54L441.81 102.66L441.95 101.53L441.19 98.96L440.64 96.39L440.39 94.72L437.97 85.41L433.78 84.91L430.99 84.58L427.60 84.18L424.04 83.76L421.04 83.40L417.79 82.03L415.09 81.00L413.79 80.60L407.15 79.72L398.99 78.63L389.61 77.38L384.27 76.84L381.95 76.79L380.45 76.87L377.95 78.39L376.48 78.54L371.26 79.52L371.05 81.11L370.71 83.76L370.36 86.45L369.67 91.77L368.78 95.33L367.37 99.89L364.88 105.71L363.06 109.66L365.40 113.96L366.00 114.67L378.67 130.74L381.97 135.26L384.83 139.09L386.37 141.63L389.24 146.75L393.43 154.28L394.04 155.47L394.65 156.72L399.23 163.72L402.51 168.72L405.01 172.53L407.55 176.42L408.40 178.56L409.02 180.13L409.64 181.71L410.26 183.27L410.65 184.27L411.18 185.61L411.19 186.54L411.27 192.12L411.39 200.56L410.86 204.34L410.50 205.75L410.19 207.88L409.75 210.85L408.56 214.91L408.47 215.95L408.19 219.42L407.89 223.05L408.83 227.05L409.23 228.72L409.70 230.74L411.42 238.03L413.62 238.93L415.55 239.65L417.56 240.39L420.17 241.35L421.11 241.63L422.49 242.14L426.19 243.33L427.64 243.81L429.79 244.57L433.03 245.74L434.23 246.19L436.63 247.08L438.74 247.87L442.92 249.49L443.80 249.80L445.77 250.48L446.75 250.81L448.52 251.51L449.98 252.08L451.22 252.46L450.55 254.90L449.91 258.51L448.96 261.75L448.58 264.09L448.38 265.34L447.38 269.41L447.02 270.87L446.28 274.05L445.95 275.51L445.63 276.90L445.26 278.25L444.74 280.18L444.22 282.10L443.27 286.38L442.90 288.08L441.74 292.55L441.47 293.79L440.54 297.92L440.14 299.83L439.42 301.51L438.79 305.19L438.35 306.94L437.61 309.91L436.87 312.88L436.37 315.18L435.56 318.93L435.31 319.94L434.84 321.56L434.24 323.50L433.91 324.57L433.28 327.37L432.84 329.34L432.44 331.27L432.10 332.86L431.39 335.83L430.69 338.55L430.39 339.97L429.56 343.86L431.20 342.50L432.78 341.20L433.93 340.25L434.56 340.96L435.50 342.14L436.44 343.32L437.63 345.54L438.81 347.91L443.31 353.37L441.08 357.46L440.09 359.17L441.89 360.64L443.68 362.11L444.62 362.86L445.58 363.61L446.54 364.37L448.45 364.10L449.80 363.28L451.14 362.45L453.66 360.98L455.60 359.92L456.96 359.68L458.25 359.43L459.59 358.80L462.30 357.55L464.91 356.49L465.97 355.98L468.13 354.46L469.75 353.25L471.44 352.33L472.74 351.63L474.32 350.79L475.74 349.77L477.33 348.65L478.39 347.88L479.36 347.16L480.79 346.11L482.62 345.53L483.72 344.99L486.26 342.94L488.00 341.36L488.97 340.16L490.00 338.63L491.10 336.77L491.58 335.95L492.36 334.38L492.88 333.04L493.76 331.65L495.27 330.15L496.67 329.20L499.79 327.25L500.85 326.65L502.74 325.66L503.69 327.55L505.05 330.38L505.62 331.98L506.02 332.98L507.12 334.99L507.83 336.53L508.96 336.45L509.26 334.25L509.66 331.99L510.34 330.32L511.08 329.07L513.08 329.21L515.37 330.09L516.89 330.68L519.27 331.40L521.20 331.85L522.48 331.48L524.52 330.82L527.36 329.38L530.28 327.75L532.83 325.76L534.45 324.53L535.63 323.17L536.78 321.84Z" data-ward="5" /><path id="ward-4" class="ward" d="M597.88 315.02L596.98 314.42L595.34 311.85L593.70 309.28L592.46 307.51L591.23 305.75L590.32 304.85L588.91 303.46L587.18 302.11L585.26 300.62L584.24 299.82L582.70 298.97L581.17 298.13L580.21 297.86L578.95 297.52L575.57 295.96L571.32 294.01L566.93 291.99L560.77 289.16L561.33 291.85L561.97 294.79L563.01 299.80L563.29 301.11L563.54 302.24L562.98 303.17L561.88 304.23L559.13 306.86L557.57 308.07L554.97 310.11L552.82 311.46L551.28 312.42L548.29 314.74L545.56 316.27L544.55 316.74L543.53 317.21L541.59 317.87L539.33 319.47L536.78 321.84L535.63 323.17L534.45 324.53L532.83 325.76L530.28 327.75L527.36 329.38L524.52 330.82L522.48 331.48L521.20 331.85L519.27 331.40L516.89 330.68L515.37 330.09L513.08 329.21L511.08 329.07L510.34 330.32L509.66 331.99L509.26 334.25L508.96 336.45L507.83 336.53L507.12 334.99L506.02 332.98L505.62 331.98L505.05 330.38L503.69 327.55L502.74 325.66L500.85 326.65L499.79 327.25L496.67 329.20L495.27 330.15L493.76 331.65L492.88 333.04L492.36 334.38L491.58 335.95L491.10 336.77L490.00 338.63L488.97 340.16L488.00 341.36L486.26 342.94L483.72 344.99L482.62 345.53L480.79 346.11L479.36 347.16L478.39 347.88L477.33 348.65L475.74 349.77L474.32 350.79L472.74 351.63L471.44 352.33L469.75 353.25L468.13 354.46L465.97 355.98L464.91 356.49L462.30 357.55L459.59 358.80L458.25 359.43L456.96 359.68L455.60 359.92L453.66 360.98L451.14 362.45L449.80 363.28L448.45 364.10L446.54 364.37L445.58 363.61L444.62 362.86L443.68 362.11L441.89 360.64L440.09 359.17L441.08 357.46L443.31 353.37L438.81 347.91L437.63 345.54L436.44 343.32L435.50 342.14L434.56 340.96L433.93 340.25L432.78 341.20L431.20 342.50L429.56 343.86L428.45 344.84L427.26 345.89L426.54 346.53L425.41 347.52L424.15 348.64L422.96 349.69L422.10 350.44L420.96 351.46L413.53 358.02L410.49 360.56L402.33 367.41L397.71 371.28L394.45 369.10L391.98 368.35L392.77 371.06L395.69 379.38L398.27 385.54L398.72 386.59L399.91 388.37L401.10 390.16L402.42 391.92L403.76 393.72L413.15 402.63L414.85 396.62L416.58 390.51L417.71 384.03L418.84 377.54L419.12 375.93L426.33 379.02L429.45 379.98L433.00 381.06L436.64 382.01L438.10 387.55L437.52 392.30L437.50 394.76L437.49 396.23L437.86 397.81L438.47 400.05L438.76 401.04L441.14 405.24L443.74 409.56L445.40 412.33L445.74 413.92L446.29 416.20L447.45 421.05L450.08 428.22L450.55 429.56L451.38 431.90L451.83 433.31L452.79 435.99L453.12 434.10L453.44 433.24L454.09 431.50L455.39 428.03L462.35 424.92L464.07 424.16L465.74 423.41L467.11 422.80L467.73 422.01L468.72 420.75L470.20 418.84L474.51 413.43L475.64 412.82L478.03 411.71L479.46 411.95L481.21 412.23L484.27 412.73L487.26 413.96L488.52 414.48L489.69 415.29L491.72 416.68L493.93 417.97L496.38 419.32L498.21 420.16L499.87 419.25L501.47 418.37L502.97 417.44L507.39 414.69L508.16 415.38L510.01 417.02L513.98 420.79L515.06 421.48L516.32 420.62L517.99 419.48L519.60 418.39L520.44 417.77L524.01 415.03L527.59 412.29L530.89 413.59L534.08 414.84L538.48 416.57L542.87 416.69L546.70 416.79L550.08 416.88L552.96 416.07L554.48 415.65L556.09 412.91L556.39 409.61L557.79 407.73L559.31 405.69L560.93 404.17L563.37 403.59L566.49 403.42L567.85 401.50L567.36 399.50L567.91 397.51L568.44 395.60L569.28 392.56L574.63 393.21L577.69 391.82L580.82 392.88L582.66 393.51L583.77 393.85L586.43 394.09L588.40 394.28L589.32 393.67L590.02 392.02L590.61 390.63L589.33 386.95L586.04 385.04L583.85 383.77L582.86 380.51L583.43 378.72L584.00 377.05L588.10 377.89L589.40 378.44L590.63 378.92L592.48 379.66L594.13 380.74L596.76 382.48L598.81 385.47L602.12 388.35L604.08 389.97L605.20 391.20L607.20 393.39L610.03 396.55L607.46 389.83L607.37 386.88L608.87 381.64L608.08 377.34L607.01 372.20L602.40 348.78L602.60 347.52L602.80 346.27L605.54 336.52L605.78 328.97L603.99 326.43L600.48 321.45L599.60 320.05L598.72 318.66L597.88 315.02Z" data-ward="4" /><path id="ward-14" class="ward" d="M517.64 812.64L518.82 810.02L519.49 808.53L520.65 805.93L523.32 799.99L523.07 795.71L522.91 792.78L522.13 791.62L519.09 787.09L516.19 782.78L515.31 779.06L515.04 777.59L514.13 774.24L512.73 769.03L512.08 760.76L511.41 750.79L512.15 747.73L513.76 741.09L515.85 737.45L518.08 733.57L520.30 729.71L521.78 725.12L522.95 721.83L524.51 719.03L526.06 716.22L526.76 713.33L528.14 707.63L527.04 704.03L526.47 700.20L527.20 694.08L527.34 692.89L527.48 691.77L528.17 689.72L528.89 687.75L530.09 685.93L513.58 679.45L507.41 677.34L499.50 674.68L496.10 673.79L493.04 673.43L489.55 671.05L477.53 661.21L464.29 652.63L454.29 646.48L453.06 645.72L434.54 631.74L412.05 620.00L401.15 611.16L392.14 605.40L388.57 610.56L372.91 610.00L370.86 610.05L369.38 610.00L365.48 609.62L362.96 609.85L361.66 609.68L361.08 608.14L359.87 606.61L358.69 605.23L358.06 604.49L356.96 603.40L351.61 603.67L330.06 601.38L312.98 595.02L310.76 594.13L305.56 592.05L301.72 590.74L298.16 589.43L295.84 588.46L292.80 587.18L290.33 586.25L287.88 585.75L279.98 588.23L278.92 590.80L277.42 592.80L274.41 596.29L273.16 597.47L271.80 598.36L268.81 598.74L263.86 598.34L258.44 597.07L257.19 597.07L255.09 597.06L255.27 598.97L255.52 601.60L255.64 603.63L255.41 605.05L254.94 607.89L253.88 610.93L253.07 613.06L252.41 614.97L251.96 616.25L251.42 619.12L250.43 619.61L248.88 620.34L246.27 621.45L236.00 624.20L225.12 627.77L220.60 629.25L219.00 629.78L217.74 629.86L214.84 629.68L213.47 629.00L210.80 627.67L208.02 626.30L201.83 623.23L196.72 620.69L193.48 619.31L187.72 616.96L181.69 617.32L179.93 617.42L178.16 617.53L175.44 617.20L172.85 617.15L171.35 616.51L170.07 616.30L168.78 616.09L166.48 615.86L159.74 622.94L155.41 628.76L153.76 631.50L152.35 632.47L150.73 633.27L146.81 635.10L141.08 636.59L131.16 636.75L129.71 636.64L126.09 636.38L121.82 636.07L120.43 635.96L111.85 639.83L109.81 642.62L108.03 645.61L105.62 652.78L102.41 659.36L99.22 665.74L101.11 668.03L105.02 672.74L106.07 674.01L107.20 675.38L108.33 676.75L109.47 678.11L110.69 679.59L111.86 681.01L113.04 682.43L114.08 683.68L118.69 689.25L122.44 693.78L125.20 697.10L126.99 699.27L127.81 700.26L133.10 703.70L133.96 704.25L136.94 705.33L139.43 706.26L143.21 707.67L147.72 709.35L150.23 710.14L153.00 710.92L154.62 711.29L156.55 711.74L161.09 712.62L164.54 713.28L166.32 713.64L168.01 714.40L171.77 716.08L174.82 717.44L177.22 718.52L178.78 719.19L181.13 720.20L184.13 721.49L188.25 723.34L193.46 725.68L196.35 726.98L199.02 728.18L201.12 728.79L202.33 729.14L204.71 730.85L205.98 730.20L207.30 729.44L208.44 728.50L210.43 727.08L212.03 726.01L213.02 725.30L216.72 727.76L257.98 755.28L262.58 758.40L300.64 784.02L308.47 789.28L332.70 805.80L349.81 817.11L352.10 818.80L353.70 820.28L360.98 826.98L365.56 831.20L369.34 834.68L383.27 847.51L392.90 856.38L398.82 861.83L402.90 865.53L405.17 867.58L408.10 870.16L410.76 872.50L413.67 876.18L417.26 880.80L419.56 883.76L424.51 890.30L425.55 890.01L432.43 888.06L436.33 886.96L440.09 886.10L443.58 885.60L444.53 885.62L447.91 885.35L451.28 884.69L456.90 883.47L462.45 881.87L466.58 880.60L468.25 880.06L469.92 879.51L470.71 878.49L472.67 875.98L473.34 874.76L474.09 873.39L474.22 870.62L474.10 865.87L475.51 860.32L477.40 858.72L479.82 859.16L483.65 860.02L484.92 860.30L487.30 861.08L489.79 861.78L494.48 863.02L499.70 864.42L502.19 865.24L506.30 866.61L507.77 867.10L508.79 867.24L509.75 867.37L510.90 867.53L512.68 867.78L513.74 867.93L515.55 868.23L518.95 867.59L520.26 867.35L521.55 867.12L522.52 866.59L523.52 866.04L524.46 865.30L526.47 863.71L526.70 857.73L526.87 853.32L526.09 850.29L524.86 845.54L519.43 837.49L517.77 834.95L516.00 827.85L514.93 823.53L516.68 816.50L517.64 812.64Z" data-ward="14" /><path id="ward-12" class="ward" d="M607.20 393.39L605.20 391.20L604.08 389.97L602.12 388.35L598.81 385.47L596.76 382.48L594.13 380.74L592.48 379.66L590.63 378.92L589.40 378.44L588.10 377.89L584.00 377.05L583.43 378.72L582.86 380.51L583.85 383.77L586.04 385.04L589.33 386.95L590.61 390.63L590.02 392.02L589.32 393.67L588.40 394.28L586.43 394.09L583.77 393.85L582.66 393.51L580.82 392.88L577.69 391.82L574.63 393.21L569.28 392.56L568.44 395.60L567.91 397.51L567.36 399.50L567.85 401.50L566.49 403.42L563.37 403.59L560.93 404.17L559.31 405.69L557.79 407.73L556.39 409.61L556.09 412.91L554.48 415.65L552.96 416.07L550.08 416.88L546.70 416.79L542.87 416.69L538.48 416.57L534.08 414.84L530.89 413.59L527.59 412.29L524.01 415.03L520.44 417.77L519.60 418.39L517.99 419.48L516.32 420.62L515.06 421.48L513.98 420.79L510.01 417.02L508.16 415.38L507.39 414.69L502.97 417.44L501.47 418.37L499.87 419.25L498.21 420.16L496.38 419.32L493.93 417.97L491.72 416.68L489.69 415.29L488.52 414.48L487.26 413.96L484.27 412.73L481.21 412.23L479.46 411.95L478.03 411.71L475.64 412.82L474.51 413.43L470.20 418.84L468.72 420.75L467.73 422.01L467.11 422.80L465.74 423.41L464.07 424.16L462.35 424.92L455.39 428.03L454.09 431.50L453.44 433.24L453.12 434.10L452.79 435.99L452.32 446.39L452.12 447.99L451.00 448.01L449.51 447.87L447.28 448.18L445.01 448.49L440.15 449.16L436.54 449.66L435.36 450.90L434.51 451.81L433.27 453.44L432.15 454.54L428.07 454.28L424.92 454.20L423.97 454.74L422.01 455.85L421.35 456.94L419.85 459.69L418.73 463.35L418.26 464.91L417.28 467.36L414.20 468.76L411.90 468.91L410.19 469.02L405.67 467.19L403.61 467.10L401.23 467.01L398.89 468.32L397.22 469.70L395.20 470.83L393.92 471.55L395.19 475.12L394.17 477.82L393.69 479.09L392.92 480.39L392.11 481.74L390.91 482.06L388.75 482.98L386.96 483.73L385.93 485.68L385.19 487.09L384.32 489.49L384.28 490.73L384.55 493.11L385.44 500.93L389.16 533.67L389.37 549.20L391.64 549.93L393.72 550.59L396.49 551.47L399.35 552.55L402.01 553.71L404.55 554.57L406.56 556.09L405.70 557.45L408.57 559.51L420.36 567.72L422.07 568.90L425.20 571.07L426.41 571.90L429.10 573.57L430.23 574.26L431.66 576.74L432.04 578.18L433.16 579.79L434.83 580.62L436.50 581.44L439.62 582.97L442.53 583.31L443.74 582.90L447.04 582.65L448.59 582.76L449.84 583.04L452.37 583.61L464.68 597.50L468.01 600.92L469.34 602.09L471.31 603.86L474.73 606.65L476.50 607.38L479.43 608.60L481.21 609.75L483.20 611.04L483.95 611.87L485.44 613.53L488.82 616.54L489.62 617.26L491.33 618.93L492.13 619.71L493.19 620.67L495.02 622.34L495.73 623.00L496.86 624.04L497.69 625.49L498.84 627.51L500.62 629.86L502.36 632.18L504.24 634.67L504.83 635.44L506.13 636.37L509.54 638.83L511.01 639.93L512.50 641.03L513.68 642.61L514.87 644.19L520.53 653.55L526.16 662.60L529.77 664.11L530.68 664.46L532.64 665.21L541.50 668.60L545.53 661.75L546.47 660.15L546.55 658.61L546.79 653.60L541.50 647.37L540.95 646.52L540.70 645.27L539.99 638.47L542.70 632.72L544.10 629.20L545.35 626.02L546.70 622.63L551.28 617.51L554.26 615.32L555.65 614.00L560.91 609.09L566.41 603.98L578.92 598.08L583.82 596.57L585.49 596.07L590.93 594.44L599.66 595.46L615.63 597.33L629.18 598.91L634.81 600.51L647.39 602.93L655.74 604.32L658.03 604.81L664.92 606.27L674.98 607.75L682.17 602.90L684.21 595.73L684.72 589.93L677.96 578.55L671.08 572.20L665.49 566.75L664.91 565.95L663.94 565.07L661.72 563.07L659.41 545.57L660.72 543.38L661.77 541.04L662.24 539.96L658.28 539.32L652.26 538.34L650.57 538.07L647.33 537.36L642.01 536.28L640.35 533.05L638.76 529.80L635.74 523.65L630.40 511.51L625.45 502.13L621.97 496.74L621.75 492.52L623.92 483.53L624.68 480.37L623.91 478.80L622.73 477.45L621.26 475.07L622.79 474.14L624.31 473.21L625.17 472.45L626.00 471.71L626.48 470.25L626.03 468.94L623.93 465.98L627.32 456.59L630.84 448.85L632.73 445.65L634.08 443.71L634.81 442.47L634.98 440.96L634.83 437.46L635.44 434.74L635.78 430.06L636.00 427.55L636.94 424.65L633.68 420.89L627.40 414.41L620.99 410.09L615.10 403.83L612.49 398.01L610.03 396.55L607.20 393.39Z" data-ward="12" /><path id="ward-11" class="ward" d="M621.80 318.54L601.50 318.08L599.33 315.99L597.88 315.02L598.72 318.66L599.60 320.05L600.48 321.45L603.99 326.43L605.78 328.97L605.54 336.52L602.80 346.27L602.60 347.52L602.40 348.78L607.01 372.20L608.08 377.34L608.87 381.64L607.37 386.88L607.46 389.83L610.03 396.55L612.49 398.01L615.10 403.83L620.99 410.09L627.40 414.41L633.68 420.89L636.94 424.65L636.00 427.55L635.78 430.06L635.44 434.74L634.83 437.46L634.98 440.96L634.81 442.47L634.08 443.71L632.73 445.65L630.84 448.85L627.32 456.59L623.93 465.98L626.03 468.94L626.48 470.25L626.00 471.71L625.17 472.45L624.31 473.21L622.79 474.14L621.26 475.07L622.73 477.45L623.91 478.80L624.68 480.37L623.92 483.53L621.75 492.52L621.97 496.74L625.45 502.13L630.40 511.51L635.74 523.65L638.76 529.80L640.35 533.05L642.01 536.28L647.33 537.36L650.57 538.07L652.26 538.34L658.28 539.32L662.24 539.96L662.85 538.68L664.27 535.94L665.48 533.59L666.99 530.68L673.10 523.03L675.65 519.85L679.31 514.94L680.04 513.90L680.80 512.82L682.29 510.70L683.24 509.44L684.99 506.22L689.78 497.72L692.29 493.26L693.47 491.16L694.28 488.97L695.16 486.59L696.24 483.68L696.76 482.32L697.74 479.80L698.34 478.25L698.82 477.03L699.54 474.58L702.00 464.49L702.75 461.13L702.95 456.60L703.14 452.59L703.24 450.41L703.83 448.60L705.53 443.71L706.38 441.26L707.45 438.93L710.11 434.70L710.81 433.69L711.51 432.68L713.72 431.05L719.54 430.32L725.09 431.33L736.44 433.40L738.86 426.87L740.16 424.77L740.27 421.94L739.62 418.92L739.41 417.94L739.18 413.65L738.06 410.07L737.76 408.80L737.45 407.54L740.90 403.58L744.08 401.88L745.98 401.04L747.17 401.18L750.04 401.09L752.81 400.45L754.56 397.31L755.82 395.01L759.20 393.28L761.63 391.48L762.23 390.60L762.87 388.83L764.99 387.19L765.40 385.99L765.95 384.21L766.75 381.93L767.29 380.41L768.76 374.53L770.14 367.56L765.74 363.00L762.20 359.29L767.35 357.13L762.25 355.92L748.45 352.81L741.68 351.20L734.03 349.97L730.70 350.43L727.38 350.88L723.57 351.32L722.53 350.09L721.49 348.86L719.85 346.14L716.85 344.98L713.35 343.56L710.71 344.41L709.60 344.62L706.63 345.47L703.48 346.35L702.09 347.11L701.38 347.84L698.08 351.61L694.69 354.16L690.75 355.94L686.60 356.35L685.25 356.59L683.11 356.98L679.78 358.04L675.60 358.07L673.55 357.04L671.99 356.38L661.60 348.45L653.49 342.17L650.88 340.55L649.05 339.41L643.35 337.49L641.66 336.95L639.62 336.30L638.68 335.76L631.39 332.34L629.75 331.57L623.93 328.83L623.44 326.73L622.94 324.58L621.80 318.54Z" data-ward="11" /><path id="ward-8" class="ward" d="M969.20 246.57L972.38 241.61L994.97 230.18L1000.00 227.64L996.95 223.32L993.77 218.81L996.03 203.19L989.88 191.86L987.91 184.78L976.57 181.09L974.51 165.18L973.00 159.09L970.81 156.60L962.31 150.79L955.73 149.07L947.13 144.31L937.95 143.65L931.25 140.37L925.02 135.51L920.82 130.40L919.61 121.84L915.24 112.73L914.89 116.32L914.42 121.22L914.07 123.51L913.82 125.90L912.41 134.74L912.18 136.17L912.03 137.10L912.40 140.39L912.96 144.69L913.55 149.27L913.86 150.61L914.37 152.78L914.81 154.49L914.15 157.66L913.74 159.62L913.42 161.15L914.19 164.01L914.93 166.68L915.64 169.32L916.79 171.49L917.55 172.94L918.07 173.78L922.25 176.52L926.25 178.58L927.25 180.15L927.88 181.28L926.68 184.55L925.90 187.95L925.31 190.88L924.49 194.91L927.19 195.98L928.89 197.38L929.46 200.49L930.74 201.24L932.36 202.19L934.95 202.60L936.86 204.29L938.28 204.53L942.07 205.21L943.75 207.93L944.26 210.82L941.21 220.95L940.82 222.24L940.43 223.53L938.63 227.30L937.52 227.60L934.67 228.48L932.96 229.01L932.43 229.87L931.39 231.54L932.58 231.90L933.63 232.07L934.69 232.23L937.30 232.29L941.19 232.61L943.93 233.06L944.47 236.38L944.29 238.43L943.85 240.23L941.09 243.05L935.52 246.52L930.91 247.96L929.91 248.70L928.59 249.66L924.42 252.84L921.86 255.14L920.08 257.36L917.78 259.68L914.35 261.45L913.07 261.94L911.80 262.44L910.24 263.04L908.53 263.29L906.39 263.42L905.09 262.71L903.32 261.75L902.16 260.45L901.15 260.22L897.42 259.51L895.86 259.12L894.58 259.01L893.46 258.75L891.97 259.11L890.36 260.25L888.45 261.46L886.62 262.76L882.33 265.48L879.91 267.32L877.12 268.34L875.25 268.91L873.62 269.29L872.44 269.58L871.30 269.85L869.08 270.38L867.86 270.67L865.46 271.24L864.17 271.47L863.22 271.64L861.93 271.87L860.63 272.11L859.60 272.29L857.27 272.71L856.04 272.63L854.76 272.49L853.55 272.26L852.46 271.89L851.03 271.06L849.81 270.64L848.59 270.48L847.02 270.58L844.83 270.83L842.63 270.89L839.57 270.89L836.97 270.79L834.71 270.98L831.42 271.28L829.47 271.87L828.16 272.41L827.22 272.96L825.99 273.69L825.01 275.13L824.03 276.40L817.48 284.32L815.22 286.62L812.96 288.92L811.16 290.21L808.34 292.15L807.06 293.03L799.94 297.17L798.44 297.60L797.93 299.36L797.55 301.93L797.27 303.84L796.94 304.98L796.05 308.07L795.63 309.55L794.27 314.30L793.37 317.42L792.70 319.74L790.78 323.30L790.91 324.59L791.73 326.64L794.16 326.23L796.06 325.90L797.24 325.34L799.03 324.51L802.79 322.86L805.02 321.85L807.31 320.81L808.84 320.41L810.38 320.01L811.31 319.89L812.91 321.24L814.44 324.90L815.90 327.48L817.37 329.22L819.11 332.53L822.32 334.18L827.60 334.05L828.59 333.81L831.37 333.54L832.79 333.41L834.43 332.52L835.82 331.77L838.03 330.41L839.14 329.94L840.17 330.64L841.24 331.36L842.45 332.19L847.00 333.32L849.65 333.62L850.80 333.78L851.96 333.93L853.73 333.99L860.21 333.86L863.67 333.79L863.93 335.66L864.81 337.23L865.64 338.24L866.61 340.26L868.46 344.13L870.84 348.57L872.34 351.39L873.66 354.99L875.02 358.54L876.97 363.04L878.41 366.26L879.67 368.76L881.66 373.02L882.26 374.28L884.48 380.46L887.43 376.54L887.90 375.62L892.11 372.85L894.59 371.22L896.31 370.89L898.13 370.69L903.29 370.12L904.45 369.99L915.58 373.56L922.42 376.91L924.92 378.13L927.54 379.42L933.72 379.32L936.35 379.50L939.51 378.94L944.64 372.42L945.43 371.41L948.44 367.62L951.90 363.51L953.68 361.64L956.82 358.71L958.43 357.21L959.70 356.22L962.80 353.81L966.23 351.14L968.91 349.05L969.95 348.24L971.74 346.89L976.20 344.23L979.40 343.17L981.82 340.19L984.36 337.06L985.85 331.33L986.39 330.13L986.60 329.35L989.25 319.57L990.41 314.73L991.81 308.86L986.03 300.77L982.80 296.24L979.49 291.61L973.81 288.95L973.79 288.94L973.04 288.59L972.14 288.14L971.07 287.65L970.02 287.06L968.74 286.30L968.26 286.03L962.53 282.17L961.92 280.69L959.97 275.94L959.26 267.79L960.10 264.89L961.97 258.38L963.34 255.68L969.20 246.57Z" data-ward="8" /><path id="ward-9" class="ward" d="M824.03 276.40L822.83 276.07L821.54 275.72L819.98 275.15L816.67 273.89L814.56 273.09L811.95 274.34L809.94 273.65L808.56 272.45L807.74 271.77L804.63 269.19L800.73 263.87L798.93 259.48L798.34 258.47L797.82 257.58L791.77 250.96L789.27 248.23L785.75 244.67L777.83 236.69L773.52 231.93L755.93 229.26L753.79 228.92L749.03 228.19L746.78 224.63L741.81 224.86L740.33 227.32L738.96 228.52L737.38 229.91L735.40 231.06L733.74 231.21L732.08 231.37L730.21 230.88L728.06 230.31L726.23 229.82L724.09 231.31L723.13 232.32L722.34 235.24L721.58 238.02L718.64 243.53L717.46 245.79L717.14 246.76L716.34 248.88L714.67 249.20L712.92 249.33L710.95 248.92L708.70 247.72L706.49 249.12L705.30 249.51L704.35 249.72L702.11 250.34L697.21 251.08L693.95 251.40L690.98 251.59L690.46 254.16L689.97 258.62L690.16 260.16L690.41 262.12L690.66 264.07L691.08 267.34L690.79 269.12L689.42 271.98L687.91 271.98L684.07 272.24L678.42 268.96L674.84 268.93L673.06 268.96L671.37 268.99L670.23 270.00L668.80 272.60L668.68 273.56L669.26 281.01L665.48 281.22L664.40 281.36L663.46 283.87L663.25 285.42L659.93 286.67L656.27 288.05L648.55 293.78L643.77 298.03L640.84 300.42L636.82 304.41L635.93 307.08L632.96 315.60L629.99 316.39L623.44 318.55L621.80 318.54L622.94 324.58L623.44 326.73L623.93 328.83L629.75 331.57L631.39 332.34L638.68 335.76L639.62 336.30L641.66 336.95L643.35 337.49L649.05 339.41L650.88 340.55L653.49 342.17L661.60 348.45L671.99 356.38L673.55 357.04L675.60 358.07L679.78 358.04L683.11 356.98L685.25 356.59L686.60 356.35L690.75 355.94L694.69 354.16L698.08 351.61L701.38 347.84L702.09 347.11L703.48 346.35L706.63 345.47L709.60 344.62L710.71 344.41L713.35 343.56L714.84 338.46L715.78 335.44L718.01 336.36L720.24 336.57L723.19 335.60L723.85 334.65L724.19 332.63L722.83 331.35L721.07 330.60L719.90 330.08L718.73 329.55L716.64 328.15L712.62 325.46L712.17 323.91L711.72 322.36L711.41 320.31L712.87 318.95L713.68 318.26L715.50 318.28L717.76 318.23L722.14 318.69L726.76 319.09L729.99 319.16L731.90 319.20L733.49 319.25L734.67 319.88L736.55 321.11L738.15 322.56L740.39 324.60L742.87 326.84L749.37 326.31L751.07 325.96L754.79 326.13L764.10 335.86L765.99 337.43L767.81 336.28L768.93 335.63L774.91 333.87L782.81 334.90L784.28 341.65L785.57 348.58L787.95 348.16L791.95 347.63L798.56 346.41L799.92 350.60L800.38 351.86L802.58 357.86L805.58 365.61L806.15 367.09L806.67 368.83L807.63 372.02L808.44 374.10L809.44 376.68L810.90 380.13L811.80 382.25L812.40 384.11L812.61 389.22L812.57 390.43L812.44 394.53L812.01 396.83L811.88 398.11L811.60 399.28L809.73 403.79L807.51 409.83L810.47 412.96L813.85 416.53L816.39 419.22L821.31 419.49L826.81 417.28L827.94 416.82L828.74 416.50L830.53 416.60L835.44 416.88L836.25 417.93L837.98 420.23L841.33 424.68L843.33 425.29L844.99 425.09L847.72 426.34L849.09 427.06L849.81 427.65L851.61 429.41L855.44 433.15L856.61 430.69L859.50 425.15L860.53 423.48L863.58 418.48L864.61 416.90L867.06 413.10L869.87 408.74L871.97 405.48L873.65 402.78L876.06 398.90L877.37 396.53L881.03 389.09L883.52 383.88L884.14 381.65L884.48 380.46L882.26 374.28L881.66 373.02L879.67 368.76L878.41 366.26L876.97 363.04L875.02 358.54L873.66 354.99L872.34 351.39L870.84 348.57L868.46 344.13L866.61 340.26L865.64 338.24L864.81 337.23L863.93 335.66L863.67 333.79L860.21 333.86L853.73 333.99L851.96 333.93L850.80 333.78L849.65 333.62L847.00 333.32L842.45 332.19L841.24 331.36L840.17 330.64L839.14 329.94L838.03 330.41L835.82 331.77L834.43 332.52L832.79 333.41L831.37 333.54L828.59 333.81L827.60 334.05L822.32 334.18L819.11 332.53L817.37 329.22L815.90 327.48L814.44 324.90L812.91 321.24L811.31 319.89L810.38 320.01L808.84 320.41L807.31 320.81L805.02 321.85L802.79 322.86L799.03 324.51L797.24 325.34L796.06 325.90L794.16 326.23L791.73 326.64L790.91 324.59L790.78 323.30L792.70 319.74L793.37 317.42L794.27 314.30L795.63 309.55L796.05 308.07L796.94 304.98L797.27 303.84L797.55 301.93L797.93 299.36L798.44 297.60L799.94 297.17L807.06 293.03L808.34 292.15L811.16 290.21L812.96 288.92L815.22 286.62L817.48 284.32L824.03 276.40Z" data-ward="9" /><path id="ward-15" class="ward" d="M248.18 581.50L245.42 582.05L242.73 582.20L241.31 582.27L238.59 581.59L235.72 581.26L234.63 581.32L231.62 581.48L230.55 581.54L222.28 581.98L220.78 581.93L218.12 581.91L216.28 581.80L214.67 581.50L212.79 581.41L209.44 579.58L207.80 579.11L206.43 578.72L205.21 578.49L203.81 578.48L201.55 578.48L201.14 581.27L200.74 584.07L200.54 587.80L199.83 590.43L199.54 591.49L197.96 596.22L196.80 598.86L196.06 600.32L194.06 600.69L188.00 600.90L181.47 600.98L174.64 601.86L167.71 603.40L157.31 603.26L143.67 603.27L142.51 603.23L141.35 603.18L132.18 602.74L123.16 602.30L115.58 602.61L111.67 602.66L107.76 602.71L97.03 602.45L94.30 603.32L82.99 606.89L64.46 611.30L57.57 614.06L53.10 615.85L47.21 619.02L43.44 621.05L42.10 622.10L37.95 626.36L47.63 640.41L48.73 642.01L51.26 643.71L56.58 647.40L59.84 646.64L60.56 644.96L68.91 647.44L87.87 653.07L89.91 655.68L93.40 658.82L99.22 665.74L102.41 659.36L105.62 652.78L108.03 645.61L109.81 642.62L111.85 639.83L120.43 635.96L121.82 636.07L126.09 636.38L129.71 636.64L131.16 636.75L141.08 636.59L146.81 635.10L150.73 633.27L152.35 632.47L153.76 631.50L155.41 628.76L159.74 622.94L166.48 615.86L168.78 616.09L170.07 616.30L171.35 616.51L172.85 617.15L175.44 617.20L178.16 617.53L179.93 617.42L181.69 617.32L187.72 616.96L193.48 619.31L196.72 620.69L201.83 623.23L208.02 626.30L210.80 627.67L213.47 629.00L214.84 629.68L217.74 629.86L219.00 629.78L220.60 629.25L225.12 627.77L236.00 624.20L246.27 621.45L248.88 620.34L250.43 619.61L251.42 619.12L251.96 616.25L252.41 614.97L253.07 613.06L253.88 610.93L254.94 607.89L255.41 605.05L255.64 603.63L255.52 601.60L255.27 598.97L255.09 597.06L257.19 597.07L258.44 597.07L263.86 598.34L268.81 598.74L271.80 598.36L273.16 597.47L274.41 596.29L277.42 592.80L278.92 590.80L279.98 588.23L287.88 585.75L290.33 586.25L292.80 587.18L295.84 588.46L298.16 589.43L301.72 590.74L305.56 592.05L310.76 594.13L312.98 595.02L330.06 601.38L351.61 603.67L356.96 603.40L355.35 601.82L351.45 599.11L350.19 598.24L345.94 597.05L343.61 596.10L342.09 595.48L338.67 594.57L336.94 594.11L335.09 592.66L331.93 590.19L329.29 588.11L326.22 585.70L322.76 582.41L322.26 581.09L322.27 579.18L322.74 577.43L323.58 575.03L324.43 572.92L325.43 570.39L325.18 569.11L324.30 564.96L323.70 563.02L323.26 561.86L322.65 560.29L322.18 558.23L321.44 555.98L320.70 554.52L319.96 553.06L318.64 551.27L317.36 549.61L315.14 547.33L313.39 546.25L312.44 545.50L311.50 544.46L310.85 543.74L310.12 542.94L309.30 541.94L304.07 535.54L302.88 533.46L302.01 531.93L301.49 530.91L300.62 529.18L299.49 526.99L297.25 525.81L293.66 523.96L292.13 521.80L290.52 519.52L289.84 518.56L289.07 517.47L288.08 515.79L287.31 514.49L285.16 510.88L281.95 512.83L280.71 513.58L277.57 515.49L272.97 517.12L271.64 517.57L269.86 518.14L267.70 518.63L266.10 518.99L259.42 520.25L257.95 520.12L253.33 519.72L249.53 519.39L246.61 518.75L248.89 522.55L251.29 523.86L252.63 525.31L253.72 526.49L254.41 527.19L255.06 527.84L256.48 528.26L259.81 528.48L261.69 528.97L262.00 530.01L262.33 531.12L262.57 533.61L262.93 535.16L263.23 536.11L263.74 537.73L265.02 542.69L264.59 544.48L264.90 547.04L265.13 548.89L264.86 550.49L264.59 552.07L264.03 553.11L263.51 554.06L262.93 555.43L262.38 556.72L261.90 557.85L260.10 556.96L258.94 556.35L258.04 555.82L257.44 556.66L256.30 559.50L255.76 560.86L247.66 576.65L248.18 581.50Z" data-ward="15" /><path id="ward-3" class="ward" d="M347.39 429.10L350.43 431.87L353.08 434.72L358.09 438.17L360.24 441.22L361.42 446.35L361.11 450.25L360.72 452.18L360.10 455.28L359.49 456.23L357.88 458.67L357.13 462.07L358.24 464.24L360.66 467.48L362.34 469.26L361.88 471.88L361.67 472.93L361.44 475.30L361.21 477.68L370.34 476.06L372.08 476.17L380.60 474.40L385.62 473.60L389.00 472.67L391.13 472.09L392.85 471.74L393.92 471.55L395.20 470.83L397.22 469.70L398.89 468.32L401.23 467.01L403.61 467.10L405.67 467.19L410.19 469.02L411.90 468.91L414.20 468.76L417.28 467.36L418.26 464.91L418.73 463.35L419.85 459.69L421.35 456.94L422.01 455.85L423.97 454.74L424.92 454.20L428.07 454.28L432.15 454.54L433.27 453.44L434.51 451.81L435.36 450.90L436.54 449.66L440.15 449.16L445.01 448.49L447.28 448.18L449.51 447.87L451.00 448.01L452.12 447.99L452.32 446.39L452.79 435.99L451.83 433.31L451.38 431.90L450.55 429.56L450.08 428.22L447.45 421.05L446.29 416.20L445.74 413.92L445.40 412.33L443.74 409.56L441.14 405.24L438.76 401.04L438.47 400.05L437.86 397.81L437.49 396.23L437.50 394.76L437.52 392.30L438.10 387.55L436.64 382.01L433.00 381.06L429.45 379.98L426.33 379.02L419.12 375.93L418.84 377.54L417.71 384.03L416.58 390.51L414.85 396.62L413.15 402.63L403.76 393.72L402.42 391.92L401.10 390.16L399.91 388.37L398.72 386.59L398.27 385.54L395.69 379.38L392.77 371.06L391.98 368.35L391.66 367.24L390.74 366.62L389.35 365.46L385.66 362.36L383.34 360.91L380.48 359.13L376.51 356.43L374.01 354.72L372.86 353.90L368.63 350.62L364.50 347.58L361.12 345.09L358.69 341.88L357.09 339.99L354.74 334.69L353.71 332.38L352.89 328.98L351.80 325.73L348.86 319.30L347.31 316.59L345.90 314.15L345.25 313.00L343.99 310.81L343.12 309.10L342.67 308.22L341.79 306.48L340.93 304.79L339.93 302.83L338.93 300.86L336.61 300.32L335.39 300.04L334.12 299.73L332.10 299.29L330.47 298.95L327.77 298.39L325.68 298.02L323.59 297.64L322.04 297.51L320.18 297.60L317.77 297.73L316.88 297.46L314.92 296.86L311.94 295.96L310.59 295.56L309.08 295.09L307.89 294.75L303.62 293.50L300.47 292.87L297.17 292.21L295.87 291.95L293.94 291.49L292.91 291.28L290.31 290.74L287.80 290.22L284.93 289.59L283.75 289.33L281.33 288.80L279.85 288.51L278.78 288.29L277.14 287.30L276.97 289.20L276.74 295.71L276.30 299.90L275.63 302.58L274.05 305.53L273.01 308.18L271.98 310.84L275.01 312.02L274.78 313.18L274.26 314.41L272.34 316.81L270.99 320.08L273.39 321.46L275.81 325.76L273.64 328.81L274.99 330.32L276.33 331.83L279.17 332.25L282.83 332.79L285.69 333.23L289.37 336.19L291.07 337.21L292.77 338.23L293.97 338.63L300.22 341.49L300.84 342.23L302.21 342.96L303.57 343.68L304.90 343.83L308.48 346.35L310.20 349.44L309.48 352.71L309.78 356.22L310.46 357.75L312.60 362.31L313.17 363.45L313.74 364.59L317.44 369.20L318.08 381.86L318.68 383.42L319.54 385.68L319.63 387.04L320.31 388.12L321.93 388.93L321.51 391.00L319.73 392.73L318.72 393.61L317.71 394.49L317.16 396.09L316.60 397.69L319.28 401.21L320.24 402.09L321.77 404.49L322.72 405.83L326.24 410.79L326.83 411.62L330.21 415.68L330.95 416.57L333.99 419.88L334.81 420.77L336.90 421.58L339.95 422.75L341.22 423.24L342.89 423.43L345.07 425.35L347.39 429.10Z" data-ward="3" /><path id="ward-16" class="ward" d="M74.49 452.28L69.71 449.26L61.95 436.44L43.77 412.49L41.74 415.65L40.46 417.62L39.60 419.28L37.66 423.00L36.39 425.70L32.41 433.13L31.82 434.18L28.25 440.50L27.37 441.89L27.21 444.03L26.38 455.38L25.12 455.38L26.03 456.79L27.64 459.26L28.42 460.50L30.79 464.24L33.96 469.34L36.46 473.36L37.02 474.30L38.72 477.16L40.54 480.27L41.09 481.21L44.43 486.85L46.43 490.38L47.44 492.15L52.13 500.40L53.70 503.16L56.84 508.67L58.63 511.74L59.49 513.21L60.44 515.16L62.15 518.02L62.26 522.80L56.20 523.17L53.80 523.31L52.02 523.37L48.67 523.61L45.62 523.83L44.01 523.91L38.87 524.23L34.24 524.39L32.63 524.41L30.31 524.45L27.38 524.54L22.42 528.08L19.00 531.88L17.30 535.51L15.55 539.25L13.58 543.67L11.90 547.45L10.54 550.47L8.79 554.37L8.12 555.87L7.30 557.50L6.37 559.51L5.78 560.80L5.37 561.69L3.53 565.66L1.12 569.46L0.00 571.22L20.51 601.01L28.93 613.25L37.95 626.36L42.10 622.10L43.44 621.05L47.21 619.02L53.10 615.85L57.57 614.06L64.46 611.30L82.99 606.89L94.30 603.32L97.03 602.45L107.76 602.71L111.67 602.66L115.58 602.61L123.16 602.30L132.18 602.74L141.35 603.18L142.51 603.23L143.67 603.27L157.31 603.26L167.71 603.40L174.64 601.86L181.47 600.98L188.00 600.90L194.06 600.69L196.06 600.32L196.80 598.86L197.96 596.22L199.54 591.49L199.83 590.43L200.54 587.80L200.74 584.07L201.14 581.27L201.55 578.48L203.81 578.48L205.21 578.49L206.43 578.72L207.80 579.11L209.44 579.58L212.79 581.41L214.67 581.50L216.28 581.80L218.12 581.91L220.78 581.93L222.28 581.98L230.55 581.54L231.62 581.48L234.63 581.32L235.72 581.26L238.59 581.59L241.31 582.27L242.73 582.20L245.42 582.05L248.18 581.50L247.66 576.65L255.76 560.86L256.30 559.50L257.44 556.66L258.04 555.82L258.94 556.35L260.10 556.96L261.90 557.85L262.38 556.72L262.93 555.43L263.51 554.06L264.03 553.11L264.59 552.07L264.86 550.49L265.13 548.89L264.90 547.04L264.59 544.48L265.02 542.69L263.74 537.73L263.23 536.11L262.93 535.16L262.57 533.61L262.33 531.12L262.00 530.01L261.69 528.97L259.81 528.48L256.48 528.26L255.06 527.84L254.41 527.19L253.72 526.49L252.63 525.31L251.29 523.86L248.89 522.55L246.61 518.75L243.05 518.17L241.99 518.00L239.99 516.73L238.37 515.70L235.97 513.09L232.93 509.14L231.07 507.66L229.97 506.78L226.09 505.96L223.24 505.90L221.91 505.52L218.99 503.45L216.97 501.06L215.89 499.79L213.40 499.77L211.76 500.70L210.84 501.06L209.03 501.93L206.96 501.40L205.41 501.00L201.78 499.85L198.51 497.40L192.25 492.59L186.75 488.36L184.79 486.86L183.57 485.57L182.52 484.15L181.01 481.98L178.23 477.38L176.04 471.89L173.63 465.67L172.39 462.46L171.00 459.59L170.53 458.76L168.03 455.73L165.21 452.33L164.05 451.85L163.19 451.50L161.38 450.75L156.64 448.83L152.73 448.89L148.35 449.17L146.46 449.28L144.94 449.38L137.27 452.47L133.76 453.28L128.18 454.58L125.04 455.21L115.43 457.15L113.18 457.40L111.65 457.58L109.11 457.87L106.44 457.84L102.20 458.09L97.83 458.53L87.20 459.61L74.49 452.28Z" data-ward="16" /><path id="ward-7" class="ward" d="M896.43 42.14L895.13 20.23L894.58 15.30L894.37 12.91L894.25 11.54L893.67 10.13L892.03 6.60L891.14 4.90L889.74 2.98L887.04 1.08L885.87 0.17L884.84 0.03L882.05 0.00L880.61 0.30L879.25 0.88L873.61 3.63L859.00 11.38L845.64 17.24L831.48 23.97L816.99 30.60L807.06 35.71L805.81 37.65L801.74 44.01L799.98 43.95L799.08 44.40L797.81 45.03L796.17 45.86L793.27 47.85L790.02 50.09L787.30 51.97L784.73 53.74L782.76 54.93L781.22 55.85L779.59 56.67L778.76 57.08L771.23 56.02L768.87 55.69L762.95 55.76L756.94 55.82L755.60 55.91L752.98 56.84L746.02 59.56L742.85 60.12L740.86 60.46L739.73 60.66L729.97 64.54L729.23 63.79L728.49 63.04L727.82 62.37L724.75 61.99L720.77 63.15L719.22 63.50L718.19 63.29L717.95 67.16L717.78 68.93L717.69 69.87L715.71 72.43L714.06 75.30L713.53 76.21L711.79 79.61L710.18 82.76L708.16 86.80L706.53 89.91L705.77 91.35L704.43 92.78L702.78 94.56L701.95 95.33L699.34 97.90L697.16 100.11L695.01 102.28L693.21 104.09L690.46 104.28L685.48 104.63L683.29 103.37L679.35 101.10L676.23 99.15L674.23 97.75L670.75 95.32L668.08 93.74L666.60 92.87L665.99 91.92L664.02 90.25L662.53 89.86L660.78 89.40L659.19 88.98L658.26 88.74L657.28 88.39L655.54 88.27L654.42 88.68L653.30 89.08L653.18 90.09L653.04 91.26L654.13 92.86L655.34 94.66L655.89 95.46L656.60 96.47L657.30 97.45L658.01 98.46L660.19 101.05L660.93 102.10L664.41 106.09L667.15 109.22L668.00 110.46L670.47 113.87L672.53 116.73L673.11 117.70L675.64 121.33L677.44 123.92L678.27 126.08L679.64 129.70L681.17 133.93L681.52 134.93L682.31 137.77L682.70 138.94L682.80 140.34L682.25 144.67L681.03 146.66L677.72 152.06L676.54 153.99L678.60 154.39L680.16 154.69L683.39 156.29L684.96 157.08L685.91 157.54L687.93 158.56L689.84 158.86L694.06 158.45L696.03 158.32L697.89 158.54L702.83 159.34L707.45 160.03L710.58 160.42L714.09 160.85L717.83 161.27L718.80 161.45L717.36 164.30L714.86 168.01L713.25 168.88L708.22 171.56L706.05 172.72L704.61 173.45L702.81 173.68L698.88 175.36L696.47 176.39L693.71 179.67L694.05 182.85L694.40 185.00L695.14 186.16L695.87 187.23L697.73 189.98L699.65 193.14L702.00 196.93L703.14 197.29L704.19 197.62L706.57 198.38L709.22 199.16L710.24 202.11L710.76 203.55L711.29 204.98L712.13 206.12L713.26 207.45L714.08 208.44L705.40 208.42L703.83 210.49L702.77 211.93L702.01 212.89L700.36 213.89L699.12 214.65L697.76 215.50L699.73 220.01L701.86 224.55L703.38 223.47L704.75 222.49L705.85 221.67L708.91 219.38L717.31 224.81L721.60 227.59L722.45 228.14L724.19 229.22L726.23 229.82L728.06 230.31L730.21 230.88L732.08 231.37L733.74 231.21L735.40 231.06L737.38 229.91L738.96 228.52L740.33 227.32L741.81 224.86L746.78 224.63L749.03 228.19L753.79 228.92L755.93 229.26L773.52 231.93L777.83 236.69L785.75 244.67L789.27 248.23L791.77 250.96L797.82 257.58L798.34 258.47L798.93 259.48L800.73 263.87L804.63 269.19L807.74 271.77L808.56 272.45L809.94 273.65L811.95 274.34L814.56 273.09L816.67 273.89L819.98 275.15L821.54 275.72L822.83 276.07L824.03 276.40L825.01 275.13L825.99 273.69L827.22 272.96L828.16 272.41L829.47 271.87L831.42 271.28L834.71 270.98L836.97 270.79L839.57 270.89L842.63 270.89L844.83 270.83L847.02 270.58L848.59 270.48L849.81 270.64L851.03 271.06L852.46 271.89L853.55 272.26L854.76 272.49L856.04 272.63L857.27 272.71L859.60 272.29L860.63 272.11L861.93 271.87L863.22 271.64L864.17 271.47L865.46 271.24L867.86 270.67L869.08 270.38L871.30 269.85L872.44 269.58L873.62 269.29L875.25 268.91L877.12 268.34L879.91 267.32L882.33 265.48L886.62 262.76L888.45 261.46L890.36 260.25L891.97 259.11L893.46 258.75L894.58 259.01L895.86 259.12L897.42 259.51L901.15 260.22L902.16 260.45L903.32 261.75L905.09 262.71L906.39 263.42L908.53 263.29L910.24 263.04L911.80 262.44L913.07 261.94L914.35 261.45L917.78 259.68L920.08 257.36L921.86 255.14L924.42 252.84L928.59 249.66L929.91 248.70L930.91 247.96L935.52 246.52L941.09 243.05L943.85 240.23L944.29 238.43L944.47 236.38L943.93 233.06L941.19 232.61L937.30 232.29L934.69 232.23L933.63 232.07L932.58 231.90L931.39 231.54L932.43 229.87L932.96 229.01L934.67 228.48L937.52 227.60L938.63 227.30L940.43 223.53L940.82 222.24L941.21 220.95L944.26 210.82L943.75 207.93L942.07 205.21L938.28 204.53L936.86 204.29L934.95 202.60L932.36 202.19L930.74 201.24L929.46 200.49L928.89 197.38L927.19 195.98L924.49 194.91L925.31 190.88L925.90 187.95L926.68 184.55L927.88 181.28L927.25 180.15L926.25 178.58L922.25 176.52L918.07 173.78L917.55 172.94L916.79 171.49L915.64 169.32L914.93 166.68L914.19 164.01L913.42 161.15L913.74 159.62L914.15 157.66L914.81 154.49L914.37 152.78L913.86 150.61L913.55 149.27L912.96 144.69L912.40 140.39L912.03 137.10L912.18 136.17L912.41 134.74L913.82 125.90L914.07 123.51L914.42 121.22L914.89 116.32L915.24 112.73L915.72 107.76L915.76 97.10L915.53 87.02L912.66 78.85L908.13 70.96L901.41 61.25L897.58 55.76L896.43 42.14Z" data-ward="7" /></svg>