<svg viewBox="0 0 1000.00 1872.77" xmlns="http://www.w3.org/2000/svg"><style>.ward { fill: #e2e8f0; stroke: #fff; stroke-width: 0.5px; } .ward:hover { fill: #cbd5e1; }</style><path id="ward-7" class="ward" d="M859.26 445.10L852.01 442.11L848.75 439.93L848.63 434.56L850.60 430.71L854.51 425.94L862.10 422.34L862.73 417.56L857.35 399.91L853.34 384.06L848.82 378.90L845.81 370.14L844.21 360.57L842.19 354.76L840.42 345.59L824.35 342.46L816.24 340.58L808.34 341.58L804.65 341.94L802.38 342.05L797.24 342.25L781.84 341.27L770.70 340.79L756.88 339.85L755.28 342.04L755.64 344.60L754.78 349.48L753.96 354.71L753.14 360.35L751.96 364.10L750.87 367.70L750.01 373.78L748.53 383.97L748.02 387.40L747.74 390.92L747.86 393.20L744.62 396.52L742.86 398.11L742.35 401.27L738.76 402.23L732.35 402.99L730.12 403.23L725.36 403.55L722.58 403.75L718.33 404.95L712.62 405.75L709.54 406.47L709.34 411.30L709.73 414.18L709.73 416.70L710.43 420.21L710.98 423.85L710.24 430.15L706.61 430.71L708.85 433.04L709.64 440.44L710.07 444.08L710.94 449.01L711.71 452.40L710.16 455.67L709.95 461.74L710.20 464.71L710.77 472.11L710.66 475.76L710.98 481.41L711.09 485.31L711.18 488.37L714.46 489.54L720.19 488.61L722.04 490.71L722.44 493.97L722.80 496.97L724.49 500.81L722.44 503.80L722.59 506.23L722.79 509.32L722.92 512.53L721.53 514.32L720.59 517.39L721.58 522.80L718.70 524.08L713.36 524.88L711.04 528.24L711.37 530.65L713.02 533.25L713.98 535.65L714.39 538.18L714.80 540.76L715.48 545.14L715.85 547.51L718.13 549.65L720.35 550.10L724.30 548.84L726.85 548.15L731.85 547.54L734.49 547.34L737.70 547.10L740.44 549.66L742.76 552.12L747.42 552.69L750.76 552.94L753.97 555.43L753.84 558.59L753.74 560.95L753.70 564.80L749.51 566.94L749.86 571.22L750.01 573.67L750.45 578.53L750.51 580.75L752.72 583.32L754.76 587.07L754.84 591.68L755.02 596.62L757.03 599.77L757.43 602.28L757.54 604.60L757.70 609.11L757.78 612.25L757.86 615.41L758.70 618.67L761.29 620.01L762.35 624.19L762.21 627.32L762.03 633.48L762.04 641.97L761.51 644.71L759.66 646.61L758.03 652.31L755.40 653.84L752.98 656.00L751.46 663.35L751.97 668.49L752.06 671.64L751.53 676.78L751.06 680.29L750.99 682.77L751.13 687.72L751.09 690.21L755.78 697.28L760.56 699.04L762.74 699.49L766.89 700.08L770.74 699.86L776.25 697.92L780.06 697.14L785.81 695.68L853.89 686.50L859.62 687.21L866.03 688.36L870.79 689.47L874.30 690.30L877.19 691.80L881.32 693.97L884.87 693.02L889.23 692.13L893.86 691.16L901.16 690.60L903.87 691.50L907.51 692.83L911.14 694.15L917.80 694.31L924.54 693.98L931.28 693.65L939.68 693.19L938.11 675.05L937.70 667.88L938.35 652.20L938.87 636.07L939.55 626.72L935.66 623.32L932.86 616.11L925.37 604.57L921.81 603.86L918.83 605.11L913.59 608.96L908.72 614.74L900.75 622.40L897.52 623.28L886.29 619.49L884.16 617.10L884.25 612.86L885.80 610.56L885.60 605.07L882.75 603.52L877.63 603.47L871.81 602.08L870.68 598.47L871.57 595.16L873.96 590.85L879.62 587.08L881.22 585.11L881.78 574.22L873.09 548.05L870.21 539.63L866.94 507.14L862.88 501.85L861.21 497.70L864.80 473.35L866.90 469.96L870.51 467.20L870.98 462.72L867.88 456.97L859.26 445.10Z" data-ward="7" /><path id="ward-20" class="ward" d="M525.73 978.10L525.43 975.76L525.16 970.83L524.90 967.66L525.52 963.97L525.91 961.66L524.62 957.26L522.29 956.16L519.46 956.06L516.69 955.91L514.08 953.32L512.64 950.27L511.30 947.04L510.99 944.27L510.48 941.00L510.41 937.85L510.02 934.09L508.88 931.45L508.61 929.05L508.14 926.66L500.23 926.22L497.84 925.71L495.55 925.23L491.41 924.74L486.21 918.06L483.92 918.32L479.76 918.87L476.48 919.30L472.41 919.99L468.01 920.99L460.42 923.62L457.69 927.10L452.80 931.32L447.51 933.42L445.25 934.23L442.38 935.21L439.49 935.53L436.35 936.01L434.26 937.87L432.06 941.19L429.93 944.27L427.79 947.35L425.60 950.48L423.41 953.62L420.26 957.82L417.66 962.64L416.04 966.08L412.51 973.29L408.98 980.49L406.71 985.30L405.02 988.82L402.28 994.38L401.02 997.50L400.42 1001.72L399.38 1006.90L398.71 1010.29L397.22 1013.59L395.73 1016.88L392.99 1020.83L389.31 1024.50L385.21 1028.59L383.60 1030.04L380.66 1032.55L378.64 1034.36L376.64 1036.16L374.26 1038.18L371.87 1040.19L368.74 1042.35L364.78 1045.12L361.23 1047.61L358.44 1049.31L351.20 1052.65L346.72 1054.49L344.64 1055.34L341.87 1056.29L338.86 1057.25L331.74 1059.04L328.24 1059.62L321.47 1060.32L312.29 1061.04L303.19 1062.47L299.37 1063.22L295.55 1063.96L285.92 1066.28L287.52 1070.99L289.01 1075.12L289.76 1077.17L291.16 1081.67L292.55 1086.17L293.71 1089.92L294.60 1092.83L296.50 1099.01L299.67 1107.64L300.61 1110.19L302.39 1114.16L303.84 1117.36L304.70 1119.37L305.57 1121.38L306.58 1123.95L307.57 1126.50L308.31 1129.10L308.67 1131.29L309.37 1135.53L309.80 1138.05L310.48 1142.83L311.21 1147.08L312.36 1151.48L313.70 1158.17L316.55 1174.76L317.15 1178.52L317.65 1181.71L320.86 1186.82L322.52 1189.48L324.17 1192.15L325.76 1194.47L329.18 1199.89L331.16 1202.42L337.45 1209.53L342.34 1214.05L348.35 1219.96L350.89 1223.36L349.72 1227.11L346.75 1229.35L342.18 1231.63L336.24 1233.59L330.26 1235.19L324.05 1236.03L317.37 1236.54L306.98 1237.54L296.94 1238.90L291.08 1239.54L282.41 1243.22L264.90 1246.25L251.07 1247.01L234.74 1250.17L200.17 1254.85L180.98 1256.60L161.41 1263.54L160.30 1261.19L155.98 1265.28L142.20 1271.35L96.28 1299.41L68.31 1315.79L55.43 1326.16L56.54 1327.48L61.48 1333.32L100.02 1378.88L148.06 1433.80L148.48 1430.03L148.84 1426.71L151.54 1419.14L153.31 1414.19L157.75 1410.22L161.75 1406.65L163.29 1405.28L168.67 1400.47L177.91 1389.40L185.50 1382.45L198.13 1375.32L199.54 1374.52L202.18 1373.03L204.28 1371.84L207.54 1370.00L214.76 1366.42L219.34 1367.47L224.67 1368.69L226.72 1372.40L219.06 1377.15L205.89 1378.80L207.57 1382.74L213.92 1386.52L219.06 1389.59L222.59 1391.05L227.58 1393.11L230.18 1394.19L235.52 1396.39L237.53 1397.21L243.95 1399.79L249.59 1404.57L254.11 1407.48L257.74 1406.77L260.06 1406.32L268.17 1408.23L272.78 1408.38L275.22 1408.46L278.12 1409.73L281.31 1408.31L284.10 1409.58L285.45 1412.07L288.62 1418.16L286.90 1422.42L289.95 1427.88L291.90 1431.37L294.62 1434.44L294.24 1438.23L308.62 1441.04L313.86 1440.94L318.04 1440.87L320.96 1440.81L327.17 1441.38L330.11 1441.65L337.38 1442.31L338.31 1417.71L339.52 1400.59L340.07 1392.74L340.32 1389.43L340.81 1383.03L344.54 1379.40L355.22 1368.99L358.02 1366.27L360.94 1363.16L367.09 1356.91L373.14 1350.66L379.61 1344.04L389.42 1333.91L396.83 1326.31L405.58 1317.28L413.84 1308.94L416.63 1305.85L417.59 1299.28L418.09 1295.71L418.51 1292.16L418.91 1288.46L419.46 1285.00L419.98 1282.49L420.36 1280.00L420.34 1276.99L420.27 1274.62L419.59 1271.31L419.14 1269.12L418.55 1266.17L417.88 1263.83L417.25 1260.74L411.20 1253.96L408.41 1251.50L403.47 1247.12L396.92 1241.69L394.66 1239.07L390.48 1240.08L385.96 1239.75L381.90 1236.50L377.28 1232.18L374.53 1226.40L371.69 1222.38L368.93 1217.97L368.16 1215.87L367.57 1211.41L367.42 1205.38L360.33 1196.50L354.40 1193.20L352.02 1191.87L349.64 1189.51L345.69 1184.80L340.10 1173.63L337.12 1163.26L336.88 1159.56L337.32 1155.81L339.67 1153.07L343.48 1148.62L346.03 1145.29L349.40 1141.38L353.56 1139.18L357.36 1138.45L363.82 1138.63L370.52 1140.11L375.31 1144.22L380.60 1145.74L382.67 1146.33L386.49 1148.15L388.78 1149.24L392.64 1148.86L400.28 1147.44L405.77 1148.10L410.04 1151.72L414.75 1157.11L417.83 1161.82L424.11 1164.35L431.95 1167.75L443.28 1176.02L448.53 1176.72L452.24 1177.24L455.73 1178.46L459.24 1179.75L479.27 1187.00L482.84 1188.03L485.44 1187.95L488.77 1183.44L490.23 1181.42L491.50 1179.58L495.78 1172.78L498.83 1166.41L500.89 1161.74L501.50 1155.67L500.53 1152.03L499.04 1146.81L497.34 1142.80L494.42 1137.95L492.98 1135.75L491.76 1133.89L490.39 1131.77L486.06 1124.72L484.65 1122.23L482.77 1118.32L479.84 1109.80L479.90 1106.55L480.42 1101.03L480.93 1097.37L481.62 1091.89L482.27 1087.00L483.21 1080.28L483.65 1074.77L484.68 1070.05L485.38 1065.01L485.93 1061.86L487.01 1057.25L487.49 1053.99L489.24 1049.18L490.35 1047.07L491.18 1044.24L490.95 1035.72L490.20 1031.07L488.85 1026.57L489.48 1024.12L493.38 1022.70L496.85 1021.70L502.75 1017.51L505.41 1017.01L509.23 1016.39L524.65 1014.16L534.41 1014.78L536.41 1008.75L536.34 1005.03L536.40 1001.94L536.14 997.90L536.24 990.30L536.71 982.19L536.05 977.76L532.12 978.13L528.23 978.24L525.73 978.10Z" data-ward="20" /><path id="ward-8" class="ward" d="M682.52 613.75L685.18 613.53L687.85 613.32L703.64 612.04L707.30 616.49L710.73 616.71L714.15 616.92L716.50 617.07L719.17 617.24L724.13 617.61L726.55 617.78L731.18 618.12L734.16 618.34L737.18 618.95L740.17 619.82L744.74 620.03L749.49 619.07L753.54 618.89L758.70 618.67L757.86 615.41L757.78 612.25L757.70 609.11L757.54 604.60L757.43 602.28L757.03 599.77L755.02 596.62L754.84 591.68L754.76 587.07L752.72 583.32L750.51 580.75L750.45 578.53L750.01 573.67L749.86 571.22L749.51 566.94L753.70 564.80L753.74 560.95L753.84 558.59L753.97 555.43L750.76 552.94L747.42 552.69L742.76 552.12L740.44 549.66L737.70 547.10L734.49 547.34L731.85 547.54L726.85 548.15L724.30 548.84L720.35 550.10L718.13 549.65L715.85 547.51L715.48 545.14L714.80 540.76L714.39 538.18L713.98 535.65L713.02 533.25L711.37 530.65L711.04 528.24L713.36 524.88L718.70 524.08L721.58 522.80L720.59 517.39L721.53 514.32L722.92 512.53L722.79 509.32L722.59 506.23L722.44 503.80L724.49 500.81L722.80 496.97L722.44 493.97L722.04 490.71L720.19 488.61L714.46 489.54L711.18 488.37L711.09 485.31L710.98 481.41L710.66 475.76L710.77 472.11L710.20 464.71L709.95 461.74L710.16 455.67L711.71 452.40L710.94 449.01L710.07 444.08L709.64 440.44L708.85 433.04L706.61 430.71L703.42 430.79L699.31 430.90L696.81 430.42L693.81 430.65L687.61 431.13L684.90 432.05L682.20 432.96L675.65 433.16L643.85 431.15L633.99 431.11L625.51 431.13L621.80 430.70L620.73 427.96L618.30 420.20L617.09 416.34L615.42 411.54L614.58 409.10L613.75 404.62L612.80 401.35L605.93 401.59L600.79 401.93L595.65 402.27L591.81 402.97L587.27 403.77L580.25 404.36L576.58 404.68L572.64 414.66L572.95 419.22L573.02 421.69L571.78 426.25L571.87 428.69L573.15 436.04L574.01 441.12L574.83 450.55L576.18 457.94L576.81 460.36L577.95 464.33L579.60 470.21L580.45 475.88L581.08 481.24L581.51 486.31L582.02 493.59L583.11 499.22L584.21 504.34L585.38 509.45L586.12 514.93L586.67 517.73L589.40 533.87L589.64 540.50L593.19 540.82L599.29 540.26L602.57 539.51L609.09 537.99L614.52 537.43L619.21 536.99L621.05 541.14L621.83 543.81L623.27 546.50L625.85 548.50L633.36 546.94L637.52 545.92L639.67 545.86L647.23 544.90L650.97 543.77L654.85 542.90L655.93 546.58L657.26 553.05L658.28 558.33L659.22 564.85L659.61 567.16L660.43 573.07L661.52 580.87L662.80 589.96L664.41 600.17L665.55 606.81L666.09 609.65L667.58 614.95L676.27 614.25L678.61 614.06L682.52 613.75Z" data-ward="8" /><path id="ward-4" class="ward" d="M623.57 634.90L623.24 632.54L622.94 628.05L623.01 625.67L623.06 622.49L622.71 618.66L622.43 615.73L622.11 613.31L621.51 611.06L618.98 609.55L617.57 607.09L616.98 604.64L618.51 598.13L617.69 590.74L615.06 582.00L613.90 578.59L614.29 570.40L613.62 567.07L612.87 564.07L612.07 561.36L611.71 556.21L615.21 553.41L618.30 552.62L621.97 551.61L625.85 548.50L623.27 546.50L621.83 543.81L621.05 541.14L619.21 536.99L614.52 537.43L609.09 537.99L602.57 539.51L599.29 540.26L593.19 540.82L589.64 540.50L589.40 533.87L586.67 517.73L586.12 514.93L585.38 509.45L584.21 504.34L583.11 499.22L582.02 493.59L581.51 486.31L581.08 481.24L580.45 475.88L579.60 470.21L577.95 464.33L576.81 460.36L576.18 457.94L574.83 450.55L574.01 441.12L573.15 436.04L571.87 428.69L571.78 426.25L573.02 421.69L572.95 419.22L572.64 414.66L576.58 404.68L566.74 405.61L564.27 405.87L562.03 406.22L556.10 407.15L553.35 407.58L550.44 408.03L548.00 408.41L545.10 408.87L542.58 409.26L539.30 409.77L538.98 414.05L538.64 418.46L537.85 423.40L536.87 429.88L536.44 432.61L534.54 445.74L534.32 448.29L534.13 451.50L535.00 455.11L536.09 460.98L537.96 471.06L539.83 481.15L540.77 486.19L541.47 491.63L542.97 503.16L540.56 504.59L528.47 506.31L517.64 508.13L500.07 510.72L496.79 511.32L493.60 511.90L494.57 525.71L496.98 560.23L500.22 585.58L500.50 588.84L502.81 615.95L502.96 618.12L503.15 620.44L503.46 625.26L501.00 624.78L491.04 623.87L491.98 626.69L493.44 637.81L493.57 654.76L493.66 659.92L494.33 669.74L495.52 679.86L495.63 685.40L495.63 688.14L495.75 693.78L496.10 697.95L496.34 702.24L496.56 704.92L496.94 712.57L497.07 717.51L497.23 720.45L497.67 723.11L498.41 727.60L500.28 734.51L500.32 737.10L500.34 739.28L500.25 744.37L501.44 760.34L502.82 776.37L503.34 781.26L502.16 790.79L502.47 795.95L502.75 804.19L503.14 814.63L503.14 818.33L503.64 821.83L505.02 824.46L509.90 824.00L514.04 823.04L516.77 823.00L519.20 823.92L519.98 826.35L522.63 826.07L525.25 826.11L527.95 825.95L532.22 825.91L542.00 825.46L538.81 814.13L538.40 809.52L537.68 801.26L537.36 790.43L537.48 768.45L538.53 761.82L541.27 763.18L544.08 764.01L550.65 761.94L559.98 760.54L566.23 759.66L574.32 759.22L576.74 758.94L581.28 758.50L583.85 758.02L589.67 758.30L592.46 758.27L591.90 752.16L591.80 749.14L591.57 744.93L591.47 740.89L591.19 736.46L591.05 731.50L590.93 729.09L590.74 724.36L590.52 719.98L590.36 716.64L590.23 712.54L589.93 706.64L589.82 704.34L589.40 688.82L596.34 688.94L599.47 689.28L602.05 689.30L609.97 689.46L620.37 689.91L624.41 690.30L630.20 690.64L632.78 690.66L635.96 690.70L636.00 687.13L635.98 683.96L632.92 680.14L628.34 680.31L624.74 679.95L622.95 678.27L622.50 674.34L622.37 670.86L622.45 668.16L624.31 664.91L626.07 661.57L624.90 655.07L623.42 649.66L623.16 646.91L623.56 643.75L623.91 640.99L624.15 637.59L623.57 634.90Z" data-ward="4" /><path id="ward-9" class="ward" d="M933.81 752.87L935.88 754.27L938.44 756.00L941.09 756.56L944.66 756.59L949.34 756.18L954.39 755.63L961.02 756.93L965.77 757.86L968.78 758.45L971.36 756.83L969.82 754.30L967.20 752.00L954.88 730.15L945.42 713.12L943.00 704.50L939.68 693.19L931.28 693.65L924.54 693.98L917.80 694.31L911.14 694.15L907.51 692.83L903.87 691.50L901.16 690.60L893.86 691.16L889.23 692.13L884.87 693.02L881.32 693.97L877.19 691.80L874.30 690.30L870.79 689.47L866.03 688.36L859.62 687.21L853.89 686.50L785.81 695.68L780.06 697.14L776.25 697.92L770.74 699.86L766.89 700.08L762.74 699.49L760.56 699.04L755.78 697.28L751.09 690.21L751.13 687.72L750.99 682.77L751.06 680.29L751.53 676.78L752.06 671.64L751.97 668.49L751.46 663.35L752.98 656.00L755.40 653.84L758.03 652.31L759.66 646.61L761.51 644.71L762.04 641.97L762.03 633.48L762.21 627.32L762.35 624.19L761.29 620.01L758.70 618.67L753.54 618.89L749.49 619.07L744.74 620.03L740.17 619.82L737.18 618.95L734.16 618.34L731.18 618.12L726.55 617.78L724.13 617.61L719.17 617.24L716.50 617.07L714.15 616.92L710.73 616.71L707.30 616.49L703.64 612.04L687.85 613.32L685.18 613.53L682.52 613.75L678.61 614.06L676.27 614.25L667.58 614.95L666.09 609.65L665.55 606.81L664.41 600.17L662.80 589.96L661.52 580.87L660.43 573.07L659.61 567.16L659.22 564.85L658.28 558.33L657.26 553.05L655.93 546.58L654.85 542.90L650.97 543.77L647.23 544.90L639.67 545.86L637.52 545.92L633.36 546.94L625.85 548.50L621.97 551.61L618.30 552.62L615.21 553.41L611.71 556.21L612.07 561.36L612.87 564.07L613.62 567.07L614.29 570.40L613.90 578.59L615.06 582.00L617.69 590.74L618.51 598.13L616.98 604.64L617.57 607.09L618.98 609.55L621.51 611.06L622.11 613.31L622.43 615.73L622.71 618.66L623.06 622.49L623.01 625.67L622.94 628.05L623.24 632.54L623.57 634.90L624.15 637.59L623.91 640.99L623.56 643.75L623.16 646.91L623.42 649.66L624.90 655.07L626.07 661.57L624.31 664.91L622.45 668.16L622.37 670.86L622.50 674.34L622.95 678.27L624.74 679.95L628.34 680.31L632.92 680.14L635.98 683.96L636.00 687.13L635.96 690.70L632.78 690.66L630.20 690.64L624.41 690.30L620.37 689.91L609.97 689.46L602.05 689.30L599.47 689.28L596.34 688.94L589.40 688.82L589.82 704.34L589.93 706.64L590.23 712.54L590.36 716.64L590.52 719.98L590.74 724.36L590.93 729.09L591.05 731.50L591.19 736.46L591.47 740.89L591.57 744.93L591.80 749.14L591.90 752.16L592.46 758.27L601.47 757.30L604.88 757.15L611.93 757.11L618.98 757.06L623.17 757.09L627.06 756.14L631.82 757.60L635.90 758.85L637.97 759.47L642.16 759.14L644.29 751.18L644.01 747.92L650.96 746.80L655.64 746.38L665.04 745.05L666.52 748.35L667.26 754.18L669.28 762.90L670.00 765.47L672.94 769.36L675.25 770.83L678.65 770.71L683.75 770.19L687.38 769.97L690.89 769.75L694.28 763.35L694.55 760.42L703.51 758.59L707.43 757.79L714.89 758.01L718.01 760.60L720.83 760.52L726.75 759.72L732.79 759.29L736.51 759.51L737.41 751.58L743.01 750.19L745.77 748.26L745.83 745.89L744.94 740.12L744.55 736.84L744.05 730.77L746.50 729.49L752.30 728.48L758.83 727.85L768.70 727.64L780.71 731.23L788.80 733.10L795.60 734.64L804.28 736.08L815.25 737.20L820.49 737.84L825.22 738.80L828.46 740.07L833.40 740.72L838.93 741.46L844.01 742.13L856.35 742.92L863.48 741.85L871.97 740.67L876.90 739.99L888.44 740.72L891.86 741.06L897.46 741.29L900.58 741.04L905.34 741.72L909.44 742.12L911.71 741.60L917.92 740.47L920.72 741.83L926.99 746.91L930.08 749.74L931.90 751.35L933.81 752.87Z" data-ward="9" /><path id="ward-6" class="ward" d="M651.01 163.28L655.42 164.29L661.44 163.68L685.15 161.41L686.04 166.31L686.91 171.67L687.44 173.82L688.65 175.75L691.27 176.35L697.16 175.10L699.52 175.42L700.84 179.31L701.43 183.15L702.46 190.46L702.81 193.07L703.21 196.06L703.77 199.82L704.66 204.68L706.20 210.07L706.74 213.89L707.31 218.60L707.57 224.40L705.52 226.21L699.61 225.57L692.44 224.79L685.36 224.01L679.87 223.35L674.59 222.71L669.33 222.00L663.59 221.79L657.94 221.50L654.76 221.02L634.46 222.34L633.70 243.13L633.39 254.69L654.66 331.95L670.74 390.36L675.65 433.16L682.20 432.96L684.90 432.05L687.61 431.13L693.81 430.65L696.81 430.42L699.31 430.90L703.42 430.79L706.61 430.71L710.24 430.15L710.98 423.85L710.43 420.21L709.73 416.70L709.73 414.18L709.34 411.30L709.54 406.47L712.62 405.75L718.33 404.95L722.58 403.75L725.36 403.55L730.12 403.23L732.35 402.99L738.76 402.23L742.35 401.27L742.86 398.11L744.62 396.52L747.86 393.20L747.74 390.92L748.02 387.40L748.53 383.97L750.01 373.78L750.87 367.70L751.96 364.10L753.14 360.35L753.96 354.71L754.78 349.48L755.64 344.60L755.28 342.04L756.88 339.85L770.70 340.79L781.84 341.27L797.24 342.25L802.38 342.05L804.65 341.94L808.34 341.58L816.24 340.58L824.35 342.46L840.42 345.59L837.18 332.67L836.32 329.21L834.88 324.57L834.62 322.56L834.43 314.36L832.57 309.41L831.58 300.29L830.36 295.96L829.44 293.52L827.56 290.60L824.46 286.95L819.80 282.47L815.52 277.34L813.01 272.97L811.74 271.36L810.15 265.05L810.15 260.21L811.81 246.90L813.41 242.44L813.68 240.87L814.08 238.16L814.09 234.91L812.19 231.20L811.84 228.15L811.45 226.08L810.98 223.45L810.94 222.89L810.88 220.05L810.84 216.80L811.60 214.39L813.40 209.92L813.64 207.23L813.49 205.98L811.26 203.27L809.42 201.65L802.38 194.81L800.46 191.97L799.23 189.05L798.63 187.07L798.59 182.58L799.55 177.08L799.94 169.40L799.30 165.97L796.04 160.53L794.89 157.40L792.55 148.25L790.30 139.26L787.15 133.28L784.74 129.97L781.59 124.98L779.38 121.44L776.56 115.35L771.88 106.90L769.50 104.02L768.81 102.28L767.66 97.38L765.81 91.02L763.32 87.31L760.46 82.58L759.82 80.06L759.02 78.51L758.37 75.92L756.90 70.22L754.73 64.68L750.07 58.69L747.08 54.48L744.96 50.47L743.83 46.88L742.63 44.92L738.64 39.09L736.13 34.86L729.90 25.48L727.29 26.22L716.01 29.33L708.13 31.50L702.71 33.00L694.75 35.04L690.25 36.19L685.85 37.31L680.69 38.42L678.57 38.87L674.42 39.53L670.27 40.18L667.44 41.44L663.08 42.68L659.34 43.91L651.23 46.08L652.32 48.54L653.29 50.60L654.06 53.24L655.17 57.44L656.71 60.68L658.24 63.92L660.31 70.85L662.92 75.87L658.60 76.65L654.01 77.53L650.18 78.40L645.92 79.27L642.68 80.07L642.26 83.29L641.85 86.51L641.89 91.66L641.89 94.07L639.65 94.77L634.77 96.80L634.05 100.24L635.08 103.65L636.58 108.02L637.36 110.30L640.67 119.70L641.83 123.25L642.59 125.64L645.45 134.96L646.80 144.37L647.60 149.69L648.65 154.97L650.14 160.50L651.01 163.28Z" data-ward="6" /><path id="ward-11" class="ward" d="M799.84 1066.44L805.62 1062.99L800.38 1054.44L797.88 1038.67L797.18 1030.60L797.36 1016.17L802.35 1002.89L823.76 999.61L836.31 991.25L840.85 984.29L841.63 970.24L841.67 954.11L839.89 951.69L845.56 939.64L852.08 925.95L854.27 923.19L857.84 920.06L852.86 917.41L849.66 915.86L847.07 914.82L844.92 914.32L841.31 914.05L835.10 914.75L831.21 915.13L831.69 911.00L832.16 908.62L831.90 905.32L830.61 902.01L829.48 899.09L827.67 897.84L824.68 896.42L824.07 894.08L824.63 891.61L825.46 886.66L826.44 880.99L826.54 877.56L825.77 873.62L821.14 872.15L819.01 869.63L819.29 867.00L815.76 863.74L809.95 861.62L805.65 860.36L801.98 859.70L797.83 857.28L794.15 855.87L790.70 855.32L787.43 854.21L786.58 847.78L783.17 847.44L774.69 847.27L770.46 846.57L765.74 845.66L763.18 846.04L762.41 850.19L761.74 853.22L759.63 854.42L756.26 854.59L749.82 854.08L741.96 854.41L738.57 854.52L734.38 854.65L731.93 854.80L728.04 854.93L724.89 855.15L721.47 855.16L717.99 855.02L714.29 855.24L706.37 855.30L702.09 855.34L699.30 855.49L696.83 855.63L694.01 855.74L690.58 855.85L687.01 856.03L682.82 855.91L680.25 846.01L678.83 841.86L676.11 840.97L673.51 841.58L670.23 841.50L666.56 841.98L664.41 842.66L660.43 842.50L656.00 842.70L653.59 843.78L647.34 845.70L644.44 846.74L643.47 849.17L643.51 852.85L642.69 856.37L641.91 859.12L638.55 859.92L633.27 861.72L631.14 862.47L624.63 864.55L621.10 865.92L617.53 867.60L622.96 873.15L626.73 909.18L631.42 945.00L632.39 948.44L633.24 951.45L634.38 955.56L636.60 963.75L637.29 965.91L638.75 968.90L640.14 971.06L642.59 974.03L644.95 976.25L646.21 978.90L647.97 984.67L648.99 991.68L647.85 995.24L645.14 995.25L640.65 994.66L637.01 994.88L631.97 994.53L628.58 994.36L622.69 994.53L619.23 994.23L615.61 994.51L612.06 995.10L612.34 998.42L611.96 1001.33L611.54 1005.18L612.12 1013.05L612.60 1015.99L615.97 1016.48L619.32 1016.44L626.37 1016.51L631.50 1016.31L634.61 1017.23L638.17 1025.93L641.94 1034.29L644.21 1042.82L648.64 1043.11L654.04 1041.99L656.38 1041.52L660.55 1040.82L665.86 1039.82L676.14 1036.53L702.86 1092.56L710.23 1090.32L724.54 1085.81L736.77 1081.52L747.16 1080.28L753.76 1078.93L759.63 1077.67L762.81 1077.46L768.71 1082.61L780.05 1076.86L799.84 1066.44Z" data-ward="11" /><path id="ward-21" class="ward" d="M519.46 956.06L522.29 956.16L524.62 957.26L525.91 961.66L525.52 963.97L524.90 967.66L525.16 970.83L525.43 975.76L525.73 978.10L528.23 978.24L532.12 978.13L536.05 977.76L540.51 977.05L544.88 976.08L548.74 975.87L550.99 975.56L555.09 973.98L557.19 973.46L561.24 974.12L561.64 978.16L563.51 979.86L563.86 983.74L565.37 991.76L567.78 995.89L570.45 995.11L573.02 994.25L578.46 992.70L586.31 992.55L589.74 991.45L592.97 990.58L601.51 1007.72L604.25 1006.59L611.54 1005.18L611.96 1001.33L612.34 998.42L612.06 995.10L615.61 994.51L619.23 994.23L622.69 994.53L628.58 994.36L631.97 994.53L637.01 994.88L640.65 994.66L645.14 995.25L647.85 995.24L648.99 991.68L647.97 984.67L646.21 978.90L644.95 976.25L642.59 974.03L640.14 971.06L638.75 968.90L637.29 965.91L636.60 963.75L634.38 955.56L633.24 951.45L632.39 948.44L631.42 945.00L626.73 909.18L622.96 873.15L617.53 867.60L613.43 858.08L604.52 841.06L602.76 835.75L599.75 831.99L598.07 827.99L597.29 825.64L597.02 821.28L596.94 817.36L597.18 814.37L596.71 811.97L596.20 808.61L593.82 806.49L588.11 806.69L585.34 806.97L582.68 806.65L579.56 807.85L577.41 808.81L572.25 807.77L570.14 808.37L567.60 808.37L564.40 807.81L561.62 807.65L559.20 807.17L555.06 807.45L550.76 807.85L545.61 808.17L542.79 809.53L538.40 809.52L538.81 814.13L542.00 825.46L532.22 825.91L527.95 825.95L525.25 826.11L522.63 826.07L519.98 826.35L519.20 823.92L516.77 823.00L514.04 823.04L509.90 824.00L505.02 824.46L494.50 826.66L490.87 827.04L483.45 827.83L474.70 829.11L470.10 831.58L469.92 835.92L473.15 840.40L473.45 848.29L474.32 858.72L475.42 864.13L479.23 863.71L480.34 872.14L480.68 874.89L468.79 875.72L462.24 874.63L458.60 872.64L457.58 868.91L452.34 867.94L448.65 868.68L445.95 869.11L440.79 869.68L435.75 869.72L430.23 867.04L427.87 866.96L423.22 870.13L417.86 872.13L410.89 873.49L403.09 875.29L396.37 876.81L389.69 880.12L386.84 879.46L386.35 875.51L386.19 872.18L382.00 860.57L379.72 860.29L374.94 860.70L373.71 863.05L371.38 865.12L365.28 864.20L362.89 863.76L360.18 863.94L356.14 864.33L348.51 866.38L344.27 867.92L340.30 869.79L338.02 870.72L334.70 870.92L331.95 870.25L329.44 869.47L325.70 867.94L323.33 868.38L322.11 870.67L318.54 873.82L312.91 880.66L309.45 884.59L307.46 887.15L304.94 890.67L302.46 895.18L300.99 897.87L300.71 900.75L300.42 903.53L300.12 909.49L299.95 914.43L301.05 918.00L303.42 921.72L305.16 924.11L308.51 928.59L318.55 937.81L326.29 942.82L333.54 944.65L342.27 945.82L352.66 946.77L360.03 945.32L368.72 943.00L377.85 938.96L384.23 937.75L392.71 933.57L395.59 928.59L404.01 925.81L414.08 922.84L419.48 920.64L421.58 919.76L423.59 917.09L426.88 911.98L432.00 911.19L435.32 911.11L443.25 912.55L449.50 914.07L454.19 916.95L457.86 920.42L460.42 923.62L468.01 920.99L472.41 919.99L476.48 919.30L479.76 918.87L483.92 918.32L486.21 918.06L491.41 924.74L495.55 925.23L497.84 925.71L500.23 926.22L508.14 926.66L508.61 929.05L508.88 931.45L510.02 934.09L510.41 937.85L510.48 941.00L510.99 944.27L511.30 947.04L512.64 950.27L514.08 953.32L516.69 955.91L519.46 956.06Z" data-ward="21" /><path id="ward-5" class="ward" d="M529.04 81.03L526.31 72.75L521.72 58.82L520.67 55.65L515.94 41.16L513.99 35.10L510.08 23.00L509.24 20.45L503.60 3.82L500.82 0.00L497.17 5.43L501.14 20.28L503.02 27.49L504.84 32.96L506.60 38.41L508.36 43.87L510.07 49.30L511.84 54.67L512.55 57.62L513.81 62.90L514.68 66.50L515.25 68.97L516.21 73.04L516.98 76.30L518.74 83.75L519.77 88.00L520.96 93.24L522.05 97.85L523.16 102.89L524.76 109.84L526.55 117.31L527.46 121.09L528.91 126.74L530.76 133.32L531.23 138.53L531.68 143.24L532.27 149.54L532.57 152.66L533.58 160.51L534.48 166.88L535.31 172.73L536.12 178.34L536.97 183.97L537.80 188.88L538.50 192.92L539.16 196.29L543.60 214.06L546.63 226.17L548.31 232.92L552.08 248.66L552.96 252.36L555.93 267.64L551.77 268.44L555.35 280.94L557.13 287.19L562.37 305.48L563.62 309.85L567.76 324.32L569.43 330.16L570.79 337.80L573.52 353.04L576.08 367.40L580.67 367.26L581.36 377.65L581.53 380.36L582.31 392.58L585.16 396.24L586.62 399.54L586.62 399.59L586.63 399.64L586.64 399.68L586.65 399.73L586.65 399.78L586.66 399.82L586.67 399.87L586.68 399.92L586.68 399.96L586.70 400.04L586.71 400.13L586.72 400.18L586.72 400.23L586.73 400.28L586.74 400.35L586.76 400.48L586.78 400.57L586.79 400.65L586.81 400.75L586.82 400.83L586.83 400.91L586.85 400.99L586.86 401.07L586.87 401.16L586.88 401.23L586.90 401.32L586.91 401.41L586.93 401.51L586.94 401.57L587.27 403.77L591.81 402.97L595.65 402.27L600.79 401.93L605.93 401.59L612.80 401.35L613.75 404.62L614.58 409.10L615.42 411.54L617.09 416.34L618.30 420.20L620.73 427.96L621.80 430.70L625.51 431.13L633.99 431.11L643.85 431.15L675.65 433.16L670.74 390.36L654.66 331.95L633.39 254.69L633.70 243.13L634.46 222.34L654.76 221.02L657.94 221.50L663.59 221.79L669.33 222.00L674.59 222.71L679.87 223.35L685.36 224.01L692.44 224.79L699.61 225.57L705.52 226.21L707.57 224.40L707.31 218.60L706.74 213.89L706.20 210.07L704.66 204.68L703.77 199.82L703.21 196.06L702.81 193.07L702.46 190.46L701.43 183.15L700.84 179.31L699.52 175.42L697.16 175.10L691.27 176.35L688.65 175.75L687.44 173.82L686.91 171.67L686.04 166.31L685.15 161.41L661.44 163.68L655.42 164.29L651.01 163.28L650.14 160.50L648.65 154.97L647.60 149.69L646.80 144.37L645.45 134.96L642.59 125.64L641.83 123.25L640.67 119.70L637.36 110.30L636.58 108.02L635.08 103.65L634.05 100.24L634.77 96.80L639.65 94.77L641.89 94.07L641.89 91.66L641.85 86.51L642.26 83.29L642.68 80.07L645.92 79.27L650.18 78.40L654.01 77.53L658.60 76.65L662.92 75.87L660.31 70.85L658.24 63.92L656.71 60.68L655.17 57.44L654.06 53.24L653.29 50.60L652.32 48.54L651.23 46.08L648.63 46.97L644.30 48.47L640.42 48.52L628.08 49.20L627.20 53.92L619.80 54.07L614.99 54.17L611.88 54.23L610.73 51.97L609.58 49.72L606.66 49.92L596.75 52.21L594.03 52.89L591.04 53.61L588.19 54.35L585.32 55.09L581.70 56.46L578.19 57.80L575.51 58.88L568.29 61.81L563.73 63.62L559.76 63.10L552.17 68.90L544.96 73.48L537.14 78.90L531.91 82.53L529.97 83.87L529.04 81.03Z" data-ward="5" /><path id="ward-13" class="ward" d="M618.49 1336.00L615.23 1335.67L613.50 1338.18L612.18 1343.81L610.28 1345.65L611.04 1350.15L611.89 1352.27L612.61 1355.99L616.00 1355.42L619.41 1355.41L622.01 1354.80L637.35 1354.37L649.63 1354.75L653.26 1354.82L658.61 1355.87L659.05 1359.38L659.26 1362.70L660.34 1368.63L661.54 1373.26L661.83 1378.96L662.13 1386.38L663.24 1390.00L663.18 1393.67L663.30 1396.89L665.89 1401.15L668.84 1400.95L672.54 1401.87L673.16 1405.13L673.08 1408.61L677.53 1409.03L692.61 1408.65L703.41 1408.57L706.85 1408.38L711.87 1408.11L713.81 1411.81L714.14 1414.28L714.48 1416.81L714.67 1419.07L714.80 1430.55L730.31 1431.78L731.87 1441.53L732.79 1447.22L733.15 1449.52L733.77 1453.39L735.51 1471.06L737.59 1501.68L737.83 1504.44L738.69 1513.99L739.78 1526.29L741.98 1553.56L744.87 1578.17L748.91 1603.13L754.54 1620.98L755.61 1624.39L765.78 1647.15L767.25 1649.72L768.33 1651.61L769.64 1653.90L776.41 1665.76L780.56 1670.96L783.88 1675.13L787.73 1679.97L799.17 1692.91L812.47 1704.20L826.21 1715.44L836.82 1723.91L841.04 1727.32L845.60 1731.15L851.20 1735.77L855.61 1739.40L857.65 1741.72L868.55 1722.58L882.71 1698.43L891.74 1683.31L901.70 1667.58L904.60 1658.86L904.60 1640.23L897.66 1618.84L882.25 1591.79L878.13 1573.60L878.14 1562.31L878.09 1526.60L880.90 1504.48L880.87 1483.37L879.39 1478.43L877.59 1472.35L876.69 1469.60L875.09 1463.76L872.17 1449.99L870.15 1440.22L868.16 1430.74L808.94 1432.01L810.20 1415.75L791.55 1415.89L787.78 1402.82L786.50 1387.11L784.46 1367.71L783.48 1363.81L782.82 1360.09L782.18 1355.81L781.61 1352.50L780.96 1348.83L780.67 1345.38L779.88 1340.00L778.86 1335.06L778.29 1331.06L777.38 1327.51L776.08 1323.58L776.91 1317.53L775.89 1313.26L774.17 1307.16L773.12 1296.16L768.20 1295.77L765.56 1295.31L762.39 1295.23L759.41 1294.86L756.27 1293.57L752.09 1293.16L750.79 1291.37L749.81 1289.34L745.21 1287.97L739.35 1287.20L729.50 1287.73L725.43 1287.58L718.80 1288.77L713.84 1288.91L711.27 1288.97L706.75 1289.34L704.02 1290.54L701.03 1290.70L696.51 1290.69L694.09 1290.90L689.49 1290.95L685.82 1291.47L685.40 1295.23L685.50 1299.19L686.04 1306.70L686.34 1309.97L684.69 1313.08L680.24 1313.12L677.48 1312.88L673.84 1313.26L671.29 1313.35L668.90 1313.34L664.13 1313.71L661.85 1313.81L657.92 1313.83L657.94 1308.89L657.71 1302.25L658.93 1298.08L653.67 1298.61L650.44 1299.11L647.14 1299.77L644.52 1300.35L641.76 1300.97L637.97 1301.97L635.06 1302.67L630.89 1303.60L626.99 1304.46L621.73 1306.50L622.63 1309.90L623.67 1315.89L621.85 1318.56L620.05 1321.35L619.39 1325.50L618.29 1329.22L621.21 1331.81L620.69 1335.60L618.49 1336.00Z" data-ward="13" /><path id="ward-12" class="ward" d="M853.40 1153.21L850.43 1148.12L847.47 1143.64L846.38 1139.42L844.40 1133.74L842.46 1128.07L841.33 1124.52L838.39 1119.87L835.06 1114.39L832.13 1109.84L830.23 1106.71L827.30 1100.62L823.53 1092.53L819.58 1084.34L818.68 1083.13L814.10 1076.14L810.31 1069.97L805.62 1062.99L799.84 1066.44L780.05 1076.86L768.71 1082.61L762.81 1077.46L759.63 1077.67L753.76 1078.93L747.16 1080.28L736.77 1081.52L724.54 1085.81L710.23 1090.32L702.86 1092.56L676.14 1036.53L665.86 1039.82L660.55 1040.82L656.38 1041.52L654.04 1041.99L648.64 1043.11L644.21 1042.82L646.32 1061.21L648.12 1069.36L649.91 1077.52L650.30 1080.14L651.44 1087.85L652.21 1097.25L652.61 1105.99L647.74 1116.62L650.33 1119.26L652.34 1123.55L653.58 1126.83L654.57 1129.11L655.94 1131.50L657.60 1134.63L660.49 1141.24L661.70 1143.83L663.18 1147.13L664.89 1150.59L666.76 1153.99L669.92 1161.23L671.13 1163.68L672.38 1167.13L667.97 1167.88L663.97 1168.19L660.69 1168.71L660.98 1171.78L661.35 1174.60L664.50 1183.77L666.37 1189.12L667.40 1193.24L668.90 1198.45L669.96 1203.28L671.27 1208.18L671.99 1212.21L673.09 1217.14L674.23 1224.24L675.20 1231.19L670.61 1232.11L664.26 1232.96L659.88 1233.15L656.03 1233.11L651.69 1233.70L649.05 1234.34L649.86 1257.28L651.54 1259.73L656.44 1261.12L656.86 1264.31L657.09 1267.29L657.81 1270.31L658.55 1272.98L659.37 1277.78L659.98 1282.67L660.75 1284.75L661.64 1288.11L659.79 1291.84L659.91 1295.46L658.93 1298.08L657.71 1302.25L657.94 1308.89L657.92 1313.83L661.85 1313.81L664.13 1313.71L668.90 1313.34L671.29 1313.35L673.84 1313.26L677.48 1312.88L680.24 1313.12L684.69 1313.08L686.34 1309.97L686.04 1306.70L685.50 1299.19L685.40 1295.23L685.82 1291.47L689.49 1290.95L694.09 1290.90L696.51 1290.69L701.03 1290.70L704.02 1290.54L706.75 1289.34L711.27 1288.97L713.84 1288.91L718.80 1288.77L725.43 1287.58L729.50 1287.73L739.35 1287.20L745.21 1287.97L749.81 1289.34L750.79 1291.37L752.09 1293.16L756.27 1293.57L759.41 1294.86L762.39 1295.23L765.56 1295.31L768.20 1295.77L773.12 1296.16L774.17 1307.16L775.89 1313.26L776.91 1317.53L776.08 1323.58L777.38 1327.51L778.29 1331.06L778.86 1335.06L779.88 1340.00L780.67 1345.38L780.96 1348.83L781.61 1352.50L782.18 1355.81L782.82 1360.09L783.48 1363.81L784.46 1367.71L786.50 1387.11L787.78 1402.82L791.55 1415.89L810.20 1415.75L808.94 1432.01L868.16 1430.74L866.94 1424.99L868.28 1404.05L874.14 1389.21L893.87 1365.14L913.73 1349.86L922.59 1340.41L928.86 1327.19L927.70 1300.80L922.01 1291.41L913.62 1278.20L910.36 1272.62L906.34 1266.06L902.43 1259.97L898.97 1254.27L895.29 1248.36L892.36 1242.82L889.02 1236.91L887.46 1231.31L884.46 1223.77L884.07 1222.98L878.08 1208.36L875.83 1200.10L874.56 1197.00L871.01 1188.54L868.00 1181.13L864.76 1173.42L861.74 1167.68L858.19 1161.43L856.07 1157.23L853.40 1153.21Z" data-ward="12" /><path id="ward-17" class="ward" d="M379.61 1344.04L373.14 1350.66L367.09 1356.91L360.94 1363.16L358.02 1366.27L355.22 1368.99L344.54 1379.40L340.81 1383.03L340.32 1389.43L340.07 1392.74L339.52 1400.59L338.31 1417.71L337.38 1442.31L341.23 1444.84L344.09 1446.30L346.96 1447.20L349.64 1448.76L351.84 1449.11L358.63 1453.74L362.36 1457.04L364.05 1458.54L388.50 1431.26L396.46 1423.51L409.17 1419.65L412.33 1418.58L428.19 1412.67L433.15 1409.36L437.51 1403.59L445.30 1398.47L458.13 1397.87L467.86 1398.50L473.76 1396.87L482.68 1398.11L490.84 1402.51L497.60 1404.15L507.06 1406.52L509.18 1407.34L518.85 1411.10L522.59 1412.56L530.04 1412.93L533.05 1413.94L544.32 1418.84L548.68 1420.28L551.75 1421.55L555.15 1422.99L558.27 1424.56L560.80 1426.19L561.02 1429.73L564.94 1433.14L567.47 1435.03L569.21 1436.43L571.41 1438.27L574.97 1441.29L577.99 1443.94L580.88 1446.24L584.27 1450.04L588.05 1451.95L590.78 1454.36L594.86 1457.40L598.57 1460.26L602.32 1463.77L606.43 1467.92L608.84 1465.35L612.56 1461.61L619.18 1454.77L621.45 1451.15L626.16 1449.28L626.50 1446.91L625.57 1442.33L624.13 1439.36L623.29 1437.33L622.20 1434.70L621.11 1432.23L620.64 1429.61L620.18 1426.94L619.28 1421.68L618.59 1417.70L617.92 1413.88L616.93 1408.62L616.11 1403.95L615.27 1400.72L614.96 1397.84L614.23 1394.04L613.80 1390.15L613.17 1385.80L611.99 1381.93L611.08 1377.95L610.59 1375.20L609.30 1366.89L607.99 1362.02L607.00 1358.41L609.25 1356.39L612.61 1355.99L611.89 1352.27L611.04 1350.15L610.28 1345.65L612.18 1343.81L613.50 1338.18L615.23 1335.67L618.49 1336.00L620.69 1335.60L621.21 1331.81L618.29 1329.22L619.39 1325.50L620.05 1321.35L621.85 1318.56L623.67 1315.89L622.63 1309.90L621.73 1306.50L626.99 1304.46L630.89 1303.60L635.06 1302.67L637.97 1301.97L641.76 1300.97L644.52 1300.35L647.14 1299.77L650.44 1299.11L653.67 1298.61L658.93 1298.08L659.91 1295.46L659.79 1291.84L661.64 1288.11L660.75 1284.75L659.98 1282.67L659.37 1277.78L658.55 1272.98L657.81 1270.31L646.70 1268.76L643.83 1269.76L643.79 1273.20L636.99 1273.01L634.45 1273.31L631.37 1273.94L627.83 1274.73L624.49 1275.47L620.32 1276.33L617.81 1276.69L614.24 1275.29L610.48 1275.02L606.31 1275.31L601.85 1275.87L596.21 1275.97L591.36 1276.27L586.71 1277.35L582.54 1278.92L579.17 1279.55L573.15 1281.05L570.28 1281.03L567.04 1281.53L563.91 1285.04L560.75 1286.09L557.75 1286.25L553.96 1285.70L551.55 1283.34L547.83 1281.42L545.42 1281.45L542.43 1281.32L539.28 1281.07L537.24 1281.78L535.06 1282.44L532.03 1282.74L531.21 1280.47L530.34 1275.45L529.97 1272.91L529.82 1270.30L529.54 1267.00L529.22 1264.10L528.81 1261.03L528.69 1258.14L527.86 1253.19L528.19 1248.86L528.36 1246.37L528.25 1243.65L528.25 1241.33L527.98 1237.16L524.44 1236.69L522.19 1237.41L520.02 1237.92L517.55 1238.18L514.60 1238.42L511.06 1238.66L506.17 1239.47L502.61 1240.74L499.44 1241.87L497.07 1242.31L494.24 1242.76L491.70 1242.18L488.82 1242.25L485.44 1242.20L482.23 1242.22L478.47 1242.29L474.20 1242.27L471.39 1242.31L468.27 1243.54L465.24 1244.84L461.56 1246.28L458.36 1247.58L455.26 1248.83L452.30 1250.02L449.30 1251.26L446.97 1252.24L443.57 1253.57L440.42 1254.88L437.78 1255.89L434.71 1257.30L432.01 1258.32L429.87 1259.13L427.53 1260.07L424.82 1261.17L422.76 1261.98L417.88 1263.83L418.55 1266.17L419.14 1269.12L419.59 1271.31L420.27 1274.62L420.34 1276.99L420.36 1280.00L419.98 1282.49L419.46 1285.00L418.91 1288.46L418.51 1292.16L418.09 1295.71L417.59 1299.28L416.63 1305.85L413.84 1308.94L405.58 1317.28L396.83 1326.31L389.42 1333.91L379.61 1344.04Z" data-ward="17" /><path id="ward-15" class="ward" d="M734.66 1709.60L739.17 1706.94L723.36 1687.69L717.82 1676.72L703.56 1648.47L702.82 1644.91L701.53 1628.09L702.15 1623.33L701.96 1621.14L701.36 1616.97L699.77 1605.87L697.73 1598.10L697.12 1595.79L694.14 1584.46L691.92 1580.82L689.10 1575.95L660.52 1562.29L656.15 1559.24L653.63 1553.21L646.61 1531.99L645.29 1527.98L644.23 1524.37L642.65 1518.34L636.36 1500.93L633.53 1497.01L630.20 1492.41L622.80 1482.90L619.41 1480.18L617.70 1478.81L614.51 1476.25L610.71 1472.49L606.43 1467.92L602.32 1463.77L598.57 1460.26L594.86 1457.40L590.78 1454.36L588.05 1451.95L584.27 1450.04L580.88 1446.24L577.99 1443.94L574.97 1441.29L571.41 1438.27L569.21 1436.43L567.47 1435.03L564.94 1433.14L561.02 1429.73L560.80 1426.19L558.27 1424.56L555.15 1422.99L551.75 1421.55L548.68 1420.28L544.32 1418.84L533.05 1413.94L530.04 1412.93L522.59 1412.56L521.66 1415.87L519.00 1424.67L512.95 1450.84L509.35 1460.27L506.19 1468.10L505.80 1470.26L505.33 1472.86L502.36 1484.36L500.46 1490.40L499.27 1494.15L496.69 1503.06L495.65 1506.63L494.66 1510.02L494.21 1512.51L493.65 1515.69L492.81 1521.77L492.04 1527.32L491.51 1531.72L491.05 1536.02L490.75 1539.43L490.48 1551.57L497.98 1564.14L502.79 1572.19L503.14 1576.86L503.45 1581.06L503.18 1587.09L503.14 1592.09L503.61 1596.48L507.83 1600.36L514.23 1602.32L539.86 1602.56L559.83 1623.73L563.12 1626.65L569.92 1632.66L575.14 1637.24L580.85 1643.83L592.43 1650.60L597.10 1649.23L604.13 1646.83L614.26 1645.18L629.56 1642.15L641.13 1640.56L648.43 1643.23L659.72 1653.62L669.22 1666.65L674.80 1677.04L681.64 1689.38L685.74 1698.21L689.26 1702.61L692.93 1704.69L711.29 1710.36L713.56 1710.88L720.40 1712.44L734.66 1709.60Z" data-ward="15" /><path id="ward-14" class="ward" d="M619.41 1355.41L616.00 1355.42L612.61 1355.99L609.25 1356.39L607.00 1358.41L607.99 1362.02L609.30 1366.89L610.59 1375.20L611.08 1377.95L611.99 1381.93L613.17 1385.80L613.80 1390.15L614.23 1394.04L614.96 1397.84L615.27 1400.72L616.11 1403.95L616.93 1408.62L617.92 1413.88L618.59 1417.70L619.28 1421.68L620.18 1426.94L620.64 1429.61L621.11 1432.23L622.20 1434.70L623.29 1437.33L624.13 1439.36L625.57 1442.33L626.50 1446.91L626.16 1449.28L621.45 1451.15L619.18 1454.77L612.56 1461.61L608.84 1465.35L606.43 1467.92L610.71 1472.49L614.51 1476.25L617.70 1478.81L619.41 1480.18L622.80 1482.90L630.20 1492.41L633.53 1497.01L636.36 1500.93L642.65 1518.34L644.23 1524.37L645.29 1527.98L646.61 1531.99L653.63 1553.21L656.15 1559.24L660.52 1562.29L689.10 1575.95L691.92 1580.82L694.14 1584.46L697.12 1595.79L697.73 1598.10L699.77 1605.87L701.36 1616.97L701.96 1621.14L702.15 1623.33L701.53 1628.09L702.82 1644.91L703.56 1648.47L717.82 1676.72L723.36 1687.69L739.17 1706.94L734.66 1709.60L735.40 1712.07L731.34 1722.70L729.93 1740.24L729.34 1749.76L727.51 1760.06L726.30 1763.50L721.74 1773.24L716.57 1786.78L717.00 1800.21L717.84 1808.58L722.34 1821.17L762.56 1861.26L771.62 1858.51L782.90 1855.24L785.19 1854.48L792.87 1852.12L795.04 1851.43L798.19 1850.41L800.26 1849.77L802.07 1849.20L804.15 1848.53L805.86 1847.44L808.18 1845.95L810.04 1844.74L811.99 1843.51L814.38 1842.00L816.53 1840.62L818.79 1839.19L821.09 1837.72L822.67 1836.68L824.27 1835.67L826.37 1834.32L826.99 1834.01L828.84 1833.05L831.08 1831.91L832.93 1830.97L834.58 1830.11L836.17 1829.32L838.06 1828.35L840.44 1827.13L841.01 1825.82L841.84 1823.88L842.96 1821.26L843.85 1819.16L844.60 1817.39L845.46 1815.38L846.22 1813.61L847.75 1810.06L848.74 1807.77L849.60 1805.82L849.66 1804.39L850.05 1799.21L850.30 1796.79L850.64 1793.50L851.11 1788.90L851.06 1785.54L850.97 1782.17L850.92 1779.47L850.85 1776.23L850.80 1773.90L850.92 1772.27L851.17 1768.78L851.40 1765.43L851.63 1761.87L852.12 1759.89L852.88 1757.01L853.58 1754.36L854.27 1751.74L854.97 1749.09L855.66 1747.61L857.65 1741.72L855.61 1739.40L851.20 1735.77L845.60 1731.15L841.04 1727.32L836.82 1723.91L826.21 1715.44L812.47 1704.20L799.17 1692.91L787.73 1679.97L783.88 1675.13L780.56 1670.96L776.41 1665.76L769.64 1653.90L768.33 1651.61L767.25 1649.72L765.78 1647.15L755.61 1624.39L754.54 1620.98L748.91 1603.13L744.87 1578.17L741.98 1553.56L739.78 1526.29L738.69 1513.99L737.83 1504.44L737.59 1501.68L735.51 1471.06L733.77 1453.39L733.15 1449.52L732.79 1447.22L731.87 1441.53L730.31 1431.78L714.80 1430.55L714.67 1419.07L714.48 1416.81L714.14 1414.28L713.81 1411.81L711.87 1408.11L706.85 1408.38L703.41 1408.57L692.61 1408.65L677.53 1409.03L673.08 1408.61L673.16 1405.13L672.54 1401.87L668.84 1400.95L665.89 1401.15L663.30 1396.89L663.18 1393.67L663.24 1390.00L662.13 1386.38L661.83 1378.96L661.54 1373.26L660.34 1368.63L659.26 1362.70L659.05 1359.38L658.61 1355.87L653.26 1354.82L649.63 1354.75L637.35 1354.37L622.01 1354.80L619.41 1355.41Z" data-ward="14" /><path id="ward-3" class="ward" d="M355.22 633.84L359.46 638.95L361.68 641.12L358.47 643.64L355.14 645.71L351.94 647.94L350.05 651.66L349.55 655.00L349.34 657.61L349.28 661.59L348.16 667.58L343.91 669.65L339.47 672.37L335.64 671.71L329.75 669.91L326.12 670.48L318.08 673.06L311.81 673.09L307.31 672.56L300.88 673.12L298.60 675.77L295.55 680.20L295.46 683.18L295.13 686.06L295.54 688.99L297.69 691.76L299.24 695.64L303.28 700.28L304.63 702.29L307.26 704.01L309.83 702.64L312.49 699.62L318.15 696.75L325.26 695.40L329.93 695.47L333.74 695.06L340.66 694.83L344.41 697.78L345.94 705.26L346.34 711.46L346.38 715.11L345.56 718.95L344.38 722.47L343.53 729.72L343.17 732.84L338.51 733.85L337.10 735.93L336.25 738.88L336.52 742.51L338.81 744.62L339.76 749.28L339.28 755.29L340.53 761.64L344.49 773.64L345.35 783.54L346.63 786.60L351.39 786.28L358.18 786.02L360.65 785.92L371.35 783.29L376.42 782.25L379.11 781.38L381.49 780.79L400.68 775.10L410.71 772.38L415.17 771.25L417.55 777.55L418.84 787.74L421.98 792.26L426.31 797.11L428.95 802.39L430.59 809.24L431.31 812.23L431.44 815.07L433.68 818.92L435.90 818.75L444.24 817.56L448.93 827.22L448.72 830.66L447.80 846.46L447.04 849.38L447.35 855.07L449.03 858.71L450.73 863.54L452.34 867.94L457.58 868.91L458.60 872.64L462.24 874.63L468.79 875.72L480.68 874.89L480.34 872.14L479.23 863.71L475.42 864.13L474.32 858.72L473.45 848.29L473.15 840.40L469.92 835.92L470.10 831.58L474.70 829.11L483.45 827.83L490.87 827.04L494.50 826.66L505.02 824.46L503.64 821.83L503.14 818.33L503.14 814.63L502.75 804.19L502.47 795.95L502.16 790.79L503.34 781.26L502.82 776.37L501.44 760.34L500.25 744.37L500.34 739.28L500.32 737.10L500.28 734.51L498.41 727.60L497.67 723.11L497.23 720.45L497.07 717.51L496.94 712.57L496.56 704.92L496.34 702.24L496.10 697.95L495.75 693.78L495.63 688.14L495.63 685.40L495.52 679.86L494.33 669.74L493.66 659.92L493.57 654.76L493.44 637.81L491.98 626.69L491.04 623.87L484.53 619.12L482.13 612.90L480.58 608.70L478.52 605.41L474.47 604.55L470.75 604.84L457.54 607.40L455.46 608.51L449.27 611.83L443.43 612.72L439.31 612.99L429.88 613.76L423.74 612.68L423.94 624.45L425.41 633.52L425.77 635.75L426.32 638.76L410.57 644.35L405.05 644.23L393.73 643.77L390.93 643.38L390.52 638.61L389.75 635.35L389.35 632.43L388.44 621.64L387.64 612.21L386.21 592.72L385.35 588.37L382.85 585.62L377.03 583.36L365.95 583.70L360.42 584.21L356.66 584.69L352.73 585.09L349.05 585.02L344.45 584.12L341.24 583.40L338.53 583.00L333.56 583.45L328.50 584.09L321.30 585.07L315.78 585.62L312.10 585.99L309.55 586.08L311.11 590.03L314.14 593.01L316.89 594.38L322.93 596.60L328.29 599.80L333.32 603.29L337.52 606.79L340.79 609.94L343.64 612.48L344.67 614.95L348.18 619.87L351.00 623.04L353.20 625.51L354.89 629.80L355.22 633.84Z" data-ward="3" /><path id="ward-10" class="ward" d="M702.09 855.34L706.37 855.30L714.29 855.24L717.99 855.02L721.47 855.16L724.89 855.15L728.04 854.93L731.93 854.80L734.38 854.65L738.57 854.52L741.96 854.41L749.82 854.08L756.26 854.59L759.63 854.42L761.74 853.22L762.41 850.19L763.18 846.04L765.74 845.66L770.46 846.57L774.69 847.27L783.17 847.44L786.58 847.78L787.43 854.21L790.70 855.32L794.15 855.87L797.83 857.28L801.98 859.70L805.65 860.36L809.95 861.62L815.76 863.74L819.29 867.00L819.01 869.63L821.14 872.15L825.77 873.62L826.54 877.56L826.44 880.99L825.46 886.66L824.63 891.61L824.07 894.08L824.68 896.42L827.67 897.84L829.48 899.09L830.61 902.01L831.90 905.32L832.16 908.62L831.69 911.00L831.21 915.13L835.10 914.75L841.31 914.05L844.92 914.32L847.07 914.82L849.66 915.86L852.86 917.41L857.84 920.06L860.29 919.93L862.71 918.87L872.47 914.63L882.10 911.56L892.78 910.09L904.61 909.87L907.28 910.16L914.14 910.76L920.93 911.43L929.66 912.58L936.84 912.70L941.45 911.25L948.50 906.99L953.64 901.45L954.22 899.11L957.00 889.22L957.61 885.27L958.61 879.43L959.32 875.17L958.93 870.99L958.52 865.75L958.19 861.66L958.15 858.76L958.09 854.41L958.16 849.33L958.12 849.15L958.06 842.53L958.58 841.12L959.93 837.40L960.97 834.39L963.02 831.36L965.90 827.03L966.75 826.79L970.08 825.39L973.95 823.94L977.45 822.60L980.13 820.87L983.66 818.51L987.70 815.87L991.54 813.45L995.30 806.98L998.25 802.11L998.91 798.92L1000.00 793.57L999.14 790.17L998.14 785.92L997.23 781.99L995.02 779.92L993.01 778.04L990.90 775.90L988.66 773.83L986.30 771.57L983.98 769.34L979.40 764.93L978.20 763.97L975.86 761.45L973.75 759.46L971.36 756.83L968.78 758.45L965.77 757.86L961.02 756.93L954.39 755.63L949.34 756.18L944.66 756.59L941.09 756.56L938.44 756.00L935.88 754.27L933.81 752.87L931.90 751.35L930.08 749.74L926.99 746.91L920.72 741.83L917.92 740.47L911.71 741.60L909.44 742.12L905.34 741.72L900.58 741.04L897.46 741.29L891.86 741.06L888.44 740.72L876.90 739.99L871.97 740.67L863.48 741.85L856.35 742.92L844.01 742.13L838.93 741.46L833.40 740.72L828.46 740.07L825.22 738.80L820.49 737.84L815.25 737.20L804.28 736.08L795.60 734.64L788.80 733.10L780.71 731.23L768.70 727.64L758.83 727.85L752.30 728.48L746.50 729.49L744.05 730.77L744.55 736.84L744.94 740.12L745.83 745.89L745.77 748.26L743.01 750.19L737.41 751.58L736.51 759.51L732.79 759.29L726.75 759.72L720.83 760.52L718.01 760.60L714.89 758.01L707.43 757.79L703.51 758.59L694.55 760.42L694.28 763.35L690.89 769.75L687.38 769.97L683.75 770.19L678.65 770.71L675.25 770.83L672.94 769.36L670.00 765.47L669.28 762.90L667.26 754.18L666.52 748.35L665.04 745.05L655.64 746.38L650.96 746.80L644.01 747.92L644.29 751.18L642.16 759.14L637.97 759.47L635.90 758.85L631.82 757.60L627.06 756.14L623.17 757.09L618.98 757.06L611.93 757.11L604.88 757.15L601.47 757.30L592.46 758.27L589.67 758.30L583.85 758.02L581.28 758.50L576.74 758.94L574.32 759.22L566.23 759.66L559.98 760.54L550.65 761.94L544.08 764.01L541.27 763.18L538.53 761.82L537.48 768.45L537.36 790.43L537.68 801.26L538.40 809.52L542.79 809.53L545.61 808.17L550.76 807.85L555.06 807.45L559.20 807.17L561.62 807.65L564.40 807.81L567.60 808.37L570.14 808.37L572.25 807.77L577.41 808.81L579.56 807.85L582.68 806.65L585.34 806.97L588.11 806.69L593.82 806.49L596.20 808.61L596.71 811.97L597.18 814.37L596.94 817.36L597.02 821.28L597.29 825.64L598.07 827.99L599.75 831.99L602.76 835.75L604.52 841.06L613.43 858.08L617.53 867.60L621.10 865.92L624.63 864.55L631.14 862.47L633.27 861.72L638.55 859.92L641.91 859.12L642.69 856.37L643.51 852.85L643.47 849.17L644.44 846.74L647.34 845.70L653.59 843.78L656.00 842.70L660.43 842.50L664.41 842.66L666.56 841.98L670.23 841.50L673.51 841.58L676.11 840.97L678.83 841.86L680.25 846.01L682.82 855.91L687.01 856.03L690.58 855.85L694.01 855.74L696.83 855.63L699.30 855.49L702.09 855.34Z" data-ward="10" /><path id="ward-19" class="ward" d="M489.48 1024.12L488.85 1026.57L490.20 1031.07L490.95 1035.72L491.18 1044.24L490.35 1047.07L489.24 1049.18L487.49 1053.99L487.01 1057.25L485.93 1061.86L485.38 1065.01L484.68 1070.05L483.65 1074.77L483.21 1080.28L482.27 1087.00L481.62 1091.89L480.93 1097.37L480.42 1101.03L479.90 1106.55L484.18 1106.30L485.90 1101.36L491.43 1098.88L497.28 1097.52L503.34 1097.14L512.70 1096.28L516.92 1096.89L519.94 1096.53L519.78 1100.39L519.41 1109.26L518.92 1117.79L518.38 1120.05L518.18 1130.29L518.39 1145.25L517.94 1151.30L518.07 1159.59L519.03 1163.77L519.84 1166.34L521.98 1171.40L523.12 1174.48L524.38 1179.17L524.72 1182.82L524.99 1187.88L525.06 1190.33L525.60 1193.39L527.57 1194.77L532.14 1194.63L543.48 1191.87L546.23 1190.83L550.76 1188.33L555.28 1186.80L558.29 1185.86L567.04 1184.76L570.20 1184.71L572.25 1183.90L573.42 1181.73L573.21 1176.10L570.77 1174.42L572.10 1172.17L573.32 1165.30L574.41 1162.62L575.15 1156.87L574.08 1153.92L572.64 1148.21L570.80 1142.60L570.12 1140.20L569.71 1137.75L569.12 1132.94L568.53 1130.76L568.01 1127.87L567.58 1124.63L566.73 1119.97L564.91 1113.95L564.24 1109.34L568.04 1106.00L572.73 1103.99L577.78 1103.11L586.38 1103.44L596.97 1103.73L599.87 1103.75L602.22 1104.92L603.23 1107.50L605.14 1111.17L607.69 1116.82L610.30 1121.47L612.10 1124.99L614.68 1129.73L618.06 1137.22L620.88 1144.66L621.96 1147.01L622.84 1149.38L623.48 1152.50L625.20 1157.36L628.09 1163.07L631.19 1166.75L633.35 1168.78L638.33 1170.47L642.48 1170.58L646.16 1170.70L648.37 1170.84L656.08 1172.82L658.93 1174.69L661.35 1174.60L660.98 1171.78L660.69 1168.71L663.97 1168.19L667.97 1167.88L672.38 1167.13L671.13 1163.68L669.92 1161.23L666.76 1153.99L664.89 1150.59L663.18 1147.13L661.70 1143.83L660.49 1141.24L657.60 1134.63L655.94 1131.50L654.57 1129.11L653.58 1126.83L652.34 1123.55L650.33 1119.26L647.74 1116.62L652.61 1105.99L652.21 1097.25L651.44 1087.85L650.30 1080.14L649.91 1077.52L648.12 1069.36L646.32 1061.21L644.21 1042.82L641.94 1034.29L638.17 1025.93L634.61 1017.23L631.50 1016.31L626.37 1016.51L619.32 1016.44L615.97 1016.48L612.60 1015.99L612.12 1013.05L611.54 1005.18L604.25 1006.59L601.51 1007.72L592.97 990.58L589.74 991.45L586.31 992.55L578.46 992.70L573.02 994.25L570.45 995.11L567.78 995.89L565.37 991.76L563.86 983.74L563.51 979.86L561.64 978.16L561.24 974.12L557.19 973.46L555.09 973.98L550.99 975.56L548.74 975.87L544.88 976.08L540.51 977.05L536.05 977.76L536.71 982.19L536.24 990.30L536.14 997.90L536.40 1001.94L536.34 1005.03L536.41 1008.75L534.41 1014.78L524.65 1014.16L509.23 1016.39L505.41 1017.01L502.75 1017.51L496.85 1021.70L493.38 1022.70L489.48 1024.12Z" data-ward="19" /><path id="ward-18" class="ward" d="M518.92 1117.79L519.41 1109.26L519.78 1100.39L519.94 1096.53L516.92 1096.89L512.70 1096.28L503.34 1097.14L497.28 1097.52L491.43 1098.88L485.90 1101.36L484.18 1106.30L479.90 1106.55L479.84 1109.80L482.77 1118.32L484.65 1122.23L486.06 1124.72L490.39 1131.77L491.76 1133.89L492.98 1135.75L494.42 1137.95L497.34 1142.80L499.04 1146.81L500.53 1152.03L501.50 1155.67L500.89 1161.74L498.83 1166.41L495.78 1172.78L491.50 1179.58L490.23 1181.42L488.77 1183.44L485.44 1187.95L482.84 1188.03L479.27 1187.00L459.24 1179.75L455.73 1178.46L452.24 1177.24L448.53 1176.72L443.28 1176.02L431.95 1167.75L424.11 1164.35L417.83 1161.82L414.75 1157.11L410.04 1151.72L405.77 1148.10L400.28 1147.44L392.64 1148.86L388.78 1149.24L386.49 1148.15L382.67 1146.33L380.60 1145.74L375.31 1144.22L370.52 1140.11L363.82 1138.63L357.36 1138.45L353.56 1139.18L349.40 1141.38L346.03 1145.29L343.48 1148.62L339.67 1153.07L337.32 1155.81L336.88 1159.56L337.12 1163.26L340.10 1173.63L345.69 1184.80L349.64 1189.51L352.02 1191.87L354.40 1193.20L360.33 1196.50L367.42 1205.38L367.57 1211.41L368.16 1215.87L368.93 1217.97L371.69 1222.38L374.53 1226.40L377.28 1232.18L381.90 1236.50L385.96 1239.75L390.48 1240.08L394.66 1239.07L396.92 1241.69L403.47 1247.12L408.41 1251.50L411.20 1253.96L417.25 1260.74L417.88 1263.83L422.76 1261.98L424.82 1261.17L427.53 1260.07L429.87 1259.13L432.01 1258.32L434.71 1257.30L437.78 1255.89L440.42 1254.88L443.57 1253.57L446.97 1252.24L449.30 1251.26L452.30 1250.02L455.26 1248.83L458.36 1247.58L461.56 1246.28L465.24 1244.84L468.27 1243.54L471.39 1242.31L474.20 1242.27L478.47 1242.29L482.23 1242.22L485.44 1242.20L488.82 1242.25L491.70 1242.18L494.24 1242.76L497.07 1242.31L499.44 1241.87L502.61 1240.74L506.17 1239.47L511.06 1238.66L514.60 1238.42L517.55 1238.18L520.02 1237.92L522.19 1237.41L524.44 1236.69L527.98 1237.16L528.25 1241.33L528.25 1243.65L528.36 1246.37L528.19 1248.86L527.86 1253.19L528.69 1258.14L528.81 1261.03L529.22 1264.10L529.54 1267.00L529.82 1270.30L529.97 1272.91L530.34 1275.45L531.21 1280.47L532.03 1282.74L535.06 1282.44L537.24 1281.78L539.28 1281.07L542.43 1281.32L545.42 1281.45L547.83 1281.42L551.55 1283.34L553.96 1285.70L557.75 1286.25L560.75 1286.09L563.91 1285.04L567.04 1281.53L570.28 1281.03L573.15 1281.05L579.17 1279.55L582.54 1278.92L586.71 1277.35L591.36 1276.27L596.21 1275.97L601.85 1275.87L606.31 1275.31L610.48 1275.02L614.24 1275.29L617.81 1276.69L620.32 1276.33L624.49 1275.47L627.83 1274.73L631.37 1273.94L634.45 1273.31L636.99 1273.01L643.79 1273.20L643.83 1269.76L646.70 1268.76L657.81 1270.31L657.09 1267.29L656.86 1264.31L656.44 1261.12L651.54 1259.73L649.86 1257.28L649.05 1234.34L651.69 1233.70L656.03 1233.11L659.88 1233.15L664.26 1232.96L670.61 1232.11L675.20 1231.19L674.23 1224.24L673.09 1217.14L671.99 1212.21L671.27 1208.18L669.96 1203.28L668.90 1198.45L667.40 1193.24L666.37 1189.12L664.50 1183.77L661.35 1174.60L658.93 1174.69L656.08 1172.82L648.37 1170.84L646.16 1170.70L642.48 1170.58L638.33 1170.47L633.35 1168.78L631.19 1166.75L628.09 1163.07L625.20 1157.36L623.48 1152.50L622.84 1149.38L621.96 1147.01L620.88 1144.66L618.06 1137.22L614.68 1129.73L612.10 1124.99L610.30 1121.47L607.69 1116.82L605.14 1111.17L603.23 1107.50L602.22 1104.92L599.87 1103.75L596.97 1103.73L586.38 1103.44L577.78 1103.11L572.73 1103.99L568.04 1106.00L564.24 1109.34L564.91 1113.95L566.73 1119.97L567.58 1124.63L568.01 1127.87L568.53 1130.76L569.12 1132.94L569.71 1137.75L570.12 1140.20L570.80 1142.60L572.64 1148.21L574.08 1153.92L575.15 1156.87L574.41 1162.62L573.32 1165.30L572.10 1172.17L570.77 1174.42L573.21 1176.10L573.42 1181.73L572.25 1183.90L570.20 1184.71L567.04 1184.76L558.29 1185.86L555.28 1186.80L550.76 1188.33L546.23 1190.83L543.48 1191.87L532.14 1194.63L527.57 1194.77L525.60 1193.39L525.06 1190.33L524.99 1187.88L524.72 1182.82L524.38 1179.17L523.12 1174.48L521.98 1171.40L519.84 1166.34L519.03 1163.77L518.07 1159.59L517.94 1151.30L518.39 1145.25L518.18 1130.29L518.38 1120.05L518.92 1117.79Z" data-ward="18" /><path id="ward-16" class="ward" d="M482.68 1398.11L473.76 1396.87L467.86 1398.50L458.13 1397.87L445.30 1398.47L437.51 1403.59L433.15 1409.36L428.19 1412.67L412.33 1418.58L409.17 1419.65L396.46 1423.51L388.50 1431.26L364.05 1458.54L366.47 1462.50L367.90 1464.82L371.03 1469.94L373.90 1474.63L378.54 1483.02L383.36 1491.74L387.36 1498.79L389.82 1503.64L390.03 1507.20L391.97 1510.86L394.63 1515.87L397.27 1520.85L398.79 1524.47L400.09 1526.94L395.33 1535.95L390.50 1542.70L388.54 1544.08L384.62 1554.66L382.26 1561.05L380.36 1568.05L378.13 1572.95L375.32 1577.66L372.57 1582.30L370.34 1586.04L369.26 1589.72L367.82 1594.66L365.85 1597.45L363.80 1599.59L361.36 1602.16L358.01 1605.67L356.80 1609.75L355.97 1612.57L354.78 1616.58L352.11 1619.35L349.47 1622.09L350.20 1628.49L349.48 1633.03L350.97 1636.51L353.99 1643.54L353.92 1646.16L356.10 1653.23L357.16 1656.67L359.54 1664.39L360.36 1667.06L365.81 1667.44L372.35 1679.39L372.93 1683.06L377.12 1688.97L383.69 1692.90L387.56 1698.68L389.20 1705.70L390.18 1709.88L390.94 1713.70L393.98 1716.21L397.93 1719.48L401.47 1725.38L405.02 1731.27L407.68 1736.72L412.86 1747.33L413.46 1752.48L413.79 1755.33L429.27 1775.43L443.43 1790.78L458.74 1765.53L464.16 1757.50L464.24 1757.60L476.92 1738.56L494.55 1735.89L544.90 1743.27L570.35 1764.57L590.84 1790.16L626.20 1843.81L637.95 1863.01L653.46 1872.77L672.09 1872.67L691.19 1871.72L744.28 1866.96L762.56 1861.26L722.34 1821.17L717.84 1808.58L717.00 1800.21L716.57 1786.78L721.74 1773.24L726.30 1763.50L727.51 1760.06L729.34 1749.76L729.93 1740.24L731.34 1722.70L735.40 1712.07L734.66 1709.60L720.40 1712.44L713.56 1710.88L711.29 1710.36L692.93 1704.69L689.26 1702.61L685.74 1698.21L681.64 1689.38L674.80 1677.04L669.22 1666.65L659.72 1653.62L648.43 1643.23L641.13 1640.56L629.56 1642.15L614.26 1645.18L604.13 1646.83L597.10 1649.23L592.43 1650.60L580.85 1643.83L575.14 1637.24L569.92 1632.66L563.12 1626.65L559.83 1623.73L539.86 1602.56L514.23 1602.32L507.83 1600.36L503.61 1596.48L503.14 1592.09L503.18 1587.09L503.45 1581.06L503.14 1576.86L502.79 1572.19L497.98 1564.14L490.48 1551.57L490.75 1539.43L491.05 1536.02L491.51 1531.72L492.04 1527.32L492.81 1521.77L493.65 1515.69L494.21 1512.51L494.66 1510.02L495.65 1506.63L496.69 1503.06L499.27 1494.15L500.46 1490.40L502.36 1484.36L505.33 1472.86L505.80 1470.26L506.19 1468.10L509.35 1460.27L512.95 1450.84L519.00 1424.67L521.66 1415.87L522.59 1412.56L518.85 1411.10L509.18 1407.34L507.06 1406.52L497.60 1404.15L490.84 1402.51L482.68 1398.11Z" data-ward="16" /><path id="ward-22" class="ward" d="M309.45 884.59L305.26 883.67L298.85 882.06L293.31 880.66L289.01 879.50L284.71 879.18L282.33 879.44L279.08 879.60L276.48 877.17L273.89 874.73L269.67 876.03L265.41 877.67L261.27 877.70L257.73 877.90L254.31 878.18L253.01 875.53L251.12 871.66L249.23 867.79L249.13 856.68L249.89 849.30L250.19 846.15L246.90 835.01L242.36 828.25L238.64 822.86L230.90 811.12L229.10 808.14L224.12 799.78L222.35 797.52L220.27 798.54L204.80 805.53L197.10 807.55L191.30 809.07L191.50 812.74L191.83 818.86L193.90 820.80L197.23 823.94L202.49 834.03L204.02 837.05L208.58 846.05L211.31 851.46L214.80 858.36L216.05 860.77L219.21 866.62L221.25 867.97L224.73 870.28L227.77 872.62L230.82 874.97L230.30 877.74L225.76 880.01L218.98 883.40L204.56 890.62L178.86 903.47L176.73 906.13L179.99 907.62L180.10 907.74L181.26 908.91L181.87 909.43L185.90 909.52L187.70 911.06L189.32 913.70L189.45 915.97L189.58 918.20L186.66 921.73L186.81 924.61L186.95 927.35L190.09 930.34L192.27 931.99L194.46 933.64L193.71 937.37L192.67 941.02L190.70 947.91L179.98 969.15L177.18 974.69L175.18 976.61L170.55 981.08L166.03 984.80L161.96 989.84L159.02 993.47L153.75 997.75L144.08 998.51L140.82 998.77L136.70 994.12L132.50 995.23L129.81 995.91L127.92 998.83L126.10 1001.66L122.34 1006.27L123.04 1012.27L123.51 1016.29L123.11 1018.82L122.67 1021.60L121.73 1025.65L122.85 1030.37L124.08 1035.60L124.56 1039.30L125.04 1043.00L123.22 1046.11L123.70 1050.69L125.39 1053.09L126.93 1055.29L129.22 1058.52L128.20 1063.80L127.76 1066.08L126.56 1069.51L125.48 1072.60L125.67 1075.83L126.12 1083.61L126.44 1087.40L125.92 1091.52L125.59 1094.14L125.57 1097.22L125.70 1099.59L126.20 1102.53L128.25 1105.95L127.22 1109.63L124.66 1118.79L123.86 1121.64L123.08 1124.42L122.35 1127.02L121.75 1129.19L120.63 1133.16L119.71 1136.46L119.78 1141.04L119.03 1148.36L119.27 1151.52L120.60 1157.28L124.29 1162.39L124.59 1162.80L126.20 1165.03L116.19 1178.49L114.89 1185.06L114.39 1187.62L114.28 1188.16L113.12 1194.02L113.33 1196.40L113.74 1201.17L113.94 1203.48L114.59 1206.18L113.90 1210.10L112.86 1216.00L109.87 1221.71L110.70 1223.60L110.85 1223.94L112.60 1227.94L113.95 1231.04L110.45 1233.76L103.40 1239.20L101.82 1240.42L99.15 1242.44L98.49 1245.32L97.87 1248.04L96.27 1250.60L94.28 1253.79L92.84 1256.87L91.73 1259.02L90.62 1261.18L84.55 1264.86L80.68 1270.08L78.70 1272.76L67.65 1290.62L56.41 1308.79L48.03 1322.32L55.43 1326.16L68.31 1315.79L96.28 1299.41L142.20 1271.35L155.98 1265.28L160.30 1261.19L161.41 1263.54L180.98 1256.60L200.17 1254.85L234.74 1250.17L251.07 1247.01L264.90 1246.25L282.41 1243.22L291.08 1239.54L296.94 1238.90L306.98 1237.54L317.37 1236.54L324.05 1236.03L330.26 1235.19L336.24 1233.59L342.18 1231.63L346.75 1229.35L349.72 1227.11L350.89 1223.36L348.35 1219.96L342.34 1214.05L337.45 1209.53L331.16 1202.42L329.18 1199.89L325.76 1194.47L324.17 1192.15L322.52 1189.48L320.86 1186.82L317.65 1181.71L317.15 1178.52L316.55 1174.76L313.70 1158.17L312.36 1151.48L311.21 1147.08L310.48 1142.83L309.80 1138.05L309.37 1135.53L308.67 1131.29L308.31 1129.10L307.57 1126.50L306.58 1123.95L305.57 1121.38L304.70 1119.37L303.84 1117.36L302.39 1114.16L300.61 1110.19L299.67 1107.64L296.50 1099.01L294.60 1092.83L293.71 1089.92L292.55 1086.17L291.16 1081.67L289.76 1077.17L289.01 1075.12L287.52 1070.99L285.92 1066.28L295.55 1063.96L299.37 1063.22L303.19 1062.47L312.29 1061.04L321.47 1060.32L328.24 1059.62L331.74 1059.04L338.86 1057.25L341.87 1056.29L344.64 1055.34L346.72 1054.49L351.20 1052.65L358.44 1049.31L361.23 1047.61L364.78 1045.12L368.74 1042.35L371.87 1040.19L374.26 1038.18L376.64 1036.16L378.64 1034.36L380.66 1032.55L383.60 1030.04L385.21 1028.59L389.31 1024.50L392.99 1020.83L395.73 1016.88L397.22 1013.59L398.71 1010.29L399.38 1006.90L400.42 1001.72L401.02 997.50L402.28 994.38L405.02 988.82L406.71 985.30L408.98 980.49L412.51 973.29L416.04 966.08L417.66 962.64L420.26 957.82L423.41 953.62L425.60 950.48L427.79 947.35L429.93 944.27L432.06 941.19L434.26 937.87L436.35 936.01L439.49 935.53L442.38 935.21L445.25 934.23L447.51 933.42L452.80 931.32L457.69 927.10L460.42 923.62L457.86 920.42L454.19 916.95L449.50 914.07L443.25 912.55L435.32 911.11L432.00 911.19L426.88 911.98L423.59 917.09L421.58 919.76L419.48 920.64L414.08 922.84L404.01 925.81L395.59 928.59L392.71 933.57L384.23 937.75L377.85 938.96L368.72 943.00L360.03 945.32L352.66 946.77L342.27 945.82L333.54 944.65L326.29 942.82L318.55 937.81L308.51 928.59L305.16 924.11L303.42 921.72L301.05 918.00L299.95 914.43L300.12 909.49L300.42 903.53L300.71 900.75L300.99 897.87L302.46 895.18L304.94 890.67L307.46 887.15L309.45 884.59Z" data-ward="22" /><path id="ward-1" class="ward" d="M222.66 463.90L213.63 467.21L198.34 466.78L194.50 466.33L169.66 463.43L154.85 458.67L133.42 467.61L125.32 470.83L110.58 477.21L96.14 483.28L91.04 485.47L75.06 492.23L55.33 500.59L35.55 508.96L16.07 478.86L8.45 467.51L0.00 457.27L2.18 479.71L4.56 496.16L5.93 506.31L7.57 512.56L11.10 526.92L12.72 533.71L17.56 554.03L18.92 559.77L20.53 566.62L21.81 571.88L23.03 575.17L27.59 587.07L28.65 590.65L31.79 595.99L36.96 605.82L40.68 612.91L44.27 617.83L48.14 623.14L52.15 628.66L56.79 635.02L55.66 638.29L64.54 655.01L68.76 664.55L72.10 666.74L74.92 668.59L84.95 670.03L93.56 669.27L96.92 669.05L100.11 670.29L104.19 671.86L107.67 676.70L111.57 682.14L114.28 681.84L118.29 681.90L116.92 685.27L117.16 688.16L117.78 693.84L120.95 692.31L126.59 689.59L128.94 688.91L135.64 687.79L138.90 686.96L142.16 686.13L146.59 685.29L149.72 686.53L152.16 692.90L153.79 698.07L154.91 702.24L155.99 705.62L158.14 706.71L161.42 706.10L163.58 705.36L167.62 703.98L171.88 702.53L174.90 701.08L178.12 699.99L181.92 698.70L188.64 696.07L192.58 693.24L195.10 691.50L197.88 688.54L197.19 682.60L197.07 680.02L201.03 678.85L204.97 678.05L208.36 677.91L212.00 674.84L215.04 674.21L217.79 674.38L220.49 675.74L222.18 679.19L225.48 679.22L227.79 679.32L231.12 679.46L230.95 686.16L230.65 689.89L232.56 691.26L237.05 690.81L241.54 690.36L247.39 690.23L252.78 689.56L251.73 685.70L249.80 679.59L249.57 675.22L249.33 670.07L249.09 664.92L249.17 658.75L249.55 656.03L250.81 648.46L254.45 648.76L262.30 649.40L272.52 650.70L275.45 651.88L283.90 655.37L291.66 653.64L294.41 653.02L297.94 652.23L301.88 651.39L304.19 651.30L307.46 651.21L310.81 651.12L314.29 651.03L317.38 650.98L321.26 651.41L324.03 651.73L326.73 652.04L331.15 652.35L334.38 652.39L337.19 652.42L340.57 652.45L343.76 652.50L349.55 655.00L350.05 651.66L351.94 647.94L355.14 645.71L358.47 643.64L361.68 641.12L359.46 638.95L355.22 633.84L354.89 629.80L353.20 625.51L351.00 623.04L348.18 619.87L344.67 614.95L343.64 612.48L340.79 609.94L337.52 606.79L333.32 603.29L328.29 599.80L322.93 596.60L316.89 594.38L314.14 593.01L311.11 590.03L309.55 586.08L305.56 583.84L301.99 581.50L298.68 579.59L295.91 577.13L293.51 575.26L288.67 571.49L285.56 568.93L283.56 567.86L279.15 565.21L270.19 562.68L266.17 561.40L262.16 560.13L257.61 557.64L254.10 555.72L251.31 554.59L246.60 553.20L242.20 553.06L241.76 550.81L240.62 548.83L238.89 545.86L236.33 542.83L234.28 540.54L231.95 533.35L231.59 529.32L231.15 524.26L230.88 519.48L231.09 513.80L230.47 506.58L228.29 501.33L227.17 498.15L226.37 491.22L225.73 485.78L224.97 479.20L224.37 473.97L223.57 467.26L224.54 465.02L222.66 463.90Z" data-ward="1" /><path id="ward-23" class="ward" d="M159.24 777.12L162.23 775.86L164.94 774.71L169.04 772.98L172.79 772.97L175.65 774.05L184.26 784.41L185.80 786.26L188.68 790.89L190.10 794.82L190.41 797.13L190.83 800.40L191.30 809.07L197.10 807.55L204.80 805.53L220.27 798.54L222.35 797.52L224.12 799.78L229.10 808.14L230.90 811.12L238.64 822.86L242.36 828.25L246.90 835.01L250.19 846.15L249.89 849.30L249.13 856.68L249.23 867.79L251.12 871.66L253.01 875.53L254.31 878.18L257.73 877.90L261.27 877.70L265.41 877.67L269.67 876.03L273.89 874.73L276.48 877.17L279.08 879.60L282.33 879.44L284.71 879.18L289.01 879.50L293.31 880.66L298.85 882.06L305.26 883.67L309.45 884.59L312.91 880.66L318.54 873.82L322.11 870.67L323.33 868.38L325.70 867.94L329.44 869.47L331.95 870.25L334.70 870.92L338.02 870.72L340.30 869.79L344.27 867.92L348.51 866.38L356.14 864.33L360.18 863.94L362.89 863.76L365.28 864.20L371.38 865.12L373.71 863.05L374.94 860.70L379.72 860.29L382.00 860.57L386.19 872.18L386.35 875.51L386.84 879.46L389.69 880.12L396.37 876.81L403.09 875.29L410.89 873.49L417.86 872.13L423.22 870.13L427.87 866.96L430.23 867.04L435.75 869.72L440.79 869.68L445.95 869.11L448.65 868.68L452.34 867.94L450.73 863.54L449.03 858.71L447.35 855.07L447.04 849.38L447.80 846.46L448.72 830.66L448.93 827.22L444.24 817.56L435.90 818.75L433.68 818.92L431.44 815.07L431.31 812.23L430.59 809.24L428.95 802.39L426.31 797.11L421.98 792.26L418.84 787.74L417.55 777.55L415.17 771.25L410.71 772.38L400.68 775.10L381.49 780.79L379.11 781.38L376.42 782.25L371.35 783.29L360.65 785.92L358.18 786.02L351.39 786.28L346.63 786.60L345.35 783.54L344.49 773.64L340.53 761.64L339.28 755.29L339.76 749.28L338.81 744.62L336.52 742.51L336.25 738.88L337.10 735.93L338.51 733.85L343.17 732.84L343.53 729.72L344.38 722.47L345.56 718.95L346.38 715.11L346.34 711.46L345.94 705.26L344.41 697.78L340.66 694.83L333.74 695.06L329.93 695.47L325.26 695.40L318.15 696.75L312.49 699.62L309.83 702.64L307.26 704.01L304.63 702.29L303.28 700.28L299.24 695.64L297.69 691.76L295.54 688.99L295.13 686.06L295.46 683.18L295.55 680.20L298.60 675.77L300.88 673.12L307.31 672.56L311.81 673.09L318.08 673.06L326.12 670.48L329.75 669.91L335.64 671.71L339.47 672.37L343.91 669.65L348.16 667.58L349.28 661.59L349.34 657.61L349.55 655.00L343.76 652.50L340.57 652.45L337.19 652.42L334.38 652.39L331.15 652.35L326.73 652.04L324.03 651.73L321.26 651.41L317.38 650.98L314.29 651.03L310.81 651.12L307.46 651.21L304.19 651.30L301.88 651.39L297.94 652.23L294.41 653.02L291.66 653.64L283.90 655.37L275.45 651.88L272.52 650.70L262.30 649.40L254.45 648.76L250.81 648.46L249.55 656.03L249.17 658.75L249.09 664.92L249.33 670.07L249.57 675.22L249.80 679.59L251.73 685.70L252.78 689.56L247.39 690.23L241.54 690.36L237.05 690.81L232.56 691.26L230.65 689.89L230.95 686.16L231.12 679.46L227.79 679.32L225.48 679.22L222.18 679.19L220.49 675.74L217.79 674.38L215.04 674.21L212.00 674.84L208.36 677.91L204.97 678.05L201.03 678.85L197.07 680.02L197.19 682.60L197.88 688.54L195.10 691.50L192.58 693.24L188.64 696.07L181.92 698.70L178.12 699.99L174.90 701.08L171.88 702.53L167.62 703.98L163.58 705.36L161.42 706.10L158.14 706.71L155.99 705.62L154.91 702.24L153.79 698.07L152.16 692.90L149.72 686.53L146.59 685.29L142.16 686.13L138.90 686.96L135.64 687.79L128.94 688.91L126.59 689.59L120.95 692.31L117.78 693.84L118.12 696.87L120.67 696.97L123.37 697.05L124.17 699.84L128.65 701.43L128.56 704.30L128.44 708.50L127.74 713.01L127.61 718.53L127.54 721.94L127.90 727.69L128.57 733.26L129.59 738.36L130.26 740.87L132.76 745.55L139.14 753.77L144.47 760.64L149.80 767.03L156.42 774.18L159.24 777.12Z" data-ward="23" /><path id="ward-2" class="ward" d="M491.04 623.87L501.00 624.78L503.46 625.26L503.15 620.44L502.96 618.12L502.81 615.95L500.50 588.84L500.22 585.58L496.98 560.23L494.57 525.71L493.60 511.90L496.79 511.32L500.07 510.72L517.64 508.13L528.47 506.31L540.56 504.59L542.97 503.16L541.47 491.63L540.77 486.19L539.83 481.15L537.96 471.06L536.09 460.98L535.00 455.11L534.13 451.50L534.32 448.29L534.54 445.74L536.44 432.61L536.87 429.88L537.85 423.40L538.64 418.46L538.98 414.05L539.30 409.77L536.98 410.11L531.99 410.85L528.69 411.34L524.13 412.01L521.32 412.43L516.13 413.19L512.12 413.79L508.14 414.37L505.99 414.69L496.54 416.53L493.72 417.33L489.59 418.50L485.95 419.81L479.42 421.85L477.29 422.17L473.75 422.59L467.23 423.37L458.63 424.40L452.36 425.06L447.33 425.59L441.40 426.17L437.77 426.63L431.96 426.51L424.41 426.45L416.92 426.78L405.11 430.14L401.07 431.30L395.42 432.91L395.74 435.88L391.84 436.91L387.06 438.16L383.36 439.14L385.27 449.70L386.20 454.84L387.24 460.61L382.88 458.24L380.37 458.89L371.04 461.48L369.24 455.80L363.40 455.46L352.56 454.84L332.84 460.89L322.84 463.96L317.76 465.52L316.57 473.17L317.27 476.12L310.40 479.32L300.23 478.82L297.61 475.12L271.32 479.88L269.68 468.08L249.66 467.51L241.56 467.31L238.26 469.09L231.66 470.82L228.88 467.61L224.54 465.02L223.57 467.26L224.37 473.97L224.97 479.20L225.73 485.78L226.37 491.22L227.17 498.15L228.29 501.33L230.47 506.58L231.09 513.80L230.88 519.48L231.15 524.26L231.59 529.32L231.95 533.35L234.28 540.54L236.33 542.83L238.89 545.86L240.62 548.83L241.76 550.81L242.20 553.06L246.60 553.20L251.31 554.59L254.10 555.72L257.61 557.64L262.16 560.13L266.17 561.40L270.19 562.68L279.15 565.21L283.56 567.86L285.56 568.93L288.67 571.49L293.51 575.26L295.91 577.13L298.68 579.59L301.99 581.50L305.56 583.84L309.55 586.08L312.10 585.99L315.78 585.62L321.30 585.07L328.50 584.09L333.56 583.45L338.53 583.00L341.24 583.40L344.45 584.12L349.05 585.02L352.73 585.09L356.66 584.69L360.42 584.21L365.95 583.70L377.03 583.36L382.85 585.62L385.35 588.37L386.21 592.72L387.64 612.21L388.44 621.64L389.35 632.43L389.75 635.35L390.52 638.61L390.93 643.38L393.73 643.77L405.05 644.23L410.57 644.35L426.32 638.76L425.77 635.75L425.41 633.52L423.94 624.45L423.74 612.68L429.88 613.76L439.31 612.99L443.43 612.72L449.27 611.83L455.46 608.51L457.54 607.40L470.75 604.84L474.47 604.55L478.52 605.41L480.58 608.70L482.13 612.90L484.53 619.12L491.04 623.87Z" data-ward="2" /></svg>