<svg viewBox="0 0 1000.00 684.84" xmlns="http://www.w3.org/2000/svg"><style>.ward { fill: #e2e8f0; stroke: #fff; stroke-width: 0.5px; } .ward:hover { fill: #cbd5e1; }</style><path id="ward-12" class="ward" d="M237.44 389.74L238.83 391.03L240.84 392.44L246.49 406.44L274.60 407.83L275.31 405.36L273.54 399.68L279.02 398.69L283.43 398.00L298.39 395.64L302.31 395.61L305.58 395.19L307.32 394.96L310.93 394.13L315.40 393.91L315.54 395.69L315.48 397.24L315.80 406.41L315.90 410.33L321.64 411.17L326.16 411.90L332.54 414.21L331.78 415.68L330.73 417.28L325.20 418.55L323.92 421.11L323.93 422.34L323.91 430.50L323.90 432.89L325.70 432.96L327.13 432.84L327.42 432.98L328.41 433.46L330.15 434.33L333.13 435.78L340.08 434.69L344.60 434.00L362.38 434.40L377.20 423.31L384.18 420.61L383.76 417.67L390.35 414.81L392.94 410.58L394.52 408.72L396.45 408.25L397.88 410.47L405.35 413.46L407.53 412.24L409.27 411.09L408.45 406.00L407.59 400.67L406.50 388.58L401.61 389.99L393.41 392.36L392.60 387.75L391.18 387.64L390.51 385.70L389.22 383.69L388.34 380.93L387.12 374.92L385.38 375.08L384.10 373.79L383.54 372.62L383.55 369.66L382.48 368.74L383.02 365.29L383.26 363.48L383.38 361.95L383.47 360.02L374.65 359.43L359.99 358.41L356.58 358.22L351.52 363.40L346.85 366.87L342.98 368.66L339.48 370.28L330.45 371.93L329.39 372.95L328.08 373.38L323.74 374.51L324.58 361.91L326.62 358.16L329.16 355.63L330.35 352.78L335.14 344.29L336.99 341.92L339.36 339.93L340.70 338.04L341.40 335.68L341.88 334.04L345.06 332.52L345.64 330.60L346.99 329.53L347.62 328.14L348.83 326.53L350.72 322.61L353.51 321.07L354.69 319.53L355.90 318.87L358.49 318.18L359.98 317.30L363.03 315.50L364.36 314.32L366.07 312.79L371.31 311.09L370.73 306.56L369.75 305.85L363.27 305.72L361.84 303.54L359.94 301.76L353.70 301.54L352.34 302.32L351.54 304.90L349.54 306.14L346.75 307.87L337.02 310.35L337.40 311.57L337.58 313.39L337.79 315.56L337.94 317.06L338.25 318.33L339.19 322.17L338.99 323.25L338.29 325.64L337.58 328.02L337.06 330.12L336.54 332.21L336.17 334.30L334.95 335.07L334.17 336.07L333.68 337.28L332.85 339.38L331.62 341.39L330.67 342.76L328.39 346.22L323.33 349.17L319.38 348.67L313.17 351.78L294.00 351.20L278.90 354.69L272.55 355.94L270.41 356.30L269.14 356.75L267.58 357.26L265.93 357.73L264.74 358.19L263.55 358.65L261.03 359.53L258.87 360.16L257.75 360.56L255.61 361.29L254.09 361.78L252.60 362.29L251.47 362.67L249.09 363.41L247.98 363.76L246.62 364.19L244.84 364.93L242.00 365.50L240.45 363.62L239.36 362.47L238.22 362.17L229.86 365.05L228.06 365.29L233.70 379.94L235.86 385.74L237.44 389.74Z" data-ward="12" /><path id="ward-15" class="ward" d="M326.01 565.04L319.95 569.13L318.05 569.73L309.32 572.36L306.41 573.23L302.96 572.72L301.43 573.38L298.51 574.61L295.90 561.64L290.93 550.31L281.63 551.33L279.32 550.03L274.11 550.70L267.78 553.47L288.64 581.86L294.99 590.87L302.67 601.78L315.71 621.81L323.88 640.91L328.84 652.40L330.74 650.94L330.98 649.70L331.26 648.22L331.62 646.31L333.25 646.05L334.89 645.79L337.25 645.48L338.42 645.33L341.33 644.95L342.59 644.80L344.09 644.62L345.70 644.43L349.27 644.00L350.28 646.20L352.43 646.16L354.23 643.49L355.60 645.37L358.38 653.57L358.79 654.83L360.72 660.79L361.68 663.78L364.02 670.92L364.53 672.49L366.80 679.36L368.14 683.44L368.60 684.84L369.56 684.18L372.13 682.39L375.99 679.71L379.55 677.46L383.29 674.60L385.25 674.85L387.49 673.96L391.06 672.52L392.37 671.98L394.11 671.33L395.89 670.65L397.30 670.28L398.71 669.92L400.19 669.57L401.52 669.23L406.41 668.10L407.85 668.00L408.42 669.11L408.99 670.23L410.52 670.19L412.89 670.15L416.54 670.07L416.98 667.74L423.06 667.41L424.97 667.38L427.11 666.64L428.39 666.20L432.39 665.14L434.23 664.53L436.38 663.92L437.78 663.30L439.82 662.97L441.87 662.65L442.91 662.43L445.46 661.88L447.63 661.33L449.85 660.76L453.77 659.75L456.44 659.02L460.33 657.95L465.89 656.41L467.17 656.05L466.62 654.68L465.82 653.28L464.30 650.44L462.55 646.88L462.15 646.27L461.72 645.62L460.69 644.89L459.28 644.09L458.82 643.96L458.14 643.77L456.22 642.77L455.10 642.77L454.42 642.75L452.41 641.37L452.04 640.31L451.73 639.40L451.15 638.47L450.21 636.91L450.06 636.70L448.93 635.10L448.41 634.02L448.13 632.82L447.99 631.68L447.89 630.07L447.67 628.88L447.25 628.24L446.86 627.64L446.15 626.60L445.08 625.06L443.01 622.37L442.10 624.07L441.28 624.87L436.58 627.52L431.93 628.70L428.94 630.71L428.03 631.32L423.77 632.89L422.81 630.24L421.34 626.94L419.89 623.58L417.63 621.16L416.05 619.66L414.99 620.19L413.93 620.73L412.27 620.21L410.86 619.38L406.43 618.26L400.89 617.10L400.22 615.77L398.28 611.96L390.10 614.97L390.15 617.97L389.99 620.67L380.05 625.35L374.98 626.86L373.90 627.18L364.34 630.01L362.39 626.73L360.85 626.40L350.48 629.49L349.69 628.40L347.99 623.85L326.72 566.94L326.01 565.04Z" data-ward="15" /><path id="ward-14" class="ward" d="M362.17 503.85L361.83 502.50L361.74 501.52L361.36 500.65L360.35 499.70L359.08 498.46L358.16 497.49L357.95 496.91L358.04 496.02L358.12 495.60L358.63 494.70L359.09 494.09L359.44 493.51L359.53 492.91L359.26 492.34L358.53 491.33L357.66 490.16L356.19 488.20L356.06 488.00L355.28 486.84L354.61 485.95L353.98 485.65L353.11 484.76L351.75 482.84L351.36 482.29L350.57 481.34L349.46 480.03L348.64 478.73L348.64 478.14L348.75 477.61L349.37 475.96L333.91 477.62L330.68 476.56L327.16 477.17L318.06 478.78L315.76 471.25L293.19 473.77L295.37 479.38L298.36 487.42L299.14 489.51L303.90 505.37L309.91 523.36L311.59 528.63L312.13 530.17L313.97 535.39L315.93 541.15L318.63 547.48L321.41 554.11L326.01 565.04L326.72 566.94L347.99 623.85L349.69 628.40L350.48 629.49L360.85 626.40L362.39 626.73L364.34 630.01L373.90 627.18L374.98 626.86L380.05 625.35L389.99 620.67L390.15 617.97L390.10 614.97L398.28 611.96L400.22 615.77L400.89 617.10L406.43 618.26L410.86 619.38L412.27 620.21L413.93 620.73L414.99 620.19L416.05 619.66L417.63 621.16L419.89 623.58L421.34 626.94L422.81 630.24L423.77 632.89L428.03 631.32L428.94 630.71L431.93 628.70L436.58 627.52L441.28 624.87L442.10 624.07L443.01 622.37L442.32 620.13L441.72 619.28L440.30 617.58L440.02 616.91L439.78 616.13L439.62 615.33L439.25 614.69L438.55 613.87L438.00 612.81L437.30 611.69L437.13 611.40L436.35 610.57L435.83 610.39L434.85 610.05L433.73 609.43L432.88 608.78L432.27 607.85L431.84 606.83L431.54 605.94L430.86 605.05L430.27 604.66L429.37 604.09L427.87 603.57L427.04 603.30L425.58 602.54L424.98 601.82L424.85 601.47L424.61 600.73L424.47 599.70L424.53 598.91L424.56 598.30L424.90 596.77L424.87 596.37L424.59 595.61L424.32 595.05L423.72 593.94L422.96 592.44L422.45 592.13L421.59 592.06L420.86 591.99L420.13 591.98L418.78 591.96L417.31 592.42L416.01 592.63L414.87 592.64L413.20 592.11L412.23 591.77L411.26 591.58L410.84 591.49L409.44 591.16L408.52 590.68L407.98 590.01L407.55 589.18L407.23 588.14L407.00 587.14L406.79 585.59L406.48 584.73L406.38 584.45L406.22 583.84L405.65 581.75L405.21 580.38L404.75 578.89L404.39 577.69L403.74 575.57L402.57 572.16L402.27 571.33L401.76 570.71L400.61 570.01L400.06 569.50L399.75 569.02L399.56 568.50L399.53 567.47L399.57 566.93L399.68 565.55L399.37 564.78L399.09 564.13L398.45 562.69L397.18 559.82L396.45 558.37L395.08 556.09L392.73 551.89L391.47 550.15L391.14 549.74L390.55 549.54L389.60 549.40L388.75 549.34L388.10 549.06L387.73 548.81L387.52 548.69L386.79 548.15L386.46 547.53L386.28 547.12L386.05 546.62L385.43 545.24L384.49 543.23L384.41 543.13L383.86 542.41L383.04 542.07L382.36 541.93L381.55 541.78L380.18 541.78L379.65 541.57L379.31 540.89L379.07 540.28L378.69 539.31L378.08 537.84L377.63 536.74L376.82 535.13L376.24 534.35L375.86 533.85L374.72 532.99L373.15 531.84L371.61 530.52L371.24 530.21L370.93 529.85L370.64 529.49L370.32 529.10L369.91 528.33L369.76 527.72L369.57 526.27L369.36 525.30L369.09 524.61L368.63 523.88L368.10 523.27L367.51 522.52L366.22 520.92L365.47 519.81L365.27 519.03L365.20 518.46L365.43 518.01L366.98 516.72L367.32 516.35L367.32 515.82L367.04 514.97L366.73 514.35L365.71 512.28L363.75 508.39L363.47 507.88L363.30 507.13L363.25 506.65L363.04 506.05L362.24 504.57L362.17 503.85Z" data-ward="14" /><path id="ward-16" class="ward" d="M293.19 473.77L287.63 460.14L283.87 460.35L276.09 461.50L270.76 463.42L260.96 466.76L260.38 467.90L256.92 469.04L251.29 470.90L253.20 478.31L250.39 478.22L248.40 480.15L247.67 481.26L242.72 481.47L241.92 480.45L239.21 479.79L236.50 479.14L231.10 482.10L229.55 484.70L227.84 487.57L221.10 489.84L253.05 531.12L250.05 541.21L252.82 547.92L250.52 550.52L240.12 552.06L235.25 553.54L235.00 558.62L227.15 559.11L220.58 560.42L213.04 561.93L214.36 564.78L216.00 568.34L217.57 567.97L218.53 566.33L219.97 566.36L221.41 566.40L222.92 566.64L223.88 567.43L224.43 569.98L225.14 573.22L226.47 579.31L226.61 581.60L226.72 583.22L226.92 586.43L227.04 588.28L227.60 589.65L228.41 591.66L230.03 595.73L230.10 596.96L230.18 598.31L230.33 600.98L228.77 601.37L227.45 601.70L224.72 602.32L222.56 603.20L220.25 604.14L220.71 606.14L221.26 608.01L221.97 610.44L222.43 612.05L223.42 614.12L224.37 616.09L224.70 618.40L225.03 620.74L225.59 622.70L226.82 622.92L228.66 623.25L230.71 622.35L232.65 621.61L234.59 620.86L235.04 623.39L235.55 626.19L236.45 631.20L237.82 635.80L238.73 638.86L239.18 640.39L239.64 641.93L239.77 645.24L239.89 648.55L240.96 651.79L242.44 651.20L245.14 650.12L247.98 648.98L248.14 647.56L248.43 645.16L248.95 640.91L250.56 639.34L251.94 639.10L254.93 637.63L256.62 636.80L259.46 635.40L261.36 638.71L262.49 641.40L263.99 641.52L265.58 641.17L267.97 640.32L271.25 638.46L272.71 637.59L274.80 636.19L275.82 635.50L276.84 634.82L276.72 633.43L276.57 631.49L277.73 630.31L278.89 629.14L278.28 627.22L278.37 625.95L283.96 625.27L284.40 627.76L284.85 630.32L288.15 631.15L289.58 630.82L292.22 630.22L297.17 629.08L297.65 630.33L298.38 632.21L303.21 631.53L307.23 630.97L309.88 630.60L312.11 633.57L314.33 636.54L318.68 643.75L318.84 644.96L319.07 646.75L319.33 648.75L320.03 654.05L321.19 653.84L322.83 653.53L326.32 652.87L328.84 652.40L323.88 640.91L315.71 621.81L302.67 601.78L294.99 590.87L288.64 581.86L267.78 553.47L274.11 550.70L279.32 550.03L281.63 551.33L290.93 550.31L295.90 561.64L298.51 574.61L301.43 573.38L302.96 572.72L306.41 573.23L309.32 572.36L318.05 569.73L319.95 569.13L326.01 565.04L321.41 554.11L318.63 547.48L315.93 541.15L313.97 535.39L312.13 530.17L311.59 528.63L309.91 523.36L303.90 505.37L299.14 489.51L298.36 487.42L295.37 479.38L293.19 473.77Z" data-ward="16" /><path id="ward-6" class="ward" d="M663.16 20.66L659.19 16.49L657.84 15.08L655.44 13.95L652.76 12.68L651.30 11.98L648.99 10.89L644.95 9.00L642.26 10.66L636.92 13.96L633.43 16.19L631.03 17.72L628.02 19.65L624.98 21.60L622.19 23.40L618.60 25.70L616.60 26.99L613.79 28.79L610.98 30.60L598.70 28.94L599.03 30.83L599.27 34.04L599.66 39.16L593.05 38.91L592.61 48.44L592.18 57.56L586.54 58.74L584.39 63.77L580.16 65.15L574.71 63.01L571.90 65.57L572.29 68.22L576.18 71.13L578.73 76.82L577.92 81.79L578.65 89.62L572.51 111.56L571.30 115.86L569.73 121.55L567.71 128.89L566.04 133.65L558.30 155.65L547.26 165.82L546.80 167.45L545.64 171.61L543.31 179.97L542.74 182.02L542.04 183.39L539.76 187.84L538.71 192.02L535.98 194.78L534.88 196.24L533.88 197.58L547.10 206.80L543.70 225.01L542.19 233.14L558.73 235.40L558.74 238.01L558.31 240.47L557.74 242.53L553.74 255.27L547.63 270.14L554.12 272.07L556.47 272.70L566.76 273.85L570.46 274.61L570.43 276.31L587.92 277.67L606.33 276.79L605.47 273.25L605.56 271.01L605.63 269.60L603.39 265.61L602.91 261.96L603.26 260.79L603.64 259.23L603.15 257.19L604.03 252.77L604.95 248.69L606.65 250.06L607.89 251.06L610.25 250.79L611.99 246.34L612.23 240.23L617.57 237.10L621.61 230.59L625.08 226.53L628.27 224.53L629.00 221.39L627.41 216.75L627.10 214.76L626.67 211.44L625.80 209.63L625.74 207.34L626.23 205.93L625.98 202.85L627.02 200.47L626.96 198.30L628.64 196.25L627.73 194.32L632.60 189.39L635.39 182.11L636.09 180.28L636.26 178.88L637.30 176.95L641.67 178.50L646.98 179.30L648.15 179.50L650.91 179.93L656.94 178.99L660.65 179.44L665.42 180.33L669.60 181.59L671.59 181.25L676.07 177.37L679.56 174.20L683.29 170.80L686.58 165.05L687.86 162.50L687.97 158.29L688.22 154.13L694.27 152.96L697.80 152.18L699.98 132.66L700.67 129.67L702.41 127.97L703.20 127.21L704.44 125.82L705.49 124.64L704.32 119.70L704.03 117.79L703.77 115.98L703.58 113.32L703.41 105.25L720.95 104.62L717.85 95.98L718.82 94.81L718.21 86.11L714.85 73.72L714.51 68.76L713.63 56.00L713.07 52.23L711.29 40.38L709.20 34.17L707.55 34.99L705.45 36.04L700.34 38.64L694.59 41.48L690.98 43.27L687.75 40.81L683.68 37.71L679.73 34.72L676.70 32.43L670.43 27.70L668.56 26.29L667.46 25.24L666.04 23.87L663.16 20.66Z" data-ward="6" /><path id="ward-13" class="ward" d="M315.80 406.41L315.48 397.24L315.54 395.69L315.40 393.91L310.93 394.13L307.32 394.96L305.58 395.19L302.31 395.61L298.39 395.64L283.43 398.00L279.02 398.69L273.54 399.68L275.31 405.36L274.60 407.83L246.49 406.44L244.07 406.48L235.02 406.42L233.04 405.95L230.56 405.18L228.67 404.10L227.53 402.90L226.28 401.98L223.82 401.73L219.87 401.81L217.78 401.84L217.53 403.77L216.83 405.10L205.54 405.99L203.28 405.98L202.87 403.62L201.28 402.23L196.24 401.92L191.90 401.65L189.88 402.28L188.24 403.83L187.53 405.46L179.97 404.64L177.21 404.27L176.67 402.85L175.60 402.80L172.95 403.12L170.30 403.43L174.74 414.40L175.21 415.55L178.27 422.47L178.93 423.93L181.77 430.26L183.35 433.90L185.88 438.27L190.06 445.50L193.86 452.43L197.92 458.79L203.70 466.25L208.49 472.20L209.76 473.99L218.66 486.44L221.10 489.84L227.84 487.57L229.55 484.70L231.10 482.10L236.50 479.14L239.21 479.79L241.92 480.45L242.72 481.47L247.67 481.26L248.40 480.15L250.39 478.22L253.20 478.31L251.29 470.90L256.92 469.04L260.38 467.90L260.96 466.76L270.76 463.42L276.09 461.50L283.87 460.35L287.63 460.14L293.19 473.77L315.76 471.25L318.06 478.78L327.16 477.17L330.68 476.56L333.91 477.62L349.37 475.96L349.74 474.80L353.25 475.56L352.43 469.81L352.39 469.52L351.20 469.84L350.30 470.54L349.50 470.67L349.19 469.16L348.87 467.73L348.72 467.07L348.55 466.30L348.51 465.07L348.68 464.04L348.55 463.37L348.32 463.13L348.05 462.85L347.82 462.73L346.49 462.39L345.19 461.97L343.93 461.30L342.60 460.71L341.78 460.71L340.87 461.32L340.12 461.75L338.50 462.69L337.98 462.66L337.19 462.62L335.93 462.28L335.13 461.75L334.47 461.33L333.43 460.10L332.52 458.68L332.21 458.21L331.80 457.15L331.13 455.43L330.72 454.40L330.42 452.95L330.35 452.63L330.28 451.54L330.57 450.88L330.61 450.05L330.56 449.11L330.52 448.60L330.15 447.80L329.25 446.62L328.79 446.10L328.23 445.43L327.14 444.16L325.11 440.95L324.94 440.68L324.74 440.36L324.38 439.80L323.35 438.59L322.66 436.95L322.31 436.22L322.15 435.58L322.15 435.08L322.16 433.53L322.22 433.29L323.90 432.89L323.91 430.50L323.93 422.34L323.92 421.11L325.20 418.55L330.73 417.28L331.78 415.68L332.54 414.21L326.16 411.90L321.64 411.17L315.90 410.33L315.80 406.41Z" data-ward="13" /><path id="ward-17" class="ward" d="M181.77 430.26L178.93 423.93L178.27 422.47L175.21 415.55L174.74 414.40L170.30 403.43L167.78 392.52L167.21 390.03L164.91 379.92L161.43 380.00L161.34 381.74L158.58 381.67L156.28 381.77L155.49 380.44L152.74 378.57L150.90 379.88L149.68 380.63L142.93 382.10L137.83 384.71L132.25 384.95L128.39 382.49L124.31 382.78L123.14 384.06L116.28 385.23L114.91 385.76L117.42 405.15L118.70 421.72L125.11 440.99L114.70 444.41L113.30 444.94L109.62 446.33L107.94 449.72L103.00 455.50L101.74 458.79L95.64 461.49L94.39 462.00L90.60 463.48L88.69 464.20L87.50 464.90L90.00 466.94L92.40 468.03L93.80 468.30L95.38 468.60L97.38 469.02L99.27 469.41L100.78 469.73L103.40 471.27L105.02 472.57L106.24 473.56L107.97 474.96L109.53 476.09L110.97 477.13L112.96 478.56L114.08 479.67L115.68 481.25L117.50 482.89L121.80 487.22L123.14 488.57L124.14 490.81L126.09 495.20L128.71 503.84L129.74 507.26L129.81 509.59L129.85 511.20L129.60 513.64L129.18 517.75L129.02 524.49L128.98 526.16L129.33 528.15L129.92 531.57L131.08 538.29L131.59 540.08L132.57 545.15L132.51 547.42L132.10 549.24L131.83 550.42L131.19 552.57L130.19 554.83L129.01 559.45L130.71 559.60L132.21 559.42L134.81 559.10L136.10 558.91L137.91 558.66L139.67 558.40L141.65 558.10L143.03 557.89L144.72 557.54L146.84 557.37L148.37 557.47L150.29 557.32L151.50 557.09L153.15 556.57L155.21 556.03L158.02 556.27L160.11 556.57L162.84 557.21L164.40 557.67L166.43 558.34L167.45 558.71L168.59 559.34L169.83 560.13L172.32 560.68L175.02 559.17L175.74 557.97L176.29 556.55L176.83 555.14L177.35 554.06L178.31 552.52L179.00 551.43L180.39 549.86L180.69 548.67L181.19 547.11L183.26 543.81L184.71 542.23L185.43 540.33L185.42 538.57L185.33 536.27L185.68 531.26L185.85 528.81L187.06 528.84L188.22 528.87L191.87 529.00L195.17 527.82L197.34 527.05L198.48 526.65L201.27 525.67L201.75 527.10L202.22 528.52L203.76 530.59L206.62 534.43L208.60 535.95L210.17 535.66L211.03 537.71L211.52 538.89L211.99 542.22L212.65 546.91L210.06 547.15L210.25 550.00L210.39 552.10L210.71 556.88L211.40 558.39L213.04 561.93L220.58 560.42L227.15 559.11L235.00 558.62L235.25 553.54L240.12 552.06L250.52 550.52L252.82 547.92L250.05 541.21L253.05 531.12L221.10 489.84L218.66 486.44L209.76 473.99L208.49 472.20L203.70 466.25L197.92 458.79L193.86 452.43L190.06 445.50L185.88 438.27L183.35 433.90L181.77 430.26Z" data-ward="17" /><path id="ward-5" class="ward" d="M455.52 161.53L470.08 168.68L479.00 171.37L479.00 171.37L496.40 175.96L512.83 180.39L526.27 184.11L533.09 185.99L536.97 187.07L539.76 187.84L542.04 183.39L542.74 182.02L543.31 179.97L545.64 171.61L546.80 167.45L547.26 165.82L558.30 155.65L566.04 133.65L567.71 128.89L569.73 121.55L571.30 115.86L572.51 111.56L578.65 89.62L577.92 81.79L578.73 76.82L576.18 71.13L572.29 68.22L571.90 65.57L574.71 63.01L580.16 65.15L584.39 63.77L586.54 58.74L592.18 57.56L592.61 48.44L593.05 38.91L599.66 39.16L599.27 34.04L599.03 30.83L598.70 28.94L596.11 28.58L595.02 28.47L591.88 28.19L588.49 27.94L586.71 27.80L581.22 27.51L568.02 26.81L563.11 26.55L561.59 26.48L559.55 26.37L555.21 26.14L553.56 26.06L547.81 25.76L542.48 25.48L541.04 25.41L539.03 25.32L536.69 25.43L533.40 25.58L528.28 25.84L527.02 25.91L521.30 26.28L518.85 26.45L516.54 26.61L513.42 26.82L511.89 28.28L510.17 29.31L508.23 30.36L504.79 31.91L503.51 32.49L502.41 33.02L498.43 34.93L495.33 36.43L494.26 36.95L490.29 38.96L488.26 40.00L487.23 40.53L484.53 41.92L483.24 42.58L481.01 43.72L480.01 44.24L476.76 45.92L474.07 47.30L472.15 48.28L469.55 49.63L468.12 50.36L466.51 51.20L464.52 52.23L463.52 52.75L462.22 53.42L460.62 54.25L459.07 55.04L457.74 55.73L456.70 56.27L455.56 56.86L454.49 57.40L453.34 58.00L452.20 58.58L450.83 59.29L449.20 60.13L448.14 60.67L447.17 61.17L445.37 62.10L443.38 63.09L442.39 63.64L441.27 64.27L440.17 64.94L438.87 65.74L437.38 66.65L436.14 67.41L434.39 68.48L432.01 69.94L428.64 72.00L427.46 72.72L425.10 74.16L422.55 75.72L420.69 76.86L418.27 77.12L415.76 77.31L412.96 77.51L410.14 77.71L406.54 77.98L403.99 78.17L401.73 78.34L396.01 78.82L393.90 79.00L392.01 79.15L388.27 79.47L386.40 79.62L382.64 79.94L381.34 81.00L380.27 82.96L379.76 83.91L379.01 85.29L378.09 86.98L377.36 88.32L376.48 89.96L375.94 90.94L375.09 92.52L374.31 93.95L373.71 95.07L373.07 96.22L372.01 98.17L371.41 99.27L370.03 100.24L368.64 101.21L367.66 101.68L366.68 102.16L365.38 102.83L362.16 104.51L360.77 105.23L359.04 106.33L356.84 108.02L359.02 107.80L362.93 107.41L367.67 108.50L372.31 109.08L374.29 108.13L375.26 105.75L381.11 105.37L383.68 109.37L384.26 115.69L385.64 119.28L385.18 121.32L384.58 124.01L381.32 133.56L382.52 134.89L388.63 131.38L394.67 127.91L412.10 125.84L414.16 125.84L415.94 129.28L424.32 127.61L429.15 128.05L432.46 128.38L442.95 130.85L442.66 133.95L440.66 137.39L439.68 139.08L438.68 140.81L436.70 144.22L436.00 144.88L436.42 145.11L437.73 148.02L440.79 154.22L444.50 152.07L445.84 153.90L448.24 156.24L449.93 158.23L451.30 157.23L451.54 157.43L455.50 161.52L455.52 161.53Z" data-ward="5" /><path id="ward-4" class="ward" d="M436.00 144.88L436.70 144.22L438.68 140.81L439.68 139.08L440.66 137.39L442.66 133.95L442.95 130.85L432.46 128.38L429.15 128.05L424.32 127.61L415.94 129.28L414.16 125.84L412.10 125.84L394.67 127.91L388.63 131.38L382.52 134.89L381.32 133.56L384.58 124.01L385.18 121.32L385.64 119.28L384.26 115.69L383.68 109.37L381.11 105.37L375.26 105.75L374.29 108.13L372.31 109.08L367.67 108.50L362.93 107.41L359.02 107.80L356.84 108.02L355.93 108.72L354.61 109.75L353.35 110.64L351.07 112.43L350.01 113.13L347.70 114.86L343.67 117.90L339.89 120.76L337.81 122.32L334.36 124.92L324.20 132.54L323.31 133.22L321.43 134.63L317.87 137.33L314.13 140.13L310.65 142.78L303.67 148.31L298.25 152.61L295.80 154.56L291.72 157.31L281.22 165.23L276.00 169.18L268.04 175.18L254.31 185.55L247.84 190.44L244.73 192.78L240.67 195.85L239.53 196.71L237.93 197.92L236.80 198.43L235.65 198.95L233.01 200.15L230.26 201.39L226.96 202.87L215.45 207.62L219.13 215.08L216.34 217.45L214.46 219.32L213.53 220.48L212.57 221.68L211.88 223.15L212.41 226.26L213.26 228.54L210.80 229.86L202.87 233.32L204.99 242.65L215.85 239.65L222.77 237.73L222.88 239.73L223.31 247.27L223.86 248.22L229.95 246.63L233.29 245.74L238.90 242.10L243.05 241.01L248.64 239.50L250.63 238.96L255.64 237.60L256.70 241.00L256.92 242.64L257.74 243.59L266.97 242.23L270.56 241.50L283.75 239.23L291.68 240.21L295.89 240.56L307.69 237.66L310.29 237.02L318.46 234.23L328.52 230.49L333.01 228.54L363.60 243.14L393.78 258.74L387.66 263.10L386.34 265.09L386.04 267.71L386.71 271.83L391.51 273.47L395.92 274.97L404.42 281.26L413.46 287.95L413.77 286.09L413.74 285.01L413.68 283.39L413.87 281.73L414.78 280.26L415.76 277.84L416.16 275.81L416.63 272.16L417.48 265.59L417.31 264.23L416.11 262.51L415.95 256.54L416.70 253.72L419.57 249.16L421.11 247.17L421.47 242.96L421.58 240.78L420.69 238.23L420.20 236.83L418.78 232.65L419.52 228.72L421.38 225.73L422.47 224.26L425.51 208.42L428.47 192.99L428.25 189.20L436.75 181.34L441.16 176.27L453.22 163.88L455.52 161.53L455.50 161.52L451.54 157.43L451.30 157.23L449.93 158.23L448.24 156.24L445.84 153.90L444.50 152.07L440.79 154.22L437.73 148.02L436.42 145.11L436.00 144.88Z" data-ward="4" /><path id="ward-2" class="ward" d="M237.96 272.26L231.95 270.26L229.00 269.53L226.83 269.92L224.78 270.44L220.90 271.33L210.02 273.88L208.25 274.29L207.97 275.47L208.58 278.29L202.28 279.88L198.15 275.46L194.63 270.51L192.54 267.54L188.56 263.81L184.69 260.18L183.65 258.81L182.79 257.67L178.67 249.16L176.38 240.15L173.89 225.33L169.89 226.64L168.25 226.74L167.15 226.82L163.35 226.95L157.84 227.13L156.88 229.51L155.80 232.16L147.65 230.87L143.49 230.22L141.49 229.90L141.37 232.20L141.30 233.66L141.61 235.58L141.92 237.43L142.69 241.96L143.21 245.01L144.06 250.06L144.43 252.21L144.80 254.38L145.27 257.18L145.55 258.83L145.96 261.19L147.12 267.85L147.49 270.21L147.81 272.00L148.81 278.04L149.70 283.40L150.38 287.40L150.61 288.79L150.80 289.96L151.16 292.27L152.51 300.85L153.17 305.07L153.50 307.11L153.99 310.23L154.77 313.24L155.41 315.71L156.18 320.14L156.50 322.00L157.07 325.28L157.31 327.09L158.38 335.17L159.17 340.82L159.87 345.93L160.19 348.34L161.36 357.28L161.76 360.26L162.32 363.78L163.92 373.74L164.91 379.92L167.21 390.03L167.78 392.52L170.30 403.43L172.95 403.12L175.60 402.80L176.67 402.85L177.21 404.27L179.97 404.64L187.53 405.46L188.24 403.83L189.88 402.28L191.90 401.65L196.24 401.92L201.28 402.23L202.87 403.62L203.28 405.98L205.54 405.99L216.83 405.10L217.53 403.77L217.78 401.84L219.87 401.81L223.82 401.73L226.28 401.98L227.53 402.90L228.67 404.10L230.56 405.18L233.04 405.95L235.02 406.42L244.07 406.48L246.49 406.44L240.84 392.44L238.83 391.03L237.44 389.74L235.86 385.74L233.70 379.94L228.06 365.29L229.86 365.05L238.22 362.17L239.36 362.47L240.45 363.62L242.00 365.50L244.84 364.93L246.62 364.19L247.98 363.76L249.09 363.41L251.47 362.67L252.60 362.29L254.09 361.78L255.61 361.29L257.75 360.56L258.87 360.16L261.03 359.53L263.55 358.65L264.74 358.19L265.93 357.73L267.58 357.26L269.14 356.75L270.41 356.30L269.05 353.03L266.42 346.71L264.73 341.61L261.54 331.22L259.52 324.91L258.54 321.91L257.69 319.30L256.96 317.14L256.60 316.05L256.11 314.18L251.49 297.58L253.10 295.95L255.48 294.82L253.77 290.91L252.75 287.66L249.09 277.44L248.72 276.04L242.19 273.99L237.96 272.26Z" data-ward="2" /><path id="ward-1" class="ward" d="M123.96 231.00L121.66 230.87L120.20 229.53L118.80 228.24L116.07 225.75L110.59 220.73L108.60 218.92L106.61 220.39L104.09 222.25L98.87 226.11L96.30 227.59L93.43 229.25L87.77 232.52L85.93 232.75L84.82 232.88L82.54 233.04L81.06 233.35L80.51 234.73L80.27 236.63L79.82 240.20L79.26 242.05L78.78 243.66L78.04 246.09L77.06 249.32L74.64 257.29L74.20 259.13L74.00 260.22L73.66 264.66L75.47 265.49L75.35 267.28L75.79 268.36L75.03 270.12L72.54 269.91L68.52 269.58L66.79 269.44L66.65 270.53L66.39 272.69L65.91 274.08L63.09 282.32L62.02 283.53L60.94 284.77L58.58 287.45L58.28 288.68L57.09 290.46L55.68 290.89L54.85 292.16L54.03 293.43L52.82 295.28L50.30 298.19L48.05 297.57L46.87 297.25L45.55 296.89L44.35 297.07L42.15 297.39L41.16 299.51L33.00 298.49L24.84 297.46L23.56 299.19L22.10 301.15L21.23 302.32L20.52 303.28L18.86 305.52L16.98 308.04L16.51 309.81L15.63 313.12L14.62 315.11L11.24 321.80L10.41 323.44L8.62 326.98L7.86 328.31L5.18 333.33L3.98 336.63L2.97 338.74L1.99 342.06L1.62 343.34L0.65 347.47L0.38 350.57L0.33 351.79L0.28 353.01L0.49 357.57L0.00 359.23L1.91 359.19L3.91 359.14L4.98 359.12L7.76 359.05L10.34 358.94L10.69 361.13L10.96 362.85L11.76 367.95L12.05 369.76L12.24 371.00L12.41 372.08L13.04 376.08L14.62 380.63L15.04 381.85L15.48 383.12L16.28 385.41L17.21 387.25L18.13 388.81L19.16 390.63L20.59 393.39L21.20 394.54L21.76 396.78L22.00 397.94L22.29 399.65L22.45 400.76L23.04 402.28L25.35 402.94L27.29 405.05L28.50 406.03L29.49 407.80L30.31 409.97L30.80 411.34L31.22 412.54L32.62 414.79L33.72 416.35L34.76 417.87L35.81 419.39L37.27 420.85L38.57 422.31L39.43 423.28L40.20 424.16L40.96 425.19L41.88 426.41L43.14 428.03L44.41 429.65L46.04 431.35L47.69 432.47L49.17 433.48L50.62 434.47L52.81 435.94L54.88 437.46L55.83 438.02L57.55 439.00L60.01 440.48L61.47 441.37L64.08 442.91L65.53 443.77L68.35 444.79L69.70 445.50L70.77 446.45L72.16 447.97L75.35 450.42L78.47 449.88L81.33 449.42L89.88 441.85L91.63 436.95L91.10 433.42L93.36 431.69L89.34 420.76L87.02 420.59L86.63 419.04L86.67 416.02L87.14 413.47L87.34 412.08L84.94 411.49L83.45 410.25L81.37 408.57L80.77 407.00L80.47 405.48L79.99 403.86L77.75 403.12L77.53 400.03L77.96 398.43L78.79 396.50L79.05 394.46L78.98 393.17L78.24 390.45L78.38 389.26L79.73 388.09L80.52 385.99L79.63 383.36L79.35 381.75L79.17 380.70L78.97 378.43L77.89 376.24L77.18 373.18L78.09 371.03L78.21 369.38L78.25 367.67L78.24 366.50L79.06 365.78L81.97 365.30L87.64 364.02L86.76 359.71L85.53 348.55L90.07 348.46L91.26 347.85L91.83 338.05L89.66 337.96L89.86 328.16L85.78 328.68L84.80 327.43L83.92 326.31L83.49 324.03L83.73 321.71L84.65 320.07L84.50 316.62L84.02 313.34L87.68 312.96L88.90 312.84L89.04 309.50L90.55 308.78L93.36 307.44L96.95 306.19L98.04 305.26L98.43 303.62L100.07 302.04L102.91 299.30L104.29 300.16L105.33 306.04L106.37 309.15L106.89 310.71L108.79 311.92L112.30 313.45L116.92 314.86L127.12 315.21L133.88 315.95L137.73 315.38L142.43 314.95L146.71 313.38L150.56 311.38L153.99 310.23L153.50 307.11L153.17 305.07L152.51 300.85L151.16 292.27L150.80 289.96L150.61 288.79L150.38 287.40L149.70 283.40L148.81 278.04L147.81 272.00L147.49 270.21L147.12 267.85L145.96 261.19L145.55 258.83L145.27 257.18L144.80 254.38L144.43 252.21L144.06 250.06L143.21 245.01L142.69 241.96L141.92 237.43L141.61 235.58L141.30 233.66L141.37 232.20L141.49 229.90L139.36 229.43L138.25 229.19L136.35 230.07L132.56 228.71L131.02 228.34L124.97 227.76L125.06 229.09L125.20 231.07L123.96 231.00Z" data-ward="1" /><path id="ward-7" class="ward" d="M832.52 12.02L831.40 8.94L830.45 6.29L829.88 4.73L829.28 3.75L826.10 3.35L822.89 3.08L821.29 2.96L816.54 2.58L811.51 2.19L807.37 1.87L803.80 1.59L794.49 1.02L792.84 0.92L789.43 0.71L785.93 0.50L781.89 0.25L779.85 0.12L777.83 0.00L775.52 1.81L772.99 3.74L770.35 5.75L768.19 7.40L766.88 7.89L763.06 9.33L759.00 10.85L755.39 12.20L754.11 12.68L752.26 13.37L751.16 13.79L750.02 13.78L747.47 13.77L745.96 14.85L742.80 17.10L740.79 17.89L738.75 19.00L736.09 20.39L734.46 21.24L730.34 23.35L726.24 25.53L724.22 26.51L718.99 29.18L712.95 32.25L709.20 34.17L711.29 40.38L713.07 52.23L713.63 56.00L714.51 68.76L714.85 73.72L718.21 86.11L718.82 94.81L717.85 95.98L720.95 104.62L703.41 105.25L703.58 113.32L703.77 115.98L704.03 117.79L704.32 119.70L705.49 124.64L704.44 125.82L703.20 127.21L702.41 127.97L700.67 129.67L699.98 132.66L697.80 152.18L694.27 152.96L688.22 154.13L687.97 158.29L687.86 162.50L686.58 165.05L683.29 170.80L679.56 174.20L676.07 177.37L671.59 181.25L669.60 181.59L665.42 180.33L660.65 179.44L656.94 178.99L650.91 179.93L648.15 179.50L646.98 179.30L641.67 178.50L637.30 176.95L636.26 178.88L636.09 180.28L635.39 182.11L632.60 189.39L627.73 194.32L628.64 196.25L626.96 198.30L627.02 200.47L625.98 202.85L626.23 205.93L625.74 207.34L625.80 209.63L626.67 211.44L627.10 214.76L632.34 214.86L638.44 215.19L644.54 215.53L651.17 215.21L664.37 215.62L679.84 221.24L680.43 240.66L686.76 245.09L688.75 243.79L690.28 242.80L697.94 243.23L704.77 245.46L708.53 245.97L711.33 246.16L717.40 240.24L719.40 235.61L719.94 234.38L733.40 226.15L742.75 216.14L747.10 208.76L748.95 201.58L758.10 198.74L783.23 185.82L789.92 183.69L791.84 183.93L806.52 190.17L810.24 187.52L814.15 190.79L815.96 191.97L821.40 192.54L822.61 193.39L828.89 199.65L830.15 202.07L831.76 203.62L837.75 207.66L838.47 208.73L864.64 212.97L866.79 213.31L868.36 213.55L871.91 210.03L876.88 200.87L878.49 197.87L880.10 194.87L883.44 188.77L889.99 176.66L891.38 171.54L891.93 169.34L894.17 165.27L897.83 158.50L898.59 157.14L900.66 151.43L903.23 144.40L905.67 142.25L909.80 138.61L916.88 132.29L927.81 125.38L936.76 119.69L939.80 116.55L943.48 112.65L950.76 105.04L951.87 104.42L957.77 101.47L965.22 97.74L968.47 96.09L971.07 93.91L976.34 89.45L986.00 80.10L988.79 77.92L994.45 73.48L1000.00 69.27L997.89 66.21L995.24 62.43L990.21 55.27L988.38 56.61L986.24 58.18L984.90 59.10L981.96 61.25L979.90 62.77L978.48 63.82L976.86 65.01L973.54 67.46L971.41 66.39L970.27 65.73L968.87 65.00L967.46 64.31L964.18 62.70L961.62 63.58L960.49 60.19L960.12 59.09L959.50 57.16L958.44 53.88L957.46 50.99L956.42 47.90L956.07 46.86L954.67 46.95L953.10 47.05L949.96 47.24L950.85 50.39L951.52 53.31L952.50 57.57L949.97 57.68L947.22 57.85L945.06 57.99L945.09 59.63L945.17 61.82L945.26 63.97L944.55 66.62L944.23 67.86L940.81 69.87L937.86 71.60L935.49 72.98L932.18 74.90L930.58 75.83L929.42 76.32L927.72 76.96L925.54 77.84L924.09 78.43L921.20 79.18L917.83 80.05L915.34 80.71L913.52 81.17L909.17 82.29L904.90 83.39L900.40 84.56L895.58 85.77L894.66 84.88L893.38 83.65L892.58 82.81L890.89 81.17L888.92 79.16L887.00 77.25L885.01 75.15L880.86 70.75L876.75 66.40L872.45 61.87L868.21 57.39L863.01 51.90L860.29 49.03L857.80 46.41L856.48 45.27L855.50 44.43L853.12 42.40L849.52 39.41L844.69 35.30L842.93 33.79L841.93 32.51L841.25 31.50L839.54 29.17L838.07 26.91L837.45 25.34L836.83 23.77L836.27 22.25L835.81 21.00L834.70 17.97L833.80 15.55L833.21 13.94L832.52 12.02Z" data-ward="7" /><path id="ward-9" class="ward" d="M611.99 246.34L610.25 250.79L607.89 251.06L606.65 250.06L604.95 248.69L604.03 252.77L603.15 257.19L603.64 259.23L603.26 260.79L602.91 261.96L603.39 265.61L605.63 269.60L605.56 271.01L605.47 273.25L606.33 276.79L587.92 277.67L570.43 276.31L570.46 274.61L566.76 273.85L556.47 272.70L554.12 272.07L547.63 270.14L553.74 255.27L557.74 242.53L558.31 240.47L558.74 238.01L558.73 235.40L542.19 233.14L541.60 235.44L540.78 238.63L539.31 244.12L537.78 248.69L535.44 254.52L534.06 255.34L520.05 256.68L518.43 258.87L516.30 267.23L514.80 273.23L512.44 279.42L506.90 285.99L504.61 288.71L503.03 293.42L504.77 297.57L504.07 306.92L504.11 309.61L504.15 312.28L504.54 315.99L506.79 337.66L503.43 338.64L505.58 352.75L505.90 357.51L487.94 359.67L483.51 360.26L482.94 361.17L476.83 361.35L471.48 361.49L473.25 387.86L479.58 387.21L479.65 385.13L482.59 384.77L484.85 384.48L485.23 382.51L492.33 382.30L497.04 382.17L499.40 382.10L502.17 401.15L504.14 400.66L506.14 400.15L510.11 399.12L511.40 398.78L512.65 398.45L515.18 397.80L519.49 396.88L520.56 396.64L521.62 396.42L523.68 396.11L524.44 395.94L525.82 395.66L528.54 395.10L534.00 393.89L534.61 393.76L535.19 393.64L536.35 393.41L538.63 392.96L539.37 392.81L540.09 392.68L541.59 392.35L544.44 391.74L544.67 391.73L545.49 391.64L547.12 391.48L548.29 391.36L550.16 391.19L551.29 391.07L556.38 390.77L557.59 391.01L558.86 391.27L559.83 391.44L560.77 391.63L562.70 391.99L566.55 392.75L574.22 394.25L573.99 395.33L574.54 395.45L575.24 395.57L576.64 395.85L579.46 396.44L580.09 396.93L580.82 397.51L582.34 398.69L582.53 399.41L582.94 400.88L583.90 400.58L584.04 400.80L584.31 401.23L587.17 400.36L587.79 401.39L588.31 402.27L588.02 403.44L587.69 404.76L587.76 405.07L587.89 405.63L588.26 407.32L589.12 407.23L590.17 407.12L590.72 407.31L591.46 407.57L592.94 408.08L593.50 408.03L594.47 407.98L596.36 407.84L597.60 408.27L598.45 408.57L598.93 408.44L599.91 408.23L600.28 408.34L600.73 408.48L606.14 408.68L607.76 408.68L609.84 396.96L611.49 393.57L613.63 391.52L615.57 390.92L616.40 389.75L618.01 387.26L619.76 387.01L623.20 384.33L626.51 382.18L627.85 381.70L627.67 379.39L628.30 377.57L629.72 376.08L630.69 372.66L632.14 367.53L632.12 365.90L630.98 365.21L631.62 356.71L629.80 355.92L626.92 355.46L622.49 356.28L621.67 355.15L621.07 350.84L621.65 348.66L624.44 348.76L624.12 346.42L623.04 342.53L623.14 340.55L624.30 338.38L623.62 336.26L622.34 333.08L618.98 332.52L617.46 332.27L615.72 331.98L615.63 326.20L615.67 323.41L615.73 321.01L613.83 320.23L612.72 318.34L613.06 316.33L613.41 314.32L616.59 314.32L618.94 313.86L623.26 313.02L622.14 302.70L629.61 301.95L633.94 301.81L635.74 301.75L637.63 301.69L637.26 300.60L635.74 296.22L633.26 295.64L631.81 281.67L633.30 280.86L637.87 280.68L638.31 277.80L638.03 275.68L637.85 272.07L637.60 266.68L640.50 252.43L646.28 252.49L647.26 250.50L647.70 248.45L648.18 246.58L648.53 245.23L648.73 243.97L648.22 241.53L647.97 240.37L648.20 238.81L648.55 237.03L649.97 222.41L651.17 215.21L644.54 215.53L638.44 215.19L632.34 214.86L627.10 214.76L627.41 216.75L629.00 221.39L628.27 224.53L625.08 226.53L621.61 230.59L617.57 237.10L612.23 240.23L611.99 246.34Z" data-ward="9" /><path id="ward-8" class="ward" d="M733.10 346.59L735.15 341.62L735.49 339.96L735.93 337.94L736.78 333.95L737.75 332.61L738.96 330.93L739.98 328.18L741.29 324.96L742.12 323.88L743.48 322.24L745.17 320.75L746.01 320.03L748.39 318.45L749.73 317.55L751.08 316.65L756.28 313.18L757.74 310.74L759.25 309.02L760.44 307.68L761.86 306.59L764.72 304.38L767.81 302.97L769.25 302.27L769.97 301.93L770.78 301.68L772.27 301.29L773.86 300.84L775.55 300.52L780.57 299.60L782.00 299.35L784.54 299.01L788.92 298.99L790.11 298.79L792.03 298.48L795.88 297.82L796.48 297.73L799.36 296.23L802.74 294.41L808.02 291.45L819.76 284.84L822.01 281.69L824.77 277.89L829.84 270.35L839.99 255.31L860.60 225.29L867.91 215.33L868.36 213.55L866.79 213.31L864.64 212.97L838.47 208.73L837.75 207.66L831.76 203.62L830.15 202.07L828.89 199.65L822.61 193.39L821.40 192.54L815.96 191.97L814.15 190.79L810.24 187.52L806.52 190.17L791.84 183.93L789.92 183.69L783.23 185.82L758.10 198.74L748.95 201.58L747.10 208.76L742.75 216.14L733.40 226.15L719.94 234.38L719.40 235.61L717.40 240.24L711.33 246.16L708.53 245.97L704.77 245.46L697.94 243.23L690.28 242.80L688.75 243.79L686.76 245.09L680.43 240.66L679.84 221.24L664.37 215.62L651.17 215.21L649.97 222.41L648.55 237.03L648.20 238.81L647.97 240.37L648.22 241.53L648.73 243.97L648.53 245.23L648.18 246.58L647.70 248.45L647.26 250.50L646.28 252.49L640.50 252.43L637.60 266.68L637.85 272.07L638.03 275.68L638.31 277.80L637.87 280.68L633.30 280.86L631.81 281.67L633.26 295.64L635.74 296.22L637.26 300.60L637.63 301.69L635.74 301.75L633.94 301.81L629.61 301.95L622.14 302.70L623.26 313.02L618.94 313.86L616.59 314.32L613.41 314.32L613.06 316.33L612.72 318.34L613.83 320.23L615.73 321.01L615.67 323.41L615.63 326.20L615.72 331.98L617.46 332.27L618.98 332.52L622.34 333.08L623.62 336.26L624.30 338.38L623.14 340.55L623.04 342.53L624.12 346.42L624.44 348.76L621.65 348.66L621.07 350.84L621.67 355.15L622.49 356.28L626.92 355.46L629.80 355.92L631.62 356.71L630.98 365.21L632.12 365.90L632.14 367.53L630.69 372.66L629.72 376.08L628.30 377.57L627.67 379.39L627.85 381.70L626.51 382.18L623.20 384.33L619.76 387.01L618.01 387.26L616.40 389.75L615.57 390.92L613.63 391.52L611.49 393.57L609.84 396.96L607.76 408.68L610.03 408.68L613.81 408.72L615.60 409.08L616.22 409.42L617.15 409.93L619.01 410.95L622.70 412.97L622.99 412.95L623.33 412.92L624.04 412.88L625.40 412.78L625.65 412.44L625.88 412.12L626.34 411.49L627.24 410.23L627.44 410.29L627.68 410.37L628.18 410.53L629.16 410.86L631.14 411.51L633.02 412.61L634.90 413.70L634.99 413.80L635.11 413.94L635.40 414.31L635.92 414.94L637.49 415.55L639.07 416.17L639.29 416.12L639.53 416.06L640.00 415.96L640.95 415.74L642.84 415.30L642.91 415.42L643.02 415.61L643.32 416.11L643.83 416.99L643.93 416.96L644.07 417.03L644.26 417.13L644.59 417.29L645.23 417.61L645.51 417.75L645.98 417.91L646.73 418.17L647.12 418.06L647.49 417.96L648.24 417.76L651.45 419.45L654.82 419.34L658.26 419.24L658.27 419.20L658.33 419.07L658.50 418.66L658.71 418.14L659.15 417.09L659.50 417.00L659.85 416.90L660.57 416.72L662.01 416.34L662.32 416.05L662.61 415.79L663.19 415.26L663.31 415.25L663.58 415.25L663.90 415.26L664.67 415.25L666.23 415.24L666.32 415.29L666.45 415.37L666.72 415.54L667.24 415.86L667.40 415.83L667.64 415.78L668.10 415.69L669.02 415.51L670.86 415.16L672.74 414.72L673.05 414.65L673.35 414.58L673.97 414.44L675.20 414.16L677.64 413.60L677.75 413.87L677.85 414.13L678.05 414.65L678.47 415.67L679.28 417.72L680.92 417.92L681.08 417.94L681.52 417.89L682.09 417.82L683.28 417.68L685.64 417.41L691.09 418.00L691.48 415.96L691.87 413.92L691.68 413.54L690.95 411.94L690.05 410.02L689.92 409.41L689.73 408.56L689.34 406.88L688.57 403.53L689.13 402.99L689.71 402.45L690.88 401.36L693.17 399.20L693.79 399.49L699.42 393.02L699.49 389.72L700.73 389.34L700.77 388.38L701.21 387.52L702.58 387.23L710.77 384.12L713.41 381.84L713.89 379.27L714.35 376.81L717.81 375.83L719.02 371.86L720.22 367.96L720.44 364.65L724.31 357.00L726.39 354.11L731.20 351.60L732.37 348.36L733.10 346.59Z" data-ward="8" /><path id="ward-3" class="ward" d="M371.31 311.09L373.78 310.52L375.63 309.49L380.58 308.24L383.38 307.56L384.72 307.24L386.25 305.92L387.81 304.73L389.21 303.91L390.11 302.38L392.22 299.85L394.27 296.60L395.44 297.09L398.92 299.89L401.42 299.84L403.74 299.79L411.01 300.95L411.21 299.41L411.05 297.57L412.17 294.29L412.97 290.35L413.46 287.95L404.42 281.26L395.92 274.97L391.51 273.47L386.71 271.83L386.04 267.71L386.34 265.09L387.66 263.10L393.78 258.74L363.60 243.14L333.01 228.54L328.52 230.49L318.46 234.23L310.29 237.02L307.69 237.66L295.89 240.56L291.68 240.21L283.75 239.23L270.56 241.50L266.97 242.23L257.74 243.59L256.92 242.64L256.70 241.00L255.64 237.60L250.63 238.96L248.64 239.50L243.05 241.01L238.90 242.10L233.29 245.74L229.95 246.63L223.86 248.22L223.31 247.27L222.88 239.73L222.77 237.73L215.85 239.65L204.99 242.65L202.87 233.32L210.80 229.86L213.26 228.54L212.41 226.26L211.88 223.15L212.57 221.68L213.53 220.48L214.46 219.32L216.34 217.45L219.13 215.08L215.45 207.62L213.43 208.46L209.83 209.95L204.40 212.21L193.74 216.99L184.81 220.74L179.00 223.19L173.89 225.33L176.38 240.15L178.67 249.16L182.79 257.67L183.65 258.81L184.69 260.18L188.56 263.81L192.54 267.54L194.63 270.51L198.15 275.46L202.28 279.88L208.58 278.29L207.97 275.47L208.25 274.29L210.02 273.88L220.90 271.33L224.78 270.44L226.83 269.92L229.00 269.53L231.95 270.26L237.96 272.26L242.19 273.99L248.72 276.04L249.09 277.44L252.75 287.66L253.77 290.91L255.48 294.82L253.10 295.95L251.49 297.58L256.11 314.18L256.60 316.05L256.96 317.14L257.69 319.30L258.54 321.91L259.52 324.91L261.54 331.22L264.73 341.61L266.42 346.71L269.05 353.03L270.41 356.30L272.55 355.94L278.90 354.69L294.00 351.20L313.17 351.78L319.38 348.67L323.33 349.17L328.39 346.22L330.67 342.76L331.62 341.39L332.85 339.38L333.68 337.28L334.17 336.07L334.95 335.07L336.17 334.30L336.54 332.21L337.06 330.12L337.58 328.02L338.29 325.64L338.99 323.25L339.19 322.17L338.25 318.33L337.94 317.06L337.79 315.56L337.58 313.39L337.40 311.57L337.02 310.35L346.75 307.87L349.54 306.14L351.54 304.90L352.34 302.32L353.70 301.54L359.94 301.76L361.84 303.54L363.27 305.72L369.75 305.85L370.73 306.56L371.31 311.09Z" data-ward="3" /><path id="ward-10" class="ward" d="M425.51 208.42L422.47 224.26L421.38 225.73L419.52 228.72L418.78 232.65L420.20 236.83L420.69 238.23L421.58 240.78L421.47 242.96L421.11 247.17L419.57 249.16L416.70 253.72L415.95 256.54L416.11 262.51L432.86 262.65L434.39 266.25L446.75 267.10L450.39 267.01L458.96 266.79L459.47 265.21L461.02 261.43L463.50 261.30L466.95 261.60L476.67 262.44L475.38 277.98L474.88 283.23L473.95 292.94L473.84 294.69L472.22 328.74L456.47 329.88L452.19 363.93L457.22 363.91L455.01 371.98L454.11 378.88L454.15 382.14L454.19 394.51L454.25 410.16L454.05 411.65L452.61 422.43L454.35 422.68L456.67 423.06L461.18 423.74L462.13 423.68L462.77 422.17L463.49 420.47L464.92 417.07L467.71 410.40L468.80 410.09L469.97 409.79L472.25 409.17L476.29 408.04L484.91 405.62L502.17 401.15L499.40 382.10L497.04 382.17L492.33 382.30L485.23 382.51L484.85 384.48L482.59 384.77L479.65 385.13L479.58 387.21L473.25 387.86L471.48 361.49L476.83 361.35L482.94 361.17L483.51 360.26L487.94 359.67L505.90 357.51L505.58 352.75L503.43 338.64L506.79 337.66L504.54 315.99L504.15 312.28L504.11 309.61L504.07 306.92L504.77 297.57L503.03 293.42L504.61 288.71L506.90 285.99L512.44 279.42L514.80 273.23L516.30 267.23L518.43 258.87L520.05 256.68L534.06 255.34L535.44 254.52L537.78 248.69L539.31 244.12L540.78 238.63L541.60 235.44L542.19 233.14L543.70 225.01L547.10 206.80L533.88 197.58L534.88 196.24L535.98 194.78L538.71 192.02L539.76 187.84L536.97 187.07L533.09 185.99L526.27 184.11L512.83 180.39L496.40 175.96L479.00 171.37L479.00 171.37L470.08 168.68L455.52 161.53L453.22 163.88L441.16 176.27L436.75 181.34L428.25 189.20L428.47 192.99L425.51 208.42Z" data-ward="10" /><path id="ward-11" class="ward" d="M411.16 413.40L420.80 412.90L427.89 414.35L427.49 415.44L426.43 418.50L429.36 418.79L435.16 419.72L438.08 420.20L439.53 420.42L440.98 420.64L446.77 421.53L449.67 421.97L451.14 422.20L452.61 422.43L454.05 411.65L454.25 410.16L454.19 394.51L454.15 382.14L454.11 378.88L455.01 371.98L457.22 363.91L452.19 363.93L456.47 329.88L472.22 328.74L473.84 294.69L473.95 292.94L474.88 283.23L475.38 277.98L476.67 262.44L466.95 261.60L463.50 261.30L461.02 261.43L459.47 265.21L458.96 266.79L450.39 267.01L446.75 267.10L434.39 266.25L432.86 262.65L416.11 262.51L417.31 264.23L417.48 265.59L416.63 272.16L416.16 275.81L415.76 277.84L414.78 280.26L413.87 281.73L413.68 283.39L413.74 285.01L413.77 286.09L413.46 287.95L412.97 290.35L412.17 294.29L411.05 297.57L411.21 299.41L411.01 300.95L403.74 299.79L401.42 299.84L398.92 299.89L395.44 297.09L394.27 296.60L392.22 299.85L390.11 302.38L389.21 303.91L387.81 304.73L386.25 305.92L384.72 307.24L383.38 307.56L380.58 308.24L375.63 309.49L373.78 310.52L371.31 311.09L366.07 312.79L364.36 314.32L363.03 315.50L359.98 317.30L358.49 318.18L355.90 318.87L354.69 319.53L353.51 321.07L350.72 322.61L348.83 326.53L347.62 328.14L346.99 329.53L345.64 330.60L345.06 332.52L341.88 334.04L341.40 335.68L340.70 338.04L339.36 339.93L336.99 341.92L335.14 344.29L330.35 352.78L329.16 355.63L326.62 358.16L324.58 361.91L323.74 374.51L328.08 373.38L329.39 372.95L330.45 371.93L339.48 370.28L342.98 368.66L346.85 366.87L351.52 363.40L356.58 358.22L359.99 358.41L374.65 359.43L383.47 360.02L383.38 361.95L383.26 363.48L383.02 365.29L382.48 368.74L383.55 369.66L383.54 372.62L384.10 373.79L385.38 375.08L387.12 374.92L388.34 380.93L389.22 383.69L390.51 385.70L391.18 387.64L392.60 387.75L393.41 392.36L401.61 389.99L406.50 388.58L407.59 400.67L408.45 406.00L409.27 411.09L407.53 412.24L405.35 413.46L397.88 410.47L396.45 408.25L394.52 408.72L392.94 410.58L390.35 414.81L383.76 417.67L384.18 420.61L392.98 421.78L394.85 420.74L399.39 420.96L404.22 415.06L411.16 413.40Z" data-ward="11" /><path id="ward-18" class="ward" d="M93.36 431.69L91.10 433.42L91.63 436.95L89.88 441.85L81.33 449.42L78.47 449.88L75.35 450.42L78.28 454.19L79.53 455.34L81.25 456.90L82.52 458.06L83.73 459.47L85.60 462.17L87.50 464.90L88.69 464.20L90.60 463.48L94.39 462.00L95.64 461.49L101.74 458.79L103.00 455.50L107.94 449.72L109.62 446.33L113.30 444.94L114.70 444.41L125.11 440.99L118.70 421.72L117.42 405.15L114.91 385.76L116.28 385.23L123.14 384.06L124.31 382.78L128.39 382.49L132.25 384.95L137.83 384.71L142.93 382.10L149.68 380.63L150.90 379.88L152.74 378.57L155.49 380.44L156.28 381.77L158.58 381.67L161.34 381.74L161.43 380.00L164.91 379.92L163.92 373.74L162.32 363.78L161.76 360.26L161.36 357.28L160.19 348.34L159.87 345.93L159.17 340.82L158.38 335.17L157.31 327.09L157.07 325.28L156.50 322.00L156.18 320.14L155.41 315.71L154.77 313.24L153.99 310.23L150.56 311.38L146.71 313.38L142.43 314.95L137.73 315.38L133.88 315.95L127.12 315.21L116.92 314.86L112.30 313.45L108.79 311.92L106.89 310.71L106.37 309.15L105.33 306.04L104.29 300.16L102.91 299.30L100.07 302.04L98.43 303.62L98.04 305.26L96.95 306.19L93.36 307.44L90.55 308.78L89.04 309.50L88.90 312.84L87.68 312.96L84.02 313.34L84.50 316.62L84.65 320.07L83.73 321.71L83.49 324.03L83.92 326.31L84.80 327.43L85.78 328.68L89.86 328.16L89.66 337.96L91.83 338.05L91.26 347.85L90.07 348.46L85.53 348.55L86.76 359.71L87.64 364.02L81.97 365.30L79.06 365.78L78.24 366.50L78.25 367.67L78.21 369.38L78.09 371.03L77.18 373.18L77.89 376.24L78.97 378.43L79.17 380.70L79.35 381.75L79.63 383.36L80.52 385.99L79.73 388.09L78.38 389.26L78.24 390.45L78.98 393.17L79.05 394.46L78.79 396.50L77.96 398.43L77.53 400.03L77.75 403.12L79.99 403.86L80.47 405.48L80.77 407.00L81.37 408.57L83.45 410.25L84.94 411.49L87.34 412.08L87.14 413.47L86.67 416.02L86.63 419.04L87.02 420.59L89.34 420.76L93.36 431.69Z" data-ward="18" /></svg>