<svg viewBox="0 0 1000.00 2775.18" xmlns="http://www.w3.org/2000/svg"><style>.ward { fill: #e2e8f0; stroke: #fff; stroke-width: 0.5px; } .ward:hover { fill: #cbd5e1; }</style><path id="ward-15" class="ward" d="M456.86 819.57L457.20 816.83L455.92 815.11L455.44 810.09L455.11 803.55L454.75 794.10L454.51 787.48L454.29 777.83L453.31 769.70L451.70 755.86L449.74 740.24L449.22 736.07L448.58 731.90L447.73 725.86L446.87 719.73L445.05 707.14L444.64 704.29L439.26 671.63L438.82 669.59L436.92 658.25L435.44 649.44L434.04 644.83L433.61 640.62L429.08 618.72L430.64 618.82L430.25 599.65L429.63 581.32L428.62 575.23L428.94 571.35L428.84 566.32L427.84 557.67L427.58 555.46L419.97 556.20L415.17 556.79L412.59 557.10L408.21 557.84L405.11 559.59L402.22 559.68L398.94 560.15L396.87 560.54L394.17 561.30L391.91 561.68L390.69 559.48L390.35 556.82L388.53 555.48L385.33 555.33L382.95 555.88L380.66 556.37L378.40 556.86L375.11 557.57L372.86 557.78L370.13 545.88L365.53 526.29L364.48 521.81L359.31 502.08L356.20 489.61L353.93 481.28L351.05 469.92L350.50 467.75L347.13 454.12L348.95 453.07L348.11 450.71L347.27 448.35L344.90 441.73L342.21 434.23L339.42 424.35L337.68 418.33L336.52 414.04L334.40 406.61L332.97 401.90L331.10 395.72L326.59 397.68L323.98 397.90L319.78 399.17L315.94 400.92L312.22 402.62L308.80 403.59L306.46 403.94L299.52 404.71L297.28 405.03L294.53 405.50L291.74 405.98L286.65 407.07L282.49 407.63L280.08 408.01L277.58 408.41L266.19 407.09L262.77 406.69L259.07 406.40L256.43 421.54L254.87 446.26L260.53 464.03L267.26 483.80L270.22 492.23L277.47 504.06L281.45 511.88L287.02 528.43L288.36 547.99L280.03 563.24L271.15 568.06L264.57 574.88L256.66 577.55L249.90 581.25L242.88 584.41L222.79 579.74L215.64 579.60L207.79 579.85L168.62 586.99L135.02 595.82L128.03 601.84L124.94 607.50L123.80 615.29L123.78 634.32L124.60 654.18L124.47 686.34L115.92 719.06L104.72 762.44L104.63 790.46L114.09 790.17L117.73 790.06L125.71 789.81L132.59 789.60L137.13 789.46L143.33 789.19L149.54 788.93L170.17 788.75L172.73 789.71L175.29 790.67L178.15 791.78L179.07 794.59L179.46 797.56L179.85 800.52L180.43 804.95L180.72 807.15L181.55 813.68L182.05 816.48L185.75 815.95L189.79 815.39L189.81 817.87L190.09 847.01L205.19 847.72L227.40 849.36L230.64 849.49L238.71 849.63L240.78 850.64L246.17 852.77L248.99 853.89L250.93 869.53L251.35 875.58L251.74 881.20L252.34 889.79L252.51 892.29L257.63 903.71L258.53 905.72L260.01 909.02L261.38 912.08L259.83 914.29L258.15 916.70L254.65 921.72L254.67 928.94L255.19 932.17L255.82 935.83L256.69 940.10L256.96 944.43L257.15 947.48L257.49 951.83L257.65 953.93L258.21 961.50L259.50 970.25L266.72 969.51L267.90 969.72L269.57 969.60L270.87 970.00L273.81 969.64L280.13 968.49L283.79 967.92L285.02 967.64L285.34 968.13L285.55 969.43L285.91 970.45L286.52 970.90L288.93 970.61L293.66 970.13L297.81 970.13L297.81 969.15L297.41 965.64L297.21 958.99L297.92 952.46L299.38 939.05L298.97 926.30L302.56 923.74L305.38 923.11L308.21 922.48L310.53 922.22L312.85 921.97L312.68 924.33L312.92 927.02L313.05 929.21L314.92 932.76L319.11 933.40L320.01 936.06L320.47 938.42L322.03 941.18L322.27 943.57L323.20 946.52L323.65 949.35L324.99 951.04L327.24 951.44L327.97 954.32L327.39 957.12L327.47 959.99L329.78 959.95L331.43 963.22L332.59 967.33L334.69 967.25L337.63 966.94L337.65 963.38L337.65 961.11L337.66 958.41L337.73 955.67L337.79 953.45L338.09 950.89L338.80 945.00L339.77 940.84L340.54 937.55L341.44 933.68L342.40 930.81L344.44 924.66L345.24 922.62L346.54 919.32L347.56 916.73L348.66 913.93L349.62 911.49L351.72 907.88L353.19 905.35L354.43 903.23L356.68 899.36L357.76 897.50L359.14 895.26L361.99 890.64L364.97 885.79L368.55 880.66L370.89 877.31L374.70 871.65L375.92 874.40L378.16 879.45L379.56 882.71L380.58 885.43L382.26 889.93L383.11 892.68L384.30 896.51L385.44 901.11L391.44 900.37L396.22 899.78L399.26 899.46L401.68 899.21L405.92 898.59L409.03 898.15L411.49 897.93L413.96 897.72L416.74 897.31L420.24 896.98L423.14 896.03L425.37 894.53L428.94 894.48L432.88 894.42L435.55 894.38L441.06 892.49L443.78 891.78L445.90 891.42L447.96 890.92L450.43 890.47L453.02 890.15L456.13 889.46L459.63 888.90L461.85 888.78L461.44 884.32L461.07 880.36L460.62 876.94L460.19 873.66L459.60 869.20L459.50 867.01L459.38 864.25L459.20 860.18L459.01 855.77L458.86 852.33L458.63 847.26L458.29 844.48L457.79 840.43L457.65 835.83L457.49 830.27L457.13 826.93L456.58 821.82L456.86 819.57Z" data-ward="15" /><path id="ward-4" class="ward" d="M531.21 1303.60L537.66 1302.37L541.77 1301.58L552.50 1299.03L558.63 1298.09L563.88 1297.05L568.34 1296.15L570.36 1295.75L576.53 1296.32L579.02 1296.55L584.02 1297.01L588.28 1297.40L592.59 1297.59L595.40 1297.71L601.15 1297.95L604.32 1298.08L609.71 1297.34L613.08 1297.19L616.24 1297.05L619.53 1296.90L624.25 1296.68L626.33 1296.59L628.39 1296.49L632.95 1295.01L633.04 1291.18L633.89 1287.57L634.74 1284.00L635.38 1281.28L636.04 1278.50L636.64 1275.97L637.27 1273.64L639.77 1272.26L643.76 1271.56L645.96 1270.80L649.95 1270.40L653.56 1270.05L657.82 1269.63L661.35 1269.28L666.07 1268.81L669.01 1268.52L671.14 1268.78L673.36 1269.04L677.14 1269.49L679.74 1269.26L682.46 1269.02L684.87 1268.80L688.21 1268.51L691.30 1268.32L723.74 1266.41L724.48 1256.88L724.13 1246.62L724.38 1233.38L727.23 1221.01L728.20 1208.31L728.66 1202.37L714.32 1203.07L703.55 1203.78L688.80 1204.76L681.98 1206.01L677.42 1206.55L672.40 1208.07L670.34 1208.59L667.52 1208.71L657.93 1210.31L652.24 1211.27L647.78 1212.02L642.66 1212.84L645.69 1207.88L645.51 1207.44L645.48 1207.35L643.28 1202.05L643.21 1201.90L640.14 1194.04L639.74 1193.48L639.21 1192.83L635.80 1189.12L632.84 1186.84L629.87 1184.55L633.02 1182.64L632.87 1179.20L632.40 1169.19L623.40 1166.66L611.93 1165.83L605.88 1151.11L594.75 1150.81L592.01 1143.08L589.47 1143.39L585.74 1143.85L580.82 1144.45L575.67 1147.03L569.06 1148.21L562.89 1149.30L559.08 1149.98L552.32 1151.18L548.05 1151.83L545.45 1152.50L537.64 1154.19L531.29 1155.64L529.07 1156.28L523.50 1157.87L519.31 1158.72L515.80 1152.66L515.91 1150.06L516.07 1146.22L515.58 1141.22L515.11 1136.46L514.92 1134.04L514.34 1126.72L514.16 1124.53L513.86 1120.69L513.40 1114.93L512.99 1109.68L512.72 1107.44L512.31 1104.15L512.03 1101.90L511.68 1099.10L511.27 1095.77L510.88 1091.76L510.37 1086.58L510.11 1082.81L509.76 1077.68L509.30 1074.01L508.97 1071.39L507.88 1064.72L506.34 1057.35L504.19 1047.03L503.18 1043.35L501.80 1039.63L498.71 1040.39L496.33 1041.53L494.19 1042.35L492.08 1041.85L487.58 1042.56L485.20 1043.91L482.87 1044.25L479.58 1045.97L477.24 1046.78L475.77 1044.59L471.86 1045.88L467.81 1047.54L465.73 1047.59L463.00 1047.85L460.70 1048.43L458.03 1049.02L456.08 1050.13L455.22 1052.20L453.26 1054.76L453.98 1059.34L453.29 1062.81L452.91 1065.38L453.62 1067.41L454.12 1069.74L453.98 1072.20L452.61 1076.42L451.65 1078.77L451.66 1080.87L452.15 1083.38L453.49 1085.39L455.34 1088.29L458.86 1089.78L459.48 1091.90L459.74 1094.27L459.86 1097.28L458.75 1100.38L456.13 1101.80L453.54 1102.81L450.75 1103.26L447.87 1103.61L444.23 1104.01L441.96 1104.16L437.49 1104.90L434.28 1105.60L431.32 1105.58L431.61 1108.04L428.99 1107.71L426.03 1107.35L422.66 1107.22L419.42 1105.56L419.55 1103.20L416.38 1104.04L413.97 1103.60L409.77 1102.83L407.85 1103.73L405.47 1099.25L403.84 1095.10L400.92 1091.94L400.60 1089.58L400.30 1087.42L399.74 1083.28L400.80 1081.49L400.10 1078.14L401.15 1075.67L400.96 1073.07L400.79 1070.79L400.60 1068.10L399.18 1067.69L398.73 1065.62L394.52 1065.44L391.95 1066.10L389.39 1066.75L389.57 1064.52L389.74 1062.41L390.12 1057.73L386.96 1057.12L381.44 1058.54L377.75 1059.31L373.14 1060.27L370.51 1059.37L368.04 1058.53L363.84 1056.59L360.33 1057.21L361.03 1060.28L361.85 1063.90L363.20 1071.53L365.71 1086.84L366.84 1091.95L367.73 1096.96L367.88 1099.38L365.61 1098.93L362.30 1098.50L360.00 1098.11L358.79 1096.05L355.23 1096.48L351.41 1097.68L348.36 1098.93L343.07 1099.73L340.21 1098.59L337.63 1099.30L335.31 1099.96L332.96 1100.33L330.55 1102.79L327.75 1104.14L324.24 1105.33L322.19 1105.76L319.95 1105.48L319.52 1108.19L320.97 1111.98L322.38 1115.77L325.10 1119.89L326.88 1123.04L328.08 1128.22L328.50 1130.56L329.07 1134.22L329.66 1137.94L330.46 1144.21L331.45 1151.66L331.89 1155.41L332.99 1164.28L333.62 1169.35L334.01 1172.96L334.32 1176.32L334.30 1181.80L333.70 1185.26L332.60 1189.65L330.81 1194.82L330.70 1197.44L330.86 1199.97L331.53 1202.60L332.30 1205.29L334.47 1205.10L336.61 1204.91L338.72 1205.00L341.15 1205.10L344.59 1204.96L346.73 1203.43L349.51 1202.48L353.94 1202.20L356.15 1201.86L356.38 1214.44L358.42 1218.63L359.20 1221.45L367.24 1219.46L370.14 1219.01L372.79 1218.41L376.20 1218.50L379.11 1217.82L382.58 1217.48L384.24 1215.09L386.29 1213.24L389.66 1212.20L391.66 1216.56L392.89 1219.73L395.18 1224.51L396.35 1227.51L397.92 1230.63L399.65 1234.57L400.81 1237.19L401.95 1239.63L403.66 1243.70L405.43 1247.31L407.04 1250.66L407.90 1252.97L408.81 1255.22L410.96 1259.46L413.59 1265.54L415.68 1270.35L419.20 1278.49L420.48 1282.76L421.30 1285.97L422.03 1289.31L422.59 1292.07L423.00 1294.39L423.41 1296.61L423.97 1298.83L424.58 1301.83L425.10 1304.36L425.63 1306.94L426.24 1310.06L426.69 1312.39L427.45 1316.03L428.09 1319.36L428.54 1321.40L429.25 1324.60L430.25 1329.05L430.64 1331.56L431.10 1334.49L431.58 1337.55L432.08 1340.71L432.82 1344.21L433.53 1347.52L434.17 1350.53L434.61 1353.02L435.29 1356.65L435.66 1358.71L436.41 1362.80L437.06 1366.36L437.53 1368.92L438.09 1371.99L439.10 1377.50L439.61 1380.31L440.02 1382.56L439.69 1385.38L449.03 1383.93L451.52 1383.50L461.17 1379.37L467.72 1373.81L473.71 1368.73L480.00 1363.39L480.82 1356.11L481.87 1346.71L485.83 1346.32L488.95 1345.59L491.89 1344.04L494.04 1343.75L496.04 1344.84L495.97 1347.50L494.96 1351.19L497.25 1350.85L500.07 1350.43L502.25 1350.04L504.73 1349.59L510.87 1348.66L513.26 1348.60L515.67 1348.54L520.34 1347.32L522.60 1346.43L525.40 1344.36L527.67 1343.09L528.62 1339.68L529.25 1337.44L529.07 1333.97L531.51 1330.48L533.54 1328.42L536.25 1327.36L535.80 1325.27L533.81 1315.87L532.44 1309.43L531.88 1306.76L531.21 1303.60Z" data-ward="4" /><path id="ward-5" class="ward" d="M572.99 1531.55L573.75 1534.00L574.88 1537.68L575.90 1549.72L577.09 1561.39L572.69 1562.35L570.07 1562.85L568.02 1563.14L563.65 1563.76L559.37 1565.59L556.85 1567.99L554.26 1569.88L550.60 1570.94L548.24 1571.42L545.90 1571.89L543.61 1572.50L540.95 1573.23L537.82 1574.61L534.68 1575.77L531.00 1577.22L528.13 1577.34L524.74 1577.95L524.11 1582.18L524.08 1588.86L524.29 1591.19L524.83 1594.48L525.66 1596.43L525.79 1599.18L526.27 1601.22L527.45 1607.55L529.43 1608.66L531.39 1610.78L530.69 1613.63L532.04 1616.85L531.89 1621.20L532.22 1624.04L530.96 1625.78L531.09 1628.20L531.20 1630.32L529.14 1631.20L527.63 1632.62L527.64 1635.40L528.00 1638.20L528.06 1644.78L528.69 1647.22L529.70 1649.68L530.63 1651.86L533.73 1653.34L533.76 1655.92L534.13 1658.78L534.58 1661.53L535.29 1664.33L535.69 1667.21L535.73 1670.03L535.69 1672.63L536.35 1675.48L534.77 1677.13L533.16 1678.60L533.03 1680.98L532.56 1683.45L530.45 1684.50L527.80 1684.63L524.86 1684.63L522.63 1684.86L521.63 1686.70L521.66 1690.54L521.44 1693.21L521.92 1695.92L522.29 1698.27L524.15 1699.74L526.89 1700.10L529.40 1702.95L530.95 1705.64L531.25 1708.63L531.62 1711.18L532.55 1713.46L533.03 1715.49L535.56 1717.62L537.61 1717.02L539.73 1716.90L542.30 1717.22L545.07 1716.82L547.82 1716.42L550.26 1715.79L552.13 1717.47L554.58 1717.54L554.60 1720.05L554.25 1722.35L554.01 1725.30L554.06 1727.60L555.34 1729.32L555.89 1731.98L557.73 1735.59L559.42 1737.61L563.16 1738.04L563.69 1740.85L563.38 1744.77L563.25 1749.08L565.14 1751.11L564.44 1758.26L568.53 1758.17L572.59 1758.09L575.38 1758.23L581.85 1758.58L584.80 1758.70L587.66 1758.83L595.37 1759.19L598.04 1759.18L603.70 1759.17L606.55 1759.16L612.43 1758.88L618.05 1758.62L623.70 1758.35L627.12 1758.10L631.85 1757.76L636.02 1757.45L635.61 1753.62L635.56 1750.54L635.41 1747.40L635.31 1743.18L635.40 1734.18L635.48 1725.52L635.52 1722.13L635.28 1720.01L634.79 1715.72L634.23 1710.78L633.63 1706.39L633.19 1703.22L633.11 1699.87L631.55 1688.72L631.27 1686.12L630.68 1680.92L630.30 1677.51L629.53 1671.38L629.09 1667.90L628.54 1663.50L626.78 1649.47L626.10 1643.54L625.56 1639.18L624.91 1633.33L624.62 1630.72L624.27 1627.52L623.99 1624.93L623.69 1622.23L622.71 1613.34L622.26 1609.30L620.14 1590.86L619.36 1583.21L618.23 1573.38L617.96 1571.05L617.41 1566.20L616.93 1562.05L616.26 1557.44L614.95 1548.44L614.17 1543.11L613.39 1537.75L613.04 1535.43L612.40 1531.18L611.06 1528.24L611.09 1525.70L611.15 1520.71L610.87 1517.54L610.62 1514.67L610.23 1510.33L610.21 1508.23L610.18 1506.12L611.19 1503.34L610.65 1498.81L610.33 1495.71L609.75 1490.08L609.52 1487.83L607.40 1485.84L607.36 1483.28L607.52 1478.69L607.66 1474.91L606.86 1470.97L606.95 1468.55L606.74 1465.41L606.56 1461.86L606.46 1458.87L606.36 1455.95L606.27 1453.77L606.12 1450.40L605.98 1447.42L605.81 1443.34L605.15 1441.20L603.88 1435.19L602.80 1432.63L602.00 1430.71L604.42 1429.79L606.78 1428.89L609.51 1427.85L612.24 1428.41L616.16 1429.20L624.87 1430.84L628.13 1431.46L641.32 1433.95L644.51 1433.77L646.71 1433.63L655.29 1429.92L658.98 1427.60L663.36 1424.85L664.79 1422.09L665.87 1420.00L667.45 1416.95L672.80 1411.60L669.79 1407.51L667.26 1404.07L670.16 1403.57L678.43 1402.14L685.14 1401.12L689.57 1400.45L693.06 1399.92L714.89 1396.60L719.84 1395.93L734.47 1394.65L747.59 1393.56L742.93 1380.01L740.05 1371.62L738.81 1365.90L736.44 1354.87L733.53 1343.14L732.65 1339.90L731.24 1332.47L729.49 1323.27L729.28 1314.99L728.46 1311.10L728.10 1306.26L725.65 1295.82L725.47 1292.30L724.75 1281.46L723.99 1270.10L723.74 1266.41L691.30 1268.32L688.21 1268.51L684.87 1268.80L682.46 1269.02L679.74 1269.26L677.14 1269.49L673.36 1269.04L671.14 1268.78L669.01 1268.52L666.07 1268.81L661.35 1269.28L657.82 1269.63L653.56 1270.05L649.95 1270.40L645.96 1270.80L643.76 1271.56L639.77 1272.26L637.27 1273.64L636.64 1275.97L636.04 1278.50L635.38 1281.28L634.74 1284.00L633.89 1287.57L633.04 1291.18L632.95 1295.01L628.39 1296.49L626.33 1296.59L624.25 1296.68L619.53 1296.90L616.24 1297.05L613.08 1297.19L609.71 1297.34L604.32 1298.08L601.15 1297.95L595.40 1297.71L592.59 1297.59L588.28 1297.40L584.02 1297.01L579.02 1296.55L576.53 1296.32L570.36 1295.75L568.34 1296.15L563.88 1297.05L558.63 1298.09L552.50 1299.03L541.77 1301.58L537.66 1302.37L531.21 1303.60L531.88 1306.76L532.44 1309.43L533.81 1315.87L535.80 1325.27L536.25 1327.36L533.54 1328.42L531.51 1330.48L529.07 1333.97L529.25 1337.44L528.62 1339.68L527.67 1343.09L525.40 1344.36L522.60 1346.43L520.34 1347.32L515.67 1348.54L513.26 1348.60L510.87 1348.66L504.73 1349.59L502.25 1350.04L500.07 1350.43L497.25 1350.85L494.96 1351.19L495.97 1347.50L496.04 1344.84L494.04 1343.75L491.89 1344.04L488.95 1345.59L485.83 1346.32L481.87 1346.71L480.82 1356.11L480.00 1363.39L473.71 1368.73L467.72 1373.81L461.17 1379.37L451.52 1383.50L449.03 1383.93L439.69 1385.38L435.74 1387.11L430.89 1387.59L428.38 1388.44L424.17 1388.47L420.87 1388.75L418.61 1388.94L414.87 1389.26L410.44 1389.55L404.27 1388.45L403.82 1388.40L401.73 1388.32L401.03 1388.24L401.03 1388.24L397.46 1381.99L396.50 1386.55L398.76 1391.93L399.49 1396.01L400.39 1401.11L401.57 1407.74L403.61 1412.90L404.69 1417.94L407.84 1426.39L410.22 1432.75L411.18 1435.33L412.15 1437.91L413.19 1440.10L415.23 1444.40L417.41 1449.01L420.31 1448.55L427.87 1476.07L433.27 1489.44L437.22 1510.09L439.28 1518.33L440.09 1524.77L442.64 1535.31L443.32 1547.19L444.69 1552.93L446.07 1557.63L450.13 1564.51L453.17 1574.95L454.15 1581.45L454.18 1588.83L458.37 1588.86L462.85 1588.57L465.55 1588.59L472.08 1587.52L476.11 1585.54L481.47 1582.17L485.90 1580.28L490.68 1580.64L494.48 1581.07L494.38 1578.56L495.01 1573.79L493.78 1570.49L494.43 1566.52L495.10 1564.51L494.15 1561.94L491.95 1559.81L492.01 1555.99L489.41 1555.38L487.87 1552.00L485.15 1541.84L483.05 1533.79L491.58 1535.00L496.46 1535.88L498.95 1536.31L501.64 1535.82L503.95 1536.21L506.03 1536.20L508.06 1534.75L507.86 1532.54L507.38 1530.44L507.69 1527.34L509.31 1525.80L511.56 1525.98L514.26 1525.81L515.06 1523.41L516.49 1520.94L518.50 1522.64L519.06 1525.69L520.32 1528.53L522.25 1531.37L524.45 1532.01L526.97 1532.12L529.49 1531.69L531.79 1531.32L532.71 1533.27L534.32 1534.97L535.84 1537.45L537.77 1539.11L537.52 1541.84L536.99 1544.09L537.17 1546.29L538.27 1548.23L540.73 1547.20L543.52 1546.34L545.58 1545.58L547.26 1547.27L549.51 1548.67L552.42 1548.67L554.57 1548.66L557.44 1547.80L559.34 1546.20L559.12 1543.45L558.11 1540.10L557.89 1537.59L559.64 1535.56L561.45 1534.48L564.70 1533.25L567.04 1532.71L569.53 1532.14L572.99 1531.55Z" data-ward="5" /><path id="ward-12" class="ward" d="M287.26 2471.21L290.12 2470.67L292.52 2470.22L294.58 2469.80L297.06 2469.36L300.19 2468.71L303.89 2467.94L307.41 2467.08L309.57 2466.56L311.84 2466.08L315.65 2466.52L312.29 2471.06L310.27 2474.92L308.67 2478.00L307.18 2483.22L306.42 2485.92L305.65 2488.62L306.90 2494.52L308.83 2503.69L308.86 2507.90L308.89 2512.48L308.90 2514.66L308.91 2516.82L309.87 2520.84L310.99 2525.56L309.35 2528.56L309.80 2531.71L310.61 2536.85L311.12 2540.38L312.61 2549.02L313.58 2554.34L314.14 2557.46L314.49 2561.72L314.69 2565.28L314.91 2568.68L315.06 2570.85L315.22 2573.02L315.46 2577.68L314.81 2583.23L314.17 2585.95L313.49 2589.35L311.97 2596.97L311.99 2600.72L312.44 2602.87L312.88 2605.02L313.35 2608.25L313.47 2615.57L313.58 2622.90L313.89 2625.82L314.51 2631.15L315.12 2633.39L319.29 2632.72L322.36 2632.22L325.70 2631.42L328.58 2630.73L330.46 2633.72L331.28 2636.33L331.52 2638.78L332.05 2642.82L333.30 2645.48L337.06 2648.31L340.28 2649.15L344.48 2649.91L346.79 2650.57L349.24 2651.27L351.78 2652.11L354.02 2652.56L356.78 2652.59L359.51 2652.41L363.02 2651.68L365.65 2650.84L369.95 2650.31L375.45 2649.16L378.81 2648.19L381.82 2647.50L385.19 2646.73L392.04 2645.54L397.93 2644.53L405.45 2645.39L407.66 2645.29L412.94 2645.03L415.24 2644.99L417.46 2645.03L417.94 2640.65L416.17 2633.38L416.76 2630.57L412.71 2615.01L410.03 2598.66L407.02 2588.90L404.50 2580.72L402.67 2577.06L400.94 2572.44L400.79 2569.74L401.15 2564.97L401.76 2561.68L402.50 2557.72L403.54 2552.18L404.04 2549.25L403.65 2546.59L402.70 2541.04L402.15 2537.79L401.75 2535.45L400.87 2531.60L400.00 2527.75L399.28 2524.54L396.51 2516.13L395.38 2510.70L395.33 2506.75L397.88 2498.45L401.05 2493.33L404.18 2490.31L406.18 2488.98L406.68 2486.72L406.95 2483.17L405.10 2474.00L405.40 2470.77L406.41 2465.09L406.78 2462.45L407.72 2459.82L408.29 2457.16L408.75 2455.13L409.26 2452.75L409.18 2450.36L408.85 2447.90L408.83 2445.50L409.07 2443.19L409.16 2440.67L409.58 2438.33L409.54 2435.94L409.83 2433.56L411.47 2431.40L408.95 2425.62L402.32 2407.08L400.78 2401.64L400.35 2398.97L399.88 2395.96L399.41 2392.96L398.15 2383.55L397.32 2377.28L396.84 2373.67L398.29 2370.74L398.76 2367.91L397.38 2364.72L396.16 2361.85L394.79 2357.13L392.36 2350.43L389.53 2346.52L387.03 2342.71L386.99 2340.20L387.03 2337.89L387.08 2335.54L386.95 2330.35L387.25 2327.82L388.62 2325.62L391.62 2323.58L391.88 2321.14L391.68 2318.38L391.23 2315.41L391.05 2313.13L389.66 2310.57L388.77 2308.03L388.15 2305.65L388.31 2303.00L388.25 2299.57L388.39 2295.30L388.52 2291.37L388.80 2288.05L390.42 2282.63L390.48 2279.74L391.16 2277.06L390.59 2274.42L391.04 2264.23L392.48 2260.12L392.41 2257.92L393.26 2251.96L391.35 2249.11L388.52 2243.47L388.98 2241.24L389.77 2238.78L391.56 2233.65L392.20 2230.49L392.71 2227.34L392.88 2219.31L393.41 2206.72L393.04 2203.13L392.74 2199.97L392.09 2197.17L391.63 2192.31L391.67 2188.06L391.48 2185.09L392.26 2180.75L392.25 2174.07L391.46 2171.10L392.34 2168.57L391.38 2154.16L391.14 2150.87L391.33 2148.05L391.88 2139.91L391.84 2136.40L390.53 2134.52L386.85 2132.94L387.72 2126.23L387.60 2118.91L387.46 2112.05L388.34 2109.68L381.88 2106.87L365.66 2099.81L358.83 2097.62L353.45 2095.90L338.06 2095.44L335.04 2095.52L323.68 2095.81L321.26 2095.61L312.77 2094.93L310.10 2094.71L306.45 2093.09L299.01 2089.86L290.37 2086.09L283.57 2083.17L265.39 2075.33L256.85 2071.77L244.33 2066.82L236.93 2065.59L234.77 2061.87L232.49 2062.89L230.17 2062.92L224.54 2062.54L223.98 2065.37L223.29 2068.90L222.58 2072.49L221.49 2075.17L216.25 2075.43L209.32 2075.78L204.18 2076.44L195.50 2077.54L193.07 2076.89L190.08 2076.09L189.76 2073.56L189.47 2071.29L189.93 2068.43L188.77 2051.76L188.44 2045.80L188.25 2041.10L187.73 2038.64L187.39 2031.59L186.58 2028.38L185.98 2023.99L184.86 2015.69L183.53 2009.56L182.71 2005.79L183.04 2000.07L183.19 1997.30L182.74 1991.45L182.34 1986.43L181.20 1984.69L179.94 1982.77L175.24 1980.90L173.12 1980.02L168.07 1978.09L162.09 1975.93L156.06 1973.76L149.59 1970.99L144.31 1973.25L138.94 1977.52L135.59 1978.77L131.23 1980.39L128.59 1979.95L126.88 1981.96L125.06 1983.72L122.71 1983.49L120.11 1981.96L117.37 1984.73L115.02 1986.89L111.82 1987.19L108.97 1988.21L106.69 1989.46L104.12 1989.73L101.93 1989.81L98.85 1989.97L95.60 1990.15L93.21 1990.22L90.49 1990.45L87.10 1991.56L87.09 1994.77L93.92 2049.44L105.12 2168.87L110.39 2212.59L118.90 2267.46L119.41 2272.42L120.72 2278.40L121.40 2282.96L121.61 2285.60L121.41 2288.59L121.82 2291.33L121.86 2293.81L122.61 2295.83L122.61 2298.16L122.45 2301.09L122.79 2304.41L123.28 2306.85L123.77 2310.71L123.90 2312.93L123.32 2315.72L123.87 2317.93L124.13 2320.94L124.37 2323.28L125.31 2328.99L125.47 2331.63L125.75 2333.73L126.11 2336.81L125.59 2343.99L126.91 2347.12L129.05 2373.99L139.72 2464.84L138.78 2472.27L139.80 2486.23L145.06 2485.98L147.34 2485.78L150.29 2485.48L152.86 2485.26L157.15 2484.83L161.42 2484.55L165.69 2484.28L169.07 2484.21L175.37 2484.14L178.00 2484.11L181.09 2483.98L186.68 2483.75L190.97 2483.58L195.21 2483.29L199.30 2483.02L205.00 2482.30L207.65 2481.97L210.36 2481.63L213.54 2481.40L217.54 2481.36L221.14 2481.33L223.73 2481.28L226.11 2481.23L228.19 2481.18L235.15 2481.00L238.77 2480.78L242.23 2480.56L245.21 2480.38L247.45 2479.57L249.82 2478.64L251.47 2477.32L253.29 2473.76L257.43 2472.56L260.82 2472.15L263.66 2471.81L270.48 2471.23L273.40 2471.27L276.33 2471.31L282.56 2471.25L287.26 2471.21Z" data-ward="12" /><path id="ward-9" class="ward" d="M806.00 2248.89L809.09 2249.55L810.93 2250.52L813.48 2250.48L813.45 2253.36L812.26 2255.37L810.77 2257.79L809.50 2259.84L806.95 2267.18L804.02 2269.99L791.93 2297.87L786.98 2309.28L777.54 2331.07L769.59 2349.42L770.56 2353.78L772.57 2362.78L772.90 2365.24L773.52 2367.78L771.25 2371.59L768.97 2375.02L766.76 2380.76L764.25 2385.02L764.29 2389.14L764.96 2392.61L765.60 2395.90L766.32 2401.13L768.52 2406.65L770.76 2413.50L777.38 2433.65L781.12 2445.04L781.82 2447.90L784.17 2457.90L786.94 2469.65L789.47 2480.42L790.32 2484.07L790.34 2487.12L790.39 2495.86L790.47 2509.30L790.66 2541.31L789.97 2545.92L788.33 2550.91L785.85 2558.43L782.70 2567.98L782.04 2570.03L780.57 2576.13L777.68 2583.15L776.44 2588.41L774.46 2592.32L771.45 2598.25L771.05 2605.04L770.12 2620.66L769.80 2626.03L769.18 2636.46L768.87 2641.73L769.65 2645.26L771.30 2652.71L772.73 2659.20L774.50 2667.17L776.40 2675.76L777.04 2679.77L777.56 2683.75L778.52 2691.06L779.49 2698.43L780.48 2705.99L780.08 2713.51L779.99 2715.62L779.88 2723.51L778.82 2727.53L775.80 2738.96L783.60 2748.24L785.76 2751.03L788.32 2754.34L791.94 2759.02L793.25 2760.73L794.71 2762.63L797.10 2765.75L799.48 2768.85L801.99 2770.01L805.21 2770.63L808.13 2771.19L811.78 2771.89L815.81 2772.66L818.29 2773.14L822.36 2773.92L826.25 2774.25L829.24 2774.50L833.47 2774.86L838.03 2773.21L841.59 2772.78L844.60 2772.41L847.76 2772.02L851.24 2771.59L854.43 2771.39L859.00 2771.10L862.78 2770.85L866.38 2770.63L870.89 2770.34L874.45 2770.11L877.70 2769.90L881.57 2770.75L884.69 2771.44L887.80 2772.12L891.11 2772.85L893.24 2773.31L896.84 2774.10L899.87 2774.77L903.17 2774.47L907.37 2775.18L910.62 2775.03L913.37 2774.91L917.40 2774.49L917.44 2774.49L921.96 2774.09L922.02 2774.08L925.77 2773.83L929.66 2773.25L935.33 2771.54L936.86 2768.33L938.33 2765.24L937.28 2761.80L936.34 2758.73L935.78 2752.70L935.34 2747.94L934.34 2745.21L932.49 2740.16L930.69 2735.26L930.68 2720.21L930.68 2715.71L930.68 2711.55L930.68 2706.61L930.95 2700.43L931.11 2696.97L931.42 2689.97L931.37 2687.85L931.25 2682.36L931.11 2675.97L930.92 2667.19L930.82 2662.55L930.44 2656.23L930.09 2650.38L932.02 2642.81L932.40 2636.45L938.15 2611.50L938.78 2608.76L944.32 2609.69L966.06 2613.35L969.75 2613.14L974.34 2612.89L977.61 2612.71L982.48 2609.31L984.76 2607.72L988.61 2603.65L991.18 2600.93L993.99 2597.96L996.48 2594.61L1000.00 2589.88L999.98 2587.46L999.93 2582.94L999.89 2578.58L999.84 2573.36L999.79 2568.76L999.75 2564.95L998.67 2562.25L996.85 2557.70L995.42 2554.14L993.96 2550.49L991.25 2543.73L990.26 2541.26L991.86 2521.48L992.21 2517.16L993.69 2504.22L994.09 2500.00L995.22 2487.98L995.94 2480.28L996.26 2476.83L996.57 2469.25L996.88 2461.77L997.14 2455.56L997.58 2442.93L998.06 2439.54L998.07 2433.07L998.09 2427.80L996.96 2424.07L996.17 2408.95L992.39 2394.09L989.51 2382.82L988.20 2375.03L986.97 2370.42L985.77 2361.64L985.40 2354.46L983.76 2345.77L982.39 2341.40L979.47 2333.42L978.39 2330.48L973.68 2323.05L970.09 2320.74L965.18 2318.84L960.52 2317.03L952.94 2314.09L946.43 2309.68L943.13 2300.89L943.00 2297.23L942.81 2292.12L942.59 2285.97L942.14 2273.52L942.44 2267.31L942.29 2260.44L941.96 2245.45L941.61 2229.34L941.36 2217.90L942.06 2193.15L944.27 2174.59L944.90 2165.28L946.51 2141.24L947.67 2123.98L948.05 2118.36L948.48 2111.95L948.89 2105.89L949.25 2100.60L949.64 2094.76L949.88 2091.22L950.20 2088.04L950.71 2082.92L951.22 2077.70L951.66 2073.28L952.13 2068.63L952.52 2064.17L952.75 2061.50L952.91 2057.44L953.11 2051.90L953.11 2048.11L953.10 2043.67L952.70 2041.55L952.09 2038.32L952.55 2032.58L952.12 2029.64L950.67 2026.33L950.13 2024.06L948.30 2020.40L947.83 2016.98L946.84 2014.33L944.65 2011.33L940.64 2007.42L936.53 2003.41L930.88 1999.77L928.68 1999.65L922.17 1998.97L916.62 1998.57L910.08 1998.77L899.35 1999.10L892.21 1999.32L888.27 1997.11L885.04 1995.31L880.26 1992.64L877.88 1991.30L875.00 1989.30L870.43 1986.12L870.11 1980.85L868.21 1976.44L867.00 1973.33L865.78 1970.22L860.22 1962.78L857.18 1966.14L855.37 1970.11L851.12 1970.06L847.85 1969.37L841.68 1969.62L837.03 1969.81L837.47 1973.86L837.94 1978.26L838.34 1982.32L839.58 1993.63L839.19 1996.04L838.43 1999.46L837.86 2002.01L837.48 2004.89L837.15 2007.38L836.83 2009.80L836.58 2012.06L836.32 2014.15L835.97 2016.99L835.26 2020.79L834.74 2023.59L834.34 2025.77L833.06 2028.38L831.14 2032.32L832.71 2037.56L833.89 2041.50L833.30 2044.50L832.86 2046.69L832.30 2049.54L831.67 2052.72L830.91 2056.54L830.33 2059.46L829.75 2062.36L829.25 2064.87L828.82 2067.03L828.11 2070.64L827.99 2072.78L827.85 2075.20L827.73 2077.32L827.59 2079.69L827.33 2084.30L827.16 2087.21L826.98 2090.41L826.26 2098.64L826.08 2100.77L825.72 2104.90L825.35 2109.08L825.17 2111.19L824.99 2113.28L824.62 2117.47L824.28 2121.38L823.61 2124.97L822.94 2128.58L822.27 2132.17L821.45 2136.57L819.90 2142.26L818.64 2146.89L817.60 2149.60L815.31 2152.75L808.82 2156.75L806.35 2157.84L803.04 2155.98L797.98 2149.95L792.39 2145.69L791.52 2143.41L784.99 2138.80L782.58 2137.46L778.59 2134.67L776.31 2134.36L773.58 2134.19L769.95 2133.95L767.58 2133.80L764.74 2133.62L762.01 2133.44L758.88 2133.24L754.90 2132.41L752.61 2131.94L749.20 2133.89L746.27 2135.56L743.89 2136.53L738.03 2138.56L734.07 2140.89L730.50 2141.40L729.54 2134.68L727.89 2130.78L726.13 2124.91L725.71 2122.81L725.04 2119.46L724.85 2116.01L724.69 2112.90L722.60 2111.27L719.93 2109.18L715.68 2108.41L704.41 2106.37L697.40 2104.45L694.96 2103.77L691.21 2102.49L689.12 2101.77L686.65 2100.88L684.46 2100.07L679.35 2099.02L676.67 2098.61L673.28 2098.09L669.65 2094.44L670.14 2087.39L666.35 2087.12L662.66 2086.85L662.21 2090.49L661.11 2096.18L657.85 2094.34L653.17 2097.93L656.72 2103.02L648.56 2108.33L643.91 2108.55L641.81 2109.53L641.23 2111.75L643.70 2114.50L646.70 2115.40L651.34 2120.17L652.24 2125.40L652.87 2129.04L652.01 2134.07L651.91 2136.94L652.57 2139.88L655.13 2151.24L657.64 2155.72L658.83 2157.93L660.05 2160.34L660.37 2163.45L661.16 2167.62L661.74 2170.60L662.15 2172.70L666.26 2171.05L670.44 2169.24L681.39 2164.47L683.38 2167.24L684.17 2170.61L683.60 2174.08L683.63 2176.87L683.61 2181.20L683.40 2183.33L683.49 2186.85L683.56 2189.26L683.31 2194.27L683.53 2197.48L684.59 2199.67L688.04 2200.00L690.66 2200.78L693.25 2201.05L695.76 2201.12L699.46 2200.93L703.00 2200.51L706.91 2200.35L708.99 2200.08L712.01 2200.27L714.55 2200.37L716.56 2203.15L715.61 2206.90L714.77 2210.71L714.33 2214.03L714.56 2216.54L715.49 2219.76L717.25 2222.68L718.08 2225.50L718.43 2229.24L718.41 2231.45L718.40 2233.74L718.33 2236.18L718.35 2239.35L718.22 2242.71L718.13 2244.84L718.00 2251.06L721.56 2251.72L724.16 2251.67L729.60 2252.79L731.79 2253.40L736.75 2253.25L739.03 2253.19L741.12 2253.14L745.58 2253.86L748.10 2254.79L751.45 2254.62L751.30 2248.74L751.71 2242.74L753.48 2240.21L759.28 2239.81L761.59 2240.24L764.08 2240.87L767.78 2241.05L769.90 2241.34L771.73 2243.17L773.12 2245.16L774.30 2247.10L776.83 2247.54L779.77 2247.89L783.46 2248.22L785.85 2249.88L790.35 2250.57L794.48 2251.46L796.71 2251.87L798.84 2252.56L801.72 2252.93L805.49 2252.84L806.00 2248.89Z" data-ward="9" /><path id="ward-1" class="ward" d="M348.95 453.07L347.13 454.12L350.50 467.75L351.05 469.92L353.93 481.28L356.20 489.61L359.31 502.08L364.48 521.81L365.53 526.29L370.13 545.88L372.86 557.78L375.11 557.57L378.40 556.86L380.66 556.37L382.95 555.88L385.33 555.33L388.53 555.48L390.35 556.82L390.69 559.48L391.91 561.68L394.17 561.30L396.87 560.54L398.94 560.15L402.22 559.68L405.11 559.59L408.21 557.84L412.59 557.10L415.17 556.79L419.97 556.20L427.58 555.46L426.40 546.32L426.00 543.09L424.62 533.37L423.27 524.45L422.36 517.93L422.00 514.66L421.69 512.44L420.47 501.32L420.53 494.80L413.18 449.00L410.33 431.29L410.13 428.30L409.76 422.75L406.87 420.99L404.57 400.90L403.14 387.74L402.58 382.55L398.35 357.73L397.34 352.97L396.24 343.62L395.73 338.15L395.07 334.41L394.77 326.88L394.33 323.16L394.25 321.98L394.00 318.99L393.73 315.86L393.44 312.44L392.89 307.40L392.54 304.19L392.19 300.98L391.78 297.24L391.33 293.05L391.07 288.00L390.67 280.48L389.05 277.54L388.60 274.81L388.17 272.21L385.21 254.48L383.55 244.04L380.91 219.60L378.88 215.97L379.83 204.49L379.44 201.82L379.11 199.60L378.58 195.96L379.12 191.91L377.27 185.95L379.41 182.87L381.30 180.15L383.94 176.35L386.66 172.44L395.94 159.09L398.38 155.58L402.61 149.41L406.89 143.15L411.16 136.90L414.55 132.24L423.59 119.79L431.93 105.93L437.31 96.98L437.97 94.60L444.53 86.32L439.34 80.61L402.65 44.56L395.16 34.70L386.32 26.48L367.79 16.08L344.92 9.59L294.77 2.87L273.44 0.00L232.43 1.95L219.35 6.88L215.78 10.99L218.51 57.85L225.87 136.10L230.74 180.65L235.06 206.67L234.08 249.52L233.86 256.74L249.68 312.15L249.66 318.33L252.11 326.19L258.81 392.08L259.71 400.76L259.07 406.40L262.77 406.69L266.19 407.09L277.58 408.41L280.08 408.01L282.49 407.63L286.65 407.07L291.74 405.98L294.53 405.50L297.28 405.03L299.52 404.71L306.46 403.94L308.80 403.59L312.22 402.62L315.94 400.92L319.78 399.17L323.98 397.90L326.59 397.68L331.10 395.72L332.97 401.90L334.40 406.61L336.52 414.04L337.68 418.33L339.42 424.35L342.21 434.23L344.90 441.73L347.27 448.35L348.11 450.71L348.95 453.07Z" data-ward="1" /><path id="ward-7" class="ward" d="M816.31 1681.27L815.92 1677.85L816.96 1672.90L819.13 1672.33L817.07 1671.13L815.01 1669.93L814.56 1666.14L814.18 1662.95L813.62 1658.20L814.31 1652.31L815.46 1642.59L816.07 1637.42L816.41 1634.52L817.05 1629.10L817.63 1624.82L818.34 1622.36L821.54 1612.37L823.32 1608.50L824.26 1606.46L825.76 1600.87L826.93 1596.58L827.65 1593.95L829.01 1589.11L828.78 1582.58L828.56 1576.21L828.53 1568.10L828.50 1560.88L827.13 1552.66L825.47 1542.65L823.74 1532.24L822.56 1527.48L820.28 1520.99L817.74 1515.01L808.13 1497.35L805.56 1492.91L799.05 1481.69L797.88 1479.58L786.74 1463.11L778.07 1450.29L776.62 1448.15L769.71 1433.78L767.15 1430.29L764.67 1424.58L757.05 1411.80L747.59 1393.56L734.47 1394.65L719.84 1395.93L714.89 1396.60L693.06 1399.92L689.57 1400.45L685.14 1401.12L678.43 1402.14L670.16 1403.57L667.26 1404.07L669.79 1407.51L672.80 1411.60L667.45 1416.95L665.87 1420.00L664.79 1422.09L663.36 1424.85L658.98 1427.60L655.29 1429.92L646.71 1433.63L644.51 1433.77L641.32 1433.95L628.13 1431.46L624.87 1430.84L616.16 1429.20L612.24 1428.41L609.51 1427.85L606.78 1428.89L604.42 1429.79L602.00 1430.71L602.80 1432.63L603.88 1435.19L605.15 1441.20L605.81 1443.34L605.98 1447.42L606.12 1450.40L606.27 1453.77L606.36 1455.95L606.46 1458.87L606.56 1461.86L606.74 1465.41L606.95 1468.55L606.86 1470.97L607.66 1474.91L607.52 1478.69L607.36 1483.28L607.40 1485.84L609.52 1487.83L609.75 1490.08L610.33 1495.71L610.65 1498.81L611.19 1503.34L610.18 1506.12L610.21 1508.23L610.23 1510.33L610.62 1514.67L610.87 1517.54L611.15 1520.71L611.09 1525.70L611.06 1528.24L612.40 1531.18L613.04 1535.43L613.39 1537.75L614.17 1543.11L614.95 1548.44L616.26 1557.44L616.93 1562.05L617.41 1566.20L617.96 1571.05L618.23 1573.38L619.36 1583.21L620.14 1590.86L622.26 1609.30L622.71 1613.34L623.69 1622.23L623.99 1624.93L624.27 1627.52L624.62 1630.72L624.91 1633.33L625.56 1639.18L626.10 1643.54L626.78 1649.47L628.54 1663.50L629.09 1667.90L629.53 1671.38L630.30 1677.51L630.68 1680.92L631.27 1686.12L631.55 1688.72L633.11 1699.87L633.19 1703.22L633.63 1706.39L634.23 1710.78L634.79 1715.72L635.28 1720.01L635.52 1722.13L635.48 1725.52L635.40 1734.18L635.31 1743.18L635.41 1747.40L635.56 1750.54L635.61 1753.62L636.02 1757.45L631.85 1757.76L627.12 1758.10L623.70 1758.35L618.05 1758.62L612.43 1758.88L606.55 1759.16L603.70 1759.17L598.04 1759.18L595.37 1759.19L587.66 1758.83L584.80 1758.70L581.85 1758.58L575.38 1758.23L572.59 1758.09L568.53 1758.17L564.44 1758.26L561.50 1758.32L554.75 1758.58L549.83 1758.76L544.03 1759.02L541.27 1759.15L538.58 1760.57L534.69 1761.29L524.04 1761.67L522.04 1761.01L518.82 1759.14L515.70 1757.32L511.93 1754.91L507.70 1752.62L507.98 1757.06L507.16 1760.73L507.32 1763.75L506.67 1766.63L504.19 1768.87L500.11 1772.08L496.52 1772.40L491.32 1772.85L487.85 1773.22L484.68 1773.56L477.89 1773.61L474.52 1774.21L470.90 1774.85L466.32 1776.14L464.26 1776.73L461.69 1777.34L459.07 1777.69L455.90 1778.15L451.55 1778.77L448.06 1779.27L448.34 1781.62L449.07 1784.32L449.81 1787.06L449.74 1791.40L450.26 1794.36L450.07 1799.03L451.44 1803.49L451.97 1805.73L453.41 1808.90L451.35 1810.89L449.18 1813.17L447.29 1814.48L446.79 1818.69L448.69 1819.78L451.43 1822.58L452.82 1824.85L453.20 1827.45L452.98 1830.24L458.74 1836.89L460.71 1841.47L465.98 1850.69L469.03 1856.63L471.43 1863.96L472.99 1871.71L474.71 1875.67L474.30 1877.80L474.41 1880.92L476.28 1882.79L477.11 1885.35L477.37 1888.16L477.47 1890.54L482.51 1889.46L485.46 1889.65L488.02 1888.76L491.13 1888.92L493.40 1889.81L498.28 1884.89L500.04 1887.94L499.65 1892.54L499.57 1895.92L499.48 1899.56L499.83 1902.36L500.61 1904.75L500.77 1908.26L502.27 1912.71L503.41 1914.80L505.67 1917.75L508.49 1920.70L513.41 1923.73L516.32 1925.51L521.30 1924.92L527.56 1924.17L533.82 1923.44L539.13 1923.67L544.50 1924.45L544.32 1927.72L544.73 1930.64L544.90 1934.11L544.99 1936.20L544.37 1938.57L543.95 1941.14L544.32 1943.73L547.22 1945.21L550.09 1945.95L553.16 1946.69L556.28 1947.61L560.31 1948.46L563.84 1948.32L567.89 1947.63L574.58 1946.29L577.89 1946.24L581.19 1946.19L581.63 1950.09L581.84 1955.17L582.30 1960.06L582.43 1963.15L583.29 1966.46L583.53 1970.88L586.62 1971.47L588.88 1971.49L592.04 1971.53L595.22 1971.60L597.65 1970.87L599.85 1971.39L602.24 1971.54L604.02 1969.63L604.12 1967.27L604.22 1963.94L604.18 1961.81L604.13 1959.30L607.32 1959.58L610.23 1959.83L612.71 1959.06L615.03 1959.08L615.03 1956.07L614.78 1953.78L617.22 1953.20L619.91 1953.16L622.20 1953.26L624.60 1953.14L625.75 1950.06L625.64 1947.81L626.19 1945.10L628.98 1943.71L634.42 1941.00L637.40 1938.45L640.50 1939.83L642.74 1940.60L646.65 1941.56L649.21 1940.91L656.81 1941.04L660.90 1940.50L664.61 1940.00L668.23 1939.98L671.80 1939.95L678.32 1937.17L679.37 1933.08L679.78 1929.93L679.32 1926.62L679.16 1922.89L678.55 1919.14L678.10 1915.89L678.29 1912.68L679.40 1909.87L679.08 1906.22L678.33 1902.70L678.63 1898.43L681.41 1893.82L685.74 1893.93L689.49 1894.16L693.41 1894.16L697.57 1893.95L700.44 1894.26L701.56 1898.82L701.91 1900.92L702.66 1908.23L702.88 1919.81L701.53 1930.01L701.52 1936.82L701.66 1939.30L701.89 1944.82L702.16 1949.01L701.27 1951.39L701.01 1954.48L701.00 1956.91L700.77 1959.04L700.54 1961.32L700.32 1964.30L700.22 1966.93L699.99 1969.20L699.77 1971.44L699.86 1974.04L699.85 1978.25L700.13 1980.92L700.71 1986.83L700.95 1988.97L701.15 1992.99L701.06 1995.43L701.36 1999.39L702.42 2001.77L705.07 2000.17L708.38 1999.88L714.59 1999.97L717.92 2000.55L719.95 2001.22L723.56 2002.60L727.91 2003.69L730.00 2003.84L732.08 2003.99L734.99 2004.39L737.10 2004.60L741.61 2003.12L745.48 2001.46L747.49 1999.83L749.30 1998.81L751.70 1998.83L754.33 1998.37L758.10 1996.82L761.05 1994.90L760.75 1992.50L759.97 1989.69L759.43 1986.80L758.73 1983.07L758.38 1980.34L755.10 1978.65L754.18 1974.44L754.80 1971.21L755.43 1967.68L755.73 1964.38L756.03 1961.15L756.64 1959.12L756.19 1956.63L756.56 1954.56L756.41 1952.34L757.70 1949.54L756.08 1947.33L756.32 1944.97L757.73 1943.27L760.44 1943.54L764.44 1943.50L769.34 1943.26L773.21 1942.89L776.16 1942.84L778.80 1942.84L782.00 1942.67L787.62 1943.29L789.93 1943.11L792.25 1942.93L797.06 1942.63L803.83 1942.72L809.76 1943.06L813.34 1943.15L816.93 1943.24L819.50 1943.31L823.85 1942.72L827.32 1941.43L828.54 1936.93L827.46 1933.65L827.91 1931.04L828.52 1928.52L829.08 1925.86L829.60 1923.35L830.39 1920.08L830.92 1913.60L830.21 1910.12L829.37 1905.97L828.91 1900.96L829.40 1896.21L830.27 1893.22L831.64 1890.21L833.91 1893.38L838.61 1893.60L841.64 1894.69L845.45 1896.06L849.10 1897.37L850.85 1900.88L849.85 1904.74L856.00 1906.21L861.59 1905.83L860.25 1898.14L859.18 1894.24L857.44 1887.86L855.93 1878.63L856.15 1875.96L855.67 1870.04L855.07 1862.59L854.96 1855.27L853.25 1853.36L852.35 1845.18L848.67 1844.98L845.86 1845.47L843.00 1845.96L840.22 1839.12L837.45 1832.33L833.48 1829.51L828.08 1825.68L827.32 1820.28L827.54 1807.30L832.73 1802.50L839.76 1796.02L842.90 1786.60L841.76 1782.26L838.59 1770.09L837.06 1764.22L834.73 1757.00L831.52 1745.45L827.63 1734.50L825.65 1728.93L823.41 1723.86L821.02 1711.85L820.33 1708.71L817.30 1695.81L816.31 1681.27Z" data-ward="7" /><path id="ward-11" class="ward" d="M424.08 2168.65L406.92 2167.18L395.63 2168.58L392.34 2168.57L391.46 2171.10L392.25 2174.07L392.26 2180.75L391.48 2185.09L391.67 2188.06L391.63 2192.31L392.09 2197.17L392.74 2199.97L393.04 2203.13L393.41 2206.72L392.88 2219.31L392.71 2227.34L392.20 2230.49L391.56 2233.65L389.77 2238.78L388.98 2241.24L388.52 2243.47L391.35 2249.11L393.26 2251.96L392.41 2257.92L392.48 2260.12L391.04 2264.23L390.59 2274.42L391.16 2277.06L390.48 2279.74L390.42 2282.63L388.80 2288.05L388.52 2291.37L388.39 2295.30L388.25 2299.57L388.31 2303.00L388.15 2305.65L388.77 2308.03L389.66 2310.57L391.05 2313.13L391.23 2315.41L391.68 2318.38L391.88 2321.14L391.62 2323.58L388.62 2325.62L387.25 2327.82L386.95 2330.35L387.08 2335.54L387.03 2337.89L386.99 2340.20L387.03 2342.71L389.53 2346.52L392.36 2350.43L394.79 2357.13L396.16 2361.85L397.38 2364.72L398.76 2367.91L398.29 2370.74L396.84 2373.67L397.32 2377.28L398.15 2383.55L399.41 2392.96L399.88 2395.96L400.35 2398.97L400.78 2401.64L402.32 2407.08L408.95 2425.62L411.47 2431.40L409.83 2433.56L409.54 2435.94L409.58 2438.33L409.16 2440.67L409.07 2443.19L408.83 2445.50L408.85 2447.90L409.18 2450.36L409.26 2452.75L408.75 2455.13L408.29 2457.16L407.72 2459.82L406.78 2462.45L406.41 2465.09L405.40 2470.77L405.10 2474.00L406.95 2483.17L406.68 2486.72L406.18 2488.98L404.18 2490.31L401.05 2493.33L397.88 2498.45L395.33 2506.75L395.38 2510.70L396.51 2516.13L399.28 2524.54L400.00 2527.75L400.87 2531.60L401.75 2535.45L402.15 2537.79L402.70 2541.04L403.65 2546.59L404.04 2549.25L403.54 2552.18L402.50 2557.72L401.76 2561.68L401.15 2564.97L400.79 2569.74L400.94 2572.44L402.67 2577.06L404.50 2580.72L407.02 2588.90L410.03 2598.66L412.71 2615.01L416.76 2630.57L416.17 2633.38L417.94 2640.65L417.46 2645.03L422.02 2645.09L425.20 2646.41L428.91 2646.87L431.52 2646.64L437.03 2645.93L439.30 2645.64L443.57 2644.97L446.70 2643.94L450.63 2642.05L454.50 2641.95L460.71 2641.84L465.02 2642.31L468.89 2642.72L471.96 2643.62L474.97 2644.82L480.84 2647.86L489.71 2650.35L492.66 2651.00L496.39 2650.87L500.32 2650.73L502.49 2650.67L511.49 2649.39L513.59 2650.11L517.74 2649.94L522.28 2649.76L542.80 2646.66L561.12 2645.93L568.24 2645.64L563.00 2638.77L562.88 2635.93L562.73 2632.16L562.60 2629.98L562.35 2625.85L562.20 2623.18L562.02 2619.98L561.81 2616.45L562.06 2611.31L562.40 2605.04L562.58 2600.42L562.69 2597.67L562.68 2593.82L563.42 2587.20L563.96 2582.60L564.44 2578.93L567.55 2578.61L568.95 2575.34L570.04 2572.36L571.16 2569.33L572.34 2567.23L573.80 2564.66L575.95 2562.47L576.47 2560.02L577.76 2557.72L578.56 2555.65L579.27 2553.33L580.01 2550.91L580.74 2548.54L581.10 2546.14L581.46 2543.41L581.74 2541.28L582.04 2539.02L582.37 2536.45L582.63 2534.10L582.87 2531.93L582.99 2529.41L583.10 2526.90L583.21 2524.51L583.32 2522.02L583.47 2518.26L583.60 2515.20L583.73 2512.73L583.83 2509.36L583.89 2506.33L584.35 2502.19L585.26 2500.20L583.23 2499.33L581.17 2499.33L576.75 2499.34L576.77 2493.14L576.79 2489.91L576.83 2480.65L580.13 2472.82L585.78 2471.12L585.27 2467.53L584.81 2464.37L584.29 2460.80L583.98 2458.65L584.10 2456.37L584.25 2453.51L582.84 2450.74L582.41 2447.34L582.14 2445.14L581.65 2440.84L581.33 2437.42L581.01 2434.44L580.64 2431.11L579.03 2428.07L578.57 2424.71L578.26 2422.36L578.34 2418.74L578.39 2415.78L578.47 2412.41L578.52 2410.03L578.69 2407.10L578.83 2404.80L579.43 2402.61L580.03 2400.43L580.69 2397.33L580.99 2394.72L581.40 2391.16L581.93 2386.52L582.17 2384.43L582.45 2381.97L582.74 2379.81L583.30 2375.60L583.74 2373.07L584.23 2370.26L584.67 2367.74L585.13 2365.09L585.52 2362.86L585.98 2360.19L586.34 2358.10L586.90 2354.49L587.59 2349.99L588.01 2346.78L588.58 2342.46L588.91 2339.66L589.26 2336.67L589.51 2333.93L589.78 2330.92L590.04 2328.11L590.17 2325.45L590.32 2322.71L590.39 2318.44L591.57 2315.94L590.04 2314.28L589.99 2311.75L589.85 2309.27L589.73 2306.86L589.56 2304.39L589.40 2301.87L589.21 2299.31L589.09 2296.66L588.97 2294.02L588.82 2291.35L588.62 2288.63L588.30 2285.91L588.19 2283.32L587.97 2280.70L587.87 2278.40L587.59 2276.05L559.58 2276.90L556.61 2276.46L554.51 2276.41L551.92 2276.36L549.89 2275.85L523.91 2271.36L521.84 2270.99L519.62 2271.03L517.32 2270.62L514.02 2271.35L513.90 2269.18L513.86 2267.07L513.83 2264.06L514.05 2261.72L514.00 2258.71L513.93 2254.55L514.21 2250.66L514.09 2248.03L514.19 2245.71L514.09 2242.63L513.57 2238.93L513.43 2236.51L513.22 2234.03L513.10 2231.47L512.68 2228.77L512.33 2225.78L511.93 2223.59L511.62 2221.05L511.55 2218.26L511.48 2215.58L511.31 2212.81L511.22 2209.73L511.55 2205.95L511.97 2201.94L512.30 2198.57L512.99 2196.28L513.10 2193.91L513.34 2191.45L513.29 2187.53L513.48 2184.66L513.55 2180.55L513.67 2178.04L513.72 2174.82L513.76 2172.26L499.07 2166.69L493.99 2164.76L489.69 2163.97L485.88 2162.56L477.62 2160.99L469.93 2161.29L459.33 2161.69L450.11 2162.01L447.74 2162.26L424.08 2168.65Z" data-ward="11" /><path id="ward-2" class="ward" d="M428.62 575.23L429.63 581.32L430.25 599.65L430.64 618.82L429.08 618.72L433.61 640.62L434.04 644.83L435.44 649.44L436.92 658.25L438.82 669.59L439.26 671.63L442.74 671.65L446.18 671.81L449.76 671.57L453.02 671.30L456.15 671.45L474.69 670.42L480.65 670.13L491.03 668.66L498.09 667.67L497.42 664.69L498.08 662.37L499.16 660.10L501.29 658.86L506.08 658.46L509.37 658.14L515.22 657.32L518.16 657.00L521.06 656.68L527.61 655.19L531.45 654.72L535.51 654.68L539.11 655.00L543.01 655.49L551.71 655.47L554.59 655.27L558.71 654.81L562.09 654.20L576.65 652.90L579.42 645.80L581.15 641.37L585.18 634.22L588.22 628.84L596.13 616.28L597.57 612.00L598.82 607.67L599.22 605.54L599.91 598.23L599.72 593.05L599.19 587.91L598.22 582.57L595.74 569.72L593.77 559.47L592.90 553.34L590.78 538.29L589.00 525.63L588.66 520.27L589.42 504.41L590.01 496.44L591.12 481.40L592.19 467.01L592.62 461.14L593.69 446.85L593.70 438.22L593.77 435.06L592.16 425.96L588.90 407.51L588.19 403.50L585.18 384.46L584.71 374.84L584.23 365.29L583.67 354.31L584.01 346.85L584.51 338.06L587.03 311.20L587.23 305.95L587.72 303.85L597.38 273.49L599.01 267.50L604.94 253.83L665.47 168.43L631.27 155.75L563.11 148.89L532.86 142.90L496.50 127.15L452.71 93.23L444.53 86.32L437.97 94.60L437.31 96.98L431.93 105.93L423.59 119.79L414.55 132.24L411.16 136.90L406.89 143.15L402.61 149.41L398.38 155.58L395.94 159.09L386.66 172.44L383.94 176.35L381.30 180.15L379.41 182.87L377.27 185.95L379.12 191.91L378.58 195.96L379.11 199.60L379.44 201.82L379.83 204.49L378.88 215.97L380.91 219.60L383.55 244.04L385.21 254.48L388.17 272.21L388.60 274.81L389.05 277.54L390.67 280.48L391.07 288.00L391.33 293.05L391.78 297.24L392.19 300.98L392.54 304.19L392.89 307.40L393.44 312.44L393.73 315.86L394.00 318.99L394.25 321.98L394.33 323.16L394.77 326.88L395.07 334.41L395.73 338.15L396.24 343.62L397.34 352.97L398.35 357.73L402.58 382.55L403.14 387.74L404.57 400.90L406.87 420.99L409.76 422.75L410.13 428.30L410.33 431.29L413.18 449.00L420.53 494.80L420.47 501.32L421.69 512.44L422.00 514.66L422.36 517.93L423.27 524.45L424.62 533.37L426.00 543.09L426.40 546.32L427.58 555.46L427.84 557.67L428.84 566.32L428.94 571.35L428.62 575.23Z" data-ward="2" /><path id="ward-3" class="ward" d="M512.99 1109.68L513.40 1114.93L513.86 1120.69L514.16 1124.53L514.34 1126.72L514.92 1134.04L515.11 1136.46L515.58 1141.22L516.07 1146.22L515.91 1150.06L515.80 1152.66L519.31 1158.72L523.50 1157.87L529.07 1156.28L531.29 1155.64L537.64 1154.19L545.45 1152.50L548.05 1151.83L552.32 1151.18L559.08 1149.98L562.89 1149.30L569.06 1148.21L575.67 1147.03L580.82 1144.45L585.74 1143.85L589.47 1143.39L592.01 1143.08L594.75 1150.81L605.88 1151.11L611.93 1165.83L623.40 1166.66L632.40 1169.19L632.87 1179.20L633.02 1182.64L629.87 1184.55L632.84 1186.84L635.80 1189.12L639.21 1192.83L639.74 1193.48L640.14 1194.04L643.21 1201.90L643.28 1202.05L645.48 1207.35L645.51 1207.44L645.69 1207.88L642.66 1212.84L647.78 1212.02L652.24 1211.27L657.93 1210.31L667.52 1208.71L670.34 1208.59L672.40 1208.07L677.42 1206.55L681.98 1206.01L688.80 1204.76L703.55 1203.78L714.32 1203.07L728.66 1202.37L729.15 1198.64L726.48 1192.23L725.68 1189.74L722.32 1181.67L722.25 1180.13L722.24 1180.08L721.97 1171.75L721.11 1168.52L720.19 1161.84L719.73 1158.88L718.86 1153.23L720.46 1145.93L721.25 1142.34L722.90 1134.84L723.86 1131.71L725.54 1126.24L730.52 1110.07L734.77 1096.31L737.01 1089.08L737.89 1080.61L738.16 1078.01L738.32 1075.89L740.20 1068.41L741.33 1063.94L741.52 1061.81L741.94 1057.11L740.22 1052.52L738.29 1049.50L732.49 1040.41L725.13 1028.86L723.13 1023.29L719.70 1017.22L718.93 1016.24L715.99 1010.47L702.70 993.21L698.49 987.74L690.41 967.17L685.18 950.89L682.90 942.52L673.99 935.18L644.52 924.25L633.52 920.17L628.44 914.66L626.02 903.29L625.18 897.93L620.85 875.79L620.19 873.41L622.17 861.07L627.25 842.91L631.40 821.56L631.68 820.11L631.96 818.66L632.23 816.21L632.53 813.36L633.52 802.25L628.32 790.53L620.49 772.86L611.93 754.02L611.08 751.93L608.20 747.36L600.36 734.64L596.46 729.55L588.85 719.17L585.87 715.12L575.98 689.66L574.92 683.84L574.09 675.03L573.29 663.54L576.65 652.90L562.09 654.20L558.71 654.81L554.59 655.27L551.71 655.47L543.01 655.49L539.11 655.00L535.51 654.68L531.45 654.72L527.61 655.19L521.06 656.68L518.16 657.00L515.22 657.32L509.37 658.14L506.08 658.46L501.29 658.86L499.16 660.10L498.08 662.37L497.42 664.69L498.09 667.67L491.03 668.66L480.65 670.13L474.69 670.42L456.15 671.45L453.02 671.30L449.76 671.57L446.18 671.81L442.74 671.65L439.26 671.63L444.64 704.29L445.05 707.14L446.87 719.73L447.73 725.86L448.58 731.90L449.22 736.07L449.74 740.24L451.70 755.86L453.31 769.70L454.29 777.83L454.51 787.48L454.75 794.10L455.11 803.55L455.44 810.09L455.92 815.11L457.20 816.83L456.86 819.57L456.58 821.82L457.13 826.93L457.49 830.27L457.65 835.83L457.79 840.43L458.29 844.48L458.63 847.26L458.86 852.33L459.01 855.77L459.20 860.18L459.38 864.25L459.50 867.01L459.60 869.20L460.19 873.66L460.62 876.94L461.07 880.36L461.44 884.32L461.85 888.78L459.63 888.90L456.13 889.46L453.02 890.15L450.43 890.47L447.96 890.92L445.90 891.42L443.78 891.78L441.06 892.49L435.55 894.38L432.88 894.42L428.94 894.48L425.37 894.53L423.14 896.03L420.24 896.98L416.74 897.31L413.96 897.72L411.49 897.93L409.03 898.15L405.92 898.59L401.68 899.21L399.26 899.46L396.22 899.78L391.44 900.37L385.44 901.11L386.03 903.50L387.86 910.07L389.03 913.90L390.29 918.00L391.27 921.19L392.18 924.15L392.91 926.52L394.27 930.50L394.89 932.66L395.62 935.21L396.57 938.53L397.43 941.76L398.37 944.62L400.09 949.86L400.86 952.15L402.11 955.65L404.51 962.53L405.62 965.57L406.90 968.81L409.36 976.25L410.14 978.61L412.48 983.03L413.60 985.16L415.46 988.66L416.03 991.26L416.88 995.08L418.17 1000.91L418.21 1003.22L418.25 1005.49L418.29 1007.62L418.35 1011.44L418.64 1014.19L419.16 1019.18L419.48 1022.26L419.99 1027.13L420.26 1029.66L421.03 1034.19L421.49 1036.88L421.98 1039.77L423.43 1048.31L424.39 1053.97L425.29 1059.24L425.44 1063.41L425.56 1067.06L425.66 1069.73L425.79 1073.65L425.89 1076.47L426.40 1081.17L426.77 1084.58L427.18 1088.43L427.46 1090.99L428.22 1093.85L429.60 1099.07L430.14 1101.11L431.32 1105.58L434.28 1105.60L437.49 1104.90L441.96 1104.16L444.23 1104.01L447.87 1103.61L450.75 1103.26L453.54 1102.81L456.13 1101.80L458.75 1100.38L459.86 1097.28L459.74 1094.27L459.48 1091.90L458.86 1089.78L455.34 1088.29L453.49 1085.39L452.15 1083.38L451.66 1080.87L451.65 1078.77L452.61 1076.42L453.98 1072.20L454.12 1069.74L453.62 1067.41L452.91 1065.38L453.29 1062.81L453.98 1059.34L453.26 1054.76L455.22 1052.20L456.08 1050.13L458.03 1049.02L460.70 1048.43L463.00 1047.85L465.73 1047.59L467.81 1047.54L471.86 1045.88L475.77 1044.59L477.24 1046.78L479.58 1045.97L482.87 1044.25L485.20 1043.91L487.58 1042.56L492.08 1041.85L494.19 1042.35L496.33 1041.53L498.71 1040.39L501.80 1039.63L503.18 1043.35L504.19 1047.03L506.34 1057.35L507.88 1064.72L508.97 1071.39L509.30 1074.01L509.76 1077.68L510.11 1082.81L510.37 1086.58L510.88 1091.76L511.27 1095.77L511.68 1099.10L512.03 1101.90L512.31 1104.15L512.72 1107.44L512.99 1109.68Z" data-ward="3" /><path id="ward-10" class="ward" d="M781.82 2447.90L781.12 2445.04L777.38 2433.65L770.76 2413.50L768.52 2406.65L766.32 2401.13L765.60 2395.90L764.96 2392.61L764.29 2389.14L764.25 2385.02L766.76 2380.76L768.97 2375.02L771.25 2371.59L773.52 2367.78L772.90 2365.24L772.57 2362.78L770.56 2353.78L769.59 2349.42L777.54 2331.07L786.98 2309.28L791.93 2297.87L804.02 2269.99L806.95 2267.18L809.50 2259.84L810.77 2257.79L812.26 2255.37L813.45 2253.36L813.48 2250.48L810.93 2250.52L809.09 2249.55L806.00 2248.89L805.49 2252.84L801.72 2252.93L798.84 2252.56L796.71 2251.87L794.48 2251.46L790.35 2250.57L785.85 2249.88L783.46 2248.22L779.77 2247.89L776.83 2247.54L774.30 2247.10L773.12 2245.16L771.73 2243.17L769.90 2241.34L767.78 2241.05L764.08 2240.87L761.59 2240.24L759.28 2239.81L753.48 2240.21L751.71 2242.74L751.30 2248.74L751.45 2254.62L748.10 2254.79L745.58 2253.86L741.12 2253.14L739.03 2253.19L736.75 2253.25L731.79 2253.40L729.60 2252.79L724.16 2251.67L721.56 2251.72L718.00 2251.06L718.13 2244.84L718.22 2242.71L718.35 2239.35L718.33 2236.18L718.40 2233.74L718.41 2231.45L718.43 2229.24L718.08 2225.50L717.25 2222.68L715.49 2219.76L714.56 2216.54L714.33 2214.03L714.77 2210.71L715.61 2206.90L716.56 2203.15L714.55 2200.37L712.01 2200.27L708.99 2200.08L706.91 2200.35L703.00 2200.51L699.46 2200.93L695.76 2201.12L693.25 2201.05L690.66 2200.78L688.04 2200.00L684.59 2199.67L683.53 2197.48L683.31 2194.27L683.56 2189.26L683.49 2186.85L683.40 2183.33L683.61 2181.20L683.63 2176.87L683.60 2174.08L684.17 2170.61L683.38 2167.24L681.39 2164.47L670.44 2169.24L666.26 2171.05L662.15 2172.70L662.73 2174.94L663.60 2178.32L662.01 2184.21L661.44 2186.25L659.78 2192.39L657.74 2197.73L657.35 2203.12L657.00 2207.85L656.95 2213.27L655.38 2217.69L658.68 2218.36L661.10 2225.14L660.10 2228.14L657.38 2236.89L654.25 2239.44L652.80 2248.49L650.59 2252.58L650.24 2256.97L650.83 2259.88L651.41 2262.78L655.29 2263.75L655.12 2266.28L650.63 2266.79L650.32 2268.93L650.00 2271.08L647.21 2280.37L645.26 2281.76L643.44 2283.06L640.20 2285.37L639.77 2288.23L639.13 2292.49L639.17 2295.87L639.22 2301.10L633.88 2308.15L629.77 2316.27L623.19 2315.98L614.31 2314.30L610.93 2314.78L608.21 2315.67L605.77 2316.47L602.93 2316.14L600.78 2316.21L596.47 2316.33L593.92 2316.27L591.57 2315.94L590.39 2318.44L590.32 2322.71L590.17 2325.45L590.04 2328.11L589.78 2330.92L589.51 2333.93L589.26 2336.67L588.91 2339.66L588.58 2342.46L588.01 2346.78L587.59 2349.99L586.90 2354.49L586.34 2358.10L585.98 2360.19L585.52 2362.86L585.13 2365.09L584.67 2367.74L584.23 2370.26L583.74 2373.07L583.30 2375.60L582.74 2379.81L582.45 2381.97L582.17 2384.43L581.93 2386.52L581.40 2391.16L580.99 2394.72L580.69 2397.33L580.03 2400.43L579.43 2402.61L578.83 2404.80L578.69 2407.10L578.52 2410.03L578.47 2412.41L578.39 2415.78L578.34 2418.74L578.26 2422.36L578.57 2424.71L579.03 2428.07L580.64 2431.11L581.01 2434.44L581.33 2437.42L581.65 2440.84L582.14 2445.14L582.41 2447.34L582.84 2450.74L584.25 2453.51L584.10 2456.37L583.98 2458.65L584.29 2460.80L584.81 2464.37L585.27 2467.53L585.78 2471.12L580.13 2472.82L576.83 2480.65L576.79 2489.91L576.77 2493.14L576.75 2499.34L581.17 2499.33L583.23 2499.33L585.26 2500.20L584.35 2502.19L583.89 2506.33L583.83 2509.36L583.73 2512.73L583.60 2515.20L583.47 2518.26L583.32 2522.02L583.21 2524.51L583.10 2526.90L582.99 2529.41L582.87 2531.93L582.63 2534.10L582.37 2536.45L582.04 2539.02L581.74 2541.28L581.46 2543.41L581.10 2546.14L580.74 2548.54L580.01 2550.91L579.27 2553.33L578.56 2555.65L577.76 2557.72L576.47 2560.02L575.95 2562.47L573.80 2564.66L572.34 2567.23L571.16 2569.33L570.04 2572.36L568.95 2575.34L567.55 2578.61L564.44 2578.93L563.96 2582.60L563.42 2587.20L562.68 2593.82L562.69 2597.67L562.58 2600.42L562.40 2605.04L562.06 2611.31L561.81 2616.45L562.02 2619.98L562.20 2623.18L562.35 2625.85L562.60 2629.98L562.73 2632.16L562.88 2635.93L563.00 2638.77L568.24 2645.64L563.43 2648.77L563.77 2655.59L563.90 2658.12L564.28 2663.39L564.44 2665.69L564.76 2669.70L564.98 2672.58L565.34 2676.79L565.56 2679.47L566.21 2685.85L566.74 2691.06L567.01 2694.29L567.37 2697.99L567.67 2701.23L567.93 2703.37L568.50 2708.07L569.14 2713.12L569.85 2718.77L570.53 2724.15L571.29 2729.82L571.78 2733.42L572.08 2735.71L573.11 2743.26L573.50 2746.13L574.22 2749.85L577.83 2749.59L580.26 2749.41L584.67 2749.93L587.18 2747.82L588.71 2744.57L588.74 2737.97L590.08 2735.84L591.06 2735.40L591.28 2735.26L594.18 2733.95L598.91 2733.77L600.99 2732.99L603.37 2732.98L603.67 2729.37L608.02 2730.15L610.24 2730.48L612.31 2730.80L614.69 2730.42L616.94 2732.31L616.93 2733.93L616.93 2734.12L616.92 2734.30L616.92 2734.76L617.00 2736.06L617.20 2736.68L619.86 2738.51L623.48 2738.40L626.52 2738.30L630.99 2738.98L633.64 2739.35L636.17 2739.78L635.84 2737.58L635.26 2733.69L638.77 2734.23L640.92 2734.57L644.04 2735.05L646.12 2735.37L648.25 2735.70L650.37 2736.03L652.50 2736.36L654.67 2736.69L656.79 2737.02L661.64 2736.80L663.72 2736.71L667.70 2737.26L672.98 2739.44L677.32 2739.54L680.82 2739.63L684.13 2740.29L686.35 2740.74L690.46 2740.99L692.60 2741.12L694.66 2741.24L696.79 2741.37L702.58 2741.24L706.92 2741.14L710.66 2742.24L713.96 2742.46L718.43 2742.58L723.41 2742.72L727.53 2742.83L732.30 2741.69L737.93 2742.48L740.18 2742.80L748.03 2740.25L750.96 2739.64L754.78 2738.85L758.61 2738.05L761.15 2737.52L764.46 2737.22L766.53 2737.03L769.70 2736.74L773.57 2736.39L775.80 2738.96L778.82 2727.53L779.88 2723.51L779.99 2715.62L780.08 2713.51L780.48 2705.99L779.49 2698.43L778.52 2691.06L777.56 2683.75L777.04 2679.77L776.40 2675.76L774.50 2667.17L772.73 2659.20L771.30 2652.71L769.65 2645.26L768.87 2641.73L769.18 2636.46L769.80 2626.03L770.12 2620.66L771.05 2605.04L771.45 2598.25L774.46 2592.32L776.44 2588.41L777.68 2583.15L780.57 2576.13L782.04 2570.03L782.70 2567.98L785.85 2558.43L788.33 2550.91L789.97 2545.92L790.66 2541.31L790.47 2509.30L790.39 2495.86L790.34 2487.12L790.32 2484.07L789.47 2480.42L786.94 2469.65L784.17 2457.90L781.82 2447.90Z" data-ward="10" /><path id="ward-13" class="ward" d="M474.41 1880.92L474.30 1877.80L474.71 1875.67L472.99 1871.71L471.43 1863.96L469.03 1856.63L465.98 1850.69L460.71 1841.47L458.74 1836.89L452.98 1830.24L453.20 1827.45L452.82 1824.85L451.43 1822.58L448.69 1819.78L446.79 1818.69L447.29 1814.48L449.18 1813.17L451.35 1810.89L453.41 1808.90L451.97 1805.73L451.44 1803.49L450.07 1799.03L450.26 1794.36L449.74 1791.40L449.81 1787.06L449.07 1784.32L448.34 1781.62L448.06 1779.27L440.39 1780.46L418.38 1783.88L407.97 1787.00L404.11 1788.12L396.48 1790.70L393.67 1791.62L388.06 1793.47L383.34 1795.69L380.21 1797.16L375.60 1799.33L370.41 1801.77L365.91 1802.00L366.34 1798.71L366.81 1795.08L367.39 1791.84L368.61 1788.03L369.96 1784.52L372.44 1778.11L371.73 1774.91L370.63 1770.77L369.88 1767.91L369.24 1765.51L368.75 1761.49L368.19 1757.03L367.01 1748.65L366.30 1743.58L365.66 1739.13L364.33 1729.85L363.54 1724.37L362.92 1720.04L361.62 1714.11L360.53 1710.33L358.74 1704.10L357.63 1700.22L354.63 1696.98L351.30 1696.35L350.30 1696.06L350.04 1695.97L342.58 1692.84L337.63 1693.46L331.70 1691.98L309.06 1686.30L299.18 1683.82L290.16 1681.19L280.38 1678.33L258.24 1671.86L239.38 1666.07L225.55 1661.62L220.13 1660.24L203.73 1655.42L190.78 1651.61L176.05 1647.29L173.98 1646.68L168.45 1646.58L164.50 1646.56L160.92 1646.52L158.43 1646.49L155.22 1646.50L152.79 1646.51L150.03 1646.52L145.85 1647.23L143.31 1647.39L141.69 1644.32L141.75 1642.35L140.12 1641.34L132.28 1586.71L125.09 1564.67L124.22 1540.75L113.37 1482.29L112.08 1471.64L111.15 1460.32L110.97 1458.11L115.09 1456.85L117.11 1456.24L118.10 1458.31L120.06 1462.45L121.06 1464.57L122.04 1466.65L123.07 1468.81L125.33 1473.58L128.56 1472.94L131.22 1472.42L133.90 1471.89L136.03 1471.46L138.64 1470.95L141.26 1470.43L143.36 1470.02L146.54 1469.48L148.61 1469.14L150.66 1468.79L153.11 1468.38L160.37 1467.16L169.80 1465.58L180.29 1463.98L186.65 1463.02L190.16 1462.48L196.56 1461.51L208.12 1459.75L214.76 1458.62L223.80 1457.07L230.19 1455.98L236.62 1454.88L240.32 1454.25L250.32 1453.03L259.52 1451.90L266.99 1450.99L281.39 1448.81L286.15 1448.09L290.89 1447.67L307.20 1446.32L308.77 1451.12L309.05 1457.03L309.31 1462.87L309.42 1465.23L312.71 1467.12L315.29 1466.98L319.64 1466.75L328.38 1466.28L331.19 1465.83L334.14 1465.35L336.76 1464.92L339.71 1464.44L342.22 1464.03L344.69 1463.63L348.33 1462.56L350.40 1461.96L354.34 1460.81L358.32 1460.19L362.45 1459.54L365.02 1459.14L368.05 1458.67L371.61 1458.29L370.60 1454.70L369.40 1450.47L367.41 1445.15L366.09 1440.45L365.48 1435.01L365.64 1431.87L365.86 1427.44L365.89 1424.66L365.93 1421.89L364.73 1416.46L364.19 1413.89L363.53 1410.73L362.82 1408.73L361.99 1406.41L360.53 1403.20L359.65 1399.56L359.09 1395.70L359.03 1391.87L358.82 1388.60L358.67 1386.36L358.57 1383.85L358.46 1381.26L358.39 1378.41L357.76 1375.60L357.06 1372.47L356.32 1369.17L355.83 1367.00L355.34 1364.84L354.41 1360.68L353.63 1357.23L352.80 1353.52L352.32 1351.37L351.34 1347.03L350.81 1344.64L350.10 1341.48L349.53 1338.95L345.30 1339.70L343.10 1340.11L340.92 1340.39L338.31 1340.60L337.54 1338.58L337.00 1336.50L337.11 1333.95L336.83 1331.50L334.44 1330.67L331.06 1331.25L328.01 1330.85L325.68 1331.91L323.05 1332.86L319.90 1333.83L318.57 1335.58L317.22 1337.24L315.17 1337.72L311.47 1338.84L308.58 1339.55L306.39 1340.11L303.70 1338.94L303.15 1336.37L303.16 1334.21L302.29 1326.48L302.19 1322.51L302.21 1316.15L300.83 1304.03L299.50 1297.59L300.89 1287.10L297.89 1279.63L296.58 1270.49L294.60 1259.98L294.52 1253.65L293.19 1244.05L292.61 1234.40L292.38 1230.54L292.17 1228.37L291.80 1224.49L291.23 1221.35L290.75 1218.72L289.70 1213.47L289.08 1209.98L285.99 1208.41L282.27 1207.96L274.61 1208.05L263.41 1208.62L257.29 1207.93L253.32 1208.38L247.43 1209.04L240.92 1210.02L234.41 1211.00L229.93 1210.49L223.05 1214.77L219.96 1214.76L215.63 1214.73L211.20 1214.53L205.36 1214.07L201.89 1213.81L199.73 1213.48L197.12 1213.35L194.64 1213.38L191.38 1213.58L188.27 1213.96L185.29 1214.47L182.01 1214.77L178.79 1215.04L175.21 1215.24L171.54 1215.44L169.18 1215.57L166.64 1215.72L162.50 1215.70L160.05 1215.57L156.76 1215.75L154.01 1215.85L151.70 1216.62L149.58 1217.06L143.72 1218.47L140.82 1219.10L136.97 1219.88L134.75 1220.48L132.73 1221.07L130.33 1221.76L127.62 1222.54L124.68 1223.45L120.94 1224.53L117.65 1225.50L114.50 1226.48L110.36 1227.46L107.32 1228.20L103.96 1229.26L100.88 1229.87L98.16 1230.63L94.16 1231.30L91.04 1232.83L89.18 1233.86L85.77 1234.92L83.50 1235.38L78.69 1236.58L76.59 1237.58L74.23 1240.92L71.18 1243.01L69.13 1244.30L67.17 1246.00L65.79 1248.31L65.95 1250.61L66.68 1253.95L67.02 1256.23L66.90 1258.51L66.73 1261.13L66.83 1264.18L67.00 1267.62L66.88 1270.00L66.72 1273.82L66.68 1277.48L66.63 1282.09L66.60 1285.43L66.58 1288.23L66.28 1290.59L66.29 1293.29L66.84 1296.98L67.92 1301.29L68.54 1303.65L70.13 1307.10L72.45 1309.88L75.02 1311.80L77.37 1314.01L79.01 1315.68L80.45 1318.75L80.65 1321.67L80.50 1323.99L80.58 1326.11L81.53 1329.39L81.56 1332.01L81.60 1335.57L81.66 1340.77L82.45 1343.92L83.66 1347.46L85.52 1351.45L87.01 1354.64L88.45 1357.72L89.99 1361.00L90.82 1365.70L91.63 1370.11L91.64 1372.88L92.24 1378.08L92.42 1381.05L93.83 1386.16L95.49 1390.16L97.68 1394.43L99.78 1399.29L101.71 1403.83L102.99 1407.81L103.96 1411.92L104.56 1416.66L105.36 1419.85L104.88 1422.97L104.50 1426.13L103.70 1430.15L102.98 1433.06L101.66 1436.01L102.24 1440.27L34.13 1450.66L24.55 1449.13L18.71 1448.12L14.45 1447.23L11.07 1447.98L5.51 1448.46L0.00 1448.98L0.28 1453.18L1.20 1458.85L3.13 1469.92L5.67 1483.01L8.29 1496.50L10.32 1505.59L12.08 1514.99L12.93 1520.49L14.34 1527.48L15.73 1535.40L16.32 1538.12L17.74 1543.26L19.83 1556.89L22.99 1571.81L25.51 1589.52L28.26 1606.43L33.39 1635.75L35.71 1653.62L36.09 1657.29L38.50 1667.89L40.01 1677.02L41.41 1685.19L42.63 1695.98L41.84 1702.40L43.71 1719.72L46.74 1742.74L48.84 1755.34L50.47 1766.56L52.02 1777.26L53.97 1790.66L55.75 1799.00L58.80 1810.89L60.20 1823.13L62.87 1834.71L63.98 1848.80L68.13 1872.96L71.43 1891.92L74.96 1918.02L75.78 1924.12L76.23 1927.44L76.61 1930.17L77.00 1933.06L77.36 1935.39L77.95 1938.22L78.33 1940.94L78.76 1943.93L79.15 1946.21L80.61 1949.88L87.10 1991.56L90.49 1990.45L93.21 1990.22L95.60 1990.15L98.85 1989.97L101.93 1989.81L104.12 1989.73L106.69 1989.46L108.97 1988.21L111.82 1987.19L115.02 1986.89L117.37 1984.73L120.11 1981.96L122.71 1983.49L125.06 1983.72L126.88 1981.96L128.59 1979.95L131.23 1980.39L135.59 1978.77L138.94 1977.52L144.31 1973.25L149.59 1970.99L156.06 1973.76L162.09 1975.93L168.07 1978.09L173.12 1980.02L175.24 1980.90L179.94 1982.77L181.20 1984.69L182.34 1986.43L182.74 1991.45L183.19 1997.30L183.04 2000.07L182.71 2005.79L183.53 2009.56L184.86 2015.69L185.98 2023.99L186.58 2028.38L187.39 2031.59L187.73 2038.64L188.25 2041.10L188.44 2045.80L188.77 2051.76L189.93 2068.43L189.47 2071.29L189.76 2073.56L190.08 2076.09L193.07 2076.89L195.50 2077.54L204.18 2076.44L209.32 2075.78L216.25 2075.43L221.49 2075.17L222.58 2072.49L223.29 2068.90L223.98 2065.37L224.54 2062.54L230.17 2062.92L232.49 2062.89L234.77 2061.87L234.96 2058.08L234.77 2052.60L230.21 2050.12L232.15 2048.33L234.66 2046.01L239.40 2041.63L243.68 2037.67L245.50 2037.78L249.22 2033.37L251.11 2031.90L255.64 2028.39L265.35 2028.65L276.11 2028.95L285.90 2029.22L292.76 2029.40L306.17 2029.77L319.66 2030.14L326.43 2030.33L327.67 2027.82L333.75 2027.33L347.03 2028.47L352.19 2028.91L360.22 2030.80L363.05 2031.47L367.23 2031.08L370.75 2030.78L376.55 2034.16L378.29 2035.11L378.62 2035.26L378.85 2035.35L380.51 2035.27L384.89 2034.51L386.83 2033.57L392.02 2033.05L389.89 2028.30L388.20 2025.16L386.93 2020.57L384.60 2016.87L383.79 2014.80L381.58 2011.52L380.26 2008.42L379.27 2006.29L378.51 2003.45L377.77 2000.32L377.01 1996.18L375.89 1991.92L374.97 1988.24L374.05 1985.13L373.28 1982.79L372.61 1980.01L371.25 1977.24L371.04 1974.72L371.82 1971.89L370.73 1969.94L370.54 1965.36L370.61 1961.30L372.65 1957.58L374.74 1958.92L374.73 1962.26L374.60 1964.50L374.61 1967.32L374.28 1971.11L375.02 1974.01L375.65 1977.91L377.92 1981.77L382.28 1980.65L387.77 1978.96L392.92 1977.13L396.25 1976.58L399.08 1978.06L402.87 1979.11L406.77 1978.32L410.80 1977.73L418.32 1977.28L419.39 1970.32L419.35 1968.07L418.81 1965.23L417.11 1961.48L416.27 1957.79L416.96 1954.29L419.09 1954.57L422.21 1952.10L425.65 1950.63L428.36 1950.48L431.99 1950.20L437.59 1950.45L443.82 1948.76L445.85 1947.61L447.38 1945.53L451.44 1944.80L456.16 1943.95L459.74 1943.31L464.19 1942.51L467.90 1942.49L470.60 1942.48L474.46 1942.46L477.06 1942.45L479.85 1943.06L483.64 1942.97L488.11 1943.63L490.52 1942.75L495.02 1943.39L497.97 1943.31L500.91 1943.24L504.01 1943.17L506.17 1943.16L511.58 1942.56L514.55 1942.64L521.35 1942.43L520.91 1939.08L520.47 1935.72L520.09 1932.54L519.09 1929.79L517.71 1927.65L516.32 1925.51L513.41 1923.73L508.49 1920.70L505.67 1917.75L503.41 1914.80L502.27 1912.71L500.77 1908.26L500.61 1904.75L499.83 1902.36L499.48 1899.56L499.57 1895.92L499.65 1892.54L500.04 1887.94L498.28 1884.89L493.40 1889.81L491.13 1888.92L488.02 1888.76L485.46 1889.65L482.51 1889.46L477.47 1890.54L477.37 1888.16L477.11 1885.35L476.28 1882.79L474.41 1880.92Z" data-ward="13" /><path id="ward-14" class="ward" d="M349.53 1338.95L350.10 1341.48L350.81 1344.64L351.34 1347.03L352.32 1351.37L352.80 1353.52L353.63 1357.23L354.41 1360.68L355.34 1364.84L355.83 1367.00L356.32 1369.17L357.06 1372.47L357.76 1375.60L358.39 1378.41L358.46 1381.26L358.57 1383.85L358.67 1386.36L358.82 1388.60L359.03 1391.87L359.09 1395.70L359.65 1399.56L360.53 1403.20L361.99 1406.41L362.82 1408.73L363.53 1410.73L364.19 1413.89L364.73 1416.46L365.93 1421.89L365.89 1424.66L365.86 1427.44L365.64 1431.87L365.48 1435.01L366.09 1440.45L367.41 1445.15L369.40 1450.47L370.60 1454.70L371.61 1458.29L375.80 1457.44L377.96 1457.01L381.87 1455.47L386.77 1454.31L390.78 1453.52L396.16 1452.46L401.15 1451.06L410.09 1450.18L417.41 1449.01L415.23 1444.40L413.19 1440.10L412.15 1437.91L411.18 1435.33L410.22 1432.75L407.84 1426.39L404.69 1417.94L403.61 1412.90L401.57 1407.74L400.39 1401.11L399.49 1396.01L398.76 1391.93L396.50 1386.55L397.46 1381.99L401.03 1388.24L401.03 1388.24L401.73 1388.32L403.82 1388.40L404.27 1388.45L410.44 1389.55L414.87 1389.26L418.61 1388.94L420.87 1388.75L424.17 1388.47L428.38 1388.44L430.89 1387.59L435.74 1387.11L439.69 1385.38L440.02 1382.56L439.61 1380.31L439.10 1377.50L438.09 1371.99L437.53 1368.92L437.06 1366.36L436.41 1362.80L435.66 1358.71L435.29 1356.65L434.61 1353.02L434.17 1350.53L433.53 1347.52L432.82 1344.21L432.08 1340.71L431.58 1337.55L431.10 1334.49L430.64 1331.56L430.25 1329.05L429.25 1324.60L428.54 1321.40L428.09 1319.36L427.45 1316.03L426.69 1312.39L426.24 1310.06L425.63 1306.94L425.10 1304.36L424.58 1301.83L423.97 1298.83L423.41 1296.61L423.00 1294.39L422.59 1292.07L422.03 1289.31L421.30 1285.97L420.48 1282.76L419.20 1278.49L415.68 1270.35L413.59 1265.54L410.96 1259.46L408.81 1255.22L407.90 1252.97L407.04 1250.66L405.43 1247.31L403.66 1243.70L401.95 1239.63L400.81 1237.19L399.65 1234.57L397.92 1230.63L396.35 1227.51L395.18 1224.51L392.89 1219.73L391.66 1216.56L389.66 1212.20L386.29 1213.24L384.24 1215.09L382.58 1217.48L379.11 1217.82L376.20 1218.50L372.79 1218.41L370.14 1219.01L367.24 1219.46L359.20 1221.45L358.42 1218.63L356.38 1214.44L356.15 1201.86L353.94 1202.20L349.51 1202.48L346.73 1203.43L344.59 1204.96L341.15 1205.10L338.72 1205.00L336.61 1204.91L334.47 1205.10L332.30 1205.29L331.53 1202.60L330.86 1199.97L330.70 1197.44L330.81 1194.82L332.60 1189.65L333.70 1185.26L334.30 1181.80L334.32 1176.32L334.01 1172.96L333.62 1169.35L332.99 1164.28L331.89 1155.41L331.45 1151.66L330.46 1144.21L329.66 1137.94L329.07 1134.22L328.50 1130.56L328.08 1128.22L326.88 1123.04L325.10 1119.89L322.38 1115.77L320.97 1111.98L319.52 1108.19L319.95 1105.48L322.19 1105.76L324.24 1105.33L327.75 1104.14L330.55 1102.79L332.96 1100.33L335.31 1099.96L337.63 1099.30L340.21 1098.59L343.07 1099.73L348.36 1098.93L351.41 1097.68L355.23 1096.48L358.79 1096.05L360.00 1098.11L362.30 1098.50L365.61 1098.93L367.88 1099.38L367.73 1096.96L366.84 1091.95L365.71 1086.84L363.20 1071.53L361.85 1063.90L361.03 1060.28L360.68 1058.75L360.33 1057.21L363.84 1056.59L368.04 1058.53L370.51 1059.37L373.14 1060.27L377.75 1059.31L381.44 1058.54L386.96 1057.12L390.12 1057.73L389.74 1062.41L389.57 1064.52L389.39 1066.75L391.95 1066.10L394.52 1065.44L398.73 1065.62L399.18 1067.69L400.60 1068.10L400.79 1070.79L400.96 1073.07L401.15 1075.67L400.10 1078.14L400.80 1081.49L399.74 1083.28L400.30 1087.42L400.60 1089.58L400.92 1091.94L403.84 1095.10L405.47 1099.25L407.85 1103.73L409.77 1102.83L413.97 1103.60L416.38 1104.04L419.55 1103.20L419.42 1105.56L422.66 1107.22L426.03 1107.35L428.99 1107.71L431.61 1108.04L431.32 1105.58L430.14 1101.11L429.60 1099.07L428.22 1093.85L427.46 1090.99L427.18 1088.43L426.77 1084.58L426.40 1081.17L425.89 1076.47L425.79 1073.65L425.66 1069.73L425.56 1067.06L425.44 1063.41L425.29 1059.24L424.39 1053.97L423.43 1048.31L421.98 1039.77L421.49 1036.88L421.03 1034.19L420.26 1029.66L419.99 1027.13L419.48 1022.26L419.16 1019.18L418.64 1014.19L418.35 1011.44L418.29 1007.62L418.25 1005.49L418.21 1003.22L418.17 1000.91L416.88 995.08L416.03 991.26L415.46 988.66L413.60 985.16L412.48 983.03L410.14 978.61L409.36 976.25L406.90 968.81L405.62 965.57L404.51 962.53L402.11 955.65L400.86 952.15L400.09 949.86L398.37 944.62L397.43 941.76L396.57 938.53L395.62 935.21L394.89 932.66L394.27 930.50L392.91 926.52L392.18 924.15L391.27 921.19L390.29 918.00L389.03 913.90L387.86 910.07L386.03 903.50L385.44 901.11L384.30 896.51L383.11 892.68L382.26 889.93L380.58 885.43L379.56 882.71L378.16 879.45L375.92 874.40L374.70 871.65L370.89 877.31L368.55 880.66L364.97 885.79L361.99 890.64L359.14 895.26L357.76 897.50L356.68 899.36L354.43 903.23L353.19 905.35L351.72 907.88L349.62 911.49L348.66 913.93L347.56 916.73L346.54 919.32L345.24 922.62L344.44 924.66L342.40 930.81L341.44 933.68L340.54 937.55L339.77 940.84L338.80 945.00L338.09 950.89L337.79 953.45L337.73 955.67L337.66 958.41L337.65 961.11L337.65 963.38L337.63 966.94L334.69 967.25L332.59 967.33L331.43 963.22L329.78 959.95L327.47 959.99L327.39 957.12L327.97 954.32L327.24 951.44L324.99 951.04L323.65 949.35L323.20 946.52L322.27 943.57L322.03 941.18L320.47 938.42L320.01 936.06L319.11 933.40L314.92 932.76L313.05 929.21L312.92 927.02L312.68 924.33L312.85 921.97L310.53 922.22L308.21 922.48L305.38 923.11L302.56 923.74L298.97 926.30L299.38 939.05L297.92 952.46L297.21 958.99L297.41 965.64L297.81 969.15L297.81 970.13L293.66 970.13L288.93 970.61L286.52 970.90L285.91 970.45L285.55 969.43L285.34 968.13L285.02 967.64L283.79 967.92L280.13 968.49L273.81 969.64L270.87 970.00L269.57 969.60L267.90 969.72L266.72 969.51L259.50 970.25L259.47 970.00L259.28 968.63L258.97 966.54L258.21 961.50L257.65 953.93L257.49 951.83L257.15 947.48L256.96 944.43L256.69 940.10L255.82 935.83L255.19 932.17L254.67 928.94L254.65 921.72L258.15 916.70L259.83 914.29L261.38 912.08L260.01 909.02L258.53 905.72L257.63 903.71L252.51 892.29L252.34 889.79L251.74 881.20L251.35 875.58L250.93 869.53L248.99 853.89L246.17 852.77L240.78 850.64L238.71 849.63L230.64 849.49L227.40 849.36L205.19 847.72L190.09 847.01L189.81 817.87L189.79 815.39L185.75 815.95L182.05 816.48L181.55 813.68L180.72 807.15L180.43 804.95L179.85 800.52L179.46 797.56L179.07 794.59L178.15 791.78L175.29 790.67L172.73 789.71L170.17 788.75L149.54 788.93L143.33 789.19L137.13 789.46L132.59 789.60L125.71 789.81L117.73 790.06L114.09 790.17L104.63 790.46L91.38 805.28L88.17 810.11L81.83 810.95L79.94 812.15L77.57 813.41L72.55 817.42L70.76 819.42L69.06 821.30L67.48 823.13L65.65 825.88L63.77 828.62L61.79 831.35L60.01 834.22L58.73 836.03L57.41 838.13L56.05 840.44L54.02 843.45L52.28 845.89L50.97 847.98L49.84 849.80L46.46 854.50L44.71 857.02L43.54 858.90L42.41 860.79L41.27 863.72L40.91 866.86L40.87 869.13L40.91 872.22L41.49 875.04L39.97 876.57L37.80 876.79L38.14 878.91L38.60 881.74L37.87 889.03L37.59 893.10L37.44 897.64L37.26 899.93L36.86 902.71L36.63 904.79L36.25 907.60L35.96 910.69L35.96 913.30L35.94 916.11L36.09 919.22L36.38 921.38L36.84 923.48L37.86 927.63L39.01 931.25L40.44 935.65L41.83 938.92L43.68 945.08L44.69 947.90L46.37 952.76L48.78 960.23L50.13 964.44L50.89 970.12L52.42 971.99L53.06 974.11L54.92 977.11L56.65 978.79L59.29 981.23L64.00 986.33L65.80 988.86L67.00 991.38L68.67 995.01L70.00 997.97L71.08 1000.79L71.76 1002.97L72.81 1005.68L73.53 1007.95L74.40 1010.39L75.08 1012.46L76.13 1015.26L76.87 1017.46L78.33 1020.85L79.66 1023.60L81.78 1029.07L84.18 1033.89L95.89 1050.97L109.48 1044.52L123.87 1036.18L132.11 1032.26L141.16 1026.44L144.22 1025.16L148.90 1041.26L154.26 1054.09L155.68 1061.34L156.73 1070.74L158.69 1078.07L159.85 1086.39L161.83 1092.82L163.11 1097.31L165.21 1099.90L168.01 1107.77L170.73 1113.35L170.71 1117.98L171.95 1121.84L172.73 1125.64L174.18 1128.37L176.18 1130.65L177.61 1133.07L178.92 1136.41L179.90 1139.05L181.16 1142.87L182.29 1145.42L184.53 1147.41L186.63 1150.69L187.76 1153.76L188.70 1156.82L189.58 1159.77L190.70 1163.31L191.62 1166.74L192.74 1170.58L195.45 1177.24L198.40 1184.55L201.11 1195.78L201.37 1205.60L202.42 1208.18L202.60 1211.33L201.89 1213.81L205.36 1214.07L211.20 1214.53L215.63 1214.73L219.96 1214.76L223.05 1214.77L229.93 1210.49L234.41 1211.00L240.92 1210.02L247.43 1209.04L253.32 1208.38L257.29 1207.93L263.41 1208.62L274.61 1208.05L282.27 1207.96L285.99 1208.41L289.08 1209.98L289.70 1213.47L290.75 1218.72L291.23 1221.35L291.80 1224.49L292.17 1228.37L292.38 1230.54L292.61 1234.40L293.19 1244.05L294.52 1253.65L294.60 1259.98L296.58 1270.49L297.89 1279.63L300.89 1287.10L299.50 1297.59L300.83 1304.03L302.21 1316.15L302.19 1322.51L302.29 1326.48L303.16 1334.21L303.15 1336.37L303.70 1338.94L306.39 1340.11L308.58 1339.55L311.47 1338.84L315.17 1337.72L317.22 1337.24L318.57 1335.58L319.90 1333.83L323.05 1332.86L325.68 1331.91L328.01 1330.85L331.06 1331.25L334.44 1330.67L336.83 1331.50L337.11 1333.95L337.00 1336.50L337.54 1338.58L338.31 1340.60L340.92 1340.39L343.10 1340.11L345.30 1339.70L349.53 1338.95Z" data-ward="14" /><path id="ward-6" class="ward" d="M535.56 1717.62L533.03 1715.49L532.55 1713.46L531.62 1711.18L531.25 1708.63L530.95 1705.64L529.40 1702.95L526.89 1700.10L524.15 1699.74L522.29 1698.27L521.92 1695.92L521.44 1693.21L521.66 1690.54L521.63 1686.70L522.63 1684.86L524.86 1684.63L527.80 1684.63L530.45 1684.50L532.56 1683.45L533.03 1680.98L533.16 1678.60L534.77 1677.13L536.35 1675.48L535.69 1672.63L535.73 1670.03L535.69 1667.21L535.29 1664.33L534.58 1661.53L534.13 1658.78L533.76 1655.92L533.73 1653.34L530.63 1651.86L529.70 1649.68L528.69 1647.22L528.06 1644.78L528.00 1638.20L527.64 1635.40L527.63 1632.62L529.14 1631.20L531.20 1630.32L531.09 1628.20L530.96 1625.78L532.22 1624.04L531.89 1621.20L532.04 1616.85L530.69 1613.63L531.39 1610.78L529.43 1608.66L527.45 1607.55L526.27 1601.22L525.79 1599.18L525.66 1596.43L524.83 1594.48L524.29 1591.19L524.08 1588.86L524.11 1582.18L524.74 1577.95L528.13 1577.34L531.00 1577.22L534.68 1575.77L537.82 1574.61L540.95 1573.23L543.61 1572.50L545.90 1571.89L548.24 1571.42L550.60 1570.94L554.26 1569.88L556.85 1567.99L559.37 1565.59L563.65 1563.76L568.02 1563.14L570.07 1562.85L572.69 1562.35L577.09 1561.39L575.90 1549.72L574.88 1537.68L573.75 1534.00L572.99 1531.55L569.53 1532.14L567.04 1532.71L564.70 1533.25L561.45 1534.48L559.64 1535.56L557.89 1537.59L558.11 1540.10L559.12 1543.45L559.34 1546.20L557.44 1547.80L554.57 1548.66L552.42 1548.67L549.51 1548.67L547.26 1547.27L545.58 1545.58L543.52 1546.34L540.73 1547.20L538.27 1548.23L537.17 1546.29L536.99 1544.09L537.52 1541.84L537.77 1539.11L535.84 1537.45L534.32 1534.97L532.71 1533.27L531.79 1531.32L529.49 1531.69L526.97 1532.12L524.45 1532.01L522.25 1531.37L520.32 1528.53L519.06 1525.69L518.50 1522.64L516.49 1520.94L515.06 1523.41L514.26 1525.81L511.56 1525.98L509.31 1525.80L507.69 1527.34L507.38 1530.44L507.86 1532.54L508.06 1534.75L506.03 1536.20L503.95 1536.21L501.64 1535.82L498.95 1536.31L496.46 1535.88L491.58 1535.00L483.05 1533.79L485.15 1541.84L487.87 1552.00L489.41 1555.38L492.01 1555.99L491.95 1559.81L494.15 1561.94L495.10 1564.51L494.43 1566.52L493.78 1570.49L495.01 1573.79L494.38 1578.56L494.48 1581.07L490.68 1580.64L485.90 1580.28L481.47 1582.17L476.11 1585.54L472.08 1587.52L465.55 1588.59L462.85 1588.57L458.37 1588.86L454.18 1588.83L454.15 1581.45L453.17 1574.95L450.13 1564.51L446.07 1557.63L444.69 1552.93L443.32 1547.19L442.64 1535.31L440.09 1524.77L439.28 1518.33L437.22 1510.09L433.27 1489.44L427.87 1476.07L420.31 1448.55L417.41 1449.01L410.09 1450.18L401.15 1451.06L396.16 1452.46L390.78 1453.52L386.77 1454.31L381.87 1455.47L377.96 1457.01L375.80 1457.44L371.61 1458.29L368.05 1458.67L365.02 1459.14L362.45 1459.54L358.32 1460.19L354.34 1460.81L350.40 1461.96L348.33 1462.56L344.69 1463.63L342.22 1464.03L339.71 1464.44L336.76 1464.92L334.14 1465.35L331.19 1465.83L328.38 1466.28L319.64 1466.75L315.29 1466.98L312.71 1467.12L309.42 1465.23L309.31 1462.87L309.05 1457.03L308.77 1451.12L307.20 1446.32L290.89 1447.67L286.15 1448.09L281.39 1448.81L266.99 1450.99L259.52 1451.90L250.32 1453.03L240.32 1454.25L236.62 1454.88L230.19 1455.98L223.80 1457.07L214.76 1458.62L208.12 1459.75L196.56 1461.51L190.16 1462.48L186.65 1463.02L180.29 1463.98L169.80 1465.58L160.37 1467.16L153.11 1468.38L150.66 1468.79L148.61 1469.14L146.54 1469.48L143.36 1470.02L141.26 1470.43L138.64 1470.95L136.03 1471.46L133.90 1471.89L131.22 1472.42L128.56 1472.94L125.33 1473.58L123.07 1468.81L122.04 1466.65L121.06 1464.57L120.06 1462.45L118.10 1458.31L117.11 1456.24L115.09 1456.85L110.97 1458.11L111.15 1460.32L112.08 1471.64L113.37 1482.29L124.22 1540.75L125.09 1564.67L132.28 1586.71L140.12 1641.34L141.75 1642.35L141.69 1644.32L143.31 1647.39L145.85 1647.23L150.03 1646.52L152.79 1646.51L155.22 1646.50L158.43 1646.49L160.92 1646.52L164.50 1646.56L168.45 1646.58L173.98 1646.68L176.05 1647.29L190.78 1651.61L203.73 1655.42L220.13 1660.24L225.55 1661.62L239.38 1666.07L258.24 1671.86L280.38 1678.33L290.16 1681.19L299.18 1683.82L309.06 1686.30L331.70 1691.98L337.63 1693.46L342.58 1692.84L350.04 1695.97L350.30 1696.06L351.30 1696.35L354.63 1696.98L357.63 1700.22L358.74 1704.10L360.53 1710.33L361.62 1714.11L362.92 1720.04L363.54 1724.37L364.33 1729.85L365.66 1739.13L366.30 1743.58L367.01 1748.65L368.19 1757.03L368.75 1761.49L369.24 1765.51L369.88 1767.91L370.63 1770.77L371.73 1774.91L372.44 1778.11L369.96 1784.52L368.61 1788.03L367.39 1791.84L366.81 1795.08L366.34 1798.71L365.91 1802.00L370.41 1801.77L375.60 1799.33L380.21 1797.16L383.34 1795.69L388.06 1793.47L393.67 1791.62L396.48 1790.70L404.11 1788.12L407.97 1787.00L418.38 1783.88L440.39 1780.46L448.06 1779.27L451.55 1778.77L455.90 1778.15L459.07 1777.69L461.69 1777.34L464.26 1776.73L466.32 1776.14L470.90 1774.85L474.52 1774.21L477.89 1773.61L484.68 1773.56L487.85 1773.22L491.32 1772.85L496.52 1772.40L500.11 1772.08L504.19 1768.87L506.67 1766.63L507.32 1763.75L507.16 1760.73L507.98 1757.06L507.70 1752.62L511.93 1754.91L515.70 1757.32L518.82 1759.14L522.04 1761.01L524.04 1761.67L534.69 1761.29L538.58 1760.57L541.27 1759.15L544.03 1759.02L549.83 1758.76L554.75 1758.58L561.50 1758.32L564.44 1758.26L565.14 1751.11L563.25 1749.08L563.38 1744.77L563.69 1740.85L563.16 1738.04L559.42 1737.61L557.73 1735.59L555.89 1731.98L555.34 1729.32L554.06 1727.60L554.01 1725.30L554.25 1722.35L554.60 1720.05L554.58 1717.54L552.13 1717.47L550.26 1715.79L547.82 1716.42L545.07 1716.82L542.30 1717.22L539.73 1716.90L537.61 1717.02L535.56 1717.62Z" data-ward="6" /><path id="ward-8" class="ward" d="M587.59 2276.05L587.87 2278.40L587.97 2280.70L588.19 2283.32L588.30 2285.91L588.62 2288.63L588.82 2291.35L588.97 2294.02L589.09 2296.66L589.21 2299.31L589.40 2301.87L589.56 2304.39L589.73 2306.86L589.85 2309.27L589.99 2311.75L590.04 2314.28L591.57 2315.94L593.92 2316.27L596.47 2316.33L600.78 2316.21L602.93 2316.14L605.77 2316.47L608.21 2315.67L610.93 2314.78L614.31 2314.30L623.19 2315.98L629.77 2316.27L633.88 2308.15L639.22 2301.10L639.17 2295.87L639.13 2292.49L639.77 2288.23L640.20 2285.37L643.44 2283.06L645.26 2281.76L647.21 2280.37L650.00 2271.08L650.32 2268.93L650.63 2266.79L655.12 2266.28L655.29 2263.75L651.41 2262.78L650.83 2259.88L650.24 2256.97L650.59 2252.58L652.80 2248.49L654.25 2239.44L657.38 2236.89L660.10 2228.14L661.10 2225.14L658.68 2218.36L655.38 2217.69L656.95 2213.27L657.00 2207.85L657.35 2203.12L657.74 2197.73L659.78 2192.39L661.44 2186.25L662.01 2184.21L663.60 2178.32L662.73 2174.94L662.15 2172.70L661.74 2170.60L661.16 2167.62L660.37 2163.45L660.05 2160.34L658.83 2157.93L657.64 2155.72L655.13 2151.24L652.57 2139.88L651.91 2136.94L652.01 2134.07L652.87 2129.04L652.24 2125.40L651.34 2120.17L646.70 2115.40L643.70 2114.50L641.23 2111.75L641.81 2109.53L643.91 2108.55L648.56 2108.33L656.72 2103.02L653.17 2097.93L657.85 2094.34L661.11 2096.18L662.21 2090.49L662.66 2086.85L666.35 2087.12L670.14 2087.39L669.65 2094.44L673.28 2098.09L676.67 2098.61L679.35 2099.02L684.46 2100.07L686.65 2100.88L689.12 2101.77L691.21 2102.49L694.96 2103.77L697.40 2104.45L704.41 2106.37L715.68 2108.41L719.93 2109.18L722.60 2111.27L724.69 2112.90L724.85 2116.01L725.04 2119.46L725.71 2122.81L726.13 2124.91L727.89 2130.78L729.54 2134.68L730.50 2141.40L734.07 2140.89L738.03 2138.56L743.89 2136.53L746.27 2135.56L749.20 2133.89L752.61 2131.94L754.90 2132.41L758.88 2133.24L762.01 2133.44L764.74 2133.62L767.58 2133.80L769.95 2133.95L773.58 2134.19L776.31 2134.36L778.59 2134.67L782.58 2137.46L784.99 2138.80L791.52 2143.41L792.39 2145.69L797.98 2149.95L803.04 2155.98L806.35 2157.84L808.82 2156.75L815.31 2152.75L817.60 2149.60L818.64 2146.89L819.90 2142.26L821.45 2136.57L822.27 2132.17L822.94 2128.58L823.61 2124.97L824.28 2121.38L824.62 2117.47L824.99 2113.28L825.17 2111.19L825.35 2109.08L825.72 2104.90L826.08 2100.77L826.26 2098.64L826.98 2090.41L827.16 2087.21L827.33 2084.30L827.59 2079.69L827.73 2077.32L827.85 2075.20L827.99 2072.78L828.11 2070.64L828.82 2067.03L829.25 2064.87L829.75 2062.36L830.33 2059.46L830.91 2056.54L831.67 2052.72L832.30 2049.54L832.86 2046.69L833.30 2044.50L833.89 2041.50L832.71 2037.56L831.14 2032.32L833.06 2028.38L834.34 2025.77L834.74 2023.59L835.26 2020.79L835.97 2016.99L836.32 2014.15L836.58 2012.06L836.83 2009.80L837.15 2007.38L837.48 2004.89L837.86 2002.01L838.43 1999.46L839.19 1996.04L839.58 1993.63L838.34 1982.32L837.94 1978.26L837.47 1973.86L837.03 1969.81L833.11 1968.00L830.22 1967.92L828.63 1965.93L827.02 1958.21L827.09 1953.93L827.15 1950.66L827.21 1947.21L827.32 1941.43L823.85 1942.72L819.50 1943.31L816.93 1943.24L813.34 1943.15L809.76 1943.06L803.83 1942.72L797.06 1942.63L792.25 1942.93L789.93 1943.11L787.62 1943.29L782.00 1942.67L778.80 1942.84L776.16 1942.84L773.21 1942.89L769.34 1943.26L764.44 1943.50L760.44 1943.54L757.73 1943.27L756.32 1944.97L756.08 1947.33L757.70 1949.54L756.41 1952.34L756.56 1954.56L756.19 1956.63L756.64 1959.12L756.03 1961.15L755.73 1964.38L755.43 1967.68L754.80 1971.21L754.18 1974.44L755.10 1978.65L758.38 1980.34L758.73 1983.07L759.43 1986.80L759.97 1989.69L760.75 1992.50L761.05 1994.90L758.10 1996.82L754.33 1998.37L751.70 1998.83L749.30 1998.81L747.49 1999.83L745.48 2001.46L741.61 2003.12L737.10 2004.60L734.99 2004.39L732.08 2003.99L730.00 2003.84L727.91 2003.69L723.56 2002.60L719.95 2001.22L717.92 2000.55L714.59 1999.97L708.38 1999.88L705.07 2000.17L702.42 2001.77L701.36 1999.39L701.06 1995.43L701.15 1992.99L700.95 1988.97L700.71 1986.83L700.13 1980.92L699.85 1978.25L699.86 1974.04L699.77 1971.44L699.99 1969.20L700.22 1966.93L700.32 1964.30L700.54 1961.32L700.77 1959.04L701.00 1956.91L701.01 1954.48L701.27 1951.39L702.16 1949.01L701.89 1944.82L701.66 1939.30L701.52 1936.82L701.53 1930.01L702.88 1919.81L702.66 1908.23L701.91 1900.92L701.56 1898.82L700.44 1894.26L697.57 1893.95L693.41 1894.16L689.49 1894.16L685.74 1893.93L681.41 1893.82L678.63 1898.43L678.33 1902.70L679.08 1906.22L679.40 1909.87L678.29 1912.68L678.10 1915.89L678.55 1919.14L679.16 1922.89L679.32 1926.62L679.78 1929.93L679.37 1933.08L678.32 1937.17L671.80 1939.95L668.23 1939.98L664.61 1940.00L660.90 1940.50L656.81 1941.04L649.21 1940.91L646.65 1941.56L642.74 1940.60L640.50 1939.83L637.40 1938.45L634.42 1941.00L628.98 1943.71L626.19 1945.10L625.64 1947.81L625.75 1950.06L624.60 1953.14L622.20 1953.26L619.91 1953.16L617.22 1953.20L614.78 1953.78L615.03 1956.07L615.03 1959.08L612.71 1959.06L610.23 1959.83L607.32 1959.58L604.13 1959.30L604.18 1961.81L604.22 1963.94L604.12 1967.27L604.02 1969.63L602.24 1971.54L599.85 1971.39L597.65 1970.87L595.22 1971.60L592.04 1971.53L588.88 1971.49L586.62 1971.47L583.53 1970.88L583.29 1966.46L582.43 1963.15L582.30 1960.06L581.84 1955.17L581.63 1950.09L581.19 1946.19L577.89 1946.24L574.58 1946.29L567.89 1947.63L563.84 1948.32L560.31 1948.46L556.28 1947.61L553.16 1946.69L550.09 1945.95L547.22 1945.21L544.32 1943.73L543.95 1941.14L544.37 1938.57L544.99 1936.20L544.90 1934.11L544.73 1930.64L544.32 1927.72L544.50 1924.45L539.13 1923.67L533.82 1923.44L527.56 1924.17L521.30 1924.92L516.32 1925.51L517.71 1927.65L519.09 1929.79L520.09 1932.54L520.47 1935.72L520.91 1939.08L521.35 1942.43L514.55 1942.64L511.58 1942.56L506.17 1943.16L504.01 1943.17L500.91 1943.24L497.97 1943.31L495.02 1943.39L490.52 1942.75L488.11 1943.63L483.64 1942.97L479.85 1943.06L477.06 1942.45L474.46 1942.46L470.60 1942.48L467.90 1942.49L464.19 1942.51L459.74 1943.31L456.16 1943.95L451.44 1944.80L447.38 1945.53L445.85 1947.61L443.82 1948.76L437.59 1950.45L431.99 1950.20L428.36 1950.48L425.65 1950.63L422.21 1952.10L419.09 1954.57L416.96 1954.29L416.27 1957.79L417.11 1961.48L418.81 1965.23L419.35 1968.07L419.39 1970.32L418.32 1977.28L410.80 1977.73L406.77 1978.32L402.87 1979.11L399.08 1978.06L396.25 1976.58L392.92 1977.13L387.77 1978.96L382.28 1980.65L377.92 1981.77L375.65 1977.91L375.02 1974.01L374.28 1971.11L374.61 1967.32L374.60 1964.50L374.73 1962.26L374.74 1958.92L372.65 1957.58L370.61 1961.30L370.54 1965.36L370.73 1969.94L371.82 1971.89L371.04 1974.72L371.25 1977.24L372.61 1980.01L373.28 1982.79L374.05 1985.13L374.97 1988.24L375.89 1991.92L377.01 1996.18L377.77 2000.32L378.51 2003.45L379.27 2006.29L380.26 2008.42L381.58 2011.52L383.79 2014.80L384.60 2016.87L386.93 2020.57L388.20 2025.16L389.89 2028.30L392.02 2033.05L386.83 2033.57L384.89 2034.51L380.51 2035.27L378.85 2035.35L378.62 2035.26L378.29 2035.11L376.55 2034.16L370.75 2030.78L367.23 2031.08L363.05 2031.47L360.22 2030.80L352.19 2028.91L347.03 2028.47L333.75 2027.33L327.67 2027.82L326.43 2030.33L319.66 2030.14L306.17 2029.77L292.76 2029.40L285.90 2029.22L276.11 2028.95L265.35 2028.65L255.64 2028.39L251.11 2031.90L249.22 2033.37L245.50 2037.78L243.68 2037.67L239.40 2041.63L234.66 2046.01L232.15 2048.33L230.21 2050.12L234.77 2052.60L234.96 2058.08L234.77 2061.87L236.93 2065.59L244.33 2066.82L256.85 2071.77L265.39 2075.33L283.57 2083.17L290.37 2086.09L299.01 2089.86L306.45 2093.09L310.10 2094.71L312.77 2094.93L321.26 2095.61L323.68 2095.81L335.04 2095.52L338.06 2095.44L353.45 2095.90L358.83 2097.62L365.66 2099.81L381.88 2106.87L388.34 2109.68L387.46 2112.05L387.60 2118.91L387.72 2126.23L386.85 2132.94L390.53 2134.52L391.84 2136.40L391.88 2139.91L391.33 2148.05L391.14 2150.87L391.38 2154.16L392.34 2168.57L395.63 2168.58L406.92 2167.18L424.08 2168.65L447.74 2162.26L450.11 2162.01L459.33 2161.69L469.93 2161.29L477.62 2160.99L485.88 2162.56L489.69 2163.97L493.99 2164.76L499.07 2166.69L513.76 2172.26L513.72 2174.82L513.67 2178.04L513.55 2180.55L513.48 2184.66L513.29 2187.53L513.34 2191.45L513.10 2193.91L512.99 2196.28L512.30 2198.57L511.97 2201.94L511.55 2205.95L511.22 2209.73L511.31 2212.81L511.48 2215.58L511.55 2218.26L511.62 2221.05L511.93 2223.59L512.33 2225.78L512.68 2228.77L513.10 2231.47L513.22 2234.03L513.43 2236.51L513.57 2238.93L514.09 2242.63L514.19 2245.71L514.09 2248.03L514.21 2250.66L513.93 2254.55L514.00 2258.71L514.05 2261.72L513.83 2264.06L513.86 2267.07L513.90 2269.18L514.02 2271.35L517.32 2270.62L519.62 2271.03L521.84 2270.99L523.91 2271.36L549.89 2275.85L551.92 2276.36L554.51 2276.41L556.61 2276.46L559.58 2276.90L587.59 2276.05Z" data-ward="8" /></svg>