<svg viewBox="0 0 1000.00 1834.63" xmlns="http://www.w3.org/2000/svg"><style>.ward { fill: #e2e8f0; stroke: #fff; stroke-width: 0.5px; } .ward:hover { fill: #cbd5e1; }</style><path id="ward-17" class="ward" d="M438.97 998.47L432.64 959.09L432.19 952.43L431.36 940.09L424.95 936.18L413.95 938.41L406.03 939.08L401.42 939.89L394.82 940.95L387.50 942.20L385.64 950.42L389.97 959.05L393.09 966.82L392.87 975.00L394.80 984.05L391.21 988.15L386.01 992.96L385.12 998.89L384.78 1003.94L379.85 1008.01L372.50 1008.21L367.62 1008.43L362.86 1009.21L355.38 1009.21L352.21 1002.50L352.01 994.20L349.91 985.51L342.51 986.99L335.26 989.87L330.54 990.73L325.39 991.23L320.90 992.72L314.33 992.11L308.62 998.03L304.08 1005.28L296.15 1007.52L292.10 1009.86L299.58 1040.15L300.81 1044.98L307.22 1070.24L312.27 1088.76L319.19 1116.51L330.68 1160.39L333.02 1170.35L343.24 1213.90L349.30 1240.38L354.31 1239.89L361.63 1238.31L366.67 1237.22L371.75 1236.15L377.04 1234.92L384.16 1235.25L388.21 1238.24L388.97 1244.14L391.67 1249.04L396.69 1248.19L402.70 1246.49L407.31 1245.64L414.60 1244.58L421.03 1244.39L427.92 1240.50L437.66 1238.86L443.40 1238.16L454.06 1236.85L471.00 1235.20L468.37 1214.89L467.48 1207.69L464.42 1186.09L461.41 1166.25L459.39 1151.75L458.60 1144.48L457.89 1139.54L455.19 1114.80L455.33 1100.31L438.97 998.47Z" data-ward="17" /><path id="ward-19" class="ward" d="M291.33 700.85L291.46 694.58L290.77 680.61L276.93 684.91L254.60 691.82L240.08 697.22L235.64 698.79L225.43 703.05L214.82 707.49L199.34 709.91L187.55 716.28L175.67 717.76L162.64 717.59L133.07 717.19L127.10 717.37L118.64 717.47L80.79 725.37L95.70 871.89L97.69 891.19L96.28 903.74L104.49 904.39L112.10 905.27L137.43 908.21L143.00 907.32L148.35 906.47L157.61 905.23L168.92 902.80L175.13 901.74L181.24 900.70L186.21 899.98L201.66 898.26L206.86 897.48L214.46 895.33L222.74 891.56L231.27 887.66L240.62 884.82L246.42 884.34L256.44 879.99L254.24 872.97L252.02 862.54L248.89 848.17L245.47 832.43L234.61 798.61L240.01 797.19L246.20 795.04L252.07 796.29L260.20 791.73L264.61 790.09L269.06 795.82L272.16 799.76L282.67 801.90L290.20 798.35L299.40 796.76L304.81 794.98L310.01 793.89L314.62 792.93L318.97 790.90L325.93 787.64L325.86 781.92L325.30 777.16L332.52 774.93L339.45 775.10L344.42 775.41L350.06 772.89L354.51 771.69L359.10 770.84L364.51 770.70L369.10 771.01L374.06 770.20L381.23 768.52L385.78 767.62L390.54 766.78L395.06 765.78L401.30 764.12L400.17 751.97L398.71 743.65L398.04 726.89L397.05 718.62L396.88 716.01L396.32 709.36L395.72 702.39L395.08 694.78L352.00 700.29L340.60 701.74L319.06 704.49L297.48 707.25L291.33 700.85Z" data-ward="19" /><path id="ward-12" class="ward" d="M556.14 1624.58L547.87 1624.37L541.76 1612.25L522.04 1613.68L515.81 1614.13L517.71 1627.56L519.12 1636.84L520.28 1646.12L524.62 1680.84L528.22 1711.62L530.40 1729.69L530.88 1751.17L531.42 1765.88L532.21 1786.90L532.95 1801.44L534.02 1812.61L536.86 1816.43L542.38 1814.96L547.16 1813.69L552.45 1818.48L554.11 1809.74L550.07 1806.29L550.59 1789.85L551.10 1773.40L557.40 1773.25L561.75 1769.57L568.56 1766.46L573.89 1764.02L579.25 1763.59L584.62 1763.16L592.45 1762.05L599.21 1761.94L610.89 1759.75L615.65 1758.85L621.21 1757.80L629.75 1756.20L634.48 1756.40L643.07 1766.48L653.59 1778.81L669.43 1773.35L681.32 1769.26L694.51 1775.11L700.63 1777.82L707.05 1780.66L722.42 1807.99L729.96 1807.93L739.10 1807.37L741.67 1809.82L751.47 1807.44L757.75 1810.15L764.18 1810.98L764.77 1813.18L766.51 1810.86L768.25 1808.54L781.44 1809.27L805.49 1810.60L822.72 1814.00L831.00 1812.99L857.26 1817.76L879.40 1821.78L903.26 1822.25L909.92 1822.38L916.37 1824.47L922.57 1824.14L924.24 1826.94L924.87 1823.72L925.49 1820.50L926.08 1815.04L926.76 1808.71L928.95 1784.00L917.40 1757.94L899.99 1718.66L880.94 1676.76L879.05 1672.10L866.43 1677.69L861.28 1679.59L858.29 1684.98L859.52 1689.57L858.96 1701.04L860.45 1709.43L861.64 1715.70L862.68 1720.38L863.46 1725.58L859.13 1727.30L852.49 1730.20L846.53 1742.52L843.94 1753.04L834.27 1765.23L829.84 1770.16L824.31 1771.48L817.68 1772.99L812.13 1774.10L805.68 1776.37L801.16 1780.21L794.31 1782.72L789.54 1782.62L779.54 1776.13L775.26 1772.27L768.39 1770.46L760.25 1768.22L758.56 1763.27L760.07 1758.69L764.66 1757.88L765.59 1752.91L761.91 1744.43L757.38 1741.85L755.92 1736.65L754.92 1731.53L754.84 1725.56L752.25 1720.02L748.40 1712.40L747.86 1706.33L747.26 1700.48L747.10 1694.52L747.28 1689.47L745.30 1683.54L744.34 1677.83L743.29 1669.96L741.74 1664.39L741.31 1659.70L736.27 1654.52L734.35 1649.38L732.44 1644.77L723.56 1641.92L718.61 1643.01L714.95 1646.84L710.16 1649.53L701.13 1649.50L698.00 1644.32L693.55 1638.89L685.13 1639.25L674.20 1636.65L667.30 1636.52L661.96 1636.64L656.30 1635.62L651.34 1635.94L616.85 1638.61L608.72 1638.05L604.03 1633.79L597.25 1629.85L591.28 1629.21L585.89 1628.85L581.58 1627.05L575.18 1625.79L566.72 1624.14L561.38 1624.72L556.14 1624.58Z" data-ward="12" /><path id="ward-13" class="ward" d="M446.88 1604.55L434.23 1599.48L427.13 1597.29L418.89 1594.75L401.06 1595.29L375.51 1602.67L371.02 1603.97L356.48 1609.53L334.30 1617.32L318.53 1620.05L295.62 1626.85L278.44 1630.30L295.82 1667.00L300.34 1679.65L314.70 1718.42L318.25 1728.31L317.84 1740.19L317.57 1747.80L317.41 1753.47L313.01 1770.52L309.84 1785.33L307.78 1795.00L310.28 1799.85L313.55 1813.69L328.22 1834.63L336.94 1831.91L344.91 1828.84L355.31 1824.83L365.89 1823.95L370.58 1824.18L408.49 1826.08L417.47 1828.03L425.65 1827.27L430.39 1826.84L438.35 1826.24L443.36 1825.87L453.71 1824.45L459.95 1823.22L487.88 1821.68L500.45 1820.99L510.20 1819.26L513.81 1822.16L519.99 1822.32L524.76 1822.44L530.44 1822.48L536.11 1822.52L536.86 1816.43L534.02 1812.61L532.95 1801.44L532.21 1786.90L531.42 1765.88L530.88 1751.17L530.40 1729.69L528.22 1711.62L524.62 1680.84L520.28 1646.12L519.12 1636.84L517.71 1627.56L515.81 1614.13L513.89 1600.50L503.38 1602.63L481.55 1607.05L476.00 1607.58L464.07 1608.71L446.88 1604.55Z" data-ward="13" /><path id="ward-22" class="ward" d="M364.81 454.74L363.94 448.79L363.21 443.86L362.02 435.76L363.23 426.77L359.12 413.50L357.17 407.19L355.38 401.43L353.28 394.63L339.91 362.63L331.66 374.41L326.75 379.29L318.23 388.48L308.35 397.11L295.03 408.29L285.78 413.95L276.24 419.78L259.47 428.39L246.37 434.37L236.61 440.15L229.12 443.85L223.60 447.35L218.08 450.84L213.00 454.66L205.90 461.78L193.72 474.53L187.39 484.45L179.68 496.53L174.57 489.83L168.43 484.15L166.21 470.83L161.06 466.86L158.40 462.35L157.52 453.46L155.20 445.38L154.72 439.74L160.82 436.66L167.34 435.41L172.06 434.51L179.96 432.06L179.12 426.02L176.85 414.12L171.54 411.45L171.08 406.36L170.44 401.46L169.92 395.68L169.20 390.69L167.86 384.24L161.76 384.13L156.42 385.88L149.40 386.75L144.07 383.30L133.64 382.26L131.04 387.64L123.79 387.55L118.94 387.73L100.46 390.57L33.26 401.71L42.87 459.59L40.70 554.88L40.22 570.92L75.40 694.13L124.24 670.11L128.97 667.78L142.08 664.29L153.72 662.61L159.66 661.76L164.65 661.04L175.44 659.23L171.30 648.94L168.06 640.88L161.84 625.42L159.71 617.47L156.16 604.27L154.86 599.40L153.81 571.19L155.49 559.30L156.80 550.03L164.25 529.96L171.67 520.64L178.73 511.77L180.56 519.21L181.64 526.02L192.42 528.99L204.09 526.98L209.77 525.61L214.94 524.94L221.85 524.05L230.30 521.74L234.44 519.02L240.28 515.19L244.59 512.36L253.24 508.19L259.87 506.79L270.50 504.95L276.94 503.54L284.63 501.50L292.75 499.23L302.50 500.77L310.20 499.58L320.05 498.06L329.34 495.24L333.90 491.41L336.03 486.34L343.37 480.12L350.06 479.70L362.70 480.26L364.81 454.74Z" data-ward="22" /><path id="ward-24" class="ward" d="M152.42 371.23L150.71 354.44L153.30 342.10L160.88 341.70L176.29 340.89L182.96 337.25L186.44 332.51L192.86 330.44L195.02 324.38L197.58 317.23L198.35 309.19L214.83 305.90L224.70 304.74L236.11 303.39L250.40 302.69L258.46 300.61L264.55 299.47L273.69 299.01L286.03 298.40L292.92 295.77L300.34 293.72L307.39 291.77L317.62 288.94L300.94 240.99L297.55 237.61L294.17 234.22L258.39 205.83L218.05 174.60L185.90 131.05L178.91 120.68L172.10 110.56L148.98 76.24L143.54 60.67L140.81 52.85L138.71 43.65L135.89 32.18L128.23 0.00L37.02 4.34L7.95 15.29L0.00 24.44L6.08 128.63L22.43 302.65L33.26 401.71L100.46 390.57L118.94 387.73L123.79 387.55L131.04 387.64L133.64 382.26L144.07 383.30L149.40 386.75L152.42 371.23Z" data-ward="24" /><path id="ward-21" class="ward" d="M367.21 488.34L362.70 480.26L350.06 479.70L343.37 480.12L336.03 486.34L333.90 491.41L329.34 495.24L320.05 498.06L310.20 499.58L302.50 500.77L292.75 499.23L284.63 501.50L276.94 503.54L270.50 504.95L259.87 506.79L253.24 508.19L244.59 512.36L240.28 515.19L234.44 519.02L230.30 521.74L221.85 524.05L214.94 524.94L209.77 525.61L204.09 526.98L192.42 528.99L181.64 526.02L180.56 519.21L178.73 511.77L171.67 520.64L164.25 529.96L156.80 550.03L155.49 559.30L153.81 571.19L154.86 599.40L156.16 604.27L159.71 617.47L161.84 625.42L168.06 640.88L171.30 648.94L175.44 659.23L191.08 654.06L196.60 651.66L202.37 650.36L207.30 649.25L206.15 644.18L204.44 634.98L203.08 630.29L201.65 624.25L206.30 623.41L217.02 620.03L226.94 619.34L242.90 618.24L251.26 617.72L298.22 605.95L290.23 578.66L295.69 575.60L302.43 570.10L302.97 552.08L310.66 549.01L322.74 549.06L334.26 546.91L346.90 544.83L360.50 543.72L373.07 542.68L367.21 488.34Z" data-ward="21" /><path id="ward-7" class="ward" d="M840.38 993.69L840.40 974.50L840.56 967.47L836.98 947.22L829.74 906.21L828.16 897.29L821.46 854.94L820.42 833.54L819.34 812.32L818.10 787.89L818.86 771.31L819.97 751.77L825.57 692.04L826.02 680.35L813.15 679.10L795.41 678.65L776.32 678.30L740.96 677.34L725.26 676.56L711.31 676.53L685.86 676.01L679.68 676.17L672.06 674.49L665.04 672.80L653.23 669.88L648.07 668.82L639.46 669.12L629.35 681.95L626.67 687.22L623.01 691.28L619.03 694.61L611.00 701.06L606.94 706.67L603.02 717.13L609.77 723.71L612.02 728.36L612.70 733.89L612.32 742.47L612.18 753.35L612.34 764.75L593.45 771.99L596.63 780.57L575.38 778.79L541.04 773.48L534.18 759.20L529.37 758.88L524.41 758.91L519.70 759.41L511.98 760.22L509.56 767.77L507.78 775.50L506.08 786.34L505.94 794.14L506.18 798.76L506.39 803.84L507.36 811.50L508.34 819.16L509.96 826.07L510.85 832.28L511.17 837.91L511.60 843.75L518.29 849.29L524.92 848.39L535.46 847.15L539.88 845.63L541.26 835.95L541.40 830.66L542.09 825.72L544.18 820.53L550.57 822.07L555.04 823.15L561.03 827.14L560.83 832.59L560.50 841.90L571.38 843.84L573.75 849.82L575.45 856.37L579.14 864.09L584.79 866.58L583.20 872.46L587.99 874.31L592.58 873.26L599.58 877.43L607.53 877.05L613.26 876.12L619.46 875.13L625.15 875.17L632.65 874.96L638.64 875.22L642.37 880.11L640.41 889.38L644.05 898.68L647.64 904.93L653.01 914.26L653.01 914.26L652.11 920.77L652.63 929.06L653.09 937.34L653.78 943.33L655.62 952.31L655.85 955.53L656.54 981.08L657.81 981.66L668.74 981.89L684.16 980.97L685.32 992.42L687.50 998.17L688.19 1001.05L697.23 998.12L700.45 998.41L704.88 999.33L705.00 1003.41L704.71 1009.17L705.98 1009.51L715.59 1009.51L717.03 998.06L729.40 997.89L739.64 997.94L741.54 1025.57L753.51 1023.73L769.51 1025.57L838.00 1025.45L840.38 993.69Z" data-ward="7" /><path id="ward-23" class="ward" d="M326.75 379.29L331.66 374.41L339.91 362.63L337.72 349.45L332.35 334.04L317.62 288.94L307.39 291.77L300.34 293.72L292.92 295.77L286.03 298.40L273.69 299.01L264.55 299.47L258.46 300.61L250.40 302.69L236.11 303.39L224.70 304.74L214.83 305.90L198.35 309.19L197.58 317.23L195.02 324.38L192.86 330.44L186.44 332.51L182.96 337.25L176.29 340.89L160.88 341.70L153.30 342.10L150.71 354.44L152.42 371.23L149.40 386.75L156.42 385.88L161.76 384.13L167.86 384.24L169.20 390.69L169.92 395.68L170.44 401.46L171.08 406.36L171.54 411.45L176.85 414.12L179.12 426.02L179.96 432.06L172.06 434.51L167.34 435.41L160.82 436.66L154.72 439.74L155.20 445.38L157.52 453.46L158.40 462.35L161.06 466.86L166.21 470.83L168.43 484.15L174.57 489.83L179.68 496.53L187.39 484.45L193.72 474.53L205.90 461.78L213.00 454.66L218.08 450.84L223.60 447.35L229.12 443.85L236.61 440.15L246.37 434.37L259.47 428.39L276.24 419.78L285.78 413.95L295.03 408.29L308.35 397.11L318.23 388.48L326.75 379.29Z" data-ward="23" /><path id="ward-14" class="ward" d="M474.33 1375.89L469.42 1375.71L461.71 1375.13L452.74 1377.11L447.32 1379.79L442.09 1382.38L435.24 1388.74L423.00 1395.57L417.61 1397.23L412.09 1384.22L406.67 1385.59L397.87 1386.89L392.45 1385.94L384.06 1386.04L376.41 1385.42L371.57 1386.41L374.58 1458.29L367.23 1459.08L359.28 1459.92L355.73 1462.93L353.34 1468.80L349.36 1473.24L348.06 1479.32L347.70 1486.37L340.73 1487.54L334.51 1487.40L327.63 1485.05L318.50 1488.42L313.90 1488.58L301.56 1488.23L294.06 1489.08L282.26 1490.43L275.85 1491.54L273.55 1495.90L273.35 1504.36L269.31 1508.29L266.17 1514.85L254.03 1520.26L249.44 1521.70L242.87 1523.74L235.57 1525.91L227.11 1527.66L229.62 1539.72L230.87 1545.70L233.26 1557.20L236.15 1571.09L240.16 1575.60L244.53 1580.53L249.25 1585.83L254.80 1592.09L259.64 1598.69L265.45 1606.62L271.07 1616.77L278.44 1630.30L295.62 1626.85L318.53 1620.05L334.30 1617.32L356.48 1609.53L371.02 1603.97L375.51 1602.67L401.06 1595.29L418.89 1594.75L427.13 1597.29L434.23 1599.48L446.88 1604.55L464.07 1608.71L476.00 1607.58L481.55 1607.05L503.38 1602.63L513.89 1600.50L509.85 1572.50L508.94 1566.17L496.98 1493.55L495.99 1489.00L491.76 1463.79L488.47 1444.20L485.35 1433.95L484.41 1424.57L474.33 1375.89Z" data-ward="14" /><path id="ward-20" class="ward" d="M373.07 542.68L360.50 543.72L346.90 544.83L334.26 546.91L322.74 549.06L310.66 549.01L302.97 552.08L302.43 570.10L295.69 575.60L290.23 578.66L298.22 605.95L251.26 617.72L242.90 618.24L226.94 619.34L217.02 620.03L206.30 623.41L201.65 624.25L203.08 630.29L204.44 634.98L206.15 644.18L207.30 649.25L202.37 650.36L196.60 651.66L191.08 654.06L175.44 659.23L164.65 661.04L159.66 661.76L153.72 662.61L142.08 664.29L128.97 667.78L124.24 670.11L75.40 694.13L75.35 707.89L80.79 725.37L118.64 717.47L127.10 717.37L133.07 717.19L162.64 717.59L175.67 717.76L187.55 716.28L199.34 709.91L214.82 707.49L225.43 703.05L235.64 698.79L240.08 697.22L254.60 691.82L276.93 684.91L290.77 680.61L291.46 694.58L291.33 700.85L297.48 707.25L319.06 704.49L340.60 701.74L352.00 700.29L395.08 694.78L393.85 683.57L393.07 676.44L392.30 669.32L391.39 660.98L390.39 651.67L389.80 640.44L388.93 623.72L385.31 617.18L384.31 611.11L383.36 605.32L376.77 565.89L373.07 542.68Z" data-ward="20" /><path id="ward-2" class="ward" d="M923.95 346.35L772.38 331.10L705.10 317.77L624.26 282.76L526.88 207.31L508.69 191.95L494.10 210.36L492.64 215.65L480.66 235.56L462.12 266.38L442.01 294.07L434.49 304.43L424.98 318.33L415.46 332.24L406.07 345.97L415.16 354.40L416.20 361.15L417.52 369.68L418.92 378.68L427.54 377.86L433.49 369.61L443.79 369.04L453.03 368.92L466.42 368.74L475.80 371.27L485.19 373.81L488.23 383.97L488.13 395.37L488.01 409.38L487.41 424.98L482.22 441.30L488.81 441.46L500.26 441.22L504.41 446.58L511.26 443.67L518.46 442.10L523.15 441.46L532.07 438.92L539.05 437.82L544.21 449.97L542.12 462.08L548.49 465.14L558.08 465.34L563.77 466.07L568.66 466.70L573.36 467.31L573.48 476.82L587.61 477.69L595.02 477.37L601.52 477.08L609.23 478.23L613.97 475.81L620.47 472.14L631.56 466.46L639.41 464.35L647.68 467.35L656.66 463.70L662.22 460.69L672.41 460.79L680.67 464.80L694.22 461.84L700.21 465.73L705.56 469.58L713.43 472.70L720.12 476.27L730.30 476.20L742.84 478.50L753.28 480.93L754.96 491.51L754.88 496.36L754.97 506.69L754.73 514.13L754.57 519.00L753.29 529.67L750.30 535.85L750.88 547.32L757.59 551.43L770.29 552.97L780.66 554.22L787.17 555.01L795.71 556.04L804.21 557.07L810.23 557.79L835.22 560.82L856.78 563.42L865.39 564.46L1000.00 374.55L923.95 346.35Z" data-ward="2" /><path id="ward-6" class="ward" d="M656.78 541.82L648.10 543.14L643.46 544.53L632.99 545.80L626.24 547.71L610.13 548.70L598.34 548.82L592.45 549.61L584.37 546.46L578.89 545.44L571.67 546.42L567.77 559.41L561.00 560.92L552.58 561.83L550.95 571.22L547.21 584.95L545.27 598.28L543.30 605.40L540.09 618.31L537.13 630.17L535.72 635.00L534.12 640.59L531.20 646.06L530.10 652.18L530.22 657.18L529.53 668.12L528.20 675.53L526.63 683.38L525.69 688.38L523.60 696.59L522.79 703.54L520.37 713.46L551.98 714.51L564.43 715.40L583.69 716.76L595.47 717.60L603.02 717.13L606.94 706.67L611.00 701.06L619.03 694.61L623.01 691.28L626.67 687.22L629.35 681.95L639.46 669.12L648.07 668.82L653.23 669.88L665.04 672.80L672.06 674.49L679.68 676.17L685.86 676.01L711.31 676.53L725.26 676.56L740.96 677.34L776.32 678.30L795.41 678.65L813.15 679.10L826.02 680.35L827.10 675.69L848.59 608.18L852.22 594.85L865.39 564.46L856.78 563.42L835.22 560.82L810.23 557.79L804.21 557.07L795.71 556.04L787.17 555.01L780.66 554.22L770.29 552.97L757.59 551.43L747.59 559.97L731.55 571.28L730.57 578.19L723.57 589.42L713.87 593.33L709.13 592.16L700.65 590.95L694.22 590.33L691.91 584.09L692.40 571.82L686.24 569.38L680.02 566.25L675.33 561.53L675.07 548.62L673.15 541.87L665.56 542.25L656.78 541.82Z" data-ward="6" /><path id="ward-1" class="ward" d="M363.88 406.65L368.08 400.61L373.95 392.16L380.00 383.47L400.63 353.78L406.07 345.97L415.46 332.24L424.98 318.33L434.49 304.43L442.01 294.07L462.12 266.38L480.66 235.56L492.64 215.65L494.10 210.36L508.69 191.95L497.14 179.26L415.56 99.09L398.91 77.17L379.24 58.88L338.04 35.75L287.17 21.32L175.66 6.39L128.23 0.00L135.89 32.18L138.71 43.65L140.81 52.85L143.54 60.67L148.98 76.24L172.10 110.56L178.91 120.68L185.90 131.05L218.05 174.60L258.39 205.83L294.17 234.22L297.55 237.61L300.94 240.99L317.62 288.94L332.35 334.04L337.72 349.45L339.91 362.63L353.28 394.63L355.38 401.43L357.17 407.19L359.12 413.50L363.88 406.65Z" data-ward="1" /><path id="ward-4" class="ward" d="M573.48 476.82L573.36 467.31L568.66 466.70L563.77 466.07L558.08 465.34L548.49 465.14L542.12 462.08L544.21 449.97L539.05 437.82L532.07 438.92L523.15 441.46L518.46 442.10L511.26 443.67L504.41 446.58L496.70 455.89L493.15 463.82L492.96 470.22L492.87 475.98L492.79 481.12L493.39 493.66L495.70 498.20L500.59 503.78L500.61 509.13L500.64 514.48L501.17 520.83L502.10 531.90L502.86 538.05L503.45 542.82L505.20 556.95L504.82 563.03L511.00 563.63L515.48 562.37L521.83 560.98L530.81 559.88L538.81 557.49L549.79 558.02L552.58 561.83L561.00 560.92L567.77 559.41L571.67 546.42L578.89 545.44L584.37 546.46L592.45 549.61L598.34 548.82L610.13 548.70L626.24 547.71L632.99 545.80L643.46 544.53L648.10 543.14L656.78 541.82L665.56 542.25L673.15 541.87L675.07 548.62L675.33 561.53L680.02 566.25L686.24 569.38L692.40 571.82L691.91 584.09L694.22 590.33L700.65 590.95L709.13 592.16L713.87 593.33L723.57 589.42L730.57 578.19L731.55 571.28L747.59 559.97L757.59 551.43L750.88 547.32L750.30 535.85L753.29 529.67L754.57 519.00L754.73 514.13L754.97 506.69L754.88 496.36L754.96 491.51L753.28 480.93L742.84 478.50L730.30 476.20L720.12 476.27L713.43 472.70L705.56 469.58L700.21 465.73L694.22 461.84L680.67 464.80L672.41 460.79L662.22 460.69L656.66 463.70L647.68 467.35L639.41 464.35L631.56 466.46L620.47 472.14L613.97 475.81L609.23 478.23L601.52 477.08L595.02 477.37L587.61 477.69L573.48 476.82Z" data-ward="4" /><path id="ward-5" class="ward" d="M552.58 561.83L549.79 558.02L538.81 557.49L530.81 559.88L521.83 560.98L515.48 562.37L511.00 563.63L504.82 563.03L496.12 567.34L487.06 568.90L480.49 568.78L473.80 568.66L459.31 566.66L451.84 565.62L446.15 564.90L440.59 564.18L435.98 561.70L430.54 561.65L425.76 561.61L419.76 559.52L411.97 559.94L405.30 560.86L400.62 561.52L394.75 562.48L388.84 563.45L376.77 565.89L383.36 605.32L384.31 611.11L385.31 617.18L388.93 623.72L389.80 640.44L390.39 651.67L391.39 660.98L392.30 669.32L393.07 676.44L393.85 683.57L395.08 694.78L395.72 702.39L396.32 709.36L396.88 716.01L397.05 718.62L398.04 726.89L398.71 743.65L400.17 751.97L408.94 749.26L414.99 748.47L421.43 747.62L427.84 746.77L434.27 745.93L440.21 745.15L449.20 744.67L454.14 744.04L458.81 742.29L463.98 740.28L469.14 738.26L475.82 737.39L481.90 737.10L486.74 736.01L492.52 735.43L500.10 730.75L503.62 727.38L509.51 722.86L513.09 719.76L516.84 716.52L520.37 713.46L522.79 703.54L523.60 696.59L525.69 688.38L526.63 683.38L528.20 675.53L529.53 668.12L530.22 657.18L530.10 652.18L531.20 646.06L534.12 640.59L535.72 635.00L537.13 630.17L540.09 618.31L543.30 605.40L545.27 598.28L547.21 584.95L550.95 571.22L552.58 561.83Z" data-ward="5" /><path id="ward-9" class="ward" d="M838.00 1025.45L769.51 1025.57L753.51 1023.73L741.54 1025.57L739.64 997.94L729.40 997.89L717.03 998.06L715.59 1009.51L705.98 1009.51L704.71 1009.17L705.00 1003.41L704.88 999.33L700.45 998.41L697.23 998.12L688.19 1001.05L687.50 998.17L685.32 992.42L684.16 980.97L668.74 981.89L657.81 981.66L656.54 981.08L655.85 955.53L655.62 952.31L653.78 943.33L653.09 937.34L652.63 929.06L652.11 920.77L653.01 914.26L648.37 917.04L641.28 921.28L636.05 921.53L615.46 923.22L608.14 924.50L603.14 929.91L591.94 929.95L572.66 930.29L561.62 930.49L537.31 930.92L518.43 931.39L501.23 931.71L488.45 931.98L481.05 934.21L480.73 941.15L478.96 946.25L467.14 948.18L461.84 948.86L441.32 951.51L432.19 952.43L432.64 959.09L438.97 998.47L455.33 1100.31L455.19 1114.80L457.89 1139.54L458.60 1144.48L459.39 1151.75L461.41 1166.25L464.42 1186.09L467.48 1207.69L468.37 1214.89L471.00 1235.20L471.56 1240.12L473.79 1259.36L474.03 1270.54L473.31 1279.17L482.99 1278.81L489.44 1277.63L496.95 1276.61L501.98 1275.90L507.00 1275.20L513.27 1273.43L518.19 1271.17L527.89 1272.63L543.13 1288.50L563.40 1278.93L561.97 1267.17L561.13 1259.65L560.01 1249.69L595.52 1236.01L598.85 1232.79L602.19 1229.57L632.15 1200.64L731.04 1146.35L772.10 1124.06L788.10 1123.29L830.88 1121.68L832.20 1103.97L834.68 1070.52L837.05 1038.53L838.00 1025.45Z" data-ward="9" /><path id="ward-10" class="ward" d="M844.95 1266.91L840.56 1244.11L838.64 1230.50L833.92 1197.02L829.95 1168.87L829.20 1156.95L830.88 1121.68L788.10 1123.29L772.10 1124.06L731.04 1146.35L632.15 1200.64L602.19 1229.57L598.85 1232.79L595.52 1236.01L560.01 1249.69L561.13 1259.65L561.97 1267.17L563.40 1278.93L543.13 1288.50L527.89 1272.63L518.19 1271.17L513.27 1273.43L507.00 1275.20L501.98 1275.90L496.95 1276.61L489.44 1277.63L482.99 1278.81L473.31 1279.17L475.55 1292.71L476.93 1333.47L477.81 1376.10L474.33 1375.89L484.41 1424.57L485.35 1433.95L488.47 1444.20L491.76 1463.79L495.99 1489.00L496.98 1493.55L504.71 1493.58L512.36 1493.93L520.31 1493.40L527.57 1492.81L534.54 1493.15L575.76 1490.84L589.02 1490.21L612.09 1486.95L627.80 1484.72L626.30 1478.10L627.77 1472.96L630.17 1467.90L634.90 1465.13L645.56 1464.26L652.88 1463.53L665.88 1461.73L672.42 1461.01L678.87 1460.30L693.43 1456.97L701.99 1455.93L711.00 1455.86L719.01 1456.57L727.68 1457.65L747.03 1457.61L753.43 1457.16L762.59 1456.13L770.12 1454.79L802.50 1451.90L808.65 1436.10L812.49 1426.25L821.46 1410.35L828.21 1398.38L845.80 1370.45L849.01 1360.94L851.80 1351.32L852.68 1346.57L854.21 1330.31L853.80 1318.79L852.61 1307.37L850.45 1295.49L844.95 1266.91Z" data-ward="10" /><path id="ward-3" class="ward" d="M417.52 369.68L416.20 361.15L415.16 354.40L406.07 345.97L400.63 353.78L380.00 383.47L373.95 392.16L368.08 400.61L363.88 406.65L359.12 413.50L363.23 426.77L362.02 435.76L363.21 443.86L363.94 448.79L364.81 454.74L362.70 480.26L367.21 488.34L373.07 542.68L376.77 565.89L388.84 563.45L394.75 562.48L400.62 561.52L405.30 560.86L411.97 559.94L419.76 559.52L425.76 561.61L430.54 561.65L435.98 561.70L440.59 564.18L446.15 564.90L451.84 565.62L459.31 566.66L473.80 568.66L480.49 568.78L487.06 568.90L496.12 567.34L504.82 563.03L505.20 556.95L503.45 542.82L502.86 538.05L502.10 531.90L501.17 520.83L500.64 514.48L500.61 509.13L500.59 503.78L495.70 498.20L493.39 493.66L492.79 481.12L492.87 475.98L492.96 470.22L493.15 463.82L496.70 455.89L504.41 446.58L500.26 441.22L488.81 441.46L482.22 441.30L487.41 424.98L488.01 409.38L488.13 395.37L488.23 383.97L485.19 373.81L475.80 371.27L466.42 368.74L453.03 368.92L443.79 369.04L433.49 369.61L427.54 377.86L418.92 378.68L417.52 369.68Z" data-ward="3" /><path id="ward-18" class="ward" d="M401.30 764.12L395.06 765.78L390.54 766.78L385.78 767.62L381.23 768.52L374.06 770.20L369.10 771.01L364.51 770.70L359.10 770.84L354.51 771.69L350.06 772.89L344.42 775.41L339.45 775.10L332.52 774.93L325.30 777.16L325.86 781.92L325.93 787.64L318.97 790.90L314.62 792.93L310.01 793.89L304.81 794.98L299.40 796.76L290.20 798.35L282.67 801.90L272.16 799.76L269.06 795.82L264.61 790.09L260.20 791.73L252.07 796.29L246.20 795.04L240.01 797.19L234.61 798.61L245.47 832.43L248.89 848.17L252.02 862.54L254.24 872.97L256.44 879.99L260.61 893.72L263.78 904.20L268.50 920.73L271.07 930.25L274.95 943.65L281.16 965.63L287.13 982.31L292.40 997.03L294.27 1002.28L296.15 1007.52L304.08 1005.28L308.62 998.03L314.33 992.11L320.90 992.72L325.39 991.23L330.54 990.73L335.26 989.87L342.51 986.99L349.91 985.51L352.01 994.20L352.21 1002.50L355.38 1009.21L362.86 1009.21L367.62 1008.43L372.50 1008.21L379.85 1008.01L384.78 1003.94L385.12 998.89L386.01 992.96L391.21 988.15L394.80 984.05L392.87 975.00L393.09 966.82L389.97 959.05L385.64 950.42L387.50 942.20L394.82 940.95L401.42 939.89L406.03 939.08L413.95 938.41L424.95 936.18L419.84 891.50L416.65 862.23L415.39 850.69L405.99 795.49L403.76 784.92L401.30 764.12Z" data-ward="18" /><path id="ward-15" class="ward" d="M388.21 1238.24L384.16 1235.25L377.04 1234.92L371.75 1236.15L366.67 1237.22L361.63 1238.31L354.31 1239.89L349.30 1240.38L339.93 1240.23L334.96 1240.63L329.40 1241.06L318.71 1242.21L313.44 1242.96L308.44 1243.58L303.79 1244.02L298.21 1244.56L292.41 1243.52L285.61 1242.01L278.61 1241.48L273.86 1242.24L267.48 1243.27L259.35 1245.58L236.87 1251.96L227.80 1254.44L201.53 1285.52L193.35 1292.08L188.03 1296.35L184.40 1301.21L178.44 1309.20L172.99 1316.52L176.95 1323.55L180.12 1328.38L182.50 1333.84L185.22 1341.03L187.11 1353.45L188.08 1359.88L189.05 1366.29L189.86 1372.20L190.89 1380.37L192.70 1396.00L194.09 1405.35L195.36 1413.89L197.57 1421.86L199.40 1428.47L203.17 1440.50L207.81 1454.40L211.08 1464.29L213.28 1471.08L215.98 1479.48L217.77 1485.18L218.82 1489.96L223.50 1511.23L227.11 1527.66L235.57 1525.91L242.87 1523.74L249.44 1521.70L254.03 1520.26L266.17 1514.85L269.31 1508.29L273.35 1504.36L273.55 1495.90L275.85 1491.54L282.26 1490.43L294.06 1489.08L301.56 1488.23L313.90 1488.58L318.50 1488.42L327.63 1485.05L334.51 1487.40L340.73 1487.54L347.70 1486.37L348.06 1479.32L349.36 1473.24L353.34 1468.80L355.73 1462.93L359.28 1459.92L367.23 1459.08L374.58 1458.29L371.57 1386.41L376.41 1385.42L384.06 1386.04L392.45 1385.94L397.87 1386.89L406.67 1385.59L412.09 1384.22L417.61 1397.23L423.00 1395.57L435.24 1388.74L442.09 1382.38L447.32 1379.79L452.74 1377.11L461.71 1375.13L469.42 1375.71L474.33 1375.89L477.81 1376.10L476.93 1333.47L475.55 1292.71L473.31 1279.17L474.03 1270.54L473.79 1259.36L471.56 1240.12L471.00 1235.20L454.06 1236.85L443.40 1238.16L437.66 1238.86L427.92 1240.50L421.03 1244.39L414.60 1244.58L407.31 1245.64L402.70 1246.49L396.69 1248.19L391.67 1249.04L388.97 1244.14L388.21 1238.24Z" data-ward="15" /><path id="ward-11" class="ward" d="M802.50 1451.90L770.12 1454.79L762.59 1456.13L753.43 1457.16L747.03 1457.61L727.68 1457.65L719.01 1456.57L711.00 1455.86L701.99 1455.93L693.43 1456.97L678.87 1460.30L672.42 1461.01L665.88 1461.73L652.88 1463.53L645.56 1464.26L634.90 1465.13L630.17 1467.90L627.77 1472.96L626.30 1478.10L627.80 1484.72L612.09 1486.95L589.02 1490.21L575.76 1490.84L534.54 1493.15L527.57 1492.81L520.31 1493.40L512.36 1493.93L504.71 1493.58L496.98 1493.55L508.94 1566.17L509.85 1572.50L513.89 1600.50L515.81 1614.13L522.04 1613.68L541.76 1612.25L547.87 1624.37L556.14 1624.58L561.38 1624.72L566.72 1624.14L575.18 1625.79L581.58 1627.05L585.89 1628.85L591.28 1629.21L597.25 1629.85L604.03 1633.79L608.72 1638.05L616.85 1638.61L651.34 1635.94L656.30 1635.62L661.96 1636.64L667.30 1636.52L674.20 1636.65L685.13 1639.25L693.55 1638.89L698.00 1644.32L701.13 1649.50L710.16 1649.53L714.95 1646.84L718.61 1643.01L723.56 1641.92L732.44 1644.77L734.35 1649.38L736.27 1654.52L741.31 1659.70L741.74 1664.39L743.29 1669.96L744.34 1677.83L745.30 1683.54L747.28 1689.47L747.10 1694.52L747.26 1700.48L747.86 1706.33L748.40 1712.40L752.25 1720.02L754.84 1725.56L754.92 1731.53L755.92 1736.65L757.38 1741.85L761.91 1744.43L765.59 1752.91L764.66 1757.88L760.07 1758.69L758.56 1763.27L760.25 1768.22L768.39 1770.46L775.26 1772.27L779.54 1776.13L789.54 1782.62L794.31 1782.72L801.16 1780.21L805.68 1776.37L812.13 1774.10L817.68 1772.99L824.31 1771.48L829.84 1770.16L834.27 1765.23L843.94 1753.04L846.53 1742.52L852.49 1730.20L859.13 1727.30L863.46 1725.58L862.68 1720.38L861.64 1715.70L860.45 1709.43L858.96 1701.04L859.52 1689.57L858.29 1684.98L861.28 1679.59L866.43 1677.69L879.05 1672.10L872.66 1661.94L855.22 1633.66L846.54 1622.34L829.61 1599.27L823.00 1590.24L801.01 1533.64L798.65 1520.69L796.79 1501.09L795.03 1475.55L802.50 1451.90Z" data-ward="11" /><path id="ward-8" class="ward" d="M583.69 716.76L564.43 715.40L551.98 714.51L520.37 713.46L516.84 716.52L513.09 719.76L509.51 722.86L503.62 727.38L500.10 730.75L492.52 735.43L486.74 736.01L481.90 737.10L475.82 737.39L469.14 738.26L463.98 740.28L458.81 742.29L454.14 744.04L449.20 744.67L440.21 745.15L434.27 745.93L427.84 746.77L421.43 747.62L414.99 748.47L408.94 749.26L400.17 751.97L401.30 764.12L403.76 784.92L405.99 795.49L415.39 850.69L416.65 862.23L419.84 891.50L424.95 936.18L431.36 940.09L432.19 952.43L441.32 951.51L461.84 948.86L467.14 948.18L478.96 946.25L480.73 941.15L481.05 934.21L488.45 931.98L501.23 931.71L518.43 931.39L537.31 930.92L561.62 930.49L572.66 930.29L591.94 929.95L603.14 929.91L608.14 924.50L615.46 923.22L636.05 921.53L641.28 921.28L648.37 917.04L653.01 914.26L647.64 904.93L644.05 898.68L640.41 889.38L642.37 880.11L638.64 875.22L632.65 874.96L625.15 875.17L619.46 875.13L613.26 876.12L607.53 877.05L599.58 877.43L592.58 873.26L587.99 874.31L583.20 872.46L584.79 866.58L579.14 864.09L575.45 856.37L573.75 849.82L571.38 843.84L560.50 841.90L560.83 832.59L561.03 827.14L555.04 823.15L550.57 822.07L544.18 820.53L542.09 825.72L541.40 830.66L541.26 835.95L539.88 845.63L535.46 847.15L524.92 848.39L518.29 849.29L511.60 843.75L511.17 837.91L510.85 832.28L509.96 826.07L508.34 819.16L507.36 811.50L506.39 803.84L506.18 798.76L505.94 794.14L506.08 786.34L507.78 775.50L509.56 767.77L511.98 760.22L519.70 759.41L524.41 758.91L529.37 758.88L534.18 759.20L541.04 773.48L575.38 778.79L596.63 780.57L593.45 771.99L612.34 764.75L612.18 753.35L612.32 742.47L612.70 733.89L612.02 728.36L609.77 723.71L603.02 717.13L595.47 717.60L583.69 716.76Z" data-ward="8" /><path id="ward-16" class="ward" d="M263.78 904.20L260.61 893.72L256.44 879.99L246.42 884.34L240.62 884.82L231.27 887.66L222.74 891.56L214.46 895.33L206.86 897.48L201.66 898.26L186.21 899.98L181.24 900.70L175.13 901.74L168.92 902.80L157.61 905.23L148.35 906.47L143.00 907.32L137.43 908.21L112.10 905.27L104.49 904.39L96.28 903.74L90.41 937.39L86.93 992.38L99.52 1031.90L114.49 1075.84L121.06 1094.60L137.19 1120.90L146.04 1138.30L158.42 1175.11L161.41 1218.60L142.89 1252.51L156.29 1272.28L162.91 1282.04L167.60 1288.35L169.50 1298.26L170.50 1303.49L171.77 1310.14L172.99 1316.52L178.44 1309.20L184.40 1301.21L188.03 1296.35L193.35 1292.08L201.53 1285.52L227.80 1254.44L236.87 1251.96L259.35 1245.58L267.48 1243.27L273.86 1242.24L278.61 1241.48L285.61 1242.01L292.41 1243.52L298.21 1244.56L303.79 1244.02L308.44 1243.58L313.44 1242.96L318.71 1242.21L329.40 1241.06L334.96 1240.63L339.93 1240.23L349.30 1240.38L343.24 1213.90L333.02 1170.35L330.68 1160.39L319.19 1116.51L312.27 1088.76L307.22 1070.24L300.81 1044.98L299.58 1040.15L292.10 1009.86L296.15 1007.52L294.27 1002.28L292.40 997.03L287.13 982.31L281.16 965.63L274.95 943.65L271.07 930.25L268.50 920.73L263.78 904.20Z" data-ward="16" /></svg>