<svg viewBox="0 0 1000.00 1475.54" xmlns="http://www.w3.org/2000/svg"><style>.ward { fill: #e2e8f0; stroke: #fff; stroke-width: 0.5px; } .ward:hover { fill: #cbd5e1; }</style><path id="ward-9" class="ward" d="M302.54 1102.74L294.01 1101.03L288.01 1099.95L280.69 1098.82L271.02 1096.18L268.54 1095.50L253.91 1091.12L239.02 1086.67L226.42 1082.90L218.31 1080.47L215.62 1080.24L202.07 1079.08L189.99 1078.02L186.50 1077.75L185.56 1085.27L184.23 1095.82L183.10 1104.73L184.55 1109.12L187.47 1118.07L190.12 1126.13L191.25 1130.55L191.73 1132.61L192.43 1135.05L194.49 1142.20L197.34 1143.71L200.76 1146.03L205.55 1149.27L207.87 1153.32L217.26 1164.81L222.68 1171.44L228.43 1182.58L229.81 1185.42L232.82 1187.47L235.74 1189.48L237.83 1191.05L239.82 1192.54L242.89 1194.86L245.33 1199.89L247.01 1203.33L248.50 1206.41L250.16 1210.99L251.19 1213.80L253.29 1217.27L250.87 1225.43L251.64 1230.09L253.38 1231.70L257.79 1233.94L263.77 1237.11L268.28 1239.50L270.79 1240.87L274.57 1242.93L275.77 1244.62L277.97 1247.71L280.98 1250.26L284.09 1254.85L285.84 1257.42L288.66 1261.57L290.20 1263.84L292.44 1267.13L293.48 1270.62L294.62 1274.44L295.39 1276.87L297.21 1280.56L300.77 1282.13L303.16 1285.32L306.20 1286.12L308.91 1286.16L314.04 1286.25L318.62 1286.33L322.53 1287.27L332.71 1287.18L348.01 1287.05L347.20 1278.47L346.59 1272.00L345.94 1265.07L345.29 1258.20L344.56 1250.39L344.27 1245.58L344.37 1238.35L344.29 1232.40L344.22 1227.44L345.05 1225.52L347.15 1221.17L348.62 1213.15L349.96 1205.77L351.11 1199.51L350.84 1193.89L350.21 1180.66L349.87 1173.61L349.31 1162.81L349.08 1158.61L349.04 1153.32L349.00 1148.79L348.97 1141.79L348.95 1135.09L348.18 1132.86L345.36 1124.75L342.99 1116.61L341.88 1112.78L340.19 1107.02L326.48 1103.15L321.44 1103.37L308.44 1103.93L302.54 1102.74Z" data-ward="9" /><path id="ward-15" class="ward" d="M281.39 819.65L282.07 806.39L284.86 793.22L284.51 790.63L285.61 785.27L286.95 778.69L288.19 765.08L289.53 750.43L291.08 733.48L292.58 727.29L291.73 726.27L279.43 725.19L273.86 724.42L211.93 716.11L119.35 808.22L118.47 810.89L116.77 817.89L115.39 820.57L112.64 823.24L110.92 824.92L108.14 824.87L101.27 824.88L96.03 833.67L94.13 834.99L88.72 839.39L86.07 840.88L81.08 843.68L78.74 845.91L74.39 851.66L68.08 859.99L64.88 874.04L64.07 878.76L62.47 888.10L60.75 900.15L60.53 902.78L58.71 914.65L57.34 924.35L56.47 930.53L55.34 938.59L52.03 952.68L48.63 967.15L48.49 969.82L48.54 976.28L49.51 988.31L50.07 995.24L50.93 1005.91L49.95 1009.52L49.23 1015.02L46.91 1020.92L45.54 1024.38L43.57 1029.40L41.61 1034.37L40.26 1037.82L38.34 1042.71L36.48 1047.43L35.20 1050.69L35.12 1054.99L35.03 1060.47L34.96 1064.72L39.01 1065.47L48.72 1066.27L63.67 1067.87L76.11 1068.89L84.35 1067.80L88.77 1066.54L94.04 1065.89L100.96 1065.04L109.62 1064.42L112.40 1064.22L116.65 1064.49L122.10 1063.03L129.37 1061.94L133.94 1061.15L144.40 1059.34L149.44 1058.49L155.41 1057.09L159.69 1056.61L164.25 1056.11L172.39 1055.18L172.81 1047.03L174.70 1010.59L231.49 1006.58L226.93 993.35L220.29 974.08L215.07 958.91L214.33 939.41L214.44 924.53L214.50 917.12L214.55 910.34L188.32 907.80L206.02 896.86L209.20 886.94L209.65 884.56L207.21 882.15L208.52 878.48L193.21 872.81L191.25 865.23L190.65 857.03L189.93 848.18L188.36 841.27L188.25 832.44L200.17 834.45L211.27 832.62L215.93 832.57L227.61 832.38L234.49 832.76L240.44 835.11L247.29 838.23L253.22 841.90L260.51 846.43L266.77 847.79L273.43 846.37L277.22 845.22L282.67 841.19L285.55 839.05L285.29 836.04L284.00 832.58L282.11 831.63L281.39 819.65Z" data-ward="15" /><path id="ward-14" class="ward" d="M234.49 832.76L227.61 832.38L215.93 832.57L211.27 832.62L200.17 834.45L188.25 832.44L188.36 841.27L189.93 848.18L190.65 857.03L191.25 865.23L193.21 872.81L208.52 878.48L207.21 882.15L209.65 884.56L209.20 886.94L206.02 896.86L188.32 907.80L214.55 910.34L214.50 917.12L214.44 924.53L214.33 939.41L215.07 958.91L220.29 974.08L226.93 993.35L231.49 1006.58L239.44 1006.03L243.68 1005.73L250.48 1005.42L255.91 1005.29L258.64 1005.06L263.04 1004.80L266.66 1004.46L270.18 1004.30L273.01 1004.18L275.51 1003.99L279.56 1004.32L275.69 1009.30L273.37 1011.67L269.00 1014.20L268.80 1017.28L268.31 1020.85L267.78 1024.02L268.81 1025.93L272.65 1026.91L274.88 1027.53L278.01 1027.91L281.90 1028.38L288.16 1029.41L290.75 1029.83L297.38 1031.04L299.46 1031.29L302.02 1031.94L315.39 1035.33L318.09 1026.00L319.91 1015.07L319.34 1011.52L319.76 1005.76L317.34 988.09L315.54 977.80L315.76 971.50L315.91 967.37L316.54 964.96L314.38 964.30L314.70 962.14L315.06 959.67L315.57 956.20L315.97 953.81L316.83 951.21L319.12 944.66L319.21 940.68L320.38 938.04L320.11 932.67L320.10 929.42L320.36 924.02L320.75 918.95L321.02 915.52L320.23 910.77L319.15 908.70L318.62 905.68L317.13 902.38L312.39 891.87L311.05 888.91L307.83 881.33L306.70 877.52L304.59 869.00L302.45 860.38L300.71 857.23L300.05 855.10L290.19 844.18L285.55 839.05L282.67 841.19L277.22 845.22L273.43 846.37L266.77 847.79L260.51 846.43L253.22 841.90L247.29 838.23L240.44 835.11L234.49 832.76Z" data-ward="14" /><path id="ward-1" class="ward" d="M858.05 155.33L847.18 137.56L834.69 117.12L824.87 101.05L811.07 96.47L789.46 89.29L758.19 78.91L731.96 70.20L730.02 69.55L724.39 46.77L719.35 26.34L713.61 11.41L710.55 3.43L709.42 0.00L655.56 21.22L623.65 34.54L592.41 47.59L578.38 53.45L578.39 56.82L578.39 60.11L578.39 64.74L578.39 68.32L578.40 72.52L578.40 77.43L578.36 82.26L578.33 87.55L578.31 90.49L578.44 92.84L578.49 97.78L578.56 103.25L578.62 109.12L578.70 115.75L578.77 122.09L578.84 127.70L576.22 129.05L566.93 133.87L556.93 139.04L549.78 142.75L542.53 146.50L533.51 151.17L522.89 156.67L510.85 162.90L498.48 169.31L467.91 185.14L447.24 195.84L430.93 204.28L423.75 208.01L420.32 214.76L415.15 217.26L406.53 221.42L389.60 229.61L374.96 236.69L356.03 246.45L314.35 267.12L297.65 275.40L282.25 283.03L277.19 286.00L271.85 286.36L271.79 305.59L271.77 310.16L271.75 315.63L271.98 327.68L272.23 340.73L278.49 335.50L279.55 348.08L280.66 361.14L280.88 368.71L281.92 387.10L282.43 401.86L284.07 438.46L286.40 490.38L288.77 543.33L272.34 559.15L255.49 575.69L248.55 582.51L232.63 598.90L221.81 610.04L197.23 592.12L172.65 574.90L173.48 579.85L173.83 582.29L174.25 585.15L174.90 591.67L175.16 598.12L174.72 603.13L174.50 605.69L173.32 609.22L170.56 617.40L169.67 620.06L166.26 623.98L164.14 626.56L159.95 631.68L157.84 634.25L153.63 639.39L148.53 645.60L144.35 650.71L140.48 655.29L139.01 657.03L136.43 659.29L132.36 663.01L130.58 664.34L126.21 667.36L121.65 670.10L119.12 674.73L116.54 679.46L116.61 683.66L114.49 687.41L111.70 691.91L109.62 695.46L106.14 699.48L102.35 703.85L99.66 706.97L98.05 708.31L96.95 710.73L91.39 717.42L90.03 719.06L90.18 722.20L90.38 726.17L90.63 731.11L91.80 736.93L92.92 742.54L95.20 750.73L96.92 753.00L98.76 755.45L101.89 759.59L110.20 768.62L108.45 779.73L108.31 783.94L107.11 789.62L105.03 806.29L104.41 809.41L103.05 816.27L101.27 824.88L108.14 824.87L110.92 824.92L112.64 823.24L115.39 820.57L116.77 817.89L118.47 810.89L119.35 808.22L211.93 716.11L273.86 724.42L279.43 725.19L291.73 726.27L292.88 725.31L294.16 699.67L294.40 692.09L293.16 674.07L291.58 657.33L290.67 647.75L290.14 639.29L289.47 628.52L292.94 627.86L301.56 630.09L338.74 639.69L347.24 641.89L356.36 644.24L382.22 647.35L412.99 656.64L426.41 662.77L432.20 659.45L438.84 660.85L445.16 661.01L484.36 661.96L513.47 663.21L523.50 663.74L555.36 667.66L597.44 672.29L597.18 663.51L593.13 529.86L592.66 514.45L592.51 509.34L592.34 503.81L592.24 500.36L600.27 498.52L604.59 497.61L609.67 497.46L638.39 496.56L666.59 495.69L685.83 495.09L710.65 494.32L743.22 493.31L764.94 492.93L770.00 492.60L799.99 492.43L812.95 492.35L826.31 492.28L842.95 492.18L846.78 492.16L851.12 492.14L855.29 492.11L858.78 492.09L861.85 492.07L872.93 491.61L901.36 490.50L908.33 490.19L946.33 488.51L952.03 488.38L958.55 487.62L968.19 486.48L975.79 485.58L982.44 482.01L982.63 469.72L982.92 450.55L983.18 432.89L983.24 429.05L984.07 414.53L985.08 400.94L986.26 385.04L987.52 367.99L989.01 347.92L990.31 330.39L991.33 301.26L991.93 283.93L992.61 264.55L993.21 247.36L993.91 227.31L994.59 207.83L995.20 190.18L995.64 177.75L998.67 162.51L1000.00 155.84L997.76 156.45L994.85 157.23L992.02 157.99L986.36 159.52L979.51 161.37L972.97 163.14L965.37 165.19L958.28 167.10L950.36 169.24L945.68 170.50L941.35 171.67L938.98 172.31L935.42 173.27L930.02 174.73L924.50 176.22L919.52 177.56L914.37 178.95L908.81 180.45L906.64 181.04L903.80 181.53L878.41 188.65L858.05 155.33Z" data-ward="1" /><path id="ward-13" class="ward" d="M337.91 1102.45L336.10 1098.86L334.77 1097.23L328.87 1089.86L327.30 1087.34L322.12 1078.18L320.15 1073.94L318.54 1069.32L316.52 1061.76L315.25 1056.12L314.70 1053.29L313.95 1046.55L314.50 1040.76L314.93 1038.14L315.39 1035.33L302.02 1031.94L299.46 1031.29L297.38 1031.04L290.75 1029.83L288.16 1029.41L281.90 1028.38L278.01 1027.91L274.88 1027.53L272.65 1026.91L268.81 1025.93L267.78 1024.02L268.31 1020.85L268.80 1017.28L269.00 1014.20L273.37 1011.67L275.69 1009.30L279.56 1004.32L275.51 1003.99L273.01 1004.18L270.18 1004.30L266.66 1004.46L263.04 1004.80L258.64 1005.06L255.91 1005.29L250.48 1005.42L243.68 1005.73L239.44 1006.03L231.49 1006.58L174.70 1010.59L172.81 1047.03L172.39 1055.18L177.14 1061.87L186.79 1075.47L186.50 1077.75L189.99 1078.02L202.07 1079.08L215.62 1080.24L218.31 1080.47L226.42 1082.90L239.02 1086.67L253.91 1091.12L268.54 1095.50L271.02 1096.18L280.69 1098.82L288.01 1099.95L294.01 1101.03L302.54 1102.74L308.44 1103.93L321.44 1103.37L326.48 1103.15L340.19 1107.02L338.91 1104.45L337.91 1102.45Z" data-ward="13" /><path id="ward-5" class="ward" d="M604.44 909.48L597.71 908.16L584.30 905.52L573.73 904.51L566.25 903.80L557.90 902.45L555.48 902.08L536.93 899.28L531.77 898.70L528.80 898.36L525.72 898.01L521.99 897.91L519.36 897.48L512.11 896.30L501.74 894.61L494.43 893.41L487.75 892.32L484.42 891.78L482.08 892.58L476.65 1041.11L472.81 1040.45L470.48 1040.88L459.15 1042.99L457.81 1047.78L456.44 1052.64L460.27 1056.70L464.21 1058.92L468.14 1060.49L473.36 1065.54L473.38 1069.51L474.89 1074.13L480.11 1072.67L484.15 1078.45L485.40 1083.98L488.08 1085.74L490.84 1087.12L501.41 1092.38L523.83 1096.91L536.52 1099.47L543.25 1099.34L546.38 1097.57L548.29 1090.63L550.13 1089.29L607.39 1097.04L622.89 1099.14L625.69 1089.46L628.79 1078.72L632.04 1067.47L634.84 1057.79L635.66 1054.95L639.18 1042.75L640.99 1036.50L641.47 1032.73L644.54 1008.58L645.28 1002.78L645.92 997.73L646.67 991.86L647.07 988.74L648.79 985.02L653.12 975.69L656.83 967.68L658.57 963.94L661.44 956.06L660.63 948.84L660.33 946.16L655.58 944.57L652.08 943.40L646.54 941.54L642.04 939.82L639.02 938.67L633.84 936.69L631.15 935.66L621.96 931.26L619.58 930.12L618.92 927.92L616.25 918.91L617.42 912.97L618.46 907.76L613.40 909.26L607.87 909.73L604.44 909.48Z" data-ward="5" /><path id="ward-2" class="ward" d="M412.99 656.64L382.22 647.35L356.36 644.24L347.24 641.89L338.74 639.69L301.56 630.09L292.94 627.86L289.47 628.52L290.14 639.29L290.67 647.75L291.58 657.33L293.16 674.07L294.40 692.09L294.16 699.67L292.88 725.31L291.73 726.27L292.58 727.29L291.08 733.48L289.53 750.43L288.19 765.08L286.95 778.69L285.61 785.27L284.51 790.63L284.86 793.22L282.07 806.39L281.39 819.65L282.11 831.63L284.00 832.58L285.29 836.04L285.55 839.05L290.19 844.18L300.05 855.10L300.71 857.23L302.45 860.38L304.59 869.00L306.70 877.52L307.83 881.33L311.05 888.91L315.49 887.28L316.70 878.79L318.87 879.20L325.36 879.62L334.25 876.21L349.56 886.02L358.55 888.27L364.71 891.33L371.64 890.11L374.29 889.39L377.82 888.82L385.49 887.74L388.30 887.34L390.90 886.98L393.46 886.66L396.12 886.12L400.84 885.15L410.59 883.54L414.89 882.96L418.65 882.62L422.83 883.47L426.47 884.20L428.69 884.43L436.35 885.33L442.03 886.00L450.25 886.97L454.02 887.44L459.90 888.29L467.62 889.40L473.53 890.40L476.69 891.21L482.08 892.58L484.42 891.78L487.75 892.32L494.43 893.41L501.74 894.61L512.11 896.30L519.36 897.48L521.99 897.91L525.72 898.01L528.80 898.36L531.77 898.70L536.93 899.28L555.48 902.08L557.90 902.45L566.25 903.80L573.73 904.51L584.30 905.52L597.71 908.16L604.44 909.48L607.87 909.73L613.40 909.26L618.46 907.76L620.50 900.33L621.15 898.00L623.05 894.17L625.69 888.88L626.79 886.66L629.95 880.51L630.98 878.41L632.16 876.01L631.06 864.11L630.51 858.11L630.06 853.21L629.51 847.32L628.80 839.56L628.11 832.07L627.76 828.25L627.39 824.22L626.58 821.12L624.24 812.13L619.33 793.21L611.36 763.00L608.61 752.58L605.36 740.27L602.54 729.73L600.56 722.32L599.90 719.85L599.28 717.53L598.68 715.29L598.56 701.00L598.26 693.29L597.44 672.29L555.36 667.66L523.50 663.74L513.47 663.21L484.36 661.96L445.16 661.01L438.84 660.85L432.20 659.45L426.41 662.77L412.99 656.64Z" data-ward="2" /><path id="ward-7" class="ward" d="M516.33 1152.31L516.06 1149.81L512.36 1135.27L511.38 1131.45L509.51 1129.01L507.95 1126.98L506.46 1125.17L504.06 1126.19L503.34 1132.99L503.94 1135.92L504.49 1138.56L505.44 1141.33L506.27 1143.74L506.92 1147.45L506.59 1154.73L506.53 1156.84L504.29 1156.76L500.88 1156.65L496.49 1156.57L492.98 1156.51L489.01 1156.56L485.69 1156.24L480.82 1155.91L478.25 1155.73L475.23 1155.65L472.61 1155.59L470.31 1155.87L467.94 1156.16L464.16 1155.38L460.74 1154.66L458.04 1154.10L455.54 1153.58L453.46 1152.84L451.22 1153.78L448.57 1154.65L446.46 1154.62L443.58 1154.58L440.18 1154.94L436.82 1155.30L435.28 1157.87L433.13 1161.44L432.38 1165.14L431.88 1167.63L431.23 1169.67L430.15 1172.88L429.29 1175.43L428.89 1178.30L428.61 1180.39L428.23 1183.26L428.27 1186.54L428.33 1191.23L428.48 1193.95L428.60 1196.07L428.78 1198.91L429.32 1200.83L430.17 1205.78L430.67 1209.83L431.00 1212.43L431.22 1216.65L430.65 1220.08L430.71 1224.72L431.47 1227.09L431.63 1229.24L431.79 1231.31L431.94 1233.35L431.45 1236.02L431.47 1240.32L431.58 1242.69L431.75 1245.49L432.59 1248.21L433.05 1250.82L432.99 1254.41L433.17 1256.70L432.85 1260.85L431.62 1266.76L430.93 1269.80L430.52 1273.09L430.12 1276.86L429.94 1280.84L430.24 1283.41L430.54 1286.00L431.05 1290.91L431.23 1293.87L432.00 1297.38L433.10 1302.40L434.37 1307.39L434.25 1309.44L433.62 1313.81L433.02 1316.45L432.20 1320.83L431.62 1324.48L430.85 1328.71L429.62 1332.31L428.80 1334.65L427.62 1337.96L426.11 1340.92L424.68 1344.76L423.41 1348.16L421.37 1353.10L420.59 1355.32L419.92 1357.21L419.12 1359.46L417.84 1361.75L417.22 1363.97L414.94 1372.03L431.81 1390.99L443.20 1403.79L457.12 1419.43L467.27 1417.21L465.48 1406.23L464.16 1404.55L456.16 1384.72L479.85 1368.64L499.35 1332.85L494.15 1324.42L491.64 1322.23L487.92 1317.80L488.76 1315.16L489.52 1312.74L490.99 1310.48L492.34 1308.40L494.17 1305.58L495.40 1303.69L496.52 1301.97L496.40 1298.62L496.30 1295.60L496.22 1293.14L496.13 1290.34L496.04 1287.77L496.37 1285.36L496.66 1283.23L497.24 1278.99L497.58 1276.48L498.07 1272.95L499.21 1264.59L499.50 1262.46L500.49 1259.22L503.22 1250.33L501.66 1247.88L501.19 1240.86L510.89 1229.14L516.17 1230.56L517.62 1226.28L523.98 1207.55L525.33 1178.13L518.90 1176.56L516.33 1152.31Z" data-ward="7" /><path id="ward-4" class="ward" d="M400.21 987.82L395.09 987.37L391.77 986.02L389.42 985.44L386.90 985.80L383.43 985.86L377.71 987.08L375.27 987.60L372.10 987.73L369.41 987.84L366.48 987.96L363.67 988.08L360.90 988.20L358.33 988.30L355.14 988.57L345.94 989.34L343.89 989.26L341.40 989.17L331.59 988.81L327.13 988.46L322.69 988.29L317.34 988.09L319.76 1005.76L319.34 1011.52L319.91 1015.07L318.09 1026.00L315.39 1035.33L314.93 1038.14L314.50 1040.76L313.95 1046.55L314.70 1053.29L315.25 1056.12L316.52 1061.76L318.54 1069.32L320.15 1073.94L322.12 1078.18L327.30 1087.34L328.87 1089.86L334.77 1097.23L336.10 1098.86L337.91 1102.45L338.91 1104.45L340.19 1107.02L348.22 1107.92L352.92 1108.32L360.92 1109.21L374.88 1110.54L383.32 1111.35L388.45 1111.87L399.27 1112.98L411.88 1114.11L417.04 1114.66L427.57 1115.79L437.86 1116.90L440.70 1117.49L448.52 1119.09L455.50 1120.51L459.38 1121.33L469.06 1123.90L483.31 1127.68L488.46 1107.67L490.14 1101.14L490.24 1099.08L490.42 1095.45L490.61 1091.71L490.84 1087.12L488.08 1085.74L485.40 1083.98L484.15 1078.45L480.11 1072.67L474.89 1074.13L473.38 1069.51L473.36 1065.54L468.14 1060.49L464.21 1058.92L460.27 1056.70L456.44 1052.64L457.81 1047.78L459.15 1042.99L458.72 1039.31L455.89 1035.60L452.03 1033.79L450.53 1032.18L449.03 1030.56L446.34 1029.30L443.13 1028.52L438.30 1026.67L435.64 1025.64L432.65 1024.66L430.06 1023.44L427.62 1022.29L425.30 1021.19L423.32 1018.13L421.76 1016.88L419.90 1018.45L417.90 1015.07L417.08 1013.10L415.73 1009.84L413.35 1007.13L411.47 1005.84L407.96 1003.45L406.15 1001.53L404.99 999.69L403.38 997.13L401.67 994.40L401.10 991.03L400.21 987.82Z" data-ward="4" /><path id="ward-3" class="ward" d="M334.25 876.21L325.36 879.62L318.87 879.20L316.70 878.79L315.49 887.28L311.05 888.91L312.39 891.87L317.13 902.38L318.62 905.68L319.15 908.70L320.23 910.77L321.02 915.52L320.75 918.95L320.36 924.02L320.10 929.42L320.11 932.67L320.38 938.04L319.21 940.68L319.12 944.66L316.83 951.21L315.97 953.81L315.57 956.20L315.06 959.67L314.70 962.14L314.38 964.30L316.54 964.96L315.91 967.37L315.76 971.50L315.54 977.80L317.34 988.09L322.69 988.29L327.13 988.46L331.59 988.81L341.40 989.17L343.89 989.26L345.94 989.34L355.14 988.57L358.33 988.30L360.90 988.20L363.67 988.08L366.48 987.96L369.41 987.84L372.10 987.73L375.27 987.60L377.71 987.08L383.43 985.86L386.90 985.80L389.42 985.44L391.77 986.02L395.09 987.37L400.21 987.82L401.10 991.03L401.67 994.40L403.38 997.13L404.99 999.69L406.15 1001.53L407.96 1003.45L411.47 1005.84L413.35 1007.13L415.73 1009.84L417.08 1013.10L417.90 1015.07L419.90 1018.45L421.76 1016.88L423.32 1018.13L425.30 1021.19L427.62 1022.29L430.06 1023.44L432.65 1024.66L435.64 1025.64L438.30 1026.67L443.13 1028.52L446.34 1029.30L449.03 1030.56L450.53 1032.18L452.03 1033.79L455.89 1035.60L458.72 1039.31L459.15 1042.99L470.48 1040.88L472.81 1040.45L476.65 1041.11L482.08 892.58L476.69 891.21L473.53 890.40L467.62 889.40L459.90 888.29L454.02 887.44L450.25 886.97L442.03 886.00L436.35 885.33L428.69 884.43L426.47 884.20L422.83 883.47L418.65 882.62L414.89 882.96L410.59 883.54L400.84 885.15L396.12 886.12L393.46 886.66L390.90 886.98L388.30 887.34L385.49 887.74L377.82 888.82L374.29 889.39L371.64 890.11L364.71 891.33L358.55 888.27L349.56 886.02L334.25 876.21Z" data-ward="3" /><path id="ward-6" class="ward" d="M523.83 1096.91L501.41 1092.38L490.84 1087.12L490.61 1091.71L490.42 1095.45L490.24 1099.08L490.14 1101.14L488.46 1107.67L483.31 1127.68L495.87 1131.01L503.34 1132.99L504.06 1126.19L506.46 1125.17L507.95 1126.98L509.51 1129.01L511.38 1131.45L512.36 1135.27L516.06 1149.81L516.33 1152.31L518.90 1176.56L525.33 1178.13L523.98 1207.55L517.62 1226.28L516.17 1230.56L510.89 1229.14L501.19 1240.86L501.66 1247.88L503.22 1250.33L500.49 1259.22L499.50 1262.46L499.21 1264.59L498.07 1272.95L497.58 1276.48L497.24 1278.99L496.66 1283.23L496.37 1285.36L496.04 1287.77L496.13 1290.34L496.22 1293.14L496.30 1295.60L496.40 1298.62L496.52 1301.97L495.40 1303.69L494.17 1305.58L492.34 1308.40L490.99 1310.48L489.52 1312.74L488.76 1315.16L487.92 1317.80L491.64 1322.23L494.15 1324.42L499.35 1332.85L479.85 1368.64L456.16 1384.72L464.16 1404.55L465.48 1406.23L467.27 1417.21L469.30 1415.94L498.13 1397.97L501.14 1400.57L505.04 1403.94L508.76 1407.15L517.07 1403.71L521.16 1396.68L522.50 1394.37L523.98 1393.01L526.99 1390.11L530.50 1387.62L540.01 1392.09L542.78 1399.65L543.85 1402.59L545.96 1404.66L547.59 1406.25L554.25 1407.44L558.55 1408.21L565.27 1410.24L568.77 1411.35L576.23 1412.98L585.64 1414.57L586.62 1411.15L589.24 1402.02L593.06 1402.82L599.56 1404.18L601.69 1404.80L609.66 1406.34L614.08 1407.14L627.99 1411.35L632.51 1412.92L644.42 1417.03L650.08 1419.08L660.92 1422.90L663.22 1416.73L665.53 1410.55L661.89 1391.61L655.54 1378.67L642.28 1363.95L633.85 1354.59L624.91 1341.08L623.82 1338.11L617.88 1321.30L613.42 1306.93L612.98 1299.32L611.48 1273.34L609.85 1250.90L610.38 1244.42L610.56 1238.61L611.51 1207.01L612.04 1188.02L612.08 1185.18L612.09 1176.45L612.09 1152.79L612.09 1146.10L612.09 1139.99L613.09 1136.07L615.71 1125.80L618.65 1114.27L619.56 1111.00L622.16 1101.71L622.89 1099.14L607.39 1097.04L550.13 1089.29L548.29 1090.63L546.38 1097.57L543.25 1099.34L536.52 1099.47L523.83 1096.91Z" data-ward="6" /><path id="ward-11" class="ward" d="M239.12 1278.11L243.06 1275.14L247.01 1272.49L248.65 1271.23L251.67 1268.91L253.89 1267.14L257.58 1264.19L260.03 1262.23L264.36 1258.08L268.58 1254.03L272.07 1251.42L274.61 1249.82L277.97 1247.71L275.77 1244.62L274.57 1242.93L270.79 1240.87L268.28 1239.50L263.77 1237.11L257.79 1233.94L253.38 1231.70L251.64 1230.09L250.87 1225.43L253.29 1217.27L251.19 1213.80L250.16 1210.99L248.50 1206.41L247.01 1203.33L245.33 1199.89L242.89 1194.86L239.82 1192.54L237.83 1191.05L235.74 1189.48L232.82 1187.47L229.81 1185.42L228.43 1182.58L222.68 1171.44L217.26 1164.81L207.87 1153.32L205.55 1149.27L200.76 1146.03L197.34 1143.71L194.49 1142.20L192.43 1135.05L191.73 1132.61L191.25 1130.55L190.12 1126.13L187.47 1118.07L184.55 1109.12L183.10 1104.73L174.92 1101.18L169.62 1102.67L160.64 1105.19L157.87 1105.97L150.13 1148.68L165.24 1154.72L163.46 1159.11L161.71 1163.42L160.71 1169.98L160.69 1177.45L160.49 1185.08L159.79 1190.82L112.83 1245.44L110.75 1248.24L109.68 1250.08L108.83 1253.39L109.00 1257.03L108.21 1273.43L109.28 1281.29L111.36 1290.05L115.11 1289.95L117.98 1289.70L123.38 1289.23L127.57 1288.87L132.54 1288.44L136.49 1288.09L141.04 1286.78L144.02 1286.02L147.64 1285.09L151.87 1284.01L154.01 1283.32L157.12 1282.31L159.21 1281.60L161.84 1279.66L165.66 1279.53L170.22 1279.39L173.30 1279.29L179.53 1279.96L181.41 1280.85L183.71 1282.10L185.99 1282.82L188.54 1283.62L191.33 1280.23L194.57 1279.55L198.42 1278.75L203.44 1278.27L210.66 1278.25L213.14 1278.71L217.20 1279.47L221.10 1280.19L224.09 1280.97L226.63 1280.89L228.99 1280.07L231.70 1280.71L235.74 1281.80L239.12 1278.11Z" data-ward="11" /><path id="ward-8" class="ward" d="M506.92 1147.45L506.27 1143.74L505.44 1141.33L504.49 1138.56L503.94 1135.92L503.34 1132.99L495.87 1131.01L483.31 1127.68L469.06 1123.90L459.38 1121.33L455.50 1120.51L448.52 1119.09L440.70 1117.49L437.86 1116.90L427.57 1115.79L417.04 1114.66L411.88 1114.11L399.27 1112.98L388.45 1111.87L383.32 1111.35L374.88 1110.54L360.92 1109.21L352.92 1108.32L348.22 1107.92L340.19 1107.02L341.88 1112.78L342.99 1116.61L345.36 1124.75L348.18 1132.86L348.95 1135.09L348.97 1141.79L349.00 1148.79L349.04 1153.32L349.08 1158.61L349.31 1162.81L349.87 1173.61L350.21 1180.66L350.84 1193.89L351.11 1199.51L349.96 1205.77L348.62 1213.15L347.15 1221.17L345.05 1225.52L344.22 1227.44L344.29 1232.40L344.37 1238.35L344.27 1245.58L344.56 1250.39L345.29 1258.20L345.94 1265.07L346.59 1272.00L347.20 1278.47L348.01 1287.05L349.22 1293.82L355.49 1305.82L365.71 1322.09L367.89 1325.56L376.71 1335.29L381.69 1340.78L387.87 1345.73L394.60 1351.13L403.17 1359.67L409.31 1365.87L414.94 1372.03L417.22 1363.97L417.84 1361.75L419.12 1359.46L419.92 1357.21L420.59 1355.32L421.37 1353.10L423.41 1348.16L424.68 1344.76L426.11 1340.92L427.62 1337.96L428.80 1334.65L429.62 1332.31L430.85 1328.71L431.62 1324.48L432.20 1320.83L433.02 1316.45L433.62 1313.81L434.25 1309.44L434.37 1307.39L433.10 1302.40L432.00 1297.38L431.23 1293.87L431.05 1290.91L430.54 1286.00L430.24 1283.41L429.94 1280.84L430.12 1276.86L430.52 1273.09L430.93 1269.80L431.62 1266.76L432.85 1260.85L433.17 1256.70L432.99 1254.41L433.05 1250.82L432.59 1248.21L431.75 1245.49L431.58 1242.69L431.47 1240.32L431.45 1236.02L431.94 1233.35L431.79 1231.31L431.63 1229.24L431.47 1227.09L430.71 1224.72L430.65 1220.08L431.22 1216.65L431.00 1212.43L430.67 1209.83L430.17 1205.78L429.32 1200.83L428.78 1198.91L428.60 1196.07L428.48 1193.95L428.33 1191.23L428.27 1186.54L428.23 1183.26L428.61 1180.39L428.89 1178.30L429.29 1175.43L430.15 1172.88L431.23 1169.67L431.88 1167.63L432.38 1165.14L433.13 1161.44L435.28 1157.87L436.82 1155.30L440.18 1154.94L443.58 1154.58L446.46 1154.62L448.57 1154.65L451.22 1153.78L453.46 1152.84L455.54 1153.58L458.04 1154.10L460.74 1154.66L464.16 1155.38L467.94 1156.16L470.31 1155.87L472.61 1155.59L475.23 1155.65L478.25 1155.73L480.82 1155.91L485.69 1156.24L489.01 1156.56L492.98 1156.51L496.49 1156.57L500.88 1156.65L504.29 1156.76L506.53 1156.84L506.59 1154.73L506.92 1147.45Z" data-ward="8" /><path id="ward-12" class="ward" d="M177.14 1061.87L172.39 1055.18L164.25 1056.11L159.69 1056.61L155.41 1057.09L149.44 1058.49L144.40 1059.34L133.94 1061.15L129.37 1061.94L122.10 1063.03L116.65 1064.49L112.40 1064.22L109.62 1064.42L100.96 1065.04L94.04 1065.89L88.77 1066.54L84.35 1067.80L76.11 1068.89L63.67 1067.87L48.72 1066.27L39.01 1065.47L34.96 1064.72L33.76 1065.55L32.11 1075.37L31.21 1087.87L30.86 1093.84L30.23 1099.86L29.20 1111.21L28.10 1123.23L27.05 1131.59L27.26 1134.23L27.18 1140.42L28.28 1155.05L29.11 1166.12L29.63 1169.57L30.51 1175.16L32.83 1186.49L34.30 1193.67L35.93 1201.61L36.57 1206.48L38.15 1218.45L39.99 1232.36L41.58 1244.35L41.94 1247.05L42.34 1249.99L41.32 1252.63L38.35 1260.28L37.07 1263.57L33.30 1268.65L28.68 1274.86L23.02 1280.14L14.17 1288.41L12.58 1289.89L12.09 1291.62L10.40 1291.93L0.00 1318.44L0.68 1329.39L2.50 1345.83L1.96 1347.93L4.73 1368.90L5.37 1373.73L8.17 1374.49L8.91 1377.22L9.64 1379.87L10.58 1383.29L11.27 1385.80L11.35 1388.38L11.46 1391.69L11.59 1395.87L11.66 1398.15L11.74 1400.88L11.92 1406.80L12.09 1412.19L12.17 1414.79L12.20 1417.64L12.23 1420.65L12.26 1422.84L12.28 1424.98L12.35 1431.74L14.39 1431.89L28.95 1432.92L30.29 1429.33L30.94 1426.61L32.36 1424.61L33.99 1421.51L36.52 1418.88L36.75 1416.62L40.33 1412.14L40.94 1409.64L41.53 1407.18L50.22 1402.68L61.67 1396.75L73.38 1402.13L98.32 1413.57L99.35 1414.42L99.34 1417.31L100.51 1420.72L103.07 1427.49L105.70 1426.38L105.11 1418.88L104.95 1416.85L103.96 1414.37L104.30 1412.08L107.98 1348.22L108.80 1336.11L109.58 1318.08L109.92 1301.19L111.36 1290.05L109.28 1281.29L108.21 1273.43L109.00 1257.03L108.83 1253.39L109.68 1250.08L110.75 1248.24L112.83 1245.44L159.79 1190.82L160.49 1185.08L160.69 1177.45L160.71 1169.98L161.71 1163.42L163.46 1159.11L165.24 1154.72L150.13 1148.68L157.87 1105.97L160.64 1105.19L169.62 1102.67L174.92 1101.18L183.10 1104.73L184.23 1095.82L185.56 1085.27L186.50 1077.75L186.79 1075.47L177.14 1061.87Z" data-ward="12" /><path id="ward-10" class="ward" d="M297.21 1280.56L295.39 1276.87L294.62 1274.44L293.48 1270.62L292.44 1267.13L290.20 1263.84L288.66 1261.57L285.84 1257.42L284.09 1254.85L280.98 1250.26L277.97 1247.71L274.61 1249.82L272.07 1251.42L268.58 1254.03L264.36 1258.08L260.03 1262.23L257.58 1264.19L253.89 1267.14L251.67 1268.91L248.65 1271.23L247.01 1272.49L243.06 1275.14L239.12 1278.11L235.74 1281.80L231.70 1280.71L228.99 1280.07L226.63 1280.89L224.09 1280.97L221.10 1280.19L217.20 1279.47L213.14 1278.71L210.66 1278.25L203.44 1278.27L198.42 1278.75L194.57 1279.55L191.33 1280.23L188.54 1283.62L185.99 1282.82L183.71 1282.10L181.41 1280.85L179.53 1279.96L173.30 1279.29L170.22 1279.39L165.66 1279.53L161.84 1279.66L159.21 1281.60L157.12 1282.31L154.01 1283.32L151.87 1284.01L147.64 1285.09L144.02 1286.02L141.04 1286.78L136.49 1288.09L132.54 1288.44L127.57 1288.87L123.38 1289.23L117.98 1289.70L115.11 1289.95L111.36 1290.05L109.92 1301.19L109.58 1318.08L108.80 1336.11L107.98 1348.22L104.30 1412.08L103.96 1414.37L104.95 1416.85L105.11 1418.88L126.73 1429.28L157.13 1443.89L189.70 1459.54L213.32 1470.90L216.01 1472.16L220.97 1474.69L228.59 1475.54L228.19 1473.34L227.46 1469.34L227.35 1465.80L227.23 1462.03L227.12 1458.45L227.19 1453.67L227.22 1451.24L227.25 1448.73L227.31 1444.83L227.34 1442.48L228.10 1437.10L228.39 1435.05L228.99 1430.85L229.38 1428.09L229.80 1425.17L230.10 1423.00L229.41 1419.49L228.97 1417.20L228.54 1415.03L228.03 1412.44L227.58 1410.15L226.71 1405.71L230.86 1405.59L237.48 1405.41L242.80 1405.26L246.02 1405.17L246.85 1402.52L247.88 1399.19L249.15 1395.08L252.61 1395.45L256.61 1395.88L259.51 1396.19L262.54 1396.64L266.41 1397.21L270.71 1398.39L275.88 1399.96L281.05 1401.54L283.61 1402.80L287.10 1404.53L290.14 1406.03L293.21 1407.55L296.51 1409.18L302.90 1412.08L303.91 1415.44L308.69 1417.11L310.65 1417.79L321.80 1421.35L324.44 1422.20L326.01 1418.13L330.17 1418.87L335.39 1405.10L333.46 1403.80L323.76 1402.89L322.53 1408.59L316.51 1407.71L309.44 1406.68L310.30 1399.42L310.83 1394.94L308.33 1392.22L311.03 1390.59L318.38 1386.36L326.78 1381.51L327.38 1379.24L329.68 1381.46L338.36 1377.45L348.74 1370.61L359.60 1363.46L361.48 1361.33L363.76 1358.74L363.95 1356.76L381.69 1340.78L376.71 1335.29L367.89 1325.56L365.71 1322.09L355.49 1305.82L349.22 1293.82L348.01 1287.05L332.71 1287.18L322.53 1287.27L318.62 1286.33L314.04 1286.25L308.91 1286.16L306.20 1286.12L303.16 1285.32L300.77 1282.13L297.21 1280.56Z" data-ward="10" /></svg>