<svg viewBox="0 0 1000.00 864.80" xmlns="http://www.w3.org/2000/svg"><style>.ward { fill: #e2e8f0; stroke: #fff; stroke-width: 0.5px; } .ward:hover { fill: #cbd5e1; }</style><path id="ward-11" class="ward" d="M198.54 491.13L197.65 485.82L195.19 479.25L194.26 472.82L188.92 473.50L183.37 474.20L175.28 475.23L168.69 476.07L161.68 479.75L155.92 482.79L148.11 486.91L138.87 489.69L133.32 491.37L128.66 492.77L120.70 496.05L114.84 498.47L103.36 503.20L98.70 505.12L89.20 500.28L84.03 497.64L77.01 494.96L71.95 493.03L64.10 490.04L60.98 494.32L63.16 508.23L64.18 514.74L68.28 522.63L71.69 529.20L74.89 539.90L77.66 549.15L72.72 553.87L67.96 558.43L63.10 549.90L53.51 533.06L43.80 534.13L34.33 535.17L24.72 534.66L15.26 534.15L15.97 541.07L16.60 547.11L25.40 552.04L30.92 555.13L36.23 558.11L40.03 563.21L43.37 567.68L46.33 571.65L51.02 573.65L58.85 576.98L63.26 580.90L64.75 586.39L57.69 587.83L54.84 593.07L57.17 598.25L66.82 600.43L66.57 608.29L66.26 618.02L69.39 624.33L71.73 629.04L74.50 634.63L76.29 642.49L78.03 649.64L80.47 659.66L82.90 669.67L87.49 680.87L90.21 686.91L92.26 700.96L93.49 708.11L94.43 717.11L95.06 723.20L95.58 728.22L95.89 735.27L96.18 742.21L97.24 750.43L98.42 759.62L100.31 764.70L102.19 769.74L106.03 772.76L110.23 776.05L116.54 782.89L120.23 792.50L123.56 801.20L124.39 806.32L125.15 811.06L126.08 816.88L126.95 822.32L132.79 824.01L139.62 825.99L140.74 831.14L142.15 837.64L143.48 843.77L144.54 848.67L146.41 857.29L147.47 862.16L154.64 864.80L161.84 863.20L170.11 860.38L180.25 856.93L191.89 853.57L198.78 851.59L207.15 850.95L217.20 850.19L222.97 848.55L228.47 848.84L239.79 845.17L245.83 844.48L243.36 834.09L240.65 822.72L237.99 811.53L234.72 801.00L229.35 787.77L226.59 780.65L224.21 773.70L222.49 764.74L220.31 757.14L217.56 748.82L214.81 740.84L213.03 735.27L211.94 730.57L211.25 725.17L222.16 722.08L222.41 716.84L222.81 708.43L223.19 703.08L222.42 695.42L221.29 690.17L222.45 683.69L228.54 682.64L236.12 679.72L243.23 677.33L245.93 671.85L243.32 657.61L241.32 646.48L240.04 637.63L235.26 626.57L233.49 621.41L226.13 618.76L219.81 608.71L216.51 602.04L213.97 596.47L211.13 590.52L207.59 581.08L207.48 576.05L208.00 568.72L207.94 559.95L208.18 551.87L206.38 543.34L205.22 537.20L203.38 527.20L201.42 518.66L200.61 507.91L198.54 491.13Z" data-ward="11" /><path id="ward-3" class="ward" d="M661.00 6.75L650.99 3.93L636.82 2.04L625.34 0.51L620.46 0.00L604.33 2.00L594.19 3.26L572.74 6.25L564.11 7.43L557.02 7.53L546.62 7.26L547.95 17.75L550.10 34.75L551.93 41.15L554.57 50.39L555.58 56.64L556.59 62.86L557.87 72.85L560.01 82.18L561.28 90.91L563.13 103.72L566.49 114.83L572.64 126.96L575.40 136.16L578.74 144.17L581.74 153.89L588.96 152.40L601.04 149.93L612.75 148.56L622.12 150.27L624.50 163.64L626.23 172.24L627.60 177.34L628.99 185.31L630.11 195.81L630.76 201.86L631.73 215.31L632.55 221.78L633.82 228.68L634.80 234.37L625.96 237.85L620.79 237.95L611.17 235.21L602.75 234.63L597.60 236.26L592.04 241.89L593.95 250.51L598.00 257.17L600.57 266.12L608.05 264.14L619.11 266.27L629.44 269.13L634.43 269.06L643.41 267.32L648.16 267.30L652.92 267.28L662.97 267.50L670.17 267.33L677.35 267.16L688.05 266.49L696.75 264.08L702.69 262.30L708.84 260.45L712.44 255.08L716.53 247.99L717.15 240.56L718.70 234.04L725.41 233.17L729.41 218.24L725.91 207.93L723.47 199.09L722.16 194.35L720.96 184.75L725.81 178.44L725.90 168.51L724.14 160.56L721.54 148.84L722.58 141.59L725.15 134.32L723.68 119.09L723.68 111.18L730.37 56.90L720.78 54.54L713.18 52.67L710.67 47.34L708.15 42.02L707.24 37.03L707.29 31.47L707.34 26.15L707.39 21.09L699.99 18.74L688.30 15.04L678.69 12.12L670.38 9.60L661.00 6.75Z" data-ward="3" /><path id="ward-4" class="ward" d="M912.35 265.25L910.04 258.47L906.19 247.21L903.33 238.74L899.28 227.60L896.10 218.88L892.09 208.99L888.39 200.03L884.67 191.00L879.71 179.21L875.57 169.51L864.92 144.52L859.09 129.73L857.28 124.52L851.52 107.91L841.59 79.27L826.89 75.84L815.46 73.18L801.31 69.89L786.84 66.53L761.20 60.58L746.87 58.48L730.37 56.90L723.68 111.18L723.68 119.09L725.15 134.32L722.58 141.59L721.54 148.84L724.14 160.56L725.90 168.51L725.81 178.44L720.96 184.75L722.16 194.35L723.47 199.09L725.91 207.93L729.41 218.24L725.41 233.17L718.70 234.04L717.15 240.56L716.53 247.99L712.44 255.08L708.84 260.45L702.69 262.30L696.75 264.08L688.05 266.49L677.35 267.16L670.17 267.33L662.97 267.50L652.92 267.28L648.16 267.30L643.41 267.32L634.43 269.06L629.44 269.13L619.11 266.27L608.05 264.14L600.57 266.12L602.21 271.34L605.98 276.83L614.05 285.87L617.88 290.49L624.95 292.36L630.86 293.80L637.41 295.77L643.74 298.25L651.01 299.33L657.55 300.74L661.15 305.52L662.57 312.43L662.72 323.13L662.45 328.85L662.46 335.07L663.31 342.75L668.57 342.38L674.91 344.11L681.18 343.92L687.06 343.14L696.10 342.42L701.63 342.49L709.52 339.77L708.14 334.40L708.38 328.87L714.87 328.14L721.13 327.84L720.41 338.14L719.10 346.73L718.42 354.38L723.17 360.29L724.98 365.84L726.26 375.33L733.60 373.72L738.74 372.11L745.63 380.23L764.92 376.48L770.92 378.79L772.91 383.23L779.67 384.53L788.92 383.03L803.08 381.01L808.06 380.30L814.37 379.40L821.69 378.36L827.34 378.17L845.09 376.88L863.17 372.07L868.28 370.93L874.06 369.82L892.95 367.53L899.22 366.57L905.37 365.44L917.79 362.73L928.42 360.49L935.37 358.88L941.59 352.40L939.05 345.25L936.55 338.75L934.48 333.37L931.70 324.60L929.26 317.62L926.07 308.46L924.47 303.92L922.81 298.43L919.41 287.37L916.23 277.38L913.85 270.22L912.35 265.25Z" data-ward="4" /><path id="ward-1" class="ward" d="M487.94 40.47L493.86 38.37L495.77 33.27L495.82 28.20L495.92 16.24L492.46 5.10L485.75 8.29L475.76 13.03L470.92 15.75L465.31 18.90L458.10 22.96L451.38 26.73L444.51 28.19L439.48 29.25L433.39 30.54L424.72 32.38L416.32 34.16L408.96 35.72L398.83 36.95L389.72 38.00L380.61 39.05L373.98 39.85L367.35 40.65L358.77 40.74L352.94 40.81L344.42 41.21L333.02 41.75L327.13 41.21L318.92 40.45L310.07 39.64L301.69 41.85L293.45 44.03L282.63 46.08L273.97 47.73L262.90 48.90L252.11 50.02L245.09 50.99L238.86 51.83L232.50 52.69L226.33 53.64L216.72 55.11L204.87 56.55L190.78 57.89L191.77 70.08L191.62 80.70L192.74 94.80L192.84 107.54L193.09 139.53L193.16 148.97L193.27 162.68L193.38 176.79L193.49 189.73L193.53 194.86L193.59 202.82L189.41 219.46L184.15 240.36L181.37 246.09L173.60 262.14L167.75 274.23L160.28 283.27L152.72 285.44L157.34 285.82L161.95 286.20L176.93 282.04L188.84 278.73L197.14 276.43L206.47 273.84L218.79 270.41L231.25 266.95L239.44 264.68L240.64 254.04L241.50 246.47L242.56 237.01L243.76 223.62L244.66 213.52L245.59 199.85L252.84 198.58L281.27 193.63L298.59 190.61L303.74 189.72L309.35 191.82L313.11 206.17L314.24 216.76L318.92 232.11L321.18 239.51L324.19 246.87L330.25 251.85L338.30 255.24L342.07 267.38L343.90 278.31L347.83 287.64L350.81 294.73L352.66 299.12L357.59 302.66L376.48 304.03L398.46 305.63L407.67 307.55L415.72 304.63L425.69 301.43L437.81 294.96L437.18 286.42L436.77 280.87L435.49 269.46L434.03 254.76L433.40 250.03L432.30 238.38L429.38 231.08L428.14 223.93L423.41 211.26L426.71 207.65L425.70 202.78L424.69 190.62L423.99 182.28L421.95 176.33L420.71 164.99L421.18 156.91L421.60 151.87L421.94 146.95L430.68 139.94L438.43 135.09L442.17 127.76L441.90 120.92L440.37 112.47L438.96 107.24L430.88 102.57L423.31 100.77L418.14 99.54L410.88 97.76L409.35 89.67L408.22 83.70L412.58 79.68L418.31 79.19L427.56 78.40L436.97 77.04L441.67 75.67L446.86 74.63L457.17 72.20L462.13 72.05L468.70 71.86L477.20 67.74L476.94 62.47L480.29 52.09L485.33 51.85L488.21 47.58L487.94 40.47Z" data-ward="1" /><path id="ward-7" class="ward" d="M587.76 393.54L580.33 391.82L568.91 394.05L554.68 394.46L547.04 394.34L535.95 396.23L528.34 399.94L522.18 402.94L521.28 408.92L517.67 414.29L509.90 418.01L501.75 419.76L494.45 419.80L478.54 419.72L471.60 419.47L466.23 422.17L468.38 429.24L475.60 452.37L481.07 470.76L483.65 479.49L485.39 486.70L487.04 492.30L489.14 501.41L491.67 509.07L494.90 514.88L498.48 523.59L503.77 521.48L510.21 519.87L517.02 518.87L524.96 517.44L534.72 516.62L540.78 514.78L544.86 511.77L551.60 513.54L556.55 514.95L565.62 514.00L567.79 508.27L574.20 505.36L579.53 504.14L586.93 504.06L594.45 505.32L595.57 510.23L596.16 515.48L596.93 527.72L598.82 534.81L606.75 535.10L614.48 539.10L616.18 546.68L617.93 554.42L619.58 562.25L630.00 566.97L640.13 565.55L650.36 565.00L657.52 564.82L668.98 564.52L675.83 564.42L682.54 563.15L687.24 562.05L694.08 559.38L703.03 554.84L708.01 552.83L713.75 550.51L718.90 548.74L724.70 547.09L733.67 544.75L740.78 542.59L742.11 536.75L741.03 531.45L741.63 526.20L761.08 523.50L760.69 499.55L760.42 482.94L760.64 475.40L780.58 463.31L780.65 454.41L778.73 437.92L775.75 406.57L768.30 406.66L753.72 408.18L746.19 409.56L739.92 413.68L736.90 417.35L729.99 420.88L723.90 421.57L710.14 423.38L703.39 429.99L687.98 435.38L681.63 441.51L665.13 443.41L659.31 444.32L649.57 441.26L642.08 441.92L635.35 442.34L628.71 442.19L621.01 439.10L615.33 439.54L609.60 440.95L604.07 442.37L598.89 442.75L595.98 426.11L597.14 415.13L597.89 405.25L593.50 399.08L587.76 393.54Z" data-ward="7" /><path id="ward-9" class="ward" d="M595.57 510.23L594.45 505.32L586.93 504.06L579.53 504.14L574.20 505.36L567.79 508.27L565.62 514.00L556.55 514.95L551.60 513.54L544.86 511.77L540.78 514.78L534.72 516.62L524.96 517.44L517.02 518.87L510.21 519.87L503.77 521.48L498.48 523.59L500.40 529.62L502.51 535.51L504.47 541.71L506.81 548.26L509.94 556.88L511.81 565.21L513.05 572.97L511.72 581.97L503.98 582.67L498.68 583.25L493.37 583.49L487.36 583.73L482.13 584.07L474.74 583.72L466.23 583.63L457.56 587.65L450.70 591.05L443.34 592.92L439.84 596.23L435.78 600.62L430.45 602.10L423.92 603.48L417.18 605.85L411.21 608.14L408.02 615.24L404.52 620.29L404.49 625.56L392.49 631.45L393.79 637.32L395.62 646.58L401.89 651.52L407.01 652.95L412.35 653.52L425.58 659.03L427.24 666.46L429.54 676.63L433.07 690.86L447.78 689.60L455.82 690.39L461.62 690.25L469.37 689.75L471.25 695.00L472.88 704.94L474.45 710.30L475.88 717.32L470.40 721.59L460.98 721.34L449.56 722.56L441.00 723.52L430.19 726.62L422.19 729.15L415.40 731.29L399.60 731.83L390.64 733.99L389.81 741.62L391.26 748.05L394.00 758.64L396.07 763.73L408.77 768.36L416.10 768.05L423.14 766.45L431.05 764.14L439.72 760.58L448.82 755.52L458.82 750.58L467.99 745.27L476.99 740.86L485.38 738.20L493.92 735.03L501.89 732.90L511.17 730.04L521.14 727.37L530.55 725.01L537.15 722.20L546.48 719.17L558.24 717.44L568.90 715.09L584.31 711.32L591.86 709.37L598.01 707.78L611.14 706.65L621.41 705.76L629.23 707.65L643.11 706.89L636.36 700.55L634.52 694.83L632.07 685.72L629.72 677.01L627.47 669.80L624.55 662.88L622.17 656.39L618.21 653.12L613.61 647.78L609.72 639.35L607.54 629.47L604.64 618.56L601.12 612.00L597.69 605.96L590.79 596.22L590.36 587.01L589.93 577.76L597.76 574.88L608.92 572.10L630.00 566.97L619.58 562.25L617.93 554.42L616.18 546.68L614.48 539.10L606.75 535.10L598.82 534.81L596.93 527.72L596.16 515.48L595.57 510.23Z" data-ward="9" /><path id="ward-5" class="ward" d="M531.86 239.77L524.75 239.03L514.63 238.71L505.78 237.82L497.41 235.46L490.98 232.12L483.43 233.52L476.56 234.44L461.89 236.30L455.15 236.64L432.30 238.38L433.40 250.03L434.03 254.76L435.49 269.46L436.77 280.87L437.18 286.42L437.81 294.96L440.05 314.18L442.61 328.82L448.95 351.95L451.22 360.24L453.29 368.39L457.18 382.46L460.57 397.04L461.89 403.03L464.30 413.80L466.23 422.17L471.60 419.47L478.54 419.72L494.45 419.80L501.75 419.76L509.90 418.01L517.67 414.29L521.28 408.92L522.18 402.94L528.34 399.94L535.95 396.23L547.04 394.34L554.68 394.46L568.91 394.05L580.33 391.82L587.76 393.54L593.50 399.08L597.89 405.25L605.37 406.65L615.17 407.04L630.31 402.48L635.57 401.55L651.19 398.94L656.72 399.41L662.78 398.92L674.55 397.96L683.93 395.77L689.39 394.38L694.34 391.83L699.29 389.29L704.92 386.39L710.41 380.87L719.82 377.58L726.26 375.33L724.98 365.84L723.17 360.29L718.42 354.38L719.10 346.73L720.41 338.14L721.13 327.84L714.87 328.14L708.38 328.87L708.14 334.40L709.52 339.77L701.63 342.49L696.10 342.42L687.06 343.14L681.18 343.92L674.91 344.11L668.57 342.38L663.31 342.75L662.46 335.07L662.45 328.85L662.72 323.13L662.57 312.43L661.15 305.52L657.55 300.74L651.01 299.33L643.74 298.25L637.41 295.77L630.86 293.80L624.95 292.36L617.88 290.49L614.05 285.87L605.98 276.83L602.21 271.34L600.57 266.12L598.00 257.17L593.95 250.51L592.04 241.89L582.70 239.56L574.32 240.90L565.96 241.82L544.74 243.44L535.52 244.12L531.86 239.77Z" data-ward="5" /><path id="ward-8" class="ward" d="M750.91 633.09L750.35 625.53L750.45 620.15L750.54 613.43L750.78 605.98L751.66 598.98L752.54 591.98L755.33 585.00L766.10 582.82L772.00 581.15L771.08 576.10L769.10 566.45L768.08 561.48L766.85 555.49L762.64 535.13L761.64 528.49L761.08 523.50L741.63 526.20L741.03 531.45L742.11 536.75L740.78 542.59L733.67 544.75L724.70 547.09L718.90 548.74L713.75 550.51L708.01 552.83L703.03 554.84L694.08 559.38L687.24 562.05L682.54 563.15L675.83 564.42L668.98 564.52L657.52 564.82L650.36 565.00L640.13 565.55L630.00 566.97L608.92 572.10L597.76 574.88L589.93 577.76L590.36 587.01L590.79 596.22L597.69 605.96L601.12 612.00L604.64 618.56L607.54 629.47L609.72 639.35L613.61 647.78L618.21 653.12L622.17 656.39L624.55 662.88L627.47 669.80L629.72 677.01L632.07 685.72L634.52 694.83L636.36 700.55L643.11 706.89L629.23 707.65L621.41 705.76L611.14 706.65L598.01 707.78L591.86 709.37L584.31 711.32L568.90 715.09L558.24 717.44L559.90 725.90L563.01 735.36L567.36 748.05L569.52 754.48L572.98 764.27L576.31 773.71L579.49 784.82L585.49 784.15L591.71 783.45L598.25 782.72L609.02 781.52L619.98 778.90L626.72 777.29L632.31 775.96L641.33 773.80L648.08 773.26L655.79 772.65L665.14 771.58L674.46 770.52L687.98 766.84L698.13 764.75L706.99 762.92L713.83 761.51L721.95 760.49L731.55 758.10L737.86 756.52L745.96 754.96L755.81 753.07L761.24 752.03L766.83 750.53L772.04 749.13L778.31 746.62L776.81 739.35L775.18 731.91L773.39 724.13L776.48 719.10L768.53 698.42L765.30 690.05L768.79 685.45L775.70 681.81L780.46 676.70L777.65 665.57L776.62 660.92L772.32 651.82L769.54 645.22L762.04 634.48L756.44 635.51L750.91 633.09Z" data-ward="8" /><path id="ward-10" class="ward" d="M375.00 650.29L369.72 645.14L362.64 646.16L357.49 646.87L347.26 648.00L335.39 648.47L326.58 649.59L315.56 650.99L307.58 651.32L299.59 651.72L290.57 654.88L282.24 662.50L277.40 664.34L270.28 667.00L255.72 671.38L245.93 671.85L243.23 677.33L236.12 679.72L228.54 682.64L222.45 683.69L221.29 690.17L222.42 695.42L223.19 703.08L222.81 708.43L222.41 716.84L222.16 722.08L211.25 725.17L211.94 730.57L213.03 735.27L214.81 740.84L217.56 748.82L220.31 757.14L222.49 764.74L224.21 773.70L226.59 780.65L229.35 787.77L234.72 801.00L237.99 811.53L240.65 822.72L243.36 834.09L245.83 844.48L255.89 843.53L261.77 842.71L270.11 841.55L275.53 840.79L284.82 839.57L294.01 837.47L298.64 836.41L307.33 834.39L311.94 833.32L323.33 830.68L330.26 828.40L337.19 826.97L346.35 825.07L351.39 824.52L356.47 823.97L365.37 823.01L376.41 820.98L384.47 819.67L391.07 818.28L399.38 816.53L406.09 815.12L412.64 814.69L424.12 813.95L432.65 813.23L442.64 812.39L453.47 810.89L462.85 809.63L470.97 808.54L480.36 806.90L501.10 803.29L506.60 802.49L522.29 800.22L529.07 798.86L535.84 797.49L547.32 794.16L561.58 790.02L567.81 788.21L573.35 786.60L579.49 784.82L576.31 773.71L572.98 764.27L569.52 754.48L567.36 748.05L563.01 735.36L559.90 725.90L558.24 717.44L546.48 719.17L537.15 722.20L530.55 725.01L521.14 727.37L511.17 730.04L501.89 732.90L493.92 735.03L485.38 738.20L476.99 740.86L467.99 745.27L458.82 750.58L448.82 755.52L439.72 760.58L431.05 764.14L423.14 766.45L416.10 768.05L408.77 768.36L396.07 763.73L394.00 758.64L391.26 748.05L389.81 741.62L390.64 733.99L399.60 731.83L415.40 731.29L422.19 729.15L430.19 726.62L441.00 723.52L449.56 722.56L460.98 721.34L470.40 721.59L475.88 717.32L474.45 710.30L472.88 704.94L471.25 695.00L469.37 689.75L461.62 690.25L455.82 690.39L447.78 689.60L433.07 690.86L429.54 676.63L427.24 666.46L425.58 659.03L412.35 653.52L407.01 652.95L401.89 651.52L395.62 646.58L387.97 648.69L380.52 650.62L375.00 650.29Z" data-ward="10" /><path id="ward-14" class="ward" d="M343.90 278.31L342.07 267.38L338.30 255.24L330.25 251.85L324.19 246.87L321.18 239.51L318.92 232.11L314.24 216.76L313.11 206.17L309.35 191.82L303.74 189.72L298.59 190.61L281.27 193.63L252.84 198.58L245.59 199.85L244.66 213.52L243.76 223.62L242.56 237.01L241.50 246.47L240.64 254.04L239.44 264.68L231.25 266.95L218.79 270.41L206.47 273.84L197.14 276.43L188.84 278.73L176.93 282.04L161.95 286.20L152.72 285.44L146.80 284.95L143.28 289.80L137.54 297.73L131.96 305.44L126.11 313.51L119.92 322.04L115.74 326.54L112.22 332.28L106.36 339.82L98.51 349.91L89.37 361.66L82.32 371.75L71.67 386.89L59.20 405.25L37.39 433.35L29.08 444.06L25.49 448.53L20.76 455.45L10.60 466.31L7.49 474.94L0.00 480.92L1.07 485.86L5.83 507.74L5.56 513.10L5.04 523.16L10.57 529.10L15.26 534.15L24.72 534.66L34.33 535.17L43.80 534.13L53.51 533.06L63.10 549.90L67.96 558.43L72.72 553.87L77.66 549.15L74.89 539.90L71.69 529.20L68.28 522.63L64.18 514.74L63.16 508.23L60.98 494.32L64.10 490.04L71.95 493.03L77.01 494.96L84.03 497.64L89.20 500.28L98.70 505.12L103.36 503.20L114.84 498.47L120.70 496.05L128.66 492.77L133.32 491.37L138.87 489.69L148.11 486.91L155.92 482.79L161.68 479.75L168.69 476.07L175.28 475.23L183.37 474.20L188.92 473.50L194.26 472.82L199.10 472.16L203.94 471.50L209.30 470.76L215.98 469.85L223.53 469.38L229.53 469.01L240.24 468.35L247.57 466.86L246.98 440.48L246.92 422.91L247.27 413.84L249.34 398.82L253.80 384.82L257.70 379.97L272.06 379.91L294.43 377.14L309.59 373.72L320.95 370.16L334.60 368.59L348.39 368.65L356.53 371.58L361.52 374.90L377.73 372.99L373.70 362.50L371.31 354.21L369.35 347.44L366.18 338.69L362.37 330.18L360.12 323.34L357.61 315.70L355.24 308.50L357.59 302.66L352.66 299.12L350.81 294.73L347.83 287.64L343.90 278.31Z" data-ward="14" /><path id="ward-6" class="ward" d="M951.95 382.64L948.85 372.78L946.98 366.80L941.59 352.40L935.37 358.88L928.42 360.49L917.79 362.73L905.37 365.44L899.22 366.57L892.95 367.53L874.06 369.82L868.28 370.93L863.17 372.07L845.09 376.88L827.34 378.17L821.69 378.36L814.37 379.40L808.06 380.30L803.08 381.01L788.92 383.03L779.67 384.53L772.91 383.23L770.92 378.79L764.92 376.48L745.63 380.23L738.74 372.11L733.60 373.72L726.26 375.33L719.82 377.58L710.41 380.87L704.92 386.39L699.29 389.29L694.34 391.83L689.39 394.38L683.93 395.77L674.55 397.96L662.78 398.92L656.72 399.41L651.19 398.94L635.57 401.55L630.31 402.48L615.17 407.04L605.37 406.65L597.89 405.25L597.14 415.13L595.98 426.11L598.89 442.75L604.07 442.37L609.60 440.95L615.33 439.54L621.01 439.10L628.71 442.19L635.35 442.34L642.08 441.92L649.57 441.26L659.31 444.32L665.13 443.41L681.63 441.51L687.98 435.38L703.39 429.99L710.14 423.38L723.90 421.57L729.99 420.88L736.90 417.35L739.92 413.68L746.19 409.56L753.72 408.18L768.30 406.66L775.75 406.57L778.73 437.92L780.65 454.41L780.58 463.31L760.64 475.40L760.42 482.94L760.69 499.55L761.08 523.50L761.64 528.49L762.64 535.13L766.85 555.49L768.08 561.48L769.10 566.45L771.08 576.10L772.00 581.15L766.10 582.82L755.33 585.00L752.54 591.98L751.66 598.98L750.78 605.98L750.54 613.43L750.45 620.15L750.35 625.53L750.91 633.09L756.44 635.51L762.04 634.48L769.54 645.22L772.32 651.82L776.62 660.92L777.65 665.57L780.46 676.70L775.70 681.81L768.79 685.45L765.30 690.05L768.53 698.42L776.48 719.10L773.39 724.13L775.18 731.91L776.81 739.35L778.31 746.62L783.70 745.46L789.64 744.19L800.50 742.63L805.36 743.51L817.80 739.35L823.26 737.16L824.88 728.22L831.96 721.22L832.17 715.33L832.89 709.37L833.57 703.78L834.44 696.67L837.40 691.51L839.99 686.98L846.03 685.04L849.38 680.95L849.65 673.55L849.83 668.65L850.08 661.91L850.30 655.73L850.50 650.46L850.69 645.30L852.98 640.30L873.28 625.30L881.91 618.93L888.82 610.34L892.76 605.60L898.74 598.39L894.09 578.70L891.37 567.18L896.50 565.34L908.12 561.75L915.80 559.39L925.51 556.39L943.57 550.82L950.17 548.87L968.92 543.20L980.12 539.81L992.42 535.92L1000.00 533.52L997.85 527.67L994.89 518.84L990.61 506.04L984.39 486.17L982.12 478.93L978.52 467.42L969.15 437.50L963.35 418.97L961.05 411.65L959.21 405.80L956.38 396.78L954.69 391.38L951.95 382.64Z" data-ward="6" /><path id="ward-2" class="ward" d="M578.74 144.17L575.40 136.16L572.64 126.96L566.49 114.83L563.13 103.72L561.28 90.91L560.01 82.18L557.87 72.85L556.59 62.86L555.58 56.64L554.57 50.39L551.93 41.15L550.10 34.75L547.95 17.75L546.62 7.26L539.14 7.07L520.40 6.13L505.96 5.41L492.46 5.10L495.92 16.24L495.82 28.20L495.77 33.27L493.86 38.37L487.94 40.47L488.21 47.58L485.33 51.85L480.29 52.09L476.94 62.47L477.20 67.74L468.70 71.86L462.13 72.05L457.17 72.20L446.86 74.63L441.67 75.67L436.97 77.04L427.56 78.40L418.31 79.19L412.58 79.68L408.22 83.70L409.35 89.67L410.88 97.76L418.14 99.54L423.31 100.77L430.88 102.57L438.96 107.24L440.37 112.47L441.90 120.92L442.17 127.76L438.43 135.09L430.68 139.94L421.94 146.95L421.60 151.87L421.18 156.91L420.71 164.99L421.95 176.33L423.99 182.28L424.69 190.62L425.70 202.78L426.71 207.65L423.41 211.26L428.14 223.93L429.38 231.08L432.30 238.38L455.15 236.64L461.89 236.30L476.56 234.44L483.43 233.52L490.98 232.12L497.41 235.46L505.78 237.82L514.63 238.71L524.75 239.03L531.86 239.77L535.52 244.12L544.74 243.44L565.96 241.82L574.32 240.90L582.70 239.56L592.04 241.89L597.60 236.26L602.75 234.63L611.17 235.21L620.79 237.95L625.96 237.85L634.80 234.37L633.82 228.68L632.55 221.78L631.73 215.31L630.76 201.86L630.11 195.81L628.99 185.31L627.60 177.34L626.23 172.24L624.50 163.64L622.12 150.27L612.75 148.56L601.04 149.93L588.96 152.40L581.74 153.89L578.74 144.17Z" data-ward="2" /><path id="ward-12" class="ward" d="M295.86 516.00L293.22 506.45L291.92 499.81L290.11 489.00L288.48 482.47L284.51 474.55L278.19 462.71L273.16 460.75L260.95 464.90L255.76 466.55L247.57 466.86L240.24 468.35L229.53 469.01L223.53 469.38L215.98 469.85L209.30 470.76L203.94 471.50L199.10 472.16L194.26 472.82L195.19 479.25L197.65 485.82L198.54 491.13L200.61 507.91L201.42 518.66L203.38 527.20L205.22 537.20L206.38 543.34L208.18 551.87L207.94 559.95L208.00 568.72L207.48 576.05L207.59 581.08L211.13 590.52L213.97 596.47L216.51 602.04L219.81 608.71L226.13 618.76L233.49 621.41L235.26 626.57L240.04 637.63L241.32 646.48L243.32 657.61L245.93 671.85L255.72 671.38L270.28 667.00L277.40 664.34L282.24 662.50L290.57 654.88L299.59 651.72L307.58 651.32L315.56 650.99L326.58 649.59L335.39 648.47L347.26 648.00L357.49 646.87L362.64 646.16L369.72 645.14L375.00 650.29L380.52 650.62L387.97 648.69L395.62 646.58L393.79 637.32L392.49 631.45L404.49 625.56L404.52 620.29L408.02 615.24L411.21 608.14L417.18 605.85L423.92 603.48L430.45 602.10L435.78 600.62L439.84 596.23L443.34 592.92L450.70 591.05L457.56 587.65L466.23 583.63L474.74 583.72L482.13 584.07L487.36 583.73L493.37 583.49L498.68 583.25L503.98 582.67L511.72 581.97L513.05 572.97L511.81 565.21L509.94 556.88L506.81 548.26L504.47 541.71L502.51 535.51L500.40 529.62L498.48 523.59L494.90 514.88L491.67 509.07L489.14 501.41L481.98 496.35L473.48 497.32L463.76 498.75L459.26 500.38L453.05 502.37L447.14 505.05L440.66 506.78L433.78 508.44L428.46 510.77L422.85 513.29L417.61 515.19L415.36 521.73L405.60 525.04L398.86 528.38L392.20 531.68L388.77 525.05L387.70 520.19L382.85 510.33L373.63 509.22L367.34 508.20L362.63 508.95L355.47 511.85L349.84 514.80L344.21 516.39L337.28 517.49L330.87 517.76L321.89 518.14L315.35 519.14L301.62 521.80L295.86 516.00Z" data-ward="12" /><path id="ward-13" class="ward" d="M437.81 294.96L425.69 301.43L415.72 304.63L407.67 307.55L398.46 305.63L376.48 304.03L357.59 302.66L355.24 308.50L357.61 315.70L360.12 323.34L362.37 330.18L366.18 338.69L369.35 347.44L371.31 354.21L373.70 362.50L377.73 372.99L361.52 374.90L356.53 371.58L348.39 368.65L334.60 368.59L320.95 370.16L309.59 373.72L294.43 377.14L272.06 379.91L257.70 379.97L253.80 384.82L249.34 398.82L247.27 413.84L246.92 422.91L246.98 440.48L247.57 466.86L255.76 466.55L260.95 464.90L273.16 460.75L278.19 462.71L284.51 474.55L288.48 482.47L290.11 489.00L291.92 499.81L293.22 506.45L295.86 516.00L301.62 521.80L315.35 519.14L321.89 518.14L330.87 517.76L337.28 517.49L344.21 516.39L349.84 514.80L355.47 511.85L362.63 508.95L367.34 508.20L373.63 509.22L382.85 510.33L387.70 520.19L388.77 525.05L392.20 531.68L398.86 528.38L405.60 525.04L415.36 521.73L417.61 515.19L422.85 513.29L428.46 510.77L433.78 508.44L440.66 506.78L447.14 505.05L453.05 502.37L459.26 500.38L463.76 498.75L473.48 497.32L481.98 496.35L489.14 501.41L487.04 492.30L485.39 486.70L483.65 479.49L481.07 470.76L475.60 452.37L468.38 429.24L466.23 422.17L464.30 413.80L461.89 403.03L460.57 397.04L457.18 382.46L453.29 368.39L451.22 360.24L448.95 351.95L442.61 328.82L440.05 314.18L437.81 294.96Z" data-ward="13" /></svg>