<svg viewBox="0 0 1000.00 1983.14" xmlns="http://www.w3.org/2000/svg"><style>.ward { fill: #e2e8f0; stroke: #fff; stroke-width: 0.5px; } .ward:hover { fill: #cbd5e1; }</style><path id="ward-5" class="ward" d="M860.16 1166.09L802.91 1142.62L798.47 1144.09L793.56 1146.93L788.71 1148.05L776.88 1160.15L768.24 1168.99L756.29 1181.22L753.29 1184.29L739.99 1197.90L735.65 1202.40L734.02 1206.57L719.93 1199.40L716.70 1197.34L713.25 1195.14L709.81 1192.94L701.74 1187.80L691.12 1181.41L686.13 1178.94L681.15 1176.47L674.87 1173.35L667.88 1171.29L664.49 1172.65L659.46 1176.63L654.82 1180.29L650.19 1183.93L654.23 1191.79L653.01 1199.43L649.63 1202.01L644.22 1202.04L634.03 1202.81L623.79 1202.05L615.72 1199.73L613.36 1193.44L610.65 1188.26L606.98 1185.68L601.22 1187.78L607.67 1202.94L618.59 1214.36L630.99 1216.47L637.00 1217.52L654.20 1216.92L668.77 1219.94L673.20 1225.25L680.68 1234.39L682.81 1247.00L685.30 1262.93L688.75 1271.34L690.77 1276.30L693.52 1282.55L704.25 1293.91L708.96 1298.90L714.83 1305.09L729.27 1311.60L742.44 1317.56L746.68 1319.47L754.02 1321.45L758.98 1334.62L760.67 1341.24L757.46 1346.80L751.91 1356.40L745.77 1363.12L740.57 1368.80L735.31 1374.55L727.94 1382.62L718.76 1392.65L712.00 1400.07L698.89 1414.56L692.69 1421.40L701.87 1453.94L703.82 1460.87L718.44 1459.52L733.05 1457.85L754.94 1467.65L760.23 1456.01L779.62 1448.30L790.87 1443.82L797.79 1441.89L810.01 1441.70L816.89 1441.01L824.13 1438.08L830.94 1434.68L834.76 1417.31L839.27 1396.83L839.02 1359.67L839.04 1342.37L838.75 1331.25L838.64 1323.25L837.78 1318.75L845.43 1301.38L850.00 1291.01L867.21 1272.67L867.24 1268.82L867.30 1261.45L870.01 1256.24L873.31 1249.87L874.60 1232.20L879.78 1228.50L889.38 1221.65L899.02 1214.76L897.55 1209.83L894.45 1199.43L891.08 1194.50L884.99 1185.61L875.77 1185.27L871.55 1187.49L860.16 1166.09Z" data-ward="5" /><path id="ward-9" class="ward" d="M745.41 1551.78L743.29 1548.67L694.45 1561.10L690.15 1561.04L679.32 1564.08L678.42 1554.58L648.79 1554.85L641.13 1556.74L636.12 1557.26L630.97 1556.49L623.51 1557.87L612.60 1559.89L606.75 1560.93L625.62 1596.68L642.75 1632.60L657.43 1663.96L664.34 1680.29L674.77 1676.85L691.45 1675.68L702.32 1676.84L713.49 1678.04L728.08 1679.60L736.76 1679.17L745.82 1678.72L749.63 1678.53L757.21 1682.58L760.28 1680.22L766.07 1681.33L773.66 1682.06L781.94 1682.85L782.79 1678.90L782.52 1674.40L782.04 1666.57L781.62 1659.63L781.18 1652.37L780.83 1646.57L780.48 1640.84L780.20 1636.15L777.88 1630.08L765.72 1598.25L762.81 1590.49L760.15 1584.34L751.71 1564.81L745.41 1551.78Z" data-ward="9" /><path id="ward-6" class="ward" d="M835.33 1500.55L836.97 1494.79L837.74 1488.70L806.37 1482.04L793.45 1478.66L765.31 1470.62L754.94 1467.65L733.05 1457.85L718.44 1459.52L703.82 1460.87L715.12 1507.46L743.29 1548.67L745.41 1551.78L751.71 1564.81L760.15 1584.34L762.81 1590.49L765.72 1598.25L777.88 1630.08L780.20 1636.15L780.48 1640.84L780.83 1646.57L781.18 1652.37L781.62 1659.63L782.04 1666.57L782.52 1674.40L782.79 1678.90L781.94 1682.85L779.42 1694.59L782.86 1702.67L784.95 1707.59L796.07 1721.97L815.36 1746.95L829.78 1744.09L847.15 1740.64L852.70 1746.48L870.86 1743.21L880.28 1741.52L889.50 1740.03L896.49 1738.90L906.15 1739.99L913.00 1740.76L922.75 1741.42L930.73 1738.98L937.28 1730.19L930.41 1727.45L932.53 1723.85L935.24 1719.26L938.59 1713.28L941.77 1707.62L944.22 1703.25L952.28 1688.90L956.58 1685.94L964.47 1679.66L969.71 1674.05L973.49 1665.71L977.05 1657.88L978.58 1654.50L978.51 1644.93L976.55 1640.03L971.62 1638.08L968.44 1630.97L966.81 1627.34L964.01 1621.45L959.17 1623.28L953.28 1613.22L948.08 1612.43L938.80 1616.62L930.87 1620.19L928.65 1613.63L930.91 1610.23L934.20 1605.29L931.16 1602.10L927.90 1598.66L922.40 1601.54L917.98 1597.75L913.79 1601.07L895.34 1599.94L890.05 1601.58L884.85 1603.51L875.84 1606.38L868.85 1593.34L854.97 1596.27L853.53 1599.73L851.89 1603.67L848.83 1611.02L841.30 1612.15L833.58 1607.10L828.47 1601.44L824.26 1596.77L822.11 1589.18L820.73 1585.74L817.32 1579.28L816.28 1575.74L814.83 1570.85L810.55 1566.78L806.66 1559.19L805.22 1553.82L804.87 1548.37L806.44 1543.56L808.67 1536.75L813.86 1534.29L817.87 1534.93L822.16 1527.83L825.16 1516.65L827.03 1509.66L831.42 1509.93L835.33 1500.55Z" data-ward="6" /><path id="ward-17" class="ward" d="M324.73 442.04L322.44 437.90L319.78 430.93L317.83 425.81L309.73 427.60L305.51 429.19L301.29 430.77L294.17 432.92L287.33 433.95L280.11 435.03L275.51 435.81L267.18 437.21L261.39 439.63L255.67 441.54L248.26 443.19L244.23 443.19L238.20 442.20L231.24 443.37L227.00 444.16L222.07 445.08L214.45 444.02L207.04 445.74L198.89 447.72L193.87 449.39L195.21 456.54L199.85 465.60L201.25 470.44L202.72 475.50L206.54 488.98L210.40 502.44L210.52 506.71L210.67 512.73L210.81 518.44L205.32 518.28L199.78 518.12L187.99 516.32L182.57 515.76L175.00 514.98L167.46 516.08L159.22 517.28L150.91 519.32L145.43 519.19L138.51 522.05L132.53 524.53L141.25 541.38L149.23 556.61L158.72 574.02L169.17 593.20L176.73 609.43L183.41 624.00L193.05 639.69L202.12 654.29L206.43 663.88L209.56 666.98L215.79 665.03L221.91 663.11L230.97 659.92L236.56 658.18L242.15 656.43L239.50 653.48L234.80 648.24L238.58 644.90L240.21 627.11L242.83 624.20L245.45 621.28L245.92 617.57L250.41 616.01L260.49 611.26L268.52 608.21L276.31 605.40L291.33 599.98L293.22 606.52L294.61 611.11L297.46 613.66L303.88 612.06L308.47 610.84L316.84 606.27L316.44 601.73L315.72 593.17L323.26 590.90L329.93 588.90L333.46 587.03L338.78 584.26L344.37 579.76L347.81 577.29L352.83 573.69L358.11 572.05L364.18 570.01L364.02 562.27L362.60 549.88L361.57 540.97L359.03 525.98L357.45 517.86L353.11 495.60L350.76 488.14L347.05 477.74L333.05 457.09L331.20 453.73L327.96 447.89L324.73 442.04Z" data-ward="17" /><path id="ward-10" class="ward" d="M677.23 1465.38L668.73 1460.09L659.33 1448.29L644.91 1438.73L640.75 1435.97L632.32 1427.43L625.27 1420.28L615.51 1409.80L611.90 1405.92L605.90 1399.47L603.34 1396.72L602.23 1385.73L601.82 1381.61L601.31 1376.57L600.51 1368.66L585.23 1364.68L580.74 1363.52L577.21 1364.66L573.16 1368.37L568.10 1371.59L564.81 1373.70L561.24 1375.97L557.80 1377.56L551.19 1378.89L547.07 1379.71L541.73 1381.50L536.72 1383.18L533.16 1387.95L536.51 1398.29L544.95 1419.24L561.54 1452.05L570.82 1473.40L585.18 1507.76L606.75 1560.93L612.60 1559.89L623.51 1557.87L630.97 1556.49L636.12 1557.26L641.13 1556.74L648.79 1554.85L678.42 1554.58L679.32 1564.08L690.15 1561.04L694.45 1561.10L743.29 1548.67L715.12 1507.46L703.82 1460.87L687.38 1465.54L681.69 1467.15L677.23 1465.38Z" data-ward="10" /><path id="ward-16" class="ward" d="M390.74 612.63L388.39 608.99L383.39 603.21L378.36 599.49L375.69 595.18L373.02 590.87L369.63 585.32L366.04 578.27L365.00 573.65L364.18 570.01L358.11 572.05L352.83 573.69L347.81 577.29L344.37 579.76L338.78 584.26L333.46 587.03L329.93 588.90L323.26 590.90L315.72 593.17L316.44 601.73L316.84 606.27L308.47 610.84L303.88 612.06L297.46 613.66L294.61 611.11L293.22 606.52L291.33 599.98L276.31 605.40L268.52 608.21L260.49 611.26L250.41 616.01L245.92 617.57L245.45 621.28L242.83 624.20L240.21 627.11L238.58 644.90L234.80 648.24L239.50 653.48L242.15 656.43L236.56 658.18L230.97 659.92L221.91 663.11L215.79 665.03L209.56 666.98L212.11 677.06L215.21 694.10L224.27 709.14L226.66 715.66L233.91 732.25L235.48 735.85L242.03 748.95L249.48 763.83L252.98 772.03L255.72 778.44L263.65 791.16L268.15 789.40L272.64 787.65L283.95 783.33L294.28 779.41L306.38 774.82L309.34 779.65L314.13 781.01L317.84 780.51L323.94 779.31L329.96 779.33L337.52 779.36L343.30 779.05L345.59 774.08L351.64 773.62L356.54 773.23L363.68 772.27L369.47 769.86L374.46 768.22L376.65 762.51L380.86 761.87L386.95 760.94L391.46 764.47L397.23 763.25L403.72 763.13L407.39 765.46L412.34 764.31L417.17 764.52L420.86 763.80L423.86 759.84L422.52 753.52L421.41 749.46L421.64 744.38L425.27 742.84L434.06 739.13L439.06 737.01L443.22 735.25L451.35 731.80L458.71 728.79L442.61 699.78L440.81 695.14L436.91 685.11L431.11 670.21L428.67 664.28L426.35 659.36L424.28 654.99L419.57 650.13L415.88 646.32L413.07 643.43L408.14 637.01L403.98 631.61L401.19 627.98L397.94 623.75L393.10 616.28L390.74 612.63Z" data-ward="16" /><path id="ward-11" class="ward" d="M693.52 1282.55L690.77 1276.30L682.80 1278.30L678.03 1279.49L671.20 1280.62L662.93 1281.99L653.48 1282.77L649.45 1281.17L646.26 1279.12L639.55 1280.29L633.69 1281.38L630.09 1282.06L626.49 1282.74L622.80 1283.44L608.02 1285.98L606.19 1292.20L596.07 1292.11L584.81 1290.12L579.62 1289.11L561.66 1285.62L555.57 1284.46L548.49 1286.27L549.06 1291.49L549.14 1299.79L545.27 1308.57L542.87 1311.76L536.58 1311.41L531.25 1309.57L528.69 1306.92L521.82 1308.47L509.75 1311.19L499.88 1314.58L502.19 1320.30L506.39 1329.62L512.01 1340.55L516.84 1350.97L521.55 1361.51L525.69 1370.79L533.16 1387.95L536.72 1383.18L541.73 1381.50L547.07 1379.71L551.19 1378.89L557.80 1377.56L561.24 1375.97L564.81 1373.70L568.10 1371.59L573.16 1368.37L577.21 1364.66L580.74 1363.52L585.23 1364.68L600.51 1368.66L601.31 1376.57L601.82 1381.61L602.23 1385.73L603.34 1396.72L605.90 1399.47L611.90 1405.92L615.51 1409.80L625.27 1420.28L632.32 1427.43L640.75 1435.97L644.91 1438.73L659.33 1448.29L668.73 1460.09L677.23 1465.38L681.69 1467.15L687.38 1465.54L703.82 1460.87L701.87 1453.94L692.69 1421.40L698.89 1414.56L712.00 1400.07L718.76 1392.65L727.94 1382.62L735.31 1374.55L740.57 1368.80L745.77 1363.12L751.91 1356.40L757.46 1346.80L760.67 1341.24L758.98 1334.62L754.02 1321.45L746.68 1319.47L742.44 1317.56L729.27 1311.60L714.83 1305.09L708.96 1298.90L704.25 1293.91L693.52 1282.55Z" data-ward="11" /><path id="ward-7" class="ward" d="M959.30 1738.62L954.33 1735.37L947.08 1732.19L937.28 1730.19L930.73 1738.98L922.75 1741.42L913.00 1740.76L906.15 1739.99L896.49 1738.90L889.50 1740.03L880.28 1741.52L870.86 1743.21L852.70 1746.48L847.15 1740.64L829.78 1744.09L815.36 1746.95L816.09 1754.59L818.89 1784.09L808.51 1790.33L795.94 1799.76L779.62 1812.02L771.25 1818.30L761.96 1825.28L748.46 1835.41L745.25 1837.71L738.47 1842.55L802.38 1979.76L809.00 1976.63L813.48 1974.52L815.43 1978.39L817.83 1983.14L821.35 1981.38L826.45 1978.83L830.07 1977.41L881.08 1955.36L882.96 1950.82L889.17 1935.82L890.95 1930.59L892.62 1925.66L897.21 1912.16L904.50 1890.72L924.82 1910.29L934.39 1905.79L945.11 1900.75L959.41 1894.70L983.33 1884.57L998.90 1878.41L1000.00 1875.75L985.32 1847.06L955.11 1796.34L950.35 1788.35L948.42 1784.70L946.45 1778.98L944.60 1772.92L942.29 1765.37L953.26 1753.61L964.23 1741.85L959.30 1738.62Z" data-ward="7" /><path id="ward-1" class="ward" d="M87.50 188.21L82.18 184.47L79.60 193.84L71.87 198.32L68.05 200.63L64.20 203.02L57.80 207.49L54.47 209.82L44.29 213.77L39.43 214.43L33.81 215.06L28.44 217.47L22.79 219.82L23.05 224.83L24.55 230.12L27.99 233.31L27.64 237.43L26.80 241.76L25.35 246.85L24.31 250.48L22.30 254.36L19.35 256.61L14.88 258.61L12.98 255.08L8.29 258.52L0.00 275.32L27.76 320.85L60.86 385.30L66.72 384.02L73.10 382.63L88.59 379.26L107.65 375.11L106.49 371.12L102.63 363.09L96.21 355.29L93.21 350.93L91.00 345.51L90.30 340.47L93.67 338.09L113.80 333.96L117.64 333.19L125.18 332.01L135.87 330.01L139.49 328.98L144.05 328.08L147.62 327.26L149.17 331.21L150.22 335.33L152.78 344.88L160.33 342.91L166.96 341.47L181.89 338.21L195.80 335.18L214.43 331.11L219.87 348.78L221.72 354.78L222.86 358.52L251.49 348.32L243.17 340.02L238.37 333.73L228.86 321.48L227.11 317.10L219.35 297.24L218.51 288.45L215.91 279.34L214.14 274.01L210.81 264.34L209.94 260.25L207.65 249.44L204.24 235.11L200.79 226.49L199.24 222.62L193.03 219.65L187.01 217.32L180.23 214.70L173.35 211.13L169.12 207.32L160.25 199.26L154.60 194.12L144.34 191.71L134.56 190.01L129.35 192.96L123.07 191.70L115.37 189.82L111.23 188.81L103.09 184.61L98.74 185.64L92.56 188.86L87.50 188.21Z" data-ward="1" /><path id="ward-12" class="ward" d="M573.03 1134.69L564.76 1137.37L554.73 1140.63L543.80 1144.18L537.53 1143.81L529.85 1141.88L515.13 1144.35L494.85 1147.95L489.20 1148.71L481.69 1147.78L475.59 1149.77L471.38 1152.15L466.50 1155.70L464.54 1161.09L468.30 1168.69L449.27 1173.59L450.24 1178.48L436.70 1182.19L439.41 1187.24L499.88 1314.58L509.75 1311.19L521.82 1308.47L528.69 1306.92L531.25 1309.57L536.58 1311.41L542.87 1311.76L545.27 1308.57L549.14 1299.79L549.06 1291.49L548.49 1286.27L555.57 1284.46L561.66 1285.62L579.62 1289.11L584.81 1290.12L596.07 1292.11L606.19 1292.20L608.02 1285.98L622.80 1283.44L626.49 1282.74L630.09 1282.06L633.69 1281.38L639.55 1280.29L646.26 1279.12L649.45 1281.17L653.48 1282.77L662.93 1281.99L671.20 1280.62L678.03 1279.49L682.80 1278.30L690.77 1276.30L688.75 1271.34L685.30 1262.93L682.81 1247.00L680.68 1234.39L673.20 1225.25L668.77 1219.94L654.20 1216.92L637.00 1217.52L630.99 1216.47L618.59 1214.36L607.67 1202.94L601.22 1187.78L599.47 1183.33L594.91 1172.92L591.43 1167.27L583.84 1155.14L581.28 1151.03L573.03 1134.69Z" data-ward="12" /><path id="ward-4" class="ward" d="M793.37 990.71L788.61 985.17L784.31 980.17L779.13 975.27L773.19 969.65L768.67 965.38L762.41 959.46L758.43 954.91L755.33 951.35L751.74 947.24L746.48 941.22L743.64 936.92L740.85 932.51L738.45 926.56L720.13 932.11L706.55 936.22L612.40 964.74L617.92 990.88L609.15 993.23L598.55 965.81L569.88 971.96L566.14 969.43L561.45 970.29L533.98 973.92L533.26 990.31L531.84 1022.55L535.37 1038.00L545.81 1064.98L553.49 1081.01L555.72 1085.95L560.17 1096.60L562.20 1103.78L563.80 1109.65L565.74 1116.20L567.76 1121.62L570.61 1129.30L573.03 1134.69L581.28 1151.03L583.84 1155.14L591.43 1167.27L594.91 1172.92L599.47 1183.33L601.22 1187.78L606.98 1185.68L610.65 1188.26L613.36 1193.44L615.72 1199.73L623.79 1202.05L634.03 1202.81L644.22 1202.04L649.63 1202.01L653.01 1199.43L654.23 1191.79L650.19 1183.93L654.82 1180.29L659.46 1176.63L664.49 1172.65L667.88 1171.29L674.87 1173.35L681.15 1176.47L686.13 1178.94L691.12 1181.41L701.74 1187.80L709.81 1192.94L713.25 1195.14L716.70 1197.34L719.93 1199.40L734.02 1206.57L735.65 1202.40L739.99 1197.90L753.29 1184.29L756.29 1181.22L768.24 1168.99L776.88 1160.15L788.71 1148.05L793.56 1146.93L798.47 1144.09L802.91 1142.62L860.16 1166.09L871.55 1187.49L875.77 1185.27L864.94 1159.13L856.20 1142.17L847.43 1125.19L843.05 1107.40L859.59 1098.23L855.03 1091.93L852.63 1088.61L850.33 1085.44L847.46 1081.48L845.21 1078.36L842.82 1075.07L840.34 1071.65L837.57 1067.82L834.24 1063.21L831.50 1059.43L829.46 1053.06L824.44 1041.09L821.29 1033.58L817.66 1024.94L814.97 1018.82L812.30 1012.76L809.84 1009.89L807.04 1006.63L803.01 1001.94L797.88 995.97L793.37 990.71Z" data-ward="4" /><path id="ward-15" class="ward" d="M473.70 751.03L468.40 743.90L464.58 738.78L458.71 728.79L451.35 731.80L443.22 735.25L439.06 737.01L434.06 739.13L425.27 742.84L421.64 744.38L421.41 749.46L422.52 753.52L423.86 759.84L420.86 763.80L417.17 764.52L412.34 764.31L407.39 765.46L403.72 763.13L397.23 763.25L391.46 764.47L386.95 760.94L380.86 761.87L376.65 762.51L374.46 768.22L369.47 769.86L363.68 772.27L356.54 773.23L351.64 773.62L345.59 774.08L343.30 779.05L337.52 779.36L329.96 779.33L323.94 779.31L317.84 780.51L314.13 781.01L309.34 779.65L306.38 774.82L294.28 779.41L283.95 783.33L272.64 787.65L268.15 789.40L263.65 791.16L266.00 794.70L282.74 819.90L292.37 835.35L301.62 855.25L305.93 863.37L310.93 862.34L316.45 861.37L319.16 858.83L325.51 857.43L332.90 857.93L338.18 857.74L347.86 853.52L353.08 854.25L354.47 858.49L359.86 857.73L366.44 856.83L369.31 847.94L374.32 845.57L379.32 843.19L384.73 840.62L393.64 837.65L401.01 834.81L411.96 828.01L417.60 827.59L422.18 828.83L444.53 828.97L449.81 828.53L471.14 822.55L476.11 821.16L483.85 818.99L504.12 813.31L508.81 811.19L523.93 804.35L519.24 800.37L516.25 797.83L510.99 793.36L507.04 790.00L503.60 787.07L497.39 781.79L494.62 779.33L488.96 771.57L473.70 751.03Z" data-ward="15" /><path id="ward-13" class="ward" d="M533.26 990.31L533.98 973.92L531.99 959.52L531.37 952.77L530.44 942.96L533.32 922.49L507.43 925.26L507.51 933.56L507.57 939.83L507.75 958.66L509.18 967.15L510.15 976.51L506.14 977.30L502.10 978.11L498.06 978.91L492.51 982.74L463.03 995.64L458.94 997.43L449.21 999.67L445.40 1000.55L441.39 1000.82L432.22 997.91L426.02 995.96L414.21 992.24L408.30 990.38L402.17 988.45L397.07 987.96L390.70 988.24L390.17 981.58L389.93 977.48L389.63 972.65L389.33 967.76L388.96 961.82L380.91 964.13L379.83 969.54L373.32 973.25L368.18 974.23L361.87 975.61L350.80 980.90L353.00 988.10L357.37 1004.97L370.34 1031.16L383.68 1066.11L407.00 1118.25L436.70 1182.19L450.24 1178.48L449.27 1173.59L468.30 1168.69L464.54 1161.09L466.50 1155.70L471.38 1152.15L475.59 1149.77L481.69 1147.78L489.20 1148.71L494.85 1147.95L515.13 1144.35L529.85 1141.88L537.53 1143.81L543.80 1144.18L554.73 1140.63L564.76 1137.37L573.03 1134.69L570.61 1129.30L567.76 1121.62L565.74 1116.20L563.80 1109.65L562.20 1103.78L560.17 1096.60L555.72 1085.95L553.49 1081.01L545.81 1064.98L535.37 1038.00L531.84 1022.55L533.26 990.31Z" data-ward="13" /><path id="ward-2" class="ward" d="M487.66 366.48L487.31 346.19L486.23 333.74L486.12 314.39L483.50 304.41L481.95 298.51L474.61 283.80L464.80 262.38L459.36 250.51L452.72 237.70L442.52 219.13L438.61 211.71L435.21 205.41L428.26 192.54L423.07 181.24L420.77 170.44L421.01 163.66L421.25 156.68L421.59 146.65L421.85 139.16L422.05 132.36L422.20 127.32L422.56 120.13L423.07 110.30L423.94 96.88L423.12 77.64L420.50 56.90L419.79 51.32L414.87 33.79L413.21 27.86L406.88 10.67L402.95 0.00L390.90 2.70L380.49 5.04L375.98 9.77L373.27 14.92L370.76 19.69L367.64 26.30L365.60 30.62L362.28 37.65L362.83 43.11L363.36 48.42L364.12 60.55L362.49 66.82L361.55 70.45L359.46 75.71L357.11 81.62L354.73 87.62L351.00 94.78L348.18 100.20L345.49 105.36L339.55 117.69L332.34 134.49L329.06 142.14L324.68 152.23L322.66 156.89L319.68 164.25L317.45 170.09L315.33 175.64L313.04 182.62L311.73 187.56L308.48 198.74L305.21 203.41L302.24 207.67L296.83 215.82L293.13 221.99L289.43 228.17L288.50 231.90L287.48 235.99L286.46 240.10L279.36 245.51L275.93 248.13L271.84 251.24L268.18 255.20L264.22 257.67L259.35 259.12L254.73 263.76L250.74 267.85L245.10 273.62L239.78 278.65L232.36 282.87L226.45 284.85L221.98 287.04L218.51 288.45L219.35 297.24L227.11 317.10L228.86 321.48L238.37 333.73L243.17 340.02L251.49 348.32L256.50 353.31L260.86 357.66L273.17 364.55L279.47 364.97L289.18 368.06L296.72 366.48L307.09 383.76L307.26 398.93L310.64 407.18L313.92 415.60L317.83 425.81L319.78 430.93L322.44 437.90L324.73 442.04L327.96 447.89L331.20 453.73L333.05 457.09L347.05 477.74L350.76 488.14L353.11 495.60L357.45 517.86L359.03 525.98L361.57 540.97L362.60 549.88L364.02 562.27L364.18 570.01L365.00 573.65L366.04 578.27L369.63 585.32L373.02 590.87L375.69 595.18L378.36 599.49L383.39 603.21L388.39 608.99L390.74 612.63L393.10 616.28L397.94 623.75L401.19 627.98L403.98 631.61L408.14 637.01L413.07 643.43L415.88 646.32L419.57 650.13L424.28 654.99L426.35 659.36L428.67 664.28L431.11 670.21L436.91 685.11L440.81 695.14L442.61 699.78L446.79 698.57L519.72 671.58L531.05 686.58L548.77 678.89L554.73 676.32L582.13 664.06L571.62 638.90L561.85 616.78L555.29 601.93L553.03 598.91L536.86 577.22L527.50 564.67L520.70 552.50L516.25 544.52L509.36 532.16L505.10 524.54L505.24 509.73L501.09 499.10L496.67 487.80L494.39 481.95L492.60 477.39L491.84 467.37L491.29 460.19L490.40 448.50L491.16 443.39L489.67 434.64L488.35 399.72L488.45 394.40L487.66 366.48Z" data-ward="2" /><path id="ward-3" class="ward" d="M589.45 681.01L585.93 672.88L582.13 664.06L554.73 676.32L548.77 678.89L531.05 686.58L519.72 671.58L446.79 698.57L442.61 699.78L458.71 728.79L464.58 738.78L468.40 743.90L473.70 751.03L488.96 771.57L494.62 779.33L497.39 781.79L503.60 787.07L507.04 790.00L510.99 793.36L516.25 797.83L519.24 800.37L523.93 804.35L526.62 807.04L536.11 825.73L537.13 831.65L538.16 837.64L539.14 843.34L541.30 856.91L539.32 870.30L538.72 874.86L537.56 883.54L535.58 904.48L535.06 909.93L534.54 913.93L533.32 922.49L530.44 942.96L531.37 952.77L531.99 959.52L533.98 973.92L561.45 970.29L566.14 969.43L569.88 971.96L598.55 965.81L609.15 993.23L617.92 990.88L612.40 964.74L706.55 936.22L720.13 932.11L738.45 926.56L734.05 916.24L729.59 905.77L727.24 900.25L722.72 889.64L719.89 881.91L718.60 878.39L716.28 872.04L712.37 861.34L711.02 857.65L708.90 854.49L706.53 850.95L702.30 844.63L700.17 841.45L696.82 836.44L693.67 831.74L691.04 827.82L686.12 820.47L683.21 816.11L680.85 812.60L678.47 809.04L676.33 805.01L673.76 800.19L671.80 796.49L669.26 791.73L667.50 788.42L665.66 784.97L663.88 781.62L660.88 775.97L662.68 771.36L659.76 768.31L644.87 755.44L629.06 737.39L614.08 720.29L611.38 714.64L606.43 709.72L598.64 696.56L589.45 681.01Z" data-ward="3" /><path id="ward-14" class="ward" d="M536.11 825.73L526.62 807.04L523.93 804.35L508.81 811.19L504.12 813.31L483.85 818.99L476.11 821.16L471.14 822.55L449.81 828.53L444.53 828.97L422.18 828.83L417.60 827.59L411.96 828.01L401.01 834.81L393.64 837.65L384.73 840.62L379.32 843.19L374.32 845.57L369.31 847.94L366.44 856.83L359.86 857.73L354.47 858.49L353.08 854.25L347.86 853.52L338.18 857.74L332.90 857.93L325.51 857.43L319.16 858.83L316.45 861.37L310.93 862.34L305.93 863.37L310.43 877.49L314.57 896.21L316.62 902.37L331.16 934.33L337.28 946.33L340.01 950.86L348.67 974.98L350.80 980.90L361.87 975.61L368.18 974.23L373.32 973.25L379.83 969.54L380.91 964.13L388.96 961.82L389.33 967.76L389.63 972.65L389.93 977.48L390.17 981.58L390.70 988.24L397.07 987.96L402.17 988.45L408.30 990.38L414.21 992.24L426.02 995.96L432.22 997.91L441.39 1000.82L445.40 1000.55L449.21 999.67L458.94 997.43L463.03 995.64L492.51 982.74L498.06 978.91L502.10 978.11L506.14 977.30L510.15 976.51L509.18 967.15L507.75 958.66L507.57 939.83L507.51 933.56L507.43 925.26L533.32 922.49L534.54 913.93L535.06 909.93L535.58 904.48L537.56 883.54L538.72 874.86L539.32 870.30L541.30 856.91L539.14 843.34L538.16 837.64L537.13 831.65L536.11 825.73Z" data-ward="14" /><path id="ward-8" class="ward" d="M713.49 1678.04L702.32 1676.84L691.45 1675.68L674.77 1676.85L664.34 1680.29L671.34 1696.31L675.53 1702.47L679.65 1713.35L689.23 1734.63L695.68 1748.75L703.63 1763.58L713.11 1787.14L719.39 1802.53L727.42 1819.90L738.47 1842.55L745.25 1837.71L748.46 1835.41L761.96 1825.28L771.25 1818.30L779.62 1812.02L795.94 1799.76L808.51 1790.33L818.89 1784.09L816.09 1754.59L815.36 1746.95L796.07 1721.97L784.95 1707.59L782.86 1702.67L779.42 1694.59L781.94 1682.85L773.66 1682.06L766.07 1681.33L760.28 1680.22L757.21 1682.58L749.63 1678.53L745.82 1678.72L736.76 1679.17L728.08 1679.60L713.49 1678.04Z" data-ward="8" /><path id="ward-18" class="ward" d="M150.22 335.33L149.17 331.21L147.62 327.26L144.05 328.08L139.49 328.98L135.87 330.01L125.18 332.01L117.64 333.19L113.80 333.96L93.67 338.09L90.30 340.47L91.00 345.51L93.21 350.93L96.21 355.29L102.63 363.09L106.49 371.12L107.65 375.11L88.59 379.26L73.10 382.63L66.72 384.02L60.86 385.30L74.40 411.57L88.49 444.33L102.46 470.82L110.10 485.65L124.75 509.57L132.53 524.53L138.51 522.05L145.43 519.19L150.91 519.32L159.22 517.28L167.46 516.08L175.00 514.98L182.57 515.76L187.99 516.32L199.78 518.12L205.32 518.28L210.81 518.44L210.67 512.73L210.52 506.71L210.40 502.44L206.54 488.98L202.72 475.50L201.25 470.44L199.85 465.60L195.21 456.54L193.87 449.39L198.89 447.72L207.04 445.74L214.45 444.02L222.07 445.08L227.00 444.16L231.24 443.37L238.20 442.20L244.23 443.19L248.26 443.19L255.67 441.54L261.39 439.63L267.18 437.21L275.51 435.81L280.11 435.03L287.33 433.95L294.17 432.92L301.29 430.77L305.51 429.19L309.73 427.60L317.83 425.81L313.92 415.60L310.64 407.18L307.26 398.93L307.09 383.76L296.72 366.48L289.18 368.06L279.47 364.97L273.17 364.55L260.86 357.66L256.50 353.31L251.49 348.32L222.86 358.52L221.72 354.78L219.87 348.78L214.43 331.11L195.80 335.18L181.89 338.21L166.96 341.47L160.33 342.91L152.78 344.88L150.22 335.33Z" data-ward="18" /></svg>