<svg viewBox="0 0 1000.00 758.90" xmlns="http://www.w3.org/2000/svg"><style>.ward { fill: #e2e8f0; stroke: #fff; stroke-width: 0.5px; } .ward:hover { fill: #cbd5e1; }</style><path id="ward-4" class="ward" d="M243.46 77.54L239.62 76.15L233.58 73.14L227.17 71.43L221.63 70.28L212.23 70.53L206.29 71.21L200.34 71.90L195.25 73.12L187.61 74.94L183.64 76.19L179.66 77.44L180.20 83.49L181.30 87.10L182.12 90.74L182.68 93.93L184.10 100.72L185.39 107.47L186.40 112.25L187.36 117.39L188.44 123.44L189.35 127.42L191.28 136.38L192.19 141.23L193.05 145.11L194.08 149.44L195.03 153.97L195.74 157.73L196.48 161.45L197.95 167.23L198.98 170.74L199.98 174.80L203.50 173.85L207.75 173.31L212.00 172.77L215.93 172.45L222.69 171.45L229.74 170.11L236.34 170.58L244.65 172.54L248.26 173.00L252.41 173.25L260.03 172.24L265.95 171.30L269.65 170.93L273.98 171.07L277.51 172.09L281.78 171.19L287.15 170.31L291.67 170.34L299.17 170.38L305.33 169.44L313.40 170.92L316.67 171.00L319.98 170.46L319.76 166.01L319.44 160.20L319.24 156.16L318.44 150.93L317.86 147.12L317.44 139.90L315.59 132.42L312.53 128.01L311.93 124.74L311.54 119.21L310.92 115.68L310.88 111.85L312.45 107.11L312.86 102.35L311.69 95.96L311.15 92.08L310.52 88.50L309.25 84.01L306.99 78.69L306.92 75.25L308.45 70.57L297.43 70.63L289.61 70.67L282.38 72.35L274.85 74.10L267.98 75.91L261.48 76.12L256.70 76.28L248.06 78.14L243.46 77.54Z" data-ward="4" /><path id="ward-15" class="ward" d="M307.79 676.47L307.81 671.67L306.81 660.31L306.03 656.11L302.33 657.78L298.83 659.45L292.86 661.83L288.59 662.92L284.14 664.02L278.46 665.22L274.07 666.19L269.98 667.03L264.51 668.22L262.12 671.29L256.63 672.97L251.52 673.91L247.25 674.63L242.83 675.32L239.14 675.89L235.55 676.23L230.65 676.70L227.08 680.11L222.06 682.05L218.84 680.00L212.72 676.78L208.62 677.77L204.73 678.85L199.77 680.34L194.85 681.66L189.31 681.52L186.65 675.62L184.89 671.94L183.22 668.90L181.70 665.40L177.96 664.53L174.29 665.57L168.75 666.97L165.79 668.36L162.40 669.45L158.29 672.86L153.68 674.20L148.86 675.84L145.70 676.93L147.79 682.85L151.15 692.39L155.60 704.76L158.27 712.58L161.61 721.96L163.83 735.22L165.66 743.89L169.10 758.90L174.21 756.78L180.08 754.51L184.57 752.39L188.38 750.31L194.28 748.43L197.46 747.46L200.92 746.41L206.55 744.69L211.26 743.26L216.39 741.83L219.77 740.73L225.03 739.00L229.25 737.34L235.37 735.15L239.63 734.06L243.90 734.12L247.54 734.97L251.35 735.74L256.23 734.74L260.00 733.75L265.66 732.90L270.88 732.12L277.73 731.60L284.37 731.08L287.66 731.48L292.89 732.12L293.83 728.25L295.18 722.68L297.01 716.71L299.45 711.27L300.67 705.61L302.63 699.90L304.05 693.64L305.93 685.80L307.79 676.47Z" data-ward="15" /><path id="ward-5" class="ward" d="M726.47 68.96L730.06 66.69L733.65 64.51L737.06 62.20L741.74 59.27L748.04 56.52L751.10 55.13L754.01 53.50L759.81 50.45L763.86 48.95L767.09 48.17L770.68 47.31L774.08 46.60L779.44 45.28L777.75 37.63L776.06 30.85L775.23 26.02L774.64 22.22L774.15 13.38L774.05 7.13L773.96 0.88L764.10 0.31L760.28 0.28L743.19 0.11L732.64 0.00L727.90 0.03L721.04 0.78L711.07 1.98L700.39 3.26L690.63 5.25L676.79 8.08L663.90 10.72L653.81 13.16L648.25 14.51L641.60 16.12L633.61 18.06L628.13 19.38L621.46 21.45L618.06 22.50L611.34 24.58L601.57 27.60L597.20 28.75L590.56 30.51L583.11 32.49L577.78 33.89L574.11 34.87L566.17 35.63L560.94 36.13L552.55 36.94L547.64 37.48L540.90 38.23L533.37 39.07L527.57 39.72L520.40 40.52L515.77 41.03L507.98 41.94L502.83 42.55L494.98 43.47L487.80 44.31L480.44 45.17L472.03 46.15L465.27 47.00L458.31 47.87L450.59 48.83L442.58 49.83L437.69 51.18L417.95 56.64L412.04 58.28L392.34 60.52L383.55 61.51L375.04 62.48L367.85 63.30L355.87 64.66L347.24 65.64L338.21 67.24L332.89 67.89L326.18 69.47L317.29 71.08L308.45 70.57L306.92 75.25L306.99 78.69L309.25 84.01L310.52 88.50L311.15 92.08L311.69 95.96L312.86 102.35L312.45 107.11L310.88 111.85L310.92 115.68L311.54 119.21L311.93 124.74L312.53 128.01L315.59 132.42L317.44 139.90L317.86 147.12L318.44 150.93L319.24 156.16L319.44 160.20L319.76 166.01L319.98 170.46L316.67 171.00L313.40 170.92L305.33 169.44L299.17 170.38L291.67 170.34L287.15 170.31L281.78 171.19L277.51 172.09L273.98 171.07L269.65 170.93L265.95 171.30L260.03 172.24L252.41 173.25L254.34 176.52L254.42 180.21L253.13 184.78L250.89 188.00L249.66 193.14L249.71 197.32L250.44 201.06L251.54 204.96L253.87 208.63L260.48 205.17L264.78 205.17L269.06 205.18L274.70 205.28L278.50 205.52L286.79 206.48L293.42 207.14L293.18 212.29L290.32 215.03L286.76 216.01L281.38 217.99L277.29 222.79L277.23 226.09L278.11 230.06L281.40 231.43L286.21 230.05L290.81 228.73L300.14 226.79L303.78 226.28L307.13 225.71L315.34 224.30L321.95 223.11L325.54 221.47L329.25 220.25L333.76 219.31L337.17 219.98L341.09 222.61L345.52 222.19L348.73 221.23L352.35 218.44L356.24 216.62L361.19 215.21L364.94 214.81L370.38 214.32L374.16 213.95L379.49 212.32L382.97 210.69L388.10 207.63L392.08 204.93L394.82 202.86L397.56 200.78L403.28 196.96L406.67 195.46L410.65 193.31L413.68 191.85L417.84 189.89L421.88 187.88L427.38 186.08L432.13 184.68L436.04 183.86L440.42 183.11L445.84 180.84L450.75 177.90L457.69 174.35L462.55 171.59L467.09 168.91L471.37 165.37L474.16 162.70L479.70 156.86L482.50 152.99L485.60 149.72L492.02 146.70L497.36 144.50L501.67 142.74L504.84 141.40L508.17 140.22L512.55 139.04L520.33 137.40L525.10 136.51L530.20 135.50L534.29 134.80L538.76 134.15L542.88 132.60L548.64 130.62L553.52 129.23L557.22 128.31L561.73 127.48L565.79 126.59L570.29 125.30L574.21 124.33L580.71 123.67L584.68 122.58L588.12 121.51L591.58 120.15L598.43 118.07L603.36 116.87L609.17 115.61L613.21 114.48L618.23 112.95L623.94 111.71L629.08 111.52L633.20 111.35L637.17 111.58L642.96 110.26L646.06 109.24L649.44 108.29L657.99 105.71L662.29 104.61L670.66 102.36L674.88 101.13L682.21 98.80L686.04 97.54L689.07 96.26L695.59 91.07L698.32 89.30L704.46 85.06L707.16 82.83L710.14 80.85L715.40 76.51L719.88 73.63L723.56 71.09L726.47 68.96Z" data-ward="5" /><path id="ward-10" class="ward" d="M804.08 109.62L798.05 103.28L795.57 100.86L789.32 92.38L787.19 86.41L785.01 76.06L783.99 64.54L782.63 58.36L781.49 53.15L780.53 48.76L779.44 45.28L774.08 46.60L770.68 47.31L767.09 48.17L763.86 48.95L759.81 50.45L754.01 53.50L751.10 55.13L748.04 56.52L741.74 59.27L737.06 62.20L733.65 64.51L730.06 66.69L726.47 68.96L723.56 71.09L719.88 73.63L715.40 76.51L710.14 80.85L707.16 82.83L704.46 85.06L698.32 89.30L695.59 91.07L689.07 96.26L686.04 97.54L682.21 98.80L674.88 101.13L670.66 102.36L662.29 104.61L657.99 105.71L649.44 108.29L646.06 109.24L642.96 110.26L637.17 111.58L633.20 111.35L629.08 111.52L623.94 111.71L618.23 112.95L613.21 114.48L609.17 115.61L603.36 116.87L598.43 118.07L591.58 120.15L588.12 121.51L584.68 122.58L580.71 123.67L574.21 124.33L570.29 125.30L565.79 126.59L561.73 127.48L557.22 128.31L553.52 129.23L548.64 130.62L542.88 132.60L538.76 134.15L534.29 134.80L530.20 135.50L525.10 136.51L520.33 137.40L512.55 139.04L508.17 140.22L504.84 141.40L501.67 142.74L497.36 144.50L492.02 146.70L485.60 149.72L482.50 152.99L479.70 156.86L474.16 162.70L471.37 165.37L467.09 168.91L462.55 171.59L457.69 174.35L456.71 181.15L458.27 186.17L459.75 189.96L460.79 193.21L462.00 196.73L463.01 200.11L464.43 204.86L466.50 211.06L467.94 215.38L470.24 222.28L471.82 226.17L473.43 230.10L474.96 234.03L476.35 238.01L478.15 242.39L480.46 248.10L482.86 252.52L484.99 256.20L488.62 262.49L491.21 266.87L493.16 270.18L494.90 273.14L498.18 279.33L499.68 282.59L501.98 286.50L504.52 290.61L507.20 294.11L510.79 299.45L513.53 305.44L515.70 310.17L519.66 315.85L521.56 318.57L523.43 321.26L525.78 323.47L530.49 327.50L534.11 332.58L536.18 336.59L537.77 340.52L539.74 344.46L540.13 349.04L535.71 349.17L530.64 350.62L525.36 352.70L520.33 356.01L516.58 358.95L512.33 363.02L508.88 366.39L511.60 369.41L514.84 372.34L517.47 374.77L519.95 378.97L520.47 383.57L522.52 389.00L524.64 393.95L525.38 398.76L526.33 403.56L527.49 407.39L528.43 410.86L530.02 415.41L533.04 420.71L533.92 424.54L535.00 427.96L536.59 431.23L538.38 435.27L539.96 438.20L542.16 443.17L543.44 446.57L544.88 451.71L544.96 456.49L545.25 460.53L546.14 464.99L547.64 470.50L548.66 474.63L548.95 480.84L552.17 481.21L555.39 480.60L560.97 479.87L568.53 479.28L575.10 478.81L583.27 478.71L589.22 478.11L596.03 477.64L601.98 476.54L611.53 475.21L619.46 473.87L627.52 472.28L636.32 471.19L643.38 470.97L652.30 468.88L657.66 460.93L659.66 457.32L662.88 456.08L666.23 456.22L673.53 456.25L678.24 456.39L683.57 455.42L688.65 455.06L694.23 454.71L700.42 453.61L706.13 452.39L712.82 450.17L716.42 449.94L723.36 449.22L729.68 448.62L738.97 448.65L744.29 448.43L749.49 449.69L753.45 450.46L760.76 449.86L765.22 449.63L770.92 449.65L775.88 449.67L780.46 449.69L787.77 449.22L794.71 448.87L800.28 448.40L806.73 447.80L811.56 446.07L815.78 445.34L819.37 445.98L827.05 445.88L830.27 444.65L835.60 443.55L842.05 442.33L851.47 441.12L855.92 442.13L860.62 443.65L865.82 444.79L871.02 445.56L878.33 445.59L882.30 443.36L888.38 441.64L892.34 441.53L900.27 441.19L905.23 440.58L912.91 439.74L918.37 438.39L928.41 436.44L937.46 433.85L944.91 430.64L951.85 427.93L959.95 424.13L952.97 414.86L949.80 410.63L946.23 405.93L937.19 394.00L926.22 378.81L922.91 373.42L919.16 366.21L914.56 357.36L910.44 349.33L904.65 338.06L899.44 326.07L897.15 318.04L893.94 306.77L891.21 297.69L889.26 291.18L887.39 279.32L886.81 275.48L886.03 270.80L885.23 265.24L884.18 257.85L883.25 250.12L882.57 244.51L882.02 237.65L881.30 228.64L880.47 218.37L880.00 212.47L878.42 204.40L876.17 192.99L875.53 189.70L873.25 184.12L870.30 176.91L868.38 172.22L865.09 165.84L862.81 161.85L859.95 157.71L857.58 154.40L851.08 146.13L845.90 141.25L843.25 138.99L840.37 136.67L831.70 130.32L819.38 121.57L814.95 118.37L810.07 114.83L804.08 109.62Z" data-ward="10" /><path id="ward-2" class="ward" d="M49.57 258.82L58.32 254.28L63.74 251.91L69.81 249.38L75.86 246.51L79.90 244.60L86.07 241.93L101.09 235.10L99.44 229.21L97.66 222.87L95.58 214.93L93.07 205.37L89.21 191.90L88.36 188.72L86.74 182.43L82.73 166.96L81.95 163.59L80.38 157.79L77.55 146.72L75.63 139.05L74.31 134.18L70.81 121.24L68.66 115.75L66.88 111.23L62.48 113.18L58.78 113.87L52.95 114.95L47.80 115.17L42.36 115.40L36.56 117.65L34.50 122.47L35.07 126.84L36.16 131.26L37.56 137.17L37.82 143.58L35.72 149.01L33.33 151.66L31.09 154.67L28.85 157.69L25.12 164.13L22.40 170.34L20.53 174.62L20.08 185.08L19.82 188.63L19.63 193.38L18.91 196.53L16.56 200.24L17.67 203.40L18.78 206.54L21.06 211.16L22.84 216.93L24.51 224.22L26.44 230.37L27.61 234.08L28.85 238.02L30.59 242.92L33.84 252.03L35.59 254.88L40.93 262.78L49.57 258.82Z" data-ward="2" /><path id="ward-9" class="ward" d="M388.73 317.48L384.48 317.04L379.43 316.70L375.08 315.97L370.45 315.16L364.21 313.93L360.60 313.31L356.47 312.56L349.97 311.38L345.09 310.57L340.84 309.83L337.55 309.68L334.06 309.66L327.14 308.79L323.17 308.48L318.64 307.96L314.03 308.05L310.62 308.68L306.88 311.89L305.76 315.40L305.63 319.86L305.34 324.74L305.22 330.07L305.74 336.17L305.87 342.27L305.67 346.26L305.94 349.57L305.64 354.75L305.25 358.28L305.87 361.76L306.46 365.27L308.79 367.51L308.60 371.53L309.23 375.11L310.59 381.66L310.64 385.26L310.53 391.09L310.81 395.82L310.84 399.38L309.45 404.08L308.82 407.34L307.94 410.75L310.14 413.22L317.26 416.24L320.84 417.80L326.08 418.66L331.12 420.42L334.40 421.34L338.90 421.19L344.57 420.94L347.93 421.46L354.12 421.66L361.89 419.12L368.11 416.87L371.07 414.20L376.94 413.84L381.17 413.77L386.28 412.94L391.21 412.19L398.58 411.02L404.38 409.92L408.22 408.95L413.14 408.20L419.86 407.55L428.70 406.11L433.60 405.34L437.00 405.19L438.32 408.25L436.81 412.70L436.12 416.63L436.34 421.17L438.26 425.43L439.33 430.08L438.77 434.78L438.23 438.27L437.85 442.44L437.52 446.63L437.92 450.35L438.77 455.02L439.56 458.94L440.44 462.06L441.56 466.42L442.63 470.56L444.16 475.77L445.25 481.54L445.72 487.39L447.34 495.29L454.12 494.02L457.54 493.64L465.31 491.92L473.92 489.81L480.76 488.08L488.21 485.80L493.95 485.76L500.41 486.24L509.20 485.51L513.73 484.97L518.08 484.58L521.57 484.48L524.86 484.48L531.94 483.81L537.43 483.07L541.67 482.36L548.95 480.84L548.66 474.63L547.64 470.50L546.14 464.99L545.25 460.53L544.96 456.49L544.88 451.71L543.44 446.57L542.16 443.17L539.96 438.20L538.38 435.27L536.59 431.23L535.00 427.96L533.92 424.54L533.04 420.71L530.02 415.41L528.43 410.86L527.49 407.39L526.33 403.56L525.38 398.76L524.64 393.95L522.52 389.00L520.47 383.57L519.95 378.97L517.47 374.77L514.84 372.34L511.60 369.41L508.88 366.39L512.33 363.02L504.96 362.47L502.98 358.91L501.30 353.74L499.99 348.37L499.26 344.40L499.20 339.25L496.73 335.65L494.58 332.35L492.53 329.45L486.96 328.11L483.68 328.25L481.33 325.30L481.47 320.28L479.54 316.33L475.63 315.90L470.89 318.29L467.40 318.01L463.66 317.21L458.59 316.61L450.02 315.25L435.09 316.24L425.99 315.99L422.14 315.88L418.81 315.87L414.65 315.86L410.91 315.81L407.41 316.00L398.82 317.14L395.32 317.61L388.73 317.48Z" data-ward="9" /><path id="ward-6" class="ward" d="M251.54 204.96L250.44 201.06L249.71 197.32L249.66 193.14L250.89 188.00L253.13 184.78L254.42 180.21L254.34 176.52L252.41 173.25L248.26 173.00L244.65 172.54L236.34 170.58L229.74 170.11L222.69 171.45L215.93 172.45L212.00 172.77L207.75 173.31L203.50 173.85L199.98 174.80L200.60 178.23L201.66 183.26L202.87 190.42L203.34 193.99L204.22 198.37L205.87 206.57L206.75 210.12L207.97 215.85L208.73 219.09L209.49 222.36L210.41 226.21L212.28 233.99L213.02 237.14L214.08 241.75L215.40 247.49L216.47 251.81L218.57 258.70L219.88 263.09L221.58 269.49L222.98 274.68L224.45 280.13L226.01 285.31L227.32 289.62L230.10 297.16L235.39 302.88L239.58 301.72L246.02 300.62L250.34 300.00L255.44 298.71L258.76 298.62L262.38 297.46L266.65 296.71L268.63 300.68L272.47 300.47L272.85 305.11L272.71 313.12L272.51 316.83L279.51 317.58L283.08 317.69L286.86 316.90L292.96 315.95L296.57 316.60L300.15 317.71L305.63 319.86L305.76 315.40L306.88 311.89L310.62 308.68L314.03 308.05L318.64 307.96L323.17 308.48L327.14 308.79L334.06 309.66L337.55 309.68L340.84 309.83L345.09 310.57L349.97 311.38L356.47 312.56L360.60 313.31L364.21 313.93L370.45 315.16L375.08 315.97L379.43 316.70L384.48 317.04L388.73 317.48L395.32 317.61L398.82 317.14L407.41 316.00L410.91 315.81L414.65 315.86L418.81 315.87L422.14 315.88L425.99 315.99L435.09 316.24L450.02 315.25L458.59 316.61L463.66 317.21L467.40 318.01L470.89 318.29L475.63 315.90L479.54 316.33L481.47 320.28L481.33 325.30L483.68 328.25L486.96 328.11L492.53 329.45L494.58 332.35L496.73 335.65L499.20 339.25L499.26 344.40L499.99 348.37L501.30 353.74L502.98 358.91L504.96 362.47L512.33 363.02L516.58 358.95L520.33 356.01L525.36 352.70L530.64 350.62L535.71 349.17L540.13 349.04L539.74 344.46L537.77 340.52L536.18 336.59L534.11 332.58L530.49 327.50L525.78 323.47L523.43 321.26L521.56 318.57L519.66 315.85L515.70 310.17L513.53 305.44L510.79 299.45L507.20 294.11L504.52 290.61L501.98 286.50L499.68 282.59L498.18 279.33L494.90 273.14L493.16 270.18L491.21 266.87L488.62 262.49L484.99 256.20L482.86 252.52L480.46 248.10L478.15 242.39L476.35 238.01L474.96 234.03L473.43 230.10L471.82 226.17L470.24 222.28L467.94 215.38L466.50 211.06L464.43 204.86L463.01 200.11L462.00 196.73L460.79 193.21L459.75 189.96L458.27 186.17L456.71 181.15L457.69 174.35L450.75 177.90L445.84 180.84L440.42 183.11L436.04 183.86L432.13 184.68L427.38 186.08L421.88 187.88L417.84 189.89L413.68 191.85L410.65 193.31L406.67 195.46L403.28 196.96L397.56 200.78L394.82 202.86L392.08 204.93L388.10 207.63L382.97 210.69L379.49 212.32L374.16 213.95L370.38 214.32L364.94 214.81L361.19 215.21L356.24 216.62L352.35 218.44L348.73 221.23L345.52 222.19L341.09 222.61L337.17 219.98L333.76 219.31L329.25 220.25L325.54 221.47L321.95 223.11L315.34 224.30L307.13 225.71L303.78 226.28L300.14 226.79L290.81 228.73L286.21 230.05L281.40 231.43L278.11 230.06L277.23 226.09L277.29 222.79L281.38 217.99L286.76 216.01L290.32 215.03L293.18 212.29L293.42 207.14L286.79 206.48L278.50 205.52L274.70 205.28L269.06 205.18L264.78 205.17L260.48 205.17L253.87 208.63L251.54 204.96Z" data-ward="6" /><path id="ward-18" class="ward" d="M199.65 497.77L200.88 500.70L198.27 501.50L194.13 502.57L189.43 504.01L185.36 507.10L180.51 507.88L177.03 508.64L173.50 509.64L170.57 511.12L171.23 515.77L166.50 517.31L162.57 518.50L159.19 519.86L153.53 521.52L149.94 522.66L146.79 523.44L142.13 524.84L134.73 527.12L131.07 528.42L127.28 533.21L128.72 537.30L130.21 542.31L131.30 547.28L132.91 553.49L134.85 558.58L136.82 564.08L137.01 567.48L137.68 573.30L138.95 577.23L140.53 582.84L143.03 588.51L144.68 593.25L144.22 600.03L144.19 603.71L146.26 612.88L150.90 611.21L154.11 610.37L158.32 608.62L163.95 606.95L167.38 605.66L172.87 603.66L176.71 602.97L182.20 601.82L189.38 599.95L192.76 599.45L196.42 598.91L202.18 598.64L208.81 598.17L212.89 596.96L211.57 591.23L210.26 586.18L208.67 579.90L206.96 570.78L206.17 567.56L204.76 561.86L202.81 555.90L201.38 552.73L198.80 545.63L197.90 540.30L196.74 533.38L194.85 525.99L193.70 520.84L192.25 517.43L191.43 514.27L190.12 508.83L189.90 504.50L194.91 503.53L198.24 502.61L201.48 501.53L205.01 502.27L205.92 506.63L206.83 510.62L210.60 512.77L211.72 517.42L212.26 520.73L212.87 524.71L214.23 528.55L216.26 535.36L217.66 539.62L219.33 544.95L220.56 548.24L226.50 549.09L229.85 548.48L234.71 547.48L240.70 546.23L245.17 545.45L248.47 544.87L253.56 544.00L257.06 543.46L261.05 542.78L264.56 542.09L271.01 540.78L274.45 539.95L273.61 532.30L270.51 524.88L269.73 521.32L268.56 517.51L266.87 511.52L265.93 507.32L265.07 503.80L263.42 495.68L261.90 487.87L260.75 483.81L260.08 480.29L258.28 473.75L257.04 468.09L256.02 463.30L255.20 458.98L254.54 455.14L253.53 451.22L252.67 447.02L251.94 442.04L246.51 417.38L242.73 417.62L234.01 419.18L229.42 419.70L225.14 420.19L220.99 419.92L214.48 422.34L208.58 423.94L205.39 425.02L202.19 425.65L196.15 426.91L194.89 430.32L196.44 435.05L198.34 439.24L200.68 445.20L202.19 451.43L203.03 456.11L205.81 457.91L207.58 464.12L208.15 470.21L208.49 475.49L209.98 480.34L210.16 484.67L209.90 488.48L208.10 491.79L202.36 492.91L199.65 497.77Z" data-ward="18" /><path id="ward-17" class="ward" d="M144.19 603.71L144.22 600.03L144.68 593.25L143.03 588.51L140.53 582.84L138.95 577.23L137.68 573.30L137.01 567.48L136.82 564.08L134.85 558.58L132.91 553.49L131.30 547.28L130.21 542.31L128.72 537.30L127.28 533.21L122.28 526.99L117.15 525.09L113.81 526.36L106.47 528.57L100.94 530.18L101.39 534.55L103.70 540.07L104.71 543.58L105.02 547.65L103.56 551.25L103.77 554.56L104.73 558.00L106.12 562.22L107.36 565.51L108.56 568.75L109.75 572.01L111.16 575.95L112.95 580.83L114.46 585.13L115.93 589.20L117.74 594.06L120.45 602.38L122.40 608.55L123.79 613.12L125.06 617.12L126.82 622.43L129.05 629.43L130.76 634.21L132.42 639.14L134.51 645.13L136.22 650.17L138.16 655.53L139.87 660.41L141.73 665.36L143.42 669.94L144.63 673.68L145.70 676.93L148.86 675.84L153.68 674.20L158.29 672.86L162.40 669.45L165.79 668.36L168.75 666.97L174.29 665.57L177.96 664.53L181.70 665.40L183.22 668.90L184.89 671.94L186.65 675.62L189.31 681.52L194.85 681.66L199.77 680.34L204.73 678.85L208.62 677.77L212.72 676.78L218.84 680.00L222.06 682.05L227.08 680.11L230.65 676.70L231.76 671.74L230.46 667.17L229.54 663.99L228.62 660.56L227.21 655.56L224.26 652.24L223.27 648.09L223.29 642.13L222.45 638.96L221.53 635.76L220.53 631.32L219.05 627.43L218.16 622.17L218.06 617.94L217.55 613.90L217.13 609.97L216.82 606.41L216.93 601.44L212.89 596.96L208.81 598.17L202.18 598.64L196.42 598.91L192.76 599.45L189.38 599.95L182.20 601.82L176.71 602.97L172.87 603.66L167.38 605.66L163.95 606.95L158.32 608.62L154.11 610.37L150.90 611.21L146.26 612.88L144.19 603.71Z" data-ward="17" /><path id="ward-20" class="ward" d="M121.07 312.81L119.17 307.44L116.28 299.17L114.38 294.56L111.32 295.58L107.61 296.85L102.79 297.42L98.04 298.67L94.52 299.58L90.97 300.49L86.50 302.37L86.91 305.94L86.40 310.48L87.03 315.23L90.29 318.09L96.52 316.82L100.48 319.35L101.15 323.18L101.41 326.88L102.34 330.36L104.15 337.15L105.29 342.36L106.65 347.93L106.17 356.05L102.16 356.57L92.75 357.79L85.47 358.97L82.03 359.74L77.88 360.46L73.39 360.95L65.96 362.41L61.84 362.76L57.70 363.48L51.88 364.95L46.97 366.12L42.16 367.17L37.32 368.13L30.18 370.44L32.50 376.16L43.15 401.16L48.51 414.28L53.38 425.64L57.70 436.85L62.79 449.09L66.03 458.41L77.15 478.72L79.14 483.69L87.01 480.31L92.20 478.50L95.83 477.15L98.29 473.92L97.17 469.00L96.32 465.33L95.30 461.54L94.32 458.24L93.49 455.02L91.29 449.37L89.73 446.15L88.02 441.33L86.70 437.19L85.72 432.41L84.97 428.42L83.78 423.20L82.60 419.89L81.19 414.85L79.53 408.71L77.51 403.69L80.01 400.70L86.94 399.16L92.82 398.14L96.33 397.42L100.34 396.52L104.88 395.42L108.47 394.98L112.53 393.89L120.80 392.73L125.47 392.30L131.58 391.01L135.72 391.67L136.95 395.01L139.29 401.33L141.01 406.06L142.69 413.13L144.20 419.35L146.37 429.54L147.43 432.79L149.78 439.25L153.19 438.60L156.49 438.08L159.93 437.51L165.49 436.20L169.94 435.23L175.84 434.01L179.66 433.35L183.47 432.69L189.65 431.59L194.89 430.32L196.15 426.91L202.19 425.65L205.39 425.02L208.58 423.94L214.48 422.34L220.99 419.92L225.14 420.19L229.42 419.70L234.01 419.18L242.73 417.62L246.51 417.38L249.14 414.89L248.78 409.35L248.81 403.44L248.43 398.21L247.94 392.11L247.64 388.38L247.22 383.77L246.98 379.01L246.38 370.90L246.07 367.59L245.47 360.59L245.13 356.01L244.33 346.28L243.95 340.80L243.12 335.48L241.78 330.81L240.70 327.24L235.79 328.12L231.95 328.82L225.20 330.03L220.57 330.90L217.05 331.71L209.60 333.40L198.70 336.24L195.59 337.05L191.27 338.22L187.21 339.22L182.22 340.44L173.25 342.30L166.34 343.72L155.99 346.07L147.09 348.08L141.44 349.35L133.17 350.34L131.41 346.20L129.40 341.47L127.93 337.30L126.37 332.62L124.75 326.68L123.68 322.74L121.07 312.81Z" data-ward="20" /><path id="ward-12" class="ward" d="M537.43 483.07L531.94 483.81L524.86 484.48L521.57 484.48L518.08 484.58L513.73 484.97L509.20 485.51L500.41 486.24L493.95 485.76L488.21 485.80L480.76 488.08L473.92 489.81L465.31 491.92L457.54 493.64L454.12 494.02L447.34 495.29L442.85 496.85L439.72 498.10L434.68 501.35L430.71 503.23L426.46 504.90L423.17 505.73L419.73 506.19L410.93 506.70L404.91 506.85L397.29 507.43L386.37 507.52L382.93 507.76L379.33 508.03L374.28 508.45L367.09 509.06L360.89 509.74L353.52 512.12L350.00 513.99L345.33 516.01L337.75 516.56L333.61 517.89L326.54 518.91L323.05 519.56L320.11 520.91L317.03 522.82L313.92 524.51L309.08 526.81L304.01 528.74L301.02 530.02L296.87 531.94L293.78 532.94L290.68 533.93L284.99 533.52L277.71 533.13L273.61 532.30L274.45 539.95L276.37 543.53L277.36 546.88L278.65 551.80L279.61 555.71L281.16 560.19L289.77 562.10L293.02 562.48L297.61 561.82L302.37 559.84L305.87 559.16L309.94 558.24L313.15 557.89L319.06 556.45L319.50 553.15L319.11 549.74L319.40 545.43L323.36 543.99L331.50 542.30L336.53 542.66L339.55 547.39L343.63 546.47L346.70 544.96L347.60 540.74L349.33 535.29L353.29 534.90L356.96 532.17L357.96 526.87L362.13 526.99L362.70 532.43L360.82 536.11L361.47 540.55L362.11 545.11L363.07 549.19L359.16 552.77L360.29 555.93L362.38 562.12L363.84 566.42L369.57 566.97L374.76 565.91L379.49 564.41L387.84 562.04L395.54 561.41L399.75 561.63L405.31 561.04L409.83 560.12L414.26 558.87L420.42 557.70L424.61 557.52L428.27 557.81L432.47 553.12L434.31 550.41L439.25 550.85L444.19 552.28L448.03 552.47L451.84 552.66L458.71 550.66L459.89 545.39L459.21 538.74L461.35 535.87L464.84 535.42L469.80 534.04L476.06 531.89L480.03 531.14L484.62 533.06L485.88 541.16L485.92 546.06L486.29 550.14L487.05 555.06L486.31 560.46L485.36 564.97L485.68 569.25L485.78 572.91L485.64 577.70L486.43 581.77L486.82 586.82L487.58 590.92L488.94 594.28L490.21 597.76L490.87 601.19L492.66 606.59L496.18 610.46L497.16 616.83L496.21 621.76L497.04 625.74L497.48 629.76L497.39 634.52L498.91 637.50L501.90 642.71L501.94 648.91L502.45 652.89L506.53 655.13L508.80 658.48L511.46 665.11L517.96 663.85L521.86 663.38L535.29 660.20L538.50 659.30L541.52 658.10L549.71 654.42L559.57 649.89L563.13 648.26L570.64 645.34L582.23 641.58L587.58 639.59L591.67 637.77L599.49 633.75L602.79 632.10L609.49 628.40L613.77 627.15L622.88 624.08L627.56 622.50L630.62 621.46L638.01 618.97L631.98 614.13L627.73 614.85L624.57 616.05L621.42 617.25L617.32 618.81L613.44 620.00L607.17 622.87L604.08 624.54L599.70 626.95L595.19 628.52L592.50 630.33L589.46 631.83L586.39 632.91L582.26 631.45L580.59 626.66L579.25 621.78L578.14 618.50L576.86 615.17L575.23 609.95L573.94 603.82L572.17 596.64L571.09 592.45L567.73 591.25L564.86 584.60L566.16 578.80L565.19 574.64L564.32 571.00L563.51 567.46L562.62 563.59L565.33 561.70L564.93 556.59L564.20 552.68L563.69 548.72L560.36 548.67L557.27 546.48L552.36 546.22L547.55 540.57L541.69 542.43L540.94 536.75L540.08 532.14L537.63 528.30L533.42 526.93L533.78 521.35L534.01 515.21L532.75 506.89L534.02 499.32L540.08 496.28L539.34 491.36L538.85 488.11L537.43 483.07Z" data-ward="12" /><path id="ward-13" class="ward" d="M486.29 550.14L485.92 546.06L485.88 541.16L484.62 533.06L480.03 531.14L476.06 531.89L469.80 534.04L464.84 535.42L461.35 535.87L459.21 538.74L459.89 545.39L458.71 550.66L451.84 552.66L448.03 552.47L444.19 552.28L439.25 550.85L434.31 550.41L432.47 553.12L428.27 557.81L424.61 557.52L420.42 557.70L414.26 558.87L409.83 560.12L405.31 561.04L399.75 561.63L395.54 561.41L387.84 562.04L386.77 565.72L387.70 570.94L388.76 576.07L389.66 581.00L387.90 585.92L388.11 589.99L388.30 595.36L387.04 599.53L382.45 603.02L383.21 608.56L383.35 613.52L383.96 619.54L385.02 628.30L385.78 632.17L386.06 635.53L386.93 638.82L386.64 642.71L384.77 645.87L379.59 647.05L376.46 650.07L375.71 653.49L376.48 659.03L377.42 664.17L378.35 668.25L378.89 671.64L379.03 678.46L379.46 684.45L379.62 688.85L379.05 692.59L379.85 698.16L383.43 706.19L386.58 705.55L391.61 704.54L397.23 702.98L401.27 701.86L406.03 700.21L411.48 698.62L414.85 697.64L418.14 696.09L422.03 694.25L425.62 692.92L429.06 691.65L432.30 690.45L436.36 689.09L439.56 688.03L443.75 686.08L447.67 683.82L451.99 680.75L456.18 678.60L461.47 676.83L466.15 675.10L470.18 674.05L477.27 672.19L481.22 671.28L484.47 670.52L488.10 669.56L492.04 668.52L496.80 667.73L500.07 667.18L503.92 666.51L507.14 665.95L511.46 665.11L508.80 658.48L506.53 655.13L502.45 652.89L501.94 648.91L501.90 642.71L498.91 637.50L497.39 634.52L497.48 629.76L497.04 625.74L496.21 621.76L497.16 616.83L496.18 610.46L492.66 606.59L490.87 601.19L490.21 597.76L488.94 594.28L487.58 590.92L486.82 586.82L486.43 581.77L485.64 577.70L485.78 572.91L485.68 569.25L485.36 564.97L486.31 560.46L487.05 555.06L486.29 550.14Z" data-ward="13" /><path id="ward-14" class="ward" d="M362.11 545.11L361.47 540.55L360.82 536.11L362.70 532.43L362.13 526.99L357.96 526.87L356.96 532.17L353.29 534.90L349.33 535.29L347.60 540.74L346.70 544.96L343.63 546.47L339.55 547.39L336.53 542.66L331.50 542.30L323.36 543.99L319.40 545.43L319.11 549.74L319.50 553.15L319.06 556.45L313.15 557.89L309.94 558.24L305.87 559.16L302.37 559.84L297.61 561.82L293.02 562.48L289.77 562.10L281.16 560.19L282.29 564.20L283.04 567.99L283.81 571.41L284.98 575.71L286.33 580.58L287.23 583.84L288.58 588.03L289.54 593.40L290.47 596.62L291.89 601.66L293.32 607.07L295.44 613.93L296.32 617.56L297.45 622.25L298.43 626.78L299.97 632.85L301.42 637.85L302.82 642.99L304.41 648.81L306.03 656.11L306.81 660.31L307.81 671.67L307.79 676.47L305.93 685.80L304.05 693.64L302.63 699.90L300.67 705.61L299.45 711.27L297.01 716.71L301.38 718.41L307.14 718.24L312.97 717.60L319.19 716.75L325.34 714.61L331.50 713.36L336.85 711.84L341.68 709.97L347.33 709.06L353.77 708.51L358.39 708.02L361.60 706.60L365.47 705.77L369.37 704.94L372.69 704.32L376.25 704.94L383.43 706.19L379.85 698.16L379.05 692.59L379.62 688.85L379.46 684.45L379.03 678.46L378.89 671.64L378.35 668.25L377.42 664.17L376.48 659.03L375.71 653.49L376.46 650.07L379.59 647.05L384.77 645.87L386.64 642.71L386.93 638.82L386.06 635.53L385.78 632.17L385.02 628.30L383.96 619.54L383.35 613.52L383.21 608.56L382.45 603.02L387.04 599.53L388.30 595.36L388.11 589.99L387.90 585.92L389.66 581.00L388.76 576.07L387.70 570.94L386.77 565.72L387.84 562.04L379.49 564.41L374.76 565.91L369.57 566.97L363.84 566.42L362.38 562.12L360.29 555.93L359.16 552.77L363.07 549.19L362.11 545.11Z" data-ward="14" /><path id="ward-1" class="ward" d="M35.59 254.88L33.84 252.03L30.59 242.92L28.85 238.02L27.61 234.08L26.44 230.37L24.51 224.22L22.84 216.93L21.06 211.16L18.78 206.54L17.67 203.40L16.23 202.85L12.57 206.23L10.55 209.26L10.99 213.41L11.77 220.77L12.02 228.35L12.13 231.70L11.95 236.58L11.24 240.18L10.56 243.58L7.64 249.00L5.20 253.22L2.85 255.84L0.00 259.02L1.56 266.75L2.29 271.43L4.12 278.08L6.41 286.38L8.36 293.33L10.80 302.37L12.80 310.43L15.03 319.11L17.04 327.36L18.47 332.77L20.30 339.61L22.66 348.33L25.00 356.93L27.18 363.43L30.18 370.44L37.32 368.13L42.16 367.17L46.97 366.12L51.88 364.95L57.70 363.48L61.84 362.76L65.96 362.41L73.39 360.95L77.88 360.46L82.03 359.74L85.47 358.97L92.75 357.79L102.16 356.57L106.17 356.05L106.65 347.93L105.29 342.36L104.15 337.15L102.34 330.36L101.41 326.88L101.15 323.18L100.48 319.35L96.52 316.82L90.29 318.09L87.03 315.23L86.40 310.48L86.91 305.94L86.50 302.37L82.63 298.06L80.06 294.23L78.03 289.26L75.04 280.82L69.50 274.68L65.88 271.11L64.62 267.85L62.89 263.39L60.33 259.03L58.32 254.28L49.57 258.82L40.93 262.78L35.59 254.88Z" data-ward="1" /><path id="ward-7" class="ward" d="M266.65 296.71L262.38 297.46L258.76 298.62L255.44 298.71L250.34 300.00L246.02 300.62L239.58 301.72L235.39 302.88L234.45 309.99L235.63 313.33L237.81 319.34L240.70 327.24L241.78 330.81L243.12 335.48L243.95 340.80L244.33 346.28L245.13 356.01L245.47 360.59L246.07 367.59L246.38 370.90L246.98 379.01L247.22 383.77L247.64 388.38L247.94 392.11L248.43 398.21L248.81 403.44L248.78 409.35L249.14 414.89L246.51 417.38L249.72 420.16L250.13 423.87L250.50 429.90L251.00 436.75L251.94 442.04L252.67 447.02L253.53 451.22L254.54 455.14L255.20 458.98L256.02 463.30L257.04 468.09L258.28 473.75L260.08 480.29L260.75 483.81L261.90 487.87L263.42 495.68L265.07 503.80L265.93 507.32L266.87 511.52L268.56 517.51L269.73 521.32L270.51 524.88L273.61 532.30L277.71 533.13L284.99 533.52L290.68 533.93L293.78 532.94L296.87 531.94L301.02 530.02L304.01 528.74L309.08 526.81L313.92 524.51L317.03 522.82L320.11 520.91L323.05 519.56L326.54 518.91L333.61 517.89L337.75 516.56L337.83 511.24L337.77 506.49L335.42 503.81L330.22 501.99L325.05 500.80L319.05 501.50L313.54 502.21L309.92 503.26L306.58 504.08L305.93 499.27L306.28 495.58L307.13 490.43L307.76 485.73L311.77 484.63L317.22 483.98L317.85 480.56L317.39 475.81L316.86 471.94L316.08 468.40L313.29 466.29L311.20 463.76L310.44 460.52L309.83 455.88L309.24 451.21L311.33 448.62L315.27 447.90L315.05 443.39L314.84 438.28L318.65 438.26L322.06 438.30L322.18 434.62L322.70 430.55L323.13 426.04L320.84 417.80L317.26 416.24L310.14 413.22L307.94 410.75L308.82 407.34L309.45 404.08L310.84 399.38L310.81 395.82L310.53 391.09L310.64 385.26L310.59 381.66L309.23 375.11L308.60 371.53L308.79 367.51L306.46 365.27L305.87 361.76L305.25 358.28L305.64 354.75L305.94 349.57L305.67 346.26L305.87 342.27L305.74 336.17L305.22 330.07L305.34 324.74L305.63 319.86L300.15 317.71L296.57 316.60L292.96 315.95L286.86 316.90L283.08 317.69L279.51 317.58L272.51 316.83L272.71 313.12L272.85 305.11L272.47 300.47L268.63 300.68L266.65 296.71Z" data-ward="7" /><path id="ward-3" class="ward" d="M184.10 100.72L182.68 93.93L182.12 90.74L181.30 87.10L180.20 83.49L175.92 82.52L168.87 85.24L165.38 86.58L162.24 87.79L156.24 91.08L153.23 92.40L145.67 95.72L141.99 97.29L137.07 99.05L132.49 100.75L126.36 102.62L118.80 103.58L114.88 101.74L108.72 102.30L104.32 102.70L99.34 103.58L92.91 103.72L83.04 105.87L76.16 108.15L66.88 111.23L68.66 115.75L70.81 121.24L74.31 134.18L75.63 139.05L77.55 146.72L80.38 157.79L81.95 163.59L82.73 166.96L86.74 182.43L88.36 188.72L89.21 191.90L93.07 205.37L95.58 214.93L97.66 222.87L99.44 229.21L101.09 235.10L86.07 241.93L79.90 244.60L75.86 246.51L69.81 249.38L63.74 251.91L58.32 254.28L60.33 259.03L62.89 263.39L64.62 267.85L65.88 271.11L69.50 274.68L75.04 280.82L78.03 289.26L80.06 294.23L82.63 298.06L86.50 302.37L90.97 300.49L94.52 299.58L98.04 298.67L102.79 297.42L107.61 296.85L111.32 295.58L114.38 294.56L116.28 299.17L119.17 307.44L121.07 312.81L123.68 322.74L124.75 326.68L126.37 332.62L127.93 337.30L129.40 341.47L131.41 346.20L133.17 350.34L141.44 349.35L147.09 348.08L155.99 346.07L166.34 343.72L173.25 342.30L182.22 340.44L187.21 339.22L191.27 338.22L195.59 337.05L198.70 336.24L209.60 333.40L217.05 331.71L220.57 330.90L225.20 330.03L231.95 328.82L235.79 328.12L240.70 327.24L237.81 319.34L235.63 313.33L234.45 309.99L235.39 302.88L230.10 297.16L227.32 289.62L226.01 285.31L224.45 280.13L222.98 274.68L221.58 269.49L219.88 263.09L218.57 258.70L216.47 251.81L215.40 247.49L214.08 241.75L213.02 237.14L212.28 233.99L210.41 226.21L209.49 222.36L208.73 219.09L207.97 215.85L206.75 210.12L205.87 206.57L204.22 198.37L203.34 193.99L202.87 190.42L201.66 183.26L200.60 178.23L199.98 174.80L198.98 170.74L197.95 167.23L196.48 161.45L195.74 157.73L195.03 153.97L194.08 149.44L193.05 145.11L192.19 141.23L191.28 136.38L189.35 127.42L188.44 123.44L187.36 117.39L186.40 112.25L185.39 107.47L184.10 100.72Z" data-ward="3" /><path id="ward-11" class="ward" d="M971.27 440.53L967.65 434.69L959.95 424.13L951.85 427.93L944.91 430.64L937.46 433.85L928.41 436.44L918.37 438.39L912.91 439.74L905.23 440.58L900.27 441.19L892.34 441.53L888.38 441.64L882.30 443.36L878.33 445.59L871.02 445.56L865.82 444.79L860.62 443.65L855.92 442.13L851.47 441.12L842.05 442.33L835.60 443.55L830.27 444.65L827.05 445.88L819.37 445.98L815.78 445.34L811.56 446.07L806.73 447.80L800.28 448.40L794.71 448.87L787.77 449.22L780.46 449.69L775.88 449.67L770.92 449.65L765.22 449.63L760.76 449.86L753.45 450.46L749.49 449.69L744.29 448.43L738.97 448.65L729.68 448.62L723.36 449.22L716.42 449.94L712.82 450.17L706.13 452.39L700.42 453.61L694.23 454.71L688.65 455.06L683.57 455.42L678.24 456.39L673.53 456.25L666.23 456.22L662.88 456.08L659.66 457.32L657.66 460.93L652.30 468.88L643.38 470.97L636.32 471.19L627.52 472.28L619.46 473.87L611.53 475.21L601.98 476.54L596.03 477.64L589.22 478.11L583.27 478.71L575.10 478.81L568.53 479.28L560.97 479.87L555.39 480.60L552.17 481.21L548.95 480.84L541.67 482.36L537.43 483.07L538.85 488.11L539.34 491.36L540.08 496.28L534.02 499.32L532.75 506.89L534.01 515.21L533.78 521.35L533.42 526.93L537.63 528.30L540.08 532.14L540.94 536.75L541.69 542.43L547.55 540.57L552.36 546.22L557.27 546.48L560.36 548.67L563.69 548.72L564.20 552.68L564.93 556.59L565.33 561.70L562.62 563.59L563.51 567.46L564.32 571.00L565.19 574.64L566.16 578.80L564.86 584.60L567.73 591.25L571.09 592.45L572.17 596.64L573.94 603.82L575.23 609.95L576.86 615.17L578.14 618.50L579.25 621.78L580.59 626.66L582.26 631.45L586.39 632.91L589.46 631.83L592.50 630.33L595.19 628.52L599.70 626.95L604.08 624.54L607.17 622.87L613.44 620.00L617.32 618.81L621.42 617.25L624.57 616.05L627.73 614.85L631.98 614.13L638.01 618.97L647.09 615.43L655.93 612.97L659.76 611.90L672.51 609.05L682.00 605.49L692.66 601.49L704.83 595.44L714.58 589.97L718.37 587.84L724.29 584.73L730.75 581.01L740.26 576.23L752.10 572.49L759.21 570.24L763.71 568.10L769.35 566.99L779.92 563.58L786.44 561.47L792.08 560.74L802.05 558.06L813.50 556.01L819.36 554.97L825.36 552.05L834.76 549.92L845.59 547.47L857.66 544.76L867.74 542.38L871.86 541.42L878.81 539.79L892.51 536.59L901.97 536.89L915.58 537.32L924.07 537.59L929.46 537.31L932.78 537.23L947.54 536.92L956.05 534.72L964.01 532.67L971.22 530.81L974.86 530.61L986.77 529.98L1000.00 529.29L993.38 521.26L993.34 505.01L992.31 500.88L988.17 484.35L989.73 479.19L985.80 465.42L978.58 451.80L976.15 448.05L971.27 440.53Z" data-ward="11" /><path id="ward-16" class="ward" d="M220.56 548.24L219.33 544.95L217.66 539.62L216.26 535.36L214.23 528.55L212.87 524.71L212.26 520.73L211.72 517.42L210.60 512.77L206.83 510.62L205.92 506.63L205.01 502.27L201.48 501.53L198.24 502.61L194.91 503.53L189.90 504.50L190.12 508.83L191.43 514.27L192.25 517.43L193.70 520.84L194.85 525.99L196.74 533.38L197.90 540.30L198.80 545.63L201.38 552.73L202.81 555.90L204.76 561.86L206.17 567.56L206.96 570.78L208.67 579.90L210.26 586.18L211.57 591.23L212.89 596.96L216.93 601.44L216.82 606.41L217.13 609.97L217.55 613.90L218.06 617.94L218.16 622.17L219.05 627.43L220.53 631.32L221.53 635.76L222.45 638.96L223.29 642.13L223.27 648.09L224.26 652.24L227.21 655.56L228.62 660.56L229.54 663.99L230.46 667.17L231.76 671.74L230.65 676.70L235.55 676.23L239.14 675.89L242.83 675.32L247.25 674.63L251.52 673.91L256.63 672.97L262.12 671.29L264.51 668.22L269.98 667.03L274.07 666.19L278.46 665.22L284.14 664.02L288.59 662.92L292.86 661.83L298.83 659.45L302.33 657.78L306.03 656.11L304.41 648.81L302.82 642.99L301.42 637.85L299.97 632.85L298.43 626.78L297.45 622.25L296.32 617.56L295.44 613.93L293.32 607.07L291.89 601.66L290.47 596.62L289.54 593.40L288.58 588.03L287.23 583.84L286.33 580.58L284.98 575.71L283.81 571.41L283.04 567.99L282.29 564.20L281.16 560.19L279.61 555.71L278.65 551.80L277.36 546.88L276.37 543.53L274.45 539.95L271.01 540.78L264.56 542.09L261.05 542.78L257.06 543.46L253.56 544.00L248.47 544.87L245.17 545.45L240.70 546.23L234.71 547.48L229.85 548.48L226.50 549.09L220.56 548.24Z" data-ward="16" /><path id="ward-8" class="ward" d="M436.34 421.17L436.12 416.63L436.81 412.70L438.32 408.25L437.00 405.19L433.60 405.34L428.70 406.11L419.86 407.55L413.14 408.20L408.22 408.95L404.38 409.92L398.58 411.02L391.21 412.19L386.28 412.94L381.17 413.77L376.94 413.84L371.07 414.20L368.11 416.87L361.89 419.12L354.12 421.66L347.93 421.46L344.57 420.94L338.90 421.19L334.40 421.34L331.12 420.42L326.08 418.66L320.84 417.80L323.13 426.04L322.70 430.55L322.18 434.62L322.06 438.30L318.65 438.26L314.84 438.28L315.05 443.39L315.27 447.90L311.33 448.62L309.24 451.21L309.83 455.88L310.44 460.52L311.20 463.76L313.29 466.29L316.08 468.40L316.86 471.94L317.39 475.81L317.85 480.56L317.22 483.98L311.77 484.63L307.76 485.73L307.13 490.43L306.28 495.58L305.93 499.27L306.58 504.08L309.92 503.26L313.54 502.21L319.05 501.50L325.05 500.80L330.22 501.99L335.42 503.81L337.77 506.49L337.83 511.24L337.75 516.56L345.33 516.01L350.00 513.99L353.52 512.12L360.89 509.74L367.09 509.06L374.28 508.45L379.33 508.03L382.93 507.76L386.37 507.52L397.29 507.43L404.91 506.85L410.93 506.70L419.73 506.19L423.17 505.73L426.46 504.90L430.71 503.23L434.68 501.35L439.72 498.10L442.85 496.85L447.34 495.29L445.72 487.39L445.25 481.54L444.16 475.77L442.63 470.56L441.56 466.42L440.44 462.06L439.56 458.94L438.77 455.02L437.92 450.35L437.52 446.63L437.85 442.44L438.23 438.27L438.77 434.78L439.33 430.08L438.26 425.43L436.34 421.17Z" data-ward="8" /><path id="ward-19" class="ward" d="M147.43 432.79L146.37 429.54L144.20 419.35L142.69 413.13L141.01 406.06L139.29 401.33L136.95 395.01L135.72 391.67L131.58 391.01L125.47 392.30L120.80 392.73L112.53 393.89L108.47 394.98L104.88 395.42L100.34 396.52L96.33 397.42L92.82 398.14L86.94 399.16L80.01 400.70L77.51 403.69L79.53 408.71L81.19 414.85L82.60 419.89L83.78 423.20L84.97 428.42L85.72 432.41L86.70 437.19L88.02 441.33L89.73 446.15L91.29 449.37L93.49 455.02L94.32 458.24L95.30 461.54L96.32 465.33L97.17 469.00L98.29 473.92L95.83 477.15L92.20 478.50L87.01 480.31L79.14 483.69L80.95 489.06L84.11 497.64L86.94 503.39L97.69 525.76L100.94 530.18L106.47 528.57L113.81 526.36L117.15 525.09L122.28 526.99L127.28 533.21L131.07 528.42L134.73 527.12L142.13 524.84L146.79 523.44L149.94 522.66L153.53 521.52L159.19 519.86L162.57 518.50L166.50 517.31L171.23 515.77L170.57 511.12L173.50 509.64L177.03 508.64L180.51 507.88L185.36 507.10L189.43 504.01L194.13 502.57L198.27 501.50L200.88 500.70L199.65 497.77L202.36 492.91L208.10 491.79L209.90 488.48L210.16 484.67L209.98 480.34L208.49 475.49L208.15 470.21L207.58 464.12L205.81 457.91L203.03 456.11L202.19 451.43L200.68 445.20L198.34 439.24L196.44 435.05L194.89 430.32L189.65 431.59L183.47 432.69L179.66 433.35L175.84 434.01L169.94 435.23L165.49 436.20L159.93 437.51L156.49 438.08L153.19 438.60L149.78 439.25L147.43 432.79Z" data-ward="19" /></svg>