<svg viewBox="0 0 1000.00 794.67" xmlns="http://www.w3.org/2000/svg"><style>.ward { fill: #e2e8f0; stroke: #fff; stroke-width: 0.5px; } .ward:hover { fill: #cbd5e1; }</style><path id="ward-5" class="ward" d="M451.63 105.98L412.68 92.43L407.27 106.08L410.13 104.26L413.15 105.60L466.29 151.44L467.54 152.52L457.80 166.13L447.87 180.00L428.71 193.82L428.78 196.53L428.18 198.17L427.60 199.77L426.66 202.34L427.81 206.39L429.11 209.82L430.09 211.26L433.48 216.24L439.89 220.78L445.04 229.93L451.81 235.42L455.14 238.13L465.97 240.99L468.37 242.57L471.64 244.72L473.00 245.62L476.52 247.93L483.50 249.74L494.25 252.53L497.21 253.29L503.73 254.91L505.45 255.14L521.47 257.32L531.33 260.82L540.79 266.83L544.09 270.65L545.52 272.30L548.90 276.22L550.47 278.04L551.55 279.28L581.90 289.89L584.38 291.49L585.72 292.35L586.07 295.79L588.90 297.00L592.13 298.93L596.62 301.40L599.94 302.44L605.20 303.87L608.80 304.94L612.41 306.08L614.95 307.04L619.49 310.77L620.38 312.05L621.98 314.31L624.00 316.33L626.74 317.93L629.84 319.41L632.55 320.42L635.02 320.82L637.81 320.73L641.61 319.12L644.38 316.86L645.85 316.04L648.25 315.57L650.63 315.29L654.37 315.37L656.53 315.35L658.80 315.06L660.88 314.67L662.98 314.22L666.91 312.76L669.40 311.47L671.29 310.72L673.72 309.48L675.22 308.67L677.24 307.30L678.70 306.46L681.23 305.08L683.45 302.86L682.64 299.30L682.30 297.00L680.72 295.80L677.54 293.38L674.88 292.01L673.12 291.11L671.04 290.04L669.04 288.61L666.75 286.98L665.89 285.12L665.03 283.25L663.84 280.67L664.72 277.33L664.97 275.70L665.28 273.07L666.14 270.60L666.69 269.03L668.09 267.05L669.43 265.21L671.25 258.49L671.14 256.83L670.21 250.76L669.85 248.77L669.07 245.72L668.63 244.25L667.95 242.10L667.27 240.38L666.69 238.81L666.17 236.56L665.39 234.83L664.25 232.25L663.46 230.00L661.98 226.86L662.05 224.11L662.71 220.87L663.27 217.99L663.92 212.10L664.35 210.28L664.03 207.28L664.14 203.80L665.17 201.10L666.89 198.90L669.01 197.60L670.98 196.80L672.95 196.01L675.52 192.94L678.49 189.39L680.96 185.80L684.31 182.43L685.50 181.28L687.67 178.92L690.24 177.06L691.80 176.39L694.23 175.81L695.91 175.40L699.39 174.31L701.57 173.46L697.26 170.82L695.51 170.05L693.74 169.09L691.08 168.14L686.56 168.17L683.80 168.94L680.95 170.47L677.27 172.46L673.90 175.56L671.72 175.91L670.33 172.45L666.75 167.36L663.06 164.20L661.07 163.00L659.15 161.84L657.13 159.12L654.61 156.41L651.63 155.12L649.77 154.31L647.79 153.33L645.73 150.91L645.23 149.03L643.76 146.06L642.33 144.35L641.12 142.90L638.10 140.71L635.15 138.57L631.06 136.94L627.25 135.05L623.69 132.94L621.01 131.35L617.55 129.46L613.91 126.38L612.89 124.89L611.71 123.17L610.49 121.20L610.53 118.82L615.36 115.70L617.44 115.17L620.51 113.64L622.76 111.69L625.74 108.59L626.85 107.47L631.34 102.92L633.44 100.48L634.41 96.61L635.09 93.94L635.85 89.95L636.84 87.17L637.56 85.45L638.28 83.73L666.99 95.98L676.52 100.86L680.96 103.14L679.72 109.54L681.29 110.15L683.56 111.28L684.94 112.04L686.59 112.87L688.64 114.41L689.90 116.19L690.42 119.07L720.18 89.89L715.48 86.13L710.94 82.50L704.84 77.62L701.71 75.12L698.62 72.65L695.54 70.18L692.50 67.76L689.94 69.64L689.47 67.33L689.15 65.78L688.32 61.74L689.43 60.41L694.44 54.42L694.50 52.57L694.63 48.28L694.87 40.62L694.98 37.16L697.19 34.56L702.36 28.49L706.74 23.35L709.30 20.35L708.78 17.52L708.24 14.59L707.11 8.39L705.14 5.96L704.13 4.70L701.35 4.42L693.60 3.63L676.60 1.89L673.23 1.55L668.53 1.07L661.24 0.33L658.02 0.00L656.22 0.84L651.00 3.27L644.85 6.14L641.79 7.57L638.69 9.01L634.61 10.91L626.70 15.06L621.45 20.01L619.61 21.75L616.66 24.54L611.68 29.25L613.74 35.62L614.92 39.27L612.40 56.95L610.35 71.39L610.83 74.39L612.67 90.29L614.07 94.01L610.97 99.55L607.85 105.12L604.15 111.74L600.38 111.00L598.44 110.62L593.32 109.61L590.75 109.11L586.27 108.23L581.68 107.33L575.97 106.21L572.23 105.47L567.59 104.50L562.95 103.53L560.62 103.04L558.29 102.55L553.67 101.58L551.30 101.09L544.72 100.24L541.76 101.90L540.38 102.67L538.40 103.77L534.91 105.72L533.12 106.71L531.35 107.70L527.66 109.76L525.32 111.07L521.94 114.22L520.25 116.24L520.22 118.96L520.11 129.02L520.07 132.42L519.97 141.15L521.02 144.47L515.91 146.49L514.38 147.10L511.35 148.29L504.51 145.13L497.81 142.03L495.28 140.86L488.49 137.72L484.93 136.07L480.09 133.83L483.03 128.22L485.53 123.43L475.31 117.69L471.86 115.13L470.43 114.07L466.31 111.08L451.63 105.98Z" data-ward="5" /><path id="ward-6" class="ward" d="M794.30 344.98L801.24 355.93L805.28 361.18L808.10 362.95L813.77 368.89L815.24 369.95L817.49 371.36L820.00 373.42L822.70 375.63L825.96 381.28L830.55 389.59L835.50 394.80L840.73 398.53L843.50 400.88L850.00 425.12L854.91 419.95L859.06 413.88L863.11 412.83L870.59 411.85L875.87 411.17L877.88 410.66L879.58 410.24L887.61 408.22L890.23 409.36L892.65 410.42L902.46 414.72L905.08 415.77L917.84 416.18L924.10 417.91L926.65 418.85L931.26 421.62L932.64 424.05L933.71 426.61L934.60 429.02L937.01 434.61L941.49 440.74L944.19 443.64L948.43 448.21L950.95 449.35L952.87 449.56L961.13 449.76L963.40 449.80L971.25 448.94L971.85 447.30L972.53 445.80L974.19 442.00L974.77 440.26L975.27 438.25L976.01 435.34L976.24 433.11L977.09 431.18L977.02 428.50L974.18 421.13L973.42 419.15L972.45 416.64L971.09 413.12L970.51 411.60L969.18 408.84L968.08 406.55L966.86 404.01L965.74 401.66L964.02 398.08L962.64 395.22L961.79 392.70L960.42 388.66L959.54 386.04L958.32 382.45L955.97 380.01L953.15 377.07L950.83 374.66L946.45 369.50L939.91 367.63L936.85 366.76L934.67 366.14L931.17 365.14L928.10 364.27L934.22 350.52L936.04 345.88L936.86 341.43L938.41 329.76L928.52 325.93L925.54 320.19L926.30 311.62L922.00 303.25L922.02 293.36L922.03 289.39L922.06 276.08L921.95 268.65L922.49 266.60L925.24 255.32L927.53 252.48L929.74 249.73L932.30 246.54L922.92 236.06L919.52 236.21L913.40 229.37L905.08 220.08L894.99 206.75L891.41 207.24L887.89 212.88L885.31 215.99L880.83 220.90L879.23 222.83L876.98 222.46L873.77 225.82L871.53 224.18L868.03 217.31L870.97 210.62L869.06 208.47L867.16 206.31L865.68 205.02L859.90 199.94L858.02 196.30L854.70 189.88L854.53 187.39L853.12 184.83L849.73 179.75L849.10 177.95L846.57 174.02L845.38 171.46L843.21 166.77L842.12 165.42L844.60 161.18L847.05 156.99L851.56 152.47L855.50 148.50L857.27 146.73L851.75 143.86L844.53 136.45L837.51 137.20L829.74 138.02L827.21 140.71L824.15 141.84L822.59 142.27L811.74 133.57L806.28 138.74L794.60 131.66L791.38 129.70L784.00 132.54L774.07 136.38L767.25 139.02L762.53 140.14L748.97 143.52L734.57 147.10L716.90 151.99L714.67 152.06L714.65 150.10L720.28 141.24L724.06 135.29L724.34 133.74L727.33 127.75L730.12 125.53L731.16 121.84L729.87 113.06L728.58 104.24L729.39 91.14L728.49 89.56L725.14 89.69L722.40 89.80L720.18 89.89L690.42 119.07L689.90 116.19L688.64 114.41L686.59 112.87L684.94 112.04L683.56 111.28L681.29 110.15L679.72 109.54L680.96 103.14L676.52 100.86L666.99 95.98L638.28 83.73L637.56 85.45L636.84 87.17L635.85 89.95L635.09 93.94L634.41 96.61L633.44 100.48L631.34 102.92L626.85 107.47L625.74 108.59L622.76 111.69L620.51 113.64L617.44 115.17L615.36 115.70L610.53 118.82L610.49 121.20L611.71 123.17L612.89 124.89L613.91 126.38L617.55 129.46L621.01 131.35L623.69 132.94L627.25 135.05L631.06 136.94L635.15 138.57L638.10 140.71L641.12 142.90L642.33 144.35L643.76 146.06L645.23 149.03L645.73 150.91L647.79 153.33L649.77 154.31L651.63 155.12L654.61 156.41L657.13 159.12L659.15 161.84L661.07 163.00L663.06 164.20L666.75 167.36L670.33 172.45L671.72 175.91L673.90 175.56L677.27 172.46L680.95 170.47L683.80 168.94L686.56 168.17L691.08 168.14L693.74 169.09L695.51 170.05L697.26 170.82L701.57 173.46L704.31 175.63L706.30 178.27L707.06 179.72L707.83 181.16L708.45 184.55L708.62 186.10L709.05 189.92L709.79 192.04L711.76 197.69L712.31 199.27L713.02 201.21L715.26 206.44L717.06 208.38L719.02 210.51L722.03 212.40L725.10 214.33L727.77 215.30L730.09 215.63L732.41 215.96L736.28 216.18L738.49 216.61L741.43 217.17L744.67 217.79L747.71 218.52L749.40 218.96L754.69 220.85L757.49 222.08L759.89 223.14L762.20 225.07L763.81 226.88L764.99 228.22L766.83 230.28L767.80 232.95L768.04 238.92L767.34 241.86L768.12 243.44L769.17 245.57L771.09 249.44L775.98 257.24L777.15 259.11L781.14 263.58L781.74 267.46L782.10 269.77L785.00 276.06L782.56 277.23L783.76 280.05L779.45 287.14L775.08 291.02L773.77 294.84L778.53 297.50L783.40 302.52L784.36 305.26L785.50 315.84L785.95 317.70L786.64 320.53L787.63 322.31L788.36 323.83L789.42 326.01L790.18 327.58L791.06 330.09L791.93 332.60L792.85 335.63L794.14 339.92L794.30 344.98Z" data-ward="6" /><path id="ward-7" class="ward" d="M585.77 320.45L588.48 323.59L590.78 326.40L591.77 327.72L593.74 330.80L595.40 334.65L596.92 338.55L597.57 339.96L598.59 342.17L600.47 345.56L602.79 348.62L604.81 351.40L607.32 353.93L610.32 355.91L611.85 356.98L615.31 359.62L618.44 362.37L619.79 363.57L622.64 365.73L626.24 368.34L628.24 369.94L631.07 373.38L632.64 373.90L636.46 375.16L639.03 376.06L641.08 377.18L643.38 378.33L645.79 379.48L648.06 380.60L650.36 382.20L652.63 383.71L654.76 385.31L656.72 386.72L658.73 387.60L660.73 388.49L662.54 389.10L664.70 390.36L667.42 392.70L669.45 395.59L670.36 396.89L672.53 399.59L673.78 401.02L675.89 403.64L677.27 405.23L679.96 405.08L682.66 402.66L684.46 401.08L687.07 398.79L688.09 395.50L721.73 434.91L745.20 481.31L757.24 467.98L758.95 468.84L763.67 470.49L765.37 471.27L767.00 472.40L769.58 473.69L771.95 474.50L774.28 475.61L779.23 469.73L780.67 464.48L780.92 462.13L780.89 459.52L780.45 457.02L780.03 455.51L779.26 450.46L778.68 446.92L778.23 443.64L777.96 442.10L778.01 437.86L778.92 435.62L780.48 434.30L784.29 433.78L786.54 433.12L788.45 432.31L797.45 424.39L799.34 424.46L801.30 423.95L803.29 423.50L805.00 422.91L807.50 420.86L808.94 419.46L810.26 418.03L811.43 416.54L813.56 414.83L816.74 411.85L818.29 410.51L819.87 409.53L821.48 408.94L824.38 408.91L826.35 409.33L828.01 410.09L829.95 411.15L832.50 411.77L835.26 412.81L837.17 413.76L838.56 415.30L839.67 417.18L840.77 418.94L842.88 421.31L845.15 423.02L847.22 424.34L850.00 425.12L843.50 400.88L840.73 398.53L835.50 394.80L830.55 389.59L825.96 381.28L822.70 375.63L820.00 373.42L817.49 371.36L815.24 369.95L813.77 368.89L808.10 362.95L805.28 361.18L801.24 355.93L794.30 344.98L794.14 339.92L792.85 335.63L791.93 332.60L791.06 330.09L790.18 327.58L789.42 326.01L788.36 323.83L787.63 322.31L786.64 320.53L785.95 317.70L785.50 315.84L784.36 305.26L783.40 302.52L778.53 297.50L773.77 294.84L775.08 291.02L779.45 287.14L783.76 280.05L782.56 277.23L785.00 276.06L782.10 269.77L781.74 267.46L781.14 263.58L777.15 259.11L775.98 257.24L771.09 249.44L769.17 245.57L768.12 243.44L767.34 241.86L768.04 238.92L767.80 232.95L766.83 230.28L764.99 228.22L763.81 226.88L762.20 225.07L759.89 223.14L757.49 222.08L754.69 220.85L749.40 218.96L747.71 218.52L744.67 217.79L741.43 217.17L738.49 216.61L736.28 216.18L732.41 215.96L730.09 215.63L727.77 215.30L725.10 214.33L722.03 212.40L719.02 210.51L717.06 208.38L715.26 206.44L713.02 201.21L712.31 199.27L711.76 197.69L709.79 192.04L709.05 189.92L708.62 186.10L708.45 184.55L707.83 181.16L707.06 179.72L706.30 178.27L704.31 175.63L701.57 173.46L699.39 174.31L695.91 175.40L694.23 175.81L691.80 176.39L690.24 177.06L687.67 178.92L685.50 181.28L684.31 182.43L680.96 185.80L678.49 189.39L675.52 192.94L672.95 196.01L670.98 196.80L669.01 197.60L666.89 198.90L665.17 201.10L664.14 203.80L664.03 207.28L664.35 210.28L663.92 212.10L663.27 217.99L662.71 220.87L662.05 224.11L661.98 226.86L663.46 230.00L664.25 232.25L665.39 234.83L666.17 236.56L666.69 238.81L667.27 240.38L667.95 242.10L668.63 244.25L669.07 245.72L669.85 248.77L670.21 250.76L671.14 256.83L671.25 258.49L669.43 265.21L668.09 267.05L666.69 269.03L666.14 270.60L665.28 273.07L664.97 275.70L664.72 277.33L663.84 280.67L665.03 283.25L665.89 285.12L666.75 286.98L669.04 288.61L671.04 290.04L673.12 291.11L674.88 292.01L677.54 293.38L680.72 295.80L682.30 297.00L682.64 299.30L683.45 302.86L681.23 305.08L678.70 306.46L677.24 307.30L675.22 308.67L673.72 309.48L671.29 310.72L669.40 311.47L666.91 312.76L662.98 314.22L660.88 314.67L658.80 315.06L656.53 315.35L654.37 315.37L650.63 315.29L648.25 315.57L645.85 316.04L644.38 316.86L641.61 319.12L637.81 320.73L635.02 320.82L632.55 320.42L629.84 319.41L626.74 317.93L624.00 316.33L621.98 314.31L620.38 312.05L619.49 310.77L614.95 307.04L612.41 306.08L608.80 304.94L605.20 303.87L599.94 302.44L596.62 301.40L592.13 298.93L588.90 297.00L586.07 295.79L584.17 297.48L581.97 299.24L578.74 301.74L577.13 303.49L575.92 305.70L575.69 307.71L575.94 309.26L577.56 312.78L578.49 314.28L581.28 317.04L582.72 317.95L585.77 320.45Z" data-ward="7" /><path id="ward-8" class="ward" d="M997.18 464.43L994.63 461.78L991.69 458.70L988.62 455.28L986.94 453.40L984.41 450.58L982.90 448.89L982.11 447.22L980.16 443.81L979.00 441.79L976.01 435.34L975.27 438.25L974.77 440.26L974.19 442.00L972.53 445.80L971.85 447.30L971.25 448.94L963.40 449.80L961.13 449.76L952.87 449.56L950.95 449.35L948.43 448.21L944.19 443.64L941.49 440.74L937.01 434.61L934.60 429.02L933.71 426.61L932.64 424.05L931.26 421.62L926.65 418.85L924.10 417.91L917.84 416.18L905.08 415.77L902.46 414.72L892.65 410.42L890.23 409.36L887.61 408.22L879.58 410.24L877.88 410.66L875.87 411.17L870.59 411.85L863.11 412.83L859.06 413.88L854.91 419.95L850.00 425.12L847.22 424.34L845.15 423.02L842.88 421.31L840.77 418.94L839.67 417.18L838.56 415.30L837.17 413.76L835.26 412.81L832.50 411.77L829.95 411.15L828.01 410.09L826.35 409.33L824.38 408.91L821.48 408.94L819.87 409.53L818.29 410.51L816.74 411.85L813.56 414.83L811.43 416.54L810.26 418.03L808.94 419.46L807.50 420.86L805.00 422.91L803.29 423.50L801.30 423.95L799.34 424.46L797.45 424.39L788.45 432.31L786.54 433.12L784.29 433.78L780.48 434.30L778.92 435.62L778.01 437.86L777.96 442.10L778.23 443.64L778.68 446.92L779.26 450.46L780.03 455.51L780.45 457.02L780.89 459.52L780.92 462.13L780.67 464.48L779.23 469.73L774.28 475.61L772.67 478.14L772.17 482.16L773.81 484.03L776.68 483.08L778.26 482.27L780.25 481.40L784.05 480.17L785.65 478.86L787.04 477.78L788.82 476.21L794.29 475.56L796.59 475.90L799.61 476.88L802.98 477.44L806.03 478.31L809.27 479.16L813.31 479.55L815.39 479.32L818.24 479.07L820.37 479.55L822.56 480.22L824.16 480.67L826.82 481.76L829.09 482.47L831.44 483.11L834.43 484.09L836.18 484.77L838.39 485.24L842.27 486.14L844.93 486.81L847.36 487.32L848.86 487.77L851.99 488.22L856.64 488.08L858.96 490.24L859.05 493.46L858.85 495.54L859.85 498.51L861.69 502.78L844.21 513.08L868.76 554.35L876.94 546.36L877.43 548.45L877.79 549.94L878.56 551.65L879.34 553.27L880.05 555.25L880.93 558.13L881.19 560.48L881.44 562.20L881.94 564.61L883.08 569.94L883.35 571.76L882.96 573.50L883.10 575.35L883.82 578.13L885.12 580.37L884.76 585.17L882.02 589.84L880.53 591.90L879.11 595.43L878.03 598.09L876.93 600.52L875.96 605.87L878.65 609.30L881.47 611.09L886.56 614.88L889.67 617.72L892.77 621.47L893.75 622.95L894.86 624.60L896.53 627.11L897.72 628.88L898.69 631.46L901.45 639.24L902.68 649.36L903.06 658.59L903.48 661.39L904.17 664.10L905.29 666.36L906.00 669.79L909.49 668.18L917.47 664.49L915.87 658.27L918.50 656.12L936.83 641.17L935.56 635.07L946.79 616.47L947.56 615.00L952.98 585.72L970.70 572.36L985.02 564.09L988.01 560.87L995.57 552.72L979.91 541.85L985.84 537.16L985.27 530.75L985.40 528.26L985.59 525.15L985.89 523.43L991.52 526.80L994.48 522.51L999.26 515.58L992.02 510.41L996.84 502.03L997.88 498.00L999.14 493.12L999.20 491.30L999.28 487.70L999.34 485.42L999.83 479.94L999.84 479.84L999.82 479.02L999.87 476.78L999.93 475.34L999.94 475.22L999.99 473.23L1000.00 470.55L999.73 468.66L999.28 467.47L998.92 466.92L998.23 465.88L997.18 464.43Z" data-ward="8" /><path id="ward-2" class="ward" d="M168.34 21.94L171.78 25.05L170.58 26.82L167.05 32.01L165.15 34.81L164.10 36.35L163.38 38.05L161.91 41.50L160.10 45.76L161.74 48.95L162.66 51.19L165.97 59.26L166.89 61.50L167.62 63.14L174.51 72.51L214.49 142.51L209.55 144.22L206.36 146.60L202.06 148.18L207.34 150.16L213.49 151.31L216.92 152.01L221.77 153.02L224.73 154.56L226.67 155.82L231.51 157.37L233.50 158.07L236.47 158.15L239.26 158.43L240.87 158.91L242.34 159.50L244.61 159.95L246.24 160.34L248.59 160.37L250.45 160.28L251.78 158.71L252.72 157.25L253.83 155.37L255.04 154.45L257.04 154.64L260.05 154.98L262.52 155.04L263.79 153.07L264.65 151.00L265.20 149.23L265.43 146.59L265.62 144.66L266.64 142.66L268.47 141.18L270.85 141.37L272.68 141.15L274.39 140.95L277.11 140.08L279.10 138.85L280.43 137.76L282.75 135.74L284.28 134.11L285.50 133.07L287.46 131.84L291.39 130.15L295.19 129.87L296.96 129.76L298.67 129.70L300.97 129.84L304.88 130.12L307.15 130.52L309.72 129.25L311.99 127.09L316.34 125.19L319.13 122.77L321.49 120.56L322.95 119.86L325.14 119.91L329.07 120.42L330.76 120.56L333.95 120.42L336.94 120.19L340.12 119.57L342.72 118.31L345.71 117.50L348.67 116.40L352.58 114.95L355.90 114.05L362.38 115.17L364.43 115.93L367.28 117.02L369.33 117.53L372.12 117.39L374.50 116.21L377.69 113.96L379.63 112.98L382.64 111.58L385.88 110.63L388.84 111.19L390.96 112.35L389.32 115.00L388.40 116.24L387.07 118.00L385.24 119.94L375.46 132.92L372.57 141.48L410.22 179.61L412.59 177.43L424.39 189.90L428.71 193.82L447.87 180.00L457.80 166.13L467.54 152.52L466.29 151.44L413.15 105.60L410.13 104.26L407.27 106.08L412.68 92.43L451.63 105.98L466.31 111.08L470.43 114.07L471.86 115.13L475.31 117.69L485.53 123.43L492.06 93.70L492.82 89.55L493.04 87.89L493.49 77.68L491.33 62.69L486.58 56.67L482.37 56.22L476.24 56.10L472.52 56.02L466.51 55.02L463.41 54.37L461.78 53.84L455.28 51.20L450.00 51.44L445.14 50.86L438.88 50.87L436.28 51.82L432.18 52.01L429.86 49.42L426.97 50.27L424.09 51.11L421.50 50.32L419.67 50.83L413.88 52.37L413.90 48.08L413.64 41.37L407.51 35.22L406.16 34.29L401.94 31.39L398.45 37.10L395.75 39.86L394.57 41.88L389.62 50.31L384.99 57.05L381.51 62.11L377.48 58.02L374.15 55.56L371.25 53.42L369.11 51.84L367.14 49.63L364.85 47.06L362.68 43.82L361.81 42.52L360.69 40.85L358.70 37.99L354.99 33.72L352.08 30.97L349.45 30.22L347.13 27.32L345.70 26.07L341.47 22.35L334.69 26.57L336.94 37.65L335.34 37.89L332.28 37.52L329.70 35.16L327.20 36.81L323.10 30.17L318.68 26.34L317.01 28.52L311.03 25.60L309.41 27.02L307.72 27.66L300.79 30.30L295.94 32.14L290.72 31.23L288.54 30.85L279.33 29.25L272.67 29.05L270.21 34.55L266.91 33.90L261.45 34.18L258.05 35.97L253.54 33.37L250.33 30.24L246.10 27.43L243.77 25.88L240.60 27.28L235.55 28.72L231.96 29.55L229.46 33.65L225.90 33.90L223.01 32.52L221.23 31.67L220.22 29.13L217.94 27.98L216.09 28.19L214.18 29.83L211.17 29.61L209.72 28.41L207.75 25.81L203.90 27.35L203.94 29.12L204.01 31.83L203.57 36.11L203.19 40.34L202.09 42.58L201.16 44.47L198.81 47.57L197.68 49.07L195.57 51.84L193.71 49.67L191.76 48.65L189.34 49.26L185.77 50.15L183.75 50.42L181.53 49.01L180.19 43.58L180.00 41.36L179.39 37.97L185.08 31.55L182.91 28.76L182.05 27.36L180.16 24.23L177.75 21.41L177.81 19.13L175.41 15.85L173.49 12.15L171.57 8.45L169.43 12.40L168.19 14.70L166.86 17.15L167.61 19.58L168.34 21.94Z" data-ward="2" /><path id="ward-3" class="ward" d="M372.57 141.48L375.46 132.92L385.24 119.94L387.07 118.00L388.40 116.24L389.32 115.00L390.96 112.35L388.84 111.19L385.88 110.63L382.64 111.58L379.63 112.98L377.69 113.96L374.50 116.21L372.12 117.39L369.33 117.53L367.28 117.02L364.43 115.93L362.38 115.17L355.90 114.05L352.58 114.95L348.67 116.40L345.71 117.50L342.72 118.31L340.12 119.57L336.94 120.19L333.95 120.42L330.76 120.56L329.07 120.42L325.14 119.91L322.95 119.86L321.49 120.56L319.13 122.77L316.34 125.19L311.99 127.09L309.72 129.25L307.15 130.52L304.88 130.12L300.97 129.84L298.67 129.70L296.96 129.76L295.19 129.87L291.39 130.15L287.46 131.84L285.50 133.07L284.28 134.11L282.75 135.74L280.43 137.76L279.10 138.85L277.11 140.08L274.39 140.95L272.68 141.15L270.85 141.37L268.47 141.18L266.64 142.66L265.62 144.66L265.43 146.59L265.20 149.23L264.65 151.00L263.79 153.07L262.52 155.04L260.05 154.98L257.04 154.64L255.04 154.45L253.83 155.37L252.72 157.25L251.78 158.71L250.45 160.28L248.59 160.37L246.24 160.34L244.61 159.95L242.34 159.50L240.87 158.91L239.26 158.43L236.47 158.15L233.50 158.07L231.51 157.37L226.67 155.82L224.73 154.56L221.77 153.02L216.92 152.01L213.49 151.31L207.34 150.16L202.06 148.18L200.38 147.55L198.70 147.38L197.18 146.74L194.38 145.22L192.42 143.72L188.23 139.42L186.74 137.57L182.56 132.12L180.90 133.52L179.75 134.57L176.68 138.99L175.95 140.53L175.81 142.10L175.69 143.81L172.73 147.88L171.16 148.27L169.52 148.13L166.78 148.21L164.97 148.65L163.33 149.36L163.23 151.74L161.08 155.12L159.79 156.63L158.73 157.96L157.54 160.54L154.80 164.30L151.75 168.70L149.62 172.43L147.79 175.99L146.45 178.32L151.22 182.48L152.58 184.05L155.60 189.32L157.73 193.45L160.14 197.79L163.44 202.44L160.91 204.20L206.35 236.10L203.24 245.19L216.15 249.26L333.34 285.58L375.32 301.64L377.46 295.66L382.23 282.49L382.72 280.04L382.99 275.67L383.01 273.12L381.30 270.14L379.38 268.55L378.79 265.82L382.08 262.30L384.28 260.71L387.08 259.04L388.39 258.23L390.10 257.03L392.15 255.42L393.66 253.31L392.61 251.51L391.94 250.12L389.87 247.37L388.69 245.74L387.66 244.30L385.19 242.01L383.80 240.88L381.01 239.60L379.49 238.56L377.96 237.52L376.48 236.00L374.73 233.56L372.56 229.30L370.71 227.50L369.30 225.29L368.44 223.63L367.44 221.42L366.24 218.91L365.02 216.76L364.32 214.77L363.98 211.26L364.21 208.80L364.46 205.34L364.28 203.16L362.33 197.62L361.19 195.30L360.30 193.12L359.50 190.86L358.88 187.27L358.94 183.54L359.28 180.96L360.08 176.47L361.03 172.28L362.20 167.97L363.11 164.88L365.27 159.83L367.77 156.43L369.98 154.53L370.90 151.70L371.04 149.85L371.04 146.28L372.16 144.49L372.57 141.48Z" data-ward="3" /><path id="ward-4" class="ward" d="M575.69 307.71L575.92 305.70L577.13 303.49L578.74 301.74L581.97 299.24L584.17 297.48L586.07 295.79L585.72 292.35L584.38 291.49L581.90 289.89L551.55 279.28L550.47 278.04L548.90 276.22L545.52 272.30L544.09 270.65L540.79 266.83L531.33 260.82L521.47 257.32L505.45 255.14L503.73 254.91L497.21 253.29L494.25 252.53L483.50 249.74L476.52 247.93L473.00 245.62L471.64 244.72L468.37 242.57L465.97 240.99L455.14 238.13L451.81 235.42L445.04 229.93L439.89 220.78L433.48 216.24L430.09 211.26L429.11 209.82L427.81 206.39L426.66 202.34L427.60 199.77L428.18 198.17L428.78 196.53L428.71 193.82L424.39 189.90L412.59 177.43L410.22 179.61L372.57 141.48L372.16 144.49L371.04 146.28L371.04 149.85L370.90 151.70L369.98 154.53L367.77 156.43L365.27 159.83L363.11 164.88L362.20 167.97L361.03 172.28L360.08 176.47L359.28 180.96L358.94 183.54L358.88 187.27L359.50 190.86L360.30 193.12L361.19 195.30L362.33 197.62L364.28 203.16L364.46 205.34L364.21 208.80L363.98 211.26L364.32 214.77L365.02 216.76L366.24 218.91L367.44 221.42L368.44 223.63L369.30 225.29L370.71 227.50L372.56 229.30L374.73 233.56L376.48 236.00L377.96 237.52L379.49 238.56L381.01 239.60L383.80 240.88L385.19 242.01L387.66 244.30L388.69 245.74L389.87 247.37L391.94 250.12L392.61 251.51L393.66 253.31L392.15 255.42L390.10 257.03L388.39 258.23L387.08 259.04L384.28 260.71L382.08 262.30L378.79 265.82L379.38 268.55L381.30 270.14L383.01 273.12L382.99 275.67L382.72 280.04L382.23 282.49L377.46 295.66L375.32 301.64L393.66 321.68L398.80 327.25L455.58 367.87L464.15 373.98L465.60 375.01L473.24 377.25L477.04 378.34L486.69 380.63L490.24 380.21L494.44 379.74L496.98 380.90L500.84 382.68L503.83 384.06L508.15 385.99L510.65 387.10L517.55 390.52L520.15 392.49L523.21 394.98L526.27 397.46L576.84 438.49L580.46 442.57L586.58 447.76L592.23 451.55L595.08 453.46L599.46 456.44L603.06 458.98L606.07 461.23L619.30 466.43L635.90 472.41L636.40 470.73L636.98 468.73L637.75 466.27L640.42 464.71L644.73 461.20L647.45 458.89L647.95 456.43L648.20 454.80L648.28 451.98L648.22 449.84L647.03 447.54L645.26 444.99L644.12 443.68L642.80 441.31L641.94 438.30L640.97 436.74L640.33 435.08L638.56 433.23L635.82 430.03L633.22 428.21L630.92 426.78L628.29 425.04L627.05 424.11L625.11 422.82L623.20 421.39L621.56 418.78L619.35 416.37L618.27 414.10L617.55 412.25L617.00 410.00L616.33 406.92L616.50 403.83L616.66 400.80L615.58 399.46L614.31 398.53L612.71 397.10L610.43 394.63L608.36 392.22L607.00 390.03L605.12 388.71L603.52 388.46L601.27 387.81L598.22 387.43L595.41 386.33L592.38 385.71L589.28 385.71L587.37 385.71L585.35 385.65L586.15 382.56L587.23 380.54L589.12 377.25L590.97 377.33L595.04 377.82L597.73 378.36L599.24 378.38L601.58 378.17L604.54 377.68L606.48 377.15L609.16 376.20L611.57 375.47L613.48 375.05L616.11 375.13L618.96 375.10L622.17 374.85L624.84 375.47L626.90 372.39L631.07 373.38L628.24 369.94L626.24 368.34L622.64 365.73L619.79 363.57L618.44 362.37L615.31 359.62L611.85 356.98L610.32 355.91L607.32 353.93L604.81 351.40L602.79 348.62L600.47 345.56L598.59 342.17L597.57 339.96L596.92 338.55L595.40 334.65L593.74 330.80L591.77 327.72L590.78 326.40L588.48 323.59L585.77 320.45L582.72 317.95L581.28 317.04L578.49 314.28L577.56 312.78L575.94 309.26L575.69 307.71Z" data-ward="4" /><path id="ward-10" class="ward" d="M898.69 631.46L897.72 628.88L896.53 627.11L894.86 624.60L893.75 622.95L892.77 621.47L889.67 617.72L886.56 614.88L881.47 611.09L878.65 609.30L875.96 605.87L876.93 600.52L878.03 598.09L879.11 595.43L880.53 591.90L882.02 589.84L884.76 585.17L885.12 580.37L883.82 578.13L881.64 578.80L880.61 580.12L880.04 582.86L878.04 585.79L876.66 587.32L875.28 588.85L873.86 590.73L872.00 592.49L868.93 594.40L865.16 594.82L860.81 593.92L855.57 592.01L853.67 591.61L851.24 590.70L845.48 588.49L835.59 589.05L833.90 591.43L833.32 593.82L830.49 594.82L828.47 595.74L825.68 596.34L823.67 596.15L820.86 596.23L818.46 596.96L816.05 597.68L814.06 597.88L811.55 597.43L809.89 597.53L808.23 597.63L806.45 598.08L805.21 599.53L802.64 605.01L801.94 606.72L801.42 608.48L800.74 610.78L799.52 612.55L797.34 612.76L793.07 610.80L787.12 606.67L784.55 606.56L781.47 607.17L780.07 606.51L776.61 603.16L774.22 602.99L769.83 602.76L768.76 600.15L768.72 598.36L767.83 595.05L764.97 584.47L763.38 582.06L761.79 579.64L756.21 575.87L754.72 574.52L750.75 572.33L748.56 570.61L747.03 569.04L745.23 566.98L738.04 562.02L733.73 560.37L729.41 558.72L725.44 557.88L721.12 557.22L717.71 556.93L716.43 556.07L715.36 554.20L715.58 551.82L716.08 550.07L716.95 548.58L717.62 546.62L718.02 544.27L717.21 542.12L715.63 540.02L712.56 537.66L711.07 537.29L708.65 538.16L705.40 541.57L704.26 544.59L702.70 547.68L700.24 549.99L698.74 550.31L697.17 547.43L696.13 545.53L695.07 544.10L693.97 541.12L668.42 495.79L658.75 478.62L647.45 458.89L644.73 461.20L640.42 464.71L637.75 466.27L636.98 468.73L636.40 470.73L635.90 472.41L619.30 466.43L606.07 461.23L605.82 463.20L602.53 488.86L543.22 515.29L528.35 531.66L522.27 540.07L524.34 541.14L585.44 571.32L685.54 646.08L682.31 649.98L682.93 653.07L683.53 656.06L683.34 658.08L683.25 661.95L682.58 664.87L676.09 668.22L670.00 671.36L668.65 673.01L718.89 695.95L726.93 699.52L731.01 700.85L733.01 701.16L734.63 701.41L751.28 714.92L782.41 716.75L786.31 717.36L793.33 716.58L803.94 712.48L806.16 709.38L806.54 704.94L807.89 700.59L811.27 687.44L813.68 687.94L814.56 685.84L815.60 683.37L816.88 681.88L820.60 676.51L822.90 673.53L825.10 671.67L828.19 669.07L835.09 669.52L836.81 669.64L839.34 662.34L843.35 662.52L844.90 662.59L850.14 662.84L854.84 663.05L859.07 663.25L862.37 665.12L866.14 667.25L868.27 668.45L874.12 673.34L878.41 676.91L886.39 676.04L894.45 674.79L897.16 674.07L900.27 672.57L906.00 669.79L905.29 666.36L904.17 664.10L903.48 661.39L903.06 658.59L902.68 649.36L901.45 639.24L898.69 631.46Z" data-ward="10" /><path id="ward-9" class="ward" d="M631.07 373.38L626.90 372.39L624.84 375.47L622.17 374.85L618.96 375.10L616.11 375.13L613.48 375.05L611.57 375.47L609.16 376.20L606.48 377.15L604.54 377.68L601.58 378.17L599.24 378.38L597.73 378.36L595.04 377.82L590.97 377.33L589.12 377.25L587.23 380.54L586.15 382.56L585.35 385.65L587.37 385.71L589.28 385.71L592.38 385.71L595.41 386.33L598.22 387.43L601.27 387.81L603.52 388.46L605.12 388.71L607.00 390.03L608.36 392.22L610.43 394.63L612.71 397.10L614.31 398.53L615.58 399.46L616.66 400.80L616.50 403.83L616.33 406.92L617.00 410.00L617.55 412.25L618.27 414.10L619.35 416.37L621.56 418.78L623.20 421.39L625.11 422.82L627.05 424.11L628.29 425.04L630.92 426.78L633.22 428.21L635.82 430.03L638.56 433.23L640.33 435.08L640.97 436.74L641.94 438.30L642.80 441.31L644.12 443.68L645.26 444.99L647.03 447.54L648.22 449.84L648.28 451.98L648.20 454.80L647.95 456.43L647.45 458.89L658.75 478.62L668.42 495.79L693.97 541.12L695.07 544.10L696.13 545.53L697.17 547.43L698.74 550.31L700.24 549.99L702.70 547.68L704.26 544.59L705.40 541.57L708.65 538.16L711.07 537.29L712.56 537.66L715.63 540.02L717.21 542.12L718.02 544.27L717.62 546.62L716.95 548.58L716.08 550.07L715.58 551.82L715.36 554.20L716.43 556.07L717.71 556.93L721.12 557.22L725.44 557.88L729.41 558.72L733.73 560.37L738.04 562.02L745.23 566.98L747.03 569.04L748.56 570.61L750.75 572.33L754.72 574.52L756.21 575.87L761.79 579.64L763.38 582.06L764.97 584.47L767.83 595.05L768.72 598.36L768.76 600.15L769.83 602.76L774.22 602.99L776.61 603.16L780.07 606.51L781.47 607.17L784.55 606.56L787.12 606.67L793.07 610.80L797.34 612.76L799.52 612.55L800.74 610.78L801.42 608.48L801.94 606.72L802.64 605.01L805.21 599.53L806.45 598.08L808.23 597.63L809.89 597.53L811.55 597.43L814.06 597.88L816.05 597.68L818.46 596.96L820.86 596.23L823.67 596.15L825.68 596.34L828.47 595.74L830.49 594.82L833.32 593.82L833.90 591.43L835.59 589.05L845.48 588.49L851.24 590.70L853.67 591.61L855.57 592.01L860.81 593.92L865.16 594.82L868.93 594.40L872.00 592.49L873.86 590.73L875.28 588.85L876.66 587.32L878.04 585.79L880.04 582.86L880.61 580.12L881.64 578.80L883.82 578.13L883.10 575.35L882.96 573.50L883.35 571.76L883.08 569.94L881.94 564.61L881.44 562.20L881.19 560.48L880.93 558.13L880.05 555.25L879.34 553.27L878.56 551.65L877.79 549.94L877.43 548.45L876.94 546.36L868.76 554.35L844.21 513.08L861.69 502.78L859.85 498.51L858.85 495.54L859.05 493.46L858.96 490.24L856.64 488.08L851.99 488.22L848.86 487.77L847.36 487.32L844.93 486.81L842.27 486.14L838.39 485.24L836.18 484.77L834.43 484.09L831.44 483.11L829.09 482.47L826.82 481.76L824.16 480.67L822.56 480.22L820.37 479.55L818.24 479.07L815.39 479.32L813.31 479.55L809.27 479.16L806.03 478.31L802.98 477.44L799.61 476.88L796.59 475.90L794.29 475.56L788.82 476.21L787.04 477.78L785.65 478.86L784.05 480.17L780.25 481.40L778.26 482.27L776.68 483.08L773.81 484.03L772.17 482.16L772.67 478.14L774.28 475.61L771.95 474.50L769.58 473.69L767.00 472.40L765.37 471.27L763.67 470.49L758.95 468.84L757.24 467.98L745.20 481.31L721.73 434.91L688.09 395.50L687.07 398.79L684.46 401.08L682.66 402.66L679.96 405.08L677.27 405.23L675.89 403.64L673.78 401.02L672.53 399.59L670.36 396.89L669.45 395.59L667.42 392.70L664.70 390.36L662.54 389.10L660.73 388.49L658.73 387.60L656.72 386.72L654.76 385.31L652.63 383.71L650.36 382.20L648.06 380.60L645.79 379.48L643.38 378.33L641.08 377.18L639.03 376.06L636.46 375.16L632.64 373.90L631.07 373.38Z" data-ward="9" /><path id="ward-11" class="ward" d="M734.63 701.41L733.01 701.16L731.01 700.85L726.93 699.52L718.89 695.95L668.65 673.01L670.00 671.36L676.09 668.22L682.58 664.87L683.25 661.95L683.34 658.08L683.53 656.06L682.93 653.07L682.31 649.98L685.54 646.08L585.44 571.32L524.34 541.14L522.27 540.07L519.40 538.71L511.15 535.98L508.51 535.11L501.69 533.83L498.69 536.17L497.01 537.53L493.20 540.80L491.10 541.11L489.01 543.12L484.05 543.54L481.56 548.63L477.00 554.12L469.92 554.44L467.36 554.97L464.12 556.42L458.47 558.35L456.64 559.68L455.62 562.03L455.81 566.78L453.76 569.29L448.10 572.91L436.59 585.09L433.39 587.45L428.86 590.89L427.54 592.23L424.45 595.31L422.98 596.67L418.00 600.10L415.84 599.80L412.71 599.36L406.84 596.48L402.60 595.52L400.86 595.26L395.60 594.49L393.72 592.14L392.06 589.58L390.31 588.37L389.91 590.49L389.90 592.02L389.44 594.57L391.42 596.34L393.50 597.73L411.02 609.28L426.35 616.48L430.24 618.30L433.63 619.73L439.00 621.58L441.71 622.67L447.07 623.80L456.93 626.36L458.57 627.10L460.06 627.77L466.52 630.63L468.92 631.91L476.70 636.06L478.37 638.30L481.65 642.69L483.88 659.85L485.76 674.28L496.40 695.33L508.15 718.59L515.34 723.86L521.72 728.54L529.34 734.76L529.95 736.68L540.11 744.57L541.47 747.66L546.21 754.73L548.44 754.45L554.44 754.14L562.78 756.59L566.79 759.98L568.72 761.48L573.67 765.31L576.26 767.31L582.59 773.18L594.85 779.13L606.85 786.66L613.62 790.91L620.23 794.67L624.66 788.92L623.00 785.02L618.89 775.39L621.62 771.82L623.42 769.47L624.87 762.33L626.23 755.68L627.71 748.43L629.88 746.66L632.47 744.55L635.61 742.31L642.81 731.93L645.86 731.61L648.75 731.90L653.23 732.35L656.77 730.89L659.37 729.82L661.72 728.85L665.70 727.22L675.47 733.28L677.47 731.57L680.11 729.31L683.62 724.23L684.83 722.47L691.86 718.25L700.57 716.86L702.78 715.19L709.25 714.88L714.60 715.61L718.53 714.93L727.98 716.00L733.31 715.22L736.62 715.11L747.33 714.98L751.28 714.92L734.63 701.41Z" data-ward="11" /><path id="ward-13" class="ward" d="M216.15 249.26L203.24 245.19L192.24 264.50L190.52 266.86L176.34 285.99L161.08 283.15L159.55 283.52L156.19 282.84L152.96 282.11L150.09 281.51L147.35 281.29L145.69 282.46L144.43 283.74L142.92 286.03L148.51 292.31L156.37 300.60L161.25 304.74L167.99 309.95L170.55 312.01L173.11 314.08L177.87 317.71L179.43 318.51L161.47 352.63L161.15 365.63L157.47 366.69L156.82 369.08L155.15 373.63L149.93 381.13L152.27 381.96L155.97 383.28L157.67 383.88L158.95 382.96L161.35 381.23L163.23 379.87L167.41 376.86L172.61 377.59L175.49 377.99L177.15 378.22L179.50 378.55L182.04 378.91L188.56 381.23L193.02 382.82L196.92 384.21L200.81 385.60L203.09 388.22L205.08 390.50L207.35 393.12L209.60 395.48L212.79 398.83L215.10 401.25L216.41 402.64L217.66 403.56L220.18 405.45L223.28 407.77L224.87 408.96L227.21 410.29L228.77 411.17L230.36 412.07L232.34 413.18L234.47 414.39L236.25 415.38L248.83 422.89L279.21 446.04L290.38 464.57L324.80 479.54L347.58 489.44L340.80 479.70L339.51 468.21L340.23 465.89L339.94 464.30L339.21 462.21L338.73 459.71L338.32 457.33L338.37 455.06L338.49 453.26L338.15 451.27L337.07 446.16L334.33 443.64L330.98 441.70L327.55 440.19L325.89 439.52L323.28 437.66L320.80 434.82L317.92 431.97L316.84 430.87L315.56 427.17L316.46 423.79L318.19 420.75L319.83 420.24L321.46 420.36L323.43 420.46L325.78 419.99L328.33 418.67L330.55 417.11L333.95 415.81L335.76 415.38L337.30 415.02L340.23 414.19L342.05 413.59L348.30 410.72L350.61 409.83L352.94 408.93L355.35 408.54L359.30 408.32L363.04 408.20L364.88 408.37L368.51 408.72L370.33 408.89L373.95 409.23L375.92 409.53L378.73 409.77L380.37 409.59L384.21 408.79L388.15 407.10L389.73 406.19L391.06 405.20L394.37 402.59L396.22 401.39L397.65 400.35L400.50 398.06L401.83 397.04L403.82 394.37L404.36 391.55L402.84 386.20L402.62 384.31L402.75 382.14L404.72 379.21L407.72 377.21L410.16 376.31L411.91 375.85L413.66 375.39L415.23 375.02L417.46 375.07L421.52 375.85L426.08 376.59L429.43 377.32L432.75 377.74L434.35 378.33L437.30 379.89L441.71 384.15L443.34 387.14L444.41 389.72L445.36 391.53L446.33 393.48L447.54 395.58L448.73 397.04L451.34 398.97L453.24 399.97L455.16 400.99L456.97 401.80L459.87 402.57L462.73 399.06L463.40 397.41L463.58 395.57L464.08 392.88L464.57 390.17L464.78 388.48L464.62 385.37L464.43 383.07L464.09 378.86L464.26 377.29L465.60 375.01L464.15 373.98L455.58 367.87L398.80 327.25L393.66 321.68L375.32 301.64L333.34 285.58L216.15 249.26Z" data-ward="13" /><path id="ward-12" class="ward" d="M389.91 590.49L390.31 588.37L392.06 589.58L393.72 592.14L395.60 594.49L400.86 595.26L402.60 595.52L406.84 596.48L412.71 599.36L415.84 599.80L418.00 600.10L422.98 596.67L424.45 595.31L427.54 592.23L428.86 590.89L433.39 587.45L436.59 585.09L448.10 572.91L453.76 569.29L455.81 566.78L455.62 562.03L456.64 559.68L458.47 558.35L464.12 556.42L467.36 554.97L469.92 554.44L477.00 554.12L481.56 548.63L484.05 543.54L489.01 543.12L491.10 541.11L493.20 540.80L497.01 537.53L498.69 536.17L501.69 533.83L508.51 535.11L511.15 535.98L519.40 538.71L522.27 540.07L528.35 531.66L543.22 515.29L602.53 488.86L605.82 463.20L606.07 461.23L603.06 458.98L599.46 456.44L595.08 453.46L592.23 451.55L586.58 447.76L580.46 442.57L576.84 438.49L526.27 397.46L523.21 394.98L520.15 392.49L517.55 390.52L510.65 387.10L508.15 385.99L503.83 384.06L500.84 382.68L496.98 380.90L494.44 379.74L490.24 380.21L486.69 380.63L477.04 378.34L473.24 377.25L465.60 375.01L464.26 377.29L464.09 378.86L464.43 383.07L464.62 385.37L464.78 388.48L464.57 390.17L464.08 392.88L463.58 395.57L463.40 397.41L462.73 399.06L459.87 402.57L456.97 401.80L455.16 400.99L453.24 399.97L451.34 398.97L448.73 397.04L447.54 395.58L446.33 393.48L445.36 391.53L444.41 389.72L443.34 387.14L441.71 384.15L437.30 379.89L434.35 378.33L432.75 377.74L429.43 377.32L426.08 376.59L421.52 375.85L417.46 375.07L415.23 375.02L413.66 375.39L411.91 375.85L410.16 376.31L407.72 377.21L404.72 379.21L402.75 382.14L402.62 384.31L402.84 386.20L404.36 391.55L403.82 394.37L401.83 397.04L400.50 398.06L397.65 400.35L396.22 401.39L394.37 402.59L391.06 405.20L389.73 406.19L388.15 407.10L384.21 408.79L380.37 409.59L378.73 409.77L375.92 409.53L373.95 409.23L370.33 408.89L368.51 408.72L364.88 408.37L363.04 408.20L359.30 408.32L355.35 408.54L352.94 408.93L350.61 409.83L348.30 410.72L342.05 413.59L340.23 414.19L337.30 415.02L335.76 415.38L333.95 415.81L330.55 417.11L328.33 418.67L325.78 419.99L323.43 420.46L321.46 420.36L319.83 420.24L318.19 420.75L316.46 423.79L315.56 427.17L316.84 430.87L317.92 431.97L320.80 434.82L323.28 437.66L325.89 439.52L327.55 440.19L330.98 441.70L334.33 443.64L337.07 446.16L338.15 451.27L338.49 453.26L338.37 455.06L338.32 457.33L338.73 459.71L339.21 462.21L339.94 464.30L340.23 465.89L339.51 468.21L340.80 479.70L347.58 489.44L352.26 511.17L370.85 525.66L373.51 541.68L380.69 584.90L385.07 592.25L387.27 595.94L391.42 596.34L389.44 594.57L389.90 592.02L389.91 590.49Z" data-ward="12" /><path id="ward-14" class="ward" d="M161.08 283.15L176.34 285.99L190.52 266.86L192.24 264.50L203.24 245.19L206.35 236.10L160.91 204.20L163.44 202.44L160.14 197.79L157.73 193.45L155.60 189.32L152.58 184.05L151.22 182.48L146.45 178.32L143.79 177.60L139.28 174.53L135.72 172.10L123.43 165.59L116.65 163.48L107.81 162.19L103.80 161.22L101.75 160.71L91.79 157.48L88.50 156.85L61.29 223.38L38.04 216.60L34.77 213.05L32.91 215.60L26.73 224.07L23.16 224.39L14.28 231.40L10.81 234.69L6.16 240.63L6.35 242.67L12.00 252.79L17.99 257.97L15.18 264.13L12.38 270.29L8.63 275.62L21.88 294.76L26.08 300.85L24.12 312.43L26.95 319.53L30.44 322.62L36.97 324.89L41.29 328.59L43.19 330.22L50.50 335.57L53.02 342.85L56.12 347.64L56.49 354.23L55.99 361.58L58.54 365.73L60.76 366.10L66.58 360.77L72.26 351.19L82.60 345.66L93.25 357.82L94.54 364.62L98.07 371.46L99.97 375.14L102.23 375.47L107.97 376.32L111.09 379.14L124.51 379.13L127.26 384.51L137.58 383.04L141.70 382.40L145.92 381.75L148.18 381.40L149.93 381.13L155.15 373.63L156.82 369.08L157.47 366.69L161.15 365.63L161.47 352.63L179.43 318.51L177.87 317.71L173.11 314.08L170.55 312.01L167.99 309.95L161.25 304.74L156.37 300.60L148.51 292.31L142.92 286.03L144.43 283.74L145.69 282.46L147.35 281.29L150.09 281.51L152.96 282.11L156.19 282.84L159.55 283.52L161.08 283.15Z" data-ward="14" /><path id="ward-1" class="ward" d="M32.44 176.44L29.95 186.35L33.48 187.20L32.92 189.22L36.14 194.93L37.51 197.38L39.21 199.67L34.92 209.79L34.77 213.05L38.04 216.60L61.29 223.38L88.50 156.85L91.79 157.48L101.75 160.71L103.80 161.22L107.81 162.19L116.65 163.48L123.43 165.59L135.72 172.10L139.28 174.53L143.79 177.60L146.45 178.32L147.79 175.99L149.62 172.43L151.75 168.70L154.80 164.30L157.54 160.54L158.73 157.96L159.79 156.63L161.08 155.12L163.23 151.74L163.33 149.36L164.97 148.65L166.78 148.21L169.52 148.13L171.16 148.27L172.73 147.88L175.69 143.81L175.81 142.10L175.95 140.53L176.68 138.99L179.75 134.57L180.90 133.52L182.56 132.12L186.74 137.57L188.23 139.42L192.42 143.72L194.38 145.22L197.18 146.74L198.70 147.38L200.38 147.55L202.06 148.18L206.36 146.60L209.55 144.22L214.49 142.51L174.51 72.51L165.87 85.15L161.73 91.20L158.80 87.49L151.58 78.34L148.17 74.02L143.17 67.69L141.81 62.30L140.44 56.82L139.12 51.58L128.30 55.35L119.89 58.98L115.24 60.99L110.73 61.08L108.16 59.35L105.63 59.13L101.18 58.75L94.14 56.45L87.61 54.32L80.99 57.71L80.00 55.52L78.48 52.17L76.95 48.78L70.53 41.99L65.14 36.30L63.31 33.52L61.48 30.73L59.38 31.28L55.29 32.36L53.10 32.93L51.05 31.30L49.55 28.88L47.31 25.23L45.73 23.61L43.65 21.83L41.89 20.33L40.58 19.39L39.26 18.43L34.45 20.72L31.19 21.08L29.47 22.01L26.89 20.41L24.54 18.94L22.74 17.82L20.50 17.41L17.22 16.82L14.79 16.39L15.21 20.86L15.38 22.56L15.03 25.33L14.54 29.22L14.18 32.07L13.94 34.02L12.70 36.09L10.44 35.17L8.79 34.50L7.33 33.90L4.41 32.71L0.00 30.91L1.41 36.67L1.82 39.45L3.06 42.47L4.31 45.50L5.94 45.91L9.34 46.76L13.41 49.40L14.93 50.39L15.56 52.82L16.19 57.62L16.62 59.94L17.02 62.13L16.49 67.35L15.52 70.78L14.50 74.04L15.34 79.30L15.68 81.43L15.58 83.52L16.52 87.84L17.37 90.94L18.49 94.24L18.39 96.51L15.16 99.81L13.46 101.54L11.40 103.63L8.99 107.68L7.79 113.24L7.21 116.66L6.92 118.98L6.77 121.48L6.29 129.75L6.10 133.06L8.96 134.17L11.98 135.35L20.42 138.63L27.57 141.41L30.68 146.69L31.78 148.57L32.62 149.98L30.68 154.73L33.07 157.12L35.39 164.71L33.71 171.39L33.05 174.02L32.44 176.44Z" data-ward="1" /></svg>