<svg viewBox="0 0 1000.00 681.22" xmlns="http://www.w3.org/2000/svg"><style>.ward { fill: #e2e8f0; stroke: #fff; stroke-width: 0.5px; } .ward:hover { fill: #cbd5e1; }</style><path id="ward-7" class="ward" d="M688.88 118.17L685.80 114.91L682.48 111.58L675.10 108.37L671.78 105.59L669.71 103.55L667.36 101.23L666.26 96.48L664.38 94.07L661.52 90.42L657.42 79.11L655.17 77.40L652.83 77.22L651.00 77.08L648.44 76.88L647.86 78.38L645.96 83.40L646.24 87.54L645.94 89.16L645.53 91.41L645.60 93.43L645.67 95.30L645.18 96.88L644.13 99.40L643.28 101.00L642.26 102.68L640.97 104.49L639.83 105.89L639.01 108.11L637.70 111.02L632.86 113.72L631.10 114.68L628.48 116.51L627.11 118.50L624.78 121.87L625.54 123.63L625.76 125.16L624.39 127.30L621.67 131.82L622.28 134.27L622.65 135.82L622.80 137.31L622.60 139.65L622.28 141.51L622.96 144.16L624.44 144.48L626.11 144.56L627.56 144.55L629.18 144.62L629.18 146.36L629.12 148.53L629.36 150.34L629.65 153.17L628.57 155.76L626.38 157.13L624.15 157.28L621.45 157.69L619.82 157.97L620.04 160.82L620.34 164.80L620.21 166.31L617.29 166.90L615.63 166.85L614.37 169.27L613.71 170.68L614.02 173.19L615.94 174.94L620.49 179.21L624.99 182.71L628.84 185.82L637.85 192.32L641.42 194.15L644.10 195.59L648.04 197.43L655.09 199.65L658.77 200.46L661.09 200.97L663.12 201.41L666.28 202.02L670.74 203.01L675.12 204.01L681.95 206.59L680.97 209.26L681.02 211.28L682.35 212.93L683.67 216.64L685.78 220.91L688.01 224.02L690.17 226.98L689.45 228.18L688.62 229.59L687.89 230.98L687.11 232.51L686.49 233.82L685.78 235.36L687.23 237.19L691.77 239.68L690.77 241.57L689.48 244.00L692.65 248.85L695.74 253.49L696.13 255.55L696.23 257.23L696.21 259.41L696.14 261.04L696.08 262.68L696.05 264.73L695.37 267.85L693.63 270.04L696.72 271.80L700.80 273.32L704.29 274.72L707.72 276.04L712.47 277.95L713.89 278.81L713.16 282.08L712.82 284.02L711.85 288.57L711.42 289.92L711.02 293.90L710.89 299.10L710.85 302.39L710.77 305.12L710.48 309.37L709.80 312.65L709.18 316.97L709.84 321.22L712.06 320.90L713.11 322.95L713.91 324.37L715.09 325.15L716.54 325.52L719.09 325.83L721.74 326.09L724.07 326.27L727.30 326.93L730.94 327.51L732.92 327.73L733.67 326.49L734.82 324.61L736.60 324.43L739.88 324.29L741.58 324.15L743.92 324.17L746.08 324.84L747.81 325.24L749.37 325.76L751.51 326.27L753.96 327.14L755.90 328.26L758.23 329.36L760.58 330.62L762.09 331.61L764.33 333.07L767.14 335.49L769.06 337.79L772.31 340.80L773.87 341.57L775.12 340.94L777.24 341.69L779.05 343.32L782.30 346.21L783.45 347.04L784.97 347.39L787.87 347.97L790.75 348.48L794.49 349.42L799.58 350.63L804.32 351.31L807.60 351.50L811.60 352.09L812.32 348.16L813.12 342.61L813.62 339.84L814.07 337.96L814.56 335.92L815.14 332.92L815.69 331.45L816.54 329.16L817.94 326.78L818.87 325.13L819.64 323.53L820.61 320.96L821.85 317.10L822.77 314.18L822.34 309.67L821.60 307.88L820.35 306.58L819.49 304.55L819.27 302.29L819.89 300.24L823.97 299.04L825.31 298.76L826.97 298.63L829.69 298.63L831.27 298.73L833.00 298.77L837.06 298.54L839.29 298.37L843.13 298.32L842.78 296.48L842.28 294.29L842.22 292.70L842.23 290.62L842.09 288.25L841.82 285.19L842.31 282.17L843.36 279.16L844.35 276.95L845.05 274.18L844.27 272.98L844.49 270.76L843.35 269.81L841.58 268.83L839.23 268.00L835.54 267.37L832.34 267.41L830.24 266.95L828.18 265.51L826.53 264.26L825.08 262.82L821.50 261.74L819.21 261.49L816.76 261.35L814.52 260.67L812.51 260.40L810.65 258.72L807.38 258.06L805.90 257.34L804.28 255.16L803.04 254.02L800.62 252.33L799.01 247.80L796.52 244.14L793.95 242.32L791.40 241.03L788.13 237.55L784.23 235.15L779.06 230.26L774.72 226.97L770.74 222.77L766.07 223.12L763.98 221.87L762.20 220.56L762.04 218.89L762.76 216.90L763.13 215.27L759.17 212.94L756.19 212.31L753.31 211.60L751.98 211.29L748.95 210.61L746.36 210.39L743.72 210.27L743.74 206.76L743.30 204.07L742.70 201.40L741.63 198.13L740.66 195.30L739.63 192.83L738.33 189.85L737.30 187.74L735.96 184.94L734.82 181.97L733.98 179.22L733.37 177.00L732.80 174.62L731.24 174.90L729.27 175.18L727.27 176.24L725.09 177.55L721.67 178.40L723.64 176.07L722.77 173.91L720.61 173.17L719.03 171.70L717.87 169.99L715.88 167.84L713.00 165.05L710.56 161.98L710.46 160.20L709.49 158.48L708.22 156.63L707.23 144.23L707.93 140.80L709.31 140.74L710.98 140.85L714.30 140.21L713.76 134.90L713.34 130.70L713.07 128.90L711.53 128.47L707.32 127.28L705.36 126.86L703.28 126.70L700.81 125.93L696.84 125.82L694.94 125.45L692.76 124.92L690.31 120.65L688.88 118.17Z" data-ward="7" /><path id="ward-9" class="ward" d="M938.77 351.99L940.49 351.20L942.25 350.40L944.43 349.41L944.21 347.16L943.92 344.14L943.62 341.10L943.28 337.61L944.06 333.70L944.85 329.78L950.98 329.98L955.89 330.15L958.83 330.57L959.85 327.85L958.36 327.64L954.45 326.88L951.06 326.18L946.42 325.64L943.01 324.94L939.41 325.20L934.66 326.90L932.76 327.56L928.52 328.16L924.94 328.01L918.17 327.63L915.91 327.26L913.05 326.78L902.34 324.82L897.79 323.99L889.91 321.27L883.51 319.96L881.29 319.62L876.25 318.84L864.50 316.73L857.26 316.28L845.41 315.03L840.93 314.76L836.78 314.51L831.49 314.12L822.77 314.18L821.85 317.10L820.61 320.96L819.64 323.53L818.87 325.13L817.94 326.78L816.54 329.16L815.69 331.45L815.14 332.92L814.56 335.92L814.07 337.96L813.62 339.84L813.12 342.61L812.32 348.16L811.60 352.09L807.60 351.50L804.32 351.31L799.58 350.63L794.49 349.42L790.75 348.48L787.87 347.97L784.97 347.39L783.45 347.04L782.30 346.21L779.05 343.32L777.24 341.69L775.12 340.94L773.87 341.57L772.31 340.80L769.06 337.79L767.14 335.49L764.33 333.07L762.09 331.61L760.58 330.62L758.23 329.36L755.90 328.26L753.96 327.14L751.51 326.27L749.37 325.76L747.81 325.24L746.08 324.84L743.92 324.17L741.58 324.15L739.88 324.29L736.60 324.43L734.82 324.61L733.67 326.49L732.92 327.73L730.94 327.51L727.30 326.93L724.07 326.27L721.74 326.09L719.09 325.83L716.54 325.52L715.09 325.15L713.91 324.37L713.11 322.95L712.06 320.90L709.84 321.22L710.35 324.37L710.67 326.34L710.48 329.26L707.58 331.19L706.50 332.52L705.67 334.91L704.25 336.52L702.86 338.63L699.79 340.54L697.82 341.91L696.18 343.70L693.43 346.17L685.19 346.25L680.06 348.54L677.12 351.53L676.31 355.12L675.63 358.75L675.31 360.49L673.29 362.06L665.85 358.37L664.70 362.25L663.69 368.69L662.97 371.93L668.60 373.22L670.77 374.21L675.52 376.40L680.65 378.93L688.59 382.66L691.35 383.22L694.12 383.77L696.90 384.32L704.35 385.81L712.89 387.52L717.49 400.98L720.16 403.68L724.03 407.59L724.91 413.45L724.54 415.45L723.70 420.11L723.28 422.57L722.77 425.54L722.60 427.42L722.06 433.50L723.18 443.81L723.69 448.45L723.88 450.20L725.74 451.39L733.81 456.57L734.06 459.45L736.77 469.79L734.31 474.95L733.77 486.03L736.14 490.51L740.00 499.23L747.76 504.22L757.94 506.33L765.81 505.44L768.66 509.42L769.96 508.59L771.86 507.08L776.94 507.32L781.28 507.53L784.72 507.60L786.84 507.40L793.19 506.49L794.70 500.77L795.73 494.00L797.21 488.89L804.77 493.04L806.92 493.73L809.38 494.52L811.45 495.18L813.28 495.76L815.32 496.41L817.43 497.19L819.53 497.97L822.49 497.33L826.84 495.51L826.29 492.98L825.37 488.71L823.44 484.59L822.45 481.32L822.29 479.31L822.02 475.90L822.07 471.75L822.39 469.24L822.77 466.17L823.00 464.37L823.36 461.48L823.79 458.04L824.00 456.32L825.44 457.42L827.30 458.12L828.57 458.59L829.92 459.10L832.27 459.98L834.23 460.72L835.67 461.26L837.78 462.05L839.35 459.12L840.36 457.24L824.70 447.99L816.71 444.53L810.87 443.66L812.42 436.75L814.31 428.50L814.63 427.10L814.52 421.67L814.06 419.76L813.00 415.36L812.08 411.53L806.90 403.32L806.82 401.94L808.57 400.34L807.35 398.23L806.39 394.86L807.11 391.84L808.40 386.41L811.47 383.41L812.25 379.70L810.95 375.59L808.92 369.23L810.78 366.17L812.64 363.12L817.43 363.28L821.33 363.42L824.16 363.52L827.23 363.62L829.91 363.72L830.89 360.84L831.33 359.55L829.01 357.62L827.92 356.71L826.87 355.84L825.77 354.92L824.53 353.88L822.43 352.14L823.07 350.61L823.64 349.25L824.28 347.73L826.79 346.22L829.57 344.54L831.42 345.11L834.38 346.03L836.98 346.84L838.36 347.27L840.00 347.78L842.23 348.47L844.95 348.47L847.67 348.46L850.99 348.14L852.79 347.97L854.99 347.76L856.58 347.60L859.71 347.30L861.64 347.88L863.08 348.32L864.87 348.86L866.50 349.35L867.93 349.78L869.28 350.40L870.80 351.10L872.35 351.82L874.40 352.77L876.46 353.71L878.36 354.59L880.07 355.37L884.75 354.85L886.98 347.68L887.54 345.92L888.10 344.11L891.87 344.57L894.65 344.91L896.06 345.08L899.42 345.80L901.22 346.18L904.13 346.26L908.14 346.37L908.50 349.71L916.45 349.74L919.22 351.61L924.72 352.04L932.08 351.25L938.77 351.99Z" data-ward="9" /><path id="ward-15" class="ward" d="M58.31 307.22L55.62 306.07L53.78 304.40L51.56 302.32L49.00 300.72L45.05 302.38L40.30 303.34L37.47 304.15L34.41 304.24L31.69 305.81L29.50 306.74L29.09 316.10L30.92 317.47L32.56 318.70L34.03 319.98L35.50 321.25L38.71 324.10L41.55 324.65L46.16 325.54L49.03 325.28L50.41 325.88L52.91 326.98L55.00 328.96L56.23 330.65L57.45 332.32L59.31 334.13L60.87 335.55L62.89 337.38L65.90 339.69L68.09 341.00L69.59 341.77L72.92 343.57L76.23 344.93L77.41 346.02L78.68 347.62L79.96 349.38L80.64 350.80L79.64 354.79L78.52 359.30L78.90 362.86L78.67 367.46L78.24 374.14L77.74 381.88L78.29 387.88L77.34 395.16L79.73 396.85L90.74 399.07L90.58 401.05L90.26 405.23L90.13 407.63L91.42 408.48L93.99 410.16L93.88 415.32L93.85 416.71L93.82 418.25L94.51 419.56L96.02 422.42L96.33 423.82L96.66 425.31L97.02 426.96L97.35 428.46L97.04 432.61L96.90 434.41L96.50 439.70L96.36 441.47L95.85 443.98L95.14 447.45L93.50 451.36L92.63 453.45L91.40 456.39L89.18 457.45L87.27 461.98L86.20 464.50L84.63 468.21L83.20 474.57L81.65 474.91L82.13 479.30L81.15 483.66L84.19 484.38L88.52 487.71L92.98 491.16L95.74 493.28L97.41 494.56L101.78 496.40L103.34 497.06L105.24 497.86L107.54 498.82L109.36 499.59L110.64 500.13L112.96 501.11L116.27 502.50L120.36 504.15L122.92 505.19L126.14 506.49L128.73 507.54L130.74 508.35L134.41 509.89L136.67 510.61L138.58 511.21L140.35 511.80L142.27 512.44L144.97 512.77L147.56 513.09L150.78 514.31L153.86 515.48L156.99 516.67L163.10 518.99L169.32 521.36L172.35 522.51L174.80 523.48L176.89 524.31L178.66 525.01L180.73 525.83L179.73 528.04L178.19 531.43L176.91 534.25L175.99 536.12L175.06 537.99L174.60 540.14L174.38 542.05L174.31 544.13L174.03 546.04L173.71 548.31L173.43 550.22L172.65 553.08L173.34 554.90L174.08 556.82L173.13 559.43L172.39 561.29L174.00 566.46L174.04 568.27L172.17 570.11L171.52 571.58L173.21 573.34L172.45 576.31L170.09 580.27L168.61 586.07L169.49 589.78L172.85 590.99L176.14 592.01L179.31 593.42L182.17 589.07L184.63 584.03L187.27 578.97L190.47 572.52L192.53 565.87L193.58 559.35L193.76 552.83L193.69 547.63L193.66 545.27L195.31 543.86L197.90 544.41L200.88 545.02L204.55 545.90L209.78 546.99L212.52 546.78L217.09 545.80L218.18 544.61L220.00 542.56L222.62 539.75L223.90 538.68L228.47 535.86L231.06 534.91L235.71 533.78L239.63 533.24L242.50 532.67L244.46 532.28L246.48 531.87L250.47 531.18L255.31 532.70L257.54 534.60L258.72 536.09L259.91 537.85L261.36 539.11L262.85 539.21L266.07 538.91L270.36 538.76L273.81 538.91L276.71 539.01L280.82 539.07L284.79 539.52L288.03 540.13L291.81 539.83L292.80 536.87L294.01 536.13L296.18 535.16L297.78 533.95L299.06 533.22L302.58 533.42L306.42 534.60L309.30 535.20L311.67 535.65L315.17 536.26L318.45 537.37L319.80 537.75L322.95 537.59L326.57 538.21L329.84 539.09L332.06 540.24L332.80 542.16L333.57 545.85L334.06 549.59L334.83 553.25L335.53 556.82L335.77 558.36L337.97 558.53L340.09 558.49L340.49 560.18L340.22 564.55L340.53 568.48L340.96 571.07L341.29 573.50L342.38 575.17L343.88 575.76L346.13 575.66L349.90 575.97L353.32 575.81L355.65 575.71L358.24 575.58L360.28 575.47L363.38 575.42L366.50 574.99L368.87 575.14L371.24 575.43L373.00 574.70L374.17 573.66L380.03 574.26L381.66 574.77L384.27 575.68L385.79 576.25L386.90 574.75L387.69 572.58L388.28 570.37L388.86 568.55L389.44 566.05L389.17 562.93L389.99 559.25L390.97 556.78L391.44 554.82L392.02 553.02L382.58 546.54L380.47 545.94L375.96 544.88L372.66 543.89L368.98 542.99L365.59 541.71L363.76 540.76L362.47 539.61L361.32 536.00L360.38 533.29L359.10 531.63L355.84 529.56L352.90 529.81L351.41 530.03L348.87 530.29L345.61 530.16L343.46 529.64L341.83 529.11L339.77 528.37L338.27 527.65L336.98 525.96L335.58 524.16L333.50 522.60L332.16 520.71L331.05 518.62L329.72 516.34L328.26 514.33L327.10 512.25L326.02 510.53L325.09 509.33L322.65 507.95L319.42 507.05L316.83 506.26L314.74 505.50L312.87 504.37L311.25 503.27L309.83 501.92L308.70 500.73L307.27 499.63L305.85 499.08L303.63 498.45L301.85 498.12L299.91 497.80L298.14 499.56L296.98 502.59L295.11 505.09L292.52 506.96L290.71 507.60L289.22 508.12L286.53 508.73L279.68 509.01L275.05 508.92L271.30 508.66L269.06 509.75L267.11 510.71L265.01 511.22L262.39 511.87L259.89 512.76L255.97 513.03L254.08 512.71L252.10 512.45L249.81 512.31L249.10 514.54L246.97 516.16L244.20 516.82L242.19 517.45L240.61 517.61L237.67 517.91L239.63 515.36L242.32 512.73L244.29 507.62L247.04 502.25L249.46 497.59L251.76 494.51L254.31 491.76L255.43 489.53L255.43 486.78L254.45 484.55L254.12 482.58L255.65 481.00L256.48 479.70L257.46 477.60L259.62 475.11L261.53 472.29L263.56 471.37L265.00 470.06L266.44 468.75L270.73 466.77L266.31 464.64L263.46 463.87L259.71 461.79L255.74 459.57L254.53 458.73L253.23 457.84L251.89 456.87L249.83 455.39L246.97 453.43L243.12 451.02L239.01 449.19L237.00 447.51L237.69 444.61L235.95 442.89L232.12 444.59L229.61 441.35L225.35 437.35L220.05 434.69L213.29 431.68L205.02 429.77L200.06 429.64L196.58 429.32L192.97 428.42L189.02 427.96L185.47 427.44L182.18 427.30L178.44 425.71L175.36 424.03L174.11 422.49L165.67 418.94L162.42 418.23L160.76 417.87L158.87 417.78L155.96 417.65L150.16 417.82L146.77 417.92L144.10 417.48L141.25 417.01L133.23 415.63L131.78 414.56L130.27 413.24L129.25 410.99L128.53 408.95L129.06 405.40L129.04 402.40L128.88 397.56L128.84 394.74L128.19 392.19L127.29 389.44L126.38 387.63L124.56 384.88L122.88 381.25L120.88 376.93L120.12 372.73L119.26 370.00L115.98 369.37L113.11 369.05L110.06 368.07L110.58 366.55L105.42 366.01L102.34 365.41L100.15 364.98L99.94 363.47L100.68 361.12L101.38 359.42L102.14 357.87L103.88 357.16L106.89 355.57L108.11 353.42L108.68 348.97L108.28 346.14L107.84 342.90L110.59 342.45L113.59 342.55L116.83 342.11L119.04 339.84L123.56 339.41L127.91 338.59L130.78 338.25L134.75 337.76L137.46 337.74L135.52 334.22L137.05 331.33L137.76 328.83L138.55 326.21L139.09 324.60L139.62 322.17L139.97 319.61L140.49 317.21L140.73 315.63L139.14 314.68L135.72 314.29L132.37 314.43L129.50 314.42L123.96 314.75L120.66 315.01L118.11 315.59L114.35 316.16L110.78 317.17L105.08 318.04L102.10 318.11L99.35 317.30L97.92 315.63L96.91 314.46L95.13 312.72L91.84 311.51L89.46 310.66L87.24 309.31L84.91 308.16L80.39 306.96L75.97 306.12L73.37 305.91L70.39 306.70L68.22 307.71L65.92 307.78L61.51 307.77L58.31 307.22Z" data-ward="15" /><path id="ward-8" class="ward" d="M714.30 140.21L710.98 140.85L709.31 140.74L707.93 140.80L707.23 144.23L708.22 156.63L709.49 158.48L710.46 160.20L710.56 161.98L713.00 165.05L715.88 167.84L717.87 169.99L719.03 171.70L720.61 173.17L722.77 173.91L723.64 176.07L721.67 178.40L725.09 177.55L727.27 176.24L729.27 175.18L731.24 174.90L732.80 174.62L733.37 177.00L733.98 179.22L734.82 181.97L735.96 184.94L737.30 187.74L738.33 189.85L739.63 192.83L740.66 195.30L741.63 198.13L742.70 201.40L743.30 204.07L743.74 206.76L743.72 210.27L746.36 210.39L748.95 210.61L751.98 211.29L753.31 211.60L756.19 212.31L759.17 212.94L763.13 215.27L762.76 216.90L762.04 218.89L762.20 220.56L763.98 221.87L766.07 223.12L770.74 222.77L774.72 226.97L779.06 230.26L784.23 235.15L788.13 237.55L791.40 241.03L793.95 242.32L796.52 244.14L799.01 247.80L800.62 252.33L803.04 254.02L804.28 255.16L805.90 257.34L807.38 258.06L810.65 258.72L812.51 260.40L814.52 260.67L816.76 261.35L819.21 261.49L821.50 261.74L825.08 262.82L826.53 264.26L828.18 265.51L830.24 266.95L832.34 267.41L835.54 267.37L839.23 268.00L841.58 268.83L843.35 269.81L844.49 270.76L844.27 272.98L845.05 274.18L844.35 276.95L843.36 279.16L842.31 282.17L841.82 285.19L842.09 288.25L842.23 290.62L842.22 292.70L842.28 294.29L842.78 296.48L843.13 298.32L839.29 298.37L837.06 298.54L833.00 298.77L831.27 298.73L829.69 298.63L826.97 298.63L825.31 298.76L823.97 299.04L819.89 300.24L819.27 302.29L819.49 304.55L820.35 306.58L821.60 307.88L822.34 309.67L822.77 314.18L831.49 314.12L836.78 314.51L840.93 314.76L845.41 315.03L857.26 316.28L864.50 316.73L876.25 318.84L881.29 319.62L883.51 319.96L889.91 321.27L897.79 323.99L902.34 324.82L913.05 326.78L915.91 327.26L918.17 327.63L924.94 328.01L928.52 328.16L932.76 327.56L934.66 326.90L939.41 325.20L943.01 324.94L946.42 325.64L951.06 326.18L954.45 326.88L958.36 327.64L959.85 327.85L960.86 322.89L963.14 318.01L963.88 315.86L966.55 310.42L969.75 302.57L971.96 289.78L972.97 281.63L976.97 281.93L978.50 266.63L987.70 267.56L989.66 258.90L989.81 257.38L991.31 241.99L992.33 238.08L993.98 231.81L1000.00 225.95L997.14 224.62L994.06 223.19L989.88 221.25L990.41 217.00L991.73 206.51L987.16 204.72L986.07 207.38L974.97 212.08L970.89 211.45L967.89 210.99L965.82 210.67L955.02 205.99L950.46 203.42L945.85 200.81L943.46 200.16L942.54 195.50L940.73 189.06L936.79 190.85L933.20 191.17L932.75 193.31L926.83 192.49L924.34 192.14L922.16 190.37L919.98 188.60L912.91 186.31L904.76 183.68L903.32 183.22L898.89 185.68L896.49 192.56L891.01 190.45L892.31 187.25L893.61 184.05L894.94 181.32L896.48 178.15L893.13 176.97L891.75 176.49L890.44 176.03L886.69 174.71L885.44 176.35L883.32 179.11L878.78 176.75L876.43 177.30L873.35 176.70L871.14 175.21L868.15 174.39L866.25 173.86L863.64 173.17L859.83 172.16L858.44 173.66L855.34 173.24L852.63 172.87L850.24 172.55L848.47 172.26L847.03 172.33L841.58 172.60L840.87 175.77L836.64 176.57L834.80 176.92L833.42 176.66L831.49 176.28L830.08 175.67L828.10 174.81L825.13 173.53L821.57 172.01L819.73 171.21L817.19 170.11L813.94 168.69L816.85 165.65L815.00 164.82L812.57 163.73L810.72 162.91L805.61 160.62L802.91 159.18L801.47 158.41L799.44 157.34L796.90 155.98L793.38 154.24L789.88 153.12L788.54 152.69L785.88 151.84L782.10 149.56L779.87 148.21L777.69 152.49L775.13 151.88L773.81 151.56L771.63 151.04L768.80 150.94L764.92 150.81L759.90 152.25L754.96 150.23L749.43 147.97L747.09 146.20L741.90 146.08L740.42 145.79L737.53 145.22L732.54 143.76L731.18 143.65L727.86 143.37L721.24 141.83L714.30 140.21Z" data-ward="8" /><path id="ward-5" class="ward" d="M434.00 180.78L432.35 181.80L432.15 184.58L432.13 186.03L430.60 188.68L428.78 189.43L427.40 190.15L425.83 192.17L425.63 195.25L425.18 198.39L422.24 200.57L446.22 212.95L449.17 206.94L450.95 205.92L452.96 204.95L454.84 204.00L456.73 203.37L458.99 202.20L460.51 201.00L461.76 199.99L462.36 198.06L461.78 196.80L461.27 195.07L460.88 193.63L460.34 192.21L459.88 189.48L461.17 188.91L462.94 189.11L465.30 189.35L467.91 189.80L470.03 190.13L472.04 190.25L475.11 190.06L475.36 188.08L474.65 184.34L474.10 181.56L473.72 178.78L473.44 175.71L473.87 173.88L476.72 174.77L479.63 176.00L484.83 177.45L486.57 177.78L487.93 178.11L489.44 178.47L491.62 178.98L494.12 178.92L494.40 177.42L495.53 173.29L497.92 173.80L499.24 174.27L502.68 175.80L504.29 176.22L506.81 177.37L509.79 179.01L511.87 180.13L515.05 183.35L517.16 185.06L517.52 186.40L518.05 188.42L518.47 190.00L518.71 192.09L517.66 193.90L517.96 196.95L518.56 198.80L519.36 201.56L519.72 204.74L518.26 206.87L517.22 208.24L516.52 209.62L515.97 211.45L515.92 213.66L519.53 215.06L522.72 215.90L527.23 215.84L528.88 215.74L531.93 215.19L536.12 215.14L539.83 215.46L546.76 215.71L549.19 212.76L548.87 208.21L548.23 203.65L548.10 200.22L548.45 197.05L549.18 194.12L549.82 191.22L550.26 188.45L550.56 186.54L551.59 182.01L552.65 178.66L553.68 176.06L554.45 174.27L555.83 171.53L557.53 169.13L558.80 167.31L560.33 165.26L561.78 162.55L562.71 160.24L563.77 158.12L565.31 155.56L566.97 153.95L568.42 152.62L571.08 150.77L573.20 146.61L574.12 142.65L573.35 138.62L573.51 133.98L575.11 129.72L576.05 125.85L576.93 120.54L576.78 117.95L577.09 116.41L577.73 113.22L578.56 110.00L578.87 108.57L579.60 105.24L580.90 98.71L581.67 94.47L582.22 89.76L584.09 84.06L584.69 80.55L585.07 77.70L585.14 73.43L587.54 66.06L587.61 57.79L587.55 52.20L587.24 50.35L586.69 47.62L585.93 44.86L586.91 41.63L588.45 38.42L589.34 36.91L587.12 36.19L584.73 35.43L583.89 34.26L583.05 33.10L581.96 31.50L580.43 29.90L578.01 27.36L575.19 25.32L572.78 24.04L570.23 22.69L568.29 21.38L566.65 20.28L565.23 18.46L564.18 17.11L563.12 15.76L562.12 14.18L560.35 12.26L558.75 10.42L557.18 8.60L556.21 7.45L554.88 6.02L553.56 4.59L551.56 3.21L549.24 2.73L546.83 2.22L544.11 1.72L541.38 1.22L537.57 0.51L534.68 0.00L532.68 0.35L529.56 0.90L528.06 0.62L526.04 0.25L519.54 1.14L517.93 0.80L516.50 3.92L515.73 7.63L513.57 9.08L508.57 12.46L502.94 16.26L498.28 18.36L495.65 19.52L488.65 22.82L485.32 24.39L480.58 25.81L476.01 26.63L472.06 27.34L471.02 28.81L469.98 30.44L469.07 31.86L468.14 33.31L466.68 34.24L464.59 35.65L463.53 36.92L462.40 39.67L461.59 41.63L460.24 43.57L458.11 46.64L455.70 50.08L452.14 51.97L447.81 53.45L446.90 55.12L445.98 56.93L444.21 62.04L440.78 67.05L436.79 72.90L434.56 76.16L433.83 81.37L434.67 82.92L435.68 85.51L438.63 85.09L440.41 84.84L444.97 84.19L452.01 84.00L458.67 95.26L459.98 95.76L464.33 95.67L462.83 101.67L461.74 106.07L461.31 108.70L461.06 110.25L460.28 115.08L459.50 116.68L461.38 120.38L461.01 122.38L457.49 125.66L456.04 128.07L453.76 131.31L452.13 132.78L450.50 134.26L448.31 137.35L447.42 140.56L443.09 144.54L443.09 148.96L442.30 150.09L441.03 154.25L439.77 160.76L438.21 162.92L437.50 164.86L440.41 166.31L442.15 168.63L441.29 170.81L439.43 172.22L438.69 174.76L435.77 177.85L435.14 179.44L434.00 180.78Z" data-ward="5" /><path id="ward-1" class="ward" d="M30.93 282.55L32.60 284.46L34.57 286.71L35.40 287.93L36.66 290.52L38.86 293.71L40.23 294.73L40.96 296.53L41.69 298.32L40.84 301.19L39.23 301.45L37.80 301.68L37.47 304.15L40.30 303.34L45.05 302.38L49.00 300.72L51.56 302.32L53.78 304.40L55.62 306.07L58.31 307.22L61.51 307.77L65.92 307.78L68.22 307.71L70.39 306.70L73.37 305.91L75.97 306.12L80.39 306.96L84.91 308.16L87.24 309.31L89.46 310.66L91.84 311.51L95.13 312.72L96.91 314.46L97.92 315.63L99.35 317.30L102.10 318.11L105.08 318.04L110.78 317.17L114.35 316.16L118.11 315.59L120.66 315.01L123.96 314.75L129.50 314.42L132.37 314.43L135.72 314.29L139.14 314.68L140.73 315.63L140.49 317.21L139.97 319.61L139.62 322.17L139.09 324.60L138.55 326.21L137.76 328.83L137.05 331.33L135.52 334.22L137.46 337.74L139.86 337.28L142.87 336.66L145.56 335.45L147.96 335.89L149.95 336.49L154.16 337.36L154.85 335.10L156.28 332.63L158.41 330.99L160.49 330.39L163.86 330.29L167.41 329.24L170.76 328.30L172.60 327.26L173.11 325.49L172.90 323.62L173.12 320.37L172.89 317.31L176.03 316.60L179.97 316.11L184.70 315.60L187.32 315.44L190.77 315.82L192.78 316.21L193.10 313.95L193.43 310.98L194.39 307.90L195.38 305.89L195.34 303.47L195.63 300.38L196.76 297.03L197.71 294.70L199.63 291.20L202.71 292.36L206.00 292.30L208.57 288.49L210.73 284.96L213.25 281.03L216.02 276.87L217.85 274.21L214.24 272.72L210.87 269.74L209.37 265.94L207.89 262.38L206.63 259.42L205.38 254.35L205.79 248.57L207.56 243.96L209.87 240.65L210.87 239.69L213.33 237.32L213.29 235.61L213.26 233.90L211.26 233.11L207.59 231.65L204.19 230.32L200.56 229.06L198.12 228.14L194.53 226.84L192.59 226.02L191.22 225.46L189.78 224.36L187.27 222.44L185.75 221.28L183.86 220.15L182.67 219.44L181.40 218.83L179.19 221.53L177.65 223.98L176.04 226.48L174.97 229.08L172.70 229.05L170.75 228.54L166.86 226.46L163.09 224.44L156.53 225.41L154.95 224.60L152.51 223.36L149.60 221.87L142.39 218.20L142.48 216.56L142.57 214.93L144.08 211.87L144.85 210.32L145.69 208.62L147.21 205.55L148.54 203.22L150.06 200.31L148.44 197.80L146.17 196.81L144.29 195.98L142.01 194.98L140.15 194.16L138.05 193.24L135.37 192.06L133.47 191.94L129.70 190.37L128.01 189.67L121.87 187.13L118.04 185.55L115.82 182.86L114.38 181.78L112.00 180.00L109.54 178.15L107.79 176.85L104.31 174.52L102.69 173.05L98.98 170.32L97.29 169.07L94.34 168.46L91.13 165.29L87.80 163.49L85.97 162.49L84.02 161.55L82.21 160.68L80.82 160.01L77.97 158.63L75.80 157.40L74.17 156.48L72.58 155.01L72.60 157.01L72.63 159.00L73.63 163.03L74.03 164.65L74.44 166.33L70.69 165.09L66.83 165.72L64.95 165.23L56.56 166.37L50.24 168.90L48.47 169.61L45.47 170.81L40.75 175.07L37.58 178.36L35.17 180.87L32.02 183.92L30.67 185.32L27.53 188.15L23.56 191.73L18.54 194.58L16.04 195.99L14.06 197.12L12.64 201.79L9.33 206.53L8.32 207.99L7.47 210.14L3.24 217.12L2.05 219.07L1.50 222.64L0.65 228.09L0.00 232.23L0.88 235.06L1.57 240.45L2.86 244.63L3.03 246.32L7.02 253.02L10.67 259.16L15.25 265.77L16.43 269.45L19.90 273.52L21.48 275.14L23.19 276.88L24.75 278.10L27.71 280.20L30.93 282.55Z" data-ward="1" /><path id="ward-6" class="ward" d="M548.87 208.21L549.19 212.76L546.76 215.71L546.49 219.49L546.32 222.14L546.15 224.80L546.30 228.31L546.22 229.81L546.07 231.27L545.86 233.20L545.67 234.96L545.31 238.36L549.25 239.37L553.17 240.38L563.58 242.92L565.52 243.78L567.27 244.42L568.62 244.71L571.30 245.38L573.23 246.40L574.63 247.17L576.49 248.35L580.34 249.97L581.82 250.58L583.08 251.27L585.12 252.37L587.54 253.57L590.83 255.18L593.59 256.85L596.17 258.41L598.91 259.52L600.97 261.12L602.19 262.06L600.66 264.30L602.51 266.19L603.30 268.19L605.17 269.33L608.17 269.85L617.25 273.39L621.44 274.30L634.11 279.41L635.76 279.65L637.42 279.89L639.52 276.70L642.85 277.39L645.59 277.34L647.60 277.32L649.59 276.90L652.59 276.09L654.00 275.41L656.89 275.83L659.62 276.06L662.61 276.02L663.18 274.16L664.02 271.80L665.61 270.64L667.08 270.54L668.67 270.77L671.91 271.00L677.43 271.06L680.41 271.20L681.88 271.08L684.02 270.76L686.71 270.42L688.54 270.31L689.90 270.18L693.63 270.04L695.37 267.85L696.05 264.73L696.08 262.68L696.14 261.04L696.21 259.41L696.23 257.23L696.13 255.55L695.74 253.49L692.65 248.85L689.48 244.00L690.77 241.57L691.77 239.68L687.23 237.19L685.78 235.36L686.49 233.82L687.11 232.51L687.89 230.98L688.62 229.59L689.45 228.18L690.17 226.98L688.01 224.02L685.78 220.91L683.67 216.64L682.35 212.93L681.02 211.28L680.97 209.26L681.95 206.59L675.12 204.01L670.74 203.01L666.28 202.02L663.12 201.41L661.09 200.97L658.77 200.46L655.09 199.65L648.04 197.43L644.10 195.59L641.42 194.15L637.85 192.32L628.84 185.82L624.99 182.71L620.49 179.21L615.94 174.94L614.02 173.19L613.71 170.68L614.37 169.27L615.63 166.85L617.29 166.90L620.21 166.31L620.34 164.80L620.04 160.82L619.82 157.97L621.45 157.69L624.15 157.28L626.38 157.13L628.57 155.76L629.65 153.17L629.36 150.34L629.12 148.53L629.18 146.36L629.18 144.62L627.56 144.55L626.11 144.56L624.44 144.48L622.96 144.16L622.28 141.51L622.60 139.65L622.80 137.31L622.65 135.82L622.28 134.27L621.67 131.82L624.39 127.30L625.76 125.16L625.54 123.63L624.78 121.87L627.11 118.50L628.48 116.51L631.10 114.68L632.86 113.72L637.70 111.02L639.01 108.11L639.83 105.89L640.97 104.49L642.26 102.68L643.28 101.00L644.13 99.40L645.18 96.88L645.67 95.30L645.60 93.43L645.53 91.41L645.94 89.16L646.24 87.54L645.96 83.40L647.86 78.38L648.44 76.88L647.68 74.77L644.15 71.47L643.36 69.32L642.71 67.59L640.02 66.59L637.95 65.82L635.95 63.94L634.00 62.11L631.22 59.51L629.97 58.34L628.54 57.02L625.57 54.25L624.07 53.41L622.62 52.59L621.51 51.70L619.11 49.91L617.52 48.34L616.28 47.34L614.88 47.15L613.61 46.61L612.36 46.07L610.74 43.20L609.86 40.06L609.62 37.67L608.81 36.21L606.72 35.55L604.83 35.36L602.98 35.43L600.86 35.46L598.73 35.46L595.45 36.62L593.27 36.79L589.34 36.91L588.45 38.42L586.91 41.63L585.93 44.86L586.69 47.62L587.24 50.35L587.55 52.20L587.61 57.79L587.54 66.06L585.14 73.43L585.07 77.70L584.69 80.55L584.09 84.06L582.22 89.76L581.67 94.47L580.90 98.71L579.60 105.24L578.87 108.57L578.56 110.00L577.73 113.22L577.09 116.41L576.78 117.95L576.93 120.54L576.05 125.85L575.11 129.72L573.51 133.98L573.35 138.62L574.12 142.65L573.20 146.61L571.08 150.77L568.42 152.62L566.97 153.95L565.31 155.56L563.77 158.12L562.71 160.24L561.78 162.55L560.33 165.26L558.80 167.31L557.53 169.13L555.83 171.53L554.45 174.27L553.68 176.06L552.65 178.66L551.59 182.01L550.56 186.54L550.26 188.45L549.82 191.22L549.18 194.12L548.45 197.05L548.10 200.22L548.23 203.65L548.87 208.21Z" data-ward="6" /><path id="ward-4" class="ward" d="M517.16 185.06L515.05 183.35L511.87 180.13L509.79 179.01L506.81 177.37L504.29 176.22L502.68 175.80L499.24 174.27L497.92 173.80L495.53 173.29L494.40 177.42L494.12 178.92L491.62 178.98L489.44 178.47L487.93 178.11L486.57 177.78L484.83 177.45L479.63 176.00L476.72 174.77L473.87 173.88L473.44 175.71L473.72 178.78L474.10 181.56L474.65 184.34L475.36 188.08L475.11 190.06L472.04 190.25L470.03 190.13L467.91 189.80L465.30 189.35L462.94 189.11L461.17 188.91L459.88 189.48L460.34 192.21L460.88 193.63L461.27 195.07L461.78 196.80L462.36 198.06L461.76 199.99L460.51 201.00L458.99 202.20L456.73 203.37L454.84 204.00L452.96 204.95L450.95 205.92L449.17 206.94L446.22 212.95L422.24 200.57L417.16 197.07L412.51 195.00L410.76 194.10L407.98 193.08L404.74 193.03L402.82 193.37L398.78 194.08L400.08 196.34L400.89 197.74L402.04 200.46L406.88 204.28L408.52 205.11L410.44 206.12L411.99 206.91L413.38 208.37L415.12 211.04L417.75 214.18L419.93 216.81L421.86 218.92L421.35 221.89L420.86 224.76L419.52 227.54L418.50 229.00L417.25 231.80L417.38 234.46L417.46 237.05L416.73 239.36L415.96 240.77L417.35 242.11L418.51 243.70L417.43 246.35L416.59 249.21L416.91 251.12L416.71 253.51L417.95 255.37L415.26 256.57L413.73 256.97L411.68 257.88L409.73 259.24L408.11 259.96L405.66 260.86L403.60 261.29L402.09 261.79L400.50 262.62L398.96 264.65L398.77 268.27L400.56 271.87L401.32 273.27L402.29 275.01L403.03 277.58L403.38 279.64L403.69 282.41L403.77 284.12L403.86 286.00L402.20 287.77L400.10 288.14L398.10 288.11L395.26 288.10L393.19 288.18L393.11 301.58L396.76 301.16L399.89 300.76L402.51 300.50L401.83 303.95L401.23 307.60L400.87 309.98L394.29 310.98L390.79 311.26L389.90 313.84L388.45 315.19L386.29 315.14L384.30 315.33L383.72 317.76L383.01 322.20L383.11 325.59L383.57 329.38L387.99 329.44L391.73 329.46L397.58 328.91L401.85 328.52L405.23 328.18L405.39 330.96L405.61 334.11L406.31 337.27L407.14 341.05L407.40 342.58L408.26 346.33L415.15 344.58L424.00 342.91L428.86 341.61L436.15 342.91L441.17 342.96L447.47 344.96L452.19 346.44L458.59 347.65L459.33 355.78L457.78 361.45L457.92 367.41L458.73 374.75L458.20 377.74L460.87 378.33L464.60 379.12L466.09 379.40L468.93 379.68L472.78 379.07L474.82 378.76L477.35 378.36L479.08 378.48L488.13 379.12L490.15 380.09L492.14 381.05L494.23 383.28L496.76 383.19L497.65 380.11L500.42 380.91L505.61 381.91L510.89 382.77L515.29 383.78L518.47 385.32L521.48 386.93L525.17 388.92L527.92 390.64L529.51 391.79L530.69 392.66L533.31 393.78L534.19 390.57L535.38 387.84L536.11 385.94L536.88 384.09L537.83 381.96L539.65 379.00L540.82 377.29L541.65 376.06L543.48 374.66L546.01 372.14L547.29 370.88L548.48 369.24L550.11 366.47L551.49 364.53L552.82 362.60L553.61 360.24L554.95 358.19L555.45 355.63L556.66 351.69L554.61 351.02L552.07 350.36L549.42 349.19L546.70 348.43L544.31 347.37L541.19 346.01L538.78 344.98L535.71 344.02L533.03 343.21L529.67 340.22L531.45 336.68L533.83 338.24L537.56 334.41L536.51 330.74L539.79 323.86L540.33 320.57L543.62 314.30L544.99 312.46L546.21 310.23L546.58 308.59L550.48 310.62L551.87 311.89L553.96 313.02L556.84 314.57L559.41 315.95L561.98 316.99L563.96 314.72L564.67 312.07L565.37 310.71L567.55 306.62L568.28 304.25L568.70 300.37L566.74 298.45L565.08 297.75L562.00 295.94L561.66 294.45L562.84 291.60L563.69 288.70L564.38 286.64L566.00 282.35L567.35 275.85L567.66 271.36L569.05 266.30L570.40 262.40L571.11 260.84L573.25 256.17L576.49 248.35L574.63 247.17L573.23 246.40L571.30 245.38L568.62 244.71L567.27 244.42L565.52 243.78L563.58 242.92L553.17 240.38L549.25 239.37L545.31 238.36L545.67 234.96L545.86 233.20L546.07 231.27L546.22 229.81L546.30 228.31L546.15 224.80L546.32 222.14L546.49 219.49L546.76 215.71L539.83 215.46L536.12 215.14L531.93 215.19L528.88 215.74L527.23 215.84L522.72 215.90L519.53 215.06L515.92 213.66L515.97 211.45L516.52 209.62L517.22 208.24L518.26 206.87L519.72 204.74L519.36 201.56L518.56 198.80L517.96 196.95L517.66 193.90L518.71 192.09L518.47 190.00L518.05 188.42L517.52 186.40L517.16 185.06Z" data-ward="4" /><path id="ward-11" class="ward" d="M723.69 448.45L723.18 443.81L722.06 433.50L722.60 427.42L722.77 425.54L723.28 422.57L723.70 420.11L724.54 415.45L724.91 413.45L724.03 407.59L720.16 403.68L717.49 400.98L712.89 387.52L704.35 385.81L696.90 384.32L694.12 383.77L691.35 383.22L688.59 382.66L680.65 378.93L675.52 376.40L670.77 374.21L669.51 376.83L669.21 379.27L668.73 381.83L668.47 383.89L667.55 386.54L667.17 388.03L666.13 390.25L664.80 393.21L664.18 394.71L663.38 396.71L661.85 400.15L661.10 401.69L659.82 405.30L659.14 407.41L658.65 410.27L658.37 411.73L657.56 413.62L656.67 415.62L655.96 417.96L655.64 420.50L655.22 423.50L654.99 425.09L655.18 426.72L655.68 429.01L655.96 430.58L655.60 433.29L653.89 436.08L651.69 438.74L649.68 440.68L648.05 442.27L645.91 444.94L643.71 444.34L641.50 443.22L638.72 441.75L636.78 440.42L634.84 438.92L633.29 437.09L632.07 435.78L630.64 435.36L628.83 434.74L627.03 434.66L624.68 434.52L622.44 434.14L620.54 433.83L618.36 433.49L613.06 432.71L611.57 431.78L610.31 430.58L609.49 428.87L607.78 427.13L605.43 426.00L602.80 425.94L600.58 424.69L598.75 423.03L595.68 419.91L593.62 418.30L591.61 417.63L590.56 418.80L589.83 421.62L588.08 425.25L587.27 427.10L586.88 429.35L586.86 431.11L586.60 433.99L586.47 435.87L585.92 438.33L584.70 441.76L582.95 443.79L580.92 441.41L579.83 439.90L578.55 438.69L577.09 437.27L574.83 437.33L572.47 438.49L570.14 437.73L568.55 436.10L567.25 434.88L565.75 433.49L563.24 432.48L560.71 431.73L558.53 430.84L556.66 429.87L554.71 428.57L552.70 427.30L551.42 426.46L549.46 424.91L548.18 423.76L545.85 422.20L543.70 421.23L541.66 420.41L540.15 419.72L538.61 419.05L536.84 418.33L534.48 417.20L531.74 415.84L529.22 414.27L527.00 412.16L526.12 410.93L525.90 408.46L526.54 406.93L526.79 404.30L525.53 402.86L523.52 401.62L520.49 400.38L517.92 398.69L519.88 395.60L522.49 392.39L523.84 390.61L525.17 388.92L521.48 386.93L518.47 385.32L515.29 383.78L510.89 382.77L505.61 381.91L500.42 380.91L497.65 380.11L496.76 383.19L494.23 383.28L492.14 381.05L490.15 380.09L488.13 379.12L479.08 378.48L477.35 378.36L474.82 378.76L472.78 379.07L468.93 379.68L466.09 379.40L464.60 379.12L460.87 378.33L458.20 377.74L457.44 382.79L457.31 386.36L456.14 388.59L454.19 390.39L452.89 392.07L454.60 394.10L455.30 396.30L455.29 398.54L457.53 400.70L460.22 403.79L463.95 406.26L467.22 408.87L470.87 412.31L473.82 414.44L478.03 417.57L480.88 419.87L483.12 421.42L485.22 423.08L486.80 425.60L488.19 427.62L489.87 428.84L491.95 430.52L493.47 433.04L495.73 436.50L496.86 438.92L498.30 442.03L499.64 444.33L502.20 446.99L502.96 449.07L504.01 452.06L505.73 454.22L507.14 455.70L509.19 456.96L510.64 459.27L511.99 461.82L513.17 463.31L513.73 465.35L513.41 468.51L512.60 471.05L512.24 473.83L513.15 476.37L514.23 479.30L515.42 482.52L516.33 484.22L513.99 485.84L511.11 487.38L508.64 489.08L505.83 489.87L503.34 489.39L500.82 488.51L498.12 489.55L495.92 491.48L495.01 493.00L492.57 494.28L492.88 497.35L492.49 500.48L492.24 501.82L491.68 503.70L491.21 505.22L490.47 508.09L489.90 510.46L489.39 511.73L488.83 513.10L487.94 515.22L487.22 517.34L486.35 519.14L486.83 521.49L488.34 522.67L491.18 524.22L493.83 525.67L497.18 527.13L501.31 528.55L504.06 530.02L505.88 531.28L506.34 532.68L506.78 534.45L507.35 536.92L508.93 539.08L510.01 540.03L513.93 541.87L515.63 542.64L517.61 543.23L519.86 543.85L522.71 545.16L526.17 547.15L528.32 548.07L530.44 548.63L532.59 549.24L534.79 549.97L537.90 551.02L540.82 552.00L543.09 552.74L544.43 553.07L545.75 553.40L548.12 554.02L551.37 555.00L554.03 555.92L555.10 556.95L557.45 558.20L559.51 559.00L561.85 559.45L564.87 559.85L566.52 560.04L568.91 560.23L572.34 559.94L575.03 559.83L577.48 559.68L579.29 559.74L581.93 560.42L585.48 561.75L586.44 560.64L587.32 559.24L588.66 556.73L589.49 554.95L590.84 552.25L591.93 549.78L591.51 546.98L590.66 543.80L590.31 542.44L589.68 539.72L589.47 538.23L588.58 534.32L588.11 531.68L587.89 528.61L587.49 525.15L587.24 522.00L586.96 518.86L589.08 518.78L591.06 518.38L592.53 518.21L595.85 517.95L597.33 518.41L599.22 519.08L601.15 519.63L603.65 520.29L606.53 522.27L609.36 522.90L612.22 520.32L615.70 520.12L618.34 523.00L619.66 525.59L621.70 528.65L624.98 530.86L626.56 531.78L627.96 533.47L630.38 536.39L635.35 510.50L635.72 504.73L638.34 501.01L640.95 497.30L641.47 491.89L642.84 491.42L643.24 487.10L643.90 479.86L644.80 476.71L646.13 473.24L655.10 455.19L661.61 456.04L664.83 451.95L668.42 444.09L670.00 442.08L693.36 450.52L695.67 446.43L698.96 446.00L700.42 446.01L702.17 446.02L705.24 445.09L707.57 441.51L709.41 439.53L711.71 441.09L712.81 441.91L716.57 444.69L723.69 448.45Z" data-ward="11" /><path id="ward-13" class="ward" d="M445.86 626.19L446.94 624.76L449.60 621.21L446.93 619.62L444.48 617.90L444.99 615.30L446.59 611.61L447.88 609.16L449.95 606.20L451.18 603.11L451.73 601.17L451.23 599.23L449.32 597.30L447.04 595.65L444.43 593.93L442.23 592.13L440.72 590.89L438.73 589.03L436.77 586.98L435.25 585.48L434.36 583.84L434.73 581.44L435.77 579.49L437.53 576.76L438.99 573.29L442.03 573.10L445.52 573.67L447.66 574.35L450.04 575.27L452.15 577.24L454.03 578.78L457.42 580.35L461.60 582.42L465.70 584.84L468.55 586.25L472.60 587.78L475.37 588.50L477.74 588.87L480.35 589.48L484.04 589.80L487.93 589.65L493.57 590.19L499.16 589.65L502.62 588.81L505.81 588.26L507.23 587.72L510.01 586.46L512.58 585.69L515.80 584.53L518.40 583.65L519.74 583.17L521.13 582.57L522.51 581.99L524.97 580.77L526.98 579.11L525.44 576.24L524.48 574.00L524.62 572.20L525.73 568.61L525.82 564.96L526.11 562.72L527.33 558.72L528.37 556.60L530.40 556.61L532.29 558.08L533.65 559.47L535.68 561.23L537.71 562.92L539.45 563.89L541.30 564.80L542.18 561.04L543.30 557.94L543.74 556.05L544.43 553.07L543.09 552.74L540.82 552.00L537.90 551.02L534.79 549.97L532.59 549.24L530.44 548.63L528.32 548.07L526.17 547.15L522.71 545.16L519.86 543.85L517.61 543.23L515.63 542.64L513.93 541.87L510.01 540.03L508.93 539.08L507.35 536.92L506.78 534.45L506.34 532.68L505.88 531.28L504.06 530.02L501.31 528.55L497.18 527.13L493.83 525.67L491.18 524.22L488.34 522.67L486.83 521.49L486.35 519.14L487.22 517.34L487.94 515.22L488.83 513.10L489.39 511.73L489.90 510.46L490.47 508.09L491.21 505.22L491.68 503.70L492.24 501.82L492.49 500.48L492.88 497.35L492.57 494.28L490.63 491.80L489.98 488.39L489.90 485.58L490.37 483.01L490.51 480.24L490.67 477.11L490.80 474.43L490.97 472.21L488.33 472.59L486.30 472.89L482.73 473.15L480.31 473.57L476.93 472.55L471.96 470.37L470.23 469.79L467.78 469.11L465.19 468.64L461.67 468.37L459.29 467.76L456.75 466.72L454.69 466.22L453.31 465.89L451.39 465.62L449.16 464.88L447.11 464.35L442.43 461.81L439.55 459.30L438.57 458.21L439.61 454.37L437.42 453.13L434.87 452.55L433.04 451.96L430.51 451.08L428.30 450.35L426.34 449.87L424.97 449.16L423.71 448.21L421.86 451.00L420.43 452.74L419.43 455.44L417.67 458.52L417.61 461.26L418.03 463.01L418.56 465.52L419.18 469.48L420.09 471.60L421.11 474.32L418.97 478.73L416.08 483.31L416.35 487.88L415.42 491.99L414.55 496.61L412.73 501.02L412.28 504.63L409.69 508.44L401.40 514.58L399.18 517.58L397.90 519.39L396.01 521.53L393.14 520.74L390.87 521.21L388.08 520.82L384.13 520.32L381.94 520.76L379.29 521.23L376.46 522.39L372.55 524.46L370.05 525.85L368.39 526.60L366.16 528.02L364.68 528.54L362.94 529.47L360.82 530.62L359.10 531.63L360.38 533.29L361.32 536.00L362.47 539.61L363.76 540.76L365.59 541.71L368.98 542.99L372.66 543.89L375.96 544.88L380.47 545.94L382.58 546.54L392.02 553.02L391.44 554.82L390.97 556.78L389.99 559.25L389.17 562.93L389.44 566.05L388.86 568.55L388.28 570.37L387.69 572.58L386.90 574.75L385.79 576.25L384.27 575.68L381.66 574.77L380.03 574.26L374.17 573.66L373.00 574.70L371.24 575.43L368.87 575.14L366.50 574.99L363.38 575.42L360.28 575.47L358.24 575.58L355.65 575.71L353.32 575.81L349.90 575.97L346.13 575.66L343.88 575.76L342.38 575.17L341.29 573.50L340.96 571.07L340.53 568.48L340.22 564.55L340.49 560.18L340.09 558.49L337.97 558.53L335.77 558.36L335.53 556.82L334.83 553.25L334.06 549.59L333.57 545.85L332.80 542.16L332.06 540.24L329.84 539.09L326.57 538.21L322.95 537.59L319.80 537.75L318.45 537.37L315.17 536.26L311.67 535.65L309.30 535.20L306.42 534.60L302.58 533.42L299.06 533.22L297.78 533.95L296.18 535.16L294.01 536.13L292.80 536.87L291.81 539.83L288.03 540.13L284.79 539.52L280.82 539.07L276.71 539.01L273.81 538.91L270.36 538.76L266.07 538.91L262.85 539.21L261.36 539.11L259.91 537.85L258.72 536.09L257.54 534.60L255.31 532.70L250.47 531.18L246.48 531.87L244.46 532.28L242.50 532.67L239.63 533.24L235.71 533.78L231.06 534.91L228.47 535.86L223.90 538.68L222.62 539.75L220.00 542.56L218.18 544.61L217.09 545.80L212.52 546.78L209.78 546.99L204.55 545.90L200.88 545.02L197.90 544.41L195.31 543.86L193.66 545.27L193.69 547.63L193.76 552.83L193.58 559.35L192.53 565.87L190.47 572.52L187.27 578.97L184.63 584.03L182.17 589.07L179.31 593.42L186.94 595.95L191.71 597.61L193.10 598.06L199.82 600.70L205.03 602.76L207.96 603.90L212.29 606.96L215.05 608.90L216.76 610.11L218.90 611.57L223.24 614.33L225.46 615.13L225.56 617.61L230.65 618.77L235.72 619.93L239.31 621.13L241.13 621.72L243.86 622.12L249.68 622.98L255.29 621.79L258.10 621.20L261.12 620.61L263.97 620.01L267.01 619.62L270.04 619.27L275.37 618.64L279.93 618.11L283.24 617.72L285.18 617.36L287.98 616.91L289.78 616.62L291.73 618.23L292.96 619.25L296.78 622.40L301.03 625.92L302.43 627.07L305.75 629.74L312.67 627.80L318.46 626.13L322.44 624.98L326.37 623.84L330.43 622.67L334.93 621.31L339.31 619.99L343.11 618.84L345.99 617.97L348.69 617.16L350.12 618.31L352.26 620.04L353.32 620.91L355.62 622.77L358.40 625.01L361.34 627.39L362.97 628.85L365.41 630.71L368.62 633.35L371.29 635.54L373.84 637.64L376.88 640.13L379.04 641.90L381.02 643.53L383.24 645.35L385.21 646.97L388.07 649.32L390.30 651.11L394.72 654.65L401.73 660.26L405.56 661.16L409.14 661.99L412.31 662.73L419.76 664.47L421.38 663.29L425.09 660.58L432.55 656.25L433.11 654.78L433.70 653.25L434.75 650.62L435.52 648.68L437.17 644.56L438.31 641.65L441.17 633.79L442.83 631.11L444.85 627.83L445.86 626.19Z" data-ward="13" /><path id="ward-12" class="ward" d="M606.53 522.27L603.65 520.29L601.15 519.63L599.22 519.08L597.33 518.41L595.85 517.95L592.53 518.21L591.06 518.38L589.08 518.78L586.96 518.86L587.24 522.00L587.49 525.15L587.89 528.61L588.11 531.68L588.58 534.32L589.47 538.23L589.68 539.72L590.31 542.44L590.66 543.80L591.51 546.98L591.93 549.78L590.84 552.25L589.49 554.95L588.66 556.73L587.32 559.24L586.44 560.64L585.48 561.75L581.93 560.42L579.29 559.74L577.48 559.68L575.03 559.83L572.34 559.94L568.91 560.23L566.52 560.04L564.87 559.85L561.85 559.45L559.51 559.00L557.45 558.20L555.10 556.95L554.03 555.92L551.37 555.00L548.12 554.02L545.75 553.40L544.43 553.07L543.74 556.05L543.30 557.94L542.18 561.04L541.30 564.80L539.45 563.89L537.71 562.92L535.68 561.23L533.65 559.47L532.29 558.08L530.40 556.61L528.37 556.60L527.33 558.72L526.11 562.72L525.82 564.96L525.73 568.61L524.62 572.20L524.48 574.00L525.44 576.24L526.98 579.11L524.97 580.77L522.51 581.99L521.13 582.57L519.74 583.17L518.40 583.65L515.80 584.53L512.58 585.69L510.01 586.46L507.23 587.72L505.81 588.26L502.62 588.81L499.16 589.65L493.57 590.19L487.93 589.65L484.04 589.80L480.35 589.48L477.74 588.87L475.37 588.50L472.60 587.78L468.55 586.25L465.70 584.84L461.60 582.42L457.42 580.35L454.03 578.78L452.15 577.24L450.04 575.27L447.66 574.35L445.52 573.67L442.03 573.10L438.99 573.29L437.53 576.76L435.77 579.49L434.73 581.44L434.36 583.84L435.25 585.48L436.77 586.98L438.73 589.03L440.72 590.89L442.23 592.13L444.43 593.93L447.04 595.65L449.32 597.30L451.23 599.23L451.73 601.17L451.18 603.11L449.95 606.20L447.88 609.16L446.59 611.61L444.99 615.30L444.48 617.90L446.93 619.62L449.60 621.21L453.80 620.71L455.14 619.35L456.97 619.74L461.97 624.00L466.02 626.25L467.35 627.85L471.58 630.63L474.43 632.50L483.95 632.75L486.86 633.26L488.74 633.77L497.78 636.25L509.63 639.51L525.27 643.71L532.46 637.28L535.79 634.30L539.11 634.78L544.31 635.52L548.33 636.09L554.82 637.02L554.87 638.51L554.95 640.79L559.78 640.58L564.47 640.62L570.07 641.71L574.12 643.79L575.80 644.77L577.41 646.38L580.33 649.55L581.20 651.11L583.56 653.57L588.08 657.21L591.98 657.77L595.00 656.74L597.64 655.86L599.42 654.91L605.72 655.85L608.65 657.98L614.35 661.86L615.86 662.90L618.93 664.99L624.73 667.03L627.11 667.79L629.28 668.48L633.99 669.80L641.41 674.06L647.30 677.12L650.40 678.76L655.12 681.22L661.60 678.61L664.49 677.11L668.07 675.25L667.83 673.48L667.26 669.39L667.65 666.02L668.00 663.53L668.74 658.42L667.01 657.62L665.32 656.83L665.76 654.28L666.28 652.71L667.47 649.09L669.39 643.41L671.10 637.99L671.69 635.98L672.56 633.04L672.01 626.70L676.38 619.21L677.84 616.69L679.31 614.18L680.78 611.65L683.45 608.05L685.60 607.29L686.87 608.39L689.13 607.15L690.76 608.17L691.87 607.38L693.39 606.29L691.93 604.77L690.59 603.37L688.94 598.95L689.92 596.91L691.07 594.53L692.99 590.55L696.55 586.26L693.98 584.34L690.94 584.46L687.76 583.16L686.14 582.49L681.48 580.58L678.47 580.18L676.15 578.94L670.28 577.78L666.54 575.01L664.15 574.64L660.95 574.14L657.79 573.65L654.71 573.17L651.49 572.67L648.22 571.36L646.48 570.79L644.59 569.12L641.87 566.72L638.38 565.55L636.40 564.15L635.23 562.51L633.31 561.56L634.72 557.40L635.47 553.66L635.68 547.53L633.05 543.64L631.27 541.00L629.89 538.95L630.38 536.39L627.96 533.47L626.56 531.78L624.98 530.86L621.70 528.65L619.66 525.59L618.34 523.00L615.70 520.12L612.22 520.32L609.36 522.90L606.53 522.27Z" data-ward="12" /><path id="ward-2" class="ward" d="M259.71 461.79L263.46 463.87L266.31 464.64L270.73 466.77L273.12 465.66L274.78 464.00L276.44 461.69L277.46 460.58L278.50 459.43L280.05 458.93L282.11 458.64L285.59 458.43L288.86 457.82L291.99 456.63L295.07 454.94L298.61 453.22L300.03 452.50L304.83 450.30L306.32 449.79L307.69 449.23L309.15 448.57L310.70 447.74L312.77 446.24L315.43 444.91L317.15 443.97L320.22 442.79L322.45 441.79L325.58 439.78L328.16 438.23L329.98 437.62L333.33 438.51L335.52 439.42L338.07 440.23L340.72 440.69L343.23 440.14L344.08 436.76L344.44 434.96L344.81 432.47L344.86 430.11L345.17 427.65L345.11 424.52L344.81 422.38L344.50 419.58L344.56 417.23L345.05 415.43L345.80 413.41L345.39 411.79L344.00 409.14L342.20 406.56L340.45 404.51L338.63 402.77L336.49 400.66L334.89 398.83L332.92 397.36L331.14 396.28L329.32 395.39L326.58 394.44L325.19 393.74L323.42 392.98L321.76 392.29L319.26 391.16L317.07 389.56L313.75 387.23L311.40 385.58L310.19 384.73L306.55 381.76L305.15 380.78L303.64 379.72L302.01 378.68L300.65 377.73L297.71 375.59L296.28 374.36L294.46 372.84L293.12 372.07L290.96 371.15L288.86 370.26L286.25 368.85L283.91 366.39L284.28 364.62L284.94 362.05L285.32 358.79L285.83 354.95L285.82 353.08L285.69 351.55L283.18 351.81L281.48 352.13L279.09 352.37L277.58 352.80L275.27 353.31L272.36 353.04L269.45 352.56L266.77 351.96L264.75 351.37L260.76 350.66L256.91 349.85L258.33 346.45L259.03 344.47L259.72 341.11L260.30 338.21L260.96 335.10L259.19 331.92L257.29 329.15L255.68 326.03L254.48 321.49L252.75 318.09L250.74 315.27L247.59 311.05L244.25 307.07L241.16 302.06L238.32 296.18L236.83 292.62L234.82 289.61L231.84 284.84L227.91 282.43L223.87 279.82L221.21 277.40L219.30 275.38L217.85 274.21L216.02 276.87L213.25 281.03L210.73 284.96L208.57 288.49L206.00 292.30L202.71 292.36L199.63 291.20L197.71 294.70L196.76 297.03L195.63 300.38L195.34 303.47L195.38 305.89L194.39 307.90L193.43 310.98L193.10 313.95L192.78 316.21L190.77 315.82L187.32 315.44L184.70 315.60L179.97 316.11L176.03 316.60L172.89 317.31L173.12 320.37L172.90 323.62L173.11 325.49L172.60 327.26L170.76 328.30L167.41 329.24L163.86 330.29L160.49 330.39L158.41 330.99L156.28 332.63L154.85 335.10L154.16 337.36L149.95 336.49L147.96 335.89L145.56 335.45L142.87 336.66L139.86 337.28L137.46 337.74L134.75 337.76L130.78 338.25L127.91 338.59L123.56 339.41L119.04 339.84L116.83 342.11L113.59 342.55L110.59 342.45L107.84 342.90L108.28 346.14L108.68 348.97L108.11 353.42L106.89 355.57L103.88 357.16L102.14 357.87L101.38 359.42L100.68 361.12L99.94 363.47L100.15 364.98L102.34 365.41L105.42 366.01L110.58 366.55L110.06 368.07L113.11 369.05L115.98 369.37L119.26 370.00L120.12 372.73L120.88 376.93L122.88 381.25L124.56 384.88L126.38 387.63L127.29 389.44L128.19 392.19L128.84 394.74L128.88 397.56L129.04 402.40L129.06 405.40L128.53 408.95L129.25 410.99L130.27 413.24L131.78 414.56L133.23 415.63L141.25 417.01L144.10 417.48L146.77 417.92L150.16 417.82L155.96 417.65L158.87 417.78L160.76 417.87L162.42 418.23L165.67 418.94L174.11 422.49L175.36 424.03L178.44 425.71L182.18 427.30L185.47 427.44L189.02 427.96L192.97 428.42L196.58 429.32L200.06 429.64L205.02 429.77L213.29 431.68L220.05 434.69L225.35 437.35L229.61 441.35L232.12 444.59L235.95 442.89L237.69 444.61L237.00 447.51L239.01 449.19L243.12 451.02L246.97 453.43L249.83 455.39L251.89 456.87L253.23 457.84L254.53 458.73L255.74 459.57L259.71 461.79Z" data-ward="2" /><path id="ward-14" class="ward" d="M408.26 346.33L405.98 346.94L404.19 347.42L401.70 348.16L398.61 348.50L396.32 349.10L392.82 350.18L390.27 350.85L387.65 350.72L385.70 350.38L382.74 350.18L379.09 350.47L376.07 349.63L375.40 346.54L376.67 342.61L377.34 339.40L377.88 335.83L377.82 332.39L377.76 329.24L369.66 329.43L364.68 329.76L361.09 330.26L357.68 330.59L353.34 331.18L350.26 331.28L345.14 331.69L338.69 333.63L335.70 334.16L335.78 336.75L335.96 339.74L335.96 341.81L335.99 344.10L335.57 346.01L334.52 348.23L333.67 349.36L333.21 350.98L332.46 352.89L332.02 354.31L331.12 356.19L330.32 358.43L330.19 360.64L329.19 362.34L328.29 364.45L327.21 366.05L326.00 368.73L324.86 370.45L324.17 372.02L322.49 374.98L321.75 376.73L320.92 378.59L320.54 380.62L319.66 383.09L318.55 385.77L317.07 389.56L319.26 391.16L321.76 392.29L323.42 392.98L325.19 393.74L326.58 394.44L329.32 395.39L331.14 396.28L332.92 397.36L334.89 398.83L336.49 400.66L338.63 402.77L340.45 404.51L342.20 406.56L344.00 409.14L345.39 411.79L345.80 413.41L345.05 415.43L344.56 417.23L344.50 419.58L344.81 422.38L345.11 424.52L345.17 427.65L344.86 430.11L344.81 432.47L344.44 434.96L344.08 436.76L343.23 440.14L340.72 440.69L338.07 440.23L335.52 439.42L333.33 438.51L329.98 437.62L328.16 438.23L325.58 439.78L322.45 441.79L320.22 442.79L317.15 443.97L315.43 444.91L312.77 446.24L310.70 447.74L309.15 448.57L307.69 449.23L306.32 449.79L304.83 450.30L300.03 452.50L298.61 453.22L295.07 454.94L291.99 456.63L288.86 457.82L285.59 458.43L282.11 458.64L280.05 458.93L278.50 459.43L277.46 460.58L276.44 461.69L274.78 464.00L273.12 465.66L270.73 466.77L266.44 468.75L265.00 470.06L263.56 471.37L261.53 472.29L259.62 475.11L257.46 477.60L256.48 479.70L255.65 481.00L254.12 482.58L254.45 484.55L255.43 486.78L255.43 489.53L254.31 491.76L251.76 494.51L249.46 497.59L247.04 502.25L244.29 507.62L242.32 512.73L239.63 515.36L237.67 517.91L240.61 517.61L242.19 517.45L244.20 516.82L246.97 516.16L249.10 514.54L249.81 512.31L252.10 512.45L254.08 512.71L255.97 513.03L259.89 512.76L262.39 511.87L265.01 511.22L267.11 510.71L269.06 509.75L271.30 508.66L275.05 508.92L279.68 509.01L286.53 508.73L289.22 508.12L290.71 507.60L292.52 506.96L295.11 505.09L296.98 502.59L298.14 499.56L299.91 497.80L301.85 498.12L303.63 498.45L305.85 499.08L307.27 499.63L308.70 500.73L309.83 501.92L311.25 503.27L312.87 504.37L314.74 505.50L316.83 506.26L319.42 507.05L322.65 507.95L325.09 509.33L326.02 510.53L327.10 512.25L328.26 514.33L329.72 516.34L331.05 518.62L332.16 520.71L333.50 522.60L335.58 524.16L336.98 525.96L338.27 527.65L339.77 528.37L341.83 529.11L343.46 529.64L345.61 530.16L348.87 530.29L351.41 530.03L352.90 529.81L355.84 529.56L359.10 531.63L360.82 530.62L362.94 529.47L364.68 528.54L366.16 528.02L368.39 526.60L370.05 525.85L372.55 524.46L376.46 522.39L379.29 521.23L381.94 520.76L384.13 520.32L388.08 520.82L390.87 521.21L393.14 520.74L396.01 521.53L397.90 519.39L399.18 517.58L401.40 514.58L409.69 508.44L412.28 504.63L412.73 501.02L414.55 496.61L415.42 491.99L416.35 487.88L416.08 483.31L418.97 478.73L421.11 474.32L420.09 471.60L419.18 469.48L418.56 465.52L418.03 463.01L417.61 461.26L417.67 458.52L419.43 455.44L420.43 452.74L421.86 451.00L423.71 448.21L424.97 449.16L426.34 449.87L428.30 450.35L430.51 451.08L433.04 451.96L434.87 452.55L437.42 453.13L439.61 454.37L438.57 458.21L439.55 459.30L442.43 461.81L447.11 464.35L449.16 464.88L451.39 465.62L453.31 465.89L454.69 466.22L456.75 466.72L459.29 467.76L461.67 468.37L465.19 468.64L467.78 469.11L470.23 469.79L471.96 470.37L476.93 472.55L480.31 473.57L482.73 473.15L486.30 472.89L488.33 472.59L490.97 472.21L490.80 474.43L490.67 477.11L490.51 480.24L490.37 483.01L489.90 485.58L489.98 488.39L490.63 491.80L492.57 494.28L495.01 493.00L495.92 491.48L498.12 489.55L500.82 488.51L503.34 489.39L505.83 489.87L508.64 489.08L511.11 487.38L513.99 485.84L516.33 484.22L515.42 482.52L514.23 479.30L513.15 476.37L512.24 473.83L512.60 471.05L513.41 468.51L513.73 465.35L513.17 463.31L511.99 461.82L510.64 459.27L509.19 456.96L507.14 455.70L505.73 454.22L504.01 452.06L502.96 449.07L502.20 446.99L499.64 444.33L498.30 442.03L496.86 438.92L495.73 436.50L493.47 433.04L491.95 430.52L489.87 428.84L488.19 427.62L486.80 425.60L485.22 423.08L483.12 421.42L480.88 419.87L478.03 417.57L473.82 414.44L470.87 412.31L467.22 408.87L463.95 406.26L460.22 403.79L457.53 400.70L455.29 398.54L455.30 396.30L454.60 394.10L452.89 392.07L454.19 390.39L456.14 388.59L457.31 386.36L457.44 382.79L458.20 377.74L458.73 374.75L457.92 367.41L457.78 361.45L459.33 355.78L458.59 347.65L452.19 346.44L447.47 344.96L441.17 342.96L436.15 342.91L428.86 341.61L424.00 342.91L415.15 344.58L408.26 346.33Z" data-ward="14" /><path id="ward-10" class="ward" d="M669.21 379.27L669.51 376.83L670.77 374.21L668.60 373.22L662.97 371.93L663.69 368.69L664.70 362.25L665.85 358.37L673.29 362.06L675.31 360.49L675.63 358.75L676.31 355.12L677.12 351.53L680.06 348.54L685.19 346.25L693.43 346.17L696.18 343.70L697.82 341.91L699.79 340.54L702.86 338.63L704.25 336.52L705.67 334.91L706.50 332.52L707.58 331.19L710.48 329.26L710.67 326.34L710.35 324.37L709.84 321.22L709.18 316.97L709.80 312.65L710.48 309.37L710.77 305.12L710.85 302.39L710.89 299.10L711.02 293.90L711.42 289.92L711.85 288.57L712.82 284.02L713.16 282.08L713.89 278.81L712.47 277.95L707.72 276.04L704.29 274.72L700.80 273.32L696.72 271.80L693.63 270.04L689.90 270.18L688.54 270.31L686.71 270.42L684.02 270.76L681.88 271.08L680.41 271.20L677.43 271.06L671.91 271.00L668.67 270.77L667.08 270.54L665.61 270.64L664.02 271.80L663.18 274.16L662.61 276.02L659.62 276.06L656.89 275.83L654.00 275.41L652.59 276.09L649.59 276.90L647.60 277.32L645.59 277.34L642.85 277.39L639.52 276.70L637.42 279.89L635.76 279.65L634.11 279.41L621.44 274.30L617.25 273.39L608.17 269.85L605.17 269.33L603.30 268.19L602.51 266.19L600.66 264.30L602.19 262.06L600.97 261.12L598.91 259.52L596.17 258.41L593.59 256.85L590.83 255.18L587.54 253.57L585.12 252.37L583.08 251.27L581.82 250.58L580.34 249.97L576.49 248.35L573.25 256.17L571.11 260.84L570.40 262.40L569.05 266.30L567.66 271.36L567.35 275.85L566.00 282.35L564.38 286.64L563.69 288.70L562.84 291.60L561.66 294.45L562.00 295.94L565.08 297.75L566.74 298.45L568.70 300.37L568.28 304.25L567.55 306.62L565.37 310.71L564.67 312.07L563.96 314.72L561.98 316.99L559.41 315.95L556.84 314.57L553.96 313.02L551.87 311.89L550.48 310.62L546.58 308.59L546.21 310.23L544.99 312.46L543.62 314.30L540.33 320.57L539.79 323.86L536.51 330.74L537.56 334.41L533.83 338.24L531.45 336.68L529.67 340.22L533.03 343.21L535.71 344.02L538.78 344.98L541.19 346.01L544.31 347.37L546.70 348.43L549.42 349.19L552.07 350.36L554.61 351.02L556.66 351.69L555.45 355.63L554.95 358.19L553.61 360.24L552.82 362.60L551.49 364.53L550.11 366.47L548.48 369.24L547.29 370.88L546.01 372.14L543.48 374.66L541.65 376.06L540.82 377.29L539.65 379.00L537.83 381.96L536.88 384.09L536.11 385.94L535.38 387.84L534.19 390.57L533.31 393.78L530.69 392.66L529.51 391.79L527.92 390.64L525.17 388.92L523.84 390.61L522.49 392.39L519.88 395.60L517.92 398.69L520.49 400.38L523.52 401.62L525.53 402.86L526.79 404.30L526.54 406.93L525.90 408.46L526.12 410.93L527.00 412.16L529.22 414.27L531.74 415.84L534.48 417.20L536.84 418.33L538.61 419.05L540.15 419.72L541.66 420.41L543.70 421.23L545.85 422.20L548.18 423.76L549.46 424.91L551.42 426.46L552.70 427.30L554.71 428.57L556.66 429.87L558.53 430.84L560.71 431.73L563.24 432.48L565.75 433.49L567.25 434.88L568.55 436.10L570.14 437.73L572.47 438.49L574.83 437.33L577.09 437.27L578.55 438.69L579.83 439.90L580.92 441.41L582.95 443.79L584.70 441.76L585.92 438.33L586.47 435.87L586.60 433.99L586.86 431.11L586.88 429.35L587.27 427.10L588.08 425.25L589.83 421.62L590.56 418.80L591.61 417.63L593.62 418.30L595.68 419.91L598.75 423.03L600.58 424.69L602.80 425.94L605.43 426.00L607.78 427.13L609.49 428.87L610.31 430.58L611.57 431.78L613.06 432.71L618.36 433.49L620.54 433.83L622.44 434.14L624.68 434.52L627.03 434.66L628.83 434.74L630.64 435.36L632.07 435.78L633.29 437.09L634.84 438.92L636.78 440.42L638.72 441.75L641.50 443.22L643.71 444.34L645.91 444.94L648.05 442.27L649.68 440.68L651.69 438.74L653.89 436.08L655.60 433.29L655.96 430.58L655.68 429.01L655.18 426.72L654.99 425.09L655.22 423.50L655.64 420.50L655.96 417.96L656.67 415.62L657.56 413.62L658.37 411.73L658.65 410.27L659.14 407.41L659.82 405.30L661.10 401.69L661.85 400.15L663.38 396.71L664.18 394.71L664.80 393.21L666.13 390.25L667.17 388.03L667.55 386.54L668.47 383.89L668.73 381.83L669.21 379.27Z" data-ward="10" /><path id="ward-3" class="ward" d="M317.09 227.68L316.06 228.89L315.04 230.08L312.74 233.84L310.52 236.90L308.24 239.72L305.12 243.06L303.68 244.67L302.27 246.24L298.59 249.21L296.54 250.86L292.89 252.33L290.87 252.71L288.08 252.66L284.90 252.60L280.18 252.53L275.75 252.34L273.14 252.37L269.63 252.39L265.97 252.56L266.46 254.48L267.90 256.58L267.17 258.34L266.79 260.73L266.42 263.09L263.40 264.80L262.08 265.55L260.95 267.96L259.27 271.57L258.71 274.50L257.84 279.04L253.56 278.97L252.60 272.50L252.43 269.66L252.25 266.63L252.09 263.94L251.49 260.36L249.90 258.51L247.40 255.59L243.75 252.94L239.74 250.58L238.20 248.49L235.30 246.17L232.89 244.23L230.45 242.28L225.96 239.87L223.12 238.34L218.03 239.08L213.33 237.32L210.87 239.69L209.87 240.65L207.56 243.96L205.79 248.57L205.38 254.35L206.63 259.42L207.89 262.38L209.37 265.94L210.87 269.74L214.24 272.72L217.85 274.21L219.30 275.38L221.21 277.40L223.87 279.82L227.91 282.43L231.84 284.84L234.82 289.61L236.83 292.62L238.32 296.18L241.16 302.06L244.25 307.07L247.59 311.05L250.74 315.27L252.75 318.09L254.48 321.49L255.68 326.03L257.29 329.15L259.19 331.92L260.96 335.10L260.30 338.21L259.72 341.11L259.03 344.47L258.33 346.45L256.91 349.85L260.76 350.66L264.75 351.37L266.77 351.96L269.45 352.56L272.36 353.04L275.27 353.31L277.58 352.80L279.09 352.37L281.48 352.13L283.18 351.81L285.69 351.55L285.82 353.08L285.83 354.95L285.32 358.79L284.94 362.05L284.28 364.62L283.91 366.39L286.25 368.85L288.86 370.26L290.96 371.15L293.12 372.07L294.46 372.84L296.28 374.36L297.71 375.59L300.65 377.73L302.01 378.68L303.64 379.72L305.15 380.78L306.55 381.76L310.19 384.73L311.40 385.58L313.75 387.23L317.07 389.56L318.55 385.77L319.66 383.09L320.54 380.62L320.92 378.59L321.75 376.73L322.49 374.98L324.17 372.02L324.86 370.45L326.00 368.73L327.21 366.05L328.29 364.45L329.19 362.34L330.19 360.64L330.32 358.43L331.12 356.19L332.02 354.31L332.46 352.89L333.21 350.98L333.67 349.36L334.52 348.23L335.57 346.01L335.99 344.10L335.96 341.81L335.96 339.74L335.78 336.75L335.70 334.16L338.69 333.63L345.14 331.69L350.26 331.28L353.34 331.18L357.68 330.59L361.09 330.26L364.68 329.76L369.66 329.43L377.76 329.24L377.82 332.39L377.88 335.83L377.34 339.40L376.67 342.61L375.40 346.54L376.07 349.63L379.09 350.47L382.74 350.18L385.70 350.38L387.65 350.72L390.27 350.85L392.82 350.18L396.32 349.10L398.61 348.50L401.70 348.16L404.19 347.42L405.98 346.94L408.26 346.33L407.40 342.58L407.14 341.05L406.31 337.27L405.61 334.11L405.39 330.96L405.23 328.18L401.85 328.52L397.58 328.91L391.73 329.46L387.99 329.44L383.57 329.38L383.11 325.59L383.01 322.20L383.72 317.76L384.30 315.33L386.29 315.14L388.45 315.19L389.90 313.84L390.79 311.26L394.29 310.98L400.87 309.98L401.23 307.60L401.83 303.95L402.51 300.50L399.89 300.76L396.76 301.16L393.11 301.58L393.19 288.18L395.26 288.10L398.10 288.11L400.10 288.14L402.20 287.77L403.86 286.00L403.77 284.12L403.69 282.41L403.38 279.64L403.03 277.58L402.29 275.01L401.32 273.27L400.56 271.87L398.77 268.27L398.96 264.65L400.50 262.62L402.09 261.79L403.60 261.29L405.66 260.86L408.11 259.96L409.73 259.24L411.68 257.88L413.73 256.97L415.26 256.57L417.95 255.37L416.71 253.51L416.91 251.12L416.59 249.21L417.43 246.35L418.51 243.70L417.35 242.11L415.96 240.77L416.73 239.36L417.46 237.05L417.38 234.46L417.25 231.80L418.50 229.00L419.52 227.54L420.86 224.76L421.35 221.89L421.86 218.92L419.93 216.81L417.75 214.18L415.12 211.04L413.38 208.37L411.99 206.91L410.44 206.12L408.52 205.11L406.88 204.28L402.04 200.46L400.89 197.74L400.08 196.34L398.78 194.08L396.10 193.50L393.32 192.91L389.45 193.03L387.75 193.22L386.14 193.82L381.87 195.84L380.31 196.42L378.74 197.01L376.88 198.57L374.71 200.27L372.99 201.90L369.62 204.54L368.26 206.33L366.44 207.25L363.44 208.77L360.31 207.90L356.93 207.89L354.44 209.03L351.51 211.28L347.90 213.82L346.67 214.55L344.03 216.07L340.20 218.38L336.54 219.99L331.34 221.75L328.22 222.64L324.87 223.59L323.17 224.08L320.51 225.65L317.09 227.68Z" data-ward="3" /></svg>