<svg viewBox="0 0 1000.00 871.25" xmlns="http://www.w3.org/2000/svg"><style>.ward { fill: #e2e8f0; stroke: #fff; stroke-width: 0.5px; } .ward:hover { fill: #cbd5e1; }</style><path id="ward-32" class="ward" d="M50.66 230.01L46.99 228.51L42.99 226.87L33.23 219.50L29.41 217.24L23.77 213.97L20.93 212.33L17.93 210.59L14.91 208.84L11.95 215.24L15.64 222.50L13.19 229.46L13.93 235.30L5.28 237.39L4.91 249.36L7.28 253.52L8.33 256.20L9.50 258.61L10.76 261.18L10.88 264.29L11.03 268.22L12.19 272.66L13.10 276.17L14.15 279.57L15.53 284.02L16.08 285.82L18.44 290.09L20.17 293.20L21.93 296.35L24.44 305.35L21.32 305.82L17.72 305.49L13.89 304.83L13.13 306.00L10.94 309.53L9.36 312.07L9.23 314.68L10.61 315.05L12.66 316.43L13.23 318.56L13.36 321.24L11.43 323.56L10.94 326.40L12.27 329.83L13.71 333.52L14.06 335.01L15.84 339.10L16.49 341.19L16.22 343.71L16.04 345.32L16.15 347.03L16.26 348.95L17.51 353.24L18.46 354.49L19.41 355.76L19.33 357.47L20.31 359.03L21.64 361.14L22.20 363.05L22.62 364.48L23.13 366.23L23.74 368.31L23.94 370.77L25.08 374.15L27.65 377.19L28.61 378.74L25.98 380.56L23.87 383.08L22.44 386.29L19.67 392.53L30.37 398.08L71.71 420.31L76.59 418.51L97.72 410.72L120.02 402.70L140.48 407.40L159.74 411.84L163.46 414.28L183.96 427.80L195.03 438.32L213.42 452.03L228.12 456.98L238.32 461.87L238.59 459.87L243.17 425.66L242.27 423.98L231.50 417.54L228.11 414.69L197.96 389.34L164.41 361.12L165.46 358.79L168.35 352.46L164.27 347.08L163.37 345.88L161.65 344.46L158.30 343.16L155.49 343.24L151.13 342.37L145.80 339.05L138.10 334.05L124.25 326.94L118.92 321.48L124.12 288.45L116.49 282.32L111.60 278.32L87.40 258.47L94.42 240.39L130.90 263.93L145.63 268.37L149.39 269.39L154.38 257.46L158.10 248.51L160.47 242.83L161.71 239.47L161.57 237.50L161.23 232.62L161.06 230.24L161.35 222.38L153.97 202.96L152.75 198.50L151.09 177.25L155.87 147.22L146.24 147.34L143.26 147.44L138.48 148.14L129.98 147.17L126.45 147.79L121.64 147.14L115.83 147.41L113.84 148.92L106.01 150.16L99.69 153.96L98.60 155.54L95.44 160.10L93.07 162.14L91.28 163.67L82.49 158.22L78.92 159.69L76.81 160.56L74.47 161.52L71.29 162.83L67.26 162.43L64.66 162.17L61.92 162.46L55.45 171.79L52.63 173.80L50.30 175.70L48.35 177.29L47.02 183.81L45.80 189.79L44.49 196.20L48.19 199.18L49.62 198.30L52.59 202.89L52.60 204.51L52.69 206.32L54.13 211.27L54.96 213.95L61.61 223.68L66.62 229.04L66.31 232.84L66.38 235.57L66.82 238.83L60.87 236.63L56.28 233.64L52.83 231.09L50.66 230.01Z" data-ward="32" /><path id="ward-2" class="ward" d="M433.89 328.66L436.12 331.24L438.26 332.92L446.72 339.58L439.67 341.68L430.03 344.52L425.02 351.52L421.04 370.45L422.34 375.32L419.29 379.67L417.29 380.50L415.28 381.33L414.41 387.62L409.92 388.11L409.69 395.85L404.74 411.73L407.37 418.81L419.12 421.33L415.36 430.40L427.12 434.49L429.24 434.80L448.43 437.59L461.36 424.63L463.18 424.02L465.00 423.40L467.31 422.65L469.86 422.14L471.96 421.77L476.37 421.09L478.14 420.82L481.80 419.61L483.20 419.15L485.00 418.56L487.83 415.60L492.47 410.69L496.11 404.68L498.43 400.77L499.82 398.44L502.40 392.77L503.80 389.67L507.28 381.98L508.61 379.04L514.51 369.25L517.23 364.66L521.11 359.53L520.19 357.50L520.47 352.79L520.71 348.88L519.69 337.53L517.40 333.12L516.40 331.33L515.73 329.47L516.74 324.24L516.95 321.11L515.35 318.68L511.70 313.15L510.50 311.02L507.71 307.85L506.90 301.64L504.26 295.40L503.57 291.78L499.58 285.38L497.73 281.89L496.59 280.50L494.55 277.04L492.11 272.90L487.21 264.60L482.23 260.07L480.15 259.79L476.97 254.82L471.77 246.69L469.31 242.51L467.64 239.50L465.88 236.34L463.34 233.27L461.36 230.88L457.54 229.72L453.05 227.13L450.97 226.76L447.59 225.57L446.62 224.45L442.31 220.71L436.55 215.71L420.57 206.50L420.86 203.98L420.87 200.77L421.18 194.00L421.09 180.95L382.26 163.18L372.75 160.90L339.69 152.83L339.84 167.68L343.81 172.37L349.38 179.10L348.58 181.22L345.48 183.31L344.64 184.68L339.20 193.53L335.03 197.14L345.83 219.15L350.65 216.22L352.59 217.26L355.85 219.00L356.67 220.31L360.35 226.16L368.53 232.00L378.71 241.01L384.04 252.29L384.54 259.93L393.89 264.10L395.80 265.40L397.01 266.23L398.78 271.84L399.27 273.37L406.92 287.14L412.10 296.46L420.36 304.96L423.44 308.12L427.61 312.64L431.61 319.97L431.59 323.66L433.89 328.66Z" data-ward="2" /><path id="ward-33" class="ward" d="M219.28 191.67L224.25 187.09L232.62 185.20L240.27 185.12L246.42 185.56L254.90 184.56L258.26 188.05L265.33 184.67L269.73 191.15L271.95 191.96L277.97 190.15L279.55 191.38L280.83 199.00L281.57 209.40L285.30 215.37L290.30 219.14L295.90 223.35L303.89 228.58L311.50 236.58L310.06 239.02L307.21 243.82L305.43 252.32L304.17 258.37L303.33 264.51L302.25 272.47L302.07 282.37L306.35 287.91L307.00 298.22L305.09 308.25L305.98 312.90L307.60 320.44L310.21 331.92L310.57 333.55L312.04 346.17L313.46 357.76L313.47 360.11L313.48 362.45L313.38 366.41L315.33 365.83L318.52 364.87L325.86 356.70L327.53 356.49L338.39 363.52L341.62 359.23L343.18 357.11L344.04 354.03L344.03 350.51L343.68 347.42L344.87 341.72L346.50 340.23L350.62 337.36L356.32 339.14L362.17 340.95L367.11 342.47L369.51 335.52L372.72 328.65L373.81 326.32L378.92 317.92L384.17 302.52L388.14 296.17L395.59 293.46L397.33 292.82L402.49 289.87L406.92 287.14L399.27 273.37L398.78 271.84L397.01 266.23L395.80 265.40L393.89 264.10L384.54 259.93L384.04 252.29L378.71 241.01L368.53 232.00L360.35 226.16L356.67 220.31L355.85 219.00L352.59 217.26L350.65 216.22L345.83 219.15L335.03 197.14L339.20 193.53L344.64 184.68L345.48 183.31L348.58 181.22L349.38 179.10L343.81 172.37L339.84 167.68L339.69 152.83L337.75 150.09L333.79 142.26L332.98 140.74L306.32 130.78L298.77 121.18L296.79 118.59L290.55 110.45L288.11 111.09L280.86 112.22L273.70 113.01L269.84 109.79L264.58 105.40L262.67 104.32L259.28 102.40L256.31 100.72L252.51 100.55L248.28 100.35L243.57 100.13L242.18 100.07L238.57 99.90L236.30 106.46L234.76 106.36L228.55 105.95L225.78 108.30L223.80 109.97L221.73 112.64L218.38 117.47L217.23 118.81L216.30 121.03L215.51 122.91L213.34 122.47L210.30 134.29L209.09 138.20L208.75 142.19L206.76 144.97L197.22 148.66L190.91 149.36L187.40 148.81L175.51 146.93L159.42 147.17L155.87 147.22L151.09 177.25L152.75 198.50L153.97 202.96L169.23 202.10L170.97 201.98L188.72 200.83L200.97 198.47L202.68 198.12L209.26 195.56L219.28 191.67Z" data-ward="33" /><path id="ward-16" class="ward" d="M492.09 462.62L496.95 453.06L461.66 445.04L448.43 437.59L429.24 434.80L427.12 434.49L415.36 430.40L387.65 421.44L386.11 420.94L381.85 419.56L380.29 419.06L377.06 432.87L378.96 433.49L381.11 434.86L383.43 436.34L384.53 438.24L386.09 441.23L385.90 442.75L385.10 444.88L383.77 446.99L381.42 449.47L379.12 453.06L378.40 457.65L379.50 463.85L379.76 465.47L381.09 472.52L384.70 475.58L388.49 478.26L389.66 479.29L397.30 483.33L398.29 482.11L400.96 478.82L403.44 480.17L409.74 483.61L406.25 489.62L403.13 496.43L402.13 498.61L401.76 501.46L400.58 510.66L399.85 516.28L399.33 518.04L397.24 525.10L404.08 528.45L409.80 531.25L418.34 513.20L433.43 517.12L437.21 518.11L438.84 514.56L439.84 512.38L449.66 515.68L457.52 518.32L461.81 518.04L464.42 519.35L469.01 513.77L470.62 511.34L471.74 509.82L473.26 510.32L474.92 510.89L478.26 512.00L485.24 514.31L486.12 512.71L491.18 503.47L496.25 494.22L499.91 487.53L500.18 486.05L500.98 481.70L489.15 475.49L492.09 462.62Z" data-ward="16" /><path id="ward-7" class="ward" d="M738.57 348.62L740.16 357.39L743.46 375.57L747.70 398.96L748.99 406.08L749.86 410.78L749.26 415.83L749.03 417.73L748.28 419.33L747.27 421.49L744.41 427.62L742.92 428.83L742.30 432.83L741.73 436.42L740.55 443.96L739.29 451.92L739.36 466.72L744.29 478.16L749.72 491.95L749.33 506.45L734.47 511.09L705.92 520.01L708.62 560.05L714.22 560.64L722.83 555.30L730.31 549.50L745.48 547.10L755.44 543.82L779.90 540.36L808.52 550.17L843.94 583.11L881.03 522.72L883.06 518.11L887.20 508.04L888.81 499.86L889.41 496.79L885.34 493.22L884.08 492.12L873.18 484.64L860.60 476.59L840.26 467.72L810.46 449.52L804.70 446.00L802.82 421.06L806.16 401.70L808.55 394.59L811.24 385.83L816.59 368.39L815.97 344.69L815.92 343.09L810.03 337.65L803.82 332.75L789.89 326.56L761.69 313.36L732.53 339.29L738.57 348.62Z" data-ward="7" /><path id="ward-8" class="ward" d="M965.76 488.90L963.81 482.33L963.20 479.58L963.01 475.47L963.00 470.76L963.87 464.98L964.44 461.16L964.99 457.62L965.51 456.25L967.45 451.30L975.42 449.81L969.58 444.42L1000.00 439.10L972.07 419.53L970.68 418.14L957.89 388.32L957.51 385.51L949.15 362.90L927.33 408.85L906.75 426.43L894.56 439.35L892.58 441.46L883.99 455.25L860.60 476.59L873.18 484.64L884.08 492.12L885.34 493.22L889.41 496.79L888.81 499.86L887.20 508.04L883.06 518.11L881.03 522.72L843.94 583.11L845.35 584.37L851.00 589.40L854.86 592.84L860.43 595.91L864.61 599.50L869.16 603.00L876.63 607.29L878.55 610.82L880.16 614.14L883.01 620.02L892.78 628.49L897.79 630.50L910.45 611.99L925.09 597.97L922.55 595.02L926.86 591.19L944.75 600.40L946.69 601.88L952.68 607.00L956.77 604.94L961.45 610.81L969.79 604.28L969.37 572.67L964.36 556.81L965.06 553.06L965.73 548.93L967.26 539.46L967.80 535.86L968.34 532.26L969.82 522.41L970.46 518.14L971.36 512.17L972.13 507.05L969.64 503.39L968.93 499.01L966.58 491.09L965.76 488.90Z" data-ward="8" /><path id="ward-5" class="ward" d="M665.63 384.90L660.74 379.38L658.89 378.23L653.28 374.75L653.26 376.52L667.74 398.25L669.29 401.30L674.84 412.21L675.14 416.75L676.04 430.75L676.30 434.80L674.80 434.82L684.37 456.99L675.22 465.75L682.77 480.84L696.76 508.85L681.53 511.10L674.48 501.54L665.63 495.30L658.91 490.29L652.55 498.56L650.53 513.48L657.28 518.78L649.18 541.06L657.27 547.88L659.80 549.16L668.11 553.38L698.11 558.72L699.84 559.02L708.62 560.05L705.92 520.01L734.47 511.09L749.33 506.45L749.72 491.95L744.29 478.16L739.36 466.72L739.29 451.92L740.55 443.96L741.73 436.42L742.30 432.83L742.92 428.83L717.33 422.02L709.52 414.90L705.96 412.00L696.84 404.61L693.52 396.26L691.91 394.25L688.46 389.94L684.26 387.07L680.97 384.83L677.46 384.66L676.05 384.24L674.87 385.06L670.76 387.93L666.89 386.59L665.63 384.90Z" data-ward="5" /><path id="ward-27" class="ward" d="M367.15 494.68L370.82 488.60L377.54 492.77L378.78 490.97L380.31 488.76L382.53 486.09L386.20 483.26L389.66 479.29L388.49 478.26L384.70 475.58L381.09 472.52L379.76 465.47L379.50 463.85L378.40 457.65L379.12 453.06L381.42 449.47L383.77 446.99L385.10 444.88L385.90 442.75L386.09 441.23L384.53 438.24L383.43 436.34L381.11 434.86L378.96 433.49L377.06 432.87L380.29 419.06L381.85 419.56L386.11 420.94L387.65 421.44L415.36 430.40L419.12 421.33L407.37 418.81L404.74 411.73L409.69 395.85L409.92 388.11L372.22 375.28L366.03 372.34L360.61 369.13L354.06 367.03L338.39 363.52L327.53 356.49L325.86 356.70L318.52 364.87L315.33 365.83L313.38 366.41L313.41 368.18L313.52 376.45L313.59 382.07L314.44 385.20L315.40 388.77L317.45 396.35L319.15 403.00L322.69 408.99L323.39 410.18L324.46 411.91L324.74 414.56L323.81 418.29L322.19 422.46L321.85 424.89L321.51 427.32L322.02 429.64L322.52 431.36L323.19 433.35L323.28 438.30L323.06 442.66L323.04 444.55L323.02 446.45L324.17 452.42L325.51 459.30L326.20 462.24L329.22 467.89L335.34 474.83L340.46 478.50L342.54 481.00L344.18 484.70L345.62 488.83L346.60 492.71L348.24 497.26L348.74 498.78L349.98 502.26L351.74 507.22L352.88 510.33L358.31 506.97L361.14 505.33L362.48 504.18L363.80 503.05L365.90 499.32L368.02 496.48L367.15 494.68Z" data-ward="27" /><path id="ward-29" class="ward" d="M421.04 370.45L425.02 351.52L430.03 344.52L439.67 341.68L446.72 339.58L438.26 332.92L436.12 331.24L433.89 328.66L431.59 323.66L431.61 319.97L427.61 312.64L423.44 308.12L420.36 304.96L412.10 296.46L406.92 287.14L402.49 289.87L397.33 292.82L395.59 293.46L388.14 296.17L384.17 302.52L378.92 317.92L373.81 326.32L372.72 328.65L369.51 335.52L367.11 342.47L362.17 340.95L356.32 339.14L350.62 337.36L346.50 340.23L344.87 341.72L343.68 347.42L344.03 350.51L344.04 354.03L343.18 357.11L341.62 359.23L338.39 363.52L354.06 367.03L360.61 369.13L366.03 372.34L372.22 375.28L409.92 388.11L414.41 387.62L415.28 381.33L417.29 380.50L419.29 379.67L422.34 375.32L421.04 370.45Z" data-ward="29" /><path id="ward-10" class="ward" d="M659.80 549.16L657.27 547.88L645.54 586.02L643.00 594.09L613.58 588.55L616.26 574.07L583.22 563.79L580.15 562.83L580.57 565.04L582.09 573.09L583.37 581.01L577.03 598.44L571.03 604.68L566.45 609.67L564.93 611.32L567.11 611.47L569.73 611.66L578.56 614.83L586.03 620.14L587.76 621.04L591.51 623.49L593.38 624.55L597.93 627.13L602.16 629.63L607.11 632.56L611.27 637.25L612.19 638.29L621.60 648.89L629.88 653.15L638.26 658.77L641.55 660.98L649.09 664.79L652.85 665.55L657.20 666.43L660.25 667.05L665.32 664.36L671.74 647.83L673.23 643.99L674.79 639.98L676.89 634.56L678.45 630.55L679.05 629.01L680.75 626.51L683.75 622.05L686.35 617.69L689.14 612.98L690.33 611.46L692.73 607.46L698.24 602.80L700.96 601.26L703.69 599.98L709.95 601.74L714.08 607.13L715.41 608.88L716.33 607.11L723.90 592.54L740.38 596.87L756.28 582.67L757.16 576.68L757.40 575.06L770.05 571.67L785.96 570.63L796.23 574.32L808.52 550.17L779.90 540.36L755.44 543.82L745.48 547.10L730.31 549.50L722.83 555.30L714.22 560.64L708.62 560.05L699.84 559.02L698.11 558.72L668.11 553.38L659.80 549.16Z" data-ward="10" /><path id="ward-22" class="ward" d="M206.59 638.66L206.96 640.75L209.52 643.77L212.80 647.66L212.91 649.55L215.10 651.06L217.51 652.72L219.53 655.01L228.25 647.25L235.93 640.43L241.89 634.76L256.36 642.63L255.21 656.39L259.16 672.04L278.00 678.95L289.13 678.89L315.57 695.90L330.60 698.66L333.13 689.27L339.16 674.99L341.07 670.80L342.43 668.25L357.70 643.14L349.19 640.47L341.95 635.85L339.20 634.10L329.51 625.43L316.54 613.82L314.25 612.37L311.96 610.92L308.09 608.99L306.72 608.31L297.44 601.55L308.96 596.08L311.05 595.07L304.75 588.88L307.53 583.04L312.40 575.28L312.09 573.40L311.01 571.71L308.12 567.19L301.82 562.89L299.70 561.45L294.52 563.41L290.90 564.82L288.05 565.15L284.89 563.76L283.20 562.43L286.67 551.23L294.49 540.53L295.48 537.63L295.12 533.93L284.85 535.52L275.88 536.90L262.98 533.78L243.87 529.23L236.12 527.66L229.44 526.10L222.26 524.40L213.39 522.24L210.92 521.63L207.98 520.90L205.58 520.08L202.89 519.16L188.02 530.27L186.60 531.34L192.40 536.85L204.01 547.89L198.47 562.26L199.11 571.75L203.00 575.89L199.84 583.83L214.82 589.41L230.10 592.21L206.03 617.88L199.64 633.59L201.38 634.12L202.68 634.52L204.04 634.94L205.65 635.43L206.59 638.66Z" data-ward="22" /><path id="ward-28" class="ward" d="M191.70 308.51L187.57 306.70L183.51 304.13L179.94 301.98L176.77 300.07L174.20 299.36L171.32 297.64L168.86 296.17L166.26 292.00L163.17 272.11L160.79 270.87L158.96 270.72L155.07 270.41L152.36 270.19L149.39 269.39L145.63 268.37L130.90 263.93L94.42 240.39L87.40 258.47L111.60 278.32L116.49 282.32L124.12 288.45L118.92 321.48L124.25 326.94L138.10 334.05L145.80 339.05L151.13 342.37L155.49 343.24L158.30 343.16L161.65 344.46L163.37 345.88L164.27 347.08L168.35 352.46L165.46 358.79L164.41 361.12L197.96 389.34L228.11 414.69L231.50 417.54L242.27 423.98L246.08 424.95L251.00 427.54L255.63 431.32L257.56 433.11L259.19 434.63L266.86 436.43L265.61 442.18L265.60 443.55L271.40 446.15L274.84 447.23L281.65 448.68L283.99 440.57L286.74 436.61L289.72 431.88L292.19 426.53L294.65 421.18L295.32 419.37L298.87 409.81L301.65 404.05L303.95 400.72L305.53 398.85L308.79 397.00L313.79 396.63L317.45 396.35L315.40 388.77L314.44 385.20L313.59 382.07L303.29 378.60L297.61 377.04L294.61 374.74L292.93 369.47L290.50 364.96L281.63 362.48L236.88 349.68L237.92 347.55L238.22 345.83L239.07 340.94L241.93 338.92L242.69 336.77L244.18 332.55L226.26 321.40L220.85 319.10L218.39 318.06L215.97 317.03L214.44 316.38L210.93 314.86L205.59 313.43L201.31 312.35L198.63 311.02L194.89 309.16L193.04 308.78L191.70 308.51Z" data-ward="28" /><path id="ward-25" class="ward" d="M242.27 423.98L243.17 425.66L238.59 459.87L238.32 461.87L228.12 456.98L213.42 452.03L195.03 438.32L183.96 427.80L167.25 425.04L162.74 424.00L154.56 421.43L149.60 421.42L152.09 424.31L166.60 434.60L170.39 437.48L172.28 439.52L175.51 443.60L179.02 446.15L182.42 450.93L183.30 452.20L185.79 455.53L201.96 460.27L214.57 472.88L205.39 483.19L202.68 497.99L198.39 503.83L197.44 505.13L195.98 507.12L197.27 509.34L194.23 513.74L196.46 515.14L202.89 519.16L205.58 520.08L207.98 520.90L210.92 521.63L213.39 522.24L222.26 524.40L229.44 526.10L236.12 527.66L243.87 529.23L249.68 515.37L256.72 505.95L263.00 500.60L269.04 491.13L273.18 482.03L274.83 477.35L276.85 471.40L277.90 467.25L278.95 463.10L279.34 461.03L280.80 453.13L281.65 448.68L274.84 447.23L271.40 446.15L265.60 443.55L265.61 442.18L266.86 436.43L259.19 434.63L257.56 433.11L255.63 431.32L251.00 427.54L246.08 424.95L242.27 423.98Z" data-ward="25" /><path id="ward-17" class="ward" d="M262.98 533.78L275.88 536.90L284.85 535.52L295.12 533.93L295.48 537.63L294.49 540.53L286.67 551.23L283.20 562.43L284.89 563.76L288.05 565.15L290.90 564.82L294.52 563.41L299.70 561.45L301.82 562.89L308.12 567.19L311.01 571.71L312.09 573.40L312.40 575.28L307.53 583.04L304.75 588.88L311.05 595.07L308.96 596.08L297.44 601.55L306.72 608.31L308.09 608.99L311.96 610.92L314.25 612.37L316.54 613.82L329.51 625.43L339.20 634.10L341.95 635.85L349.19 640.47L357.70 643.14L361.22 633.28L362.51 629.65L364.65 623.68L366.76 615.03L368.53 608.86L370.02 603.68L372.23 596.17L373.18 590.67L373.70 587.70L375.00 580.35L375.88 578.85L379.93 571.98L384.16 564.67L385.49 561.69L385.42 558.26L373.89 554.11L364.10 550.65L367.57 542.79L367.41 538.50L367.20 532.89L364.84 528.66L358.53 525.71L351.62 520.69L350.87 519.49L348.13 516.57L345.91 515.06L344.55 514.14L342.79 513.65L341.10 513.16L334.55 510.44L333.27 508.35L332.33 506.40L331.41 502.79L330.54 500.86L328.49 496.35L327.69 493.38L326.24 491.46L324.45 490.43L319.04 489.09L311.63 488.85L312.55 496.75L312.93 498.50L312.74 499.87L311.92 501.63L307.33 511.46L296.73 505.79L291.51 503.01L289.58 502.01L285.68 499.98L281.29 497.71L273.82 493.70L269.04 491.13L263.00 500.60L256.72 505.95L249.68 515.37L243.87 529.23L262.98 533.78Z" data-ward="17" /><path id="ward-31" class="ward" d="M234.00 298.84L234.08 296.53L231.82 277.77L232.82 255.94L233.38 241.60L232.46 239.96L230.75 237.13L219.81 218.51L218.96 217.06L214.85 206.82L219.28 191.67L209.26 195.56L202.68 198.12L200.97 198.47L188.72 200.83L170.97 201.98L169.23 202.10L153.97 202.96L161.35 222.38L161.06 230.24L161.23 232.62L161.57 237.50L161.71 239.47L160.47 242.83L158.10 248.51L154.38 257.46L149.39 269.39L152.36 270.19L155.07 270.41L158.96 270.72L160.79 270.87L163.17 272.11L166.26 292.00L168.86 296.17L171.32 297.64L174.20 299.36L176.77 300.07L179.94 301.98L183.51 304.13L187.57 306.70L191.70 308.51L193.04 308.78L194.89 309.16L198.63 311.02L201.31 312.35L205.59 313.43L210.93 314.86L214.44 316.38L215.97 317.03L218.39 318.06L220.85 319.10L226.26 321.40L227.35 319.40L228.08 317.75L233.80 304.87L234.00 298.84Z" data-ward="31" /><path id="ward-19" class="ward" d="M278.00 678.95L259.16 672.04L255.21 656.39L256.36 642.63L241.89 634.76L235.93 640.43L228.25 647.25L219.53 655.01L218.26 655.82L216.97 656.65L215.46 657.61L213.63 658.78L211.53 660.12L209.39 661.49L207.23 662.87L205.06 664.25L202.83 665.67L198.47 668.45L221.14 683.77L243.44 707.19L252.08 694.20L290.55 695.97L318.01 710.06L320.50 710.54L334.97 713.39L331.54 730.12L339.59 737.42L367.35 765.85L370.67 764.56L384.08 759.32L388.66 757.53L396.08 754.63L399.41 752.34L402.86 751.47L411.77 746.40L412.92 742.43L410.68 730.36L406.52 716.64L404.90 715.46L344.64 671.93L339.16 674.99L333.13 689.27L330.60 698.66L315.57 695.90L289.13 678.89L278.00 678.95Z" data-ward="19" /><path id="ward-1" class="ward" d="M426.54 139.23L433.66 130.26L433.55 122.98L433.24 119.41L432.17 107.40L432.20 97.06L435.29 94.65L437.13 89.54L435.21 84.37L437.29 77.62L438.74 71.64L440.45 64.86L441.22 60.92L437.34 53.82L432.93 49.39L429.25 40.49L428.09 36.56L425.61 28.21L418.98 17.27L416.37 15.21L420.60 7.85L415.90 3.40L411.04 5.05L402.50 10.89L396.12 10.02L384.23 2.38L382.46 1.24L380.28 0.00L379.00 1.37L372.21 8.70L369.53 11.59L356.65 19.02L340.72 31.04L335.85 57.35L335.16 58.67L325.06 75.39L323.78 77.41L326.21 80.88L309.73 94.32L307.37 96.25L308.81 101.83L301.63 105.15L298.50 106.60L293.34 109.10L290.55 110.45L296.79 118.59L298.77 121.18L306.32 130.78L332.98 140.74L333.79 142.26L337.75 150.09L339.69 152.83L372.75 160.90L382.26 163.18L421.09 180.95L431.09 181.75L431.14 176.82L431.21 174.92L431.33 171.79L432.31 169.51L432.64 167.84L433.13 165.40L432.80 163.13L432.56 161.43L431.20 158.21L430.54 156.97L426.87 150.08L426.54 139.23Z" data-ward="1" /><path id="ward-26" class="ward" d="M319.15 403.00L317.45 396.35L313.79 396.63L308.79 397.00L305.53 398.85L303.95 400.72L301.65 404.05L298.87 409.81L295.32 419.37L294.65 421.18L292.19 426.53L289.72 431.88L286.74 436.61L283.99 440.57L281.65 448.68L280.80 453.13L279.34 461.03L278.95 463.10L277.90 467.25L276.85 471.40L274.83 477.35L273.18 482.03L269.04 491.13L273.82 493.70L281.29 497.71L285.68 499.98L289.58 502.01L291.51 503.01L296.73 505.79L307.33 511.46L311.92 501.63L312.74 499.87L312.93 498.50L312.55 496.75L311.63 488.85L319.04 489.09L324.45 490.43L326.24 491.46L327.69 493.38L328.49 496.35L330.54 500.86L331.41 502.79L332.33 506.40L333.27 508.35L334.55 510.44L341.10 513.16L342.79 513.65L344.55 514.14L345.91 515.06L348.13 516.57L350.87 519.49L351.62 520.69L358.53 525.71L364.84 528.66L360.26 520.71L358.21 517.16L353.66 511.96L352.88 510.33L351.74 507.22L349.98 502.26L348.74 498.78L348.24 497.26L346.60 492.71L345.62 488.83L344.18 484.70L342.54 481.00L340.46 478.50L335.34 474.83L329.22 467.89L326.20 462.24L325.51 459.30L324.17 452.42L323.02 446.45L323.04 444.55L323.06 442.66L323.28 438.30L323.19 433.35L322.52 431.36L322.02 429.64L321.51 427.32L321.85 424.89L322.19 422.46L323.81 418.29L324.74 414.56L324.46 411.91L323.39 410.18L322.69 408.99L319.15 403.00Z" data-ward="26" /><path id="ward-11" class="ward" d="M574.42 486.57L567.35 504.92L568.83 534.57L569.96 555.26L577.35 560.75L580.15 562.83L583.22 563.79L616.26 574.07L613.58 588.55L643.00 594.09L645.54 586.02L657.27 547.88L649.18 541.06L657.28 518.78L650.53 513.48L652.55 498.56L658.91 490.29L665.63 495.30L674.48 501.54L681.53 511.10L696.76 508.85L682.77 480.84L675.22 465.75L665.10 473.23L657.21 465.63L640.06 468.09L639.89 472.72L623.96 467.75L621.46 466.98L601.22 459.38L592.02 465.11L574.42 486.57Z" data-ward="11" /><path id="ward-4" class="ward" d="M674.80 434.82L676.30 434.80L676.04 430.75L675.14 416.75L674.84 412.21L669.29 401.30L667.74 398.25L653.26 376.52L653.28 374.75L650.19 372.83L642.64 369.72L632.08 365.36L617.33 359.28L607.65 355.29L606.08 354.64L599.46 362.24L593.04 370.25L591.64 372.60L589.66 375.94L584.44 381.19L582.39 383.79L582.95 387.23L583.71 391.78L584.26 395.15L584.38 401.26L585.45 404.31L586.91 409.38L587.74 411.78L585.62 417.73L580.96 426.51L575.63 436.56L569.43 434.89L564.41 431.62L557.41 442.96L538.77 503.93L540.16 504.77L546.67 504.20L567.35 504.92L574.42 486.57L592.02 465.11L601.22 459.38L621.46 466.98L623.96 467.75L639.89 472.72L640.06 468.09L657.21 465.63L665.10 473.23L675.22 465.75L684.37 456.99L674.80 434.82Z" data-ward="4" /><path id="ward-9" class="ward" d="M869.16 603.00L864.61 599.50L860.43 595.91L854.86 592.84L851.00 589.40L845.35 584.37L843.94 583.11L808.52 550.17L796.23 574.32L785.96 570.63L770.05 571.67L757.40 575.06L757.16 576.68L756.28 582.67L740.38 596.87L723.90 592.54L716.33 607.11L715.41 608.88L718.42 612.85L720.44 615.56L721.65 617.38L723.78 620.65L725.47 623.25L727.92 627.01L731.17 630.86L731.89 632.59L735.07 636.10L738.88 638.23L740.27 638.65L744.17 639.43L745.78 640.04L750.57 640.73L757.64 641.73L761.81 642.33L764.21 643.34L769.36 645.56L770.75 646.38L777.23 650.16L779.26 651.35L782.24 654.02L784.24 655.82L785.34 656.80L787.12 658.41L792.02 663.89L797.01 669.49L801.40 674.41L811.60 685.84L822.89 698.50L828.54 704.83L831.51 702.84L835.02 700.50L836.52 695.99L840.02 695.92L843.46 695.84L846.14 694.01L847.50 693.14L849.86 689.75L852.38 690.27L853.86 691.47L855.57 692.88L858.09 693.80L860.47 694.66L862.53 695.42L864.48 692.59L867.56 688.12L869.19 685.74L870.54 683.29L872.98 684.25L877.62 686.06L879.25 686.68L878.38 668.72L878.16 664.25L884.91 642.07L892.78 628.49L883.01 620.02L880.16 614.14L878.55 610.82L876.63 607.29L869.16 603.00Z" data-ward="9" /><path id="ward-14" class="ward" d="M509.28 581.44L517.30 582.54L523.10 576.75L530.49 578.21L532.13 557.33L532.79 549.84L534.60 542.56L539.48 523.92L540.16 504.77L538.77 503.93L534.27 504.61L525.53 505.94L519.51 506.85L511.82 508.04L503.66 513.08L502.24 514.50L500.80 515.92L489.05 527.89L488.01 529.18L480.75 538.07L473.73 546.66L459.05 555.01L449.76 556.90L440.47 555.20L436.25 554.98L432.04 554.77L409.77 555.16L398.45 555.38L385.42 558.26L385.49 561.69L384.16 564.67L379.93 571.98L375.88 578.85L375.00 580.35L373.70 587.70L373.18 590.67L372.23 596.17L370.02 603.68L368.53 608.86L366.76 615.03L364.65 623.68L362.51 629.65L361.22 633.28L357.70 643.14L366.17 644.18L367.31 643.29L372.28 639.40L377.44 634.04L379.84 632.28L387.50 626.64L388.77 625.55L391.01 622.08L396.37 617.39L399.43 614.68L400.49 613.74L401.88 612.51L402.97 611.54L413.48 603.77L416.67 599.41L455.54 614.52L457.79 611.94L463.26 613.01L468.45 614.03L504.03 618.72L507.14 619.53L512.70 599.74L504.58 597.82L505.24 593.77L506.56 585.59L507.80 583.26L509.28 581.44Z" data-ward="14" /><path id="ward-24" class="ward" d="M182.42 450.93L179.02 446.15L175.51 443.60L172.28 439.52L170.39 437.48L166.60 434.60L152.09 424.31L149.60 421.42L154.56 421.43L162.74 424.00L167.25 425.04L183.96 427.80L163.46 414.28L159.74 411.84L140.48 407.40L120.02 402.70L97.72 410.72L76.59 418.51L71.71 420.31L30.37 398.08L19.67 392.53L15.51 391.08L13.21 390.27L9.36 390.39L6.94 390.46L5.10 390.51L3.51 391.02L2.59 392.63L1.07 396.53L0.77 400.13L0.54 402.85L0.26 406.13L1.22 410.45L4.93 427.23L4.90 431.13L2.04 442.44L0.00 448.58L1.74 449.56L4.74 451.34L6.63 455.21L8.11 457.90L10.44 460.57L13.98 460.69L19.39 460.87L24.69 461.99L26.04 462.64L31.73 465.09L36.29 468.28L40.24 471.34L41.74 472.53L43.39 473.83L46.53 476.48L50.61 479.93L54.58 482.24L56.85 483.57L58.34 485.12L59.74 486.58L60.68 488.36L61.81 490.50L62.58 491.97L63.85 493.89L66.17 493.72L68.50 493.54L72.48 494.81L74.46 495.44L77.17 496.30L78.39 497.14L80.47 498.69L82.17 501.45L82.98 503.25L80.78 503.94L78.88 505.94L76.85 507.53L75.74 508.41L78.95 509.32L80.88 512.64L83.99 515.11L91.37 513.96L99.39 512.89L105.30 518.96L123.62 519.73L191.84 556.67L198.47 562.26L204.01 547.89L192.40 536.85L186.60 531.34L188.02 530.27L202.89 519.16L196.46 515.14L194.23 513.74L197.27 509.34L195.98 507.12L197.44 505.13L198.39 503.83L202.68 497.99L205.39 483.19L214.57 472.88L201.96 460.27L185.79 455.53L183.30 452.20L182.42 450.93Z" data-ward="24" /><path id="ward-3" class="ward" d="M510.12 410.60L515.45 401.56L518.07 395.04L519.02 392.67L519.20 386.11L518.82 383.14L519.40 380.33L519.72 378.36L520.21 375.29L520.75 371.94L521.43 367.72L521.25 363.10L521.11 359.53L517.23 364.66L514.51 369.25L508.61 379.04L507.28 381.98L503.80 389.67L502.40 392.77L499.82 398.44L498.43 400.77L496.11 404.68L492.47 410.69L487.83 415.60L485.00 418.56L483.20 419.15L481.80 419.61L478.14 420.82L476.37 421.09L471.96 421.77L469.86 422.14L467.31 422.65L465.00 423.40L463.18 424.02L461.36 424.63L448.43 437.59L461.66 445.04L496.95 453.06L492.09 462.62L489.15 475.49L500.98 481.70L500.18 486.05L499.91 487.53L496.25 494.22L491.18 503.47L486.12 512.71L485.24 514.31L478.26 512.00L474.92 510.89L473.26 510.32L471.74 509.82L470.62 511.34L469.01 513.77L464.42 519.35L461.81 518.04L457.52 518.32L451.17 533.29L445.03 537.75L443.24 540.98L440.47 555.20L449.76 556.90L459.05 555.01L473.73 546.66L480.75 538.07L488.01 529.18L489.05 527.89L500.80 515.92L502.24 514.50L503.66 513.08L511.82 508.04L519.51 506.85L525.53 505.94L534.27 504.61L538.77 503.93L557.41 442.96L564.41 431.62L556.28 429.35L548.60 427.43L538.32 424.85L532.95 429.54L527.58 434.22L525.31 434.25L518.69 434.35L520.25 440.18L521.06 443.18L518.31 442.55L511.39 440.95L502.71 440.19L500.28 439.42L500.58 436.24L500.86 433.20L503.59 421.69L508.07 414.09L510.12 410.60Z" data-ward="3" /><path id="ward-18" class="ward" d="M377.44 634.04L372.28 639.40L367.31 643.29L366.17 644.18L357.70 643.14L342.43 668.25L341.07 670.80L339.16 674.99L344.64 671.93L404.90 715.46L406.52 716.64L405.28 710.43L403.63 702.22L401.96 693.94L401.63 692.25L398.96 678.96L400.18 673.57L402.18 669.12L404.79 665.91L406.76 664.26L408.66 662.78L409.81 661.87L412.93 659.43L414.89 658.56L416.86 658.73L419.37 659.05L421.06 659.28L425.35 662.57L426.63 663.55L428.79 665.20L431.29 667.11L434.02 669.20L436.39 671.02L438.21 672.41L444.06 676.89L455.08 681.82L456.45 682.32L458.23 682.81L476.66 687.86L483.84 689.83L489.50 692.10L491.55 692.27L494.31 693.53L501.40 696.44L473.46 669.87L458.48 654.86L455.65 651.62L444.96 639.41L447.84 632.64L454.96 615.89L455.54 614.52L416.67 599.41L413.48 603.77L402.97 611.54L401.88 612.51L400.49 613.74L399.43 614.68L396.37 617.39L391.01 622.08L388.77 625.55L387.50 626.64L379.84 632.28L377.44 634.04Z" data-ward="18" /><path id="ward-12" class="ward" d="M540.16 504.77L539.48 523.92L534.60 542.56L532.79 549.84L532.13 557.33L530.49 578.21L523.10 576.75L517.30 582.54L509.28 581.44L507.80 583.26L506.56 585.59L505.24 593.77L504.58 597.82L512.70 599.74L507.14 619.53L510.38 620.58L521.90 623.87L539.56 623.30L547.74 621.93L550.54 621.46L551.06 619.71L552.12 616.23L554.08 614.57L555.98 613.90L563.35 611.32L564.93 611.32L566.45 609.67L571.03 604.68L577.03 598.44L583.37 581.01L582.09 573.09L580.57 565.04L580.15 562.83L577.35 560.75L569.96 555.26L568.83 534.57L567.35 504.92L546.67 504.20L540.16 504.77Z" data-ward="12" /><path id="ward-6" class="ward" d="M770.59 261.65L768.61 264.66L767.48 274.58L769.56 290.23L771.02 301.20L761.69 313.36L789.89 326.56L803.82 332.75L810.03 337.65L815.92 343.09L815.97 344.69L816.59 368.39L811.24 385.83L808.55 394.59L806.16 401.70L802.82 421.06L804.70 446.00L810.46 449.52L840.26 467.72L860.60 476.59L883.99 455.25L892.58 441.46L894.56 439.35L906.75 426.43L927.33 408.85L949.15 362.90L939.15 351.45L932.43 338.71L930.67 335.15L926.05 331.53L920.33 327.04L920.10 325.67L914.12 318.10L916.68 308.37L924.78 295.21L916.88 275.36L912.54 273.93L911.62 271.99L910.47 268.20L910.55 264.52L910.61 261.71L911.15 259.90L911.69 258.10L894.68 247.09L872.81 232.95L870.45 232.09L868.03 231.22L866.12 233.85L863.96 236.83L858.93 235.22L860.66 225.64L861.23 224.06L864.04 216.40L864.38 210.06L865.49 208.19L862.49 207.98L862.18 204.11L860.58 202.94L854.05 200.46L847.56 198.00L843.67 197.35L842.04 197.08L839.92 197.00L833.11 196.75L826.44 194.70L823.47 194.23L825.12 188.29L816.89 184.28L818.79 177.25L815.59 172.79L813.47 169.83L805.84 180.21L798.66 171.75L796.98 169.76L793.45 165.61L793.10 157.11L784.73 159.27L780.24 163.13L778.07 165.13L774.52 168.41L772.91 170.19L769.13 174.37L768.06 176.80L767.13 178.92L766.17 182.81L762.38 186.06L760.70 187.49L745.97 189.90L738.95 191.05L737.19 191.57L734.28 192.43L737.78 194.84L761.94 218.54L779.58 235.85L776.66 241.77L775.50 244.12L774.91 246.86L773.90 248.05L773.44 249.35L773.28 250.81L773.57 252.57L773.94 254.41L774.12 256.59L773.62 258.77L772.70 260.18L771.17 261.24L770.59 261.65Z" data-ward="6" /><path id="ward-13" class="ward" d="M531.54 719.32L533.36 721.50L537.76 726.79L543.51 733.69L548.91 740.17L550.00 741.48L551.79 743.62L556.06 747.63L558.66 750.07L560.13 749.81L561.60 749.53L562.96 747.80L564.87 745.37L566.40 743.41L571.40 737.05L578.12 725.83L580.74 721.46L581.28 719.63L584.88 711.25L586.54 704.76L588.64 700.37L589.10 698.92L591.03 692.83L591.51 691.31L592.47 688.31L593.88 683.85L595.33 678.57L596.16 675.52L596.74 673.44L598.04 664.93L598.01 661.33L597.96 656.50L595.26 647.18L592.47 641.07L590.26 636.20L589.09 634.71L584.31 631.23L579.44 631.21L573.06 633.15L563.01 635.99L561.68 636.45L558.72 636.23L555.89 636.03L554.23 633.92L551.11 628.12L550.29 625.85L550.54 621.46L547.74 621.93L539.56 623.30L521.90 623.87L510.38 620.58L507.14 619.53L504.03 618.72L468.45 614.03L463.26 613.01L457.79 611.94L455.54 614.52L454.96 615.89L447.84 632.64L444.96 639.41L455.65 651.62L458.48 654.86L473.46 669.87L501.40 696.44L512.45 701.86L519.07 705.24L521.20 707.32L525.65 712.03L529.71 716.34L531.54 719.32Z" data-ward="13" /><path id="ward-20" class="ward" d="M221.14 683.77L198.47 668.45L197.03 669.20L195.18 670.15L192.22 673.09L190.10 675.20L185.90 679.56L181.35 684.31L180.14 685.56L176.24 685.86L172.93 690.81L173.45 692.29L174.78 693.31L183.03 696.26L189.20 699.03L190.18 700.51L191.87 703.18L195.55 708.99L197.85 712.78L199.31 715.17L209.17 732.68L245.07 756.83L250.98 765.27L252.96 768.22L262.43 782.41L270.51 797.83L274.29 800.58L292.81 814.04L294.44 815.23L306.24 820.37L312.11 817.94L314.05 817.43L316.87 816.69L323.10 819.53L327.14 825.56L339.44 843.93L342.53 845.90L345.52 846.73L349.64 847.14L351.67 846.67L354.96 845.10L357.68 842.79L359.19 841.03L360.06 838.98L360.87 835.85L361.69 832.71L361.26 827.72L357.63 820.52L354.86 815.03L351.03 809.36L346.67 802.92L345.12 800.63L343.22 797.81L344.84 791.69L347.13 786.27L349.36 780.97L350.77 777.63L356.13 771.77L361.66 768.36L367.35 765.85L339.59 737.42L331.54 730.12L334.97 713.39L320.50 710.54L318.01 710.06L290.55 695.97L252.08 694.20L243.44 707.19L221.14 683.77Z" data-ward="20" /><path id="ward-23" class="ward" d="M87.96 526.12L88.23 533.65L90.23 534.21L92.27 534.78L94.19 535.61L96.69 536.69L98.08 537.66L99.47 538.63L100.72 539.49L102.09 540.45L104.46 542.09L101.65 545.98L101.86 548.62L102.02 550.68L103.28 552.59L104.40 555.29L105.67 558.35L105.63 560.30L105.54 564.17L105.76 566.19L106.15 569.76L109.23 570.23L111.84 570.53L113.84 571.80L114.83 573.40L115.90 575.12L119.88 576.35L121.42 576.83L125.02 578.92L124.09 581.49L124.03 583.04L125.33 584.80L127.70 588.09L129.52 590.62L130.20 592.07L131.39 594.64L135.06 594.34L138.92 598.15L139.86 599.51L142.98 602.04L144.27 603.30L145.31 604.33L145.61 605.97L146.23 609.40L147.72 610.67L149.33 612.03L150.68 613.19L152.08 614.37L154.97 616.83L159.60 620.77L162.95 623.61L165.49 624.37L167.94 625.10L171.36 626.09L173.68 626.75L175.02 627.14L176.89 627.68L178.64 628.19L180.78 629.12L182.28 629.77L184.60 630.78L186.15 631.46L189.92 631.27L191.27 631.60L193.05 632.02L194.75 632.42L196.08 632.74L197.48 633.08L199.64 633.59L206.03 617.88L230.10 592.21L214.82 589.41L199.84 583.83L203.00 575.89L199.11 571.75L198.47 562.26L191.84 556.67L123.62 519.73L105.30 518.96L99.39 512.89L91.37 513.96L83.99 515.11L86.29 519.25L87.98 522.31L88.97 524.09L87.96 526.12Z" data-ward="23" /><path id="ward-30" class="ward" d="M234.08 296.53L234.00 298.84L233.80 304.87L228.08 317.75L227.35 319.40L226.26 321.40L244.18 332.55L242.69 336.77L241.93 338.92L239.07 340.94L238.22 345.83L237.92 347.55L236.88 349.68L281.63 362.48L290.50 364.96L292.93 369.47L294.61 374.74L297.61 377.04L303.29 378.60L313.59 382.07L313.52 376.45L313.41 368.18L313.38 366.41L313.48 362.45L313.47 360.11L313.46 357.76L312.04 346.17L310.57 333.55L310.21 331.92L307.60 320.44L305.98 312.90L305.09 308.25L307.00 298.22L306.35 287.91L302.07 282.37L302.25 272.47L303.33 264.51L304.17 258.37L305.43 252.32L307.21 243.82L310.06 239.02L311.50 236.58L303.89 228.58L295.90 223.35L290.30 219.14L285.30 215.37L281.57 209.40L280.83 199.00L279.55 191.38L277.97 190.15L271.95 191.96L269.73 191.15L265.33 184.67L258.26 188.05L254.90 184.56L246.42 185.56L240.27 185.12L232.62 185.20L224.25 187.09L219.28 191.67L214.85 206.82L218.96 217.06L219.81 218.51L230.75 237.13L232.46 239.96L233.38 241.60L232.82 255.94L231.82 277.77L234.08 296.53Z" data-ward="30" /><path id="ward-15" class="ward" d="M368.02 496.48L365.90 499.32L363.80 503.05L362.48 504.18L361.14 505.33L358.31 506.97L352.88 510.33L353.66 511.96L358.21 517.16L360.26 520.71L364.84 528.66L367.20 532.89L367.41 538.50L367.57 542.79L364.10 550.65L373.89 554.11L385.42 558.26L398.45 555.38L409.77 555.16L432.04 554.77L436.25 554.98L440.47 555.20L443.24 540.98L445.03 537.75L451.17 533.29L457.52 518.32L449.66 515.68L439.84 512.38L438.84 514.56L437.21 518.11L433.43 517.12L418.34 513.20L409.80 531.25L404.08 528.45L397.24 525.10L399.33 518.04L399.85 516.28L400.58 510.66L401.76 501.46L402.13 498.61L403.13 496.43L406.25 489.62L409.74 483.61L403.44 480.17L400.96 478.82L398.29 482.11L397.30 483.33L389.66 479.29L386.20 483.26L382.53 486.09L380.31 488.76L378.78 490.97L377.54 492.77L370.82 488.60L367.15 494.68L368.02 496.48Z" data-ward="15" /><path id="ward-21" class="ward" d="M252.96 768.22L250.98 765.27L245.07 756.83L209.17 732.68L199.31 715.17L197.85 712.78L195.55 708.99L191.87 703.18L190.18 700.51L189.20 699.03L183.03 696.26L174.78 693.31L173.45 692.29L163.65 703.81L167.55 709.80L169.69 713.09L170.19 716.17L171.16 718.81L172.96 721.23L175.83 725.10L171.97 727.10L169.66 728.29L170.05 730.44L174.54 736.46L171.00 740.85L172.14 743.15L171.12 746.16L167.90 751.44L166.30 752.89L161.20 754.84L157.19 761.87L159.04 763.11L161.41 763.67L164.21 765.51L165.28 766.72L175.33 768.18L177.22 769.69L181.77 771.64L189.08 774.77L193.94 776.84L196.80 778.27L196.52 782.15L196.41 783.63L196.29 785.33L196.18 786.81L196.07 788.37L195.96 789.92L195.85 791.45L195.74 792.95L194.29 793.08L192.68 793.23L189.87 793.48L187.58 793.69L185.81 795.94L182.96 799.56L180.91 802.17L178.09 805.76L179.51 806.31L186.18 808.88L187.45 809.37L189.02 809.98L195.56 812.51L198.81 813.76L202.40 813.21L204.63 812.45L206.60 811.78L210.39 812.39L213.44 812.87L215.03 813.13L215.79 816.47L216.50 818.60L218.12 819.56L218.80 822.00L221.14 823.76L219.93 826.20L220.23 827.76L229.92 833.90L234.46 836.79L233.52 839.99L232.56 843.22L235.93 845.37L238.84 846.29L242.90 847.59L245.96 848.56L248.65 849.42L251.56 850.35L254.34 850.94L256.56 851.41L260.39 852.73L259.59 854.40L258.82 856.04L258.06 857.65L256.94 860.00L255.27 861.32L253.95 862.36L251.92 863.96L254.01 864.86L256.43 865.90L258.01 866.57L267.63 870.70L268.98 867.70L274.60 868.58L277.76 869.08L278.62 867.89L279.46 866.71L280.46 865.32L281.42 863.97L282.46 862.52L289.52 855.96L290.77 856.98L302.70 866.61L304.13 867.77L305.32 868.73L308.44 871.25L310.36 871.19L312.15 870.85L314.58 870.39L314.96 865.51L311.40 863.37L318.90 854.80L317.23 853.03L313.90 849.49L312.09 847.57L311.00 846.42L307.02 842.19L306.34 840.47L305.06 837.25L302.68 831.21L302.71 828.20L303.56 825.72L304.40 823.25L306.24 820.37L294.44 815.23L292.81 814.04L274.29 800.58L270.51 797.83L262.43 782.41L252.96 768.22Z" data-ward="21" /></svg>