<svg viewBox="0 0 1000.00 1773.54" xmlns="http://www.w3.org/2000/svg"><style>.ward { fill: #e2e8f0; stroke: #fff; stroke-width: 0.5px; } .ward:hover { fill: #cbd5e1; }</style><path id="ward-1" class="ward" d="M327.36 45.68L322.09 39.47L321.81 30.10L319.60 27.52L314.31 25.00L298.57 17.53L285.97 14.25L280.81 12.92L273.92 11.13L270.11 10.14L263.60 3.07L258.84 1.75L252.53 0.00L251.73 4.20L250.22 12.20L255.82 15.24L259.87 15.59L263.37 25.28L264.68 28.91L264.82 37.46L265.15 56.03L265.32 65.33L265.62 81.64L265.75 88.94L265.96 100.90L266.23 115.55L259.58 116.64L253.75 117.59L249.67 117.87L240.14 118.52L230.74 117.99L219.22 114.50L209.17 111.45L207.28 114.37L203.95 119.49L207.02 125.27L208.32 129.69L210.64 136.72L210.94 146.60L216.67 160.02L218.00 163.12L219.06 167.96L221.74 173.47L227.11 190.90L211.84 192.88L211.80 196.37L209.69 203.85L205.94 205.72L202.45 205.60L200.44 208.67L198.79 215.17L197.59 219.90L197.16 223.39L195.83 230.19L192.13 236.40L200.71 244.43L205.08 249.27L208.50 253.05L228.39 252.02L237.90 259.08L244.14 261.82L245.65 266.44L247.75 274.58L247.50 289.08L247.96 306.71L249.83 312.56L255.17 317.23L259.05 320.91L274.18 328.37L277.67 331.81L281.71 335.81L282.28 341.73L284.88 349.60L288.36 357.32L302.66 359.50L312.04 361.62L322.01 367.15L328.34 368.25L335.47 370.83L339.91 376.77L343.77 383.48L354.05 388.91L361.02 389.85L363.90 383.05L365.38 379.99L366.85 376.92L369.79 370.98L371.89 363.19L372.64 359.72L374.02 353.36L373.00 346.07L371.97 338.26L371.43 334.14L367.67 321.92L366.61 312.55L365.86 305.56L366.54 301.48L367.75 294.34L368.20 290.03L369.92 284.39L375.16 289.83L377.65 292.34L386.05 300.78L390.17 301.24L398.59 302.20L403.52 301.79L407.42 301.03L413.48 300.38L422.41 301.59L429.09 301.39L434.58 299.47L438.18 297.79L437.59 290.94L434.83 286.73L427.89 283.16L420.03 281.25L418.74 277.07L420.18 273.19L419.13 268.58L417.64 265.24L412.87 261.90L409.91 256.33L409.48 250.59L411.21 244.32L418.20 244.95L421.52 245.79L424.84 246.63L435.36 250.39L443.11 242.82L443.67 238.41L444.18 234.10L446.35 229.53L449.97 224.95L451.74 219.01L451.82 212.42L452.28 208.74L458.01 207.85L461.88 207.26L467.81 205.11L470.21 199.85L473.76 199.11L478.55 198.16L484.96 197.93L494.98 197.59L501.56 196.61L503.21 192.81L508.24 186.47L512.04 181.36L506.64 177.35L501.81 173.76L499.87 167.95L496.77 158.64L494.67 151.45L490.86 147.49L485.07 141.47L487.85 136.97L477.46 126.60L463.38 125.45L458.25 125.03L454.77 119.57L455.25 114.41L452.42 107.97L454.24 101.01L455.77 96.78L457.73 91.40L461.05 89.92L460.52 84.49L455.51 81.17L455.81 75.80L446.05 75.14L441.42 75.93L436.32 72.82L432.05 70.22L423.07 64.74L418.41 64.95L415.15 63.00L411.61 58.67L405.56 56.11L401.64 52.28L397.20 52.56L387.22 47.37L374.96 35.85L372.07 33.15L366.98 35.20L361.89 37.26L352.86 47.13L349.72 50.55L337.47 51.57L327.36 45.68Z" data-ward="1" /><path id="ward-15" class="ward" d="M380.95 795.61L331.33 749.58L316.30 742.10L309.30 738.52L301.46 731.98L298.05 729.13L293.98 725.73L284.30 719.66L274.34 717.56L270.47 716.99L243.43 715.32L223.06 714.55L212.91 713.61L173.25 707.89L168.88 707.37L142.21 707.77L117.17 708.14L110.96 709.58L111.17 717.02L111.41 725.46L108.04 728.42L100.38 735.15L93.59 741.87L85.71 747.32L83.15 751.88L77.74 761.53L79.96 777.29L87.64 789.44L92.00 791.95L99.65 801.59L107.33 802.09L114.91 802.60L125.36 802.07L157.34 806.75L160.28 811.27L155.90 816.38L157.46 819.81L162.53 830.97L171.38 841.66L176.80 845.97L173.36 861.73L172.64 868.05L171.91 873.87L168.78 889.61L165.63 905.13L167.45 909.35L165.17 930.06L164.64 934.85L163.55 948.04L171.43 958.34L185.83 971.11L200.66 984.27L201.44 998.95L202.75 1023.56L197.34 1037.56L191.59 1052.42L199.93 1062.80L211.25 1076.88L217.75 1074.94L221.71 1073.76L230.69 1074.74L234.00 1075.27L239.27 1074.62L245.93 1071.31L253.28 1067.41L259.95 1064.13L266.41 1060.96L274.91 1057.06L273.34 1051.10L262.00 1006.72L264.41 991.14L283.42 938.52L396.01 920.33L389.75 899.05L388.46 888.01L403.75 841.47L398.61 832.05L384.67 827.59L388.46 802.89L380.95 795.61Z" data-ward="15" /><path id="ward-13" class="ward" d="M580.69 965.82L575.88 964.58L557.50 959.87L550.79 944.72L548.83 940.30L548.00 931.92L549.24 926.87L546.15 920.88L542.48 913.29L540.58 909.37L535.19 906.42L535.38 901.22L535.24 896.20L531.62 891.12L530.33 885.45L529.08 879.90L528.34 876.62L527.30 872.37L526.19 869.02L519.99 867.28L508.84 872.55L495.07 888.60L489.77 901.37L477.79 930.29L460.24 953.15L436.24 963.93L412.24 1010.02L397.91 1014.26L390.40 1007.27L369.86 1000.85L338.10 1003.30L319.00 1024.70L312.97 1033.63L309.53 1037.59L307.29 1040.37L310.55 1045.35L311.19 1049.61L311.63 1053.29L312.08 1056.82L312.63 1061.65L313.32 1070.40L313.42 1073.88L313.57 1077.36L314.50 1085.44L313.62 1088.82L310.77 1092.53L309.59 1097.05L311.91 1103.05L312.92 1109.13L314.65 1122.80L315.31 1126.83L315.96 1130.80L317.54 1133.74L319.12 1136.69L324.71 1143.62L326.66 1147.48L330.79 1155.65L330.24 1161.31L342.73 1161.36L347.63 1148.82L352.73 1136.38L354.71 1129.78L354.88 1117.77L354.93 1114.29L354.97 1109.02L355.01 1104.26L353.27 1095.67L356.06 1091.60L359.36 1089.40L367.62 1091.44L384.08 1095.54L385.39 1098.73L394.06 1119.74L400.84 1134.43L402.73 1137.27L413.00 1152.70L414.54 1157.33L412.40 1167.08L409.68 1179.48L411.38 1191.61L413.08 1200.50L418.80 1230.42L427.35 1239.36L432.32 1244.25L440.22 1252.02L448.18 1254.19L453.24 1250.40L460.61 1244.89L464.49 1227.51L490.29 1218.84L493.76 1217.61L500.59 1214.44L506.66 1211.63L513.34 1208.54L522.18 1204.44L528.34 1201.58L533.62 1199.14L538.79 1196.74L543.32 1194.65L549.52 1190.77L554.64 1183.91L556.39 1180.70L562.70 1174.67L563.85 1168.90L565.01 1163.84L564.27 1160.43L563.74 1155.79L564.50 1152.12L565.27 1148.45L571.18 1150.05L574.31 1148.69L575.78 1144.54L578.08 1141.85L579.53 1134.71L580.32 1130.84L577.70 1122.87L597.23 1091.04L577.85 1087.86L567.97 1086.24L562.64 1085.37L553.21 1091.34L549.69 1093.57L542.53 1086.64L539.13 1083.34L534.08 1078.45L530.15 1074.66L534.23 1063.71L532.47 1055.36L529.65 1045.03L517.35 1042.05L517.51 1021.60L511.86 1019.60L509.51 1012.13L514.78 982.38L558.41 985.76L576.33 987.15L585.94 987.89L593.38 990.13L598.19 991.45L619.06 997.08L620.01 992.78L621.81 984.67L618.23 973.29L609.46 974.01L605.21 967.40L591.02 968.15L580.69 965.82Z" data-ward="13" /><path id="ward-4" class="ward" d="M538.51 458.65L536.88 454.80L537.42 449.27L537.82 444.41L536.89 440.46L533.48 435.58L529.55 433.37L528.48 429.23L528.10 423.91L528.11 414.60L529.46 408.66L527.07 403.58L523.42 399.73L521.11 397.10L517.89 394.18L513.82 398.76L510.85 405.58L507.14 411.45L505.39 414.42L503.34 418.70L503.70 424.31L504.65 430.42L505.91 434.81L504.72 443.01L503.45 448.24L499.19 457.36L498.34 462.58L497.03 473.97L496.43 479.16L495.79 484.72L495.09 490.71L494.77 494.45L492.42 498.58L488.76 495.23L485.70 493.04L482.51 490.63L478.27 488.57L472.84 487.13L464.67 485.30L458.86 484.03L457.52 490.44L456.96 493.74L453.29 496.58L449.11 497.65L445.46 497.71L440.99 498.70L437.52 500.71L435.06 502.94L432.67 505.99L428.87 509.93L426.36 514.00L424.52 517.70L423.10 521.43L421.45 527.56L420.68 531.77L419.87 537.36L419.94 540.95L420.53 545.94L422.62 553.62L423.90 559.86L425.07 565.55L424.26 569.39L423.05 575.11L422.22 579.00L421.01 583.64L419.41 589.04L418.19 593.18L416.44 599.11L412.14 603.12L402.57 609.96L399.23 612.82L394.10 617.20L384.45 626.66L377.39 637.32L375.48 642.79L372.80 645.87L370.62 650.61L375.54 660.18L378.92 661.35L384.80 670.71L388.69 676.64L394.05 682.04L397.59 688.89L396.80 703.11L398.31 711.74L409.70 710.24L422.00 712.48L429.70 712.93L435.10 713.25L439.74 717.02L443.41 718.52L454.73 720.73L459.53 722.96L471.74 723.79L479.81 726.49L481.22 721.40L482.66 715.30L481.49 708.54L482.30 704.60L483.28 699.36L485.00 690.11L485.95 684.96L489.76 685.49L495.17 686.31L502.87 687.00L505.95 681.57L511.26 678.85L519.69 678.61L523.67 678.93L527.19 679.19L530.81 679.40L534.68 683.92L538.81 684.57L542.52 684.20L546.11 682.83L546.69 677.08L544.96 674.12L543.24 671.15L539.07 663.68L533.86 658.10L530.37 654.31L526.90 649.22L524.76 642.73L525.67 636.77L527.97 632.71L529.44 628.36L531.00 624.45L533.08 619.46L534.24 616.17L539.36 604.74L541.37 600.34L544.73 593.40L545.01 589.19L547.54 580.61L550.06 576.99L553.75 571.64L553.94 564.21L551.39 561.52L548.69 559.56L548.46 555.61L558.08 553.59L562.09 551.74L568.46 549.92L574.04 547.39L579.38 545.62L585.57 542.75L588.72 540.96L592.50 539.34L597.97 540.67L602.79 544.30L607.40 548.15L610.50 550.67L614.76 553.95L619.00 558.14L622.24 561.06L626.35 565.12L631.09 567.44L633.13 561.80L634.27 558.64L636.75 551.99L638.95 546.11L640.39 540.93L641.72 536.13L643.15 530.98L645.02 524.26L647.45 518.88L649.09 515.24L650.54 512.04L650.10 506.81L648.77 503.52L646.44 497.75L643.99 490.56L642.43 484.51L641.52 478.27L641.03 472.44L638.19 469.01L634.98 467.48L630.20 467.58L625.38 468.09L621.64 468.75L618.33 468.66L611.71 467.88L607.08 467.23L603.72 466.25L598.59 465.27L594.54 466.13L590.59 466.35L586.47 465.59L583.25 464.76L578.71 463.56L575.11 462.19L570.86 460.57L564.84 458.17L560.13 458.16L556.05 458.69L550.85 459.90L547.08 460.84L542.26 460.90L538.51 458.65Z" data-ward="4" /><path id="ward-16" class="ward" d="M410.56 463.47L407.57 461.30L403.99 458.58L400.98 456.16L397.48 451.75L395.36 448.26L393.31 442.74L393.23 438.70L392.05 432.73L388.34 427.67L384.34 418.75L379.89 414.16L375.23 405.57L373.37 401.54L371.50 397.51L366.59 393.43L361.02 389.85L354.05 388.91L343.77 383.48L339.91 376.77L335.47 370.83L328.34 368.25L322.01 367.15L312.04 361.62L302.66 359.50L288.36 357.32L284.88 349.60L282.28 341.73L281.71 335.81L277.67 331.81L265.63 348.01L259.91 355.51L255.93 360.14L244.60 373.31L231.50 407.35L224.88 416.06L214.89 429.20L208.08 438.16L184.55 440.99L173.46 442.32L148.33 455.00L144.08 457.26L111.90 488.99L113.51 494.14L119.30 501.03L126.79 509.96L161.97 519.60L174.53 552.85L207.51 580.37L223.12 588.94L226.97 591.05L230.10 592.77L248.38 614.11L248.05 648.34L247.74 651.73L244.80 684.29L276.84 704.96L284.30 719.66L293.98 725.73L298.05 729.13L301.46 731.98L309.30 738.52L316.30 742.10L331.33 749.58L342.47 720.82L344.38 715.78L345.82 711.42L347.31 706.83L354.98 683.21L360.39 682.55L373.16 685.26L377.02 682.41L388.69 676.64L384.80 670.71L378.92 661.35L375.54 660.18L370.62 650.61L372.80 645.87L375.48 642.79L377.39 637.32L384.45 626.66L394.10 617.20L399.23 612.82L402.57 609.96L412.14 603.12L416.44 599.11L418.19 593.18L419.41 589.04L421.01 583.64L422.22 579.00L423.05 575.11L424.26 569.39L425.07 565.55L423.90 559.86L422.62 553.62L420.53 545.94L419.94 540.95L419.87 537.36L420.68 531.77L421.45 527.56L423.10 521.43L424.52 517.70L426.36 514.00L428.87 509.93L432.67 505.99L435.06 502.94L437.52 500.71L440.99 498.70L445.46 497.71L449.11 497.65L453.29 496.58L456.96 493.74L457.52 490.44L458.86 484.03L451.92 479.59L447.44 474.56L443.81 470.83L439.49 466.32L436.35 465.25L427.60 465.96L417.85 466.93L410.56 463.47Z" data-ward="16" /><path id="ward-9" class="ward" d="M699.95 1366.91L680.68 1365.71L658.62 1363.16L638.81 1361.67L633.41 1364.77L629.70 1375.71L617.34 1378.77L613.18 1380.92L597.65 1388.93L586.00 1389.92L581.30 1389.76L576.06 1388.87L572.76 1387.89L569.32 1387.41L563.48 1386.58L554.48 1390.62L549.05 1393.21L545.57 1393.19L541.88 1392.95L537.10 1392.63L529.83 1395.00L526.34 1396.77L522.75 1398.61L519.55 1400.26L512.97 1404.10L508.62 1406.89L502.82 1410.04L498.20 1412.46L492.43 1414.89L487.93 1416.73L483.59 1419.72L478.48 1423.25L475.48 1427.47L473.10 1431.64L472.48 1435.27L469.07 1440.27L468.04 1445.83L463.39 1447.10L456.73 1448.28L450.69 1449.85L444.72 1451.35L440.97 1452.31L436.86 1453.37L433.59 1454.21L430.69 1456.22L425.58 1460.68L420.68 1463.79L416.81 1466.22L413.54 1468.28L409.22 1470.82L405.29 1473.12L403.65 1477.43L410.46 1490.49L412.67 1499.29L413.04 1512.86L410.85 1515.49L400.51 1519.76L398.06 1522.29L403.86 1528.27L406.08 1524.55L409.60 1521.59L418.47 1521.53L421.93 1520.33L430.68 1515.65L435.17 1513.49L442.69 1512.41L447.50 1511.98L450.97 1512.63L454.43 1511.79L461.11 1513.09L468.20 1513.61L471.87 1518.74L475.80 1524.03L484.10 1535.56L484.82 1540.58L488.74 1546.54L495.30 1559.69L500.76 1570.69L506.76 1571.74L511.72 1575.36L515.61 1580.59L513.40 1589.52L514.45 1595.45L508.99 1596.32L515.19 1603.63L521.38 1610.64L526.66 1616.81L529.49 1618.80L534.26 1617.16L538.81 1620.24L539.53 1623.80L540.92 1629.55L542.02 1634.24L543.31 1639.47L543.94 1643.53L542.71 1649.19L543.58 1652.56L543.52 1658.88L544.90 1662.48L546.28 1665.95L548.97 1670.26L553.74 1674.17L556.17 1676.53L556.52 1681.35L556.93 1685.67L557.53 1689.34L559.37 1693.96L560.44 1697.76L562.24 1702.28L564.64 1707.79L568.24 1717.19L569.39 1721.04L566.80 1726.04L563.89 1730.65L566.15 1733.58L570.19 1733.89L571.22 1729.88L572.98 1725.38L577.32 1723.10L580.69 1725.99L583.64 1724.12L584.72 1720.44L585.32 1715.38L585.28 1710.24L585.79 1704.43L588.80 1700.87L594.77 1698.76L600.21 1699.50L604.44 1702.26L608.15 1701.33L607.78 1697.40L608.55 1693.74L610.58 1689.12L613.54 1682.39L614.25 1679.03L616.54 1675.54L622.00 1672.80L625.69 1670.17L630.23 1667.01L630.89 1663.46L630.95 1658.99L632.95 1654.64L635.90 1652.64L638.72 1650.15L642.16 1644.87L644.56 1641.27L648.92 1637.20L650.41 1631.59L649.51 1626.66L649.81 1622.71L652.28 1618.80L657.71 1615.08L663.25 1614.53L667.35 1614.91L674.37 1615.29L677.75 1616.68L682.43 1620.36L685.29 1623.89L687.69 1626.41L692.55 1626.76L695.06 1622.01L694.40 1617.61L691.62 1615.02L691.14 1610.27L694.46 1605.04L695.82 1600.97L695.80 1597.38L693.71 1592.16L692.04 1588.78L690.33 1584.49L688.53 1578.01L689.11 1572.12L690.75 1568.31L693.69 1566.00L696.64 1562.98L700.19 1558.68L700.74 1555.03L697.65 1551.59L697.09 1546.69L695.35 1541.49L695.64 1536.14L694.95 1531.93L693.57 1527.29L695.53 1520.93L696.34 1514.24L697.55 1507.12L699.04 1502.37L700.02 1498.09L700.84 1494.77L698.86 1489.51L699.29 1483.77L700.89 1480.80L703.77 1474.94L703.25 1471.02L703.99 1465.66L705.66 1460.64L704.99 1456.80L702.88 1453.10L700.05 1448.05L699.25 1443.88L698.88 1440.19L698.76 1436.79L702.04 1432.46L705.61 1429.87L710.44 1425.30L710.90 1421.42L709.57 1418.29L709.66 1414.43L707.40 1409.70L704.37 1407.62L703.30 1404.37L703.19 1398.20L704.61 1393.76L708.41 1390.08L711.69 1387.53L714.44 1385.56L717.40 1383.78L720.73 1381.43L721.43 1377.62L720.22 1372.98L717.75 1368.69L712.83 1363.27L707.96 1365.67L704.83 1367.22L699.95 1366.91Z" data-ward="9" /><path id="ward-10" class="ward" d="M277.18 1434.58L273.92 1430.11L264.39 1427.69L253.47 1424.91L231.97 1416.22L224.26 1431.67L221.11 1438.38L225.36 1443.85L226.64 1452.00L229.83 1457.48L233.37 1463.75L235.19 1468.13L227.86 1475.12L234.12 1484.52L237.49 1490.84L230.71 1499.45L225.49 1505.52L215.74 1507.12L200.75 1509.59L193.83 1510.68L188.75 1511.62L183.24 1512.82L171.03 1514.03L165.25 1513.97L154.90 1513.56L137.81 1515.54L132.11 1515.28L123.59 1512.30L114.48 1509.49L110.11 1505.20L103.30 1500.08L109.81 1511.99L108.51 1515.52L112.19 1519.99L112.29 1526.02L109.27 1531.29L105.50 1537.87L98.13 1554.50L91.76 1562.79L87.90 1567.79L81.44 1568.85L70.26 1570.67L64.34 1571.98L49.13 1575.34L41.85 1577.48L33.58 1580.24L34.19 1599.46L38.02 1603.01L42.09 1606.79L46.49 1611.93L50.27 1616.35L54.03 1619.87L56.80 1622.47L59.64 1625.14L65.98 1625.46L71.65 1625.75L82.61 1625.48L88.98 1628.41L96.14 1636.02L101.35 1644.19L105.32 1650.40L107.86 1659.93L109.93 1667.71L110.74 1672.15L112.29 1682.26L113.56 1690.62L114.14 1694.76L116.37 1702.57L118.27 1709.22L119.78 1714.62L124.21 1715.35L129.48 1716.23L128.92 1726.26L124.51 1734.59L117.58 1747.73L121.16 1751.85L129.78 1757.80L137.09 1760.46L146.23 1762.26L158.34 1761.41L177.81 1762.80L181.68 1762.57L196.84 1762.01L211.56 1763.53L212.40 1769.97L218.40 1773.54L223.87 1769.97L230.71 1768.34L227.52 1761.56L224.64 1748.90L237.94 1744.78L240.94 1746.74L244.38 1751.10L258.38 1747.13L278.06 1742.94L290.77 1730.14L292.14 1722.93L296.07 1721.75L298.89 1719.13L303.10 1722.99L311.40 1726.75L317.74 1729.98L320.21 1734.10L323.62 1735.02L327.56 1738.21L330.76 1740.82L334.84 1744.19L337.24 1747.77L340.83 1751.48L343.54 1755.48L346.92 1754.26L352.95 1753.25L352.68 1747.76L352.18 1736.42L350.73 1731.91L351.43 1725.81L350.07 1714.36L348.60 1709.27L344.85 1696.84L344.29 1693.15L343.19 1684.84L342.23 1672.52L342.31 1663.23L343.82 1657.60L343.80 1653.17L345.41 1642.69L347.88 1628.45L348.82 1622.99L350.71 1612.35L351.42 1598.96L357.50 1578.17L362.97 1571.54L368.43 1566.69L375.69 1560.21L383.19 1554.50L391.51 1547.62L396.60 1542.43L400.40 1537.28L401.54 1533.19L403.86 1528.27L398.06 1522.29L400.51 1519.76L410.85 1515.49L413.04 1512.86L412.67 1499.29L410.46 1490.49L403.65 1477.43L405.29 1473.12L394.38 1472.30L390.86 1471.06L385.20 1469.05L378.08 1465.61L372.16 1462.75L368.33 1457.34L364.56 1453.71L360.79 1450.08L351.09 1444.76L345.00 1441.43L338.22 1437.74L334.40 1437.28L315.43 1434.14L309.37 1434.34L292.90 1434.86L284.84 1435.87L280.66 1439.97L277.18 1434.58Z" data-ward="10" /><path id="ward-6" class="ward" d="M670.71 857.86L668.01 852.79L665.83 845.64L666.27 840.51L664.58 833.84L660.84 835.13L654.64 835.87L644.94 837.31L634.98 838.38L629.56 839.89L624.66 843.15L618.82 847.72L611.73 853.13L605.05 856.31L598.84 858.24L594.94 858.80L591.27 860.33L587.82 860.06L583.27 859.30L577.05 854.44L571.74 849.82L566.17 846.84L559.30 842.54L551.74 842.73L547.88 842.97L542.05 844.17L538.68 846.66L534.87 850.91L531.14 856.24L527.86 859.26L525.03 861.80L526.19 869.02L527.30 872.37L528.34 876.62L529.08 879.90L530.33 885.45L531.62 891.12L535.24 896.20L535.38 901.22L535.19 906.42L540.58 909.37L542.48 913.29L546.15 920.88L549.24 926.87L548.00 931.92L548.83 940.30L550.79 944.72L557.50 959.87L575.88 964.58L580.69 965.82L591.02 968.15L605.21 967.40L609.46 974.01L618.23 973.29L621.81 984.67L620.01 992.78L619.06 997.08L598.19 991.45L593.38 990.13L585.94 987.89L576.33 987.15L558.41 985.76L514.78 982.38L509.51 1012.13L511.86 1019.60L517.51 1021.60L517.35 1042.05L529.65 1045.03L532.47 1055.36L534.23 1063.71L530.15 1074.66L534.08 1078.45L539.13 1083.34L542.53 1086.64L549.69 1093.57L553.21 1091.34L562.64 1085.37L567.97 1086.24L577.85 1087.86L597.23 1091.04L610.78 1093.39L622.52 1094.92L644.03 1098.09L646.89 1087.54L648.09 1083.10L652.64 1080.47L659.58 1076.48L672.58 1068.94L685.54 1064.75L691.75 1062.87L701.31 1061.11L707.30 1062.45L710.98 1062.45L714.62 1062.45L716.76 1057.28L721.45 1041.63L721.33 1035.85L719.60 1027.51L718.67 1023.01L717.66 1019.62L716.65 1016.22L714.30 1009.86L713.16 1004.27L710.35 990.54L703.82 973.73L699.16 952.51L695.31 934.97L685.75 920.30L679.96 913.20L677.36 903.08L676.35 899.12L676.62 881.46L676.91 877.51L676.04 871.57L674.37 865.62L670.71 857.86Z" data-ward="6" /><path id="ward-5" class="ward" d="M647.74 676.85L647.57 673.20L647.18 664.12L647.12 659.61L645.55 650.79L645.37 647.00L640.55 636.02L638.36 631.04L635.86 621.12L633.76 613.23L633.34 606.35L631.26 587.40L631.09 567.44L626.35 565.12L622.24 561.06L619.00 558.14L614.76 553.95L610.50 550.67L607.40 548.15L602.79 544.30L597.97 540.67L592.50 539.34L588.72 540.96L585.57 542.75L579.38 545.62L574.04 547.39L568.46 549.92L562.09 551.74L558.08 553.59L548.46 555.61L548.69 559.56L551.39 561.52L553.94 564.21L553.75 571.64L550.06 576.99L547.54 580.61L545.01 589.19L544.73 593.40L541.37 600.34L539.36 604.74L534.24 616.17L533.08 619.46L531.00 624.45L529.44 628.36L527.97 632.71L525.67 636.77L524.76 642.73L526.90 649.22L530.37 654.31L533.86 658.10L539.07 663.68L543.24 671.15L544.96 674.12L546.69 677.08L546.11 682.83L542.52 684.20L538.81 684.57L534.68 683.92L530.81 679.40L527.19 679.19L523.67 678.93L519.69 678.61L511.26 678.85L505.95 681.57L502.87 687.00L495.17 686.31L489.76 685.49L485.95 684.96L485.00 690.11L483.28 699.36L482.30 704.60L481.49 708.54L482.66 715.30L481.22 721.40L479.81 726.49L487.43 727.17L497.29 728.08L508.63 729.53L516.80 730.50L524.25 734.88L530.09 742.64L530.44 747.80L530.48 760.67L529.63 769.25L528.90 777.44L527.54 785.09L524.91 789.12L529.05 796.74L532.95 795.55L539.75 796.04L542.76 799.68L548.33 808.84L554.60 820.46L563.81 832.40L561.12 836.71L559.30 842.54L566.17 846.84L571.74 849.82L577.05 854.44L583.27 859.30L587.82 860.06L591.27 860.33L594.94 858.80L598.84 858.24L605.05 856.31L611.73 853.13L618.82 847.72L624.66 843.15L629.56 839.89L634.98 838.38L644.94 837.31L654.64 835.87L660.84 835.13L664.58 833.84L666.27 840.51L665.83 845.64L668.01 852.79L670.71 857.86L674.37 865.62L676.04 871.57L676.91 877.51L676.62 881.46L676.35 899.12L677.36 903.08L679.96 913.20L685.75 920.30L695.31 934.97L699.16 952.51L703.82 973.73L710.35 990.54L714.95 988.66L719.41 985.43L725.07 982.14L733.00 978.38L730.90 973.84L728.68 969.04L727.04 965.51L725.46 962.10L723.91 958.76L720.78 952.02L718.32 946.71L715.41 940.44L723.48 912.59L721.91 895.49L711.03 882.38L702.78 872.44L699.90 864.63L696.21 854.60L694.11 848.89L692.27 845.73L690.98 839.32L686.67 825.20L691.40 822.35L690.85 818.76L690.32 815.30L689.29 812.08L692.64 806.09L701.23 805.08L699.01 797.47L697.84 791.17L697.21 787.79L696.42 783.52L689.81 780.77L686.66 773.81L680.89 761.08L675.04 748.16L669.33 736.90L665.44 729.65L663.19 723.60L658.09 711.02L656.36 706.75L653.67 695.45L652.36 689.97L647.74 676.85Z" data-ward="5" /><path id="ward-3" class="ward" d="M632.32 182.67L628.30 181.91L623.75 185.04L619.33 184.97L607.05 185.17L601.38 186.76L598.62 189.07L597.15 192.15L596.67 196.37L596.14 200.56L591.61 203.06L586.92 204.40L581.20 204.66L575.48 204.93L564.49 202.86L564.74 199.43L560.67 197.70L556.91 196.10L552.78 194.71L549.21 194.56L544.72 197.90L539.62 199.34L530.23 197.87L524.89 195.65L525.03 201.12L525.74 207.88L525.47 213.19L525.34 216.94L525.49 221.24L527.52 229.95L528.00 233.67L528.41 237.24L528.65 241.88L528.90 247.13L528.98 252.25L528.93 255.90L528.88 259.56L528.73 271.19L529.75 280.24L531.42 284.37L533.42 294.45L525.75 293.65L519.35 292.45L514.12 291.02L509.54 292.89L509.19 297.61L509.30 301.04L509.75 306.44L511.43 325.29L511.86 330.31L512.76 339.57L513.38 346.16L514.62 350.77L518.32 357.71L520.66 355.07L523.21 345.83L522.78 338.01L524.49 333.26L528.09 330.33L531.83 327.27L535.47 324.34L539.32 321.19L542.99 321.17L547.12 321.43L550.51 321.86L555.42 325.73L558.44 328.15L561.71 330.75L566.92 334.77L569.03 337.48L569.47 340.95L570.07 345.91L571.44 361.10L563.62 362.76L555.15 364.55L546.49 366.40L539.88 366.54L536.32 365.51L531.94 364.30L524.38 362.51L520.05 362.72L518.37 366.05L519.78 372.54L520.69 376.68L521.76 381.46L522.37 387.75L520.66 392.05L517.89 394.18L521.11 397.10L523.42 399.73L527.07 403.58L529.46 408.66L528.11 414.60L528.10 423.91L528.48 429.23L529.55 433.37L533.48 435.58L536.89 440.46L537.82 444.41L537.42 449.27L536.88 454.80L538.51 458.65L542.26 460.90L547.08 460.84L550.85 459.90L556.05 458.69L560.13 458.16L564.84 458.17L570.86 460.57L575.11 462.19L578.71 463.56L583.25 464.76L586.47 465.59L590.59 466.35L594.54 466.13L598.59 465.27L603.72 466.25L607.08 467.23L611.71 467.88L618.33 468.66L621.64 468.75L625.38 468.09L630.20 467.58L634.98 467.48L638.19 469.01L641.03 472.44L641.52 478.27L642.43 484.51L643.99 490.56L646.44 497.75L648.77 503.52L650.10 506.81L650.54 512.04L661.69 500.14L674.33 486.04L676.55 479.61L684.85 472.98L691.72 466.64L695.79 464.02L698.70 461.51L703.16 457.68L706.55 452.54L707.41 447.39L710.81 442.89L713.39 434.17L714.76 424.58L715.71 413.32L716.73 401.16L722.87 378.92L724.86 371.75L727.53 362.07L729.75 356.72L732.48 350.17L735.84 342.10L737.77 337.47L740.53 330.83L742.37 326.00L745.33 318.22L749.44 307.42L751.29 297.44L756.69 285.62L759.37 277.66L761.57 271.12L765.30 262.35L767.79 256.48L770.90 250.08L774.03 243.65L769.51 242.14L765.55 240.80L763.39 244.44L761.23 248.08L755.13 246.61L747.95 244.95L742.19 242.95L736.67 239.36L732.63 238.97L721.86 241.43L717.18 243.66L711.77 246.25L708.03 247.17L703.52 244.49L700.48 241.27L696.37 237.28L690.25 232.86L685.86 230.91L682.68 229.32L677.50 229.12L675.76 226.03L672.83 221.77L670.61 215.95L668.85 211.35L665.49 208.46L659.53 205.98L655.01 201.09L650.75 196.53L648.39 194.01L644.42 191.01L640.27 188.15L632.32 182.67Z" data-ward="3" /><path id="ward-8" class="ward" d="M583.18 1147.21L581.84 1141.17L579.53 1134.71L578.08 1141.85L575.78 1144.54L574.31 1148.69L571.18 1150.05L565.27 1148.45L564.50 1152.12L563.74 1155.79L564.27 1160.43L565.01 1163.84L563.85 1168.90L562.70 1174.67L556.39 1180.70L554.64 1183.91L549.52 1190.77L543.32 1194.65L538.79 1196.74L533.62 1199.14L528.34 1201.58L522.18 1204.44L513.34 1208.54L506.66 1211.63L500.59 1214.44L493.76 1217.61L490.29 1218.84L464.49 1227.51L460.61 1244.89L453.24 1250.40L448.18 1254.19L440.22 1252.02L432.32 1244.25L427.35 1239.36L418.80 1230.42L422.67 1248.30L425.05 1261.02L425.29 1265.96L428.15 1272.10L432.07 1280.50L434.45 1286.17L437.31 1292.84L442.54 1299.20L458.10 1298.92L466.09 1305.98L469.27 1314.09L472.56 1315.90L469.53 1323.33L476.12 1330.25L479.92 1333.39L483.73 1336.52L486.01 1339.12L486.37 1346.69L485.71 1352.69L477.66 1354.52L467.95 1362.48L462.89 1367.44L456.33 1368.50L444.32 1370.76L441.40 1369.01L439.02 1366.22L432.54 1358.62L427.23 1349.45L417.65 1342.06L413.86 1341.98L408.14 1341.85L398.73 1342.69L390.30 1337.40L381.00 1332.23L371.22 1331.49L368.31 1328.85L361.62 1322.28L358.23 1322.49L352.37 1322.98L344.83 1323.64L340.34 1324.52L334.66 1325.63L331.22 1324.70L326.95 1323.11L323.61 1319.83L318.85 1319.33L318.92 1323.32L319.02 1328.55L319.15 1335.96L319.79 1339.29L320.42 1342.62L322.33 1351.67L326.03 1363.87L326.90 1371.04L330.96 1374.28L336.14 1377.01L340.00 1380.37L340.22 1388.14L341.70 1394.10L343.27 1400.57L346.73 1411.75L351.09 1421.51L346.69 1427.05L343.27 1431.38L338.22 1437.74L345.00 1441.43L351.09 1444.76L360.79 1450.08L364.56 1453.71L368.33 1457.34L372.16 1462.75L378.08 1465.61L385.20 1469.05L390.86 1471.06L394.38 1472.30L405.29 1473.12L409.22 1470.82L413.54 1468.28L416.81 1466.22L420.68 1463.79L425.58 1460.68L430.69 1456.22L433.59 1454.21L436.86 1453.37L440.97 1452.31L444.72 1451.35L450.69 1449.85L456.73 1448.28L463.39 1447.10L468.04 1445.83L469.07 1440.27L472.48 1435.27L473.10 1431.64L475.48 1427.47L478.48 1423.25L483.59 1419.72L487.93 1416.73L492.43 1414.89L498.20 1412.46L502.82 1410.04L508.62 1406.89L512.97 1404.10L519.55 1400.26L522.75 1398.61L526.34 1396.77L529.83 1395.00L537.10 1392.63L541.88 1392.95L545.57 1393.19L549.05 1393.21L554.48 1390.62L563.48 1386.58L569.32 1387.41L572.76 1387.89L576.06 1388.87L581.30 1389.76L583.23 1386.16L593.04 1364.76L582.57 1358.92L578.91 1357.73L581.17 1346.67L573.76 1337.90L574.69 1326.88L575.47 1317.29L573.92 1302.66L587.54 1292.00L592.57 1283.24L593.52 1274.58L594.02 1270.79L597.06 1266.32L600.60 1262.74L606.07 1259.20L613.77 1254.23L619.87 1250.29L623.44 1233.51L643.61 1227.89L648.12 1225.63L654.72 1217.47L654.54 1207.77L652.13 1203.67L649.53 1199.20L653.25 1190.21L655.56 1184.60L652.87 1180.49L651.27 1162.94L636.07 1161.17L624.32 1159.81L616.10 1152.38L606.36 1163.45L603.20 1170.78L601.26 1175.84L592.42 1170.03L588.28 1168.96L584.90 1168.14L578.89 1168.10L582.10 1155.69L582.74 1150.68L583.18 1147.21Z" data-ward="8" /><path id="ward-7" class="ward" d="M748.35 977.11L747.88 976.95L747.58 976.84L746.37 976.73L745.26 976.82L743.87 977.01L741.61 977.55L741.61 977.55L739.92 977.94L737.81 978.38L735.73 978.58L733.00 978.38L725.07 982.14L719.41 985.43L714.95 988.66L710.35 990.54L713.16 1004.27L714.30 1009.86L716.65 1016.22L717.66 1019.62L718.67 1023.01L719.60 1027.51L721.33 1035.85L721.45 1041.63L716.76 1057.28L714.62 1062.45L710.98 1062.45L707.30 1062.45L701.31 1061.11L691.75 1062.87L685.54 1064.75L672.58 1068.94L659.58 1076.48L652.64 1080.47L648.09 1083.10L646.89 1087.54L644.03 1098.09L622.52 1094.92L610.78 1093.39L597.23 1091.04L577.70 1122.87L580.32 1130.84L579.53 1134.71L581.84 1141.17L583.18 1147.21L582.74 1150.68L582.10 1155.69L578.89 1168.10L584.90 1168.14L588.28 1168.96L592.42 1170.03L601.26 1175.84L603.20 1170.78L606.36 1163.45L616.10 1152.38L624.32 1159.81L636.07 1161.17L651.27 1162.94L652.87 1180.49L655.56 1184.60L653.25 1190.21L649.53 1199.20L652.13 1203.67L654.54 1207.77L654.72 1217.47L648.12 1225.63L643.61 1227.89L623.44 1233.51L619.87 1250.29L613.77 1254.23L606.07 1259.20L600.60 1262.74L597.06 1266.32L594.02 1270.79L593.52 1274.58L592.57 1283.24L587.54 1292.00L573.92 1302.66L575.47 1317.29L574.69 1326.88L573.76 1337.90L581.17 1346.67L578.91 1357.73L582.57 1358.92L593.04 1364.76L583.23 1386.16L581.30 1389.76L586.00 1389.92L597.65 1388.93L613.18 1380.92L617.34 1378.77L629.70 1375.71L633.41 1364.77L638.81 1361.67L658.62 1363.16L680.68 1365.71L699.95 1366.91L704.83 1367.22L707.96 1365.67L712.83 1363.27L718.45 1355.29L726.65 1348.21L749.78 1346.76L771.11 1355.73L800.84 1354.49L823.86 1358.78L850.21 1354.09L860.53 1348.72L871.28 1344.84L891.62 1335.28L886.40 1331.15L892.17 1327.65L896.85 1324.26L903.51 1313.66L908.47 1302.55L911.82 1298.87L918.59 1295.74L945.95 1294.64L960.71 1294.97L980.42 1290.20L986.45 1288.02L996.09 1282.53L1000.00 1278.62L995.44 1271.49L993.71 1268.24L991.02 1263.11L988.92 1257.01L988.32 1251.63L987.64 1245.43L987.14 1240.92L986.71 1235.39L986.82 1231.08L986.36 1222.24L986.06 1216.61L983.57 1213.62L980.57 1205.10L978.79 1198.68L974.33 1193.10L970.44 1188.72L955.02 1175.88L950.68 1172.27L945.85 1167.82L941.36 1163.69L930.71 1151.84L925.70 1146.28L921.67 1138.57L918.15 1132.79L914.92 1127.47L909.20 1124.26L903.47 1121.04L894.87 1118.06L891.52 1116.89L888.16 1115.72L879.55 1112.63L874.21 1111.24L869.25 1109.79L861.80 1107.62L853.67 1105.21L847.58 1102.76L843.21 1100.43L837.30 1097.29L833.97 1095.52L830.31 1092.71L827.47 1090.52L823.92 1089.04L820.26 1087.47L815.86 1086.80L809.19 1085.77L791.63 1078.27L786.41 1076.04L782.57 1074.41L779.38 1068.13L771.21 1052.06L765.49 1039.49L762.33 1031.09L751.92 996.56L751.13 991.64L748.35 977.11Z" data-ward="7" /><path id="ward-2" class="ward" d="M528.90 247.13L528.65 241.88L528.41 237.24L528.00 233.67L527.52 229.95L525.49 221.24L525.34 216.94L525.47 213.19L525.74 207.88L525.03 201.12L524.89 195.65L521.31 194.17L518.47 190.96L516.50 186.07L512.04 181.36L508.24 186.47L503.21 192.81L501.56 196.61L494.98 197.59L484.96 197.93L478.55 198.16L473.76 199.11L470.21 199.85L467.81 205.11L461.88 207.26L458.01 207.85L452.28 208.74L451.82 212.42L451.74 219.01L449.97 224.95L446.35 229.53L444.18 234.10L443.67 238.41L443.11 242.82L435.36 250.39L424.84 246.63L421.52 245.79L418.20 244.95L411.21 244.32L409.48 250.59L409.91 256.33L412.87 261.90L417.64 265.24L419.13 268.58L420.18 273.19L418.74 277.07L420.03 281.25L427.89 283.16L434.83 286.73L437.59 290.94L438.18 297.79L434.58 299.47L429.09 301.39L422.41 301.59L413.48 300.38L407.42 301.03L403.52 301.79L398.59 302.20L390.17 301.24L386.05 300.78L377.65 292.34L375.16 289.83L369.92 284.39L368.20 290.03L367.75 294.34L366.54 301.48L365.86 305.56L366.61 312.55L367.67 321.92L371.43 334.14L371.97 338.26L373.00 346.07L374.02 353.36L372.64 359.72L371.89 363.19L369.79 370.98L366.85 376.92L365.38 379.99L363.90 383.05L361.02 389.85L366.59 393.43L371.50 397.51L373.37 401.54L375.23 405.57L379.89 414.16L384.34 418.75L388.34 427.67L392.05 432.73L393.23 438.70L393.31 442.74L395.36 448.26L397.48 451.75L400.98 456.16L403.99 458.58L407.57 461.30L410.56 463.47L417.85 466.93L427.60 465.96L436.35 465.25L439.49 466.32L443.81 470.83L447.44 474.56L451.92 479.59L458.86 484.03L464.67 485.30L472.84 487.13L478.27 488.57L482.51 490.63L485.70 493.04L488.76 495.23L492.42 498.58L494.77 494.45L495.09 490.71L495.79 484.72L496.43 479.16L497.03 473.97L498.34 462.58L499.19 457.36L503.45 448.24L504.72 443.01L505.91 434.81L504.65 430.42L503.70 424.31L503.34 418.70L505.39 414.42L507.14 411.45L510.85 405.58L513.82 398.76L517.89 394.18L520.66 392.05L522.37 387.75L521.76 381.46L520.69 376.68L519.78 372.54L518.37 366.05L520.05 362.72L524.38 362.51L531.94 364.30L536.32 365.51L539.88 366.54L546.49 366.40L555.15 364.55L563.62 362.76L571.44 361.10L570.07 345.91L569.47 340.95L569.03 337.48L566.92 334.77L561.71 330.75L558.44 328.15L555.42 325.73L550.51 321.86L547.12 321.43L542.99 321.17L539.32 321.19L535.47 324.34L531.83 327.27L528.09 330.33L524.49 333.26L522.78 338.01L523.21 345.83L520.66 355.07L518.32 357.71L514.62 350.77L513.38 346.16L512.76 339.57L511.86 330.31L511.43 325.29L509.75 306.44L509.30 301.04L509.19 297.61L509.54 292.89L514.12 291.02L519.35 292.45L525.75 293.65L533.42 294.45L531.42 284.37L529.75 280.24L528.73 271.19L528.88 259.56L528.93 255.90L528.98 252.25L528.90 247.13Z" data-ward="2" /><path id="ward-11" class="ward" d="M437.31 1292.84L434.45 1286.17L432.07 1280.50L428.15 1272.10L425.29 1265.96L425.05 1261.02L422.67 1248.30L418.80 1230.42L397.29 1230.42L377.82 1235.13L373.49 1235.82L362.67 1237.54L353.73 1238.30L338.02 1241.02L322.04 1243.76L313.49 1245.06L302.21 1246.77L280.00 1254.36L275.45 1255.78L260.37 1260.11L247.17 1265.84L236.14 1268.22L227.07 1271.20L217.06 1274.49L214.15 1277.32L210.75 1280.61L199.58 1288.23L194.44 1291.26L186.29 1296.08L163.71 1305.94L151.19 1303.83L154.23 1312.17L149.92 1325.12L146.33 1333.44L139.69 1340.26L137.33 1346.09L134.17 1354.64L130.84 1363.64L123.31 1365.83L117.73 1374.30L108.71 1388.00L96.85 1397.84L86.67 1402.57L83.71 1411.86L81.34 1418.74L80.13 1422.28L78.85 1426.26L75.88 1435.48L74.47 1439.14L71.29 1455.66L79.03 1465.82L95.36 1480.38L97.18 1485.28L99.55 1491.69L101.33 1496.50L103.30 1500.08L110.11 1505.20L114.48 1509.49L123.59 1512.30L132.11 1515.28L137.81 1515.54L154.90 1513.56L165.25 1513.97L171.03 1514.03L183.24 1512.82L188.75 1511.62L193.83 1510.68L200.75 1509.59L215.74 1507.12L225.49 1505.52L230.71 1499.45L237.49 1490.84L234.12 1484.52L227.86 1475.12L235.19 1468.13L233.37 1463.75L229.83 1457.48L226.64 1452.00L225.36 1443.85L221.11 1438.38L224.26 1431.67L231.97 1416.22L253.47 1424.91L264.39 1427.69L273.92 1430.11L277.18 1434.58L280.66 1439.97L284.84 1435.87L292.90 1434.86L309.37 1434.34L315.43 1434.14L334.40 1437.28L338.22 1437.74L343.27 1431.38L346.69 1427.05L351.09 1421.51L346.73 1411.75L343.27 1400.57L341.70 1394.10L340.22 1388.14L340.00 1380.37L336.14 1377.01L330.96 1374.28L326.90 1371.04L326.03 1363.87L322.33 1351.67L320.42 1342.62L319.79 1339.29L319.15 1335.96L319.02 1328.55L318.92 1323.32L318.85 1319.33L323.61 1319.83L326.95 1323.11L331.22 1324.70L334.66 1325.63L340.34 1324.52L344.83 1323.64L352.37 1322.98L358.23 1322.49L361.62 1322.28L368.31 1328.85L371.22 1331.49L381.00 1332.23L390.30 1337.40L398.73 1342.69L408.14 1341.85L413.86 1341.98L417.65 1342.06L427.23 1349.45L432.54 1358.62L439.02 1366.22L441.40 1369.01L444.32 1370.76L456.33 1368.50L462.89 1367.44L467.95 1362.48L477.66 1354.52L485.71 1352.69L486.37 1346.69L486.01 1339.12L483.73 1336.52L479.92 1333.39L476.12 1330.25L469.53 1323.33L472.56 1315.90L469.27 1314.09L466.09 1305.98L458.10 1298.92L442.54 1299.20L437.31 1292.84Z" data-ward="11" /><path id="ward-17" class="ward" d="M205.08 249.27L200.71 244.43L192.13 236.40L187.98 243.65L186.16 246.84L182.00 248.52L173.53 251.96L161.05 255.64L157.13 261.50L154.65 272.16L153.27 276.60L153.77 280.24L155.00 289.34L154.86 295.66L154.77 299.69L154.30 308.62L140.91 308.52L138.58 322.50L136.05 337.69L130.20 350.97L127.98 354.62L123.87 358.45L114.70 365.51L109.88 369.22L104.24 369.36L86.39 362.37L72.84 358.18L47.48 350.13L43.66 348.91L39.74 347.67L33.43 355.19L28.08 354.84L26.17 362.57L23.95 370.12L19.64 378.17L17.36 382.41L16.91 386.93L16.30 393.19L15.15 404.80L13.86 417.84L5.33 418.43L3.94 425.24L0.00 431.12L1.86 440.09L3.11 446.11L4.54 453.01L5.23 461.34L5.58 462.21L5.94 467.64L7.43 470.67L11.46 478.84L13.15 482.30L14.74 487.69L16.10 491.40L12.36 498.62L6.35 499.79L9.46 508.31L20.21 512.96L27.97 516.33L31.28 516.83L45.77 519.04L48.01 523.61L52.73 529.30L54.51 535.11L56.17 540.51L52.09 541.92L43.05 545.04L34.50 550.16L29.90 552.91L28.63 558.15L25.64 563.68L23.92 566.86L26.47 570.55L34.60 573.63L38.81 575.23L42.95 576.61L48.89 578.58L54.76 580.45L62.05 582.78L68.37 583.12L74.64 583.47L78.69 582.65L82.15 581.95L85.73 585.82L95.14 594.73L97.29 604.74L98.90 612.23L101.14 616.88L104.37 623.58L108.64 626.56L120.14 627.79L121.08 633.05L117.22 634.73L112.86 645.18L111.44 648.19L109.44 652.43L105.73 660.10L104.44 663.58L103.28 666.78L99.91 677.20L99.25 681.30L98.46 686.24L97.92 689.61L106.91 697.26L110.96 709.58L117.17 708.14L142.21 707.77L168.88 707.37L173.25 707.89L212.91 713.61L223.06 714.55L243.43 715.32L270.47 716.99L274.34 717.56L284.30 719.66L276.84 704.96L244.80 684.29L247.74 651.73L248.05 648.34L248.38 614.11L230.10 592.77L226.97 591.05L223.12 588.94L207.51 580.37L174.53 552.85L161.97 519.60L126.79 509.96L119.30 501.03L113.51 494.14L111.90 488.99L144.08 457.26L148.33 455.00L173.46 442.32L184.55 440.99L208.08 438.16L214.89 429.20L224.88 416.06L231.50 407.35L244.60 373.31L255.93 360.14L259.91 355.51L265.63 348.01L277.67 331.81L274.18 328.37L259.05 320.91L255.17 317.23L249.83 312.56L247.96 306.71L247.50 289.08L247.75 274.58L245.65 266.44L244.14 261.82L237.90 259.08L228.39 252.02L208.50 253.05L205.08 249.27Z" data-ward="17" /><path id="ward-12" class="ward" d="M313.42 1073.88L313.32 1070.40L312.63 1061.65L312.08 1056.82L311.63 1053.29L311.19 1049.61L310.55 1045.35L307.29 1040.37L300.95 1045.47L297.78 1046.79L294.46 1048.17L281.75 1054.07L274.91 1057.06L266.41 1060.96L259.95 1064.13L253.28 1067.41L245.93 1071.31L239.27 1074.62L234.00 1075.27L230.69 1074.74L221.71 1073.76L217.75 1074.94L211.25 1076.88L207.45 1084.06L202.64 1087.76L199.90 1090.44L195.54 1091.19L191.02 1091.96L171.99 1095.20L163.23 1097.78L156.93 1099.63L153.12 1100.75L149.03 1101.95L151.04 1110.16L150.84 1118.03L149.13 1123.46L146.85 1130.71L142.87 1139.77L140.56 1145.29L138.92 1149.20L134.54 1160.05L134.17 1166.94L130.55 1172.01L125.84 1174.55L118.23 1175.99L114.80 1175.87L110.75 1175.72L107.45 1178.73L103.55 1182.29L98.26 1187.14L93.18 1191.78L90.71 1194.03L85.40 1198.89L82.76 1201.30L83.89 1207.82L85.42 1212.08L88.52 1220.71L92.37 1229.14L93.99 1234.99L95.81 1241.56L97.22 1249.04L98.64 1256.52L104.45 1263.30L107.41 1266.76L111.06 1271.02L116.13 1276.95L124.79 1284.67L127.94 1287.48L132.13 1291.22L134.92 1293.67L139.27 1297.48L147.09 1301.65L151.19 1303.83L163.71 1305.94L186.29 1296.08L194.44 1291.26L199.58 1288.23L210.75 1280.61L214.15 1277.32L217.06 1274.49L227.07 1271.20L236.14 1268.22L247.17 1265.84L260.37 1260.11L275.45 1255.78L280.00 1254.36L302.21 1246.77L313.49 1245.06L322.04 1243.76L338.02 1241.02L353.73 1238.30L362.67 1237.54L373.49 1235.82L377.82 1235.13L397.29 1230.42L418.80 1230.42L413.08 1200.50L411.38 1191.61L409.68 1179.48L412.40 1167.08L414.54 1157.33L413.00 1152.70L402.73 1137.27L400.84 1134.43L394.06 1119.74L385.39 1098.73L384.08 1095.54L367.62 1091.44L359.36 1089.40L356.06 1091.60L353.27 1095.67L355.01 1104.26L354.97 1109.02L354.93 1114.29L354.88 1117.77L354.71 1129.78L352.73 1136.38L347.63 1148.82L342.73 1161.36L330.24 1161.31L330.79 1155.65L326.66 1147.48L324.71 1143.62L319.12 1136.69L317.54 1133.74L315.96 1130.80L315.31 1126.83L314.65 1122.80L312.92 1109.13L311.91 1103.05L309.59 1097.05L310.77 1092.53L313.62 1088.82L314.50 1085.44L313.57 1077.36L313.42 1073.88Z" data-ward="12" /><path id="ward-14" class="ward" d="M394.05 682.04L388.69 676.64L377.02 682.41L373.16 685.26L360.39 682.55L354.98 683.21L347.31 706.83L345.82 711.42L344.38 715.78L342.47 720.82L331.33 749.58L380.95 795.61L388.46 802.89L384.67 827.59L398.61 832.05L403.75 841.47L388.46 888.01L389.75 899.05L396.01 920.33L283.42 938.52L264.41 991.14L262.00 1006.72L273.34 1051.10L274.91 1057.06L281.75 1054.07L294.46 1048.17L297.78 1046.79L300.95 1045.47L307.29 1040.37L309.53 1037.59L312.97 1033.63L319.00 1024.70L338.10 1003.30L369.86 1000.85L390.40 1007.27L397.91 1014.26L412.24 1010.02L436.24 963.93L460.24 953.15L477.79 930.29L489.77 901.37L495.07 888.60L508.84 872.55L519.99 867.28L526.19 869.02L525.03 861.80L527.86 859.26L531.14 856.24L534.87 850.91L538.68 846.66L542.05 844.17L547.88 842.97L551.74 842.73L559.30 842.54L561.12 836.71L563.81 832.40L554.60 820.46L548.33 808.84L542.76 799.68L539.75 796.04L532.95 795.55L529.05 796.74L524.91 789.12L527.54 785.09L528.90 777.44L529.63 769.25L530.48 760.67L530.44 747.80L530.09 742.64L524.25 734.88L516.80 730.50L508.63 729.53L497.29 728.08L487.43 727.17L479.81 726.49L471.74 723.79L459.53 722.96L454.73 720.73L443.41 718.52L439.74 717.02L435.10 713.25L429.70 712.93L422.00 712.48L409.70 710.24L398.31 711.74L396.80 703.11L397.59 688.89L394.05 682.04Z" data-ward="14" /></svg>