<svg viewBox="0 0 1000.00 1542.52" xmlns="http://www.w3.org/2000/svg"><style>.ward { fill: #e2e8f0; stroke: #fff; stroke-width: 0.5px; } .ward:hover { fill: #cbd5e1; }</style><path id="ward-8" class="ward" d="M665.22 843.79L662.94 842.41L660.60 841.07L658.28 839.76L655.88 838.44L653.59 837.17L650.21 835.62L647.69 835.03L644.37 835.72L641.73 837.43L636.98 840.23L632.43 841.37L628.11 842.78L625.26 844.17L622.42 844.74L619.55 843.84L614.32 840.86L611.22 839.21L607.90 837.32L605.09 836.38L602.77 837.64L600.92 839.85L599.17 842.66L597.71 845.00L586.28 848.75L569.79 849.55L565.02 849.74L561.39 849.16L558.48 847.37L553.93 846.10L548.79 845.62L544.95 846.01L542.30 846.77L539.66 847.53L534.35 849.02L528.51 850.89L526.19 852.46L523.80 855.37L526.81 860.40L533.50 879.36L535.66 887.32L535.33 890.98L533.00 893.95L526.16 897.49L520.46 901.24L514.77 904.99L511.64 911.56L511.25 917.20L511.23 920.66L511.19 929.52L510.38 932.19L505.78 936.07L499.53 936.85L493.40 937.82L487.47 941.23L479.20 944.37L473.09 943.74L470.16 943.31L466.69 941.55L463.82 940.10L460.19 936.02L458.41 933.60L454.74 928.62L451.08 923.64L448.04 922.69L445.01 921.74L441.49 921.18L438.75 920.98L433.59 921.87L429.37 924.66L425.29 928.57L422.54 932.35L421.97 937.35L421.31 950.46L420.74 968.48L422.63 987.56L426.00 1001.49L427.05 1004.23L428.10 1006.98L434.90 1020.27L436.86 1023.96L443.23 1035.97L442.60 1043.14L442.01 1049.88L441.02 1055.03L439.56 1063.39L440.31 1068.95L442.61 1083.15L443.73 1092.87L444.14 1096.36L444.57 1103.85L452.23 1104.12L454.77 1104.75L458.02 1105.96L462.16 1106.54L466.25 1104.83L470.17 1102.80L475.81 1100.48L480.09 1099.53L482.62 1098.47L484.70 1096.71L488.12 1093.82L490.83 1086.22L488.79 1080.40L481.45 1063.32L481.91 1060.35L484.20 1058.01L488.59 1055.92L493.58 1053.44L496.10 1051.87L498.61 1050.30L501.65 1048.38L505.04 1046.49L507.95 1045.10L510.80 1044.58L513.76 1044.42L519.16 1042.33L521.12 1040.22L523.65 1034.89L525.64 1032.64L527.75 1031.17L530.16 1030.11L532.69 1029.02L535.41 1029.03L544.32 1029.32L548.90 1028.54L553.47 1027.77L561.50 1026.96L564.48 1030.53L567.48 1033.25L571.90 1034.83L576.31 1036.40L583.24 1038.48L586.53 1039.38L589.82 1040.27L596.50 1039.93L596.96 1036.54L597.25 1032.70L599.25 1029.93L600.56 1016.06L599.52 1012.83L596.53 1007.85L596.44 1004.81L597.35 1000.74L600.15 998.86L603.74 998.07L607.03 997.95L611.17 996.57L613.73 991.93L613.85 987.24L614.77 983.57L616.13 981.20L619.44 979.87L624.21 980.36L628.09 981.12L632.72 982.93L636.24 984.22L638.49 985.62L640.93 986.55L645.22 988.23L648.05 990.40L648.20 994.36L648.45 999.03L650.64 1007.40L655.63 1011.07L660.26 1014.60L660.22 1017.77L661.46 1022.49L667.24 1024.37L676.73 1020.72L681.06 1016.26L683.24 1014.05L684.89 1011.98L687.45 1010.16L692.99 1006.38L695.23 1004.84L698.12 1002.78L703.99 997.74L708.61 997.22L712.98 998.60L717.13 1001.04L721.22 1003.79L726.30 1008.40L730.95 1014.62L738.03 1024.67L740.36 1027.03L742.68 1029.39L747.11 1033.48L754.13 1041.40L758.46 1047.40L763.32 1056.35L767.51 1058.39L771.70 1060.44L777.67 1061.63L777.07 1056.24L775.25 1051.10L773.18 1045.26L771.87 1039.16L777.39 1033.86L784.30 1029.02L789.42 1023.87L792.58 1020.41L796.10 1013.83L798.14 1006.43L795.57 1000.10L792.37 992.23L791.72 985.85L789.31 978.20L787.68 974.96L785.94 971.51L781.46 961.21L782.38 958.75L785.15 959.88L787.92 961.01L790.33 962.59L795.84 962.57L799.21 958.82L800.27 955.82L800.29 953.24L799.86 950.35L798.88 947.64L797.58 945.35L795.84 941.36L794.29 935.65L792.75 932.99L790.70 930.37L787.80 926.18L786.33 923.81L783.74 918.17L781.60 916.61L778.56 915.59L775.94 915.47L772.47 915.63L769.80 914.96L766.49 912.47L764.18 907.72L761.56 904.03L759.47 902.31L756.43 899.59L752.87 896.36L750.39 894.31L747.83 892.88L744.61 891.97L740.38 890.13L738.42 888.15L735.58 883.07L733.35 880.69L711.60 863.79L707.52 861.26L703.99 858.85L700.07 856.16L696.62 853.99L693.46 853.44L690.51 853.63L687.65 853.25L683.63 852.10L679.83 850.67L676.09 848.94L671.72 847.33L668.58 845.78L665.22 843.79Z" data-ward="8" /><path id="ward-16" class="ward" d="M244.00 757.95L242.39 751.06L241.80 744.72L241.04 742.25L238.63 737.68L236.53 732.13L224.72 738.68L213.86 743.03L205.97 744.60L202.06 745.46L199.10 746.13L192.67 747.80L189.97 748.59L187.20 749.39L183.98 750.16L178.48 750.80L175.77 751.17L171.40 753.29L168.17 755.83L163.01 758.41L158.21 755.98L154.65 754.18L151.12 752.49L142.39 758.19L139.57 760.11L134.94 763.30L132.41 767.72L131.33 775.19L131.21 777.89L131.26 782.44L127.22 785.51L122.21 787.75L117.27 788.79L114.46 789.65L108.52 791.47L104.22 792.79L100.48 797.02L99.58 802.63L98.23 805.48L96.02 807.10L93.91 808.65L90.68 810.82L88.43 812.32L85.61 813.95L83.12 815.48L79.50 817.70L74.44 820.94L76.24 826.26L77.12 828.84L78.60 835.04L79.10 839.52L79.52 842.72L79.95 845.92L80.40 849.20L80.60 852.55L80.71 857.29L80.96 861.23L81.30 866.45L81.56 869.53L81.94 873.35L82.83 878.45L83.10 881.39L83.63 884.04L84.44 887.32L85.57 891.23L86.49 894.61L87.58 899.24L88.77 903.65L90.73 907.90L92.62 912.88L93.92 915.95L95.79 921.05L97.53 925.08L99.28 929.44L100.19 932.01L101.23 935.41L102.56 938.71L103.62 941.07L105.17 944.97L106.83 949.07L108.27 952.60L109.97 956.11L111.61 959.79L113.01 963.55L114.33 966.49L115.61 969.46L116.74 972.09L118.66 976.87L120.79 983.07L121.96 986.18L123.02 989.57L123.95 992.51L125.89 996.16L127.82 999.35L133.23 1003.65L135.82 1005.07L146.54 1011.26L149.17 1013.67L152.87 1016.98L155.45 1018.93L158.24 1021.03L161.30 1023.71L163.86 1026.38L166.95 1028.03L169.44 1029.24L172.49 1030.92L176.17 1033.48L179.80 1035.90L184.14 1038.54L188.28 1039.68L196.61 1041.98L200.20 1042.70L205.48 1043.79L208.42 1044.13L213.39 1045.03L217.01 1046.31L219.64 1046.86L223.92 1049.51L227.03 1051.59L230.10 1055.20L232.01 1057.79L233.86 1060.16L236.48 1063.40L240.06 1063.13L244.42 1063.37L241.94 1056.58L239.47 1049.79L237.48 1042.73L236.86 1037.71L235.28 1033.51L232.24 1029.47L227.64 1024.00L223.78 1019.80L218.47 1010.08L214.20 1000.08L210.13 992.15L207.81 988.98L204.62 984.59L200.99 975.15L205.48 973.72L208.88 972.64L213.03 971.13L216.38 969.82L219.02 967.34L218.60 961.74L221.67 956.51L225.08 955.57L228.00 955.09L230.72 954.66L233.35 955.25L236.07 955.96L238.59 956.60L243.80 957.40L248.25 957.56L250.89 954.69L251.07 949.89L247.94 947.01L241.14 927.69L238.65 917.92L235.88 901.72L227.67 889.52L223.82 879.31L220.25 871.54L217.49 860.85L220.66 862.64L223.74 864.74L225.60 866.88L229.19 864.98L231.92 862.73L235.47 859.43L242.36 857.21L247.38 860.76L257.36 861.65L264.98 858.90L279.02 854.77L280.60 860.86L278.92 871.16L278.31 874.95L275.07 883.04L270.47 891.56L281.88 918.45L284.65 929.49L283.08 945.59L283.56 962.49L283.72 967.93L283.94 975.71L288.78 984.33L290.19 986.86L293.76 993.21L295.42 996.18L300.79 993.82L310.02 989.75L317.10 987.24L322.44 984.87L329.92 979.62L333.38 979.75L337.05 981.95L342.55 982.70L345.20 982.71L348.31 982.19L353.27 978.20L350.29 968.00L353.81 963.30L355.52 961.01L356.90 958.42L358.77 953.80L361.60 952.59L370.07 950.47L374.84 953.08L376.86 955.32L379.96 961.20L384.18 972.14L385.91 976.62L387.93 981.77L389.95 986.92L392.71 995.56L399.34 1004.24L404.89 1011.52L408.33 1012.51L411.75 1010.65L427.05 1004.23L426.00 1001.49L422.63 987.56L420.74 968.48L421.31 950.46L421.97 937.35L422.54 932.35L425.29 928.57L429.37 924.66L433.59 921.87L438.75 920.98L441.49 921.18L445.01 921.74L448.04 922.69L451.08 923.64L454.74 928.62L458.41 933.60L460.19 936.02L463.82 940.10L466.69 941.55L470.16 943.31L473.09 943.74L479.20 944.37L487.47 941.23L493.40 937.82L499.53 936.85L505.78 936.07L510.38 932.19L511.19 929.52L511.23 920.66L511.25 917.20L511.64 911.56L514.77 904.99L520.46 901.24L526.16 897.49L533.00 893.95L535.33 890.98L535.66 887.32L533.50 879.36L526.81 860.40L523.80 855.37L517.94 851.10L515.05 844.28L514.29 841.78L513.53 839.29L509.12 824.07L508.99 821.42L508.80 817.22L508.97 805.59L506.69 797.45L505.10 794.39L498.50 785.98L496.79 783.58L492.73 774.71L492.47 771.76L492.10 767.65L485.89 766.78L480.92 766.07L477.19 765.34L471.71 765.93L466.20 763.36L461.85 758.95L456.28 755.93L448.17 754.37L440.75 753.59L435.24 752.93L428.94 751.61L422.45 749.85L419.09 749.96L415.67 753.26L413.26 756.97L410.13 760.99L408.31 763.87L406.47 770.93L403.78 775.54L402.78 778.11L400.88 783.12L399.70 786.64L397.27 791.34L394.50 794.32L390.98 798.03L393.52 802.12L394.17 806.55L397.50 813.96L399.14 817.47L395.63 821.32L392.55 825.97L392.73 829.80L394.00 834.15L395.58 838.65L396.94 842.33L398.78 846.83L400.86 854.36L397.96 854.89L394.66 855.49L391.19 856.14L388.08 856.59L383.48 859.01L379.94 860.86L375.69 861.05L373.22 857.58L370.40 854.59L368.53 852.66L366.65 850.72L362.09 846.94L357.63 849.22L353.14 851.70L350.51 852.32L345.82 849.73L344.25 847.47L342.68 845.21L340.93 839.49L340.86 835.56L339.76 832.60L338.24 830.04L334.77 827.07L331.92 826.73L329.00 826.06L326.20 825.11L323.55 823.27L321.79 820.58L319.26 814.88L316.75 811.01L312.74 807.13L310.73 805.11L307.37 805.63L293.44 811.23L281.14 816.48L275.93 818.65L273.04 819.80L271.66 817.15L270.75 813.21L269.70 809.84L267.83 805.17L266.01 801.47L264.38 798.57L262.74 795.68L261.17 792.41L259.81 789.40L258.44 786.38L256.70 782.97L254.96 779.56L250.54 772.00L248.47 768.81L246.57 765.72L244.00 757.95Z" data-ward="16" /><path id="ward-9" class="ward" d="M661.46 1022.49L660.22 1017.77L660.26 1014.60L655.63 1011.07L650.64 1007.40L648.45 999.03L648.20 994.36L648.05 990.40L645.22 988.23L640.93 986.55L638.49 985.62L636.24 984.22L632.72 982.93L628.09 981.12L624.21 980.36L619.44 979.87L616.13 981.20L614.77 983.57L613.85 987.24L613.73 991.93L611.17 996.57L607.03 997.95L603.74 998.07L600.15 998.86L597.35 1000.74L596.44 1004.81L596.53 1007.85L599.52 1012.83L600.56 1016.06L599.25 1029.93L597.25 1032.70L596.96 1036.54L596.50 1039.93L589.82 1040.27L586.53 1039.38L583.24 1038.48L576.31 1036.40L571.90 1034.83L567.48 1033.25L564.48 1030.53L561.50 1026.96L553.47 1027.77L548.90 1028.54L544.32 1029.32L535.41 1029.03L532.69 1029.02L530.16 1030.11L527.75 1031.17L525.64 1032.64L523.65 1034.89L521.12 1040.22L519.16 1042.33L513.76 1044.42L510.80 1044.58L507.95 1045.10L505.04 1046.49L501.65 1048.38L498.61 1050.30L496.10 1051.87L493.58 1053.44L488.59 1055.92L484.20 1058.01L481.91 1060.35L481.45 1063.32L488.79 1080.40L490.83 1086.22L488.12 1093.82L484.70 1096.71L482.62 1098.47L480.09 1099.53L475.81 1100.48L470.17 1102.80L466.25 1104.83L462.16 1106.54L458.02 1105.96L454.77 1104.75L452.23 1104.12L444.57 1103.85L441.74 1106.96L440.53 1110.73L438.80 1116.16L437.25 1118.25L434.23 1122.36L429.11 1128.99L427.33 1131.06L426.18 1135.90L425.69 1139.83L425.29 1142.53L425.36 1145.21L425.97 1149.61L427.47 1153.82L428.88 1157.93L430.32 1161.48L431.15 1164.03L431.90 1168.95L431.96 1174.09L431.98 1178.73L432.27 1183.26L433.02 1185.72L433.91 1188.20L435.65 1191.90L438.35 1195.30L440.57 1197.91L443.29 1200.69L445.44 1202.35L449.39 1204.69L452.44 1206.39L455.93 1207.19L460.69 1208.09L464.17 1208.36L467.11 1208.36L470.16 1208.73L474.23 1208.91L477.41 1209.49L481.50 1210.45L485.83 1211.83L489.67 1213.29L493.96 1214.68L496.39 1215.54L502.79 1218.27L506.54 1220.27L511.36 1222.88L516.19 1225.76L518.49 1227.13L522.38 1230.07L524.88 1231.96L527.67 1234.04L529.90 1235.68L532.81 1237.89L537.80 1242.44L539.99 1244.11L541.82 1241.97L544.75 1238.64L546.80 1236.86L551.64 1234.51L554.10 1233.42L557.84 1231.45L560.02 1229.85L563.68 1227.60L566.94 1225.34L571.81 1221.04L574.46 1219.01L577.39 1216.76L580.02 1215.34L585.94 1212.71L585.99 1208.87L585.13 1206.28L584.24 1202.37L584.82 1198.14L587.68 1190.66L590.28 1187.38L592.41 1184.89L594.46 1182.18L597.21 1181.15L607.03 1181.08L612.82 1181.47L615.80 1180.07L616.54 1177.26L616.45 1174.31L616.55 1171.57L618.08 1168.97L622.80 1163.53L626.05 1161.52L629.82 1159.64L632.48 1157.42L636.65 1153.76L640.09 1150.30L641.05 1147.70L639.38 1145.74L637.53 1143.64L636.29 1141.35L638.61 1136.48L641.33 1133.76L642.42 1130.51L641.99 1127.84L638.96 1125.20L637.41 1122.00L636.89 1118.08L636.94 1114.71L636.21 1111.95L635.13 1108.71L634.67 1105.23L634.87 1101.97L636.01 1099.10L638.23 1096.61L640.33 1094.54L643.73 1092.97L649.27 1092.79L654.97 1092.49L659.07 1091.93L662.17 1090.91L664.74 1089.34L667.59 1088.41L669.86 1091.97L671.84 1094.64L674.03 1097.83L675.71 1101.67L676.95 1104.44L678.19 1107.20L677.47 1110.26L676.16 1113.17L674.99 1116.82L675.10 1119.82L675.44 1122.40L676.93 1125.79L678.33 1128.21L679.71 1130.43L682.67 1134.32L684.57 1136.80L686.42 1138.84L689.03 1141.43L692.89 1145.96L694.80 1148.00L697.08 1149.72L700.35 1151.86L705.14 1156.76L707.96 1160.46L712.52 1167.43L714.77 1171.86L715.89 1175.44L716.75 1177.91L717.66 1180.50L718.70 1183.31L720.04 1186.19L722.80 1186.30L728.05 1184.01L732.71 1182.11L737.77 1179.63L741.87 1178.32L744.87 1177.42L747.53 1176.58L750.95 1174.53L752.19 1170.20L753.29 1166.64L754.72 1163.84L757.26 1160.73L760.30 1157.71L763.12 1154.74L765.60 1152.63L768.83 1150.94L771.93 1150.85L775.02 1152.70L777.70 1154.60L781.64 1156.95L784.45 1158.60L787.39 1160.33L790.68 1159.93L791.99 1157.44L792.42 1154.72L793.52 1151.87L795.07 1148.14L794.49 1145.14L794.31 1141.66L794.51 1138.97L797.93 1138.73L801.26 1139.73L804.19 1140.73L807.07 1141.55L812.31 1143.25L814.92 1144.43L819.94 1146.94L825.37 1147.94L828.76 1145.97L831.93 1144.31L834.85 1143.97L839.71 1144.71L842.44 1145.16L846.13 1145.70L849.37 1146.04L855.85 1146.28L859.61 1146.36L866.82 1146.28L864.10 1143.04L861.97 1141.33L859.79 1139.57L857.06 1137.73L852.07 1134.25L850.07 1131.57L846.12 1126.27L841.91 1121.19L839.50 1119.06L837.31 1117.12L835.05 1115.23L832.72 1113.28L829.58 1110.65L827.41 1108.83L823.19 1104.97L819.53 1101.62L814.81 1097.26L810.48 1093.55L807.82 1089.61L804.35 1084.48L802.62 1082.32L797.67 1076.17L795.70 1074.40L790.61 1070.90L785.14 1066.48L782.52 1064.78L780.04 1063.17L777.67 1061.63L771.70 1060.44L767.51 1058.39L763.32 1056.35L758.46 1047.40L754.13 1041.40L747.11 1033.48L742.68 1029.39L740.36 1027.03L738.03 1024.67L730.95 1014.62L726.30 1008.40L721.22 1003.79L717.13 1001.04L712.98 998.60L708.61 997.22L703.99 997.74L698.12 1002.78L695.23 1004.84L692.99 1006.38L687.45 1010.16L684.89 1011.98L683.24 1014.05L681.06 1016.26L676.73 1020.72L667.24 1024.37L661.46 1022.49Z" data-ward="9" /><path id="ward-12" class="ward" d="M585.51 1314.08L569.93 1289.02L567.46 1284.97L565.40 1281.69L562.94 1278.70L557.03 1272.97L553.88 1275.52L551.38 1276.40L547.96 1277.79L544.84 1279.25L541.84 1280.99L537.84 1283.24L535.26 1284.83L532.60 1286.88L530.15 1288.53L524.85 1291.23L520.36 1293.01L516.21 1294.07L512.87 1294.72L508.80 1295.50L504.41 1296.36L501.70 1296.89L498.93 1297.59L499.15 1301.69L499.69 1305.53L500.19 1311.41L498.54 1313.44L496.15 1315.00L493.12 1315.90L489.76 1316.99L486.21 1317.94L482.58 1318.47L479.00 1318.98L476.18 1320.16L473.40 1321.33L470.48 1322.35L467.73 1323.29L464.50 1322.16L461.82 1321.22L459.16 1320.42L456.42 1318.68L454.14 1316.92L451.71 1314.48L449.68 1312.40L447.28 1310.68L444.59 1308.55L442.10 1307.14L439.90 1305.77L440.38 1301.99L439.98 1298.66L436.49 1299.66L432.20 1299.38L428.64 1298.63L423.94 1297.72L420.30 1297.12L417.49 1296.99L413.78 1296.00L410.89 1294.58L407.64 1292.78L403.49 1291.97L400.13 1292.38L396.34 1293.62L393.49 1294.57L388.98 1295.11L386.18 1294.87L383.55 1294.33L380.07 1292.83L376.95 1291.79L374.02 1292.53L370.33 1294.99L367.51 1297.24L365.26 1300.61L366.16 1303.21L366.27 1306.51L365.92 1309.95L364.74 1312.49L362.26 1317.44L363.71 1319.97L365.68 1322.51L367.68 1324.16L369.79 1327.02L369.74 1330.07L373.26 1329.24L376.45 1328.51L379.88 1326.62L384.01 1324.51L387.10 1323.63L390.72 1322.60L395.46 1321.32L401.22 1319.38L403.90 1318.27L413.60 1314.23L416.53 1315.13L418.07 1320.85L417.36 1324.02L415.94 1328.78L417.52 1332.27L419.11 1337.43L420.67 1341.52L421.23 1344.38L424.99 1346.74L428.90 1349.14L430.51 1351.49L440.72 1366.78L445.82 1367.79L456.85 1370.65L461.16 1371.77L470.77 1383.38L470.31 1388.36L472.87 1391.23L474.95 1395.07L474.83 1398.15L473.29 1400.35L472.57 1403.76L474.95 1407.27L477.39 1410.18L480.68 1414.08L481.74 1416.79L483.78 1420.84L489.78 1424.78L492.39 1427.49L495.73 1426.55L498.15 1429.38L502.98 1435.01L504.06 1439.20L504.78 1443.76L506.73 1445.54L509.77 1443.96L512.70 1442.60L516.56 1440.74L518.98 1439.55L519.27 1434.21L520.66 1430.99L522.70 1429.15L524.74 1427.31L528.51 1425.03L530.99 1426.26L533.47 1427.49L535.34 1429.63L538.75 1433.01L542.13 1435.75L546.43 1437.53L549.48 1437.51L552.80 1437.99L557.04 1438.59L559.69 1439.88L562.33 1441.17L564.05 1443.69L568.50 1447.72L571.54 1449.04L573.95 1449.92L577.95 1451.63L581.71 1453.53L585.97 1454.14L588.92 1453.85L592.13 1452.91L594.79 1451.92L597.67 1450.69L600.71 1449.30L605.98 1448.16L608.77 1448.52L612.04 1449.69L615.26 1450.76L619.93 1451.97L622.66 1452.90L625.40 1454.31L629.82 1456.44L633.74 1457.31L636.23 1456.28L639.72 1454.50L634.36 1433.42L631.32 1427.54L627.96 1422.47L621.29 1414.12L613.99 1404.98L610.99 1401.43L608.58 1398.47L606.77 1396.25L604.03 1392.50L601.99 1389.51L600.13 1385.79L598.50 1380.80L597.56 1373.91L597.55 1370.87L598.54 1365.91L599.72 1359.99L600.37 1356.47L600.85 1352.50L600.96 1348.33L600.47 1344.66L599.65 1341.35L598.72 1338.67L596.95 1334.88L585.51 1314.08Z" data-ward="12" /><path id="ward-4" class="ward" d="M773.12 40.85L770.88 33.26L769.36 28.10L768.19 23.58L766.57 17.67L757.18 15.99L747.08 14.19L743.73 14.13L736.75 13.00L724.33 10.99L712.66 9.11L705.03 4.72L698.24 2.95L695.65 2.90L688.93 2.79L684.40 1.08L679.41 0.00L674.83 1.36L664.94 4.31L656.82 6.73L654.07 7.55L653.11 13.42L654.26 19.50L656.99 25.75L658.75 29.80L659.99 32.65L658.17 36.66L658.13 41.51L660.45 43.64L662.91 45.54L665.46 47.43L669.94 46.33L674.92 50.22L676.36 52.96L679.38 55.17L682.25 57.26L685.41 58.98L688.76 61.62L692.26 65.55L694.56 68.13L697.11 70.92L699.66 73.72L701.49 76.21L703.33 78.70L705.73 80.85L696.77 94.29L695.77 97.88L692.52 98.20L686.02 98.83L683.27 99.56L682.14 101.97L681.58 105.55L680.36 116.11L678.48 126.80L676.67 130.57L671.14 131.79L667.32 131.85L664.36 131.89L659.44 131.27L656.75 130.93L654.55 133.56L651.63 137.05L645.06 135.97L643.56 138.17L636.44 144.44L634.51 147.74L631.56 148.70L628.17 150.41L624.05 151.72L618.42 152.51L612.71 153.05L608.40 153.43L605.74 152.97L605.05 157.81L600.31 168.27L603.66 173.34L607.19 177.54L606.72 181.87L608.91 184.94L612.43 187.29L617.67 190.79L618.47 193.38L621.16 198.91L622.66 201.25L624.17 203.58L626.27 205.99L627.88 212.97L631.24 218.53L634.36 220.97L635.53 224.45L636.82 228.54L638.25 231.88L640.42 235.06L640.70 239.61L637.70 241.34L634.57 243.55L631.06 245.62L628.09 246.70L627.66 249.56L617.20 253.30L612.09 254.36L610.67 258.20L610.97 261.30L611.80 270.03L612.73 278.47L613.77 287.98L608.22 288.95L602.16 289.37L596.84 289.21L591.93 288.44L588.42 288.46L586.89 311.32L589.72 313.85L602.63 323.11L602.88 327.36L599.48 328.45L597.20 330.35L595.76 333.65L598.65 338.67L599.89 341.86L600.36 346.00L599.71 349.00L598.68 351.76L596.71 355.04L593.15 357.72L589.39 359.37L585.53 360.25L582.57 360.14L577.94 359.97L569.00 359.64L561.66 359.42L560.76 365.91L559.83 376.27L562.35 377.84L572.62 400.00L572.84 402.93L572.99 407.01L572.68 411.82L569.52 436.51L572.99 436.39L577.72 435.52L580.02 433.28L583.04 428.95L587.16 426.66L590.77 424.65L593.41 423.13L598.45 422.93L601.62 425.35L604.46 427.49L611.68 422.06L611.38 419.42L609.16 416.66L605.99 411.94L603.21 404.28L602.87 401.31L602.44 397.64L601.64 392.78L601.02 388.37L602.80 384.95L608.33 382.92L611.48 381.58L614.09 379.93L615.71 377.30L616.04 374.54L617.20 371.65L619.19 369.45L621.88 368.23L625.25 368.11L628.62 367.07L630.81 363.92L634.26 361.89L637.32 361.29L640.25 360.63L643.00 358.61L644.94 356.57L647.65 353.79L651.34 351.88L655.41 352.89L656.73 355.17L658.89 358.90L664.36 360.13L670.80 360.68L676.49 360.75L685.13 360.12L687.47 358.48L690.04 356.67L697.19 352.88L704.83 350.97L704.86 359.13L703.27 363.26L703.21 367.21L703.55 370.46L704.61 374.30L706.26 378.55L708.68 381.97L712.60 385.11L716.75 387.29L720.69 388.66L722.81 391.79L725.06 395.25L727.00 399.69L727.92 402.27L729.27 405.71L731.18 411.95L733.82 415.46L736.07 416.91L739.98 420.61L742.30 422.86L744.53 424.83L747.83 426.09L751.63 427.09L757.33 427.11L761.17 426.56L768.75 427.64L777.89 429.52L781.11 430.24L790.84 432.40L798.45 435.82L806.93 440.51L811.33 441.79L814.14 443.21L816.95 444.64L819.60 446.51L822.59 448.62L829.61 450.39L835.10 453.90L837.84 454.59L842.59 455.77L847.88 457.06L852.16 457.85L855.80 458.33L865.90 459.83L871.37 461.28L880.03 463.22L885.40 464.40L892.10 465.77L896.51 466.66L900.30 467.29L898.93 462.11L902.48 460.80L907.10 459.08L915.44 457.45L920.01 455.52L924.53 453.62L927.44 452.38L931.57 450.64L934.60 449.37L937.98 447.30L946.00 441.74L949.72 439.16L955.37 435.23L957.80 433.55L956.11 420.96L973.50 401.85L962.12 392.59L953.91 388.17L954.17 384.45L954.09 380.27L954.02 376.09L951.86 370.26L947.94 366.20L941.86 367.15L942.24 364.37L942.53 360.37L940.50 354.42L944.67 350.97L948.74 347.61L952.08 340.34L947.45 334.06L943.14 328.15L939.57 323.85L936.42 320.06L932.34 317.45L929.00 315.32L924.75 312.61L921.64 309.48L915.56 303.36L908.28 296.19L902.89 290.89L898.64 286.62L888.71 276.63L888.67 271.42L888.19 267.33L884.26 253.97L886.70 246.50L888.27 243.48L892.95 241.55L896.10 242.20L902.53 241.64L909.64 237.12L911.20 233.01L910.60 229.88L908.80 220.41L908.35 215.86L906.99 210.54L902.37 202.87L899.67 199.82L895.31 194.90L891.85 193.17L886.18 190.34L884.03 184.34L882.74 181.76L880.54 176.24L879.12 172.69L874.46 168.73L877.37 166.10L885.90 158.36L895.21 149.92L903.17 142.71L907.66 140.77L918.26 140.40L923.90 134.22L919.31 128.40L914.47 120.00L904.97 106.10L901.62 101.19L899.24 96.27L897.30 92.26L892.97 90.65L890.11 88.09L887.60 86.71L883.24 84.33L874.54 79.71L872.98 81.88L869.18 87.21L863.41 90.66L858.44 93.65L852.76 97.06L841.60 103.75L834.84 107.81L831.46 107.07L822.23 106.49L818.68 105.79L815.67 105.20L805.47 107.22L798.65 108.22L794.51 108.83L790.70 109.69L787.36 110.47L783.70 111.34L780.89 111.92L776.23 113.00L772.80 113.86L769.18 114.77L760.89 116.16L760.05 112.88L758.84 108.18L757.25 103.61L756.62 100.96L753.81 98.60L753.59 95.16L753.18 91.28L754.79 88.78L752.82 76.92L759.54 68.62L761.42 66.29L768.46 56.57L770.48 49.69L771.43 46.44L773.12 40.85Z" data-ward="4" /><path id="ward-2" class="ward" d="M311.78 167.65L310.73 165.13L307.32 156.46L303.52 149.04L299.10 139.79L296.88 137.83L291.42 141.19L289.09 142.62L284.16 146.14L279.15 148.06L276.52 149.08L273.86 150.10L263.86 155.84L258.81 159.12L255.55 161.25L252.27 163.76L249.60 165.60L246.59 167.68L244.42 169.54L240.05 160.56L237.21 155.70L234.27 152.73L230.14 154.77L224.13 157.74L220.21 161.85L214.00 164.54L201.55 169.56L196.87 174.04L194.43 178.41L193.70 182.76L187.24 190.18L186.07 194.26L183.71 196.88L182.11 198.98L187.65 209.46L194.11 216.07L199.29 218.53L201.23 227.70L203.13 236.67L204.52 243.07L207.06 249.60L206.76 253.44L202.82 258.22L202.26 267.40L203.10 272.27L203.18 275.15L203.25 278.02L202.66 281.87L202.07 285.70L201.32 289.40L198.71 299.72L189.56 305.75L182.14 312.83L174.31 321.28L172.01 323.73L168.96 326.96L168.52 329.67L168.83 335.91L171.62 344.04L172.54 349.36L172.92 352.76L170.45 356.25L168.06 360.31L165.91 364.31L164.94 368.73L165.48 373.97L166.97 379.80L168.79 383.73L171.70 388.07L200.20 386.99L255.97 383.34L279.12 374.88L280.18 379.67L282.36 384.27L284.56 387.05L288.01 391.26L292.08 396.06L296.34 401.02L299.99 406.76L303.05 414.89L304.64 420.46L306.51 426.38L309.30 427.85L312.03 430.77L313.94 432.82L318.68 436.53L327.26 438.51L331.16 441.36L340.05 440.64L347.42 440.79L355.56 436.70L365.00 435.85L375.17 435.37L387.11 433.94L388.44 436.19L391.36 436.68L393.14 438.94L395.61 441.30L398.18 442.48L400.87 443.72L403.44 449.29L405.82 454.74L409.46 458.48L412.66 458.81L415.42 459.10L418.41 459.40L423.09 458.91L426.68 457.61L430.15 455.22L428.51 451.35L426.01 445.27L424.37 441.13L422.74 437.57L421.20 434.20L418.78 429.37L417.39 426.83L415.18 423.08L412.25 419.07L409.21 415.54L406.06 412.73L403.60 409.44L398.05 401.11L390.10 388.52L388.15 380.92L384.87 374.04L380.30 368.11L375.94 360.38L372.62 352.56L371.54 348.17L370.89 344.25L370.45 341.58L367.48 327.02L366.72 323.45L364.77 314.15L359.69 291.57L355.49 278.55L349.81 262.07L343.37 244.58L337.96 230.83L333.59 220.09L331.59 215.62L330.31 212.67L329.03 209.72L324.88 199.21L322.11 192.15L320.62 188.34L312.83 170.18L311.78 167.65Z" data-ward="2" /><path id="ward-3" class="ward" d="M563.74 95.14L565.22 92.75L561.57 91.79L557.12 80.57L553.44 77.43L548.17 76.06L543.30 75.58L538.74 75.30L533.25 73.81L529.94 73.65L523.05 74.11L514.48 76.46L505.79 80.17L503.09 81.32L499.48 82.55L494.92 84.10L492.34 84.98L485.44 89.34L482.40 91.20L479.72 92.83L477.05 94.46L473.92 96.74L471.78 99.54L469.30 100.87L464.44 100.32L457.49 98.47L452.76 97.21L442.00 93.87L438.36 92.73L431.13 90.50L427.14 89.15L424.20 88.61L418.52 91.02L415.08 92.32L412.59 92.98L408.40 92.45L404.24 91.93L398.78 90.45L395.71 89.62L389.03 101.25L380.66 116.39L379.45 120.08L372.72 140.72L348.30 155.69L345.61 157.34L341.31 155.24L338.41 154.87L335.64 153.59L333.10 153.06L331.97 148.25L329.52 145.90L327.69 143.17L325.57 139.01L320.90 138.93L318.76 136.40L314.00 133.97L310.19 136.33L307.83 137.55L299.10 139.79L303.52 149.04L307.32 156.46L310.73 165.13L311.78 167.65L312.83 170.18L320.62 188.34L322.11 192.15L324.88 199.21L329.03 209.72L330.31 212.67L331.59 215.62L333.59 220.09L337.96 230.83L343.37 244.58L349.81 262.07L355.49 278.55L359.69 291.57L364.77 314.15L366.72 323.45L367.48 327.02L370.45 341.58L370.89 344.25L371.54 348.17L372.62 352.56L375.94 360.38L380.30 368.11L384.87 374.04L388.15 380.92L390.10 388.52L398.05 401.11L403.60 409.44L406.06 412.73L409.21 415.54L412.25 419.07L415.18 423.08L417.39 426.83L418.78 429.37L421.20 434.20L422.74 437.57L424.37 441.13L426.01 445.27L428.51 451.35L430.15 455.22L434.55 452.00L437.67 449.00L441.26 446.72L444.25 445.70L447.23 444.67L450.88 443.46L454.82 442.15L461.05 440.11L468.16 438.44L473.10 436.81L478.84 434.78L483.47 432.64L486.56 431.10L490.39 428.62L494.20 428.25L499.76 428.12L504.02 428.57L507.29 426.80L509.91 425.98L512.53 425.15L515.43 424.81L518.34 424.48L521.56 424.98L525.48 426.58L527.01 428.70L528.49 431.98L530.40 434.79L532.31 437.59L534.77 439.19L537.89 441.10L541.06 441.52L546.19 440.29L550.51 440.99L554.93 442.38L557.73 443.24L561.30 443.26L564.55 442.46L566.93 440.34L569.52 436.51L572.68 411.82L572.99 407.01L572.84 402.93L572.62 400.00L562.35 377.84L559.83 376.27L560.76 365.91L561.66 359.42L569.00 359.64L577.94 359.97L582.57 360.14L585.53 360.25L589.39 359.37L593.15 357.72L596.71 355.04L598.68 351.76L599.71 349.00L600.36 346.00L599.89 341.86L598.65 338.67L595.76 333.65L597.20 330.35L599.48 328.45L602.88 327.36L602.63 323.11L589.72 313.85L586.89 311.32L588.42 288.46L591.93 288.44L596.84 289.21L602.16 289.37L608.22 288.95L613.77 287.98L612.73 278.47L611.80 270.03L610.97 261.30L610.67 258.20L612.09 254.36L617.20 253.30L627.66 249.56L628.09 246.70L631.06 245.62L634.57 243.55L637.70 241.34L640.70 239.61L640.42 235.06L638.25 231.88L636.82 228.54L635.53 224.45L634.36 220.97L631.24 218.53L627.88 212.97L626.27 205.99L624.17 203.58L622.66 201.25L621.16 198.91L618.47 193.38L617.67 190.79L612.43 187.29L608.91 184.94L606.72 181.87L607.19 177.54L603.66 173.34L600.31 168.27L598.73 164.38L597.51 161.27L595.31 156.32L594.40 153.87L593.32 149.83L590.97 145.82L589.36 143.29L585.94 139.55L583.78 137.06L581.61 134.58L579.88 131.74L578.15 128.89L577.72 125.92L575.43 123.27L572.47 121.53L569.11 120.53L566.55 119.16L567.01 114.82L566.05 110.30L564.46 108.03L563.74 95.14Z" data-ward="3" /><path id="ward-1" class="ward" d="M202.26 267.40L202.82 258.22L206.76 253.44L207.06 249.60L204.52 243.07L203.13 236.67L201.23 227.70L199.29 218.53L194.11 216.07L187.65 209.46L182.11 198.98L179.68 202.16L177.38 205.54L170.48 216.45L167.68 219.04L165.68 220.89L163.82 223.14L161.94 225.41L160.07 227.68L154.24 234.75L152.92 237.06L148.87 241.50L146.49 244.77L142.64 247.88L140.33 252.80L138.71 257.74L138.54 261.38L137.87 266.34L135.95 268.99L131.24 268.29L127.19 267.70L122.40 267.27L117.35 266.81L111.37 265.29L108.07 264.44L103.95 263.38L98.77 260.36L93.69 258.82L89.98 260.47L86.19 263.64L83.12 265.96L78.84 269.14L77.40 271.63L75.96 274.11L75.34 276.89L71.82 277.96L69.44 275.40L67.23 272.95L64.72 271.51L62.43 273.13L62.66 277.22L60.42 280.00L55.70 285.85L49.56 289.33L43.43 292.81L41.35 295.10L38.11 298.68L34.38 301.86L30.65 303.97L26.27 305.90L22.22 307.70L20.74 310.83L17.86 314.06L15.25 317.00L13.20 319.30L10.67 321.11L9.09 323.40L8.36 326.66L9.24 330.33L11.66 335.26L14.54 340.13L14.97 344.16L15.48 348.90L13.84 352.49L12.29 355.89L10.32 359.06L7.47 361.81L4.24 364.84L2.22 366.74L0.76 369.03L0.50 371.98L0.00 377.63L0.01 383.15L0.94 387.06L2.05 391.71L3.86 396.65L4.63 399.96L5.82 402.26L8.76 407.98L10.72 411.81L12.47 416.36L14.05 418.66L16.28 421.92L18.87 427.22L21.58 430.68L24.54 434.17L26.76 436.80L28.88 439.52L31.15 442.50L33.28 445.19L35.89 448.50L39.02 453.08L41.13 456.07L44.25 460.30L45.43 464.23L45.71 464.56L46.91 467.82L49.93 471.34L51.86 473.58L54.02 475.65L55.90 477.46L59.72 481.09L62.88 484.08L64.77 487.22L66.53 491.60L68.21 496.16L69.87 501.76L69.30 506.62L71.12 509.53L71.65 513.02L73.32 515.31L75.39 518.14L77.65 521.24L79.24 523.41L81.03 525.86L84.05 530.00L85.29 532.54L87.04 536.13L89.18 538.94L90.78 541.05L93.46 544.57L95.73 547.56L97.31 552.51L98.30 555.62L98.92 558.49L101.38 561.47L104.55 565.33L106.31 567.28L109.15 570.43L111.30 572.81L113.16 574.87L112.42 578.10L113.79 581.37L115.43 584.42L116.78 586.94L119.09 591.23L121.18 595.14L123.21 599.31L125.33 603.66L126.57 606.21L128.14 608.54L130.60 610.69L132.57 607.59L131.24 604.44L132.44 601.64L134.85 600.76L138.11 600.84L141.69 601.03L147.28 601.27L152.21 599.38L156.54 598.12L159.51 596.09L164.53 594.67L169.47 592.33L170.03 589.31L168.65 585.52L165.52 582.00L163.62 580.20L161.79 578.25L157.58 573.61L153.89 569.73L151.95 565.90L149.72 559.93L149.95 555.23L150.64 552.10L152.16 547.39L153.26 543.52L154.30 539.85L156.32 536.55L158.22 534.77L160.55 533.04L163.95 530.81L165.92 529.15L168.43 527.36L172.56 523.70L175.04 519.52L177.97 517.57L178.69 521.18L179.29 524.05L179.86 528.23L180.34 531.67L180.81 535.11L182.30 541.28L186.50 539.98L189.06 539.06L190.40 533.96L196.15 532.93L200.71 532.25L204.06 531.28L209.23 529.76L208.32 524.56L207.32 521.94L204.93 518.10L202.09 513.00L216.28 507.35L227.90 505.09L231.56 503.59L242.19 501.20L249.34 498.03L255.89 492.12L264.47 484.17L268.29 484.06L271.75 478.79L273.79 477.06L278.17 475.32L285.35 471.72L288.96 468.41L292.97 470.08L295.22 471.39L299.67 473.15L302.44 473.58L308.81 476.14L315.43 478.05L320.13 480.45L323.80 481.95L328.75 482.78L333.76 485.13L345.83 492.22L349.29 491.56L352.05 491.95L357.70 492.38L366.01 488.90L362.69 484.14L360.22 480.12L357.74 476.10L355.27 472.59L351.85 467.17L347.84 459.25L347.80 456.43L346.32 450.34L340.94 452.11L336.17 452.23L333.39 451.02L331.16 441.36L327.26 438.51L318.68 436.53L313.94 432.82L312.03 430.77L309.30 427.85L306.51 426.38L304.64 420.46L303.05 414.89L299.99 406.76L296.34 401.02L292.08 396.06L288.01 391.26L284.56 387.05L282.36 384.27L280.18 379.67L279.12 374.88L255.97 383.34L200.20 386.99L171.70 388.07L168.79 383.73L166.97 379.80L165.48 373.97L164.94 368.73L165.91 364.31L168.06 360.31L170.45 356.25L172.92 352.76L172.54 349.36L171.62 344.04L168.83 335.91L168.52 329.67L168.96 326.96L172.01 323.73L174.31 321.28L182.14 312.83L189.56 305.75L198.71 299.72L201.32 289.40L202.07 285.70L202.66 281.87L203.25 278.02L203.18 275.15L203.10 272.27L202.26 267.40Z" data-ward="1" /><path id="ward-15" class="ward" d="M280.60 860.86L279.02 854.77L264.98 858.90L257.36 861.65L247.38 860.76L242.36 857.21L235.47 859.43L231.92 862.73L229.19 864.98L225.60 866.88L223.74 864.74L220.66 862.64L217.49 860.85L220.25 871.54L223.82 879.31L227.67 889.52L235.88 901.72L238.65 917.92L241.14 927.69L247.94 947.01L251.07 949.89L250.89 954.69L248.25 957.56L243.80 957.40L238.59 956.60L236.07 955.96L233.35 955.25L230.72 954.66L228.00 955.09L225.08 955.57L221.67 956.51L218.60 961.74L219.02 967.34L216.38 969.82L213.03 971.13L208.88 972.64L205.48 973.72L200.99 975.15L204.62 984.59L207.81 988.98L210.13 992.15L214.20 1000.08L218.47 1010.08L223.78 1019.80L227.64 1024.00L232.24 1029.47L235.28 1033.51L236.86 1037.71L237.48 1042.73L239.47 1049.79L241.94 1056.58L244.42 1063.37L247.83 1064.51L251.27 1065.69L254.35 1066.69L258.08 1067.84L261.68 1068.43L266.59 1068.62L270.52 1068.53L273.17 1068.39L277.48 1068.11L280.09 1068.42L283.02 1069.68L285.81 1071.57L289.34 1074.29L292.27 1075.90L295.52 1077.64L299.64 1079.49L302.22 1080.12L306.40 1080.23L309.06 1079.73L311.88 1079.98L314.28 1081.18L316.35 1082.85L318.60 1085.06L320.78 1087.40L324.15 1091.01L327.22 1093.74L330.69 1095.72L334.19 1097.65L338.52 1100.84L339.88 1104.15L341.03 1106.62L342.77 1109.39L344.12 1111.83L347.46 1115.25L349.85 1116.61L353.01 1118.17L355.84 1119.70L359.11 1120.59L361.51 1119.61L365.01 1117.06L367.08 1115.51L369.66 1114.24L373.57 1112.78L376.06 1111.74L379.62 1111.23L382.22 1112.23L385.83 1113.95L388.98 1115.25L392.31 1116.57L395.32 1117.73L397.94 1118.65L400.83 1119.77L403.62 1121.07L407.12 1122.53L409.90 1123.37L412.42 1123.95L415.60 1124.76L418.45 1126.27L422.33 1128.15L425.19 1129.64L427.33 1131.06L429.11 1128.99L434.23 1122.36L437.25 1118.25L438.80 1116.16L440.53 1110.73L441.74 1106.96L444.57 1103.85L444.14 1096.36L443.73 1092.87L442.61 1083.15L440.31 1068.95L439.56 1063.39L441.02 1055.03L442.01 1049.88L442.60 1043.14L443.23 1035.97L436.86 1023.96L434.90 1020.27L428.10 1006.98L427.05 1004.23L411.75 1010.65L408.33 1012.51L404.89 1011.52L399.34 1004.24L392.71 995.56L389.95 986.92L387.93 981.77L385.91 976.62L384.18 972.14L379.96 961.20L376.86 955.32L374.84 953.08L370.07 950.47L361.60 952.59L358.77 953.80L356.90 958.42L355.52 961.01L353.81 963.30L350.29 968.00L353.27 978.20L348.31 982.19L345.20 982.71L342.55 982.70L337.05 981.95L333.38 979.75L329.92 979.62L322.44 984.87L317.10 987.24L310.02 989.75L300.79 993.82L295.42 996.18L293.76 993.21L290.19 986.86L288.78 984.33L283.94 975.71L283.72 967.93L283.56 962.49L283.08 945.59L284.65 929.49L281.88 918.45L270.47 891.56L275.07 883.04L278.31 874.95L278.92 871.16L280.60 860.86Z" data-ward="15" /><path id="ward-11" class="ward" d="M489.78 1424.78L483.78 1420.84L481.74 1416.79L480.68 1414.08L477.39 1410.18L474.95 1407.27L472.57 1403.76L473.29 1400.35L474.83 1398.15L474.95 1395.07L472.87 1391.23L470.31 1388.36L470.77 1383.38L461.16 1371.77L456.85 1370.65L445.82 1367.79L440.72 1366.78L430.51 1351.49L428.90 1349.14L424.99 1346.74L421.23 1344.38L420.67 1341.52L419.11 1337.43L417.52 1332.27L415.94 1328.78L417.36 1324.02L418.07 1320.85L416.53 1315.13L413.60 1314.23L403.90 1318.27L401.22 1319.38L395.46 1321.32L390.72 1322.60L387.10 1323.63L384.01 1324.51L379.88 1326.62L376.45 1328.51L373.26 1329.24L369.74 1330.07L367.73 1331.81L363.25 1334.04L359.00 1336.18L351.85 1339.14L348.72 1340.35L346.25 1342.15L344.46 1345.60L345.38 1348.41L347.72 1351.95L349.75 1353.67L352.27 1355.59L356.48 1359.28L359.21 1362.46L360.15 1366.04L358.04 1369.01L356.19 1370.92L354.14 1374.63L354.06 1377.36L354.10 1380.53L354.36 1383.58L354.43 1388.77L355.16 1391.66L356.84 1396.10L358.21 1399.08L361.52 1403.44L365.64 1407.50L367.90 1409.43L371.59 1411.71L373.80 1413.12L374.58 1416.97L375.24 1419.70L376.23 1423.10L377.08 1426.14L377.56 1429.26L377.87 1433.06L378.69 1437.02L380.12 1441.59L381.28 1445.33L382.33 1449.31L383.17 1451.83L385.50 1459.73L386.00 1462.89L385.76 1466.11L386.19 1470.52L386.29 1475.34L386.49 1479.81L385.28 1483.73L382.97 1485.70L379.19 1487.70L375.69 1489.28L372.66 1491.11L369.38 1493.98L367.27 1497.55L365.85 1502.06L365.93 1504.70L366.55 1509.06L366.95 1513.15L368.06 1516.65L368.28 1520.10L368.17 1523.04L365.22 1526.43L361.88 1527.96L359.52 1529.05L356.69 1530.81L354.47 1533.42L353.39 1535.91L348.95 1536.66L346.68 1539.44L350.82 1540.37L355.42 1541.08L359.54 1541.72L364.74 1542.52L367.94 1538.41L372.48 1535.97L375.90 1534.23L381.03 1531.60L385.11 1529.68L392.83 1526.05L397.15 1531.52L404.72 1534.86L408.03 1531.63L411.49 1528.26L417.38 1523.33L423.04 1519.51L425.73 1518.91L430.85 1517.77L437.38 1516.25L441.51 1515.29L447.10 1513.79L450.90 1511.93L455.91 1509.40L460.56 1510.60L463.09 1511.24L470.03 1512.75L476.71 1514.08L481.58 1514.98L485.37 1515.68L491.44 1516.62L497.42 1517.55L499.98 1517.95L507.78 1519.24L510.76 1520.43L514.52 1521.93L517.35 1521.82L522.18 1521.07L525.53 1520.81L528.89 1520.54L534.83 1519.74L538.69 1518.62L545.60 1516.32L552.58 1516.34L573.95 1516.41L578.78 1515.83L582.63 1515.36L588.34 1514.67L598.28 1513.72L609.44 1512.65L615.05 1511.70L617.75 1511.25L622.61 1509.13L626.91 1507.62L629.60 1506.54L633.38 1505.31L640.53 1502.96L645.07 1501.88L651.82 1499.77L658.42 1495.21L661.21 1493.29L666.76 1488.74L670.97 1485.28L675.09 1481.89L678.91 1479.07L686.76 1473.26L689.99 1466.66L687.34 1465.64L682.95 1464.39L678.53 1456.11L678.76 1447.62L678.88 1443.53L678.98 1439.77L679.11 1435.17L679.24 1430.58L688.68 1426.00L695.37 1418.51L706.83 1412.56L709.96 1408.49L708.73 1405.76L707.83 1399.81L709.15 1391.33L708.45 1385.49L706.49 1381.08L706.31 1378.23L706.71 1366.18L713.94 1359.14L708.07 1353.75L703.02 1349.12L697.71 1350.17L695.98 1347.59L693.59 1344.05L691.26 1340.58L686.27 1341.51L680.55 1341.26L681.02 1328.51L677.13 1333.53L674.45 1336.33L669.36 1338.61L666.70 1338.90L663.40 1339.03L658.01 1337.45L655.27 1337.25L651.57 1338.22L650.08 1340.49L648.28 1343.01L643.13 1347.01L638.50 1349.03L634.48 1343.33L631.57 1344.05L624.37 1348.32L608.52 1351.68L605.78 1352.26L600.85 1352.50L600.37 1356.47L599.72 1359.99L598.54 1365.91L597.55 1370.87L597.56 1373.91L598.50 1380.80L600.13 1385.79L601.99 1389.51L604.03 1392.50L606.77 1396.25L608.58 1398.47L610.99 1401.43L613.99 1404.98L621.29 1414.12L627.96 1422.47L631.32 1427.54L634.36 1433.42L639.72 1454.50L636.23 1456.28L633.74 1457.31L629.82 1456.44L625.40 1454.31L622.66 1452.90L619.93 1451.97L615.26 1450.76L612.04 1449.69L608.77 1448.52L605.98 1448.16L600.71 1449.30L597.67 1450.69L594.79 1451.92L592.13 1452.91L588.92 1453.85L585.97 1454.14L581.71 1453.53L577.95 1451.63L573.95 1449.92L571.54 1449.04L568.50 1447.72L564.05 1443.69L562.33 1441.17L559.69 1439.88L557.04 1438.59L552.80 1437.99L549.48 1437.51L546.43 1437.53L542.13 1435.75L538.75 1433.01L535.34 1429.63L533.47 1427.49L530.99 1426.26L528.51 1425.03L524.74 1427.31L522.70 1429.15L520.66 1430.99L519.27 1434.21L518.98 1439.55L516.56 1440.74L512.70 1442.60L509.77 1443.96L506.73 1445.54L504.78 1443.76L504.06 1439.20L502.98 1435.01L498.15 1429.38L495.73 1426.55L492.39 1427.49L489.78 1424.78Z" data-ward="11" /><path id="ward-7" class="ward" d="M795.20 687.71L784.78 687.52L774.34 683.41L769.31 677.14L767.65 675.07L761.31 668.07L752.90 665.22L747.81 662.55L744.45 657.14L740.96 649.11L736.82 645.26L731.66 644.74L729.14 643.87L725.88 642.67L722.13 641.53L715.14 640.45L711.25 639.65L708.20 637.70L706.04 635.72L703.44 633.33L697.79 631.00L691.91 630.45L685.03 630.56L680.70 632.55L676.70 634.71L679.87 636.18L682.38 638.72L682.93 643.05L683.02 648.09L683.40 651.95L682.06 657.66L679.55 660.34L677.39 665.49L675.62 668.62L677.08 671.73L679.02 674.98L681.20 678.87L681.02 683.05L678.14 686.02L674.34 687.91L670.89 688.90L666.51 690.34L661.39 691.96L654.63 692.20L650.50 692.72L645.33 692.96L640.89 694.86L633.61 696.71L629.73 694.83L625.43 691.49L623.04 689.28L620.24 686.67L616.51 683.21L613.10 671.29L611.98 668.48L608.59 667.59L605.04 667.77L600.98 667.11L596.66 666.01L594.08 665.38L591.21 664.87L587.05 663.92L584.04 661.94L566.68 672.41L561.63 668.07L558.17 665.46L556.33 663.60L553.70 661.33L551.38 659.49L548.75 657.81L545.89 656.34L539.63 652.22L536.18 654.81L536.43 659.01L537.02 663.96L535.90 668.17L535.36 670.92L533.61 673.51L530.48 678.47L528.43 680.54L526.58 683.19L525.00 687.75L522.80 689.11L520.67 690.75L518.51 692.24L510.57 697.42L506.23 699.97L503.52 701.71L500.29 703.58L493.11 700.90L492.24 697.96L490.92 693.55L490.12 690.55L489.05 687.81L488.10 685.05L486.20 682.47L483.63 684.18L480.73 686.23L478.40 687.63L475.61 689.27L472.91 690.36L470.09 691.38L470.04 694.97L469.99 698.56L470.87 702.85L471.55 705.57L473.13 709.67L474.71 713.78L475.83 716.26L477.13 722.56L478.82 729.27L480.21 732.66L483.90 741.31L486.38 747.31L488.21 751.68L489.55 754.86L491.04 759.39L491.46 762.53L492.10 767.65L492.47 771.76L492.73 774.71L496.79 783.58L498.50 785.98L505.10 794.39L506.69 797.45L508.97 805.59L508.80 817.22L508.99 821.42L509.12 824.07L513.53 839.29L514.29 841.78L515.05 844.28L517.94 851.10L523.80 855.37L526.19 852.46L528.51 850.89L534.35 849.02L539.66 847.53L542.30 846.77L544.95 846.01L548.79 845.62L553.93 846.10L558.48 847.37L561.39 849.16L565.02 849.74L569.79 849.55L586.28 848.75L597.71 845.00L599.17 842.66L600.92 839.85L602.77 837.64L605.09 836.38L607.90 837.32L611.22 839.21L614.32 840.86L619.55 843.84L622.42 844.74L625.26 844.17L628.11 842.78L632.43 841.37L636.98 840.23L641.73 837.43L644.37 835.72L647.69 835.03L650.21 835.62L653.59 837.17L655.88 838.44L658.28 839.76L660.60 841.07L662.94 842.41L665.22 843.79L668.58 845.78L671.72 847.33L676.09 848.94L679.83 850.67L683.63 852.10L687.65 853.25L690.51 853.63L693.46 853.44L696.62 853.99L700.07 856.16L703.99 858.85L707.52 861.26L711.60 863.79L733.35 880.69L735.58 883.07L738.42 888.15L740.38 890.13L744.61 891.97L747.83 892.88L750.39 894.31L752.87 896.36L756.43 899.59L759.47 902.31L761.56 904.03L764.18 907.72L766.49 912.47L769.80 914.96L772.47 915.63L775.94 915.47L778.56 915.59L781.60 916.61L783.74 918.17L786.33 923.81L787.80 926.18L790.70 930.37L792.75 932.99L794.29 935.65L795.84 941.36L797.58 945.35L798.88 947.64L799.86 950.35L800.29 953.24L800.27 955.82L799.21 958.82L795.84 962.57L790.33 962.59L787.92 961.01L785.15 959.88L782.38 958.75L781.46 961.21L785.94 971.51L787.68 974.96L789.31 978.20L791.72 985.85L792.37 992.23L795.57 1000.10L798.14 1006.43L801.71 998.91L802.97 996.16L806.50 988.46L809.16 983.84L810.72 980.90L811.94 978.62L814.54 969.99L816.08 964.89L816.93 957.71L820.07 956.90L824.00 955.43L827.01 951.73L829.24 948.99L830.82 946.92L834.60 943.71L837.59 941.18L842.85 941.88L844.39 937.45L846.62 935.49L850.75 937.57L858.27 940.22L860.80 941.11L865.69 944.47L868.99 945.58L873.79 945.64L876.10 948.84L877.77 951.16L883.12 950.70L886.27 950.43L892.82 949.86L898.61 953.84L901.80 956.03L904.39 957.81L909.54 955.60L913.16 955.29L919.22 957.87L923.13 959.54L929.08 962.94L932.91 965.13L935.13 966.60L937.35 968.07L941.16 965.27L944.66 962.70L947.77 960.42L950.55 958.37L953.86 955.94L957.36 953.37L960.13 953.49L965.58 956.15L969.82 953.44L976.42 952.51L986.37 950.96L989.33 950.50L985.44 945.20L980.68 940.31L974.45 932.46L972.13 929.52L968.96 925.26L965.41 920.46L969.15 918.00L974.07 914.98L980.16 911.24L984.25 908.72L987.84 906.19L989.89 902.74L991.83 899.47L994.65 894.86L995.40 891.75L995.16 887.92L994.96 884.58L995.49 880.38L995.17 876.21L1000.00 865.61L994.90 862.71L988.60 854.61L982.34 850.97L976.28 846.43L973.38 840.33L971.97 837.15L968.54 836.45L961.95 835.11L949.55 832.59L944.03 833.00L932.98 825.23L929.96 822.83L926.95 820.45L921.26 813.52L916.69 798.56L914.73 790.08L912.34 786.18L909.51 781.55L907.23 777.80L906.47 773.63L904.91 771.36L901.81 766.85L901.73 749.33L908.07 741.32L919.81 726.50L926.57 720.67L923.64 719.12L919.16 715.48L916.07 712.73L912.21 709.81L908.86 707.93L906.14 706.44L902.81 703.73L901.36 700.58L899.77 697.00L896.01 691.59L893.49 688.20L890.79 685.13L885.95 683.68L882.92 683.84L878.80 683.04L875.46 681.56L872.12 680.08L867.87 677.50L864.99 675.76L861.98 674.09L851.80 670.25L847.44 668.09L843.57 665.39L841.07 664.28L837.52 664.42L824.63 668.40L820.13 670.73L816.53 672.88L816.45 676.43L816.74 679.51L814.86 681.59L808.64 688.46L795.20 687.71Z" data-ward="7" /><path id="ward-14" class="ward" d="M233.86 1060.16L232.01 1057.79L230.10 1055.20L227.03 1051.59L223.92 1049.51L219.64 1046.86L217.01 1046.31L213.39 1045.03L208.42 1044.13L205.48 1043.79L200.20 1042.70L196.61 1041.98L188.28 1039.68L184.14 1038.54L179.80 1035.90L176.17 1033.48L172.49 1030.92L169.44 1029.24L166.95 1028.03L163.86 1026.38L161.30 1023.71L158.24 1021.03L155.45 1018.93L152.87 1016.98L149.17 1013.67L146.54 1011.26L135.82 1005.07L133.23 1003.65L127.82 999.35L125.89 996.16L123.95 992.51L123.02 989.57L121.96 986.18L120.79 983.07L118.66 976.87L116.74 972.09L115.61 969.46L114.33 966.49L113.01 963.55L111.61 959.79L109.97 956.11L108.27 952.60L106.83 949.07L105.17 944.97L103.62 941.07L102.56 938.71L101.23 935.41L100.19 932.01L99.28 929.44L97.53 925.08L95.79 921.05L93.92 915.95L92.62 912.88L90.73 907.90L88.77 903.65L87.58 899.24L86.49 894.61L85.57 891.23L84.44 887.32L83.63 884.04L83.10 881.39L82.83 878.45L81.94 873.35L81.56 869.53L81.30 866.45L80.96 861.23L80.71 857.29L80.60 852.55L80.40 849.20L79.95 845.92L79.52 842.72L79.10 839.52L78.60 835.04L77.12 828.84L76.24 826.26L74.44 820.94L69.52 821.23L65.32 821.48L59.86 821.76L57.36 827.18L54.94 830.50L53.08 834.24L53.12 837.60L53.57 840.61L54.22 844.28L55.01 848.93L55.58 851.47L56.12 854.48L56.65 858.05L57.17 861.59L57.25 864.98L57.34 868.47L56.94 872.26L56.27 877.29L56.01 880.67L55.88 884.01L55.83 887.52L55.76 893.10L54.64 896.85L52.86 899.22L50.52 901.78L50.19 904.86L50.22 908.33L49.95 911.22L50.23 914.47L50.85 917.78L51.60 921.73L51.47 925.30L51.36 928.46L51.25 931.49L51.13 935.08L50.98 939.20L50.87 942.40L50.77 945.09L50.65 948.57L49.73 951.55L48.51 955.47L46.15 959.07L43.48 963.13L40.41 967.21L36.32 968.01L32.51 968.75L30.00 972.52L28.24 975.16L27.18 977.80L26.11 980.46L25.15 983.62L23.87 987.83L23.72 992.66L23.62 995.65L30.98 995.86L34.57 996.79L35.45 1003.04L37.01 1008.91L39.00 1011.32L40.99 1013.73L43.50 1016.35L44.26 1018.88L47.69 1022.08L49.68 1024.28L51.86 1026.70L52.83 1029.69L52.65 1033.10L53.61 1036.46L54.39 1039.21L54.37 1042.49L55.26 1045.92L56.63 1048.55L57.30 1051.64L58.26 1054.70L60.05 1059.35L63.31 1064.05L67.27 1065.72L70.01 1064.84L75.23 1065.75L76.60 1068.35L78.41 1071.81L80.37 1075.55L85.67 1078.16L90.54 1079.06L95.04 1077.33L99.46 1078.41L104.76 1078.54L108.06 1077.25L110.97 1078.06L114.39 1080.13L114.06 1085.84L115.86 1091.33L116.93 1094.30L116.47 1098.76L117.91 1103.99L123.32 1109.01L128.53 1113.85L134.71 1113.74L139.10 1117.46L141.78 1120.31L145.70 1126.71L145.91 1131.18L146.91 1135.21L147.87 1138.13L148.73 1140.73L150.87 1144.45L151.32 1147.40L157.58 1157.51L158.45 1163.25L161.75 1170.50L164.16 1177.62L163.39 1185.53L164.06 1188.82L164.64 1191.65L164.70 1196.96L164.32 1199.59L165.54 1203.63L169.14 1208.90L171.10 1210.92L174.79 1213.90L175.00 1217.18L173.32 1219.72L178.47 1221.49L181.79 1222.61L188.86 1224.70L191.60 1224.28L197.26 1223.42L201.72 1223.37L205.36 1223.34L210.37 1223.21L214.38 1223.82L218.23 1224.52L222.07 1225.21L226.33 1226.08L230.66 1226.93L233.56 1227.43L237.56 1228.19L240.44 1229.01L244.72 1231.44L246.89 1232.81L249.81 1233.07L254.66 1231.88L258.46 1230.83L262.56 1229.74L265.16 1229.38L268.66 1228.42L272.63 1226.40L275.83 1223.15L278.62 1219.13L281.77 1214.74L283.74 1212.78L286.99 1210.20L291.00 1207.59L294.03 1207.74L299.12 1209.68L303.05 1211.27L305.61 1211.83L308.50 1212.28L311.45 1212.00L317.20 1210.81L321.03 1210.34L323.86 1209.80L332.41 1208.20L335.61 1207.82L341.19 1206.31L350.44 1206.09L353.84 1206.04L357.69 1205.79L360.30 1205.62L367.59 1203.71L371.75 1203.69L376.59 1203.44L380.77 1202.55L384.41 1201.82L388.82 1200.64L391.81 1199.74L395.80 1199.05L398.08 1201.27L401.16 1203.29L409.06 1204.03L412.69 1203.87L421.03 1203.48L426.33 1203.41L431.34 1203.10L434.31 1203.04L437.41 1203.05L440.95 1203.16L443.29 1200.69L440.57 1197.91L438.35 1195.30L435.65 1191.90L433.91 1188.20L433.02 1185.72L432.27 1183.26L431.98 1178.73L431.96 1174.09L431.90 1168.95L431.15 1164.03L430.32 1161.48L428.88 1157.93L427.47 1153.82L425.97 1149.61L425.36 1145.21L425.29 1142.53L425.69 1139.83L426.18 1135.90L427.33 1131.06L425.19 1129.64L422.33 1128.15L418.45 1126.27L415.60 1124.76L412.42 1123.95L409.90 1123.37L407.12 1122.53L403.62 1121.07L400.83 1119.77L397.94 1118.65L395.32 1117.73L392.31 1116.57L388.98 1115.25L385.83 1113.95L382.22 1112.23L379.62 1111.23L376.06 1111.74L373.57 1112.78L369.66 1114.24L367.08 1115.51L365.01 1117.06L361.51 1119.61L359.11 1120.59L355.84 1119.70L353.01 1118.17L349.85 1116.61L347.46 1115.25L344.12 1111.83L342.77 1109.39L341.03 1106.62L339.88 1104.15L338.52 1100.84L334.19 1097.65L330.69 1095.72L327.22 1093.74L324.15 1091.01L320.78 1087.40L318.60 1085.06L316.35 1082.85L314.28 1081.18L311.88 1079.98L309.06 1079.73L306.40 1080.23L302.22 1080.12L299.64 1079.49L295.52 1077.64L292.27 1075.90L289.34 1074.29L285.81 1071.57L283.02 1069.68L280.09 1068.42L277.48 1068.11L273.17 1068.39L270.52 1068.53L266.59 1068.62L261.68 1068.43L258.08 1067.84L254.35 1066.69L251.27 1065.69L247.83 1064.51L244.42 1063.37L240.06 1063.13L236.48 1063.40L233.86 1060.16Z" data-ward="14" /><path id="ward-10" class="ward" d="M717.66 1180.50L716.75 1177.91L715.89 1175.44L714.77 1171.86L712.52 1167.43L707.96 1160.46L705.14 1156.76L700.35 1151.86L697.08 1149.72L694.80 1148.00L692.89 1145.96L689.03 1141.43L686.42 1138.84L684.57 1136.80L682.67 1134.32L679.71 1130.43L678.33 1128.21L676.93 1125.79L675.44 1122.40L675.10 1119.82L674.99 1116.82L676.16 1113.17L677.47 1110.26L678.19 1107.20L676.95 1104.44L675.71 1101.67L674.03 1097.83L671.84 1094.64L669.86 1091.97L667.59 1088.41L664.74 1089.34L662.17 1090.91L659.07 1091.93L654.97 1092.49L649.27 1092.79L643.73 1092.97L640.33 1094.54L638.23 1096.61L636.01 1099.10L634.87 1101.97L634.67 1105.23L635.13 1108.71L636.21 1111.95L636.94 1114.71L636.89 1118.08L637.41 1122.00L638.96 1125.20L641.99 1127.84L642.42 1130.51L641.33 1133.76L638.61 1136.48L636.29 1141.35L637.53 1143.64L639.38 1145.74L641.05 1147.70L640.09 1150.30L636.65 1153.76L632.48 1157.42L629.82 1159.64L626.05 1161.52L622.80 1163.53L618.08 1168.97L616.55 1171.57L616.45 1174.31L616.54 1177.26L615.80 1180.07L612.82 1181.47L607.03 1181.08L597.21 1181.15L594.46 1182.18L592.41 1184.89L590.28 1187.38L587.68 1190.66L584.82 1198.14L584.24 1202.37L585.13 1206.28L585.99 1208.87L585.94 1212.71L580.02 1215.34L577.39 1216.76L574.46 1219.01L571.81 1221.04L566.94 1225.34L563.68 1227.60L560.02 1229.85L557.84 1231.45L554.10 1233.42L551.64 1234.51L546.80 1236.86L544.75 1238.64L541.82 1241.97L539.99 1244.11L544.49 1248.95L546.26 1251.35L547.82 1253.96L549.56 1257.01L550.54 1259.61L551.99 1264.21L553.40 1268.01L554.87 1270.44L557.03 1272.97L562.94 1278.70L565.40 1281.69L567.46 1284.97L569.93 1289.02L585.51 1314.08L596.95 1334.88L598.72 1338.67L599.65 1341.35L600.47 1344.66L600.96 1348.33L600.85 1352.50L605.78 1352.26L608.52 1351.68L624.37 1348.32L631.57 1344.05L634.48 1343.33L638.50 1349.03L643.13 1347.01L648.28 1343.01L650.08 1340.49L651.57 1338.22L655.27 1337.25L658.01 1337.45L663.40 1339.03L666.70 1338.90L669.36 1338.61L674.45 1336.33L677.13 1333.53L681.02 1328.51L685.01 1326.35L691.26 1322.96L697.80 1322.00L706.12 1321.95L712.28 1324.85L718.88 1324.60L722.23 1328.06L725.46 1330.86L728.60 1333.11L730.90 1334.76L735.79 1337.49L741.61 1335.75L745.50 1329.66L749.60 1328.94L752.21 1329.77L757.05 1325.84L759.77 1324.98L762.49 1324.12L766.37 1323.11L771.98 1324.35L775.01 1321.76L781.20 1319.56L782.51 1316.33L785.20 1317.78L790.08 1317.96L792.79 1319.30L792.42 1327.70L797.06 1335.62L805.91 1347.60L809.63 1353.64L811.55 1359.39L813.46 1365.08L816.53 1364.51L817.90 1360.44L819.91 1352.04L823.69 1347.13L827.18 1343.92L828.64 1341.54L829.17 1337.42L834.63 1334.81L838.31 1333.04L841.02 1330.82L845.36 1327.91L849.13 1324.31L851.39 1320.93L853.72 1316.70L856.65 1312.53L858.47 1310.31L861.15 1306.86L864.57 1304.89L869.62 1302.10L872.13 1300.72L875.34 1296.87L878.78 1294.01L880.96 1292.20L882.80 1284.22L882.92 1277.68L882.22 1270.64L882.97 1266.07L880.56 1258.77L877.95 1255.64L875.32 1252.48L873.99 1248.84L872.70 1245.31L868.99 1242.46L866.00 1240.16L860.59 1241.47L858.43 1238.89L855.68 1233.41L853.01 1227.86L851.07 1221.55L848.10 1218.00L843.39 1217.72L836.78 1217.32L832.09 1214.35L832.20 1210.08L832.26 1205.61L833.38 1201.12L836.56 1199.23L839.49 1197.65L842.04 1194.71L843.58 1191.94L846.72 1191.00L847.67 1186.18L848.32 1182.86L852.38 1180.52L854.86 1178.87L857.96 1176.82L858.21 1173.98L862.30 1168.53L865.12 1164.78L868.76 1159.92L870.13 1156.86L871.35 1154.11L871.02 1150.27L866.82 1146.28L859.61 1146.36L855.85 1146.28L849.37 1146.04L846.13 1145.70L842.44 1145.16L839.71 1144.71L834.85 1143.97L831.93 1144.31L828.76 1145.97L825.37 1147.94L819.94 1146.94L814.92 1144.43L812.31 1143.25L807.07 1141.55L804.19 1140.73L801.26 1139.73L797.93 1138.73L794.51 1138.97L794.31 1141.66L794.49 1145.14L795.07 1148.14L793.52 1151.87L792.42 1154.72L791.99 1157.44L790.68 1159.93L787.39 1160.33L784.45 1158.60L781.64 1156.95L777.70 1154.60L775.02 1152.70L771.93 1150.85L768.83 1150.94L765.60 1152.63L763.12 1154.74L760.30 1157.71L757.26 1160.73L754.72 1163.84L753.29 1166.64L752.19 1170.20L750.95 1174.53L747.53 1176.58L744.87 1177.42L741.87 1178.32L737.77 1179.63L732.71 1182.11L728.05 1184.01L722.80 1186.30L720.04 1186.19L718.70 1183.31L717.66 1180.50Z" data-ward="10" /><path id="ward-17" class="ward" d="M393.14 438.94L391.36 436.68L388.44 436.19L387.11 433.94L375.17 435.37L365.00 435.85L355.56 436.70L347.42 440.79L340.05 440.64L331.16 441.36L333.39 451.02L336.17 452.23L340.94 452.11L346.32 450.34L347.80 456.43L347.84 459.25L351.85 467.17L355.27 472.59L357.74 476.10L360.22 480.12L362.69 484.14L366.01 488.90L357.70 492.38L352.05 491.95L349.29 491.56L345.83 492.22L333.76 485.13L328.75 482.78L323.80 481.95L320.13 480.45L315.43 478.05L308.81 476.14L302.44 473.58L299.67 473.15L295.22 471.39L292.97 470.08L288.96 468.41L285.35 471.72L278.17 475.32L273.79 477.06L271.75 478.79L268.29 484.06L264.47 484.17L255.89 492.12L249.34 498.03L242.19 501.20L231.56 503.59L227.90 505.09L216.28 507.35L202.09 513.00L204.93 518.10L207.32 521.94L208.32 524.56L209.23 529.76L204.06 531.28L200.71 532.25L196.15 532.93L190.40 533.96L189.06 539.06L186.50 539.98L182.30 541.28L180.81 535.11L180.34 531.67L179.86 528.23L179.29 524.05L178.69 521.18L177.97 517.57L175.04 519.52L172.56 523.70L168.43 527.36L165.92 529.15L163.95 530.81L160.55 533.04L158.22 534.77L156.32 536.55L154.30 539.85L153.26 543.52L152.16 547.39L150.64 552.10L149.95 555.23L149.72 559.93L151.95 565.90L153.89 569.73L157.58 573.61L161.79 578.25L163.62 580.20L165.52 582.00L168.65 585.52L170.03 589.31L169.47 592.33L164.53 594.67L159.51 596.09L156.54 598.12L152.21 599.38L147.28 601.27L141.69 601.03L138.11 600.84L134.85 600.76L132.44 601.64L131.24 604.44L132.57 607.59L130.60 610.69L132.74 615.41L134.00 618.19L135.49 621.47L137.11 625.41L138.69 629.27L137.93 631.92L142.02 637.72L142.13 640.67L144.00 642.70L144.04 647.67L144.65 651.72L146.74 653.82L147.64 657.16L150.18 660.21L152.89 663.46L157.92 669.49L160.63 672.74L163.87 674.39L167.90 677.33L167.17 681.54L165.59 684.67L164.32 687.21L162.38 691.06L160.70 694.40L162.84 699.97L164.76 702.13L165.78 704.84L167.53 708.29L164.48 711.93L160.63 716.54L155.59 718.87L152.05 720.51L146.06 725.79L140.82 728.23L134.52 731.65L129.99 734.85L121.18 742.89L117.51 746.24L112.52 750.79L113.76 759.81L114.64 766.24L114.53 768.88L116.17 779.11L117.27 788.79L122.21 787.75L127.22 785.51L131.26 782.44L131.21 777.89L131.33 775.19L132.41 767.72L134.94 763.30L139.57 760.11L142.39 758.19L151.12 752.49L154.65 754.18L158.21 755.98L163.01 758.41L168.17 755.83L171.40 753.29L175.77 751.17L178.48 750.80L183.98 750.16L187.20 749.39L189.97 748.59L192.67 747.80L199.10 746.13L202.06 745.46L205.97 744.60L213.86 743.03L224.72 738.68L236.53 732.13L238.63 737.68L241.04 742.25L241.80 744.72L242.39 751.06L244.00 757.95L246.57 765.72L248.47 768.81L250.54 772.00L254.96 779.56L256.70 782.97L258.44 786.38L259.81 789.40L261.17 792.41L262.74 795.68L264.38 798.57L266.01 801.47L267.83 805.17L269.70 809.84L270.75 813.21L271.66 817.15L273.04 819.80L275.93 818.65L281.14 816.48L293.44 811.23L307.37 805.63L310.73 805.11L312.74 807.13L316.75 811.01L319.26 814.88L321.79 820.58L323.55 823.27L326.20 825.11L329.00 826.06L331.92 826.73L334.77 827.07L338.24 830.04L339.76 832.60L340.86 835.56L340.93 839.49L342.68 845.21L344.25 847.47L345.82 849.73L350.51 852.32L353.14 851.70L357.63 849.22L362.09 846.94L366.65 850.72L368.53 852.66L370.40 854.59L373.22 857.58L375.69 861.05L379.94 860.86L383.48 859.01L388.08 856.59L391.19 856.14L394.66 855.49L397.96 854.89L400.86 854.36L398.78 846.83L396.94 842.33L395.58 838.65L394.00 834.15L392.73 829.80L392.55 825.97L395.63 821.32L399.14 817.47L397.50 813.96L394.17 806.55L393.52 802.12L390.98 798.03L394.50 794.32L397.27 791.34L399.70 786.64L400.88 783.12L402.78 778.11L403.78 775.54L406.47 770.93L408.31 763.87L410.13 760.99L413.26 756.97L415.67 753.26L419.09 749.96L422.45 749.85L428.94 751.61L435.24 752.93L440.75 753.59L448.17 754.37L456.28 755.93L461.85 758.95L466.20 763.36L471.71 765.93L477.19 765.34L480.92 766.07L485.89 766.78L492.10 767.65L491.46 762.53L491.04 759.39L489.55 754.86L488.21 751.68L486.38 747.31L483.90 741.31L480.21 732.66L478.82 729.27L477.13 722.56L475.83 716.26L474.71 713.78L473.13 709.67L471.55 705.57L470.87 702.85L469.99 698.56L470.04 694.97L470.09 691.38L470.03 687.48L468.04 681.61L461.54 670.19L457.97 658.29L455.79 650.97L451.97 638.10L446.57 630.57L436.30 622.42L427.09 615.43L422.31 606.80L412.77 597.77L397.68 584.92L394.29 580.67L394.21 574.80L397.92 566.91L403.73 560.52L405.72 557.36L408.37 553.15L413.78 542.86L418.19 541.21L422.93 540.82L426.21 539.63L429.99 536.77L432.54 529.35L433.76 523.75L435.41 516.16L435.93 513.47L435.95 505.13L435.96 502.47L434.38 494.06L435.70 487.34L436.70 482.23L435.27 471.91L433.05 463.76L430.15 455.22L426.68 457.61L423.09 458.91L418.41 459.40L415.42 459.10L412.66 458.81L409.46 458.48L405.82 454.74L403.44 449.29L400.87 443.72L398.18 442.48L395.61 441.30L393.14 438.94Z" data-ward="17" /><path id="ward-6" class="ward" d="M541.78 517.74L540.14 512.43L537.96 508.90L536.68 506.45L535.16 504.32L533.98 501.62L532.35 498.59L530.53 495.93L528.56 493.90L526.54 492.03L521.59 489.73L515.13 488.59L511.88 487.53L508.27 487.36L503.13 487.23L499.23 486.77L494.02 483.30L492.61 480.64L491.13 478.38L488.19 476.09L485.74 474.81L483.26 473.71L479.93 473.08L474.28 471.99L470.48 470.85L466.06 469.12L462.14 467.90L459.46 467.17L456.44 466.61L453.49 467.21L450.14 469.06L447.07 470.67L444.19 471.31L439.70 471.46L435.27 471.91L436.70 482.23L435.70 487.34L434.38 494.06L435.96 502.47L435.95 505.13L435.93 513.47L435.41 516.16L433.76 523.75L432.54 529.35L429.99 536.77L426.21 539.63L422.93 540.82L418.19 541.21L413.78 542.86L408.37 553.15L405.72 557.36L403.73 560.52L397.92 566.91L394.21 574.80L394.29 580.67L397.68 584.92L412.77 597.77L422.31 606.80L427.09 615.43L436.30 622.42L446.57 630.57L451.97 638.10L455.79 650.97L457.97 658.29L461.54 670.19L468.04 681.61L470.03 687.48L470.09 691.38L472.91 690.36L475.61 689.27L478.40 687.63L480.73 686.23L483.63 684.18L486.20 682.47L488.10 685.05L489.05 687.81L490.12 690.55L490.92 693.55L492.24 697.96L493.11 700.90L500.29 703.58L503.52 701.71L506.23 699.97L510.57 697.42L518.51 692.24L520.67 690.75L522.80 689.11L525.00 687.75L526.58 683.19L528.43 680.54L530.48 678.47L533.61 673.51L535.36 670.92L535.90 668.17L537.02 663.96L536.43 659.01L536.18 654.81L539.63 652.22L545.89 656.34L548.75 657.81L551.38 659.49L553.70 661.33L556.33 663.60L558.17 665.46L561.63 668.07L566.68 672.41L584.04 661.94L587.05 663.92L591.21 664.87L594.08 665.38L596.66 666.01L600.98 667.11L605.04 667.77L608.59 667.59L611.98 668.48L613.10 671.29L616.51 683.21L620.24 686.67L623.04 689.28L625.43 691.49L629.73 694.83L633.61 696.71L640.89 694.86L645.33 692.96L650.50 692.72L654.63 692.20L661.39 691.96L666.51 690.34L670.89 688.90L674.34 687.91L678.14 686.02L681.02 683.05L681.20 678.87L679.02 674.98L677.08 671.73L675.62 668.62L677.39 665.49L679.55 660.34L682.06 657.66L683.40 651.95L683.02 648.09L682.93 643.05L682.38 638.72L679.87 636.18L676.70 634.71L680.70 632.55L685.03 630.56L691.91 630.45L697.79 631.00L703.44 633.33L706.04 635.72L708.20 637.70L711.25 639.65L715.14 640.45L722.13 641.53L725.88 642.67L729.14 643.87L731.66 644.74L736.82 645.26L740.96 649.11L744.45 657.14L747.81 662.55L752.90 665.22L761.31 668.07L767.65 675.07L769.31 677.14L774.34 683.41L784.78 687.52L795.20 687.71L808.64 688.46L814.86 681.59L816.74 679.51L816.45 676.43L816.53 672.88L815.10 667.49L814.01 663.97L812.93 660.33L812.07 657.67L810.78 653.76L809.79 651.20L808.69 648.41L807.33 644.61L806.12 641.80L804.23 637.95L802.01 633.99L800.38 631.16L798.16 627.64L796.23 624.68L793.82 620.48L791.73 616.44L790.32 612.42L789.96 608.38L789.04 605.54L788.13 603.04L786.32 598.89L784.72 595.47L783.62 591.57L783.73 588.56L782.79 584.22L780.41 579.47L778.98 576.68L777.61 574.01L774.96 569.04L772.67 564.71L771.30 562.45L769.34 560.32L767.12 558.44L764.69 556.72L761.96 555.93L759.31 555.45L756.60 555.09L753.71 554.50L751.04 553.73L748.55 552.93L745.96 552.14L743.21 551.34L740.30 550.81L737.69 550.39L733.63 549.75L727.93 548.71L723.44 547.56L718.35 546.19L715.01 545.14L711.17 543.52L707.21 541.33L704.67 539.74L699.44 536.65L695.06 534.28L691.10 531.40L689.20 529.62L683.71 524.64L680.78 521.51L677.88 518.36L676.55 514.73L675.31 510.35L674.62 507.82L673.83 504.82L672.99 501.63L671.79 498.68L669.87 496.01L667.96 493.44L665.12 491.69L661.87 492.86L658.75 493.56L655.57 493.93L653.92 495.98L652.64 498.26L651.46 507.81L648.92 509.45L645.49 508.44L639.45 513.88L634.88 515.53L630.91 517.28L626.81 519.43L623.74 520.26L620.35 520.81L617.55 520.98L614.91 522.01L611.15 523.97L607.86 525.87L603.59 526.64L598.17 527.34L592.98 527.94L584.72 524.99L581.08 524.99L577.06 523.65L574.04 521.87L569.26 521.29L563.48 521.27L558.50 519.30L554.88 517.26L551.95 517.36L548.97 517.95L546.20 518.19L541.78 517.74Z" data-ward="6" /><path id="ward-5" class="ward" d="M704.86 359.13L704.83 350.97L697.19 352.88L690.04 356.67L687.47 358.48L685.13 360.12L676.49 360.75L670.80 360.68L664.36 360.13L658.89 358.90L656.73 355.17L655.41 352.89L651.34 351.88L647.65 353.79L644.94 356.57L643.00 358.61L640.25 360.63L637.32 361.29L634.26 361.89L630.81 363.92L628.62 367.07L625.25 368.11L621.88 368.23L619.19 369.45L617.20 371.65L616.04 374.54L615.71 377.30L614.09 379.93L611.48 381.58L608.33 382.92L602.80 384.95L601.02 388.37L601.64 392.78L602.44 397.64L602.87 401.31L603.21 404.28L605.99 411.94L609.16 416.66L611.38 419.42L611.68 422.06L604.46 427.49L601.62 425.35L598.45 422.93L593.41 423.13L590.77 424.65L587.16 426.66L583.04 428.95L580.02 433.28L577.72 435.52L572.99 436.39L569.52 436.51L566.93 440.34L564.55 442.46L561.30 443.26L557.73 443.24L554.93 442.38L550.51 440.99L546.19 440.29L541.06 441.52L537.89 441.10L534.77 439.19L532.31 437.59L530.40 434.79L528.49 431.98L527.01 428.70L525.48 426.58L521.56 424.98L518.34 424.48L515.43 424.81L512.53 425.15L509.91 425.98L507.29 426.80L504.02 428.57L499.76 428.12L494.20 428.25L490.39 428.62L486.56 431.10L483.47 432.64L478.84 434.78L473.10 436.81L468.16 438.44L461.05 440.11L454.82 442.15L450.88 443.46L447.23 444.67L444.25 445.70L441.26 446.72L437.67 449.00L434.55 452.00L430.15 455.22L433.05 463.76L435.27 471.91L439.70 471.46L444.19 471.31L447.07 470.67L450.14 469.06L453.49 467.21L456.44 466.61L459.46 467.17L462.14 467.90L466.06 469.12L470.48 470.85L474.28 471.99L479.93 473.08L483.26 473.71L485.74 474.81L488.19 476.09L491.13 478.38L492.61 480.64L494.02 483.30L499.23 486.77L503.13 487.23L508.27 487.36L511.88 487.53L515.13 488.59L521.59 489.73L526.54 492.03L528.56 493.90L530.53 495.93L532.35 498.59L533.98 501.62L535.16 504.32L536.68 506.45L537.96 508.90L540.14 512.43L541.78 517.74L546.20 518.19L548.97 517.95L551.95 517.36L554.88 517.26L558.50 519.30L563.48 521.27L569.26 521.29L574.04 521.87L577.06 523.65L581.08 524.99L584.72 524.99L592.98 527.94L598.17 527.34L603.59 526.64L607.86 525.87L611.15 523.97L614.91 522.01L617.55 520.98L620.35 520.81L623.74 520.26L626.81 519.43L630.91 517.28L634.88 515.53L639.45 513.88L645.49 508.44L648.92 509.45L651.46 507.81L652.64 498.26L653.92 495.98L655.57 493.93L658.75 493.56L661.87 492.86L665.12 491.69L667.96 493.44L669.87 496.01L671.79 498.68L672.99 501.63L673.83 504.82L674.62 507.82L675.31 510.35L676.55 514.73L677.88 518.36L680.78 521.51L683.71 524.64L689.20 529.62L691.10 531.40L695.06 534.28L699.44 536.65L704.67 539.74L707.21 541.33L711.17 543.52L715.01 545.14L718.35 546.19L723.44 547.56L727.93 548.71L733.63 549.75L737.69 550.39L740.30 550.81L743.21 551.34L745.96 552.14L748.55 552.93L751.04 553.73L753.71 554.50L756.60 555.09L759.31 555.45L761.96 555.93L764.69 556.72L767.12 558.44L769.34 560.32L771.30 562.45L772.67 564.71L774.96 569.04L777.61 574.01L778.98 576.68L780.41 579.47L782.79 584.22L783.73 588.56L783.62 591.57L784.72 595.47L786.32 598.89L788.13 603.04L789.04 605.54L789.96 608.38L790.32 612.42L791.73 616.44L793.82 620.48L796.23 624.68L798.16 627.64L800.38 631.16L802.01 633.99L804.23 637.95L806.12 641.80L807.33 644.61L808.69 648.41L809.79 651.20L810.78 653.76L812.07 657.67L812.93 660.33L814.01 663.97L815.10 667.49L816.53 672.88L820.13 670.73L824.63 668.40L837.52 664.42L841.07 664.28L843.57 665.39L847.44 668.09L851.80 670.25L861.98 674.09L864.99 675.76L867.87 677.50L872.12 680.08L875.46 681.56L878.80 683.04L882.92 683.84L885.95 683.68L890.79 685.13L893.49 688.20L896.01 691.59L899.77 697.00L901.36 700.58L902.81 703.73L906.14 706.44L908.86 707.93L912.21 709.81L916.07 712.73L919.16 715.48L923.64 719.12L926.57 720.67L930.35 717.41L940.64 715.48L946.36 714.40L950.16 713.69L952.90 713.17L965.70 710.77L973.22 709.35L969.95 706.08L966.31 701.64L963.28 697.12L961.70 694.35L959.68 690.75L957.12 685.55L955.40 680.72L952.62 672.91L951.68 669.55L950.73 666.19L947.05 656.69L945.90 653.63L942.62 644.95L942.62 641.43L944.89 638.89L946.41 634.60L949.04 627.14L950.95 623.76L954.29 617.82L957.08 612.88L968.29 603.81L975.47 594.15L981.55 584.05L976.56 577.41L971.55 571.96L966.08 566.01L963.21 562.90L950.79 555.25L945.23 550.98L943.19 546.77L942.49 542.23L941.72 537.22L944.38 528.83L946.34 522.62L944.53 516.66L942.72 510.69L940.22 505.37L938.53 501.77L935.98 496.34L933.71 492.73L931.50 489.24L929.51 486.08L927.36 482.66L924.36 481.83L920.69 484.06L916.45 481.69L914.23 478.25L911.77 476.30L908.50 474.06L906.29 472.54L902.56 469.92L900.30 467.29L896.51 466.66L892.10 465.77L885.40 464.40L880.03 463.22L871.37 461.28L865.90 459.83L855.80 458.33L852.16 457.85L847.88 457.06L842.59 455.77L837.84 454.59L835.10 453.90L829.61 450.39L822.59 448.62L819.60 446.51L816.95 444.64L814.14 443.21L811.33 441.79L806.93 440.51L798.45 435.82L790.84 432.40L781.11 430.24L777.89 429.52L768.75 427.64L761.17 426.56L757.33 427.11L751.63 427.09L747.83 426.09L744.53 424.83L742.30 422.86L739.98 420.61L736.07 416.91L733.82 415.46L731.18 411.95L729.27 405.71L727.92 402.27L727.00 399.69L725.06 395.25L722.81 391.79L720.69 388.66L716.75 387.29L712.60 385.11L708.68 381.97L706.26 378.55L704.61 374.30L703.55 370.46L703.21 367.21L703.27 363.26L704.86 359.13Z" data-ward="5" /><path id="ward-13" class="ward" d="M401.16 1203.29L398.08 1201.27L395.80 1199.05L391.81 1199.74L388.82 1200.64L384.41 1201.82L380.77 1202.55L376.59 1203.44L371.75 1203.69L367.59 1203.71L360.30 1205.62L357.69 1205.79L353.84 1206.04L350.44 1206.09L341.19 1206.31L335.61 1207.82L332.41 1208.20L323.86 1209.80L321.03 1210.34L317.20 1210.81L311.45 1212.00L308.50 1212.28L305.61 1211.83L303.05 1211.27L299.12 1209.68L294.03 1207.74L291.00 1207.59L286.99 1210.20L283.74 1212.78L281.77 1214.74L278.62 1219.13L275.83 1223.15L272.63 1226.40L268.66 1228.42L265.16 1229.38L262.56 1229.74L258.46 1230.83L254.66 1231.88L249.81 1233.07L246.89 1232.81L244.72 1231.44L240.44 1229.01L237.56 1228.19L233.56 1227.43L230.66 1226.93L226.33 1226.08L222.07 1225.21L218.23 1224.52L214.38 1223.82L210.37 1223.21L205.36 1223.34L206.44 1228.04L208.50 1231.79L210.51 1235.45L212.49 1239.07L217.05 1247.06L219.39 1251.18L217.29 1253.46L215.13 1255.80L217.36 1258.81L220.68 1263.28L221.01 1266.23L221.35 1269.18L223.10 1275.68L223.78 1281.30L224.24 1285.03L223.60 1288.50L224.05 1293.01L227.07 1296.66L230.41 1300.49L231.36 1304.28L232.88 1307.40L234.26 1310.21L236.46 1313.72L237.74 1316.64L237.88 1320.02L238.09 1325.12L238.22 1331.21L240.72 1335.24L241.75 1338.81L243.23 1344.07L245.35 1346.66L247.69 1349.51L249.51 1352.73L250.99 1355.35L253.09 1358.08L255.69 1361.48L259.68 1366.63L261.26 1369.58L263.09 1373.09L266.95 1376.13L271.61 1378.93L275.83 1381.46L280.07 1384.01L282.28 1385.70L285.85 1388.37L289.50 1391.10L290.37 1395.15L289.44 1398.37L287.80 1400.97L285.20 1402.97L281.74 1405.63L278.11 1408.66L276.11 1410.98L274.14 1413.25L275.20 1416.29L276.40 1419.72L279.85 1422.79L282.50 1425.16L284.55 1426.83L286.33 1429.65L289.91 1432.47L292.20 1434.26L298.06 1435.91L305.36 1436.06L308.03 1436.11L312.27 1436.20L316.58 1436.29L319.84 1437.16L322.56 1438.88L324.86 1441.19L326.44 1443.45L328.71 1450.31L329.43 1455.79L329.22 1458.80L329.00 1461.81L327.50 1466.50L321.16 1471.48L314.44 1476.28L310.03 1480.19L308.95 1485.76L311.80 1488.29L315.17 1489.81L318.86 1491.47L322.96 1492.22L328.04 1492.45L331.75 1493.71L333.81 1497.06L336.29 1501.32L339.48 1505.03L343.07 1509.19L342.50 1512.38L340.79 1516.03L338.93 1520.02L337.92 1525.65L336.82 1531.83L335.53 1537.29L334.78 1540.45L339.08 1542.21L343.81 1539.73L346.68 1539.44L348.95 1536.66L353.39 1535.91L354.47 1533.42L356.69 1530.81L359.52 1529.05L361.88 1527.96L365.22 1526.43L368.17 1523.04L368.28 1520.10L368.06 1516.65L366.95 1513.15L366.55 1509.06L365.93 1504.70L365.85 1502.06L367.27 1497.55L369.38 1493.98L372.66 1491.11L375.69 1489.28L379.19 1487.70L382.97 1485.70L385.28 1483.73L386.49 1479.81L386.29 1475.34L386.19 1470.52L385.76 1466.11L386.00 1462.89L385.50 1459.73L383.17 1451.83L382.33 1449.31L381.28 1445.33L380.12 1441.59L378.69 1437.02L377.87 1433.06L377.56 1429.26L377.08 1426.14L376.23 1423.10L375.24 1419.70L374.58 1416.97L373.80 1413.12L371.59 1411.71L367.90 1409.43L365.64 1407.50L361.52 1403.44L358.21 1399.08L356.84 1396.10L355.16 1391.66L354.43 1388.77L354.36 1383.58L354.10 1380.53L354.06 1377.36L354.14 1374.63L356.19 1370.92L358.04 1369.01L360.15 1366.04L359.21 1362.46L356.48 1359.28L352.27 1355.59L349.75 1353.67L347.72 1351.95L345.38 1348.41L344.46 1345.60L346.25 1342.15L348.72 1340.35L351.85 1339.14L359.00 1336.18L363.25 1334.04L367.73 1331.81L369.74 1330.07L369.79 1327.02L367.68 1324.16L365.68 1322.51L363.71 1319.97L362.26 1317.44L364.74 1312.49L365.92 1309.95L366.27 1306.51L366.16 1303.21L365.26 1300.61L367.51 1297.24L370.33 1294.99L374.02 1292.53L376.95 1291.79L380.07 1292.83L383.55 1294.33L386.18 1294.87L388.98 1295.11L393.49 1294.57L396.34 1293.62L400.13 1292.38L403.49 1291.97L407.64 1292.78L410.89 1294.58L413.78 1296.00L417.49 1296.99L420.30 1297.12L423.94 1297.72L428.64 1298.63L432.20 1299.38L436.49 1299.66L439.98 1298.66L440.38 1301.99L439.90 1305.77L442.10 1307.14L444.59 1308.55L447.28 1310.68L449.68 1312.40L451.71 1314.48L454.14 1316.92L456.42 1318.68L459.16 1320.42L461.82 1321.22L464.50 1322.16L467.73 1323.29L470.48 1322.35L473.40 1321.33L476.18 1320.16L479.00 1318.98L482.58 1318.47L486.21 1317.94L489.76 1316.99L493.12 1315.90L496.15 1315.00L498.54 1313.44L500.19 1311.41L499.69 1305.53L499.15 1301.69L498.93 1297.59L501.70 1296.89L504.41 1296.36L508.80 1295.50L512.87 1294.72L516.21 1294.07L520.36 1293.01L524.85 1291.23L530.15 1288.53L532.60 1286.88L535.26 1284.83L537.84 1283.24L541.84 1280.99L544.84 1279.25L547.96 1277.79L551.38 1276.40L553.88 1275.52L557.03 1272.97L554.87 1270.44L553.40 1268.01L551.99 1264.21L550.54 1259.61L549.56 1257.01L547.82 1253.96L546.26 1251.35L544.49 1248.95L539.99 1244.11L537.80 1242.44L532.81 1237.89L529.90 1235.68L527.67 1234.04L524.88 1231.96L522.38 1230.07L518.49 1227.13L516.19 1225.76L511.36 1222.88L506.54 1220.27L502.79 1218.27L496.39 1215.54L493.96 1214.68L489.67 1213.29L485.83 1211.83L481.50 1210.45L477.41 1209.49L474.23 1208.91L470.16 1208.73L467.11 1208.36L464.17 1208.36L460.69 1208.09L455.93 1207.19L452.44 1206.39L449.39 1204.69L445.44 1202.35L443.29 1200.69L440.95 1203.16L437.41 1203.05L434.31 1203.04L431.34 1203.10L426.33 1203.41L421.03 1203.48L412.69 1203.87L409.06 1204.03L401.16 1203.29Z" data-ward="13" /></svg>