<svg viewBox="0 0 1000.00 969.66" xmlns="http://www.w3.org/2000/svg"><style>.ward { fill: #e2e8f0; stroke: #fff; stroke-width: 0.5px; } .ward:hover { fill: #cbd5e1; }</style><path id="ward-6" class="ward" d="M777.95 483.02L778.30 478.83L776.97 474.71L776.22 469.86L772.63 468.69L771.83 471.79L770.54 474.84L769.90 477.95L767.20 481.54L763.10 485.77L761.18 485.76L754.80 484.95L751.97 484.20L749.60 484.00L748.21 486.16L745.27 490.11L742.32 494.39L739.95 495.76L736.63 498.50L734.07 501.74L733.95 507.62L737.21 509.94L734.60 511.59L732.27 513.10L730.58 514.28L728.82 515.61L724.51 517.96L722.04 523.00L720.00 526.81L718.75 528.35L713.85 530.77L711.38 531.99L707.68 534.12L705.50 535.36L703.48 536.52L701.46 537.67L698.41 539.42L696.53 540.19L694.83 540.91L692.86 541.94L689.72 543.94L688.05 545.35L685.05 547.07L675.65 552.45L669.84 554.23L665.41 555.60L655.39 558.68L652.04 559.71L648.68 560.74L641.99 562.80L638.66 563.82L634.89 564.47L637.44 568.23L639.50 571.38L641.16 575.74L641.97 577.97L643.38 581.73L644.80 585.49L645.58 587.53L646.72 590.30L648.17 593.49L649.61 596.68L651.99 599.10L653.73 601.10L655.94 601.68L658.38 602.06L662.53 604.81L663.94 607.08L665.98 610.39L667.30 615.21L670.49 619.61L674.47 622.58L677.71 622.59L680.80 622.66L684.91 624.77L687.86 628.06L690.03 630.86L691.25 633.78L693.28 638.54L695.94 644.79L698.08 650.01L699.35 653.07L700.41 655.85L701.16 657.64L701.84 659.37L702.56 661.08L703.74 663.83L704.95 666.47L705.82 668.32L706.62 670.09L707.62 674.11L707.81 676.42L708.18 678.32L709.34 682.15L710.34 685.47L710.92 687.49L711.51 689.42L712.55 692.92L713.26 695.27L714.12 697.05L715.27 699.43L716.75 702.47L716.67 704.39L716.48 706.23L714.23 710.90L710.64 711.26L708.38 710.72L703.83 708.40L701.96 709.03L701.87 711.02L702.05 713.68L702.78 718.85L703.28 722.36L700.30 727.05L701.23 730.10L702.04 732.49L702.88 734.95L703.90 737.97L705.07 741.39L705.75 743.39L707.60 748.83L708.54 752.00L711.20 761.24L712.03 764.12L714.19 771.67L715.58 776.75L718.73 788.30L719.36 790.65L721.49 798.63L722.04 800.72L722.58 802.63L723.06 804.60L724.09 808.52L724.60 810.56L724.87 813.98L725.07 816.41L724.61 818.45L724.00 821.08L725.85 827.15L727.58 834.63L730.83 848.70L736.34 864.04L750.81 855.74L755.74 852.91L760.89 851.20L763.57 850.71L765.87 850.30L762.62 843.95L760.58 840.69L758.88 837.97L763.20 830.35L771.75 823.57L774.95 825.69L776.75 826.48L778.49 825.14L780.55 823.88L783.69 825.93L786.49 827.05L789.87 828.41L792.46 828.91L794.52 829.32L797.64 829.41L802.39 823.43L801.78 821.38L799.14 819.72L790.65 814.73L778.99 807.64L777.10 806.90L775.94 804.35L775.18 802.53L775.55 800.41L776.82 791.12L778.34 778.31L776.92 767.47L775.88 761.43L778.64 746.14L782.45 730.65L782.30 726.72L782.54 724.37L779.54 720.09L778.60 718.12L783.54 715.53L792.04 701.84L797.47 698.53L803.35 690.19L803.08 686.80L802.82 683.61L806.76 677.92L809.08 673.51L809.56 670.13L813.17 670.35L817.31 665.58L818.13 663.80L818.96 662.08L814.92 660.51L812.90 657.76L809.48 655.36L809.16 652.89L809.23 650.00L808.03 648.54L803.65 647.17L800.48 645.07L793.10 638.65L786.07 635.07L781.26 632.89L776.15 628.97L771.44 620.10L761.19 609.16L750.82 600.75L744.97 595.90L745.96 586.77L763.58 580.64L766.44 580.31L766.75 582.61L767.45 584.48L769.21 586.04L775.05 585.37L778.14 585.02L781.90 584.59L791.98 583.19L799.98 581.96L807.72 580.78L803.49 566.07L802.28 561.17L797.40 541.46L789.21 520.73L764.38 505.96L775.61 501.29L775.69 497.69L775.98 494.17L776.92 489.89L777.95 483.02Z" data-ward="6" /><path id="ward-11" class="ward" d="M236.47 472.11L233.55 471.48L225.31 475.81L219.52 478.91L212.74 486.04L211.15 488.17L208.20 492.12L207.39 494.48L206.65 496.62L205.87 498.89L205.56 501.49L206.61 503.91L207.42 509.24L207.18 513.47L206.99 517.03L203.21 517.95L200.36 518.64L201.86 525.41L202.79 529.63L204.09 535.76L205.29 541.40L206.92 548.71L201.50 547.79L197.26 547.07L194.97 546.36L190.62 545.01L189.54 546.70L185.60 552.86L177.37 551.62L176.05 553.14L175.49 556.04L175.00 558.52L173.56 565.29L173.25 569.35L172.84 574.66L175.16 580.89L169.78 582.19L148.37 595.86L130.34 607.38L118.80 614.75L116.14 616.34L113.89 617.49L110.95 618.71L108.37 620.03L104.15 622.21L101.75 624.06L100.21 625.23L98.28 626.71L95.57 626.78L92.32 627.69L88.56 629.56L89.59 632.55L94.62 637.95L97.78 641.33L101.38 644.65L106.46 648.59L113.88 653.83L118.01 656.75L120.40 657.92L125.72 660.54L128.10 664.33L131.81 668.58L133.30 670.38L135.81 672.34L138.27 674.79L141.77 678.35L145.03 684.14L146.05 685.94L148.31 686.38L153.73 687.43L156.81 687.89L158.96 690.45L165.30 698.01L166.73 699.45L168.15 700.65L173.36 704.30L175.54 705.83L177.85 706.83L181.41 708.59L184.44 709.89L186.17 711.06L190.37 713.80L192.42 717.17L194.36 720.36L197.62 723.99L200.21 726.88L204.86 728.17L209.73 728.78L213.41 730.34L215.23 731.39L216.59 732.66L219.20 735.10L220.47 738.02L221.09 740.89L221.72 743.77L222.29 746.37L224.92 748.62L230.18 750.63L232.85 753.60L235.49 756.54L237.46 760.92L238.90 764.10L241.84 766.34L243.73 767.95L245.35 769.31L247.81 773.20L250.81 776.62L252.75 779.03L254.24 780.88L257.06 784.39L258.79 785.82L260.81 787.48L263.51 789.09L265.45 791.67L267.04 793.72L268.55 795.83L270.91 794.94L274.60 793.86L278.22 792.82L281.61 790.73L288.68 790.13L289.01 786.56L291.13 782.69L295.45 778.96L297.95 775.10L298.66 773.02L299.71 768.37L319.03 769.37L321.68 769.51L325.56 769.71L329.31 768.32L330.65 760.92L331.39 757.15L334.64 757.34L337.18 757.48L338.80 751.26L324.20 695.70L324.20 692.04L324.24 689.00L321.54 687.93L273.38 572.20L272.63 569.87L268.46 555.93L266.99 545.44L265.55 540.65L263.89 539.18L259.30 535.12L253.05 516.66L252.67 506.07L249.52 493.62L248.90 491.17L247.19 484.34L245.14 476.17L242.89 474.94L240.47 475.36L236.81 475.46L236.47 472.11Z" data-ward="11" /><path id="ward-3" class="ward" d="M606.25 318.97L607.70 317.46L602.85 306.32L596.32 300.70L582.50 292.85L573.96 282.86L570.79 276.23L567.04 270.68L560.12 266.31L554.56 262.36L555.93 274.79L557.10 284.42L557.54 289.36L559.66 298.17L562.22 309.58L563.20 313.83L562.20 322.52L561.51 327.42L550.47 326.20L522.60 319.17L507.67 309.99L501.33 312.02L494.69 314.96L492.01 315.12L489.37 315.39L483.36 314.47L480.80 314.99L479.95 324.21L479.12 333.27L478.07 342.60L477.12 354.62L476.20 368.61L474.89 379.79L473.53 394.33L472.18 407.83L470.90 423.15L469.77 435.95L468.68 446.42L475.43 439.75L493.99 414.73L496.64 411.17L500.98 405.34L504.69 408.36L507.58 411.69L512.50 416.08L516.41 421.82L529.38 430.99L531.52 434.96L536.40 438.86L540.68 442.29L550.38 451.86L552.30 452.77L559.39 449.61L557.47 446.12L556.85 441.46L556.63 436.47L558.77 437.11L563.35 438.49L566.29 438.80L570.79 439.27L577.74 452.12L580.43 456.50L583.29 461.17L596.85 473.02L599.37 475.26L613.68 487.97L626.62 509.99L628.15 512.59L629.68 515.20L632.74 520.41L633.44 537.38L633.70 543.82L633.88 548.20L633.98 550.74L634.08 553.10L634.18 555.43L634.46 562.20L634.89 564.47L638.66 563.82L641.99 562.80L648.68 560.74L652.04 559.71L655.39 558.68L665.41 555.60L669.84 554.23L675.65 552.45L685.05 547.07L688.05 545.35L689.72 543.94L692.86 541.94L694.83 540.91L696.53 540.19L698.41 539.42L701.46 537.67L703.48 536.52L705.50 535.36L707.68 534.12L711.38 531.99L713.85 530.77L718.75 528.35L720.00 526.81L722.04 523.00L724.51 517.96L728.82 515.61L730.58 514.28L732.27 513.10L734.60 511.59L737.21 509.94L733.95 507.62L734.07 501.74L729.57 497.90L728.07 496.03L727.67 493.52L727.50 491.10L727.53 489.17L727.12 486.46L725.89 483.92L725.19 481.74L724.04 479.72L723.40 475.77L721.91 474.15L720.93 471.67L720.84 467.74L721.56 465.97L721.94 464.11L722.02 460.72L721.94 458.46L722.20 456.39L723.05 453.67L723.30 450.53L722.47 447.50L722.00 445.70L721.45 443.52L721.69 441.19L721.64 438.78L720.65 434.92L720.80 431.62L722.48 429.22L723.89 427.96L724.48 425.27L723.04 423.90L720.87 421.89L719.98 419.79L718.12 419.18L716.18 419.21L713.30 419.22L711.16 418.86L708.13 418.73L705.20 418.36L705.44 416.47L707.25 413.13L708.49 410.70L709.99 407.73L710.86 404.84L711.12 401.66L711.20 398.92L711.09 396.35L710.08 393.03L708.78 389.72L708.77 387.28L707.99 385.30L705.84 384.24L703.14 382.95L700.77 381.53L699.85 379.88L698.46 377.29L695.68 375.63L694.00 374.90L692.01 373.62L690.48 372.28L688.59 370.54L686.70 368.80L684.78 366.89L672.84 354.78L678.03 348.96L682.81 346.98L685.60 345.71L689.09 347.00L686.60 343.82L684.30 340.78L674.63 343.14L652.71 348.29L622.86 328.56L606.25 318.97Z" data-ward="3" /><path id="ward-15" class="ward" d="M109.43 224.48L104.52 218.21L99.54 205.78L98.38 198.98L95.72 193.34L92.93 191.35L89.64 185.20L78.80 182.79L75.37 181.10L69.63 179.80L59.77 173.91L56.80 168.95L51.22 163.59L47.91 159.02L40.85 149.20L35.39 144.13L31.65 142.53L28.56 142.49L25.52 146.71L27.08 148.24L29.85 150.96L31.15 159.02L31.97 164.11L37.48 168.38L38.95 171.73L44.56 175.08L50.17 178.43L57.03 183.46L58.25 185.09L60.91 188.60L62.06 193.29L62.63 195.60L62.02 197.76L62.81 200.09L61.82 202.42L61.47 204.69L63.67 209.19L66.53 213.42L68.15 215.83L70.44 218.81L74.51 223.46L76.38 225.23L77.81 226.57L79.26 231.91L81.91 231.12L83.69 230.60L86.15 232.43L87.71 233.65L89.47 236.40L93.51 236.78L96.40 235.74L101.72 239.85L103.91 245.74L105.71 249.08L108.50 251.91L109.62 254.65L110.75 257.43L109.07 261.07L108.63 263.18L108.77 265.66L109.01 269.81L106.81 273.71L104.66 276.36L106.79 279.31L109.61 279.24L111.54 279.20L113.39 283.02L117.12 285.12L118.81 287.18L121.89 288.43L123.79 290.78L125.73 291.70L127.27 292.80L126.14 295.18L127.46 298.61L130.05 300.40L130.83 303.58L133.53 308.61L134.62 310.65L137.87 310.83L138.09 313.60L138.90 316.42L140.28 321.27L142.25 321.66L143.65 325.35L142.79 327.41L143.99 329.16L145.92 331.97L147.84 334.77L149.62 337.36L149.99 339.81L150.35 342.09L149.68 346.16L152.06 347.78L153.99 349.08L155.30 350.57L158.77 351.47L160.87 352.02L162.98 352.57L164.20 355.09L165.11 356.96L166.44 359.71L168.53 361.90L169.82 363.78L172.74 367.48L174.30 369.44L176.27 370.90L177.85 375.67L179.96 378.10L180.22 380.53L180.72 385.17L180.94 387.21L181.24 390.04L181.35 392.49L181.44 394.53L181.69 397.41L182.26 400.96L184.34 402.61L186.05 405.09L193.34 407.26L193.29 412.60L193.60 417.17L193.95 422.21L194.53 426.28L195.24 431.22L195.62 433.80L196.52 437.27L197.18 439.82L197.41 441.72L197.65 443.72L198.12 446.67L198.91 450.23L199.42 452.55L199.55 456.37L192.73 458.74L187.14 460.67L187.94 466.30L190.41 466.35L191.18 470.76L193.77 470.54L196.35 470.31L203.00 470.31L207.96 474.54L213.55 479.31L208.95 486.01L208.71 487.98L208.20 492.12L211.15 488.17L212.74 486.04L219.52 478.91L225.31 475.81L233.55 471.48L234.22 469.55L235.59 466.48L235.70 461.71L235.19 452.24L235.71 447.14L235.90 444.65L236.14 442.22L236.51 437.27L236.70 434.79L236.96 432.41L237.21 430.01L237.42 427.58L237.56 425.24L237.79 422.86L271.05 418.34L279.97 414.38L284.19 411.34L294.70 409.24L297.42 408.14L300.08 406.91L313.43 404.91L315.91 403.59L318.56 402.42L321.91 399.98L325.24 397.88L329.75 396.24L333.03 396.18L336.02 395.88L359.17 391.34L368.13 387.93L376.80 387.20L382.96 387.78L388.04 385.65L395.64 371.97L399.31 365.37L429.79 311.29L431.13 308.91L420.58 301.60L415.69 299.33L381.47 318.80L354.65 333.86L329.08 348.51L316.23 355.81L319.20 349.00L310.25 344.14L307.93 332.16L293.12 328.95L289.60 336.35L288.18 337.71L279.52 336.37L268.98 331.84L255.73 328.03L239.24 331.81L235.99 330.90L219.75 333.10L211.93 320.94L204.83 311.37L200.45 299.21L193.68 288.86L184.78 276.89L182.92 276.93L178.05 278.13L171.81 278.67L165.88 278.47L161.25 276.59L155.33 270.78L151.75 267.27L146.51 262.14L139.03 260.29L130.82 248.79L126.61 241.45L118.55 230.67L109.43 224.48Z" data-ward="15" /><path id="ward-1" class="ward" d="M237.70 8.93L238.05 6.67L234.67 7.86L232.84 9.18L230.39 9.68L228.09 10.14L224.99 11.01L222.33 11.95L219.60 12.24L217.35 12.01L214.23 12.15L211.84 11.99L209.99 13.56L206.82 14.03L204.49 13.72L194.70 13.90L189.41 12.52L175.16 11.60L175.17 20.86L176.05 29.47L175.19 30.69L167.43 33.43L163.67 34.76L162.15 33.06L155.41 35.62L156.79 38.78L158.77 43.34L158.75 47.62L163.90 55.24L167.06 59.91L170.53 65.04L174.49 70.91L171.70 72.00L163.03 74.46L160.20 75.36L153.94 77.35L156.22 82.50L157.70 85.82L158.64 87.94L161.87 87.95L163.48 89.39L164.95 92.90L155.96 98.49L152.71 100.01L144.75 103.61L137.83 107.28L134.75 108.82L129.56 112.42L124.07 116.23L120.74 118.53L107.51 132.52L95.90 144.78L89.50 140.10L81.58 134.31L77.07 129.40L74.38 125.30L72.55 120.17L68.14 116.56L65.17 114.11L63.43 113.47L60.38 112.33L58.18 111.52L54.98 111.45L50.44 111.17L48.19 110.97L43.99 110.04L38.70 109.04L33.56 107.77L30.91 107.83L24.58 108.29L20.45 108.52L17.68 108.67L14.88 108.76L5.51 111.17L0.00 115.57L1.15 117.38L2.62 118.94L3.56 125.17L2.73 133.07L3.87 135.52L5.75 136.52L8.17 137.81L13.49 139.98L15.02 141.63L17.64 142.52L19.78 144.19L25.52 146.71L28.56 142.49L31.65 142.53L35.39 144.13L40.85 149.20L47.91 159.02L51.22 163.59L56.80 168.95L59.77 173.91L69.63 179.80L75.37 181.10L78.80 182.79L89.64 185.20L92.93 191.35L95.72 193.34L98.38 198.98L99.54 205.78L104.52 218.21L109.43 224.48L118.55 230.67L126.61 241.45L130.82 248.79L139.03 260.29L146.51 262.14L151.75 267.27L155.33 270.78L161.25 276.59L165.88 278.47L171.81 278.67L178.05 278.13L182.92 276.93L184.78 276.89L193.68 288.86L200.45 299.21L204.83 311.37L211.93 320.94L219.75 333.10L235.99 330.90L239.24 331.81L255.73 328.03L268.98 331.84L279.52 336.37L288.18 337.71L289.60 336.35L293.12 328.95L307.93 332.16L310.25 344.14L319.20 349.00L316.23 355.81L329.08 348.51L354.65 333.86L381.47 318.80L415.69 299.33L412.63 296.09L398.83 286.53L356.95 259.56L344.61 251.63L304.43 225.78L301.55 226.88L296.32 228.87L291.52 231.18L288.52 233.09L287.76 242.06L288.18 245.59L286.03 248.42L280.37 248.47L280.13 253.56L280.66 256.17L281.58 260.64L280.99 263.98L278.47 266.29L272.60 269.83L270.69 273.60L270.31 275.73L270.54 282.71L269.61 286.07L266.60 287.49L256.82 286.09L251.88 274.53L249.20 267.58L246.19 256.00L248.04 248.17L246.67 242.14L245.72 237.99L245.42 235.44L244.71 229.49L239.94 217.00L231.61 192.58L220.72 155.39L219.19 152.79L221.54 151.08L223.63 149.33L226.48 145.97L227.97 141.75L227.34 138.03L225.79 133.69L225.00 128.16L218.21 118.94L212.59 103.06L216.00 90.03L224.43 84.52L227.34 72.31L228.82 66.05L229.69 57.20L230.75 48.64L232.88 39.33L234.12 33.19L234.61 30.76L235.51 24.49L236.10 20.40L236.40 17.83L236.90 13.51L237.70 8.93Z" data-ward="1" /><path id="ward-5" class="ward" d="M855.96 434.13L851.77 430.31L848.13 426.86L845.59 423.73L843.62 418.82L843.17 414.77L843.68 407.98L841.63 397.54L834.70 402.42L830.21 407.65L827.73 410.39L825.52 414.37L827.61 416.13L830.76 418.79L846.85 438.73L853.16 444.64L861.30 451.86L864.75 454.91L863.54 457.74L862.50 462.80L864.59 466.46L868.29 470.51L878.02 480.06L875.07 485.07L875.10 492.71L875.54 496.06L874.96 500.07L874.56 502.04L866.45 503.52L860.46 506.50L814.79 483.53L813.90 474.87L811.39 469.53L810.08 466.74L803.11 467.53L800.94 468.19L797.52 468.50L797.69 471.62L798.52 474.78L798.90 477.51L798.96 480.76L797.01 481.11L793.81 482.91L791.68 485.26L787.98 489.67L785.04 492.11L781.46 494.84L775.69 497.69L775.61 501.29L764.38 505.96L789.21 520.73L797.40 541.46L802.28 561.17L803.49 566.07L807.72 580.78L799.98 581.96L791.98 583.19L781.90 584.59L778.14 585.02L775.05 585.37L769.21 586.04L767.45 584.48L766.75 582.61L766.44 580.31L763.58 580.64L745.96 586.77L744.97 595.90L750.82 600.75L761.19 609.16L771.44 620.10L776.15 628.97L781.26 632.89L786.07 635.07L793.10 638.65L800.48 645.07L803.65 647.17L808.03 648.54L809.23 650.00L809.16 652.89L809.48 655.36L812.90 657.76L814.92 660.51L818.96 662.08L818.13 663.80L817.31 665.58L813.17 670.35L809.56 670.13L809.08 673.51L806.76 677.92L802.82 683.61L803.08 686.80L803.35 690.19L797.47 698.53L792.04 701.84L783.54 715.53L778.60 718.12L779.54 720.09L782.54 724.37L782.30 726.72L782.45 730.65L778.64 746.14L775.88 761.43L776.92 767.47L778.34 778.31L776.82 791.12L775.55 800.41L775.18 802.53L775.94 804.35L777.10 806.90L778.99 807.64L790.65 814.73L799.14 819.72L801.78 821.38L802.39 823.43L811.22 818.20L813.46 816.20L816.04 812.51L817.34 810.63L819.71 805.56L821.10 802.12L821.50 800.17L822.05 797.49L822.80 793.80L824.33 789.36L826.06 784.29L828.50 779.05L830.82 774.04L832.69 770.03L840.01 767.43L846.20 764.95L852.63 762.36L859.78 759.50L866.31 758.75L875.74 757.67L882.14 756.93L889.67 753.67L899.73 748.93L902.80 747.38L914.97 739.68L918.24 739.59L924.33 739.43L926.16 740.22L929.30 741.58L934.35 743.77L935.90 745.57L938.88 749.04L940.97 751.46L943.69 750.84L945.52 749.06L948.01 748.90L949.43 746.12L952.52 743.42L955.09 741.27L958.43 738.46L960.43 744.06L963.66 747.50L967.44 751.53L970.49 754.78L976.68 761.37L979.94 765.43L983.68 770.08L988.07 773.60L990.22 773.98L990.18 775.97L990.14 778.57L991.64 784.38L993.82 785.65L995.69 786.74L999.01 785.49L1000.00 784.09L999.16 774.76L998.38 770.82L997.70 767.39L996.62 762.36L996.11 759.95L995.33 756.92L993.52 749.77L990.80 739.02L989.90 734.90L988.69 729.40L987.15 722.34L986.44 719.71L985.98 715.17L984.86 706.60L983.61 697.03L982.56 688.93L968.42 667.63L959.10 654.44L955.09 638.07L954.35 634.85L953.85 632.67L952.85 628.31L952.02 625.93L950.71 621.99L949.74 618.16L949.47 616.28L949.05 613.38L950.61 608.25L951.59 605.02L952.86 599.70L950.88 596.96L948.87 594.32L945.95 589.33L945.06 587.19L943.52 583.49L933.97 560.52L933.79 557.99L933.58 554.90L933.37 551.87L933.16 548.93L933.00 546.56L932.59 540.70L932.23 535.44L931.87 530.27L933.90 518.88L932.36 514.30L931.90 512.48L929.75 509.52L924.26 502.01L918.23 490.10L916.27 484.94L913.42 480.75L910.76 479.26L909.12 475.38L906.33 470.71L904.46 465.96L903.73 463.95L901.78 458.40L891.37 441.69L886.37 435.60L882.70 430.91L880.51 427.91L876.25 432.79L867.86 436.34L861.61 437.03L855.96 434.13Z" data-ward="5" /><path id="ward-7" class="ward" d="M509.94 556.47L505.15 553.89L500.42 550.23L495.91 545.96L491.70 545.10L487.08 542.99L483.76 540.68L480.84 537.33L477.19 536.81L472.20 536.53L468.38 536.68L465.19 536.95L463.25 537.17L461.03 537.53L457.08 538.67L454.40 540.06L455.83 542.53L458.47 548.68L457.05 551.01L446.81 560.49L446.96 563.69L448.12 570.76L449.32 573.63L453.54 584.34L454.60 588.01L456.42 594.35L459.37 604.33L458.83 607.17L462.17 618.59L467.76 618.80L478.07 616.83L492.57 630.80L515.54 666.74L528.64 673.64L542.05 693.32L546.08 704.92L549.07 706.16L548.10 714.29L550.12 714.45L553.18 714.67L559.31 715.62L564.99 725.15L565.74 728.60L566.64 730.33L568.39 733.74L568.88 736.37L566.87 737.27L564.71 738.23L561.30 741.43L559.33 747.97L559.32 750.10L559.51 755.45L558.29 759.85L567.75 760.67L570.03 765.62L572.62 767.29L580.74 765.57L583.21 765.05L587.03 767.51L590.60 773.28L593.75 777.38L598.95 781.68L601.51 779.04L604.97 774.48L607.54 774.07L611.26 775.13L614.39 775.48L617.74 779.95L622.51 786.30L623.74 789.35L626.38 785.43L629.17 784.41L632.53 783.18L637.69 785.93L638.90 788.29L642.39 790.60L643.98 791.65L645.70 805.78L648.28 806.63L653.54 807.73L651.67 814.43L651.31 816.41L653.23 816.24L655.34 816.06L659.67 815.59L663.54 815.46L665.84 815.37L671.87 812.06L676.21 809.68L680.99 809.44L682.85 809.34L685.44 809.07L690.07 808.57L693.43 816.58L694.15 818.77L694.48 821.02L695.25 826.22L724.00 821.08L724.61 818.45L725.07 816.41L724.87 813.98L724.60 810.56L724.09 808.52L723.06 804.60L722.58 802.63L722.04 800.72L721.49 798.63L719.36 790.65L718.73 788.30L715.58 776.75L714.19 771.67L712.03 764.12L711.20 761.24L708.54 752.00L707.60 748.83L705.75 743.39L705.07 741.39L703.90 737.97L702.88 734.95L702.04 732.49L701.23 730.10L700.30 727.05L703.28 722.36L702.78 718.85L702.05 713.68L701.87 711.02L701.96 709.03L703.83 708.40L708.38 710.72L710.64 711.26L714.23 710.90L716.48 706.23L716.67 704.39L716.75 702.47L715.27 699.43L714.12 697.05L713.26 695.27L712.55 692.92L711.51 689.42L710.92 687.49L710.34 685.47L709.34 682.15L708.18 678.32L707.81 676.42L707.62 674.11L706.62 670.09L705.82 668.32L704.95 666.47L703.74 663.83L702.56 661.08L701.84 659.37L701.16 657.64L700.41 655.85L699.35 653.07L698.08 650.01L695.94 644.79L693.28 638.54L691.25 633.78L690.03 630.86L687.86 628.06L684.91 624.77L680.80 622.66L677.71 622.59L674.47 622.58L670.49 619.61L667.30 615.21L665.98 610.39L663.94 607.08L662.53 604.81L658.38 602.06L655.94 601.68L653.73 601.10L651.99 599.10L649.61 596.68L648.17 593.49L646.72 590.30L645.58 587.53L644.80 585.49L643.38 581.73L641.97 577.97L641.16 575.74L639.50 571.38L637.44 568.23L634.89 564.47L630.03 564.41L627.07 564.62L623.90 564.75L619.35 566.24L612.92 568.38L605.64 568.17L582.07 575.71L579.40 575.81L573.09 577.79L572.16 582.66L570.01 585.18L567.88 586.32L564.89 584.41L560.81 582.59L554.85 579.86L552.85 578.82L549.29 575.57L547.70 573.44L546.88 571.44L545.78 568.46L544.66 566.75L543.60 564.78L542.36 563.38L541.08 561.97L540.03 560.46L538.48 559.16L536.71 558.08L533.62 555.74L530.88 553.55L528.78 552.31L526.09 550.79L524.20 552.27L522.39 554.05L520.23 556.16L517.19 557.28L514.54 558.24L509.94 556.47Z" data-ward="7" /><path id="ward-4" class="ward" d="M694.65 274.12L690.66 272.95L683.08 270.63L674.12 269.39L665.16 265.37L656.04 262.90L638.12 260.61L612.87 312.08L611.61 313.43L607.70 317.46L606.25 318.97L622.86 328.56L652.71 348.29L674.63 343.14L684.30 340.78L686.60 343.82L689.09 347.00L685.60 345.71L682.81 346.98L678.03 348.96L672.84 354.78L684.78 366.89L686.70 368.80L688.59 370.54L690.48 372.28L692.01 373.62L694.00 374.90L695.68 375.63L698.46 377.29L699.85 379.88L700.77 381.53L703.14 382.95L705.84 384.24L707.99 385.30L708.77 387.28L708.78 389.72L710.08 393.03L711.09 396.35L711.20 398.92L711.12 401.66L710.86 404.84L709.99 407.73L708.49 410.70L707.25 413.13L705.44 416.47L705.20 418.36L708.13 418.73L711.16 418.86L713.30 419.22L716.18 419.21L718.12 419.18L719.98 419.79L720.87 421.89L723.04 423.90L724.48 425.27L723.89 427.96L722.48 429.22L720.80 431.62L720.65 434.92L721.64 438.78L721.69 441.19L721.45 443.52L722.00 445.70L722.47 447.50L723.30 450.53L723.05 453.67L722.20 456.39L721.94 458.46L722.02 460.72L721.94 464.11L721.56 465.97L720.84 467.74L720.93 471.67L721.91 474.15L723.40 475.77L724.04 479.72L725.19 481.74L725.89 483.92L727.12 486.46L727.53 489.17L727.50 491.10L727.67 493.52L728.07 496.03L729.57 497.90L734.07 501.74L736.63 498.50L739.95 495.76L742.32 494.39L745.27 490.11L748.21 486.16L749.60 484.00L751.97 484.20L754.80 484.95L761.18 485.76L763.10 485.77L767.20 481.54L769.90 477.95L770.54 474.84L771.83 471.79L772.63 468.69L776.22 469.86L776.97 474.71L778.30 478.83L777.95 483.02L776.92 489.89L775.98 494.17L775.69 497.69L781.46 494.84L785.04 492.11L787.98 489.67L791.68 485.26L793.81 482.91L797.01 481.11L798.96 480.76L798.90 477.51L798.52 474.78L797.69 471.62L797.52 468.50L800.94 468.19L803.11 467.53L810.08 466.74L811.39 469.53L813.90 474.87L814.79 483.53L860.46 506.50L866.45 503.52L874.56 502.04L874.96 500.07L875.54 496.06L875.10 492.71L875.07 485.07L878.02 480.06L868.29 470.51L864.59 466.46L862.50 462.80L863.54 457.74L864.75 454.91L861.30 451.86L853.16 444.64L846.85 438.73L830.76 418.79L827.61 416.13L825.52 414.37L827.73 410.39L830.21 407.65L834.70 402.42L841.63 397.54L843.68 407.98L843.17 414.77L843.62 418.82L845.59 423.73L848.13 426.86L851.77 430.31L855.96 434.13L861.61 437.03L867.86 436.34L876.25 432.79L880.51 427.91L882.70 430.91L886.37 435.60L891.37 441.69L901.78 458.40L903.73 463.95L904.46 465.96L906.33 470.71L909.12 475.38L910.76 479.26L913.42 480.75L916.27 484.94L918.23 490.10L924.26 502.01L929.75 509.52L931.90 512.48L932.36 514.30L933.90 518.88L936.40 515.50L938.51 510.13L939.29 508.20L941.14 503.61L943.15 501.21L946.49 497.23L947.90 494.70L951.52 488.22L954.04 481.98L955.27 478.60L955.62 475.23L956.11 467.84L950.12 460.39L948.33 456.56L946.56 452.74L945.25 447.63L943.25 439.79L944.20 436.41L945.54 431.44L945.48 428.59L945.36 423.01L944.42 419.22L943.71 416.36L943.17 411.85L941.60 409.19L941.14 406.57L939.86 403.47L939.47 400.22L939.21 398.07L938.48 392.00L938.75 387.72L939.04 383.02L939.19 380.61L938.22 375.64L937.81 373.58L935.52 370.08L934.00 367.77L932.46 365.42L930.28 367.04L922.59 361.82L916.30 360.15L911.69 361.69L906.74 360.75L900.92 366.17L899.12 366.65L896.60 366.34L885.06 364.99L880.67 361.34L876.19 356.22L871.00 352.57L868.86 351.71L866.66 351.79L863.00 350.45L853.88 345.24L851.66 344.38L849.88 341.57L845.88 340.22L843.82 337.41L840.08 334.66L833.98 328.35L823.93 328.21L821.21 328.89L817.96 328.89L809.45 327.66L804.79 328.14L798.48 321.09L791.75 319.70L791.14 316.88L789.86 314.50L787.77 311.71L785.65 310.30L784.61 307.34L782.06 306.29L780.46 304.88L778.91 303.38L772.63 299.46L768.82 295.71L767.39 293.51L764.53 290.46L754.13 291.03L749.26 287.98L746.30 287.22L739.52 281.39L732.02 276.34L729.10 274.71L723.53 271.71L719.43 267.55L717.65 269.32L710.55 271.22L705.90 272.20L707.06 274.95L703.15 275.69L698.23 277.12L694.65 274.12Z" data-ward="4" /><path id="ward-10" class="ward" d="M329.31 768.32L325.56 769.71L321.68 769.51L319.03 769.37L299.71 768.37L298.66 773.02L297.95 775.10L295.45 778.96L291.13 782.69L289.01 786.56L288.68 790.13L281.61 790.73L278.22 792.82L274.60 793.86L270.91 794.94L268.55 795.83L268.63 798.05L268.69 799.95L269.93 802.02L271.37 804.45L274.34 805.55L276.94 804.95L279.70 804.31L281.71 804.41L283.47 804.97L284.95 807.40L284.20 810.81L283.71 813.04L283.85 815.46L285.72 816.65L288.97 816.67L290.77 817.11L294.14 818.15L297.18 820.95L297.92 823.43L297.57 827.09L298.36 829.66L299.83 830.77L302.60 832.86L304.64 834.40L308.07 836.02L312.02 836.58L315.02 836.44L317.34 837.03L319.20 838.33L321.92 840.22L323.77 843.81L324.77 845.77L327.86 848.73L329.55 850.45L331.24 852.16L332.81 854.38L334.10 856.07L335.78 858.65L337.21 859.94L339.01 861.55L339.56 864.75L339.12 868.66L340.90 871.23L342.72 872.83L344.23 874.16L346.36 876.02L344.69 878.48L342.66 881.47L345.51 883.89L349.15 884.06L352.50 884.22L355.80 883.90L359.06 884.92L362.01 886.66L364.04 887.85L366.48 888.76L368.92 890.76L372.08 892.20L374.67 893.91L378.84 894.48L381.01 894.91L384.64 895.63L388.74 898.58L393.23 901.81L395.52 900.88L399.19 904.35L401.13 906.18L405.58 909.77L409.24 912.71L413.94 917.44L415.82 919.75L418.36 920.02L420.78 918.44L425.11 918.79L430.61 919.24L433.50 917.90L438.49 923.32L440.82 924.03L443.45 924.82L447.11 924.84L450.84 925.40L453.39 926.96L455.65 928.33L458.34 927.88L461.31 928.92L463.45 931.57L465.43 937.26L468.17 939.46L471.02 941.29L472.68 942.35L476.07 942.08L480.10 941.88L483.38 942.17L485.25 942.64L488.15 944.03L490.63 946.80L494.17 946.65L495.79 949.32L497.69 952.08L499.92 952.89L504.00 954.40L506.13 956.27L507.71 957.64L511.40 958.10L514.39 958.47L520.30 959.20L523.57 959.62L524.90 961.25L525.65 963.27L527.02 966.99L528.32 968.37L530.71 969.66L532.82 969.16L534.11 967.58L535.37 964.86L536.16 963.15L536.98 961.24L538.03 958.77L537.82 956.61L537.63 954.75L538.36 948.89L540.09 943.15L541.29 940.93L543.45 941.53L545.60 942.13L545.05 937.64L545.14 935.33L544.61 932.64L543.99 930.70L542.45 927.58L539.57 923.61L537.62 920.84L532.92 914.12L531.72 911.40L530.65 908.97L527.98 902.89L525.90 900.99L523.71 896.35L522.00 894.60L519.76 894.60L517.44 895.46L508.13 862.97L505.72 850.21L508.07 845.97L506.63 840.81L504.91 834.65L502.08 824.50L501.21 821.38L492.98 819.34L489.62 818.51L484.34 815.79L483.34 813.74L476.23 814.27L473.00 816.99L469.16 816.54L464.62 809.76L462.62 810.93L462.03 812.82L461.25 814.76L456.55 819.80L456.62 822.90L457.80 825.70L462.14 831.12L462.26 833.34L460.27 833.48L452.91 832.87L447.62 831.67L445.20 831.09L443.01 830.57L436.80 826.70L436.12 830.20L435.67 832.36L434.74 835.19L432.68 835.59L430.73 836.24L427.63 837.78L427.99 840.29L429.44 843.78L431.24 846.97L432.44 848.65L433.49 850.28L435.15 851.46L437.00 851.95L439.06 852.22L442.97 862.10L443.29 865.02L444.84 868.83L442.37 869.82L441.41 871.67L442.24 878.78L442.76 883.20L444.42 889.56L447.19 896.96L448.60 901.57L449.18 903.41L448.94 907.30L448.48 909.19L446.51 913.09L442.46 912.79L438.39 912.02L436.63 911.43L434.49 910.73L430.28 909.52L430.14 906.97L428.41 905.42L424.25 903.73L421.59 902.96L418.71 903.38L414.99 905.00L413.03 905.29L410.86 904.53L408.63 903.29L407.79 901.57L406.46 898.72L405.50 896.84L403.50 893.18L402.47 891.21L400.33 887.16L399.51 885.35L396.85 879.40L395.77 876.95L394.91 875.01L393.97 872.90L392.96 870.57L391.87 868.06L390.51 863.55L388.18 861.93L385.86 863.11L383.97 864.08L379.28 865.57L375.73 866.31L374.86 861.29L374.13 854.76L370.63 844.76L369.76 838.68L371.12 837.33L371.51 832.63L371.26 829.83L371.00 826.97L370.83 825.09L370.13 819.01L368.55 817.80L365.50 815.46L364.66 802.62L362.49 802.84L359.55 803.06L357.19 802.91L353.96 800.81L352.80 799.14L353.06 795.70L352.62 792.43L350.88 789.58L348.63 788.81L345.18 788.51L342.31 788.66L338.52 790.03L336.43 791.13L333.29 789.66L332.85 787.83L332.18 785.52L331.38 781.19L331.05 776.44L329.96 770.76L329.31 768.32Z" data-ward="10" /><path id="ward-8" class="ward" d="M478.07 616.83L467.76 618.80L462.17 618.59L466.75 637.60L472.99 649.18L475.23 653.37L476.87 657.33L486.27 680.20L486.36 684.01L487.06 686.43L488.21 688.19L489.05 690.59L488.69 693.86L482.86 696.78L482.26 699.78L483.07 704.53L483.97 706.98L485.58 716.27L485.44 721.20L485.52 724.26L485.42 726.41L483.23 730.63L483.36 735.24L483.86 741.26L484.26 744.84L485.52 749.44L486.20 754.40L485.73 756.21L484.99 758.55L483.54 761.62L483.01 763.54L482.70 766.46L477.29 767.23L472.00 768.32L470.34 769.36L467.17 771.40L465.61 772.95L463.81 775.32L462.81 778.30L463.36 781.45L463.89 783.30L468.17 789.26L469.72 791.20L470.56 796.94L471.93 802.97L472.44 805.78L473.37 812.74L473.00 816.99L476.23 814.27L483.34 813.74L484.34 815.79L489.62 818.51L492.98 819.34L501.21 821.38L502.08 824.50L504.91 834.65L506.63 840.81L508.07 845.97L505.72 850.21L508.13 862.97L517.44 895.46L519.76 894.60L522.00 894.60L521.21 892.29L519.41 888.85L519.01 886.89L523.30 881.44L527.15 879.30L532.58 877.59L538.47 876.09L540.08 877.35L545.98 882.10L548.65 884.88L550.11 886.41L551.91 887.63L554.23 888.89L556.76 887.55L559.12 884.26L564.21 877.92L566.54 875.63L569.57 876.37L573.33 878.36L577.83 881.36L580.60 883.17L583.92 885.33L586.40 886.92L589.13 889.85L590.67 893.67L591.23 895.61L592.56 900.17L596.06 896.76L597.62 895.59L601.00 897.04L604.01 897.52L607.14 898.02L612.48 898.58L617.90 898.25L623.26 897.62L626.51 895.94L628.41 894.96L629.76 893.21L631.68 893.14L634.71 890.62L636.88 890.02L637.73 886.95L637.62 884.95L638.18 883.07L638.74 881.20L639.85 878.52L640.90 876.89L641.14 873.82L640.07 871.25L638.88 869.39L640.52 865.91L637.98 862.97L636.69 861.49L636.47 859.65L639.72 856.74L637.49 853.15L635.90 849.14L642.97 844.80L644.68 842.33L646.41 838.77L647.53 836.48L647.76 833.88L648.05 830.54L650.65 828.57L653.32 826.55L652.37 821.79L651.87 819.26L651.31 816.41L651.67 814.43L653.54 807.73L648.28 806.63L645.70 805.78L643.98 791.65L642.39 790.60L638.90 788.29L637.69 785.93L632.53 783.18L629.17 784.41L626.38 785.43L623.74 789.35L622.51 786.30L617.74 779.95L614.39 775.48L611.26 775.13L607.54 774.07L604.97 774.48L601.51 779.04L598.95 781.68L593.75 777.38L590.60 773.28L587.03 767.51L583.21 765.05L580.74 765.57L572.62 767.29L570.03 765.62L567.75 760.67L558.29 759.85L559.51 755.45L559.32 750.10L559.33 747.97L561.30 741.43L564.71 738.23L566.87 737.27L568.88 736.37L568.39 733.74L566.64 730.33L565.74 728.60L564.99 725.15L559.31 715.62L553.18 714.67L550.12 714.45L548.10 714.29L549.07 706.16L546.08 704.92L542.05 693.32L528.64 673.64L515.54 666.74L492.57 630.80L478.07 616.83Z" data-ward="8" /><path id="ward-14" class="ward" d="M408.84 387.42L412.66 387.07L416.42 384.58L420.86 381.03L430.90 374.99L424.82 359.82L418.07 352.11L417.26 349.84L420.27 344.73L428.33 331.60L430.86 317.79L429.79 311.29L399.31 365.37L395.64 371.97L388.04 385.65L382.96 387.78L376.80 387.20L368.13 387.93L359.17 391.34L336.02 395.88L333.03 396.18L329.75 396.24L325.24 397.88L321.91 399.98L318.56 402.42L315.91 403.59L313.43 404.91L300.08 406.91L297.42 408.14L294.70 409.24L284.19 411.34L279.97 414.38L271.05 418.34L237.79 422.86L237.56 425.24L237.42 427.58L237.21 430.01L236.96 432.41L236.70 434.79L236.51 437.27L236.14 442.22L235.90 444.65L235.71 447.14L235.19 452.24L235.70 461.71L235.59 466.48L234.22 469.55L233.55 471.48L236.47 472.11L236.81 475.46L240.47 475.36L242.89 474.94L245.14 476.17L247.19 484.34L248.90 491.17L249.52 493.62L252.67 506.07L253.05 516.66L259.30 535.12L263.89 539.18L265.55 540.65L266.99 545.44L268.46 555.93L272.63 569.87L273.38 572.20L275.99 573.17L281.02 575.57L285.03 577.50L286.55 579.72L287.28 581.58L288.10 584.28L288.77 586.17L289.73 588.81L291.18 592.80L292.26 596.23L293.17 597.93L297.82 597.43L302.74 596.97L305.41 596.64L307.30 596.16L311.29 595.58L315.41 595.24L319.03 594.89L322.30 595.41L324.46 595.60L327.50 595.96L331.14 595.87L333.77 595.90L336.44 594.83L340.80 593.03L342.54 592.39L344.73 591.67L347.03 590.51L349.77 589.42L352.35 586.77L358.42 583.62L364.09 580.71L358.28 573.00L355.67 567.34L353.26 564.38L352.28 560.28L348.60 548.84L345.04 546.67L338.83 534.33L335.77 531.41L331.89 527.78L333.27 523.94L331.68 519.24L329.11 511.39L327.66 505.95L325.87 500.91L323.02 495.16L320.50 491.08L317.78 482.99L317.48 475.03L316.72 465.14L318.99 464.02L324.59 461.27L331.28 458.42L339.66 455.39L347.52 450.74L353.10 448.98L355.68 451.95L359.99 456.15L364.53 459.25L369.13 461.24L375.64 465.08L382.71 464.25L388.20 462.36L393.63 458.17L396.72 455.92L399.14 453.27L404.60 446.34L407.47 445.63L411.27 443.71L410.24 439.94L409.39 431.34L415.98 426.23L412.06 416.01L402.61 403.49L402.12 401.03L400.74 399.12L398.72 396.34L397.58 392.84L398.55 389.43L401.66 388.09L404.80 387.80L408.84 387.42Z" data-ward="14" /><path id="ward-13" class="ward" d="M440.91 312.80L437.58 311.55L431.13 308.91L429.79 311.29L430.86 317.79L428.33 331.60L420.27 344.73L417.26 349.84L418.07 352.11L424.82 359.82L430.90 374.99L420.86 381.03L416.42 384.58L412.66 387.07L408.84 387.42L404.80 387.80L401.66 388.09L398.55 389.43L397.58 392.84L398.72 396.34L400.74 399.12L402.12 401.03L402.61 403.49L412.06 416.01L415.98 426.23L409.39 431.34L410.24 439.94L411.27 443.71L407.47 445.63L404.60 446.34L399.14 453.27L396.72 455.92L393.63 458.17L388.20 462.36L382.71 464.25L375.64 465.08L369.13 461.24L364.53 459.25L359.99 456.15L355.68 451.95L353.10 448.98L347.52 450.74L339.66 455.39L331.28 458.42L324.59 461.27L318.99 464.02L316.72 465.14L317.48 475.03L317.78 482.99L320.50 491.08L323.02 495.16L325.87 500.91L327.66 505.95L329.11 511.39L331.68 519.24L333.27 523.94L331.89 527.78L335.77 531.41L338.83 534.33L345.04 546.67L348.60 548.84L352.28 560.28L353.26 564.38L355.67 567.34L358.28 573.00L364.09 580.71L385.89 579.90L388.05 582.90L391.26 583.20L398.26 580.26L400.71 579.23L405.16 579.16L407.30 579.57L414.00 581.15L424.68 580.81L431.37 580.94L433.60 581.06L439.39 580.53L438.16 572.68L442.80 571.65L445.88 570.97L448.12 570.76L446.96 563.69L446.81 560.49L457.05 551.01L458.47 548.68L455.83 542.53L454.40 540.06L457.08 538.67L461.03 537.53L463.25 537.17L465.19 536.95L468.38 536.68L472.20 536.53L477.19 536.81L480.84 537.33L483.76 540.68L487.08 542.99L491.70 545.10L495.91 545.96L500.42 550.23L505.15 553.89L509.94 556.47L514.54 558.24L517.19 557.28L520.23 556.16L522.39 554.05L524.20 552.27L526.09 550.79L528.78 552.31L530.88 553.55L533.62 555.74L536.71 558.08L538.48 559.16L540.03 560.46L541.08 561.97L542.36 563.38L543.60 564.78L544.66 566.75L545.78 568.46L546.88 571.44L547.70 573.44L549.29 575.57L552.85 578.82L554.85 579.86L560.81 582.59L564.89 584.41L567.88 586.32L570.01 585.18L572.16 582.66L573.09 577.79L579.40 575.81L582.07 575.71L605.64 568.17L612.92 568.38L619.35 566.24L623.90 564.75L627.07 564.62L630.03 564.41L634.89 564.47L634.46 562.20L634.18 555.43L634.08 553.10L633.98 550.74L633.88 548.20L633.70 543.82L633.44 537.38L632.74 520.41L629.68 515.20L628.15 512.59L626.62 509.99L613.68 487.97L599.37 475.26L596.85 473.02L583.29 461.17L580.43 456.50L577.74 452.12L570.79 439.27L566.29 438.80L563.35 438.49L558.77 437.11L556.63 436.47L556.85 441.46L557.47 446.12L559.39 449.61L552.30 452.77L550.38 451.86L540.68 442.29L536.40 438.86L531.52 434.96L529.38 430.99L516.41 421.82L512.50 416.08L507.58 411.69L504.69 408.36L500.98 405.34L496.64 411.17L493.99 414.73L475.43 439.75L468.68 446.42L469.77 435.95L470.90 423.15L472.18 407.83L473.53 394.33L474.89 379.79L476.20 368.61L477.12 354.62L478.07 342.60L479.12 333.27L479.95 324.21L480.80 314.99L458.03 317.67L440.91 312.80Z" data-ward="13" /><path id="ward-9" class="ward" d="M351.59 691.63L347.25 684.21L344.87 683.52L342.38 681.53L338.60 678.44L336.33 678.66L332.77 679.33L330.71 680.60L329.31 682.69L328.36 684.70L325.69 686.72L324.24 689.00L324.20 692.04L324.20 695.70L338.80 751.26L337.18 757.48L334.64 757.34L331.39 757.15L330.65 760.92L329.31 768.32L329.96 770.76L331.05 776.44L331.38 781.19L332.18 785.52L332.85 787.83L333.29 789.66L336.43 791.13L338.52 790.03L342.31 788.66L345.18 788.51L348.63 788.81L350.88 789.58L352.62 792.43L353.06 795.70L352.80 799.14L353.96 800.81L357.19 802.91L359.55 803.06L362.49 802.84L364.66 802.62L365.50 815.46L368.55 817.80L370.13 819.01L370.83 825.09L371.00 826.97L371.26 829.83L371.51 832.63L371.12 837.33L369.76 838.68L370.63 844.76L374.13 854.76L374.86 861.29L375.73 866.31L379.28 865.57L383.97 864.08L385.86 863.11L388.18 861.93L390.51 863.55L391.87 868.06L392.96 870.57L393.97 872.90L394.91 875.01L395.77 876.95L396.85 879.40L399.51 885.35L400.33 887.16L402.47 891.21L403.50 893.18L405.50 896.84L406.46 898.72L407.79 901.57L408.63 903.29L410.86 904.53L413.03 905.29L414.99 905.00L418.71 903.38L421.59 902.96L424.25 903.73L428.41 905.42L430.14 906.97L430.28 909.52L434.49 910.73L436.63 911.43L438.39 912.02L442.46 912.79L446.51 913.09L448.48 909.19L448.94 907.30L449.18 903.41L448.60 901.57L447.19 896.96L444.42 889.56L442.76 883.20L442.24 878.78L441.41 871.67L442.37 869.82L444.84 868.83L443.29 865.02L442.97 862.10L439.06 852.22L437.00 851.95L435.15 851.46L433.49 850.28L432.44 848.65L431.24 846.97L429.44 843.78L427.99 840.29L427.63 837.78L430.73 836.24L432.68 835.59L434.74 835.19L435.67 832.36L436.12 830.20L436.80 826.70L443.01 830.57L445.20 831.09L447.62 831.67L452.91 832.87L460.27 833.48L462.26 833.34L462.14 831.12L457.80 825.70L456.62 822.90L456.55 819.80L461.25 814.76L462.03 812.82L462.62 810.93L464.62 809.76L469.16 816.54L473.00 816.99L473.37 812.74L472.44 805.78L471.93 802.97L470.56 796.94L469.72 791.20L468.17 789.26L463.89 783.30L463.36 781.45L462.81 778.30L463.81 775.32L465.61 772.95L467.17 771.40L470.34 769.36L472.00 768.32L477.29 767.23L482.70 766.46L483.01 763.54L483.54 761.62L484.99 758.55L485.73 756.21L486.20 754.40L485.52 749.44L484.26 744.84L483.86 741.26L483.36 735.24L483.23 730.63L479.00 730.57L474.67 730.64L468.21 730.98L464.30 731.36L462.45 731.54L459.55 731.83L456.94 732.10L453.74 733.28L451.31 734.18L443.93 736.95L441.32 738.69L436.64 740.52L434.64 740.41L428.14 730.49L425.90 726.25L424.03 722.81L420.86 720.17L418.77 720.05L414.43 719.67L411.30 719.25L409.33 719.05L405.23 719.59L403.06 721.07L400.65 722.25L396.58 724.67L395.23 726.47L395.58 729.34L392.56 730.84L390.53 731.25L388.45 732.62L387.55 735.42L387.42 738.24L387.17 740.26L386.97 742.36L386.77 745.36L386.58 748.59L387.06 752.82L387.12 754.66L387.47 757.31L387.65 760.03L387.67 762.42L387.61 765.11L387.09 768.08L384.33 768.10L383.03 765.63L382.73 763.61L382.54 760.75L382.36 758.47L382.44 754.44L382.31 750.43L382.81 747.88L383.07 744.08L383.26 741.02L383.63 737.83L384.05 735.28L384.40 730.83L383.91 729.04L383.00 726.45L381.38 720.45L380.62 716.98L380.10 714.53L379.44 711.98L378.98 709.67L378.87 707.73L378.83 705.20L380.35 702.20L381.15 699.86L381.23 696.63L378.80 690.74L374.49 691.29L371.15 691.87L368.59 692.39L363.48 693.18L359.68 693.41L357.01 692.87L355.02 693.17L351.59 691.63Z" data-ward="9" /><path id="ward-12" class="ward" d="M449.32 573.63L448.12 570.76L445.88 570.97L442.80 571.65L438.16 572.68L439.39 580.53L433.60 581.06L431.37 580.94L424.68 580.81L414.00 581.15L407.30 579.57L405.16 579.16L400.71 579.23L398.26 580.26L391.26 583.20L388.05 582.90L385.89 579.90L364.09 580.71L358.42 583.62L352.35 586.77L349.77 589.42L347.03 590.51L344.73 591.67L342.54 592.39L340.80 593.03L336.44 594.83L333.77 595.90L331.14 595.87L327.50 595.96L324.46 595.60L322.30 595.41L319.03 594.89L315.41 595.24L311.29 595.58L307.30 596.16L305.41 596.64L302.74 596.97L297.82 597.43L293.17 597.93L292.26 596.23L291.18 592.80L289.73 588.81L288.77 586.17L288.10 584.28L287.28 581.58L286.55 579.72L285.03 577.50L281.02 575.57L275.99 573.17L273.38 572.20L321.54 687.93L324.24 689.00L325.69 686.72L328.36 684.70L329.31 682.69L330.71 680.60L332.77 679.33L336.33 678.66L338.60 678.44L342.38 681.53L344.87 683.52L347.25 684.21L351.59 691.63L355.02 693.17L357.01 692.87L359.68 693.41L363.48 693.18L368.59 692.39L371.15 691.87L374.49 691.29L378.80 690.74L381.23 696.63L381.15 699.86L380.35 702.20L378.83 705.20L378.87 707.73L378.98 709.67L379.44 711.98L380.10 714.53L380.62 716.98L381.38 720.45L383.00 726.45L383.91 729.04L384.40 730.83L384.05 735.28L383.63 737.83L383.26 741.02L383.07 744.08L382.81 747.88L382.31 750.43L382.44 754.44L382.36 758.47L382.54 760.75L382.73 763.61L383.03 765.63L384.33 768.10L387.09 768.08L387.61 765.11L387.67 762.42L387.65 760.03L387.47 757.31L387.12 754.66L387.06 752.82L386.58 748.59L386.77 745.36L386.97 742.36L387.17 740.26L387.42 738.24L387.55 735.42L388.45 732.62L390.53 731.25L392.56 730.84L395.58 729.34L395.23 726.47L396.58 724.67L400.65 722.25L403.06 721.07L405.23 719.59L409.33 719.05L411.30 719.25L414.43 719.67L418.77 720.05L420.86 720.17L424.03 722.81L425.90 726.25L428.14 730.49L434.64 740.41L436.64 740.52L441.32 738.69L443.93 736.95L451.31 734.18L453.74 733.28L456.94 732.10L459.55 731.83L462.45 731.54L464.30 731.36L468.21 730.98L474.67 730.64L479.00 730.57L483.23 730.63L485.42 726.41L485.52 724.26L485.44 721.20L485.58 716.27L483.97 706.98L483.07 704.53L482.26 699.78L482.86 696.78L488.69 693.86L489.05 690.59L488.21 688.19L487.06 686.43L486.36 684.01L486.27 680.20L476.87 657.33L475.23 653.37L472.99 649.18L466.75 637.60L462.17 618.59L458.83 607.17L459.37 604.33L456.42 594.35L454.60 588.01L453.54 584.34L449.32 573.63Z" data-ward="12" /><path id="ward-2" class="ward" d="M246.50 16.07L246.69 11.97L246.89 4.51L243.80 0.00L238.05 6.67L237.70 8.93L236.90 13.51L236.40 17.83L236.10 20.40L235.51 24.49L234.61 30.76L234.12 33.19L232.88 39.33L230.75 48.64L229.69 57.20L228.82 66.05L227.34 72.31L224.43 84.52L216.00 90.03L212.59 103.06L218.21 118.94L225.00 128.16L225.79 133.69L227.34 138.03L227.97 141.75L226.48 145.97L223.63 149.33L221.54 151.08L219.19 152.79L220.72 155.39L231.61 192.58L239.94 217.00L244.71 229.49L245.42 235.44L245.72 237.99L246.67 242.14L248.04 248.17L246.19 256.00L249.20 267.58L251.88 274.53L256.82 286.09L266.60 287.49L269.61 286.07L270.54 282.71L270.31 275.73L270.69 273.60L272.60 269.83L278.47 266.29L280.99 263.98L281.58 260.64L280.66 256.17L280.13 253.56L280.37 248.47L286.03 248.42L288.18 245.59L287.76 242.06L288.52 233.09L291.52 231.18L296.32 228.87L301.55 226.88L304.43 225.78L344.61 251.63L356.95 259.56L398.83 286.53L412.63 296.09L415.69 299.33L420.58 301.60L431.13 308.91L437.58 311.55L440.91 312.80L458.03 317.67L480.80 314.99L483.36 314.47L489.37 315.39L492.01 315.12L494.69 314.96L501.33 312.02L507.67 309.99L522.60 319.17L550.47 326.20L561.51 327.42L562.20 322.52L563.20 313.83L562.22 309.58L559.66 298.17L557.54 289.36L557.10 284.42L555.93 274.79L554.56 262.36L560.12 266.31L567.04 270.68L570.79 276.23L573.96 282.86L582.50 292.85L596.32 300.70L602.85 306.32L607.70 317.46L611.61 313.43L612.87 312.08L638.12 260.61L634.45 260.35L630.04 256.77L619.38 246.96L617.64 243.94L612.35 241.58L602.34 231.13L592.94 219.05L577.31 209.51L571.22 196.70L562.18 190.65L552.40 184.43L544.59 184.82L542.55 184.77L540.51 184.64L536.50 185.55L533.41 186.85L530.46 186.09L528.13 185.90L524.19 186.08L520.80 186.07L515.63 185.81L483.79 158.51L476.35 151.59L468.57 146.80L459.51 142.90L446.17 139.15L441.55 139.54L437.65 139.35L435.52 139.06L428.54 134.34L425.95 133.80L422.02 130.62L417.72 129.98L414.04 129.21L409.68 129.55L397.96 126.90L381.97 125.08L379.57 125.04L376.44 125.35L371.81 124.20L369.47 123.07L367.74 122.17L365.72 120.44L362.94 118.40L360.78 116.85L357.71 114.54L356.91 111.94L354.81 109.54L347.97 100.97L345.99 97.54L345.36 94.37L344.09 90.30L342.92 87.35L340.60 81.44L339.10 76.90L338.29 72.56L337.78 69.00L336.89 66.56L336.01 64.37L334.08 58.81L331.33 56.78L327.39 52.88L320.98 48.45L318.01 40.07L315.94 33.57L313.08 33.07L308.16 33.57L303.53 34.94L301.68 34.76L293.69 35.23L291.08 33.94L284.60 31.07L276.16 28.69L268.94 24.60L265.59 21.13L263.02 19.76L259.88 18.36L256.36 18.26L251.94 17.93L249.77 18.44L247.63 18.77L246.50 16.07Z" data-ward="2" /></svg>