<svg viewBox="0 0 1000.00 1469.36" xmlns="http://www.w3.org/2000/svg"><style>.ward { fill: #e2e8f0; stroke: #fff; stroke-width: 0.5px; } .ward:hover { fill: #cbd5e1; }</style><path id="ward-8" class="ward" d="M298.77 880.77L295.80 876.73L296.05 874.06L289.88 869.54L283.33 868.00L266.40 861.73L262.97 869.09L260.02 875.44L257.26 882.76L255.38 889.31L251.37 903.47L250.44 907.38L248.03 917.44L246.89 922.94L249.48 937.42L249.90 940.61L250.28 943.15L251.20 949.27L251.95 954.30L255.56 955.83L256.56 958.40L257.48 961.81L257.83 968.84L259.11 975.29L260.41 981.36L263.64 984.42L267.20 987.87L271.95 996.30L272.57 998.85L273.26 1001.72L274.20 1005.58L274.81 1008.21L275.65 1012.39L276.10 1015.14L277.05 1020.71L278.34 1023.88L279.88 1027.66L282.50 1031.69L283.07 1034.83L283.57 1037.57L285.02 1045.57L286.87 1055.74L287.34 1058.32L288.69 1062.27L291.92 1070.01L294.22 1073.65L295.43 1076.04L297.46 1080.03L300.25 1090.13L299.06 1093.28L297.87 1096.43L298.05 1100.13L299.85 1104.38L299.05 1111.25L298.81 1116.50L301.30 1118.23L304.40 1123.17L305.59 1125.76L306.79 1128.35L308.53 1135.76L310.05 1140.31L310.40 1145.80L312.33 1148.83L314.26 1151.86L316.26 1156.33L317.25 1158.89L318.73 1161.72L326.24 1160.90L330.79 1160.42L333.23 1161.08L337.26 1162.23L340.02 1161.32L343.07 1160.32L345.96 1159.42L350.97 1158.29L352.05 1153.03L359.66 1149.12L366.17 1158.27L378.14 1144.21L396.99 1154.72L406.37 1159.95L423.34 1158.01L432.00 1150.53L435.70 1149.38L434.81 1146.25L438.31 1141.06L436.92 1135.69L438.77 1132.83L441.83 1132.01L446.06 1128.39L439.93 1125.14L438.22 1122.01L440.10 1117.41L442.63 1114.06L443.54 1111.71L438.47 1107.51L439.66 1092.19L447.55 1089.12L451.02 1093.45L454.75 1095.16L457.33 1089.56L457.89 1086.52L461.29 1084.61L465.76 1074.34L481.90 1071.52L483.39 1067.79L486.77 1061.23L490.29 1058.75L492.96 1057.28L495.77 1055.30L498.26 1051.74L498.71 1048.68L499.21 1045.97L498.22 1042.86L493.72 1036.19L491.96 1034.18L489.94 1031.46L487.91 1028.73L485.82 1025.70L483.48 1022.60L481.99 1019.27L480.48 1015.93L478.97 1012.57L478.78 1008.23L478.32 1003.74L478.12 1001.26L477.51 998.31L477.05 994.00L477.33 991.16L476.64 985.43L476.67 981.35L476.72 973.84L478.83 966.74L479.54 964.38L480.55 959.36L480.81 956.67L481.02 954.09L480.78 949.34L480.52 946.83L479.88 943.82L478.95 941.14L477.75 938.37L476.54 935.37L475.03 931.89L470.31 925.08L468.21 922.26L464.25 917.93L461.13 914.04L456.97 908.87L455.05 904.44L452.58 901.71L448.42 898.35L444.90 896.74L441.36 896.08L439.31 897.40L437.11 899.03L434.35 901.13L427.87 902.42L424.59 900.86L419.99 898.67L418.17 896.61L414.29 894.16L411.27 892.38L407.60 891.43L403.06 889.90L399.05 888.57L392.56 886.20L388.42 884.52L385.55 883.13L382.33 881.58L376.42 878.05L373.89 878.43L372.80 880.73L373.96 884.11L375.04 887.02L376.78 890.88L378.52 894.06L380.52 896.06L382.53 897.59L385.03 899.51L388.18 901.74L390.29 903.32L393.50 905.53L395.96 908.59L397.10 911.18L398.28 914.37L399.22 916.72L402.07 922.72L404.16 925.83L403.93 930.97L401.32 933.36L399.24 935.09L394.97 938.42L391.05 941.53L388.75 942.94L385.91 944.75L382.36 944.82L379.41 943.02L376.31 941.44L373.83 939.68L369.55 936.81L367.13 935.55L364.35 934.10L361.47 931.95L358.59 929.81L353.78 926.24L346.72 923.29L342.95 920.29L336.31 913.66L327.42 909.40L323.15 907.64L317.76 904.02L314.42 901.00L311.50 898.22L310.28 893.85L309.45 889.78L308.75 883.32L303.68 882.22L300.23 883.07L298.77 880.77Z" data-ward="8" /><path id="ward-10" class="ward" d="M195.36 1106.85L195.29 1102.05L191.10 1099.79L187.44 1100.93L187.97 1103.59L188.38 1106.27L189.11 1108.98L190.61 1116.77L191.75 1119.74L194.41 1124.78L194.50 1128.64L193.77 1133.10L193.90 1138.72L195.66 1147.87L196.19 1150.27L196.87 1153.48L197.69 1159.00L198.11 1161.95L198.83 1168.82L198.75 1173.53L197.86 1176.14L196.80 1180.39L195.44 1185.24L193.80 1190.86L192.62 1196.21L192.36 1199.29L191.98 1206.04L191.68 1211.17L191.70 1215.03L191.91 1218.27L192.29 1222.70L192.70 1225.88L193.05 1229.99L193.17 1234.74L192.90 1238.15L192.18 1242.90L190.96 1246.15L189.05 1249.19L185.81 1252.44L183.88 1255.32L183.14 1260.43L183.22 1263.99L183.71 1267.78L184.42 1272.31L184.79 1275.28L185.09 1277.71L185.48 1281.14L185.77 1284.20L185.90 1287.31L185.62 1290.01L185.12 1292.94L182.01 1296.14L179.87 1297.49L180.38 1300.56L181.70 1303.48L182.56 1306.10L183.39 1309.13L184.35 1313.24L186.04 1317.12L188.04 1322.03L189.26 1327.13L189.72 1330.18L190.10 1333.21L190.56 1336.23L192.36 1338.45L194.91 1341.25L196.34 1343.54L197.93 1346.61L200.44 1351.36L202.22 1354.60L203.92 1357.53L205.37 1360.31L208.22 1363.40L211.49 1366.19L214.47 1368.01L217.52 1370.50L219.54 1372.27L222.56 1374.60L226.11 1378.12L228.31 1380.78L230.23 1383.47L231.87 1385.31L235.63 1387.51L236.95 1390.16L237.06 1394.32L237.19 1397.56L233.09 1398.51L229.02 1399.47L224.50 1399.92L220.28 1400.40L217.49 1398.67L214.61 1399.29L212.08 1396.06L210.34 1393.89L205.94 1395.23L202.32 1396.89L206.25 1406.91L208.31 1410.94L210.67 1415.57L212.32 1418.79L213.65 1421.39L214.46 1424.39L215.31 1427.51L216.28 1430.47L216.67 1433.54L217.23 1437.03L218.22 1439.68L219.21 1442.32L220.65 1444.50L222.97 1448.01L226.98 1451.03L230.85 1452.15L233.74 1452.97L236.63 1453.80L241.18 1455.11L244.14 1455.96L250.72 1457.85L256.58 1459.02L259.55 1459.61L262.48 1460.20L267.54 1461.21L271.29 1461.96L280.84 1463.86L286.36 1464.97L289.06 1466.85L289.05 1469.36L290.12 1467.65L291.19 1465.93L299.15 1464.42L301.88 1463.91L306.77 1462.98L309.61 1462.44L306.70 1454.80L304.91 1450.08L299.60 1432.29L298.66 1429.13L297.35 1425.00L311.71 1415.67L318.63 1415.61L326.26 1415.55L332.39 1415.50L335.72 1415.15L343.12 1411.82L342.69 1409.31L343.21 1404.82L343.41 1403.81L341.94 1398.27L345.74 1392.15L345.87 1389.62L343.09 1384.52L339.54 1378.00L336.04 1377.27L333.24 1375.35L329.98 1373.12L327.69 1369.96L325.48 1366.93L318.58 1359.52L318.46 1354.78L318.26 1346.27L320.57 1345.05L323.03 1342.68L327.94 1341.16L316.39 1331.84L314.55 1329.84L307.03 1321.69L302.04 1310.23L298.18 1301.10L297.46 1296.92L297.07 1292.02L296.91 1289.52L296.42 1286.99L295.56 1282.56L294.93 1277.56L294.29 1271.71L286.23 1266.93L284.74 1264.07L281.52 1258.72L278.90 1254.97L277.43 1252.97L275.71 1251.11L272.83 1248.00L270.23 1245.15L268.55 1243.26L265.77 1240.69L263.08 1237.81L259.62 1234.12L256.96 1231.41L254.25 1228.76L249.27 1223.93L247.86 1221.93L245.24 1218.19L243.84 1215.10L242.70 1208.30L241.95 1203.78L241.19 1199.26L233.40 1195.33L232.74 1191.32L232.30 1188.07L231.88 1183.79L231.33 1180.96L231.13 1178.08L230.92 1175.20L231.20 1170.37L231.42 1166.63L230.97 1163.75L230.53 1161.00L230.08 1158.25L229.43 1153.15L228.47 1149.38L226.31 1143.25L225.80 1138.50L224.79 1134.08L224.67 1128.54L221.58 1127.52L222.69 1123.63L221.50 1121.24L219.87 1118.18L219.00 1114.37L218.81 1110.32L214.96 1110.87L209.03 1108.35L205.81 1106.89L203.69 1109.33L201.09 1110.18L195.36 1106.85Z" data-ward="10" /><path id="ward-2" class="ward" d="M334.81 35.41L331.71 34.47L327.11 33.10L323.89 31.40L315.82 27.15L311.49 26.17L306.32 25.01L302.14 23.76L298.73 22.53L295.99 21.54L293.32 20.58L289.11 22.66L285.77 24.32L281.36 26.49L279.10 27.80L276.11 29.52L266.79 33.38L274.32 55.57L248.37 66.86L241.15 58.89L220.03 71.28L213.73 69.40L211.31 68.68L208.60 67.87L205.22 66.86L205.26 69.37L205.34 74.34L205.44 80.45L205.50 84.37L205.91 91.03L206.54 96.31L206.78 104.94L203.86 106.38L200.28 111.88L195.92 117.82L193.94 120.86L191.95 123.54L190.57 125.79L187.99 130.01L189.80 134.48L191.61 138.90L193.33 144.88L197.38 153.26L199.01 157.35L200.64 161.43L202.27 165.52L204.70 171.71L205.98 177.14L207.19 182.24L209.35 186.89L217.78 206.88L221.64 216.08L224.06 224.10L224.17 230.36L220.04 246.21L215.51 253.76L203.97 260.37L192.73 265.07L189.48 279.56L186.85 281.75L185.23 284.54L188.34 288.62L195.07 297.48L192.56 299.58L187.61 303.73L185.78 308.50L184.80 311.07L180.93 314.81L182.93 317.12L184.84 319.74L186.72 322.16L188.57 326.29L191.51 335.89L192.93 338.64L194.32 341.89L196.12 347.91L198.23 352.61L199.24 354.92L199.72 358.21L199.94 362.19L200.83 365.52L202.61 369.08L207.62 375.52L212.02 375.10L216.68 376.28L219.62 377.33L223.84 378.63L232.64 380.17L236.02 381.25L241.82 382.40L259.00 385.75L280.62 400.26L283.17 400.93L287.20 401.53L291.25 402.14L323.26 430.88L338.53 442.27L341.60 443.85L345.37 445.69L349.96 446.89L355.11 447.25L357.45 448.25L375.75 454.49L379.56 457.04L384.31 458.96L388.00 460.45L391.07 456.79L392.29 454.65L394.07 452.86L396.39 450.49L399.20 445.32L401.76 444.87L403.66 439.14L404.29 435.07L403.98 432.63L402.78 427.31L402.26 424.61L400.84 421.17L399.53 419.03L397.94 416.73L397.52 413.20L396.49 409.45L395.40 406.02L392.34 403.39L391.07 400.63L392.47 397.92L395.58 393.70L397.97 388.44L398.81 385.17L399.80 381.42L400.97 378.00L399.86 371.05L398.97 368.12L399.47 363.98L400.25 361.51L402.56 357.16L405.66 353.41L407.39 351.64L409.27 349.52L411.68 346.59L413.77 344.49L416.47 340.96L415.45 338.46L415.04 334.66L416.19 332.20L417.48 329.90L419.00 326.66L420.91 323.14L422.62 320.65L423.05 317.22L422.84 314.23L422.09 311.65L420.73 307.57L418.88 305.02L416.71 301.75L414.67 298.37L413.17 294.12L413.80 290.30L416.62 288.09L418.87 286.68L422.97 284.16L425.71 283.32L429.35 281.80L432.06 279.98L436.63 276.91L439.97 273.41L442.87 271.50L448.95 270.54L451.02 268.65L451.36 266.21L450.77 262.97L448.27 259.68L445.25 256.02L442.15 252.45L440.33 250.38L438.10 247.97L435.72 245.87L433.66 244.17L431.13 241.68L427.17 238.01L423.58 235.14L419.69 231.86L416.60 227.15L414.69 224.30L412.63 222.78L412.52 220.09L412.40 217.38L409.36 214.82L409.05 210.22L409.50 205.29L408.86 201.15L408.13 194.84L406.89 190.85L405.85 188.33L404.63 185.27L403.41 182.21L401.10 176.72L399.34 172.36L398.41 168.98L397.49 165.62L396.99 163.16L395.38 156.71L394.23 154.27L392.76 150.82L391.29 147.36L387.48 136.53L386.27 133.63L384.61 129.65L382.31 125.05L381.71 121.80L382.24 118.57L382.80 115.15L382.12 110.49L380.85 106.52L379.57 102.53L378.92 100.08L378.40 96.56L377.88 93.04L377.99 89.29L378.09 85.50L378.28 81.37L377.54 77.19L375.84 74.15L374.31 69.82L374.26 67.10L375.33 62.37L376.54 59.13L377.12 55.74L378.09 51.87L379.05 47.98L378.46 44.38L377.76 40.09L377.17 36.77L376.70 33.35L376.27 30.22L372.39 29.95L369.08 29.73L365.88 30.97L362.68 32.21L359.82 32.96L356.47 33.83L352.77 34.80L348.28 35.97L337.21 36.12L334.81 35.41Z" data-ward="2" /><path id="ward-13" class="ward" d="M267.44 831.04L264.86 830.96L262.61 829.82L260.68 825.78L258.88 822.69L257.12 819.66L255.71 817.16L252.34 812.21L250.79 809.94L248.71 806.22L247.03 803.23L244.69 801.02L242.01 796.12L239.68 794.92L236.29 791.47L233.92 787.41L231.29 783.35L228.49 779.03L226.48 776.88L224.11 774.34L221.59 771.65L217.25 769.46L209.57 767.20L206.89 767.10L198.79 766.79L192.93 766.52L190.01 766.38L182.82 764.77L175.64 763.86L166.66 768.28L163.96 769.61L158.82 773.05L154.08 776.21L150.12 778.86L145.27 783.70L141.94 787.02L137.64 790.06L134.89 792.00L137.04 794.88L142.46 798.28L146.44 801.40L147.59 805.88L147.03 810.44L147.53 814.55L148.05 818.83L147.48 828.47L150.03 833.89L152.77 837.09L155.50 839.25L160.10 840.52L164.14 842.04L167.18 845.45L171.98 850.90L175.49 852.06L179.00 853.21L183.93 854.20L190.31 857.13L195.25 860.51L197.26 865.40L199.81 871.54L204.72 883.34L209.88 889.50L211.68 896.32L211.06 906.28L210.82 910.09L211.07 918.02L216.20 923.44L223.74 922.33L232.73 921.92L235.24 923.36L236.96 925.37L235.19 930.94L234.35 936.08L237.65 938.98L241.35 939.47L243.43 946.28L246.79 951.62L251.95 954.30L251.20 949.27L250.28 943.15L249.90 940.61L249.48 937.42L246.89 922.94L248.03 917.44L250.44 907.38L251.37 903.47L255.38 889.31L257.26 882.76L260.02 875.44L262.97 869.09L266.40 861.73L283.33 868.00L289.88 869.54L296.05 874.06L295.80 876.73L298.77 880.77L300.23 883.07L303.68 882.22L308.75 883.32L309.45 889.78L310.28 893.85L311.50 898.22L314.42 901.00L317.76 904.02L323.15 907.64L327.42 909.40L336.31 913.66L342.95 920.29L346.72 923.29L353.78 926.24L358.59 929.81L361.47 931.95L364.35 934.10L367.13 935.55L369.55 936.81L373.83 939.68L376.31 941.44L379.41 943.02L382.36 944.82L385.91 944.75L388.75 942.94L391.05 941.53L394.97 938.42L399.24 935.09L401.32 933.36L403.93 930.97L404.16 925.83L402.07 922.72L399.22 916.72L398.28 914.37L397.10 911.18L395.96 908.59L393.50 905.53L390.29 903.32L388.18 901.74L385.03 899.51L382.53 897.59L380.52 896.06L378.52 894.06L376.78 890.88L375.04 887.02L373.96 884.11L372.80 880.73L373.89 878.43L365.99 871.81L362.18 868.11L359.71 865.70L356.68 862.31L351.70 856.60L349.55 849.43L347.85 845.28L344.89 835.84L343.54 831.54L341.93 827.91L340.31 824.97L338.99 821.00L337.67 817.03L336.35 813.06L335.21 808.99L334.46 806.28L333.76 803.54L331.25 801.58L325.73 801.98L322.04 802.24L322.95 791.60L319.86 791.60L314.42 792.60L310.01 792.37L305.39 792.15L300.33 792.73L296.83 797.07L294.51 800.66L292.40 805.05L289.52 808.27L282.07 812.81L279.45 816.12L279.70 820.40L279.42 823.23L279.14 826.06L276.20 829.15L272.10 831.19L267.44 831.04Z" data-ward="13" /><path id="ward-11" class="ward" d="M184.69 1029.17L182.24 1026.57L179.67 1025.30L176.60 1024.29L173.54 1023.31L167.80 1022.19L164.24 1021.59L157.44 1019.48L144.26 1014.42L137.90 1012.31L134.61 1011.43L130.58 1011.34L130.44 1014.72L129.94 1017.81L126.94 1025.68L126.00 1028.50L124.13 1030.29L119.03 1031.73L114.16 1031.46L110.69 1033.39L107.23 1034.71L106.06 1037.54L104.65 1040.94L102.79 1045.74L101.80 1048.33L97.89 1053.88L95.58 1055.56L91.13 1059.08L90.93 1061.97L90.73 1064.82L91.63 1068.49L93.14 1071.92L96.58 1074.15L99.09 1074.21L105.06 1074.37L105.56 1081.04L104.04 1086.71L102.45 1089.29L100.24 1092.88L98.02 1098.90L98.45 1102.21L97.52 1107.21L96.59 1112.13L96.59 1115.74L96.59 1118.48L97.37 1123.26L100.54 1127.81L103.38 1133.39L105.36 1136.94L106.10 1139.37L107.89 1144.12L109.12 1148.73L110.50 1153.85L111.37 1158.37L113.71 1166.19L115.07 1171.39L116.41 1176.53L117.56 1180.66L119.01 1185.83L120.80 1190.30L122.66 1194.95L124.75 1201.65L126.21 1208.41L128.58 1210.43L129.20 1215.23L129.83 1220.05L131.69 1224.47L134.03 1232.25L134.89 1234.57L138.22 1241.36L140.42 1246.20L143.00 1251.88L145.68 1258.33L147.26 1262.13L149.56 1266.50L152.38 1271.86L153.84 1277.63L155.17 1282.90L155.63 1287.16L158.38 1292.98L159.94 1297.67L161.94 1302.54L162.79 1306.67L163.53 1310.31L166.06 1312.82L167.06 1316.70L169.68 1320.44L171.62 1325.53L174.20 1332.26L176.54 1337.48L178.43 1342.50L180.11 1346.95L182.13 1352.97L183.80 1357.92L185.10 1360.26L185.90 1363.03L187.89 1367.16L190.01 1371.54L192.19 1376.06L194.65 1381.38L196.57 1385.53L198.27 1389.18L200.04 1392.55L202.32 1396.89L205.94 1395.23L210.34 1393.89L212.08 1396.06L214.61 1399.29L217.49 1398.67L220.28 1400.40L224.50 1399.92L229.02 1399.47L233.09 1398.51L237.19 1397.56L237.06 1394.32L236.95 1390.16L235.63 1387.51L231.87 1385.31L230.23 1383.47L228.31 1380.78L226.11 1378.12L222.56 1374.60L219.54 1372.27L217.52 1370.50L214.47 1368.01L211.49 1366.19L208.22 1363.40L205.37 1360.31L203.92 1357.53L202.22 1354.60L200.44 1351.36L197.93 1346.61L196.34 1343.54L194.91 1341.25L192.36 1338.45L190.56 1336.23L190.10 1333.21L189.72 1330.18L189.26 1327.13L188.04 1322.03L186.04 1317.12L184.35 1313.24L183.39 1309.13L182.56 1306.10L181.70 1303.48L180.38 1300.56L179.87 1297.49L182.01 1296.14L185.12 1292.94L185.62 1290.01L185.90 1287.31L185.77 1284.20L185.48 1281.14L185.09 1277.71L184.79 1275.28L184.42 1272.31L183.71 1267.78L183.22 1263.99L183.14 1260.43L183.88 1255.32L185.81 1252.44L189.05 1249.19L190.96 1246.15L192.18 1242.90L192.90 1238.15L193.17 1234.74L193.05 1229.99L192.70 1225.88L192.29 1222.70L191.91 1218.27L191.70 1215.03L191.68 1211.17L191.98 1206.04L192.36 1199.29L192.62 1196.21L193.80 1190.86L195.44 1185.24L196.80 1180.39L197.86 1176.14L198.75 1173.53L198.83 1168.82L198.11 1161.95L197.69 1159.00L196.87 1153.48L196.19 1150.27L195.66 1147.87L193.90 1138.72L193.77 1133.10L194.50 1128.64L194.41 1124.78L191.75 1119.74L190.61 1116.77L189.11 1108.98L188.38 1106.27L187.97 1103.59L187.44 1100.93L189.50 1097.08L192.25 1095.10L194.69 1093.35L196.84 1091.30L199.09 1089.18L203.09 1085.12L206.79 1080.65L209.57 1077.63L213.61 1073.70L216.85 1070.55L220.87 1067.03L224.16 1064.34L226.68 1061.98L228.48 1060.07L229.72 1057.51L228.71 1055.11L225.73 1054.32L222.99 1053.33L217.53 1051.85L209.96 1049.08L207.18 1045.67L206.31 1041.89L203.34 1039.94L200.21 1038.27L195.80 1036.94L190.68 1033.55L188.56 1031.96L184.69 1029.17Z" data-ward="11" /><path id="ward-1" class="ward" d="M188.57 326.29L186.72 322.16L184.84 319.74L182.93 317.12L180.93 314.81L178.65 317.17L176.75 319.15L173.48 320.64L167.54 323.36L161.86 325.96L146.92 332.79L142.61 331.79L137.37 330.57L134.65 326.57L121.17 329.50L113.50 324.76L110.88 328.16L100.69 333.39L92.65 335.11L82.91 332.57L78.60 331.44L74.86 339.15L71.63 345.80L68.20 352.86L57.45 355.46L48.12 353.30L37.52 357.54L32.52 370.41L30.43 374.88L25.94 383.65L24.33 386.79L22.73 389.91L19.09 390.96L20.06 393.46L16.66 400.37L23.45 409.18L19.57 411.74L17.00 413.32L14.25 415.01L10.16 421.78L8.20 430.11L2.85 452.93L0.91 460.99L0.00 467.91L0.60 474.28L3.31 480.76L4.52 483.63L6.38 499.78L4.94 508.38L4.02 513.81L5.14 522.57L5.13 528.92L5.04 536.25L5.15 539.14L5.26 546.63L5.05 550.91L4.87 554.70L8.52 557.57L10.94 559.48L11.65 564.53L17.37 568.61L20.21 574.50L20.87 577.74L23.10 580.09L27.55 580.85L27.63 580.86L51.23 584.04L55.95 580.12L59.03 576.07L60.07 573.58L61.09 571.17L61.43 562.04L67.63 561.76L72.45 561.55L77.05 562.85L81.80 564.83L85.98 566.57L87.00 570.59L87.71 573.42L89.95 579.26L96.43 582.36L103.98 578.70L124.19 564.29L129.51 560.49L141.50 567.77L150.09 582.18L158.25 595.86L157.18 601.43L158.75 607.02L162.45 610.89L163.26 614.71L164.18 618.84L167.22 625.89L175.09 627.68L180.37 628.88L184.34 629.27L189.43 627.67L192.44 626.16L195.07 626.05L198.48 625.83L201.50 625.44L206.27 625.58L209.52 626.48L213.07 627.58L215.51 628.28L221.03 629.34L223.35 630.21L226.60 630.92L232.83 632.07L236.85 631.64L240.21 632.30L243.00 631.62L245.89 628.12L247.65 626.32L254.77 625.16L258.84 620.18L266.86 604.60L269.60 597.76L275.54 588.05L278.44 576.49L288.82 555.09L291.11 544.85L288.39 534.71L290.24 532.87L293.02 531.14L296.21 529.02L298.36 527.56L301.67 524.41L305.34 519.17L306.91 516.87L311.76 511.39L314.06 504.64L312.18 499.95L311.54 496.49L310.90 493.03L314.49 486.52L317.68 484.71L324.82 483.21L329.93 481.56L334.69 479.21L342.63 475.30L347.28 473.53L352.46 471.60L355.27 470.55L359.02 469.16L362.60 467.82L365.67 466.68L372.11 465.51L384.31 458.96L379.56 457.04L375.75 454.49L357.45 448.25L355.11 447.25L349.96 446.89L345.37 445.69L341.60 443.85L338.53 442.27L323.26 430.88L291.25 402.14L287.20 401.53L283.17 400.93L280.62 400.26L259.00 385.75L241.82 382.40L236.02 381.25L232.64 380.17L223.84 378.63L219.62 377.33L216.68 376.28L212.02 375.10L207.62 375.52L202.61 369.08L200.83 365.52L199.94 362.19L199.72 358.21L199.24 354.92L198.23 352.61L196.12 347.91L194.32 341.89L192.93 338.64L191.51 335.89L188.57 326.29Z" data-ward="1" /><path id="ward-5" class="ward" d="M558.16 444.74L562.45 431.02L563.43 427.90L565.66 418.97L570.80 398.37L581.25 381.82L585.98 374.33L586.79 327.49L585.43 315.52L583.02 314.97L582.95 309.24L568.96 305.55L551.73 300.00L539.09 293.09L541.41 285.16L543.19 279.07L528.79 272.01L514.65 263.17L511.80 266.66L505.36 271.45L503.90 285.32L503.27 289.55L502.93 293.23L510.95 305.54L513.31 306.70L517.88 309.90L527.31 310.89L524.70 316.86L521.72 327.02L521.91 333.46L523.86 343.01L524.54 350.89L518.80 360.59L518.04 381.49L517.91 384.99L517.35 400.38L515.19 409.66L511.03 427.51L506.81 430.91L504.42 436.96L502.48 441.89L510.03 443.53L512.35 457.69L498.79 460.08L495.46 460.64L490.07 461.38L484.69 462.12L467.74 463.58L459.56 472.57L456.73 483.78L454.92 499.31L455.77 501.70L459.41 512.49L460.27 523.11L456.52 535.61L459.07 548.95L458.25 562.06L456.22 577.48L449.58 589.85L448.99 598.50L446.01 605.00L441.59 614.56L430.92 627.59L420.36 647.02L406.65 669.22L402.71 675.59L411.45 702.68L411.11 705.24L413.73 723.07L423.77 736.28L428.56 748.23L430.02 751.73L435.63 765.17L440.98 768.70L446.59 768.93L450.17 769.07L456.54 769.00L466.84 765.27L476.32 767.60L486.16 771.04L501.88 776.34L507.78 773.81L514.01 774.02L519.21 774.19L533.94 781.84L544.25 787.94L548.83 788.75L555.32 789.13L563.13 793.38L565.99 795.10L568.74 796.13L568.29 803.88L566.33 808.57L563.86 812.16L562.19 814.50L562.29 818.18L565.32 819.26L573.66 819.90L577.27 820.79L580.88 821.69L583.37 822.55L585.86 823.40L590.82 825.30L592.92 826.78L590.33 831.47L586.32 833.81L584.32 839.24L588.84 837.70L587.59 843.03L588.31 850.54L589.20 853.80L591.53 855.78L592.39 852.33L593.29 848.24L596.09 842.35L602.59 840.37L608.39 839.12L611.99 837.73L616.95 837.69L621.56 836.21L625.33 834.30L629.18 833.35L633.05 832.39L636.57 831.78L639.02 831.48L644.30 830.80L649.48 829.93L652.42 829.07L656.58 827.46L660.10 826.33L664.80 824.70L663.74 820.66L661.34 819.15L658.44 817.40L654.63 817.87L650.35 816.30L647.07 813.70L644.49 810.54L641.15 802.88L639.11 799.46L637.07 796.04L636.11 793.39L635.15 790.74L635.03 787.32L639.43 786.85L642.95 787.14L645.39 788.84L649.37 791.60L654.94 794.23L657.86 795.11L660.79 796.00L664.79 797.82L669.08 799.58L671.64 800.05L674.20 800.52L679.07 801.92L684.03 803.68L688.85 804.23L684.97 796.68L683.19 793.46L681.40 790.24L679.91 787.53L677.59 784.81L675.28 782.09L673.22 779.00L671.17 775.92L669.88 773.35L665.38 770.15L668.10 768.33L665.64 755.30L664.57 751.80L663.49 749.04L660.42 746.18L657.14 743.43L652.74 740.93L650.08 739.47L647.41 738.00L643.33 736.03L637.99 733.45L631.77 731.45L621.43 729.70L615.53 724.11L613.37 721.97L609.75 717.97L604.45 712.13L601.93 702.35L600.69 697.55L599.94 688.90L599.50 684.05L596.73 671.35L595.83 667.21L600.36 650.21L605.89 645.61L613.21 642.11L625.88 640.82L628.08 638.58L626.56 629.80L622.13 623.04L615.77 620.88L609.57 622.80L603.42 620.39L600.35 619.24L595.74 618.34L593.23 618.04L590.73 617.73L590.52 613.57L598.32 607.84L604.54 607.47L607.57 603.48L610.79 596.89L607.30 590.86L604.42 575.77L603.87 572.84L609.20 566.00L618.22 563.85L622.61 562.80L625.43 562.11L628.25 561.41L636.03 559.47L640.53 558.31L634.76 556.11L626.55 553.40L621.33 551.87L612.53 549.28L608.58 548.16L604.60 548.81L596.22 550.24L591.44 551.06L586.21 551.96L582.50 551.47L577.93 550.88L575.01 550.50L571.01 552.41L563.23 556.79L560.60 558.27L544.66 558.73L540.23 555.78L534.19 551.76L527.85 542.98L525.55 539.79L522.82 539.11L516.37 537.50L509.98 535.90L504.96 532.96L506.33 528.36L510.58 510.10L509.55 497.99L516.68 480.33L524.96 469.40L529.16 466.46L535.03 469.40L550.54 469.04L558.16 444.74Z" data-ward="5" /><path id="ward-6" class="ward" d="M720.46 801.42L714.40 797.24L711.30 795.10L707.76 791.18L703.99 787.12L697.39 783.31L686.38 777.53L680.28 774.46L668.10 768.33L665.38 770.15L669.88 773.35L671.17 775.92L673.22 779.00L675.28 782.09L677.59 784.81L679.91 787.53L681.40 790.24L683.19 793.46L684.97 796.68L688.85 804.23L684.03 803.68L679.07 801.92L674.20 800.52L671.64 800.05L669.08 799.58L664.79 797.82L660.79 796.00L657.86 795.11L654.94 794.23L649.37 791.60L645.39 788.84L642.95 787.14L639.43 786.85L635.03 787.32L635.15 790.74L636.11 793.39L637.07 796.04L639.11 799.46L641.15 802.88L644.49 810.54L647.07 813.70L650.35 816.30L654.63 817.87L658.44 817.40L661.34 819.15L663.74 820.66L664.80 824.70L660.10 826.33L656.58 827.46L652.42 829.07L649.48 829.93L644.30 830.80L639.02 831.48L636.57 831.78L633.05 832.39L629.18 833.35L625.33 834.30L621.56 836.21L616.95 837.69L611.99 837.73L608.39 839.12L602.59 840.37L596.09 842.35L593.29 848.24L592.39 852.33L591.53 855.78L589.20 853.80L588.31 850.54L587.59 843.03L588.84 837.70L584.32 839.24L586.32 833.81L590.33 831.47L592.92 826.78L590.82 825.30L585.86 823.40L583.37 822.55L580.88 821.69L577.27 820.79L573.66 819.90L565.32 819.26L563.86 825.29L563.99 833.30L565.73 836.82L567.70 840.86L567.19 844.09L565.38 847.34L562.60 850.87L559.15 855.25L557.59 865.28L561.54 866.15L564.58 870.86L563.98 879.63L565.95 884.09L565.97 898.35L575.05 908.70L579.52 913.79L583.65 917.51L587.03 922.48L588.79 926.23L591.22 931.42L595.93 937.70L600.63 943.97L603.12 947.58L600.97 955.74L611.30 966.00L617.28 969.89L619.88 971.42L624.65 974.84L626.59 976.65L630.66 978.22L633.43 980.59L635.01 983.07L638.19 986.42L641.86 987.78L644.84 989.55L647.82 991.33L651.67 995.04L657.80 997.61L662.56 998.18L664.96 999.53L668.95 1000.55L671.14 1002.41L675.00 1005.41L681.67 1010.61L685.80 1010.15L688.89 1008.83L695.69 1008.03L702.35 1004.39L705.74 1002.95L716.03 998.57L730.20 997.66L743.77 1002.75L764.01 998.68L771.85 998.22L773.92 1001.05L786.95 1000.64L790.51 997.29L793.40 994.58L830.58 975.18L832.42 969.11L830.23 957.61L828.53 948.67L821.59 938.58L816.03 927.33L817.44 916.96L820.69 902.52L822.01 896.67L816.12 895.21L810.32 893.74L803.24 887.46L798.95 883.65L794.45 879.66L791.01 876.60L787.36 873.36L783.31 869.77L778.83 867.62L773.62 867.57L769.94 867.54L767.28 865.91L762.58 863.03L758.41 861.11L752.61 858.89L746.73 855.85L743.65 851.70L739.54 845.96L737.75 841.91L735.78 837.42L734.83 830.99L734.26 828.37L733.68 825.76L732.54 821.60L731.34 817.26L729.83 812.14L726.10 807.41L720.46 801.42Z" data-ward="6" /><path id="ward-7" class="ward" d="M476.32 767.60L466.84 765.27L456.54 769.00L450.17 769.07L446.59 768.93L440.98 768.70L435.11 769.28L442.16 779.44L450.68 787.66L458.49 793.98L457.91 801.14L454.24 810.06L441.43 807.61L430.09 803.42L421.57 801.37L413.02 801.09L405.24 802.09L395.89 803.00L387.33 798.97L377.30 798.82L370.67 799.21L365.45 797.38L356.48 797.94L355.84 793.06L353.59 790.99L349.64 787.36L339.13 786.07L331.25 790.38L322.95 791.60L322.04 802.24L325.73 801.98L331.25 801.58L333.76 803.54L334.46 806.28L335.21 808.99L336.35 813.06L337.67 817.03L338.99 821.00L340.31 824.97L341.93 827.91L343.54 831.54L344.89 835.84L347.85 845.28L349.55 849.43L351.70 856.60L356.68 862.31L359.71 865.70L362.18 868.11L365.99 871.81L373.89 878.43L376.42 878.05L382.33 881.58L385.55 883.13L388.42 884.52L392.56 886.20L399.05 888.57L403.06 889.90L407.60 891.43L411.27 892.38L414.29 894.16L418.17 896.61L419.99 898.67L424.59 900.86L427.87 902.42L434.35 901.13L437.11 899.03L439.31 897.40L441.36 896.08L444.90 896.74L448.42 898.35L452.58 901.71L455.05 904.44L456.97 908.87L461.13 914.04L464.25 917.93L468.21 922.26L470.31 925.08L475.03 931.89L476.54 935.37L477.75 938.37L478.95 941.14L479.88 943.82L480.52 946.83L480.78 949.34L481.02 954.09L480.81 956.67L480.55 959.36L479.54 964.38L478.83 966.74L476.72 973.84L476.67 981.35L476.64 985.43L477.33 991.16L477.05 994.00L477.51 998.31L478.12 1001.26L478.32 1003.74L478.78 1008.23L478.97 1012.57L480.48 1015.93L481.99 1019.27L483.48 1022.60L485.82 1025.70L487.91 1028.73L489.94 1031.46L491.96 1034.18L493.72 1036.19L498.22 1042.86L499.21 1045.97L498.71 1048.68L498.26 1051.74L495.77 1055.30L492.96 1057.28L490.29 1058.75L486.77 1061.23L489.69 1063.14L493.75 1060.84L495.90 1059.62L502.21 1059.95L507.62 1056.35L514.71 1063.42L516.94 1065.64L519.64 1066.07L527.75 1067.35L539.69 1067.89L545.01 1070.93L550.80 1070.63L548.18 1060.67L547.96 1056.03L548.12 1046.05L548.94 1041.89L549.78 1037.68L550.90 1032.02L552.25 1025.19L555.88 1019.27L558.54 1014.93L560.15 1012.30L563.35 1007.07L565.50 1003.56L567.35 998.28L568.36 995.42L569.64 991.78L568.75 985.02L572.14 980.62L576.68 974.72L579.69 973.75L583.92 970.30L582.08 967.88L580.96 965.68L578.69 961.63L577.43 957.76L581.77 957.79L586.01 958.66L589.28 959.48L596.53 961.32L611.30 966.00L600.97 955.74L603.12 947.58L600.63 943.97L595.93 937.70L591.22 931.42L588.79 926.23L587.03 922.48L583.65 917.51L579.52 913.79L575.05 908.70L565.97 898.35L565.95 884.09L563.98 879.63L564.58 870.86L561.54 866.15L557.59 865.28L559.15 855.25L562.60 850.87L565.38 847.34L567.19 844.09L567.70 840.86L565.73 836.82L563.99 833.30L563.86 825.29L565.32 819.26L562.29 818.18L562.19 814.50L563.86 812.16L566.33 808.57L568.29 803.88L568.74 796.13L565.99 795.10L563.13 793.38L555.32 789.13L548.83 788.75L544.25 787.94L533.94 781.84L519.21 774.19L514.01 774.02L507.78 773.81L501.88 776.34L486.16 771.04L476.32 767.60Z" data-ward="7" /><path id="ward-4" class="ward" d="M581.13 202.10L579.50 198.43L577.27 194.23L574.70 193.61L573.16 197.76L573.79 200.57L573.69 204.36L570.28 203.84L567.40 206.88L565.67 209.51L564.91 215.67L563.06 218.05L560.90 219.85L562.95 221.61L565.70 223.89L568.27 225.23L570.84 226.56L573.31 226.73L576.23 226.92L577.60 229.73L582.84 240.02L599.67 236.20L603.93 260.20L596.91 272.55L584.49 294.37L585.48 304.99L585.40 307.74L582.95 309.24L583.02 314.97L585.43 315.52L586.79 327.49L585.98 374.33L581.25 381.82L570.80 398.37L565.66 418.97L563.43 427.90L562.45 431.02L558.16 444.74L550.54 469.04L535.03 469.40L529.16 466.46L524.96 469.40L516.68 480.33L509.55 497.99L510.58 510.10L506.33 528.36L504.96 532.96L509.98 535.90L516.37 537.50L522.82 539.11L525.55 539.79L527.85 542.98L534.19 551.76L540.23 555.78L544.66 558.73L560.60 558.27L563.23 556.79L571.01 552.41L575.01 550.50L577.93 550.88L582.50 551.47L586.21 551.96L591.44 551.06L596.22 550.24L604.60 548.81L608.58 548.16L612.53 549.28L621.33 551.87L626.55 553.40L634.76 556.11L640.53 558.31L636.03 559.47L628.25 561.41L625.43 562.11L622.61 562.80L618.22 563.85L609.20 566.00L603.87 572.84L604.42 575.77L607.30 590.86L610.79 596.89L607.57 603.48L604.54 607.47L598.32 607.84L590.52 613.57L590.73 617.73L593.23 618.04L595.74 618.34L600.35 619.24L603.42 620.39L609.57 622.80L615.77 620.88L622.13 623.04L626.56 629.80L628.08 638.58L625.88 640.82L613.21 642.11L605.89 645.61L600.36 650.21L595.83 667.21L596.73 671.35L599.50 684.05L599.94 688.90L600.69 697.55L601.93 702.35L604.45 712.13L609.75 717.97L613.37 721.97L615.53 724.11L621.43 729.70L631.77 731.45L637.99 733.45L643.33 736.03L647.41 738.00L650.08 739.47L652.74 740.93L657.14 743.43L660.42 746.18L663.49 749.04L664.57 751.80L665.64 755.30L668.10 768.33L680.28 774.46L686.38 777.53L697.39 783.31L703.99 787.12L707.76 791.18L711.30 795.10L714.40 797.24L720.46 801.42L726.10 807.41L729.83 812.14L731.34 817.26L732.54 821.60L733.68 825.76L734.26 828.37L734.83 830.99L735.78 837.42L737.75 841.91L739.54 845.96L743.65 851.70L746.73 855.85L752.61 858.89L758.41 861.11L762.58 863.03L767.28 865.91L769.94 867.54L773.62 867.57L778.83 867.62L783.31 869.77L787.36 873.36L791.01 876.60L794.45 879.66L798.95 883.65L803.24 887.46L810.32 893.74L816.12 895.21L822.01 896.67L822.60 894.03L826.43 888.53L831.17 881.72L838.80 875.91L869.85 846.55L874.46 839.45L878.94 828.43L892.10 807.25L892.52 803.21L893.52 793.66L896.51 785.93L903.89 774.51L907.30 769.23L910.15 764.57L912.84 757.82L915.20 750.87L916.07 747.03L917.32 734.88L917.61 729.74L916.18 725.29L914.61 720.89L912.55 717.43L910.66 714.51L906.34 707.09L902.65 702.96L897.52 697.23L894.58 692.40L893.30 686.83L892.74 684.42L899.54 679.52L903.51 679.76L905.22 677.39L904.61 674.43L903.63 669.64L904.16 666.99L907.00 664.84L909.84 662.69L914.69 656.12L919.93 649.59L922.82 643.80L923.00 643.36L926.86 637.19L926.91 637.10L928.53 634.72L932.59 631.65L939.08 622.68L942.47 618.00L953.26 612.23L959.26 607.37L961.90 605.58L967.23 601.23L983.38 590.92L995.73 581.18L1000.00 474.83L933.06 417.47L850.63 365.56L813.77 315.90L812.54 307.15L803.48 305.17L797.30 303.70L767.81 282.80L748.14 261.56L734.24 239.69L725.14 243.47L713.87 244.83L701.65 246.30L690.74 247.62L688.22 246.26L665.78 234.21L656.70 229.36L647.33 224.52L640.76 223.28L633.76 222.70L629.18 221.99L626.01 221.66L622.12 221.12L618.99 220.63L614.54 220.72L611.89 220.48L608.76 217.90L606.96 215.55L604.22 214.19L601.63 213.71L597.69 213.74L594.94 212.76L591.76 211.57L588.45 211.01L584.25 209.04L583.07 206.46L581.13 202.10Z" data-ward="4" /><path id="ward-9" class="ward" d="M271.95 996.30L267.20 987.87L263.64 984.42L260.41 981.36L259.11 975.29L257.83 968.84L257.48 961.81L256.56 958.40L255.56 955.83L251.95 954.30L251.20 960.09L249.31 963.69L247.16 965.36L243.39 969.33L241.94 971.59L239.52 977.22L238.87 979.75L238.22 984.57L238.08 987.34L238.01 990.79L238.61 994.54L240.43 997.81L249.10 996.79L251.59 997.02L253.61 999.00L254.79 1002.42L253.85 1006.42L252.21 1009.82L249.00 1015.82L246.64 1020.91L245.73 1024.25L244.79 1030.32L244.68 1034.41L244.10 1037.44L242.05 1041.98L240.23 1044.55L237.17 1047.87L235.18 1050.06L228.71 1055.11L229.72 1057.51L228.48 1060.07L226.68 1061.98L224.16 1064.34L220.87 1067.03L216.85 1070.55L213.61 1073.70L209.57 1077.63L206.79 1080.65L203.09 1085.12L199.09 1089.18L196.84 1091.30L194.69 1093.35L192.25 1095.10L189.50 1097.08L187.44 1100.93L191.10 1099.79L195.29 1102.05L195.36 1106.85L201.09 1110.18L203.69 1109.33L205.81 1106.89L209.03 1108.35L214.96 1110.87L218.81 1110.32L219.00 1114.37L219.87 1118.18L221.50 1121.24L222.69 1123.63L221.58 1127.52L224.67 1128.54L224.79 1134.08L225.80 1138.50L226.31 1143.25L228.47 1149.38L229.43 1153.15L230.08 1158.25L230.53 1161.00L230.97 1163.75L231.42 1166.63L231.20 1170.37L230.92 1175.20L231.13 1178.08L231.33 1180.96L231.88 1183.79L232.30 1188.07L232.74 1191.32L233.40 1195.33L241.19 1199.26L241.95 1203.78L242.70 1208.30L243.84 1215.10L245.24 1218.19L247.86 1221.93L249.27 1223.93L254.25 1228.76L256.96 1231.41L259.62 1234.12L263.08 1237.81L265.77 1240.69L268.55 1243.26L270.23 1245.15L272.83 1248.00L275.71 1251.11L277.43 1252.97L278.90 1254.97L281.52 1258.72L284.74 1264.07L286.23 1266.93L294.29 1271.71L294.93 1277.56L295.56 1282.56L296.42 1286.99L296.91 1289.52L297.07 1292.02L297.46 1296.92L298.18 1301.10L302.04 1310.23L307.03 1321.69L314.55 1329.84L316.39 1331.84L327.94 1341.16L331.96 1339.92L337.21 1336.35L353.49 1328.84L349.88 1322.01L350.48 1306.68L356.57 1300.58L365.44 1303.05L369.86 1304.28L376.36 1306.09L379.70 1307.02L382.18 1307.71L385.31 1306.96L384.87 1303.58L381.97 1298.23L389.93 1291.36L394.70 1296.44L400.09 1302.17L402.96 1305.23L411.24 1309.70L419.86 1311.51L421.48 1309.13L422.07 1302.58L413.65 1302.45L409.33 1302.38L402.14 1296.73L397.56 1293.13L394.68 1287.43L409.21 1289.50L435.93 1293.31L439.08 1293.76L440.21 1289.51L442.75 1288.42L441.53 1283.93L445.57 1271.73L448.29 1269.08L449.57 1265.31L441.62 1255.98L445.20 1254.69L447.00 1252.77L441.77 1248.06L434.44 1246.16L432.52 1245.15L419.40 1239.09L414.74 1232.47L412.73 1232.41L402.11 1224.58L385.99 1212.68L386.63 1197.37L384.49 1190.47L377.18 1187.55L376.30 1183.69L370.87 1181.66L358.69 1166.53L354.86 1164.11L353.14 1162.26L350.97 1158.29L345.96 1159.42L343.07 1160.32L340.02 1161.32L337.26 1162.23L333.23 1161.08L330.79 1160.42L326.24 1160.90L318.73 1161.72L317.25 1158.89L316.26 1156.33L314.26 1151.86L312.33 1148.83L310.40 1145.80L310.05 1140.31L308.53 1135.76L306.79 1128.35L305.59 1125.76L304.40 1123.17L301.30 1118.23L298.81 1116.50L299.05 1111.25L299.85 1104.38L298.05 1100.13L297.87 1096.43L299.06 1093.28L300.25 1090.13L297.46 1080.03L295.43 1076.04L294.22 1073.65L291.92 1070.01L288.69 1062.27L287.34 1058.32L286.87 1055.74L285.02 1045.57L283.57 1037.57L283.07 1034.83L282.50 1031.69L279.88 1027.66L278.34 1023.88L277.05 1020.71L276.10 1015.14L275.65 1012.39L274.81 1008.21L274.20 1005.58L273.26 1001.72L272.57 998.85L271.95 996.30Z" data-ward="9" /><path id="ward-3" class="ward" d="M679.46 180.41L622.01 109.48L589.89 91.54L568.75 70.49L541.07 63.74L541.04 61.08L535.47 58.86L532.22 55.90L530.21 53.18L503.93 36.71L498.38 30.56L488.64 26.56L453.91 0.00L443.52 6.15L424.45 13.52L400.53 21.47L396.37 22.93L376.27 30.22L376.70 33.35L377.17 36.77L377.76 40.09L378.46 44.38L379.05 47.98L378.09 51.87L377.12 55.74L376.54 59.13L375.33 62.37L374.26 67.10L374.31 69.82L375.84 74.15L377.54 77.19L378.28 81.37L378.09 85.50L377.99 89.29L377.88 93.04L378.40 96.56L378.92 100.08L379.57 102.53L380.85 106.52L382.12 110.49L382.80 115.15L382.24 118.57L381.71 121.80L382.31 125.05L384.61 129.65L386.27 133.63L387.48 136.53L391.29 147.36L392.76 150.82L394.23 154.27L395.38 156.71L396.99 163.16L397.49 165.62L398.41 168.98L399.34 172.36L401.10 176.72L403.41 182.21L404.63 185.27L405.85 188.33L406.89 190.85L408.13 194.84L408.86 201.15L409.50 205.29L409.05 210.22L409.36 214.82L412.40 217.38L412.52 220.09L412.63 222.78L414.69 224.30L416.60 227.15L419.69 231.86L423.58 235.14L427.17 238.01L431.13 241.68L433.66 244.17L435.72 245.87L438.10 247.97L440.33 250.38L442.15 252.45L445.25 256.02L448.27 259.68L450.77 262.97L451.36 266.21L451.02 268.65L448.95 270.54L442.87 271.50L439.97 273.41L436.63 276.91L432.06 279.98L429.35 281.80L425.71 283.32L422.97 284.16L418.87 286.68L416.62 288.09L413.80 290.30L413.17 294.12L414.67 298.37L416.71 301.75L418.88 305.02L420.73 307.57L422.09 311.65L422.84 314.23L423.05 317.22L422.62 320.65L420.91 323.14L419.00 326.66L417.48 329.90L416.19 332.20L415.04 334.66L415.45 338.46L416.47 340.96L413.77 344.49L411.68 346.59L409.27 349.52L407.39 351.64L405.66 353.41L402.56 357.16L400.25 361.51L399.47 363.98L398.97 368.12L399.86 371.05L400.97 378.00L399.80 381.42L398.81 385.17L397.97 388.44L395.58 393.70L392.47 397.92L391.07 400.63L392.34 403.39L395.40 406.02L396.49 409.45L397.52 413.20L397.94 416.73L399.53 419.03L400.84 421.17L402.26 424.61L402.78 427.31L403.98 432.63L404.29 435.07L403.66 439.14L401.76 444.87L417.54 442.09L430.08 441.50L447.06 437.06L458.86 428.85L463.52 423.60L468.95 424.13L473.27 426.95L487.93 436.01L493.95 439.73L502.48 441.89L504.42 436.96L506.81 430.91L511.03 427.51L515.19 409.66L517.35 400.38L517.91 384.99L518.04 381.49L518.80 360.59L524.54 350.89L523.86 343.01L521.91 333.46L521.72 327.02L524.70 316.86L527.31 310.89L517.88 309.90L513.31 306.70L510.95 305.54L502.93 293.23L503.27 289.55L503.90 285.32L505.36 271.45L511.80 266.66L514.65 263.17L528.79 272.01L543.19 279.07L541.41 285.16L539.09 293.09L551.73 300.00L568.96 305.55L582.95 309.24L585.40 307.74L585.48 304.99L584.49 294.37L596.91 272.55L603.93 260.20L599.67 236.20L582.84 240.02L577.60 229.73L576.23 226.92L573.31 226.73L570.84 226.56L568.27 225.23L565.70 223.89L562.95 221.61L560.90 219.85L563.06 218.05L564.91 215.67L565.67 209.51L567.40 206.88L570.28 203.84L573.69 204.36L573.79 200.57L573.16 197.76L574.70 193.61L577.27 194.23L579.50 198.43L581.13 202.10L583.07 206.46L584.25 209.04L588.45 211.01L591.76 211.57L594.94 212.76L597.69 213.74L601.63 213.71L604.22 214.19L606.96 215.55L608.76 217.90L611.89 220.48L614.54 220.72L618.99 220.63L622.12 221.12L626.01 221.66L629.18 221.99L633.76 222.70L640.76 223.28L647.33 224.52L656.70 229.36L665.78 234.21L688.22 246.26L690.74 247.62L701.65 246.30L713.87 244.83L725.14 243.47L734.24 239.69L679.46 180.41Z" data-ward="3" /><path id="ward-12" class="ward" d="M113.32 783.38L109.41 783.54L98.51 784.41L90.60 784.31L86.91 784.89L81.24 787.98L78.97 790.56L76.73 793.10L73.73 794.34L70.35 795.73L67.77 797.11L63.28 799.75L59.47 801.99L55.56 804.28L53.57 806.07L51.58 809.99L48.83 811.83L46.82 817.86L45.66 821.32L44.10 826.52L43.13 829.77L42.10 833.22L40.45 836.68L38.81 840.13L36.79 843.82L33.79 849.29L31.17 854.88L29.23 859.00L26.53 864.68L22.40 870.96L17.92 877.90L16.14 880.65L13.56 885.29L12.21 887.72L10.71 894.15L10.18 898.36L10.69 903.90L11.16 909.79L12.36 918.24L14.62 925.23L15.68 928.52L18.02 931.37L21.28 933.71L25.76 934.22L30.53 933.15L33.74 934.29L38.67 936.03L42.94 940.33L43.82 943.22L44.74 946.27L45.45 948.66L47.62 955.93L50.16 961.19L51.56 963.47L53.27 966.24L56.45 970.10L58.13 972.13L64.98 977.38L71.12 979.46L75.28 980.86L80.23 981.92L86.98 984.20L92.06 986.14L94.92 987.30L97.54 988.61L103.58 991.73L106.66 994.10L109.37 995.56L113.94 999.83L116.15 1001.50L121.30 1005.37L125.05 1009.21L129.43 1012.10L130.44 1014.72L130.51 1013.03L130.58 1011.34L134.61 1011.43L137.90 1012.31L144.26 1014.42L157.44 1019.48L164.24 1021.59L167.80 1022.19L173.54 1023.31L176.60 1024.29L179.67 1025.30L182.24 1026.57L184.69 1029.17L188.56 1031.96L190.68 1033.55L195.80 1036.94L200.21 1038.27L203.34 1039.94L206.31 1041.89L207.18 1045.67L209.96 1049.08L217.53 1051.85L222.99 1053.33L225.73 1054.32L228.71 1055.11L235.18 1050.06L237.17 1047.87L240.23 1044.55L242.05 1041.98L244.10 1037.44L244.68 1034.41L244.79 1030.32L245.73 1024.25L246.64 1020.91L249.00 1015.82L252.21 1009.82L253.85 1006.42L254.79 1002.42L253.61 999.00L251.59 997.02L249.10 996.79L240.43 997.81L238.61 994.54L238.01 990.79L238.08 987.34L238.22 984.57L238.87 979.75L239.52 977.22L241.94 971.59L243.39 969.33L247.16 965.36L249.31 963.69L251.20 960.09L251.95 954.30L246.79 951.62L243.43 946.28L241.35 939.47L237.65 938.98L234.35 936.08L235.19 930.94L236.96 925.37L235.24 923.36L232.73 921.92L223.74 922.33L216.20 923.44L211.07 918.02L210.82 910.09L211.06 906.28L211.68 896.32L209.88 889.50L204.72 883.34L199.81 871.54L197.26 865.40L195.25 860.51L190.31 857.13L183.93 854.20L179.00 853.21L175.49 852.06L171.98 850.90L167.18 845.45L164.14 842.04L160.10 840.52L155.50 839.25L152.77 837.09L150.03 833.89L147.48 828.47L148.05 818.83L147.53 814.55L147.03 810.44L147.59 805.88L146.44 801.40L142.46 798.28L137.04 794.88L134.89 792.00L132.25 791.59L129.35 791.13L123.74 787.81L119.96 784.75L113.32 783.38Z" data-ward="12" /><path id="ward-14" class="ward" d="M498.79 460.08L512.35 457.69L510.03 443.53L502.48 441.89L493.95 439.73L487.93 436.01L473.27 426.95L468.95 424.13L463.52 423.60L458.86 428.85L447.06 437.06L430.08 441.50L417.54 442.09L401.76 444.87L399.20 445.32L396.39 450.49L394.07 452.86L392.29 454.65L391.07 456.79L388.00 460.45L384.31 458.96L372.11 465.51L365.67 466.68L362.60 467.82L359.02 469.16L355.27 470.55L352.46 471.60L347.28 473.53L342.63 475.30L334.69 479.21L329.93 481.56L324.82 483.21L317.68 484.71L314.49 486.52L310.90 493.03L311.54 496.49L312.18 499.95L314.06 504.64L311.76 511.39L306.91 516.87L305.34 519.17L301.67 524.41L298.36 527.56L296.21 529.02L293.02 531.14L290.24 532.87L288.39 534.71L291.11 544.85L288.82 555.09L278.44 576.49L275.54 588.05L269.60 597.76L266.86 604.60L258.84 620.18L254.77 625.16L247.65 626.32L245.89 628.12L243.00 631.62L240.21 632.30L236.85 631.64L232.83 632.07L226.60 630.92L223.35 630.21L221.03 629.34L215.51 628.28L213.07 627.58L209.52 626.48L206.27 625.58L201.50 625.44L198.48 625.83L195.07 626.05L192.44 626.16L189.43 627.67L184.34 629.27L189.20 634.42L193.00 638.44L196.28 642.17L199.36 645.83L205.37 651.33L209.55 651.24L213.57 651.15L222.25 650.45L231.08 650.97L233.45 648.46L238.36 646.16L239.46 653.52L239.97 656.99L243.14 655.77L246.15 654.61L249.75 653.22L253.22 651.88L257.83 650.39L263.48 648.61L267.52 647.34L271.26 647.96L276.55 648.83L279.74 653.00L281.56 657.24L280.79 661.89L285.51 661.73L291.76 664.83L294.79 666.27L298.42 667.99L302.22 670.68L306.02 672.01L308.92 673.22L309.63 675.71L313.58 678.00L312.05 680.43L310.10 682.26L310.32 684.01L310.37 687.86L310.40 690.47L306.30 690.69L301.18 691.96L298.02 692.74L295.73 694.97L293.31 697.33L291.74 699.90L289.14 703.82L286.47 707.84L286.12 712.33L287.12 717.51L287.80 721.07L288.61 725.34L289.63 728.97L290.31 732.60L291.22 735.64L293.08 741.91L295.46 745.79L297.27 748.50L299.48 751.80L301.18 754.35L304.09 757.92L306.09 760.87L308.28 764.08L310.10 766.74L309.28 769.17L307.73 773.73L306.86 776.29L304.98 781.11L303.23 784.87L302.39 789.66L300.33 792.73L305.39 792.15L310.01 792.37L314.42 792.60L319.86 791.60L322.95 791.60L331.25 790.38L339.13 786.07L349.64 787.36L353.59 790.99L355.84 793.06L356.48 797.94L365.45 797.38L370.67 799.21L377.30 798.82L387.33 798.97L395.89 803.00L405.24 802.09L413.02 801.09L421.57 801.37L430.09 803.42L441.43 807.61L454.24 810.06L457.91 801.14L458.49 793.98L450.68 787.66L442.16 779.44L435.11 769.28L440.98 768.70L435.63 765.17L430.02 751.73L428.56 748.23L423.77 736.28L413.73 723.07L411.11 705.24L411.45 702.68L402.71 675.59L406.65 669.22L420.36 647.02L430.92 627.59L441.59 614.56L446.01 605.00L448.99 598.50L449.58 589.85L456.22 577.48L458.25 562.06L459.07 548.95L456.52 535.61L460.27 523.11L459.41 512.49L455.77 501.70L454.92 499.31L456.73 483.78L459.56 472.57L467.74 463.58L484.69 462.12L490.07 461.38L495.46 460.64L498.79 460.08Z" data-ward="14" /></svg>