<svg viewBox="0 0 1000.00 1101.47" xmlns="http://www.w3.org/2000/svg"><style>.ward { fill: #e2e8f0; stroke: #fff; stroke-width: 0.5px; } .ward:hover { fill: #cbd5e1; }</style><path id="ward-6" class="ward" d="M674.58 212.57L672.90 204.22L671.72 198.37L659.76 187.70L646.23 168.70L627.58 160.63L613.01 154.33L593.97 148.05L582.30 150.32L579.03 150.88L581.67 162.85L583.59 165.44L584.76 173.71L587.53 178.91L589.68 181.16L593.28 182.99L597.01 184.23L600.00 186.22L603.01 188.45L592.65 197.62L583.36 207.56L594.94 219.89L601.63 228.92L611.31 236.19L617.13 241.87L628.63 256.03L638.46 270.55L644.02 278.80L646.82 279.40L658.17 302.13L675.13 329.54L678.53 325.35L689.33 316.46L695.01 314.71L698.00 313.71L708.15 304.28L710.06 302.22L720.51 300.08L731.65 300.90L740.69 311.44L749.35 319.62L759.46 329.36L762.58 332.37L767.91 337.73L776.48 340.74L784.37 342.87L793.12 341.67L804.46 340.12L806.53 348.66L803.54 351.00L799.54 353.60L792.43 356.20L788.51 357.64L783.49 359.03L780.24 361.22L775.70 363.43L770.49 365.73L773.74 374.84L776.03 383.74L778.33 392.74L779.25 396.25L781.67 405.54L784.90 417.98L787.05 426.22L785.37 431.35L783.70 436.48L785.19 444.23L786.86 452.94L777.12 457.37L767.12 461.92L761.72 464.34L757.67 466.15L753.28 471.42L745.61 476.59L742.16 478.92L750.71 491.52L754.27 496.77L761.42 505.95L769.09 515.31L776.62 520.54L780.02 523.01L788.06 529.00L802.59 531.21L807.29 531.64L818.08 532.62L824.80 536.32L833.21 540.96L836.11 542.86L841.45 543.05L846.72 540.37L850.32 538.54L847.04 533.12L845.33 530.35L842.94 526.45L840.43 522.38L842.04 516.45L844.03 511.97L845.16 509.44L850.04 507.65L853.38 507.19L857.88 506.12L861.55 505.26L865.29 504.19L868.86 502.50L873.90 500.10L863.88 491.42L861.70 489.36L856.22 483.31L853.87 480.77L849.95 476.58L844.44 470.77L840.10 464.91L846.17 441.56L846.12 433.53L849.43 430.12L852.73 426.72L845.05 418.58L836.96 408.25L829.28 398.43L826.77 394.39L822.95 388.24L823.54 379.06L824.99 372.66L824.93 355.84L825.63 346.45L826.62 333.06L826.76 329.51L826.94 325.14L827.42 312.80L822.50 301.94L826.53 298.90L829.71 273.15L835.33 262.57L833.64 258.27L828.20 244.51L826.69 240.67L822.30 228.01L818.96 207.70L816.83 193.44L816.29 184.12L806.72 178.06L798.37 175.16L792.92 173.45L789.20 173.55L783.22 173.57L778.83 172.99L773.95 170.34L768.11 167.17L765.53 173.29L764.25 190.74L763.66 198.93L759.26 202.78L757.06 204.88L752.96 206.38L749.33 207.84L743.37 209.39L738.57 208.14L733.70 206.86L730.39 206.41L727.01 206.87L724.35 209.36L721.16 211.12L718.33 211.35L715.65 211.56L711.83 211.87L710.12 214.62L706.06 214.80L701.44 215.00L690.32 215.50L685.16 213.41L678.64 214.68L674.58 212.57Z" data-ward="6" /><path id="ward-2" class="ward" d="M381.25 250.49L380.17 246.70L373.79 242.41L360.93 247.70L355.11 250.82L351.24 252.43L347.38 254.05L345.33 255.89L341.58 259.25L336.01 262.73L333.08 264.56L327.06 263.75L319.95 261.05L316.40 260.28L281.00 261.52L266.93 262.02L260.30 267.65L257.97 278.07L258.60 282.89L259.13 288.10L256.94 297.41L262.51 303.64L269.63 310.91L274.08 314.84L282.75 324.22L284.97 327.26L293.03 337.49L297.69 343.90L302.42 350.39L310.20 354.73L316.63 353.99L319.04 359.26L320.28 364.80L319.02 370.42L317.82 375.77L316.62 380.90L313.92 392.46L311.26 403.85L305.33 429.21L301.26 446.60L294.58 471.20L288.82 492.38L284.34 508.87L281.65 518.78L277.14 535.36L276.33 538.36L279.68 544.54L283.33 551.87L286.32 559.16L287.28 561.92L290.50 571.17L293.09 578.62L295.37 585.17L296.84 589.40L298.95 596.12L300.94 603.01L300.62 608.61L300.32 613.95L299.91 621.32L300.49 628.42L300.87 633.05L308.50 633.21L314.01 633.33L323.92 633.53L342.87 633.58L348.32 633.53L354.22 633.28L358.68 632.96L365.66 634.61L368.55 635.29L373.17 638.59L377.52 647.82L386.01 647.55L389.01 647.89L398.58 648.93L415.42 652.78L413.42 631.87L396.90 611.85L395.95 588.62L402.35 569.24L398.33 557.61L396.67 552.82L393.01 544.61L391.42 542.25L389.88 535.64L388.31 532.12L391.86 530.87L399.67 528.13L412.06 533.63L420.88 537.55L421.41 543.40L422.12 551.03L423.23 557.68L423.46 563.35L426.19 559.74L448.12 549.40L445.48 537.75L445.53 531.42L445.59 521.87L442.48 513.02L441.37 509.87L438.17 491.07L436.08 473.76L435.10 465.66L434.43 462.94L432.64 459.19L427.66 446.64L426.28 443.16L425.33 435.07L424.39 426.97L422.90 409.80L417.06 386.91L423.25 378.26L419.75 378.53L413.33 364.57L414.46 360.60L413.19 355.59L412.15 351.52L408.38 337.00L407.08 332.01L397.30 316.78L395.71 312.84L393.76 308.04L393.05 302.55L391.84 293.11L391.13 287.62L390.53 283.00L389.17 278.24L385.46 265.22L381.25 250.49Z" data-ward="2" /><path id="ward-9" class="ward" d="M852.80 570.85L849.79 568.02L846.73 566.00L841.48 563.69L842.16 560.71L842.76 558.05L842.11 552.85L840.41 548.85L841.45 543.05L836.11 542.86L833.21 540.96L824.80 536.32L818.08 532.62L807.29 531.64L802.59 531.21L788.06 529.00L780.02 523.01L776.62 520.54L769.09 515.31L772.30 524.95L774.08 530.29L770.91 537.32L770.40 543.31L769.51 553.66L768.29 557.86L760.41 562.11L755.33 564.78L747.47 568.91L739.69 572.92L734.45 574.03L731.36 573.05L722.04 570.11L713.63 567.45L704.25 564.59L694.81 563.43L687.95 561.88L680.77 568.92L675.84 573.74L675.11 581.12L674.74 584.83L675.88 587.36L679.84 597.06L682.56 603.57L684.40 608.77L687.58 616.67L686.96 620.87L686.48 624.15L686.75 627.45L687.14 632.10L685.58 637.17L686.13 641.54L686.69 645.91L684.30 649.20L684.28 655.82L682.05 658.79L681.38 663.56L677.34 665.43L677.47 669.01L679.31 678.21L681.15 687.40L679.32 712.77L675.50 737.05L680.58 739.35L686.96 736.69L689.66 744.36L691.11 748.51L689.58 761.18L687.15 762.77L685.98 768.89L684.56 772.16L681.20 773.03L678.63 774.39L677.08 777.22L676.86 780.55L676.56 785.16L675.59 789.13L676.14 792.45L674.18 796.43L672.56 804.05L671.34 809.75L669.02 820.61L669.99 826.22L670.72 830.44L664.87 833.11L656.87 835.28L651.63 834.09L647.68 837.58L642.97 838.31L643.74 841.60L645.00 846.92L649.42 850.01L652.19 851.96L655.93 849.64L662.22 852.33L665.11 856.08L664.27 859.42L667.56 862.97L672.28 863.54L678.72 862.95L681.84 862.66L686.17 864.44L690.04 866.02L692.58 868.04L696.94 868.16L702.88 868.33L707.57 868.03L711.93 869.77L719.63 869.13L733.97 871.00L740.94 870.91L745.07 865.38L746.70 855.39L754.37 846.42L760.43 845.78L765.66 848.00L781.03 854.51L784.26 855.88L795.67 857.39L799.68 859.24L807.78 856.57L810.07 858.66L814.12 863.99L815.26 867.06L816.71 871.14L817.72 875.37L818.55 879.71L819.82 886.24L819.20 892.99L817.25 896.47L814.51 899.50L811.36 900.33L810.19 904.98L809.33 908.42L809.07 910.20L813.17 913.75L815.91 912.96L820.82 911.54L824.48 910.49L829.20 904.65L832.80 906.01L834.57 912.08L838.20 913.20L839.65 909.97L843.05 902.38L844.43 898.46L845.79 894.61L846.95 891.20L844.90 887.64L846.66 885.54L848.43 883.44L851.01 881.06L854.06 879.90L857.26 877.04L862.42 877.01L859.77 873.58L856.08 869.67L853.55 863.65L851.33 858.81L848.20 853.69L852.80 850.58L857.29 850.13L856.32 845.47L854.67 840.63L853.25 836.60L852.12 833.42L852.89 827.44L851.33 825.15L848.66 821.22L846.97 819.05L843.78 814.99L839.20 810.46L834.04 805.36L829.73 803.03L823.60 799.70L820.26 797.89L817.31 795.23L813.38 791.67L810.25 788.85L805.46 784.52L802.23 781.60L799.98 779.57L796.37 776.31L792.61 772.92L789.87 770.43L785.94 766.89L782.60 763.87L779.81 761.35L777.18 758.97L774.58 756.62L770.99 753.38L767.94 752.08L764.63 752.74L762.93 750.47L757.87 747.47L755.93 745.41L752.23 742.39L750.13 737.81L749.40 731.96L748.12 728.99L746.13 724.42L744.90 720.31L743.49 717.59L742.52 714.16L740.19 709.44L737.48 704.98L737.91 700.50L736.85 697.78L736.63 693.81L734.59 688.93L737.34 687.90L740.41 688.75L743.42 689.59L746.30 694.93L748.97 695.53L751.89 695.04L755.19 694.48L757.11 688.91L756.94 686.07L756.74 682.54L755.69 680.02L753.08 676.78L754.43 674.03L755.06 668.80L755.60 664.78L756.13 660.85L756.54 657.83L757.11 653.59L757.68 649.34L761.79 650.55L765.29 653.01L768.35 654.89L774.24 655.52L779.45 656.60L783.72 657.48L788.18 655.91L790.47 652.65L794.45 650.79L797.04 649.58L795.76 645.74L794.71 642.61L793.19 638.03L795.16 635.79L795.90 631.76L799.88 631.07L806.72 630.47L809.60 629.47L813.29 628.19L814.99 630.33L817.54 633.54L820.93 637.81L821.91 640.50L823.39 644.56L826.64 647.23L828.11 650.82L829.54 654.28L832.00 658.70L834.21 661.14L841.94 669.62L844.36 668.25L851.16 664.37L855.99 659.13L851.22 652.91L848.72 647.27L845.09 640.87L843.06 637.79L841.28 635.10L839.01 632.30L835.16 630.32L832.26 628.84L830.42 626.54L826.77 620.06L828.56 614.74L830.45 611.69L836.08 607.34L845.59 599.80L851.58 595.04L862.66 600.24L871.13 606.65L875.97 609.35L878.80 610.92L881.30 606.17L882.85 601.81L879.71 598.53L875.05 595.46L872.43 594.05L870.40 592.05L868.00 588.82L866.25 586.47L863.64 582.95L860.52 578.76L858.91 576.58L852.80 570.85Z" data-ward="9" /><path id="ward-1" class="ward" d="M212.80 284.27L211.35 280.34L210.99 277.06L211.17 274.35L208.71 270.07L205.79 266.48L203.73 263.76L201.23 261.21L199.20 263.32L197.17 265.96L195.00 268.20L191.74 271.24L188.80 272.05L184.64 272.41L179.66 272.95L179.38 275.84L179.15 278.83L176.04 284.60L173.09 283.50L170.73 282.17L166.95 282.08L160.85 281.98L159.29 278.22L156.91 279.54L154.42 277.88L151.27 277.76L146.40 277.10L143.57 278.97L140.88 280.58L137.90 284.18L138.96 288.43L135.55 289.78L132.42 291.41L130.93 296.57L136.11 301.52L129.90 311.07L125.67 308.82L122.04 309.06L117.12 304.36L110.69 301.75L110.10 294.21L107.83 290.02L106.85 287.03L102.70 284.10L99.14 282.07L96.56 280.59L91.01 283.55L85.29 283.35L82.55 285.75L76.26 284.91L71.63 284.15L59.00 285.27L55.66 285.05L48.30 284.57L29.32 286.25L29.58 290.22L19.57 289.37L0.01 289.64L0.00 309.99L32.38 311.35L36.77 329.58L37.86 338.68L38.08 348.83L43.77 358.24L44.86 360.88L46.13 363.94L48.53 371.18L47.92 377.11L49.33 385.46L53.15 394.17L56.19 402.79L53.26 406.98L46.45 414.52L44.82 410.73L42.34 412.78L39.52 414.71L36.30 416.64L31.88 419.64L24.88 421.68L26.42 424.19L26.69 428.57L24.85 433.69L23.69 436.72L22.36 440.19L29.90 443.49L36.56 443.69L40.34 440.10L40.74 433.63L41.54 428.16L46.64 424.17L55.30 417.73L58.65 415.68L63.45 411.15L68.16 410.02L71.11 409.32L79.82 414.59L90.96 421.33L96.80 424.62L102.92 427.00L111.99 430.86L121.48 432.95L129.86 436.52L138.03 438.87L141.42 440.35L146.59 442.60L151.02 444.54L160.45 448.70L166.52 446.19L172.60 443.69L176.70 441.99L182.40 439.64L185.38 437.25L189.73 433.76L194.80 429.70L198.71 426.56L202.40 423.60L209.77 429.08L212.19 430.88L215.00 432.97L216.50 435.62L219.93 441.69L222.16 445.64L227.85 450.44L233.84 451.91L243.39 456.36L247.92 468.48L251.00 476.72L252.74 481.11L254.09 483.70L258.63 491.73L263.19 499.82L266.87 506.34L268.68 509.54L269.56 514.61L268.13 519.66L266.86 523.79L269.05 526.29L272.16 529.82L277.14 535.36L281.65 518.78L284.34 508.87L288.82 492.38L294.58 471.20L301.26 446.60L305.33 429.21L311.26 403.85L313.92 392.46L316.62 380.90L317.82 375.77L319.02 370.42L320.28 364.80L319.04 359.26L316.63 353.99L310.20 354.73L302.42 350.39L297.69 343.90L293.03 337.49L284.97 327.26L282.75 324.22L274.08 314.84L269.63 310.91L262.51 303.64L256.94 297.41L252.59 297.49L250.08 305.93L243.53 306.28L238.80 307.42L233.54 308.11L229.61 308.08L225.11 306.74L221.64 303.95L219.78 300.14L218.06 296.72L216.07 293.09L212.80 284.27Z" data-ward="1" /><path id="ward-5" class="ward" d="M563.18 296.93L559.12 292.58L545.17 295.74L540.66 296.06L538.75 298.25L533.91 301.67L530.69 300.73L528.95 304.27L530.41 306.66L532.90 307.90L532.09 314.70L533.36 320.00L534.66 324.15L530.97 329.51L540.02 327.38L545.43 326.10L549.89 327.56L558.23 338.39L568.96 346.64L571.41 361.70L570.73 369.22L570.38 373.00L577.67 380.60L583.57 384.99L587.40 384.50L592.20 383.07L595.79 381.75L602.94 379.77L611.16 382.56L616.46 387.30L622.79 393.02L627.19 393.80L635.67 395.28L647.74 399.34L651.95 400.75L657.29 407.87L658.13 418.02L660.93 426.04L664.08 432.02L665.83 436.60L667.03 439.76L669.53 446.45L676.04 452.16L682.51 457.84L683.88 464.95L684.57 476.14L688.31 487.42L687.55 490.61L687.22 496.14L678.93 496.74L669.22 499.47L661.59 498.91L656.06 501.45L650.52 503.99L650.00 508.57L650.21 515.73L650.38 521.69L650.40 526.68L654.06 528.07L657.83 530.58L660.24 533.61L664.30 538.71L669.21 543.09L676.23 549.72L680.29 553.56L683.92 556.93L686.28 559.12L687.95 561.88L694.81 563.43L704.25 564.59L713.63 567.45L722.04 570.11L731.36 573.05L734.45 574.03L739.69 572.92L747.47 568.91L755.33 564.78L760.41 562.11L768.29 557.86L769.51 553.66L770.40 543.31L770.91 537.32L774.08 530.29L772.30 524.95L769.09 515.31L761.42 505.95L754.27 496.77L750.71 491.52L742.16 478.92L745.61 476.59L753.28 471.42L757.67 466.15L761.72 464.34L767.12 461.92L777.12 457.37L786.86 452.94L785.19 444.23L783.70 436.48L785.37 431.35L787.05 426.22L784.90 417.98L781.67 405.54L779.25 396.25L778.33 392.74L776.03 383.74L773.74 374.84L770.49 365.73L775.70 363.43L780.24 361.22L783.49 359.03L788.51 357.64L792.43 356.20L799.54 353.60L803.54 351.00L806.53 348.66L804.46 340.12L793.12 341.67L784.37 342.87L776.48 340.74L767.91 337.73L762.58 332.37L759.46 329.36L749.35 319.62L740.69 311.44L731.65 300.90L720.51 300.08L710.06 302.22L708.15 304.28L698.00 313.71L695.01 314.71L689.33 316.46L678.53 325.35L675.13 329.54L668.73 334.17L672.43 340.86L674.90 347.33L676.20 353.11L676.71 357.90L666.94 358.91L658.75 380.05L654.50 388.92L633.27 382.81L634.06 361.04L630.29 359.83L622.63 357.89L616.11 351.26L603.77 339.74L599.71 334.99L589.98 326.87L584.46 320.60L580.29 313.99L573.88 305.76L568.81 302.79L563.18 296.93Z" data-ward="5" /><path id="ward-3" class="ward" d="M326.39 249.76L325.72 238.73L325.11 238.46L326.15 234.97L318.29 232.08L318.34 232.03L314.95 229.21L311.91 225.59L310.38 222.91L308.91 220.31L307.62 220.52L298.07 216.42L295.60 235.65L285.64 236.38L276.53 225.25L265.53 231.88L267.91 238.70L255.13 241.28L254.94 254.66L266.01 254.44L266.93 262.02L281.00 261.52L316.40 260.28L319.95 261.05L327.06 263.75L333.08 264.56L336.01 262.73L341.58 259.25L345.33 255.89L347.38 254.05L351.24 252.43L355.11 250.82L360.93 247.70L373.79 242.41L380.17 246.70L381.25 250.49L385.46 265.22L389.17 278.24L390.53 283.00L391.13 287.62L391.84 293.11L393.05 302.55L393.76 308.04L395.71 312.84L397.30 316.78L407.08 332.01L408.38 337.00L412.15 351.52L413.19 355.59L414.46 360.60L413.33 364.57L419.75 378.53L423.25 378.26L417.06 386.91L422.90 409.80L424.39 426.97L425.33 435.07L426.28 443.16L427.66 446.64L432.64 459.19L434.43 462.94L435.10 465.66L436.08 473.76L438.17 491.07L441.37 509.87L442.48 513.02L445.59 521.87L445.53 531.42L445.48 537.75L448.12 549.40L454.40 549.70L460.74 550.00L465.99 550.43L469.68 555.35L473.37 560.27L478.93 559.20L481.53 560.02L480.72 563.73L478.33 574.71L480.21 577.69L483.58 581.65L487.91 584.34L497.87 589.58L510.44 586.91L514.64 585.06L515.20 581.01L515.27 566.66L515.32 557.14L517.19 548.64L518.56 542.43L519.80 536.80L522.15 531.65L521.78 527.56L521.31 523.96L520.73 519.49L520.25 515.80L518.98 505.98L519.05 495.45L517.79 490.43L515.02 479.34L510.19 469.90L507.90 465.44L504.29 458.43L506.93 451.07L509.75 443.18L511.91 431.20L512.82 426.13L513.56 422.01L512.94 411.67L512.54 405.01L512.84 397.49L513.21 388.12L509.58 384.15L507.78 374.45L507.56 366.85L507.33 359.11L509.90 344.52L507.71 336.85L510.04 329.67L508.01 325.69L504.99 319.88L495.66 321.00L487.63 324.09L483.67 322.62L474.16 325.49L465.78 313.43L466.41 320.50L457.20 320.23L456.09 313.43L457.68 301.95L462.69 291.29L458.38 288.34L454.34 265.31L448.66 255.10L448.18 249.87L437.74 245.37L437.33 238.90L427.62 244.36L408.78 244.14L414.17 235.73L405.32 239.00L399.77 238.78L392.24 237.42L391.85 234.09L389.33 231.49L384.73 229.27L375.98 235.52L363.99 237.15L355.71 238.96L352.83 242.04L347.28 248.70L338.84 248.76L327.74 252.42L326.85 250.68L326.44 250.68L326.39 249.76Z" data-ward="3" /><path id="ward-11" class="ward" d="M550.10 567.66L546.28 559.03L543.99 550.53L541.64 541.88L533.58 539.77L530.37 537.49L522.15 531.65L519.80 536.80L518.56 542.43L517.19 548.64L515.32 557.14L515.27 566.66L515.20 581.01L514.64 585.06L514.76 591.44L514.87 597.58L514.96 602.74L517.86 609.36L520.19 614.68L522.33 619.59L523.87 625.67L526.30 635.28L528.56 644.21L529.88 646.80L530.61 651.16L532.71 657.66L533.90 664.24L535.44 672.68L538.20 679.03L541.33 686.21L543.94 692.23L546.76 698.70L548.13 705.03L549.43 709.43L549.49 712.75L549.56 717.16L554.17 725.99L557.80 732.94L561.31 741.50L562.89 745.39L564.80 747.94L566.99 750.88L571.12 756.75L573.55 760.61L575.56 763.79L578.39 770.61L581.73 778.04L584.78 784.84L588.70 790.49L592.62 796.14L595.22 799.54L598.24 803.48L604.28 811.37L606.12 813.77L609.21 819.71L610.99 823.14L612.98 826.96L617.53 837.02L623.73 837.69L632.93 838.68L638.17 838.49L642.97 838.31L647.68 837.58L651.63 834.09L656.87 835.28L664.87 833.11L670.72 830.44L669.99 826.22L669.02 820.61L671.34 809.75L672.56 804.05L674.18 796.43L676.14 792.45L675.59 789.13L676.56 785.16L676.86 780.55L677.08 777.22L678.63 774.39L681.20 773.03L684.56 772.16L685.98 768.89L687.15 762.77L689.58 761.18L691.11 748.51L689.66 744.36L686.96 736.69L680.58 739.35L675.50 737.05L679.32 712.77L681.15 687.40L679.31 678.21L677.47 669.01L677.34 665.43L681.38 663.56L682.05 658.79L684.28 655.82L684.30 649.20L686.69 645.91L686.13 641.54L685.58 637.17L687.14 632.10L686.75 627.45L686.48 624.15L686.96 620.87L687.58 616.67L684.40 608.77L682.56 603.57L679.84 597.06L675.88 587.36L674.74 584.83L675.11 581.12L675.84 573.74L665.25 576.30L656.36 578.12L649.80 578.98L646.11 579.87L642.09 581.97L639.06 581.11L634.69 579.88L631.79 579.78L627.59 580.59L621.08 581.84L618.07 583.68L617.17 586.77L616.72 590.14L615.49 596.49L614.75 600.33L615.51 603.12L616.87 609.13L617.61 614.66L617.75 618.79L613.74 622.24L608.51 622.26L605.44 622.62L598.36 623.45L594.01 622.14L590.27 621.02L586.17 619.78L580.28 618.01L579.99 610.08L578.14 600.50L577.29 596.08L575.52 593.10L573.13 589.06L571.05 585.54L568.57 581.36L564.85 579.80L557.67 576.80L553.62 576.89L550.10 567.66Z" data-ward="11" /><path id="ward-13" class="ward" d="M374.63 713.77L367.10 705.95L344.20 698.06L339.74 689.74L333.02 682.67L325.99 678.85L319.76 675.03L305.53 662.38L306.36 653.98L297.71 646.06L296.19 640.47L298.56 636.71L300.87 633.05L300.49 628.42L299.91 621.32L300.32 613.95L300.62 608.61L300.94 603.01L298.95 596.12L296.84 589.40L295.37 585.17L293.09 578.62L290.50 571.17L287.28 561.92L286.32 559.16L283.33 551.87L279.68 544.54L276.33 538.36L277.14 535.36L272.16 529.82L269.05 526.29L266.86 523.79L255.08 536.37L244.51 537.08L240.54 537.34L228.43 541.94L227.14 546.91L225.40 553.66L223.10 562.53L217.72 569.84L226.09 578.82L229.92 590.57L231.75 596.19L232.90 599.10L238.74 605.54L242.14 609.30L247.91 611.88L252.86 611.95L257.34 614.05L266.05 618.14L271.25 622.05L275.64 625.36L277.33 629.15L274.66 636.15L272.91 640.74L269.40 647.51L263.83 652.05L255.33 656.77L253.09 664.01L250.28 676.74L248.63 684.21L241.27 684.89L225.62 690.67L195.68 715.58L180.16 706.95L172.24 702.55L166.39 711.46L167.32 721.56L167.95 726.82L168.33 729.96L168.41 733.52L168.73 742.56L168.89 747.08L167.03 756.31L162.71 758.10L158.42 759.89L152.86 764.50L150.29 766.63L152.38 771.74L150.37 778.03L146.38 783.97L144.74 787.37L148.65 792.70L152.37 793.36L163.01 796.99L163.54 797.12L166.55 797.67L172.75 796.61L174.46 796.51L175.14 796.53L180.55 797.07L184.44 799.61L185.69 806.34L186.23 807.71L190.29 817.99L193.43 820.74L198.67 822.19L204.09 822.55L208.09 822.82L208.69 827.88L215.25 832.39L218.99 832.54L227.53 828.66L233.13 833.90L238.42 839.49L246.95 836.16L249.34 832.23L257.47 824.68L275.49 833.54L281.32 829.12L285.74 829.48L288.71 829.73L296.85 824.21L303.35 828.44L305.34 830.91L308.40 832.85L315.20 832.70L317.94 832.73L321.55 833.12L329.20 832.72L334.91 832.43L340.27 832.15L347.06 831.45L350.30 821.91L353.48 823.05L358.96 823.13L362.42 821.19L363.98 818.88L367.43 813.77L372.12 812.12L378.04 808.40L384.30 807.43L389.98 812.40L396.04 813.58L402.88 814.90L403.86 824.19L412.79 825.94L423.85 828.11L428.66 829.06L431.74 829.98L437.06 828.75L440.40 830.55L444.24 829.29L455.38 825.61L468.84 821.17L475.32 819.03L483.78 815.44L480.66 811.23L477.65 807.17L474.25 801.70L471.86 794.59L470.63 790.70L466.94 788.36L448.05 789.70L439.30 784.02L430.82 779.61L425.13 776.65L416.61 773.69L413.99 772.67L410.22 770.87L404.10 767.74L401.98 761.83L397.55 753.94L393.79 751.86L394.57 746.00L394.37 742.60L394.21 739.52L392.63 733.65L391.90 729.76L390.81 723.97L385.65 723.35L380.60 721.01L374.63 713.77Z" data-ward="13" /><path id="ward-14" class="ward" d="M146.59 442.60L141.42 440.35L138.03 438.87L129.86 436.52L121.48 432.95L111.99 430.86L102.92 427.00L96.80 424.62L90.96 421.33L79.82 414.59L71.11 409.32L68.16 410.02L63.45 411.15L58.65 415.68L55.30 417.73L46.64 424.17L41.54 428.16L40.74 433.63L40.34 440.10L36.56 443.69L29.90 443.49L28.19 448.94L24.51 450.81L21.30 454.33L18.42 457.49L15.31 460.90L7.98 464.15L12.11 469.76L11.94 473.74L17.87 474.99L23.63 476.24L28.68 480.74L20.72 495.91L19.49 502.17L20.48 511.82L26.19 525.73L36.64 547.14L41.88 562.46L52.08 574.43L48.60 584.74L51.10 586.22L54.81 588.42L62.52 594.75L65.24 597.27L72.09 598.76L78.67 602.78L85.88 607.18L90.58 611.24L93.21 613.51L96.56 620.96L97.82 623.82L101.75 632.98L105.50 637.44L108.91 642.16L114.33 649.67L119.25 657.92L124.45 669.88L123.27 673.32L122.06 676.83L119.83 683.34L118.36 687.61L116.77 690.08L114.90 692.98L112.19 696.92L110.68 701.65L114.98 705.64L117.88 706.30L126.11 708.19L128.69 713.48L129.19 722.25L129.49 725.25L129.98 730.19L131.30 735.88L132.17 739.65L134.59 746.36L135.55 749.00L140.39 755.59L145.28 761.34L150.29 766.63L152.86 764.50L158.42 759.89L162.71 758.10L167.03 756.31L168.89 747.08L168.73 742.56L168.41 733.52L168.33 729.96L167.95 726.82L167.32 721.56L166.39 711.46L172.24 702.55L180.16 706.95L195.68 715.58L225.62 690.67L241.27 684.89L248.63 684.21L250.28 676.74L253.09 664.01L255.33 656.77L263.83 652.05L269.40 647.51L272.91 640.74L274.66 636.15L277.33 629.15L275.64 625.36L271.25 622.05L266.05 618.14L257.34 614.05L252.86 611.95L247.91 611.88L242.14 609.30L238.74 605.54L232.90 599.10L231.75 596.19L229.92 590.57L226.09 578.82L217.72 569.84L223.10 562.53L225.40 553.66L227.14 546.91L228.43 541.94L240.54 537.34L244.51 537.08L255.08 536.37L266.86 523.79L268.13 519.66L269.56 514.61L268.68 509.54L266.87 506.34L263.19 499.82L258.63 491.73L254.09 483.70L252.74 481.11L251.00 476.72L247.92 468.48L243.39 456.36L233.84 451.91L227.85 450.44L222.16 445.64L219.93 441.69L216.50 435.62L215.00 432.97L212.19 430.88L209.77 429.08L202.40 423.60L198.71 426.56L194.80 429.70L189.73 433.76L185.38 437.25L182.40 439.64L176.70 441.99L172.60 443.69L166.52 446.19L160.45 448.70L151.02 444.54L146.59 442.60Z" data-ward="14" /><path id="ward-7" class="ward" d="M795.81 35.18L793.44 31.07L786.14 26.28L783.95 20.86L780.49 21.87L777.43 24.14L775.36 26.80L774.02 30.27L768.37 30.77L765.31 30.90L757.39 33.92L754.79 36.64L749.92 36.05L746.11 34.63L739.65 34.51L736.33 34.01L735.54 37.23L734.81 41.74L733.16 44.77L729.78 44.89L726.18 48.35L709.30 57.81L709.52 63.38L706.90 66.46L706.67 70.82L697.95 82.56L691.09 89.17L689.43 95.26L686.38 102.49L681.34 107.90L675.06 105.30L666.80 101.48L656.49 97.64L653.81 97.38L650.72 96.43L647.94 95.43L644.50 95.11L639.49 94.80L635.33 94.41L630.95 98.18L623.91 102.71L620.92 102.49L612.35 96.01L608.33 95.10L599.21 98.40L594.01 97.46L591.34 97.12L585.89 103.76L580.88 105.56L579.84 115.76L577.25 121.61L574.23 122.32L568.25 120.06L562.48 119.53L563.12 123.10L566.66 136.66L567.99 139.39L572.25 139.71L571.37 143.09L575.75 148.08L579.03 150.88L582.30 150.32L593.97 148.05L613.01 154.33L627.58 160.63L646.23 168.70L659.76 187.70L671.72 198.37L672.90 204.22L674.58 212.57L678.64 214.68L685.16 213.41L690.32 215.50L701.44 215.00L706.06 214.80L710.12 214.62L711.83 211.87L715.65 211.56L718.33 211.35L721.16 211.12L724.35 209.36L727.01 206.87L730.39 206.41L733.70 206.86L738.57 208.14L743.37 209.39L749.33 207.84L752.96 206.38L757.06 204.88L759.26 202.78L763.66 198.93L764.25 190.74L765.53 173.29L768.11 167.17L773.95 170.34L778.83 172.99L783.22 173.57L789.20 173.55L792.92 173.45L798.37 175.16L806.72 178.06L816.29 184.12L816.83 193.44L821.48 190.68L836.04 187.76L847.09 187.74L843.27 181.72L837.09 169.37L837.51 164.98L838.43 155.37L836.53 149.27L834.94 144.15L832.16 137.66L826.37 124.12L822.53 116.70L818.96 110.80L817.53 108.37L815.28 105.55L811.21 93.94L809.13 88.00L801.54 77.70L800.11 67.57L801.08 63.68L802.55 57.86L803.58 53.75L802.12 49.01L799.95 41.98L798.12 39.18L795.81 35.18Z" data-ward="7" /><path id="ward-8" class="ward" d="M854.10 1.27L848.90 0.83L840.60 0.00L838.46 7.86L837.36 11.09L833.67 14.00L830.16 16.45L826.78 15.99L823.46 17.18L819.36 18.25L815.40 17.69L812.15 16.06L809.35 16.49L804.57 17.85L801.34 18.73L795.76 19.08L791.64 20.89L788.00 18.61L783.95 20.86L786.14 26.28L793.44 31.07L795.81 35.18L798.12 39.18L799.95 41.98L802.12 49.01L803.58 53.75L802.55 57.86L801.08 63.68L800.11 67.57L801.54 77.70L809.13 88.00L811.21 93.94L815.28 105.55L817.53 108.37L818.96 110.80L822.53 116.70L826.37 124.12L832.16 137.66L834.94 144.15L836.53 149.27L838.43 155.37L837.51 164.98L837.09 169.37L843.27 181.72L847.09 187.74L836.04 187.76L821.48 190.68L816.83 193.44L818.96 207.70L822.30 228.01L826.69 240.67L828.20 244.51L833.64 258.27L835.33 262.57L829.71 273.15L826.53 298.90L822.50 301.94L827.42 312.80L826.94 325.14L826.76 329.51L826.62 333.06L825.63 346.45L824.93 355.84L824.99 372.66L823.54 379.06L822.95 388.24L826.77 394.39L829.28 398.43L836.96 408.25L845.05 418.58L852.73 426.72L849.43 430.12L846.12 433.53L846.17 441.56L840.10 464.91L844.44 470.77L849.95 476.58L853.87 480.77L856.22 483.31L861.70 489.36L863.88 491.42L873.90 500.10L876.84 504.15L878.52 506.46L880.18 508.74L882.24 511.58L884.12 518.90L884.90 521.90L886.55 528.32L887.93 532.49L889.21 536.39L890.91 540.09L894.19 540.45L899.90 539.20L906.30 537.80L910.11 536.97L913.78 536.17L918.44 535.15L923.84 535.06L926.87 535.01L927.35 530.88L927.52 525.25L926.54 519.19L926.03 516.03L925.40 512.15L924.25 508.89L928.14 506.99L934.39 503.94L940.62 500.89L943.77 499.36L942.61 493.30L942.32 488.25L942.01 482.70L941.74 478.96L940.11 475.37L935.33 476.19L932.12 471.63L930.55 469.40L927.69 468.58L925.66 466.41L923.76 464.39L919.42 463.62L916.63 462.37L913.85 461.13L909.48 459.87L904.00 451.57L900.93 449.33L898.88 444.89L894.89 445.12L893.03 447.39L892.81 450.45L889.29 452.73L887.38 454.63L883.25 453.53L879.11 449.13L878.03 444.90L876.49 436.81L874.97 433.01L873.63 429.67L874.98 425.07L871.96 419.51L868.95 413.96L867.93 410.52L866.97 407.27L866.04 404.10L869.79 402.27L871.69 404.73L874.28 408.10L877.28 406.36L879.62 405.00L883.08 403.00L885.61 401.53L889.87 399.06L893.22 396.49L897.40 393.29L900.82 391.13L902.91 388.30L908.80 384.30L906.10 378.78L902.14 375.11L901.42 370.87L900.57 365.85L906.93 366.11L915.02 366.43L927.26 366.49L934.87 365.08L938.22 364.47L944.88 363.41L948.58 362.82L951.40 359.59L953.05 354.26L954.95 349.81L956.18 346.93L957.22 340.99L958.85 337.04L960.38 331.35L962.57 328.17L967.49 328.85L971.18 326.76L975.10 323.91L977.85 321.91L981.56 318.49L984.12 316.57L986.79 314.59L988.36 310.14L987.96 306.63L987.63 303.73L984.26 301.48L980.96 297.94L977.45 296.47L973.74 294.26L975.50 291.81L977.26 289.35L980.11 284.36L982.93 280.34L984.55 277.22L989.32 275.32L990.97 272.71L993.46 267.02L996.50 260.08L996.77 256.14L1000.00 244.63L999.90 241.61L989.47 236.58L973.21 210.35L963.08 186.48L934.99 189.37L918.62 184.38L906.19 183.54L898.53 176.21L894.78 168.43L897.06 166.31L892.14 154.25L889.23 148.74L882.46 140.44L879.07 136.36L879.75 124.68L887.84 108.25L888.81 104.44L889.26 96.15L886.25 85.12L880.34 69.68L880.42 53.27L881.13 48.84L897.21 42.67L898.44 38.33L899.14 33.62L888.29 27.54L878.90 21.29L876.19 18.30L873.85 16.85L866.07 9.96L858.43 10.70L854.73 11.32L854.10 1.27Z" data-ward="8" /><path id="ward-4" class="ward" d="M577.67 380.60L570.38 373.00L570.73 369.22L571.41 361.70L568.96 346.64L558.23 338.39L549.89 327.56L545.43 326.10L540.02 327.38L530.97 329.51L525.61 329.55L520.13 329.59L514.26 329.64L510.04 329.67L507.71 336.85L509.90 344.52L507.33 359.11L507.56 366.85L507.78 374.45L509.58 384.15L513.21 388.12L512.84 397.49L512.54 405.01L512.94 411.67L513.56 422.01L512.82 426.13L511.91 431.20L509.75 443.18L506.93 451.07L504.29 458.43L507.90 465.44L510.19 469.90L515.02 479.34L517.79 490.43L519.05 495.45L518.98 505.98L520.25 515.80L520.73 519.49L521.31 523.96L521.78 527.56L522.15 531.65L530.37 537.49L533.58 539.77L541.64 541.88L543.99 550.53L546.28 559.03L550.10 567.66L553.62 576.89L557.67 576.80L564.85 579.80L568.57 581.36L571.05 585.54L573.13 589.06L575.52 593.10L577.29 596.08L578.14 600.50L579.99 610.08L580.28 618.01L586.17 619.78L590.27 621.02L594.01 622.14L598.36 623.45L605.44 622.62L608.51 622.26L613.74 622.24L617.75 618.79L617.61 614.66L616.87 609.13L615.51 603.12L614.75 600.33L615.49 596.49L616.72 590.14L617.17 586.77L618.07 583.68L621.08 581.84L627.59 580.59L631.79 579.78L634.69 579.88L639.06 581.11L642.09 581.97L646.11 579.87L649.80 578.98L656.36 578.12L665.25 576.30L675.84 573.74L680.77 568.92L687.95 561.88L686.28 559.12L683.92 556.93L680.29 553.56L676.23 549.72L669.21 543.09L664.30 538.71L660.24 533.61L657.83 530.58L654.06 528.07L650.40 526.68L650.38 521.69L650.21 515.73L650.00 508.57L650.52 503.99L656.06 501.45L661.59 498.91L669.22 499.47L678.93 496.74L687.22 496.14L687.55 490.61L688.31 487.42L684.57 476.14L683.88 464.95L682.51 457.84L676.04 452.16L669.53 446.45L667.03 439.76L665.83 436.60L664.08 432.02L660.93 426.04L658.13 418.02L657.29 407.87L651.95 400.75L647.74 399.34L635.67 395.28L627.19 393.80L622.79 393.02L616.46 387.30L611.16 382.56L602.94 379.77L595.79 381.75L592.20 383.07L587.40 384.50L583.57 384.99L577.67 380.60Z" data-ward="4" /><path id="ward-12" class="ward" d="M423.23 557.68L422.12 551.03L421.41 543.40L420.88 537.55L412.06 533.63L399.67 528.13L391.86 530.87L388.31 532.12L389.88 535.64L391.42 542.25L393.01 544.61L396.67 552.82L398.33 557.61L402.35 569.24L395.95 588.62L396.90 611.85L413.42 631.87L415.42 652.78L398.58 648.93L389.01 647.89L386.01 647.55L377.52 647.82L373.17 638.59L368.55 635.29L365.66 634.61L358.68 632.96L354.22 633.28L348.32 633.53L342.87 633.58L323.92 633.53L314.01 633.33L308.50 633.21L300.87 633.05L298.56 636.71L296.19 640.47L297.71 646.06L306.36 653.98L305.53 662.38L319.76 675.03L325.99 678.85L333.02 682.67L339.74 689.74L344.20 698.06L367.10 705.95L374.63 713.77L380.60 721.01L385.65 723.35L390.81 723.97L391.90 729.76L392.63 733.65L394.21 739.52L394.37 742.60L394.57 746.00L393.79 751.86L397.55 753.94L401.98 761.83L404.10 767.74L410.22 770.87L413.99 772.67L416.61 773.69L425.13 776.65L430.82 779.61L439.30 784.02L448.05 789.70L466.94 788.36L470.63 790.70L471.86 794.59L474.25 801.70L477.65 807.17L480.66 811.23L483.78 815.44L488.62 814.34L496.67 823.95L503.35 825.39L514.73 817.43L520.20 815.60L525.69 813.76L536.84 810.02L546.13 809.25L550.48 817.33L556.53 821.98L557.62 827.48L564.98 825.68L570.30 831.44L574.34 835.81L585.05 837.83L589.19 841.95L591.53 844.22L588.84 849.26L590.85 853.23L590.60 857.52L619.07 853.59L617.53 837.02L612.98 826.96L610.99 823.14L609.21 819.71L606.12 813.77L604.28 811.37L598.24 803.48L595.22 799.54L592.62 796.14L588.70 790.49L584.78 784.84L581.73 778.04L578.39 770.61L575.56 763.79L573.55 760.61L571.12 756.75L566.99 750.88L564.80 747.94L562.89 745.39L561.31 741.50L557.80 732.94L554.17 725.99L549.56 717.16L549.49 712.75L549.43 709.43L548.13 705.03L546.76 698.70L543.94 692.23L541.33 686.21L538.20 679.03L535.44 672.68L533.90 664.24L532.71 657.66L530.61 651.16L529.88 646.80L528.56 644.21L526.30 635.28L523.87 625.67L522.33 619.59L520.19 614.68L517.86 609.36L514.96 602.74L514.87 597.58L514.76 591.44L514.64 585.06L510.44 586.91L497.87 589.58L487.91 584.34L483.58 581.65L480.21 577.69L478.33 574.71L480.72 563.73L481.53 560.02L478.93 559.20L473.37 560.27L469.68 555.35L465.99 550.43L460.74 550.00L454.40 549.70L448.12 549.40L426.19 559.74L423.46 563.35L423.23 557.68Z" data-ward="12" /><path id="ward-10" class="ward" d="M588.58 854.34L585.86 859.11L589.65 862.86L594.21 867.37L598.00 871.61L601.40 875.01L604.64 878.26L607.90 881.53L604.70 884.46L600.39 887.59L596.82 889.77L591.78 898.60L592.13 902.66L593.41 907.85L594.39 911.83L595.16 914.95L595.84 917.69L596.46 920.86L592.06 922.51L586.27 924.07L585.28 925.37L586.31 927.62L587.68 934.92L588.08 943.80L588.28 948.34L589.04 951.73L584.31 952.78L578.95 953.80L576.34 957.00L572.86 961.27L574.11 963.88L577.99 966.77L580.84 969.43L582.90 971.35L585.16 972.83L587.50 974.31L589.85 975.79L593.12 977.52L596.11 975.85L601.05 978.81L604.57 974.93L614.44 978.23L620.81 974.07L625.49 972.25L628.25 971.40L632.27 970.17L632.64 974.01L633.02 977.91L634.69 983.94L636.52 990.58L637.44 993.89L638.88 999.09L641.26 1007.73L642.78 1013.22L644.06 1017.84L644.99 1021.21L641.10 1023.14L638.50 1029.11L635.17 1032.55L634.86 1037.09L634.92 1046.05L633.70 1055.70L632.52 1058.56L629.79 1065.66L627.67 1072.10L634.18 1072.29L637.15 1072.76L639.83 1073.45L643.35 1074.36L652.52 1095.83L654.88 1101.36L657.87 1101.47L660.34 1099.19L661.45 1092.58L666.82 1090.53L672.56 1088.35L671.36 1083.55L670.19 1078.93L670.13 1072.79L670.11 1069.94L673.71 1065.59L676.61 1062.09L680.24 1057.70L684.12 1053.02L695.36 1045.07L693.59 1040.40L690.41 1039.19L687.31 1039.04L681.99 1039.58L684.72 1036.43L681.26 1034.39L674.28 1032.90L671.15 1032.48L672.33 1027.51L673.11 1024.18L675.17 1021.81L672.39 1018.58L670.59 1016.50L668.55 1014.14L667.49 1008.58L678.38 1006.13L677.81 1002.00L677.36 998.76L680.98 997.11L683.83 995.81L686.37 994.65L688.96 991.14L691.68 987.46L694.46 984.47L697.75 982.74L702.22 976.41L700.45 973.15L698.67 970.90L697.81 965.72L697.36 963.02L696.79 959.57L698.93 955.06L701.88 955.17L706.67 955.36L710.11 951.34L714.07 952.02L721.17 950.47L725.87 951.62L728.62 952.14L733.43 951.42L736.17 948.96L739.78 948.52L739.49 945.18L739.98 939.09L739.27 934.56L737.77 931.27L740.44 930.60L739.64 927.14L738.73 923.22L745.13 920.04L746.60 910.61L751.30 908.66L754.65 907.35L759.29 905.49L768.72 913.77L770.57 917.51L772.51 923.28L777.09 921.71L784.50 919.31L785.21 916.60L786.69 914.93L786.22 911.86L791.47 910.13L794.25 909.22L797.78 909.33L802.06 910.73L806.77 910.41L809.33 908.42L810.19 904.98L811.36 900.33L814.51 899.50L817.25 896.47L819.20 892.99L819.82 886.24L818.55 879.71L817.72 875.37L816.71 871.14L815.26 867.06L814.12 863.99L810.07 858.66L807.78 856.57L799.68 859.24L795.67 857.39L784.26 855.88L781.03 854.51L765.66 848.00L760.43 845.78L754.37 846.42L746.70 855.39L745.07 865.38L740.94 870.91L733.97 871.00L719.63 869.13L711.93 869.77L707.57 868.03L702.88 868.33L696.94 868.16L692.58 868.04L690.04 866.02L686.17 864.44L681.84 862.66L678.72 862.95L672.28 863.54L667.56 862.97L664.27 859.42L665.11 856.08L662.22 852.33L655.93 849.64L652.19 851.96L649.42 850.01L645.00 846.92L643.74 841.60L642.97 838.31L638.17 838.49L632.93 838.68L623.73 837.69L617.53 837.02L619.07 853.59L590.60 857.52L590.85 853.23L588.84 849.26L591.53 844.22L589.19 841.95L585.05 837.83L574.34 835.81L570.30 831.44L564.98 825.68L557.62 827.48L556.53 821.98L550.48 817.33L546.13 809.25L536.84 810.02L525.69 813.76L520.20 815.60L514.73 817.43L503.35 825.39L496.67 823.95L488.62 814.34L483.78 815.44L475.32 819.03L468.84 821.17L455.38 825.61L444.24 829.29L440.40 830.55L442.23 842.03L449.85 844.71L453.11 845.55L455.97 849.08L457.94 851.74L459.19 854.51L460.66 857.77L467.19 858.25L468.86 860.92L473.91 869.00L477.70 872.90L481.26 877.45L485.57 881.49L487.69 883.45L491.94 881.66L497.51 879.73L500.79 878.97L503.70 878.22L507.26 877.63L510.88 879.52L512.67 881.58L512.77 885.01L514.78 887.11L516.38 889.55L518.28 892.09L522.53 892.75L524.25 889.73L523.50 884.05L522.91 879.62L521.15 872.98L520.43 865.37L520.66 859.88L521.58 856.27L519.00 852.36L517.23 849.68L513.80 847.63L510.10 845.42L505.50 844.76L502.73 839.93L505.21 837.82L505.85 835.09L509.67 831.64L512.89 827.91L514.85 825.79L518.89 823.14L522.89 821.05L527.55 818.61L533.18 815.67L537.47 813.44L543.79 814.87L545.46 820.73L550.08 820.42L555.30 822.68L554.28 827.73L555.55 832.08L559.58 832.01L563.58 831.95L569.01 835.93L571.19 838.47L577.88 841.48L581.77 841.85L587.00 843.35L586.80 843.70L587.60 844.86L587.60 844.86L587.49 844.96L587.51 845.16L587.52 845.36L587.33 845.54L585.07 847.68L584.28 848.42L584.14 848.45L586.11 851.07L588.58 854.34Z" data-ward="10" /></svg>