<svg viewBox="0 0 1000.00 980.51" xmlns="http://www.w3.org/2000/svg"><style>.ward { fill: #e2e8f0; stroke: #fff; stroke-width: 0.5px; } .ward:hover { fill: #cbd5e1; }</style><path id="ward-7" class="ward" d="M757.79 492.58L757.81 487.86L757.98 485.07L753.66 483.75L750.63 483.30L746.77 482.04L743.48 490.03L743.39 492.87L742.43 495.50L742.68 499.60L743.02 502.39L743.79 504.95L745.48 508.69L746.10 511.49L746.02 514.11L745.75 518.71L744.79 521.92L742.29 521.84L738.39 521.44L733.57 520.49L731.23 518.73L729.49 517.31L726.59 516.36L723.28 515.28L719.20 514.80L717.89 516.65L715.08 516.15L712.02 515.32L709.84 514.84L707.10 514.94L704.15 515.15L699.20 515.71L697.03 516.60L696.17 519.73L693.57 520.39L690.33 520.48L687.60 520.75L685.17 520.67L682.11 520.78L678.08 520.76L675.93 521.94L676.47 526.11L673.64 525.90L669.25 525.57L666.19 525.58L661.21 526.88L661.07 529.23L660.74 534.19L660.48 536.65L660.24 538.95L659.75 543.37L659.82 545.65L659.72 548.01L659.45 551.03L659.22 553.26L658.39 559.38L658.08 563.20L657.89 565.53L657.58 569.48L657.48 573.06L657.41 575.66L657.27 578.78L656.67 581.91L653.79 583.55L650.23 584.57L648.01 586.04L645.66 589.07L644.49 591.18L643.47 593.48L641.80 597.73L640.79 600.30L640.53 602.73L640.60 605.19L641.15 607.96L641.76 611.90L642.59 614.48L643.76 618.22L645.45 620.60L648.49 621.08L652.27 622.04L654.65 622.87L658.70 624.82L662.51 626.85L664.89 628.10L667.25 629.41L669.91 630.66L672.36 631.19L676.58 630.91L679.44 630.77L682.21 630.83L685.14 630.98L688.34 631.24L691.37 631.65L694.43 632.48L696.96 633.53L699.26 634.25L701.62 635.61L704.58 637.53L707.60 638.93L709.84 639.77L712.48 640.88L715.35 642.36L719.01 643.06L723.02 643.11L726.35 643.71L728.68 644.27L731.75 645.60L738.51 648.90L742.29 650.17L749.45 650.92L755.72 652.53L760.07 653.88L765.30 655.26L770.54 656.63L774.82 652.24L776.03 649.47L778.08 644.20L786.12 643.09L801.03 641.86L811.59 641.79L821.93 641.79L821.16 628.94L821.18 615.46L821.36 604.58L822.79 598.26L811.66 595.67L807.57 595.01L797.72 593.57L785.87 594.95L780.79 581.77L781.30 571.79L783.89 572.52L789.76 574.08L795.25 574.44L798.30 572.74L800.53 570.13L804.00 567.71L806.53 565.59L808.36 564.31L810.28 562.59L812.35 560.94L814.27 559.70L815.88 555.82L814.78 553.63L814.99 551.29L817.06 549.73L819.16 547.18L821.60 544.56L822.81 542.57L823.66 540.41L825.00 537.37L826.00 534.44L827.40 531.57L830.08 529.80L836.42 530.92L838.66 526.35L839.58 523.30L840.40 520.62L841.18 517.81L841.88 515.47L841.97 513.11L842.24 510.51L843.58 507.16L844.64 504.95L845.59 501.18L846.14 497.90L845.83 494.47L845.27 492.20L842.67 491.12L838.88 488.66L836.49 488.44L831.75 487.26L826.08 485.93L822.28 486.08L817.36 488.86L816.14 491.58L814.24 493.47L811.16 495.49L807.63 495.74L804.24 494.61L801.85 493.00L797.31 492.38L794.84 492.17L790.35 492.03L788.09 492.25L785.43 492.66L782.83 491.15L782.65 487.87L779.85 486.85L776.26 487.50L772.53 488.70L769.95 489.63L767.43 490.35L764.11 491.81L761.08 492.70L757.79 492.58Z" data-ward="7" /><path id="ward-6" class="ward" d="M948.05 378.41L938.95 378.39L936.40 378.74L932.56 379.26L928.70 379.78L924.61 378.77L919.62 386.27L920.50 389.89L920.02 393.48L916.36 395.43L909.62 395.55L899.43 392.40L895.18 392.77L891.69 393.34L887.35 393.39L881.69 393.38L884.96 401.77L886.79 407.81L887.20 412.36L887.09 417.90L887.94 423.81L888.77 426.83L890.14 431.86L890.95 434.89L893.83 438.29L895.90 440.99L895.09 448.00L894.94 452.64L893.73 457.90L890.18 458.20L887.38 458.58L883.08 458.31L878.56 455.97L875.53 453.77L872.30 452.94L869.32 453.47L864.38 453.57L861.33 452.81L855.52 450.61L851.55 449.39L849.33 448.34L845.71 447.69L842.36 447.12L837.95 447.12L835.36 447.67L832.36 448.15L829.60 448.22L827.14 448.55L824.58 449.04L822.03 448.97L818.84 448.49L814.26 448.24L810.88 447.75L808.54 447.32L804.17 445.60L801.79 444.77L796.37 442.92L794.32 441.92L791.63 441.11L789.06 439.90L787.03 438.55L784.66 436.94L781.84 435.27L779.57 434.09L777.00 432.74L772.11 430.90L769.72 430.35L767.00 429.07L766.42 424.26L766.10 422.03L764.78 417.82L762.95 414.27L760.29 410.77L757.59 408.89L755.36 408.65L751.31 408.37L746.93 408.03L745.19 406.24L742.66 405.26L738.76 403.60L736.58 402.61L734.19 402.90L731.46 401.89L729.40 399.22L727.03 396.93L725.25 395.13L722.10 392.28L719.02 390.42L714.68 389.01L710.67 387.53L708.16 388.24L706.93 391.35L705.08 395.10L703.44 397.73L701.98 400.10L699.99 402.51L696.52 407.11L691.97 412.70L690.18 415.17L689.09 417.69L687.92 420.11L686.91 422.25L684.88 425.82L683.21 429.88L681.87 432.73L681.11 436.31L679.97 439.26L678.54 443.39L677.91 445.97L677.24 448.83L676.65 451.54L675.94 454.83L675.26 457.90L674.78 460.81L674.47 463.03L673.97 466.10L673.09 468.76L671.69 473.00L669.28 480.31L668.60 482.63L667.95 485.24L667.19 487.56L665.68 490.68L664.22 493.89L662.31 499.81L660.87 506.65L661.11 511.30L661.13 514.96L661.22 517.81L661.24 520.46L661.21 522.89L661.21 526.88L666.19 525.58L669.25 525.57L673.64 525.90L676.47 526.11L675.93 521.94L678.08 520.76L682.11 520.78L685.17 520.67L687.60 520.75L690.33 520.48L693.57 520.39L696.17 519.73L697.03 516.60L699.20 515.71L704.15 515.15L707.10 514.94L709.84 514.84L712.02 515.32L715.08 516.15L717.89 516.65L719.20 514.80L723.28 515.28L726.59 516.36L729.49 517.31L731.23 518.73L733.57 520.49L738.39 521.44L742.29 521.84L744.79 521.92L745.75 518.71L746.02 514.11L746.10 511.49L745.48 508.69L743.79 504.95L743.02 502.39L742.68 499.60L742.43 495.50L743.39 492.87L743.48 490.03L746.77 482.04L750.63 483.30L753.66 483.75L757.98 485.07L757.81 487.86L757.79 492.58L761.08 492.70L764.11 491.81L767.43 490.35L769.95 489.63L772.53 488.70L776.26 487.50L779.85 486.85L782.65 487.87L782.83 491.15L785.43 492.66L788.09 492.25L790.35 492.03L794.84 492.17L797.31 492.38L801.85 493.00L804.24 494.61L807.63 495.74L811.16 495.49L814.24 493.47L816.14 491.58L817.36 488.86L822.28 486.08L826.08 485.93L831.75 487.26L836.49 488.44L838.88 488.66L842.67 491.12L845.27 492.20L845.83 494.47L846.14 497.90L845.59 501.18L844.64 504.95L843.58 507.16L842.24 510.51L841.97 513.11L841.88 515.47L841.18 517.81L840.40 520.62L839.58 523.30L838.66 526.35L836.42 530.92L840.62 532.74L843.67 533.95L846.73 535.89L849.60 537.59L853.22 540.21L857.80 542.06L862.41 542.37L868.33 540.32L870.85 539.37L874.24 537.75L876.40 536.51L878.67 535.92L881.00 534.96L883.25 534.14L884.64 532.23L885.97 529.02L888.27 527.00L890.30 525.94L892.69 525.22L896.29 525.03L898.78 525.46L901.18 525.71L905.54 525.89L907.85 525.98L910.32 525.66L912.83 526.08L915.50 528.49L917.46 530.17L919.34 532.24L921.76 535.08L924.80 538.75L927.82 542.42L929.22 544.17L931.45 547.06L933.12 549.16L937.93 554.10L940.82 557.80L942.27 560.54L945.08 561.85L948.00 562.12L952.54 561.46L953.01 556.59L953.46 551.95L953.82 548.31L954.80 538.20L955.24 533.71L955.98 529.91L956.91 525.17L957.37 522.77L956.85 510.61L956.48 502.17L958.44 497.83L959.07 494.97L960.31 489.40L961.02 486.12L962.24 481.54L963.25 477.56L963.87 475.14L966.30 471.87L967.79 468.72L970.95 464.86L972.78 461.09L973.92 458.31L974.54 453.72L975.17 449.00L976.43 444.97L977.38 442.69L979.34 438.26L980.71 434.80L982.45 430.40L983.49 426.87L984.13 424.71L985.04 421.66L985.48 419.02L986.11 414.01L985.09 410.42L984.58 408.00L983.92 404.31L983.30 401.98L982.91 398.30L983.19 391.71L979.11 390.92L974.92 390.11L963.45 387.77L961.46 386.05L956.11 381.41L948.05 378.41Z" data-ward="6" /><path id="ward-11" class="ward" d="M624.56 756.87L620.07 753.91L615.91 754.72L610.07 755.24L605.73 758.34L599.25 757.70L597.07 758.29L593.97 759.13L592.45 764.86L590.29 771.32L585.25 772.03L583.74 775.86L582.92 790.94L584.15 794.00L582.14 800.87L584.27 805.32L583.63 813.53L581.62 819.14L577.13 820.79L572.29 820.55L567.69 820.42L563.09 820.29L554.51 823.39L543.04 826.25L534.84 828.02L530.55 828.61L520.92 830.52L516.79 831.40L512.66 832.27L509.26 832.94L506.66 832.18L506.23 834.97L505.07 839.44L504.47 842.31L503.87 845.19L502.55 847.10L499.11 849.54L498.80 853.76L498.46 857.39L498.67 863.85L499.05 869.91L499.15 872.93L499.36 879.44L499.11 882.14L503.47 882.54L508.42 882.98L512.30 884.13L516.20 885.29L519.98 886.41L520.47 890.39L520.91 893.99L522.75 900.32L523.39 902.53L524.69 907.03L525.50 910.30L526.34 913.72L527.40 918.08L528.04 920.37L528.81 922.61L530.48 927.05L532.18 931.55L533.50 935.04L534.88 938.72L536.06 941.83L537.56 945.81L538.84 949.21L540.43 953.34L542.23 958.03L547.66 959.04L550.35 959.54L552.29 961.18L555.68 964.03L558.92 966.76L561.18 969.10L563.28 970.58L566.21 972.65L570.04 975.67L572.19 977.36L573.99 978.79L575.84 976.98L579.28 973.60L581.14 971.78L585.37 967.62L588.57 964.49L590.63 962.46L592.82 960.32L594.88 958.73L600.22 954.63L602.30 953.03L607.07 949.37L606.82 961.96L624.34 962.62L624.59 959.31L624.84 955.99L624.04 953.09L628.20 948.44L631.14 947.64L636.84 946.11L638.03 938.02L641.27 938.39L646.69 939.01L648.07 941.15L650.53 944.92L653.73 947.63L658.10 949.32L662.48 951.00L666.92 952.43L671.09 953.80L675.57 955.27L680.48 956.70L684.42 958.04L688.25 959.19L690.67 959.71L693.38 960.30L695.47 959.50L696.76 955.95L696.88 952.48L696.98 949.61L700.13 950.36L702.34 950.88L705.21 951.57L709.55 951.62L715.88 951.70L718.18 953.89L720.48 956.07L723.85 951.12L727.48 945.65L729.36 942.48L731.25 939.32L734.75 932.83L733.83 921.22L732.32 915.54L730.34 908.15L719.59 905.30L710.94 905.32L699.34 907.20L695.36 898.70L694.10 894.81L690.88 889.14L689.53 886.12L687.86 877.08L687.21 874.13L682.83 866.99L680.45 868.13L672.73 872.36L666.18 874.61L656.37 877.99L649.81 880.25L637.77 878.79L633.41 878.27L629.19 877.76L628.29 875.47L627.38 873.17L625.78 868.26L625.13 865.86L624.43 863.23L624.23 858.44L625.45 854.06L626.64 852.11L628.51 849.61L632.51 842.42L634.24 837.44L636.33 831.39L636.90 827.35L637.20 824.75L637.66 814.24L637.54 809.79L637.68 807.43L637.51 805.00L637.35 802.62L637.16 800.10L636.92 795.16L636.71 791.78L636.43 787.49L636.02 780.70L635.63 776.76L634.18 771.14L630.89 763.89L629.94 761.58L627.99 760.47L626.43 758.79L624.56 756.87Z" data-ward="11" /><path id="ward-9" class="ward" d="M761.54 758.14L758.28 758.03L755.33 758.37L752.31 758.20L749.44 758.62L746.58 759.04L743.61 759.44L740.46 760.29L737.56 761.20L735.37 761.92L733.35 763.72L731.33 765.69L728.55 766.56L725.86 767.53L722.55 769.02L718.55 770.93L714.15 771.77L711.51 771.63L708.99 771.78L706.54 771.94L702.72 772.50L699.55 772.69L696.23 773.02L693.44 772.95L689.38 772.72L686.12 771.47L682.99 770.07L680.72 769.41L677.59 768.16L673.37 765.86L669.72 764.31L666.04 763.01L662.47 762.37L658.57 761.83L656.33 761.78L652.44 761.66L649.70 761.49L644.77 761.29L641.87 761.08L636.93 761.11L634.61 761.16L629.94 761.58L630.89 763.89L634.18 771.14L635.63 776.76L636.02 780.70L636.43 787.49L636.71 791.78L636.92 795.16L637.16 800.10L637.35 802.62L637.51 805.00L637.68 807.43L637.54 809.79L637.66 814.24L637.20 824.75L636.90 827.35L636.33 831.39L634.24 837.44L632.51 842.42L628.51 849.61L626.64 852.11L625.45 854.06L624.23 858.44L624.43 863.23L625.13 865.86L625.78 868.26L627.38 873.17L628.29 875.47L629.19 877.76L633.41 878.27L637.77 878.79L649.81 880.25L656.37 877.99L666.18 874.61L672.73 872.36L680.45 868.13L682.83 866.99L684.94 865.83L687.32 864.52L689.67 862.80L692.99 860.58L696.02 858.88L698.94 857.44L701.58 856.37L705.83 854.65L710.01 852.13L711.64 850.35L712.94 846.98L713.82 843.05L715.37 839.14L716.45 835.99L717.54 832.86L718.61 830.80L722.25 831.65L726.93 832.75L730.71 833.60L737.30 834.82L745.39 836.29L748.31 836.64L752.07 837.07L757.19 837.68L761.62 838.19L767.88 838.61L773.95 838.84L776.88 840.96L780.06 843.24L782.79 844.41L785.75 845.54L788.18 846.58L791.04 848.06L793.94 849.57L798.12 851.66L802.10 853.65L804.71 855.02L808.28 856.88L811.14 859.22L814.92 862.33L820.13 865.87L823.31 868.04L826.07 870.23L828.92 872.45L831.76 874.62L834.44 876.47L838.03 878.95L840.50 880.42L843.86 882.39L846.93 884.52L851.38 886.22L854.55 886.61L857.97 887.06L860.25 887.61L867.82 889.64L872.01 890.41L878.18 891.54L882.63 892.34L886.85 893.13L889.60 893.83L894.47 895.07L898.33 896.07L902.63 896.89L905.30 897.25L910.13 896.60L913.23 891.08L913.39 886.60L913.94 870.93L916.18 865.00L916.97 857.49L914.00 848.84L916.69 849.05L919.31 847.61L921.74 846.66L924.99 844.01L925.52 840.38L926.84 838.41L930.25 836.28L932.39 834.95L936.42 834.74L939.82 833.53L941.88 830.61L941.31 828.13L940.70 825.53L940.79 822.99L940.92 819.44L941.05 815.64L941.60 812.93L942.47 809.71L943.09 807.54L944.01 803.90L945.37 800.50L941.56 797.66L938.85 799.84L933.69 799.88L930.01 798.86L925.43 797.21L917.95 794.61L915.74 794.02L912.63 793.21L910.09 792.28L906.47 790.76L903.79 788.36L900.56 785.10L898.72 783.83L896.37 782.44L893.70 780.72L890.84 779.07L888.30 777.42L886.14 776.21L883.79 775.32L881.13 774.61L877.88 773.67L874.25 771.98L871.89 770.91L869.73 770.00L867.89 767.75L867.15 764.08L863.75 763.66L858.92 764.70L853.85 765.30L851.43 764.04L847.31 762.77L844.39 762.13L840.58 761.31L837.76 761.04L832.72 762.85L834.44 768.36L835.79 771.72L837.03 774.02L838.21 778.45L835.58 780.10L832.08 781.60L829.00 782.82L825.71 783.14L823.05 783.15L820.43 783.41L817.28 783.19L814.63 782.82L811.50 782.51L807.26 782.60L803.68 782.49L800.29 782.89L798.00 782.96L795.88 781.27L793.92 778.88L791.13 776.27L788.65 774.38L784.97 773.05L780.72 773.09L777.68 773.26L774.01 773.72L770.51 773.68L770.73 770.23L770.50 765.94L770.26 763.61L769.29 760.47L767.88 758.30L765.56 758.56L761.54 758.14Z" data-ward="9" /><path id="ward-8" class="ward" d="M905.54 525.89L901.18 525.71L898.78 525.46L896.29 525.03L892.69 525.22L890.30 525.94L888.27 527.00L885.97 529.02L884.64 532.23L883.25 534.14L881.00 534.96L878.67 535.92L876.40 536.51L874.24 537.75L870.85 539.37L868.33 540.32L862.41 542.37L857.80 542.06L853.22 540.21L849.60 537.59L846.73 535.89L843.67 533.95L840.62 532.74L836.42 530.92L830.08 529.80L827.40 531.57L826.00 534.44L825.00 537.37L823.66 540.41L822.81 542.57L821.60 544.56L819.16 547.18L817.06 549.73L814.99 551.29L814.78 553.63L815.88 555.82L814.27 559.70L812.35 560.94L810.28 562.59L808.36 564.31L806.53 565.59L804.00 567.71L800.53 570.13L798.30 572.74L795.25 574.44L789.76 574.08L783.89 572.52L781.30 571.79L780.79 581.77L785.87 594.95L797.72 593.57L807.57 595.01L811.66 595.67L822.79 598.26L821.36 604.58L821.18 615.46L821.16 628.94L821.93 641.79L811.59 641.79L801.03 641.86L786.12 643.09L778.08 644.20L776.03 649.47L774.82 652.24L770.54 656.63L765.30 655.26L760.07 653.88L755.72 652.53L749.45 650.92L742.29 650.17L738.51 648.90L731.75 645.60L728.68 644.27L726.35 643.71L723.02 643.11L719.01 643.06L715.35 642.36L714.02 645.53L713.43 647.75L712.58 650.30L712.01 653.22L712.42 657.30L713.31 660.63L714.05 663.24L715.57 667.27L717.63 668.40L719.12 670.74L719.41 674.25L719.76 678.18L721.24 680.23L726.31 682.46L728.59 684.96L730.08 687.18L730.94 690.45L731.17 693.17L729.95 696.53L728.79 701.57L727.96 706.60L727.88 709.62L727.74 714.19L728.04 717.15L728.39 721.42L728.78 724.64L729.29 728.49L729.84 730.95L730.59 734.41L731.15 736.91L731.53 740.95L731.03 745.47L732.07 750.84L733.55 754.23L734.43 756.44L735.09 759.31L735.37 761.92L737.56 761.20L740.46 760.29L743.61 759.44L746.58 759.04L749.44 758.62L752.31 758.20L755.33 758.37L758.28 758.03L761.54 758.14L765.56 758.56L767.88 758.30L769.29 760.47L770.26 763.61L770.50 765.94L770.73 770.23L770.51 773.68L774.01 773.72L777.68 773.26L780.72 773.09L784.97 773.05L788.65 774.38L791.13 776.27L793.92 778.88L795.88 781.27L798.00 782.96L800.29 782.89L803.68 782.49L807.26 782.60L811.50 782.51L814.63 782.82L817.28 783.19L820.43 783.41L823.05 783.15L825.71 783.14L829.00 782.82L832.08 781.60L835.58 780.10L838.21 778.45L837.03 774.02L835.79 771.72L834.44 768.36L832.72 762.85L837.76 761.04L840.58 761.31L844.39 762.13L847.31 762.77L851.43 764.04L853.85 765.30L858.92 764.70L863.75 763.66L867.15 764.08L867.89 767.75L869.73 770.00L871.89 770.91L874.25 771.98L877.88 773.67L881.13 774.61L883.79 775.32L886.14 776.21L888.30 777.42L890.84 779.07L893.70 780.72L896.37 782.44L898.72 783.83L900.56 785.10L903.79 788.36L906.47 790.76L910.09 792.28L912.63 793.21L915.74 794.02L917.95 794.61L925.43 797.21L930.01 798.86L933.69 799.88L938.85 799.84L941.56 797.66L940.84 784.08L941.43 779.31L941.83 775.85L941.56 773.40L941.51 771.16L941.40 768.48L941.65 762.49L942.59 755.73L943.54 748.97L945.26 746.27L946.86 743.76L950.22 740.05L951.72 738.40L950.74 736.20L949.54 733.52L950.11 730.41L948.72 724.66L948.38 722.10L948.01 719.31L946.13 716.04L944.53 714.21L941.08 710.39L939.71 707.79L938.45 705.38L936.32 701.25L934.97 697.58L933.95 694.83L933.29 690.89L932.76 687.98L931.85 684.25L931.16 681.59L929.64 677.04L928.09 674.75L925.65 673.31L919.62 672.97L917.81 671.55L916.23 668.69L914.64 666.38L913.47 663.52L912.00 661.62L910.60 659.61L909.31 657.50L908.06 655.23L906.96 653.18L905.61 650.64L904.51 648.59L904.00 645.32L904.28 641.50L903.70 638.64L904.32 636.33L906.30 634.72L909.46 632.16L909.69 629.50L909.92 626.87L910.64 623.98L915.15 621.04L920.48 616.81L924.98 620.94L930.03 621.85L936.94 618.84L935.67 614.98L939.57 608.72L941.06 606.32L941.85 602.66L942.78 598.38L943.63 593.22L944.03 590.80L946.52 588.58L947.38 583.33L948.02 580.10L948.76 576.18L949.59 572.12L950.33 567.73L951.25 564.04L952.54 561.46L948.00 562.12L945.08 561.85L942.27 560.54L940.82 557.80L937.93 554.10L933.12 549.16L931.45 547.06L929.22 544.17L927.82 542.42L924.80 538.75L921.76 535.08L919.34 532.24L917.46 530.17L915.50 528.49L912.83 526.08L910.32 525.66L907.85 525.98L905.54 525.89Z" data-ward="8" /><path id="ward-19" class="ward" d="M403.72 562.63L403.85 561.62L402.61 562.22L401.36 562.82L398.51 574.35L395.62 582.15L387.12 583.66L379.60 585.21L373.57 585.53L367.98 584.04L363.20 581.39L357.99 581.15L351.06 581.93L348.01 583.98L342.20 588.74L343.23 593.71L343.70 596.70L344.40 601.23L343.80 606.53L345.58 613.27L347.69 619.72L350.53 624.69L351.83 626.97L355.08 630.78L359.94 636.50L355.09 654.56L351.20 662.55L354.21 668.50L358.73 672.99L363.26 677.54L360.87 683.06L358.66 684.42L352.12 688.33L344.98 691.53L342.12 692.66L339.25 693.79L335.85 694.84L329.71 695.01L325.07 697.22L320.08 700.08L319.89 706.84L320.07 711.90L320.84 716.95L320.81 722.28L319.75 728.51L317.49 734.76L314.61 743.88L313.87 750.08L313.36 758.59L313.18 766.12L318.19 764.66L321.61 763.66L324.69 762.87L327.78 762.07L330.81 761.36L336.83 760.08L343.67 759.01L346.68 758.53L351.80 757.80L357.18 756.64L360.13 756.03L365.85 753.41L373.15 746.55L375.02 744.51L376.84 742.63L383.23 736.99L387.97 734.65L391.31 733.91L394.06 733.05L396.23 732.08L398.68 731.00L400.70 730.04L402.35 728.54L406.09 725.40L409.11 722.05L412.98 718.32L414.48 716.63L421.38 710.84L426.54 707.71L429.73 705.98L431.50 704.18L434.77 700.89L436.17 699.08L439.28 695.73L441.32 693.86L444.05 691.63L446.74 689.39L449.20 687.79L452.26 686.36L455.81 686.23L458.28 685.92L461.59 685.84L464.27 684.90L466.97 684.10L470.60 682.50L473.28 681.36L476.02 680.08L479.82 677.35L480.66 673.90L482.42 668.09L483.47 664.83L484.41 660.94L484.43 656.70L480.39 651.38L477.80 648.54L477.53 645.58L477.29 642.51L476.57 637.32L476.64 634.78L476.43 632.43L476.07 630.16L474.92 622.86L474.03 620.44L473.14 618.02L470.76 615.55L470.75 613.05L471.49 610.81L469.77 604.89L467.95 601.48L466.90 599.49L465.42 596.55L463.75 593.52L461.36 589.06L458.00 582.80L457.23 580.64L456.05 578.50L453.78 575.58L449.50 573.93L444.22 573.84L440.86 573.26L437.41 571.20L435.69 569.22L433.28 568.56L428.43 567.22L423.73 566.03L417.54 564.47L412.46 564.54L407.38 564.61L403.72 562.63Z" data-ward="19" /><path id="ward-3" class="ward" d="M669.45 159.08L666.02 159.05L661.05 156.25L655.53 153.13L650.91 150.16L644.10 146.75L641.45 145.64L639.07 144.63L629.60 141.37L618.96 137.64L614.07 141.78L611.44 143.59L607.11 146.37L604.61 147.78L605.27 151.12L605.39 156.12L605.90 161.19L603.02 163.13L596.72 164.07L595.48 166.36L595.39 168.71L594.70 171.01L592.05 173.29L585.34 175.41L582.13 175.87L579.06 176.41L578.22 178.68L576.83 182.45L576.55 190.98L575.60 196.58L572.52 198.22L566.08 200.14L562.96 200.92L558.79 203.17L553.89 205.99L545.65 212.90L542.93 215.58L548.51 227.41L548.98 235.23L538.86 245.24L537.04 253.19L532.32 256.90L528.05 258.30L520.92 267.71L518.35 276.98L518.31 284.63L518.50 294.57L518.30 307.25L524.47 320.42L528.75 329.56L532.10 335.82L533.52 339.87L536.14 345.39L538.76 350.91L541.85 352.05L544.50 352.72L547.15 353.39L556.05 354.85L565.00 352.20L573.24 348.51L577.24 344.33L582.69 340.75L585.63 339.92L587.13 348.80L589.70 364.02L597.76 381.73L603.32 409.49L608.27 408.01L611.77 406.90L617.11 395.65L621.46 386.55L622.88 383.76L625.56 378.14L628.23 372.52L629.80 368.90L632.97 362.81L634.24 360.34L638.71 350.61L640.44 347.07L642.84 342.10L647.51 332.44L648.94 329.32L650.62 325.86L653.18 320.56L652.06 311.60L651.49 304.92L648.99 297.38L644.05 292.57L642.15 289.21L639.75 283.60L639.90 278.58L645.56 275.21L650.08 272.22L653.24 270.44L654.22 273.17L655.80 276.36L657.41 279.22L659.02 282.08L663.03 288.09L665.64 289.81L668.02 290.42L674.26 289.79L677.80 289.59L681.55 289.39L685.04 289.20L689.82 289.20L694.69 290.17L700.64 291.63L705.93 292.99L710.63 293.76L714.40 294.39L719.89 295.68L725.06 297.03L728.33 299.02L732.05 302.50L736.38 304.93L738.81 305.91L741.24 306.89L744.72 305.62L745.33 303.46L745.80 299.64L745.92 296.96L746.31 292.47L746.49 288.54L746.18 284.87L745.68 280.39L745.46 276.67L749.51 280.38L749.84 284.53L753.66 286.18L761.21 284.45L766.56 284.61L771.83 286.66L778.60 291.07L783.71 294.57L786.96 295.60L790.77 296.73L798.37 297.24L802.52 297.26L805.05 297.33L811.21 297.50L815.43 296.96L817.91 296.41L824.02 292.64L826.91 286.96L823.85 280.25L819.60 278.23L813.25 273.57L809.32 269.39L807.16 267.10L809.16 265.16L814.12 260.36L815.77 258.77L817.44 257.16L819.22 255.39L827.81 251.68L825.80 240.99L821.40 240.37L815.33 239.25L808.61 238.03L804.23 238.20L801.21 238.03L797.72 237.76L795.02 236.78L790.15 235.01L787.66 232.70L785.60 229.27L779.14 228.88L773.93 227.25L773.51 225.02L773.62 222.36L773.88 215.99L774.00 213.06L772.39 204.86L766.37 194.23L759.77 187.33L753.66 180.94L746.51 173.45L739.89 166.53L738.10 164.65L735.56 167.56L741.76 178.75L749.30 198.32L750.70 202.77L750.91 205.33L751.41 211.16L751.08 218.42L748.82 220.77L746.85 222.80L741.01 228.78L728.27 233.40L725.62 226.08L724.60 223.23L722.57 217.61L718.41 208.84L716.12 207.25L711.93 202.00L709.65 199.02L707.37 196.04L703.62 190.43L700.61 185.92L697.40 183.48L695.06 181.71L691.97 181.87L689.35 182.01L686.39 175.71L692.45 170.05L694.24 166.52L686.28 156.07L678.83 158.45L673.79 159.10L669.45 159.08Z" data-ward="3" /><path id="ward-15" class="ward" d="M283.77 767.90L277.00 767.82L272.40 767.54L269.13 766.79L265.76 765.56L262.92 764.16L259.27 761.70L255.47 759.69L251.68 757.67L244.53 754.19L235.71 749.86L230.87 748.89L224.89 752.08L218.21 755.23L206.56 760.08L199.90 762.89L191.71 765.93L190.37 770.73L187.14 776.71L182.89 784.41L179.65 789.17L179.49 784.48L178.85 775.07L174.21 775.47L170.38 775.60L164.42 780.10L155.77 780.91L154.47 770.13L151.92 770.58L141.88 770.97L136.34 772.23L132.43 773.13L124.39 774.32L119.48 773.84L116.90 775.24L116.16 780.88L114.74 786.05L112.86 788.98L104.79 795.31L98.78 801.76L96.52 804.82L95.00 807.18L94.28 811.28L93.88 814.65L95.95 819.81L99.17 820.15L103.59 820.61L107.06 820.83L111.96 820.77L116.81 821.20L118.95 823.78L121.83 826.86L123.60 828.58L125.49 830.41L128.04 832.89L132.20 833.09L134.83 833.13L138.33 833.19L142.76 833.27L145.74 833.32L151.31 833.41L153.75 833.69L159.54 834.33L162.35 834.42L165.26 834.51L168.87 834.40L173.33 834.06L176.22 833.84L179.03 833.25L180.27 835.22L180.83 839.22L181.32 841.39L182.33 843.74L183.96 845.78L186.04 848.37L187.47 850.38L188.56 852.48L189.69 856.85L192.79 862.83L195.67 867.51L199.36 868.27L203.30 869.09L209.17 868.86L212.75 868.72L217.97 867.94L218.70 870.88L221.20 870.54L225.77 869.91L228.71 869.51L231.82 868.25L235.96 866.58L238.69 865.48L240.76 861.77L242.83 858.08L244.15 855.61L245.71 852.68L248.73 849.19L251.58 844.99L252.91 842.02L254.02 839.54L256.22 834.38L258.20 830.27L259.27 828.04L261.55 828.33L264.16 828.67L266.47 828.97L269.21 828.68L273.77 828.19L276.05 827.25L283.43 824.41L287.15 827.09L289.53 828.80L291.77 830.57L293.78 832.17L296.21 834.09L298.42 835.85L303.94 831.99L310.87 827.31L315.96 823.87L319.37 821.96L324.07 819.16L329.29 817.70L335.67 817.83L338.32 818.73L343.50 819.28L348.53 819.56L352.22 819.32L356.82 818.70L353.34 811.82L353.24 808.01L353.21 804.64L354.79 800.69L356.72 796.11L357.04 788.65L357.22 785.98L359.10 780.75L360.30 777.32L360.74 774.74L361.18 772.16L361.63 769.56L360.13 756.03L357.18 756.64L351.80 757.80L346.68 758.53L343.67 759.01L336.83 760.08L330.81 761.36L327.78 762.07L324.69 762.87L321.61 763.66L318.19 764.66L313.18 766.12L309.07 766.68L303.52 767.10L300.60 767.32L298.18 767.51L292.15 768.00L283.77 767.90Z" data-ward="15" /><path id="ward-17" class="ward" d="M119.34 605.12L111.20 602.13L101.65 600.97L97.15 600.53L85.52 602.72L82.98 604.00L79.02 605.99L76.91 607.04L73.31 606.21L68.57 605.11L64.46 604.16L61.53 603.48L60.93 605.95L58.68 614.88L57.83 617.99L55.64 625.38L52.88 634.42L57.02 637.64L64.75 643.93L70.28 647.52L73.91 650.20L77.54 652.87L81.65 656.25L91.50 663.38L98.89 669.73L106.56 679.26L114.91 685.40L118.65 688.50L122.39 691.60L124.29 693.27L136.63 696.53L139.10 697.62L143.74 699.71L151.88 706.44L155.54 709.98L157.14 711.56L159.67 714.50L160.35 716.79L162.36 723.60L167.73 733.70L173.88 745.55L175.33 750.12L175.58 753.29L175.83 757.39L178.38 767.95L178.85 775.07L179.49 784.48L179.65 789.17L182.89 784.41L187.14 776.71L190.37 770.73L191.71 765.93L199.90 762.89L206.56 760.08L218.21 755.23L224.89 752.08L230.87 748.89L235.71 749.86L244.53 754.19L251.68 757.67L255.47 759.69L259.27 761.70L262.92 764.16L265.76 765.56L266.40 755.47L266.64 749.25L271.65 746.01L275.46 741.83L274.43 738.60L273.33 734.39L275.62 731.56L278.22 728.61L279.49 725.97L279.62 721.59L279.72 716.26L280.46 711.53L281.32 705.31L282.93 701.51L283.50 697.03L283.62 691.90L283.33 689.23L283.46 686.53L283.58 683.66L283.60 679.66L283.58 674.22L283.24 669.98L282.46 667.49L279.78 664.68L279.10 662.55L278.09 659.01L276.47 654.52L275.49 652.29L274.23 649.16L272.20 645.02L270.19 642.26L268.57 640.03L266.93 638.10L264.72 635.58L262.64 632.66L259.97 629.18L257.45 627.12L255.60 625.39L253.56 623.51L251.05 621.18L247.37 620.39L243.52 619.73L240.59 619.22L231.48 617.66L225.41 618.03L222.84 616.82L219.59 615.29L215.67 613.47L212.24 613.00L208.20 612.53L204.63 612.14L201.35 613.42L198.52 614.54L196.45 615.37L193.69 615.19L189.14 613.77L187.13 617.76L186.15 621.01L185.45 623.86L184.43 628.33L183.70 631.49L183.10 634.11L182.30 637.61L180.51 639.65L177.55 640.29L173.63 638.32L170.34 636.32L161.13 630.75L154.15 628.33L147.26 626.20L145.33 623.24L145.45 615.64L144.34 605.11L142.17 602.92L135.39 603.46L129.06 605.92L121.95 606.86L119.34 605.12Z" data-ward="17" /><path id="ward-1" class="ward" d="M536.14 345.39L533.52 339.87L532.10 335.82L528.75 329.56L524.47 320.42L518.30 307.25L518.50 294.57L518.31 284.63L518.35 276.98L520.92 267.71L528.05 258.30L532.32 256.90L537.04 253.19L538.86 245.24L548.98 235.23L548.51 227.41L542.93 215.58L538.35 215.53L534.07 215.53L526.88 214.95L523.31 214.65L518.79 214.21L511.73 213.53L508.57 213.70L500.74 214.12L490.78 218.82L477.15 220.94L471.99 221.68L468.80 222.15L459.11 228.63L455.11 230.35L451.05 232.09L451.86 234.35L455.85 245.66L457.69 250.59L459.03 255.75L463.30 271.01L464.86 289.66L465.54 296.60L466.78 309.25L467.61 317.08L468.87 329.21L469.61 335.65L469.21 343.56L463.57 346.85L458.11 345.99L451.90 341.79L447.17 338.59L441.55 334.79L438.53 334.21L434.30 333.39L431.46 333.69L422.50 345.72L414.19 356.87L412.07 358.90L400.18 368.95L396.07 368.38L390.30 367.57L386.26 361.91L379.91 353.00L366.27 338.36L363.32 335.49L360.61 332.86L352.35 331.36L338.08 330.38L333.00 330.23L329.67 329.86L323.13 329.30L314.74 328.09L310.13 327.43L304.61 327.38L299.27 326.67L292.02 327.10L288.72 327.04L283.86 328.32L278.44 329.57L276.16 331.53L272.01 340.95L268.94 346.97L264.09 361.15L260.18 373.48L256.77 384.22L260.41 385.94L264.15 387.69L270.97 390.89L274.59 392.59L285.58 397.69L294.95 401.62L303.99 402.55L308.77 403.94L317.61 406.53L326.00 408.53L328.80 409.20L328.73 412.59L328.66 415.97L328.17 422.96L327.93 427.12L334.07 427.89L343.75 427.84L350.34 427.90L359.58 427.42L362.70 427.06L366.12 426.66L374.05 424.84L381.49 422.29L388.88 422.63L396.28 422.97L404.25 421.38L412.11 420.12L414.47 422.23L415.53 425.47L417.95 430.60L425.07 437.18L427.59 439.10L429.38 440.47L439.71 442.67L446.62 444.14L449.73 443.99L456.91 441.91L460.34 440.72L464.29 440.90L466.93 441.49L469.18 441.59L473.08 441.76L476.85 441.44L484.69 437.69L493.49 434.84L499.18 433.73L504.88 432.62L511.94 432.59L518.99 432.56L527.09 432.56L536.28 432.56L540.57 432.51L544.18 432.48L552.02 432.59L556.88 432.31L561.97 431.97L565.43 431.62L567.75 428.35L569.78 426.94L571.82 425.53L579.10 420.92L584.67 418.67L592.77 415.41L597.56 412.89L603.32 409.49L597.76 381.73L589.70 364.02L587.13 348.80L585.63 339.92L582.69 340.75L577.24 344.33L573.24 348.51L565.00 352.20L556.05 354.85L547.15 353.39L544.50 352.72L541.85 352.05L538.76 350.91L536.14 345.39Z" data-ward="1" /><path id="ward-21" class="ward" d="M327.93 427.12L328.17 422.96L328.66 415.97L328.73 412.59L328.80 409.20L326.00 408.53L317.61 406.53L308.77 403.94L303.99 402.55L294.95 401.62L285.58 397.69L274.59 392.59L270.97 390.89L264.15 387.69L260.41 385.94L256.77 384.22L254.60 390.88L252.72 397.94L251.89 402.26L251.11 406.28L249.65 413.88L248.16 421.63L246.89 425.89L243.58 437.03L242.91 439.27L242.13 445.04L239.32 465.63L236.86 483.02L235.79 492.54L234.71 501.13L229.38 512.61L224.35 518.92L210.01 524.86L193.46 527.80L188.31 528.72L177.21 531.66L171.66 533.23L168.70 534.24L165.72 535.69L159.80 538.56L154.46 544.09L148.30 567.45L147.60 570.11L143.69 580.31L142.74 582.55L140.31 583.54L135.20 585.61L119.80 581.79L96.88 568.34L90.34 566.95L84.85 565.79L81.39 567.33L77.13 569.23L74.64 570.34L67.88 577.58L66.53 579.46L63.27 590.51L61.53 603.48L64.46 604.16L68.57 605.11L73.31 606.21L76.91 607.04L79.02 605.99L82.98 604.00L85.52 602.72L97.15 600.53L101.65 600.97L111.20 602.13L119.34 605.12L121.95 606.86L129.06 605.92L135.39 603.46L142.17 602.92L144.34 605.11L145.45 615.64L145.33 623.24L147.26 626.20L154.15 628.33L161.13 630.75L170.34 636.32L173.63 638.32L177.55 640.29L180.51 639.65L182.30 637.61L183.10 634.11L183.70 631.49L184.43 628.33L185.45 623.86L186.15 621.01L187.13 617.76L189.14 613.77L193.69 615.19L196.45 615.37L198.52 614.54L201.35 613.42L204.63 612.14L208.20 612.53L212.24 613.00L215.67 613.47L219.59 615.29L222.84 616.82L225.41 618.03L231.48 617.66L233.38 608.29L234.57 603.18L232.87 591.98L223.93 581.35L229.77 570.57L235.13 574.09L241.91 575.60L253.75 575.31L264.51 574.02L271.63 573.27L279.82 572.83L279.37 564.28L279.55 560.91L279.81 556.10L278.38 549.58L275.59 549.36L273.09 541.98L269.58 535.70L268.40 532.55L267.21 529.39L265.75 524.96L265.42 518.77L269.63 519.54L275.98 522.83L278.63 524.41L279.16 526.72L283.31 527.98L286.15 528.85L291.91 527.43L294.55 526.80L297.19 526.16L303.16 524.76L305.97 523.03L311.68 523.70L314.71 524.06L319.97 527.98L325.15 531.76L330.18 535.06L336.26 539.05L341.64 542.57L343.61 543.91L348.78 550.24L352.72 555.58L356.95 561.32L361.10 566.94L363.36 570.01L376.54 569.95L383.29 569.92L386.86 569.91L393.32 566.74L401.36 562.82L403.85 561.62L409.65 558.81L413.74 556.83L414.86 553.34L415.11 549.86L415.36 546.36L415.60 543.83L416.50 536.03L417.70 528.88L418.10 526.45L418.80 524.11L420.28 521.51L424.29 516.69L425.70 514.82L427.99 511.64L431.36 506.95L433.77 503.50L435.48 500.93L436.99 498.67L438.45 496.71L443.21 498.34L447.58 499.83L451.82 501.21L454.56 502.10L457.49 503.05L462.05 503.81L465.99 505.52L468.13 506.85L473.99 504.61L478.85 502.10L481.36 500.42L484.57 497.14L487.78 493.86L491.54 488.57L494.95 483.47L497.02 480.30L499.16 476.83L501.13 473.52L504.12 469.86L505.85 468.46L511.85 463.61L514.57 461.21L516.77 458.99L519.75 455.85L521.64 454.05L523.57 451.60L525.88 448.98L529.99 444.83L533.48 443.49L535.99 442.59L538.53 441.65L541.81 440.56L544.30 439.78L546.57 439.04L549.82 438.20L552.46 438.47L555.44 439.83L556.88 432.31L552.02 432.59L544.18 432.48L540.57 432.51L536.28 432.56L527.09 432.56L518.99 432.56L511.94 432.59L504.88 432.62L499.18 433.73L493.49 434.84L484.69 437.69L476.85 441.44L473.08 441.76L469.18 441.59L466.93 441.49L464.29 440.90L460.34 440.72L456.91 441.91L449.73 443.99L446.62 444.14L439.71 442.67L429.38 440.47L427.59 439.10L425.07 437.18L417.95 430.60L415.53 425.47L414.47 422.23L412.11 420.12L404.25 421.38L396.28 422.97L388.88 422.63L381.49 422.29L374.05 424.84L366.12 426.66L362.70 427.06L359.58 427.42L350.34 427.90L343.75 427.84L334.07 427.89L327.93 427.12Z" data-ward="21" /><path id="ward-2" class="ward" d="M601.57 2.07L597.32 0.00L597.19 12.31L597.09 22.47L592.00 46.69L576.82 63.92L572.10 65.86L553.72 72.78L547.77 74.26L519.69 81.25L502.35 85.56L494.81 90.80L492.51 93.29L489.36 97.15L480.38 113.12L476.77 119.77L471.93 130.09L464.35 141.10L457.31 146.86L450.06 152.79L442.57 156.12L436.59 159.84L433.70 161.58L432.16 164.25L430.04 167.93L430.87 183.73L431.06 187.37L436.59 200.61L442.06 213.23L443.63 216.89L449.73 229.39L451.05 232.09L455.11 230.35L459.11 228.63L468.80 222.15L471.99 221.68L477.15 220.94L490.78 218.82L500.74 214.12L508.57 213.70L511.73 213.53L518.79 214.21L523.31 214.65L526.88 214.95L534.07 215.53L538.35 215.53L542.93 215.58L545.65 212.90L553.89 205.99L558.79 203.17L562.96 200.92L566.08 200.14L572.52 198.22L575.60 196.58L576.55 190.98L576.83 182.45L578.22 178.68L579.06 176.41L582.13 175.87L585.34 175.41L592.05 173.29L594.70 171.01L595.39 168.71L595.48 166.36L596.72 164.07L603.02 163.13L605.90 161.19L605.39 156.12L605.27 151.12L604.61 147.78L607.11 146.37L611.44 143.59L614.07 141.78L618.96 137.64L629.60 141.37L639.07 144.63L641.45 145.64L644.10 146.75L650.91 150.16L655.53 153.13L661.05 156.25L666.02 159.05L669.45 159.08L673.79 159.10L678.83 158.45L686.28 156.07L694.24 166.52L692.45 170.05L686.39 175.71L689.35 182.01L691.97 181.87L695.06 181.71L697.40 183.48L700.61 185.92L703.62 190.43L707.37 196.04L709.65 199.02L711.93 202.00L716.12 207.25L718.41 208.84L722.57 217.61L724.60 223.23L725.62 226.08L728.27 233.40L741.01 228.78L746.85 222.80L748.82 220.77L751.08 218.42L751.41 211.16L750.91 205.33L750.70 202.77L749.30 198.32L741.76 178.75L735.56 167.56L738.10 164.65L736.74 160.50L735.65 158.42L733.94 155.13L729.18 157.04L727.53 154.62L724.65 150.42L722.75 147.63L721.42 145.67L720.14 143.80L718.46 141.34L716.06 137.36L714.81 135.28L712.52 131.47L711.15 129.21L709.93 127.17L708.52 124.84L706.54 121.54L703.72 116.86L702.47 114.78L700.21 111.02L698.67 108.48L695.73 103.59L694.78 100.57L693.43 96.30L692.43 93.15L691.55 90.34L690.33 86.48L691.35 83.54L692.39 77.97L687.83 77.27L685.06 77.11L682.28 77.22L682.88 73.65L681.41 70.21L674.87 68.12L673.89 64.33L673.27 61.97L670.28 56.22L668.47 54.86L669.95 49.56L670.83 46.84L670.43 43.63L666.38 43.00L663.92 43.62L661.81 42.23L659.44 40.68L657.20 39.43L652.48 39.10L648.44 39.59L648.86 36.52L648.08 34.20L647.62 30.91L647.33 26.87L646.95 23.62L647.07 21.00L645.88 17.01L645.65 13.53L644.25 11.36L642.84 9.19L639.01 8.18L635.66 5.51L631.63 5.87L629.95 2.81L626.66 2.49L623.93 5.67L619.78 4.49L615.83 3.36L611.92 2.25L607.11 2.66L601.57 2.07Z" data-ward="2" /><path id="ward-18" class="ward" d="M283.31 527.98L279.16 526.72L278.63 524.41L275.98 522.83L269.63 519.54L265.42 518.77L265.75 524.96L267.21 529.39L268.40 532.55L269.58 535.70L273.09 541.98L275.59 549.36L278.38 549.58L279.81 556.10L279.55 560.91L279.37 564.28L279.82 572.83L271.63 573.27L264.51 574.02L253.75 575.31L241.91 575.60L235.13 574.09L229.77 570.57L223.93 581.35L232.87 591.98L234.57 603.18L233.38 608.29L231.48 617.66L240.59 619.22L243.52 619.73L247.37 620.39L251.05 621.18L253.56 623.51L255.60 625.39L257.45 627.12L259.97 629.18L262.64 632.66L264.72 635.58L266.93 638.10L268.57 640.03L270.19 642.26L272.20 645.02L274.23 649.16L275.49 652.29L276.47 654.52L278.09 659.01L279.10 662.55L279.78 664.68L282.46 667.49L283.24 669.98L283.58 674.22L283.60 679.66L283.58 683.66L283.46 686.53L283.33 689.23L283.62 691.90L283.50 697.03L282.93 701.51L281.32 705.31L280.46 711.53L279.72 716.26L279.62 721.59L279.49 725.97L278.22 728.61L275.62 731.56L273.33 734.39L274.43 738.60L275.46 741.83L271.65 746.01L266.64 749.25L266.40 755.47L265.76 765.56L269.13 766.79L272.40 767.54L277.00 767.82L283.77 767.90L292.15 768.00L298.18 767.51L300.60 767.32L303.52 767.10L309.07 766.68L313.18 766.12L313.36 758.59L313.87 750.08L314.61 743.88L317.49 734.76L319.75 728.51L320.81 722.28L320.84 716.95L320.07 711.90L319.89 706.84L320.08 700.08L325.07 697.22L329.71 695.01L335.85 694.84L339.25 693.79L342.12 692.66L344.98 691.53L352.12 688.33L358.66 684.42L360.87 683.06L363.26 677.54L358.73 672.99L354.21 668.50L351.20 662.55L355.09 654.56L359.94 636.50L355.08 630.78L351.83 626.97L350.53 624.69L347.69 619.72L345.58 613.27L343.80 606.53L344.40 601.23L343.70 596.70L343.23 593.71L342.20 588.74L348.01 583.98L351.06 581.93L357.99 581.15L363.20 581.39L367.98 584.04L373.57 585.53L379.60 585.21L387.12 583.66L395.62 582.15L398.51 574.35L401.36 562.82L393.32 566.74L386.86 569.91L383.29 569.92L376.54 569.95L363.36 570.01L361.10 566.94L356.95 561.32L352.72 555.58L348.78 550.24L343.61 543.91L341.64 542.57L336.26 539.05L330.18 535.06L325.15 531.76L319.97 527.98L314.71 524.06L311.68 523.70L305.97 523.03L303.16 524.76L297.19 526.16L294.55 526.80L291.91 527.43L286.15 528.85L283.31 527.98Z" data-ward="18" /><path id="ward-10" class="ward" d="M902.63 896.89L898.33 896.07L894.47 895.07L889.60 893.83L886.85 893.13L882.63 892.34L878.18 891.54L872.01 890.41L867.82 889.64L860.25 887.61L857.97 887.06L854.55 886.61L851.38 886.22L846.93 884.52L843.86 882.39L840.50 880.42L838.03 878.95L834.44 876.47L831.76 874.62L828.92 872.45L826.07 870.23L823.31 868.04L820.13 865.87L814.92 862.33L811.14 859.22L808.28 856.88L804.71 855.02L802.10 853.65L798.12 851.66L793.94 849.57L791.04 848.06L788.18 846.58L785.75 845.54L782.79 844.41L780.06 843.24L776.88 840.96L773.95 838.84L767.88 838.61L761.62 838.19L757.19 837.68L752.07 837.07L748.31 836.64L745.39 836.29L737.30 834.82L730.71 833.60L726.93 832.75L722.25 831.65L718.61 830.80L717.54 832.86L716.45 835.99L715.37 839.14L713.82 843.05L712.94 846.98L711.64 850.35L710.01 852.13L705.83 854.65L701.58 856.37L698.94 857.44L696.02 858.88L692.99 860.58L689.67 862.80L687.32 864.52L684.94 865.83L682.83 866.99L687.21 874.13L687.86 877.08L689.53 886.12L690.88 889.14L694.10 894.81L695.36 898.70L699.34 907.20L710.94 905.32L719.59 905.30L730.34 908.15L732.32 915.54L733.83 921.22L734.75 932.83L731.25 939.32L729.36 942.48L727.48 945.65L723.85 951.12L720.48 956.07L722.94 958.65L727.67 960.73L731.30 962.14L735.68 964.58L740.65 967.33L747.15 970.94L752.88 974.13L754.62 976.34L757.09 978.23L758.98 980.51L768.47 974.39L781.02 970.10L789.69 965.11L794.45 963.75L797.76 962.28L800.12 961.58L803.38 960.61L804.78 957.62L808.89 955.90L813.42 954.99L816.65 958.06L821.67 957.42L823.31 952.43L832.58 952.80L834.22 958.44L839.91 958.07L843.29 957.86L847.58 957.58L853.96 958.12L858.48 958.36L858.46 950.82L861.42 949.19L860.81 945.97L860.20 942.76L855.50 942.20L853.87 929.15L852.72 919.91L858.48 918.23L865.72 919.03L867.62 924.30L876.64 926.31L877.36 920.84L886.00 923.74L889.83 925.03L892.70 925.67L896.27 926.48L900.28 927.38L903.33 928.07L905.76 927.34L907.95 926.69L910.17 925.98L914.01 924.77L917.81 923.56L918.36 920.42L919.15 915.91L919.90 911.01L923.33 909.62L919.34 906.79L917.49 904.86L914.92 901.45L913.24 899.47L910.13 896.60L905.30 897.25L902.63 896.89Z" data-ward="10" /><path id="ward-5" class="ward" d="M900.28 207.12L897.69 204.66L895.77 202.83L891.16 201.19L886.83 200.41L883.06 205.81L881.62 207.87L878.68 209.45L874.20 209.99L871.46 209.36L868.46 208.68L864.52 207.91L861.69 208.37L860.33 212.81L859.56 215.30L857.21 217.39L849.26 216.32L846.08 216.09L842.10 216.89L840.22 218.57L837.91 220.64L836.51 222.58L834.66 225.15L832.76 228.81L830.07 234.01L827.07 238.79L825.80 240.99L827.81 251.68L819.22 255.39L817.44 257.16L815.77 258.77L814.12 260.36L809.16 265.16L807.16 267.10L809.32 269.39L813.25 273.57L819.60 278.23L823.85 280.25L826.91 286.96L824.02 292.64L817.91 296.41L815.43 296.96L811.21 297.50L805.05 297.33L802.52 297.26L798.37 297.24L790.77 296.73L786.96 295.60L783.71 294.57L778.60 291.07L771.83 286.66L766.56 284.61L761.21 284.45L753.66 286.18L749.84 284.53L749.51 280.38L745.46 276.67L745.68 280.39L746.18 284.87L746.49 288.54L746.31 292.47L745.92 296.96L745.80 299.64L745.33 303.46L744.72 305.62L744.09 310.53L743.66 315.72L743.61 319.42L744.08 322.49L744.71 324.77L745.96 327.72L747.38 329.64L749.17 331.96L750.61 333.77L751.56 335.83L752.89 340.64L753.97 345.13L754.36 348.02L754.16 350.60L752.04 352.47L749.72 353.56L746.68 354.99L742.47 356.91L738.40 358.79L735.14 360.29L729.86 362.19L727.80 363.07L724.40 364.75L722.70 366.24L721.09 367.98L718.95 370.39L716.99 372.59L714.70 375.61L713.15 377.59L711.97 379.89L709.93 384.07L710.67 387.53L714.68 389.01L719.02 390.42L722.10 392.28L725.25 395.13L727.03 396.93L729.40 399.22L731.46 401.89L734.19 402.90L736.58 402.61L738.76 403.60L742.66 405.26L745.19 406.24L746.93 408.03L751.31 408.37L755.36 408.65L757.59 408.89L760.29 410.77L762.95 414.27L764.78 417.82L766.10 422.03L766.42 424.26L767.00 429.07L769.72 430.35L772.11 430.90L777.00 432.74L779.57 434.09L781.84 435.27L784.66 436.94L787.03 438.55L789.06 439.90L791.63 441.11L794.32 441.92L796.37 442.92L801.79 444.77L804.17 445.60L808.54 447.32L810.88 447.75L814.26 448.24L818.84 448.49L822.03 448.97L824.58 449.04L827.14 448.55L829.60 448.22L832.36 448.15L835.36 447.67L837.95 447.12L842.36 447.12L845.71 447.69L849.33 448.34L851.55 449.39L855.52 450.61L861.33 452.81L864.38 453.57L869.32 453.47L872.30 452.94L875.53 453.77L878.56 455.97L883.08 458.31L887.38 458.58L890.18 458.20L893.73 457.90L894.94 452.64L895.09 448.00L895.90 440.99L893.83 438.29L890.95 434.89L890.14 431.86L888.77 426.83L887.94 423.81L887.09 417.90L887.20 412.36L886.79 407.81L884.96 401.77L881.69 393.38L887.35 393.39L891.69 393.34L895.18 392.77L899.43 392.40L909.62 395.55L916.36 395.43L920.02 393.48L920.50 389.89L919.62 386.27L924.61 378.77L928.70 379.78L932.56 379.26L936.40 378.74L938.95 378.39L948.05 378.41L956.11 381.41L961.46 386.05L963.45 387.77L974.92 390.11L979.11 390.92L983.19 391.71L983.27 382.98L983.81 376.27L983.92 372.07L984.95 364.83L985.84 358.57L985.73 354.46L986.57 351.27L986.97 343.41L987.26 337.73L987.47 334.83L993.57 332.69L997.46 332.93L996.76 329.00L997.08 325.43L1000.00 321.38L999.17 318.70L997.11 316.58L996.28 312.74L993.64 308.17L990.76 304.31L987.81 301.41L984.74 298.39L984.91 294.75L985.52 292.45L983.35 287.46L981.21 283.57L979.78 280.99L978.48 278.74L974.51 275.24L971.52 271.45L970.50 268.59L970.82 265.00L969.77 260.58L968.23 256.67L965.94 253.99L960.31 254.43L955.51 255.74L952.42 256.13L949.25 254.25L948.21 251.30L949.34 247.04L951.65 242.49L948.80 242.07L946.31 241.36L943.69 240.62L941.21 238.71L939.18 237.16L935.65 234.44L932.80 231.88L929.08 226.17L930.53 219.54L930.72 211.65L927.62 209.91L923.10 208.81L919.32 207.89L916.60 207.57L914.03 207.27L911.87 212.49L910.67 215.40L905.52 215.99L902.78 213.83L901.40 210.14L900.28 207.12Z" data-ward="5" /><path id="ward-14" class="ward" d="M451.13 708.74L450.65 702.10L447.20 698.62L445.03 697.65L441.32 693.86L439.28 695.73L436.17 699.08L434.77 700.89L431.50 704.18L429.73 705.98L426.54 707.71L421.38 710.84L414.48 716.63L412.98 718.32L409.11 722.05L406.09 725.40L402.35 728.54L400.70 730.04L398.68 731.00L396.23 732.08L394.06 733.05L391.31 733.91L387.97 734.65L383.23 736.99L376.84 742.63L375.02 744.51L373.15 746.55L365.85 753.41L360.13 756.03L361.63 769.56L361.18 772.16L360.74 774.74L360.30 777.32L359.10 780.75L357.22 785.98L357.04 788.65L356.72 796.11L354.79 800.69L353.21 804.64L353.24 808.01L353.34 811.82L356.82 818.70L360.88 818.15L370.32 817.67L381.19 817.42L388.00 817.96L397.57 819.72L408.68 821.76L409.53 827.56L409.39 832.34L409.22 838.28L409.09 843.11L409.04 847.41L409.31 851.33L409.77 854.91L410.37 857.65L411.61 862.86L412.17 865.21L419.75 862.55L422.52 860.75L425.70 859.47L431.07 859.34L435.23 859.24L438.25 859.67L441.06 860.08L445.37 860.77L448.88 863.29L453.00 865.67L455.09 866.87L461.28 870.64L465.20 873.75L468.84 877.01L474.82 881.42L477.26 881.60L479.86 882.39L485.30 884.23L489.12 884.27L491.36 883.48L495.00 882.21L499.11 882.14L499.36 879.44L499.15 872.93L499.05 869.91L498.67 863.85L498.46 857.39L498.80 853.76L499.11 849.54L502.55 847.10L503.87 845.19L504.47 842.31L505.07 839.44L506.23 834.97L506.66 832.18L501.62 832.44L497.60 832.42L489.95 832.47L485.11 832.94L475.71 833.53L472.90 829.79L468.82 824.36L473.65 821.61L475.75 820.39L483.18 814.35L487.36 810.95L491.54 807.54L494.61 805.03L495.27 802.14L496.07 798.65L496.87 795.15L499.63 783.02L498.39 768.41L497.95 763.81L496.94 753.15L496.66 750.24L479.03 752.30L471.12 749.26L454.09 748.85L455.45 737.52L455.46 722.73L452.28 722.86L451.13 708.74Z" data-ward="14" /><path id="ward-13" class="ward" d="M513.54 677.15L510.88 676.08L507.46 675.37L503.27 675.02L498.11 674.68L495.77 673.64L494.42 670.76L492.07 670.78L489.70 674.15L485.74 676.61L482.95 677.61L479.82 677.35L476.02 680.08L473.28 681.36L470.60 682.50L466.97 684.10L464.27 684.90L461.59 685.84L458.28 685.92L455.81 686.23L452.26 686.36L449.20 687.79L446.74 689.39L444.05 691.63L441.32 693.86L445.03 697.65L447.20 698.62L450.65 702.10L451.13 708.74L452.28 722.86L455.46 722.73L455.45 737.52L454.09 748.85L471.12 749.26L479.03 752.30L496.66 750.24L496.94 753.15L497.95 763.81L498.39 768.41L499.63 783.02L496.87 795.15L496.07 798.65L495.27 802.14L494.61 805.03L491.54 807.54L487.36 810.95L483.18 814.35L475.75 820.39L473.65 821.61L468.82 824.36L472.90 829.79L475.71 833.53L485.11 832.94L489.95 832.47L497.60 832.42L501.62 832.44L506.66 832.18L509.26 832.94L512.66 832.27L516.79 831.40L520.92 830.52L530.55 828.61L534.84 828.02L543.04 826.25L554.51 823.39L563.09 820.29L567.69 820.42L572.29 820.55L577.13 820.79L581.62 819.14L583.63 813.53L584.27 805.32L582.14 800.87L584.15 794.00L582.92 790.94L583.74 775.86L585.25 772.03L590.29 771.32L592.45 764.86L593.97 759.13L597.07 758.29L599.25 757.70L605.73 758.34L610.07 755.24L615.91 754.72L620.07 753.91L620.67 749.99L620.05 744.80L619.43 739.60L619.03 734.86L617.84 726.98L609.85 726.75L601.87 726.53L599.29 722.67L594.03 720.44L582.18 719.47L574.43 720.62L576.12 712.18L576.02 704.38L575.93 696.55L579.15 687.54L578.57 684.72L575.73 685.27L569.05 683.88L566.76 683.46L563.55 682.88L560.19 682.45L555.86 682.32L553.17 681.89L549.62 681.43L546.60 680.68L540.28 679.28L532.67 679.07L528.34 679.43L525.59 679.38L522.73 679.44L519.63 678.99L516.64 678.23L513.54 677.15Z" data-ward="13" /><path id="ward-16" class="ward" d="M167.73 733.70L162.36 723.60L160.35 716.79L159.67 714.50L157.14 711.56L155.54 709.98L151.88 706.44L143.74 699.71L139.10 697.62L136.63 696.53L124.29 693.27L122.39 691.60L118.65 688.50L114.91 685.40L106.56 679.26L98.89 669.73L91.50 663.38L81.65 656.25L77.54 652.87L73.91 650.20L70.28 647.52L64.75 643.93L57.02 637.64L52.88 634.42L50.91 634.43L43.00 641.82L39.45 644.41L35.60 648.10L27.11 655.61L22.84 659.40L10.82 668.88L8.46 670.71L0.00 677.39L3.44 680.39L7.36 683.81L11.17 687.87L12.62 693.68L13.46 697.04L15.97 699.36L16.91 702.39L21.06 706.68L23.51 707.76L28.80 710.11L33.17 711.76L36.65 713.08L39.56 717.91L39.79 720.97L40.16 726.08L40.33 728.53L40.53 731.20L42.73 732.72L42.78 735.82L42.82 738.94L43.42 741.37L46.40 740.88L49.93 740.29L52.41 739.87L55.17 742.98L57.17 745.25L60.05 746.78L62.27 748.58L64.17 750.12L60.97 752.21L58.58 755.50L57.20 757.38L55.36 759.90L52.41 762.73L50.65 764.41L48.56 766.41L43.89 767.46L41.24 767.28L37.26 767.53L34.09 769.37L34.56 772.94L36.77 775.74L38.91 779.07L39.91 782.35L39.56 785.03L39.02 789.25L38.29 792.69L39.38 798.12L38.42 803.35L39.13 806.57L39.04 812.31L38.05 816.27L36.89 820.85L36.43 824.23L36.29 826.69L38.25 831.91L43.22 834.40L45.52 840.93L52.57 841.43L55.06 841.18L63.77 838.70L66.87 834.74L68.06 831.17L72.75 832.21L76.07 831.61L77.80 830.02L79.92 827.60L83.58 823.41L86.08 822.36L89.92 820.74L95.95 819.81L93.88 814.65L94.28 811.28L95.00 807.18L96.52 804.82L98.78 801.76L104.79 795.31L112.86 788.98L114.74 786.05L116.16 780.88L116.90 775.24L119.48 773.84L124.39 774.32L132.43 773.13L136.34 772.23L141.88 770.97L151.92 770.58L154.47 770.13L155.77 780.91L164.42 780.10L170.38 775.60L174.21 775.47L178.85 775.07L178.38 767.95L175.83 757.39L175.58 753.29L175.33 750.12L173.88 745.55L167.73 733.70Z" data-ward="16" /><path id="ward-20" class="ward" d="M583.73 504.32L582.43 500.53L581.22 496.12L580.37 493.06L579.01 489.57L576.18 483.33L574.87 480.69L573.73 477.87L572.58 475.80L570.62 472.59L568.72 470.37L566.44 468.41L563.33 466.03L561.38 464.93L559.33 462.99L558.20 458.49L558.35 454.24L558.49 448.68L558.60 446.13L557.65 442.25L555.44 439.83L552.46 438.47L549.82 438.20L546.57 439.04L544.30 439.78L541.81 440.56L538.53 441.65L535.99 442.59L533.48 443.49L529.99 444.83L525.88 448.98L523.57 451.60L521.64 454.05L519.75 455.85L516.77 458.99L514.57 461.21L511.85 463.61L505.85 468.46L504.12 469.86L501.13 473.52L499.16 476.83L497.02 480.30L494.95 483.47L491.54 488.57L487.78 493.86L484.57 497.14L481.36 500.42L478.85 502.10L473.99 504.61L468.13 506.85L465.99 505.52L462.05 503.81L457.49 503.05L454.56 502.10L451.82 501.21L447.58 499.83L443.21 498.34L438.45 496.71L436.99 498.67L435.48 500.93L433.77 503.50L431.36 506.95L427.99 511.64L425.70 514.82L424.29 516.69L420.28 521.51L418.80 524.11L418.10 526.45L417.70 528.88L416.50 536.03L415.60 543.83L415.36 546.36L415.11 549.86L414.86 553.34L413.74 556.83L409.65 558.81L403.85 561.62L403.72 562.63L407.38 564.61L412.46 564.54L417.54 564.47L423.73 566.03L428.43 567.22L433.28 568.56L435.69 569.22L437.41 571.20L440.86 573.26L444.22 573.84L449.50 573.93L453.78 575.58L456.05 578.50L457.23 580.64L458.00 582.80L461.36 589.06L463.75 593.52L465.42 596.55L466.90 599.49L467.95 601.48L469.77 604.89L471.49 610.81L470.75 613.05L470.76 615.55L473.14 618.02L474.03 620.44L474.92 622.86L476.07 630.16L476.43 632.43L476.64 634.78L476.57 637.32L477.29 642.51L477.53 645.58L477.80 648.54L480.39 651.38L484.43 656.70L484.41 660.94L483.47 664.83L482.42 668.09L480.66 673.90L479.82 677.35L482.95 677.61L485.74 676.61L489.70 674.15L492.07 670.78L494.42 670.76L494.60 666.92L496.80 663.93L498.23 661.78L499.48 659.56L500.78 657.45L502.16 655.08L504.57 651.33L505.91 649.18L508.53 646.17L510.04 644.46L511.52 642.45L514.07 639.11L515.88 637.65L518.78 634.38L521.14 632.52L523.62 630.38L525.62 628.64L527.41 624.78L527.32 620.84L527.50 617.26L529.38 612.43L533.53 611.51L535.90 611.66L540.38 611.26L544.60 610.51L547.88 609.42L549.91 608.30L553.84 606.22L556.05 605.03L558.22 603.80L560.50 602.63L563.59 600.66L568.03 597.65L570.20 596.16L572.35 594.49L575.91 592.56L580.58 589.99L582.92 588.72L586.61 586.52L588.95 584.87L591.13 583.19L593.68 581.56L597.04 580.15L599.72 579.21L602.14 578.21L604.99 576.98L602.55 572.54L601.20 567.35L600.00 563.80L598.44 560.18L597.26 558.29L594.84 555.49L593.58 553.08L593.18 550.80L592.94 543.04L592.33 539.35L591.65 536.09L591.08 533.59L590.04 529.05L588.16 521.80L586.71 517.03L585.70 512.06L585.07 509.52L584.52 507.30L583.73 504.32Z" data-ward="20" /><path id="ward-4" class="ward" d="M665.64 289.81L663.03 288.09L659.02 282.08L657.41 279.22L655.80 276.36L654.22 273.17L653.24 270.44L650.08 272.22L645.56 275.21L639.90 278.58L639.75 283.60L642.15 289.21L644.05 292.57L648.99 297.38L651.49 304.92L652.06 311.60L653.18 320.56L650.62 325.86L648.94 329.32L647.51 332.44L642.84 342.10L640.44 347.07L638.71 350.61L634.24 360.34L632.97 362.81L629.80 368.90L628.23 372.52L625.56 378.14L622.88 383.76L621.46 386.55L617.11 395.65L611.77 406.90L608.27 408.01L603.32 409.49L597.56 412.89L592.77 415.41L584.67 418.67L579.10 420.92L571.82 425.53L569.78 426.94L567.75 428.35L565.43 431.62L561.97 431.97L556.88 432.31L555.44 439.83L557.65 442.25L558.60 446.13L558.49 448.68L558.35 454.24L558.20 458.49L559.33 462.99L561.38 464.93L563.33 466.03L566.44 468.41L568.72 470.37L570.62 472.59L572.58 475.80L573.73 477.87L574.87 480.69L576.18 483.33L579.01 489.57L580.37 493.06L581.22 496.12L582.43 500.53L583.73 504.32L584.52 507.30L585.07 509.52L585.70 512.06L586.71 517.03L588.16 521.80L590.04 529.05L591.08 533.59L591.65 536.09L592.33 539.35L592.94 543.04L593.18 550.80L593.58 553.08L594.84 555.49L597.26 558.29L598.44 560.18L600.00 563.80L601.20 567.35L602.55 572.54L604.99 576.98L607.42 575.92L610.25 575.15L613.39 574.17L615.56 573.45L618.11 572.85L622.04 572.09L627.68 570.80L632.56 568.07L637.16 565.16L640.65 563.26L642.73 562.08L646.80 560.14L649.80 559.14L652.02 559.01L655.50 559.09L658.39 559.38L659.22 553.26L659.45 551.03L659.72 548.01L659.82 545.65L659.75 543.37L660.24 538.95L660.48 536.65L660.74 534.19L661.07 529.23L661.21 526.88L661.21 522.89L661.24 520.46L661.22 517.81L661.13 514.96L661.11 511.30L660.87 506.65L662.31 499.81L664.22 493.89L665.68 490.68L667.19 487.56L667.95 485.24L668.60 482.63L669.28 480.31L671.69 473.00L673.09 468.76L673.97 466.10L674.47 463.03L674.78 460.81L675.26 457.90L675.94 454.83L676.65 451.54L677.24 448.83L677.91 445.97L678.54 443.39L679.97 439.26L681.11 436.31L681.87 432.73L683.21 429.88L684.88 425.82L686.91 422.25L687.92 420.11L689.09 417.69L690.18 415.17L691.97 412.70L696.52 407.11L699.99 402.51L701.98 400.10L703.44 397.73L705.08 395.10L706.93 391.35L708.16 388.24L710.67 387.53L709.93 384.07L711.97 379.89L713.15 377.59L714.70 375.61L716.99 372.59L718.95 370.39L721.09 367.98L722.70 366.24L724.40 364.75L727.80 363.07L729.86 362.19L735.14 360.29L738.40 358.79L742.47 356.91L746.68 354.99L749.72 353.56L752.04 352.47L754.16 350.60L754.36 348.02L753.97 345.13L752.89 340.64L751.56 335.83L750.61 333.77L749.17 331.96L747.38 329.64L745.96 327.72L744.71 324.77L744.08 322.49L743.61 319.42L743.66 315.72L744.09 310.53L744.72 305.62L741.24 306.89L738.81 305.91L736.38 304.93L732.05 302.50L728.33 299.02L725.06 297.03L719.89 295.68L714.40 294.39L710.63 293.76L705.93 292.99L700.64 291.63L694.69 290.17L689.82 289.20L685.04 289.20L681.55 289.39L677.80 289.59L674.26 289.79L668.02 290.42L665.64 289.81Z" data-ward="4" /><path id="ward-12" class="ward" d="M641.15 607.96L640.60 605.19L640.53 602.73L640.79 600.30L641.80 597.73L643.47 593.48L644.49 591.18L645.66 589.07L648.01 586.04L650.23 584.57L653.79 583.55L656.67 581.91L657.27 578.78L657.41 575.66L657.48 573.06L657.58 569.48L657.89 565.53L658.08 563.20L658.39 559.38L655.50 559.09L652.02 559.01L649.80 559.14L646.80 560.14L642.73 562.08L640.65 563.26L637.16 565.16L632.56 568.07L627.68 570.80L622.04 572.09L618.11 572.85L615.56 573.45L613.39 574.17L610.25 575.15L607.42 575.92L604.99 576.98L602.14 578.21L599.72 579.21L597.04 580.15L593.68 581.56L591.13 583.19L588.95 584.87L586.61 586.52L582.92 588.72L580.58 589.99L575.91 592.56L572.35 594.49L570.20 596.16L568.03 597.65L563.59 600.66L560.50 602.63L558.22 603.80L556.05 605.03L553.84 606.22L549.91 608.30L547.88 609.42L544.60 610.51L540.38 611.26L535.90 611.66L533.53 611.51L529.38 612.43L527.50 617.26L527.32 620.84L527.41 624.78L525.62 628.64L523.62 630.38L521.14 632.52L518.78 634.38L515.88 637.65L514.07 639.11L511.52 642.45L510.04 644.46L508.53 646.17L505.91 649.18L504.57 651.33L502.16 655.08L500.78 657.45L499.48 659.56L498.23 661.78L496.80 663.93L494.60 666.92L494.42 670.76L495.77 673.64L498.11 674.68L503.27 675.02L507.46 675.37L510.88 676.08L513.54 677.15L516.64 678.23L519.63 678.99L522.73 679.44L525.59 679.38L528.34 679.43L532.67 679.07L540.28 679.28L546.60 680.68L549.62 681.43L553.17 681.89L555.86 682.32L560.19 682.45L563.55 682.88L566.76 683.46L569.05 683.88L575.73 685.27L578.57 684.72L579.15 687.54L575.93 696.55L576.02 704.38L576.12 712.18L574.43 720.62L582.18 719.47L594.03 720.44L599.29 722.67L601.87 726.53L609.85 726.75L617.84 726.98L619.03 734.86L619.43 739.60L620.05 744.80L620.67 749.99L620.07 753.91L624.56 756.87L626.43 758.79L627.99 760.47L629.94 761.58L634.61 761.16L636.93 761.11L641.87 761.08L644.77 761.29L649.70 761.49L652.44 761.66L656.33 761.78L658.57 761.83L662.47 762.37L666.04 763.01L669.72 764.31L673.37 765.86L677.59 768.16L680.72 769.41L682.99 770.07L686.12 771.47L689.38 772.72L693.44 772.95L696.23 773.02L699.55 772.69L702.72 772.50L706.54 771.94L708.99 771.78L711.51 771.63L714.15 771.77L718.55 770.93L722.55 769.02L725.86 767.53L728.55 766.56L731.33 765.69L733.35 763.72L735.37 761.92L735.09 759.31L734.43 756.44L733.55 754.23L732.07 750.84L731.03 745.47L731.53 740.95L731.15 736.91L730.59 734.41L729.84 730.95L729.29 728.49L728.78 724.64L728.39 721.42L728.04 717.15L727.74 714.19L727.88 709.62L727.96 706.60L728.79 701.57L729.95 696.53L731.17 693.17L730.94 690.45L730.08 687.18L728.59 684.96L726.31 682.46L721.24 680.23L719.76 678.18L719.41 674.25L719.12 670.74L717.63 668.40L715.57 667.27L714.05 663.24L713.31 660.63L712.42 657.30L712.01 653.22L712.58 650.30L713.43 647.75L714.02 645.53L715.35 642.36L712.48 640.88L709.84 639.77L707.60 638.93L704.58 637.53L701.62 635.61L699.26 634.25L696.96 633.53L694.43 632.48L691.37 631.65L688.34 631.24L685.14 630.98L682.21 630.83L679.44 630.77L676.58 630.91L672.36 631.19L669.91 630.66L667.25 629.41L664.89 628.10L662.51 626.85L658.70 624.82L654.65 622.87L652.27 622.04L648.49 621.08L645.45 620.60L643.76 618.22L642.59 614.48L641.76 611.90L641.15 607.96Z" data-ward="12" /></svg>