<svg viewBox="0 0 1000.00 1281.98" xmlns="http://www.w3.org/2000/svg"><style>.ward { fill: #e2e8f0; stroke: #fff; stroke-width: 0.5px; } .ward:hover { fill: #cbd5e1; }</style><path id="ward-4" class="ward" d="M521.68 349.58L519.84 347.37L518.64 346.11L516.83 345.39L515.01 344.67L511.44 342.00L507.25 345.14L502.40 347.25L493.07 351.04L489.07 352.17L487.26 353.48L482.95 359.49L475.95 363.09L474.58 364.36L471.97 367.72L464.72 369.68L457.74 370.26L458.99 372.39L460.36 373.71L462.45 375.44L464.33 376.90L467.45 379.36L475.70 393.32L468.70 396.25L466.59 397.15L462.94 400.19L460.65 404.49L455.97 413.28L455.56 415.26L453.31 415.78L450.66 416.91L452.89 422.54L452.63 432.81L454.18 440.46L454.65 442.75L453.01 444.94L450.34 446.83L448.11 448.41L447.39 451.05L446.27 453.77L442.18 458.24L439.26 458.73L435.59 459.30L440.16 468.77L444.15 472.60L445.63 473.97L449.18 477.29L453.90 483.52L457.61 485.99L460.35 487.82L469.51 492.42L474.77 495.10L478.26 496.81L480.29 497.76L481.33 499.21L483.16 501.78L488.26 508.91L489.29 507.07L498.91 502.57L500.88 501.67L506.88 502.12L514.55 503.08L516.89 501.59L518.48 500.69L520.08 499.79L524.85 497.59L529.13 495.06L532.31 492.78L534.78 489.84L545.98 487.95L557.58 483.00L550.90 466.78L551.59 464.31L552.71 460.61L558.67 455.53L561.67 455.77L564.93 457.31L568.75 457.61L569.16 455.22L567.64 446.56L566.42 443.81L565.40 441.49L561.26 435.70L557.64 428.62L557.79 426.46L558.75 424.66L563.12 422.85L566.52 422.89L568.10 422.20L570.00 420.78L572.06 417.66L574.05 415.77L576.58 414.92L581.09 414.32L583.35 413.15L584.15 411.62L584.16 408.59L584.26 405.19L583.33 399.58L583.02 397.73L583.69 395.97L586.44 394.11L588.56 391.85L589.02 389.77L591.80 390.56L594.05 391.20L597.66 395.32L602.44 395.26L610.26 392.78L616.57 392.28L619.99 391.28L621.06 392.73L622.56 393.35L629.08 391.53L632.32 390.17L636.79 389.61L640.23 388.53L638.54 384.24L638.55 381.85L640.67 379.68L643.08 378.08L646.73 375.67L634.59 364.19L628.98 365.25L626.37 359.62L621.08 361.39L617.30 354.72L611.54 350.94L599.78 350.88L596.98 346.46L594.03 344.33L589.19 346.38L586.66 343.79L584.80 343.57L582.75 346.41L579.47 351.13L575.81 356.39L571.56 358.36L567.87 359.53L565.29 360.89L563.05 359.34L559.87 358.86L557.03 359.04L554.18 359.51L551.25 359.99L549.24 359.90L545.78 359.69L541.92 358.95L539.95 357.18L533.64 348.52L524.53 353.01L521.68 349.58Z" data-ward="4" /><path id="ward-12" class="ward" d="M388.59 653.28L384.06 650.57L379.84 647.43L377.56 645.69L375.34 643.98L373.18 642.22L370.71 639.82L367.76 636.39L365.29 633.63L353.16 621.02L352.91 616.94L352.84 613.08L350.33 609.98L348.53 607.51L344.84 605.01L343.67 602.05L342.25 597.86L340.65 592.97L338.62 591.38L336.32 589.30L332.57 593.41L325.52 593.66L322.54 594.95L317.25 599.74L311.06 605.35L305.39 610.49L303.46 612.24L306.56 614.87L307.50 617.23L308.96 620.90L309.82 622.61L311.25 626.60L315.01 628.48L317.31 629.63L320.21 632.90L322.01 634.93L325.08 640.03L325.98 643.57L326.28 646.59L327.48 652.88L327.87 654.96L326.84 657.69L322.11 660.70L317.84 661.07L315.75 660.64L312.63 661.92L311.59 663.93L309.97 668.89L312.58 677.77L312.90 680.49L312.93 683.95L319.52 690.59L322.35 693.43L325.93 696.95L330.77 701.72L334.81 705.79L336.88 707.87L339.70 709.67L341.92 711.09L344.64 712.82L346.73 715.33L349.10 718.19L351.97 722.12L355.04 726.30L352.82 731.12L350.12 733.36L347.35 735.65L348.70 739.61L348.51 742.27L348.25 744.12L352.30 743.48L354.90 746.18L356.34 750.05L356.38 752.83L356.43 755.61L356.26 758.08L361.72 761.02L369.28 767.17L357.72 779.88L358.84 788.25L357.23 789.36L353.47 791.97L351.01 793.69L345.68 797.39L343.43 798.76L341.41 799.60L338.67 800.76L336.73 801.58L333.73 802.85L330.69 804.13L325.15 805.22L322.08 806.36L319.72 807.23L320.63 810.67L322.13 812.42L324.61 814.16L326.08 815.17L328.25 816.66L329.89 817.95L331.36 820.24L334.18 821.82L336.62 820.33L338.61 820.89L340.05 823.16L341.37 825.26L342.83 827.58L344.34 829.98L346.04 833.59L347.16 835.98L348.83 839.52L350.03 843.48L351.23 847.45L349.92 851.57L348.16 857.14L348.67 860.48L349.13 863.49L354.67 861.83L358.19 861.07L360.86 860.49L365.52 859.49L373.70 857.74L377.67 856.89L379.50 856.50L381.66 856.03L384.43 855.43L387.19 854.84L390.76 854.08L393.65 853.45L395.90 852.97L399.93 852.10L402.05 851.64L404.14 851.19L406.23 850.75L408.01 850.28L410.71 849.12L412.32 848.43L416.79 846.51L418.67 845.70L420.38 844.96L422.99 845.43L425.59 845.90L426.78 849.37L428.34 851.66L431.64 850.24L434.28 847.68L439.22 842.76L442.01 839.99L443.96 842.62L446.57 846.11L450.39 850.59L453.18 852.63L455.42 854.26L459.95 857.44L466.81 861.63L472.58 866.71L476.40 871.37L476.56 873.92L477.48 878.92L480.34 887.90L481.72 889.25L483.92 891.39L487.33 895.12L490.86 898.51L493.85 900.40L496.30 901.69L499.40 902.11L501.83 900.20L505.87 896.99L508.58 895.85L511.79 894.91L514.04 894.63L516.27 894.38L518.42 894.12L523.07 893.59L530.34 884.51L532.04 882.40L535.68 877.89L536.79 876.49L538.35 873.14L539.75 870.15L540.70 866.18L541.30 863.65L541.51 860.61L541.78 856.55L541.29 852.82L541.00 850.61L541.59 848.61L543.41 839.19L536.04 839.97L516.89 842.01L514.76 842.25L510.41 842.71L500.95 843.79L493.72 847.08L487.92 840.29L484.38 835.52L482.24 834.74L479.36 835.36L476.34 832.09L475.13 830.07L473.34 826.50L471.26 822.35L470.74 820.04L470.22 817.73L468.33 813.58L464.93 811.40L462.67 809.75L457.55 802.81L456.58 801.03L454.46 797.06L449.95 794.43L449.22 786.39L451.03 785.13L455.59 782.36L458.10 781.02L462.60 783.27L464.64 784.25L466.54 785.17L473.92 786.69L476.85 787.31L487.08 783.20L485.98 780.00L484.88 776.79L484.02 773.69L483.93 769.75L483.83 765.81L483.67 758.93L483.58 754.98L483.30 752.35L482.29 750.42L481.41 748.72L480.30 746.59L479.46 744.98L478.62 743.36L477.73 741.65L472.35 727.90L470.56 727.03L467.67 726.35L462.22 725.10L455.98 725.10L453.23 725.27L448.87 726.30L444.19 729.93L435.51 733.60L428.06 727.23L426.32 725.71L424.32 723.96L421.86 721.61L419.61 719.39L420.24 713.93L420.79 709.15L419.69 707.64L417.72 705.18L415.31 702.19L413.52 699.92L412.62 697.38L411.08 692.89L410.40 690.90L409.72 688.91L408.67 686.38L406.11 682.94L404.21 678.77L401.65 672.68L402.16 667.10L401.75 664.89L401.33 662.59L400.37 660.33L399.41 658.07L397.12 653.07L392.48 653.85L388.59 653.28Z" data-ward="12" /><path id="ward-16" class="ward" d="M110.29 246.87L111.64 247.77L113.28 248.77L115.47 250.99L117.41 253.94L119.43 255.57L122.62 257.39L124.91 258.67L127.13 259.81L129.44 260.98L131.63 262.10L134.11 263.21L136.58 264.34L138.54 265.68L140.07 266.83L143.73 271.03L145.26 272.32L148.52 275.41L149.63 277.77L150.87 280.41L149.21 282.42L146.80 286.57L145.57 288.68L145.05 292.34L145.61 294.44L146.07 296.53L147.57 301.01L149.14 302.46L150.67 304.94L153.24 308.32L153.94 311.00L155.63 313.99L156.85 315.75L158.29 318.77L159.31 320.89L160.69 323.75L161.44 325.42L162.18 327.08L163.49 329.74L165.98 333.15L166.42 335.48L166.87 337.23L167.35 339.09L168.52 342.87L169.04 344.55L170.55 347.47L171.82 349.94L174.32 353.61L175.66 355.98L176.77 357.73L177.93 359.57L179.92 363.05L180.91 367.20L181.75 370.61L182.26 373.37L183.26 378.83L183.90 383.23L184.69 387.17L185.31 390.26L186.49 395.16L187.09 397.76L187.47 399.47L188.02 402.17L189.07 403.88L190.94 405.51L194.49 406.23L197.50 407.09L198.63 409.08L199.56 410.71L200.40 412.34L201.22 414.34L202.37 417.13L202.90 420.89L203.62 422.74L204.89 424.99L207.05 426.95L208.39 428.33L212.79 432.35L216.35 435.61L217.85 436.88L219.59 437.35L224.43 438.66L226.10 439.49L230.90 446.13L232.38 447.64L233.27 449.69L235.34 451.73L237.54 455.56L239.93 455.38L243.65 459.22L246.74 461.45L248.24 462.54L302.06 457.50L304.21 454.09L306.25 450.76L309.37 449.01L321.53 442.01L339.48 431.56L333.34 408.25L332.19 401.36L332.71 396.41L329.44 394.58L328.82 371.76L317.86 362.21L314.66 359.48L320.09 355.69L327.42 349.82L338.94 340.56L343.76 336.65L370.39 313.30L372.59 311.37L370.71 308.27L369.41 303.30L371.24 296.16L370.87 292.95L368.61 289.65L362.67 280.99L360.81 273.07L360.19 270.96L358.52 266.64L352.33 259.46L350.94 257.95L349.56 256.45L346.81 253.50L343.25 245.25L342.14 241.09L340.88 236.38L335.96 229.95L333.77 231.81L330.80 233.46L327.48 235.30L324.16 237.15L321.45 238.14L317.62 238.61L314.20 237.67L310.89 234.87L308.70 233.01L307.27 231.81L305.84 230.61L303.86 228.96L301.65 227.39L299.93 226.23L297.73 224.75L293.35 221.80L290.06 219.59L286.63 218.85L284.13 218.32L280.97 217.65L277.25 217.18L274.97 217.01L271.63 216.75L269.06 215.61L267.40 214.90L264.30 213.26L261.19 211.63L258.25 210.08L251.57 206.13L247.09 203.48L242.62 200.83L240.91 200.36L237.47 199.42L234.02 198.48L230.77 196.25L226.57 193.37L220.01 188.83L215.80 185.92L211.59 183.01L209.66 181.56L207.78 179.94L206.59 177.77L205.27 176.13L201.50 173.31L199.80 172.03L190.10 164.70L184.98 161.16L183.57 159.81L179.51 155.81L176.14 154.69L172.65 154.42L166.70 153.16L161.09 152.90L154.39 153.49L151.59 154.36L148.75 154.64L144.61 154.74L141.47 156.00L139.04 160.96L138.35 164.36L136.34 165.20L131.44 159.37L123.54 159.90L121.39 160.75L115.79 162.97L111.69 164.64L105.59 167.29L97.37 170.87L95.28 171.79L87.77 175.15L85.92 175.88L83.13 176.36L81.14 176.42L78.25 177.23L75.46 180.13L75.26 184.23L71.90 188.20L68.96 190.53L67.17 192.51L65.22 194.18L63.63 194.91L64.27 197.40L64.07 200.18L66.96 205.44L69.30 205.51L74.11 207.34L74.13 210.12L76.14 214.43L79.76 217.85L81.11 219.63L81.82 220.49L83.53 222.51L85.23 224.53L86.68 225.75L88.12 226.96L89.94 228.60L91.34 229.85L93.03 231.45L94.87 233.38L96.07 234.61L99.57 237.91L100.61 238.98L104.18 242.16L104.63 242.56L108.47 245.49L110.29 246.87Z" data-ward="16" /><path id="ward-11" class="ward" d="M450.39 850.59L446.57 846.11L443.96 842.62L442.01 839.99L439.22 842.76L434.28 847.68L431.64 850.24L428.34 851.66L426.78 849.37L425.59 845.90L422.99 845.43L420.38 844.96L418.67 845.70L416.79 846.51L412.32 848.43L410.71 849.12L408.01 850.28L406.23 850.75L404.14 851.19L402.05 851.64L399.93 852.10L395.90 852.97L393.65 853.45L390.76 854.08L387.19 854.84L384.43 855.43L381.66 856.03L379.50 856.50L377.67 856.89L373.70 857.74L365.52 859.49L360.86 860.49L358.19 861.07L354.67 861.83L349.13 863.49L350.49 866.29L354.19 869.13L362.44 874.21L364.35 876.28L367.98 880.24L371.31 883.86L374.63 888.27L370.59 894.98L365.82 901.41L358.37 907.43L356.51 910.72L354.29 914.66L353.03 916.91L351.28 921.87L350.27 924.72L348.76 926.41L348.76 928.75L350.93 934.51L351.70 936.55L354.15 942.86L354.78 945.09L355.40 947.33L357.25 952.52L358.40 955.73L360.09 959.19L361.44 961.58L362.49 963.42L364.50 966.42L366.92 969.37L369.09 971.55L370.72 973.18L373.04 972.61L377.44 975.73L379.84 977.37L383.62 978.62L386.61 980.84L389.02 981.28L393.19 982.04L397.99 980.91L400.94 981.42L406.02 981.22L410.11 981.06L419.56 976.18L426.02 972.84L435.13 973.05L436.69 972.28L449.00 965.60L451.11 964.46L459.55 969.38L463.61 971.74L465.70 972.70L468.89 974.16L471.62 976.15L475.17 978.74L479.20 979.24L483.74 979.80L488.30 980.18L490.31 979.60L495.43 978.11L498.91 980.76L503.72 984.42L508.31 988.13L513.16 992.81L515.96 996.06L517.38 997.59L520.30 1000.94L522.42 1003.55L523.99 1005.48L525.31 1007.26L528.94 1010.27L530.39 1013.23L531.87 1016.27L533.84 1020.76L535.09 1023.61L536.49 1026.50L538.56 1030.76L541.34 1036.48L545.31 1044.05L547.60 1048.42L549.55 1052.10L551.38 1055.39L552.48 1057.37L552.83 1060.40L553.49 1066.07L554.86 1071.32L556.53 1073.99L559.69 1076.91L564.07 1080.96L567.28 1084.18L569.03 1085.93L570.55 1088.19L573.17 1090.83L574.58 1092.26L578.02 1095.06L579.73 1096.84L581.22 1098.39L582.55 1100.92L583.91 1103.68L585.76 1107.45L587.76 1111.77L590.66 1116.25L591.84 1120.01L593.50 1124.31L594.22 1126.17L595.50 1130.04L596.99 1132.56L599.28 1136.42L602.16 1138.02L603.88 1140.68L605.22 1143.03L606.85 1145.91L608.96 1148.18L612.86 1150.21L615.53 1152.51L614.01 1158.15L617.89 1160.59L622.49 1163.58L624.87 1165.14L628.28 1167.27L630.39 1168.64L633.27 1170.58L635.69 1172.21L638.21 1173.97L639.60 1174.98L642.69 1177.22L644.63 1179.12L647.07 1181.50L649.35 1183.73L650.98 1185.30L653.13 1187.38L655.67 1190.34L657.08 1191.65L659.60 1195.04L663.25 1198.40L665.11 1200.12L666.25 1203.72L666.82 1205.51L665.68 1208.70L667.41 1211.25L669.58 1214.44L671.31 1217.00L672.41 1218.38L673.49 1219.74L674.69 1222.45L676.21 1225.57L677.40 1228.84L679.99 1232.20L682.80 1235.16L684.22 1236.51L688.87 1239.44L690.97 1240.25L693.63 1241.27L696.65 1238.78L699.05 1236.80L703.42 1233.18L706.78 1230.40L708.27 1229.53L711.18 1228.17L716.75 1226.04L722.41 1224.20L724.71 1224.01L727.38 1224.33L729.62 1224.60L731.91 1224.87L734.00 1225.13L736.16 1225.66L739.94 1223.50L754.84 1215.69L763.97 1210.47L773.60 1205.10L780.24 1201.84L778.15 1198.97L772.69 1192.31L762.72 1178.96L758.50 1181.50L754.28 1184.03L744.82 1186.85L740.79 1179.58L737.15 1173.14L730.70 1163.89L728.73 1160.17L728.82 1157.04L727.59 1149.38L725.78 1138.20L725.35 1135.52L724.88 1132.62L723.96 1126.91L721.63 1122.34L708.28 1115.48L704.34 1113.46L703.92 1107.60L702.10 1095.18L701.79 1093.13L699.52 1089.86L697.54 1088.25L695.01 1087.97L692.40 1087.05L682.36 1081.43L682.46 1079.19L683.02 1068.59L678.33 1067.24L675.06 1067.07L673.06 1067.81L671.14 1068.52L666.09 1070.39L664.47 1071.04L659.16 1073.18L656.23 1074.17L654.43 1074.78L649.30 1076.50L646.50 1077.25L644.15 1077.58L640.13 1078.29L636.61 1077.31L636.67 1074.37L636.61 1072.49L631.96 1069.35L627.32 1066.22L624.17 1064.24L619.51 1060.96L611.41 1054.75L609.77 1053.58L607.26 1051.57L602.77 1048.14L596.84 1045.34L594.89 1044.89L592.37 1044.34L583.45 1044.91L580.85 1043.40L579.04 1042.09L577.78 1040.85L572.77 1038.98L568.07 1037.24L560.59 1035.45L558.90 1034.70L555.05 1031.29L553.63 1030.14L550.66 1028.79L548.44 1027.32L549.44 1025.18L549.23 1022.91L548.55 1020.04L548.01 1018.20L547.51 1016.52L546.33 1012.51L545.59 1010.30L544.29 1006.39L542.99 1004.17L540.72 1002.24L539.37 1001.02L538.02 998.60L537.46 996.33L537.09 994.49L535.86 989.80L534.82 987.69L532.21 982.70L530.82 979.45L526.23 973.11L524.74 970.88L525.24 968.55L526.72 966.34L528.14 963.73L528.14 961.15L526.04 955.89L524.12 950.39L522.45 944.07L521.52 941.07L519.44 934.31L518.87 932.44L517.49 925.57L517.23 922.07L517.14 918.40L515.80 914.54L514.05 911.32L513.86 907.11L515.00 904.91L518.91 899.41L521.69 895.53L523.07 893.59L518.42 894.12L516.27 894.38L514.04 894.63L511.79 894.91L508.58 895.85L505.87 896.99L501.83 900.20L499.40 902.11L496.30 901.69L493.85 900.40L490.86 898.51L487.33 895.12L483.92 891.39L481.72 889.25L480.34 887.90L477.48 878.92L476.56 873.92L476.40 871.37L472.58 866.71L466.81 861.63L459.95 857.44L455.42 854.26L453.18 852.63L450.39 850.59Z" data-ward="11" /><path id="ward-14" class="ward" d="M344.50 492.95L342.55 491.33L340.99 490.04L338.59 488.04L336.61 486.39L331.71 482.33L327.42 478.75L325.80 477.40L323.61 475.59L321.42 473.77L319.23 471.95L302.06 457.50L248.24 462.54L244.41 466.46L242.43 468.24L240.75 469.75L238.60 471.68L235.91 473.84L232.93 476.22L231.37 477.99L229.76 479.82L228.55 481.19L227.49 484.90L230.11 488.92L232.18 492.09L235.67 493.71L238.49 495.01L242.90 495.08L248.21 495.17L254.32 497.10L257.14 499.05L259.93 498.77L263.50 498.43L266.17 497.42L270.70 495.72L274.82 494.18L280.35 495.81L281.78 498.23L282.96 501.15L284.54 505.15L282.87 508.02L281.19 510.90L283.18 512.92L287.18 517.01L290.95 522.43L293.55 527.59L295.61 531.69L297.26 534.53L299.33 538.07L301.13 541.32L303.44 545.49L304.06 547.09L306.18 552.52L303.51 553.07L309.29 556.15L312.19 557.73L313.85 558.64L315.76 560.34L318.64 561.42L319.93 564.08L321.51 567.35L323.73 570.61L330.05 579.85L333.27 585.43L336.32 589.30L338.62 591.38L340.65 592.97L342.25 597.86L343.67 602.05L344.84 605.01L348.53 607.51L350.33 609.98L352.84 613.08L352.91 616.94L353.16 621.02L365.29 633.63L367.76 636.39L370.71 639.82L373.18 642.22L375.34 643.98L377.56 645.69L379.84 647.43L384.06 650.57L388.59 653.28L392.48 653.85L397.12 653.07L411.12 652.33L414.38 652.63L422.84 648.80L428.00 648.08L433.32 647.26L438.41 643.30L441.25 639.91L440.52 637.82L437.12 633.68L432.01 629.57L427.72 624.59L426.36 621.52L425.18 613.14L424.43 608.65L424.69 597.95L426.57 596.30L430.21 595.29L436.39 592.05L438.35 591.03L441.71 589.28L445.85 586.84L448.64 585.35L452.95 595.37L453.80 597.16L463.68 610.01L465.41 612.95L468.84 616.02L471.21 618.07L475.40 622.63L479.47 627.06L481.76 629.39L484.77 632.45L487.19 633.14L489.84 633.46L493.28 637.18L498.74 643.29L510.12 650.50L513.55 653.15L517.42 658.69L519.68 657.55L522.47 655.88L522.59 652.65L524.60 652.10L526.72 651.57L530.57 649.65L532.52 648.67L534.57 649.00L535.97 650.63L538.76 653.58L541.82 655.34L544.96 655.55L548.34 656.89L550.85 657.88L554.70 658.49L556.89 658.49L556.86 656.62L556.83 653.34L556.99 651.43L556.90 649.39L556.56 645.58L556.37 643.39L555.68 641.23L554.82 638.55L552.32 633.26L550.60 629.48L549.14 626.45L547.86 623.36L546.34 620.03L544.99 616.26L543.13 610.96L542.53 608.99L542.08 606.36L542.33 604.59L543.55 602.44L544.52 600.67L545.60 598.71L547.89 594.19L548.11 591.76L545.93 582.18L544.79 577.54L541.86 570.54L539.25 563.48L538.39 561.29L537.53 558.86L535.88 557.33L534.10 557.91L532.26 558.51L527.44 561.09L525.43 561.62L523.42 561.68L517.56 561.43L514.52 561.11L512.52 561.16L510.52 561.22L503.94 563.95L500.47 565.10L497.54 566.05L494.66 566.69L489.57 565.71L487.35 567.65L487.77 570.03L490.35 577.77L490.06 579.46L487.97 579.89L480.68 579.05L477.14 578.80L468.33 578.99L466.02 579.05L457.93 580.93L451.21 583.41L448.19 573.54L446.18 568.74L445.01 565.95L447.63 564.17L450.67 562.92L451.01 560.24L451.01 558.14L451.01 555.48L449.80 552.50L449.58 549.93L453.54 547.91L453.93 544.46L453.88 542.67L457.22 542.46L457.52 540.73L459.57 540.17L463.57 537.02L459.26 535.84L456.49 535.07L455.46 532.47L453.53 531.18L446.01 531.85L437.22 533.34L434.02 535.23L431.77 536.65L430.51 540.28L426.11 537.98L420.40 532.59L418.84 531.50L415.64 531.27L412.25 531.86L409.19 525.64L408.32 523.72L405.88 518.17L405.05 516.29L400.49 512.84L399.68 510.87L397.97 503.74L394.99 495.56L391.22 490.43L387.04 483.80L385.17 480.80L375.56 485.71L372.60 487.54L371.11 488.46L369.62 489.37L366.64 491.21L363.52 492.97L358.93 494.84L354.36 496.70L349.80 497.36L348.12 495.96L346.56 494.66L344.50 492.95Z" data-ward="14" /><path id="ward-2" class="ward" d="M311.71 65.17L309.06 65.05L303.91 62.82L294.04 58.01L284.92 53.56L282.67 52.46L279.71 52.13L271.11 51.24L267.87 50.90L264.98 50.59L262.13 50.29L260.15 51.24L257.33 52.60L255.32 53.56L248.06 57.04L245.58 58.60L242.89 60.29L240.77 62.73L239.27 64.46L237.18 66.89L234.50 68.90L233.03 70.01L231.45 71.19L229.61 72.57L226.42 74.97L224.05 76.75L222.37 77.78L220.85 78.71L219.34 79.64L216.74 81.24L213.82 83.03L211.02 83.69L208.24 84.35L204.43 85.25L202.73 85.65L200.75 86.12L198.74 86.59L196.51 87.12L194.52 87.59L182.60 86.83L180.32 86.64L177.78 86.20L175.20 85.58L173.63 88.76L171.06 90.62L172.32 93.97L173.38 95.54L175.53 99.10L176.64 103.60L177.06 105.65L177.85 109.56L178.62 113.36L180.48 118.26L180.58 120.84L181.51 129.49L186.08 141.33L187.87 142.27L190.84 147.86L187.35 150.30L184.62 152.21L179.51 155.81L183.57 159.81L184.98 161.16L190.10 164.70L199.80 172.03L201.50 173.31L205.27 176.13L206.59 177.77L207.78 179.94L209.66 181.56L211.59 183.01L215.80 185.92L220.01 188.83L226.57 193.37L230.77 196.25L234.02 198.48L237.47 199.42L240.91 200.36L242.62 200.83L247.09 203.48L251.57 206.13L258.25 210.08L261.19 211.63L264.30 213.26L267.40 214.90L269.06 215.61L271.63 216.75L274.97 217.01L277.25 217.18L280.97 217.65L284.13 218.32L286.63 218.85L290.06 219.59L293.35 221.80L297.73 224.75L299.93 226.23L301.65 227.39L303.86 228.96L305.84 230.61L307.27 231.81L308.70 233.01L310.89 234.87L314.20 237.67L317.62 238.61L321.45 238.14L324.16 237.15L327.48 235.30L330.80 233.46L333.77 231.81L335.96 229.95L340.14 226.13L345.62 219.99L349.12 215.00L338.71 208.59L337.05 202.65L335.11 196.18L333.21 192.55L334.01 188.99L334.97 185.78L338.69 180.83L339.06 178.05L339.68 170.50L339.17 166.45L338.45 160.55L342.46 153.11L345.54 140.29L344.98 134.03L344.47 132.27L345.02 129.68L353.11 132.25L357.27 131.27L359.03 131.82L361.84 133.57L365.08 135.60L370.67 135.64L378.07 135.28L379.07 130.47L381.13 130.98L382.66 131.76L385.43 133.05L388.59 133.81L390.17 130.74L393.80 134.53L396.90 137.67L400.36 139.74L409.61 139.16L422.07 137.23L429.23 136.87L436.36 141.43L436.29 138.50L434.42 132.50L430.00 130.22L425.39 118.25L423.23 112.62L422.56 111.02L420.23 107.51L417.88 105.71L414.13 102.91L411.07 100.88L409.50 99.84L406.13 97.60L404.29 96.97L397.01 94.46L390.90 92.37L387.22 90.25L384.51 88.69L380.56 86.04L378.06 84.37L375.94 82.94L374.33 81.86L364.44 73.70L361.45 71.68L355.99 67.97L351.84 65.15L347.36 63.14L344.78 62.28L339.08 61.42L329.85 62.86L326.79 63.60L318.81 65.52L311.71 65.17Z" data-ward="2" /><path id="ward-6" class="ward" d="M558.83 565.16L553.21 559.09L548.45 550.16L549.56 544.81L547.52 534.82L545.39 535.69L543.15 536.79L541.61 537.91L539.69 541.67L537.99 545.01L537.26 547.26L536.54 550.60L536.63 553.61L536.78 555.38L535.88 557.33L537.53 558.86L538.39 561.29L539.25 563.48L541.86 570.54L544.79 577.54L545.93 582.18L548.11 591.76L547.89 594.19L545.60 598.71L544.52 600.67L543.55 602.44L542.33 604.59L542.08 606.36L542.53 608.99L543.13 610.96L544.99 616.26L546.34 620.03L547.86 623.36L549.14 626.45L550.60 629.48L552.32 633.26L554.82 638.55L555.68 641.23L556.37 643.39L556.56 645.58L556.90 649.39L556.99 651.43L556.83 653.34L556.86 656.62L556.89 658.49L556.95 662.77L556.86 664.52L556.67 666.27L560.88 666.23L564.44 666.61L567.01 666.51L572.22 666.46L582.48 665.63L585.34 665.39L588.08 671.25L590.26 675.91L591.70 677.28L593.12 678.66L600.22 684.73L602.90 687.46L603.62 689.25L604.40 691.44L613.98 717.98L617.45 722.94L620.54 728.00L621.41 729.53L622.36 731.59L625.11 738.08L626.02 739.91L627.20 743.04L629.51 741.42L629.23 738.87L629.05 734.49L635.46 729.13L648.92 715.89L647.86 714.14L643.57 707.05L640.98 696.77L639.75 692.19L636.66 688.80L633.76 681.22L642.01 677.93L652.37 674.47L686.38 660.05L640.25 601.54L639.94 598.64L639.82 596.93L639.51 592.63L619.98 592.33L608.00 593.93L600.05 594.87L598.68 584.76L596.83 582.58L594.36 577.35L594.60 571.37L593.39 569.41L592.26 566.70L591.23 564.25L588.17 556.88L586.13 551.97L585.11 549.52L582.94 550.52L575.20 556.34L570.96 564.59L569.08 568.14L562.26 572.19L558.83 565.16Z" data-ward="6" /><path id="ward-7" class="ward" d="M718.69 739.77L686.38 660.05L652.37 674.47L642.01 677.93L633.76 681.22L636.66 688.80L639.75 692.19L640.98 696.77L643.57 707.05L647.86 714.14L648.92 715.89L635.46 729.13L629.05 734.49L629.23 738.87L629.51 741.42L627.20 743.04L626.02 739.91L625.11 738.08L622.36 731.59L621.41 729.53L620.54 728.00L617.45 722.94L613.98 717.98L604.40 691.44L603.62 689.25L602.90 687.46L600.22 684.73L593.12 678.66L591.70 677.28L590.26 675.91L588.08 671.25L585.34 665.39L582.48 665.63L572.22 666.46L567.01 666.51L564.44 666.61L560.88 666.23L556.67 666.27L556.48 668.48L555.93 676.00L555.08 687.52L554.96 689.29L550.32 703.35L548.11 710.05L547.31 712.57L545.33 718.58L543.36 724.63L542.60 726.92L541.57 733.44L541.07 738.43L540.72 740.98L540.51 742.74L539.54 750.76L539.11 754.21L538.69 757.67L537.84 764.59L536.57 774.96L536.06 779.09L534.95 784.98L536.38 793.66L537.40 796.27L538.10 798.02L540.06 802.99L543.00 809.89L545.67 820.25L546.11 821.99L552.23 820.88L554.29 820.51L558.36 819.80L560.87 819.37L566.51 818.39L569.59 818.72L571.43 819.84L572.50 821.34L575.39 822.44L578.80 823.12L581.53 823.13L584.32 822.61L587.49 820.41L592.01 817.87L595.31 817.10L599.39 815.95L601.69 815.76L604.13 814.93L606.99 813.61L614.82 810.01L621.96 806.70L626.35 804.31L633.62 810.29L639.10 814.35L645.86 812.64L655.13 807.05L660.16 804.01L666.78 798.22L687.51 780.47L690.68 784.17L691.88 785.43L694.09 787.76L697.15 793.29L698.01 794.85L697.86 799.69L697.77 802.55L712.03 812.29L713.33 814.68L714.25 816.38L718.58 823.85L722.24 826.33L726.54 829.46L737.79 827.13L737.38 834.76L737.25 838.12L737.18 840.12L742.70 839.06L744.86 838.64L744.18 836.12L743.50 833.61L747.91 813.28L750.69 802.36L751.63 798.64L747.21 795.46L725.67 780.30L711.69 770.35L707.07 764.76L718.69 739.77Z" data-ward="7" /><path id="ward-5" class="ward" d="M655.62 385.73L649.12 378.38L646.73 375.67L643.08 378.08L640.67 379.68L638.55 381.85L638.54 384.24L640.23 388.53L636.79 389.61L632.32 390.17L629.08 391.53L622.56 393.35L621.06 392.73L619.99 391.28L616.57 392.28L610.26 392.78L602.44 395.26L597.66 395.32L594.05 391.20L591.80 390.56L589.02 389.77L588.56 391.85L586.44 394.11L583.69 395.97L583.02 397.73L583.33 399.58L584.26 405.19L584.16 408.59L584.15 411.62L583.35 413.15L581.09 414.32L576.58 414.92L574.05 415.77L572.06 417.66L570.00 420.78L568.10 422.20L566.52 422.89L563.12 422.85L558.75 424.66L557.79 426.46L557.64 428.62L561.26 435.70L565.40 441.49L566.42 443.81L567.64 446.56L569.16 455.22L568.75 457.61L564.93 457.31L561.67 455.77L558.67 455.53L552.71 460.61L551.59 464.31L550.90 466.78L557.58 483.00L565.75 504.46L566.61 518.36L566.60 525.11L565.82 528.34L564.07 530.08L561.07 530.90L558.55 531.59L551.37 533.56L547.52 534.82L549.56 544.81L548.45 550.16L553.21 559.09L558.83 565.16L562.26 572.19L569.08 568.14L570.96 564.59L575.20 556.34L582.94 550.52L585.11 549.52L586.13 551.97L588.17 556.88L591.23 564.25L592.26 566.70L593.39 569.41L594.60 571.37L594.36 577.35L596.83 582.58L598.68 584.76L600.05 594.87L608.00 593.93L619.98 592.33L639.51 592.63L639.82 596.93L639.94 598.64L640.25 601.54L686.38 660.05L718.69 739.77L707.07 764.76L711.69 770.35L725.67 780.30L747.21 795.46L751.63 798.64L756.19 781.18L756.66 779.36L761.32 765.35L762.07 761.63L763.28 755.64L763.27 753.72L763.32 751.06L762.86 747.57L762.45 744.47L762.43 739.85L762.28 736.88L762.18 734.04L761.79 729.43L761.09 727.05L759.70 722.30L758.52 718.26L756.99 713.03L755.76 709.91L755.02 707.52L753.11 703.23L751.51 699.64L749.85 695.93L748.53 692.95L748.20 689.59L747.86 685.18L746.29 681.40L744.72 677.63L742.87 673.18L741.71 669.09L741.01 666.62L739.29 665.57L737.30 662.64L734.41 661.03L731.49 659.40L728.47 657.83L726.74 656.93L724.13 655.56L722.29 652.29L721.37 650.49L720.38 646.90L720.96 643.21L724.16 637.95L725.08 636.43L726.78 633.69L728.10 630.18L729.55 626.99L729.14 624.54L725.89 617.74L724.47 616.29L721.54 613.29L720.72 608.70L719.97 604.46L717.13 599.18L713.23 592.90L710.95 587.87L707.55 580.39L706.12 576.85L704.75 573.70L703.91 571.48L700.66 562.75L699.77 558.81L700.74 557.23L703.11 553.34L703.29 550.98L703.48 548.62L701.66 546.68L705.40 530.33L708.18 517.84L708.60 515.21L710.10 505.72L714.37 478.79L718.33 464.43L712.90 462.60L700.86 445.17L699.87 443.74L697.74 438.25L696.78 436.18L694.54 431.38L683.35 421.27L684.80 418.76L664.63 395.93L655.62 385.73Z" data-ward="5" /><path id="ward-15" class="ward" d="M449.18 477.29L445.63 473.97L444.15 472.60L440.16 468.77L435.59 459.30L439.26 458.73L442.18 458.24L446.27 453.77L447.39 451.05L448.11 448.41L450.34 446.83L453.01 444.94L454.65 442.75L454.18 440.46L452.63 432.81L452.89 422.54L450.66 416.91L453.31 415.78L455.56 415.26L455.97 413.28L447.63 412.12L441.43 411.26L437.04 410.65L434.17 409.67L429.37 401.09L427.70 397.68L425.00 393.09L422.42 390.84L419.94 388.68L417.36 383.74L417.10 381.67L416.79 377.04L416.42 375.15L417.59 372.40L417.89 369.92L417.73 367.52L413.80 362.26L408.71 356.46L407.17 353.35L405.89 351.66L402.71 348.91L400.86 347.31L398.61 345.83L395.50 343.77L392.93 342.06L388.64 339.34L382.67 333.89L377.23 323.55L376.48 317.86L372.59 311.37L370.39 313.30L343.76 336.65L338.94 340.56L327.42 349.82L320.09 355.69L314.66 359.48L317.86 362.21L328.82 371.76L329.44 394.58L332.71 396.41L332.19 401.36L333.34 408.25L339.48 431.56L321.53 442.01L309.37 449.01L306.25 450.76L304.21 454.09L302.06 457.50L319.23 471.95L321.42 473.77L323.61 475.59L325.80 477.40L327.42 478.75L331.71 482.33L336.61 486.39L338.59 488.04L340.99 490.04L342.55 491.33L344.50 492.95L346.56 494.66L348.12 495.96L349.80 497.36L354.36 496.70L358.93 494.84L363.52 492.97L366.64 491.21L369.62 489.37L371.11 488.46L372.60 487.54L375.56 485.71L385.17 480.80L387.04 483.80L391.22 490.43L394.99 495.56L397.97 503.74L399.68 510.87L400.49 512.84L405.05 516.29L405.88 518.17L408.32 523.72L409.19 525.64L412.25 531.86L415.64 531.27L418.84 531.50L420.40 532.59L426.11 537.98L430.51 540.28L431.77 536.65L434.02 535.23L437.22 533.34L446.01 531.85L453.53 531.18L455.46 532.47L456.49 535.07L459.26 535.84L463.57 537.02L459.57 540.17L457.52 540.73L457.22 542.46L453.88 542.67L453.93 544.46L453.54 547.91L449.58 549.93L449.80 552.50L451.01 555.48L451.01 558.14L451.01 560.24L450.67 562.92L447.63 564.17L445.01 565.95L446.18 568.74L448.19 573.54L451.21 583.41L457.93 580.93L466.02 579.05L468.33 578.99L477.14 578.80L480.68 579.05L487.97 579.89L490.06 579.46L490.35 577.77L487.77 570.03L487.35 567.65L489.57 565.71L494.66 566.69L497.54 566.05L500.47 565.10L503.94 563.95L510.52 561.22L512.52 561.16L514.52 561.11L517.56 561.43L523.42 561.68L525.43 561.62L527.44 561.09L532.26 558.51L534.10 557.91L535.88 557.33L536.78 555.38L536.63 553.61L536.54 550.60L537.26 547.26L537.99 545.01L539.69 541.67L541.61 537.91L543.15 536.79L545.39 535.69L547.52 534.82L551.37 533.56L558.55 531.59L561.07 530.90L564.07 530.08L565.82 528.34L566.60 525.11L566.61 518.36L565.75 504.46L557.58 483.00L545.98 487.95L534.78 489.84L532.31 492.78L529.13 495.06L524.85 497.59L520.08 499.79L518.48 500.69L516.89 501.59L514.55 503.08L506.88 502.12L500.88 501.67L498.91 502.57L489.29 507.07L488.26 508.91L483.16 501.78L481.33 499.21L480.29 497.76L478.26 496.81L474.77 495.10L469.51 492.42L460.35 487.82L457.61 485.99L453.90 483.52L449.18 477.29Z" data-ward="15" /><path id="ward-10" class="ward" d="M552.75 891.41L536.64 895.96L531.91 896.73L526.23 894.47L523.07 893.59L521.69 895.53L518.91 899.41L515.00 904.91L513.86 907.11L514.05 911.32L515.80 914.54L517.14 918.40L517.23 922.07L517.49 925.57L518.87 932.44L519.44 934.31L521.52 941.07L522.45 944.07L524.12 950.39L526.04 955.89L528.14 961.15L528.14 963.73L526.72 966.34L525.24 968.55L524.74 970.88L526.23 973.11L530.82 979.45L532.21 982.70L534.82 987.69L535.86 989.80L537.09 994.49L537.46 996.33L538.02 998.60L539.37 1001.02L540.72 1002.24L542.99 1004.17L544.29 1006.39L545.59 1010.30L546.33 1012.51L547.51 1016.52L548.01 1018.20L548.55 1020.04L549.23 1022.91L549.44 1025.18L548.44 1027.32L550.66 1028.79L553.63 1030.14L555.05 1031.29L558.90 1034.70L560.59 1035.45L568.07 1037.24L572.77 1038.98L577.78 1040.85L579.04 1042.09L580.85 1043.40L583.45 1044.91L592.37 1044.34L594.89 1044.89L596.84 1045.34L602.77 1048.14L607.26 1051.57L609.77 1053.58L611.41 1054.75L619.51 1060.96L624.17 1064.24L627.32 1066.22L631.96 1069.35L636.61 1072.49L636.67 1074.37L636.61 1077.31L640.13 1078.29L644.15 1077.58L646.50 1077.25L649.30 1076.50L654.43 1074.78L656.23 1074.17L659.16 1073.18L664.47 1071.04L666.09 1070.39L671.14 1068.52L673.06 1067.81L675.06 1067.07L678.33 1067.24L683.47 1064.30L693.68 1061.19L703.16 1061.15L707.54 1059.49L709.50 1059.11L717.07 1057.97L726.86 1057.02L735.98 1056.99L741.09 1055.99L751.38 1050.51L752.85 1049.12L743.24 1040.46L734.13 1030.98L732.27 1029.22L729.52 1026.62L722.86 1020.34L721.33 1018.79L711.26 1008.65L696.10 994.06L685.76 984.14L684.04 982.50L682.25 981.89L674.35 979.91L668.82 979.16L666.93 978.23L665.49 977.14L652.15 967.25L645.51 962.33L638.55 958.05L633.69 955.05L631.29 953.19L626.72 949.66L625.24 948.52L618.34 944.20L615.90 942.71L609.69 938.92L604.46 935.55L600.28 929.72L589.20 919.33L585.21 913.26L583.22 908.22L580.20 904.67L576.14 899.91L572.46 897.74L552.75 891.41Z" data-ward="10" /><path id="ward-13" class="ward" d="M510.12 650.50L498.74 643.29L493.28 637.18L489.84 633.46L487.19 633.14L484.77 632.45L481.76 629.39L479.47 627.06L475.40 622.63L471.21 618.07L468.84 616.02L465.41 612.95L463.68 610.01L453.80 597.16L452.95 595.37L448.64 585.35L445.85 586.84L441.71 589.28L438.35 591.03L436.39 592.05L430.21 595.29L426.57 596.30L424.69 597.95L424.43 608.65L425.18 613.14L426.36 621.52L427.72 624.59L432.01 629.57L437.12 633.68L440.52 637.82L441.25 639.91L438.41 643.30L433.32 647.26L428.00 648.08L422.84 648.80L414.38 652.63L411.12 652.33L397.12 653.07L399.41 658.07L400.37 660.33L401.33 662.59L401.75 664.89L402.16 667.10L401.65 672.68L404.21 678.77L406.11 682.94L408.67 686.38L409.72 688.91L410.40 690.90L411.08 692.89L412.62 697.38L413.52 699.92L415.31 702.19L417.72 705.18L419.69 707.64L420.79 709.15L420.24 713.93L419.61 719.39L421.86 721.61L424.32 723.96L426.32 725.71L428.06 727.23L435.51 733.60L444.19 729.93L448.87 726.30L453.23 725.27L455.98 725.10L462.22 725.10L467.67 726.35L470.56 727.03L472.35 727.90L477.73 741.65L478.62 743.36L479.46 744.98L480.30 746.59L481.41 748.72L482.29 750.42L483.30 752.35L483.58 754.98L483.67 758.93L483.83 765.81L483.93 769.75L484.02 773.69L484.88 776.79L485.98 780.00L487.08 783.20L476.85 787.31L473.92 786.69L466.54 785.17L464.64 784.25L462.60 783.27L458.10 781.02L455.59 782.36L451.03 785.13L449.22 786.39L449.95 794.43L454.46 797.06L456.58 801.03L457.55 802.81L462.67 809.75L464.93 811.40L468.33 813.58L470.22 817.73L470.74 820.04L471.26 822.35L473.34 826.50L475.13 830.07L476.34 832.09L479.36 835.36L482.24 834.74L484.38 835.52L487.92 840.29L493.72 847.08L500.95 843.79L510.41 842.71L514.76 842.25L516.89 842.01L536.04 839.97L543.41 839.19L544.73 837.93L547.22 830.91L546.34 823.86L546.11 821.99L545.67 820.25L543.00 809.89L540.06 802.99L538.10 798.02L537.40 796.27L536.38 793.66L534.95 784.98L536.06 779.09L536.57 774.96L537.84 764.59L538.69 757.67L539.11 754.21L539.54 750.76L540.51 742.74L540.72 740.98L541.07 738.43L541.57 733.44L542.60 726.92L543.36 724.63L545.33 718.58L547.31 712.57L548.11 710.05L550.32 703.35L554.96 689.29L555.08 687.52L555.93 676.00L556.48 668.48L556.67 666.27L556.86 664.52L556.95 662.77L556.89 658.49L554.70 658.49L550.85 657.88L548.34 656.89L544.96 655.55L541.82 655.34L538.76 653.58L535.97 650.63L534.57 649.00L532.52 648.67L530.57 649.65L526.72 651.57L524.60 652.10L522.59 652.65L522.47 655.88L519.68 657.55L517.42 658.69L513.55 653.15L510.12 650.50Z" data-ward="13" /><path id="ward-9" class="ward" d="M806.56 980.49L800.99 976.14L799.15 977.18L795.59 977.53L792.36 978.89L790.83 980.16L789.95 981.81L788.22 983.34L783.38 985.42L778.81 984.93L771.63 989.63L769.56 990.35L762.55 993.57L757.30 997.48L759.26 1002.55L760.04 1004.56L760.02 1008.39L758.14 1009.26L758.41 1016.29L758.65 1018.41L758.92 1020.80L762.25 1041.93L757.14 1047.64L752.85 1049.12L751.38 1050.51L741.09 1055.99L735.98 1056.99L726.86 1057.02L717.07 1057.97L709.50 1059.11L707.54 1059.49L703.16 1061.15L693.68 1061.19L683.47 1064.30L678.33 1067.24L683.02 1068.59L682.46 1079.19L682.36 1081.43L692.40 1087.05L695.01 1087.97L697.54 1088.25L699.52 1089.86L701.79 1093.13L702.10 1095.18L703.92 1107.60L704.34 1113.46L708.28 1115.48L721.63 1122.34L723.96 1126.91L724.88 1132.62L725.35 1135.52L725.78 1138.20L727.59 1149.38L728.82 1157.04L728.73 1160.17L730.70 1163.89L737.15 1173.14L740.79 1179.58L744.82 1186.85L754.28 1184.03L758.50 1181.50L762.72 1178.96L772.69 1192.31L778.15 1198.97L780.24 1201.84L773.60 1205.10L763.97 1210.47L754.84 1215.69L739.94 1223.50L736.16 1225.66L743.39 1227.44L745.82 1228.13L754.81 1231.10L761.75 1232.20L766.46 1232.94L771.87 1233.40L776.32 1233.75L775.99 1237.46L775.56 1242.19L777.77 1247.17L778.61 1249.07L781.50 1253.65L784.07 1257.55L787.00 1258.56L789.69 1259.48L792.64 1260.46L794.09 1262.03L798.04 1268.92L799.99 1273.69L798.04 1281.98L804.25 1281.25L821.02 1275.28L836.24 1270.83L841.16 1269.65L848.86 1270.02L851.84 1268.89L859.84 1266.35L862.03 1265.88L887.12 1268.35L914.16 1271.01L916.32 1271.23L931.42 1263.47L932.32 1249.09L944.29 1240.67L946.02 1239.45L948.93 1237.41L950.55 1235.98L961.32 1226.49L965.37 1222.93L966.11 1220.50L966.91 1217.88L967.61 1215.61L962.98 1203.20L961.69 1202.01L956.02 1196.77L954.69 1193.82L952.44 1188.14L951.22 1185.04L956.25 1166.54L957.69 1165.09L962.65 1160.12L966.04 1156.72L967.36 1155.46L972.85 1150.21L979.47 1140.34L987.02 1128.86L1000.00 1117.70L994.82 1111.49L981.50 1104.62L964.92 1088.74L957.46 1062.68L955.32 1055.23L954.61 1053.44L953.14 1049.74L950.67 1047.99L949.06 1046.85L945.62 1044.40L943.37 1041.86L941.90 1040.20L939.35 1037.33L937.77 1035.84L932.32 1030.68L929.79 1020.07L928.98 1016.65L926.00 1015.77L917.34 1014.28L915.42 1012.71L913.71 1014.42L904.72 1022.49L903.00 1021.59L900.91 1018.98L898.44 1015.89L895.99 1013.57L894.68 1012.34L891.27 1008.40L886.54 1002.91L882.87 999.87L878.59 996.32L870.90 989.93L861.23 991.09L859.32 990.64L852.18 988.77L849.89 987.75L846.45 986.22L841.89 987.44L836.02 983.90L830.42 986.10L806.56 980.49Z" data-ward="9" /><path id="ward-1" class="ward" d="M180.48 118.26L178.62 113.36L177.85 109.56L177.06 105.65L176.64 103.60L175.53 99.10L173.38 95.54L172.32 93.97L171.06 90.62L173.63 88.76L175.20 85.58L171.73 84.65L166.40 83.21L163.87 81.83L161.31 80.43L158.57 78.94L154.28 74.59L151.95 70.09L149.65 65.67L149.12 63.74L147.76 58.80L146.82 55.38L146.19 53.12L146.01 49.10L145.82 45.06L145.91 40.47L145.98 36.42L146.02 34.35L146.81 29.83L147.67 24.90L147.85 23.01L148.20 19.49L147.90 16.41L147.59 13.33L147.19 9.53L144.73 8.14L142.64 7.00L140.98 6.09L136.72 3.78L133.34 2.94L126.65 1.26L121.19 0.60L116.16 0.00L111.51 1.74L108.66 2.80L98.96 6.42L92.46 8.85L86.20 11.77L83.89 13.00L81.44 14.10L79.41 15.01L75.46 16.09L73.78 17.07L68.30 18.14L62.31 19.31L54.33 20.87L49.27 21.92L43.57 23.09L38.87 24.06L35.68 24.91L31.11 26.12L27.42 27.25L22.77 28.68L19.84 29.84L17.50 30.73L7.73 35.62L1.98 42.12L0.97 47.23L0.00 52.09L2.25 59.36L3.69 65.51L6.15 73.22L8.78 81.46L7.10 86.95L5.24 92.57L3.48 97.90L5.46 98.09L9.21 100.15L10.30 104.05L11.40 107.95L12.89 110.76L16.49 112.40L20.83 113.03L26.86 113.92L28.14 117.13L28.25 119.74L31.14 119.43L32.35 121.25L33.49 123.60L35.27 125.64L37.18 127.85L39.27 128.66L42.20 134.22L43.69 135.16L45.89 135.60L49.88 136.40L51.96 137.74L53.09 139.77L54.40 141.79L55.79 143.68L58.19 148.03L59.52 150.09L60.48 152.65L58.22 156.52L53.51 157.48L51.43 157.46L49.29 160.90L49.59 163.76L49.79 165.69L50.54 168.00L51.07 169.64L51.49 171.71L50.95 176.35L52.05 177.98L52.16 182.59L52.53 185.45L54.25 186.10L57.04 187.94L57.28 190.40L58.34 192.00L61.13 191.31L62.49 193.27L63.63 194.91L65.22 194.18L67.17 192.51L68.96 190.53L71.90 188.20L75.26 184.23L75.46 180.13L78.25 177.23L81.14 176.42L83.13 176.36L85.92 175.88L87.77 175.15L95.28 171.79L97.37 170.87L105.59 167.29L111.69 164.64L115.79 162.97L121.39 160.75L123.54 159.90L131.44 159.37L136.34 165.20L138.35 164.36L139.04 160.96L141.47 156.00L144.61 154.74L148.75 154.64L151.59 154.36L154.39 153.49L161.09 152.90L166.70 153.16L172.65 154.42L176.14 154.69L179.51 155.81L184.62 152.21L187.35 150.30L190.84 147.86L187.87 142.27L186.08 141.33L181.51 129.49L180.58 120.84L180.48 118.26Z" data-ward="1" /><path id="ward-8" class="ward" d="M712.03 812.29L697.77 802.55L697.86 799.69L698.01 794.85L697.15 793.29L694.09 787.76L691.88 785.43L690.68 784.17L687.51 780.47L666.78 798.22L660.16 804.01L655.13 807.05L645.86 812.64L639.10 814.35L633.62 810.29L626.35 804.31L621.96 806.70L614.82 810.01L606.99 813.61L604.13 814.93L601.69 815.76L599.39 815.95L595.31 817.10L592.01 817.87L587.49 820.41L584.32 822.61L581.53 823.13L578.80 823.12L575.39 822.44L572.50 821.34L571.43 819.84L569.59 818.72L566.51 818.39L560.87 819.37L558.36 819.80L554.29 820.51L552.23 820.88L546.11 821.99L546.34 823.86L547.22 830.91L544.73 837.93L543.41 839.19L541.59 848.61L541.00 850.61L541.29 852.82L541.78 856.55L541.51 860.61L541.30 863.65L540.70 866.18L539.75 870.15L538.35 873.14L536.79 876.49L535.68 877.89L532.04 882.40L530.34 884.51L523.07 893.59L526.23 894.47L531.91 896.73L536.64 895.96L552.75 891.41L572.46 897.74L576.14 899.91L580.20 904.67L583.22 908.22L585.21 913.26L589.20 919.33L600.28 929.72L604.46 935.55L609.69 938.92L615.90 942.71L618.34 944.20L625.24 948.52L626.72 949.66L631.29 953.19L633.69 955.05L638.55 958.05L645.51 962.33L652.15 967.25L665.49 977.14L666.93 978.23L668.82 979.16L674.35 979.91L682.25 981.89L684.04 982.50L685.76 984.14L696.10 994.06L711.26 1008.65L721.33 1018.79L722.86 1020.34L729.52 1026.62L732.27 1029.22L734.13 1030.98L743.24 1040.46L752.85 1049.12L757.14 1047.64L762.25 1041.93L758.92 1020.80L758.65 1018.41L758.41 1016.29L758.14 1009.26L760.02 1008.39L760.04 1004.56L759.26 1002.55L757.30 997.48L762.55 993.57L769.56 990.35L771.63 989.63L778.81 984.93L783.38 985.42L788.22 983.34L789.95 981.81L790.83 980.16L792.36 978.89L795.59 977.53L799.15 977.18L800.99 976.14L806.56 980.49L830.42 986.10L836.02 983.90L841.89 987.44L846.45 986.22L849.89 987.75L852.18 988.77L859.32 990.64L861.23 991.09L870.90 989.93L878.59 996.32L882.87 999.87L886.54 1002.91L891.27 1008.40L894.68 1012.34L895.99 1013.57L898.44 1015.89L900.91 1018.98L903.00 1021.59L904.72 1022.49L913.71 1014.42L915.42 1012.71L913.16 1010.88L912.86 999.16L907.96 990.67L906.61 988.34L903.96 984.27L903.32 981.17L901.27 978.75L900.98 976.67L895.04 973.57L888.91 970.37L885.81 970.35L882.22 970.54L880.16 966.50L875.95 961.21L871.56 958.30L863.18 957.30L847.22 953.90L837.68 942.90L823.60 929.16L819.87 927.63L803.47 920.91L799.73 912.57L792.53 901.76L788.67 897.88L785.73 894.91L783.73 894.26L780.39 893.17L777.60 892.27L774.15 888.49L769.61 883.51L763.71 873.86L758.60 869.46L754.31 865.77L749.93 862.65L746.37 860.11L743.51 858.07L737.43 854.95L735.91 850.19L736.44 845.08L736.74 843.06L737.18 840.12L737.25 838.12L737.38 834.76L737.79 827.13L726.54 829.46L722.24 826.33L718.58 823.85L714.25 816.38L713.33 814.68L712.03 812.29Z" data-ward="8" /><path id="ward-3" class="ward" d="M345.02 129.68L344.47 132.27L344.98 134.03L345.54 140.29L342.46 153.11L338.45 160.55L339.17 166.45L339.68 170.50L339.06 178.05L338.69 180.83L334.97 185.78L334.01 188.99L333.21 192.55L335.11 196.18L337.05 202.65L338.71 208.59L349.12 215.00L345.62 219.99L340.14 226.13L335.96 229.95L340.88 236.38L342.14 241.09L343.25 245.25L346.81 253.50L349.56 256.45L350.94 257.95L352.33 259.46L358.52 266.64L360.19 270.96L360.81 273.07L362.67 280.99L368.61 289.65L370.87 292.95L371.24 296.16L369.41 303.30L370.71 308.27L372.59 311.37L376.48 317.86L377.23 323.55L382.67 333.89L388.64 339.34L392.93 342.06L395.50 343.77L398.61 345.83L400.86 347.31L402.71 348.91L405.89 351.66L407.17 353.35L408.71 356.46L413.80 362.26L417.73 367.52L417.89 369.92L417.59 372.40L416.42 375.15L416.79 377.04L417.10 381.67L417.36 383.74L419.94 388.68L422.42 390.84L425.00 393.09L427.70 397.68L429.37 401.09L434.17 409.67L437.04 410.65L441.43 411.26L447.63 412.12L455.97 413.28L460.65 404.49L462.94 400.19L466.59 397.15L468.70 396.25L475.70 393.32L467.45 379.36L464.33 376.90L462.45 375.44L460.36 373.71L458.99 372.39L457.74 370.26L464.72 369.68L471.97 367.72L474.58 364.36L475.95 363.09L482.95 359.49L487.26 353.48L489.07 352.17L493.07 351.04L502.40 347.25L494.73 340.47L489.98 336.26L487.89 334.41L488.14 330.41L488.43 325.49L486.88 322.75L483.86 317.44L482.33 315.13L478.75 309.78L475.66 305.15L472.54 300.49L469.58 296.05L466.10 290.83L459.18 275.02L453.14 268.52L446.07 263.12L442.97 260.75L440.37 259.42L437.96 258.87L435.01 258.20L432.70 257.62L431.17 256.70L428.76 255.26L427.20 254.33L425.82 253.05L424.44 251.76L422.62 248.26L420.80 246.81L416.83 244.93L414.22 243.69L411.80 242.54L406.80 240.17L414.21 226.19L418.16 218.72L422.29 205.61L433.30 187.46L434.35 185.74L433.32 181.35L432.49 177.81L430.45 174.26L429.96 171.45L429.70 167.28L430.14 164.04L431.14 159.56L432.78 156.55L434.68 155.64L436.87 152.86L436.65 150.92L436.22 147.92L435.77 144.73L436.36 141.43L429.23 136.87L422.07 137.23L409.61 139.16L400.36 139.74L396.90 137.67L393.80 134.53L390.17 130.74L388.59 133.81L385.43 133.05L382.66 131.76L381.13 130.98L379.07 130.47L378.07 135.28L370.67 135.64L365.08 135.60L361.84 133.57L359.03 131.82L357.27 131.27L353.11 132.25L345.02 129.68Z" data-ward="3" /></svg>